# vtk DataFile Version 3.0
this file was written using fslvtkio
ASCII
DATASET POLYDATA
POINTS 732 float
135.906 123.575 80.3573
134.79 122.095 80.4439
135.904 122.112 80.2552
137.048 122.378 80.4705
137.314 123.985 80.718
138.452 122.761 80.9129
138.643 124.21 81.448
139.686 123.652 81.7629
135.057 124.361 80.6347
133.915 123.855 80.4557
136.506 125.342 81.249
137.996 125.349 81.7873
139.757 124.932 82.5697
134.127 125.784 80.7582
132.441 125.617 81.4656
133.03 124.59 80.9823
135.457 126.113 81.0233
136.466 126.568 82.113
137.448 126.141 82.7459
138.875 125.794 82.8692
133.623 126.797 81.549
132.324 126.608 82.2931
135.13 127.164 81.9164
136.131 127.229 83.2131
136.709 126.446 84.1596
138.253 126.185 83.6037
133.554 127.187 82.9221
134.811 127.301 83.5143
136.331 120.681 80.7385
134.748 120.272 81.2498
135.534 119.259 81.5881
137.237 119.426 81.206
138.05 121.331 80.7773
138.854 120.143 81.1702
139.689 122.168 81.4688
140.198 120.716 81.7543
141.084 122.343 82.3202
141.601 121.2 82.4146
133.914 121.544 81.0369
132.477 121.273 82.1311
133.305 120.227 82.0177
141.035 123.821 82.749
142.15 122.661 83.516
132.329 122.478 81.8601
130.986 122.777 82.9615
131.381 121.412 82.9872
133.171 123.109 80.9595
140.794 125.002 83.5204
141.572 124.135 83.9131
131.808 124.069 81.9084
130.669 124.214 83.2762
141.201 125.364 84.8511
139.725 125.683 84.1011
131.367 125.478 82.5405
130.431 125.623 83.663
135.623 126.857 84.3112
135.351 126.281 85.6134
134.601 127.171 84.7192
137.092 126.231 85.5081
138.402 126.142 84.751
131.833 126.885 83.5183
133.237 127.042 84.4029
140.35 118.096 81.7442
138.909 117.142 81.7219
139.812 116.478 82.1078
141.201 116.816 82.2385
141.977 118.298 82.1866
142.612 117.18 82.5207
134.361 117.683 82.8081
133.254 116.869 83.5669
134.353 116.68 83.3874
135.472 116.633 82.971
136.282 117.983 81.8907
137.196 116.785 82.0669
138.311 118.395 81.531
139.796 119.337 81.5386
141.51 119.632 82.0364
143.191 118.312 82.8645
142.945 119.47 82.9019
144.193 118.7 83.6645
132.467 118.402 83.2055
131.117 117.913 84.2413
132.03 117.418 83.6729
133.993 118.949 82.3386
142.819 120.903 83.2588
143.893 120.25 84.0711
130.667 119.528 83.958
129.384 119.657 85.0277
129.906 118.867 84.5284
131.906 119.967 83.0237
142.633 122.477 84.4921
143.197 121.486 84.6584
130.089 121.383 84.1472
128.879 121.343 85.3161
142.296 122.656 85.6757
141.879 123.865 85.1332
128.919 122.987 85.1893
127.81 123.304 86.6105
127.926 122.081 86.2746
129.927 123.157 84.1259
140.861 124.976 86.164
139.766 125.804 85.5571
128.572 124.623 85.971
129.548 124.6 84.7453
129.278 125.922 85.8336
133.981 126.58 85.5357
133.55 126.012 86.375
132.779 126.667 85.6374
134.991 125.576 86.88
136.516 125.829 86.5377
138.202 126.003 86.2074
130.292 126.37 84.7849
131.641 126.783 85.1411
138.018 114.651 82.7477
136.628 114.205 83.9334
137.761 114.034 83.6523
138.95 114.005 83.2876
140.085 115.191 82.4388
140.804 114.316 82.9514
142.078 115.824 82.5828
142.553 114.742 83.0872
143.615 116.088 83.4366
144.106 115.285 84.0626
134.294 115.462 83.7735
132.777 115.023 84.6576
133.906 114.613 84.6766
135.035 114.456 84.2823
136.462 115.321 83.0443
138.167 115.839 82.3358
143.743 117.173 83.1991
144.767 117.387 84.2879
131.993 116.386 84.4365
130.661 116.263 85.348
131.682 115.569 84.9758
144.817 119.083 84.9884
129.807 118.062 85.2854
128.256 118.14 86.5643
129.104 116.941 85.9781
143.847 120.507 85.212
128.206 119.131 86.0514
127.037 120.231 87.095
127.149 119.184 87.5281
142.921 121.544 86.0002
127.99 120.701 86.2292
126.721 121.826 87.6685
141.662 122.305 86.9361
141.571 123.691 86.4945
126.922 123.288 88.1345
136.127 124.812 87.2983
135.105 123.859 87.7965
134.816 124.88 87.4345
137.755 125.194 87.1182
137 124.041 87.6429
139.401 125.527 86.7718
138.996 124.502 87.247
140.322 124.021 87.092
127.839 124.454 87.2019
130.522 126.342 86.4479
129.328 125.548 87.284
131.923 126.383 86.3614
131.575 125.7 87.0647
133.484 125.225 87.1784
137.503 113.306 84.3964
136.005 112.646 85.5856
137.349 112.514 85.0214
138.623 112.426 84.6433
139.534 113.287 83.8013
140.609 112.574 84.2225
141.432 113.41 83.7057
142.903 112.613 84.257
143.183 113.856 83.8317
144.29 113.942 84.6741
133.783 113.815 85.5639
131.994 113.898 86.169
132.504 112.939 86.6028
134.182 112.58 86.3947
135.563 113.527 85.1409
144.896 115.379 84.9642
131.511 114.837 85.6702
129.687 114.861 86.9865
130.591 114.165 86.8058
145.216 116.61 85.4142
145.259 117.872 85.6538
145.557 116.652 86.8377
129.615 115.803 86.395
128.079 116.742 87.163
128.352 115.731 87.9587
144.892 119.097 86.1618
145.166 117.966 87.0741
127.425 118.167 88.1639
144.304 119.295 87.1951
143.822 120.223 86.2626
126.787 120.53 88.4029
126.927 119.434 89.0885
142.776 121.137 87.1951
126.69 122.052 88.9604
137.699 123.183 87.8076
136.516 121.716 88.4545
136.367 122.714 88.0028
139.133 123.153 87.6801
138.181 122.325 88.2698
140.557 122.863 87.2196
139.915 121.92 87.9894
141.344 121.331 87.6491
127.504 123.436 89.2272
130.87 124.787 87.6966
130.324 123.98 88.8118
129.492 124.653 88.2189
132.451 124.583 87.8122
131.629 123.736 88.7754
133.857 124.306 87.7546
133.195 123.362 88.4563
134.908 122.856 88.1562
128.044 124.49 88.3451
137.34 111.726 85.7398
136.102 111.155 86.9117
137.26 110.992 86.3488
138.452 110.888 85.9641
139.459 111.688 85.2931
140.433 110.837 85.462
141.454 111.666 84.7913
142.659 110.949 85.5702
142.715 111.729 84.9174
143.715 112 85.4326
135.355 112.025 86.6855
133.595 111.711 87.5893
134.919 111.556 87.4148
144.682 113.137 85.3897
145.424 114.344 85.9346
145.704 113.466 87.0796
131.067 113.468 87.1764
129.741 113.987 88.2893
130.515 112.451 88.104
132.338 112.058 87.3093
145.503 115.576 86.2189
145.688 114.983 87.5577
128.85 115.02 88.9214
145.308 116.68 88.0359
127.806 117.127 88.8761
128.373 116.409 89.6511
144.36 118.08 88.0771
127.696 118.504 89.7862
143.916 119.284 87.9721
143.114 120.056 87.7338
126.949 120.746 89.7254
127.621 119.605 90.2621
140.389 120.867 88.6297
139.068 119.831 89.2702
139.06 121.185 88.9518
141.892 120.539 88.092
141.023 119.936 88.8559
127.964 121.674 89.8693
128.469 122.615 89.5417
130.355 122.745 89.2793
129.5 121.559 89.6316
132.183 122.409 89.1221
131.225 121.341 89.4211
133.841 122.182 88.8027
132.782 121.185 89.6604
135.307 121.95 88.4738
134.495 121.223 89.4672
136.076 120.886 89.1845
137.826 121.475 88.8178
128.971 123.738 89.1593
137.219 110.249 86.9988
136.366 109.879 87.903
137.509 109.368 87.4426
138.628 109.412 87.181
139.333 110.098 86.3469
140.43 109.228 86.6111
141.317 109.993 85.8061
142.304 109.164 86.4055
142.63 109.993 85.9864
143.832 110.051 86.437
134.614 111.03 87.9396
133.791 110.68 88.6917
135.031 110.361 88.3929
144.437 111.237 86.5318
145.043 112.33 86.5075
145.574 112.05 87.9707
131.668 111.477 88.4666
131.331 111.298 90.1043
132.416 110.757 88.9865
145.902 113.754 88.5598
129.703 113.127 89.5751
130.207 112.104 89.9165
145.351 115.507 89.0423
129.45 114.604 90.2826
129.974 113.816 90.9947
144.501 117.068 89.1268
128.462 117.646 90.6154
129.387 116.192 90.9027
143.585 118.871 88.705
143.568 118.053 89.3297
142.664 118.353 89.7271
129.277 119.308 90.7457
129.998 117.863 91.2525
142.289 119.494 88.8995
141.395 118.592 89.8454
140.652 119.072 89.5172
128.546 120.646 90.372
130.076 120.597 90.1383
130.849 119.041 90.701
131.399 120.103 90.1507
133.271 120.1 90.1138
132.19 119.073 90.6628
134.997 120.064 89.6935
133.864 118.987 90.3288
136.641 120.071 89.3603
135.367 119.008 90.082
137.897 120.213 89.355
137.109 119.157 89.9323
139 119.043 89.7988
140.106 107.542 87.7823
139.285 106.937 88.4064
140.438 106.623 88.2928
141.546 106.695 88.0633
142.35 107.595 87.4842
142.921 106.832 88.0885
138.032 108.439 87.8879
136.691 108.43 88.8427
137.79 107.436 88.7772
139.733 108.566 87.1979
141.624 108.367 87.0528
143.628 107.781 87.6993
143.717 108.824 86.9983
144.775 108.316 88.1141
145.219 109.553 88.0428
145.49 109.113 89.4262
135.646 109.568 88.7615
134.248 109.284 89.2852
135.374 108.551 89.5485
145.045 110.541 87.4883
145.592 110.831 89.1392
133.237 110.174 89.3514
132.307 110.146 90.3547
133.285 109.39 89.8498
145.559 112.488 89.5343
132.555 111.382 91.2198
131.762 112.067 91.419
133.324 112.36 91.9431
145.395 114.41 89.9558
130.862 112.493 91.4251
132.229 112.936 92.138
144.367 116.011 90.2246
130.525 115.62 91.7755
130.831 113.967 91.8721
143.392 117.209 90.0107
143.351 116.695 90.586
142.23 116.874 90.8631
131.075 117.162 91.6507
131.859 115.766 92.0587
132.628 116.943 91.6035
134.73 117.193 91.2154
133.535 116.591 92.3479
136.561 117.153 90.7468
135.335 116.559 91.937
138.407 117.256 90.6561
137.216 116.456 91.4992
140.034 117.471 90.6665
139.015 116.599 91.3299
141.632 117.862 90.4668
140.766 116.832 91.1915
131.476 118.324 91.0945
132.641 118.138 91.0983
134.253 118.025 90.6785
135.908 117.999 90.3809
137.693 118.151 90.1205
139.616 118.156 90.2196
140.875 105.667 88.7239
139.217 105.392 89.2264
140.193 104.615 89.3353
141.802 104.46 88.9539
142.91 105.919 88.6631
143.612 104.598 89.2059
144.527 106.267 89.0871
144.705 105.372 89.7204
136.611 106.357 89.9546
135.608 105.647 90.5549
136.682 105.5 90.4144
137.733 105.42 89.9713
138.471 106.362 89.0851
144.202 107.053 88.4485
145.223 106.818 89.7924
145.149 107.765 89.3001
145.411 107.706 90.6381
134.889 107.035 90.2511
133.087 107.667 90.8516
133.915 106.436 90.8654
136.126 107.478 89.7079
145.598 109.689 90.63
133.924 108.539 90.043
133.086 109.093 91.2099
145.506 111.384 90.7092
133.222 110.286 91.4892
132.525 110.707 91.3606
133.967 111.256 91.7744
144.893 113.065 90.8134
134.005 113.628 92.1651
134.937 112.317 92.1721
135.857 113.23 92.4158
144.209 114.764 90.8902
132.256 113.903 92.333
134.541 114.63 92.2861
135.908 114.074 92.4171
143.206 116.013 91.024
143.337 115.116 91.6203
142.371 115.604 91.8365
132.455 115.14 92.4054
134.178 115.435 92.1892
136.343 114.694 92.1575
136.116 115.413 91.828
138.2 115.62 91.615
137.911 114.758 92.0448
139.959 115.886 91.6137
139.596 115.082 92.2375
141.654 116.151 91.6345
141.136 115.333 92.253
138.492 103.423 90.5532
137.468 102.847 91.3539
138.569 102.444 90.9771
139.734 102.375 90.6154
140.396 103.574 89.8596
141.552 102.318 90.3225
142.295 103.507 89.7906
143.254 102.556 90.4426
143.707 103.572 90.0592
144.5 103.626 91.5361
136.846 104.539 90.8596
134.801 104.581 91.5255
136.049 103.664 91.6401
138.737 104.447 89.9424
144.706 104.757 90.6263
145.367 106.183 90.5077
145.044 106.229 91.45
134.347 105.354 91.2164
132.665 106.425 91.6468
132.714 105.218 91.9329
145.05 108.222 91.8693
133.145 107.789 92.3813
145.015 110.004 91.9954
134.006 108.938 92.5209
134.38 110.05 92.2326
135.729 110.398 92.7391
135.506 109.354 93.1569
136.797 110.163 93.4402
144.867 111.739 91.9282
135.296 111.265 92.2234
136.579 111.345 92.9085
144.085 112.998 91.9098
143.874 111.883 92.8493
143.339 112.686 92.8595
137.651 113.348 92.8697
136.734 112.402 92.9445
139.376 113.468 93.1295
138.303 112.41 93.3251
139.877 112.381 93.3205
142.663 113.859 92.6915
142.383 112.479 93.3989
141.693 113.257 93.0921
143.724 114.118 91.6501
137.423 114.215 92.5303
138.947 114.283 92.7994
140.62 113.2 93.2418
140.788 114.313 92.7807
142.317 114.878 92.3455
138.79 101.519 91.417
137.073 101.509 92.1408
138.344 100.412 92.1026
140.093 100.168 91.8625
140.768 101.217 91.0681
142.044 100.3 91.9633
142.616 101.347 90.856
143.5 101.025 91.8979
143.991 102.115 91.2455
144.064 102.538 92.6352
133.634 102.99 92.5525
132.483 102.509 92.9079
133.898 102.106 92.9775
135.287 101.943 92.8704
136.083 102.635 92.0936
144.351 104.119 93.3963
131.803 104.404 92.3581
130.17 104.67 93.7479
130.768 103.221 93.2279
134.153 103.868 92.0909
144.7 105.1 92.323
144.671 106.561 92.5954
131.182 105.645 93.5597
132.572 106.382 93.3105
144.449 107.709 92.9333
144.524 106.892 93.4562
143.985 107.312 94.1494
133.975 107.078 93.3424
134.792 108.223 93.3768
136.587 108.884 93.7954
135.577 107.365 93.9305
138.201 108.98 94.3695
137.136 107.525 94.339
138.512 107.795 94.7529
144.324 109.022 93.1533
143.351 108.548 94.2526
138.194 110.26 93.8045
139.435 108.768 94.6247
139.817 109.916 94.2813
141.607 110.081 94.6359
140.628 108.796 94.9451
143.141 109.987 94.0859
142.189 108.901 95.0071
144.114 110.69 93.1851
137.94 111.433 93.403
139.491 111.382 93.6447
140.946 110.862 94.0818
142.758 111.394 93.9545
141.195 111.987 93.7788
136.631 99.6648 93.1901
135.508 99.2827 93.7806
136.879 98.5525 93.4504
138.358 98.3599 93.3224
139.081 99.2231 92.6354
140.637 97.894 93.384
141.158 99.047 92.4038
142.26 98.176 93.5229
142.819 99.3326 92.819
143.202 99.5432 94.4305
134.161 101.076 93.3325
132.568 100.762 93.9614
134.159 100.155 93.9654
136.765 100.559 92.6
143.556 100.797 93.2714
143.786 102.663 94.0459
131.303 101.916 93.5544
130.167 103.06 95.1099
130.789 101.514 94.0275
143.629 103.863 94.7059
130.831 104.499 95.2661
144.326 105.826 93.908
143.487 105.033 94.8257
131.134 105.414 94.6895
134.328 106.393 94.3592
132.653 105.828 94.82
136.196 106.376 94.7929
134.811 105.482 95.3382
138.16 106.53 94.9291
136.754 105.149 95.4771
139.91 106.58 95.8063
138.634 105.233 95.5401
141.598 106.684 95.9049
140.41 105.266 96.1512
143.175 106.476 95.1829
142.094 105.331 95.8555
139.637 107.512 95.2142
141.19 107.736 95.5076
142.724 107.612 95.1176
137.03 97.5226 93.9034
135.349 97.5741 94.5156
136.656 96.5845 94.4531
138.22 96.0554 94.5298
139.249 97.088 93.9342
140.154 96.3815 94.937
141.172 97.0952 94.457
141.611 97.2533 96.1697
134.088 99.2565 94.3753
132.629 99.1884 94.7822
134.02 98.1798 94.6883
142.388 98.0021 95.142
142.774 99.6642 95.8996
129.365 101.276 94.8258
128.649 100.477 96.3359
129.361 99.9178 95.0297
130.766 99.528 94.87
130.927 100.816 94.2771
143.467 101.377 94.7212
142.803 101.279 95.7726
128.948 102.189 95.9042
132.006 103.831 96.0676
130.714 102.581 96.6202
134.208 103.335 96.0419
132.777 102.455 96.4639
134.688 102.374 96.8236
142.926 103.015 95.3885
142.089 102.836 96.3117
132.28 104.951 95.5467
133.868 104.649 95.6569
135.779 102.988 96.5439
136.042 103.958 95.9625
137.957 104.046 96.2068
137.475 102.997 96.9203
139.694 104.173 96.4868
139.096 103.141 96.8693
141.536 104.131 96.259
140.715 103.175 96.7594
142.834 104.405 95.5224
135.928 95.9129 95.2199
134.57 95.5126 95.7673
135.239 94.5578 96.8721
136.678 94.9697 96.3136
137.9 95.3107 95.5994
138.556 95.2843 97.0219
134.042 97.1576 95.1621
132.847 96.7456 96.0844
133.819 96.219 96.0217
139.842 95.872 96.1009
140.851 97.0104 97.4176
130.091 98.7292 95.6492
128.66 98.973 96.4957
129.679 97.9245 96.0574
130.974 97.3643 96.072
132.174 98.1248 95.4002
142.06 99.1263 96.8928
141.257 98.8245 97.9654
129.256 100.16 97.5844
129.351 101.651 97.0411
130.595 101.187 97.4439
131.113 100.076 98.0948
132.376 100.348 97.7866
140.872 100.817 97.704
140.279 99.9703 98.2026
138.934 100.72 98.1201
142.178 100.678 96.763
132.368 101.548 97.1966
136.592 102.107 97.3307
134.492 101.531 97.5875
138.807 101.9 97.5798
136.875 101.123 97.8442
140.267 102.25 97.2965
141.556 101.905 96.8916
133.574 95.1059 96.8534
132.439 94.7596 97.2843
133.52 94.4156 98.22
135.705 94.6089 98.3318
137.337 94.9998 97.8847
138.614 95.9183 99.0154
129.832 96.9698 96.6686
128.72 96.3569 97.312
129.852 95.8367 97.4687
130.961 95.5398 97.3857
131.89 96.0201 96.7118
139.685 96.3247 98.0338
140.2 97.8387 98.7713
128.028 97.7909 96.7179
126.47 97.6758 97.7449
127.421 96.8002 97.2109
139.526 99.1966 98.601
139.343 98.4299 99.2994
138.22 98.8099 99.3661
127.767 99.2441 97.5406
129.121 99.1016 98.2628
130.789 99.1039 98.5339
133.79 100.521 98.199
132.833 99.2201 98.7209
135.757 100.486 98.5627
134.667 99.4061 99.0489
137.744 100.025 98.7493
136.48 99.2772 99.3268
129.714 94.6859 98.2029
128.284 94.3471 98.3222
129.255 93.6442 99.2671
131.446 94.0431 98.7986
131.552 94.6256 97.9307
133.434 94.2947 99.5194
135.115 94.5323 99.3707
136.974 94.9855 99.2343
137.557 95.6617 100.259
125.887 96.0597 97.969
124.57 94.9392 98.5304
125.639 94.7171 98.3747
126.745 94.5077 98.2584
127.663 95.8633 97.8343
139.063 97.4226 99.7985
137.908 96.9325 100.64
124.951 96.7129 98.789
128.153 98.3038 98.5984
126.75 97.3951 99.1055
130.039 98.2029 99.1501
128.752 97.4296 99.5705
131.907 98.3125 99.436
130.757 97.5595 100.158
133.75 98.5437 99.9364
132.476 97.6974 100.514
135.488 98.4569 100.139
134.011 97.6352 101.032
137.221 98.1278 100.086
135.959 97.5579 100.885
125.365 93.3836 98.9725
123.488 92.4784 100.223
125.565 92.5018 100.573
127.072 93.1253 99.9639
127.395 93.4906 98.9276
129.341 93.4454 100.48
130.89 93.8819 100.047
132.522 94.1033 100.605
134.604 94.3746 100.649
136.121 95.1247 100.676
135.063 95.2051 101.668
123.599 93.6136 99.1205
122.392 94.411 99.4529
121.806 92.9274 100.21
135.191 96.5704 101.732
133.956 95.7976 102.378
133.472 96.7908 101.927
136.796 96.3996 101.206
123.584 95.4516 99.4068
124.81 96.1266 100.117
126.272 96.5472 100.014
128.053 96.7801 100.324
129.907 96.9521 100.718
131.78 97.2274 101.698
124.008 92.6228 101.54
125.786 93.1787 101.977
127.143 93.2797 101.56
128.74 93.4813 101.505
130.639 93.8556 101.413
132.29 94.4593 101.912
130.999 94.9124 102.815
133.585 94.5341 101.845
122.276 94.4503 100.932
122.857 93.3959 101.716
132.49 95.9034 102.605
130.822 96.3335 102.485
123.945 95.1526 100.947
125.7 95.7763 100.981
127.394 96.1183 101.293
129.265 96.4605 101.788
124.509 93.9407 102.339
126.36 94.2217 102.461
128.039 94.4547 102.624
129.523 94.3229 102.452
124.407 94.8298 101.611
126.043 95.2996 101.884
127.796 95.6563 102.394
129.324 95.6023 103.154
POLYGONS 1460  5840
3 0 1 2
3 0 3 4
3 2 3 0
3 4 5 6
3 3 5 4
3 5 7 6
3 8 1 0
3 9 1 8
3 4 10 0
3 10 8 0
3 6 11 4
3 11 10 4
3 12 6 7
3 11 6 12
3 13 14 15
3 9 13 15
3 9 8 13
3 8 16 13
3 10 17 8
3 17 16 8
3 11 18 10
3 18 17 10
3 19 11 12
3 18 11 19
3 20 14 13
3 21 14 20
3 16 22 13
3 22 20 13
3 23 17 24
3 23 22 17
3 22 16 17
3 18 24 17
3 25 24 18
3 19 25 18
3 20 26 21
3 22 26 20
3 27 26 22
3 23 27 22
3 28 29 30
3 28 31 32
3 30 31 28
3 32 33 34
3 31 33 32
3 34 35 36
3 33 35 34
3 35 37 36
3 38 39 40
3 29 38 40
3 28 38 29
3 28 1 38
3 28 2 1
3 3 2 28
3 32 3 28
3 5 3 32
3 34 5 32
3 7 5 34
3 7 34 41
3 41 34 36
3 42 36 37
3 41 36 42
3 43 44 45
3 39 43 45
3 39 38 43
3 38 46 43
3 1 9 46
3 38 1 46
3 41 47 12
3 7 41 12
3 48 41 42
3 47 41 48
3 49 44 43
3 50 44 49
3 15 14 49
3 15 49 46
3 46 49 43
3 9 15 46
3 47 51 52
3 47 52 12
3 12 52 19
3 48 51 47
3 53 50 49
3 54 50 53
3 14 21 53
3 49 14 53
3 55 56 57
3 55 23 24
3 55 24 56
3 56 24 58
3 25 59 24
3 24 59 58
3 52 25 19
3 59 25 52
3 53 60 54
3 21 60 53
3 21 26 60
3 26 61 60
3 57 27 55
3 57 61 27
3 61 26 27
3 23 55 27
3 62 63 64
3 62 65 66
3 64 65 62
3 65 67 66
3 68 69 70
3 68 71 72
3 70 71 68
3 72 73 74
3 71 73 72
3 63 74 73
3 63 62 74
3 62 75 74
3 66 76 62
3 76 75 62
3 77 66 67
3 77 78 66
3 78 76 66
3 77 79 78
3 80 81 82
3 69 80 82
3 69 68 80
3 68 83 80
3 30 29 83
3 30 83 72
3 72 83 68
3 31 30 72
3 74 31 72
3 33 31 74
3 75 33 74
3 35 33 75
3 76 35 75
3 37 35 76
3 37 76 84
3 84 76 78
3 85 78 79
3 84 78 85
3 86 87 88
3 81 86 88
3 81 80 86
3 80 89 86
3 40 39 89
3 40 89 83
3 83 89 80
3 29 40 83
3 84 90 42
3 37 84 42
3 91 84 85
3 90 84 91
3 92 87 86
3 93 87 92
3 45 44 92
3 45 92 89
3 89 92 86
3 39 45 89
3 90 94 95
3 90 95 42
3 42 95 48
3 91 94 90
3 96 97 98
3 93 96 98
3 93 92 96
3 92 99 96
3 44 50 99
3 92 44 99
3 51 100 101
3 52 51 101
3 95 51 48
3 100 51 95
3 96 102 97
3 102 103 104
3 102 96 103
3 96 99 103
3 50 54 103
3 99 50 103
3 105 106 107
3 105 57 56
3 105 56 106
3 106 56 108
3 58 109 56
3 56 109 108
3 59 110 58
3 58 110 109
3 101 59 52
3 110 59 101
3 103 111 104
3 54 111 103
3 54 60 111
3 60 112 111
3 107 61 105
3 107 112 61
3 112 60 61
3 57 105 61
3 113 114 115
3 113 116 117
3 115 116 113
3 117 118 119
3 116 118 117
3 119 120 121
3 118 120 119
3 120 122 121
3 123 124 125
3 123 126 127
3 125 126 123
3 114 127 126
3 114 113 127
3 113 128 127
3 64 63 128
3 64 128 117
3 117 128 113
3 65 64 117
3 119 65 117
3 67 65 119
3 67 119 129
3 129 119 121
3 130 121 122
3 129 121 130
3 131 132 133
3 124 131 133
3 123 131 124
3 123 69 131
3 123 70 69
3 71 70 123
3 127 71 123
3 73 71 127
3 128 73 127
3 63 73 128
3 67 129 77
3 129 79 77
3 129 130 79
3 130 134 79
3 135 136 137
3 132 135 137
3 131 135 132
3 131 81 135
3 131 82 81
3 69 82 131
3 79 134 85
3 134 138 85
3 139 140 141
3 136 139 141
3 135 139 136
3 135 87 139
3 135 88 87
3 81 88 135
3 85 138 91
3 138 142 91
3 143 140 139
3 144 140 143
3 87 93 143
3 139 87 143
3 94 145 146
3 95 94 146
3 142 94 91
3 145 94 142
3 98 144 143
3 98 97 144
3 97 147 144
3 93 98 143
3 148 149 150
3 148 151 152
3 149 148 152
3 151 153 154
3 152 151 154
3 153 101 100
3 153 100 154
3 154 100 155
3 146 100 95
3 155 100 146
3 97 156 147
3 102 156 97
3 104 157 158
3 104 158 102
3 102 158 156
3 157 159 160
3 158 157 160
3 159 107 106
3 159 106 160
3 160 106 161
3 150 108 148
3 150 161 108
3 161 106 108
3 109 148 108
3 151 148 109
3 110 151 109
3 153 151 110
3 101 153 110
3 104 111 157
3 112 157 111
3 159 157 112
3 107 159 112
3 162 163 164
3 162 165 166
3 164 165 162
3 166 167 168
3 165 167 166
3 168 169 170
3 167 169 168
3 169 171 170
3 172 173 174
3 172 175 176
3 174 175 172
3 163 176 175
3 162 176 163
3 162 114 176
3 162 115 114
3 116 115 162
3 166 116 162
3 118 116 166
3 168 118 166
3 120 118 168
3 170 120 168
3 170 122 120
3 170 171 122
3 171 177 122
3 178 179 180
3 173 178 180
3 172 178 173
3 172 124 178
3 172 125 124
3 126 125 172
3 176 126 172
3 114 126 176
3 181 182 130
3 181 130 177
3 177 130 122
3 181 183 182
3 184 185 186
3 179 184 186
3 178 184 179
3 178 132 184
3 178 133 132
3 124 133 178
3 182 187 134
3 130 182 134
3 188 182 183
3 187 182 188
3 137 185 184
3 137 136 185
3 136 189 185
3 132 137 184
3 187 190 191
3 187 191 134
3 134 191 138
3 188 190 187
3 141 192 193
3 140 192 141
3 189 136 141
3 193 189 141
3 138 191 142
3 191 194 142
3 140 144 192
3 192 144 195
3 196 197 198
3 196 199 200
3 197 196 200
3 199 201 202
3 200 199 202
3 201 146 145
3 201 145 202
3 202 145 203
3 194 145 142
3 203 145 194
3 144 147 195
3 195 147 204
3 205 206 207
3 205 208 209
3 206 205 209
3 208 210 211
3 209 208 211
3 210 150 149
3 210 149 211
3 211 149 212
3 198 152 196
3 198 212 152
3 212 149 152
3 154 196 152
3 199 196 154
3 155 199 154
3 201 199 155
3 146 201 155
3 147 213 204
3 156 213 147
3 207 158 205
3 207 213 158
3 213 156 158
3 160 205 158
3 208 205 160
3 161 208 160
3 210 208 161
3 150 210 161
3 214 215 216
3 214 217 218
3 216 217 214
3 218 219 220
3 217 219 218
3 220 221 222
3 219 221 220
3 221 223 222
3 224 225 226
3 215 224 226
3 214 224 215
3 214 163 224
3 214 164 163
3 165 164 214
3 218 165 214
3 167 165 218
3 220 167 218
3 169 167 220
3 222 169 220
3 171 227 228
3 169 227 171
3 169 223 227
3 169 222 223
3 227 229 228
3 230 231 232
3 230 174 173
3 230 232 174
3 232 233 174
3 225 224 175
3 225 175 233
3 233 175 174
3 163 175 224
3 228 234 177
3 171 228 177
3 235 228 229
3 234 228 235
3 180 231 230
3 180 179 231
3 179 236 231
3 173 180 230
3 177 234 181
3 234 183 181
3 234 235 183
3 235 237 183
3 186 238 239
3 185 238 186
3 236 179 186
3 239 236 186
3 183 237 188
3 237 240 188
3 185 189 238
3 238 189 241
3 190 242 243
3 191 190 243
3 240 190 188
3 242 190 240
3 193 244 245
3 192 244 193
3 241 189 193
3 245 241 193
3 246 247 248
3 246 249 250
3 247 246 250
3 249 243 250
3 249 194 243
3 194 191 243
3 251 195 252
3 251 244 195
3 244 192 195
3 252 253 254
3 251 252 254
3 253 255 256
3 254 253 256
3 255 257 258
3 256 255 258
3 257 259 260
3 258 257 260
3 259 198 197
3 259 197 260
3 260 197 261
3 200 262 197
3 197 262 261
3 248 202 246
3 248 262 202
3 262 200 202
3 203 246 202
3 249 246 203
3 194 249 203
3 252 204 263
3 195 204 252
3 206 263 207
3 206 253 263
3 253 252 263
3 209 253 206
3 255 253 209
3 211 255 209
3 257 255 211
3 212 257 211
3 259 257 212
3 198 259 212
3 204 213 263
3 207 263 213
3 264 265 266
3 264 267 268
3 266 267 264
3 268 269 270
3 267 269 268
3 270 271 272
3 269 271 270
3 271 273 272
3 274 275 276
3 265 274 276
3 264 274 265
3 264 215 274
3 264 216 215
3 217 216 264
3 268 217 264
3 219 217 268
3 270 219 268
3 221 219 270
3 272 221 270
3 223 277 278
3 221 277 223
3 221 273 277
3 221 272 273
3 277 279 278
3 280 281 282
3 275 280 282
3 274 280 275
3 274 225 280
3 274 226 225
3 215 226 274
3 223 278 227
3 278 229 227
3 278 279 229
3 279 283 229
3 232 231 284
3 280 285 281
3 280 232 285
3 280 233 232
3 284 285 232
3 225 233 280
3 229 283 235
3 283 286 235
3 284 287 288
3 284 231 287
3 231 236 287
3 285 284 288
3 235 286 237
3 286 289 237
3 239 238 290
3 239 290 291
3 239 291 236
3 236 291 287
3 292 293 294
3 292 289 293
3 292 240 289
3 240 237 289
3 290 241 295
3 238 241 290
3 296 291 290
3 295 296 290
3 297 298 299
3 294 298 297
3 292 294 297
3 292 297 243
3 292 243 242
3 240 292 242
3 245 244 300
3 245 295 241
3 245 300 295
3 300 301 295
3 302 296 295
3 302 295 303
3 303 295 301
3 303 304 305
3 302 303 305
3 304 306 307
3 305 304 307
3 306 308 309
3 307 306 309
3 308 310 311
3 309 308 311
3 310 248 247
3 310 247 311
3 311 247 312
3 299 250 297
3 299 312 250
3 312 247 250
3 243 297 250
3 244 251 300
3 254 300 251
3 301 300 254
3 256 301 254
3 303 301 256
3 258 303 256
3 304 303 258
3 260 304 258
3 306 304 260
3 261 306 260
3 308 306 261
3 262 308 261
3 310 308 262
3 248 310 262
3 313 314 315
3 313 316 317
3 315 316 313
3 316 318 317
3 319 320 321
3 314 319 321
3 314 313 319
3 313 322 319
3 317 323 313
3 323 322 313
3 324 317 318
3 324 325 317
3 325 323 317
3 325 326 327
3 324 326 325
3 326 328 327
3 329 330 331
3 320 329 331
3 319 329 320
3 319 265 329
3 319 266 265
3 267 266 319
3 322 267 319
3 269 267 322
3 323 269 322
3 271 269 323
3 325 271 323
3 273 271 325
3 273 325 332
3 332 325 327
3 333 327 328
3 332 327 333
3 334 335 336
3 330 334 336
3 329 334 330
3 329 275 334
3 329 276 275
3 265 276 329
3 273 332 277
3 332 279 277
3 332 333 279
3 333 337 279
3 338 281 339
3 338 335 281
3 282 281 334
3 334 281 335
3 282 334 275
3 339 340 338
3 279 337 283
3 337 341 283
3 339 342 343
3 339 281 342
3 281 285 342
3 340 339 343
3 283 341 286
3 341 344 286
3 288 287 345
3 288 345 346
3 288 346 285
3 285 346 342
3 347 348 349
3 347 344 348
3 347 289 344
3 289 286 344
3 345 291 350
3 287 291 345
3 351 346 345
3 351 345 352
3 352 345 350
3 352 353 354
3 351 352 354
3 353 355 356
3 354 353 356
3 355 357 358
3 356 355 358
3 357 359 360
3 358 357 360
3 359 361 362
3 360 359 362
3 349 362 361
3 347 349 361
3 347 361 294
3 347 294 293
3 289 347 293
3 350 296 363
3 291 296 350
3 352 350 364
3 364 350 363
3 353 352 365
3 365 352 364
3 355 353 366
3 366 353 365
3 357 355 367
3 367 355 366
3 359 357 368
3 368 357 367
3 298 368 299
3 298 361 368
3 361 359 368
3 294 361 298
3 296 302 363
3 305 363 302
3 364 363 305
3 307 364 305
3 365 364 307
3 309 365 307
3 366 365 309
3 311 366 309
3 367 366 311
3 312 367 311
3 368 367 312
3 299 368 312
3 369 370 371
3 369 372 373
3 371 372 369
3 373 374 375
3 372 374 373
3 374 376 375
3 377 378 379
3 377 380 381
3 379 380 377
3 370 381 380
3 369 381 370
3 369 314 381
3 369 315 314
3 316 315 369
3 373 316 369
3 318 316 373
3 318 373 382
3 382 373 375
3 383 375 376
3 383 384 375
3 384 382 375
3 383 385 384
3 386 387 388
3 378 386 388
3 378 377 386
3 377 389 386
3 321 320 389
3 321 389 381
3 381 389 377
3 314 321 381
3 318 382 324
3 326 324 382
3 384 326 382
3 384 328 326
3 384 385 328
3 385 390 328
3 391 387 386
3 392 387 391
3 331 330 391
3 331 391 389
3 389 391 386
3 320 331 389
3 328 390 333
3 390 393 333
3 394 335 395
3 394 392 335
3 336 335 391
3 391 335 392
3 336 391 330
3 395 396 394
3 333 393 337
3 393 397 337
3 335 338 395
3 340 398 399
3 338 340 399
3 338 399 396
3 338 396 395
3 399 398 400
3 337 397 341
3 397 401 341
3 343 342 402
3 343 398 340
3 343 402 398
3 402 403 398
3 404 400 398
3 403 404 398
3 405 406 407
3 405 401 406
3 405 344 401
3 344 341 401
3 402 346 408
3 342 346 402
3 403 402 409
3 409 402 408
3 410 404 403
3 410 403 411
3 411 403 409
3 411 412 413
3 410 411 413
3 412 414 415
3 413 412 415
3 414 416 417
3 415 414 417
3 407 417 416
3 405 407 416
3 405 416 349
3 405 349 348
3 344 405 348
3 346 351 408
3 354 408 351
3 409 408 354
3 356 409 354
3 411 409 356
3 358 411 356
3 412 411 358
3 360 412 358
3 414 412 360
3 362 414 360
3 416 414 362
3 349 416 362
3 418 419 420
3 418 421 422
3 420 421 418
3 422 423 424
3 421 423 422
3 424 425 426
3 423 425 424
3 425 427 426
3 428 429 430
3 419 428 430
3 419 418 428
3 418 431 428
3 371 370 431
3 371 431 422
3 422 431 418
3 372 371 422
3 424 372 422
3 374 372 424
3 426 374 424
3 376 432 433
3 374 432 376
3 374 427 432
3 374 426 427
3 432 434 433
3 435 436 437
3 429 435 437
3 428 435 429
3 428 378 435
3 428 379 378
3 380 379 428
3 431 380 428
3 370 380 431
3 376 433 383
3 433 385 383
3 433 434 385
3 434 438 385
3 388 436 435
3 388 387 436
3 387 439 436
3 378 388 435
3 385 438 390
3 438 440 390
3 441 392 442
3 441 439 392
3 439 387 392
3 442 443 444
3 441 442 444
3 444 443 445
3 390 440 393
3 440 446 393
3 392 394 442
3 396 442 394
3 396 447 442
3 447 443 442
3 448 445 443
3 447 448 443
3 449 450 451
3 449 446 450
3 449 397 446
3 397 393 446
3 396 399 447
3 400 452 453
3 399 400 453
3 399 453 448
3 399 448 447
3 452 454 455
3 453 452 455
3 455 454 456
3 457 458 459
3 451 458 457
3 451 457 449
3 449 457 460
3 397 460 401
3 449 460 397
3 452 404 461
3 400 404 452
3 454 452 462
3 462 452 461
3 463 456 454
3 463 454 464
3 464 454 462
3 459 463 464
3 459 464 457
3 457 464 465
3 406 465 407
3 406 460 465
3 460 457 465
3 401 460 406
3 404 410 461
3 413 461 410
3 462 461 413
3 415 462 413
3 464 462 415
3 417 464 415
3 465 464 417
3 407 465 417
3 466 467 468
3 466 469 470
3 468 469 466
3 470 471 472
3 469 471 470
3 472 473 474
3 471 473 472
3 473 475 474
3 476 477 478
3 476 479 480
3 478 479 476
3 467 480 479
3 466 480 467
3 466 419 480
3 466 420 419
3 421 420 466
3 470 421 466
3 423 421 470
3 472 423 470
3 425 423 472
3 474 425 472
3 474 427 425
3 474 475 427
3 475 481 427
3 482 483 484
3 477 482 484
3 477 476 482
3 476 485 482
3 430 429 485
3 430 485 480
3 480 485 476
3 419 430 480
3 427 481 486
3 432 427 486
3 486 434 432
3 487 434 486
3 482 488 483
3 437 436 489
3 437 489 482
3 437 482 485
3 482 489 488
3 429 437 485
3 490 491 492
3 490 487 491
3 490 438 487
3 438 434 487
3 493 439 494
3 493 489 439
3 489 436 439
3 494 495 496
3 493 494 496
3 495 497 498
3 496 495 498
3 498 497 499
3 500 490 492
3 501 500 492
3 438 500 440
3 490 500 438
3 439 441 494
3 444 494 441
3 495 494 444
3 445 495 444
3 445 502 495
3 502 497 495
3 503 499 497
3 503 497 504
3 504 497 502
3 504 505 506
3 503 504 506
3 505 507 508
3 506 505 508
3 501 508 507
3 501 507 500
3 500 507 509
3 440 509 446
3 500 509 440
3 502 448 510
3 445 448 502
3 504 502 511
3 511 502 510
3 505 504 512
3 512 504 511
3 507 505 513
3 513 505 512
3 450 513 451
3 450 509 513
3 509 507 513
3 446 509 450
3 448 453 510
3 455 510 453
3 511 510 455
3 456 511 455
3 456 514 511
3 514 512 511
3 458 514 459
3 458 513 514
3 513 512 514
3 451 513 458
3 456 463 514
3 459 514 463
3 515 516 517
3 515 518 519
3 517 518 515
3 519 520 521
3 518 520 519
3 521 522 523
3 520 522 521
3 522 524 523
3 525 526 527
3 516 525 527
3 516 515 525
3 515 528 525
3 468 467 528
3 468 528 519
3 519 528 515
3 469 468 519
3 521 469 519
3 471 469 521
3 523 471 521
3 523 524 529
3 523 529 471
3 471 529 473
3 529 475 473
3 530 475 529
3 531 532 533
3 526 531 533
3 525 531 526
3 525 477 531
3 525 478 477
3 479 478 525
3 528 479 525
3 467 479 528
3 475 530 481
3 530 534 481
3 484 532 531
3 484 483 532
3 483 535 532
3 477 484 531
3 536 486 481
3 536 481 537
3 537 481 534
3 486 536 487
3 483 538 535
3 488 538 483
3 489 539 540
3 489 540 488
3 488 540 538
3 539 541 542
3 540 539 542
3 541 543 544
3 542 541 544
3 543 545 546
3 544 543 546
3 545 547 548
3 546 545 548
3 547 549 550
3 548 547 550
3 537 550 549
3 536 537 549
3 536 549 492
3 536 492 491
3 487 536 491
3 489 493 539
3 496 539 493
3 541 539 496
3 498 541 496
3 543 541 498
3 499 543 498
3 499 551 543
3 551 545 543
3 547 545 552
3 552 545 551
3 549 547 553
3 553 547 552
3 492 553 501
3 549 553 492
3 499 503 551
3 506 551 503
3 552 551 506
3 508 552 506
3 553 552 508
3 501 553 508
3 554 555 556
3 554 557 558
3 556 557 554
3 558 559 560
3 557 559 558
3 559 561 560
3 562 563 564
3 555 562 564
3 554 562 555
3 554 516 562
3 554 517 516
3 518 517 554
3 558 518 554
3 520 518 558
3 560 520 558
3 560 561 565
3 560 565 520
3 520 565 522
3 565 524 522
3 566 524 565
3 567 568 569
3 567 570 571
3 569 570 567
3 563 571 570
3 562 571 563
3 562 526 571
3 562 527 526
3 516 527 562
3 572 529 524
3 572 524 573
3 573 524 566
3 529 572 530
3 567 574 568
3 571 532 567
3 571 533 532
3 567 532 574
3 575 576 532
3 574 532 576
3 575 577 578
3 575 578 576
3 571 526 533
3 578 577 579
3 580 572 573
3 581 580 573
3 530 580 534
3 572 580 530
3 575 535 582
3 532 535 575
3 577 575 583
3 583 575 582
3 584 579 577
3 584 577 585
3 585 577 583
3 585 586 587
3 584 585 587
3 586 588 589
3 587 586 589
3 588 590 591
3 589 588 591
3 581 591 590
3 581 590 580
3 580 590 592
3 534 592 537
3 580 592 534
3 535 538 582
3 540 582 538
3 583 582 540
3 542 583 540
3 585 583 542
3 544 585 542
3 586 585 544
3 546 586 544
3 588 586 546
3 548 588 546
3 590 588 548
3 550 590 548
3 592 590 550
3 537 592 550
3 593 594 595
3 593 596 597
3 595 596 593
3 596 598 597
3 599 600 601
3 594 599 601
3 593 599 594
3 593 555 599
3 593 556 555
3 557 556 593
3 597 557 593
3 597 598 602
3 597 602 557
3 557 602 559
3 602 561 559
3 603 561 602
3 604 605 606
3 604 607 608
3 606 607 604
3 600 608 607
3 599 608 600
3 599 563 608
3 599 564 563
3 555 564 599
3 609 565 561
3 609 561 610
3 610 561 603
3 565 609 566
3 611 568 612
3 611 605 568
3 569 568 604
3 604 568 605
3 613 614 611
3 613 611 612
3 608 570 604
3 604 570 569
3 570 608 563
3 613 615 614
3 616 617 618
3 610 617 616
3 610 616 609
3 609 616 619
3 566 619 573
3 609 619 566
3 568 574 612
3 576 612 574
3 613 612 576
3 613 620 615
3 613 576 620
3 576 578 620
3 579 621 622
3 579 622 578
3 578 622 620
3 621 623 624
3 622 621 624
3 618 624 623
3 618 623 616
3 616 623 625
3 619 616 626
3 626 616 625
3 573 626 581
3 619 626 573
3 579 584 621
3 587 621 584
3 623 621 587
3 589 623 587
3 625 623 589
3 591 625 589
3 626 625 591
3 581 626 591
3 627 628 629
3 627 595 594
3 627 629 595
3 629 630 595
3 596 595 631
3 595 630 631
3 631 598 596
3 632 598 631
3 633 634 635
3 633 636 637
3 635 636 633
3 628 637 636
3 627 637 628
3 627 600 637
3 627 601 600
3 594 601 627
3 598 632 638
3 602 598 638
3 638 603 602
3 639 603 638
3 640 641 642
3 634 640 642
3 633 640 634
3 633 605 640
3 633 606 605
3 607 606 633
3 637 607 633
3 600 607 637
3 643 644 645
3 643 639 644
3 643 610 639
3 610 603 639
3 640 646 641
3 605 646 640
3 605 611 646
3 611 647 646
3 614 648 611
3 611 648 647
3 615 649 650
3 615 650 614
3 614 650 648
3 649 651 652
3 650 649 652
3 651 653 654
3 652 651 654
3 645 654 653
3 643 645 653
3 643 653 618
3 643 618 617
3 610 643 617
3 615 620 649
3 622 649 620
3 651 649 622
3 624 651 622
3 653 651 624
3 618 653 624
3 655 656 657
3 655 658 659
3 657 658 655
3 659 629 628
3 659 658 629
3 658 660 629
3 630 629 661
3 629 660 661
3 631 630 662
3 630 661 662
3 662 632 631
3 663 632 662
3 664 665 666
3 664 667 668
3 666 667 664
3 656 668 667
3 655 668 656
3 655 634 668
3 655 635 634
3 636 635 655
3 659 636 655
3 628 636 659
3 669 638 632
3 669 632 670
3 670 632 663
3 638 669 639
3 664 671 665
3 668 641 664
3 668 642 641
3 664 641 671
3 672 673 641
3 671 641 673
3 672 674 675
3 672 675 673
3 668 634 642
3 674 676 677
3 675 674 677
3 676 678 679
3 677 676 679
3 678 680 681
3 679 678 681
3 680 682 683
3 681 680 683
3 670 683 682
3 669 670 682
3 669 682 645
3 669 645 644
3 639 669 644
3 641 646 672
3 647 672 646
3 674 672 647
3 648 674 647
3 676 674 648
3 650 676 648
3 678 676 650
3 652 678 650
3 680 678 652
3 654 680 652
3 682 680 654
3 645 682 654
3 684 685 686
3 684 687 688
3 686 687 684
3 688 657 656
3 688 687 657
3 687 689 657
3 658 657 690
3 657 689 690
3 660 658 691
3 658 690 691
3 661 660 692
3 660 691 692
3 693 692 694
3 693 662 692
3 662 661 692
3 662 693 663
3 695 696 697
3 685 695 697
3 684 695 685
3 684 665 695
3 684 666 665
3 667 666 684
3 688 667 684
3 656 667 688
3 698 699 700
3 694 699 698
3 694 698 693
3 693 698 701
3 663 701 670
3 693 701 663
3 695 702 696
3 665 702 695
3 665 671 702
3 671 703 702
3 673 704 671
3 671 704 703
3 675 705 673
3 673 705 704
3 677 706 675
3 675 706 705
3 679 707 677
3 677 707 706
3 700 681 698
3 700 707 681
3 707 679 681
3 683 698 681
3 701 698 683
3 670 701 683
3 686 708 709
3 685 708 686
3 687 686 710
3 686 709 710
3 689 687 711
3 687 710 711
3 690 689 712
3 689 711 712
3 713 712 714
3 713 691 712
3 691 690 712
3 691 715 692
3 713 715 691
3 692 715 694
3 697 696 716
3 697 716 717
3 697 717 685
3 685 717 708
3 718 713 714
3 719 718 714
3 699 718 700
3 699 715 718
3 715 713 718
3 694 715 699
3 696 702 716
3 716 720 717
3 716 702 720
3 702 703 720
3 704 721 703
3 703 721 720
3 705 722 704
3 704 722 721
3 706 723 705
3 705 723 722
3 719 707 718
3 719 723 707
3 723 706 707
3 700 718 707
3 709 708 724
3 709 725 710
3 724 725 709
3 710 726 711
3 725 726 710
3 711 727 712
3 726 727 711
3 712 727 714
3 724 717 728
3 708 717 724
3 725 724 729
3 729 724 728
3 726 725 730
3 730 725 729
3 727 726 731
3 731 726 730
3 714 731 719
3 727 731 714
3 717 720 728
3 721 728 720
3 729 728 721
3 722 729 721
3 730 729 722
3 723 730 722
3 731 730 723
3 719 731 723
