# vtk DataFile Version 3.0
this file was written using fslvtkio
ASCII
DATASET POLYDATA
POINTS 642 float
111.328 117.308 109.989
96.3621 111.664 107.791
92.8459 97.7237 102.166
108.997 102.817 106.166
106.459 107.046 116.111
109.498 110.308 99.9818
99.1067 106.976 99.0867
95.7374 104.056 115.036
101.518 119.021 115.928
100.837 95.5811 107.892
101.705 95.8284 96.7073
104.573 121.934 103.979
98.0382 112.07 117.353
104.32 113.52 117.52
100.63 105.038 117.206
97.4852 98.4071 112.836
103.979 100.297 113.067
102.637 114.728 102.071
104.44 108.867 99.2732
108.757 118.68 101.032
99.3503 100.448 96.8898
105.409 102.37 99.3893
108.758 104.487 111.555
109.306 113.171 114.425
111.682 110.248 108.087
110.441 106.02 102.538
111.644 116.494 104.131
95.2718 108.513 112.136
93.3963 99.6946 109.374
94.0057 104.173 105.066
97.6682 110.105 103.143
95.4232 101.25 99.4557
109.604 123.21 106.582
107.48 120.206 113.714
103.075 122.494 110.43
100.081 117.685 106.754
97.5171 116.481 112.74
106.473 97.3091 101.223
99.5007 93.2922 101.178
106.006 96.8158 107.168
94.6497 95.367 95.8768
95.4138 94.8813 104.58
101.092 113.084 118.169
102.483 109.261 117.924
99.2293 108.463 118.087
103.626 105.948 116.882
105.562 110.44 117.348
103.118 116.544 117.095
99.468 115.718 117.074
96.8551 108.11 116.596
97.8669 104.003 116.792
99.0966 101.313 115.636
102.517 102.651 115.62
100.791 99.1124 113.381
105.449 103.491 114.674
96.0592 100.603 114.276
99.291 97.0796 110.449
102.68 97.7886 110.702
103.71 112.039 100.459
106.828 114.117 100.236
105.456 117.006 100.999
109.299 114.637 100.213
106.969 109.678 99.6921
101.798 107.942 99.0182
101.018 110.67 101.094
103.614 118.468 102.848
106.64 120.864 101.856
102.443 101.2 97.6712
105.039 105.758 98.8858
101.995 104.625 97.8701
107.683 106.079 99.7236
104.057 98.9208 97.6121
100.418 98.043 95.7181
99.3392 103.874 97.8317
109.514 108.817 113.237
111.079 111.52 111.491
110.755 107.278 110.24
111.618 113.772 108.99
110.618 115.169 112.431
108.143 110.152 115.686
107.907 105.491 113.986
109.11 103.519 108.856
111.207 106.453 107.287
111.377 108.392 105.222
111.726 113.288 106.041
111.363 111.303 103.338
111.709 117.186 106.922
110.109 104.162 104.382
110.372 108.105 100.969
111.02 113.513 101.755
94.2165 104.072 110.932
93.4224 102.157 107.448
94.792 106.129 108.761
93.3549 100.907 103.806
92.9825 98.6211 105.948
94.2268 101.851 112.434
95.28 106.649 113.951
95.6766 110.034 109.888
95.493 107.626 106.493
95.7242 106.804 103.935
94.236 102.633 102.023
95.8308 105.676 101.007
93.5853 99.1869 100.046
96.8476 110.86 105.252
98.4404 108.474 101.317
96.8712 104.295 98.7683
108.997 121.979 110.414
105.362 122.257 112.417
106.612 123.57 107.927
101.8 121.409 113.745
104.625 119.691 115.299
110.113 118.937 112.294
111.05 120.47 108.596
107.574 123.612 103.908
103.82 122.656 106.871
101.361 120.815 108.55
99.8808 120.174 112.015
98.6937 117.453 109.75
98.8065 118.081 114.9
102.273 119.722 105.346
97.9149 114.745 107.206
96.8969 114.094 110.314
103.734 94.1141 100.948
103.166 94.3956 103.984
106.688 96.2872 103.905
103.566 95.9123 107.74
100.363 94.205 104.562
101.003 93.844 98.5795
104.547 96.3836 98.6741
107.763 100.164 103.932
107.667 99.3554 106.675
94.2048 94.0747 99.7718
97.312 93.6789 102.953
96.9875 93.5548 98.2658
98.0172 95.1188 106.71
93.5782 95.8707 103.402
92.9495 96.3098 98.4787
98.16 95.0988 95.929
107.204 113.534 116.59
106.18 117.178 116.158
108.9 117.068 114.536
111.15 120.246 105.43
109.59 122.022 103.071
110.804 117.345 101.841
105.284 98.4509 110.127
106.573 101.928 112.323
107.468 100.572 109.287
108.257 101.902 102.334
108.571 104.176 100.623
106.178 99.7443 100.01
97.1986 114.665 115.369
96.0472 110.486 115.06
96.0726 112.617 112.45
98.6009 114.093 104.915
99.8238 112.558 102.444
101.182 116.468 104.084
94.3993 97.0009 107.135
94.9075 98.7245 111.637
96.7005 96.5887 109.044
97.1268 97.6389 95.1583
96.9907 100.541 97.7714
93.8547 98.3528 96.7295
101.713 111.146 118.219
100.857 109.054 118.216
100.166 110.779 118.393
100.029 106.936 117.885
101.409 107.302 117.745
103.162 111.408 117.903
102.644 112.994 117.953
99.5342 112.328 118.055
98.7733 110.388 117.996
102.928 107.524 117.558
103.967 109.915 117.715
104.49 108.16 117.351
104.752 111.886 117.571
102.04 105.63 117.17
105.048 106.605 116.674
105.87 108.583 116.938
102.187 114.707 117.851
100.136 114.322 117.994
101.27 116.036 117.438
98.7323 113.889 117.433
103.715 114.966 117.365
102.187 117.766 116.803
100.502 117.335 116.783
97.9721 108.431 117.544
98.5879 106.316 117.699
97.3106 106.108 117.029
99.2487 104.802 117.244
97.4372 110.156 117.231
96.2954 106.042 116.074
96.7419 104.173 116.132
100.819 101.924 115.719
101.617 100.767 114.668
99.9956 100.179 114.585
102.359 99.8585 113.527
103.075 101.3 114.468
101.538 103.725 116.518
99.9323 103.122 116.467
98.3579 99.7075 114.476
99.1323 98.8139 113.428
103.984 102.91 115.154
103.079 104.333 116.424
104.78 104.787 115.973
104.559 101.759 113.987
106.004 105.3 115.572
98.6018 102.69 116.453
97.5432 100.807 115.205
96.9166 102.341 115.819
96.8341 99.4115 113.812
95.8822 102.31 114.84
99.9401 98.0965 112.102
101.832 98.5765 112.183
100.991 97.5233 110.735
103.246 99.0216 112.099
98.4243 97.754 111.79
100.252 96.3427 109.374
101.765 96.6099 109.542
105.227 113.131 100.348
106.192 115.557 100.565
104.672 114.608 100.748
107.061 117.626 100.777
107.722 116.432 100.445
105.641 111.757 99.899
104.339 110.803 99.8576
103.362 113.64 101.095
104.042 115.702 101.409
108.054 114.593 100.244
106.839 111.892 99.9493
108.149 112.234 99.9091
105.76 109.856 99.5998
109.097 116.838 100.567
109.29 112.332 99.9845
108.198 110.106 99.762
102.98 110.001 99.8902
102.43 111.581 100.863
101.486 109.405 100.011
101.903 112.858 101.547
103.208 108.505 99.1283
100.474 107.524 99.0173
100.181 108.794 100.155
104.406 117.69 101.742
106.086 118.883 101.212
104.958 119.718 101.926
107.582 119.564 101.227
103.209 116.619 102.34
104.112 120.241 103.16
105.325 121.423 102.591
103.754 103.513 98.2958
103.551 105.193 98.3344
102.247 102.997 97.7833
103.231 106.668 98.4334
104.728 107.344 98.9455
105.023 103.861 98.899
103.961 102.063 98.4888
101.031 101.048 97.1805
100.789 102.506 97.4947
105.945 107.931 99.3778
106.213 105.793 99.3249
107.415 107.914 99.6503
106.468 104.232 99.4602
108.677 108.247 99.8727
103.182 100.166 97.6666
101.509 99.7376 96.5539
102.445 98.6434 96.3522
99.9314 99.4187 96.116
104.469 100.666 98.6041
103.069 97.4495 96.8963
101.317 97.0246 96.1099
100.76 104.32 97.7915
102.081 106.573 98.376
100.536 106.177 98.1424
99.4783 102.218 97.526
99.138 105.466 98.1718
110.391 110.153 112.42
111.04 109.424 110.93
110.239 108.054 111.778
111.395 108.851 109.479
111.474 110.522 109.932
110.247 112.022 112.968
109.602 110.948 113.674
109.409 106.769 112.399
109.81 106.134 111.124
111.527 112.418 110.298
110.862 113.281 112.147
111.347 114.21 110.824
109.991 114.03 113.502
111.679 111.886 108.741
111.481 115.436 109.547
111.174 115.976 111.159
108.89 109.65 114.429
108.814 107.19 113.68
108.159 107.872 114.983
108.454 105.112 112.776
108.795 111.719 114.984
107.281 108.572 116.045
107.296 106.241 115.145
110.037 105.416 109.698
111.182 106.922 108.848
110.203 104.994 108.156
111.528 108.406 107.899
109.08 104.146 110.308
109.159 103.283 107.456
110.35 104.688 106.738
111.658 110.819 105.737
111.658 112.219 104.708
111.396 109.806 104.317
111.649 113.703 103.851
111.719 114.536 104.923
111.712 111.603 106.958
111.621 109.545 106.608
110.968 107.533 103.801
111.033 108.86 103.112
111.619 115.146 106.319
111.76 113.263 107.543
111.599 115.348 107.922
111.753 116.696 105.444
111.543 117.036 108.491
111.415 107.62 106.411
110.977 106.395 104.719
110.903 105.465 105.756
110.421 105.174 103.474
109.715 103.654 105.388
110.9 109.699 102.155
111.259 112.572 102.657
110.766 110.945 101.35
111.464 115.042 103.038
110.511 107.346 101.916
110.119 109.322 100.392
110.382 111.889 100.655
93.7751 103.093 109.206
94.0041 104.142 108.095
94.3996 105.085 109.802
94.2459 104.969 107.05
93.6606 103.374 106.458
93.2651 101.214 108.609
93.6641 102.006 110.056
94.7359 106.131 111.326
94.8964 107.015 110.429
93.1964 101.679 105.764
93.0111 100.433 106.875
93.0181 99.9415 105.034
93.1334 99.3663 107.771
93.48 102.59 104.647
93.0391 99.3802 103.154
92.8853 98.3423 104.107
94.1112 102.774 111.571
94.6391 105.298 112.342
94.7538 104.262 113.226
95.1139 107.388 112.893
93.675 100.741 110.829
94.9345 103.099 113.837
95.5247 105.462 114.635
95.2924 108.001 109.501
95.0355 106.698 107.579
95.5083 108.717 108.211
94.6979 105.808 105.992
95.4124 109.126 111.015
95.904 110.562 108.642
95.8465 109.504 107.118
94.6176 104.784 102.998
94.8172 104.239 101.536
95.6854 106.156 102.531
95.3485 103.735 100.238
94.827 102.247 100.702
93.9532 103.497 103.462
94.7332 105.414 104.399
96.6034 108.156 103.282
96.6347 107.447 102.157
94.2743 100.914 101.172
93.699 101.832 102.995
93.5663 100.003 101.992
94.4862 100.26 99.7186
93.0857 98.5363 101.212
95.4408 106.946 105.241
96.4941 108.549 104.525
96.1433 109.221 105.805
97.1723 110.302 104.098
96.5096 111.106 106.524
97.1143 107.034 101.138
96.2513 105.091 99.8177
97.4779 106.583 99.7608
96.031 102.951 99.2914
97.8036 109.03 102.163
98.8555 107.777 100.204
97.8438 105.715 98.6642
107.234 122.475 111.094
106.25 123.072 110.267
107.771 123.078 109.383
105.046 123.137 109.369
104.475 122.691 111.266
106.572 121.509 112.87
108.11 121.335 112.024
109.262 122.783 108.63
108.221 123.682 107.338
103.664 122.044 113.133
105.007 121.182 114.008
103.234 120.943 114.794
106.138 120.147 114.504
102.546 122.152 112.124
101.515 120.315 115.014
103.134 119.386 115.846
109.51 120.567 111.547
110.306 121.488 109.718
110.837 119.599 110.574
110.361 122.018 107.924
108.768 119.932 112.901
110.922 117.931 111.331
111.316 118.854 109.31
107.075 123.882 105.956
105.221 123.25 107.39
105.588 123.402 105.31
103.68 122.757 108.716
108.608 123.81 105.285
105.815 123.073 103.76
103.945 122.267 105.476
100.599 120.613 110.291
99.3234 119.074 110.765
99.9829 119.323 109.325
98.1567 117.317 111.183
98.6628 118.416 112.192
101.303 121.588 111.319
102.045 121.88 109.533
100.517 119.169 107.896
99.4273 117.826 108.375
99.2411 119.232 113.354
100.857 121.089 112.855
100.257 119.907 114.46
98.1115 117.583 113.664
100.046 118.599 115.635
102.531 121.967 107.881
101.647 120.21 107.079
102.846 121.306 106.159
101.095 118.847 106.231
103.458 120.739 104.563
98.3808 116.12 108.472
97.7101 115.875 110.057
97.3334 114.364 108.68
97.2025 115.523 111.509
99.038 116.413 107.178
97.0378 113.181 107.463
96.5651 112.849 109.043
103.625 94.0637 102.528
105.084 95.0913 103.878
105.479 94.9068 102.368
106.044 96.1623 105.391
104.659 95.3213 105.342
101.638 93.6501 102.613
101.785 93.6259 101.227
105.395 95.2028 100.91
106.581 96.4615 102.356
103.427 95.0148 105.958
101.805 94.2962 104.261
101.964 94.8725 106.359
100.032 93.5511 102.839
104.798 96.0762 107.168
102.211 95.7834 107.992
100.443 94.6982 106.32
102.518 93.8763 99.7891
104.377 94.9255 99.5174
102.899 94.6961 98.1597
105.554 96.5041 100.008
100.375 93.5213 99.9225
101.364 94.5971 97.2265
103.368 96.3025 97.5671
107.43 98.0297 103.793
107.37 97.5525 105.312
107.805 99.7527 105.325
107.066 97.6613 106.74
107.224 98.4998 102.603
108.309 101.564 105.116
108.195 101.263 106.6
95.7973 93.5334 101.156
96.9987 93.2293 100.507
95.4577 93.6083 98.913
98.2464 93.3021 99.7042
98.3219 93.35 102.049
96.0242 94.1373 103.277
94.7815 94.1796 101.857
94.1146 94.3061 97.6678
95.633 94.1087 96.9435
99.092 93.8495 103.728
97.4262 94.2685 104.563
99.0392 94.4763 105.758
96.6647 94.8919 105.641
99.451 95.3658 107.485
93.7545 94.8233 101.473
93.2849 94.8987 98.9803
93.006 95.8156 100.866
93.4141 95.6637 96.9564
94.4035 95.079 103.592
93.1081 96.7858 102.953
92.7331 96.957 100.365
97.5382 93.9858 97.1592
99.3312 93.5941 98.7445
99.6788 94.233 97.1366
96.4238 95.0397 95.8637
99.9135 95.4125 96.2343
106.769 115.474 116.522
107.633 117.251 115.456
108.058 115.423 115.732
108.281 118.799 114.281
106.972 118.841 115.146
105.354 115.321 116.905
105.854 113.664 117.173
108.368 113.613 115.632
109.055 115.104 114.732
105.592 118.592 115.696
104.696 116.637 116.684
103.853 118.153 116.325
106.351 112.087 117.093
107.868 111.903 116.157
106.922 110.103 116.648
109.821 115.935 113.691
109.458 118.184 113.487
110.454 116.988 112.419
110.413 121.222 104.329
110.381 119.937 102.619
110.993 119.117 103.594
110.083 118.13 101.268
109.338 120.362 101.803
109.853 122.982 104.822
110.499 121.819 106.262
111.534 118.403 104.674
111.341 116.976 102.931
108.17 121.117 102.021
108.874 123.169 103.556
106.596 122.417 102.696
111.118 120.456 107.052
111.581 118.614 106.082
111.454 118.708 107.872
111.008 115.197 101.759
110.208 115.86 100.692
110.305 113.431 100.425
105.957 100.16 111.266
107.174 101.321 110.85
106.565 99.2876 109.704
108.079 102.533 110.524
107.744 103 111.845
105.316 100.948 112.639
104.688 99.424 111.592
105.879 97.5848 108.744
106.97 98.4929 108.287
107.378 103.697 113.021
105.923 102.518 113.461
106.747 104.417 114.404
104.04 98.1445 110.553
104.753 96.9507 108.816
103.242 96.729 109.261
107.561 99.7772 107.958
108.238 102.217 109.259
108.232 101.706 107.791
108.571 103.134 101.492
107.209 102.094 100.63
107.298 100.826 101.185
105.887 101.222 99.8015
107.016 103.281 100.05
109.894 105.002 101.433
109.607 103.864 102.466
107.226 99.5985 101.873
106.436 98.571 100.567
108.124 105.004 100.016
109.773 105.996 100.758
109.176 107.208 100.284
109.263 103.222 103.391
107.838 100.97 103.084
108.589 102.423 104.379
105.645 97.948 99.387
105.147 99.6181 98.9638
104.571 97.779 97.9995
96.4846 112.617 115.318
95.9551 111.633 113.804
96.4307 113.69 113.975
95.6679 110.6 112.394
95.5767 109.733 113.587
96.8923 111.386 116.353
97.5089 113.388 116.441
97.1424 115.538 114.023
96.7256 114.526 112.688
95.6688 108.614 114.317
96.4548 109.464 116.005
95.905 107.326 115.362
98.0754 115.189 116.447
97.8186 116.469 114.963
99.0907 117.059 116.132
96.4304 113.477 111.399
95.8348 111.189 111.198
96.1283 112 109.889
99.242 113.488 103.637
100.527 114.567 103.312
99.8274 115.366 104.471
101.819 115.536 102.95
101.189 113.67 102.341
98.6095 111.619 102.812
98.0577 112.304 103.907
99.2944 115.9 105.776
100.492 117.051 105.373
100.459 111.731 101.737
98.8974 110.501 101.993
99.6332 109.516 101.104
97.497 112.343 104.882
98.3056 114.533 106.063
97.1404 112.778 106.218
101.582 118.066 104.874
102.427 117.116 103.47
102.958 119.05 104.072
94.661 97.7889 109.429
95.7755 97.5384 110.278
95.4531 96.6765 108.069
97.0498 97.5026 111.006
96.1018 98.3808 112.19
94.0019 99.0216 110.489
93.837 98.197 108.449
94.8886 95.7936 105.877
96.0471 95.6123 106.948
95.4308 99.5645 113.074
94.2029 100.18 112.031
95.0688 101.528 113.531
93.6745 97.8728 106.761
94.0333 96.2627 105.283
93.3083 97.2815 104.724
97.3285 95.7025 107.822
97.9507 96.8562 109.908
98.8913 95.9891 108.67
96.8519 99.1757 96.2309
95.5016 99.3392 97.1426
95.2017 98.1426 95.3667
94.8644 99.5801 98.2867
96.2609 101.03 98.6987
98.2387 100.639 97.4936
98.1652 99.2744 95.9454
95.8251 96.4553 95.2066
93.8767 96.8961 95.8763
97.0043 102.409 98.4348
98.1733 102.329 97.8747
98.0042 104.118 98.1005
98.8161 98.3432 95.3782
97.6317 96.2935 95.3436
99.677 96.695 95.6962
93.2296 97.2071 97.5506
93.7716 98.917 98.4955
92.9921 97.8405 99.5754
POLYGONS 1280  5120
3 164 162 163
3 163 44 164
3 162 43 163
3 164 42 162
3 166 165 163
3 163 43 166
3 165 44 163
3 166 14 165
3 168 167 162
3 162 42 168
3 167 43 162
3 168 13 167
3 170 169 164
3 164 44 170
3 169 42 164
3 170 12 169
3 173 171 172
3 172 46 173
3 171 43 172
3 173 45 171
3 167 174 172
3 172 43 167
3 174 46 172
3 167 13 174
3 175 166 171
3 171 45 175
3 166 43 171
3 175 14 166
3 177 176 173
3 173 46 177
3 176 45 173
3 177 4 176
3 180 178 179
3 179 48 180
3 178 42 179
3 180 47 178
3 169 181 179
3 179 42 169
3 181 48 179
3 169 12 181
3 182 168 178
3 178 47 182
3 168 42 178
3 182 13 168
3 184 183 180
3 180 48 184
3 183 47 180
3 184 8 183
3 187 185 186
3 186 50 187
3 185 44 186
3 187 49 185
3 165 188 186
3 186 44 165
3 188 50 186
3 165 14 188
3 189 170 185
3 185 49 189
3 170 44 185
3 189 12 170
3 191 190 187
3 187 50 191
3 190 49 187
3 191 7 190
3 194 192 193
3 193 53 194
3 192 52 193
3 194 51 192
3 196 195 193
3 193 52 196
3 195 53 193
3 196 16 195
3 198 197 192
3 192 51 198
3 197 52 192
3 198 14 197
3 200 199 194
3 194 53 200
3 199 51 194
3 200 15 199
3 203 201 202
3 202 45 203
3 201 52 202
3 203 54 201
3 197 175 202
3 202 52 197
3 175 45 202
3 197 14 175
3 204 196 201
3 201 54 204
3 196 52 201
3 204 16 196
3 176 205 203
3 203 45 176
3 205 54 203
3 176 4 205
3 208 206 207
3 207 55 208
3 206 51 207
3 208 50 206
3 199 209 207
3 207 51 199
3 209 55 207
3 199 15 209
3 188 198 206
3 206 50 188
3 198 51 206
3 188 14 198
3 210 191 208
3 208 55 210
3 191 50 208
3 210 7 191
3 213 211 212
3 212 57 213
3 211 53 212
3 213 56 211
3 195 214 212
3 212 53 195
3 214 57 212
3 195 16 214
3 215 200 211
3 211 56 215
3 200 53 211
3 215 15 200
3 217 216 213
3 213 57 217
3 216 56 213
3 217 9 216
3 220 218 219
3 219 60 220
3 218 59 219
3 220 58 218
3 222 221 219
3 219 59 222
3 221 60 219
3 222 19 221
3 224 223 218
3 218 58 224
3 223 59 218
3 224 18 223
3 226 225 220
3 220 60 226
3 225 58 220
3 226 17 225
3 229 227 228
3 228 62 229
3 227 59 228
3 229 61 227
3 223 230 228
3 228 59 223
3 230 62 228
3 223 18 230
3 231 222 227
3 227 61 231
3 222 59 227
3 231 19 222
3 233 232 229
3 229 62 233
3 232 61 229
3 233 5 232
3 236 234 235
3 235 64 236
3 234 58 235
3 236 63 234
3 225 237 235
3 235 58 225
3 237 64 235
3 225 17 237
3 238 224 234
3 234 63 238
3 224 58 234
3 238 18 224
3 240 239 236
3 236 64 240
3 239 63 236
3 240 6 239
3 243 241 242
3 242 66 243
3 241 60 242
3 243 65 241
3 221 244 242
3 242 60 221
3 244 66 242
3 221 19 244
3 245 226 241
3 241 65 245
3 226 60 241
3 245 17 226
3 247 246 243
3 243 66 247
3 246 65 243
3 247 11 246
3 250 248 249
3 249 69 250
3 248 68 249
3 250 67 248
3 252 251 249
3 249 68 252
3 251 69 249
3 252 18 251
3 254 253 248
3 248 67 254
3 253 68 248
3 254 21 253
3 256 255 250
3 250 69 256
3 255 67 250
3 256 20 255
3 259 257 258
3 258 70 259
3 257 68 258
3 259 62 257
3 253 260 258
3 258 68 253
3 260 70 258
3 253 21 260
3 230 252 257
3 257 62 230
3 252 68 257
3 230 18 252
3 261 233 259
3 259 70 261
3 233 62 259
3 261 5 233
3 264 262 263
3 263 72 264
3 262 67 263
3 264 71 262
3 255 265 263
3 263 67 255
3 265 72 263
3 255 20 265
3 266 254 262
3 262 71 266
3 254 67 262
3 266 21 254
3 268 267 264
3 264 72 268
3 267 71 264
3 268 10 267
3 271 269 270
3 270 63 271
3 269 69 270
3 271 73 269
3 251 238 270
3 270 69 251
3 238 63 270
3 251 18 238
3 272 256 269
3 269 73 272
3 256 69 269
3 272 20 256
3 239 273 271
3 271 63 239
3 273 73 271
3 239 6 273
3 276 274 275
3 275 76 276
3 274 75 275
3 276 74 274
3 278 277 275
3 275 75 278
3 277 76 275
3 278 24 277
3 280 279 274
3 274 74 280
3 279 75 274
3 280 23 279
3 282 281 276
3 276 76 282
3 281 74 276
3 282 22 281
3 285 283 284
3 284 78 285
3 283 75 284
3 285 77 283
3 279 286 284
3 284 75 279
3 286 78 284
3 279 23 286
3 287 278 283
3 283 77 287
3 278 75 283
3 287 24 278
3 289 288 285
3 285 78 289
3 288 77 285
3 289 0 288
3 292 290 291
3 291 80 292
3 290 74 291
3 292 79 290
3 281 293 291
3 291 74 281
3 293 80 291
3 281 22 293
3 294 280 290
3 290 79 294
3 280 74 290
3 294 23 280
3 296 295 292
3 292 80 296
3 295 79 292
3 296 4 295
3 299 297 298
3 298 82 299
3 297 76 298
3 299 81 297
3 277 300 298
3 298 76 277
3 300 82 298
3 277 24 300
3 301 282 297
3 297 81 301
3 282 76 297
3 301 22 282
3 303 302 299
3 299 82 303
3 302 81 299
3 303 3 302
3 306 304 305
3 305 85 306
3 304 84 305
3 306 83 304
3 308 307 305
3 305 84 308
3 307 85 305
3 308 26 307
3 310 309 304
3 304 83 310
3 309 84 304
3 310 24 309
3 312 311 306
3 306 85 312
3 311 83 306
3 312 25 311
3 315 313 314
3 314 77 315
3 313 84 314
3 315 86 313
3 309 287 314
3 314 84 309
3 287 77 314
3 309 24 287
3 316 308 313
3 313 86 316
3 308 84 313
3 316 26 308
3 288 317 315
3 315 77 288
3 317 86 315
3 288 0 317
3 320 318 319
3 319 87 320
3 318 83 319
3 320 82 318
3 311 321 319
3 319 83 311
3 321 87 319
3 311 25 321
3 300 310 318
3 318 82 300
3 310 83 318
3 300 24 310
3 322 303 320
3 320 87 322
3 303 82 320
3 322 3 303
3 325 323 324
3 324 89 325
3 323 85 324
3 325 88 323
3 307 326 324
3 324 85 307
3 326 89 324
3 307 26 326
3 327 312 323
3 323 88 327
3 312 85 323
3 327 25 312
3 329 328 325
3 325 89 329
3 328 88 325
3 329 5 328
3 332 330 331
3 331 92 332
3 330 91 331
3 332 90 330
3 334 333 331
3 331 91 334
3 333 92 331
3 334 29 333
3 336 335 330
3 330 90 336
3 335 91 330
3 336 28 335
3 338 337 332
3 332 92 338
3 337 90 332
3 338 27 337
3 341 339 340
3 340 94 341
3 339 91 340
3 341 93 339
3 335 342 340
3 340 91 335
3 342 94 340
3 335 28 342
3 343 334 339
3 339 93 343
3 334 91 339
3 343 29 334
3 345 344 341
3 341 94 345
3 344 93 341
3 345 2 344
3 348 346 347
3 347 96 348
3 346 90 347
3 348 95 346
3 337 349 347
3 347 90 337
3 349 96 347
3 337 27 349
3 350 336 346
3 346 95 350
3 336 90 346
3 350 28 336
3 352 351 348
3 348 96 352
3 351 95 348
3 352 7 351
3 355 353 354
3 354 98 355
3 353 92 354
3 355 97 353
3 333 356 354
3 354 92 333
3 356 98 354
3 333 29 356
3 357 338 353
3 353 97 357
3 338 92 353
3 357 27 338
3 359 358 355
3 355 98 359
3 358 97 355
3 359 1 358
3 362 360 361
3 361 101 362
3 360 100 361
3 362 99 360
3 364 363 361
3 361 100 364
3 363 101 361
3 364 31 363
3 366 365 360
3 360 99 366
3 365 100 360
3 366 29 365
3 368 367 362
3 362 101 368
3 367 99 362
3 368 30 367
3 371 369 370
3 370 93 371
3 369 100 370
3 371 102 369
3 365 343 370
3 370 100 365
3 343 93 370
3 365 29 343
3 372 364 369
3 369 102 372
3 364 100 369
3 372 31 364
3 344 373 371
3 371 93 344
3 373 102 371
3 344 2 373
3 376 374 375
3 375 103 376
3 374 99 375
3 376 98 374
3 367 377 375
3 375 99 367
3 377 103 375
3 367 30 377
3 356 366 374
3 374 98 356
3 366 99 374
3 356 29 366
3 378 359 376
3 376 103 378
3 359 98 376
3 378 1 359
3 381 379 380
3 380 105 381
3 379 101 380
3 381 104 379
3 363 382 380
3 380 101 363
3 382 105 380
3 363 31 382
3 383 368 379
3 379 104 383
3 368 101 379
3 383 30 368
3 385 384 381
3 381 105 385
3 384 104 381
3 385 6 384
3 388 386 387
3 387 108 388
3 386 107 387
3 388 106 386
3 390 389 387
3 387 107 390
3 389 108 387
3 390 34 389
3 392 391 386
3 386 106 392
3 391 107 386
3 392 33 391
3 394 393 388
3 388 108 394
3 393 106 388
3 394 32 393
3 397 395 396
3 396 110 397
3 395 107 396
3 397 109 395
3 391 398 396
3 396 107 391
3 398 110 396
3 391 33 398
3 399 390 395
3 395 109 399
3 390 107 395
3 399 34 390
3 401 400 397
3 397 110 401
3 400 109 397
3 401 8 400
3 404 402 403
3 403 112 404
3 402 106 403
3 404 111 402
3 393 405 403
3 403 106 393
3 405 112 403
3 393 32 405
3 406 392 402
3 402 111 406
3 392 106 402
3 406 33 392
3 408 407 404
3 404 112 408
3 407 111 404
3 408 0 407
3 411 409 410
3 410 114 411
3 409 108 410
3 411 113 409
3 389 412 410
3 410 108 389
3 412 114 410
3 389 34 412
3 413 394 409
3 409 113 413
3 394 108 409
3 413 32 394
3 415 414 411
3 411 114 415
3 414 113 411
3 415 11 414
3 418 416 417
3 417 117 418
3 416 116 417
3 418 115 416
3 420 419 417
3 417 116 420
3 419 117 417
3 420 36 419
3 422 421 416
3 416 115 422
3 421 116 416
3 422 34 421
3 424 423 418
3 418 117 424
3 423 115 418
3 424 35 423
3 427 425 426
3 426 109 427
3 425 116 426
3 427 118 425
3 421 399 426
3 426 116 421
3 399 109 426
3 421 34 399
3 428 420 425
3 425 118 428
3 420 116 425
3 428 36 420
3 400 429 427
3 427 109 400
3 429 118 427
3 400 8 429
3 432 430 431
3 431 119 432
3 430 115 431
3 432 114 430
3 423 433 431
3 431 115 423
3 433 119 431
3 423 35 433
3 412 422 430
3 430 114 412
3 422 115 430
3 412 34 422
3 434 415 432
3 432 119 434
3 415 114 432
3 434 11 415
3 437 435 436
3 436 121 437
3 435 117 436
3 437 120 435
3 419 438 436
3 436 117 419
3 438 121 436
3 419 36 438
3 439 424 435
3 435 120 439
3 424 117 435
3 439 35 424
3 441 440 437
3 437 121 441
3 440 120 437
3 441 1 440
3 444 442 443
3 443 124 444
3 442 123 443
3 444 122 442
3 446 445 443
3 443 123 446
3 445 124 443
3 446 39 445
3 448 447 442
3 442 122 448
3 447 123 442
3 448 38 447
3 450 449 444
3 444 124 450
3 449 122 444
3 450 37 449
3 453 451 452
3 452 126 453
3 451 123 452
3 453 125 451
3 447 454 452
3 452 123 447
3 454 126 452
3 447 38 454
3 455 446 451
3 451 125 455
3 446 123 451
3 455 39 446
3 457 456 453
3 453 126 457
3 456 125 453
3 457 9 456
3 460 458 459
3 459 128 460
3 458 122 459
3 460 127 458
3 449 461 459
3 459 122 449
3 461 128 459
3 449 37 461
3 462 448 458
3 458 127 462
3 448 122 458
3 462 38 448
3 464 463 460
3 460 128 464
3 463 127 460
3 464 10 463
3 467 465 466
3 466 130 467
3 465 124 466
3 467 129 465
3 445 468 466
3 466 124 445
3 468 130 466
3 445 39 468
3 469 450 465
3 465 129 469
3 450 124 465
3 469 37 450
3 471 470 467
3 467 130 471
3 470 129 467
3 471 3 470
3 474 472 473
3 473 133 474
3 472 132 473
3 474 131 472
3 476 475 473
3 473 132 476
3 475 133 473
3 476 38 475
3 478 477 472
3 472 131 478
3 477 132 472
3 478 41 477
3 480 479 474
3 474 133 480
3 479 131 474
3 480 40 479
3 483 481 482
3 482 134 483
3 481 132 482
3 483 126 481
3 477 484 482
3 482 132 477
3 484 134 482
3 477 41 484
3 454 476 481
3 481 126 454
3 476 132 481
3 454 38 476
3 485 457 483
3 483 134 485
3 457 126 483
3 485 9 457
3 488 486 487
3 487 136 488
3 486 131 487
3 488 135 486
3 479 489 487
3 487 131 479
3 489 136 487
3 479 40 489
3 490 478 486
3 486 135 490
3 478 131 486
3 490 41 478
3 492 491 488
3 488 136 492
3 491 135 488
3 492 2 491
3 495 493 494
3 494 127 495
3 493 133 494
3 495 137 493
3 475 462 494
3 494 133 475
3 462 127 494
3 475 38 462
3 496 480 493
3 493 137 496
3 480 133 493
3 496 40 480
3 463 497 495
3 495 127 463
3 497 137 495
3 463 10 497
3 500 498 499
3 499 140 500
3 498 139 499
3 500 138 498
3 502 501 499
3 499 139 502
3 501 140 499
3 502 33 501
3 504 503 498
3 498 138 504
3 503 139 498
3 504 13 503
3 506 505 500
3 500 140 506
3 505 138 500
3 506 23 505
3 509 507 508
3 508 47 509
3 507 139 508
3 509 110 507
3 503 182 508
3 508 139 503
3 182 47 508
3 503 13 182
3 398 502 507
3 507 110 398
3 502 139 507
3 398 33 502
3 183 401 509
3 509 47 183
3 401 110 509
3 183 8 401
3 512 510 511
3 511 79 512
3 510 138 511
3 512 46 510
3 505 294 511
3 511 138 505
3 294 79 511
3 505 23 294
3 174 504 510
3 510 46 174
3 504 138 510
3 174 13 504
3 295 177 512
3 512 79 295
3 177 46 512
3 295 4 177
3 515 513 514
3 514 111 515
3 513 140 514
3 515 78 513
3 501 406 514
3 514 140 501
3 406 111 514
3 501 33 406
3 286 506 513
3 513 78 286
3 506 140 513
3 286 23 506
3 407 289 515
3 515 111 407
3 289 78 515
3 407 0 289
3 518 516 517
3 517 143 518
3 516 142 517
3 518 141 516
3 520 519 517
3 517 142 520
3 519 143 517
3 520 19 519
3 522 521 516
3 516 141 522
3 521 142 516
3 522 32 521
3 524 523 518
3 518 143 524
3 523 141 518
3 524 26 523
3 527 525 526
3 526 113 527
3 525 142 526
3 527 66 525
3 521 413 526
3 526 142 521
3 413 113 526
3 521 32 413
3 244 520 525
3 525 66 244
3 520 142 525
3 244 19 520
3 414 247 527
3 527 113 414
3 247 66 527
3 414 11 247
3 530 528 529
3 529 86 530
3 528 141 529
3 530 112 528
3 523 316 529
3 529 141 523
3 316 86 529
3 523 26 316
3 405 522 528
3 528 112 405
3 522 141 528
3 405 32 522
3 317 408 530
3 530 86 317
3 408 112 530
3 317 0 408
3 533 531 532
3 532 61 533
3 531 143 532
3 533 89 531
3 519 231 532
3 532 143 519
3 231 61 532
3 519 19 231
3 326 524 531
3 531 89 326
3 524 143 531
3 326 26 524
3 232 329 533
3 533 61 232
3 329 89 533
3 232 5 329
3 536 534 535
3 535 146 536
3 534 145 535
3 536 144 534
3 538 537 535
3 535 145 538
3 537 146 535
3 538 22 537
3 540 539 534
3 534 144 540
3 539 145 534
3 540 16 539
3 542 541 536
3 536 146 542
3 541 144 536
3 542 39 541
3 545 543 544
3 544 54 545
3 543 145 544
3 545 80 543
3 539 204 544
3 544 145 539
3 204 54 544
3 539 16 204
3 293 538 543
3 543 80 293
3 538 145 543
3 293 22 538
3 205 296 545
3 545 54 205
3 296 80 545
3 205 4 296
3 548 546 547
3 547 125 548
3 546 144 547
3 548 57 546
3 541 455 547
3 547 144 541
3 455 125 547
3 541 39 455
3 214 540 546
3 546 57 214
3 540 144 546
3 214 16 540
3 456 217 548
3 548 125 456
3 217 57 548
3 456 9 217
3 551 549 550
3 550 81 551
3 549 146 550
3 551 130 549
3 537 301 550
3 550 146 537
3 301 81 550
3 537 22 301
3 468 542 549
3 549 130 468
3 542 146 549
3 468 39 542
3 302 471 551
3 551 81 302
3 471 130 551
3 302 3 471
3 554 552 553
3 553 149 554
3 552 148 553
3 554 147 552
3 556 555 553
3 553 148 556
3 555 149 553
3 556 21 555
3 558 557 552
3 552 147 558
3 557 148 552
3 558 25 557
3 560 559 554
3 554 149 560
3 559 147 554
3 560 37 559
3 563 561 562
3 562 88 563
3 561 148 562
3 563 70 561
3 557 327 562
3 562 148 557
3 327 88 562
3 557 25 327
3 260 556 561
3 561 70 260
3 556 148 561
3 260 21 556
3 328 261 563
3 563 88 328
3 261 70 563
3 328 5 261
3 566 564 565
3 565 129 566
3 564 147 565
3 566 87 564
3 559 469 565
3 565 147 559
3 469 129 565
3 559 37 469
3 321 558 564
3 564 87 321
3 558 147 564
3 321 25 558
3 470 322 566
3 566 129 470
3 322 87 566
3 470 3 322
3 569 567 568
3 568 71 569
3 567 149 568
3 569 128 567
3 555 266 568
3 568 149 555
3 266 71 568
3 555 21 266
3 461 560 567
3 567 128 461
3 560 149 567
3 461 37 560
3 267 464 569
3 569 71 267
3 464 128 569
3 267 10 464
3 572 570 571
3 571 152 572
3 570 151 571
3 572 150 570
3 574 573 571
3 571 151 574
3 573 152 571
3 574 27 573
3 576 575 570
3 570 150 576
3 575 151 570
3 576 12 575
3 578 577 572
3 572 152 578
3 577 150 572
3 578 36 577
3 581 579 580
3 580 49 581
3 579 151 580
3 581 96 579
3 575 189 580
3 580 151 575
3 189 49 580
3 575 12 189
3 349 574 579
3 579 96 349
3 574 151 579
3 349 27 574
3 190 352 581
3 581 49 190
3 352 96 581
3 190 7 352
3 584 582 583
3 583 118 584
3 582 150 583
3 584 48 582
3 577 428 583
3 583 150 577
3 428 118 583
3 577 36 428
3 181 576 582
3 582 48 181
3 576 150 582
3 181 12 576
3 429 184 584
3 584 118 429
3 184 48 584
3 429 8 184
3 587 585 586
3 586 97 587
3 585 152 586
3 587 121 585
3 573 357 586
3 586 152 573
3 357 97 586
3 573 27 357
3 438 578 585
3 585 121 438
3 578 152 585
3 438 36 578
3 358 441 587
3 587 97 358
3 441 121 587
3 358 1 441
3 590 588 589
3 589 155 590
3 588 154 589
3 590 153 588
3 592 591 589
3 589 154 592
3 591 155 589
3 592 17 591
3 594 593 588
3 588 153 594
3 593 154 588
3 594 30 593
3 596 595 590
3 590 155 596
3 595 153 590
3 596 35 595
3 599 597 598
3 598 104 599
3 597 154 598
3 599 64 597
3 593 383 598
3 598 154 593
3 383 104 598
3 593 30 383
3 237 592 597
3 597 64 237
3 592 154 597
3 237 17 592
3 384 240 599
3 599 104 384
3 240 64 599
3 384 6 240
3 602 600 601
3 601 120 602
3 600 153 601
3 602 103 600
3 595 439 601
3 601 153 595
3 439 120 601
3 595 35 439
3 377 594 600
3 600 103 377
3 594 153 600
3 377 30 594
3 440 378 602
3 602 120 440
3 378 103 602
3 440 1 378
3 605 603 604
3 604 65 605
3 603 155 604
3 605 119 603
3 591 245 604
3 604 155 591
3 245 65 604
3 591 17 245
3 433 596 603
3 603 119 433
3 596 155 603
3 433 35 596
3 246 434 605
3 605 65 246
3 434 119 605
3 246 11 434
3 608 606 607
3 607 158 608
3 606 157 607
3 608 156 606
3 610 609 607
3 607 157 610
3 609 158 607
3 610 15 609
3 612 611 606
3 606 156 612
3 611 157 606
3 612 28 611
3 614 613 608
3 608 158 614
3 613 156 608
3 614 41 613
3 617 615 616
3 616 95 617
3 615 157 616
3 617 55 615
3 611 350 616
3 616 157 611
3 350 95 616
3 611 28 350
3 209 610 615
3 615 55 209
3 610 157 615
3 209 15 610
3 351 210 617
3 617 95 351
3 210 55 617
3 351 7 210
3 620 618 619
3 619 135 620
3 618 156 619
3 620 94 618
3 613 490 619
3 619 156 613
3 490 135 619
3 613 41 490
3 342 612 618
3 618 94 342
3 612 156 618
3 342 28 612
3 491 345 620
3 620 135 491
3 345 94 620
3 491 2 345
3 623 621 622
3 622 56 623
3 621 158 622
3 623 134 621
3 609 215 622
3 622 158 609
3 215 56 622
3 609 15 215
3 484 614 621
3 621 134 484
3 614 158 621
3 484 41 614
3 216 485 623
3 623 56 216
3 485 134 623
3 216 9 485
3 626 624 625
3 625 161 626
3 624 160 625
3 626 159 624
3 628 627 625
3 625 160 628
3 627 161 625
3 628 31 627
3 630 629 624
3 624 159 630
3 629 160 624
3 630 20 629
3 632 631 626
3 626 161 632
3 631 159 626
3 632 40 631
3 635 633 634
3 634 73 635
3 633 160 634
3 635 105 633
3 629 272 634
3 634 160 629
3 272 73 634
3 629 20 272
3 382 628 633
3 633 105 382
3 628 160 633
3 382 31 628
3 273 385 635
3 635 73 273
3 385 105 635
3 273 6 385
3 638 636 637
3 637 137 638
3 636 159 637
3 638 72 636
3 631 496 637
3 637 159 631
3 496 137 637
3 631 40 496
3 265 630 636
3 636 72 265
3 630 159 636
3 265 20 630
3 497 268 638
3 638 137 497
3 268 72 638
3 497 10 268
3 641 639 640
3 640 102 641
3 639 161 640
3 641 136 639
3 627 372 640
3 640 161 627
3 372 102 640
3 627 31 372
3 489 632 639
3 639 136 489
3 632 161 639
3 489 40 632
3 373 492 641
3 641 102 373
3 492 136 641
3 373 2 492
