# vtk DataFile Version 3.0
this file was written using fslvtkio
ASCII
DATASET POLYDATA
POINTS 642 float
111.233 117.299 109.943
96.286 111.693 107.775
92.6802 97.861 102.121
108.835 102.877 106.114
106.408 106.954 116.02
109.323 110.442 100.056
98.9224 107.12 99.0046
95.7321 104.018 114.907
101.467 118.941 115.863
100.737 95.6253 107.8
101.518 96.0314 96.683
104.498 122.073 104.009
98.0334 112.007 117.215
104.207 113.361 117.444
100.581 104.961 117.117
97.4411 98.441 112.757
103.888 100.27 112.965
102.576 114.79 102.214
104.27 108.944 99.3165
108.643 118.813 101.134
99.1542 100.628 96.8877
105.224 102.525 99.3991
108.643 104.452 111.455
109.17 113.083 114.305
111.585 110.278 108.018
110.311 106.163 102.506
111.576 116.587 104.132
95.2245 108.515 112.069
93.3323 99.7442 109.286
93.9062 104.255 105.006
97.5604 110.158 103.135
95.2724 101.409 99.4206
109.5 123.293 106.529
107.372 120.083 113.648
103.018 122.525 110.437
100.014 117.785 106.812
97.4523 116.525 112.682
106.32 97.4191 101.178
99.3674 93.4319 101.104
105.926 96.8489 107.106
94.4302 95.5575 95.7718
95.2847 94.9426 104.475
101.045 112.981 118.072
102.43 109.127 117.81
99.1924 108.381 117.965
103.588 105.846 116.798
105.511 110.328 117.255
103.081 116.46 117.012
99.4828 115.623 116.951
96.8482 108.053 116.472
97.8217 103.928 116.677
99.0451 101.266 115.557
102.468 102.576 115.543
100.718 99.0974 113.284
105.38 103.426 114.579
95.9934 100.563 114.173
99.2019 97.1192 110.333
102.578 97.8115 110.584
103.597 112.141 100.564
106.687 114.219 100.369
105.366 117.097 101.147
109.139 114.759 100.307
106.808 109.807 99.77
101.632 108.064 98.9789
100.904 110.716 101.159
103.55 118.574 102.959
106.529 120.992 101.924
102.256 101.39 97.7189
104.897 105.894 98.8584
101.832 104.818 97.76
107.524 106.214 99.7626
103.879 99.0886 97.6243
100.248 98.2374 95.6886
99.1541 104.078 97.7104
109.411 108.753 113.125
110.985 111.481 111.406
110.641 107.27 110.143
111.552 113.779 108.951
110.497 115.107 112.344
108.044 110.065 115.563
107.835 105.447 113.891
108.963 103.536 108.777
111.073 106.496 107.228
111.26 108.465 105.18
111.648 113.356 106.01
111.249 111.416 103.325
111.605 117.229 106.912
109.919 104.276 104.345
110.273 108.226 100.941
110.931 113.639 101.754
94.1724 104.071 110.845
93.3251 102.209 107.385
94.744 106.157 108.714
93.2289 101.027 103.776
92.935 98.7385 105.875
94.1816 101.824 112.318
95.2661 106.614 113.835
95.6018 110.057 109.843
95.433 107.669 106.459
95.6387 106.884 103.9
94.067 102.771 101.959
95.6479 105.766 100.917
93.3908 99.3446 99.9874
96.7387 110.927 105.233
98.342 108.577 101.329
96.6675 104.48 98.6535
108.893 121.949 110.377
105.304 122.224 112.386
106.535 123.633 107.892
101.754 121.353 113.703
104.556 119.594 115.228
109.963 118.854 112.211
110.96 120.5 108.589
107.497 123.795 103.838
103.734 122.752 106.871
101.288 120.909 108.548
99.8082 120.207 111.993
98.5973 117.507 109.728
98.7358 118.046 114.853
102.217 119.795 105.378
97.8434 114.79 107.213
96.8259 114.111 110.28
103.603 94.2436 100.877
103.071 94.5231 103.905
106.602 96.3599 103.841
103.458 95.9435 107.627
100.242 94.3122 104.473
100.82 94.0577 98.5678
104.368 96.5582 98.6595
107.615 100.26 103.894
107.56 99.3723 106.604
94.0377 94.2108 99.6811
97.1775 93.7745 102.889
96.8308 93.7723 98.2305
97.906 95.1786 106.629
93.4445 95.9681 103.32
92.7571 96.4688 98.4217
97.9683 95.3068 95.8817
107.087 113.434 116.502
106.099 117.032 116.095
108.77 116.946 114.449
111.045 120.331 105.455
109.491 122.186 103.086
110.712 117.482 101.898
105.189 98.4491 110.032
106.479 101.894 112.237
107.387 100.572 109.216
108.058 101.989 102.322
108.346 104.305 100.664
105.989 99.8811 100.011
97.1683 114.621 115.272
96.0099 110.44 114.982
96.0222 112.636 112.402
98.5536 114.161 104.965
99.7518 112.631 102.533
101.127 116.522 104.197
94.3529 97.1109 107.022
94.8571 98.7487 111.521
96.6232 96.6571 108.921
96.9359 97.8279 95.0832
96.8116 100.704 97.7156
93.6276 98.5354 96.6514
101.646 111.014 118.108
100.814 108.951 118.101
100.125 110.663 118.284
99.9814 106.856 117.784
101.357 107.189 117.635
103.089 111.255 117.807
102.564 112.868 117.855
99.5118 112.241 117.942
98.7438 110.322 117.867
102.881 107.405 117.46
103.913 109.779 117.614
104.44 108.044 117.259
104.664 111.736 117.488
101.998 105.535 117.083
105.004 106.514 116.584
105.811 108.484 116.842
102.142 114.601 117.749
100.121 114.232 117.877
101.251 115.954 117.365
98.7369 113.81 117.292
103.645 114.862 117.281
102.156 117.677 116.725
100.483 117.247 116.685
97.9475 108.359 117.426
98.5526 106.233 117.585
97.3076 106.04 116.879
99.2025 104.741 117.148
97.4137 110.095 117.116
96.308 105.986 115.93
96.7285 104.121 116.002
100.77 101.855 115.653
101.549 100.71 114.592
99.9353 100.136 114.506
102.28 99.8379 113.424
103.001 101.241 114.388
101.486 103.64 116.439
99.8815 103.062 116.382
98.293 99.6851 114.419
99.0679 98.8086 113.345
103.933 102.83 115.079
103.031 104.236 116.353
104.725 104.7 115.885
104.48 101.708 113.895
105.945 105.212 115.482
98.5558 102.642 116.341
97.4817 100.771 115.122
96.8703 102.29 115.699
96.7774 99.407 113.735
95.8504 102.269 114.706
99.8523 98.1189 111.992
101.743 98.5845 112.081
100.894 97.5585 110.619
103.153 99.0189 111.981
98.3516 97.7907 111.672
100.151 96.3716 109.261
101.661 96.6322 109.445
105.093 113.215 100.461
106.079 115.654 100.709
104.564 114.694 100.917
106.953 117.734 100.91
107.592 116.545 100.579
105.498 111.849 99.9872
104.207 110.898 99.9348
103.266 113.702 101.23
103.961 115.785 101.555
107.9 114.706 100.371
106.69 112.001 100.035
107.99 112.359 99.9885
105.593 109.958 99.6623
108.952 116.962 100.676
109.125 112.457 100.055
108.03 110.236 99.8444
102.846 110.095 99.9498
102.311 111.635 100.939
101.34 109.484 100.02
101.813 112.912 101.649
103.054 108.613 99.1536
100.296 107.654 98.937
100.037 108.867 100.149
104.334 117.793 101.883
105.988 118.989 101.335
104.87 119.834 102.028
107.467 119.678 101.318
103.163 116.702 102.491
104.04 120.349 103.249
105.227 121.564 102.642
103.616 103.701 98.256
103.403 105.332 98.2719
102.099 103.218 97.7451
103.077 106.809 98.3571
104.577 107.46 98.9463
104.87 104.015 98.8911
103.78 102.232 98.511
100.84 101.245 97.1986
100.623 102.724 97.4546
105.801 108.068 99.4102
106.07 105.93 99.3274
107.256 108.056 99.6913
106.295 104.371 99.499
108.512 108.379 99.9167
102.977 100.333 97.7269
101.325 99.9271 96.6102
102.293 98.844 96.3255
99.7457 99.615 96.1302
104.28 100.831 98.6345
102.903 97.6334 96.8781
101.156 97.223 96.0694
100.599 104.525 97.6914
101.933 106.756 98.2491
100.359 106.364 97.9872
99.2997 102.448 97.4655
98.9349 105.628 98.043
110.279 110.099 112.322
110.933 109.398 110.846
110.132 108.002 111.685
111.29 108.848 109.399
111.385 110.505 109.857
110.124 111.958 112.863
109.493 110.88 113.561
109.302 106.71 112.299
109.708 106.102 111.03
111.456 112.395 110.24
110.754 113.227 112.062
111.277 114.183 110.774
109.861 113.951 113.396
111.595 111.898 108.692
111.408 115.43 109.511
111.082 115.93 111.099
108.781 109.582 114.306
108.72 107.137 113.571
108.078 107.804 114.882
108.361 105.065 112.686
108.682 111.633 114.859
107.195 108.482 115.937
107.217 106.171 115.041
109.905 105.418 109.614
111.069 106.934 108.77
110.074 105.012 108.077
111.426 108.436 107.83
108.964 104.14 110.221
109.005 103.328 107.384
110.214 104.735 106.67
111.561 110.888 105.7
111.547 112.299 104.685
111.253 109.889 104.295
111.559 113.808 103.839
111.641 114.624 104.908
111.624 111.658 106.912
111.513 109.599 106.557
110.839 107.624 103.764
110.92 108.983 103.078
111.54 115.2 106.304
111.678 113.302 107.514
111.523 115.374 107.9
111.675 116.774 105.443
111.442 117.057 108.468
111.296 107.66 106.356
110.846 106.475 104.679
110.747 105.527 105.689
110.26 105.29 103.445
109.538 103.748 105.349
110.799 109.809 102.128
111.168 112.678 102.644
110.653 111.057 101.338
111.382 115.153 103.036
110.41 107.472 101.88
109.968 109.447 100.412
110.249 112.026 100.679
93.7215 103.114 109.129
93.917 104.178 108.028
94.365 105.1 109.733
94.1769 105.02 106.992
93.5557 103.452 106.412
93.1834 101.263 108.542
93.6016 102.03 109.991
94.7084 106.129 111.251
94.8482 107.03 110.366
93.0706 101.77 105.716
92.9169 100.523 106.825
92.917 100.042 104.985
93.0777 99.4408 107.693
93.3667 102.697 104.6
92.8855 99.5057 103.113
92.7797 98.4559 104.048
94.0702 102.762 111.477
94.6277 105.286 112.247
94.721 104.225 113.111
95.0794 107.396 112.816
93.6096 100.751 110.736
94.9321 103.074 113.7
95.5445 105.419 114.493
95.2157 108.034 109.445
94.9569 106.735 107.529
95.4206 108.757 108.16
94.6121 105.862 105.931
95.3642 109.137 110.958
95.8264 110.593 108.61
95.7607 109.546 107.084
94.4649 104.899 102.929
94.6266 104.368 101.445
95.5326 106.254 102.465
95.1633 103.89 100.125
94.6729 102.39 100.653
93.8062 103.604 103.399
94.6307 105.5 104.343
96.5054 108.246 103.256
96.4994 107.516 102.118
94.1116 101.052 101.131
93.5753 101.94 102.952
93.4239 100.118 101.942
94.3166 100.415 99.6678
92.8994 98.6742 101.168
95.3665 107.005 105.207
96.4386 108.603 104.515
96.0595 109.275 105.788
97.0859 110.367 104.092
96.4246 111.161 106.509
97.0027 107.122 101.115
96.0652 105.258 99.7146
97.3171 106.733 99.6921
95.8494 103.139 99.1996
97.6764 109.087 102.148
98.7422 107.888 100.21
97.6342 105.897 98.5489
107.158 122.451 111.058
106.176 123.069 110.234
107.681 123.082 109.337
104.98 123.173 109.353
104.411 122.683 111.254
106.494 121.446 112.84
108.009 121.261 111.976
109.161 122.795 108.585
108.131 123.753 107.295
103.607 122.003 113.099
104.933 121.117 113.964
103.175 120.875 114.75
106.054 120.037 114.436
102.479 122.135 112.114
101.46 120.246 114.966
103.079 119.276 115.759
109.374 120.489 111.491
110.188 121.473 109.699
110.71 119.554 110.534
110.258 122.064 107.899
108.633 119.835 112.836
110.789 117.865 111.265
111.213 118.861 109.292
106.982 123.998 105.918
105.151 123.314 107.367
105.504 123.539 105.278
103.61 122.825 108.717
108.517 123.957 105.233
105.723 123.249 103.733
103.858 122.381 105.487
100.513 120.694 110.271
99.2599 119.136 110.744
99.9089 119.408 109.331
98.0656 117.38 111.137
98.5903 118.463 112.162
101.232 121.62 111.305
101.98 121.958 109.519
100.455 119.269 107.921
99.3492 117.916 108.39
99.1755 119.225 113.319
100.807 121.059 112.822
100.214 119.848 114.408
98.0287 117.588 113.628
99.9861 118.543 115.573
102.436 122.076 107.869
101.599 120.285 107.105
102.77 121.397 106.172
101.033 118.935 106.27
103.4 120.845 104.618
98.3065 116.174 108.463
97.6196 115.914 110.031
97.261 114.411 108.667
97.1239 115.571 111.466
98.9702 116.488 107.212
96.9661 113.219 107.464
96.5079 112.879 109.023
103.516 94.1765 102.463
104.983 95.1933 103.796
105.376 94.9948 102.287
105.977 96.2151 105.329
104.58 95.4064 105.271
101.535 93.7799 102.525
101.668 93.7518 101.157
105.257 95.3205 100.848
106.452 96.5523 102.298
103.334 95.073 105.866
101.687 94.4053 104.157
101.851 94.9153 106.273
99.9121 93.6868 102.746
104.704 96.1225 107.098
102.11 95.8209 107.895
100.324 94.7389 106.247
102.362 94.0472 99.7365
104.205 95.0912 99.4718
102.707 94.9034 98.155
105.388 96.6527 99.9724
100.235 93.6814 99.8668
101.172 94.8212 97.2323
103.188 96.4917 97.5474
107.304 98.117 103.739
107.295 97.602 105.242
107.684 99.8187 105.267
106.996 97.6786 106.673
107.072 98.5859 102.567
108.16 101.64 105.063
108.054 101.295 106.54
95.6457 93.6335 101.087
96.8498 93.3578 100.442
95.3093 93.7903 98.848
98.0927 93.4739 99.6488
98.1928 93.4792 101.977
95.882 94.2171 103.195
94.6308 94.2731 101.757
93.9324 94.49 97.5709
95.4512 94.3092 96.8775
98.9633 93.9656 103.644
97.2963 94.3425 104.503
98.9121 94.5232 105.694
96.5417 94.9413 105.551
99.347 95.4184 107.396
93.5902 94.9227 101.409
93.1055 95.049 98.9012
92.8041 95.9279 100.817
93.2128 95.8484 96.867
94.2781 95.1618 103.496
92.9772 96.899 102.893
92.5482 97.0885 100.324
97.3623 94.2266 97.1395
99.16 93.799 98.7244
99.4836 94.4749 97.155
96.2241 95.251 95.795
99.7212 95.6125 96.2097
106.653 115.322 116.467
107.527 117.108 115.392
107.942 115.299 115.643
108.146 118.659 114.202
106.875 118.693 115.079
105.249 115.162 116.841
105.733 113.509 117.11
108.23 113.504 115.518
108.909 114.99 114.623
105.531 118.483 115.609
104.65 116.536 116.597
103.808 118.056 116.25
106.289 111.98 117.006
107.763 111.817 116.022
106.859 110.012 116.551
109.656 115.852 113.586
109.316 118.096 113.392
110.317 116.921 112.345
110.317 121.362 104.356
110.28 120.082 102.674
110.889 119.246 103.641
109.962 118.262 101.348
109.23 120.506 101.867
109.773 123.129 104.805
110.397 121.904 106.271
111.442 118.494 104.7
111.263 117.092 102.956
108.051 121.224 102.072
108.807 123.358 103.515
106.474 122.576 102.677
111.023 120.506 107.06
111.515 118.674 106.093
111.361 118.74 107.872
110.912 115.333 101.779
110.065 116.002 100.768
110.16 113.575 100.47
105.864 100.147 111.173
107.09 101.3 110.773
106.486 99.2742 109.629
107.98 102.507 110.438
107.655 102.952 111.758
105.225 100.92 112.544
104.589 99.4192 111.485
105.793 97.5936 108.671
106.896 98.501 108.226
107.286 103.675 112.918
105.844 102.475 113.362
106.673 104.361 114.308
103.942 98.1387 110.442
104.642 96.9643 108.718
103.13 96.7487 109.157
107.472 99.7793 107.886
108.111 102.224 109.172
108.096 101.734 107.717
108.333 103.266 101.526
106.988 102.218 100.656
107.109 100.936 101.179
105.674 101.361 99.8297
106.809 103.422 100.098
109.69 105.144 101.44
109.366 104.014 102.468
107.073 99.6935 101.844
106.286 98.693 100.537
107.955 105.148 100.075
109.634 106.126 100.757
109.01 107.345 100.319
109.048 103.361 103.376
107.689 101.064 103.052
108.438 102.525 104.345
105.501 98.0975 99.3552
104.976 99.7744 98.9681
104.414 97.9437 97.9788
96.4392 112.579 115.236
95.9061 111.62 113.739
96.3921 113.69 113.91
95.6049 110.605 112.341
95.5316 109.726 113.525
96.8594 111.331 116.257
97.4903 113.317 116.314
97.097 115.542 113.95
96.6824 114.551 112.644
95.6419 108.572 114.224
96.4299 109.402 115.905
95.903 107.271 115.239
98.0924 115.084 116.321
97.7726 116.425 114.913
99.0728 116.98 116.041
96.3702 113.485 111.364
95.7764 111.188 111.145
96.0669 112.02 109.849
99.1781 113.55 103.71
100.478 114.618 103.428
99.7853 115.433 104.572
101.774 115.59 103.081
101.128 113.728 102.446
98.5123 111.691 102.854
97.9887 112.363 103.949
99.2495 115.987 105.852
100.436 117.142 105.461
100.368 111.818 101.805
98.7852 110.599 102.018
99.5356 109.628 101.151
97.4257 112.404 104.901
98.2594 114.577 106.095
97.0662 112.829 106.224
101.513 118.132 104.926
102.369 117.178 103.577
102.889 119.129 104.134
94.6331 97.8706 109.3
95.7527 97.6367 110.16
95.4025 96.762 107.948
97.0005 97.5826 110.89
96.0702 98.4332 112.077
93.9422 99.0543 110.388
93.8018 98.2762 108.342
94.8053 95.8796 105.768
95.9573 95.6711 106.835
95.3704 99.5525 112.965
94.1401 100.171 111.933
95.0169 101.491 113.414
93.6286 97.968 106.657
93.9328 96.3523 105.189
93.2292 97.4026 104.657
97.235 95.7648 107.716
97.8695 96.8987 109.794
98.7954 96.0374 108.564
96.6361 99.338 96.1759
95.3083 99.5102 97.0852
94.9681 98.3332 95.2714
94.6921 99.7328 98.2606
96.0983 101.209 98.6544
98.0567 100.81 97.4585
97.9585 99.4519 95.9217
95.6242 96.646 95.0983
93.6503 97.0914 95.7683
96.8079 102.609 98.3192
97.9838 102.534 97.7827
97.8067 104.288 97.99
98.6484 98.5547 95.3343
97.4668 96.4856 95.2874
99.5182 96.8863 95.6522
93.0096 97.3984 97.4918
93.5463 99.1062 98.4504
92.8073 97.9984 99.54
POLYGONS 1280  5120
3 164 162 163
3 163 44 164
3 162 43 163
3 164 42 162
3 166 165 163
3 163 43 166
3 165 44 163
3 166 14 165
3 168 167 162
3 162 42 168
3 167 43 162
3 168 13 167
3 170 169 164
3 164 44 170
3 169 42 164
3 170 12 169
3 173 171 172
3 172 46 173
3 171 43 172
3 173 45 171
3 167 174 172
3 172 43 167
3 174 46 172
3 167 13 174
3 175 166 171
3 171 45 175
3 166 43 171
3 175 14 166
3 177 176 173
3 173 46 177
3 176 45 173
3 177 4 176
3 180 178 179
3 179 48 180
3 178 42 179
3 180 47 178
3 169 181 179
3 179 42 169
3 181 48 179
3 169 12 181
3 182 168 178
3 178 47 182
3 168 42 178
3 182 13 168
3 184 183 180
3 180 48 184
3 183 47 180
3 184 8 183
3 187 185 186
3 186 50 187
3 185 44 186
3 187 49 185
3 165 188 186
3 186 44 165
3 188 50 186
3 165 14 188
3 189 170 185
3 185 49 189
3 170 44 185
3 189 12 170
3 191 190 187
3 187 50 191
3 190 49 187
3 191 7 190
3 194 192 193
3 193 53 194
3 192 52 193
3 194 51 192
3 196 195 193
3 193 52 196
3 195 53 193
3 196 16 195
3 198 197 192
3 192 51 198
3 197 52 192
3 198 14 197
3 200 199 194
3 194 53 200
3 199 51 194
3 200 15 199
3 203 201 202
3 202 45 203
3 201 52 202
3 203 54 201
3 197 175 202
3 202 52 197
3 175 45 202
3 197 14 175
3 204 196 201
3 201 54 204
3 196 52 201
3 204 16 196
3 176 205 203
3 203 45 176
3 205 54 203
3 176 4 205
3 208 206 207
3 207 55 208
3 206 51 207
3 208 50 206
3 199 209 207
3 207 51 199
3 209 55 207
3 199 15 209
3 188 198 206
3 206 50 188
3 198 51 206
3 188 14 198
3 210 191 208
3 208 55 210
3 191 50 208
3 210 7 191
3 213 211 212
3 212 57 213
3 211 53 212
3 213 56 211
3 195 214 212
3 212 53 195
3 214 57 212
3 195 16 214
3 215 200 211
3 211 56 215
3 200 53 211
3 215 15 200
3 217 216 213
3 213 57 217
3 216 56 213
3 217 9 216
3 220 218 219
3 219 60 220
3 218 59 219
3 220 58 218
3 222 221 219
3 219 59 222
3 221 60 219
3 222 19 221
3 224 223 218
3 218 58 224
3 223 59 218
3 224 18 223
3 226 225 220
3 220 60 226
3 225 58 220
3 226 17 225
3 229 227 228
3 228 62 229
3 227 59 228
3 229 61 227
3 223 230 228
3 228 59 223
3 230 62 228
3 223 18 230
3 231 222 227
3 227 61 231
3 222 59 227
3 231 19 222
3 233 232 229
3 229 62 233
3 232 61 229
3 233 5 232
3 236 234 235
3 235 64 236
3 234 58 235
3 236 63 234
3 225 237 235
3 235 58 225
3 237 64 235
3 225 17 237
3 238 224 234
3 234 63 238
3 224 58 234
3 238 18 224
3 240 239 236
3 236 64 240
3 239 63 236
3 240 6 239
3 243 241 242
3 242 66 243
3 241 60 242
3 243 65 241
3 221 244 242
3 242 60 221
3 244 66 242
3 221 19 244
3 245 226 241
3 241 65 245
3 226 60 241
3 245 17 226
3 247 246 243
3 243 66 247
3 246 65 243
3 247 11 246
3 250 248 249
3 249 69 250
3 248 68 249
3 250 67 248
3 252 251 249
3 249 68 252
3 251 69 249
3 252 18 251
3 254 253 248
3 248 67 254
3 253 68 248
3 254 21 253
3 256 255 250
3 250 69 256
3 255 67 250
3 256 20 255
3 259 257 258
3 258 70 259
3 257 68 258
3 259 62 257
3 253 260 258
3 258 68 253
3 260 70 258
3 253 21 260
3 230 252 257
3 257 62 230
3 252 68 257
3 230 18 252
3 261 233 259
3 259 70 261
3 233 62 259
3 261 5 233
3 264 262 263
3 263 72 264
3 262 67 263
3 264 71 262
3 255 265 263
3 263 67 255
3 265 72 263
3 255 20 265
3 266 254 262
3 262 71 266
3 254 67 262
3 266 21 254
3 268 267 264
3 264 72 268
3 267 71 264
3 268 10 267
3 271 269 270
3 270 63 271
3 269 69 270
3 271 73 269
3 251 238 270
3 270 69 251
3 238 63 270
3 251 18 238
3 272 256 269
3 269 73 272
3 256 69 269
3 272 20 256
3 239 273 271
3 271 63 239
3 273 73 271
3 239 6 273
3 276 274 275
3 275 76 276
3 274 75 275
3 276 74 274
3 278 277 275
3 275 75 278
3 277 76 275
3 278 24 277
3 280 279 274
3 274 74 280
3 279 75 274
3 280 23 279
3 282 281 276
3 276 76 282
3 281 74 276
3 282 22 281
3 285 283 284
3 284 78 285
3 283 75 284
3 285 77 283
3 279 286 284
3 284 75 279
3 286 78 284
3 279 23 286
3 287 278 283
3 283 77 287
3 278 75 283
3 287 24 278
3 289 288 285
3 285 78 289
3 288 77 285
3 289 0 288
3 292 290 291
3 291 80 292
3 290 74 291
3 292 79 290
3 281 293 291
3 291 74 281
3 293 80 291
3 281 22 293
3 294 280 290
3 290 79 294
3 280 74 290
3 294 23 280
3 296 295 292
3 292 80 296
3 295 79 292
3 296 4 295
3 299 297 298
3 298 82 299
3 297 76 298
3 299 81 297
3 277 300 298
3 298 76 277
3 300 82 298
3 277 24 300
3 301 282 297
3 297 81 301
3 282 76 297
3 301 22 282
3 303 302 299
3 299 82 303
3 302 81 299
3 303 3 302
3 306 304 305
3 305 85 306
3 304 84 305
3 306 83 304
3 308 307 305
3 305 84 308
3 307 85 305
3 308 26 307
3 310 309 304
3 304 83 310
3 309 84 304
3 310 24 309
3 312 311 306
3 306 85 312
3 311 83 306
3 312 25 311
3 315 313 314
3 314 77 315
3 313 84 314
3 315 86 313
3 309 287 314
3 314 84 309
3 287 77 314
3 309 24 287
3 316 308 313
3 313 86 316
3 308 84 313
3 316 26 308
3 288 317 315
3 315 77 288
3 317 86 315
3 288 0 317
3 320 318 319
3 319 87 320
3 318 83 319
3 320 82 318
3 311 321 319
3 319 83 311
3 321 87 319
3 311 25 321
3 300 310 318
3 318 82 300
3 310 83 318
3 300 24 310
3 322 303 320
3 320 87 322
3 303 82 320
3 322 3 303
3 325 323 324
3 324 89 325
3 323 85 324
3 325 88 323
3 307 326 324
3 324 85 307
3 326 89 324
3 307 26 326
3 327 312 323
3 323 88 327
3 312 85 323
3 327 25 312
3 329 328 325
3 325 89 329
3 328 88 325
3 329 5 328
3 332 330 331
3 331 92 332
3 330 91 331
3 332 90 330
3 334 333 331
3 331 91 334
3 333 92 331
3 334 29 333
3 336 335 330
3 330 90 336
3 335 91 330
3 336 28 335
3 338 337 332
3 332 92 338
3 337 90 332
3 338 27 337
3 341 339 340
3 340 94 341
3 339 91 340
3 341 93 339
3 335 342 340
3 340 91 335
3 342 94 340
3 335 28 342
3 343 334 339
3 339 93 343
3 334 91 339
3 343 29 334
3 345 344 341
3 341 94 345
3 344 93 341
3 345 2 344
3 348 346 347
3 347 96 348
3 346 90 347
3 348 95 346
3 337 349 347
3 347 90 337
3 349 96 347
3 337 27 349
3 350 336 346
3 346 95 350
3 336 90 346
3 350 28 336
3 352 351 348
3 348 96 352
3 351 95 348
3 352 7 351
3 355 353 354
3 354 98 355
3 353 92 354
3 355 97 353
3 333 356 354
3 354 92 333
3 356 98 354
3 333 29 356
3 357 338 353
3 353 97 357
3 338 92 353
3 357 27 338
3 359 358 355
3 355 98 359
3 358 97 355
3 359 1 358
3 362 360 361
3 361 101 362
3 360 100 361
3 362 99 360
3 364 363 361
3 361 100 364
3 363 101 361
3 364 31 363
3 366 365 360
3 360 99 366
3 365 100 360
3 366 29 365
3 368 367 362
3 362 101 368
3 367 99 362
3 368 30 367
3 371 369 370
3 370 93 371
3 369 100 370
3 371 102 369
3 365 343 370
3 370 100 365
3 343 93 370
3 365 29 343
3 372 364 369
3 369 102 372
3 364 100 369
3 372 31 364
3 344 373 371
3 371 93 344
3 373 102 371
3 344 2 373
3 376 374 375
3 375 103 376
3 374 99 375
3 376 98 374
3 367 377 375
3 375 99 367
3 377 103 375
3 367 30 377
3 356 366 374
3 374 98 356
3 366 99 374
3 356 29 366
3 378 359 376
3 376 103 378
3 359 98 376
3 378 1 359
3 381 379 380
3 380 105 381
3 379 101 380
3 381 104 379
3 363 382 380
3 380 101 363
3 382 105 380
3 363 31 382
3 383 368 379
3 379 104 383
3 368 101 379
3 383 30 368
3 385 384 381
3 381 105 385
3 384 104 381
3 385 6 384
3 388 386 387
3 387 108 388
3 386 107 387
3 388 106 386
3 390 389 387
3 387 107 390
3 389 108 387
3 390 34 389
3 392 391 386
3 386 106 392
3 391 107 386
3 392 33 391
3 394 393 388
3 388 108 394
3 393 106 388
3 394 32 393
3 397 395 396
3 396 110 397
3 395 107 396
3 397 109 395
3 391 398 396
3 396 107 391
3 398 110 396
3 391 33 398
3 399 390 395
3 395 109 399
3 390 107 395
3 399 34 390
3 401 400 397
3 397 110 401
3 400 109 397
3 401 8 400
3 404 402 403
3 403 112 404
3 402 106 403
3 404 111 402
3 393 405 403
3 403 106 393
3 405 112 403
3 393 32 405
3 406 392 402
3 402 111 406
3 392 106 402
3 406 33 392
3 408 407 404
3 404 112 408
3 407 111 404
3 408 0 407
3 411 409 410
3 410 114 411
3 409 108 410
3 411 113 409
3 389 412 410
3 410 108 389
3 412 114 410
3 389 34 412
3 413 394 409
3 409 113 413
3 394 108 409
3 413 32 394
3 415 414 411
3 411 114 415
3 414 113 411
3 415 11 414
3 418 416 417
3 417 117 418
3 416 116 417
3 418 115 416
3 420 419 417
3 417 116 420
3 419 117 417
3 420 36 419
3 422 421 416
3 416 115 422
3 421 116 416
3 422 34 421
3 424 423 418
3 418 117 424
3 423 115 418
3 424 35 423
3 427 425 426
3 426 109 427
3 425 116 426
3 427 118 425
3 421 399 426
3 426 116 421
3 399 109 426
3 421 34 399
3 428 420 425
3 425 118 428
3 420 116 425
3 428 36 420
3 400 429 427
3 427 109 400
3 429 118 427
3 400 8 429
3 432 430 431
3 431 119 432
3 430 115 431
3 432 114 430
3 423 433 431
3 431 115 423
3 433 119 431
3 423 35 433
3 412 422 430
3 430 114 412
3 422 115 430
3 412 34 422
3 434 415 432
3 432 119 434
3 415 114 432
3 434 11 415
3 437 435 436
3 436 121 437
3 435 117 436
3 437 120 435
3 419 438 436
3 436 117 419
3 438 121 436
3 419 36 438
3 439 424 435
3 435 120 439
3 424 117 435
3 439 35 424
3 441 440 437
3 437 121 441
3 440 120 437
3 441 1 440
3 444 442 443
3 443 124 444
3 442 123 443
3 444 122 442
3 446 445 443
3 443 123 446
3 445 124 443
3 446 39 445
3 448 447 442
3 442 122 448
3 447 123 442
3 448 38 447
3 450 449 444
3 444 124 450
3 449 122 444
3 450 37 449
3 453 451 452
3 452 126 453
3 451 123 452
3 453 125 451
3 447 454 452
3 452 123 447
3 454 126 452
3 447 38 454
3 455 446 451
3 451 125 455
3 446 123 451
3 455 39 446
3 457 456 453
3 453 126 457
3 456 125 453
3 457 9 456
3 460 458 459
3 459 128 460
3 458 122 459
3 460 127 458
3 449 461 459
3 459 122 449
3 461 128 459
3 449 37 461
3 462 448 458
3 458 127 462
3 448 122 458
3 462 38 448
3 464 463 460
3 460 128 464
3 463 127 460
3 464 10 463
3 467 465 466
3 466 130 467
3 465 124 466
3 467 129 465
3 445 468 466
3 466 124 445
3 468 130 466
3 445 39 468
3 469 450 465
3 465 129 469
3 450 124 465
3 469 37 450
3 471 470 467
3 467 130 471
3 470 129 467
3 471 3 470
3 474 472 473
3 473 133 474
3 472 132 473
3 474 131 472
3 476 475 473
3 473 132 476
3 475 133 473
3 476 38 475
3 478 477 472
3 472 131 478
3 477 132 472
3 478 41 477
3 480 479 474
3 474 133 480
3 479 131 474
3 480 40 479
3 483 481 482
3 482 134 483
3 481 132 482
3 483 126 481
3 477 484 482
3 482 132 477
3 484 134 482
3 477 41 484
3 454 476 481
3 481 126 454
3 476 132 481
3 454 38 476
3 485 457 483
3 483 134 485
3 457 126 483
3 485 9 457
3 488 486 487
3 487 136 488
3 486 131 487
3 488 135 486
3 479 489 487
3 487 131 479
3 489 136 487
3 479 40 489
3 490 478 486
3 486 135 490
3 478 131 486
3 490 41 478
3 492 491 488
3 488 136 492
3 491 135 488
3 492 2 491
3 495 493 494
3 494 127 495
3 493 133 494
3 495 137 493
3 475 462 494
3 494 133 475
3 462 127 494
3 475 38 462
3 496 480 493
3 493 137 496
3 480 133 493
3 496 40 480
3 463 497 495
3 495 127 463
3 497 137 495
3 463 10 497
3 500 498 499
3 499 140 500
3 498 139 499
3 500 138 498
3 502 501 499
3 499 139 502
3 501 140 499
3 502 33 501
3 504 503 498
3 498 138 504
3 503 139 498
3 504 13 503
3 506 505 500
3 500 140 506
3 505 138 500
3 506 23 505
3 509 507 508
3 508 47 509
3 507 139 508
3 509 110 507
3 503 182 508
3 508 139 503
3 182 47 508
3 503 13 182
3 398 502 507
3 507 110 398
3 502 139 507
3 398 33 502
3 183 401 509
3 509 47 183
3 401 110 509
3 183 8 401
3 512 510 511
3 511 79 512
3 510 138 511
3 512 46 510
3 505 294 511
3 511 138 505
3 294 79 511
3 505 23 294
3 174 504 510
3 510 46 174
3 504 138 510
3 174 13 504
3 295 177 512
3 512 79 295
3 177 46 512
3 295 4 177
3 515 513 514
3 514 111 515
3 513 140 514
3 515 78 513
3 501 406 514
3 514 140 501
3 406 111 514
3 501 33 406
3 286 506 513
3 513 78 286
3 506 140 513
3 286 23 506
3 407 289 515
3 515 111 407
3 289 78 515
3 407 0 289
3 518 516 517
3 517 143 518
3 516 142 517
3 518 141 516
3 520 519 517
3 517 142 520
3 519 143 517
3 520 19 519
3 522 521 516
3 516 141 522
3 521 142 516
3 522 32 521
3 524 523 518
3 518 143 524
3 523 141 518
3 524 26 523
3 527 525 526
3 526 113 527
3 525 142 526
3 527 66 525
3 521 413 526
3 526 142 521
3 413 113 526
3 521 32 413
3 244 520 525
3 525 66 244
3 520 142 525
3 244 19 520
3 414 247 527
3 527 113 414
3 247 66 527
3 414 11 247
3 530 528 529
3 529 86 530
3 528 141 529
3 530 112 528
3 523 316 529
3 529 141 523
3 316 86 529
3 523 26 316
3 405 522 528
3 528 112 405
3 522 141 528
3 405 32 522
3 317 408 530
3 530 86 317
3 408 112 530
3 317 0 408
3 533 531 532
3 532 61 533
3 531 143 532
3 533 89 531
3 519 231 532
3 532 143 519
3 231 61 532
3 519 19 231
3 326 524 531
3 531 89 326
3 524 143 531
3 326 26 524
3 232 329 533
3 533 61 232
3 329 89 533
3 232 5 329
3 536 534 535
3 535 146 536
3 534 145 535
3 536 144 534
3 538 537 535
3 535 145 538
3 537 146 535
3 538 22 537
3 540 539 534
3 534 144 540
3 539 145 534
3 540 16 539
3 542 541 536
3 536 146 542
3 541 144 536
3 542 39 541
3 545 543 544
3 544 54 545
3 543 145 544
3 545 80 543
3 539 204 544
3 544 145 539
3 204 54 544
3 539 16 204
3 293 538 543
3 543 80 293
3 538 145 543
3 293 22 538
3 205 296 545
3 545 54 205
3 296 80 545
3 205 4 296
3 548 546 547
3 547 125 548
3 546 144 547
3 548 57 546
3 541 455 547
3 547 144 541
3 455 125 547
3 541 39 455
3 214 540 546
3 546 57 214
3 540 144 546
3 214 16 540
3 456 217 548
3 548 125 456
3 217 57 548
3 456 9 217
3 551 549 550
3 550 81 551
3 549 146 550
3 551 130 549
3 537 301 550
3 550 146 537
3 301 81 550
3 537 22 301
3 468 542 549
3 549 130 468
3 542 146 549
3 468 39 542
3 302 471 551
3 551 81 302
3 471 130 551
3 302 3 471
3 554 552 553
3 553 149 554
3 552 148 553
3 554 147 552
3 556 555 553
3 553 148 556
3 555 149 553
3 556 21 555
3 558 557 552
3 552 147 558
3 557 148 552
3 558 25 557
3 560 559 554
3 554 149 560
3 559 147 554
3 560 37 559
3 563 561 562
3 562 88 563
3 561 148 562
3 563 70 561
3 557 327 562
3 562 148 557
3 327 88 562
3 557 25 327
3 260 556 561
3 561 70 260
3 556 148 561
3 260 21 556
3 328 261 563
3 563 88 328
3 261 70 563
3 328 5 261
3 566 564 565
3 565 129 566
3 564 147 565
3 566 87 564
3 559 469 565
3 565 147 559
3 469 129 565
3 559 37 469
3 321 558 564
3 564 87 321
3 558 147 564
3 321 25 558
3 470 322 566
3 566 129 470
3 322 87 566
3 470 3 322
3 569 567 568
3 568 71 569
3 567 149 568
3 569 128 567
3 555 266 568
3 568 149 555
3 266 71 568
3 555 21 266
3 461 560 567
3 567 128 461
3 560 149 567
3 461 37 560
3 267 464 569
3 569 71 267
3 464 128 569
3 267 10 464
3 572 570 571
3 571 152 572
3 570 151 571
3 572 150 570
3 574 573 571
3 571 151 574
3 573 152 571
3 574 27 573
3 576 575 570
3 570 150 576
3 575 151 570
3 576 12 575
3 578 577 572
3 572 152 578
3 577 150 572
3 578 36 577
3 581 579 580
3 580 49 581
3 579 151 580
3 581 96 579
3 575 189 580
3 580 151 575
3 189 49 580
3 575 12 189
3 349 574 579
3 579 96 349
3 574 151 579
3 349 27 574
3 190 352 581
3 581 49 190
3 352 96 581
3 190 7 352
3 584 582 583
3 583 118 584
3 582 150 583
3 584 48 582
3 577 428 583
3 583 150 577
3 428 118 583
3 577 36 428
3 181 576 582
3 582 48 181
3 576 150 582
3 181 12 576
3 429 184 584
3 584 118 429
3 184 48 584
3 429 8 184
3 587 585 586
3 586 97 587
3 585 152 586
3 587 121 585
3 573 357 586
3 586 152 573
3 357 97 586
3 573 27 357
3 438 578 585
3 585 121 438
3 578 152 585
3 438 36 578
3 358 441 587
3 587 97 358
3 441 121 587
3 358 1 441
3 590 588 589
3 589 155 590
3 588 154 589
3 590 153 588
3 592 591 589
3 589 154 592
3 591 155 589
3 592 17 591
3 594 593 588
3 588 153 594
3 593 154 588
3 594 30 593
3 596 595 590
3 590 155 596
3 595 153 590
3 596 35 595
3 599 597 598
3 598 104 599
3 597 154 598
3 599 64 597
3 593 383 598
3 598 154 593
3 383 104 598
3 593 30 383
3 237 592 597
3 597 64 237
3 592 154 597
3 237 17 592
3 384 240 599
3 599 104 384
3 240 64 599
3 384 6 240
3 602 600 601
3 601 120 602
3 600 153 601
3 602 103 600
3 595 439 601
3 601 153 595
3 439 120 601
3 595 35 439
3 377 594 600
3 600 103 377
3 594 153 600
3 377 30 594
3 440 378 602
3 602 120 440
3 378 103 602
3 440 1 378
3 605 603 604
3 604 65 605
3 603 155 604
3 605 119 603
3 591 245 604
3 604 155 591
3 245 65 604
3 591 17 245
3 433 596 603
3 603 119 433
3 596 155 603
3 433 35 596
3 246 434 605
3 605 65 246
3 434 119 605
3 246 11 434
3 608 606 607
3 607 158 608
3 606 157 607
3 608 156 606
3 610 609 607
3 607 157 610
3 609 158 607
3 610 15 609
3 612 611 606
3 606 156 612
3 611 157 606
3 612 28 611
3 614 613 608
3 608 158 614
3 613 156 608
3 614 41 613
3 617 615 616
3 616 95 617
3 615 157 616
3 617 55 615
3 611 350 616
3 616 157 611
3 350 95 616
3 611 28 350
3 209 610 615
3 615 55 209
3 610 157 615
3 209 15 610
3 351 210 617
3 617 95 351
3 210 55 617
3 351 7 210
3 620 618 619
3 619 135 620
3 618 156 619
3 620 94 618
3 613 490 619
3 619 156 613
3 490 135 619
3 613 41 490
3 342 612 618
3 618 94 342
3 612 156 618
3 342 28 612
3 491 345 620
3 620 135 491
3 345 94 620
3 491 2 345
3 623 621 622
3 622 56 623
3 621 158 622
3 623 134 621
3 609 215 622
3 622 158 609
3 215 56 622
3 609 15 215
3 484 614 621
3 621 134 484
3 614 158 621
3 484 41 614
3 216 485 623
3 623 56 216
3 485 134 623
3 216 9 485
3 626 624 625
3 625 161 626
3 624 160 625
3 626 159 624
3 628 627 625
3 625 160 628
3 627 161 625
3 628 31 627
3 630 629 624
3 624 159 630
3 629 160 624
3 630 20 629
3 632 631 626
3 626 161 632
3 631 159 626
3 632 40 631
3 635 633 634
3 634 73 635
3 633 160 634
3 635 105 633
3 629 272 634
3 634 160 629
3 272 73 634
3 629 20 272
3 382 628 633
3 633 105 382
3 628 160 633
3 382 31 628
3 273 385 635
3 635 73 273
3 385 105 635
3 273 6 385
3 638 636 637
3 637 137 638
3 636 159 637
3 638 72 636
3 631 496 637
3 637 159 631
3 496 137 637
3 631 40 496
3 265 630 636
3 636 72 265
3 630 159 636
3 265 20 630
3 497 268 638
3 638 137 497
3 268 72 638
3 497 10 268
3 641 639 640
3 640 102 641
3 639 161 640
3 641 136 639
3 627 372 640
3 640 161 627
3 372 102 640
3 627 31 372
3 489 632 639
3 639 136 489
3 632 161 639
3 489 40 632
3 373 492 641
3 641 102 373
3 492 136 641
3 373 2 492
