# vtk DataFile Version 3.0
this file was written using fslvtkio
ASCII
DATASET POLYDATA
POINTS 664 float
89.6308 119.082 76.9331
87.9546 118.491 77.1828
88.7944 117.074 77.4428
90.624 117.353 77.6743
91.4113 119.149 77.4666
91.8262 117.792 78.0987
87.7478 120.067 76.9865
85.6357 119.379 77.5814
86.4411 118.452 77.2876
89.6288 121.023 76.8989
91.1894 120.804 76.8546
92.6051 119.114 78.1305
92.611 120.767 77.5285
93.3659 119.817 78.5058
93.7679 120.852 78.3829
94.2801 119.854 79.1809
87.2197 121.381 77.89
85.5968 120.704 78.7857
88.9858 122.275 77.275
90.904 122.815 77.2999
92.5315 122.582 77.2545
93.9056 122.09 78.0893
94.791 121.033 79.2573
87.4194 122.109 79.1563
86.9193 121.429 80.1036
88.858 123.153 78.6713
90.6216 124.171 78.1921
92.4732 124.472 77.8401
94.0905 123.822 78.0944
95.2066 122.669 79.1115
88.6873 123.012 80.1559
90.4887 124.112 79.8681
92.2202 124.905 79.5604
94.0785 125.04 79.4352
95.2443 124.235 79.4933
86.9104 117.336 77.3601
84.9256 117.072 77.7392
86.4568 116.129 77.5611
87.9192 115.521 77.8553
89.9922 115.614 78.1475
91.9123 116.342 78.8225
92.8166 117.793 78.7247
93.3598 116.82 79.4464
84.1528 118.956 78.5468
93.8857 118.569 79.3037
95.218 119.322 80.1013
84.932 120.191 80.2068
95.9829 121.367 80.1541
86.6582 120.957 81.1505
96.2834 123.422 80.2847
88.4345 122.061 81.2688
90.3772 123.132 81.2696
92.139 124.142 81.236
93.9402 124.774 81.2364
95.7596 124.795 81.2781
86.7897 112.792 78.7736
85.3842 112.202 79.4423
86.6891 111.664 79.7447
87.8574 111.405 79.838
88.7027 112.669 79.035
89.3035 111.723 80.1377
85.5663 114.692 78.2734
83.9986 113.633 78.7543
87.9408 114.14 78.3599
89.9344 112.797 79.7059
89.9018 114.074 78.887
91.0707 113.398 79.8025
83.6305 115.523 78.4138
81.7569 115.78 79.783
82.5156 114.121 79.3317
91.7411 114.941 79.4658
94.0273 115.513 80.3042
94.5681 117.47 79.8929
95.5339 117.391 80.9213
82.9346 117.354 78.7761
81.7869 117.485 80.463
96.3331 119.45 81.165
83.1313 118.862 80.1385
82.8041 118.227 82.0822
96.7389 120.889 81.4343
96.9183 122.471 81.2743
97.8217 121.596 82.3351
84.307 119.494 81.587
86.0513 120.068 82.1511
97.0257 123.986 81.7079
98.0111 123.094 82.6176
88.119 121.078 82.122
90.154 121.803 82.1911
91.9381 122.85 82.4372
93.6229 123.984 82.7031
95.5052 124.534 82.9986
97.3561 124.441 83.2604
86.7976 110.273 80.5706
85.2311 109.493 80.8888
86.0417 108.701 81.6126
87.7917 108.885 81.7267
89.05 110.467 81.0463
89.701 109.25 82.3506
91.057 110.494 82.0153
91.7109 109.145 83.377
84.6204 110.842 80.3546
83.0774 109.824 81.0419
84.1677 109.476 80.9535
90.738 111.911 80.8608
92.9045 110.592 82.4606
92.5923 112.263 81.5
93.8947 111.752 82.282
94.1776 112.997 81.8041
95.0657 112.74 82.5688
82.14 111.365 80.6133
80.504 111.626 81.7563
81.2703 110.155 81.6263
83.1879 112.403 79.6118
92.432 113.744 80.3303
93.9529 113.853 80.9744
95.455 114.4 81.834
81.1471 113.366 80.4916
80.2558 113.372 82.4735
96.1314 116.155 81.7286
97.1104 118.454 81.9918
97.4595 117.382 82.631
98.3488 118.709 83.1534
98.7047 117.864 83.6755
81.0302 115.015 81.4901
81.506 116.685 82.2438
97.6815 120.233 82.4371
98.7322 120.006 83.4226
99.5753 119.219 84.3594
83.2114 117.582 83.7007
99.1273 121.672 83.5
100.172 120.889 84.7219
84.6738 118.835 82.9837
86.4431 119.114 83.3824
98.8857 123.335 83.8579
100.272 122.713 84.97
87.8013 120.065 83.0105
89.5266 120.773 82.9146
91.4655 121.345 83.3126
93.1596 122.564 83.6754
94.8905 123.529 84.3867
96.817 124.156 84.843
98.6358 123.897 85.0777
84.5075 106.682 82.4151
82.6726 106.303 82.7415
83.72 105.23 82.9861
85.5953 105.588 83.0895
86.4202 107.264 82.2973
87.4226 106.011 83.4259
88.424 107.607 82.773
89.3017 106.566 83.9864
90.2634 107.975 83.3455
91.2891 107.439 84.6571
84.0329 108.193 81.7945
82.0702 107.538 82.3917
92.7711 108.494 84.8765
81.9184 108.736 81.7827
80.0878 109.744 83.129
80.6303 107.892 82.6939
93.5073 109.755 83.8832
94.8843 111.023 83.3837
96.2194 112.796 83.1985
79.6878 111.569 83.7179
97.0591 114 83.3144
80.505 113.417 84.4213
97.2777 115.263 82.9803
98.1451 116.536 83.5155
99.5571 117.633 84.813
81.1054 115.226 83.427
82.3167 116.476 84.5471
100.716 119.542 85.7698
84.5585 117.049 85.2298
101.254 121.563 86.4116
85.3951 118.111 84.2692
86.9674 118.287 84.2551
91.8427 120.508 84.3581
91.4622 119.307 85.0226
90.7326 119.947 84.1066
92.4652 119.99 85.3073
99.9717 122.944 86.6226
87.9635 119.054 83.7059
89.5253 119.595 83.6381
92.8172 121.385 84.5849
94.281 122.183 85.2815
96.0461 122.873 85.838
97.8863 123.327 86.3868
85.3225 102.766 84.4908
84.1789 101.524 84.8185
85.3792 101.401 85.0778
86.5438 101.541 85.2395
87.2453 103.251 84.8427
88.0985 101.947 85.7167
88.8661 103.926 85.3056
89.3669 102.548 86.3703
90.1948 104.283 85.8953
90.8083 103.435 86.7512
83.1126 102.952 84.1418
81.3982 103.02 84.6939
82.4477 101.717 85.0499
84.2764 104.031 83.5266
86.3006 104.286 83.8925
88.1971 104.904 84.3045
90.0552 105.678 85.0769
91.5491 105.642 85.8324
82.0149 104.564 83.5536
80.3504 104.949 84.4462
92.6438 107.295 85.7931
80.9697 106.491 83.4259
79.8313 107.992 84.2144
93.529 108.224 86.0213
79.8209 110.138 85.3209
94.4227 109.104 85.4596
95.4445 110.098 84.9623
96.5173 111.53 84.2982
97.6025 113.347 84.5259
97.6502 112.505 85.5573
80.4061 111.74 85.5291
98.1491 114.632 84.4807
98.5422 114.491 86.3257
81.5064 113.043 86.0108
99.0994 116.055 85.2782
100.513 117.806 86.386
81.8779 114.932 85.216
83.8894 115.684 86.0103
101.406 120.008 87.4763
86.0874 116.276 86.3028
86.8852 117.284 85.1732
88.9318 117.381 85.5441
87.9606 116.247 86.1905
90.7043 117.543 85.8634
89.7242 116.452 86.4997
92.2745 118.361 86.0039
91.4693 116.524 86.8867
94.1743 119.302 86.6976
93.2838 117.637 87.1636
95.823 120.208 87.4767
95.1343 118.286 87.774
96.6285 118.971 88.3014
100.554 121.51 88.0428
88.4995 118.293 84.5515
90.2236 118.547 84.7991
93.4973 120.404 85.8518
95.1673 121.42 86.5335
97.2831 120.467 88.2735
97.0577 121.883 87.3035
98.8648 122.259 87.5694
98.8351 121.047 88.5935
85.508 100.05 85.6021
83.961 99.093 85.7375
85.0235 98.3362 86.2035
86.6528 98.5523 86.268
87.3952 100.258 86.0225
88.3835 99.049 86.8931
89.0263 100.637 86.7106
90.4401 99.8981 87.8577
90.1712 101.625 87.0531
91.3364 101.663 87.6408
83.3527 100.4 85.4269
81.44 100.675 86.0849
82.3756 99.1023 86.023
91.8849 103.752 87.1072
80.6284 102.415 86.0151
92.6332 104.83 86.8258
93.0265 106.206 86.6467
93.5008 105.083 87.6087
80.3817 104.361 85.9058
80.5597 104.859 87.0471
80.6984 103.419 86.9885
93.5239 107.698 87.0698
93.4779 106.743 87.8196
80.0062 106.261 85.4694
80.402 106.432 87.0272
94.5055 108.73 86.8703
94.5432 108.895 88.2655
79.9956 108.227 86.0805
80.7718 107.881 87.573
95.6989 109.656 87.1665
96.6853 110.897 86.0783
97.6554 112.553 86.8445
80.9704 109.629 87.0184
81.7414 111.189 87.1257
98.0375 113.769 87.7364
82.9527 112.494 86.9808
99.6568 116.376 87.1881
98.5694 115.326 88.1636
83.0213 114.196 86.4328
84.6153 114.365 87.0424
93.0124 115.958 87.5561
92.6058 114.634 87.9201
91.5212 114.77 87.4983
94.8018 116.584 87.9026
93.6895 114.959 88.2548
96.7877 117.285 88.5974
95.4141 115.423 88.5267
98.8859 117.475 88.5945
97.1479 115.688 88.7803
100.345 118.367 87.9065
85.6974 115.161 86.9413
87.5015 114.944 86.9164
89.6484 115.11 87.1135
98.2371 119.033 88.7758
100.005 119.702 88.7261
86.4253 95.3745 87.9554
84.8541 94.9133 87.9078
85.608 93.6137 88.6878
87.7955 94.5066 88.7227
88.2337 96.257 87.9658
89.1795 95.5859 88.9404
89.8284 97.185 88.5316
90.7784 96.3159 89.4342
84.524 96.1888 87.2583
82.7592 96.7815 87.6646
83.6076 95.3388 87.8504
85.6669 97.2167 87.0841
87.2774 97.3449 87.2995
89.1149 98.1063 87.6893
91.411 97.7869 89.146
90.7505 98.6979 88.5941
92.6123 99.2213 89.3524
83.4121 97.7382 86.6456
81.6604 98.6117 87.3821
92.1141 100.595 88.4748
92.4992 102.43 87.9716
93.3499 101.582 88.6236
81.0236 100.358 87.9198
92.9857 103.763 87.6631
93.6622 103.244 88.5292
80.7023 101.99 87.619
80.7569 103.221 88.3343
81.0689 101.419 89.1358
93.4059 104.944 88.664
80.9577 104.761 88.4482
93.1053 107.317 88.5036
81.2761 106.183 88.4981
93.1699 108.856 88.9532
81.763 107.337 88.6565
95.725 110.72 89.1344
94.0976 110.244 89.5523
96.7694 111.031 87.6444
81.7705 108.853 88.3098
83.9096 111.377 87.8652
82.7689 109.95 88.3925
84.2243 110.25 88.7566
94.3581 112.194 89.445
93.3144 111.008 89.6188
92.6215 111.805 89.2984
96.0813 112.681 89.432
97.0827 112.352 88.4853
84.4844 112.898 87.3513
85.3683 110.839 88.3137
85.9916 112.348 87.8411
86.7335 111.104 88.0248
92.5446 113.209 88.4705
91.6066 112.035 88.8034
90.7626 112.257 88.2671
94.2524 113.963 88.7544
95.7296 114.053 89.2796
97.221 114.048 88.8904
86.3103 113.745 87.4375
87.6051 112.183 87.7094
88.365 113.571 87.4476
90.3808 113.554 87.6291
89.1131 112.095 87.7621
84.0468 94.1544 88.4352
82.8441 95.0495 88.8034
83.6094 93.1738 89.3492
85.1894 91.8844 89.5916
87.3696 93.0071 89.3508
89.802 94.3094 89.7061
91.6814 95.9883 90.18
82.1064 96.8268 88.909
92.7975 97.6518 89.7761
94.7245 98.5519 90.3102
81.597 98.494 89.3286
93.8923 100.337 89.3651
94.2709 101.948 89.6174
81.7463 99.9682 90.4105
93.5842 103.328 89.7367
81.5456 103.135 89.6158
81.9361 101.767 90.5603
92.8656 105.147 89.2687
82.134 104.565 89.7617
92.1955 106.496 89.0269
91.974 105.132 89.6446
91.1998 106.226 89.5026
82.3494 106.017 89.651
91.9742 107.936 89.0085
90.9145 107.701 89.3105
82.5587 106.952 89.3979
82.437 107.956 88.8942
83.2424 107.471 89.488
92.1434 109.901 89.0798
90.7842 109.004 89.1557
83.1306 108.637 89.1356
85.111 109.871 88.9309
84.5175 108.932 89.2205
85.7681 109.103 88.9471
90.9082 110.72 88.9732
89.6236 108.794 89.3214
89.3141 109.688 88.913
88.1055 110.818 88.0125
86.7195 109.835 88.4775
89.4977 110.957 88.4274
88.092 109.459 88.6671
87.1302 91.5626 90.2586
85.0241 90.9034 91.048
87.2753 90.4737 91.2759
89.3365 91.3948 90.9748
89.1332 92.6523 90.0632
91.0586 92.7324 91.2684
90.4458 93.4457 90.5027
91.9097 94.0534 90.9738
82.7704 94.6594 90.3877
83.5881 92.2743 90.8444
92.4046 95.3323 90.8149
93.5451 96.8405 90.5317
95.1243 96.4634 91.2001
82.3034 96.514 90.5599
96.2087 98.2672 91.5092
82.3466 97.8281 91.3365
94.8408 100.545 90.4338
94.7337 99.9408 91.7999
83.0704 99.1911 92.0283
93.6456 101.895 91.0029
92.8808 101.136 91.8802
82.9795 103.069 90.8427
82.9553 101.002 91.6676
91.9868 102.999 91.1483
91.4608 101.702 91.5329
90.5862 102.71 91.1153
92.6001 103.763 90.2258
83.5201 104.804 90.3766
84.2265 102.689 91.549
84.9815 104.278 90.8312
86.7463 104.334 90.9308
85.7896 102.922 91.5695
88.5123 104.308 91.0158
87.4385 102.771 91.4623
90.3176 104.196 90.7778
89.1513 102.729 91.2326
91.3478 104.639 90.1233
83.457 106.456 90.0709
84.7427 106.064 90.3102
86.224 105.858 90.5561
87.6888 105.723 90.6706
89.1793 105.8 90.516
90.4047 105.98 90.1404
84.2095 107.506 89.7835
85.6113 107.54 89.7909
87.0345 107.09 90.1346
88.4033 107.017 90.4044
89.7195 107.513 89.9686
86.9217 108.342 89.1655
88.2973 108.199 89.5485
85.5405 90.2035 92.3069
87.5232 89.5772 92.0348
89.5195 90.2469 91.7472
91.4923 91.538 91.9723
93.2564 93.1978 92.177
93.7701 94.7767 91.3895
95.3869 94.7518 92.13
83.3556 93.6559 91.9544
84.1987 91.9566 92.8143
96.7786 96.6315 92.2156
83.2321 95.7525 92.1951
84.2899 94.1806 93.1103
94.8811 98.0948 93.1657
83.7523 97.3377 92.8222
93.0632 99.5361 92.5632
84.281 98.6698 93.0558
84.4304 100.195 92.6599
85.5216 98.9544 93.2338
90.0329 100.246 92.0067
89.937 98.973 92.3453
88.7988 99.7298 92.2174
91.5507 100.448 91.9889
91.4264 99.0883 92.4427
84.7581 101.685 92.1443
86.0436 99.8971 92.7199
86.476 101.268 92.153
88.2642 101.179 91.7953
87.4773 99.7695 92.487
89.9443 101.45 91.4374
88.841 88.7496 92.331
86.7533 88.9774 93.008
88.0729 88.0199 93.8172
90.1999 88.3847 93.1781
91.1956 89.8005 92.4079
92.1968 89.2584 93.3659
93.2027 91.3419 92.8238
94.1867 90.7642 93.7933
95.0658 93.0265 93.0152
95.7759 91.9402 93.9555
96.6745 93.3702 93.295
97.2416 92.4435 94.0199
85.5199 90.4467 93.8444
96.9586 94.8453 92.6542
97.6888 94.1862 93.8424
85.282 92.0422 94.4813
95.9659 96.4611 93.7666
96.7432 95.5004 94.0183
84.9746 95.8863 93.7583
85.5179 93.7853 94.2292
91.7443 96.5027 93.5147
91.6817 95.0175 94.3223
90.2273 95.8699 93.8484
93.3215 97.1993 93.5206
93.7854 95.9138 94.0001
95.4267 95.4248 94.5151
85.5024 97.5117 93.5338
86.6773 95.3662 94.1794
87.2337 96.9823 93.7041
89.3305 96.9156 93.3266
88.4088 95.7415 94.0776
90.6522 98.0113 92.9581
92.6235 98.122 93.0248
86.8745 98.3953 93.0531
88.5964 98.2252 92.7022
93.2265 89.0932 94.2806
91.7088 88.0797 94.3121
92.6641 87.5148 95.1345
94.0246 88.3471 95.0433
94.4942 89.7334 94.5138
95.1275 89.2225 95.1218
86.4943 89.135 94.7402
87.777 88.0594 95.5356
89.8402 87.8305 94.5241
95.7284 90.6077 94.5135
97.4594 90.9464 94.9123
98.347 92.7212 94.4874
98.6914 91.3997 95.1275
86.2678 91.0025 95.5031
97.8688 93.9378 95.2774
98.677 92.7927 95.5713
86.6963 92.5139 95.4905
96.9837 92.8228 96.1585
96.3763 94.4338 95.0648
87.3469 93.6525 95.2362
87.6938 94.5324 94.587
89.648 94.9415 94.4903
89.5493 94.2652 95.4909
91.2928 94.0414 95.6286
92.8578 94.0304 94.9459
94.4288 94.472 94.9123
91.0374 87.6206 95.7145
92.4494 87.1181 96.4292
93.9257 87.2793 95.9313
95.2898 88.1274 95.7487
96.2651 89.8546 95.2117
96.5217 89.0581 95.8211
97.1444 89.9209 95.5153
97.9902 89.4486 95.8743
87.2085 89.9362 96.3547
87.9799 88.7668 96.993
89.309 87.812 96.319
99.2905 90.094 95.7527
99.598 91.567 95.8374
100.416 90.4223 96.1148
100.645 91.4034 96.4731
101.442 90.4354 96.842
88.0012 91.7606 96.5275
88.5277 90.4673 97.4151
98.5968 92.3372 96.5117
99.6088 91.9002 96.984
101.054 91.2723 97.4754
88.3618 93.1683 96.0553
89.8042 91.6123 97.0984
90.0196 93.1053 96.5673
92.1357 93.1947 96.2295
91.3949 92.363 96.9603
93.8917 93.1288 95.9277
93.1934 92.0169 96.7251
95.4313 93.385 95.6792
95.1319 92.256 96.5309
96.6066 91.9031 97.1096
98.1989 91.9473 97.3847
99.8553 91.6421 97.9455
91.1688 87.4642 97.2362
92.6778 87.1026 97.4168
93.906 87.0978 97.1294
95.3851 87.3128 96.7235
96.7587 88.1876 96.3424
98.0043 88.2313 96.7699
88.6912 88.6406 98.0019
89.8187 87.7384 97.9581
99.579 88.5868 96.7752
100.899 89.5005 96.9155
101.834 90.2153 97.7135
89.1556 89.7122 98.5339
101.052 91.0532 98.3424
89.9619 90.717 98.1796
91.4414 91.3996 97.8138
92.9263 91.2097 97.6916
92.3174 90.6877 98.6339
94.2951 91.2019 97.4416
95.5847 91.2655 97.5044
96.9821 91.3319 97.9324
98.1248 91.2313 98.3023
99.3782 91.1693 98.5875
93.6869 90.819 98.448
95.0275 90.8047 98.3451
96.2522 90.9099 98.4345
97.2633 91.0195 98.7446
92.3498 87.1594 98.0573
93.5915 87.1062 98.1814
95.1489 87.1738 98.0417
96.7086 87.3587 97.3797
89.7099 88.5747 99.077
91.0469 87.7469 98.7864
92.4761 87.3824 98.9286
94.2885 87.4106 99.1541
96.3951 87.3125 98.5945
98.1987 87.5676 97.9231
99.6166 87.815 98.1094
100.832 88.5552 97.9453
101.683 89.275 98.163
101.93 90.379 98.7949
101.708 89.4991 99.2393
89.9845 89.839 99.2901
90.6277 88.8951 99.992
100.656 90.8703 99.1599
101.216 90.2871 99.651
90.981 90.4572 99.1017
92.005 90.2902 99.6985
98.7238 90.6049 99.7423
98.0189 90.8649 99.271
99.8233 90.5502 99.6124
93.0912 90.4243 99.3785
94.3896 90.5277 99.3423
95.6426 90.6436 99.3618
96.8375 90.7604 99.4732
91.6236 88.055 100.166
93.0587 87.7888 100.256
94.4403 87.7593 100.142
95.651 87.6088 99.604
97.2296 87.6519 99.2601
98.6295 87.6902 99.0462
100.092 88.0266 98.9976
101.238 88.6194 99.0266
101.298 89.2859 99.9954
91.3926 89.4796 100.294
92.3542 88.7372 100.964
93.7999 88.466 100.893
100.436 89.9867 100.084
92.4824 89.9066 100.693
93.5479 89.5317 101.109
98.2221 90.1862 100.549
97.5032 90.5473 100.185
99.3369 90.0752 100.389
93.7077 90.2771 100.364
95.0621 90.4211 100.257
96.3132 90.5099 100.429
95.3052 88.2469 100.56
96.5937 88.0871 100.267
97.8974 88.0708 99.9945
99.228 88.3481 99.8858
100.526 88.5964 99.7305
94.8269 89.2201 101.041
96.1189 88.9979 100.841
97.294 88.796 100.592
98.4514 89.1456 100.565
99.9464 89.1046 100.387
94.5305 90.0085 100.957
95.7198 89.9756 100.979
97.0566 89.8023 100.904
POLYGONS 1324  5296
3 0 1 2
3 0 3 4
3 2 3 0
3 3 5 4
3 6 7 8
3 1 6 8
3 1 0 6
3 0 9 6
3 4 10 0
3 10 9 0
3 11 4 5
3 11 12 4
3 12 10 4
3 12 13 14
3 11 13 12
3 13 15 14
3 16 7 6
3 17 7 16
3 9 18 6
3 18 16 6
3 10 19 9
3 19 18 9
3 12 20 10
3 20 19 10
3 14 21 12
3 21 20 12
3 22 14 15
3 21 14 22
3 23 17 16
3 24 17 23
3 18 25 16
3 25 23 16
3 19 26 18
3 26 25 18
3 20 27 19
3 27 26 19
3 21 28 20
3 28 27 20
3 29 21 22
3 28 21 29
3 23 30 24
3 25 30 23
3 31 30 25
3 26 31 25
3 32 31 26
3 27 32 26
3 33 32 27
3 28 33 27
3 34 33 28
3 29 34 28
3 35 36 37
3 35 2 1
3 35 37 2
3 37 38 2
3 3 2 39
3 2 38 39
3 5 40 41
3 5 3 40
3 3 39 40
3 40 42 41
3 8 36 35
3 8 7 36
3 7 43 36
3 1 8 35
3 5 41 11
3 41 42 44
3 41 44 11
3 11 44 13
3 44 15 13
3 45 15 44
3 7 17 43
3 43 17 46
3 15 45 22
3 45 47 22
3 17 24 46
3 46 24 48
3 22 47 29
3 47 49 29
3 24 50 48
3 30 50 24
3 31 51 30
3 30 51 50
3 32 52 31
3 31 52 51
3 33 53 32
3 32 53 52
3 34 54 33
3 33 54 53
3 49 34 29
3 54 34 49
3 55 56 57
3 55 58 59
3 57 58 55
3 58 60 59
3 61 56 55
3 62 56 61
3 59 63 55
3 63 61 55
3 64 59 60
3 64 65 59
3 65 63 59
3 64 66 65
3 67 68 69
3 62 67 69
3 61 67 62
3 61 36 67
3 61 37 36
3 38 37 61
3 63 38 61
3 39 38 63
3 65 39 63
3 65 66 70
3 65 70 39
3 39 70 40
3 42 71 72
3 42 40 71
3 40 70 71
3 71 73 72
3 74 68 67
3 75 68 74
3 36 43 74
3 67 36 74
3 42 72 44
3 72 45 44
3 72 73 45
3 73 76 45
3 77 75 74
3 78 75 77
3 43 46 77
3 74 43 77
3 79 80 47
3 79 47 76
3 76 47 45
3 79 81 80
3 77 82 78
3 82 77 46
3 82 46 83
3 83 46 48
3 80 84 49
3 47 80 49
3 85 80 81
3 84 80 85
3 48 86 83
3 50 86 48
3 51 87 50
3 50 87 86
3 52 88 51
3 51 88 87
3 53 89 52
3 52 89 88
3 54 90 53
3 53 90 89
3 84 54 49
3 84 91 54
3 91 90 54
3 85 91 84
3 92 93 94
3 92 95 96
3 94 95 92
3 96 97 98
3 95 97 96
3 97 99 98
3 100 101 102
3 93 100 102
3 92 100 93
3 92 56 100
3 92 57 56
3 58 57 92
3 96 58 92
3 60 58 96
3 60 96 103
3 103 96 98
3 104 98 99
3 104 105 98
3 105 103 98
3 105 106 107
3 104 106 105
3 106 108 107
3 109 110 111
3 101 109 111
3 101 100 109
3 100 112 109
3 56 62 112
3 100 56 112
3 60 103 64
3 66 64 103
3 66 103 113
3 113 103 105
3 107 114 105
3 114 113 105
3 115 107 108
3 114 107 115
3 116 110 109
3 117 110 116
3 69 68 116
3 69 116 112
3 112 116 109
3 62 69 112
3 66 113 70
3 71 70 113
3 114 71 113
3 73 118 119
3 71 118 73
3 71 115 118
3 71 114 115
3 119 120 121
3 118 120 119
3 120 122 121
3 116 123 117
3 123 116 68
3 123 68 124
3 124 68 75
3 119 125 76
3 73 119 76
3 121 126 119
3 126 125 119
3 127 121 122
3 126 121 127
3 75 78 124
3 124 78 128
3 76 125 79
3 81 79 125
3 81 125 129
3 129 125 126
3 130 126 127
3 129 126 130
3 78 131 128
3 82 131 78
3 131 82 83
3 132 131 83
3 129 133 85
3 81 129 85
3 134 129 130
3 133 129 134
3 83 135 132
3 86 135 83
3 87 136 86
3 86 136 135
3 88 137 87
3 87 137 136
3 89 138 88
3 88 138 137
3 90 139 89
3 89 139 138
3 91 140 90
3 90 140 139
3 133 91 85
3 133 141 91
3 141 140 91
3 134 141 133
3 142 143 144
3 142 145 146
3 144 145 142
3 146 147 148
3 145 147 146
3 148 149 150
3 147 149 148
3 149 151 150
3 152 143 142
3 153 143 152
3 94 93 152
3 94 152 146
3 146 152 142
3 95 94 146
3 148 95 146
3 97 95 148
3 150 97 148
3 150 99 97
3 150 151 99
3 151 154 99
3 155 156 157
3 153 155 157
3 152 155 153
3 152 101 155
3 152 102 101
3 93 102 152
3 99 154 158
3 104 99 158
3 106 104 159
3 104 158 159
3 159 108 106
3 160 108 159
3 111 156 155
3 111 110 156
3 110 161 156
3 101 111 155
3 108 160 115
3 160 162 115
3 110 117 161
3 161 117 163
3 115 162 164
3 118 115 164
3 120 118 165
3 118 164 165
3 165 122 120
3 166 122 165
3 117 167 163
3 123 167 117
3 167 123 124
3 168 167 124
3 122 166 127
3 166 169 127
3 124 128 168
3 168 128 170
3 127 169 130
3 169 171 130
3 128 172 170
3 131 172 128
3 172 131 132
3 173 172 132
3 174 175 176
3 175 174 177
3 130 171 134
3 171 178 134
3 132 179 173
3 135 179 132
3 136 180 135
3 135 180 179
3 176 137 174
3 176 180 137
3 180 136 137
3 174 181 177
3 174 137 181
3 137 138 181
3 139 182 138
3 138 182 181
3 140 183 139
3 139 183 182
3 141 184 140
3 140 184 183
3 178 141 134
3 184 141 178
3 185 186 187
3 185 188 189
3 187 188 185
3 189 190 191
3 188 190 189
3 191 192 193
3 190 192 191
3 192 194 193
3 195 196 197
3 186 195 197
3 186 185 195
3 185 198 195
3 189 199 185
3 199 198 185
3 191 200 189
3 200 199 189
3 193 201 191
3 201 200 191
3 202 193 194
3 201 193 202
3 203 196 195
3 204 196 203
3 144 143 203
3 144 203 198
3 198 203 195
3 145 144 198
3 199 145 198
3 147 145 199
3 200 147 199
3 149 147 200
3 201 149 200
3 201 151 149
3 201 202 151
3 202 205 151
3 206 204 203
3 207 204 206
3 143 153 206
3 203 143 206
3 151 205 154
3 205 208 154
3 157 207 206
3 157 156 207
3 156 209 207
3 153 157 206
3 154 208 210
3 158 154 210
3 159 158 211
3 158 210 211
3 160 212 213
3 160 159 212
3 159 211 212
3 212 214 213
3 156 161 209
3 209 161 215
3 213 216 162
3 160 213 162
3 217 213 214
3 216 213 217
3 161 163 215
3 215 163 218
3 162 216 164
3 216 217 219
3 216 219 164
3 164 219 165
3 219 166 165
3 220 166 219
3 163 221 218
3 167 221 163
3 221 167 168
3 222 221 168
3 166 220 169
3 220 223 169
3 224 170 225
3 224 222 170
3 222 168 170
3 225 226 227
3 224 225 227
3 226 228 229
3 227 226 229
3 228 230 231
3 229 228 231
3 230 232 233
3 231 230 233
3 232 234 235
3 233 232 235
3 235 234 236
3 169 223 171
3 223 237 171
3 170 172 225
3 173 225 172
3 173 238 225
3 238 226 225
3 228 226 239
3 239 226 238
3 175 239 176
3 175 230 239
3 230 228 239
3 177 230 175
3 177 240 230
3 240 232 230
3 234 232 241
3 241 232 240
3 242 236 234
3 242 234 243
3 243 234 241
3 243 244 245
3 242 243 245
3 244 237 245
3 244 178 237
3 178 171 237
3 173 179 238
3 180 238 179
3 239 238 180
3 176 239 180
3 177 181 240
3 182 240 181
3 241 240 182
3 183 241 182
3 243 241 183
3 184 243 183
3 244 243 184
3 178 244 184
3 246 247 248
3 246 249 250
3 248 249 246
3 250 251 252
3 249 251 250
3 252 253 254
3 251 253 252
3 253 255 254
3 256 257 258
3 247 256 258
3 246 256 247
3 246 186 256
3 246 187 186
3 188 187 246
3 250 188 246
3 190 188 250
3 252 190 250
3 192 190 252
3 254 192 252
3 254 194 192
3 254 255 194
3 255 259 194
3 197 257 256
3 197 196 257
3 196 260 257
3 186 197 256
3 261 262 202
3 261 202 259
3 259 202 194
3 261 263 262
3 264 265 266
3 264 266 260
3 264 260 204
3 204 260 196
3 262 267 205
3 202 262 205
3 268 262 263
3 267 262 268
3 269 265 264
3 270 265 269
3 204 207 269
3 264 204 269
3 267 271 208
3 205 267 208
3 272 267 268
3 271 267 272
3 273 270 269
3 274 270 273
3 207 209 273
3 269 207 273
3 208 271 210
3 271 272 275
3 271 275 210
3 210 275 211
3 212 211 276
3 211 275 276
3 276 214 212
3 277 214 276
3 273 278 274
3 278 273 209
3 278 209 279
3 279 209 215
3 214 277 217
3 277 280 217
3 215 218 279
3 279 218 281
3 282 219 217
3 282 217 283
3 283 217 280
3 219 282 220
3 218 284 281
3 221 284 218
3 284 221 222
3 285 284 222
3 286 287 288
3 286 289 290
3 287 286 290
3 289 291 292
3 290 289 292
3 291 293 294
3 292 291 294
3 283 294 293
3 283 293 282
3 282 293 295
3 220 295 223
3 282 295 220
3 222 296 285
3 224 296 222
3 227 297 224
3 224 297 296
3 229 298 227
3 227 298 297
3 288 231 286
3 288 298 231
3 298 229 231
3 233 286 231
3 289 286 233
3 235 289 233
3 291 289 235
3 236 291 235
3 236 299 291
3 299 293 291
3 295 293 300
3 300 293 299
3 223 300 237
3 295 300 223
3 236 242 299
3 245 299 242
3 300 299 245
3 237 300 245
3 301 302 303
3 301 304 305
3 303 304 301
3 305 306 307
3 304 306 305
3 306 308 307
3 309 310 311
3 302 309 311
3 302 301 309
3 301 312 309
3 305 313 301
3 313 312 301
3 307 314 305
3 314 313 305
3 315 307 308
3 315 316 307
3 316 314 307
3 315 317 316
3 318 310 309
3 319 310 318
3 248 247 318
3 248 318 312
3 312 318 309
3 249 248 312
3 313 249 312
3 251 249 313
3 314 251 313
3 253 251 314
3 316 253 314
3 255 320 321
3 253 320 255
3 253 317 320
3 253 316 317
3 320 322 321
3 258 319 318
3 258 257 319
3 257 323 319
3 247 258 318
3 321 324 259
3 255 321 259
3 325 321 322
3 324 321 325
3 326 327 328
3 326 328 323
3 326 323 260
3 260 323 257
3 259 324 261
3 324 263 261
3 324 325 263
3 325 329 263
3 266 327 326
3 266 265 327
3 265 330 327
3 260 266 326
3 263 329 268
3 329 331 268
3 265 270 330
3 330 270 332
3 268 331 272
3 331 333 272
3 270 274 332
3 332 274 334
3 335 275 272
3 335 272 336
3 336 272 333
3 275 337 276
3 335 337 275
3 276 337 277
3 274 338 334
3 278 338 274
3 279 339 340
3 279 340 278
3 278 340 338
3 340 339 341
3 342 343 344
3 336 343 342
3 336 342 335
3 335 342 345
3 337 335 346
3 346 335 345
3 277 346 280
3 337 346 277
3 339 281 347
3 279 281 339
3 348 341 339
3 348 339 349
3 349 339 347
3 348 349 350
3 351 352 353
3 344 352 351
3 344 351 342
3 342 351 354
3 345 342 355
3 355 342 354
3 346 345 356
3 356 345 355
3 280 356 283
3 346 356 280
3 281 284 347
3 285 347 284
3 285 357 347
3 357 349 347
3 358 350 349
3 358 349 359
3 359 349 357
3 359 360 361
3 358 359 361
3 353 361 360
3 351 353 360
3 351 360 288
3 351 288 287
3 290 351 287
3 354 351 290
3 292 354 290
3 355 354 292
3 294 355 292
3 356 355 294
3 283 356 294
3 285 296 357
3 297 357 296
3 359 357 297
3 298 359 297
3 360 359 298
3 288 360 298
3 362 363 364
3 362 303 302
3 362 364 303
3 364 365 303
3 304 303 366
3 303 365 366
3 306 304 367
3 304 366 367
3 367 308 306
3 368 308 367
3 311 363 362
3 311 310 363
3 310 369 363
3 302 311 362
3 308 368 370
3 315 308 370
3 370 317 315
3 371 317 370
3 310 319 369
3 369 319 372
3 317 371 373
3 320 317 373
3 373 322 320
3 374 322 373
3 319 323 372
3 372 323 375
3 322 374 325
3 374 376 325
3 328 377 378
3 327 377 328
3 375 323 328
3 378 375 328
3 325 376 329
3 376 379 329
3 327 330 377
3 377 330 380
3 381 382 383
3 381 379 382
3 381 331 379
3 331 329 379
3 330 332 380
3 380 332 384
3 385 381 383
3 386 385 383
3 331 385 333
3 381 385 331
3 387 334 388
3 387 384 334
3 384 332 334
3 387 388 389
3 390 385 386
3 391 390 386
3 333 390 336
3 385 390 333
3 334 338 388
3 388 392 389
3 388 338 392
3 338 340 392
3 341 393 394
3 341 394 340
3 340 394 392
3 394 393 395
3 396 397 398
3 391 397 396
3 390 391 396
3 390 396 344
3 390 344 343
3 336 390 343
3 341 348 393
3 350 399 400
3 348 350 400
3 348 400 395
3 348 395 393
3 399 401 402
3 400 399 402
3 398 402 401
3 396 398 401
3 396 401 353
3 396 353 352
3 344 396 352
3 350 358 399
3 361 399 358
3 401 399 361
3 353 401 361
3 403 404 405
3 403 406 407
3 405 406 403
3 407 408 409
3 406 408 407
3 408 410 409
3 364 411 412
3 363 411 364
3 404 403 365
3 404 365 412
3 412 365 364
3 366 365 403
3 407 366 403
3 367 366 407
3 409 367 407
3 368 413 414
3 367 413 368
3 367 410 413
3 367 409 410
3 413 415 414
3 363 369 411
3 411 369 416
3 368 414 370
3 414 371 370
3 414 415 371
3 415 417 371
3 369 372 416
3 416 372 418
3 419 373 371
3 419 371 420
3 420 371 417
3 373 419 374
3 372 375 418
3 418 375 421
3 422 419 420
3 423 422 420
3 374 422 376
3 419 422 374
3 378 377 424
3 378 424 425
3 378 425 375
3 375 425 421
3 426 427 428
3 423 427 426
3 423 426 422
3 422 426 429
3 376 429 379
3 422 429 376
3 424 380 430
3 377 380 424
3 431 425 424
3 431 424 432
3 432 424 430
3 432 433 434
3 431 432 434
3 433 435 436
3 434 433 436
3 435 437 438
3 436 435 438
3 428 438 437
3 428 437 426
3 426 437 439
3 382 439 383
3 382 429 439
3 429 426 439
3 379 429 382
3 430 384 440
3 380 384 430
3 432 430 441
3 441 430 440
3 433 432 442
3 442 432 441
3 435 433 443
3 443 433 442
3 437 435 444
3 444 435 443
3 439 437 445
3 445 437 444
3 383 445 386
3 439 445 383
3 384 387 440
3 389 440 387
3 389 446 440
3 446 441 440
3 442 441 447
3 447 441 446
3 443 442 448
3 448 442 447
3 444 443 449
3 449 443 448
3 445 444 450
3 450 444 449
3 386 450 391
3 445 450 386
3 389 392 446
3 394 446 392
3 447 446 394
3 395 447 394
3 395 451 447
3 451 448 447
3 449 448 452
3 452 448 451
3 397 452 398
3 397 450 452
3 450 449 452
3 391 450 397
3 395 400 451
3 402 451 400
3 452 451 402
3 398 452 402
3 405 453 454
3 404 453 405
3 406 405 455
3 405 454 455
3 408 406 456
3 406 455 456
3 410 457 458
3 410 408 457
3 408 456 457
3 457 459 458
3 412 411 460
3 412 460 461
3 412 461 404
3 404 461 453
3 410 458 413
3 458 415 413
3 458 459 415
3 459 462 415
3 460 463 464
3 460 411 463
3 411 416 463
3 461 460 464
3 415 462 417
3 462 465 417
3 416 418 463
3 463 418 466
3 417 465 420
3 465 467 420
3 468 421 469
3 468 466 421
3 466 418 421
3 468 469 470
3 471 472 473
3 471 474 475
3 472 471 475
3 474 467 475
3 474 423 467
3 423 420 467
3 469 425 476
3 421 425 469
3 477 470 469
3 477 469 478
3 478 469 476
3 478 479 480
3 477 478 480
3 473 480 479
3 473 479 471
3 471 479 481
3 427 481 428
3 427 474 481
3 474 471 481
3 423 474 427
3 425 431 476
3 434 476 431
3 478 476 434
3 436 478 434
3 479 478 436
3 438 479 436
3 481 479 438
3 428 481 438
3 482 483 484
3 482 485 486
3 484 485 482
3 486 487 488
3 485 487 486
3 488 489 490
3 487 489 488
3 490 491 492
3 489 491 490
3 491 493 492
3 454 483 482
3 454 453 483
3 453 494 483
3 455 454 482
3 486 455 482
3 456 455 486
3 488 456 486
3 457 456 488
3 490 457 488
3 459 457 490
3 459 490 495
3 495 490 492
3 496 492 493
3 495 492 496
3 453 461 494
3 494 461 497
3 495 498 462
3 459 495 462
3 499 495 496
3 498 495 499
3 464 463 500
3 464 500 501
3 464 501 461
3 461 501 497
3 502 503 504
3 502 505 506
3 503 502 506
3 498 507 506
3 498 506 465
3 498 465 462
3 465 506 505
3 499 507 498
3 500 466 508
3 463 466 500
3 509 501 500
3 509 500 510
3 510 500 508
3 510 511 512
3 509 510 512
3 504 512 511
3 504 511 502
3 502 511 513
3 505 502 514
3 514 502 513
3 465 514 467
3 505 514 465
3 466 468 508
3 470 508 468
3 470 515 508
3 515 510 508
3 511 510 516
3 516 510 515
3 472 516 473
3 472 513 516
3 513 511 516
3 475 513 472
3 514 513 475
3 467 514 475
3 470 477 515
3 480 515 477
3 516 515 480
3 473 516 480
3 517 518 519
3 517 520 521
3 519 520 517
3 520 522 521
3 484 523 524
3 483 523 484
3 485 484 525
3 484 524 525
3 518 517 487
3 518 487 525
3 525 487 485
3 489 487 517
3 521 489 517
3 521 522 526
3 521 526 489
3 489 526 491
3 493 527 528
3 493 491 527
3 491 526 527
3 527 529 528
3 483 494 523
3 523 494 530
3 528 531 496
3 493 528 496
3 532 528 529
3 531 528 532
3 494 497 530
3 530 497 533
3 531 534 535
3 531 535 496
3 496 535 499
3 532 534 531
3 536 501 537
3 536 533 501
3 533 497 501
3 537 538 539
3 536 537 539
3 538 504 503
3 538 503 539
3 539 503 540
3 506 541 503
3 503 541 540
3 507 542 506
3 506 542 541
3 535 507 499
3 542 507 535
3 501 509 537
3 512 537 509
3 538 537 512
3 504 538 512
3 519 543 544
3 518 543 519
3 520 519 545
3 519 544 545
3 522 546 547
3 522 520 546
3 520 545 546
3 547 548 549
3 546 548 547
3 548 550 549
3 524 523 551
3 552 524 551
3 552 553 524
3 553 525 524
3 543 518 525
3 553 543 525
3 522 547 526
3 527 526 547
3 549 527 547
3 529 554 555
3 527 554 529
3 527 550 554
3 527 549 550
3 555 556 557
3 554 556 555
3 556 558 557
3 551 530 559
3 523 530 551
3 560 552 551
3 559 560 551
3 555 561 532
3 529 555 532
3 557 562 555
3 562 561 555
3 563 557 558
3 562 557 563
3 559 533 564
3 530 533 559
3 565 560 559
3 565 559 566
3 566 559 564
3 566 567 568
3 565 566 568
3 567 569 570
3 568 567 570
3 569 571 572
3 570 569 572
3 571 535 534
3 571 534 572
3 572 534 573
3 561 534 532
3 561 574 534
3 574 573 534
3 562 574 561
3 575 574 562
3 563 575 562
3 533 536 564
3 539 564 536
3 566 564 539
3 540 566 539
3 567 566 540
3 541 567 540
3 569 567 541
3 542 569 541
3 571 569 542
3 535 571 542
3 544 576 577
3 543 576 544
3 545 544 578
3 544 577 578
3 546 545 579
3 545 578 579
3 548 546 580
3 546 579 580
3 580 550 548
3 581 550 580
3 553 582 583
3 552 582 553
3 576 543 553
3 583 576 553
3 550 581 584
3 554 550 584
3 556 554 585
3 554 584 585
3 585 558 556
3 586 558 585
3 552 560 582
3 582 560 587
3 558 586 563
3 586 588 563
3 560 589 587
3 565 589 560
3 568 590 565
3 565 590 589
3 591 592 590
3 591 590 570
3 570 590 568
3 570 572 593
3 591 570 593
3 572 573 594
3 593 572 594
3 573 574 595
3 594 573 595
3 596 595 574
3 596 574 597
3 597 574 575
3 588 575 563
3 597 575 588
3 591 598 592
3 593 598 591
3 599 598 593
3 594 599 593
3 600 599 594
3 595 600 594
3 601 600 595
3 596 601 595
3 577 576 602
3 577 603 578
3 602 603 577
3 578 604 579
3 603 604 578
3 579 605 580
3 604 605 579
3 580 605 581
3 583 582 606
3 583 606 607
3 576 583 607
3 576 607 608
3 576 608 602
3 603 602 608
3 609 603 608
3 604 603 609
3 610 604 609
3 605 604 610
3 611 605 610
3 581 605 611
3 581 611 584
3 584 611 612
3 585 584 613
3 584 612 613
3 586 614 615
3 586 585 614
3 585 613 614
3 614 616 615
3 606 587 617
3 582 587 606
3 618 607 606
3 617 618 606
3 615 619 588
3 586 615 588
3 620 615 616
3 619 615 620
3 587 589 617
3 617 621 618
3 617 589 621
3 589 590 621
3 621 590 592
3 622 621 592
3 597 623 624
3 596 597 624
3 619 597 588
3 619 625 597
3 625 623 597
3 620 625 619
3 592 626 622
3 598 626 592
3 599 627 598
3 598 627 626
3 600 628 599
3 599 628 627
3 601 629 600
3 600 629 628
3 624 601 596
3 629 601 624
3 608 607 630
3 608 631 609
3 630 631 608
3 632 609 631
3 632 633 609
3 633 610 609
3 611 610 634
3 610 633 634
3 612 611 635
3 611 634 635
3 613 612 636
3 612 635 636
3 614 613 637
3 613 636 637
3 637 616 614
3 638 616 637
3 630 618 639
3 607 618 630
3 631 630 640
3 640 630 639
3 641 632 631
3 640 641 631
3 616 638 620
3 638 642 620
3 618 621 639
3 622 639 621
3 622 643 639
3 643 640 639
3 644 641 640
3 643 644 640
3 623 645 646
3 624 623 646
3 625 647 623
3 623 647 645
3 642 625 620
3 647 625 642
3 622 626 643
3 643 648 644
3 643 626 648
3 626 627 648
3 628 649 627
3 627 649 648
3 629 650 628
3 628 650 649
3 646 629 624
3 650 629 646
3 633 632 651
3 633 652 634
3 651 652 633
3 634 653 635
3 652 653 634
3 635 654 636
3 653 654 635
3 636 655 637
3 654 655 636
3 637 655 638
3 651 641 656
3 632 641 651
3 652 651 657
3 657 651 656
3 653 652 658
3 658 652 657
3 654 653 659
3 659 653 658
3 655 654 660
3 660 654 659
3 638 660 642
3 655 660 638
3 656 644 661
3 641 644 656
3 657 656 662
3 662 656 661
3 658 657 663
3 663 657 662
3 645 663 646
3 645 659 663
3 659 658 663
3 647 659 645
3 660 659 647
3 642 660 647
3 644 648 661
3 649 661 648
3 662 661 649
3 650 662 649
3 663 662 650
3 646 663 650
