# vtk DataFile Version 3.0
this file was written using fslvtkio
ASCII
DATASET POLYDATA
POINTS 732 float
137.932 124.081 79.1582
136.882 122.305 79.57
138.112 122.419 79.2068
139.291 122.74 79.1727
139.437 124.628 79.0694
140.817 123.161 79.2563
140.985 124.841 79.4904
142.167 124.219 79.9329
136.934 124.844 79.3514
135.787 124.199 79.5735
138.445 126.171 79.5204
140.154 126.292 79.8079
142.015 125.709 80.5639
135.791 126.176 79.7443
134.032 125.813 80.7184
134.756 124.789 80.3015
137.12 126.729 79.5339
138.184 127.313 80.5604
139.527 127.082 81.0364
141.109 126.74 80.9889
135.12 127.148 80.6361
133.897 126.86 81.5677
136.775 127.635 80.8149
137.898 127.834 81.9619
138.77 127.122 82.5931
140.517 127.096 81.914
135.112 127.492 81.9947
136.524 127.753 82.4931
138.596 120.84 79.7932
136.891 120.558 80.8571
137.729 119.415 80.9817
139.505 119.468 80.1966
140.43 121.499 79.3078
141.281 120.302 79.7388
142.308 122.539 79.6545
142.887 121.023 79.9726
143.796 122.841 80.4354
144.479 121.656 80.5987
135.98 121.565 80.3121
134.191 121.265 81.5613
135.158 120.372 81.6889
143.562 124.452 80.8312
144.892 123.284 81.7252
134.06 122.481 81.2838
132.387 122.639 82.3929
132.691 121.363 82.5361
135.1 123.306 80.3277
143.178 125.536 81.7298
144.246 124.745 82.1774
133.446 124.047 81.2792
132.133 124.164 82.6639
143.607 125.849 83.1604
142.059 126.47 82.1971
132.931 125.564 81.8478
131.883 125.545 83.0121
137.571 127.443 83.0939
137.465 126.703 84.3407
136.446 127.66 83.6979
139.194 126.748 84.05
140.622 126.818 83.1445
133.303 127.058 82.7462
134.86 127.522 83.538
143.022 118.321 80.2859
141.329 117.285 80.6461
142.401 116.673 81.0086
143.966 117.019 80.7741
144.869 118.69 80.4647
145.642 117.518 80.7977
136.331 117.852 82.4499
135.049 117.106 83.3851
136.279 116.846 83.059
137.484 116.721 82.4515
138.457 118.14 81.2598
139.465 116.939 81.3515
140.749 118.539 80.3887
142.432 119.511 79.9278
144.314 119.981 80.238
146.194 118.938 81.1597
145.796 120.17 81.2708
147.203 119.569 82.0925
134.069 118.557 82.9548
132.47 118.026 84.0147
133.689 117.58 83.5755
135.956 119.099 81.9815
145.679 121.592 81.6313
146.85 121.129 82.5991
131.805 119.536 83.6732
130.161 119.537 84.813
131.083 118.863 84.2727
133.383 120.024 82.6774
145.467 123.124 82.9642
146.21 122.351 83.313
130.985 121.208 83.7531
129.369 121.258 84.9016
145.127 123.416 84.3882
144.465 124.362 83.4765
129.814 122.894 84.9133
128.519 123.469 86.5154
127.99 122.101 85.8773
131.167 122.972 83.559
143.255 125.367 84.5861
142.088 126.403 83.7752
129.717 124.743 85.5568
130.843 124.447 84.2215
130.812 125.878 85.2927
135.942 127.023 84.5509
135.616 126.183 85.1746
134.61 127.16 84.858
137.021 125.675 85.6214
138.595 126.004 85.0909
140.375 126.321 84.5884
131.829 126.408 84.1004
133.21 127.141 84.4061
140.536 114.885 82.2076
139.049 114.422 83.5809
140.261 114.159 83.065
141.54 114.077 82.3886
142.853 115.383 81.3455
143.645 114.44 81.7883
144.965 116.132 81.1723
145.527 115.094 81.8365
146.73 116.644 81.9036
147.209 116.1 82.6756
136.204 115.683 83.6346
134.603 115.153 84.5879
135.866 114.769 84.4896
137.202 114.671 84.1255
138.679 115.477 82.5715
140.588 115.998 81.6
146.859 117.889 81.5641
147.963 118.409 82.7572
133.641 116.616 84.4155
132.177 116.416 85.3286
133.338 115.666 84.9194
147.833 120.161 83.6077
130.862 118.007 85.0037
128.902 118.06 86.4146
130.386 117.037 85.9656
147.075 121.628 83.9566
128.751 119.019 85.855
126.972 120.215 86.9692
127.263 119.212 87.6854
145.971 122.535 84.9085
128.15 120.705 85.9641
126.641 121.972 87.6051
144.437 123.077 85.8986
144.14 124.218 85.0628
127.548 123.473 88.2001
138.216 124.838 85.9455
137.021 123.97 86.8409
136.739 124.844 86.1524
139.937 125.36 85.6103
139.15 124.142 86.4166
141.689 125.796 85.0809
141.285 124.711 85.8452
142.787 124.474 85.8728
128.975 124.511 86.8178
132.163 126.311 85.7464
130.801 125.535 86.6647
133.782 126.629 85.5738
133.477 125.75 86.1934
135.459 125.254 86.0449
140.038 113.426 83.8323
138.464 112.876 85.3554
139.862 112.686 84.6167
141.15 112.47 83.9373
142.287 113.382 82.9468
143.392 112.656 83.2534
144.399 113.657 82.6214
145.845 112.967 83.1491
146.254 114.4 82.6363
147.438 114.631 83.4799
135.819 113.941 85.3905
133.867 113.921 86.047
134.544 113.081 86.5612
136.412 112.811 86.3389
137.826 113.632 84.7604
147.953 116.36 83.7076
133.105 114.797 85.4906
130.984 114.631 86.8858
132.339 114.208 86.8057
148.346 117.704 84.1388
148.4 119.085 84.3439
148.535 117.949 85.7854
130.99 115.818 86.2258
129.088 116.773 87.0858
129.352 115.59 87.8955
147.951 120.159 84.9893
148.286 119.249 86.1141
127.865 118.183 88.1537
147.337 120.381 86.2584
146.882 121.266 85.1687
126.297 120.579 88.5968
127.001 119.412 89.4114
145.649 122 86.1769
126.916 122.43 89.3338
139.881 123.465 86.8865
138.466 122.142 88.0034
138.314 122.972 87.1689
141.481 123.648 86.6661
140.436 122.754 87.4596
143.171 123.613 86.1481
142.458 122.57 87.0908
144.188 122.215 86.8949
128.374 123.684 89.1279
132.443 124.951 86.9956
131.697 124.189 88.3117
130.823 124.875 87.7753
134.196 124.761 87.0393
133.134 123.955 88.1578
135.692 124.422 86.8678
134.858 123.666 87.9156
136.689 123.156 87.5562
129.15 124.648 88.0392
139.812 111.926 85.4533
138.426 111.309 86.8274
139.552 111.02 86.0263
140.769 110.737 85.3193
142.05 111.638 84.4965
143.012 110.756 84.6297
144.225 111.807 83.874
145.334 111.168 84.6369
145.524 112.01 83.8964
146.586 112.451 84.3342
137.777 112.353 86.6991
135.877 111.925 87.6203
137.227 111.744 87.4229
147.638 113.834 84.3289
148.415 115.346 84.8624
148.531 114.587 86.187
132.921 113.512 87.1797
131.22 113.905 88.3287
132.451 112.486 88.1698
134.519 112.29 87.3468
148.465 116.705 85.1818
148.563 116.322 86.6653
129.824 114.794 88.9959
148.287 117.985 87.2201
128.516 117.18 88.9756
129.364 116.388 89.7673
147.488 119.364 87.3627
128.029 118.543 90.018
146.96 120.41 87.2552
146.027 121.079 86.9373
126.795 120.919 90.172
127.933 119.73 90.6823
143.075 121.688 87.9518
141.624 120.686 88.8195
141.528 121.866 88.3229
144.713 121.464 87.3795
143.745 120.867 88.2872
128.278 122.057 90.2828
129.409 122.973 89.4031
131.722 122.978 88.8981
130.36 121.977 89.7106
133.637 122.677 88.774
132.369 121.606 89.3966
135.452 122.517 88.4368
134.093 121.391 89.5314
137.103 122.294 88.002
136.021 121.578 89.1908
137.951 121.406 88.8868
140.042 121.985 88.2326
130.115 123.911 88.728
139.447 110.336 86.9076
138.457 109.901 87.902
139.694 109.427 87.379
140.84 109.319 86.8429
141.748 110.078 85.941
142.85 109.216 86.1331
143.859 110.085 85.2167
144.843 109.37 85.8982
145.244 110.234 85.2947
146.458 110.508 85.7561
136.797 111.091 87.983
135.667 110.593 88.587
137.025 110.321 88.3693
147.178 111.76 85.5284
147.817 113.148 85.5724
148.189 113.021 87.0693
133.802 111.662 88.5715
133.45 111.258 90.1574
134.25 110.791 89.0034
148.697 115.015 87.687
131.365 113.207 89.6871
132.237 112.359 90.0791
148.324 116.836 88.3181
130.581 114.467 90.5262
131.464 113.683 91.2838
147.572 118.37 88.5783
129.188 117.783 90.8474
130.355 116.236 91.1207
146.601 120.071 88.1381
146.671 119.257 88.8984
145.586 119.467 89.2764
129.791 119.516 91.2363
131.06 118.113 91.4139
145.135 120.513 88.261
144.198 119.51 89.3666
143.339 119.885 88.9284
129.048 120.935 90.6235
130.837 120.866 90.3523
132.067 119.195 90.808
132.402 120.253 90.2175
134.693 120.353 89.9104
133.621 119.213 90.3721
136.752 120.443 89.4459
135.576 119.329 90.1058
138.726 120.691 89.2052
137.431 119.553 89.8988
140.234 120.96 88.9968
139.456 119.865 89.6406
141.587 119.761 89.3086
142.43 107.501 87.4124
141.453 106.916 88.2198
142.738 106.532 87.9871
143.961 106.698 87.7808
144.869 107.607 87.0171
145.444 106.924 87.7641
140.072 108.446 87.6876
138.564 108.383 88.8418
139.813 107.369 88.7881
141.989 108.505 86.7931
144.09 108.352 86.5648
146.24 107.941 87.1747
146.23 109.17 86.5086
147.391 108.635 87.592
147.667 110.166 87.4485
148.058 109.837 88.8557
137.443 109.618 88.8854
135.901 109.12 89.5084
137.063 108.366 89.6645
147.589 111.293 86.7716
148.254 111.77 88.3574
134.863 110.04 89.4052
133.905 109.903 90.668
134.753 109.213 90.0313
148.34 113.541 88.6239
134.401 111.316 91.4257
133.899 112.101 91.3503
135.4 112.437 92.0466
148.324 115.54 89.2277
133.062 112.744 91.4666
134.544 113.115 92.0711
147.479 117.245 89.7218
131.816 115.478 91.8906
132.623 114.083 92.1822
146.367 118.312 89.5826
146.414 117.765 90.2526
145.206 117.769 90.5122
132.341 117.249 91.5338
133.648 115.772 92.0326
134.168 117.039 91.4765
136.649 117.456 90.7864
135.572 116.577 91.9044
138.877 117.626 90.3017
137.753 116.754 91.1737
140.98 117.926 90.3596
139.878 116.798 90.7289
142.745 118.258 90.3454
141.717 117.242 90.9819
144.51 118.795 90.1059
143.58 117.611 90.8241
132.878 118.435 90.9531
134.227 118.305 90.8365
135.999 118.298 90.3725
138.132 118.513 90.0058
140.161 118.802 89.8053
142.277 118.914 89.7758
143.22 105.634 88.5817
141.438 105.293 89.168
142.535 104.548 89.3636
144.232 104.471 88.9474
145.412 105.97 88.4181
146.071 104.714 89.253
147.044 106.546 88.9428
147.234 105.647 89.6316
138.494 106.286 90.0286
137.481 105.522 90.6919
138.665 105.309 90.4103
139.78 105.242 89.8684
140.587 106.313 89.0718
146.854 107.234 88.0974
147.868 107.208 89.551
147.873 108.269 88.9052
148.1 108.387 90.2293
136.423 106.931 90.5735
134.519 107.374 91.3109
135.521 106.149 91.1591
137.888 107.404 89.8689
148.263 110.52 90.0109
135.21 108.306 90.4305
134.386 108.88 91.8619
148.382 112.342 89.9225
134.716 110.108 91.9749
134.194 110.608 91.731
135.768 111.26 92.1429
148.131 114.09 90.2572
136.291 113.836 92.1375
136.947 112.47 92.5229
138.012 113.45 92.8033
147.375 115.848 90.4564
134.445 114.144 92.345
136.959 114.893 92.1133
138.245 114.373 92.5972
146.278 116.911 90.6384
146.499 116.033 91.4942
145.344 116.364 91.5902
134.59 115.334 92.2425
136.518 115.685 91.8395
138.801 115.088 92.0932
138.775 115.783 91.393
140.959 116.139 91.2272
140.546 115.297 91.8623
142.797 116.513 91.1979
142.337 115.708 92.1665
144.568 116.901 91.2779
143.983 116.011 92.1273
140.808 103.167 90.4907
139.834 102.538 91.2919
140.975 102.098 90.939
142.168 102.067 90.555
142.823 103.329 89.7306
144.102 102.108 90.2653
144.857 103.376 89.6984
145.887 102.401 90.3771
146.334 103.539 89.9725
147.154 103.707 91.3752
138.97 104.357 90.8995
136.953 104.261 91.7019
138.337 103.358 91.7067
140.978 104.297 89.9734
147.258 105.027 90.573
147.96 106.622 90.311
147.755 106.8 91.231
136.3 105.087 91.432
134.254 105.987 92.0337
134.693 104.734 92.0879
147.815 108.964 91.5056
134.661 107.52 92.8761
147.826 110.775 91.5044
135.614 108.771 92.9999
135.969 110.094 92.7773
137.604 110.377 93.0229
137.298 109.266 93.4532
138.852 110.139 93.6014
147.825 112.501 91.4363
137.244 111.269 92.5382
138.662 111.41 93.1746
147.193 113.733 91.6361
146.808 112.476 92.6459
146.294 113.29 92.7948
139.942 113.801 93.2797
138.816 112.567 93.4048
141.943 113.981 93.417
140.626 112.772 93.7366
142.41 112.806 93.6523
145.723 114.523 92.6172
145.186 112.979 93.3692
144.491 113.815 93.0424
146.987 114.99 91.4266
139.998 114.722 92.6628
141.671 114.897 92.8693
143.316 113.694 93.3786
143.61 114.923 92.7758
145.392 115.607 92.2785
141.318 101.144 91.4646
139.621 101 92.1624
140.973 99.876 92.1844
142.699 99.7868 91.936
143.374 100.937 91.0877
144.749 100.004 92.0101
145.32 101.169 90.8513
146.291 100.869 91.9441
146.7 102.089 91.2354
146.904 102.523 92.6357
136.35 102.475 92.7704
135.283 102.016 93.1083
136.668 101.498 93.1719
137.897 101.287 92.8682
138.57 102.138 92.0447
146.986 104.174 93.2683
134.013 103.782 92.4714
132.044 104.319 93.817
133.334 102.822 93.3936
136.427 103.525 92.3301
147.404 105.442 92.1718
147.33 107.041 92.3763
133.032 105.335 93.7201
134.212 106.072 93.5674
147.268 108.206 92.7059
147.253 107.231 93.2687
146.702 107.684 93.9804
135.606 106.983 93.9255
136.605 108.055 93.6774
138.7 108.753 93.7412
137.469 107.278 94.2305
140.542 108.9 94.2309
139.315 107.373 94.2417
140.852 107.684 94.5904
147.122 109.543 92.849
146.06 108.84 94.083
140.494 110.335 93.89
141.927 108.719 94.3426
142.231 110.011 94.2291
144.199 110.244 94.553
143.195 108.871 94.8037
145.877 110.342 93.9922
144.802 109.032 94.8139
146.97 111.274 92.8938
140.229 111.617 93.6874
141.967 111.62 93.8457
143.558 111.115 94.1287
145.551 111.797 93.9124
143.858 112.323 93.8898
139.296 98.7904 93.2468
137.938 98.4954 93.9896
139.341 97.853 93.6777
140.936 97.6041 93.4687
141.753 98.6663 92.7591
143.218 97.3294 93.5652
143.773 98.7118 92.5795
144.897 97.8465 93.7523
145.535 99.0312 92.9524
145.871 99.2076 94.626
137.208 100.336 93.5679
134.876 100.388 94.2073
136.574 99.6009 94.1752
139.412 99.8202 92.6629
146.366 100.568 93.3062
146.663 102.497 94.1511
134.217 101.605 93.6864
132.012 103.071 95.0963
132.999 101.483 94.007
146.451 103.813 94.8095
132.564 104.374 95.5515
146.938 105.991 93.7346
146.128 105.055 94.7041
133.027 105.102 94.803
136.279 106.208 94.632
134.618 105.519 94.9662
138.373 106.219 94.7619
136.87 105.271 95.4859
140.487 106.42 94.8606
139.002 104.996 95.4317
142.398 106.463 95.5712
141.01 105.102 95.4132
144.208 106.691 95.8983
142.915 105.19 96.0088
145.986 106.623 95.1366
144.725 105.287 95.8192
142.112 107.479 95.0684
143.762 107.78 95.4435
145.395 107.79 95.1388
139.281 96.9461 94.2143
137.36 97.1081 94.8219
138.811 96.0636 94.6686
140.525 95.4515 94.7729
141.792 96.3762 94.0765
142.687 95.7243 95.1416
143.693 96.6537 94.7664
144.12 96.8587 96.4932
135.963 98.8119 94.654
134.141 98.9288 94.9433
135.748 97.8452 94.9053
144.825 97.7855 95.4472
145.343 99.4292 96.1246
130.593 101.45 94.9726
129.537 100.721 96.467
130.246 99.7693 95.2016
131.962 99.297 94.9233
132.601 100.909 94.5197
146.226 101.092 94.8693
145.362 101.046 95.9419
129.937 102.58 95.9977
133.889 103.744 96.2455
132.002 102.741 96.8291
136.258 103.202 96.2661
134.535 102.359 96.6916
136.561 102.094 96.8796
145.722 102.84 95.5284
144.732 102.665 96.4651
134.166 104.785 95.7685
135.841 104.533 95.972
137.895 102.773 96.6447
138.234 103.793 96.1623
140.242 103.889 96.1728
139.763 102.673 96.8132
142.154 104.052 96.3148
141.458 102.98 96.8046
144.155 104.004 96.1971
143.271 103.063 96.8398
145.477 104.325 95.5139
138.013 95.5153 95.3772
136.64 95.2153 95.9839
137.668 94.2241 97.0824
139.108 94.5811 96.6246
140.307 94.8652 95.8457
141.069 94.8525 97.3723
135.696 96.8791 95.4074
134.658 96.4552 96.2774
135.72 95.7768 96.1407
142.422 95.3391 96.3524
143.383 96.5499 97.772
131.374 98.5858 95.8983
130.166 98.9405 96.5275
131.265 97.6832 96.2665
132.755 97.196 96.3221
133.623 97.8532 95.5818
144.462 98.9261 97.1185
143.607 98.5532 98.097
130.753 100.095 97.6587
130.382 101.831 97.3356
131.941 101.169 97.6674
132.942 99.7425 98.2285
134.093 100.188 97.8638
143.058 100.568 97.7054
142.502 99.7646 98.2598
140.936 100.464 98.127
144.599 100.454 96.9709
133.699 101.587 97.3469
138.562 101.863 97.3744
136.082 101.292 97.7212
140.924 101.632 97.4934
138.699 100.847 97.9814
142.549 102.101 97.3662
143.975 101.738 97.013
135.863 94.7397 97.0089
134.803 94.382 97.598
136.275 94.0699 98.4231
138.315 93.9489 98.5783
139.858 94.445 98.1357
141.23 95.3412 99.4713
131.94 96.5451 96.8281
131.005 96.032 97.5508
132.178 95.4374 97.781
133.21 95.0361 97.7265
133.952 95.5893 96.8626
142.251 95.8231 98.4373
142.611 97.5874 99.0026
130.027 97.4893 96.6788
128.738 97.703 97.8588
129.505 96.4132 97.2292
141.763 99.1305 98.8114
141.688 98.1816 99.5347
140.512 98.6155 99.6307
129.609 99.1982 97.6163
131.154 98.9623 98.4567
132.868 98.8317 98.6915
135.679 100.306 98.326
134.972 99.1936 99.0299
137.767 100.183 98.7225
136.837 99.2898 99.4345
139.791 99.8572 98.8777
138.715 98.9986 99.5953
132.375 94.4157 98.751
130.78 94.1243 98.8116
132.131 93.7593 99.8722
134.46 93.907 99.4163
134.198 94.1993 98.4123
136.235 93.9802 99.9847
137.881 93.9959 99.8577
139.704 94.4336 99.6623
140.248 95.1974 100.826
128.338 96.0407 98.1324
127.022 95.1393 98.7658
128.11 94.7912 98.7305
129.227 94.4856 98.833
130.045 95.5174 98.098
141.649 97.0897 100.16
140.594 96.5437 101.074
127.504 97.0485 99.0482
130.467 98.2108 98.7904
129.287 97.5333 99.4034
132.381 98.11 99.3721
131.336 97.5175 99.9881
134.318 98.3593 99.8478
133.386 97.7743 100.764
136.234 98.626 100.589
135.192 97.962 101.237
138.018 98.3795 100.769
136.847 97.6202 101.728
139.761 97.8867 100.537
138.676 97.2776 101.446
127.993 93.6327 99.6147
126.284 93.1448 100.85
128.329 93.4404 101.287
129.879 93.5257 100.738
129.922 93.4379 99.5716
132.093 93.7131 101.103
133.677 93.8853 100.608
135.382 93.8064 101.206
137.496 93.9464 101.336
138.95 94.6027 101.358
137.923 94.7902 102.52
126.247 93.8907 99.6586
124.823 94.6399 99.8401
124.598 93.5012 100.798
138.003 96.2338 102.468
136.755 95.5478 103.421
136.28 96.6439 102.603
139.594 96.0437 101.92
126.041 95.8018 99.5384
127.317 96.5827 100.463
128.811 96.8922 100.552
130.63 96.9995 100.807
132.648 97.1702 101.239
134.711 97.1807 102.246
126.783 93.921 102.209
128.462 94.5325 102.479
129.903 94.2666 102.221
131.508 93.873 102.295
133.481 93.8016 102.114
135.107 94.1849 102.84
133.845 94.853 103.863
136.507 94.1201 102.791
124.592 95.1691 101.178
125.314 94.3153 102.205
135.461 95.7761 103.61
133.717 96.4176 103.246
126.139 95.9964 101.28
128.095 96.5129 101.587
129.962 96.7863 102.035
132.099 96.8673 102.509
127.047 95.1194 102.895
129.011 95.2792 103.245
130.801 95.06 103.42
132.312 94.4389 103.416
126.488 95.7876 102.335
128.309 96.2709 102.871
130.345 96.4033 103.462
132.077 95.9798 104.104
POLYGONS 1460  5840
3 0 1 2
3 0 3 4
3 2 3 0
3 4 5 6
3 3 5 4
3 5 7 6
3 8 1 0
3 9 1 8
3 4 10 0
3 10 8 0
3 6 11 4
3 11 10 4
3 12 6 7
3 11 6 12
3 13 14 15
3 9 13 15
3 9 8 13
3 8 16 13
3 10 17 8
3 17 16 8
3 11 18 10
3 18 17 10
3 19 11 12
3 18 11 19
3 20 14 13
3 21 14 20
3 16 22 13
3 22 20 13
3 23 17 24
3 23 22 17
3 22 16 17
3 18 24 17
3 25 24 18
3 19 25 18
3 20 26 21
3 22 26 20
3 27 26 22
3 23 27 22
3 28 29 30
3 28 31 32
3 30 31 28
3 32 33 34
3 31 33 32
3 34 35 36
3 33 35 34
3 35 37 36
3 38 39 40
3 29 38 40
3 28 38 29
3 28 1 38
3 28 2 1
3 3 2 28
3 32 3 28
3 5 3 32
3 34 5 32
3 7 5 34
3 7 34 41
3 41 34 36
3 42 36 37
3 41 36 42
3 43 44 45
3 39 43 45
3 39 38 43
3 38 46 43
3 1 9 46
3 38 1 46
3 41 47 12
3 7 41 12
3 48 41 42
3 47 41 48
3 49 44 43
3 50 44 49
3 15 14 49
3 15 49 46
3 46 49 43
3 9 15 46
3 47 51 52
3 47 52 12
3 12 52 19
3 48 51 47
3 53 50 49
3 54 50 53
3 14 21 53
3 49 14 53
3 55 56 57
3 55 23 24
3 55 24 56
3 56 24 58
3 25 59 24
3 24 59 58
3 52 25 19
3 59 25 52
3 53 60 54
3 21 60 53
3 21 26 60
3 26 61 60
3 57 27 55
3 57 61 27
3 61 26 27
3 23 55 27
3 62 63 64
3 62 65 66
3 64 65 62
3 65 67 66
3 68 69 70
3 68 71 72
3 70 71 68
3 72 73 74
3 71 73 72
3 63 74 73
3 63 62 74
3 62 75 74
3 66 76 62
3 76 75 62
3 77 66 67
3 77 78 66
3 78 76 66
3 77 79 78
3 80 81 82
3 69 80 82
3 69 68 80
3 68 83 80
3 30 29 83
3 30 83 72
3 72 83 68
3 31 30 72
3 74 31 72
3 33 31 74
3 75 33 74
3 35 33 75
3 76 35 75
3 37 35 76
3 37 76 84
3 84 76 78
3 85 78 79
3 84 78 85
3 86 87 88
3 81 86 88
3 81 80 86
3 80 89 86
3 40 39 89
3 40 89 83
3 83 89 80
3 29 40 83
3 84 90 42
3 37 84 42
3 91 84 85
3 90 84 91
3 92 87 86
3 93 87 92
3 45 44 92
3 45 92 89
3 89 92 86
3 39 45 89
3 90 94 95
3 90 95 42
3 42 95 48
3 91 94 90
3 96 97 98
3 93 96 98
3 93 92 96
3 92 99 96
3 44 50 99
3 92 44 99
3 51 100 101
3 52 51 101
3 95 51 48
3 100 51 95
3 96 102 97
3 102 103 104
3 102 96 103
3 96 99 103
3 50 54 103
3 99 50 103
3 105 106 107
3 105 57 56
3 105 56 106
3 106 56 108
3 58 109 56
3 56 109 108
3 59 110 58
3 58 110 109
3 101 59 52
3 110 59 101
3 103 111 104
3 54 111 103
3 54 60 111
3 60 112 111
3 107 61 105
3 107 112 61
3 112 60 61
3 57 105 61
3 113 114 115
3 113 116 117
3 115 116 113
3 117 118 119
3 116 118 117
3 119 120 121
3 118 120 119
3 120 122 121
3 123 124 125
3 123 126 127
3 125 126 123
3 114 127 126
3 114 113 127
3 113 128 127
3 64 63 128
3 64 128 117
3 117 128 113
3 65 64 117
3 119 65 117
3 67 65 119
3 67 119 129
3 129 119 121
3 130 121 122
3 129 121 130
3 131 132 133
3 124 131 133
3 123 131 124
3 123 69 131
3 123 70 69
3 71 70 123
3 127 71 123
3 73 71 127
3 128 73 127
3 63 73 128
3 67 129 77
3 129 79 77
3 129 130 79
3 130 134 79
3 135 136 137
3 132 135 137
3 131 135 132
3 131 81 135
3 131 82 81
3 69 82 131
3 79 134 85
3 134 138 85
3 139 140 141
3 136 139 141
3 135 139 136
3 135 87 139
3 135 88 87
3 81 88 135
3 85 138 91
3 138 142 91
3 143 140 139
3 144 140 143
3 87 93 143
3 139 87 143
3 94 145 146
3 95 94 146
3 142 94 91
3 145 94 142
3 98 144 143
3 98 97 144
3 97 147 144
3 93 98 143
3 148 149 150
3 148 151 152
3 149 148 152
3 151 153 154
3 152 151 154
3 153 101 100
3 153 100 154
3 154 100 155
3 146 100 95
3 155 100 146
3 97 156 147
3 102 156 97
3 104 157 158
3 104 158 102
3 102 158 156
3 157 159 160
3 158 157 160
3 159 107 106
3 159 106 160
3 160 106 161
3 150 108 148
3 150 161 108
3 161 106 108
3 109 148 108
3 151 148 109
3 110 151 109
3 153 151 110
3 101 153 110
3 104 111 157
3 112 157 111
3 159 157 112
3 107 159 112
3 162 163 164
3 162 165 166
3 164 165 162
3 166 167 168
3 165 167 166
3 168 169 170
3 167 169 168
3 169 171 170
3 172 173 174
3 172 175 176
3 174 175 172
3 163 176 175
3 162 176 163
3 162 114 176
3 162 115 114
3 116 115 162
3 166 116 162
3 118 116 166
3 168 118 166
3 120 118 168
3 170 120 168
3 170 122 120
3 170 171 122
3 171 177 122
3 178 179 180
3 173 178 180
3 172 178 173
3 172 124 178
3 172 125 124
3 126 125 172
3 176 126 172
3 114 126 176
3 181 182 130
3 181 130 177
3 177 130 122
3 181 183 182
3 184 185 186
3 179 184 186
3 178 184 179
3 178 132 184
3 178 133 132
3 124 133 178
3 182 187 134
3 130 182 134
3 188 182 183
3 187 182 188
3 137 185 184
3 137 136 185
3 136 189 185
3 132 137 184
3 187 190 191
3 187 191 134
3 134 191 138
3 188 190 187
3 141 192 193
3 140 192 141
3 189 136 141
3 193 189 141
3 138 191 142
3 191 194 142
3 140 144 192
3 192 144 195
3 196 197 198
3 196 199 200
3 197 196 200
3 199 201 202
3 200 199 202
3 201 146 145
3 201 145 202
3 202 145 203
3 194 145 142
3 203 145 194
3 144 147 195
3 195 147 204
3 205 206 207
3 205 208 209
3 206 205 209
3 208 210 211
3 209 208 211
3 210 150 149
3 210 149 211
3 211 149 212
3 198 152 196
3 198 212 152
3 212 149 152
3 154 196 152
3 199 196 154
3 155 199 154
3 201 199 155
3 146 201 155
3 147 213 204
3 156 213 147
3 207 158 205
3 207 213 158
3 213 156 158
3 160 205 158
3 208 205 160
3 161 208 160
3 210 208 161
3 150 210 161
3 214 215 216
3 214 217 218
3 216 217 214
3 218 219 220
3 217 219 218
3 220 221 222
3 219 221 220
3 221 223 222
3 224 225 226
3 215 224 226
3 214 224 215
3 214 163 224
3 214 164 163
3 165 164 214
3 218 165 214
3 167 165 218
3 220 167 218
3 169 167 220
3 222 169 220
3 171 227 228
3 169 227 171
3 169 223 227
3 169 222 223
3 227 229 228
3 230 231 232
3 230 174 173
3 230 232 174
3 232 233 174
3 225 224 175
3 225 175 233
3 233 175 174
3 163 175 224
3 228 234 177
3 171 228 177
3 235 228 229
3 234 228 235
3 180 231 230
3 180 179 231
3 179 236 231
3 173 180 230
3 177 234 181
3 234 183 181
3 234 235 183
3 235 237 183
3 186 238 239
3 185 238 186
3 236 179 186
3 239 236 186
3 183 237 188
3 237 240 188
3 185 189 238
3 238 189 241
3 190 242 243
3 191 190 243
3 240 190 188
3 242 190 240
3 193 244 245
3 192 244 193
3 241 189 193
3 245 241 193
3 246 247 248
3 246 249 250
3 247 246 250
3 249 243 250
3 249 194 243
3 194 191 243
3 251 195 252
3 251 244 195
3 244 192 195
3 252 253 254
3 251 252 254
3 253 255 256
3 254 253 256
3 255 257 258
3 256 255 258
3 257 259 260
3 258 257 260
3 259 198 197
3 259 197 260
3 260 197 261
3 200 262 197
3 197 262 261
3 248 202 246
3 248 262 202
3 262 200 202
3 203 246 202
3 249 246 203
3 194 249 203
3 252 204 263
3 195 204 252
3 206 263 207
3 206 253 263
3 253 252 263
3 209 253 206
3 255 253 209
3 211 255 209
3 257 255 211
3 212 257 211
3 259 257 212
3 198 259 212
3 204 213 263
3 207 263 213
3 264 265 266
3 264 267 268
3 266 267 264
3 268 269 270
3 267 269 268
3 270 271 272
3 269 271 270
3 271 273 272
3 274 275 276
3 265 274 276
3 264 274 265
3 264 215 274
3 264 216 215
3 217 216 264
3 268 217 264
3 219 217 268
3 270 219 268
3 221 219 270
3 272 221 270
3 223 277 278
3 221 277 223
3 221 273 277
3 221 272 273
3 277 279 278
3 280 281 282
3 275 280 282
3 274 280 275
3 274 225 280
3 274 226 225
3 215 226 274
3 223 278 227
3 278 229 227
3 278 279 229
3 279 283 229
3 232 231 284
3 280 285 281
3 280 232 285
3 280 233 232
3 284 285 232
3 225 233 280
3 229 283 235
3 283 286 235
3 284 287 288
3 284 231 287
3 231 236 287
3 285 284 288
3 235 286 237
3 286 289 237
3 239 238 290
3 239 290 291
3 239 291 236
3 236 291 287
3 292 293 294
3 292 289 293
3 292 240 289
3 240 237 289
3 290 241 295
3 238 241 290
3 296 291 290
3 295 296 290
3 297 298 299
3 294 298 297
3 292 294 297
3 292 297 243
3 292 243 242
3 240 292 242
3 245 244 300
3 245 295 241
3 245 300 295
3 300 301 295
3 302 296 295
3 302 295 303
3 303 295 301
3 303 304 305
3 302 303 305
3 304 306 307
3 305 304 307
3 306 308 309
3 307 306 309
3 308 310 311
3 309 308 311
3 310 248 247
3 310 247 311
3 311 247 312
3 299 250 297
3 299 312 250
3 312 247 250
3 243 297 250
3 244 251 300
3 254 300 251
3 301 300 254
3 256 301 254
3 303 301 256
3 258 303 256
3 304 303 258
3 260 304 258
3 306 304 260
3 261 306 260
3 308 306 261
3 262 308 261
3 310 308 262
3 248 310 262
3 313 314 315
3 313 316 317
3 315 316 313
3 316 318 317
3 319 320 321
3 314 319 321
3 314 313 319
3 313 322 319
3 317 323 313
3 323 322 313
3 324 317 318
3 324 325 317
3 325 323 317
3 325 326 327
3 324 326 325
3 326 328 327
3 329 330 331
3 320 329 331
3 319 329 320
3 319 265 329
3 319 266 265
3 267 266 319
3 322 267 319
3 269 267 322
3 323 269 322
3 271 269 323
3 325 271 323
3 273 271 325
3 273 325 332
3 332 325 327
3 333 327 328
3 332 327 333
3 334 335 336
3 330 334 336
3 329 334 330
3 329 275 334
3 329 276 275
3 265 276 329
3 273 332 277
3 332 279 277
3 332 333 279
3 333 337 279
3 338 281 339
3 338 335 281
3 282 281 334
3 334 281 335
3 282 334 275
3 339 340 338
3 279 337 283
3 337 341 283
3 339 342 343
3 339 281 342
3 281 285 342
3 340 339 343
3 283 341 286
3 341 344 286
3 288 287 345
3 288 345 346
3 288 346 285
3 285 346 342
3 347 348 349
3 347 344 348
3 347 289 344
3 289 286 344
3 345 291 350
3 287 291 345
3 351 346 345
3 351 345 352
3 352 345 350
3 352 353 354
3 351 352 354
3 353 355 356
3 354 353 356
3 355 357 358
3 356 355 358
3 357 359 360
3 358 357 360
3 359 361 362
3 360 359 362
3 349 362 361
3 347 349 361
3 347 361 294
3 347 294 293
3 289 347 293
3 350 296 363
3 291 296 350
3 352 350 364
3 364 350 363
3 353 352 365
3 365 352 364
3 355 353 366
3 366 353 365
3 357 355 367
3 367 355 366
3 359 357 368
3 368 357 367
3 298 368 299
3 298 361 368
3 361 359 368
3 294 361 298
3 296 302 363
3 305 363 302
3 364 363 305
3 307 364 305
3 365 364 307
3 309 365 307
3 366 365 309
3 311 366 309
3 367 366 311
3 312 367 311
3 368 367 312
3 299 368 312
3 369 370 371
3 369 372 373
3 371 372 369
3 373 374 375
3 372 374 373
3 374 376 375
3 377 378 379
3 377 380 381
3 379 380 377
3 370 381 380
3 369 381 370
3 369 314 381
3 369 315 314
3 316 315 369
3 373 316 369
3 318 316 373
3 318 373 382
3 382 373 375
3 383 375 376
3 383 384 375
3 384 382 375
3 383 385 384
3 386 387 388
3 378 386 388
3 378 377 386
3 377 389 386
3 321 320 389
3 321 389 381
3 381 389 377
3 314 321 381
3 318 382 324
3 326 324 382
3 384 326 382
3 384 328 326
3 384 385 328
3 385 390 328
3 391 387 386
3 392 387 391
3 331 330 391
3 331 391 389
3 389 391 386
3 320 331 389
3 328 390 333
3 390 393 333
3 394 335 395
3 394 392 335
3 336 335 391
3 391 335 392
3 336 391 330
3 395 396 394
3 333 393 337
3 393 397 337
3 335 338 395
3 340 398 399
3 338 340 399
3 338 399 396
3 338 396 395
3 399 398 400
3 337 397 341
3 397 401 341
3 343 342 402
3 343 398 340
3 343 402 398
3 402 403 398
3 404 400 398
3 403 404 398
3 405 406 407
3 405 401 406
3 405 344 401
3 344 341 401
3 402 346 408
3 342 346 402
3 403 402 409
3 409 402 408
3 410 404 403
3 410 403 411
3 411 403 409
3 411 412 413
3 410 411 413
3 412 414 415
3 413 412 415
3 414 416 417
3 415 414 417
3 407 417 416
3 405 407 416
3 405 416 349
3 405 349 348
3 344 405 348
3 346 351 408
3 354 408 351
3 409 408 354
3 356 409 354
3 411 409 356
3 358 411 356
3 412 411 358
3 360 412 358
3 414 412 360
3 362 414 360
3 416 414 362
3 349 416 362
3 418 419 420
3 418 421 422
3 420 421 418
3 422 423 424
3 421 423 422
3 424 425 426
3 423 425 424
3 425 427 426
3 428 429 430
3 419 428 430
3 419 418 428
3 418 431 428
3 371 370 431
3 371 431 422
3 422 431 418
3 372 371 422
3 424 372 422
3 374 372 424
3 426 374 424
3 376 432 433
3 374 432 376
3 374 427 432
3 374 426 427
3 432 434 433
3 435 436 437
3 429 435 437
3 428 435 429
3 428 378 435
3 428 379 378
3 380 379 428
3 431 380 428
3 370 380 431
3 376 433 383
3 433 385 383
3 433 434 385
3 434 438 385
3 388 436 435
3 388 387 436
3 387 439 436
3 378 388 435
3 385 438 390
3 438 440 390
3 441 392 442
3 441 439 392
3 439 387 392
3 442 443 444
3 441 442 444
3 444 443 445
3 390 440 393
3 440 446 393
3 392 394 442
3 396 442 394
3 396 447 442
3 447 443 442
3 448 445 443
3 447 448 443
3 449 450 451
3 449 446 450
3 449 397 446
3 397 393 446
3 396 399 447
3 400 452 453
3 399 400 453
3 399 453 448
3 399 448 447
3 452 454 455
3 453 452 455
3 455 454 456
3 457 458 459
3 451 458 457
3 451 457 449
3 449 457 460
3 397 460 401
3 449 460 397
3 452 404 461
3 400 404 452
3 454 452 462
3 462 452 461
3 463 456 454
3 463 454 464
3 464 454 462
3 459 463 464
3 459 464 457
3 457 464 465
3 406 465 407
3 406 460 465
3 460 457 465
3 401 460 406
3 404 410 461
3 413 461 410
3 462 461 413
3 415 462 413
3 464 462 415
3 417 464 415
3 465 464 417
3 407 465 417
3 466 467 468
3 466 469 470
3 468 469 466
3 470 471 472
3 469 471 470
3 472 473 474
3 471 473 472
3 473 475 474
3 476 477 478
3 476 479 480
3 478 479 476
3 467 480 479
3 466 480 467
3 466 419 480
3 466 420 419
3 421 420 466
3 470 421 466
3 423 421 470
3 472 423 470
3 425 423 472
3 474 425 472
3 474 427 425
3 474 475 427
3 475 481 427
3 482 483 484
3 477 482 484
3 477 476 482
3 476 485 482
3 430 429 485
3 430 485 480
3 480 485 476
3 419 430 480
3 427 481 486
3 432 427 486
3 486 434 432
3 487 434 486
3 482 488 483
3 437 436 489
3 437 489 482
3 437 482 485
3 482 489 488
3 429 437 485
3 490 491 492
3 490 487 491
3 490 438 487
3 438 434 487
3 493 439 494
3 493 489 439
3 489 436 439
3 494 495 496
3 493 494 496
3 495 497 498
3 496 495 498
3 498 497 499
3 500 490 492
3 501 500 492
3 438 500 440
3 490 500 438
3 439 441 494
3 444 494 441
3 495 494 444
3 445 495 444
3 445 502 495
3 502 497 495
3 503 499 497
3 503 497 504
3 504 497 502
3 504 505 506
3 503 504 506
3 505 507 508
3 506 505 508
3 501 508 507
3 501 507 500
3 500 507 509
3 440 509 446
3 500 509 440
3 502 448 510
3 445 448 502
3 504 502 511
3 511 502 510
3 505 504 512
3 512 504 511
3 507 505 513
3 513 505 512
3 450 513 451
3 450 509 513
3 509 507 513
3 446 509 450
3 448 453 510
3 455 510 453
3 511 510 455
3 456 511 455
3 456 514 511
3 514 512 511
3 458 514 459
3 458 513 514
3 513 512 514
3 451 513 458
3 456 463 514
3 459 514 463
3 515 516 517
3 515 518 519
3 517 518 515
3 519 520 521
3 518 520 519
3 521 522 523
3 520 522 521
3 522 524 523
3 525 526 527
3 516 525 527
3 516 515 525
3 515 528 525
3 468 467 528
3 468 528 519
3 519 528 515
3 469 468 519
3 521 469 519
3 471 469 521
3 523 471 521
3 523 524 529
3 523 529 471
3 471 529 473
3 529 475 473
3 530 475 529
3 531 532 533
3 526 531 533
3 525 531 526
3 525 477 531
3 525 478 477
3 479 478 525
3 528 479 525
3 467 479 528
3 475 530 481
3 530 534 481
3 484 532 531
3 484 483 532
3 483 535 532
3 477 484 531
3 536 486 481
3 536 481 537
3 537 481 534
3 486 536 487
3 483 538 535
3 488 538 483
3 489 539 540
3 489 540 488
3 488 540 538
3 539 541 542
3 540 539 542
3 541 543 544
3 542 541 544
3 543 545 546
3 544 543 546
3 545 547 548
3 546 545 548
3 547 549 550
3 548 547 550
3 537 550 549
3 536 537 549
3 536 549 492
3 536 492 491
3 487 536 491
3 489 493 539
3 496 539 493
3 541 539 496
3 498 541 496
3 543 541 498
3 499 543 498
3 499 551 543
3 551 545 543
3 547 545 552
3 552 545 551
3 549 547 553
3 553 547 552
3 492 553 501
3 549 553 492
3 499 503 551
3 506 551 503
3 552 551 506
3 508 552 506
3 553 552 508
3 501 553 508
3 554 555 556
3 554 557 558
3 556 557 554
3 558 559 560
3 557 559 558
3 559 561 560
3 562 563 564
3 555 562 564
3 554 562 555
3 554 516 562
3 554 517 516
3 518 517 554
3 558 518 554
3 520 518 558
3 560 520 558
3 560 561 565
3 560 565 520
3 520 565 522
3 565 524 522
3 566 524 565
3 567 568 569
3 567 570 571
3 569 570 567
3 563 571 570
3 562 571 563
3 562 526 571
3 562 527 526
3 516 527 562
3 572 529 524
3 572 524 573
3 573 524 566
3 529 572 530
3 567 574 568
3 571 532 567
3 571 533 532
3 567 532 574
3 575 576 532
3 574 532 576
3 575 577 578
3 575 578 576
3 571 526 533
3 578 577 579
3 580 572 573
3 581 580 573
3 530 580 534
3 572 580 530
3 575 535 582
3 532 535 575
3 577 575 583
3 583 575 582
3 584 579 577
3 584 577 585
3 585 577 583
3 585 586 587
3 584 585 587
3 586 588 589
3 587 586 589
3 588 590 591
3 589 588 591
3 581 591 590
3 581 590 580
3 580 590 592
3 534 592 537
3 580 592 534
3 535 538 582
3 540 582 538
3 583 582 540
3 542 583 540
3 585 583 542
3 544 585 542
3 586 585 544
3 546 586 544
3 588 586 546
3 548 588 546
3 590 588 548
3 550 590 548
3 592 590 550
3 537 592 550
3 593 594 595
3 593 596 597
3 595 596 593
3 596 598 597
3 599 600 601
3 594 599 601
3 593 599 594
3 593 555 599
3 593 556 555
3 557 556 593
3 597 557 593
3 597 598 602
3 597 602 557
3 557 602 559
3 602 561 559
3 603 561 602
3 604 605 606
3 604 607 608
3 606 607 604
3 600 608 607
3 599 608 600
3 599 563 608
3 599 564 563
3 555 564 599
3 609 565 561
3 609 561 610
3 610 561 603
3 565 609 566
3 611 568 612
3 611 605 568
3 569 568 604
3 604 568 605
3 613 614 611
3 613 611 612
3 608 570 604
3 604 570 569
3 570 608 563
3 613 615 614
3 616 617 618
3 610 617 616
3 610 616 609
3 609 616 619
3 566 619 573
3 609 619 566
3 568 574 612
3 576 612 574
3 613 612 576
3 613 620 615
3 613 576 620
3 576 578 620
3 579 621 622
3 579 622 578
3 578 622 620
3 621 623 624
3 622 621 624
3 618 624 623
3 618 623 616
3 616 623 625
3 619 616 626
3 626 616 625
3 573 626 581
3 619 626 573
3 579 584 621
3 587 621 584
3 623 621 587
3 589 623 587
3 625 623 589
3 591 625 589
3 626 625 591
3 581 626 591
3 627 628 629
3 627 595 594
3 627 629 595
3 629 630 595
3 596 595 631
3 595 630 631
3 631 598 596
3 632 598 631
3 633 634 635
3 633 636 637
3 635 636 633
3 628 637 636
3 627 637 628
3 627 600 637
3 627 601 600
3 594 601 627
3 598 632 638
3 602 598 638
3 638 603 602
3 639 603 638
3 640 641 642
3 634 640 642
3 633 640 634
3 633 605 640
3 633 606 605
3 607 606 633
3 637 607 633
3 600 607 637
3 643 644 645
3 643 639 644
3 643 610 639
3 610 603 639
3 640 646 641
3 605 646 640
3 605 611 646
3 611 647 646
3 614 648 611
3 611 648 647
3 615 649 650
3 615 650 614
3 614 650 648
3 649 651 652
3 650 649 652
3 651 653 654
3 652 651 654
3 645 654 653
3 643 645 653
3 643 653 618
3 643 618 617
3 610 643 617
3 615 620 649
3 622 649 620
3 651 649 622
3 624 651 622
3 653 651 624
3 618 653 624
3 655 656 657
3 655 658 659
3 657 658 655
3 659 629 628
3 659 658 629
3 658 660 629
3 630 629 661
3 629 660 661
3 631 630 662
3 630 661 662
3 662 632 631
3 663 632 662
3 664 665 666
3 664 667 668
3 666 667 664
3 656 668 667
3 655 668 656
3 655 634 668
3 655 635 634
3 636 635 655
3 659 636 655
3 628 636 659
3 669 638 632
3 669 632 670
3 670 632 663
3 638 669 639
3 664 671 665
3 668 641 664
3 668 642 641
3 664 641 671
3 672 673 641
3 671 641 673
3 672 674 675
3 672 675 673
3 668 634 642
3 674 676 677
3 675 674 677
3 676 678 679
3 677 676 679
3 678 680 681
3 679 678 681
3 680 682 683
3 681 680 683
3 670 683 682
3 669 670 682
3 669 682 645
3 669 645 644
3 639 669 644
3 641 646 672
3 647 672 646
3 674 672 647
3 648 674 647
3 676 674 648
3 650 676 648
3 678 676 650
3 652 678 650
3 680 678 652
3 654 680 652
3 682 680 654
3 645 682 654
3 684 685 686
3 684 687 688
3 686 687 684
3 688 657 656
3 688 687 657
3 687 689 657
3 658 657 690
3 657 689 690
3 660 658 691
3 658 690 691
3 661 660 692
3 660 691 692
3 693 692 694
3 693 662 692
3 662 661 692
3 662 693 663
3 695 696 697
3 685 695 697
3 684 695 685
3 684 665 695
3 684 666 665
3 667 666 684
3 688 667 684
3 656 667 688
3 698 699 700
3 694 699 698
3 694 698 693
3 693 698 701
3 663 701 670
3 693 701 663
3 695 702 696
3 665 702 695
3 665 671 702
3 671 703 702
3 673 704 671
3 671 704 703
3 675 705 673
3 673 705 704
3 677 706 675
3 675 706 705
3 679 707 677
3 677 707 706
3 700 681 698
3 700 707 681
3 707 679 681
3 683 698 681
3 701 698 683
3 670 701 683
3 686 708 709
3 685 708 686
3 687 686 710
3 686 709 710
3 689 687 711
3 687 710 711
3 690 689 712
3 689 711 712
3 713 712 714
3 713 691 712
3 691 690 712
3 691 715 692
3 713 715 691
3 692 715 694
3 697 696 716
3 697 716 717
3 697 717 685
3 685 717 708
3 718 713 714
3 719 718 714
3 699 718 700
3 699 715 718
3 715 713 718
3 694 715 699
3 696 702 716
3 716 720 717
3 716 702 720
3 702 703 720
3 704 721 703
3 703 721 720
3 705 722 704
3 704 722 721
3 706 723 705
3 705 723 722
3 719 707 718
3 719 723 707
3 723 706 707
3 700 718 707
3 709 708 724
3 709 725 710
3 724 725 709
3 710 726 711
3 725 726 710
3 711 727 712
3 726 727 711
3 712 727 714
3 724 717 728
3 708 717 724
3 725 724 729
3 729 724 728
3 726 725 730
3 730 725 729
3 727 726 731
3 731 726 730
3 714 731 719
3 727 731 714
3 717 720 728
3 721 728 720
3 729 728 721
3 722 729 721
3 730 729 722
3 723 730 722
3 731 730 723
3 719 731 723
