# vtk DataFile Version 3.0
this file was written using fslvtkio
ASCII
DATASET POLYDATA
POINTS 642 float
138.076 137.734 108.195
126.399 136.106 109.19
134.014 124.461 108.991
141.625 120.368 105.818
139.205 126.317 115.542
136.215 131.97 101.913
128.597 132.659 101.876
132.25 126.012 117.658
132.376 141.782 115.92
137.739 111.269 112.09
138.112 116.665 100.455
128.103 145.038 101.71
132.197 134.092 118.473
136.471 134.997 116.877
136.452 125.496 119.857
134.89 118.086 116.891
139.254 117.433 114.965
125.063 138.188 98.6009
131.964 132.875 100.804
131.903 139.84 100.095
136.081 124.8 102.662
139.378 121.618 99.5637
140.93 122.085 111.017
138.945 132.667 112.333
140.368 129.139 107.151
140.82 124.734 102.482
137.039 136.651 103.897
128.976 132.081 114.542
131.96 123.185 113.354
130.062 130.971 109.238
124.835 135.286 103.565
132.194 128.658 105.364
133.551 143.884 105.464
135.396 141.736 111.847
129.452 146.184 109.009
125.409 141.328 105.002
128.748 139.65 112.668
142.26 115.168 100.568
138.729 111.935 105.204
141.256 113.21 108.397
136.869 120.004 105.578
135.33 116.87 110.36
134.614 135.037 118.835
136.664 130.35 118.57
134.396 129.99 119.445
138.042 125.875 117.736
137.977 130.767 116.422
134.641 138.802 116.828
132.112 138.308 117.665
131.994 129.949 118.451
133.993 125.213 119.619
135.479 121.299 119.362
137.817 121.468 117.886
137.503 117.012 117.091
139.139 121.756 115.374
133.178 121.956 117.744
136.569 114.651 114.39
139.107 113.2 114.074
127.945 135.834 98.4713
131.173 136.265 99.5691
128.614 139.405 98.5448
133.776 136.163 101.001
134.443 132.236 100.938
130.029 133.115 101.159
125.408 134.719 99.2606
126.451 141.669 99.9737
130.143 142.761 100.46
137.689 122.725 100.787
136.047 127.515 101.232
133.99 128.69 101.666
137.786 126.953 101.393
138.699 118.686 98.3138
136.963 120.02 100.924
132.18 129.477 102.504
140.272 127.252 111.88
139.822 130.459 109.874
141.016 125.731 109.281
139.219 133.605 107.838
138.676 135.392 110.433
139.084 129.744 114.029
140.123 124.056 113.448
141.547 121.248 108.508
141.323 124.918 106.499
140.619 127.567 104.724
139.045 132.717 105.606
138.887 131.009 103.739
137.672 137.508 105.882
141.429 122.376 103.884
138.825 128.479 102.264
136.67 134.525 102.63
130.049 127.541 114.153
130.863 126.898 111.526
129.2 130.725 111.93
131.992 127.899 109.163
132.883 123.774 111.015
131.779 124.459 115.735
130.461 129.358 116.362
127.942 134.32 111.957
127.966 133.524 109.166
127.944 133.606 106.401
130.748 130.533 106.897
128.349 132.854 104.461
133.487 126.758 107.159
125.376 135.806 106.336
125.918 133.798 102.19
130.478 130.803 103.721
134.484 143.576 108.727
132.582 145.131 110.856
131.479 146.448 106.932
130.858 144.145 112.869
134.043 142.239 114.057
137.058 139.971 109.993
136.211 141.122 106.897
131.116 145.289 103.24
128.338 146.406 105.16
127.188 144.311 106.903
128.823 143.285 110.729
126.784 141.35 108.776
130.338 140.849 114.53
126.049 143.433 103.091
125.308 138.88 107.335
127.158 138.116 110.867
140.989 111.804 101.706
140.742 109.603 106.648
141.999 113.907 104.658
139.883 111.099 110.757
137.91 110.866 108.754
138.892 114.571 102.425
140.589 115.881 98.466
141.792 117.722 103.559
141.755 117.075 107.138
136.222 117.995 107.665
137.02 113.842 107.854
137.858 115.641 105.209
136.585 114.162 111.307
134.551 120.45 109.63
135.293 122.34 107.305
137.402 118.363 103.074
137.83 134.247 114.673
136.152 138.842 114.527
137.399 137.51 112.355
135.567 140.706 104.315
132.971 142.281 102.412
134.592 138.484 102.049
140.441 114.864 111.794
140.374 119.405 112.981
141.22 117.571 109.933
141.487 119.294 101.28
140.078 122.974 100.876
141.798 118.206 98.0105
130.131 137.267 116.149
130.147 133.201 116.833
128.473 136.086 113.9
124.452 138.162 104.323
123.422 135.709 100.542
124.574 139.793 101.4
133.427 120.085 111.954
133.09 120.337 115.185
134.911 117.261 113.618
136.576 122.298 103.707
133.777 127.149 103.998
135.17 124.649 105.638
135.702 132.717 118.842
135.613 130.302 119.371
134.547 132.603 119.43
135.453 127.883 119.954
136.525 128.046 119.324
136.524 132.706 117.863
135.706 134.8 118.039
133.455 134.39 118.917
133.353 132.136 119.216
137.389 128.099 118.3
137.37 130.657 117.6
137.991 128.382 117.159
137.131 132.882 116.75
137.285 125.755 118.851
138.692 126.254 116.685
138.594 128.526 116.073
134.792 136.889 117.966
133.343 136.662 118.57
133.476 138.629 117.753
132.132 136.288 118.108
135.596 136.87 116.869
133.66 140.526 116.693
132.2 140.212 117.004
133.154 129.893 119.178
134.272 127.603 119.624
133.142 127.712 119.036
135.164 125.411 120.108
132.183 131.957 118.591
132.183 127.867 118.123
133.058 125.6 118.699
136.848 121.198 118.933
137.646 119.222 117.763
136.41 118.984 118.488
138.462 117.392 116.282
138.447 119.487 116.601
137.157 123.439 118.995
136 123.298 119.804
135.033 119.477 118.348
136.048 117.363 117.303
138.631 121.559 116.668
137.97 123.679 117.896
138.709 123.969 116.709
139.221 119.519 115.318
139.219 124.029 115.471
134.645 123.234 119.668
134.252 121.447 118.656
133.364 123.474 118.923
134.088 120.061 117.453
132.604 123.957 117.849
136.967 115.517 116.003
138.286 115.292 115.513
137.726 113.47 114.81
139.161 115.502 114.563
135.829 116.438 115.654
137.269 112.821 113.292
138.483 111.631 113.519
129.679 135.904 98.9415
129.926 137.74 98.8048
128.208 137.447 98.1884
130.262 139.543 99.1651
131.396 138.058 99.5449
131.251 134.559 99.9676
129.832 134.481 99.5924
126.385 136.979 98.1195
126.902 138.715 98.2636
132.49 136.362 100.163
132.583 134.477 100.363
133.864 134.371 100.783
133.15 132.556 100.767
132.815 138.15 100.416
134.973 134.061 101.492
135.425 132.032 101.422
128.509 134.439 99.5818
126.468 135.42 98.6029
127.454 134.342 99.9205
124.739 136.392 98.6119
130.794 133.191 100.949
129.267 132.989 101.454
127.158 133.957 100.745
127.565 140.561 98.9374
129.438 141.096 99.2578
128.264 142.29 99.8098
130.977 141.286 100.09
126.017 139.929 99.0418
127.283 143.429 100.654
129.122 143.957 100.813
137.083 125.174 101.402
134.913 128.29 101.401
136.142 125.857 101.856
132.782 130.935 101.035
133.939 130.498 101.041
137.798 124.545 100.895
138.417 122.113 99.8552
136.848 123.718 101.721
135.288 126.447 102.288
134.871 130.227 101.115
136.873 127.292 101.335
136.044 129.782 101.477
138.474 124.295 100.881
136.857 129.696 101.654
138.19 120.591 99.2542
137.554 121.251 100.632
137.565 119.12 99.4683
136.893 122.271 101.785
139.321 120.15 98.3022
138.297 117.387 99.1766
137.298 118.171 100.614
133.224 128.892 102.056
131.877 130.967 101.18
131.114 131.062 101.615
134.039 127.281 102.701
130.375 131.271 102.238
140.097 128.928 110.89
140.593 128.175 109.592
140.656 126.474 110.571
140.78 127.577 108.297
140.215 129.652 108.602
139.454 131.239 111.191
139.68 129.805 112.076
140.705 124.794 111.481
141.084 124.08 110.273
139.588 132.01 108.87
139.254 132.762 110.254
139.154 134.236 109.255
138.913 133.979 111.387
139.673 131.251 107.613
138.671 135.623 108.075
138.453 136.507 109.309
139.795 128.514 113.004
140.224 125.616 112.641
139.899 127.001 113.909
140.584 123.041 112.204
139.023 131.156 113.129
139.231 128.111 114.88
139.561 125.23 114.466
141.496 123.527 109.042
141.065 125.371 107.937
141.684 123.272 107.636
140.78 127.027 106.952
141.294 121.633 109.81
141.557 121.121 107.122
141.61 122.805 106.184
139.934 130.126 105.269
138.863 132 104.661
140.026 129.295 104.1
137.936 133.782 103.936
138.276 134.697 104.706
139.7 130.793 106.336
140.497 128.497 105.958
140.641 126.676 103.588
139.897 128.039 103.227
138.422 135.242 105.69
139.104 133.022 106.656
138.612 135.454 106.85
137.347 137.052 104.877
137.946 137.564 107.037
141.011 126.332 105.574
141.192 125.186 104.164
141.605 123.977 105.079
141.227 123.723 103.184
141.429 121.407 104.908
138.911 129.791 102.955
137.771 132.808 103.253
137.693 131.462 102.732
136.959 135.613 103.204
139.926 126.558 102.369
137.494 130.232 102.184
136.418 133.063 102.326
130.231 127.106 112.709
130.026 128.906 111.734
129.486 129.056 113.015
129.724 130.573 110.61
130.461 128.914 110.527
131.269 125.197 112.586
130.95 125.655 113.706
129.413 129.696 114.3
128.935 130.987 113.282
131.412 127.344 110.3
131.846 125.272 111.376
132.456 125.846 110.201
132.262 123.388 112.215
130.938 129.289 109.277
133.017 126.369 109.073
133.474 124.358 109.945
131.001 125.996 114.956
130.075 128.346 115.311
131.006 126.956 116.142
129.627 130.662 115.465
131.868 123.884 114.455
131.894 125.158 116.786
131.328 127.692 117.143
128.53 132.454 112.085
128.841 132.229 110.618
127.934 133.669 110.692
129.11 132.384 109.221
128.478 133.074 113.303
127.267 135.277 110.48
127.048 134.758 109.166
129.699 132.429 106.803
130.049 131.889 105.659
128.233 133.426 105.322
130.282 131.177 104.953
131.167 129.977 105.894
130.383 130.877 108.028
129.184 132.476 107.832
126.492 134.473 105.021
126.419 134.032 103.969
131.992 128.747 106.88
131.473 129.37 108.063
132.631 127.631 107.993
132.762 127.752 106.198
134.005 125.721 108.189
128.023 133.531 107.787
126.676 134.747 106.229
126.9 134.775 107.707
125.076 135.561 104.906
125.951 135.944 107.768
127.122 133.37 103.397
129.38 131.954 104.045
128.225 132.654 102.969
131.137 129.646 104.542
124.975 134.517 102.589
127.259 133.348 101.889
129.635 131.832 102.809
133.416 144.511 109.616
132.086 145.953 108.91
132.994 145.141 107.982
130.572 146.934 108.088
131.105 146.136 110.003
134.111 143.736 111.311
134.884 142.981 110.342
133.931 144.057 107.109
132.476 145.255 106.272
131.649 144.994 111.917
133.433 143.913 112.543
132.615 143.737 113.782
134.629 142.329 112.756
130.187 145.36 110.894
131.571 142.986 114.419
133.315 142.207 115.184
135.695 141.911 109.389
135.34 142.564 107.765
136.683 140.798 108.485
134.965 142.799 106.34
136.204 141.085 110.814
137.644 138.857 109.102
137.301 139.559 107.545
131.306 146.052 105.043
130.043 146.983 105.998
129.7 146.473 103.914
128.926 146.672 107.147
132.266 144.656 104.478
129.622 145.438 102.166
127.951 145.915 103.24
127.926 144.015 108.923
127.952 142.251 109.652
126.817 142.928 107.992
127.832 140.829 110.662
128.668 141.51 111.461
129.123 144.785 109.844
128.227 145.382 107.915
126.217 142.94 106.105
126.015 141.659 106.997
129.558 142.131 112.406
129.899 143.853 111.665
130.58 142.528 113.524
129.496 140.44 113.373
131.231 141.353 115.489
127.632 145.561 106.05
126.516 144.043 105.012
126.931 145.179 104.024
125.659 142.429 104.111
126.753 144.401 102.166
126.082 140.21 107.885
127.089 139.803 109.791
126.309 138.616 109.044
127.958 139.161 111.563
125.374 140.237 106.146
125.82 137.497 108.327
126.712 137.072 110.006
141.353 110.482 104.013
141.665 111.821 105.335
142.078 112.579 103.106
141.601 113.308 106.592
141.155 111.218 107.414
139.582 110.113 105.394
139.802 111.464 103.494
142.262 113.199 100.794
142.155 114.532 102.492
140.405 109.991 108.753
138.88 109.265 107.438
138.652 109.486 109.789
138.446 110.886 106.85
140.678 112.043 109.508
138.907 110.301 111.677
137.674 110.964 110.604
139.737 113.018 101.884
140.762 113.459 100.072
139.799 114.72 100.378
141.811 114.769 99.044
139.017 113.078 103.719
138.538 115.78 101.463
139.195 116.057 99.246
141.692 115.689 104.178
141.917 115.259 106.116
141.942 117.445 105.446
141.587 115.008 107.717
141.908 116.311 102.307
141.75 119.079 104.679
142.011 118.843 106.598
136.76 115.866 107.691
137.443 114.48 106.451
137.082 116.656 106.428
138.34 113.683 105.212
137.822 112.475 106.6
136.346 115.499 109.001
135.811 117.183 108.836
136.715 118.783 106.599
137.331 117.789 105.434
137.565 112.308 108.237
136.598 114.035 109.537
137.12 112.447 110.016
136.001 115.543 110.725
137.139 112.79 111.752
135.312 119.072 108.686
135.845 120.056 107.537
135.005 121.236 108.452
136.182 121.034 106.58
134.715 118.464 109.928
134.407 122.518 109.36
134.763 123.496 108.256
137.751 116.989 104.163
138.392 114.842 103.925
138.095 116.305 102.812
137.26 118.965 104.402
137.533 117.53 101.809
136.955 136.498 114.653
136.845 138.166 113.5
137.586 135.776 113.482
136.55 139.744 112.192
135.824 140.378 113.237
136.305 136.854 115.682
137.15 134.772 115.764
138.354 133.681 113.384
138.22 135.192 112.45
135.158 140.674 114.284
135.552 138.746 115.759
134.44 140.575 115.564
137.936 132.635 115.654
138.492 132.14 114.312
138.462 130.305 115.156
138.045 136.388 111.416
137.266 138.877 111.24
137.822 137.677 110.24
134.264 141.55 103.439
133.999 140.495 102.01
135.302 139.626 103.077
133.403 139.398 100.985
132.571 141.089 101.162
133.303 143.211 103.928
134.504 142.284 104.938
136.383 138.771 103.903
135.804 137.635 103.006
131.698 142.571 101.248
132.076 143.807 102.875
130.701 144.116 101.687
135.867 141.211 105.592
136.751 139.231 104.976
137.033 139.474 106.251
135.667 136.33 102.348
134.223 137.266 101.426
135.45 135.169 101.679
140.48 117.131 112.463
140.813 118.485 111.451
140.817 116.132 110.778
141.248 119.747 110.59
140.712 120.65 111.924
139.836 118.283 113.897
139.945 116.101 113.396
140.904 113.931 110.142
141.316 115.337 109.203
140.264 121.616 113.136
139.73 120.427 114.207
139.72 122.802 114.361
139.641 114.141 113.068
140.361 112.914 111.397
139.641 112.015 112.64
141.527 117.194 108.537
141.618 119.458 109.321
141.818 119.205 107.859
140.761 121.091 100.963
140.827 120.112 99.5322
141.728 118.439 99.7447
140.551 120.066 98.5758
139.556 122.193 100.468
140.323 124.34 101.641
141.038 122.249 101.996
141.87 116.948 100.807
142.202 116.545 98.972
139.026 124.797 101.168
139.486 125.929 101.719
138.232 127.75 101.679
141.224 121.28 102.699
141.719 118.568 102.34
141.46 120.145 103.76
141.47 116.917 97.2534
140.181 119.11 97.7333
139.251 117.242 98.2163
130.113 135.259 116.588
129.344 134.713 115.438
129.203 136.723 115.105
128.753 134.147 114.317
129.415 132.792 115.666
131.092 133.622 117.775
131.094 135.779 117.491
129.467 138.551 114.529
128.573 137.971 113.419
130.1 131.24 116.634
131.034 131.662 117.743
131.096 129.535 117.504
131.054 137.784 116.917
130.181 139.226 115.276
131.038 139.71 116.417
127.931 137.33 112.36
128.119 135.189 112.964
127.657 136.23 111.404
123.931 137.287 102.217
123.923 137.915 100.99
124.344 138.923 102.778
124.538 139.002 99.8223
123.911 137.005 99.4888
123.793 135.559 101.934
124.367 136.6 103.627
124.826 139.735 104.574
124.926 140.653 103.215
123.983 134.845 99.4695
124.4 134.389 101.218
125.782 133.95 100.8
124.4 136.718 105.362
124.827 138.552 105.835
125.119 137.123 107.015
125.388 141.612 102.372
125.169 140.705 100.407
125.983 142.758 101.361
133.229 120.001 113.57
134.008 118.776 114.479
134.069 118.573 112.814
134.891 117.579 115.313
133.966 119.268 116.101
132.488 121.598 114.177
132.67 121.479 112.736
134.356 118.506 111.329
134.953 117.115 111.922
133.023 121 116.467
132.441 122.442 115.357
132.4 123.064 116.686
133.019 121.898 111.479
133.919 120.181 110.666
133.795 122.331 110.39
135.787 115.879 112.328
135.688 116.09 114.088
136.604 114.472 112.865
135.381 124.744 103.968
134.506 125.837 104.779
135.81 123.373 104.813
133.732 126.836 105.475
132.799 127.974 104.593
134.802 126.095 103.366
136.182 123.539 103.035
136.802 121.017 104.55
136.153 122.201 105.656
131.857 128.815 103.738
132.922 128.062 103.135
131.176 130.073 103.028
136.733 121.557 102.464
137.066 120.29 103.375
137.118 119.449 102.024
135.526 123.47 106.513
134.294 125.835 106.321
134.813 124.78 107.362
POLYGONS 1280  5120
3 164 162 163
3 163 44 164
3 162 43 163
3 164 42 162
3 166 165 163
3 163 43 166
3 165 44 163
3 166 14 165
3 168 167 162
3 162 42 168
3 167 43 162
3 168 13 167
3 170 169 164
3 164 44 170
3 169 42 164
3 170 12 169
3 173 171 172
3 172 46 173
3 171 43 172
3 173 45 171
3 167 174 172
3 172 43 167
3 174 46 172
3 167 13 174
3 175 166 171
3 171 45 175
3 166 43 171
3 175 14 166
3 177 176 173
3 173 46 177
3 176 45 173
3 177 4 176
3 180 178 179
3 179 48 180
3 178 42 179
3 180 47 178
3 169 181 179
3 179 42 169
3 181 48 179
3 169 12 181
3 182 168 178
3 178 47 182
3 168 42 178
3 182 13 168
3 184 183 180
3 180 48 184
3 183 47 180
3 184 8 183
3 187 185 186
3 186 50 187
3 185 44 186
3 187 49 185
3 165 188 186
3 186 44 165
3 188 50 186
3 165 14 188
3 189 170 185
3 185 49 189
3 170 44 185
3 189 12 170
3 191 190 187
3 187 50 191
3 190 49 187
3 191 7 190
3 194 192 193
3 193 53 194
3 192 52 193
3 194 51 192
3 196 195 193
3 193 52 196
3 195 53 193
3 196 16 195
3 198 197 192
3 192 51 198
3 197 52 192
3 198 14 197
3 200 199 194
3 194 53 200
3 199 51 194
3 200 15 199
3 203 201 202
3 202 45 203
3 201 52 202
3 203 54 201
3 197 175 202
3 202 52 197
3 175 45 202
3 197 14 175
3 204 196 201
3 201 54 204
3 196 52 201
3 204 16 196
3 176 205 203
3 203 45 176
3 205 54 203
3 176 4 205
3 208 206 207
3 207 55 208
3 206 51 207
3 208 50 206
3 199 209 207
3 207 51 199
3 209 55 207
3 199 15 209
3 188 198 206
3 206 50 188
3 198 51 206
3 188 14 198
3 210 191 208
3 208 55 210
3 191 50 208
3 210 7 191
3 213 211 212
3 212 57 213
3 211 53 212
3 213 56 211
3 195 214 212
3 212 53 195
3 214 57 212
3 195 16 214
3 215 200 211
3 211 56 215
3 200 53 211
3 215 15 200
3 217 216 213
3 213 57 217
3 216 56 213
3 217 9 216
3 220 218 219
3 219 60 220
3 218 59 219
3 220 58 218
3 222 221 219
3 219 59 222
3 221 60 219
3 222 19 221
3 224 223 218
3 218 58 224
3 223 59 218
3 224 18 223
3 226 225 220
3 220 60 226
3 225 58 220
3 226 17 225
3 229 227 228
3 228 62 229
3 227 59 228
3 229 61 227
3 223 230 228
3 228 59 223
3 230 62 228
3 223 18 230
3 231 222 227
3 227 61 231
3 222 59 227
3 231 19 222
3 233 232 229
3 229 62 233
3 232 61 229
3 233 5 232
3 236 234 235
3 235 64 236
3 234 58 235
3 236 63 234
3 225 237 235
3 235 58 225
3 237 64 235
3 225 17 237
3 238 224 234
3 234 63 238
3 224 58 234
3 238 18 224
3 240 239 236
3 236 64 240
3 239 63 236
3 240 6 239
3 243 241 242
3 242 66 243
3 241 60 242
3 243 65 241
3 221 244 242
3 242 60 221
3 244 66 242
3 221 19 244
3 245 226 241
3 241 65 245
3 226 60 241
3 245 17 226
3 247 246 243
3 243 66 247
3 246 65 243
3 247 11 246
3 250 248 249
3 249 69 250
3 248 68 249
3 250 67 248
3 252 251 249
3 249 68 252
3 251 69 249
3 252 18 251
3 254 253 248
3 248 67 254
3 253 68 248
3 254 21 253
3 256 255 250
3 250 69 256
3 255 67 250
3 256 20 255
3 259 257 258
3 258 70 259
3 257 68 258
3 259 62 257
3 253 260 258
3 258 68 253
3 260 70 258
3 253 21 260
3 230 252 257
3 257 62 230
3 252 68 257
3 230 18 252
3 261 233 259
3 259 70 261
3 233 62 259
3 261 5 233
3 264 262 263
3 263 72 264
3 262 67 263
3 264 71 262
3 255 265 263
3 263 67 255
3 265 72 263
3 255 20 265
3 266 254 262
3 262 71 266
3 254 67 262
3 266 21 254
3 268 267 264
3 264 72 268
3 267 71 264
3 268 10 267
3 271 269 270
3 270 63 271
3 269 69 270
3 271 73 269
3 251 238 270
3 270 69 251
3 238 63 270
3 251 18 238
3 272 256 269
3 269 73 272
3 256 69 269
3 272 20 256
3 239 273 271
3 271 63 239
3 273 73 271
3 239 6 273
3 276 274 275
3 275 76 276
3 274 75 275
3 276 74 274
3 278 277 275
3 275 75 278
3 277 76 275
3 278 24 277
3 280 279 274
3 274 74 280
3 279 75 274
3 280 23 279
3 282 281 276
3 276 76 282
3 281 74 276
3 282 22 281
3 285 283 284
3 284 78 285
3 283 75 284
3 285 77 283
3 279 286 284
3 284 75 279
3 286 78 284
3 279 23 286
3 287 278 283
3 283 77 287
3 278 75 283
3 287 24 278
3 289 288 285
3 285 78 289
3 288 77 285
3 289 0 288
3 292 290 291
3 291 80 292
3 290 74 291
3 292 79 290
3 281 293 291
3 291 74 281
3 293 80 291
3 281 22 293
3 294 280 290
3 290 79 294
3 280 74 290
3 294 23 280
3 296 295 292
3 292 80 296
3 295 79 292
3 296 4 295
3 299 297 298
3 298 82 299
3 297 76 298
3 299 81 297
3 277 300 298
3 298 76 277
3 300 82 298
3 277 24 300
3 301 282 297
3 297 81 301
3 282 76 297
3 301 22 282
3 303 302 299
3 299 82 303
3 302 81 299
3 303 3 302
3 306 304 305
3 305 85 306
3 304 84 305
3 306 83 304
3 308 307 305
3 305 84 308
3 307 85 305
3 308 26 307
3 310 309 304
3 304 83 310
3 309 84 304
3 310 24 309
3 312 311 306
3 306 85 312
3 311 83 306
3 312 25 311
3 315 313 314
3 314 77 315
3 313 84 314
3 315 86 313
3 309 287 314
3 314 84 309
3 287 77 314
3 309 24 287
3 316 308 313
3 313 86 316
3 308 84 313
3 316 26 308
3 288 317 315
3 315 77 288
3 317 86 315
3 288 0 317
3 320 318 319
3 319 87 320
3 318 83 319
3 320 82 318
3 311 321 319
3 319 83 311
3 321 87 319
3 311 25 321
3 300 310 318
3 318 82 300
3 310 83 318
3 300 24 310
3 322 303 320
3 320 87 322
3 303 82 320
3 322 3 303
3 325 323 324
3 324 89 325
3 323 85 324
3 325 88 323
3 307 326 324
3 324 85 307
3 326 89 324
3 307 26 326
3 327 312 323
3 323 88 327
3 312 85 323
3 327 25 312
3 329 328 325
3 325 89 329
3 328 88 325
3 329 5 328
3 332 330 331
3 331 92 332
3 330 91 331
3 332 90 330
3 334 333 331
3 331 91 334
3 333 92 331
3 334 29 333
3 336 335 330
3 330 90 336
3 335 91 330
3 336 28 335
3 338 337 332
3 332 92 338
3 337 90 332
3 338 27 337
3 341 339 340
3 340 94 341
3 339 91 340
3 341 93 339
3 335 342 340
3 340 91 335
3 342 94 340
3 335 28 342
3 343 334 339
3 339 93 343
3 334 91 339
3 343 29 334
3 345 344 341
3 341 94 345
3 344 93 341
3 345 2 344
3 348 346 347
3 347 96 348
3 346 90 347
3 348 95 346
3 337 349 347
3 347 90 337
3 349 96 347
3 337 27 349
3 350 336 346
3 346 95 350
3 336 90 346
3 350 28 336
3 352 351 348
3 348 96 352
3 351 95 348
3 352 7 351
3 355 353 354
3 354 98 355
3 353 92 354
3 355 97 353
3 333 356 354
3 354 92 333
3 356 98 354
3 333 29 356
3 357 338 353
3 353 97 357
3 338 92 353
3 357 27 338
3 359 358 355
3 355 98 359
3 358 97 355
3 359 1 358
3 362 360 361
3 361 101 362
3 360 100 361
3 362 99 360
3 364 363 361
3 361 100 364
3 363 101 361
3 364 31 363
3 366 365 360
3 360 99 366
3 365 100 360
3 366 29 365
3 368 367 362
3 362 101 368
3 367 99 362
3 368 30 367
3 371 369 370
3 370 93 371
3 369 100 370
3 371 102 369
3 365 343 370
3 370 100 365
3 343 93 370
3 365 29 343
3 372 364 369
3 369 102 372
3 364 100 369
3 372 31 364
3 344 373 371
3 371 93 344
3 373 102 371
3 344 2 373
3 376 374 375
3 375 103 376
3 374 99 375
3 376 98 374
3 367 377 375
3 375 99 367
3 377 103 375
3 367 30 377
3 356 366 374
3 374 98 356
3 366 99 374
3 356 29 366
3 378 359 376
3 376 103 378
3 359 98 376
3 378 1 359
3 381 379 380
3 380 105 381
3 379 101 380
3 381 104 379
3 363 382 380
3 380 101 363
3 382 105 380
3 363 31 382
3 383 368 379
3 379 104 383
3 368 101 379
3 383 30 368
3 385 384 381
3 381 105 385
3 384 104 381
3 385 6 384
3 388 386 387
3 387 108 388
3 386 107 387
3 388 106 386
3 390 389 387
3 387 107 390
3 389 108 387
3 390 34 389
3 392 391 386
3 386 106 392
3 391 107 386
3 392 33 391
3 394 393 388
3 388 108 394
3 393 106 388
3 394 32 393
3 397 395 396
3 396 110 397
3 395 107 396
3 397 109 395
3 391 398 396
3 396 107 391
3 398 110 396
3 391 33 398
3 399 390 395
3 395 109 399
3 390 107 395
3 399 34 390
3 401 400 397
3 397 110 401
3 400 109 397
3 401 8 400
3 404 402 403
3 403 112 404
3 402 106 403
3 404 111 402
3 393 405 403
3 403 106 393
3 405 112 403
3 393 32 405
3 406 392 402
3 402 111 406
3 392 106 402
3 406 33 392
3 408 407 404
3 404 112 408
3 407 111 404
3 408 0 407
3 411 409 410
3 410 114 411
3 409 108 410
3 411 113 409
3 389 412 410
3 410 108 389
3 412 114 410
3 389 34 412
3 413 394 409
3 409 113 413
3 394 108 409
3 413 32 394
3 415 414 411
3 411 114 415
3 414 113 411
3 415 11 414
3 418 416 417
3 417 117 418
3 416 116 417
3 418 115 416
3 420 419 417
3 417 116 420
3 419 117 417
3 420 36 419
3 422 421 416
3 416 115 422
3 421 116 416
3 422 34 421
3 424 423 418
3 418 117 424
3 423 115 418
3 424 35 423
3 427 425 426
3 426 109 427
3 425 116 426
3 427 118 425
3 421 399 426
3 426 116 421
3 399 109 426
3 421 34 399
3 428 420 425
3 425 118 428
3 420 116 425
3 428 36 420
3 400 429 427
3 427 109 400
3 429 118 427
3 400 8 429
3 432 430 431
3 431 119 432
3 430 115 431
3 432 114 430
3 423 433 431
3 431 115 423
3 433 119 431
3 423 35 433
3 412 422 430
3 430 114 412
3 422 115 430
3 412 34 422
3 434 415 432
3 432 119 434
3 415 114 432
3 434 11 415
3 437 435 436
3 436 121 437
3 435 117 436
3 437 120 435
3 419 438 436
3 436 117 419
3 438 121 436
3 419 36 438
3 439 424 435
3 435 120 439
3 424 117 435
3 439 35 424
3 441 440 437
3 437 121 441
3 440 120 437
3 441 1 440
3 444 442 443
3 443 124 444
3 442 123 443
3 444 122 442
3 446 445 443
3 443 123 446
3 445 124 443
3 446 39 445
3 448 447 442
3 442 122 448
3 447 123 442
3 448 38 447
3 450 449 444
3 444 124 450
3 449 122 444
3 450 37 449
3 453 451 452
3 452 126 453
3 451 123 452
3 453 125 451
3 447 454 452
3 452 123 447
3 454 126 452
3 447 38 454
3 455 446 451
3 451 125 455
3 446 123 451
3 455 39 446
3 457 456 453
3 453 126 457
3 456 125 453
3 457 9 456
3 460 458 459
3 459 128 460
3 458 122 459
3 460 127 458
3 449 461 459
3 459 122 449
3 461 128 459
3 449 37 461
3 462 448 458
3 458 127 462
3 448 122 458
3 462 38 448
3 464 463 460
3 460 128 464
3 463 127 460
3 464 10 463
3 467 465 466
3 466 130 467
3 465 124 466
3 467 129 465
3 445 468 466
3 466 124 445
3 468 130 466
3 445 39 468
3 469 450 465
3 465 129 469
3 450 124 465
3 469 37 450
3 471 470 467
3 467 130 471
3 470 129 467
3 471 3 470
3 474 472 473
3 473 133 474
3 472 132 473
3 474 131 472
3 476 475 473
3 473 132 476
3 475 133 473
3 476 38 475
3 478 477 472
3 472 131 478
3 477 132 472
3 478 41 477
3 480 479 474
3 474 133 480
3 479 131 474
3 480 40 479
3 483 481 482
3 482 134 483
3 481 132 482
3 483 126 481
3 477 484 482
3 482 132 477
3 484 134 482
3 477 41 484
3 454 476 481
3 481 126 454
3 476 132 481
3 454 38 476
3 485 457 483
3 483 134 485
3 457 126 483
3 485 9 457
3 488 486 487
3 487 136 488
3 486 131 487
3 488 135 486
3 479 489 487
3 487 131 479
3 489 136 487
3 479 40 489
3 490 478 486
3 486 135 490
3 478 131 486
3 490 41 478
3 492 491 488
3 488 136 492
3 491 135 488
3 492 2 491
3 495 493 494
3 494 127 495
3 493 133 494
3 495 137 493
3 475 462 494
3 494 133 475
3 462 127 494
3 475 38 462
3 496 480 493
3 493 137 496
3 480 133 493
3 496 40 480
3 463 497 495
3 495 127 463
3 497 137 495
3 463 10 497
3 500 498 499
3 499 140 500
3 498 139 499
3 500 138 498
3 502 501 499
3 499 139 502
3 501 140 499
3 502 33 501
3 504 503 498
3 498 138 504
3 503 139 498
3 504 13 503
3 506 505 500
3 500 140 506
3 505 138 500
3 506 23 505
3 509 507 508
3 508 47 509
3 507 139 508
3 509 110 507
3 503 182 508
3 508 139 503
3 182 47 508
3 503 13 182
3 398 502 507
3 507 110 398
3 502 139 507
3 398 33 502
3 183 401 509
3 509 47 183
3 401 110 509
3 183 8 401
3 512 510 511
3 511 79 512
3 510 138 511
3 512 46 510
3 505 294 511
3 511 138 505
3 294 79 511
3 505 23 294
3 174 504 510
3 510 46 174
3 504 138 510
3 174 13 504
3 295 177 512
3 512 79 295
3 177 46 512
3 295 4 177
3 515 513 514
3 514 111 515
3 513 140 514
3 515 78 513
3 501 406 514
3 514 140 501
3 406 111 514
3 501 33 406
3 286 506 513
3 513 78 286
3 506 140 513
3 286 23 506
3 407 289 515
3 515 111 407
3 289 78 515
3 407 0 289
3 518 516 517
3 517 143 518
3 516 142 517
3 518 141 516
3 520 519 517
3 517 142 520
3 519 143 517
3 520 19 519
3 522 521 516
3 516 141 522
3 521 142 516
3 522 32 521
3 524 523 518
3 518 143 524
3 523 141 518
3 524 26 523
3 527 525 526
3 526 113 527
3 525 142 526
3 527 66 525
3 521 413 526
3 526 142 521
3 413 113 526
3 521 32 413
3 244 520 525
3 525 66 244
3 520 142 525
3 244 19 520
3 414 247 527
3 527 113 414
3 247 66 527
3 414 11 247
3 530 528 529
3 529 86 530
3 528 141 529
3 530 112 528
3 523 316 529
3 529 141 523
3 316 86 529
3 523 26 316
3 405 522 528
3 528 112 405
3 522 141 528
3 405 32 522
3 317 408 530
3 530 86 317
3 408 112 530
3 317 0 408
3 533 531 532
3 532 61 533
3 531 143 532
3 533 89 531
3 519 231 532
3 532 143 519
3 231 61 532
3 519 19 231
3 326 524 531
3 531 89 326
3 524 143 531
3 326 26 524
3 232 329 533
3 533 61 232
3 329 89 533
3 232 5 329
3 536 534 535
3 535 146 536
3 534 145 535
3 536 144 534
3 538 537 535
3 535 145 538
3 537 146 535
3 538 22 537
3 540 539 534
3 534 144 540
3 539 145 534
3 540 16 539
3 542 541 536
3 536 146 542
3 541 144 536
3 542 39 541
3 545 543 544
3 544 54 545
3 543 145 544
3 545 80 543
3 539 204 544
3 544 145 539
3 204 54 544
3 539 16 204
3 293 538 543
3 543 80 293
3 538 145 543
3 293 22 538
3 205 296 545
3 545 54 205
3 296 80 545
3 205 4 296
3 548 546 547
3 547 125 548
3 546 144 547
3 548 57 546
3 541 455 547
3 547 144 541
3 455 125 547
3 541 39 455
3 214 540 546
3 546 57 214
3 540 144 546
3 214 16 540
3 456 217 548
3 548 125 456
3 217 57 548
3 456 9 217
3 551 549 550
3 550 81 551
3 549 146 550
3 551 130 549
3 537 301 550
3 550 146 537
3 301 81 550
3 537 22 301
3 468 542 549
3 549 130 468
3 542 146 549
3 468 39 542
3 302 471 551
3 551 81 302
3 471 130 551
3 302 3 471
3 554 552 553
3 553 149 554
3 552 148 553
3 554 147 552
3 556 555 553
3 553 148 556
3 555 149 553
3 556 21 555
3 558 557 552
3 552 147 558
3 557 148 552
3 558 25 557
3 560 559 554
3 554 149 560
3 559 147 554
3 560 37 559
3 563 561 562
3 562 88 563
3 561 148 562
3 563 70 561
3 557 327 562
3 562 148 557
3 327 88 562
3 557 25 327
3 260 556 561
3 561 70 260
3 556 148 561
3 260 21 556
3 328 261 563
3 563 88 328
3 261 70 563
3 328 5 261
3 566 564 565
3 565 129 566
3 564 147 565
3 566 87 564
3 559 469 565
3 565 147 559
3 469 129 565
3 559 37 469
3 321 558 564
3 564 87 321
3 558 147 564
3 321 25 558
3 470 322 566
3 566 129 470
3 322 87 566
3 470 3 322
3 569 567 568
3 568 71 569
3 567 149 568
3 569 128 567
3 555 266 568
3 568 149 555
3 266 71 568
3 555 21 266
3 461 560 567
3 567 128 461
3 560 149 567
3 461 37 560
3 267 464 569
3 569 71 267
3 464 128 569
3 267 10 464
3 572 570 571
3 571 152 572
3 570 151 571
3 572 150 570
3 574 573 571
3 571 151 574
3 573 152 571
3 574 27 573
3 576 575 570
3 570 150 576
3 575 151 570
3 576 12 575
3 578 577 572
3 572 152 578
3 577 150 572
3 578 36 577
3 581 579 580
3 580 49 581
3 579 151 580
3 581 96 579
3 575 189 580
3 580 151 575
3 189 49 580
3 575 12 189
3 349 574 579
3 579 96 349
3 574 151 579
3 349 27 574
3 190 352 581
3 581 49 190
3 352 96 581
3 190 7 352
3 584 582 583
3 583 118 584
3 582 150 583
3 584 48 582
3 577 428 583
3 583 150 577
3 428 118 583
3 577 36 428
3 181 576 582
3 582 48 181
3 576 150 582
3 181 12 576
3 429 184 584
3 584 118 429
3 184 48 584
3 429 8 184
3 587 585 586
3 586 97 587
3 585 152 586
3 587 121 585
3 573 357 586
3 586 152 573
3 357 97 586
3 573 27 357
3 438 578 585
3 585 121 438
3 578 152 585
3 438 36 578
3 358 441 587
3 587 97 358
3 441 121 587
3 358 1 441
3 590 588 589
3 589 155 590
3 588 154 589
3 590 153 588
3 592 591 589
3 589 154 592
3 591 155 589
3 592 17 591
3 594 593 588
3 588 153 594
3 593 154 588
3 594 30 593
3 596 595 590
3 590 155 596
3 595 153 590
3 596 35 595
3 599 597 598
3 598 104 599
3 597 154 598
3 599 64 597
3 593 383 598
3 598 154 593
3 383 104 598
3 593 30 383
3 237 592 597
3 597 64 237
3 592 154 597
3 237 17 592
3 384 240 599
3 599 104 384
3 240 64 599
3 384 6 240
3 602 600 601
3 601 120 602
3 600 153 601
3 602 103 600
3 595 439 601
3 601 153 595
3 439 120 601
3 595 35 439
3 377 594 600
3 600 103 377
3 594 153 600
3 377 30 594
3 440 378 602
3 602 120 440
3 378 103 602
3 440 1 378
3 605 603 604
3 604 65 605
3 603 155 604
3 605 119 603
3 591 245 604
3 604 155 591
3 245 65 604
3 591 17 245
3 433 596 603
3 603 119 433
3 596 155 603
3 433 35 596
3 246 434 605
3 605 65 246
3 434 119 605
3 246 11 434
3 608 606 607
3 607 158 608
3 606 157 607
3 608 156 606
3 610 609 607
3 607 157 610
3 609 158 607
3 610 15 609
3 612 611 606
3 606 156 612
3 611 157 606
3 612 28 611
3 614 613 608
3 608 158 614
3 613 156 608
3 614 41 613
3 617 615 616
3 616 95 617
3 615 157 616
3 617 55 615
3 611 350 616
3 616 157 611
3 350 95 616
3 611 28 350
3 209 610 615
3 615 55 209
3 610 157 615
3 209 15 610
3 351 210 617
3 617 95 351
3 210 55 617
3 351 7 210
3 620 618 619
3 619 135 620
3 618 156 619
3 620 94 618
3 613 490 619
3 619 156 613
3 490 135 619
3 613 41 490
3 342 612 618
3 618 94 342
3 612 156 618
3 342 28 612
3 491 345 620
3 620 135 491
3 345 94 620
3 491 2 345
3 623 621 622
3 622 56 623
3 621 158 622
3 623 134 621
3 609 215 622
3 622 158 609
3 215 56 622
3 609 15 215
3 484 614 621
3 621 134 484
3 614 158 621
3 484 41 614
3 216 485 623
3 623 56 216
3 485 134 623
3 216 9 485
3 626 624 625
3 625 161 626
3 624 160 625
3 626 159 624
3 628 627 625
3 625 160 628
3 627 161 625
3 628 31 627
3 630 629 624
3 624 159 630
3 629 160 624
3 630 20 629
3 632 631 626
3 626 161 632
3 631 159 626
3 632 40 631
3 635 633 634
3 634 73 635
3 633 160 634
3 635 105 633
3 629 272 634
3 634 160 629
3 272 73 634
3 629 20 272
3 382 628 633
3 633 105 382
3 628 160 633
3 382 31 628
3 273 385 635
3 635 73 273
3 385 105 635
3 273 6 385
3 638 636 637
3 637 137 638
3 636 159 637
3 638 72 636
3 631 496 637
3 637 159 631
3 496 137 637
3 631 40 496
3 265 630 636
3 636 72 265
3 630 159 636
3 265 20 630
3 497 268 638
3 638 137 497
3 268 72 638
3 497 10 268
3 641 639 640
3 640 102 641
3 639 161 640
3 641 136 639
3 627 372 640
3 640 161 627
3 372 102 640
3 627 31 372
3 489 632 639
3 639 136 489
3 632 161 639
3 489 40 632
3 373 492 641
3 641 102 373
3 492 136 641
3 373 2 492
