# vtk DataFile Version 3.0
this file was written using fslvtkio
ASCII
DATASET POLYDATA
POINTS 664 float
89.0164 120.127 76.3596
87.1356 119.602 76.4872
88.1422 118.146 76.8752
90.2772 118.454 77.3322
91.0672 120.158 77.0794
91.633 118.867 77.7415
86.8444 121.261 76.2346
84.433 120.672 76.7071
85.4023 119.577 76.4927
88.9937 122.11 76.2094
90.7473 121.814 76.3868
92.4514 120.027 77.7346
92.4731 121.61 77.0515
93.3839 120.67 77.9204
93.8055 121.637 77.7758
94.4433 120.707 78.4748
86.0603 122.802 76.9937
84.2221 122.207 78.0109
88.1547 123.539 76.4266
90.387 123.96 76.6079
92.227 123.562 76.7296
93.7671 122.9 77.595
95.0215 121.832 78.5299
86.1509 123.644 78.3931
85.6171 122.889 79.5043
87.9145 124.527 77.9793
89.9706 125.456 77.5161
92.1033 125.567 77.2881
93.9187 124.737 77.6233
95.2927 123.521 78.5208
87.6991 124.305 79.577
89.7433 125.33 79.3305
91.8102 126.074 79.0871
93.9509 126.061 79.0078
95.2587 125.105 79.0338
86.0319 118.471 76.592
83.8181 118.242 77.0205
85.6544 117.277 76.799
87.2816 116.597 77.2503
89.6572 116.668 77.7471
91.9105 117.512 78.5222
92.7077 118.873 78.3914
93.5275 118.03 79.1006
82.7391 120.31 77.8077
93.9389 119.602 78.8851
95.5722 120.2 79.459
83.3985 121.736 79.6415
96.4275 122.179 79.5622
85.3964 122.4 80.7144
96.4829 124.254 79.8066
87.4239 123.231 80.7717
89.5905 124.233 80.8005
91.5883 125.226 80.8062
93.7263 125.838 80.8475
95.8711 125.693 80.8568
86.0536 113.903 78.2566
84.3038 113.442 78.9589
85.762 112.75 79.2759
87.1106 112.423 79.3284
88.1374 113.758 78.6347
88.704 112.83 79.7712
84.6346 115.894 77.6005
82.7626 114.776 78.2489
87.3793 115.224 77.8392
89.4899 113.868 79.3633
89.6105 115.028 78.499
90.8439 114.444 79.4094
82.3196 116.658 77.8372
80.2007 117.014 79.3464
81.1553 115.276 78.9986
91.661 115.995 79.0779
94.5307 116.628 79.9233
94.8793 118.495 79.4488
96.1327 118.509 80.5146
81.4185 118.64 78.0984
80.0921 118.92 79.9011
97.0008 120.475 80.6209
81.4862 120.315 79.5034
81.1419 119.699 81.6167
97.4507 121.855 80.8381
97.3973 123.421 80.6739
98.5717 122.624 81.6619
82.8809 120.926 81.0916
84.7187 121.494 81.8028
97.2617 124.768 81.2117
98.5237 124.054 82.0722
87.0894 122.086 81.6087
89.3504 122.564 81.5938
91.3474 123.57 81.8151
93.2386 124.773 82.1381
95.4477 125.403 82.5657
97.6188 125.188 82.8011
85.7638 111.3 80.1394
84.08 110.485 80.6809
84.9911 109.687 81.3354
86.9318 109.769 81.2903
88.4303 111.5 80.648
89.1858 110.019 81.8899
90.7642 111.428 81.4947
91.4272 109.922 82.8987
83.5192 111.817 80.0579
81.8821 110.742 80.8924
83.0347 110.442 80.8165
90.4183 113.072 80.404
92.9384 111.358 81.9988
92.648 113.23 81.1259
94.0167 112.579 81.884
94.412 113.844 81.4078
95.3929 113.502 82.1635
80.877 112.39 80.4863
78.9515 112.644 81.659
79.8921 111.039 81.5032
81.9686 113.532 79.3271
92.4644 114.833 79.9434
94.2348 114.742 80.5771
96.0373 115.162 81.5027
79.6747 114.492 80.312
78.4684 114.575 82.445
97.115 117.151 81.4049
98.0876 119.461 81.4912
98.6949 118.289 82.2215
99.4763 119.603 82.6437
100.083 118.609 83.2248
79.3167 116.229 81.2814
79.7972 118.069 81.9347
98.555 121.256 81.8581
99.7995 120.934 82.8865
100.839 119.991 83.9056
81.7928 118.886 83.4114
100.024 122.766 82.8069
101.276 121.829 84.2971
83.3079 120.177 82.5912
85.3403 120.274 83.0229
99.3401 124.185 83.343
100.899 123.64 84.6036
86.7777 121.117 82.6029
88.6447 121.543 82.3342
90.784 121.939 82.7822
92.7113 123.058 83.0616
94.6552 124.083 83.8346
96.865 124.744 84.3385
98.9232 124.453 84.5955
83.3845 107.372 82.184
81.4294 106.963 82.5149
82.5437 105.878 82.7426
84.556 106.305 82.8343
85.4444 108.034 81.9463
86.5433 106.746 83.194
87.7008 108.422 82.439
88.6888 107.229 83.6687
89.7969 108.699 82.9197
91.0056 108.012 84.2276
82.8933 109.029 81.6212
80.7921 108.312 82.34
92.6957 108.964 84.4422
80.7034 109.626 81.7829
78.6005 110.599 83.1374
79.3085 108.67 82.7157
93.6923 110.302 83.4498
95.1335 111.691 82.9245
96.7809 113.373 82.8171
77.9533 112.6 83.7806
97.9406 114.523 82.8955
78.799 114.623 84.564
98.3431 115.944 82.6638
99.4561 117.259 83.1935
101.067 118.282 84.5674
79.3853 116.549 83.4662
80.8067 117.715 84.5112
102.187 120.33 85.576
83.2889 118.142 85.0736
102.16 122.432 86.2313
84.2166 119.333 83.9848
85.8873 119.375 83.9465
91.2175 121.024 83.8762
90.7903 119.97 84.6145
90.0387 120.593 83.6827
91.8913 120.536 84.8657
100.252 123.474 86.3538
86.9426 120.017 83.3394
88.6369 120.344 83.1859
92.2768 121.845 84.0489
93.9596 122.627 84.7192
95.9711 123.311 85.241
97.9772 123.825 85.9579
84.2342 103.303 84.1163
82.9708 101.937 84.5226
84.2343 101.822 84.6251
85.5053 101.96 84.7257
86.3447 103.763 84.4143
87.3059 102.344 85.1558
88.2209 104.386 84.8031
88.7899 102.908 85.7626
89.7254 104.631 85.368
90.384 103.733 86.189
81.9027 103.414 83.9903
80.0334 103.389 84.7081
81.1952 102.083 84.9562
83.1239 104.613 83.2206
85.3269 104.93 83.5898
87.4415 105.505 83.9394
89.5504 106.214 84.7835
91.2219 105.937 85.4959
80.7702 105.112 83.5051
78.9152 105.552 84.523
92.6416 107.607 85.3544
79.6944 107.16 83.3496
78.4116 108.672 84.3808
93.6075 108.51 85.6515
78.2035 111.073 85.5434
94.6037 109.48 85.1548
95.7728 110.506 84.6209
97.1869 111.963 83.9748
98.5074 113.694 84.1926
98.5197 112.794 85.3543
78.7515 112.894 85.7125
99.258 115.07 84.1823
99.6081 114.737 86.2194
79.9725 114.232 86.2987
100.529 116.497 85.1139
102.188 118.408 86.4048
80.3595 116.123 85.3773
82.6338 116.741 86.0874
102.664 120.777 87.5892
84.9206 117.264 86.2741
85.7469 118.254 85.0114
87.9589 118.257 85.4157
86.9298 117.149 86.167
89.9449 118.334 85.7082
88.8842 117.377 86.4685
91.6826 119.031 85.7614
90.8757 117.278 86.757
93.9658 119.813 86.458
92.9992 118.205 86.956
95.8708 120.576 87.1257
95.1985 118.772 87.5422
96.8579 119.499 88.1453
101.017 122.147 87.9479
87.5029 119.165 84.246
89.4887 119.253 84.4868
93.1143 120.874 85.418
95.0402 121.807 86.0182
97.4634 120.943 87.987
97.0711 122.304 86.8773
99.0804 122.735 87.2536
99.156 121.6 88.3431
84.3255 100.383 85.1332
82.7293 99.3849 85.4582
83.8841 98.6352 85.7854
85.6086 98.8874 85.7886
86.4462 100.615 85.4715
87.5496 99.3673 86.3112
88.316 101.041 86.0887
89.7991 100.278 87.3077
89.6742 101.948 86.3748
90.8395 102.101 87.1445
82.0753 100.689 85.1545
80.0778 100.929 85.9704
81.0883 99.3261 85.7684
91.6206 103.974 86.6381
79.0883 102.794 86.1148
92.4669 104.98 86.4025
92.9608 106.397 86.3019
93.6211 105.136 87.239
78.8636 104.832 86.1008
78.9098 105.351 87.2678
79.0673 103.821 87.1556
93.5805 107.837 86.7061
93.6172 106.839 87.5884
78.4527 106.84 85.7652
78.7099 107.065 87.4481
94.6665 108.968 86.5916
94.6268 109.061 88.1832
78.3519 108.983 86.4142
79.291 108.624 88.0289
95.9533 109.956 86.9995
97.3352 111.164 85.9074
98.4328 112.788 86.7738
79.4495 110.448 87.4123
80.3012 112.174 87.3112
98.7988 114.113 87.7853
81.693 113.526 87.2144
101.063 116.74 87.3674
99.4288 115.703 88.3933
81.6667 115.298 86.6799
83.2796 115.551 87.3784
92.7038 116.387 87.424
92.3546 115.058 87.7224
91.0967 115.281 87.2793
94.7315 117.022 87.7943
93.5829 115.377 88.0983
97.0292 117.862 88.6643
95.5184 115.93 88.5786
99.6502 118.082 88.8829
97.6062 116.174 89.1161
101.653 118.996 88.1944
84.4631 116.246 87.1611
86.3943 115.886 87.0471
88.8626 115.925 87.1259
98.6068 119.752 88.8187
100.758 120.389 88.9011
85.4078 95.6432 87.4517
83.7133 95.109 87.5319
84.5764 93.7713 88.2152
86.9922 94.7066 88.1671
87.4094 96.469 87.3662
88.4321 95.8542 88.3518
89.1175 97.4183 87.916
90.1083 96.5962 88.7913
83.3642 96.3445 86.8887
81.4937 96.8325 87.3974
82.5051 95.4951 87.546
84.6223 97.4604 86.5665
86.4326 97.6044 86.7098
88.4204 98.3705 87.0959
90.6372 98.1526 88.6681
90.0603 98.9442 88.0438
91.9626 99.6548 88.8641
82.2762 97.8841 86.3527
80.3167 98.7532 87.2132
91.741 101.123 88.0527
92.2775 102.777 87.5546
93.3027 102.023 88.257
79.4033 100.603 87.9851
92.9988 103.902 87.1743
93.8455 103.517 88.1833
79.0062 102.345 87.7649
79.1529 103.676 88.5062
79.4932 101.893 89.3233
93.7977 105.17 88.5581
79.4088 105.345 88.693
93.1489 107.411 88.4944
79.8279 106.867 88.8844
93.1148 109.033 88.9873
80.4373 108.05 89.1018
96.02 110.935 89.1919
94.0828 110.428 89.5595
97.2959 111.275 87.6116
80.479 109.535 88.6935
82.7702 112.282 88.1334
81.4815 110.763 88.7196
83.0652 111.132 89.1573
94.3765 112.439 89.3869
93.1825 111.225 89.5723
92.3301 112.065 89.2313
96.4029 112.968 89.4962
97.67 112.65 88.5633
83.3413 113.916 87.6503
84.3955 111.584 88.6699
85.0618 113.206 88.1498
85.7995 111.756 88.1771
92.2493 113.575 88.2609
91.1961 112.365 88.6432
90.2455 112.63 88.1593
94.2503 114.364 88.6878
95.9327 114.441 89.3903
97.7447 114.452 89.0553
85.1311 114.727 87.6927
86.7385 112.839 87.8466
87.4317 114.299 87.5221
89.799 114.066 87.5011
88.3748 112.606 87.7687
82.9322 94.3371 88.0977
81.6568 95.2142 88.5009
82.4383 93.3085 89.0167
84.1664 91.9996 89.3001
86.5259 93.1516 88.9184
89.1426 94.6098 89.1505
91.1057 96.3882 89.6115
80.6331 96.8281 88.758
92.074 98.09 89.3536
94.3166 99.1315 89.9081
80.1754 98.6444 89.3763
93.7246 100.81 88.8947
94.6399 102.426 89.3304
80.3586 100.352 90.5629
94.0865 103.801 89.7097
80.1615 103.631 89.8328
80.612 102.212 90.8223
93.0668 105.43 89.315
80.7652 105.188 89.9979
92.1684 106.67 89.0849
92.0179 105.405 89.7968
91.0122 106.503 89.5864
81.0641 106.746 89.9902
91.8323 108.077 89.0202
90.6484 108.041 89.3533
81.3195 107.67 89.7328
81.2303 108.589 89.1722
82.0348 108.139 89.72
91.8819 110.138 89.1295
90.3842 109.294 89.0916
81.942 109.311 89.4031
84.0458 110.627 89.2223
83.3927 109.685 89.389
84.736 109.79 89.1293
90.4273 110.995 88.9012
89.0963 109.228 89.3394
88.6652 110.072 88.8156
87.259 111.394 88.1609
85.8053 110.532 88.6754
88.8136 111.34 88.3737
87.3239 109.997 88.734
86.2313 91.6778 89.977
84.0392 91 90.9576
86.4136 90.5509 91.0802
88.5577 91.6055 90.7639
88.3562 92.8284 89.6361
90.3364 93.0321 90.8689
89.737 93.6928 90.0235
91.1576 94.4624 90.5745
81.4296 94.7005 90.2206
82.3674 92.3068 90.6945
91.8384 95.8315 90.3286
93.0044 97.3308 90.0343
94.8023 97.0071 90.6655
80.9248 96.6356 90.5302
96.3717 98.9184 91.0267
81.189 98.1223 91.3126
95.2479 101.068 90.1232
95.0409 100.685 91.8171
82.1346 99.5058 92.0779
94.0375 102.609 91.0682
92.9216 101.798 91.9597
81.8656 103.595 90.958
81.8727 101.445 91.9159
91.9494 103.456 91.3262
91.2476 102.226 91.662
90.294 103.143 91.2924
92.7869 104.192 90.3072
82.322 105.455 90.5632
83.2535 103.163 91.7998
83.9665 104.762 91.0591
85.9411 104.857 91.1527
84.964 103.344 91.7031
87.9095 104.806 91.2337
86.7249 103.179 91.5566
89.977 104.629 90.9592
88.7267 103.204 91.4416
91.2319 104.96 90.196
82.2793 107.17 90.3762
83.704 106.635 90.4855
85.3775 106.381 90.7306
86.9947 106.259 90.9841
88.7524 106.368 90.858
90.194 106.438 90.3831
83.0871 108.15 89.9809
84.7 108.155 89.8906
86.3062 107.672 90.3007
87.7862 107.575 90.6134
89.254 107.999 90.1187
86.0798 108.941 89.2641
87.6298 108.745 89.6839
84.5869 90.0795 92.2922
86.6738 89.5845 91.931
88.7061 90.322 91.5035
90.7957 91.7057 91.5963
92.7189 93.5974 91.7025
93.2393 95.2601 90.9216
95.1358 95.3634 91.6338
82.2114 93.7399 91.9215
83.1625 91.9804 92.8681
97.0672 97.3416 91.624
82.1078 95.9523 92.2033
83.4277 94.3127 93.1127
95.1365 98.8654 93.1718
82.8319 97.6042 92.7924
93.0239 100.24 92.6036
83.4605 98.9611 93.0248
83.5967 100.565 92.855
84.7905 99.2579 93.1766
89.5875 100.664 92.0033
89.5079 99.2947 92.1295
88.2456 100.104 92.2014
91.3244 100.982 91.9914
91.1184 99.5873 92.3641
83.858 102.125 92.3302
85.3124 100.192 92.7643
85.7212 101.622 92.217
87.7115 101.573 91.8106
86.9234 100.07 92.4039
89.6467 101.914 91.5114
88.042 88.764 92.2255
85.8159 88.8635 93.0446
87.27 87.8973 93.8411
89.5196 88.3958 93.0476
90.5865 89.7629 92.0554
91.6313 89.2924 93.1633
92.6643 91.5638 92.484
93.7353 90.8602 93.5305
94.8516 93.4019 92.5219
95.3865 92.1729 93.6169
96.6711 93.7079 92.8895
97.0286 92.715 93.5542
84.5845 90.3588 93.9218
97.2743 95.3662 92.1882
97.9853 94.7153 93.5806
84.5463 92.0461 94.6425
96.625 97.4794 93.5145
97.4812 96.3526 93.7986
84.3319 96.105 93.7372
85.0439 93.8452 94.134
91.805 97.0359 93.5852
91.5831 95.2698 94.154
90.0791 96.1908 93.718
93.497 97.9057 93.5812
94.1471 96.662 93.9466
95.9302 96.3315 94.4739
84.8835 97.7595 93.2979
86.2797 95.4796 94.0569
86.8089 97.1363 93.4307
89.1048 97.1689 93.2034
88.1414 95.9324 93.8997
90.4496 98.4709 92.8534
92.6494 98.8126 93.0803
86.3011 98.6672 92.8733
88.178 98.4336 92.4434
92.5852 89.101 94.1437
91.1372 87.9714 94.1897
92.0522 87.3561 94.9101
93.3722 88.2831 94.7221
93.8287 89.6908 94.2732
94.3959 89.1597 94.7364
85.665 88.9991 94.8976
87.0413 87.7938 95.68
89.2865 87.7586 94.5289
95.1249 90.5695 94.1445
96.7292 91.1065 94.5281
98.2202 92.9624 94.1564
98.0621 91.6764 94.8314
85.7347 90.9901 95.6427
98.1635 94.4757 95.1127
98.4538 92.9933 95.483
86.1698 92.6024 95.6204
96.7702 93.0483 96.0551
96.7285 95.1336 95.006
86.9664 93.6331 95.0442
87.4277 94.5312 94.2908
89.4467 95.0094 94.1504
89.2267 94.2764 95.2627
91.0636 94.1764 95.4612
92.8254 94.4478 94.8908
94.6247 95.074 94.8287
90.5171 87.4514 95.6875
91.8587 86.9517 96.2541
93.1954 87.0992 95.5151
94.4662 87.9606 95.2232
95.5316 89.735 94.7766
95.6692 88.8381 95.2177
96.2654 89.8112 94.9582
96.8516 89.3583 95.3063
86.6807 89.7941 96.5399
87.367 88.469 97.1956
88.7446 87.5347 96.4573
98.2512 90.2972 95.2751
98.8908 91.6212 95.6276
99.3731 90.5637 95.7117
99.7461 91.2816 96.1007
100.263 90.3954 96.3259
87.5922 91.7161 96.6516
88.2114 90.2253 97.5056
98.214 92.3363 96.3287
98.9263 91.6678 96.6622
100.133 91.0436 96.8666
87.928 93.1487 96.0108
89.5455 91.5084 97.2004
89.6723 93.1367 96.5755
91.8602 93.3362 96.1177
91.092 92.3418 96.936
93.6939 93.4732 95.8007
92.8593 91.9461 96.5093
95.3426 93.83 95.5795
94.8329 92.2415 96.2922
96.2166 91.8415 96.8806
97.7006 91.7082 97.0729
99.1434 91.2355 97.4287
90.7114 87.3006 97.3165
91.9455 86.9251 97.2291
92.9427 86.9243 96.7493
94.356 87.068 96.1832
95.6454 87.9823 95.7877
96.6287 88.2412 96.2789
88.1649 88.4023 98.1891
89.2036 87.4428 98.1331
98.1527 88.6586 96.14
99.5492 89.6414 96.2919
100.652 90.0968 96.9686
88.8644 89.5309 98.595
100.228 90.7736 97.7112
89.7374 90.4289 98.1664
91.2373 91.2086 97.794
92.7349 91.0315 97.5384
92.2604 90.4474 98.527
94.0771 91.0651 97.2035
95.3186 91.135 97.2162
96.6245 91.2243 97.648
97.5909 90.8927 97.9294
98.7381 90.6059 98.0851
93.6061 90.5757 98.2227
94.9035 90.5567 98.0214
96.0089 90.6774 98.0858
96.9184 90.7598 98.3851
91.6903 87.0611 97.8203
92.6496 86.9301 97.8329
94.0578 86.9626 97.5946
95.4871 87.1955 96.8431
89.1586 88.426 99.2016
90.3494 87.6163 98.8232
91.7836 87.2221 98.6181
93.491 87.1981 98.8213
95.2342 87.0428 98.1843
96.8581 87.6233 97.3521
98.3295 87.7986 97.3421
99.4368 88.511 97.073
100.373 89.1457 97.2795
101.026 90.1043 97.9275
100.724 89.144 98.2627
89.7095 89.6452 99.2349
90.176 88.7934 100.006
100.048 90.4723 98.5651
100.74 89.9786 99.0738
90.8828 90.1895 99.0248
91.9458 90.0814 99.5064
98.2556 90.0903 99.2456
97.607 90.467 98.8503
99.3238 90.0569 99.1604
93.0409 90.1537 99.1224
94.281 90.1977 98.9932
95.421 90.2343 98.9276
96.5237 90.4183 99.0298
91.0841 87.8252 100.14
92.4684 87.5116 100.075
93.735 87.4679 99.9501
94.7209 87.2783 99.4313
96.1138 87.3124 98.9034
97.5111 87.4986 98.3521
98.8917 87.8683 98.0962
100.042 88.3195 98.0043
100.658 88.8698 99.2951
91.1756 89.3488 100.227
91.9835 88.5906 100.751
93.3148 88.2475 100.626
99.9947 89.6177 99.7694
92.3467 89.7189 100.42
93.2381 89.3082 100.863
97.6953 89.8268 100.146
97.0981 90.1918 99.7199
98.7905 89.6767 100.076
93.5918 89.979 100.014
94.8235 90.0667 99.8174
95.9569 90.1761 99.9697
94.6144 87.8811 100.469
95.7956 87.5821 100.195
97.0619 87.631 99.6833
98.4266 87.9869 99.3239
99.7157 88.2134 98.9348
94.3883 88.9492 100.786
95.5427 88.6244 100.656
96.6329 88.3712 100.383
97.8203 88.7595 100.224
99.3698 88.6761 99.9556
94.2412 89.7489 100.607
95.3099 89.6876 100.599
96.5329 89.4856 100.498
POLYGONS 1324  5296
3 0 1 2
3 0 3 4
3 2 3 0
3 3 5 4
3 6 7 8
3 1 6 8
3 1 0 6
3 0 9 6
3 4 10 0
3 10 9 0
3 11 4 5
3 11 12 4
3 12 10 4
3 12 13 14
3 11 13 12
3 13 15 14
3 16 7 6
3 17 7 16
3 9 18 6
3 18 16 6
3 10 19 9
3 19 18 9
3 12 20 10
3 20 19 10
3 14 21 12
3 21 20 12
3 22 14 15
3 21 14 22
3 23 17 16
3 24 17 23
3 18 25 16
3 25 23 16
3 19 26 18
3 26 25 18
3 20 27 19
3 27 26 19
3 21 28 20
3 28 27 20
3 29 21 22
3 28 21 29
3 23 30 24
3 25 30 23
3 31 30 25
3 26 31 25
3 32 31 26
3 27 32 26
3 33 32 27
3 28 33 27
3 34 33 28
3 29 34 28
3 35 36 37
3 35 2 1
3 35 37 2
3 37 38 2
3 3 2 39
3 2 38 39
3 5 40 41
3 5 3 40
3 3 39 40
3 40 42 41
3 8 36 35
3 8 7 36
3 7 43 36
3 1 8 35
3 5 41 11
3 41 42 44
3 41 44 11
3 11 44 13
3 44 15 13
3 45 15 44
3 7 17 43
3 43 17 46
3 15 45 22
3 45 47 22
3 17 24 46
3 46 24 48
3 22 47 29
3 47 49 29
3 24 50 48
3 30 50 24
3 31 51 30
3 30 51 50
3 32 52 31
3 31 52 51
3 33 53 32
3 32 53 52
3 34 54 33
3 33 54 53
3 49 34 29
3 54 34 49
3 55 56 57
3 55 58 59
3 57 58 55
3 58 60 59
3 61 56 55
3 62 56 61
3 59 63 55
3 63 61 55
3 64 59 60
3 64 65 59
3 65 63 59
3 64 66 65
3 67 68 69
3 62 67 69
3 61 67 62
3 61 36 67
3 61 37 36
3 38 37 61
3 63 38 61
3 39 38 63
3 65 39 63
3 65 66 70
3 65 70 39
3 39 70 40
3 42 71 72
3 42 40 71
3 40 70 71
3 71 73 72
3 74 68 67
3 75 68 74
3 36 43 74
3 67 36 74
3 42 72 44
3 72 45 44
3 72 73 45
3 73 76 45
3 77 75 74
3 78 75 77
3 43 46 77
3 74 43 77
3 79 80 47
3 79 47 76
3 76 47 45
3 79 81 80
3 77 82 78
3 82 77 46
3 82 46 83
3 83 46 48
3 80 84 49
3 47 80 49
3 85 80 81
3 84 80 85
3 48 86 83
3 50 86 48
3 51 87 50
3 50 87 86
3 52 88 51
3 51 88 87
3 53 89 52
3 52 89 88
3 54 90 53
3 53 90 89
3 84 54 49
3 84 91 54
3 91 90 54
3 85 91 84
3 92 93 94
3 92 95 96
3 94 95 92
3 96 97 98
3 95 97 96
3 97 99 98
3 100 101 102
3 93 100 102
3 92 100 93
3 92 56 100
3 92 57 56
3 58 57 92
3 96 58 92
3 60 58 96
3 60 96 103
3 103 96 98
3 104 98 99
3 104 105 98
3 105 103 98
3 105 106 107
3 104 106 105
3 106 108 107
3 109 110 111
3 101 109 111
3 101 100 109
3 100 112 109
3 56 62 112
3 100 56 112
3 60 103 64
3 66 64 103
3 66 103 113
3 113 103 105
3 107 114 105
3 114 113 105
3 115 107 108
3 114 107 115
3 116 110 109
3 117 110 116
3 69 68 116
3 69 116 112
3 112 116 109
3 62 69 112
3 66 113 70
3 71 70 113
3 114 71 113
3 73 118 119
3 71 118 73
3 71 115 118
3 71 114 115
3 119 120 121
3 118 120 119
3 120 122 121
3 116 123 117
3 123 116 68
3 123 68 124
3 124 68 75
3 119 125 76
3 73 119 76
3 121 126 119
3 126 125 119
3 127 121 122
3 126 121 127
3 75 78 124
3 124 78 128
3 76 125 79
3 81 79 125
3 81 125 129
3 129 125 126
3 130 126 127
3 129 126 130
3 78 131 128
3 82 131 78
3 131 82 83
3 132 131 83
3 129 133 85
3 81 129 85
3 134 129 130
3 133 129 134
3 83 135 132
3 86 135 83
3 87 136 86
3 86 136 135
3 88 137 87
3 87 137 136
3 89 138 88
3 88 138 137
3 90 139 89
3 89 139 138
3 91 140 90
3 90 140 139
3 133 91 85
3 133 141 91
3 141 140 91
3 134 141 133
3 142 143 144
3 142 145 146
3 144 145 142
3 146 147 148
3 145 147 146
3 148 149 150
3 147 149 148
3 149 151 150
3 152 143 142
3 153 143 152
3 94 93 152
3 94 152 146
3 146 152 142
3 95 94 146
3 148 95 146
3 97 95 148
3 150 97 148
3 150 99 97
3 150 151 99
3 151 154 99
3 155 156 157
3 153 155 157
3 152 155 153
3 152 101 155
3 152 102 101
3 93 102 152
3 99 154 158
3 104 99 158
3 106 104 159
3 104 158 159
3 159 108 106
3 160 108 159
3 111 156 155
3 111 110 156
3 110 161 156
3 101 111 155
3 108 160 115
3 160 162 115
3 110 117 161
3 161 117 163
3 115 162 164
3 118 115 164
3 120 118 165
3 118 164 165
3 165 122 120
3 166 122 165
3 117 167 163
3 123 167 117
3 167 123 124
3 168 167 124
3 122 166 127
3 166 169 127
3 124 128 168
3 168 128 170
3 127 169 130
3 169 171 130
3 128 172 170
3 131 172 128
3 172 131 132
3 173 172 132
3 174 175 176
3 175 174 177
3 130 171 134
3 171 178 134
3 132 179 173
3 135 179 132
3 136 180 135
3 135 180 179
3 176 137 174
3 176 180 137
3 180 136 137
3 174 181 177
3 174 137 181
3 137 138 181
3 139 182 138
3 138 182 181
3 140 183 139
3 139 183 182
3 141 184 140
3 140 184 183
3 178 141 134
3 184 141 178
3 185 186 187
3 185 188 189
3 187 188 185
3 189 190 191
3 188 190 189
3 191 192 193
3 190 192 191
3 192 194 193
3 195 196 197
3 186 195 197
3 186 185 195
3 185 198 195
3 189 199 185
3 199 198 185
3 191 200 189
3 200 199 189
3 193 201 191
3 201 200 191
3 202 193 194
3 201 193 202
3 203 196 195
3 204 196 203
3 144 143 203
3 144 203 198
3 198 203 195
3 145 144 198
3 199 145 198
3 147 145 199
3 200 147 199
3 149 147 200
3 201 149 200
3 201 151 149
3 201 202 151
3 202 205 151
3 206 204 203
3 207 204 206
3 143 153 206
3 203 143 206
3 151 205 154
3 205 208 154
3 157 207 206
3 157 156 207
3 156 209 207
3 153 157 206
3 154 208 210
3 158 154 210
3 159 158 211
3 158 210 211
3 160 212 213
3 160 159 212
3 159 211 212
3 212 214 213
3 156 161 209
3 209 161 215
3 213 216 162
3 160 213 162
3 217 213 214
3 216 213 217
3 161 163 215
3 215 163 218
3 162 216 164
3 216 217 219
3 216 219 164
3 164 219 165
3 219 166 165
3 220 166 219
3 163 221 218
3 167 221 163
3 221 167 168
3 222 221 168
3 166 220 169
3 220 223 169
3 224 170 225
3 224 222 170
3 222 168 170
3 225 226 227
3 224 225 227
3 226 228 229
3 227 226 229
3 228 230 231
3 229 228 231
3 230 232 233
3 231 230 233
3 232 234 235
3 233 232 235
3 235 234 236
3 169 223 171
3 223 237 171
3 170 172 225
3 173 225 172
3 173 238 225
3 238 226 225
3 228 226 239
3 239 226 238
3 175 239 176
3 175 230 239
3 230 228 239
3 177 230 175
3 177 240 230
3 240 232 230
3 234 232 241
3 241 232 240
3 242 236 234
3 242 234 243
3 243 234 241
3 243 244 245
3 242 243 245
3 244 237 245
3 244 178 237
3 178 171 237
3 173 179 238
3 180 238 179
3 239 238 180
3 176 239 180
3 177 181 240
3 182 240 181
3 241 240 182
3 183 241 182
3 243 241 183
3 184 243 183
3 244 243 184
3 178 244 184
3 246 247 248
3 246 249 250
3 248 249 246
3 250 251 252
3 249 251 250
3 252 253 254
3 251 253 252
3 253 255 254
3 256 257 258
3 247 256 258
3 246 256 247
3 246 186 256
3 246 187 186
3 188 187 246
3 250 188 246
3 190 188 250
3 252 190 250
3 192 190 252
3 254 192 252
3 254 194 192
3 254 255 194
3 255 259 194
3 197 257 256
3 197 196 257
3 196 260 257
3 186 197 256
3 261 262 202
3 261 202 259
3 259 202 194
3 261 263 262
3 264 265 266
3 264 266 260
3 264 260 204
3 204 260 196
3 262 267 205
3 202 262 205
3 268 262 263
3 267 262 268
3 269 265 264
3 270 265 269
3 204 207 269
3 264 204 269
3 267 271 208
3 205 267 208
3 272 267 268
3 271 267 272
3 273 270 269
3 274 270 273
3 207 209 273
3 269 207 273
3 208 271 210
3 271 272 275
3 271 275 210
3 210 275 211
3 212 211 276
3 211 275 276
3 276 214 212
3 277 214 276
3 273 278 274
3 278 273 209
3 278 209 279
3 279 209 215
3 214 277 217
3 277 280 217
3 215 218 279
3 279 218 281
3 282 219 217
3 282 217 283
3 283 217 280
3 219 282 220
3 218 284 281
3 221 284 218
3 284 221 222
3 285 284 222
3 286 287 288
3 286 289 290
3 287 286 290
3 289 291 292
3 290 289 292
3 291 293 294
3 292 291 294
3 283 294 293
3 283 293 282
3 282 293 295
3 220 295 223
3 282 295 220
3 222 296 285
3 224 296 222
3 227 297 224
3 224 297 296
3 229 298 227
3 227 298 297
3 288 231 286
3 288 298 231
3 298 229 231
3 233 286 231
3 289 286 233
3 235 289 233
3 291 289 235
3 236 291 235
3 236 299 291
3 299 293 291
3 295 293 300
3 300 293 299
3 223 300 237
3 295 300 223
3 236 242 299
3 245 299 242
3 300 299 245
3 237 300 245
3 301 302 303
3 301 304 305
3 303 304 301
3 305 306 307
3 304 306 305
3 306 308 307
3 309 310 311
3 302 309 311
3 302 301 309
3 301 312 309
3 305 313 301
3 313 312 301
3 307 314 305
3 314 313 305
3 315 307 308
3 315 316 307
3 316 314 307
3 315 317 316
3 318 310 309
3 319 310 318
3 248 247 318
3 248 318 312
3 312 318 309
3 249 248 312
3 313 249 312
3 251 249 313
3 314 251 313
3 253 251 314
3 316 253 314
3 255 320 321
3 253 320 255
3 253 317 320
3 253 316 317
3 320 322 321
3 258 319 318
3 258 257 319
3 257 323 319
3 247 258 318
3 321 324 259
3 255 321 259
3 325 321 322
3 324 321 325
3 326 327 328
3 326 328 323
3 326 323 260
3 260 323 257
3 259 324 261
3 324 263 261
3 324 325 263
3 325 329 263
3 266 327 326
3 266 265 327
3 265 330 327
3 260 266 326
3 263 329 268
3 329 331 268
3 265 270 330
3 330 270 332
3 268 331 272
3 331 333 272
3 270 274 332
3 332 274 334
3 335 275 272
3 335 272 336
3 336 272 333
3 275 337 276
3 335 337 275
3 276 337 277
3 274 338 334
3 278 338 274
3 279 339 340
3 279 340 278
3 278 340 338
3 340 339 341
3 342 343 344
3 336 343 342
3 336 342 335
3 335 342 345
3 337 335 346
3 346 335 345
3 277 346 280
3 337 346 277
3 339 281 347
3 279 281 339
3 348 341 339
3 348 339 349
3 349 339 347
3 348 349 350
3 351 352 353
3 344 352 351
3 344 351 342
3 342 351 354
3 345 342 355
3 355 342 354
3 346 345 356
3 356 345 355
3 280 356 283
3 346 356 280
3 281 284 347
3 285 347 284
3 285 357 347
3 357 349 347
3 358 350 349
3 358 349 359
3 359 349 357
3 359 360 361
3 358 359 361
3 353 361 360
3 351 353 360
3 351 360 288
3 351 288 287
3 290 351 287
3 354 351 290
3 292 354 290
3 355 354 292
3 294 355 292
3 356 355 294
3 283 356 294
3 285 296 357
3 297 357 296
3 359 357 297
3 298 359 297
3 360 359 298
3 288 360 298
3 362 363 364
3 362 303 302
3 362 364 303
3 364 365 303
3 304 303 366
3 303 365 366
3 306 304 367
3 304 366 367
3 367 308 306
3 368 308 367
3 311 363 362
3 311 310 363
3 310 369 363
3 302 311 362
3 308 368 370
3 315 308 370
3 370 317 315
3 371 317 370
3 310 319 369
3 369 319 372
3 317 371 373
3 320 317 373
3 373 322 320
3 374 322 373
3 319 323 372
3 372 323 375
3 322 374 325
3 374 376 325
3 328 377 378
3 327 377 328
3 375 323 328
3 378 375 328
3 325 376 329
3 376 379 329
3 327 330 377
3 377 330 380
3 381 382 383
3 381 379 382
3 381 331 379
3 331 329 379
3 330 332 380
3 380 332 384
3 385 381 383
3 386 385 383
3 331 385 333
3 381 385 331
3 387 334 388
3 387 384 334
3 384 332 334
3 387 388 389
3 390 385 386
3 391 390 386
3 333 390 336
3 385 390 333
3 334 338 388
3 388 392 389
3 388 338 392
3 338 340 392
3 341 393 394
3 341 394 340
3 340 394 392
3 394 393 395
3 396 397 398
3 391 397 396
3 390 391 396
3 390 396 344
3 390 344 343
3 336 390 343
3 341 348 393
3 350 399 400
3 348 350 400
3 348 400 395
3 348 395 393
3 399 401 402
3 400 399 402
3 398 402 401
3 396 398 401
3 396 401 353
3 396 353 352
3 344 396 352
3 350 358 399
3 361 399 358
3 401 399 361
3 353 401 361
3 403 404 405
3 403 406 407
3 405 406 403
3 407 408 409
3 406 408 407
3 408 410 409
3 364 411 412
3 363 411 364
3 404 403 365
3 404 365 412
3 412 365 364
3 366 365 403
3 407 366 403
3 367 366 407
3 409 367 407
3 368 413 414
3 367 413 368
3 367 410 413
3 367 409 410
3 413 415 414
3 363 369 411
3 411 369 416
3 368 414 370
3 414 371 370
3 414 415 371
3 415 417 371
3 369 372 416
3 416 372 418
3 419 373 371
3 419 371 420
3 420 371 417
3 373 419 374
3 372 375 418
3 418 375 421
3 422 419 420
3 423 422 420
3 374 422 376
3 419 422 374
3 378 377 424
3 378 424 425
3 378 425 375
3 375 425 421
3 426 427 428
3 423 427 426
3 423 426 422
3 422 426 429
3 376 429 379
3 422 429 376
3 424 380 430
3 377 380 424
3 431 425 424
3 431 424 432
3 432 424 430
3 432 433 434
3 431 432 434
3 433 435 436
3 434 433 436
3 435 437 438
3 436 435 438
3 428 438 437
3 428 437 426
3 426 437 439
3 382 439 383
3 382 429 439
3 429 426 439
3 379 429 382
3 430 384 440
3 380 384 430
3 432 430 441
3 441 430 440
3 433 432 442
3 442 432 441
3 435 433 443
3 443 433 442
3 437 435 444
3 444 435 443
3 439 437 445
3 445 437 444
3 383 445 386
3 439 445 383
3 384 387 440
3 389 440 387
3 389 446 440
3 446 441 440
3 442 441 447
3 447 441 446
3 443 442 448
3 448 442 447
3 444 443 449
3 449 443 448
3 445 444 450
3 450 444 449
3 386 450 391
3 445 450 386
3 389 392 446
3 394 446 392
3 447 446 394
3 395 447 394
3 395 451 447
3 451 448 447
3 449 448 452
3 452 448 451
3 397 452 398
3 397 450 452
3 450 449 452
3 391 450 397
3 395 400 451
3 402 451 400
3 452 451 402
3 398 452 402
3 405 453 454
3 404 453 405
3 406 405 455
3 405 454 455
3 408 406 456
3 406 455 456
3 410 457 458
3 410 408 457
3 408 456 457
3 457 459 458
3 412 411 460
3 412 460 461
3 412 461 404
3 404 461 453
3 410 458 413
3 458 415 413
3 458 459 415
3 459 462 415
3 460 463 464
3 460 411 463
3 411 416 463
3 461 460 464
3 415 462 417
3 462 465 417
3 416 418 463
3 463 418 466
3 417 465 420
3 465 467 420
3 468 421 469
3 468 466 421
3 466 418 421
3 468 469 470
3 471 472 473
3 471 474 475
3 472 471 475
3 474 467 475
3 474 423 467
3 423 420 467
3 469 425 476
3 421 425 469
3 477 470 469
3 477 469 478
3 478 469 476
3 478 479 480
3 477 478 480
3 473 480 479
3 473 479 471
3 471 479 481
3 427 481 428
3 427 474 481
3 474 471 481
3 423 474 427
3 425 431 476
3 434 476 431
3 478 476 434
3 436 478 434
3 479 478 436
3 438 479 436
3 481 479 438
3 428 481 438
3 482 483 484
3 482 485 486
3 484 485 482
3 486 487 488
3 485 487 486
3 488 489 490
3 487 489 488
3 490 491 492
3 489 491 490
3 491 493 492
3 454 483 482
3 454 453 483
3 453 494 483
3 455 454 482
3 486 455 482
3 456 455 486
3 488 456 486
3 457 456 488
3 490 457 488
3 459 457 490
3 459 490 495
3 495 490 492
3 496 492 493
3 495 492 496
3 453 461 494
3 494 461 497
3 495 498 462
3 459 495 462
3 499 495 496
3 498 495 499
3 464 463 500
3 464 500 501
3 464 501 461
3 461 501 497
3 502 503 504
3 502 505 506
3 503 502 506
3 498 507 506
3 498 506 465
3 498 465 462
3 465 506 505
3 499 507 498
3 500 466 508
3 463 466 500
3 509 501 500
3 509 500 510
3 510 500 508
3 510 511 512
3 509 510 512
3 504 512 511
3 504 511 502
3 502 511 513
3 505 502 514
3 514 502 513
3 465 514 467
3 505 514 465
3 466 468 508
3 470 508 468
3 470 515 508
3 515 510 508
3 511 510 516
3 516 510 515
3 472 516 473
3 472 513 516
3 513 511 516
3 475 513 472
3 514 513 475
3 467 514 475
3 470 477 515
3 480 515 477
3 516 515 480
3 473 516 480
3 517 518 519
3 517 520 521
3 519 520 517
3 520 522 521
3 484 523 524
3 483 523 484
3 485 484 525
3 484 524 525
3 518 517 487
3 518 487 525
3 525 487 485
3 489 487 517
3 521 489 517
3 521 522 526
3 521 526 489
3 489 526 491
3 493 527 528
3 493 491 527
3 491 526 527
3 527 529 528
3 483 494 523
3 523 494 530
3 528 531 496
3 493 528 496
3 532 528 529
3 531 528 532
3 494 497 530
3 530 497 533
3 531 534 535
3 531 535 496
3 496 535 499
3 532 534 531
3 536 501 537
3 536 533 501
3 533 497 501
3 537 538 539
3 536 537 539
3 538 504 503
3 538 503 539
3 539 503 540
3 506 541 503
3 503 541 540
3 507 542 506
3 506 542 541
3 535 507 499
3 542 507 535
3 501 509 537
3 512 537 509
3 538 537 512
3 504 538 512
3 519 543 544
3 518 543 519
3 520 519 545
3 519 544 545
3 522 546 547
3 522 520 546
3 520 545 546
3 547 548 549
3 546 548 547
3 548 550 549
3 524 523 551
3 552 524 551
3 552 553 524
3 553 525 524
3 543 518 525
3 553 543 525
3 522 547 526
3 527 526 547
3 549 527 547
3 529 554 555
3 527 554 529
3 527 550 554
3 527 549 550
3 555 556 557
3 554 556 555
3 556 558 557
3 551 530 559
3 523 530 551
3 560 552 551
3 559 560 551
3 555 561 532
3 529 555 532
3 557 562 555
3 562 561 555
3 563 557 558
3 562 557 563
3 559 533 564
3 530 533 559
3 565 560 559
3 565 559 566
3 566 559 564
3 566 567 568
3 565 566 568
3 567 569 570
3 568 567 570
3 569 571 572
3 570 569 572
3 571 535 534
3 571 534 572
3 572 534 573
3 561 534 532
3 561 574 534
3 574 573 534
3 562 574 561
3 575 574 562
3 563 575 562
3 533 536 564
3 539 564 536
3 566 564 539
3 540 566 539
3 567 566 540
3 541 567 540
3 569 567 541
3 542 569 541
3 571 569 542
3 535 571 542
3 544 576 577
3 543 576 544
3 545 544 578
3 544 577 578
3 546 545 579
3 545 578 579
3 548 546 580
3 546 579 580
3 580 550 548
3 581 550 580
3 553 582 583
3 552 582 553
3 576 543 553
3 583 576 553
3 550 581 584
3 554 550 584
3 556 554 585
3 554 584 585
3 585 558 556
3 586 558 585
3 552 560 582
3 582 560 587
3 558 586 563
3 586 588 563
3 560 589 587
3 565 589 560
3 568 590 565
3 565 590 589
3 591 592 590
3 591 590 570
3 570 590 568
3 570 572 593
3 591 570 593
3 572 573 594
3 593 572 594
3 573 574 595
3 594 573 595
3 596 595 574
3 596 574 597
3 597 574 575
3 588 575 563
3 597 575 588
3 591 598 592
3 593 598 591
3 599 598 593
3 594 599 593
3 600 599 594
3 595 600 594
3 601 600 595
3 596 601 595
3 577 576 602
3 577 603 578
3 602 603 577
3 578 604 579
3 603 604 578
3 579 605 580
3 604 605 579
3 580 605 581
3 583 582 606
3 583 606 607
3 576 583 607
3 576 607 608
3 576 608 602
3 603 602 608
3 609 603 608
3 604 603 609
3 610 604 609
3 605 604 610
3 611 605 610
3 581 605 611
3 581 611 584
3 584 611 612
3 585 584 613
3 584 612 613
3 586 614 615
3 586 585 614
3 585 613 614
3 614 616 615
3 606 587 617
3 582 587 606
3 618 607 606
3 617 618 606
3 615 619 588
3 586 615 588
3 620 615 616
3 619 615 620
3 587 589 617
3 617 621 618
3 617 589 621
3 589 590 621
3 621 590 592
3 622 621 592
3 597 623 624
3 596 597 624
3 619 597 588
3 619 625 597
3 625 623 597
3 620 625 619
3 592 626 622
3 598 626 592
3 599 627 598
3 598 627 626
3 600 628 599
3 599 628 627
3 601 629 600
3 600 629 628
3 624 601 596
3 629 601 624
3 608 607 630
3 608 631 609
3 630 631 608
3 632 609 631
3 632 633 609
3 633 610 609
3 611 610 634
3 610 633 634
3 612 611 635
3 611 634 635
3 613 612 636
3 612 635 636
3 614 613 637
3 613 636 637
3 637 616 614
3 638 616 637
3 630 618 639
3 607 618 630
3 631 630 640
3 640 630 639
3 641 632 631
3 640 641 631
3 616 638 620
3 638 642 620
3 618 621 639
3 622 639 621
3 622 643 639
3 643 640 639
3 644 641 640
3 643 644 640
3 623 645 646
3 624 623 646
3 625 647 623
3 623 647 645
3 642 625 620
3 647 625 642
3 622 626 643
3 643 648 644
3 643 626 648
3 626 627 648
3 628 649 627
3 627 649 648
3 629 650 628
3 628 650 649
3 646 629 624
3 650 629 646
3 633 632 651
3 633 652 634
3 651 652 633
3 634 653 635
3 652 653 634
3 635 654 636
3 653 654 635
3 636 655 637
3 654 655 636
3 637 655 638
3 651 641 656
3 632 641 651
3 652 651 657
3 657 651 656
3 653 652 658
3 658 652 657
3 654 653 659
3 659 653 658
3 655 654 660
3 660 654 659
3 638 660 642
3 655 660 638
3 656 644 661
3 641 644 656
3 657 656 662
3 662 656 661
3 658 657 663
3 663 657 662
3 645 663 646
3 645 659 663
3 659 658 663
3 647 659 645
3 660 659 647
3 642 660 647
3 644 648 661
3 649 661 648
3 662 661 649
3 650 662 649
3 663 662 650
3 646 663 650
