# vtk DataFile Version 3.0
this file was written using fslvtkio
ASCII
DATASET POLYDATA
POINTS 642 float
126.951 116.925 111.74
111.864 116.494 109.507
117.259 102.767 106.022
133.396 104.024 106.927
127.824 108.449 118.349
127.25 111.281 102.169
117.259 111.18 100.438
116.783 107.37 116.889
118.89 121.094 118.041
125.612 98.56 110.419
127.479 98.5959 98.237
118.786 124.731 105.293
117.082 114.53 119.498
123.913 115.685 120.422
122.694 107.422 119.794
121.107 101.59 114.537
128.104 101.462 116.421
116.495 119.497 101.446
122.801 110.532 100.225
122.351 117.793 104.187
122.848 103.543 99.585
129.144 104.42 99.275
131.723 104.871 113.327
127.988 113.864 115.994
130.761 109.902 109.403
131.417 106.56 103.325
127.223 114.649 106.638
113.531 112.701 114.386
116.109 104.464 111.596
112.721 109.236 107.609
113.028 115.299 103.433
115.963 105.797 101.874
123.192 121.635 109.264
123.992 121.743 116.108
117.363 125.02 111.918
113.07 123.247 105.962
113.819 120.071 114.332
134.777 100.492 99.9403
127.334 95.6515 103.454
131.486 99.4214 108.827
121.146 98.1769 101.317
120.372 97.7007 108.015
120.545 114.97 120.476
123.12 111.576 120.887
119.807 110.881 120.017
125.595 107.662 120.048
125.926 112.258 119.728
121.583 118.765 119.936
117.897 117.979 119.067
116.603 110.853 118.692
119.498 107.18 118.763
121.656 104.18 117.83
125.28 104.142 118.528
124.405 101.258 116.191
128.491 104.77 117.676
118.896 104.396 115.81
123.209 99.5535 112.848
126.768 99.6889 113.825
119.584 115.534 101.329
122.16 114.345 102.223
119.893 118.972 102.344
124.621 114.359 103.542
124.993 111.155 101.017
120.059 111.311 100.489
116.817 115.47 100.776
117.944 122.431 102.782
120.693 121.357 104.664
125.912 103.898 98.4815
126.044 107.224 99.7323
122.666 107.256 99.7708
128.138 108.099 100.566
128.565 101.896 97.3945
124.497 100.9 97.9773
119.944 107.281 100.303
130.032 109.248 114.502
129.167 111.364 112.725
131.26 107.837 111.641
128.594 113.218 110.751
127.732 115.517 113.905
128.107 111.166 117.265
129.876 106.914 115.947
132.86 104.4 110.386
132.424 107.083 108.094
131.724 108.825 106.134
129.026 112.083 108.05
129.886 110.648 105.06
127.28 115.949 109.084
132.856 104.993 104.378
129.702 109.573 102.618
127.006 112.921 104.656
114.171 108.362 113.092
113.817 106.625 109.838
112.406 110.452 111.246
114.449 105.623 106.803
116.507 103.471 108.743
116.335 105.714 114.279
114.912 110.019 115.865
112.06 114.229 112.177
112.083 112.717 108.643
112.796 112.071 105.313
114.141 107.574 104.557
114.252 110.272 102.711
116.379 104.141 103.903
112.284 115.793 106.355
114.483 113.21 101.067
116.504 108.192 100.672
123.491 122.58 112.673
121.041 124.648 114.916
120.747 125.037 110.626
117.78 123.652 115.403
121.815 122.016 117.903
125.774 119.602 113.832
125.278 119.394 110.596
121.216 123.031 107.403
117.663 125.632 108.144
114.717 124.97 108.445
115.009 123.124 112.818
112.589 122.011 110.206
115.877 120.838 116.625
115.463 124.862 104.096
112.092 119.86 108.096
112.303 118.318 112.141
131.927 96.9372 101.238
129.581 97.322 105.642
133.115 99.1562 104.107
128.502 98.7267 109.693
126.255 96.8563 107.121
127.396 96.5097 100.401
131.658 99.4412 98.1436
134.444 102.04 103.955
133.456 101.475 108.23
120.347 96.9053 104.438
123.6 95.8778 105.725
123.837 95.7609 102.12
122.886 97.9026 109.216
118.349 99.6156 106.982
118.868 100.148 103.783
123.9 98.005 99.1939
126.353 115.177 118.478
124.263 119.145 118.665
126.224 118.046 116.201
125.463 118.419 107.93
123.073 120.017 106.461
125.026 116.598 105.443
129.869 100.034 112.847
130.66 103.053 115.376
132.592 101.588 111.666
134.01 103.781 101.008
130.066 106.058 101.632
132.189 102.764 97.4611
114.939 117.664 117.806
114.719 113.727 117.51
113.288 116.532 114.648
112.415 119.351 104.994
114.056 117.323 101.531
114.329 122.184 102.776
118.304 100.949 109.84
118.445 102.551 113.099
120.473 99.5341 111.373
121.413 101.075 99.8577
119.472 104.999 101.213
118.881 102.3 102.17
121.753 113.241 120.933
121.379 111.264 120.528
120.116 112.957 120.293
121.337 109.253 120.031
122.754 109.633 120.55
123.43 113.609 120.913
122.282 115.17 120.78
118.889 114.577 119.96
118.533 112.796 119.868
124.283 109.707 120.685
124.607 111.915 120.634
125.536 110.1 120.285
124.932 113.987 120.322
124.078 107.647 120.19
126.701 108.181 119.463
126.663 110.217 119.312
121.078 116.778 120.441
119.251 116.421 119.873
119.815 118.055 119.845
117.514 116.234 119.399
122.742 117.176 120.319
120.118 119.84 119.335
118.507 119.441 118.8
118.155 110.978 119.513
119.692 109.015 119.594
118.128 109.075 118.92
121.082 107.365 119.431
116.906 112.666 119.265
116.838 108.978 118.033
118.117 107.363 118.013
123.422 104.136 118.243
124.731 102.687 117.394
122.961 102.689 116.986
126.188 101.376 116.577
126.565 102.744 117.594
123.932 105.667 119.236
122.203 105.717 118.964
121.528 102.805 116.263
122.635 101.546 115.649
126.944 104.338 118.433
125.428 105.836 119.486
127.103 106.16 119.08
128.311 102.976 117.35
128.087 106.685 118.066
120.557 105.657 118.397
120.206 104.148 116.865
119.026 105.624 117.435
120.208 102.993 115.418
117.806 105.925 116.542
123.672 100.314 114.727
125.587 100.274 115.191
124.9 99.6348 113.549
127.467 100.395 115.329
122.132 100.414 113.979
124.48 98.8607 111.865
126.151 99.0156 112.309
121.04 115.057 101.799
121.125 116.769 102.603
119.763 117.234 101.786
121.174 118.248 103.194
122.14 116.333 103.146
122.177 112.48 101.374
120.987 113.291 101.194
118.17 117.568 101.361
118.277 119.191 101.827
123.233 114.395 103.007
123.331 112.481 101.938
124.388 112.649 102.646
123.863 110.866 100.539
123.393 116.063 103.854
125.605 112.395 103.164
126.012 111.305 101.667
119.746 113.5 100.892
118.17 115.696 101.069
118.397 113.576 100.761
116.658 117.586 101.101
121.386 111.215 100.473
118.71 111.353 100.488
117.154 113.27 100.551
119.123 120.619 102.389
120.589 120.132 103.492
119.606 122.162 103.462
121.505 119.51 104.44
117.448 120.865 102.027
118.534 123.859 103.811
119.949 123.145 104.868
125.847 105.344 99.4681
124.43 107.16 99.6762
124.448 105.305 99.8023
122.836 108.937 99.7569
124.529 108.89 99.8573
127.387 105.397 99.6342
127.372 104.358 98.6302
124.491 103.76 98.993
123.069 105.124 99.9959
125.361 109.65 100.081
126.947 107.706 100.115
126.678 109.881 100.519
128.366 105.964 100.238
127.76 109.923 101.072
127.057 103.193 97.3167
125.066 102.631 97.5692
126.562 101.498 97.5075
123.532 102.385 98.2355
128.677 103.575 97.8247
127.802 100.263 97.6315
125.941 99.8457 97.8745
121.393 107.129 100.01
121.366 109.375 100.039
119.988 109.201 100.186
121.555 105.42 100.445
118.598 109.412 100.354
129.531 110.406 113.666
130.41 109.664 112.158
130.672 108.519 113.109
131.124 109.002 110.682
130.009 110.477 111.118
128.663 112.509 114.379
128.808 111.332 115.009
130.9 107.125 113.869
131.544 106.547 112.547
128.957 112.349 111.761
128.428 113.433 113.401
128.154 114.249 112.342
127.907 114.658 114.976
129.468 111.334 110.203
127.803 114.994 111.195
127.382 116.107 112.741
128.89 110.261 115.816
129.959 108.078 115.259
128.968 109.092 116.633
130.911 105.953 114.622
128.111 112.405 116.447
127.882 110 118.021
128.796 107.79 117.136
132.058 106.122 111.048
131.858 107.549 110
132.513 105.988 109.431
131.81 108.643 108.773
132.264 104.615 111.905
133.142 104.408 108.772
132.798 105.529 107.621
130.229 110.484 107.302
129.209 111.389 106.627
130.755 109.875 105.713
128.389 112.305 105.982
128.174 113.215 107.173
129.963 110.696 108.684
131.308 109.469 107.641
131.76 107.86 104.67
131.071 108.928 104.125
128.126 113.959 108.471
128.888 112.505 109.364
127.944 114.419 109.821
127.309 115.248 107.822
127.2 116.433 110.382
132.217 107.92 106.957
132.271 106.746 105.257
132.614 106.088 106.239
132.137 105.692 103.717
133.21 104.665 105.745
129.983 110.173 103.774
128.418 111.738 104.855
128.633 111.324 103.493
127.211 113.69 105.68
130.869 108.251 102.902
128.493 110.819 102.316
126.884 112.04 103.679
113.931 107.386 111.482
112.919 108.422 110.551
113.182 109.266 112.194
112.43 109.633 109.529
112.905 107.931 108.923
114.89 105.7 110.933
114.9 106.406 112.373
113.617 110.452 113.669
112.742 111.252 112.903
113.998 106.114 108.333
115.142 105.045 109.387
115.499 104.603 107.841
116.152 103.964 110.214
113.277 107.364 107.332
115.876 104.25 106.381
116.884 103.082 107.364
115.23 106.987 113.776
114.563 109.19 114.423
115.481 107.862 115.19
114.221 111.417 115.036
116.073 105.067 112.928
116.516 106.533 115.612
115.76 108.811 116.66
112.114 112.278 111.858
112.096 111.479 109.96
111.937 113.42 110.445
112.313 110.881 108.19
112.662 113.285 113.385
111.892 115.266 110.786
112.013 114.552 109.078
113.341 109.721 105.218
114.162 108.914 103.745
113.485 111.104 104.141
114.876 108.1 102.295
114.966 106.684 103.036
113.344 108.502 106.111
112.684 110.537 106.406
112.967 113.534 104.252
113.643 112.511 103.148
114.883 105.691 104.139
113.993 106.603 105.753
115.218 104.865 105.242
115.89 104.835 102.849
116.804 103.603 105.012
112.31 112.249 106.928
112.478 113.897 105.693
112.224 114.129 107.376
112.497 115.622 104.771
112.05 116.059 107.948
114.301 111.704 101.86
114.993 109.231 101.373
115.325 110.61 100.656
115.958 106.986 101.184
113.765 114.17 102.364
115.839 112.233 100.459
116.897 109.674 100.427
122.51 124.087 113.708
121.113 124.964 112.823
122.313 124.182 111.935
119.336 125.285 111.615
119.397 124.983 113.48
122.641 123.678 115.582
123.634 122.69 114.486
123.002 122.796 110.843
121.946 123.865 109.946
119.406 124.297 115.336
121.379 123.681 116.666
119.821 123.201 116.916
122.91 122.287 116.987
117.595 124.54 113.75
118.093 122.449 116.696
120.194 121.721 117.971
124.598 121.18 113.381
124.207 121.194 111.512
125.408 119.684 112.159
124.113 120.836 110.13
124.822 120.876 114.973
126.354 118.289 112.79
126.235 118.193 111.148
120.898 124.417 108.632
119.271 125.332 109.391
119.555 125.024 107.522
117.724 125.419 110.161
122.183 122.468 108.542
120.196 123.739 106.376
118.195 125.466 106.391
114.623 124.182 110.621
113.724 122.922 111.188
113.546 123.714 109.256
113.084 121.357 112.141
114.039 121.876 113.273
115.877 124.337 112.294
115.89 125.006 110.308
113.538 124.331 107.205
112.743 122.726 108.197
115.272 122.085 114.619
116.384 123.539 114.046
116.599 122.35 115.811
114.671 120.662 115.466
117.355 120.889 117.486
116.28 125.409 108.653
114.828 125.274 106.479
116.467 125.658 106.199
113.953 124.708 104.982
117.096 125.098 104.565
112.16 120.919 109.304
112.438 120.126 111.411
112.12 118.934 110.168
113.059 119.521 113.128
112.51 121.608 107.142
112.022 118.143 108.857
111.979 117.25 110.942
130.729 96.6529 103.915
131.288 98.2004 105.135
132.51 97.8433 102.846
132.191 99.0243 106.269
130.7 98.4736 107.044
128.875 95.9588 104.209
130.034 96.2976 102.118
133.66 98.3659 100.464
134.128 99.3599 101.971
129.039 98.0455 107.644
128.022 96.7934 106.137
127.354 97.8033 108.095
126.813 95.9664 105.307
130.018 98.9325 109.184
127.059 98.6053 110.076
125.771 97.8015 108.768
130.019 96.6871 100.322
132.163 97.8703 99.337
129.896 97.6602 98.9771
133.529 99.7925 98.7872
127.645 96.003 101.891
127.149 97.3186 99.2422
129.31 98.8739 98.0883
134.089 100.276 104.26
133.322 99.9535 106.604
134.142 101.803 106.156
132.698 99.9877 108.247
134.901 100.898 102.243
134.007 103.228 105.54
133.609 102.954 107.789
121.882 95.9996 104.895
123.655 95.537 103.907
121.97 95.8595 103.305
125.557 95.5852 102.834
125.384 95.6072 104.588
121.894 96.5128 106.623
120.512 96.9471 106.127
120.802 97.0169 102.731
122.232 96.4465 101.668
125.038 96.2046 106.403
123.192 96.7537 107.421
124.526 97.2751 108.067
121.658 97.5851 108.415
124.198 98.1665 109.849
119.224 97.9968 105.726
119.468 98.2065 103.883
118.479 99.5902 105.275
119.98 98.8183 102.529
119.315 98.2899 107.349
117.874 101.117 106.526
118.027 101.42 105.03
123.799 96.5444 100.628
125.687 96.0341 101.278
125.395 96.9295 99.7483
122.436 97.7749 100.213
125.618 98.3963 98.5062
125.392 117.175 118.675
125.515 118.724 117.573
126.418 116.695 117.383
125.312 120 116.311
124.311 120.496 117.464
124.116 117.495 119.619
125.209 115.54 119.572
127.164 114.763 117.234
127.106 116.051 116.204
123.199 120.761 118.242
122.972 119.047 119.495
121.424 120.492 118.882
126.263 113.791 119.137
127.433 113.167 117.749
127.131 111.658 118.557
127.073 116.777 115.042
126.03 119.014 115.08
126.726 117.521 113.843
124.251 119.346 107.256
124.09 118.371 105.932
125.316 117.637 106.642
123.683 117.204 104.853
122.839 118.899 105.226
123.143 120.841 107.912
124.324 120.003 108.643
126.46 116.643 107.249
126.275 115.849 105.984
121.948 120.478 105.588
122.123 121.499 107.11
120.95 122.117 105.991
125.269 119.073 109.303
126.493 117.224 108.45
126.367 117.771 109.824
126.16 114.862 105.033
124.786 115.625 104.452
125.861 113.713 104.023
130.603 101.155 114.366
131.735 102.012 113.65
131.424 100.602 112.443
132.405 103.074 112.753
131.376 103.864 114.397
129.541 102.134 115.958
129.129 100.551 114.882
130.761 99.619 110.993
132.127 100.283 110.465
130.507 105.103 115.63
129.578 103.883 116.584
129.263 106.046 116.913
128.325 99.8155 113.498
129.217 99.3179 111.333
127.627 99.0707 111.852
133.028 101.266 109.889
133.039 103.055 111.253
133.305 102.926 109.444
132.06 104.381 100.743
131.886 104.119 99.2093
134.041 103.237 98.9696
130.429 103.989 98.7096
129.581 105.462 100.744
130.721 106.153 102.406
132.128 104.8 102.345
134.986 102.06 100.557
133.788 101.443 98.2157
128.997 107.192 101.135
130.052 107.936 101.968
128.792 109.219 101.631
133.306 104.339 102.797
134.69 102.698 102.271
133.883 103.723 104.288
131.79 100.957 97.7146
130.01 102.886 97.5031
129.347 100.453 97.6035
114.67 115.741 117.819
114.007 115.313 116.258
113.982 117.053 116.377
113.484 114.654 114.791
114.165 113.46 115.911
115.64 114.12 118.807
115.839 116.121 118.928
114.289 118.814 116.131
113.508 118.255 114.7
114.663 111.844 116.515
115.488 112.373 118.196
115.549 110.418 117.436
116.238 117.799 118.605
115.19 119.412 117.234
116.753 119.498 118.077
112.758 117.514 113.47
112.703 115.205 113.498
112.114 116.212 112.278
113.2 118.834 103.171
113.959 119.841 102.23
113.289 120.813 103.772
115.308 120.686 101.744
115.202 118.321 101.287
113.352 116.546 102.57
112.557 117.412 104.144
112.661 121.236 105.555
113.483 122.824 104.337
115.413 116.28 100.737
114.205 115.191 101.369
115.723 114.128 100.589
112.205 117.463 105.722
112.276 119.56 106.595
112.054 117.685 107.369
114.597 123.568 103.488
116.284 121.969 102.348
116.968 123.726 103.45
118.184 101.872 111.49
119.356 101.059 112.315
119.2 100.044 110.646
120.663 100.527 112.971
119.749 102.013 113.91
117.269 103.313 112.264
117.276 102.783 110.808
119.176 99.0723 109.053
120.378 98.5972 109.756
118.729 103.369 114.474
117.323 104.095 113.609
117.497 104.914 115.145
117.426 102.322 109.352
118.334 100.059 108.426
117.6 101.676 107.948
121.651 98.5328 110.319
121.773 99.5639 112.162
123.106 98.7545 111.078
120.607 103.051 100.971
118.916 103.751 101.687
120.02 101.622 101.064
117.434 104.192 102.241
117.623 105.452 101.384
121.236 104.198 100.614
122.002 102.431 99.7539
121.195 99.6597 100.596
120.036 100.191 101.811
117.817 106.669 100.864
119.712 106.143 100.755
118.242 108.115 100.56
122.65 101.188 98.7736
122.359 99.3992 99.5796
123.978 99.5335 98.5254
118.929 101.192 102.961
117.611 103.32 103.213
117.841 102.409 104.242
POLYGONS 1280  5120
3 164 162 163
3 163 44 164
3 162 43 163
3 164 42 162
3 166 165 163
3 163 43 166
3 165 44 163
3 166 14 165
3 168 167 162
3 162 42 168
3 167 43 162
3 168 13 167
3 170 169 164
3 164 44 170
3 169 42 164
3 170 12 169
3 173 171 172
3 172 46 173
3 171 43 172
3 173 45 171
3 167 174 172
3 172 43 167
3 174 46 172
3 167 13 174
3 175 166 171
3 171 45 175
3 166 43 171
3 175 14 166
3 177 176 173
3 173 46 177
3 176 45 173
3 177 4 176
3 180 178 179
3 179 48 180
3 178 42 179
3 180 47 178
3 169 181 179
3 179 42 169
3 181 48 179
3 169 12 181
3 182 168 178
3 178 47 182
3 168 42 178
3 182 13 168
3 184 183 180
3 180 48 184
3 183 47 180
3 184 8 183
3 187 185 186
3 186 50 187
3 185 44 186
3 187 49 185
3 165 188 186
3 186 44 165
3 188 50 186
3 165 14 188
3 189 170 185
3 185 49 189
3 170 44 185
3 189 12 170
3 191 190 187
3 187 50 191
3 190 49 187
3 191 7 190
3 194 192 193
3 193 53 194
3 192 52 193
3 194 51 192
3 196 195 193
3 193 52 196
3 195 53 193
3 196 16 195
3 198 197 192
3 192 51 198
3 197 52 192
3 198 14 197
3 200 199 194
3 194 53 200
3 199 51 194
3 200 15 199
3 203 201 202
3 202 45 203
3 201 52 202
3 203 54 201
3 197 175 202
3 202 52 197
3 175 45 202
3 197 14 175
3 204 196 201
3 201 54 204
3 196 52 201
3 204 16 196
3 176 205 203
3 203 45 176
3 205 54 203
3 176 4 205
3 208 206 207
3 207 55 208
3 206 51 207
3 208 50 206
3 199 209 207
3 207 51 199
3 209 55 207
3 199 15 209
3 188 198 206
3 206 50 188
3 198 51 206
3 188 14 198
3 210 191 208
3 208 55 210
3 191 50 208
3 210 7 191
3 213 211 212
3 212 57 213
3 211 53 212
3 213 56 211
3 195 214 212
3 212 53 195
3 214 57 212
3 195 16 214
3 215 200 211
3 211 56 215
3 200 53 211
3 215 15 200
3 217 216 213
3 213 57 217
3 216 56 213
3 217 9 216
3 220 218 219
3 219 60 220
3 218 59 219
3 220 58 218
3 222 221 219
3 219 59 222
3 221 60 219
3 222 19 221
3 224 223 218
3 218 58 224
3 223 59 218
3 224 18 223
3 226 225 220
3 220 60 226
3 225 58 220
3 226 17 225
3 229 227 228
3 228 62 229
3 227 59 228
3 229 61 227
3 223 230 228
3 228 59 223
3 230 62 228
3 223 18 230
3 231 222 227
3 227 61 231
3 222 59 227
3 231 19 222
3 233 232 229
3 229 62 233
3 232 61 229
3 233 5 232
3 236 234 235
3 235 64 236
3 234 58 235
3 236 63 234
3 225 237 235
3 235 58 225
3 237 64 235
3 225 17 237
3 238 224 234
3 234 63 238
3 224 58 234
3 238 18 224
3 240 239 236
3 236 64 240
3 239 63 236
3 240 6 239
3 243 241 242
3 242 66 243
3 241 60 242
3 243 65 241
3 221 244 242
3 242 60 221
3 244 66 242
3 221 19 244
3 245 226 241
3 241 65 245
3 226 60 241
3 245 17 226
3 247 246 243
3 243 66 247
3 246 65 243
3 247 11 246
3 250 248 249
3 249 69 250
3 248 68 249
3 250 67 248
3 252 251 249
3 249 68 252
3 251 69 249
3 252 18 251
3 254 253 248
3 248 67 254
3 253 68 248
3 254 21 253
3 256 255 250
3 250 69 256
3 255 67 250
3 256 20 255
3 259 257 258
3 258 70 259
3 257 68 258
3 259 62 257
3 253 260 258
3 258 68 253
3 260 70 258
3 253 21 260
3 230 252 257
3 257 62 230
3 252 68 257
3 230 18 252
3 261 233 259
3 259 70 261
3 233 62 259
3 261 5 233
3 264 262 263
3 263 72 264
3 262 67 263
3 264 71 262
3 255 265 263
3 263 67 255
3 265 72 263
3 255 20 265
3 266 254 262
3 262 71 266
3 254 67 262
3 266 21 254
3 268 267 264
3 264 72 268
3 267 71 264
3 268 10 267
3 271 269 270
3 270 63 271
3 269 69 270
3 271 73 269
3 251 238 270
3 270 69 251
3 238 63 270
3 251 18 238
3 272 256 269
3 269 73 272
3 256 69 269
3 272 20 256
3 239 273 271
3 271 63 239
3 273 73 271
3 239 6 273
3 276 274 275
3 275 76 276
3 274 75 275
3 276 74 274
3 278 277 275
3 275 75 278
3 277 76 275
3 278 24 277
3 280 279 274
3 274 74 280
3 279 75 274
3 280 23 279
3 282 281 276
3 276 76 282
3 281 74 276
3 282 22 281
3 285 283 284
3 284 78 285
3 283 75 284
3 285 77 283
3 279 286 284
3 284 75 279
3 286 78 284
3 279 23 286
3 287 278 283
3 283 77 287
3 278 75 283
3 287 24 278
3 289 288 285
3 285 78 289
3 288 77 285
3 289 0 288
3 292 290 291
3 291 80 292
3 290 74 291
3 292 79 290
3 281 293 291
3 291 74 281
3 293 80 291
3 281 22 293
3 294 280 290
3 290 79 294
3 280 74 290
3 294 23 280
3 296 295 292
3 292 80 296
3 295 79 292
3 296 4 295
3 299 297 298
3 298 82 299
3 297 76 298
3 299 81 297
3 277 300 298
3 298 76 277
3 300 82 298
3 277 24 300
3 301 282 297
3 297 81 301
3 282 76 297
3 301 22 282
3 303 302 299
3 299 82 303
3 302 81 299
3 303 3 302
3 306 304 305
3 305 85 306
3 304 84 305
3 306 83 304
3 308 307 305
3 305 84 308
3 307 85 305
3 308 26 307
3 310 309 304
3 304 83 310
3 309 84 304
3 310 24 309
3 312 311 306
3 306 85 312
3 311 83 306
3 312 25 311
3 315 313 314
3 314 77 315
3 313 84 314
3 315 86 313
3 309 287 314
3 314 84 309
3 287 77 314
3 309 24 287
3 316 308 313
3 313 86 316
3 308 84 313
3 316 26 308
3 288 317 315
3 315 77 288
3 317 86 315
3 288 0 317
3 320 318 319
3 319 87 320
3 318 83 319
3 320 82 318
3 311 321 319
3 319 83 311
3 321 87 319
3 311 25 321
3 300 310 318
3 318 82 300
3 310 83 318
3 300 24 310
3 322 303 320
3 320 87 322
3 303 82 320
3 322 3 303
3 325 323 324
3 324 89 325
3 323 85 324
3 325 88 323
3 307 326 324
3 324 85 307
3 326 89 324
3 307 26 326
3 327 312 323
3 323 88 327
3 312 85 323
3 327 25 312
3 329 328 325
3 325 89 329
3 328 88 325
3 329 5 328
3 332 330 331
3 331 92 332
3 330 91 331
3 332 90 330
3 334 333 331
3 331 91 334
3 333 92 331
3 334 29 333
3 336 335 330
3 330 90 336
3 335 91 330
3 336 28 335
3 338 337 332
3 332 92 338
3 337 90 332
3 338 27 337
3 341 339 340
3 340 94 341
3 339 91 340
3 341 93 339
3 335 342 340
3 340 91 335
3 342 94 340
3 335 28 342
3 343 334 339
3 339 93 343
3 334 91 339
3 343 29 334
3 345 344 341
3 341 94 345
3 344 93 341
3 345 2 344
3 348 346 347
3 347 96 348
3 346 90 347
3 348 95 346
3 337 349 347
3 347 90 337
3 349 96 347
3 337 27 349
3 350 336 346
3 346 95 350
3 336 90 346
3 350 28 336
3 352 351 348
3 348 96 352
3 351 95 348
3 352 7 351
3 355 353 354
3 354 98 355
3 353 92 354
3 355 97 353
3 333 356 354
3 354 92 333
3 356 98 354
3 333 29 356
3 357 338 353
3 353 97 357
3 338 92 353
3 357 27 338
3 359 358 355
3 355 98 359
3 358 97 355
3 359 1 358
3 362 360 361
3 361 101 362
3 360 100 361
3 362 99 360
3 364 363 361
3 361 100 364
3 363 101 361
3 364 31 363
3 366 365 360
3 360 99 366
3 365 100 360
3 366 29 365
3 368 367 362
3 362 101 368
3 367 99 362
3 368 30 367
3 371 369 370
3 370 93 371
3 369 100 370
3 371 102 369
3 365 343 370
3 370 100 365
3 343 93 370
3 365 29 343
3 372 364 369
3 369 102 372
3 364 100 369
3 372 31 364
3 344 373 371
3 371 93 344
3 373 102 371
3 344 2 373
3 376 374 375
3 375 103 376
3 374 99 375
3 376 98 374
3 367 377 375
3 375 99 367
3 377 103 375
3 367 30 377
3 356 366 374
3 374 98 356
3 366 99 374
3 356 29 366
3 378 359 376
3 376 103 378
3 359 98 376
3 378 1 359
3 381 379 380
3 380 105 381
3 379 101 380
3 381 104 379
3 363 382 380
3 380 101 363
3 382 105 380
3 363 31 382
3 383 368 379
3 379 104 383
3 368 101 379
3 383 30 368
3 385 384 381
3 381 105 385
3 384 104 381
3 385 6 384
3 388 386 387
3 387 108 388
3 386 107 387
3 388 106 386
3 390 389 387
3 387 107 390
3 389 108 387
3 390 34 389
3 392 391 386
3 386 106 392
3 391 107 386
3 392 33 391
3 394 393 388
3 388 108 394
3 393 106 388
3 394 32 393
3 397 395 396
3 396 110 397
3 395 107 396
3 397 109 395
3 391 398 396
3 396 107 391
3 398 110 396
3 391 33 398
3 399 390 395
3 395 109 399
3 390 107 395
3 399 34 390
3 401 400 397
3 397 110 401
3 400 109 397
3 401 8 400
3 404 402 403
3 403 112 404
3 402 106 403
3 404 111 402
3 393 405 403
3 403 106 393
3 405 112 403
3 393 32 405
3 406 392 402
3 402 111 406
3 392 106 402
3 406 33 392
3 408 407 404
3 404 112 408
3 407 111 404
3 408 0 407
3 411 409 410
3 410 114 411
3 409 108 410
3 411 113 409
3 389 412 410
3 410 108 389
3 412 114 410
3 389 34 412
3 413 394 409
3 409 113 413
3 394 108 409
3 413 32 394
3 415 414 411
3 411 114 415
3 414 113 411
3 415 11 414
3 418 416 417
3 417 117 418
3 416 116 417
3 418 115 416
3 420 419 417
3 417 116 420
3 419 117 417
3 420 36 419
3 422 421 416
3 416 115 422
3 421 116 416
3 422 34 421
3 424 423 418
3 418 117 424
3 423 115 418
3 424 35 423
3 427 425 426
3 426 109 427
3 425 116 426
3 427 118 425
3 421 399 426
3 426 116 421
3 399 109 426
3 421 34 399
3 428 420 425
3 425 118 428
3 420 116 425
3 428 36 420
3 400 429 427
3 427 109 400
3 429 118 427
3 400 8 429
3 432 430 431
3 431 119 432
3 430 115 431
3 432 114 430
3 423 433 431
3 431 115 423
3 433 119 431
3 423 35 433
3 412 422 430
3 430 114 412
3 422 115 430
3 412 34 422
3 434 415 432
3 432 119 434
3 415 114 432
3 434 11 415
3 437 435 436
3 436 121 437
3 435 117 436
3 437 120 435
3 419 438 436
3 436 117 419
3 438 121 436
3 419 36 438
3 439 424 435
3 435 120 439
3 424 117 435
3 439 35 424
3 441 440 437
3 437 121 441
3 440 120 437
3 441 1 440
3 444 442 443
3 443 124 444
3 442 123 443
3 444 122 442
3 446 445 443
3 443 123 446
3 445 124 443
3 446 39 445
3 448 447 442
3 442 122 448
3 447 123 442
3 448 38 447
3 450 449 444
3 444 124 450
3 449 122 444
3 450 37 449
3 453 451 452
3 452 126 453
3 451 123 452
3 453 125 451
3 447 454 452
3 452 123 447
3 454 126 452
3 447 38 454
3 455 446 451
3 451 125 455
3 446 123 451
3 455 39 446
3 457 456 453
3 453 126 457
3 456 125 453
3 457 9 456
3 460 458 459
3 459 128 460
3 458 122 459
3 460 127 458
3 449 461 459
3 459 122 449
3 461 128 459
3 449 37 461
3 462 448 458
3 458 127 462
3 448 122 458
3 462 38 448
3 464 463 460
3 460 128 464
3 463 127 460
3 464 10 463
3 467 465 466
3 466 130 467
3 465 124 466
3 467 129 465
3 445 468 466
3 466 124 445
3 468 130 466
3 445 39 468
3 469 450 465
3 465 129 469
3 450 124 465
3 469 37 450
3 471 470 467
3 467 130 471
3 470 129 467
3 471 3 470
3 474 472 473
3 473 133 474
3 472 132 473
3 474 131 472
3 476 475 473
3 473 132 476
3 475 133 473
3 476 38 475
3 478 477 472
3 472 131 478
3 477 132 472
3 478 41 477
3 480 479 474
3 474 133 480
3 479 131 474
3 480 40 479
3 483 481 482
3 482 134 483
3 481 132 482
3 483 126 481
3 477 484 482
3 482 132 477
3 484 134 482
3 477 41 484
3 454 476 481
3 481 126 454
3 476 132 481
3 454 38 476
3 485 457 483
3 483 134 485
3 457 126 483
3 485 9 457
3 488 486 487
3 487 136 488
3 486 131 487
3 488 135 486
3 479 489 487
3 487 131 479
3 489 136 487
3 479 40 489
3 490 478 486
3 486 135 490
3 478 131 486
3 490 41 478
3 492 491 488
3 488 136 492
3 491 135 488
3 492 2 491
3 495 493 494
3 494 127 495
3 493 133 494
3 495 137 493
3 475 462 494
3 494 133 475
3 462 127 494
3 475 38 462
3 496 480 493
3 493 137 496
3 480 133 493
3 496 40 480
3 463 497 495
3 495 127 463
3 497 137 495
3 463 10 497
3 500 498 499
3 499 140 500
3 498 139 499
3 500 138 498
3 502 501 499
3 499 139 502
3 501 140 499
3 502 33 501
3 504 503 498
3 498 138 504
3 503 139 498
3 504 13 503
3 506 505 500
3 500 140 506
3 505 138 500
3 506 23 505
3 509 507 508
3 508 47 509
3 507 139 508
3 509 110 507
3 503 182 508
3 508 139 503
3 182 47 508
3 503 13 182
3 398 502 507
3 507 110 398
3 502 139 507
3 398 33 502
3 183 401 509
3 509 47 183
3 401 110 509
3 183 8 401
3 512 510 511
3 511 79 512
3 510 138 511
3 512 46 510
3 505 294 511
3 511 138 505
3 294 79 511
3 505 23 294
3 174 504 510
3 510 46 174
3 504 138 510
3 174 13 504
3 295 177 512
3 512 79 295
3 177 46 512
3 295 4 177
3 515 513 514
3 514 111 515
3 513 140 514
3 515 78 513
3 501 406 514
3 514 140 501
3 406 111 514
3 501 33 406
3 286 506 513
3 513 78 286
3 506 140 513
3 286 23 506
3 407 289 515
3 515 111 407
3 289 78 515
3 407 0 289
3 518 516 517
3 517 143 518
3 516 142 517
3 518 141 516
3 520 519 517
3 517 142 520
3 519 143 517
3 520 19 519
3 522 521 516
3 516 141 522
3 521 142 516
3 522 32 521
3 524 523 518
3 518 143 524
3 523 141 518
3 524 26 523
3 527 525 526
3 526 113 527
3 525 142 526
3 527 66 525
3 521 413 526
3 526 142 521
3 413 113 526
3 521 32 413
3 244 520 525
3 525 66 244
3 520 142 525
3 244 19 520
3 414 247 527
3 527 113 414
3 247 66 527
3 414 11 247
3 530 528 529
3 529 86 530
3 528 141 529
3 530 112 528
3 523 316 529
3 529 141 523
3 316 86 529
3 523 26 316
3 405 522 528
3 528 112 405
3 522 141 528
3 405 32 522
3 317 408 530
3 530 86 317
3 408 112 530
3 317 0 408
3 533 531 532
3 532 61 533
3 531 143 532
3 533 89 531
3 519 231 532
3 532 143 519
3 231 61 532
3 519 19 231
3 326 524 531
3 531 89 326
3 524 143 531
3 326 26 524
3 232 329 533
3 533 61 232
3 329 89 533
3 232 5 329
3 536 534 535
3 535 146 536
3 534 145 535
3 536 144 534
3 538 537 535
3 535 145 538
3 537 146 535
3 538 22 537
3 540 539 534
3 534 144 540
3 539 145 534
3 540 16 539
3 542 541 536
3 536 146 542
3 541 144 536
3 542 39 541
3 545 543 544
3 544 54 545
3 543 145 544
3 545 80 543
3 539 204 544
3 544 145 539
3 204 54 544
3 539 16 204
3 293 538 543
3 543 80 293
3 538 145 543
3 293 22 538
3 205 296 545
3 545 54 205
3 296 80 545
3 205 4 296
3 548 546 547
3 547 125 548
3 546 144 547
3 548 57 546
3 541 455 547
3 547 144 541
3 455 125 547
3 541 39 455
3 214 540 546
3 546 57 214
3 540 144 546
3 214 16 540
3 456 217 548
3 548 125 456
3 217 57 548
3 456 9 217
3 551 549 550
3 550 81 551
3 549 146 550
3 551 130 549
3 537 301 550
3 550 146 537
3 301 81 550
3 537 22 301
3 468 542 549
3 549 130 468
3 542 146 549
3 468 39 542
3 302 471 551
3 551 81 302
3 471 130 551
3 302 3 471
3 554 552 553
3 553 149 554
3 552 148 553
3 554 147 552
3 556 555 553
3 553 148 556
3 555 149 553
3 556 21 555
3 558 557 552
3 552 147 558
3 557 148 552
3 558 25 557
3 560 559 554
3 554 149 560
3 559 147 554
3 560 37 559
3 563 561 562
3 562 88 563
3 561 148 562
3 563 70 561
3 557 327 562
3 562 148 557
3 327 88 562
3 557 25 327
3 260 556 561
3 561 70 260
3 556 148 561
3 260 21 556
3 328 261 563
3 563 88 328
3 261 70 563
3 328 5 261
3 566 564 565
3 565 129 566
3 564 147 565
3 566 87 564
3 559 469 565
3 565 147 559
3 469 129 565
3 559 37 469
3 321 558 564
3 564 87 321
3 558 147 564
3 321 25 558
3 470 322 566
3 566 129 470
3 322 87 566
3 470 3 322
3 569 567 568
3 568 71 569
3 567 149 568
3 569 128 567
3 555 266 568
3 568 149 555
3 266 71 568
3 555 21 266
3 461 560 567
3 567 128 461
3 560 149 567
3 461 37 560
3 267 464 569
3 569 71 267
3 464 128 569
3 267 10 464
3 572 570 571
3 571 152 572
3 570 151 571
3 572 150 570
3 574 573 571
3 571 151 574
3 573 152 571
3 574 27 573
3 576 575 570
3 570 150 576
3 575 151 570
3 576 12 575
3 578 577 572
3 572 152 578
3 577 150 572
3 578 36 577
3 581 579 580
3 580 49 581
3 579 151 580
3 581 96 579
3 575 189 580
3 580 151 575
3 189 49 580
3 575 12 189
3 349 574 579
3 579 96 349
3 574 151 579
3 349 27 574
3 190 352 581
3 581 49 190
3 352 96 581
3 190 7 352
3 584 582 583
3 583 118 584
3 582 150 583
3 584 48 582
3 577 428 583
3 583 150 577
3 428 118 583
3 577 36 428
3 181 576 582
3 582 48 181
3 576 150 582
3 181 12 576
3 429 184 584
3 584 118 429
3 184 48 584
3 429 8 184
3 587 585 586
3 586 97 587
3 585 152 586
3 587 121 585
3 573 357 586
3 586 152 573
3 357 97 586
3 573 27 357
3 438 578 585
3 585 121 438
3 578 152 585
3 438 36 578
3 358 441 587
3 587 97 358
3 441 121 587
3 358 1 441
3 590 588 589
3 589 155 590
3 588 154 589
3 590 153 588
3 592 591 589
3 589 154 592
3 591 155 589
3 592 17 591
3 594 593 588
3 588 153 594
3 593 154 588
3 594 30 593
3 596 595 590
3 590 155 596
3 595 153 590
3 596 35 595
3 599 597 598
3 598 104 599
3 597 154 598
3 599 64 597
3 593 383 598
3 598 154 593
3 383 104 598
3 593 30 383
3 237 592 597
3 597 64 237
3 592 154 597
3 237 17 592
3 384 240 599
3 599 104 384
3 240 64 599
3 384 6 240
3 602 600 601
3 601 120 602
3 600 153 601
3 602 103 600
3 595 439 601
3 601 153 595
3 439 120 601
3 595 35 439
3 377 594 600
3 600 103 377
3 594 153 600
3 377 30 594
3 440 378 602
3 602 120 440
3 378 103 602
3 440 1 378
3 605 603 604
3 604 65 605
3 603 155 604
3 605 119 603
3 591 245 604
3 604 155 591
3 245 65 604
3 591 17 245
3 433 596 603
3 603 119 433
3 596 155 603
3 433 35 596
3 246 434 605
3 605 65 246
3 434 119 605
3 246 11 434
3 608 606 607
3 607 158 608
3 606 157 607
3 608 156 606
3 610 609 607
3 607 157 610
3 609 158 607
3 610 15 609
3 612 611 606
3 606 156 612
3 611 157 606
3 612 28 611
3 614 613 608
3 608 158 614
3 613 156 608
3 614 41 613
3 617 615 616
3 616 95 617
3 615 157 616
3 617 55 615
3 611 350 616
3 616 157 611
3 350 95 616
3 611 28 350
3 209 610 615
3 615 55 209
3 610 157 615
3 209 15 610
3 351 210 617
3 617 95 351
3 210 55 617
3 351 7 210
3 620 618 619
3 619 135 620
3 618 156 619
3 620 94 618
3 613 490 619
3 619 156 613
3 490 135 619
3 613 41 490
3 342 612 618
3 618 94 342
3 612 156 618
3 342 28 612
3 491 345 620
3 620 135 491
3 345 94 620
3 491 2 345
3 623 621 622
3 622 56 623
3 621 158 622
3 623 134 621
3 609 215 622
3 622 158 609
3 215 56 622
3 609 15 215
3 484 614 621
3 621 134 484
3 614 158 621
3 484 41 614
3 216 485 623
3 623 56 216
3 485 134 623
3 216 9 485
3 626 624 625
3 625 161 626
3 624 160 625
3 626 159 624
3 628 627 625
3 625 160 628
3 627 161 625
3 628 31 627
3 630 629 624
3 624 159 630
3 629 160 624
3 630 20 629
3 632 631 626
3 626 161 632
3 631 159 626
3 632 40 631
3 635 633 634
3 634 73 635
3 633 160 634
3 635 105 633
3 629 272 634
3 634 160 629
3 272 73 634
3 629 20 272
3 382 628 633
3 633 105 382
3 628 160 633
3 382 31 628
3 273 385 635
3 635 73 273
3 385 105 635
3 273 6 385
3 638 636 637
3 637 137 638
3 636 159 637
3 638 72 636
3 631 496 637
3 637 159 631
3 496 137 637
3 631 40 496
3 265 630 636
3 636 72 265
3 630 159 636
3 265 20 630
3 497 268 638
3 638 137 497
3 268 72 638
3 497 10 268
3 641 639 640
3 640 102 641
3 639 161 640
3 641 136 639
3 627 372 640
3 640 161 627
3 372 102 640
3 627 31 372
3 489 632 639
3 639 136 489
3 632 161 639
3 489 40 632
3 373 492 641
3 641 102 373
3 492 136 641
3 373 2 492
