# vtk DataFile Version 3.0
this file was written using fslvtkio
ASCII
DATASET POLYDATA
POINTS 642 float
94.5853 129.88 108.218
87.0893 136.427 103.836
84.5147 120.002 104.053
89.1438 114.165 107.682
89.816 121.102 115.37
92.8093 125.852 102.041
90.1027 128.188 99.7869
84.4203 125.667 111.587
90.7264 137.213 111.711
84.5181 109.575 109.959
86.1046 108.98 98.0959
98.4978 139.148 100.986
86.5768 132.413 112.961
90.0531 129.048 114.935
85.9206 122.858 115.896
83.6914 117.51 112.105
86.4787 114.045 115.013
95.3606 135.536 97.7396
92.7505 127.62 100.234
100.183 132.814 99.9617
86.6016 116.162 100.563
87.0772 115.676 101.352
90.0991 116.376 111.924
92.9462 125.497 112.357
91.6787 122.401 108.368
89.7047 119.771 104.846
94.6455 128.868 104.46
85.0385 132.389 108.275
83.8397 122.954 107.779
85.4946 128.994 104.059
89.3737 134.014 100.273
86.8097 124.094 101.752
98.3333 135.403 104.856
93.8823 134.182 110.227
94.1767 140.772 106.085
92.4332 140.845 101.479
88.7269 140.001 107.921
87.6329 109.964 103.973
84.6561 106.353 103.722
87.3428 107.598 109.817
84.3192 112.797 101.623
83.594 114.046 106.942
87.7768 130.621 114.923
87.7312 126.144 116.521
85.9402 127.722 114.965
87.8767 121.456 116.407
89.9613 125.091 115.656
90.2498 133.454 113.383
88.4493 135.506 113.077
85.1797 129.025 112.518
84.9137 124.263 113.766
84.6655 119.892 114.339
86.1595 118.249 116.174
84.8581 115.433 113.825
88.6564 117.097 115.915
83.8212 121.598 111.971
84.3485 113.483 111.077
85.3589 110.868 112.484
95.1203 132.022 98.8042
96.4712 131.355 99.8582
98.5787 134.408 97.8805
95.915 130.235 101.304
93.0067 126.785 101.039
91.7394 128.29 99.57
92.7348 132.259 99.1008
97.5642 137.738 98.8525
100.564 136.461 99.8055
86.9016 115.057 99.425
88.6319 121.311 101.255
89.089 122.801 100.973
90.1061 121.649 102.162
87.5727 111.788 99.4329
86.0052 112.255 96.7892
88.8241 124.069 100.118
91.9868 121.081 112.457
92.9515 123.717 110.294
91.1977 119.379 110.151
93.3595 126.352 108.27
93.8443 127.817 110.399
91.6452 123.503 114.375
90.1978 118.359 113.921
89.6966 114.779 109.749
90.1875 118.293 108.035
90.7587 121.416 106.433
92.6402 125.453 106.348
92.2442 124.459 104.622
95.0412 129.525 106.19
89.1659 116.618 106.09
91.1148 122.561 103.27
94.1864 127.728 102.883
84.4093 127.65 108.136
84.5292 126.019 105.87
84.925 130.525 106.09
85.0661 124.346 103.941
84.0839 121.345 105.752
84.106 124.222 109.801
84.8992 129.247 110.113
85.7343 134.775 106.087
86.146 133.133 103.763
87.1175 131.228 102.058
85.8909 126.805 102.338
87.8193 129.5 100.7
85.414 121.179 102.485
88.3057 135.468 101.838
90.0807 131.298 99.8473
88.0639 126.488 99.9688
96.1024 135.492 107.569
94.261 137.711 107.96
96.4078 138.209 105.253
92.1038 139.616 108.934
92.3599 136.007 110.891
94.8509 132.049 109.266
96.7942 132.794 106.745
98.8231 137.022 102.748
96.5551 140.66 103.382
93.6653 142.668 103.694
91.3692 142.426 107.388
90.0345 141.739 104.716
89.5506 139.547 110.417
95.9937 141.103 100.385
89.5168 139.102 102.758
88.0248 138.356 105.811
86.8572 106.34 103.001
86.1624 104.848 106.9
87.5075 107.897 106.477
85.4013 106.89 110.618
84.685 107.464 107.32
84.8246 106.796 100.134
86.9706 109.213 101.109
88.17 111.764 106.213
88.1024 110.77 108.659
83.7274 112.86 104.295
84.2606 109.876 105.573
84.3228 109.387 102.435
83.8958 111.518 108.411
83.3917 116.714 105.21
83.8677 116.392 102.856
84.655 110.401 99.3452
91.8911 127.75 113.76
92.0292 131.991 112.664
93.5228 130.014 111.736
97.6353 132.384 104.328
99.9123 133.907 102.332
97.8274 131.345 102.59
87.2319 110.111 113.009
88.7993 114.142 113.864
88.3648 111.885 111.364
88.095 114.613 104.44
88.5501 117.93 103.18
87.2914 112.976 102.353
87.3441 136.744 110.761
85.7306 133.043 110.626
86.5566 136.485 108.307
90.9619 137.751 100.312
91.8963 135.217 98.5757
94.185 138.422 99.1742
83.3693 118.283 107.502
83.415 119.744 109.765
83.4137 115.628 109.526
85.098 114.187 99.6392
86.9872 119.78 101.646
84.9685 117.448 100.973
87.7677 128.49 115.911
86.6449 126.841 116.057
86.6041 129.288 115.316
86.0217 125.249 115.415
86.7057 124.503 116.449
88.8737 127.645 115.827
88.8542 129.645 115.076
86.9844 131.73 114.129
86.1119 129.975 114.092
87.8539 123.932 116.831
88.9039 125.485 116.006
88.9026 123.253 116.254
89.9868 127.16 115.461
86.8046 122.201 116.706
88.9271 120.988 116.039
89.8936 123.023 115.573
88.9907 131.906 113.818
88.1999 133.183 114.076
89.2437 134.156 113.589
87.395 134.103 113.189
89.9749 130.982 114.042
90.4522 135.37 112.662
89.6293 136.414 112.615
85.3855 128.444 113.839
85.5165 126.072 114.409
85.0507 126.674 113.306
85.3804 123.483 114.785
85.7686 130.65 112.894
84.8107 127.257 112.074
84.722 124.919 112.676
85.1787 118.74 115.369
85.448 116.713 115.118
84.8102 117.613 114.292
85.6031 114.61 114.585
86.3151 116.116 115.875
86.0818 120.522 116.063
85.2203 121.053 115.202
84.3435 118.58 113.307
84.3327 116.452 112.935
87.3614 117.334 116.333
86.9435 119.714 116.649
88.089 119.143 116.354
87.5597 115.438 115.951
89.1433 119.079 115.649
84.885 122.08 114.096
84.219 120.683 113.23
84.4444 122.79 112.968
83.6582 119.561 112.279
84.4177 123.664 111.717
84.6927 114.387 112.446
85.3055 113.294 113.149
84.7679 112.084 111.947
85.9299 112.431 113.709
83.8838 115.494 111.699
84.2157 111.374 110.774
84.7298 109.904 111.342
95.8275 131.534 99.3996
97.886 132.589 98.9252
96.8944 132.982 98.3529
99.5871 133.775 98.8501
98.5499 132.38 99.5259
94.3304 129.732 100.178
94.1404 130.401 99.6656
95.645 133.657 97.9307
97.0926 134.95 97.9591
96.7626 131.15 100.482
94.6331 129.565 100.654
94.7421 129.051 101.234
92.9031 126.995 100.615
98.2752 131.797 100.667
94.1405 128.24 101.905
92.8788 126.4 101.627
93.4258 130.637 99.4848
94.0949 132.481 98.6027
92.526 130.654 99.3499
94.1139 134.072 98.1102
92.2999 128.043 99.8749
91.0014 128.445 99.4346
91.2516 130.116 99.5243
98.3162 136.256 98.0327
99.9741 135.644 98.4106
99.2987 137.436 99.0343
100.818 134.65 99.8265
96.4783 136.766 98.2482
98.3187 138.874 99.6774
99.6247 138.016 100.425
86.7252 117.435 100.877
89.0884 121.553 100.392
86.8218 117.882 100.738
91.2595 125.679 100.209
91.2114 124.732 100.537
86.7863 117.76 101.219
86.8888 115.184 100.463
86.4201 115.358 99.3797
87.5342 118.87 101.297
91.1123 124.45 101.083
88.9461 121.269 101.63
91.5885 124.343 101.568
87.891 118.858 101.896
91.681 123.468 102.104
87.4495 113.302 99.0807
87.0133 113.621 97.7971
86.9102 111.669 97.7941
85.9078 114.229 97.7397
87.4 113.482 100.48
86.9898 110.246 98.6083
85.7839 110.261 97.1612
89.0919 123.34 100.933
90.6943 126.067 100.087
90.3097 126.676 99.6213
88.031 120.171 101.58
89.4588 126.545 99.4321
92.6709 122.258 111.443
92.0162 121.51 110.402
91.6677 120.09 111.337
91.489 120.872 109.275
92.4146 122.86 109.394
93.0695 124.457 111.376
92.4875 123.388 112.506
91.0084 118.778 112.187
90.805 118.063 111.145
93.1887 125.009 109.197
93.4766 125.679 110.359
93.7249 127.047 109.377
93.4307 126.647 111.348
92.5862 124.283 108.323
93.9919 128.171 108.232
94.2125 128.905 109.298
91.8918 121.996 113.433
91.024 119.687 113.179
90.9234 120.913 114.179
90.3052 117.144 112.94
92.228 124.447 113.421
90.7708 122.362 114.979
90.1178 119.674 114.862
90.3015 117.173 110.025
90.6561 118.822 109.122
90.1567 116.661 108.928
90.8131 120.439 108.232
89.929 115.685 110.873
89.5776 114.501 108.635
89.7301 116.222 107.825
91.6701 123.521 106.335
92.5722 125.098 105.402
91.1899 123.074 105.588
93.299 126.749 104.449
93.5552 127.207 105.383
92.1057 123.879 107.337
91.2714 121.947 107.294
90.2863 120.711 105.673
90.964 121.99 104.793
93.7242 127.626 106.279
93.1108 125.891 107.263
93.906 127.913 107.162
94.8586 129.174 105.376
94.8464 129.668 107.173
90.2428 119.917 107.175
89.8925 119.09 106.213
89.675 117.739 107.008
89.2247 117.996 105.411
89.1895 115.367 106.883
91.8135 123.578 103.909
93.0023 125.836 103.721
92.6063 125.041 103.21
94.4099 128.191 103.629
90.5231 121.203 104.024
91.9304 124.295 102.569
93.3657 126.78 102.427
84.3543 126.867 106.989
84.9875 128.284 106.029
84.6114 129.156 107.152
85.2023 129.782 105.036
85.0613 127.473 104.925
84.1711 124.592 106.869
84.1914 125.338 107.905
84.6893 130.044 108.24
84.9117 131.385 107.189
84.8431 125.204 104.866
84.137 123.745 105.813
84.4708 122.893 104.882
83.8576 122.196 106.762
85.2061 126.618 103.839
84.833 122.188 103.908
84.2403 120.637 104.815
84.212 125.916 109.002
84.5432 128.524 109.083
84.4251 126.887 109.918
84.8813 130.897 109.312
83.7802 123.592 108.826
84.2616 124.981 110.714
84.7228 127.438 110.95
85.2641 132.579 106.105
85.5605 131.72 105.047
85.7769 133.718 104.915
85.7926 131.153 103.905
85.2481 133.673 107.201
86.2112 135.625 104.878
86.5463 134.825 103.731
86.5266 129.052 102.084
86.6632 127.773 101.364
87.3998 130.268 101.251
87.1775 126.979 101.085
86.3781 125.456 101.767
85.6796 127.899 103.073
86.07 130.106 102.917
88.1533 132.481 101.285
88.8362 131.825 100.766
85.5542 123.879 102.124
85.4334 125.361 102.922
85.2906 122.976 103.07
85.8297 122.074 101.738
85.0003 120.489 103.258
86.733 132.197 102.85
87.666 133.444 101.946
87.0115 134.099 102.665
88.797 134.567 101.047
87.7927 136.043 102.839
88.936 130.415 100.264
88.0409 128.197 100.299
89.0443 128.861 99.8813
87.3141 125.638 100.9
89.8642 132.782 99.9445
90.218 129.684 99.6594
89.0629 127.462 99.6096
95.145 136.484 107.849
95.3393 138.012 106.637
96.3636 136.848 106.483
95.3307 139.556 105.663
94.2626 139.41 107.106
94.0295 136.064 109.126
94.8102 134.94 108.859
97.1836 135.507 106.122
97.4279 136.813 105.044
93.25 138.741 108.426
93.2478 137.05 109.42
92.1155 137.746 109.723
93.1715 135.184 110.458
93.126 140.434 107.597
91.2357 138.562 110.376
91.4722 136.719 111.305
95.5951 133.903 108.517
96.6008 134.159 107.235
95.7679 132.487 107.947
97.6469 134.088 105.832
94.5015 133.096 109.867
94.8619 130.781 108.863
95.5679 131.162 107.479
97.6216 137.783 104.065
96.5998 139.469 104.388
97.4827 138.694 103.031
95.4965 140.971 104.849
98.8666 136.244 103.717
99.0041 138.183 101.823
97.5777 139.922 102.059
92.6357 142.79 105.461
90.5971 142.496 106.093
91.7756 142.654 104.156
89.2613 141.137 106.356
89.7071 141.585 107.767
93.0642 141.933 106.812
94.1251 141.951 104.935
92.9454 142.113 102.367
91.1975 141.544 103.04
90.5154 141.182 108.794
91.8471 141.135 108.117
90.821 139.856 109.555
89.0281 140.044 109.386
90.0447 138.337 111.172
95.2724 141.73 103.338
94.8843 141.763 101.993
96.4134 141.366 101.826
94.0895 141.198 100.759
97.4135 140.16 100.553
89.9045 140.517 103.652
88.9742 140.167 105.255
88.7546 138.985 104.325
88.2421 139.422 106.737
90.9808 140.115 102.151
88.4394 137.635 103.373
87.5172 137.327 104.817
86.6153 105.387 104.749
87.112 106.081 106.653
87.2657 106.842 104.878
87.548 107.493 108.128
87.0408 105.839 108.443
85.2138 105.34 105.098
85.7341 105.415 103.043
87.3278 107.886 103.494
87.4673 108.622 104.953
85.7162 105.868 108.814
84.9644 105.706 107.15
84.8957 106.979 108.794
84.5665 106.673 105.652
86.6867 106.601 110.613
84.8218 108.135 110.421
84.5032 108.527 108.843
86.1779 106.181 101.371
86.9659 107.747 102.047
86.4593 107.473 100.084
87.2767 109.486 102.721
84.8809 106.468 101.929
85.4775 107.644 98.478
86.7422 109.206 99.6231
87.6793 109.599 106.268
87.6366 109.242 107.711
88.3379 111.005 107.28
87.822 109.046 109.199
87.8393 110.785 105.095
88.7052 113.125 106.983
88.7423 112.547 108.251
83.9873 111.238 104.866
84.3525 109.451 104.021
84.0349 110.982 103.343
84.5645 107.849 103.157
84.4877 107.991 104.84
83.9071 111.728 106.233
83.7723 113.192 105.633
84.1171 112.728 102.965
84.2402 111.054 101.886
84.3804 108.651 106.472
84.1007 110.553 107.052
84.3118 109.457 107.965
83.7512 112.632 107.558
84.4769 110.629 109.241
83.6071 114.728 104.825
83.6294 114.505 103.424
83.7567 116.486 104.02
83.9925 114.547 102.298
83.4475 115.288 106.136
83.6176 118.416 104.56
83.9532 118.307 103.488
84.3261 109.807 100.824
84.4787 107.901 101.508
84.3334 108.145 99.5084
84.502 111.597 100.446
84.5707 109.309 97.8807
91.9557 129.786 113.377
92.8623 131 112.286
92.6625 128.835 112.762
93.8269 132.133 111.248
92.936 133.196 111.462
91.0715 130.571 113.787
91.0201 128.61 114.347
92.4943 126.66 113.109
93.2698 127.82 112.122
92.1133 133.934 111.794
91.1624 132.811 113.15
91.393 134.936 112.198
90.9781 126.665 114.867
91.5943 125.772 114.055
90.7192 124.516 114.867
93.8687 128.887 111.101
94.4038 131.101 110.665
94.442 129.99 109.998
98.6615 133.246 103.42
99.575 132.43 102.416
97.6752 131.722 103.501
99.3173 131.956 101.471
100.584 133.242 101.206
99.2647 134.765 103.69
98.503 133.857 104.696
96.2417 130.747 104.465
96.0818 130.344 103.657
100.652 134.852 100.988
99.8741 135.596 102.295
100.271 136.732 101.304
97.3632 132.495 105.5
96.2584 130.914 105.386
96.0403 131.191 106.353
95.9162 129.986 102.71
97.1507 130.943 101.709
94.9795 129.275 102.177
88.21 111.93 113.381
88.5766 112.93 112.611
87.9662 110.682 112.064
89.0264 114.122 111.857
89.4485 114.952 112.847
87.6421 113.782 114.497
86.959 111.986 114.137
87.3844 108.608 111.522
87.8414 109.614 110.726
89.3881 116.176 113.875
88.8508 115.336 115.206
89.2761 117.618 114.797
86.253 110.087 113.102
86.4016 108.064 111.911
85.3286 108.703 112.191
88.2775 110.994 110.024
88.91 113.11 110.574
88.8247 112.663 109.389
88.4147 116.189 103.734
88.0412 115.418 102.614
87.7059 113.777 103.447
87.4435 114.44 101.771
87.7913 117.089 102.269
89.1123 118.71 104.125
88.7543 117.148 104.606
87.5773 112.275 104.249
87.3362 111.376 103.158
89.2431 119.811 102.595
89.7772 120.177 103.151
90.7709 121.847 102.58
88.795 115.572 105.206
88.0874 113.119 105.265
88.658 114.183 106.044
87.2191 110.982 101.773
87.2379 112.592 101.194
87.5386 110.751 100.306
86.4433 134.921 110.828
86.1858 134.828 109.55
87.1219 136.753 109.489
85.6939 134.488 108.35
85.4765 132.934 109.416
86.1981 132.893 111.824
86.9261 134.695 111.98
87.9801 138.658 109.343
87.5794 138.357 108.132
85.0987 131.23 110.49
85.5717 131.115 111.692
85.124 129.281 111.268
87.5045 136.273 112.213
88.3207 138.169 110.679
88.9256 137.331 111.659
87.2337 137.486 107.037
85.8872 135.637 107.19
86.4297 136.648 105.929
91.3946 136.451 99.3256
93.0509 136.928 98.6122
92.4951 138.174 99.6968
94.7147 137.016 98.2043
93.5246 135.505 97.9877
90.5406 134.626 99.3939
90.124 135.894 100.198
91.7296 139.429 100.664
93.3851 139.788 100.092
92.3483 133.719 98.5045
91.0269 133.182 99.3948
91.3288 131.602 99.5687
89.6228 136.629 101.104
90.4131 138.488 101.523
89.1263 137.364 102.173
95.0106 139.9 99.7453
95.7981 138.237 98.8895
96.679 139.406 99.5439
83.4731 119.112 108.603
83.473 117.706 109.703
83.064 116.831 108.559
83.4609 116.594 110.805
83.6147 118.686 110.984
83.4805 121.299 108.722
83.5378 120.666 107.704
83.2604 116.098 107.335
83.4824 114.801 108.174
83.4948 120.553 110.861
83.6515 122.005 109.793
83.9266 122.763 110.769
83.5863 119.731 106.541
83.1813 117.403 106.41
83.7414 118.963 105.542
83.9224 113.591 108.849
83.7 114.5 110.334
84.0886 112.512 109.855
86.1761 116.91 100.304
86.0554 118.501 101.062
85.0176 115.741 100.376
86.0299 120.422 101.417
86.7488 121.9 101.636
87.2745 118.082 101.305
86.0579 115.133 99.7106
84.6249 113.202 100.414
84.1548 114.917 101.081
87.2407 123.463 100.2
87.7744 121.5 100.956
88.0129 124.593 99.3267
85.7226 113.315 98.2806
84.7431 112.407 98.8852
84.8735 111.457 97.6667
84.2701 116.612 101.793
85.3806 119.289 101.761
84.5552 118.661 102.554
POLYGONS 1280  5120
3 164 162 163
3 163 44 164
3 162 43 163
3 164 42 162
3 166 165 163
3 163 43 166
3 165 44 163
3 166 14 165
3 168 167 162
3 162 42 168
3 167 43 162
3 168 13 167
3 170 169 164
3 164 44 170
3 169 42 164
3 170 12 169
3 173 171 172
3 172 46 173
3 171 43 172
3 173 45 171
3 167 174 172
3 172 43 167
3 174 46 172
3 167 13 174
3 175 166 171
3 171 45 175
3 166 43 171
3 175 14 166
3 177 176 173
3 173 46 177
3 176 45 173
3 177 4 176
3 180 178 179
3 179 48 180
3 178 42 179
3 180 47 178
3 169 181 179
3 179 42 169
3 181 48 179
3 169 12 181
3 182 168 178
3 178 47 182
3 168 42 178
3 182 13 168
3 184 183 180
3 180 48 184
3 183 47 180
3 184 8 183
3 187 185 186
3 186 50 187
3 185 44 186
3 187 49 185
3 165 188 186
3 186 44 165
3 188 50 186
3 165 14 188
3 189 170 185
3 185 49 189
3 170 44 185
3 189 12 170
3 191 190 187
3 187 50 191
3 190 49 187
3 191 7 190
3 194 192 193
3 193 53 194
3 192 52 193
3 194 51 192
3 196 195 193
3 193 52 196
3 195 53 193
3 196 16 195
3 198 197 192
3 192 51 198
3 197 52 192
3 198 14 197
3 200 199 194
3 194 53 200
3 199 51 194
3 200 15 199
3 203 201 202
3 202 45 203
3 201 52 202
3 203 54 201
3 197 175 202
3 202 52 197
3 175 45 202
3 197 14 175
3 204 196 201
3 201 54 204
3 196 52 201
3 204 16 196
3 176 205 203
3 203 45 176
3 205 54 203
3 176 4 205
3 208 206 207
3 207 55 208
3 206 51 207
3 208 50 206
3 199 209 207
3 207 51 199
3 209 55 207
3 199 15 209
3 188 198 206
3 206 50 188
3 198 51 206
3 188 14 198
3 210 191 208
3 208 55 210
3 191 50 208
3 210 7 191
3 213 211 212
3 212 57 213
3 211 53 212
3 213 56 211
3 195 214 212
3 212 53 195
3 214 57 212
3 195 16 214
3 215 200 211
3 211 56 215
3 200 53 211
3 215 15 200
3 217 216 213
3 213 57 217
3 216 56 213
3 217 9 216
3 220 218 219
3 219 60 220
3 218 59 219
3 220 58 218
3 222 221 219
3 219 59 222
3 221 60 219
3 222 19 221
3 224 223 218
3 218 58 224
3 223 59 218
3 224 18 223
3 226 225 220
3 220 60 226
3 225 58 220
3 226 17 225
3 229 227 228
3 228 62 229
3 227 59 228
3 229 61 227
3 223 230 228
3 228 59 223
3 230 62 228
3 223 18 230
3 231 222 227
3 227 61 231
3 222 59 227
3 231 19 222
3 233 232 229
3 229 62 233
3 232 61 229
3 233 5 232
3 236 234 235
3 235 64 236
3 234 58 235
3 236 63 234
3 225 237 235
3 235 58 225
3 237 64 235
3 225 17 237
3 238 224 234
3 234 63 238
3 224 58 234
3 238 18 224
3 240 239 236
3 236 64 240
3 239 63 236
3 240 6 239
3 243 241 242
3 242 66 243
3 241 60 242
3 243 65 241
3 221 244 242
3 242 60 221
3 244 66 242
3 221 19 244
3 245 226 241
3 241 65 245
3 226 60 241
3 245 17 226
3 247 246 243
3 243 66 247
3 246 65 243
3 247 11 246
3 250 248 249
3 249 69 250
3 248 68 249
3 250 67 248
3 252 251 249
3 249 68 252
3 251 69 249
3 252 18 251
3 254 253 248
3 248 67 254
3 253 68 248
3 254 21 253
3 256 255 250
3 250 69 256
3 255 67 250
3 256 20 255
3 259 257 258
3 258 70 259
3 257 68 258
3 259 62 257
3 253 260 258
3 258 68 253
3 260 70 258
3 253 21 260
3 230 252 257
3 257 62 230
3 252 68 257
3 230 18 252
3 261 233 259
3 259 70 261
3 233 62 259
3 261 5 233
3 264 262 263
3 263 72 264
3 262 67 263
3 264 71 262
3 255 265 263
3 263 67 255
3 265 72 263
3 255 20 265
3 266 254 262
3 262 71 266
3 254 67 262
3 266 21 254
3 268 267 264
3 264 72 268
3 267 71 264
3 268 10 267
3 271 269 270
3 270 63 271
3 269 69 270
3 271 73 269
3 251 238 270
3 270 69 251
3 238 63 270
3 251 18 238
3 272 256 269
3 269 73 272
3 256 69 269
3 272 20 256
3 239 273 271
3 271 63 239
3 273 73 271
3 239 6 273
3 276 274 275
3 275 76 276
3 274 75 275
3 276 74 274
3 278 277 275
3 275 75 278
3 277 76 275
3 278 24 277
3 280 279 274
3 274 74 280
3 279 75 274
3 280 23 279
3 282 281 276
3 276 76 282
3 281 74 276
3 282 22 281
3 285 283 284
3 284 78 285
3 283 75 284
3 285 77 283
3 279 286 284
3 284 75 279
3 286 78 284
3 279 23 286
3 287 278 283
3 283 77 287
3 278 75 283
3 287 24 278
3 289 288 285
3 285 78 289
3 288 77 285
3 289 0 288
3 292 290 291
3 291 80 292
3 290 74 291
3 292 79 290
3 281 293 291
3 291 74 281
3 293 80 291
3 281 22 293
3 294 280 290
3 290 79 294
3 280 74 290
3 294 23 280
3 296 295 292
3 292 80 296
3 295 79 292
3 296 4 295
3 299 297 298
3 298 82 299
3 297 76 298
3 299 81 297
3 277 300 298
3 298 76 277
3 300 82 298
3 277 24 300
3 301 282 297
3 297 81 301
3 282 76 297
3 301 22 282
3 303 302 299
3 299 82 303
3 302 81 299
3 303 3 302
3 306 304 305
3 305 85 306
3 304 84 305
3 306 83 304
3 308 307 305
3 305 84 308
3 307 85 305
3 308 26 307
3 310 309 304
3 304 83 310
3 309 84 304
3 310 24 309
3 312 311 306
3 306 85 312
3 311 83 306
3 312 25 311
3 315 313 314
3 314 77 315
3 313 84 314
3 315 86 313
3 309 287 314
3 314 84 309
3 287 77 314
3 309 24 287
3 316 308 313
3 313 86 316
3 308 84 313
3 316 26 308
3 288 317 315
3 315 77 288
3 317 86 315
3 288 0 317
3 320 318 319
3 319 87 320
3 318 83 319
3 320 82 318
3 311 321 319
3 319 83 311
3 321 87 319
3 311 25 321
3 300 310 318
3 318 82 300
3 310 83 318
3 300 24 310
3 322 303 320
3 320 87 322
3 303 82 320
3 322 3 303
3 325 323 324
3 324 89 325
3 323 85 324
3 325 88 323
3 307 326 324
3 324 85 307
3 326 89 324
3 307 26 326
3 327 312 323
3 323 88 327
3 312 85 323
3 327 25 312
3 329 328 325
3 325 89 329
3 328 88 325
3 329 5 328
3 332 330 331
3 331 92 332
3 330 91 331
3 332 90 330
3 334 333 331
3 331 91 334
3 333 92 331
3 334 29 333
3 336 335 330
3 330 90 336
3 335 91 330
3 336 28 335
3 338 337 332
3 332 92 338
3 337 90 332
3 338 27 337
3 341 339 340
3 340 94 341
3 339 91 340
3 341 93 339
3 335 342 340
3 340 91 335
3 342 94 340
3 335 28 342
3 343 334 339
3 339 93 343
3 334 91 339
3 343 29 334
3 345 344 341
3 341 94 345
3 344 93 341
3 345 2 344
3 348 346 347
3 347 96 348
3 346 90 347
3 348 95 346
3 337 349 347
3 347 90 337
3 349 96 347
3 337 27 349
3 350 336 346
3 346 95 350
3 336 90 346
3 350 28 336
3 352 351 348
3 348 96 352
3 351 95 348
3 352 7 351
3 355 353 354
3 354 98 355
3 353 92 354
3 355 97 353
3 333 356 354
3 354 92 333
3 356 98 354
3 333 29 356
3 357 338 353
3 353 97 357
3 338 92 353
3 357 27 338
3 359 358 355
3 355 98 359
3 358 97 355
3 359 1 358
3 362 360 361
3 361 101 362
3 360 100 361
3 362 99 360
3 364 363 361
3 361 100 364
3 363 101 361
3 364 31 363
3 366 365 360
3 360 99 366
3 365 100 360
3 366 29 365
3 368 367 362
3 362 101 368
3 367 99 362
3 368 30 367
3 371 369 370
3 370 93 371
3 369 100 370
3 371 102 369
3 365 343 370
3 370 100 365
3 343 93 370
3 365 29 343
3 372 364 369
3 369 102 372
3 364 100 369
3 372 31 364
3 344 373 371
3 371 93 344
3 373 102 371
3 344 2 373
3 376 374 375
3 375 103 376
3 374 99 375
3 376 98 374
3 367 377 375
3 375 99 367
3 377 103 375
3 367 30 377
3 356 366 374
3 374 98 356
3 366 99 374
3 356 29 366
3 378 359 376
3 376 103 378
3 359 98 376
3 378 1 359
3 381 379 380
3 380 105 381
3 379 101 380
3 381 104 379
3 363 382 380
3 380 101 363
3 382 105 380
3 363 31 382
3 383 368 379
3 379 104 383
3 368 101 379
3 383 30 368
3 385 384 381
3 381 105 385
3 384 104 381
3 385 6 384
3 388 386 387
3 387 108 388
3 386 107 387
3 388 106 386
3 390 389 387
3 387 107 390
3 389 108 387
3 390 34 389
3 392 391 386
3 386 106 392
3 391 107 386
3 392 33 391
3 394 393 388
3 388 108 394
3 393 106 388
3 394 32 393
3 397 395 396
3 396 110 397
3 395 107 396
3 397 109 395
3 391 398 396
3 396 107 391
3 398 110 396
3 391 33 398
3 399 390 395
3 395 109 399
3 390 107 395
3 399 34 390
3 401 400 397
3 397 110 401
3 400 109 397
3 401 8 400
3 404 402 403
3 403 112 404
3 402 106 403
3 404 111 402
3 393 405 403
3 403 106 393
3 405 112 403
3 393 32 405
3 406 392 402
3 402 111 406
3 392 106 402
3 406 33 392
3 408 407 404
3 404 112 408
3 407 111 404
3 408 0 407
3 411 409 410
3 410 114 411
3 409 108 410
3 411 113 409
3 389 412 410
3 410 108 389
3 412 114 410
3 389 34 412
3 413 394 409
3 409 113 413
3 394 108 409
3 413 32 394
3 415 414 411
3 411 114 415
3 414 113 411
3 415 11 414
3 418 416 417
3 417 117 418
3 416 116 417
3 418 115 416
3 420 419 417
3 417 116 420
3 419 117 417
3 420 36 419
3 422 421 416
3 416 115 422
3 421 116 416
3 422 34 421
3 424 423 418
3 418 117 424
3 423 115 418
3 424 35 423
3 427 425 426
3 426 109 427
3 425 116 426
3 427 118 425
3 421 399 426
3 426 116 421
3 399 109 426
3 421 34 399
3 428 420 425
3 425 118 428
3 420 116 425
3 428 36 420
3 400 429 427
3 427 109 400
3 429 118 427
3 400 8 429
3 432 430 431
3 431 119 432
3 430 115 431
3 432 114 430
3 423 433 431
3 431 115 423
3 433 119 431
3 423 35 433
3 412 422 430
3 430 114 412
3 422 115 430
3 412 34 422
3 434 415 432
3 432 119 434
3 415 114 432
3 434 11 415
3 437 435 436
3 436 121 437
3 435 117 436
3 437 120 435
3 419 438 436
3 436 117 419
3 438 121 436
3 419 36 438
3 439 424 435
3 435 120 439
3 424 117 435
3 439 35 424
3 441 440 437
3 437 121 441
3 440 120 437
3 441 1 440
3 444 442 443
3 443 124 444
3 442 123 443
3 444 122 442
3 446 445 443
3 443 123 446
3 445 124 443
3 446 39 445
3 448 447 442
3 442 122 448
3 447 123 442
3 448 38 447
3 450 449 444
3 444 124 450
3 449 122 444
3 450 37 449
3 453 451 452
3 452 126 453
3 451 123 452
3 453 125 451
3 447 454 452
3 452 123 447
3 454 126 452
3 447 38 454
3 455 446 451
3 451 125 455
3 446 123 451
3 455 39 446
3 457 456 453
3 453 126 457
3 456 125 453
3 457 9 456
3 460 458 459
3 459 128 460
3 458 122 459
3 460 127 458
3 449 461 459
3 459 122 449
3 461 128 459
3 449 37 461
3 462 448 458
3 458 127 462
3 448 122 458
3 462 38 448
3 464 463 460
3 460 128 464
3 463 127 460
3 464 10 463
3 467 465 466
3 466 130 467
3 465 124 466
3 467 129 465
3 445 468 466
3 466 124 445
3 468 130 466
3 445 39 468
3 469 450 465
3 465 129 469
3 450 124 465
3 469 37 450
3 471 470 467
3 467 130 471
3 470 129 467
3 471 3 470
3 474 472 473
3 473 133 474
3 472 132 473
3 474 131 472
3 476 475 473
3 473 132 476
3 475 133 473
3 476 38 475
3 478 477 472
3 472 131 478
3 477 132 472
3 478 41 477
3 480 479 474
3 474 133 480
3 479 131 474
3 480 40 479
3 483 481 482
3 482 134 483
3 481 132 482
3 483 126 481
3 477 484 482
3 482 132 477
3 484 134 482
3 477 41 484
3 454 476 481
3 481 126 454
3 476 132 481
3 454 38 476
3 485 457 483
3 483 134 485
3 457 126 483
3 485 9 457
3 488 486 487
3 487 136 488
3 486 131 487
3 488 135 486
3 479 489 487
3 487 131 479
3 489 136 487
3 479 40 489
3 490 478 486
3 486 135 490
3 478 131 486
3 490 41 478
3 492 491 488
3 488 136 492
3 491 135 488
3 492 2 491
3 495 493 494
3 494 127 495
3 493 133 494
3 495 137 493
3 475 462 494
3 494 133 475
3 462 127 494
3 475 38 462
3 496 480 493
3 493 137 496
3 480 133 493
3 496 40 480
3 463 497 495
3 495 127 463
3 497 137 495
3 463 10 497
3 500 498 499
3 499 140 500
3 498 139 499
3 500 138 498
3 502 501 499
3 499 139 502
3 501 140 499
3 502 33 501
3 504 503 498
3 498 138 504
3 503 139 498
3 504 13 503
3 506 505 500
3 500 140 506
3 505 138 500
3 506 23 505
3 509 507 508
3 508 47 509
3 507 139 508
3 509 110 507
3 503 182 508
3 508 139 503
3 182 47 508
3 503 13 182
3 398 502 507
3 507 110 398
3 502 139 507
3 398 33 502
3 183 401 509
3 509 47 183
3 401 110 509
3 183 8 401
3 512 510 511
3 511 79 512
3 510 138 511
3 512 46 510
3 505 294 511
3 511 138 505
3 294 79 511
3 505 23 294
3 174 504 510
3 510 46 174
3 504 138 510
3 174 13 504
3 295 177 512
3 512 79 295
3 177 46 512
3 295 4 177
3 515 513 514
3 514 111 515
3 513 140 514
3 515 78 513
3 501 406 514
3 514 140 501
3 406 111 514
3 501 33 406
3 286 506 513
3 513 78 286
3 506 140 513
3 286 23 506
3 407 289 515
3 515 111 407
3 289 78 515
3 407 0 289
3 518 516 517
3 517 143 518
3 516 142 517
3 518 141 516
3 520 519 517
3 517 142 520
3 519 143 517
3 520 19 519
3 522 521 516
3 516 141 522
3 521 142 516
3 522 32 521
3 524 523 518
3 518 143 524
3 523 141 518
3 524 26 523
3 527 525 526
3 526 113 527
3 525 142 526
3 527 66 525
3 521 413 526
3 526 142 521
3 413 113 526
3 521 32 413
3 244 520 525
3 525 66 244
3 520 142 525
3 244 19 520
3 414 247 527
3 527 113 414
3 247 66 527
3 414 11 247
3 530 528 529
3 529 86 530
3 528 141 529
3 530 112 528
3 523 316 529
3 529 141 523
3 316 86 529
3 523 26 316
3 405 522 528
3 528 112 405
3 522 141 528
3 405 32 522
3 317 408 530
3 530 86 317
3 408 112 530
3 317 0 408
3 533 531 532
3 532 61 533
3 531 143 532
3 533 89 531
3 519 231 532
3 532 143 519
3 231 61 532
3 519 19 231
3 326 524 531
3 531 89 326
3 524 143 531
3 326 26 524
3 232 329 533
3 533 61 232
3 329 89 533
3 232 5 329
3 536 534 535
3 535 146 536
3 534 145 535
3 536 144 534
3 538 537 535
3 535 145 538
3 537 146 535
3 538 22 537
3 540 539 534
3 534 144 540
3 539 145 534
3 540 16 539
3 542 541 536
3 536 146 542
3 541 144 536
3 542 39 541
3 545 543 544
3 544 54 545
3 543 145 544
3 545 80 543
3 539 204 544
3 544 145 539
3 204 54 544
3 539 16 204
3 293 538 543
3 543 80 293
3 538 145 543
3 293 22 538
3 205 296 545
3 545 54 205
3 296 80 545
3 205 4 296
3 548 546 547
3 547 125 548
3 546 144 547
3 548 57 546
3 541 455 547
3 547 144 541
3 455 125 547
3 541 39 455
3 214 540 546
3 546 57 214
3 540 144 546
3 214 16 540
3 456 217 548
3 548 125 456
3 217 57 548
3 456 9 217
3 551 549 550
3 550 81 551
3 549 146 550
3 551 130 549
3 537 301 550
3 550 146 537
3 301 81 550
3 537 22 301
3 468 542 549
3 549 130 468
3 542 146 549
3 468 39 542
3 302 471 551
3 551 81 302
3 471 130 551
3 302 3 471
3 554 552 553
3 553 149 554
3 552 148 553
3 554 147 552
3 556 555 553
3 553 148 556
3 555 149 553
3 556 21 555
3 558 557 552
3 552 147 558
3 557 148 552
3 558 25 557
3 560 559 554
3 554 149 560
3 559 147 554
3 560 37 559
3 563 561 562
3 562 88 563
3 561 148 562
3 563 70 561
3 557 327 562
3 562 148 557
3 327 88 562
3 557 25 327
3 260 556 561
3 561 70 260
3 556 148 561
3 260 21 556
3 328 261 563
3 563 88 328
3 261 70 563
3 328 5 261
3 566 564 565
3 565 129 566
3 564 147 565
3 566 87 564
3 559 469 565
3 565 147 559
3 469 129 565
3 559 37 469
3 321 558 564
3 564 87 321
3 558 147 564
3 321 25 558
3 470 322 566
3 566 129 470
3 322 87 566
3 470 3 322
3 569 567 568
3 568 71 569
3 567 149 568
3 569 128 567
3 555 266 568
3 568 149 555
3 266 71 568
3 555 21 266
3 461 560 567
3 567 128 461
3 560 149 567
3 461 37 560
3 267 464 569
3 569 71 267
3 464 128 569
3 267 10 464
3 572 570 571
3 571 152 572
3 570 151 571
3 572 150 570
3 574 573 571
3 571 151 574
3 573 152 571
3 574 27 573
3 576 575 570
3 570 150 576
3 575 151 570
3 576 12 575
3 578 577 572
3 572 152 578
3 577 150 572
3 578 36 577
3 581 579 580
3 580 49 581
3 579 151 580
3 581 96 579
3 575 189 580
3 580 151 575
3 189 49 580
3 575 12 189
3 349 574 579
3 579 96 349
3 574 151 579
3 349 27 574
3 190 352 581
3 581 49 190
3 352 96 581
3 190 7 352
3 584 582 583
3 583 118 584
3 582 150 583
3 584 48 582
3 577 428 583
3 583 150 577
3 428 118 583
3 577 36 428
3 181 576 582
3 582 48 181
3 576 150 582
3 181 12 576
3 429 184 584
3 584 118 429
3 184 48 584
3 429 8 184
3 587 585 586
3 586 97 587
3 585 152 586
3 587 121 585
3 573 357 586
3 586 152 573
3 357 97 586
3 573 27 357
3 438 578 585
3 585 121 438
3 578 152 585
3 438 36 578
3 358 441 587
3 587 97 358
3 441 121 587
3 358 1 441
3 590 588 589
3 589 155 590
3 588 154 589
3 590 153 588
3 592 591 589
3 589 154 592
3 591 155 589
3 592 17 591
3 594 593 588
3 588 153 594
3 593 154 588
3 594 30 593
3 596 595 590
3 590 155 596
3 595 153 590
3 596 35 595
3 599 597 598
3 598 104 599
3 597 154 598
3 599 64 597
3 593 383 598
3 598 154 593
3 383 104 598
3 593 30 383
3 237 592 597
3 597 64 237
3 592 154 597
3 237 17 592
3 384 240 599
3 599 104 384
3 240 64 599
3 384 6 240
3 602 600 601
3 601 120 602
3 600 153 601
3 602 103 600
3 595 439 601
3 601 153 595
3 439 120 601
3 595 35 439
3 377 594 600
3 600 103 377
3 594 153 600
3 377 30 594
3 440 378 602
3 602 120 440
3 378 103 602
3 440 1 378
3 605 603 604
3 604 65 605
3 603 155 604
3 605 119 603
3 591 245 604
3 604 155 591
3 245 65 604
3 591 17 245
3 433 596 603
3 603 119 433
3 596 155 603
3 433 35 596
3 246 434 605
3 605 65 246
3 434 119 605
3 246 11 434
3 608 606 607
3 607 158 608
3 606 157 607
3 608 156 606
3 610 609 607
3 607 157 610
3 609 158 607
3 610 15 609
3 612 611 606
3 606 156 612
3 611 157 606
3 612 28 611
3 614 613 608
3 608 158 614
3 613 156 608
3 614 41 613
3 617 615 616
3 616 95 617
3 615 157 616
3 617 55 615
3 611 350 616
3 616 157 611
3 350 95 616
3 611 28 350
3 209 610 615
3 615 55 209
3 610 157 615
3 209 15 610
3 351 210 617
3 617 95 351
3 210 55 617
3 351 7 210
3 620 618 619
3 619 135 620
3 618 156 619
3 620 94 618
3 613 490 619
3 619 156 613
3 490 135 619
3 613 41 490
3 342 612 618
3 618 94 342
3 612 156 618
3 342 28 612
3 491 345 620
3 620 135 491
3 345 94 620
3 491 2 345
3 623 621 622
3 622 56 623
3 621 158 622
3 623 134 621
3 609 215 622
3 622 158 609
3 215 56 622
3 609 15 215
3 484 614 621
3 621 134 484
3 614 158 621
3 484 41 614
3 216 485 623
3 623 56 216
3 485 134 623
3 216 9 485
3 626 624 625
3 625 161 626
3 624 160 625
3 626 159 624
3 628 627 625
3 625 160 628
3 627 161 625
3 628 31 627
3 630 629 624
3 624 159 630
3 629 160 624
3 630 20 629
3 632 631 626
3 626 161 632
3 631 159 626
3 632 40 631
3 635 633 634
3 634 73 635
3 633 160 634
3 635 105 633
3 629 272 634
3 634 160 629
3 272 73 634
3 629 20 272
3 382 628 633
3 633 105 382
3 628 160 633
3 382 31 628
3 273 385 635
3 635 73 273
3 385 105 635
3 273 6 385
3 638 636 637
3 637 137 638
3 636 159 637
3 638 72 636
3 631 496 637
3 637 159 631
3 496 137 637
3 631 40 496
3 265 630 636
3 636 72 265
3 630 159 636
3 265 20 630
3 497 268 638
3 638 137 497
3 268 72 638
3 497 10 268
3 641 639 640
3 640 102 641
3 639 161 640
3 641 136 639
3 627 372 640
3 640 161 627
3 372 102 640
3 627 31 372
3 489 632 639
3 639 136 489
3 632 161 639
3 489 40 632
3 373 492 641
3 641 102 373
3 492 136 641
3 373 2 492
