# vtk DataFile Version 3.0
this file was written using fslvtkio
ASCII
DATASET POLYDATA
POINTS 642 float
105.031 139.407 101.819
98.507 139.332 100.912
100.854 134.965 100.193
106.443 134.615 100.454
104.626 137.569 104.15
104.597 136.713 98.4866
101.357 136.621 98.16
101.355 137.649 103.021
102.6 142.024 104.886
103.721 133.776 101.476
102.954 131.793 97.0554
102.199 141.497 99.9704
101.639 139.736 103.862
103.987 139.874 105.041
102.786 137.919 103.945
102.458 136.095 102.247
104.141 135.593 102.647
101.351 139.265 98.8247
102.984 136.562 97.9479
103.197 138.745 99.5443
101.777 134.145 96.077
104.466 134.334 96.8858
105.952 135.99 102.258
105.867 139.021 103.46
105.838 137.163 101.098
105.829 135.454 98.9989
104.761 138.021 100.199
99.8377 138.502 102.348
100.788 136.584 101.804
99.6663 137.066 100.61
99.6447 138.427 99.0631
100.89 135.442 98.6778
104.003 141.051 101.102
104.651 141.403 103.427
102.382 143.446 102.138
99.8029 141.519 100.093
99.9065 141.585 102.822
105.76 132.354 98.7736
103.422 131.6 100.014
105.656 132.866 101.881
101.273 132.634 98.5542
102.038 133.876 100.868
102.76 139.945 104.636
103.265 138.967 104.402
102.332 138.918 103.942
103.594 137.728 104.295
104.368 138.784 104.438
103.389 141.037 105.314
102.011 140.883 104.42
101.469 138.626 103.353
102.061 137.876 103.401
102.674 137.101 103.034
103.393 136.941 103.411
103.324 135.91 102.444
104.399 136.814 103.266
101.845 137.095 102.703
102.854 134.762 102.039
103.97 134.586 101.929
102.2 137.712 98.6872
102.969 137.572 98.939
102.36 139.101 99.0947
103.877 137.56 99.119
103.913 136.703 98.1513
102.034 136.503 97.9686
101.278 137.802 98.5748
101.74 140.495 99.3894
102.728 140.202 99.8518
103.27 134.152 95.7825
103.761 135.624 97.0505
102.597 135.533 96.7956
104.504 135.719 97.8763
103.925 132.641 96.3163
102.109 132.229 95.6768
101.655 135.559 97.3447
105.58 137.624 102.749
105.592 138.02 102.195
105.879 136.59 101.711
105.505 138.426 101.507
105.564 139.343 102.536
105.521 138.326 104.012
105.27 137.092 102.948
106.311 135.235 101.325
106.216 135.881 100.71
105.91 136.334 100.056
105.534 137.638 100.506
105.625 136.956 99.4968
105.117 138.919 100.999
106.23 134.916 99.7275
105.249 136.162 98.6392
104.791 137.43 99.229
100.173 137.484 102.165
99.9977 136.781 101.425
99.4049 137.724 101.581
100.503 136.313 100.485
100.731 135.755 101.101
100.976 137.156 102.541
100.624 138.002 102.846
99.009 138.955 101.727
98.8989 138.131 100.704
99.4624 137.647 99.7887
100.429 136.596 99.7283
100.444 137.038 99.1352
100.841 135.062 99.4609
98.861 138.984 99.9189
100.663 137.526 98.7967
101.075 136.064 98.1538
104.478 141.714 102.21
103.871 142.763 103.116
103.585 142.645 101.502
102.392 143.036 103.985
103.878 141.984 104.43
105.012 140.531 102.518
104.669 140.283 101.566
103.25 141.636 100.422
102.222 142.535 100.696
100.745 142.988 100.923
100.639 143.097 102.826
99.0857 142.369 101.448
101.156 142.108 104.021
101.163 141.915 99.8099
98.577 140.632 100.369
99.0478 140.659 101.688
104.794 131.282 99.3794
104.762 131.742 100.997
106.17 131.986 100.423
104.545 133.179 101.548
103.798 132.644 100.882
103.019 131.311 98.4484
104.432 131.872 97.8177
106.245 133.486 99.7963
106.339 133.686 101.035
101.903 133.193 99.813
102.938 132.697 100.187
102.167 132.066 99.275
102.873 133.648 101.199
101.163 134.263 100.568
100.962 133.82 99.4792
101.669 131.905 97.5471
105.023 139.526 104.263
104.779 140.976 104.737
105.218 140.165 103.518
104.138 139.238 100.739
103.525 139.842 100.297
104.02 138.484 99.8792
104.996 134.353 101.92
105.147 135.672 102.42
105.885 134.509 101.809
106.001 133.916 98.5819
105.465 134.825 97.8951
105.265 133.148 97.4251
100.83 140.602 103.492
100.596 139.246 103.2
99.7666 139.963 102.576
99.3235 140.003 99.3139
100.367 139.099 98.877
100.526 140.556 99.2333
101.304 135.14 101.469
101.683 136.363 101.942
102.058 134.855 101.714
101.143 132.91 96.918
101.329 134.505 97.4717
100.973 133.848 98.3418
103.028 139.443 104.58
102.854 138.966 104.116
102.476 139.399 104.315
102.622 138.443 103.869
103.053 138.413 104.079
103.559 139.392 104.795
103.311 139.982 104.993
102.136 139.798 104.324
101.958 139.34 103.994
103.484 138.325 104.262
103.829 138.925 104.473
103.899 138.193 104.444
104.18 139.365 104.656
103.197 137.826 104.132
104.082 137.608 104.325
104.492 138.214 104.445
103.002 140.38 105.057
102.336 140.273 104.68
102.692 140.944 104.914
101.744 140.192 104.196
103.731 140.38 105.39
103.014 141.605 105.019
102.358 141.57 104.612
101.862 138.813 103.67
102.224 138.342 103.63
101.757 138.229 103.406
102.443 137.969 103.662
101.55 139.237 103.606
101.334 138.032 103.227
101.717 137.756 103.16
103.043 137.065 103.24
103.422 136.442 102.825
103.142 136.65 102.583
103.639 135.683 102.639
103.721 136.254 103.003
102.979 137.323 103.867
102.655 137.443 103.573
102.659 136.691 102.509
102.913 136.014 102.367
103.905 136.863 103.319
103.395 137.218 103.97
103.935 137.171 103.911
104.271 136.246 102.894
104.536 137.18 103.653
102.29 137.425 103.33
102.216 137.079 102.905
101.862 137.371 103.173
102.207 136.746 102.388
101.604 137.324 102.903
103.089 135.307 102.236
103.599 135.181 102.231
103.339 134.682 102.048
104.043 135.014 102.298
102.639 135.403 102.176
103.297 134.2 101.736
103.802 134.126 101.694
102.554 137.581 98.8103
102.657 138.222 98.9945
102.254 138.383 98.8608
102.809 138.945 99.2685
103.061 138.12 99.2062
102.946 136.989 98.4762
102.521 136.949 98.4783
101.8 138.513 98.7731
101.9 139.244 98.928
103.417 137.562 99.0425
103.441 137.107 98.4722
103.926 137.224 98.5618
103.428 136.616 98.0676
103.421 138.016 99.456
104.305 137.215 98.7004
104.244 136.65 98.3494
102.094 136.985 98.4597
101.756 137.776 98.6416
101.739 137.07 98.3831
101.288 138.556 98.6692
102.482 136.525 97.9814
101.65 136.523 98.0667
101.302 137.179 98.3356
102.073 139.816 99.2759
102.514 139.617 99.4622
102.219 140.346 99.6149
102.94 139.416 99.7019
101.58 139.918 99.0971
101.945 141.045 99.6923
102.445 140.862 99.9333
103.573 134.964 96.3187
103.212 135.554 96.7662
102.915 134.928 96.0765
102.831 136.064 97.4248
103.355 136.089 97.4961
104.117 135.021 96.8263
103.813 134.207 96.3989
102.418 134.091 95.7805
102.165 134.877 96.2578
103.779 136.169 97.72
104.198 135.675 97.4084
104.201 136.197 97.9284
104.535 135.114 97.3314
104.571 136.243 98.2206
103.608 133.255 95.8286
102.75 133.101 95.4029
103.064 132.299 95.8079
101.807 133.072 95.6435
104.289 133.401 96.4623
103.41 132.077 96.5624
102.511 131.916 96.3397
102.064 135.527 96.846
102.314 136.084 97.4278
101.839 136.136 97.5242
101.713 134.878 96.6499
101.528 136.182 97.7519
105.534 137.85 102.502
105.727 137.318 101.932
105.738 137.111 102.249
105.866 136.876 101.406
105.688 137.546 101.609
105.858 138.633 102.797
105.716 138.378 103.162
105.711 136.85 102.461
106.015 136.348 101.997
105.511 138.184 101.866
105.781 138.82 102.365
105.522 138.928 102.008
105.838 139.234 102.941
105.59 137.74 101.337
105.36 139.041 101.655
105.272 139.406 102.143
105.55 137.995 103.366
105.412 137.346 102.848
105.346 137.646 103.506
105.565 136.596 102.61
105.781 138.701 103.849
105.099 137.94 104.165
105.013 137.307 103.516
106.114 135.895 101.494
106.07 136.184 101.201
106.276 135.603 101.04
105.902 136.42 100.872
106.069 135.563 101.757
106.42 134.855 100.857
106.375 135.184 100.532
105.845 137.023 100.266
105.62 137.302 100.011
105.829 136.683 99.7612
105.301 137.592 99.7933
105.186 137.828 100.338
105.758 137.367 100.797
105.878 136.753 100.547
105.884 135.896 99.541
105.77 136.257 99.2407
105.269 138.257 100.752
105.452 138.005 101.026
105.398 138.692 101.188
104.98 138.517 100.588
105.053 139.184 101.408
106.084 136.097 100.357
106.107 135.671 99.849
106.274 135.432 100.2
105.987 135.158 99.3417
106.417 134.718 100.079
105.528 136.564 99.0279
105.296 137.247 99.3283
105.157 136.819 98.8878
104.757 137.689 99.7457
105.583 135.842 98.7582
104.858 136.432 98.5394
104.672 137.056 98.8452
99.9948 137.079 101.848
99.7556 137.208 101.548
99.8231 137.608 101.917
99.4619 137.341 101.119
99.7727 136.884 101.068
100.398 136.667 101.652
100.365 136.99 102.079
100.021 137.948 102.248
99.5392 138.115 101.978
100.285 136.616 100.904
100.458 136.34 101.214
100.551 136.052 100.766
100.801 136.17 101.449
100.169 136.774 100.55
100.688 135.621 100.318
100.749 135.343 100.622
100.52 137.28 102.401
100.375 137.701 102.479
100.732 137.513 102.72
100.319 138.281 102.573
100.85 136.946 102.206
101.169 137.371 102.817
100.984 137.76 103.013
99.2214 138.314 101.606
99.0845 137.854 101.171
98.8361 138.452 101.264
99.2018 137.552 100.663
99.405 138.728 102.066
98.6714 139.117 101.333
98.6234 138.665 100.819
99.9872 137.118 99.7498
100.469 136.839 99.4324
99.9484 137.397 99.4249
100.724 136.262 98.9149
100.659 136.048 99.2335
100.149 136.917 100.127
99.5845 137.312 100.175
99.5614 138.05 99.3945
100.048 137.729 99.1581
100.674 135.907 99.5973
100.529 136.451 100.077
100.708 135.78 99.9794
100.848 135.186 99.0482
100.853 135.009 99.856
99.0678 137.849 100.213
99.0486 138.268 99.7856
98.7937 138.506 100.31
99.1488 138.737 99.3885
98.5907 139.201 100.419
100.529 137.332 98.9296
100.76 136.511 98.6766
100.899 136.837 98.5007
100.951 135.722 98.3758
100.161 138.077 98.9345
101.018 137.08 98.4008
101.22 136.378 98.0997
104.276 142.186 102.634
103.745 142.842 102.282
104.143 142.246 101.896
103.114 143.237 101.782
103.15 143.253 102.648
104.306 141.996 103.377
104.538 141.638 102.857
104.389 141.509 101.597
103.883 141.905 101.306
103.278 143.092 103.643
103.893 142.415 103.992
103.296 142.71 104.426
104.274 141.658 103.952
102.351 143.275 103.061
102.479 142.666 104.643
103.269 142.156 104.841
104.793 141.161 102.385
104.57 140.998 101.882
104.729 140.406 102.08
104.358 140.671 101.376
105.044 141.165 102.944
104.974 139.869 102.152
104.858 139.803 101.693
103.376 142.106 100.934
102.992 142.763 101.04
102.861 142.159 100.517
102.325 143.167 101.291
103.651 141.354 100.769
102.729 141.63 100.176
102.235 142.074 100.188
100.57 143.319 101.81
99.63 143.028 102.166
99.8551 142.886 101.112
99.4039 142.036 102.22
99.9623 142.484 102.975
101.506 143.323 102.468
101.501 143.354 101.566
100.208 142.299 100.425
99.4293 142.1 100.574
100.832 142.7 103.534
101.545 143.047 103.395
101.603 142.79 104.153
100.447 141.917 103.499
101.83 142.146 104.568
101.503 142.83 100.824
100.91 142.355 100.314
101.618 142.278 100.246
100.485 141.844 99.8723
101.734 141.733 99.8696
98.8887 141.521 100.901
99.1149 141.499 101.635
98.742 140.818 101.099
99.4938 141.203 102.164
99.0685 141.227 100.108
98.4923 139.907 100.678
98.6621 139.943 101.311
104.81 131.349 100.254
105.473 131.599 100.839
105.532 131.562 99.9343
106.004 132.222 101.296
105.197 132.143 101.48
104.107 131.569 100.464
104.041 131.206 99.7301
105.391 131.688 99.0455
105.999 132.082 99.5242
104.653 132.42 101.424
104.159 132.143 100.942
104.167 132.783 101.281
103.68 132.134 100.477
104.978 132.897 101.715
104.09 133.502 101.487
103.758 133.268 101.217
103.921 131.243 98.9061
104.644 131.519 98.5408
103.76 131.486 98.1215
105.158 132.062 98.291
103.181 131.266 99.2831
102.947 131.511 97.6544
103.616 131.861 97.4213
106.309 132.809 100.041
106.374 132.936 100.806
106.239 133.504 100.419
106.217 133.209 101.479
106.113 132.83 99.3097
106.467 134.054 100.148
106.463 134.118 100.684
102.502 132.956 99.9875
102.628 132.287 99.7719
102.097 132.569 99.5241
102.723 131.745 99.6272
103.139 132.118 100.063
102.515 133.274 100.474
102.114 133.609 100.293
101.564 132.842 99.2726
101.766 132.281 98.8657
103.37 132.618 100.461
102.944 133.073 100.733
103.386 133.109 100.959
102.408 133.719 101.048
103.317 133.681 101.375
101.645 133.831 100.145
101.301 133.459 99.6842
101.085 134.034 100.044
101.132 133.261 99.0645
101.595 134.068 100.738
100.942 134.613 100.371
100.837 134.39 99.8912
101.777 131.901 98.5001
102.325 131.487 98.8889
102.13 131.442 97.9765
101.407 132.207 98.0111
102.195 131.624 97.1407
105.021 140.233 104.573
105.227 140.708 104.143
105.136 139.788 103.934
105.242 141.012 103.521
104.75 141.176 104.032
104.459 140.421 105.077
104.61 139.771 104.679
105.58 139.236 103.957
105.634 139.526 103.457
104.333 141.451 104.511
104.166 141.096 105.359
103.7 141.675 104.961
104.79 139.261 104.26
105.369 138.95 104.295
104.951 138.555 104.413
105.417 139.707 103.02
105.196 140.458 103.023
105.147 139.803 102.595
103.799 139.524 100.558
103.655 139.039 100.23
104.036 138.86 100.373
103.621 138.649 99.7658
103.304 139.217 99.9883
103.723 140.477 100.691
104.041 140.131 100.938
104.473 138.695 100.507
104.339 138.242 100.057
103.166 140.069 100.083
103.405 140.805 100.397
102.955 140.887 100.165
104.459 139.804 101.1
104.697 139.123 100.844
104.765 139.501 101.281
104.259 137.807 99.668
103.776 137.911 99.6045
104.32 137.49 99.1813
105.056 135.025 102.273
105.558 135.128 102.24
105.445 134.324 101.98
105.913 135.3 102.021
105.564 135.79 102.326
104.609 135.581 102.516
104.524 134.978 102.36
105.348 133.63 101.879
105.891 133.772 101.791
105.191 136.357 102.75
104.804 136.231 102.81
104.932 136.882 103.126
104.519 134.434 101.919
104.823 133.685 101.777
104.321 133.93 101.711
106.171 134.09 101.514
106.16 134.899 101.561
106.374 134.495 101.185
105.801 134.358 98.1347
105.433 133.979 97.5506
105.654 133.515 98.0134
104.865 133.667 97.0448
104.916 134.511 97.4266
105.655 135.172 98.4708
105.939 134.715 98.7442
105.969 133.093 98.6003
105.552 132.706 98.0373
105.008 135.344 97.7928
105.378 135.588 98.2745
104.941 135.893 98.2435
106.22 134.367 99.1413
106.165 133.594 99.1469
106.362 134.153 99.6784
104.95 132.415 97.5279
104.599 132.867 96.9346
104.165 132.309 97.122
100.698 139.893 103.339
100.149 139.57 102.929
100.233 140.265 103.078
99.7463 139.195 102.514
100.229 138.945 102.743
101.113 139.55 103.529
101.227 140.149 103.701
100.389 141.053 103.235
99.8936 140.766 102.668
100.64 138.589 102.939
101.077 138.97 103.281
101.012 138.287 103.11
101.328 140.745 104.002
100.936 141.381 103.734
101.546 141.489 104.253
99.355 140.327 102.214
99.3228 139.451 102.181
98.9196 139.704 101.791
99.7657 139.686 98.9486
100.387 139.893 98.9583
99.9155 140.354 99.2325
100.98 139.918 99.0122
100.817 139.214 98.8152
99.9207 138.831 98.9207
99.3031 139.208 99.0518
99.5616 140.738 99.7214
100.17 141.002 99.6502
100.829 138.511 98.6557
100.428 138.331 98.7423
100.92 137.7 98.5907
98.9616 139.503 99.5873
98.9277 140.331 99.7921
98.5948 139.796 100.052
100.826 141.155 99.5533
101.15 140.523 99.2828
101.441 141.162 99.5457
101.468 135.785 101.719
101.866 135.663 101.809
101.617 134.917 101.622
102.217 135.483 102.033
102.132 136.294 102.044
101.227 136.443 101.893
101.194 136.02 101.56
101.496 134.368 101.314
101.934 134.264 101.384
101.841 136.842 102.224
101.358 136.873 102.217
101.45 137.076 102.547
101.007 135.438 101.329
101.163 134.653 101.087
100.942 135.001 100.891
102.336 134.221 101.534
102.424 134.834 101.903
102.854 134.225 101.678
101.326 133.735 97.1152
101.089 134.121 97.8871
101.064 133.384 97.6767
101.008 134.639 98.4825
101.117 134.896 98.107
101.496 134.245 96.8009
101.41 133.325 96.3173
101.121 132.671 97.7336
101.08 133.203 98.3874
101.268 135.298 97.8305
101.506 135.059 97.3075
101.379 135.781 97.6727
101.39 132.536 96.1756
101.298 132.3 97.1263
101.776 131.966 96.5751
100.981 133.79 98.9122
100.928 134.465 98.9161
100.851 134.396 99.4006
POLYGONS 1280  5120
3 164 162 163
3 163 44 164
3 162 43 163
3 164 42 162
3 166 165 163
3 163 43 166
3 165 44 163
3 166 14 165
3 168 167 162
3 162 42 168
3 167 43 162
3 168 13 167
3 170 169 164
3 164 44 170
3 169 42 164
3 170 12 169
3 173 171 172
3 172 46 173
3 171 43 172
3 173 45 171
3 167 174 172
3 172 43 167
3 174 46 172
3 167 13 174
3 175 166 171
3 171 45 175
3 166 43 171
3 175 14 166
3 177 176 173
3 173 46 177
3 176 45 173
3 177 4 176
3 180 178 179
3 179 48 180
3 178 42 179
3 180 47 178
3 169 181 179
3 179 42 169
3 181 48 179
3 169 12 181
3 182 168 178
3 178 47 182
3 168 42 178
3 182 13 168
3 184 183 180
3 180 48 184
3 183 47 180
3 184 8 183
3 187 185 186
3 186 50 187
3 185 44 186
3 187 49 185
3 165 188 186
3 186 44 165
3 188 50 186
3 165 14 188
3 189 170 185
3 185 49 189
3 170 44 185
3 189 12 170
3 191 190 187
3 187 50 191
3 190 49 187
3 191 7 190
3 194 192 193
3 193 53 194
3 192 52 193
3 194 51 192
3 196 195 193
3 193 52 196
3 195 53 193
3 196 16 195
3 198 197 192
3 192 51 198
3 197 52 192
3 198 14 197
3 200 199 194
3 194 53 200
3 199 51 194
3 200 15 199
3 203 201 202
3 202 45 203
3 201 52 202
3 203 54 201
3 197 175 202
3 202 52 197
3 175 45 202
3 197 14 175
3 204 196 201
3 201 54 204
3 196 52 201
3 204 16 196
3 176 205 203
3 203 45 176
3 205 54 203
3 176 4 205
3 208 206 207
3 207 55 208
3 206 51 207
3 208 50 206
3 199 209 207
3 207 51 199
3 209 55 207
3 199 15 209
3 188 198 206
3 206 50 188
3 198 51 206
3 188 14 198
3 210 191 208
3 208 55 210
3 191 50 208
3 210 7 191
3 213 211 212
3 212 57 213
3 211 53 212
3 213 56 211
3 195 214 212
3 212 53 195
3 214 57 212
3 195 16 214
3 215 200 211
3 211 56 215
3 200 53 211
3 215 15 200
3 217 216 213
3 213 57 217
3 216 56 213
3 217 9 216
3 220 218 219
3 219 60 220
3 218 59 219
3 220 58 218
3 222 221 219
3 219 59 222
3 221 60 219
3 222 19 221
3 224 223 218
3 218 58 224
3 223 59 218
3 224 18 223
3 226 225 220
3 220 60 226
3 225 58 220
3 226 17 225
3 229 227 228
3 228 62 229
3 227 59 228
3 229 61 227
3 223 230 228
3 228 59 223
3 230 62 228
3 223 18 230
3 231 222 227
3 227 61 231
3 222 59 227
3 231 19 222
3 233 232 229
3 229 62 233
3 232 61 229
3 233 5 232
3 236 234 235
3 235 64 236
3 234 58 235
3 236 63 234
3 225 237 235
3 235 58 225
3 237 64 235
3 225 17 237
3 238 224 234
3 234 63 238
3 224 58 234
3 238 18 224
3 240 239 236
3 236 64 240
3 239 63 236
3 240 6 239
3 243 241 242
3 242 66 243
3 241 60 242
3 243 65 241
3 221 244 242
3 242 60 221
3 244 66 242
3 221 19 244
3 245 226 241
3 241 65 245
3 226 60 241
3 245 17 226
3 247 246 243
3 243 66 247
3 246 65 243
3 247 11 246
3 250 248 249
3 249 69 250
3 248 68 249
3 250 67 248
3 252 251 249
3 249 68 252
3 251 69 249
3 252 18 251
3 254 253 248
3 248 67 254
3 253 68 248
3 254 21 253
3 256 255 250
3 250 69 256
3 255 67 250
3 256 20 255
3 259 257 258
3 258 70 259
3 257 68 258
3 259 62 257
3 253 260 258
3 258 68 253
3 260 70 258
3 253 21 260
3 230 252 257
3 257 62 230
3 252 68 257
3 230 18 252
3 261 233 259
3 259 70 261
3 233 62 259
3 261 5 233
3 264 262 263
3 263 72 264
3 262 67 263
3 264 71 262
3 255 265 263
3 263 67 255
3 265 72 263
3 255 20 265
3 266 254 262
3 262 71 266
3 254 67 262
3 266 21 254
3 268 267 264
3 264 72 268
3 267 71 264
3 268 10 267
3 271 269 270
3 270 63 271
3 269 69 270
3 271 73 269
3 251 238 270
3 270 69 251
3 238 63 270
3 251 18 238
3 272 256 269
3 269 73 272
3 256 69 269
3 272 20 256
3 239 273 271
3 271 63 239
3 273 73 271
3 239 6 273
3 276 274 275
3 275 76 276
3 274 75 275
3 276 74 274
3 278 277 275
3 275 75 278
3 277 76 275
3 278 24 277
3 280 279 274
3 274 74 280
3 279 75 274
3 280 23 279
3 282 281 276
3 276 76 282
3 281 74 276
3 282 22 281
3 285 283 284
3 284 78 285
3 283 75 284
3 285 77 283
3 279 286 284
3 284 75 279
3 286 78 284
3 279 23 286
3 287 278 283
3 283 77 287
3 278 75 283
3 287 24 278
3 289 288 285
3 285 78 289
3 288 77 285
3 289 0 288
3 292 290 291
3 291 80 292
3 290 74 291
3 292 79 290
3 281 293 291
3 291 74 281
3 293 80 291
3 281 22 293
3 294 280 290
3 290 79 294
3 280 74 290
3 294 23 280
3 296 295 292
3 292 80 296
3 295 79 292
3 296 4 295
3 299 297 298
3 298 82 299
3 297 76 298
3 299 81 297
3 277 300 298
3 298 76 277
3 300 82 298
3 277 24 300
3 301 282 297
3 297 81 301
3 282 76 297
3 301 22 282
3 303 302 299
3 299 82 303
3 302 81 299
3 303 3 302
3 306 304 305
3 305 85 306
3 304 84 305
3 306 83 304
3 308 307 305
3 305 84 308
3 307 85 305
3 308 26 307
3 310 309 304
3 304 83 310
3 309 84 304
3 310 24 309
3 312 311 306
3 306 85 312
3 311 83 306
3 312 25 311
3 315 313 314
3 314 77 315
3 313 84 314
3 315 86 313
3 309 287 314
3 314 84 309
3 287 77 314
3 309 24 287
3 316 308 313
3 313 86 316
3 308 84 313
3 316 26 308
3 288 317 315
3 315 77 288
3 317 86 315
3 288 0 317
3 320 318 319
3 319 87 320
3 318 83 319
3 320 82 318
3 311 321 319
3 319 83 311
3 321 87 319
3 311 25 321
3 300 310 318
3 318 82 300
3 310 83 318
3 300 24 310
3 322 303 320
3 320 87 322
3 303 82 320
3 322 3 303
3 325 323 324
3 324 89 325
3 323 85 324
3 325 88 323
3 307 326 324
3 324 85 307
3 326 89 324
3 307 26 326
3 327 312 323
3 323 88 327
3 312 85 323
3 327 25 312
3 329 328 325
3 325 89 329
3 328 88 325
3 329 5 328
3 332 330 331
3 331 92 332
3 330 91 331
3 332 90 330
3 334 333 331
3 331 91 334
3 333 92 331
3 334 29 333
3 336 335 330
3 330 90 336
3 335 91 330
3 336 28 335
3 338 337 332
3 332 92 338
3 337 90 332
3 338 27 337
3 341 339 340
3 340 94 341
3 339 91 340
3 341 93 339
3 335 342 340
3 340 91 335
3 342 94 340
3 335 28 342
3 343 334 339
3 339 93 343
3 334 91 339
3 343 29 334
3 345 344 341
3 341 94 345
3 344 93 341
3 345 2 344
3 348 346 347
3 347 96 348
3 346 90 347
3 348 95 346
3 337 349 347
3 347 90 337
3 349 96 347
3 337 27 349
3 350 336 346
3 346 95 350
3 336 90 346
3 350 28 336
3 352 351 348
3 348 96 352
3 351 95 348
3 352 7 351
3 355 353 354
3 354 98 355
3 353 92 354
3 355 97 353
3 333 356 354
3 354 92 333
3 356 98 354
3 333 29 356
3 357 338 353
3 353 97 357
3 338 92 353
3 357 27 338
3 359 358 355
3 355 98 359
3 358 97 355
3 359 1 358
3 362 360 361
3 361 101 362
3 360 100 361
3 362 99 360
3 364 363 361
3 361 100 364
3 363 101 361
3 364 31 363
3 366 365 360
3 360 99 366
3 365 100 360
3 366 29 365
3 368 367 362
3 362 101 368
3 367 99 362
3 368 30 367
3 371 369 370
3 370 93 371
3 369 100 370
3 371 102 369
3 365 343 370
3 370 100 365
3 343 93 370
3 365 29 343
3 372 364 369
3 369 102 372
3 364 100 369
3 372 31 364
3 344 373 371
3 371 93 344
3 373 102 371
3 344 2 373
3 376 374 375
3 375 103 376
3 374 99 375
3 376 98 374
3 367 377 375
3 375 99 367
3 377 103 375
3 367 30 377
3 356 366 374
3 374 98 356
3 366 99 374
3 356 29 366
3 378 359 376
3 376 103 378
3 359 98 376
3 378 1 359
3 381 379 380
3 380 105 381
3 379 101 380
3 381 104 379
3 363 382 380
3 380 101 363
3 382 105 380
3 363 31 382
3 383 368 379
3 379 104 383
3 368 101 379
3 383 30 368
3 385 384 381
3 381 105 385
3 384 104 381
3 385 6 384
3 388 386 387
3 387 108 388
3 386 107 387
3 388 106 386
3 390 389 387
3 387 107 390
3 389 108 387
3 390 34 389
3 392 391 386
3 386 106 392
3 391 107 386
3 392 33 391
3 394 393 388
3 388 108 394
3 393 106 388
3 394 32 393
3 397 395 396
3 396 110 397
3 395 107 396
3 397 109 395
3 391 398 396
3 396 107 391
3 398 110 396
3 391 33 398
3 399 390 395
3 395 109 399
3 390 107 395
3 399 34 390
3 401 400 397
3 397 110 401
3 400 109 397
3 401 8 400
3 404 402 403
3 403 112 404
3 402 106 403
3 404 111 402
3 393 405 403
3 403 106 393
3 405 112 403
3 393 32 405
3 406 392 402
3 402 111 406
3 392 106 402
3 406 33 392
3 408 407 404
3 404 112 408
3 407 111 404
3 408 0 407
3 411 409 410
3 410 114 411
3 409 108 410
3 411 113 409
3 389 412 410
3 410 108 389
3 412 114 410
3 389 34 412
3 413 394 409
3 409 113 413
3 394 108 409
3 413 32 394
3 415 414 411
3 411 114 415
3 414 113 411
3 415 11 414
3 418 416 417
3 417 117 418
3 416 116 417
3 418 115 416
3 420 419 417
3 417 116 420
3 419 117 417
3 420 36 419
3 422 421 416
3 416 115 422
3 421 116 416
3 422 34 421
3 424 423 418
3 418 117 424
3 423 115 418
3 424 35 423
3 427 425 426
3 426 109 427
3 425 116 426
3 427 118 425
3 421 399 426
3 426 116 421
3 399 109 426
3 421 34 399
3 428 420 425
3 425 118 428
3 420 116 425
3 428 36 420
3 400 429 427
3 427 109 400
3 429 118 427
3 400 8 429
3 432 430 431
3 431 119 432
3 430 115 431
3 432 114 430
3 423 433 431
3 431 115 423
3 433 119 431
3 423 35 433
3 412 422 430
3 430 114 412
3 422 115 430
3 412 34 422
3 434 415 432
3 432 119 434
3 415 114 432
3 434 11 415
3 437 435 436
3 436 121 437
3 435 117 436
3 437 120 435
3 419 438 436
3 436 117 419
3 438 121 436
3 419 36 438
3 439 424 435
3 435 120 439
3 424 117 435
3 439 35 424
3 441 440 437
3 437 121 441
3 440 120 437
3 441 1 440
3 444 442 443
3 443 124 444
3 442 123 443
3 444 122 442
3 446 445 443
3 443 123 446
3 445 124 443
3 446 39 445
3 448 447 442
3 442 122 448
3 447 123 442
3 448 38 447
3 450 449 444
3 444 124 450
3 449 122 444
3 450 37 449
3 453 451 452
3 452 126 453
3 451 123 452
3 453 125 451
3 447 454 452
3 452 123 447
3 454 126 452
3 447 38 454
3 455 446 451
3 451 125 455
3 446 123 451
3 455 39 446
3 457 456 453
3 453 126 457
3 456 125 453
3 457 9 456
3 460 458 459
3 459 128 460
3 458 122 459
3 460 127 458
3 449 461 459
3 459 122 449
3 461 128 459
3 449 37 461
3 462 448 458
3 458 127 462
3 448 122 458
3 462 38 448
3 464 463 460
3 460 128 464
3 463 127 460
3 464 10 463
3 467 465 466
3 466 130 467
3 465 124 466
3 467 129 465
3 445 468 466
3 466 124 445
3 468 130 466
3 445 39 468
3 469 450 465
3 465 129 469
3 450 124 465
3 469 37 450
3 471 470 467
3 467 130 471
3 470 129 467
3 471 3 470
3 474 472 473
3 473 133 474
3 472 132 473
3 474 131 472
3 476 475 473
3 473 132 476
3 475 133 473
3 476 38 475
3 478 477 472
3 472 131 478
3 477 132 472
3 478 41 477
3 480 479 474
3 474 133 480
3 479 131 474
3 480 40 479
3 483 481 482
3 482 134 483
3 481 132 482
3 483 126 481
3 477 484 482
3 482 132 477
3 484 134 482
3 477 41 484
3 454 476 481
3 481 126 454
3 476 132 481
3 454 38 476
3 485 457 483
3 483 134 485
3 457 126 483
3 485 9 457
3 488 486 487
3 487 136 488
3 486 131 487
3 488 135 486
3 479 489 487
3 487 131 479
3 489 136 487
3 479 40 489
3 490 478 486
3 486 135 490
3 478 131 486
3 490 41 478
3 492 491 488
3 488 136 492
3 491 135 488
3 492 2 491
3 495 493 494
3 494 127 495
3 493 133 494
3 495 137 493
3 475 462 494
3 494 133 475
3 462 127 494
3 475 38 462
3 496 480 493
3 493 137 496
3 480 133 493
3 496 40 480
3 463 497 495
3 495 127 463
3 497 137 495
3 463 10 497
3 500 498 499
3 499 140 500
3 498 139 499
3 500 138 498
3 502 501 499
3 499 139 502
3 501 140 499
3 502 33 501
3 504 503 498
3 498 138 504
3 503 139 498
3 504 13 503
3 506 505 500
3 500 140 506
3 505 138 500
3 506 23 505
3 509 507 508
3 508 47 509
3 507 139 508
3 509 110 507
3 503 182 508
3 508 139 503
3 182 47 508
3 503 13 182
3 398 502 507
3 507 110 398
3 502 139 507
3 398 33 502
3 183 401 509
3 509 47 183
3 401 110 509
3 183 8 401
3 512 510 511
3 511 79 512
3 510 138 511
3 512 46 510
3 505 294 511
3 511 138 505
3 294 79 511
3 505 23 294
3 174 504 510
3 510 46 174
3 504 138 510
3 174 13 504
3 295 177 512
3 512 79 295
3 177 46 512
3 295 4 177
3 515 513 514
3 514 111 515
3 513 140 514
3 515 78 513
3 501 406 514
3 514 140 501
3 406 111 514
3 501 33 406
3 286 506 513
3 513 78 286
3 506 140 513
3 286 23 506
3 407 289 515
3 515 111 407
3 289 78 515
3 407 0 289
3 518 516 517
3 517 143 518
3 516 142 517
3 518 141 516
3 520 519 517
3 517 142 520
3 519 143 517
3 520 19 519
3 522 521 516
3 516 141 522
3 521 142 516
3 522 32 521
3 524 523 518
3 518 143 524
3 523 141 518
3 524 26 523
3 527 525 526
3 526 113 527
3 525 142 526
3 527 66 525
3 521 413 526
3 526 142 521
3 413 113 526
3 521 32 413
3 244 520 525
3 525 66 244
3 520 142 525
3 244 19 520
3 414 247 527
3 527 113 414
3 247 66 527
3 414 11 247
3 530 528 529
3 529 86 530
3 528 141 529
3 530 112 528
3 523 316 529
3 529 141 523
3 316 86 529
3 523 26 316
3 405 522 528
3 528 112 405
3 522 141 528
3 405 32 522
3 317 408 530
3 530 86 317
3 408 112 530
3 317 0 408
3 533 531 532
3 532 61 533
3 531 143 532
3 533 89 531
3 519 231 532
3 532 143 519
3 231 61 532
3 519 19 231
3 326 524 531
3 531 89 326
3 524 143 531
3 326 26 524
3 232 329 533
3 533 61 232
3 329 89 533
3 232 5 329
3 536 534 535
3 535 146 536
3 534 145 535
3 536 144 534
3 538 537 535
3 535 145 538
3 537 146 535
3 538 22 537
3 540 539 534
3 534 144 540
3 539 145 534
3 540 16 539
3 542 541 536
3 536 146 542
3 541 144 536
3 542 39 541
3 545 543 544
3 544 54 545
3 543 145 544
3 545 80 543
3 539 204 544
3 544 145 539
3 204 54 544
3 539 16 204
3 293 538 543
3 543 80 293
3 538 145 543
3 293 22 538
3 205 296 545
3 545 54 205
3 296 80 545
3 205 4 296
3 548 546 547
3 547 125 548
3 546 144 547
3 548 57 546
3 541 455 547
3 547 144 541
3 455 125 547
3 541 39 455
3 214 540 546
3 546 57 214
3 540 144 546
3 214 16 540
3 456 217 548
3 548 125 456
3 217 57 548
3 456 9 217
3 551 549 550
3 550 81 551
3 549 146 550
3 551 130 549
3 537 301 550
3 550 146 537
3 301 81 550
3 537 22 301
3 468 542 549
3 549 130 468
3 542 146 549
3 468 39 542
3 302 471 551
3 551 81 302
3 471 130 551
3 302 3 471
3 554 552 553
3 553 149 554
3 552 148 553
3 554 147 552
3 556 555 553
3 553 148 556
3 555 149 553
3 556 21 555
3 558 557 552
3 552 147 558
3 557 148 552
3 558 25 557
3 560 559 554
3 554 149 560
3 559 147 554
3 560 37 559
3 563 561 562
3 562 88 563
3 561 148 562
3 563 70 561
3 557 327 562
3 562 148 557
3 327 88 562
3 557 25 327
3 260 556 561
3 561 70 260
3 556 148 561
3 260 21 556
3 328 261 563
3 563 88 328
3 261 70 563
3 328 5 261
3 566 564 565
3 565 129 566
3 564 147 565
3 566 87 564
3 559 469 565
3 565 147 559
3 469 129 565
3 559 37 469
3 321 558 564
3 564 87 321
3 558 147 564
3 321 25 558
3 470 322 566
3 566 129 470
3 322 87 566
3 470 3 322
3 569 567 568
3 568 71 569
3 567 149 568
3 569 128 567
3 555 266 568
3 568 149 555
3 266 71 568
3 555 21 266
3 461 560 567
3 567 128 461
3 560 149 567
3 461 37 560
3 267 464 569
3 569 71 267
3 464 128 569
3 267 10 464
3 572 570 571
3 571 152 572
3 570 151 571
3 572 150 570
3 574 573 571
3 571 151 574
3 573 152 571
3 574 27 573
3 576 575 570
3 570 150 576
3 575 151 570
3 576 12 575
3 578 577 572
3 572 152 578
3 577 150 572
3 578 36 577
3 581 579 580
3 580 49 581
3 579 151 580
3 581 96 579
3 575 189 580
3 580 151 575
3 189 49 580
3 575 12 189
3 349 574 579
3 579 96 349
3 574 151 579
3 349 27 574
3 190 352 581
3 581 49 190
3 352 96 581
3 190 7 352
3 584 582 583
3 583 118 584
3 582 150 583
3 584 48 582
3 577 428 583
3 583 150 577
3 428 118 583
3 577 36 428
3 181 576 582
3 582 48 181
3 576 150 582
3 181 12 576
3 429 184 584
3 584 118 429
3 184 48 584
3 429 8 184
3 587 585 586
3 586 97 587
3 585 152 586
3 587 121 585
3 573 357 586
3 586 152 573
3 357 97 586
3 573 27 357
3 438 578 585
3 585 121 438
3 578 152 585
3 438 36 578
3 358 441 587
3 587 97 358
3 441 121 587
3 358 1 441
3 590 588 589
3 589 155 590
3 588 154 589
3 590 153 588
3 592 591 589
3 589 154 592
3 591 155 589
3 592 17 591
3 594 593 588
3 588 153 594
3 593 154 588
3 594 30 593
3 596 595 590
3 590 155 596
3 595 153 590
3 596 35 595
3 599 597 598
3 598 104 599
3 597 154 598
3 599 64 597
3 593 383 598
3 598 154 593
3 383 104 598
3 593 30 383
3 237 592 597
3 597 64 237
3 592 154 597
3 237 17 592
3 384 240 599
3 599 104 384
3 240 64 599
3 384 6 240
3 602 600 601
3 601 120 602
3 600 153 601
3 602 103 600
3 595 439 601
3 601 153 595
3 439 120 601
3 595 35 439
3 377 594 600
3 600 103 377
3 594 153 600
3 377 30 594
3 440 378 602
3 602 120 440
3 378 103 602
3 440 1 378
3 605 603 604
3 604 65 605
3 603 155 604
3 605 119 603
3 591 245 604
3 604 155 591
3 245 65 604
3 591 17 245
3 433 596 603
3 603 119 433
3 596 155 603
3 433 35 596
3 246 434 605
3 605 65 246
3 434 119 605
3 246 11 434
3 608 606 607
3 607 158 608
3 606 157 607
3 608 156 606
3 610 609 607
3 607 157 610
3 609 158 607
3 610 15 609
3 612 611 606
3 606 156 612
3 611 157 606
3 612 28 611
3 614 613 608
3 608 158 614
3 613 156 608
3 614 41 613
3 617 615 616
3 616 95 617
3 615 157 616
3 617 55 615
3 611 350 616
3 616 157 611
3 350 95 616
3 611 28 350
3 209 610 615
3 615 55 209
3 610 157 615
3 209 15 610
3 351 210 617
3 617 95 351
3 210 55 617
3 351 7 210
3 620 618 619
3 619 135 620
3 618 156 619
3 620 94 618
3 613 490 619
3 619 156 613
3 490 135 619
3 613 41 490
3 342 612 618
3 618 94 342
3 612 156 618
3 342 28 612
3 491 345 620
3 620 135 491
3 345 94 620
3 491 2 345
3 623 621 622
3 622 56 623
3 621 158 622
3 623 134 621
3 609 215 622
3 622 158 609
3 215 56 622
3 609 15 215
3 484 614 621
3 621 134 484
3 614 158 621
3 484 41 614
3 216 485 623
3 623 56 216
3 485 134 623
3 216 9 485
3 626 624 625
3 625 161 626
3 624 160 625
3 626 159 624
3 628 627 625
3 625 160 628
3 627 161 625
3 628 31 627
3 630 629 624
3 624 159 630
3 629 160 624
3 630 20 629
3 632 631 626
3 626 161 632
3 631 159 626
3 632 40 631
3 635 633 634
3 634 73 635
3 633 160 634
3 635 105 633
3 629 272 634
3 634 160 629
3 272 73 634
3 629 20 272
3 382 628 633
3 633 105 382
3 628 160 633
3 382 31 628
3 273 385 635
3 635 73 273
3 385 105 635
3 273 6 385
3 638 636 637
3 637 137 638
3 636 159 637
3 638 72 636
3 631 496 637
3 637 159 631
3 496 137 637
3 631 40 496
3 265 630 636
3 636 72 265
3 630 159 636
3 265 20 630
3 497 268 638
3 638 137 497
3 268 72 638
3 497 10 268
3 641 639 640
3 640 102 641
3 639 161 640
3 641 136 639
3 627 372 640
3 640 161 627
3 372 102 640
3 627 31 372
3 489 632 639
3 639 136 489
3 632 161 639
3 489 40 632
3 373 492 641
3 641 102 373
3 492 136 641
3 373 2 492
