# vtk DataFile Version 3.0
this file was written using fslvtkio
ASCII
DATASET POLYDATA
POINTS 642 float
98.0192 125.381 88.0788
87.6345 126.406 87.4702
88.0911 120.869 86.5093
97.935 119.856 88.1198
97.8122 120.596 92.5312
94.657 124.841 82.046
88.0796 125.226 80.3326
91.4828 121.448 92.2343
93.8627 126.219 90.9996
93.5071 116.227 90.9677
91.802 120.652 84.4477
92.3055 128.91 83.6269
92.5765 123.914 92.2257
96.4796 123.847 92.9251
94.6947 120.712 93.6436
91.8405 117.437 93.0618
96.4436 116.95 93.0508
89.5803 128.452 80.7423
91.7893 125.312 79.8964
93.9129 128.22 81.3125
89.733 122.885 81.5289
93.0545 122.735 82.7055
100.263 118.55 90.0419
99.3022 123.16 90.9136
99.2624 122.766 87.795
96.1255 122.929 85.5538
96.3347 125.573 84.766
89.0234 124.116 90.4342
89.5769 120.662 89.9211
86.8421 123.752 86.843
86.8982 126.227 83.4752
87.2724 123.038 83.0639
95.3082 127.889 85.7888
96.5332 126.092 90.0403
92.8715 127.891 87.4833
89.2109 128.087 84.91
90.5584 126.314 89.5349
94.863 120.217 86.5621
92.6835 118.648 88.2029
96.8916 116.947 89.0075
89.201 120.167 84.9347
89.7306 117.113 89.5171
94.5517 123.805 92.8743
95.7337 122.489 94.0441
93.6527 122.632 93.7646
96.4372 120.453 93.5927
97.3195 122.367 93.2856
95.1601 125.114 92.1609
93.1741 125.135 91.7527
91.8777 122.837 92.634
93.0251 121.321 93.1404
93.4292 119.365 93.4255
95.5362 118.797 93.754
93.7641 117.084 94.073
97.4899 118.627 92.8484
91.8873 119.694 92.4532
92.185 115.957 92.3382
94.884 116.415 92.3151
90.771 126.967 80.3887
92.763 126.766 80.4872
91.9591 128.889 80.4175
94.2849 126.273 81.4888
93.3949 125.146 80.7576
89.7588 125.342 79.8081
88.7678 126.658 80.6043
91.1046 129.014 81.9545
93.2854 128.946 82.2611
91.401 122.915 81.8684
92.4298 123.934 80.9254
90.568 124.023 80.6222
93.775 123.959 82.3624
92.3373 121.808 83.6502
90.6871 121.961 83.1012
88.788 123.909 80.5927
100.369 121.141 90.5978
99.7857 122.89 89.2247
100.432 120.604 88.8192
99.3254 124.373 87.8475
98.9477 124.514 89.6623
98.7525 121.895 91.9324
99.2035 119.588 91.5603
99.6019 118.687 88.2949
98.6081 121.239 88.1543
97.632 122.985 86.9493
98.2318 124.182 86.3227
96.8689 123.985 84.7396
97.1336 125.443 86.4337
96.9699 121.511 87.1699
95.2871 123.965 83.8623
95.5907 125.29 83.1513
89.1148 122.471 90.1557
88.2269 122.48 88.4262
87.8849 124.037 88.7995
87.6527 122.404 86.58
88.723 120.885 88.2732
90.572 120.942 91.1898
90.1868 122.645 91.5596
88.1334 125.205 88.9794
86.9162 125.186 87.186
86.5093 125.032 85.1944
87.2171 123.659 84.9029
86.6419 124.794 83.1316
87.5231 122.075 84.9251
87.0044 126.318 85.6325
87.4564 125.888 81.7461
87.0812 124.081 81.2838
96.0232 127.111 88.0499
94.8178 127.372 88.8509
94.2223 127.926 86.8087
93.4044 127.205 89.4545
95.2546 126.232 90.6492
97.471 125.935 89.1895
96.4312 126.368 86.9825
93.9713 128.69 84.63
92.4796 128.53 85.5192
90.9218 128.09 86.2505
91.5151 127.072 88.2565
89.8967 127.232 87.2495
92.2106 126.479 90.3653
90.6027 128.663 84.0221
88.4076 127.149 86.1339
88.9814 126.46 88.668
94.0961 119.252 87.4014
94.6967 117.827 88.8628
96.1084 118.604 88.0466
95.1586 116.859 90.4593
93.1111 117.418 89.5978
92.2478 119.697 86.3268
93.3498 120.455 85.5546
96.4015 120.101 87.5737
97.8737 118.089 88.1405
89.5617 118.73 87.3687
91.1995 117.901 88.83
90.9022 119.333 86.7068
91.4269 116.253 90.2965
88.402 118.986 88.134
87.8775 120.244 85.3077
90.5199 120.385 84.584
98.0173 123.594 92.1643
96.6731 125.043 91.7017
98.2407 124.963 90.8647
95.358 126.311 85.273
94.6697 128.227 83.4054
94.9615 126.799 82.9
96.8491 116.591 91.2675
98.9324 117.307 91.8463
99.0794 117.042 89.3599
95.4116 121.501 86.0435
94.5771 122.929 84.293
93.7794 121.629 84.7834
91.5692 125.308 91.1591
90.7494 124.043 91.7206
89.6616 125.333 90.2382
87.8039 127.463 84.0479
87.9505 127.268 81.9569
89.0397 128.606 82.5688
89.2714 118.74 90.0341
90.6297 119.088 91.6051
90.7686 116.994 91.565
89.4464 121.96 83.3681
88.1088 122.889 81.882
88.0239 121.483 83.7196
95.0546 123.188 93.5709
94.6661 122.545 93.9145
94.048 123.32 93.5571
94.264 121.73 93.8481
95.1016 121.651 93.7683
96.0818 123.228 93.5633
95.4348 123.682 92.9518
93.5837 123.792 92.6036
93.1532 123.332 93.0668
96.0421 121.503 93.7721
96.6512 122.496 93.8203
96.8482 121.523 93.4244
97.0135 123.229 93.2496
95.6044 120.56 93.8211
97.0664 120.543 92.9731
97.549 121.423 92.8295
94.8638 124.344 92.506
93.8746 124.449 92.4111
94.2029 125.004 92.0351
92.9285 124.576 92.153
95.7442 124.275 92.4563
94.4537 125.649 91.5839
93.5707 125.647 91.3957
92.7741 122.792 93.2621
93.3416 121.932 93.6185
92.4297 122.113 93.0052
93.8205 121.041 93.531
92.3287 123.357 92.5033
91.5285 122.207 92.5653
92.2255 121.422 92.5658
94.4465 119.238 93.7293
94.7887 117.931 93.974
93.5383 118.125 93.8896
95.0953 117.083 93.6809
95.8165 117.722 93.4443
95.1687 119.684 93.9047
94.1391 119.986 93.5759
92.6351 118.522 93.029
92.6203 117.248 93.6954
96.4959 118.537 93.3405
96.0565 119.513 93.7741
96.8412 119.445 93.1651
96.9764 117.664 93.0309
97.6038 119.66 92.6269
93.3345 120.435 93.3074
92.5352 119.583 93.0848
92.5216 120.616 92.6974
91.7822 118.692 92.7931
91.779 120.657 92.1978
92.9268 116.318 93.5416
94.388 116.501 93.2473
93.6605 116.004 92.4669
95.5629 116.629 92.785
91.8965 116.586 93.0713
92.9372 115.773 91.4952
94.2262 116.209 91.6071
91.7505 126.888 80.4438
92.2147 127.781 80.3724
91.2002 128.005 80.1619
92.9508 128.534 80.7932
93.2042 127.486 80.7593
92.3453 126.11 80.134
91.3453 126.216 80.1415
90.1425 127.95 80.2515
90.7877 128.958 80.3382
93.6055 126.659 80.9347
93.1791 125.877 80.4552
93.8936 125.767 81.0884
92.6546 125.269 80.1614
94.0531 127.192 81.2712
94.4507 125.522 81.7893
93.9612 125.016 81.3942
90.3439 126.181 80.1502
89.8006 126.865 80.3255
89.3091 126.124 80.2956
89.1387 127.414 80.6014
90.8274 125.429 79.8788
88.9627 125.327 80.0422
88.4412 125.933 80.5027
91.5008 129.213 81.0329
92.6711 129.13 81.2494
92.2664 129.049 82.0233
93.5964 128.849 81.685
90.3102 128.959 81.2077
91.7753 129.007 82.8253
92.7912 128.953 82.9828
91.9514 123.298 81.3213
91.5553 123.929 80.623
90.9826 123.382 81.0997
91.1766 124.673 80.1689
92.1214 124.486 80.1942
92.6995 123.279 81.8022
92.2279 122.761 82.1843
90.5699 122.904 81.5358
90.1184 123.442 80.9254
92.8711 124.545 80.6907
93.0844 123.951 81.5378
93.5681 124.443 81.352
93.439 123.365 82.4916
94.2544 124.413 82.1184
91.8427 122.316 82.6092
91.0725 122.393 82.3363
91.5312 121.92 83.2659
90.2558 122.473 82.2859
92.6267 122.228 83.0693
92.0384 121.178 84.0331
91.2301 121.296 83.8366
89.6783 123.976 80.4844
90.1582 124.536 79.9262
89.2386 124.507 80.0361
89.2795 123.444 81.0135
88.2606 124.472 80.2865
100.248 122.023 89.9287
100.287 121.917 88.9556
100.905 120.802 89.7228
99.8908 121.809 88.21
99.7637 122.817 88.4567
99.5507 122.799 90.0623
99.8108 122.143 90.7612
100.613 119.814 90.3607
100.837 119.563 89.2976
99.6775 123.604 88.6206
99.4435 123.66 89.5129
99.0107 124.303 88.7775
99.0553 123.771 90.282
99.4236 123.553 87.774
98.6239 124.777 88.0545
98.5955 124.953 88.8975
99.6836 121.452 91.3808
100.069 120.219 91.2037
99.0651 120.656 91.7441
99.9865 118.912 90.9796
99.1389 122.431 91.4029
98.2736 121.221 92.3306
98.4355 120.091 92.0679
100.253 119.462 88.4592
99.6375 120.866 88.2306
99.3696 120.007 88.0704
98.9435 121.956 88.0414
100.124 118.678 89.1311
98.8093 119.292 88.0648
98.3969 120.504 88.1488
98.0236 123.568 86.6273
97.6192 124.04 85.5395
97.2367 123.564 86.0185
96.9088 124.808 84.4789
97.5604 124.929 85.3171
98.6647 123.604 87.3121
98.4255 122.801 87.5057
96.9217 123.049 86.2502
96.4767 123.62 85.3582
97.8239 125.043 86.2946
98.7252 124.215 87.1491
98.2684 124.949 87.2982
96.7762 125.477 85.6108
97.6024 125.292 87.3401
98.1883 122.057 87.5445
97.3058 122.166 87.0752
97.7418 121.39 87.7694
96.5619 122.23 86.3785
97.45 120.839 87.8937
96.1315 123.926 84.2821
96.3148 124.669 83.8509
95.7367 124.436 83.3471
96.0644 125.51 83.7714
95.6257 123.62 84.8666
94.9864 124.434 82.8903
95.1352 125.072 82.4998
88.6923 122.522 89.2458
87.9508 123.117 88.5904
88.4376 123.179 89.4902
87.2998 123.804 87.8795
87.5019 123.066 87.6829
88.8582 121.551 89.1692
89.3106 121.59 90.0094
89.0646 123.249 90.2183
88.4098 124.073 89.677
87.8944 122.482 87.4832
88.4227 121.68 88.4057
88.1377 121.702 87.4451
89.0577 120.805 89.2126
87.1642 123.044 86.7
87.9294 121.688 86.5669
88.1683 120.883 87.3695
89.7851 121.705 90.667
89.4878 122.582 90.8928
90.4039 121.894 91.2799
89.5975 123.203 91.029
90.0242 120.763 90.5504
91.1501 121.24 91.6641
90.8724 122.046 91.9741
87.8894 124.718 89.0383
87.3405 124.628 88.0584
87.6508 125.165 88.1213
86.8425 124.576 87.0384
88.414 124.836 89.8251
88.0011 125.77 88.1829
87.365 125.731 87.297
86.5846 124.215 85.0833
86.8748 124.138 84.0359
86.4525 124.873 84.1581
87.0655 123.914 83.0635
87.3713 123.406 83.953
86.8069 123.684 85.9186
86.5615 124.458 86.0782
86.3231 125.623 84.2611
86.7262 125.543 83.3835
87.4492 122.855 84.8007
87.2718 122.991 85.773
87.4842 122.202 85.674
87.4117 122.708 84.008
87.8229 121.439 85.6954
86.5093 125.114 86.2308
86.4828 125.726 85.4028
86.7454 125.818 86.4985
86.8181 126.222 84.5375
87.1442 126.433 86.6439
86.9305 125.293 82.3951
86.8188 124.44 82.1577
87.02 125.009 81.3538
87.0244 123.631 82.1706
87.1551 126.042 82.6083
87.6942 125.527 80.9238
87.381 124.686 80.5727
95.4247 127.286 88.4492
94.5488 127.718 87.8249
95.0824 127.564 87.3927
93.638 128.062 87.1757
93.91 127.7 88.1796
95.7149 126.913 89.5572
96.3175 126.748 89.13
95.5761 127.436 86.9787
94.8443 127.892 86.3701
94.1494 127.348 89.1592
95.0496 126.883 89.8622
94.3661 126.85 90.0628
95.8919 126.193 90.3764
93.1837 127.489 88.4347
93.6348 126.869 90.3394
94.5312 126.181 90.8604
96.6864 126.436 88.6568
96.3205 126.805 87.5176
96.9501 126.132 88.0905
95.8935 127.153 86.4823
97.0338 126.066 89.6377
97.745 125.67 88.6192
97.15 125.772 87.4892
94.0514 128.259 85.7537
93.4791 128.287 86.1533
93.3526 128.609 85.1732
92.6776 128.247 86.5285
94.7013 128.342 85.1622
93.1492 128.914 84.0556
92.3303 128.739 84.5095
91.2542 127.616 87.2302
90.7411 127.223 87.7912
90.364 127.698 86.7323
90.2217 126.839 88.4515
90.9827 126.629 88.8577
92.192 127.539 87.8003
91.8362 128 86.8455
90.0304 128.148 85.619
89.6359 127.687 86.1242
91.7622 126.72 89.3182
92.4714 127.149 88.7607
92.8078 126.859 89.8664
91.2999 126.289 89.9081
93.1248 126.319 90.7326
91.6652 128.34 85.877
90.7409 128.492 85.1775
91.5156 128.638 84.8278
89.8636 128.385 84.4538
91.4222 128.824 83.7823
89.1524 127.269 86.6275
89.4217 126.995 87.9975
88.6516 127.025 87.463
89.7733 126.469 89.0991
88.9076 127.47 85.4411
87.8626 126.945 86.917
88.2751 126.479 88.1379
94.4298 118.678 88.1938
95.5718 118.151 88.4305
95.1244 119.013 87.8013
96.5591 117.769 88.5976
95.7665 117.461 88.9689
93.687 118.286 88.5531
93.4371 118.958 87.8195
94.6227 119.513 86.9848
95.5009 119.364 87.3822
94.9938 117.252 89.4715
93.9464 117.779 89.291
94.1475 117.07 89.9762
92.8561 117.972 88.7243
95.9383 116.802 89.7385
94.4648 116.542 90.7306
93.2883 116.744 90.2696
93.1832 119.335 86.7804
93.7552 119.808 86.5299
92.9122 119.979 85.9702
94.1535 120.301 86.1432
92.4847 119.223 87.329
92.0292 120.19 85.4093
92.527 120.476 84.9011
96.3588 119.257 87.683
96.955 118.257 88.1641
97.187 119.008 87.938
97.5074 117.471 88.5173
95.595 120.089 87.0333
97.1423 120.02 87.9161
98.067 118.983 88.1354
90.4098 118.372 88.1652
91.1257 118.816 87.8142
90.2114 119.023 86.895
91.8516 119.056 87.6506
91.8756 118.268 88.3649
90.4601 117.49 89.1005
89.6131 117.887 88.5052
89.4059 119.563 86.233
90.0436 119.748 85.9451
92.1133 117.583 89.0246
91.2754 117.119 89.5941
92.2631 116.785 89.9132
90.6487 116.737 89.9274
92.4853 116.074 90.7342
88.8167 118.677 87.6061
88.7161 119.381 86.2677
88.1315 119.604 86.7195
88.5303 120.078 85.1072
89.1194 117.929 88.843
88.1248 119.912 87.2843
87.9057 120.558 85.9178
90.6846 119.878 85.6575
91.602 119.568 86.6152
91.3938 120.093 85.5592
89.8365 120.3 84.7853
91.1553 120.537 84.5295
97.305 124.259 91.9413
97.4482 124.992 91.3126
98.0935 124.261 91.4781
97.4268 125.547 90.5566
96.7465 125.614 90.9284
96.5316 124.284 92.2732
97.358 123.768 92.7034
98.7449 123.458 91.5876
98.8309 124.148 90.9867
96.0019 125.663 91.2076
95.9361 125.09 92.0704
95.203 125.706 91.447
97.8328 123.051 92.9029
98.5199 122.844 92.1272
98.0246 122.13 92.5682
98.7071 124.829 90.3575
98.029 125.672 90.1788
98.3956 125.413 89.5476
95.1275 127.409 84.336
94.8123 127.558 83.097
95.2111 126.671 84.1127
94.544 127.51 81.9662
94.3592 128.3 82.2368
95.0052 128.041 84.6247
95.4846 127.244 85.429
95.7713 126.094 85.0077
95.6373 126.226 83.8611
94.103 128.67 82.7684
94.4781 128.55 83.9961
93.6596 128.844 83.4329
95.9217 126.358 86.1152
96.1478 125.845 85.8265
96.7181 125.784 86.6813
95.299 126.071 83.0201
94.8311 126.605 81.9482
94.9584 125.802 82.2789
98.1545 116.574 91.6909
99.2392 116.934 90.6617
98.281 116.487 90.3735
99.7638 117.604 89.6837
99.7658 117.785 90.8478
97.7801 116.996 92.5201
96.708 116.63 92.2591
96.9417 116.651 90.0957
98.0106 116.879 89.1664
99.1556 118.301 91.7387
98.2494 117.903 92.6483
98.3008 119.139 92.2184
95.7883 116.457 91.8483
95.8726 116.733 90.8655
95.064 116.571 91.3242
98.3967 117.524 88.6423
99.3244 117.818 88.7819
98.6435 118.321 88.1763
94.9394 122.214 85.2219
94.1109 122.312 84.5742
94.5817 121.454 85.3402
93.3111 122.254 83.7885
93.7955 122.777 83.4684
95.2598 123.032 85.0918
95.732 122.215 85.8057
95.0954 120.873 86.278
94.3691 120.843 85.6449
94.0577 123.417 83.4368
94.8898 123.511 84.1403
94.4741 123.968 83.2221
96.1801 121.495 86.5633
95.8591 120.824 86.8143
96.6788 120.798 87.2711
93.6734 120.923 85.0618
93.0033 121.746 84.2984
92.7957 121.045 84.5298
91.1322 124.732 91.5257
90.1133 124.808 91.12
90.635 125.27 90.65
89.33 124.862 90.4038
89.7712 124.035 91.3532
91.7535 124.031 91.9874
92.0573 124.718 91.9311
90.9797 125.77 90.4462
90.1098 125.827 89.945
90.3836 123.305 91.6939
91.4028 123.339 91.9779
91.0099 122.741 92.1157
92.3774 125.263 91.5468
91.8601 125.94 90.7466
92.761 125.83 91.1019
89.2766 125.843 89.4298
88.8668 125.245 89.7186
88.6288 125.655 88.7833
87.8309 127.328 82.9614
88.3736 127.972 82.145
88.3231 127.953 83.2765
89.1976 128.478 81.5799
88.6912 127.793 81.2325
87.5097 126.593 82.7177
87.3989 126.815 83.7232
88.5042 127.81 84.3996
89.0937 128.268 83.7368
88.3049 127.053 81.1432
87.6613 126.587 81.8301
88.0485 126.277 81.0798
87.3211 126.804 84.7422
88.1327 127.202 85.0709
87.4832 126.874 86.0012
89.8699 128.661 83.2776
89.965 128.942 82.0653
90.8147 128.932 82.9174
89.6658 118.9 91.003
90.3878 117.906 91.8293
89.8396 117.836 90.9111
91.2095 117.095 92.4112
91.0956 118.279 92.4472
90.0302 119.785 90.8012
89.3423 119.773 90.0786
89.368 117.834 89.7493
90.1911 116.944 90.6282
91.2138 119.33 92.0766
90.7419 119.967 91.203
91.3147 120.268 91.7697
88.7784 119.948 89.2286
88.731 118.888 89.0593
88.4693 120.087 88.2436
90.898 116.512 90.8844
91.3946 116.419 92.1642
91.9594 116.087 91.1842
88.8683 122.555 82.7491
88.0772 122.272 82.8394
88.7821 121.745 83.5798
87.4502 122.263 83.2788
87.4529 122.853 82.2393
88.9656 122.963 81.6989
89.5463 122.628 82.5275
89.2891 120.936 84.1398
88.579 120.751 84.2175
87.5223 123.391 81.436
88.3611 123.284 80.9921
87.7806 123.831 80.7576
90.0512 122.101 83.1705
90.0385 121.075 83.8629
90.6074 121.209 83.795
87.9579 120.876 84.5211
87.6522 121.787 84.228
87.6545 121.142 85.014
POLYGONS 1280  5120
3 164 162 163
3 163 44 164
3 162 43 163
3 164 42 162
3 166 165 163
3 163 43 166
3 165 44 163
3 166 14 165
3 168 167 162
3 162 42 168
3 167 43 162
3 168 13 167
3 170 169 164
3 164 44 170
3 169 42 164
3 170 12 169
3 173 171 172
3 172 46 173
3 171 43 172
3 173 45 171
3 167 174 172
3 172 43 167
3 174 46 172
3 167 13 174
3 175 166 171
3 171 45 175
3 166 43 171
3 175 14 166
3 177 176 173
3 173 46 177
3 176 45 173
3 177 4 176
3 180 178 179
3 179 48 180
3 178 42 179
3 180 47 178
3 169 181 179
3 179 42 169
3 181 48 179
3 169 12 181
3 182 168 178
3 178 47 182
3 168 42 178
3 182 13 168
3 184 183 180
3 180 48 184
3 183 47 180
3 184 8 183
3 187 185 186
3 186 50 187
3 185 44 186
3 187 49 185
3 165 188 186
3 186 44 165
3 188 50 186
3 165 14 188
3 189 170 185
3 185 49 189
3 170 44 185
3 189 12 170
3 191 190 187
3 187 50 191
3 190 49 187
3 191 7 190
3 194 192 193
3 193 53 194
3 192 52 193
3 194 51 192
3 196 195 193
3 193 52 196
3 195 53 193
3 196 16 195
3 198 197 192
3 192 51 198
3 197 52 192
3 198 14 197
3 200 199 194
3 194 53 200
3 199 51 194
3 200 15 199
3 203 201 202
3 202 45 203
3 201 52 202
3 203 54 201
3 197 175 202
3 202 52 197
3 175 45 202
3 197 14 175
3 204 196 201
3 201 54 204
3 196 52 201
3 204 16 196
3 176 205 203
3 203 45 176
3 205 54 203
3 176 4 205
3 208 206 207
3 207 55 208
3 206 51 207
3 208 50 206
3 199 209 207
3 207 51 199
3 209 55 207
3 199 15 209
3 188 198 206
3 206 50 188
3 198 51 206
3 188 14 198
3 210 191 208
3 208 55 210
3 191 50 208
3 210 7 191
3 213 211 212
3 212 57 213
3 211 53 212
3 213 56 211
3 195 214 212
3 212 53 195
3 214 57 212
3 195 16 214
3 215 200 211
3 211 56 215
3 200 53 211
3 215 15 200
3 217 216 213
3 213 57 217
3 216 56 213
3 217 9 216
3 220 218 219
3 219 60 220
3 218 59 219
3 220 58 218
3 222 221 219
3 219 59 222
3 221 60 219
3 222 19 221
3 224 223 218
3 218 58 224
3 223 59 218
3 224 18 223
3 226 225 220
3 220 60 226
3 225 58 220
3 226 17 225
3 229 227 228
3 228 62 229
3 227 59 228
3 229 61 227
3 223 230 228
3 228 59 223
3 230 62 228
3 223 18 230
3 231 222 227
3 227 61 231
3 222 59 227
3 231 19 222
3 233 232 229
3 229 62 233
3 232 61 229
3 233 5 232
3 236 234 235
3 235 64 236
3 234 58 235
3 236 63 234
3 225 237 235
3 235 58 225
3 237 64 235
3 225 17 237
3 238 224 234
3 234 63 238
3 224 58 234
3 238 18 224
3 240 239 236
3 236 64 240
3 239 63 236
3 240 6 239
3 243 241 242
3 242 66 243
3 241 60 242
3 243 65 241
3 221 244 242
3 242 60 221
3 244 66 242
3 221 19 244
3 245 226 241
3 241 65 245
3 226 60 241
3 245 17 226
3 247 246 243
3 243 66 247
3 246 65 243
3 247 11 246
3 250 248 249
3 249 69 250
3 248 68 249
3 250 67 248
3 252 251 249
3 249 68 252
3 251 69 249
3 252 18 251
3 254 253 248
3 248 67 254
3 253 68 248
3 254 21 253
3 256 255 250
3 250 69 256
3 255 67 250
3 256 20 255
3 259 257 258
3 258 70 259
3 257 68 258
3 259 62 257
3 253 260 258
3 258 68 253
3 260 70 258
3 253 21 260
3 230 252 257
3 257 62 230
3 252 68 257
3 230 18 252
3 261 233 259
3 259 70 261
3 233 62 259
3 261 5 233
3 264 262 263
3 263 72 264
3 262 67 263
3 264 71 262
3 255 265 263
3 263 67 255
3 265 72 263
3 255 20 265
3 266 254 262
3 262 71 266
3 254 67 262
3 266 21 254
3 268 267 264
3 264 72 268
3 267 71 264
3 268 10 267
3 271 269 270
3 270 63 271
3 269 69 270
3 271 73 269
3 251 238 270
3 270 69 251
3 238 63 270
3 251 18 238
3 272 256 269
3 269 73 272
3 256 69 269
3 272 20 256
3 239 273 271
3 271 63 239
3 273 73 271
3 239 6 273
3 276 274 275
3 275 76 276
3 274 75 275
3 276 74 274
3 278 277 275
3 275 75 278
3 277 76 275
3 278 24 277
3 280 279 274
3 274 74 280
3 279 75 274
3 280 23 279
3 282 281 276
3 276 76 282
3 281 74 276
3 282 22 281
3 285 283 284
3 284 78 285
3 283 75 284
3 285 77 283
3 279 286 284
3 284 75 279
3 286 78 284
3 279 23 286
3 287 278 283
3 283 77 287
3 278 75 283
3 287 24 278
3 289 288 285
3 285 78 289
3 288 77 285
3 289 0 288
3 292 290 291
3 291 80 292
3 290 74 291
3 292 79 290
3 281 293 291
3 291 74 281
3 293 80 291
3 281 22 293
3 294 280 290
3 290 79 294
3 280 74 290
3 294 23 280
3 296 295 292
3 292 80 296
3 295 79 292
3 296 4 295
3 299 297 298
3 298 82 299
3 297 76 298
3 299 81 297
3 277 300 298
3 298 76 277
3 300 82 298
3 277 24 300
3 301 282 297
3 297 81 301
3 282 76 297
3 301 22 282
3 303 302 299
3 299 82 303
3 302 81 299
3 303 3 302
3 306 304 305
3 305 85 306
3 304 84 305
3 306 83 304
3 308 307 305
3 305 84 308
3 307 85 305
3 308 26 307
3 310 309 304
3 304 83 310
3 309 84 304
3 310 24 309
3 312 311 306
3 306 85 312
3 311 83 306
3 312 25 311
3 315 313 314
3 314 77 315
3 313 84 314
3 315 86 313
3 309 287 314
3 314 84 309
3 287 77 314
3 309 24 287
3 316 308 313
3 313 86 316
3 308 84 313
3 316 26 308
3 288 317 315
3 315 77 288
3 317 86 315
3 288 0 317
3 320 318 319
3 319 87 320
3 318 83 319
3 320 82 318
3 311 321 319
3 319 83 311
3 321 87 319
3 311 25 321
3 300 310 318
3 318 82 300
3 310 83 318
3 300 24 310
3 322 303 320
3 320 87 322
3 303 82 320
3 322 3 303
3 325 323 324
3 324 89 325
3 323 85 324
3 325 88 323
3 307 326 324
3 324 85 307
3 326 89 324
3 307 26 326
3 327 312 323
3 323 88 327
3 312 85 323
3 327 25 312
3 329 328 325
3 325 89 329
3 328 88 325
3 329 5 328
3 332 330 331
3 331 92 332
3 330 91 331
3 332 90 330
3 334 333 331
3 331 91 334
3 333 92 331
3 334 29 333
3 336 335 330
3 330 90 336
3 335 91 330
3 336 28 335
3 338 337 332
3 332 92 338
3 337 90 332
3 338 27 337
3 341 339 340
3 340 94 341
3 339 91 340
3 341 93 339
3 335 342 340
3 340 91 335
3 342 94 340
3 335 28 342
3 343 334 339
3 339 93 343
3 334 91 339
3 343 29 334
3 345 344 341
3 341 94 345
3 344 93 341
3 345 2 344
3 348 346 347
3 347 96 348
3 346 90 347
3 348 95 346
3 337 349 347
3 347 90 337
3 349 96 347
3 337 27 349
3 350 336 346
3 346 95 350
3 336 90 346
3 350 28 336
3 352 351 348
3 348 96 352
3 351 95 348
3 352 7 351
3 355 353 354
3 354 98 355
3 353 92 354
3 355 97 353
3 333 356 354
3 354 92 333
3 356 98 354
3 333 29 356
3 357 338 353
3 353 97 357
3 338 92 353
3 357 27 338
3 359 358 355
3 355 98 359
3 358 97 355
3 359 1 358
3 362 360 361
3 361 101 362
3 360 100 361
3 362 99 360
3 364 363 361
3 361 100 364
3 363 101 361
3 364 31 363
3 366 365 360
3 360 99 366
3 365 100 360
3 366 29 365
3 368 367 362
3 362 101 368
3 367 99 362
3 368 30 367
3 371 369 370
3 370 93 371
3 369 100 370
3 371 102 369
3 365 343 370
3 370 100 365
3 343 93 370
3 365 29 343
3 372 364 369
3 369 102 372
3 364 100 369
3 372 31 364
3 344 373 371
3 371 93 344
3 373 102 371
3 344 2 373
3 376 374 375
3 375 103 376
3 374 99 375
3 376 98 374
3 367 377 375
3 375 99 367
3 377 103 375
3 367 30 377
3 356 366 374
3 374 98 356
3 366 99 374
3 356 29 366
3 378 359 376
3 376 103 378
3 359 98 376
3 378 1 359
3 381 379 380
3 380 105 381
3 379 101 380
3 381 104 379
3 363 382 380
3 380 101 363
3 382 105 380
3 363 31 382
3 383 368 379
3 379 104 383
3 368 101 379
3 383 30 368
3 385 384 381
3 381 105 385
3 384 104 381
3 385 6 384
3 388 386 387
3 387 108 388
3 386 107 387
3 388 106 386
3 390 389 387
3 387 107 390
3 389 108 387
3 390 34 389
3 392 391 386
3 386 106 392
3 391 107 386
3 392 33 391
3 394 393 388
3 388 108 394
3 393 106 388
3 394 32 393
3 397 395 396
3 396 110 397
3 395 107 396
3 397 109 395
3 391 398 396
3 396 107 391
3 398 110 396
3 391 33 398
3 399 390 395
3 395 109 399
3 390 107 395
3 399 34 390
3 401 400 397
3 397 110 401
3 400 109 397
3 401 8 400
3 404 402 403
3 403 112 404
3 402 106 403
3 404 111 402
3 393 405 403
3 403 106 393
3 405 112 403
3 393 32 405
3 406 392 402
3 402 111 406
3 392 106 402
3 406 33 392
3 408 407 404
3 404 112 408
3 407 111 404
3 408 0 407
3 411 409 410
3 410 114 411
3 409 108 410
3 411 113 409
3 389 412 410
3 410 108 389
3 412 114 410
3 389 34 412
3 413 394 409
3 409 113 413
3 394 108 409
3 413 32 394
3 415 414 411
3 411 114 415
3 414 113 411
3 415 11 414
3 418 416 417
3 417 117 418
3 416 116 417
3 418 115 416
3 420 419 417
3 417 116 420
3 419 117 417
3 420 36 419
3 422 421 416
3 416 115 422
3 421 116 416
3 422 34 421
3 424 423 418
3 418 117 424
3 423 115 418
3 424 35 423
3 427 425 426
3 426 109 427
3 425 116 426
3 427 118 425
3 421 399 426
3 426 116 421
3 399 109 426
3 421 34 399
3 428 420 425
3 425 118 428
3 420 116 425
3 428 36 420
3 400 429 427
3 427 109 400
3 429 118 427
3 400 8 429
3 432 430 431
3 431 119 432
3 430 115 431
3 432 114 430
3 423 433 431
3 431 115 423
3 433 119 431
3 423 35 433
3 412 422 430
3 430 114 412
3 422 115 430
3 412 34 422
3 434 415 432
3 432 119 434
3 415 114 432
3 434 11 415
3 437 435 436
3 436 121 437
3 435 117 436
3 437 120 435
3 419 438 436
3 436 117 419
3 438 121 436
3 419 36 438
3 439 424 435
3 435 120 439
3 424 117 435
3 439 35 424
3 441 440 437
3 437 121 441
3 440 120 437
3 441 1 440
3 444 442 443
3 443 124 444
3 442 123 443
3 444 122 442
3 446 445 443
3 443 123 446
3 445 124 443
3 446 39 445
3 448 447 442
3 442 122 448
3 447 123 442
3 448 38 447
3 450 449 444
3 444 124 450
3 449 122 444
3 450 37 449
3 453 451 452
3 452 126 453
3 451 123 452
3 453 125 451
3 447 454 452
3 452 123 447
3 454 126 452
3 447 38 454
3 455 446 451
3 451 125 455
3 446 123 451
3 455 39 446
3 457 456 453
3 453 126 457
3 456 125 453
3 457 9 456
3 460 458 459
3 459 128 460
3 458 122 459
3 460 127 458
3 449 461 459
3 459 122 449
3 461 128 459
3 449 37 461
3 462 448 458
3 458 127 462
3 448 122 458
3 462 38 448
3 464 463 460
3 460 128 464
3 463 127 460
3 464 10 463
3 467 465 466
3 466 130 467
3 465 124 466
3 467 129 465
3 445 468 466
3 466 124 445
3 468 130 466
3 445 39 468
3 469 450 465
3 465 129 469
3 450 124 465
3 469 37 450
3 471 470 467
3 467 130 471
3 470 129 467
3 471 3 470
3 474 472 473
3 473 133 474
3 472 132 473
3 474 131 472
3 476 475 473
3 473 132 476
3 475 133 473
3 476 38 475
3 478 477 472
3 472 131 478
3 477 132 472
3 478 41 477
3 480 479 474
3 474 133 480
3 479 131 474
3 480 40 479
3 483 481 482
3 482 134 483
3 481 132 482
3 483 126 481
3 477 484 482
3 482 132 477
3 484 134 482
3 477 41 484
3 454 476 481
3 481 126 454
3 476 132 481
3 454 38 476
3 485 457 483
3 483 134 485
3 457 126 483
3 485 9 457
3 488 486 487
3 487 136 488
3 486 131 487
3 488 135 486
3 479 489 487
3 487 131 479
3 489 136 487
3 479 40 489
3 490 478 486
3 486 135 490
3 478 131 486
3 490 41 478
3 492 491 488
3 488 136 492
3 491 135 488
3 492 2 491
3 495 493 494
3 494 127 495
3 493 133 494
3 495 137 493
3 475 462 494
3 494 133 475
3 462 127 494
3 475 38 462
3 496 480 493
3 493 137 496
3 480 133 493
3 496 40 480
3 463 497 495
3 495 127 463
3 497 137 495
3 463 10 497
3 500 498 499
3 499 140 500
3 498 139 499
3 500 138 498
3 502 501 499
3 499 139 502
3 501 140 499
3 502 33 501
3 504 503 498
3 498 138 504
3 503 139 498
3 504 13 503
3 506 505 500
3 500 140 506
3 505 138 500
3 506 23 505
3 509 507 508
3 508 47 509
3 507 139 508
3 509 110 507
3 503 182 508
3 508 139 503
3 182 47 508
3 503 13 182
3 398 502 507
3 507 110 398
3 502 139 507
3 398 33 502
3 183 401 509
3 509 47 183
3 401 110 509
3 183 8 401
3 512 510 511
3 511 79 512
3 510 138 511
3 512 46 510
3 505 294 511
3 511 138 505
3 294 79 511
3 505 23 294
3 174 504 510
3 510 46 174
3 504 138 510
3 174 13 504
3 295 177 512
3 512 79 295
3 177 46 512
3 295 4 177
3 515 513 514
3 514 111 515
3 513 140 514
3 515 78 513
3 501 406 514
3 514 140 501
3 406 111 514
3 501 33 406
3 286 506 513
3 513 78 286
3 506 140 513
3 286 23 506
3 407 289 515
3 515 111 407
3 289 78 515
3 407 0 289
3 518 516 517
3 517 143 518
3 516 142 517
3 518 141 516
3 520 519 517
3 517 142 520
3 519 143 517
3 520 19 519
3 522 521 516
3 516 141 522
3 521 142 516
3 522 32 521
3 524 523 518
3 518 143 524
3 523 141 518
3 524 26 523
3 527 525 526
3 526 113 527
3 525 142 526
3 527 66 525
3 521 413 526
3 526 142 521
3 413 113 526
3 521 32 413
3 244 520 525
3 525 66 244
3 520 142 525
3 244 19 520
3 414 247 527
3 527 113 414
3 247 66 527
3 414 11 247
3 530 528 529
3 529 86 530
3 528 141 529
3 530 112 528
3 523 316 529
3 529 141 523
3 316 86 529
3 523 26 316
3 405 522 528
3 528 112 405
3 522 141 528
3 405 32 522
3 317 408 530
3 530 86 317
3 408 112 530
3 317 0 408
3 533 531 532
3 532 61 533
3 531 143 532
3 533 89 531
3 519 231 532
3 532 143 519
3 231 61 532
3 519 19 231
3 326 524 531
3 531 89 326
3 524 143 531
3 326 26 524
3 232 329 533
3 533 61 232
3 329 89 533
3 232 5 329
3 536 534 535
3 535 146 536
3 534 145 535
3 536 144 534
3 538 537 535
3 535 145 538
3 537 146 535
3 538 22 537
3 540 539 534
3 534 144 540
3 539 145 534
3 540 16 539
3 542 541 536
3 536 146 542
3 541 144 536
3 542 39 541
3 545 543 544
3 544 54 545
3 543 145 544
3 545 80 543
3 539 204 544
3 544 145 539
3 204 54 544
3 539 16 204
3 293 538 543
3 543 80 293
3 538 145 543
3 293 22 538
3 205 296 545
3 545 54 205
3 296 80 545
3 205 4 296
3 548 546 547
3 547 125 548
3 546 144 547
3 548 57 546
3 541 455 547
3 547 144 541
3 455 125 547
3 541 39 455
3 214 540 546
3 546 57 214
3 540 144 546
3 214 16 540
3 456 217 548
3 548 125 456
3 217 57 548
3 456 9 217
3 551 549 550
3 550 81 551
3 549 146 550
3 551 130 549
3 537 301 550
3 550 146 537
3 301 81 550
3 537 22 301
3 468 542 549
3 549 130 468
3 542 146 549
3 468 39 542
3 302 471 551
3 551 81 302
3 471 130 551
3 302 3 471
3 554 552 553
3 553 149 554
3 552 148 553
3 554 147 552
3 556 555 553
3 553 148 556
3 555 149 553
3 556 21 555
3 558 557 552
3 552 147 558
3 557 148 552
3 558 25 557
3 560 559 554
3 554 149 560
3 559 147 554
3 560 37 559
3 563 561 562
3 562 88 563
3 561 148 562
3 563 70 561
3 557 327 562
3 562 148 557
3 327 88 562
3 557 25 327
3 260 556 561
3 561 70 260
3 556 148 561
3 260 21 556
3 328 261 563
3 563 88 328
3 261 70 563
3 328 5 261
3 566 564 565
3 565 129 566
3 564 147 565
3 566 87 564
3 559 469 565
3 565 147 559
3 469 129 565
3 559 37 469
3 321 558 564
3 564 87 321
3 558 147 564
3 321 25 558
3 470 322 566
3 566 129 470
3 322 87 566
3 470 3 322
3 569 567 568
3 568 71 569
3 567 149 568
3 569 128 567
3 555 266 568
3 568 149 555
3 266 71 568
3 555 21 266
3 461 560 567
3 567 128 461
3 560 149 567
3 461 37 560
3 267 464 569
3 569 71 267
3 464 128 569
3 267 10 464
3 572 570 571
3 571 152 572
3 570 151 571
3 572 150 570
3 574 573 571
3 571 151 574
3 573 152 571
3 574 27 573
3 576 575 570
3 570 150 576
3 575 151 570
3 576 12 575
3 578 577 572
3 572 152 578
3 577 150 572
3 578 36 577
3 581 579 580
3 580 49 581
3 579 151 580
3 581 96 579
3 575 189 580
3 580 151 575
3 189 49 580
3 575 12 189
3 349 574 579
3 579 96 349
3 574 151 579
3 349 27 574
3 190 352 581
3 581 49 190
3 352 96 581
3 190 7 352
3 584 582 583
3 583 118 584
3 582 150 583
3 584 48 582
3 577 428 583
3 583 150 577
3 428 118 583
3 577 36 428
3 181 576 582
3 582 48 181
3 576 150 582
3 181 12 576
3 429 184 584
3 584 118 429
3 184 48 584
3 429 8 184
3 587 585 586
3 586 97 587
3 585 152 586
3 587 121 585
3 573 357 586
3 586 152 573
3 357 97 586
3 573 27 357
3 438 578 585
3 585 121 438
3 578 152 585
3 438 36 578
3 358 441 587
3 587 97 358
3 441 121 587
3 358 1 441
3 590 588 589
3 589 155 590
3 588 154 589
3 590 153 588
3 592 591 589
3 589 154 592
3 591 155 589
3 592 17 591
3 594 593 588
3 588 153 594
3 593 154 588
3 594 30 593
3 596 595 590
3 590 155 596
3 595 153 590
3 596 35 595
3 599 597 598
3 598 104 599
3 597 154 598
3 599 64 597
3 593 383 598
3 598 154 593
3 383 104 598
3 593 30 383
3 237 592 597
3 597 64 237
3 592 154 597
3 237 17 592
3 384 240 599
3 599 104 384
3 240 64 599
3 384 6 240
3 602 600 601
3 601 120 602
3 600 153 601
3 602 103 600
3 595 439 601
3 601 153 595
3 439 120 601
3 595 35 439
3 377 594 600
3 600 103 377
3 594 153 600
3 377 30 594
3 440 378 602
3 602 120 440
3 378 103 602
3 440 1 378
3 605 603 604
3 604 65 605
3 603 155 604
3 605 119 603
3 591 245 604
3 604 155 591
3 245 65 604
3 591 17 245
3 433 596 603
3 603 119 433
3 596 155 603
3 433 35 596
3 246 434 605
3 605 65 246
3 434 119 605
3 246 11 434
3 608 606 607
3 607 158 608
3 606 157 607
3 608 156 606
3 610 609 607
3 607 157 610
3 609 158 607
3 610 15 609
3 612 611 606
3 606 156 612
3 611 157 606
3 612 28 611
3 614 613 608
3 608 158 614
3 613 156 608
3 614 41 613
3 617 615 616
3 616 95 617
3 615 157 616
3 617 55 615
3 611 350 616
3 616 157 611
3 350 95 616
3 611 28 350
3 209 610 615
3 615 55 209
3 610 157 615
3 209 15 610
3 351 210 617
3 617 95 351
3 210 55 617
3 351 7 210
3 620 618 619
3 619 135 620
3 618 156 619
3 620 94 618
3 613 490 619
3 619 156 613
3 490 135 619
3 613 41 490
3 342 612 618
3 618 94 342
3 612 156 618
3 342 28 612
3 491 345 620
3 620 135 491
3 345 94 620
3 491 2 345
3 623 621 622
3 622 56 623
3 621 158 622
3 623 134 621
3 609 215 622
3 622 158 609
3 215 56 622
3 609 15 215
3 484 614 621
3 621 134 484
3 614 158 621
3 484 41 614
3 216 485 623
3 623 56 216
3 485 134 623
3 216 9 485
3 626 624 625
3 625 161 626
3 624 160 625
3 626 159 624
3 628 627 625
3 625 160 628
3 627 161 625
3 628 31 627
3 630 629 624
3 624 159 630
3 629 160 624
3 630 20 629
3 632 631 626
3 626 161 632
3 631 159 626
3 632 40 631
3 635 633 634
3 634 73 635
3 633 160 634
3 635 105 633
3 629 272 634
3 634 160 629
3 272 73 634
3 629 20 272
3 382 628 633
3 633 105 382
3 628 160 633
3 382 31 628
3 273 385 635
3 635 73 273
3 385 105 635
3 273 6 385
3 638 636 637
3 637 137 638
3 636 159 637
3 638 72 636
3 631 496 637
3 637 159 631
3 496 137 637
3 631 40 496
3 265 630 636
3 636 72 265
3 630 159 636
3 265 20 630
3 497 268 638
3 638 137 497
3 268 72 638
3 497 10 268
3 641 639 640
3 640 102 641
3 639 161 640
3 641 136 639
3 627 372 640
3 640 161 627
3 372 102 640
3 627 31 372
3 489 632 639
3 639 136 489
3 632 161 639
3 489 40 632
3 373 492 641
3 641 102 373
3 492 136 641
3 373 2 492
