# vtk DataFile Version 3.0
this file was written using fslvtkio
ASCII
DATASET POLYDATA
POINTS 642 float
131.229 128.871 105.948
121.743 127.928 105.146
126.799 121.639 105.013
135.453 119.469 105.249
130.818 124.532 110.738
132.527 124.404 101.333
125.869 124.246 100.669
125.796 124.636 110.234
125.548 133.09 109.78
131.25 116.989 108.666
131.605 117.135 101.724
126.014 131.724 102.481
125.063 128.92 111.135
128.384 129.474 111.35
128.571 124.192 112.451
128.801 120.801 110.01
132.122 119.721 111.203
125.5 128.014 101.559
129.449 124.097 100.823
129.594 128.476 101.64
129.035 120.697 101.067
133.203 119.867 101.081
133.617 121.245 108.475
131.145 127.291 108.658
133.954 124.392 105.585
135.058 121.366 102.479
132.457 127.345 103.066
123.202 127.317 108.466
126.511 123.28 107.589
123.444 124.443 104.883
122.512 126.299 101.688
125.604 122.651 102.473
128.727 131.398 104.123
128.276 131.974 107.837
124.473 134.472 105.508
122.19 130.98 103.235
122.076 131.571 107.378
135.932 115.605 101.999
131.607 115.605 104.835
134.763 116.039 107.511
128.955 118.806 103.39
129.19 119.11 106.724
126.736 129.5 111.863
128.458 127.028 112.524
126.684 126.633 112.173
129.974 124.398 112.138
129.598 127.037 111.192
127.133 131.636 110.915
125.093 131.139 110.462
125.037 126.569 110.958
126.95 124.423 111.523
128.355 122.329 111.52
130.399 122.008 112.477
130.224 119.892 111.283
131.56 122.195 111.137
127.332 122.856 110.051
130.026 119.016 109.266
131.705 117.915 110.399
127.472 126.294 101
129.372 126.318 101.189
127.675 128.167 101.566
131.029 126.459 101.366
130.98 124.191 101.107
127.69 124.228 100.674
125.715 126.154 100.848
125.918 129.744 102.135
127.86 130.161 102.074
131.104 120.273 100.855
131.234 122.006 100.882
129.106 122.415 100.794
132.731 122.139 101.108
132.462 118.386 101.209
130.353 118.937 101.418
127.309 122.553 100.892
132.609 124.378 108.637
132.662 125.751 107.254
133.848 123.074 107.252
132.545 126.615 105.77
131.3 128.203 107.366
130.952 125.965 109.736
132.341 122.982 109.692
134.599 120.405 106.981
134.794 122.018 105.543
134.749 123.164 103.991
133.339 125.859 104.274
134.107 124.59 102.75
131.79 128.15 104.487
135.496 120.582 103.881
133.949 123.083 101.718
132.762 126.111 101.916
124.718 125.266 107.999
124.861 123.989 106.47
123.503 125.76 106.723
125.134 123.185 105.014
126.505 122.336 106.304
126.249 124.002 108.874
124.421 125.986 109.444
122.507 127.457 106.759
122.499 126.048 104.958
122.617 125.004 103.212
124.323 123.454 103.554
123.505 124.132 101.795
126.252 122.057 103.734
121.825 126.961 103.35
124.04 125.276 100.857
125.525 123.223 101.325
128.242 132.092 105.863
126.585 133.997 106.951
126.528 133.564 104.6
124.838 134.19 107.966
127.163 132.963 109.066
129.761 130.467 106.902
130.197 130.296 105.042
127.519 131.853 103.104
124.975 133.452 103.324
123.02 133.364 103.704
122.745 133.729 106.588
121.133 131.744 105.065
123.637 132.418 108.773
124.174 131.329 102.624
121.285 129.269 104.123
121.544 129.657 106.37
133.655 114.175 103.109
133.485 114.4 106.193
135.941 114.991 104.831
132.983 115.929 108.676
131.378 116.209 106.777
131.42 115.982 102.909
133.485 116.076 101.566
135.988 117.55 103.906
135.231 117.872 106.343
129.028 118.733 105.018
130.234 117.063 105.775
130.187 116.77 103.924
130.123 118.019 107.727
128.047 120.417 105.845
127.935 120.411 104.186
129.953 117.861 102.361
129.698 128.462 109.959
128.374 130.805 109.621
129.741 129.75 108.36
130.785 129.489 103.518
129.456 130.314 102.58
131.324 128.025 102.017
133.409 117.507 109.616
132.814 120.459 109.848
134.25 118.568 108.13
135.781 118.396 102.395
134.283 120.638 101.493
134.567 117.538 101.235
123.472 130.38 109.312
123.857 128.044 109.957
122.358 129.352 107.917
122.328 128.542 102.702
123.985 127.117 101.389
123.901 129.458 102.428
127.834 121.288 107.116
127.682 122.103 108.708
128.978 120.186 108.269
128.736 119.75 102.102
127.231 121.61 101.71
127.473 120.919 102.916
127.595 128.286 112.359
127.547 126.901 112.422
126.707 128.08 112.071
127.613 125.491 112.398
128.39 125.681 112.627
128.391 128.346 112.102
127.68 129.516 111.959
125.931 129.158 111.574
125.912 127.862 111.753
129.163 125.766 112.481
129.04 127.101 111.941
129.663 125.826 111.8
128.956 128.239 111.406
129.264 124.44 112.558
130.346 124.624 111.461
130.16 125.801 111.065
126.918 130.631 111.626
125.871 130.359 111.28
126.113 131.466 110.908
125.027 130.059 110.846
127.748 130.606 111.241
126.359 132.51 110.488
125.302 132.205 110.264
125.803 126.725 111.654
126.727 125.474 111.973
125.911 125.524 111.356
127.697 124.354 112.09
125.111 127.697 111.241
125.381 125.438 110.73
126.321 124.583 110.944
129.307 122.093 112.173
130.214 120.86 112.106
129.303 121.117 111.591
131.167 119.797 111.611
131.241 120.901 112.041
129.476 123.054 112.589
128.419 123.162 112.117
128.653 121.398 110.904
129.431 120.305 110.799
131.049 122.202 111.987
130.172 123.366 112.471
130.823 123.446 111.624
131.804 121.037 111.361
131.204 123.38 110.919
127.633 123.372 111.527
127.863 122.447 110.759
127.083 123.618 110.706
128.112 121.758 110.125
126.586 123.907 110.166
130.048 119.467 110.281
130.957 118.954 110.92
130.761 118.485 109.991
132.011 118.706 111.03
129.404 119.885 109.76
130.65 117.964 109.179
131.369 117.484 109.638
128.449 126.255 101.133
128.544 127.284 101.309
127.574 127.23 101.207
128.653 128.233 101.588
129.431 127.402 101.387
129.285 125.249 100.985
128.465 125.306 100.912
126.577 127.234 101.19
126.68 128.015 101.517
130.182 126.417 101.238
130.103 125.197 101.11
130.965 125.32 101.227
130.173 124.142 100.974
130.284 127.473 101.49
131.774 125.403 101.395
131.764 124.255 101.24
127.612 125.275 100.787
126.567 126.332 100.924
126.725 125.249 100.699
125.614 127.118 101.166
128.535 124.327 100.739
126.785 124.283 100.617
125.875 125.147 100.683
126.749 128.941 101.81
127.78 129.12 101.828
126.901 129.971 102.06
128.705 129.274 101.848
125.798 128.777 101.858
125.982 130.759 102.312
126.948 130.968 102.292
131.166 121.145 100.771
130.133 122.212 100.864
130.079 121.325 100.771
129.289 123.255 100.771
130.293 123.032 100.875
132.21 120.984 100.827
132.146 120.087 100.898
130.036 120.536 100.885
129.191 121.47 100.846
130.967 123.158 100.995
131.99 122.049 100.911
131.801 123.184 101.129
132.99 121.014 101.013
132.537 123.274 101.271
131.769 119.397 101.006
130.636 119.635 101.094
131.35 118.681 101.18
129.743 119.849 101.223
132.853 119.12 101.093
132.01 117.726 101.354
130.989 118.029 101.517
128.244 122.398 100.853
128.402 123.35 100.71
127.441 123.32 100.665
128.244 121.63 101.003
126.576 123.47 100.711
132.641 125.117 107.951
133.354 124.467 107.231
133.272 123.749 107.95
133.87 123.871 106.492
133.369 125.002 106.507
131.954 126.419 108.008
131.92 125.746 108.535
133.175 122.942 108.587
133.697 122.315 107.961
132.653 126.135 106.495
131.984 126.944 107.349
131.984 127.362 106.605
131.315 127.7 108.023
133.269 125.474 105.73
131.972 127.746 105.857
131.307 128.535 106.635
131.757 125.194 109.127
132.49 123.694 109.168
131.608 124.552 109.745
133.065 122.106 109.099
131.141 126.56 109.141
130.833 125.311 110.313
131.546 123.793 110.21
134.203 121.792 107.187
134.304 122.636 106.415
134.715 121.372 106.355
134.369 123.249 105.637
134.125 120.886 107.768
135.061 120.085 106.143
135.141 120.799 105.481
134.119 124.597 104.188
133.777 125.348 103.538
134.468 123.958 103.406
133.404 125.927 102.947
133.003 126.551 103.581
133.661 125.112 104.9
134.371 123.87 104.789
134.929 122.454 103.214
134.63 123.116 102.669
132.632 126.98 104.318
132.942 126.149 105.056
132.29 127.4 105.076
132.154 127.716 103.779
131.565 128.458 105.248
134.734 122.693 104.818
135.086 121.913 103.929
135.146 121.373 104.719
135.294 121.021 103.129
135.495 120.065 104.645
134.152 123.862 102.165
133.547 125.361 102.284
133.45 124.625 101.702
132.798 126.636 102.487
134.609 122.306 102.062
133.223 123.749 101.491
132.626 125.282 101.569
124.837 124.53 107.229
124.129 124.811 106.573
124.096 125.523 107.375
123.509 125.038 105.894
124.097 124.29 105.777
125.637 123.781 107.155
125.498 124.335 107.782
123.885 126.176 108.17
123.427 126.438 107.6
124.879 123.554 105.774
125.711 123.26 106.485
125.809 122.827 105.748
126.443 122.854 106.969
124.239 123.822 105.021
125.981 122.503 104.995
126.542 121.958 105.608
125.467 124.673 108.493
124.546 125.668 108.703
125.247 125.009 109.235
123.736 126.628 108.929
126.342 123.754 108.187
125.979 124.349 109.566
125.12 125.342 109.937
122.985 126.593 106.792
122.962 125.84 105.871
122.469 126.72 105.888
122.934 125.165 105.007
122.875 127.328 107.682
122.09 127.654 105.909
122.058 126.951 105.022
123.384 124.105 103.416
123.868 123.678 102.682
122.989 124.481 102.498
124.414 123.405 102.094
124.859 123.128 102.857
123.796 123.897 104.229
123.013 124.668 104.037
122.362 125.483 102.36
122.78 125.024 101.665
125.296 122.851 103.593
124.7 123.311 104.321
125.695 122.618 104.31
125.915 122.403 103.089
126.527 121.85 104.406
122.595 125.431 104.169
122.158 125.881 103.222
122.091 126.415 104.159
122.059 126.576 102.482
121.747 127.393 104.274
123.584 124.658 101.181
124.438 123.718 101.454
124.642 124.24 100.954
125.448 122.973 101.894
123.144 125.76 101.2
125.05 124.788 100.748
125.672 123.675 100.94
127.311 133.103 106.317
126.506 133.912 105.742
127.393 132.938 105.317
125.546 134.253 105.04
125.634 134.499 106.262
127.418 133.033 107.31
128.118 132.233 106.822
128.269 131.994 104.922
127.554 132.604 104.368
125.949 134.39 107.494
126.944 133.417 108.016
126.17 134.047 108.762
127.672 132.496 108.374
124.752 134.452 106.854
125.074 133.661 108.973
126.447 133.29 109.65
129.042 131.43 106.424
129.115 131.283 105.417
129.942 130.478 105.948
129.387 130.996 104.63
128.954 131.345 107.334
130.539 129.684 106.46
130.748 129.575 105.54
126.985 132.753 103.707
125.786 133.688 103.959
126.276 132.797 103.081
124.676 134.202 104.272
128.046 131.727 103.7
126.963 131.803 102.684
125.5 132.506 102.681
122.728 133.745 105.111
121.789 133.066 105.683
121.927 132.899 104.487
121.465 131.923 106.167
122.145 132.751 106.897
123.611 134.232 106.039
123.666 134.106 104.483
122.406 132.303 103.414
121.463 131.679 103.981
123.007 133.121 107.696
123.767 134.015 107.242
124.02 133.483 108.449
122.781 132.101 108.021
124.539 132.742 109.408
124.063 133.537 103.454
123.383 132.422 102.909
124.575 132.432 102.697
123.103 131.386 102.915
125.115 131.463 102.488
121.021 130.623 104.499
121.12 130.747 105.835
121.23 129.51 105.251
121.576 130.804 106.797
121.515 130.338 103.643
121.466 128.5 104.659
121.672 128.743 105.802
133.515 114.009 104.684
134.934 113.632 105.724
135.057 113.612 103.803
135.474 115.023 106.163
134.522 114.579 106.863
132.609 114.734 105.281
132.662 114.532 104.034
135.012 114.359 102.49
136.117 114.7 103.332
133.384 115.026 107.452
132.463 115.247 106.474
132.268 115.823 107.632
131.673 115.799 105.791
134.067 115.566 108.079
131.904 116.442 108.654
131.165 116.7 107.657
132.477 115.016 102.999
133.727 114.971 102.203
132.382 115.954 102.153
134.777 115.43 101.686
131.778 115.455 103.797
131.346 116.547 102.23
132.498 116.658 101.604
136.101 116.161 104.208
135.599 116.378 105.696
135.66 117.784 105.182
135.157 116.682 106.82
136.313 116.184 102.963
135.701 118.565 104.576
135.294 118.796 105.869
129.585 117.772 105.327
130.274 116.796 104.816
129.574 117.707 104.487
130.953 116.012 104.256
130.963 116.236 105.313
129.662 118.047 106.181
129.13 118.81 105.829
129.072 118.618 104.2
129.54 117.769 103.726
130.874 116.582 106.212
130.128 117.541 106.642
130.649 117.105 107.249
129.73 118.483 107.101
130.632 117.505 108.316
128.559 119.592 105.458
128.527 119.537 104.547
127.984 120.34 104.983
128.497 119.581 103.816
128.615 119.722 106.28
127.439 121.023 105.399
127.389 121.054 104.617
130.007 117.329 103.206
130.746 116.168 103.444
130.572 116.848 102.636
129.411 118.188 102.902
130.709 117.511 101.977
129.052 129.634 109.844
129.052 130.241 108.966
129.807 129.002 109.119
128.994 130.858 108.117
128.359 131.375 108.749
128.392 130.177 110.523
128.981 128.917 110.652
130.43 127.929 109.269
130.492 128.559 108.586
127.756 131.894 109.302
127.757 131.199 110.33
127.186 132.428 110.07
129.619 127.793 110.567
130.429 127.218 109.787
130.259 126.487 110.43
130.573 128.921 107.913
129.736 130.181 107.66
130.554 129.318 107.145
130.213 130.034 103.012
130.448 129.222 102.188
131.186 128.853 102.683
130.484 128.324 101.811
129.602 129.411 101.996
129.152 130.953 103.321
129.87 130.546 103.871
131.712 128.449 103.262
132.017 127.747 102.438
128.748 130.181 102.222
128.515 131.111 102.866
127.801 131.035 102.466
130.452 129.987 104.309
131.325 128.817 104.006
130.998 129.153 104.841
132.095 127.095 101.944
131.133 127.293 101.615
131.907 126.257 101.58
133.19 119.009 109.779
133.588 119.442 109.025
133.882 117.928 108.88
133.942 119.934 108.347
133.267 120.787 109.161
132.501 120.027 110.526
132.849 118.588 110.443
134.134 116.58 108.695
134.595 117.212 107.924
132.622 121.746 109.746
132.204 121.292 110.589
131.916 122.628 110.382
132.564 117.725 110.349
133.305 116.567 109.369
132.104 116.944 109.49
134.792 117.974 107.275
134.399 119.571 107.585
134.905 119.151 106.732
135.202 119.345 101.74
134.66 118.937 101.28
135.508 117.748 101.56
133.855 118.803 101.196
133.794 120.252 101.291
134.71 120.943 101.905
135.467 119.92 102.431
136.104 116.898 102.26
135.319 116.403 101.431
133.534 121.452 101.207
134.186 121.929 101.558
133.274 122.663 101.401
135.613 119.827 103.152
135.984 117.972 103.106
135.723 119.261 104.009
134.164 116.667 101.319
133.397 118.155 101.268
132.847 117.348 101.396
123.683 129.219 109.64
123.137 128.799 108.923
122.817 129.938 108.657
122.768 128.334 108.224
123.445 127.713 109.229
124.419 128.415 110.628
124.325 129.602 110.282
122.746 131.061 108.335
122.084 130.465 107.639
123.895 126.848 109.674
124.363 127.305 110.52
124.647 126.152 110.235
124.254 130.607 110.002
123.477 131.414 109.035
124.373 131.774 109.72
121.938 129.479 107.187
122.513 128.177 107.437
122.07 128.444 106.539
123.095 127.895 101.941
123.887 128.315 101.904
123.062 129.062 102.521
124.663 128.65 101.966
124.686 127.591 101.518
123.186 126.806 101.42
122.437 127.442 102.134
122.248 129.776 103.095
123.06 130.316 102.806
124.878 126.627 101.037
123.973 126.134 101.028
124.971 125.628 100.833
121.966 127.669 102.874
121.776 129.023 103.37
121.691 128.075 103.816
124.018 130.387 102.558
125.005 129.383 102.203
125.095 130.441 102.41
127.777 121.737 107.904
128.4 121.151 108.547
128.427 120.726 107.651
128.916 120.463 109.165
128.221 121.476 109.382
127.199 122.722 108.074
127.193 122.285 107.356
128.479 120.205 106.935
129.013 119.747 107.443
127.524 122.501 109.384
127.002 123.168 108.662
126.765 123.504 109.471
127.14 121.818 106.715
127.908 120.795 106.453
127.202 121.413 105.96
129.523 119.211 107.721
129.458 119.653 108.708
130.058 118.582 108.437
128.015 120.703 101.879
127.261 121.313 102.297
128.118 120.296 102.54
126.559 121.814 102.696
126.351 122.123 102.112
128.103 121.108 101.34
128.847 120.229 101.529
128.828 119.282 102.749
128.295 119.926 103.186
126.272 122.421 101.566
127.289 122.019 101.229
126.405 122.892 101.009
129.432 119.391 101.714
129.281 118.798 102.275
130.094 118.385 101.815
127.828 120.638 103.531
126.85 121.571 103.281
127.148 121.308 103.968
POLYGONS 1280  5120
3 164 162 163
3 163 44 164
3 162 43 163
3 164 42 162
3 166 165 163
3 163 43 166
3 165 44 163
3 166 14 165
3 168 167 162
3 162 42 168
3 167 43 162
3 168 13 167
3 170 169 164
3 164 44 170
3 169 42 164
3 170 12 169
3 173 171 172
3 172 46 173
3 171 43 172
3 173 45 171
3 167 174 172
3 172 43 167
3 174 46 172
3 167 13 174
3 175 166 171
3 171 45 175
3 166 43 171
3 175 14 166
3 177 176 173
3 173 46 177
3 176 45 173
3 177 4 176
3 180 178 179
3 179 48 180
3 178 42 179
3 180 47 178
3 169 181 179
3 179 42 169
3 181 48 179
3 169 12 181
3 182 168 178
3 178 47 182
3 168 42 178
3 182 13 168
3 184 183 180
3 180 48 184
3 183 47 180
3 184 8 183
3 187 185 186
3 186 50 187
3 185 44 186
3 187 49 185
3 165 188 186
3 186 44 165
3 188 50 186
3 165 14 188
3 189 170 185
3 185 49 189
3 170 44 185
3 189 12 170
3 191 190 187
3 187 50 191
3 190 49 187
3 191 7 190
3 194 192 193
3 193 53 194
3 192 52 193
3 194 51 192
3 196 195 193
3 193 52 196
3 195 53 193
3 196 16 195
3 198 197 192
3 192 51 198
3 197 52 192
3 198 14 197
3 200 199 194
3 194 53 200
3 199 51 194
3 200 15 199
3 203 201 202
3 202 45 203
3 201 52 202
3 203 54 201
3 197 175 202
3 202 52 197
3 175 45 202
3 197 14 175
3 204 196 201
3 201 54 204
3 196 52 201
3 204 16 196
3 176 205 203
3 203 45 176
3 205 54 203
3 176 4 205
3 208 206 207
3 207 55 208
3 206 51 207
3 208 50 206
3 199 209 207
3 207 51 199
3 209 55 207
3 199 15 209
3 188 198 206
3 206 50 188
3 198 51 206
3 188 14 198
3 210 191 208
3 208 55 210
3 191 50 208
3 210 7 191
3 213 211 212
3 212 57 213
3 211 53 212
3 213 56 211
3 195 214 212
3 212 53 195
3 214 57 212
3 195 16 214
3 215 200 211
3 211 56 215
3 200 53 211
3 215 15 200
3 217 216 213
3 213 57 217
3 216 56 213
3 217 9 216
3 220 218 219
3 219 60 220
3 218 59 219
3 220 58 218
3 222 221 219
3 219 59 222
3 221 60 219
3 222 19 221
3 224 223 218
3 218 58 224
3 223 59 218
3 224 18 223
3 226 225 220
3 220 60 226
3 225 58 220
3 226 17 225
3 229 227 228
3 228 62 229
3 227 59 228
3 229 61 227
3 223 230 228
3 228 59 223
3 230 62 228
3 223 18 230
3 231 222 227
3 227 61 231
3 222 59 227
3 231 19 222
3 233 232 229
3 229 62 233
3 232 61 229
3 233 5 232
3 236 234 235
3 235 64 236
3 234 58 235
3 236 63 234
3 225 237 235
3 235 58 225
3 237 64 235
3 225 17 237
3 238 224 234
3 234 63 238
3 224 58 234
3 238 18 224
3 240 239 236
3 236 64 240
3 239 63 236
3 240 6 239
3 243 241 242
3 242 66 243
3 241 60 242
3 243 65 241
3 221 244 242
3 242 60 221
3 244 66 242
3 221 19 244
3 245 226 241
3 241 65 245
3 226 60 241
3 245 17 226
3 247 246 243
3 243 66 247
3 246 65 243
3 247 11 246
3 250 248 249
3 249 69 250
3 248 68 249
3 250 67 248
3 252 251 249
3 249 68 252
3 251 69 249
3 252 18 251
3 254 253 248
3 248 67 254
3 253 68 248
3 254 21 253
3 256 255 250
3 250 69 256
3 255 67 250
3 256 20 255
3 259 257 258
3 258 70 259
3 257 68 258
3 259 62 257
3 253 260 258
3 258 68 253
3 260 70 258
3 253 21 260
3 230 252 257
3 257 62 230
3 252 68 257
3 230 18 252
3 261 233 259
3 259 70 261
3 233 62 259
3 261 5 233
3 264 262 263
3 263 72 264
3 262 67 263
3 264 71 262
3 255 265 263
3 263 67 255
3 265 72 263
3 255 20 265
3 266 254 262
3 262 71 266
3 254 67 262
3 266 21 254
3 268 267 264
3 264 72 268
3 267 71 264
3 268 10 267
3 271 269 270
3 270 63 271
3 269 69 270
3 271 73 269
3 251 238 270
3 270 69 251
3 238 63 270
3 251 18 238
3 272 256 269
3 269 73 272
3 256 69 269
3 272 20 256
3 239 273 271
3 271 63 239
3 273 73 271
3 239 6 273
3 276 274 275
3 275 76 276
3 274 75 275
3 276 74 274
3 278 277 275
3 275 75 278
3 277 76 275
3 278 24 277
3 280 279 274
3 274 74 280
3 279 75 274
3 280 23 279
3 282 281 276
3 276 76 282
3 281 74 276
3 282 22 281
3 285 283 284
3 284 78 285
3 283 75 284
3 285 77 283
3 279 286 284
3 284 75 279
3 286 78 284
3 279 23 286
3 287 278 283
3 283 77 287
3 278 75 283
3 287 24 278
3 289 288 285
3 285 78 289
3 288 77 285
3 289 0 288
3 292 290 291
3 291 80 292
3 290 74 291
3 292 79 290
3 281 293 291
3 291 74 281
3 293 80 291
3 281 22 293
3 294 280 290
3 290 79 294
3 280 74 290
3 294 23 280
3 296 295 292
3 292 80 296
3 295 79 292
3 296 4 295
3 299 297 298
3 298 82 299
3 297 76 298
3 299 81 297
3 277 300 298
3 298 76 277
3 300 82 298
3 277 24 300
3 301 282 297
3 297 81 301
3 282 76 297
3 301 22 282
3 303 302 299
3 299 82 303
3 302 81 299
3 303 3 302
3 306 304 305
3 305 85 306
3 304 84 305
3 306 83 304
3 308 307 305
3 305 84 308
3 307 85 305
3 308 26 307
3 310 309 304
3 304 83 310
3 309 84 304
3 310 24 309
3 312 311 306
3 306 85 312
3 311 83 306
3 312 25 311
3 315 313 314
3 314 77 315
3 313 84 314
3 315 86 313
3 309 287 314
3 314 84 309
3 287 77 314
3 309 24 287
3 316 308 313
3 313 86 316
3 308 84 313
3 316 26 308
3 288 317 315
3 315 77 288
3 317 86 315
3 288 0 317
3 320 318 319
3 319 87 320
3 318 83 319
3 320 82 318
3 311 321 319
3 319 83 311
3 321 87 319
3 311 25 321
3 300 310 318
3 318 82 300
3 310 83 318
3 300 24 310
3 322 303 320
3 320 87 322
3 303 82 320
3 322 3 303
3 325 323 324
3 324 89 325
3 323 85 324
3 325 88 323
3 307 326 324
3 324 85 307
3 326 89 324
3 307 26 326
3 327 312 323
3 323 88 327
3 312 85 323
3 327 25 312
3 329 328 325
3 325 89 329
3 328 88 325
3 329 5 328
3 332 330 331
3 331 92 332
3 330 91 331
3 332 90 330
3 334 333 331
3 331 91 334
3 333 92 331
3 334 29 333
3 336 335 330
3 330 90 336
3 335 91 330
3 336 28 335
3 338 337 332
3 332 92 338
3 337 90 332
3 338 27 337
3 341 339 340
3 340 94 341
3 339 91 340
3 341 93 339
3 335 342 340
3 340 91 335
3 342 94 340
3 335 28 342
3 343 334 339
3 339 93 343
3 334 91 339
3 343 29 334
3 345 344 341
3 341 94 345
3 344 93 341
3 345 2 344
3 348 346 347
3 347 96 348
3 346 90 347
3 348 95 346
3 337 349 347
3 347 90 337
3 349 96 347
3 337 27 349
3 350 336 346
3 346 95 350
3 336 90 346
3 350 28 336
3 352 351 348
3 348 96 352
3 351 95 348
3 352 7 351
3 355 353 354
3 354 98 355
3 353 92 354
3 355 97 353
3 333 356 354
3 354 92 333
3 356 98 354
3 333 29 356
3 357 338 353
3 353 97 357
3 338 92 353
3 357 27 338
3 359 358 355
3 355 98 359
3 358 97 355
3 359 1 358
3 362 360 361
3 361 101 362
3 360 100 361
3 362 99 360
3 364 363 361
3 361 100 364
3 363 101 361
3 364 31 363
3 366 365 360
3 360 99 366
3 365 100 360
3 366 29 365
3 368 367 362
3 362 101 368
3 367 99 362
3 368 30 367
3 371 369 370
3 370 93 371
3 369 100 370
3 371 102 369
3 365 343 370
3 370 100 365
3 343 93 370
3 365 29 343
3 372 364 369
3 369 102 372
3 364 100 369
3 372 31 364
3 344 373 371
3 371 93 344
3 373 102 371
3 344 2 373
3 376 374 375
3 375 103 376
3 374 99 375
3 376 98 374
3 367 377 375
3 375 99 367
3 377 103 375
3 367 30 377
3 356 366 374
3 374 98 356
3 366 99 374
3 356 29 366
3 378 359 376
3 376 103 378
3 359 98 376
3 378 1 359
3 381 379 380
3 380 105 381
3 379 101 380
3 381 104 379
3 363 382 380
3 380 101 363
3 382 105 380
3 363 31 382
3 383 368 379
3 379 104 383
3 368 101 379
3 383 30 368
3 385 384 381
3 381 105 385
3 384 104 381
3 385 6 384
3 388 386 387
3 387 108 388
3 386 107 387
3 388 106 386
3 390 389 387
3 387 107 390
3 389 108 387
3 390 34 389
3 392 391 386
3 386 106 392
3 391 107 386
3 392 33 391
3 394 393 388
3 388 108 394
3 393 106 388
3 394 32 393
3 397 395 396
3 396 110 397
3 395 107 396
3 397 109 395
3 391 398 396
3 396 107 391
3 398 110 396
3 391 33 398
3 399 390 395
3 395 109 399
3 390 107 395
3 399 34 390
3 401 400 397
3 397 110 401
3 400 109 397
3 401 8 400
3 404 402 403
3 403 112 404
3 402 106 403
3 404 111 402
3 393 405 403
3 403 106 393
3 405 112 403
3 393 32 405
3 406 392 402
3 402 111 406
3 392 106 402
3 406 33 392
3 408 407 404
3 404 112 408
3 407 111 404
3 408 0 407
3 411 409 410
3 410 114 411
3 409 108 410
3 411 113 409
3 389 412 410
3 410 108 389
3 412 114 410
3 389 34 412
3 413 394 409
3 409 113 413
3 394 108 409
3 413 32 394
3 415 414 411
3 411 114 415
3 414 113 411
3 415 11 414
3 418 416 417
3 417 117 418
3 416 116 417
3 418 115 416
3 420 419 417
3 417 116 420
3 419 117 417
3 420 36 419
3 422 421 416
3 416 115 422
3 421 116 416
3 422 34 421
3 424 423 418
3 418 117 424
3 423 115 418
3 424 35 423
3 427 425 426
3 426 109 427
3 425 116 426
3 427 118 425
3 421 399 426
3 426 116 421
3 399 109 426
3 421 34 399
3 428 420 425
3 425 118 428
3 420 116 425
3 428 36 420
3 400 429 427
3 427 109 400
3 429 118 427
3 400 8 429
3 432 430 431
3 431 119 432
3 430 115 431
3 432 114 430
3 423 433 431
3 431 115 423
3 433 119 431
3 423 35 433
3 412 422 430
3 430 114 412
3 422 115 430
3 412 34 422
3 434 415 432
3 432 119 434
3 415 114 432
3 434 11 415
3 437 435 436
3 436 121 437
3 435 117 436
3 437 120 435
3 419 438 436
3 436 117 419
3 438 121 436
3 419 36 438
3 439 424 435
3 435 120 439
3 424 117 435
3 439 35 424
3 441 440 437
3 437 121 441
3 440 120 437
3 441 1 440
3 444 442 443
3 443 124 444
3 442 123 443
3 444 122 442
3 446 445 443
3 443 123 446
3 445 124 443
3 446 39 445
3 448 447 442
3 442 122 448
3 447 123 442
3 448 38 447
3 450 449 444
3 444 124 450
3 449 122 444
3 450 37 449
3 453 451 452
3 452 126 453
3 451 123 452
3 453 125 451
3 447 454 452
3 452 123 447
3 454 126 452
3 447 38 454
3 455 446 451
3 451 125 455
3 446 123 451
3 455 39 446
3 457 456 453
3 453 126 457
3 456 125 453
3 457 9 456
3 460 458 459
3 459 128 460
3 458 122 459
3 460 127 458
3 449 461 459
3 459 122 449
3 461 128 459
3 449 37 461
3 462 448 458
3 458 127 462
3 448 122 458
3 462 38 448
3 464 463 460
3 460 128 464
3 463 127 460
3 464 10 463
3 467 465 466
3 466 130 467
3 465 124 466
3 467 129 465
3 445 468 466
3 466 124 445
3 468 130 466
3 445 39 468
3 469 450 465
3 465 129 469
3 450 124 465
3 469 37 450
3 471 470 467
3 467 130 471
3 470 129 467
3 471 3 470
3 474 472 473
3 473 133 474
3 472 132 473
3 474 131 472
3 476 475 473
3 473 132 476
3 475 133 473
3 476 38 475
3 478 477 472
3 472 131 478
3 477 132 472
3 478 41 477
3 480 479 474
3 474 133 480
3 479 131 474
3 480 40 479
3 483 481 482
3 482 134 483
3 481 132 482
3 483 126 481
3 477 484 482
3 482 132 477
3 484 134 482
3 477 41 484
3 454 476 481
3 481 126 454
3 476 132 481
3 454 38 476
3 485 457 483
3 483 134 485
3 457 126 483
3 485 9 457
3 488 486 487
3 487 136 488
3 486 131 487
3 488 135 486
3 479 489 487
3 487 131 479
3 489 136 487
3 479 40 489
3 490 478 486
3 486 135 490
3 478 131 486
3 490 41 478
3 492 491 488
3 488 136 492
3 491 135 488
3 492 2 491
3 495 493 494
3 494 127 495
3 493 133 494
3 495 137 493
3 475 462 494
3 494 133 475
3 462 127 494
3 475 38 462
3 496 480 493
3 493 137 496
3 480 133 493
3 496 40 480
3 463 497 495
3 495 127 463
3 497 137 495
3 463 10 497
3 500 498 499
3 499 140 500
3 498 139 499
3 500 138 498
3 502 501 499
3 499 139 502
3 501 140 499
3 502 33 501
3 504 503 498
3 498 138 504
3 503 139 498
3 504 13 503
3 506 505 500
3 500 140 506
3 505 138 500
3 506 23 505
3 509 507 508
3 508 47 509
3 507 139 508
3 509 110 507
3 503 182 508
3 508 139 503
3 182 47 508
3 503 13 182
3 398 502 507
3 507 110 398
3 502 139 507
3 398 33 502
3 183 401 509
3 509 47 183
3 401 110 509
3 183 8 401
3 512 510 511
3 511 79 512
3 510 138 511
3 512 46 510
3 505 294 511
3 511 138 505
3 294 79 511
3 505 23 294
3 174 504 510
3 510 46 174
3 504 138 510
3 174 13 504
3 295 177 512
3 512 79 295
3 177 46 512
3 295 4 177
3 515 513 514
3 514 111 515
3 513 140 514
3 515 78 513
3 501 406 514
3 514 140 501
3 406 111 514
3 501 33 406
3 286 506 513
3 513 78 286
3 506 140 513
3 286 23 506
3 407 289 515
3 515 111 407
3 289 78 515
3 407 0 289
3 518 516 517
3 517 143 518
3 516 142 517
3 518 141 516
3 520 519 517
3 517 142 520
3 519 143 517
3 520 19 519
3 522 521 516
3 516 141 522
3 521 142 516
3 522 32 521
3 524 523 518
3 518 143 524
3 523 141 518
3 524 26 523
3 527 525 526
3 526 113 527
3 525 142 526
3 527 66 525
3 521 413 526
3 526 142 521
3 413 113 526
3 521 32 413
3 244 520 525
3 525 66 244
3 520 142 525
3 244 19 520
3 414 247 527
3 527 113 414
3 247 66 527
3 414 11 247
3 530 528 529
3 529 86 530
3 528 141 529
3 530 112 528
3 523 316 529
3 529 141 523
3 316 86 529
3 523 26 316
3 405 522 528
3 528 112 405
3 522 141 528
3 405 32 522
3 317 408 530
3 530 86 317
3 408 112 530
3 317 0 408
3 533 531 532
3 532 61 533
3 531 143 532
3 533 89 531
3 519 231 532
3 532 143 519
3 231 61 532
3 519 19 231
3 326 524 531
3 531 89 326
3 524 143 531
3 326 26 524
3 232 329 533
3 533 61 232
3 329 89 533
3 232 5 329
3 536 534 535
3 535 146 536
3 534 145 535
3 536 144 534
3 538 537 535
3 535 145 538
3 537 146 535
3 538 22 537
3 540 539 534
3 534 144 540
3 539 145 534
3 540 16 539
3 542 541 536
3 536 146 542
3 541 144 536
3 542 39 541
3 545 543 544
3 544 54 545
3 543 145 544
3 545 80 543
3 539 204 544
3 544 145 539
3 204 54 544
3 539 16 204
3 293 538 543
3 543 80 293
3 538 145 543
3 293 22 538
3 205 296 545
3 545 54 205
3 296 80 545
3 205 4 296
3 548 546 547
3 547 125 548
3 546 144 547
3 548 57 546
3 541 455 547
3 547 144 541
3 455 125 547
3 541 39 455
3 214 540 546
3 546 57 214
3 540 144 546
3 214 16 540
3 456 217 548
3 548 125 456
3 217 57 548
3 456 9 217
3 551 549 550
3 550 81 551
3 549 146 550
3 551 130 549
3 537 301 550
3 550 146 537
3 301 81 550
3 537 22 301
3 468 542 549
3 549 130 468
3 542 146 549
3 468 39 542
3 302 471 551
3 551 81 302
3 471 130 551
3 302 3 471
3 554 552 553
3 553 149 554
3 552 148 553
3 554 147 552
3 556 555 553
3 553 148 556
3 555 149 553
3 556 21 555
3 558 557 552
3 552 147 558
3 557 148 552
3 558 25 557
3 560 559 554
3 554 149 560
3 559 147 554
3 560 37 559
3 563 561 562
3 562 88 563
3 561 148 562
3 563 70 561
3 557 327 562
3 562 148 557
3 327 88 562
3 557 25 327
3 260 556 561
3 561 70 260
3 556 148 561
3 260 21 556
3 328 261 563
3 563 88 328
3 261 70 563
3 328 5 261
3 566 564 565
3 565 129 566
3 564 147 565
3 566 87 564
3 559 469 565
3 565 147 559
3 469 129 565
3 559 37 469
3 321 558 564
3 564 87 321
3 558 147 564
3 321 25 558
3 470 322 566
3 566 129 470
3 322 87 566
3 470 3 322
3 569 567 568
3 568 71 569
3 567 149 568
3 569 128 567
3 555 266 568
3 568 149 555
3 266 71 568
3 555 21 266
3 461 560 567
3 567 128 461
3 560 149 567
3 461 37 560
3 267 464 569
3 569 71 267
3 464 128 569
3 267 10 464
3 572 570 571
3 571 152 572
3 570 151 571
3 572 150 570
3 574 573 571
3 571 151 574
3 573 152 571
3 574 27 573
3 576 575 570
3 570 150 576
3 575 151 570
3 576 12 575
3 578 577 572
3 572 152 578
3 577 150 572
3 578 36 577
3 581 579 580
3 580 49 581
3 579 151 580
3 581 96 579
3 575 189 580
3 580 151 575
3 189 49 580
3 575 12 189
3 349 574 579
3 579 96 349
3 574 151 579
3 349 27 574
3 190 352 581
3 581 49 190
3 352 96 581
3 190 7 352
3 584 582 583
3 583 118 584
3 582 150 583
3 584 48 582
3 577 428 583
3 583 150 577
3 428 118 583
3 577 36 428
3 181 576 582
3 582 48 181
3 576 150 582
3 181 12 576
3 429 184 584
3 584 118 429
3 184 48 584
3 429 8 184
3 587 585 586
3 586 97 587
3 585 152 586
3 587 121 585
3 573 357 586
3 586 152 573
3 357 97 586
3 573 27 357
3 438 578 585
3 585 121 438
3 578 152 585
3 438 36 578
3 358 441 587
3 587 97 358
3 441 121 587
3 358 1 441
3 590 588 589
3 589 155 590
3 588 154 589
3 590 153 588
3 592 591 589
3 589 154 592
3 591 155 589
3 592 17 591
3 594 593 588
3 588 153 594
3 593 154 588
3 594 30 593
3 596 595 590
3 590 155 596
3 595 153 590
3 596 35 595
3 599 597 598
3 598 104 599
3 597 154 598
3 599 64 597
3 593 383 598
3 598 154 593
3 383 104 598
3 593 30 383
3 237 592 597
3 597 64 237
3 592 154 597
3 237 17 592
3 384 240 599
3 599 104 384
3 240 64 599
3 384 6 240
3 602 600 601
3 601 120 602
3 600 153 601
3 602 103 600
3 595 439 601
3 601 153 595
3 439 120 601
3 595 35 439
3 377 594 600
3 600 103 377
3 594 153 600
3 377 30 594
3 440 378 602
3 602 120 440
3 378 103 602
3 440 1 378
3 605 603 604
3 604 65 605
3 603 155 604
3 605 119 603
3 591 245 604
3 604 155 591
3 245 65 604
3 591 17 245
3 433 596 603
3 603 119 433
3 596 155 603
3 433 35 596
3 246 434 605
3 605 65 246
3 434 119 605
3 246 11 434
3 608 606 607
3 607 158 608
3 606 157 607
3 608 156 606
3 610 609 607
3 607 157 610
3 609 158 607
3 610 15 609
3 612 611 606
3 606 156 612
3 611 157 606
3 612 28 611
3 614 613 608
3 608 158 614
3 613 156 608
3 614 41 613
3 617 615 616
3 616 95 617
3 615 157 616
3 617 55 615
3 611 350 616
3 616 157 611
3 350 95 616
3 611 28 350
3 209 610 615
3 615 55 209
3 610 157 615
3 209 15 610
3 351 210 617
3 617 95 351
3 210 55 617
3 351 7 210
3 620 618 619
3 619 135 620
3 618 156 619
3 620 94 618
3 613 490 619
3 619 156 613
3 490 135 619
3 613 41 490
3 342 612 618
3 618 94 342
3 612 156 618
3 342 28 612
3 491 345 620
3 620 135 491
3 345 94 620
3 491 2 345
3 623 621 622
3 622 56 623
3 621 158 622
3 623 134 621
3 609 215 622
3 622 158 609
3 215 56 622
3 609 15 215
3 484 614 621
3 621 134 484
3 614 158 621
3 484 41 614
3 216 485 623
3 623 56 216
3 485 134 623
3 216 9 485
3 626 624 625
3 625 161 626
3 624 160 625
3 626 159 624
3 628 627 625
3 625 160 628
3 627 161 625
3 628 31 627
3 630 629 624
3 624 159 630
3 629 160 624
3 630 20 629
3 632 631 626
3 626 161 632
3 631 159 626
3 632 40 631
3 635 633 634
3 634 73 635
3 633 160 634
3 635 105 633
3 629 272 634
3 634 160 629
3 272 73 634
3 629 20 272
3 382 628 633
3 633 105 382
3 628 160 633
3 382 31 628
3 273 385 635
3 635 73 273
3 385 105 635
3 273 6 385
3 638 636 637
3 637 137 638
3 636 159 637
3 638 72 636
3 631 496 637
3 637 159 631
3 496 137 637
3 631 40 496
3 265 630 636
3 636 72 265
3 630 159 636
3 265 20 630
3 497 268 638
3 638 137 497
3 268 72 638
3 497 10 268
3 641 639 640
3 640 102 641
3 639 161 640
3 641 136 639
3 627 372 640
3 640 161 627
3 372 102 640
3 627 31 372
3 489 632 639
3 639 136 489
3 632 161 639
3 489 40 632
3 373 492 641
3 641 102 373
3 492 136 641
3 373 2 492
