# vtk DataFile Version 3.0
this file was written using fslvtkio
ASCII
DATASET POLYDATA
POINTS 1068 float
96.0372 143.272 103.251
95.072 143.009 104.504
95.6098 142.081 103.845
96.5539 141.862 103.044
97.2689 143.429 102.644
97.7246 142.078 102.673
98.5887 143.47 102.487
99.0664 142.205 102.841
99.7521 143.382 102.775
100.303 142.398 103.297
95.6739 144.281 104.243
94.6273 143.747 105.497
96.7934 144.764 103.343
98.1256 144.908 102.867
99.6046 144.74 102.887
100.761 143.97 103.33
95.2293 145.049 105.198
94.3839 144.855 106.358
96.3102 145.752 104.373
97.6441 146.162 103.881
99.0671 146.044 103.673
100.39 145.353 103.908
95.6232 146.134 105.606
97.0249 146.854 104.976
98.5767 147.08 104.854
99.7531 146.563 104.747
100.517 137.625 101.986
99.5076 136.7 102.645
100.452 136.065 102.1
101.581 136.463 101.997
101.782 137.775 102.534
102.632 136.989 102.689
99.1929 138.152 102.382
98.212 138.53 103.262
98.5912 137.287 103.542
100.307 139.017 102.539
101.362 138.895 103.045
102.602 138.352 103.402
98.3473 139.76 102.634
97.3663 139.343 103.706
99.5422 139.745 102.607
100.892 140.247 103.297
102.257 139.684 103.925
95.9747 140.917 103.959
94.9445 141.591 104.818
95.4921 140.489 105.28
96.3102 139.846 104.579
97.116 140.545 103.221
98.3647 141.163 102.845
99.7175 141.05 103.129
100.931 141.575 103.865
101.922 140.832 104.267
94.3307 142.291 105.769
101.516 142.985 103.955
93.9331 143.186 106.673
101.537 144.536 104.249
93.6259 144.113 107.468
100.75 145.981 105.051
94.8107 146.146 106.767
93.9807 145.465 107.842
95.9003 147.087 106.309
97.3209 147.5 105.981
98.5691 147.532 106.139
99.6638 147.123 106.207
94.9493 146.894 107.699
96.2819 147.457 107.386
97.5262 147.597 107.127
103.952 132.757 102.269
102.591 132.288 102.702
103.466 131.341 103.364
104.663 131.259 102.912
105.208 132.947 103.06
105.712 131.729 103.274
106.088 132.943 103.729
106.367 131.865 104.262
102.535 133.69 101.942
101.039 134.101 102.56
101.675 133.119 103.235
103.688 134.512 102.389
104.77 134.508 102.989
105.825 134.355 103.765
106.365 133.269 104.687
101.412 134.98 102.026
100.068 135.277 102.927
102.74 135.501 102.344
104.096 136.03 103.143
105.306 135.898 103.91
106.278 135.118 104.739
99.2565 136.107 103.963
103.61 137.317 103.517
104.821 137.438 104.379
105.967 136.867 104.991
97.6492 137.924 104.502
98.4104 136.753 104.901
103.277 138.951 104.287
104.27 138.784 104.841
105.626 138.334 105.705
96.9424 138.834 104.828
96.2462 139.236 105.873
96.988 138.24 105.958
103.249 140.598 104.882
104.32 140.219 105.477
105.147 139.425 105.819
94.7032 141.005 106.26
95.431 139.867 106.55
102.2 141.982 104.664
103.104 142.076 105.428
104.043 141.439 106.044
93.9991 141.701 107.143
102.436 143.538 104.9
102.987 143.38 105.928
103.662 142.606 106.348
93.588 142.592 108.032
101.833 145.105 105.387
102.547 144.607 106.184
93.3828 144.299 108.613
100.875 146.341 106.21
101.611 145.648 106.582
93.6853 145.602 109.292
99.6019 147.051 107.834
98.5299 147.454 107.319
100.654 146.527 107.418
94.4351 146.661 108.876
95.7344 147.332 108.861
97.0981 147.445 108.468
102.4 132.086 104.294
103.329 130.659 104.531
104.439 130.086 103.995
105.673 130.565 103.954
106.205 131.405 105.276
100.61 134.171 103.939
101.505 133.26 104.554
106.167 132.959 105.728
99.8766 135.071 104.439
106.434 134.476 105.757
106.554 135.877 105.794
106.397 135.07 107.006
99.2052 135.706 105.453
106.476 137.248 106.105
106.561 136.361 107.193
97.6 137.237 105.897
98.2511 136.43 106.27
106.47 138.007 106.759
106.444 137.433 107.869
96.1069 138.648 107.147
96.8346 137.609 107.197
105.195 140.498 106.607
105.951 139.545 106.817
106.422 138.651 107.39
94.5646 140.331 107.598
95.348 139.188 107.916
104.987 141.266 107.084
105.563 140.802 108.027
93.8751 140.986 108.423
103.474 143.717 107.024
104.14 142.592 107.224
104.812 141.896 107.664
93.2656 142.794 109.126
102.676 144.714 107.352
103.424 143.879 108.282
93.0832 144.24 109.804
102.424 144.819 108.276
101.576 145.653 107.658
93.402 145.3 110.514
98.3682 147.278 108.397
99.231 146.829 108.821
100.36 146.266 108.821
94.1615 146.431 110.411
95.3299 147 110.155
96.6682 147.123 109.82
97.9172 147.024 109.422
102.729 131.331 105.232
103.099 130.331 105.786
104.111 129.593 105.317
105.547 129.961 105.305
105.613 131.589 106.635
100.798 133.813 105.503
101.645 132.821 105.72
102.213 131.822 106.173
105.844 132.855 106.944
106.188 133.898 106.646
105.937 134.009 107.831
99.9252 134.58 105.83
100.341 133.836 106.924
106.107 135.14 108.364
98.9467 135.467 106.827
106.191 136.226 108.792
97.4244 136.684 107.57
98.2057 136.116 107.178
106.126 137.216 109.289
96.0896 137.85 108.467
96.7686 137.167 108.151
106.011 139.602 108.161
106.098 138.377 108.956
94.556 139.432 108.982
95.3321 138.543 108.865
105.623 140.219 108.94
105.582 139.434 109.584
93.7345 140.488 109.384
93.2714 140.639 110.577
93.9275 139.673 110.043
104.155 142.723 108.421
104.902 141.668 108.926
105.159 140.721 109.744
93.2979 141.752 109.688
92.9182 141.667 111.068
103.695 143.425 109.097
104.097 142.75 109.606
92.98 143.029 110.464
92.7302 142.685 111.74
101.522 145.447 108.704
102.498 144.486 109.226
103.049 143.813 109.933
92.9662 144.249 111.219
92.8255 143.822 112.363
100.025 145.815 110.212
99.0144 146.445 109.746
101.06 145.367 109.608
93.5043 145.563 111.695
94.4138 146.317 111.871
95.3278 146.657 111.416
96.5444 146.774 111.024
97.7375 146.647 110.543
104.484 129.202 106.467
103.095 129.595 106.805
103.579 128.784 107.939
104.753 129.384 107.746
105.379 130.177 106.703
105.006 130.682 108.114
102.551 130.711 106.817
105.097 131.711 108.529
101.162 132.911 107.281
101.846 131.617 107.44
105.534 132.772 108.153
105.664 133.827 109.09
99.2297 134.589 107.562
99.825 133.595 108.497
105.827 135.001 109.788
97.9532 135.885 108.097
97.7918 135.552 109.245
98.5245 135.07 108.436
105.795 136.17 110.289
96.708 136.728 109.147
96.1111 136.49 110.462
96.9798 135.821 110.189
105.748 137.516 110.43
95.5504 137.783 109.786
94.7111 137.808 111.031
95.3478 136.812 111.303
105.485 138.57 110.582
94.4584 138.694 110.173
93.5957 139.436 111.198
93.897 138.286 111.658
105.123 139.723 110.824
92.9594 140.246 111.904
104.509 140.758 111.05
104.323 141.743 110.197
92.6455 141.195 112.533
103.548 142.828 110.632
92.5739 142.28 113.089
102.492 143.623 111.097
101.895 144.518 110.213
92.7523 143.316 113.63
99.7138 145.396 111.315
98.7311 146.09 110.846
100.833 145.028 110.769
93.2306 144.799 112.911
94.054 145.754 113.003
95.2678 146.269 112.763
96.3909 146.336 112.219
97.569 146.169 111.74
102.596 129.499 108.109
101.687 130.18 109.24
102.353 128.864 109.175
103.562 128.417 109.058
104.523 129.555 109.057
104.479 130.521 109.934
102.019 130.573 108.064
101.269 131.687 108.65
104.698 131.524 110.403
100.605 132.719 108.833
105.241 132.642 109.704
105.359 133.694 110.513
98.7677 134.445 109.136
98.0472 133.939 110.704
98.962 133.491 110.069
99.7727 132.84 109.944
105.417 134.88 111.166
97.669 134.851 110.349
96.5976 135.137 111.491
97.147 134.122 111.862
105.349 136.265 111.532
95.8886 135.584 112.139
105.178 137.513 111.777
94.4747 137.315 112.232
95.0605 136.172 112.64
104.898 138.694 111.936
93.2464 138.994 112.568
93.637 137.828 113.005
104.535 139.77 111.992
92.7645 139.747 113.34
103.934 140.82 112.132
103.759 141.81 111.347
92.4996 140.733 113.953
102.965 142.621 111.797
92.5431 141.836 114.436
102.03 143.378 112.243
101.473 144.302 111.398
92.8246 142.868 114.86
98.5957 145.654 111.687
99.3215 145.223 112.173
100.352 144.775 112.048
93.2514 144.26 114.114
93.9911 145.213 114.055
95.1247 145.684 113.913
96.2808 145.829 113.458
97.3023 145.664 112.956
98.2052 145.423 112.516
102.824 127.792 109.825
101.662 128.771 110.265
102.171 127.27 110.561
103.523 126.975 110.891
103.996 128.17 109.969
103.881 128.061 111.233
104.168 129.225 110.331
104.017 129.233 111.597
101.077 130.394 110.202
104.227 130.257 111.828
100.651 131.531 110.034
104.471 131.271 112.139
100.259 132.222 110.099
99.5571 131.897 111.251
100.166 131.562 110.763
104.947 132.512 111.265
105.14 133.635 112.011
97.8756 132.961 111.805
98.9484 132.615 111.122
105.095 134.934 112.459
96.0775 134.059 113.089
96.8111 133.174 112.85
104.93 136.316 112.795
95.2287 134.839 113.357
104.644 137.611 113.032
94.1848 136.565 113.396
94.7135 135.666 113.388
104.249 138.849 113.157
92.8741 138.343 114.038
93.399 137.224 114.043
104.024 139.992 112.869
92.5302 139.241 114.763
103.509 140.611 113.145
103.167 141.609 112.637
92.4124 140.366 115.339
102.458 142.394 112.976
92.6443 141.436 115.76
101.57 143.019 113.281
101.038 143.99 112.469
93.041 142.479 115.937
100.102 144.191 113.188
99.2552 144.845 112.974
93.4165 143.765 115.185
94.1245 144.646 115.116
95.1544 145.143 114.953
96.2193 145.249 114.567
97.207 145.14 114.101
98.202 145.076 113.507
102.624 126.119 111.152
101.379 127.155 111.325
101.871 125.394 111.976
103.126 125.501 112.182
103.652 126.534 112.06
103.475 126.264 113.371
100.997 128.624 111.228
103.659 127.769 112.511
103.799 128.909 113.206
100.551 129.762 111.41
99.7407 129.361 112.508
100.414 128.816 111.946
103.961 129.94 113.66
100.006 130.869 111.396
99.1438 130.579 112.431
104.199 131.102 113.62
98.6199 131.824 112.243
97.8494 131.056 113.332
98.5257 130.769 112.894
104.715 132.402 112.708
104.737 133.673 113.387
97.3535 132.261 113.017
95.8491 132.607 114.101
96.7011 131.562 114.03
104.687 135.063 113.688
94.9676 133.602 114.374
104.438 136.445 113.965
94.462 135.131 114.115
93.6355 135.083 115.146
94.1112 134.177 114.929
104.026 137.648 114.213
93.6654 136.131 114.538
92.9513 137.124 115.137
93.0569 135.793 115.729
103.84 138.735 114.092
103.445 138.364 115.028
103.284 139.507 114.489
92.5139 137.987 115.645
103.693 139.757 113.701
102.949 140.64 114.006
92.3364 139.078 116.208
102.382 141.406 113.934
92.5199 140.187 116.724
101.793 142.163 114.051
92.9961 141.22 116.924
101.305 142.767 113.973
100.78 143.478 113.638
93.3228 142.384 116.638
93.5721 143.314 116.125
93.9775 143.075 117.038
100.006 143.774 113.934
99.1656 144.389 113.915
94.2757 144.062 116.054
95.2819 144.548 115.914
96.1635 144.752 115.494
97.1924 144.618 115.25
98.1013 144.566 114.465
100.95 126.424 112.237
100.229 126.312 113.159
100.786 125.261 112.969
101.86 124.395 112.779
103.166 124.842 113.193
103.158 125.577 114.772
100.367 127.836 112.373
99.6548 127.149 113.656
103.404 127.448 114.017
103.573 128.671 114.747
99.3845 128.461 113.476
98.3326 128.461 114.4
99.093 127.719 114.084
103.733 129.95 115.283
98.6051 129.812 113.537
97.5144 129.472 114.579
104.048 131.259 114.67
104.365 132.358 113.778
104.201 132.648 114.766
97.1816 130.498 114.237
95.7113 131.232 115.069
96.436 129.946 115.095
104.343 133.928 114.635
94.7774 132.224 115.389
104.264 135.28 114.826
94.2656 133.127 115.489
103.927 136.357 115.099
93.269 134.17 116.096
93.7512 133.492 115.841
103.518 137.264 115.53
92.5905 136.614 116.558
92.7313 135.046 116.71
102.931 138.327 115.95
102.81 139.562 115.191
92.3179 137.741 117.087
102.21 140.352 115.205
92.4347 138.941 117.637
101.684 141.225 115.163
92.9622 140.089 117.997
101.114 142.435 114.599
101.148 141.658 115.322
100.633 142.043 115.437
93.4514 141.054 117.86
93.4911 142.039 117.359
93.9859 141.969 117.979
100.189 143.184 114.556
99.9358 142.325 115.711
99.4526 143.007 115.357
94.6342 142.759 117.816
98.2075 143.927 115.293
98.1026 143.391 116.04
97.4398 143.809 116.005
99.1726 143.781 114.752
98.6998 143.135 115.823
94.7068 143.606 116.993
95.5209 143.953 116.734
96.4963 144.141 116.293
102.613 123.405 113.257
101.199 123.502 113.523
101.387 122.614 113.884
102.783 122.711 114.208
103.3 124.133 114.261
103.043 123.827 115.483
99.6615 125.296 114.209
100.372 124.273 113.678
102.828 125.369 116.13
98.8936 126.878 114.506
98.2327 126.145 115.395
99.0005 125.665 114.846
103.177 127.09 115.318
103.387 128.512 116.132
97.6625 127.531 115.187
96.337 127.826 116.094
97.0833 126.597 116.062
103.419 129.959 116.723
96.7796 128.7 115.361
95.4757 129.651 115.957
103.84 131.292 115.714
103.903 132.713 115.968
94.6934 130.76 116.184
103.901 134.042 115.721
93.9328 131.526 116.532
93.2249 131.075 117.837
93.8582 130.469 117.318
103.708 135.029 116.043
93.5314 132.567 116.659
92.8771 132.222 117.869
103.408 135.996 116.388
92.8483 133.577 117.134
92.4151 135.176 117.691
92.4786 133.439 118.023
103.016 137.079 116.504
92.3215 136.445 118.014
102.515 137.894 116.842
102.21 139.037 116.288
92.436 137.622 118.477
101.635 139.877 116.408
92.857 138.814 118.896
101.069 140.858 116.035
100.988 139.853 117.163
100.418 140.542 116.967
93.3986 139.887 118.97
98.715 141.788 117.289
98.4422 140.861 118.512
98.0512 141.744 117.764
99.5192 141.321 117.061
99.0645 140.863 117.97
100.207 141.418 116.343
99.7382 140.398 117.745
93.9218 140.784 118.718
94.5715 141.655 118.623
98.1462 142.76 116.694
97.5052 142.338 117.519
99.175 142.253 116.433
95.1593 142.299 118.268
95.4686 143.141 117.554
96.2859 143.33 117.15
95.9462 142.458 118.121
97.1643 143.214 116.811
96.7244 142.493 117.834
100.087 121.478 115
99.0607 121.844 115.618
99.5826 120.253 115.852
100.972 120.361 115.373
101.22 121.754 114.512
102.221 121.04 115.202
102.818 122.16 114.97
102.794 122.152 116.046
99.945 123.193 114.531
98.8249 123.098 115.618
102.61 123.66 116.737
99.0115 124.459 115.108
97.7356 124.453 116.208
97.8196 123.472 116.379
102.614 125.241 117.472
97.7087 125.451 115.988
96.2508 125.928 116.853
96.8842 124.795 116.686
103.034 126.901 116.645
103.161 128.364 117.506
95.5522 127.66 116.776
103.205 129.655 117.808
94.916 128.668 116.971
93.7469 128.495 118.098
94.5291 127.542 117.643
103.464 131.245 116.778
103.129 130.887 118.059
94.3524 129.634 117.162
93.2059 129.689 118.484
103.438 132.27 117.082
103.47 133.548 116.949
92.56 130.771 119.095
103.186 134.592 117.287
92.4605 132.354 118.668
92.2271 133.8 118.815
92.185 131.984 119.63
102.863 135.918 117.275
92.2769 135.079 119.015
102.595 136.878 117.257
102.39 136.143 117.975
102.075 137.454 117.733
92.473 136.271 119.366
101.682 138.501 117.408
92.8742 137.443 119.712
101.31 139.123 117.45
93.3461 138.391 119.931
93.6008 139.428 119.652
94.276 139.055 120.236
100.374 139.854 117.757
100.504 139.054 118.321
99.9303 139.476 118.538
100.942 138.812 118.057
93.8932 140.107 119.378
94.5154 139.973 119.85
98.1369 140.054 119.398
97.6874 141.19 118.787
99.0477 139.908 118.853
95.4605 141.59 118.957
94.7853 140.848 119.385
96.3511 141.66 118.79
95.9042 140.877 119.594
97.1362 141.725 118.483
96.822 140.938 119.438
97.2623 120.771 117.295
96.0849 120.49 118.162
96.8256 119.437 117.793
98.095 119.559 116.761
98.3628 120.942 116.408
99.5858 119.096 116.228
101.157 119.345 116.179
102.339 120.435 116.266
102.401 121.771 117.21
96.6835 122.091 117.504
95.6867 122.136 118.215
97.7078 122.331 116.712
102.253 123.292 117.89
96.4591 123.692 117.308
95.3108 123.503 118.18
102.271 124.538 118.609
95.5649 124.882 117.611
94.3909 125.66 118.393
94.6631 124.401 118.505
102.805 126.738 117.788
102.436 126.08 118.854
95.1208 126.498 117.543
93.7429 127.031 118.661
102.797 127.705 118.507
102.797 129.123 118.729
92.9202 128.264 119.163
102.65 130.39 119.126
92.4878 129.477 119.818
103.089 132.302 118.024
102.558 131.784 119.073
92.2006 130.684 120.495
102.816 133.322 118.292
102.231 132.916 119.446
92.1841 133.601 119.881
92.1764 132.219 120.698
102.275 134.231 118.931
101.771 133.75 119.772
101.653 134.784 119.507
102.666 134.818 118.146
92.4542 134.776 120.311
101.885 135.862 118.726
101.199 135.551 119.69
92.7329 135.999 120.577
101.467 137.069 118.719
100.813 136.684 119.682
93.2641 136.795 120.784
100.73 137.836 118.966
100.472 137.271 119.71
100.011 137.687 119.744
101.312 138.257 118.156
93.6583 137.692 120.745
95.3146 139.309 120.489
94.5088 138.316 120.823
95.6146 138.557 121.08
99.8975 138.666 119.151
99.3284 138.161 119.923
99.0779 139.021 119.517
95.4755 140.138 120.005
96.3584 139.163 120.683
96.5286 139.972 120.099
97.3809 140.265 119.675
97.3511 139.236 120.365
98.2645 139.175 119.938
98.7309 117.125 117.223
97.1865 117.059 117.87
97.5648 116.088 117.757
99.1459 115.813 117.542
100.291 117.212 117.18
100.425 116.382 117.793
101.218 117.732 117.798
100.974 117.228 118.555
97.3214 118.234 117.604
95.6866 118.844 118.799
96.1265 117.621 118.694
98.7101 118.373 116.77
100.098 118.2 116.64
101.463 118.639 117.219
101.419 118.797 118.594
95.0566 120.49 118.931
102.077 120.085 117.475
101.897 121.594 118.377
94.816 122.337 118.954
101.855 123.063 119.076
94.5041 123.489 118.882
93.7214 124.419 119.43
93.8727 123.017 119.51
101.98 124.814 119.694
93.3909 125.782 119.498
102.011 126.334 120.103
92.87 126.974 119.872
102.45 127.691 119.443
102.277 129.048 119.821
92.3763 128.081 120.544
102.107 130.347 120.069
92.3039 129.24 121.186
101.895 131.605 120.2
92.3469 130.389 121.764
101.744 132.671 120.174
92.4737 133.398 121.18
92.471 131.821 121.742
101.401 133.058 120.388
101.054 133.893 120.484
92.9492 134.702 121.444
92.987 133.435 122.154
100.513 135.39 120.346
93.4269 135.875 121.488
93.8405 134.862 122.241
100.147 136.651 120.293
99.8837 135.458 120.869
99.4816 136.24 120.969
93.9337 136.824 121.365
94.366 136.094 122.002
98.4628 137.395 121.054
98.0668 136.533 121.718
97.5958 137.36 121.512
99.3394 137.313 120.583
98.8326 136.295 121.386
94.6398 137.462 121.422
96.6848 138.362 121.201
95.6496 137.762 121.566
97.7171 138.301 120.93
96.7045 137.401 121.718
98.6292 138.301 120.408
96.603 103.366 117.042
95.5469 103.799 117.154
95.6104 102.15 116.785
96.6305 102.256 117.35
97.0622 103.388 117.955
96.6366 102.76 118.445
96.5278 104.569 117.355
95.9616 105.279 117.564
97.2281 104.509 117.972
97.0507 104.088 119.065
96.9411 105.825 117.834
97.3415 105.472 118.702
96.0343 115.26 119.056
94.6502 115.96 120.204
95.0119 114.729 120.031
96.7053 114.187 118.678
97.5155 115.092 118.03
98.5729 113.95 118.284
99.4612 114.889 118.084
100.018 114.54 119.316
95.901 116.408 119.052
94.7815 117.443 119.82
100.552 115.861 118.687
100.816 117.522 119.486
94.5853 119.118 119.637
100.863 119.037 120.023
94.2299 120.398 119.74
93.4633 121.208 120.507
93.7062 119.71 120.465
101.501 120.273 118.915
101.404 121.763 119.747
94.0953 121.714 119.655
93.2484 123.004 120.348
101.53 123.328 120.149
92.8752 124.507 120.516
101.473 124.72 120.803
92.5565 125.746 120.855
101.141 125.677 121.439
92.3607 126.905 121.429
101.923 127.615 120.381
101.218 126.954 121.23
92.4442 128.103 122.176
101.65 128.682 120.839
100.935 128.406 121.631
92.6901 129.322 122.673
101.374 130.051 120.966
100.763 130.334 121.583
92.8293 130.813 122.833
101.245 131.896 120.848
100.525 131.524 121.553
93.1822 132.275 122.764
100.569 132.955 121.228
99.9546 131.82 122.082
99.6508 132.72 122.106
93.8085 133.589 122.851
98.6931 134.183 122.333
97.9763 133.453 123.127
97.6711 134.333 122.777
99.6598 133.8 121.83
98.7896 132.916 122.772
100.202 134.443 121.065
94.6174 134.63 122.785
95.2005 135.697 122.472
96.4418 135.658 122.553
95.6599 134.82 122.96
97.5755 135.223 122.387
96.7299 134.675 122.951
98.2849 135.482 121.85
99.227 135.067 121.538
95.1545 136.796 121.982
96.0698 136.69 122.155
97.2377 136.388 122.098
94.0751 101.544 117.466
93.6945 102.561 118.082
93.2685 101.325 118.672
94.1295 100.421 118.159
95.145 101.065 117.159
95.2193 100.746 118.628
94.6399 102.969 117.34
94.1298 103.891 118.297
96.127 101.486 118.092
96.2599 102.483 119.281
95.0587 104.976 117.859
94.1931 105.192 118.797
96.548 103.791 119.851
95.1116 106.626 118.45
94.2224 106.732 119.428
96.2032 106.688 117.965
97.4518 106.853 118.509
97.2412 105.691 119.719
95.1244 108.125 118.96
94.0894 107.937 119.97
96.2422 108.229 118.382
97.4027 108.203 118.358
97.8463 107.005 119.61
98.1274 108.197 119.199
98.0071 108.033 120.243
94.987 109.287 119.494
93.8336 108.996 120.552
96.1557 109.728 118.65
97.489 109.754 118.358
98.3953 109.543 119.06
98.3048 109.249 120.282
94.7651 110.287 119.917
95.8208 110.988 119.078
94.6328 111.426 120.187
97.369 111.177 118.526
98.655 110.978 119.15
98.5678 110.573 120.346
95.3623 112.352 119.594
94.1873 112.521 120.889
96.731 112.279 118.719
98.7486 112.149 118.871
98.9118 111.937 120.676
94.3777 113.426 120.735
95.5306 113.59 119.544
93.9152 114.559 121.402
97.5452 113.095 118.549
99.2163 112.888 120.586
99.4246 113.291 119.125
99.4156 113.922 120.764
93.6856 115.679 121.691
99.7434 115.12 120.825
93.8963 117.03 121.114
93.4113 118.011 121.567
93.318 116.645 122.615
100.438 116.109 120.027
100.323 117.446 120.77
93.9461 118.338 120.593
93.1449 119.69 121.412
100.154 118.508 121.445
92.9272 121.555 121.37
100.996 120.399 120.254
100.329 119.863 121.552
92.6202 123.088 121.453
100.926 121.422 120.924
101.021 122.863 121.123
92.4022 124.464 121.837
100.828 124.049 121.804
92.419 125.687 122.396
100.528 125.109 122.225
100.093 123.965 122.606
99.7211 125.04 123.022
92.5946 126.949 122.997
100.325 126.293 122.357
99.4425 126.563 123.245
92.9873 128.243 123.68
100.273 127.566 122.35
99.3479 127.91 123.198
93.2925 129.661 123.782
99.6618 128.989 122.858
98.7321 128.604 123.692
98.6242 129.623 123.675
100.371 129.212 122.163
93.5866 131.171 123.661
99.1779 130.337 123.019
98.4684 130.747 123.504
99.9477 130.448 122.373
94.0188 132.375 123.4
99.2695 131.666 122.732
98.4365 131.86 123.318
94.5875 133.134 123.42
95.0028 133.939 123.229
96.1443 133.905 123.393
95.7095 133.113 123.741
97.1139 133.831 123.295
96.8423 132.894 123.694
97.7146 132.377 123.568
93.3219 102.901 119.113
93.1704 101.531 119.787
93.9619 100.485 119.483
94.8152 100.933 120.15
93.4083 104.179 119.713
95.6201 101.608 119.623
95.7553 102.766 120.483
93.5771 105.468 119.915
96.5019 104.522 120.568
93.4968 106.512 120.695
96.7688 105.848 121.002
93.4009 107.645 121.285
97.3994 107.03 120.618
97.6792 108.542 121.195
93.346 108.558 121.854
97.9544 109.93 121.591
93.9501 110.176 120.746
93.4757 109.672 121.802
98.1514 111.254 121.826
93.7721 111.061 121.242
93.6272 112.113 121.892
98.0984 112.357 122.517
93.6228 113.401 122.395
93.6453 114.215 123.518
98.3138 113.424 122.568
98.7749 114.576 122.397
93.5153 115.386 123.681
98.8965 115.503 122.491
93.1493 118.215 122.573
93.4284 116.802 124.026
99.6557 116.359 121.505
99.4058 117.272 122.32
92.845 119.995 122.432
99.4441 118.702 122.602
92.7246 121.628 122.507
99.4558 120.023 122.862
92.6517 123.04 122.748
100.415 121.526 121.88
99.7486 121.275 122.757
92.6536 124.343 123.191
100.149 122.695 122.339
99.3805 123.228 123.247
92.8287 125.557 123.859
98.9501 124.806 123.706
93.1195 126.75 124.192
98.6085 126.268 123.955
98.1458 125.16 124.424
97.7524 126.329 124.688
93.6483 127.764 124.605
94.1244 128.944 124.603
95.5104 128.704 125.099
94.6286 127.712 125.121
96.7867 128.233 125.125
95.8204 127.373 125.401
97.7833 127.522 124.627
96.9011 126.838 125.247
98.6307 127.642 123.924
94.3444 130.322 124.269
95.3977 129.88 124.668
96.6057 129.46 124.8
97.741 128.856 124.437
94.6263 131.578 124.033
95.5193 131.075 124.386
96.5656 130.62 124.48
97.6115 130.087 124.208
94.9428 132.476 123.753
95.7695 132.184 124.041
96.7142 131.782 124.129
97.6022 131.236 123.92
93.2309 102.715 120.396
93.6964 101.403 120.831
93.3137 103.814 121.066
93.7525 102.689 121.562
94.847 102.03 121.127
93.338 105.114 121.262
93.6888 104.225 122.243
94.5233 103.321 122.3
95.4207 103.316 121.548
96.0809 104.495 121.499
93.3337 106.412 122.091
96.3947 106.048 122.039
93.4957 107.661 122.697
97.0496 107.406 121.732
97.2485 108.943 122.314
93.5722 108.835 123.116
97.4126 110.522 122.801
93.5012 109.922 123.16
97.2978 111.794 123.432
93.4165 110.823 122.375
93.4567 111.523 123.282
97.0862 113.095 124.074
93.5421 112.501 123.306
94.5872 114.286 125.255
93.9288 113.022 124.499
96.5449 114.153 124.888
95.5379 113.112 125.337
97.7825 114.297 123.602
94.2072 115.59 125.019
95.8731 115.442 125.458
97.4609 115.206 124.231
93.1767 118.558 123.569
93.7093 117.733 124.754
94.5449 116.655 125.503
96.1509 116.694 125.593
96.7512 117.752 125.224
97.3097 116.417 124.647
98.389 116.306 123.355
92.9814 120.193 123.602
97.6887 118.055 124.37
97.0836 119.104 125.24
98.4699 117.63 123.499
92.9768 121.582 123.718
97.8923 119.823 124.462
97.0864 120.531 125.349
98.6052 119.072 123.68
92.9913 122.818 123.967
97.9068 121.419 124.564
97.0089 121.972 125.403
98.773 120.751 123.696
93.1191 124.032 124.261
97.7953 122.85 124.662
96.7373 123.228 125.459
98.8211 122.203 123.739
93.5367 124.655 124.793
93.8495 125.698 125.051
95.2653 125.152 125.53
94.4402 124.378 125.379
96.6301 124.44 125.57
95.6106 123.847 125.675
97.5395 124.134 124.961
98.3965 123.859 124.227
93.9419 126.87 125.003
94.9448 126.464 125.318
96.1577 125.968 125.497
97.2049 125.348 125.141
93.6956 105.496 122.851
94.6021 104.84 123.18
95.3932 104.447 122.447
93.9775 106.896 123.482
94.932 106.313 123.636
95.7906 105.854 122.926
94.1156 108.276 123.994
95.0673 107.886 124.228
95.9667 107.608 123.656
96.4545 107.468 122.715
94.0496 109.55 124.362
95.1105 109.364 124.737
96.0109 109.253 124.225
96.7057 109.163 123.287
93.6753 110.611 124.13
94.7049 110.64 124.985
95.8729 110.745 124.879
96.7312 110.658 123.933
94.0232 111.746 124.531
95.0821 112.027 125.149
96.4085 112.091 124.647
93.5373 119.175 124.623
94.4111 118.334 125.51
95.4425 117.665 125.714
93.5611 120.426 124.805
94.481 119.623 125.724
95.7728 118.798 125.79
93.6438 121.604 124.959
94.66 120.77 125.837
96.0081 120.05 125.99
93.7362 122.786 125.006
94.7645 121.94 125.655
96.0178 121.332 125.867
93.8572 123.753 125.105
94.7482 123.136 125.532
95.8579 122.529 125.737
POLYGONS 2132  8528
3 0 1 2
3 0 3 4
3 2 3 0
3 4 5 6
3 3 5 4
3 6 7 8
3 5 7 6
3 7 9 8
3 10 1 0
3 11 1 10
3 4 12 0
3 12 10 0
3 6 13 4
3 13 12 4
3 8 14 6
3 14 13 6
3 15 8 9
3 14 8 15
3 16 11 10
3 17 11 16
3 12 18 10
3 18 16 10
3 13 19 12
3 19 18 12
3 14 20 13
3 20 19 13
3 21 14 15
3 20 14 21
3 16 22 17
3 18 22 16
3 23 22 18
3 19 23 18
3 24 23 19
3 20 24 19
3 25 24 20
3 21 25 20
3 26 27 28
3 26 29 30
3 28 29 26
3 29 31 30
3 32 33 34
3 27 32 34
3 27 26 32
3 26 35 32
3 30 36 26
3 36 35 26
3 37 30 31
3 36 30 37
3 38 33 32
3 39 33 38
3 35 40 32
3 40 38 32
3 36 41 35
3 41 40 35
3 42 36 37
3 41 36 42
3 43 44 45
3 43 46 47
3 45 46 43
3 39 47 46
3 39 38 47
3 38 48 47
3 40 49 38
3 49 48 38
3 50 41 51
3 50 49 41
3 49 40 41
3 42 51 41
3 2 44 43
3 2 1 44
3 1 52 44
3 3 2 43
3 47 3 43
3 5 3 47
3 48 5 47
3 7 5 48
3 49 7 48
3 49 9 7
3 49 50 9
3 50 53 9
3 1 11 52
3 52 11 54
3 9 53 15
3 53 55 15
3 11 17 54
3 54 17 56
3 15 55 21
3 55 57 21
3 58 17 22
3 58 59 17
3 59 56 17
3 22 23 60
3 58 22 60
3 23 24 61
3 60 23 61
3 62 61 24
3 62 24 63
3 63 24 25
3 57 25 21
3 63 25 57
3 58 64 59
3 60 64 58
3 65 64 60
3 61 65 60
3 66 65 61
3 62 66 61
3 67 68 69
3 67 70 71
3 69 70 67
3 71 72 73
3 70 72 71
3 72 74 73
3 75 76 77
3 68 75 77
3 68 67 75
3 67 78 75
3 71 79 67
3 79 78 67
3 73 80 71
3 80 79 71
3 81 73 74
3 80 73 81
3 82 76 75
3 83 76 82
3 78 84 75
3 84 82 75
3 79 85 78
3 85 84 78
3 80 86 79
3 86 85 79
3 87 80 81
3 86 80 87
3 28 83 82
3 28 27 83
3 27 88 83
3 29 28 82
3 84 29 82
3 31 29 84
3 31 84 89
3 89 84 85
3 86 90 85
3 90 89 85
3 91 86 87
3 90 86 91
3 34 92 93
3 33 92 34
3 88 27 34
3 93 88 34
3 89 94 37
3 31 89 37
3 90 95 89
3 95 94 89
3 96 90 91
3 95 90 96
3 97 98 99
3 97 99 92
3 97 92 39
3 39 92 33
3 94 100 42
3 37 94 42
3 101 95 102
3 101 100 95
3 100 94 95
3 96 102 95
3 45 103 104
3 44 103 45
3 98 97 46
3 98 46 104
3 104 46 45
3 39 46 97
3 51 105 50
3 51 42 100
3 51 100 105
3 105 100 106
3 107 100 101
3 106 100 107
3 44 52 103
3 103 52 108
3 105 109 53
3 50 105 53
3 110 106 111
3 110 109 106
3 109 105 106
3 107 111 106
3 52 54 108
3 108 54 112
3 109 113 55
3 53 109 55
3 114 109 110
3 113 109 114
3 54 56 112
3 112 56 115
3 113 116 57
3 55 113 57
3 117 113 114
3 116 113 117
3 56 59 115
3 115 59 118
3 63 119 120
3 62 63 120
3 116 63 57
3 116 121 63
3 121 119 63
3 117 121 116
3 59 122 118
3 64 122 59
3 65 123 64
3 64 123 122
3 66 124 65
3 65 124 123
3 120 66 62
3 124 66 120
3 69 125 126
3 68 125 69
3 70 69 127
3 69 126 127
3 72 70 128
3 70 127 128
3 128 74 72
3 129 74 128
3 77 130 131
3 76 130 77
3 125 68 77
3 131 125 77
3 74 129 81
3 129 132 81
3 76 83 130
3 130 83 133
3 134 135 87
3 134 87 132
3 132 87 81
3 134 136 135
3 83 88 133
3 133 88 137
3 135 138 91
3 87 135 91
3 139 135 136
3 138 135 139
3 93 140 141
3 92 140 93
3 137 88 93
3 141 137 93
3 138 142 96
3 91 138 96
3 143 138 139
3 142 138 143
3 99 144 145
3 98 144 99
3 140 92 99
3 145 140 99
3 102 146 101
3 102 147 146
3 96 147 102
3 96 148 147
3 96 142 148
3 143 148 142
3 104 149 150
3 103 149 104
3 144 98 104
3 150 144 104
3 146 151 107
3 101 146 107
3 152 146 147
3 151 146 152
3 103 108 149
3 149 108 153
3 111 154 110
3 111 155 154
3 107 155 111
3 107 156 155
3 107 151 156
3 152 156 151
3 108 112 153
3 153 112 157
3 154 158 114
3 110 154 114
3 159 154 155
3 158 154 159
3 112 115 157
3 157 115 160
3 158 161 162
3 158 162 114
3 114 162 117
3 159 161 158
3 115 118 160
3 160 118 163
3 119 164 120
3 165 164 119
3 165 119 166
3 166 119 121
3 162 121 117
3 166 121 162
3 118 167 163
3 122 167 118
3 123 168 122
3 122 168 167
3 124 169 123
3 123 169 168
3 164 124 120
3 164 170 124
3 170 169 124
3 165 170 164
3 126 125 171
3 172 126 171
3 172 173 126
3 173 127 126
3 128 127 174
3 127 173 174
3 174 129 128
3 175 129 174
3 131 130 176
3 131 176 177
3 125 131 177
3 125 177 178
3 125 178 171
3 172 171 178
3 179 180 132
3 179 132 175
3 175 132 129
3 179 181 180
3 176 182 183
3 176 130 182
3 130 133 182
3 177 176 183
3 132 180 134
3 180 136 134
3 180 181 136
3 181 184 136
3 133 137 182
3 182 137 185
3 136 184 139
3 184 186 139
3 141 187 188
3 140 187 141
3 185 137 141
3 188 185 141
3 139 186 143
3 186 189 143
3 145 190 191
3 144 190 145
3 187 140 145
3 191 187 145
3 148 192 147
3 148 193 192
3 148 143 193
3 143 189 193
3 150 194 195
3 149 194 150
3 190 144 150
3 195 190 150
3 192 196 152
3 147 192 152
3 197 192 193
3 196 192 197
3 198 199 200
3 198 200 194
3 198 194 153
3 153 194 149
3 156 201 155
3 156 202 201
3 152 202 156
3 152 203 202
3 152 196 203
3 197 203 196
3 204 199 198
3 205 199 204
3 153 157 204
3 198 153 204
3 201 206 159
3 155 201 159
3 207 201 202
3 206 201 207
3 208 205 204
3 209 205 208
3 157 160 208
3 204 157 208
3 161 210 162
3 161 211 210
3 159 211 161
3 159 212 211
3 159 206 212
3 207 212 206
3 213 209 208
3 214 209 213
3 160 163 213
3 208 160 213
3 166 215 216
3 165 166 216
3 210 166 162
3 210 217 166
3 217 215 166
3 211 217 210
3 213 218 214
3 163 218 213
3 163 167 218
3 167 219 218
3 168 220 167
3 167 220 219
3 169 221 168
3 168 221 220
3 170 222 169
3 169 222 221
3 216 170 165
3 222 170 216
3 223 224 225
3 223 226 227
3 225 226 223
3 226 228 227
3 173 224 223
3 173 172 224
3 172 229 224
3 174 173 223
3 227 174 223
3 227 175 174
3 227 228 175
3 228 230 175
3 178 231 232
3 177 231 178
3 229 172 178
3 232 229 178
3 175 230 233
3 179 175 233
3 233 181 179
3 234 181 233
3 183 235 236
3 182 235 183
3 231 177 183
3 236 231 183
3 181 234 184
3 234 237 184
3 238 239 240
3 238 240 235
3 238 235 185
3 185 235 182
3 184 237 186
3 237 241 186
3 242 243 244
3 239 242 244
3 238 242 239
3 238 187 242
3 238 188 187
3 185 188 238
3 186 241 189
3 241 245 189
3 246 247 248
3 243 246 248
3 242 246 243
3 242 190 246
3 242 191 190
3 187 191 242
3 189 245 193
3 245 249 193
3 250 251 252
3 247 250 252
3 246 250 247
3 246 194 250
3 246 195 194
3 190 195 246
3 193 249 197
3 249 253 197
3 200 251 250
3 200 199 251
3 199 254 251
3 194 200 250
3 203 255 256
3 202 203 256
3 253 203 197
3 255 203 253
3 199 205 254
3 254 205 257
3 202 256 207
3 256 258 207
3 205 209 257
3 257 209 259
3 212 260 261
3 211 212 261
3 258 212 207
3 260 212 258
3 209 214 259
3 259 214 262
3 215 263 264
3 216 215 264
3 217 265 215
3 215 265 263
3 261 217 211
3 265 217 261
3 214 266 262
3 218 266 214
3 219 267 218
3 218 267 266
3 220 268 219
3 219 268 267
3 221 269 220
3 220 269 268
3 222 270 221
3 221 270 269
3 264 222 216
3 270 222 264
3 271 272 273
3 271 225 224
3 271 273 225
3 273 274 225
3 226 225 275
3 225 274 275
3 275 228 226
3 276 228 275
3 277 272 271
3 278 272 277
3 224 229 277
3 271 224 277
3 228 276 230
3 276 279 230
3 232 278 277
3 232 231 278
3 231 280 278
3 229 232 277
3 230 279 281
3 233 230 281
3 281 234 233
3 282 234 281
3 283 284 285
3 283 236 235
3 283 285 236
3 285 286 236
3 280 231 236
3 286 280 236
3 234 282 237
3 282 287 237
3 288 289 290
3 284 288 290
3 283 288 284
3 283 239 288
3 283 240 239
3 235 240 283
3 237 287 241
3 287 291 241
3 244 289 288
3 244 243 289
3 243 292 289
3 239 244 288
3 241 291 245
3 291 293 245
3 248 294 295
3 247 294 248
3 292 243 248
3 295 292 248
3 245 293 249
3 293 296 249
3 252 297 298
3 251 297 252
3 294 247 252
3 298 294 252
3 249 296 253
3 296 299 253
3 251 254 297
3 297 254 300
3 255 301 302
3 256 255 302
3 299 255 253
3 301 255 299
3 254 257 300
3 300 257 303
3 256 302 258
3 302 304 258
3 257 259 303
3 303 259 305
3 260 306 307
3 261 260 307
3 304 260 258
3 306 260 304
3 259 262 305
3 305 262 308
3 263 309 264
3 310 309 263
3 310 263 311
3 311 263 265
3 307 265 261
3 311 265 307
3 262 312 308
3 266 312 262
3 267 313 266
3 266 313 312
3 268 314 267
3 267 314 313
3 269 315 268
3 268 315 314
3 270 316 269
3 269 316 315
3 309 270 264
3 309 317 270
3 317 316 270
3 310 317 309
3 318 319 320
3 318 321 322
3 320 321 318
3 322 323 324
3 321 323 322
3 323 325 324
3 273 319 318
3 273 272 319
3 272 326 319
3 274 273 318
3 322 274 318
3 275 274 322
3 324 275 322
3 324 276 275
3 324 325 276
3 325 327 276
3 272 278 326
3 326 278 328
3 276 327 279
3 327 329 279
3 330 331 332
3 330 332 328
3 330 328 280
3 280 328 278
3 279 329 333
3 281 279 333
3 333 282 281
3 334 282 333
3 285 335 336
3 284 335 285
3 331 330 286
3 331 286 336
3 336 286 285
3 280 286 330
3 282 334 287
3 334 337 287
3 290 338 339
3 289 338 290
3 335 284 290
3 339 335 290
3 287 337 291
3 337 340 291
3 289 292 338
3 338 292 341
3 291 340 293
3 340 342 293
3 295 343 344
3 294 343 295
3 341 292 295
3 344 341 295
3 293 342 296
3 342 345 296
3 298 346 347
3 297 346 298
3 343 294 298
3 347 343 298
3 296 345 299
3 345 348 299
3 297 300 346
3 346 300 349
3 301 350 351
3 302 301 351
3 348 301 299
3 350 301 348
3 300 303 349
3 349 303 352
3 302 351 304
3 351 353 304
3 303 305 352
3 352 305 354
3 306 355 356
3 307 306 356
3 353 306 304
3 355 306 353
3 305 308 354
3 354 308 357
3 311 358 359
3 310 311 359
3 356 311 307
3 358 311 356
3 308 360 357
3 312 360 308
3 313 361 312
3 312 361 360
3 314 362 313
3 313 362 361
3 315 363 314
3 314 363 362
3 316 364 315
3 315 364 363
3 317 365 316
3 316 365 364
3 359 317 310
3 365 317 359
3 366 367 368
3 366 369 370
3 368 369 366
3 369 371 370
3 320 367 366
3 320 319 367
3 319 372 367
3 321 320 366
3 370 321 366
3 370 371 373
3 370 373 321
3 321 373 323
3 373 325 323
3 374 325 373
3 375 376 377
3 375 377 372
3 375 372 326
3 326 372 319
3 325 374 327
3 374 378 327
3 379 376 375
3 380 376 379
3 326 328 379
3 375 326 379
3 327 378 329
3 378 381 329
3 382 383 384
3 380 382 384
3 379 382 380
3 379 331 382
3 379 332 331
3 328 332 379
3 329 381 385
3 333 329 385
3 385 334 333
3 386 334 385
3 387 388 389
3 383 387 389
3 382 387 383
3 382 335 387
3 382 336 335
3 331 336 382
3 334 386 337
3 386 390 337
3 339 388 387
3 339 338 388
3 338 391 388
3 335 339 387
3 337 390 340
3 390 392 340
3 393 394 395
3 393 395 391
3 393 391 341
3 341 391 338
3 340 392 342
3 392 396 342
3 397 398 399
3 394 397 399
3 393 397 394
3 393 343 397
3 393 344 343
3 341 344 393
3 400 401 402
3 400 396 401
3 400 345 396
3 345 342 396
3 347 398 397
3 347 346 398
3 346 403 398
3 343 347 397
3 404 400 402
3 405 404 402
3 345 404 348
3 400 404 345
3 346 349 403
3 403 349 406
3 350 404 405
3 350 405 351
3 351 405 407
3 348 404 350
3 349 352 406
3 406 352 408
3 351 407 353
3 407 409 353
3 352 354 408
3 408 354 410
3 355 411 412
3 356 355 412
3 409 355 353
3 411 355 409
3 413 357 414
3 413 410 357
3 410 354 357
3 413 414 415
3 358 416 417
3 359 358 417
3 412 358 356
3 416 358 412
3 357 360 414
3 414 418 415
3 414 360 418
3 360 361 418
3 362 419 361
3 361 419 418
3 363 420 362
3 362 420 419
3 364 421 363
3 363 421 420
3 365 422 364
3 364 422 421
3 417 365 359
3 422 365 417
3 423 424 425
3 423 368 367
3 423 425 368
3 425 426 368
3 369 368 427
3 368 426 427
3 427 371 369
3 428 371 427
3 429 424 423
3 430 424 429
3 367 372 429
3 423 367 429
3 371 428 431
3 373 371 431
3 431 374 373
3 432 374 431
3 433 434 435
3 430 433 435
3 429 433 430
3 429 376 433
3 429 377 376
3 372 377 429
3 374 432 378
3 432 436 378
3 437 434 433
3 438 434 437
3 376 380 437
3 433 376 437
3 439 440 381
3 439 381 436
3 436 381 378
3 439 441 440
3 442 443 444
3 438 442 444
3 437 442 438
3 437 383 442
3 437 384 383
3 380 384 437
3 381 440 385
3 440 386 385
3 440 441 386
3 441 445 386
3 389 443 442
3 389 388 443
3 388 446 443
3 383 389 442
3 386 445 390
3 445 447 390
3 388 391 446
3 446 391 448
3 390 447 392
3 447 449 392
3 395 450 451
3 394 450 395
3 448 391 395
3 451 448 395
3 392 449 396
3 449 452 396
3 399 453 454
3 398 453 399
3 450 394 399
3 454 450 399
3 401 455 456
3 402 401 456
3 452 401 396
3 455 401 452
3 398 403 453
3 453 403 457
3 402 456 405
3 456 458 405
3 403 406 457
3 457 406 459
3 405 458 407
3 458 460 407
3 406 408 459
3 459 408 461
3 462 463 464
3 462 460 463
3 462 409 460
3 409 407 460
3 465 410 466
3 465 461 410
3 461 408 410
3 465 466 467
3 468 469 470
3 464 469 468
3 462 464 468
3 462 468 412
3 462 412 411
3 409 462 411
3 410 413 466
3 466 413 415
3 466 415 467
3 467 415 471
3 472 473 474
3 472 475 476
3 473 472 476
3 470 476 475
3 468 470 475
3 468 475 417
3 468 417 416
3 412 468 416
3 415 477 471
3 418 477 415
3 419 478 418
3 418 478 477
3 420 479 419
3 419 479 478
3 474 421 472
3 474 479 421
3 479 420 421
3 422 472 421
3 475 472 422
3 417 475 422
3 480 481 482
3 480 483 484
3 482 483 480
3 483 485 484
3 425 486 487
3 424 486 425
3 481 480 426
3 481 426 487
3 487 426 425
3 427 426 480
3 484 427 480
3 484 428 427
3 484 485 428
3 485 488 428
3 489 490 491
3 489 491 486
3 489 486 430
3 430 486 424
3 428 488 492
3 431 428 492
3 492 432 431
3 493 432 492
3 494 495 496
3 490 494 496
3 489 494 490
3 489 434 494
3 489 435 434
3 430 435 489
3 432 493 436
3 493 497 436
3 498 495 494
3 499 495 498
3 434 438 498
3 494 434 498
3 436 497 500
3 439 436 500
3 500 441 439
3 501 441 500
3 444 499 498
3 444 443 499
3 443 502 499
3 438 444 498
3 441 501 445
3 501 503 445
3 504 505 506
3 504 506 502
3 504 502 446
3 446 502 443
3 445 503 447
3 503 507 447
3 508 505 504
3 509 505 508
3 446 448 508
3 504 446 508
3 447 507 449
3 507 510 449
3 511 512 513
3 509 511 513
3 508 511 509
3 508 450 511
3 508 451 450
3 448 451 508
3 449 510 452
3 510 514 452
3 454 512 511
3 454 453 512
3 453 515 512
3 450 454 511
3 455 516 517
3 456 455 517
3 514 455 452
3 516 455 514
3 453 457 515
3 515 457 518
3 456 517 458
3 517 519 458
3 457 459 518
3 518 459 520
3 521 522 523
3 521 519 522
3 521 460 519
3 460 458 519
3 459 461 520
3 520 461 524
3 525 526 527
3 525 528 529
3 526 525 529
3 528 530 531
3 529 528 531
3 523 531 530
3 521 523 530
3 521 530 464
3 521 464 463
3 460 521 463
3 461 532 524
3 465 532 461
3 532 465 467
3 533 532 467
3 534 525 527
3 535 534 527
3 528 525 536
3 536 525 534
3 469 536 470
3 469 530 536
3 530 528 536
3 464 530 469
3 537 471 538
3 537 533 471
3 533 467 471
3 538 539 540
3 537 538 540
3 539 541 542
3 540 539 542
3 535 542 541
3 534 535 541
3 534 541 474
3 534 474 473
3 476 534 473
3 536 534 476
3 470 536 476
3 471 477 538
3 478 538 477
3 539 538 478
3 479 539 478
3 541 539 479
3 474 541 479
3 543 544 545
3 543 546 547
3 545 546 543
3 547 548 549
3 546 548 547
3 548 550 549
3 551 544 543
3 552 544 551
3 482 481 551
3 482 551 547
3 547 551 543
3 483 482 547
3 549 483 547
3 549 485 483
3 549 550 485
3 550 553 485
3 554 555 556
3 552 554 556
3 551 554 552
3 551 486 554
3 551 487 486
3 481 487 551
3 485 553 488
3 553 557 488
3 558 559 560
3 555 558 560
3 554 558 555
3 554 490 558
3 554 491 490
3 486 491 554
3 488 557 561
3 492 488 561
3 561 493 492
3 562 493 561
3 496 559 558
3 496 495 559
3 495 563 559
3 490 496 558
3 493 562 497
3 562 564 497
3 565 566 567
3 565 567 563
3 565 563 499
3 499 563 495
3 568 500 497
3 568 497 569
3 569 497 564
3 500 568 501
3 570 566 565
3 571 566 570
3 499 502 570
3 565 499 570
3 568 569 572
3 572 501 568
3 572 573 501
3 573 503 501
3 506 571 570
3 506 505 571
3 505 574 571
3 502 506 570
3 503 573 507
3 573 575 507
3 576 577 578
3 576 578 574
3 576 574 509
3 509 574 505
3 507 575 510
3 575 579 510
3 513 577 576
3 513 512 577
3 512 580 577
3 509 513 576
3 581 582 583
3 581 579 582
3 581 514 579
3 514 510 579
3 512 515 580
3 580 515 584
3 516 581 583
3 516 583 517
3 517 583 585
3 514 581 516
3 515 518 584
3 584 518 586
3 517 585 519
3 585 587 519
3 588 520 589
3 588 586 520
3 586 518 520
3 588 589 590
3 591 592 593
3 591 523 522
3 591 522 592
3 592 522 594
3 587 522 519
3 594 522 587
3 589 524 595
3 520 524 589
3 596 590 589
3 595 596 589
3 526 597 598
3 527 526 598
3 529 599 526
3 526 599 597
3 593 531 591
3 593 599 531
3 599 529 531
3 523 591 531
3 524 532 595
3 533 600 601
3 532 533 601
3 532 601 596
3 532 596 595
3 600 602 603
3 601 600 603
3 602 604 605
3 603 602 605
3 604 598 605
3 604 535 598
3 535 527 598
3 533 537 600
3 540 600 537
3 602 600 540
3 542 602 540
3 604 602 542
3 535 604 542
3 606 607 608
3 606 609 610
3 608 609 606
3 610 545 544
3 610 609 545
3 609 611 545
3 546 545 612
3 545 611 612
3 548 546 613
3 546 612 613
3 613 550 548
3 614 550 613
3 615 607 606
3 616 607 615
3 610 617 606
3 617 615 606
3 544 552 617
3 610 544 617
3 550 614 553
3 614 618 553
3 619 616 615
3 620 616 619
3 556 555 619
3 556 619 617
3 617 619 615
3 552 556 617
3 553 618 557
3 618 621 557
3 622 623 624
3 620 622 624
3 619 622 620
3 619 559 622
3 619 560 559
3 555 560 619
3 625 561 557
3 625 557 626
3 626 557 621
3 561 625 562
3 627 623 622
3 628 623 627
3 559 563 627
3 622 559 627
3 625 626 629
3 629 562 625
3 629 630 562
3 630 564 562
3 567 628 627
3 567 566 628
3 566 631 628
3 563 567 627
3 564 630 569
3 630 632 569
3 566 571 631
3 631 571 633
3 634 572 569
3 634 569 635
3 635 569 632
3 572 634 573
3 571 574 633
3 633 574 636
3 637 634 635
3 638 637 635
3 573 637 575
3 634 637 573
3 578 639 640
3 577 639 578
3 636 574 578
3 640 636 578
3 641 642 643
3 638 642 641
3 638 641 637
3 637 641 644
3 575 644 579
3 637 644 575
3 577 580 639
3 639 580 645
3 646 641 643
3 647 646 643
3 582 646 583
3 582 644 646
3 644 641 646
3 579 644 582
3 580 584 645
3 645 584 648
3 649 646 647
3 650 649 647
3 583 649 585
3 646 649 583
3 584 586 648
3 648 586 651
3 652 653 654
3 650 653 652
3 650 652 649
3 649 652 655
3 585 655 587
3 649 655 585
3 586 656 651
3 588 656 586
3 590 657 658
3 590 658 588
3 588 658 656
3 658 657 659
3 660 661 662
3 654 661 660
3 652 654 660
3 652 660 593
3 652 593 592
3 594 652 592
3 655 652 594
3 587 655 594
3 657 596 663
3 590 596 657
3 664 659 657
3 664 657 665
3 665 657 663
3 665 666 667
3 664 665 667
3 666 598 597
3 666 597 667
3 667 597 668
3 662 599 660
3 662 668 599
3 668 597 599
3 593 660 599
3 596 601 663
3 603 663 601
3 665 663 603
3 605 665 603
3 666 665 605
3 598 666 605
3 669 670 671
3 669 672 673
3 671 672 669
3 673 674 675
3 672 674 673
3 674 676 675
3 677 678 679
3 670 677 679
3 670 669 677
3 669 680 677
3 673 681 669
3 681 680 669
3 675 682 673
3 682 681 673
3 683 675 676
3 682 675 683
3 608 678 677
3 608 607 678
3 607 684 678
3 609 608 677
3 680 609 677
3 611 609 680
3 681 611 680
3 612 611 681
3 682 612 681
3 682 683 685
3 682 685 612
3 612 685 613
3 685 614 613
3 686 614 685
3 607 616 684
3 684 616 687
3 614 686 618
3 686 688 618
3 689 690 691
3 689 691 687
3 689 687 620
3 620 687 616
3 618 688 621
3 688 692 621
3 624 690 689
3 624 623 690
3 623 693 690
3 620 624 689
3 621 692 626
3 692 694 626
3 623 628 693
3 693 628 695
3 626 694 696
3 629 626 696
3 696 630 629
3 697 630 696
3 628 631 695
3 695 631 698
3 630 697 632
3 697 699 632
3 631 633 698
3 698 633 700
3 632 699 635
3 699 701 635
3 633 636 700
3 700 636 702
3 635 701 638
3 701 703 638
3 640 639 704
3 640 704 705
3 640 705 636
3 636 705 702
3 642 706 707
3 643 642 707
3 703 642 638
3 706 642 703
3 704 645 708
3 639 645 704
3 709 705 704
3 708 709 704
3 643 707 647
3 707 710 647
3 708 648 711
3 645 648 708
3 712 709 708
3 711 712 708
3 713 714 715
3 713 710 714
3 713 650 710
3 650 647 710
3 711 651 716
3 648 651 711
3 717 712 711
3 716 717 711
3 718 719 720
3 718 721 722
3 719 718 722
3 715 722 721
3 713 715 721
3 713 721 654
3 713 654 653
3 650 713 653
3 651 656 716
3 716 723 717
3 716 656 723
3 656 658 723
3 659 724 725
3 659 725 658
3 658 725 723
3 724 726 727
3 725 724 727
3 720 727 726
3 720 726 718
3 718 726 728
3 661 728 662
3 661 721 728
3 721 718 728
3 654 721 661
3 659 664 724
3 667 724 664
3 726 724 667
3 668 726 667
3 728 726 668
3 662 728 668
3 729 730 731
3 729 732 733
3 731 732 729
3 732 734 733
3 735 730 729
3 736 730 735
3 733 737 729
3 737 735 729
3 738 733 734
3 737 733 738
3 735 739 736
3 737 739 735
3 740 739 737
3 738 740 737
3 741 742 743
3 741 744 745
3 743 744 741
3 745 746 747
3 744 746 745
3 746 748 747
3 749 742 741
3 750 742 749
3 671 670 749
3 671 749 745
3 745 749 741
3 672 671 745
3 747 672 745
3 747 748 751
3 747 751 672
3 672 751 674
3 751 676 674
3 752 676 751
3 679 750 749
3 679 678 750
3 678 753 750
3 670 679 749
3 676 752 683
3 752 754 683
3 755 756 757
3 755 757 753
3 755 753 684
3 684 753 678
3 683 754 758
3 685 683 758
3 758 686 685
3 759 686 758
3 760 756 755
3 761 756 760
3 684 687 760
3 755 684 760
3 686 759 688
3 759 762 688
3 691 761 760
3 691 690 761
3 690 763 761
3 687 691 760
3 688 762 692
3 762 764 692
3 690 693 763
3 763 693 765
3 692 764 694
3 764 766 694
3 693 695 765
3 765 695 767
3 768 696 694
3 768 694 769
3 769 694 766
3 696 768 697
3 695 698 767
3 767 698 770
3 771 768 769
3 772 771 769
3 697 771 699
3 768 771 697
3 698 700 770
3 770 700 773
3 774 771 772
3 775 774 772
3 699 774 701
3 771 774 699
3 700 702 773
3 773 702 776
3 777 774 775
3 778 777 775
3 701 777 703
3 774 777 701
3 702 705 776
3 776 705 779
3 780 781 782
3 778 781 780
3 777 778 780
3 777 780 707
3 777 707 706
3 703 777 706
3 705 709 779
3 779 709 783
3 784 785 786
3 784 787 788
3 785 784 788
3 782 788 787
3 782 787 780
3 780 787 789
3 707 789 710
3 780 789 707
3 790 712 791
3 790 783 712
3 783 709 712
3 791 792 793
3 790 791 793
3 792 794 795
3 793 792 795
3 786 795 794
3 786 794 784
3 784 794 796
3 787 784 797
3 797 784 796
3 714 797 715
3 714 789 797
3 789 787 797
3 710 789 714
3 791 717 798
3 712 717 791
3 792 791 799
3 799 791 798
3 794 792 800
3 800 792 799
3 719 800 720
3 719 796 800
3 796 794 800
3 722 796 719
3 797 796 722
3 715 797 722
3 717 723 798
3 725 798 723
3 799 798 725
3 727 799 725
3 800 799 727
3 720 800 727
3 801 802 803
3 801 804 805
3 803 804 801
3 804 806 805
3 807 802 801
3 808 802 807
3 731 730 807
3 731 807 805
3 805 807 801
3 805 806 809
3 805 809 731
3 731 809 732
3 809 734 732
3 810 734 809
3 811 808 807
3 812 808 811
3 730 736 811
3 807 730 811
3 734 810 738
3 810 813 738
3 814 812 811
3 815 812 814
3 736 739 816
3 736 816 811
3 811 816 814
3 739 740 817
3 816 739 817
3 740 818 817
3 740 738 818
3 738 813 818
3 819 815 814
3 820 815 819
3 816 821 814
3 821 819 814
3 817 822 816
3 822 821 816
3 823 817 818
3 823 824 817
3 824 822 817
3 823 825 824
3 826 820 819
3 827 820 826
3 821 828 819
3 828 826 819
3 822 829 821
3 829 828 821
3 824 830 822
3 830 829 822
3 831 824 825
3 830 824 831
3 826 832 827
3 832 833 834
3 832 826 833
3 826 828 833
3 829 835 828
3 835 833 828
3 830 836 829
3 836 835 829
3 837 830 831
3 836 830 837
3 838 834 833
3 839 834 838
3 835 840 833
3 840 838 833
3 836 841 835
3 841 840 835
3 842 836 837
3 841 836 842
3 838 843 839
3 843 844 845
3 843 838 844
3 838 840 844
3 841 846 840
3 846 844 840
3 847 841 842
3 847 848 841
3 848 846 841
3 847 849 848
3 743 845 844
3 743 742 845
3 742 850 845
3 744 743 844
3 846 744 844
3 746 744 846
3 848 746 846
3 848 748 746
3 848 849 748
3 849 851 748
3 852 853 854
3 852 854 850
3 852 850 750
3 750 850 742
3 748 851 855
3 751 748 855
3 855 752 751
3 856 752 855
3 857 853 852
3 858 853 857
3 750 753 857
3 852 750 857
3 752 856 754
3 856 859 754
3 757 858 857
3 757 756 858
3 756 860 858
3 753 757 857
3 861 758 754
3 861 754 862
3 862 754 859
3 758 861 759
3 756 761 860
3 860 761 863
3 861 862 864
3 864 759 861
3 864 865 759
3 865 762 759
3 761 763 863
3 863 763 866
3 762 865 764
3 865 867 764
3 763 765 866
3 866 765 868
3 869 870 871
3 869 867 870
3 869 766 867
3 766 764 867
3 765 767 868
3 868 767 872
3 873 869 871
3 874 873 871
3 766 873 769
3 869 873 766
3 767 770 872
3 872 770 875
3 876 873 874
3 877 876 874
3 769 876 772
3 873 876 769
3 770 773 875
3 875 773 878
3 879 880 881
3 877 880 879
3 877 879 876
3 876 879 882
3 772 882 775
3 876 882 772
3 773 776 878
3 878 776 883
3 884 879 881
3 885 884 881
3 882 879 886
3 886 879 884
3 775 886 778
3 882 886 775
3 776 779 883
3 883 779 887
3 888 884 885
3 889 888 885
3 781 888 782
3 781 886 888
3 886 884 888
3 778 886 781
3 890 783 891
3 890 887 783
3 887 779 783
3 891 892 893
3 890 891 893
3 892 894 895
3 893 892 895
3 894 786 785
3 894 785 895
3 895 785 896
3 889 788 888
3 889 896 788
3 896 785 788
3 782 888 788
3 783 790 891
3 793 891 790
3 892 891 793
3 795 892 793
3 894 892 795
3 786 894 795
3 803 897 898
3 802 897 803
3 804 803 899
3 803 898 899
3 899 806 804
3 900 806 899
3 802 808 897
3 897 808 901
3 806 900 902
3 809 806 902
3 902 810 809
3 903 810 902
3 808 812 901
3 901 812 904
3 810 903 813
3 903 905 813
3 812 815 904
3 904 815 906
3 813 905 818
3 905 907 818
3 815 820 906
3 906 820 908
3 818 907 909
3 823 818 909
3 909 825 823
3 910 825 909
3 820 827 908
3 908 827 911
3 825 910 831
3 910 912 831
3 913 827 832
3 913 914 827
3 914 911 827
3 832 834 913
3 831 912 837
3 912 915 837
3 913 916 914
3 916 913 834
3 916 834 917
3 917 834 839
3 837 915 842
3 915 918 842
3 839 919 917
3 843 919 839
3 919 843 845
3 920 919 845
3 842 918 921
3 847 842 921
3 921 849 847
3 922 849 921
3 845 850 920
3 920 850 923
3 849 922 851
3 922 924 851
3 854 925 926
3 853 925 854
3 923 850 854
3 926 923 854
3 851 924 927
3 855 851 927
3 927 856 855
3 928 856 927
3 853 858 925
3 925 858 929
3 856 928 859
3 928 930 859
3 858 860 929
3 929 860 931
3 859 930 862
3 930 932 862
3 860 863 931
3 931 863 933
3 934 864 862
3 934 862 935
3 935 862 932
3 864 934 865
3 863 866 933
3 933 866 936
3 937 934 935
3 938 937 935
3 865 937 867
3 934 937 865
3 866 868 936
3 936 868 939
3 870 937 938
3 870 938 871
3 871 938 940
3 867 937 870
3 868 872 939
3 939 872 941
3 942 943 944
3 942 940 943
3 942 874 940
3 874 871 940
3 945 875 946
3 945 941 875
3 941 872 875
3 946 947 948
3 945 946 948
3 947 949 950
3 948 947 950
3 949 951 952
3 950 949 952
3 944 952 951
3 944 951 942
3 942 951 953
3 874 953 877
3 942 953 874
3 946 878 954
3 875 878 946
3 947 946 955
3 955 946 954
3 949 947 956
3 956 947 955
3 951 949 957
3 957 949 956
3 880 957 881
3 880 953 957
3 953 951 957
3 877 953 880
3 954 883 958
3 878 883 954
3 955 954 959
3 959 954 958
3 956 955 960
3 960 955 959
3 957 956 961
3 961 956 960
3 881 961 885
3 957 961 881
3 958 887 962
3 883 887 958
3 959 958 963
3 963 958 962
3 960 959 964
3 964 959 963
3 961 960 965
3 965 960 964
3 885 965 889
3 961 965 885
3 887 890 962
3 893 962 890
3 963 962 893
3 895 963 893
3 964 963 895
3 896 964 895
3 965 964 896
3 889 965 896
3 898 897 966
3 898 967 899
3 966 967 898
3 899 967 900
3 966 901 968
3 897 901 966
3 967 966 969
3 969 966 968
3 900 970 902
3 900 967 970
3 967 969 970
3 902 970 903
3 968 971 972
3 968 901 971
3 901 904 971
3 969 968 972
3 973 969 972
3 970 969 973
3 974 970 973
3 974 903 970
3 974 975 903
3 975 905 903
3 904 906 971
3 971 906 976
3 905 975 907
3 975 977 907
3 906 908 976
3 976 908 978
3 907 977 979
3 909 907 979
3 979 910 909
3 980 910 979
3 908 911 978
3 978 911 981
3 910 980 912
3 980 982 912
3 911 914 981
3 981 914 983
3 912 982 915
3 982 984 915
3 914 985 983
3 916 985 914
3 985 916 917
3 986 985 917
3 915 984 918
3 984 987 918
3 917 988 986
3 919 988 917
3 920 989 990
3 920 990 919
3 919 990 988
3 989 991 992
3 990 989 992
3 921 991 993
3 921 987 991
3 921 918 987
3 992 991 987
3 921 993 922
3 989 923 994
3 920 923 989
3 991 989 995
3 995 989 994
3 993 991 996
3 996 991 995
3 922 996 924
3 993 996 922
3 926 997 998
3 925 997 926
3 994 923 926
3 994 926 999
3 999 926 998
3 995 994 999
3 1000 995 999
3 1000 1001 1002
3 1000 1002 995
3 995 1002 996
3 924 1003 927
3 924 996 1003
3 996 1002 1003
3 927 1003 928
3 925 929 997
3 997 929 1004
3 1005 1002 1001
3 1006 1005 1001
3 1003 1002 1007
3 1007 1002 1005
3 928 1007 930
3 1003 1007 928
3 929 931 1004
3 1004 931 1008
3 1009 1005 1006
3 1010 1009 1006
3 1007 1005 1011
3 1011 1005 1009
3 930 1011 932
3 1007 1011 930
3 931 933 1008
3 1008 933 1012
3 1013 1009 1010
3 1014 1013 1010
3 1011 1009 1015
3 1015 1009 1013
3 932 1015 935
3 1011 1015 932
3 933 936 1012
3 1012 936 1016
3 1017 1013 1014
3 1018 1017 1014
3 1015 1013 1019
3 1019 1013 1017
3 935 1019 938
3 1015 1019 935
3 1020 939 1021
3 1020 1016 939
3 1016 936 939
3 1021 1022 1023
3 1020 1021 1023
3 1022 1024 1025
3 1023 1022 1025
3 1018 1025 1024
3 1018 1024 1017
3 1017 1024 1026
3 1019 1017 1027
3 1027 1017 1026
3 938 1027 940
3 1019 1027 938
3 1021 941 1028
3 939 941 1021
3 1022 1021 1029
3 1029 1021 1028
3 1024 1022 1030
3 1030 1022 1029
3 1026 1024 1031
3 1031 1024 1030
3 943 1031 944
3 943 1027 1031
3 1027 1026 1031
3 940 1027 943
3 941 945 1028
3 948 1028 945
3 1029 1028 948
3 950 1029 948
3 1030 1029 950
3 952 1030 950
3 1031 1030 952
3 944 1031 952
3 972 971 1032
3 972 1033 973
3 1032 1033 972
3 973 1034 974
3 1033 1034 973
3 974 1034 975
3 1032 976 1035
3 971 976 1032
3 1033 1032 1036
3 1036 1032 1035
3 1034 1033 1037
3 1037 1033 1036
3 975 1037 977
3 1034 1037 975
3 1035 978 1038
3 976 978 1035
3 1036 1035 1039
3 1039 1035 1038
3 1037 1036 1040
3 1040 1036 1039
3 977 1041 979
3 977 1037 1041
3 1037 1040 1041
3 979 1041 980
3 1038 981 1042
3 978 981 1038
3 1039 1038 1043
3 1043 1038 1042
3 1040 1039 1044
3 1044 1039 1043
3 1041 1040 1045
3 1045 1040 1044
3 980 1045 982
3 1041 1045 980
3 1042 983 1046
3 981 983 1042
3 1043 1042 1047
3 1047 1042 1046
3 1044 1043 1048
3 1048 1043 1047
3 1045 1044 1049
3 1049 1044 1048
3 982 1049 984
3 1045 1049 982
3 983 985 1046
3 986 1046 985
3 986 1050 1046
3 1050 1047 1046
3 1048 1047 1051
3 1051 1047 1050
3 1049 1048 1052
3 1052 1048 1051
3 984 1052 987
3 1049 1052 984
3 986 988 1050
3 990 1050 988
3 1051 1050 990
3 992 1051 990
3 1052 1051 992
3 987 1052 992
3 998 997 1053
3 998 1054 999
3 1053 1054 998
3 999 1055 1000
3 1054 1055 999
3 1000 1055 1001
3 1053 1004 1056
3 997 1004 1053
3 1054 1053 1057
3 1057 1053 1056
3 1055 1054 1058
3 1058 1054 1057
3 1001 1058 1006
3 1055 1058 1001
3 1056 1008 1059
3 1004 1008 1056
3 1057 1056 1060
3 1060 1056 1059
3 1058 1057 1061
3 1061 1057 1060
3 1006 1061 1010
3 1058 1061 1006
3 1059 1012 1062
3 1008 1012 1059
3 1060 1059 1063
3 1063 1059 1062
3 1061 1060 1064
3 1064 1060 1063
3 1010 1064 1014
3 1061 1064 1010
3 1062 1016 1065
3 1012 1016 1062
3 1063 1062 1066
3 1066 1062 1065
3 1064 1063 1067
3 1067 1063 1066
3 1014 1067 1018
3 1064 1067 1014
3 1016 1020 1065
3 1023 1065 1020
3 1066 1065 1023
3 1025 1066 1023
3 1067 1066 1025
3 1018 1067 1025
