# vtk DataFile Version 3.0
this file was written using fslvtkio
ASCII
DATASET POLYDATA
POINTS 642 float
94.7804 129.757 108.343
86.819 136.051 103.988
84.2676 119.613 103.968
89.2773 113.99 107.573
89.8648 120.956 115.297
92.69 125.669 102.107
89.8183 127.866 99.8652
84.2932 125.358 111.609
90.6314 137.117 111.851
84.617 109.4 109.743
86.1231 109.02 98.0797
98.3501 138.945 101.056
86.4774 132.208 113.01
90.1059 128.937 114.899
85.9248 122.652 115.817
83.5943 117.205 112.019
86.5267 113.778 114.869
95.0601 135.153 97.9473
92.4789 127.378 100.463
100.05 132.611 100.062
86.5568 116.096 100.454
87.2774 115.695 101.266
90.2679 116.337 111.821
93.103 125.389 112.375
91.7946 122.251 108.372
89.7868 119.66 104.845
94.7149 128.704 104.577
84.8672 132.012 108.359
83.6171 122.586 107.787
85.166 128.508 104.186
89.0468 133.488 100.468
86.625 123.867 101.783
98.3108 135.376 105.036
93.9876 134.135 110.366
94.1058 140.773 106.282
92.1461 140.459 101.625
88.5316 139.744 108.022
87.7342 109.907 103.844
84.6377 106.182 103.363
87.5403 107.471 109.529
84.201 112.597 101.404
83.4931 113.773 106.779
87.7857 130.424 114.892
87.7825 125.989 116.455
85.9258 127.514 114.96
87.942 121.272 116.309
90.0295 124.888 115.666
90.2498 133.405 113.469
88.3212 135.356 113.257
85.0967 128.714 112.558
84.8411 124.018 113.744
84.6603 119.575 114.261
86.1869 118.008 116.033
84.8721 115.162 113.68
88.7185 116.932 115.804
83.7243 121.304 111.978
84.3438 113.204 110.944
85.4238 110.592 112.302
94.8485 131.646 98.8341
96.2674 131.043 99.8733
98.3225 134.105 98.0598
95.7839 130.035 101.416
92.8414 126.611 101.156
91.468 127.973 99.7936
92.42 131.811 99.1718
97.2985 137.459 98.9979
100.463 136.339 99.9013
86.9518 115.077 99.3508
88.59 121.189 101.293
88.9601 122.53 100.973
90.1259 121.483 102.141
87.6212 111.813 99.3579
86.0172 112.253 96.7404
88.6694 123.838 100.141
92.1233 121.037 112.415
93.0982 123.621 110.302
91.3327 119.304 110.082
93.4975 126.246 108.313
94.0421 127.742 110.425
91.7629 123.34 114.367
90.3129 118.205 113.859
89.8307 114.603 109.653
90.2845 118.071 108.011
90.8487 121.242 106.451
92.725 125.291 106.384
92.3187 124.271 104.665
95.1737 129.362 106.349
89.2789 116.437 106.021
91.1097 122.42 103.27
94.155 127.515 102.961
84.187 127.269 108.19
84.2549 125.612 105.93
84.6757 130.096 106.197
84.7673 123.872 103.974
83.8395 120.918 105.719
83.9787 123.866 109.831
84.7456 128.885 110.177
85.5293 134.407 106.206
85.8718 132.701 103.913
86.7539 130.726 102.175
85.6322 126.437 102.443
87.5023 129.077 100.774
85.1938 120.824 102.451
88.0158 135.023 102.013
89.7654 130.852 99.8918
87.8816 126.214 100.016
96.1489 135.449 107.734
94.2484 137.655 108.12
96.384 138.212 105.444
92.0117 139.56 109.125
92.3606 135.944 111.025
94.9944 131.965 109.39
96.8981 132.704 106.918
98.8418 137.07 102.938
96.4554 140.643 103.49
93.4105 142.479 103.789
91.1897 142.347 107.464
89.7994 141.416 104.831
89.3954 139.377 110.541
95.75 140.798 100.556
89.2793 138.7 102.917
87.7875 138.038 105.938
86.9323 106.185 102.909
86.2765 104.652 106.545
87.6371 107.698 106.243
85.5706 106.671 110.202
84.8007 107.279 107.067
84.9028 106.696 100.008
86.9583 109.169 101.077
88.2994 111.57 106.081
88.2397 110.598 108.471
83.6346 112.612 104.102
84.2226 109.692 105.339
84.2146 109.187 102.191
83.9031 111.253 108.212
83.2174 116.401 105.08
83.7175 116.103 102.733
84.5394 110.228 99.1298
91.9871 127.628 113.775
92.1042 131.927 112.709
93.6222 129.896 111.817
97.755 132.257 104.482
99.9313 133.88 102.498
97.8822 131.176 102.728
87.3764 110.044 112.781
88.9133 113.99 113.717
88.5059 111.826 111.243
88.1834 114.512 104.34
88.648 117.755 103.144
87.4583 112.955 102.245
87.1863 136.509 110.886
85.5806 132.757 110.708
86.3471 136.146 108.459
90.6338 137.314 100.431
91.6006 134.806 98.7876
93.8951 138.056 99.3448
83.1409 117.928 107.449
83.2457 119.401 109.719
83.3221 115.311 109.414
84.9746 114.026 99.4369
86.8187 119.526 101.599
84.8499 117.203 100.859
87.7907 128.338 115.869
86.6852 126.633 116.006
86.5727 129.093 115.308
86.0083 125.019 115.37
86.7508 124.278 116.369
88.9171 127.494 115.751
88.9075 129.535 115.03
86.9609 131.569 114.141
86.0642 129.787 114.102
87.9022 123.743 116.722
88.9601 125.303 116.022
88.9867 123.071 116.251
90.0175 126.962 115.413
86.8539 121.954 116.569
88.9877 120.791 115.948
89.9822 122.838 115.548
88.9805 131.802 113.838
88.169 133.034 114.152
89.2132 134.071 113.652
87.2874 133.93 113.294
90.0137 130.914 114.039
90.4478 135.341 112.766
89.5377 136.34 112.744
85.3633 128.164 113.859
85.4671 125.834 114.392
84.9975 126.381 113.3
85.3439 123.245 114.733
85.6784 130.378 112.934
84.7058 126.956 112.094
84.6175 124.64 112.662
85.1938 118.493 115.261
85.4628 116.45 114.994
84.7954 117.317 114.165
85.6319 114.324 114.437
86.3642 115.849 115.711
86.0873 120.287 115.975
85.2139 120.816 115.131
84.284 118.286 113.216
84.2873 116.136 112.813
87.4278 117.114 116.189
87.0303 119.455 116.52
88.1493 118.93 116.277
87.6332 115.209 115.769
89.2175 118.91 115.572
84.8507 121.79 114.044
84.1389 120.383 113.2
84.3707 122.488 112.973
83.5739 119.279 112.213
84.3035 123.358 111.736
84.7007 114.061 112.311
85.319 112.995 113.004
84.8161 111.826 111.791
85.9816 112.166 113.548
83.8083 115.17 111.594
84.2894 111.14 110.596
84.8522 109.68 111.132
95.6143 131.206 99.3845
97.6843 132.287 98.9134
96.6237 132.677 98.4314
99.41 133.521 98.9342
98.3779 132.073 99.5694
94.1076 129.438 100.258
93.8702 130.046 99.7391
95.3598 133.302 98.0739
96.8133 134.635 98.1442
96.6109 130.883 100.554
94.4287 129.349 100.752
94.5287 128.838 101.336
92.6477 126.791 100.806
98.2105 131.545 100.74
93.9999 128.034 102.014
92.7347 126.22 101.716
93.1457 130.263 99.5396
93.8058 132.064 98.6904
92.2214 130.248 99.3615
93.8155 133.653 98.2852
92.0163 127.744 100.102
90.7413 128.171 99.6057
90.8858 129.735 99.4433
98.064 135.956 98.2548
99.7389 135.405 98.5887
99.084 137.168 99.1713
100.681 134.473 99.9065
96.1766 136.438 98.4566
98.1166 138.601 99.7862
99.4998 137.878 100.497
86.7111 117.329 100.856
88.9752 121.316 100.403
86.7965 117.732 100.667
91.0703 125.406 100.319
91.0536 124.51 100.647
86.8402 117.721 101.152
87.0137 115.201 100.394
86.4225 115.332 99.2839
87.4715 118.732 101.214
91.022 124.242 101.156
88.9659 121.161 101.633
91.5594 124.185 101.595
87.9988 118.792 101.849
91.6396 123.261 102.139
87.5191 113.344 99.0119
87.0405 113.646 97.7389
86.9165 111.697 97.7639
85.8853 114.193 97.6133
87.5199 113.532 100.403
87.0065 110.265 98.5464
85.8024 110.261 97.0951
88.9444 123.066 100.913
90.487 125.715 100.18
90.1176 126.406 99.7405
87.9078 119.972 101.506
89.2609 126.293 99.5363
92.8403 122.16 111.421
92.1514 121.419 110.37
91.8245 120.004 111.28
91.6044 120.764 109.233
92.5405 122.782 109.395
93.2615 124.377 111.376
92.6668 123.313 112.511
91.1699 118.745 112.112
90.9566 117.988 111.057
93.3376 124.926 109.219
93.6177 125.606 110.363
93.8961 126.978 109.409
93.5865 126.557 111.368
92.7141 124.173 108.331
94.1543 128.084 108.307
94.4219 128.844 109.362
92.0381 121.855 113.43
91.1422 119.569 113.117
91.0402 120.747 114.129
90.4166 117.054 112.842
92.3632 124.334 113.443
90.8619 122.171 114.931
90.1943 119.518 114.8
90.4389 117.05 109.945
90.76 118.656 109.082
90.2848 116.466 108.875
90.9231 120.277 108.192
90.1041 115.561 110.771
89.7241 114.308 108.525
89.844 116 107.763
91.8077 123.352 106.319
92.6293 124.927 105.435
91.2642 122.901 105.607
93.3941 126.591 104.505
93.6571 127.045 105.463
92.2227 123.72 107.353
91.3647 121.766 107.298
90.3522 120.538 105.694
91.012 121.805 104.812
93.8532 127.462 106.367
93.2339 125.754 107.287
94.0103 127.782 107.252
95.0116 129.032 105.501
94.9982 129.533 107.31
90.3489 119.698 107.143
89.975 118.89 106.202
89.761 117.517 106.981
89.3154 117.838 105.381
89.2908 115.158 106.793
91.8778 123.435 103.941
93.0379 125.639 103.783
92.5883 124.839 103.262
94.4701 128.021 103.704
90.5783 121.086 104.01
91.8975 124.105 102.6
93.2573 126.605 102.514
84.0915 126.464 107.044
84.7149 127.852 106.115
84.398 128.747 107.227
84.9416 129.355 105.141
84.7616 127.006 104.986
83.9227 124.181 106.893
83.9565 124.968 107.953
84.5123 129.664 108.321
84.7206 131.024 107.283
84.5486 124.726 104.916
83.8755 123.321 105.834
84.1648 122.437 104.886
83.6191 121.778 106.755
84.8866 126.119 103.89
84.5605 121.731 103.884
83.9866 120.169 104.765
83.9953 125.545 109.047
84.3759 128.134 109.141
84.2814 126.51 109.956
84.7183 130.532 109.406
83.5865 123.21 108.855
84.1252 124.643 110.749
84.5882 127.095 110.995
85.0267 132.193 106.203
85.259 131.322 105.164
85.5192 133.334 105.049
85.4789 130.718 104.021
85.0593 133.321 107.308
85.9969 135.256 105.026
86.2961 134.435 103.893
86.2251 128.618 102.153
86.389 127.392 101.441
87.0497 129.871 101.311
86.9273 126.589 101.151
86.1309 125.124 101.853
85.3865 127.483 103.18
85.7361 129.634 103.039
87.8111 131.997 101.424
88.4861 131.39 100.847
85.2861 123.505 102.178
85.156 124.927 102.968
85.0386 122.571 103.078
85.6081 121.747 101.731
84.7666 120.103 103.185
86.4259 131.753 102.984
87.3432 132.978 102.098
86.7556 133.655 102.834
88.4872 134.106 101.221
87.4996 135.647 102.994
88.5832 130.019 100.279
87.8046 127.847 100.371
88.7444 128.503 99.8882
87.1419 125.383 100.916
89.5509 132.264 100.087
89.8764 129.314 99.6312
88.8375 127.128 99.7049
95.2017 136.45 108.06
95.3282 137.98 106.842
96.4003 136.834 106.711
95.2822 139.559 105.838
94.2114 139.405 107.316
94.0526 136.019 109.292
94.8846 134.868 109.026
97.2122 135.452 106.305
97.4369 136.827 105.221
93.2118 138.703 108.619
93.2339 137.011 109.587
92.0703 137.69 109.872
93.1912 135.117 110.599
93.043 140.423 107.803
91.1351 138.443 110.534
91.4236 136.638 111.424
95.7223 133.844 108.687
96.7146 134.103 107.423
95.8944 132.433 108.09
97.7218 133.997 106.027
94.5917 132.989 110.017
95.0878 130.703 108.969
95.7378 131.043 107.647
97.6239 137.827 104.271
96.5514 139.496 104.557
97.409 138.69 103.193
95.3789 140.97 104.977
98.895 136.243 103.902
98.9095 138.159 101.957
97.42 139.747 102.149
92.41 142.676 105.551
90.3826 142.274 106.179
91.5288 142.388 104.266
89.0376 140.847 106.467
89.5423 141.366 107.813
92.965 141.95 106.949
93.9825 141.913 105.054
92.6803 141.794 102.497
90.9347 141.204 103.184
90.3526 140.971 108.83
91.7199 141.111 108.259
90.6799 139.772 109.684
88.8424 139.818 109.474
89.9251 138.219 111.288
95.092 141.662 103.373
94.6247 141.49 102.094
96.1977 141.18 101.915
93.8092 140.854 100.927
97.2127 139.872 100.683
89.6563 140.177 103.759
88.7552 139.825 105.381
88.532 138.622 104.463
88.0335 139.087 106.883
90.7306 139.721 102.271
88.1382 137.261 103.511
87.253 136.994 104.945
86.7066 105.14 104.446
87.2844 105.854 106.4
87.3897 106.707 104.676
87.7309 107.289 107.849
87.2183 105.633 108.142
85.2351 105.142 104.696
85.7584 105.239 102.706
87.4114 107.823 103.37
87.5818 108.506 104.774
85.8941 105.633 108.453
85.0756 105.499 106.775
85.0572 106.831 108.459
84.6284 106.527 105.321
86.9182 106.427 110.293
84.9684 107.978 110.14
84.6183 108.361 108.632
86.2357 106.092 101.292
87.0285 107.672 101.992
86.5213 107.424 100.045
87.3409 109.454 102.625
84.8611 106.241 101.577
85.5372 107.651 98.425
86.7017 109.192 99.5882
87.8283 109.415 106.107
87.7902 109.036 107.5
88.4695 110.785 107.124
87.9817 108.884 108.964
87.9367 110.687 104.96
88.8652 112.933 106.861
88.8802 112.382 108.096
83.8773 111.021 104.687
84.2588 109.224 103.764
83.9302 110.775 103.142
84.4346 107.618 102.808
84.4829 107.812 104.534
83.8121 111.514 106.073
83.6827 112.968 105.46
84.0038 112.496 102.743
84.1412 110.843 101.663
84.4232 108.454 106.234
84.0864 110.302 106.839
84.3881 109.243 107.741
83.6991 112.369 107.39
84.4989 110.4 109.046
83.4804 114.459 104.666
83.4963 114.227 103.248
83.5726 116.163 103.874
83.8653 114.319 102.119
83.2952 115.02 106.014
83.4025 118.035 104.444
83.7631 117.978 103.384
84.2366 109.601 100.597
84.3605 107.691 101.228
84.2834 107.996 99.3087
84.3693 111.396 100.231
84.6074 109.214 97.7821
92.0323 129.698 113.383
92.9455 130.897 112.357
92.7616 128.727 112.795
93.9265 132.031 111.346
93.0154 133.134 111.533
91.1129 130.477 113.769
91.0707 128.474 114.317
92.6285 126.519 113.152
93.4108 127.689 112.181
92.1591 133.861 111.919
91.2112 132.744 113.23
91.4028 134.842 112.315
91.0399 126.492 114.875
91.6945 125.614 114.099
90.817 124.342 114.884
94.0015 128.779 111.151
94.5274 130.971 110.787
94.627 129.898 110.078
98.8087 133.174 103.594
99.6632 132.306 102.553
97.8031 131.581 103.624
99.3122 131.766 101.578
100.51 133.162 101.307
99.312 134.771 103.868
98.5826 133.778 104.883
96.3482 130.602 104.588
96.1429 130.193 103.78
100.603 134.823 101.098
99.8838 135.623 102.394
100.239 136.74 101.407
97.4901 132.378 105.678
96.3959 130.786 105.55
96.2224 131.045 106.535
95.914 129.834 102.801
97.1323 130.766 101.812
94.9631 129.073 102.269
88.3616 111.809 113.265
88.7433 112.845 112.503
88.104 110.621 111.878
89.1929 114.052 111.787
89.6084 114.844 112.723
87.7626 113.608 114.403
87.0809 111.825 114.036
87.5207 108.559 111.209
87.9702 109.554 110.516
89.5014 116.027 113.768
88.965 115.192 115.072
89.3815 117.444 114.717
86.4003 109.852 112.873
86.5667 107.914 111.546
85.4812 108.455 111.975
88.3945 110.83 109.849
89.0342 112.915 110.447
88.9537 112.469 109.261
88.5155 116.086 103.676
88.168 115.351 102.519
87.8301 113.722 103.326
87.6121 114.424 101.682
87.9638 117.002 102.197
89.2025 118.571 104.103
88.85 117.038 104.551
87.6968 112.201 104.118
87.4548 111.346 103.038
89.2946 119.623 102.559
89.7865 119.975 103.134
90.6753 121.651 102.58
88.9319 115.374 105.124
88.2195 112.988 105.148
88.7698 114.004 105.927
87.2932 110.959 101.67
87.3355 112.539 101.092
87.5393 110.722 100.238
86.2645 134.655 110.948
85.9944 134.524 109.678
86.8889 136.462 109.654
85.5045 134.128 108.47
85.2971 132.581 109.512
86.0489 132.637 111.91
86.7945 134.486 112.079
87.7988 138.404 109.462
87.3595 138.044 108.267
84.9711 130.89 110.577
85.4568 130.812 111.75
85.0207 128.978 111.324
87.3895 136.086 112.349
88.1754 137.942 110.819
88.7756 137.18 111.822
86.9934 137.143 107.177
85.6869 135.299 107.322
86.1991 136.312 106.078
91.0837 136.008 99.5129
92.7352 136.53 98.7845
92.2046 137.74 99.8591
94.4131 136.67 98.3929
93.2528 135.115 98.2242
90.2279 134.176 99.6099
89.7953 135.42 100.374
91.4572 138.994 100.803
93.1039 139.403 100.261
92.0884 133.31 98.6893
90.7544 132.762 99.5544
91.0204 131.226 99.5744
89.2698 136.225 101.23
90.1324 138.05 101.672
88.8167 136.962 102.31
94.7466 139.562 99.9362
95.526 137.953 99.053
96.4235 139.108 99.7163
83.2798 118.722 108.551
83.3326 117.358 109.62
82.9212 116.503 108.472
83.3509 116.254 110.709
83.4664 118.355 110.906
83.3023 120.929 108.702
83.3104 120.278 107.674
83.1248 115.783 107.243
83.3853 114.494 108.047
83.3851 120.234 110.831
83.4809 121.637 109.804
83.8118 122.418 110.785
83.3663 119.311 106.483
82.9838 117.059 106.32
83.5438 118.554 105.473
83.8734 113.301 108.719
83.6396 114.191 110.211
84.0837 112.236 109.692
86.075 116.684 100.183
85.961 118.3 101.041
84.9145 115.553 100.207
85.9489 120.18 101.448
86.5976 121.693 101.648
87.1433 117.84 101.213
85.9429 114.999 99.5075
84.4602 113.037 100.2
84.0132 114.707 100.894
87.0602 123.182 100.171
87.5867 121.216 100.894
87.8213 124.252 99.3382
85.595 113.175 98.0918
84.5889 112.234 98.6753
84.8059 111.349 97.4988
84.1399 116.347 101.664
85.2657 118.951 101.741
84.4198 118.314 102.447
POLYGONS 1280  5120
3 164 162 163
3 163 44 164
3 162 43 163
3 164 42 162
3 166 165 163
3 163 43 166
3 165 44 163
3 166 14 165
3 168 167 162
3 162 42 168
3 167 43 162
3 168 13 167
3 170 169 164
3 164 44 170
3 169 42 164
3 170 12 169
3 173 171 172
3 172 46 173
3 171 43 172
3 173 45 171
3 167 174 172
3 172 43 167
3 174 46 172
3 167 13 174
3 175 166 171
3 171 45 175
3 166 43 171
3 175 14 166
3 177 176 173
3 173 46 177
3 176 45 173
3 177 4 176
3 180 178 179
3 179 48 180
3 178 42 179
3 180 47 178
3 169 181 179
3 179 42 169
3 181 48 179
3 169 12 181
3 182 168 178
3 178 47 182
3 168 42 178
3 182 13 168
3 184 183 180
3 180 48 184
3 183 47 180
3 184 8 183
3 187 185 186
3 186 50 187
3 185 44 186
3 187 49 185
3 165 188 186
3 186 44 165
3 188 50 186
3 165 14 188
3 189 170 185
3 185 49 189
3 170 44 185
3 189 12 170
3 191 190 187
3 187 50 191
3 190 49 187
3 191 7 190
3 194 192 193
3 193 53 194
3 192 52 193
3 194 51 192
3 196 195 193
3 193 52 196
3 195 53 193
3 196 16 195
3 198 197 192
3 192 51 198
3 197 52 192
3 198 14 197
3 200 199 194
3 194 53 200
3 199 51 194
3 200 15 199
3 203 201 202
3 202 45 203
3 201 52 202
3 203 54 201
3 197 175 202
3 202 52 197
3 175 45 202
3 197 14 175
3 204 196 201
3 201 54 204
3 196 52 201
3 204 16 196
3 176 205 203
3 203 45 176
3 205 54 203
3 176 4 205
3 208 206 207
3 207 55 208
3 206 51 207
3 208 50 206
3 199 209 207
3 207 51 199
3 209 55 207
3 199 15 209
3 188 198 206
3 206 50 188
3 198 51 206
3 188 14 198
3 210 191 208
3 208 55 210
3 191 50 208
3 210 7 191
3 213 211 212
3 212 57 213
3 211 53 212
3 213 56 211
3 195 214 212
3 212 53 195
3 214 57 212
3 195 16 214
3 215 200 211
3 211 56 215
3 200 53 211
3 215 15 200
3 217 216 213
3 213 57 217
3 216 56 213
3 217 9 216
3 220 218 219
3 219 60 220
3 218 59 219
3 220 58 218
3 222 221 219
3 219 59 222
3 221 60 219
3 222 19 221
3 224 223 218
3 218 58 224
3 223 59 218
3 224 18 223
3 226 225 220
3 220 60 226
3 225 58 220
3 226 17 225
3 229 227 228
3 228 62 229
3 227 59 228
3 229 61 227
3 223 230 228
3 228 59 223
3 230 62 228
3 223 18 230
3 231 222 227
3 227 61 231
3 222 59 227
3 231 19 222
3 233 232 229
3 229 62 233
3 232 61 229
3 233 5 232
3 236 234 235
3 235 64 236
3 234 58 235
3 236 63 234
3 225 237 235
3 235 58 225
3 237 64 235
3 225 17 237
3 238 224 234
3 234 63 238
3 224 58 234
3 238 18 224
3 240 239 236
3 236 64 240
3 239 63 236
3 240 6 239
3 243 241 242
3 242 66 243
3 241 60 242
3 243 65 241
3 221 244 242
3 242 60 221
3 244 66 242
3 221 19 244
3 245 226 241
3 241 65 245
3 226 60 241
3 245 17 226
3 247 246 243
3 243 66 247
3 246 65 243
3 247 11 246
3 250 248 249
3 249 69 250
3 248 68 249
3 250 67 248
3 252 251 249
3 249 68 252
3 251 69 249
3 252 18 251
3 254 253 248
3 248 67 254
3 253 68 248
3 254 21 253
3 256 255 250
3 250 69 256
3 255 67 250
3 256 20 255
3 259 257 258
3 258 70 259
3 257 68 258
3 259 62 257
3 253 260 258
3 258 68 253
3 260 70 258
3 253 21 260
3 230 252 257
3 257 62 230
3 252 68 257
3 230 18 252
3 261 233 259
3 259 70 261
3 233 62 259
3 261 5 233
3 264 262 263
3 263 72 264
3 262 67 263
3 264 71 262
3 255 265 263
3 263 67 255
3 265 72 263
3 255 20 265
3 266 254 262
3 262 71 266
3 254 67 262
3 266 21 254
3 268 267 264
3 264 72 268
3 267 71 264
3 268 10 267
3 271 269 270
3 270 63 271
3 269 69 270
3 271 73 269
3 251 238 270
3 270 69 251
3 238 63 270
3 251 18 238
3 272 256 269
3 269 73 272
3 256 69 269
3 272 20 256
3 239 273 271
3 271 63 239
3 273 73 271
3 239 6 273
3 276 274 275
3 275 76 276
3 274 75 275
3 276 74 274
3 278 277 275
3 275 75 278
3 277 76 275
3 278 24 277
3 280 279 274
3 274 74 280
3 279 75 274
3 280 23 279
3 282 281 276
3 276 76 282
3 281 74 276
3 282 22 281
3 285 283 284
3 284 78 285
3 283 75 284
3 285 77 283
3 279 286 284
3 284 75 279
3 286 78 284
3 279 23 286
3 287 278 283
3 283 77 287
3 278 75 283
3 287 24 278
3 289 288 285
3 285 78 289
3 288 77 285
3 289 0 288
3 292 290 291
3 291 80 292
3 290 74 291
3 292 79 290
3 281 293 291
3 291 74 281
3 293 80 291
3 281 22 293
3 294 280 290
3 290 79 294
3 280 74 290
3 294 23 280
3 296 295 292
3 292 80 296
3 295 79 292
3 296 4 295
3 299 297 298
3 298 82 299
3 297 76 298
3 299 81 297
3 277 300 298
3 298 76 277
3 300 82 298
3 277 24 300
3 301 282 297
3 297 81 301
3 282 76 297
3 301 22 282
3 303 302 299
3 299 82 303
3 302 81 299
3 303 3 302
3 306 304 305
3 305 85 306
3 304 84 305
3 306 83 304
3 308 307 305
3 305 84 308
3 307 85 305
3 308 26 307
3 310 309 304
3 304 83 310
3 309 84 304
3 310 24 309
3 312 311 306
3 306 85 312
3 311 83 306
3 312 25 311
3 315 313 314
3 314 77 315
3 313 84 314
3 315 86 313
3 309 287 314
3 314 84 309
3 287 77 314
3 309 24 287
3 316 308 313
3 313 86 316
3 308 84 313
3 316 26 308
3 288 317 315
3 315 77 288
3 317 86 315
3 288 0 317
3 320 318 319
3 319 87 320
3 318 83 319
3 320 82 318
3 311 321 319
3 319 83 311
3 321 87 319
3 311 25 321
3 300 310 318
3 318 82 300
3 310 83 318
3 300 24 310
3 322 303 320
3 320 87 322
3 303 82 320
3 322 3 303
3 325 323 324
3 324 89 325
3 323 85 324
3 325 88 323
3 307 326 324
3 324 85 307
3 326 89 324
3 307 26 326
3 327 312 323
3 323 88 327
3 312 85 323
3 327 25 312
3 329 328 325
3 325 89 329
3 328 88 325
3 329 5 328
3 332 330 331
3 331 92 332
3 330 91 331
3 332 90 330
3 334 333 331
3 331 91 334
3 333 92 331
3 334 29 333
3 336 335 330
3 330 90 336
3 335 91 330
3 336 28 335
3 338 337 332
3 332 92 338
3 337 90 332
3 338 27 337
3 341 339 340
3 340 94 341
3 339 91 340
3 341 93 339
3 335 342 340
3 340 91 335
3 342 94 340
3 335 28 342
3 343 334 339
3 339 93 343
3 334 91 339
3 343 29 334
3 345 344 341
3 341 94 345
3 344 93 341
3 345 2 344
3 348 346 347
3 347 96 348
3 346 90 347
3 348 95 346
3 337 349 347
3 347 90 337
3 349 96 347
3 337 27 349
3 350 336 346
3 346 95 350
3 336 90 346
3 350 28 336
3 352 351 348
3 348 96 352
3 351 95 348
3 352 7 351
3 355 353 354
3 354 98 355
3 353 92 354
3 355 97 353
3 333 356 354
3 354 92 333
3 356 98 354
3 333 29 356
3 357 338 353
3 353 97 357
3 338 92 353
3 357 27 338
3 359 358 355
3 355 98 359
3 358 97 355
3 359 1 358
3 362 360 361
3 361 101 362
3 360 100 361
3 362 99 360
3 364 363 361
3 361 100 364
3 363 101 361
3 364 31 363
3 366 365 360
3 360 99 366
3 365 100 360
3 366 29 365
3 368 367 362
3 362 101 368
3 367 99 362
3 368 30 367
3 371 369 370
3 370 93 371
3 369 100 370
3 371 102 369
3 365 343 370
3 370 100 365
3 343 93 370
3 365 29 343
3 372 364 369
3 369 102 372
3 364 100 369
3 372 31 364
3 344 373 371
3 371 93 344
3 373 102 371
3 344 2 373
3 376 374 375
3 375 103 376
3 374 99 375
3 376 98 374
3 367 377 375
3 375 99 367
3 377 103 375
3 367 30 377
3 356 366 374
3 374 98 356
3 366 99 374
3 356 29 366
3 378 359 376
3 376 103 378
3 359 98 376
3 378 1 359
3 381 379 380
3 380 105 381
3 379 101 380
3 381 104 379
3 363 382 380
3 380 101 363
3 382 105 380
3 363 31 382
3 383 368 379
3 379 104 383
3 368 101 379
3 383 30 368
3 385 384 381
3 381 105 385
3 384 104 381
3 385 6 384
3 388 386 387
3 387 108 388
3 386 107 387
3 388 106 386
3 390 389 387
3 387 107 390
3 389 108 387
3 390 34 389
3 392 391 386
3 386 106 392
3 391 107 386
3 392 33 391
3 394 393 388
3 388 108 394
3 393 106 388
3 394 32 393
3 397 395 396
3 396 110 397
3 395 107 396
3 397 109 395
3 391 398 396
3 396 107 391
3 398 110 396
3 391 33 398
3 399 390 395
3 395 109 399
3 390 107 395
3 399 34 390
3 401 400 397
3 397 110 401
3 400 109 397
3 401 8 400
3 404 402 403
3 403 112 404
3 402 106 403
3 404 111 402
3 393 405 403
3 403 106 393
3 405 112 403
3 393 32 405
3 406 392 402
3 402 111 406
3 392 106 402
3 406 33 392
3 408 407 404
3 404 112 408
3 407 111 404
3 408 0 407
3 411 409 410
3 410 114 411
3 409 108 410
3 411 113 409
3 389 412 410
3 410 108 389
3 412 114 410
3 389 34 412
3 413 394 409
3 409 113 413
3 394 108 409
3 413 32 394
3 415 414 411
3 411 114 415
3 414 113 411
3 415 11 414
3 418 416 417
3 417 117 418
3 416 116 417
3 418 115 416
3 420 419 417
3 417 116 420
3 419 117 417
3 420 36 419
3 422 421 416
3 416 115 422
3 421 116 416
3 422 34 421
3 424 423 418
3 418 117 424
3 423 115 418
3 424 35 423
3 427 425 426
3 426 109 427
3 425 116 426
3 427 118 425
3 421 399 426
3 426 116 421
3 399 109 426
3 421 34 399
3 428 420 425
3 425 118 428
3 420 116 425
3 428 36 420
3 400 429 427
3 427 109 400
3 429 118 427
3 400 8 429
3 432 430 431
3 431 119 432
3 430 115 431
3 432 114 430
3 423 433 431
3 431 115 423
3 433 119 431
3 423 35 433
3 412 422 430
3 430 114 412
3 422 115 430
3 412 34 422
3 434 415 432
3 432 119 434
3 415 114 432
3 434 11 415
3 437 435 436
3 436 121 437
3 435 117 436
3 437 120 435
3 419 438 436
3 436 117 419
3 438 121 436
3 419 36 438
3 439 424 435
3 435 120 439
3 424 117 435
3 439 35 424
3 441 440 437
3 437 121 441
3 440 120 437
3 441 1 440
3 444 442 443
3 443 124 444
3 442 123 443
3 444 122 442
3 446 445 443
3 443 123 446
3 445 124 443
3 446 39 445
3 448 447 442
3 442 122 448
3 447 123 442
3 448 38 447
3 450 449 444
3 444 124 450
3 449 122 444
3 450 37 449
3 453 451 452
3 452 126 453
3 451 123 452
3 453 125 451
3 447 454 452
3 452 123 447
3 454 126 452
3 447 38 454
3 455 446 451
3 451 125 455
3 446 123 451
3 455 39 446
3 457 456 453
3 453 126 457
3 456 125 453
3 457 9 456
3 460 458 459
3 459 128 460
3 458 122 459
3 460 127 458
3 449 461 459
3 459 122 449
3 461 128 459
3 449 37 461
3 462 448 458
3 458 127 462
3 448 122 458
3 462 38 448
3 464 463 460
3 460 128 464
3 463 127 460
3 464 10 463
3 467 465 466
3 466 130 467
3 465 124 466
3 467 129 465
3 445 468 466
3 466 124 445
3 468 130 466
3 445 39 468
3 469 450 465
3 465 129 469
3 450 124 465
3 469 37 450
3 471 470 467
3 467 130 471
3 470 129 467
3 471 3 470
3 474 472 473
3 473 133 474
3 472 132 473
3 474 131 472
3 476 475 473
3 473 132 476
3 475 133 473
3 476 38 475
3 478 477 472
3 472 131 478
3 477 132 472
3 478 41 477
3 480 479 474
3 474 133 480
3 479 131 474
3 480 40 479
3 483 481 482
3 482 134 483
3 481 132 482
3 483 126 481
3 477 484 482
3 482 132 477
3 484 134 482
3 477 41 484
3 454 476 481
3 481 126 454
3 476 132 481
3 454 38 476
3 485 457 483
3 483 134 485
3 457 126 483
3 485 9 457
3 488 486 487
3 487 136 488
3 486 131 487
3 488 135 486
3 479 489 487
3 487 131 479
3 489 136 487
3 479 40 489
3 490 478 486
3 486 135 490
3 478 131 486
3 490 41 478
3 492 491 488
3 488 136 492
3 491 135 488
3 492 2 491
3 495 493 494
3 494 127 495
3 493 133 494
3 495 137 493
3 475 462 494
3 494 133 475
3 462 127 494
3 475 38 462
3 496 480 493
3 493 137 496
3 480 133 493
3 496 40 480
3 463 497 495
3 495 127 463
3 497 137 495
3 463 10 497
3 500 498 499
3 499 140 500
3 498 139 499
3 500 138 498
3 502 501 499
3 499 139 502
3 501 140 499
3 502 33 501
3 504 503 498
3 498 138 504
3 503 139 498
3 504 13 503
3 506 505 500
3 500 140 506
3 505 138 500
3 506 23 505
3 509 507 508
3 508 47 509
3 507 139 508
3 509 110 507
3 503 182 508
3 508 139 503
3 182 47 508
3 503 13 182
3 398 502 507
3 507 110 398
3 502 139 507
3 398 33 502
3 183 401 509
3 509 47 183
3 401 110 509
3 183 8 401
3 512 510 511
3 511 79 512
3 510 138 511
3 512 46 510
3 505 294 511
3 511 138 505
3 294 79 511
3 505 23 294
3 174 504 510
3 510 46 174
3 504 138 510
3 174 13 504
3 295 177 512
3 512 79 295
3 177 46 512
3 295 4 177
3 515 513 514
3 514 111 515
3 513 140 514
3 515 78 513
3 501 406 514
3 514 140 501
3 406 111 514
3 501 33 406
3 286 506 513
3 513 78 286
3 506 140 513
3 286 23 506
3 407 289 515
3 515 111 407
3 289 78 515
3 407 0 289
3 518 516 517
3 517 143 518
3 516 142 517
3 518 141 516
3 520 519 517
3 517 142 520
3 519 143 517
3 520 19 519
3 522 521 516
3 516 141 522
3 521 142 516
3 522 32 521
3 524 523 518
3 518 143 524
3 523 141 518
3 524 26 523
3 527 525 526
3 526 113 527
3 525 142 526
3 527 66 525
3 521 413 526
3 526 142 521
3 413 113 526
3 521 32 413
3 244 520 525
3 525 66 244
3 520 142 525
3 244 19 520
3 414 247 527
3 527 113 414
3 247 66 527
3 414 11 247
3 530 528 529
3 529 86 530
3 528 141 529
3 530 112 528
3 523 316 529
3 529 141 523
3 316 86 529
3 523 26 316
3 405 522 528
3 528 112 405
3 522 141 528
3 405 32 522
3 317 408 530
3 530 86 317
3 408 112 530
3 317 0 408
3 533 531 532
3 532 61 533
3 531 143 532
3 533 89 531
3 519 231 532
3 532 143 519
3 231 61 532
3 519 19 231
3 326 524 531
3 531 89 326
3 524 143 531
3 326 26 524
3 232 329 533
3 533 61 232
3 329 89 533
3 232 5 329
3 536 534 535
3 535 146 536
3 534 145 535
3 536 144 534
3 538 537 535
3 535 145 538
3 537 146 535
3 538 22 537
3 540 539 534
3 534 144 540
3 539 145 534
3 540 16 539
3 542 541 536
3 536 146 542
3 541 144 536
3 542 39 541
3 545 543 544
3 544 54 545
3 543 145 544
3 545 80 543
3 539 204 544
3 544 145 539
3 204 54 544
3 539 16 204
3 293 538 543
3 543 80 293
3 538 145 543
3 293 22 538
3 205 296 545
3 545 54 205
3 296 80 545
3 205 4 296
3 548 546 547
3 547 125 548
3 546 144 547
3 548 57 546
3 541 455 547
3 547 144 541
3 455 125 547
3 541 39 455
3 214 540 546
3 546 57 214
3 540 144 546
3 214 16 540
3 456 217 548
3 548 125 456
3 217 57 548
3 456 9 217
3 551 549 550
3 550 81 551
3 549 146 550
3 551 130 549
3 537 301 550
3 550 146 537
3 301 81 550
3 537 22 301
3 468 542 549
3 549 130 468
3 542 146 549
3 468 39 542
3 302 471 551
3 551 81 302
3 471 130 551
3 302 3 471
3 554 552 553
3 553 149 554
3 552 148 553
3 554 147 552
3 556 555 553
3 553 148 556
3 555 149 553
3 556 21 555
3 558 557 552
3 552 147 558
3 557 148 552
3 558 25 557
3 560 559 554
3 554 149 560
3 559 147 554
3 560 37 559
3 563 561 562
3 562 88 563
3 561 148 562
3 563 70 561
3 557 327 562
3 562 148 557
3 327 88 562
3 557 25 327
3 260 556 561
3 561 70 260
3 556 148 561
3 260 21 556
3 328 261 563
3 563 88 328
3 261 70 563
3 328 5 261
3 566 564 565
3 565 129 566
3 564 147 565
3 566 87 564
3 559 469 565
3 565 147 559
3 469 129 565
3 559 37 469
3 321 558 564
3 564 87 321
3 558 147 564
3 321 25 558
3 470 322 566
3 566 129 470
3 322 87 566
3 470 3 322
3 569 567 568
3 568 71 569
3 567 149 568
3 569 128 567
3 555 266 568
3 568 149 555
3 266 71 568
3 555 21 266
3 461 560 567
3 567 128 461
3 560 149 567
3 461 37 560
3 267 464 569
3 569 71 267
3 464 128 569
3 267 10 464
3 572 570 571
3 571 152 572
3 570 151 571
3 572 150 570
3 574 573 571
3 571 151 574
3 573 152 571
3 574 27 573
3 576 575 570
3 570 150 576
3 575 151 570
3 576 12 575
3 578 577 572
3 572 152 578
3 577 150 572
3 578 36 577
3 581 579 580
3 580 49 581
3 579 151 580
3 581 96 579
3 575 189 580
3 580 151 575
3 189 49 580
3 575 12 189
3 349 574 579
3 579 96 349
3 574 151 579
3 349 27 574
3 190 352 581
3 581 49 190
3 352 96 581
3 190 7 352
3 584 582 583
3 583 118 584
3 582 150 583
3 584 48 582
3 577 428 583
3 583 150 577
3 428 118 583
3 577 36 428
3 181 576 582
3 582 48 181
3 576 150 582
3 181 12 576
3 429 184 584
3 584 118 429
3 184 48 584
3 429 8 184
3 587 585 586
3 586 97 587
3 585 152 586
3 587 121 585
3 573 357 586
3 586 152 573
3 357 97 586
3 573 27 357
3 438 578 585
3 585 121 438
3 578 152 585
3 438 36 578
3 358 441 587
3 587 97 358
3 441 121 587
3 358 1 441
3 590 588 589
3 589 155 590
3 588 154 589
3 590 153 588
3 592 591 589
3 589 154 592
3 591 155 589
3 592 17 591
3 594 593 588
3 588 153 594
3 593 154 588
3 594 30 593
3 596 595 590
3 590 155 596
3 595 153 590
3 596 35 595
3 599 597 598
3 598 104 599
3 597 154 598
3 599 64 597
3 593 383 598
3 598 154 593
3 383 104 598
3 593 30 383
3 237 592 597
3 597 64 237
3 592 154 597
3 237 17 592
3 384 240 599
3 599 104 384
3 240 64 599
3 384 6 240
3 602 600 601
3 601 120 602
3 600 153 601
3 602 103 600
3 595 439 601
3 601 153 595
3 439 120 601
3 595 35 439
3 377 594 600
3 600 103 377
3 594 153 600
3 377 30 594
3 440 378 602
3 602 120 440
3 378 103 602
3 440 1 378
3 605 603 604
3 604 65 605
3 603 155 604
3 605 119 603
3 591 245 604
3 604 155 591
3 245 65 604
3 591 17 245
3 433 596 603
3 603 119 433
3 596 155 603
3 433 35 596
3 246 434 605
3 605 65 246
3 434 119 605
3 246 11 434
3 608 606 607
3 607 158 608
3 606 157 607
3 608 156 606
3 610 609 607
3 607 157 610
3 609 158 607
3 610 15 609
3 612 611 606
3 606 156 612
3 611 157 606
3 612 28 611
3 614 613 608
3 608 158 614
3 613 156 608
3 614 41 613
3 617 615 616
3 616 95 617
3 615 157 616
3 617 55 615
3 611 350 616
3 616 157 611
3 350 95 616
3 611 28 350
3 209 610 615
3 615 55 209
3 610 157 615
3 209 15 610
3 351 210 617
3 617 95 351
3 210 55 617
3 351 7 210
3 620 618 619
3 619 135 620
3 618 156 619
3 620 94 618
3 613 490 619
3 619 156 613
3 490 135 619
3 613 41 490
3 342 612 618
3 618 94 342
3 612 156 618
3 342 28 612
3 491 345 620
3 620 135 491
3 345 94 620
3 491 2 345
3 623 621 622
3 622 56 623
3 621 158 622
3 623 134 621
3 609 215 622
3 622 158 609
3 215 56 622
3 609 15 215
3 484 614 621
3 621 134 484
3 614 158 621
3 484 41 614
3 216 485 623
3 623 56 216
3 485 134 623
3 216 9 485
3 626 624 625
3 625 161 626
3 624 160 625
3 626 159 624
3 628 627 625
3 625 160 628
3 627 161 625
3 628 31 627
3 630 629 624
3 624 159 630
3 629 160 624
3 630 20 629
3 632 631 626
3 626 161 632
3 631 159 626
3 632 40 631
3 635 633 634
3 634 73 635
3 633 160 634
3 635 105 633
3 629 272 634
3 634 160 629
3 272 73 634
3 629 20 272
3 382 628 633
3 633 105 382
3 628 160 633
3 382 31 628
3 273 385 635
3 635 73 273
3 385 105 635
3 273 6 385
3 638 636 637
3 637 137 638
3 636 159 637
3 638 72 636
3 631 496 637
3 637 159 631
3 496 137 637
3 631 40 496
3 265 630 636
3 636 72 265
3 630 159 636
3 265 20 630
3 497 268 638
3 638 137 497
3 268 72 638
3 497 10 268
3 641 639 640
3 640 102 641
3 639 161 640
3 641 136 639
3 627 372 640
3 640 161 627
3 372 102 640
3 627 31 372
3 489 632 639
3 639 136 489
3 632 161 639
3 489 40 632
3 373 492 641
3 641 102 373
3 492 136 641
3 373 2 492
