# vtk DataFile Version 3.0
this file was written using fslvtkio
ASCII
DATASET POLYDATA
POINTS 1068 float
96.098 143.154 103.221
95.1338 142.891 104.474
95.6574 141.964 103.811
96.6098 141.743 103.014
97.3381 143.308 102.622
97.789 141.962 102.659
98.6688 143.349 102.48
99.147 142.097 102.841
99.85 143.271 102.754
100.398 142.304 103.291
95.7425 144.162 104.213
94.6879 143.628 105.464
96.8704 144.649 103.319
98.2077 144.788 102.862
99.6946 144.638 102.877
100.867 143.878 103.303
95.3089 144.922 105.175
94.4502 144.737 106.32
96.3929 145.625 104.355
97.7225 146.043 103.869
99.1465 145.938 103.671
100.473 145.262 103.903
95.7079 146.005 105.584
97.0995 146.73 104.957
98.6453 146.976 104.846
99.8248 146.473 104.743
100.559 137.53 102.012
99.5496 136.602 102.634
100.482 135.973 102.088
101.605 136.372 101.982
101.804 137.685 102.556
102.649 136.902 102.683
99.2352 138.051 102.385
98.251 138.413 103.248
98.6154 137.17 103.512
100.346 138.917 102.599
101.385 138.8 103.1
102.618 138.26 103.431
98.409 139.656 102.663
97.4058 139.219 103.68
99.5952 139.647 102.66
100.931 140.157 103.357
102.284 139.596 103.972
96.011 140.795 103.924
94.9695 141.462 104.775
95.5105 140.355 105.233
96.3334 139.709 104.532
97.1628 140.425 103.209
98.426 141.056 102.871
99.776 140.965 103.18
100.998 141.502 103.89
101.96 140.758 104.309
94.3647 142.166 105.725
101.641 142.898 103.921
93.9866 143.065 106.634
101.648 144.465 104.215
93.6954 143.997 107.428
100.83 145.915 105.034
94.8911 146.03 106.733
94.0621 145.352 107.801
95.9699 146.987 106.274
97.382 147.42 105.947
98.6353 147.471 106.116
99.7306 147.063 106.199
95.0191 146.8 107.66
96.3392 147.386 107.347
97.584 147.537 107.094
103.978 132.706 102.26
102.617 132.216 102.676
103.5 131.294 103.366
104.695 131.228 102.937
105.225 132.907 103.067
105.728 131.701 103.299
106.098 132.918 103.735
106.373 131.855 104.28
102.564 133.611 101.913
101.062 134.014 102.518
101.695 133.037 103.199
103.713 134.447 102.36
104.788 134.458 102.964
105.833 134.321 103.749
106.377 133.257 104.683
101.439 134.889 101.992
100.083 135.17 102.882
102.756 135.413 102.322
104.102 135.965 103.117
105.306 135.849 103.882
106.289 135.088 104.722
99.2829 136.007 103.928
103.617 137.242 103.511
104.818 137.375 104.363
105.964 136.816 104.972
97.6686 137.796 104.468
98.4306 136.643 104.865
103.29 138.864 104.319
104.269 138.707 104.86
105.615 138.264 105.701
96.9584 138.698 104.787
96.2608 139.108 105.83
97.0021 138.117 105.92
103.278 140.527 104.911
104.338 140.15 105.493
105.154 139.352 105.823
94.7218 140.876 106.211
95.438 139.734 106.493
102.278 141.921 104.666
103.172 142.023 105.431
104.076 141.379 106.061
94.0207 141.572 107.092
102.564 143.479 104.855
103.121 143.344 105.891
103.748 142.565 106.339
93.6322 142.47 107.986
101.923 145.047 105.356
102.647 144.573 106.152
93.4603 144.187 108.571
100.94 146.283 106.2
101.684 145.6 106.562
93.7745 145.486 109.243
99.675 147.024 107.824
98.5942 147.414 107.299
100.728 146.494 107.41
94.5074 146.556 108.829
95.7923 147.258 108.82
97.1549 147.384 108.436
102.421 132.018 104.265
103.351 130.606 104.522
104.473 130.055 104.009
105.694 130.545 103.982
106.224 131.394 105.299
100.637 134.087 103.9
101.53 133.192 104.521
106.19 132.945 105.732
99.892 134.971 104.391
106.445 134.442 105.752
106.564 135.839 105.785
106.401 135.031 107.002
99.2325 135.611 105.415
106.474 137.197 106.087
106.568 136.314 107.187
97.6117 137.12 105.857
98.2691 136.326 106.234
106.47 137.946 106.749
106.446 137.374 107.866
96.1148 138.526 107.099
96.8399 137.489 107.149
105.211 140.433 106.608
105.959 139.476 106.816
106.429 138.583 107.387
94.5608 140.191 107.535
95.3403 139.053 107.852
105.016 141.2 107.088
105.589 140.738 108.024
93.8915 140.854 108.362
103.605 143.7 106.995
104.218 142.559 107.226
104.857 141.845 107.666
93.3081 142.68 109.071
102.772 144.693 107.33
103.529 143.878 108.268
93.1391 144.128 109.744
102.514 144.802 108.261
101.656 145.625 107.639
93.4776 145.179 110.451
98.4308 147.235 108.376
99.3018 146.797 108.803
100.435 146.243 108.808
94.2365 146.319 110.353
95.3932 146.909 110.107
96.7319 147.053 109.774
97.9775 146.967 109.383
102.752 131.278 105.219
103.126 130.28 105.785
104.149 129.567 105.334
105.573 129.955 105.345
105.627 131.577 106.654
100.829 133.747 105.466
101.673 132.76 105.687
102.238 131.765 106.153
105.86 132.83 106.953
106.204 133.865 106.649
105.949 133.972 107.834
99.9443 134.489 105.782
100.365 133.772 106.884
106.116 135.096 108.365
98.9755 135.384 106.782
106.198 136.173 108.795
97.4383 136.582 107.529
98.2263 136.021 107.136
106.132 137.156 109.291
96.0957 137.737 108.415
96.7868 137.067 108.108
106.025 139.534 108.156
106.107 138.31 108.958
94.5575 139.304 108.92
95.3311 138.423 108.807
105.639 140.151 108.934
105.593 139.369 109.579
93.7445 140.366 109.319
93.2759 140.529 110.509
93.9271 139.561 109.976
104.234 142.691 108.418
104.944 141.621 108.924
105.177 140.657 109.737
93.3267 141.639 109.627
92.9284 141.558 111.002
103.782 143.414 109.085
104.173 142.729 109.604
93.0208 142.92 110.403
92.7545 142.57 111.674
101.601 145.429 108.694
102.58 144.468 109.216
103.117 143.795 109.924
93.0129 144.134 111.155
92.8588 143.699 112.295
100.086 145.779 110.19
99.0801 146.406 109.722
101.131 145.342 109.594
93.5689 145.435 111.626
94.4708 146.205 111.809
95.3875 146.563 111.361
96.6107 146.704 110.98
97.8016 146.59 110.504
104.511 129.209 106.52
103.125 129.565 106.823
103.602 128.777 107.975
104.764 129.384 107.794
105.39 130.176 106.748
105.009 130.678 108.157
102.575 130.672 106.816
105.115 131.695 108.557
101.192 132.864 107.252
101.871 131.58 107.43
105.549 132.743 108.167
105.67 133.787 109.097
99.2435 134.508 107.515
99.8393 133.527 108.457
105.831 134.951 109.792
97.9693 135.79 108.051
97.8073 135.475 109.203
98.5451 134.992 108.394
105.797 136.115 110.29
96.7209 136.635 109.096
96.1247 136.411 110.41
96.991 135.744 110.145
105.754 137.455 110.431
95.5619 137.684 109.735
94.7107 137.708 110.972
95.351 136.721 111.249
105.502 138.512 110.585
94.4552 138.586 110.112
93.591 139.33 111.131
93.8909 138.185 111.595
105.141 139.665 110.823
92.9634 140.146 111.837
104.527 140.699 111.039
104.363 141.701 110.196
92.6563 141.086 112.47
103.601 142.799 110.622
92.5908 142.164 113.028
102.539 143.589 111.081
101.954 144.48 110.197
92.7769 143.203 113.566
99.7701 145.356 111.293
98.7959 146.048 110.821
100.892 144.992 110.75
93.2709 144.68 112.833
94.1023 145.641 112.936
95.3211 146.183 112.71
96.4484 146.265 112.172
97.6313 146.112 111.705
102.612 129.477 108.13
101.699 130.165 109.257
102.362 128.857 109.21
103.57 128.412 109.103
104.524 129.556 109.111
104.486 130.509 109.986
102.033 130.542 108.068
101.283 131.651 108.64
104.711 131.498 110.441
100.626 132.674 108.809
105.249 132.609 109.723
105.36 133.652 110.525
98.7853 134.374 109.091
98.0634 133.879 110.659
98.9862 133.435 110.033
99.7955 132.796 109.924
105.425 134.83 111.173
97.6818 134.782 110.306
96.6125 135.075 111.451
97.1548 134.06 111.817
105.353 136.208 111.535
95.8942 135.514 112.09
105.176 137.454 111.772
94.466 137.224 112.166
95.0587 136.092 112.587
104.905 138.636 111.929
93.2422 138.899 112.503
93.622 137.736 112.935
104.563 139.718 111.988
92.7616 139.648 113.278
103.959 140.77 112.122
103.794 141.775 111.34
92.51 140.631 113.895
103.005 142.592 111.79
92.5603 141.733 114.375
102.071 143.346 112.232
101.52 144.262 111.382
92.8469 142.77 114.796
98.6506 145.605 111.659
99.3772 145.188 112.153
100.404 144.739 112.032
93.2822 144.154 114.04
94.0258 145.117 113.989
95.1676 145.609 113.872
96.3345 145.774 113.426
97.3532 145.607 112.921
98.255 145.378 112.488
102.823 127.781 109.858
101.673 128.762 110.293
102.175 127.258 110.592
103.519 126.973 110.948
103.989 128.165 110.019
103.867 128.048 111.292
104.162 129.214 110.384
104.019 129.208 111.654
101.091 130.372 110.211
104.232 130.224 111.879
100.669 131.499 110.029
104.472 131.233 112.179
100.277 132.181 110.082
99.5716 131.856 111.237
100.186 131.526 110.754
104.945 132.475 111.288
105.143 133.59 112.024
97.8872 132.905 111.769
98.966 132.568 111.094
105.098 134.881 112.463
96.0795 133.996 113.039
96.8176 133.112 112.801
104.929 136.26 112.791
95.2277 134.77 113.302
104.648 137.556 113.025
94.1823 136.489 113.33
94.7117 135.59 113.329
104.262 138.795 113.148
92.8576 138.248 113.975
93.3876 137.137 113.979
104.042 139.939 112.857
92.5296 139.147 114.704
103.528 140.562 113.128
103.198 141.57 112.623
92.4186 140.275 115.283
102.49 142.359 112.963
92.6641 141.347 115.7
101.602 142.98 113.264
101.074 143.949 112.448
93.0711 142.391 115.869
100.134 144.143 113.164
99.3043 144.812 112.956
93.4459 143.677 115.116
94.1522 144.565 115.055
95.1873 145.08 114.912
96.258 145.202 114.538
97.2455 145.096 114.071
98.2451 145.037 113.482
102.637 126.102 111.191
101.395 127.132 111.353
101.885 125.367 112.006
103.134 125.478 112.223
103.653 126.517 112.117
103.471 126.226 113.43
101.01 128.596 111.249
103.652 127.738 112.576
103.806 128.867 113.266
100.563 129.733 111.417
99.7505 129.326 112.509
100.424 128.784 111.956
103.969 129.889 113.708
100.019 130.838 111.394
99.1567 130.541 112.417
104.194 131.052 113.652
98.6335 131.784 112.218
97.863 131.013 113.305
98.5369 130.725 112.873
104.713 132.359 112.727
104.733 133.623 113.397
97.3594 132.207 112.975
95.8561 132.549 114.05
96.7092 131.512 113.99
104.687 135.011 113.688
94.9657 133.537 114.317
104.44 136.391 113.959
94.4669 135.066 114.059
93.6343 135.015 115.087
94.1096 134.111 114.864
104.027 137.59 114.2
93.6676 136.059 114.481
92.9423 137.041 115.076
93.0486 135.718 115.667
103.852 138.68 114.079
103.451 138.306 115.011
103.299 139.459 114.475
92.511 137.903 115.59
103.706 139.705 113.687
102.965 140.589 113.984
92.3333 138.994 116.15
102.402 141.361 113.909
92.5187 140.107 116.666
101.817 142.12 114.033
93.0118 141.14 116.863
101.335 142.727 113.955
100.815 143.443 113.622
93.3453 142.299 116.576
93.5993 143.231 116.061
93.9952 142.996 116.983
100.04 143.736 113.912
99.2052 144.35 113.891
94.2943 143.992 115.997
95.305 144.497 115.878
96.1972 144.714 115.47
97.2303 144.591 115.23
98.1412 144.53 114.441
100.963 126.391 112.258
100.243 126.269 113.172
100.8 125.216 112.985
101.872 124.362 112.812
103.163 124.802 113.238
103.162 125.517 114.828
100.38 127.804 112.39
99.6666 127.106 113.659
103.406 127.401 114.084
103.576 128.614 114.798
99.3943 128.417 113.469
98.3349 128.416 114.374
99.0939 127.672 114.065
103.728 129.889 115.319
98.6163 129.77 113.521
97.5202 129.431 114.552
104.04 131.202 114.691
104.361 132.309 113.793
104.203 132.594 114.777
97.194 130.456 114.208
95.7142 131.184 115.018
96.444 129.902 115.051
104.343 133.873 114.64
94.7793 132.171 115.326
104.264 135.227 114.823
94.2634 133.062 115.427
103.929 136.301 115.092
93.2683 134.102 116.033
93.7498 133.429 115.775
103.522 137.209 115.515
92.5871 136.539 116.498
92.7245 134.971 116.644
102.937 138.275 115.933
102.819 139.51 115.173
92.3104 137.662 117.028
102.221 140.298 115.179
92.4323 138.865 117.575
101.706 141.175 115.141
92.9714 140.011 117.932
101.142 142.393 114.582
101.176 141.616 115.302
100.662 142 115.421
93.468 140.973 117.802
93.5105 141.958 117.298
93.9977 141.893 117.928
100.222 143.143 114.535
99.9614 142.282 115.686
99.4792 142.963 115.329
94.6496 142.694 117.772
98.2388 143.894 115.268
98.1292 143.357 116.013
97.4684 143.78 115.984
99.2058 143.739 114.725
98.725 143.095 115.794
94.7192 143.544 116.946
95.5364 143.9 116.703
96.5238 144.106 116.274
102.63 123.35 113.274
101.217 123.453 113.539
101.402 122.554 113.897
102.801 122.656 114.23
103.325 124.079 114.297
103.063 123.751 115.524
99.6708 125.245 114.208
100.377 124.219 113.689
102.84 125.297 116.181
98.9014 126.829 114.493
98.2441 126.096 115.369
99.0092 125.614 114.83
103.186 127.031 115.377
103.386 128.449 116.174
97.6683 127.484 115.149
96.3407 127.777 116.036
97.101 126.554 116.025
103.422 129.897 116.749
96.7849 128.655 115.313
95.4854 129.612 115.902
103.837 131.234 115.729
103.902 132.655 115.973
94.6992 130.713 116.129
103.9 133.986 115.719
93.9349 131.472 116.471
93.2252 131.021 117.775
93.8687 130.42 117.263
103.708 134.972 116.039
93.5297 132.506 116.599
92.8783 132.162 117.806
103.411 135.942 116.381
92.8467 133.51 117.069
92.4093 135.105 117.626
92.4738 133.37 117.956
103.019 137.023 116.49
92.3173 136.373 117.952
102.518 137.839 116.826
102.219 138.981 116.274
92.4251 137.55 118.413
101.652 139.822 116.389
92.8676 138.739 118.827
101.087 140.803 116.009
100.999 139.794 117.14
100.428 140.484 116.933
93.4159 139.809 118.905
98.7357 141.75 117.261
98.4631 140.814 118.484
98.0717 141.702 117.735
99.5363 141.27 117.031
99.0805 140.814 117.937
100.225 141.368 116.316
99.7496 140.34 117.713
93.935 140.711 118.663
94.5838 141.589 118.582
98.1696 142.724 116.669
97.5309 142.301 117.488
99.201 142.214 116.408
95.176 142.244 118.234
95.4849 143.093 117.524
96.3085 143.295 117.128
95.9683 142.415 118.095
97.188 143.182 116.784
96.7507 142.457 117.814
100.108 121.425 115.016
99.0738 121.784 115.608
99.5994 120.205 115.862
100.985 120.309 115.401
101.237 121.699 114.533
102.224 120.982 115.23
102.828 122.092 114.995
102.817 122.073 116.069
99.9661 123.135 114.542
98.8409 123.041 115.604
102.644 123.58 116.774
99.036 124.406 115.097
97.7575 124.4 116.18
97.8465 123.419 116.363
102.629 125.166 117.511
97.7233 125.398 115.949
96.271 125.884 116.803
96.9034 124.741 116.648
103.042 126.83 116.688
103.165 128.302 117.542
95.5582 127.617 116.711
103.21 129.603 117.827
94.9234 128.624 116.909
93.7541 128.45 118.024
94.5429 127.496 117.568
103.462 131.189 116.789
103.139 130.841 118.071
94.3662 129.593 117.107
93.2176 129.643 118.417
103.443 132.218 117.084
103.476 133.494 116.946
92.5553 130.712 119.022
103.194 134.541 117.285
92.4587 132.29 118.599
92.2281 133.732 118.749
92.1723 131.923 119.556
102.869 135.864 117.268
92.2713 135.012 118.951
102.6 136.822 117.246
102.394 136.09 117.969
102.08 137.391 117.72
92.472 136.205 119.301
101.687 138.435 117.396
92.8704 137.375 119.651
101.319 139.064 117.436
93.3486 138.322 119.868
93.6186 139.352 119.581
94.2898 138.98 120.167
100.388 139.8 117.73
100.519 139.003 118.306
99.9445 139.422 118.513
100.954 138.76 118.044
93.9103 140.03 119.313
94.5328 139.892 119.78
98.1581 140.005 119.37
97.7117 141.145 118.764
99.0615 139.853 118.823
95.4817 141.538 118.923
94.7996 140.781 119.335
96.3761 141.616 118.767
95.9219 140.82 119.561
97.1647 141.682 118.457
96.8458 140.889 119.414
97.2731 120.717 117.267
96.0913 120.438 118.124
96.838 119.392 117.77
98.1057 119.506 116.741
98.3757 120.884 116.391
99.5984 119.045 116.225
101.169 119.284 116.19
102.359 120.355 116.279
102.425 121.686 117.221
96.7028 122.036 117.478
95.6993 122.083 118.168
97.7232 122.273 116.687
102.285 123.209 117.906
96.4899 123.637 117.28
95.3397 123.463 118.139
102.292 124.47 118.622
95.6021 124.836 117.56
94.4299 125.628 118.323
94.6933 124.367 118.444
102.813 126.671 117.819
102.45 126.022 118.878
95.1494 126.457 117.477
93.765 126.993 118.583
102.809 127.644 118.531
102.803 129.074 118.743
92.9311 128.222 119.082
102.662 130.346 119.13
92.5035 129.433 119.745
103.103 132.252 118.025
102.563 131.738 119.073
92.2029 130.63 120.418
102.823 133.273 118.285
102.24 132.865 119.438
92.1868 133.541 119.811
92.1734 132.159 120.624
102.278 134.175 118.922
101.775 133.691 119.758
101.654 134.723 119.493
102.669 134.768 118.139
92.453 134.713 120.244
101.886 135.81 118.719
101.207 135.49 119.684
92.7285 135.934 120.513
101.473 137.012 118.709
100.827 136.626 119.671
93.2687 136.727 120.719
100.74 137.783 118.953
100.486 137.217 119.696
100.026 137.634 119.729
101.321 138.201 118.144
93.6634 137.622 120.681
95.3319 139.234 120.43
94.5211 138.24 120.752
95.6248 138.481 121.019
99.9162 138.619 119.132
99.3483 138.112 119.905
99.0943 138.969 119.491
95.4918 140.064 119.95
96.3755 139.099 120.643
96.55 139.913 120.063
97.4058 140.218 119.65
97.3735 139.183 120.335
98.2837 139.122 119.911
98.7368 117.089 117.22
97.1958 117.024 117.858
97.5736 116.059 117.749
99.15 115.785 117.55
100.293 117.176 117.19
100.43 116.334 117.791
101.22 117.679 117.804
100.985 117.17 118.556
97.3308 118.193 117.583
95.7003 118.809 118.772
96.1418 117.595 118.675
98.7203 118.323 116.754
100.107 118.157 116.647
101.481 118.573 117.222
101.439 118.729 118.599
95.0659 120.449 118.882
102.112 120.002 117.481
101.923 121.513 118.376
94.8323 122.302 118.897
101.882 122.991 119.073
94.5273 123.459 118.82
93.748 124.398 119.351
93.8932 122.993 119.439
101.999 124.749 119.696
93.4248 125.759 119.414
102.025 126.278 120.112
92.8904 126.939 119.781
102.461 127.639 119.458
102.287 128.999 119.823
92.3924 128.041 120.458
102.126 130.302 120.072
92.3116 129.193 121.101
101.904 131.555 120.199
92.3488 130.331 121.683
101.751 132.619 120.161
92.4831 133.336 121.104
92.4719 131.761 121.663
101.409 132.998 120.371
101.061 133.824 120.47
92.9567 134.637 121.372
93.0105 133.363 122.064
100.522 135.329 120.328
93.4327 135.809 121.42
93.8553 134.791 122.161
100.162 136.593 120.278
99.8914 135.399 120.845
99.4929 136.179 120.943
93.9435 136.759 121.3
94.3793 136.025 121.927
98.486 137.345 121.036
98.0884 136.481 121.697
97.6214 137.312 121.495
99.3559 137.259 120.563
98.8464 136.238 121.362
94.6541 137.394 121.357
96.7019 138.302 121.164
95.6654 137.691 121.51
97.7445 138.257 120.911
96.7235 137.344 121.687
98.6524 138.256 120.393
96.6211 103.396 117.054
95.5794 103.829 117.167
95.6316 102.192 116.799
96.6491 102.286 117.355
97.077 103.415 117.957
96.6468 102.791 118.443
96.5604 104.596 117.368
95.9962 105.305 117.574
97.2509 104.533 117.981
97.0529 104.113 119.064
96.9667 105.851 117.838
97.3502 105.496 118.707
96.0417 115.241 119.037
94.6536 115.942 120.175
95.0136 114.717 120.007
96.7182 114.172 118.661
97.5234 115.069 118.023
98.5794 113.925 118.281
99.4649 114.859 118.084
100.021 114.504 119.312
95.9043 116.386 119.031
94.7947 117.424 119.789
100.563 115.814 118.684
100.829 117.468 119.483
94.5995 119.086 119.596
100.886 118.982 120.019
94.2395 120.37 119.68
93.4837 121.196 120.433
93.7232 119.693 120.405
101.526 120.201 118.911
101.432 121.702 119.733
94.1089 121.688 119.586
93.2721 122.993 120.262
101.547 123.268 120.138
92.8982 124.489 120.425
101.492 124.666 120.794
92.5738 125.722 120.755
101.166 125.625 121.432
92.3667 126.87 121.333
101.937 127.563 120.387
101.238 126.902 121.228
92.4531 128.063 122.084
101.661 128.633 120.835
100.948 128.354 121.621
92.7064 129.274 122.584
101.386 130 120.957
100.772 130.277 121.564
92.8386 130.758 122.751
101.255 131.846 120.836
100.532 131.466 121.53
93.1955 132.212 122.678
100.573 132.896 121.206
99.9669 131.767 122.065
99.6618 132.67 122.086
93.8249 133.513 122.756
98.7034 134.128 122.302
97.9906 133.397 123.092
97.684 134.276 122.734
99.6711 133.748 121.807
98.7993 132.864 122.741
100.208 134.388 121.043
94.6305 134.552 122.69
95.2131 135.62 122.399
96.4521 135.592 122.496
95.6708 134.747 122.881
97.5875 135.168 122.346
96.742 134.611 122.892
98.2955 135.427 121.814
99.237 135.013 121.515
95.1672 136.725 121.917
96.0815 136.626 122.11
97.2511 136.329 122.064
94.1195 101.591 117.464
93.7365 102.593 118.07
93.3149 101.361 118.65
94.1618 100.458 118.137
95.1779 101.109 117.153
95.2464 100.777 118.606
94.6766 103.006 117.343
94.163 103.917 118.281
96.1466 101.52 118.086
96.2691 102.504 119.27
95.0909 104.998 117.854
94.2302 105.21 118.781
96.5494 103.802 119.838
95.1425 106.646 118.433
94.2603 106.752 119.403
96.227 106.714 117.96
97.4693 106.874 118.512
97.2379 105.709 119.715
95.1564 108.147 118.936
94.118 107.957 119.931
96.2677 108.253 118.377
97.4165 108.222 118.365
97.8414 107.021 119.614
98.1372 108.207 119.206
98.0071 108.043 120.243
95.0112 109.304 119.467
93.8563 109.009 120.507
96.1781 109.748 118.633
97.5072 109.768 118.358
98.4118 109.551 119.056
98.3041 109.257 120.278
94.782 110.298 119.877
95.8404 110.997 119.057
94.6498 111.431 120.15
97.3869 111.187 118.519
98.6672 110.981 119.148
98.561 110.575 120.344
95.372 112.35 119.559
94.1926 112.521 120.846
96.7492 112.276 118.701
98.7651 112.142 118.873
98.9094 111.936 120.682
94.3801 113.427 120.697
95.5395 113.582 119.52
93.9208 114.553 121.372
97.5616 113.082 118.541
99.2132 112.877 120.596
99.4404 113.266 119.123
99.4182 113.898 120.765
93.6968 115.669 121.654
99.7543 115.083 120.817
93.9109 117.016 121.074
93.4284 117.995 121.513
93.3472 116.639 122.565
100.459 116.06 120.022
100.343 117.398 120.76
93.9639 118.318 120.55
93.1683 119.684 121.341
100.181 118.47 121.426
92.9502 121.554 121.283
101.026 120.347 120.242
100.354 119.827 121.531
92.6314 123.078 121.352
100.954 121.373 120.905
101.044 122.809 121.106
92.4151 124.449 121.735
100.85 124.001 121.784
92.4201 125.663 122.295
100.551 125.064 122.204
100.118 123.926 122.579
99.7451 125.004 122.995
92.6044 126.917 122.898
100.347 126.249 122.34
99.4605 126.52 123.221
93.0114 128.204 123.581
100.29 127.521 122.336
99.3588 127.864 123.169
93.321 129.606 123.685
99.6733 128.942 122.837
98.7386 128.557 123.658
98.6329 129.575 123.642
100.382 129.16 122.142
93.6024 131.115 123.575
99.1907 130.289 122.995
98.4823 130.699 123.479
99.9586 130.394 122.352
94.0363 132.312 123.311
99.2798 131.617 122.709
98.4553 131.814 123.298
94.6019 133.067 123.33
95.0157 133.86 123.132
96.1571 133.84 123.326
95.7235 133.049 123.667
97.1299 133.776 123.251
96.8647 132.844 123.659
97.7328 132.33 123.544
93.3628 102.928 119.085
93.2116 101.559 119.75
93.9945 100.514 119.448
94.8411 100.953 120.116
93.4349 104.2 119.68
95.6414 101.621 119.604
95.764 102.77 120.462
93.6152 105.485 119.882
96.5089 104.528 120.554
93.5349 106.525 120.652
96.7721 105.858 120.989
93.4252 107.656 121.234
97.395 107.047 120.613
97.6788 108.556 121.188
93.3657 108.57 121.802
97.9537 109.935 121.583
93.9633 110.183 120.698
93.4995 109.679 121.753
98.1455 111.258 121.819
93.7797 111.066 121.192
93.636 112.116 121.843
98.093 112.354 122.517
93.6342 113.398 122.354
93.6661 114.216 123.477
98.3036 113.416 122.571
98.7718 114.554 122.394
93.5464 115.389 123.633
98.8983 115.479 122.472
93.1804 118.207 122.504
93.4793 116.809 123.955
99.6601 116.323 121.481
99.4158 117.243 122.286
92.8721 119.993 122.346
99.462 118.67 122.568
92.7534 121.627 122.413
99.4849 119.989 122.828
92.6674 123.032 122.644
100.439 121.483 121.856
99.7809 121.236 122.728
92.6804 124.325 123.084
100.176 122.654 122.313
99.4115 123.195 123.212
92.8315 125.53 123.756
98.975 124.773 123.668
93.1345 126.713 124.086
98.626 126.228 123.92
98.1651 125.119 124.379
97.7677 126.288 124.645
93.6664 127.721 124.508
94.1474 128.89 124.511
95.5204 128.649 125.025
94.6377 127.66 125.034
96.8002 128.191 125.088
95.8268 127.324 125.323
97.7975 127.481 124.592
96.9155 126.794 125.199
98.6465 127.6 123.896
94.3621 130.264 124.175
95.4098 129.817 124.583
96.6167 129.411 124.753
97.7534 128.812 124.405
94.6397 131.52 123.947
95.5281 131.019 124.312
96.5784 130.568 124.436
97.6275 130.038 124.179
94.9569 132.414 123.666
95.7804 132.125 123.971
96.7305 131.734 124.091
97.6262 131.191 123.901
93.2594 102.734 120.351
93.7271 101.423 120.782
93.3406 103.83 121.02
93.7758 102.705 121.507
94.8621 102.036 121.092
93.3754 105.127 121.216
93.7178 104.236 122.193
94.5381 103.325 122.257
95.4426 103.313 121.523
96.0949 104.497 121.478
93.3646 106.421 122.036
96.409 106.053 122.019
93.5175 107.671 122.633
97.0518 107.417 121.719
97.2568 108.952 122.303
93.5954 108.845 123.061
97.4117 110.529 122.787
93.5191 109.928 123.109
97.3004 111.798 123.419
93.4259 110.824 122.324
93.473 111.527 123.228
97.0875 113.095 124.069
93.5565 112.505 123.258
94.6143 114.296 125.194
93.9552 113.026 124.44
96.5576 114.154 124.875
95.5389 113.117 125.306
97.7826 114.286 123.595
94.2505 115.599 124.956
95.8917 115.446 125.42
97.4676 115.194 124.21
93.2185 118.556 123.48
93.7644 117.743 124.657
94.5913 116.669 125.414
96.1726 116.694 125.533
96.781 117.74 125.165
97.3308 116.402 124.617
98.3935 116.286 123.321
93.007 120.19 123.503
97.7149 118.028 124.322
97.1249 119.088 125.182
98.4826 117.603 123.454
93.0072 121.569 123.614
97.9347 119.792 124.416
97.137 120.513 125.293
98.6352 119.04 123.641
93.0216 122.796 123.856
97.9524 121.388 124.511
97.0479 121.946 125.335
98.8106 120.716 123.656
93.1526 124.002 124.141
97.8335 122.812 124.605
96.7674 123.192 125.38
98.8579 122.166 123.694
93.5628 124.61 124.678
93.8626 125.654 124.938
95.2729 125.099 125.414
94.4662 124.326 125.247
96.648 124.401 125.503
95.6311 123.798 125.553
97.5638 124.096 124.903
98.4283 123.819 124.179
93.9534 126.821 124.899
94.9542 126.411 125.219
96.1623 125.918 125.42
97.2236 125.306 125.088
93.736 105.509 122.794
94.6269 104.846 123.134
95.4152 104.446 122.418
94.0107 106.916 123.414
94.9547 106.314 123.582
95.8145 105.853 122.894
94.1427 108.288 123.929
95.0902 107.891 124.18
95.9887 107.609 123.631
96.4686 107.47 122.696
94.0805 109.564 124.302
95.1367 109.374 124.687
96.031 109.257 124.194
96.7163 109.167 123.267
93.6999 110.618 124.077
94.7349 110.643 124.937
95.8904 110.747 124.837
96.7444 110.664 123.91
94.0508 111.747 124.47
95.0974 112.026 125.089
96.4168 112.095 124.621
93.5818 119.177 124.516
94.4596 118.341 125.399
95.4749 117.671 125.623
93.6046 120.414 124.694
94.522 119.619 125.623
95.8091 118.794 125.694
93.6785 121.581 124.851
94.7 120.752 125.734
96.0516 120.04 125.907
93.7757 122.751 124.884
94.8041 121.91 125.549
96.0603 121.313 125.785
93.8949 123.705 124.974
94.7889 123.088 125.403
95.8939 122.494 125.641
POLYGONS 2132  8528
3 0 1 2
3 0 3 4
3 2 3 0
3 4 5 6
3 3 5 4
3 6 7 8
3 5 7 6
3 7 9 8
3 10 1 0
3 11 1 10
3 4 12 0
3 12 10 0
3 6 13 4
3 13 12 4
3 8 14 6
3 14 13 6
3 15 8 9
3 14 8 15
3 16 11 10
3 17 11 16
3 12 18 10
3 18 16 10
3 13 19 12
3 19 18 12
3 14 20 13
3 20 19 13
3 21 14 15
3 20 14 21
3 16 22 17
3 18 22 16
3 23 22 18
3 19 23 18
3 24 23 19
3 20 24 19
3 25 24 20
3 21 25 20
3 26 27 28
3 26 29 30
3 28 29 26
3 29 31 30
3 32 33 34
3 27 32 34
3 27 26 32
3 26 35 32
3 30 36 26
3 36 35 26
3 37 30 31
3 36 30 37
3 38 33 32
3 39 33 38
3 35 40 32
3 40 38 32
3 36 41 35
3 41 40 35
3 42 36 37
3 41 36 42
3 43 44 45
3 43 46 47
3 45 46 43
3 39 47 46
3 39 38 47
3 38 48 47
3 40 49 38
3 49 48 38
3 50 41 51
3 50 49 41
3 49 40 41
3 42 51 41
3 2 44 43
3 2 1 44
3 1 52 44
3 3 2 43
3 47 3 43
3 5 3 47
3 48 5 47
3 7 5 48
3 49 7 48
3 49 9 7
3 49 50 9
3 50 53 9
3 1 11 52
3 52 11 54
3 9 53 15
3 53 55 15
3 11 17 54
3 54 17 56
3 15 55 21
3 55 57 21
3 58 17 22
3 58 59 17
3 59 56 17
3 22 23 60
3 58 22 60
3 23 24 61
3 60 23 61
3 62 61 24
3 62 24 63
3 63 24 25
3 57 25 21
3 63 25 57
3 58 64 59
3 60 64 58
3 65 64 60
3 61 65 60
3 66 65 61
3 62 66 61
3 67 68 69
3 67 70 71
3 69 70 67
3 71 72 73
3 70 72 71
3 72 74 73
3 75 76 77
3 68 75 77
3 68 67 75
3 67 78 75
3 71 79 67
3 79 78 67
3 73 80 71
3 80 79 71
3 81 73 74
3 80 73 81
3 82 76 75
3 83 76 82
3 78 84 75
3 84 82 75
3 79 85 78
3 85 84 78
3 80 86 79
3 86 85 79
3 87 80 81
3 86 80 87
3 28 83 82
3 28 27 83
3 27 88 83
3 29 28 82
3 84 29 82
3 31 29 84
3 31 84 89
3 89 84 85
3 86 90 85
3 90 89 85
3 91 86 87
3 90 86 91
3 34 92 93
3 33 92 34
3 88 27 34
3 93 88 34
3 89 94 37
3 31 89 37
3 90 95 89
3 95 94 89
3 96 90 91
3 95 90 96
3 97 98 99
3 97 99 92
3 97 92 39
3 39 92 33
3 94 100 42
3 37 94 42
3 101 95 102
3 101 100 95
3 100 94 95
3 96 102 95
3 45 103 104
3 44 103 45
3 98 97 46
3 98 46 104
3 104 46 45
3 39 46 97
3 51 105 50
3 51 42 100
3 51 100 105
3 105 100 106
3 107 100 101
3 106 100 107
3 44 52 103
3 103 52 108
3 105 109 53
3 50 105 53
3 110 106 111
3 110 109 106
3 109 105 106
3 107 111 106
3 52 54 108
3 108 54 112
3 109 113 55
3 53 109 55
3 114 109 110
3 113 109 114
3 54 56 112
3 112 56 115
3 113 116 57
3 55 113 57
3 117 113 114
3 116 113 117
3 56 59 115
3 115 59 118
3 63 119 120
3 62 63 120
3 116 63 57
3 116 121 63
3 121 119 63
3 117 121 116
3 59 122 118
3 64 122 59
3 65 123 64
3 64 123 122
3 66 124 65
3 65 124 123
3 120 66 62
3 124 66 120
3 69 125 126
3 68 125 69
3 70 69 127
3 69 126 127
3 72 70 128
3 70 127 128
3 128 74 72
3 129 74 128
3 77 130 131
3 76 130 77
3 125 68 77
3 131 125 77
3 74 129 81
3 129 132 81
3 76 83 130
3 130 83 133
3 134 135 87
3 134 87 132
3 132 87 81
3 134 136 135
3 83 88 133
3 133 88 137
3 135 138 91
3 87 135 91
3 139 135 136
3 138 135 139
3 93 140 141
3 92 140 93
3 137 88 93
3 141 137 93
3 138 142 96
3 91 138 96
3 143 138 139
3 142 138 143
3 99 144 145
3 98 144 99
3 140 92 99
3 145 140 99
3 102 146 101
3 102 147 146
3 96 147 102
3 96 148 147
3 96 142 148
3 143 148 142
3 104 149 150
3 103 149 104
3 144 98 104
3 150 144 104
3 146 151 107
3 101 146 107
3 152 146 147
3 151 146 152
3 103 108 149
3 149 108 153
3 111 154 110
3 111 155 154
3 107 155 111
3 107 156 155
3 107 151 156
3 152 156 151
3 108 112 153
3 153 112 157
3 154 158 114
3 110 154 114
3 159 154 155
3 158 154 159
3 112 115 157
3 157 115 160
3 158 161 162
3 158 162 114
3 114 162 117
3 159 161 158
3 115 118 160
3 160 118 163
3 119 164 120
3 165 164 119
3 165 119 166
3 166 119 121
3 162 121 117
3 166 121 162
3 118 167 163
3 122 167 118
3 123 168 122
3 122 168 167
3 124 169 123
3 123 169 168
3 164 124 120
3 164 170 124
3 170 169 124
3 165 170 164
3 126 125 171
3 172 126 171
3 172 173 126
3 173 127 126
3 128 127 174
3 127 173 174
3 174 129 128
3 175 129 174
3 131 130 176
3 131 176 177
3 125 131 177
3 125 177 178
3 125 178 171
3 172 171 178
3 179 180 132
3 179 132 175
3 175 132 129
3 179 181 180
3 176 182 183
3 176 130 182
3 130 133 182
3 177 176 183
3 132 180 134
3 180 136 134
3 180 181 136
3 181 184 136
3 133 137 182
3 182 137 185
3 136 184 139
3 184 186 139
3 141 187 188
3 140 187 141
3 185 137 141
3 188 185 141
3 139 186 143
3 186 189 143
3 145 190 191
3 144 190 145
3 187 140 145
3 191 187 145
3 148 192 147
3 148 193 192
3 148 143 193
3 143 189 193
3 150 194 195
3 149 194 150
3 190 144 150
3 195 190 150
3 192 196 152
3 147 192 152
3 197 192 193
3 196 192 197
3 198 199 200
3 198 200 194
3 198 194 153
3 153 194 149
3 156 201 155
3 156 202 201
3 152 202 156
3 152 203 202
3 152 196 203
3 197 203 196
3 204 199 198
3 205 199 204
3 153 157 204
3 198 153 204
3 201 206 159
3 155 201 159
3 207 201 202
3 206 201 207
3 208 205 204
3 209 205 208
3 157 160 208
3 204 157 208
3 161 210 162
3 161 211 210
3 159 211 161
3 159 212 211
3 159 206 212
3 207 212 206
3 213 209 208
3 214 209 213
3 160 163 213
3 208 160 213
3 166 215 216
3 165 166 216
3 210 166 162
3 210 217 166
3 217 215 166
3 211 217 210
3 213 218 214
3 163 218 213
3 163 167 218
3 167 219 218
3 168 220 167
3 167 220 219
3 169 221 168
3 168 221 220
3 170 222 169
3 169 222 221
3 216 170 165
3 222 170 216
3 223 224 225
3 223 226 227
3 225 226 223
3 226 228 227
3 173 224 223
3 173 172 224
3 172 229 224
3 174 173 223
3 227 174 223
3 227 175 174
3 227 228 175
3 228 230 175
3 178 231 232
3 177 231 178
3 229 172 178
3 232 229 178
3 175 230 233
3 179 175 233
3 233 181 179
3 234 181 233
3 183 235 236
3 182 235 183
3 231 177 183
3 236 231 183
3 181 234 184
3 234 237 184
3 238 239 240
3 238 240 235
3 238 235 185
3 185 235 182
3 184 237 186
3 237 241 186
3 242 243 244
3 239 242 244
3 238 242 239
3 238 187 242
3 238 188 187
3 185 188 238
3 186 241 189
3 241 245 189
3 246 247 248
3 243 246 248
3 242 246 243
3 242 190 246
3 242 191 190
3 187 191 242
3 189 245 193
3 245 249 193
3 250 251 252
3 247 250 252
3 246 250 247
3 246 194 250
3 246 195 194
3 190 195 246
3 193 249 197
3 249 253 197
3 200 251 250
3 200 199 251
3 199 254 251
3 194 200 250
3 203 255 256
3 202 203 256
3 253 203 197
3 255 203 253
3 199 205 254
3 254 205 257
3 202 256 207
3 256 258 207
3 205 209 257
3 257 209 259
3 212 260 261
3 211 212 261
3 258 212 207
3 260 212 258
3 209 214 259
3 259 214 262
3 215 263 264
3 216 215 264
3 217 265 215
3 215 265 263
3 261 217 211
3 265 217 261
3 214 266 262
3 218 266 214
3 219 267 218
3 218 267 266
3 220 268 219
3 219 268 267
3 221 269 220
3 220 269 268
3 222 270 221
3 221 270 269
3 264 222 216
3 270 222 264
3 271 272 273
3 271 225 224
3 271 273 225
3 273 274 225
3 226 225 275
3 225 274 275
3 275 228 226
3 276 228 275
3 277 272 271
3 278 272 277
3 224 229 277
3 271 224 277
3 228 276 230
3 276 279 230
3 232 278 277
3 232 231 278
3 231 280 278
3 229 232 277
3 230 279 281
3 233 230 281
3 281 234 233
3 282 234 281
3 283 284 285
3 283 236 235
3 283 285 236
3 285 286 236
3 280 231 236
3 286 280 236
3 234 282 237
3 282 287 237
3 288 289 290
3 284 288 290
3 283 288 284
3 283 239 288
3 283 240 239
3 235 240 283
3 237 287 241
3 287 291 241
3 244 289 288
3 244 243 289
3 243 292 289
3 239 244 288
3 241 291 245
3 291 293 245
3 248 294 295
3 247 294 248
3 292 243 248
3 295 292 248
3 245 293 249
3 293 296 249
3 252 297 298
3 251 297 252
3 294 247 252
3 298 294 252
3 249 296 253
3 296 299 253
3 251 254 297
3 297 254 300
3 255 301 302
3 256 255 302
3 299 255 253
3 301 255 299
3 254 257 300
3 300 257 303
3 256 302 258
3 302 304 258
3 257 259 303
3 303 259 305
3 260 306 307
3 261 260 307
3 304 260 258
3 306 260 304
3 259 262 305
3 305 262 308
3 263 309 264
3 310 309 263
3 310 263 311
3 311 263 265
3 307 265 261
3 311 265 307
3 262 312 308
3 266 312 262
3 267 313 266
3 266 313 312
3 268 314 267
3 267 314 313
3 269 315 268
3 268 315 314
3 270 316 269
3 269 316 315
3 309 270 264
3 309 317 270
3 317 316 270
3 310 317 309
3 318 319 320
3 318 321 322
3 320 321 318
3 322 323 324
3 321 323 322
3 323 325 324
3 273 319 318
3 273 272 319
3 272 326 319
3 274 273 318
3 322 274 318
3 275 274 322
3 324 275 322
3 324 276 275
3 324 325 276
3 325 327 276
3 272 278 326
3 326 278 328
3 276 327 279
3 327 329 279
3 330 331 332
3 330 332 328
3 330 328 280
3 280 328 278
3 279 329 333
3 281 279 333
3 333 282 281
3 334 282 333
3 285 335 336
3 284 335 285
3 331 330 286
3 331 286 336
3 336 286 285
3 280 286 330
3 282 334 287
3 334 337 287
3 290 338 339
3 289 338 290
3 335 284 290
3 339 335 290
3 287 337 291
3 337 340 291
3 289 292 338
3 338 292 341
3 291 340 293
3 340 342 293
3 295 343 344
3 294 343 295
3 341 292 295
3 344 341 295
3 293 342 296
3 342 345 296
3 298 346 347
3 297 346 298
3 343 294 298
3 347 343 298
3 296 345 299
3 345 348 299
3 297 300 346
3 346 300 349
3 301 350 351
3 302 301 351
3 348 301 299
3 350 301 348
3 300 303 349
3 349 303 352
3 302 351 304
3 351 353 304
3 303 305 352
3 352 305 354
3 306 355 356
3 307 306 356
3 353 306 304
3 355 306 353
3 305 308 354
3 354 308 357
3 311 358 359
3 310 311 359
3 356 311 307
3 358 311 356
3 308 360 357
3 312 360 308
3 313 361 312
3 312 361 360
3 314 362 313
3 313 362 361
3 315 363 314
3 314 363 362
3 316 364 315
3 315 364 363
3 317 365 316
3 316 365 364
3 359 317 310
3 365 317 359
3 366 367 368
3 366 369 370
3 368 369 366
3 369 371 370
3 320 367 366
3 320 319 367
3 319 372 367
3 321 320 366
3 370 321 366
3 370 371 373
3 370 373 321
3 321 373 323
3 373 325 323
3 374 325 373
3 375 376 377
3 375 377 372
3 375 372 326
3 326 372 319
3 325 374 327
3 374 378 327
3 379 376 375
3 380 376 379
3 326 328 379
3 375 326 379
3 327 378 329
3 378 381 329
3 382 383 384
3 380 382 384
3 379 382 380
3 379 331 382
3 379 332 331
3 328 332 379
3 329 381 385
3 333 329 385
3 385 334 333
3 386 334 385
3 387 388 389
3 383 387 389
3 382 387 383
3 382 335 387
3 382 336 335
3 331 336 382
3 334 386 337
3 386 390 337
3 339 388 387
3 339 338 388
3 338 391 388
3 335 339 387
3 337 390 340
3 390 392 340
3 393 394 395
3 393 395 391
3 393 391 341
3 341 391 338
3 340 392 342
3 392 396 342
3 397 398 399
3 394 397 399
3 393 397 394
3 393 343 397
3 393 344 343
3 341 344 393
3 400 401 402
3 400 396 401
3 400 345 396
3 345 342 396
3 347 398 397
3 347 346 398
3 346 403 398
3 343 347 397
3 404 400 402
3 405 404 402
3 345 404 348
3 400 404 345
3 346 349 403
3 403 349 406
3 350 404 405
3 350 405 351
3 351 405 407
3 348 404 350
3 349 352 406
3 406 352 408
3 351 407 353
3 407 409 353
3 352 354 408
3 408 354 410
3 355 411 412
3 356 355 412
3 409 355 353
3 411 355 409
3 413 357 414
3 413 410 357
3 410 354 357
3 413 414 415
3 358 416 417
3 359 358 417
3 412 358 356
3 416 358 412
3 357 360 414
3 414 418 415
3 414 360 418
3 360 361 418
3 362 419 361
3 361 419 418
3 363 420 362
3 362 420 419
3 364 421 363
3 363 421 420
3 365 422 364
3 364 422 421
3 417 365 359
3 422 365 417
3 423 424 425
3 423 368 367
3 423 425 368
3 425 426 368
3 369 368 427
3 368 426 427
3 427 371 369
3 428 371 427
3 429 424 423
3 430 424 429
3 367 372 429
3 423 367 429
3 371 428 431
3 373 371 431
3 431 374 373
3 432 374 431
3 433 434 435
3 430 433 435
3 429 433 430
3 429 376 433
3 429 377 376
3 372 377 429
3 374 432 378
3 432 436 378
3 437 434 433
3 438 434 437
3 376 380 437
3 433 376 437
3 439 440 381
3 439 381 436
3 436 381 378
3 439 441 440
3 442 443 444
3 438 442 444
3 437 442 438
3 437 383 442
3 437 384 383
3 380 384 437
3 381 440 385
3 440 386 385
3 440 441 386
3 441 445 386
3 389 443 442
3 389 388 443
3 388 446 443
3 383 389 442
3 386 445 390
3 445 447 390
3 388 391 446
3 446 391 448
3 390 447 392
3 447 449 392
3 395 450 451
3 394 450 395
3 448 391 395
3 451 448 395
3 392 449 396
3 449 452 396
3 399 453 454
3 398 453 399
3 450 394 399
3 454 450 399
3 401 455 456
3 402 401 456
3 452 401 396
3 455 401 452
3 398 403 453
3 453 403 457
3 402 456 405
3 456 458 405
3 403 406 457
3 457 406 459
3 405 458 407
3 458 460 407
3 406 408 459
3 459 408 461
3 462 463 464
3 462 460 463
3 462 409 460
3 409 407 460
3 465 410 466
3 465 461 410
3 461 408 410
3 465 466 467
3 468 469 470
3 464 469 468
3 462 464 468
3 462 468 412
3 462 412 411
3 409 462 411
3 410 413 466
3 466 413 415
3 466 415 467
3 467 415 471
3 472 473 474
3 472 475 476
3 473 472 476
3 470 476 475
3 468 470 475
3 468 475 417
3 468 417 416
3 412 468 416
3 415 477 471
3 418 477 415
3 419 478 418
3 418 478 477
3 420 479 419
3 419 479 478
3 474 421 472
3 474 479 421
3 479 420 421
3 422 472 421
3 475 472 422
3 417 475 422
3 480 481 482
3 480 483 484
3 482 483 480
3 483 485 484
3 425 486 487
3 424 486 425
3 481 480 426
3 481 426 487
3 487 426 425
3 427 426 480
3 484 427 480
3 484 428 427
3 484 485 428
3 485 488 428
3 489 490 491
3 489 491 486
3 489 486 430
3 430 486 424
3 428 488 492
3 431 428 492
3 492 432 431
3 493 432 492
3 494 495 496
3 490 494 496
3 489 494 490
3 489 434 494
3 489 435 434
3 430 435 489
3 432 493 436
3 493 497 436
3 498 495 494
3 499 495 498
3 434 438 498
3 494 434 498
3 436 497 500
3 439 436 500
3 500 441 439
3 501 441 500
3 444 499 498
3 444 443 499
3 443 502 499
3 438 444 498
3 441 501 445
3 501 503 445
3 504 505 506
3 504 506 502
3 504 502 446
3 446 502 443
3 445 503 447
3 503 507 447
3 508 505 504
3 509 505 508
3 446 448 508
3 504 446 508
3 447 507 449
3 507 510 449
3 511 512 513
3 509 511 513
3 508 511 509
3 508 450 511
3 508 451 450
3 448 451 508
3 449 510 452
3 510 514 452
3 454 512 511
3 454 453 512
3 453 515 512
3 450 454 511
3 455 516 517
3 456 455 517
3 514 455 452
3 516 455 514
3 453 457 515
3 515 457 518
3 456 517 458
3 517 519 458
3 457 459 518
3 518 459 520
3 521 522 523
3 521 519 522
3 521 460 519
3 460 458 519
3 459 461 520
3 520 461 524
3 525 526 527
3 525 528 529
3 526 525 529
3 528 530 531
3 529 528 531
3 523 531 530
3 521 523 530
3 521 530 464
3 521 464 463
3 460 521 463
3 461 532 524
3 465 532 461
3 532 465 467
3 533 532 467
3 534 525 527
3 535 534 527
3 528 525 536
3 536 525 534
3 469 536 470
3 469 530 536
3 530 528 536
3 464 530 469
3 537 471 538
3 537 533 471
3 533 467 471
3 538 539 540
3 537 538 540
3 539 541 542
3 540 539 542
3 535 542 541
3 534 535 541
3 534 541 474
3 534 474 473
3 476 534 473
3 536 534 476
3 470 536 476
3 471 477 538
3 478 538 477
3 539 538 478
3 479 539 478
3 541 539 479
3 474 541 479
3 543 544 545
3 543 546 547
3 545 546 543
3 547 548 549
3 546 548 547
3 548 550 549
3 551 544 543
3 552 544 551
3 482 481 551
3 482 551 547
3 547 551 543
3 483 482 547
3 549 483 547
3 549 485 483
3 549 550 485
3 550 553 485
3 554 555 556
3 552 554 556
3 551 554 552
3 551 486 554
3 551 487 486
3 481 487 551
3 485 553 488
3 553 557 488
3 558 559 560
3 555 558 560
3 554 558 555
3 554 490 558
3 554 491 490
3 486 491 554
3 488 557 561
3 492 488 561
3 561 493 492
3 562 493 561
3 496 559 558
3 496 495 559
3 495 563 559
3 490 496 558
3 493 562 497
3 562 564 497
3 565 566 567
3 565 567 563
3 565 563 499
3 499 563 495
3 568 500 497
3 568 497 569
3 569 497 564
3 500 568 501
3 570 566 565
3 571 566 570
3 499 502 570
3 565 499 570
3 568 569 572
3 572 501 568
3 572 573 501
3 573 503 501
3 506 571 570
3 506 505 571
3 505 574 571
3 502 506 570
3 503 573 507
3 573 575 507
3 576 577 578
3 576 578 574
3 576 574 509
3 509 574 505
3 507 575 510
3 575 579 510
3 513 577 576
3 513 512 577
3 512 580 577
3 509 513 576
3 581 582 583
3 581 579 582
3 581 514 579
3 514 510 579
3 512 515 580
3 580 515 584
3 516 581 583
3 516 583 517
3 517 583 585
3 514 581 516
3 515 518 584
3 584 518 586
3 517 585 519
3 585 587 519
3 588 520 589
3 588 586 520
3 586 518 520
3 588 589 590
3 591 592 593
3 591 523 522
3 591 522 592
3 592 522 594
3 587 522 519
3 594 522 587
3 589 524 595
3 520 524 589
3 596 590 589
3 595 596 589
3 526 597 598
3 527 526 598
3 529 599 526
3 526 599 597
3 593 531 591
3 593 599 531
3 599 529 531
3 523 591 531
3 524 532 595
3 533 600 601
3 532 533 601
3 532 601 596
3 532 596 595
3 600 602 603
3 601 600 603
3 602 604 605
3 603 602 605
3 604 598 605
3 604 535 598
3 535 527 598
3 533 537 600
3 540 600 537
3 602 600 540
3 542 602 540
3 604 602 542
3 535 604 542
3 606 607 608
3 606 609 610
3 608 609 606
3 610 545 544
3 610 609 545
3 609 611 545
3 546 545 612
3 545 611 612
3 548 546 613
3 546 612 613
3 613 550 548
3 614 550 613
3 615 607 606
3 616 607 615
3 610 617 606
3 617 615 606
3 544 552 617
3 610 544 617
3 550 614 553
3 614 618 553
3 619 616 615
3 620 616 619
3 556 555 619
3 556 619 617
3 617 619 615
3 552 556 617
3 553 618 557
3 618 621 557
3 622 623 624
3 620 622 624
3 619 622 620
3 619 559 622
3 619 560 559
3 555 560 619
3 625 561 557
3 625 557 626
3 626 557 621
3 561 625 562
3 627 623 622
3 628 623 627
3 559 563 627
3 622 559 627
3 625 626 629
3 629 562 625
3 629 630 562
3 630 564 562
3 567 628 627
3 567 566 628
3 566 631 628
3 563 567 627
3 564 630 569
3 630 632 569
3 566 571 631
3 631 571 633
3 634 572 569
3 634 569 635
3 635 569 632
3 572 634 573
3 571 574 633
3 633 574 636
3 637 634 635
3 638 637 635
3 573 637 575
3 634 637 573
3 578 639 640
3 577 639 578
3 636 574 578
3 640 636 578
3 641 642 643
3 638 642 641
3 638 641 637
3 637 641 644
3 575 644 579
3 637 644 575
3 577 580 639
3 639 580 645
3 646 641 643
3 647 646 643
3 582 646 583
3 582 644 646
3 644 641 646
3 579 644 582
3 580 584 645
3 645 584 648
3 649 646 647
3 650 649 647
3 583 649 585
3 646 649 583
3 584 586 648
3 648 586 651
3 652 653 654
3 650 653 652
3 650 652 649
3 649 652 655
3 585 655 587
3 649 655 585
3 586 656 651
3 588 656 586
3 590 657 658
3 590 658 588
3 588 658 656
3 658 657 659
3 660 661 662
3 654 661 660
3 652 654 660
3 652 660 593
3 652 593 592
3 594 652 592
3 655 652 594
3 587 655 594
3 657 596 663
3 590 596 657
3 664 659 657
3 664 657 665
3 665 657 663
3 665 666 667
3 664 665 667
3 666 598 597
3 666 597 667
3 667 597 668
3 662 599 660
3 662 668 599
3 668 597 599
3 593 660 599
3 596 601 663
3 603 663 601
3 665 663 603
3 605 665 603
3 666 665 605
3 598 666 605
3 669 670 671
3 669 672 673
3 671 672 669
3 673 674 675
3 672 674 673
3 674 676 675
3 677 678 679
3 670 677 679
3 670 669 677
3 669 680 677
3 673 681 669
3 681 680 669
3 675 682 673
3 682 681 673
3 683 675 676
3 682 675 683
3 608 678 677
3 608 607 678
3 607 684 678
3 609 608 677
3 680 609 677
3 611 609 680
3 681 611 680
3 612 611 681
3 682 612 681
3 682 683 685
3 682 685 612
3 612 685 613
3 685 614 613
3 686 614 685
3 607 616 684
3 684 616 687
3 614 686 618
3 686 688 618
3 689 690 691
3 689 691 687
3 689 687 620
3 620 687 616
3 618 688 621
3 688 692 621
3 624 690 689
3 624 623 690
3 623 693 690
3 620 624 689
3 621 692 626
3 692 694 626
3 623 628 693
3 693 628 695
3 626 694 696
3 629 626 696
3 696 630 629
3 697 630 696
3 628 631 695
3 695 631 698
3 630 697 632
3 697 699 632
3 631 633 698
3 698 633 700
3 632 699 635
3 699 701 635
3 633 636 700
3 700 636 702
3 635 701 638
3 701 703 638
3 640 639 704
3 640 704 705
3 640 705 636
3 636 705 702
3 642 706 707
3 643 642 707
3 703 642 638
3 706 642 703
3 704 645 708
3 639 645 704
3 709 705 704
3 708 709 704
3 643 707 647
3 707 710 647
3 708 648 711
3 645 648 708
3 712 709 708
3 711 712 708
3 713 714 715
3 713 710 714
3 713 650 710
3 650 647 710
3 711 651 716
3 648 651 711
3 717 712 711
3 716 717 711
3 718 719 720
3 718 721 722
3 719 718 722
3 715 722 721
3 713 715 721
3 713 721 654
3 713 654 653
3 650 713 653
3 651 656 716
3 716 723 717
3 716 656 723
3 656 658 723
3 659 724 725
3 659 725 658
3 658 725 723
3 724 726 727
3 725 724 727
3 720 727 726
3 720 726 718
3 718 726 728
3 661 728 662
3 661 721 728
3 721 718 728
3 654 721 661
3 659 664 724
3 667 724 664
3 726 724 667
3 668 726 667
3 728 726 668
3 662 728 668
3 729 730 731
3 729 732 733
3 731 732 729
3 732 734 733
3 735 730 729
3 736 730 735
3 733 737 729
3 737 735 729
3 738 733 734
3 737 733 738
3 735 739 736
3 737 739 735
3 740 739 737
3 738 740 737
3 741 742 743
3 741 744 745
3 743 744 741
3 745 746 747
3 744 746 745
3 746 748 747
3 749 742 741
3 750 742 749
3 671 670 749
3 671 749 745
3 745 749 741
3 672 671 745
3 747 672 745
3 747 748 751
3 747 751 672
3 672 751 674
3 751 676 674
3 752 676 751
3 679 750 749
3 679 678 750
3 678 753 750
3 670 679 749
3 676 752 683
3 752 754 683
3 755 756 757
3 755 757 753
3 755 753 684
3 684 753 678
3 683 754 758
3 685 683 758
3 758 686 685
3 759 686 758
3 760 756 755
3 761 756 760
3 684 687 760
3 755 684 760
3 686 759 688
3 759 762 688
3 691 761 760
3 691 690 761
3 690 763 761
3 687 691 760
3 688 762 692
3 762 764 692
3 690 693 763
3 763 693 765
3 692 764 694
3 764 766 694
3 693 695 765
3 765 695 767
3 768 696 694
3 768 694 769
3 769 694 766
3 696 768 697
3 695 698 767
3 767 698 770
3 771 768 769
3 772 771 769
3 697 771 699
3 768 771 697
3 698 700 770
3 770 700 773
3 774 771 772
3 775 774 772
3 699 774 701
3 771 774 699
3 700 702 773
3 773 702 776
3 777 774 775
3 778 777 775
3 701 777 703
3 774 777 701
3 702 705 776
3 776 705 779
3 780 781 782
3 778 781 780
3 777 778 780
3 777 780 707
3 777 707 706
3 703 777 706
3 705 709 779
3 779 709 783
3 784 785 786
3 784 787 788
3 785 784 788
3 782 788 787
3 782 787 780
3 780 787 789
3 707 789 710
3 780 789 707
3 790 712 791
3 790 783 712
3 783 709 712
3 791 792 793
3 790 791 793
3 792 794 795
3 793 792 795
3 786 795 794
3 786 794 784
3 784 794 796
3 787 784 797
3 797 784 796
3 714 797 715
3 714 789 797
3 789 787 797
3 710 789 714
3 791 717 798
3 712 717 791
3 792 791 799
3 799 791 798
3 794 792 800
3 800 792 799
3 719 800 720
3 719 796 800
3 796 794 800
3 722 796 719
3 797 796 722
3 715 797 722
3 717 723 798
3 725 798 723
3 799 798 725
3 727 799 725
3 800 799 727
3 720 800 727
3 801 802 803
3 801 804 805
3 803 804 801
3 804 806 805
3 807 802 801
3 808 802 807
3 731 730 807
3 731 807 805
3 805 807 801
3 805 806 809
3 805 809 731
3 731 809 732
3 809 734 732
3 810 734 809
3 811 808 807
3 812 808 811
3 730 736 811
3 807 730 811
3 734 810 738
3 810 813 738
3 814 812 811
3 815 812 814
3 736 739 816
3 736 816 811
3 811 816 814
3 739 740 817
3 816 739 817
3 740 818 817
3 740 738 818
3 738 813 818
3 819 815 814
3 820 815 819
3 816 821 814
3 821 819 814
3 817 822 816
3 822 821 816
3 823 817 818
3 823 824 817
3 824 822 817
3 823 825 824
3 826 820 819
3 827 820 826
3 821 828 819
3 828 826 819
3 822 829 821
3 829 828 821
3 824 830 822
3 830 829 822
3 831 824 825
3 830 824 831
3 826 832 827
3 832 833 834
3 832 826 833
3 826 828 833
3 829 835 828
3 835 833 828
3 830 836 829
3 836 835 829
3 837 830 831
3 836 830 837
3 838 834 833
3 839 834 838
3 835 840 833
3 840 838 833
3 836 841 835
3 841 840 835
3 842 836 837
3 841 836 842
3 838 843 839
3 843 844 845
3 843 838 844
3 838 840 844
3 841 846 840
3 846 844 840
3 847 841 842
3 847 848 841
3 848 846 841
3 847 849 848
3 743 845 844
3 743 742 845
3 742 850 845
3 744 743 844
3 846 744 844
3 746 744 846
3 848 746 846
3 848 748 746
3 848 849 748
3 849 851 748
3 852 853 854
3 852 854 850
3 852 850 750
3 750 850 742
3 748 851 855
3 751 748 855
3 855 752 751
3 856 752 855
3 857 853 852
3 858 853 857
3 750 753 857
3 852 750 857
3 752 856 754
3 856 859 754
3 757 858 857
3 757 756 858
3 756 860 858
3 753 757 857
3 861 758 754
3 861 754 862
3 862 754 859
3 758 861 759
3 756 761 860
3 860 761 863
3 861 862 864
3 864 759 861
3 864 865 759
3 865 762 759
3 761 763 863
3 863 763 866
3 762 865 764
3 865 867 764
3 763 765 866
3 866 765 868
3 869 870 871
3 869 867 870
3 869 766 867
3 766 764 867
3 765 767 868
3 868 767 872
3 873 869 871
3 874 873 871
3 766 873 769
3 869 873 766
3 767 770 872
3 872 770 875
3 876 873 874
3 877 876 874
3 769 876 772
3 873 876 769
3 770 773 875
3 875 773 878
3 879 880 881
3 877 880 879
3 877 879 876
3 876 879 882
3 772 882 775
3 876 882 772
3 773 776 878
3 878 776 883
3 884 879 881
3 885 884 881
3 882 879 886
3 886 879 884
3 775 886 778
3 882 886 775
3 776 779 883
3 883 779 887
3 888 884 885
3 889 888 885
3 781 888 782
3 781 886 888
3 886 884 888
3 778 886 781
3 890 783 891
3 890 887 783
3 887 779 783
3 891 892 893
3 890 891 893
3 892 894 895
3 893 892 895
3 894 786 785
3 894 785 895
3 895 785 896
3 889 788 888
3 889 896 788
3 896 785 788
3 782 888 788
3 783 790 891
3 793 891 790
3 892 891 793
3 795 892 793
3 894 892 795
3 786 894 795
3 803 897 898
3 802 897 803
3 804 803 899
3 803 898 899
3 899 806 804
3 900 806 899
3 802 808 897
3 897 808 901
3 806 900 902
3 809 806 902
3 902 810 809
3 903 810 902
3 808 812 901
3 901 812 904
3 810 903 813
3 903 905 813
3 812 815 904
3 904 815 906
3 813 905 818
3 905 907 818
3 815 820 906
3 906 820 908
3 818 907 909
3 823 818 909
3 909 825 823
3 910 825 909
3 820 827 908
3 908 827 911
3 825 910 831
3 910 912 831
3 913 827 832
3 913 914 827
3 914 911 827
3 832 834 913
3 831 912 837
3 912 915 837
3 913 916 914
3 916 913 834
3 916 834 917
3 917 834 839
3 837 915 842
3 915 918 842
3 839 919 917
3 843 919 839
3 919 843 845
3 920 919 845
3 842 918 921
3 847 842 921
3 921 849 847
3 922 849 921
3 845 850 920
3 920 850 923
3 849 922 851
3 922 924 851
3 854 925 926
3 853 925 854
3 923 850 854
3 926 923 854
3 851 924 927
3 855 851 927
3 927 856 855
3 928 856 927
3 853 858 925
3 925 858 929
3 856 928 859
3 928 930 859
3 858 860 929
3 929 860 931
3 859 930 862
3 930 932 862
3 860 863 931
3 931 863 933
3 934 864 862
3 934 862 935
3 935 862 932
3 864 934 865
3 863 866 933
3 933 866 936
3 937 934 935
3 938 937 935
3 865 937 867
3 934 937 865
3 866 868 936
3 936 868 939
3 870 937 938
3 870 938 871
3 871 938 940
3 867 937 870
3 868 872 939
3 939 872 941
3 942 943 944
3 942 940 943
3 942 874 940
3 874 871 940
3 945 875 946
3 945 941 875
3 941 872 875
3 946 947 948
3 945 946 948
3 947 949 950
3 948 947 950
3 949 951 952
3 950 949 952
3 944 952 951
3 944 951 942
3 942 951 953
3 874 953 877
3 942 953 874
3 946 878 954
3 875 878 946
3 947 946 955
3 955 946 954
3 949 947 956
3 956 947 955
3 951 949 957
3 957 949 956
3 880 957 881
3 880 953 957
3 953 951 957
3 877 953 880
3 954 883 958
3 878 883 954
3 955 954 959
3 959 954 958
3 956 955 960
3 960 955 959
3 957 956 961
3 961 956 960
3 881 961 885
3 957 961 881
3 958 887 962
3 883 887 958
3 959 958 963
3 963 958 962
3 960 959 964
3 964 959 963
3 961 960 965
3 965 960 964
3 885 965 889
3 961 965 885
3 887 890 962
3 893 962 890
3 963 962 893
3 895 963 893
3 964 963 895
3 896 964 895
3 965 964 896
3 889 965 896
3 898 897 966
3 898 967 899
3 966 967 898
3 899 967 900
3 966 901 968
3 897 901 966
3 967 966 969
3 969 966 968
3 900 970 902
3 900 967 970
3 967 969 970
3 902 970 903
3 968 971 972
3 968 901 971
3 901 904 971
3 969 968 972
3 973 969 972
3 970 969 973
3 974 970 973
3 974 903 970
3 974 975 903
3 975 905 903
3 904 906 971
3 971 906 976
3 905 975 907
3 975 977 907
3 906 908 976
3 976 908 978
3 907 977 979
3 909 907 979
3 979 910 909
3 980 910 979
3 908 911 978
3 978 911 981
3 910 980 912
3 980 982 912
3 911 914 981
3 981 914 983
3 912 982 915
3 982 984 915
3 914 985 983
3 916 985 914
3 985 916 917
3 986 985 917
3 915 984 918
3 984 987 918
3 917 988 986
3 919 988 917
3 920 989 990
3 920 990 919
3 919 990 988
3 989 991 992
3 990 989 992
3 921 991 993
3 921 987 991
3 921 918 987
3 992 991 987
3 921 993 922
3 989 923 994
3 920 923 989
3 991 989 995
3 995 989 994
3 993 991 996
3 996 991 995
3 922 996 924
3 993 996 922
3 926 997 998
3 925 997 926
3 994 923 926
3 994 926 999
3 999 926 998
3 995 994 999
3 1000 995 999
3 1000 1001 1002
3 1000 1002 995
3 995 1002 996
3 924 1003 927
3 924 996 1003
3 996 1002 1003
3 927 1003 928
3 925 929 997
3 997 929 1004
3 1005 1002 1001
3 1006 1005 1001
3 1003 1002 1007
3 1007 1002 1005
3 928 1007 930
3 1003 1007 928
3 929 931 1004
3 1004 931 1008
3 1009 1005 1006
3 1010 1009 1006
3 1007 1005 1011
3 1011 1005 1009
3 930 1011 932
3 1007 1011 930
3 931 933 1008
3 1008 933 1012
3 1013 1009 1010
3 1014 1013 1010
3 1011 1009 1015
3 1015 1009 1013
3 932 1015 935
3 1011 1015 932
3 933 936 1012
3 1012 936 1016
3 1017 1013 1014
3 1018 1017 1014
3 1015 1013 1019
3 1019 1013 1017
3 935 1019 938
3 1015 1019 935
3 1020 939 1021
3 1020 1016 939
3 1016 936 939
3 1021 1022 1023
3 1020 1021 1023
3 1022 1024 1025
3 1023 1022 1025
3 1018 1025 1024
3 1018 1024 1017
3 1017 1024 1026
3 1019 1017 1027
3 1027 1017 1026
3 938 1027 940
3 1019 1027 938
3 1021 941 1028
3 939 941 1021
3 1022 1021 1029
3 1029 1021 1028
3 1024 1022 1030
3 1030 1022 1029
3 1026 1024 1031
3 1031 1024 1030
3 943 1031 944
3 943 1027 1031
3 1027 1026 1031
3 940 1027 943
3 941 945 1028
3 948 1028 945
3 1029 1028 948
3 950 1029 948
3 1030 1029 950
3 952 1030 950
3 1031 1030 952
3 944 1031 952
3 972 971 1032
3 972 1033 973
3 1032 1033 972
3 973 1034 974
3 1033 1034 973
3 974 1034 975
3 1032 976 1035
3 971 976 1032
3 1033 1032 1036
3 1036 1032 1035
3 1034 1033 1037
3 1037 1033 1036
3 975 1037 977
3 1034 1037 975
3 1035 978 1038
3 976 978 1035
3 1036 1035 1039
3 1039 1035 1038
3 1037 1036 1040
3 1040 1036 1039
3 977 1041 979
3 977 1037 1041
3 1037 1040 1041
3 979 1041 980
3 1038 981 1042
3 978 981 1038
3 1039 1038 1043
3 1043 1038 1042
3 1040 1039 1044
3 1044 1039 1043
3 1041 1040 1045
3 1045 1040 1044
3 980 1045 982
3 1041 1045 980
3 1042 983 1046
3 981 983 1042
3 1043 1042 1047
3 1047 1042 1046
3 1044 1043 1048
3 1048 1043 1047
3 1045 1044 1049
3 1049 1044 1048
3 982 1049 984
3 1045 1049 982
3 983 985 1046
3 986 1046 985
3 986 1050 1046
3 1050 1047 1046
3 1048 1047 1051
3 1051 1047 1050
3 1049 1048 1052
3 1052 1048 1051
3 984 1052 987
3 1049 1052 984
3 986 988 1050
3 990 1050 988
3 1051 1050 990
3 992 1051 990
3 1052 1051 992
3 987 1052 992
3 998 997 1053
3 998 1054 999
3 1053 1054 998
3 999 1055 1000
3 1054 1055 999
3 1000 1055 1001
3 1053 1004 1056
3 997 1004 1053
3 1054 1053 1057
3 1057 1053 1056
3 1055 1054 1058
3 1058 1054 1057
3 1001 1058 1006
3 1055 1058 1001
3 1056 1008 1059
3 1004 1008 1056
3 1057 1056 1060
3 1060 1056 1059
3 1058 1057 1061
3 1061 1057 1060
3 1006 1061 1010
3 1058 1061 1006
3 1059 1012 1062
3 1008 1012 1059
3 1060 1059 1063
3 1063 1059 1062
3 1061 1060 1064
3 1064 1060 1063
3 1010 1064 1014
3 1061 1064 1010
3 1062 1016 1065
3 1012 1016 1062
3 1063 1062 1066
3 1066 1062 1065
3 1064 1063 1067
3 1067 1063 1066
3 1014 1067 1018
3 1064 1067 1014
3 1016 1020 1065
3 1023 1065 1020
3 1066 1065 1023
3 1025 1066 1023
3 1067 1066 1025
3 1018 1067 1025
