# vtk DataFile Version 3.0
this file was written using fslvtkio
ASCII
DATASET POLYDATA
POINTS 642 float
131.245 128.779 106.218
121.703 127.951 105.477
126.422 121.387 105.208
135.251 119.327 105.345
130.761 124.384 110.949
132.276 124.306 101.649
125.714 124.241 100.986
125.712 124.549 110.439
125.662 133.059 110.204
131.027 116.845 108.689
131.235 117.042 101.787
126.076 131.772 102.829
125.089 128.87 111.462
128.396 129.396 111.677
128.459 124.065 112.637
128.57 120.653 110.103
131.939 119.503 111.274
125.434 128.02 101.877
129.227 124.031 101.172
129.498 128.459 102.024
128.749 120.595 101.292
132.888 119.805 101.198
133.469 121.036 108.606
131.118 127.158 108.915
133.896 124.262 105.775
134.886 121.268 102.559
132.412 127.264 103.312
123.166 127.33 108.793
126.3 123.095 107.801
123.382 124.446 105.145
122.493 126.331 102.009
125.347 122.442 102.679
128.903 131.48 104.417
128.4 131.899 108.202
124.595 134.468 105.97
122.238 131.033 103.62
122.15 131.595 107.737
135.565 115.59 102.093
131.335 115.436 104.893
134.55 115.789 107.524
128.583 118.593 103.479
128.923 118.908 106.817
126.744 129.448 112.225
128.424 126.928 112.784
126.65 126.54 112.439
129.886 124.249 112.337
129.555 126.926 111.451
127.214 131.588 111.337
125.146 131.103 110.852
125.02 126.497 111.251
126.861 124.289 111.719
128.202 122.216 111.647
130.22 121.829 112.54
130.01 119.731 111.337
131.442 122.008 111.28
127.148 122.736 110.203
129.794 118.878 109.304
131.472 117.773 110.42
127.343 126.275 101.298
129.219 126.247 101.526
127.591 128.146 101.928
130.835 126.348 101.717
130.742 124.091 101.42
127.5 124.212 101.013
125.603 126.15 101.129
125.925 129.758 102.454
127.844 130.186 102.383
130.792 120.197 101.047
130.953 121.935 101.142
128.857 122.345 101.121
132.453 122.088 101.32
132.122 118.3 101.204
129.994 118.789 101.44
127.103 122.488 101.198
132.526 124.206 108.836
132.621 125.607 107.483
133.749 122.907 107.422
132.538 126.508 106.005
131.283 128.06 107.624
130.911 125.814 109.962
132.209 122.787 109.837
134.43 120.209 107.1
134.654 121.876 105.69
134.628 123.02 104.132
133.275 125.737 104.478
133.957 124.42 102.923
131.813 128.056 104.731
135.33 120.476 103.953
133.752 122.959 101.861
132.592 125.953 102.197
124.591 125.203 108.26
124.684 123.871 106.727
123.453 125.766 107.016
124.855 122.985 105.261
126.225 122.139 106.52
126.087 123.872 109.079
124.347 125.905 109.716
122.472 127.455 107.088
122.469 126.082 105.253
122.581 125.038 103.505
124.118 123.277 103.797
123.404 124.083 102.085
125.915 121.831 103.944
121.829 127.003 103.665
123.957 125.25 101.156
125.34 123.132 101.594
128.412 132.089 106.207
126.705 133.899 107.347
126.607 133.49 104.996
124.963 134.162 108.406
127.285 132.9 109.475
129.891 130.414 107.236
130.278 130.264 105.341
127.683 131.938 103.366
125.048 133.467 103.715
123.129 133.433 104.104
122.88 133.75 107.025
121.184 131.786 105.459
123.739 132.393 109.178
124.241 131.327 102.994
121.224 129.305 104.442
121.528 129.653 106.749
133.396 114.077 103.112
133.251 114.206 106.199
135.767 114.772 104.8
132.734 115.752 108.684
131.129 116.05 106.833
131.098 115.871 102.971
133.143 116.088 101.705
135.784 117.435 103.952
135.012 117.664 106.385
128.732 118.56 105.124
129.937 116.869 105.854
129.891 116.607 104.014
129.875 117.884 107.794
127.728 120.203 105.999
127.547 120.153 104.332
129.587 117.693 102.423
129.682 128.326 110.243
128.477 130.737 110.005
129.814 129.671 108.682
130.791 129.473 103.808
129.484 130.347 102.864
131.259 127.952 102.322
133.197 117.267 109.729
132.66 120.253 109.97
134.059 118.313 108.208
135.568 118.389 102.435
134.015 120.598 101.6
134.247 117.563 101.346
123.512 130.364 109.684
123.874 128.018 110.299
122.352 129.368 108.284
122.327 128.582 103.038
123.944 127.121 101.695
123.905 129.486 102.77
127.552 121.062 107.282
127.446 121.928 108.872
128.749 120.021 108.361
128.409 119.56 102.197
126.921 121.441 101.885
127.112 120.686 103.094
127.573 128.207 112.656
127.508 126.804 112.693
126.703 128 112.373
127.552 125.408 112.618
128.321 125.569 112.858
128.372 128.263 112.406
127.68 129.452 112.304
125.952 129.094 111.918
125.921 127.792 112.04
129.089 125.633 112.7
129.011 127.007 112.217
129.606 125.708 112.029
128.927 128.145 111.695
129.159 124.298 112.74
130.272 124.487 111.673
130.113 125.667 111.297
126.951 130.568 112.016
125.904 130.297 111.643
126.178 131.425 111.321
125.058 130.019 111.203
127.796 130.553 111.635
126.461 132.465 110.913
125.396 132.153 110.647
125.793 126.631 111.932
126.703 125.37 112.193
125.871 125.43 111.609
127.597 124.234 112.287
125.132 127.621 111.545
125.327 125.361 110.988
126.237 124.483 111.145
129.14 121.967 112.263
130.044 120.691 112.162
129.126 120.981 111.672
130.958 119.586 111.661
131.069 120.681 112.113
129.326 122.919 112.71
128.278 123.054 112.275
128.463 121.264 111.015
129.209 120.169 110.876
130.896 121.995 112.081
130.035 123.191 112.594
130.714 123.277 111.775
131.644 120.822 111.458
131.106 123.224 111.093
127.484 123.249 111.697
127.702 122.324 110.884
126.915 123.485 110.875
127.925 121.631 110.249
126.419 123.79 110.361
129.81 119.326 110.329
130.715 118.795 110.961
130.515 118.349 110.032
131.774 118.53 111.059
129.185 119.754 109.839
130.423 117.845 109.213
131.116 117.362 109.659
128.316 126.205 101.435
128.43 127.238 101.681
127.466 127.195 101.574
128.568 128.215 101.954
129.3 127.347 101.778
129.091 125.193 101.309
128.297 125.275 101.22
126.484 127.227 101.521
126.607 128.015 101.851
130.011 126.323 101.6
129.901 125.121 101.423
130.754 125.213 101.553
129.941 124.077 101.291
130.142 127.411 101.865
131.548 125.296 101.71
131.519 124.167 101.552
127.454 125.254 101.09
126.453 126.325 101.22
126.578 125.246 100.99
125.527 127.127 101.479
128.338 124.29 101.08
126.61 124.284 100.94
125.745 125.135 100.962
126.721 128.933 102.137
127.741 129.112 102.158
126.897 129.998 102.388
128.648 129.273 102.187
125.762 128.776 102.171
126.004 130.795 102.635
126.972 131.019 102.612
130.854 121.086 101.035
129.863 122.149 101.168
129.79 121.256 101.028
129.049 123.183 101.141
130.038 122.955 101.199
131.896 120.906 101.083
131.826 120.013 101.07
129.751 120.447 101.104
128.909 121.386 101.101
130.715 123.081 101.277
131.694 121.981 101.172
131.549 123.102 101.386
132.668 120.962 101.212
132.296 123.205 101.513
131.45 119.308 101.09
130.326 119.516 101.192
130.997 118.563 101.188
129.43 119.724 101.34
132.528 119.058 101.139
131.637 117.647 101.38
130.601 117.896 101.513
128.005 122.344 101.171
128.178 123.31 101.079
127.237 123.299 101.012
127.978 121.542 101.235
126.401 123.454 101.047
132.589 124.972 108.173
133.279 124.307 107.426
133.199 123.574 108.146
133.783 123.729 106.681
133.305 124.843 106.706
131.914 126.272 108.244
131.878 125.597 108.762
133.059 122.759 108.751
133.563 122.13 108.113
132.634 126.003 106.729
131.966 126.806 107.597
131.979 127.236 106.858
131.286 127.554 108.273
133.225 125.347 105.94
131.986 127.636 106.107
131.322 128.413 106.898
131.717 125.041 109.355
132.384 123.505 109.352
131.542 124.393 109.951
132.915 121.912 109.23
131.126 126.42 109.386
130.776 125.154 110.534
131.458 123.624 110.39
134.052 121.599 107.33
134.183 122.476 106.572
134.557 121.202 106.496
134.26 123.119 105.808
133.958 120.677 107.89
134.874 119.909 106.252
134.986 120.654 105.605
134.049 124.455 104.367
133.692 125.196 103.728
134.354 123.802 103.549
133.3 125.778 103.164
132.968 126.428 103.791
133.609 124.975 105.093
134.295 123.738 104.959
134.801 122.333 103.322
134.485 122.979 102.78
132.618 126.866 104.536
132.907 126.026 105.269
132.302 127.287 105.317
132.165 127.634 104.018
131.594 128.366 105.507
134.615 122.563 104.97
134.947 121.788 104.032
134.992 121.242 104.838
135.152 120.926 103.201
135.312 119.951 104.734
133.962 123.719 102.34
133.358 125.224 102.516
133.223 124.473 101.96
132.693 126.541 102.741
134.416 122.204 102.169
132.981 123.636 101.727
132.413 125.149 101.873
124.72 124.463 107.472
124.049 124.771 106.833
124.01 125.484 107.654
123.464 125.042 106.169
123.977 124.233 106.025
125.446 123.636 107.4
125.357 124.247 108.012
123.799 126.138 108.47
123.365 126.443 107.912
124.641 123.379 106.029
125.466 123.078 106.727
125.517 122.611 105.98
126.209 122.668 107.184
124.049 123.695 105.268
125.655 122.274 105.215
126.226 121.752 105.819
125.35 124.579 108.717
124.426 125.572 108.972
125.143 124.925 109.464
123.679 126.598 109.231
126.151 123.603 108.392
125.874 124.256 109.764
125.045 125.254 110.193
122.953 126.605 107.106
122.928 125.853 106.164
122.437 126.742 106.193
122.916 125.213 105.292
122.825 127.342 108.016
122.053 127.67 106.243
122.042 126.991 105.333
123.273 124.063 103.703
123.709 123.587 102.962
122.918 124.489 102.793
124.246 123.299 102.34
124.618 122.933 103.074
123.645 123.813 104.48
122.971 124.681 104.321
122.328 125.515 102.648
122.742 125.045 101.978
124.991 122.618 103.817
124.449 123.116 104.576
125.383 122.401 104.536
125.597 122.169 103.301
126.164 121.616 104.61
122.547 125.463 104.459
122.144 125.925 103.522
122.081 126.468 104.468
122.064 126.619 102.798
121.726 127.443 104.59
123.5 124.634 101.488
124.299 123.653 101.721
124.513 124.197 101.243
125.24 122.826 102.121
123.111 125.769 101.53
124.922 124.747 101.021
125.515 123.638 101.241
127.417 133.023 106.677
126.597 133.802 106.147
127.49 132.891 105.673
125.653 134.201 105.477
125.755 134.437 106.705
127.531 132.933 107.674
128.252 132.186 107.17
128.456 132.021 105.257
127.681 132.593 104.723
126.088 134.335 107.928
127.069 133.306 108.4
126.303 133.996 109.182
127.793 132.417 108.753
124.882 134.447 107.312
125.184 133.613 109.395
126.578 133.248 110.103
129.181 131.382 106.764
129.279 131.276 105.746
130.053 130.431 106.27
129.526 131.029 104.94
129.078 131.298 107.671
130.599 129.611 106.765
130.789 129.511 105.827
127.095 132.754 104.052
125.872 133.666 104.352
126.351 132.797 103.456
124.78 134.195 104.712
128.186 131.839 103.986
127.051 131.849 102.996
125.563 132.543 103.064
122.851 133.783 105.551
121.911 133.102 106.085
122.024 132.991 104.908
121.536 131.958 106.551
122.258 132.775 107.296
123.737 134.251 106.513
123.784 134.13 104.926
122.484 132.377 103.832
121.509 131.749 104.377
123.109 133.118 108.121
123.882 134.022 107.713
124.13 133.464 108.901
122.882 132.094 108.402
124.659 132.703 109.817
124.157 133.581 103.86
123.45 132.462 103.312
124.655 132.448 103.083
123.146 131.434 103.299
125.172 131.479 102.841
121.023 130.662 104.855
121.155 130.764 106.217
121.188 129.513 105.6
121.622 130.814 107.176
121.523 130.376 103.987
121.395 128.521 104.991
121.602 128.733 106.166
133.289 113.87 104.672
134.694 113.447 105.651
134.807 113.464 103.744
135.277 114.795 106.141
134.304 114.341 106.855
132.349 114.539 105.315
132.394 114.394 104.062
134.698 114.319 102.512
135.882 114.566 103.286
133.155 114.838 107.444
132.205 115.061 106.505
132.012 115.665 107.67
131.413 115.604 105.849
133.831 115.363 108.104
131.662 116.281 108.675
130.893 116.559 107.701
132.17 114.891 103.027
133.412 114.948 102.271
132.052 115.912 102.249
134.42 115.462 101.812
131.485 115.293 103.84
130.992 116.468 102.317
132.137 116.621 101.707
135.907 115.98 104.202
135.402 116.163 105.704
135.456 117.617 105.221
134.923 116.441 106.822
136.042 116.115 102.991
135.497 118.446 104.654
135.091 118.624 105.946
129.306 117.603 105.415
129.988 116.614 104.899
129.271 117.544 104.584
130.676 115.845 104.318
130.69 116.06 105.385
129.377 117.862 106.271
128.84 118.616 105.935
128.737 118.455 104.307
129.213 117.6 103.834
130.595 116.398 106.278
129.841 117.377 106.726
130.362 116.944 107.318
129.471 118.319 107.193
130.396 117.374 108.36
128.268 119.405 105.587
128.19 119.339 104.682
127.625 120.128 105.143
128.119 119.346 103.932
128.344 119.532 106.405
127.065 120.784 105.59
126.989 120.781 104.788
129.664 117.169 103.292
130.45 116.04 103.506
130.239 116.734 102.724
129.047 118.011 102.977
130.339 117.364 102.024
129.09 129.531 110.171
129.16 130.172 109.319
129.84 128.896 109.424
129.108 130.802 108.467
128.485 131.312 109.136
128.44 130.098 110.889
128.982 128.805 110.958
130.424 127.808 109.557
130.495 128.43 108.86
127.879 131.825 109.698
127.861 131.134 110.723
127.291 132.371 110.495
129.597 127.67 110.848
130.421 127.084 110.052
130.232 126.351 110.683
130.581 128.793 108.187
129.843 130.138 107.992
130.615 129.23 107.445
130.239 130.069 103.291
130.397 129.193 102.504
131.125 128.799 102.99
130.404 128.258 102.153
129.568 129.401 102.328
129.245 131.045 103.595
129.962 130.594 104.162
131.668 128.38 103.526
131.937 127.693 102.731
128.758 130.172 102.519
128.62 131.178 103.133
127.854 131.063 102.756
130.511 129.945 104.6
131.327 128.721 104.268
131.034 129.071 105.117
131.966 126.967 102.252
130.998 127.188 101.962
131.73 126.119 101.895
133.011 118.758 109.874
133.409 119.225 109.137
133.692 117.697 108.984
133.757 119.706 108.451
133.099 120.595 109.288
132.338 119.815 110.625
132.651 118.366 110.539
133.893 116.352 108.766
134.378 116.957 107.977
132.48 121.554 109.884
132.052 121.095 110.708
131.786 122.441 110.526
132.329 117.546 110.407
133.033 116.358 109.392
131.837 116.796 109.502
134.566 117.737 107.324
134.211 119.346 107.685
134.694 118.946 106.808
134.971 119.36 101.772
134.36 118.966 101.336
135.21 117.785 101.623
133.553 118.777 101.232
133.484 120.219 101.416
134.503 120.882 101.987
135.29 119.869 102.478
135.819 116.899 102.295
134.971 116.443 101.56
133.247 121.395 101.382
133.959 121.853 101.68
133.015 122.589 101.588
135.431 119.737 103.22
135.777 117.89 103.146
135.516 119.138 104.069
133.819 116.698 101.471
133.066 118.105 101.283
132.496 117.314 101.458
123.691 129.198 110.019
123.127 128.794 109.292
122.844 129.939 109.025
122.728 128.354 108.571
123.443 127.699 109.565
124.466 128.371 110.941
124.346 129.573 110.645
122.803 131.062 108.693
122.112 130.478 108.016
123.885 126.81 109.948
124.38 127.258 110.811
124.605 126.076 110.505
124.297 130.563 110.389
123.559 131.377 109.409
124.458 131.73 110.11
121.926 129.476 107.566
122.477 128.151 107.79
122.013 128.424 106.893
123.08 127.922 102.284
123.862 128.329 102.256
123.061 129.099 102.859
124.631 128.661 102.301
124.628 127.594 101.825
123.167 126.819 101.767
122.433 127.475 102.486
122.254 129.822 103.436
123.081 130.353 103.16
124.803 126.621 101.332
123.905 126.125 101.335
124.873 125.578 101.102
121.983 127.7 103.213
121.752 129.077 103.693
121.641 128.108 104.142
124.044 130.397 102.924
125.011 129.382 102.524
125.116 130.446 102.725
127.515 121.535 108.076
128.159 120.957 108.677
128.173 120.533 107.78
128.702 120.312 109.266
127.992 121.308 109.504
126.953 122.527 108.266
126.932 122.062 107.548
128.224 120.022 107.053
128.759 119.562 107.532
127.318 122.332 109.545
126.786 122.987 108.852
126.584 123.355 109.659
126.844 121.608 106.905
127.607 120.585 106.613
126.87 121.182 106.161
129.283 119.067 107.798
129.247 119.515 108.791
129.817 118.447 108.489
127.709 120.543 102.044
126.927 121.105 102.484
127.762 120.084 102.68
126.233 121.584 102.893
126.069 121.928 102.289
127.809 120.997 101.552
128.541 120.087 101.682
128.448 119.064 102.825
127.919 119.686 103.304
126.043 122.294 101.796
127.038 121.911 101.467
126.211 122.828 101.295
129.094 119.228 101.776
128.908 118.615 102.341
129.714 118.218 101.844
127.413 120.378 103.693
126.48 121.312 103.477
126.747 121.027 104.152
POLYGONS 1280  5120
3 164 162 163
3 163 44 164
3 162 43 163
3 164 42 162
3 166 165 163
3 163 43 166
3 165 44 163
3 166 14 165
3 168 167 162
3 162 42 168
3 167 43 162
3 168 13 167
3 170 169 164
3 164 44 170
3 169 42 164
3 170 12 169
3 173 171 172
3 172 46 173
3 171 43 172
3 173 45 171
3 167 174 172
3 172 43 167
3 174 46 172
3 167 13 174
3 175 166 171
3 171 45 175
3 166 43 171
3 175 14 166
3 177 176 173
3 173 46 177
3 176 45 173
3 177 4 176
3 180 178 179
3 179 48 180
3 178 42 179
3 180 47 178
3 169 181 179
3 179 42 169
3 181 48 179
3 169 12 181
3 182 168 178
3 178 47 182
3 168 42 178
3 182 13 168
3 184 183 180
3 180 48 184
3 183 47 180
3 184 8 183
3 187 185 186
3 186 50 187
3 185 44 186
3 187 49 185
3 165 188 186
3 186 44 165
3 188 50 186
3 165 14 188
3 189 170 185
3 185 49 189
3 170 44 185
3 189 12 170
3 191 190 187
3 187 50 191
3 190 49 187
3 191 7 190
3 194 192 193
3 193 53 194
3 192 52 193
3 194 51 192
3 196 195 193
3 193 52 196
3 195 53 193
3 196 16 195
3 198 197 192
3 192 51 198
3 197 52 192
3 198 14 197
3 200 199 194
3 194 53 200
3 199 51 194
3 200 15 199
3 203 201 202
3 202 45 203
3 201 52 202
3 203 54 201
3 197 175 202
3 202 52 197
3 175 45 202
3 197 14 175
3 204 196 201
3 201 54 204
3 196 52 201
3 204 16 196
3 176 205 203
3 203 45 176
3 205 54 203
3 176 4 205
3 208 206 207
3 207 55 208
3 206 51 207
3 208 50 206
3 199 209 207
3 207 51 199
3 209 55 207
3 199 15 209
3 188 198 206
3 206 50 188
3 198 51 206
3 188 14 198
3 210 191 208
3 208 55 210
3 191 50 208
3 210 7 191
3 213 211 212
3 212 57 213
3 211 53 212
3 213 56 211
3 195 214 212
3 212 53 195
3 214 57 212
3 195 16 214
3 215 200 211
3 211 56 215
3 200 53 211
3 215 15 200
3 217 216 213
3 213 57 217
3 216 56 213
3 217 9 216
3 220 218 219
3 219 60 220
3 218 59 219
3 220 58 218
3 222 221 219
3 219 59 222
3 221 60 219
3 222 19 221
3 224 223 218
3 218 58 224
3 223 59 218
3 224 18 223
3 226 225 220
3 220 60 226
3 225 58 220
3 226 17 225
3 229 227 228
3 228 62 229
3 227 59 228
3 229 61 227
3 223 230 228
3 228 59 223
3 230 62 228
3 223 18 230
3 231 222 227
3 227 61 231
3 222 59 227
3 231 19 222
3 233 232 229
3 229 62 233
3 232 61 229
3 233 5 232
3 236 234 235
3 235 64 236
3 234 58 235
3 236 63 234
3 225 237 235
3 235 58 225
3 237 64 235
3 225 17 237
3 238 224 234
3 234 63 238
3 224 58 234
3 238 18 224
3 240 239 236
3 236 64 240
3 239 63 236
3 240 6 239
3 243 241 242
3 242 66 243
3 241 60 242
3 243 65 241
3 221 244 242
3 242 60 221
3 244 66 242
3 221 19 244
3 245 226 241
3 241 65 245
3 226 60 241
3 245 17 226
3 247 246 243
3 243 66 247
3 246 65 243
3 247 11 246
3 250 248 249
3 249 69 250
3 248 68 249
3 250 67 248
3 252 251 249
3 249 68 252
3 251 69 249
3 252 18 251
3 254 253 248
3 248 67 254
3 253 68 248
3 254 21 253
3 256 255 250
3 250 69 256
3 255 67 250
3 256 20 255
3 259 257 258
3 258 70 259
3 257 68 258
3 259 62 257
3 253 260 258
3 258 68 253
3 260 70 258
3 253 21 260
3 230 252 257
3 257 62 230
3 252 68 257
3 230 18 252
3 261 233 259
3 259 70 261
3 233 62 259
3 261 5 233
3 264 262 263
3 263 72 264
3 262 67 263
3 264 71 262
3 255 265 263
3 263 67 255
3 265 72 263
3 255 20 265
3 266 254 262
3 262 71 266
3 254 67 262
3 266 21 254
3 268 267 264
3 264 72 268
3 267 71 264
3 268 10 267
3 271 269 270
3 270 63 271
3 269 69 270
3 271 73 269
3 251 238 270
3 270 69 251
3 238 63 270
3 251 18 238
3 272 256 269
3 269 73 272
3 256 69 269
3 272 20 256
3 239 273 271
3 271 63 239
3 273 73 271
3 239 6 273
3 276 274 275
3 275 76 276
3 274 75 275
3 276 74 274
3 278 277 275
3 275 75 278
3 277 76 275
3 278 24 277
3 280 279 274
3 274 74 280
3 279 75 274
3 280 23 279
3 282 281 276
3 276 76 282
3 281 74 276
3 282 22 281
3 285 283 284
3 284 78 285
3 283 75 284
3 285 77 283
3 279 286 284
3 284 75 279
3 286 78 284
3 279 23 286
3 287 278 283
3 283 77 287
3 278 75 283
3 287 24 278
3 289 288 285
3 285 78 289
3 288 77 285
3 289 0 288
3 292 290 291
3 291 80 292
3 290 74 291
3 292 79 290
3 281 293 291
3 291 74 281
3 293 80 291
3 281 22 293
3 294 280 290
3 290 79 294
3 280 74 290
3 294 23 280
3 296 295 292
3 292 80 296
3 295 79 292
3 296 4 295
3 299 297 298
3 298 82 299
3 297 76 298
3 299 81 297
3 277 300 298
3 298 76 277
3 300 82 298
3 277 24 300
3 301 282 297
3 297 81 301
3 282 76 297
3 301 22 282
3 303 302 299
3 299 82 303
3 302 81 299
3 303 3 302
3 306 304 305
3 305 85 306
3 304 84 305
3 306 83 304
3 308 307 305
3 305 84 308
3 307 85 305
3 308 26 307
3 310 309 304
3 304 83 310
3 309 84 304
3 310 24 309
3 312 311 306
3 306 85 312
3 311 83 306
3 312 25 311
3 315 313 314
3 314 77 315
3 313 84 314
3 315 86 313
3 309 287 314
3 314 84 309
3 287 77 314
3 309 24 287
3 316 308 313
3 313 86 316
3 308 84 313
3 316 26 308
3 288 317 315
3 315 77 288
3 317 86 315
3 288 0 317
3 320 318 319
3 319 87 320
3 318 83 319
3 320 82 318
3 311 321 319
3 319 83 311
3 321 87 319
3 311 25 321
3 300 310 318
3 318 82 300
3 310 83 318
3 300 24 310
3 322 303 320
3 320 87 322
3 303 82 320
3 322 3 303
3 325 323 324
3 324 89 325
3 323 85 324
3 325 88 323
3 307 326 324
3 324 85 307
3 326 89 324
3 307 26 326
3 327 312 323
3 323 88 327
3 312 85 323
3 327 25 312
3 329 328 325
3 325 89 329
3 328 88 325
3 329 5 328
3 332 330 331
3 331 92 332
3 330 91 331
3 332 90 330
3 334 333 331
3 331 91 334
3 333 92 331
3 334 29 333
3 336 335 330
3 330 90 336
3 335 91 330
3 336 28 335
3 338 337 332
3 332 92 338
3 337 90 332
3 338 27 337
3 341 339 340
3 340 94 341
3 339 91 340
3 341 93 339
3 335 342 340
3 340 91 335
3 342 94 340
3 335 28 342
3 343 334 339
3 339 93 343
3 334 91 339
3 343 29 334
3 345 344 341
3 341 94 345
3 344 93 341
3 345 2 344
3 348 346 347
3 347 96 348
3 346 90 347
3 348 95 346
3 337 349 347
3 347 90 337
3 349 96 347
3 337 27 349
3 350 336 346
3 346 95 350
3 336 90 346
3 350 28 336
3 352 351 348
3 348 96 352
3 351 95 348
3 352 7 351
3 355 353 354
3 354 98 355
3 353 92 354
3 355 97 353
3 333 356 354
3 354 92 333
3 356 98 354
3 333 29 356
3 357 338 353
3 353 97 357
3 338 92 353
3 357 27 338
3 359 358 355
3 355 98 359
3 358 97 355
3 359 1 358
3 362 360 361
3 361 101 362
3 360 100 361
3 362 99 360
3 364 363 361
3 361 100 364
3 363 101 361
3 364 31 363
3 366 365 360
3 360 99 366
3 365 100 360
3 366 29 365
3 368 367 362
3 362 101 368
3 367 99 362
3 368 30 367
3 371 369 370
3 370 93 371
3 369 100 370
3 371 102 369
3 365 343 370
3 370 100 365
3 343 93 370
3 365 29 343
3 372 364 369
3 369 102 372
3 364 100 369
3 372 31 364
3 344 373 371
3 371 93 344
3 373 102 371
3 344 2 373
3 376 374 375
3 375 103 376
3 374 99 375
3 376 98 374
3 367 377 375
3 375 99 367
3 377 103 375
3 367 30 377
3 356 366 374
3 374 98 356
3 366 99 374
3 356 29 366
3 378 359 376
3 376 103 378
3 359 98 376
3 378 1 359
3 381 379 380
3 380 105 381
3 379 101 380
3 381 104 379
3 363 382 380
3 380 101 363
3 382 105 380
3 363 31 382
3 383 368 379
3 379 104 383
3 368 101 379
3 383 30 368
3 385 384 381
3 381 105 385
3 384 104 381
3 385 6 384
3 388 386 387
3 387 108 388
3 386 107 387
3 388 106 386
3 390 389 387
3 387 107 390
3 389 108 387
3 390 34 389
3 392 391 386
3 386 106 392
3 391 107 386
3 392 33 391
3 394 393 388
3 388 108 394
3 393 106 388
3 394 32 393
3 397 395 396
3 396 110 397
3 395 107 396
3 397 109 395
3 391 398 396
3 396 107 391
3 398 110 396
3 391 33 398
3 399 390 395
3 395 109 399
3 390 107 395
3 399 34 390
3 401 400 397
3 397 110 401
3 400 109 397
3 401 8 400
3 404 402 403
3 403 112 404
3 402 106 403
3 404 111 402
3 393 405 403
3 403 106 393
3 405 112 403
3 393 32 405
3 406 392 402
3 402 111 406
3 392 106 402
3 406 33 392
3 408 407 404
3 404 112 408
3 407 111 404
3 408 0 407
3 411 409 410
3 410 114 411
3 409 108 410
3 411 113 409
3 389 412 410
3 410 108 389
3 412 114 410
3 389 34 412
3 413 394 409
3 409 113 413
3 394 108 409
3 413 32 394
3 415 414 411
3 411 114 415
3 414 113 411
3 415 11 414
3 418 416 417
3 417 117 418
3 416 116 417
3 418 115 416
3 420 419 417
3 417 116 420
3 419 117 417
3 420 36 419
3 422 421 416
3 416 115 422
3 421 116 416
3 422 34 421
3 424 423 418
3 418 117 424
3 423 115 418
3 424 35 423
3 427 425 426
3 426 109 427
3 425 116 426
3 427 118 425
3 421 399 426
3 426 116 421
3 399 109 426
3 421 34 399
3 428 420 425
3 425 118 428
3 420 116 425
3 428 36 420
3 400 429 427
3 427 109 400
3 429 118 427
3 400 8 429
3 432 430 431
3 431 119 432
3 430 115 431
3 432 114 430
3 423 433 431
3 431 115 423
3 433 119 431
3 423 35 433
3 412 422 430
3 430 114 412
3 422 115 430
3 412 34 422
3 434 415 432
3 432 119 434
3 415 114 432
3 434 11 415
3 437 435 436
3 436 121 437
3 435 117 436
3 437 120 435
3 419 438 436
3 436 117 419
3 438 121 436
3 419 36 438
3 439 424 435
3 435 120 439
3 424 117 435
3 439 35 424
3 441 440 437
3 437 121 441
3 440 120 437
3 441 1 440
3 444 442 443
3 443 124 444
3 442 123 443
3 444 122 442
3 446 445 443
3 443 123 446
3 445 124 443
3 446 39 445
3 448 447 442
3 442 122 448
3 447 123 442
3 448 38 447
3 450 449 444
3 444 124 450
3 449 122 444
3 450 37 449
3 453 451 452
3 452 126 453
3 451 123 452
3 453 125 451
3 447 454 452
3 452 123 447
3 454 126 452
3 447 38 454
3 455 446 451
3 451 125 455
3 446 123 451
3 455 39 446
3 457 456 453
3 453 126 457
3 456 125 453
3 457 9 456
3 460 458 459
3 459 128 460
3 458 122 459
3 460 127 458
3 449 461 459
3 459 122 449
3 461 128 459
3 449 37 461
3 462 448 458
3 458 127 462
3 448 122 458
3 462 38 448
3 464 463 460
3 460 128 464
3 463 127 460
3 464 10 463
3 467 465 466
3 466 130 467
3 465 124 466
3 467 129 465
3 445 468 466
3 466 124 445
3 468 130 466
3 445 39 468
3 469 450 465
3 465 129 469
3 450 124 465
3 469 37 450
3 471 470 467
3 467 130 471
3 470 129 467
3 471 3 470
3 474 472 473
3 473 133 474
3 472 132 473
3 474 131 472
3 476 475 473
3 473 132 476
3 475 133 473
3 476 38 475
3 478 477 472
3 472 131 478
3 477 132 472
3 478 41 477
3 480 479 474
3 474 133 480
3 479 131 474
3 480 40 479
3 483 481 482
3 482 134 483
3 481 132 482
3 483 126 481
3 477 484 482
3 482 132 477
3 484 134 482
3 477 41 484
3 454 476 481
3 481 126 454
3 476 132 481
3 454 38 476
3 485 457 483
3 483 134 485
3 457 126 483
3 485 9 457
3 488 486 487
3 487 136 488
3 486 131 487
3 488 135 486
3 479 489 487
3 487 131 479
3 489 136 487
3 479 40 489
3 490 478 486
3 486 135 490
3 478 131 486
3 490 41 478
3 492 491 488
3 488 136 492
3 491 135 488
3 492 2 491
3 495 493 494
3 494 127 495
3 493 133 494
3 495 137 493
3 475 462 494
3 494 133 475
3 462 127 494
3 475 38 462
3 496 480 493
3 493 137 496
3 480 133 493
3 496 40 480
3 463 497 495
3 495 127 463
3 497 137 495
3 463 10 497
3 500 498 499
3 499 140 500
3 498 139 499
3 500 138 498
3 502 501 499
3 499 139 502
3 501 140 499
3 502 33 501
3 504 503 498
3 498 138 504
3 503 139 498
3 504 13 503
3 506 505 500
3 500 140 506
3 505 138 500
3 506 23 505
3 509 507 508
3 508 47 509
3 507 139 508
3 509 110 507
3 503 182 508
3 508 139 503
3 182 47 508
3 503 13 182
3 398 502 507
3 507 110 398
3 502 139 507
3 398 33 502
3 183 401 509
3 509 47 183
3 401 110 509
3 183 8 401
3 512 510 511
3 511 79 512
3 510 138 511
3 512 46 510
3 505 294 511
3 511 138 505
3 294 79 511
3 505 23 294
3 174 504 510
3 510 46 174
3 504 138 510
3 174 13 504
3 295 177 512
3 512 79 295
3 177 46 512
3 295 4 177
3 515 513 514
3 514 111 515
3 513 140 514
3 515 78 513
3 501 406 514
3 514 140 501
3 406 111 514
3 501 33 406
3 286 506 513
3 513 78 286
3 506 140 513
3 286 23 506
3 407 289 515
3 515 111 407
3 289 78 515
3 407 0 289
3 518 516 517
3 517 143 518
3 516 142 517
3 518 141 516
3 520 519 517
3 517 142 520
3 519 143 517
3 520 19 519
3 522 521 516
3 516 141 522
3 521 142 516
3 522 32 521
3 524 523 518
3 518 143 524
3 523 141 518
3 524 26 523
3 527 525 526
3 526 113 527
3 525 142 526
3 527 66 525
3 521 413 526
3 526 142 521
3 413 113 526
3 521 32 413
3 244 520 525
3 525 66 244
3 520 142 525
3 244 19 520
3 414 247 527
3 527 113 414
3 247 66 527
3 414 11 247
3 530 528 529
3 529 86 530
3 528 141 529
3 530 112 528
3 523 316 529
3 529 141 523
3 316 86 529
3 523 26 316
3 405 522 528
3 528 112 405
3 522 141 528
3 405 32 522
3 317 408 530
3 530 86 317
3 408 112 530
3 317 0 408
3 533 531 532
3 532 61 533
3 531 143 532
3 533 89 531
3 519 231 532
3 532 143 519
3 231 61 532
3 519 19 231
3 326 524 531
3 531 89 326
3 524 143 531
3 326 26 524
3 232 329 533
3 533 61 232
3 329 89 533
3 232 5 329
3 536 534 535
3 535 146 536
3 534 145 535
3 536 144 534
3 538 537 535
3 535 145 538
3 537 146 535
3 538 22 537
3 540 539 534
3 534 144 540
3 539 145 534
3 540 16 539
3 542 541 536
3 536 146 542
3 541 144 536
3 542 39 541
3 545 543 544
3 544 54 545
3 543 145 544
3 545 80 543
3 539 204 544
3 544 145 539
3 204 54 544
3 539 16 204
3 293 538 543
3 543 80 293
3 538 145 543
3 293 22 538
3 205 296 545
3 545 54 205
3 296 80 545
3 205 4 296
3 548 546 547
3 547 125 548
3 546 144 547
3 548 57 546
3 541 455 547
3 547 144 541
3 455 125 547
3 541 39 455
3 214 540 546
3 546 57 214
3 540 144 546
3 214 16 540
3 456 217 548
3 548 125 456
3 217 57 548
3 456 9 217
3 551 549 550
3 550 81 551
3 549 146 550
3 551 130 549
3 537 301 550
3 550 146 537
3 301 81 550
3 537 22 301
3 468 542 549
3 549 130 468
3 542 146 549
3 468 39 542
3 302 471 551
3 551 81 302
3 471 130 551
3 302 3 471
3 554 552 553
3 553 149 554
3 552 148 553
3 554 147 552
3 556 555 553
3 553 148 556
3 555 149 553
3 556 21 555
3 558 557 552
3 552 147 558
3 557 148 552
3 558 25 557
3 560 559 554
3 554 149 560
3 559 147 554
3 560 37 559
3 563 561 562
3 562 88 563
3 561 148 562
3 563 70 561
3 557 327 562
3 562 148 557
3 327 88 562
3 557 25 327
3 260 556 561
3 561 70 260
3 556 148 561
3 260 21 556
3 328 261 563
3 563 88 328
3 261 70 563
3 328 5 261
3 566 564 565
3 565 129 566
3 564 147 565
3 566 87 564
3 559 469 565
3 565 147 559
3 469 129 565
3 559 37 469
3 321 558 564
3 564 87 321
3 558 147 564
3 321 25 558
3 470 322 566
3 566 129 470
3 322 87 566
3 470 3 322
3 569 567 568
3 568 71 569
3 567 149 568
3 569 128 567
3 555 266 568
3 568 149 555
3 266 71 568
3 555 21 266
3 461 560 567
3 567 128 461
3 560 149 567
3 461 37 560
3 267 464 569
3 569 71 267
3 464 128 569
3 267 10 464
3 572 570 571
3 571 152 572
3 570 151 571
3 572 150 570
3 574 573 571
3 571 151 574
3 573 152 571
3 574 27 573
3 576 575 570
3 570 150 576
3 575 151 570
3 576 12 575
3 578 577 572
3 572 152 578
3 577 150 572
3 578 36 577
3 581 579 580
3 580 49 581
3 579 151 580
3 581 96 579
3 575 189 580
3 580 151 575
3 189 49 580
3 575 12 189
3 349 574 579
3 579 96 349
3 574 151 579
3 349 27 574
3 190 352 581
3 581 49 190
3 352 96 581
3 190 7 352
3 584 582 583
3 583 118 584
3 582 150 583
3 584 48 582
3 577 428 583
3 583 150 577
3 428 118 583
3 577 36 428
3 181 576 582
3 582 48 181
3 576 150 582
3 181 12 576
3 429 184 584
3 584 118 429
3 184 48 584
3 429 8 184
3 587 585 586
3 586 97 587
3 585 152 586
3 587 121 585
3 573 357 586
3 586 152 573
3 357 97 586
3 573 27 357
3 438 578 585
3 585 121 438
3 578 152 585
3 438 36 578
3 358 441 587
3 587 97 358
3 441 121 587
3 358 1 441
3 590 588 589
3 589 155 590
3 588 154 589
3 590 153 588
3 592 591 589
3 589 154 592
3 591 155 589
3 592 17 591
3 594 593 588
3 588 153 594
3 593 154 588
3 594 30 593
3 596 595 590
3 590 155 596
3 595 153 590
3 596 35 595
3 599 597 598
3 598 104 599
3 597 154 598
3 599 64 597
3 593 383 598
3 598 154 593
3 383 104 598
3 593 30 383
3 237 592 597
3 597 64 237
3 592 154 597
3 237 17 592
3 384 240 599
3 599 104 384
3 240 64 599
3 384 6 240
3 602 600 601
3 601 120 602
3 600 153 601
3 602 103 600
3 595 439 601
3 601 153 595
3 439 120 601
3 595 35 439
3 377 594 600
3 600 103 377
3 594 153 600
3 377 30 594
3 440 378 602
3 602 120 440
3 378 103 602
3 440 1 378
3 605 603 604
3 604 65 605
3 603 155 604
3 605 119 603
3 591 245 604
3 604 155 591
3 245 65 604
3 591 17 245
3 433 596 603
3 603 119 433
3 596 155 603
3 433 35 596
3 246 434 605
3 605 65 246
3 434 119 605
3 246 11 434
3 608 606 607
3 607 158 608
3 606 157 607
3 608 156 606
3 610 609 607
3 607 157 610
3 609 158 607
3 610 15 609
3 612 611 606
3 606 156 612
3 611 157 606
3 612 28 611
3 614 613 608
3 608 158 614
3 613 156 608
3 614 41 613
3 617 615 616
3 616 95 617
3 615 157 616
3 617 55 615
3 611 350 616
3 616 157 611
3 350 95 616
3 611 28 350
3 209 610 615
3 615 55 209
3 610 157 615
3 209 15 610
3 351 210 617
3 617 95 351
3 210 55 617
3 351 7 210
3 620 618 619
3 619 135 620
3 618 156 619
3 620 94 618
3 613 490 619
3 619 156 613
3 490 135 619
3 613 41 490
3 342 612 618
3 618 94 342
3 612 156 618
3 342 28 612
3 491 345 620
3 620 135 491
3 345 94 620
3 491 2 345
3 623 621 622
3 622 56 623
3 621 158 622
3 623 134 621
3 609 215 622
3 622 158 609
3 215 56 622
3 609 15 215
3 484 614 621
3 621 134 484
3 614 158 621
3 484 41 614
3 216 485 623
3 623 56 216
3 485 134 623
3 216 9 485
3 626 624 625
3 625 161 626
3 624 160 625
3 626 159 624
3 628 627 625
3 625 160 628
3 627 161 625
3 628 31 627
3 630 629 624
3 624 159 630
3 629 160 624
3 630 20 629
3 632 631 626
3 626 161 632
3 631 159 626
3 632 40 631
3 635 633 634
3 634 73 635
3 633 160 634
3 635 105 633
3 629 272 634
3 634 160 629
3 272 73 634
3 629 20 272
3 382 628 633
3 633 105 382
3 628 160 633
3 382 31 628
3 273 385 635
3 635 73 273
3 385 105 635
3 273 6 385
3 638 636 637
3 637 137 638
3 636 159 637
3 638 72 636
3 631 496 637
3 637 159 631
3 496 137 637
3 631 40 496
3 265 630 636
3 636 72 265
3 630 159 636
3 265 20 630
3 497 268 638
3 638 137 497
3 268 72 638
3 497 10 268
3 641 639 640
3 640 102 641
3 639 161 640
3 641 136 639
3 627 372 640
3 640 161 627
3 372 102 640
3 627 31 372
3 489 632 639
3 639 136 489
3 632 161 639
3 489 40 632
3 373 492 641
3 641 102 373
3 492 136 641
3 373 2 492
