# vtk DataFile Version 3.0
this file was written using fslvtkio
ASCII
DATASET POLYDATA
POINTS 970 float
124.602 147.166 104.008
123.29 146.725 104.603
124.11 146.217 104.55
124.952 146.012 104.375
125.905 147.065 104.051
126.183 145.738 104.563
126.969 146.627 104.699
127.219 145.603 105.33
124.059 148.102 104.462
123.216 148.183 105.092
125.296 148.351 104.563
126.639 147.999 104.737
127.567 146.955 105.619
124.402 149.218 105.49
125.971 149.255 105.41
127.103 148.242 105.811
121.032 137.13 103.02
119.508 136.849 103.4
120.296 135.496 102.741
121.799 135.782 102.955
122.188 137.644 103.353
122.57 136.534 103.905
122.848 137.905 104.239
122.554 136.8 105.027
120.59 138.219 104.036
119.331 137.975 104.507
121.787 138.844 103.858
122.814 139.16 104.036
123.243 137.916 105.217
123.493 139.248 104.97
123.572 138.711 106.021
120.444 139.193 104.846
119.352 138.738 105.175
121.674 139.851 104.611
122.784 140.414 104.495
123.646 140.523 105.035
124.108 140.049 106.057
119.625 139.629 105.55
121.256 140.549 105.198
120.561 140.668 105.696
122.6 141.644 104.936
123.823 142.027 104.853
124.418 141.361 105.697
121.389 141.799 105.714
122.633 142.874 105.319
123.677 143.555 104.758
123.094 144.249 105.632
124.827 142.499 105.609
124.839 143.594 104.944
125.649 143.215 105.996
126.149 143.994 105.516
126.31 143.78 106.578
123.801 145.333 105.25
122.738 145.071 106.106
124.757 144.827 104.978
126.137 144.712 105.074
127.17 144.673 106.213
122.69 145.98 105.498
121.579 146.342 106.126
121.783 145.23 106.709
128.084 145.941 106.469
122.176 147.402 105.404
121.532 147.577 106.552
128.047 147.667 106.718
122.861 148.652 106.299
123.796 149.635 106.855
125.406 149.982 106.484
126.863 149.313 106.561
118.586 133.907 103.453
117.492 134.357 104.143
117.87 132.92 104.503
119.35 132.978 104.06
119.865 134.216 103.007
120.602 133.601 104.029
118.564 135.586 103.375
117.321 135.775 104.538
121.327 134.609 103.5
122.134 135.56 104.471
122.204 136.222 105.969
118.204 137.103 104.246
116.984 137.023 105.25
122.925 137.505 106.206
123.537 138.527 107.253
118.179 138.4 105.296
116.87 138.399 106.241
124.053 139.735 107.236
124.694 140.985 106.841
124.759 140.577 107.912
118.348 139.67 106.144
119.85 140.737 106.088
118.712 140.705 106.758
125.06 141.988 106.715
125.35 141.729 108.032
120.027 141.838 106.617
121.006 142.917 106.664
119.95 142.757 107.221
121.999 143.203 106.049
125.888 142.791 107.188
126.819 143.826 107.641
121.109 144.228 107.414
120.031 143.42 107.819
121.999 144.14 106.648
127.701 144.825 107.619
120.109 144.148 108.021
120.89 145.748 107.311
128.246 146.135 107.715
121.132 147.539 107.677
128.269 147.648 107.865
122.424 148.61 107.694
123.694 149.53 108.068
123.389 148.97 109.079
124.953 150.191 107.87
126.516 150.103 107.639
127.57 148.964 107.605
124.593 149.94 109.231
125.92 150.285 109.061
127.095 150.017 108.812
116.888 134.136 105.481
117.558 132.706 105.776
118.853 132.394 105.421
120.181 133.033 105.375
121.021 134.018 105.162
120.905 134.008 106.845
116.719 135.595 106.034
121.522 134.95 105.462
121.948 135.987 107.18
116.414 136.913 106.624
122.673 137.431 107.348
123.412 138.267 108.653
116.084 137.857 107.339
124.203 139.411 108.358
124.908 140.588 108.972
117.195 139.836 106.888
116.188 139.186 107.772
125.624 141.66 109.312
117.112 140.801 107.849
116.341 140.602 108.91
118.449 141.458 107.334
126.21 142.847 108.51
126.973 143.677 109.127
117.437 141.739 108.477
118.667 142.56 107.975
118.154 142.626 108.834
127.557 144.696 109.059
119.011 143.604 108.85
120.046 145.11 108.248
119.63 145.286 109.114
128.074 145.829 109.021
128.505 146.966 108.836
128.49 146.442 109.993
120.39 146.598 108.259
120.241 146.654 109.375
128.277 148.274 108.819
128.594 147.644 110.001
121.523 147.646 108.909
122.596 148.135 109.451
123.486 148.588 110.222
127.719 149.192 109.03
128.268 148.713 110.241
124.394 149.284 110.443
125.484 150.007 110.578
126.788 150.198 110.397
127.646 149.655 110.276
118.243 132.023 106.749
117.418 133.003 107.046
117.844 131.663 107.877
119.059 131.455 107.763
119.431 132.364 106.626
119.781 132.266 107.888
120.245 133.116 106.871
120.451 132.959 108.345
117.075 134.297 107.223
121.008 133.869 108.63
116.75 135.562 107.551
121.426 134.955 107.354
122.098 135.921 108.637
116.298 136.639 108.157
122.617 137.195 108.59
123.444 138.065 109.886
115.955 137.86 108.718
124.421 139.233 109.536
125.207 140.369 110.214
115.984 139.155 109.276
125.953 141.391 110.66
116.226 140.171 110.125
126.42 142.593 109.896
127.125 143.523 110.707
117.255 142.107 109.358
116.901 141.517 110.376
127.549 144.601 110.397
127.944 145.515 109.91
128.273 145.406 111.084
117.972 143.143 109.891
118.956 144.408 109.773
118.621 144.225 110.797
128.761 146.648 111.148
119.577 145.604 110.335
119.415 145.313 111.348
128.636 147.813 111.31
120.639 146.769 110.401
121.719 147.47 110.515
122.711 148.006 110.736
122.298 147.673 111.657
128.4 148.935 111.539
123.699 148.398 111.474
124.61 148.9 111.964
125.418 149.487 111.9
126.584 149.957 111.797
127.654 149.769 111.604
117.43 132.775 108.595
117.836 131.165 109.059
118.828 130.662 108.673
119.927 131.665 108.899
120.656 132.435 109.889
117.27 134.235 108.858
121.321 133.549 110.219
116.605 135.257 109.153
121.518 134.847 109.106
122.292 135.681 110.078
116.268 136.468 109.66
122.89 136.89 109.958
123.845 137.697 111.215
116.021 137.733 110.224
124.424 138.987 110.781
125.233 139.897 111.457
116.122 138.898 110.908
126.119 140.853 111.921
116.563 140.122 111.437
126.862 142.259 111.275
127.661 142.938 112.321
117.233 141.393 111.713
127.802 144.241 111.568
128.646 145.276 112.304
117.747 142.846 110.992
118.477 143.934 111.954
128.781 146.561 112.292
119.357 144.737 112.668
128.701 147.665 112.688
120.24 145.977 111.847
121.199 146.715 111.744
122.173 146.895 112.711
128.33 148.812 112.786
123.281 147.843 112.548
124.338 148.276 112.995
125.361 148.887 113.293
126.354 149.476 113.193
127.51 149.539 112.944
118.338 130.013 109.762
117.639 131.24 109.926
117.776 129.568 110.71
119.072 129.059 110.49
119.464 130.251 109.57
120.091 129.755 110.543
120.197 131.092 109.971
120.68 130.708 110.968
117.48 132.652 110.032
121.178 132.063 111.347
117.15 133.978 110.31
121.54 133.233 111.437
116.54 134.971 110.714
121.826 134.574 110.874
122.641 135.479 111.402
116.243 136.241 111.221
123.236 136.571 111.235
124.251 137.031 112.463
116.17 137.463 111.79
124.694 138.427 112.085
125.596 139.351 112.639
116.297 138.74 112.324
126.374 140.494 113.02
116.781 140.003 112.776
126.961 141.772 112.52
127.603 142.099 113.687
117.365 141.172 113.083
128.141 143.986 112.729
128.117 143.323 113.914
117.87 142.588 112.3
118.562 143.497 113.208
128.649 144.714 113.398
128.802 146.076 113.54
119.485 144.202 113.894
128.727 147.533 113.861
120.345 145.392 113.27
121.182 146.135 113.184
122.138 146.561 114.001
128.246 148.722 113.99
123.152 147.322 113.721
124.206 147.825 114.129
125.245 148.336 114.522
126.183 148.916 114.612
127.245 149.247 114.203
117.782 130.975 111.224
117.955 129.148 111.853
118.745 128.26 111.295
120.18 128.902 111.601
121.131 130.35 112.163
117.496 132.564 111.276
121.45 131.376 112.533
121.795 132.512 112.542
122.111 132.067 113.547
117.23 133.646 111.873
121.92 133.578 111.994
122.526 133.547 112.833
116.585 134.758 112.208
122.668 134.66 112.411
123.469 135.879 112.305
123.883 135.484 113.321
116.23 135.966 112.728
124.742 136.541 113.665
116.355 137.283 113.244
125.232 137.934 113.273
126.227 139.182 113.701
116.577 138.537 113.754
126.769 140.174 113.985
126.91 141.222 113.597
127.474 140.794 114.753
116.971 139.729 114.162
128.17 142.126 114.924
117.519 140.778 114.59
128.473 143.619 115.324
118.028 142.108 113.672
118.765 142.962 114.553
128.727 144.747 114.452
128.745 146.226 114.826
119.807 143.771 115.099
128.524 147.41 115.024
120.52 144.937 114.441
121.526 145.784 114.681
122.538 146.347 115.41
127.984 148.545 114.934
123.107 146.804 114.829
124.069 147.261 115.307
125.076 147.779 115.688
126.228 148.193 115.875
127.234 148.643 115.552
119.096 127.561 112.258
118.286 127.564 113.348
119.298 126.914 113.472
120.472 127.154 113.701
120.334 127.695 112.386
121.145 128.156 113.224
117.883 130.299 112.458
117.99 128.715 112.942
121.25 129.279 112.9
121.67 130.701 113.217
122.017 130.436 114.253
117.594 131.916 112.467
117.847 130.468 113.703
122.775 132.061 114.479
117.178 133.333 113.211
123.185 133.134 114.19
116.711 134.545 113.697
123.66 134.244 113.792
124.466 135.127 114.486
116.491 135.843 114.215
125.23 136.056 114.887
125.313 137.033 114.121
125.758 137.405 114.706
116.651 137.13 114.715
126.262 138.376 114.478
126.952 139.472 114.712
127.203 139.116 115.759
116.982 138.288 115.19
127.921 140.503 115.864
117.281 139.354 115.601
128.575 141.893 116.147
117.687 140.406 115.89
128.665 143.297 116.553
118.256 141.624 115.13
119.133 142.657 115.704
128.712 145.249 115.679
128.546 144.832 116.751
120.13 143.286 116.318
120.593 144.387 115.534
120.965 144.052 116.475
128.425 146.502 116.227
127.925 146.543 117.253
121.577 145.166 115.743
123.692 146.559 116.24
122.774 145.75 116.457
124.857 147.209 116.757
124.136 146.265 117.442
126.103 147.649 116.991
125.382 146.91 117.961
127.466 147.766 116.807
126.908 147.196 117.931
128.046 147.85 115.838
119.628 126.318 114.23
118.577 126.733 114.588
119.429 125.863 115.203
120.442 125.764 115.097
120.507 126.424 114.341
121.161 126.582 114.713
118.247 128.111 114.479
121.668 127.568 114.817
121.592 128.998 114.14
122.165 128.92 115.304
118.16 129.384 114.423
122.585 130.554 115.284
117.578 131.92 113.924
117.853 130.615 115.156
123.317 131.064 115.979
123.452 132.38 115.386
124.029 131.878 116.308
117.154 133.178 114.663
123.737 133.229 114.795
124.164 133.354 115.329
116.802 134.426 115.195
124.833 134.243 115.539
125.118 135.117 115.4
125.625 135.193 116.088
116.714 135.648 115.725
126.036 136.58 115.876
126.524 137.889 115.655
127.038 137.509 116.69
116.922 136.913 116.2
127.752 138.895 116.823
117.425 137.967 116.758
128.248 140.232 116.886
117.699 139.262 116.841
128.518 141.072 117.379
128.834 142.234 117.394
128.75 140.934 118.484
117.978 140.166 116.889
118.174 140.873 116.277
118.54 140.616 117.448
128.761 143.603 117.674
128.831 142.22 118.644
119.472 142.51 116.535
118.846 141.632 116.431
119.819 142.383 117.309
128.339 144.846 117.927
128.549 143.55 118.788
121.655 144.459 116.945
120.876 143.4 117.39
121.882 143.924 117.919
127.872 144.753 118.81
127.723 145.947 118.083
122.612 145.004 117.158
123.854 145.485 117.973
125.1 146.001 118.673
126.4 146.475 118.831
120.144 125.226 116.105
119.097 125.914 115.998
119.808 124.832 117.039
120.937 124.519 117.099
121.207 125.479 115.928
121.682 124.876 116.977
121.96 125.682 116.474
122.326 125.232 117.142
118.721 127.047 115.915
121.89 126.375 115.621
122.401 126.595 116.546
118.341 128.363 115.889
122.538 127.812 116.348
122.877 129.242 116.249
123.53 128.701 117.3
118.076 129.566 116.185
123.232 130.075 116.241
124.009 129.901 117.003
117.551 131.949 115.521
117.83 130.663 116.61
124.618 130.811 117.374
124.625 132.452 116.721
125.258 131.899 117.638
117.239 133.099 116.033
124.716 133.303 116.329
125.312 133.362 116.99
117.045 134.152 116.713
125.917 134.327 117.139
126.351 136.005 116.799
126.752 135.79 117.594
117.132 135.304 117.138
127.507 137.199 117.689
117.308 136.392 117.707
127.935 137.92 117.988
128.14 139.062 118.007
128.14 137.95 119.115
117.599 137.274 118.079
117.916 138.375 118.029
118.345 137.461 119.192
128.508 140.033 118.108
128.439 139.338 119.31
118.2 139.525 117.832
118.682 138.918 118.907
128.594 140.669 119.604
119.106 140.249 118.547
128.418 142.107 119.71
119.311 141.337 117.798
120.282 141.957 118.267
127.973 143.57 119.593
120.846 142.842 118.273
122.707 144.214 118.319
122.023 143.262 118.905
123.113 143.929 119.287
127.56 144.42 119.556
127.011 145.435 119.132
123.532 144.706 118.516
124.648 145.058 119.148
125.79 145.423 119.477
118.996 125.693 117.313
119.734 124.166 117.697
120.835 123.48 117.613
122.13 123.844 117.588
122.937 125.051 117.674
118.792 127.118 117.335
123.401 125.72 118.248
122.95 126.783 117.371
123.597 126.912 118.119
118.498 128.25 117.495
123.831 127.835 117.906
124.619 128.836 118.065
125.025 128.072 119.179
118.285 129.241 117.888
124.839 129.778 118.005
125.537 129.362 119.066
117.67 131.564 117.169
117.989 130.319 118.181
125.554 130.689 118.426
125.874 132.218 118.33
126.469 131.428 119.195
117.442 132.699 117.438
117.714 131.535 118.589
125.949 133.231 118.04
126.467 133.229 118.806
117.406 133.713 118.291
126.625 134.52 118.233
127.288 135.877 118.549
127.431 135.024 119.477
117.407 134.845 118.647
127.814 136.923 118.805
127.973 136.259 119.887
117.731 135.543 119.049
117.936 136.534 118.97
118.391 135.929 120.189
128.368 137.703 120.207
118.975 137.269 120.309
128.377 139.176 120.549
119.328 138.463 119.942
119.422 139.592 119.515
120.087 139.316 120.364
128.127 140.609 120.717
119.601 140.466 118.906
120.093 140.457 119.697
127.94 142.412 120.496
121.159 142.253 119.04
120.267 141.283 119.053
121.827 142.516 119.531
121.485 141.618 119.83
122.428 142.419 120.106
127.263 143.981 120.142
127.148 142.642 120.915
126.452 143.419 120.898
124.091 144.311 119.826
123.139 143.245 120.108
125.214 144.602 120.204
124.309 143.584 120.703
126.414 144.671 120.167
125.489 143.736 120.949
120.298 122.898 118.447
119.428 124.321 118.496
119.816 122.922 119.305
120.795 121.955 119.245
121.623 122.611 118.348
122.39 121.942 118.974
122.948 123.303 118.382
123.587 122.29 119.084
123.867 123.545 119.088
124.357 123.13 119.869
119.166 125.722 118.557
123.592 124.46 118.615
124.469 124.562 119.657
118.936 126.955 118.84
124.532 125.842 119.274
124.53 127.09 119.027
125.486 126.601 120.048
118.598 128.035 119.098
125.908 127.917 120.095
118.374 129.15 119.397
126.526 128.697 120.48
126.237 130.07 119.546
126.843 130.228 120.494
118.213 130.182 119.87
127.04 131.866 119.925
117.715 132.559 119.277
118.038 131.287 119.991
127.24 133.018 120.065
117.912 133.719 119.882
118.15 132.693 120.727
127.148 134.038 119.527
127.89 134.706 120.622
117.874 134.823 120.05
118.579 134.248 121.188
128.313 136.115 121.036
118.911 135.769 121.318
128.305 137.631 121.411
119.482 136.765 121.608
119.888 138.074 120.875
120.662 138.504 121.338
120.26 137.339 121.944
120.963 137.869 122.337
128.041 139.075 121.727
120.926 139.854 120.865
121.286 139.129 121.917
127.715 140.24 121.652
127.373 139.564 122.556
127.095 140.758 122.208
121 140.846 120.18
121.921 140.239 121.552
121.966 141.128 120.665
122.689 141.162 121.407
127.597 141.497 121.268
126.664 141.9 121.823
123.165 141.846 121.309
125.91 142.831 121.658
123.322 142.477 120.912
124.11 142.725 121.173
125.067 142.858 121.536
122.435 119.931 120.221
121.192 120.19 120.378
121.705 119.145 121.002
122.606 118.407 120.803
123.538 119.925 120.258
123.821 118.439 120.665
124.591 120.242 120.431
124.803 118.818 121.009
121.737 121.038 119.614
120.472 121.285 120.46
123.18 121.005 119.588
124.399 121.743 120.002
125.261 120.175 120.982
125.321 121.923 120.734
125.853 120.454 121.548
119.602 124.298 119.626
120.104 122.683 120.38
125.309 123.624 120.583
126.088 121.598 121.679
126.159 123.018 121.525
126.751 121.937 122.454
119.504 125.557 119.934
125.532 125.25 120.397
126.227 124.636 121.41
126.859 123.749 122.324
119.106 126.741 120.356
126.46 126.312 121.101
126.878 125.536 122.219
118.658 128.019 120.378
126.563 127.5 121.05
127.001 127.321 122.11
118.64 129.149 120.909
127.25 128.926 121.417
127.304 130.803 121.196
127.651 129.89 122.114
118.709 130.282 121.521
127.587 132.149 121.04
127.815 131.497 122.046
118.51 131.558 121.494
127.716 133.564 120.612
127.978 133.385 121.688
118.803 132.894 121.743
128.316 134.742 121.887
119.362 133.46 122.618
119.26 134.819 122.293
119.91 134.201 123.17
128.281 136.086 122.238
119.715 135.979 122.241
120.111 135.401 122.945
127.82 137.356 122.49
120.744 136.543 122.934
121.593 137.601 122.952
127.425 138.326 122.92
121.937 138.528 122.715
121.963 139.357 122.18
122.455 139.325 122.791
126.606 139.043 123.286
126.349 140.17 122.99
123.699 141.176 122.213
122.889 140.257 122.327
124.778 141.174 122.799
123.888 140.167 123.02
125.846 141.081 122.601
125.098 140.108 123.377
123.818 142.044 121.681
124.561 142.126 121.986
125.577 142.046 122.155
123.252 116.938 121.301
122.157 117.387 121.748
122.54 116.374 122.395
123.399 115.515 121.948
124.534 117.171 121.238
124.768 115.931 121.508
125.602 117.437 121.687
125.938 116.279 121.866
121.034 119.888 121.485
121.624 118.48 122.115
125.681 118.867 121.596
126.46 117.474 122.309
126.489 118.771 122.505
127.128 118.028 123.13
120.797 121.057 121.797
126.453 120.264 122.335
127.104 120.086 123.219
119.9 123.877 120.93
120.397 122.384 121.736
127.209 122.094 123.312
119.773 125.132 121.337
120.128 123.719 122.216
127.344 123.995 123.233
119.478 126.284 121.6
120.02 125.096 122.736
127.305 125.788 123.256
118.985 127.646 121.537
119.614 126.406 122.669
127.298 127.156 123.627
119.037 128.77 122.206
127.464 128.53 122.741
127.77 129.902 123.033
119.489 129.07 123.106
119.128 130.538 122.708
119.78 130.02 123.727
127.858 131.848 122.893
119.128 131.735 122.63
119.816 131.167 123.678
127.951 133.361 122.903
119.471 132.578 122.69
120.018 132.315 123.519
127.96 134.665 123.172
120.639 134.682 123.759
120.428 133.226 123.946
121.274 134.302 124.375
127.759 135.969 123.326
120.774 135.644 123.437
121.519 135.654 123.962
127.244 137.037 123.562
122.624 137.956 123.539
121.86 136.737 123.738
123.74 137.933 124.094
122.954 136.89 124.363
124.848 137.875 124.244
124.153 136.743 124.743
125.801 137.739 124.129
125.323 136.691 124.713
126.583 137.944 123.704
126.332 136.81 124.36
123.258 139.227 123.52
124.421 139.163 123.84
125.665 139.064 123.845
126.928 108.248 120.817
125.903 109.159 121.861
126.635 107.145 122.076
127.97 106.301 121.302
128.245 108.516 121.011
129.386 107.077 121.415
129.103 108.979 121.883
129.523 108.065 122.651
126.072 110.525 121.34
125.009 110.523 122.251
127.294 110.333 121.319
128.301 110.332 122.016
129.055 109.771 122.978
125.514 112.083 121.708
124.563 111.796 122.872
126.875 111.929 121.675
127.988 112.016 122.358
128.65 111.5 123.301
124.564 113.17 121.808
123.841 113.763 122.925
124.224 112.843 123.404
126.073 113.745 121.872
127.185 113.417 122.219
127.985 113.543 123.365
128.457 112.87 124.169
124.275 114.571 122.04
123.526 114.791 123.381
125.685 114.981 121.832
127.152 115.169 122.627
127.921 114.885 123.514
122.369 117.431 123.155
123.082 115.909 123.59
126.811 116.367 122.62
127.655 116.702 123.634
121.314 119.758 122.673
121.896 118.617 123.445
127.619 118.482 123.975
120.993 121.014 123.027
127.483 120.381 124.171
120.663 122.335 123.15
127.535 122.279 124.267
120.453 123.59 123.535
127.557 124.169 124.279
120.44 124.878 123.975
127.453 125.698 124.596
119.46 127.496 122.958
120.177 126.301 123.831
127.375 127.178 125.047
119.524 128.215 123.231
120.065 127.734 124.121
127.54 128.47 123.973
127.757 130.253 123.949
120.519 130.377 124.561
120.194 128.985 124.235
121.043 129.477 125.114
127.555 131.468 124.032
120.845 131.495 124.582
121.45 130.637 125.516
127.607 132.905 124.055
120.728 132.376 124.36
121.526 132.17 125.231
127.467 133.878 124.262
127.21 132.747 124.729
126.813 133.235 125.139
122.25 134.731 124.849
121.555 133.285 124.88
122.501 133.662 125.44
127.227 134.87 124.269
126.324 134.34 125.126
122.518 135.887 124.604
123.142 134.637 125.54
123.647 135.63 125.044
124.985 135.593 125.129
124.258 134.706 125.715
126.237 135.586 124.872
125.43 134.553 125.588
127.056 136.011 124.108
125.728 109.248 123.042
126.568 107.959 123.654
127.686 106.675 123.331
129.153 106.788 123.101
129.288 108.635 123.841
125.146 110.797 123.682
129.132 110.409 124.162
125.021 112.095 124.598
128.881 111.743 124.677
124.142 114.047 124.532
124.621 113.116 124.674
128.322 112.722 125.575
128.209 114.332 124.972
123.761 115.222 124.935
128.042 115.816 124.545
122.91 117.132 124.365
123.417 116.268 125.058
127.919 117.312 124.841
121.692 119.735 124.038
122.543 118.398 124.671
127.82 118.91 125.033
121.449 121.045 124.321
122.198 119.667 125.24
127.598 120.651 125.229
121.139 122.253 124.506
121.959 121.183 125.526
127.657 122.448 125.311
120.902 123.638 124.79
121.791 122.556 125.658
127.508 123.918 125.548
120.928 125.393 124.98
121.543 123.972 125.698
127.279 125.389 125.817
120.871 126.845 124.994
121.774 125.136 125.911
121.722 126.324 125.965
122.525 125.553 126.682
127.069 126.652 126.171
120.987 128.283 125.093
121.795 127.649 125.926
122.709 126.999 126.854
127.393 128.746 124.959
126.994 128.278 126.066
121.863 129.196 125.937
122.76 128.426 126.662
127.435 129.892 125.287
126.82 130.026 126.245
122.295 131.103 126.086
122.779 129.975 126.555
127.15 131.419 125.223
126.466 131.114 126.27
122.553 132.541 125.821
123.295 131.152 126.508
123.715 132.301 126.159
125.032 132.417 126.167
124.407 131.342 126.575
126.323 132.233 125.803
125.57 131.363 126.632
123.45 133.514 125.989
124.561 133.569 126.094
125.762 133.4 125.761
125.923 109.542 124.186
126.643 108.631 124.802
127.407 107.712 124.85
128.744 107.899 124.624
128.903 109.44 124.976
125.716 110.849 124.887
128.834 110.66 125.36
125.649 111.675 125.695
128.628 111.601 125.757
124.984 113.525 125.947
125.597 112.632 126.113
126.297 113.489 127.102
127.992 113.71 126.456
127.219 112.676 126.966
128.067 111.943 126.525
124.52 114.708 126.015
125.476 114.451 127.133
126.942 114.448 127.392
127.876 114.835 126.241
127.993 116.035 125.75
123.38 117.321 125.646
124.134 116.134 126.318
127.89 117.655 126.083
123.175 118.689 125.981
124.039 117.59 126.812
127.616 119.268 126.195
122.879 120.134 126.347
123.918 119.181 127.002
127.523 120.929 126.318
122.775 121.684 126.482
123.674 120.777 127.274
127.383 122.444 126.56
122.526 123.178 126.588
123.542 122.394 127.23
127.058 123.823 126.74
122.372 124.383 126.545
123.313 124.022 127.263
126.872 125.149 126.941
123.353 125.496 127.355
126.71 126.762 126.993
123.608 126.616 127.444
123.865 127.895 127.34
125.304 128.011 127.524
124.638 126.802 127.572
126.405 127.896 127.141
125.819 126.739 127.572
123.743 129.238 126.982
124.978 129.157 127.204
126.275 129.097 126.939
123.772 130.39 126.94
124.793 130.336 127.142
125.98 130.32 127.046
126.327 109.747 125.452
127.14 108.825 125.882
128.143 108.612 125.395
126.304 110.896 126.163
127.148 110.11 126.521
128.249 109.694 126.106
126.167 111.903 126.737
127.079 111.352 127.052
128.156 110.857 126.594
125.258 115.846 127.162
126.41 115.695 127.704
127.492 115.602 127.037
125.034 117.153 127.524
126.397 117.084 127.91
127.49 116.792 127.076
124.901 118.614 127.801
126.269 118.526 128.063
127.323 118.311 127.247
124.779 120.103 127.831
126.096 119.966 128.096
127.159 119.788 127.336
124.469 121.698 127.934
125.751 121.396 128.086
126.916 121.229 127.458
124.315 123.25 127.896
125.525 122.911 128.068
126.58 122.635 127.57
124.197 124.694 127.789
125.292 124.326 127.958
126.325 124.055 127.608
124.201 125.752 127.594
125.068 125.579 127.813
126.173 125.498 127.648
POLYGONS 1936  7744
3 0 1 2
3 0 3 4
3 2 3 0
3 4 5 6
3 3 5 4
3 5 7 6
3 8 1 0
3 9 1 8
3 4 10 0
3 10 8 0
3 6 11 4
3 11 10 4
3 12 6 7
3 11 6 12
3 8 13 9
3 10 13 8
3 14 13 10
3 11 14 10
3 15 14 11
3 12 15 11
3 16 17 18
3 16 19 20
3 18 19 16
3 20 21 22
3 19 21 20
3 21 23 22
3 24 17 16
3 25 17 24
3 20 26 16
3 26 24 16
3 22 27 20
3 27 26 20
3 28 22 23
3 28 29 22
3 29 27 22
3 28 30 29
3 31 25 24
3 32 25 31
3 26 33 24
3 33 31 24
3 27 34 26
3 34 33 26
3 29 35 27
3 35 34 27
3 36 29 30
3 35 29 36
3 31 37 32
3 37 38 39
3 37 31 38
3 31 33 38
3 34 40 33
3 40 38 33
3 35 41 34
3 41 40 34
3 42 35 36
3 41 35 42
3 38 43 39
3 40 43 38
3 44 43 40
3 44 45 46
3 44 40 45
3 40 41 45
3 47 41 42
3 47 48 41
3 48 45 41
3 48 49 50
3 47 49 48
3 49 51 50
3 52 46 45
3 53 46 52
3 48 54 45
3 54 52 45
3 50 55 48
3 55 54 48
3 56 50 51
3 55 50 56
3 57 58 59
3 53 57 59
3 52 57 53
3 52 1 57
3 52 2 1
3 3 2 52
3 54 3 52
3 5 3 54
3 55 5 54
3 55 7 5
3 55 56 7
3 56 60 7
3 61 58 57
3 62 58 61
3 1 9 61
3 57 1 61
3 7 60 12
3 60 63 12
3 61 64 62
3 9 64 61
3 9 13 64
3 13 65 64
3 14 66 13
3 13 66 65
3 15 67 14
3 14 67 66
3 63 15 12
3 67 15 63
3 68 69 70
3 68 71 72
3 70 71 68
3 71 73 72
3 74 69 68
3 75 69 74
3 18 17 74
3 18 74 72
3 72 74 68
3 72 73 76
3 72 76 18
3 18 76 19
3 21 19 77
3 19 76 77
3 77 23 21
3 78 23 77
3 79 75 74
3 80 75 79
3 17 25 79
3 74 17 79
3 23 78 81
3 28 23 81
3 81 30 28
3 82 30 81
3 83 80 79
3 84 80 83
3 25 32 83
3 79 25 83
3 85 86 36
3 85 36 82
3 82 36 30
3 85 87 86
3 83 88 84
3 89 90 88
3 37 89 88
3 37 88 83
3 37 83 32
3 37 39 89
3 86 91 42
3 36 86 42
3 92 86 87
3 91 86 92
3 89 93 90
3 94 95 93
3 43 94 93
3 43 93 89
3 43 89 39
3 43 44 96
3 94 43 96
3 44 46 96
3 42 91 47
3 91 92 97
3 91 97 47
3 47 97 49
3 97 51 49
3 98 51 97
3 99 95 94
3 100 95 99
3 96 101 94
3 101 99 94
3 46 53 101
3 96 46 101
3 51 98 56
3 98 102 56
3 99 103 100
3 59 58 104
3 59 104 99
3 59 99 101
3 99 104 103
3 53 59 101
3 56 102 60
3 102 105 60
3 58 62 104
3 104 62 106
3 60 105 63
3 105 107 63
3 62 108 106
3 64 108 62
3 109 110 108
3 109 108 65
3 65 108 64
3 65 66 111
3 109 65 111
3 66 67 112
3 111 66 112
3 67 113 112
3 67 63 113
3 63 107 113
3 109 114 110
3 111 114 109
3 115 114 111
3 112 115 111
3 116 115 112
3 113 116 112
3 70 117 118
3 69 117 70
3 71 70 119
3 70 118 119
3 73 120 121
3 73 71 120
3 71 119 120
3 120 122 121
3 69 75 117
3 117 75 123
3 73 121 76
3 121 122 124
3 121 124 76
3 76 124 77
3 124 78 77
3 125 78 124
3 75 80 123
3 123 80 126
3 78 125 127
3 81 78 127
3 127 82 81
3 128 82 127
3 80 84 126
3 126 84 129
3 82 128 130
3 85 82 130
3 130 87 85
3 131 87 130
3 132 84 88
3 132 133 84
3 133 129 84
3 88 90 132
3 87 131 92
3 131 134 92
3 135 133 132
3 136 133 135
3 90 93 137
3 90 137 132
3 132 137 135
3 93 95 137
3 92 134 138
3 97 92 138
3 138 98 97
3 139 98 138
3 135 140 136
3 140 141 142
3 140 135 141
3 135 137 141
3 95 100 141
3 137 95 141
3 98 139 102
3 139 143 102
3 141 144 142
3 145 146 144
3 103 145 144
3 103 144 141
3 103 141 100
3 103 104 145
3 147 148 105
3 147 105 143
3 143 105 102
3 147 149 148
3 150 146 145
3 151 146 150
3 104 106 150
3 145 104 150
3 148 152 107
3 105 148 107
3 153 148 149
3 152 148 153
3 150 154 151
3 106 154 150
3 106 108 154
3 108 155 154
3 155 108 110
3 156 155 110
3 152 157 113
3 107 152 113
3 158 152 153
3 157 152 158
3 110 159 156
3 114 159 110
3 115 160 114
3 114 160 159
3 116 161 115
3 115 161 160
3 157 116 113
3 157 162 116
3 162 161 116
3 158 162 157
3 163 164 165
3 163 166 167
3 165 166 163
3 167 168 169
3 166 168 167
3 168 170 169
3 118 164 163
3 118 117 164
3 117 171 164
3 119 118 163
3 167 119 163
3 120 119 167
3 169 120 167
3 169 122 120
3 169 170 122
3 170 172 122
3 117 123 171
3 171 123 173
3 122 172 174
3 124 122 174
3 174 125 124
3 175 125 174
3 123 126 173
3 173 126 176
3 125 175 177
3 127 125 177
3 177 128 127
3 178 128 177
3 126 129 176
3 176 129 179
3 128 178 180
3 130 128 180
3 180 131 130
3 181 131 180
3 129 133 179
3 179 133 182
3 131 181 134
3 181 183 134
3 133 136 182
3 182 136 184
3 134 183 185
3 138 134 185
3 185 139 138
3 186 139 185
3 187 136 140
3 187 188 136
3 188 184 136
3 140 142 187
3 189 190 143
3 189 143 186
3 186 143 139
3 189 191 190
3 187 192 188
3 193 194 192
3 144 193 192
3 144 192 187
3 144 187 142
3 144 146 193
3 143 190 147
3 190 149 147
3 190 191 149
3 191 195 149
3 196 194 193
3 197 194 196
3 146 151 196
3 193 146 196
3 149 195 153
3 195 198 153
3 196 199 197
3 151 199 196
3 151 154 199
3 154 200 199
3 201 202 200
3 201 200 155
3 155 200 154
3 155 156 201
3 153 198 158
3 198 203 158
3 201 204 202
3 156 204 201
3 156 159 204
3 159 205 204
3 160 206 159
3 159 206 205
3 161 207 160
3 160 207 206
3 162 208 161
3 161 208 207
3 203 162 158
3 208 162 203
3 165 209 210
3 164 209 165
3 166 165 211
3 165 210 211
3 168 166 212
3 166 211 212
3 212 170 168
3 213 170 212
3 164 171 209
3 209 171 214
3 170 213 172
3 213 215 172
3 171 173 214
3 214 173 216
3 172 215 217
3 174 172 217
3 217 175 174
3 218 175 217
3 173 176 216
3 216 176 219
3 175 218 220
3 177 175 220
3 220 178 177
3 221 178 220
3 176 179 219
3 219 179 222
3 178 221 223
3 180 178 223
3 223 181 180
3 224 181 223
3 179 182 222
3 222 182 225
3 181 224 183
3 224 226 183
3 182 184 225
3 225 184 227
3 183 226 228
3 185 183 228
3 228 186 185
3 229 186 228
3 184 188 227
3 227 188 230
3 186 229 231
3 189 186 231
3 231 191 189
3 232 191 231
3 188 233 230
3 192 233 188
3 233 192 194
3 234 233 194
3 191 232 195
3 232 235 195
3 194 197 234
3 234 197 236
3 195 235 198
3 235 237 198
3 197 238 236
3 199 238 197
3 200 239 199
3 199 239 238
3 239 200 202
3 240 239 202
3 198 237 203
3 237 241 203
3 202 242 240
3 204 242 202
3 205 243 204
3 204 243 242
3 206 244 205
3 205 244 243
3 207 245 206
3 206 245 244
3 208 246 207
3 207 246 245
3 241 208 203
3 246 208 241
3 247 248 249
3 247 250 251
3 249 250 247
3 251 252 253
3 250 252 251
3 252 254 253
3 210 248 247
3 210 209 248
3 209 255 248
3 211 210 247
3 251 211 247
3 212 211 251
3 253 212 251
3 253 213 212
3 253 254 213
3 254 256 213
3 209 214 255
3 255 214 257
3 213 256 215
3 256 258 215
3 214 216 257
3 257 216 259
3 215 258 260
3 217 215 260
3 260 218 217
3 261 218 260
3 216 219 259
3 259 219 262
3 218 261 263
3 220 218 263
3 263 221 220
3 264 221 263
3 219 222 262
3 262 222 265
3 221 264 266
3 223 221 266
3 266 224 223
3 267 224 266
3 222 225 265
3 265 225 268
3 224 267 226
3 267 269 226
3 225 227 268
3 268 227 270
3 226 269 271
3 228 226 271
3 271 229 228
3 272 229 271
3 227 230 270
3 270 230 273
3 274 231 229
3 274 229 275
3 275 229 272
3 231 274 232
3 230 276 273
3 233 276 230
3 276 233 234
3 277 276 234
3 274 275 278
3 278 232 274
3 278 279 232
3 279 235 232
3 234 236 277
3 277 236 280
3 235 279 237
3 279 281 237
3 236 282 280
3 238 282 236
3 239 283 238
3 238 283 282
3 283 239 240
3 284 283 240
3 237 281 241
3 281 285 241
3 240 286 284
3 242 286 240
3 243 287 242
3 242 287 286
3 244 288 243
3 243 288 287
3 245 289 244
3 244 289 288
3 246 290 245
3 245 290 289
3 285 246 241
3 290 246 285
3 249 291 292
3 248 291 249
3 250 249 293
3 249 292 293
3 252 250 294
3 250 293 294
3 294 254 252
3 295 254 294
3 248 255 291
3 291 255 296
3 297 298 256
3 297 256 295
3 295 256 254
3 297 299 298
3 255 257 296
3 296 257 300
3 298 301 258
3 256 298 258
3 302 298 299
3 301 298 302
3 257 259 300
3 300 259 303
3 258 301 260
3 261 304 305
3 260 304 261
3 260 302 304
3 260 301 302
3 304 306 305
3 259 262 303
3 303 262 307
3 261 305 263
3 305 264 263
3 305 306 264
3 306 308 264
3 262 265 307
3 307 265 309
3 264 308 310
3 266 264 310
3 310 267 266
3 311 267 310
3 265 268 309
3 309 268 312
3 313 314 269
3 313 269 311
3 311 269 267
3 313 315 314
3 268 270 312
3 312 270 316
3 269 314 271
3 314 272 271
3 314 315 272
3 315 317 272
3 270 273 316
3 316 273 318
3 272 317 275
3 317 319 275
3 273 320 318
3 276 320 273
3 320 276 277
3 321 320 277
3 275 319 322
3 278 275 322
3 322 279 278
3 323 279 322
3 277 280 321
3 321 280 324
3 279 323 281
3 323 325 281
3 280 326 324
3 282 326 280
3 283 327 282
3 282 327 326
3 327 283 284
3 328 327 284
3 281 325 285
3 325 329 285
3 284 330 328
3 286 330 284
3 287 331 286
3 286 331 330
3 288 332 287
3 287 332 331
3 289 333 288
3 288 333 332
3 290 334 289
3 289 334 333
3 329 290 285
3 334 290 329
3 335 336 337
3 335 338 339
3 337 338 335
3 338 340 339
3 292 291 341
3 335 342 336
3 335 292 342
3 335 293 292
3 341 342 292
3 294 293 335
3 339 294 335
3 295 343 344
3 294 343 295
3 294 340 343
3 294 339 340
3 343 345 344
3 341 346 347
3 341 291 346
3 291 296 346
3 342 341 347
3 295 344 297
3 344 299 297
3 344 345 299
3 345 348 299
3 296 300 346
3 346 300 349
3 299 348 302
3 348 350 302
3 300 303 349
3 349 303 351
3 302 350 352
3 304 302 352
3 352 306 304
3 353 306 352
3 303 307 351
3 351 307 354
3 355 356 308
3 355 308 353
3 353 308 306
3 355 357 356
3 307 309 354
3 354 309 358
3 308 356 310
3 311 359 360
3 310 359 311
3 310 357 359
3 310 356 357
3 359 361 360
3 309 312 358
3 358 312 362
3 311 360 313
3 360 315 313
3 360 361 315
3 361 363 315
3 312 316 362
3 362 316 364
3 315 363 317
3 363 365 317
3 316 318 364
3 364 318 366
3 317 365 319
3 365 367 319
3 318 368 366
3 320 368 318
3 368 320 321
3 369 368 321
3 370 322 319
3 370 319 371
3 371 319 367
3 322 370 323
3 372 324 373
3 372 369 324
3 369 321 324
3 372 373 374
3 375 370 371
3 376 375 371
3 323 375 325
3 370 375 323
3 324 326 373
3 373 377 374
3 373 326 377
3 326 327 377
3 328 378 379
3 328 379 327
3 327 379 377
3 378 380 381
3 379 378 381
3 380 382 383
3 381 380 383
3 382 384 385
3 383 382 385
3 376 385 384
3 376 384 375
3 375 384 386
3 325 386 329
3 375 386 325
3 328 330 378
3 331 378 330
3 380 378 331
3 332 380 331
3 382 380 332
3 333 382 332
3 384 382 333
3 334 384 333
3 386 384 334
3 329 386 334
3 387 388 389
3 387 390 391
3 389 390 387
3 390 392 391
3 337 388 387
3 337 336 388
3 336 393 388
3 338 337 387
3 391 338 387
3 340 394 395
3 338 394 340
3 338 392 394
3 338 391 392
3 394 396 395
3 336 342 393
3 393 342 397
3 340 395 343
3 395 345 343
3 395 396 345
3 396 398 345
3 347 399 400
3 346 399 347
3 397 342 347
3 400 397 347
3 401 402 348
3 401 348 398
3 398 348 345
3 401 403 402
3 346 349 399
3 399 349 404
3 402 405 350
3 348 402 350
3 406 402 403
3 405 402 406
3 349 351 404
3 404 351 407
3 350 405 352
3 353 408 409
3 352 408 353
3 352 406 408
3 352 405 406
3 408 410 409
3 351 354 407
3 407 354 411
3 353 409 355
3 357 412 413
3 355 412 357
3 355 410 412
3 355 409 410
3 412 414 413
3 354 358 411
3 411 358 415
3 357 413 359
3 413 361 359
3 413 414 361
3 414 416 361
3 358 362 415
3 415 362 417
3 361 416 363
3 416 418 363
3 362 364 417
3 417 364 419
3 420 421 365
3 420 365 418
3 418 365 363
3 420 422 421
3 423 366 424
3 423 419 366
3 419 364 366
3 423 424 425
3 421 426 367
3 365 421 367
3 427 421 422
3 426 421 427
3 366 368 424
3 369 428 429
3 368 369 429
3 368 429 425
3 368 425 424
3 429 428 430
3 426 431 371
3 367 426 371
3 432 426 427
3 431 426 432
3 369 372 428
3 374 433 434
3 372 374 434
3 372 434 430
3 372 430 428
3 434 433 435
3 431 436 437
3 431 437 371
3 371 437 376
3 432 436 431
3 374 377 433
3 433 438 435
3 433 377 438
3 377 379 438
3 381 439 379
3 379 439 438
3 383 440 381
3 381 440 439
3 385 441 383
3 383 441 440
3 437 385 376
3 441 385 437
3 442 443 444
3 442 445 446
3 444 445 442
3 446 447 448
3 445 447 446
3 447 449 448
3 389 443 442
3 389 388 443
3 388 450 443
3 390 389 442
3 446 390 442
3 392 390 446
3 392 446 451
3 451 446 448
3 452 448 449
3 451 448 452
3 388 393 450
3 450 393 453
3 392 451 394
3 396 454 455
3 394 454 396
3 394 452 454
3 394 451 452
3 454 456 455
3 393 397 453
3 453 397 457
3 455 458 398
3 396 455 398
3 459 455 456
3 458 455 459
3 400 460 461
3 399 460 400
3 457 397 400
3 461 457 400
3 398 458 401
3 403 462 463
3 401 462 403
3 401 459 462
3 401 458 459
3 462 464 463
3 399 404 460
3 460 404 465
3 463 466 406
3 403 463 406
3 467 463 464
3 466 463 467
3 404 407 465
3 465 407 468
3 406 466 408
3 410 469 470
3 408 469 410
3 408 467 469
3 408 466 467
3 469 471 470
3 407 411 468
3 468 411 472
3 410 470 412
3 470 414 412
3 470 471 414
3 471 473 414
3 411 415 472
3 472 415 474
3 475 476 416
3 475 416 473
3 473 416 414
3 475 477 476
3 478 417 479
3 478 474 417
3 474 415 417
3 478 479 480
3 476 481 418
3 416 476 418
3 482 476 477
3 481 476 482
3 479 419 483
3 417 419 479
3 484 480 479
3 483 484 479
3 418 481 420
3 481 422 420
3 481 482 422
3 482 485 422
3 419 423 483
3 483 423 425
3 483 425 484
3 484 425 486
3 422 485 427
3 485 487 427
3 425 488 486
3 429 488 425
3 488 429 430
3 489 488 430
3 427 487 432
3 487 490 432
3 430 491 489
3 434 491 430
3 435 492 493
3 435 493 434
3 434 493 491
3 493 492 494
3 436 495 496
3 437 436 496
3 490 436 432
3 495 436 490
3 435 438 492
3 492 497 494
3 492 438 497
3 438 439 497
3 440 498 439
3 439 498 497
3 441 499 440
3 440 499 498
3 496 441 437
3 499 441 496
3 444 500 501
3 443 500 444
3 445 444 502
3 444 501 502
3 447 445 503
3 445 502 503
3 503 449 447
3 504 449 503
3 443 450 500
3 500 450 505
3 506 507 452
3 506 452 504
3 504 452 449
3 506 508 507
3 450 453 505
3 505 453 509
3 452 507 454
3 456 510 511
3 454 510 456
3 454 508 510
3 454 507 508
3 510 512 511
3 453 457 509
3 509 457 513
3 511 514 459
3 456 511 459
3 515 511 512
3 514 511 515
3 461 460 516
3 461 516 517
3 461 517 457
3 457 517 513
3 459 514 462
3 464 518 519
3 462 518 464
3 462 515 518
3 462 514 515
3 518 520 519
3 516 521 522
3 516 460 521
3 460 465 521
3 517 516 522
3 519 523 467
3 464 519 467
3 524 519 520
3 523 519 524
3 465 468 521
3 521 468 525
3 467 523 469
3 471 526 527
3 469 526 471
3 469 524 526
3 469 523 524
3 526 528 527
3 468 472 525
3 525 472 529
3 527 530 473
3 471 527 473
3 531 527 528
3 530 527 531
3 532 474 533
3 532 529 474
3 529 472 474
3 532 533 534
3 473 530 475
3 530 477 475
3 530 531 477
3 531 535 477
3 474 478 533
3 533 478 480
3 533 480 534
3 534 480 536
3 477 535 482
3 535 537 482
3 538 484 539
3 538 536 484
3 536 480 484
3 538 539 540
3 482 537 485
3 537 541 485
3 539 486 542
3 484 486 539
3 543 540 539
3 542 543 539
3 485 541 487
3 541 544 487
3 486 488 542
3 489 545 546
3 488 489 546
3 488 546 543
3 488 543 542
3 545 547 548
3 546 545 548
3 548 547 549
3 550 551 552
3 550 544 551
3 550 490 544
3 490 487 544
3 489 491 545
3 493 545 491
3 547 545 493
3 494 553 554
3 493 494 554
3 493 554 549
3 493 549 547
3 553 555 556
3 554 553 556
3 555 557 558
3 556 555 558
3 552 558 557
3 550 552 557
3 550 557 496
3 550 496 495
3 490 550 495
3 494 497 553
3 498 553 497
3 555 553 498
3 499 555 498
3 557 555 499
3 496 557 499
3 559 560 561
3 559 562 563
3 561 562 559
3 563 564 565
3 562 564 563
3 565 566 567
3 564 566 565
3 566 568 567
3 501 560 559
3 501 500 560
3 500 569 560
3 502 501 559
3 563 502 559
3 503 502 563
3 565 503 563
3 504 503 565
3 504 565 570
3 570 565 567
3 571 567 568
3 570 567 571
3 500 505 569
3 569 505 572
3 504 570 506
3 508 573 574
3 506 573 508
3 506 571 573
3 506 570 571
3 573 575 574
3 505 509 572
3 572 509 576
3 508 574 510
3 574 512 510
3 574 575 512
3 575 577 512
3 509 513 576
3 576 513 578
3 579 580 515
3 579 515 577
3 577 515 512
3 579 581 580
3 513 517 578
3 578 517 582
3 515 580 518
3 580 520 518
3 580 581 520
3 581 583 520
3 522 521 584
3 522 584 585
3 522 585 517
3 517 585 582
3 520 583 524
3 583 586 524
3 584 525 587
3 521 525 584
3 588 585 584
3 587 588 584
3 524 586 589
3 526 524 589
3 589 528 526
3 590 528 589
3 587 529 591
3 525 529 587
3 592 588 587
3 591 592 587
3 528 590 531
3 590 593 531
3 529 532 591
3 591 532 534
3 591 534 592
3 592 534 594
3 531 593 535
3 593 595 535
3 596 536 597
3 596 594 536
3 594 534 536
3 597 598 599
3 596 597 599
3 599 598 600
3 535 595 537
3 595 601 537
3 536 538 597
3 540 597 538
3 540 602 597
3 602 598 597
3 603 600 598
3 602 603 598
3 604 605 606
3 604 601 605
3 604 541 601
3 541 537 601
3 602 543 607
3 540 543 602
3 608 603 602
3 608 602 609
3 609 602 607
3 608 609 610
3 611 604 606
3 612 611 606
3 541 611 544
3 604 611 541
3 543 546 607
3 548 607 546
3 609 607 548
3 609 548 549
3 609 549 610
3 610 549 613
3 551 611 612
3 551 612 552
3 552 612 614
3 544 611 551
3 549 615 613
3 554 615 549
3 556 616 554
3 554 616 615
3 558 617 556
3 556 617 616
3 614 558 552
3 617 558 614
3 618 619 620
3 618 621 622
3 620 621 618
3 622 623 624
3 621 623 622
3 623 625 624
3 626 619 618
3 627 619 626
3 622 628 618
3 628 626 618
3 624 629 622
3 629 628 622
3 630 624 625
3 630 631 624
3 631 629 624
3 630 632 631
3 561 633 634
3 560 633 561
3 627 626 562
3 627 562 634
3 634 562 561
3 564 562 626
3 628 564 626
3 566 564 628
3 629 566 628
3 568 566 629
3 568 629 635
3 635 629 631
3 636 631 632
3 636 637 631
3 637 635 631
3 636 638 637
3 560 569 633
3 633 569 639
3 635 640 571
3 568 635 571
3 637 641 635
3 641 640 635
3 642 637 638
3 641 637 642
3 569 572 639
3 639 572 643
3 571 640 573
3 575 573 640
3 575 640 644
3 644 640 641
3 645 641 642
3 644 641 645
3 572 576 643
3 643 576 646
3 644 647 577
3 575 644 577
3 648 644 645
3 647 644 648
3 576 578 646
3 646 578 649
3 577 647 579
3 581 650 651
3 579 650 581
3 579 648 650
3 579 647 648
3 650 652 651
3 578 582 649
3 649 582 653
3 651 654 583
3 581 651 583
3 655 651 652
3 654 651 655
3 582 585 653
3 653 585 656
3 654 657 586
3 583 654 586
3 658 654 655
3 657 654 658
3 585 588 656
3 656 588 659
3 586 657 589
3 657 590 589
3 657 658 590
3 658 660 590
3 661 592 662
3 661 659 592
3 659 588 592
3 661 662 663
3 590 660 593
3 660 664 593
3 662 594 665
3 592 594 662
3 666 663 662
3 665 666 662
3 593 664 595
3 664 667 595
3 594 596 665
3 665 668 666
3 665 596 668
3 596 599 668
3 668 599 600
3 669 668 600
3 595 667 601
3 667 670 601
3 671 603 672
3 671 669 603
3 669 600 603
3 671 672 673
3 605 674 675
3 606 605 675
3 670 605 601
3 674 605 670
3 603 608 672
3 610 676 677
3 608 610 677
3 608 677 673
3 608 673 672
3 676 678 679
3 677 676 679
3 678 680 681
3 679 678 681
3 680 675 681
3 680 612 675
3 612 606 675
3 676 613 682
3 610 613 676
3 678 676 683
3 683 676 682
3 680 678 684
3 684 678 683
3 612 684 614
3 680 684 612
3 613 615 682
3 616 682 615
3 683 682 616
3 617 683 616
3 684 683 617
3 614 684 617
3 685 686 687
3 685 688 689
3 687 688 685
3 689 690 691
3 688 690 689
3 690 692 691
3 620 693 694
3 619 693 620
3 686 685 621
3 686 621 694
3 694 621 620
3 623 621 685
3 689 623 685
3 625 623 689
3 625 689 695
3 695 689 691
3 696 691 692
3 696 697 691
3 697 695 691
3 696 698 697
3 619 627 693
3 693 627 699
3 625 695 630
3 632 630 695
3 632 695 700
3 700 695 697
3 701 697 698
3 700 697 701
3 634 633 702
3 634 702 703
3 634 703 627
3 627 703 699
3 632 700 636
3 700 638 636
3 700 701 638
3 701 704 638
3 702 639 705
3 633 639 702
3 706 703 702
3 705 706 702
3 638 704 642
3 704 707 642
3 705 643 708
3 639 643 705
3 709 706 705
3 708 709 705
3 642 707 645
3 707 710 645
3 708 711 712
3 708 643 711
3 643 646 711
3 709 708 712
3 645 710 648
3 710 713 648
3 646 649 711
3 711 649 714
3 648 713 715
3 650 648 715
3 715 652 650
3 716 652 715
3 717 653 718
3 717 714 653
3 714 649 653
3 717 718 719
3 652 716 655
3 716 720 655
3 718 656 721
3 653 656 718
3 722 719 718
3 721 722 718
3 655 720 658
3 720 723 658
3 721 659 724
3 656 659 721
3 725 722 721
3 724 725 721
3 658 723 660
3 723 726 660
3 659 661 724
3 663 727 728
3 661 663 728
3 661 728 725
3 661 725 724
3 728 727 729
3 660 726 664
3 726 730 664
3 727 666 731
3 663 666 727
3 732 729 727
3 731 732 727
3 664 730 667
3 730 733 667
3 666 668 731
3 669 734 735
3 668 669 735
3 668 735 732
3 668 732 731
3 734 736 737
3 735 734 737
3 736 738 739
3 737 736 739
3 738 740 741
3 739 738 741
3 740 742 743
3 741 740 743
3 742 733 743
3 742 670 733
3 670 667 733
3 669 671 734
3 673 734 671
3 673 744 734
3 744 736 734
3 738 736 745
3 745 736 744
3 740 738 746
3 746 738 745
3 674 746 675
3 674 742 746
3 742 740 746
3 670 742 674
3 673 677 744
3 679 744 677
3 745 744 679
3 681 745 679
3 746 745 681
3 675 746 681
3 747 748 749
3 747 750 751
3 749 750 747
3 751 752 753
3 750 752 751
3 752 754 753
3 755 748 747
3 756 748 755
3 751 757 747
3 757 755 747
3 753 758 751
3 758 757 751
3 759 753 754
3 758 753 759
3 760 756 755
3 761 756 760
3 757 762 755
3 762 760 755
3 758 763 757
3 763 762 757
3 764 758 759
3 763 758 764
3 765 766 767
3 761 765 767
3 761 760 765
3 760 768 765
3 762 769 760
3 769 768 760
3 770 763 771
3 770 769 763
3 769 762 763
3 764 771 763
3 772 766 765
3 773 766 772
3 768 774 765
3 774 772 765
3 769 775 768
3 775 774 768
3 776 769 770
3 775 769 776
3 687 777 778
3 686 777 687
3 773 772 688
3 773 688 778
3 778 688 687
3 690 688 772
3 774 690 772
3 692 690 774
3 692 774 779
3 779 774 775
3 780 775 776
3 779 775 780
3 694 781 782
3 693 781 694
3 777 686 694
3 782 777 694
3 692 779 696
3 779 698 696
3 779 780 698
3 780 783 698
3 693 699 781
3 781 699 784
3 698 783 701
3 783 785 701
3 699 703 784
3 784 703 786
3 701 785 704
3 785 787 704
3 703 706 786
3 786 706 788
3 704 787 707
3 787 789 707
3 706 709 788
3 788 709 790
3 707 789 710
3 789 791 710
3 712 711 792
3 712 792 793
3 712 793 709
3 709 793 790
3 710 791 713
3 791 794 713
3 792 714 795
3 711 714 792
3 796 793 792
3 795 796 792
3 713 794 797
3 715 713 797
3 797 716 715
3 798 716 797
3 714 717 795
3 719 799 800
3 717 719 800
3 717 800 796
3 717 796 795
3 800 799 801
3 716 798 720
3 798 802 720
3 799 722 803
3 719 722 799
3 804 801 799
3 803 804 799
3 720 802 723
3 802 805 723
3 803 725 806
3 722 725 803
3 807 804 803
3 806 807 803
3 808 809 810
3 808 805 809
3 808 726 805
3 726 723 805
3 725 728 806
3 729 811 812
3 728 729 812
3 728 812 807
3 728 807 806
3 812 811 813
3 814 808 810
3 815 814 810
3 726 814 730
3 808 814 726
3 811 732 816
3 729 732 811
3 817 813 811
3 817 811 818
3 818 811 816
3 818 819 820
3 817 818 820
3 819 821 822
3 820 819 822
3 815 822 821
3 815 821 814
3 814 821 823
3 730 823 733
3 814 823 730
3 732 735 816
3 737 816 735
3 818 816 737
3 739 818 737
3 819 818 739
3 741 819 739
3 821 819 741
3 743 821 741
3 823 821 743
3 733 823 743
3 749 824 825
3 748 824 749
3 750 749 826
3 749 825 826
3 752 750 827
3 750 826 827
3 827 754 752
3 828 754 827
3 748 756 824
3 824 756 829
3 754 828 759
3 828 830 759
3 756 761 829
3 829 761 831
3 759 830 764
3 830 832 764
3 767 833 834
3 766 833 767
3 831 761 767
3 834 831 767
3 771 835 836
3 770 771 836
3 832 771 764
3 835 771 832
3 766 773 833
3 833 773 837
3 770 836 776
3 836 838 776
3 778 839 840
3 777 839 778
3 837 773 778
3 840 837 778
3 776 838 780
3 838 841 780
3 782 781 842
3 782 842 843
3 782 843 777
3 777 843 839
3 780 841 783
3 841 844 783
3 842 784 845
3 781 784 842
3 846 843 842
3 845 846 842
3 783 844 785
3 844 847 785
3 845 786 848
3 784 786 845
3 849 846 845
3 848 849 845
3 785 847 787
3 847 850 787
3 848 788 851
3 786 788 848
3 852 849 848
3 851 852 848
3 787 850 789
3 850 853 789
3 851 790 854
3 788 790 851
3 855 852 851
3 854 855 851
3 789 853 791
3 853 856 791
3 854 793 857
3 790 793 854
3 858 855 854
3 858 854 859
3 859 854 857
3 858 859 860
3 791 856 794
3 856 861 794
3 857 796 862
3 793 796 857
3 859 857 863
3 863 857 862
3 864 860 859
3 863 864 859
3 865 797 794
3 865 794 866
3 866 794 861
3 797 865 798
3 796 800 862
3 801 862 800
3 801 867 862
3 867 863 862
3 868 864 863
3 867 868 863
3 869 865 866
3 870 869 866
3 798 869 802
3 865 869 798
3 867 804 871
3 801 804 867
3 872 868 867
3 871 872 867
3 873 869 870
3 874 873 870
3 802 873 805
3 869 873 802
3 871 807 875
3 804 807 871
3 876 872 871
3 876 871 877
3 877 871 875
3 877 878 879
3 876 877 879
3 878 880 881
3 879 878 881
3 874 881 880
3 873 874 880
3 873 880 810
3 873 810 809
3 805 873 809
3 807 812 875
3 813 875 812
3 813 882 875
3 882 877 875
3 878 877 883
3 883 877 882
3 880 878 884
3 884 878 883
3 810 884 815
3 880 884 810
3 813 817 882
3 820 882 817
3 883 882 820
3 822 883 820
3 884 883 822
3 815 884 822
3 825 885 886
3 824 885 825
3 826 825 887
3 825 886 887
3 827 826 888
3 826 887 888
3 888 828 827
3 889 828 888
3 824 829 885
3 885 829 890
3 828 889 830
3 889 891 830
3 829 831 890
3 890 831 892
3 830 891 832
3 891 893 832
3 834 833 894
3 895 892 831
3 895 831 894
3 895 894 896
3 894 831 834
3 896 897 898
3 895 896 898
3 897 836 835
3 897 835 898
3 898 835 899
3 893 835 832
3 899 835 893
3 894 900 901
3 894 833 900
3 833 837 900
3 896 894 901
3 902 896 901
3 897 896 902
3 903 897 902
3 903 836 897
3 903 904 836
3 904 838 836
3 840 839 905
3 840 905 906
3 840 906 837
3 837 906 900
3 838 904 841
3 904 907 841
3 905 843 908
3 839 843 905
3 909 906 905
3 908 909 905
3 841 907 844
3 907 910 844
3 908 846 911
3 843 846 908
3 912 909 908
3 911 912 908
3 844 910 847
3 910 913 847
3 911 849 914
3 846 849 911
3 915 912 911
3 914 915 911
3 847 913 850
3 913 916 850
3 914 852 917
3 849 852 914
3 918 915 914
3 917 918 914
3 850 916 853
3 916 919 853
3 917 855 920
3 852 855 917
3 921 918 917
3 920 921 917
3 853 919 856
3 919 922 856
3 855 858 920
3 920 858 860
3 920 860 921
3 921 860 923
3 856 922 861
3 922 924 861
3 925 864 926
3 925 923 864
3 923 860 864
3 926 927 928
3 925 926 928
3 927 929 930
3 928 927 930
3 929 924 930
3 929 866 924
3 866 861 924
3 926 868 931
3 864 868 926
3 927 926 932
3 932 926 931
3 929 927 933
3 933 927 932
3 866 933 870
3 929 933 866
3 931 872 934
3 868 872 931
3 932 931 935
3 935 931 934
3 933 932 936
3 936 932 935
3 870 936 874
3 933 936 870
3 872 876 934
3 879 934 876
3 935 934 879
3 881 935 879
3 936 935 881
3 874 936 881
3 886 885 937
3 886 938 887
3 937 938 886
3 887 939 888
3 938 939 887
3 888 939 889
3 937 890 940
3 885 890 937
3 938 937 941
3 941 937 940
3 939 938 942
3 942 938 941
3 889 942 891
3 939 942 889
3 940 892 943
3 890 892 940
3 941 940 944
3 944 940 943
3 942 941 945
3 945 941 944
3 891 945 893
3 942 945 891
3 892 895 943
3 898 943 895
3 944 943 898
3 899 944 898
3 945 944 899
3 893 945 899
3 901 900 946
3 901 947 902
3 946 947 901
3 902 948 903
3 947 948 902
3 903 948 904
3 946 906 949
3 900 906 946
3 947 946 950
3 950 946 949
3 948 947 951
3 951 947 950
3 904 951 907
3 948 951 904
3 949 909 952
3 906 909 949
3 950 949 953
3 953 949 952
3 951 950 954
3 954 950 953
3 907 954 910
3 951 954 907
3 952 912 955
3 909 912 952
3 953 952 956
3 956 952 955
3 954 953 957
3 957 953 956
3 910 957 913
3 954 957 910
3 955 915 958
3 912 915 955
3 956 955 959
3 959 955 958
3 957 956 960
3 960 956 959
3 913 960 916
3 957 960 913
3 958 918 961
3 915 918 958
3 959 958 962
3 962 958 961
3 960 959 963
3 963 959 962
3 916 963 919
3 960 963 916
3 961 921 964
3 918 921 961
3 962 961 965
3 965 961 964
3 963 962 966
3 966 962 965
3 919 966 922
3 963 966 919
3 964 923 967
3 921 923 964
3 965 964 968
3 968 964 967
3 966 965 969
3 969 965 968
3 922 969 924
3 966 969 922
3 923 925 967
3 928 967 925
3 968 967 928
3 930 968 928
3 969 968 930
3 924 969 930
