# vtk DataFile Version 3.0
this file was written using fslvtkio
ASCII
DATASET POLYDATA
POINTS 642 float
124.929 141.094 101.862
117.904 142.453 104.077
116.39 136.009 102.101
123.043 134.974 100.903
121.562 138.992 103.708
122.949 137.321 97.4919
118.83 138.374 99.0727
117.812 139.795 105.725
121.89 144.098 106.188
118.997 133.611 104.381
119.69 132.829 99.1996
122.057 144.102 100.809
119.182 142.423 107.411
122.112 141.989 105.528
119.701 139.71 104.685
118.082 136.614 104.441
120.391 136.455 103.627
120.166 141.432 99.8149
120.832 137.484 97.4511
122.75 141.01 99.1281
118.676 135.031 97.8852
121.984 134.154 96.7427
122.767 136.728 103.093
123.521 140.438 103.495
123.436 138.228 101.001
123.584 135.537 98.4415
124.342 139.873 99.5451
116.739 141.828 106.362
116.39 137.886 104.517
116.586 139.691 102.788
118.137 140.931 101.147
117.28 136.874 100.099
124.833 143.664 101.118
124.78 143.239 104.387
122.852 145.415 103.928
119.749 143.911 102.627
119.027 144.796 106.445
122.677 133.033 99.455
118.683 132.169 102.614
121.671 133.692 102.736
116.805 133.375 100.575
116.369 133.809 104.07
120.812 142.205 106.504
120.789 141.01 105.133
119.607 141.293 106.019
120.651 139.403 104.049
121.61 140.627 104.308
122.28 143.012 106.025
120.528 143.326 107.211
118.621 141.085 106.681
118.639 139.883 105.114
119.185 138.067 104.907
120.196 137.811 104.39
119.265 136.637 104.118
121.231 137.472 104.08
118.057 138.148 105.062
118.363 135.106 104.237
119.526 135.083 103.563
120.69 139.51 98.8688
121.713 139.104 98.3164
121.483 141.178 99.2779
122.749 139.012 98.3572
121.935 137.317 97.0935
119.862 138.002 98.2148
119.512 139.893 99.3906
121.005 142.948 100.157
122.534 142.627 99.9031
120.199 134.605 97.0873
121.141 135.849 96.3084
119.675 136.307 97.2132
122.796 135.742 96.5119
120.867 133.33 97.9331
118.95 133.548 98.2733
118.837 136.612 98.3276
122.998 138.675 103.021
123.613 139.199 102.306
123.263 137.602 102.089
124.201 139.684 101.425
124.308 140.786 102.791
122.228 139.994 103.363
122.369 137.779 103.753
122.613 135.998 101.876
123.026 136.565 100.887
123.067 136.834 99.7891
124.102 138.816 100.201
123.373 137.725 99.0865
125.199 140.5 100.514
123.456 135.173 99.7425
123.464 136.511 97.7469
123.551 138.62 98.546
116.302 140.041 105.469
116.31 139.002 103.855
116.476 140.891 104.692
116.542 137.883 102.374
116.228 136.886 103.306
117.118 138.834 105.231
117.104 140.659 106.793
117.427 142.246 105.236
117.197 141.116 103.472
117.092 140.257 101.851
116.817 138.22 101.324
117.54 138.984 100.553
116.713 136.324 101.018
117.977 141.768 102.449
118.456 139.739 100.106
117.888 137.619 99.3438
125.25 143.833 102.894
124.81 144.953 104.303
124.303 145.077 102.422
122.541 145.033 105.39
123.65 143.708 105.206
125.104 142.116 103.123
125.52 142.244 101.318
123.454 144.183 100.835
122.447 145.24 102.161
121.081 145.149 103.249
120.853 145.082 105.189
119.48 144.624 104.385
120.462 144.592 106.843
120.875 144.251 101.593
118.675 143.204 103.38
118.563 143.571 105.157
120.923 132.531 100.862
120.62 132.256 102.798
122.588 132.658 101.507
120.255 133.582 103.633
118.867 132.226 104.198
119.334 132.483 100.681
121.155 132.814 99.2237
123.516 133.731 100.428
122.51 134.441 101.835
116.192 133.242 102.495
117.035 132.344 103.826
117.443 132.257 101.586
117.6 133.524 104.716
116.025 134.931 102.958
116.27 134.734 101.386
118.057 132.721 99.7964
122.797 141.206 104.521
123.578 142.654 105.103
124.358 141.77 104.166
125.321 141.948 99.8385
123.951 142.692 99.9251
123.818 140.788 99.1281
120.747 135.153 103.044
121.674 136.547 103.46
121.86 135.429 102.516
123.537 134.112 98.9146
123.538 134.784 97.283
122.441 133.344 97.9162
118.792 143.887 107.814
117.814 142.039 107.279
118.026 143.266 106.312
118.708 142.619 101.808
119.026 141.293 100.432
119.759 143.062 100.935
116.436 135.775 103.936
117.086 136.978 104.645
117.246 135.164 104.35
117.506 134.085 98.9431
117.869 135.815 98.9805
116.835 135.096 100.034
120.89 141.604 105.781
120.193 141.09 105.525
120.257 141.638 106.332
119.612 140.602 105.264
120.16 140.42 104.944
121.465 141.628 105.451
121.384 142.141 105.979
120.109 142.265 107.018
119.526 141.885 106.813
120.603 140.297 104.471
121.322 140.832 104.813
121.083 140.086 104.074
121.957 141.31 105.073
120.17 139.678 104.333
121.08 139.16 103.844
121.422 139.857 103.717
121.442 142.709 106.256
120.706 142.763 106.836
121.399 143.15 106.645
119.883 142.895 107.293
122.194 142.578 105.906
122.117 143.5 106.197
121.231 143.763 106.801
119.111 141.29 106.358
119.087 140.614 105.501
118.631 140.555 105.843
119.162 139.871 104.931
118.848 141.842 107.05
118.144 140.43 106.083
118.17 139.874 105.342
119.759 138.063 104.641
119.803 137.25 104.297
119.28 137.353 104.616
119.809 136.55 103.885
120.351 137.116 104.181
119.958 138.858 104.458
119.374 138.961 104.657
118.661 137.281 104.732
118.688 136.691 104.263
120.711 137.57 104.244
120.444 138.63 104.218
120.925 138.325 104.098
120.858 136.959 103.92
121.366 138.17 103.892
118.886 139.017 104.874
118.663 138.056 105.04
118.366 139.043 105.067
118.104 137.302 104.837
117.9 139.02 105.292
118.796 135.889 104.096
119.378 135.87 103.782
118.988 135.098 103.987
119.972 135.838 103.532
118.183 135.913 104.212
118.599 134.354 104.303
119.276 134.327 103.983
121.214 139.291 98.546
121.633 140.185 98.8555
121.024 140.409 98.9928
122.105 141.001 99.181
122.148 140.124 98.7044
121.276 138.32 97.9866
120.742 138.559 98.1601
120.384 140.564 99.2439
120.816 141.249 99.5935
122.221 139.041 98.2578
121.754 138.127 97.716
122.342 138.036 97.8189
121.328 137.393 97.1516
122.769 140.085 98.7415
122.774 138.091 97.885
122.499 137.332 97.2192
120.251 138.692 98.4521
120.114 139.665 99.138
119.72 138.807 98.91
119.794 140.683 99.5401
120.355 137.759 97.8479
119.391 138.137 98.7161
119.255 138.975 99.2947
121.29 141.99 99.7097
122.008 141.842 99.5508
121.752 142.773 99.9723
122.646 141.716 99.5428
120.613 142.125 99.9587
121.471 143.599 100.439
122.262 143.482 100.174
120.722 135.164 96.6885
120.391 136.159 96.768
119.979 135.458 97.1038
120.247 136.873 97.2835
120.892 136.706 96.8443
121.624 134.946 96.5048
121.053 134.351 96.8621
119.504 134.874 97.3995
119.285 135.618 97.5297
121.59 136.599 96.5765
122.018 135.72 96.3284
122.315 136.627 96.5915
122.484 134.87 96.5005
122.958 136.545 96.8214
120.427 133.861 97.3064
119.513 134.068 97.5011
119.898 133.368 97.9082
118.728 134.258 97.9292
121.313 133.74 97.3015
120.305 133.066 98.5734
119.406 133.028 98.7237
119.277 136.46 97.775
119.859 137.126 97.7951
119.364 137.311 98.3867
118.673 135.827 97.9837
118.902 137.55 98.7388
123.322 138.9 102.727
123.336 138.433 102.171
123.211 138.029 102.661
123.29 138.05 101.559
123.621 138.727 101.69
123.45 139.866 102.874
123.024 139.705 103.01
123.045 137.549 103.108
123.156 137.165 102.59
123.848 139.474 101.885
123.894 140.107 102.575
124.233 140.196 102.098
123.891 140.604 103.189
123.902 138.953 101.217
124.589 140.384 101.636
124.62 140.915 102.321
122.588 139.363 103.182
122.753 138.121 103.414
122.27 138.856 103.47
122.682 137.199 103.543
122.844 140.319 103.4
121.763 139.524 103.391
121.993 138.339 103.743
122.989 136.686 101.968
123.014 137.176 101.407
122.922 136.305 101.356
123.044 137.49 100.914
122.787 136.371 102.484
122.687 135.522 101.348
123.1 135.667 100.891
123.403 137.88 100.022
123.697 138.27 99.6443
123.189 137.219 99.4066
123.917 138.719 99.2821
124.3 139.256 99.8456
123.785 138.456 100.599
123.205 137.512 100.403
123.315 136.131 99.1411
123.28 136.599 98.745
124.66 139.697 100.414
124.261 139.29 100.862
124.677 140.074 101.004
124.868 140.269 99.9464
124.98 140.808 101.213
123.038 136.672 100.414
123.233 135.964 99.7247
123.268 135.806 100.419
123.559 135.318 99.0925
123.387 135.116 100.413
123.361 137 98.5029
123.512 138.152 98.7757
123.264 137.557 98.2283
123.905 139.163 99.0452
123.463 136.008 98.0619
123.269 136.925 97.5475
123.112 138.004 98.071
116.228 139.544 104.676
116.333 139.963 104.253
116.161 140.568 105.111
116.5 140.306 103.793
116.426 139.447 103.43
116.233 138.431 104.194
116.442 139.031 104.871
116.349 141.022 106.033
116.582 141.369 105.494
116.449 138.454 103.097
116.305 137.915 103.483
116.409 137.418 102.818
116.181 137.36 103.887
116.542 138.84 102.592
116.47 136.878 102.137
116.325 136.417 102.678
116.753 139.416 105.445
116.527 140.389 106.279
117.121 139.857 105.82
116.669 141.199 106.839
116.736 138.435 104.914
117.466 139.245 105.53
117.557 140.228 106.274
116.939 141.542 104.941
116.776 141.044 104.077
117.17 141.763 104.332
116.808 140.425 103.207
117.132 142.04 105.766
117.64 142.405 104.599
117.549 141.853 103.762
117.001 139.218 101.601
117.172 138.561 100.908
117.342 139.541 101.204
117.265 137.966 100.254
116.988 137.542 100.692
116.721 138.969 102.011
116.806 139.91 102.3
117.59 140.51 101.446
117.739 139.968 100.871
116.784 137.352 101.229
116.58 138.09 101.85
116.584 137.114 101.688
116.988 136.548 100.571
116.56 136.148 101.54
117.073 140.761 102.611
117.494 141.07 102.069
117.6 141.395 102.953
117.973 141.341 101.703
117.954 142.086 103.245
118.067 139.356 100.384
117.656 138.257 99.9712
118.25 138.645 99.8491
117.516 137.287 99.6827
118.266 140.353 100.633
118.721 138.964 99.6602
118.357 138.014 99.2199
125.218 144.465 103.587
124.731 145.233 103.338
124.878 144.487 102.599
123.808 145.481 103.213
124.016 145.368 104.007
125.024 144.041 104.412
125.231 143.583 103.773
125.198 143.882 101.889
124.624 144.531 101.673
123.721 145.103 104.806
124.339 144.368 104.966
123.259 144.524 105.394
124.403 143.525 104.934
122.806 145.33 104.676
122.178 144.54 105.847
122.778 143.877 105.747
125.397 143.007 103.004
125.485 143.181 102.093
125.383 142.255 102.233
125.339 143.139 101.252
124.902 142.832 103.798
124.995 141.58 102.481
125.293 141.607 101.657
123.886 144.867 101.599
123.415 145.26 102.372
123.009 144.771 101.509
122.777 145.457 103.099
124.168 144.058 101.036
122.74 144.086 100.784
122.234 144.695 101.445
121.024 145.172 104.201
120.087 145.024 104.86
120.21 144.951 103.822
119.251 144.862 105.397
119.937 145.037 105.916
121.803 145.283 104.485
121.918 145.294 103.624
120.341 144.731 102.975
119.662 144.433 103.451
120.629 144.986 106.037
121.75 145.17 105.249
121.476 144.799 106.104
119.777 144.805 106.817
121.166 144.384 106.621
121.861 145.343 102.706
120.959 144.863 102.418
121.623 144.82 101.885
120.401 144.189 102.177
121.451 144.147 101.138
119.057 143.957 103.803
118.874 144.225 104.775
118.58 143.35 104.205
118.702 144.412 105.745
119.188 143.597 102.992
118.233 142.8 103.755
118.132 143.031 104.652
120.729 132.306 101.867
121.714 132.263 102.138
121.724 132.532 101.086
122.289 132.893 102.314
121.411 132.764 102.809
119.689 132.237 102.62
119.845 132.348 101.776
121.853 132.688 100.123
122.577 132.845 100.487
120.653 132.763 103.414
119.753 132.228 103.507
119.861 132.727 104.086
118.773 132.176 103.366
120.971 133.592 103.159
119.636 133.636 104.08
119.045 132.935 104.501
120.023 132.482 100.835
121.01 132.639 100.034
120.239 132.65 99.9335
121.902 132.866 99.2657
118.99 132.303 101.684
119.468 132.632 99.8527
120.4 132.84 99.1318
123.162 133.132 100.996
122.763 133.379 101.902
123.119 134.016 101.251
122.181 133.914 102.245
123.202 133.248 99.9802
123.334 134.375 100.807
122.707 134.848 101.381
116.459 132.582 103.234
117.256 132.261 102.797
116.626 132.506 102.17
118.005 132.208 102.164
117.839 132.173 103.188
116.554 132.967 104.106
116.222 133.4 103.365
116.48 133.298 101.609
116.89 132.684 101.116
117.873 132.213 104.026
117.146 132.794 104.652
118.169 132.88 104.599
116.885 133.523 104.505
118.306 133.571 104.62
116.102 134.078 102.737
116.211 134.039 101.876
116.27 134.925 102.259
116.473 134.03 101.029
116.151 134.273 103.494
116.206 135.523 102.503
116.341 135.368 101.728
117.687 132.407 100.717
118.468 132.42 101.298
118.743 132.581 100.389
117.247 132.924 100.123
118.867 132.75 99.46
123.265 141.889 104.811
124.075 142.242 104.624
123.621 141.522 104.459
124.559 142.588 104.262
124.277 142.98 104.895
122.87 142.312 105.291
122.565 141.666 105.054
123.212 140.859 104.043
123.925 141.111 103.935
123.705 143.114 105.265
122.959 142.744 105.616
123.053 143.273 105.79
122.128 140.977 104.444
122.441 140.646 103.791
121.829 140.309 103.702
124.278 141.182 103.516
124.776 141.978 103.702
124.687 141.386 102.985
124.691 142.508 99.9518
123.941 141.755 99.7109
124.462 141.458 99.7163
123.348 140.949 99.1858
123.301 141.787 99.6532
124.42 143.361 100.499
125.149 142.886 100.505
124.836 140.978 99.6821
124.169 140.355 99.3083
123.195 142.554 99.8541
123.752 143.48 100.364
122.995 143.473 100.213
125.432 142.129 100.551
125.361 141.133 100.071
125.271 141.357 100.945
123.679 139.61 98.9091
123.224 139.99 98.8252
123.171 138.845 98.4056
121.142 135.873 103.076
121.778 135.996 103.019
121.345 135.223 102.78
122.358 136.129 102.808
122.293 136.626 103.416
121.072 136.446 103.543
120.525 135.832 103.25
121.094 134.404 102.83
121.701 134.513 102.519
122.126 137.133 103.775
121.446 137.035 103.835
121.776 137.753 103.866
120.221 135.145 103.382
120.526 134.303 103.252
119.886 134.335 103.624
121.991 134.86 102.099
122.252 135.703 102.197
122.297 135.293 101.728
123.675 134.308 98.0335
123.166 133.963 97.4233
123.223 133.611 98.3235
122.271 133.718 97.3326
122.817 134.447 96.968
123.742 135.129 97.9123
123.678 134.746 98.7171
123.193 133.448 99.1032
122.604 133.14 98.625
123.223 135.273 96.7571
123.628 135.683 97.4535
123.382 136.252 97.0772
123.676 134.627 99.4365
123.481 133.795 99.6852
123.644 134.424 100.181
121.848 133.02 98.5005
121.664 133.315 97.8272
121.038 133.06 98.5293
118.278 142.945 107.43
117.823 142.704 106.805
118.07 143.928 107.305
117.537 142.515 106.252
117.234 141.908 106.938
118.438 142.249 107.38
119.034 143 107.808
118.801 144.529 107.265
118.322 144.193 106.387
117.463 141.224 107.159
118.236 141.446 107.138
117.904 140.763 106.713
119.679 143.424 107.538
119.551 144.343 107.508
120.454 143.997 107.174
118.319 143.58 105.809
117.803 142.774 105.803
117.915 142.934 105.243
118.904 142.042 101.089
119.448 142.164 100.709
119.178 142.981 101.364
119.954 142.192 100.321
119.594 141.402 100.132
118.541 141.142 100.8
118.408 141.786 101.43
119.137 143.361 102.178
119.74 143.69 101.737
119.228 140.669 99.8488
118.719 140.527 100.303
118.921 139.878 99.6735
118.292 142.166 102.115
118.652 142.987 102.573
118.326 142.511 102.931
120.352 143.696 101.309
120.253 142.965 100.394
120.832 143.653 100.761
116.671 136.413 104.394
117.168 136.144 104.281
116.721 135.328 104.267
117.59 135.934 104.287
117.567 136.727 104.659
116.653 137.442 104.725
116.323 136.84 104.137
116.238 134.711 104.022
116.755 134.383 104.433
117.6 137.547 104.914
117.081 137.874 104.954
117.55 138.417 105.214
116.321 136.352 103.646
116.09 135.203 103.582
116.224 135.842 103.08
117.308 134.292 104.523
117.805 135.208 104.282
118.014 134.345 104.437
117.613 135.017 98.8806
117.311 135.48 99.4464
117.059 134.566 99.4701
117.158 135.939 100.043
117.55 136.266 99.5226
118.137 135.409 98.3748
118.03 134.627 98.3682
117.134 133.723 99.7174
116.757 134.296 100.214
117.883 136.711 99.1325
118.384 136.231 98.6303
118.394 137.165 98.8581
118.166 133.814 98.5303
117.605 133.337 99.3135
118.476 133.089 98.9924
116.478 134.759 100.664
116.748 135.604 100.497
116.444 135.46 101.08
POLYGONS 1280  5120
3 164 162 163
3 163 44 164
3 162 43 163
3 164 42 162
3 166 165 163
3 163 43 166
3 165 44 163
3 166 14 165
3 168 167 162
3 162 42 168
3 167 43 162
3 168 13 167
3 170 169 164
3 164 44 170
3 169 42 164
3 170 12 169
3 173 171 172
3 172 46 173
3 171 43 172
3 173 45 171
3 167 174 172
3 172 43 167
3 174 46 172
3 167 13 174
3 175 166 171
3 171 45 175
3 166 43 171
3 175 14 166
3 177 176 173
3 173 46 177
3 176 45 173
3 177 4 176
3 180 178 179
3 179 48 180
3 178 42 179
3 180 47 178
3 169 181 179
3 179 42 169
3 181 48 179
3 169 12 181
3 182 168 178
3 178 47 182
3 168 42 178
3 182 13 168
3 184 183 180
3 180 48 184
3 183 47 180
3 184 8 183
3 187 185 186
3 186 50 187
3 185 44 186
3 187 49 185
3 165 188 186
3 186 44 165
3 188 50 186
3 165 14 188
3 189 170 185
3 185 49 189
3 170 44 185
3 189 12 170
3 191 190 187
3 187 50 191
3 190 49 187
3 191 7 190
3 194 192 193
3 193 53 194
3 192 52 193
3 194 51 192
3 196 195 193
3 193 52 196
3 195 53 193
3 196 16 195
3 198 197 192
3 192 51 198
3 197 52 192
3 198 14 197
3 200 199 194
3 194 53 200
3 199 51 194
3 200 15 199
3 203 201 202
3 202 45 203
3 201 52 202
3 203 54 201
3 197 175 202
3 202 52 197
3 175 45 202
3 197 14 175
3 204 196 201
3 201 54 204
3 196 52 201
3 204 16 196
3 176 205 203
3 203 45 176
3 205 54 203
3 176 4 205
3 208 206 207
3 207 55 208
3 206 51 207
3 208 50 206
3 199 209 207
3 207 51 199
3 209 55 207
3 199 15 209
3 188 198 206
3 206 50 188
3 198 51 206
3 188 14 198
3 210 191 208
3 208 55 210
3 191 50 208
3 210 7 191
3 213 211 212
3 212 57 213
3 211 53 212
3 213 56 211
3 195 214 212
3 212 53 195
3 214 57 212
3 195 16 214
3 215 200 211
3 211 56 215
3 200 53 211
3 215 15 200
3 217 216 213
3 213 57 217
3 216 56 213
3 217 9 216
3 220 218 219
3 219 60 220
3 218 59 219
3 220 58 218
3 222 221 219
3 219 59 222
3 221 60 219
3 222 19 221
3 224 223 218
3 218 58 224
3 223 59 218
3 224 18 223
3 226 225 220
3 220 60 226
3 225 58 220
3 226 17 225
3 229 227 228
3 228 62 229
3 227 59 228
3 229 61 227
3 223 230 228
3 228 59 223
3 230 62 228
3 223 18 230
3 231 222 227
3 227 61 231
3 222 59 227
3 231 19 222
3 233 232 229
3 229 62 233
3 232 61 229
3 233 5 232
3 236 234 235
3 235 64 236
3 234 58 235
3 236 63 234
3 225 237 235
3 235 58 225
3 237 64 235
3 225 17 237
3 238 224 234
3 234 63 238
3 224 58 234
3 238 18 224
3 240 239 236
3 236 64 240
3 239 63 236
3 240 6 239
3 243 241 242
3 242 66 243
3 241 60 242
3 243 65 241
3 221 244 242
3 242 60 221
3 244 66 242
3 221 19 244
3 245 226 241
3 241 65 245
3 226 60 241
3 245 17 226
3 247 246 243
3 243 66 247
3 246 65 243
3 247 11 246
3 250 248 249
3 249 69 250
3 248 68 249
3 250 67 248
3 252 251 249
3 249 68 252
3 251 69 249
3 252 18 251
3 254 253 248
3 248 67 254
3 253 68 248
3 254 21 253
3 256 255 250
3 250 69 256
3 255 67 250
3 256 20 255
3 259 257 258
3 258 70 259
3 257 68 258
3 259 62 257
3 253 260 258
3 258 68 253
3 260 70 258
3 253 21 260
3 230 252 257
3 257 62 230
3 252 68 257
3 230 18 252
3 261 233 259
3 259 70 261
3 233 62 259
3 261 5 233
3 264 262 263
3 263 72 264
3 262 67 263
3 264 71 262
3 255 265 263
3 263 67 255
3 265 72 263
3 255 20 265
3 266 254 262
3 262 71 266
3 254 67 262
3 266 21 254
3 268 267 264
3 264 72 268
3 267 71 264
3 268 10 267
3 271 269 270
3 270 63 271
3 269 69 270
3 271 73 269
3 251 238 270
3 270 69 251
3 238 63 270
3 251 18 238
3 272 256 269
3 269 73 272
3 256 69 269
3 272 20 256
3 239 273 271
3 271 63 239
3 273 73 271
3 239 6 273
3 276 274 275
3 275 76 276
3 274 75 275
3 276 74 274
3 278 277 275
3 275 75 278
3 277 76 275
3 278 24 277
3 280 279 274
3 274 74 280
3 279 75 274
3 280 23 279
3 282 281 276
3 276 76 282
3 281 74 276
3 282 22 281
3 285 283 284
3 284 78 285
3 283 75 284
3 285 77 283
3 279 286 284
3 284 75 279
3 286 78 284
3 279 23 286
3 287 278 283
3 283 77 287
3 278 75 283
3 287 24 278
3 289 288 285
3 285 78 289
3 288 77 285
3 289 0 288
3 292 290 291
3 291 80 292
3 290 74 291
3 292 79 290
3 281 293 291
3 291 74 281
3 293 80 291
3 281 22 293
3 294 280 290
3 290 79 294
3 280 74 290
3 294 23 280
3 296 295 292
3 292 80 296
3 295 79 292
3 296 4 295
3 299 297 298
3 298 82 299
3 297 76 298
3 299 81 297
3 277 300 298
3 298 76 277
3 300 82 298
3 277 24 300
3 301 282 297
3 297 81 301
3 282 76 297
3 301 22 282
3 303 302 299
3 299 82 303
3 302 81 299
3 303 3 302
3 306 304 305
3 305 85 306
3 304 84 305
3 306 83 304
3 308 307 305
3 305 84 308
3 307 85 305
3 308 26 307
3 310 309 304
3 304 83 310
3 309 84 304
3 310 24 309
3 312 311 306
3 306 85 312
3 311 83 306
3 312 25 311
3 315 313 314
3 314 77 315
3 313 84 314
3 315 86 313
3 309 287 314
3 314 84 309
3 287 77 314
3 309 24 287
3 316 308 313
3 313 86 316
3 308 84 313
3 316 26 308
3 288 317 315
3 315 77 288
3 317 86 315
3 288 0 317
3 320 318 319
3 319 87 320
3 318 83 319
3 320 82 318
3 311 321 319
3 319 83 311
3 321 87 319
3 311 25 321
3 300 310 318
3 318 82 300
3 310 83 318
3 300 24 310
3 322 303 320
3 320 87 322
3 303 82 320
3 322 3 303
3 325 323 324
3 324 89 325
3 323 85 324
3 325 88 323
3 307 326 324
3 324 85 307
3 326 89 324
3 307 26 326
3 327 312 323
3 323 88 327
3 312 85 323
3 327 25 312
3 329 328 325
3 325 89 329
3 328 88 325
3 329 5 328
3 332 330 331
3 331 92 332
3 330 91 331
3 332 90 330
3 334 333 331
3 331 91 334
3 333 92 331
3 334 29 333
3 336 335 330
3 330 90 336
3 335 91 330
3 336 28 335
3 338 337 332
3 332 92 338
3 337 90 332
3 338 27 337
3 341 339 340
3 340 94 341
3 339 91 340
3 341 93 339
3 335 342 340
3 340 91 335
3 342 94 340
3 335 28 342
3 343 334 339
3 339 93 343
3 334 91 339
3 343 29 334
3 345 344 341
3 341 94 345
3 344 93 341
3 345 2 344
3 348 346 347
3 347 96 348
3 346 90 347
3 348 95 346
3 337 349 347
3 347 90 337
3 349 96 347
3 337 27 349
3 350 336 346
3 346 95 350
3 336 90 346
3 350 28 336
3 352 351 348
3 348 96 352
3 351 95 348
3 352 7 351
3 355 353 354
3 354 98 355
3 353 92 354
3 355 97 353
3 333 356 354
3 354 92 333
3 356 98 354
3 333 29 356
3 357 338 353
3 353 97 357
3 338 92 353
3 357 27 338
3 359 358 355
3 355 98 359
3 358 97 355
3 359 1 358
3 362 360 361
3 361 101 362
3 360 100 361
3 362 99 360
3 364 363 361
3 361 100 364
3 363 101 361
3 364 31 363
3 366 365 360
3 360 99 366
3 365 100 360
3 366 29 365
3 368 367 362
3 362 101 368
3 367 99 362
3 368 30 367
3 371 369 370
3 370 93 371
3 369 100 370
3 371 102 369
3 365 343 370
3 370 100 365
3 343 93 370
3 365 29 343
3 372 364 369
3 369 102 372
3 364 100 369
3 372 31 364
3 344 373 371
3 371 93 344
3 373 102 371
3 344 2 373
3 376 374 375
3 375 103 376
3 374 99 375
3 376 98 374
3 367 377 375
3 375 99 367
3 377 103 375
3 367 30 377
3 356 366 374
3 374 98 356
3 366 99 374
3 356 29 366
3 378 359 376
3 376 103 378
3 359 98 376
3 378 1 359
3 381 379 380
3 380 105 381
3 379 101 380
3 381 104 379
3 363 382 380
3 380 101 363
3 382 105 380
3 363 31 382
3 383 368 379
3 379 104 383
3 368 101 379
3 383 30 368
3 385 384 381
3 381 105 385
3 384 104 381
3 385 6 384
3 388 386 387
3 387 108 388
3 386 107 387
3 388 106 386
3 390 389 387
3 387 107 390
3 389 108 387
3 390 34 389
3 392 391 386
3 386 106 392
3 391 107 386
3 392 33 391
3 394 393 388
3 388 108 394
3 393 106 388
3 394 32 393
3 397 395 396
3 396 110 397
3 395 107 396
3 397 109 395
3 391 398 396
3 396 107 391
3 398 110 396
3 391 33 398
3 399 390 395
3 395 109 399
3 390 107 395
3 399 34 390
3 401 400 397
3 397 110 401
3 400 109 397
3 401 8 400
3 404 402 403
3 403 112 404
3 402 106 403
3 404 111 402
3 393 405 403
3 403 106 393
3 405 112 403
3 393 32 405
3 406 392 402
3 402 111 406
3 392 106 402
3 406 33 392
3 408 407 404
3 404 112 408
3 407 111 404
3 408 0 407
3 411 409 410
3 410 114 411
3 409 108 410
3 411 113 409
3 389 412 410
3 410 108 389
3 412 114 410
3 389 34 412
3 413 394 409
3 409 113 413
3 394 108 409
3 413 32 394
3 415 414 411
3 411 114 415
3 414 113 411
3 415 11 414
3 418 416 417
3 417 117 418
3 416 116 417
3 418 115 416
3 420 419 417
3 417 116 420
3 419 117 417
3 420 36 419
3 422 421 416
3 416 115 422
3 421 116 416
3 422 34 421
3 424 423 418
3 418 117 424
3 423 115 418
3 424 35 423
3 427 425 426
3 426 109 427
3 425 116 426
3 427 118 425
3 421 399 426
3 426 116 421
3 399 109 426
3 421 34 399
3 428 420 425
3 425 118 428
3 420 116 425
3 428 36 420
3 400 429 427
3 427 109 400
3 429 118 427
3 400 8 429
3 432 430 431
3 431 119 432
3 430 115 431
3 432 114 430
3 423 433 431
3 431 115 423
3 433 119 431
3 423 35 433
3 412 422 430
3 430 114 412
3 422 115 430
3 412 34 422
3 434 415 432
3 432 119 434
3 415 114 432
3 434 11 415
3 437 435 436
3 436 121 437
3 435 117 436
3 437 120 435
3 419 438 436
3 436 117 419
3 438 121 436
3 419 36 438
3 439 424 435
3 435 120 439
3 424 117 435
3 439 35 424
3 441 440 437
3 437 121 441
3 440 120 437
3 441 1 440
3 444 442 443
3 443 124 444
3 442 123 443
3 444 122 442
3 446 445 443
3 443 123 446
3 445 124 443
3 446 39 445
3 448 447 442
3 442 122 448
3 447 123 442
3 448 38 447
3 450 449 444
3 444 124 450
3 449 122 444
3 450 37 449
3 453 451 452
3 452 126 453
3 451 123 452
3 453 125 451
3 447 454 452
3 452 123 447
3 454 126 452
3 447 38 454
3 455 446 451
3 451 125 455
3 446 123 451
3 455 39 446
3 457 456 453
3 453 126 457
3 456 125 453
3 457 9 456
3 460 458 459
3 459 128 460
3 458 122 459
3 460 127 458
3 449 461 459
3 459 122 449
3 461 128 459
3 449 37 461
3 462 448 458
3 458 127 462
3 448 122 458
3 462 38 448
3 464 463 460
3 460 128 464
3 463 127 460
3 464 10 463
3 467 465 466
3 466 130 467
3 465 124 466
3 467 129 465
3 445 468 466
3 466 124 445
3 468 130 466
3 445 39 468
3 469 450 465
3 465 129 469
3 450 124 465
3 469 37 450
3 471 470 467
3 467 130 471
3 470 129 467
3 471 3 470
3 474 472 473
3 473 133 474
3 472 132 473
3 474 131 472
3 476 475 473
3 473 132 476
3 475 133 473
3 476 38 475
3 478 477 472
3 472 131 478
3 477 132 472
3 478 41 477
3 480 479 474
3 474 133 480
3 479 131 474
3 480 40 479
3 483 481 482
3 482 134 483
3 481 132 482
3 483 126 481
3 477 484 482
3 482 132 477
3 484 134 482
3 477 41 484
3 454 476 481
3 481 126 454
3 476 132 481
3 454 38 476
3 485 457 483
3 483 134 485
3 457 126 483
3 485 9 457
3 488 486 487
3 487 136 488
3 486 131 487
3 488 135 486
3 479 489 487
3 487 131 479
3 489 136 487
3 479 40 489
3 490 478 486
3 486 135 490
3 478 131 486
3 490 41 478
3 492 491 488
3 488 136 492
3 491 135 488
3 492 2 491
3 495 493 494
3 494 127 495
3 493 133 494
3 495 137 493
3 475 462 494
3 494 133 475
3 462 127 494
3 475 38 462
3 496 480 493
3 493 137 496
3 480 133 493
3 496 40 480
3 463 497 495
3 495 127 463
3 497 137 495
3 463 10 497
3 500 498 499
3 499 140 500
3 498 139 499
3 500 138 498
3 502 501 499
3 499 139 502
3 501 140 499
3 502 33 501
3 504 503 498
3 498 138 504
3 503 139 498
3 504 13 503
3 506 505 500
3 500 140 506
3 505 138 500
3 506 23 505
3 509 507 508
3 508 47 509
3 507 139 508
3 509 110 507
3 503 182 508
3 508 139 503
3 182 47 508
3 503 13 182
3 398 502 507
3 507 110 398
3 502 139 507
3 398 33 502
3 183 401 509
3 509 47 183
3 401 110 509
3 183 8 401
3 512 510 511
3 511 79 512
3 510 138 511
3 512 46 510
3 505 294 511
3 511 138 505
3 294 79 511
3 505 23 294
3 174 504 510
3 510 46 174
3 504 138 510
3 174 13 504
3 295 177 512
3 512 79 295
3 177 46 512
3 295 4 177
3 515 513 514
3 514 111 515
3 513 140 514
3 515 78 513
3 501 406 514
3 514 140 501
3 406 111 514
3 501 33 406
3 286 506 513
3 513 78 286
3 506 140 513
3 286 23 506
3 407 289 515
3 515 111 407
3 289 78 515
3 407 0 289
3 518 516 517
3 517 143 518
3 516 142 517
3 518 141 516
3 520 519 517
3 517 142 520
3 519 143 517
3 520 19 519
3 522 521 516
3 516 141 522
3 521 142 516
3 522 32 521
3 524 523 518
3 518 143 524
3 523 141 518
3 524 26 523
3 527 525 526
3 526 113 527
3 525 142 526
3 527 66 525
3 521 413 526
3 526 142 521
3 413 113 526
3 521 32 413
3 244 520 525
3 525 66 244
3 520 142 525
3 244 19 520
3 414 247 527
3 527 113 414
3 247 66 527
3 414 11 247
3 530 528 529
3 529 86 530
3 528 141 529
3 530 112 528
3 523 316 529
3 529 141 523
3 316 86 529
3 523 26 316
3 405 522 528
3 528 112 405
3 522 141 528
3 405 32 522
3 317 408 530
3 530 86 317
3 408 112 530
3 317 0 408
3 533 531 532
3 532 61 533
3 531 143 532
3 533 89 531
3 519 231 532
3 532 143 519
3 231 61 532
3 519 19 231
3 326 524 531
3 531 89 326
3 524 143 531
3 326 26 524
3 232 329 533
3 533 61 232
3 329 89 533
3 232 5 329
3 536 534 535
3 535 146 536
3 534 145 535
3 536 144 534
3 538 537 535
3 535 145 538
3 537 146 535
3 538 22 537
3 540 539 534
3 534 144 540
3 539 145 534
3 540 16 539
3 542 541 536
3 536 146 542
3 541 144 536
3 542 39 541
3 545 543 544
3 544 54 545
3 543 145 544
3 545 80 543
3 539 204 544
3 544 145 539
3 204 54 544
3 539 16 204
3 293 538 543
3 543 80 293
3 538 145 543
3 293 22 538
3 205 296 545
3 545 54 205
3 296 80 545
3 205 4 296
3 548 546 547
3 547 125 548
3 546 144 547
3 548 57 546
3 541 455 547
3 547 144 541
3 455 125 547
3 541 39 455
3 214 540 546
3 546 57 214
3 540 144 546
3 214 16 540
3 456 217 548
3 548 125 456
3 217 57 548
3 456 9 217
3 551 549 550
3 550 81 551
3 549 146 550
3 551 130 549
3 537 301 550
3 550 146 537
3 301 81 550
3 537 22 301
3 468 542 549
3 549 130 468
3 542 146 549
3 468 39 542
3 302 471 551
3 551 81 302
3 471 130 551
3 302 3 471
3 554 552 553
3 553 149 554
3 552 148 553
3 554 147 552
3 556 555 553
3 553 148 556
3 555 149 553
3 556 21 555
3 558 557 552
3 552 147 558
3 557 148 552
3 558 25 557
3 560 559 554
3 554 149 560
3 559 147 554
3 560 37 559
3 563 561 562
3 562 88 563
3 561 148 562
3 563 70 561
3 557 327 562
3 562 148 557
3 327 88 562
3 557 25 327
3 260 556 561
3 561 70 260
3 556 148 561
3 260 21 556
3 328 261 563
3 563 88 328
3 261 70 563
3 328 5 261
3 566 564 565
3 565 129 566
3 564 147 565
3 566 87 564
3 559 469 565
3 565 147 559
3 469 129 565
3 559 37 469
3 321 558 564
3 564 87 321
3 558 147 564
3 321 25 558
3 470 322 566
3 566 129 470
3 322 87 566
3 470 3 322
3 569 567 568
3 568 71 569
3 567 149 568
3 569 128 567
3 555 266 568
3 568 149 555
3 266 71 568
3 555 21 266
3 461 560 567
3 567 128 461
3 560 149 567
3 461 37 560
3 267 464 569
3 569 71 267
3 464 128 569
3 267 10 464
3 572 570 571
3 571 152 572
3 570 151 571
3 572 150 570
3 574 573 571
3 571 151 574
3 573 152 571
3 574 27 573
3 576 575 570
3 570 150 576
3 575 151 570
3 576 12 575
3 578 577 572
3 572 152 578
3 577 150 572
3 578 36 577
3 581 579 580
3 580 49 581
3 579 151 580
3 581 96 579
3 575 189 580
3 580 151 575
3 189 49 580
3 575 12 189
3 349 574 579
3 579 96 349
3 574 151 579
3 349 27 574
3 190 352 581
3 581 49 190
3 352 96 581
3 190 7 352
3 584 582 583
3 583 118 584
3 582 150 583
3 584 48 582
3 577 428 583
3 583 150 577
3 428 118 583
3 577 36 428
3 181 576 582
3 582 48 181
3 576 150 582
3 181 12 576
3 429 184 584
3 584 118 429
3 184 48 584
3 429 8 184
3 587 585 586
3 586 97 587
3 585 152 586
3 587 121 585
3 573 357 586
3 586 152 573
3 357 97 586
3 573 27 357
3 438 578 585
3 585 121 438
3 578 152 585
3 438 36 578
3 358 441 587
3 587 97 358
3 441 121 587
3 358 1 441
3 590 588 589
3 589 155 590
3 588 154 589
3 590 153 588
3 592 591 589
3 589 154 592
3 591 155 589
3 592 17 591
3 594 593 588
3 588 153 594
3 593 154 588
3 594 30 593
3 596 595 590
3 590 155 596
3 595 153 590
3 596 35 595
3 599 597 598
3 598 104 599
3 597 154 598
3 599 64 597
3 593 383 598
3 598 154 593
3 383 104 598
3 593 30 383
3 237 592 597
3 597 64 237
3 592 154 597
3 237 17 592
3 384 240 599
3 599 104 384
3 240 64 599
3 384 6 240
3 602 600 601
3 601 120 602
3 600 153 601
3 602 103 600
3 595 439 601
3 601 153 595
3 439 120 601
3 595 35 439
3 377 594 600
3 600 103 377
3 594 153 600
3 377 30 594
3 440 378 602
3 602 120 440
3 378 103 602
3 440 1 378
3 605 603 604
3 604 65 605
3 603 155 604
3 605 119 603
3 591 245 604
3 604 155 591
3 245 65 604
3 591 17 245
3 433 596 603
3 603 119 433
3 596 155 603
3 433 35 596
3 246 434 605
3 605 65 246
3 434 119 605
3 246 11 434
3 608 606 607
3 607 158 608
3 606 157 607
3 608 156 606
3 610 609 607
3 607 157 610
3 609 158 607
3 610 15 609
3 612 611 606
3 606 156 612
3 611 157 606
3 612 28 611
3 614 613 608
3 608 158 614
3 613 156 608
3 614 41 613
3 617 615 616
3 616 95 617
3 615 157 616
3 617 55 615
3 611 350 616
3 616 157 611
3 350 95 616
3 611 28 350
3 209 610 615
3 615 55 209
3 610 157 615
3 209 15 610
3 351 210 617
3 617 95 351
3 210 55 617
3 351 7 210
3 620 618 619
3 619 135 620
3 618 156 619
3 620 94 618
3 613 490 619
3 619 156 613
3 490 135 619
3 613 41 490
3 342 612 618
3 618 94 342
3 612 156 618
3 342 28 612
3 491 345 620
3 620 135 491
3 345 94 620
3 491 2 345
3 623 621 622
3 622 56 623
3 621 158 622
3 623 134 621
3 609 215 622
3 622 158 609
3 215 56 622
3 609 15 215
3 484 614 621
3 621 134 484
3 614 158 621
3 484 41 614
3 216 485 623
3 623 56 216
3 485 134 623
3 216 9 485
3 626 624 625
3 625 161 626
3 624 160 625
3 626 159 624
3 628 627 625
3 625 160 628
3 627 161 625
3 628 31 627
3 630 629 624
3 624 159 630
3 629 160 624
3 630 20 629
3 632 631 626
3 626 161 632
3 631 159 626
3 632 40 631
3 635 633 634
3 634 73 635
3 633 160 634
3 635 105 633
3 629 272 634
3 634 160 629
3 272 73 634
3 629 20 272
3 382 628 633
3 633 105 382
3 628 160 633
3 382 31 628
3 273 385 635
3 635 73 273
3 385 105 635
3 273 6 385
3 638 636 637
3 637 137 638
3 636 159 637
3 638 72 636
3 631 496 637
3 637 159 631
3 496 137 637
3 631 40 496
3 265 630 636
3 636 72 265
3 630 159 636
3 265 20 630
3 497 268 638
3 638 137 497
3 268 72 638
3 497 10 268
3 641 639 640
3 640 102 641
3 639 161 640
3 641 136 639
3 627 372 640
3 640 161 627
3 372 102 640
3 627 31 372
3 489 632 639
3 639 136 489
3 632 161 639
3 489 40 632
3 373 492 641
3 641 102 373
3 492 136 641
3 373 2 492
