# vtk DataFile Version 3.0
this file was written using fslvtkio
ASCII
DATASET POLYDATA
POINTS 732 float
135.984 123.336 80.4266
134.825 121.961 80.4371
135.904 121.858 80.299
137.042 122.039 80.5316
137.369 123.686 80.8445
138.423 122.386 81.0025
138.644 123.871 81.6029
139.628 123.274 81.8564
135.151 124.228 80.6822
133.977 123.69 80.4708
136.592 125.125 81.3252
138.03 125.069 81.882
139.719 124.631 82.6703
134.225 125.58 80.7965
132.54 125.428 81.479
133.102 124.33 81.0278
135.575 125.964 81.0675
136.663 126.495 82.1222
137.609 126.025 82.732
138.94 125.588 82.91
133.748 126.59 81.5349
132.471 126.534 82.2923
135.232 127.026 81.8384
136.262 127.252 83.0706
136.921 126.492 84.1124
138.412 126.109 83.6669
133.71 127.155 82.8387
134.975 127.335 83.4297
136.237 120.464 80.7311
134.68 120.078 81.243
135.457 119.064 81.5494
137.115 119.182 81.1968
137.979 120.967 80.8148
138.775 119.817 81.1975
139.643 121.772 81.4887
140.156 120.389 81.7736
140.965 122.004 82.3146
141.53 120.918 82.4056
133.958 121.343 80.9868
132.534 121.152 82.0611
133.29 120.092 81.9646
140.902 123.553 82.8095
141.943 122.388 83.511
132.379 122.345 81.8025
131.09 122.726 82.8517
131.458 121.352 82.9051
133.217 122.916 80.9424
140.749 124.778 83.651
141.45 123.877 83.9976
131.841 123.999 81.882
130.759 124.208 83.2236
141.12 125.17 85.0017
139.748 125.484 84.1373
131.491 125.452 82.5493
130.582 125.605 83.6566
135.812 126.942 84.2274
135.515 126.373 85.5956
134.744 127.206 84.7168
137.198 126.265 85.5129
138.495 126.098 84.8083
132.026 126.822 83.5151
133.423 127.032 84.3554
140.225 117.751 81.707
138.756 116.894 81.7026
139.667 116.203 82.0968
141.086 116.502 82.2092
141.848 117.935 82.1094
142.524 116.881 82.4622
134.367 117.539 82.7437
133.245 116.811 83.4993
134.33 116.554 83.3339
135.456 116.468 82.9328
136.206 117.781 81.8216
137.108 116.579 82.0339
138.207 118.142 81.4867
139.756 119.012 81.522
141.478 119.335 82.0019
143.083 118.061 82.7771
142.851 119.237 82.8663
144.095 118.488 83.5918
132.481 118.356 83.1684
131.205 117.892 84.1891
132.093 117.34 83.6346
133.949 118.826 82.2982
142.674 120.702 83.2461
143.775 120.052 84.0204
130.758 119.555 83.8919
129.522 119.697 84.9803
130.114 118.817 84.478
131.956 119.927 82.9516
142.421 122.24 84.5242
143.035 121.256 84.6524
130.192 121.411 84.0452
129.056 121.346 85.2362
142.125 122.381 85.7051
141.68 123.619 85.1639
129.05 122.98 85.0778
127.907 123.219 86.5002
128.128 121.96 86.1435
130.057 123.151 84.0245
140.752 124.8 86.3292
139.777 125.701 85.6298
128.746 124.602 85.9129
129.681 124.604 84.6934
129.44 125.865 85.8249
134.134 126.611 85.5486
133.671 126.039 86.4767
132.943 126.666 85.6496
135.1 125.691 86.9178
136.59 125.862 86.6011
138.243 125.963 86.301
130.472 126.329 84.7781
131.801 126.717 85.16
138.027 114.46 82.6919
136.644 114.1 83.8491
137.756 113.875 83.6217
138.936 113.804 83.282
140.082 114.943 82.4102
140.775 114.07 82.967
142.031 115.552 82.5622
142.518 114.504 83.0776
143.554 115.88 83.3733
144.05 115.135 84.021
134.205 115.386 83.7295
132.767 114.925 84.6252
133.916 114.554 84.6191
135.052 114.389 84.2021
136.377 115.172 82.9657
138.089 115.62 82.3148
143.659 116.959 83.1152
144.683 117.198 84.2017
132.042 116.327 84.3593
130.745 116.225 85.2911
131.733 115.492 84.9536
144.729 118.922 84.8998
129.971 118.013 85.213
128.404 118.056 86.4793
129.259 116.836 85.9135
143.716 120.296 85.2098
128.472 119.116 85.9528
127.3 120.17 86.9583
127.31 119.083 87.4358
142.801 121.311 86.0027
128.19 120.647 86.1523
126.865 121.766 87.5334
141.583 122.093 86.9597
141.469 123.494 86.5035
127.051 123.215 88.0018
136.147 124.864 87.3776
135.122 123.844 87.852
134.846 124.956 87.5058
137.774 125.18 87.2454
136.938 123.999 87.7271
139.398 125.452 86.903
138.908 124.383 87.3964
140.279 123.876 87.2167
128.069 124.398 87.146
130.66 126.284 86.4858
129.49 125.476 87.2804
132.082 126.357 86.4208
131.659 125.655 87.1431
133.52 125.218 87.2675
137.506 113.178 84.3544
136.054 112.577 85.4933
137.378 112.4 84.9863
138.653 112.319 84.6541
139.554 113.121 83.8182
140.625 112.426 84.2544
141.48 113.25 83.7387
142.915 112.495 84.2786
143.183 113.743 83.8675
144.273 113.822 84.6824
133.782 113.804 85.4968
132.065 113.87 86.1428
132.617 112.906 86.5533
134.28 112.605 86.2861
135.585 113.499 85.0419
144.83 115.246 84.9397
131.501 114.757 85.6647
129.741 114.74 86.9904
130.711 114.105 86.7843
145.119 116.45 85.3846
145.161 117.723 85.5651
145.458 116.518 86.8037
129.736 115.726 86.3168
128.196 116.64 87.0954
128.484 115.604 87.8853
144.804 118.895 86.1147
145.082 117.784 87.0247
127.55 118.024 88.1163
144.221 119.093 87.1708
143.735 119.986 86.2324
126.901 120.49 88.227
127.003 119.276 89.0036
142.74 120.923 87.1737
126.779 121.965 88.9249
137.622 123.119 87.8839
136.515 121.671 88.5191
136.307 122.657 88.033
139.096 123.075 87.7761
138.114 122.229 88.3352
140.527 122.695 87.2871
139.807 121.796 88.0609
141.268 121.178 87.6493
127.599 123.342 89.1485
131.006 124.706 87.7568
130.427 123.81 88.7995
129.623 124.54 88.2179
132.534 124.493 87.8773
131.717 123.581 88.7927
133.918 124.257 87.8215
133.248 123.257 88.5212
134.889 122.795 88.2209
128.208 124.382 88.286
137.367 111.626 85.7143
136.144 111.141 86.871
137.303 110.926 86.3296
138.508 110.808 85.98
139.445 111.578 85.3012
140.454 110.754 85.4912
141.463 111.549 84.8072
142.674 110.836 85.5887
142.742 111.618 84.9249
143.737 111.881 85.4449
135.411 112.049 86.6215
133.7 111.782 87.5659
135.026 111.619 87.3946
144.68 113.006 85.3755
145.391 114.208 85.9249
145.713 113.371 87.0592
131.219 113.412 87.1211
129.857 113.932 88.2281
130.607 112.374 88.0224
132.49 112.065 87.2532
145.433 115.425 86.223
145.637 114.856 87.5502
128.949 114.927 88.9462
145.234 116.467 88.0205
127.88 116.951 88.837
128.477 116.268 89.6447
144.284 117.845 88.0379
127.726 118.334 89.784
143.852 119.009 87.9722
143.058 119.859 87.7625
126.921 120.616 89.6417
127.57 119.435 90.2818
140.417 120.792 88.7041
139.169 119.8 89.3619
139.048 121.125 89.0525
141.879 120.418 88.0912
141.089 119.84 88.8952
127.941 121.518 89.8925
128.551 122.47 89.5283
130.416 122.584 89.3186
129.484 121.437 89.742
132.197 122.278 89.171
131.186 121.23 89.5437
133.821 122.073 88.925
132.735 121.085 89.7501
135.298 121.9 88.5396
134.523 121.183 89.5507
136.106 120.853 89.247
137.801 121.406 88.9105
129.06 123.592 89.1135
137.235 110.195 86.9684
136.386 109.872 87.8645
137.521 109.327 87.4107
138.651 109.334 87.1821
139.323 109.989 86.3539
140.437 109.099 86.6093
141.295 109.879 85.8094
142.287 109.03 86.4177
142.613 109.884 86.0092
143.804 109.936 86.4609
134.68 111.086 87.8923
133.862 110.729 88.6507
135.122 110.359 88.3467
144.44 111.11 86.517
145.049 112.231 86.497
145.575 111.948 87.9268
131.76 111.512 88.431
131.388 111.296 90.0252
132.538 110.806 88.8956
145.929 113.621 88.5331
129.757 113.096 89.5124
130.234 112.103 89.8653
145.371 115.291 89.0412
129.521 114.59 90.2771
130.04 113.835 90.9708
144.505 116.834 89.1153
128.463 117.486 90.614
129.428 116.176 90.9768
143.578 118.64 88.7071
143.612 117.771 89.3305
142.71 118.173 89.744
129.194 119.177 90.8349
129.954 117.823 91.3198
142.336 119.328 88.9437
141.445 118.45 89.8801
140.715 118.985 89.5806
128.488 120.485 90.4828
130.046 120.466 90.279
130.875 119.009 90.7639
131.4 120.019 90.2686
133.32 120.104 90.2145
132.284 119.059 90.7447
135.044 120.075 89.8016
133.963 118.985 90.3969
136.683 120.065 89.4669
135.459 119.021 90.1771
137.944 120.188 89.4717
137.205 119.164 90.0364
139.08 119.021 89.9078
140.077 107.451 87.8101
139.203 106.926 88.4435
140.338 106.547 88.3485
141.443 106.538 88.133
142.21 107.452 87.4556
142.806 106.714 88.1207
137.99 108.404 87.8796
136.656 108.464 88.8552
137.733 107.44 88.8021
139.689 108.436 87.1986
141.599 108.231 87.0442
143.518 107.669 87.6828
143.709 108.732 87.0271
144.695 108.196 88.109
145.219 109.439 88.0403
145.48 108.999 89.4068
135.67 109.57 88.712
134.274 109.317 89.2621
135.33 108.576 89.5518
145.036 110.425 87.474
145.617 110.748 89.1081
133.294 110.224 89.2919
132.348 110.188 90.3064
133.343 109.432 89.8076
145.616 112.359 89.487
132.597 111.377 91.1738
131.775 112.069 91.3578
133.375 112.365 91.8946
145.477 114.2 89.9525
130.871 112.516 91.3345
132.275 112.939 92.0568
144.454 115.774 90.2218
130.595 115.657 91.7753
130.906 114.041 91.8227
143.47 116.993 90.0082
143.464 116.432 90.5945
142.338 116.715 90.8713
131.088 117.16 91.7099
132.01 115.804 91.9936
132.715 116.962 91.6322
134.793 117.18 91.2438
133.717 116.568 92.3041
136.612 117.138 90.827
135.464 116.541 91.9691
138.473 117.215 90.7196
137.331 116.416 91.5558
140.127 117.39 90.6813
139.131 116.543 91.3648
141.741 117.702 90.4705
140.876 116.728 91.2141
131.495 118.289 91.1615
132.692 118.117 91.1825
134.33 118.045 90.7422
135.981 118.003 90.4602
137.761 118.142 90.2108
139.698 118.097 90.2721
140.746 105.607 88.766
139.175 105.359 89.3037
140.15 104.551 89.4097
141.743 104.406 89.0168
142.811 105.767 88.7113
143.574 104.462 89.2927
144.393 106.095 89.03
144.651 105.27 89.7482
136.672 106.392 89.9569
135.658 105.738 90.5298
136.731 105.515 90.4327
137.764 105.411 90.0165
138.441 106.377 89.1468
144.101 106.936 88.4444
145.117 106.712 89.7587
145.066 107.64 89.2878
145.396 107.615 90.6173
134.91 107.127 90.2285
133.13 107.626 90.7984
134.044 106.457 90.8684
136.096 107.532 89.7089
145.667 109.589 90.5987
133.87 108.588 90.0807
133.081 109.06 91.2297
145.598 111.261 90.6841
133.232 110.24 91.4593
132.617 110.763 91.3371
133.998 111.238 91.7666
145.001 112.868 90.8112
134.044 113.6 92.121
134.908 112.318 92.1398
135.857 113.165 92.447
144.333 114.515 90.8948
132.29 113.914 92.2181
134.557 114.597 92.2539
135.925 114.043 92.4689
143.355 115.791 91.0546
143.428 114.888 91.6834
142.464 115.469 91.9049
132.6 115.147 92.3204
134.325 115.397 92.165
136.395 114.658 92.1746
136.272 115.385 91.8583
138.368 115.567 91.6509
138.006 114.709 92.0996
140.107 115.809 91.6329
139.679 115.009 92.3068
141.792 116.048 91.6511
141.206 115.244 92.3191
138.551 103.36 90.5752
137.565 102.815 91.318
138.631 102.355 90.9617
139.757 102.256 90.6207
140.388 103.481 89.9085
141.531 102.201 90.3366
142.227 103.438 89.8104
143.187 102.479 90.4627
143.654 103.464 90.1398
144.469 103.524 91.6421
136.879 104.528 90.8413
134.925 104.611 91.5049
136.175 103.64 91.6051
138.707 104.394 89.9988
144.664 104.637 90.7156
145.324 106.103 90.5207
145.044 106.152 91.4788
134.541 105.409 91.2093
132.732 106.368 91.5898
132.862 105.179 91.8795
145.109 108.15 91.8382
133.119 107.746 92.351
145.103 109.887 91.9807
133.977 108.886 92.5024
134.379 110.018 92.2045
135.686 110.344 92.7556
135.431 109.302 93.1696
136.718 110.085 93.4847
144.96 111.574 91.9462
135.279 111.245 92.2535
136.526 111.267 92.9681
144.205 112.787 91.9707
143.923 111.696 92.908
143.364 112.512 92.9289
137.613 113.283 92.9248
136.645 112.334 92.9828
139.331 113.376 93.1583
138.236 112.371 93.3878
139.835 112.291 93.3763
142.739 113.668 92.7578
142.358 112.374 93.4528
141.673 113.172 93.1063
143.818 113.886 91.6953
137.474 114.162 92.5974
138.995 114.21 92.8669
140.59 113.118 93.2724
140.833 114.212 92.8009
142.358 114.686 92.4128
138.877 101.447 91.431
137.271 101.414 92.0868
138.488 100.272 92.0527
140.183 100.071 91.8409
140.831 101.114 91.1149
142.121 100.205 91.9841
142.625 101.276 90.909
143.515 100.95 91.943
143.97 102.058 91.2977
144.036 102.443 92.7015
134.041 102.932 92.4618
132.932 102.515 92.8089
134.333 102.022 92.9045
135.614 101.812 92.7647
136.271 102.583 92.0099
144.328 104.059 93.4456
132.058 104.35 92.2712
130.13 104.603 93.4993
131.232 103.11 93.0172
134.356 103.863 92.0449
144.708 105.002 92.3678
144.691 106.445 92.6014
131.235 105.726 93.4433
132.617 106.35 93.2858
144.484 107.589 92.9243
144.522 106.748 93.4977
143.954 107.265 94.1719
133.946 107.019 93.3175
134.756 108.182 93.38
136.534 108.828 93.8297
135.521 107.333 93.947
138.12 108.988 94.3622
137.06 107.473 94.3424
138.438 107.755 94.7057
144.354 108.888 93.1523
143.312 108.488 94.2355
138.135 110.231 93.814
139.365 108.731 94.5858
139.796 109.883 94.2914
141.617 110.024 94.6347
140.561 108.757 94.9024
143.197 109.9 94.0804
142.131 108.857 94.9748
144.193 110.532 93.1782
137.859 111.39 93.4453
139.416 111.316 93.6908
140.907 110.844 94.119
142.757 111.267 93.9877
141.172 111.936 93.8262
136.925 99.5043 93.0966
135.792 99.1529 93.6732
137.11 98.4314 93.3603
138.565 98.2735 93.2595
139.318 99.0858 92.5879
140.786 97.7927 93.3278
141.318 98.9557 92.365
142.366 98.0624 93.5048
142.932 99.2514 92.812
143.256 99.4614 94.4276
134.575 100.976 93.2402
132.952 100.673 93.8699
134.492 100.051 93.8723
136.992 100.403 92.5244
143.553 100.726 93.3124
143.736 102.588 94.0522
131.843 101.884 93.3896
130.038 102.999 94.7602
131.277 101.478 93.8918
143.559 103.804 94.6902
130.632 104.493 95.1656
144.311 105.754 93.965
143.387 105.006 94.8335
131.091 105.459 94.6014
134.31 106.38 94.4154
132.671 105.83 94.8603
136.127 106.376 94.8314
134.763 105.46 95.4139
138.093 106.5 94.9164
136.668 105.134 95.4816
139.892 106.586 95.7833
138.569 105.246 95.5027
141.542 106.689 95.8879
140.342 105.282 96.1259
143.124 106.464 95.1937
142.009 105.326 95.8322
139.567 107.459 95.1621
141.101 107.74 95.4733
142.65 107.585 95.0936
137.206 97.4454 93.8323
135.53 97.479 94.4111
136.818 96.5197 94.3576
138.392 96.0194 94.4505
139.392 97.0384 93.8841
140.327 96.3329 94.9005
141.336 97.0264 94.4114
141.737 97.2204 96.1555
134.367 99.1458 94.2611
132.882 99.1626 94.6735
134.233 98.11 94.5868
142.473 97.9438 95.1514
142.81 99.6489 95.8747
129.577 101.207 94.6243
128.473 100.478 96.0414
129.733 99.9337 94.8881
131.135 99.528 94.8153
131.174 100.82 94.1463
143.408 101.333 94.7194
142.761 101.263 95.7257
128.742 102.266 95.6256
131.73 103.875 96.0854
130.424 102.755 96.5011
134.019 103.354 96.0035
132.669 102.526 96.4347
134.617 102.401 96.7311
142.852 102.941 95.3762
142.014 102.857 96.3015
132.131 104.971 95.5618
133.764 104.641 95.6861
135.659 103.025 96.4574
135.98 103.952 95.9425
137.9 104.079 96.1366
137.39 102.996 96.8133
139.638 104.232 96.4412
138.989 103.179 96.7896
141.491 104.136 96.2085
140.61 103.253 96.7153
142.756 104.386 95.5027
136.053 95.8685 95.1011
134.602 95.5723 95.6118
135.244 94.6215 96.7223
136.772 94.9859 96.2204
138.032 95.3413 95.4886
138.65 95.3051 96.9206
134.187 97.146 95.0264
132.941 96.7577 95.9376
133.867 96.2442 95.9037
140.022 95.8447 96.0672
140.992 96.939 97.405
130.168 98.8076 95.5036
128.484 99.0854 96.2795
129.752 97.988 95.9276
131.083 97.4412 95.9269
132.345 98.1503 95.2838
142.082 99.1654 96.8683
141.332 98.7509 97.866
129.129 100.344 97.4695
129.102 101.789 96.894
130.431 101.388 97.329
131.045 100.231 97.9369
132.349 100.454 97.6402
140.878 100.816 97.6231
140.31 99.9712 98.0969
138.888 100.771 97.9652
142.161 100.705 96.7277
132.192 101.671 97.0672
136.555 102.099 97.1592
134.377 101.566 97.4451
138.809 101.911 97.4404
136.788 101.155 97.6696
140.209 102.309 97.2126
141.505 101.919 96.8541
133.614 95.1874 96.7153
132.458 94.9069 97.1142
133.486 94.4198 98.0633
135.712 94.6286 98.1423
137.39 95.0025 97.7902
138.681 95.8728 98.9131
129.742 97.1032 96.4672
128.651 96.4832 97.0817
129.85 95.9416 97.2682
131.005 95.6625 97.1944
131.868 96.1427 96.5018
139.775 96.2786 97.9936
140.295 97.8197 98.7028
127.839 97.9618 96.5153
126.293 97.798 97.5762
127.411 96.8758 97.0263
139.596 99.1843 98.475
139.401 98.4267 99.1831
138.25 98.8583 99.193
127.651 99.4399 97.4034
129.1 99.2291 98.1172
130.795 99.218 98.3668
133.821 100.601 98.0603
132.824 99.2734 98.508
135.807 100.532 98.4013
134.669 99.4353 98.8304
137.796 100.056 98.5524
136.51 99.3348 99.1232
129.732 94.7648 97.9605
128.324 94.4286 98.065
129.271 93.5527 99.0318
131.383 93.9981 98.5865
131.564 94.6802 97.7223
133.409 94.2557 99.3222
135.12 94.5022 99.2116
136.979 94.9525 99.1491
137.684 95.72 100.09
125.815 96.0774 97.8018
124.433 94.9386 98.4412
125.685 94.6947 98.2439
126.838 94.5128 98.0655
127.609 95.9753 97.6045
139.152 97.4292 99.705
137.981 97.0459 100.471
124.848 96.7474 98.7364
128.124 98.4116 98.4371
126.707 97.4427 98.9614
130.081 98.2682 98.9443
128.753 97.4498 99.3772
131.96 98.3457 99.2159
130.746 97.5534 99.9273
133.782 98.5459 99.6804
132.464 97.6948 100.288
135.531 98.4875 99.8692
134.018 97.6713 100.792
137.302 98.2051 99.8792
135.976 97.6275 100.652
125.344 93.3127 98.762
123.311 92.2808 100.032
125.571 92.2227 100.345
127.115 92.9438 99.7125
127.475 93.466 98.6502
129.426 93.338 100.28
130.991 93.8092 99.8863
132.597 94.0527 100.45
134.668 94.3608 100.497
136.236 95.1697 100.521
135.218 95.2553 101.472
123.476 93.5925 98.9341
122.158 94.4749 99.4833
121.526 92.7124 100.209
135.335 96.6399 101.424
134.147 95.8783 102.089
133.586 96.8298 101.638
136.924 96.493 100.956
123.54 95.5082 99.5149
124.928 96.0987 100.161
126.403 96.5423 99.9465
128.186 96.7715 100.196
130.016 96.9343 100.541
131.86 97.1877 101.484
123.93 92.2632 101.393
125.827 92.8387 101.86
127.22 93.0096 101.405
128.833 93.3108 101.338
130.743 93.8002 101.273
132.464 94.429 101.7
131.187 94.8779 102.585
133.754 94.6218 101.661
122.277 94.4031 101.144
122.901 93.1261 101.745
132.635 95.9111 102.333
130.917 96.2509 102.228
124.08 95.0625 101.056
125.866 95.6687 100.969
127.521 96.0358 101.193
129.343 96.3578 101.585
124.603 93.6612 102.282
126.449 93.9801 102.32
128.131 94.2621 102.435
129.641 94.2226 102.281
124.606 94.6509 101.612
126.245 95.1008 101.753
127.954 95.4825 102.174
129.461 95.4721 102.913
POLYGONS 1460  5840
3 0 1 2
3 0 3 4
3 2 3 0
3 4 5 6
3 3 5 4
3 5 7 6
3 8 1 0
3 9 1 8
3 4 10 0
3 10 8 0
3 6 11 4
3 11 10 4
3 12 6 7
3 11 6 12
3 13 14 15
3 9 13 15
3 9 8 13
3 8 16 13
3 10 17 8
3 17 16 8
3 11 18 10
3 18 17 10
3 19 11 12
3 18 11 19
3 20 14 13
3 21 14 20
3 16 22 13
3 22 20 13
3 23 17 24
3 23 22 17
3 22 16 17
3 18 24 17
3 25 24 18
3 19 25 18
3 20 26 21
3 22 26 20
3 27 26 22
3 23 27 22
3 28 29 30
3 28 31 32
3 30 31 28
3 32 33 34
3 31 33 32
3 34 35 36
3 33 35 34
3 35 37 36
3 38 39 40
3 29 38 40
3 28 38 29
3 28 1 38
3 28 2 1
3 3 2 28
3 32 3 28
3 5 3 32
3 34 5 32
3 7 5 34
3 7 34 41
3 41 34 36
3 42 36 37
3 41 36 42
3 43 44 45
3 39 43 45
3 39 38 43
3 38 46 43
3 1 9 46
3 38 1 46
3 41 47 12
3 7 41 12
3 48 41 42
3 47 41 48
3 49 44 43
3 50 44 49
3 15 14 49
3 15 49 46
3 46 49 43
3 9 15 46
3 47 51 52
3 47 52 12
3 12 52 19
3 48 51 47
3 53 50 49
3 54 50 53
3 14 21 53
3 49 14 53
3 55 56 57
3 55 23 24
3 55 24 56
3 56 24 58
3 25 59 24
3 24 59 58
3 52 25 19
3 59 25 52
3 53 60 54
3 21 60 53
3 21 26 60
3 26 61 60
3 57 27 55
3 57 61 27
3 61 26 27
3 23 55 27
3 62 63 64
3 62 65 66
3 64 65 62
3 65 67 66
3 68 69 70
3 68 71 72
3 70 71 68
3 72 73 74
3 71 73 72
3 63 74 73
3 63 62 74
3 62 75 74
3 66 76 62
3 76 75 62
3 77 66 67
3 77 78 66
3 78 76 66
3 77 79 78
3 80 81 82
3 69 80 82
3 69 68 80
3 68 83 80
3 30 29 83
3 30 83 72
3 72 83 68
3 31 30 72
3 74 31 72
3 33 31 74
3 75 33 74
3 35 33 75
3 76 35 75
3 37 35 76
3 37 76 84
3 84 76 78
3 85 78 79
3 84 78 85
3 86 87 88
3 81 86 88
3 81 80 86
3 80 89 86
3 40 39 89
3 40 89 83
3 83 89 80
3 29 40 83
3 84 90 42
3 37 84 42
3 91 84 85
3 90 84 91
3 92 87 86
3 93 87 92
3 45 44 92
3 45 92 89
3 89 92 86
3 39 45 89
3 90 94 95
3 90 95 42
3 42 95 48
3 91 94 90
3 96 97 98
3 93 96 98
3 93 92 96
3 92 99 96
3 44 50 99
3 92 44 99
3 51 100 101
3 52 51 101
3 95 51 48
3 100 51 95
3 96 102 97
3 102 103 104
3 102 96 103
3 96 99 103
3 50 54 103
3 99 50 103
3 105 106 107
3 105 57 56
3 105 56 106
3 106 56 108
3 58 109 56
3 56 109 108
3 59 110 58
3 58 110 109
3 101 59 52
3 110 59 101
3 103 111 104
3 54 111 103
3 54 60 111
3 60 112 111
3 107 61 105
3 107 112 61
3 112 60 61
3 57 105 61
3 113 114 115
3 113 116 117
3 115 116 113
3 117 118 119
3 116 118 117
3 119 120 121
3 118 120 119
3 120 122 121
3 123 124 125
3 123 126 127
3 125 126 123
3 114 127 126
3 114 113 127
3 113 128 127
3 64 63 128
3 64 128 117
3 117 128 113
3 65 64 117
3 119 65 117
3 67 65 119
3 67 119 129
3 129 119 121
3 130 121 122
3 129 121 130
3 131 132 133
3 124 131 133
3 123 131 124
3 123 69 131
3 123 70 69
3 71 70 123
3 127 71 123
3 73 71 127
3 128 73 127
3 63 73 128
3 67 129 77
3 129 79 77
3 129 130 79
3 130 134 79
3 135 136 137
3 132 135 137
3 131 135 132
3 131 81 135
3 131 82 81
3 69 82 131
3 79 134 85
3 134 138 85
3 139 140 141
3 136 139 141
3 135 139 136
3 135 87 139
3 135 88 87
3 81 88 135
3 85 138 91
3 138 142 91
3 143 140 139
3 144 140 143
3 87 93 143
3 139 87 143
3 94 145 146
3 95 94 146
3 142 94 91
3 145 94 142
3 98 144 143
3 98 97 144
3 97 147 144
3 93 98 143
3 148 149 150
3 148 151 152
3 149 148 152
3 151 153 154
3 152 151 154
3 153 101 100
3 153 100 154
3 154 100 155
3 146 100 95
3 155 100 146
3 97 156 147
3 102 156 97
3 104 157 158
3 104 158 102
3 102 158 156
3 157 159 160
3 158 157 160
3 159 107 106
3 159 106 160
3 160 106 161
3 150 108 148
3 150 161 108
3 161 106 108
3 109 148 108
3 151 148 109
3 110 151 109
3 153 151 110
3 101 153 110
3 104 111 157
3 112 157 111
3 159 157 112
3 107 159 112
3 162 163 164
3 162 165 166
3 164 165 162
3 166 167 168
3 165 167 166
3 168 169 170
3 167 169 168
3 169 171 170
3 172 173 174
3 172 175 176
3 174 175 172
3 163 176 175
3 162 176 163
3 162 114 176
3 162 115 114
3 116 115 162
3 166 116 162
3 118 116 166
3 168 118 166
3 120 118 168
3 170 120 168
3 170 122 120
3 170 171 122
3 171 177 122
3 178 179 180
3 173 178 180
3 172 178 173
3 172 124 178
3 172 125 124
3 126 125 172
3 176 126 172
3 114 126 176
3 181 182 130
3 181 130 177
3 177 130 122
3 181 183 182
3 184 185 186
3 179 184 186
3 178 184 179
3 178 132 184
3 178 133 132
3 124 133 178
3 182 187 134
3 130 182 134
3 188 182 183
3 187 182 188
3 137 185 184
3 137 136 185
3 136 189 185
3 132 137 184
3 187 190 191
3 187 191 134
3 134 191 138
3 188 190 187
3 141 192 193
3 140 192 141
3 189 136 141
3 193 189 141
3 138 191 142
3 191 194 142
3 140 144 192
3 192 144 195
3 196 197 198
3 196 199 200
3 197 196 200
3 199 201 202
3 200 199 202
3 201 146 145
3 201 145 202
3 202 145 203
3 194 145 142
3 203 145 194
3 144 147 195
3 195 147 204
3 205 206 207
3 205 208 209
3 206 205 209
3 208 210 211
3 209 208 211
3 210 150 149
3 210 149 211
3 211 149 212
3 198 152 196
3 198 212 152
3 212 149 152
3 154 196 152
3 199 196 154
3 155 199 154
3 201 199 155
3 146 201 155
3 147 213 204
3 156 213 147
3 207 158 205
3 207 213 158
3 213 156 158
3 160 205 158
3 208 205 160
3 161 208 160
3 210 208 161
3 150 210 161
3 214 215 216
3 214 217 218
3 216 217 214
3 218 219 220
3 217 219 218
3 220 221 222
3 219 221 220
3 221 223 222
3 224 225 226
3 215 224 226
3 214 224 215
3 214 163 224
3 214 164 163
3 165 164 214
3 218 165 214
3 167 165 218
3 220 167 218
3 169 167 220
3 222 169 220
3 171 227 228
3 169 227 171
3 169 223 227
3 169 222 223
3 227 229 228
3 230 231 232
3 230 174 173
3 230 232 174
3 232 233 174
3 225 224 175
3 225 175 233
3 233 175 174
3 163 175 224
3 228 234 177
3 171 228 177
3 235 228 229
3 234 228 235
3 180 231 230
3 180 179 231
3 179 236 231
3 173 180 230
3 177 234 181
3 234 183 181
3 234 235 183
3 235 237 183
3 186 238 239
3 185 238 186
3 236 179 186
3 239 236 186
3 183 237 188
3 237 240 188
3 185 189 238
3 238 189 241
3 190 242 243
3 191 190 243
3 240 190 188
3 242 190 240
3 193 244 245
3 192 244 193
3 241 189 193
3 245 241 193
3 246 247 248
3 246 249 250
3 247 246 250
3 249 243 250
3 249 194 243
3 194 191 243
3 251 195 252
3 251 244 195
3 244 192 195
3 252 253 254
3 251 252 254
3 253 255 256
3 254 253 256
3 255 257 258
3 256 255 258
3 257 259 260
3 258 257 260
3 259 198 197
3 259 197 260
3 260 197 261
3 200 262 197
3 197 262 261
3 248 202 246
3 248 262 202
3 262 200 202
3 203 246 202
3 249 246 203
3 194 249 203
3 252 204 263
3 195 204 252
3 206 263 207
3 206 253 263
3 253 252 263
3 209 253 206
3 255 253 209
3 211 255 209
3 257 255 211
3 212 257 211
3 259 257 212
3 198 259 212
3 204 213 263
3 207 263 213
3 264 265 266
3 264 267 268
3 266 267 264
3 268 269 270
3 267 269 268
3 270 271 272
3 269 271 270
3 271 273 272
3 274 275 276
3 265 274 276
3 264 274 265
3 264 215 274
3 264 216 215
3 217 216 264
3 268 217 264
3 219 217 268
3 270 219 268
3 221 219 270
3 272 221 270
3 223 277 278
3 221 277 223
3 221 273 277
3 221 272 273
3 277 279 278
3 280 281 282
3 275 280 282
3 274 280 275
3 274 225 280
3 274 226 225
3 215 226 274
3 223 278 227
3 278 229 227
3 278 279 229
3 279 283 229
3 232 231 284
3 280 285 281
3 280 232 285
3 280 233 232
3 284 285 232
3 225 233 280
3 229 283 235
3 283 286 235
3 284 287 288
3 284 231 287
3 231 236 287
3 285 284 288
3 235 286 237
3 286 289 237
3 239 238 290
3 239 290 291
3 239 291 236
3 236 291 287
3 292 293 294
3 292 289 293
3 292 240 289
3 240 237 289
3 290 241 295
3 238 241 290
3 296 291 290
3 295 296 290
3 297 298 299
3 294 298 297
3 292 294 297
3 292 297 243
3 292 243 242
3 240 292 242
3 245 244 300
3 245 295 241
3 245 300 295
3 300 301 295
3 302 296 295
3 302 295 303
3 303 295 301
3 303 304 305
3 302 303 305
3 304 306 307
3 305 304 307
3 306 308 309
3 307 306 309
3 308 310 311
3 309 308 311
3 310 248 247
3 310 247 311
3 311 247 312
3 299 250 297
3 299 312 250
3 312 247 250
3 243 297 250
3 244 251 300
3 254 300 251
3 301 300 254
3 256 301 254
3 303 301 256
3 258 303 256
3 304 303 258
3 260 304 258
3 306 304 260
3 261 306 260
3 308 306 261
3 262 308 261
3 310 308 262
3 248 310 262
3 313 314 315
3 313 316 317
3 315 316 313
3 316 318 317
3 319 320 321
3 314 319 321
3 314 313 319
3 313 322 319
3 317 323 313
3 323 322 313
3 324 317 318
3 324 325 317
3 325 323 317
3 325 326 327
3 324 326 325
3 326 328 327
3 329 330 331
3 320 329 331
3 319 329 320
3 319 265 329
3 319 266 265
3 267 266 319
3 322 267 319
3 269 267 322
3 323 269 322
3 271 269 323
3 325 271 323
3 273 271 325
3 273 325 332
3 332 325 327
3 333 327 328
3 332 327 333
3 334 335 336
3 330 334 336
3 329 334 330
3 329 275 334
3 329 276 275
3 265 276 329
3 273 332 277
3 332 279 277
3 332 333 279
3 333 337 279
3 338 281 339
3 338 335 281
3 282 281 334
3 334 281 335
3 282 334 275
3 339 340 338
3 279 337 283
3 337 341 283
3 339 342 343
3 339 281 342
3 281 285 342
3 340 339 343
3 283 341 286
3 341 344 286
3 288 287 345
3 288 345 346
3 288 346 285
3 285 346 342
3 347 348 349
3 347 344 348
3 347 289 344
3 289 286 344
3 345 291 350
3 287 291 345
3 351 346 345
3 351 345 352
3 352 345 350
3 352 353 354
3 351 352 354
3 353 355 356
3 354 353 356
3 355 357 358
3 356 355 358
3 357 359 360
3 358 357 360
3 359 361 362
3 360 359 362
3 349 362 361
3 347 349 361
3 347 361 294
3 347 294 293
3 289 347 293
3 350 296 363
3 291 296 350
3 352 350 364
3 364 350 363
3 353 352 365
3 365 352 364
3 355 353 366
3 366 353 365
3 357 355 367
3 367 355 366
3 359 357 368
3 368 357 367
3 298 368 299
3 298 361 368
3 361 359 368
3 294 361 298
3 296 302 363
3 305 363 302
3 364 363 305
3 307 364 305
3 365 364 307
3 309 365 307
3 366 365 309
3 311 366 309
3 367 366 311
3 312 367 311
3 368 367 312
3 299 368 312
3 369 370 371
3 369 372 373
3 371 372 369
3 373 374 375
3 372 374 373
3 374 376 375
3 377 378 379
3 377 380 381
3 379 380 377
3 370 381 380
3 369 381 370
3 369 314 381
3 369 315 314
3 316 315 369
3 373 316 369
3 318 316 373
3 318 373 382
3 382 373 375
3 383 375 376
3 383 384 375
3 384 382 375
3 383 385 384
3 386 387 388
3 378 386 388
3 378 377 386
3 377 389 386
3 321 320 389
3 321 389 381
3 381 389 377
3 314 321 381
3 318 382 324
3 326 324 382
3 384 326 382
3 384 328 326
3 384 385 328
3 385 390 328
3 391 387 386
3 392 387 391
3 331 330 391
3 331 391 389
3 389 391 386
3 320 331 389
3 328 390 333
3 390 393 333
3 394 335 395
3 394 392 335
3 336 335 391
3 391 335 392
3 336 391 330
3 395 396 394
3 333 393 337
3 393 397 337
3 335 338 395
3 340 398 399
3 338 340 399
3 338 399 396
3 338 396 395
3 399 398 400
3 337 397 341
3 397 401 341
3 343 342 402
3 343 398 340
3 343 402 398
3 402 403 398
3 404 400 398
3 403 404 398
3 405 406 407
3 405 401 406
3 405 344 401
3 344 341 401
3 402 346 408
3 342 346 402
3 403 402 409
3 409 402 408
3 410 404 403
3 410 403 411
3 411 403 409
3 411 412 413
3 410 411 413
3 412 414 415
3 413 412 415
3 414 416 417
3 415 414 417
3 407 417 416
3 405 407 416
3 405 416 349
3 405 349 348
3 344 405 348
3 346 351 408
3 354 408 351
3 409 408 354
3 356 409 354
3 411 409 356
3 358 411 356
3 412 411 358
3 360 412 358
3 414 412 360
3 362 414 360
3 416 414 362
3 349 416 362
3 418 419 420
3 418 421 422
3 420 421 418
3 422 423 424
3 421 423 422
3 424 425 426
3 423 425 424
3 425 427 426
3 428 429 430
3 419 428 430
3 419 418 428
3 418 431 428
3 371 370 431
3 371 431 422
3 422 431 418
3 372 371 422
3 424 372 422
3 374 372 424
3 426 374 424
3 376 432 433
3 374 432 376
3 374 427 432
3 374 426 427
3 432 434 433
3 435 436 437
3 429 435 437
3 428 435 429
3 428 378 435
3 428 379 378
3 380 379 428
3 431 380 428
3 370 380 431
3 376 433 383
3 433 385 383
3 433 434 385
3 434 438 385
3 388 436 435
3 388 387 436
3 387 439 436
3 378 388 435
3 385 438 390
3 438 440 390
3 441 392 442
3 441 439 392
3 439 387 392
3 442 443 444
3 441 442 444
3 444 443 445
3 390 440 393
3 440 446 393
3 392 394 442
3 396 442 394
3 396 447 442
3 447 443 442
3 448 445 443
3 447 448 443
3 449 450 451
3 449 446 450
3 449 397 446
3 397 393 446
3 396 399 447
3 400 452 453
3 399 400 453
3 399 453 448
3 399 448 447
3 452 454 455
3 453 452 455
3 455 454 456
3 457 458 459
3 451 458 457
3 451 457 449
3 449 457 460
3 397 460 401
3 449 460 397
3 452 404 461
3 400 404 452
3 454 452 462
3 462 452 461
3 463 456 454
3 463 454 464
3 464 454 462
3 459 463 464
3 459 464 457
3 457 464 465
3 406 465 407
3 406 460 465
3 460 457 465
3 401 460 406
3 404 410 461
3 413 461 410
3 462 461 413
3 415 462 413
3 464 462 415
3 417 464 415
3 465 464 417
3 407 465 417
3 466 467 468
3 466 469 470
3 468 469 466
3 470 471 472
3 469 471 470
3 472 473 474
3 471 473 472
3 473 475 474
3 476 477 478
3 476 479 480
3 478 479 476
3 467 480 479
3 466 480 467
3 466 419 480
3 466 420 419
3 421 420 466
3 470 421 466
3 423 421 470
3 472 423 470
3 425 423 472
3 474 425 472
3 474 427 425
3 474 475 427
3 475 481 427
3 482 483 484
3 477 482 484
3 477 476 482
3 476 485 482
3 430 429 485
3 430 485 480
3 480 485 476
3 419 430 480
3 427 481 486
3 432 427 486
3 486 434 432
3 487 434 486
3 482 488 483
3 437 436 489
3 437 489 482
3 437 482 485
3 482 489 488
3 429 437 485
3 490 491 492
3 490 487 491
3 490 438 487
3 438 434 487
3 493 439 494
3 493 489 439
3 489 436 439
3 494 495 496
3 493 494 496
3 495 497 498
3 496 495 498
3 498 497 499
3 500 490 492
3 501 500 492
3 438 500 440
3 490 500 438
3 439 441 494
3 444 494 441
3 495 494 444
3 445 495 444
3 445 502 495
3 502 497 495
3 503 499 497
3 503 497 504
3 504 497 502
3 504 505 506
3 503 504 506
3 505 507 508
3 506 505 508
3 501 508 507
3 501 507 500
3 500 507 509
3 440 509 446
3 500 509 440
3 502 448 510
3 445 448 502
3 504 502 511
3 511 502 510
3 505 504 512
3 512 504 511
3 507 505 513
3 513 505 512
3 450 513 451
3 450 509 513
3 509 507 513
3 446 509 450
3 448 453 510
3 455 510 453
3 511 510 455
3 456 511 455
3 456 514 511
3 514 512 511
3 458 514 459
3 458 513 514
3 513 512 514
3 451 513 458
3 456 463 514
3 459 514 463
3 515 516 517
3 515 518 519
3 517 518 515
3 519 520 521
3 518 520 519
3 521 522 523
3 520 522 521
3 522 524 523
3 525 526 527
3 516 525 527
3 516 515 525
3 515 528 525
3 468 467 528
3 468 528 519
3 519 528 515
3 469 468 519
3 521 469 519
3 471 469 521
3 523 471 521
3 523 524 529
3 523 529 471
3 471 529 473
3 529 475 473
3 530 475 529
3 531 532 533
3 526 531 533
3 525 531 526
3 525 477 531
3 525 478 477
3 479 478 525
3 528 479 525
3 467 479 528
3 475 530 481
3 530 534 481
3 484 532 531
3 484 483 532
3 483 535 532
3 477 484 531
3 536 486 481
3 536 481 537
3 537 481 534
3 486 536 487
3 483 538 535
3 488 538 483
3 489 539 540
3 489 540 488
3 488 540 538
3 539 541 542
3 540 539 542
3 541 543 544
3 542 541 544
3 543 545 546
3 544 543 546
3 545 547 548
3 546 545 548
3 547 549 550
3 548 547 550
3 537 550 549
3 536 537 549
3 536 549 492
3 536 492 491
3 487 536 491
3 489 493 539
3 496 539 493
3 541 539 496
3 498 541 496
3 543 541 498
3 499 543 498
3 499 551 543
3 551 545 543
3 547 545 552
3 552 545 551
3 549 547 553
3 553 547 552
3 492 553 501
3 549 553 492
3 499 503 551
3 506 551 503
3 552 551 506
3 508 552 506
3 553 552 508
3 501 553 508
3 554 555 556
3 554 557 558
3 556 557 554
3 558 559 560
3 557 559 558
3 559 561 560
3 562 563 564
3 555 562 564
3 554 562 555
3 554 516 562
3 554 517 516
3 518 517 554
3 558 518 554
3 520 518 558
3 560 520 558
3 560 561 565
3 560 565 520
3 520 565 522
3 565 524 522
3 566 524 565
3 567 568 569
3 567 570 571
3 569 570 567
3 563 571 570
3 562 571 563
3 562 526 571
3 562 527 526
3 516 527 562
3 572 529 524
3 572 524 573
3 573 524 566
3 529 572 530
3 567 574 568
3 571 532 567
3 571 533 532
3 567 532 574
3 575 576 532
3 574 532 576
3 575 577 578
3 575 578 576
3 571 526 533
3 578 577 579
3 580 572 573
3 581 580 573
3 530 580 534
3 572 580 530
3 575 535 582
3 532 535 575
3 577 575 583
3 583 575 582
3 584 579 577
3 584 577 585
3 585 577 583
3 585 586 587
3 584 585 587
3 586 588 589
3 587 586 589
3 588 590 591
3 589 588 591
3 581 591 590
3 581 590 580
3 580 590 592
3 534 592 537
3 580 592 534
3 535 538 582
3 540 582 538
3 583 582 540
3 542 583 540
3 585 583 542
3 544 585 542
3 586 585 544
3 546 586 544
3 588 586 546
3 548 588 546
3 590 588 548
3 550 590 548
3 592 590 550
3 537 592 550
3 593 594 595
3 593 596 597
3 595 596 593
3 596 598 597
3 599 600 601
3 594 599 601
3 593 599 594
3 593 555 599
3 593 556 555
3 557 556 593
3 597 557 593
3 597 598 602
3 597 602 557
3 557 602 559
3 602 561 559
3 603 561 602
3 604 605 606
3 604 607 608
3 606 607 604
3 600 608 607
3 599 608 600
3 599 563 608
3 599 564 563
3 555 564 599
3 609 565 561
3 609 561 610
3 610 561 603
3 565 609 566
3 611 568 612
3 611 605 568
3 569 568 604
3 604 568 605
3 613 614 611
3 613 611 612
3 608 570 604
3 604 570 569
3 570 608 563
3 613 615 614
3 616 617 618
3 610 617 616
3 610 616 609
3 609 616 619
3 566 619 573
3 609 619 566
3 568 574 612
3 576 612 574
3 613 612 576
3 613 620 615
3 613 576 620
3 576 578 620
3 579 621 622
3 579 622 578
3 578 622 620
3 621 623 624
3 622 621 624
3 618 624 623
3 618 623 616
3 616 623 625
3 619 616 626
3 626 616 625
3 573 626 581
3 619 626 573
3 579 584 621
3 587 621 584
3 623 621 587
3 589 623 587
3 625 623 589
3 591 625 589
3 626 625 591
3 581 626 591
3 627 628 629
3 627 595 594
3 627 629 595
3 629 630 595
3 596 595 631
3 595 630 631
3 631 598 596
3 632 598 631
3 633 634 635
3 633 636 637
3 635 636 633
3 628 637 636
3 627 637 628
3 627 600 637
3 627 601 600
3 594 601 627
3 598 632 638
3 602 598 638
3 638 603 602
3 639 603 638
3 640 641 642
3 634 640 642
3 633 640 634
3 633 605 640
3 633 606 605
3 607 606 633
3 637 607 633
3 600 607 637
3 643 644 645
3 643 639 644
3 643 610 639
3 610 603 639
3 640 646 641
3 605 646 640
3 605 611 646
3 611 647 646
3 614 648 611
3 611 648 647
3 615 649 650
3 615 650 614
3 614 650 648
3 649 651 652
3 650 649 652
3 651 653 654
3 652 651 654
3 645 654 653
3 643 645 653
3 643 653 618
3 643 618 617
3 610 643 617
3 615 620 649
3 622 649 620
3 651 649 622
3 624 651 622
3 653 651 624
3 618 653 624
3 655 656 657
3 655 658 659
3 657 658 655
3 659 629 628
3 659 658 629
3 658 660 629
3 630 629 661
3 629 660 661
3 631 630 662
3 630 661 662
3 662 632 631
3 663 632 662
3 664 665 666
3 664 667 668
3 666 667 664
3 656 668 667
3 655 668 656
3 655 634 668
3 655 635 634
3 636 635 655
3 659 636 655
3 628 636 659
3 669 638 632
3 669 632 670
3 670 632 663
3 638 669 639
3 664 671 665
3 668 641 664
3 668 642 641
3 664 641 671
3 672 673 641
3 671 641 673
3 672 674 675
3 672 675 673
3 668 634 642
3 674 676 677
3 675 674 677
3 676 678 679
3 677 676 679
3 678 680 681
3 679 678 681
3 680 682 683
3 681 680 683
3 670 683 682
3 669 670 682
3 669 682 645
3 669 645 644
3 639 669 644
3 641 646 672
3 647 672 646
3 674 672 647
3 648 674 647
3 676 674 648
3 650 676 648
3 678 676 650
3 652 678 650
3 680 678 652
3 654 680 652
3 682 680 654
3 645 682 654
3 684 685 686
3 684 687 688
3 686 687 684
3 688 657 656
3 688 687 657
3 687 689 657
3 658 657 690
3 657 689 690
3 660 658 691
3 658 690 691
3 661 660 692
3 660 691 692
3 693 692 694
3 693 662 692
3 662 661 692
3 662 693 663
3 695 696 697
3 685 695 697
3 684 695 685
3 684 665 695
3 684 666 665
3 667 666 684
3 688 667 684
3 656 667 688
3 698 699 700
3 694 699 698
3 694 698 693
3 693 698 701
3 663 701 670
3 693 701 663
3 695 702 696
3 665 702 695
3 665 671 702
3 671 703 702
3 673 704 671
3 671 704 703
3 675 705 673
3 673 705 704
3 677 706 675
3 675 706 705
3 679 707 677
3 677 707 706
3 700 681 698
3 700 707 681
3 707 679 681
3 683 698 681
3 701 698 683
3 670 701 683
3 686 708 709
3 685 708 686
3 687 686 710
3 686 709 710
3 689 687 711
3 687 710 711
3 690 689 712
3 689 711 712
3 713 712 714
3 713 691 712
3 691 690 712
3 691 715 692
3 713 715 691
3 692 715 694
3 697 696 716
3 697 716 717
3 697 717 685
3 685 717 708
3 718 713 714
3 719 718 714
3 699 718 700
3 699 715 718
3 715 713 718
3 694 715 699
3 696 702 716
3 716 720 717
3 716 702 720
3 702 703 720
3 704 721 703
3 703 721 720
3 705 722 704
3 704 722 721
3 706 723 705
3 705 723 722
3 719 707 718
3 719 723 707
3 723 706 707
3 700 718 707
3 709 708 724
3 709 725 710
3 724 725 709
3 710 726 711
3 725 726 710
3 711 727 712
3 726 727 711
3 712 727 714
3 724 717 728
3 708 717 724
3 725 724 729
3 729 724 728
3 726 725 730
3 730 725 729
3 727 726 731
3 731 726 730
3 714 731 719
3 727 731 714
3 717 720 728
3 721 728 720
3 729 728 721
3 722 729 721
3 730 729 722
3 723 730 722
3 731 730 723
3 719 731 723
