# vtk DataFile Version 3.0
this file was written using fslvtkio
ASCII
DATASET POLYDATA
POINTS 642 float
97.9562 125.497 88.0362
87.5628 126.527 87.4471
88.1549 120.872 86.4526
97.9244 120.025 88.0433
97.8387 120.688 92.4695
94.6783 125.064 82.1153
87.9353 125.248 80.238
91.4787 121.551 92.1694
93.846 126.264 90.9358
93.5264 116.237 90.8985
91.8498 120.74 84.4609
92.2981 129.026 83.6288
92.5505 124.011 92.1975
96.4828 123.937 92.8817
94.7232 120.833 93.5351
91.8511 117.526 92.9915
96.4831 116.95 92.9709
89.5153 128.543 80.7542
91.7954 125.422 79.9965
93.9271 128.349 81.2825
89.7692 123.026 81.695
93.1021 122.958 82.8541
100.234 118.635 89.909
99.3025 123.25 90.8544
99.267 122.897 87.7296
96.1494 123.159 85.5883
96.4284 125.784 84.6938
89.014 124.162 90.4086
89.5843 120.736 89.8263
86.8498 123.822 86.7854
86.7418 126.33 83.4155
87.2909 123.044 83.0392
95.3107 128.063 85.7634
96.4624 126.146 89.9585
92.897 128.041 87.4931
89.1749 128.148 84.9064
90.564 126.447 89.4774
94.876 120.451 86.5805
92.7523 118.677 88.0966
96.8404 117.07 88.9284
89.2828 120.151 84.9019
89.7855 117.101 89.435
94.5428 123.915 92.8491
95.7395 122.585 94.0141
93.6432 122.754 93.7737
96.4747 120.558 93.5134
97.348 122.467 93.2585
95.1227 125.112 92.0281
93.1762 125.16 91.6466
91.8338 122.924 92.6463
93.0442 121.444 93.0431
93.4759 119.473 93.3188
95.579 118.869 93.6673
93.7956 117.146 93.9796
97.5244 118.694 92.7533
91.9433 119.813 92.3256
92.1823 115.974 92.3043
94.8906 116.354 92.2247
90.7212 127.027 80.4029
92.7962 126.892 80.4109
91.9342 128.969 80.4714
94.3868 126.445 81.4121
93.4358 125.312 80.8372
89.7043 125.389 79.8227
88.663 126.711 80.5737
91.0728 129.088 81.9847
93.2768 129.072 82.2683
91.4452 123.104 82.0702
92.4528 124.147 81.1285
90.5933 124.178 80.8083
93.8074 124.231 82.5215
92.3738 121.968 83.7434
90.747 122.056 83.183
88.733 123.911 80.5808
100.427 121.2 90.522
99.8042 122.982 89.1617
100.513 120.651 88.6705
99.2694 124.543 87.7901
98.9125 124.634 89.6005
98.7903 121.989 91.906
99.2094 119.662 91.4654
99.5586 118.788 88.1661
98.6366 121.359 88.0573
97.644 123.199 86.9473
98.2617 124.392 86.2751
96.8757 124.25 84.7778
97.1552 125.644 86.4085
97.0128 121.703 87.1497
95.2816 124.254 83.961
95.6474 125.474 83.1222
89.0985 122.538 90.1028
88.2556 122.562 88.3634
87.849 124.083 88.7626
87.7224 122.461 86.5298
88.7451 120.917 88.1981
90.5963 121.034 91.0974
90.1407 122.705 91.5575
88.1424 125.279 88.9145
86.9068 125.267 87.1305
86.476 125.104 85.1406
87.282 123.69 84.8575
86.6051 124.822 83.0706
87.6009 122.068 84.9074
86.8933 126.438 85.6005
87.3132 125.932 81.6516
86.9396 124.064 81.1766
96.0245 127.3 88.0329
94.8216 127.561 88.8605
94.2486 128.117 86.7963
93.4059 127.344 89.4538
95.2074 126.284 90.5821
97.3975 126.025 89.1131
96.4081 126.518 86.9517
93.9904 128.849 84.6065
92.4879 128.648 85.512
90.91 128.176 86.252
91.5225 127.204 88.2476
89.8755 127.351 87.2407
92.2391 126.59 90.3243
90.5838 128.733 84.0315
88.3401 127.267 86.1292
88.9479 126.6 88.6369
94.1353 119.352 87.316
94.7134 117.917 88.7732
96.1033 118.765 87.9815
95.1515 116.925 90.3808
93.1646 117.452 89.5401
92.312 119.779 86.2848
93.3879 120.638 85.5677
96.399 120.31 87.5585
97.7911 118.278 88.1133
89.6583 118.699 87.2928
91.2938 117.897 88.7361
90.9797 119.353 86.6532
91.4763 116.24 90.2414
88.4565 118.968 88.0597
87.9515 120.206 85.2493
90.5887 120.403 84.5859
98.0215 123.687 92.102
96.6213 125.065 91.5885
98.1877 125.036 90.785
95.4134 126.503 85.2165
94.6964 128.379 83.3739
95.0691 126.989 82.8142
96.8444 116.607 91.1218
98.9317 117.348 91.7311
98.9815 117.169 89.227
95.457 121.7 86.053
94.6121 123.158 84.382
93.8184 121.812 84.8089
91.5947 125.371 91.0353
90.7375 124.129 91.6813
89.6878 125.393 90.132
87.7061 127.551 84.0412
87.8512 127.351 81.9463
89.0031 128.675 82.6004
89.3398 118.778 89.9214
90.6921 119.184 91.4638
90.7655 117.038 91.5185
89.5247 121.995 83.428
88.1273 122.937 81.9205
88.1215 121.5 83.7213
95.052 123.292 93.5531
94.6634 122.652 93.8735
94.0377 123.445 93.593
94.2735 121.835 93.8179
95.1155 121.747 93.703
96.0866 123.311 93.5314
95.4382 123.779 92.9179
93.5682 123.888 92.5886
93.1229 123.449 93.1216
96.0594 121.599 93.712
96.6738 122.589 93.7938
96.88 121.615 93.3865
97.0438 123.329 93.2203
95.6309 120.665 93.7049
97.0884 120.647 92.8798
97.584 121.524 92.7895
94.8535 124.404 92.4228
93.8685 124.49 92.3162
94.177 125.005 91.9026
92.9247 124.617 92.0595
95.7364 124.35 92.3872
94.4224 125.662 91.4745
93.5664 125.677 91.3037
92.7433 122.906 93.2785
93.329 122.04 93.6036
92.4048 122.221 92.9929
93.8435 121.172 93.4495
92.2793 123.456 92.5157
91.4883 122.3 92.5526
92.2427 121.536 92.4664
94.5005 119.319 93.6535
94.8349 117.999 93.8925
93.5746 118.201 93.8103
95.1325 117.117 93.5905
95.8528 117.766 93.3598
95.2014 119.788 93.7728
94.1784 120.102 93.4468
92.6597 118.616 92.9577
92.6362 117.319 93.6318
96.5467 118.603 93.2657
96.0972 119.599 93.6544
96.8761 119.534 93.0733
97.0002 117.695 92.9509
97.6136 119.752 92.5146
93.3812 120.565 93.1893
92.5835 119.703 92.9771
92.5671 120.738 92.5884
91.8235 118.79 92.6853
91.8249 120.771 92.0847
92.9204 116.364 93.4751
94.3872 116.496 93.1759
93.6324 115.985 92.4139
95.5964 116.581 92.69
91.8903 116.648 93.0309
92.9401 115.775 91.4487
94.2182 116.178 91.5337
91.7359 126.982 80.4295
92.2097 127.887 80.3547
91.1623 128.062 80.1966
92.9536 128.632 80.7953
93.2379 127.626 80.7058
92.3686 126.211 80.1053
91.321 126.3 80.141
90.0854 128.014 80.273
90.7552 129.021 80.401
93.6781 126.811 80.8455
93.2296 125.992 80.4216
93.9616 125.912 81.0656
92.6866 125.4 80.2548
94.133 127.375 81.1829
94.5149 125.702 81.7796
93.9972 125.218 81.4687
90.2901 126.237 80.1752
89.7231 126.92 80.3264
89.2141 126.17 80.2857
89.0426 127.479 80.5882
90.8101 125.502 79.9528
88.8501 125.356 79.9875
88.3166 125.978 80.4463
91.4722 129.301 81.0757
92.6579 129.227 81.2798
92.2418 129.152 82.0506
93.5834 128.95 81.6837
90.2712 129.037 81.237
91.744 129.091 82.8446
92.7843 129.072 82.9961
91.9808 123.499 81.525
91.5769 124.123 80.8284
91.022 123.557 81.3028
91.1862 124.827 80.3289
92.1369 124.67 80.3815
92.7371 123.504 81.9924
92.2652 122.958 82.3581
90.6122 123.061 81.7267
90.1459 123.589 81.0968
92.8838 124.743 80.8547
93.1129 124.191 81.7203
93.5888 124.683 81.5042
93.4773 123.62 82.6676
94.27 124.664 82.2397
91.875 122.507 82.7799
91.1153 122.548 82.4992
91.5735 122.043 83.3723
90.2956 122.58 82.4186
92.6632 122.43 83.2006
92.0873 121.288 84.0643
91.2888 121.362 83.8714
89.6691 124.046 80.5765
90.15 124.612 80.0244
89.1684 124.523 80.0238
89.2822 123.532 81.1102
88.1473 124.469 80.2074
100.299 122.087 89.8614
100.342 121.979 88.8472
101.003 120.861 89.6152
99.9493 121.888 88.095
99.7734 122.917 88.3876
99.5545 122.889 90.0028
99.8626 122.225 90.7192
100.66 119.872 90.2516
100.892 119.613 89.1428
99.6432 123.734 88.5551
99.416 123.768 89.4451
98.9856 124.443 88.7233
99.019 123.854 90.2039
99.3939 123.707 87.7013
98.5533 124.907 88.0187
98.5281 125.066 88.8411
99.7308 121.523 91.3392
100.104 120.292 91.1148
99.1111 120.732 91.6987
99.9926 118.981 90.8602
99.1613 122.527 91.3495
98.3223 121.321 92.3174
98.4489 120.172 91.9916
100.279 119.513 88.2833
99.6785 120.952 88.0987
99.3674 120.111 87.9348
98.9855 122.073 87.9427
100.083 118.756 89.006
98.7814 119.409 87.9342
98.4023 120.649 88.0606
98.0212 123.803 86.6255
97.6377 124.284 85.5242
97.236 123.818 86.0476
96.9509 125.038 84.4584
97.6221 125.142 85.2706
98.656 123.779 87.2562
98.424 122.993 87.4835
96.9429 123.267 86.2541
96.4794 123.876 85.4138
97.8675 125.246 86.2561
98.7281 124.402 87.0814
98.2614 125.131 87.261
96.8523 125.696 85.5548
97.5815 125.449 87.3175
98.2193 122.22 87.4877
97.3445 122.344 87.0441
97.7715 121.554 87.7108
96.6043 122.414 86.3607
97.4667 121.018 87.8423
96.1274 124.21 84.3548
96.333 124.909 83.8683
95.7367 124.678 83.396
96.1421 125.719 83.7111
95.6257 123.882 84.9406
94.9811 124.69 82.9726
95.1781 125.278 82.514
88.6981 122.597 89.1861
87.976 123.202 88.5267
88.4156 123.23 89.446
87.2731 123.86 87.8307
87.5334 123.151 87.6268
88.8617 121.618 89.0992
89.3163 121.662 89.9355
89.0416 123.296 90.187
88.3806 124.116 89.6487
87.9275 122.558 87.4288
88.4308 121.722 88.3448
88.1709 121.74 87.3875
89.062 120.864 89.1374
87.2396 123.133 86.6318
87.985 121.703 86.5187
88.2228 120.903 87.3026
89.7718 121.789 90.607
89.4586 122.644 90.8647
90.4073 121.986 91.2296
89.5692 123.25 91.0239
90.0463 120.85 90.4594
91.1607 121.34 91.5816
90.8448 122.125 91.956
87.8786 124.771 88.9858
87.3066 124.684 88.0098
87.6282 125.244 88.0631
86.8243 124.648 86.9849
88.4258 124.893 89.7708
87.9657 125.867 88.1441
87.3323 125.823 87.251
86.5746 124.263 85.0264
86.9029 124.152 83.9776
86.3998 124.912 84.0938
87.0608 123.926 83.0089
87.4362 123.414 83.9185
86.8503 123.756 85.8587
86.5503 124.527 86.0158
86.2297 125.701 84.204
86.617 125.599 83.3128
87.5235 122.864 84.7742
87.3585 123.033 85.7236
87.5703 122.217 85.6379
87.482 122.701 83.9747
87.9181 121.444 85.6573
86.471 125.182 86.1753
86.4047 125.803 85.3574
86.691 125.889 86.4594
86.686 126.332 84.4956
87.0605 126.536 86.6183
86.8238 125.316 82.3031
86.7096 124.442 82.0568
86.8728 125.02 81.243
86.9528 123.599 82.0948
87.006 126.12 82.5351
87.5515 125.563 80.8351
87.2336 124.689 80.465
95.4369 127.483 88.4449
94.5662 127.908 87.8353
95.1047 127.779 87.3921
93.6567 128.221 87.1709
93.9214 127.875 88.1966
95.6918 127.057 89.5275
96.2958 126.892 89.0939
95.5901 127.639 86.9617
94.858 128.084 86.3489
94.143 127.511 89.1665
95.0178 127.005 89.828
94.3415 126.952 90.0245
95.8273 126.252 90.294
93.1913 127.651 88.453
93.6263 126.943 90.2883
94.5014 126.225 90.795
96.6545 126.572 88.6169
96.2993 126.967 87.4845
96.9027 126.259 88.0381
95.8855 127.332 86.454
96.9542 126.127 89.5543
97.676 125.781 88.56
97.11 125.912 87.4477
94.072 128.43 85.7337
93.4888 128.432 86.1374
93.3653 128.753 85.1568
92.697 128.375 86.5225
94.7128 128.512 85.1355
93.1553 129.062 84.0531
92.3315 128.855 84.508
91.2575 127.717 87.2305
90.7407 127.355 87.7898
90.3516 127.785 86.7273
90.2113 126.994 88.4466
90.9923 126.764 88.8321
92.206 127.673 87.8057
91.8462 128.121 86.8505
90.0096 128.205 85.6178
89.6056 127.774 86.1181
91.7841 126.856 89.2975
92.485 127.294 88.7551
92.8284 126.97 89.8411
91.3225 126.417 89.8588
93.1312 126.372 90.6686
91.6612 128.434 85.8764
90.7245 128.55 85.1769
91.5034 128.716 84.8268
89.8403 128.443 84.4642
91.4021 128.911 83.7883
89.1095 127.381 86.6212
89.3848 127.138 87.9885
88.5917 127.157 87.4562
89.7605 126.61 89.0556
88.862 127.549 85.4369
87.7791 127.079 86.9137
88.2128 126.613 88.1106
94.4607 118.76 88.0799
95.5678 118.267 88.3579
95.1354 119.131 87.7017
96.5235 117.925 88.5669
95.7623 117.579 88.8892
93.726 118.35 88.4604
93.4855 119.008 87.7035
94.643 119.689 86.9378
95.5126 119.531 87.3088
95.0147 117.335 89.3885
93.9703 117.825 89.2059
94.1692 117.129 89.9238
92.9149 118.017 88.6591
95.9062 116.878 89.6364
94.4695 116.561 90.6728
93.322 116.775 90.2152
93.2376 119.417 86.7107
93.7856 119.967 86.5106
92.9554 120.138 85.9818
94.185 120.524 86.1591
92.5545 119.272 87.2385
92.077 120.306 85.4309
92.5688 120.601 84.9164
96.3508 119.429 87.616
96.9209 118.453 88.1451
97.1556 119.196 87.8833
97.4264 117.647 88.4954
95.6067 120.306 87.0255
97.1329 120.218 87.8777
98.0212 119.156 88.057
90.5083 118.347 88.0691
91.2235 118.815 87.7307
90.31 119.012 86.8447
91.9225 119.076 87.5682
91.9578 118.291 88.283
90.5563 117.486 89.0179
89.6996 117.864 88.4205
89.5007 119.53 86.1916
90.1305 119.748 85.9108
92.1814 117.615 88.9789
91.3476 117.129 89.5621
92.3192 116.787 89.8585
90.7016 116.724 89.8749
92.5183 116.073 90.6718
88.8973 118.652 87.5244
88.8109 119.33 86.2094
88.2098 119.56 86.6476
88.6161 120.048 85.0662
89.1869 117.923 88.7621
88.188 119.895 87.2251
87.9784 120.531 85.8574
90.7591 119.894 85.6284
91.673 119.602 86.5627
91.4593 120.147 85.555
89.9188 120.299 84.7654
91.2094 120.595 84.5461
97.2953 124.342 91.8776
97.3851 125.02 91.2125
98.0603 124.331 91.4012
97.349 125.59 90.4535
96.6534 125.61 90.8002
96.5243 124.365 92.2134
97.377 123.876 92.6626
98.724 123.547 91.5118
98.7772 124.209 90.8953
95.9342 125.668 91.0863
95.8932 125.101 91.9514
95.16 125.711 91.3301
97.8715 123.165 92.8865
98.535 122.945 92.0868
98.059 122.228 92.548
98.6643 124.922 90.2831
97.947 125.744 90.0858
98.3171 125.514 89.4722
95.1802 127.6 84.2863
94.8791 127.74 83.0347
95.3015 126.875 84.038
94.6178 127.681 81.8871
94.3812 128.431 82.205
95.023 128.201 84.5927
95.513 127.419 85.3921
95.8644 126.311 84.9395
95.7518 126.43 83.7704
94.1086 128.801 82.749
94.4959 128.703 83.9666
93.6712 128.987 83.4181
95.9189 126.526 86.0832
96.1761 126.046 85.781
96.7022 125.954 86.6514
95.4044 126.256 82.9339
94.9485 126.804 81.8506
95.0563 125.966 82.2216
98.1718 116.589 91.5664
99.2028 117.004 90.5198
98.248 116.538 90.2247
99.69 117.726 89.5454
99.7534 117.859 90.7186
97.7975 117.018 92.4266
96.7348 116.614 92.1535
96.8924 116.707 89.9664
97.9289 117.014 89.0566
99.155 118.37 91.6374
98.2743 117.95 92.5699
98.3075 119.218 92.1219
95.8027 116.43 91.7257
95.8377 116.774 90.7466
95.059 116.552 91.1997
98.2793 117.691 88.5962
99.2456 117.946 88.6728
98.5607 118.459 88.0966
94.9894 122.406 85.2484
94.1567 122.516 84.6347
94.6356 121.637 85.3412
93.3501 122.462 83.8886
93.8316 123.01 83.5922
95.2893 123.26 85.1483
95.7762 122.418 85.8221
95.1245 121.103 86.3079
94.4061 121.071 85.6687
94.0919 123.665 83.5689
94.9101 123.763 84.2371
94.4805 124.252 83.3447
96.222 121.702 86.5595
95.8852 121.048 86.8248
96.6984 121.013 87.2639
93.7103 121.115 85.0881
93.0381 121.922 84.358
92.8417 121.192 84.5526
91.1512 124.805 91.4071
90.1298 124.88 91.0295
90.6533 125.334 90.526
89.3335 124.923 90.3475
89.7526 124.103 91.3365
91.7283 124.124 91.946
92.0635 124.774 91.8158
91.0013 125.862 90.3503
90.1281 125.924 89.8508
90.3378 123.375 91.7089
91.3439 123.424 91.9968
90.9459 122.809 92.1442
92.3905 125.297 91.4128
91.8909 126.018 90.6522
92.7711 125.872 90.9819
89.2797 125.941 89.3628
88.8819 125.328 89.6315
88.6057 125.763 88.7354
87.7287 127.414 82.9675
88.3185 128.045 82.1795
88.2759 128.013 83.291
89.1488 128.557 81.6124
88.6092 127.869 81.249
87.371 126.692 82.674
87.2455 126.932 83.7071
88.4488 127.873 84.3934
89.0581 128.325 83.7487
88.2001 127.113 81.1132
87.5318 126.653 81.7655
87.9204 126.323 81.0162
87.1989 126.929 84.7248
88.0621 127.304 85.061
87.3897 127.003 85.9981
89.8385 128.747 83.2944
89.9341 129.02 82.0959
90.7876 129.021 82.9328
89.721 118.978 90.8847
90.4102 117.977 91.7415
89.8515 117.856 90.8314
91.2146 117.167 92.3623
91.1129 118.373 92.3584
90.0714 119.881 90.6815
89.3806 119.843 89.9694
89.4194 117.824 89.653
90.1926 116.943 90.556
91.2673 119.446 91.9503
90.7978 120.078 91.0754
91.358 120.391 91.6526
88.8222 119.983 89.1388
88.7875 118.892 88.9753
88.5162 120.1 88.1639
90.9072 116.487 90.8361
91.4109 116.472 92.14
91.9708 116.099 91.1498
88.9286 122.604 82.8127
88.1478 122.294 82.8541
88.8658 121.765 83.5918
87.519 122.271 83.263
87.4516 122.863 82.2261
88.9925 123.053 81.8115
89.5905 122.704 82.6388
89.3835 120.934 84.1475
88.6709 120.768 84.2243
87.4578 123.376 81.3892
88.3314 123.314 81.0005
87.6817 123.821 80.6779
90.1156 122.159 83.2365
90.1232 121.071 83.8633
90.6752 121.237 83.8169
88.0658 120.891 84.524
87.7452 121.789 84.2318
87.7657 121.159 85.0037
POLYGONS 1280  5120
3 164 162 163
3 163 44 164
3 162 43 163
3 164 42 162
3 166 165 163
3 163 43 166
3 165 44 163
3 166 14 165
3 168 167 162
3 162 42 168
3 167 43 162
3 168 13 167
3 170 169 164
3 164 44 170
3 169 42 164
3 170 12 169
3 173 171 172
3 172 46 173
3 171 43 172
3 173 45 171
3 167 174 172
3 172 43 167
3 174 46 172
3 167 13 174
3 175 166 171
3 171 45 175
3 166 43 171
3 175 14 166
3 177 176 173
3 173 46 177
3 176 45 173
3 177 4 176
3 180 178 179
3 179 48 180
3 178 42 179
3 180 47 178
3 169 181 179
3 179 42 169
3 181 48 179
3 169 12 181
3 182 168 178
3 178 47 182
3 168 42 178
3 182 13 168
3 184 183 180
3 180 48 184
3 183 47 180
3 184 8 183
3 187 185 186
3 186 50 187
3 185 44 186
3 187 49 185
3 165 188 186
3 186 44 165
3 188 50 186
3 165 14 188
3 189 170 185
3 185 49 189
3 170 44 185
3 189 12 170
3 191 190 187
3 187 50 191
3 190 49 187
3 191 7 190
3 194 192 193
3 193 53 194
3 192 52 193
3 194 51 192
3 196 195 193
3 193 52 196
3 195 53 193
3 196 16 195
3 198 197 192
3 192 51 198
3 197 52 192
3 198 14 197
3 200 199 194
3 194 53 200
3 199 51 194
3 200 15 199
3 203 201 202
3 202 45 203
3 201 52 202
3 203 54 201
3 197 175 202
3 202 52 197
3 175 45 202
3 197 14 175
3 204 196 201
3 201 54 204
3 196 52 201
3 204 16 196
3 176 205 203
3 203 45 176
3 205 54 203
3 176 4 205
3 208 206 207
3 207 55 208
3 206 51 207
3 208 50 206
3 199 209 207
3 207 51 199
3 209 55 207
3 199 15 209
3 188 198 206
3 206 50 188
3 198 51 206
3 188 14 198
3 210 191 208
3 208 55 210
3 191 50 208
3 210 7 191
3 213 211 212
3 212 57 213
3 211 53 212
3 213 56 211
3 195 214 212
3 212 53 195
3 214 57 212
3 195 16 214
3 215 200 211
3 211 56 215
3 200 53 211
3 215 15 200
3 217 216 213
3 213 57 217
3 216 56 213
3 217 9 216
3 220 218 219
3 219 60 220
3 218 59 219
3 220 58 218
3 222 221 219
3 219 59 222
3 221 60 219
3 222 19 221
3 224 223 218
3 218 58 224
3 223 59 218
3 224 18 223
3 226 225 220
3 220 60 226
3 225 58 220
3 226 17 225
3 229 227 228
3 228 62 229
3 227 59 228
3 229 61 227
3 223 230 228
3 228 59 223
3 230 62 228
3 223 18 230
3 231 222 227
3 227 61 231
3 222 59 227
3 231 19 222
3 233 232 229
3 229 62 233
3 232 61 229
3 233 5 232
3 236 234 235
3 235 64 236
3 234 58 235
3 236 63 234
3 225 237 235
3 235 58 225
3 237 64 235
3 225 17 237
3 238 224 234
3 234 63 238
3 224 58 234
3 238 18 224
3 240 239 236
3 236 64 240
3 239 63 236
3 240 6 239
3 243 241 242
3 242 66 243
3 241 60 242
3 243 65 241
3 221 244 242
3 242 60 221
3 244 66 242
3 221 19 244
3 245 226 241
3 241 65 245
3 226 60 241
3 245 17 226
3 247 246 243
3 243 66 247
3 246 65 243
3 247 11 246
3 250 248 249
3 249 69 250
3 248 68 249
3 250 67 248
3 252 251 249
3 249 68 252
3 251 69 249
3 252 18 251
3 254 253 248
3 248 67 254
3 253 68 248
3 254 21 253
3 256 255 250
3 250 69 256
3 255 67 250
3 256 20 255
3 259 257 258
3 258 70 259
3 257 68 258
3 259 62 257
3 253 260 258
3 258 68 253
3 260 70 258
3 253 21 260
3 230 252 257
3 257 62 230
3 252 68 257
3 230 18 252
3 261 233 259
3 259 70 261
3 233 62 259
3 261 5 233
3 264 262 263
3 263 72 264
3 262 67 263
3 264 71 262
3 255 265 263
3 263 67 255
3 265 72 263
3 255 20 265
3 266 254 262
3 262 71 266
3 254 67 262
3 266 21 254
3 268 267 264
3 264 72 268
3 267 71 264
3 268 10 267
3 271 269 270
3 270 63 271
3 269 69 270
3 271 73 269
3 251 238 270
3 270 69 251
3 238 63 270
3 251 18 238
3 272 256 269
3 269 73 272
3 256 69 269
3 272 20 256
3 239 273 271
3 271 63 239
3 273 73 271
3 239 6 273
3 276 274 275
3 275 76 276
3 274 75 275
3 276 74 274
3 278 277 275
3 275 75 278
3 277 76 275
3 278 24 277
3 280 279 274
3 274 74 280
3 279 75 274
3 280 23 279
3 282 281 276
3 276 76 282
3 281 74 276
3 282 22 281
3 285 283 284
3 284 78 285
3 283 75 284
3 285 77 283
3 279 286 284
3 284 75 279
3 286 78 284
3 279 23 286
3 287 278 283
3 283 77 287
3 278 75 283
3 287 24 278
3 289 288 285
3 285 78 289
3 288 77 285
3 289 0 288
3 292 290 291
3 291 80 292
3 290 74 291
3 292 79 290
3 281 293 291
3 291 74 281
3 293 80 291
3 281 22 293
3 294 280 290
3 290 79 294
3 280 74 290
3 294 23 280
3 296 295 292
3 292 80 296
3 295 79 292
3 296 4 295
3 299 297 298
3 298 82 299
3 297 76 298
3 299 81 297
3 277 300 298
3 298 76 277
3 300 82 298
3 277 24 300
3 301 282 297
3 297 81 301
3 282 76 297
3 301 22 282
3 303 302 299
3 299 82 303
3 302 81 299
3 303 3 302
3 306 304 305
3 305 85 306
3 304 84 305
3 306 83 304
3 308 307 305
3 305 84 308
3 307 85 305
3 308 26 307
3 310 309 304
3 304 83 310
3 309 84 304
3 310 24 309
3 312 311 306
3 306 85 312
3 311 83 306
3 312 25 311
3 315 313 314
3 314 77 315
3 313 84 314
3 315 86 313
3 309 287 314
3 314 84 309
3 287 77 314
3 309 24 287
3 316 308 313
3 313 86 316
3 308 84 313
3 316 26 308
3 288 317 315
3 315 77 288
3 317 86 315
3 288 0 317
3 320 318 319
3 319 87 320
3 318 83 319
3 320 82 318
3 311 321 319
3 319 83 311
3 321 87 319
3 311 25 321
3 300 310 318
3 318 82 300
3 310 83 318
3 300 24 310
3 322 303 320
3 320 87 322
3 303 82 320
3 322 3 303
3 325 323 324
3 324 89 325
3 323 85 324
3 325 88 323
3 307 326 324
3 324 85 307
3 326 89 324
3 307 26 326
3 327 312 323
3 323 88 327
3 312 85 323
3 327 25 312
3 329 328 325
3 325 89 329
3 328 88 325
3 329 5 328
3 332 330 331
3 331 92 332
3 330 91 331
3 332 90 330
3 334 333 331
3 331 91 334
3 333 92 331
3 334 29 333
3 336 335 330
3 330 90 336
3 335 91 330
3 336 28 335
3 338 337 332
3 332 92 338
3 337 90 332
3 338 27 337
3 341 339 340
3 340 94 341
3 339 91 340
3 341 93 339
3 335 342 340
3 340 91 335
3 342 94 340
3 335 28 342
3 343 334 339
3 339 93 343
3 334 91 339
3 343 29 334
3 345 344 341
3 341 94 345
3 344 93 341
3 345 2 344
3 348 346 347
3 347 96 348
3 346 90 347
3 348 95 346
3 337 349 347
3 347 90 337
3 349 96 347
3 337 27 349
3 350 336 346
3 346 95 350
3 336 90 346
3 350 28 336
3 352 351 348
3 348 96 352
3 351 95 348
3 352 7 351
3 355 353 354
3 354 98 355
3 353 92 354
3 355 97 353
3 333 356 354
3 354 92 333
3 356 98 354
3 333 29 356
3 357 338 353
3 353 97 357
3 338 92 353
3 357 27 338
3 359 358 355
3 355 98 359
3 358 97 355
3 359 1 358
3 362 360 361
3 361 101 362
3 360 100 361
3 362 99 360
3 364 363 361
3 361 100 364
3 363 101 361
3 364 31 363
3 366 365 360
3 360 99 366
3 365 100 360
3 366 29 365
3 368 367 362
3 362 101 368
3 367 99 362
3 368 30 367
3 371 369 370
3 370 93 371
3 369 100 370
3 371 102 369
3 365 343 370
3 370 100 365
3 343 93 370
3 365 29 343
3 372 364 369
3 369 102 372
3 364 100 369
3 372 31 364
3 344 373 371
3 371 93 344
3 373 102 371
3 344 2 373
3 376 374 375
3 375 103 376
3 374 99 375
3 376 98 374
3 367 377 375
3 375 99 367
3 377 103 375
3 367 30 377
3 356 366 374
3 374 98 356
3 366 99 374
3 356 29 366
3 378 359 376
3 376 103 378
3 359 98 376
3 378 1 359
3 381 379 380
3 380 105 381
3 379 101 380
3 381 104 379
3 363 382 380
3 380 101 363
3 382 105 380
3 363 31 382
3 383 368 379
3 379 104 383
3 368 101 379
3 383 30 368
3 385 384 381
3 381 105 385
3 384 104 381
3 385 6 384
3 388 386 387
3 387 108 388
3 386 107 387
3 388 106 386
3 390 389 387
3 387 107 390
3 389 108 387
3 390 34 389
3 392 391 386
3 386 106 392
3 391 107 386
3 392 33 391
3 394 393 388
3 388 108 394
3 393 106 388
3 394 32 393
3 397 395 396
3 396 110 397
3 395 107 396
3 397 109 395
3 391 398 396
3 396 107 391
3 398 110 396
3 391 33 398
3 399 390 395
3 395 109 399
3 390 107 395
3 399 34 390
3 401 400 397
3 397 110 401
3 400 109 397
3 401 8 400
3 404 402 403
3 403 112 404
3 402 106 403
3 404 111 402
3 393 405 403
3 403 106 393
3 405 112 403
3 393 32 405
3 406 392 402
3 402 111 406
3 392 106 402
3 406 33 392
3 408 407 404
3 404 112 408
3 407 111 404
3 408 0 407
3 411 409 410
3 410 114 411
3 409 108 410
3 411 113 409
3 389 412 410
3 410 108 389
3 412 114 410
3 389 34 412
3 413 394 409
3 409 113 413
3 394 108 409
3 413 32 394
3 415 414 411
3 411 114 415
3 414 113 411
3 415 11 414
3 418 416 417
3 417 117 418
3 416 116 417
3 418 115 416
3 420 419 417
3 417 116 420
3 419 117 417
3 420 36 419
3 422 421 416
3 416 115 422
3 421 116 416
3 422 34 421
3 424 423 418
3 418 117 424
3 423 115 418
3 424 35 423
3 427 425 426
3 426 109 427
3 425 116 426
3 427 118 425
3 421 399 426
3 426 116 421
3 399 109 426
3 421 34 399
3 428 420 425
3 425 118 428
3 420 116 425
3 428 36 420
3 400 429 427
3 427 109 400
3 429 118 427
3 400 8 429
3 432 430 431
3 431 119 432
3 430 115 431
3 432 114 430
3 423 433 431
3 431 115 423
3 433 119 431
3 423 35 433
3 412 422 430
3 430 114 412
3 422 115 430
3 412 34 422
3 434 415 432
3 432 119 434
3 415 114 432
3 434 11 415
3 437 435 436
3 436 121 437
3 435 117 436
3 437 120 435
3 419 438 436
3 436 117 419
3 438 121 436
3 419 36 438
3 439 424 435
3 435 120 439
3 424 117 435
3 439 35 424
3 441 440 437
3 437 121 441
3 440 120 437
3 441 1 440
3 444 442 443
3 443 124 444
3 442 123 443
3 444 122 442
3 446 445 443
3 443 123 446
3 445 124 443
3 446 39 445
3 448 447 442
3 442 122 448
3 447 123 442
3 448 38 447
3 450 449 444
3 444 124 450
3 449 122 444
3 450 37 449
3 453 451 452
3 452 126 453
3 451 123 452
3 453 125 451
3 447 454 452
3 452 123 447
3 454 126 452
3 447 38 454
3 455 446 451
3 451 125 455
3 446 123 451
3 455 39 446
3 457 456 453
3 453 126 457
3 456 125 453
3 457 9 456
3 460 458 459
3 459 128 460
3 458 122 459
3 460 127 458
3 449 461 459
3 459 122 449
3 461 128 459
3 449 37 461
3 462 448 458
3 458 127 462
3 448 122 458
3 462 38 448
3 464 463 460
3 460 128 464
3 463 127 460
3 464 10 463
3 467 465 466
3 466 130 467
3 465 124 466
3 467 129 465
3 445 468 466
3 466 124 445
3 468 130 466
3 445 39 468
3 469 450 465
3 465 129 469
3 450 124 465
3 469 37 450
3 471 470 467
3 467 130 471
3 470 129 467
3 471 3 470
3 474 472 473
3 473 133 474
3 472 132 473
3 474 131 472
3 476 475 473
3 473 132 476
3 475 133 473
3 476 38 475
3 478 477 472
3 472 131 478
3 477 132 472
3 478 41 477
3 480 479 474
3 474 133 480
3 479 131 474
3 480 40 479
3 483 481 482
3 482 134 483
3 481 132 482
3 483 126 481
3 477 484 482
3 482 132 477
3 484 134 482
3 477 41 484
3 454 476 481
3 481 126 454
3 476 132 481
3 454 38 476
3 485 457 483
3 483 134 485
3 457 126 483
3 485 9 457
3 488 486 487
3 487 136 488
3 486 131 487
3 488 135 486
3 479 489 487
3 487 131 479
3 489 136 487
3 479 40 489
3 490 478 486
3 486 135 490
3 478 131 486
3 490 41 478
3 492 491 488
3 488 136 492
3 491 135 488
3 492 2 491
3 495 493 494
3 494 127 495
3 493 133 494
3 495 137 493
3 475 462 494
3 494 133 475
3 462 127 494
3 475 38 462
3 496 480 493
3 493 137 496
3 480 133 493
3 496 40 480
3 463 497 495
3 495 127 463
3 497 137 495
3 463 10 497
3 500 498 499
3 499 140 500
3 498 139 499
3 500 138 498
3 502 501 499
3 499 139 502
3 501 140 499
3 502 33 501
3 504 503 498
3 498 138 504
3 503 139 498
3 504 13 503
3 506 505 500
3 500 140 506
3 505 138 500
3 506 23 505
3 509 507 508
3 508 47 509
3 507 139 508
3 509 110 507
3 503 182 508
3 508 139 503
3 182 47 508
3 503 13 182
3 398 502 507
3 507 110 398
3 502 139 507
3 398 33 502
3 183 401 509
3 509 47 183
3 401 110 509
3 183 8 401
3 512 510 511
3 511 79 512
3 510 138 511
3 512 46 510
3 505 294 511
3 511 138 505
3 294 79 511
3 505 23 294
3 174 504 510
3 510 46 174
3 504 138 510
3 174 13 504
3 295 177 512
3 512 79 295
3 177 46 512
3 295 4 177
3 515 513 514
3 514 111 515
3 513 140 514
3 515 78 513
3 501 406 514
3 514 140 501
3 406 111 514
3 501 33 406
3 286 506 513
3 513 78 286
3 506 140 513
3 286 23 506
3 407 289 515
3 515 111 407
3 289 78 515
3 407 0 289
3 518 516 517
3 517 143 518
3 516 142 517
3 518 141 516
3 520 519 517
3 517 142 520
3 519 143 517
3 520 19 519
3 522 521 516
3 516 141 522
3 521 142 516
3 522 32 521
3 524 523 518
3 518 143 524
3 523 141 518
3 524 26 523
3 527 525 526
3 526 113 527
3 525 142 526
3 527 66 525
3 521 413 526
3 526 142 521
3 413 113 526
3 521 32 413
3 244 520 525
3 525 66 244
3 520 142 525
3 244 19 520
3 414 247 527
3 527 113 414
3 247 66 527
3 414 11 247
3 530 528 529
3 529 86 530
3 528 141 529
3 530 112 528
3 523 316 529
3 529 141 523
3 316 86 529
3 523 26 316
3 405 522 528
3 528 112 405
3 522 141 528
3 405 32 522
3 317 408 530
3 530 86 317
3 408 112 530
3 317 0 408
3 533 531 532
3 532 61 533
3 531 143 532
3 533 89 531
3 519 231 532
3 532 143 519
3 231 61 532
3 519 19 231
3 326 524 531
3 531 89 326
3 524 143 531
3 326 26 524
3 232 329 533
3 533 61 232
3 329 89 533
3 232 5 329
3 536 534 535
3 535 146 536
3 534 145 535
3 536 144 534
3 538 537 535
3 535 145 538
3 537 146 535
3 538 22 537
3 540 539 534
3 534 144 540
3 539 145 534
3 540 16 539
3 542 541 536
3 536 146 542
3 541 144 536
3 542 39 541
3 545 543 544
3 544 54 545
3 543 145 544
3 545 80 543
3 539 204 544
3 544 145 539
3 204 54 544
3 539 16 204
3 293 538 543
3 543 80 293
3 538 145 543
3 293 22 538
3 205 296 545
3 545 54 205
3 296 80 545
3 205 4 296
3 548 546 547
3 547 125 548
3 546 144 547
3 548 57 546
3 541 455 547
3 547 144 541
3 455 125 547
3 541 39 455
3 214 540 546
3 546 57 214
3 540 144 546
3 214 16 540
3 456 217 548
3 548 125 456
3 217 57 548
3 456 9 217
3 551 549 550
3 550 81 551
3 549 146 550
3 551 130 549
3 537 301 550
3 550 146 537
3 301 81 550
3 537 22 301
3 468 542 549
3 549 130 468
3 542 146 549
3 468 39 542
3 302 471 551
3 551 81 302
3 471 130 551
3 302 3 471
3 554 552 553
3 553 149 554
3 552 148 553
3 554 147 552
3 556 555 553
3 553 148 556
3 555 149 553
3 556 21 555
3 558 557 552
3 552 147 558
3 557 148 552
3 558 25 557
3 560 559 554
3 554 149 560
3 559 147 554
3 560 37 559
3 563 561 562
3 562 88 563
3 561 148 562
3 563 70 561
3 557 327 562
3 562 148 557
3 327 88 562
3 557 25 327
3 260 556 561
3 561 70 260
3 556 148 561
3 260 21 556
3 328 261 563
3 563 88 328
3 261 70 563
3 328 5 261
3 566 564 565
3 565 129 566
3 564 147 565
3 566 87 564
3 559 469 565
3 565 147 559
3 469 129 565
3 559 37 469
3 321 558 564
3 564 87 321
3 558 147 564
3 321 25 558
3 470 322 566
3 566 129 470
3 322 87 566
3 470 3 322
3 569 567 568
3 568 71 569
3 567 149 568
3 569 128 567
3 555 266 568
3 568 149 555
3 266 71 568
3 555 21 266
3 461 560 567
3 567 128 461
3 560 149 567
3 461 37 560
3 267 464 569
3 569 71 267
3 464 128 569
3 267 10 464
3 572 570 571
3 571 152 572
3 570 151 571
3 572 150 570
3 574 573 571
3 571 151 574
3 573 152 571
3 574 27 573
3 576 575 570
3 570 150 576
3 575 151 570
3 576 12 575
3 578 577 572
3 572 152 578
3 577 150 572
3 578 36 577
3 581 579 580
3 580 49 581
3 579 151 580
3 581 96 579
3 575 189 580
3 580 151 575
3 189 49 580
3 575 12 189
3 349 574 579
3 579 96 349
3 574 151 579
3 349 27 574
3 190 352 581
3 581 49 190
3 352 96 581
3 190 7 352
3 584 582 583
3 583 118 584
3 582 150 583
3 584 48 582
3 577 428 583
3 583 150 577
3 428 118 583
3 577 36 428
3 181 576 582
3 582 48 181
3 576 150 582
3 181 12 576
3 429 184 584
3 584 118 429
3 184 48 584
3 429 8 184
3 587 585 586
3 586 97 587
3 585 152 586
3 587 121 585
3 573 357 586
3 586 152 573
3 357 97 586
3 573 27 357
3 438 578 585
3 585 121 438
3 578 152 585
3 438 36 578
3 358 441 587
3 587 97 358
3 441 121 587
3 358 1 441
3 590 588 589
3 589 155 590
3 588 154 589
3 590 153 588
3 592 591 589
3 589 154 592
3 591 155 589
3 592 17 591
3 594 593 588
3 588 153 594
3 593 154 588
3 594 30 593
3 596 595 590
3 590 155 596
3 595 153 590
3 596 35 595
3 599 597 598
3 598 104 599
3 597 154 598
3 599 64 597
3 593 383 598
3 598 154 593
3 383 104 598
3 593 30 383
3 237 592 597
3 597 64 237
3 592 154 597
3 237 17 592
3 384 240 599
3 599 104 384
3 240 64 599
3 384 6 240
3 602 600 601
3 601 120 602
3 600 153 601
3 602 103 600
3 595 439 601
3 601 153 595
3 439 120 601
3 595 35 439
3 377 594 600
3 600 103 377
3 594 153 600
3 377 30 594
3 440 378 602
3 602 120 440
3 378 103 602
3 440 1 378
3 605 603 604
3 604 65 605
3 603 155 604
3 605 119 603
3 591 245 604
3 604 155 591
3 245 65 604
3 591 17 245
3 433 596 603
3 603 119 433
3 596 155 603
3 433 35 596
3 246 434 605
3 605 65 246
3 434 119 605
3 246 11 434
3 608 606 607
3 607 158 608
3 606 157 607
3 608 156 606
3 610 609 607
3 607 157 610
3 609 158 607
3 610 15 609
3 612 611 606
3 606 156 612
3 611 157 606
3 612 28 611
3 614 613 608
3 608 158 614
3 613 156 608
3 614 41 613
3 617 615 616
3 616 95 617
3 615 157 616
3 617 55 615
3 611 350 616
3 616 157 611
3 350 95 616
3 611 28 350
3 209 610 615
3 615 55 209
3 610 157 615
3 209 15 610
3 351 210 617
3 617 95 351
3 210 55 617
3 351 7 210
3 620 618 619
3 619 135 620
3 618 156 619
3 620 94 618
3 613 490 619
3 619 156 613
3 490 135 619
3 613 41 490
3 342 612 618
3 618 94 342
3 612 156 618
3 342 28 612
3 491 345 620
3 620 135 491
3 345 94 620
3 491 2 345
3 623 621 622
3 622 56 623
3 621 158 622
3 623 134 621
3 609 215 622
3 622 158 609
3 215 56 622
3 609 15 215
3 484 614 621
3 621 134 484
3 614 158 621
3 484 41 614
3 216 485 623
3 623 56 216
3 485 134 623
3 216 9 485
3 626 624 625
3 625 161 626
3 624 160 625
3 626 159 624
3 628 627 625
3 625 160 628
3 627 161 625
3 628 31 627
3 630 629 624
3 624 159 630
3 629 160 624
3 630 20 629
3 632 631 626
3 626 161 632
3 631 159 626
3 632 40 631
3 635 633 634
3 634 73 635
3 633 160 634
3 635 105 633
3 629 272 634
3 634 160 629
3 272 73 634
3 629 20 272
3 382 628 633
3 633 105 382
3 628 160 633
3 382 31 628
3 273 385 635
3 635 73 273
3 385 105 635
3 273 6 385
3 638 636 637
3 637 137 638
3 636 159 637
3 638 72 636
3 631 496 637
3 637 159 631
3 496 137 637
3 631 40 496
3 265 630 636
3 636 72 265
3 630 159 636
3 265 20 630
3 497 268 638
3 638 137 497
3 268 72 638
3 497 10 268
3 641 639 640
3 640 102 641
3 639 161 640
3 641 136 639
3 627 372 640
3 640 161 627
3 372 102 640
3 627 31 372
3 489 632 639
3 639 136 489
3 632 161 639
3 489 40 632
3 373 492 641
3 641 102 373
3 492 136 641
3 373 2 492
