# vtk DataFile Version 3.0
this file was written using fslvtkio
ASCII
DATASET POLYDATA
POINTS 642 float
138.069 137.643 107.864
126.425 135.958 108.7
134.031 124.436 108.734
141.636 120.286 105.732
139.144 126.343 115.275
136.258 131.784 101.624
128.542 132.396 101.381
132.193 126.038 117.335
132.302 141.698 115.458
137.649 111.311 112.101
138.075 116.638 100.427
128.102 144.708 101.279
132.124 134.049 118.004
136.417 134.961 116.487
136.384 125.516 119.582
134.799 118.207 116.722
139.202 117.488 114.812
125.135 137.973 98.0593
131.966 132.672 100.372
131.985 139.511 99.7282
135.994 124.644 102.472
139.283 121.594 99.5574
140.881 122.081 110.853
138.899 132.674 112.039
140.307 129.011 106.949
140.77 124.579 102.37
137.115 136.423 103.588
128.916 131.979 114.093
131.939 123.193 113.054
130.046 130.873 108.806
124.838 135.178 103.036
132.185 128.553 105.014
133.529 143.667 105.032
135.386 141.666 111.432
129.374 145.879 108.488
125.214 141.103 104.535
128.662 139.504 112.136
142.272 115.162 100.547
138.727 111.989 105.226
141.248 113.217 108.367
136.864 119.935 105.436
135.3 116.907 110.245
134.525 135.017 118.381
136.613 130.395 118.258
134.336 129.975 119.089
137.971 125.928 117.473
137.956 130.766 116.111
134.574 138.751 116.4
132.055 138.225 117.126
131.93 129.924 118.067
133.92 125.277 119.351
135.351 121.415 119.18
137.734 121.558 117.617
137.427 117.116 116.916
139.072 121.829 115.151
133.117 122.033 117.482
136.478 114.746 114.295
139.057 113.283 114.042
128.033 135.533 97.9497
131.286 135.99 99.0998
128.687 139.071 98.1503
133.899 135.911 100.591
134.459 132.039 100.604
129.987 132.804 100.654
125.431 134.535 98.7577
126.504 141.359 99.5211
130.185 142.419 100.04
137.576 122.656 100.693
135.982 127.464 101.071
133.953 128.552 101.401
137.73 126.854 101.283
138.662 118.612 98.2945
136.842 119.946 100.814
132.179 129.329 102.182
140.239 127.259 111.646
139.772 130.411 109.616
140.932 125.654 109.081
139.169 133.497 107.555
138.656 135.306 110.105
139.074 129.762 113.751
140.048 124.079 113.215
141.53 121.183 108.391
141.269 124.795 106.346
140.583 127.388 104.569
138.983 132.52 105.378
138.845 130.785 103.561
137.677 137.366 105.568
141.398 122.236 103.773
138.822 128.347 102.087
136.728 134.346 102.322
130.051 127.518 113.777
130.859 126.863 111.176
129.17 130.639 111.498
132.008 127.859 108.823
132.858 123.766 110.727
131.732 124.478 115.425
130.439 129.334 115.958
127.888 134.183 111.503
127.991 133.42 108.724
127.939 133.503 105.932
130.751 130.41 106.492
128.281 132.665 104.011
133.485 126.693 106.842
125.43 135.705 105.815
125.927 133.67 101.675
130.447 130.682 103.33
134.489 143.436 108.306
132.535 144.928 110.423
131.418 146.2 106.476
130.808 143.893 112.356
134.03 142.111 113.664
137.051 139.868 109.628
136.221 140.99 106.514
131.082 144.982 102.81
128.244 146.139 104.679
127.022 144.067 106.374
128.768 143.039 110.217
126.652 141.138 108.268
130.274 140.686 114.022
125.968 143.169 102.607
125.222 138.674 106.851
127.125 137.937 110.363
140.953 111.864 101.695
140.681 109.685 106.679
141.989 113.91 104.609
139.815 111.144 110.765
137.835 110.933 108.754
138.865 114.567 102.383
140.55 115.837 98.4906
141.79 117.649 103.505
141.764 117.029 107.058
136.213 118.02 107.556
136.977 113.892 107.806
137.867 115.647 105.154
136.507 114.186 111.23
134.538 120.464 109.431
135.322 122.345 107.097
137.378 118.32 102.967
137.795 134.195 114.337
136.127 138.763 114.127
137.38 137.47 111.99
135.576 140.478 103.954
132.988 142.001 102.035
134.651 138.224 101.713
140.428 114.913 111.711
140.314 119.448 112.819
141.185 117.566 109.826
141.439 119.217 101.219
140.065 122.8 100.772
141.74 118.166 98.0262
130.094 137.156 115.59
130.084 133.128 116.353
128.414 135.969 113.403
124.278 137.969 103.858
123.456 135.64 100.038
124.52 139.577 100.887
133.41 120.112 111.741
133.066 120.4 114.95
134.857 117.342 113.456
136.502 122.174 103.527
133.763 127.02 103.706
135.177 124.546 105.381
135.64 132.724 118.456
135.543 130.34 119.031
134.474 132.61 119.009
135.393 127.91 119.629
136.452 128.109 119.026
136.479 132.723 117.499
135.632 134.797 117.625
133.377 134.369 118.451
133.301 132.129 118.78
137.326 128.134 118.002
137.335 130.649 117.293
137.939 128.407 116.876
137.095 132.831 116.404
137.209 125.831 118.596
138.626 126.289 116.409
138.548 128.537 115.787
134.722 136.881 117.544
133.258 136.649 118.095
133.396 138.628 117.292
132.075 136.218 117.588
135.545 136.831 116.473
133.608 140.49 116.272
132.125 140.157 116.526
133.088 129.889 118.826
134.199 127.625 119.342
133.062 127.729 118.724
135.1 125.457 119.85
132.127 131.916 118.179
132.115 127.875 117.783
132.988 125.645 118.405
136.751 121.315 118.682
137.544 119.331 117.524
136.321 119.169 118.272
138.389 117.461 116.103
138.376 119.558 116.376
137.092 123.518 118.729
135.904 123.358 119.596
134.92 119.596 118.177
135.975 117.528 117.145
138.558 121.649 116.441
137.902 123.776 117.656
138.635 124.04 116.454
139.139 119.605 115.124
139.15 124.081 115.224
134.535 123.34 119.446
134.136 121.542 118.438
133.281 123.563 118.648
133.985 120.148 117.259
132.544 124.021 117.554
136.867 115.638 115.884
138.228 115.362 115.463
137.628 113.56 114.788
139.103 115.552 114.469
135.737 116.554 115.513
137.188 112.915 113.279
138.409 111.728 113.532
129.777 135.615 98.4536
130.019 137.432 98.3925
128.297 137.146 97.7577
130.345 139.204 98.7784
131.497 137.768 99.1296
131.319 134.308 99.4819
129.884 134.211 99.0949
126.484 136.711 97.6118
126.983 138.425 97.827
132.602 136.079 99.7383
132.682 134.213 99.8766
133.974 134.126 100.363
133.179 132.357 100.378
132.887 137.835 100.05
135.081 133.853 101.088
135.462 131.837 101.089
128.558 134.155 99.0911
126.532 135.157 98.0775
127.468 134.082 99.4209
124.8 136.18 98.0514
130.772 132.93 100.453
129.184 132.67 100.923
127.128 133.713 100.227
127.638 140.239 98.5242
129.512 140.757 98.8574
128.312 141.958 99.404
131.034 140.933 99.7107
126.059 139.675 98.5626
127.315 143.1 100.228
129.134 143.608 100.414
137.005 125.108 101.257
134.875 128.21 101.188
136.066 125.769 101.682
132.756 130.779 100.683
133.909 130.359 100.746
137.725 124.481 100.819
138.337 122.05 99.8203
136.737 123.605 101.568
135.224 126.301 102.07
134.832 130.092 100.874
136.815 127.185 101.237
136.011 129.645 101.241
138.418 124.239 100.802
136.85 129.563 101.411
138.151 120.482 99.2422
137.436 121.173 100.517
137.511 119.061 99.4252
136.716 122.168 101.644
139.272 120.075 98.3235
138.255 117.333 99.1475
137.212 118.099 100.53
133.216 128.768 101.775
131.864 130.822 100.844
131.078 130.9 101.251
134.016 127.119 102.436
130.335 131.082 101.834
140.045 128.908 110.649
140.514 128.106 109.365
140.598 126.436 110.356
140.719 127.463 108.098
140.154 129.555 108.373
139.411 131.231 110.923
139.656 129.83 111.809
140.636 124.794 111.268
141.018 124.04 110.088
139.551 131.922 108.595
139.202 132.695 109.957
139.134 134.164 108.946
138.878 133.939 111.077
139.63 131.136 107.371
138.673 135.539 107.766
138.452 136.429 108.982
139.738 128.521 112.728
140.18 125.636 112.412
139.832 127.021 113.643
140.518 123.063 112.003
139.009 131.156 112.836
139.18 128.132 114.602
139.508 125.266 114.219
141.425 123.46 108.869
141.023 125.262 107.759
141.644 123.175 107.492
140.74 126.901 106.778
141.261 121.597 109.669
141.579 121.036 107.023
141.588 122.687 106.066
139.883 129.945 105.074
138.794 131.76 104.466
139.961 129.071 103.933
137.93 133.556 103.698
138.294 134.501 104.452
139.645 130.641 106.119
140.455 128.35 105.778
140.588 126.487 103.446
139.851 127.844 103.064
138.426 135.107 105.416
139.032 132.871 106.397
138.608 135.341 106.56
137.413 136.872 104.559
137.939 137.449 106.714
140.956 126.19 105.429
141.122 125.007 104.038
141.545 123.832 104.953
141.188 123.557 103.066
141.424 121.311 104.808
138.902 129.616 102.753
137.768 132.573 103.022
137.697 131.287 102.488
137.036 135.384 102.883
139.881 126.409 102.225
137.506 130.079 101.945
136.445 132.889 102.022
130.223 127.079 112.346
130.045 128.872 111.354
129.498 129.022 112.631
129.711 130.489 110.192
130.466 128.861 110.149
131.258 125.183 112.248
130.951 125.642 113.358
129.398 129.643 113.892
128.901 130.902 112.846
131.407 127.315 109.937
131.827 125.28 111.044
132.45 125.832 109.886
132.231 123.405 111.917
130.952 129.241 108.9
133.027 126.331 108.768
133.452 124.334 109.662
130.998 126.013 114.603
130.059 128.334 114.93
130.976 126.944 115.782
129.588 130.616 115.049
131.832 123.92 114.151
131.854 125.189 116.461
131.275 127.695 116.773
128.477 132.334 111.647
128.823 132.116 110.182
127.91 133.533 110.248
129.109 132.274 108.782
128.41 132.961 112.854
127.251 135.126 110.028
127.08 134.641 108.7
129.643 132.263 106.365
129.984 131.732 105.249
128.197 133.246 104.877
130.227 131.032 104.546
131.151 129.853 105.508
130.375 130.772 107.611
129.161 132.354 107.388
126.524 134.409 104.531
126.442 133.932 103.494
132.024 128.688 106.526
131.486 129.312 107.696
132.653 127.583 107.672
132.777 127.675 105.862
134.016 125.685 107.9
128.028 133.422 107.337
126.75 134.704 105.738
126.954 134.683 107.224
125.09 135.475 104.376
125.996 135.821 107.265
127.115 133.215 102.925
129.31 131.787 103.593
128.134 132.465 102.477
131.123 129.52 104.17
125.021 134.429 102.085
127.205 133.131 101.357
129.592 131.654 102.393
133.401 144.337 109.19
132.041 145.724 108.469
132.951 144.932 107.546
130.501 146.679 107.615
131.016 145.868 109.529
134.088 143.594 110.901
134.868 142.843 109.919
133.895 143.87 106.676
132.424 145.01 105.829
131.602 144.755 111.474
133.436 143.746 112.149
132.599 143.6 113.392
134.632 142.192 112.365
130.123 145.065 110.381
131.493 142.856 113.959
133.273 142.103 114.771
135.694 141.779 108.99
135.333 142.414 107.357
136.672 140.687 108.106
134.935 142.614 105.926
136.21 140.989 110.426
137.629 138.761 108.755
137.281 139.44 107.192
131.244 145.801 104.593
129.962 146.717 105.534
129.642 146.15 103.492
128.834 146.391 106.665
132.236 144.415 104.043
129.603 145.091 101.77
127.912 145.621 102.77
127.826 143.753 108.377
127.836 142.055 109.135
126.661 142.712 107.498
127.746 140.65 110.125
128.594 141.313 110.95
129.051 144.508 109.306
128.094 145.102 107.389
126.034 142.691 105.604
125.851 141.426 106.523
129.487 141.917 111.924
129.836 143.607 111.157
130.497 142.348 113.056
129.405 140.27 112.875
131.164 141.214 115.002
127.482 145.335 105.556
126.362 143.81 104.528
126.837 144.926 103.522
125.501 142.205 103.633
126.751 144.105 101.718
125.961 139.995 107.404
127.02 139.602 109.29
126.268 138.426 108.546
127.883 139 111.049
125.198 140.017 105.689
125.804 137.318 107.83
126.699 136.901 109.524
141.301 110.57 104.024
141.624 111.871 105.313
142.048 112.613 103.07
141.595 113.318 106.551
141.122 111.27 107.403
139.546 110.199 105.426
139.781 111.527 103.501
142.254 113.202 100.755
142.169 114.512 102.443
140.353 110.082 108.776
138.81 109.323 107.467
138.572 109.533 109.817
138.402 110.937 106.876
140.641 112.086 109.52
138.844 110.342 111.72
137.579 111.033 110.597
139.701 113.038 101.891
140.76 113.464 100.065
139.766 114.717 100.365
141.785 114.779 99.0515
138.995 113.112 103.717
138.515 115.755 101.42
139.165 116.037 99.249
141.728 115.646 104.12
141.913 115.233 106.047
141.945 117.395 105.367
141.562 114.989 107.655
141.94 116.261 102.271
141.757 119.02 104.6
142.002 118.776 106.508
136.754 115.9 107.615
137.435 114.505 106.404
137.092 116.658 106.346
138.328 113.704 105.179
137.812 112.523 106.59
136.306 115.547 108.92
135.803 117.213 108.722
136.705 118.767 106.48
137.328 117.756 105.321
137.521 112.376 108.2
136.527 114.1 109.457
137.045 112.515 109.972
135.944 115.569 110.631
137.066 112.831 111.719
135.311 119.104 108.535
135.865 120.069 107.376
135.03 121.256 108.266
136.189 121.014 106.407
134.706 118.485 109.763
134.419 122.513 109.145
134.798 123.483 108.029
137.737 116.979 104.064
138.376 114.861 103.873
138.057 116.275 102.741
137.238 118.915 104.278
137.491 117.506 101.733
136.908 136.426 114.278
136.812 138.105 113.108
137.574 135.755 113.142
136.521 139.682 111.799
135.82 140.302 112.833
136.265 136.793 115.298
137.124 134.715 115.41
138.314 133.672 113.064
138.183 135.174 112.118
135.166 140.571 113.9
135.508 138.653 115.357
134.428 140.501 115.175
137.912 132.611 115.32
138.472 132.117 113.987
138.464 130.311 114.868
138.024 136.319 111.069
137.253 138.798 110.874
137.819 137.592 109.894
134.284 141.308 103.061
134.06 140.228 101.632
135.33 139.351 102.751
133.459 139.095 100.646
132.617 140.795 100.803
133.297 142.96 103.525
134.512 142.056 104.544
136.41 138.525 103.587
135.874 137.397 102.691
131.699 142.251 100.881
132.074 143.521 102.475
130.688 143.786 101.293
135.878 141.036 105.218
136.745 139.044 104.643
137.015 139.32 105.908
135.737 136.125 102.018
134.298 137.023 101.054
135.537 134.995 101.309
140.412 117.175 112.339
140.741 118.509 111.315
140.794 116.162 110.692
141.191 119.746 110.454
140.653 120.676 111.765
139.76 118.339 113.739
139.886 116.157 113.279
140.922 113.948 110.093
141.297 115.341 109.137
140.194 121.663 112.935
139.682 120.49 114.02
139.667 122.855 114.141
139.632 114.218 113.011
140.335 112.981 111.356
139.581 112.084 112.608
141.512 117.156 108.443
141.567 119.423 109.194
141.792 119.143 107.756
140.731 120.995 100.903
140.801 120.025 99.4685
141.684 118.351 99.7242
140.469 119.993 98.5681
139.505 122.081 100.38
140.284 124.211 101.536
141.007 122.144 101.901
141.866 116.902 100.786
142.187 116.502 98.9588
139.013 124.642 101.083
139.445 125.774 101.605
138.217 127.613 101.508
141.165 121.143 102.597
141.673 118.475 102.275
141.432 120.031 103.656
141.41 116.864 97.2992
140.142 119.029 97.757
139.219 117.185 98.2056
130.08 135.158 116.058
129.273 134.607 114.941
129.158 136.614 114.57
128.674 134.033 113.855
129.354 132.726 115.185
131.052 133.556 117.294
131.046 135.701 116.958
129.399 138.422 113.998
128.489 137.847 112.908
130.061 131.206 116.203
130.996 131.627 117.319
131.078 129.525 117.092
131.035 137.663 116.361
130.126 139.078 114.767
130.987 139.58 115.903
127.86 137.189 111.87
128.074 135.056 112.49
127.608 136.066 110.933
123.853 137.133 101.729
123.894 137.775 100.437
124.24 138.757 102.293
124.529 138.841 99.2568
123.945 136.861 98.9051
123.802 135.432 101.43
124.282 136.433 103.13
124.611 139.532 104.133
124.81 140.453 102.74
123.999 134.745 98.9808
124.409 134.31 100.693
125.745 133.79 100.279
124.309 136.548 104.877
124.645 138.349 105.387
125.085 136.951 106.531
125.314 141.372 101.871
125.193 140.438 99.9321
126.007 142.465 100.891
133.188 120.064 113.341
133.929 118.838 114.29
134.015 118.617 112.624
134.799 117.667 115.149
133.881 119.346 115.911
132.469 121.646 113.923
132.662 121.517 112.483
134.319 118.549 111.134
134.915 117.176 111.771
132.994 121.08 116.218
132.419 122.496 115.079
132.367 123.12 116.402
132.994 121.913 111.233
133.906 120.201 110.467
133.79 122.33 110.157
135.758 115.973 112.201
135.621 116.184 113.952
136.503 114.524 112.771
135.323 124.593 103.726
134.488 125.74 104.508
135.789 123.291 104.586
133.757 126.736 105.181
132.792 127.872 104.268
134.794 125.957 103.113
136.092 123.396 102.848
136.762 120.93 104.38
136.157 122.131 105.455
131.854 128.7 103.399
132.909 127.921 102.817
131.179 129.938 102.677
136.605 121.451 102.311
137.002 120.214 103.217
137.012 119.378 101.9
135.537 123.425 106.276
134.297 125.762 106.04
134.833 124.74 107.105
POLYGONS 1280  5120
3 164 162 163
3 163 44 164
3 162 43 163
3 164 42 162
3 166 165 163
3 163 43 166
3 165 44 163
3 166 14 165
3 168 167 162
3 162 42 168
3 167 43 162
3 168 13 167
3 170 169 164
3 164 44 170
3 169 42 164
3 170 12 169
3 173 171 172
3 172 46 173
3 171 43 172
3 173 45 171
3 167 174 172
3 172 43 167
3 174 46 172
3 167 13 174
3 175 166 171
3 171 45 175
3 166 43 171
3 175 14 166
3 177 176 173
3 173 46 177
3 176 45 173
3 177 4 176
3 180 178 179
3 179 48 180
3 178 42 179
3 180 47 178
3 169 181 179
3 179 42 169
3 181 48 179
3 169 12 181
3 182 168 178
3 178 47 182
3 168 42 178
3 182 13 168
3 184 183 180
3 180 48 184
3 183 47 180
3 184 8 183
3 187 185 186
3 186 50 187
3 185 44 186
3 187 49 185
3 165 188 186
3 186 44 165
3 188 50 186
3 165 14 188
3 189 170 185
3 185 49 189
3 170 44 185
3 189 12 170
3 191 190 187
3 187 50 191
3 190 49 187
3 191 7 190
3 194 192 193
3 193 53 194
3 192 52 193
3 194 51 192
3 196 195 193
3 193 52 196
3 195 53 193
3 196 16 195
3 198 197 192
3 192 51 198
3 197 52 192
3 198 14 197
3 200 199 194
3 194 53 200
3 199 51 194
3 200 15 199
3 203 201 202
3 202 45 203
3 201 52 202
3 203 54 201
3 197 175 202
3 202 52 197
3 175 45 202
3 197 14 175
3 204 196 201
3 201 54 204
3 196 52 201
3 204 16 196
3 176 205 203
3 203 45 176
3 205 54 203
3 176 4 205
3 208 206 207
3 207 55 208
3 206 51 207
3 208 50 206
3 199 209 207
3 207 51 199
3 209 55 207
3 199 15 209
3 188 198 206
3 206 50 188
3 198 51 206
3 188 14 198
3 210 191 208
3 208 55 210
3 191 50 208
3 210 7 191
3 213 211 212
3 212 57 213
3 211 53 212
3 213 56 211
3 195 214 212
3 212 53 195
3 214 57 212
3 195 16 214
3 215 200 211
3 211 56 215
3 200 53 211
3 215 15 200
3 217 216 213
3 213 57 217
3 216 56 213
3 217 9 216
3 220 218 219
3 219 60 220
3 218 59 219
3 220 58 218
3 222 221 219
3 219 59 222
3 221 60 219
3 222 19 221
3 224 223 218
3 218 58 224
3 223 59 218
3 224 18 223
3 226 225 220
3 220 60 226
3 225 58 220
3 226 17 225
3 229 227 228
3 228 62 229
3 227 59 228
3 229 61 227
3 223 230 228
3 228 59 223
3 230 62 228
3 223 18 230
3 231 222 227
3 227 61 231
3 222 59 227
3 231 19 222
3 233 232 229
3 229 62 233
3 232 61 229
3 233 5 232
3 236 234 235
3 235 64 236
3 234 58 235
3 236 63 234
3 225 237 235
3 235 58 225
3 237 64 235
3 225 17 237
3 238 224 234
3 234 63 238
3 224 58 234
3 238 18 224
3 240 239 236
3 236 64 240
3 239 63 236
3 240 6 239
3 243 241 242
3 242 66 243
3 241 60 242
3 243 65 241
3 221 244 242
3 242 60 221
3 244 66 242
3 221 19 244
3 245 226 241
3 241 65 245
3 226 60 241
3 245 17 226
3 247 246 243
3 243 66 247
3 246 65 243
3 247 11 246
3 250 248 249
3 249 69 250
3 248 68 249
3 250 67 248
3 252 251 249
3 249 68 252
3 251 69 249
3 252 18 251
3 254 253 248
3 248 67 254
3 253 68 248
3 254 21 253
3 256 255 250
3 250 69 256
3 255 67 250
3 256 20 255
3 259 257 258
3 258 70 259
3 257 68 258
3 259 62 257
3 253 260 258
3 258 68 253
3 260 70 258
3 253 21 260
3 230 252 257
3 257 62 230
3 252 68 257
3 230 18 252
3 261 233 259
3 259 70 261
3 233 62 259
3 261 5 233
3 264 262 263
3 263 72 264
3 262 67 263
3 264 71 262
3 255 265 263
3 263 67 255
3 265 72 263
3 255 20 265
3 266 254 262
3 262 71 266
3 254 67 262
3 266 21 254
3 268 267 264
3 264 72 268
3 267 71 264
3 268 10 267
3 271 269 270
3 270 63 271
3 269 69 270
3 271 73 269
3 251 238 270
3 270 69 251
3 238 63 270
3 251 18 238
3 272 256 269
3 269 73 272
3 256 69 269
3 272 20 256
3 239 273 271
3 271 63 239
3 273 73 271
3 239 6 273
3 276 274 275
3 275 76 276
3 274 75 275
3 276 74 274
3 278 277 275
3 275 75 278
3 277 76 275
3 278 24 277
3 280 279 274
3 274 74 280
3 279 75 274
3 280 23 279
3 282 281 276
3 276 76 282
3 281 74 276
3 282 22 281
3 285 283 284
3 284 78 285
3 283 75 284
3 285 77 283
3 279 286 284
3 284 75 279
3 286 78 284
3 279 23 286
3 287 278 283
3 283 77 287
3 278 75 283
3 287 24 278
3 289 288 285
3 285 78 289
3 288 77 285
3 289 0 288
3 292 290 291
3 291 80 292
3 290 74 291
3 292 79 290
3 281 293 291
3 291 74 281
3 293 80 291
3 281 22 293
3 294 280 290
3 290 79 294
3 280 74 290
3 294 23 280
3 296 295 292
3 292 80 296
3 295 79 292
3 296 4 295
3 299 297 298
3 298 82 299
3 297 76 298
3 299 81 297
3 277 300 298
3 298 76 277
3 300 82 298
3 277 24 300
3 301 282 297
3 297 81 301
3 282 76 297
3 301 22 282
3 303 302 299
3 299 82 303
3 302 81 299
3 303 3 302
3 306 304 305
3 305 85 306
3 304 84 305
3 306 83 304
3 308 307 305
3 305 84 308
3 307 85 305
3 308 26 307
3 310 309 304
3 304 83 310
3 309 84 304
3 310 24 309
3 312 311 306
3 306 85 312
3 311 83 306
3 312 25 311
3 315 313 314
3 314 77 315
3 313 84 314
3 315 86 313
3 309 287 314
3 314 84 309
3 287 77 314
3 309 24 287
3 316 308 313
3 313 86 316
3 308 84 313
3 316 26 308
3 288 317 315
3 315 77 288
3 317 86 315
3 288 0 317
3 320 318 319
3 319 87 320
3 318 83 319
3 320 82 318
3 311 321 319
3 319 83 311
3 321 87 319
3 311 25 321
3 300 310 318
3 318 82 300
3 310 83 318
3 300 24 310
3 322 303 320
3 320 87 322
3 303 82 320
3 322 3 303
3 325 323 324
3 324 89 325
3 323 85 324
3 325 88 323
3 307 326 324
3 324 85 307
3 326 89 324
3 307 26 326
3 327 312 323
3 323 88 327
3 312 85 323
3 327 25 312
3 329 328 325
3 325 89 329
3 328 88 325
3 329 5 328
3 332 330 331
3 331 92 332
3 330 91 331
3 332 90 330
3 334 333 331
3 331 91 334
3 333 92 331
3 334 29 333
3 336 335 330
3 330 90 336
3 335 91 330
3 336 28 335
3 338 337 332
3 332 92 338
3 337 90 332
3 338 27 337
3 341 339 340
3 340 94 341
3 339 91 340
3 341 93 339
3 335 342 340
3 340 91 335
3 342 94 340
3 335 28 342
3 343 334 339
3 339 93 343
3 334 91 339
3 343 29 334
3 345 344 341
3 341 94 345
3 344 93 341
3 345 2 344
3 348 346 347
3 347 96 348
3 346 90 347
3 348 95 346
3 337 349 347
3 347 90 337
3 349 96 347
3 337 27 349
3 350 336 346
3 346 95 350
3 336 90 346
3 350 28 336
3 352 351 348
3 348 96 352
3 351 95 348
3 352 7 351
3 355 353 354
3 354 98 355
3 353 92 354
3 355 97 353
3 333 356 354
3 354 92 333
3 356 98 354
3 333 29 356
3 357 338 353
3 353 97 357
3 338 92 353
3 357 27 338
3 359 358 355
3 355 98 359
3 358 97 355
3 359 1 358
3 362 360 361
3 361 101 362
3 360 100 361
3 362 99 360
3 364 363 361
3 361 100 364
3 363 101 361
3 364 31 363
3 366 365 360
3 360 99 366
3 365 100 360
3 366 29 365
3 368 367 362
3 362 101 368
3 367 99 362
3 368 30 367
3 371 369 370
3 370 93 371
3 369 100 370
3 371 102 369
3 365 343 370
3 370 100 365
3 343 93 370
3 365 29 343
3 372 364 369
3 369 102 372
3 364 100 369
3 372 31 364
3 344 373 371
3 371 93 344
3 373 102 371
3 344 2 373
3 376 374 375
3 375 103 376
3 374 99 375
3 376 98 374
3 367 377 375
3 375 99 367
3 377 103 375
3 367 30 377
3 356 366 374
3 374 98 356
3 366 99 374
3 356 29 366
3 378 359 376
3 376 103 378
3 359 98 376
3 378 1 359
3 381 379 380
3 380 105 381
3 379 101 380
3 381 104 379
3 363 382 380
3 380 101 363
3 382 105 380
3 363 31 382
3 383 368 379
3 379 104 383
3 368 101 379
3 383 30 368
3 385 384 381
3 381 105 385
3 384 104 381
3 385 6 384
3 388 386 387
3 387 108 388
3 386 107 387
3 388 106 386
3 390 389 387
3 387 107 390
3 389 108 387
3 390 34 389
3 392 391 386
3 386 106 392
3 391 107 386
3 392 33 391
3 394 393 388
3 388 108 394
3 393 106 388
3 394 32 393
3 397 395 396
3 396 110 397
3 395 107 396
3 397 109 395
3 391 398 396
3 396 107 391
3 398 110 396
3 391 33 398
3 399 390 395
3 395 109 399
3 390 107 395
3 399 34 390
3 401 400 397
3 397 110 401
3 400 109 397
3 401 8 400
3 404 402 403
3 403 112 404
3 402 106 403
3 404 111 402
3 393 405 403
3 403 106 393
3 405 112 403
3 393 32 405
3 406 392 402
3 402 111 406
3 392 106 402
3 406 33 392
3 408 407 404
3 404 112 408
3 407 111 404
3 408 0 407
3 411 409 410
3 410 114 411
3 409 108 410
3 411 113 409
3 389 412 410
3 410 108 389
3 412 114 410
3 389 34 412
3 413 394 409
3 409 113 413
3 394 108 409
3 413 32 394
3 415 414 411
3 411 114 415
3 414 113 411
3 415 11 414
3 418 416 417
3 417 117 418
3 416 116 417
3 418 115 416
3 420 419 417
3 417 116 420
3 419 117 417
3 420 36 419
3 422 421 416
3 416 115 422
3 421 116 416
3 422 34 421
3 424 423 418
3 418 117 424
3 423 115 418
3 424 35 423
3 427 425 426
3 426 109 427
3 425 116 426
3 427 118 425
3 421 399 426
3 426 116 421
3 399 109 426
3 421 34 399
3 428 420 425
3 425 118 428
3 420 116 425
3 428 36 420
3 400 429 427
3 427 109 400
3 429 118 427
3 400 8 429
3 432 430 431
3 431 119 432
3 430 115 431
3 432 114 430
3 423 433 431
3 431 115 423
3 433 119 431
3 423 35 433
3 412 422 430
3 430 114 412
3 422 115 430
3 412 34 422
3 434 415 432
3 432 119 434
3 415 114 432
3 434 11 415
3 437 435 436
3 436 121 437
3 435 117 436
3 437 120 435
3 419 438 436
3 436 117 419
3 438 121 436
3 419 36 438
3 439 424 435
3 435 120 439
3 424 117 435
3 439 35 424
3 441 440 437
3 437 121 441
3 440 120 437
3 441 1 440
3 444 442 443
3 443 124 444
3 442 123 443
3 444 122 442
3 446 445 443
3 443 123 446
3 445 124 443
3 446 39 445
3 448 447 442
3 442 122 448
3 447 123 442
3 448 38 447
3 450 449 444
3 444 124 450
3 449 122 444
3 450 37 449
3 453 451 452
3 452 126 453
3 451 123 452
3 453 125 451
3 447 454 452
3 452 123 447
3 454 126 452
3 447 38 454
3 455 446 451
3 451 125 455
3 446 123 451
3 455 39 446
3 457 456 453
3 453 126 457
3 456 125 453
3 457 9 456
3 460 458 459
3 459 128 460
3 458 122 459
3 460 127 458
3 449 461 459
3 459 122 449
3 461 128 459
3 449 37 461
3 462 448 458
3 458 127 462
3 448 122 458
3 462 38 448
3 464 463 460
3 460 128 464
3 463 127 460
3 464 10 463
3 467 465 466
3 466 130 467
3 465 124 466
3 467 129 465
3 445 468 466
3 466 124 445
3 468 130 466
3 445 39 468
3 469 450 465
3 465 129 469
3 450 124 465
3 469 37 450
3 471 470 467
3 467 130 471
3 470 129 467
3 471 3 470
3 474 472 473
3 473 133 474
3 472 132 473
3 474 131 472
3 476 475 473
3 473 132 476
3 475 133 473
3 476 38 475
3 478 477 472
3 472 131 478
3 477 132 472
3 478 41 477
3 480 479 474
3 474 133 480
3 479 131 474
3 480 40 479
3 483 481 482
3 482 134 483
3 481 132 482
3 483 126 481
3 477 484 482
3 482 132 477
3 484 134 482
3 477 41 484
3 454 476 481
3 481 126 454
3 476 132 481
3 454 38 476
3 485 457 483
3 483 134 485
3 457 126 483
3 485 9 457
3 488 486 487
3 487 136 488
3 486 131 487
3 488 135 486
3 479 489 487
3 487 131 479
3 489 136 487
3 479 40 489
3 490 478 486
3 486 135 490
3 478 131 486
3 490 41 478
3 492 491 488
3 488 136 492
3 491 135 488
3 492 2 491
3 495 493 494
3 494 127 495
3 493 133 494
3 495 137 493
3 475 462 494
3 494 133 475
3 462 127 494
3 475 38 462
3 496 480 493
3 493 137 496
3 480 133 493
3 496 40 480
3 463 497 495
3 495 127 463
3 497 137 495
3 463 10 497
3 500 498 499
3 499 140 500
3 498 139 499
3 500 138 498
3 502 501 499
3 499 139 502
3 501 140 499
3 502 33 501
3 504 503 498
3 498 138 504
3 503 139 498
3 504 13 503
3 506 505 500
3 500 140 506
3 505 138 500
3 506 23 505
3 509 507 508
3 508 47 509
3 507 139 508
3 509 110 507
3 503 182 508
3 508 139 503
3 182 47 508
3 503 13 182
3 398 502 507
3 507 110 398
3 502 139 507
3 398 33 502
3 183 401 509
3 509 47 183
3 401 110 509
3 183 8 401
3 512 510 511
3 511 79 512
3 510 138 511
3 512 46 510
3 505 294 511
3 511 138 505
3 294 79 511
3 505 23 294
3 174 504 510
3 510 46 174
3 504 138 510
3 174 13 504
3 295 177 512
3 512 79 295
3 177 46 512
3 295 4 177
3 515 513 514
3 514 111 515
3 513 140 514
3 515 78 513
3 501 406 514
3 514 140 501
3 406 111 514
3 501 33 406
3 286 506 513
3 513 78 286
3 506 140 513
3 286 23 506
3 407 289 515
3 515 111 407
3 289 78 515
3 407 0 289
3 518 516 517
3 517 143 518
3 516 142 517
3 518 141 516
3 520 519 517
3 517 142 520
3 519 143 517
3 520 19 519
3 522 521 516
3 516 141 522
3 521 142 516
3 522 32 521
3 524 523 518
3 518 143 524
3 523 141 518
3 524 26 523
3 527 525 526
3 526 113 527
3 525 142 526
3 527 66 525
3 521 413 526
3 526 142 521
3 413 113 526
3 521 32 413
3 244 520 525
3 525 66 244
3 520 142 525
3 244 19 520
3 414 247 527
3 527 113 414
3 247 66 527
3 414 11 247
3 530 528 529
3 529 86 530
3 528 141 529
3 530 112 528
3 523 316 529
3 529 141 523
3 316 86 529
3 523 26 316
3 405 522 528
3 528 112 405
3 522 141 528
3 405 32 522
3 317 408 530
3 530 86 317
3 408 112 530
3 317 0 408
3 533 531 532
3 532 61 533
3 531 143 532
3 533 89 531
3 519 231 532
3 532 143 519
3 231 61 532
3 519 19 231
3 326 524 531
3 531 89 326
3 524 143 531
3 326 26 524
3 232 329 533
3 533 61 232
3 329 89 533
3 232 5 329
3 536 534 535
3 535 146 536
3 534 145 535
3 536 144 534
3 538 537 535
3 535 145 538
3 537 146 535
3 538 22 537
3 540 539 534
3 534 144 540
3 539 145 534
3 540 16 539
3 542 541 536
3 536 146 542
3 541 144 536
3 542 39 541
3 545 543 544
3 544 54 545
3 543 145 544
3 545 80 543
3 539 204 544
3 544 145 539
3 204 54 544
3 539 16 204
3 293 538 543
3 543 80 293
3 538 145 543
3 293 22 538
3 205 296 545
3 545 54 205
3 296 80 545
3 205 4 296
3 548 546 547
3 547 125 548
3 546 144 547
3 548 57 546
3 541 455 547
3 547 144 541
3 455 125 547
3 541 39 455
3 214 540 546
3 546 57 214
3 540 144 546
3 214 16 540
3 456 217 548
3 548 125 456
3 217 57 548
3 456 9 217
3 551 549 550
3 550 81 551
3 549 146 550
3 551 130 549
3 537 301 550
3 550 146 537
3 301 81 550
3 537 22 301
3 468 542 549
3 549 130 468
3 542 146 549
3 468 39 542
3 302 471 551
3 551 81 302
3 471 130 551
3 302 3 471
3 554 552 553
3 553 149 554
3 552 148 553
3 554 147 552
3 556 555 553
3 553 148 556
3 555 149 553
3 556 21 555
3 558 557 552
3 552 147 558
3 557 148 552
3 558 25 557
3 560 559 554
3 554 149 560
3 559 147 554
3 560 37 559
3 563 561 562
3 562 88 563
3 561 148 562
3 563 70 561
3 557 327 562
3 562 148 557
3 327 88 562
3 557 25 327
3 260 556 561
3 561 70 260
3 556 148 561
3 260 21 556
3 328 261 563
3 563 88 328
3 261 70 563
3 328 5 261
3 566 564 565
3 565 129 566
3 564 147 565
3 566 87 564
3 559 469 565
3 565 147 559
3 469 129 565
3 559 37 469
3 321 558 564
3 564 87 321
3 558 147 564
3 321 25 558
3 470 322 566
3 566 129 470
3 322 87 566
3 470 3 322
3 569 567 568
3 568 71 569
3 567 149 568
3 569 128 567
3 555 266 568
3 568 149 555
3 266 71 568
3 555 21 266
3 461 560 567
3 567 128 461
3 560 149 567
3 461 37 560
3 267 464 569
3 569 71 267
3 464 128 569
3 267 10 464
3 572 570 571
3 571 152 572
3 570 151 571
3 572 150 570
3 574 573 571
3 571 151 574
3 573 152 571
3 574 27 573
3 576 575 570
3 570 150 576
3 575 151 570
3 576 12 575
3 578 577 572
3 572 152 578
3 577 150 572
3 578 36 577
3 581 579 580
3 580 49 581
3 579 151 580
3 581 96 579
3 575 189 580
3 580 151 575
3 189 49 580
3 575 12 189
3 349 574 579
3 579 96 349
3 574 151 579
3 349 27 574
3 190 352 581
3 581 49 190
3 352 96 581
3 190 7 352
3 584 582 583
3 583 118 584
3 582 150 583
3 584 48 582
3 577 428 583
3 583 150 577
3 428 118 583
3 577 36 428
3 181 576 582
3 582 48 181
3 576 150 582
3 181 12 576
3 429 184 584
3 584 118 429
3 184 48 584
3 429 8 184
3 587 585 586
3 586 97 587
3 585 152 586
3 587 121 585
3 573 357 586
3 586 152 573
3 357 97 586
3 573 27 357
3 438 578 585
3 585 121 438
3 578 152 585
3 438 36 578
3 358 441 587
3 587 97 358
3 441 121 587
3 358 1 441
3 590 588 589
3 589 155 590
3 588 154 589
3 590 153 588
3 592 591 589
3 589 154 592
3 591 155 589
3 592 17 591
3 594 593 588
3 588 153 594
3 593 154 588
3 594 30 593
3 596 595 590
3 590 155 596
3 595 153 590
3 596 35 595
3 599 597 598
3 598 104 599
3 597 154 598
3 599 64 597
3 593 383 598
3 598 154 593
3 383 104 598
3 593 30 383
3 237 592 597
3 597 64 237
3 592 154 597
3 237 17 592
3 384 240 599
3 599 104 384
3 240 64 599
3 384 6 240
3 602 600 601
3 601 120 602
3 600 153 601
3 602 103 600
3 595 439 601
3 601 153 595
3 439 120 601
3 595 35 439
3 377 594 600
3 600 103 377
3 594 153 600
3 377 30 594
3 440 378 602
3 602 120 440
3 378 103 602
3 440 1 378
3 605 603 604
3 604 65 605
3 603 155 604
3 605 119 603
3 591 245 604
3 604 155 591
3 245 65 604
3 591 17 245
3 433 596 603
3 603 119 433
3 596 155 603
3 433 35 596
3 246 434 605
3 605 65 246
3 434 119 605
3 246 11 434
3 608 606 607
3 607 158 608
3 606 157 607
3 608 156 606
3 610 609 607
3 607 157 610
3 609 158 607
3 610 15 609
3 612 611 606
3 606 156 612
3 611 157 606
3 612 28 611
3 614 613 608
3 608 158 614
3 613 156 608
3 614 41 613
3 617 615 616
3 616 95 617
3 615 157 616
3 617 55 615
3 611 350 616
3 616 157 611
3 350 95 616
3 611 28 350
3 209 610 615
3 615 55 209
3 610 157 615
3 209 15 610
3 351 210 617
3 617 95 351
3 210 55 617
3 351 7 210
3 620 618 619
3 619 135 620
3 618 156 619
3 620 94 618
3 613 490 619
3 619 156 613
3 490 135 619
3 613 41 490
3 342 612 618
3 618 94 342
3 612 156 618
3 342 28 612
3 491 345 620
3 620 135 491
3 345 94 620
3 491 2 345
3 623 621 622
3 622 56 623
3 621 158 622
3 623 134 621
3 609 215 622
3 622 158 609
3 215 56 622
3 609 15 215
3 484 614 621
3 621 134 484
3 614 158 621
3 484 41 614
3 216 485 623
3 623 56 216
3 485 134 623
3 216 9 485
3 626 624 625
3 625 161 626
3 624 160 625
3 626 159 624
3 628 627 625
3 625 160 628
3 627 161 625
3 628 31 627
3 630 629 624
3 624 159 630
3 629 160 624
3 630 20 629
3 632 631 626
3 626 161 632
3 631 159 626
3 632 40 631
3 635 633 634
3 634 73 635
3 633 160 634
3 635 105 633
3 629 272 634
3 634 160 629
3 272 73 634
3 629 20 272
3 382 628 633
3 633 105 382
3 628 160 633
3 382 31 628
3 273 385 635
3 635 73 273
3 385 105 635
3 273 6 385
3 638 636 637
3 637 137 638
3 636 159 637
3 638 72 636
3 631 496 637
3 637 159 631
3 496 137 637
3 631 40 496
3 265 630 636
3 636 72 265
3 630 159 636
3 265 20 630
3 497 268 638
3 638 137 497
3 268 72 638
3 497 10 268
3 641 639 640
3 640 102 641
3 639 161 640
3 641 136 639
3 627 372 640
3 640 161 627
3 372 102 640
3 627 31 372
3 489 632 639
3 639 136 489
3 632 161 639
3 489 40 632
3 373 492 641
3 641 102 373
3 492 136 641
3 373 2 492
