# vtk DataFile Version 3.0
this file was written using fslvtkio
ASCII
DATASET POLYDATA
POINTS 642 float
111.241 117.325 109.933
96.2838 111.719 107.765
92.6874 97.8774 102.133
108.846 102.892 106.14
106.431 106.975 116.037
109.312 110.469 100.098
98.9057 107.135 98.9943
95.7395 104.046 114.914
101.476 118.962 115.828
100.763 95.6487 107.816
101.524 96.0271 96.705
104.497 122.106 103.984
98.0395 112.034 117.194
104.216 113.38 117.439
100.598 104.992 117.125
97.468 98.4914 112.777
103.916 100.289 112.994
102.575 114.812 102.213
104.264 108.967 99.3635
108.657 118.848 101.121
99.1422 100.633 96.8999
105.209 102.522 99.4469
108.656 104.47 111.468
109.182 113.109 114.301
111.601 110.303 108.025
110.316 106.19 102.533
111.594 116.619 104.13
95.222 108.543 112.067
93.346 99.7857 109.296
93.8922 104.28 105.003
97.5397 110.173 103.118
95.2676 101.422 99.4174
109.51 123.322 106.499
107.37 120.093 113.623
103.017 122.556 110.407
100.011 117.811 106.797
97.4504 116.55 112.664
106.343 97.412 101.211
99.3807 93.4267 101.132
105.976 96.8398 107.15
94.4077 95.5607 95.7652
95.3042 94.9564 104.459
101.057 113.005 118.051
102.447 109.149 117.808
99.2073 108.411 117.954
103.613 105.871 116.812
105.533 110.356 117.266
103.094 116.487 116.991
99.5017 115.641 116.915
96.852 108.083 116.468
97.8317 103.957 116.68
99.0631 101.303 115.576
102.493 102.603 115.568
100.742 99.135 113.304
105.41 103.443 114.608
96.0026 100.588 114.188
99.2268 97.1642 110.342
102.599 97.8415 110.604
103.594 112.168 100.57
106.694 114.248 100.381
105.373 117.125 101.145
109.144 114.791 100.311
106.801 109.824 99.8256
101.624 108.079 98.9879
100.897 110.733 101.157
103.547 118.599 102.95
106.529 121.023 101.903
102.249 101.396 97.7626
104.88 105.906 98.924
101.827 104.825 97.7822
107.5 106.231 99.8356
103.883 99.0844 97.6493
100.252 98.2388 95.7081
99.1407 104.099 97.7031
109.427 108.773 113.13
110.994 111.506 111.407
110.652 107.291 110.152
111.566 113.806 108.951
110.511 115.135 112.342
108.059 110.09 115.564
107.86 105.468 113.91
108.973 103.553 108.796
111.078 106.523 107.242
111.277 108.489 105.192
111.665 113.382 106.013
111.267 111.453 103.336
111.621 117.26 106.907
109.918 104.302 104.368
110.276 108.249 100.97
110.948 113.671 101.762
94.1749 104.107 110.857
93.3262 102.244 107.399
94.7363 106.188 108.713
93.2298 101.054 103.793
92.9592 98.774 105.884
94.184 101.85 112.333
95.2684 106.643 113.838
95.5997 110.085 109.836
95.4158 107.695 106.451
95.6201 106.914 103.89
94.0587 102.795 101.956
95.6218 105.789 100.893
93.394 99.353 99.998
96.7339 110.949 105.225
98.3296 108.598 101.316
96.648 104.499 98.635
108.892 121.972 110.349
105.308 122.25 112.359
106.539 123.663 107.861
101.755 121.385 113.676
104.559 119.611 115.194
109.963 118.877 112.194
110.967 120.526 108.576
107.495 123.841 103.799
103.727 122.79 106.839
101.287 120.939 108.528
99.8084 120.243 111.971
98.5974 117.536 109.711
98.744 118.071 114.825
102.213 119.824 105.357
97.8406 114.815 107.201
96.8237 114.14 110.266
103.625 94.2345 100.906
103.103 94.5272 103.943
106.645 96.3619 103.878
103.487 95.9482 107.653
100.26 94.3181 104.497
100.831 94.0523 98.5921
104.382 96.559 98.688
107.642 100.273 103.924
107.592 99.3788 106.636
94.0245 94.2041 99.6736
97.1903 93.7701 102.909
96.8319 93.7699 98.24
97.9265 95.2111 106.645
93.4631 95.9908 103.325
92.7442 96.4757 98.4203
97.9675 95.3085 95.89
107.101 113.458 116.506
106.102 117.046 116.08
108.777 116.962 114.435
111.055 120.357 105.439
109.485 122.218 103.065
110.727 117.506 101.892
105.217 98.4574 110.06
106.503 101.91 112.264
107.418 100.573 109.237
108.056 101.987 102.349
108.32 104.321 100.717
105.998 99.8772 100.041
97.1743 114.653 115.256
96.0118 110.469 114.974
96.0238 112.666 112.389
98.546 114.181 104.953
99.7432 112.648 102.529
101.12 116.546 104.182
94.3936 97.1548 107.025
94.8789 98.7837 111.523
96.652 96.7088 108.923
96.9285 97.8199 95.0845
96.7907 100.71 97.7023
93.6015 98.5323 96.6436
101.657 111.039 118.096
100.831 108.978 118.094
100.139 110.688 118.269
99.9968 106.887 117.783
101.375 107.215 117.636
103.101 111.273 117.802
102.576 112.891 117.844
99.5236 112.264 117.922
98.7548 110.35 117.854
102.903 107.432 117.467
103.933 109.805 117.616
104.461 108.072 117.27
104.678 111.76 117.491
102.021 105.565 117.092
105.03 106.538 116.603
105.832 108.511 116.856
102.154 114.628 117.735
100.135 114.251 117.845
101.265 115.976 117.34
98.7528 113.83 117.26
103.654 114.887 117.271
102.164 117.697 116.699
100.497 117.268 116.655
97.9579 108.388 117.415
98.5651 106.264 117.578
97.3194 106.071 116.877
99.216 104.778 117.15
97.4221 110.125 117.102
96.316 106.016 115.932
96.737 104.15 116.008
100.792 101.884 115.672
101.57 100.737 114.62
99.9571 100.173 114.526
102.306 99.8692 113.451
103.024 101.263 114.418
101.507 103.67 116.452
99.8994 103.097 116.393
98.3153 99.725 114.441
99.0941 98.8554 113.366
103.962 102.848 115.108
103.053 104.264 116.371
104.753 104.723 115.906
104.505 101.724 113.924
105.975 105.23 115.504
98.5718 102.678 116.35
97.4957 100.8 115.142
96.8805 102.318 115.71
96.795 99.4436 113.753
95.8586 102.295 114.717
99.8707 98.1676 112.002
101.766 98.6223 112.101
100.915 97.5989 110.631
103.178 99.0439 112.008
98.3753 97.8449 111.681
100.173 96.407 109.269
101.685 96.6604 109.463
105.095 113.246 100.472
106.087 115.685 100.718
104.569 114.72 100.926
106.962 117.766 100.9
107.602 116.577 100.579
105.503 111.879 100.016
104.208 110.925 99.9614
103.266 113.727 101.233
103.966 115.81 101.56
107.904 114.734 100.376
106.693 112.021 100.066
107.991 112.383 100.018
105.587 109.98 99.7115
108.964 116.995 100.671
109.124 112.484 100.08
108.021 110.256 99.8923
102.842 110.114 99.9643
102.304 111.658 100.939
101.329 109.499 100.022
101.808 112.933 101.649
103.049 108.63 99.18
100.283 107.663 98.9313
100.023 108.877 100.143
104.338 117.818 101.882
105.994 119.015 101.326
104.87 119.859 102.015
107.473 119.707 101.304
103.164 116.726 102.488
104.043 120.373 103.238
105.226 121.594 102.621
103.61 103.707 98.3046
103.396 105.343 98.3224
102.094 103.229 97.7784
103.073 106.82 98.3944
104.566 107.478 99.0095
104.856 104.02 98.9517
103.771 102.236 98.5583
100.831 101.254 97.2314
100.613 102.74 97.4705
105.789 108.084 99.4789
106.049 105.943 99.4045
107.246 108.075 99.7573
106.273 104.379 99.569
108.502 108.399 99.9678
102.969 100.331 97.7628
101.318 99.9254 96.653
102.295 98.8446 96.3593
99.7399 99.6226 96.154
104.275 100.827 98.6702
102.906 97.6303 96.9063
101.16 97.2219 96.0943
100.592 104.541 97.6987
101.93 106.768 98.2695
100.351 106.378 97.9871
99.2823 102.469 97.461
98.9187 105.641 98.0329
110.288 110.125 112.325
110.942 109.423 110.852
110.145 108.025 111.691
111.299 108.871 109.408
111.396 110.528 109.861
110.133 111.984 112.86
109.507 110.906 113.562
109.315 106.73 112.307
109.721 106.122 111.042
111.463 112.419 110.239
110.765 113.253 112.062
111.286 114.21 110.771
109.874 113.978 113.391
111.607 111.922 108.696
111.418 115.458 109.506
111.093 115.956 111.092
108.793 109.61 114.308
108.739 107.162 113.582
108.098 107.83 114.895
108.381 105.086 112.702
108.697 111.661 114.859
107.214 108.505 115.946
107.244 106.194 115.061
109.916 105.438 109.628
111.079 106.96 108.782
110.083 105.034 108.094
111.441 108.463 107.837
108.975 104.157 110.236
109.017 103.344 107.406
110.223 104.76 106.689
111.581 110.914 105.709
111.568 112.329 104.691
111.269 109.919 104.307
111.581 113.843 103.84
111.66 114.653 104.909
111.642 111.683 106.918
111.53 109.623 106.565
110.852 107.651 103.781
110.939 109.018 103.095
111.556 115.228 106.304
111.691 113.326 107.517
111.538 115.4 107.898
111.693 116.805 105.44
111.455 117.085 108.46
111.31 107.681 106.366
110.858 106.496 104.693
110.753 105.552 105.705
110.263 105.313 103.468
109.545 103.766 105.375
110.813 109.837 102.146
111.189 112.709 102.65
110.662 111.085 101.356
111.406 115.188 103.036
110.42 107.498 101.907
109.96 109.472 100.447
110.253 112.051 100.7
93.7225 103.15 109.143
93.9157 104.208 108.035
94.3572 105.132 109.739
94.1666 105.049 106.991
93.5515 103.484 106.42
93.1876 101.301 108.556
93.6039 102.069 110.008
94.7085 106.163 111.256
94.8429 107.057 110.364
93.0697 101.805 105.731
92.9267 100.562 106.838
92.9248 100.075 105
93.0983 99.4805 107.701
93.3608 102.725 104.609
92.8948 99.5278 103.122
92.7962 98.4817 104.059
94.0755 102.795 111.492
94.6273 105.317 112.256
94.7243 104.252 113.12
95.079 107.425 112.817
93.6205 100.788 110.75
94.9368 103.101 113.708
95.5501 105.448 114.498
95.2085 108.062 109.441
94.9384 106.762 107.523
95.4071 108.787 108.153
94.5916 105.888 105.922
95.3634 109.162 110.952
95.8231 110.621 108.601
95.746 109.575 107.073
94.4484 104.924 102.919
94.61 104.394 101.434
95.5056 106.278 102.448
95.149 103.914 100.112
94.6675 102.414 100.651
93.7968 103.627 103.395
94.6141 105.526 104.333
96.484 108.267 103.239
96.4736 107.535 102.096
94.1144 101.073 101.138
93.5699 101.964 102.958
93.4276 100.135 101.952
94.3186 100.426 99.6735
92.9022 98.6865 101.179
95.3453 107.029 105.199
96.4243 108.626 104.505
96.0492 109.298 105.781
97.0717 110.387 104.079
96.4202 111.185 106.5
96.9783 107.144 101.092
96.0442 105.283 99.6958
97.295 106.754 99.6736
95.8376 103.161 99.1902
97.6563 109.105 102.13
98.7265 107.91 100.198
97.6133 105.917 98.5329
107.16 122.477 111.028
106.178 123.097 110.203
107.685 123.11 109.306
104.98 123.2 109.323
104.411 122.708 111.225
106.497 121.464 112.807
108.006 121.28 111.947
109.164 122.825 108.555
108.136 123.784 107.262
103.609 122.03 113.072
104.937 121.134 113.928
103.18 120.898 114.717
106.057 120.049 114.401
102.479 122.165 112.087
101.468 120.269 114.929
103.086 119.294 115.725
109.37 120.508 111.47
110.186 121.496 109.679
110.714 119.58 110.522
110.268 122.094 107.88
108.631 119.853 112.815
110.794 117.889 111.255
111.22 118.889 109.283
106.982 124.03 105.883
105.155 123.341 107.333
105.497 123.583 105.242
103.61 122.856 108.685
108.522 123.99 105.201
105.715 123.296 103.697
103.854 122.415 105.46
100.512 120.733 110.248
99.2624 119.166 110.726
99.9101 119.439 109.311
98.064 117.411 111.12
98.5907 118.491 112.143
101.226 121.661 111.28
101.976 121.997 109.487
100.454 119.297 107.904
99.3465 117.947 108.372
99.1757 119.253 113.293
100.808 121.094 112.797
100.222 119.87 114.377
98.0304 117.614 113.605
99.9952 118.566 115.542
102.429 122.11 107.841
101.599 120.312 107.088
102.767 121.428 106.148
101.031 118.963 106.256
103.401 120.874 104.599
98.3038 116.203 108.448
97.6154 115.946 110.016
97.2583 114.441 108.654
97.1211 115.6 111.448
98.9665 116.513 107.198
96.9581 113.247 107.453
96.5054 112.906 109.012
103.541 94.1737 102.497
105.024 95.1878 103.836
105.407 94.9907 102.319
106.024 96.2072 105.369
104.621 95.399 105.314
101.557 93.7794 102.558
101.69 93.7445 101.19
105.279 95.3164 100.88
106.481 96.5502 102.332
103.369 95.0739 105.902
101.711 94.4121 104.181
101.873 94.9224 106.299
99.9247 93.6856 102.774
104.746 96.1255 107.141
102.137 95.8378 107.917
100.343 94.7502 106.269
102.38 94.0397 99.7663
104.222 95.0938 99.5019
102.718 94.9015 98.1823
105.406 96.6512 100.003
100.249 93.6734 99.8917
101.182 94.8229 97.2585
103.199 96.4939 97.5764
107.334 98.1273 103.772
107.337 97.6078 105.275
107.716 99.8313 105.297
107.044 97.6738 106.708
107.098 98.5862 102.598
108.18 101.655 105.09
108.074 101.303 106.567
95.6427 93.6255 101.094
96.8514 93.3552 100.455
95.3021 93.7911 98.846
98.0995 93.4682 99.6685
98.203 93.4757 102
95.8922 94.2169 103.193
94.6326 94.2732 101.745
93.9127 94.4896 97.5601
95.4407 94.3083 96.8759
98.9751 93.9704 103.675
97.3091 94.3542 104.522
98.9284 94.5437 105.717
96.5595 94.9615 105.556
99.3708 95.4513 107.411
93.5866 94.9267 101.405
93.0906 95.0482 98.8964
92.8126 95.9422 100.819
93.1847 95.8525 96.8553
94.2929 95.1768 103.487
92.9949 96.9177 102.904
92.5507 97.1005 100.332
97.3624 94.2311 97.1508
99.1654 93.7949 98.7441
99.4865 94.4817 97.1809
96.2157 95.2562 95.7976
99.7213 95.6133 96.2275
106.662 115.341 116.464
107.533 117.119 115.379
107.953 115.317 115.638
108.146 118.67 114.185
106.878 118.702 115.061
105.253 115.182 116.833
105.744 113.533 117.112
108.242 113.527 115.517
108.921 115.011 114.618
105.536 118.505 115.58
104.659 116.564 116.577
103.815 118.083 116.223
106.309 112.008 117.016
107.78 111.843 116.022
106.882 110.038 116.56
109.666 115.879 113.581
109.318 118.12 113.374
110.327 116.947 112.338
110.324 121.392 104.338
110.288 120.112 102.664
110.901 119.272 103.63
109.974 118.29 101.342
109.235 120.537 101.853
109.781 123.16 104.778
110.406 121.93 106.251
111.454 118.52 104.693
111.285 117.12 102.948
108.047 121.254 102.049
108.808 123.397 103.486
106.466 122.615 102.645
111.038 120.536 107.048
111.53 118.708 106.086
111.374 118.77 107.864
110.928 115.356 101.776
110.073 116.023 100.766
110.167 113.593 100.476
105.888 100.166 111.195
107.112 101.321 110.794
106.519 99.2826 109.659
107.999 102.517 110.455
107.675 102.97 111.777
105.251 100.937 112.572
104.617 99.4369 111.511
105.829 97.5934 108.709
106.938 98.4972 108.258
107.308 103.698 112.938
105.868 102.497 113.386
106.701 104.381 114.332
103.965 98.1592 110.469
104.667 96.9739 108.75
103.152 96.7753 109.178
107.507 99.78 107.914
108.133 102.236 109.193
108.113 101.746 107.741
108.316 103.282 101.567
106.975 102.223 100.699
107.11 100.931 101.211
105.672 101.361 99.8681
106.787 103.43 100.155
109.678 105.168 101.477
109.354 104.032 102.497
107.088 99.6844 101.873
106.305 98.684 100.565
107.936 105.172 100.144
109.626 106.148 100.793
108.993 107.366 100.371
109.047 103.384 103.401
107.707 101.071 103.081
108.45 102.544 104.373
105.512 98.0985 99.3842
104.986 99.7777 98.9959
104.421 97.9475 98.0083
96.4408 112.611 115.223
95.9073 111.653 113.728
96.3911 113.721 113.897
95.6065 110.634 112.331
95.5327 109.757 113.52
96.8637 111.361 116.243
97.4972 113.347 116.294
97.0958 115.57 113.934
96.6816 114.581 112.629
95.6452 108.6 114.219
96.4347 109.431 115.899
95.9098 107.299 115.237
98.108 115.112 116.294
97.7749 116.455 114.89
99.0871 117.007 116.01
96.3707 113.516 111.35
95.7838 111.215 111.136
96.0719 112.046 109.838
99.1711 113.565 103.705
100.469 114.636 103.423
99.7814 115.453 104.566
101.771 115.612 103.074
101.123 113.748 102.444
98.5005 111.707 102.846
97.9779 112.377 103.941
99.2462 116.011 105.84
100.431 117.167 105.447
100.363 111.839 101.806
98.7724 110.623 102.006
99.5254 109.653 101.143
97.4226 112.424 104.896
98.2514 114.602 106.082
97.061 112.853 106.217
101.506 118.161 104.911
102.362 117.201 103.567
102.88 119.156 104.118
94.6689 97.9244 109.299
95.79 97.6933 110.163
95.441 96.8076 107.938
97.0298 97.6405 110.9
96.0969 98.4756 112.084
93.9613 99.0949 110.391
93.8358 98.3248 108.346
94.8406 95.9184 105.752
95.9878 95.7149 106.823
95.3877 99.5815 112.976
94.1538 100.196 111.944
95.0187 101.514 113.43
93.6648 98.0076 106.662
93.9618 96.3863 105.192
93.2475 97.4298 104.668
97.2602 95.8142 107.722
97.8965 96.9481 109.802
98.8189 96.0818 108.574
96.6148 99.3342 96.1656
95.2863 99.5076 97.072
94.9455 98.3296 95.2518
94.6836 99.7252 98.2635
96.0851 101.222 98.6445
98.0364 100.825 97.4522
97.9471 99.4482 95.9306
95.6103 96.6414 95.0877
93.6224 97.0921 95.7542
96.7926 102.621 98.3118
97.9629 102.551 97.7691
97.7868 104.3 97.9755
98.6519 98.5647 95.3431
97.4705 96.4861 95.2894
99.5259 96.8921 95.67
92.9897 97.4062 97.4915
93.5407 99.1071 98.4584
92.805 98.0091 99.5529
POLYGONS 1280  5120
3 164 162 163
3 163 44 164
3 162 43 163
3 164 42 162
3 166 165 163
3 163 43 166
3 165 44 163
3 166 14 165
3 168 167 162
3 162 42 168
3 167 43 162
3 168 13 167
3 170 169 164
3 164 44 170
3 169 42 164
3 170 12 169
3 173 171 172
3 172 46 173
3 171 43 172
3 173 45 171
3 167 174 172
3 172 43 167
3 174 46 172
3 167 13 174
3 175 166 171
3 171 45 175
3 166 43 171
3 175 14 166
3 177 176 173
3 173 46 177
3 176 45 173
3 177 4 176
3 180 178 179
3 179 48 180
3 178 42 179
3 180 47 178
3 169 181 179
3 179 42 169
3 181 48 179
3 169 12 181
3 182 168 178
3 178 47 182
3 168 42 178
3 182 13 168
3 184 183 180
3 180 48 184
3 183 47 180
3 184 8 183
3 187 185 186
3 186 50 187
3 185 44 186
3 187 49 185
3 165 188 186
3 186 44 165
3 188 50 186
3 165 14 188
3 189 170 185
3 185 49 189
3 170 44 185
3 189 12 170
3 191 190 187
3 187 50 191
3 190 49 187
3 191 7 190
3 194 192 193
3 193 53 194
3 192 52 193
3 194 51 192
3 196 195 193
3 193 52 196
3 195 53 193
3 196 16 195
3 198 197 192
3 192 51 198
3 197 52 192
3 198 14 197
3 200 199 194
3 194 53 200
3 199 51 194
3 200 15 199
3 203 201 202
3 202 45 203
3 201 52 202
3 203 54 201
3 197 175 202
3 202 52 197
3 175 45 202
3 197 14 175
3 204 196 201
3 201 54 204
3 196 52 201
3 204 16 196
3 176 205 203
3 203 45 176
3 205 54 203
3 176 4 205
3 208 206 207
3 207 55 208
3 206 51 207
3 208 50 206
3 199 209 207
3 207 51 199
3 209 55 207
3 199 15 209
3 188 198 206
3 206 50 188
3 198 51 206
3 188 14 198
3 210 191 208
3 208 55 210
3 191 50 208
3 210 7 191
3 213 211 212
3 212 57 213
3 211 53 212
3 213 56 211
3 195 214 212
3 212 53 195
3 214 57 212
3 195 16 214
3 215 200 211
3 211 56 215
3 200 53 211
3 215 15 200
3 217 216 213
3 213 57 217
3 216 56 213
3 217 9 216
3 220 218 219
3 219 60 220
3 218 59 219
3 220 58 218
3 222 221 219
3 219 59 222
3 221 60 219
3 222 19 221
3 224 223 218
3 218 58 224
3 223 59 218
3 224 18 223
3 226 225 220
3 220 60 226
3 225 58 220
3 226 17 225
3 229 227 228
3 228 62 229
3 227 59 228
3 229 61 227
3 223 230 228
3 228 59 223
3 230 62 228
3 223 18 230
3 231 222 227
3 227 61 231
3 222 59 227
3 231 19 222
3 233 232 229
3 229 62 233
3 232 61 229
3 233 5 232
3 236 234 235
3 235 64 236
3 234 58 235
3 236 63 234
3 225 237 235
3 235 58 225
3 237 64 235
3 225 17 237
3 238 224 234
3 234 63 238
3 224 58 234
3 238 18 224
3 240 239 236
3 236 64 240
3 239 63 236
3 240 6 239
3 243 241 242
3 242 66 243
3 241 60 242
3 243 65 241
3 221 244 242
3 242 60 221
3 244 66 242
3 221 19 244
3 245 226 241
3 241 65 245
3 226 60 241
3 245 17 226
3 247 246 243
3 243 66 247
3 246 65 243
3 247 11 246
3 250 248 249
3 249 69 250
3 248 68 249
3 250 67 248
3 252 251 249
3 249 68 252
3 251 69 249
3 252 18 251
3 254 253 248
3 248 67 254
3 253 68 248
3 254 21 253
3 256 255 250
3 250 69 256
3 255 67 250
3 256 20 255
3 259 257 258
3 258 70 259
3 257 68 258
3 259 62 257
3 253 260 258
3 258 68 253
3 260 70 258
3 253 21 260
3 230 252 257
3 257 62 230
3 252 68 257
3 230 18 252
3 261 233 259
3 259 70 261
3 233 62 259
3 261 5 233
3 264 262 263
3 263 72 264
3 262 67 263
3 264 71 262
3 255 265 263
3 263 67 255
3 265 72 263
3 255 20 265
3 266 254 262
3 262 71 266
3 254 67 262
3 266 21 254
3 268 267 264
3 264 72 268
3 267 71 264
3 268 10 267
3 271 269 270
3 270 63 271
3 269 69 270
3 271 73 269
3 251 238 270
3 270 69 251
3 238 63 270
3 251 18 238
3 272 256 269
3 269 73 272
3 256 69 269
3 272 20 256
3 239 273 271
3 271 63 239
3 273 73 271
3 239 6 273
3 276 274 275
3 275 76 276
3 274 75 275
3 276 74 274
3 278 277 275
3 275 75 278
3 277 76 275
3 278 24 277
3 280 279 274
3 274 74 280
3 279 75 274
3 280 23 279
3 282 281 276
3 276 76 282
3 281 74 276
3 282 22 281
3 285 283 284
3 284 78 285
3 283 75 284
3 285 77 283
3 279 286 284
3 284 75 279
3 286 78 284
3 279 23 286
3 287 278 283
3 283 77 287
3 278 75 283
3 287 24 278
3 289 288 285
3 285 78 289
3 288 77 285
3 289 0 288
3 292 290 291
3 291 80 292
3 290 74 291
3 292 79 290
3 281 293 291
3 291 74 281
3 293 80 291
3 281 22 293
3 294 280 290
3 290 79 294
3 280 74 290
3 294 23 280
3 296 295 292
3 292 80 296
3 295 79 292
3 296 4 295
3 299 297 298
3 298 82 299
3 297 76 298
3 299 81 297
3 277 300 298
3 298 76 277
3 300 82 298
3 277 24 300
3 301 282 297
3 297 81 301
3 282 76 297
3 301 22 282
3 303 302 299
3 299 82 303
3 302 81 299
3 303 3 302
3 306 304 305
3 305 85 306
3 304 84 305
3 306 83 304
3 308 307 305
3 305 84 308
3 307 85 305
3 308 26 307
3 310 309 304
3 304 83 310
3 309 84 304
3 310 24 309
3 312 311 306
3 306 85 312
3 311 83 306
3 312 25 311
3 315 313 314
3 314 77 315
3 313 84 314
3 315 86 313
3 309 287 314
3 314 84 309
3 287 77 314
3 309 24 287
3 316 308 313
3 313 86 316
3 308 84 313
3 316 26 308
3 288 317 315
3 315 77 288
3 317 86 315
3 288 0 317
3 320 318 319
3 319 87 320
3 318 83 319
3 320 82 318
3 311 321 319
3 319 83 311
3 321 87 319
3 311 25 321
3 300 310 318
3 318 82 300
3 310 83 318
3 300 24 310
3 322 303 320
3 320 87 322
3 303 82 320
3 322 3 303
3 325 323 324
3 324 89 325
3 323 85 324
3 325 88 323
3 307 326 324
3 324 85 307
3 326 89 324
3 307 26 326
3 327 312 323
3 323 88 327
3 312 85 323
3 327 25 312
3 329 328 325
3 325 89 329
3 328 88 325
3 329 5 328
3 332 330 331
3 331 92 332
3 330 91 331
3 332 90 330
3 334 333 331
3 331 91 334
3 333 92 331
3 334 29 333
3 336 335 330
3 330 90 336
3 335 91 330
3 336 28 335
3 338 337 332
3 332 92 338
3 337 90 332
3 338 27 337
3 341 339 340
3 340 94 341
3 339 91 340
3 341 93 339
3 335 342 340
3 340 91 335
3 342 94 340
3 335 28 342
3 343 334 339
3 339 93 343
3 334 91 339
3 343 29 334
3 345 344 341
3 341 94 345
3 344 93 341
3 345 2 344
3 348 346 347
3 347 96 348
3 346 90 347
3 348 95 346
3 337 349 347
3 347 90 337
3 349 96 347
3 337 27 349
3 350 336 346
3 346 95 350
3 336 90 346
3 350 28 336
3 352 351 348
3 348 96 352
3 351 95 348
3 352 7 351
3 355 353 354
3 354 98 355
3 353 92 354
3 355 97 353
3 333 356 354
3 354 92 333
3 356 98 354
3 333 29 356
3 357 338 353
3 353 97 357
3 338 92 353
3 357 27 338
3 359 358 355
3 355 98 359
3 358 97 355
3 359 1 358
3 362 360 361
3 361 101 362
3 360 100 361
3 362 99 360
3 364 363 361
3 361 100 364
3 363 101 361
3 364 31 363
3 366 365 360
3 360 99 366
3 365 100 360
3 366 29 365
3 368 367 362
3 362 101 368
3 367 99 362
3 368 30 367
3 371 369 370
3 370 93 371
3 369 100 370
3 371 102 369
3 365 343 370
3 370 100 365
3 343 93 370
3 365 29 343
3 372 364 369
3 369 102 372
3 364 100 369
3 372 31 364
3 344 373 371
3 371 93 344
3 373 102 371
3 344 2 373
3 376 374 375
3 375 103 376
3 374 99 375
3 376 98 374
3 367 377 375
3 375 99 367
3 377 103 375
3 367 30 377
3 356 366 374
3 374 98 356
3 366 99 374
3 356 29 366
3 378 359 376
3 376 103 378
3 359 98 376
3 378 1 359
3 381 379 380
3 380 105 381
3 379 101 380
3 381 104 379
3 363 382 380
3 380 101 363
3 382 105 380
3 363 31 382
3 383 368 379
3 379 104 383
3 368 101 379
3 383 30 368
3 385 384 381
3 381 105 385
3 384 104 381
3 385 6 384
3 388 386 387
3 387 108 388
3 386 107 387
3 388 106 386
3 390 389 387
3 387 107 390
3 389 108 387
3 390 34 389
3 392 391 386
3 386 106 392
3 391 107 386
3 392 33 391
3 394 393 388
3 388 108 394
3 393 106 388
3 394 32 393
3 397 395 396
3 396 110 397
3 395 107 396
3 397 109 395
3 391 398 396
3 396 107 391
3 398 110 396
3 391 33 398
3 399 390 395
3 395 109 399
3 390 107 395
3 399 34 390
3 401 400 397
3 397 110 401
3 400 109 397
3 401 8 400
3 404 402 403
3 403 112 404
3 402 106 403
3 404 111 402
3 393 405 403
3 403 106 393
3 405 112 403
3 393 32 405
3 406 392 402
3 402 111 406
3 392 106 402
3 406 33 392
3 408 407 404
3 404 112 408
3 407 111 404
3 408 0 407
3 411 409 410
3 410 114 411
3 409 108 410
3 411 113 409
3 389 412 410
3 410 108 389
3 412 114 410
3 389 34 412
3 413 394 409
3 409 113 413
3 394 108 409
3 413 32 394
3 415 414 411
3 411 114 415
3 414 113 411
3 415 11 414
3 418 416 417
3 417 117 418
3 416 116 417
3 418 115 416
3 420 419 417
3 417 116 420
3 419 117 417
3 420 36 419
3 422 421 416
3 416 115 422
3 421 116 416
3 422 34 421
3 424 423 418
3 418 117 424
3 423 115 418
3 424 35 423
3 427 425 426
3 426 109 427
3 425 116 426
3 427 118 425
3 421 399 426
3 426 116 421
3 399 109 426
3 421 34 399
3 428 420 425
3 425 118 428
3 420 116 425
3 428 36 420
3 400 429 427
3 427 109 400
3 429 118 427
3 400 8 429
3 432 430 431
3 431 119 432
3 430 115 431
3 432 114 430
3 423 433 431
3 431 115 423
3 433 119 431
3 423 35 433
3 412 422 430
3 430 114 412
3 422 115 430
3 412 34 422
3 434 415 432
3 432 119 434
3 415 114 432
3 434 11 415
3 437 435 436
3 436 121 437
3 435 117 436
3 437 120 435
3 419 438 436
3 436 117 419
3 438 121 436
3 419 36 438
3 439 424 435
3 435 120 439
3 424 117 435
3 439 35 424
3 441 440 437
3 437 121 441
3 440 120 437
3 441 1 440
3 444 442 443
3 443 124 444
3 442 123 443
3 444 122 442
3 446 445 443
3 443 123 446
3 445 124 443
3 446 39 445
3 448 447 442
3 442 122 448
3 447 123 442
3 448 38 447
3 450 449 444
3 444 124 450
3 449 122 444
3 450 37 449
3 453 451 452
3 452 126 453
3 451 123 452
3 453 125 451
3 447 454 452
3 452 123 447
3 454 126 452
3 447 38 454
3 455 446 451
3 451 125 455
3 446 123 451
3 455 39 446
3 457 456 453
3 453 126 457
3 456 125 453
3 457 9 456
3 460 458 459
3 459 128 460
3 458 122 459
3 460 127 458
3 449 461 459
3 459 122 449
3 461 128 459
3 449 37 461
3 462 448 458
3 458 127 462
3 448 122 458
3 462 38 448
3 464 463 460
3 460 128 464
3 463 127 460
3 464 10 463
3 467 465 466
3 466 130 467
3 465 124 466
3 467 129 465
3 445 468 466
3 466 124 445
3 468 130 466
3 445 39 468
3 469 450 465
3 465 129 469
3 450 124 465
3 469 37 450
3 471 470 467
3 467 130 471
3 470 129 467
3 471 3 470
3 474 472 473
3 473 133 474
3 472 132 473
3 474 131 472
3 476 475 473
3 473 132 476
3 475 133 473
3 476 38 475
3 478 477 472
3 472 131 478
3 477 132 472
3 478 41 477
3 480 479 474
3 474 133 480
3 479 131 474
3 480 40 479
3 483 481 482
3 482 134 483
3 481 132 482
3 483 126 481
3 477 484 482
3 482 132 477
3 484 134 482
3 477 41 484
3 454 476 481
3 481 126 454
3 476 132 481
3 454 38 476
3 485 457 483
3 483 134 485
3 457 126 483
3 485 9 457
3 488 486 487
3 487 136 488
3 486 131 487
3 488 135 486
3 479 489 487
3 487 131 479
3 489 136 487
3 479 40 489
3 490 478 486
3 486 135 490
3 478 131 486
3 490 41 478
3 492 491 488
3 488 136 492
3 491 135 488
3 492 2 491
3 495 493 494
3 494 127 495
3 493 133 494
3 495 137 493
3 475 462 494
3 494 133 475
3 462 127 494
3 475 38 462
3 496 480 493
3 493 137 496
3 480 133 493
3 496 40 480
3 463 497 495
3 495 127 463
3 497 137 495
3 463 10 497
3 500 498 499
3 499 140 500
3 498 139 499
3 500 138 498
3 502 501 499
3 499 139 502
3 501 140 499
3 502 33 501
3 504 503 498
3 498 138 504
3 503 139 498
3 504 13 503
3 506 505 500
3 500 140 506
3 505 138 500
3 506 23 505
3 509 507 508
3 508 47 509
3 507 139 508
3 509 110 507
3 503 182 508
3 508 139 503
3 182 47 508
3 503 13 182
3 398 502 507
3 507 110 398
3 502 139 507
3 398 33 502
3 183 401 509
3 509 47 183
3 401 110 509
3 183 8 401
3 512 510 511
3 511 79 512
3 510 138 511
3 512 46 510
3 505 294 511
3 511 138 505
3 294 79 511
3 505 23 294
3 174 504 510
3 510 46 174
3 504 138 510
3 174 13 504
3 295 177 512
3 512 79 295
3 177 46 512
3 295 4 177
3 515 513 514
3 514 111 515
3 513 140 514
3 515 78 513
3 501 406 514
3 514 140 501
3 406 111 514
3 501 33 406
3 286 506 513
3 513 78 286
3 506 140 513
3 286 23 506
3 407 289 515
3 515 111 407
3 289 78 515
3 407 0 289
3 518 516 517
3 517 143 518
3 516 142 517
3 518 141 516
3 520 519 517
3 517 142 520
3 519 143 517
3 520 19 519
3 522 521 516
3 516 141 522
3 521 142 516
3 522 32 521
3 524 523 518
3 518 143 524
3 523 141 518
3 524 26 523
3 527 525 526
3 526 113 527
3 525 142 526
3 527 66 525
3 521 413 526
3 526 142 521
3 413 113 526
3 521 32 413
3 244 520 525
3 525 66 244
3 520 142 525
3 244 19 520
3 414 247 527
3 527 113 414
3 247 66 527
3 414 11 247
3 530 528 529
3 529 86 530
3 528 141 529
3 530 112 528
3 523 316 529
3 529 141 523
3 316 86 529
3 523 26 316
3 405 522 528
3 528 112 405
3 522 141 528
3 405 32 522
3 317 408 530
3 530 86 317
3 408 112 530
3 317 0 408
3 533 531 532
3 532 61 533
3 531 143 532
3 533 89 531
3 519 231 532
3 532 143 519
3 231 61 532
3 519 19 231
3 326 524 531
3 531 89 326
3 524 143 531
3 326 26 524
3 232 329 533
3 533 61 232
3 329 89 533
3 232 5 329
3 536 534 535
3 535 146 536
3 534 145 535
3 536 144 534
3 538 537 535
3 535 145 538
3 537 146 535
3 538 22 537
3 540 539 534
3 534 144 540
3 539 145 534
3 540 16 539
3 542 541 536
3 536 146 542
3 541 144 536
3 542 39 541
3 545 543 544
3 544 54 545
3 543 145 544
3 545 80 543
3 539 204 544
3 544 145 539
3 204 54 544
3 539 16 204
3 293 538 543
3 543 80 293
3 538 145 543
3 293 22 538
3 205 296 545
3 545 54 205
3 296 80 545
3 205 4 296
3 548 546 547
3 547 125 548
3 546 144 547
3 548 57 546
3 541 455 547
3 547 144 541
3 455 125 547
3 541 39 455
3 214 540 546
3 546 57 214
3 540 144 546
3 214 16 540
3 456 217 548
3 548 125 456
3 217 57 548
3 456 9 217
3 551 549 550
3 550 81 551
3 549 146 550
3 551 130 549
3 537 301 550
3 550 146 537
3 301 81 550
3 537 22 301
3 468 542 549
3 549 130 468
3 542 146 549
3 468 39 542
3 302 471 551
3 551 81 302
3 471 130 551
3 302 3 471
3 554 552 553
3 553 149 554
3 552 148 553
3 554 147 552
3 556 555 553
3 553 148 556
3 555 149 553
3 556 21 555
3 558 557 552
3 552 147 558
3 557 148 552
3 558 25 557
3 560 559 554
3 554 149 560
3 559 147 554
3 560 37 559
3 563 561 562
3 562 88 563
3 561 148 562
3 563 70 561
3 557 327 562
3 562 148 557
3 327 88 562
3 557 25 327
3 260 556 561
3 561 70 260
3 556 148 561
3 260 21 556
3 328 261 563
3 563 88 328
3 261 70 563
3 328 5 261
3 566 564 565
3 565 129 566
3 564 147 565
3 566 87 564
3 559 469 565
3 565 147 559
3 469 129 565
3 559 37 469
3 321 558 564
3 564 87 321
3 558 147 564
3 321 25 558
3 470 322 566
3 566 129 470
3 322 87 566
3 470 3 322
3 569 567 568
3 568 71 569
3 567 149 568
3 569 128 567
3 555 266 568
3 568 149 555
3 266 71 568
3 555 21 266
3 461 560 567
3 567 128 461
3 560 149 567
3 461 37 560
3 267 464 569
3 569 71 267
3 464 128 569
3 267 10 464
3 572 570 571
3 571 152 572
3 570 151 571
3 572 150 570
3 574 573 571
3 571 151 574
3 573 152 571
3 574 27 573
3 576 575 570
3 570 150 576
3 575 151 570
3 576 12 575
3 578 577 572
3 572 152 578
3 577 150 572
3 578 36 577
3 581 579 580
3 580 49 581
3 579 151 580
3 581 96 579
3 575 189 580
3 580 151 575
3 189 49 580
3 575 12 189
3 349 574 579
3 579 96 349
3 574 151 579
3 349 27 574
3 190 352 581
3 581 49 190
3 352 96 581
3 190 7 352
3 584 582 583
3 583 118 584
3 582 150 583
3 584 48 582
3 577 428 583
3 583 150 577
3 428 118 583
3 577 36 428
3 181 576 582
3 582 48 181
3 576 150 582
3 181 12 576
3 429 184 584
3 584 118 429
3 184 48 584
3 429 8 184
3 587 585 586
3 586 97 587
3 585 152 586
3 587 121 585
3 573 357 586
3 586 152 573
3 357 97 586
3 573 27 357
3 438 578 585
3 585 121 438
3 578 152 585
3 438 36 578
3 358 441 587
3 587 97 358
3 441 121 587
3 358 1 441
3 590 588 589
3 589 155 590
3 588 154 589
3 590 153 588
3 592 591 589
3 589 154 592
3 591 155 589
3 592 17 591
3 594 593 588
3 588 153 594
3 593 154 588
3 594 30 593
3 596 595 590
3 590 155 596
3 595 153 590
3 596 35 595
3 599 597 598
3 598 104 599
3 597 154 598
3 599 64 597
3 593 383 598
3 598 154 593
3 383 104 598
3 593 30 383
3 237 592 597
3 597 64 237
3 592 154 597
3 237 17 592
3 384 240 599
3 599 104 384
3 240 64 599
3 384 6 240
3 602 600 601
3 601 120 602
3 600 153 601
3 602 103 600
3 595 439 601
3 601 153 595
3 439 120 601
3 595 35 439
3 377 594 600
3 600 103 377
3 594 153 600
3 377 30 594
3 440 378 602
3 602 120 440
3 378 103 602
3 440 1 378
3 605 603 604
3 604 65 605
3 603 155 604
3 605 119 603
3 591 245 604
3 604 155 591
3 245 65 604
3 591 17 245
3 433 596 603
3 603 119 433
3 596 155 603
3 433 35 596
3 246 434 605
3 605 65 246
3 434 119 605
3 246 11 434
3 608 606 607
3 607 158 608
3 606 157 607
3 608 156 606
3 610 609 607
3 607 157 610
3 609 158 607
3 610 15 609
3 612 611 606
3 606 156 612
3 611 157 606
3 612 28 611
3 614 613 608
3 608 158 614
3 613 156 608
3 614 41 613
3 617 615 616
3 616 95 617
3 615 157 616
3 617 55 615
3 611 350 616
3 616 157 611
3 350 95 616
3 611 28 350
3 209 610 615
3 615 55 209
3 610 157 615
3 209 15 610
3 351 210 617
3 617 95 351
3 210 55 617
3 351 7 210
3 620 618 619
3 619 135 620
3 618 156 619
3 620 94 618
3 613 490 619
3 619 156 613
3 490 135 619
3 613 41 490
3 342 612 618
3 618 94 342
3 612 156 618
3 342 28 612
3 491 345 620
3 620 135 491
3 345 94 620
3 491 2 345
3 623 621 622
3 622 56 623
3 621 158 622
3 623 134 621
3 609 215 622
3 622 158 609
3 215 56 622
3 609 15 215
3 484 614 621
3 621 134 484
3 614 158 621
3 484 41 614
3 216 485 623
3 623 56 216
3 485 134 623
3 216 9 485
3 626 624 625
3 625 161 626
3 624 160 625
3 626 159 624
3 628 627 625
3 625 160 628
3 627 161 625
3 628 31 627
3 630 629 624
3 624 159 630
3 629 160 624
3 630 20 629
3 632 631 626
3 626 161 632
3 631 159 626
3 632 40 631
3 635 633 634
3 634 73 635
3 633 160 634
3 635 105 633
3 629 272 634
3 634 160 629
3 272 73 634
3 629 20 272
3 382 628 633
3 633 105 382
3 628 160 633
3 382 31 628
3 273 385 635
3 635 73 273
3 385 105 635
3 273 6 385
3 638 636 637
3 637 137 638
3 636 159 637
3 638 72 636
3 631 496 637
3 637 159 631
3 496 137 637
3 631 40 496
3 265 630 636
3 636 72 265
3 630 159 636
3 265 20 630
3 497 268 638
3 638 137 497
3 268 72 638
3 497 10 268
3 641 639 640
3 640 102 641
3 639 161 640
3 641 136 639
3 627 372 640
3 640 161 627
3 372 102 640
3 627 31 372
3 489 632 639
3 639 136 489
3 632 161 639
3 489 40 632
3 373 492 641
3 641 102 373
3 492 136 641
3 373 2 492
