# vtk DataFile Version 3.0
this file was written using fslvtkio
ASCII
DATASET POLYDATA
POINTS 642 float
87.3564 112.253 163.189
69.2642 108.402 161.016
63.5961 95.2511 153.215
83.4559 98.2345 157.239
81.3838 101.26 167.978
84.1812 106.9 152.112
71.5605 104.649 151.348
68.7042 99.4771 167.04
76.5235 113.895 169.951
73.4448 91.6276 158.143
73.6174 93.3476 147.156
79.3868 118.563 158.313
72.0579 106.898 170.434
79.4268 107.619 170.845
74.5905 99.4765 169.254
70.1641 93.8407 163.951
77.7177 95.0643 164.003
76.8451 111.495 155.726
77.9732 105.932 151.534
83.9507 115.468 154.392
71.2789 98.1666 148.353
78.6298 99.219 150.934
83.6257 99.0215 162.872
85.1738 107.494 167.216
87.1956 105.22 160.111
85.2281 101.8 153.915
87.5322 112.3 157.108
68.112 104.569 164.922
65.0648 96.198 160.862
65.7342 101.45 157.155
70.4937 107.328 156.074
67.1542 98.7495 151.186
85.7047 119.068 160.757
83.4987 114.847 167.764
77.947 118.507 165.003
73.9753 114.401 160.744
71.2675 112.429 166.653
79.7263 93.5824 151.585
71.0072 89.7897 151.225
79.5982 92.1245 157.481
64.9621 93.9587 146.354
67.0628 92.1214 155.115
75.6769 107.408 171.46
77.0883 103.393 170.623
73.2442 102.952 170.729
78.1362 100.206 168.875
80.7727 104.506 169.942
78.3334 111.013 170.727
74.034 110.442 170.594
70.3527 103.097 169.151
71.2935 98.9425 168.78
72.4338 96.2564 167.048
76.4704 97.2009 167.048
74.021 94.1526 164.237
79.8791 97.9325 166.079
68.8091 96.0284 165.69
71.8814 92.466 161.226
75.9436 92.8924 161.314
77.6423 108.897 153.489
81.2841 110.906 153.228
80.2044 113.934 154.727
84.2791 111.304 153.077
81.1259 106.576 151.965
74.789 105.437 151.215
74.3289 107.722 154.07
78.1064 115.318 156.841
81.7934 117.82 155.806
75.0022 98.6145 148.947
78.492 102.854 150.736
74.7947 102.157 149.8
81.7612 102.794 151.373
76.6746 96.1853 148.425
72.2274 95.9341 146.673
71.7387 101.499 150.009
85.0427 103.097 165.208
86.9258 106.021 163.88
86.1511 101.857 161.921
87.5094 108.706 161.677
86.7503 109.774 165.47
83.4968 104.295 167.88
82.792 99.8725 165.448
83.7053 98.4794 160.033
86.4288 101.473 158.784
86.5495 103.792 156.932
87.4025 108.771 158.582
86.5982 107.13 155.563
87.672 112.613 160.092
84.8289 99.7296 155.533
85.199 104.307 152.645
86.4051 109.627 154.221
66.5154 100.316 163.122
65.2343 98.9836 159.304
67.0191 102.756 161.157
64.8292 98.1521 155.455
64.1696 95.511 157.252
66.5509 97.7455 164.172
68.2381 102.349 166.405
68.4931 106.451 162.935
67.8455 104.561 159.078
67.7992 104.232 156.271
66.0518 100.035 153.911
67.7143 103.453 153.188
64.4848 96.9902 151.424
69.6653 107.885 158.35
71.1449 105.845 153.913
68.9854 101.978 151.036
85.1835 117.413 164.568
81.083 117.691 166.736
82.2142 119.689 162.495
76.909 116.817 168.093
80.1252 114.521 169.204
86.2717 113.733 165.867
87.2038 115.813 162.336
82.9786 119.992 158.506
78.733 119.039 161.418
75.7001 117.31 162.922
74.2299 116.179 166.406
72.4494 113.918 163.731
73.2511 113.505 168.887
76.5651 116.509 159.481
71.3109 111.524 160.875
70.21 110.424 163.911
76.1975 90.3518 150.954
75.7186 90.4145 153.936
80.1309 92.0204 154.093
76.6427 91.5506 157.905
72.4093 90.4645 154.64
72.7592 90.9293 148.797
77.1518 93.2224 149.002
81.6676 95.9291 154.629
81.7118 94.6142 157.234
65.0306 91.7897 150.137
68.6395 90.2037 153.245
67.9108 91.0208 148.385
70.1116 91.8166 157.034
64.8873 93.3866 154.128
63.1938 94.5304 149.211
69.2491 93.1189 146.451
82.7764 107.721 169.633
81.7583 111.459 169.839
84.9278 111.418 167.987
87.1798 115.976 158.947
85.2169 118.311 156.965
86.3563 113.627 154.933
79.0473 93.4772 160.712
80.8427 96.6037 163.346
81.7281 95.4767 160.029
82.363 98.0042 153.311
82.595 100.646 152.097
79.4762 96.3842 150.851
71.1087 110.119 168.995
69.3903 105.976 168.138
69.426 108.641 165.86
72.0359 111.092 158.448
73.2867 109.679 155.76
75.2456 113.306 157.932
65.8777 93.6455 158.221
66.9896 94.6376 162.831
68.7749 92.7836 159.889
68.1849 95.9688 145.997
68.702 98.0614 149.497
64.2359 96.7836 147.816
76.3479 105.358 171.192
75.1922 103.322 170.901
74.5137 105.174 171.365
74.0435 101.287 170.311
75.6978 101.55 170.183
78.0182 105.503 170.882
77.486 107.2 171.232
73.8165 106.847 171.255
72.863 104.974 170.903
77.5203 101.741 169.936
78.882 104.021 170.414
79.3292 102.307 169.686
79.8795 105.915 170.52
76.3145 99.9711 169.25
79.7736 100.84 168.609
80.8774 102.685 169.13
77.078 109.048 171.295
74.7039 108.807 171.374
76.1225 110.55 171.066
73.0074 108.637 170.747
78.8522 109.25 170.88
77.2723 112.348 170.608
75.3216 112.065 170.49
71.7361 103.214 170.162
72.3247 100.965 170.096
70.7643 101.008 169.33
72.9597 99.4028 169.289
71.2805 105.031 170.088
69.4798 101.204 168.389
69.9572 99.2819 168.091
74.508 96.5822 167.216
75.2054 95.4761 165.833
73.3195 95.1199 165.79
75.8839 94.6933 164.478
76.9146 95.9533 165.66
75.5203 98.2256 168.234
73.5863 97.7441 168.235
71.3787 94.8787 165.702
72.1433 94.0723 164.42
78.1969 97.4035 166.557
77.3427 98.7051 168.174
79.3033 99.13 167.633
78.636 96.3718 165.139
80.6766 99.6556 167.172
71.9741 97.5629 168.173
70.5849 95.9862 166.561
70.0581 97.5057 167.46
69.5171 94.7697 165.04
68.7744 97.6964 166.522
72.8272 93.3571 162.908
75.1285 93.6496 162.929
73.9335 92.7708 161.488
76.7879 93.9701 162.82
71.021 93.1395 162.692
72.9382 92.0723 159.886
74.7373 92.1068 159.959
79.4024 109.992 153.412
80.8041 112.39 154.051
79.0406 111.423 154.32
81.9456 114.614 154.305
82.5652 113.228 153.756
79.7047 108.687 152.585
78.1034 107.661 152.552
77.4856 110.44 154.546
78.5809 112.503 155.19
82.7662 111.331 153.158
81.1685 108.758 152.561
82.7646 109.064 152.381
79.6605 106.832 151.988
84.1625 113.487 153.71
84.1783 109.05 152.32
82.6317 106.849 151.972
76.4735 107.06 152.628
76.0769 108.543 153.916
74.6698 106.596 152.723
75.7127 109.691 154.893
76.4484 105.707 151.394
73.2149 105.122 151.242
73.054 106.082 152.731
79.0847 114.582 155.623
80.9457 115.949 154.933
79.7112 116.645 155.917
82.7697 116.566 154.921
77.6632 113.421 156.236
78.8092 117.036 157.265
80.2925 118.153 156.749
76.6971 100.701 150.138
76.6633 102.557 150.178
74.9114 100.378 149.553
76.3487 104.022 150.311
78.239 104.494 150.979
78.265 100.856 150.701
76.8512 99.1729 149.911
73.2779 98.6148 148.545
73.1656 99.9817 149.317
79.7624 104.912 151.421
79.9105 102.729 151.146
81.5799 104.737 151.501
80.0445 101.108 151.234
83.1234 104.854 151.683
75.8261 97.5131 148.634
73.6758 97.4046 147.617
74.651 96.218 147.298
71.743 97.2955 147.301
77.3164 97.6931 149.773
75.3232 94.8533 147.523
73.1771 94.7103 146.804
73.3574 101.932 149.917
75.028 104.133 150.264
73.1428 103.906 150.115
71.6836 99.7865 149.444
71.548 103.211 150.299
86.0815 104.565 164.605
86.676 103.946 162.933
85.7781 102.506 163.644
86.9283 103.56 161.352
87.1506 105.206 162.071
86.1114 106.447 165.526
85.3107 105.266 166.029
84.6368 101.155 164.056
85.0117 100.66 162.708
87.3231 107.117 162.765
86.8969 107.809 164.848
87.2618 108.949 163.614
85.989 108.48 166.374
87.3633 106.805 161.035
87.4262 110.367 162.461
87.191 110.734 164.182
84.3668 103.89 166.564
84.0353 101.547 165.409
83.3745 102.076 166.859
83.3385 99.5446 164.169
84.4453 105.946 167.457
82.4852 102.722 168.14
82.2356 100.509 166.792
85.0858 100.124 161.129
86.4728 101.719 160.416
85.135 99.9357 159.515
86.9993 103.359 159.65
83.9088 98.8288 161.585
83.6784 98.4377 158.597
85.2001 99.8886 158.026
87.0959 106.236 157.898
87.1737 107.813 157.056
86.5951 105.399 156.301
87.197 109.503 156.413
87.477 110.216 157.653
87.2804 106.9 159.25
87.0188 104.781 158.541
85.9172 103.136 155.388
86.069 104.691 154.923
87.4783 110.64 159.162
87.4848 108.521 160.121
87.5026 110.55 160.816
87.6259 112.409 158.517
87.5397 112.217 161.645
86.7134 102.813 158.042
85.9808 101.852 156.162
85.804 100.804 157.102
85.2667 100.738 154.697
84.3164 99.1215 156.502
85.8589 105.768 154.118
86.6173 108.534 155.026
85.8138 107.141 153.478
87.1535 110.974 155.757
85.3831 103.348 153.52
84.8785 105.693 152.328
85.4669 108.265 152.843
65.7294 99.6643 161.232
66.0265 100.832 160.195
66.6511 101.506 162.085
66.1702 101.921 159.299
65.4505 100.41 158.489
65.0725 97.8523 160.347
65.616 98.4446 161.962
67.2541 102.354 163.793
67.4202 103.364 162.991
64.8529 98.7284 157.564
64.5851 97.2415 158.473
64.3028 97.0792 156.569
64.5822 96.0236 159.198
65.1331 99.8292 156.564
64.1216 96.7743 154.529
63.8766 95.6123 155.338
66.3263 98.9292 163.606
67.3031 101.307 164.666
67.3627 100.027 165.332
67.9617 103.345 165.507
65.674 97.01 162.485
67.5947 98.7343 165.753
68.4594 101.021 166.886
67.8435 104.479 162.198
67.2927 103.478 160.04
68.1069 105.4 161.051
66.6056 102.957 158.251
68.2495 105.372 163.901
68.7099 107.215 161.746
68.4704 106.331 160.019
66.4217 102.273 155.049
66.7302 101.823 153.629
67.5711 103.753 154.727
67.2132 101.395 152.253
66.6275 99.7162 152.521
65.688 100.96 155.482
66.6049 102.813 156.549
68.9597 105.55 155.868
68.9531 105.005 154.625
65.9788 98.3571 152.847
65.3358 99.2755 154.866
64.8217 97.5047 153.496
65.8949 97.8648 151.257
63.9225 96.2566 152.455
67.5472 104.162 157.691
68.9288 105.728 157.214
68.7046 106.147 158.614
70.0133 107.485 157.114
69.3338 107.995 159.643
69.3909 104.688 153.454
68.2273 102.91 152.033
69.6744 104.344 152.028
67.9837 100.604 151.357
70.5709 106.441 154.93
71.4448 105.287 152.638
70.0608 103.483 150.881
83.1877 117.903 165.44
81.9516 118.836 164.677
83.7609 118.879 163.768
80.3635 119.126 163.982
79.8512 118.436 165.739
82.4785 116.544 167.016
84.1391 116.399 166.133
85.475 118.518 162.852
84.1307 119.754 161.817
79.106 117.556 167.555
80.6122 116.19 168.055
78.5848 115.989 168.934
81.9096 114.883 168.381
77.5947 117.885 166.65
76.5674 115.454 169.185
78.3598 114.25 169.823
85.7432 115.643 165.419
86.5434 116.786 163.632
86.9711 114.647 164.21
86.631 117.624 161.906
84.9233 114.711 166.814
87.0005 112.785 164.64
87.3797 114.001 162.795
82.5711 120.321 160.57
80.4469 119.536 162.019
80.7279 119.879 159.914
78.6899 118.978 163.301
84.3639 120.008 159.799
80.861 119.537 158.328
78.7843 118.804 159.954
74.8576 116.917 164.691
73.3307 115.349 165.004
74.0157 115.802 163.597
71.9289 113.619 165.245
72.6636 114.494 166.413
75.9071 117.577 165.845
76.6199 118.155 164.025
74.6113 115.785 162.097
73.281 114.433 162.412
73.5167 115.039 167.634
75.6557 116.755 167.272
74.9979 115.265 168.67
72.1434 113.31 167.728
74.8239 113.72 169.604
77.2057 118.374 162.402
75.8908 116.929 161.308
77.3463 117.974 160.457
75.2536 115.56 160.39
78.0104 117.466 158.782
71.9584 112.742 162.311
71.2444 112.306 163.929
70.63 110.975 162.335
70.7263 111.747 165.303
72.6637 113.123 161.038
70.0952 109.989 160.933
69.5896 109.394 162.461
76.1592 90.0968 152.471
78.1206 91.0084 153.972
78.3847 91.0043 152.381
79.4491 91.8428 155.628
77.6323 91.1152 155.394
73.6735 89.7863 152.566
73.7969 89.9434 151.187
78.1724 91.5621 150.967
79.8633 92.4626 152.529
76.1537 90.9171 155.917
74.0847 90.4014 154.228
74.4899 90.9189 156.37
71.7304 89.7252 152.906
77.9973 91.6522 157.305
75.071 91.5828 158.181
72.7473 90.92 156.445
74.5995 90.5585 149.864
76.8358 91.5914 149.694
75.0849 91.7509 148.336
78.4427 93.068 150.293
71.9238 90.2673 150.002
73.2383 92.0443 147.563
75.6823 93.4874 148.029
81.1247 93.7024 154.142
81.1327 93.0333 155.604
81.8339 95.2216 155.928
80.9674 92.9508 157.154
80.83 94.5115 153.08
82.5293 97.1401 156.008
82.4945 96.5223 157.406
66.7593 90.5934 151.498
67.9329 90.0361 150.621
66.0631 90.9777 149.136
69.442 90.2982 149.751
69.6146 89.6945 152.22
67.4198 91.1787 153.636
65.9338 91.6033 152.279
64.5577 92.4398 147.999
66.2388 92.088 147.231
70.8248 90.0793 153.973
69.1253 90.9399 154.816
71.086 90.9339 155.943
68.5135 91.8401 156.046
71.8157 91.6992 157.785
64.8575 92.551 151.939
63.8538 92.9803 149.483
63.915 93.6792 151.552
63.6124 94.1464 147.504
65.8765 92.6024 154.226
63.9927 94.1964 153.946
63.2071 94.7947 151.299
68.5612 91.7703 147.375
70.7255 90.84 148.843
71.1536 91.8477 147.366
67.0723 93.303 146.35
71.4145 93.1754 146.73
82.3082 109.623 169.955
83.4865 111.491 169.103
83.9108 109.623 169.041
84.3456 113.2 168.078
82.7699 113.228 169.015
80.6566 109.557 170.516
81.1449 107.712 170.387
84.0754 107.777 168.548
85.0403 109.416 167.864
81.2013 113.244 169.5
80.1177 111.195 170.285
79.1579 112.852 170.071
81.8208 106.213 169.917
83.3874 106.061 168.695
82.2073 104.251 168.994
85.8846 110.474 166.867
85.6251 112.819 167.062
86.5983 111.702 165.705
86.3384 117.22 157.943
86.0184 116.187 156.055
86.8708 115.187 156.868
85.4222 114.67 154.521
84.8178 117.042 155.4
85.6464 118.867 158.871
86.5051 117.521 160.051
87.5116 114.234 157.927
87.1237 113.083 155.98
83.5452 118.033 155.897
84.5124 119.492 157.939
81.8137 119.182 157.078
87.1992 116.045 160.743
87.5843 114.278 159.496
87.507 114.093 161.307
86.5452 111.414 154.584
85.5179 112.413 153.602
85.5096 109.917 152.953
79.9471 95.0774 162.017
81.4756 96.1174 161.765
80.5403 94.2784 160.329
82.6116 97.2142 161.521
82.2627 97.6616 162.934
79.3389 95.687 163.614
78.4406 94.3657 162.341
79.5411 92.7256 159.101
80.9073 93.5635 158.76
81.9942 98.2216 164.286
80.2377 97.1426 164.634
81.3938 98.813 165.794
77.6222 93.1322 161.191
78.1667 92.289 159.132
76.4327 92.1238 159.63
81.7348 94.8816 158.622
82.715 97.0921 160.224
82.6132 96.7896 158.707
82.7991 99.3733 152.653
80.8561 98.6104 151.917
81.0247 97.1701 152.114
79.1014 97.8896 151.028
80.5696 99.9001 151.62
84.4549 101.202 152.748
84.2713 99.7137 153.587
80.8454 95.7764 152.523
79.7208 94.995 151.092
82.1024 101.645 151.647
84.4429 102.265 152.103
83.7169 103.642 151.837
83.7234 98.9483 154.44
81.7766 96.9188 153.877
82.8544 98.1058 155.399
78.5517 94.6701 149.907
78.0867 96.473 149.877
77.1854 94.8632 148.606
70.1394 108.07 168.664
69.3129 107.377 167.091
70.0072 109.41 167.558
68.7441 106.649 165.524
68.6268 105.485 166.569
70.6215 106.57 169.435
71.4828 108.583 169.824
70.9221 111.255 167.842
70.2512 110.52 166.366
68.7963 104.238 167.148
69.9788 104.722 168.872
69.1936 102.688 167.832
72.4205 110.319 169.994
72.0273 111.952 168.834
73.7004 112.141 169.845
69.7295 109.727 164.956
68.9235 107.423 164.412
69.2943 108.391 163.256
72.7229 110.531 157.068
74.344 111.506 156.923
73.5921 112.26 158.157
76.0038 112.401 156.707
75.0413 110.612 155.832
71.7701 108.754 156.019
71.2421 109.429 157.233
72.9696 112.747 159.573
74.4263 113.9 159.262
73.8645 108.811 154.954
72.0132 107.635 155.127
72.6978 106.72 153.994
70.6761 109.39 158.267
71.6781 111.446 159.675
70.279 109.684 159.661
75.7897 114.877 158.872
76.7326 113.965 157.432
77.3892 115.884 158.108
66.3448 93.9857 160.705
67.827 93.4877 161.466
67.2396 93.1528 159.11
69.319 93.1354 162.048
68.4805 94.083 163.404
65.8031 95.2712 161.872
65.275 94.6723 159.791
66.5399 92.814 156.736
67.9396 92.4267 157.614
67.8401 95.26 164.358
66.4199 96.1369 163.492
67.6126 97.181 165.158
64.8365 94.5194 158
65.5371 93.3799 156.153
64.3817 94.2835 155.836
69.4291 92.2812 158.359
70.2667 92.5989 160.752
71.2844 92.086 159.195
68.1453 97.357 147.383
66.5456 97.4635 148.284
65.8753 96.6684 146.263
65.9519 97.4573 149.619
68.0167 98.4184 150.522
70.1455 98.1863 149.151
69.7013 97.4299 147.048
66.4966 94.8754 145.892
64.0244 95.6139 146.612
68.9316 99.9575 150.459
70.2617 99.8113 149.902
70.2022 101.766 150.333
70.3021 96.3817 146.371
68.7997 94.4643 146.073
71.2665 94.5436 146.402
63.2658 95.5666 148.442
64.4919 97.0072 149.739
63.4099 95.8247 150.718
POLYGONS 1280  5120
3 164 162 163
3 163 44 164
3 162 43 163
3 164 42 162
3 166 165 163
3 163 43 166
3 165 44 163
3 166 14 165
3 168 167 162
3 162 42 168
3 167 43 162
3 168 13 167
3 170 169 164
3 164 44 170
3 169 42 164
3 170 12 169
3 173 171 172
3 172 46 173
3 171 43 172
3 173 45 171
3 167 174 172
3 172 43 167
3 174 46 172
3 167 13 174
3 175 166 171
3 171 45 175
3 166 43 171
3 175 14 166
3 177 176 173
3 173 46 177
3 176 45 173
3 177 4 176
3 180 178 179
3 179 48 180
3 178 42 179
3 180 47 178
3 169 181 179
3 179 42 169
3 181 48 179
3 169 12 181
3 182 168 178
3 178 47 182
3 168 42 178
3 182 13 168
3 184 183 180
3 180 48 184
3 183 47 180
3 184 8 183
3 187 185 186
3 186 50 187
3 185 44 186
3 187 49 185
3 165 188 186
3 186 44 165
3 188 50 186
3 165 14 188
3 189 170 185
3 185 49 189
3 170 44 185
3 189 12 170
3 191 190 187
3 187 50 191
3 190 49 187
3 191 7 190
3 194 192 193
3 193 53 194
3 192 52 193
3 194 51 192
3 196 195 193
3 193 52 196
3 195 53 193
3 196 16 195
3 198 197 192
3 192 51 198
3 197 52 192
3 198 14 197
3 200 199 194
3 194 53 200
3 199 51 194
3 200 15 199
3 203 201 202
3 202 45 203
3 201 52 202
3 203 54 201
3 197 175 202
3 202 52 197
3 175 45 202
3 197 14 175
3 204 196 201
3 201 54 204
3 196 52 201
3 204 16 196
3 176 205 203
3 203 45 176
3 205 54 203
3 176 4 205
3 208 206 207
3 207 55 208
3 206 51 207
3 208 50 206
3 199 209 207
3 207 51 199
3 209 55 207
3 199 15 209
3 188 198 206
3 206 50 188
3 198 51 206
3 188 14 198
3 210 191 208
3 208 55 210
3 191 50 208
3 210 7 191
3 213 211 212
3 212 57 213
3 211 53 212
3 213 56 211
3 195 214 212
3 212 53 195
3 214 57 212
3 195 16 214
3 215 200 211
3 211 56 215
3 200 53 211
3 215 15 200
3 217 216 213
3 213 57 217
3 216 56 213
3 217 9 216
3 220 218 219
3 219 60 220
3 218 59 219
3 220 58 218
3 222 221 219
3 219 59 222
3 221 60 219
3 222 19 221
3 224 223 218
3 218 58 224
3 223 59 218
3 224 18 223
3 226 225 220
3 220 60 226
3 225 58 220
3 226 17 225
3 229 227 228
3 228 62 229
3 227 59 228
3 229 61 227
3 223 230 228
3 228 59 223
3 230 62 228
3 223 18 230
3 231 222 227
3 227 61 231
3 222 59 227
3 231 19 222
3 233 232 229
3 229 62 233
3 232 61 229
3 233 5 232
3 236 234 235
3 235 64 236
3 234 58 235
3 236 63 234
3 225 237 235
3 235 58 225
3 237 64 235
3 225 17 237
3 238 224 234
3 234 63 238
3 224 58 234
3 238 18 224
3 240 239 236
3 236 64 240
3 239 63 236
3 240 6 239
3 243 241 242
3 242 66 243
3 241 60 242
3 243 65 241
3 221 244 242
3 242 60 221
3 244 66 242
3 221 19 244
3 245 226 241
3 241 65 245
3 226 60 241
3 245 17 226
3 247 246 243
3 243 66 247
3 246 65 243
3 247 11 246
3 250 248 249
3 249 69 250
3 248 68 249
3 250 67 248
3 252 251 249
3 249 68 252
3 251 69 249
3 252 18 251
3 254 253 248
3 248 67 254
3 253 68 248
3 254 21 253
3 256 255 250
3 250 69 256
3 255 67 250
3 256 20 255
3 259 257 258
3 258 70 259
3 257 68 258
3 259 62 257
3 253 260 258
3 258 68 253
3 260 70 258
3 253 21 260
3 230 252 257
3 257 62 230
3 252 68 257
3 230 18 252
3 261 233 259
3 259 70 261
3 233 62 259
3 261 5 233
3 264 262 263
3 263 72 264
3 262 67 263
3 264 71 262
3 255 265 263
3 263 67 255
3 265 72 263
3 255 20 265
3 266 254 262
3 262 71 266
3 254 67 262
3 266 21 254
3 268 267 264
3 264 72 268
3 267 71 264
3 268 10 267
3 271 269 270
3 270 63 271
3 269 69 270
3 271 73 269
3 251 238 270
3 270 69 251
3 238 63 270
3 251 18 238
3 272 256 269
3 269 73 272
3 256 69 269
3 272 20 256
3 239 273 271
3 271 63 239
3 273 73 271
3 239 6 273
3 276 274 275
3 275 76 276
3 274 75 275
3 276 74 274
3 278 277 275
3 275 75 278
3 277 76 275
3 278 24 277
3 280 279 274
3 274 74 280
3 279 75 274
3 280 23 279
3 282 281 276
3 276 76 282
3 281 74 276
3 282 22 281
3 285 283 284
3 284 78 285
3 283 75 284
3 285 77 283
3 279 286 284
3 284 75 279
3 286 78 284
3 279 23 286
3 287 278 283
3 283 77 287
3 278 75 283
3 287 24 278
3 289 288 285
3 285 78 289
3 288 77 285
3 289 0 288
3 292 290 291
3 291 80 292
3 290 74 291
3 292 79 290
3 281 293 291
3 291 74 281
3 293 80 291
3 281 22 293
3 294 280 290
3 290 79 294
3 280 74 290
3 294 23 280
3 296 295 292
3 292 80 296
3 295 79 292
3 296 4 295
3 299 297 298
3 298 82 299
3 297 76 298
3 299 81 297
3 277 300 298
3 298 76 277
3 300 82 298
3 277 24 300
3 301 282 297
3 297 81 301
3 282 76 297
3 301 22 282
3 303 302 299
3 299 82 303
3 302 81 299
3 303 3 302
3 306 304 305
3 305 85 306
3 304 84 305
3 306 83 304
3 308 307 305
3 305 84 308
3 307 85 305
3 308 26 307
3 310 309 304
3 304 83 310
3 309 84 304
3 310 24 309
3 312 311 306
3 306 85 312
3 311 83 306
3 312 25 311
3 315 313 314
3 314 77 315
3 313 84 314
3 315 86 313
3 309 287 314
3 314 84 309
3 287 77 314
3 309 24 287
3 316 308 313
3 313 86 316
3 308 84 313
3 316 26 308
3 288 317 315
3 315 77 288
3 317 86 315
3 288 0 317
3 320 318 319
3 319 87 320
3 318 83 319
3 320 82 318
3 311 321 319
3 319 83 311
3 321 87 319
3 311 25 321
3 300 310 318
3 318 82 300
3 310 83 318
3 300 24 310
3 322 303 320
3 320 87 322
3 303 82 320
3 322 3 303
3 325 323 324
3 324 89 325
3 323 85 324
3 325 88 323
3 307 326 324
3 324 85 307
3 326 89 324
3 307 26 326
3 327 312 323
3 323 88 327
3 312 85 323
3 327 25 312
3 329 328 325
3 325 89 329
3 328 88 325
3 329 5 328
3 332 330 331
3 331 92 332
3 330 91 331
3 332 90 330
3 334 333 331
3 331 91 334
3 333 92 331
3 334 29 333
3 336 335 330
3 330 90 336
3 335 91 330
3 336 28 335
3 338 337 332
3 332 92 338
3 337 90 332
3 338 27 337
3 341 339 340
3 340 94 341
3 339 91 340
3 341 93 339
3 335 342 340
3 340 91 335
3 342 94 340
3 335 28 342
3 343 334 339
3 339 93 343
3 334 91 339
3 343 29 334
3 345 344 341
3 341 94 345
3 344 93 341
3 345 2 344
3 348 346 347
3 347 96 348
3 346 90 347
3 348 95 346
3 337 349 347
3 347 90 337
3 349 96 347
3 337 27 349
3 350 336 346
3 346 95 350
3 336 90 346
3 350 28 336
3 352 351 348
3 348 96 352
3 351 95 348
3 352 7 351
3 355 353 354
3 354 98 355
3 353 92 354
3 355 97 353
3 333 356 354
3 354 92 333
3 356 98 354
3 333 29 356
3 357 338 353
3 353 97 357
3 338 92 353
3 357 27 338
3 359 358 355
3 355 98 359
3 358 97 355
3 359 1 358
3 362 360 361
3 361 101 362
3 360 100 361
3 362 99 360
3 364 363 361
3 361 100 364
3 363 101 361
3 364 31 363
3 366 365 360
3 360 99 366
3 365 100 360
3 366 29 365
3 368 367 362
3 362 101 368
3 367 99 362
3 368 30 367
3 371 369 370
3 370 93 371
3 369 100 370
3 371 102 369
3 365 343 370
3 370 100 365
3 343 93 370
3 365 29 343
3 372 364 369
3 369 102 372
3 364 100 369
3 372 31 364
3 344 373 371
3 371 93 344
3 373 102 371
3 344 2 373
3 376 374 375
3 375 103 376
3 374 99 375
3 376 98 374
3 367 377 375
3 375 99 367
3 377 103 375
3 367 30 377
3 356 366 374
3 374 98 356
3 366 99 374
3 356 29 366
3 378 359 376
3 376 103 378
3 359 98 376
3 378 1 359
3 381 379 380
3 380 105 381
3 379 101 380
3 381 104 379
3 363 382 380
3 380 101 363
3 382 105 380
3 363 31 382
3 383 368 379
3 379 104 383
3 368 101 379
3 383 30 368
3 385 384 381
3 381 105 385
3 384 104 381
3 385 6 384
3 388 386 387
3 387 108 388
3 386 107 387
3 388 106 386
3 390 389 387
3 387 107 390
3 389 108 387
3 390 34 389
3 392 391 386
3 386 106 392
3 391 107 386
3 392 33 391
3 394 393 388
3 388 108 394
3 393 106 388
3 394 32 393
3 397 395 396
3 396 110 397
3 395 107 396
3 397 109 395
3 391 398 396
3 396 107 391
3 398 110 396
3 391 33 398
3 399 390 395
3 395 109 399
3 390 107 395
3 399 34 390
3 401 400 397
3 397 110 401
3 400 109 397
3 401 8 400
3 404 402 403
3 403 112 404
3 402 106 403
3 404 111 402
3 393 405 403
3 403 106 393
3 405 112 403
3 393 32 405
3 406 392 402
3 402 111 406
3 392 106 402
3 406 33 392
3 408 407 404
3 404 112 408
3 407 111 404
3 408 0 407
3 411 409 410
3 410 114 411
3 409 108 410
3 411 113 409
3 389 412 410
3 410 108 389
3 412 114 410
3 389 34 412
3 413 394 409
3 409 113 413
3 394 108 409
3 413 32 394
3 415 414 411
3 411 114 415
3 414 113 411
3 415 11 414
3 418 416 417
3 417 117 418
3 416 116 417
3 418 115 416
3 420 419 417
3 417 116 420
3 419 117 417
3 420 36 419
3 422 421 416
3 416 115 422
3 421 116 416
3 422 34 421
3 424 423 418
3 418 117 424
3 423 115 418
3 424 35 423
3 427 425 426
3 426 109 427
3 425 116 426
3 427 118 425
3 421 399 426
3 426 116 421
3 399 109 426
3 421 34 399
3 428 420 425
3 425 118 428
3 420 116 425
3 428 36 420
3 400 429 427
3 427 109 400
3 429 118 427
3 400 8 429
3 432 430 431
3 431 119 432
3 430 115 431
3 432 114 430
3 423 433 431
3 431 115 423
3 433 119 431
3 423 35 433
3 412 422 430
3 430 114 412
3 422 115 430
3 412 34 422
3 434 415 432
3 432 119 434
3 415 114 432
3 434 11 415
3 437 435 436
3 436 121 437
3 435 117 436
3 437 120 435
3 419 438 436
3 436 117 419
3 438 121 436
3 419 36 438
3 439 424 435
3 435 120 439
3 424 117 435
3 439 35 424
3 441 440 437
3 437 121 441
3 440 120 437
3 441 1 440
3 444 442 443
3 443 124 444
3 442 123 443
3 444 122 442
3 446 445 443
3 443 123 446
3 445 124 443
3 446 39 445
3 448 447 442
3 442 122 448
3 447 123 442
3 448 38 447
3 450 449 444
3 444 124 450
3 449 122 444
3 450 37 449
3 453 451 452
3 452 126 453
3 451 123 452
3 453 125 451
3 447 454 452
3 452 123 447
3 454 126 452
3 447 38 454
3 455 446 451
3 451 125 455
3 446 123 451
3 455 39 446
3 457 456 453
3 453 126 457
3 456 125 453
3 457 9 456
3 460 458 459
3 459 128 460
3 458 122 459
3 460 127 458
3 449 461 459
3 459 122 449
3 461 128 459
3 449 37 461
3 462 448 458
3 458 127 462
3 448 122 458
3 462 38 448
3 464 463 460
3 460 128 464
3 463 127 460
3 464 10 463
3 467 465 466
3 466 130 467
3 465 124 466
3 467 129 465
3 445 468 466
3 466 124 445
3 468 130 466
3 445 39 468
3 469 450 465
3 465 129 469
3 450 124 465
3 469 37 450
3 471 470 467
3 467 130 471
3 470 129 467
3 471 3 470
3 474 472 473
3 473 133 474
3 472 132 473
3 474 131 472
3 476 475 473
3 473 132 476
3 475 133 473
3 476 38 475
3 478 477 472
3 472 131 478
3 477 132 472
3 478 41 477
3 480 479 474
3 474 133 480
3 479 131 474
3 480 40 479
3 483 481 482
3 482 134 483
3 481 132 482
3 483 126 481
3 477 484 482
3 482 132 477
3 484 134 482
3 477 41 484
3 454 476 481
3 481 126 454
3 476 132 481
3 454 38 476
3 485 457 483
3 483 134 485
3 457 126 483
3 485 9 457
3 488 486 487
3 487 136 488
3 486 131 487
3 488 135 486
3 479 489 487
3 487 131 479
3 489 136 487
3 479 40 489
3 490 478 486
3 486 135 490
3 478 131 486
3 490 41 478
3 492 491 488
3 488 136 492
3 491 135 488
3 492 2 491
3 495 493 494
3 494 127 495
3 493 133 494
3 495 137 493
3 475 462 494
3 494 133 475
3 462 127 494
3 475 38 462
3 496 480 493
3 493 137 496
3 480 133 493
3 496 40 480
3 463 497 495
3 495 127 463
3 497 137 495
3 463 10 497
3 500 498 499
3 499 140 500
3 498 139 499
3 500 138 498
3 502 501 499
3 499 139 502
3 501 140 499
3 502 33 501
3 504 503 498
3 498 138 504
3 503 139 498
3 504 13 503
3 506 505 500
3 500 140 506
3 505 138 500
3 506 23 505
3 509 507 508
3 508 47 509
3 507 139 508
3 509 110 507
3 503 182 508
3 508 139 503
3 182 47 508
3 503 13 182
3 398 502 507
3 507 110 398
3 502 139 507
3 398 33 502
3 183 401 509
3 509 47 183
3 401 110 509
3 183 8 401
3 512 510 511
3 511 79 512
3 510 138 511
3 512 46 510
3 505 294 511
3 511 138 505
3 294 79 511
3 505 23 294
3 174 504 510
3 510 46 174
3 504 138 510
3 174 13 504
3 295 177 512
3 512 79 295
3 177 46 512
3 295 4 177
3 515 513 514
3 514 111 515
3 513 140 514
3 515 78 513
3 501 406 514
3 514 140 501
3 406 111 514
3 501 33 406
3 286 506 513
3 513 78 286
3 506 140 513
3 286 23 506
3 407 289 515
3 515 111 407
3 289 78 515
3 407 0 289
3 518 516 517
3 517 143 518
3 516 142 517
3 518 141 516
3 520 519 517
3 517 142 520
3 519 143 517
3 520 19 519
3 522 521 516
3 516 141 522
3 521 142 516
3 522 32 521
3 524 523 518
3 518 143 524
3 523 141 518
3 524 26 523
3 527 525 526
3 526 113 527
3 525 142 526
3 527 66 525
3 521 413 526
3 526 142 521
3 413 113 526
3 521 32 413
3 244 520 525
3 525 66 244
3 520 142 525
3 244 19 520
3 414 247 527
3 527 113 414
3 247 66 527
3 414 11 247
3 530 528 529
3 529 86 530
3 528 141 529
3 530 112 528
3 523 316 529
3 529 141 523
3 316 86 529
3 523 26 316
3 405 522 528
3 528 112 405
3 522 141 528
3 405 32 522
3 317 408 530
3 530 86 317
3 408 112 530
3 317 0 408
3 533 531 532
3 532 61 533
3 531 143 532
3 533 89 531
3 519 231 532
3 532 143 519
3 231 61 532
3 519 19 231
3 326 524 531
3 531 89 326
3 524 143 531
3 326 26 524
3 232 329 533
3 533 61 232
3 329 89 533
3 232 5 329
3 536 534 535
3 535 146 536
3 534 145 535
3 536 144 534
3 538 537 535
3 535 145 538
3 537 146 535
3 538 22 537
3 540 539 534
3 534 144 540
3 539 145 534
3 540 16 539
3 542 541 536
3 536 146 542
3 541 144 536
3 542 39 541
3 545 543 544
3 544 54 545
3 543 145 544
3 545 80 543
3 539 204 544
3 544 145 539
3 204 54 544
3 539 16 204
3 293 538 543
3 543 80 293
3 538 145 543
3 293 22 538
3 205 296 545
3 545 54 205
3 296 80 545
3 205 4 296
3 548 546 547
3 547 125 548
3 546 144 547
3 548 57 546
3 541 455 547
3 547 144 541
3 455 125 547
3 541 39 455
3 214 540 546
3 546 57 214
3 540 144 546
3 214 16 540
3 456 217 548
3 548 125 456
3 217 57 548
3 456 9 217
3 551 549 550
3 550 81 551
3 549 146 550
3 551 130 549
3 537 301 550
3 550 146 537
3 301 81 550
3 537 22 301
3 468 542 549
3 549 130 468
3 542 146 549
3 468 39 542
3 302 471 551
3 551 81 302
3 471 130 551
3 302 3 471
3 554 552 553
3 553 149 554
3 552 148 553
3 554 147 552
3 556 555 553
3 553 148 556
3 555 149 553
3 556 21 555
3 558 557 552
3 552 147 558
3 557 148 552
3 558 25 557
3 560 559 554
3 554 149 560
3 559 147 554
3 560 37 559
3 563 561 562
3 562 88 563
3 561 148 562
3 563 70 561
3 557 327 562
3 562 148 557
3 327 88 562
3 557 25 327
3 260 556 561
3 561 70 260
3 556 148 561
3 260 21 556
3 328 261 563
3 563 88 328
3 261 70 563
3 328 5 261
3 566 564 565
3 565 129 566
3 564 147 565
3 566 87 564
3 559 469 565
3 565 147 559
3 469 129 565
3 559 37 469
3 321 558 564
3 564 87 321
3 558 147 564
3 321 25 558
3 470 322 566
3 566 129 470
3 322 87 566
3 470 3 322
3 569 567 568
3 568 71 569
3 567 149 568
3 569 128 567
3 555 266 568
3 568 149 555
3 266 71 568
3 555 21 266
3 461 560 567
3 567 128 461
3 560 149 567
3 461 37 560
3 267 464 569
3 569 71 267
3 464 128 569
3 267 10 464
3 572 570 571
3 571 152 572
3 570 151 571
3 572 150 570
3 574 573 571
3 571 151 574
3 573 152 571
3 574 27 573
3 576 575 570
3 570 150 576
3 575 151 570
3 576 12 575
3 578 577 572
3 572 152 578
3 577 150 572
3 578 36 577
3 581 579 580
3 580 49 581
3 579 151 580
3 581 96 579
3 575 189 580
3 580 151 575
3 189 49 580
3 575 12 189
3 349 574 579
3 579 96 349
3 574 151 579
3 349 27 574
3 190 352 581
3 581 49 190
3 352 96 581
3 190 7 352
3 584 582 583
3 583 118 584
3 582 150 583
3 584 48 582
3 577 428 583
3 583 150 577
3 428 118 583
3 577 36 428
3 181 576 582
3 582 48 181
3 576 150 582
3 181 12 576
3 429 184 584
3 584 118 429
3 184 48 584
3 429 8 184
3 587 585 586
3 586 97 587
3 585 152 586
3 587 121 585
3 573 357 586
3 586 152 573
3 357 97 586
3 573 27 357
3 438 578 585
3 585 121 438
3 578 152 585
3 438 36 578
3 358 441 587
3 587 97 358
3 441 121 587
3 358 1 441
3 590 588 589
3 589 155 590
3 588 154 589
3 590 153 588
3 592 591 589
3 589 154 592
3 591 155 589
3 592 17 591
3 594 593 588
3 588 153 594
3 593 154 588
3 594 30 593
3 596 595 590
3 590 155 596
3 595 153 590
3 596 35 595
3 599 597 598
3 598 104 599
3 597 154 598
3 599 64 597
3 593 383 598
3 598 154 593
3 383 104 598
3 593 30 383
3 237 592 597
3 597 64 237
3 592 154 597
3 237 17 592
3 384 240 599
3 599 104 384
3 240 64 599
3 384 6 240
3 602 600 601
3 601 120 602
3 600 153 601
3 602 103 600
3 595 439 601
3 601 153 595
3 439 120 601
3 595 35 439
3 377 594 600
3 600 103 377
3 594 153 600
3 377 30 594
3 440 378 602
3 602 120 440
3 378 103 602
3 440 1 378
3 605 603 604
3 604 65 605
3 603 155 604
3 605 119 603
3 591 245 604
3 604 155 591
3 245 65 604
3 591 17 245
3 433 596 603
3 603 119 433
3 596 155 603
3 433 35 596
3 246 434 605
3 605 65 246
3 434 119 605
3 246 11 434
3 608 606 607
3 607 158 608
3 606 157 607
3 608 156 606
3 610 609 607
3 607 157 610
3 609 158 607
3 610 15 609
3 612 611 606
3 606 156 612
3 611 157 606
3 612 28 611
3 614 613 608
3 608 158 614
3 613 156 608
3 614 41 613
3 617 615 616
3 616 95 617
3 615 157 616
3 617 55 615
3 611 350 616
3 616 157 611
3 350 95 616
3 611 28 350
3 209 610 615
3 615 55 209
3 610 157 615
3 209 15 610
3 351 210 617
3 617 95 351
3 210 55 617
3 351 7 210
3 620 618 619
3 619 135 620
3 618 156 619
3 620 94 618
3 613 490 619
3 619 156 613
3 490 135 619
3 613 41 490
3 342 612 618
3 618 94 342
3 612 156 618
3 342 28 612
3 491 345 620
3 620 135 491
3 345 94 620
3 491 2 345
3 623 621 622
3 622 56 623
3 621 158 622
3 623 134 621
3 609 215 622
3 622 158 609
3 215 56 622
3 609 15 215
3 484 614 621
3 621 134 484
3 614 158 621
3 484 41 614
3 216 485 623
3 623 56 216
3 485 134 623
3 216 9 485
3 626 624 625
3 625 161 626
3 624 160 625
3 626 159 624
3 628 627 625
3 625 160 628
3 627 161 625
3 628 31 627
3 630 629 624
3 624 159 630
3 629 160 624
3 630 20 629
3 632 631 626
3 626 161 632
3 631 159 626
3 632 40 631
3 635 633 634
3 634 73 635
3 633 160 634
3 635 105 633
3 629 272 634
3 634 160 629
3 272 73 634
3 629 20 272
3 382 628 633
3 633 105 382
3 628 160 633
3 382 31 628
3 273 385 635
3 635 73 273
3 385 105 635
3 273 6 385
3 638 636 637
3 637 137 638
3 636 159 637
3 638 72 636
3 631 496 637
3 637 159 631
3 496 137 637
3 631 40 496
3 265 630 636
3 636 72 265
3 630 159 636
3 265 20 630
3 497 268 638
3 638 137 497
3 268 72 638
3 497 10 268
3 641 639 640
3 640 102 641
3 639 161 640
3 641 136 639
3 627 372 640
3 640 161 627
3 372 102 640
3 627 31 372
3 489 632 639
3 639 136 489
3 632 161 639
3 489 40 632
3 373 492 641
3 641 102 373
3 492 136 641
3 373 2 492
