# vtk DataFile Version 3.0
this file was written using fslvtkio
ASCII
DATASET POLYDATA
POINTS 642 float
104.599 112.306 127.545
72.4903 111.177 125.817
78.0751 97.0281 116.062
99.4843 97.3572 118.01
99.6586 96.7598 143.878
98.2564 106.587 103.078
82.103 106.127 99.3449
77.455 96.6175 142.803
88.0416 113.204 138.735
88.7901 90.1462 124.915
89.2012 93.5597 104.947
88.1669 118.239 120.142
81.5662 103.662 145.442
94.561 103.875 145.398
87.8636 95.1266 150.143
83.5676 92.2325 136.316
93.843 92.1709 136.677
85.096 111.783 110.103
90.9696 108.642 92.6645
93.5864 112.11 111.425
84.8755 99.3287 94.6486
96.8785 98.5817 96.3999
99.6298 98.0937 131.551
103.353 105.659 140
101.973 106.718 124.371
99.6513 100.873 109.222
101.574 110.873 116.135
73.6716 105.181 138.441
77.9076 98.1526 130.367
76.7183 105.968 122.038
77.8707 109.371 114.303
78.6016 100.062 105.726
97.6358 118.48 124.36
99.524 115.798 137.492
87.1908 119.763 131.887
78.518 117.468 123.13
76.9726 114.851 137.179
95.8962 93.7558 109.495
87.6054 89.6043 117.112
94.988 91.1629 120.761
81.5298 93.6603 107.577
82.2179 91.28 121.152
88.1206 104.4 144.186
92.704 100.696 151.769
83.1604 100.442 152.196
95.7603 93.7611 149.415
100.799 101.724 148.657
91.5261 107.35 138.418
85.0877 107.259 138.341
75.5211 100.885 147.984
80.4449 93.6935 148.979
85.0891 90.8326 144.32
91.906 91.1194 144.404
88.6313 91.8017 137.288
97.0474 93.1237 140.915
80.0268 92.8775 140.233
86.2236 91.5193 130.598
91.4533 91.354 130.948
87.8016 110.088 100.882
91.9985 110.398 102.016
89.3557 111.302 110.473
95.7477 109.633 105.86
94.8858 107.445 96.7563
85.7929 107.84 94.0307
83.7535 109.52 103.631
86.0199 116.622 115.002
91.4461 116.089 116.043
91.1056 100.316 94.4289
95.3597 105.455 92.2699
87.4668 105.909 89.93
98.1036 102.852 98.8801
92.7953 95.3732 99.6208
87.168 95.2741 98.7212
82.71 102.83 94.8464
101.912 102.286 136.387
103.451 105.6 131.036
99.9765 102.279 128.263
106.753 108.643 124.924
104.207 108.919 132.733
102.83 101.332 143.586
99.3266 98.0593 137.949
99.2096 98.0547 124.56
99.4351 102.385 121.227
98.9738 104.583 117.731
103.835 108.474 120.043
97.7378 106.019 114.052
103.866 112.164 121.677
99.8027 99.1909 113.525
98.941 103.354 106.127
97.2465 107.869 110.644
75.4931 101.978 134.662
76.9602 102.031 126.528
74.4872 105.379 129.139
78.4618 101.571 119.332
78.3994 97.8267 123.331
77.8521 97.823 136.858
74.8284 100.953 141.963
72.9766 108.336 131.214
71.2385 107.524 123.082
75.9104 107.605 118.141
79.5214 102.851 114.149
80.4934 104.626 109.83
77.6441 98.6603 111.054
73.5962 110.886 119.707
80.7819 107.372 106.546
80.1959 102.776 101.934
99.0277 118.92 131.598
93.7895 119.564 135.451
92.8687 120.055 128.69
87.2152 118.078 136.775
94.1524 114.809 139.393
103.027 114.856 132.739
101.822 115.904 126.042
92.9462 118.891 122.108
87.3024 119.568 125.738
82.0242 120.092 128.036
81.2936 119.341 135.025
76.791 117.82 130.733
82.147 114.534 139.211
83.0322 118.85 121.196
74.95 114.609 124.678
73.8074 113.656 131.742
92.3768 90.2853 114.43
93.3912 85.1934 117.37
96.2719 89.7165 115.667
92.4032 89.6718 122.989
88.1126 86.2867 119.612
88.1335 92.4009 112.539
92.57 93.765 107.032
98.5585 94.246 113.268
98.2003 93.6275 119.955
81.7694 91.042 115.825
83.5836 85.3515 117.515
84.542 90.4977 114.226
84.8264 89.8127 123.288
78.7327 93.4745 119.246
78.2288 93.7856 111.544
85.4228 94.1747 105.695
99.2832 104.594 142.689
95.9597 108.331 137.633
101.659 110.691 136.874
100.157 115.108 120.306
95.8945 116.457 118
97.4715 112.382 113.827
94.8334 92.0604 128.581
97.4163 94.7088 134.384
97.8721 94.4999 126.348
99.9586 96.1043 108.218
99.2022 99.03 102.428
97.1446 94.7934 102.534
80.6782 107.68 137.336
76.8989 104.435 142.529
75.2068 109.822 136.155
77.1412 113.824 118.53
81.3035 110.96 111.796
81.3351 115.934 116.447
79.4959 94.492 125.993
79.7224 94.4625 133.658
82.1744 91.7978 128.813
82.5548 95.0015 100.165
80.3712 98.8977 99.0624
78.3269 95.8273 106.2
89.9352 102.527 147.964
87.9298 101.225 150.564
85.9947 102.372 148.096
85.7977 98.0733 151.852
90.1213 98.1396 151.77
93.7992 102.496 148.582
91.3016 104.449 144.316
84.8577 104.241 144.526
82.0878 102.129 148.987
94.4165 97.3406 151.958
96.7289 100.581 151.072
97.6672 97.9648 151.198
97.6 102.622 147.903
91.9882 94.8051 150.491
98.4148 95.6164 148.088
99.9457 98.1402 148.24
89.8164 105.332 140.959
86.5513 105.216 141.015
88.264 107.171 138.243
83.7915 104.919 141.589
92.5896 105.143 141.595
89.9043 110.415 138.738
86.5174 110.433 138.775
79.1945 99.9043 151.138
81.7679 96.9818 151.89
78.3487 97.244 150.423
84.1018 94.2621 150.477
78.4925 102.169 148.418
76.4704 97.7169 146.983
78.3398 95.3138 146.825
88.4944 91.3478 144.77
90.2531 90.0621 140.694
86.7715 90.2975 140.732
91.4776 91.6032 137.427
93.4006 89.9637 140.797
90.2772 92.839 148.15
86.3055 92.3969 148.083
83.7342 90.1442 140.503
85.8114 91.7239 137.093
95.1997 91.1973 142.87
93.822 91.8455 147.53
97.0311 93.3283 145.415
95.4748 92.0237 138.838
98.3884 94.9763 142.678
82.8691 91.805 147.37
81.9264 91.3275 143.108
80.1444 93.2365 144.967
81.8018 91.8809 138.648
78.6195 94.6538 141.939
87.3266 91.8714 134.366
90.1187 91.9829 134.589
88.8148 91.4488 131.418
92.4515 91.6468 133.992
85.074 91.5201 133.76
87.7152 91.033 128.092
89.9662 91.1558 128.323
89.9044 110.062 101.582
90.7505 110.742 106.344
88.3718 110.542 106.026
91.4275 111.828 110.456
92.5121 110.806 106.93
91.2537 109.368 97.5007
89.1931 109.183 96.6368
86.8493 110.68 105.976
87.3335 111.576 109.821
94.0937 110.359 103.271
93.4092 109.254 98.7579
95.2474 108.861 101.069
93.0186 108.493 94.7037
94.2172 110.432 107.827
96.7804 108.157 103.403
96.4383 107.259 99.7594
87.1366 108.981 96.9898
85.8849 110.143 102.113
85.0821 108.771 99.0192
84.975 110.507 106.449
88.2685 108.813 92.6922
84.2697 107.255 96.9565
83.3188 107.931 100.509
87.7511 113.793 112.574
90.3583 113.827 112.998
88.7421 115.863 115.044
92.8429 114.424 113.912
85.2494 114.276 112.747
87.0815 117.393 117.748
89.8619 117.448 118.006
92.863 103.701 91.6584
91.8094 106.856 89.9809
90.4159 103.96 91.1583
88.8396 108.441 90.0643
94.1485 108.115 92.1196
95.4209 102.142 93.5632
93.7702 100.32 94.361
88.5982 101.189 93.678
87.0911 102.722 91.838
95.5416 106.128 94.9039
96.7332 103.325 95.2159
97.3013 105.433 98.4007
97.3788 101.037 96.185
98.3024 104.947 101.083
92.225 97.2245 96.319
89.2138 97.8479 96.0667
90.0985 95.314 98.3939
86.7801 97.8259 95.4842
94.6808 97.1313 96.6104
90.9481 94.3923 101.633
88.5033 94.6418 101.49
84.5323 103.974 91.953
85.6857 107.133 91.845
83.5096 105.584 95.329
83.6903 101.012 93.632
82.1436 104.647 97.3412
102.502 103.781 133.507
101.458 104.228 129.961
100.92 102.337 132.119
101.067 104.445 126.701
102.718 105.892 127.807
103.264 105.478 135.45
103.261 103.815 138.107
100.184 100.682 134.26
99.8889 100.208 130.694
104.612 107.235 127.579
104.021 107.243 131.602
105.456 108.839 128.416
103.079 107.09 135.994
104.299 107.043 125.07
106.089 110.302 126.412
104.921 110.447 129.958
102.351 101.827 139.552
100.105 100.245 137.417
100.803 100.079 141.605
99.405 98.2484 134.581
103.945 103.137 141.645
100.871 98.9736 145.205
99.5019 97.7886 141.075
99.7692 100.031 126.723
99.7597 102.689 124.602
99.2138 100.138 123.009
100.683 104.634 123.306
99.6147 98.0861 128.099
99.0074 98.0176 121.225
99.1319 99.8728 119.597
100.855 107.184 119.508
100.362 108.013 117.544
98.113 105.174 115.791
99.9675 108.536 115.655
102.868 109.408 117.677
103.011 107.605 122.29
100.681 106.073 121.224
98.531 102.409 113.629
98.0243 103.231 111.813
104.814 110.31 120.201
105.871 108.253 122.329
106.033 110.556 123.264
102.894 111.705 118.857
104.55 112.271 124.529
99.3436 103.525 119.335
99.1534 101.405 115.02
99.2679 100.388 117.073
99.757 100.298 111.425
99.6534 98.1922 115.83
98.2122 104.324 110.261
97.7215 107.064 112.819
98.4812 105.844 108.492
99.0758 109.339 113.745
98.9583 102.07 107.915
99.0704 105.014 104.698
97.9437 107.389 106.802
76.1949 102.034 130.352
75.9037 104.053 128.054
75.2906 103.797 131.925
75.6025 105.72 125.668
76.6265 104.124 124.553
77.4278 100.052 128.981
76.7793 100.295 132.726
74.3395 103.544 136.383
74.2047 105.269 133.592
77.8084 102.16 122.871
77.7932 100.007 125.158
78.3165 99.7186 121.391
77.9926 98.0181 126.907
77.4753 103.918 121.074
78.5042 99.4036 117.935
78.2206 97.6511 119.632
77.1088 99.982 136.186
75.206 101.474 138.092
76.5748 99.5896 140.186
73.601 102.807 140.079
77.8842 98.1814 133.493
77.7533 97.5168 140.062
76.2332 98.6373 143.824
73.0409 106.648 130.061
72.9048 106.443 126.091
71.7003 107.98 126.849
74.1058 106.674 123.101
73.6959 106.658 134.342
72.1513 109.738 128.165
71.2382 109.212 124.254
78.7558 105.366 116.22
80.2528 103.669 112.124
79.2039 106.042 114.453
79.8193 102.297 107.87
79.1186 101.227 109.963
78.4104 104.635 118.339
76.4478 106.67 119.85
76.8237 108.24 116.027
79.7237 107.021 112.682
78.4658 100.486 112.544
78.8331 102.441 117.068
78.1577 99.803 115.074
77.8075 99.2797 108.289
77.8119 97.9457 113.885
73.2395 107.619 120.571
73.4477 108.989 118.196
71.6439 109.129 121.138
75.1132 110.305 116.744
72.7853 110.935 122.742
80.2314 106.088 108.498
79.9536 103.701 105.867
80.104 105.357 104.013
79.6513 101.472 104.034
80.3419 108.014 110.85
81.2643 107.18 102.808
81.0335 104.557 100.73
96.6565 119.897 133.587
93.572 120.098 131.964
96.1614 119.871 130.182
90.3933 119.755 130.877
90.8844 119.55 133.759
96.7384 118.646 136.91
98.9976 118.096 135.038
98.0076 118.974 128.123
95.5501 119.657 127.033
90.7659 118.486 136.483
93.7946 117.851 138.206
90.8817 116.494 138.438
96.8366 115.851 138.461
87.5159 119.318 134.458
87.3895 116.021 138.381
90.944 113.821 139.249
101.297 117.225 132.627
100.589 117.686 129.064
102.734 115.85 129.552
99.6142 117.424 125.858
101.382 115.804 135.447
103.797 113.497 129.864
103.332 114.016 126.548
92.9494 119.552 125.332
90.0852 119.845 127.48
90.1896 119.473 124.178
87.3858 120.047 128.939
95.4179 118.968 123.431
90.5786 118.834 120.978
87.6153 118.996 122.81
81.5529 120.148 131.651
78.8863 118.91 132.887
79.4072 119.267 129.425
76.8817 117.067 134.301
78.8332 117.765 136.122
84.2265 119.921 133.431
84.3317 120.41 130.292
79.791 118.981 126.022
77.7727 117.933 127.326
81.3754 117.693 137.692
84.3085 119.03 136.103
84.3863 117.044 138.64
79.5291 115.118 138.245
85.1176 113.85 139.453
84.8277 120.232 127.186
82.2756 119.644 124.724
84.9038 119.517 123.74
80.5535 118.58 122.296
85.5899 118.614 120.585
75.641 116.437 127.783
75.2359 115.866 131.528
73.9696 114.493 128.295
75.117 114.792 134.745
76.6705 116.472 124.555
73.4643 112.893 125.059
73.045 112.229 128.655
93.087 86.1813 114.152
96.8657 85.3947 115.45
94.7109 89.3686 114.393
96.0297 88.791 117.602
95.1785 86.8517 118.149
91.2776 87.2214 116.591
90.9437 89.6263 115.721
93.7767 92.2517 112.547
95.4383 92.295 113.437
93.1398 87.3183 120.1
90.9902 86.3415 118.904
90.7488 87.2861 121.5
88.2961 87.1669 117.758
93.9191 90.1185 121.298
90.5472 90.0168 124.16
88.3139 87.5824 122.266
90.1787 91.7878 113.741
91.7571 92.7605 111.755
90.2244 92.5009 110.109
94.1181 93.5556 108.721
88.1123 91.217 115.678
88.7609 93.1078 108.491
91.2029 93.6256 105.819
96.3793 92.7875 115.188
96.0431 92.0057 117.752
97.8716 94.0367 117.019
96.206 92.125 120.315
96.8516 93.8488 111.566
99.822 95.4808 115.45
99.3956 95.4546 118.949
81.408 87.6497 116.457
83.3458 85.725 114.613
83.0213 90.5011 114.577
85.5345 89.274 115.601
85.9322 86.2729 116.385
82.4354 88.141 118.781
81.8213 90.2983 118.092
81.8915 92.575 112.186
83.4662 93.0129 111.121
85.9405 85.8132 118.809
84.0241 87.4712 120.18
86.1583 87.5511 121.682
83.4207 90.4594 122.049
86.85 90.0419 124.355
80.8181 92.4722 117.534
80.4234 92.9761 114.032
78.5729 93.5755 115.859
79.7351 93.1726 109.75
80.6174 92.413 120.601
77.9021 95.3159 117.784
77.9006 95.0567 113.839
85.0437 93.0577 110.68
86.2793 91.5347 113.869
87.0895 93.3795 109.939
83.7648 93.8964 106.951
87.1053 93.8849 105.283
97.0972 106.093 140.348
98.5364 109.672 137.69
99.384 107.084 138.801
101.387 113.507 137.344
98.1151 112.699 138.394
94.651 105.454 140.966
96.7656 104.115 144.222
101.342 105.463 141.248
101.639 107.765 137.386
95.7517 112.25 138.807
93.7049 107.703 137.619
92.696 111.377 139.085
99.595 103.943 145.283
103.3 104.327 143.276
102.446 101.507 145.915
103.404 109.796 134.769
103.038 113.031 134.836
103.927 111.855 131.975
98.1161 116.108 119.047
96.8399 114.654 115.524
99.008 114.07 117.035
95.3716 112.198 112.057
94.819 114.762 114.689
96.8633 117.636 121.201
99.0455 116.846 122.442
100.839 112.987 118.186
99.6394 111.794 114.881
93.8348 116.401 116.911
94.8002 118.138 120.218
92.3164 117.576 119.08
100.895 115.736 123.269
102.096 113.663 120.946
102.909 114.016 123.757
97.5461 110.037 112.279
95.8338 110.458 110.273
96.7372 108.645 108.027
96.0867 93.2631 131.518
97.57 94.6222 130.339
96.5461 93.041 127.49
98.8139 96.1776 128.986
98.7045 96.1923 132.751
95.6487 93.403 135.223
94.3907 92.392 132.908
95.3039 91.6162 124.673
96.8339 92.588 123.916
98.4019 96.1799 136.147
96.6482 94.115 137.869
98.4861 95.6491 139.633
93.3148 91.4715 129.928
93.5536 91.1822 125.151
91.7103 90.9171 126.73
97.9857 93.8122 122.703
98.672 96.2203 125.524
98.586 95.9505 121.968
99.5954 97.494 105.256
98.3165 96.8174 101.481
99.0284 95.2897 104.979
97.115 96.0479 98.8079
98.3118 98.5955 98.8923
99.77 99.7712 105.942
100.448 98.4255 108.444
98.573 94.2066 108.293
96.7365 94.199 106.046
98.5535 100.606 99.7467
98.9629 100.959 104.037
98.8398 102.875 102.544
100.479 97.4486 110.945
99.1189 94.9261 110.448
100.483 96.2024 113.278
95.2995 94.2831 104.891
95.0723 95.1647 100.368
92.766 94.6061 103.384
79.3481 105.769 140.373
76.8673 106.773 138.472
78.3183 108.831 137.068
74.9673 107.15 136.388
74.8148 105.225 140.67
79.1754 103.652 144.607
81.6673 105.188 141.231
78.5181 111.858 137.707
75.3779 112.525 136.289
73.9329 103.597 142.299
76.3915 103.296 145.391
74.6963 100.772 144.935
82.8574 107.351 137.605
80.7593 111.762 138.418
83.6766 111.219 138.768
73.7007 112.091 133.88
73.6394 109.193 133.797
72.7507 110.893 130.729
78.5897 112.819 114.8
81.013 113.558 113.711
79.2644 114.931 117.196
83.1636 114.238 113.179
83.2877 111.443 110.563
79.3685 110.29 112.934
76.728 111.717 116.167
77.7489 115.734 120.863
79.8227 116.99 119.758
83.1024 109.952 108.003
81.4632 108.965 109.482
82.1888 108.454 104.833
75.3807 112.452 119.316
76.0188 114.572 121.833
74.5174 112.549 122.374
82.0019 117.516 118.933
83.65 116.238 115.525
84.5827 117.76 118.07
79.5909 94.3622 129.824
81.2129 93.0379 131.505
80.6302 92.8258 127.338
82.9845 92.0464 132.808
81.5502 93.092 135.072
78.5382 96.0654 131.905
78.8708 96.2631 128.301
80.2694 92.5225 123.907
81.8206 91.656 124.936
80.3901 93.9409 137.121
78.6674 95.9958 135.253
78.8002 95.4812 138.84
78.5572 96.1678 124.763
79.0182 93.7645 122.374
78.4163 95.754 121.087
83.512 91.1364 125.773
84.1739 91.5395 129.879
85.5058 90.7674 126.845
81.3912 96.7625 98.8527
79.5809 97.1965 102.254
80.331 95.3786 102.768
78.1097 97.86 105.326
79.516 99.237 102.491
82.1012 98.6446 96.0329
83.7759 96.5922 96.5852
81.8024 94.4146 104.101
79.3374 94.1989 106.266
80.07 100.757 100.315
81.834 100.47 96.2754
81.2708 102.497 98.1755
84.9235 95.5154 98.2727
83.6066 94.5619 102.871
86.2173 94.6834 102.177
77.7504 94.4714 108.755
77.3366 97.0574 108.561
77.4826 96.059 111.505
POLYGONS 1280  5120
3 164 162 163
3 163 44 164
3 162 43 163
3 164 42 162
3 166 165 163
3 163 43 166
3 165 44 163
3 166 14 165
3 168 167 162
3 162 42 168
3 167 43 162
3 168 13 167
3 170 169 164
3 164 44 170
3 169 42 164
3 170 12 169
3 173 171 172
3 172 46 173
3 171 43 172
3 173 45 171
3 167 174 172
3 172 43 167
3 174 46 172
3 167 13 174
3 175 166 171
3 171 45 175
3 166 43 171
3 175 14 166
3 177 176 173
3 173 46 177
3 176 45 173
3 177 4 176
3 180 178 179
3 179 48 180
3 178 42 179
3 180 47 178
3 169 181 179
3 179 42 169
3 181 48 179
3 169 12 181
3 182 168 178
3 178 47 182
3 168 42 178
3 182 13 168
3 184 183 180
3 180 48 184
3 183 47 180
3 184 8 183
3 187 185 186
3 186 50 187
3 185 44 186
3 187 49 185
3 165 188 186
3 186 44 165
3 188 50 186
3 165 14 188
3 189 170 185
3 185 49 189
3 170 44 185
3 189 12 170
3 191 190 187
3 187 50 191
3 190 49 187
3 191 7 190
3 194 192 193
3 193 53 194
3 192 52 193
3 194 51 192
3 196 195 193
3 193 52 196
3 195 53 193
3 196 16 195
3 198 197 192
3 192 51 198
3 197 52 192
3 198 14 197
3 200 199 194
3 194 53 200
3 199 51 194
3 200 15 199
3 203 201 202
3 202 45 203
3 201 52 202
3 203 54 201
3 197 175 202
3 202 52 197
3 175 45 202
3 197 14 175
3 204 196 201
3 201 54 204
3 196 52 201
3 204 16 196
3 176 205 203
3 203 45 176
3 205 54 203
3 176 4 205
3 208 206 207
3 207 55 208
3 206 51 207
3 208 50 206
3 199 209 207
3 207 51 199
3 209 55 207
3 199 15 209
3 188 198 206
3 206 50 188
3 198 51 206
3 188 14 198
3 210 191 208
3 208 55 210
3 191 50 208
3 210 7 191
3 213 211 212
3 212 57 213
3 211 53 212
3 213 56 211
3 195 214 212
3 212 53 195
3 214 57 212
3 195 16 214
3 215 200 211
3 211 56 215
3 200 53 211
3 215 15 200
3 217 216 213
3 213 57 217
3 216 56 213
3 217 9 216
3 220 218 219
3 219 60 220
3 218 59 219
3 220 58 218
3 222 221 219
3 219 59 222
3 221 60 219
3 222 19 221
3 224 223 218
3 218 58 224
3 223 59 218
3 224 18 223
3 226 225 220
3 220 60 226
3 225 58 220
3 226 17 225
3 229 227 228
3 228 62 229
3 227 59 228
3 229 61 227
3 223 230 228
3 228 59 223
3 230 62 228
3 223 18 230
3 231 222 227
3 227 61 231
3 222 59 227
3 231 19 222
3 233 232 229
3 229 62 233
3 232 61 229
3 233 5 232
3 236 234 235
3 235 64 236
3 234 58 235
3 236 63 234
3 225 237 235
3 235 58 225
3 237 64 235
3 225 17 237
3 238 224 234
3 234 63 238
3 224 58 234
3 238 18 224
3 240 239 236
3 236 64 240
3 239 63 236
3 240 6 239
3 243 241 242
3 242 66 243
3 241 60 242
3 243 65 241
3 221 244 242
3 242 60 221
3 244 66 242
3 221 19 244
3 245 226 241
3 241 65 245
3 226 60 241
3 245 17 226
3 247 246 243
3 243 66 247
3 246 65 243
3 247 11 246
3 250 248 249
3 249 69 250
3 248 68 249
3 250 67 248
3 252 251 249
3 249 68 252
3 251 69 249
3 252 18 251
3 254 253 248
3 248 67 254
3 253 68 248
3 254 21 253
3 256 255 250
3 250 69 256
3 255 67 250
3 256 20 255
3 259 257 258
3 258 70 259
3 257 68 258
3 259 62 257
3 253 260 258
3 258 68 253
3 260 70 258
3 253 21 260
3 230 252 257
3 257 62 230
3 252 68 257
3 230 18 252
3 261 233 259
3 259 70 261
3 233 62 259
3 261 5 233
3 264 262 263
3 263 72 264
3 262 67 263
3 264 71 262
3 255 265 263
3 263 67 255
3 265 72 263
3 255 20 265
3 266 254 262
3 262 71 266
3 254 67 262
3 266 21 254
3 268 267 264
3 264 72 268
3 267 71 264
3 268 10 267
3 271 269 270
3 270 63 271
3 269 69 270
3 271 73 269
3 251 238 270
3 270 69 251
3 238 63 270
3 251 18 238
3 272 256 269
3 269 73 272
3 256 69 269
3 272 20 256
3 239 273 271
3 271 63 239
3 273 73 271
3 239 6 273
3 276 274 275
3 275 76 276
3 274 75 275
3 276 74 274
3 278 277 275
3 275 75 278
3 277 76 275
3 278 24 277
3 280 279 274
3 274 74 280
3 279 75 274
3 280 23 279
3 282 281 276
3 276 76 282
3 281 74 276
3 282 22 281
3 285 283 284
3 284 78 285
3 283 75 284
3 285 77 283
3 279 286 284
3 284 75 279
3 286 78 284
3 279 23 286
3 287 278 283
3 283 77 287
3 278 75 283
3 287 24 278
3 289 288 285
3 285 78 289
3 288 77 285
3 289 0 288
3 292 290 291
3 291 80 292
3 290 74 291
3 292 79 290
3 281 293 291
3 291 74 281
3 293 80 291
3 281 22 293
3 294 280 290
3 290 79 294
3 280 74 290
3 294 23 280
3 296 295 292
3 292 80 296
3 295 79 292
3 296 4 295
3 299 297 298
3 298 82 299
3 297 76 298
3 299 81 297
3 277 300 298
3 298 76 277
3 300 82 298
3 277 24 300
3 301 282 297
3 297 81 301
3 282 76 297
3 301 22 282
3 303 302 299
3 299 82 303
3 302 81 299
3 303 3 302
3 306 304 305
3 305 85 306
3 304 84 305
3 306 83 304
3 308 307 305
3 305 84 308
3 307 85 305
3 308 26 307
3 310 309 304
3 304 83 310
3 309 84 304
3 310 24 309
3 312 311 306
3 306 85 312
3 311 83 306
3 312 25 311
3 315 313 314
3 314 77 315
3 313 84 314
3 315 86 313
3 309 287 314
3 314 84 309
3 287 77 314
3 309 24 287
3 316 308 313
3 313 86 316
3 308 84 313
3 316 26 308
3 288 317 315
3 315 77 288
3 317 86 315
3 288 0 317
3 320 318 319
3 319 87 320
3 318 83 319
3 320 82 318
3 311 321 319
3 319 83 311
3 321 87 319
3 311 25 321
3 300 310 318
3 318 82 300
3 310 83 318
3 300 24 310
3 322 303 320
3 320 87 322
3 303 82 320
3 322 3 303
3 325 323 324
3 324 89 325
3 323 85 324
3 325 88 323
3 307 326 324
3 324 85 307
3 326 89 324
3 307 26 326
3 327 312 323
3 323 88 327
3 312 85 323
3 327 25 312
3 329 328 325
3 325 89 329
3 328 88 325
3 329 5 328
3 332 330 331
3 331 92 332
3 330 91 331
3 332 90 330
3 334 333 331
3 331 91 334
3 333 92 331
3 334 29 333
3 336 335 330
3 330 90 336
3 335 91 330
3 336 28 335
3 338 337 332
3 332 92 338
3 337 90 332
3 338 27 337
3 341 339 340
3 340 94 341
3 339 91 340
3 341 93 339
3 335 342 340
3 340 91 335
3 342 94 340
3 335 28 342
3 343 334 339
3 339 93 343
3 334 91 339
3 343 29 334
3 345 344 341
3 341 94 345
3 344 93 341
3 345 2 344
3 348 346 347
3 347 96 348
3 346 90 347
3 348 95 346
3 337 349 347
3 347 90 337
3 349 96 347
3 337 27 349
3 350 336 346
3 346 95 350
3 336 90 346
3 350 28 336
3 352 351 348
3 348 96 352
3 351 95 348
3 352 7 351
3 355 353 354
3 354 98 355
3 353 92 354
3 355 97 353
3 333 356 354
3 354 92 333
3 356 98 354
3 333 29 356
3 357 338 353
3 353 97 357
3 338 92 353
3 357 27 338
3 359 358 355
3 355 98 359
3 358 97 355
3 359 1 358
3 362 360 361
3 361 101 362
3 360 100 361
3 362 99 360
3 364 363 361
3 361 100 364
3 363 101 361
3 364 31 363
3 366 365 360
3 360 99 366
3 365 100 360
3 366 29 365
3 368 367 362
3 362 101 368
3 367 99 362
3 368 30 367
3 371 369 370
3 370 93 371
3 369 100 370
3 371 102 369
3 365 343 370
3 370 100 365
3 343 93 370
3 365 29 343
3 372 364 369
3 369 102 372
3 364 100 369
3 372 31 364
3 344 373 371
3 371 93 344
3 373 102 371
3 344 2 373
3 376 374 375
3 375 103 376
3 374 99 375
3 376 98 374
3 367 377 375
3 375 99 367
3 377 103 375
3 367 30 377
3 356 366 374
3 374 98 356
3 366 99 374
3 356 29 366
3 378 359 376
3 376 103 378
3 359 98 376
3 378 1 359
3 381 379 380
3 380 105 381
3 379 101 380
3 381 104 379
3 363 382 380
3 380 101 363
3 382 105 380
3 363 31 382
3 383 368 379
3 379 104 383
3 368 101 379
3 383 30 368
3 385 384 381
3 381 105 385
3 384 104 381
3 385 6 384
3 388 386 387
3 387 108 388
3 386 107 387
3 388 106 386
3 390 389 387
3 387 107 390
3 389 108 387
3 390 34 389
3 392 391 386
3 386 106 392
3 391 107 386
3 392 33 391
3 394 393 388
3 388 108 394
3 393 106 388
3 394 32 393
3 397 395 396
3 396 110 397
3 395 107 396
3 397 109 395
3 391 398 396
3 396 107 391
3 398 110 396
3 391 33 398
3 399 390 395
3 395 109 399
3 390 107 395
3 399 34 390
3 401 400 397
3 397 110 401
3 400 109 397
3 401 8 400
3 404 402 403
3 403 112 404
3 402 106 403
3 404 111 402
3 393 405 403
3 403 106 393
3 405 112 403
3 393 32 405
3 406 392 402
3 402 111 406
3 392 106 402
3 406 33 392
3 408 407 404
3 404 112 408
3 407 111 404
3 408 0 407
3 411 409 410
3 410 114 411
3 409 108 410
3 411 113 409
3 389 412 410
3 410 108 389
3 412 114 410
3 389 34 412
3 413 394 409
3 409 113 413
3 394 108 409
3 413 32 394
3 415 414 411
3 411 114 415
3 414 113 411
3 415 11 414
3 418 416 417
3 417 117 418
3 416 116 417
3 418 115 416
3 420 419 417
3 417 116 420
3 419 117 417
3 420 36 419
3 422 421 416
3 416 115 422
3 421 116 416
3 422 34 421
3 424 423 418
3 418 117 424
3 423 115 418
3 424 35 423
3 427 425 426
3 426 109 427
3 425 116 426
3 427 118 425
3 421 399 426
3 426 116 421
3 399 109 426
3 421 34 399
3 428 420 425
3 425 118 428
3 420 116 425
3 428 36 420
3 400 429 427
3 427 109 400
3 429 118 427
3 400 8 429
3 432 430 431
3 431 119 432
3 430 115 431
3 432 114 430
3 423 433 431
3 431 115 423
3 433 119 431
3 423 35 433
3 412 422 430
3 430 114 412
3 422 115 430
3 412 34 422
3 434 415 432
3 432 119 434
3 415 114 432
3 434 11 415
3 437 435 436
3 436 121 437
3 435 117 436
3 437 120 435
3 419 438 436
3 436 117 419
3 438 121 436
3 419 36 438
3 439 424 435
3 435 120 439
3 424 117 435
3 439 35 424
3 441 440 437
3 437 121 441
3 440 120 437
3 441 1 440
3 444 442 443
3 443 124 444
3 442 123 443
3 444 122 442
3 446 445 443
3 443 123 446
3 445 124 443
3 446 39 445
3 448 447 442
3 442 122 448
3 447 123 442
3 448 38 447
3 450 449 444
3 444 124 450
3 449 122 444
3 450 37 449
3 453 451 452
3 452 126 453
3 451 123 452
3 453 125 451
3 447 454 452
3 452 123 447
3 454 126 452
3 447 38 454
3 455 446 451
3 451 125 455
3 446 123 451
3 455 39 446
3 457 456 453
3 453 126 457
3 456 125 453
3 457 9 456
3 460 458 459
3 459 128 460
3 458 122 459
3 460 127 458
3 449 461 459
3 459 122 449
3 461 128 459
3 449 37 461
3 462 448 458
3 458 127 462
3 448 122 458
3 462 38 448
3 464 463 460
3 460 128 464
3 463 127 460
3 464 10 463
3 467 465 466
3 466 130 467
3 465 124 466
3 467 129 465
3 445 468 466
3 466 124 445
3 468 130 466
3 445 39 468
3 469 450 465
3 465 129 469
3 450 124 465
3 469 37 450
3 471 470 467
3 467 130 471
3 470 129 467
3 471 3 470
3 474 472 473
3 473 133 474
3 472 132 473
3 474 131 472
3 476 475 473
3 473 132 476
3 475 133 473
3 476 38 475
3 478 477 472
3 472 131 478
3 477 132 472
3 478 41 477
3 480 479 474
3 474 133 480
3 479 131 474
3 480 40 479
3 483 481 482
3 482 134 483
3 481 132 482
3 483 126 481
3 477 484 482
3 482 132 477
3 484 134 482
3 477 41 484
3 454 476 481
3 481 126 454
3 476 132 481
3 454 38 476
3 485 457 483
3 483 134 485
3 457 126 483
3 485 9 457
3 488 486 487
3 487 136 488
3 486 131 487
3 488 135 486
3 479 489 487
3 487 131 479
3 489 136 487
3 479 40 489
3 490 478 486
3 486 135 490
3 478 131 486
3 490 41 478
3 492 491 488
3 488 136 492
3 491 135 488
3 492 2 491
3 495 493 494
3 494 127 495
3 493 133 494
3 495 137 493
3 475 462 494
3 494 133 475
3 462 127 494
3 475 38 462
3 496 480 493
3 493 137 496
3 480 133 493
3 496 40 480
3 463 497 495
3 495 127 463
3 497 137 495
3 463 10 497
3 500 498 499
3 499 140 500
3 498 139 499
3 500 138 498
3 502 501 499
3 499 139 502
3 501 140 499
3 502 33 501
3 504 503 498
3 498 138 504
3 503 139 498
3 504 13 503
3 506 505 500
3 500 140 506
3 505 138 500
3 506 23 505
3 509 507 508
3 508 47 509
3 507 139 508
3 509 110 507
3 503 182 508
3 508 139 503
3 182 47 508
3 503 13 182
3 398 502 507
3 507 110 398
3 502 139 507
3 398 33 502
3 183 401 509
3 509 47 183
3 401 110 509
3 183 8 401
3 512 510 511
3 511 79 512
3 510 138 511
3 512 46 510
3 505 294 511
3 511 138 505
3 294 79 511
3 505 23 294
3 174 504 510
3 510 46 174
3 504 138 510
3 174 13 504
3 295 177 512
3 512 79 295
3 177 46 512
3 295 4 177
3 515 513 514
3 514 111 515
3 513 140 514
3 515 78 513
3 501 406 514
3 514 140 501
3 406 111 514
3 501 33 406
3 286 506 513
3 513 78 286
3 506 140 513
3 286 23 506
3 407 289 515
3 515 111 407
3 289 78 515
3 407 0 289
3 518 516 517
3 517 143 518
3 516 142 517
3 518 141 516
3 520 519 517
3 517 142 520
3 519 143 517
3 520 19 519
3 522 521 516
3 516 141 522
3 521 142 516
3 522 32 521
3 524 523 518
3 518 143 524
3 523 141 518
3 524 26 523
3 527 525 526
3 526 113 527
3 525 142 526
3 527 66 525
3 521 413 526
3 526 142 521
3 413 113 526
3 521 32 413
3 244 520 525
3 525 66 244
3 520 142 525
3 244 19 520
3 414 247 527
3 527 113 414
3 247 66 527
3 414 11 247
3 530 528 529
3 529 86 530
3 528 141 529
3 530 112 528
3 523 316 529
3 529 141 523
3 316 86 529
3 523 26 316
3 405 522 528
3 528 112 405
3 522 141 528
3 405 32 522
3 317 408 530
3 530 86 317
3 408 112 530
3 317 0 408
3 533 531 532
3 532 61 533
3 531 143 532
3 533 89 531
3 519 231 532
3 532 143 519
3 231 61 532
3 519 19 231
3 326 524 531
3 531 89 326
3 524 143 531
3 326 26 524
3 232 329 533
3 533 61 232
3 329 89 533
3 232 5 329
3 536 534 535
3 535 146 536
3 534 145 535
3 536 144 534
3 538 537 535
3 535 145 538
3 537 146 535
3 538 22 537
3 540 539 534
3 534 144 540
3 539 145 534
3 540 16 539
3 542 541 536
3 536 146 542
3 541 144 536
3 542 39 541
3 545 543 544
3 544 54 545
3 543 145 544
3 545 80 543
3 539 204 544
3 544 145 539
3 204 54 544
3 539 16 204
3 293 538 543
3 543 80 293
3 538 145 543
3 293 22 538
3 205 296 545
3 545 54 205
3 296 80 545
3 205 4 296
3 548 546 547
3 547 125 548
3 546 144 547
3 548 57 546
3 541 455 547
3 547 144 541
3 455 125 547
3 541 39 455
3 214 540 546
3 546 57 214
3 540 144 546
3 214 16 540
3 456 217 548
3 548 125 456
3 217 57 548
3 456 9 217
3 551 549 550
3 550 81 551
3 549 146 550
3 551 130 549
3 537 301 550
3 550 146 537
3 301 81 550
3 537 22 301
3 468 542 549
3 549 130 468
3 542 146 549
3 468 39 542
3 302 471 551
3 551 81 302
3 471 130 551
3 302 3 471
3 554 552 553
3 553 149 554
3 552 148 553
3 554 147 552
3 556 555 553
3 553 148 556
3 555 149 553
3 556 21 555
3 558 557 552
3 552 147 558
3 557 148 552
3 558 25 557
3 560 559 554
3 554 149 560
3 559 147 554
3 560 37 559
3 563 561 562
3 562 88 563
3 561 148 562
3 563 70 561
3 557 327 562
3 562 148 557
3 327 88 562
3 557 25 327
3 260 556 561
3 561 70 260
3 556 148 561
3 260 21 556
3 328 261 563
3 563 88 328
3 261 70 563
3 328 5 261
3 566 564 565
3 565 129 566
3 564 147 565
3 566 87 564
3 559 469 565
3 565 147 559
3 469 129 565
3 559 37 469
3 321 558 564
3 564 87 321
3 558 147 564
3 321 25 558
3 470 322 566
3 566 129 470
3 322 87 566
3 470 3 322
3 569 567 568
3 568 71 569
3 567 149 568
3 569 128 567
3 555 266 568
3 568 149 555
3 266 71 568
3 555 21 266
3 461 560 567
3 567 128 461
3 560 149 567
3 461 37 560
3 267 464 569
3 569 71 267
3 464 128 569
3 267 10 464
3 572 570 571
3 571 152 572
3 570 151 571
3 572 150 570
3 574 573 571
3 571 151 574
3 573 152 571
3 574 27 573
3 576 575 570
3 570 150 576
3 575 151 570
3 576 12 575
3 578 577 572
3 572 152 578
3 577 150 572
3 578 36 577
3 581 579 580
3 580 49 581
3 579 151 580
3 581 96 579
3 575 189 580
3 580 151 575
3 189 49 580
3 575 12 189
3 349 574 579
3 579 96 349
3 574 151 579
3 349 27 574
3 190 352 581
3 581 49 190
3 352 96 581
3 190 7 352
3 584 582 583
3 583 118 584
3 582 150 583
3 584 48 582
3 577 428 583
3 583 150 577
3 428 118 583
3 577 36 428
3 181 576 582
3 582 48 181
3 576 150 582
3 181 12 576
3 429 184 584
3 584 118 429
3 184 48 584
3 429 8 184
3 587 585 586
3 586 97 587
3 585 152 586
3 587 121 585
3 573 357 586
3 586 152 573
3 357 97 586
3 573 27 357
3 438 578 585
3 585 121 438
3 578 152 585
3 438 36 578
3 358 441 587
3 587 97 358
3 441 121 587
3 358 1 441
3 590 588 589
3 589 155 590
3 588 154 589
3 590 153 588
3 592 591 589
3 589 154 592
3 591 155 589
3 592 17 591
3 594 593 588
3 588 153 594
3 593 154 588
3 594 30 593
3 596 595 590
3 590 155 596
3 595 153 590
3 596 35 595
3 599 597 598
3 598 104 599
3 597 154 598
3 599 64 597
3 593 383 598
3 598 154 593
3 383 104 598
3 593 30 383
3 237 592 597
3 597 64 237
3 592 154 597
3 237 17 592
3 384 240 599
3 599 104 384
3 240 64 599
3 384 6 240
3 602 600 601
3 601 120 602
3 600 153 601
3 602 103 600
3 595 439 601
3 601 153 595
3 439 120 601
3 595 35 439
3 377 594 600
3 600 103 377
3 594 153 600
3 377 30 594
3 440 378 602
3 602 120 440
3 378 103 602
3 440 1 378
3 605 603 604
3 604 65 605
3 603 155 604
3 605 119 603
3 591 245 604
3 604 155 591
3 245 65 604
3 591 17 245
3 433 596 603
3 603 119 433
3 596 155 603
3 433 35 596
3 246 434 605
3 605 65 246
3 434 119 605
3 246 11 434
3 608 606 607
3 607 158 608
3 606 157 607
3 608 156 606
3 610 609 607
3 607 157 610
3 609 158 607
3 610 15 609
3 612 611 606
3 606 156 612
3 611 157 606
3 612 28 611
3 614 613 608
3 608 158 614
3 613 156 608
3 614 41 613
3 617 615 616
3 616 95 617
3 615 157 616
3 617 55 615
3 611 350 616
3 616 157 611
3 350 95 616
3 611 28 350
3 209 610 615
3 615 55 209
3 610 157 615
3 209 15 610
3 351 210 617
3 617 95 351
3 210 55 617
3 351 7 210
3 620 618 619
3 619 135 620
3 618 156 619
3 620 94 618
3 613 490 619
3 619 156 613
3 490 135 619
3 613 41 490
3 342 612 618
3 618 94 342
3 612 156 618
3 342 28 612
3 491 345 620
3 620 135 491
3 345 94 620
3 491 2 345
3 623 621 622
3 622 56 623
3 621 158 622
3 623 134 621
3 609 215 622
3 622 158 609
3 215 56 622
3 609 15 215
3 484 614 621
3 621 134 484
3 614 158 621
3 484 41 614
3 216 485 623
3 623 56 216
3 485 134 623
3 216 9 485
3 626 624 625
3 625 161 626
3 624 160 625
3 626 159 624
3 628 627 625
3 625 160 628
3 627 161 625
3 628 31 627
3 630 629 624
3 624 159 630
3 629 160 624
3 630 20 629
3 632 631 626
3 626 161 632
3 631 159 626
3 632 40 631
3 635 633 634
3 634 73 635
3 633 160 634
3 635 105 633
3 629 272 634
3 634 160 629
3 272 73 634
3 629 20 272
3 382 628 633
3 633 105 382
3 628 160 633
3 382 31 628
3 273 385 635
3 635 73 273
3 385 105 635
3 273 6 385
3 638 636 637
3 637 137 638
3 636 159 637
3 638 72 636
3 631 496 637
3 637 159 631
3 496 137 637
3 631 40 496
3 265 630 636
3 636 72 265
3 630 159 636
3 265 20 630
3 497 268 638
3 638 137 497
3 268 72 638
3 497 10 268
3 641 639 640
3 640 102 641
3 639 161 640
3 641 136 639
3 627 372 640
3 640 161 627
3 372 102 640
3 627 31 372
3 489 632 639
3 639 136 489
3 632 161 639
3 489 40 632
3 373 492 641
3 641 102 373
3 492 136 641
3 373 2 492
