# vtk DataFile Version 3.0
this file was written using fslvtkio
ASCII
DATASET POLYDATA
POINTS 642 float
70.7718 125.511 143.054
58.037 128.313 144.628
58.0678 123.114 142.832
69.5772 120.792 142.688
70.8462 119.283 147.539
67.0543 127.141 135.94
57.3566 128.59 137.095
62.9577 121.553 148.645
66.1459 126.603 147.34
63.8534 116.861 145.357
62.1215 123.051 139.468
63.813 130.614 140.105
64.7489 123.86 148.301
69.756 122.838 148.42
67.1618 119.525 149.31
63.6344 117.704 148.246
68.0514 115.939 146.633
60.1521 130.507 137.996
62.1789 128.367 135.391
65.8969 130.344 136.699
59.31 125.523 136.664
64.0743 125.501 137.865
72.121 118.324 144.516
73.2704 122.26 145.816
72.2673 122.992 142.628
68.1768 124.779 140.25
69.9251 127.612 138.803
59.6075 125.535 147.485
60.1853 122.16 146.243
56.167 126.299 143.995
56.443 129.118 140.523
56.0603 126.146 139.332
67.9163 128.864 141.392
69.3313 125.752 145.546
64.83 129.385 144.143
59.8299 129.939 141.847
61.6595 127.954 147.066
66.0157 121.918 141.322
63.0074 119.872 142.79
67.2024 117.379 143.898
58.8561 122.804 140.505
60.9517 119.245 144.96
67.1935 122.964 148.48
68.6158 121.237 149.345
66.3018 121.68 149.625
69.1916 119.238 148.796
70.6369 121.158 148.432
68.0701 124.743 148.233
65.3648 125.486 148.328
63.9807 122.788 148.651
65.0248 120.567 149.341
65.4233 118.617 148.813
67.8882 117.386 148.513
65.6054 116.318 148.139
69.758 117.318 147.235
63.3138 119.739 148.54
63.4005 116.676 146.883
65.7743 115.85 146.149
61.1686 129.871 136.524
64.0646 129.79 135.701
63.0505 130.81 137.075
66.9914 129.024 135.385
64.8115 127.744 135.058
59.6671 128.574 136.048
58.7368 129.626 137.562
61.9793 130.845 138.744
65.0545 130.543 138.515
61.6727 125.709 137.2
63.1477 126.821 136.09
60.524 127.012 136.022
65.5357 126.339 136.923
63.1251 124.246 138.542
60.5649 124.29 137.832
58.1377 126.973 136.561
74.0417 120.191 145.12
74.0594 122.555 143.931
73.4242 120.446 143.053
71.9248 124.35 142.844
72.5749 124.129 144.662
72.5094 120.708 146.99
71.8257 118.463 146.157
71.1248 119.128 143.076
71.194 121.768 142.551
70.27 124.067 141.576
70.5879 125.393 141.143
69.4354 125.953 139.265
70.3818 126.684 141.223
68.9352 122.9 141.948
67.5968 126.226 138.165
68.9721 127.518 136.637
59.9063 124.065 146.686
58.1453 124.539 145.276
57.6156 125.991 146.089
56.9634 124.771 143.308
59.1469 122.812 144.658
61.6373 121.856 147.55
61.6002 123.624 147.863
58.1799 127.12 146.629
56.549 127.522 144.533
55.8694 127.796 142.285
55.8888 126.351 141.668
55.5453 127.897 139.937
56.935 124.837 141.211
56.9172 128.756 142.661
56.7772 129.184 138.718
56.2311 127.341 137.967
68.6165 127.537 143.73
67.3508 128.274 145.056
66.6664 129.372 142.971
65.5427 128.425 146.22
67.9264 126.263 146.517
70.2736 125.541 144.352
69.3792 127.163 142.273
66.1608 130.127 140.701
64.1826 130.059 142.062
62.0734 129.813 143.037
62.9408 129.002 145.377
60.6464 129.025 144.366
63.9904 127.655 147.39
61.4836 130.54 140.754
58.7877 129.228 143.159
59.5634 128.098 146.075
64.6215 120.548 141.946
64.9172 118.422 143.27
66.7 119.517 142.567
65.5056 116.955 144.943
63.3054 118.164 144.176
62.4058 121.542 141.236
64.1125 122.629 140.49
67.8685 121.349 142.108
68.766 118.8 142.825
59.5218 120.85 142.841
61.565 119.534 143.717
60.7392 121.333 141.746
62.0964 117.597 145.193
59.293 121.215 144.2
57.8333 122.871 141.592
60.2283 122.948 139.705
71.6264 122.499 147.122
69.8857 124.456 147.184
71.7542 124.31 146.127
68.9478 128.358 139.953
67.0055 129.535 138.963
68.3708 129.403 137.098
67.4692 116.298 145.317
70.4882 116.637 145.627
69.6577 117.469 144.148
67.1236 123.311 140.833
66.169 125.05 139.02
65.0684 123.776 139.543
63.0521 126.256 148.258
62.3097 124.811 148.193
60.24 126.953 147.875
57.7903 129.902 141.149
57.726 130.099 139.025
59.4591 130.695 139.649
60.4363 120.673 145.957
62.0465 119.99 147.444
62.4386 118.317 146.92
58.7346 124.251 138.578
57.3154 125.718 137.641
57.2607 124.354 139.595
67.919 122.122 149.101
67.437 121.414 149.434
66.671 122.411 149.215
66.8684 120.451 149.906
67.8576 120.279 149.54
69.1406 122.004 148.92
68.4531 122.787 148.627
66.0055 123.326 148.435
65.6216 122.792 149.024
68.8817 120.152 149.231
69.7441 121.234 149.16
69.9848 120.156 148.766
70.1875 121.993 148.444
68.225 119.239 149.352
70.0905 119.219 148.18
70.9349 120.148 148.113
67.5841 123.786 148.245
66.3201 124.153 148.321
66.775 125.032 148.396
65.0658 124.619 148.39
68.8134 123.626 148.25
67.0759 125.747 147.815
65.8303 126.169 147.91
65.1273 122.24 149.243
65.7178 121.015 149.869
64.5109 121.639 149.384
66.137 120.095 149.308
64.4066 123.285 148.584
63.2947 122.295 148.967
63.8894 121.094 149.005
66.5294 118.012 148.837
66.7409 116.968 148.193
65.5234 117.368 148.691
66.9315 115.936 147.56
67.9907 116.415 147.733
67.5074 118.361 149.03
66.2577 119.01 149.018
64.4536 118.193 148.51
64.6016 116.966 148.403
68.9142 117.186 147.992
68.6619 118.191 148.86
69.5693 118.118 148.15
68.9458 116.516 146.974
70.2934 118.305 147.392
65.3563 119.663 149.043
64.3493 119.237 148.786
64.2351 120.151 148.845
63.5599 118.812 148.433
63.1838 120.625 148.591
64.4498 116.253 147.624
65.7494 115.885 147.196
64.5998 115.996 146.585
66.8541 115.848 146.498
63.491 117.024 147.702
63.5934 116.57 146.127
64.8627 116.268 145.755
62.6438 129.914 136.071
63.466 130.501 136.282
62.0521 130.379 136.698
64.5063 130.594 136.857
64.9648 130.267 136.038
63.1413 129.147 135.342
61.7829 129.344 135.803
60.7658 130.361 137.089
61.5332 130.83 137.229
65.597 129.544 135.394
64.4307 128.807 135.182
65.7999 128.487 135.157
63.5442 128.144 135.167
66.5277 129.952 135.809
67.0337 127.966 135.482
65.9503 127.451 135.358
60.4471 129.391 136.229
59.9749 129.859 136.98
59.1466 129.419 136.702
59.4845 130.014 137.797
60.9765 128.545 135.758
58.4391 128.619 136.389
57.9962 129.199 137.312
62.4494 130.945 137.884
64.1264 130.903 137.681
63.5237 130.727 138.573
65.3533 130.461 137.637
60.9738 130.821 138.214
62.9848 130.832 139.381
64.4878 130.669 139.278
62.2963 126.3 136.746
61.8702 126.948 136.032
61.0158 126.289 136.5
61.3583 127.639 135.6
62.6581 127.384 135.459
63.4638 126.214 137.06
62.8464 125.672 137.577
60.4899 125.606 136.82
59.8614 126.334 136.35
63.8533 127.25 135.409
64.3147 126.555 136.357
65.1134 126.979 135.801
64.6428 126.112 137.567
66.3317 126.689 136.26
62.3582 124.945 137.741
61.0965 124.874 137.327
61.9025 124.248 138.006
59.8522 124.865 137.15
63.5081 124.809 138.189
62.6001 123.582 138.841
61.392 123.658 138.598
59.3341 127.054 136.18
60.1441 127.733 135.778
58.8639 127.68 136.107
58.7873 126.325 136.536
57.6086 127.788 136.739
74.3768 121.22 144.47
74.0789 121.383 143.348
74.0539 120.247 143.99
73.3028 121.748 142.686
73.454 122.593 143.06
73.8717 122.173 144.919
73.9146 121.192 145.451
73.1604 119.219 144.613
73.0659 119.289 143.746
73.2469 123.469 143.399
73.4051 123.298 144.427
72.3082 124.113 143.708
73.0656 123.159 145.265
72.4429 123.713 142.572
71.3075 124.92 142.99
71.6818 124.835 143.835
73.3857 120.437 146.073
73.0362 119.314 145.571
72.4867 119.594 146.541
72.0291 118.328 145.321
73.1158 121.386 146.209
71.7835 120.002 147.511
71.3428 118.919 146.831
72.4634 119.669 142.896
72.4824 121.151 142.496
71.473 120.571 142.828
71.8907 122.291 142.648
71.7769 118.67 143.822
70.4347 119.924 142.693
70.3954 121.258 142.782
70.7025 124.6 141.297
70.1808 125.719 140.152
69.6924 125.108 140.635
69.873 126.81 138.797
70.3745 126.549 139.98
71.5427 124.104 141.941
71.2849 123.425 142.182
69.2099 124.595 140.951
68.8782 125.456 139.818
70.4825 126.14 141.19
71.3357 124.782 141.973
70.9425 125.434 142.278
70.1605 127.199 140.138
70.4943 125.839 142.235
70.7269 122.921 142.231
69.5658 123.415 141.718
70.031 122.367 142.386
68.5449 123.922 141.213
69.3396 121.92 142.458
68.6412 125.995 138.613
69.2728 126.875 137.887
68.5883 126.632 137.184
69.5627 127.709 137.582
67.8943 125.555 139.197
67.4649 126.64 136.868
68.0483 127.407 136.214
59.0957 124.305 145.989
57.7589 125.236 145.651
58.7887 125.089 146.433
56.8587 126.026 145.093
57.0051 125.418 144.792
59.4037 123.481 145.636
59.9718 123.119 146.455
59.7972 124.923 146.922
58.4768 125.708 146.95
57.4266 124.745 144.357
58.682 123.769 144.925
57.9689 123.863 144.078
59.558 122.553 145.578
56.3773 125.571 143.719
57.6128 123.956 143.026
58.407 123.036 143.8
60.7582 123.001 147.008
60.7394 123.977 147.22
61.6252 122.841 147.663
60.7496 124.662 147.523
60.8465 121.983 146.946
62.387 121.712 148.028
62.3686 122.572 148.323
57.7242 126.482 146.584
56.9036 126.628 145.465
57.3068 127.322 145.76
56.2713 126.954 144.33
58.8 126.437 147.216
57.9589 127.871 145.745
57.2627 127.911 144.603
55.7666 127.079 142.065
55.6127 127.115 140.76
55.6657 127.785 141.171
55.7553 127.092 139.651
55.8141 126.37 140.385
55.9291 126.414 142.882
56.0509 127.176 143.185
56.0473 128.451 141.323
56.0152 128.488 140.297
56.1826 125.59 141.305
56.1976 125.595 142.59
56.8747 124.736 142.206
56.3981 125.582 140.262
57.5685 123.971 142.035
56.0451 127.652 143.438
56.2055 128.373 142.464
56.6129 128.233 143.595
56.5834 128.92 141.573
57.4073 128.502 143.694
56.0392 128.484 139.233
55.772 127.652 138.845
56.0621 128.296 138.257
55.979 126.782 138.546
56.5825 129.202 139.625
57.0466 128.818 137.901
56.7079 128.035 137.468
68.0596 127.908 144.391
67.088 128.946 144.086
67.7891 128.676 143.406
65.8201 129.444 143.601
66.1882 129.077 144.674
68.3127 127.112 145.317
68.8062 126.717 144.674
68.2672 128.31 142.692
67.434 129.013 142.292
66.4466 128.377 145.651
67.5578 127.318 145.883
66.6793 127.41 146.291
68.5668 126.062 146.032
65.2713 129.106 145.223
65.8158 127.552 146.821
67.0987 126.399 146.992
69.3214 126.455 144.032
68.9751 127.295 142.972
69.6694 126.244 143.321
68.6033 128.023 141.894
69.8201 125.652 144.98
70.5651 125.484 143.751
69.9949 126.148 142.617
66.5111 129.737 141.915
65.589 129.754 142.545
65.3405 130.116 141.5
64.487 129.746 143.086
67.1112 129.534 141.063
64.9662 130.495 140.339
63.9035 130.388 141.026
62.4821 129.372 144.161
61.7099 129.006 144.864
61.3033 129.476 143.663
61.1193 128.538 145.639
62.213 128.506 146.127
63.8584 129.318 144.755
63.3518 129.652 143.607
60.918 129.893 142.461
60.3249 129.477 143.066
63.4549 128.482 146.487
64.3002 128.939 145.889
64.7602 128.127 146.761
62.8437 127.91 147.279
65.1073 127.084 147.381
63.1117 129.942 142.537
61.7722 130.136 141.932
62.8092 130.286 141.468
60.6104 130.226 141.286
62.5368 130.694 140.362
59.7037 129.076 143.76
60.1427 128.561 145.219
59.2153 128.7 144.636
60.6027 128.078 146.523
59.3438 129.547 142.498
58.3824 128.778 143.963
58.7685 128.158 145.421
64.7522 119.462 142.62
65.8055 118.829 143.017
65.623 119.948 142.328
66.9268 118.44 143.412
65.9937 117.856 143.633
63.9675 119.17 143.013
63.8604 120.158 142.389
65.4128 121.081 141.648
66.3965 120.604 141.975
65.1738 117.62 144.017
64.1403 118.327 143.67
64.3467 117.552 144.632
63.1665 119.042 143.601
66.2731 116.957 144.235
64.827 116.916 145.259
63.5502 117.499 144.941
63.5481 121.011 141.53
64.4165 121.687 141.341
63.3932 122.102 141.035
65.1456 122.228 140.962
62.8296 120.631 141.902
62.2584 122.375 140.543
63.126 122.85 139.934
67.427 120.358 142.226
67.6967 119.121 142.816
68.3213 119.937 142.438
68.0065 118.114 143.427
66.9576 121.491 141.58
68.6742 121.11 142.407
69.262 119.642 142.649
60.6158 120.235 143.277
61.2713 120.53 142.834
60.0615 121.08 142.038
61.9422 120.52 142.387
62.1444 119.735 143.291
61.1353 119.345 144.23
60.0763 119.864 143.805
59.2134 121.806 141.717
59.7655 122.269 141.332
62.4119 118.828 143.946
61.7801 118.482 144.329
62.5436 117.84 144.636
61.7403 118.492 145.067
62.895 117.09 145.419
59.1576 120.845 143.507
58.5479 121.66 142.167
58.3731 121.932 143.007
58.2659 122.736 141.012
60.1367 120.06 144.605
58.5394 122.142 143.563
57.9905 123.057 142.257
60.4476 122.189 140.872
61.6278 121.426 141.536
61.3369 122.291 140.733
59.5322 122.903 140.166
61.1727 123.06 139.521
70.8218 123.482 147.293
70.9009 124.487 146.736
71.7693 123.401 146.648
70.5808 125.039 145.901
69.7685 125.216 146.429
69.8988 123.609 147.856
70.783 122.706 147.897
72.5381 122.421 146.556
72.5372 123.256 146.027
68.9286 125.309 146.875
68.9894 124.486 147.742
68.0527 125.454 147.303
71.2192 121.876 147.825
72.2626 121.698 147.072
71.6122 120.999 147.657
72.3031 124.216 145.456
71.0895 125.033 145.348
71.5818 124.979 144.63
67.963 128.916 139.426
67.5796 129.545 138.014
68.8067 129.017 138.511
67.1262 129.988 136.723
66.4107 129.984 137.782
67.4412 129.179 140.214
68.4207 128.519 140.63
69.6451 128.215 139.344
69.426 128.546 137.835
66.1305 130.164 138.675
66.6903 129.824 139.871
65.6569 130.439 139.551
69.1513 127.833 141.199
69.7589 127.663 140.581
69.7885 126.841 141.753
68.8816 128.536 136.783
67.9877 129.453 135.956
68.0915 128.211 135.905
69.1692 116.195 145.415
70.2216 116.893 144.831
68.8675 116.544 144.589
70.9088 117.854 144.179
71.317 117.52 145.087
69.3873 116.199 146.106
67.8275 116.022 145.813
67.4288 116.693 144.462
68.4482 117.392 143.919
71.2396 117.488 145.885
70.125 116.883 146.513
70.714 118.054 146.627
66.7733 116.059 145.694
66.2905 116.579 145.112
65.6668 116.335 145.443
69.2114 118.109 143.399
70.5288 118.227 143.6
69.9248 118.936 142.843
66.6683 124.201 139.921
65.6283 124.436 139.27
66.0793 123.459 140.158
64.481 124.635 138.717
65.1351 125.248 138.448
67.1441 124.993 139.698
67.6027 124.042 140.594
66.5731 122.683 141.098
65.6635 122.89 140.426
65.6709 125.865 138.152
66.843 125.677 138.616
66.4895 126.366 137.62
67.9892 123.115 141.389
67.4487 122.397 141.582
68.4565 122.193 142.016
64.7454 123.089 139.776
64.0674 124.063 139.134
63.6795 123.417 139.342
62.5849 125.508 148.405
61.1698 125.887 148.221
61.6503 126.663 148.202
59.8722 126.309 147.752
60.884 125.137 147.946
63.5773 124.422 148.141
63.8525 125.13 148.425
62.3285 127.284 147.928
60.9544 127.531 147.677
61.8698 124.272 147.99
63.2126 123.808 148.215
62.8476 123.208 148.205
64.1712 125.868 148.307
63.4724 126.937 147.824
64.5451 126.494 147.751
59.8655 127.651 147.129
59.2035 127.022 147.323
58.8197 127.661 146.507
57.5763 130.001 140.017
58.4159 130.415 139.233
58.4602 130.312 140.371
59.6628 130.746 138.652
58.8537 130.378 138.433
56.9655 129.612 139.752
57.2488 129.483 140.865
58.8228 129.93 141.481
59.5571 130.301 140.721
58.2766 130.056 138.285
57.2974 129.677 138.935
57.7593 129.493 138.15
57.3656 129.155 141.791
58.271 129.545 142.159
57.7621 128.991 142.939
60.4951 130.657 140.11
60.5905 130.928 138.972
61.6759 130.838 139.632
61.306 120.319 146.724
62.1597 119.036 147.343
61.8402 119.52 146.325
62.7664 117.862 147.762
62.8611 118.828 148.068
60.9835 121.127 146.944
60.0733 121.392 146.248
60.953 119.973 145.392
61.9244 118.788 145.971
62.761 119.93 147.997
61.7322 120.925 147.503
62.4612 120.842 148.16
59.5754 121.765 145.378
59.8787 121.026 145.038
59.1902 122.122 144.339
62.2792 118.168 146.097
62.8529 117.434 147.094
62.8514 117.264 146.065
58.0497 124.988 138.078
57.1831 125.193 138.685
57.9853 124.26 139.105
56.5451 125.382 139.393
56.4517 125.998 138.372
58.2415 125.593 137.144
58.9062 124.902 137.464
58.687 123.515 139.435
57.9496 123.423 139.837
56.5883 126.512 137.735
57.604 126.338 136.926
57.0645 127.229 137.156
59.5163 124.335 137.989
59.4825 123.52 138.956
60.321 123.609 138.722
57.4219 123.593 140.536
56.8264 124.708 140.356
57.3085 123.89 141.296
POLYGONS 1280  5120
3 164 162 163
3 163 44 164
3 162 43 163
3 164 42 162
3 166 165 163
3 163 43 166
3 165 44 163
3 166 14 165
3 168 167 162
3 162 42 168
3 167 43 162
3 168 13 167
3 170 169 164
3 164 44 170
3 169 42 164
3 170 12 169
3 173 171 172
3 172 46 173
3 171 43 172
3 173 45 171
3 167 174 172
3 172 43 167
3 174 46 172
3 167 13 174
3 175 166 171
3 171 45 175
3 166 43 171
3 175 14 166
3 177 176 173
3 173 46 177
3 176 45 173
3 177 4 176
3 180 178 179
3 179 48 180
3 178 42 179
3 180 47 178
3 169 181 179
3 179 42 169
3 181 48 179
3 169 12 181
3 182 168 178
3 178 47 182
3 168 42 178
3 182 13 168
3 184 183 180
3 180 48 184
3 183 47 180
3 184 8 183
3 187 185 186
3 186 50 187
3 185 44 186
3 187 49 185
3 165 188 186
3 186 44 165
3 188 50 186
3 165 14 188
3 189 170 185
3 185 49 189
3 170 44 185
3 189 12 170
3 191 190 187
3 187 50 191
3 190 49 187
3 191 7 190
3 194 192 193
3 193 53 194
3 192 52 193
3 194 51 192
3 196 195 193
3 193 52 196
3 195 53 193
3 196 16 195
3 198 197 192
3 192 51 198
3 197 52 192
3 198 14 197
3 200 199 194
3 194 53 200
3 199 51 194
3 200 15 199
3 203 201 202
3 202 45 203
3 201 52 202
3 203 54 201
3 197 175 202
3 202 52 197
3 175 45 202
3 197 14 175
3 204 196 201
3 201 54 204
3 196 52 201
3 204 16 196
3 176 205 203
3 203 45 176
3 205 54 203
3 176 4 205
3 208 206 207
3 207 55 208
3 206 51 207
3 208 50 206
3 199 209 207
3 207 51 199
3 209 55 207
3 199 15 209
3 188 198 206
3 206 50 188
3 198 51 206
3 188 14 198
3 210 191 208
3 208 55 210
3 191 50 208
3 210 7 191
3 213 211 212
3 212 57 213
3 211 53 212
3 213 56 211
3 195 214 212
3 212 53 195
3 214 57 212
3 195 16 214
3 215 200 211
3 211 56 215
3 200 53 211
3 215 15 200
3 217 216 213
3 213 57 217
3 216 56 213
3 217 9 216
3 220 218 219
3 219 60 220
3 218 59 219
3 220 58 218
3 222 221 219
3 219 59 222
3 221 60 219
3 222 19 221
3 224 223 218
3 218 58 224
3 223 59 218
3 224 18 223
3 226 225 220
3 220 60 226
3 225 58 220
3 226 17 225
3 229 227 228
3 228 62 229
3 227 59 228
3 229 61 227
3 223 230 228
3 228 59 223
3 230 62 228
3 223 18 230
3 231 222 227
3 227 61 231
3 222 59 227
3 231 19 222
3 233 232 229
3 229 62 233
3 232 61 229
3 233 5 232
3 236 234 235
3 235 64 236
3 234 58 235
3 236 63 234
3 225 237 235
3 235 58 225
3 237 64 235
3 225 17 237
3 238 224 234
3 234 63 238
3 224 58 234
3 238 18 224
3 240 239 236
3 236 64 240
3 239 63 236
3 240 6 239
3 243 241 242
3 242 66 243
3 241 60 242
3 243 65 241
3 221 244 242
3 242 60 221
3 244 66 242
3 221 19 244
3 245 226 241
3 241 65 245
3 226 60 241
3 245 17 226
3 247 246 243
3 243 66 247
3 246 65 243
3 247 11 246
3 250 248 249
3 249 69 250
3 248 68 249
3 250 67 248
3 252 251 249
3 249 68 252
3 251 69 249
3 252 18 251
3 254 253 248
3 248 67 254
3 253 68 248
3 254 21 253
3 256 255 250
3 250 69 256
3 255 67 250
3 256 20 255
3 259 257 258
3 258 70 259
3 257 68 258
3 259 62 257
3 253 260 258
3 258 68 253
3 260 70 258
3 253 21 260
3 230 252 257
3 257 62 230
3 252 68 257
3 230 18 252
3 261 233 259
3 259 70 261
3 233 62 259
3 261 5 233
3 264 262 263
3 263 72 264
3 262 67 263
3 264 71 262
3 255 265 263
3 263 67 255
3 265 72 263
3 255 20 265
3 266 254 262
3 262 71 266
3 254 67 262
3 266 21 254
3 268 267 264
3 264 72 268
3 267 71 264
3 268 10 267
3 271 269 270
3 270 63 271
3 269 69 270
3 271 73 269
3 251 238 270
3 270 69 251
3 238 63 270
3 251 18 238
3 272 256 269
3 269 73 272
3 256 69 269
3 272 20 256
3 239 273 271
3 271 63 239
3 273 73 271
3 239 6 273
3 276 274 275
3 275 76 276
3 274 75 275
3 276 74 274
3 278 277 275
3 275 75 278
3 277 76 275
3 278 24 277
3 280 279 274
3 274 74 280
3 279 75 274
3 280 23 279
3 282 281 276
3 276 76 282
3 281 74 276
3 282 22 281
3 285 283 284
3 284 78 285
3 283 75 284
3 285 77 283
3 279 286 284
3 284 75 279
3 286 78 284
3 279 23 286
3 287 278 283
3 283 77 287
3 278 75 283
3 287 24 278
3 289 288 285
3 285 78 289
3 288 77 285
3 289 0 288
3 292 290 291
3 291 80 292
3 290 74 291
3 292 79 290
3 281 293 291
3 291 74 281
3 293 80 291
3 281 22 293
3 294 280 290
3 290 79 294
3 280 74 290
3 294 23 280
3 296 295 292
3 292 80 296
3 295 79 292
3 296 4 295
3 299 297 298
3 298 82 299
3 297 76 298
3 299 81 297
3 277 300 298
3 298 76 277
3 300 82 298
3 277 24 300
3 301 282 297
3 297 81 301
3 282 76 297
3 301 22 282
3 303 302 299
3 299 82 303
3 302 81 299
3 303 3 302
3 306 304 305
3 305 85 306
3 304 84 305
3 306 83 304
3 308 307 305
3 305 84 308
3 307 85 305
3 308 26 307
3 310 309 304
3 304 83 310
3 309 84 304
3 310 24 309
3 312 311 306
3 306 85 312
3 311 83 306
3 312 25 311
3 315 313 314
3 314 77 315
3 313 84 314
3 315 86 313
3 309 287 314
3 314 84 309
3 287 77 314
3 309 24 287
3 316 308 313
3 313 86 316
3 308 84 313
3 316 26 308
3 288 317 315
3 315 77 288
3 317 86 315
3 288 0 317
3 320 318 319
3 319 87 320
3 318 83 319
3 320 82 318
3 311 321 319
3 319 83 311
3 321 87 319
3 311 25 321
3 300 310 318
3 318 82 300
3 310 83 318
3 300 24 310
3 322 303 320
3 320 87 322
3 303 82 320
3 322 3 303
3 325 323 324
3 324 89 325
3 323 85 324
3 325 88 323
3 307 326 324
3 324 85 307
3 326 89 324
3 307 26 326
3 327 312 323
3 323 88 327
3 312 85 323
3 327 25 312
3 329 328 325
3 325 89 329
3 328 88 325
3 329 5 328
3 332 330 331
3 331 92 332
3 330 91 331
3 332 90 330
3 334 333 331
3 331 91 334
3 333 92 331
3 334 29 333
3 336 335 330
3 330 90 336
3 335 91 330
3 336 28 335
3 338 337 332
3 332 92 338
3 337 90 332
3 338 27 337
3 341 339 340
3 340 94 341
3 339 91 340
3 341 93 339
3 335 342 340
3 340 91 335
3 342 94 340
3 335 28 342
3 343 334 339
3 339 93 343
3 334 91 339
3 343 29 334
3 345 344 341
3 341 94 345
3 344 93 341
3 345 2 344
3 348 346 347
3 347 96 348
3 346 90 347
3 348 95 346
3 337 349 347
3 347 90 337
3 349 96 347
3 337 27 349
3 350 336 346
3 346 95 350
3 336 90 346
3 350 28 336
3 352 351 348
3 348 96 352
3 351 95 348
3 352 7 351
3 355 353 354
3 354 98 355
3 353 92 354
3 355 97 353
3 333 356 354
3 354 92 333
3 356 98 354
3 333 29 356
3 357 338 353
3 353 97 357
3 338 92 353
3 357 27 338
3 359 358 355
3 355 98 359
3 358 97 355
3 359 1 358
3 362 360 361
3 361 101 362
3 360 100 361
3 362 99 360
3 364 363 361
3 361 100 364
3 363 101 361
3 364 31 363
3 366 365 360
3 360 99 366
3 365 100 360
3 366 29 365
3 368 367 362
3 362 101 368
3 367 99 362
3 368 30 367
3 371 369 370
3 370 93 371
3 369 100 370
3 371 102 369
3 365 343 370
3 370 100 365
3 343 93 370
3 365 29 343
3 372 364 369
3 369 102 372
3 364 100 369
3 372 31 364
3 344 373 371
3 371 93 344
3 373 102 371
3 344 2 373
3 376 374 375
3 375 103 376
3 374 99 375
3 376 98 374
3 367 377 375
3 375 99 367
3 377 103 375
3 367 30 377
3 356 366 374
3 374 98 356
3 366 99 374
3 356 29 366
3 378 359 376
3 376 103 378
3 359 98 376
3 378 1 359
3 381 379 380
3 380 105 381
3 379 101 380
3 381 104 379
3 363 382 380
3 380 101 363
3 382 105 380
3 363 31 382
3 383 368 379
3 379 104 383
3 368 101 379
3 383 30 368
3 385 384 381
3 381 105 385
3 384 104 381
3 385 6 384
3 388 386 387
3 387 108 388
3 386 107 387
3 388 106 386
3 390 389 387
3 387 107 390
3 389 108 387
3 390 34 389
3 392 391 386
3 386 106 392
3 391 107 386
3 392 33 391
3 394 393 388
3 388 108 394
3 393 106 388
3 394 32 393
3 397 395 396
3 396 110 397
3 395 107 396
3 397 109 395
3 391 398 396
3 396 107 391
3 398 110 396
3 391 33 398
3 399 390 395
3 395 109 399
3 390 107 395
3 399 34 390
3 401 400 397
3 397 110 401
3 400 109 397
3 401 8 400
3 404 402 403
3 403 112 404
3 402 106 403
3 404 111 402
3 393 405 403
3 403 106 393
3 405 112 403
3 393 32 405
3 406 392 402
3 402 111 406
3 392 106 402
3 406 33 392
3 408 407 404
3 404 112 408
3 407 111 404
3 408 0 407
3 411 409 410
3 410 114 411
3 409 108 410
3 411 113 409
3 389 412 410
3 410 108 389
3 412 114 410
3 389 34 412
3 413 394 409
3 409 113 413
3 394 108 409
3 413 32 394
3 415 414 411
3 411 114 415
3 414 113 411
3 415 11 414
3 418 416 417
3 417 117 418
3 416 116 417
3 418 115 416
3 420 419 417
3 417 116 420
3 419 117 417
3 420 36 419
3 422 421 416
3 416 115 422
3 421 116 416
3 422 34 421
3 424 423 418
3 418 117 424
3 423 115 418
3 424 35 423
3 427 425 426
3 426 109 427
3 425 116 426
3 427 118 425
3 421 399 426
3 426 116 421
3 399 109 426
3 421 34 399
3 428 420 425
3 425 118 428
3 420 116 425
3 428 36 420
3 400 429 427
3 427 109 400
3 429 118 427
3 400 8 429
3 432 430 431
3 431 119 432
3 430 115 431
3 432 114 430
3 423 433 431
3 431 115 423
3 433 119 431
3 423 35 433
3 412 422 430
3 430 114 412
3 422 115 430
3 412 34 422
3 434 415 432
3 432 119 434
3 415 114 432
3 434 11 415
3 437 435 436
3 436 121 437
3 435 117 436
3 437 120 435
3 419 438 436
3 436 117 419
3 438 121 436
3 419 36 438
3 439 424 435
3 435 120 439
3 424 117 435
3 439 35 424
3 441 440 437
3 437 121 441
3 440 120 437
3 441 1 440
3 444 442 443
3 443 124 444
3 442 123 443
3 444 122 442
3 446 445 443
3 443 123 446
3 445 124 443
3 446 39 445
3 448 447 442
3 442 122 448
3 447 123 442
3 448 38 447
3 450 449 444
3 444 124 450
3 449 122 444
3 450 37 449
3 453 451 452
3 452 126 453
3 451 123 452
3 453 125 451
3 447 454 452
3 452 123 447
3 454 126 452
3 447 38 454
3 455 446 451
3 451 125 455
3 446 123 451
3 455 39 446
3 457 456 453
3 453 126 457
3 456 125 453
3 457 9 456
3 460 458 459
3 459 128 460
3 458 122 459
3 460 127 458
3 449 461 459
3 459 122 449
3 461 128 459
3 449 37 461
3 462 448 458
3 458 127 462
3 448 122 458
3 462 38 448
3 464 463 460
3 460 128 464
3 463 127 460
3 464 10 463
3 467 465 466
3 466 130 467
3 465 124 466
3 467 129 465
3 445 468 466
3 466 124 445
3 468 130 466
3 445 39 468
3 469 450 465
3 465 129 469
3 450 124 465
3 469 37 450
3 471 470 467
3 467 130 471
3 470 129 467
3 471 3 470
3 474 472 473
3 473 133 474
3 472 132 473
3 474 131 472
3 476 475 473
3 473 132 476
3 475 133 473
3 476 38 475
3 478 477 472
3 472 131 478
3 477 132 472
3 478 41 477
3 480 479 474
3 474 133 480
3 479 131 474
3 480 40 479
3 483 481 482
3 482 134 483
3 481 132 482
3 483 126 481
3 477 484 482
3 482 132 477
3 484 134 482
3 477 41 484
3 454 476 481
3 481 126 454
3 476 132 481
3 454 38 476
3 485 457 483
3 483 134 485
3 457 126 483
3 485 9 457
3 488 486 487
3 487 136 488
3 486 131 487
3 488 135 486
3 479 489 487
3 487 131 479
3 489 136 487
3 479 40 489
3 490 478 486
3 486 135 490
3 478 131 486
3 490 41 478
3 492 491 488
3 488 136 492
3 491 135 488
3 492 2 491
3 495 493 494
3 494 127 495
3 493 133 494
3 495 137 493
3 475 462 494
3 494 133 475
3 462 127 494
3 475 38 462
3 496 480 493
3 493 137 496
3 480 133 493
3 496 40 480
3 463 497 495
3 495 127 463
3 497 137 495
3 463 10 497
3 500 498 499
3 499 140 500
3 498 139 499
3 500 138 498
3 502 501 499
3 499 139 502
3 501 140 499
3 502 33 501
3 504 503 498
3 498 138 504
3 503 139 498
3 504 13 503
3 506 505 500
3 500 140 506
3 505 138 500
3 506 23 505
3 509 507 508
3 508 47 509
3 507 139 508
3 509 110 507
3 503 182 508
3 508 139 503
3 182 47 508
3 503 13 182
3 398 502 507
3 507 110 398
3 502 139 507
3 398 33 502
3 183 401 509
3 509 47 183
3 401 110 509
3 183 8 401
3 512 510 511
3 511 79 512
3 510 138 511
3 512 46 510
3 505 294 511
3 511 138 505
3 294 79 511
3 505 23 294
3 174 504 510
3 510 46 174
3 504 138 510
3 174 13 504
3 295 177 512
3 512 79 295
3 177 46 512
3 295 4 177
3 515 513 514
3 514 111 515
3 513 140 514
3 515 78 513
3 501 406 514
3 514 140 501
3 406 111 514
3 501 33 406
3 286 506 513
3 513 78 286
3 506 140 513
3 286 23 506
3 407 289 515
3 515 111 407
3 289 78 515
3 407 0 289
3 518 516 517
3 517 143 518
3 516 142 517
3 518 141 516
3 520 519 517
3 517 142 520
3 519 143 517
3 520 19 519
3 522 521 516
3 516 141 522
3 521 142 516
3 522 32 521
3 524 523 518
3 518 143 524
3 523 141 518
3 524 26 523
3 527 525 526
3 526 113 527
3 525 142 526
3 527 66 525
3 521 413 526
3 526 142 521
3 413 113 526
3 521 32 413
3 244 520 525
3 525 66 244
3 520 142 525
3 244 19 520
3 414 247 527
3 527 113 414
3 247 66 527
3 414 11 247
3 530 528 529
3 529 86 530
3 528 141 529
3 530 112 528
3 523 316 529
3 529 141 523
3 316 86 529
3 523 26 316
3 405 522 528
3 528 112 405
3 522 141 528
3 405 32 522
3 317 408 530
3 530 86 317
3 408 112 530
3 317 0 408
3 533 531 532
3 532 61 533
3 531 143 532
3 533 89 531
3 519 231 532
3 532 143 519
3 231 61 532
3 519 19 231
3 326 524 531
3 531 89 326
3 524 143 531
3 326 26 524
3 232 329 533
3 533 61 232
3 329 89 533
3 232 5 329
3 536 534 535
3 535 146 536
3 534 145 535
3 536 144 534
3 538 537 535
3 535 145 538
3 537 146 535
3 538 22 537
3 540 539 534
3 534 144 540
3 539 145 534
3 540 16 539
3 542 541 536
3 536 146 542
3 541 144 536
3 542 39 541
3 545 543 544
3 544 54 545
3 543 145 544
3 545 80 543
3 539 204 544
3 544 145 539
3 204 54 544
3 539 16 204
3 293 538 543
3 543 80 293
3 538 145 543
3 293 22 538
3 205 296 545
3 545 54 205
3 296 80 545
3 205 4 296
3 548 546 547
3 547 125 548
3 546 144 547
3 548 57 546
3 541 455 547
3 547 144 541
3 455 125 547
3 541 39 455
3 214 540 546
3 546 57 214
3 540 144 546
3 214 16 540
3 456 217 548
3 548 125 456
3 217 57 548
3 456 9 217
3 551 549 550
3 550 81 551
3 549 146 550
3 551 130 549
3 537 301 550
3 550 146 537
3 301 81 550
3 537 22 301
3 468 542 549
3 549 130 468
3 542 146 549
3 468 39 542
3 302 471 551
3 551 81 302
3 471 130 551
3 302 3 471
3 554 552 553
3 553 149 554
3 552 148 553
3 554 147 552
3 556 555 553
3 553 148 556
3 555 149 553
3 556 21 555
3 558 557 552
3 552 147 558
3 557 148 552
3 558 25 557
3 560 559 554
3 554 149 560
3 559 147 554
3 560 37 559
3 563 561 562
3 562 88 563
3 561 148 562
3 563 70 561
3 557 327 562
3 562 148 557
3 327 88 562
3 557 25 327
3 260 556 561
3 561 70 260
3 556 148 561
3 260 21 556
3 328 261 563
3 563 88 328
3 261 70 563
3 328 5 261
3 566 564 565
3 565 129 566
3 564 147 565
3 566 87 564
3 559 469 565
3 565 147 559
3 469 129 565
3 559 37 469
3 321 558 564
3 564 87 321
3 558 147 564
3 321 25 558
3 470 322 566
3 566 129 470
3 322 87 566
3 470 3 322
3 569 567 568
3 568 71 569
3 567 149 568
3 569 128 567
3 555 266 568
3 568 149 555
3 266 71 568
3 555 21 266
3 461 560 567
3 567 128 461
3 560 149 567
3 461 37 560
3 267 464 569
3 569 71 267
3 464 128 569
3 267 10 464
3 572 570 571
3 571 152 572
3 570 151 571
3 572 150 570
3 574 573 571
3 571 151 574
3 573 152 571
3 574 27 573
3 576 575 570
3 570 150 576
3 575 151 570
3 576 12 575
3 578 577 572
3 572 152 578
3 577 150 572
3 578 36 577
3 581 579 580
3 580 49 581
3 579 151 580
3 581 96 579
3 575 189 580
3 580 151 575
3 189 49 580
3 575 12 189
3 349 574 579
3 579 96 349
3 574 151 579
3 349 27 574
3 190 352 581
3 581 49 190
3 352 96 581
3 190 7 352
3 584 582 583
3 583 118 584
3 582 150 583
3 584 48 582
3 577 428 583
3 583 150 577
3 428 118 583
3 577 36 428
3 181 576 582
3 582 48 181
3 576 150 582
3 181 12 576
3 429 184 584
3 584 118 429
3 184 48 584
3 429 8 184
3 587 585 586
3 586 97 587
3 585 152 586
3 587 121 585
3 573 357 586
3 586 152 573
3 357 97 586
3 573 27 357
3 438 578 585
3 585 121 438
3 578 152 585
3 438 36 578
3 358 441 587
3 587 97 358
3 441 121 587
3 358 1 441
3 590 588 589
3 589 155 590
3 588 154 589
3 590 153 588
3 592 591 589
3 589 154 592
3 591 155 589
3 592 17 591
3 594 593 588
3 588 153 594
3 593 154 588
3 594 30 593
3 596 595 590
3 590 155 596
3 595 153 590
3 596 35 595
3 599 597 598
3 598 104 599
3 597 154 598
3 599 64 597
3 593 383 598
3 598 154 593
3 383 104 598
3 593 30 383
3 237 592 597
3 597 64 237
3 592 154 597
3 237 17 592
3 384 240 599
3 599 104 384
3 240 64 599
3 384 6 240
3 602 600 601
3 601 120 602
3 600 153 601
3 602 103 600
3 595 439 601
3 601 153 595
3 439 120 601
3 595 35 439
3 377 594 600
3 600 103 377
3 594 153 600
3 377 30 594
3 440 378 602
3 602 120 440
3 378 103 602
3 440 1 378
3 605 603 604
3 604 65 605
3 603 155 604
3 605 119 603
3 591 245 604
3 604 155 591
3 245 65 604
3 591 17 245
3 433 596 603
3 603 119 433
3 596 155 603
3 433 35 596
3 246 434 605
3 605 65 246
3 434 119 605
3 246 11 434
3 608 606 607
3 607 158 608
3 606 157 607
3 608 156 606
3 610 609 607
3 607 157 610
3 609 158 607
3 610 15 609
3 612 611 606
3 606 156 612
3 611 157 606
3 612 28 611
3 614 613 608
3 608 158 614
3 613 156 608
3 614 41 613
3 617 615 616
3 616 95 617
3 615 157 616
3 617 55 615
3 611 350 616
3 616 157 611
3 350 95 616
3 611 28 350
3 209 610 615
3 615 55 209
3 610 157 615
3 209 15 610
3 351 210 617
3 617 95 351
3 210 55 617
3 351 7 210
3 620 618 619
3 619 135 620
3 618 156 619
3 620 94 618
3 613 490 619
3 619 156 613
3 490 135 619
3 613 41 490
3 342 612 618
3 618 94 342
3 612 156 618
3 342 28 612
3 491 345 620
3 620 135 491
3 345 94 620
3 491 2 345
3 623 621 622
3 622 56 623
3 621 158 622
3 623 134 621
3 609 215 622
3 622 158 609
3 215 56 622
3 609 15 215
3 484 614 621
3 621 134 484
3 614 158 621
3 484 41 614
3 216 485 623
3 623 56 216
3 485 134 623
3 216 9 485
3 626 624 625
3 625 161 626
3 624 160 625
3 626 159 624
3 628 627 625
3 625 160 628
3 627 161 625
3 628 31 627
3 630 629 624
3 624 159 630
3 629 160 624
3 630 20 629
3 632 631 626
3 626 161 632
3 631 159 626
3 632 40 631
3 635 633 634
3 634 73 635
3 633 160 634
3 635 105 633
3 629 272 634
3 634 160 629
3 272 73 634
3 629 20 272
3 382 628 633
3 633 105 382
3 628 160 633
3 382 31 628
3 273 385 635
3 635 73 273
3 385 105 635
3 273 6 385
3 638 636 637
3 637 137 638
3 636 159 637
3 638 72 636
3 631 496 637
3 637 159 631
3 496 137 637
3 631 40 496
3 265 630 636
3 636 72 265
3 630 159 636
3 265 20 630
3 497 268 638
3 638 137 497
3 268 72 638
3 497 10 268
3 641 639 640
3 640 102 641
3 639 161 640
3 641 136 639
3 627 372 640
3 640 161 627
3 372 102 640
3 627 31 372
3 489 632 639
3 639 136 489
3 632 161 639
3 489 40 632
3 373 492 641
3 641 102 373
3 492 136 641
3 373 2 492
