# vtk DataFile Version 3.0
this file was written using fslvtkio
ASCII
DATASET POLYDATA
POINTS 642 float
104.993 139.499 101.902
98.3544 139.293 101.097
100.821 134.911 100.174
106.187 134.706 100.376
104.499 137.403 103.483
104.33 136.877 98.603
101.039 136.888 98.1975
101.039 137.332 102.898
102.336 141.812 104.486
103.54 133.717 101.407
103.034 131.987 97.2159
101.977 141.397 100.183
101.215 139.218 103.724
103.834 139.555 104.755
102.643 137.562 103.551
102.3 135.884 101.987
103.961 135.425 102.409
101.107 139.196 98.9254
102.7 136.818 98.0511
102.982 138.804 99.6515
101.619 134.252 96.3381
104.209 134.63 97.174
105.723 135.929 102.069
105.738 138.892 103.399
105.58 137.207 101.149
105.529 135.661 99.0984
104.4 138.013 100.392
99.3482 138.18 102.528
100.59 136.309 101.674
99.4548 137.039 100.726
99.4628 138.426 99.2627
100.826 135.493 98.9161
103.77 140.959 101.276
104.594 141.439 103.524
102.176 143.621 102.225
99.7356 141.449 100.307
99.585 141.517 102.941
105.629 132.454 98.7267
103.306 131.592 100.013
105.36 132.985 101.568
101.029 132.534 98.6707
101.918 133.745 100.741
102.464 139.455 104.312
103.066 138.536 104.106
102.083 138.451 103.67
103.512 137.481 103.795
104.241 138.445 104.109
103.1 140.763 104.787
101.712 140.581 104.113
101.092 138.243 103.245
101.802 137.515 103.162
102.502 136.78 102.698
103.308 136.618 102.965
103.143 135.689 102.187
104.315 136.556 102.805
101.637 136.799 102.442
102.761 134.648 101.814
103.729 134.498 101.87
101.901 137.863 98.7634
102.657 137.675 99.1185
102.13 139.077 99.2072
103.531 137.562 99.3018
103.672 136.933 98.2644
101.737 136.759 98.0415
101.002 137.877 98.628
101.515 140.392 99.5915
102.517 140.196 99.9642
103.086 134.394 96.0944
103.504 135.857 97.2045
102.377 135.653 97.0389
104.277 135.965 98.0123
103.835 132.889 96.5098
102.14 132.451 95.8894
101.452 135.646 97.5542
105.397 137.423 102.609
105.454 137.968 102.204
105.679 136.562 101.658
105.291 138.464 101.601
105.513 139.358 102.603
105.251 138.116 103.662
105.061 136.805 102.581
106.103 135.268 101.207
105.971 135.922 100.702
105.694 136.463 100.11
105.205 137.681 100.612
105.252 137.056 99.6378
104.919 138.987 101.123
105.975 135.063 99.7584
104.973 136.367 98.7329
104.434 137.408 99.4038
99.8187 137.246 102.14
99.7545 136.586 101.377
99.1775 137.728 101.672
100.252 136.129 100.503
100.596 135.57 101.023
100.665 136.831 102.431
100.247 137.778 102.836
98.5981 138.71 101.908
98.7905 138.238 100.865
99.3285 137.681 99.9744
100.101 136.526 99.8436
100.109 137.031 99.2514
100.807 135.009 99.5534
98.8074 139.044 100.188
100.387 137.544 98.8871
100.879 136.174 98.3653
104.214 141.654 102.35
103.657 142.852 103.146
103.329 142.585 101.646
102.144 143.147 103.946
103.612 141.969 104.297
105.007 140.567 102.626
104.6 140.325 101.683
102.949 141.502 100.667
102.019 142.496 100.862
100.545 143.042 101.102
100.343 143.177 102.916
98.9273 142.292 101.607
100.944 142.02 103.884
101.015 141.841 100.065
98.5628 140.602 100.619
98.6732 140.515 101.861
104.724 131.219 99.3583
104.573 131.708 100.896
105.971 132.025 100.302
104.325 133.172 101.409
103.566 132.584 100.882
103.081 131.435 98.5135
104.401 131.975 97.8332
105.978 133.616 99.7645
106.09 133.809 100.858
101.6 133.014 99.875
102.715 132.598 100.218
102.108 132.065 99.3474
102.698 133.527 101.14
101.123 134.171 100.447
100.816 133.727 99.5449
101.82 132.024 97.7241
104.999 139.381 104.286
104.702 140.893 104.867
105.307 140.222 103.675
104.014 139.338 100.839
103.358 139.909 100.388
103.715 138.483 100.06
104.764 134.34 101.75
104.986 135.518 102.197
105.628 134.53 101.592
105.693 134.103 98.6639
105.208 135.043 98.0569
105.127 133.345 97.5055
100.392 140.287 103.502
100.021 138.76 103.346
99.1757 139.587 102.839
99.2123 139.949 99.51
100.116 139.072 98.9868
100.347 140.464 99.4361
101.219 135.013 101.32
101.466 136.051 101.794
102.002 134.732 101.461
100.943 132.829 96.99
101.2 134.479 97.6909
100.763 133.668 98.4444
102.821 139.022 104.251
102.616 138.549 103.863
102.176 138.902 104.066
102.418 138.051 103.574
102.888 138.069 103.733
103.417 139.044 104.451
103.119 139.623 104.618
101.765 139.282 104.066
101.613 138.8 103.791
103.34 137.989 103.887
103.662 138.521 104.18
103.782 137.898 104.032
104.054 139.02 104.406
103.099 137.498 103.667
104.012 137.414 103.733
104.352 137.913 103.958
102.746 140.02 104.631
102.003 139.85 104.363
102.404 140.633 104.446
101.358 139.755 103.982
103.522 140.064 105.005
102.699 141.339 104.499
102.095 141.341 104.217
101.588 138.36 103.435
101.965 137.974 103.379
101.443 137.898 103.242
102.227 137.562 103.348
101.115 138.691 103.534
101.022 137.749 103.082
101.407 137.425 102.996
102.918 136.706 102.848
103.273 136.141 102.499
102.931 136.341 102.336
103.502 135.516 102.389
103.607 136.025 102.668
102.882 137.007 103.401
102.511 137.087 103.195
102.476 136.436 102.232
102.733 135.803 102.099
103.834 136.571 102.86
103.324 136.929 103.478
103.88 136.917 103.344
104.153 136.002 102.589
104.455 136.976 103.059
102.08 137.087 103.014
102.043 136.781 102.579
101.625 137.069 102.918
102.019 136.47 102.147
101.309 137.008 102.728
102.971 135.172 101.972
103.442 135.038 102.048
103.169 134.569 101.912
103.844 134.914 102.148
102.526 135.27 101.91
103.128 134.104 101.641
103.571 134.038 101.644
102.255 137.728 98.9637
102.385 138.276 99.1565
101.989 138.444 98.9676
102.584 138.958 99.3957
102.775 138.163 99.4031
102.672 137.253 98.5738
102.249 137.254 98.5481
101.519 138.552 98.8379
101.652 139.183 99.0437
103.113 137.61 99.2024
103.14 137.289 98.6169
103.632 137.338 98.6962
103.177 136.876 98.152
103.128 138.046 99.6486
103.986 137.277 98.8503
104.032 136.857 98.4353
101.805 137.267 98.4986
101.472 137.87 98.6914
101.438 137.304 98.4207
101.02 138.542 98.7247
102.207 136.778 98.0595
101.332 136.808 98.1043
101.005 137.36 98.3768
101.834 139.729 99.4037
102.305 139.604 99.5564
101.993 140.252 99.7851
102.76 139.487 99.7735
101.338 139.828 99.2332
101.726 140.944 99.9057
102.215 140.815 100.112
103.365 135.189 96.5264
102.981 135.748 96.9239
102.722 135.084 96.3168
102.575 136.28 97.5722
103.083 136.319 97.6267
103.864 135.29 97.0351
103.624 134.486 96.6894
102.252 134.237 96.0507
102.009 134.972 96.5044
103.553 136.415 97.8139
103.94 135.928 97.5716
103.949 136.425 98.0577
104.262 135.391 97.5316
104.333 136.464 98.3425
103.465 133.543 96.0889
102.669 133.344 95.6699
103.06 132.577 96.0169
101.727 133.214 95.8475
104.094 133.696 96.7329
103.42 132.272 96.7288
102.594 132.148 96.5927
101.853 135.604 97.1096
102.069 136.297 97.5514
101.576 136.321 97.6258
101.571 134.939 96.9122
101.259 136.348 97.9127
105.393 137.719 102.447
105.576 137.262 101.915
105.578 136.99 102.188
105.66 136.887 101.394
105.472 137.563 101.642
105.686 138.529 102.765
105.541 138.229 103.044
105.528 136.691 102.311
105.779 136.287 101.875
105.316 138.194 101.934
105.648 138.789 102.403
105.382 138.949 102.083
105.73 139.204 102.985
105.335 137.795 101.412
105.221 139.104 101.754
105.221 139.468 102.222
105.29 137.796 103.144
105.216 137.075 102.61
105.04 137.433 103.053
105.354 136.397 102.38
105.556 138.522 103.69
104.846 137.724 103.628
104.806 137.098 102.935
105.942 135.909 101.413
105.874 136.212 101.18
106.063 135.644 100.975
105.706 136.488 100.886
105.896 135.55 101.621
106.158 134.887 100.748
106.143 135.238 100.487
105.543 137.082 100.338
105.259 137.335 100.131
105.548 136.803 99.8502
104.878 137.604 99.9919
104.849 137.855 100.497
105.43 137.399 100.865
105.654 136.835 100.601
105.608 136.039 99.6225
105.455 136.396 99.3485
105.002 138.306 100.884
105.185 138.06 101.113
105.185 138.747 101.307
104.666 138.509 100.757
104.976 139.306 101.506
105.891 136.174 100.37
105.83 135.793 99.8966
105.999 135.5 100.214
105.749 135.342 99.3999
106.184 134.836 100.052
105.183 136.709 99.1547
104.877 137.262 99.5146
104.815 136.934 99.0267
104.35 137.689 99.9571
105.247 136.022 98.8747
104.595 136.619 98.6348
104.367 137.121 98.9777
99.7121 136.89 101.79
99.5144 137.126 101.569
99.4976 137.507 101.964
99.263 137.364 101.227
99.5473 136.766 101.086
100.148 136.393 101.557
100.088 136.691 101.978
99.6018 137.796 102.326
99.1811 138.01 102.098
100.061 136.408 100.885
100.235 136.116 101.146
100.37 135.862 100.729
100.612 135.916 101.345
99.8766 136.622 100.605
100.583 135.501 100.321
100.678 135.236 100.574
100.208 136.981 102.282
99.9677 137.455 102.499
100.378 137.23 102.639
99.8631 138.004 102.663
100.632 136.638 102.052
100.842 137.061 102.71
100.625 137.488 102.946
98.9121 138.251 101.747
98.9311 137.967 101.305
98.6232 138.442 101.419
99.068 137.645 100.813
98.9143 138.429 102.28
98.3849 138.975 101.5
98.474 138.675 101.004
99.7447 137.102 99.8978
100.126 136.798 99.552
99.7025 137.392 99.5822
100.475 136.294 99.0915
100.463 136.038 99.3986
99.8326 136.846 100.256
99.4034 137.364 100.342
99.4398 138.074 99.6302
99.7764 137.752 99.3079
100.508 135.859 99.7021
100.21 136.305 100.134
100.576 135.681 100.019
100.794 135.179 99.2163
100.818 134.944 99.8876
99.0079 137.969 100.391
99.0176 138.358 100.016
98.754 138.614 100.513
99.071 138.779 99.6574
98.5029 139.221 100.64
100.233 137.368 99.0382
100.466 136.591 98.8227
100.577 136.94 98.5799
100.837 135.8 98.6168
99.8866 138.08 99.0316
100.707 137.203 98.4469
100.948 136.562 98.2247
104.009 142.165 102.734
103.501 142.881 102.359
103.807 142.132 102.049
102.902 143.338 101.843
102.931 143.411 102.685
104.131 142.028 103.432
104.385 141.645 102.959
104.072 141.364 101.781
103.602 141.759 101.494
103.061 143.28 103.617
103.71 142.525 103.942
103.046 142.786 104.307
104.169 141.691 103.983
102.097 143.464 103.114
102.247 142.589 104.441
102.923 141.986 104.491
104.66 141.159 102.517
104.348 140.926 102.048
104.671 140.477 102.217
104.176 140.614 101.512
104.995 141.157 103.044
104.942 139.906 102.246
104.823 139.883 101.794
103.102 141.978 101.141
102.771 142.733 101.171
102.589 142.025 100.732
102.124 143.271 101.385
103.371 141.23 100.987
102.443 141.52 100.411
101.998 141.95 100.423
100.295 143.444 101.936
99.3601 143.013 102.31
99.6537 142.857 101.265
99.1873 141.975 102.355
99.705 142.454 103.068
101.238 143.495 102.559
101.268 143.495 101.689
100.085 142.294 100.649
99.3558 142.012 100.77
100.584 142.671 103.539
101.258 143.192 103.44
101.368 142.76 104.063
100.206 141.844 103.488
101.637 142.023 104.26
101.289 142.885 101
100.75 142.329 100.543
101.415 142.248 100.476
100.363 141.783 100.12
101.548 141.632 100.121
98.8474 141.389 101.115
98.9046 141.399 101.77
98.6349 140.783 101.279
99.0949 141.046 102.356
99.0594 141.136 100.377
98.4206 139.899 100.894
98.4031 139.822 101.472
104.66 131.303 100.191
105.264 131.571 100.731
105.421 131.534 99.8676
105.725 132.31 101.079
104.97 132.207 101.276
103.922 131.532 100.419
103.913 131.173 99.6995
105.314 131.678 98.9814
105.843 132.147 99.4331
104.467 132.427 101.29
103.972 132.09 100.908
103.982 132.735 101.183
103.466 132.073 100.498
104.748 132.926 101.517
103.847 133.449 101.386
103.582 133.215 101.187
103.889 131.234 98.915
104.618 131.504 98.5137
103.755 131.556 98.1381
105.12 132.123 98.2457
103.132 131.305 99.3033
103.037 131.661 97.7632
103.612 131.977 97.4847
106.085 132.901 99.9705
106.154 133.022 100.658
106.007 133.591 100.323
105.906 133.314 101.251
105.911 132.987 99.2561
106.203 134.183 100.113
106.213 134.241 100.541
102.209 132.802 100.037
102.464 132.23 99.8169
101.867 132.459 99.5708
102.647 131.744 99.6543
102.972 132.071 100.093
102.296 133.144 100.435
101.862 133.425 100.299
101.292 132.687 99.3446
101.612 132.239 98.9535
103.165 132.576 100.5
102.787 133.014 100.692
103.192 133.03 100.95
102.252 133.588 100.947
103.154 133.594 101.31
101.437 133.674 100.131
101.05 133.308 99.7305
101.02 133.936 100.015
100.84 133.133 99.155
101.492 133.977 100.634
100.913 134.527 100.28
100.804 134.331 99.8978
101.857 131.976 98.5915
102.354 131.554 98.936
102.301 131.645 98.1282
101.387 132.232 98.1285
102.35 131.825 97.3549
105.022 140.152 104.698
105.307 140.746 104.316
105.243 139.783 104.083
105.259 141.043 103.659
104.745 141.237 104.177
104.286 140.185 105.01
104.489 139.548 104.592
105.477 139.096 103.932
105.677 139.53 103.563
104.161 141.443 104.569
103.897 140.89 105.18
103.361 141.481 104.593
104.691 139.014 104.119
105.158 138.747 104.081
104.788 138.35 104.042
105.443 139.76 103.147
105.211 140.492 103.163
105.168 139.88 102.706
103.652 139.613 100.654
103.458 139.14 100.334
103.829 138.94 100.498
103.382 138.693 99.892
103.125 139.315 100.07
103.56 140.5 100.811
103.913 140.184 101.04
104.197 138.713 100.657
103.968 138.227 100.262
102.98 140.121 100.183
103.207 140.782 100.54
102.732 140.868 100.322
104.389 139.876 101.191
104.504 139.173 100.984
104.722 139.617 101.364
103.869 137.772 99.8883
103.44 137.903 99.8125
103.946 137.468 99.3784
104.89 134.948 102.071
105.332 135.065 101.987
105.238 134.366 101.722
105.717 135.291 101.861
105.392 135.672 102.156
104.437 135.398 102.299
104.305 134.888 102.237
105.116 133.71 101.609
105.539 133.903 101.477
105.023 136.095 102.456
104.684 135.951 102.486
104.787 136.593 102.705
104.294 134.356 101.802
104.594 133.699 101.602
104.082 133.879 101.623
105.891 134.17 101.293
105.96 134.885 101.403
106.126 134.532 101.033
105.5 134.564 98.2594
105.188 134.196 97.7032
105.411 133.715 98.1177
104.671 133.928 97.2405
104.653 134.788 97.6447
105.35 135.376 98.6204
105.656 134.925 98.8458
105.751 133.265 98.6188
105.415 132.865 98.0593
104.734 135.552 97.9583
105.1 135.768 98.3979
104.72 136.097 98.3438
105.922 134.554 99.1997
105.82 133.775 99.1957
106.057 134.305 99.6805
104.888 132.562 97.5508
104.522 133.062 97.0409
104.151 132.458 97.1648
100.17 139.479 103.435
99.5406 139.112 103.16
99.6874 139.903 103.259
99.1381 138.774 102.765
99.6372 138.489 102.954
100.594 139.062 103.568
100.768 139.742 103.667
99.9945 140.861 103.312
99.3892 140.499 102.903
100.133 138.237 103.046
100.57 138.526 103.31
100.613 138.058 103.06
100.911 140.447 103.901
100.618 141.222 103.653
101.279 141.32 104.001
98.8224 140.032 102.455
98.7578 139.122 102.416
98.4759 139.477 101.986
99.5674 139.61 99.1121
100.174 139.813 99.1174
99.7743 140.274 99.4085
100.765 139.843 99.1615
100.566 139.172 98.9137
99.6836 138.82 99.0323
99.1552 139.171 99.2685
99.4994 140.641 99.9498
100.053 140.914 99.8516
100.538 138.487 98.7214
100.137 138.325 98.8101
100.62 137.742 98.659
98.873 139.542 99.8588
98.8772 140.264 100.022
98.5521 139.813 100.273
100.676 141.09 99.7682
100.945 140.453 99.5052
101.253 141.08 99.7555
101.341 135.555 101.563
101.73 135.447 101.616
101.555 134.795 101.407
102.13 135.311 101.777
101.948 136.004 101.842
101.029 136.156 101.754
101.059 135.806 101.42
101.457 134.28 101.133
101.854 134.14 101.194
101.597 136.492 102.05
101.096 136.524 102.077
101.164 136.735 102.392
100.883 135.269 101.21
101.083 134.555 100.956
100.876 134.897 100.782
102.219 134.075 101.364
102.368 134.7 101.626
102.691 134.078 101.558
101.047 133.644 97.2094
100.914 134.002 98.037
100.754 133.229 97.7508
100.93 134.579 98.6452
101.084 134.922 98.3615
101.317 134.265 96.9761
101.209 133.33 96.426
100.882 132.559 97.8321
100.762 133.058 98.4778
101.223 135.375 98.11
101.382 135.084 97.5698
101.209 135.846 97.9182
101.337 132.578 96.289
101.312 132.323 97.2442
101.891 132.165 96.8205
100.792 133.652 98.9922
100.853 134.353 99.0256
100.818 134.29 99.4364
POLYGONS 1280  5120
3 164 162 163
3 163 44 164
3 162 43 163
3 164 42 162
3 166 165 163
3 163 43 166
3 165 44 163
3 166 14 165
3 168 167 162
3 162 42 168
3 167 43 162
3 168 13 167
3 170 169 164
3 164 44 170
3 169 42 164
3 170 12 169
3 173 171 172
3 172 46 173
3 171 43 172
3 173 45 171
3 167 174 172
3 172 43 167
3 174 46 172
3 167 13 174
3 175 166 171
3 171 45 175
3 166 43 171
3 175 14 166
3 177 176 173
3 173 46 177
3 176 45 173
3 177 4 176
3 180 178 179
3 179 48 180
3 178 42 179
3 180 47 178
3 169 181 179
3 179 42 169
3 181 48 179
3 169 12 181
3 182 168 178
3 178 47 182
3 168 42 178
3 182 13 168
3 184 183 180
3 180 48 184
3 183 47 180
3 184 8 183
3 187 185 186
3 186 50 187
3 185 44 186
3 187 49 185
3 165 188 186
3 186 44 165
3 188 50 186
3 165 14 188
3 189 170 185
3 185 49 189
3 170 44 185
3 189 12 170
3 191 190 187
3 187 50 191
3 190 49 187
3 191 7 190
3 194 192 193
3 193 53 194
3 192 52 193
3 194 51 192
3 196 195 193
3 193 52 196
3 195 53 193
3 196 16 195
3 198 197 192
3 192 51 198
3 197 52 192
3 198 14 197
3 200 199 194
3 194 53 200
3 199 51 194
3 200 15 199
3 203 201 202
3 202 45 203
3 201 52 202
3 203 54 201
3 197 175 202
3 202 52 197
3 175 45 202
3 197 14 175
3 204 196 201
3 201 54 204
3 196 52 201
3 204 16 196
3 176 205 203
3 203 45 176
3 205 54 203
3 176 4 205
3 208 206 207
3 207 55 208
3 206 51 207
3 208 50 206
3 199 209 207
3 207 51 199
3 209 55 207
3 199 15 209
3 188 198 206
3 206 50 188
3 198 51 206
3 188 14 198
3 210 191 208
3 208 55 210
3 191 50 208
3 210 7 191
3 213 211 212
3 212 57 213
3 211 53 212
3 213 56 211
3 195 214 212
3 212 53 195
3 214 57 212
3 195 16 214
3 215 200 211
3 211 56 215
3 200 53 211
3 215 15 200
3 217 216 213
3 213 57 217
3 216 56 213
3 217 9 216
3 220 218 219
3 219 60 220
3 218 59 219
3 220 58 218
3 222 221 219
3 219 59 222
3 221 60 219
3 222 19 221
3 224 223 218
3 218 58 224
3 223 59 218
3 224 18 223
3 226 225 220
3 220 60 226
3 225 58 220
3 226 17 225
3 229 227 228
3 228 62 229
3 227 59 228
3 229 61 227
3 223 230 228
3 228 59 223
3 230 62 228
3 223 18 230
3 231 222 227
3 227 61 231
3 222 59 227
3 231 19 222
3 233 232 229
3 229 62 233
3 232 61 229
3 233 5 232
3 236 234 235
3 235 64 236
3 234 58 235
3 236 63 234
3 225 237 235
3 235 58 225
3 237 64 235
3 225 17 237
3 238 224 234
3 234 63 238
3 224 58 234
3 238 18 224
3 240 239 236
3 236 64 240
3 239 63 236
3 240 6 239
3 243 241 242
3 242 66 243
3 241 60 242
3 243 65 241
3 221 244 242
3 242 60 221
3 244 66 242
3 221 19 244
3 245 226 241
3 241 65 245
3 226 60 241
3 245 17 226
3 247 246 243
3 243 66 247
3 246 65 243
3 247 11 246
3 250 248 249
3 249 69 250
3 248 68 249
3 250 67 248
3 252 251 249
3 249 68 252
3 251 69 249
3 252 18 251
3 254 253 248
3 248 67 254
3 253 68 248
3 254 21 253
3 256 255 250
3 250 69 256
3 255 67 250
3 256 20 255
3 259 257 258
3 258 70 259
3 257 68 258
3 259 62 257
3 253 260 258
3 258 68 253
3 260 70 258
3 253 21 260
3 230 252 257
3 257 62 230
3 252 68 257
3 230 18 252
3 261 233 259
3 259 70 261
3 233 62 259
3 261 5 233
3 264 262 263
3 263 72 264
3 262 67 263
3 264 71 262
3 255 265 263
3 263 67 255
3 265 72 263
3 255 20 265
3 266 254 262
3 262 71 266
3 254 67 262
3 266 21 254
3 268 267 264
3 264 72 268
3 267 71 264
3 268 10 267
3 271 269 270
3 270 63 271
3 269 69 270
3 271 73 269
3 251 238 270
3 270 69 251
3 238 63 270
3 251 18 238
3 272 256 269
3 269 73 272
3 256 69 269
3 272 20 256
3 239 273 271
3 271 63 239
3 273 73 271
3 239 6 273
3 276 274 275
3 275 76 276
3 274 75 275
3 276 74 274
3 278 277 275
3 275 75 278
3 277 76 275
3 278 24 277
3 280 279 274
3 274 74 280
3 279 75 274
3 280 23 279
3 282 281 276
3 276 76 282
3 281 74 276
3 282 22 281
3 285 283 284
3 284 78 285
3 283 75 284
3 285 77 283
3 279 286 284
3 284 75 279
3 286 78 284
3 279 23 286
3 287 278 283
3 283 77 287
3 278 75 283
3 287 24 278
3 289 288 285
3 285 78 289
3 288 77 285
3 289 0 288
3 292 290 291
3 291 80 292
3 290 74 291
3 292 79 290
3 281 293 291
3 291 74 281
3 293 80 291
3 281 22 293
3 294 280 290
3 290 79 294
3 280 74 290
3 294 23 280
3 296 295 292
3 292 80 296
3 295 79 292
3 296 4 295
3 299 297 298
3 298 82 299
3 297 76 298
3 299 81 297
3 277 300 298
3 298 76 277
3 300 82 298
3 277 24 300
3 301 282 297
3 297 81 301
3 282 76 297
3 301 22 282
3 303 302 299
3 299 82 303
3 302 81 299
3 303 3 302
3 306 304 305
3 305 85 306
3 304 84 305
3 306 83 304
3 308 307 305
3 305 84 308
3 307 85 305
3 308 26 307
3 310 309 304
3 304 83 310
3 309 84 304
3 310 24 309
3 312 311 306
3 306 85 312
3 311 83 306
3 312 25 311
3 315 313 314
3 314 77 315
3 313 84 314
3 315 86 313
3 309 287 314
3 314 84 309
3 287 77 314
3 309 24 287
3 316 308 313
3 313 86 316
3 308 84 313
3 316 26 308
3 288 317 315
3 315 77 288
3 317 86 315
3 288 0 317
3 320 318 319
3 319 87 320
3 318 83 319
3 320 82 318
3 311 321 319
3 319 83 311
3 321 87 319
3 311 25 321
3 300 310 318
3 318 82 300
3 310 83 318
3 300 24 310
3 322 303 320
3 320 87 322
3 303 82 320
3 322 3 303
3 325 323 324
3 324 89 325
3 323 85 324
3 325 88 323
3 307 326 324
3 324 85 307
3 326 89 324
3 307 26 326
3 327 312 323
3 323 88 327
3 312 85 323
3 327 25 312
3 329 328 325
3 325 89 329
3 328 88 325
3 329 5 328
3 332 330 331
3 331 92 332
3 330 91 331
3 332 90 330
3 334 333 331
3 331 91 334
3 333 92 331
3 334 29 333
3 336 335 330
3 330 90 336
3 335 91 330
3 336 28 335
3 338 337 332
3 332 92 338
3 337 90 332
3 338 27 337
3 341 339 340
3 340 94 341
3 339 91 340
3 341 93 339
3 335 342 340
3 340 91 335
3 342 94 340
3 335 28 342
3 343 334 339
3 339 93 343
3 334 91 339
3 343 29 334
3 345 344 341
3 341 94 345
3 344 93 341
3 345 2 344
3 348 346 347
3 347 96 348
3 346 90 347
3 348 95 346
3 337 349 347
3 347 90 337
3 349 96 347
3 337 27 349
3 350 336 346
3 346 95 350
3 336 90 346
3 350 28 336
3 352 351 348
3 348 96 352
3 351 95 348
3 352 7 351
3 355 353 354
3 354 98 355
3 353 92 354
3 355 97 353
3 333 356 354
3 354 92 333
3 356 98 354
3 333 29 356
3 357 338 353
3 353 97 357
3 338 92 353
3 357 27 338
3 359 358 355
3 355 98 359
3 358 97 355
3 359 1 358
3 362 360 361
3 361 101 362
3 360 100 361
3 362 99 360
3 364 363 361
3 361 100 364
3 363 101 361
3 364 31 363
3 366 365 360
3 360 99 366
3 365 100 360
3 366 29 365
3 368 367 362
3 362 101 368
3 367 99 362
3 368 30 367
3 371 369 370
3 370 93 371
3 369 100 370
3 371 102 369
3 365 343 370
3 370 100 365
3 343 93 370
3 365 29 343
3 372 364 369
3 369 102 372
3 364 100 369
3 372 31 364
3 344 373 371
3 371 93 344
3 373 102 371
3 344 2 373
3 376 374 375
3 375 103 376
3 374 99 375
3 376 98 374
3 367 377 375
3 375 99 367
3 377 103 375
3 367 30 377
3 356 366 374
3 374 98 356
3 366 99 374
3 356 29 366
3 378 359 376
3 376 103 378
3 359 98 376
3 378 1 359
3 381 379 380
3 380 105 381
3 379 101 380
3 381 104 379
3 363 382 380
3 380 101 363
3 382 105 380
3 363 31 382
3 383 368 379
3 379 104 383
3 368 101 379
3 383 30 368
3 385 384 381
3 381 105 385
3 384 104 381
3 385 6 384
3 388 386 387
3 387 108 388
3 386 107 387
3 388 106 386
3 390 389 387
3 387 107 390
3 389 108 387
3 390 34 389
3 392 391 386
3 386 106 392
3 391 107 386
3 392 33 391
3 394 393 388
3 388 108 394
3 393 106 388
3 394 32 393
3 397 395 396
3 396 110 397
3 395 107 396
3 397 109 395
3 391 398 396
3 396 107 391
3 398 110 396
3 391 33 398
3 399 390 395
3 395 109 399
3 390 107 395
3 399 34 390
3 401 400 397
3 397 110 401
3 400 109 397
3 401 8 400
3 404 402 403
3 403 112 404
3 402 106 403
3 404 111 402
3 393 405 403
3 403 106 393
3 405 112 403
3 393 32 405
3 406 392 402
3 402 111 406
3 392 106 402
3 406 33 392
3 408 407 404
3 404 112 408
3 407 111 404
3 408 0 407
3 411 409 410
3 410 114 411
3 409 108 410
3 411 113 409
3 389 412 410
3 410 108 389
3 412 114 410
3 389 34 412
3 413 394 409
3 409 113 413
3 394 108 409
3 413 32 394
3 415 414 411
3 411 114 415
3 414 113 411
3 415 11 414
3 418 416 417
3 417 117 418
3 416 116 417
3 418 115 416
3 420 419 417
3 417 116 420
3 419 117 417
3 420 36 419
3 422 421 416
3 416 115 422
3 421 116 416
3 422 34 421
3 424 423 418
3 418 117 424
3 423 115 418
3 424 35 423
3 427 425 426
3 426 109 427
3 425 116 426
3 427 118 425
3 421 399 426
3 426 116 421
3 399 109 426
3 421 34 399
3 428 420 425
3 425 118 428
3 420 116 425
3 428 36 420
3 400 429 427
3 427 109 400
3 429 118 427
3 400 8 429
3 432 430 431
3 431 119 432
3 430 115 431
3 432 114 430
3 423 433 431
3 431 115 423
3 433 119 431
3 423 35 433
3 412 422 430
3 430 114 412
3 422 115 430
3 412 34 422
3 434 415 432
3 432 119 434
3 415 114 432
3 434 11 415
3 437 435 436
3 436 121 437
3 435 117 436
3 437 120 435
3 419 438 436
3 436 117 419
3 438 121 436
3 419 36 438
3 439 424 435
3 435 120 439
3 424 117 435
3 439 35 424
3 441 440 437
3 437 121 441
3 440 120 437
3 441 1 440
3 444 442 443
3 443 124 444
3 442 123 443
3 444 122 442
3 446 445 443
3 443 123 446
3 445 124 443
3 446 39 445
3 448 447 442
3 442 122 448
3 447 123 442
3 448 38 447
3 450 449 444
3 444 124 450
3 449 122 444
3 450 37 449
3 453 451 452
3 452 126 453
3 451 123 452
3 453 125 451
3 447 454 452
3 452 123 447
3 454 126 452
3 447 38 454
3 455 446 451
3 451 125 455
3 446 123 451
3 455 39 446
3 457 456 453
3 453 126 457
3 456 125 453
3 457 9 456
3 460 458 459
3 459 128 460
3 458 122 459
3 460 127 458
3 449 461 459
3 459 122 449
3 461 128 459
3 449 37 461
3 462 448 458
3 458 127 462
3 448 122 458
3 462 38 448
3 464 463 460
3 460 128 464
3 463 127 460
3 464 10 463
3 467 465 466
3 466 130 467
3 465 124 466
3 467 129 465
3 445 468 466
3 466 124 445
3 468 130 466
3 445 39 468
3 469 450 465
3 465 129 469
3 450 124 465
3 469 37 450
3 471 470 467
3 467 130 471
3 470 129 467
3 471 3 470
3 474 472 473
3 473 133 474
3 472 132 473
3 474 131 472
3 476 475 473
3 473 132 476
3 475 133 473
3 476 38 475
3 478 477 472
3 472 131 478
3 477 132 472
3 478 41 477
3 480 479 474
3 474 133 480
3 479 131 474
3 480 40 479
3 483 481 482
3 482 134 483
3 481 132 482
3 483 126 481
3 477 484 482
3 482 132 477
3 484 134 482
3 477 41 484
3 454 476 481
3 481 126 454
3 476 132 481
3 454 38 476
3 485 457 483
3 483 134 485
3 457 126 483
3 485 9 457
3 488 486 487
3 487 136 488
3 486 131 487
3 488 135 486
3 479 489 487
3 487 131 479
3 489 136 487
3 479 40 489
3 490 478 486
3 486 135 490
3 478 131 486
3 490 41 478
3 492 491 488
3 488 136 492
3 491 135 488
3 492 2 491
3 495 493 494
3 494 127 495
3 493 133 494
3 495 137 493
3 475 462 494
3 494 133 475
3 462 127 494
3 475 38 462
3 496 480 493
3 493 137 496
3 480 133 493
3 496 40 480
3 463 497 495
3 495 127 463
3 497 137 495
3 463 10 497
3 500 498 499
3 499 140 500
3 498 139 499
3 500 138 498
3 502 501 499
3 499 139 502
3 501 140 499
3 502 33 501
3 504 503 498
3 498 138 504
3 503 139 498
3 504 13 503
3 506 505 500
3 500 140 506
3 505 138 500
3 506 23 505
3 509 507 508
3 508 47 509
3 507 139 508
3 509 110 507
3 503 182 508
3 508 139 503
3 182 47 508
3 503 13 182
3 398 502 507
3 507 110 398
3 502 139 507
3 398 33 502
3 183 401 509
3 509 47 183
3 401 110 509
3 183 8 401
3 512 510 511
3 511 79 512
3 510 138 511
3 512 46 510
3 505 294 511
3 511 138 505
3 294 79 511
3 505 23 294
3 174 504 510
3 510 46 174
3 504 138 510
3 174 13 504
3 295 177 512
3 512 79 295
3 177 46 512
3 295 4 177
3 515 513 514
3 514 111 515
3 513 140 514
3 515 78 513
3 501 406 514
3 514 140 501
3 406 111 514
3 501 33 406
3 286 506 513
3 513 78 286
3 506 140 513
3 286 23 506
3 407 289 515
3 515 111 407
3 289 78 515
3 407 0 289
3 518 516 517
3 517 143 518
3 516 142 517
3 518 141 516
3 520 519 517
3 517 142 520
3 519 143 517
3 520 19 519
3 522 521 516
3 516 141 522
3 521 142 516
3 522 32 521
3 524 523 518
3 518 143 524
3 523 141 518
3 524 26 523
3 527 525 526
3 526 113 527
3 525 142 526
3 527 66 525
3 521 413 526
3 526 142 521
3 413 113 526
3 521 32 413
3 244 520 525
3 525 66 244
3 520 142 525
3 244 19 520
3 414 247 527
3 527 113 414
3 247 66 527
3 414 11 247
3 530 528 529
3 529 86 530
3 528 141 529
3 530 112 528
3 523 316 529
3 529 141 523
3 316 86 529
3 523 26 316
3 405 522 528
3 528 112 405
3 522 141 528
3 405 32 522
3 317 408 530
3 530 86 317
3 408 112 530
3 317 0 408
3 533 531 532
3 532 61 533
3 531 143 532
3 533 89 531
3 519 231 532
3 532 143 519
3 231 61 532
3 519 19 231
3 326 524 531
3 531 89 326
3 524 143 531
3 326 26 524
3 232 329 533
3 533 61 232
3 329 89 533
3 232 5 329
3 536 534 535
3 535 146 536
3 534 145 535
3 536 144 534
3 538 537 535
3 535 145 538
3 537 146 535
3 538 22 537
3 540 539 534
3 534 144 540
3 539 145 534
3 540 16 539
3 542 541 536
3 536 146 542
3 541 144 536
3 542 39 541
3 545 543 544
3 544 54 545
3 543 145 544
3 545 80 543
3 539 204 544
3 544 145 539
3 204 54 544
3 539 16 204
3 293 538 543
3 543 80 293
3 538 145 543
3 293 22 538
3 205 296 545
3 545 54 205
3 296 80 545
3 205 4 296
3 548 546 547
3 547 125 548
3 546 144 547
3 548 57 546
3 541 455 547
3 547 144 541
3 455 125 547
3 541 39 455
3 214 540 546
3 546 57 214
3 540 144 546
3 214 16 540
3 456 217 548
3 548 125 456
3 217 57 548
3 456 9 217
3 551 549 550
3 550 81 551
3 549 146 550
3 551 130 549
3 537 301 550
3 550 146 537
3 301 81 550
3 537 22 301
3 468 542 549
3 549 130 468
3 542 146 549
3 468 39 542
3 302 471 551
3 551 81 302
3 471 130 551
3 302 3 471
3 554 552 553
3 553 149 554
3 552 148 553
3 554 147 552
3 556 555 553
3 553 148 556
3 555 149 553
3 556 21 555
3 558 557 552
3 552 147 558
3 557 148 552
3 558 25 557
3 560 559 554
3 554 149 560
3 559 147 554
3 560 37 559
3 563 561 562
3 562 88 563
3 561 148 562
3 563 70 561
3 557 327 562
3 562 148 557
3 327 88 562
3 557 25 327
3 260 556 561
3 561 70 260
3 556 148 561
3 260 21 556
3 328 261 563
3 563 88 328
3 261 70 563
3 328 5 261
3 566 564 565
3 565 129 566
3 564 147 565
3 566 87 564
3 559 469 565
3 565 147 559
3 469 129 565
3 559 37 469
3 321 558 564
3 564 87 321
3 558 147 564
3 321 25 558
3 470 322 566
3 566 129 470
3 322 87 566
3 470 3 322
3 569 567 568
3 568 71 569
3 567 149 568
3 569 128 567
3 555 266 568
3 568 149 555
3 266 71 568
3 555 21 266
3 461 560 567
3 567 128 461
3 560 149 567
3 461 37 560
3 267 464 569
3 569 71 267
3 464 128 569
3 267 10 464
3 572 570 571
3 571 152 572
3 570 151 571
3 572 150 570
3 574 573 571
3 571 151 574
3 573 152 571
3 574 27 573
3 576 575 570
3 570 150 576
3 575 151 570
3 576 12 575
3 578 577 572
3 572 152 578
3 577 150 572
3 578 36 577
3 581 579 580
3 580 49 581
3 579 151 580
3 581 96 579
3 575 189 580
3 580 151 575
3 189 49 580
3 575 12 189
3 349 574 579
3 579 96 349
3 574 151 579
3 349 27 574
3 190 352 581
3 581 49 190
3 352 96 581
3 190 7 352
3 584 582 583
3 583 118 584
3 582 150 583
3 584 48 582
3 577 428 583
3 583 150 577
3 428 118 583
3 577 36 428
3 181 576 582
3 582 48 181
3 576 150 582
3 181 12 576
3 429 184 584
3 584 118 429
3 184 48 584
3 429 8 184
3 587 585 586
3 586 97 587
3 585 152 586
3 587 121 585
3 573 357 586
3 586 152 573
3 357 97 586
3 573 27 357
3 438 578 585
3 585 121 438
3 578 152 585
3 438 36 578
3 358 441 587
3 587 97 358
3 441 121 587
3 358 1 441
3 590 588 589
3 589 155 590
3 588 154 589
3 590 153 588
3 592 591 589
3 589 154 592
3 591 155 589
3 592 17 591
3 594 593 588
3 588 153 594
3 593 154 588
3 594 30 593
3 596 595 590
3 590 155 596
3 595 153 590
3 596 35 595
3 599 597 598
3 598 104 599
3 597 154 598
3 599 64 597
3 593 383 598
3 598 154 593
3 383 104 598
3 593 30 383
3 237 592 597
3 597 64 237
3 592 154 597
3 237 17 592
3 384 240 599
3 599 104 384
3 240 64 599
3 384 6 240
3 602 600 601
3 601 120 602
3 600 153 601
3 602 103 600
3 595 439 601
3 601 153 595
3 439 120 601
3 595 35 439
3 377 594 600
3 600 103 377
3 594 153 600
3 377 30 594
3 440 378 602
3 602 120 440
3 378 103 602
3 440 1 378
3 605 603 604
3 604 65 605
3 603 155 604
3 605 119 603
3 591 245 604
3 604 155 591
3 245 65 604
3 591 17 245
3 433 596 603
3 603 119 433
3 596 155 603
3 433 35 596
3 246 434 605
3 605 65 246
3 434 119 605
3 246 11 434
3 608 606 607
3 607 158 608
3 606 157 607
3 608 156 606
3 610 609 607
3 607 157 610
3 609 158 607
3 610 15 609
3 612 611 606
3 606 156 612
3 611 157 606
3 612 28 611
3 614 613 608
3 608 158 614
3 613 156 608
3 614 41 613
3 617 615 616
3 616 95 617
3 615 157 616
3 617 55 615
3 611 350 616
3 616 157 611
3 350 95 616
3 611 28 350
3 209 610 615
3 615 55 209
3 610 157 615
3 209 15 610
3 351 210 617
3 617 95 351
3 210 55 617
3 351 7 210
3 620 618 619
3 619 135 620
3 618 156 619
3 620 94 618
3 613 490 619
3 619 156 613
3 490 135 619
3 613 41 490
3 342 612 618
3 618 94 342
3 612 156 618
3 342 28 612
3 491 345 620
3 620 135 491
3 345 94 620
3 491 2 345
3 623 621 622
3 622 56 623
3 621 158 622
3 623 134 621
3 609 215 622
3 622 158 609
3 215 56 622
3 609 15 215
3 484 614 621
3 621 134 484
3 614 158 621
3 484 41 614
3 216 485 623
3 623 56 216
3 485 134 623
3 216 9 485
3 626 624 625
3 625 161 626
3 624 160 625
3 626 159 624
3 628 627 625
3 625 160 628
3 627 161 625
3 628 31 627
3 630 629 624
3 624 159 630
3 629 160 624
3 630 20 629
3 632 631 626
3 626 161 632
3 631 159 626
3 632 40 631
3 635 633 634
3 634 73 635
3 633 160 634
3 635 105 633
3 629 272 634
3 634 160 629
3 272 73 634
3 629 20 272
3 382 628 633
3 633 105 382
3 628 160 633
3 382 31 628
3 273 385 635
3 635 73 273
3 385 105 635
3 273 6 385
3 638 636 637
3 637 137 638
3 636 159 637
3 638 72 636
3 631 496 637
3 637 159 631
3 496 137 637
3 631 40 496
3 265 630 636
3 636 72 265
3 630 159 636
3 265 20 630
3 497 268 638
3 638 137 497
3 268 72 638
3 497 10 268
3 641 639 640
3 640 102 641
3 639 161 640
3 641 136 639
3 627 372 640
3 640 161 627
3 372 102 640
3 627 31 372
3 489 632 639
3 639 136 489
3 632 161 639
3 489 40 632
3 373 492 641
3 641 102 373
3 492 136 641
3 373 2 492
