# vtk DataFile Version 3.0
this file was written using fslvtkio
ASCII
DATASET POLYDATA
POINTS 642 float
111.26 117.311 110.02
96.2624 111.703 107.794
92.7585 97.8052 102.153
108.93 102.847 106.189
106.426 106.991 116.124
109.39 110.419 100.107
98.9635 107.082 99.0285
95.6788 104.018 115.001
101.467 118.979 115.915
100.772 95.6057 107.866
101.631 95.9148 96.6558
104.527 122.041 104.024
97.9859 112.003 117.298
104.239 113.422 117.531
100.569 104.973 117.198
97.4452 98.4666 112.819
103.923 100.285 113.053
102.568 114.788 102.156
104.337 108.942 99.3751
108.706 118.807 101.119
99.2365 100.5 96.9673
105.274 102.436 99.4958
108.722 104.478 111.566
109.226 113.129 114.433
111.638 110.267 108.11
110.367 106.104 102.584
111.603 116.574 104.184
95.1656 108.513 112.125
93.3273 99.748 109.347
93.9304 104.263 105.047
97.5504 110.175 103.126
95.3793 101.339 99.4733
109.555 123.29 106.566
107.395 120.157 113.716
103.054 122.538 110.461
100.03 117.74 106.812
97.4593 116.509 112.731
106.41 97.3217 101.222
99.4266 93.3675 101.12
105.979 96.8275 107.172
94.5491 95.502 95.7632
95.3221 94.8931 104.515
101.033 113.002 118.125
102.424 109.168 117.901
99.1716 108.398 118.047
103.588 105.887 116.895
105.514 110.372 117.355
103.07 116.487 117.084
99.4593 115.626 117.011
96.7806 108.052 116.57
97.7916 103.941 116.771
99.0471 101.288 115.632
102.481 102.597 115.624
100.735 99.115 113.349
105.407 103.45 114.686
95.9897 100.581 114.247
99.2253 97.0992 110.412
102.61 97.8063 110.671
103.632 112.124 100.548
106.754 114.216 100.361
105.395 117.09 101.109
109.217 114.754 100.328
106.868 109.773 99.8306
101.685 108.027 99.0165
100.917 110.713 101.118
103.562 118.549 102.943
106.572 120.981 101.913
102.32 101.273 97.8005
104.922 105.848 99.0097
101.9 104.745 97.9031
107.548 106.177 99.8829
103.967 98.9886 97.6286
100.344 98.1322 95.6688
99.2353 104.01 97.8456
109.463 108.782 113.236
111.025 111.51 111.513
110.727 107.28 110.255
111.579 113.786 109.029
110.552 115.147 112.452
108.08 110.105 115.681
107.883 105.457 114.001
109.052 103.53 108.871
111.154 106.479 107.315
111.325 108.437 105.257
111.677 113.343 106.085
111.322 111.4 103.396
111.633 117.236 106.974
110.017 104.233 104.412
110.312 108.222 101.043
110.992 113.628 101.815
94.1546 104.092 110.913
93.3615 102.225 107.438
94.6884 106.19 108.755
93.2799 101.009 103.813
92.9615 98.7225 105.912
94.1491 101.839 112.407
95.1948 106.633 113.938
95.572 110.06 109.881
95.37 107.708 106.48
95.6016 106.919 103.9
94.1396 102.738 102.002
95.6949 105.781 100.946
93.496 99.2714 100.021
96.7356 110.923 105.248
98.3316 108.576 101.298
96.7685 104.433 98.7451
108.936 121.998 110.426
105.321 122.265 112.431
106.579 123.649 107.918
101.759 121.388 113.754
104.563 119.636 115.293
110.014 118.902 112.306
110.984 120.497 108.654
107.527 123.77 103.882
103.762 122.742 106.894
101.33 120.878 108.591
99.8305 120.206 112.038
98.6384 117.485 109.768
98.7364 118.056 114.903
102.228 119.781 105.4
97.8261 114.785 107.226
96.8241 114.113 110.322
103.659 94.171 100.908
103.097 94.5174 103.936
106.658 96.3233 103.907
103.512 95.9326 107.716
100.297 94.3404 104.499
100.916 93.9417 98.5434
104.481 96.4673 98.6579
107.694 100.224 103.953
107.615 99.3686 106.681
94.1421 94.1638 99.6771
97.2499 93.7838 102.881
96.9043 93.6547 98.1994
97.9365 95.1563 106.687
93.4908 95.9298 103.353
92.8801 96.3992 98.4342
98.0679 95.2052 95.8415
107.13 113.482 116.622
106.113 117.104 116.183
108.807 117.004 114.547
111.073 120.321 105.487
109.531 122.176 103.084
110.776 117.471 101.913
105.228 98.4578 110.105
106.532 101.916 112.325
107.44 100.58 109.302
108.146 101.922 102.364
108.407 104.263 100.737
106.084 99.7908 100.053
97.1527 114.628 115.323
95.9701 110.459 115.041
95.9915 112.623 112.446
98.5268 114.162 104.949
99.7378 112.628 102.483
101.122 116.523 104.154
94.3663 97.0762 107.074
94.8458 98.7484 111.586
96.6427 96.6348 108.989
97.0156 97.7311 95.0597
96.8712 100.575 97.7567
93.7153 98.4569 96.6548
101.645 111.052 118.192
100.802 108.972 118.188
100.106 110.694 118.36
99.9652 106.868 117.867
101.348 107.215 117.725
103.096 111.306 117.898
102.575 112.905 117.94
99.4814 112.252 118.007
98.7086 110.324 117.956
102.872 107.441 117.553
103.912 109.833 117.717
104.443 108.092 117.355
104.682 111.796 117.585
101.99 105.554 117.165
105.012 106.553 116.68
105.822 108.524 116.939
102.137 114.628 117.827
100.095 114.239 117.941
101.233 115.973 117.405
98.6992 113.811 117.366
103.651 114.894 117.367
102.138 117.709 116.787
100.47 117.27 116.737
97.9071 108.362 117.509
98.5202 106.248 117.666
97.246 106.043 116.992
99.1832 104.75 117.227
97.3708 110.094 117.198
96.2299 105.988 116.035
96.6731 104.119 116.108
100.776 101.866 115.723
101.561 100.723 114.667
99.9478 100.149 114.584
102.306 99.85 113.51
103.023 101.259 114.465
101.489 103.654 116.516
99.8806 103.072 116.462
98.308 99.7037 114.486
99.0802 98.8332 113.408
103.949 102.86 115.167
103.04 104.271 116.446
104.735 104.74 115.978
104.504 101.729 113.982
105.969 105.248 115.584
98.5404 102.654 116.443
97.4825 100.787 115.181
96.8371 102.299 115.823
96.7753 99.4192 113.796
95.8143 102.268 114.81
99.8632 98.1376 112.048
101.766 98.6069 112.143
100.921 97.547 110.693
103.185 99.0313 112.07
98.3599 97.8027 111.738
100.18 96.3573 109.332
101.696 96.6209 109.516
105.145 113.213 100.463
106.125 115.648 100.691
104.594 114.69 100.876
107.002 117.721 100.89
107.65 116.542 100.566
105.564 111.85 100.02
104.259 110.882 99.9571
103.28 113.699 101.188
103.974 115.782 101.508
107.97 114.699 100.373
106.759 111.979 100.079
108.063 112.344 100.029
105.655 109.937 99.7237
109.025 116.958 100.67
109.197 112.442 100.098
108.092 110.207 99.9012
102.883 110.072 99.9573
102.333 111.632 100.911
101.367 109.472 100.012
101.812 112.914 101.604
103.108 108.579 99.1954
100.341 107.607 98.9644
100.053 108.862 100.123
104.352 117.776 101.847
106.03 118.976 101.318
104.9 119.816 102.012
107.515 119.663 101.306
103.162 116.689 102.441
104.066 120.325 103.249
105.265 121.531 102.645
103.654 103.617 98.3637
103.448 105.283 98.4163
102.146 103.116 97.8593
103.139 106.76 98.4679
104.631 107.43 99.0496
104.907 103.947 99.0117
103.834 102.141 98.6084
100.906 101.119 97.2859
100.682 102.624 97.5744
105.847 108.022 99.5164
106.089 105.882 99.473
107.311 108.017 99.7886
106.337 104.307 99.6004
108.574 108.349 99.9954
103.05 100.219 97.7629
101.409 99.8206 96.6348
102.377 98.7366 96.3293
99.8372 99.5104 96.1538
104.341 100.732 98.6869
103.002 97.5291 96.8676
101.247 97.1072 96.0551
100.669 104.452 97.8384
101.997 106.682 98.3544
100.428 106.29 98.0771
99.3641 102.357 97.562
99.005 105.559 98.1276
110.328 110.133 112.427
111 109.417 110.954
110.198 108.032 111.793
111.361 108.857 109.503
111.434 110.52 109.959
110.169 112.002 112.973
109.543 110.918 113.674
109.365 106.739 112.409
109.781 106.123 111.138
111.476 112.417 110.326
110.808 113.264 112.17
111.306 114.213 110.855
109.917 113.997 113.513
111.627 111.898 108.774
111.428 115.445 109.583
111.118 115.963 111.188
108.827 109.617 114.421
108.775 107.165 113.687
108.124 107.832 114.996
108.426 105.087 112.801
108.737 111.668 114.981
107.229 108.522 116.049
107.261 106.197 115.157
109.993 105.427 109.713
111.154 106.938 108.868
110.164 105.004 108.177
111.497 108.428 107.922
109.048 104.148 110.325
109.098 103.305 107.472
110.292 104.718 106.757
111.619 110.867 105.781
111.606 112.287 104.758
111.333 109.869 104.368
111.608 113.793 103.902
111.675 114.615 104.974
111.666 111.644 106.994
111.574 109.578 106.642
110.919 107.593 103.836
110.996 108.952 103.157
111.556 115.195 106.375
111.696 113.294 107.588
111.538 115.375 107.97
111.696 116.768 105.504
111.469 117.064 108.529
111.371 107.643 106.44
110.934 106.443 104.755
110.84 105.504 105.774
110.357 105.241 103.51
109.639 103.706 105.42
110.868 109.801 102.208
111.233 112.667 102.71
110.712 111.055 101.415
111.436 115.142 103.088
110.46 107.441 101.968
110.026 109.434 100.487
110.306 112.004 100.745
93.7269 103.132 109.188
93.9347 104.193 108.083
94.3205 105.12 109.792
94.1692 105.046 107.033
93.5877 103.457 106.455
93.1932 101.27 108.596
93.6027 102.046 110.047
94.6512 106.156 111.317
94.7903 107.047 110.417
93.1174 101.77 105.764
92.9395 100.519 106.866
92.9545 100.028 105.021
93.0898 99.4394 107.743
93.4015 102.693 104.646
92.9611 99.4737 103.141
92.8242 98.4293 104.077
94.0489 102.783 111.551
94.5682 105.305 112.329
94.6735 104.243 113.204
95.0176 107.391 112.887
93.6056 100.765 110.803
94.8765 103.081 113.796
95.4637 105.436 114.607
95.1618 108.048 109.487
94.9143 106.767 107.561
95.3677 108.786 108.196
94.5939 105.896 105.958
95.3128 109.139 111.004
95.801 110.616 108.645
95.7132 109.577 107.106
94.5112 104.885 102.958
94.7163 104.338 101.505
95.5242 106.267 102.475
95.2616 103.851 100.192
94.7626 102.347 100.697
93.8574 103.591 103.432
94.6275 105.512 104.356
96.4777 108.267 103.251
96.4871 107.552 102.105
94.2015 101.009 101.162
93.6304 101.916 102.987
93.4976 100.078 101.976
94.4283 100.328 99.7068
92.9978 98.6172 101.202
95.3054 107.034 105.211
96.3838 108.628 104.513
96.012 109.287 105.797
97.0693 110.381 104.092
96.4027 111.164 106.519
96.9894 107.146 101.094
96.1467 105.23 99.7776
97.351 106.712 99.7028
95.954 103.094 99.2712
97.6724 109.118 102.135
98.7477 107.893 100.175
97.7062 105.837 98.5964
107.192 122.502 111.097
106.213 123.103 110.265
107.728 123.121 109.367
105.019 123.194 109.379
104.438 122.712 111.288
106.515 121.497 112.877
108.046 121.321 112.03
109.212 122.83 108.628
108.183 123.771 107.316
103.619 122.044 113.145
104.949 121.155 114.012
103.183 120.911 114.795
106.068 120.094 114.494
102.501 122.154 112.148
101.469 120.275 115.004
103.077 119.333 115.833
109.421 120.538 111.575
110.228 121.503 109.769
110.759 119.581 110.614
110.297 122.063 107.96
108.672 119.896 112.922
110.84 117.903 111.353
111.249 118.869 109.361
107.018 123.991 105.948
105.183 123.312 107.397
105.535 123.52 105.312
103.65 122.824 108.745
108.566 123.942 105.262
105.755 123.217 103.767
103.888 122.352 105.511
100.559 120.665 110.317
99.2888 119.118 110.788
99.9479 119.377 109.362
98.0969 117.364 111.189
98.6157 118.451 112.204
101.268 121.616 111.337
102.028 121.935 109.557
100.481 119.228 107.949
99.3779 117.882 108.409
99.1747 119.229 113.366
100.81 121.079 112.879
100.213 119.858 114.456
98.0371 117.591 113.669
99.9884 118.566 115.626
102.479 122.05 107.906
101.625 120.261 107.14
102.798 121.378 106.203
101.052 118.907 106.296
103.424 120.819 104.633
98.3273 116.152 108.501
97.6436 115.901 110.075
97.2613 114.407 108.701
97.1318 115.561 111.509
98.9763 116.458 107.223
96.9446 113.221 107.483
96.4899 112.881 109.054
103.546 94.1417 102.491
105.016 95.1709 103.842
105.4 94.9576 102.342
106.018 96.1967 105.386
104.616 95.3941 105.316
101.565 93.7454 102.551
101.712 93.6854 101.18
105.334 95.2421 100.885
106.525 96.4836 102.353
103.378 95.0771 105.924
101.731 94.4286 104.183
101.9 94.9382 106.331
99.9543 93.6675 102.769
104.757 96.1044 107.167
102.15 95.8063 107.968
100.371 94.7581 106.289
102.452 93.9514 99.7443
104.315 94.9963 99.4832
102.826 94.7813 98.123
105.485 96.5642 99.9958
100.311 93.5924 99.865
101.282 94.7025 97.1952
103.306 96.3948 97.5368
107.366 98.0747 103.801
107.348 97.5832 105.316
107.751 99.7956 105.335
107.043 97.6683 106.74
107.15 98.5263 102.618
108.24 101.607 105.133
108.144 101.279 106.618
95.7319 93.6217 101.091
96.9161 93.2986 100.436
95.3776 93.7068 98.8286
98.1651 93.3823 99.6478
98.2481 93.4431 101.986
95.95 94.2155 103.21
94.7075 94.2473 101.768
94.0455 94.4234 97.5593
95.5444 94.2081 96.8485
99.0171 93.9817 103.664
97.3529 94.365 104.52
98.9573 94.5432 105.723
96.5735 94.915 105.607
99.3795 95.399 107.455
93.6735 94.8795 101.41
93.2231 94.9835 98.8951
92.9262 95.886 100.819
93.3354 95.7944 96.8698
94.3169 95.1075 103.528
93.0226 96.8413 102.912
92.6544 97.0343 100.351
97.4544 94.1034 97.099
99.2425 93.6852 98.704
99.5809 94.3481 97.1126
96.3272 95.163 95.7654
99.8197 95.5054 96.1716
106.692 115.399 116.569
107.557 117.172 115.483
107.984 115.356 115.758
108.178 118.73 114.29
106.89 118.763 115.154
105.278 115.239 116.928
105.772 113.583 117.201
108.284 113.549 115.64
108.972 115.052 114.741
105.527 118.533 115.695
104.639 116.581 116.68
103.795 118.103 116.326
106.298 112.029 117.109
107.802 111.86 116.147
106.879 110.053 116.662
109.721 115.899 113.697
109.356 118.144 113.492
110.363 116.962 112.441
110.363 121.355 104.369
110.333 120.071 102.679
110.933 119.229 103.667
110.034 118.244 101.343
109.286 120.49 101.859
109.824 123.118 104.821
110.429 121.894 106.302
111.464 118.474 104.744
111.314 117.082 102.989
108.102 121.225 102.057
108.839 123.339 103.551
106.508 122.557 102.702
111.053 120.514 107.111
111.531 118.681 106.148
111.39 118.752 107.93
110.977 115.317 101.818
110.141 115.977 100.781
110.228 113.545 100.515
105.905 100.172 111.255
107.147 101.324 110.865
106.522 99.3021 109.702
108.05 102.527 110.535
107.725 102.987 111.861
105.268 100.936 112.627
104.634 99.4334 111.572
105.832 97.5913 108.741
106.933 98.4998 108.293
107.338 103.683 113.031
105.873 102.5 113.455
106.707 104.381 114.418
103.98 98.1518 110.533
104.69 96.9645 108.803
103.175 96.7551 109.239
107.522 99.7823 107.969
108.196 102.223 109.267
108.179 101.72 107.806
108.415 103.204 101.576
107.062 102.154 100.719
107.187 100.856 101.228
105.755 101.28 99.8916
106.869 103.36 100.176
109.753 105.088 101.508
109.463 103.937 102.522
107.148 99.6131 101.895
106.368 98.5901 100.581
108.003 105.115 100.162
109.671 106.103 100.845
109.057 107.314 100.413
109.153 103.312 103.429
107.772 101.023 103.108
108.536 102.481 104.405
105.586 98.0183 99.3833
105.046 99.6997 99.0086
104.511 97.8643 97.9903
96.4185 112.586 115.29
95.8716 111.618 113.788
96.3682 113.682 113.956
95.5673 110.598 112.383
95.4846 109.725 113.579
96.8235 111.344 116.328
97.4554 113.336 116.384
97.0877 115.534 114.003
96.6781 114.539 112.686
95.5744 108.601 114.313
96.3853 109.424 115.989
95.8347 107.295 115.34
98.0727 115.114 116.378
97.7616 116.439 114.954
99.0601 117.004 116.09
96.3547 113.489 111.403
95.7586 111.195 111.194
96.052 112.024 109.893
99.1632 113.559 103.677
100.453 114.627 103.377
99.7674 115.428 104.533
101.755 115.601 103.021
101.111 113.739 102.393
98.5144 111.694 102.84
97.9771 112.372 103.936
99.2363 115.96 105.835
100.44 117.115 105.441
100.371 111.814 101.772
98.7885 110.587 102.001
99.5345 109.62 101.112
97.4191 112.397 104.91
98.2308 114.58 106.096
97.0478 112.825 106.239
101.529 118.112 104.944
102.367 117.175 103.547
102.9 119.116 104.142
94.6331 97.8634 109.358
95.749 97.6227 110.213
95.4146 96.7329 107.993
97.0036 97.5766 110.96
96.0682 98.4322 112.128
93.9339 99.0561 110.45
93.8101 98.2715 108.39
94.8263 95.8239 105.807
95.9823 95.6375 106.893
95.3615 99.5629 113.041
94.1318 100.174 111.996
94.9827 101.5 113.504
93.6551 97.9515 106.693
93.9443 96.3023 105.23
93.2469 97.3607 104.683
97.2607 95.7363 107.786
97.8894 96.8814 109.867
98.8239 96.0145 108.637
96.7199 99.2238 96.1914
95.3892 99.3999 97.1071
95.0433 98.2708 95.2268
94.7788 99.6133 98.2912
96.172 101.101 98.7032
98.1194 100.691 97.5065
98.0478 99.3351 95.9524
95.6956 96.5773 95.0712
93.7351 97.0331 95.766
96.8882 102.501 98.4009
98.0494 102.421 97.8645
97.8901 104.206 98.1065
98.733 98.4718 95.3057
97.5377 96.4027 95.2577
99.5974 96.8033 95.6279
93.1156 97.3264 97.5062
93.6458 99.0025 98.4637
92.8999 97.9277 99.5483
POLYGONS 1280  5120
3 164 162 163
3 163 44 164
3 162 43 163
3 164 42 162
3 166 165 163
3 163 43 166
3 165 44 163
3 166 14 165
3 168 167 162
3 162 42 168
3 167 43 162
3 168 13 167
3 170 169 164
3 164 44 170
3 169 42 164
3 170 12 169
3 173 171 172
3 172 46 173
3 171 43 172
3 173 45 171
3 167 174 172
3 172 43 167
3 174 46 172
3 167 13 174
3 175 166 171
3 171 45 175
3 166 43 171
3 175 14 166
3 177 176 173
3 173 46 177
3 176 45 173
3 177 4 176
3 180 178 179
3 179 48 180
3 178 42 179
3 180 47 178
3 169 181 179
3 179 42 169
3 181 48 179
3 169 12 181
3 182 168 178
3 178 47 182
3 168 42 178
3 182 13 168
3 184 183 180
3 180 48 184
3 183 47 180
3 184 8 183
3 187 185 186
3 186 50 187
3 185 44 186
3 187 49 185
3 165 188 186
3 186 44 165
3 188 50 186
3 165 14 188
3 189 170 185
3 185 49 189
3 170 44 185
3 189 12 170
3 191 190 187
3 187 50 191
3 190 49 187
3 191 7 190
3 194 192 193
3 193 53 194
3 192 52 193
3 194 51 192
3 196 195 193
3 193 52 196
3 195 53 193
3 196 16 195
3 198 197 192
3 192 51 198
3 197 52 192
3 198 14 197
3 200 199 194
3 194 53 200
3 199 51 194
3 200 15 199
3 203 201 202
3 202 45 203
3 201 52 202
3 203 54 201
3 197 175 202
3 202 52 197
3 175 45 202
3 197 14 175
3 204 196 201
3 201 54 204
3 196 52 201
3 204 16 196
3 176 205 203
3 203 45 176
3 205 54 203
3 176 4 205
3 208 206 207
3 207 55 208
3 206 51 207
3 208 50 206
3 199 209 207
3 207 51 199
3 209 55 207
3 199 15 209
3 188 198 206
3 206 50 188
3 198 51 206
3 188 14 198
3 210 191 208
3 208 55 210
3 191 50 208
3 210 7 191
3 213 211 212
3 212 57 213
3 211 53 212
3 213 56 211
3 195 214 212
3 212 53 195
3 214 57 212
3 195 16 214
3 215 200 211
3 211 56 215
3 200 53 211
3 215 15 200
3 217 216 213
3 213 57 217
3 216 56 213
3 217 9 216
3 220 218 219
3 219 60 220
3 218 59 219
3 220 58 218
3 222 221 219
3 219 59 222
3 221 60 219
3 222 19 221
3 224 223 218
3 218 58 224
3 223 59 218
3 224 18 223
3 226 225 220
3 220 60 226
3 225 58 220
3 226 17 225
3 229 227 228
3 228 62 229
3 227 59 228
3 229 61 227
3 223 230 228
3 228 59 223
3 230 62 228
3 223 18 230
3 231 222 227
3 227 61 231
3 222 59 227
3 231 19 222
3 233 232 229
3 229 62 233
3 232 61 229
3 233 5 232
3 236 234 235
3 235 64 236
3 234 58 235
3 236 63 234
3 225 237 235
3 235 58 225
3 237 64 235
3 225 17 237
3 238 224 234
3 234 63 238
3 224 58 234
3 238 18 224
3 240 239 236
3 236 64 240
3 239 63 236
3 240 6 239
3 243 241 242
3 242 66 243
3 241 60 242
3 243 65 241
3 221 244 242
3 242 60 221
3 244 66 242
3 221 19 244
3 245 226 241
3 241 65 245
3 226 60 241
3 245 17 226
3 247 246 243
3 243 66 247
3 246 65 243
3 247 11 246
3 250 248 249
3 249 69 250
3 248 68 249
3 250 67 248
3 252 251 249
3 249 68 252
3 251 69 249
3 252 18 251
3 254 253 248
3 248 67 254
3 253 68 248
3 254 21 253
3 256 255 250
3 250 69 256
3 255 67 250
3 256 20 255
3 259 257 258
3 258 70 259
3 257 68 258
3 259 62 257
3 253 260 258
3 258 68 253
3 260 70 258
3 253 21 260
3 230 252 257
3 257 62 230
3 252 68 257
3 230 18 252
3 261 233 259
3 259 70 261
3 233 62 259
3 261 5 233
3 264 262 263
3 263 72 264
3 262 67 263
3 264 71 262
3 255 265 263
3 263 67 255
3 265 72 263
3 255 20 265
3 266 254 262
3 262 71 266
3 254 67 262
3 266 21 254
3 268 267 264
3 264 72 268
3 267 71 264
3 268 10 267
3 271 269 270
3 270 63 271
3 269 69 270
3 271 73 269
3 251 238 270
3 270 69 251
3 238 63 270
3 251 18 238
3 272 256 269
3 269 73 272
3 256 69 269
3 272 20 256
3 239 273 271
3 271 63 239
3 273 73 271
3 239 6 273
3 276 274 275
3 275 76 276
3 274 75 275
3 276 74 274
3 278 277 275
3 275 75 278
3 277 76 275
3 278 24 277
3 280 279 274
3 274 74 280
3 279 75 274
3 280 23 279
3 282 281 276
3 276 76 282
3 281 74 276
3 282 22 281
3 285 283 284
3 284 78 285
3 283 75 284
3 285 77 283
3 279 286 284
3 284 75 279
3 286 78 284
3 279 23 286
3 287 278 283
3 283 77 287
3 278 75 283
3 287 24 278
3 289 288 285
3 285 78 289
3 288 77 285
3 289 0 288
3 292 290 291
3 291 80 292
3 290 74 291
3 292 79 290
3 281 293 291
3 291 74 281
3 293 80 291
3 281 22 293
3 294 280 290
3 290 79 294
3 280 74 290
3 294 23 280
3 296 295 292
3 292 80 296
3 295 79 292
3 296 4 295
3 299 297 298
3 298 82 299
3 297 76 298
3 299 81 297
3 277 300 298
3 298 76 277
3 300 82 298
3 277 24 300
3 301 282 297
3 297 81 301
3 282 76 297
3 301 22 282
3 303 302 299
3 299 82 303
3 302 81 299
3 303 3 302
3 306 304 305
3 305 85 306
3 304 84 305
3 306 83 304
3 308 307 305
3 305 84 308
3 307 85 305
3 308 26 307
3 310 309 304
3 304 83 310
3 309 84 304
3 310 24 309
3 312 311 306
3 306 85 312
3 311 83 306
3 312 25 311
3 315 313 314
3 314 77 315
3 313 84 314
3 315 86 313
3 309 287 314
3 314 84 309
3 287 77 314
3 309 24 287
3 316 308 313
3 313 86 316
3 308 84 313
3 316 26 308
3 288 317 315
3 315 77 288
3 317 86 315
3 288 0 317
3 320 318 319
3 319 87 320
3 318 83 319
3 320 82 318
3 311 321 319
3 319 83 311
3 321 87 319
3 311 25 321
3 300 310 318
3 318 82 300
3 310 83 318
3 300 24 310
3 322 303 320
3 320 87 322
3 303 82 320
3 322 3 303
3 325 323 324
3 324 89 325
3 323 85 324
3 325 88 323
3 307 326 324
3 324 85 307
3 326 89 324
3 307 26 326
3 327 312 323
3 323 88 327
3 312 85 323
3 327 25 312
3 329 328 325
3 325 89 329
3 328 88 325
3 329 5 328
3 332 330 331
3 331 92 332
3 330 91 331
3 332 90 330
3 334 333 331
3 331 91 334
3 333 92 331
3 334 29 333
3 336 335 330
3 330 90 336
3 335 91 330
3 336 28 335
3 338 337 332
3 332 92 338
3 337 90 332
3 338 27 337
3 341 339 340
3 340 94 341
3 339 91 340
3 341 93 339
3 335 342 340
3 340 91 335
3 342 94 340
3 335 28 342
3 343 334 339
3 339 93 343
3 334 91 339
3 343 29 334
3 345 344 341
3 341 94 345
3 344 93 341
3 345 2 344
3 348 346 347
3 347 96 348
3 346 90 347
3 348 95 346
3 337 349 347
3 347 90 337
3 349 96 347
3 337 27 349
3 350 336 346
3 346 95 350
3 336 90 346
3 350 28 336
3 352 351 348
3 348 96 352
3 351 95 348
3 352 7 351
3 355 353 354
3 354 98 355
3 353 92 354
3 355 97 353
3 333 356 354
3 354 92 333
3 356 98 354
3 333 29 356
3 357 338 353
3 353 97 357
3 338 92 353
3 357 27 338
3 359 358 355
3 355 98 359
3 358 97 355
3 359 1 358
3 362 360 361
3 361 101 362
3 360 100 361
3 362 99 360
3 364 363 361
3 361 100 364
3 363 101 361
3 364 31 363
3 366 365 360
3 360 99 366
3 365 100 360
3 366 29 365
3 368 367 362
3 362 101 368
3 367 99 362
3 368 30 367
3 371 369 370
3 370 93 371
3 369 100 370
3 371 102 369
3 365 343 370
3 370 100 365
3 343 93 370
3 365 29 343
3 372 364 369
3 369 102 372
3 364 100 369
3 372 31 364
3 344 373 371
3 371 93 344
3 373 102 371
3 344 2 373
3 376 374 375
3 375 103 376
3 374 99 375
3 376 98 374
3 367 377 375
3 375 99 367
3 377 103 375
3 367 30 377
3 356 366 374
3 374 98 356
3 366 99 374
3 356 29 366
3 378 359 376
3 376 103 378
3 359 98 376
3 378 1 359
3 381 379 380
3 380 105 381
3 379 101 380
3 381 104 379
3 363 382 380
3 380 101 363
3 382 105 380
3 363 31 382
3 383 368 379
3 379 104 383
3 368 101 379
3 383 30 368
3 385 384 381
3 381 105 385
3 384 104 381
3 385 6 384
3 388 386 387
3 387 108 388
3 386 107 387
3 388 106 386
3 390 389 387
3 387 107 390
3 389 108 387
3 390 34 389
3 392 391 386
3 386 106 392
3 391 107 386
3 392 33 391
3 394 393 388
3 388 108 394
3 393 106 388
3 394 32 393
3 397 395 396
3 396 110 397
3 395 107 396
3 397 109 395
3 391 398 396
3 396 107 391
3 398 110 396
3 391 33 398
3 399 390 395
3 395 109 399
3 390 107 395
3 399 34 390
3 401 400 397
3 397 110 401
3 400 109 397
3 401 8 400
3 404 402 403
3 403 112 404
3 402 106 403
3 404 111 402
3 393 405 403
3 403 106 393
3 405 112 403
3 393 32 405
3 406 392 402
3 402 111 406
3 392 106 402
3 406 33 392
3 408 407 404
3 404 112 408
3 407 111 404
3 408 0 407
3 411 409 410
3 410 114 411
3 409 108 410
3 411 113 409
3 389 412 410
3 410 108 389
3 412 114 410
3 389 34 412
3 413 394 409
3 409 113 413
3 394 108 409
3 413 32 394
3 415 414 411
3 411 114 415
3 414 113 411
3 415 11 414
3 418 416 417
3 417 117 418
3 416 116 417
3 418 115 416
3 420 419 417
3 417 116 420
3 419 117 417
3 420 36 419
3 422 421 416
3 416 115 422
3 421 116 416
3 422 34 421
3 424 423 418
3 418 117 424
3 423 115 418
3 424 35 423
3 427 425 426
3 426 109 427
3 425 116 426
3 427 118 425
3 421 399 426
3 426 116 421
3 399 109 426
3 421 34 399
3 428 420 425
3 425 118 428
3 420 116 425
3 428 36 420
3 400 429 427
3 427 109 400
3 429 118 427
3 400 8 429
3 432 430 431
3 431 119 432
3 430 115 431
3 432 114 430
3 423 433 431
3 431 115 423
3 433 119 431
3 423 35 433
3 412 422 430
3 430 114 412
3 422 115 430
3 412 34 422
3 434 415 432
3 432 119 434
3 415 114 432
3 434 11 415
3 437 435 436
3 436 121 437
3 435 117 436
3 437 120 435
3 419 438 436
3 436 117 419
3 438 121 436
3 419 36 438
3 439 424 435
3 435 120 439
3 424 117 435
3 439 35 424
3 441 440 437
3 437 121 441
3 440 120 437
3 441 1 440
3 444 442 443
3 443 124 444
3 442 123 443
3 444 122 442
3 446 445 443
3 443 123 446
3 445 124 443
3 446 39 445
3 448 447 442
3 442 122 448
3 447 123 442
3 448 38 447
3 450 449 444
3 444 124 450
3 449 122 444
3 450 37 449
3 453 451 452
3 452 126 453
3 451 123 452
3 453 125 451
3 447 454 452
3 452 123 447
3 454 126 452
3 447 38 454
3 455 446 451
3 451 125 455
3 446 123 451
3 455 39 446
3 457 456 453
3 453 126 457
3 456 125 453
3 457 9 456
3 460 458 459
3 459 128 460
3 458 122 459
3 460 127 458
3 449 461 459
3 459 122 449
3 461 128 459
3 449 37 461
3 462 448 458
3 458 127 462
3 448 122 458
3 462 38 448
3 464 463 460
3 460 128 464
3 463 127 460
3 464 10 463
3 467 465 466
3 466 130 467
3 465 124 466
3 467 129 465
3 445 468 466
3 466 124 445
3 468 130 466
3 445 39 468
3 469 450 465
3 465 129 469
3 450 124 465
3 469 37 450
3 471 470 467
3 467 130 471
3 470 129 467
3 471 3 470
3 474 472 473
3 473 133 474
3 472 132 473
3 474 131 472
3 476 475 473
3 473 132 476
3 475 133 473
3 476 38 475
3 478 477 472
3 472 131 478
3 477 132 472
3 478 41 477
3 480 479 474
3 474 133 480
3 479 131 474
3 480 40 479
3 483 481 482
3 482 134 483
3 481 132 482
3 483 126 481
3 477 484 482
3 482 132 477
3 484 134 482
3 477 41 484
3 454 476 481
3 481 126 454
3 476 132 481
3 454 38 476
3 485 457 483
3 483 134 485
3 457 126 483
3 485 9 457
3 488 486 487
3 487 136 488
3 486 131 487
3 488 135 486
3 479 489 487
3 487 131 479
3 489 136 487
3 479 40 489
3 490 478 486
3 486 135 490
3 478 131 486
3 490 41 478
3 492 491 488
3 488 136 492
3 491 135 488
3 492 2 491
3 495 493 494
3 494 127 495
3 493 133 494
3 495 137 493
3 475 462 494
3 494 133 475
3 462 127 494
3 475 38 462
3 496 480 493
3 493 137 496
3 480 133 493
3 496 40 480
3 463 497 495
3 495 127 463
3 497 137 495
3 463 10 497
3 500 498 499
3 499 140 500
3 498 139 499
3 500 138 498
3 502 501 499
3 499 139 502
3 501 140 499
3 502 33 501
3 504 503 498
3 498 138 504
3 503 139 498
3 504 13 503
3 506 505 500
3 500 140 506
3 505 138 500
3 506 23 505
3 509 507 508
3 508 47 509
3 507 139 508
3 509 110 507
3 503 182 508
3 508 139 503
3 182 47 508
3 503 13 182
3 398 502 507
3 507 110 398
3 502 139 507
3 398 33 502
3 183 401 509
3 509 47 183
3 401 110 509
3 183 8 401
3 512 510 511
3 511 79 512
3 510 138 511
3 512 46 510
3 505 294 511
3 511 138 505
3 294 79 511
3 505 23 294
3 174 504 510
3 510 46 174
3 504 138 510
3 174 13 504
3 295 177 512
3 512 79 295
3 177 46 512
3 295 4 177
3 515 513 514
3 514 111 515
3 513 140 514
3 515 78 513
3 501 406 514
3 514 140 501
3 406 111 514
3 501 33 406
3 286 506 513
3 513 78 286
3 506 140 513
3 286 23 506
3 407 289 515
3 515 111 407
3 289 78 515
3 407 0 289
3 518 516 517
3 517 143 518
3 516 142 517
3 518 141 516
3 520 519 517
3 517 142 520
3 519 143 517
3 520 19 519
3 522 521 516
3 516 141 522
3 521 142 516
3 522 32 521
3 524 523 518
3 518 143 524
3 523 141 518
3 524 26 523
3 527 525 526
3 526 113 527
3 525 142 526
3 527 66 525
3 521 413 526
3 526 142 521
3 413 113 526
3 521 32 413
3 244 520 525
3 525 66 244
3 520 142 525
3 244 19 520
3 414 247 527
3 527 113 414
3 247 66 527
3 414 11 247
3 530 528 529
3 529 86 530
3 528 141 529
3 530 112 528
3 523 316 529
3 529 141 523
3 316 86 529
3 523 26 316
3 405 522 528
3 528 112 405
3 522 141 528
3 405 32 522
3 317 408 530
3 530 86 317
3 408 112 530
3 317 0 408
3 533 531 532
3 532 61 533
3 531 143 532
3 533 89 531
3 519 231 532
3 532 143 519
3 231 61 532
3 519 19 231
3 326 524 531
3 531 89 326
3 524 143 531
3 326 26 524
3 232 329 533
3 533 61 232
3 329 89 533
3 232 5 329
3 536 534 535
3 535 146 536
3 534 145 535
3 536 144 534
3 538 537 535
3 535 145 538
3 537 146 535
3 538 22 537
3 540 539 534
3 534 144 540
3 539 145 534
3 540 16 539
3 542 541 536
3 536 146 542
3 541 144 536
3 542 39 541
3 545 543 544
3 544 54 545
3 543 145 544
3 545 80 543
3 539 204 544
3 544 145 539
3 204 54 544
3 539 16 204
3 293 538 543
3 543 80 293
3 538 145 543
3 293 22 538
3 205 296 545
3 545 54 205
3 296 80 545
3 205 4 296
3 548 546 547
3 547 125 548
3 546 144 547
3 548 57 546
3 541 455 547
3 547 144 541
3 455 125 547
3 541 39 455
3 214 540 546
3 546 57 214
3 540 144 546
3 214 16 540
3 456 217 548
3 548 125 456
3 217 57 548
3 456 9 217
3 551 549 550
3 550 81 551
3 549 146 550
3 551 130 549
3 537 301 550
3 550 146 537
3 301 81 550
3 537 22 301
3 468 542 549
3 549 130 468
3 542 146 549
3 468 39 542
3 302 471 551
3 551 81 302
3 471 130 551
3 302 3 471
3 554 552 553
3 553 149 554
3 552 148 553
3 554 147 552
3 556 555 553
3 553 148 556
3 555 149 553
3 556 21 555
3 558 557 552
3 552 147 558
3 557 148 552
3 558 25 557
3 560 559 554
3 554 149 560
3 559 147 554
3 560 37 559
3 563 561 562
3 562 88 563
3 561 148 562
3 563 70 561
3 557 327 562
3 562 148 557
3 327 88 562
3 557 25 327
3 260 556 561
3 561 70 260
3 556 148 561
3 260 21 556
3 328 261 563
3 563 88 328
3 261 70 563
3 328 5 261
3 566 564 565
3 565 129 566
3 564 147 565
3 566 87 564
3 559 469 565
3 565 147 559
3 469 129 565
3 559 37 469
3 321 558 564
3 564 87 321
3 558 147 564
3 321 25 558
3 470 322 566
3 566 129 470
3 322 87 566
3 470 3 322
3 569 567 568
3 568 71 569
3 567 149 568
3 569 128 567
3 555 266 568
3 568 149 555
3 266 71 568
3 555 21 266
3 461 560 567
3 567 128 461
3 560 149 567
3 461 37 560
3 267 464 569
3 569 71 267
3 464 128 569
3 267 10 464
3 572 570 571
3 571 152 572
3 570 151 571
3 572 150 570
3 574 573 571
3 571 151 574
3 573 152 571
3 574 27 573
3 576 575 570
3 570 150 576
3 575 151 570
3 576 12 575
3 578 577 572
3 572 152 578
3 577 150 572
3 578 36 577
3 581 579 580
3 580 49 581
3 579 151 580
3 581 96 579
3 575 189 580
3 580 151 575
3 189 49 580
3 575 12 189
3 349 574 579
3 579 96 349
3 574 151 579
3 349 27 574
3 190 352 581
3 581 49 190
3 352 96 581
3 190 7 352
3 584 582 583
3 583 118 584
3 582 150 583
3 584 48 582
3 577 428 583
3 583 150 577
3 428 118 583
3 577 36 428
3 181 576 582
3 582 48 181
3 576 150 582
3 181 12 576
3 429 184 584
3 584 118 429
3 184 48 584
3 429 8 184
3 587 585 586
3 586 97 587
3 585 152 586
3 587 121 585
3 573 357 586
3 586 152 573
3 357 97 586
3 573 27 357
3 438 578 585
3 585 121 438
3 578 152 585
3 438 36 578
3 358 441 587
3 587 97 358
3 441 121 587
3 358 1 441
3 590 588 589
3 589 155 590
3 588 154 589
3 590 153 588
3 592 591 589
3 589 154 592
3 591 155 589
3 592 17 591
3 594 593 588
3 588 153 594
3 593 154 588
3 594 30 593
3 596 595 590
3 590 155 596
3 595 153 590
3 596 35 595
3 599 597 598
3 598 104 599
3 597 154 598
3 599 64 597
3 593 383 598
3 598 154 593
3 383 104 598
3 593 30 383
3 237 592 597
3 597 64 237
3 592 154 597
3 237 17 592
3 384 240 599
3 599 104 384
3 240 64 599
3 384 6 240
3 602 600 601
3 601 120 602
3 600 153 601
3 602 103 600
3 595 439 601
3 601 153 595
3 439 120 601
3 595 35 439
3 377 594 600
3 600 103 377
3 594 153 600
3 377 30 594
3 440 378 602
3 602 120 440
3 378 103 602
3 440 1 378
3 605 603 604
3 604 65 605
3 603 155 604
3 605 119 603
3 591 245 604
3 604 155 591
3 245 65 604
3 591 17 245
3 433 596 603
3 603 119 433
3 596 155 603
3 433 35 596
3 246 434 605
3 605 65 246
3 434 119 605
3 246 11 434
3 608 606 607
3 607 158 608
3 606 157 607
3 608 156 606
3 610 609 607
3 607 157 610
3 609 158 607
3 610 15 609
3 612 611 606
3 606 156 612
3 611 157 606
3 612 28 611
3 614 613 608
3 608 158 614
3 613 156 608
3 614 41 613
3 617 615 616
3 616 95 617
3 615 157 616
3 617 55 615
3 611 350 616
3 616 157 611
3 350 95 616
3 611 28 350
3 209 610 615
3 615 55 209
3 610 157 615
3 209 15 610
3 351 210 617
3 617 95 351
3 210 55 617
3 351 7 210
3 620 618 619
3 619 135 620
3 618 156 619
3 620 94 618
3 613 490 619
3 619 156 613
3 490 135 619
3 613 41 490
3 342 612 618
3 618 94 342
3 612 156 618
3 342 28 612
3 491 345 620
3 620 135 491
3 345 94 620
3 491 2 345
3 623 621 622
3 622 56 623
3 621 158 622
3 623 134 621
3 609 215 622
3 622 158 609
3 215 56 622
3 609 15 215
3 484 614 621
3 621 134 484
3 614 158 621
3 484 41 614
3 216 485 623
3 623 56 216
3 485 134 623
3 216 9 485
3 626 624 625
3 625 161 626
3 624 160 625
3 626 159 624
3 628 627 625
3 625 160 628
3 627 161 625
3 628 31 627
3 630 629 624
3 624 159 630
3 629 160 624
3 630 20 629
3 632 631 626
3 626 161 632
3 631 159 626
3 632 40 631
3 635 633 634
3 634 73 635
3 633 160 634
3 635 105 633
3 629 272 634
3 634 160 629
3 272 73 634
3 629 20 272
3 382 628 633
3 633 105 382
3 628 160 633
3 382 31 628
3 273 385 635
3 635 73 273
3 385 105 635
3 273 6 385
3 638 636 637
3 637 137 638
3 636 159 637
3 638 72 636
3 631 496 637
3 637 159 631
3 496 137 637
3 631 40 496
3 265 630 636
3 636 72 265
3 630 159 636
3 265 20 630
3 497 268 638
3 638 137 497
3 268 72 638
3 497 10 268
3 641 639 640
3 640 102 641
3 639 161 640
3 641 136 639
3 627 372 640
3 640 161 627
3 372 102 640
3 627 31 372
3 489 632 639
3 639 136 489
3 632 161 639
3 489 40 632
3 373 492 641
3 641 102 373
3 492 136 641
3 373 2 492
