# vtk DataFile Version 3.0
this file was written using fslvtkio
ASCII
DATASET POLYDATA
POINTS 642 float
137.95 137.865 107.873
126.4 136.122 108.702
134.01 124.602 108.843
141.575 120.321 105.847
139.13 126.539 115.332
136.179 131.957 101.724
128.504 132.688 101.534
132.193 126.244 117.394
132.274 141.878 115.263
137.703 111.474 112.235
138.113 116.593 100.604
128.019 144.794 101.287
132.171 134.16 118.107
136.356 135.143 116.434
136.395 125.603 119.648
134.791 118.388 116.837
139.162 117.657 114.89
124.978 137.919 98.1905
131.913 132.86 100.55
131.866 139.697 99.772
136.082 124.709 102.656
139.38 121.509 99.6696
140.856 122.198 110.939
138.806 132.901 112.068
140.126 129.119 107.014
140.694 124.613 102.503
136.921 136.668 103.683
128.982 132.277 114.181
131.95 123.343 113.165
130.075 131.156 108.881
124.67 135.277 103.036
132.182 128.731 105.139
133.379 143.894 105
135.254 141.984 111.342
129.215 146.104 108.265
125.218 141.216 104.426
128.76 139.664 112.059
142.232 115.168 100.607
138.768 111.998 105.432
141.179 113.227 108.534
136.852 120.04 105.617
135.292 117.043 110.393
134.516 135.178 118.349
136.599 130.513 118.263
134.363 130.063 119.14
137.96 126.104 117.541
137.884 130.995 116.095
134.524 138.895 116.294
132.055 138.395 117.072
131.905 130.136 118.13
133.905 125.406 119.475
135.315 121.632 119.248
137.763 121.731 117.708
137.424 117.307 116.979
139.067 122.001 115.234
133.071 122.227 117.535
136.51 114.973 114.377
139.073 113.483 114.149
127.904 135.605 98.0438
131.184 136.114 99.1957
128.557 139.148 98.246
133.755 136.114 100.691
134.379 132.188 100.745
130.011 133.051 100.882
125.303 134.509 98.7851
126.417 141.355 99.5531
130.102 142.543 100.089
137.696 122.655 100.828
136.011 127.51 101.186
133.933 128.688 101.546
137.733 126.914 101.367
138.675 118.611 98.4558
136.967 119.972 100.993
132.15 129.492 102.365
140.154 127.386 111.717
139.652 130.568 109.668
140.882 125.778 109.169
139.053 133.669 107.613
138.556 135.522 110.137
138.982 129.978 113.766
140.026 124.244 113.288
141.514 121.309 108.513
141.163 124.907 106.432
140.453 127.481 104.666
138.821 132.7 105.484
138.709 130.952 103.699
137.528 137.599 105.608
141.332 122.307 103.909
138.726 128.509 102.246
136.592 134.509 102.453
130.039 127.739 113.883
130.889 127.028 111.301
129.219 130.855 111.595
131.994 128.122 108.926
132.874 123.961 110.837
131.699 124.658 115.496
130.413 129.566 116.041
127.997 134.397 111.552
128.013 133.648 108.755
127.901 133.755 105.965
130.78 130.644 106.616
128.284 132.951 104.094
133.485 126.897 106.974
125.301 135.851 105.783
125.812 133.769 101.776
130.49 130.927 103.495
134.342 143.731 108.23
132.376 145.274 110.27
131.257 146.52 106.319
130.719 144.132 112.108
133.938 142.377 113.52
136.93 140.118 109.613
136.076 141.225 106.499
130.988 145.14 102.742
128.103 146.317 104.598
126.938 144.257 106.27
128.726 143.236 110.053
126.673 141.297 108.121
130.342 140.87 113.831
125.939 143.25 102.542
125.211 138.825 106.798
127.194 138.133 110.299
140.934 111.896 101.871
140.635 109.671 106.922
141.939 113.953 104.79
139.776 111.268 110.976
137.853 111.098 108.908
138.875 114.579 102.584
140.556 115.902 98.4967
141.741 117.664 103.621
141.718 117.078 107.246
136.16 118.131 107.689
136.972 114.002 107.936
137.871 115.708 105.312
136.532 114.364 111.369
134.525 120.585 109.554
135.285 122.488 107.214
137.417 118.404 103.16
137.693 134.424 114.326
136.035 139.051 114.042
137.283 137.751 111.955
135.451 140.702 103.982
132.908 142.203 102.036
134.502 138.388 101.746
140.368 115.076 111.819
140.259 119.638 112.927
141.16 117.678 109.946
141.358 119.155 101.351
139.982 122.83 101.001
141.751 118.102 98.0197
130.141 137.348 115.629
130.168 133.361 116.423
128.503 136.225 113.368
124.3 138.066 103.789
123.297 135.471 100.006
124.493 139.606 100.869
133.414 120.296 111.831
133.033 120.555 115.055
134.846 117.515 113.574
136.596 122.295 103.728
133.766 127.207 103.863
135.133 124.684 105.533
135.61 132.866 118.433
135.547 130.46 119.052
134.485 132.74 119.015
135.413 127.999 119.685
136.448 128.226 119.074
136.427 132.862 117.491
135.607 134.931 117.59
133.407 134.498 118.491
133.336 132.205 118.862
137.308 128.294 118.048
137.289 130.85 117.285
137.919 128.613 116.909
137.031 133.045 116.4
137.195 125.977 118.649
138.598 126.49 116.475
138.489 128.751 115.818
134.716 137.02 117.491
133.261 136.785 118.052
133.38 138.742 117.202
132.106 136.359 117.606
135.52 136.997 116.426
133.554 140.625 116.14
132.127 140.284 116.376
133.101 129.998 118.899
134.217 127.734 119.424
133.078 127.901 118.806
135.112 125.577 119.955
132.153 132.025 118.263
132.125 128.086 117.872
132.971 125.829 118.513
136.742 121.496 118.783
137.544 119.523 117.62
136.312 119.36 118.391
138.371 117.639 116.194
138.374 119.735 116.466
137.107 123.665 118.799
135.873 123.515 119.671
134.903 119.802 118.285
135.992 117.745 117.245
138.582 121.834 116.539
137.921 123.966 117.743
138.647 124.245 116.524
139.128 119.775 115.223
139.147 124.264 115.298
134.474 123.521 119.56
134.109 121.751 118.495
133.19 123.767 118.739
134.005 120.348 117.331
132.492 124.22 117.641
136.887 115.896 115.956
138.217 115.557 115.575
137.647 113.782 114.872
139.083 115.733 114.587
135.782 116.802 115.604
137.225 113.097 113.4
138.433 111.917 113.692
129.684 135.709 98.5144
129.92 137.544 98.477
128.172 137.229 97.8593
130.211 139.3 98.8557
131.372 137.92 99.1945
131.196 134.43 99.5673
129.745 134.336 99.1662
126.344 136.746 97.7575
126.848 138.452 97.9143
132.485 136.256 99.828
132.565 134.356 99.9595
133.856 134.286 100.457
133.11 132.52 100.537
132.758 138.039 100.102
134.944 134.059 101.196
135.387 131.995 101.227
128.439 134.242 99.1423
126.404 135.191 98.1751
127.383 134.152 99.4702
124.654 136.159 98.1556
130.745 133.159 100.666
129.235 132.95 101.142
127.079 133.832 100.31
127.523 140.252 98.5975
129.412 140.836 98.9115
128.23 142.001 99.4504
130.918 141.074 99.7571
125.943 139.629 98.6382
127.246 143.111 100.228
129.028 143.683 100.429
137.048 125.143 101.396
134.857 128.332 101.34
136.1 125.84 101.822
132.745 130.959 100.87
133.896 130.493 100.915
137.788 124.472 100.932
138.427 122.031 99.9533
136.85 123.654 101.732
135.277 126.371 102.234
134.794 130.24 100.976
136.837 127.285 101.316
135.981 129.781 101.307
138.466 124.192 100.925
136.82 129.68 101.483
138.223 120.505 99.4113
137.575 121.197 100.72
137.586 119.05 99.6021
136.888 122.224 101.847
139.318 120.072 98.4532
138.263 117.307 99.3148
137.261 118.087 100.711
133.225 128.875 101.941
131.868 130.999 101.047
131.113 131.08 101.476
134.053 127.273 102.638
130.347 131.355 102.039
139.927 129.041 110.697
140.418 128.248 109.431
140.522 126.576 110.43
140.601 127.587 108.175
139.998 129.673 108.428
139.303 131.379 110.973
139.531 129.97 111.833
140.583 124.929 111.351
140.973 124.191 110.193
139.429 132.074 108.654
139.126 132.871 110.018
139.008 134.333 108.999
138.78 134.134 111.107
139.47 131.266 107.436
138.563 135.72 107.804
138.357 136.628 109.006
139.666 128.706 112.778
140.133 125.781 112.491
139.769 127.211 113.706
140.501 123.217 112.079
138.905 131.37 112.844
139.11 128.364 114.635
139.48 125.456 114.284
141.401 123.582 108.996
140.937 125.391 107.847
141.599 123.304 107.603
140.598 127.009 106.869
141.259 121.734 109.784
141.537 121.158 107.138
141.533 122.802 106.181
139.755 130.092 105.179
138.658 131.949 104.593
139.831 129.218 104.058
137.76 133.743 103.832
138.118 134.696 104.549
139.472 130.786 106.209
140.301 128.467 105.859
140.495 126.586 103.57
139.741 127.952 103.216
138.252 135.298 105.494
138.903 133.048 106.484
138.469 135.556 106.613
137.235 137.075 104.632
137.816 137.66 106.744
140.819 126.318 105.525
141.046 125.101 104.141
141.485 123.94 105.069
141.107 123.613 103.204
141.372 121.388 104.939
138.771 129.769 102.925
137.643 132.779 103.158
137.6 131.474 102.613
136.884 135.589 103.01
139.794 126.532 102.39
137.442 130.24 102.055
136.337 133.057 102.141
130.233 127.275 112.458
130.1 129.077 111.475
129.527 129.244 112.734
129.771 130.694 110.287
130.491 129.069 110.266
131.271 125.36 112.38
130.946 125.853 113.464
129.403 129.91 113.967
128.938 131.156 112.929
131.425 127.52 110.065
131.854 125.447 111.174
132.456 126.048 109.998
132.243 123.585 112.038
130.939 129.483 109.007
133.009 126.587 108.886
133.438 124.549 109.761
130.973 126.203 114.691
130.044 128.563 115.009
130.959 127.175 115.871
129.589 130.852 115.115
131.826 124.105 114.227
131.817 125.375 116.528
131.243 127.938 116.874
128.543 132.549 111.705
128.898 132.319 110.254
127.995 133.746 110.285
129.161 132.537 108.858
128.479 133.207 112.927
127.316 135.316 110.046
127.056 134.809 108.71
129.707 132.558 106.458
130.071 131.999 105.33
128.184 133.504 104.929
130.265 131.302 104.659
131.14 130.114 105.611
130.408 131.05 107.707
129.176 132.659 107.433
126.424 134.558 104.552
126.326 134.093 103.543
131.991 128.893 106.621
131.476 129.547 107.816
132.651 127.8 107.784
132.738 127.871 105.987
133.993 125.865 108.025
128.033 133.669 107.362
126.632 134.84 105.739
126.865 134.83 107.23
124.962 135.579 104.369
125.91 135.967 107.239
127.032 133.435 103.015
129.329 132.072 103.725
128.143 132.751 102.622
131.161 129.756 104.328
124.837 134.493 102.137
127.152 133.332 101.488
129.62 131.936 102.566
133.217 144.679 109.055
131.872 146.064 108.306
132.78 145.242 107.434
130.31 146.941 107.422
130.856 146.182 109.332
133.935 143.949 110.756
134.713 143.196 109.827
133.745 144.147 106.619
132.28 145.282 105.752
131.457 145.055 111.275
133.31 144.066 111.98
132.481 143.855 113.174
134.514 142.54 112.229
130.003 145.354 110.15
131.433 143.042 113.664
133.196 142.327 114.597
135.531 142.056 108.949
135.201 142.674 107.329
136.534 140.923 108.095
134.8 142.878 105.914
136.058 141.296 110.368
137.503 138.98 108.759
137.158 139.684 107.189
131.137 146.04 104.474
129.818 146.985 105.398
129.504 146.333 103.395
128.664 146.613 106.494
132.128 144.645 103.992
129.505 145.189 101.74
127.795 145.726 102.734
127.765 143.962 108.247
127.849 142.214 109.006
126.635 142.878 107.381
127.791 140.836 109.977
128.611 141.482 110.799
128.958 144.725 109.135
127.979 145.31 107.232
125.996 142.858 105.526
125.826 141.576 106.397
129.489 142.116 111.714
129.801 143.843 110.9
130.495 142.532 112.792
129.477 140.465 112.729
131.191 141.377 114.785
127.367 145.496 105.448
126.292 143.945 104.444
126.748 145.043 103.443
125.505 142.298 103.567
126.699 144.15 101.674
125.991 140.151 107.291
127.089 139.775 109.183
126.289 138.575 108.496
127.963 139.212 110.956
125.194 140.16 105.586
125.769 137.477 107.813
126.715 137.068 109.516
141.279 110.556 104.236
141.586 111.877 105.502
142.004 112.617 103.274
141.544 113.331 106.72
141.09 111.27 107.597
139.54 110.173 105.627
139.788 111.521 103.677
142.215 113.226 100.901
142.087 114.529 102.593
140.295 110.127 109.005
138.757 109.367 107.676
138.548 109.73 110.032
138.41 111.005 107.051
140.599 112.151 109.716
138.843 110.495 111.903
137.619 111.218 110.745
139.697 113.064 102.056
140.731 113.502 100.174
139.795 114.75 100.499
141.767 114.774 99.0991
139.02 113.107 103.902
138.536 115.747 101.632
139.205 116.051 99.3613
141.625 115.688 104.298
141.837 115.281 106.239
141.906 117.503 105.557
141.53 114.988 107.829
141.871 116.25 102.376
141.715 119.057 104.702
141.985 118.84 106.692
136.72 116.019 107.75
137.448 114.581 106.546
137.065 116.766 106.483
138.351 113.739 105.331
137.821 112.578 106.743
136.294 115.695 109.033
135.766 117.33 108.858
136.665 118.865 106.628
137.311 117.839 105.497
137.526 112.514 108.35
136.535 114.282 109.596
137.077 112.694 110.127
135.957 115.734 110.747
137.107 113.017 111.864
135.273 119.209 108.666
135.835 120.188 107.512
135.009 121.386 108.383
136.169 121.126 106.562
134.677 118.599 109.899
134.382 122.636 109.242
134.769 123.629 108.138
137.755 117.073 104.268
138.397 114.906 104.053
138.093 116.351 102.925
137.255 119 104.478
137.537 117.559 101.914
136.837 136.682 114.252
136.719 138.373 113.06
137.474 135.988 113.116
136.399 139.96 111.731
135.685 140.602 112.731
136.202 137.044 115.235
137.045 134.943 115.386
138.204 133.914 113.061
138.08 135.423 112.119
135.035 140.831 113.761
135.427 138.881 115.259
134.307 140.709 115.031
137.814 132.851 115.304
138.381 132.359 113.971
138.368 130.53 114.858
137.947 136.549 111.078
137.157 139.067 110.848
137.728 137.812 109.89
134.177 141.506 103.069
133.939 140.387 101.665
135.208 139.522 102.782
133.335 139.268 100.672
132.542 140.972 100.828
133.198 143.18 103.512
134.401 142.29 104.554
136.264 138.753 103.63
135.684 137.572 102.764
131.639 142.392 100.857
131.998 143.7 102.455
130.601 143.919 101.27
135.737 141.286 105.229
136.624 139.271 104.661
136.904 139.557 105.925
135.589 136.267 102.129
134.167 137.184 101.127
135.422 135.117 101.422
140.371 117.339 112.459
140.733 118.684 111.447
140.731 116.297 110.803
141.168 119.859 110.565
140.619 120.832 111.863
139.72 118.532 113.843
139.852 116.33 113.383
140.858 114.04 110.222
141.259 115.413 109.255
140.179 121.842 113.02
139.648 120.673 114.121
139.658 123.045 114.223
139.576 114.411 113.119
140.293 113.135 111.495
139.565 112.251 112.757
141.488 117.246 108.592
141.559 119.569 109.343
141.796 119.277 107.913
140.65 120.953 101.053
140.77 119.92 99.5944
141.638 118.279 99.8017
140.574 119.935 98.6508
139.439 122.039 100.671
140.192 124.34 101.712
140.915 122.186 102.061
141.799 116.844 100.9
142.179 116.497 98.9895
138.979 124.719 101.251
139.371 125.918 101.767
138.165 127.765 101.62
141.104 121.233 102.74
141.622 118.481 102.419
141.383 120.125 103.811
141.441 116.866 97.2711
140.129 119.117 97.7958
139.142 117.203 98.3478
130.168 135.365 116.124
129.363 134.881 114.976
129.236 136.841 114.584
128.766 134.325 113.873
129.429 133.005 115.256
131.11 133.706 117.392
131.11 135.861 117.044
129.486 138.607 113.959
128.581 138.046 112.854
130.044 131.452 116.223
130.991 131.85 117.363
131.015 129.737 117.18
131.047 137.878 116.348
130.203 139.279 114.643
131.032 139.768 115.75
127.96 137.422 111.81
128.153 135.292 112.495
127.674 136.267 110.918
123.784 137.11 101.682
123.807 137.693 100.452
124.23 138.756 102.222
124.457 138.779 99.3385
123.802 136.745 98.9738
123.634 135.399 101.404
124.233 136.555 103.128
124.65 139.62 104.058
124.823 140.476 102.666
123.874 134.603 98.9921
124.329 134.244 100.763
125.751 133.828 100.376
124.244 136.697 104.866
124.664 138.487 105.333
125.031 137.094 106.519
125.311 141.408 101.866
125.173 140.446 99.9516
125.963 142.512 100.886
133.163 120.241 113.434
133.908 119.018 114.384
134.016 118.809 112.727
134.784 117.848 115.258
133.868 119.519 116.015
132.452 121.788 114.019
132.648 121.682 112.575
134.305 118.709 111.257
134.882 117.358 111.904
132.958 121.262 116.295
132.368 122.675 115.14
132.31 123.316 116.471
133 122.107 111.338
133.908 120.374 110.57
133.762 122.52 110.243
135.729 116.155 112.294
135.639 116.388 114.046
136.549 114.732 112.878
135.324 124.719 103.901
134.467 125.886 104.657
135.803 123.406 104.773
133.757 126.921 105.319
132.771 128.071 104.396
134.794 126.096 103.301
136.194 123.511 103.045
136.803 121.029 104.581
136.143 122.246 105.629
131.818 128.91 103.565
132.872 128.119 103.007
131.157 130.163 102.846
136.801 121.594 102.514
137.086 120.305 103.426
137.091 119.452 102.09
135.5 123.561 106.41
134.259 125.957 106.164
134.823 124.934 107.243
POLYGONS 1280  5120
3 164 162 163
3 163 44 164
3 162 43 163
3 164 42 162
3 166 165 163
3 163 43 166
3 165 44 163
3 166 14 165
3 168 167 162
3 162 42 168
3 167 43 162
3 168 13 167
3 170 169 164
3 164 44 170
3 169 42 164
3 170 12 169
3 173 171 172
3 172 46 173
3 171 43 172
3 173 45 171
3 167 174 172
3 172 43 167
3 174 46 172
3 167 13 174
3 175 166 171
3 171 45 175
3 166 43 171
3 175 14 166
3 177 176 173
3 173 46 177
3 176 45 173
3 177 4 176
3 180 178 179
3 179 48 180
3 178 42 179
3 180 47 178
3 169 181 179
3 179 42 169
3 181 48 179
3 169 12 181
3 182 168 178
3 178 47 182
3 168 42 178
3 182 13 168
3 184 183 180
3 180 48 184
3 183 47 180
3 184 8 183
3 187 185 186
3 186 50 187
3 185 44 186
3 187 49 185
3 165 188 186
3 186 44 165
3 188 50 186
3 165 14 188
3 189 170 185
3 185 49 189
3 170 44 185
3 189 12 170
3 191 190 187
3 187 50 191
3 190 49 187
3 191 7 190
3 194 192 193
3 193 53 194
3 192 52 193
3 194 51 192
3 196 195 193
3 193 52 196
3 195 53 193
3 196 16 195
3 198 197 192
3 192 51 198
3 197 52 192
3 198 14 197
3 200 199 194
3 194 53 200
3 199 51 194
3 200 15 199
3 203 201 202
3 202 45 203
3 201 52 202
3 203 54 201
3 197 175 202
3 202 52 197
3 175 45 202
3 197 14 175
3 204 196 201
3 201 54 204
3 196 52 201
3 204 16 196
3 176 205 203
3 203 45 176
3 205 54 203
3 176 4 205
3 208 206 207
3 207 55 208
3 206 51 207
3 208 50 206
3 199 209 207
3 207 51 199
3 209 55 207
3 199 15 209
3 188 198 206
3 206 50 188
3 198 51 206
3 188 14 198
3 210 191 208
3 208 55 210
3 191 50 208
3 210 7 191
3 213 211 212
3 212 57 213
3 211 53 212
3 213 56 211
3 195 214 212
3 212 53 195
3 214 57 212
3 195 16 214
3 215 200 211
3 211 56 215
3 200 53 211
3 215 15 200
3 217 216 213
3 213 57 217
3 216 56 213
3 217 9 216
3 220 218 219
3 219 60 220
3 218 59 219
3 220 58 218
3 222 221 219
3 219 59 222
3 221 60 219
3 222 19 221
3 224 223 218
3 218 58 224
3 223 59 218
3 224 18 223
3 226 225 220
3 220 60 226
3 225 58 220
3 226 17 225
3 229 227 228
3 228 62 229
3 227 59 228
3 229 61 227
3 223 230 228
3 228 59 223
3 230 62 228
3 223 18 230
3 231 222 227
3 227 61 231
3 222 59 227
3 231 19 222
3 233 232 229
3 229 62 233
3 232 61 229
3 233 5 232
3 236 234 235
3 235 64 236
3 234 58 235
3 236 63 234
3 225 237 235
3 235 58 225
3 237 64 235
3 225 17 237
3 238 224 234
3 234 63 238
3 224 58 234
3 238 18 224
3 240 239 236
3 236 64 240
3 239 63 236
3 240 6 239
3 243 241 242
3 242 66 243
3 241 60 242
3 243 65 241
3 221 244 242
3 242 60 221
3 244 66 242
3 221 19 244
3 245 226 241
3 241 65 245
3 226 60 241
3 245 17 226
3 247 246 243
3 243 66 247
3 246 65 243
3 247 11 246
3 250 248 249
3 249 69 250
3 248 68 249
3 250 67 248
3 252 251 249
3 249 68 252
3 251 69 249
3 252 18 251
3 254 253 248
3 248 67 254
3 253 68 248
3 254 21 253
3 256 255 250
3 250 69 256
3 255 67 250
3 256 20 255
3 259 257 258
3 258 70 259
3 257 68 258
3 259 62 257
3 253 260 258
3 258 68 253
3 260 70 258
3 253 21 260
3 230 252 257
3 257 62 230
3 252 68 257
3 230 18 252
3 261 233 259
3 259 70 261
3 233 62 259
3 261 5 233
3 264 262 263
3 263 72 264
3 262 67 263
3 264 71 262
3 255 265 263
3 263 67 255
3 265 72 263
3 255 20 265
3 266 254 262
3 262 71 266
3 254 67 262
3 266 21 254
3 268 267 264
3 264 72 268
3 267 71 264
3 268 10 267
3 271 269 270
3 270 63 271
3 269 69 270
3 271 73 269
3 251 238 270
3 270 69 251
3 238 63 270
3 251 18 238
3 272 256 269
3 269 73 272
3 256 69 269
3 272 20 256
3 239 273 271
3 271 63 239
3 273 73 271
3 239 6 273
3 276 274 275
3 275 76 276
3 274 75 275
3 276 74 274
3 278 277 275
3 275 75 278
3 277 76 275
3 278 24 277
3 280 279 274
3 274 74 280
3 279 75 274
3 280 23 279
3 282 281 276
3 276 76 282
3 281 74 276
3 282 22 281
3 285 283 284
3 284 78 285
3 283 75 284
3 285 77 283
3 279 286 284
3 284 75 279
3 286 78 284
3 279 23 286
3 287 278 283
3 283 77 287
3 278 75 283
3 287 24 278
3 289 288 285
3 285 78 289
3 288 77 285
3 289 0 288
3 292 290 291
3 291 80 292
3 290 74 291
3 292 79 290
3 281 293 291
3 291 74 281
3 293 80 291
3 281 22 293
3 294 280 290
3 290 79 294
3 280 74 290
3 294 23 280
3 296 295 292
3 292 80 296
3 295 79 292
3 296 4 295
3 299 297 298
3 298 82 299
3 297 76 298
3 299 81 297
3 277 300 298
3 298 76 277
3 300 82 298
3 277 24 300
3 301 282 297
3 297 81 301
3 282 76 297
3 301 22 282
3 303 302 299
3 299 82 303
3 302 81 299
3 303 3 302
3 306 304 305
3 305 85 306
3 304 84 305
3 306 83 304
3 308 307 305
3 305 84 308
3 307 85 305
3 308 26 307
3 310 309 304
3 304 83 310
3 309 84 304
3 310 24 309
3 312 311 306
3 306 85 312
3 311 83 306
3 312 25 311
3 315 313 314
3 314 77 315
3 313 84 314
3 315 86 313
3 309 287 314
3 314 84 309
3 287 77 314
3 309 24 287
3 316 308 313
3 313 86 316
3 308 84 313
3 316 26 308
3 288 317 315
3 315 77 288
3 317 86 315
3 288 0 317
3 320 318 319
3 319 87 320
3 318 83 319
3 320 82 318
3 311 321 319
3 319 83 311
3 321 87 319
3 311 25 321
3 300 310 318
3 318 82 300
3 310 83 318
3 300 24 310
3 322 303 320
3 320 87 322
3 303 82 320
3 322 3 303
3 325 323 324
3 324 89 325
3 323 85 324
3 325 88 323
3 307 326 324
3 324 85 307
3 326 89 324
3 307 26 326
3 327 312 323
3 323 88 327
3 312 85 323
3 327 25 312
3 329 328 325
3 325 89 329
3 328 88 325
3 329 5 328
3 332 330 331
3 331 92 332
3 330 91 331
3 332 90 330
3 334 333 331
3 331 91 334
3 333 92 331
3 334 29 333
3 336 335 330
3 330 90 336
3 335 91 330
3 336 28 335
3 338 337 332
3 332 92 338
3 337 90 332
3 338 27 337
3 341 339 340
3 340 94 341
3 339 91 340
3 341 93 339
3 335 342 340
3 340 91 335
3 342 94 340
3 335 28 342
3 343 334 339
3 339 93 343
3 334 91 339
3 343 29 334
3 345 344 341
3 341 94 345
3 344 93 341
3 345 2 344
3 348 346 347
3 347 96 348
3 346 90 347
3 348 95 346
3 337 349 347
3 347 90 337
3 349 96 347
3 337 27 349
3 350 336 346
3 346 95 350
3 336 90 346
3 350 28 336
3 352 351 348
3 348 96 352
3 351 95 348
3 352 7 351
3 355 353 354
3 354 98 355
3 353 92 354
3 355 97 353
3 333 356 354
3 354 92 333
3 356 98 354
3 333 29 356
3 357 338 353
3 353 97 357
3 338 92 353
3 357 27 338
3 359 358 355
3 355 98 359
3 358 97 355
3 359 1 358
3 362 360 361
3 361 101 362
3 360 100 361
3 362 99 360
3 364 363 361
3 361 100 364
3 363 101 361
3 364 31 363
3 366 365 360
3 360 99 366
3 365 100 360
3 366 29 365
3 368 367 362
3 362 101 368
3 367 99 362
3 368 30 367
3 371 369 370
3 370 93 371
3 369 100 370
3 371 102 369
3 365 343 370
3 370 100 365
3 343 93 370
3 365 29 343
3 372 364 369
3 369 102 372
3 364 100 369
3 372 31 364
3 344 373 371
3 371 93 344
3 373 102 371
3 344 2 373
3 376 374 375
3 375 103 376
3 374 99 375
3 376 98 374
3 367 377 375
3 375 99 367
3 377 103 375
3 367 30 377
3 356 366 374
3 374 98 356
3 366 99 374
3 356 29 366
3 378 359 376
3 376 103 378
3 359 98 376
3 378 1 359
3 381 379 380
3 380 105 381
3 379 101 380
3 381 104 379
3 363 382 380
3 380 101 363
3 382 105 380
3 363 31 382
3 383 368 379
3 379 104 383
3 368 101 379
3 383 30 368
3 385 384 381
3 381 105 385
3 384 104 381
3 385 6 384
3 388 386 387
3 387 108 388
3 386 107 387
3 388 106 386
3 390 389 387
3 387 107 390
3 389 108 387
3 390 34 389
3 392 391 386
3 386 106 392
3 391 107 386
3 392 33 391
3 394 393 388
3 388 108 394
3 393 106 388
3 394 32 393
3 397 395 396
3 396 110 397
3 395 107 396
3 397 109 395
3 391 398 396
3 396 107 391
3 398 110 396
3 391 33 398
3 399 390 395
3 395 109 399
3 390 107 395
3 399 34 390
3 401 400 397
3 397 110 401
3 400 109 397
3 401 8 400
3 404 402 403
3 403 112 404
3 402 106 403
3 404 111 402
3 393 405 403
3 403 106 393
3 405 112 403
3 393 32 405
3 406 392 402
3 402 111 406
3 392 106 402
3 406 33 392
3 408 407 404
3 404 112 408
3 407 111 404
3 408 0 407
3 411 409 410
3 410 114 411
3 409 108 410
3 411 113 409
3 389 412 410
3 410 108 389
3 412 114 410
3 389 34 412
3 413 394 409
3 409 113 413
3 394 108 409
3 413 32 394
3 415 414 411
3 411 114 415
3 414 113 411
3 415 11 414
3 418 416 417
3 417 117 418
3 416 116 417
3 418 115 416
3 420 419 417
3 417 116 420
3 419 117 417
3 420 36 419
3 422 421 416
3 416 115 422
3 421 116 416
3 422 34 421
3 424 423 418
3 418 117 424
3 423 115 418
3 424 35 423
3 427 425 426
3 426 109 427
3 425 116 426
3 427 118 425
3 421 399 426
3 426 116 421
3 399 109 426
3 421 34 399
3 428 420 425
3 425 118 428
3 420 116 425
3 428 36 420
3 400 429 427
3 427 109 400
3 429 118 427
3 400 8 429
3 432 430 431
3 431 119 432
3 430 115 431
3 432 114 430
3 423 433 431
3 431 115 423
3 433 119 431
3 423 35 433
3 412 422 430
3 430 114 412
3 422 115 430
3 412 34 422
3 434 415 432
3 432 119 434
3 415 114 432
3 434 11 415
3 437 435 436
3 436 121 437
3 435 117 436
3 437 120 435
3 419 438 436
3 436 117 419
3 438 121 436
3 419 36 438
3 439 424 435
3 435 120 439
3 424 117 435
3 439 35 424
3 441 440 437
3 437 121 441
3 440 120 437
3 441 1 440
3 444 442 443
3 443 124 444
3 442 123 443
3 444 122 442
3 446 445 443
3 443 123 446
3 445 124 443
3 446 39 445
3 448 447 442
3 442 122 448
3 447 123 442
3 448 38 447
3 450 449 444
3 444 124 450
3 449 122 444
3 450 37 449
3 453 451 452
3 452 126 453
3 451 123 452
3 453 125 451
3 447 454 452
3 452 123 447
3 454 126 452
3 447 38 454
3 455 446 451
3 451 125 455
3 446 123 451
3 455 39 446
3 457 456 453
3 453 126 457
3 456 125 453
3 457 9 456
3 460 458 459
3 459 128 460
3 458 122 459
3 460 127 458
3 449 461 459
3 459 122 449
3 461 128 459
3 449 37 461
3 462 448 458
3 458 127 462
3 448 122 458
3 462 38 448
3 464 463 460
3 460 128 464
3 463 127 460
3 464 10 463
3 467 465 466
3 466 130 467
3 465 124 466
3 467 129 465
3 445 468 466
3 466 124 445
3 468 130 466
3 445 39 468
3 469 450 465
3 465 129 469
3 450 124 465
3 469 37 450
3 471 470 467
3 467 130 471
3 470 129 467
3 471 3 470
3 474 472 473
3 473 133 474
3 472 132 473
3 474 131 472
3 476 475 473
3 473 132 476
3 475 133 473
3 476 38 475
3 478 477 472
3 472 131 478
3 477 132 472
3 478 41 477
3 480 479 474
3 474 133 480
3 479 131 474
3 480 40 479
3 483 481 482
3 482 134 483
3 481 132 482
3 483 126 481
3 477 484 482
3 482 132 477
3 484 134 482
3 477 41 484
3 454 476 481
3 481 126 454
3 476 132 481
3 454 38 476
3 485 457 483
3 483 134 485
3 457 126 483
3 485 9 457
3 488 486 487
3 487 136 488
3 486 131 487
3 488 135 486
3 479 489 487
3 487 131 479
3 489 136 487
3 479 40 489
3 490 478 486
3 486 135 490
3 478 131 486
3 490 41 478
3 492 491 488
3 488 136 492
3 491 135 488
3 492 2 491
3 495 493 494
3 494 127 495
3 493 133 494
3 495 137 493
3 475 462 494
3 494 133 475
3 462 127 494
3 475 38 462
3 496 480 493
3 493 137 496
3 480 133 493
3 496 40 480
3 463 497 495
3 495 127 463
3 497 137 495
3 463 10 497
3 500 498 499
3 499 140 500
3 498 139 499
3 500 138 498
3 502 501 499
3 499 139 502
3 501 140 499
3 502 33 501
3 504 503 498
3 498 138 504
3 503 139 498
3 504 13 503
3 506 505 500
3 500 140 506
3 505 138 500
3 506 23 505
3 509 507 508
3 508 47 509
3 507 139 508
3 509 110 507
3 503 182 508
3 508 139 503
3 182 47 508
3 503 13 182
3 398 502 507
3 507 110 398
3 502 139 507
3 398 33 502
3 183 401 509
3 509 47 183
3 401 110 509
3 183 8 401
3 512 510 511
3 511 79 512
3 510 138 511
3 512 46 510
3 505 294 511
3 511 138 505
3 294 79 511
3 505 23 294
3 174 504 510
3 510 46 174
3 504 138 510
3 174 13 504
3 295 177 512
3 512 79 295
3 177 46 512
3 295 4 177
3 515 513 514
3 514 111 515
3 513 140 514
3 515 78 513
3 501 406 514
3 514 140 501
3 406 111 514
3 501 33 406
3 286 506 513
3 513 78 286
3 506 140 513
3 286 23 506
3 407 289 515
3 515 111 407
3 289 78 515
3 407 0 289
3 518 516 517
3 517 143 518
3 516 142 517
3 518 141 516
3 520 519 517
3 517 142 520
3 519 143 517
3 520 19 519
3 522 521 516
3 516 141 522
3 521 142 516
3 522 32 521
3 524 523 518
3 518 143 524
3 523 141 518
3 524 26 523
3 527 525 526
3 526 113 527
3 525 142 526
3 527 66 525
3 521 413 526
3 526 142 521
3 413 113 526
3 521 32 413
3 244 520 525
3 525 66 244
3 520 142 525
3 244 19 520
3 414 247 527
3 527 113 414
3 247 66 527
3 414 11 247
3 530 528 529
3 529 86 530
3 528 141 529
3 530 112 528
3 523 316 529
3 529 141 523
3 316 86 529
3 523 26 316
3 405 522 528
3 528 112 405
3 522 141 528
3 405 32 522
3 317 408 530
3 530 86 317
3 408 112 530
3 317 0 408
3 533 531 532
3 532 61 533
3 531 143 532
3 533 89 531
3 519 231 532
3 532 143 519
3 231 61 532
3 519 19 231
3 326 524 531
3 531 89 326
3 524 143 531
3 326 26 524
3 232 329 533
3 533 61 232
3 329 89 533
3 232 5 329
3 536 534 535
3 535 146 536
3 534 145 535
3 536 144 534
3 538 537 535
3 535 145 538
3 537 146 535
3 538 22 537
3 540 539 534
3 534 144 540
3 539 145 534
3 540 16 539
3 542 541 536
3 536 146 542
3 541 144 536
3 542 39 541
3 545 543 544
3 544 54 545
3 543 145 544
3 545 80 543
3 539 204 544
3 544 145 539
3 204 54 544
3 539 16 204
3 293 538 543
3 543 80 293
3 538 145 543
3 293 22 538
3 205 296 545
3 545 54 205
3 296 80 545
3 205 4 296
3 548 546 547
3 547 125 548
3 546 144 547
3 548 57 546
3 541 455 547
3 547 144 541
3 455 125 547
3 541 39 455
3 214 540 546
3 546 57 214
3 540 144 546
3 214 16 540
3 456 217 548
3 548 125 456
3 217 57 548
3 456 9 217
3 551 549 550
3 550 81 551
3 549 146 550
3 551 130 549
3 537 301 550
3 550 146 537
3 301 81 550
3 537 22 301
3 468 542 549
3 549 130 468
3 542 146 549
3 468 39 542
3 302 471 551
3 551 81 302
3 471 130 551
3 302 3 471
3 554 552 553
3 553 149 554
3 552 148 553
3 554 147 552
3 556 555 553
3 553 148 556
3 555 149 553
3 556 21 555
3 558 557 552
3 552 147 558
3 557 148 552
3 558 25 557
3 560 559 554
3 554 149 560
3 559 147 554
3 560 37 559
3 563 561 562
3 562 88 563
3 561 148 562
3 563 70 561
3 557 327 562
3 562 148 557
3 327 88 562
3 557 25 327
3 260 556 561
3 561 70 260
3 556 148 561
3 260 21 556
3 328 261 563
3 563 88 328
3 261 70 563
3 328 5 261
3 566 564 565
3 565 129 566
3 564 147 565
3 566 87 564
3 559 469 565
3 565 147 559
3 469 129 565
3 559 37 469
3 321 558 564
3 564 87 321
3 558 147 564
3 321 25 558
3 470 322 566
3 566 129 470
3 322 87 566
3 470 3 322
3 569 567 568
3 568 71 569
3 567 149 568
3 569 128 567
3 555 266 568
3 568 149 555
3 266 71 568
3 555 21 266
3 461 560 567
3 567 128 461
3 560 149 567
3 461 37 560
3 267 464 569
3 569 71 267
3 464 128 569
3 267 10 464
3 572 570 571
3 571 152 572
3 570 151 571
3 572 150 570
3 574 573 571
3 571 151 574
3 573 152 571
3 574 27 573
3 576 575 570
3 570 150 576
3 575 151 570
3 576 12 575
3 578 577 572
3 572 152 578
3 577 150 572
3 578 36 577
3 581 579 580
3 580 49 581
3 579 151 580
3 581 96 579
3 575 189 580
3 580 151 575
3 189 49 580
3 575 12 189
3 349 574 579
3 579 96 349
3 574 151 579
3 349 27 574
3 190 352 581
3 581 49 190
3 352 96 581
3 190 7 352
3 584 582 583
3 583 118 584
3 582 150 583
3 584 48 582
3 577 428 583
3 583 150 577
3 428 118 583
3 577 36 428
3 181 576 582
3 582 48 181
3 576 150 582
3 181 12 576
3 429 184 584
3 584 118 429
3 184 48 584
3 429 8 184
3 587 585 586
3 586 97 587
3 585 152 586
3 587 121 585
3 573 357 586
3 586 152 573
3 357 97 586
3 573 27 357
3 438 578 585
3 585 121 438
3 578 152 585
3 438 36 578
3 358 441 587
3 587 97 358
3 441 121 587
3 358 1 441
3 590 588 589
3 589 155 590
3 588 154 589
3 590 153 588
3 592 591 589
3 589 154 592
3 591 155 589
3 592 17 591
3 594 593 588
3 588 153 594
3 593 154 588
3 594 30 593
3 596 595 590
3 590 155 596
3 595 153 590
3 596 35 595
3 599 597 598
3 598 104 599
3 597 154 598
3 599 64 597
3 593 383 598
3 598 154 593
3 383 104 598
3 593 30 383
3 237 592 597
3 597 64 237
3 592 154 597
3 237 17 592
3 384 240 599
3 599 104 384
3 240 64 599
3 384 6 240
3 602 600 601
3 601 120 602
3 600 153 601
3 602 103 600
3 595 439 601
3 601 153 595
3 439 120 601
3 595 35 439
3 377 594 600
3 600 103 377
3 594 153 600
3 377 30 594
3 440 378 602
3 602 120 440
3 378 103 602
3 440 1 378
3 605 603 604
3 604 65 605
3 603 155 604
3 605 119 603
3 591 245 604
3 604 155 591
3 245 65 604
3 591 17 245
3 433 596 603
3 603 119 433
3 596 155 603
3 433 35 596
3 246 434 605
3 605 65 246
3 434 119 605
3 246 11 434
3 608 606 607
3 607 158 608
3 606 157 607
3 608 156 606
3 610 609 607
3 607 157 610
3 609 158 607
3 610 15 609
3 612 611 606
3 606 156 612
3 611 157 606
3 612 28 611
3 614 613 608
3 608 158 614
3 613 156 608
3 614 41 613
3 617 615 616
3 616 95 617
3 615 157 616
3 617 55 615
3 611 350 616
3 616 157 611
3 350 95 616
3 611 28 350
3 209 610 615
3 615 55 209
3 610 157 615
3 209 15 610
3 351 210 617
3 617 95 351
3 210 55 617
3 351 7 210
3 620 618 619
3 619 135 620
3 618 156 619
3 620 94 618
3 613 490 619
3 619 156 613
3 490 135 619
3 613 41 490
3 342 612 618
3 618 94 342
3 612 156 618
3 342 28 612
3 491 345 620
3 620 135 491
3 345 94 620
3 491 2 345
3 623 621 622
3 622 56 623
3 621 158 622
3 623 134 621
3 609 215 622
3 622 158 609
3 215 56 622
3 609 15 215
3 484 614 621
3 621 134 484
3 614 158 621
3 484 41 614
3 216 485 623
3 623 56 216
3 485 134 623
3 216 9 485
3 626 624 625
3 625 161 626
3 624 160 625
3 626 159 624
3 628 627 625
3 625 160 628
3 627 161 625
3 628 31 627
3 630 629 624
3 624 159 630
3 629 160 624
3 630 20 629
3 632 631 626
3 626 161 632
3 631 159 626
3 632 40 631
3 635 633 634
3 634 73 635
3 633 160 634
3 635 105 633
3 629 272 634
3 634 160 629
3 272 73 634
3 629 20 272
3 382 628 633
3 633 105 382
3 628 160 633
3 382 31 628
3 273 385 635
3 635 73 273
3 385 105 635
3 273 6 385
3 638 636 637
3 637 137 638
3 636 159 637
3 638 72 636
3 631 496 637
3 637 159 631
3 496 137 637
3 631 40 496
3 265 630 636
3 636 72 265
3 630 159 636
3 265 20 630
3 497 268 638
3 638 137 497
3 268 72 638
3 497 10 268
3 641 639 640
3 640 102 641
3 639 161 640
3 641 136 639
3 627 372 640
3 640 161 627
3 372 102 640
3 627 31 372
3 489 632 639
3 639 136 489
3 632 161 639
3 489 40 632
3 373 492 641
3 641 102 373
3 492 136 641
3 373 2 492
