# vtk DataFile Version 3.0
this file was written using fslvtkio
ASCII
DATASET POLYDATA
POINTS 1068 float
96.1323 142.994 103.202
95.2067 142.735 104.481
95.7287 141.823 103.835
96.6371 141.599 103.024
97.3517 143.145 102.588
97.8024 141.807 102.659
98.6739 143.196 102.479
99.1391 141.954 102.841
99.839 143.124 102.788
100.371 142.16 103.329
95.768 143.994 104.201
94.7499 143.45 105.468
96.8691 144.476 103.286
98.2078 144.626 102.846
99.6853 144.482 102.902
100.827 143.732 103.361
95.3258 144.725 105.177
94.4985 144.509 106.323
96.3876 145.428 104.347
97.7067 145.85 103.849
99.1282 145.768 103.656
100.456 145.108 103.917
95.7085 145.778 105.599
97.0903 146.49 104.974
98.6226 146.759 104.846
99.8112 146.302 104.743
100.546 137.391 102.04
99.5919 136.471 102.705
100.482 135.84 102.152
101.582 136.238 102.023
101.771 137.538 102.562
102.612 136.755 102.688
99.2307 137.905 102.4
98.2658 138.286 103.265
98.6719 137.069 103.563
100.327 138.789 102.584
101.344 138.662 103.092
102.561 138.098 103.428
98.4052 139.51 102.662
97.4348 139.078 103.707
99.5751 139.507 102.639
100.875 140.023 103.347
102.207 139.447 103.962
96.0694 140.654 103.944
95.097 141.339 104.82
95.6164 140.244 105.268
96.3995 139.585 104.568
97.174 140.28 103.228
98.4173 140.909 102.863
99.7453 140.832 103.175
100.917 141.365 103.929
101.857 140.609 104.323
94.4939 142.022 105.759
101.552 142.735 104.001
94.0676 142.872 106.659
101.581 144.308 104.291
93.7672 143.774 107.453
100.807 145.753 105.055
94.9231 145.776 106.748
94.1145 145.1 107.814
95.9775 146.706 106.307
97.3653 147.132 105.987
98.5965 147.212 106.138
99.7096 146.859 106.21
95.0455 146.514 107.68
96.3466 147.097 107.374
97.5675 147.256 107.118
103.98 132.609 102.273
102.615 132.111 102.656
103.501 131.238 103.41
104.698 131.191 103.028
105.224 132.83 103.107
105.707 131.656 103.402
106.042 132.857 103.82
106.288 131.816 104.398
102.552 133.493 101.907
101.063 133.897 102.519
101.681 132.932 103.187
103.689 134.327 102.364
104.763 134.345 102.976
105.786 134.236 103.799
106.29 133.206 104.765
101.417 134.761 102.012
100.105 135.039 102.925
102.723 135.272 102.329
104.036 135.804 103.15
105.226 135.714 103.93
106.199 134.987 104.796
99.3434 135.903 103.979
103.559 137.084 103.513
104.719 137.216 104.395
105.846 136.67 105.037
97.7442 137.71 104.524
98.5063 136.566 104.913
103.204 138.695 104.31
104.155 138.534 104.89
105.474 138.091 105.761
97.051 138.612 104.853
96.3629 139.006 105.877
97.0979 138.041 105.965
103.142 140.351 104.934
104.206 139.973 105.528
105.028 139.188 105.865
94.868 140.757 106.261
95.556 139.624 106.52
102.131 141.757 104.739
102.982 141.836 105.513
103.904 141.172 106.102
94.168 141.421 107.141
102.432 143.292 104.964
102.931 143.114 105.982
103.525 142.333 106.415
93.7506 142.277 108.029
101.857 144.864 105.422
102.536 144.356 106.225
93.557 143.976 108.606
100.899 146.086 106.219
101.613 145.392 106.601
93.8297 145.274 109.277
99.658 146.823 107.834
98.5789 147.17 107.31
100.679 146.299 107.411
94.5513 146.31 108.856
95.8182 146.994 108.826
97.1676 147.131 108.455
102.401 131.938 104.25
103.342 130.574 104.578
104.457 130.064 104.104
105.651 130.541 104.104
106.121 131.377 105.408
100.666 133.987 103.903
101.522 133.093 104.5
106.102 132.904 105.824
99.9417 134.87 104.423
106.352 134.355 105.838
106.452 135.726 105.864
106.297 134.931 107.081
99.2818 135.51 105.437
106.327 137.052 106.165
106.443 136.195 107.254
97.6975 137.05 105.901
98.3543 136.269 106.268
106.318 137.786 106.82
106.317 137.241 107.922
96.2262 138.437 107.139
96.9377 137.418 107.195
105.077 140.26 106.645
105.821 139.311 106.863
106.279 138.428 107.439
94.7131 140.068 107.58
95.4689 138.956 107.902
104.872 141.014 107.131
105.453 140.566 108.054
94.046 140.69 108.417
103.403 143.436 107.057
104.038 142.32 107.273
104.698 141.643 107.711
93.4246 142.5 109.118
102.643 144.469 107.368
103.387 143.62 108.289
93.2399 143.934 109.786
102.419 144.584 108.277
101.579 145.438 107.675
93.5521 144.986 110.49
98.4278 147.012 108.386
99.2986 146.617 108.817
100.409 146.056 108.824
94.2841 146.109 110.397
95.4215 146.689 110.119
96.7535 146.841 109.794
97.9949 146.764 109.404
102.753 131.239 105.243
103.124 130.266 105.833
104.14 129.572 105.412
105.516 129.964 105.459
105.533 131.515 106.769
100.872 133.685 105.47
101.686 132.697 105.673
102.233 131.717 106.153
105.769 132.77 107.047
106.105 133.793 106.739
105.851 133.892 107.92
99.9985 134.41 105.791
100.414 133.729 106.891
106.028 134.995 108.439
99.0511 135.319 106.802
106.103 136.063 108.863
97.5551 136.547 107.587
98.3225 135.977 107.175
106.029 137.047 109.344
96.2105 137.66 108.466
96.9099 137.017 108.165
105.901 139.382 108.197
105.994 138.187 109.001
94.6963 139.174 108.989
95.4485 138.325 108.862
105.528 140.009 108.963
105.498 139.244 109.609
93.8954 140.233 109.384
93.4115 140.413 110.566
94.0736 139.461 110.051
104.106 142.486 108.456
104.821 141.44 108.954
105.066 140.506 109.765
93.4607 141.482 109.674
93.0563 141.431 111.056
103.67 143.206 109.112
104.069 142.554 109.628
93.1294 142.751 110.443
92.8692 142.424 111.714
101.548 145.24 108.719
102.496 144.264 109.224
103.03 143.6 109.942
93.0982 143.953 111.192
92.9416 143.549 112.333
100.089 145.628 110.218
99.1003 146.257 109.757
101.102 145.181 109.619
93.6335 145.264 111.668
94.5196 146.034 111.847
95.4233 146.387 111.391
96.6343 146.529 111.005
97.8288 146.432 110.539
104.476 129.234 106.625
103.134 129.575 106.897
103.592 128.778 108.035
104.723 129.37 107.879
105.313 130.155 106.868
104.922 130.602 108.251
102.575 130.657 106.847
105.023 131.608 108.655
101.226 132.832 107.251
101.875 131.552 107.436
105.466 132.664 108.262
105.575 133.703 109.173
99.3039 134.455 107.532
99.8841 133.486 108.47
105.746 134.851 109.859
98.0696 135.745 108.091
97.887 135.427 109.242
98.6208 134.952 108.425
105.707 136.02 110.34
96.8417 136.603 109.164
96.2345 136.369 110.481
97.0797 135.702 110.19
105.671 137.351 110.48
95.6725 137.608 109.802
94.8239 137.637 111.048
95.4664 136.685 111.324
105.419 138.399 110.621
94.568 138.487 110.186
93.7121 139.234 111.195
93.9966 138.102 111.662
105.052 139.536 110.851
93.1052 140.053 111.903
104.441 140.559 111.065
104.279 141.544 110.219
92.7773 140.974 112.529
103.53 142.645 110.651
92.6946 142.04 113.081
102.5 143.45 111.113
101.915 144.326 110.215
92.8575 143.089 113.615
99.7862 145.221 111.321
98.8297 145.914 110.86
100.9 144.871 110.784
93.3433 144.536 112.869
94.1679 145.482 112.956
95.3681 146.019 112.736
96.4812 146.105 112.197
97.6762 145.979 111.735
102.63 129.474 108.179
101.741 130.15 109.267
102.393 128.826 109.235
103.574 128.354 109.133
104.481 129.476 109.167
104.448 130.398 110.052
102.057 130.539 108.102
101.306 131.652 108.65
104.637 131.397 110.516
100.654 132.654 108.818
105.164 132.52 109.802
105.273 133.567 110.591
98.84 134.327 109.107
98.1247 133.842 110.674
99.0323 133.402 110.041
99.8253 132.762 109.934
105.338 134.747 111.226
97.7472 134.741 110.336
96.6944 135.027 111.483
97.2312 134.014 111.828
105.281 136.121 111.585
95.9748 135.464 112.123
105.101 137.36 111.808
94.572 137.164 112.234
95.1491 136.039 112.628
104.824 138.531 111.965
93.3584 138.81 112.567
93.7184 137.656 112.997
104.476 139.594 112.014
92.884 139.553 113.337
103.884 140.643 112.148
103.735 141.638 111.367
92.611 140.53 113.947
102.969 142.474 111.814
92.6633 141.64 114.429
102.065 143.246 112.276
101.512 144.136 111.41
92.938 142.672 114.838
98.6876 145.48 111.695
99.4123 145.071 112.188
100.432 144.647 112.073
93.3641 144.032 114.082
94.0916 144.993 114.021
95.2279 145.474 113.894
96.3896 145.628 113.45
97.403 145.468 112.948
98.3024 145.257 112.524
102.852 127.719 109.858
101.714 128.722 110.285
102.202 127.206 110.584
103.536 126.897 110.934
104.008 128.077 110.02
103.894 127.967 111.291
104.153 129.125 110.416
103.998 129.106 111.669
101.142 130.365 110.201
104.193 130.117 111.918
100.693 131.488 110.023
104.419 131.138 112.23
100.312 132.163 110.092
99.6214 131.83 111.236
100.217 131.511 110.745
104.865 132.385 111.35
105.054 133.512 112.074
97.9429 132.853 111.766
99.004 132.53 111.095
105.019 134.804 112.51
96.167 133.961 113.047
96.8901 133.067 112.794
104.867 136.182 112.834
95.3193 134.738 113.33
104.584 137.472 113.058
94.2805 136.425 113.394
94.7949 135.54 113.364
104.196 138.704 113.185
92.9539 138.156 114.021
93.4868 137.064 114.024
103.973 139.83 112.888
92.6311 139.062 114.749
103.466 140.456 113.148
103.147 141.463 112.641
92.5376 140.196 115.326
102.474 142.26 112.991
92.7616 141.272 115.743
101.599 142.885 113.293
101.089 143.848 112.486
93.1628 142.312 115.903
100.178 144.074 113.215
99.3524 144.726 113.001
93.5228 143.588 115.158
94.2265 144.462 115.088
95.2537 144.97 114.935
96.316 145.086 114.563
97.3005 144.976 114.1
98.2994 144.926 113.52
102.635 126.047 111.192
101.433 127.123 111.357
101.889 125.353 112.033
103.124 125.419 112.228
103.652 126.438 112.103
103.46 126.161 113.41
101.063 128.6 111.226
103.667 127.654 112.561
103.778 128.778 113.261
100.625 129.731 111.396
99.8362 129.343 112.496
100.484 128.8 111.93
103.947 129.811 113.729
100.088 130.827 111.382
99.22 130.537 112.412
104.16 130.978 113.684
98.6824 131.739 112.207
97.9193 130.98 113.287
98.5918 130.707 112.859
104.656 132.278 112.776
104.673 133.55 113.446
97.408 132.152 112.956
95.9441 132.522 114.043
96.7804 131.478 113.973
104.619 134.946 113.73
95.0688 133.517 114.332
104.381 136.319 113.995
94.5498 135.012 114.084
93.7343 134.964 115.108
94.2048 134.077 114.877
103.985 137.526 114.238
93.7611 136.004 114.524
93.0292 136.964 115.113
93.1684 135.659 115.706
103.797 138.601 114.121
103.422 138.237 115.054
103.255 139.378 114.511
92.6105 137.831 115.631
103.641 139.609 113.718
102.916 140.497 114.005
92.4395 138.927 116.186
102.372 141.274 113.935
92.6367 140.044 116.698
101.803 142.027 114.052
93.1147 141.082 116.892
101.331 142.641 113.981
100.836 143.363 113.646
93.4421 142.227 116.6
93.6908 143.148 116.089
94.0805 142.915 116.995
100.077 143.651 113.942
99.2568 144.272 113.942
94.3693 143.907 116.031
95.3771 144.395 115.906
96.2604 144.603 115.496
97.2792 144.48 115.249
98.1905 144.428 114.479
100.99 126.388 112.257
100.284 126.292 113.161
100.824 125.235 113.006
101.864 124.349 112.828
103.146 124.752 113.229
103.152 125.486 114.806
100.442 127.812 112.361
99.7309 127.134 113.641
103.393 127.329 114.059
103.556 128.555 114.793
99.4736 128.436 113.445
98.4111 128.424 114.347
99.1659 127.697 114.049
103.72 129.839 115.33
98.6829 129.764 113.501
97.6024 129.425 114.542
104.011 131.149 114.719
104.313 132.24 113.832
104.158 132.537 114.811
97.2627 130.434 114.195
95.7981 131.154 115.004
96.5239 129.881 115.036
104.289 133.818 114.677
94.8723 132.149 115.321
104.21 135.173 114.859
94.3656 133.038 115.439
103.88 136.249 115.126
93.368 134.052 116.046
93.8524 133.399 115.791
103.489 137.148 115.557
92.6895 136.479 116.527
92.8365 134.923 116.664
102.911 138.204 115.977
102.78 139.426 115.199
92.4114 137.604 117.059
102.197 140.224 115.21
92.5522 138.81 117.601
101.696 141.11 115.168
93.0826 139.959 117.952
101.148 142.314 114.602
101.177 141.544 115.335
100.673 141.929 115.449
93.5835 140.906 117.812
93.6188 141.883 117.309
94.1004 141.811 117.931
100.263 143.068 114.564
99.9814 142.21 115.705
99.5135 142.888 115.349
94.7335 142.601 117.777
98.2841 143.795 115.289
98.1701 143.255 116.014
97.5128 143.673 115.985
99.2504 143.657 114.758
98.7604 143.009 115.805
94.8001 143.45 116.962
95.6028 143.793 116.722
96.5812 143.993 116.289
102.606 123.343 113.284
101.209 123.459 113.535
101.39 122.566 113.895
102.761 122.674 114.234
103.288 124.06 114.287
103.024 123.761 115.515
99.7086 125.287 114.19
100.393 124.242 113.693
102.817 125.29 116.162
98.963 126.86 114.476
98.3133 126.116 115.348
99.0573 125.641 114.813
103.166 126.988 115.357
103.351 128.415 116.166
97.7387 127.497 115.125
96.4385 127.795 116.033
97.1903 126.573 116.003
103.426 129.861 116.761
96.8693 128.649 115.289
95.5813 129.599 115.904
103.828 131.193 115.76
103.88 132.616 116.003
94.7983 130.695 116.12
103.859 133.942 115.75
94.034 131.444 116.459
93.3498 131.001 117.764
93.9951 130.405 117.255
103.682 134.93 116.072
93.6289 132.478 116.591
93.0011 132.134 117.806
103.39 135.893 116.422
92.9648 133.477 117.09
92.5325 135.06 117.645
92.618 133.338 117.977
102.997 136.972 116.538
92.4231 136.324 117.974
102.503 137.785 116.865
102.193 138.913 116.297
92.5339 137.507 118.434
101.65 139.768 116.427
92.9761 138.693 118.847
101.082 140.736 116.036
101.001 139.736 117.171
100.437 140.425 116.956
93.5246 139.75 118.919
98.7563 141.66 117.244
98.4754 140.743 118.463
98.0882 141.604 117.71
99.5487 141.201 117.032
99.0935 140.748 117.926
100.241 141.304 116.335
99.7593 140.289 117.715
94.036 140.643 118.677
94.6737 141.508 118.579
98.2002 142.628 116.666
97.5527 142.188 117.47
99.223 142.131 116.407
95.2523 142.145 118.232
95.5483 142.984 117.53
96.3647 143.186 117.138
96.0208 142.307 118.089
97.228 143.072 116.789
96.7837 142.338 117.791
100.125 121.454 115.022
99.1068 121.819 115.613
99.6104 120.234 115.849
100.991 120.321 115.375
101.24 121.719 114.53
102.214 121.002 115.219
102.779 122.128 115.005
102.78 122.101 116.069
99.9931 123.161 114.544
98.8771 123.071 115.602
102.614 123.589 116.769
99.0876 124.438 115.087
97.8155 124.423 116.167
97.9037 123.45 116.348
102.606 125.168 117.495
97.7913 125.416 115.921
96.3541 125.911 116.77
96.9799 124.772 116.628
103.021 126.815 116.678
103.139 128.284 117.53
95.6579 127.632 116.7
103.196 129.575 117.829
95.0256 128.62 116.901
93.8886 128.449 118.015
94.6649 127.505 117.564
103.471 131.157 116.814
103.138 130.814 118.08
94.488 129.583 117.102
93.3589 129.631 118.404
103.432 132.181 117.106
103.462 133.455 116.972
92.7118 130.691 119.016
103.177 134.5 117.312
92.6008 132.263 118.61
92.3717 133.696 118.76
92.3194 131.893 119.559
102.854 135.823 117.3
92.4039 134.966 118.957
102.584 136.781 117.283
102.384 136.055 117.996
102.075 137.356 117.742
92.5887 136.16 119.304
101.695 138.399 117.432
92.9725 137.329 119.661
101.323 139.008 117.466
93.4519 138.271 119.875
93.7227 139.298 119.589
94.3756 138.923 120.166
100.4 139.746 117.752
100.524 138.942 118.322
99.9539 139.38 118.524
100.96 138.701 118.071
94.017 139.962 119.314
94.6211 139.832 119.783
98.1723 139.941 119.339
97.7355 141.063 118.741
99.0759 139.804 118.822
95.5519 141.458 118.92
94.8833 140.716 119.342
96.4205 141.52 118.75
95.9788 140.753 119.56
97.1925 141.579 118.432
96.8876 140.814 119.394
97.3355 120.757 117.278
96.1727 120.471 118.123
96.911 119.428 117.774
98.1488 119.549 116.749
98.4153 120.922 116.392
99.6121 119.086 116.22
101.167 119.32 116.186
102.336 120.391 116.278
102.394 121.722 117.229
96.7643 122.066 117.465
95.7891 122.108 118.164
97.7756 122.303 116.677
102.261 123.225 117.912
96.5672 123.673 117.268
95.4234 123.469 118.122
102.262 124.476 118.625
95.6861 124.844 117.533
94.5357 125.615 118.309
94.8023 124.364 118.434
102.787 126.671 117.808
102.431 126.015 118.862
95.2504 126.458 117.467
93.904 126.989 118.578
102.784 127.636 118.522
102.787 129.057 118.737
93.0766 128.212 119.078
102.644 130.319 119.133
92.6473 129.412 119.739
103.089 132.22 118.041
102.548 131.703 119.077
92.3562 130.606 120.411
102.806 133.236 118.306
102.211 132.83 119.439
92.3182 133.504 119.809
92.3131 132.13 120.616
102.266 134.141 118.938
101.764 133.66 119.764
101.65 134.688 119.505
102.651 134.725 118.157
92.5763 134.68 120.235
101.894 135.775 118.742
101.194 135.45 119.685
92.8447 135.895 120.511
101.484 136.971 118.732
100.825 136.584 119.681
93.3648 136.686 120.722
100.753 137.733 118.973
100.489 137.181 119.707
100.042 137.598 119.735
101.344 138.162 118.192
93.7553 137.571 120.684
95.3927 139.178 120.435
94.5875 138.19 120.758
95.6844 138.436 121.031
99.9275 138.571 119.143
99.365 138.069 119.911
99.1116 138.923 119.493
95.5584 140.006 119.955
96.4256 139.042 120.646
96.5901 139.854 120.058
97.433 140.15 119.625
97.407 139.128 120.326
98.3049 139.066 119.903
98.7575 117.131 117.232
97.248 117.054 117.87
97.6104 116.089 117.772
99.1639 115.824 117.546
100.291 117.23 117.203
100.424 116.389 117.79
101.187 117.744 117.824
100.955 117.221 118.564
97.393 118.233 117.608
95.799 118.839 118.775
96.2267 117.619 118.682
98.749 118.37 116.774
100.115 118.209 116.66
101.452 118.635 117.247
101.382 118.783 118.612
95.1743 120.477 118.89
102.052 120.06 117.496
101.888 121.557 118.391
94.9307 122.309 118.893
101.863 123.019 119.086
94.6369 123.459 118.823
93.8895 124.394 119.351
94.0293 122.999 119.446
101.965 124.761 119.698
93.5683 125.752 119.403
102.018 126.278 120.102
93.0301 126.925 119.775
102.452 127.63 119.452
102.278 128.982 119.822
92.5334 128.019 120.445
102.114 130.277 120.068
92.4554 129.167 121.085
101.901 131.527 120.199
92.4842 130.307 121.666
101.737 132.588 120.157
92.608 133.304 121.081
92.6041 131.731 121.642
101.406 132.973 120.371
101.066 133.801 120.476
93.0704 134.597 121.353
93.1134 133.325 122.045
100.516 135.292 120.328
93.526 135.775 121.418
93.9426 134.755 122.151
100.163 136.557 120.278
99.906 135.372 120.845
99.5023 136.145 120.94
94.0297 136.712 121.3
94.4509 135.992 121.935
98.4929 137.29 121.021
98.1094 136.432 121.681
97.6356 137.236 121.462
99.3622 137.214 120.56
98.8647 136.201 121.357
94.7254 137.345 121.363
96.738 138.24 121.16
95.7209 137.639 121.506
97.7621 138.195 120.902
96.7602 137.268 121.657
98.6651 138.198 120.388
96.6198 103.411 117.046
95.5792 103.818 117.175
95.6309 102.218 116.799
96.6417 102.307 117.337
97.0831 103.422 117.936
96.653 102.789 118.418
96.5521 104.604 117.36
95.9966 105.286 117.594
97.2429 104.543 117.96
97.046 104.107 119.034
96.9439 105.833 117.85
97.3431 105.486 118.693
96.1028 115.263 119.054
94.7358 115.96 120.177
95.0719 114.73 120.005
96.7434 114.192 118.674
97.56 115.095 118.031
98.5865 113.95 118.266
99.4656 114.893 118.076
100.01 114.537 119.28
95.9697 116.409 119.047
94.903 117.454 119.788
100.551 115.862 118.676
100.804 117.508 119.485
94.7124 119.108 119.595
100.855 119.023 120.037
94.3566 120.386 119.682
93.6116 121.192 120.427
93.853 119.701 120.397
101.5 120.25 118.931
101.408 121.743 119.753
94.2332 121.691 119.59
93.405 122.979 120.255
101.535 123.294 120.152
93.0644 124.483 120.418
101.474 124.68 120.8
92.7282 125.707 120.74
101.145 125.621 121.433
92.4987 126.851 121.312
101.94 127.555 120.384
101.244 126.891 121.22
92.5807 128.034 122.061
101.659 128.616 120.832
100.967 128.355 121.618
92.8085 129.248 122.564
101.398 129.981 120.961
100.791 130.269 121.577
92.9449 130.734 122.736
101.262 131.811 120.835
100.548 131.445 121.535
93.295 132.178 122.668
100.586 132.872 121.206
99.9912 131.754 122.077
99.6905 132.655 122.097
93.9033 133.482 122.754
98.7225 134.091 122.283
98.0143 133.362 123.074
97.7153 134.228 122.714
99.6889 133.719 121.803
98.8204 132.839 122.738
100.226 134.364 121.049
94.7098 134.508 122.683
95.279 135.587 122.403
96.5085 135.551 122.501
95.7353 134.694 122.863
97.6222 135.117 122.333
96.7904 134.559 122.876
98.3128 135.384 121.8
99.2508 134.979 121.505
95.2327 136.678 121.909
96.1352 136.575 122.103
97.2889 136.274 122.052
94.1214 101.589 117.426
93.7315 102.591 118.039
93.3217 101.356 118.614
94.1792 100.462 118.097
95.1875 101.118 117.132
95.2587 100.769 118.557
94.6748 102.999 117.329
94.1805 103.894 118.274
96.1481 101.526 118.047
96.2725 102.494 119.226
95.1102 104.971 117.87
94.2703 105.184 118.78
96.5539 103.78 119.792
95.1562 106.631 118.444
94.2696 106.734 119.383
96.215 106.687 117.982
97.4348 106.858 118.517
97.2329 105.698 119.684
95.1893 108.121 118.948
94.1535 107.939 119.916
96.2776 108.233 118.373
97.422 108.205 118.341
97.8399 107.021 119.573
98.1558 108.195 119.164
98.0168 108.037 120.184
95.0322 109.287 119.458
93.8983 109.016 120.483
96.1986 109.727 118.649
97.5047 109.751 118.335
98.4106 109.533 119.01
98.3272 109.25 120.209
94.8164 110.288 119.861
95.866 110.991 119.062
94.7046 111.423 120.137
97.388 111.178 118.498
98.6814 110.97 119.094
98.5847 110.569 120.27
95.4146 112.351 119.571
94.2604 112.513 120.829
96.7634 112.283 118.717
98.7588 112.144 118.833
98.9365 111.927 120.612
94.4354 113.418 120.691
95.5705 113.589 119.53
93.9869 114.554 121.346
97.5648 113.092 118.536
99.249 112.87 120.53
99.4376 113.281 119.081
99.4389 113.897 120.718
93.7787 115.678 121.629
99.7627 115.097 120.798
94.016 117.031 121.064
93.5349 117.998 121.492
93.4361 116.639 122.527
100.438 116.093 120.014
100.335 117.427 120.766
94.0834 118.33 120.549
93.2996 119.677 121.327
100.173 118.492 121.43
93.0865 121.537 121.275
101.01 120.392 120.256
100.345 119.859 121.536
92.7789 123.06 121.345
100.938 121.407 120.918
101.029 122.839 121.115
92.5605 124.427 121.713
100.81 124.02 121.779
92.5434 125.634 122.266
100.536 125.072 122.205
100.104 123.942 122.574
99.7388 125.007 122.988
92.7269 126.886 122.868
100.359 126.25 122.351
99.4759 126.528 123.219
93.1182 128.178 123.553
100.322 127.519 122.332
99.3752 127.854 123.16
93.4106 129.584 123.662
99.6929 128.922 122.832
98.7507 128.536 123.626
98.6547 129.551 123.615
100.398 129.153 122.145
93.6878 131.095 123.567
99.2015 130.268 122.988
98.5063 130.682 123.469
99.9736 130.373 122.361
94.1137 132.281 123.312
99.3006 131.595 122.711
98.4822 131.795 123.293
94.6663 133.044 123.338
95.0868 133.816 123.124
96.2108 133.795 123.312
95.7777 133.015 123.672
97.1736 133.737 123.248
96.9126 132.817 123.669
97.7645 132.306 123.535
93.3884 102.905 119.067
93.2161 101.543 119.718
94.0024 100.495 119.401
94.866 100.928 120.07
93.4796 104.182 119.664
95.6463 101.608 119.545
95.7639 102.752 120.397
93.6546 105.463 119.865
96.5165 104.517 120.495
93.5685 106.51 120.621
96.774 105.863 120.926
93.4839 107.658 121.192
97.405 107.048 120.553
97.7054 108.549 121.112
93.4183 108.575 121.753
97.9843 109.922 121.496
94.0077 110.185 120.672
93.5306 109.685 121.713
98.171 111.242 121.735
93.8391 111.064 121.166
93.7013 112.107 121.806
98.1208 112.335 122.434
93.6953 113.382 122.309
93.7281 114.203 123.423
98.3346 113.399 122.492
98.791 114.547 122.333
93.6075 115.372 123.584
98.9202 115.472 122.432
93.265 118.191 122.472
93.5473 116.792 123.904
99.6609 116.333 121.468
99.4224 117.253 122.268
92.9869 119.97 122.321
99.4681 118.679 122.564
92.8618 121.596 122.394
99.4841 119.992 122.829
92.7669 123.002 122.623
100.437 121.515 121.859
99.7793 121.246 122.724
92.7891 124.297 123.053
100.169 122.674 122.313
99.4189 123.21 123.209
92.9488 125.507 123.715
98.9873 124.776 123.668
93.2483 126.687 124.043
98.6494 126.221 123.916
98.1772 125.113 124.369
97.7871 126.27 124.629
93.7515 127.694 124.476
94.2132 128.865 124.494
95.57 128.629 125.011
94.6928 127.645 125.025
96.829 128.159 125.05
95.8687 127.309 125.318
97.8185 127.451 124.569
96.9494 126.772 125.187
98.662 127.577 123.879
94.4353 130.244 124.159
95.4617 129.792 124.578
96.6576 129.382 124.726
97.7807 128.783 124.376
94.7026 131.503 123.957
95.5815 130.997 124.323
96.6258 130.548 124.434
97.6592 130.014 124.157
95.0175 132.389 123.669
95.8301 132.1 123.984
96.7697 131.707 124.094
97.6559 131.171 123.891
93.2911 102.72 120.321
93.7452 101.399 120.746
93.3749 103.813 120.981
93.82 102.699 121.446
94.8747 102.025 121.032
93.412 105.109 121.177
93.742 104.217 122.141
94.581 103.317 122.196
95.4669 103.299 121.455
96.1122 104.494 121.401
93.4092 106.426 121.975
96.42 106.057 121.936
93.5573 107.677 122.564
97.0651 107.419 121.633
97.2805 108.949 122.206
93.6265 108.857 122.996
97.4363 110.516 122.69
93.5508 109.929 123.05
97.3279 111.776 123.325
93.4739 110.829 122.278
93.5243 111.523 123.167
97.1172 113.07 123.987
93.6104 112.488 123.194
94.6612 114.268 125.119
94.0104 113.006 124.361
96.5924 114.127 124.803
95.5833 113.092 125.23
97.8194 114.268 123.53
94.2861 115.566 124.899
95.924 115.418 125.352
97.4973 115.172 124.143
93.2948 118.529 123.446
93.8198 117.719 124.61
94.6282 116.631 125.361
96.1923 116.664 125.473
96.8032 117.713 125.129
97.3426 116.378 124.56
98.4136 116.276 123.281
93.0824 120.152 123.474
97.7383 118.003 124.296
97.1495 119.062 125.141
98.511 117.594 123.433
93.0941 121.529 123.583
97.937 119.775 124.385
97.1454 120.492 125.243
98.6388 119.033 123.622
93.116 122.765 123.826
97.9747 121.373 124.5
97.0593 121.933 125.298
98.8166 120.71 123.648
93.2425 123.98 124.111
97.8524 122.798 124.58
96.7722 123.168 125.332
98.8738 122.162 123.681
93.6433 124.599 124.646
93.9447 125.634 124.903
95.3193 125.083 125.4
94.5253 124.311 125.217
96.6721 124.376 125.48
95.6655 123.774 125.521
97.585 124.076 124.893
98.4385 123.814 124.171
94.0269 126.8 124.878
95.0029 126.392 125.211
96.2021 125.897 125.412
97.2537 125.288 125.081
93.7612 105.515 122.723
94.6527 104.855 123.033
95.4319 104.457 122.324
94.0319 106.922 123.339
94.9705 106.327 123.487
95.8268 105.872 122.802
94.1695 108.295 123.846
95.1136 107.897 124.07
95.992 107.621 123.51
96.4823 107.479 122.593
94.1117 109.567 124.22
95.1587 109.376 124.569
96.0422 109.252 124.071
96.7287 109.158 123.153
93.7361 110.62 124.004
94.7772 110.649 124.836
95.9112 110.732 124.732
96.7721 110.648 123.807
94.1002 111.738 124.393
95.1319 112.01 125.008
96.4338 112.068 124.523
93.6323 119.147 124.489
94.4991 118.311 125.366
95.5029 117.632 125.587
93.6786 120.377 124.654
94.5738 119.586 125.583
95.8407 118.763 125.668
93.7604 121.549 124.803
94.7578 120.722 125.684
96.0892 120.011 125.845
93.8579 122.722 124.832
94.8474 121.886 125.52
96.0894 121.283 125.747
93.966 123.684 124.934
94.8337 123.063 125.356
95.9241 122.471 125.613
POLYGONS 2132  8528
3 0 1 2
3 0 3 4
3 2 3 0
3 4 5 6
3 3 5 4
3 6 7 8
3 5 7 6
3 7 9 8
3 10 1 0
3 11 1 10
3 4 12 0
3 12 10 0
3 6 13 4
3 13 12 4
3 8 14 6
3 14 13 6
3 15 8 9
3 14 8 15
3 16 11 10
3 17 11 16
3 12 18 10
3 18 16 10
3 13 19 12
3 19 18 12
3 14 20 13
3 20 19 13
3 21 14 15
3 20 14 21
3 16 22 17
3 18 22 16
3 23 22 18
3 19 23 18
3 24 23 19
3 20 24 19
3 25 24 20
3 21 25 20
3 26 27 28
3 26 29 30
3 28 29 26
3 29 31 30
3 32 33 34
3 27 32 34
3 27 26 32
3 26 35 32
3 30 36 26
3 36 35 26
3 37 30 31
3 36 30 37
3 38 33 32
3 39 33 38
3 35 40 32
3 40 38 32
3 36 41 35
3 41 40 35
3 42 36 37
3 41 36 42
3 43 44 45
3 43 46 47
3 45 46 43
3 39 47 46
3 39 38 47
3 38 48 47
3 40 49 38
3 49 48 38
3 50 41 51
3 50 49 41
3 49 40 41
3 42 51 41
3 2 44 43
3 2 1 44
3 1 52 44
3 3 2 43
3 47 3 43
3 5 3 47
3 48 5 47
3 7 5 48
3 49 7 48
3 49 9 7
3 49 50 9
3 50 53 9
3 1 11 52
3 52 11 54
3 9 53 15
3 53 55 15
3 11 17 54
3 54 17 56
3 15 55 21
3 55 57 21
3 58 17 22
3 58 59 17
3 59 56 17
3 22 23 60
3 58 22 60
3 23 24 61
3 60 23 61
3 62 61 24
3 62 24 63
3 63 24 25
3 57 25 21
3 63 25 57
3 58 64 59
3 60 64 58
3 65 64 60
3 61 65 60
3 66 65 61
3 62 66 61
3 67 68 69
3 67 70 71
3 69 70 67
3 71 72 73
3 70 72 71
3 72 74 73
3 75 76 77
3 68 75 77
3 68 67 75
3 67 78 75
3 71 79 67
3 79 78 67
3 73 80 71
3 80 79 71
3 81 73 74
3 80 73 81
3 82 76 75
3 83 76 82
3 78 84 75
3 84 82 75
3 79 85 78
3 85 84 78
3 80 86 79
3 86 85 79
3 87 80 81
3 86 80 87
3 28 83 82
3 28 27 83
3 27 88 83
3 29 28 82
3 84 29 82
3 31 29 84
3 31 84 89
3 89 84 85
3 86 90 85
3 90 89 85
3 91 86 87
3 90 86 91
3 34 92 93
3 33 92 34
3 88 27 34
3 93 88 34
3 89 94 37
3 31 89 37
3 90 95 89
3 95 94 89
3 96 90 91
3 95 90 96
3 97 98 99
3 97 99 92
3 97 92 39
3 39 92 33
3 94 100 42
3 37 94 42
3 101 95 102
3 101 100 95
3 100 94 95
3 96 102 95
3 45 103 104
3 44 103 45
3 98 97 46
3 98 46 104
3 104 46 45
3 39 46 97
3 51 105 50
3 51 42 100
3 51 100 105
3 105 100 106
3 107 100 101
3 106 100 107
3 44 52 103
3 103 52 108
3 105 109 53
3 50 105 53
3 110 106 111
3 110 109 106
3 109 105 106
3 107 111 106
3 52 54 108
3 108 54 112
3 109 113 55
3 53 109 55
3 114 109 110
3 113 109 114
3 54 56 112
3 112 56 115
3 113 116 57
3 55 113 57
3 117 113 114
3 116 113 117
3 56 59 115
3 115 59 118
3 63 119 120
3 62 63 120
3 116 63 57
3 116 121 63
3 121 119 63
3 117 121 116
3 59 122 118
3 64 122 59
3 65 123 64
3 64 123 122
3 66 124 65
3 65 124 123
3 120 66 62
3 124 66 120
3 69 125 126
3 68 125 69
3 70 69 127
3 69 126 127
3 72 70 128
3 70 127 128
3 128 74 72
3 129 74 128
3 77 130 131
3 76 130 77
3 125 68 77
3 131 125 77
3 74 129 81
3 129 132 81
3 76 83 130
3 130 83 133
3 134 135 87
3 134 87 132
3 132 87 81
3 134 136 135
3 83 88 133
3 133 88 137
3 135 138 91
3 87 135 91
3 139 135 136
3 138 135 139
3 93 140 141
3 92 140 93
3 137 88 93
3 141 137 93
3 138 142 96
3 91 138 96
3 143 138 139
3 142 138 143
3 99 144 145
3 98 144 99
3 140 92 99
3 145 140 99
3 102 146 101
3 102 147 146
3 96 147 102
3 96 148 147
3 96 142 148
3 143 148 142
3 104 149 150
3 103 149 104
3 144 98 104
3 150 144 104
3 146 151 107
3 101 146 107
3 152 146 147
3 151 146 152
3 103 108 149
3 149 108 153
3 111 154 110
3 111 155 154
3 107 155 111
3 107 156 155
3 107 151 156
3 152 156 151
3 108 112 153
3 153 112 157
3 154 158 114
3 110 154 114
3 159 154 155
3 158 154 159
3 112 115 157
3 157 115 160
3 158 161 162
3 158 162 114
3 114 162 117
3 159 161 158
3 115 118 160
3 160 118 163
3 119 164 120
3 165 164 119
3 165 119 166
3 166 119 121
3 162 121 117
3 166 121 162
3 118 167 163
3 122 167 118
3 123 168 122
3 122 168 167
3 124 169 123
3 123 169 168
3 164 124 120
3 164 170 124
3 170 169 124
3 165 170 164
3 126 125 171
3 172 126 171
3 172 173 126
3 173 127 126
3 128 127 174
3 127 173 174
3 174 129 128
3 175 129 174
3 131 130 176
3 131 176 177
3 125 131 177
3 125 177 178
3 125 178 171
3 172 171 178
3 179 180 132
3 179 132 175
3 175 132 129
3 179 181 180
3 176 182 183
3 176 130 182
3 130 133 182
3 177 176 183
3 132 180 134
3 180 136 134
3 180 181 136
3 181 184 136
3 133 137 182
3 182 137 185
3 136 184 139
3 184 186 139
3 141 187 188
3 140 187 141
3 185 137 141
3 188 185 141
3 139 186 143
3 186 189 143
3 145 190 191
3 144 190 145
3 187 140 145
3 191 187 145
3 148 192 147
3 148 193 192
3 148 143 193
3 143 189 193
3 150 194 195
3 149 194 150
3 190 144 150
3 195 190 150
3 192 196 152
3 147 192 152
3 197 192 193
3 196 192 197
3 198 199 200
3 198 200 194
3 198 194 153
3 153 194 149
3 156 201 155
3 156 202 201
3 152 202 156
3 152 203 202
3 152 196 203
3 197 203 196
3 204 199 198
3 205 199 204
3 153 157 204
3 198 153 204
3 201 206 159
3 155 201 159
3 207 201 202
3 206 201 207
3 208 205 204
3 209 205 208
3 157 160 208
3 204 157 208
3 161 210 162
3 161 211 210
3 159 211 161
3 159 212 211
3 159 206 212
3 207 212 206
3 213 209 208
3 214 209 213
3 160 163 213
3 208 160 213
3 166 215 216
3 165 166 216
3 210 166 162
3 210 217 166
3 217 215 166
3 211 217 210
3 213 218 214
3 163 218 213
3 163 167 218
3 167 219 218
3 168 220 167
3 167 220 219
3 169 221 168
3 168 221 220
3 170 222 169
3 169 222 221
3 216 170 165
3 222 170 216
3 223 224 225
3 223 226 227
3 225 226 223
3 226 228 227
3 173 224 223
3 173 172 224
3 172 229 224
3 174 173 223
3 227 174 223
3 227 175 174
3 227 228 175
3 228 230 175
3 178 231 232
3 177 231 178
3 229 172 178
3 232 229 178
3 175 230 233
3 179 175 233
3 233 181 179
3 234 181 233
3 183 235 236
3 182 235 183
3 231 177 183
3 236 231 183
3 181 234 184
3 234 237 184
3 238 239 240
3 238 240 235
3 238 235 185
3 185 235 182
3 184 237 186
3 237 241 186
3 242 243 244
3 239 242 244
3 238 242 239
3 238 187 242
3 238 188 187
3 185 188 238
3 186 241 189
3 241 245 189
3 246 247 248
3 243 246 248
3 242 246 243
3 242 190 246
3 242 191 190
3 187 191 242
3 189 245 193
3 245 249 193
3 250 251 252
3 247 250 252
3 246 250 247
3 246 194 250
3 246 195 194
3 190 195 246
3 193 249 197
3 249 253 197
3 200 251 250
3 200 199 251
3 199 254 251
3 194 200 250
3 203 255 256
3 202 203 256
3 253 203 197
3 255 203 253
3 199 205 254
3 254 205 257
3 202 256 207
3 256 258 207
3 205 209 257
3 257 209 259
3 212 260 261
3 211 212 261
3 258 212 207
3 260 212 258
3 209 214 259
3 259 214 262
3 215 263 264
3 216 215 264
3 217 265 215
3 215 265 263
3 261 217 211
3 265 217 261
3 214 266 262
3 218 266 214
3 219 267 218
3 218 267 266
3 220 268 219
3 219 268 267
3 221 269 220
3 220 269 268
3 222 270 221
3 221 270 269
3 264 222 216
3 270 222 264
3 271 272 273
3 271 225 224
3 271 273 225
3 273 274 225
3 226 225 275
3 225 274 275
3 275 228 226
3 276 228 275
3 277 272 271
3 278 272 277
3 224 229 277
3 271 224 277
3 228 276 230
3 276 279 230
3 232 278 277
3 232 231 278
3 231 280 278
3 229 232 277
3 230 279 281
3 233 230 281
3 281 234 233
3 282 234 281
3 283 284 285
3 283 236 235
3 283 285 236
3 285 286 236
3 280 231 236
3 286 280 236
3 234 282 237
3 282 287 237
3 288 289 290
3 284 288 290
3 283 288 284
3 283 239 288
3 283 240 239
3 235 240 283
3 237 287 241
3 287 291 241
3 244 289 288
3 244 243 289
3 243 292 289
3 239 244 288
3 241 291 245
3 291 293 245
3 248 294 295
3 247 294 248
3 292 243 248
3 295 292 248
3 245 293 249
3 293 296 249
3 252 297 298
3 251 297 252
3 294 247 252
3 298 294 252
3 249 296 253
3 296 299 253
3 251 254 297
3 297 254 300
3 255 301 302
3 256 255 302
3 299 255 253
3 301 255 299
3 254 257 300
3 300 257 303
3 256 302 258
3 302 304 258
3 257 259 303
3 303 259 305
3 260 306 307
3 261 260 307
3 304 260 258
3 306 260 304
3 259 262 305
3 305 262 308
3 263 309 264
3 310 309 263
3 310 263 311
3 311 263 265
3 307 265 261
3 311 265 307
3 262 312 308
3 266 312 262
3 267 313 266
3 266 313 312
3 268 314 267
3 267 314 313
3 269 315 268
3 268 315 314
3 270 316 269
3 269 316 315
3 309 270 264
3 309 317 270
3 317 316 270
3 310 317 309
3 318 319 320
3 318 321 322
3 320 321 318
3 322 323 324
3 321 323 322
3 323 325 324
3 273 319 318
3 273 272 319
3 272 326 319
3 274 273 318
3 322 274 318
3 275 274 322
3 324 275 322
3 324 276 275
3 324 325 276
3 325 327 276
3 272 278 326
3 326 278 328
3 276 327 279
3 327 329 279
3 330 331 332
3 330 332 328
3 330 328 280
3 280 328 278
3 279 329 333
3 281 279 333
3 333 282 281
3 334 282 333
3 285 335 336
3 284 335 285
3 331 330 286
3 331 286 336
3 336 286 285
3 280 286 330
3 282 334 287
3 334 337 287
3 290 338 339
3 289 338 290
3 335 284 290
3 339 335 290
3 287 337 291
3 337 340 291
3 289 292 338
3 338 292 341
3 291 340 293
3 340 342 293
3 295 343 344
3 294 343 295
3 341 292 295
3 344 341 295
3 293 342 296
3 342 345 296
3 298 346 347
3 297 346 298
3 343 294 298
3 347 343 298
3 296 345 299
3 345 348 299
3 297 300 346
3 346 300 349
3 301 350 351
3 302 301 351
3 348 301 299
3 350 301 348
3 300 303 349
3 349 303 352
3 302 351 304
3 351 353 304
3 303 305 352
3 352 305 354
3 306 355 356
3 307 306 356
3 353 306 304
3 355 306 353
3 305 308 354
3 354 308 357
3 311 358 359
3 310 311 359
3 356 311 307
3 358 311 356
3 308 360 357
3 312 360 308
3 313 361 312
3 312 361 360
3 314 362 313
3 313 362 361
3 315 363 314
3 314 363 362
3 316 364 315
3 315 364 363
3 317 365 316
3 316 365 364
3 359 317 310
3 365 317 359
3 366 367 368
3 366 369 370
3 368 369 366
3 369 371 370
3 320 367 366
3 320 319 367
3 319 372 367
3 321 320 366
3 370 321 366
3 370 371 373
3 370 373 321
3 321 373 323
3 373 325 323
3 374 325 373
3 375 376 377
3 375 377 372
3 375 372 326
3 326 372 319
3 325 374 327
3 374 378 327
3 379 376 375
3 380 376 379
3 326 328 379
3 375 326 379
3 327 378 329
3 378 381 329
3 382 383 384
3 380 382 384
3 379 382 380
3 379 331 382
3 379 332 331
3 328 332 379
3 329 381 385
3 333 329 385
3 385 334 333
3 386 334 385
3 387 388 389
3 383 387 389
3 382 387 383
3 382 335 387
3 382 336 335
3 331 336 382
3 334 386 337
3 386 390 337
3 339 388 387
3 339 338 388
3 338 391 388
3 335 339 387
3 337 390 340
3 390 392 340
3 393 394 395
3 393 395 391
3 393 391 341
3 341 391 338
3 340 392 342
3 392 396 342
3 397 398 399
3 394 397 399
3 393 397 394
3 393 343 397
3 393 344 343
3 341 344 393
3 400 401 402
3 400 396 401
3 400 345 396
3 345 342 396
3 347 398 397
3 347 346 398
3 346 403 398
3 343 347 397
3 404 400 402
3 405 404 402
3 345 404 348
3 400 404 345
3 346 349 403
3 403 349 406
3 350 404 405
3 350 405 351
3 351 405 407
3 348 404 350
3 349 352 406
3 406 352 408
3 351 407 353
3 407 409 353
3 352 354 408
3 408 354 410
3 355 411 412
3 356 355 412
3 409 355 353
3 411 355 409
3 413 357 414
3 413 410 357
3 410 354 357
3 413 414 415
3 358 416 417
3 359 358 417
3 412 358 356
3 416 358 412
3 357 360 414
3 414 418 415
3 414 360 418
3 360 361 418
3 362 419 361
3 361 419 418
3 363 420 362
3 362 420 419
3 364 421 363
3 363 421 420
3 365 422 364
3 364 422 421
3 417 365 359
3 422 365 417
3 423 424 425
3 423 368 367
3 423 425 368
3 425 426 368
3 369 368 427
3 368 426 427
3 427 371 369
3 428 371 427
3 429 424 423
3 430 424 429
3 367 372 429
3 423 367 429
3 371 428 431
3 373 371 431
3 431 374 373
3 432 374 431
3 433 434 435
3 430 433 435
3 429 433 430
3 429 376 433
3 429 377 376
3 372 377 429
3 374 432 378
3 432 436 378
3 437 434 433
3 438 434 437
3 376 380 437
3 433 376 437
3 439 440 381
3 439 381 436
3 436 381 378
3 439 441 440
3 442 443 444
3 438 442 444
3 437 442 438
3 437 383 442
3 437 384 383
3 380 384 437
3 381 440 385
3 440 386 385
3 440 441 386
3 441 445 386
3 389 443 442
3 389 388 443
3 388 446 443
3 383 389 442
3 386 445 390
3 445 447 390
3 388 391 446
3 446 391 448
3 390 447 392
3 447 449 392
3 395 450 451
3 394 450 395
3 448 391 395
3 451 448 395
3 392 449 396
3 449 452 396
3 399 453 454
3 398 453 399
3 450 394 399
3 454 450 399
3 401 455 456
3 402 401 456
3 452 401 396
3 455 401 452
3 398 403 453
3 453 403 457
3 402 456 405
3 456 458 405
3 403 406 457
3 457 406 459
3 405 458 407
3 458 460 407
3 406 408 459
3 459 408 461
3 462 463 464
3 462 460 463
3 462 409 460
3 409 407 460
3 465 410 466
3 465 461 410
3 461 408 410
3 465 466 467
3 468 469 470
3 464 469 468
3 462 464 468
3 462 468 412
3 462 412 411
3 409 462 411
3 410 413 466
3 466 413 415
3 466 415 467
3 467 415 471
3 472 473 474
3 472 475 476
3 473 472 476
3 470 476 475
3 468 470 475
3 468 475 417
3 468 417 416
3 412 468 416
3 415 477 471
3 418 477 415
3 419 478 418
3 418 478 477
3 420 479 419
3 419 479 478
3 474 421 472
3 474 479 421
3 479 420 421
3 422 472 421
3 475 472 422
3 417 475 422
3 480 481 482
3 480 483 484
3 482 483 480
3 483 485 484
3 425 486 487
3 424 486 425
3 481 480 426
3 481 426 487
3 487 426 425
3 427 426 480
3 484 427 480
3 484 428 427
3 484 485 428
3 485 488 428
3 489 490 491
3 489 491 486
3 489 486 430
3 430 486 424
3 428 488 492
3 431 428 492
3 492 432 431
3 493 432 492
3 494 495 496
3 490 494 496
3 489 494 490
3 489 434 494
3 489 435 434
3 430 435 489
3 432 493 436
3 493 497 436
3 498 495 494
3 499 495 498
3 434 438 498
3 494 434 498
3 436 497 500
3 439 436 500
3 500 441 439
3 501 441 500
3 444 499 498
3 444 443 499
3 443 502 499
3 438 444 498
3 441 501 445
3 501 503 445
3 504 505 506
3 504 506 502
3 504 502 446
3 446 502 443
3 445 503 447
3 503 507 447
3 508 505 504
3 509 505 508
3 446 448 508
3 504 446 508
3 447 507 449
3 507 510 449
3 511 512 513
3 509 511 513
3 508 511 509
3 508 450 511
3 508 451 450
3 448 451 508
3 449 510 452
3 510 514 452
3 454 512 511
3 454 453 512
3 453 515 512
3 450 454 511
3 455 516 517
3 456 455 517
3 514 455 452
3 516 455 514
3 453 457 515
3 515 457 518
3 456 517 458
3 517 519 458
3 457 459 518
3 518 459 520
3 521 522 523
3 521 519 522
3 521 460 519
3 460 458 519
3 459 461 520
3 520 461 524
3 525 526 527
3 525 528 529
3 526 525 529
3 528 530 531
3 529 528 531
3 523 531 530
3 521 523 530
3 521 530 464
3 521 464 463
3 460 521 463
3 461 532 524
3 465 532 461
3 532 465 467
3 533 532 467
3 534 525 527
3 535 534 527
3 528 525 536
3 536 525 534
3 469 536 470
3 469 530 536
3 530 528 536
3 464 530 469
3 537 471 538
3 537 533 471
3 533 467 471
3 538 539 540
3 537 538 540
3 539 541 542
3 540 539 542
3 535 542 541
3 534 535 541
3 534 541 474
3 534 474 473
3 476 534 473
3 536 534 476
3 470 536 476
3 471 477 538
3 478 538 477
3 539 538 478
3 479 539 478
3 541 539 479
3 474 541 479
3 543 544 545
3 543 546 547
3 545 546 543
3 547 548 549
3 546 548 547
3 548 550 549
3 551 544 543
3 552 544 551
3 482 481 551
3 482 551 547
3 547 551 543
3 483 482 547
3 549 483 547
3 549 485 483
3 549 550 485
3 550 553 485
3 554 555 556
3 552 554 556
3 551 554 552
3 551 486 554
3 551 487 486
3 481 487 551
3 485 553 488
3 553 557 488
3 558 559 560
3 555 558 560
3 554 558 555
3 554 490 558
3 554 491 490
3 486 491 554
3 488 557 561
3 492 488 561
3 561 493 492
3 562 493 561
3 496 559 558
3 496 495 559
3 495 563 559
3 490 496 558
3 493 562 497
3 562 564 497
3 565 566 567
3 565 567 563
3 565 563 499
3 499 563 495
3 568 500 497
3 568 497 569
3 569 497 564
3 500 568 501
3 570 566 565
3 571 566 570
3 499 502 570
3 565 499 570
3 568 569 572
3 572 501 568
3 572 573 501
3 573 503 501
3 506 571 570
3 506 505 571
3 505 574 571
3 502 506 570
3 503 573 507
3 573 575 507
3 576 577 578
3 576 578 574
3 576 574 509
3 509 574 505
3 507 575 510
3 575 579 510
3 513 577 576
3 513 512 577
3 512 580 577
3 509 513 576
3 581 582 583
3 581 579 582
3 581 514 579
3 514 510 579
3 512 515 580
3 580 515 584
3 516 581 583
3 516 583 517
3 517 583 585
3 514 581 516
3 515 518 584
3 584 518 586
3 517 585 519
3 585 587 519
3 588 520 589
3 588 586 520
3 586 518 520
3 588 589 590
3 591 592 593
3 591 523 522
3 591 522 592
3 592 522 594
3 587 522 519
3 594 522 587
3 589 524 595
3 520 524 589
3 596 590 589
3 595 596 589
3 526 597 598
3 527 526 598
3 529 599 526
3 526 599 597
3 593 531 591
3 593 599 531
3 599 529 531
3 523 591 531
3 524 532 595
3 533 600 601
3 532 533 601
3 532 601 596
3 532 596 595
3 600 602 603
3 601 600 603
3 602 604 605
3 603 602 605
3 604 598 605
3 604 535 598
3 535 527 598
3 533 537 600
3 540 600 537
3 602 600 540
3 542 602 540
3 604 602 542
3 535 604 542
3 606 607 608
3 606 609 610
3 608 609 606
3 610 545 544
3 610 609 545
3 609 611 545
3 546 545 612
3 545 611 612
3 548 546 613
3 546 612 613
3 613 550 548
3 614 550 613
3 615 607 606
3 616 607 615
3 610 617 606
3 617 615 606
3 544 552 617
3 610 544 617
3 550 614 553
3 614 618 553
3 619 616 615
3 620 616 619
3 556 555 619
3 556 619 617
3 617 619 615
3 552 556 617
3 553 618 557
3 618 621 557
3 622 623 624
3 620 622 624
3 619 622 620
3 619 559 622
3 619 560 559
3 555 560 619
3 625 561 557
3 625 557 626
3 626 557 621
3 561 625 562
3 627 623 622
3 628 623 627
3 559 563 627
3 622 559 627
3 625 626 629
3 629 562 625
3 629 630 562
3 630 564 562
3 567 628 627
3 567 566 628
3 566 631 628
3 563 567 627
3 564 630 569
3 630 632 569
3 566 571 631
3 631 571 633
3 634 572 569
3 634 569 635
3 635 569 632
3 572 634 573
3 571 574 633
3 633 574 636
3 637 634 635
3 638 637 635
3 573 637 575
3 634 637 573
3 578 639 640
3 577 639 578
3 636 574 578
3 640 636 578
3 641 642 643
3 638 642 641
3 638 641 637
3 637 641 644
3 575 644 579
3 637 644 575
3 577 580 639
3 639 580 645
3 646 641 643
3 647 646 643
3 582 646 583
3 582 644 646
3 644 641 646
3 579 644 582
3 580 584 645
3 645 584 648
3 649 646 647
3 650 649 647
3 583 649 585
3 646 649 583
3 584 586 648
3 648 586 651
3 652 653 654
3 650 653 652
3 650 652 649
3 649 652 655
3 585 655 587
3 649 655 585
3 586 656 651
3 588 656 586
3 590 657 658
3 590 658 588
3 588 658 656
3 658 657 659
3 660 661 662
3 654 661 660
3 652 654 660
3 652 660 593
3 652 593 592
3 594 652 592
3 655 652 594
3 587 655 594
3 657 596 663
3 590 596 657
3 664 659 657
3 664 657 665
3 665 657 663
3 665 666 667
3 664 665 667
3 666 598 597
3 666 597 667
3 667 597 668
3 662 599 660
3 662 668 599
3 668 597 599
3 593 660 599
3 596 601 663
3 603 663 601
3 665 663 603
3 605 665 603
3 666 665 605
3 598 666 605
3 669 670 671
3 669 672 673
3 671 672 669
3 673 674 675
3 672 674 673
3 674 676 675
3 677 678 679
3 670 677 679
3 670 669 677
3 669 680 677
3 673 681 669
3 681 680 669
3 675 682 673
3 682 681 673
3 683 675 676
3 682 675 683
3 608 678 677
3 608 607 678
3 607 684 678
3 609 608 677
3 680 609 677
3 611 609 680
3 681 611 680
3 612 611 681
3 682 612 681
3 682 683 685
3 682 685 612
3 612 685 613
3 685 614 613
3 686 614 685
3 607 616 684
3 684 616 687
3 614 686 618
3 686 688 618
3 689 690 691
3 689 691 687
3 689 687 620
3 620 687 616
3 618 688 621
3 688 692 621
3 624 690 689
3 624 623 690
3 623 693 690
3 620 624 689
3 621 692 626
3 692 694 626
3 623 628 693
3 693 628 695
3 626 694 696
3 629 626 696
3 696 630 629
3 697 630 696
3 628 631 695
3 695 631 698
3 630 697 632
3 697 699 632
3 631 633 698
3 698 633 700
3 632 699 635
3 699 701 635
3 633 636 700
3 700 636 702
3 635 701 638
3 701 703 638
3 640 639 704
3 640 704 705
3 640 705 636
3 636 705 702
3 642 706 707
3 643 642 707
3 703 642 638
3 706 642 703
3 704 645 708
3 639 645 704
3 709 705 704
3 708 709 704
3 643 707 647
3 707 710 647
3 708 648 711
3 645 648 708
3 712 709 708
3 711 712 708
3 713 714 715
3 713 710 714
3 713 650 710
3 650 647 710
3 711 651 716
3 648 651 711
3 717 712 711
3 716 717 711
3 718 719 720
3 718 721 722
3 719 718 722
3 715 722 721
3 713 715 721
3 713 721 654
3 713 654 653
3 650 713 653
3 651 656 716
3 716 723 717
3 716 656 723
3 656 658 723
3 659 724 725
3 659 725 658
3 658 725 723
3 724 726 727
3 725 724 727
3 720 727 726
3 720 726 718
3 718 726 728
3 661 728 662
3 661 721 728
3 721 718 728
3 654 721 661
3 659 664 724
3 667 724 664
3 726 724 667
3 668 726 667
3 728 726 668
3 662 728 668
3 729 730 731
3 729 732 733
3 731 732 729
3 732 734 733
3 735 730 729
3 736 730 735
3 733 737 729
3 737 735 729
3 738 733 734
3 737 733 738
3 735 739 736
3 737 739 735
3 740 739 737
3 738 740 737
3 741 742 743
3 741 744 745
3 743 744 741
3 745 746 747
3 744 746 745
3 746 748 747
3 749 742 741
3 750 742 749
3 671 670 749
3 671 749 745
3 745 749 741
3 672 671 745
3 747 672 745
3 747 748 751
3 747 751 672
3 672 751 674
3 751 676 674
3 752 676 751
3 679 750 749
3 679 678 750
3 678 753 750
3 670 679 749
3 676 752 683
3 752 754 683
3 755 756 757
3 755 757 753
3 755 753 684
3 684 753 678
3 683 754 758
3 685 683 758
3 758 686 685
3 759 686 758
3 760 756 755
3 761 756 760
3 684 687 760
3 755 684 760
3 686 759 688
3 759 762 688
3 691 761 760
3 691 690 761
3 690 763 761
3 687 691 760
3 688 762 692
3 762 764 692
3 690 693 763
3 763 693 765
3 692 764 694
3 764 766 694
3 693 695 765
3 765 695 767
3 768 696 694
3 768 694 769
3 769 694 766
3 696 768 697
3 695 698 767
3 767 698 770
3 771 768 769
3 772 771 769
3 697 771 699
3 768 771 697
3 698 700 770
3 770 700 773
3 774 771 772
3 775 774 772
3 699 774 701
3 771 774 699
3 700 702 773
3 773 702 776
3 777 774 775
3 778 777 775
3 701 777 703
3 774 777 701
3 702 705 776
3 776 705 779
3 780 781 782
3 778 781 780
3 777 778 780
3 777 780 707
3 777 707 706
3 703 777 706
3 705 709 779
3 779 709 783
3 784 785 786
3 784 787 788
3 785 784 788
3 782 788 787
3 782 787 780
3 780 787 789
3 707 789 710
3 780 789 707
3 790 712 791
3 790 783 712
3 783 709 712
3 791 792 793
3 790 791 793
3 792 794 795
3 793 792 795
3 786 795 794
3 786 794 784
3 784 794 796
3 787 784 797
3 797 784 796
3 714 797 715
3 714 789 797
3 789 787 797
3 710 789 714
3 791 717 798
3 712 717 791
3 792 791 799
3 799 791 798
3 794 792 800
3 800 792 799
3 719 800 720
3 719 796 800
3 796 794 800
3 722 796 719
3 797 796 722
3 715 797 722
3 717 723 798
3 725 798 723
3 799 798 725
3 727 799 725
3 800 799 727
3 720 800 727
3 801 802 803
3 801 804 805
3 803 804 801
3 804 806 805
3 807 802 801
3 808 802 807
3 731 730 807
3 731 807 805
3 805 807 801
3 805 806 809
3 805 809 731
3 731 809 732
3 809 734 732
3 810 734 809
3 811 808 807
3 812 808 811
3 730 736 811
3 807 730 811
3 734 810 738
3 810 813 738
3 814 812 811
3 815 812 814
3 736 739 816
3 736 816 811
3 811 816 814
3 739 740 817
3 816 739 817
3 740 818 817
3 740 738 818
3 738 813 818
3 819 815 814
3 820 815 819
3 816 821 814
3 821 819 814
3 817 822 816
3 822 821 816
3 823 817 818
3 823 824 817
3 824 822 817
3 823 825 824
3 826 820 819
3 827 820 826
3 821 828 819
3 828 826 819
3 822 829 821
3 829 828 821
3 824 830 822
3 830 829 822
3 831 824 825
3 830 824 831
3 826 832 827
3 832 833 834
3 832 826 833
3 826 828 833
3 829 835 828
3 835 833 828
3 830 836 829
3 836 835 829
3 837 830 831
3 836 830 837
3 838 834 833
3 839 834 838
3 835 840 833
3 840 838 833
3 836 841 835
3 841 840 835
3 842 836 837
3 841 836 842
3 838 843 839
3 843 844 845
3 843 838 844
3 838 840 844
3 841 846 840
3 846 844 840
3 847 841 842
3 847 848 841
3 848 846 841
3 847 849 848
3 743 845 844
3 743 742 845
3 742 850 845
3 744 743 844
3 846 744 844
3 746 744 846
3 848 746 846
3 848 748 746
3 848 849 748
3 849 851 748
3 852 853 854
3 852 854 850
3 852 850 750
3 750 850 742
3 748 851 855
3 751 748 855
3 855 752 751
3 856 752 855
3 857 853 852
3 858 853 857
3 750 753 857
3 852 750 857
3 752 856 754
3 856 859 754
3 757 858 857
3 757 756 858
3 756 860 858
3 753 757 857
3 861 758 754
3 861 754 862
3 862 754 859
3 758 861 759
3 756 761 860
3 860 761 863
3 861 862 864
3 864 759 861
3 864 865 759
3 865 762 759
3 761 763 863
3 863 763 866
3 762 865 764
3 865 867 764
3 763 765 866
3 866 765 868
3 869 870 871
3 869 867 870
3 869 766 867
3 766 764 867
3 765 767 868
3 868 767 872
3 873 869 871
3 874 873 871
3 766 873 769
3 869 873 766
3 767 770 872
3 872 770 875
3 876 873 874
3 877 876 874
3 769 876 772
3 873 876 769
3 770 773 875
3 875 773 878
3 879 880 881
3 877 880 879
3 877 879 876
3 876 879 882
3 772 882 775
3 876 882 772
3 773 776 878
3 878 776 883
3 884 879 881
3 885 884 881
3 882 879 886
3 886 879 884
3 775 886 778
3 882 886 775
3 776 779 883
3 883 779 887
3 888 884 885
3 889 888 885
3 781 888 782
3 781 886 888
3 886 884 888
3 778 886 781
3 890 783 891
3 890 887 783
3 887 779 783
3 891 892 893
3 890 891 893
3 892 894 895
3 893 892 895
3 894 786 785
3 894 785 895
3 895 785 896
3 889 788 888
3 889 896 788
3 896 785 788
3 782 888 788
3 783 790 891
3 793 891 790
3 892 891 793
3 795 892 793
3 894 892 795
3 786 894 795
3 803 897 898
3 802 897 803
3 804 803 899
3 803 898 899
3 899 806 804
3 900 806 899
3 802 808 897
3 897 808 901
3 806 900 902
3 809 806 902
3 902 810 809
3 903 810 902
3 808 812 901
3 901 812 904
3 810 903 813
3 903 905 813
3 812 815 904
3 904 815 906
3 813 905 818
3 905 907 818
3 815 820 906
3 906 820 908
3 818 907 909
3 823 818 909
3 909 825 823
3 910 825 909
3 820 827 908
3 908 827 911
3 825 910 831
3 910 912 831
3 913 827 832
3 913 914 827
3 914 911 827
3 832 834 913
3 831 912 837
3 912 915 837
3 913 916 914
3 916 913 834
3 916 834 917
3 917 834 839
3 837 915 842
3 915 918 842
3 839 919 917
3 843 919 839
3 919 843 845
3 920 919 845
3 842 918 921
3 847 842 921
3 921 849 847
3 922 849 921
3 845 850 920
3 920 850 923
3 849 922 851
3 922 924 851
3 854 925 926
3 853 925 854
3 923 850 854
3 926 923 854
3 851 924 927
3 855 851 927
3 927 856 855
3 928 856 927
3 853 858 925
3 925 858 929
3 856 928 859
3 928 930 859
3 858 860 929
3 929 860 931
3 859 930 862
3 930 932 862
3 860 863 931
3 931 863 933
3 934 864 862
3 934 862 935
3 935 862 932
3 864 934 865
3 863 866 933
3 933 866 936
3 937 934 935
3 938 937 935
3 865 937 867
3 934 937 865
3 866 868 936
3 936 868 939
3 870 937 938
3 870 938 871
3 871 938 940
3 867 937 870
3 868 872 939
3 939 872 941
3 942 943 944
3 942 940 943
3 942 874 940
3 874 871 940
3 945 875 946
3 945 941 875
3 941 872 875
3 946 947 948
3 945 946 948
3 947 949 950
3 948 947 950
3 949 951 952
3 950 949 952
3 944 952 951
3 944 951 942
3 942 951 953
3 874 953 877
3 942 953 874
3 946 878 954
3 875 878 946
3 947 946 955
3 955 946 954
3 949 947 956
3 956 947 955
3 951 949 957
3 957 949 956
3 880 957 881
3 880 953 957
3 953 951 957
3 877 953 880
3 954 883 958
3 878 883 954
3 955 954 959
3 959 954 958
3 956 955 960
3 960 955 959
3 957 956 961
3 961 956 960
3 881 961 885
3 957 961 881
3 958 887 962
3 883 887 958
3 959 958 963
3 963 958 962
3 960 959 964
3 964 959 963
3 961 960 965
3 965 960 964
3 885 965 889
3 961 965 885
3 887 890 962
3 893 962 890
3 963 962 893
3 895 963 893
3 964 963 895
3 896 964 895
3 965 964 896
3 889 965 896
3 898 897 966
3 898 967 899
3 966 967 898
3 899 967 900
3 966 901 968
3 897 901 966
3 967 966 969
3 969 966 968
3 900 970 902
3 900 967 970
3 967 969 970
3 902 970 903
3 968 971 972
3 968 901 971
3 901 904 971
3 969 968 972
3 973 969 972
3 970 969 973
3 974 970 973
3 974 903 970
3 974 975 903
3 975 905 903
3 904 906 971
3 971 906 976
3 905 975 907
3 975 977 907
3 906 908 976
3 976 908 978
3 907 977 979
3 909 907 979
3 979 910 909
3 980 910 979
3 908 911 978
3 978 911 981
3 910 980 912
3 980 982 912
3 911 914 981
3 981 914 983
3 912 982 915
3 982 984 915
3 914 985 983
3 916 985 914
3 985 916 917
3 986 985 917
3 915 984 918
3 984 987 918
3 917 988 986
3 919 988 917
3 920 989 990
3 920 990 919
3 919 990 988
3 989 991 992
3 990 989 992
3 921 991 993
3 921 987 991
3 921 918 987
3 992 991 987
3 921 993 922
3 989 923 994
3 920 923 989
3 991 989 995
3 995 989 994
3 993 991 996
3 996 991 995
3 922 996 924
3 993 996 922
3 926 997 998
3 925 997 926
3 994 923 926
3 994 926 999
3 999 926 998
3 995 994 999
3 1000 995 999
3 1000 1001 1002
3 1000 1002 995
3 995 1002 996
3 924 1003 927
3 924 996 1003
3 996 1002 1003
3 927 1003 928
3 925 929 997
3 997 929 1004
3 1005 1002 1001
3 1006 1005 1001
3 1003 1002 1007
3 1007 1002 1005
3 928 1007 930
3 1003 1007 928
3 929 931 1004
3 1004 931 1008
3 1009 1005 1006
3 1010 1009 1006
3 1007 1005 1011
3 1011 1005 1009
3 930 1011 932
3 1007 1011 930
3 931 933 1008
3 1008 933 1012
3 1013 1009 1010
3 1014 1013 1010
3 1011 1009 1015
3 1015 1009 1013
3 932 1015 935
3 1011 1015 932
3 933 936 1012
3 1012 936 1016
3 1017 1013 1014
3 1018 1017 1014
3 1015 1013 1019
3 1019 1013 1017
3 935 1019 938
3 1015 1019 935
3 1020 939 1021
3 1020 1016 939
3 1016 936 939
3 1021 1022 1023
3 1020 1021 1023
3 1022 1024 1025
3 1023 1022 1025
3 1018 1025 1024
3 1018 1024 1017
3 1017 1024 1026
3 1019 1017 1027
3 1027 1017 1026
3 938 1027 940
3 1019 1027 938
3 1021 941 1028
3 939 941 1021
3 1022 1021 1029
3 1029 1021 1028
3 1024 1022 1030
3 1030 1022 1029
3 1026 1024 1031
3 1031 1024 1030
3 943 1031 944
3 943 1027 1031
3 1027 1026 1031
3 940 1027 943
3 941 945 1028
3 948 1028 945
3 1029 1028 948
3 950 1029 948
3 1030 1029 950
3 952 1030 950
3 1031 1030 952
3 944 1031 952
3 972 971 1032
3 972 1033 973
3 1032 1033 972
3 973 1034 974
3 1033 1034 973
3 974 1034 975
3 1032 976 1035
3 971 976 1032
3 1033 1032 1036
3 1036 1032 1035
3 1034 1033 1037
3 1037 1033 1036
3 975 1037 977
3 1034 1037 975
3 1035 978 1038
3 976 978 1035
3 1036 1035 1039
3 1039 1035 1038
3 1037 1036 1040
3 1040 1036 1039
3 977 1041 979
3 977 1037 1041
3 1037 1040 1041
3 979 1041 980
3 1038 981 1042
3 978 981 1038
3 1039 1038 1043
3 1043 1038 1042
3 1040 1039 1044
3 1044 1039 1043
3 1041 1040 1045
3 1045 1040 1044
3 980 1045 982
3 1041 1045 980
3 1042 983 1046
3 981 983 1042
3 1043 1042 1047
3 1047 1042 1046
3 1044 1043 1048
3 1048 1043 1047
3 1045 1044 1049
3 1049 1044 1048
3 982 1049 984
3 1045 1049 982
3 983 985 1046
3 986 1046 985
3 986 1050 1046
3 1050 1047 1046
3 1048 1047 1051
3 1051 1047 1050
3 1049 1048 1052
3 1052 1048 1051
3 984 1052 987
3 1049 1052 984
3 986 988 1050
3 990 1050 988
3 1051 1050 990
3 992 1051 990
3 1052 1051 992
3 987 1052 992
3 998 997 1053
3 998 1054 999
3 1053 1054 998
3 999 1055 1000
3 1054 1055 999
3 1000 1055 1001
3 1053 1004 1056
3 997 1004 1053
3 1054 1053 1057
3 1057 1053 1056
3 1055 1054 1058
3 1058 1054 1057
3 1001 1058 1006
3 1055 1058 1001
3 1056 1008 1059
3 1004 1008 1056
3 1057 1056 1060
3 1060 1056 1059
3 1058 1057 1061
3 1061 1057 1060
3 1006 1061 1010
3 1058 1061 1006
3 1059 1012 1062
3 1008 1012 1059
3 1060 1059 1063
3 1063 1059 1062
3 1061 1060 1064
3 1064 1060 1063
3 1010 1064 1014
3 1061 1064 1010
3 1062 1016 1065
3 1012 1016 1062
3 1063 1062 1066
3 1066 1062 1065
3 1064 1063 1067
3 1067 1063 1066
3 1014 1067 1018
3 1064 1067 1014
3 1016 1020 1065
3 1023 1065 1020
3 1066 1065 1023
3 1025 1066 1023
3 1067 1066 1025
3 1018 1067 1025
