# vtk DataFile Version 3.0
this file was written using fslvtkio
ASCII
DATASET POLYDATA
POINTS 642 float
94.6844 129.727 108.295
87.0039 136.036 103.9
84.6628 119.685 103.917
89.2059 114.088 107.425
89.8812 121.163 115.003
92.5352 125.517 102.055
89.9346 127.744 99.7565
84.5716 125.6 111.376
90.7751 137.282 111.772
84.6771 109.43 109.513
86.2742 109.084 97.9255
98.4531 138.671 101.124
86.6651 132.482 112.73
90.1344 129.125 114.552
86.0013 123.016 115.561
83.8635 117.41 111.714
86.5239 114.039 114.468
95.159 134.854 98.0158
92.5091 127.111 100.29
99.8103 132.255 100.312
86.6001 116.17 100.428
87.1962 115.621 101.179
90.1837 116.482 111.547
93.1778 125.408 112.19
91.8234 122.254 108.247
89.7187 119.692 104.767
94.4629 128.599 104.611
85.1001 132.122 108.201
84.0404 122.749 107.628
85.4652 128.584 104.102
89.2466 133.377 100.456
86.7077 123.909 101.666
98.2536 135.191 105.157
94.0201 134.126 110.268
94.0824 140.57 106.182
92.3279 140.264 101.552
88.647 139.772 107.88
87.69 110.074 103.699
84.8027 106.108 103.149
87.4545 107.587 109.367
84.468 112.635 101.347
83.8302 113.843 106.557
87.9097 130.767 114.633
87.8496 126.326 116.144
86.0439 127.899 114.721
87.9787 121.594 116.063
89.9914 125.064 115.332
90.3613 133.608 113.25
88.4693 135.582 113.053
85.2554 128.94 112.383
85.0474 124.277 113.476
84.8491 119.88 113.97
86.2718 118.416 115.676
84.9905 115.421 113.327
88.6435 117.28 115.406
84.011 121.539 111.718
84.5618 113.358 110.651
85.4971 110.761 111.967
94.8877 131.316 98.8667
96.2516 130.708 99.8654
98.3499 133.809 98.2091
95.4843 129.826 101.475
92.756 126.4 101.07
91.5406 127.766 99.6671
92.5657 131.594 99.1913
97.4251 137.143 99.0883
100.374 135.994 100.115
86.964 114.993 99.3066
88.5597 121.066 101.181
89.0189 122.444 100.845
89.9625 121.323 102.071
87.7592 111.833 99.2839
86.1594 112.265 96.6674
88.7581 123.731 99.9898
92.1842 121.14 112.2
93.2019 123.661 110.125
91.406 119.366 109.907
93.4867 126.212 108.252
94.1245 127.74 110.307
91.782 123.507 114.108
90.319 118.395 113.572
89.7879 114.701 109.443
90.3328 118.109 107.851
90.8116 121.268 106.388
92.6448 125.26 106.365
92.1284 124.21 104.63
94.9563 129.291 106.32
89.2839 116.497 105.899
90.9671 122.346 103.22
93.8417 127.498 102.968
84.4658 127.439 108.05
84.5321 125.701 105.848
84.9798 130.173 106.093
85.0322 123.955 103.941
84.193 121.06 105.609
84.3279 124.058 109.621
84.9552 129.084 110.01
85.703 134.495 106.088
86.1574 132.725 103.847
86.9913 130.706 102.133
85.8072 126.407 102.331
87.6394 128.98 100.721
85.4072 120.898 102.397
88.1693 134.947 101.928
89.9551 130.758 99.8817
87.9527 126.189 99.8116
96.1571 135.339 107.793
94.3146 137.594 108.138
96.407 138.023 105.546
92.0695 139.504 109.051
92.4542 135.971 110.973
94.9685 131.886 109.35
96.8126 132.585 106.959
98.8188 136.81 103.031
96.4857 140.294 103.51
93.5665 142.325 103.665
91.2788 142.225 107.305
89.9692 141.289 104.676
89.4906 139.466 110.443
95.8656 140.51 100.556
89.44 138.574 102.816
87.9016 138.048 105.827
86.9687 106.355 102.682
86.2735 104.807 106.378
87.5745 107.844 106.065
85.5317 106.764 110.198
84.8084 107.345 106.899
84.9881 106.762 99.7931
87.0022 109.298 100.911
88.1972 111.7 105.958
88.1641 110.715 108.278
84.0364 112.637 103.976
84.5301 109.701 105.164
84.4291 109.173 102.12
84.1842 111.404 108.001
83.6186 116.493 104.951
84.1014 116.182 102.677
84.7872 110.284 99.1282
92.0426 127.72 113.532
92.1792 132.018 112.509
93.6689 129.886 111.689
97.5563 132.121 104.52
99.7246 133.639 102.672
97.5159 131.015 102.845
87.3675 110.104 112.533
88.7865 114.192 113.35
88.389 111.946 110.972
88.113 114.626 104.242
88.4388 117.769 103.071
87.2901 113.043 102.184
87.3279 136.664 110.707
85.7549 132.931 110.505
86.497 136.254 108.32
90.8236 137.158 100.381
91.7711 134.602 98.7856
94.0546 137.801 99.3687
83.6021 118.017 107.258
83.6488 119.593 109.478
83.6838 115.492 109.141
85.144 114.098 99.4237
86.9167 119.624 101.553
85.0714 117.271 100.818
87.8923 128.706 115.63
86.7918 127.031 115.733
86.6961 129.465 115.047
86.149 125.427 115.113
86.8455 124.645 116.065
88.9689 127.811 115.436
88.9849 129.826 114.719
87.0953 131.918 113.893
86.2181 130.15 113.861
87.9641 124.056 116.415
88.9859 125.594 115.683
89.0111 123.361 115.908
90.0439 127.193 115.058
86.9015 122.313 116.307
89.0077 121.09 115.659
90.0009 123.037 115.233
89.1019 132.062 113.547
88.2901 133.379 113.978
89.3652 134.343 113.463
87.4319 134.163 113.088
90.0991 131.1 113.753
90.5999 135.536 112.621
89.6881 136.558 112.576
85.4867 128.428 113.667
85.6648 126.111 114.126
85.2001 126.617 113.081
85.5192 123.604 114.482
85.8238 130.634 112.707
84.8966 127.2 111.901
84.8255 124.873 112.423
85.3301 118.87 114.948
85.5573 116.785 114.637
84.9912 117.63 113.822
85.7085 114.638 114.043
86.4167 116.21 115.278
86.1543 120.683 115.685
85.3468 121.184 114.834
84.5299 118.528 112.893
84.5022 116.379 112.48
87.4517 117.495 115.843
87.0473 119.845 116.254
88.1881 119.317 116.054
87.5924 115.527 115.361
89.2131 119.197 115.283
85.0394 122.079 113.752
84.3974 120.637 112.905
84.5734 122.733 112.704
83.8686 119.501 111.937
84.5827 123.598 111.497
84.8546 114.264 111.992
85.4213 113.242 112.648
84.9703 111.987 111.481
86.0331 112.44 113.149
84.0535 115.361 111.281
84.4622 111.264 110.304
84.9064 109.742 110.842
95.66 130.949 99.3195
97.7086 131.993 98.9578
96.668 132.413 98.5326
99.3469 133.162 99.1487
98.2597 131.711 99.6834
94.1483 129.186 100.163
93.88 129.737 99.6879
95.4565 132.973 98.1405
96.8488 134.307 98.268
96.4556 130.608 100.631
94.3858 129.118 100.719
94.3504 128.569 101.337
92.6516 126.584 100.676
97.9941 131.23 100.866
93.7465 127.869 102.002
92.5692 126.061 101.67
93.2087 129.984 99.4429
93.8912 131.792 98.6862
92.2936 129.997 99.2928
93.9642 133.36 98.341
92.0434 127.469 99.9707
90.8328 128.014 99.4852
91.0293 129.598 99.3819
98.0921 135.62 98.4328
99.7225 135.038 98.7898
99.1479 136.876 99.2994
100.501 134.098 100.133
96.2868 136.118 98.562
98.2283 138.34 99.8582
99.5717 137.608 100.614
86.7271 117.221 100.773
89.0073 121.179 100.25
86.8459 117.651 100.583
91.076 125.176 100.177
91.036 124.364 100.551
86.8196 117.585 101.087
87.0198 115.094 100.296
86.4418 115.312 99.2447
87.5301 118.768 101.154
90.9289 124.102 101.074
88.8621 120.993 101.536
91.3863 123.992 101.526
87.8937 118.694 101.768
91.4452 123.072 102.083
87.5956 113.307 98.9325
87.1237 113.616 97.6679
87.0889 111.703 97.6205
86.0092 114.212 97.6343
87.5657 113.506 100.332
87.18 110.304 98.4262
85.9844 110.303 96.9948
89.0428 123.041 100.822
90.5599 125.574 100.047
90.1873 126.264 99.5946
87.9944 119.992 101.458
89.3371 126.224 99.354
92.9596 122.227 111.222
92.2163 121.481 110.182
91.9226 120.09 111.079
91.6677 120.802 109.069
92.6105 122.797 109.237
93.3623 124.392 111.207
92.707 123.364 112.31
91.1852 118.863 111.88
90.9717 118.069 110.84
93.392 124.941 109.092
93.7359 125.615 110.235
93.9285 126.976 109.315
93.6975 126.555 111.229
92.7253 124.154 108.248
94.0724 128.08 108.264
94.4144 128.815 109.286
92.0689 121.99 113.216
91.1741 119.722 112.877
91.0632 120.907 113.871
90.3718 117.205 112.555
92.3796 124.465 113.211
90.8839 122.336 114.633
90.2259 119.711 114.509
90.4901 117.125 109.757
90.8252 118.686 108.92
90.2944 116.548 108.701
90.9493 120.256 108.092
90.0438 115.666 110.529
89.6375 114.399 108.355
89.8673 116.071 107.593
91.7549 123.333 106.265
92.5439 124.891 105.399
91.1821 122.886 105.56
93.1655 126.554 104.502
93.4486 127.024 105.458
92.1955 123.71 107.287
91.347 121.754 107.216
90.3086 120.569 105.624
90.9287 121.778 104.742
93.6497 127.446 106.342
93.1606 125.701 107.259
93.8602 127.759 107.232
94.7663 128.967 105.505
94.8628 129.506 107.259
90.3686 119.737 107.044
89.9858 118.928 106.113
89.8037 117.558 106.841
89.2756 117.911 105.303
89.2753 115.244 106.66
91.7457 123.378 103.881
92.8213 125.56 103.766
92.4154 124.794 103.198
94.1315 127.923 103.738
90.4623 121.082 103.955
91.7263 123.992 102.535
93.0575 126.556 102.469
84.363 126.606 106.925
84.997 127.935 105.996
84.6631 128.861 107.092
85.2711 129.403 105.066
85.0816 127.103 104.908
84.2776 124.313 106.775
84.3263 125.148 107.8
84.7747 129.787 108.174
84.9924 131.126 107.144
84.8506 124.851 104.856
84.2425 123.428 105.729
84.5084 122.548 104.82
84.0152 121.91 106.634
85.209 126.195 103.833
84.8522 121.811 103.833
84.3542 120.268 104.685
84.3271 125.732 108.883
84.5991 128.321 108.995
84.5521 126.712 109.772
84.9766 130.669 109.24
83.9894 123.396 108.664
84.4234 124.843 110.521
84.8185 127.309 110.794
85.3185 132.284 106.083
85.5896 131.382 105.083
85.7614 133.346 104.944
85.7819 130.757 103.965
85.2786 133.407 107.17
86.1568 135.287 104.929
86.4924 134.442 103.804
86.4063 128.591 102.102
86.5506 127.358 101.383
87.2267 129.824 101.264
87.0344 126.601 101.048
86.2331 125.086 101.722
85.6388 127.467 103.097
85.9933 129.641 102.993
88.0135 131.931 101.377
88.646 131.277 100.821
85.4336 123.539 102.082
85.375 124.938 102.909
85.2969 122.63 103.039
85.7074 121.775 101.626
85.0504 120.167 103.132
86.6764 131.753 102.925
87.5416 132.921 102.04
86.9245 133.637 102.749
88.6573 134.018 101.157
87.6399 135.613 102.886
88.7734 129.939 100.256
87.9208 127.832 100.257
88.8802 128.403 99.8302
87.2104 125.385 100.773
89.7395 132.119 100.104
90.0264 129.188 99.5776
88.9229 127.076 99.528
95.2291 136.361 108.068
95.3437 137.831 106.879
96.3747 136.682 106.775
95.3113 139.352 105.84
94.2457 139.253 107.281
94.0784 135.969 109.25
94.9184 134.801 109.018
97.1576 135.249 106.403
97.3703 136.608 105.339
93.2658 138.661 108.567
93.2644 136.983 109.527
92.1691 137.697 109.84
93.264 135.145 110.51
93.0607 140.297 107.695
91.236 138.503 110.462
91.5829 136.772 111.381
95.6959 133.743 108.681
96.6696 133.957 107.455
95.8707 132.339 108.096
97.6675 133.843 106.101
94.5876 132.932 109.936
95.031 130.647 108.926
95.6572 130.976 107.636
97.5577 137.561 104.347
96.5932 139.248 104.63
97.389 138.372 103.255
95.3847 140.708 104.955
98.7908 136.054 104.025
98.89 137.855 102.043
97.4699 139.402 102.189
92.4957 142.542 105.405
90.5088 142.11 106.021
91.691 142.234 104.096
89.1812 140.733 106.326
89.6377 141.312 107.671
93.0016 141.785 106.791
94.019 141.683 104.906
92.8711 141.626 102.366
91.1314 141.022 103.053
90.4389 140.999 108.744
91.7908 141.027 108.122
90.7736 139.805 109.618
88.9559 139.881 109.352
90.0258 138.344 111.209
95.1664 141.363 103.323
94.7964 141.324 102.013
96.2765 140.841 101.938
93.967 140.634 100.838
97.3214 139.565 100.74
89.7957 140.074 103.628
88.8919 139.777 105.249
88.6887 138.552 104.353
88.1653 139.084 106.737
90.8911 139.532 102.183
88.2843 137.196 103.413
87.4107 136.995 104.846
86.7091 105.314 104.211
87.2163 106.003 106.225
87.3597 106.88 104.487
87.6676 107.462 107.665
87.1553 105.812 107.979
85.3191 105.19 104.516
85.8881 105.341 102.407
87.3983 107.993 103.18
87.5128 108.701 104.611
85.8621 105.755 108.375
85.0843 105.603 106.683
85.0359 106.889 108.381
84.703 106.508 105.187
86.8625 106.537 110.2
84.9454 108.006 110.02
84.6465 108.397 108.433
86.3535 106.173 100.999
87.0533 107.826 101.794
86.5872 107.504 99.8331
87.3524 109.604 102.473
85.0451 106.298 101.308
85.6972 107.735 98.2262
86.8045 109.305 99.4497
87.7746 109.593 105.956
87.7152 109.2 107.303
88.3738 110.952 106.974
87.8997 108.995 108.776
87.8527 110.863 104.823
88.7712 113.036 106.723
88.7608 112.491 107.926
84.2852 111.02 104.538
84.5305 109.138 103.627
84.2657 110.79 103.028
84.6411 107.556 102.643
84.652 107.714 104.377
84.1839 111.567 105.89
84.0559 113.019 105.281
84.3435 112.522 102.636
84.4258 110.856 101.59
84.5188 108.513 106.057
84.3777 110.447 106.657
84.5374 109.336 107.554
84.027 112.515 107.19
84.6872 110.509 108.82
83.8119 114.518 104.523
83.8551 114.266 103.137
83.9361 116.235 103.766
84.1454 114.366 102.023
83.6656 115.096 105.842
83.8044 118.134 104.354
84.1326 118.062 103.331
84.4969 109.669 100.552
84.562 107.785 101.129
84.4844 108.104 99.2304
84.6626 111.45 100.195
84.7906 109.326 97.7031
92.1271 129.826 113.186
92.9898 130.956 112.173
92.8413 128.805 112.637
93.9793 132.018 111.245
93.1006 133.176 111.398
91.1962 130.621 113.516
91.132 128.641 114.012
92.6829 126.579 112.927
93.5017 127.72 112.031
92.2783 133.941 111.797
91.2922 132.871 113.008
91.5305 134.964 112.191
91.0475 126.646 114.609
91.7265 125.737 113.878
90.8158 124.503 114.61
94.0842 128.759 111.044
94.5549 130.933 110.702
94.6513 129.858 109.992
98.5575 132.988 103.658
99.3517 132.097 102.697
97.4875 131.446 103.665
98.9731 131.506 101.765
100.233 132.818 101.53
99.1133 134.566 103.967
98.4761 133.602 104.989
96.0787 130.498 104.616
95.8237 130.036 103.851
100.52 134.509 101.313
99.7908 135.374 102.579
100.207 136.456 101.543
97.3554 132.232 105.711
96.1545 130.727 105.539
96.0453 130.981 106.527
95.6531 129.703 102.845
96.8329 130.573 101.88
94.7415 128.952 102.273
88.2305 111.956 112.903
88.6117 112.964 112.199
88.0756 110.7 111.624
89.0805 114.184 111.497
89.4922 115.037 112.405
87.7113 113.862 114.019
87.0497 112.014 113.662
87.5189 108.614 111.011
87.9358 109.663 110.29
89.4428 116.236 113.466
88.8944 115.471 114.692
89.3057 117.71 114.354
86.4062 110.07 112.611
86.6081 108.015 111.447
85.4857 108.608 111.754
88.3555 110.952 109.631
88.9425 113.061 110.211
88.842 112.608 109.052
88.3924 116.159 103.616
87.9873 115.417 102.452
87.6996 113.828 103.246
87.4709 114.476 101.633
87.8124 117.005 102.112
89.0396 118.609 104.037
88.8177 117.126 104.481
87.5644 112.343 104.01
87.3339 111.469 102.953
89.1278 119.578 102.477
89.6635 119.954 103.076
90.4769 121.601 102.511
88.8264 115.45 105.039
88.0815 113.108 105.047
88.7034 114.088 105.82
87.2199 111.063 101.59
87.2671 112.611 101.035
87.641 110.781 100.153
86.4231 134.819 110.767
86.1521 134.65 109.506
87.0292 136.603 109.498
85.7117 134.238 108.324
85.5156 132.7 109.322
86.2047 132.828 111.672
86.9215 134.687 111.873
87.9377 138.526 109.306
87.4718 138.142 108.114
85.1931 131.057 110.414
85.6758 130.986 111.544
85.1725 129.169 111.158
87.5288 136.22 112.167
88.2841 138.059 110.681
88.886 137.359 111.682
87.1185 137.19 107.048
85.8474 135.373 107.201
86.3522 136.35 105.957
91.266 135.845 99.4816
92.9193 136.279 98.7731
92.3879 137.541 99.8085
94.5531 136.377 98.4233
93.3799 134.824 98.1812
90.4218 134.029 99.6159
89.9894 135.286 100.338
91.6445 138.806 100.739
93.2871 139.199 100.216
92.253 133.113 98.7166
90.9585 132.614 99.6024
91.182 131.097 99.5565
89.4753 136.079 101.192
90.3145 137.893 101.595
88.9695 136.861 102.219
94.9235 139.263 99.8901
95.6908 137.639 99.0829
96.5577 138.793 99.7525
83.7359 118.928 108.338
83.737 117.543 109.388
83.297 116.667 108.264
83.6579 116.444 110.418
83.8265 118.567 110.665
83.7354 121.118 108.489
83.7634 120.404 107.489
83.4928 115.866 107.025
83.7277 114.618 107.808
83.7185 120.45 110.578
83.8848 121.847 109.577
84.1548 122.628 110.551
83.8307 119.463 106.337
83.431 117.195 106.174
83.9989 118.695 105.362
84.2366 113.492 108.475
83.9418 114.385 109.942
84.3712 112.414 109.426
86.1988 116.744 100.122
86.1212 118.327 100.969
85.0774 115.61 100.166
86.1164 120.2 101.382
86.6772 121.742 101.556
87.2601 117.957 101.182
86.0591 115.06 99.4774
84.6829 113.092 100.168
84.25 114.79 100.827
87.1503 123.201 100.066
87.6927 121.222 100.817
87.9184 124.233 99.1677
85.8419 113.214 98.1338
84.8153 112.304 98.6518
85.0296 111.422 97.5315
84.4207 116.433 101.613
85.4854 118.97 101.692
84.7258 118.386 102.404
POLYGONS 1280  5120
3 164 162 163
3 163 44 164
3 162 43 163
3 164 42 162
3 166 165 163
3 163 43 166
3 165 44 163
3 166 14 165
3 168 167 162
3 162 42 168
3 167 43 162
3 168 13 167
3 170 169 164
3 164 44 170
3 169 42 164
3 170 12 169
3 173 171 172
3 172 46 173
3 171 43 172
3 173 45 171
3 167 174 172
3 172 43 167
3 174 46 172
3 167 13 174
3 175 166 171
3 171 45 175
3 166 43 171
3 175 14 166
3 177 176 173
3 173 46 177
3 176 45 173
3 177 4 176
3 180 178 179
3 179 48 180
3 178 42 179
3 180 47 178
3 169 181 179
3 179 42 169
3 181 48 179
3 169 12 181
3 182 168 178
3 178 47 182
3 168 42 178
3 182 13 168
3 184 183 180
3 180 48 184
3 183 47 180
3 184 8 183
3 187 185 186
3 186 50 187
3 185 44 186
3 187 49 185
3 165 188 186
3 186 44 165
3 188 50 186
3 165 14 188
3 189 170 185
3 185 49 189
3 170 44 185
3 189 12 170
3 191 190 187
3 187 50 191
3 190 49 187
3 191 7 190
3 194 192 193
3 193 53 194
3 192 52 193
3 194 51 192
3 196 195 193
3 193 52 196
3 195 53 193
3 196 16 195
3 198 197 192
3 192 51 198
3 197 52 192
3 198 14 197
3 200 199 194
3 194 53 200
3 199 51 194
3 200 15 199
3 203 201 202
3 202 45 203
3 201 52 202
3 203 54 201
3 197 175 202
3 202 52 197
3 175 45 202
3 197 14 175
3 204 196 201
3 201 54 204
3 196 52 201
3 204 16 196
3 176 205 203
3 203 45 176
3 205 54 203
3 176 4 205
3 208 206 207
3 207 55 208
3 206 51 207
3 208 50 206
3 199 209 207
3 207 51 199
3 209 55 207
3 199 15 209
3 188 198 206
3 206 50 188
3 198 51 206
3 188 14 198
3 210 191 208
3 208 55 210
3 191 50 208
3 210 7 191
3 213 211 212
3 212 57 213
3 211 53 212
3 213 56 211
3 195 214 212
3 212 53 195
3 214 57 212
3 195 16 214
3 215 200 211
3 211 56 215
3 200 53 211
3 215 15 200
3 217 216 213
3 213 57 217
3 216 56 213
3 217 9 216
3 220 218 219
3 219 60 220
3 218 59 219
3 220 58 218
3 222 221 219
3 219 59 222
3 221 60 219
3 222 19 221
3 224 223 218
3 218 58 224
3 223 59 218
3 224 18 223
3 226 225 220
3 220 60 226
3 225 58 220
3 226 17 225
3 229 227 228
3 228 62 229
3 227 59 228
3 229 61 227
3 223 230 228
3 228 59 223
3 230 62 228
3 223 18 230
3 231 222 227
3 227 61 231
3 222 59 227
3 231 19 222
3 233 232 229
3 229 62 233
3 232 61 229
3 233 5 232
3 236 234 235
3 235 64 236
3 234 58 235
3 236 63 234
3 225 237 235
3 235 58 225
3 237 64 235
3 225 17 237
3 238 224 234
3 234 63 238
3 224 58 234
3 238 18 224
3 240 239 236
3 236 64 240
3 239 63 236
3 240 6 239
3 243 241 242
3 242 66 243
3 241 60 242
3 243 65 241
3 221 244 242
3 242 60 221
3 244 66 242
3 221 19 244
3 245 226 241
3 241 65 245
3 226 60 241
3 245 17 226
3 247 246 243
3 243 66 247
3 246 65 243
3 247 11 246
3 250 248 249
3 249 69 250
3 248 68 249
3 250 67 248
3 252 251 249
3 249 68 252
3 251 69 249
3 252 18 251
3 254 253 248
3 248 67 254
3 253 68 248
3 254 21 253
3 256 255 250
3 250 69 256
3 255 67 250
3 256 20 255
3 259 257 258
3 258 70 259
3 257 68 258
3 259 62 257
3 253 260 258
3 258 68 253
3 260 70 258
3 253 21 260
3 230 252 257
3 257 62 230
3 252 68 257
3 230 18 252
3 261 233 259
3 259 70 261
3 233 62 259
3 261 5 233
3 264 262 263
3 263 72 264
3 262 67 263
3 264 71 262
3 255 265 263
3 263 67 255
3 265 72 263
3 255 20 265
3 266 254 262
3 262 71 266
3 254 67 262
3 266 21 254
3 268 267 264
3 264 72 268
3 267 71 264
3 268 10 267
3 271 269 270
3 270 63 271
3 269 69 270
3 271 73 269
3 251 238 270
3 270 69 251
3 238 63 270
3 251 18 238
3 272 256 269
3 269 73 272
3 256 69 269
3 272 20 256
3 239 273 271
3 271 63 239
3 273 73 271
3 239 6 273
3 276 274 275
3 275 76 276
3 274 75 275
3 276 74 274
3 278 277 275
3 275 75 278
3 277 76 275
3 278 24 277
3 280 279 274
3 274 74 280
3 279 75 274
3 280 23 279
3 282 281 276
3 276 76 282
3 281 74 276
3 282 22 281
3 285 283 284
3 284 78 285
3 283 75 284
3 285 77 283
3 279 286 284
3 284 75 279
3 286 78 284
3 279 23 286
3 287 278 283
3 283 77 287
3 278 75 283
3 287 24 278
3 289 288 285
3 285 78 289
3 288 77 285
3 289 0 288
3 292 290 291
3 291 80 292
3 290 74 291
3 292 79 290
3 281 293 291
3 291 74 281
3 293 80 291
3 281 22 293
3 294 280 290
3 290 79 294
3 280 74 290
3 294 23 280
3 296 295 292
3 292 80 296
3 295 79 292
3 296 4 295
3 299 297 298
3 298 82 299
3 297 76 298
3 299 81 297
3 277 300 298
3 298 76 277
3 300 82 298
3 277 24 300
3 301 282 297
3 297 81 301
3 282 76 297
3 301 22 282
3 303 302 299
3 299 82 303
3 302 81 299
3 303 3 302
3 306 304 305
3 305 85 306
3 304 84 305
3 306 83 304
3 308 307 305
3 305 84 308
3 307 85 305
3 308 26 307
3 310 309 304
3 304 83 310
3 309 84 304
3 310 24 309
3 312 311 306
3 306 85 312
3 311 83 306
3 312 25 311
3 315 313 314
3 314 77 315
3 313 84 314
3 315 86 313
3 309 287 314
3 314 84 309
3 287 77 314
3 309 24 287
3 316 308 313
3 313 86 316
3 308 84 313
3 316 26 308
3 288 317 315
3 315 77 288
3 317 86 315
3 288 0 317
3 320 318 319
3 319 87 320
3 318 83 319
3 320 82 318
3 311 321 319
3 319 83 311
3 321 87 319
3 311 25 321
3 300 310 318
3 318 82 300
3 310 83 318
3 300 24 310
3 322 303 320
3 320 87 322
3 303 82 320
3 322 3 303
3 325 323 324
3 324 89 325
3 323 85 324
3 325 88 323
3 307 326 324
3 324 85 307
3 326 89 324
3 307 26 326
3 327 312 323
3 323 88 327
3 312 85 323
3 327 25 312
3 329 328 325
3 325 89 329
3 328 88 325
3 329 5 328
3 332 330 331
3 331 92 332
3 330 91 331
3 332 90 330
3 334 333 331
3 331 91 334
3 333 92 331
3 334 29 333
3 336 335 330
3 330 90 336
3 335 91 330
3 336 28 335
3 338 337 332
3 332 92 338
3 337 90 332
3 338 27 337
3 341 339 340
3 340 94 341
3 339 91 340
3 341 93 339
3 335 342 340
3 340 91 335
3 342 94 340
3 335 28 342
3 343 334 339
3 339 93 343
3 334 91 339
3 343 29 334
3 345 344 341
3 341 94 345
3 344 93 341
3 345 2 344
3 348 346 347
3 347 96 348
3 346 90 347
3 348 95 346
3 337 349 347
3 347 90 337
3 349 96 347
3 337 27 349
3 350 336 346
3 346 95 350
3 336 90 346
3 350 28 336
3 352 351 348
3 348 96 352
3 351 95 348
3 352 7 351
3 355 353 354
3 354 98 355
3 353 92 354
3 355 97 353
3 333 356 354
3 354 92 333
3 356 98 354
3 333 29 356
3 357 338 353
3 353 97 357
3 338 92 353
3 357 27 338
3 359 358 355
3 355 98 359
3 358 97 355
3 359 1 358
3 362 360 361
3 361 101 362
3 360 100 361
3 362 99 360
3 364 363 361
3 361 100 364
3 363 101 361
3 364 31 363
3 366 365 360
3 360 99 366
3 365 100 360
3 366 29 365
3 368 367 362
3 362 101 368
3 367 99 362
3 368 30 367
3 371 369 370
3 370 93 371
3 369 100 370
3 371 102 369
3 365 343 370
3 370 100 365
3 343 93 370
3 365 29 343
3 372 364 369
3 369 102 372
3 364 100 369
3 372 31 364
3 344 373 371
3 371 93 344
3 373 102 371
3 344 2 373
3 376 374 375
3 375 103 376
3 374 99 375
3 376 98 374
3 367 377 375
3 375 99 367
3 377 103 375
3 367 30 377
3 356 366 374
3 374 98 356
3 366 99 374
3 356 29 366
3 378 359 376
3 376 103 378
3 359 98 376
3 378 1 359
3 381 379 380
3 380 105 381
3 379 101 380
3 381 104 379
3 363 382 380
3 380 101 363
3 382 105 380
3 363 31 382
3 383 368 379
3 379 104 383
3 368 101 379
3 383 30 368
3 385 384 381
3 381 105 385
3 384 104 381
3 385 6 384
3 388 386 387
3 387 108 388
3 386 107 387
3 388 106 386
3 390 389 387
3 387 107 390
3 389 108 387
3 390 34 389
3 392 391 386
3 386 106 392
3 391 107 386
3 392 33 391
3 394 393 388
3 388 108 394
3 393 106 388
3 394 32 393
3 397 395 396
3 396 110 397
3 395 107 396
3 397 109 395
3 391 398 396
3 396 107 391
3 398 110 396
3 391 33 398
3 399 390 395
3 395 109 399
3 390 107 395
3 399 34 390
3 401 400 397
3 397 110 401
3 400 109 397
3 401 8 400
3 404 402 403
3 403 112 404
3 402 106 403
3 404 111 402
3 393 405 403
3 403 106 393
3 405 112 403
3 393 32 405
3 406 392 402
3 402 111 406
3 392 106 402
3 406 33 392
3 408 407 404
3 404 112 408
3 407 111 404
3 408 0 407
3 411 409 410
3 410 114 411
3 409 108 410
3 411 113 409
3 389 412 410
3 410 108 389
3 412 114 410
3 389 34 412
3 413 394 409
3 409 113 413
3 394 108 409
3 413 32 394
3 415 414 411
3 411 114 415
3 414 113 411
3 415 11 414
3 418 416 417
3 417 117 418
3 416 116 417
3 418 115 416
3 420 419 417
3 417 116 420
3 419 117 417
3 420 36 419
3 422 421 416
3 416 115 422
3 421 116 416
3 422 34 421
3 424 423 418
3 418 117 424
3 423 115 418
3 424 35 423
3 427 425 426
3 426 109 427
3 425 116 426
3 427 118 425
3 421 399 426
3 426 116 421
3 399 109 426
3 421 34 399
3 428 420 425
3 425 118 428
3 420 116 425
3 428 36 420
3 400 429 427
3 427 109 400
3 429 118 427
3 400 8 429
3 432 430 431
3 431 119 432
3 430 115 431
3 432 114 430
3 423 433 431
3 431 115 423
3 433 119 431
3 423 35 433
3 412 422 430
3 430 114 412
3 422 115 430
3 412 34 422
3 434 415 432
3 432 119 434
3 415 114 432
3 434 11 415
3 437 435 436
3 436 121 437
3 435 117 436
3 437 120 435
3 419 438 436
3 436 117 419
3 438 121 436
3 419 36 438
3 439 424 435
3 435 120 439
3 424 117 435
3 439 35 424
3 441 440 437
3 437 121 441
3 440 120 437
3 441 1 440
3 444 442 443
3 443 124 444
3 442 123 443
3 444 122 442
3 446 445 443
3 443 123 446
3 445 124 443
3 446 39 445
3 448 447 442
3 442 122 448
3 447 123 442
3 448 38 447
3 450 449 444
3 444 124 450
3 449 122 444
3 450 37 449
3 453 451 452
3 452 126 453
3 451 123 452
3 453 125 451
3 447 454 452
3 452 123 447
3 454 126 452
3 447 38 454
3 455 446 451
3 451 125 455
3 446 123 451
3 455 39 446
3 457 456 453
3 453 126 457
3 456 125 453
3 457 9 456
3 460 458 459
3 459 128 460
3 458 122 459
3 460 127 458
3 449 461 459
3 459 122 449
3 461 128 459
3 449 37 461
3 462 448 458
3 458 127 462
3 448 122 458
3 462 38 448
3 464 463 460
3 460 128 464
3 463 127 460
3 464 10 463
3 467 465 466
3 466 130 467
3 465 124 466
3 467 129 465
3 445 468 466
3 466 124 445
3 468 130 466
3 445 39 468
3 469 450 465
3 465 129 469
3 450 124 465
3 469 37 450
3 471 470 467
3 467 130 471
3 470 129 467
3 471 3 470
3 474 472 473
3 473 133 474
3 472 132 473
3 474 131 472
3 476 475 473
3 473 132 476
3 475 133 473
3 476 38 475
3 478 477 472
3 472 131 478
3 477 132 472
3 478 41 477
3 480 479 474
3 474 133 480
3 479 131 474
3 480 40 479
3 483 481 482
3 482 134 483
3 481 132 482
3 483 126 481
3 477 484 482
3 482 132 477
3 484 134 482
3 477 41 484
3 454 476 481
3 481 126 454
3 476 132 481
3 454 38 476
3 485 457 483
3 483 134 485
3 457 126 483
3 485 9 457
3 488 486 487
3 487 136 488
3 486 131 487
3 488 135 486
3 479 489 487
3 487 131 479
3 489 136 487
3 479 40 489
3 490 478 486
3 486 135 490
3 478 131 486
3 490 41 478
3 492 491 488
3 488 136 492
3 491 135 488
3 492 2 491
3 495 493 494
3 494 127 495
3 493 133 494
3 495 137 493
3 475 462 494
3 494 133 475
3 462 127 494
3 475 38 462
3 496 480 493
3 493 137 496
3 480 133 493
3 496 40 480
3 463 497 495
3 495 127 463
3 497 137 495
3 463 10 497
3 500 498 499
3 499 140 500
3 498 139 499
3 500 138 498
3 502 501 499
3 499 139 502
3 501 140 499
3 502 33 501
3 504 503 498
3 498 138 504
3 503 139 498
3 504 13 503
3 506 505 500
3 500 140 506
3 505 138 500
3 506 23 505
3 509 507 508
3 508 47 509
3 507 139 508
3 509 110 507
3 503 182 508
3 508 139 503
3 182 47 508
3 503 13 182
3 398 502 507
3 507 110 398
3 502 139 507
3 398 33 502
3 183 401 509
3 509 47 183
3 401 110 509
3 183 8 401
3 512 510 511
3 511 79 512
3 510 138 511
3 512 46 510
3 505 294 511
3 511 138 505
3 294 79 511
3 505 23 294
3 174 504 510
3 510 46 174
3 504 138 510
3 174 13 504
3 295 177 512
3 512 79 295
3 177 46 512
3 295 4 177
3 515 513 514
3 514 111 515
3 513 140 514
3 515 78 513
3 501 406 514
3 514 140 501
3 406 111 514
3 501 33 406
3 286 506 513
3 513 78 286
3 506 140 513
3 286 23 506
3 407 289 515
3 515 111 407
3 289 78 515
3 407 0 289
3 518 516 517
3 517 143 518
3 516 142 517
3 518 141 516
3 520 519 517
3 517 142 520
3 519 143 517
3 520 19 519
3 522 521 516
3 516 141 522
3 521 142 516
3 522 32 521
3 524 523 518
3 518 143 524
3 523 141 518
3 524 26 523
3 527 525 526
3 526 113 527
3 525 142 526
3 527 66 525
3 521 413 526
3 526 142 521
3 413 113 526
3 521 32 413
3 244 520 525
3 525 66 244
3 520 142 525
3 244 19 520
3 414 247 527
3 527 113 414
3 247 66 527
3 414 11 247
3 530 528 529
3 529 86 530
3 528 141 529
3 530 112 528
3 523 316 529
3 529 141 523
3 316 86 529
3 523 26 316
3 405 522 528
3 528 112 405
3 522 141 528
3 405 32 522
3 317 408 530
3 530 86 317
3 408 112 530
3 317 0 408
3 533 531 532
3 532 61 533
3 531 143 532
3 533 89 531
3 519 231 532
3 532 143 519
3 231 61 532
3 519 19 231
3 326 524 531
3 531 89 326
3 524 143 531
3 326 26 524
3 232 329 533
3 533 61 232
3 329 89 533
3 232 5 329
3 536 534 535
3 535 146 536
3 534 145 535
3 536 144 534
3 538 537 535
3 535 145 538
3 537 146 535
3 538 22 537
3 540 539 534
3 534 144 540
3 539 145 534
3 540 16 539
3 542 541 536
3 536 146 542
3 541 144 536
3 542 39 541
3 545 543 544
3 544 54 545
3 543 145 544
3 545 80 543
3 539 204 544
3 544 145 539
3 204 54 544
3 539 16 204
3 293 538 543
3 543 80 293
3 538 145 543
3 293 22 538
3 205 296 545
3 545 54 205
3 296 80 545
3 205 4 296
3 548 546 547
3 547 125 548
3 546 144 547
3 548 57 546
3 541 455 547
3 547 144 541
3 455 125 547
3 541 39 455
3 214 540 546
3 546 57 214
3 540 144 546
3 214 16 540
3 456 217 548
3 548 125 456
3 217 57 548
3 456 9 217
3 551 549 550
3 550 81 551
3 549 146 550
3 551 130 549
3 537 301 550
3 550 146 537
3 301 81 550
3 537 22 301
3 468 542 549
3 549 130 468
3 542 146 549
3 468 39 542
3 302 471 551
3 551 81 302
3 471 130 551
3 302 3 471
3 554 552 553
3 553 149 554
3 552 148 553
3 554 147 552
3 556 555 553
3 553 148 556
3 555 149 553
3 556 21 555
3 558 557 552
3 552 147 558
3 557 148 552
3 558 25 557
3 560 559 554
3 554 149 560
3 559 147 554
3 560 37 559
3 563 561 562
3 562 88 563
3 561 148 562
3 563 70 561
3 557 327 562
3 562 148 557
3 327 88 562
3 557 25 327
3 260 556 561
3 561 70 260
3 556 148 561
3 260 21 556
3 328 261 563
3 563 88 328
3 261 70 563
3 328 5 261
3 566 564 565
3 565 129 566
3 564 147 565
3 566 87 564
3 559 469 565
3 565 147 559
3 469 129 565
3 559 37 469
3 321 558 564
3 564 87 321
3 558 147 564
3 321 25 558
3 470 322 566
3 566 129 470
3 322 87 566
3 470 3 322
3 569 567 568
3 568 71 569
3 567 149 568
3 569 128 567
3 555 266 568
3 568 149 555
3 266 71 568
3 555 21 266
3 461 560 567
3 567 128 461
3 560 149 567
3 461 37 560
3 267 464 569
3 569 71 267
3 464 128 569
3 267 10 464
3 572 570 571
3 571 152 572
3 570 151 571
3 572 150 570
3 574 573 571
3 571 151 574
3 573 152 571
3 574 27 573
3 576 575 570
3 570 150 576
3 575 151 570
3 576 12 575
3 578 577 572
3 572 152 578
3 577 150 572
3 578 36 577
3 581 579 580
3 580 49 581
3 579 151 580
3 581 96 579
3 575 189 580
3 580 151 575
3 189 49 580
3 575 12 189
3 349 574 579
3 579 96 349
3 574 151 579
3 349 27 574
3 190 352 581
3 581 49 190
3 352 96 581
3 190 7 352
3 584 582 583
3 583 118 584
3 582 150 583
3 584 48 582
3 577 428 583
3 583 150 577
3 428 118 583
3 577 36 428
3 181 576 582
3 582 48 181
3 576 150 582
3 181 12 576
3 429 184 584
3 584 118 429
3 184 48 584
3 429 8 184
3 587 585 586
3 586 97 587
3 585 152 586
3 587 121 585
3 573 357 586
3 586 152 573
3 357 97 586
3 573 27 357
3 438 578 585
3 585 121 438
3 578 152 585
3 438 36 578
3 358 441 587
3 587 97 358
3 441 121 587
3 358 1 441
3 590 588 589
3 589 155 590
3 588 154 589
3 590 153 588
3 592 591 589
3 589 154 592
3 591 155 589
3 592 17 591
3 594 593 588
3 588 153 594
3 593 154 588
3 594 30 593
3 596 595 590
3 590 155 596
3 595 153 590
3 596 35 595
3 599 597 598
3 598 104 599
3 597 154 598
3 599 64 597
3 593 383 598
3 598 154 593
3 383 104 598
3 593 30 383
3 237 592 597
3 597 64 237
3 592 154 597
3 237 17 592
3 384 240 599
3 599 104 384
3 240 64 599
3 384 6 240
3 602 600 601
3 601 120 602
3 600 153 601
3 602 103 600
3 595 439 601
3 601 153 595
3 439 120 601
3 595 35 439
3 377 594 600
3 600 103 377
3 594 153 600
3 377 30 594
3 440 378 602
3 602 120 440
3 378 103 602
3 440 1 378
3 605 603 604
3 604 65 605
3 603 155 604
3 605 119 603
3 591 245 604
3 604 155 591
3 245 65 604
3 591 17 245
3 433 596 603
3 603 119 433
3 596 155 603
3 433 35 596
3 246 434 605
3 605 65 246
3 434 119 605
3 246 11 434
3 608 606 607
3 607 158 608
3 606 157 607
3 608 156 606
3 610 609 607
3 607 157 610
3 609 158 607
3 610 15 609
3 612 611 606
3 606 156 612
3 611 157 606
3 612 28 611
3 614 613 608
3 608 158 614
3 613 156 608
3 614 41 613
3 617 615 616
3 616 95 617
3 615 157 616
3 617 55 615
3 611 350 616
3 616 157 611
3 350 95 616
3 611 28 350
3 209 610 615
3 615 55 209
3 610 157 615
3 209 15 610
3 351 210 617
3 617 95 351
3 210 55 617
3 351 7 210
3 620 618 619
3 619 135 620
3 618 156 619
3 620 94 618
3 613 490 619
3 619 156 613
3 490 135 619
3 613 41 490
3 342 612 618
3 618 94 342
3 612 156 618
3 342 28 612
3 491 345 620
3 620 135 491
3 345 94 620
3 491 2 345
3 623 621 622
3 622 56 623
3 621 158 622
3 623 134 621
3 609 215 622
3 622 158 609
3 215 56 622
3 609 15 215
3 484 614 621
3 621 134 484
3 614 158 621
3 484 41 614
3 216 485 623
3 623 56 216
3 485 134 623
3 216 9 485
3 626 624 625
3 625 161 626
3 624 160 625
3 626 159 624
3 628 627 625
3 625 160 628
3 627 161 625
3 628 31 627
3 630 629 624
3 624 159 630
3 629 160 624
3 630 20 629
3 632 631 626
3 626 161 632
3 631 159 626
3 632 40 631
3 635 633 634
3 634 73 635
3 633 160 634
3 635 105 633
3 629 272 634
3 634 160 629
3 272 73 634
3 629 20 272
3 382 628 633
3 633 105 382
3 628 160 633
3 382 31 628
3 273 385 635
3 635 73 273
3 385 105 635
3 273 6 385
3 638 636 637
3 637 137 638
3 636 159 637
3 638 72 636
3 631 496 637
3 637 159 631
3 496 137 637
3 631 40 496
3 265 630 636
3 636 72 265
3 630 159 636
3 265 20 630
3 497 268 638
3 638 137 497
3 268 72 638
3 497 10 268
3 641 639 640
3 640 102 641
3 639 161 640
3 641 136 639
3 627 372 640
3 640 161 627
3 372 102 640
3 627 31 372
3 489 632 639
3 639 136 489
3 632 161 639
3 489 40 632
3 373 492 641
3 641 102 373
3 492 136 641
3 373 2 492
