# vtk DataFile Version 3.0
this file was written using fslvtkio
ASCII
DATASET POLYDATA
POINTS 970 float
124.663 147.193 103.678
123.37 146.719 104.234
124.123 146.228 104.099
124.994 145.966 103.935
125.967 147.057 103.65
126.241 145.693 104.172
127.092 146.631 104.312
127.408 145.618 104.998
124.158 148.131 104.178
123.379 148.184 104.881
125.398 148.407 104.264
126.742 148.024 104.394
127.717 146.991 105.322
124.501 149.278 105.241
126.059 149.376 105.094
127.156 148.299 105.515
121.123 137.092 103.099
119.609 136.815 103.506
120.351 135.476 102.915
121.824 135.706 103.007
122.297 137.556 103.325
122.646 136.422 103.876
122.993 137.875 104.201
122.604 136.667 105.061
120.725 138.189 104.031
119.402 137.926 104.524
121.966 138.845 103.767
123.016 139.172 103.842
123.321 137.849 105.23
123.734 139.262 104.795
123.74 138.651 105.957
120.56 139.21 104.737
119.439 138.718 105.071
121.843 139.956 104.439
122.971 140.545 104.22
123.924 140.643 104.634
124.362 140.049 105.755
119.698 139.599 105.362
121.436 140.638 105.002
120.612 140.685 105.441
122.845 141.769 104.661
124.094 142.146 104.51
124.757 141.42 105.283
121.522 141.835 105.491
122.831 142.948 105.134
123.905 143.66 104.551
123.276 144.265 105.353
125.201 142.553 105.177
125.075 143.644 104.611
126.006 143.267 105.614
126.456 144.013 105.186
126.663 143.828 106.203
123.913 145.256 104.858
122.814 145.042 105.714
124.931 144.803 104.661
126.354 144.688 104.686
127.474 144.721 105.891
122.74 145.967 105.127
121.698 146.35 105.872
121.818 145.251 106.379
128.259 146.04 106.205
122.353 147.354 105.137
121.748 147.613 106.298
128.111 147.772 106.465
123.019 148.653 106.031
123.858 149.617 106.579
125.41 150.039 106.155
126.938 149.445 106.238
118.594 133.772 103.59
117.499 134.292 104.166
117.727 132.776 104.514
119.252 132.767 104.111
119.843 134.189 103.183
120.492 133.468 104.146
118.676 135.482 103.49
117.342 135.688 104.535
121.273 134.503 103.622
122.104 135.381 104.523
122.276 136.059 105.991
118.3 136.971 104.244
117.004 137.041 105.154
123.082 137.339 106.231
123.748 138.415 107.172
118.233 138.312 105.226
116.871 138.397 106.087
124.257 139.717 106.996
124.934 141.022 106.561
124.995 140.601 107.665
118.397 139.588 105.961
119.917 140.791 105.842
118.751 140.654 106.538
125.421 142.051 106.374
125.696 141.766 107.777
120.099 141.844 106.426
121.069 142.942 106.421
119.983 142.768 106.987
122.132 143.26 105.796
126.259 142.87 106.877
127.148 143.901 107.28
121.1 144.22 107.109
120.016 143.388 107.478
122.057 144.122 106.323
127.963 144.949 107.304
120.113 144.148 107.662
121.03 145.799 107.015
128.371 146.257 107.466
121.247 147.489 107.378
128.276 147.728 107.61
122.507 148.593 107.399
123.724 149.463 107.814
123.422 148.923 108.802
124.925 150.126 107.551
126.499 150.136 107.309
127.607 149.055 107.284
124.624 149.773 108.96
125.887 150.2 108.714
127.093 149.993 108.462
116.854 134.055 105.39
117.457 132.618 105.78
118.717 132.219 105.426
120.092 132.882 105.441
120.981 133.886 105.236
120.842 133.948 106.891
116.638 135.57 105.844
121.53 134.803 105.57
122.037 135.823 107.197
116.347 136.907 106.399
122.894 137.226 107.353
123.682 138.12 108.532
116.003 137.847 107.093
124.391 139.411 108.171
125.165 140.578 108.748
117.219 139.817 106.684
116.144 139.212 107.507
125.894 141.679 109.057
117.14 140.761 107.613
116.315 140.59 108.636
118.47 141.432 107.108
126.485 142.92 108.246
127.208 143.81 108.773
117.422 141.707 108.182
118.661 142.57 107.68
118.073 142.575 108.514
127.774 144.835 108.742
118.925 143.521 108.535
120.094 145.053 107.987
119.669 145.218 108.808
128.195 145.968 108.784
128.502 147.085 108.596
128.5 146.519 109.784
120.499 146.492 107.94
120.358 146.599 109.003
128.191 148.293 108.571
128.495 147.685 109.824
121.568 147.722 108.574
122.552 148.234 109.156
123.454 148.537 109.959
127.726 149.221 108.77
128.229 148.742 110.046
124.419 149.085 110.135
125.445 149.78 110.226
126.703 150.073 110.068
127.584 149.659 110.041
118.174 131.939 106.78
117.369 133.003 106.986
117.847 131.669 107.887
119.102 131.395 107.759
119.385 132.2 106.605
119.829 132.18 107.852
120.225 133.014 106.901
120.447 132.945 108.336
117.019 134.324 107.05
120.969 133.84 108.658
116.63 135.559 107.328
121.465 134.855 107.441
122.178 135.789 108.625
116.215 136.649 107.909
122.854 136.984 108.553
123.669 137.921 109.747
115.855 137.886 108.439
124.575 139.21 109.362
125.387 140.384 109.997
115.948 139.187 108.978
126.127 141.45 110.432
116.193 140.168 109.811
126.615 142.694 109.66
127.321 143.65 110.36
117.216 142.07 109.034
116.822 141.516 110.064
127.758 144.68 110.101
128.047 145.583 109.671
128.339 145.475 110.893
117.867 143.044 109.553
118.83 144.366 109.439
118.509 144.202 110.457
128.751 146.7 110.976
119.562 145.612 109.974
119.367 145.315 110.991
128.58 147.833 111.14
120.704 146.754 110.01
121.698 147.495 110.148
122.627 148.006 110.451
122.168 147.573 111.32
128.343 148.984 111.377
123.606 148.295 111.202
124.533 148.681 111.643
125.325 149.235 111.506
126.394 149.778 111.465
127.51 149.725 111.402
117.392 132.878 108.467
117.864 131.246 109.034
118.889 130.687 108.719
119.95 131.72 108.963
120.609 132.465 109.916
117.174 134.297 108.669
121.279 133.521 110.275
116.546 135.312 108.945
121.545 134.774 109.219
122.305 135.555 110.046
116.15 136.498 109.416
123.012 136.75 109.895
123.938 137.625 111.118
115.953 137.749 109.944
124.531 138.96 110.609
125.318 139.919 111.258
116.07 138.895 110.603
126.177 140.893 111.693
116.494 140.112 111.128
126.973 142.41 111.045
127.639 143.073 112.079
117.146 141.38 111.425
127.934 144.302 111.278
128.581 145.344 112.145
117.662 142.804 110.709
118.375 143.918 111.607
128.734 146.605 112.148
119.274 144.68 112.307
128.566 147.704 112.507
120.167 145.89 111.464
121.129 146.61 111.341
122.058 146.782 112.364
128.225 148.881 112.605
123.129 147.716 112.259
124.204 148.145 112.733
125.211 148.735 113.024
126.166 149.351 112.847
127.32 149.493 112.723
118.348 130.086 109.758
117.653 131.357 109.82
117.915 129.778 110.736
119.143 129.154 110.539
119.502 130.295 109.64
120.122 129.829 110.625
120.172 131.158 110.022
120.64 130.84 111.026
117.467 132.763 109.864
121.09 132.129 111.406
117.111 134.052 110.126
121.514 133.232 111.485
116.474 135.031 110.505
121.82 134.437 111.019
122.64 135.388 111.378
116.178 136.273 110.975
123.256 136.484 111.183
124.241 136.994 112.415
116.096 137.467 111.517
124.719 138.404 111.955
125.606 139.37 112.465
116.264 138.7 112.029
126.409 140.54 112.819
116.76 139.922 112.455
126.999 141.854 112.284
127.585 142.252 113.409
117.3 141.087 112.788
128.09 144.106 112.482
128.013 143.449 113.704
117.801 142.539 112.031
118.448 143.419 112.87
128.502 144.788 113.229
128.646 146.123 113.424
119.301 144.116 113.592
128.515 147.529 113.682
120.241 145.27 112.913
121.054 146.03 112.809
121.985 146.471 113.68
128.072 148.705 113.8
122.997 147.225 113.454
124.051 147.756 113.882
125.105 148.266 114.314
126.01 148.871 114.372
127.057 149.19 113.986
117.81 131.134 111.113
118.061 129.319 111.839
118.827 128.449 111.354
120.221 128.984 111.702
121.058 130.435 112.223
117.486 132.636 111.126
121.378 131.445 112.619
121.772 132.551 112.585
122.074 131.923 113.661
117.196 133.71 111.684
121.939 133.52 112.061
122.493 133.428 112.913
116.568 134.79 112.003
122.683 134.533 112.477
123.414 135.822 112.256
123.765 135.395 113.322
116.24 135.98 112.495
124.631 136.473 113.663
116.321 137.257 112.987
125.187 137.91 113.167
126.212 139.296 113.529
116.545 138.454 113.501
126.758 140.276 113.811
126.998 141.275 113.36
127.438 140.918 114.572
116.905 139.608 113.88
128.065 142.186 114.758
117.459 140.618 114.319
128.35 143.591 115.152
117.944 141.977 113.429
118.64 142.819 114.246
128.548 144.777 114.31
128.584 146.21 114.677
119.647 143.662 114.829
128.314 147.357 114.881
120.37 144.853 114.15
121.358 145.702 114.38
122.372 146.283 115.104
127.765 148.452 114.736
122.974 146.761 114.568
123.932 147.232 115.057
124.943 147.752 115.493
126.078 148.207 115.704
127.019 148.583 115.369
119.002 127.691 112.25
118.365 127.626 113.358
119.253 126.963 113.398
120.433 127.081 113.699
120.226 127.686 112.428
121.072 128.001 113.313
117.97 130.431 112.361
118.072 128.834 112.963
121.186 129.223 112.971
121.613 130.585 113.301
121.992 130.219 114.378
117.631 131.983 112.375
117.954 130.516 113.619
122.714 131.898 114.551
117.157 133.343 113.015
123.142 133.005 114.278
116.693 134.547 113.483
123.602 134.132 113.9
124.345 135.045 114.522
116.497 135.815 114.001
125.076 136.062 114.947
125.161 137.016 114.082
125.611 137.475 114.63
116.633 137.062 114.52
126.13 138.525 114.359
126.852 139.625 114.603
127.134 139.297 115.667
116.931 138.173 115.019
127.871 140.639 115.725
117.207 139.214 115.379
128.422 141.887 116.059
117.604 140.225 115.688
128.536 143.159 116.459
118.143 141.417 114.936
118.975 142.502 115.476
128.534 145.158 115.493
128.429 144.597 116.524
119.931 143.156 116.107
120.43 144.343 115.314
120.774 144.001 116.248
128.284 146.385 116.101
127.871 146.371 117.032
121.476 145.13 115.497
123.53 146.549 116.035
122.622 145.734 116.217
124.686 147.206 116.586
124.037 146.279 117.281
125.969 147.676 116.845
125.354 146.964 117.819
127.273 147.647 116.608
126.909 147.161 117.736
127.789 147.753 115.639
119.545 126.271 114.224
118.662 126.751 114.628
119.415 125.806 115.163
120.42 125.674 115.092
120.411 126.331 114.32
121.088 126.483 114.711
118.336 128.131 114.49
121.689 127.364 114.937
121.568 128.799 114.19
122.201 128.611 115.355
118.258 129.406 114.425
122.59 130.326 115.371
117.618 131.93 113.806
117.911 130.624 115.033
123.285 130.936 116.049
123.42 132.327 115.354
123.995 131.692 116.367
117.19 133.184 114.462
123.686 133.149 114.774
124.128 133.271 115.298
116.827 134.407 114.998
124.809 134.144 115.636
124.947 135.096 115.371
125.554 135.109 116.111
116.682 135.585 115.566
125.956 136.611 115.837
126.438 138.022 115.52
126.982 137.603 116.537
116.878 136.808 116.086
127.695 138.969 116.733
117.373 137.847 116.653
128.188 140.234 116.849
117.609 139.124 116.716
128.433 140.998 117.374
128.696 142.138 117.403
128.657 140.757 118.54
117.878 139.967 116.753
118.079 140.664 116.116
118.41 140.341 117.371
128.627 143.431 117.602
128.659 142.006 118.693
119.281 142.318 116.288
118.7 141.381 116.248
119.587 142.151 117.115
128.296 144.715 117.732
128.42 143.385 118.741
121.511 144.446 116.709
120.632 143.26 117.164
121.666 143.897 117.705
127.824 144.713 118.628
127.673 145.836 117.858
122.501 145.034 117.024
123.731 145.551 117.822
125.035 146.096 118.504
126.395 146.512 118.641
120.08 125.046 115.967
119.051 125.729 115.917
119.754 124.574 116.874
120.911 124.249 116.922
121.161 125.257 115.889
121.696 124.59 116.872
121.926 125.467 116.434
122.339 124.943 117.123
118.665 126.938 115.903
121.79 126.192 115.643
122.448 126.263 116.626
118.349 128.338 115.85
122.577 127.475 116.454
122.89 128.967 116.309
123.524 128.432 117.413
118.1 129.562 116.16
123.183 129.925 116.272
123.956 129.718 117.107
117.545 131.903 115.381
117.834 130.637 116.53
124.612 130.547 117.54
124.61 132.286 116.737
125.212 131.711 117.72
117.235 133.021 115.885
124.686 133.208 116.212
125.319 133.267 116.864
117.022 134.081 116.58
125.974 134.227 117.187
126.327 135.943 116.678
126.753 135.779 117.502
117.105 135.2 117.036
127.451 137.223 117.556
117.29 136.25 117.624
127.896 137.942 117.892
128.121 139.031 117.985
128.151 137.791 119.107
117.614 137.193 117.992
117.921 138.24 118.009
118.385 137.21 119.303
128.443 139.935 118.13
128.428 139.136 119.34
118.12 139.333 117.794
118.643 138.673 118.958
128.545 140.383 119.676
118.973 140.047 118.473
128.338 141.876 119.75
119.131 141.098 117.707
120.134 141.782 118.125
127.874 143.497 119.503
120.651 142.717 118.063
122.556 144.271 118.143
121.8 143.263 118.718
122.9 143.989 119.179
127.468 144.483 119.374
126.971 145.483 118.963
123.451 144.768 118.453
124.535 145.231 119.057
125.715 145.591 119.345
118.959 125.473 117.186
119.677 123.885 117.544
120.818 123.186 117.466
122.146 123.575 117.576
122.942 124.801 117.715
118.779 126.943 117.251
123.524 125.381 118.372
122.978 126.46 117.443
123.658 126.58 118.2
118.524 128.095 117.415
123.853 127.535 118.077
124.576 128.524 118.255
125.087 127.711 119.445
118.261 129.19 117.767
124.823 129.481 118.152
125.554 128.949 119.267
117.635 131.546 117.066
117.964 130.342 118.168
125.535 130.361 118.583
125.844 131.961 118.405
126.385 131.124 119.331
117.399 132.664 117.389
117.75 131.501 118.587
125.895 133.097 117.897
126.437 133.018 118.784
117.384 133.656 118.247
126.599 134.403 118.242
127.266 135.814 118.501
127.392 134.898 119.422
117.441 134.772 118.599
127.801 136.834 118.708
127.942 136.121 119.863
117.75 135.495 119.01
117.941 136.427 118.977
118.423 135.751 120.316
128.372 137.568 120.227
119.057 137.093 120.439
128.373 138.985 120.642
119.322 138.306 119.981
119.362 139.441 119.475
120.114 139.27 120.376
128.114 140.375 120.797
119.46 140.31 118.853
120.014 140.344 119.628
127.903 142.382 120.447
120.983 142.172 118.93
120.152 141.134 118.982
121.657 142.548 119.386
121.401 141.639 119.809
122.263 142.586 119.983
127.153 144.058 120.012
127.12 142.646 120.844
126.398 143.446 120.809
123.943 144.429 119.789
123.023 143.315 120.069
125.092 144.766 120.153
124.257 143.698 120.671
126.327 144.798 120.061
125.459 143.85 120.849
120.265 122.569 118.27
119.432 124.126 118.373
119.854 122.722 119.185
120.773 121.604 119.142
121.604 122.275 118.205
122.379 121.549 118.844
122.972 122.931 118.341
123.659 121.892 119.051
123.907 123.218 119.142
124.475 122.708 119.969
119.165 125.522 118.472
123.587 124.139 118.679
124.603 124.149 119.875
118.971 126.712 118.779
124.6 125.434 119.495
124.619 126.7 119.186
125.544 126.136 120.353
118.675 127.893 118.961
125.945 127.422 120.441
118.402 129.055 119.278
126.493 128.255 120.72
126.215 129.67 119.712
126.838 129.865 120.639
118.25 130.11 119.84
126.954 131.615 119.987
117.738 132.509 119.257
118.119 131.261 120.061
127.224 132.799 120.031
117.94 133.628 119.896
118.156 132.627 120.73
127.112 133.862 119.484
127.937 134.607 120.636
117.955 134.716 120.056
118.664 134.118 121.282
128.31 136.025 121.016
119.017 135.634 121.43
128.307 137.538 121.45
119.634 136.683 121.742
119.949 138.045 120.968
120.695 138.521 121.412
120.351 137.249 122.097
121.011 137.803 122.472
128.032 139.016 121.864
120.956 139.889 120.872
121.334 139.099 121.971
127.644 140.195 121.732
127.288 139.563 122.646
127.004 140.769 122.223
120.945 140.826 120.121
121.902 140.259 121.569
121.88 141.209 120.683
122.608 141.231 121.368
127.572 141.467 121.221
126.618 141.929 121.797
123.03 141.911 121.273
125.836 142.882 121.598
123.154 142.528 120.849
123.91 142.786 121.105
124.892 142.949 121.502
122.41 119.372 119.977
121.133 119.727 120.164
121.68 118.631 120.793
122.572 117.787 120.579
123.575 119.385 120.112
123.829 117.808 120.542
124.62 119.744 120.406
124.84 118.23 120.921
121.71 120.602 119.451
120.465 120.959 120.322
123.215 120.55 119.494
124.441 121.275 120.023
125.293 119.612 120.975
125.396 121.44 120.816
125.927 119.814 121.56
119.638 124.085 119.564
120.177 122.426 120.274
125.467 123.162 120.786
126.213 120.991 121.75
126.315 122.46 121.741
126.897 121.137 122.609
119.555 125.325 119.923
125.623 124.78 120.725
126.369 124.108 121.736
127.02 123.053 122.58
119.162 126.549 120.298
126.543 125.809 121.488
126.974 124.995 122.561
118.728 127.905 120.234
126.545 127.057 121.383
127.061 126.885 122.402
118.63 129.044 120.846
127.167 128.513 121.644
127.286 130.57 121.269
127.586 129.65 122.204
118.742 130.162 121.556
127.563 132.031 120.988
127.775 131.365 122.033
118.577 131.475 121.556
127.734 133.423 120.554
128.038 133.258 121.665
118.822 132.899 121.82
128.362 134.622 121.885
119.483 133.334 122.793
119.432 134.669 122.366
120.062 134.025 123.326
128.274 135.987 122.236
119.856 135.861 122.349
120.242 135.258 123.05
127.826 137.324 122.53
120.876 136.369 123.154
121.617 137.596 123.142
127.335 138.306 123.013
121.971 138.569 122.835
121.963 139.37 122.209
122.466 139.415 122.817
126.522 139.067 123.421
126.232 140.181 123.041
123.616 141.288 122.248
122.93 140.318 122.417
124.722 141.242 122.831
123.905 140.26 123.155
125.768 141.11 122.623
125.072 140.15 123.469
123.702 142.104 121.665
124.464 142.172 122.013
125.507 142.069 122.169
123.271 116.267 121.17
122.207 116.859 121.64
122.654 115.85 122.342
123.417 114.783 121.794
124.566 116.506 121.089
124.781 115.178 121.22
125.73 116.786 121.534
125.973 115.456 121.598
121.046 119.458 121.309
121.69 118.015 121.963
125.766 118.208 121.52
126.551 116.616 122.183
126.639 117.976 122.451
127.285 116.987 123.012
120.861 120.706 121.633
126.561 119.497 122.357
127.248 119.055 123.247
120.005 123.658 120.846
120.486 122.069 121.591
127.323 121.211 123.435
119.848 124.917 121.335
120.214 123.423 122.138
127.454 123.328 123.437
119.469 126.121 121.55
120.066 124.933 122.698
127.385 125.353 123.493
119.019 127.553 121.458
119.641 126.246 122.648
127.324 126.856 123.835
119.064 128.743 122.177
127.412 128.267 122.924
127.738 129.745 123.086
119.565 129.001 123.156
119.21 130.492 122.731
119.901 129.94 123.757
127.836 131.727 122.876
119.196 131.716 122.624
119.951 131.107 123.699
127.922 133.24 122.896
119.512 132.505 122.729
120.134 132.244 123.584
127.967 134.575 123.185
120.769 134.575 123.896
120.667 133.053 124.138
121.43 134.228 124.53
127.761 135.925 123.346
120.892 135.531 123.576
121.563 135.642 124.13
127.223 136.999 123.594
122.633 138.032 123.782
122.006 136.734 123.942
123.729 137.999 124.326
123.072 136.907 124.578
124.826 137.882 124.478
124.242 136.752 124.991
125.785 137.719 124.317
125.4 136.632 124.911
126.541 137.915 123.838
126.355 136.76 124.476
123.223 139.292 123.633
124.357 139.163 123.98
125.57 139.03 123.983
127.378 106.178 119.525
126.214 107.507 121.005
127.157 105.348 121.199
128.524 103.806 120.194
128.931 106.414 119.86
130.221 104.656 120.387
129.83 106.908 121.017
130.295 105.857 121.955
126.354 108.953 120.424
125.204 109.246 121.594
127.771 108.744 120.361
128.83 108.545 121.186
129.625 107.985 122.411
125.617 110.929 121.126
124.675 110.823 122.573
127.123 110.552 120.963
128.343 110.614 121.744
129.107 110.104 122.808
124.624 112.143 121.478
124.03 113.033 122.735
124.407 112.107 123.189
126.199 112.714 121.445
127.489 112.302 121.735
128.365 112.414 123.007
128.836 111.814 123.88
124.324 113.719 121.715
123.701 114.135 123.207
125.757 114.089 121.517
127.426 114.18 122.325
128.26 113.822 123.3
122.476 116.96 123.13
123.219 115.307 123.491
126.921 115.362 122.315
127.849 115.698 123.485
121.386 119.369 122.537
122.006 118.195 123.353
127.74 117.494 123.976
121.068 120.646 122.918
127.609 119.478 124.215
120.8 122.014 123.02
127.603 121.508 124.36
120.552 123.337 123.395
127.612 123.626 124.41
120.496 124.665 123.91
127.49 125.349 124.714
119.473 127.403 122.882
120.218 126.153 123.85
127.312 126.945 125.179
119.548 128.148 123.181
120.124 127.609 124.025
127.488 128.286 124.1
127.725 130.129 123.996
120.67 130.282 124.613
120.297 128.845 124.225
121.122 129.355 125.174
127.585 131.403 124.058
120.991 131.389 124.698
121.602 130.471 125.645
127.606 132.857 124.061
120.88 132.212 124.472
121.698 131.994 125.429
127.456 133.866 124.264
127.236 132.78 124.734
126.854 133.236 125.162
122.337 134.711 125.067
121.725 133.12 125.075
122.64 133.588 125.638
127.262 134.866 124.286
126.38 134.281 125.29
122.569 135.906 124.834
123.197 134.592 125.762
123.679 135.667 125.362
125.025 135.563 125.434
124.297 134.674 126.012
126.25 135.496 125.054
125.485 134.478 125.836
127.03 135.964 124.23
126.142 107.841 122.394
126.988 106.552 123.074
128.169 104.768 122.672
129.841 104.34 122.48
129.982 106.615 123.42
125.418 109.736 123.228
129.589 108.958 123.842
125.142 111.394 124.452
129.226 110.64 124.491
124.324 113.462 124.507
124.76 112.49 124.582
128.694 111.932 125.594
128.567 113.536 124.93
123.963 114.699 124.869
128.287 114.988 124.475
123.022 116.614 124.303
123.609 115.795 125.026
128.12 116.502 124.857
121.814 119.338 123.975
122.684 117.944 124.653
127.946 118.135 125.105
121.54 120.674 124.25
122.401 119.291 125.2
127.678 119.936 125.282
121.222 121.953 124.394
122.107 120.901 125.435
127.687 121.882 125.365
120.992 123.4 124.659
121.858 122.317 125.575
127.538 123.511 125.611
120.974 125.221 124.928
121.62 123.722 125.565
127.282 125.059 125.881
120.899 126.723 124.982
121.843 124.897 125.882
121.741 126.102 125.909
122.598 125.348 126.677
127.028 126.436 126.199
121.049 128.148 125.099
121.874 127.467 125.932
122.72 126.784 126.854
127.291 128.574 125.039
126.903 128.165 126.098
121.945 128.991 125.986
122.785 128.263 126.755
127.311 129.796 125.303
126.744 129.904 126.235
122.433 130.95 126.266
122.829 129.806 126.687
127.154 131.382 125.2
126.467 130.942 126.316
122.685 132.41 126.052
123.336 131.04 126.728
123.774 132.269 126.441
125.146 132.315 126.407
124.413 131.263 126.78
126.439 132.107 125.848
125.609 131.232 126.757
123.551 133.479 126.249
124.679 133.525 126.334
125.862 133.285 125.928
126.249 108.377 123.71
126.979 107.497 124.393
127.794 106.304 124.436
129.266 105.977 124.392
129.38 107.971 124.751
125.87 109.996 124.618
129.163 109.519 125.2
125.806 110.961 125.628
128.922 110.706 125.729
125.164 112.962 125.982
125.716 112.003 126.147
126.439 112.888 127.313
128.294 113.008 126.528
127.435 112.046 127.165
128.331 111.21 126.701
124.709 114.233 126.089
125.622 113.959 127.328
127.191 113.878 127.62
128.176 114.193 126.345
128.238 115.328 125.781
123.568 116.89 125.645
124.336 115.646 126.352
128.056 117.015 126.198
123.346 118.302 125.994
124.23 117.152 126.819
127.746 118.712 126.322
123.022 119.858 126.315
124.015 118.841 126.987
127.582 120.457 126.363
122.883 121.471 126.458
123.739 120.527 127.266
127.418 122.07 126.584
122.633 122.968 126.567
123.573 122.222 127.328
127.083 123.507 126.776
122.447 124.171 126.48
123.359 123.907 127.31
126.859 124.928 126.958
123.448 125.382 127.4
126.694 126.555 127.02
123.654 126.512 127.525
123.781 127.792 127.445
125.272 127.871 127.568
124.65 126.694 127.661
126.343 127.678 127.145
125.833 126.57 127.638
123.761 129.158 127.134
124.949 129.036 127.294
126.258 128.888 126.92
123.78 130.3 127.117
124.784 130.252 127.248
125.896 130.097 127.043
126.53 108.815 125.144
127.403 107.733 125.634
128.534 107.265 125.243
126.449 110.081 126.072
127.328 109.181 126.411
128.582 108.565 125.991
126.311 111.194 126.822
127.257 110.541 127.155
128.399 109.929 126.547
125.384 115.44 127.343
126.609 115.277 127.897
127.755 115.086 127.187
125.147 116.787 127.644
126.495 116.713 128.094
127.676 116.315 127.237
124.972 118.293 127.833
126.335 118.235 128.15
127.442 117.882 127.402
124.818 119.816 127.828
126.134 119.696 128.078
127.211 119.434 127.426
124.534 121.458 127.954
125.8 121.124 128.095
126.942 120.92 127.462
124.296 123.09 128.021
125.526 122.672 128.126
126.598 122.352 127.613
124.227 124.573 127.911
125.315 124.135 128.064
126.335 123.799 127.676
124.218 125.661 127.693
125.09 125.423 127.887
126.176 125.259 127.723
POLYGONS 1936  7744
3 0 1 2
3 0 3 4
3 2 3 0
3 4 5 6
3 3 5 4
3 5 7 6
3 8 1 0
3 9 1 8
3 4 10 0
3 10 8 0
3 6 11 4
3 11 10 4
3 12 6 7
3 11 6 12
3 8 13 9
3 10 13 8
3 14 13 10
3 11 14 10
3 15 14 11
3 12 15 11
3 16 17 18
3 16 19 20
3 18 19 16
3 20 21 22
3 19 21 20
3 21 23 22
3 24 17 16
3 25 17 24
3 20 26 16
3 26 24 16
3 22 27 20
3 27 26 20
3 28 22 23
3 28 29 22
3 29 27 22
3 28 30 29
3 31 25 24
3 32 25 31
3 26 33 24
3 33 31 24
3 27 34 26
3 34 33 26
3 29 35 27
3 35 34 27
3 36 29 30
3 35 29 36
3 31 37 32
3 37 38 39
3 37 31 38
3 31 33 38
3 34 40 33
3 40 38 33
3 35 41 34
3 41 40 34
3 42 35 36
3 41 35 42
3 38 43 39
3 40 43 38
3 44 43 40
3 44 45 46
3 44 40 45
3 40 41 45
3 47 41 42
3 47 48 41
3 48 45 41
3 48 49 50
3 47 49 48
3 49 51 50
3 52 46 45
3 53 46 52
3 48 54 45
3 54 52 45
3 50 55 48
3 55 54 48
3 56 50 51
3 55 50 56
3 57 58 59
3 53 57 59
3 52 57 53
3 52 1 57
3 52 2 1
3 3 2 52
3 54 3 52
3 5 3 54
3 55 5 54
3 55 7 5
3 55 56 7
3 56 60 7
3 61 58 57
3 62 58 61
3 1 9 61
3 57 1 61
3 7 60 12
3 60 63 12
3 61 64 62
3 9 64 61
3 9 13 64
3 13 65 64
3 14 66 13
3 13 66 65
3 15 67 14
3 14 67 66
3 63 15 12
3 67 15 63
3 68 69 70
3 68 71 72
3 70 71 68
3 71 73 72
3 74 69 68
3 75 69 74
3 18 17 74
3 18 74 72
3 72 74 68
3 72 73 76
3 72 76 18
3 18 76 19
3 21 19 77
3 19 76 77
3 77 23 21
3 78 23 77
3 79 75 74
3 80 75 79
3 17 25 79
3 74 17 79
3 23 78 81
3 28 23 81
3 81 30 28
3 82 30 81
3 83 80 79
3 84 80 83
3 25 32 83
3 79 25 83
3 85 86 36
3 85 36 82
3 82 36 30
3 85 87 86
3 83 88 84
3 89 90 88
3 37 89 88
3 37 88 83
3 37 83 32
3 37 39 89
3 86 91 42
3 36 86 42
3 92 86 87
3 91 86 92
3 89 93 90
3 94 95 93
3 43 94 93
3 43 93 89
3 43 89 39
3 43 44 96
3 94 43 96
3 44 46 96
3 42 91 47
3 91 92 97
3 91 97 47
3 47 97 49
3 97 51 49
3 98 51 97
3 99 95 94
3 100 95 99
3 96 101 94
3 101 99 94
3 46 53 101
3 96 46 101
3 51 98 56
3 98 102 56
3 99 103 100
3 59 58 104
3 59 104 99
3 59 99 101
3 99 104 103
3 53 59 101
3 56 102 60
3 102 105 60
3 58 62 104
3 104 62 106
3 60 105 63
3 105 107 63
3 62 108 106
3 64 108 62
3 109 110 108
3 109 108 65
3 65 108 64
3 65 66 111
3 109 65 111
3 66 67 112
3 111 66 112
3 67 113 112
3 67 63 113
3 63 107 113
3 109 114 110
3 111 114 109
3 115 114 111
3 112 115 111
3 116 115 112
3 113 116 112
3 70 117 118
3 69 117 70
3 71 70 119
3 70 118 119
3 73 120 121
3 73 71 120
3 71 119 120
3 120 122 121
3 69 75 117
3 117 75 123
3 73 121 76
3 121 122 124
3 121 124 76
3 76 124 77
3 124 78 77
3 125 78 124
3 75 80 123
3 123 80 126
3 78 125 127
3 81 78 127
3 127 82 81
3 128 82 127
3 80 84 126
3 126 84 129
3 82 128 130
3 85 82 130
3 130 87 85
3 131 87 130
3 132 84 88
3 132 133 84
3 133 129 84
3 88 90 132
3 87 131 92
3 131 134 92
3 135 133 132
3 136 133 135
3 90 93 137
3 90 137 132
3 132 137 135
3 93 95 137
3 92 134 138
3 97 92 138
3 138 98 97
3 139 98 138
3 135 140 136
3 140 141 142
3 140 135 141
3 135 137 141
3 95 100 141
3 137 95 141
3 98 139 102
3 139 143 102
3 141 144 142
3 145 146 144
3 103 145 144
3 103 144 141
3 103 141 100
3 103 104 145
3 147 148 105
3 147 105 143
3 143 105 102
3 147 149 148
3 150 146 145
3 151 146 150
3 104 106 150
3 145 104 150
3 148 152 107
3 105 148 107
3 153 148 149
3 152 148 153
3 150 154 151
3 106 154 150
3 106 108 154
3 108 155 154
3 155 108 110
3 156 155 110
3 152 157 113
3 107 152 113
3 158 152 153
3 157 152 158
3 110 159 156
3 114 159 110
3 115 160 114
3 114 160 159
3 116 161 115
3 115 161 160
3 157 116 113
3 157 162 116
3 162 161 116
3 158 162 157
3 163 164 165
3 163 166 167
3 165 166 163
3 167 168 169
3 166 168 167
3 168 170 169
3 118 164 163
3 118 117 164
3 117 171 164
3 119 118 163
3 167 119 163
3 120 119 167
3 169 120 167
3 169 122 120
3 169 170 122
3 170 172 122
3 117 123 171
3 171 123 173
3 122 172 174
3 124 122 174
3 174 125 124
3 175 125 174
3 123 126 173
3 173 126 176
3 125 175 177
3 127 125 177
3 177 128 127
3 178 128 177
3 126 129 176
3 176 129 179
3 128 178 180
3 130 128 180
3 180 131 130
3 181 131 180
3 129 133 179
3 179 133 182
3 131 181 134
3 181 183 134
3 133 136 182
3 182 136 184
3 134 183 185
3 138 134 185
3 185 139 138
3 186 139 185
3 187 136 140
3 187 188 136
3 188 184 136
3 140 142 187
3 189 190 143
3 189 143 186
3 186 143 139
3 189 191 190
3 187 192 188
3 193 194 192
3 144 193 192
3 144 192 187
3 144 187 142
3 144 146 193
3 143 190 147
3 190 149 147
3 190 191 149
3 191 195 149
3 196 194 193
3 197 194 196
3 146 151 196
3 193 146 196
3 149 195 153
3 195 198 153
3 196 199 197
3 151 199 196
3 151 154 199
3 154 200 199
3 201 202 200
3 201 200 155
3 155 200 154
3 155 156 201
3 153 198 158
3 198 203 158
3 201 204 202
3 156 204 201
3 156 159 204
3 159 205 204
3 160 206 159
3 159 206 205
3 161 207 160
3 160 207 206
3 162 208 161
3 161 208 207
3 203 162 158
3 208 162 203
3 165 209 210
3 164 209 165
3 166 165 211
3 165 210 211
3 168 166 212
3 166 211 212
3 212 170 168
3 213 170 212
3 164 171 209
3 209 171 214
3 170 213 172
3 213 215 172
3 171 173 214
3 214 173 216
3 172 215 217
3 174 172 217
3 217 175 174
3 218 175 217
3 173 176 216
3 216 176 219
3 175 218 220
3 177 175 220
3 220 178 177
3 221 178 220
3 176 179 219
3 219 179 222
3 178 221 223
3 180 178 223
3 223 181 180
3 224 181 223
3 179 182 222
3 222 182 225
3 181 224 183
3 224 226 183
3 182 184 225
3 225 184 227
3 183 226 228
3 185 183 228
3 228 186 185
3 229 186 228
3 184 188 227
3 227 188 230
3 186 229 231
3 189 186 231
3 231 191 189
3 232 191 231
3 188 233 230
3 192 233 188
3 233 192 194
3 234 233 194
3 191 232 195
3 232 235 195
3 194 197 234
3 234 197 236
3 195 235 198
3 235 237 198
3 197 238 236
3 199 238 197
3 200 239 199
3 199 239 238
3 239 200 202
3 240 239 202
3 198 237 203
3 237 241 203
3 202 242 240
3 204 242 202
3 205 243 204
3 204 243 242
3 206 244 205
3 205 244 243
3 207 245 206
3 206 245 244
3 208 246 207
3 207 246 245
3 241 208 203
3 246 208 241
3 247 248 249
3 247 250 251
3 249 250 247
3 251 252 253
3 250 252 251
3 252 254 253
3 210 248 247
3 210 209 248
3 209 255 248
3 211 210 247
3 251 211 247
3 212 211 251
3 253 212 251
3 253 213 212
3 253 254 213
3 254 256 213
3 209 214 255
3 255 214 257
3 213 256 215
3 256 258 215
3 214 216 257
3 257 216 259
3 215 258 260
3 217 215 260
3 260 218 217
3 261 218 260
3 216 219 259
3 259 219 262
3 218 261 263
3 220 218 263
3 263 221 220
3 264 221 263
3 219 222 262
3 262 222 265
3 221 264 266
3 223 221 266
3 266 224 223
3 267 224 266
3 222 225 265
3 265 225 268
3 224 267 226
3 267 269 226
3 225 227 268
3 268 227 270
3 226 269 271
3 228 226 271
3 271 229 228
3 272 229 271
3 227 230 270
3 270 230 273
3 274 231 229
3 274 229 275
3 275 229 272
3 231 274 232
3 230 276 273
3 233 276 230
3 276 233 234
3 277 276 234
3 274 275 278
3 278 232 274
3 278 279 232
3 279 235 232
3 234 236 277
3 277 236 280
3 235 279 237
3 279 281 237
3 236 282 280
3 238 282 236
3 239 283 238
3 238 283 282
3 283 239 240
3 284 283 240
3 237 281 241
3 281 285 241
3 240 286 284
3 242 286 240
3 243 287 242
3 242 287 286
3 244 288 243
3 243 288 287
3 245 289 244
3 244 289 288
3 246 290 245
3 245 290 289
3 285 246 241
3 290 246 285
3 249 291 292
3 248 291 249
3 250 249 293
3 249 292 293
3 252 250 294
3 250 293 294
3 294 254 252
3 295 254 294
3 248 255 291
3 291 255 296
3 297 298 256
3 297 256 295
3 295 256 254
3 297 299 298
3 255 257 296
3 296 257 300
3 298 301 258
3 256 298 258
3 302 298 299
3 301 298 302
3 257 259 300
3 300 259 303
3 258 301 260
3 261 304 305
3 260 304 261
3 260 302 304
3 260 301 302
3 304 306 305
3 259 262 303
3 303 262 307
3 261 305 263
3 305 264 263
3 305 306 264
3 306 308 264
3 262 265 307
3 307 265 309
3 264 308 310
3 266 264 310
3 310 267 266
3 311 267 310
3 265 268 309
3 309 268 312
3 313 314 269
3 313 269 311
3 311 269 267
3 313 315 314
3 268 270 312
3 312 270 316
3 269 314 271
3 314 272 271
3 314 315 272
3 315 317 272
3 270 273 316
3 316 273 318
3 272 317 275
3 317 319 275
3 273 320 318
3 276 320 273
3 320 276 277
3 321 320 277
3 275 319 322
3 278 275 322
3 322 279 278
3 323 279 322
3 277 280 321
3 321 280 324
3 279 323 281
3 323 325 281
3 280 326 324
3 282 326 280
3 283 327 282
3 282 327 326
3 327 283 284
3 328 327 284
3 281 325 285
3 325 329 285
3 284 330 328
3 286 330 284
3 287 331 286
3 286 331 330
3 288 332 287
3 287 332 331
3 289 333 288
3 288 333 332
3 290 334 289
3 289 334 333
3 329 290 285
3 334 290 329
3 335 336 337
3 335 338 339
3 337 338 335
3 338 340 339
3 292 291 341
3 335 342 336
3 335 292 342
3 335 293 292
3 341 342 292
3 294 293 335
3 339 294 335
3 295 343 344
3 294 343 295
3 294 340 343
3 294 339 340
3 343 345 344
3 341 346 347
3 341 291 346
3 291 296 346
3 342 341 347
3 295 344 297
3 344 299 297
3 344 345 299
3 345 348 299
3 296 300 346
3 346 300 349
3 299 348 302
3 348 350 302
3 300 303 349
3 349 303 351
3 302 350 352
3 304 302 352
3 352 306 304
3 353 306 352
3 303 307 351
3 351 307 354
3 355 356 308
3 355 308 353
3 353 308 306
3 355 357 356
3 307 309 354
3 354 309 358
3 308 356 310
3 311 359 360
3 310 359 311
3 310 357 359
3 310 356 357
3 359 361 360
3 309 312 358
3 358 312 362
3 311 360 313
3 360 315 313
3 360 361 315
3 361 363 315
3 312 316 362
3 362 316 364
3 315 363 317
3 363 365 317
3 316 318 364
3 364 318 366
3 317 365 319
3 365 367 319
3 318 368 366
3 320 368 318
3 368 320 321
3 369 368 321
3 370 322 319
3 370 319 371
3 371 319 367
3 322 370 323
3 372 324 373
3 372 369 324
3 369 321 324
3 372 373 374
3 375 370 371
3 376 375 371
3 323 375 325
3 370 375 323
3 324 326 373
3 373 377 374
3 373 326 377
3 326 327 377
3 328 378 379
3 328 379 327
3 327 379 377
3 378 380 381
3 379 378 381
3 380 382 383
3 381 380 383
3 382 384 385
3 383 382 385
3 376 385 384
3 376 384 375
3 375 384 386
3 325 386 329
3 375 386 325
3 328 330 378
3 331 378 330
3 380 378 331
3 332 380 331
3 382 380 332
3 333 382 332
3 384 382 333
3 334 384 333
3 386 384 334
3 329 386 334
3 387 388 389
3 387 390 391
3 389 390 387
3 390 392 391
3 337 388 387
3 337 336 388
3 336 393 388
3 338 337 387
3 391 338 387
3 340 394 395
3 338 394 340
3 338 392 394
3 338 391 392
3 394 396 395
3 336 342 393
3 393 342 397
3 340 395 343
3 395 345 343
3 395 396 345
3 396 398 345
3 347 399 400
3 346 399 347
3 397 342 347
3 400 397 347
3 401 402 348
3 401 348 398
3 398 348 345
3 401 403 402
3 346 349 399
3 399 349 404
3 402 405 350
3 348 402 350
3 406 402 403
3 405 402 406
3 349 351 404
3 404 351 407
3 350 405 352
3 353 408 409
3 352 408 353
3 352 406 408
3 352 405 406
3 408 410 409
3 351 354 407
3 407 354 411
3 353 409 355
3 357 412 413
3 355 412 357
3 355 410 412
3 355 409 410
3 412 414 413
3 354 358 411
3 411 358 415
3 357 413 359
3 413 361 359
3 413 414 361
3 414 416 361
3 358 362 415
3 415 362 417
3 361 416 363
3 416 418 363
3 362 364 417
3 417 364 419
3 420 421 365
3 420 365 418
3 418 365 363
3 420 422 421
3 423 366 424
3 423 419 366
3 419 364 366
3 423 424 425
3 421 426 367
3 365 421 367
3 427 421 422
3 426 421 427
3 366 368 424
3 369 428 429
3 368 369 429
3 368 429 425
3 368 425 424
3 429 428 430
3 426 431 371
3 367 426 371
3 432 426 427
3 431 426 432
3 369 372 428
3 374 433 434
3 372 374 434
3 372 434 430
3 372 430 428
3 434 433 435
3 431 436 437
3 431 437 371
3 371 437 376
3 432 436 431
3 374 377 433
3 433 438 435
3 433 377 438
3 377 379 438
3 381 439 379
3 379 439 438
3 383 440 381
3 381 440 439
3 385 441 383
3 383 441 440
3 437 385 376
3 441 385 437
3 442 443 444
3 442 445 446
3 444 445 442
3 446 447 448
3 445 447 446
3 447 449 448
3 389 443 442
3 389 388 443
3 388 450 443
3 390 389 442
3 446 390 442
3 392 390 446
3 392 446 451
3 451 446 448
3 452 448 449
3 451 448 452
3 388 393 450
3 450 393 453
3 392 451 394
3 396 454 455
3 394 454 396
3 394 452 454
3 394 451 452
3 454 456 455
3 393 397 453
3 453 397 457
3 455 458 398
3 396 455 398
3 459 455 456
3 458 455 459
3 400 460 461
3 399 460 400
3 457 397 400
3 461 457 400
3 398 458 401
3 403 462 463
3 401 462 403
3 401 459 462
3 401 458 459
3 462 464 463
3 399 404 460
3 460 404 465
3 463 466 406
3 403 463 406
3 467 463 464
3 466 463 467
3 404 407 465
3 465 407 468
3 406 466 408
3 410 469 470
3 408 469 410
3 408 467 469
3 408 466 467
3 469 471 470
3 407 411 468
3 468 411 472
3 410 470 412
3 470 414 412
3 470 471 414
3 471 473 414
3 411 415 472
3 472 415 474
3 475 476 416
3 475 416 473
3 473 416 414
3 475 477 476
3 478 417 479
3 478 474 417
3 474 415 417
3 478 479 480
3 476 481 418
3 416 476 418
3 482 476 477
3 481 476 482
3 479 419 483
3 417 419 479
3 484 480 479
3 483 484 479
3 418 481 420
3 481 422 420
3 481 482 422
3 482 485 422
3 419 423 483
3 483 423 425
3 483 425 484
3 484 425 486
3 422 485 427
3 485 487 427
3 425 488 486
3 429 488 425
3 488 429 430
3 489 488 430
3 427 487 432
3 487 490 432
3 430 491 489
3 434 491 430
3 435 492 493
3 435 493 434
3 434 493 491
3 493 492 494
3 436 495 496
3 437 436 496
3 490 436 432
3 495 436 490
3 435 438 492
3 492 497 494
3 492 438 497
3 438 439 497
3 440 498 439
3 439 498 497
3 441 499 440
3 440 499 498
3 496 441 437
3 499 441 496
3 444 500 501
3 443 500 444
3 445 444 502
3 444 501 502
3 447 445 503
3 445 502 503
3 503 449 447
3 504 449 503
3 443 450 500
3 500 450 505
3 506 507 452
3 506 452 504
3 504 452 449
3 506 508 507
3 450 453 505
3 505 453 509
3 452 507 454
3 456 510 511
3 454 510 456
3 454 508 510
3 454 507 508
3 510 512 511
3 453 457 509
3 509 457 513
3 511 514 459
3 456 511 459
3 515 511 512
3 514 511 515
3 461 460 516
3 461 516 517
3 461 517 457
3 457 517 513
3 459 514 462
3 464 518 519
3 462 518 464
3 462 515 518
3 462 514 515
3 518 520 519
3 516 521 522
3 516 460 521
3 460 465 521
3 517 516 522
3 519 523 467
3 464 519 467
3 524 519 520
3 523 519 524
3 465 468 521
3 521 468 525
3 467 523 469
3 471 526 527
3 469 526 471
3 469 524 526
3 469 523 524
3 526 528 527
3 468 472 525
3 525 472 529
3 527 530 473
3 471 527 473
3 531 527 528
3 530 527 531
3 532 474 533
3 532 529 474
3 529 472 474
3 532 533 534
3 473 530 475
3 530 477 475
3 530 531 477
3 531 535 477
3 474 478 533
3 533 478 480
3 533 480 534
3 534 480 536
3 477 535 482
3 535 537 482
3 538 484 539
3 538 536 484
3 536 480 484
3 538 539 540
3 482 537 485
3 537 541 485
3 539 486 542
3 484 486 539
3 543 540 539
3 542 543 539
3 485 541 487
3 541 544 487
3 486 488 542
3 489 545 546
3 488 489 546
3 488 546 543
3 488 543 542
3 545 547 548
3 546 545 548
3 548 547 549
3 550 551 552
3 550 544 551
3 550 490 544
3 490 487 544
3 489 491 545
3 493 545 491
3 547 545 493
3 494 553 554
3 493 494 554
3 493 554 549
3 493 549 547
3 553 555 556
3 554 553 556
3 555 557 558
3 556 555 558
3 552 558 557
3 550 552 557
3 550 557 496
3 550 496 495
3 490 550 495
3 494 497 553
3 498 553 497
3 555 553 498
3 499 555 498
3 557 555 499
3 496 557 499
3 559 560 561
3 559 562 563
3 561 562 559
3 563 564 565
3 562 564 563
3 565 566 567
3 564 566 565
3 566 568 567
3 501 560 559
3 501 500 560
3 500 569 560
3 502 501 559
3 563 502 559
3 503 502 563
3 565 503 563
3 504 503 565
3 504 565 570
3 570 565 567
3 571 567 568
3 570 567 571
3 500 505 569
3 569 505 572
3 504 570 506
3 508 573 574
3 506 573 508
3 506 571 573
3 506 570 571
3 573 575 574
3 505 509 572
3 572 509 576
3 508 574 510
3 574 512 510
3 574 575 512
3 575 577 512
3 509 513 576
3 576 513 578
3 579 580 515
3 579 515 577
3 577 515 512
3 579 581 580
3 513 517 578
3 578 517 582
3 515 580 518
3 580 520 518
3 580 581 520
3 581 583 520
3 522 521 584
3 522 584 585
3 522 585 517
3 517 585 582
3 520 583 524
3 583 586 524
3 584 525 587
3 521 525 584
3 588 585 584
3 587 588 584
3 524 586 589
3 526 524 589
3 589 528 526
3 590 528 589
3 587 529 591
3 525 529 587
3 592 588 587
3 591 592 587
3 528 590 531
3 590 593 531
3 529 532 591
3 591 532 534
3 591 534 592
3 592 534 594
3 531 593 535
3 593 595 535
3 596 536 597
3 596 594 536
3 594 534 536
3 597 598 599
3 596 597 599
3 599 598 600
3 535 595 537
3 595 601 537
3 536 538 597
3 540 597 538
3 540 602 597
3 602 598 597
3 603 600 598
3 602 603 598
3 604 605 606
3 604 601 605
3 604 541 601
3 541 537 601
3 602 543 607
3 540 543 602
3 608 603 602
3 608 602 609
3 609 602 607
3 608 609 610
3 611 604 606
3 612 611 606
3 541 611 544
3 604 611 541
3 543 546 607
3 548 607 546
3 609 607 548
3 609 548 549
3 609 549 610
3 610 549 613
3 551 611 612
3 551 612 552
3 552 612 614
3 544 611 551
3 549 615 613
3 554 615 549
3 556 616 554
3 554 616 615
3 558 617 556
3 556 617 616
3 614 558 552
3 617 558 614
3 618 619 620
3 618 621 622
3 620 621 618
3 622 623 624
3 621 623 622
3 623 625 624
3 626 619 618
3 627 619 626
3 622 628 618
3 628 626 618
3 624 629 622
3 629 628 622
3 630 624 625
3 630 631 624
3 631 629 624
3 630 632 631
3 561 633 634
3 560 633 561
3 627 626 562
3 627 562 634
3 634 562 561
3 564 562 626
3 628 564 626
3 566 564 628
3 629 566 628
3 568 566 629
3 568 629 635
3 635 629 631
3 636 631 632
3 636 637 631
3 637 635 631
3 636 638 637
3 560 569 633
3 633 569 639
3 635 640 571
3 568 635 571
3 637 641 635
3 641 640 635
3 642 637 638
3 641 637 642
3 569 572 639
3 639 572 643
3 571 640 573
3 575 573 640
3 575 640 644
3 644 640 641
3 645 641 642
3 644 641 645
3 572 576 643
3 643 576 646
3 644 647 577
3 575 644 577
3 648 644 645
3 647 644 648
3 576 578 646
3 646 578 649
3 577 647 579
3 581 650 651
3 579 650 581
3 579 648 650
3 579 647 648
3 650 652 651
3 578 582 649
3 649 582 653
3 651 654 583
3 581 651 583
3 655 651 652
3 654 651 655
3 582 585 653
3 653 585 656
3 654 657 586
3 583 654 586
3 658 654 655
3 657 654 658
3 585 588 656
3 656 588 659
3 586 657 589
3 657 590 589
3 657 658 590
3 658 660 590
3 661 592 662
3 661 659 592
3 659 588 592
3 661 662 663
3 590 660 593
3 660 664 593
3 662 594 665
3 592 594 662
3 666 663 662
3 665 666 662
3 593 664 595
3 664 667 595
3 594 596 665
3 665 668 666
3 665 596 668
3 596 599 668
3 668 599 600
3 669 668 600
3 595 667 601
3 667 670 601
3 671 603 672
3 671 669 603
3 669 600 603
3 671 672 673
3 605 674 675
3 606 605 675
3 670 605 601
3 674 605 670
3 603 608 672
3 610 676 677
3 608 610 677
3 608 677 673
3 608 673 672
3 676 678 679
3 677 676 679
3 678 680 681
3 679 678 681
3 680 675 681
3 680 612 675
3 612 606 675
3 676 613 682
3 610 613 676
3 678 676 683
3 683 676 682
3 680 678 684
3 684 678 683
3 612 684 614
3 680 684 612
3 613 615 682
3 616 682 615
3 683 682 616
3 617 683 616
3 684 683 617
3 614 684 617
3 685 686 687
3 685 688 689
3 687 688 685
3 689 690 691
3 688 690 689
3 690 692 691
3 620 693 694
3 619 693 620
3 686 685 621
3 686 621 694
3 694 621 620
3 623 621 685
3 689 623 685
3 625 623 689
3 625 689 695
3 695 689 691
3 696 691 692
3 696 697 691
3 697 695 691
3 696 698 697
3 619 627 693
3 693 627 699
3 625 695 630
3 632 630 695
3 632 695 700
3 700 695 697
3 701 697 698
3 700 697 701
3 634 633 702
3 634 702 703
3 634 703 627
3 627 703 699
3 632 700 636
3 700 638 636
3 700 701 638
3 701 704 638
3 702 639 705
3 633 639 702
3 706 703 702
3 705 706 702
3 638 704 642
3 704 707 642
3 705 643 708
3 639 643 705
3 709 706 705
3 708 709 705
3 642 707 645
3 707 710 645
3 708 711 712
3 708 643 711
3 643 646 711
3 709 708 712
3 645 710 648
3 710 713 648
3 646 649 711
3 711 649 714
3 648 713 715
3 650 648 715
3 715 652 650
3 716 652 715
3 717 653 718
3 717 714 653
3 714 649 653
3 717 718 719
3 652 716 655
3 716 720 655
3 718 656 721
3 653 656 718
3 722 719 718
3 721 722 718
3 655 720 658
3 720 723 658
3 721 659 724
3 656 659 721
3 725 722 721
3 724 725 721
3 658 723 660
3 723 726 660
3 659 661 724
3 663 727 728
3 661 663 728
3 661 728 725
3 661 725 724
3 728 727 729
3 660 726 664
3 726 730 664
3 727 666 731
3 663 666 727
3 732 729 727
3 731 732 727
3 664 730 667
3 730 733 667
3 666 668 731
3 669 734 735
3 668 669 735
3 668 735 732
3 668 732 731
3 734 736 737
3 735 734 737
3 736 738 739
3 737 736 739
3 738 740 741
3 739 738 741
3 740 742 743
3 741 740 743
3 742 733 743
3 742 670 733
3 670 667 733
3 669 671 734
3 673 734 671
3 673 744 734
3 744 736 734
3 738 736 745
3 745 736 744
3 740 738 746
3 746 738 745
3 674 746 675
3 674 742 746
3 742 740 746
3 670 742 674
3 673 677 744
3 679 744 677
3 745 744 679
3 681 745 679
3 746 745 681
3 675 746 681
3 747 748 749
3 747 750 751
3 749 750 747
3 751 752 753
3 750 752 751
3 752 754 753
3 755 748 747
3 756 748 755
3 751 757 747
3 757 755 747
3 753 758 751
3 758 757 751
3 759 753 754
3 758 753 759
3 760 756 755
3 761 756 760
3 757 762 755
3 762 760 755
3 758 763 757
3 763 762 757
3 764 758 759
3 763 758 764
3 765 766 767
3 761 765 767
3 761 760 765
3 760 768 765
3 762 769 760
3 769 768 760
3 770 763 771
3 770 769 763
3 769 762 763
3 764 771 763
3 772 766 765
3 773 766 772
3 768 774 765
3 774 772 765
3 769 775 768
3 775 774 768
3 776 769 770
3 775 769 776
3 687 777 778
3 686 777 687
3 773 772 688
3 773 688 778
3 778 688 687
3 690 688 772
3 774 690 772
3 692 690 774
3 692 774 779
3 779 774 775
3 780 775 776
3 779 775 780
3 694 781 782
3 693 781 694
3 777 686 694
3 782 777 694
3 692 779 696
3 779 698 696
3 779 780 698
3 780 783 698
3 693 699 781
3 781 699 784
3 698 783 701
3 783 785 701
3 699 703 784
3 784 703 786
3 701 785 704
3 785 787 704
3 703 706 786
3 786 706 788
3 704 787 707
3 787 789 707
3 706 709 788
3 788 709 790
3 707 789 710
3 789 791 710
3 712 711 792
3 712 792 793
3 712 793 709
3 709 793 790
3 710 791 713
3 791 794 713
3 792 714 795
3 711 714 792
3 796 793 792
3 795 796 792
3 713 794 797
3 715 713 797
3 797 716 715
3 798 716 797
3 714 717 795
3 719 799 800
3 717 719 800
3 717 800 796
3 717 796 795
3 800 799 801
3 716 798 720
3 798 802 720
3 799 722 803
3 719 722 799
3 804 801 799
3 803 804 799
3 720 802 723
3 802 805 723
3 803 725 806
3 722 725 803
3 807 804 803
3 806 807 803
3 808 809 810
3 808 805 809
3 808 726 805
3 726 723 805
3 725 728 806
3 729 811 812
3 728 729 812
3 728 812 807
3 728 807 806
3 812 811 813
3 814 808 810
3 815 814 810
3 726 814 730
3 808 814 726
3 811 732 816
3 729 732 811
3 817 813 811
3 817 811 818
3 818 811 816
3 818 819 820
3 817 818 820
3 819 821 822
3 820 819 822
3 815 822 821
3 815 821 814
3 814 821 823
3 730 823 733
3 814 823 730
3 732 735 816
3 737 816 735
3 818 816 737
3 739 818 737
3 819 818 739
3 741 819 739
3 821 819 741
3 743 821 741
3 823 821 743
3 733 823 743
3 749 824 825
3 748 824 749
3 750 749 826
3 749 825 826
3 752 750 827
3 750 826 827
3 827 754 752
3 828 754 827
3 748 756 824
3 824 756 829
3 754 828 759
3 828 830 759
3 756 761 829
3 829 761 831
3 759 830 764
3 830 832 764
3 767 833 834
3 766 833 767
3 831 761 767
3 834 831 767
3 771 835 836
3 770 771 836
3 832 771 764
3 835 771 832
3 766 773 833
3 833 773 837
3 770 836 776
3 836 838 776
3 778 839 840
3 777 839 778
3 837 773 778
3 840 837 778
3 776 838 780
3 838 841 780
3 782 781 842
3 782 842 843
3 782 843 777
3 777 843 839
3 780 841 783
3 841 844 783
3 842 784 845
3 781 784 842
3 846 843 842
3 845 846 842
3 783 844 785
3 844 847 785
3 845 786 848
3 784 786 845
3 849 846 845
3 848 849 845
3 785 847 787
3 847 850 787
3 848 788 851
3 786 788 848
3 852 849 848
3 851 852 848
3 787 850 789
3 850 853 789
3 851 790 854
3 788 790 851
3 855 852 851
3 854 855 851
3 789 853 791
3 853 856 791
3 854 793 857
3 790 793 854
3 858 855 854
3 858 854 859
3 859 854 857
3 858 859 860
3 791 856 794
3 856 861 794
3 857 796 862
3 793 796 857
3 859 857 863
3 863 857 862
3 864 860 859
3 863 864 859
3 865 797 794
3 865 794 866
3 866 794 861
3 797 865 798
3 796 800 862
3 801 862 800
3 801 867 862
3 867 863 862
3 868 864 863
3 867 868 863
3 869 865 866
3 870 869 866
3 798 869 802
3 865 869 798
3 867 804 871
3 801 804 867
3 872 868 867
3 871 872 867
3 873 869 870
3 874 873 870
3 802 873 805
3 869 873 802
3 871 807 875
3 804 807 871
3 876 872 871
3 876 871 877
3 877 871 875
3 877 878 879
3 876 877 879
3 878 880 881
3 879 878 881
3 874 881 880
3 873 874 880
3 873 880 810
3 873 810 809
3 805 873 809
3 807 812 875
3 813 875 812
3 813 882 875
3 882 877 875
3 878 877 883
3 883 877 882
3 880 878 884
3 884 878 883
3 810 884 815
3 880 884 810
3 813 817 882
3 820 882 817
3 883 882 820
3 822 883 820
3 884 883 822
3 815 884 822
3 825 885 886
3 824 885 825
3 826 825 887
3 825 886 887
3 827 826 888
3 826 887 888
3 888 828 827
3 889 828 888
3 824 829 885
3 885 829 890
3 828 889 830
3 889 891 830
3 829 831 890
3 890 831 892
3 830 891 832
3 891 893 832
3 834 833 894
3 895 892 831
3 895 831 894
3 895 894 896
3 894 831 834
3 896 897 898
3 895 896 898
3 897 836 835
3 897 835 898
3 898 835 899
3 893 835 832
3 899 835 893
3 894 900 901
3 894 833 900
3 833 837 900
3 896 894 901
3 902 896 901
3 897 896 902
3 903 897 902
3 903 836 897
3 903 904 836
3 904 838 836
3 840 839 905
3 840 905 906
3 840 906 837
3 837 906 900
3 838 904 841
3 904 907 841
3 905 843 908
3 839 843 905
3 909 906 905
3 908 909 905
3 841 907 844
3 907 910 844
3 908 846 911
3 843 846 908
3 912 909 908
3 911 912 908
3 844 910 847
3 910 913 847
3 911 849 914
3 846 849 911
3 915 912 911
3 914 915 911
3 847 913 850
3 913 916 850
3 914 852 917
3 849 852 914
3 918 915 914
3 917 918 914
3 850 916 853
3 916 919 853
3 917 855 920
3 852 855 917
3 921 918 917
3 920 921 917
3 853 919 856
3 919 922 856
3 855 858 920
3 920 858 860
3 920 860 921
3 921 860 923
3 856 922 861
3 922 924 861
3 925 864 926
3 925 923 864
3 923 860 864
3 926 927 928
3 925 926 928
3 927 929 930
3 928 927 930
3 929 924 930
3 929 866 924
3 866 861 924
3 926 868 931
3 864 868 926
3 927 926 932
3 932 926 931
3 929 927 933
3 933 927 932
3 866 933 870
3 929 933 866
3 931 872 934
3 868 872 931
3 932 931 935
3 935 931 934
3 933 932 936
3 936 932 935
3 870 936 874
3 933 936 870
3 872 876 934
3 879 934 876
3 935 934 879
3 881 935 879
3 936 935 881
3 874 936 881
3 886 885 937
3 886 938 887
3 937 938 886
3 887 939 888
3 938 939 887
3 888 939 889
3 937 890 940
3 885 890 937
3 938 937 941
3 941 937 940
3 939 938 942
3 942 938 941
3 889 942 891
3 939 942 889
3 940 892 943
3 890 892 940
3 941 940 944
3 944 940 943
3 942 941 945
3 945 941 944
3 891 945 893
3 942 945 891
3 892 895 943
3 898 943 895
3 944 943 898
3 899 944 898
3 945 944 899
3 893 945 899
3 901 900 946
3 901 947 902
3 946 947 901
3 902 948 903
3 947 948 902
3 903 948 904
3 946 906 949
3 900 906 946
3 947 946 950
3 950 946 949
3 948 947 951
3 951 947 950
3 904 951 907
3 948 951 904
3 949 909 952
3 906 909 949
3 950 949 953
3 953 949 952
3 951 950 954
3 954 950 953
3 907 954 910
3 951 954 907
3 952 912 955
3 909 912 952
3 953 952 956
3 956 952 955
3 954 953 957
3 957 953 956
3 910 957 913
3 954 957 910
3 955 915 958
3 912 915 955
3 956 955 959
3 959 955 958
3 957 956 960
3 960 956 959
3 913 960 916
3 957 960 913
3 958 918 961
3 915 918 958
3 959 958 962
3 962 958 961
3 960 959 963
3 963 959 962
3 916 963 919
3 960 963 916
3 961 921 964
3 918 921 961
3 962 961 965
3 965 961 964
3 963 962 966
3 966 962 965
3 919 966 922
3 963 966 919
3 964 923 967
3 921 923 964
3 965 964 968
3 968 964 967
3 966 965 969
3 969 965 968
3 922 969 924
3 966 969 922
3 923 925 967
3 928 967 925
3 968 967 928
3 930 968 928
3 969 968 930
3 924 969 930
