# vtk DataFile Version 3.0
this file was written using fslvtkio
ASCII
DATASET POLYDATA
POINTS 642 float
124.587 140.875 101.915
117.843 142.398 103.733
117.212 136.184 101.8
122.834 135.586 101.035
121.671 138.872 103.655
122.969 137.52 97.8793
119.3 138.166 99.4994
118.166 139.538 105.235
121.867 143.599 105.935
119.539 134.369 103.557
120.099 133.299 99.0114
121.971 143.491 100.949
119.464 142.186 106.887
122.02 141.577 105.097
119.885 139.497 104.343
118.628 136.882 103.84
120.719 136.627 103.465
120.111 141.28 99.8805
121.137 137.668 98.066
122.614 140.686 99.642
118.942 135.428 97.946
122.184 134.781 97.0989
122.673 136.938 102.978
123.242 140.253 103.176
123.205 138.363 101.093
123.618 136.053 98.9507
123.87 139.682 100.048
117.093 141.554 105.748
117.077 137.889 103.938
116.767 139.733 102.587
117.836 141.164 100.969
117.873 137.124 100.225
124.748 143.156 101.27
124.332 142.818 104.168
122.698 144.768 103.762
119.701 143.526 102.437
119.028 144.547 105.934
122.379 133.735 99.9373
119.466 132.588 102.195
121.992 134.131 102.68
117.463 133.713 100.194
117.526 134.616 102.933
120.91 141.897 106.022
120.827 140.816 104.739
119.741 141.153 105.433
120.819 139.25 103.821
121.704 140.398 104.073
122.146 142.678 105.728
120.659 143.014 106.884
118.82 140.928 105.916
118.915 139.591 104.744
119.551 137.958 104.759
120.509 137.683 104.317
119.661 136.759 103.654
121.483 137.406 104.148
118.383 137.942 104.888
118.856 135.522 103.383
119.978 135.503 103.159
120.924 139.363 99.5609
121.832 138.934 99.0393
121.477 140.952 99.6358
122.669 138.811 98.8979
122.088 137.513 97.5134
120.205 137.963 98.7546
119.739 139.721 99.7027
120.939 142.64 100.215
122.429 142.301 100.065
120.364 135.078 97.3056
121.294 136.272 96.6773
119.95 136.546 97.466
122.877 136.205 97.0021
121.154 133.881 98.0508
119.371 133.949 98.2778
119.244 136.716 98.5325
122.799 138.632 102.81
123.199 139.124 102.114
122.92 137.766 101.934
123.833 139.662 101.503
123.97 140.689 102.68
122.228 139.738 103.196
122.398 137.706 103.836
122.516 136.469 101.785
122.759 136.998 100.978
122.969 137.225 100.123
123.896 138.872 100.474
123.253 137.908 99.4457
124.723 140.432 100.827
123.249 135.728 100.026
123.446 136.925 98.1295
123.3 138.528 99.0495
116.69 139.651 104.988
116.796 138.924 103.587
116.622 140.717 104.418
117.213 137.935 102.187
116.951 137.007 102.841
117.484 138.506 104.933
117.478 140.448 106.036
117.439 142.127 104.773
117.023 141.18 103.156
116.97 140.415 101.637
117.439 138.381 101.404
117.961 139.082 100.657
117.468 136.538 100.983
117.775 141.878 102.247
118.65 139.731 100.182
118.481 137.6 99.5568
125.197 143.378 102.881
124.474 144.144 104.177
124.155 144.437 102.34
122.373 144.435 105.208
123.39 143.201 105.089
124.87 141.779 103.029
125.385 141.885 101.441
123.299 143.668 101.029
122.335 144.512 102.097
121.01 144.597 103.075
120.81 144.589 104.824
119.473 144.191 104.083
120.554 144.262 106.467
120.888 143.681 101.639
118.653 143.094 103.142
118.552 143.326 104.804
121.205 132.997 100.939
121.34 132.678 102.649
122.763 133.245 101.678
120.762 134.128 103.367
119.515 133.029 103.512
119.848 132.824 100.335
121.293 133.309 99.3784
123.056 134.485 100.656
122.407 135.011 101.787
117.147 133.82 101.848
117.859 133.082 102.88
118.133 132.692 101.095
118.314 134.267 103.48
116.973 135.341 102.359
117.09 135.016 101.055
118.572 133.017 99.4483
122.658 141.019 104.096
123.272 142.22 104.749
123.856 141.495 103.791
125.026 141.574 100.198
123.751 142.31 100.262
123.51 140.507 99.6894
121.072 135.547 102.89
121.819 136.695 103.465
121.98 135.799 102.47
123.043 134.611 99.3207
123.504 135.189 97.8255
122.434 134.141 98.4773
118.936 143.613 107.495
118.162 141.892 106.487
118.192 143.025 106.034
118.518 142.547 101.535
118.858 141.322 100.259
119.696 142.713 100.821
117.407 136.132 103.12
117.679 136.998 103.902
118.062 135.594 103.192
117.971 134.435 98.7614
118.347 136.016 99.1196
117.498 135.452 99.9225
120.888 141.335 105.3
120.277 140.933 105.063
120.313 141.443 105.757
119.821 140.39 104.857
120.371 140.201 104.643
121.412 141.288 104.951
121.404 141.806 105.455
120.281 142.029 106.533
119.667 141.68 106.171
120.781 140.063 104.244
121.345 140.633 104.445
121.204 139.848 103.862
121.924 140.965 104.646
120.341 139.5 104.06
121.211 139.024 103.647
121.531 139.622 103.578
121.448 142.38 105.858
120.793 142.519 106.433
121.406 142.803 106.345
120.075 142.668 106.925
122.113 142.205 105.516
122.042 143.096 105.947
121.321 143.374 106.521
119.279 141.134 105.653
119.274 140.456 104.987
118.841 140.387 105.281
119.381 139.618 104.556
119.059 141.645 106.37
118.387 140.238 105.429
118.463 139.62 104.906
120.09 137.877 104.515
120.128 137.192 104.074
119.615 137.319 104.259
120.186 136.696 103.569
120.683 137.136 104.135
120.235 138.693 104.276
119.677 138.775 104.422
119.057 137.335 104.336
119.127 136.884 103.691
121.024 137.474 104.26
120.719 138.48 104.126
121.14 138.227 104.039
121.125 137.004 103.916
121.577 138.054 103.944
119.196 138.721 104.632
118.983 137.869 104.831
118.716 138.725 104.877
118.521 137.362 104.466
118.264 138.705 105.026
119.238 136.157 103.469
119.813 136.137 103.403
119.468 135.55 103.333
120.361 136.082 103.26
118.75 136.21 103.497
119.142 134.962 103.411
119.778 134.912 103.324
121.407 139.068 99.2999
121.69 139.946 99.4313
121.114 140.237 99.4567
122.051 140.745 99.6163
122.166 139.899 99.245
121.527 138.257 98.7351
121.041 138.421 98.9605
120.427 140.489 99.5889
120.838 141.079 99.8038
122.247 138.848 98.7827
121.931 138.027 98.3623
122.41 137.967 98.3488
121.578 137.567 97.6851
122.675 139.862 99.1933
122.757 138.045 98.3619
122.61 137.535 97.588
120.536 138.499 99.1467
120.358 139.481 99.639
120.057 138.553 99.4736
119.776 140.584 99.7076
120.683 137.779 98.435
119.774 137.974 99.2158
119.622 138.731 99.7309
121.287 141.751 99.8795
121.982 141.552 99.816
121.693 142.463 100.059
122.523 141.358 99.9284
120.557 141.9 99.9921
121.422 143.113 100.552
122.165 143.047 100.302
120.896 135.571 96.9448
120.558 136.565 97.0701
120.139 135.827 97.2249
120.529 137.117 97.7252
121.039 137.077 97.2386
121.842 135.448 96.8475
121.275 134.913 97.1915
119.666 135.265 97.5223
119.436 135.977 97.583
121.708 136.926 96.9514
122.176 136.178 96.7613
122.421 136.996 96.9524
122.697 135.399 96.9132
123.049 136.887 97.2198
120.705 134.398 97.5301
119.908 134.499 97.681
120.305 133.89 98.0571
119.051 134.664 97.9901
121.62 134.366 97.5923
120.658 133.617 98.5352
119.908 133.501 98.6669
119.582 136.609 97.9913
120.121 137.206 98.1366
119.764 137.333 98.7538
118.997 136.074 98.1019
119.373 137.523 99.0845
122.956 138.864 102.49
122.982 138.481 101.959
122.929 138.068 102.443
122.94 138.198 101.449
123.296 138.746 101.603
123.07 139.736 102.637
122.75 139.533 102.73
122.887 137.596 102.998
122.913 137.32 102.423
123.435 139.428 101.804
123.503 140.021 102.44
123.812 140.162 102.055
123.571 140.515 102.983
123.64 138.987 101.277
124.149 140.368 101.735
124.245 140.817 102.32
122.491 139.207 102.999
122.676 138.083 103.355
122.321 138.718 103.437
122.616 137.271 103.548
122.673 140.095 103.126
121.82 139.321 103.31
122.091 138.199 103.819
122.714 137.019 101.843
122.603 137.456 101.321
122.672 136.729 101.3
122.732 137.755 100.955
122.631 136.711 102.365
122.548 136.013 101.308
122.958 136.175 100.961
123.354 138.066 100.271
123.57 138.369 99.945
123.116 137.522 99.7611
123.582 138.67 99.6438
123.871 139.211 100.217
123.669 138.591 100.8
123.042 137.775 100.612
123.266 136.62 99.5931
123.25 136.988 99.1891
124.246 139.698 100.72
123.952 139.359 101.05
124.262 140.091 101.239
124.382 140.15 100.354
124.582 140.705 101.412
122.834 137.069 100.578
123.089 136.493 100.026
123.107 136.328 100.6
123.427 135.835 99.4926
123.178 135.676 100.623
123.282 137.306 98.9026
123.323 138.186 99.1492
123.161 137.692 98.5995
123.529 138.989 99.5099
123.508 136.458 98.5133
123.236 137.239 97.9238
122.993 137.988 98.5536
116.612 139.328 104.317
116.664 139.803 104.009
116.474 140.265 104.711
116.573 140.255 103.533
116.734 139.423 103.229
116.84 138.336 103.749
116.878 138.78 104.47
116.744 140.674 105.479
116.754 141.195 105.052
117.049 138.472 102.859
117.029 137.926 103.084
117.145 137.49 102.503
116.942 137.416 103.324
116.966 138.871 102.442
117.212 136.969 101.912
117.072 136.544 102.283
117.09 139.012 105.114
116.958 140.061 105.704
117.489 139.51 105.411
117.082 140.938 106.088
117.232 138.22 104.449
117.855 138.958 105.26
117.905 140.004 105.678
117.007 141.411 104.557
116.748 140.947 103.758
117.134 141.652 103.952
116.761 140.484 102.938
117.272 141.915 105.295
117.621 142.297 104.173
117.402 141.865 103.441
117.212 139.327 101.498
117.701 138.665 100.994
117.501 139.656 101.143
117.957 138.073 100.465
117.685 137.727 100.829
117.065 139.122 101.946
116.802 140.032 102.076
117.41 140.763 101.326
117.794 140.175 100.805
117.503 137.492 101.208
117.272 138.181 101.796
117.373 137.253 101.605
117.623 136.784 100.556
117.371 136.338 101.391
116.884 140.944 102.337
117.277 141.268 101.857
117.408 141.513 102.723
117.711 141.547 101.522
117.853 142.105 103.003
118.323 139.415 100.44
118.291 138.238 100.204
118.698 138.549 100.058
118.146 137.382 99.8514
118.209 140.497 100.545
119.142 138.782 99.959
118.913 137.883 99.5374
124.96 143.864 103.58
124.46 144.486 103.274
124.814 144.013 102.587
123.562 144.764 103.074
123.719 144.659 103.893
124.62 143.347 104.273
124.98 143.092 103.671
125.221 143.3 101.9
124.557 143.901 101.649
123.433 144.42 104.665
124.009 143.723 104.817
123.011 143.95 105.203
124.003 142.977 104.775
122.611 144.683 104.516
122.111 143.976 105.618
122.592 143.376 105.587
125.323 142.594 102.953
125.445 142.684 102.128
125.204 141.961 102.252
125.184 142.649 101.361
124.565 142.397 103.633
124.704 141.339 102.433
125.098 141.291 101.785
123.733 144.188 101.657
123.234 144.583 102.275
122.812 144.015 101.566
122.602 144.783 102.936
124.038 143.553 101.216
122.6 143.568 101
122.149 143.938 101.587
120.956 144.567 103.937
120.011 144.578 104.494
120.171 144.448 103.587
119.215 144.468 104.997
119.959 144.64 105.462
121.684 144.68 104.251
121.823 144.658 103.471
120.317 144.209 102.834
119.671 143.956 103.239
120.675 144.56 105.66
121.653 144.604 105.017
121.466 144.327 105.784
119.831 144.496 106.411
121.274 143.978 106.335
121.772 144.729 102.623
120.91 144.264 102.362
121.554 144.227 101.883
120.411 143.682 102.115
121.427 143.543 101.242
119.155 143.559 103.602
118.907 143.886 104.441
118.617 143.225 103.939
118.608 144.087 105.352
119.174 143.344 102.783
118.135 142.785 103.474
118.125 142.89 104.293
121.219 132.742 101.779
122.209 132.664 102.137
121.953 133.061 101.221
122.63 133.417 102.351
121.964 133.211 102.765
120.445 132.671 102.38
120.345 132.768 101.63
121.87 133.301 100.412
122.481 133.528 100.848
121.345 133.301 103.208
120.429 132.835 103.133
120.407 133.434 103.576
119.562 132.714 102.896
121.408 134.14 102.983
120.072 134.2 103.576
119.574 133.711 103.678
120.466 132.849 100.74
121.231 133.141 100.182
120.624 132.983 99.8497
121.839 133.46 99.585
119.546 132.727 101.332
119.952 132.993 99.5339
120.652 133.294 99.0869
123.013 133.891 101.239
122.894 133.98 101.963
122.893 134.715 101.319
122.324 134.426 102.238
122.75 134.06 100.377
123.036 135.069 100.997
122.464 135.451 101.318
117.456 133.36 102.42
118.021 132.718 102.093
117.486 133.101 101.549
118.726 132.629 101.659
118.668 132.64 102.479
117.639 133.867 102.967
117.368 134.096 102.514
117.369 133.806 101.124
117.607 133.146 100.646
118.522 132.944 103.382
117.975 133.731 103.496
118.718 133.684 103.626
117.877 134.437 103.15
118.956 134.325 103.559
117.087 134.567 102.121
117.143 134.47 101.457
117.203 135.152 101.821
117.187 134.421 100.648
117.184 134.874 102.644
117.093 135.791 102.04
117.2 135.596 101.429
118.354 132.843 100.302
119.045 132.806 100.814
119.287 132.935 99.9949
117.851 133.297 99.7513
119.399 133.1 99.1926
123.044 141.548 104.397
123.622 141.86 104.164
123.252 141.344 103.983
124.055 142.202 103.934
123.883 142.487 104.581
122.666 141.921 104.914
122.442 141.321 104.629
123.027 140.707 103.665
123.547 140.946 103.549
123.436 142.698 105.07
122.791 142.401 105.356
122.879 142.85 105.633
122.123 140.78 104.083
122.399 140.477 103.522
121.976 140.135 103.593
123.906 141.058 103.294
124.373 141.674 103.491
124.361 141.213 102.9
124.488 142.128 100.252
123.682 141.414 100.145
124.099 141.125 100.175
123.118 140.676 99.6886
123.094 141.426 100.097
124.283 142.893 100.732
124.913 142.447 100.711
124.345 140.677 100.125
123.774 140.085 99.8324
123.009 142.202 100.16
123.574 143.012 100.604
122.85 143.024 100.429
125.195 141.829 100.759
124.952 140.924 100.428
124.948 141.154 101.131
123.344 139.391 99.4406
123.023 139.767 99.3526
122.981 138.662 98.9695
121.337 136.177 102.934
121.906 136.307 102.953
121.578 135.63 102.705
122.339 136.463 102.701
122.354 136.798 103.406
121.287 136.645 103.45
120.805 136.105 103.035
121.455 134.871 102.717
121.899 134.978 102.462
122.195 137.152 103.829
121.643 137.056 103.876
121.928 137.615 103.963
120.548 135.517 103.041
120.946 134.742 103.015
120.31 134.785 103.176
122.089 135.364 102.078
122.279 136.11 102.11
122.261 135.786 101.68
123.442 134.773 98.5602
122.965 134.622 98.0373
122.798 134.343 98.8727
122.375 134.339 97.8156
122.913 134.897 97.4406
123.667 135.585 98.4499
123.392 135.229 99.1641
122.643 134.107 99.5914
122.365 133.882 99.1649
123.27 135.734 97.3258
123.652 136.079 97.9349
123.465 136.63 97.4698
123.331 135.12 99.7217
122.978 134.464 99.9802
123.254 134.966 100.369
121.943 133.687 98.8673
121.876 133.891 98.2094
121.341 133.567 98.6536
118.539 142.693 106.986
118.178 142.467 106.264
118.261 143.59 106.872
117.761 142.254 105.853
117.672 141.628 106.264
118.717 142.06 106.737
119.264 142.713 107.42
118.853 144.334 106.874
118.369 143.96 106.096
117.826 141.067 106.34
118.417 141.341 106.314
118.129 140.716 105.954
119.905 143.154 107.276
119.684 144.086 107.157
120.573 143.671 106.871
118.283 143.306 105.461
117.885 142.534 105.4
117.834 142.818 104.83
118.663 142.053 100.787
119.302 142.034 100.466
119.051 142.758 101.154
119.851 142.012 100.178
119.501 141.288 100.076
118.272 141.254 100.569
118.159 141.875 101.153
119.085 143.046 101.986
119.743 143.229 101.644
119.223 140.598 99.9202
118.679 140.555 100.226
119.12 139.779 99.8562
118.127 142.198 101.889
118.568 142.82 102.335
118.236 142.475 102.706
120.433 143.186 101.363
120.188 142.708 100.372
120.816 143.219 100.841
117.503 136.588 103.546
117.889 136.326 103.316
117.756 135.717 103.147
118.225 136.242 103.384
118.085 136.821 104.013
117.332 137.428 104.008
117.063 137.011 103.493
117.339 135.282 103.046
117.804 135.134 103.154
117.984 137.411 104.51
117.562 137.706 104.469
117.872 138.124 105.005
117.096 136.545 103.059
117.133 135.593 102.876
117.039 136.06 102.571
118.122 134.927 103.256
118.394 135.502 103.34
118.552 134.887 103.333
118.063 135.294 98.8573
117.902 135.75 99.4404
117.541 134.919 99.2973
117.866 136.245 100.058
118.072 136.5 99.6666
118.535 135.726 98.5017
118.448 135.012 98.3341
117.736 134.099 99.4613
117.377 134.654 99.9407
118.389 136.829 99.2498
118.902 136.364 98.8238
118.923 137.146 99.0912
118.663 134.117 98.4685
118.153 133.629 99.0593
119.022 133.469 98.8707
117.207 135.138 100.43
117.503 135.894 100.424
117.28 135.731 100.899
POLYGONS 1280  5120
3 164 162 163
3 163 44 164
3 162 43 163
3 164 42 162
3 166 165 163
3 163 43 166
3 165 44 163
3 166 14 165
3 168 167 162
3 162 42 168
3 167 43 162
3 168 13 167
3 170 169 164
3 164 44 170
3 169 42 164
3 170 12 169
3 173 171 172
3 172 46 173
3 171 43 172
3 173 45 171
3 167 174 172
3 172 43 167
3 174 46 172
3 167 13 174
3 175 166 171
3 171 45 175
3 166 43 171
3 175 14 166
3 177 176 173
3 173 46 177
3 176 45 173
3 177 4 176
3 180 178 179
3 179 48 180
3 178 42 179
3 180 47 178
3 169 181 179
3 179 42 169
3 181 48 179
3 169 12 181
3 182 168 178
3 178 47 182
3 168 42 178
3 182 13 168
3 184 183 180
3 180 48 184
3 183 47 180
3 184 8 183
3 187 185 186
3 186 50 187
3 185 44 186
3 187 49 185
3 165 188 186
3 186 44 165
3 188 50 186
3 165 14 188
3 189 170 185
3 185 49 189
3 170 44 185
3 189 12 170
3 191 190 187
3 187 50 191
3 190 49 187
3 191 7 190
3 194 192 193
3 193 53 194
3 192 52 193
3 194 51 192
3 196 195 193
3 193 52 196
3 195 53 193
3 196 16 195
3 198 197 192
3 192 51 198
3 197 52 192
3 198 14 197
3 200 199 194
3 194 53 200
3 199 51 194
3 200 15 199
3 203 201 202
3 202 45 203
3 201 52 202
3 203 54 201
3 197 175 202
3 202 52 197
3 175 45 202
3 197 14 175
3 204 196 201
3 201 54 204
3 196 52 201
3 204 16 196
3 176 205 203
3 203 45 176
3 205 54 203
3 176 4 205
3 208 206 207
3 207 55 208
3 206 51 207
3 208 50 206
3 199 209 207
3 207 51 199
3 209 55 207
3 199 15 209
3 188 198 206
3 206 50 188
3 198 51 206
3 188 14 198
3 210 191 208
3 208 55 210
3 191 50 208
3 210 7 191
3 213 211 212
3 212 57 213
3 211 53 212
3 213 56 211
3 195 214 212
3 212 53 195
3 214 57 212
3 195 16 214
3 215 200 211
3 211 56 215
3 200 53 211
3 215 15 200
3 217 216 213
3 213 57 217
3 216 56 213
3 217 9 216
3 220 218 219
3 219 60 220
3 218 59 219
3 220 58 218
3 222 221 219
3 219 59 222
3 221 60 219
3 222 19 221
3 224 223 218
3 218 58 224
3 223 59 218
3 224 18 223
3 226 225 220
3 220 60 226
3 225 58 220
3 226 17 225
3 229 227 228
3 228 62 229
3 227 59 228
3 229 61 227
3 223 230 228
3 228 59 223
3 230 62 228
3 223 18 230
3 231 222 227
3 227 61 231
3 222 59 227
3 231 19 222
3 233 232 229
3 229 62 233
3 232 61 229
3 233 5 232
3 236 234 235
3 235 64 236
3 234 58 235
3 236 63 234
3 225 237 235
3 235 58 225
3 237 64 235
3 225 17 237
3 238 224 234
3 234 63 238
3 224 58 234
3 238 18 224
3 240 239 236
3 236 64 240
3 239 63 236
3 240 6 239
3 243 241 242
3 242 66 243
3 241 60 242
3 243 65 241
3 221 244 242
3 242 60 221
3 244 66 242
3 221 19 244
3 245 226 241
3 241 65 245
3 226 60 241
3 245 17 226
3 247 246 243
3 243 66 247
3 246 65 243
3 247 11 246
3 250 248 249
3 249 69 250
3 248 68 249
3 250 67 248
3 252 251 249
3 249 68 252
3 251 69 249
3 252 18 251
3 254 253 248
3 248 67 254
3 253 68 248
3 254 21 253
3 256 255 250
3 250 69 256
3 255 67 250
3 256 20 255
3 259 257 258
3 258 70 259
3 257 68 258
3 259 62 257
3 253 260 258
3 258 68 253
3 260 70 258
3 253 21 260
3 230 252 257
3 257 62 230
3 252 68 257
3 230 18 252
3 261 233 259
3 259 70 261
3 233 62 259
3 261 5 233
3 264 262 263
3 263 72 264
3 262 67 263
3 264 71 262
3 255 265 263
3 263 67 255
3 265 72 263
3 255 20 265
3 266 254 262
3 262 71 266
3 254 67 262
3 266 21 254
3 268 267 264
3 264 72 268
3 267 71 264
3 268 10 267
3 271 269 270
3 270 63 271
3 269 69 270
3 271 73 269
3 251 238 270
3 270 69 251
3 238 63 270
3 251 18 238
3 272 256 269
3 269 73 272
3 256 69 269
3 272 20 256
3 239 273 271
3 271 63 239
3 273 73 271
3 239 6 273
3 276 274 275
3 275 76 276
3 274 75 275
3 276 74 274
3 278 277 275
3 275 75 278
3 277 76 275
3 278 24 277
3 280 279 274
3 274 74 280
3 279 75 274
3 280 23 279
3 282 281 276
3 276 76 282
3 281 74 276
3 282 22 281
3 285 283 284
3 284 78 285
3 283 75 284
3 285 77 283
3 279 286 284
3 284 75 279
3 286 78 284
3 279 23 286
3 287 278 283
3 283 77 287
3 278 75 283
3 287 24 278
3 289 288 285
3 285 78 289
3 288 77 285
3 289 0 288
3 292 290 291
3 291 80 292
3 290 74 291
3 292 79 290
3 281 293 291
3 291 74 281
3 293 80 291
3 281 22 293
3 294 280 290
3 290 79 294
3 280 74 290
3 294 23 280
3 296 295 292
3 292 80 296
3 295 79 292
3 296 4 295
3 299 297 298
3 298 82 299
3 297 76 298
3 299 81 297
3 277 300 298
3 298 76 277
3 300 82 298
3 277 24 300
3 301 282 297
3 297 81 301
3 282 76 297
3 301 22 282
3 303 302 299
3 299 82 303
3 302 81 299
3 303 3 302
3 306 304 305
3 305 85 306
3 304 84 305
3 306 83 304
3 308 307 305
3 305 84 308
3 307 85 305
3 308 26 307
3 310 309 304
3 304 83 310
3 309 84 304
3 310 24 309
3 312 311 306
3 306 85 312
3 311 83 306
3 312 25 311
3 315 313 314
3 314 77 315
3 313 84 314
3 315 86 313
3 309 287 314
3 314 84 309
3 287 77 314
3 309 24 287
3 316 308 313
3 313 86 316
3 308 84 313
3 316 26 308
3 288 317 315
3 315 77 288
3 317 86 315
3 288 0 317
3 320 318 319
3 319 87 320
3 318 83 319
3 320 82 318
3 311 321 319
3 319 83 311
3 321 87 319
3 311 25 321
3 300 310 318
3 318 82 300
3 310 83 318
3 300 24 310
3 322 303 320
3 320 87 322
3 303 82 320
3 322 3 303
3 325 323 324
3 324 89 325
3 323 85 324
3 325 88 323
3 307 326 324
3 324 85 307
3 326 89 324
3 307 26 326
3 327 312 323
3 323 88 327
3 312 85 323
3 327 25 312
3 329 328 325
3 325 89 329
3 328 88 325
3 329 5 328
3 332 330 331
3 331 92 332
3 330 91 331
3 332 90 330
3 334 333 331
3 331 91 334
3 333 92 331
3 334 29 333
3 336 335 330
3 330 90 336
3 335 91 330
3 336 28 335
3 338 337 332
3 332 92 338
3 337 90 332
3 338 27 337
3 341 339 340
3 340 94 341
3 339 91 340
3 341 93 339
3 335 342 340
3 340 91 335
3 342 94 340
3 335 28 342
3 343 334 339
3 339 93 343
3 334 91 339
3 343 29 334
3 345 344 341
3 341 94 345
3 344 93 341
3 345 2 344
3 348 346 347
3 347 96 348
3 346 90 347
3 348 95 346
3 337 349 347
3 347 90 337
3 349 96 347
3 337 27 349
3 350 336 346
3 346 95 350
3 336 90 346
3 350 28 336
3 352 351 348
3 348 96 352
3 351 95 348
3 352 7 351
3 355 353 354
3 354 98 355
3 353 92 354
3 355 97 353
3 333 356 354
3 354 92 333
3 356 98 354
3 333 29 356
3 357 338 353
3 353 97 357
3 338 92 353
3 357 27 338
3 359 358 355
3 355 98 359
3 358 97 355
3 359 1 358
3 362 360 361
3 361 101 362
3 360 100 361
3 362 99 360
3 364 363 361
3 361 100 364
3 363 101 361
3 364 31 363
3 366 365 360
3 360 99 366
3 365 100 360
3 366 29 365
3 368 367 362
3 362 101 368
3 367 99 362
3 368 30 367
3 371 369 370
3 370 93 371
3 369 100 370
3 371 102 369
3 365 343 370
3 370 100 365
3 343 93 370
3 365 29 343
3 372 364 369
3 369 102 372
3 364 100 369
3 372 31 364
3 344 373 371
3 371 93 344
3 373 102 371
3 344 2 373
3 376 374 375
3 375 103 376
3 374 99 375
3 376 98 374
3 367 377 375
3 375 99 367
3 377 103 375
3 367 30 377
3 356 366 374
3 374 98 356
3 366 99 374
3 356 29 366
3 378 359 376
3 376 103 378
3 359 98 376
3 378 1 359
3 381 379 380
3 380 105 381
3 379 101 380
3 381 104 379
3 363 382 380
3 380 101 363
3 382 105 380
3 363 31 382
3 383 368 379
3 379 104 383
3 368 101 379
3 383 30 368
3 385 384 381
3 381 105 385
3 384 104 381
3 385 6 384
3 388 386 387
3 387 108 388
3 386 107 387
3 388 106 386
3 390 389 387
3 387 107 390
3 389 108 387
3 390 34 389
3 392 391 386
3 386 106 392
3 391 107 386
3 392 33 391
3 394 393 388
3 388 108 394
3 393 106 388
3 394 32 393
3 397 395 396
3 396 110 397
3 395 107 396
3 397 109 395
3 391 398 396
3 396 107 391
3 398 110 396
3 391 33 398
3 399 390 395
3 395 109 399
3 390 107 395
3 399 34 390
3 401 400 397
3 397 110 401
3 400 109 397
3 401 8 400
3 404 402 403
3 403 112 404
3 402 106 403
3 404 111 402
3 393 405 403
3 403 106 393
3 405 112 403
3 393 32 405
3 406 392 402
3 402 111 406
3 392 106 402
3 406 33 392
3 408 407 404
3 404 112 408
3 407 111 404
3 408 0 407
3 411 409 410
3 410 114 411
3 409 108 410
3 411 113 409
3 389 412 410
3 410 108 389
3 412 114 410
3 389 34 412
3 413 394 409
3 409 113 413
3 394 108 409
3 413 32 394
3 415 414 411
3 411 114 415
3 414 113 411
3 415 11 414
3 418 416 417
3 417 117 418
3 416 116 417
3 418 115 416
3 420 419 417
3 417 116 420
3 419 117 417
3 420 36 419
3 422 421 416
3 416 115 422
3 421 116 416
3 422 34 421
3 424 423 418
3 418 117 424
3 423 115 418
3 424 35 423
3 427 425 426
3 426 109 427
3 425 116 426
3 427 118 425
3 421 399 426
3 426 116 421
3 399 109 426
3 421 34 399
3 428 420 425
3 425 118 428
3 420 116 425
3 428 36 420
3 400 429 427
3 427 109 400
3 429 118 427
3 400 8 429
3 432 430 431
3 431 119 432
3 430 115 431
3 432 114 430
3 423 433 431
3 431 115 423
3 433 119 431
3 423 35 433
3 412 422 430
3 430 114 412
3 422 115 430
3 412 34 422
3 434 415 432
3 432 119 434
3 415 114 432
3 434 11 415
3 437 435 436
3 436 121 437
3 435 117 436
3 437 120 435
3 419 438 436
3 436 117 419
3 438 121 436
3 419 36 438
3 439 424 435
3 435 120 439
3 424 117 435
3 439 35 424
3 441 440 437
3 437 121 441
3 440 120 437
3 441 1 440
3 444 442 443
3 443 124 444
3 442 123 443
3 444 122 442
3 446 445 443
3 443 123 446
3 445 124 443
3 446 39 445
3 448 447 442
3 442 122 448
3 447 123 442
3 448 38 447
3 450 449 444
3 444 124 450
3 449 122 444
3 450 37 449
3 453 451 452
3 452 126 453
3 451 123 452
3 453 125 451
3 447 454 452
3 452 123 447
3 454 126 452
3 447 38 454
3 455 446 451
3 451 125 455
3 446 123 451
3 455 39 446
3 457 456 453
3 453 126 457
3 456 125 453
3 457 9 456
3 460 458 459
3 459 128 460
3 458 122 459
3 460 127 458
3 449 461 459
3 459 122 449
3 461 128 459
3 449 37 461
3 462 448 458
3 458 127 462
3 448 122 458
3 462 38 448
3 464 463 460
3 460 128 464
3 463 127 460
3 464 10 463
3 467 465 466
3 466 130 467
3 465 124 466
3 467 129 465
3 445 468 466
3 466 124 445
3 468 130 466
3 445 39 468
3 469 450 465
3 465 129 469
3 450 124 465
3 469 37 450
3 471 470 467
3 467 130 471
3 470 129 467
3 471 3 470
3 474 472 473
3 473 133 474
3 472 132 473
3 474 131 472
3 476 475 473
3 473 132 476
3 475 133 473
3 476 38 475
3 478 477 472
3 472 131 478
3 477 132 472
3 478 41 477
3 480 479 474
3 474 133 480
3 479 131 474
3 480 40 479
3 483 481 482
3 482 134 483
3 481 132 482
3 483 126 481
3 477 484 482
3 482 132 477
3 484 134 482
3 477 41 484
3 454 476 481
3 481 126 454
3 476 132 481
3 454 38 476
3 485 457 483
3 483 134 485
3 457 126 483
3 485 9 457
3 488 486 487
3 487 136 488
3 486 131 487
3 488 135 486
3 479 489 487
3 487 131 479
3 489 136 487
3 479 40 489
3 490 478 486
3 486 135 490
3 478 131 486
3 490 41 478
3 492 491 488
3 488 136 492
3 491 135 488
3 492 2 491
3 495 493 494
3 494 127 495
3 493 133 494
3 495 137 493
3 475 462 494
3 494 133 475
3 462 127 494
3 475 38 462
3 496 480 493
3 493 137 496
3 480 133 493
3 496 40 480
3 463 497 495
3 495 127 463
3 497 137 495
3 463 10 497
3 500 498 499
3 499 140 500
3 498 139 499
3 500 138 498
3 502 501 499
3 499 139 502
3 501 140 499
3 502 33 501
3 504 503 498
3 498 138 504
3 503 139 498
3 504 13 503
3 506 505 500
3 500 140 506
3 505 138 500
3 506 23 505
3 509 507 508
3 508 47 509
3 507 139 508
3 509 110 507
3 503 182 508
3 508 139 503
3 182 47 508
3 503 13 182
3 398 502 507
3 507 110 398
3 502 139 507
3 398 33 502
3 183 401 509
3 509 47 183
3 401 110 509
3 183 8 401
3 512 510 511
3 511 79 512
3 510 138 511
3 512 46 510
3 505 294 511
3 511 138 505
3 294 79 511
3 505 23 294
3 174 504 510
3 510 46 174
3 504 138 510
3 174 13 504
3 295 177 512
3 512 79 295
3 177 46 512
3 295 4 177
3 515 513 514
3 514 111 515
3 513 140 514
3 515 78 513
3 501 406 514
3 514 140 501
3 406 111 514
3 501 33 406
3 286 506 513
3 513 78 286
3 506 140 513
3 286 23 506
3 407 289 515
3 515 111 407
3 289 78 515
3 407 0 289
3 518 516 517
3 517 143 518
3 516 142 517
3 518 141 516
3 520 519 517
3 517 142 520
3 519 143 517
3 520 19 519
3 522 521 516
3 516 141 522
3 521 142 516
3 522 32 521
3 524 523 518
3 518 143 524
3 523 141 518
3 524 26 523
3 527 525 526
3 526 113 527
3 525 142 526
3 527 66 525
3 521 413 526
3 526 142 521
3 413 113 526
3 521 32 413
3 244 520 525
3 525 66 244
3 520 142 525
3 244 19 520
3 414 247 527
3 527 113 414
3 247 66 527
3 414 11 247
3 530 528 529
3 529 86 530
3 528 141 529
3 530 112 528
3 523 316 529
3 529 141 523
3 316 86 529
3 523 26 316
3 405 522 528
3 528 112 405
3 522 141 528
3 405 32 522
3 317 408 530
3 530 86 317
3 408 112 530
3 317 0 408
3 533 531 532
3 532 61 533
3 531 143 532
3 533 89 531
3 519 231 532
3 532 143 519
3 231 61 532
3 519 19 231
3 326 524 531
3 531 89 326
3 524 143 531
3 326 26 524
3 232 329 533
3 533 61 232
3 329 89 533
3 232 5 329
3 536 534 535
3 535 146 536
3 534 145 535
3 536 144 534
3 538 537 535
3 535 145 538
3 537 146 535
3 538 22 537
3 540 539 534
3 534 144 540
3 539 145 534
3 540 16 539
3 542 541 536
3 536 146 542
3 541 144 536
3 542 39 541
3 545 543 544
3 544 54 545
3 543 145 544
3 545 80 543
3 539 204 544
3 544 145 539
3 204 54 544
3 539 16 204
3 293 538 543
3 543 80 293
3 538 145 543
3 293 22 538
3 205 296 545
3 545 54 205
3 296 80 545
3 205 4 296
3 548 546 547
3 547 125 548
3 546 144 547
3 548 57 546
3 541 455 547
3 547 144 541
3 455 125 547
3 541 39 455
3 214 540 546
3 546 57 214
3 540 144 546
3 214 16 540
3 456 217 548
3 548 125 456
3 217 57 548
3 456 9 217
3 551 549 550
3 550 81 551
3 549 146 550
3 551 130 549
3 537 301 550
3 550 146 537
3 301 81 550
3 537 22 301
3 468 542 549
3 549 130 468
3 542 146 549
3 468 39 542
3 302 471 551
3 551 81 302
3 471 130 551
3 302 3 471
3 554 552 553
3 553 149 554
3 552 148 553
3 554 147 552
3 556 555 553
3 553 148 556
3 555 149 553
3 556 21 555
3 558 557 552
3 552 147 558
3 557 148 552
3 558 25 557
3 560 559 554
3 554 149 560
3 559 147 554
3 560 37 559
3 563 561 562
3 562 88 563
3 561 148 562
3 563 70 561
3 557 327 562
3 562 148 557
3 327 88 562
3 557 25 327
3 260 556 561
3 561 70 260
3 556 148 561
3 260 21 556
3 328 261 563
3 563 88 328
3 261 70 563
3 328 5 261
3 566 564 565
3 565 129 566
3 564 147 565
3 566 87 564
3 559 469 565
3 565 147 559
3 469 129 565
3 559 37 469
3 321 558 564
3 564 87 321
3 558 147 564
3 321 25 558
3 470 322 566
3 566 129 470
3 322 87 566
3 470 3 322
3 569 567 568
3 568 71 569
3 567 149 568
3 569 128 567
3 555 266 568
3 568 149 555
3 266 71 568
3 555 21 266
3 461 560 567
3 567 128 461
3 560 149 567
3 461 37 560
3 267 464 569
3 569 71 267
3 464 128 569
3 267 10 464
3 572 570 571
3 571 152 572
3 570 151 571
3 572 150 570
3 574 573 571
3 571 151 574
3 573 152 571
3 574 27 573
3 576 575 570
3 570 150 576
3 575 151 570
3 576 12 575
3 578 577 572
3 572 152 578
3 577 150 572
3 578 36 577
3 581 579 580
3 580 49 581
3 579 151 580
3 581 96 579
3 575 189 580
3 580 151 575
3 189 49 580
3 575 12 189
3 349 574 579
3 579 96 349
3 574 151 579
3 349 27 574
3 190 352 581
3 581 49 190
3 352 96 581
3 190 7 352
3 584 582 583
3 583 118 584
3 582 150 583
3 584 48 582
3 577 428 583
3 583 150 577
3 428 118 583
3 577 36 428
3 181 576 582
3 582 48 181
3 576 150 582
3 181 12 576
3 429 184 584
3 584 118 429
3 184 48 584
3 429 8 184
3 587 585 586
3 586 97 587
3 585 152 586
3 587 121 585
3 573 357 586
3 586 152 573
3 357 97 586
3 573 27 357
3 438 578 585
3 585 121 438
3 578 152 585
3 438 36 578
3 358 441 587
3 587 97 358
3 441 121 587
3 358 1 441
3 590 588 589
3 589 155 590
3 588 154 589
3 590 153 588
3 592 591 589
3 589 154 592
3 591 155 589
3 592 17 591
3 594 593 588
3 588 153 594
3 593 154 588
3 594 30 593
3 596 595 590
3 590 155 596
3 595 153 590
3 596 35 595
3 599 597 598
3 598 104 599
3 597 154 598
3 599 64 597
3 593 383 598
3 598 154 593
3 383 104 598
3 593 30 383
3 237 592 597
3 597 64 237
3 592 154 597
3 237 17 592
3 384 240 599
3 599 104 384
3 240 64 599
3 384 6 240
3 602 600 601
3 601 120 602
3 600 153 601
3 602 103 600
3 595 439 601
3 601 153 595
3 439 120 601
3 595 35 439
3 377 594 600
3 600 103 377
3 594 153 600
3 377 30 594
3 440 378 602
3 602 120 440
3 378 103 602
3 440 1 378
3 605 603 604
3 604 65 605
3 603 155 604
3 605 119 603
3 591 245 604
3 604 155 591
3 245 65 604
3 591 17 245
3 433 596 603
3 603 119 433
3 596 155 603
3 433 35 596
3 246 434 605
3 605 65 246
3 434 119 605
3 246 11 434
3 608 606 607
3 607 158 608
3 606 157 607
3 608 156 606
3 610 609 607
3 607 157 610
3 609 158 607
3 610 15 609
3 612 611 606
3 606 156 612
3 611 157 606
3 612 28 611
3 614 613 608
3 608 158 614
3 613 156 608
3 614 41 613
3 617 615 616
3 616 95 617
3 615 157 616
3 617 55 615
3 611 350 616
3 616 157 611
3 350 95 616
3 611 28 350
3 209 610 615
3 615 55 209
3 610 157 615
3 209 15 610
3 351 210 617
3 617 95 351
3 210 55 617
3 351 7 210
3 620 618 619
3 619 135 620
3 618 156 619
3 620 94 618
3 613 490 619
3 619 156 613
3 490 135 619
3 613 41 490
3 342 612 618
3 618 94 342
3 612 156 618
3 342 28 612
3 491 345 620
3 620 135 491
3 345 94 620
3 491 2 345
3 623 621 622
3 622 56 623
3 621 158 622
3 623 134 621
3 609 215 622
3 622 158 609
3 215 56 622
3 609 15 215
3 484 614 621
3 621 134 484
3 614 158 621
3 484 41 614
3 216 485 623
3 623 56 216
3 485 134 623
3 216 9 485
3 626 624 625
3 625 161 626
3 624 160 625
3 626 159 624
3 628 627 625
3 625 160 628
3 627 161 625
3 628 31 627
3 630 629 624
3 624 159 630
3 629 160 624
3 630 20 629
3 632 631 626
3 626 161 632
3 631 159 626
3 632 40 631
3 635 633 634
3 634 73 635
3 633 160 634
3 635 105 633
3 629 272 634
3 634 160 629
3 272 73 634
3 629 20 272
3 382 628 633
3 633 105 382
3 628 160 633
3 382 31 628
3 273 385 635
3 635 73 273
3 385 105 635
3 273 6 385
3 638 636 637
3 637 137 638
3 636 159 637
3 638 72 636
3 631 496 637
3 637 159 631
3 496 137 637
3 631 40 496
3 265 630 636
3 636 72 265
3 630 159 636
3 265 20 630
3 497 268 638
3 638 137 497
3 268 72 638
3 497 10 268
3 641 639 640
3 640 102 641
3 639 161 640
3 641 136 639
3 627 372 640
3 640 161 627
3 372 102 640
3 627 31 372
3 489 632 639
3 639 136 489
3 632 161 639
3 489 40 632
3 373 492 641
3 641 102 373
3 492 136 641
3 373 2 492
