# vtk DataFile Version 3.0
this file was written using fslvtkio
ASCII
DATASET POLYDATA
POINTS 642 float
94.8488 129.805 108.439
86.8283 136.095 104.096
84.1199 119.557 104.054
89.3757 113.798 107.727
90.0157 120.84 115.505
92.7947 125.772 102.249
89.796 127.91 100.033
84.3429 125.261 111.774
90.7058 137.131 111.95
84.6506 109.264 109.908
86.1436 108.857 98.3086
98.3514 139.133 101.025
86.5788 132.133 113.187
90.2423 128.892 115.134
86.0489 122.52 116.031
83.6118 117.089 112.225
86.6181 113.663 115.086
95.0366 135.298 97.9533
92.5042 127.465 100.648
100.239 132.805 99.9826
86.6225 116.135 100.572
87.3901 115.617 101.444
90.397 116.185 112.025
93.2087 125.363 112.528
91.8904 122.185 108.535
89.892 119.525 104.992
94.852 128.757 104.645
84.9172 131.981 108.495
83.5199 122.476 107.935
85.0837 128.425 104.311
89.0168 133.53 100.574
86.5549 123.808 101.891
98.3908 135.558 105.045
94.0586 134.175 110.492
94.2173 141.019 106.349
92.1631 140.614 101.663
88.6351 139.795 108.094
87.7988 109.536 104.009
84.5885 106.019 103.508
87.6107 107.153 109.624
84.2065 112.519 101.544
83.4683 113.667 106.934
87.8998 130.338 115.09
87.9209 125.848 116.693
86.0661 127.357 115.119
88.0811 121.127 116.518
90.2154 124.814 115.894
90.3527 133.376 113.668
88.414 135.337 113.403
85.2069 128.645 112.702
84.9178 123.925 113.932
84.7113 119.456 114.478
86.2606 117.847 116.285
84.9292 115.041 113.902
88.8768 116.77 116.059
83.7615 121.195 112.162
84.3906 113.101 111.139
85.4768 110.45 112.507
94.8545 131.76 98.9099
96.3591 131.16 99.8939
98.3251 134.255 98.0461
96.0487 130.161 101.439
92.9247 126.692 101.311
91.4524 128.032 99.9554
92.4122 131.897 99.3078
97.2782 137.644 98.9497
100.518 136.54 99.8309
87.0301 115.136 99.554
88.6597 121.179 101.474
88.9871 122.545 101.113
90.2766 121.426 102.305
87.6099 111.711 99.5633
86.0818 112.226 97.0139
88.6749 123.885 100.318
92.2247 120.932 112.599
93.1537 123.56 110.473
91.4072 119.186 110.266
93.585 126.243 108.429
94.1169 127.741 110.546
91.925 123.263 114.571
90.4566 118.075 114.085
89.9019 114.475 109.829
90.3374 117.98 108.186
90.9392 121.179 106.585
92.8327 125.286 106.494
92.4627 124.244 104.788
95.2634 129.437 106.439
89.3588 116.307 106.193
91.2517 122.384 103.419
94.3288 127.524 103.051
84.1947 127.177 108.323
84.1801 125.544 106.043
84.6955 130.062 106.331
84.6277 123.792 104.04
83.717 120.819 105.836
83.9558 123.766 110.007
84.8062 128.817 110.317
85.5694 134.396 106.328
85.8264 132.708 104.017
86.7279 130.711 102.31
85.5597 126.412 102.552
87.4663 129.075 100.886
85.0381 120.779 102.507
88.0156 135.074 102.125
89.7413 130.873 100.04
87.8712 126.169 100.234
96.2104 135.565 107.758
94.3124 137.775 108.159
96.4506 138.436 105.483
92.0861 139.656 109.141
92.4453 136.002 111.127
95.0586 132.045 109.457
96.9611 132.821 106.935
98.8775 137.298 102.95
96.496 140.897 103.496
93.4597 142.733 103.798
91.2754 142.502 107.468
89.8774 141.554 104.863
89.4995 139.418 110.594
95.7457 141.009 100.565
89.2929 138.8 103.003
87.8421 138.082 106.039
86.8931 105.753 103.058
86.1926 104.21 106.716
87.6839 107.33 106.406
85.6279 106.495 110.285
84.8205 107.082 107.219
84.892 106.457 100.184
86.9915 108.93 101.256
88.4094 111.327 106.225
88.3267 110.364 108.639
83.5988 112.52 104.242
84.1442 109.523 105.505
84.1995 109.019 102.314
83.8895 111.115 108.383
83.1561 116.338 105.222
83.6495 116.049 102.846
84.5466 110.134 99.2609
92.1067 127.612 113.959
92.2006 131.929 112.883
93.7188 129.933 111.927
97.8553 132.391 104.526
100.011 134.066 102.473
98.0917 131.288 102.75
87.4427 109.907 112.899
89.0323 113.839 113.926
88.6308 111.628 111.425
88.2679 114.271 104.508
88.8216 117.626 103.31
87.5668 112.711 102.43
87.2816 136.491 111.004
85.6513 132.714 110.853
86.4083 136.152 108.58
90.601 137.422 100.507
91.5625 134.901 98.8619
93.8757 138.21 99.3628
83.0711 117.862 107.617
83.1986 119.31 109.912
83.3127 115.179 109.587
84.9719 113.998 99.5634
86.8168 119.541 101.706
84.7825 117.177 100.942
87.9062 128.199 116.053
86.8175 126.492 116.189
86.7039 128.96 115.478
86.1377 124.856 115.552
86.8806 124.149 116.612
89.043 127.375 115.953
89.0191 129.459 115.259
87.0773 131.47 114.305
86.1951 129.651 114.264
88.042 123.614 116.975
89.1115 125.18 116.262
89.1406 122.942 116.488
90.1438 126.864 115.62
86.9934 121.82 116.795
89.1447 120.645 116.168
90.1472 122.745 115.778
89.0806 131.756 114.056
88.2711 132.958 114.287
89.2949 134.021 113.823
87.3891 133.892 113.435
90.1355 130.887 114.264
90.5204 135.316 112.912
89.619 136.314 112.896
85.5103 128.082 113.993
85.5648 125.733 114.567
85.093 126.303 113.446
85.4251 123.121 114.927
85.7978 130.31 113.093
84.7945 126.872 112.231
84.7045 124.56 112.831
85.267 118.368 115.491
85.5198 116.313 115.243
84.8098 117.183 114.411
85.7158 114.192 114.654
86.4276 115.705 115.998
86.1924 120.14 116.209
85.2907 120.696 115.356
84.3128 118.18 113.436
84.3052 116.019 113.043
87.536 116.95 116.414
87.1589 119.289 116.738
88.2802 118.765 116.482
87.7363 115.077 116
89.3684 118.763 115.8
84.9075 121.679 114.251
84.1746 120.275 113.406
84.4215 122.394 113.168
83.594 119.168 112.402
84.3276 123.258 111.918
84.7467 113.953 112.529
85.3903 112.855 113.215
84.875 111.703 111.981
86.0695 112.01 113.755
83.8354 115.058 111.798
84.3274 111.018 110.786
84.9094 109.557 111.317
95.6377 131.294 99.4205
97.7135 132.402 98.9062
96.6171 132.792 98.4754
99.4348 133.684 98.9116
98.5148 132.231 99.5284
94.177 129.538 100.351
93.8742 130.099 99.8386
95.3387 133.434 98.124
96.8028 134.787 98.127
96.8087 130.995 100.541
94.5393 129.447 100.829
94.7115 128.977 101.39
92.6963 126.876 100.977
98.4398 131.697 100.704
94.1965 128.134 102.091
92.8531 126.307 101.852
93.1367 130.322 99.6455
93.7999 132.164 98.799
92.2186 130.325 99.474
93.7804 133.781 98.3397
92.0222 127.82 100.264
90.7249 128.214 99.7961
90.852 129.781 99.5667
98.0678 136.119 98.1886
99.7864 135.58 98.5222
99.0819 137.349 99.1225
100.797 134.682 99.8365
96.1531 136.603 98.424
98.1045 138.782 99.7462
99.508 138.06 100.452
86.7606 117.371 101.048
89.007 121.358 100.591
86.8176 117.789 100.852
91.0977 125.439 100.508
91.085 124.488 100.82
86.9415 117.722 101.3
87.1054 115.228 100.594
86.513 115.389 99.4836
87.5156 118.773 101.345
91.0963 124.236 101.33
89.1048 121.136 101.798
91.6669 124.182 101.748
88.1411 118.699 102.017
91.7713 123.315 102.291
87.5685 113.331 99.2447
87.0936 113.647 98.011
86.9543 111.642 98.0303
85.9473 114.187 97.8388
87.5519 113.472 100.603
87.0155 110.133 98.7491
85.8524 110.193 97.3356
88.9474 123.053 101.03
90.4748 125.718 100.364
90.1076 126.432 99.9418
87.9349 120.006 101.607
89.2609 126.3 99.7733
92.9119 122.081 111.6
92.2086 121.333 110.563
91.8961 119.899 111.462
91.6839 120.666 109.418
92.6078 122.717 109.561
93.3497 124.332 111.53
92.7942 123.249 112.684
91.2763 118.605 112.313
91.0435 117.842 111.242
93.4126 124.876 109.362
93.6554 125.572 110.5
93.9753 126.942 109.533
93.6461 126.544 111.493
92.7982 124.152 108.471
94.248 128.089 108.413
94.4932 128.853 109.465
92.1729 121.779 113.604
91.2783 119.456 113.322
91.1812 120.652 114.333
90.5488 116.937 113.065
92.5099 124.267 113.629
91.011 122.092 115.156
90.3454 119.391 115.026
90.5035 116.936 110.112
90.8316 118.577 109.242
90.3616 116.349 109.041
91.0117 120.226 108.344
90.1901 115.408 110.954
89.8282 114.158 108.677
89.9219 115.874 107.931
91.9187 123.321 106.456
92.7397 124.918 105.561
91.4162 122.851 105.738
93.5301 126.582 104.608
93.7869 127.044 105.554
92.3236 123.673 107.482
91.4751 121.724 107.435
90.4504 120.448 105.831
91.1327 121.741 104.954
93.9697 127.475 106.459
93.3289 125.751 107.404
94.1076 127.802 107.358
95.1133 129.092 105.578
95.07 129.587 107.408
90.4316 119.625 107.295
90.0351 118.811 106.364
89.8288 117.421 107.153
89.4165 117.714 105.536
89.3709 115 106.959
92.0141 123.408 104.082
93.1825 125.67 103.891
92.7007 124.856 103.401
94.6505 128.077 103.779
90.7106 120.981 104.155
92.0303 124.113 102.738
93.3768 126.637 102.645
84.0593 126.382 107.174
84.6977 127.807 106.245
84.4286 128.685 107.353
84.895 129.311 105.26
84.6636 126.936 105.094
83.8385 124.077 107.021
83.9157 124.849 108.1
84.5459 129.601 108.445
84.7498 130.99 107.419
84.4318 124.633 105.006
83.7421 123.232 105.947
83.9914 122.354 104.974
83.5182 121.68 106.889
84.7468 126.043 103.985
84.4002 121.662 103.96
83.8522 120.094 104.864
83.9754 125.451 109.196
84.4338 128.061 109.273
84.3098 126.422 110.105
84.7653 130.478 109.539
83.5453 123.095 109.021
84.1527 124.56 110.914
84.6512 127.022 111.14
85.0179 132.167 106.342
85.2371 131.305 105.285
85.5136 133.359 105.167
85.4318 130.68 104.152
85.0951 133.315 107.445
86.0258 135.28 105.138
86.2852 134.453 104.005
86.1868 128.603 102.268
86.3446 127.386 101.543
87.0315 129.865 101.439
86.8846 126.518 101.28
86.0711 125.107 101.975
85.2837 127.45 103.276
85.6951 129.6 103.174
87.779 132.002 101.555
88.4823 131.42 100.977
85.1872 123.484 102.265
85.0565 124.891 103.065
84.8846 122.513 103.142
85.5095 121.711 101.823
84.6155 120.057 103.259
86.3932 131.743 103.114
87.3287 132.998 102.225
86.7318 133.698 102.937
88.4651 134.141 101.335
87.5094 135.692 103.107
88.5667 130.023 100.423
87.7814 127.81 100.532
88.7033 128.494 100.006
87.1075 125.341 101.058
89.5302 132.309 100.198
89.8337 129.347 99.7702
88.8225 127.119 99.9139
95.2741 136.554 108.137
95.4074 138.152 106.9
96.4975 136.998 106.768
95.3593 139.797 105.9
94.2854 139.589 107.372
94.1436 136.113 109.366
94.9488 134.96 109.105
97.2909 135.634 106.309
97.5174 137.047 105.25
93.2932 138.817 108.67
93.3199 137.099 109.666
92.1271 137.75 109.921
93.2602 135.171 110.692
93.1556 140.618 107.864
91.2108 138.494 110.576
91.4833 136.659 111.521
95.7991 133.952 108.748
96.7818 134.234 107.447
95.9202 132.532 108.125
97.8002 134.151 106.05
94.6738 133.063 110.118
95.1669 130.768 109.056
95.8174 131.123 107.714
97.6978 138.058 104.311
96.5975 139.741 104.588
97.4619 138.938 103.202
95.4326 141.244 105.012
98.9535 136.428 103.898
98.9595 138.397 101.945
97.4569 139.988 102.145
92.4758 142.885 105.563
90.4626 142.464 106.197
91.5793 142.594 104.29
89.1263 140.968 106.499
89.638 141.461 107.829
93.058 142.166 106.998
94.0657 142.201 105.113
92.6992 141.999 102.531
90.9664 141.37 103.209
90.4546 141.024 108.82
91.7991 141.229 108.28
90.7582 139.836 109.718
88.9506 139.859 109.515
90.0266 138.249 111.376
95.1629 141.977 103.414
94.6278 141.743 102.115
96.2241 141.428 101.921
93.8186 141.037 100.978
97.2144 140.108 100.673
89.6936 140.281 103.844
88.8216 139.898 105.47
88.569 138.688 104.568
88.1188 139.148 106.974
90.749 139.851 102.33
88.145 137.339 103.607
87.2648 137.041 105.048
86.6678 104.666 104.59
87.309 105.4 106.549
87.3874 106.283 104.838
87.7903 106.907 107.981
87.2555 105.184 108.271
85.1244 104.847 104.848
85.6459 104.878 102.813
87.4121 107.422 103.526
87.6357 108.115 104.935
85.9057 105.35 108.561
85.0535 105.225 106.892
85.0803 106.643 108.578
84.6065 106.33 105.455
86.9648 106.15 110.37
85.0103 107.827 110.275
84.6539 108.22 108.776
86.1756 105.781 101.456
87.0305 107.356 102.149
86.5346 107.187 100.227
87.3727 109.129 102.785
84.752 105.967 101.688
85.5378 107.453 98.6355
86.7278 109 99.777
87.8817 109.081 106.267
87.8667 108.725 107.667
88.5758 110.499 107.266
88.059 108.606 109.105
88.0376 110.357 105.122
88.9521 112.734 107.014
89.0066 112.169 108.247
83.7964 110.855 104.833
84.2027 109.044 103.904
83.8877 110.634 103.293
84.367 107.421 102.909
84.4468 107.657 104.694
83.7378 111.376 106.227
83.6458 112.856 105.607
83.9945 112.409 102.892
84.1146 110.712 101.819
84.4039 108.276 106.415
84.0253 110.143 106.997
84.3589 109.086 107.91
83.6806 112.234 107.534
84.5088 110.263 109.216
83.4378 114.396 104.815
83.4374 114.166 103.389
83.5253 116.107 104.007
83.8339 114.267 102.25
83.2424 114.941 106.175
83.3272 117.972 104.566
83.6755 117.926 103.481
84.2178 109.472 100.73
84.3289 107.493 101.347
84.3147 107.858 99.4633
84.3424 111.302 100.373
84.6609 109.109 97.9618
92.1361 129.672 113.558
93.0531 130.899 112.507
92.8583 128.712 112.92
94.0047 132.074 111.45
93.0941 133.166 111.683
91.2227 130.468 113.966
91.1884 128.43 114.539
92.7527 126.501 113.325
93.4925 127.677 112.313
92.2387 133.893 112.048
91.3283 132.758 113.416
91.4785 134.856 112.453
91.2002 126.443 115.07
91.8394 125.568 114.271
90.9908 124.273 115.094
94.0636 128.798 111.257
94.6045 131.025 110.87
94.6819 129.929 110.176
98.9029 133.318 103.61
99.8293 132.46 102.55
97.9318 131.674 103.678
99.5463 131.904 101.555
100.655 133.376 101.263
99.4194 134.939 103.869
98.6597 133.948 104.892
96.4837 130.663 104.651
96.3108 130.291 103.82
100.675 135.043 101.037
99.9312 135.823 102.349
100.257 136.944 101.368
97.577 132.521 105.71
96.5198 130.847 105.618
96.3174 131.123 106.598
96.0565 129.906 102.867
97.3401 130.897 101.841
95.118 129.116 102.353
88.4872 111.667 113.473
88.9014 112.695 112.708
88.1753 110.451 112.03
89.3042 113.876 111.973
89.7552 114.685 112.939
87.8539 113.467 114.61
87.1794 111.693 114.216
87.5756 108.33 111.313
88.0295 109.321 110.651
89.6328 115.884 113.975
89.0858 115.043 115.302
89.5369 117.274 114.959
86.485 109.7 113.02
86.6098 107.765 111.626
85.5557 108.3 112.146
88.478 110.614 110.01
89.1268 112.751 110.623
89.0555 112.293 109.43
88.6405 115.889 103.841
88.2982 115.153 102.691
87.9322 113.463 103.499
87.7145 114.253 101.878
88.11 116.848 102.388
89.3519 118.455 104.243
88.9398 116.861 104.706
87.8104 111.894 104.296
87.5551 111.035 103.207
89.4524 119.55 102.731
89.9504 119.915 103.289
90.8269 121.637 102.735
89.0429 115.24 105.274
88.3363 112.77 105.31
88.864 113.857 106.091
87.3839 110.731 101.837
87.399 112.394 101.258
87.5605 110.558 100.406
86.3548 134.627 111.086
86.0789 134.493 109.809
86.9626 136.449 109.778
85.5584 134.115 108.599
85.3507 132.553 109.653
86.1443 132.595 112.066
86.8936 134.445 112.228
87.8867 138.409 109.567
87.459 138.041 108.381
85.0274 130.841 110.711
85.5309 130.764 111.902
85.1235 128.915 111.465
87.4878 136.084 112.469
88.2884 137.949 110.9
88.876 137.18 111.921
87.0518 137.186 107.294
85.7256 135.317 107.438
86.2396 136.334 106.196
91.0397 136.106 99.5892
92.6889 136.664 98.8546
92.1824 137.863 99.9278
94.3805 136.836 98.435
93.2341 135.259 98.3159
90.1925 134.243 99.6968
89.7659 135.489 100.465
91.4484 139.124 100.864
93.0886 139.549 100.291
92.0721 133.411 98.7833
90.7293 132.818 99.6721
90.9975 131.271 99.7097
89.2358 136.299 101.309
90.1235 138.143 101.757
88.8082 137.045 102.404
94.7285 139.756 99.957
95.5034 138.126 99.0604
96.425 139.315 99.7014
83.2216 118.6 108.738
83.3007 117.251 109.803
82.9007 116.401 108.645
83.345 116.14 110.896
83.4386 118.244 111.088
83.2334 120.824 108.883
83.2292 120.177 107.845
83.0956 115.706 107.419
83.379 114.385 108.208
83.3559 120.128 111.027
83.4339 121.537 109.988
83.8001 122.328 110.975
83.2695 119.229 106.631
82.9287 116.97 106.466
83.4465 118.482 105.608
83.8413 113.157 108.889
83.652 114.069 110.391
84.08 112.098 109.884
86.0876 116.71 100.294
85.9243 118.341 101.147
84.8866 115.553 100.3
85.8714 120.174 101.53
86.5597 121.707 101.744
87.1528 117.849 101.306
85.9855 115.013 99.6739
84.4546 112.992 100.332
83.9714 114.66 101.014
87.0473 123.172 100.311
87.5786 121.247 101.025
87.8242 124.248 99.5849
85.6186 113.15 98.2462
84.5829 112.172 98.8186
84.8654 111.295 97.682
84.0823 116.302 101.776
85.1645 118.943 101.816
84.3324 118.276 102.547
POLYGONS 1280  5120
3 164 162 163
3 163 44 164
3 162 43 163
3 164 42 162
3 166 165 163
3 163 43 166
3 165 44 163
3 166 14 165
3 168 167 162
3 162 42 168
3 167 43 162
3 168 13 167
3 170 169 164
3 164 44 170
3 169 42 164
3 170 12 169
3 173 171 172
3 172 46 173
3 171 43 172
3 173 45 171
3 167 174 172
3 172 43 167
3 174 46 172
3 167 13 174
3 175 166 171
3 171 45 175
3 166 43 171
3 175 14 166
3 177 176 173
3 173 46 177
3 176 45 173
3 177 4 176
3 180 178 179
3 179 48 180
3 178 42 179
3 180 47 178
3 169 181 179
3 179 42 169
3 181 48 179
3 169 12 181
3 182 168 178
3 178 47 182
3 168 42 178
3 182 13 168
3 184 183 180
3 180 48 184
3 183 47 180
3 184 8 183
3 187 185 186
3 186 50 187
3 185 44 186
3 187 49 185
3 165 188 186
3 186 44 165
3 188 50 186
3 165 14 188
3 189 170 185
3 185 49 189
3 170 44 185
3 189 12 170
3 191 190 187
3 187 50 191
3 190 49 187
3 191 7 190
3 194 192 193
3 193 53 194
3 192 52 193
3 194 51 192
3 196 195 193
3 193 52 196
3 195 53 193
3 196 16 195
3 198 197 192
3 192 51 198
3 197 52 192
3 198 14 197
3 200 199 194
3 194 53 200
3 199 51 194
3 200 15 199
3 203 201 202
3 202 45 203
3 201 52 202
3 203 54 201
3 197 175 202
3 202 52 197
3 175 45 202
3 197 14 175
3 204 196 201
3 201 54 204
3 196 52 201
3 204 16 196
3 176 205 203
3 203 45 176
3 205 54 203
3 176 4 205
3 208 206 207
3 207 55 208
3 206 51 207
3 208 50 206
3 199 209 207
3 207 51 199
3 209 55 207
3 199 15 209
3 188 198 206
3 206 50 188
3 198 51 206
3 188 14 198
3 210 191 208
3 208 55 210
3 191 50 208
3 210 7 191
3 213 211 212
3 212 57 213
3 211 53 212
3 213 56 211
3 195 214 212
3 212 53 195
3 214 57 212
3 195 16 214
3 215 200 211
3 211 56 215
3 200 53 211
3 215 15 200
3 217 216 213
3 213 57 217
3 216 56 213
3 217 9 216
3 220 218 219
3 219 60 220
3 218 59 219
3 220 58 218
3 222 221 219
3 219 59 222
3 221 60 219
3 222 19 221
3 224 223 218
3 218 58 224
3 223 59 218
3 224 18 223
3 226 225 220
3 220 60 226
3 225 58 220
3 226 17 225
3 229 227 228
3 228 62 229
3 227 59 228
3 229 61 227
3 223 230 228
3 228 59 223
3 230 62 228
3 223 18 230
3 231 222 227
3 227 61 231
3 222 59 227
3 231 19 222
3 233 232 229
3 229 62 233
3 232 61 229
3 233 5 232
3 236 234 235
3 235 64 236
3 234 58 235
3 236 63 234
3 225 237 235
3 235 58 225
3 237 64 235
3 225 17 237
3 238 224 234
3 234 63 238
3 224 58 234
3 238 18 224
3 240 239 236
3 236 64 240
3 239 63 236
3 240 6 239
3 243 241 242
3 242 66 243
3 241 60 242
3 243 65 241
3 221 244 242
3 242 60 221
3 244 66 242
3 221 19 244
3 245 226 241
3 241 65 245
3 226 60 241
3 245 17 226
3 247 246 243
3 243 66 247
3 246 65 243
3 247 11 246
3 250 248 249
3 249 69 250
3 248 68 249
3 250 67 248
3 252 251 249
3 249 68 252
3 251 69 249
3 252 18 251
3 254 253 248
3 248 67 254
3 253 68 248
3 254 21 253
3 256 255 250
3 250 69 256
3 255 67 250
3 256 20 255
3 259 257 258
3 258 70 259
3 257 68 258
3 259 62 257
3 253 260 258
3 258 68 253
3 260 70 258
3 253 21 260
3 230 252 257
3 257 62 230
3 252 68 257
3 230 18 252
3 261 233 259
3 259 70 261
3 233 62 259
3 261 5 233
3 264 262 263
3 263 72 264
3 262 67 263
3 264 71 262
3 255 265 263
3 263 67 255
3 265 72 263
3 255 20 265
3 266 254 262
3 262 71 266
3 254 67 262
3 266 21 254
3 268 267 264
3 264 72 268
3 267 71 264
3 268 10 267
3 271 269 270
3 270 63 271
3 269 69 270
3 271 73 269
3 251 238 270
3 270 69 251
3 238 63 270
3 251 18 238
3 272 256 269
3 269 73 272
3 256 69 269
3 272 20 256
3 239 273 271
3 271 63 239
3 273 73 271
3 239 6 273
3 276 274 275
3 275 76 276
3 274 75 275
3 276 74 274
3 278 277 275
3 275 75 278
3 277 76 275
3 278 24 277
3 280 279 274
3 274 74 280
3 279 75 274
3 280 23 279
3 282 281 276
3 276 76 282
3 281 74 276
3 282 22 281
3 285 283 284
3 284 78 285
3 283 75 284
3 285 77 283
3 279 286 284
3 284 75 279
3 286 78 284
3 279 23 286
3 287 278 283
3 283 77 287
3 278 75 283
3 287 24 278
3 289 288 285
3 285 78 289
3 288 77 285
3 289 0 288
3 292 290 291
3 291 80 292
3 290 74 291
3 292 79 290
3 281 293 291
3 291 74 281
3 293 80 291
3 281 22 293
3 294 280 290
3 290 79 294
3 280 74 290
3 294 23 280
3 296 295 292
3 292 80 296
3 295 79 292
3 296 4 295
3 299 297 298
3 298 82 299
3 297 76 298
3 299 81 297
3 277 300 298
3 298 76 277
3 300 82 298
3 277 24 300
3 301 282 297
3 297 81 301
3 282 76 297
3 301 22 282
3 303 302 299
3 299 82 303
3 302 81 299
3 303 3 302
3 306 304 305
3 305 85 306
3 304 84 305
3 306 83 304
3 308 307 305
3 305 84 308
3 307 85 305
3 308 26 307
3 310 309 304
3 304 83 310
3 309 84 304
3 310 24 309
3 312 311 306
3 306 85 312
3 311 83 306
3 312 25 311
3 315 313 314
3 314 77 315
3 313 84 314
3 315 86 313
3 309 287 314
3 314 84 309
3 287 77 314
3 309 24 287
3 316 308 313
3 313 86 316
3 308 84 313
3 316 26 308
3 288 317 315
3 315 77 288
3 317 86 315
3 288 0 317
3 320 318 319
3 319 87 320
3 318 83 319
3 320 82 318
3 311 321 319
3 319 83 311
3 321 87 319
3 311 25 321
3 300 310 318
3 318 82 300
3 310 83 318
3 300 24 310
3 322 303 320
3 320 87 322
3 303 82 320
3 322 3 303
3 325 323 324
3 324 89 325
3 323 85 324
3 325 88 323
3 307 326 324
3 324 85 307
3 326 89 324
3 307 26 326
3 327 312 323
3 323 88 327
3 312 85 323
3 327 25 312
3 329 328 325
3 325 89 329
3 328 88 325
3 329 5 328
3 332 330 331
3 331 92 332
3 330 91 331
3 332 90 330
3 334 333 331
3 331 91 334
3 333 92 331
3 334 29 333
3 336 335 330
3 330 90 336
3 335 91 330
3 336 28 335
3 338 337 332
3 332 92 338
3 337 90 332
3 338 27 337
3 341 339 340
3 340 94 341
3 339 91 340
3 341 93 339
3 335 342 340
3 340 91 335
3 342 94 340
3 335 28 342
3 343 334 339
3 339 93 343
3 334 91 339
3 343 29 334
3 345 344 341
3 341 94 345
3 344 93 341
3 345 2 344
3 348 346 347
3 347 96 348
3 346 90 347
3 348 95 346
3 337 349 347
3 347 90 337
3 349 96 347
3 337 27 349
3 350 336 346
3 346 95 350
3 336 90 346
3 350 28 336
3 352 351 348
3 348 96 352
3 351 95 348
3 352 7 351
3 355 353 354
3 354 98 355
3 353 92 354
3 355 97 353
3 333 356 354
3 354 92 333
3 356 98 354
3 333 29 356
3 357 338 353
3 353 97 357
3 338 92 353
3 357 27 338
3 359 358 355
3 355 98 359
3 358 97 355
3 359 1 358
3 362 360 361
3 361 101 362
3 360 100 361
3 362 99 360
3 364 363 361
3 361 100 364
3 363 101 361
3 364 31 363
3 366 365 360
3 360 99 366
3 365 100 360
3 366 29 365
3 368 367 362
3 362 101 368
3 367 99 362
3 368 30 367
3 371 369 370
3 370 93 371
3 369 100 370
3 371 102 369
3 365 343 370
3 370 100 365
3 343 93 370
3 365 29 343
3 372 364 369
3 369 102 372
3 364 100 369
3 372 31 364
3 344 373 371
3 371 93 344
3 373 102 371
3 344 2 373
3 376 374 375
3 375 103 376
3 374 99 375
3 376 98 374
3 367 377 375
3 375 99 367
3 377 103 375
3 367 30 377
3 356 366 374
3 374 98 356
3 366 99 374
3 356 29 366
3 378 359 376
3 376 103 378
3 359 98 376
3 378 1 359
3 381 379 380
3 380 105 381
3 379 101 380
3 381 104 379
3 363 382 380
3 380 101 363
3 382 105 380
3 363 31 382
3 383 368 379
3 379 104 383
3 368 101 379
3 383 30 368
3 385 384 381
3 381 105 385
3 384 104 381
3 385 6 384
3 388 386 387
3 387 108 388
3 386 107 387
3 388 106 386
3 390 389 387
3 387 107 390
3 389 108 387
3 390 34 389
3 392 391 386
3 386 106 392
3 391 107 386
3 392 33 391
3 394 393 388
3 388 108 394
3 393 106 388
3 394 32 393
3 397 395 396
3 396 110 397
3 395 107 396
3 397 109 395
3 391 398 396
3 396 107 391
3 398 110 396
3 391 33 398
3 399 390 395
3 395 109 399
3 390 107 395
3 399 34 390
3 401 400 397
3 397 110 401
3 400 109 397
3 401 8 400
3 404 402 403
3 403 112 404
3 402 106 403
3 404 111 402
3 393 405 403
3 403 106 393
3 405 112 403
3 393 32 405
3 406 392 402
3 402 111 406
3 392 106 402
3 406 33 392
3 408 407 404
3 404 112 408
3 407 111 404
3 408 0 407
3 411 409 410
3 410 114 411
3 409 108 410
3 411 113 409
3 389 412 410
3 410 108 389
3 412 114 410
3 389 34 412
3 413 394 409
3 409 113 413
3 394 108 409
3 413 32 394
3 415 414 411
3 411 114 415
3 414 113 411
3 415 11 414
3 418 416 417
3 417 117 418
3 416 116 417
3 418 115 416
3 420 419 417
3 417 116 420
3 419 117 417
3 420 36 419
3 422 421 416
3 416 115 422
3 421 116 416
3 422 34 421
3 424 423 418
3 418 117 424
3 423 115 418
3 424 35 423
3 427 425 426
3 426 109 427
3 425 116 426
3 427 118 425
3 421 399 426
3 426 116 421
3 399 109 426
3 421 34 399
3 428 420 425
3 425 118 428
3 420 116 425
3 428 36 420
3 400 429 427
3 427 109 400
3 429 118 427
3 400 8 429
3 432 430 431
3 431 119 432
3 430 115 431
3 432 114 430
3 423 433 431
3 431 115 423
3 433 119 431
3 423 35 433
3 412 422 430
3 430 114 412
3 422 115 430
3 412 34 422
3 434 415 432
3 432 119 434
3 415 114 432
3 434 11 415
3 437 435 436
3 436 121 437
3 435 117 436
3 437 120 435
3 419 438 436
3 436 117 419
3 438 121 436
3 419 36 438
3 439 424 435
3 435 120 439
3 424 117 435
3 439 35 424
3 441 440 437
3 437 121 441
3 440 120 437
3 441 1 440
3 444 442 443
3 443 124 444
3 442 123 443
3 444 122 442
3 446 445 443
3 443 123 446
3 445 124 443
3 446 39 445
3 448 447 442
3 442 122 448
3 447 123 442
3 448 38 447
3 450 449 444
3 444 124 450
3 449 122 444
3 450 37 449
3 453 451 452
3 452 126 453
3 451 123 452
3 453 125 451
3 447 454 452
3 452 123 447
3 454 126 452
3 447 38 454
3 455 446 451
3 451 125 455
3 446 123 451
3 455 39 446
3 457 456 453
3 453 126 457
3 456 125 453
3 457 9 456
3 460 458 459
3 459 128 460
3 458 122 459
3 460 127 458
3 449 461 459
3 459 122 449
3 461 128 459
3 449 37 461
3 462 448 458
3 458 127 462
3 448 122 458
3 462 38 448
3 464 463 460
3 460 128 464
3 463 127 460
3 464 10 463
3 467 465 466
3 466 130 467
3 465 124 466
3 467 129 465
3 445 468 466
3 466 124 445
3 468 130 466
3 445 39 468
3 469 450 465
3 465 129 469
3 450 124 465
3 469 37 450
3 471 470 467
3 467 130 471
3 470 129 467
3 471 3 470
3 474 472 473
3 473 133 474
3 472 132 473
3 474 131 472
3 476 475 473
3 473 132 476
3 475 133 473
3 476 38 475
3 478 477 472
3 472 131 478
3 477 132 472
3 478 41 477
3 480 479 474
3 474 133 480
3 479 131 474
3 480 40 479
3 483 481 482
3 482 134 483
3 481 132 482
3 483 126 481
3 477 484 482
3 482 132 477
3 484 134 482
3 477 41 484
3 454 476 481
3 481 126 454
3 476 132 481
3 454 38 476
3 485 457 483
3 483 134 485
3 457 126 483
3 485 9 457
3 488 486 487
3 487 136 488
3 486 131 487
3 488 135 486
3 479 489 487
3 487 131 479
3 489 136 487
3 479 40 489
3 490 478 486
3 486 135 490
3 478 131 486
3 490 41 478
3 492 491 488
3 488 136 492
3 491 135 488
3 492 2 491
3 495 493 494
3 494 127 495
3 493 133 494
3 495 137 493
3 475 462 494
3 494 133 475
3 462 127 494
3 475 38 462
3 496 480 493
3 493 137 496
3 480 133 493
3 496 40 480
3 463 497 495
3 495 127 463
3 497 137 495
3 463 10 497
3 500 498 499
3 499 140 500
3 498 139 499
3 500 138 498
3 502 501 499
3 499 139 502
3 501 140 499
3 502 33 501
3 504 503 498
3 498 138 504
3 503 139 498
3 504 13 503
3 506 505 500
3 500 140 506
3 505 138 500
3 506 23 505
3 509 507 508
3 508 47 509
3 507 139 508
3 509 110 507
3 503 182 508
3 508 139 503
3 182 47 508
3 503 13 182
3 398 502 507
3 507 110 398
3 502 139 507
3 398 33 502
3 183 401 509
3 509 47 183
3 401 110 509
3 183 8 401
3 512 510 511
3 511 79 512
3 510 138 511
3 512 46 510
3 505 294 511
3 511 138 505
3 294 79 511
3 505 23 294
3 174 504 510
3 510 46 174
3 504 138 510
3 174 13 504
3 295 177 512
3 512 79 295
3 177 46 512
3 295 4 177
3 515 513 514
3 514 111 515
3 513 140 514
3 515 78 513
3 501 406 514
3 514 140 501
3 406 111 514
3 501 33 406
3 286 506 513
3 513 78 286
3 506 140 513
3 286 23 506
3 407 289 515
3 515 111 407
3 289 78 515
3 407 0 289
3 518 516 517
3 517 143 518
3 516 142 517
3 518 141 516
3 520 519 517
3 517 142 520
3 519 143 517
3 520 19 519
3 522 521 516
3 516 141 522
3 521 142 516
3 522 32 521
3 524 523 518
3 518 143 524
3 523 141 518
3 524 26 523
3 527 525 526
3 526 113 527
3 525 142 526
3 527 66 525
3 521 413 526
3 526 142 521
3 413 113 526
3 521 32 413
3 244 520 525
3 525 66 244
3 520 142 525
3 244 19 520
3 414 247 527
3 527 113 414
3 247 66 527
3 414 11 247
3 530 528 529
3 529 86 530
3 528 141 529
3 530 112 528
3 523 316 529
3 529 141 523
3 316 86 529
3 523 26 316
3 405 522 528
3 528 112 405
3 522 141 528
3 405 32 522
3 317 408 530
3 530 86 317
3 408 112 530
3 317 0 408
3 533 531 532
3 532 61 533
3 531 143 532
3 533 89 531
3 519 231 532
3 532 143 519
3 231 61 532
3 519 19 231
3 326 524 531
3 531 89 326
3 524 143 531
3 326 26 524
3 232 329 533
3 533 61 232
3 329 89 533
3 232 5 329
3 536 534 535
3 535 146 536
3 534 145 535
3 536 144 534
3 538 537 535
3 535 145 538
3 537 146 535
3 538 22 537
3 540 539 534
3 534 144 540
3 539 145 534
3 540 16 539
3 542 541 536
3 536 146 542
3 541 144 536
3 542 39 541
3 545 543 544
3 544 54 545
3 543 145 544
3 545 80 543
3 539 204 544
3 544 145 539
3 204 54 544
3 539 16 204
3 293 538 543
3 543 80 293
3 538 145 543
3 293 22 538
3 205 296 545
3 545 54 205
3 296 80 545
3 205 4 296
3 548 546 547
3 547 125 548
3 546 144 547
3 548 57 546
3 541 455 547
3 547 144 541
3 455 125 547
3 541 39 455
3 214 540 546
3 546 57 214
3 540 144 546
3 214 16 540
3 456 217 548
3 548 125 456
3 217 57 548
3 456 9 217
3 551 549 550
3 550 81 551
3 549 146 550
3 551 130 549
3 537 301 550
3 550 146 537
3 301 81 550
3 537 22 301
3 468 542 549
3 549 130 468
3 542 146 549
3 468 39 542
3 302 471 551
3 551 81 302
3 471 130 551
3 302 3 471
3 554 552 553
3 553 149 554
3 552 148 553
3 554 147 552
3 556 555 553
3 553 148 556
3 555 149 553
3 556 21 555
3 558 557 552
3 552 147 558
3 557 148 552
3 558 25 557
3 560 559 554
3 554 149 560
3 559 147 554
3 560 37 559
3 563 561 562
3 562 88 563
3 561 148 562
3 563 70 561
3 557 327 562
3 562 148 557
3 327 88 562
3 557 25 327
3 260 556 561
3 561 70 260
3 556 148 561
3 260 21 556
3 328 261 563
3 563 88 328
3 261 70 563
3 328 5 261
3 566 564 565
3 565 129 566
3 564 147 565
3 566 87 564
3 559 469 565
3 565 147 559
3 469 129 565
3 559 37 469
3 321 558 564
3 564 87 321
3 558 147 564
3 321 25 558
3 470 322 566
3 566 129 470
3 322 87 566
3 470 3 322
3 569 567 568
3 568 71 569
3 567 149 568
3 569 128 567
3 555 266 568
3 568 149 555
3 266 71 568
3 555 21 266
3 461 560 567
3 567 128 461
3 560 149 567
3 461 37 560
3 267 464 569
3 569 71 267
3 464 128 569
3 267 10 464
3 572 570 571
3 571 152 572
3 570 151 571
3 572 150 570
3 574 573 571
3 571 151 574
3 573 152 571
3 574 27 573
3 576 575 570
3 570 150 576
3 575 151 570
3 576 12 575
3 578 577 572
3 572 152 578
3 577 150 572
3 578 36 577
3 581 579 580
3 580 49 581
3 579 151 580
3 581 96 579
3 575 189 580
3 580 151 575
3 189 49 580
3 575 12 189
3 349 574 579
3 579 96 349
3 574 151 579
3 349 27 574
3 190 352 581
3 581 49 190
3 352 96 581
3 190 7 352
3 584 582 583
3 583 118 584
3 582 150 583
3 584 48 582
3 577 428 583
3 583 150 577
3 428 118 583
3 577 36 428
3 181 576 582
3 582 48 181
3 576 150 582
3 181 12 576
3 429 184 584
3 584 118 429
3 184 48 584
3 429 8 184
3 587 585 586
3 586 97 587
3 585 152 586
3 587 121 585
3 573 357 586
3 586 152 573
3 357 97 586
3 573 27 357
3 438 578 585
3 585 121 438
3 578 152 585
3 438 36 578
3 358 441 587
3 587 97 358
3 441 121 587
3 358 1 441
3 590 588 589
3 589 155 590
3 588 154 589
3 590 153 588
3 592 591 589
3 589 154 592
3 591 155 589
3 592 17 591
3 594 593 588
3 588 153 594
3 593 154 588
3 594 30 593
3 596 595 590
3 590 155 596
3 595 153 590
3 596 35 595
3 599 597 598
3 598 104 599
3 597 154 598
3 599 64 597
3 593 383 598
3 598 154 593
3 383 104 598
3 593 30 383
3 237 592 597
3 597 64 237
3 592 154 597
3 237 17 592
3 384 240 599
3 599 104 384
3 240 64 599
3 384 6 240
3 602 600 601
3 601 120 602
3 600 153 601
3 602 103 600
3 595 439 601
3 601 153 595
3 439 120 601
3 595 35 439
3 377 594 600
3 600 103 377
3 594 153 600
3 377 30 594
3 440 378 602
3 602 120 440
3 378 103 602
3 440 1 378
3 605 603 604
3 604 65 605
3 603 155 604
3 605 119 603
3 591 245 604
3 604 155 591
3 245 65 604
3 591 17 245
3 433 596 603
3 603 119 433
3 596 155 603
3 433 35 596
3 246 434 605
3 605 65 246
3 434 119 605
3 246 11 434
3 608 606 607
3 607 158 608
3 606 157 607
3 608 156 606
3 610 609 607
3 607 157 610
3 609 158 607
3 610 15 609
3 612 611 606
3 606 156 612
3 611 157 606
3 612 28 611
3 614 613 608
3 608 158 614
3 613 156 608
3 614 41 613
3 617 615 616
3 616 95 617
3 615 157 616
3 617 55 615
3 611 350 616
3 616 157 611
3 350 95 616
3 611 28 350
3 209 610 615
3 615 55 209
3 610 157 615
3 209 15 610
3 351 210 617
3 617 95 351
3 210 55 617
3 351 7 210
3 620 618 619
3 619 135 620
3 618 156 619
3 620 94 618
3 613 490 619
3 619 156 613
3 490 135 619
3 613 41 490
3 342 612 618
3 618 94 342
3 612 156 618
3 342 28 612
3 491 345 620
3 620 135 491
3 345 94 620
3 491 2 345
3 623 621 622
3 622 56 623
3 621 158 622
3 623 134 621
3 609 215 622
3 622 158 609
3 215 56 622
3 609 15 215
3 484 614 621
3 621 134 484
3 614 158 621
3 484 41 614
3 216 485 623
3 623 56 216
3 485 134 623
3 216 9 485
3 626 624 625
3 625 161 626
3 624 160 625
3 626 159 624
3 628 627 625
3 625 160 628
3 627 161 625
3 628 31 627
3 630 629 624
3 624 159 630
3 629 160 624
3 630 20 629
3 632 631 626
3 626 161 632
3 631 159 626
3 632 40 631
3 635 633 634
3 634 73 635
3 633 160 634
3 635 105 633
3 629 272 634
3 634 160 629
3 272 73 634
3 629 20 272
3 382 628 633
3 633 105 382
3 628 160 633
3 382 31 628
3 273 385 635
3 635 73 273
3 385 105 635
3 273 6 385
3 638 636 637
3 637 137 638
3 636 159 637
3 638 72 636
3 631 496 637
3 637 159 631
3 496 137 637
3 631 40 496
3 265 630 636
3 636 72 265
3 630 159 636
3 265 20 630
3 497 268 638
3 638 137 497
3 268 72 638
3 497 10 268
3 641 639 640
3 640 102 641
3 639 161 640
3 641 136 639
3 627 372 640
3 640 161 627
3 372 102 640
3 627 31 372
3 489 632 639
3 639 136 489
3 632 161 639
3 489 40 632
3 373 492 641
3 641 102 373
3 492 136 641
3 373 2 492
