# vtk DataFile Version 3.0
this file was written using fslvtkio
ASCII
DATASET POLYDATA
POINTS 664 float
88.8842 120.195 76.2785
87.0029 119.623 76.4276
88.029 118.173 76.7832
90.1369 118.5 77.2042
90.9462 120.24 76.9455
91.5163 118.923 77.5965
86.7059 121.288 76.2431
84.3264 120.643 76.717
85.2703 119.572 76.4565
88.8316 122.189 76.1962
90.6114 121.934 76.3029
92.35 120.142 77.5959
92.3543 121.781 76.9371
93.3019 120.817 77.8116
93.7351 121.836 77.6802
94.3967 120.873 78.4071
85.963 122.785 77.0571
84.1859 122.139 78.0595
88.0103 123.588 76.4914
90.2284 124.078 76.6481
92.0914 123.736 76.701
93.702 123.109 77.5064
94.9996 122.05 78.4635
86.1287 123.603 78.4559
85.6119 122.844 79.5298
87.8411 124.533 78.0658
89.8609 125.499 77.6067
91.9889 125.71 77.3186
93.8326 124.935 77.576
95.2671 123.756 78.4611
87.6967 124.315 79.6198
89.7238 125.372 79.3844
91.7473 126.163 79.1248
93.8787 126.223 79.0116
95.222 125.338 78.9996
85.9034 118.463 76.5375
83.6844 118.217 76.964
85.495 117.251 76.7517
87.1523 116.606 77.1663
89.5266 116.712 77.6288
91.7541 117.555 78.3982
92.6299 118.959 78.2594
93.4215 118.08 78.9838
82.6873 120.255 77.8044
93.8972 119.714 78.7713
95.5579 120.373 79.3676
83.4199 121.641 79.6479
96.4186 122.417 79.478
85.4341 122.343 80.7134
96.4876 124.523 79.7384
87.4577 123.28 80.7878
89.6405 124.313 80.8234
91.6268 125.372 80.8509
93.7404 126.019 80.8555
95.8751 125.936 80.8541
85.9227 113.883 78.1342
84.2252 113.375 78.8423
85.69 112.704 79.1467
87.0402 112.405 79.2071
88.0298 113.77 78.5073
88.6273 112.826 79.6612
84.4757 115.843 77.5212
82.6437 114.718 78.1159
87.2107 115.233 77.7473
89.407 113.9 79.2443
89.4812 115.105 78.3808
90.7494 114.505 79.3094
82.2146 116.64 77.7361
80.1459 116.979 79.276
81.0293 115.229 78.8604
91.5593 116.079 78.9852
94.3937 116.705 79.7885
94.8223 118.614 79.3384
96.0468 118.615 80.3917
81.3497 118.613 78.0596
80.1008 118.851 79.8941
96.9752 120.639 80.4929
81.5294 120.235 79.5221
81.2037 119.629 81.6194
97.4399 122.066 80.7211
97.4323 123.687 80.5765
98.6271 122.888 81.5543
82.9438 120.843 81.0736
84.782 121.427 81.7594
97.2921 125.063 81.1799
98.603 124.368 81.9938
87.1749 122.124 81.5883
89.4428 122.708 81.6126
91.4512 123.769 81.8585
93.3401 125.018 82.1937
95.5263 125.682 82.5892
97.6815 125.502 82.7973
85.7504 111.25 80.0153
84.0491 110.419 80.5015
84.9628 109.602 81.1543
86.9083 109.73 81.147
88.3765 111.478 80.5173
89.1255 110.055 81.7697
90.6843 111.443 81.3918
91.3821 109.97 82.7828
83.4677 111.772 79.899
81.8273 110.704 80.7353
82.9778 110.375 80.6325
90.3349 113.064 80.312
92.8401 111.421 81.8279
92.5327 113.289 80.9642
93.9445 112.655 81.7062
94.3449 113.946 81.2134
95.3709 113.614 81.9625
80.8233 112.37 80.3683
78.9388 112.64 81.578
79.842 111.026 81.3967
81.8676 113.48 79.1899
92.3487 114.909 79.8379
94.1389 114.852 80.4016
95.9543 115.326 81.3048
79.6004 114.463 80.2116
78.498 114.548 82.3827
96.9571 117.261 81.2128
98.018 119.623 81.3315
98.5664 118.441 82.0271
99.4362 119.814 82.4647
100.043 118.832 83.0382
79.3449 116.192 81.2255
79.8615 117.993 81.9141
98.5693 121.47 81.7192
99.8149 121.187 82.7276
100.838 120.273 83.735
81.8423 118.84 83.3983
100.089 123.034 82.7097
101.31 122.097 84.1467
83.3656 120.118 82.5634
85.3995 120.277 82.953
99.4516 124.525 83.2819
100.998 123.935 84.4958
86.8604 121.161 82.5339
88.7721 121.638 82.3162
90.938 122.156 82.7865
92.8606 123.322 83.1055
94.7929 124.383 83.8747
96.9779 125.067 84.3423
99.037 124.796 84.5655
83.3554 107.337 82.0208
81.3739 106.951 82.4
82.4969 105.842 82.6177
84.5353 106.223 82.6537
85.4346 107.979 81.7932
86.5297 106.687 83.0025
87.6829 108.392 82.2653
88.6493 107.237 83.5102
89.7663 108.722 82.7696
90.9683 108.08 84.0887
82.8491 108.976 81.452
80.7468 108.299 82.2099
92.6768 109.064 84.2663
80.6297 109.589 81.6159
78.5991 110.632 83.0847
79.2715 108.682 82.6336
93.6241 110.422 83.2693
95.0907 111.806 82.7516
96.7398 113.573 82.6258
78.0059 112.603 83.7241
97.8678 114.757 82.7037
78.8479 114.603 84.4917
98.2525 116.157 82.4575
99.3797 117.462 82.998
101.027 118.529 84.3525
79.4579 116.488 83.3923
80.8748 117.672 84.454
102.154 120.619 85.3566
83.358 118.157 85.0408
102.204 122.692 86.0315
84.2609 119.322 83.9544
85.9623 119.424 83.9294
91.3865 121.258 83.869
90.9389 120.145 84.61
90.1786 120.782 83.6513
92.0806 120.742 84.857
100.386 123.79 86.223
87.0539 120.1 83.2953
88.7811 120.494 83.1688
92.4582 122.097 84.0576
94.1221 122.913 84.7402
96.1184 123.636 85.2594
98.1161 124.166 85.9303
84.2131 103.279 84.0233
82.9463 101.926 84.4393
84.2253 101.78 84.5318
85.5004 101.922 84.6346
86.3321 103.746 84.31
87.3029 102.309 85.0483
88.195 104.415 84.6916
88.763 102.904 85.6605
89.6967 104.703 85.2572
90.3371 103.814 86.1169
81.8581 103.437 83.9094
80.0197 103.463 84.6566
81.1485 102.118 84.9151
83.0765 104.579 83.1075
85.2922 104.875 83.4406
87.4145 105.476 83.7771
89.5109 106.27 84.6279
91.1723 106.084 85.3647
80.7067 105.14 83.4069
78.9324 105.614 84.4726
92.6112 107.749 85.2246
79.6543 107.183 83.2999
78.4417 108.76 84.3337
93.6427 108.658 85.4748
78.2627 111.115 85.4837
94.5766 109.668 84.9523
95.7403 110.696 84.4292
97.1098 112.178 83.7577
98.4466 113.969 83.9666
98.4546 113.084 85.1032
78.7901 112.894 85.6714
99.1889 115.358 83.9669
99.6265 115.059 85.9406
80.0093 114.236 86.2242
100.498 116.785 84.8619
102.14 118.684 86.1196
80.404 116.094 85.2807
82.6947 116.754 85.9999
102.633 121.03 87.2819
84.9992 117.318 86.2215
85.8538 118.313 84.9771
88.0863 118.371 85.344
87.0344 117.237 86.104
90.0988 118.49 85.632
89.0052 117.483 86.3711
91.8718 119.184 85.6797
91.0117 117.429 86.6593
94.1401 120.02 86.3569
93.1413 118.413 86.8554
96.0374 120.83 86.9969
95.3403 119.004 87.4105
97.02 119.714 87.9639
101.127 122.414 87.7153
87.6372 119.279 84.2181
89.6138 119.426 84.4557
93.2982 121.099 85.3967
95.2112 122.098 85.9752
97.6321 121.194 87.813
97.2314 122.609 86.7922
99.2235 123.036 87.12
99.3062 121.844 88.1303
84.3247 100.338 85.063
82.7036 99.3653 85.385
83.8615 98.5796 85.7296
85.6004 98.8279 85.7252
86.4447 100.572 85.4017
87.534 99.3144 86.2369
88.3001 100.995 86.0246
89.7916 100.242 87.2162
89.626 101.97 86.3315
90.7965 102.108 87.0832
82.0551 100.7 85.0899
80.071 100.991 85.9774
81.0598 99.3529 85.75
91.5517 104.088 86.5366
79.179 102.864 86.1002
92.4064 105.122 86.3157
92.927 106.576 86.1887
93.5483 105.341 87.1343
78.9467 104.919 86.0642
79.0243 105.428 87.2578
79.1669 103.889 87.1444
93.6411 108.051 86.5749
93.6243 107.112 87.4706
78.5408 106.94 85.6974
78.8137 107.133 87.3913
94.7201 109.196 86.4267
94.7364 109.362 88.0248
78.4551 109.056 86.342
79.3575 108.677 87.9437
95.9947 110.207 86.7884
97.3078 111.402 85.6666
98.4258 113.09 86.477
79.5311 110.53 87.3263
80.3941 112.205 87.2696
98.8459 114.399 87.4588
81.7415 113.569 87.1613
101.089 117.034 87.0251
99.4829 116.007 88.0088
81.7142 115.333 86.5935
83.3832 115.575 87.2853
92.835 116.63 87.3136
92.4641 115.28 87.5847
91.1869 115.492 87.1792
94.9048 117.254 87.6
93.7094 115.591 87.8867
97.2127 118.051 88.349
95.6639 116.12 88.2248
99.7537 118.304 88.4865
97.7061 116.402 88.6869
101.666 119.246 87.8511
84.5743 116.281 87.0604
86.5206 115.955 86.9513
88.9682 116.043 87.0142
98.7802 119.931 88.5484
100.845 120.606 88.5817
85.4255 95.5775 87.4037
83.71 95.0585 87.4736
84.6092 93.7277 88.1897
87.0012 94.6434 88.1255
87.4263 96.4232 87.3113
88.4737 95.7996 88.3123
89.1719 97.3851 87.839
90.1921 96.5755 88.7634
83.3463 96.3215 86.8426
81.4816 96.898 87.4174
82.4622 95.4856 87.5224
84.6034 97.4172 86.5442
86.4122 97.5513 86.677
88.4146 98.3319 87.0218
90.7432 98.1544 88.6084
90.1092 98.9541 87.9753
92.0428 99.6986 88.8463
82.2164 97.8802 86.3161
80.3488 98.843 87.2457
91.6931 101.103 87.9749
92.1809 102.855 87.483
93.1766 102.066 88.1992
79.5358 100.68 87.9969
92.9212 104.045 87.0959
93.7221 103.641 88.0967
79.1261 102.401 87.7646
79.2668 103.713 88.5229
79.6118 101.896 89.3227
93.7237 105.352 88.4272
79.5072 105.38 88.7172
93.2062 107.709 88.3548
79.9026 106.907 88.8816
93.241 109.301 88.894
80.5097 108.101 89.0412
96.0877 111.225 88.931
94.2344 110.724 89.4005
97.3207 111.538 87.3462
80.5487 109.618 88.5881
82.8212 112.362 88.0882
81.5696 110.826 88.6421
83.1516 111.19 89.0806
94.4972 112.714 89.112
93.3343 111.511 89.4271
92.4867 112.334 89.0694
96.4684 113.253 89.1338
97.7107 112.93 88.2385
83.3888 113.985 87.6049
84.4686 111.709 88.5993
85.11 113.323 88.0843
85.9095 111.893 88.127
92.3837 113.823 88.0897
91.3567 112.613 88.5299
90.3892 112.87 88.0529
94.383 114.577 88.378
96.039 114.674 88.962
97.8216 114.72 88.6687
85.2567 114.788 87.5922
86.8465 113.003 87.7805
87.5691 114.446 87.455
89.9179 114.278 87.42
88.5042 112.798 87.7075
82.9329 94.2929 88.0836
81.6835 95.2502 88.5386
82.4933 93.299 89.0257
84.2442 91.9837 89.2596
86.585 93.1226 88.8607
89.208 94.5685 89.1066
91.2091 96.3882 89.5899
80.7189 96.9268 88.7989
92.2217 98.1458 89.3258
94.4276 99.2157 89.8911
80.2755 98.7429 89.3845
93.7194 100.861 88.8456
94.4698 102.474 89.2349
80.4487 100.372 90.5638
94.0041 103.916 89.6
80.2438 103.651 89.8554
80.7018 102.224 90.8248
93.0593 105.613 89.1855
80.8693 105.2 90.0466
92.2167 106.903 88.9656
92.0284 105.579 89.6855
91.0653 106.7 89.5063
81.1586 106.773 90.0197
91.9278 108.348 88.9457
90.7421 108.257 89.2736
81.4099 107.714 89.7127
81.3115 108.677 89.1126
82.1547 108.216 89.7068
92.0384 110.415 89.0563
90.5086 109.53 88.9898
82.0486 109.401 89.3446
84.15 110.723 89.1691
83.514 109.756 89.369
84.8595 109.885 89.0865
90.6042 111.246 88.8133
89.2014 109.4 89.2409
88.7817 110.252 88.7487
87.417 111.552 88.0989
85.9122 110.642 88.6214
88.9806 111.562 88.3209
87.4362 110.129 88.6525
86.3179 91.6413 89.9008
84.1145 90.9844 90.865
86.4952 90.5072 90.9757
88.6508 91.5854 90.6939
88.4457 92.8023 89.5809
90.4561 93.0151 90.8157
89.8549 93.6751 89.9622
91.3071 94.4586 90.5112
81.522 94.7679 90.2357
82.4777 92.3357 90.6668
91.9567 95.835 90.3093
93.149 97.3867 90.034
94.9562 97.1017 90.6764
81.021 96.698 90.5459
96.4285 99.0251 91.0283
81.2751 98.157 91.3338
95.2003 101.162 90.0672
95.0878 100.745 91.7565
82.1759 99.5305 92.107
93.9735 102.656 90.9654
92.9818 101.837 91.8839
81.9676 103.6 90.9817
81.9284 101.446 91.9143
91.9658 103.593 91.2333
91.3245 102.31 91.5987
90.355 103.296 91.2669
92.7715 104.335 90.2313
82.4476 105.474 90.632
83.3448 103.204 91.788
84.1051 104.842 91.0772
86.0613 104.965 91.1847
85.0666 103.415 91.711
88.0251 104.953 91.2723
86.8239 103.278 91.5687
90.058 104.808 90.9532
88.7973 103.336 91.4485
91.2508 105.123 90.122
82.3855 107.23 90.4037
83.8194 106.727 90.5273
85.4799 106.491 90.7559
87.1012 106.395 91.0078
88.8511 106.52 90.8409
90.2657 106.617 90.3416
83.2244 108.235 89.979
84.8142 108.251 89.8898
86.4036 107.803 90.2819
87.8904 107.709 90.5627
89.3558 108.151 90.0235
86.2047 109.052 89.2103
87.7421 108.889 89.6074
84.6491 90.0971 92.1713
86.7598 89.5814 91.832
88.8303 90.3242 91.4387
90.922 91.7222 91.5425
92.8402 93.617 91.6509
93.3956 95.2989 90.8882
95.287 95.4401 91.6112
82.3127 93.7875 91.8882
83.2697 92.0123 92.754
97.1454 97.4577 91.6394
82.1965 95.9892 92.1806
83.4978 94.3496 93.0632
95.2279 98.9541 93.1206
82.9012 97.6087 92.7958
93.1357 100.329 92.6
83.5171 98.9837 93.0474
83.6396 100.618 92.8691
84.8701 99.295 93.1926
89.6746 100.78 92.0201
89.6235 99.386 92.1615
88.3377 100.203 92.2081
91.4118 101.061 91.9679
91.2507 99.6769 92.3829
83.9346 102.178 92.3463
85.3861 100.282 92.7905
85.8217 101.716 92.2628
87.7915 101.692 91.8489
87.0103 100.159 92.4413
89.7026 102.028 91.5138
88.1274 88.7824 92.1466
85.8757 88.8923 92.9293
87.2973 87.914 93.7359
89.5608 88.4188 92.9755
90.7072 89.8025 92.0053
91.6613 89.305 93.0921
92.7816 91.6071 92.4083
93.756 90.8738 93.4175
94.9149 93.4991 92.4539
95.3704 92.2434 93.5002
96.6469 93.85 92.8422
96.9867 92.8268 93.4866
84.6465 90.4113 93.7929
97.3353 95.5194 92.1678
97.9083 94.8475 93.5464
84.593 92.1057 94.5152
96.6598 97.5991 93.4774
97.4499 96.4545 93.7423
84.4027 96.1227 93.688
85.0362 93.8868 94.0826
91.9121 97.1266 93.5868
91.7282 95.3771 94.1407
90.1733 96.2793 93.7221
93.6072 97.9916 93.5462
94.2318 96.7646 93.9176
95.9682 96.4373 94.42
84.9578 97.7777 93.3158
86.3094 95.5558 94.0585
86.8852 97.1993 93.4488
89.1897 97.2615 93.216
88.2067 95.9963 93.8847
90.5747 98.5423 92.8762
92.7716 98.8874 93.0577
86.405 98.7185 92.8995
88.2768 98.5007 92.4445
92.5974 89.0841 94.025
91.1091 87.9547 94.0841
92.0355 87.3265 94.8263
93.3824 88.2291 94.6164
93.8531 89.711 94.1628
94.4305 89.1519 94.6341
85.7019 89.0477 94.7651
87.0274 87.8141 95.5645
89.258 87.7496 94.4211
95.1648 90.6347 94.0072
96.7567 91.1991 94.3826
98.1906 93.1163 94.087
98.1244 91.798 94.7361
85.7843 91.0548 95.5057
98.1231 94.6188 95.0712
98.5065 93.193 95.4224
86.2031 92.6641 95.5082
96.8369 93.259 96.0678
96.7349 95.2647 94.9586
86.9993 93.7225 95.018
87.4469 94.6152 94.3044
89.53 95.1076 94.1624
89.3334 94.3897 95.251
91.1591 94.2831 95.4488
92.9159 94.5573 94.8679
94.6814 95.187 94.7897
90.4569 87.4193 95.5939
91.8549 86.9387 96.1929
93.2268 87.1017 95.4725
94.5249 87.943 95.1398
95.5828 89.789 94.6518
95.7463 88.8799 95.1251
96.3406 89.8985 94.8501
96.9672 89.4724 95.2037
86.6946 89.8616 96.4062
87.3358 88.5224 97.0902
88.6959 87.5426 96.3512
98.3244 90.4158 95.1719
99.0065 91.8099 95.5413
99.474 90.6866 95.6212
99.9057 91.45 96.0259
100.437 90.4952 96.2354
87.6103 91.8001 96.5423
88.2236 90.3007 97.374
98.3317 92.5637 96.323
99.1039 91.8777 96.6412
100.364 91.1748 96.8219
87.9778 93.2504 95.9518
89.5612 91.6025 97.0877
89.7167 93.2372 96.5144
91.9336 93.4514 96.0797
91.1472 92.4171 96.8609
93.7646 93.6003 95.7733
92.9429 92.0576 96.4688
95.4066 93.9974 95.5757
94.9108 92.4022 96.2783
96.3473 92.0439 96.8866
97.8765 91.9206 97.0908
99.3698 91.3954 97.4471
90.6594 87.2665 97.2163
91.9952 86.9182 97.1854
93.0478 86.9373 96.7161
94.4829 87.1037 96.1386
95.7907 88.0232 95.6934
96.8256 88.2964 96.1775
88.1234 88.4382 98.1179
89.1696 87.4278 98.0574
98.3401 88.7581 96.0525
99.7177 89.7045 96.2019
100.885 90.136 96.8925
88.8576 89.5702 98.514
100.523 90.852 97.6769
89.759 90.4895 98.0536
91.2733 91.2695 97.6929
92.7905 91.109 97.4628
92.2968 90.4875 98.4397
94.1701 91.1661 97.1695
95.4351 91.2829 97.2052
96.7972 91.3701 97.6445
97.8308 91.037 97.9324
99.0033 90.7299 98.0953
93.6847 90.6416 98.1746
95.0229 90.646 97.9942
96.1591 90.774 98.0633
97.1079 90.8458 98.3751
91.7253 87.0477 97.7976
92.7712 86.957 97.8249
94.2173 86.9968 97.5696
95.6815 87.2266 96.7776
89.159 88.4188 99.1517
90.3789 87.5532 98.7706
91.8306 87.2001 98.6208
93.5755 87.2381 98.7947
95.4525 87.0752 98.1225
97.1257 87.622 97.2491
98.6208 87.7595 97.2187
99.735 88.4966 96.9509
100.669 89.1548 97.1778
101.341 90.1205 97.879
101.077 89.1527 98.2437
89.7275 89.6761 99.1753
90.222 88.7852 99.9558
100.32 90.5129 98.5349
101.048 89.9833 99.0289
90.9079 90.2218 98.9225
91.9894 90.0817 99.4316
98.5268 90.1413 99.2312
97.8358 90.5393 98.8462
99.6065 90.098 99.125
93.1095 90.1932 99.0659
94.3914 90.2512 98.9514
95.5737 90.291 98.9005
96.711 90.4625 99.0096
91.1365 87.8165 100.104
92.5437 87.5009 100.069
93.8699 87.4775 99.91
94.9057 87.29 99.3585
96.388 87.3001 98.8382
97.815 87.4413 98.2848
99.2329 87.7984 98.0232
100.41 88.259 97.9461
101.019 88.861 99.2671
91.2101 89.3407 100.143
92.0544 88.587 100.703
93.4255 88.2566 100.617
100.318 89.6142 99.7342
92.4116 89.7222 100.368
93.3509 89.3311 100.811
97.9786 89.8151 100.108
97.3359 90.217 99.6865
99.1115 89.676 100.062
93.696 89.9981 99.9648
94.9803 90.0906 99.7783
96.1678 90.1868 99.9348
94.7966 87.9003 100.403
96.042 87.5855 100.115
97.3669 87.5877 99.6366
98.7496 87.9025 99.3267
100.081 88.1388 98.9223
94.555 88.968 100.738
95.764 88.6436 100.575
96.9295 88.3631 100.314
98.1513 88.7163 100.207
99.7165 88.6495 99.9706
94.4021 89.7579 100.545
95.5257 89.6906 100.519
96.8077 89.4691 100.414
POLYGONS 1324  5296
3 0 1 2
3 0 3 4
3 2 3 0
3 3 5 4
3 6 7 8
3 1 6 8
3 1 0 6
3 0 9 6
3 4 10 0
3 10 9 0
3 11 4 5
3 11 12 4
3 12 10 4
3 12 13 14
3 11 13 12
3 13 15 14
3 16 7 6
3 17 7 16
3 9 18 6
3 18 16 6
3 10 19 9
3 19 18 9
3 12 20 10
3 20 19 10
3 14 21 12
3 21 20 12
3 22 14 15
3 21 14 22
3 23 17 16
3 24 17 23
3 18 25 16
3 25 23 16
3 19 26 18
3 26 25 18
3 20 27 19
3 27 26 19
3 21 28 20
3 28 27 20
3 29 21 22
3 28 21 29
3 23 30 24
3 25 30 23
3 31 30 25
3 26 31 25
3 32 31 26
3 27 32 26
3 33 32 27
3 28 33 27
3 34 33 28
3 29 34 28
3 35 36 37
3 35 2 1
3 35 37 2
3 37 38 2
3 3 2 39
3 2 38 39
3 5 40 41
3 5 3 40
3 3 39 40
3 40 42 41
3 8 36 35
3 8 7 36
3 7 43 36
3 1 8 35
3 5 41 11
3 41 42 44
3 41 44 11
3 11 44 13
3 44 15 13
3 45 15 44
3 7 17 43
3 43 17 46
3 15 45 22
3 45 47 22
3 17 24 46
3 46 24 48
3 22 47 29
3 47 49 29
3 24 50 48
3 30 50 24
3 31 51 30
3 30 51 50
3 32 52 31
3 31 52 51
3 33 53 32
3 32 53 52
3 34 54 33
3 33 54 53
3 49 34 29
3 54 34 49
3 55 56 57
3 55 58 59
3 57 58 55
3 58 60 59
3 61 56 55
3 62 56 61
3 59 63 55
3 63 61 55
3 64 59 60
3 64 65 59
3 65 63 59
3 64 66 65
3 67 68 69
3 62 67 69
3 61 67 62
3 61 36 67
3 61 37 36
3 38 37 61
3 63 38 61
3 39 38 63
3 65 39 63
3 65 66 70
3 65 70 39
3 39 70 40
3 42 71 72
3 42 40 71
3 40 70 71
3 71 73 72
3 74 68 67
3 75 68 74
3 36 43 74
3 67 36 74
3 42 72 44
3 72 45 44
3 72 73 45
3 73 76 45
3 77 75 74
3 78 75 77
3 43 46 77
3 74 43 77
3 79 80 47
3 79 47 76
3 76 47 45
3 79 81 80
3 77 82 78
3 82 77 46
3 82 46 83
3 83 46 48
3 80 84 49
3 47 80 49
3 85 80 81
3 84 80 85
3 48 86 83
3 50 86 48
3 51 87 50
3 50 87 86
3 52 88 51
3 51 88 87
3 53 89 52
3 52 89 88
3 54 90 53
3 53 90 89
3 84 54 49
3 84 91 54
3 91 90 54
3 85 91 84
3 92 93 94
3 92 95 96
3 94 95 92
3 96 97 98
3 95 97 96
3 97 99 98
3 100 101 102
3 93 100 102
3 92 100 93
3 92 56 100
3 92 57 56
3 58 57 92
3 96 58 92
3 60 58 96
3 60 96 103
3 103 96 98
3 104 98 99
3 104 105 98
3 105 103 98
3 105 106 107
3 104 106 105
3 106 108 107
3 109 110 111
3 101 109 111
3 101 100 109
3 100 112 109
3 56 62 112
3 100 56 112
3 60 103 64
3 66 64 103
3 66 103 113
3 113 103 105
3 107 114 105
3 114 113 105
3 115 107 108
3 114 107 115
3 116 110 109
3 117 110 116
3 69 68 116
3 69 116 112
3 112 116 109
3 62 69 112
3 66 113 70
3 71 70 113
3 114 71 113
3 73 118 119
3 71 118 73
3 71 115 118
3 71 114 115
3 119 120 121
3 118 120 119
3 120 122 121
3 116 123 117
3 123 116 68
3 123 68 124
3 124 68 75
3 119 125 76
3 73 119 76
3 121 126 119
3 126 125 119
3 127 121 122
3 126 121 127
3 75 78 124
3 124 78 128
3 76 125 79
3 81 79 125
3 81 125 129
3 129 125 126
3 130 126 127
3 129 126 130
3 78 131 128
3 82 131 78
3 131 82 83
3 132 131 83
3 129 133 85
3 81 129 85
3 134 129 130
3 133 129 134
3 83 135 132
3 86 135 83
3 87 136 86
3 86 136 135
3 88 137 87
3 87 137 136
3 89 138 88
3 88 138 137
3 90 139 89
3 89 139 138
3 91 140 90
3 90 140 139
3 133 91 85
3 133 141 91
3 141 140 91
3 134 141 133
3 142 143 144
3 142 145 146
3 144 145 142
3 146 147 148
3 145 147 146
3 148 149 150
3 147 149 148
3 149 151 150
3 152 143 142
3 153 143 152
3 94 93 152
3 94 152 146
3 146 152 142
3 95 94 146
3 148 95 146
3 97 95 148
3 150 97 148
3 150 99 97
3 150 151 99
3 151 154 99
3 155 156 157
3 153 155 157
3 152 155 153
3 152 101 155
3 152 102 101
3 93 102 152
3 99 154 158
3 104 99 158
3 106 104 159
3 104 158 159
3 159 108 106
3 160 108 159
3 111 156 155
3 111 110 156
3 110 161 156
3 101 111 155
3 108 160 115
3 160 162 115
3 110 117 161
3 161 117 163
3 115 162 164
3 118 115 164
3 120 118 165
3 118 164 165
3 165 122 120
3 166 122 165
3 117 167 163
3 123 167 117
3 167 123 124
3 168 167 124
3 122 166 127
3 166 169 127
3 124 128 168
3 168 128 170
3 127 169 130
3 169 171 130
3 128 172 170
3 131 172 128
3 172 131 132
3 173 172 132
3 174 175 176
3 175 174 177
3 130 171 134
3 171 178 134
3 132 179 173
3 135 179 132
3 136 180 135
3 135 180 179
3 176 137 174
3 176 180 137
3 180 136 137
3 174 181 177
3 174 137 181
3 137 138 181
3 139 182 138
3 138 182 181
3 140 183 139
3 139 183 182
3 141 184 140
3 140 184 183
3 178 141 134
3 184 141 178
3 185 186 187
3 185 188 189
3 187 188 185
3 189 190 191
3 188 190 189
3 191 192 193
3 190 192 191
3 192 194 193
3 195 196 197
3 186 195 197
3 186 185 195
3 185 198 195
3 189 199 185
3 199 198 185
3 191 200 189
3 200 199 189
3 193 201 191
3 201 200 191
3 202 193 194
3 201 193 202
3 203 196 195
3 204 196 203
3 144 143 203
3 144 203 198
3 198 203 195
3 145 144 198
3 199 145 198
3 147 145 199
3 200 147 199
3 149 147 200
3 201 149 200
3 201 151 149
3 201 202 151
3 202 205 151
3 206 204 203
3 207 204 206
3 143 153 206
3 203 143 206
3 151 205 154
3 205 208 154
3 157 207 206
3 157 156 207
3 156 209 207
3 153 157 206
3 154 208 210
3 158 154 210
3 159 158 211
3 158 210 211
3 160 212 213
3 160 159 212
3 159 211 212
3 212 214 213
3 156 161 209
3 209 161 215
3 213 216 162
3 160 213 162
3 217 213 214
3 216 213 217
3 161 163 215
3 215 163 218
3 162 216 164
3 216 217 219
3 216 219 164
3 164 219 165
3 219 166 165
3 220 166 219
3 163 221 218
3 167 221 163
3 221 167 168
3 222 221 168
3 166 220 169
3 220 223 169
3 224 170 225
3 224 222 170
3 222 168 170
3 225 226 227
3 224 225 227
3 226 228 229
3 227 226 229
3 228 230 231
3 229 228 231
3 230 232 233
3 231 230 233
3 232 234 235
3 233 232 235
3 235 234 236
3 169 223 171
3 223 237 171
3 170 172 225
3 173 225 172
3 173 238 225
3 238 226 225
3 228 226 239
3 239 226 238
3 175 239 176
3 175 230 239
3 230 228 239
3 177 230 175
3 177 240 230
3 240 232 230
3 234 232 241
3 241 232 240
3 242 236 234
3 242 234 243
3 243 234 241
3 243 244 245
3 242 243 245
3 244 237 245
3 244 178 237
3 178 171 237
3 173 179 238
3 180 238 179
3 239 238 180
3 176 239 180
3 177 181 240
3 182 240 181
3 241 240 182
3 183 241 182
3 243 241 183
3 184 243 183
3 244 243 184
3 178 244 184
3 246 247 248
3 246 249 250
3 248 249 246
3 250 251 252
3 249 251 250
3 252 253 254
3 251 253 252
3 253 255 254
3 256 257 258
3 247 256 258
3 246 256 247
3 246 186 256
3 246 187 186
3 188 187 246
3 250 188 246
3 190 188 250
3 252 190 250
3 192 190 252
3 254 192 252
3 254 194 192
3 254 255 194
3 255 259 194
3 197 257 256
3 197 196 257
3 196 260 257
3 186 197 256
3 261 262 202
3 261 202 259
3 259 202 194
3 261 263 262
3 264 265 266
3 264 266 260
3 264 260 204
3 204 260 196
3 262 267 205
3 202 262 205
3 268 262 263
3 267 262 268
3 269 265 264
3 270 265 269
3 204 207 269
3 264 204 269
3 267 271 208
3 205 267 208
3 272 267 268
3 271 267 272
3 273 270 269
3 274 270 273
3 207 209 273
3 269 207 273
3 208 271 210
3 271 272 275
3 271 275 210
3 210 275 211
3 212 211 276
3 211 275 276
3 276 214 212
3 277 214 276
3 273 278 274
3 278 273 209
3 278 209 279
3 279 209 215
3 214 277 217
3 277 280 217
3 215 218 279
3 279 218 281
3 282 219 217
3 282 217 283
3 283 217 280
3 219 282 220
3 218 284 281
3 221 284 218
3 284 221 222
3 285 284 222
3 286 287 288
3 286 289 290
3 287 286 290
3 289 291 292
3 290 289 292
3 291 293 294
3 292 291 294
3 283 294 293
3 283 293 282
3 282 293 295
3 220 295 223
3 282 295 220
3 222 296 285
3 224 296 222
3 227 297 224
3 224 297 296
3 229 298 227
3 227 298 297
3 288 231 286
3 288 298 231
3 298 229 231
3 233 286 231
3 289 286 233
3 235 289 233
3 291 289 235
3 236 291 235
3 236 299 291
3 299 293 291
3 295 293 300
3 300 293 299
3 223 300 237
3 295 300 223
3 236 242 299
3 245 299 242
3 300 299 245
3 237 300 245
3 301 302 303
3 301 304 305
3 303 304 301
3 305 306 307
3 304 306 305
3 306 308 307
3 309 310 311
3 302 309 311
3 302 301 309
3 301 312 309
3 305 313 301
3 313 312 301
3 307 314 305
3 314 313 305
3 315 307 308
3 315 316 307
3 316 314 307
3 315 317 316
3 318 310 309
3 319 310 318
3 248 247 318
3 248 318 312
3 312 318 309
3 249 248 312
3 313 249 312
3 251 249 313
3 314 251 313
3 253 251 314
3 316 253 314
3 255 320 321
3 253 320 255
3 253 317 320
3 253 316 317
3 320 322 321
3 258 319 318
3 258 257 319
3 257 323 319
3 247 258 318
3 321 324 259
3 255 321 259
3 325 321 322
3 324 321 325
3 326 327 328
3 326 328 323
3 326 323 260
3 260 323 257
3 259 324 261
3 324 263 261
3 324 325 263
3 325 329 263
3 266 327 326
3 266 265 327
3 265 330 327
3 260 266 326
3 263 329 268
3 329 331 268
3 265 270 330
3 330 270 332
3 268 331 272
3 331 333 272
3 270 274 332
3 332 274 334
3 335 275 272
3 335 272 336
3 336 272 333
3 275 337 276
3 335 337 275
3 276 337 277
3 274 338 334
3 278 338 274
3 279 339 340
3 279 340 278
3 278 340 338
3 340 339 341
3 342 343 344
3 336 343 342
3 336 342 335
3 335 342 345
3 337 335 346
3 346 335 345
3 277 346 280
3 337 346 277
3 339 281 347
3 279 281 339
3 348 341 339
3 348 339 349
3 349 339 347
3 348 349 350
3 351 352 353
3 344 352 351
3 344 351 342
3 342 351 354
3 345 342 355
3 355 342 354
3 346 345 356
3 356 345 355
3 280 356 283
3 346 356 280
3 281 284 347
3 285 347 284
3 285 357 347
3 357 349 347
3 358 350 349
3 358 349 359
3 359 349 357
3 359 360 361
3 358 359 361
3 353 361 360
3 351 353 360
3 351 360 288
3 351 288 287
3 290 351 287
3 354 351 290
3 292 354 290
3 355 354 292
3 294 355 292
3 356 355 294
3 283 356 294
3 285 296 357
3 297 357 296
3 359 357 297
3 298 359 297
3 360 359 298
3 288 360 298
3 362 363 364
3 362 303 302
3 362 364 303
3 364 365 303
3 304 303 366
3 303 365 366
3 306 304 367
3 304 366 367
3 367 308 306
3 368 308 367
3 311 363 362
3 311 310 363
3 310 369 363
3 302 311 362
3 308 368 370
3 315 308 370
3 370 317 315
3 371 317 370
3 310 319 369
3 369 319 372
3 317 371 373
3 320 317 373
3 373 322 320
3 374 322 373
3 319 323 372
3 372 323 375
3 322 374 325
3 374 376 325
3 328 377 378
3 327 377 328
3 375 323 328
3 378 375 328
3 325 376 329
3 376 379 329
3 327 330 377
3 377 330 380
3 381 382 383
3 381 379 382
3 381 331 379
3 331 329 379
3 330 332 380
3 380 332 384
3 385 381 383
3 386 385 383
3 331 385 333
3 381 385 331
3 387 334 388
3 387 384 334
3 384 332 334
3 387 388 389
3 390 385 386
3 391 390 386
3 333 390 336
3 385 390 333
3 334 338 388
3 388 392 389
3 388 338 392
3 338 340 392
3 341 393 394
3 341 394 340
3 340 394 392
3 394 393 395
3 396 397 398
3 391 397 396
3 390 391 396
3 390 396 344
3 390 344 343
3 336 390 343
3 341 348 393
3 350 399 400
3 348 350 400
3 348 400 395
3 348 395 393
3 399 401 402
3 400 399 402
3 398 402 401
3 396 398 401
3 396 401 353
3 396 353 352
3 344 396 352
3 350 358 399
3 361 399 358
3 401 399 361
3 353 401 361
3 403 404 405
3 403 406 407
3 405 406 403
3 407 408 409
3 406 408 407
3 408 410 409
3 364 411 412
3 363 411 364
3 404 403 365
3 404 365 412
3 412 365 364
3 366 365 403
3 407 366 403
3 367 366 407
3 409 367 407
3 368 413 414
3 367 413 368
3 367 410 413
3 367 409 410
3 413 415 414
3 363 369 411
3 411 369 416
3 368 414 370
3 414 371 370
3 414 415 371
3 415 417 371
3 369 372 416
3 416 372 418
3 419 373 371
3 419 371 420
3 420 371 417
3 373 419 374
3 372 375 418
3 418 375 421
3 422 419 420
3 423 422 420
3 374 422 376
3 419 422 374
3 378 377 424
3 378 424 425
3 378 425 375
3 375 425 421
3 426 427 428
3 423 427 426
3 423 426 422
3 422 426 429
3 376 429 379
3 422 429 376
3 424 380 430
3 377 380 424
3 431 425 424
3 431 424 432
3 432 424 430
3 432 433 434
3 431 432 434
3 433 435 436
3 434 433 436
3 435 437 438
3 436 435 438
3 428 438 437
3 428 437 426
3 426 437 439
3 382 439 383
3 382 429 439
3 429 426 439
3 379 429 382
3 430 384 440
3 380 384 430
3 432 430 441
3 441 430 440
3 433 432 442
3 442 432 441
3 435 433 443
3 443 433 442
3 437 435 444
3 444 435 443
3 439 437 445
3 445 437 444
3 383 445 386
3 439 445 383
3 384 387 440
3 389 440 387
3 389 446 440
3 446 441 440
3 442 441 447
3 447 441 446
3 443 442 448
3 448 442 447
3 444 443 449
3 449 443 448
3 445 444 450
3 450 444 449
3 386 450 391
3 445 450 386
3 389 392 446
3 394 446 392
3 447 446 394
3 395 447 394
3 395 451 447
3 451 448 447
3 449 448 452
3 452 448 451
3 397 452 398
3 397 450 452
3 450 449 452
3 391 450 397
3 395 400 451
3 402 451 400
3 452 451 402
3 398 452 402
3 405 453 454
3 404 453 405
3 406 405 455
3 405 454 455
3 408 406 456
3 406 455 456
3 410 457 458
3 410 408 457
3 408 456 457
3 457 459 458
3 412 411 460
3 412 460 461
3 412 461 404
3 404 461 453
3 410 458 413
3 458 415 413
3 458 459 415
3 459 462 415
3 460 463 464
3 460 411 463
3 411 416 463
3 461 460 464
3 415 462 417
3 462 465 417
3 416 418 463
3 463 418 466
3 417 465 420
3 465 467 420
3 468 421 469
3 468 466 421
3 466 418 421
3 468 469 470
3 471 472 473
3 471 474 475
3 472 471 475
3 474 467 475
3 474 423 467
3 423 420 467
3 469 425 476
3 421 425 469
3 477 470 469
3 477 469 478
3 478 469 476
3 478 479 480
3 477 478 480
3 473 480 479
3 473 479 471
3 471 479 481
3 427 481 428
3 427 474 481
3 474 471 481
3 423 474 427
3 425 431 476
3 434 476 431
3 478 476 434
3 436 478 434
3 479 478 436
3 438 479 436
3 481 479 438
3 428 481 438
3 482 483 484
3 482 485 486
3 484 485 482
3 486 487 488
3 485 487 486
3 488 489 490
3 487 489 488
3 490 491 492
3 489 491 490
3 491 493 492
3 454 483 482
3 454 453 483
3 453 494 483
3 455 454 482
3 486 455 482
3 456 455 486
3 488 456 486
3 457 456 488
3 490 457 488
3 459 457 490
3 459 490 495
3 495 490 492
3 496 492 493
3 495 492 496
3 453 461 494
3 494 461 497
3 495 498 462
3 459 495 462
3 499 495 496
3 498 495 499
3 464 463 500
3 464 500 501
3 464 501 461
3 461 501 497
3 502 503 504
3 502 505 506
3 503 502 506
3 498 507 506
3 498 506 465
3 498 465 462
3 465 506 505
3 499 507 498
3 500 466 508
3 463 466 500
3 509 501 500
3 509 500 510
3 510 500 508
3 510 511 512
3 509 510 512
3 504 512 511
3 504 511 502
3 502 511 513
3 505 502 514
3 514 502 513
3 465 514 467
3 505 514 465
3 466 468 508
3 470 508 468
3 470 515 508
3 515 510 508
3 511 510 516
3 516 510 515
3 472 516 473
3 472 513 516
3 513 511 516
3 475 513 472
3 514 513 475
3 467 514 475
3 470 477 515
3 480 515 477
3 516 515 480
3 473 516 480
3 517 518 519
3 517 520 521
3 519 520 517
3 520 522 521
3 484 523 524
3 483 523 484
3 485 484 525
3 484 524 525
3 518 517 487
3 518 487 525
3 525 487 485
3 489 487 517
3 521 489 517
3 521 522 526
3 521 526 489
3 489 526 491
3 493 527 528
3 493 491 527
3 491 526 527
3 527 529 528
3 483 494 523
3 523 494 530
3 528 531 496
3 493 528 496
3 532 528 529
3 531 528 532
3 494 497 530
3 530 497 533
3 531 534 535
3 531 535 496
3 496 535 499
3 532 534 531
3 536 501 537
3 536 533 501
3 533 497 501
3 537 538 539
3 536 537 539
3 538 504 503
3 538 503 539
3 539 503 540
3 506 541 503
3 503 541 540
3 507 542 506
3 506 542 541
3 535 507 499
3 542 507 535
3 501 509 537
3 512 537 509
3 538 537 512
3 504 538 512
3 519 543 544
3 518 543 519
3 520 519 545
3 519 544 545
3 522 546 547
3 522 520 546
3 520 545 546
3 547 548 549
3 546 548 547
3 548 550 549
3 524 523 551
3 552 524 551
3 552 553 524
3 553 525 524
3 543 518 525
3 553 543 525
3 522 547 526
3 527 526 547
3 549 527 547
3 529 554 555
3 527 554 529
3 527 550 554
3 527 549 550
3 555 556 557
3 554 556 555
3 556 558 557
3 551 530 559
3 523 530 551
3 560 552 551
3 559 560 551
3 555 561 532
3 529 555 532
3 557 562 555
3 562 561 555
3 563 557 558
3 562 557 563
3 559 533 564
3 530 533 559
3 565 560 559
3 565 559 566
3 566 559 564
3 566 567 568
3 565 566 568
3 567 569 570
3 568 567 570
3 569 571 572
3 570 569 572
3 571 535 534
3 571 534 572
3 572 534 573
3 561 534 532
3 561 574 534
3 574 573 534
3 562 574 561
3 575 574 562
3 563 575 562
3 533 536 564
3 539 564 536
3 566 564 539
3 540 566 539
3 567 566 540
3 541 567 540
3 569 567 541
3 542 569 541
3 571 569 542
3 535 571 542
3 544 576 577
3 543 576 544
3 545 544 578
3 544 577 578
3 546 545 579
3 545 578 579
3 548 546 580
3 546 579 580
3 580 550 548
3 581 550 580
3 553 582 583
3 552 582 553
3 576 543 553
3 583 576 553
3 550 581 584
3 554 550 584
3 556 554 585
3 554 584 585
3 585 558 556
3 586 558 585
3 552 560 582
3 582 560 587
3 558 586 563
3 586 588 563
3 560 589 587
3 565 589 560
3 568 590 565
3 565 590 589
3 591 592 590
3 591 590 570
3 570 590 568
3 570 572 593
3 591 570 593
3 572 573 594
3 593 572 594
3 573 574 595
3 594 573 595
3 596 595 574
3 596 574 597
3 597 574 575
3 588 575 563
3 597 575 588
3 591 598 592
3 593 598 591
3 599 598 593
3 594 599 593
3 600 599 594
3 595 600 594
3 601 600 595
3 596 601 595
3 577 576 602
3 577 603 578
3 602 603 577
3 578 604 579
3 603 604 578
3 579 605 580
3 604 605 579
3 580 605 581
3 583 582 606
3 583 606 607
3 576 583 607
3 576 607 608
3 576 608 602
3 603 602 608
3 609 603 608
3 604 603 609
3 610 604 609
3 605 604 610
3 611 605 610
3 581 605 611
3 581 611 584
3 584 611 612
3 585 584 613
3 584 612 613
3 586 614 615
3 586 585 614
3 585 613 614
3 614 616 615
3 606 587 617
3 582 587 606
3 618 607 606
3 617 618 606
3 615 619 588
3 586 615 588
3 620 615 616
3 619 615 620
3 587 589 617
3 617 621 618
3 617 589 621
3 589 590 621
3 621 590 592
3 622 621 592
3 597 623 624
3 596 597 624
3 619 597 588
3 619 625 597
3 625 623 597
3 620 625 619
3 592 626 622
3 598 626 592
3 599 627 598
3 598 627 626
3 600 628 599
3 599 628 627
3 601 629 600
3 600 629 628
3 624 601 596
3 629 601 624
3 608 607 630
3 608 631 609
3 630 631 608
3 632 609 631
3 632 633 609
3 633 610 609
3 611 610 634
3 610 633 634
3 612 611 635
3 611 634 635
3 613 612 636
3 612 635 636
3 614 613 637
3 613 636 637
3 637 616 614
3 638 616 637
3 630 618 639
3 607 618 630
3 631 630 640
3 640 630 639
3 641 632 631
3 640 641 631
3 616 638 620
3 638 642 620
3 618 621 639
3 622 639 621
3 622 643 639
3 643 640 639
3 644 641 640
3 643 644 640
3 623 645 646
3 624 623 646
3 625 647 623
3 623 647 645
3 642 625 620
3 647 625 642
3 622 626 643
3 643 648 644
3 643 626 648
3 626 627 648
3 628 649 627
3 627 649 648
3 629 650 628
3 628 650 649
3 646 629 624
3 650 629 646
3 633 632 651
3 633 652 634
3 651 652 633
3 634 653 635
3 652 653 634
3 635 654 636
3 653 654 635
3 636 655 637
3 654 655 636
3 637 655 638
3 651 641 656
3 632 641 651
3 652 651 657
3 657 651 656
3 653 652 658
3 658 652 657
3 654 653 659
3 659 653 658
3 655 654 660
3 660 654 659
3 638 660 642
3 655 660 638
3 656 644 661
3 641 644 656
3 657 656 662
3 662 656 661
3 658 657 663
3 663 657 662
3 645 663 646
3 645 659 663
3 659 658 663
3 647 659 645
3 660 659 647
3 642 660 647
3 644 648 661
3 649 661 648
3 662 661 649
3 650 662 649
3 663 662 650
3 646 663 650
