# vtk DataFile Version 3.0
this file was written using fslvtkio
ASCII
DATASET POLYDATA
POINTS 642 float
141.453 130.586 92.1635
127.55 127.345 91.2773
128.529 121.978 89.7615
140.837 124.61 89.4738
137.253 123.679 94.8242
139.942 129.221 83.9813
131.294 127.298 85.0663
129.795 121.297 95.3854
133.799 127.828 94.8771
134.526 119.59 91.8036
135.331 124.719 87.7343
134.705 130.266 88.465
131.096 124.832 96.2758
135.654 125.902 95.265
133.867 121.732 96.5434
131.744 118.355 94.2077
136.648 120.376 94.0512
132.819 129.764 85.7375
135.34 128.487 83.2989
137.634 131.215 85.3227
133.582 126.068 86.076
137.853 126.387 84.8799
139.595 123.848 92.3345
139.754 127.07 93.8108
142.304 127.741 90.4567
141.555 126.868 86.354
141.709 131.038 87.5396
127.628 124.17 93.8322
127.369 119.917 92.2041
126.444 124.452 89.7457
128.587 127.925 87.614
129.641 125.24 87.7985
138.415 131.071 90.1601
137.827 129.625 94.5045
134.255 129.637 92.0713
130.836 129.166 89.8188
130.339 127.453 93.3862
138.315 124.869 88.3094
134.577 122.038 89.6662
138.07 121.688 90.6547
131.96 123.533 89.2215
130.77 119.437 90.626
133.469 125.252 96.0703
134.701 123.801 96.4359
132.531 123.29 96.967
135.831 122.726 95.9043
136.541 124.752 95.1972
134.773 126.972 95.2112
132.415 126.387 95.5767
130.135 123.061 96.1846
131.574 121.271 96.4458
132.783 119.525 96.0855
135.409 120.749 95.6804
134.391 119 94.6297
137.348 121.965 94.7341
130.467 119.446 95.1661
133.393 118.581 92.9339
135.903 119.442 92.7544
133.913 129.62 83.793
136.44 130.398 83.3721
135.074 130.588 85.1418
139.115 130.75 84.165
137.826 129.014 83.2843
133.124 127.917 83.9691
131.788 128.772 84.9763
133.803 130.229 86.9915
136.08 130.833 86.9488
135.706 126.311 85.348
136.857 127.393 83.8326
134.46 126.982 84.2696
139.258 127.561 83.7897
136.528 125.739 86.5087
134.581 125.382 86.8983
132.394 126.646 85.3202
139.963 125.645 93.0135
141.396 127.533 92.3356
141.08 125.876 91.5364
142.274 129.436 91.3856
141.016 128.952 93.5206
138.283 125.43 94.009
138.545 123.764 93.6862
140.435 124.127 90.8998
141.772 125.906 89.8819
142.384 127.519 88.3418
142.654 129.478 89.0458
142.19 129.067 86.7757
141.865 130.977 90.0217
141.327 125.65 88.0751
141.205 128.154 84.671
141.085 130.365 85.4217
127.046 122.024 93.0992
125.893 121.771 91.0039
126.503 123.997 91.8387
127.108 122.677 89.6256
127.329 120.303 90.2028
128.461 120.356 94.1099
128.576 122.749 94.7324
127.34 125.838 92.6456
126.708 126.085 90.5391
126.835 126.519 88.4574
127.847 124.84 88.7427
128.432 126.277 86.896
129.002 123.679 89.2271
127.571 127.838 89.5142
129.754 127.768 85.9362
130.394 126.139 86.1358
138.22 130.666 92.5427
136.144 129.79 93.2714
136.388 130.446 91.2332
133.996 128.944 93.7239
135.787 128.816 94.9835
139.917 130.333 93.7518
140.204 131.122 91.2968
136.518 130.673 89.0921
134.518 130.07 90.2314
132.427 129.474 91.0527
132.112 128.785 92.9753
130.335 128.719 91.9357
132.035 127.541 94.3387
132.887 129.697 89.1073
128.773 128.649 90.5986
128.492 127.622 92.6467
136.624 123.471 89.1071
136.411 121.837 90.0223
138.33 123.334 89.6623
136.323 120.448 91.2563
134.488 120.573 90.4887
135.053 123.63 88.8689
136.84 125.01 87.9869
139.723 124.666 88.833
139.757 123.087 90.0768
131.291 121.55 89.8769
132.655 120.899 90.1503
133.19 122.769 89.5607
132.666 119.303 91.2442
129.338 120.552 89.9694
130.17 122.77 89.7205
133.719 124.324 88.5485
137.642 126.537 94.4659
136.958 127.713 95.1469
139.166 128.45 94.6864
140.163 131.482 88.7533
138.171 131.332 87.687
139.93 131.559 86.2381
137.689 120.579 92.2656
138.19 121.933 93.3177
139.318 122.184 91.7019
140.065 125.77 87.1669
139.919 126.568 85.4158
138.305 125.967 86.7018
130.378 126.095 95.0765
128.839 124.614 95.5546
128.605 126.064 94.1012
129.5 128.866 88.5998
130.712 128.841 86.7759
131.838 129.579 87.7153
128.825 118.925 91.1665
129.294 118.536 93.3046
131.065 118.204 92.1968
132.726 124.922 87.7542
131.635 125.582 87.0431
130.879 124.406 88.6261
134.065 124.627 96.1914
133.671 123.568 96.9097
132.958 124.433 96.5567
133.21 122.526 96.9211
134.314 122.921 96.7724
135.06 124.809 95.7815
134.594 125.506 95.6735
132.315 125.06 96.2713
131.852 124.188 96.6555
135.265 123.331 96.3985
135.636 124.248 95.8433
136.142 123.712 95.7156
136.048 125.28 95.3169
134.94 122.202 96.3932
136.599 123.264 95.3582
136.906 124.16 95.02
134.066 126.101 95.5635
132.945 125.816 95.8587
133.581 126.587 95.3906
131.766 125.608 95.9185
135.196 126.507 95.2928
134.294 127.381 95.0611
133.197 127.121 95.0936
131.415 123.196 96.6001
132.121 122.302 96.7207
131 122.269 96.3728
132.757 121.42 96.5716
130.589 123.963 96.35
130.013 122.189 95.7409
130.622 121.226 95.9434
134.173 120.059 95.9425
134.991 119.655 95.3723
133.6 118.971 95.5223
135.714 119.52 94.4856
136.057 120.386 94.9852
134.647 121.114 96.2901
133.434 120.621 96.4116
132.29 118.717 95.2758
132.972 118.546 94.602
136.462 121.354 95.1758
135.676 121.686 96.0093
136.641 122.275 95.3882
137.1 121.126 94.4956
137.273 122.798 94.7214
132.206 120.398 96.3934
131.497 119.323 95.7873
131.077 120.276 95.9211
131.05 118.628 94.8285
130.054 120.294 95.4051
133.882 118.647 93.9891
135.318 119.127 93.7899
134.61 118.888 93.0185
136.433 119.689 93.4803
132.543 118.322 93.6352
133.994 119.11 92.3411
135.152 119.465 92.3131
135.085 130.121 83.4008
135.728 130.69 84.1781
134.471 130.247 84.3325
136.321 130.982 85.0927
137.05 131.023 84.2268
135.811 129.473 83.1068
134.517 129.046 83.1909
133.43 129.782 84.7192
133.978 130.169 85.326
137.79 130.635 83.624
137.141 129.746 83.1509
138.488 130.031 83.3949
136.554 128.766 83.2038
138.356 131.172 84.5879
139.642 130.067 83.9225
139.05 129.121 83.5272
133.521 128.798 83.7061
132.935 129.191 84.395
132.384 128.454 84.2753
132.398 129.231 85.3557
134.143 128.225 83.4987
132.082 127.552 84.4685
131.442 127.999 84.8369
134.411 130.453 86.0856
135.633 130.794 86.0036
134.916 130.57 86.8683
136.857 131.067 86.1341
133.322 130.079 86.285
134.248 130.295 87.7731
135.334 130.577 87.7762
136.333 126.745 84.509
135.648 127.187 83.9245
135.155 126.578 84.7279
134.919 127.721 83.6397
136.134 128.032 83.5806
137.44 126.828 84.3238
136.734 126.319 85.0318
134.66 126.226 85.6193
134.074 126.473 85.1116
137.327 128.253 83.5208
138.023 127.448 83.7386
138.59 128.314 83.4818
138.612 126.795 84.1363
139.673 128.473 83.8111
136.15 125.989 85.8659
135.111 125.868 86.0593
135.557 125.602 86.695
134.13 125.774 86.508
137.213 126.093 85.729
135.921 125.251 87.1163
135.029 125.046 87.3252
133.39 126.746 84.7242
133.826 127.478 84.0263
132.732 127.168 84.5247
133.018 126.373 85.6905
131.813 126.971 85.1597
140.724 126.667 92.6932
141.295 126.804 91.924
140.553 125.709 92.296
141.879 126.895 91.11
141.964 127.695 91.4828
140.607 127.36 93.129
139.901 126.478 93.3306
139.775 124.757 92.5941
140.4 124.823 91.9576
142.02 128.52 91.978
141.221 128.302 92.86
141.798 129.239 92.5152
140.482 127.998 93.6982
142.451 128.612 90.9403
141.984 130.155 91.805
141.325 129.87 92.9263
139.184 125.601 93.5332
139.205 124.636 93.2257
138.447 124.56 93.8812
139.063 123.772 92.9779
138.996 126.294 93.806
137.714 124.441 94.4622
137.874 123.685 94.3293
140.752 124.868 91.2063
141.48 125.959 90.7523
141.167 125.003 90.409
142.093 126.809 90.1723
140.05 123.907 91.6402
140.718 124.355 90.2143
141.44 125.18 89.5865
142.435 128.55 88.7477
142.515 129.375 87.891
142.494 128.324 87.5601
142.254 130.112 87.0731
142.373 130.326 88.2642
142.451 128.63 89.7937
142.346 127.655 89.3895
142.101 127.276 87.333
142.174 127.922 86.4046
142.372 130.382 89.5186
142.638 129.455 90.2195
142.306 130.345 90.6929
141.9 131.036 88.7302
141.741 130.847 91.162
142.1 126.688 89.1222
141.93 126.518 88.1063
141.727 125.783 88.9522
141.452 126.402 87.307
141.183 125.127 88.7932
141.752 128.603 85.701
141.841 129.842 86.0467
141.239 129.363 85.0269
141.577 130.816 86.4317
141.539 127.413 85.5013
140.641 128.756 84.2777
140.597 129.896 84.5258
126.306 121.835 92.0917
126.104 122.93 91.4184
126.661 123.006 92.4679
126.309 124.165 90.8174
125.991 123.152 90.3985
126.427 120.578 91.6237
126.983 120.818 92.7315
127.289 123.109 93.4591
126.957 123.999 92.8516
126.288 122.162 90.1144
126.405 120.769 90.5576
126.961 121.365 89.9159
127.03 119.897 91.0417
126.643 123.479 89.6349
127.764 122.225 89.6845
127.823 121.139 89.7604
127.664 121.124 93.646
127.788 122.349 94.0213
128.398 121.513 94.4519
127.887 123.477 94.4033
127.913 120.103 93.2029
129.102 120.74 94.9423
129.166 122.051 95.059
126.861 124.941 92.3227
126.544 125.04 91.2821
126.942 125.824 91.5667
126.396 125.308 90.1853
127.357 124.976 93.3039
127.435 126.575 91.9037
127.084 126.759 90.943
127.209 125.544 88.3441
128.107 125.55 87.7841
127.561 126.448 87.5848
128.953 125.637 87.2493
128.689 125.021 88.2583
127.095 124.607 89.2051
126.662 125.506 89.1813
127.443 127.423 87.9386
128.223 127.284 87.0697
128.359 124.202 89.0666
127.467 123.749 89.3038
128.024 123.136 89.3727
129.308 124.608 88.7111
128.66 122.78 89.6119
126.513 126.339 89.4901
126.959 127.351 88.9331
126.889 127.063 89.9665
127.959 127.995 88.5179
127.416 127.637 90.4066
129.022 127.002 86.4307
129.368 126.145 86.4545
129.894 126.867 85.8367
129.957 125.701 86.9465
129.112 127.906 86.7043
130.506 127.508 85.3455
130.913 126.799 85.6314
137.175 130.305 92.9412
136.307 130.201 92.244
137.304 130.657 91.8737
135.361 130.029 91.6594
135.287 129.753 92.6121
136.985 129.862 93.9684
138.047 130.27 93.6563
138.347 130.911 91.3986
137.393 130.797 90.74
135.077 129.418 93.5399
136.008 129.394 94.1926
134.866 129.006 94.3925
136.827 129.212 94.7786
134.195 129.377 92.9834
133.879 128.38 94.4579
134.747 128.304 94.9468
139.101 130.614 93.263
139.257 130.973 92.0142
140.124 130.868 92.6493
139.332 131.127 90.7399
138.894 130.067 94.2392
140.815 130.45 92.9994
140.957 130.982 91.8694
136.472 130.593 90.1892
135.459 130.309 90.7456
135.518 130.346 89.6999
134.393 129.913 91.1802
137.459 130.863 89.5659
135.556 130.454 88.7127
134.64 130.108 89.2857
132.236 129.28 92.0721
131.211 128.766 92.4612
131.343 129.206 91.5471
130.248 128.221 92.7796
131.16 128.175 93.224
133.14 129.353 92.5925
133.332 129.577 91.5917
131.561 129.328 90.4796
130.57 129.037 90.9289
131.999 128.176 93.6565
133.036 128.917 93.3318
132.913 128.34 94.1655
131.208 127.468 93.8746
132.91 127.692 94.7034
133.517 129.75 90.6388
132.641 129.556 90.0639
133.685 129.878 89.6693
131.833 129.433 89.445
133.848 129.943 88.7365
129.526 128.729 91.3369
129.367 128.236 92.3048
128.596 128.221 91.6856
129.357 127.616 93.1199
129.834 128.932 90.24
128.047 128.045 91.0094
127.913 127.51 91.9773
136.515 122.668 89.6505
137.363 122.502 89.7815
137.474 123.517 89.4814
138.166 122.385 90.0224
137.261 121.715 90.3169
135.509 121.904 89.7949
135.636 122.765 89.5324
137.521 124.161 88.7539
138.256 124.15 89.0742
136.398 121.099 90.5613
135.465 121.219 90.225
135.404 120.551 90.8947
134.543 121.289 89.9419
137.198 121.052 90.9889
135.411 119.979 91.559
134.48 120.041 91.2139
135.791 123.48 88.9155
136.761 124.236 88.5874
136.001 124.362 88.5357
137.582 124.945 88.1412
134.843 122.902 89.305
135.186 124.398 88.3637
136.035 124.801 87.7717
139.005 124.117 89.3665
138.997 123.117 89.8189
139.686 123.972 89.6294
138.939 122.35 90.3358
138.985 124.735 88.5602
140.359 124.639 89.168
140.335 123.969 89.9657
131.899 121.215 90.0943
132.938 121.871 89.8595
132.274 122.2 89.8318
133.853 122.434 89.6239
133.636 121.517 89.9678
131.741 120.126 90.3695
131 120.471 90.1445
131.583 122.563 89.6241
132.514 123.136 89.424
133.593 120.672 90.202
132.674 119.954 90.4122
133.597 119.972 90.7255
131.753 119.272 90.8805
133.611 119.521 91.5973
130.35 120.979 89.844
130.684 122.09 89.7548
129.727 121.575 89.7798
131.059 123.103 89.4795
130.044 120.009 90.2603
128.811 121.155 89.7282
129.313 122.363 89.8012
133.403 123.61 89.1399
134.132 123.22 89.2342
134.323 123.981 88.747
132.84 123.937 88.8773
134.546 124.508 88.0371
137.31 127.083 94.7879
138.039 127.989 94.8521
138.437 127.382 94.5079
138.609 129.152 94.8116
137.507 128.741 95.0603
136.3 126.838 95.1269
136.635 126.172 94.8825
138.739 126.814 94.144
139.469 127.68 94.2603
136.472 128.375 95.2478
135.875 127.397 95.2757
135.344 127.876 95.1811
136.973 125.674 94.7128
137.986 126.035 94.1852
137.402 125.119 94.6224
140.1 128.579 94.1379
139.592 129.427 94.3426
140.596 129.685 93.7232
139.191 131.544 88.1644
139.065 131.552 86.8845
140.117 131.702 87.4325
138.825 131.419 85.7248
137.966 131.332 86.4659
138.28 131.204 88.9099
139.27 131.285 89.4458
141.055 131.492 88.107
140.989 131.507 86.8277
137.111 131.068 87.2459
137.34 130.977 88.3784
136.266 130.776 88.005
140.152 131.23 89.9876
141.092 131.265 89.3308
141.05 131.175 90.6272
140.583 131.174 85.7894
139.509 131.226 85.2393
140.154 130.649 84.7497
138.097 121.129 92.8761
138.669 122.028 92.5879
138.41 121.395 92.0831
139.409 123.003 92.0664
138.835 122.916 92.8324
137.694 121.087 93.7548
137.297 120.39 93.1912
137.848 121.123 91.527
138.766 121.774 91.1424
138.338 122.892 93.4421
137.847 121.906 93.9956
137.885 122.813 94.1063
136.865 120.01 92.5072
137.069 120.486 91.6733
136.184 119.889 92.0097
139.579 122.462 90.8184
139.958 123.151 91.3023
140.223 123.522 90.5593
140.058 126.195 86.3182
139.089 126.248 86.1012
139.185 125.9 86.9184
138.169 126.197 85.8418
138.918 126.466 85.0745
140.857 126.683 85.7979
140.812 126.364 86.7199
139.142 125.412 87.7347
138.336 125.573 87.5493
139.731 126.891 84.3736
140.765 127.099 84.9042
140.327 127.774 84.2118
140.712 125.721 87.4661
139.846 125.221 88.0551
140.572 125.086 88.3239
137.545 125.593 87.422
137.459 125.892 86.5432
136.753 125.445 87.2423
129.534 125.498 95.505
128.631 125.379 94.7946
129.471 126.118 94.6083
127.964 125.224 94.0887
128.051 124.493 94.7598
129.892 124.734 96.1264
130.669 125.499 95.8073
130.321 126.819 94.2746
129.442 126.788 93.7839
128.606 123.705 95.1335
129.474 123.83 95.955
129.297 122.909 95.4905
131.423 126.184 95.4058
131.187 126.898 94.6952
132.129 127.058 95.1151
128.573 126.809 93.3612
127.923 125.956 93.4034
127.889 126.749 92.6816
130.01 128.911 87.5692
131.299 129.251 87.1674
130.676 129.296 88.1285
132.38 129.688 86.7105
131.831 129.258 86.2472
129.502 128.522 87.1375
128.986 128.517 88.0303
130.203 129.059 89.1541
131.317 129.321 88.7409
131.361 128.814 85.9287
130.209 128.467 86.3707
130.745 128.339 85.5047
128.437 128.503 88.9742
129.125 128.821 89.5871
128.091 128.343 90.0254
132.32 129.654 88.4274
132.838 129.924 87.3256
133.366 129.884 88.0599
128.964 118.644 92.2387
130.136 118.216 92.7497
129.892 118.431 91.7032
131.302 118.105 93.1775
130.56 118.262 93.7181
128.304 119.259 92.7482
127.841 119.195 91.6558
129.818 119.013 90.8904
130.908 118.621 91.2224
129.869 118.778 94.3782
128.825 119.369 93.7304
129.412 119.789 94.649
127.823 119.506 90.5859
129.043 119.678 90.3964
128.256 120.307 89.9885
131.942 118.695 91.6347
132.198 118.344 92.6306
132.97 118.931 92.0668
132.252 125.295 87.3925
131.242 125.093 87.894
131.811 124.713 88.2599
130.299 124.798 88.3015
130.617 125.381 87.4995
132.601 125.881 86.5587
133.171 125.542 86.9001
132.325 124.34 88.6348
131.396 123.914 88.9359
130.979 125.767 86.6315
132.028 126.13 86.2307
131.436 126.416 85.9032
133.644 125.154 87.2277
133.256 124.612 88.1541
134.162 124.756 87.6444
130.494 123.566 89.2473
129.964 124.073 89.0482
129.6 123.193 89.4645
POLYGONS 1280  5120
3 164 162 163
3 163 44 164
3 162 43 163
3 164 42 162
3 166 165 163
3 163 43 166
3 165 44 163
3 166 14 165
3 168 167 162
3 162 42 168
3 167 43 162
3 168 13 167
3 170 169 164
3 164 44 170
3 169 42 164
3 170 12 169
3 173 171 172
3 172 46 173
3 171 43 172
3 173 45 171
3 167 174 172
3 172 43 167
3 174 46 172
3 167 13 174
3 175 166 171
3 171 45 175
3 166 43 171
3 175 14 166
3 177 176 173
3 173 46 177
3 176 45 173
3 177 4 176
3 180 178 179
3 179 48 180
3 178 42 179
3 180 47 178
3 169 181 179
3 179 42 169
3 181 48 179
3 169 12 181
3 182 168 178
3 178 47 182
3 168 42 178
3 182 13 168
3 184 183 180
3 180 48 184
3 183 47 180
3 184 8 183
3 187 185 186
3 186 50 187
3 185 44 186
3 187 49 185
3 165 188 186
3 186 44 165
3 188 50 186
3 165 14 188
3 189 170 185
3 185 49 189
3 170 44 185
3 189 12 170
3 191 190 187
3 187 50 191
3 190 49 187
3 191 7 190
3 194 192 193
3 193 53 194
3 192 52 193
3 194 51 192
3 196 195 193
3 193 52 196
3 195 53 193
3 196 16 195
3 198 197 192
3 192 51 198
3 197 52 192
3 198 14 197
3 200 199 194
3 194 53 200
3 199 51 194
3 200 15 199
3 203 201 202
3 202 45 203
3 201 52 202
3 203 54 201
3 197 175 202
3 202 52 197
3 175 45 202
3 197 14 175
3 204 196 201
3 201 54 204
3 196 52 201
3 204 16 196
3 176 205 203
3 203 45 176
3 205 54 203
3 176 4 205
3 208 206 207
3 207 55 208
3 206 51 207
3 208 50 206
3 199 209 207
3 207 51 199
3 209 55 207
3 199 15 209
3 188 198 206
3 206 50 188
3 198 51 206
3 188 14 198
3 210 191 208
3 208 55 210
3 191 50 208
3 210 7 191
3 213 211 212
3 212 57 213
3 211 53 212
3 213 56 211
3 195 214 212
3 212 53 195
3 214 57 212
3 195 16 214
3 215 200 211
3 211 56 215
3 200 53 211
3 215 15 200
3 217 216 213
3 213 57 217
3 216 56 213
3 217 9 216
3 220 218 219
3 219 60 220
3 218 59 219
3 220 58 218
3 222 221 219
3 219 59 222
3 221 60 219
3 222 19 221
3 224 223 218
3 218 58 224
3 223 59 218
3 224 18 223
3 226 225 220
3 220 60 226
3 225 58 220
3 226 17 225
3 229 227 228
3 228 62 229
3 227 59 228
3 229 61 227
3 223 230 228
3 228 59 223
3 230 62 228
3 223 18 230
3 231 222 227
3 227 61 231
3 222 59 227
3 231 19 222
3 233 232 229
3 229 62 233
3 232 61 229
3 233 5 232
3 236 234 235
3 235 64 236
3 234 58 235
3 236 63 234
3 225 237 235
3 235 58 225
3 237 64 235
3 225 17 237
3 238 224 234
3 234 63 238
3 224 58 234
3 238 18 224
3 240 239 236
3 236 64 240
3 239 63 236
3 240 6 239
3 243 241 242
3 242 66 243
3 241 60 242
3 243 65 241
3 221 244 242
3 242 60 221
3 244 66 242
3 221 19 244
3 245 226 241
3 241 65 245
3 226 60 241
3 245 17 226
3 247 246 243
3 243 66 247
3 246 65 243
3 247 11 246
3 250 248 249
3 249 69 250
3 248 68 249
3 250 67 248
3 252 251 249
3 249 68 252
3 251 69 249
3 252 18 251
3 254 253 248
3 248 67 254
3 253 68 248
3 254 21 253
3 256 255 250
3 250 69 256
3 255 67 250
3 256 20 255
3 259 257 258
3 258 70 259
3 257 68 258
3 259 62 257
3 253 260 258
3 258 68 253
3 260 70 258
3 253 21 260
3 230 252 257
3 257 62 230
3 252 68 257
3 230 18 252
3 261 233 259
3 259 70 261
3 233 62 259
3 261 5 233
3 264 262 263
3 263 72 264
3 262 67 263
3 264 71 262
3 255 265 263
3 263 67 255
3 265 72 263
3 255 20 265
3 266 254 262
3 262 71 266
3 254 67 262
3 266 21 254
3 268 267 264
3 264 72 268
3 267 71 264
3 268 10 267
3 271 269 270
3 270 63 271
3 269 69 270
3 271 73 269
3 251 238 270
3 270 69 251
3 238 63 270
3 251 18 238
3 272 256 269
3 269 73 272
3 256 69 269
3 272 20 256
3 239 273 271
3 271 63 239
3 273 73 271
3 239 6 273
3 276 274 275
3 275 76 276
3 274 75 275
3 276 74 274
3 278 277 275
3 275 75 278
3 277 76 275
3 278 24 277
3 280 279 274
3 274 74 280
3 279 75 274
3 280 23 279
3 282 281 276
3 276 76 282
3 281 74 276
3 282 22 281
3 285 283 284
3 284 78 285
3 283 75 284
3 285 77 283
3 279 286 284
3 284 75 279
3 286 78 284
3 279 23 286
3 287 278 283
3 283 77 287
3 278 75 283
3 287 24 278
3 289 288 285
3 285 78 289
3 288 77 285
3 289 0 288
3 292 290 291
3 291 80 292
3 290 74 291
3 292 79 290
3 281 293 291
3 291 74 281
3 293 80 291
3 281 22 293
3 294 280 290
3 290 79 294
3 280 74 290
3 294 23 280
3 296 295 292
3 292 80 296
3 295 79 292
3 296 4 295
3 299 297 298
3 298 82 299
3 297 76 298
3 299 81 297
3 277 300 298
3 298 76 277
3 300 82 298
3 277 24 300
3 301 282 297
3 297 81 301
3 282 76 297
3 301 22 282
3 303 302 299
3 299 82 303
3 302 81 299
3 303 3 302
3 306 304 305
3 305 85 306
3 304 84 305
3 306 83 304
3 308 307 305
3 305 84 308
3 307 85 305
3 308 26 307
3 310 309 304
3 304 83 310
3 309 84 304
3 310 24 309
3 312 311 306
3 306 85 312
3 311 83 306
3 312 25 311
3 315 313 314
3 314 77 315
3 313 84 314
3 315 86 313
3 309 287 314
3 314 84 309
3 287 77 314
3 309 24 287
3 316 308 313
3 313 86 316
3 308 84 313
3 316 26 308
3 288 317 315
3 315 77 288
3 317 86 315
3 288 0 317
3 320 318 319
3 319 87 320
3 318 83 319
3 320 82 318
3 311 321 319
3 319 83 311
3 321 87 319
3 311 25 321
3 300 310 318
3 318 82 300
3 310 83 318
3 300 24 310
3 322 303 320
3 320 87 322
3 303 82 320
3 322 3 303
3 325 323 324
3 324 89 325
3 323 85 324
3 325 88 323
3 307 326 324
3 324 85 307
3 326 89 324
3 307 26 326
3 327 312 323
3 323 88 327
3 312 85 323
3 327 25 312
3 329 328 325
3 325 89 329
3 328 88 325
3 329 5 328
3 332 330 331
3 331 92 332
3 330 91 331
3 332 90 330
3 334 333 331
3 331 91 334
3 333 92 331
3 334 29 333
3 336 335 330
3 330 90 336
3 335 91 330
3 336 28 335
3 338 337 332
3 332 92 338
3 337 90 332
3 338 27 337
3 341 339 340
3 340 94 341
3 339 91 340
3 341 93 339
3 335 342 340
3 340 91 335
3 342 94 340
3 335 28 342
3 343 334 339
3 339 93 343
3 334 91 339
3 343 29 334
3 345 344 341
3 341 94 345
3 344 93 341
3 345 2 344
3 348 346 347
3 347 96 348
3 346 90 347
3 348 95 346
3 337 349 347
3 347 90 337
3 349 96 347
3 337 27 349
3 350 336 346
3 346 95 350
3 336 90 346
3 350 28 336
3 352 351 348
3 348 96 352
3 351 95 348
3 352 7 351
3 355 353 354
3 354 98 355
3 353 92 354
3 355 97 353
3 333 356 354
3 354 92 333
3 356 98 354
3 333 29 356
3 357 338 353
3 353 97 357
3 338 92 353
3 357 27 338
3 359 358 355
3 355 98 359
3 358 97 355
3 359 1 358
3 362 360 361
3 361 101 362
3 360 100 361
3 362 99 360
3 364 363 361
3 361 100 364
3 363 101 361
3 364 31 363
3 366 365 360
3 360 99 366
3 365 100 360
3 366 29 365
3 368 367 362
3 362 101 368
3 367 99 362
3 368 30 367
3 371 369 370
3 370 93 371
3 369 100 370
3 371 102 369
3 365 343 370
3 370 100 365
3 343 93 370
3 365 29 343
3 372 364 369
3 369 102 372
3 364 100 369
3 372 31 364
3 344 373 371
3 371 93 344
3 373 102 371
3 344 2 373
3 376 374 375
3 375 103 376
3 374 99 375
3 376 98 374
3 367 377 375
3 375 99 367
3 377 103 375
3 367 30 377
3 356 366 374
3 374 98 356
3 366 99 374
3 356 29 366
3 378 359 376
3 376 103 378
3 359 98 376
3 378 1 359
3 381 379 380
3 380 105 381
3 379 101 380
3 381 104 379
3 363 382 380
3 380 101 363
3 382 105 380
3 363 31 382
3 383 368 379
3 379 104 383
3 368 101 379
3 383 30 368
3 385 384 381
3 381 105 385
3 384 104 381
3 385 6 384
3 388 386 387
3 387 108 388
3 386 107 387
3 388 106 386
3 390 389 387
3 387 107 390
3 389 108 387
3 390 34 389
3 392 391 386
3 386 106 392
3 391 107 386
3 392 33 391
3 394 393 388
3 388 108 394
3 393 106 388
3 394 32 393
3 397 395 396
3 396 110 397
3 395 107 396
3 397 109 395
3 391 398 396
3 396 107 391
3 398 110 396
3 391 33 398
3 399 390 395
3 395 109 399
3 390 107 395
3 399 34 390
3 401 400 397
3 397 110 401
3 400 109 397
3 401 8 400
3 404 402 403
3 403 112 404
3 402 106 403
3 404 111 402
3 393 405 403
3 403 106 393
3 405 112 403
3 393 32 405
3 406 392 402
3 402 111 406
3 392 106 402
3 406 33 392
3 408 407 404
3 404 112 408
3 407 111 404
3 408 0 407
3 411 409 410
3 410 114 411
3 409 108 410
3 411 113 409
3 389 412 410
3 410 108 389
3 412 114 410
3 389 34 412
3 413 394 409
3 409 113 413
3 394 108 409
3 413 32 394
3 415 414 411
3 411 114 415
3 414 113 411
3 415 11 414
3 418 416 417
3 417 117 418
3 416 116 417
3 418 115 416
3 420 419 417
3 417 116 420
3 419 117 417
3 420 36 419
3 422 421 416
3 416 115 422
3 421 116 416
3 422 34 421
3 424 423 418
3 418 117 424
3 423 115 418
3 424 35 423
3 427 425 426
3 426 109 427
3 425 116 426
3 427 118 425
3 421 399 426
3 426 116 421
3 399 109 426
3 421 34 399
3 428 420 425
3 425 118 428
3 420 116 425
3 428 36 420
3 400 429 427
3 427 109 400
3 429 118 427
3 400 8 429
3 432 430 431
3 431 119 432
3 430 115 431
3 432 114 430
3 423 433 431
3 431 115 423
3 433 119 431
3 423 35 433
3 412 422 430
3 430 114 412
3 422 115 430
3 412 34 422
3 434 415 432
3 432 119 434
3 415 114 432
3 434 11 415
3 437 435 436
3 436 121 437
3 435 117 436
3 437 120 435
3 419 438 436
3 436 117 419
3 438 121 436
3 419 36 438
3 439 424 435
3 435 120 439
3 424 117 435
3 439 35 424
3 441 440 437
3 437 121 441
3 440 120 437
3 441 1 440
3 444 442 443
3 443 124 444
3 442 123 443
3 444 122 442
3 446 445 443
3 443 123 446
3 445 124 443
3 446 39 445
3 448 447 442
3 442 122 448
3 447 123 442
3 448 38 447
3 450 449 444
3 444 124 450
3 449 122 444
3 450 37 449
3 453 451 452
3 452 126 453
3 451 123 452
3 453 125 451
3 447 454 452
3 452 123 447
3 454 126 452
3 447 38 454
3 455 446 451
3 451 125 455
3 446 123 451
3 455 39 446
3 457 456 453
3 453 126 457
3 456 125 453
3 457 9 456
3 460 458 459
3 459 128 460
3 458 122 459
3 460 127 458
3 449 461 459
3 459 122 449
3 461 128 459
3 449 37 461
3 462 448 458
3 458 127 462
3 448 122 458
3 462 38 448
3 464 463 460
3 460 128 464
3 463 127 460
3 464 10 463
3 467 465 466
3 466 130 467
3 465 124 466
3 467 129 465
3 445 468 466
3 466 124 445
3 468 130 466
3 445 39 468
3 469 450 465
3 465 129 469
3 450 124 465
3 469 37 450
3 471 470 467
3 467 130 471
3 470 129 467
3 471 3 470
3 474 472 473
3 473 133 474
3 472 132 473
3 474 131 472
3 476 475 473
3 473 132 476
3 475 133 473
3 476 38 475
3 478 477 472
3 472 131 478
3 477 132 472
3 478 41 477
3 480 479 474
3 474 133 480
3 479 131 474
3 480 40 479
3 483 481 482
3 482 134 483
3 481 132 482
3 483 126 481
3 477 484 482
3 482 132 477
3 484 134 482
3 477 41 484
3 454 476 481
3 481 126 454
3 476 132 481
3 454 38 476
3 485 457 483
3 483 134 485
3 457 126 483
3 485 9 457
3 488 486 487
3 487 136 488
3 486 131 487
3 488 135 486
3 479 489 487
3 487 131 479
3 489 136 487
3 479 40 489
3 490 478 486
3 486 135 490
3 478 131 486
3 490 41 478
3 492 491 488
3 488 136 492
3 491 135 488
3 492 2 491
3 495 493 494
3 494 127 495
3 493 133 494
3 495 137 493
3 475 462 494
3 494 133 475
3 462 127 494
3 475 38 462
3 496 480 493
3 493 137 496
3 480 133 493
3 496 40 480
3 463 497 495
3 495 127 463
3 497 137 495
3 463 10 497
3 500 498 499
3 499 140 500
3 498 139 499
3 500 138 498
3 502 501 499
3 499 139 502
3 501 140 499
3 502 33 501
3 504 503 498
3 498 138 504
3 503 139 498
3 504 13 503
3 506 505 500
3 500 140 506
3 505 138 500
3 506 23 505
3 509 507 508
3 508 47 509
3 507 139 508
3 509 110 507
3 503 182 508
3 508 139 503
3 182 47 508
3 503 13 182
3 398 502 507
3 507 110 398
3 502 139 507
3 398 33 502
3 183 401 509
3 509 47 183
3 401 110 509
3 183 8 401
3 512 510 511
3 511 79 512
3 510 138 511
3 512 46 510
3 505 294 511
3 511 138 505
3 294 79 511
3 505 23 294
3 174 504 510
3 510 46 174
3 504 138 510
3 174 13 504
3 295 177 512
3 512 79 295
3 177 46 512
3 295 4 177
3 515 513 514
3 514 111 515
3 513 140 514
3 515 78 513
3 501 406 514
3 514 140 501
3 406 111 514
3 501 33 406
3 286 506 513
3 513 78 286
3 506 140 513
3 286 23 506
3 407 289 515
3 515 111 407
3 289 78 515
3 407 0 289
3 518 516 517
3 517 143 518
3 516 142 517
3 518 141 516
3 520 519 517
3 517 142 520
3 519 143 517
3 520 19 519
3 522 521 516
3 516 141 522
3 521 142 516
3 522 32 521
3 524 523 518
3 518 143 524
3 523 141 518
3 524 26 523
3 527 525 526
3 526 113 527
3 525 142 526
3 527 66 525
3 521 413 526
3 526 142 521
3 413 113 526
3 521 32 413
3 244 520 525
3 525 66 244
3 520 142 525
3 244 19 520
3 414 247 527
3 527 113 414
3 247 66 527
3 414 11 247
3 530 528 529
3 529 86 530
3 528 141 529
3 530 112 528
3 523 316 529
3 529 141 523
3 316 86 529
3 523 26 316
3 405 522 528
3 528 112 405
3 522 141 528
3 405 32 522
3 317 408 530
3 530 86 317
3 408 112 530
3 317 0 408
3 533 531 532
3 532 61 533
3 531 143 532
3 533 89 531
3 519 231 532
3 532 143 519
3 231 61 532
3 519 19 231
3 326 524 531
3 531 89 326
3 524 143 531
3 326 26 524
3 232 329 533
3 533 61 232
3 329 89 533
3 232 5 329
3 536 534 535
3 535 146 536
3 534 145 535
3 536 144 534
3 538 537 535
3 535 145 538
3 537 146 535
3 538 22 537
3 540 539 534
3 534 144 540
3 539 145 534
3 540 16 539
3 542 541 536
3 536 146 542
3 541 144 536
3 542 39 541
3 545 543 544
3 544 54 545
3 543 145 544
3 545 80 543
3 539 204 544
3 544 145 539
3 204 54 544
3 539 16 204
3 293 538 543
3 543 80 293
3 538 145 543
3 293 22 538
3 205 296 545
3 545 54 205
3 296 80 545
3 205 4 296
3 548 546 547
3 547 125 548
3 546 144 547
3 548 57 546
3 541 455 547
3 547 144 541
3 455 125 547
3 541 39 455
3 214 540 546
3 546 57 214
3 540 144 546
3 214 16 540
3 456 217 548
3 548 125 456
3 217 57 548
3 456 9 217
3 551 549 550
3 550 81 551
3 549 146 550
3 551 130 549
3 537 301 550
3 550 146 537
3 301 81 550
3 537 22 301
3 468 542 549
3 549 130 468
3 542 146 549
3 468 39 542
3 302 471 551
3 551 81 302
3 471 130 551
3 302 3 471
3 554 552 553
3 553 149 554
3 552 148 553
3 554 147 552
3 556 555 553
3 553 148 556
3 555 149 553
3 556 21 555
3 558 557 552
3 552 147 558
3 557 148 552
3 558 25 557
3 560 559 554
3 554 149 560
3 559 147 554
3 560 37 559
3 563 561 562
3 562 88 563
3 561 148 562
3 563 70 561
3 557 327 562
3 562 148 557
3 327 88 562
3 557 25 327
3 260 556 561
3 561 70 260
3 556 148 561
3 260 21 556
3 328 261 563
3 563 88 328
3 261 70 563
3 328 5 261
3 566 564 565
3 565 129 566
3 564 147 565
3 566 87 564
3 559 469 565
3 565 147 559
3 469 129 565
3 559 37 469
3 321 558 564
3 564 87 321
3 558 147 564
3 321 25 558
3 470 322 566
3 566 129 470
3 322 87 566
3 470 3 322
3 569 567 568
3 568 71 569
3 567 149 568
3 569 128 567
3 555 266 568
3 568 149 555
3 266 71 568
3 555 21 266
3 461 560 567
3 567 128 461
3 560 149 567
3 461 37 560
3 267 464 569
3 569 71 267
3 464 128 569
3 267 10 464
3 572 570 571
3 571 152 572
3 570 151 571
3 572 150 570
3 574 573 571
3 571 151 574
3 573 152 571
3 574 27 573
3 576 575 570
3 570 150 576
3 575 151 570
3 576 12 575
3 578 577 572
3 572 152 578
3 577 150 572
3 578 36 577
3 581 579 580
3 580 49 581
3 579 151 580
3 581 96 579
3 575 189 580
3 580 151 575
3 189 49 580
3 575 12 189
3 349 574 579
3 579 96 349
3 574 151 579
3 349 27 574
3 190 352 581
3 581 49 190
3 352 96 581
3 190 7 352
3 584 582 583
3 583 118 584
3 582 150 583
3 584 48 582
3 577 428 583
3 583 150 577
3 428 118 583
3 577 36 428
3 181 576 582
3 582 48 181
3 576 150 582
3 181 12 576
3 429 184 584
3 584 118 429
3 184 48 584
3 429 8 184
3 587 585 586
3 586 97 587
3 585 152 586
3 587 121 585
3 573 357 586
3 586 152 573
3 357 97 586
3 573 27 357
3 438 578 585
3 585 121 438
3 578 152 585
3 438 36 578
3 358 441 587
3 587 97 358
3 441 121 587
3 358 1 441
3 590 588 589
3 589 155 590
3 588 154 589
3 590 153 588
3 592 591 589
3 589 154 592
3 591 155 589
3 592 17 591
3 594 593 588
3 588 153 594
3 593 154 588
3 594 30 593
3 596 595 590
3 590 155 596
3 595 153 590
3 596 35 595
3 599 597 598
3 598 104 599
3 597 154 598
3 599 64 597
3 593 383 598
3 598 154 593
3 383 104 598
3 593 30 383
3 237 592 597
3 597 64 237
3 592 154 597
3 237 17 592
3 384 240 599
3 599 104 384
3 240 64 599
3 384 6 240
3 602 600 601
3 601 120 602
3 600 153 601
3 602 103 600
3 595 439 601
3 601 153 595
3 439 120 601
3 595 35 439
3 377 594 600
3 600 103 377
3 594 153 600
3 377 30 594
3 440 378 602
3 602 120 440
3 378 103 602
3 440 1 378
3 605 603 604
3 604 65 605
3 603 155 604
3 605 119 603
3 591 245 604
3 604 155 591
3 245 65 604
3 591 17 245
3 433 596 603
3 603 119 433
3 596 155 603
3 433 35 596
3 246 434 605
3 605 65 246
3 434 119 605
3 246 11 434
3 608 606 607
3 607 158 608
3 606 157 607
3 608 156 606
3 610 609 607
3 607 157 610
3 609 158 607
3 610 15 609
3 612 611 606
3 606 156 612
3 611 157 606
3 612 28 611
3 614 613 608
3 608 158 614
3 613 156 608
3 614 41 613
3 617 615 616
3 616 95 617
3 615 157 616
3 617 55 615
3 611 350 616
3 616 157 611
3 350 95 616
3 611 28 350
3 209 610 615
3 615 55 209
3 610 157 615
3 209 15 610
3 351 210 617
3 617 95 351
3 210 55 617
3 351 7 210
3 620 618 619
3 619 135 620
3 618 156 619
3 620 94 618
3 613 490 619
3 619 156 613
3 490 135 619
3 613 41 490
3 342 612 618
3 618 94 342
3 612 156 618
3 342 28 612
3 491 345 620
3 620 135 491
3 345 94 620
3 491 2 345
3 623 621 622
3 622 56 623
3 621 158 622
3 623 134 621
3 609 215 622
3 622 158 609
3 215 56 622
3 609 15 215
3 484 614 621
3 621 134 484
3 614 158 621
3 484 41 614
3 216 485 623
3 623 56 216
3 485 134 623
3 216 9 485
3 626 624 625
3 625 161 626
3 624 160 625
3 626 159 624
3 628 627 625
3 625 160 628
3 627 161 625
3 628 31 627
3 630 629 624
3 624 159 630
3 629 160 624
3 630 20 629
3 632 631 626
3 626 161 632
3 631 159 626
3 632 40 631
3 635 633 634
3 634 73 635
3 633 160 634
3 635 105 633
3 629 272 634
3 634 160 629
3 272 73 634
3 629 20 272
3 382 628 633
3 633 105 382
3 628 160 633
3 382 31 628
3 273 385 635
3 635 73 273
3 385 105 635
3 273 6 385
3 638 636 637
3 637 137 638
3 636 159 637
3 638 72 636
3 631 496 637
3 637 159 631
3 496 137 637
3 631 40 496
3 265 630 636
3 636 72 265
3 630 159 636
3 265 20 630
3 497 268 638
3 638 137 497
3 268 72 638
3 497 10 268
3 641 639 640
3 640 102 641
3 639 161 640
3 641 136 639
3 627 372 640
3 640 161 627
3 372 102 640
3 627 31 372
3 489 632 639
3 639 136 489
3 632 161 639
3 489 40 632
3 373 492 641
3 641 102 373
3 492 136 641
3 373 2 492
