# vtk DataFile Version 3.0
this file was written using fslvtkio
ASCII
DATASET POLYDATA
POINTS 642 float
125.205 140.96 102.013
117.344 142.538 103.713
116.824 136.145 101.519
123.224 135.269 100.626
121.315 139.176 103.049
123.315 137.448 97.3485
119.166 138.26 98.9545
117.636 139.514 105.267
121.884 143.279 106.065
118.787 134.041 103.461
119.665 133.091 98.6802
122.12 143.699 101.167
119.198 141.914 106.495
122.099 141.565 104.961
119.617 139.599 104.1
118.097 136.898 103.811
120.368 136.648 103.053
120.34 141.232 99.8707
121.312 137.421 97.4971
122.832 140.782 99.2256
118.945 135.053 97.6397
122.38 134.54 96.7639
122.597 136.715 102.583
123.458 140.274 103.188
123.739 138.176 100.886
124.243 135.877 98.4328
124.285 139.756 99.7091
116.456 141.357 105.577
116.499 137.9 103.809
116.545 139.797 102.356
118.23 140.829 101.004
117.693 136.884 99.7428
125.066 143.513 101.436
124.924 142.823 104.671
122.992 144.599 104.184
119.638 143.769 102.698
118.751 144.12 106.361
122.117 134.21 99.4503
118.483 132.253 101.93
121.289 134.209 102.072
117.034 133.555 100.088
116.772 134.196 103.3
120.778 141.774 105.686
120.658 140.639 104.541
119.448 140.966 105.191
120.492 139.47 103.426
121.537 140.334 103.846
122.289 142.481 105.754
120.43 142.652 106.6
118.43 140.777 105.7
118.631 139.546 104.731
119.197 138.02 104.521
120.249 137.749 104.009
119.315 136.815 103.543
121.202 137.416 103.644
118.028 138.049 104.851
118.218 135.5 103.192
119.61 135.448 103.183
120.93 139.371 98.7471
121.961 139.171 98.0101
121.596 140.805 99.5034
123.142 139.209 98.0171
122.314 137.312 96.8996
120.238 137.948 98.205
119.783 139.71 99.3816
121.048 142.692 100.451
122.533 142.341 100.157
120.56 134.834 96.9427
121.523 135.963 96.4323
120.135 136.27 97.3591
123.15 135.945 96.5737
121.049 133.677 97.5789
119.068 133.768 97.9069
119.295 136.485 98.2751
122.705 138.667 102.5
123.524 139.237 102.122
123.293 137.492 101.807
124.212 139.768 101.517
124.387 140.665 102.812
122.056 139.866 102.818
122.219 137.811 103.345
122.682 136.124 101.545
123.201 136.711 100.675
123.435 136.966 99.69
124.305 138.792 100.215
123.85 137.765 98.9511
125.099 140.513 100.78
124.111 135.563 99.699
123.748 136.784 97.6434
124.041 138.69 98.3163
116.09 139.632 104.798
116.505 138.906 103.274
116.238 140.69 104.09
117.026 137.92 101.866
116.596 137.018 102.618
116.775 138.602 104.978
116.945 140.358 105.834
116.718 142.173 104.818
116.829 141.104 103.026
116.993 140.274 101.434
117.174 138.251 100.972
117.833 138.924 100.292
117.055 136.411 100.496
117.777 141.773 102.236
118.79 139.638 100.03
118.27 137.588 99.1534
125.179 143.399 103.266
124.874 144.252 104.628
124.407 144.624 102.808
122.593 144.035 105.402
123.847 143.052 105.445
125.127 141.828 103.165
125.845 142.027 101.499
123.541 143.84 101.241
122.581 144.56 102.569
121.237 144.329 103.534
120.853 144.059 105.213
119.412 144.048 104.528
120.441 143.775 106.662
120.94 143.974 101.873
118.23 143.291 103.189
117.983 143.371 105.039
120.602 132.966 100.361
120.132 132.854 101.967
121.814 133.795 100.813
119.956 133.977 102.958
118.63 132.501 103.445
119.177 132.741 100.101
121.204 133.417 98.9552
123.327 134.564 100.187
122.344 134.925 101.312
116.621 133.584 102.129
116.952 132.156 103.507
117.332 132.344 101.156
117.655 133.968 103.751
116.472 135.287 102.352
116.623 134.871 100.881
118.016 132.919 99.2541
122.654 140.802 104.072
123.612 142.162 104.944
124.294 141.379 104.054
125.422 141.85 100.142
123.952 142.471 100.248
123.949 140.671 99.25
120.68 135.372 102.652
121.646 136.624 103.022
121.746 135.652 102.064
124.04 134.789 98.9732
124.122 135.184 97.3049
122.611 134.348 97.9546
118.763 142.944 107.398
117.742 141.443 106.399
117.253 143.06 106.367
118.521 142.726 101.654
119.168 141.192 100.441
119.809 142.917 101.025
116.827 135.956 103.118
117.08 137.036 104.106
117.401 135.419 103.57
117.576 134.184 98.493
118.137 135.842 98.6541
117.078 135.178 99.5661
120.703 141.251 104.984
120.047 140.763 104.846
120.13 141.264 105.493
119.51 140.316 104.614
120.052 140.164 104.381
121.332 141.173 104.806
121.38 141.679 105.278
120.079 141.795 106.118
119.516 141.463 105.934
120.555 140.081 104.025
121.156 140.507 104.22
120.943 139.993 103.526
121.862 140.906 104.527
119.998 139.691 103.699
120.914 139.328 103.263
121.224 139.863 103.139
121.397 142.237 105.721
120.647 142.328 106.17
121.404 142.533 106.252
119.82 142.313 106.599
122.189 142.054 105.493
122.139 142.837 106.037
121.211 143.003 106.48
118.964 140.894 105.438
119.011 140.232 104.849
118.504 140.158 105.239
119.127 139.619 104.451
118.856 141.423 106.112
117.922 140.112 105.323
118.102 139.539 104.956
119.778 137.974 104.257
119.846 137.269 103.861
119.316 137.386 104.145
119.872 136.751 103.399
120.373 137.152 103.729
119.909 138.856 103.964
119.387 138.82 104.307
118.673 137.401 104.249
118.688 136.908 103.622
120.686 137.59 103.799
120.353 138.657 103.709
120.843 138.409 103.611
120.777 136.97 103.37
121.262 138.196 103.414
118.918 138.776 104.55
118.61 137.995 104.652
118.35 138.756 104.796
118.116 137.394 104.436
117.809 138.748 105.08
118.722 136.186 103.239
119.425 136.167 103.307
118.941 135.444 103.257
120.024 136.115 103.129
118.182 136.237 103.394
118.428 134.8 103.29
119.127 134.746 103.243
121.465 139.194 98.3516
121.773 140.028 98.7141
121.217 140.092 98.9916
122.202 140.718 99.3164
122.309 140.06 98.5182
121.621 138.341 97.7491
121.076 138.449 98.0899
120.579 140.285 99.246
120.985 140.894 99.7175
122.512 139.18 97.8938
122.121 138.256 97.4021
122.738 138.217 97.4196
121.761 137.362 97.0521
122.969 140.145 98.4899
123.259 138.244 97.5372
122.919 137.42 97.0294
120.532 138.58 98.4268
120.339 139.48 99.0793
120.008 138.668 98.8989
119.982 140.482 99.4869
120.749 137.745 97.8386
119.719 138.075 98.6393
119.554 138.848 99.2651
121.389 141.706 99.9675
122.053 141.551 99.7683
121.777 142.457 100.286
122.676 141.463 99.7242
120.75 141.882 100.1
121.506 143.355 100.696
122.316 143.113 100.527
121.1 135.251 96.6975
120.874 136.181 97.0077
120.366 135.575 97.076
120.812 136.773 97.5947
121.349 136.71 97.0002
121.962 135.159 96.4756
121.39 134.56 96.7321
119.817 135.009 97.1765
119.696 135.647 97.5066
121.953 136.63 96.4568
122.425 135.836 96.3939
122.715 136.691 96.5055
122.927 135.146 96.5994
123.307 136.74 96.7694
120.684 134.169 97.1203
119.772 134.319 97.3089
120.078 133.691 97.6105
118.891 134.401 97.6378
121.618 134.054 97.1244
120.371 133.401 98.0489
119.466 133.261 98.2556
119.798 136.393 97.8621
120.331 137.009 97.905
119.79 137.217 98.3838
119.103 135.777 97.8597
119.31 137.455 98.6725
123.009 138.958 102.394
123.318 138.362 101.929
123.031 137.988 102.247
123.46 137.994 101.344
123.641 138.704 101.544
123.362 139.74 102.61
122.753 139.664 102.604
122.795 137.49 102.584
123.076 137.035 102.125
123.845 139.501 101.845
123.966 140.007 102.531
124.377 140.133 102.179
123.941 140.466 103.085
124.025 139.004 101.215
124.767 140.347 101.796
124.803 140.844 102.421
122.334 139.328 102.609
122.557 138.158 102.926
122.083 138.896 102.889
122.557 137.156 103.167
122.681 140.134 102.974
121.526 139.635 102.738
121.767 138.437 103.21
122.984 136.694 101.602
123.213 137.146 101.185
123.038 136.4 101.062
123.295 137.537 100.742
122.581 136.482 101.954
122.767 135.717 100.985
123.265 135.903 100.619
123.833 137.859 99.9305
124.086 138.234 99.5631
123.654 137.328 99.316
124.098 138.648 99.2021
124.241 139.278 99.8934
124.119 138.436 100.568
123.494 137.532 100.262
123.732 136.385 99.0641
123.706 136.8 98.6742
124.543 139.766 100.54
124.3 139.366 100.95
124.618 140.186 101.2
124.642 140.212 100.175
125.153 140.783 101.449
123.216 136.855 100.23
123.632 136.301 99.6394
123.563 136.131 100.25
124.273 135.688 99.0771
123.836 135.459 100.26
123.759 137.204 98.3529
123.987 138.159 98.553
123.711 137.709 97.9909
124.187 139.11 98.9961
123.891 136.236 97.9989
123.56 137.184 97.4544
123.547 138.118 97.8222
116.175 139.267 104.023
116.161 139.78 103.676
115.926 140.193 104.384
116.23 140.304 103.258
116.498 139.462 102.905
116.491 138.33 103.493
116.334 138.788 104.269
116.249 140.598 105.098
116.392 141.02 104.771
116.89 138.49 102.562
116.737 137.948 102.842
116.875 137.52 102.24
116.525 137.44 103.152
116.808 138.89 102.116
116.881 136.994 101.617
116.755 136.599 102.062
116.373 139.187 105.019
116.437 140.072 105.419
116.855 139.675 105.346
116.449 140.844 105.885
116.525 138.312 104.448
117.254 139.004 105.331
117.349 139.994 105.524
116.579 141.358 104.456
116.452 140.944 103.591
116.675 141.659 103.896
116.572 140.516 102.69
116.615 141.778 105.27
117.011 142.383 104.216
117.069 141.888 103.364
117.006 139.297 101.154
117.407 138.597 100.555
117.442 139.559 100.85
117.662 137.927 99.9741
117.444 137.568 100.338
116.89 139.07 101.601
116.668 140.019 101.817
117.575 140.521 101.175
117.957 139.924 100.658
117.185 137.404 100.736
117.001 138.123 101.42
116.998 137.195 101.172
117.384 136.614 100.122
116.922 136.255 101
116.85 140.841 102.146
117.361 141.101 101.751
117.387 141.389 102.646
117.942 141.276 101.511
117.666 142.124 103.032
118.325 139.268 100.135
118.027 138.205 99.739
118.642 138.539 99.6573
117.986 137.181 99.4402
118.46 140.24 100.52
119.099 138.85 99.5657
118.744 137.94 99.0715
125.392 144.017 103.999
124.825 144.714 103.738
124.94 144.071 103.024
123.965 144.813 103.576
124.14 144.575 104.275
125.179 143.448 104.726
125.265 143.119 104.027
125.247 143.553 102.363
124.735 144.147 102.128
123.8 144.274 104.98
124.526 143.657 105.25
123.278 143.675 105.523
124.646 142.903 105.323
122.853 144.401 104.828
122.151 143.603 105.827
122.815 143.116 105.847
125.277 142.713 103.193
125.574 142.965 102.405
125.647 141.965 102.361
125.652 143.03 101.476
124.838 142.483 103.896
125.13 141.385 102.566
125.623 141.412 101.841
124.026 144.401 102.09
123.508 144.733 102.817
123.112 144.309 101.932
122.908 144.714 103.449
124.324 143.855 101.414
122.814 143.732 101.185
122.349 144.142 101.886
121.085 144.279 104.339
120.119 144.146 104.88
120.314 144.163 104.016
119.089 144.191 105.436
119.867 144.208 105.809
121.839 144.319 104.661
122.046 144.51 103.927
120.49 144.035 103.253
119.612 143.969 103.604
120.642 144.038 105.932
121.769 144.128 105.333
121.466 143.891 105.976
119.734 143.983 106.628
121.156 143.528 106.487
122.048 144.554 103.094
121.189 144.177 102.808
121.833 144.25 102.325
120.419 143.905 102.368
121.51 143.883 101.428
118.799 143.722 103.879
118.575 143.877 104.78
118.128 143.437 104.123
118.24 143.901 105.703
118.877 143.597 102.978
117.748 142.947 103.49
117.414 143.087 104.368
120.275 132.901 101.175
121.031 133.096 101.294
121.195 133.388 100.543
121.633 133.76 101.516
120.842 133.405 101.935
119.41 132.486 101.951
119.524 132.659 101.13
121.466 133.434 99.8999
121.899 133.933 100.196
120.202 133.269 102.607
119.396 132.576 102.73
119.47 133.078 103.233
118.578 132.241 102.723
120.584 133.993 102.457
119.356 134.011 103.257
118.802 133.257 103.622
119.895 132.669 100.259
120.934 133.199 99.6611
120.199 132.983 99.4404
121.701 133.787 99.2024
118.842 132.549 100.948
119.35 132.918 99.3544
120.453 133.261 98.7806
122.491 134.195 100.461
122.239 134.222 101.23
122.836 134.697 100.761
121.888 134.447 101.659
122.707 134.305 99.8271
123.498 134.961 100.59
122.663 135.18 100.933
116.617 132.77 102.866
117.059 132.15 102.39
116.797 132.805 101.845
117.866 132.21 101.536
117.71 132.007 102.687
116.668 133.129 103.631
116.653 133.805 102.865
116.869 133.609 101.224
117.01 132.887 100.707
117.868 132.107 103.603
117.18 132.803 104.224
118.158 133.084 104.011
117.131 133.896 103.635
118.184 134.037 103.582
116.575 134.43 102.219
116.683 134.265 101.445
116.693 135.077 101.725
116.775 134.147 100.546
116.572 134.677 102.801
116.749 135.769 101.944
116.784 135.528 101.193
117.669 132.582 100.25
118.3 132.612 100.667
118.603 132.805 99.9099
117.374 133.135 99.6999
118.81 132.945 98.8839
123.189 141.42 104.524
124.055 141.779 104.507
123.482 141.124 104.146
124.584 142.147 104.32
124.404 142.513 104.98
122.856 141.841 104.922
122.458 141.213 104.554
123.145 140.545 103.705
123.87 140.84 103.699
123.789 142.618 105.326
122.897 142.247 105.35
123.023 142.648 105.711
122.043 140.628 103.98
122.345 140.319 103.412
121.752 140.116 103.239
124.299 140.984 103.495
124.729 141.637 103.676
124.761 141.165 103.028
124.782 142.398 100.167
123.917 141.525 99.8984
124.409 141.345 100.073
123.428 140.732 99.2801
123.298 141.501 99.8274
124.575 143.191 100.838
125.353 142.738 100.747
124.618 140.809 100.041
124.203 140.253 99.4708
123.178 142.303 100.178
123.815 143.242 100.758
123.033 143.146 100.602
125.686 142.059 100.778
125.246 141.054 100.392
125.473 141.235 101.174
124.077 139.664 98.7657
123.583 140.105 98.5504
123.668 139.016 98.1264
121.086 136.086 102.639
121.671 136.19 102.471
121.201 135.511 102.331
122.165 136.291 102.256
122.247 136.674 103.006
120.993 136.588 102.973
120.462 136.042 102.762
120.881 134.729 102.287
121.513 134.861 102.034
122.106 137.094 103.439
121.461 136.973 103.415
121.701 137.728 103.426
120.206 135.443 103
120.358 134.583 102.737
119.698 134.702 102.968
121.954 135.1 101.693
122.214 135.919 101.761
122.369 135.496 101.336
124.454 134.838 97.937
123.551 134.625 97.3816
123.35 134.513 98.4046
122.613 134.304 97.1788
123.28 134.844 97.0415
124.436 135.493 97.859
124.561 135.192 98.6533
123 134.402 99.1966
122.307 134.295 98.7812
123.685 135.587 96.8309
124.191 135.925 97.3734
123.792 136.47 96.9803
124.478 135.132 99.4059
123.616 134.564 99.7067
124.075 134.981 100.08
121.917 133.871 98.4678
121.936 133.871 97.6285
121.218 133.552 98.1645
118.277 142.238 106.947
117.409 142.186 106.67
117.902 143.283 107.223
116.811 142.143 106.002
117.01 141.317 106.274
118.478 141.73 106.439
118.991 142.283 107.005
118.764 143.837 107.11
117.867 143.8 106.436
117.432 140.816 106.207
118.093 141.119 106.07
117.699 140.477 105.693
119.622 142.664 107.041
119.525 143.454 107.177
120.412 143.154 106.802
117.635 143.298 105.715
116.98 142.575 105.526
117.054 142.928 104.895
118.94 142.009 101.009
119.585 142.056 100.747
119.156 142.948 101.363
120.135 141.981 100.438
119.715 141.256 100.074
118.611 141.031 100.73
118.462 141.735 101.365
118.897 143.428 102.144
119.663 143.584 101.791
119.452 140.533 99.8763
118.931 140.432 100.26
119.245 139.797 99.6824
118.094 142.182 101.918
118.327 143.066 102.399
118.056 142.504 102.744
120.312 143.537 101.423
120.307 142.792 100.534
120.85 143.52 100.946
116.954 136.589 103.545
117.342 136.237 103.532
117.026 135.53 103.445
117.669 136.088 103.595
117.572 136.866 104.085
116.628 137.479 104.098
116.609 136.99 103.431
116.612 135.023 103.22
117.111 134.821 103.485
117.509 137.49 104.582
116.913 137.787 104.606
117.379 138.2 105.021
116.719 136.575 102.948
116.577 135.526 102.834
116.692 136.063 102.454
117.454 134.702 103.542
117.787 135.512 103.363
117.922 134.762 103.403
117.726 135.094 98.4192
117.538 135.592 99.043
117.238 134.678 99.0011
117.565 136.017 99.6308
117.92 136.273 99.1917
118.479 135.387 98.1069
118.181 134.677 98.0721
117.331 133.854 99.257
116.999 134.359 99.7322
118.258 136.687 98.8489
118.819 136.125 98.4394
118.807 137.025 98.7121
118.311 133.999 98.1926
117.705 133.521 98.8432
118.542 133.339 98.5512
116.777 134.884 100.176
117.078 135.719 99.9943
116.81 135.57 100.537
POLYGONS 1280  5120
3 164 162 163
3 163 44 164
3 162 43 163
3 164 42 162
3 166 165 163
3 163 43 166
3 165 44 163
3 166 14 165
3 168 167 162
3 162 42 168
3 167 43 162
3 168 13 167
3 170 169 164
3 164 44 170
3 169 42 164
3 170 12 169
3 173 171 172
3 172 46 173
3 171 43 172
3 173 45 171
3 167 174 172
3 172 43 167
3 174 46 172
3 167 13 174
3 175 166 171
3 171 45 175
3 166 43 171
3 175 14 166
3 177 176 173
3 173 46 177
3 176 45 173
3 177 4 176
3 180 178 179
3 179 48 180
3 178 42 179
3 180 47 178
3 169 181 179
3 179 42 169
3 181 48 179
3 169 12 181
3 182 168 178
3 178 47 182
3 168 42 178
3 182 13 168
3 184 183 180
3 180 48 184
3 183 47 180
3 184 8 183
3 187 185 186
3 186 50 187
3 185 44 186
3 187 49 185
3 165 188 186
3 186 44 165
3 188 50 186
3 165 14 188
3 189 170 185
3 185 49 189
3 170 44 185
3 189 12 170
3 191 190 187
3 187 50 191
3 190 49 187
3 191 7 190
3 194 192 193
3 193 53 194
3 192 52 193
3 194 51 192
3 196 195 193
3 193 52 196
3 195 53 193
3 196 16 195
3 198 197 192
3 192 51 198
3 197 52 192
3 198 14 197
3 200 199 194
3 194 53 200
3 199 51 194
3 200 15 199
3 203 201 202
3 202 45 203
3 201 52 202
3 203 54 201
3 197 175 202
3 202 52 197
3 175 45 202
3 197 14 175
3 204 196 201
3 201 54 204
3 196 52 201
3 204 16 196
3 176 205 203
3 203 45 176
3 205 54 203
3 176 4 205
3 208 206 207
3 207 55 208
3 206 51 207
3 208 50 206
3 199 209 207
3 207 51 199
3 209 55 207
3 199 15 209
3 188 198 206
3 206 50 188
3 198 51 206
3 188 14 198
3 210 191 208
3 208 55 210
3 191 50 208
3 210 7 191
3 213 211 212
3 212 57 213
3 211 53 212
3 213 56 211
3 195 214 212
3 212 53 195
3 214 57 212
3 195 16 214
3 215 200 211
3 211 56 215
3 200 53 211
3 215 15 200
3 217 216 213
3 213 57 217
3 216 56 213
3 217 9 216
3 220 218 219
3 219 60 220
3 218 59 219
3 220 58 218
3 222 221 219
3 219 59 222
3 221 60 219
3 222 19 221
3 224 223 218
3 218 58 224
3 223 59 218
3 224 18 223
3 226 225 220
3 220 60 226
3 225 58 220
3 226 17 225
3 229 227 228
3 228 62 229
3 227 59 228
3 229 61 227
3 223 230 228
3 228 59 223
3 230 62 228
3 223 18 230
3 231 222 227
3 227 61 231
3 222 59 227
3 231 19 222
3 233 232 229
3 229 62 233
3 232 61 229
3 233 5 232
3 236 234 235
3 235 64 236
3 234 58 235
3 236 63 234
3 225 237 235
3 235 58 225
3 237 64 235
3 225 17 237
3 238 224 234
3 234 63 238
3 224 58 234
3 238 18 224
3 240 239 236
3 236 64 240
3 239 63 236
3 240 6 239
3 243 241 242
3 242 66 243
3 241 60 242
3 243 65 241
3 221 244 242
3 242 60 221
3 244 66 242
3 221 19 244
3 245 226 241
3 241 65 245
3 226 60 241
3 245 17 226
3 247 246 243
3 243 66 247
3 246 65 243
3 247 11 246
3 250 248 249
3 249 69 250
3 248 68 249
3 250 67 248
3 252 251 249
3 249 68 252
3 251 69 249
3 252 18 251
3 254 253 248
3 248 67 254
3 253 68 248
3 254 21 253
3 256 255 250
3 250 69 256
3 255 67 250
3 256 20 255
3 259 257 258
3 258 70 259
3 257 68 258
3 259 62 257
3 253 260 258
3 258 68 253
3 260 70 258
3 253 21 260
3 230 252 257
3 257 62 230
3 252 68 257
3 230 18 252
3 261 233 259
3 259 70 261
3 233 62 259
3 261 5 233
3 264 262 263
3 263 72 264
3 262 67 263
3 264 71 262
3 255 265 263
3 263 67 255
3 265 72 263
3 255 20 265
3 266 254 262
3 262 71 266
3 254 67 262
3 266 21 254
3 268 267 264
3 264 72 268
3 267 71 264
3 268 10 267
3 271 269 270
3 270 63 271
3 269 69 270
3 271 73 269
3 251 238 270
3 270 69 251
3 238 63 270
3 251 18 238
3 272 256 269
3 269 73 272
3 256 69 269
3 272 20 256
3 239 273 271
3 271 63 239
3 273 73 271
3 239 6 273
3 276 274 275
3 275 76 276
3 274 75 275
3 276 74 274
3 278 277 275
3 275 75 278
3 277 76 275
3 278 24 277
3 280 279 274
3 274 74 280
3 279 75 274
3 280 23 279
3 282 281 276
3 276 76 282
3 281 74 276
3 282 22 281
3 285 283 284
3 284 78 285
3 283 75 284
3 285 77 283
3 279 286 284
3 284 75 279
3 286 78 284
3 279 23 286
3 287 278 283
3 283 77 287
3 278 75 283
3 287 24 278
3 289 288 285
3 285 78 289
3 288 77 285
3 289 0 288
3 292 290 291
3 291 80 292
3 290 74 291
3 292 79 290
3 281 293 291
3 291 74 281
3 293 80 291
3 281 22 293
3 294 280 290
3 290 79 294
3 280 74 290
3 294 23 280
3 296 295 292
3 292 80 296
3 295 79 292
3 296 4 295
3 299 297 298
3 298 82 299
3 297 76 298
3 299 81 297
3 277 300 298
3 298 76 277
3 300 82 298
3 277 24 300
3 301 282 297
3 297 81 301
3 282 76 297
3 301 22 282
3 303 302 299
3 299 82 303
3 302 81 299
3 303 3 302
3 306 304 305
3 305 85 306
3 304 84 305
3 306 83 304
3 308 307 305
3 305 84 308
3 307 85 305
3 308 26 307
3 310 309 304
3 304 83 310
3 309 84 304
3 310 24 309
3 312 311 306
3 306 85 312
3 311 83 306
3 312 25 311
3 315 313 314
3 314 77 315
3 313 84 314
3 315 86 313
3 309 287 314
3 314 84 309
3 287 77 314
3 309 24 287
3 316 308 313
3 313 86 316
3 308 84 313
3 316 26 308
3 288 317 315
3 315 77 288
3 317 86 315
3 288 0 317
3 320 318 319
3 319 87 320
3 318 83 319
3 320 82 318
3 311 321 319
3 319 83 311
3 321 87 319
3 311 25 321
3 300 310 318
3 318 82 300
3 310 83 318
3 300 24 310
3 322 303 320
3 320 87 322
3 303 82 320
3 322 3 303
3 325 323 324
3 324 89 325
3 323 85 324
3 325 88 323
3 307 326 324
3 324 85 307
3 326 89 324
3 307 26 326
3 327 312 323
3 323 88 327
3 312 85 323
3 327 25 312
3 329 328 325
3 325 89 329
3 328 88 325
3 329 5 328
3 332 330 331
3 331 92 332
3 330 91 331
3 332 90 330
3 334 333 331
3 331 91 334
3 333 92 331
3 334 29 333
3 336 335 330
3 330 90 336
3 335 91 330
3 336 28 335
3 338 337 332
3 332 92 338
3 337 90 332
3 338 27 337
3 341 339 340
3 340 94 341
3 339 91 340
3 341 93 339
3 335 342 340
3 340 91 335
3 342 94 340
3 335 28 342
3 343 334 339
3 339 93 343
3 334 91 339
3 343 29 334
3 345 344 341
3 341 94 345
3 344 93 341
3 345 2 344
3 348 346 347
3 347 96 348
3 346 90 347
3 348 95 346
3 337 349 347
3 347 90 337
3 349 96 347
3 337 27 349
3 350 336 346
3 346 95 350
3 336 90 346
3 350 28 336
3 352 351 348
3 348 96 352
3 351 95 348
3 352 7 351
3 355 353 354
3 354 98 355
3 353 92 354
3 355 97 353
3 333 356 354
3 354 92 333
3 356 98 354
3 333 29 356
3 357 338 353
3 353 97 357
3 338 92 353
3 357 27 338
3 359 358 355
3 355 98 359
3 358 97 355
3 359 1 358
3 362 360 361
3 361 101 362
3 360 100 361
3 362 99 360
3 364 363 361
3 361 100 364
3 363 101 361
3 364 31 363
3 366 365 360
3 360 99 366
3 365 100 360
3 366 29 365
3 368 367 362
3 362 101 368
3 367 99 362
3 368 30 367
3 371 369 370
3 370 93 371
3 369 100 370
3 371 102 369
3 365 343 370
3 370 100 365
3 343 93 370
3 365 29 343
3 372 364 369
3 369 102 372
3 364 100 369
3 372 31 364
3 344 373 371
3 371 93 344
3 373 102 371
3 344 2 373
3 376 374 375
3 375 103 376
3 374 99 375
3 376 98 374
3 367 377 375
3 375 99 367
3 377 103 375
3 367 30 377
3 356 366 374
3 374 98 356
3 366 99 374
3 356 29 366
3 378 359 376
3 376 103 378
3 359 98 376
3 378 1 359
3 381 379 380
3 380 105 381
3 379 101 380
3 381 104 379
3 363 382 380
3 380 101 363
3 382 105 380
3 363 31 382
3 383 368 379
3 379 104 383
3 368 101 379
3 383 30 368
3 385 384 381
3 381 105 385
3 384 104 381
3 385 6 384
3 388 386 387
3 387 108 388
3 386 107 387
3 388 106 386
3 390 389 387
3 387 107 390
3 389 108 387
3 390 34 389
3 392 391 386
3 386 106 392
3 391 107 386
3 392 33 391
3 394 393 388
3 388 108 394
3 393 106 388
3 394 32 393
3 397 395 396
3 396 110 397
3 395 107 396
3 397 109 395
3 391 398 396
3 396 107 391
3 398 110 396
3 391 33 398
3 399 390 395
3 395 109 399
3 390 107 395
3 399 34 390
3 401 400 397
3 397 110 401
3 400 109 397
3 401 8 400
3 404 402 403
3 403 112 404
3 402 106 403
3 404 111 402
3 393 405 403
3 403 106 393
3 405 112 403
3 393 32 405
3 406 392 402
3 402 111 406
3 392 106 402
3 406 33 392
3 408 407 404
3 404 112 408
3 407 111 404
3 408 0 407
3 411 409 410
3 410 114 411
3 409 108 410
3 411 113 409
3 389 412 410
3 410 108 389
3 412 114 410
3 389 34 412
3 413 394 409
3 409 113 413
3 394 108 409
3 413 32 394
3 415 414 411
3 411 114 415
3 414 113 411
3 415 11 414
3 418 416 417
3 417 117 418
3 416 116 417
3 418 115 416
3 420 419 417
3 417 116 420
3 419 117 417
3 420 36 419
3 422 421 416
3 416 115 422
3 421 116 416
3 422 34 421
3 424 423 418
3 418 117 424
3 423 115 418
3 424 35 423
3 427 425 426
3 426 109 427
3 425 116 426
3 427 118 425
3 421 399 426
3 426 116 421
3 399 109 426
3 421 34 399
3 428 420 425
3 425 118 428
3 420 116 425
3 428 36 420
3 400 429 427
3 427 109 400
3 429 118 427
3 400 8 429
3 432 430 431
3 431 119 432
3 430 115 431
3 432 114 430
3 423 433 431
3 431 115 423
3 433 119 431
3 423 35 433
3 412 422 430
3 430 114 412
3 422 115 430
3 412 34 422
3 434 415 432
3 432 119 434
3 415 114 432
3 434 11 415
3 437 435 436
3 436 121 437
3 435 117 436
3 437 120 435
3 419 438 436
3 436 117 419
3 438 121 436
3 419 36 438
3 439 424 435
3 435 120 439
3 424 117 435
3 439 35 424
3 441 440 437
3 437 121 441
3 440 120 437
3 441 1 440
3 444 442 443
3 443 124 444
3 442 123 443
3 444 122 442
3 446 445 443
3 443 123 446
3 445 124 443
3 446 39 445
3 448 447 442
3 442 122 448
3 447 123 442
3 448 38 447
3 450 449 444
3 444 124 450
3 449 122 444
3 450 37 449
3 453 451 452
3 452 126 453
3 451 123 452
3 453 125 451
3 447 454 452
3 452 123 447
3 454 126 452
3 447 38 454
3 455 446 451
3 451 125 455
3 446 123 451
3 455 39 446
3 457 456 453
3 453 126 457
3 456 125 453
3 457 9 456
3 460 458 459
3 459 128 460
3 458 122 459
3 460 127 458
3 449 461 459
3 459 122 449
3 461 128 459
3 449 37 461
3 462 448 458
3 458 127 462
3 448 122 458
3 462 38 448
3 464 463 460
3 460 128 464
3 463 127 460
3 464 10 463
3 467 465 466
3 466 130 467
3 465 124 466
3 467 129 465
3 445 468 466
3 466 124 445
3 468 130 466
3 445 39 468
3 469 450 465
3 465 129 469
3 450 124 465
3 469 37 450
3 471 470 467
3 467 130 471
3 470 129 467
3 471 3 470
3 474 472 473
3 473 133 474
3 472 132 473
3 474 131 472
3 476 475 473
3 473 132 476
3 475 133 473
3 476 38 475
3 478 477 472
3 472 131 478
3 477 132 472
3 478 41 477
3 480 479 474
3 474 133 480
3 479 131 474
3 480 40 479
3 483 481 482
3 482 134 483
3 481 132 482
3 483 126 481
3 477 484 482
3 482 132 477
3 484 134 482
3 477 41 484
3 454 476 481
3 481 126 454
3 476 132 481
3 454 38 476
3 485 457 483
3 483 134 485
3 457 126 483
3 485 9 457
3 488 486 487
3 487 136 488
3 486 131 487
3 488 135 486
3 479 489 487
3 487 131 479
3 489 136 487
3 479 40 489
3 490 478 486
3 486 135 490
3 478 131 486
3 490 41 478
3 492 491 488
3 488 136 492
3 491 135 488
3 492 2 491
3 495 493 494
3 494 127 495
3 493 133 494
3 495 137 493
3 475 462 494
3 494 133 475
3 462 127 494
3 475 38 462
3 496 480 493
3 493 137 496
3 480 133 493
3 496 40 480
3 463 497 495
3 495 127 463
3 497 137 495
3 463 10 497
3 500 498 499
3 499 140 500
3 498 139 499
3 500 138 498
3 502 501 499
3 499 139 502
3 501 140 499
3 502 33 501
3 504 503 498
3 498 138 504
3 503 139 498
3 504 13 503
3 506 505 500
3 500 140 506
3 505 138 500
3 506 23 505
3 509 507 508
3 508 47 509
3 507 139 508
3 509 110 507
3 503 182 508
3 508 139 503
3 182 47 508
3 503 13 182
3 398 502 507
3 507 110 398
3 502 139 507
3 398 33 502
3 183 401 509
3 509 47 183
3 401 110 509
3 183 8 401
3 512 510 511
3 511 79 512
3 510 138 511
3 512 46 510
3 505 294 511
3 511 138 505
3 294 79 511
3 505 23 294
3 174 504 510
3 510 46 174
3 504 138 510
3 174 13 504
3 295 177 512
3 512 79 295
3 177 46 512
3 295 4 177
3 515 513 514
3 514 111 515
3 513 140 514
3 515 78 513
3 501 406 514
3 514 140 501
3 406 111 514
3 501 33 406
3 286 506 513
3 513 78 286
3 506 140 513
3 286 23 506
3 407 289 515
3 515 111 407
3 289 78 515
3 407 0 289
3 518 516 517
3 517 143 518
3 516 142 517
3 518 141 516
3 520 519 517
3 517 142 520
3 519 143 517
3 520 19 519
3 522 521 516
3 516 141 522
3 521 142 516
3 522 32 521
3 524 523 518
3 518 143 524
3 523 141 518
3 524 26 523
3 527 525 526
3 526 113 527
3 525 142 526
3 527 66 525
3 521 413 526
3 526 142 521
3 413 113 526
3 521 32 413
3 244 520 525
3 525 66 244
3 520 142 525
3 244 19 520
3 414 247 527
3 527 113 414
3 247 66 527
3 414 11 247
3 530 528 529
3 529 86 530
3 528 141 529
3 530 112 528
3 523 316 529
3 529 141 523
3 316 86 529
3 523 26 316
3 405 522 528
3 528 112 405
3 522 141 528
3 405 32 522
3 317 408 530
3 530 86 317
3 408 112 530
3 317 0 408
3 533 531 532
3 532 61 533
3 531 143 532
3 533 89 531
3 519 231 532
3 532 143 519
3 231 61 532
3 519 19 231
3 326 524 531
3 531 89 326
3 524 143 531
3 326 26 524
3 232 329 533
3 533 61 232
3 329 89 533
3 232 5 329
3 536 534 535
3 535 146 536
3 534 145 535
3 536 144 534
3 538 537 535
3 535 145 538
3 537 146 535
3 538 22 537
3 540 539 534
3 534 144 540
3 539 145 534
3 540 16 539
3 542 541 536
3 536 146 542
3 541 144 536
3 542 39 541
3 545 543 544
3 544 54 545
3 543 145 544
3 545 80 543
3 539 204 544
3 544 145 539
3 204 54 544
3 539 16 204
3 293 538 543
3 543 80 293
3 538 145 543
3 293 22 538
3 205 296 545
3 545 54 205
3 296 80 545
3 205 4 296
3 548 546 547
3 547 125 548
3 546 144 547
3 548 57 546
3 541 455 547
3 547 144 541
3 455 125 547
3 541 39 455
3 214 540 546
3 546 57 214
3 540 144 546
3 214 16 540
3 456 217 548
3 548 125 456
3 217 57 548
3 456 9 217
3 551 549 550
3 550 81 551
3 549 146 550
3 551 130 549
3 537 301 550
3 550 146 537
3 301 81 550
3 537 22 301
3 468 542 549
3 549 130 468
3 542 146 549
3 468 39 542
3 302 471 551
3 551 81 302
3 471 130 551
3 302 3 471
3 554 552 553
3 553 149 554
3 552 148 553
3 554 147 552
3 556 555 553
3 553 148 556
3 555 149 553
3 556 21 555
3 558 557 552
3 552 147 558
3 557 148 552
3 558 25 557
3 560 559 554
3 554 149 560
3 559 147 554
3 560 37 559
3 563 561 562
3 562 88 563
3 561 148 562
3 563 70 561
3 557 327 562
3 562 148 557
3 327 88 562
3 557 25 327
3 260 556 561
3 561 70 260
3 556 148 561
3 260 21 556
3 328 261 563
3 563 88 328
3 261 70 563
3 328 5 261
3 566 564 565
3 565 129 566
3 564 147 565
3 566 87 564
3 559 469 565
3 565 147 559
3 469 129 565
3 559 37 469
3 321 558 564
3 564 87 321
3 558 147 564
3 321 25 558
3 470 322 566
3 566 129 470
3 322 87 566
3 470 3 322
3 569 567 568
3 568 71 569
3 567 149 568
3 569 128 567
3 555 266 568
3 568 149 555
3 266 71 568
3 555 21 266
3 461 560 567
3 567 128 461
3 560 149 567
3 461 37 560
3 267 464 569
3 569 71 267
3 464 128 569
3 267 10 464
3 572 570 571
3 571 152 572
3 570 151 571
3 572 150 570
3 574 573 571
3 571 151 574
3 573 152 571
3 574 27 573
3 576 575 570
3 570 150 576
3 575 151 570
3 576 12 575
3 578 577 572
3 572 152 578
3 577 150 572
3 578 36 577
3 581 579 580
3 580 49 581
3 579 151 580
3 581 96 579
3 575 189 580
3 580 151 575
3 189 49 580
3 575 12 189
3 349 574 579
3 579 96 349
3 574 151 579
3 349 27 574
3 190 352 581
3 581 49 190
3 352 96 581
3 190 7 352
3 584 582 583
3 583 118 584
3 582 150 583
3 584 48 582
3 577 428 583
3 583 150 577
3 428 118 583
3 577 36 428
3 181 576 582
3 582 48 181
3 576 150 582
3 181 12 576
3 429 184 584
3 584 118 429
3 184 48 584
3 429 8 184
3 587 585 586
3 586 97 587
3 585 152 586
3 587 121 585
3 573 357 586
3 586 152 573
3 357 97 586
3 573 27 357
3 438 578 585
3 585 121 438
3 578 152 585
3 438 36 578
3 358 441 587
3 587 97 358
3 441 121 587
3 358 1 441
3 590 588 589
3 589 155 590
3 588 154 589
3 590 153 588
3 592 591 589
3 589 154 592
3 591 155 589
3 592 17 591
3 594 593 588
3 588 153 594
3 593 154 588
3 594 30 593
3 596 595 590
3 590 155 596
3 595 153 590
3 596 35 595
3 599 597 598
3 598 104 599
3 597 154 598
3 599 64 597
3 593 383 598
3 598 154 593
3 383 104 598
3 593 30 383
3 237 592 597
3 597 64 237
3 592 154 597
3 237 17 592
3 384 240 599
3 599 104 384
3 240 64 599
3 384 6 240
3 602 600 601
3 601 120 602
3 600 153 601
3 602 103 600
3 595 439 601
3 601 153 595
3 439 120 601
3 595 35 439
3 377 594 600
3 600 103 377
3 594 153 600
3 377 30 594
3 440 378 602
3 602 120 440
3 378 103 602
3 440 1 378
3 605 603 604
3 604 65 605
3 603 155 604
3 605 119 603
3 591 245 604
3 604 155 591
3 245 65 604
3 591 17 245
3 433 596 603
3 603 119 433
3 596 155 603
3 433 35 596
3 246 434 605
3 605 65 246
3 434 119 605
3 246 11 434
3 608 606 607
3 607 158 608
3 606 157 607
3 608 156 606
3 610 609 607
3 607 157 610
3 609 158 607
3 610 15 609
3 612 611 606
3 606 156 612
3 611 157 606
3 612 28 611
3 614 613 608
3 608 158 614
3 613 156 608
3 614 41 613
3 617 615 616
3 616 95 617
3 615 157 616
3 617 55 615
3 611 350 616
3 616 157 611
3 350 95 616
3 611 28 350
3 209 610 615
3 615 55 209
3 610 157 615
3 209 15 610
3 351 210 617
3 617 95 351
3 210 55 617
3 351 7 210
3 620 618 619
3 619 135 620
3 618 156 619
3 620 94 618
3 613 490 619
3 619 156 613
3 490 135 619
3 613 41 490
3 342 612 618
3 618 94 342
3 612 156 618
3 342 28 612
3 491 345 620
3 620 135 491
3 345 94 620
3 491 2 345
3 623 621 622
3 622 56 623
3 621 158 622
3 623 134 621
3 609 215 622
3 622 158 609
3 215 56 622
3 609 15 215
3 484 614 621
3 621 134 484
3 614 158 621
3 484 41 614
3 216 485 623
3 623 56 216
3 485 134 623
3 216 9 485
3 626 624 625
3 625 161 626
3 624 160 625
3 626 159 624
3 628 627 625
3 625 160 628
3 627 161 625
3 628 31 627
3 630 629 624
3 624 159 630
3 629 160 624
3 630 20 629
3 632 631 626
3 626 161 632
3 631 159 626
3 632 40 631
3 635 633 634
3 634 73 635
3 633 160 634
3 635 105 633
3 629 272 634
3 634 160 629
3 272 73 634
3 629 20 272
3 382 628 633
3 633 105 382
3 628 160 633
3 382 31 628
3 273 385 635
3 635 73 273
3 385 105 635
3 273 6 385
3 638 636 637
3 637 137 638
3 636 159 637
3 638 72 636
3 631 496 637
3 637 159 631
3 496 137 637
3 631 40 496
3 265 630 636
3 636 72 265
3 630 159 636
3 265 20 630
3 497 268 638
3 638 137 497
3 268 72 638
3 497 10 268
3 641 639 640
3 640 102 641
3 639 161 640
3 641 136 639
3 627 372 640
3 640 161 627
3 372 102 640
3 627 31 372
3 489 632 639
3 639 136 489
3 632 161 639
3 489 40 632
3 373 492 641
3 641 102 373
3 492 136 641
3 373 2 492
