# vtk DataFile Version 3.0
this file was written using fslvtkio
ASCII
DATASET POLYDATA
POINTS 642 float
103.249 111.153 124.643
71.7242 110.405 123.585
76.2784 95.5091 114.313
97.936 95.8498 116.148
98.4215 95.7613 142.229
94.7779 104.582 100.164
79.6467 105.464 95.5267
77.6945 95.8265 141.665
87.2745 110.384 135.645
87.5159 88.7684 123.49
87.8581 92.2014 101.258
87.211 116.852 117.35
81.0726 102.104 143.752
93.614 101.96 142.804
87.3962 93.8118 145.745
82.9244 90.8759 134.478
93.0091 90.4755 134.923
84.0684 109.226 106.762
88.0833 106.913 88.4814
91.2689 110.114 108.748
82.4007 98.3804 92.1433
93.7631 97.2659 93.6706
98.0861 96.6712 129.617
102.593 104.225 136.024
100.101 105.456 121.616
97.5081 99.9674 107.509
99.2349 109.456 113.778
72.1989 104.581 136.117
77.4239 96.9145 128.961
76.4446 104.889 120.464
77.536 108.483 111.955
76.5685 99.4025 103.224
96.3802 117.922 122.102
97.793 113.79 134.623
86.5442 119.11 129.91
78.1151 116.754 120.878
76.7953 113.079 134.691
95.3205 91.1833 107.723
87.7104 86.6492 114.433
93.5703 89.5507 118.708
80.2193 92.5178 106.057
81.4599 90.3882 119.01
87.4506 102.05 143.009
91.4037 98.1839 147.662
83.3546 98.275 148.333
94.7536 93.34 146.13
98.7188 99.518 145.782
90.4057 105.252 136.861
84.3905 105.246 137.449
76.4133 99.5387 145.944
80.9274 93.332 145.7
84.7107 90.5589 141.228
90.9905 90.8352 141.122
87.9283 90.1865 135.28
95.761 91.8916 139.558
80.0518 92.2117 138.743
85.3997 90.0465 129.132
90.0522 90.11 129.338
85.8511 108.702 96.0502
90.0962 108.618 97.621
87.7533 108.779 106.476
92.7926 107.599 102.653
91.9285 105.475 93.3672
82.8055 106.524 89.4489
81.8934 108.414 99.2987
85.0982 114.17 112.182
89.8992 114.693 112.798
88.4369 99.0252 91.3954
91.7439 102.503 89.2856
85.6041 102.992 87.2392
94.5181 101.205 95.4661
90.5686 94.0864 96.6653
85.5399 94.2084 95.375
80.0613 101.746 91.0499
100.324 100.942 133.376
102.246 104.222 127.727
97.9763 101.549 125.89
105.546 106.875 121.885
103.191 107.897 129.734
101.866 100.326 140.247
98.3786 96.3121 136.251
97.7763 96.5848 122.564
96.4183 101.74 119.213
96.3277 104.253 115.884
102.95 106.566 116.562
95.1412 105.1 111.919
102.095 110.723 118.975
97.9326 97.9845 111.738
95.9128 101.824 103.309
94.003 106.356 107.916
75.1339 101.108 133.309
77.0284 101.255 124.884
73.5305 104.221 127.979
77.7154 100.667 117.344
77.1885 96.5157 121.388
77.8362 96.6863 135.681
74.4271 100.331 139.959
72.045 107.495 128.982
70.7751 106.601 121.122
75.2136 106.347 115.793
79.1285 102.205 112.236
79.5637 103.968 107.259
75.5544 97.2513 108.843
73.2698 110.125 117.8
79.0648 106.687 102.801
78.0543 102.224 98.5943
98.1416 118.175 129.411
92.9747 118.271 133.147
92.2244 119.948 126.551
86.7988 116.074 134.657
92.4616 112.281 136.054
101.833 113.552 130.393
100.561 115.067 123.66
91.5862 118.306 119.445
86.7083 118.786 123.424
81.4206 119.456 125.999
80.7103 118.31 133.283
76.3453 117.243 128.737
82.1141 112.079 136.092
82.6932 117.791 118.67
74.4008 113.935 122.768
73.1675 112.742 129.845
92.263 86.7188 110.532
92.8958 82.3873 115.435
96.7339 87.0102 112.907
90.9987 88.2645 121.468
87.3235 84.2474 118.295
87.7031 90.1664 109.044
91.5954 92.0113 104.605
97.9344 92.5214 111.179
96.8234 91.973 117.923
79.3568 89.3215 113.005
81.8012 83.9229 115.253
83.4915 89.345 110.885
84.2336 88.6101 121.44
77.5878 92.2433 117.219
76.7573 92.711 109.361
83.8566 92.2044 102.917
98.4867 103.098 140.017
94.9859 106.388 135.066
99.8857 108.154 133.509
98.0205 113.951 117.767
94.2558 115.689 115.021
95.0046 110.752 111.282
93.6469 90.4514 126.775
96.0839 93.1816 132.507
96.7188 92.4566 124.643
97.824 94.7474 105.907
96.1809 97.9408 100.18
94.672 93.7923 100.484
79.7962 105.99 135.986
75.8319 103.404 140.994
74.7517 108.04 134.299
76.8575 112.994 115.915
81.0776 109.221 109.151
80.8005 114.731 113.666
78.6629 92.9411 124.337
79.4809 93.3504 131.859
81.7181 90.6407 126.884
80.93 94.1833 97.9971
78.042 97.9557 96.2599
76.7694 94.7833 103.26
89.102 100.441 145.814
87.4215 98.4021 147.714
85.632 100.361 146.089
85.2987 95.857 147.746
89.4931 95.7923 147.328
92.564 100.54 145.623
90.5758 102.079 142.912
84.2484 102.048 143.459
82.1114 100.561 146.409
93.578 95.8229 148.021
95.0315 98.759 147.381
96.8982 96.4833 147.273
96.0463 100.888 144.815
91.4302 93.6026 146.628
96.9914 94.2699 144.557
99.2947 96.9453 144.773
88.9988 103.354 139.93
85.8154 103.328 140.274
87.412 105.231 137.133
82.9105 103.438 140.605
91.8046 103.398 139.788
88.8418 107.82 135.749
85.8332 107.73 135.866
79.8054 98.5545 148.064
81.7078 95.6059 148.091
78.681 96.3826 147.182
83.9509 93.1075 146.531
78.6182 101.103 145.79
76.7539 96.9446 144.624
78.9447 94.7235 144.333
87.8544 91.1314 141.603
89.6021 89.1851 138.334
86.3932 89.3146 138.454
90.5864 90.0272 135.01
92.4413 88.8632 138.056
89.5938 92.3584 144.266
85.8002 91.6775 144.365
83.4671 89.2382 137.88
85.2602 90.2476 135.291
93.4753 90.9021 140.807
92.6087 91.8335 144.429
95.1628 92.4145 142.958
94.9357 90.1913 137.144
97.1951 93.8268 141.011
82.8422 91.6012 143.791
82.0884 90.8923 140.249
80.45 92.8493 142.366
81.2753 90.7223 136.67
78.7903 94.185 140.325
86.5065 90.7438 132.424
89.1707 90.792 132.544
87.6634 90.2971 129.396
91.3087 91.073 132.133
84.3642 90.7642 132.066
86.6539 89.6417 126.274
88.7319 89.6784 126.45
87.996 108.502 96.4718
88.9643 109.084 101.574
86.7425 108.953 101.012
89.3066 109.604 107.32
90.4543 109.265 103.709
89.2949 107.64 92.9496
86.8826 107.874 91.7077
85.0532 108.981 101.262
85.9217 108.964 105.922
91.5378 108.333 100.045
91.0622 106.968 94.9594
92.5511 106.51 97.8837
90.4679 106.372 90.4706
91.7034 108.689 105.166
93.801 106.163 100.791
93.4079 104.994 96.8197
84.6685 107.585 92.2338
83.8599 108.76 97.4435
82.8443 107.383 94.3677
83.3116 109.107 102.182
85.2166 107.242 87.9287
81.5207 105.962 92.6091
80.896 107.269 96.443
86.3634 110.923 109.512
88.4914 111.662 109.91
87.3519 113.741 111.969
90.8101 112.712 110.645
84.2825 111.764 109.702
86.1117 115.801 114.903
88.5575 115.931 115.057
90.6842 100.592 89.1392
89.0289 103.145 87.4679
87.7945 100.951 88.8316
86.7854 105.379 86.2937
90.2035 105.155 87.914
92.9458 99.8564 90.9741
91.1044 98.4526 92.1802
85.5708 99.3948 90.8743
84.4303 100.866 89.3524
92.4013 103.965 90.7739
93.6908 101.491 91.931
93.6598 103.405 94.5405
94.5651 99.3843 93.8421
94.6087 103.091 97.8315
89.7041 96.3225 93.6764
86.9864 97.0504 93.0743
88.0731 94.4978 95.4109
84.3186 96.9018 93.3078
92.0632 95.9249 94.9877
89.0759 92.9768 98.535
86.7206 92.8485 98.0396
82.4234 102.223 88.6237
83.4102 105.112 87.0545
80.9093 104.382 90.1665
81.059 99.7535 91.0118
79.7342 103.882 93.148
100.981 102.637 130.395
99.9547 103.188 126.888
99.2283 101.315 129.293
98.7119 104.04 123.768
101.588 104.651 124.515
102.055 104.181 131.945
102.024 102.338 134.708
98.9172 99.3127 131.804
98.2383 99.0931 128.282
104.064 105.436 125.102
103.129 105.81 128.935
104.236 107.441 125.82
102.518 105.97 132.747
103.947 105.388 121.712
104.461 109.129 123.317
103.512 109.619 126.956
101.049 100.643 136.889
99.0593 98.96 135.123
99.5929 98.6507 138.467
98.2019 96.7644 132.949
103.15 102.092 138.309
100.007 98.0548 141.465
98.619 96.0939 139.416
97.7269 99.2995 124.551
97.2339 101.962 122.465
97.2478 99.1424 121.057
97.5694 104.211 120.94
97.9385 96.7563 125.976
97.6285 96.555 119.279
96.9256 98.8714 117.725
98.8085 106.292 116.998
98.6845 106.72 114.773
95.4381 104.621 113.789
97.6397 107.534 113.01
101.505 108.086 114.725
101.901 105.862 119.015
98.2008 105.566 118.965
95.4674 101.758 112.053
95.077 102.34 109.836
103.493 108.564 117.177
105.296 106.464 118.793
104.747 109.184 120.035
101.075 110.284 116.303
102.964 111.088 121.691
96.2237 103.237 117.624
96.0635 100.887 113.558
96.6988 99.8472 115.54
97.6637 99.1642 109.828
97.9492 96.9666 114.064
95.2176 103.151 107.555
94.4808 105.698 110.195
95.2689 104.43 105.604
96.0634 108 111.302
96.4617 100.802 105.618
95.5077 103.436 101.886
94.8533 105.697 103.853
76.0396 101.043 128.731
75.8222 103.039 126.467
74.5632 102.586 130.462
74.8008 104.512 124.385
76.7275 103.333 122.823
77.0383 99.166 127.428
76.4449 99.3336 131.486
73.3995 102.615 134.835
73.049 104.152 132.066
77.4847 101.27 120.967
77.2044 99.1166 123.253
77.1116 98.5109 119.399
77.4436 96.9061 125.098
77.5781 103.201 119.216
77.0091 97.9943 115.898
76.7647 96.1296 117.725
76.6116 99.0479 134.806
74.7711 100.761 136.671
76.4405 98.7851 138.192
72.5183 102.302 138.33
77.3203 97.0301 132.377
77.5286 96.4207 138.835
76.0008 97.9698 141.347
72.2319 105.536 128.124
72.0595 105.43 124.413
70.9705 107.16 124.993
73.443 105.395 121.179
72.9024 105.959 132.336
71.502 109.056 126.058
70.6517 108.702 122.364
78.6414 104.619 114.327
80.0099 102.749 109.859
79.0487 105.158 112.043
78.1474 101.703 104.785
78.0801 100.511 107.288
78.3335 104.022 116.76
75.8442 105.632 118.013
76.4428 107.251 113.645
79.3477 106.262 110.115
77.5715 99.6528 110.123
78.5668 101.542 115.081
77.056 98.709 112.946
75.8414 98.3435 105.881
75.7403 96.2864 111.845
72.4372 106.319 118.285
73.1441 108.058 115.919
70.7329 108.523 118.94
74.9881 109.507 114.96
71.9049 110.429 120.521
78.8369 105.409 105.309
77.9443 103.213 102.53
77.9017 104.792 100.461
77.4571 100.846 101.013
80.3236 106.704 108.032
78.8099 106.6 98.8015
78.4335 103.994 96.7942
95.848 118.779 131.527
92.7939 119.543 129.915
95.377 119.496 127.91
89.672 119.361 128.502
89.9642 118.869 131.491
95.6329 116.612 134.317
98.2588 116.796 132.76
97.1688 118.256 125.793
94.5045 119.128 124.563
89.8905 117.212 133.997
92.7046 115.684 135.168
89.868 114.463 135.514
95.1418 113.395 135.501
86.6068 118.211 132.578
87.002 113.422 135.815
89.7202 111.196 135.925
100.195 116.043 130.211
99.5366 116.759 126.73
101.617 114.886 127.157
98.5895 116.776 123.243
100.175 114.166 133.068
102.708 112.376 127.402
102.199 113.204 124.125
91.8894 119.346 123.046
89.4012 119.319 125.179
89.2474 118.688 121.691
86.7401 119.255 126.798
93.9774 118.38 120.867
89.2914 117.601 118.207
86.9154 118.074 120.129
80.9851 119.469 129.651
78.2083 118.509 131.066
78.8356 118.62 127.226
76.3021 116.085 132.206
78.3636 116.335 134.243
83.4326 119.136 131.624
83.7977 119.679 128.365
79.4078 118.247 123.613
77.2503 117.181 125.126
81.1151 115.551 135.393
83.76 117.596 134.527
84.0906 114.468 135.874
79.3186 112.817 135.381
84.8578 111.099 136.207
84.1877 119.466 125.043
81.878 118.88 122.433
84.4965 118.613 121.377
80.3317 117.697 119.752
85.0439 117.531 117.879
75.0615 115.755 126.031
74.5142 115.14 129.699
73.4261 113.769 126.461
74.6711 113.504 132.747
76.1482 115.584 122.27
72.7993 112.159 123.012
72.2051 111.509 126.522
92.7113 81.9189 110.786
96.1023 83.1777 113.175
94.8994 85.7852 111.26
95.4653 86.592 115.319
94.4116 84.6639 116.021
90.6711 83.5291 113.885
90.7784 85.5258 112.066
94.0208 89.0092 109.494
96.0523 88.5588 110.878
92.188 85.3285 117.849
90.1759 83.5661 117.08
89.7997 85.7057 119.633
87.5421 84.4848 115.609
92.6192 88.2594 119.722
89.0825 88.5081 122.495
87.3338 86.5355 120.813
90.1326 88.6024 110.449
91.8697 89.9417 108.631
89.8569 91.026 107.046
93.6221 91.6377 106.339
88.3187 88.5355 112.587
87.6074 91.2423 104.899
89.6768 91.9304 102.848
96.3998 90.1259 112.548
95.6161 89.6589 115.2
97.0617 91.9028 114.679
94.8386 90.4312 118.036
97.0411 90.8756 109.489
97.8108 94.0359 113.594
97.8779 93.8173 117.007
79.3938 86.5848 113.514
82.398 86.109 112.453
81.3686 89.4027 111.591
84.8751 88.0397 113.191
84.7017 84.874 114.178
81.0741 86.6326 116.431
80.2463 89.1394 115.854
80.0743 90.602 109.826
81.8377 91.4262 108.377
84.4885 83.8008 116.785
82.8933 85.9745 118.121
85.1113 85.9524 119.661
82.7557 89.4174 119.951
85.8372 88.6991 122.515
79.3705 91.3548 114.764
78.5287 91.3003 111.125
77.706 92.6261 113.399
78.4138 91.8985 107.461
79.6972 91.3758 118.184
76.5365 93.8786 115.799
76.2703 93.7735 111.889
83.8542 91.0274 107.361
85.7677 89.6638 110.367
85.3935 90.9989 106.156
82.127 92.4424 104.419
85.7828 91.8488 102.09
96.5702 104.73 137.735
97.3635 107.341 134.273
98.7764 105.313 136.291
99.2291 111.153 134.006
96.3388 110.267 134.727
94.1215 103.933 138.859
96.0448 102.577 141.476
100.778 103.751 138.241
101.035 106.172 134.673
94.0072 109.764 135.194
92.7122 105.742 135.763
91.4068 108.734 135.491
98.452 101.725 142.895
101.507 102.314 140.839
100.605 99.705 143.05
102.116 108.363 132.148
101.543 111.366 132.479
102.969 110.775 129.804
96.2491 115.097 116.362
94.7505 113.227 112.891
96.7692 112.799 114.372
92.9249 110.424 109.679
92.817 113.314 111.762
95.391 117.035 118.64
97.4419 116.077 119.962
98.629 111.809 115.661
97.063 110.334 112.722
92.0883 115.386 113.576
93.1208 117.003 117.289
90.8287 116.837 115.869
99.4416 114.758 120.628
100.217 112.564 118.28
101.354 113.052 121.125
94.4751 108.415 109.906
92.9017 108.48 107.669
93.6994 106.991 105.407
94.8197 91.7877 129.808
96.383 92.9795 128.607
95.371 91.2797 125.84
97.2308 94.66 127.314
97.3775 94.7238 131.047
94.5724 91.8117 133.626
93.1789 91.3142 131.063
93.7537 90.1828 122.642
95.5733 90.638 121.758
96.9924 94.5339 134.48
96.0483 92.1842 136.24
97.405 93.9602 137.936
91.984 90.2986 128.424
92.1147 89.8563 123.868
90.483 89.7198 125.362
97.1203 91.9201 121.152
97.4883 94.4249 123.85
97.8756 94.0915 120.287
96.9725 96.5274 102.974
95.7035 95.7443 99.5535
96.5569 94.104 103.002
94.3869 95.366 96.9135
95.241 97.3803 96.6419
97.3172 98.9388 103.871
97.7258 97.3922 106.275
97.1749 92.2419 106.512
95.0255 92.5031 104.564
95.3706 99.3524 97.2731
96.3152 99.9336 101.214
95.465 101.516 99.2514
98.5363 96.3047 108.53
98.7849 93.0664 108.462
98.6457 95.0963 111.177
93.2535 92.6343 102.008
92.7718 93.9787 97.8354
91.079 92.8102 100.088
77.9651 104.865 138.982
75.3749 105.554 137.387
77.349 107.141 135.222
73.4283 106.286 135.05
73.5996 104.18 138.915
78.289 102.748 142.645
80.4657 103.823 140.21
78.4324 109.542 134.885
75.4482 110.631 134.381
73.3239 102.222 141.045
75.8651 101.969 143.871
74.8634 99.3945 142.962
82.0464 105.658 136.563
80.6949 109.328 135.058
83.3268 108.61 135.307
73.54 110.789 132.297
73.2282 108.108 132.07
72.5337 110.047 129.145
78.6257 111.571 112.345
80.5923 112.166 111.09
78.776 114.046 114.673
82.4947 112.457 110.403
82.686 109.251 107.782
79.4543 108.925 110.424
76.7153 110.779 113.65
77.3021 115.187 118.372
79.4471 116.154 117.168
81.7731 108.549 104.127
80.6622 107.597 105.977
80.2607 107.661 100.848
74.9422 111.712 116.757
75.6151 113.773 119.414
73.6792 112.129 120.013
81.5942 116.473 116.176
83.0063 114.554 112.697
83.9722 116.344 115.261
79.0555 93.1677 128.185
80.7227 91.9212 129.615
79.8793 91.4461 125.574
82.5585 91.1102 130.971
81.2166 92.0637 133.075
78.0761 94.9744 130.522
78.0878 94.9015 126.691
79.4328 91.1914 121.743
81.1971 90.6382 122.801
80.2095 92.8108 135.525
78.6667 94.7254 133.803
78.7203 94.3975 137.262
77.9412 94.6951 123.008
77.8659 92.46 120.664
76.9115 94.2244 119.317
82.9897 90.1718 123.887
83.5565 90.3362 128.339
84.8193 89.9414 125.153
79.2715 95.6778 96.5398
77.5743 96.2632 99.5297
78.6295 94.3167 100.205
76.4623 96.9587 102.771
77.2911 98.5507 99.7689
79.9208 97.5107 93.6351
81.7127 95.9015 94.607
80.3807 93.2998 102.025
78.3522 93.2848 103.906
78.0076 100.047 97.0486
79.2873 99.591 93.2846
78.8417 101.827 94.5347
83.3259 94.7013 95.883
82.4439 93.1862 100.093
84.634 92.9902 98.9145
76.4662 93.3408 106.178
75.6843 95.8848 105.915
75.8072 94.744 109.057
POLYGONS 1280  5120
3 164 162 163
3 163 44 164
3 162 43 163
3 164 42 162
3 166 165 163
3 163 43 166
3 165 44 163
3 166 14 165
3 168 167 162
3 162 42 168
3 167 43 162
3 168 13 167
3 170 169 164
3 164 44 170
3 169 42 164
3 170 12 169
3 173 171 172
3 172 46 173
3 171 43 172
3 173 45 171
3 167 174 172
3 172 43 167
3 174 46 172
3 167 13 174
3 175 166 171
3 171 45 175
3 166 43 171
3 175 14 166
3 177 176 173
3 173 46 177
3 176 45 173
3 177 4 176
3 180 178 179
3 179 48 180
3 178 42 179
3 180 47 178
3 169 181 179
3 179 42 169
3 181 48 179
3 169 12 181
3 182 168 178
3 178 47 182
3 168 42 178
3 182 13 168
3 184 183 180
3 180 48 184
3 183 47 180
3 184 8 183
3 187 185 186
3 186 50 187
3 185 44 186
3 187 49 185
3 165 188 186
3 186 44 165
3 188 50 186
3 165 14 188
3 189 170 185
3 185 49 189
3 170 44 185
3 189 12 170
3 191 190 187
3 187 50 191
3 190 49 187
3 191 7 190
3 194 192 193
3 193 53 194
3 192 52 193
3 194 51 192
3 196 195 193
3 193 52 196
3 195 53 193
3 196 16 195
3 198 197 192
3 192 51 198
3 197 52 192
3 198 14 197
3 200 199 194
3 194 53 200
3 199 51 194
3 200 15 199
3 203 201 202
3 202 45 203
3 201 52 202
3 203 54 201
3 197 175 202
3 202 52 197
3 175 45 202
3 197 14 175
3 204 196 201
3 201 54 204
3 196 52 201
3 204 16 196
3 176 205 203
3 203 45 176
3 205 54 203
3 176 4 205
3 208 206 207
3 207 55 208
3 206 51 207
3 208 50 206
3 199 209 207
3 207 51 199
3 209 55 207
3 199 15 209
3 188 198 206
3 206 50 188
3 198 51 206
3 188 14 198
3 210 191 208
3 208 55 210
3 191 50 208
3 210 7 191
3 213 211 212
3 212 57 213
3 211 53 212
3 213 56 211
3 195 214 212
3 212 53 195
3 214 57 212
3 195 16 214
3 215 200 211
3 211 56 215
3 200 53 211
3 215 15 200
3 217 216 213
3 213 57 217
3 216 56 213
3 217 9 216
3 220 218 219
3 219 60 220
3 218 59 219
3 220 58 218
3 222 221 219
3 219 59 222
3 221 60 219
3 222 19 221
3 224 223 218
3 218 58 224
3 223 59 218
3 224 18 223
3 226 225 220
3 220 60 226
3 225 58 220
3 226 17 225
3 229 227 228
3 228 62 229
3 227 59 228
3 229 61 227
3 223 230 228
3 228 59 223
3 230 62 228
3 223 18 230
3 231 222 227
3 227 61 231
3 222 59 227
3 231 19 222
3 233 232 229
3 229 62 233
3 232 61 229
3 233 5 232
3 236 234 235
3 235 64 236
3 234 58 235
3 236 63 234
3 225 237 235
3 235 58 225
3 237 64 235
3 225 17 237
3 238 224 234
3 234 63 238
3 224 58 234
3 238 18 224
3 240 239 236
3 236 64 240
3 239 63 236
3 240 6 239
3 243 241 242
3 242 66 243
3 241 60 242
3 243 65 241
3 221 244 242
3 242 60 221
3 244 66 242
3 221 19 244
3 245 226 241
3 241 65 245
3 226 60 241
3 245 17 226
3 247 246 243
3 243 66 247
3 246 65 243
3 247 11 246
3 250 248 249
3 249 69 250
3 248 68 249
3 250 67 248
3 252 251 249
3 249 68 252
3 251 69 249
3 252 18 251
3 254 253 248
3 248 67 254
3 253 68 248
3 254 21 253
3 256 255 250
3 250 69 256
3 255 67 250
3 256 20 255
3 259 257 258
3 258 70 259
3 257 68 258
3 259 62 257
3 253 260 258
3 258 68 253
3 260 70 258
3 253 21 260
3 230 252 257
3 257 62 230
3 252 68 257
3 230 18 252
3 261 233 259
3 259 70 261
3 233 62 259
3 261 5 233
3 264 262 263
3 263 72 264
3 262 67 263
3 264 71 262
3 255 265 263
3 263 67 255
3 265 72 263
3 255 20 265
3 266 254 262
3 262 71 266
3 254 67 262
3 266 21 254
3 268 267 264
3 264 72 268
3 267 71 264
3 268 10 267
3 271 269 270
3 270 63 271
3 269 69 270
3 271 73 269
3 251 238 270
3 270 69 251
3 238 63 270
3 251 18 238
3 272 256 269
3 269 73 272
3 256 69 269
3 272 20 256
3 239 273 271
3 271 63 239
3 273 73 271
3 239 6 273
3 276 274 275
3 275 76 276
3 274 75 275
3 276 74 274
3 278 277 275
3 275 75 278
3 277 76 275
3 278 24 277
3 280 279 274
3 274 74 280
3 279 75 274
3 280 23 279
3 282 281 276
3 276 76 282
3 281 74 276
3 282 22 281
3 285 283 284
3 284 78 285
3 283 75 284
3 285 77 283
3 279 286 284
3 284 75 279
3 286 78 284
3 279 23 286
3 287 278 283
3 283 77 287
3 278 75 283
3 287 24 278
3 289 288 285
3 285 78 289
3 288 77 285
3 289 0 288
3 292 290 291
3 291 80 292
3 290 74 291
3 292 79 290
3 281 293 291
3 291 74 281
3 293 80 291
3 281 22 293
3 294 280 290
3 290 79 294
3 280 74 290
3 294 23 280
3 296 295 292
3 292 80 296
3 295 79 292
3 296 4 295
3 299 297 298
3 298 82 299
3 297 76 298
3 299 81 297
3 277 300 298
3 298 76 277
3 300 82 298
3 277 24 300
3 301 282 297
3 297 81 301
3 282 76 297
3 301 22 282
3 303 302 299
3 299 82 303
3 302 81 299
3 303 3 302
3 306 304 305
3 305 85 306
3 304 84 305
3 306 83 304
3 308 307 305
3 305 84 308
3 307 85 305
3 308 26 307
3 310 309 304
3 304 83 310
3 309 84 304
3 310 24 309
3 312 311 306
3 306 85 312
3 311 83 306
3 312 25 311
3 315 313 314
3 314 77 315
3 313 84 314
3 315 86 313
3 309 287 314
3 314 84 309
3 287 77 314
3 309 24 287
3 316 308 313
3 313 86 316
3 308 84 313
3 316 26 308
3 288 317 315
3 315 77 288
3 317 86 315
3 288 0 317
3 320 318 319
3 319 87 320
3 318 83 319
3 320 82 318
3 311 321 319
3 319 83 311
3 321 87 319
3 311 25 321
3 300 310 318
3 318 82 300
3 310 83 318
3 300 24 310
3 322 303 320
3 320 87 322
3 303 82 320
3 322 3 303
3 325 323 324
3 324 89 325
3 323 85 324
3 325 88 323
3 307 326 324
3 324 85 307
3 326 89 324
3 307 26 326
3 327 312 323
3 323 88 327
3 312 85 323
3 327 25 312
3 329 328 325
3 325 89 329
3 328 88 325
3 329 5 328
3 332 330 331
3 331 92 332
3 330 91 331
3 332 90 330
3 334 333 331
3 331 91 334
3 333 92 331
3 334 29 333
3 336 335 330
3 330 90 336
3 335 91 330
3 336 28 335
3 338 337 332
3 332 92 338
3 337 90 332
3 338 27 337
3 341 339 340
3 340 94 341
3 339 91 340
3 341 93 339
3 335 342 340
3 340 91 335
3 342 94 340
3 335 28 342
3 343 334 339
3 339 93 343
3 334 91 339
3 343 29 334
3 345 344 341
3 341 94 345
3 344 93 341
3 345 2 344
3 348 346 347
3 347 96 348
3 346 90 347
3 348 95 346
3 337 349 347
3 347 90 337
3 349 96 347
3 337 27 349
3 350 336 346
3 346 95 350
3 336 90 346
3 350 28 336
3 352 351 348
3 348 96 352
3 351 95 348
3 352 7 351
3 355 353 354
3 354 98 355
3 353 92 354
3 355 97 353
3 333 356 354
3 354 92 333
3 356 98 354
3 333 29 356
3 357 338 353
3 353 97 357
3 338 92 353
3 357 27 338
3 359 358 355
3 355 98 359
3 358 97 355
3 359 1 358
3 362 360 361
3 361 101 362
3 360 100 361
3 362 99 360
3 364 363 361
3 361 100 364
3 363 101 361
3 364 31 363
3 366 365 360
3 360 99 366
3 365 100 360
3 366 29 365
3 368 367 362
3 362 101 368
3 367 99 362
3 368 30 367
3 371 369 370
3 370 93 371
3 369 100 370
3 371 102 369
3 365 343 370
3 370 100 365
3 343 93 370
3 365 29 343
3 372 364 369
3 369 102 372
3 364 100 369
3 372 31 364
3 344 373 371
3 371 93 344
3 373 102 371
3 344 2 373
3 376 374 375
3 375 103 376
3 374 99 375
3 376 98 374
3 367 377 375
3 375 99 367
3 377 103 375
3 367 30 377
3 356 366 374
3 374 98 356
3 366 99 374
3 356 29 366
3 378 359 376
3 376 103 378
3 359 98 376
3 378 1 359
3 381 379 380
3 380 105 381
3 379 101 380
3 381 104 379
3 363 382 380
3 380 101 363
3 382 105 380
3 363 31 382
3 383 368 379
3 379 104 383
3 368 101 379
3 383 30 368
3 385 384 381
3 381 105 385
3 384 104 381
3 385 6 384
3 388 386 387
3 387 108 388
3 386 107 387
3 388 106 386
3 390 389 387
3 387 107 390
3 389 108 387
3 390 34 389
3 392 391 386
3 386 106 392
3 391 107 386
3 392 33 391
3 394 393 388
3 388 108 394
3 393 106 388
3 394 32 393
3 397 395 396
3 396 110 397
3 395 107 396
3 397 109 395
3 391 398 396
3 396 107 391
3 398 110 396
3 391 33 398
3 399 390 395
3 395 109 399
3 390 107 395
3 399 34 390
3 401 400 397
3 397 110 401
3 400 109 397
3 401 8 400
3 404 402 403
3 403 112 404
3 402 106 403
3 404 111 402
3 393 405 403
3 403 106 393
3 405 112 403
3 393 32 405
3 406 392 402
3 402 111 406
3 392 106 402
3 406 33 392
3 408 407 404
3 404 112 408
3 407 111 404
3 408 0 407
3 411 409 410
3 410 114 411
3 409 108 410
3 411 113 409
3 389 412 410
3 410 108 389
3 412 114 410
3 389 34 412
3 413 394 409
3 409 113 413
3 394 108 409
3 413 32 394
3 415 414 411
3 411 114 415
3 414 113 411
3 415 11 414
3 418 416 417
3 417 117 418
3 416 116 417
3 418 115 416
3 420 419 417
3 417 116 420
3 419 117 417
3 420 36 419
3 422 421 416
3 416 115 422
3 421 116 416
3 422 34 421
3 424 423 418
3 418 117 424
3 423 115 418
3 424 35 423
3 427 425 426
3 426 109 427
3 425 116 426
3 427 118 425
3 421 399 426
3 426 116 421
3 399 109 426
3 421 34 399
3 428 420 425
3 425 118 428
3 420 116 425
3 428 36 420
3 400 429 427
3 427 109 400
3 429 118 427
3 400 8 429
3 432 430 431
3 431 119 432
3 430 115 431
3 432 114 430
3 423 433 431
3 431 115 423
3 433 119 431
3 423 35 433
3 412 422 430
3 430 114 412
3 422 115 430
3 412 34 422
3 434 415 432
3 432 119 434
3 415 114 432
3 434 11 415
3 437 435 436
3 436 121 437
3 435 117 436
3 437 120 435
3 419 438 436
3 436 117 419
3 438 121 436
3 419 36 438
3 439 424 435
3 435 120 439
3 424 117 435
3 439 35 424
3 441 440 437
3 437 121 441
3 440 120 437
3 441 1 440
3 444 442 443
3 443 124 444
3 442 123 443
3 444 122 442
3 446 445 443
3 443 123 446
3 445 124 443
3 446 39 445
3 448 447 442
3 442 122 448
3 447 123 442
3 448 38 447
3 450 449 444
3 444 124 450
3 449 122 444
3 450 37 449
3 453 451 452
3 452 126 453
3 451 123 452
3 453 125 451
3 447 454 452
3 452 123 447
3 454 126 452
3 447 38 454
3 455 446 451
3 451 125 455
3 446 123 451
3 455 39 446
3 457 456 453
3 453 126 457
3 456 125 453
3 457 9 456
3 460 458 459
3 459 128 460
3 458 122 459
3 460 127 458
3 449 461 459
3 459 122 449
3 461 128 459
3 449 37 461
3 462 448 458
3 458 127 462
3 448 122 458
3 462 38 448
3 464 463 460
3 460 128 464
3 463 127 460
3 464 10 463
3 467 465 466
3 466 130 467
3 465 124 466
3 467 129 465
3 445 468 466
3 466 124 445
3 468 130 466
3 445 39 468
3 469 450 465
3 465 129 469
3 450 124 465
3 469 37 450
3 471 470 467
3 467 130 471
3 470 129 467
3 471 3 470
3 474 472 473
3 473 133 474
3 472 132 473
3 474 131 472
3 476 475 473
3 473 132 476
3 475 133 473
3 476 38 475
3 478 477 472
3 472 131 478
3 477 132 472
3 478 41 477
3 480 479 474
3 474 133 480
3 479 131 474
3 480 40 479
3 483 481 482
3 482 134 483
3 481 132 482
3 483 126 481
3 477 484 482
3 482 132 477
3 484 134 482
3 477 41 484
3 454 476 481
3 481 126 454
3 476 132 481
3 454 38 476
3 485 457 483
3 483 134 485
3 457 126 483
3 485 9 457
3 488 486 487
3 487 136 488
3 486 131 487
3 488 135 486
3 479 489 487
3 487 131 479
3 489 136 487
3 479 40 489
3 490 478 486
3 486 135 490
3 478 131 486
3 490 41 478
3 492 491 488
3 488 136 492
3 491 135 488
3 492 2 491
3 495 493 494
3 494 127 495
3 493 133 494
3 495 137 493
3 475 462 494
3 494 133 475
3 462 127 494
3 475 38 462
3 496 480 493
3 493 137 496
3 480 133 493
3 496 40 480
3 463 497 495
3 495 127 463
3 497 137 495
3 463 10 497
3 500 498 499
3 499 140 500
3 498 139 499
3 500 138 498
3 502 501 499
3 499 139 502
3 501 140 499
3 502 33 501
3 504 503 498
3 498 138 504
3 503 139 498
3 504 13 503
3 506 505 500
3 500 140 506
3 505 138 500
3 506 23 505
3 509 507 508
3 508 47 509
3 507 139 508
3 509 110 507
3 503 182 508
3 508 139 503
3 182 47 508
3 503 13 182
3 398 502 507
3 507 110 398
3 502 139 507
3 398 33 502
3 183 401 509
3 509 47 183
3 401 110 509
3 183 8 401
3 512 510 511
3 511 79 512
3 510 138 511
3 512 46 510
3 505 294 511
3 511 138 505
3 294 79 511
3 505 23 294
3 174 504 510
3 510 46 174
3 504 138 510
3 174 13 504
3 295 177 512
3 512 79 295
3 177 46 512
3 295 4 177
3 515 513 514
3 514 111 515
3 513 140 514
3 515 78 513
3 501 406 514
3 514 140 501
3 406 111 514
3 501 33 406
3 286 506 513
3 513 78 286
3 506 140 513
3 286 23 506
3 407 289 515
3 515 111 407
3 289 78 515
3 407 0 289
3 518 516 517
3 517 143 518
3 516 142 517
3 518 141 516
3 520 519 517
3 517 142 520
3 519 143 517
3 520 19 519
3 522 521 516
3 516 141 522
3 521 142 516
3 522 32 521
3 524 523 518
3 518 143 524
3 523 141 518
3 524 26 523
3 527 525 526
3 526 113 527
3 525 142 526
3 527 66 525
3 521 413 526
3 526 142 521
3 413 113 526
3 521 32 413
3 244 520 525
3 525 66 244
3 520 142 525
3 244 19 520
3 414 247 527
3 527 113 414
3 247 66 527
3 414 11 247
3 530 528 529
3 529 86 530
3 528 141 529
3 530 112 528
3 523 316 529
3 529 141 523
3 316 86 529
3 523 26 316
3 405 522 528
3 528 112 405
3 522 141 528
3 405 32 522
3 317 408 530
3 530 86 317
3 408 112 530
3 317 0 408
3 533 531 532
3 532 61 533
3 531 143 532
3 533 89 531
3 519 231 532
3 532 143 519
3 231 61 532
3 519 19 231
3 326 524 531
3 531 89 326
3 524 143 531
3 326 26 524
3 232 329 533
3 533 61 232
3 329 89 533
3 232 5 329
3 536 534 535
3 535 146 536
3 534 145 535
3 536 144 534
3 538 537 535
3 535 145 538
3 537 146 535
3 538 22 537
3 540 539 534
3 534 144 540
3 539 145 534
3 540 16 539
3 542 541 536
3 536 146 542
3 541 144 536
3 542 39 541
3 545 543 544
3 544 54 545
3 543 145 544
3 545 80 543
3 539 204 544
3 544 145 539
3 204 54 544
3 539 16 204
3 293 538 543
3 543 80 293
3 538 145 543
3 293 22 538
3 205 296 545
3 545 54 205
3 296 80 545
3 205 4 296
3 548 546 547
3 547 125 548
3 546 144 547
3 548 57 546
3 541 455 547
3 547 144 541
3 455 125 547
3 541 39 455
3 214 540 546
3 546 57 214
3 540 144 546
3 214 16 540
3 456 217 548
3 548 125 456
3 217 57 548
3 456 9 217
3 551 549 550
3 550 81 551
3 549 146 550
3 551 130 549
3 537 301 550
3 550 146 537
3 301 81 550
3 537 22 301
3 468 542 549
3 549 130 468
3 542 146 549
3 468 39 542
3 302 471 551
3 551 81 302
3 471 130 551
3 302 3 471
3 554 552 553
3 553 149 554
3 552 148 553
3 554 147 552
3 556 555 553
3 553 148 556
3 555 149 553
3 556 21 555
3 558 557 552
3 552 147 558
3 557 148 552
3 558 25 557
3 560 559 554
3 554 149 560
3 559 147 554
3 560 37 559
3 563 561 562
3 562 88 563
3 561 148 562
3 563 70 561
3 557 327 562
3 562 148 557
3 327 88 562
3 557 25 327
3 260 556 561
3 561 70 260
3 556 148 561
3 260 21 556
3 328 261 563
3 563 88 328
3 261 70 563
3 328 5 261
3 566 564 565
3 565 129 566
3 564 147 565
3 566 87 564
3 559 469 565
3 565 147 559
3 469 129 565
3 559 37 469
3 321 558 564
3 564 87 321
3 558 147 564
3 321 25 558
3 470 322 566
3 566 129 470
3 322 87 566
3 470 3 322
3 569 567 568
3 568 71 569
3 567 149 568
3 569 128 567
3 555 266 568
3 568 149 555
3 266 71 568
3 555 21 266
3 461 560 567
3 567 128 461
3 560 149 567
3 461 37 560
3 267 464 569
3 569 71 267
3 464 128 569
3 267 10 464
3 572 570 571
3 571 152 572
3 570 151 571
3 572 150 570
3 574 573 571
3 571 151 574
3 573 152 571
3 574 27 573
3 576 575 570
3 570 150 576
3 575 151 570
3 576 12 575
3 578 577 572
3 572 152 578
3 577 150 572
3 578 36 577
3 581 579 580
3 580 49 581
3 579 151 580
3 581 96 579
3 575 189 580
3 580 151 575
3 189 49 580
3 575 12 189
3 349 574 579
3 579 96 349
3 574 151 579
3 349 27 574
3 190 352 581
3 581 49 190
3 352 96 581
3 190 7 352
3 584 582 583
3 583 118 584
3 582 150 583
3 584 48 582
3 577 428 583
3 583 150 577
3 428 118 583
3 577 36 428
3 181 576 582
3 582 48 181
3 576 150 582
3 181 12 576
3 429 184 584
3 584 118 429
3 184 48 584
3 429 8 184
3 587 585 586
3 586 97 587
3 585 152 586
3 587 121 585
3 573 357 586
3 586 152 573
3 357 97 586
3 573 27 357
3 438 578 585
3 585 121 438
3 578 152 585
3 438 36 578
3 358 441 587
3 587 97 358
3 441 121 587
3 358 1 441
3 590 588 589
3 589 155 590
3 588 154 589
3 590 153 588
3 592 591 589
3 589 154 592
3 591 155 589
3 592 17 591
3 594 593 588
3 588 153 594
3 593 154 588
3 594 30 593
3 596 595 590
3 590 155 596
3 595 153 590
3 596 35 595
3 599 597 598
3 598 104 599
3 597 154 598
3 599 64 597
3 593 383 598
3 598 154 593
3 383 104 598
3 593 30 383
3 237 592 597
3 597 64 237
3 592 154 597
3 237 17 592
3 384 240 599
3 599 104 384
3 240 64 599
3 384 6 240
3 602 600 601
3 601 120 602
3 600 153 601
3 602 103 600
3 595 439 601
3 601 153 595
3 439 120 601
3 595 35 439
3 377 594 600
3 600 103 377
3 594 153 600
3 377 30 594
3 440 378 602
3 602 120 440
3 378 103 602
3 440 1 378
3 605 603 604
3 604 65 605
3 603 155 604
3 605 119 603
3 591 245 604
3 604 155 591
3 245 65 604
3 591 17 245
3 433 596 603
3 603 119 433
3 596 155 603
3 433 35 596
3 246 434 605
3 605 65 246
3 434 119 605
3 246 11 434
3 608 606 607
3 607 158 608
3 606 157 607
3 608 156 606
3 610 609 607
3 607 157 610
3 609 158 607
3 610 15 609
3 612 611 606
3 606 156 612
3 611 157 606
3 612 28 611
3 614 613 608
3 608 158 614
3 613 156 608
3 614 41 613
3 617 615 616
3 616 95 617
3 615 157 616
3 617 55 615
3 611 350 616
3 616 157 611
3 350 95 616
3 611 28 350
3 209 610 615
3 615 55 209
3 610 157 615
3 209 15 610
3 351 210 617
3 617 95 351
3 210 55 617
3 351 7 210
3 620 618 619
3 619 135 620
3 618 156 619
3 620 94 618
3 613 490 619
3 619 156 613
3 490 135 619
3 613 41 490
3 342 612 618
3 618 94 342
3 612 156 618
3 342 28 612
3 491 345 620
3 620 135 491
3 345 94 620
3 491 2 345
3 623 621 622
3 622 56 623
3 621 158 622
3 623 134 621
3 609 215 622
3 622 158 609
3 215 56 622
3 609 15 215
3 484 614 621
3 621 134 484
3 614 158 621
3 484 41 614
3 216 485 623
3 623 56 216
3 485 134 623
3 216 9 485
3 626 624 625
3 625 161 626
3 624 160 625
3 626 159 624
3 628 627 625
3 625 160 628
3 627 161 625
3 628 31 627
3 630 629 624
3 624 159 630
3 629 160 624
3 630 20 629
3 632 631 626
3 626 161 632
3 631 159 626
3 632 40 631
3 635 633 634
3 634 73 635
3 633 160 634
3 635 105 633
3 629 272 634
3 634 160 629
3 272 73 634
3 629 20 272
3 382 628 633
3 633 105 382
3 628 160 633
3 382 31 628
3 273 385 635
3 635 73 273
3 385 105 635
3 273 6 385
3 638 636 637
3 637 137 638
3 636 159 637
3 638 72 636
3 631 496 637
3 637 159 631
3 496 137 637
3 631 40 496
3 265 630 636
3 636 72 265
3 630 159 636
3 265 20 630
3 497 268 638
3 638 137 497
3 268 72 638
3 497 10 268
3 641 639 640
3 640 102 641
3 639 161 640
3 641 136 639
3 627 372 640
3 640 161 627
3 372 102 640
3 627 31 372
3 489 632 639
3 639 136 489
3 632 161 639
3 489 40 632
3 373 492 641
3 641 102 373
3 492 136 641
3 373 2 492
