# vtk DataFile Version 3.0
this file was written using fslvtkio
ASCII
DATASET POLYDATA
POINTS 642 float
69.3385 126.504 162.991
61.6951 134.473 160.381
56.2965 118.982 156.95
63.4266 111.793 160.426
65.5782 116.063 171.028
66.1225 124.677 155.691
62.5379 127.215 152.458
59.4114 122.037 167.571
66.6766 133.128 169.316
57.9934 107.513 163.137
58.5766 110.606 149.95
73.5588 137.604 155.856
62.5971 128.17 170.544
66.6061 124.284 172.352
61.5149 118.04 171.929
57.9415 114.078 166.482
61.825 108.682 169.645
68.6687 134.391 153.063
64.9986 126.221 152.829
74.5294 131.1 152.942
59.5326 118.279 148.716
61.4752 116.754 152.614
65.4223 111.93 166.078
68.6109 120.917 167.611
66.0341 119.499 162.343
62.42 117.502 157.69
68.9353 126.848 158.376
60.2864 129.213 164.647
57.188 120.147 162.468
59.2372 126.774 158.663
63.0085 132.545 155.61
58.5635 122.662 153.544
74.1679 132.879 159.093
69.4551 130.403 166.048
70.5048 138.694 163.039
67.0419 139.4 158.582
63.9729 136.828 165.791
60.6774 108.29 155.734
56.6778 105.651 154.871
61.0295 104.736 162.146
56.3352 113.494 152.062
56.3137 112.19 159.229
64.3576 126.381 172.693
63.9779 121.167 173.541
62.2001 123.21 171.648
63.5295 116.269 172.608
66.3488 120.133 171.916
66.485 128.968 170.782
64.3701 131.762 171.302
60.9734 125.145 169.084
60.1737 120.252 169.949
59.6621 115.645 169.528
61.3323 112.998 171.243
59.5742 111.262 168.634
63.9244 112.124 170.863
58.5115 118.081 167.25
58.2174 110.688 164.893
59.4636 107.5 166.761
67.9533 131.004 152.245
69.7606 129.727 152.824
72.0713 133.208 151.916
70.5136 128.19 154.344
65.6012 125.685 154.442
63.7574 126.735 151.712
65.5899 131.067 153.229
71.5991 136.268 153.945
76.0311 134.828 153.208
61.5722 117.531 149.673
62.5739 121.009 152.858
61.9112 121.862 151.373
62.7131 120.967 154.506
60.3571 113.454 150.839
58.7048 114.86 147.577
60.9214 122.979 151.207
67.2506 116.413 166.983
67.842 119.673 164.854
65.915 115.563 164.21
67.5604 123.211 162.816
69.1219 123.796 165.327
67.7097 118.456 169.881
65.8636 113.756 168.86
64.4375 111.736 163.084
64.3264 115.781 161.651
64.2874 119.323 159.935
66.3617 123.581 160.662
65.2049 122.721 158.413
69.4335 127.222 160.557
62.7169 114.689 159.182
63.6711 121.452 156.616
68.1233 125.841 156.712
58.9868 124.584 163.515
58.2156 123.822 160.709
59.5146 128.016 161.76
57.5107 122.734 157.703
56.836 119.504 159.661
58.193 121.157 165.164
59.9481 125.64 166.272
60.6324 132.22 162.646
60.3634 130.977 159.555
60.8317 129.68 157.04
58.8276 124.999 155.98
60.8156 127.735 154.837
56.8667 120.596 154.728
62.5921 134.008 157.943
63.1321 129.898 154.093
60.4154 125.389 152.605
71.6747 132.462 162.578
70.1431 134.839 164.184
72.6129 136.26 160.739
68.0062 136.361 166.144
68.0702 131.972 167.498
70.2933 128.448 164.393
71.944 129.792 161.117
75.3286 135.657 157.354
72.3627 139.351 159.204
68.6629 141.393 161.293
67.1059 139.619 165.27
65.4139 139.207 162.376
65.3414 135.872 168.429
70.3058 139.817 156.897
64.1534 137.33 159.629
63.0705 135.857 162.934
59.2521 103.967 154.666
58.0434 102.114 158.668
60.7987 105.054 158.392
59.0198 104.697 163.073
57.3363 105.969 159.444
57.1937 106.437 151.381
59.631 108.964 152.741
61.604 109.869 158.431
62.5571 108.104 161.181
55.9318 112.303 155.551
55.8815 108.607 157.073
55.9121 109.272 152.625
56.4087 109.353 161.142
56.1816 115.526 158.013
56.3605 116.197 154.74
56.3947 111.861 149.131
68.0101 122.986 170.006
67.9825 127.419 169.227
69.1326 125.927 167.15
72.9981 129.586 158.493
76.0264 131.883 155.899
72.4155 129.362 155.895
61.7555 105.808 166.394
64.2027 109.575 168.191
63.6245 108.01 164.427
60.939 112.925 156.883
61.5933 116.914 155.273
60.6388 112.499 153.935
62.7578 132.818 168.576
61.3809 129.148 167.597
61.8203 133.216 165.616
65.1269 136.552 156.639
65.5095 134.157 154.154
68.3659 137.428 155.252
56.3611 116.084 161.085
57.182 116.947 164.349
56.9528 112.999 162.858
57.1666 116.064 149.501
58.8253 120.041 151.17
56.7661 118.173 152.217
64.0713 123.721 173.271
62.9072 122.327 172.801
62.9852 124.95 172.633
61.8905 120.617 171.84
62.6498 119.917 172.983
65.2202 122.696 172.89
65.3947 125.138 172.686
63.3305 127.487 171.835
62.1551 125.625 171.387
63.7794 118.776 173.19
65.1902 120.363 172.893
64.8931 118.232 172.549
66.321 122.137 172.126
62.405 117.337 172.737
64.5956 115.959 171.779
65.7927 118.004 171.615
65.5648 127.761 171.936
64.4692 129.005 171.94
65.6544 130.226 171.569
63.4139 130.15 170.955
66.5918 126.586 171.617
66.6706 131.227 170.234
65.7838 132.301 170.655
61.6517 124.28 170.326
61.3243 121.764 170.818
60.7006 122.706 169.492
60.8912 119.098 170.87
61.761 126.61 169.97
60.2124 123.529 168.296
59.9962 121.172 168.636
60.3532 114.313 170.565
60.3682 111.918 170.127
59.3571 113.372 169.253
60.5162 109.648 169.267
61.4222 110.57 170.804
61.387 115.459 171.609
60.3903 116.72 170.9
58.8228 114.735 168.138
58.7674 112.776 167.676
62.3959 112.284 171.374
62.3226 114.795 172.187
63.6284 114.074 171.832
62.8865 110.24 170.762
64.7939 114.094 171.092
59.878 117.977 169.797
59.0924 116.852 168.439
59.3038 119.118 168.697
58.2644 116.043 166.946
58.8142 120.121 167.459
58.8266 111.108 166.817
59.5643 109.373 167.67
58.7253 109.163 165.881
60.641 107.718 168.28
58.0555 112.422 165.81
58.048 108.886 164.106
58.6326 107.586 164.981
68.7539 130.296 152.314
71.0748 131.394 152.064
69.7981 132.105 151.64
73.2901 132.226 152.285
72.2033 130.767 152.618
67.3584 128.249 152.939
66.7275 128.746 152.385
68.5018 132.778 152.285
70.4321 133.953 152.213
70.4791 129.145 153.378
67.7805 127.757 153.537
68.3912 127.222 154.169
65.3658 125.884 153.579
72.5475 129.942 153.695
68.3803 126.378 155.063
66.0795 125.149 154.984
65.9001 129.133 152.218
66.8243 131.261 152.588
64.9576 129.273 152.298
66.9967 133.052 152.843
64.6444 126.651 151.962
63.2918 127.152 151.904
63.9235 129.116 152.904
72.1994 134.939 152.473
74.2069 134.166 152.079
73.7236 135.771 153.186
76.054 132.948 152.537
70.26 135.373 153.331
72.7102 137.196 154.734
74.8387 136.305 154.444
61.9898 119.127 151.395
62.1991 121.58 152.489
61.4109 119.509 150.602
63.4535 123.967 152.205
63.836 123.795 152.989
62.2234 118.725 152.308
61.7178 117.215 151.195
60.6446 117.885 148.835
60.8591 119.974 150.199
63.9681 123.42 153.745
62.6138 120.495 153.463
64.0699 122.928 154.475
61.9357 118.424 153.628
64.3283 123.167 155.305
61.2023 115.571 149.94
60.5643 116.142 148.242
59.8955 114.225 149.09
58.9572 116.629 147.209
61.1716 115.03 151.521
59.443 112.066 150.169
58.5335 112.884 148.701
61.4805 122.374 151.069
63.0596 124.45 151.751
62.3958 124.855 151.376
60.2696 120.465 150.298
61.6769 125.125 151.679
67.8245 117.961 165.894
66.8189 117.671 164.594
66.5673 115.998 165.543
66.0009 117.511 163.389
66.9623 119.266 163.625
68.3529 120.106 166.245
68.1781 118.615 167.358
66.2407 114.29 166.612
65.775 113.816 165.157
67.795 121.261 163.809
68.4476 121.705 165.175
68.4611 123.212 164.05
68.7155 122.484 166.462
66.8812 121.246 162.657
68.7322 124.727 162.891
69.415 124.962 164.019
67.6045 117.377 168.402
66.6916 115.083 167.961
66.659 116.179 169.31
65.619 112.722 167.504
68.1726 119.655 168.707
66.5744 117.326 170.556
65.8485 114.848 170.173
65.2345 113.599 163.739
65.1654 115.674 162.916
64.5946 113.711 162.39
65.0803 117.72 162.093
65.0094 111.748 164.536
64.143 111.833 161.646
63.926 113.806 161.055
65.2051 121.496 160.567
65.5159 123.464 159.613
64.4649 121.18 159.339
66.8742 124.637 158.597
67.4446 125.063 159.483
65.9746 121.468 161.585
65.1902 119.625 161.106
63.2056 118.7 158.922
63.6662 120.263 158.274
68.108 125.32 160.445
66.9395 123.424 161.703
68.4127 125.125 161.631
69.2894 127.099 159.395
69.2967 126.891 161.801
64.1417 117.651 160.932
63.1822 117.206 159.715
63.6248 115.429 160.367
62.4322 116.148 158.489
63.0293 113.113 159.825
64.3055 122.104 157.628
66.3931 124.458 157.729
65.6987 123.718 156.954
68.6683 126.469 157.469
62.8039 119.452 157.128
64.7632 123.108 156.126
67.1378 125.293 156.089
58.6741 124.194 162.11
58.8868 125.933 161.142
59.2368 126.373 162.654
59.2359 127.468 160.19
58.643 125.476 159.664
57.5659 122.061 161.716
57.9873 122.4 162.975
59.6789 126.885 164.06
59.7843 128.594 163.188
57.77 123.435 159.255
57.1681 121.685 160.256
56.7838 121.37 158.771
56.9328 119.946 161.12
58.4351 124.786 158.241
56.7512 120.88 157.221
56.5623 119.339 158.259
58.4742 122.988 164.349
59.5291 125.215 164.912
59.1174 123.469 165.636
60.0955 127.435 165.484
57.661 120.723 163.851
58.8128 121.736 166.429
59.6783 123.821 166.987
59.889 130.167 162.338
59.7652 129.501 160.758
60.3163 131.691 161.108
59.8785 128.865 159.282
60.4064 130.939 163.801
61.0507 133.519 161.505
61.0443 132.882 159.931
59.725 127.449 156.459
59.6942 126.372 155.331
60.9633 128.68 156.052
59.5433 125.131 154.167
58.5649 124.001 154.588
59.1288 125.962 157.276
60.0284 128.277 157.853
61.8998 131.12 156.279
61.8481 130.052 155.27
57.6753 122.944 155.242
58.2762 123.882 156.86
57.1148 121.923 156.14
57.6095 121.59 154.081
56.5651 119.692 155.837
60.5001 130.351 158.239
61.7269 131.913 157.484
61.3058 132.437 158.576
62.8512 133.35 156.755
62.2257 134.325 159.159
61.8286 129.006 154.336
60.4852 126.536 153.744
61.46 127.679 153.168
59.4405 124.151 153.016
63.0474 131.401 154.74
62.8045 128.586 153.178
61.5176 126.364 152.528
71.073 133.599 163.527
71.1822 135.58 162.415
72.2117 134.258 161.693
71.6055 137.576 161.804
70.2817 136.821 163.586
69.9509 132.828 164.981
70.3988 131.728 164.27
72.7341 133.124 160.604
73.3909 134.699 159.927
69.2194 135.725 165.203
69.1033 133.558 165.873
67.9583 134.12 166.63
68.912 131.363 166.681
69.3568 137.731 164.797
67.1353 134.608 167.805
67.4634 132.567 168.604
70.9169 130.541 163.451
71.9339 131.226 161.738
70.9519 129.166 162.707
73.078 131.544 160.257
69.995 129.528 165.15
70.0942 127.316 163.706
70.5314 128.135 162.081
74.1161 136.123 159.183
72.7615 137.843 160.056
74.0791 137.507 158.216
71.3613 139.368 161.15
74.9287 134.201 158.16
74.999 136.994 156.404
73.1754 138.915 157.401
67.9401 140.848 163.44
66.114 139.823 163.907
66.931 140.574 161.96
64.681 138.247 164.198
65.3418 138.376 165.724
68.7473 139.359 164.203
69.7081 140.2 162.449
67.6626 140.624 159.969
66.1564 139.734 160.519
66.2071 137.728 166.881
67.7803 138.112 165.806
66.7676 136.28 167.438
64.6165 136.455 167.253
66.1311 134.491 169.221
70.4758 140.606 160.342
69.3124 140.673 159.01
71.3489 140.26 158.143
68.5293 139.822 157.795
72.0379 138.969 156.333
64.779 138.519 160.835
63.9889 137.871 162.627
63.5236 136.721 161.361
63.4587 136.714 164.296
65.4719 138.678 159.048
62.8548 135.868 160.051
62.2701 135.138 161.637
58.8053 102.203 156.162
60.1379 102.782 158.623
60.0871 104.031 156.792
61.0562 104.501 160.305
60.1516 102.302 160.498
56.788 103.538 156.595
57.3524 103.492 154.002
59.9277 105.822 155.301
60.7095 106.199 156.752
58.6012 103.266 160.649
57.5233 104.206 158.654
58.0662 105.067 161.122
56.8116 105.655 157.023
59.9995 103.895 162.666
58.4227 106.169 163.128
57.555 106.683 161.353
58.2699 104.907 152.949
59.4351 106.567 153.693
58.6185 107.407 152.062
60.0024 108.339 154.321
56.2283 105.124 152.472
57.9198 108.634 150.443
59.138 109.727 151.136
61.2268 107.152 158.208
61.5617 106.566 159.79
62.1072 108.522 159.5
61.9436 106.464 161.703
61.1993 108.67 157.078
62.4476 110.999 159.528
63.1148 110.025 160.792
55.6116 110.253 156.08
56.0345 108.922 154.779
55.6723 110.65 154.193
55.983 107.251 153.511
56.4673 107.275 155.903
55.8157 110.311 157.995
56.059 112.066 157.325
56.0548 112.646 153.774
55.8979 111.359 152.376
56.686 107.021 158.094
55.9821 108.786 159.035
56.4823 107.602 160.291
56.2341 110.633 159.962
57.292 108.4 162.159
56.0925 113.818 156.873
55.9561 114.128 155.103
56.3552 115.771 156.346
56.3591 114.755 153.469
56.29 113.711 158.54
56.1553 117.314 157.494
56.1875 117.677 155.964
56.0726 110.183 150.854
56.0404 107.531 151.588
56.5124 109.135 149.892
56.1735 112.42 150.622
57.4716 110.93 148.804
67.7809 125.206 169.582
68.5233 126.582 168.124
68.4019 124.383 168.449
69.2634 128.191 166.668
68.6124 128.873 167.618
67.288 125.808 170.752
67.3019 123.722 171.173
68.4878 122.112 168.857
68.6783 123.382 167.528
68.1215 129.757 168.335
67.2306 128.202 170.011
67.4368 130.553 169.221
67.3718 121.703 171.068
67.9019 120.787 169.934
67.0635 119.423 170.927
69.3046 124.748 166.296
69.7299 127.167 165.804
69.5605 126.141 164.963
74.3327 130.612 157.386
74.4052 130.395 155.707
72.6003 129.465 157.263
73.9217 129.948 154.51
75.8641 131.413 154.12
75.3892 132.228 157.584
73.8134 131.272 158.71
70.9288 128.396 158.255
70.7711 128.206 157.202
76.6 133.338 154.293
76.066 133.781 156.474
75.9455 135.226 155.302
72.7508 129.801 159.776
71.1633 128.564 159.4
70.9965 128.463 160.68
70.1135 127.826 156.311
71.6161 128.967 154.965
69.1857 127.124 155.647
63.2674 107.401 167.304
63.8135 108.675 166.255
62.7043 106.769 165.413
64.3313 109.979 165.312
64.8112 110.543 167.052
63.0041 108.92 168.99
61.8901 106.745 168.246
61.4474 105.014 164.405
62.2715 106.219 163.552
65.1292 111.47 168.595
64.2276 110.434 169.901
64.807 112.914 169.821
60.2595 106.091 166.933
60.1001 104.916 165.006
59.0901 105.877 165.244
63.1065 107.933 162.791
64.1332 109.729 163.713
63.7389 109.839 162.171
60.9731 114.92 155.991
60.979 114.648 154.575
60.6429 112.539 155.473
60.9488 114.709 153.141
61.3045 116.627 154.041
61.7626 117.238 156.518
61.6245 115.241 157.27
60.9403 110.548 156.301
60.3714 110.339 154.797
62.0798 118.942 154.796
62.157 119.505 156.078
63.3262 121.317 155.581
62.0703 114.001 157.972
61.4811 111.474 157.587
62.1432 112.498 158.78
60.3596 110.779 153.241
60.3472 113.265 152.417
60.0888 111.348 151.597
61.7579 131.077 168.341
61.383 131.182 166.692
62.3004 133.102 167.096
60.888 131.312 165.246
60.701 129.416 166.149
61.9536 128.794 169.135
62.5505 130.617 169.722
63.3293 134.9 167.261
62.9398 134.993 165.727
60.6622 127.503 166.896
61.0194 127.279 168.546
60.6925 125.522 167.579
63.4671 132.431 169.968
63.8962 134.636 168.633
64.7388 133.861 170.131
62.4923 134.691 164.321
60.9544 132.944 164.141
61.5894 134.164 162.941
65.3893 135.484 155.25
67.0021 136.092 154.627
66.6252 137.1 155.975
68.6413 135.994 153.992
67.0936 134.587 153.704
64.1159 133.472 154.787
64.1088 134.667 156.012
66.1731 138.21 157.381
67.6937 138.631 156.66
65.7449 132.739 153.555
64.3337 132.087 154.192
64.3539 130.539 153.717
63.6969 135.423 157.211
64.8359 137.12 158.067
63.2378 136.022 158.547
69.3533 138.862 155.948
69.9469 136.924 154.859
71.0268 138.084 155.406
56.7475 116.506 162.69
57.0026 115.024 163.72
56.7298 114.544 161.953
57.4883 113.54 164.577
57.6486 115.477 165.326
57.0604 118.476 163.383
56.7089 118.08 161.891
56.4414 114.138 160.27
56.5781 112.524 161.024
57.7538 117.44 165.832
57.5693 119.018 164.717
58.1891 119.592 166.135
56.3178 117.825 160.429
56.324 115.713 159.516
56.2851 117.541 158.941
56.9025 111.179 161.889
57.4985 111.734 163.831
57.1574 109.936 163.105
57.9864 118.106 150.197
57.6853 119.459 151.587
57.0399 117.03 151.018
57.5904 120.409 152.796
58.7608 121.397 152.377
59.2275 119.15 149.997
58.3956 117.226 148.777
56.8319 114.624 150.695
56.4714 115.712 152.049
59.5209 122.757 152.145
59.8437 121.542 151.12
60.5363 124.146 151.815
57.4005 115.424 147.839
56.7074 113.896 149.237
56.9114 113.223 147.75
56.6216 116.846 153.437
56.7 119.302 153.45
56.2615 118.282 154.666
POLYGONS 1280  5120
3 164 162 163
3 163 44 164
3 162 43 163
3 164 42 162
3 166 165 163
3 163 43 166
3 165 44 163
3 166 14 165
3 168 167 162
3 162 42 168
3 167 43 162
3 168 13 167
3 170 169 164
3 164 44 170
3 169 42 164
3 170 12 169
3 173 171 172
3 172 46 173
3 171 43 172
3 173 45 171
3 167 174 172
3 172 43 167
3 174 46 172
3 167 13 174
3 175 166 171
3 171 45 175
3 166 43 171
3 175 14 166
3 177 176 173
3 173 46 177
3 176 45 173
3 177 4 176
3 180 178 179
3 179 48 180
3 178 42 179
3 180 47 178
3 169 181 179
3 179 42 169
3 181 48 179
3 169 12 181
3 182 168 178
3 178 47 182
3 168 42 178
3 182 13 168
3 184 183 180
3 180 48 184
3 183 47 180
3 184 8 183
3 187 185 186
3 186 50 187
3 185 44 186
3 187 49 185
3 165 188 186
3 186 44 165
3 188 50 186
3 165 14 188
3 189 170 185
3 185 49 189
3 170 44 185
3 189 12 170
3 191 190 187
3 187 50 191
3 190 49 187
3 191 7 190
3 194 192 193
3 193 53 194
3 192 52 193
3 194 51 192
3 196 195 193
3 193 52 196
3 195 53 193
3 196 16 195
3 198 197 192
3 192 51 198
3 197 52 192
3 198 14 197
3 200 199 194
3 194 53 200
3 199 51 194
3 200 15 199
3 203 201 202
3 202 45 203
3 201 52 202
3 203 54 201
3 197 175 202
3 202 52 197
3 175 45 202
3 197 14 175
3 204 196 201
3 201 54 204
3 196 52 201
3 204 16 196
3 176 205 203
3 203 45 176
3 205 54 203
3 176 4 205
3 208 206 207
3 207 55 208
3 206 51 207
3 208 50 206
3 199 209 207
3 207 51 199
3 209 55 207
3 199 15 209
3 188 198 206
3 206 50 188
3 198 51 206
3 188 14 198
3 210 191 208
3 208 55 210
3 191 50 208
3 210 7 191
3 213 211 212
3 212 57 213
3 211 53 212
3 213 56 211
3 195 214 212
3 212 53 195
3 214 57 212
3 195 16 214
3 215 200 211
3 211 56 215
3 200 53 211
3 215 15 200
3 217 216 213
3 213 57 217
3 216 56 213
3 217 9 216
3 220 218 219
3 219 60 220
3 218 59 219
3 220 58 218
3 222 221 219
3 219 59 222
3 221 60 219
3 222 19 221
3 224 223 218
3 218 58 224
3 223 59 218
3 224 18 223
3 226 225 220
3 220 60 226
3 225 58 220
3 226 17 225
3 229 227 228
3 228 62 229
3 227 59 228
3 229 61 227
3 223 230 228
3 228 59 223
3 230 62 228
3 223 18 230
3 231 222 227
3 227 61 231
3 222 59 227
3 231 19 222
3 233 232 229
3 229 62 233
3 232 61 229
3 233 5 232
3 236 234 235
3 235 64 236
3 234 58 235
3 236 63 234
3 225 237 235
3 235 58 225
3 237 64 235
3 225 17 237
3 238 224 234
3 234 63 238
3 224 58 234
3 238 18 224
3 240 239 236
3 236 64 240
3 239 63 236
3 240 6 239
3 243 241 242
3 242 66 243
3 241 60 242
3 243 65 241
3 221 244 242
3 242 60 221
3 244 66 242
3 221 19 244
3 245 226 241
3 241 65 245
3 226 60 241
3 245 17 226
3 247 246 243
3 243 66 247
3 246 65 243
3 247 11 246
3 250 248 249
3 249 69 250
3 248 68 249
3 250 67 248
3 252 251 249
3 249 68 252
3 251 69 249
3 252 18 251
3 254 253 248
3 248 67 254
3 253 68 248
3 254 21 253
3 256 255 250
3 250 69 256
3 255 67 250
3 256 20 255
3 259 257 258
3 258 70 259
3 257 68 258
3 259 62 257
3 253 260 258
3 258 68 253
3 260 70 258
3 253 21 260
3 230 252 257
3 257 62 230
3 252 68 257
3 230 18 252
3 261 233 259
3 259 70 261
3 233 62 259
3 261 5 233
3 264 262 263
3 263 72 264
3 262 67 263
3 264 71 262
3 255 265 263
3 263 67 255
3 265 72 263
3 255 20 265
3 266 254 262
3 262 71 266
3 254 67 262
3 266 21 254
3 268 267 264
3 264 72 268
3 267 71 264
3 268 10 267
3 271 269 270
3 270 63 271
3 269 69 270
3 271 73 269
3 251 238 270
3 270 69 251
3 238 63 270
3 251 18 238
3 272 256 269
3 269 73 272
3 256 69 269
3 272 20 256
3 239 273 271
3 271 63 239
3 273 73 271
3 239 6 273
3 276 274 275
3 275 76 276
3 274 75 275
3 276 74 274
3 278 277 275
3 275 75 278
3 277 76 275
3 278 24 277
3 280 279 274
3 274 74 280
3 279 75 274
3 280 23 279
3 282 281 276
3 276 76 282
3 281 74 276
3 282 22 281
3 285 283 284
3 284 78 285
3 283 75 284
3 285 77 283
3 279 286 284
3 284 75 279
3 286 78 284
3 279 23 286
3 287 278 283
3 283 77 287
3 278 75 283
3 287 24 278
3 289 288 285
3 285 78 289
3 288 77 285
3 289 0 288
3 292 290 291
3 291 80 292
3 290 74 291
3 292 79 290
3 281 293 291
3 291 74 281
3 293 80 291
3 281 22 293
3 294 280 290
3 290 79 294
3 280 74 290
3 294 23 280
3 296 295 292
3 292 80 296
3 295 79 292
3 296 4 295
3 299 297 298
3 298 82 299
3 297 76 298
3 299 81 297
3 277 300 298
3 298 76 277
3 300 82 298
3 277 24 300
3 301 282 297
3 297 81 301
3 282 76 297
3 301 22 282
3 303 302 299
3 299 82 303
3 302 81 299
3 303 3 302
3 306 304 305
3 305 85 306
3 304 84 305
3 306 83 304
3 308 307 305
3 305 84 308
3 307 85 305
3 308 26 307
3 310 309 304
3 304 83 310
3 309 84 304
3 310 24 309
3 312 311 306
3 306 85 312
3 311 83 306
3 312 25 311
3 315 313 314
3 314 77 315
3 313 84 314
3 315 86 313
3 309 287 314
3 314 84 309
3 287 77 314
3 309 24 287
3 316 308 313
3 313 86 316
3 308 84 313
3 316 26 308
3 288 317 315
3 315 77 288
3 317 86 315
3 288 0 317
3 320 318 319
3 319 87 320
3 318 83 319
3 320 82 318
3 311 321 319
3 319 83 311
3 321 87 319
3 311 25 321
3 300 310 318
3 318 82 300
3 310 83 318
3 300 24 310
3 322 303 320
3 320 87 322
3 303 82 320
3 322 3 303
3 325 323 324
3 324 89 325
3 323 85 324
3 325 88 323
3 307 326 324
3 324 85 307
3 326 89 324
3 307 26 326
3 327 312 323
3 323 88 327
3 312 85 323
3 327 25 312
3 329 328 325
3 325 89 329
3 328 88 325
3 329 5 328
3 332 330 331
3 331 92 332
3 330 91 331
3 332 90 330
3 334 333 331
3 331 91 334
3 333 92 331
3 334 29 333
3 336 335 330
3 330 90 336
3 335 91 330
3 336 28 335
3 338 337 332
3 332 92 338
3 337 90 332
3 338 27 337
3 341 339 340
3 340 94 341
3 339 91 340
3 341 93 339
3 335 342 340
3 340 91 335
3 342 94 340
3 335 28 342
3 343 334 339
3 339 93 343
3 334 91 339
3 343 29 334
3 345 344 341
3 341 94 345
3 344 93 341
3 345 2 344
3 348 346 347
3 347 96 348
3 346 90 347
3 348 95 346
3 337 349 347
3 347 90 337
3 349 96 347
3 337 27 349
3 350 336 346
3 346 95 350
3 336 90 346
3 350 28 336
3 352 351 348
3 348 96 352
3 351 95 348
3 352 7 351
3 355 353 354
3 354 98 355
3 353 92 354
3 355 97 353
3 333 356 354
3 354 92 333
3 356 98 354
3 333 29 356
3 357 338 353
3 353 97 357
3 338 92 353
3 357 27 338
3 359 358 355
3 355 98 359
3 358 97 355
3 359 1 358
3 362 360 361
3 361 101 362
3 360 100 361
3 362 99 360
3 364 363 361
3 361 100 364
3 363 101 361
3 364 31 363
3 366 365 360
3 360 99 366
3 365 100 360
3 366 29 365
3 368 367 362
3 362 101 368
3 367 99 362
3 368 30 367
3 371 369 370
3 370 93 371
3 369 100 370
3 371 102 369
3 365 343 370
3 370 100 365
3 343 93 370
3 365 29 343
3 372 364 369
3 369 102 372
3 364 100 369
3 372 31 364
3 344 373 371
3 371 93 344
3 373 102 371
3 344 2 373
3 376 374 375
3 375 103 376
3 374 99 375
3 376 98 374
3 367 377 375
3 375 99 367
3 377 103 375
3 367 30 377
3 356 366 374
3 374 98 356
3 366 99 374
3 356 29 366
3 378 359 376
3 376 103 378
3 359 98 376
3 378 1 359
3 381 379 380
3 380 105 381
3 379 101 380
3 381 104 379
3 363 382 380
3 380 101 363
3 382 105 380
3 363 31 382
3 383 368 379
3 379 104 383
3 368 101 379
3 383 30 368
3 385 384 381
3 381 105 385
3 384 104 381
3 385 6 384
3 388 386 387
3 387 108 388
3 386 107 387
3 388 106 386
3 390 389 387
3 387 107 390
3 389 108 387
3 390 34 389
3 392 391 386
3 386 106 392
3 391 107 386
3 392 33 391
3 394 393 388
3 388 108 394
3 393 106 388
3 394 32 393
3 397 395 396
3 396 110 397
3 395 107 396
3 397 109 395
3 391 398 396
3 396 107 391
3 398 110 396
3 391 33 398
3 399 390 395
3 395 109 399
3 390 107 395
3 399 34 390
3 401 400 397
3 397 110 401
3 400 109 397
3 401 8 400
3 404 402 403
3 403 112 404
3 402 106 403
3 404 111 402
3 393 405 403
3 403 106 393
3 405 112 403
3 393 32 405
3 406 392 402
3 402 111 406
3 392 106 402
3 406 33 392
3 408 407 404
3 404 112 408
3 407 111 404
3 408 0 407
3 411 409 410
3 410 114 411
3 409 108 410
3 411 113 409
3 389 412 410
3 410 108 389
3 412 114 410
3 389 34 412
3 413 394 409
3 409 113 413
3 394 108 409
3 413 32 394
3 415 414 411
3 411 114 415
3 414 113 411
3 415 11 414
3 418 416 417
3 417 117 418
3 416 116 417
3 418 115 416
3 420 419 417
3 417 116 420
3 419 117 417
3 420 36 419
3 422 421 416
3 416 115 422
3 421 116 416
3 422 34 421
3 424 423 418
3 418 117 424
3 423 115 418
3 424 35 423
3 427 425 426
3 426 109 427
3 425 116 426
3 427 118 425
3 421 399 426
3 426 116 421
3 399 109 426
3 421 34 399
3 428 420 425
3 425 118 428
3 420 116 425
3 428 36 420
3 400 429 427
3 427 109 400
3 429 118 427
3 400 8 429
3 432 430 431
3 431 119 432
3 430 115 431
3 432 114 430
3 423 433 431
3 431 115 423
3 433 119 431
3 423 35 433
3 412 422 430
3 430 114 412
3 422 115 430
3 412 34 422
3 434 415 432
3 432 119 434
3 415 114 432
3 434 11 415
3 437 435 436
3 436 121 437
3 435 117 436
3 437 120 435
3 419 438 436
3 436 117 419
3 438 121 436
3 419 36 438
3 439 424 435
3 435 120 439
3 424 117 435
3 439 35 424
3 441 440 437
3 437 121 441
3 440 120 437
3 441 1 440
3 444 442 443
3 443 124 444
3 442 123 443
3 444 122 442
3 446 445 443
3 443 123 446
3 445 124 443
3 446 39 445
3 448 447 442
3 442 122 448
3 447 123 442
3 448 38 447
3 450 449 444
3 444 124 450
3 449 122 444
3 450 37 449
3 453 451 452
3 452 126 453
3 451 123 452
3 453 125 451
3 447 454 452
3 452 123 447
3 454 126 452
3 447 38 454
3 455 446 451
3 451 125 455
3 446 123 451
3 455 39 446
3 457 456 453
3 453 126 457
3 456 125 453
3 457 9 456
3 460 458 459
3 459 128 460
3 458 122 459
3 460 127 458
3 449 461 459
3 459 122 449
3 461 128 459
3 449 37 461
3 462 448 458
3 458 127 462
3 448 122 458
3 462 38 448
3 464 463 460
3 460 128 464
3 463 127 460
3 464 10 463
3 467 465 466
3 466 130 467
3 465 124 466
3 467 129 465
3 445 468 466
3 466 124 445
3 468 130 466
3 445 39 468
3 469 450 465
3 465 129 469
3 450 124 465
3 469 37 450
3 471 470 467
3 467 130 471
3 470 129 467
3 471 3 470
3 474 472 473
3 473 133 474
3 472 132 473
3 474 131 472
3 476 475 473
3 473 132 476
3 475 133 473
3 476 38 475
3 478 477 472
3 472 131 478
3 477 132 472
3 478 41 477
3 480 479 474
3 474 133 480
3 479 131 474
3 480 40 479
3 483 481 482
3 482 134 483
3 481 132 482
3 483 126 481
3 477 484 482
3 482 132 477
3 484 134 482
3 477 41 484
3 454 476 481
3 481 126 454
3 476 132 481
3 454 38 476
3 485 457 483
3 483 134 485
3 457 126 483
3 485 9 457
3 488 486 487
3 487 136 488
3 486 131 487
3 488 135 486
3 479 489 487
3 487 131 479
3 489 136 487
3 479 40 489
3 490 478 486
3 486 135 490
3 478 131 486
3 490 41 478
3 492 491 488
3 488 136 492
3 491 135 488
3 492 2 491
3 495 493 494
3 494 127 495
3 493 133 494
3 495 137 493
3 475 462 494
3 494 133 475
3 462 127 494
3 475 38 462
3 496 480 493
3 493 137 496
3 480 133 493
3 496 40 480
3 463 497 495
3 495 127 463
3 497 137 495
3 463 10 497
3 500 498 499
3 499 140 500
3 498 139 499
3 500 138 498
3 502 501 499
3 499 139 502
3 501 140 499
3 502 33 501
3 504 503 498
3 498 138 504
3 503 139 498
3 504 13 503
3 506 505 500
3 500 140 506
3 505 138 500
3 506 23 505
3 509 507 508
3 508 47 509
3 507 139 508
3 509 110 507
3 503 182 508
3 508 139 503
3 182 47 508
3 503 13 182
3 398 502 507
3 507 110 398
3 502 139 507
3 398 33 502
3 183 401 509
3 509 47 183
3 401 110 509
3 183 8 401
3 512 510 511
3 511 79 512
3 510 138 511
3 512 46 510
3 505 294 511
3 511 138 505
3 294 79 511
3 505 23 294
3 174 504 510
3 510 46 174
3 504 138 510
3 174 13 504
3 295 177 512
3 512 79 295
3 177 46 512
3 295 4 177
3 515 513 514
3 514 111 515
3 513 140 514
3 515 78 513
3 501 406 514
3 514 140 501
3 406 111 514
3 501 33 406
3 286 506 513
3 513 78 286
3 506 140 513
3 286 23 506
3 407 289 515
3 515 111 407
3 289 78 515
3 407 0 289
3 518 516 517
3 517 143 518
3 516 142 517
3 518 141 516
3 520 519 517
3 517 142 520
3 519 143 517
3 520 19 519
3 522 521 516
3 516 141 522
3 521 142 516
3 522 32 521
3 524 523 518
3 518 143 524
3 523 141 518
3 524 26 523
3 527 525 526
3 526 113 527
3 525 142 526
3 527 66 525
3 521 413 526
3 526 142 521
3 413 113 526
3 521 32 413
3 244 520 525
3 525 66 244
3 520 142 525
3 244 19 520
3 414 247 527
3 527 113 414
3 247 66 527
3 414 11 247
3 530 528 529
3 529 86 530
3 528 141 529
3 530 112 528
3 523 316 529
3 529 141 523
3 316 86 529
3 523 26 316
3 405 522 528
3 528 112 405
3 522 141 528
3 405 32 522
3 317 408 530
3 530 86 317
3 408 112 530
3 317 0 408
3 533 531 532
3 532 61 533
3 531 143 532
3 533 89 531
3 519 231 532
3 532 143 519
3 231 61 532
3 519 19 231
3 326 524 531
3 531 89 326
3 524 143 531
3 326 26 524
3 232 329 533
3 533 61 232
3 329 89 533
3 232 5 329
3 536 534 535
3 535 146 536
3 534 145 535
3 536 144 534
3 538 537 535
3 535 145 538
3 537 146 535
3 538 22 537
3 540 539 534
3 534 144 540
3 539 145 534
3 540 16 539
3 542 541 536
3 536 146 542
3 541 144 536
3 542 39 541
3 545 543 544
3 544 54 545
3 543 145 544
3 545 80 543
3 539 204 544
3 544 145 539
3 204 54 544
3 539 16 204
3 293 538 543
3 543 80 293
3 538 145 543
3 293 22 538
3 205 296 545
3 545 54 205
3 296 80 545
3 205 4 296
3 548 546 547
3 547 125 548
3 546 144 547
3 548 57 546
3 541 455 547
3 547 144 541
3 455 125 547
3 541 39 455
3 214 540 546
3 546 57 214
3 540 144 546
3 214 16 540
3 456 217 548
3 548 125 456
3 217 57 548
3 456 9 217
3 551 549 550
3 550 81 551
3 549 146 550
3 551 130 549
3 537 301 550
3 550 146 537
3 301 81 550
3 537 22 301
3 468 542 549
3 549 130 468
3 542 146 549
3 468 39 542
3 302 471 551
3 551 81 302
3 471 130 551
3 302 3 471
3 554 552 553
3 553 149 554
3 552 148 553
3 554 147 552
3 556 555 553
3 553 148 556
3 555 149 553
3 556 21 555
3 558 557 552
3 552 147 558
3 557 148 552
3 558 25 557
3 560 559 554
3 554 149 560
3 559 147 554
3 560 37 559
3 563 561 562
3 562 88 563
3 561 148 562
3 563 70 561
3 557 327 562
3 562 148 557
3 327 88 562
3 557 25 327
3 260 556 561
3 561 70 260
3 556 148 561
3 260 21 556
3 328 261 563
3 563 88 328
3 261 70 563
3 328 5 261
3 566 564 565
3 565 129 566
3 564 147 565
3 566 87 564
3 559 469 565
3 565 147 559
3 469 129 565
3 559 37 469
3 321 558 564
3 564 87 321
3 558 147 564
3 321 25 558
3 470 322 566
3 566 129 470
3 322 87 566
3 470 3 322
3 569 567 568
3 568 71 569
3 567 149 568
3 569 128 567
3 555 266 568
3 568 149 555
3 266 71 568
3 555 21 266
3 461 560 567
3 567 128 461
3 560 149 567
3 461 37 560
3 267 464 569
3 569 71 267
3 464 128 569
3 267 10 464
3 572 570 571
3 571 152 572
3 570 151 571
3 572 150 570
3 574 573 571
3 571 151 574
3 573 152 571
3 574 27 573
3 576 575 570
3 570 150 576
3 575 151 570
3 576 12 575
3 578 577 572
3 572 152 578
3 577 150 572
3 578 36 577
3 581 579 580
3 580 49 581
3 579 151 580
3 581 96 579
3 575 189 580
3 580 151 575
3 189 49 580
3 575 12 189
3 349 574 579
3 579 96 349
3 574 151 579
3 349 27 574
3 190 352 581
3 581 49 190
3 352 96 581
3 190 7 352
3 584 582 583
3 583 118 584
3 582 150 583
3 584 48 582
3 577 428 583
3 583 150 577
3 428 118 583
3 577 36 428
3 181 576 582
3 582 48 181
3 576 150 582
3 181 12 576
3 429 184 584
3 584 118 429
3 184 48 584
3 429 8 184
3 587 585 586
3 586 97 587
3 585 152 586
3 587 121 585
3 573 357 586
3 586 152 573
3 357 97 586
3 573 27 357
3 438 578 585
3 585 121 438
3 578 152 585
3 438 36 578
3 358 441 587
3 587 97 358
3 441 121 587
3 358 1 441
3 590 588 589
3 589 155 590
3 588 154 589
3 590 153 588
3 592 591 589
3 589 154 592
3 591 155 589
3 592 17 591
3 594 593 588
3 588 153 594
3 593 154 588
3 594 30 593
3 596 595 590
3 590 155 596
3 595 153 590
3 596 35 595
3 599 597 598
3 598 104 599
3 597 154 598
3 599 64 597
3 593 383 598
3 598 154 593
3 383 104 598
3 593 30 383
3 237 592 597
3 597 64 237
3 592 154 597
3 237 17 592
3 384 240 599
3 599 104 384
3 240 64 599
3 384 6 240
3 602 600 601
3 601 120 602
3 600 153 601
3 602 103 600
3 595 439 601
3 601 153 595
3 439 120 601
3 595 35 439
3 377 594 600
3 600 103 377
3 594 153 600
3 377 30 594
3 440 378 602
3 602 120 440
3 378 103 602
3 440 1 378
3 605 603 604
3 604 65 605
3 603 155 604
3 605 119 603
3 591 245 604
3 604 155 591
3 245 65 604
3 591 17 245
3 433 596 603
3 603 119 433
3 596 155 603
3 433 35 596
3 246 434 605
3 605 65 246
3 434 119 605
3 246 11 434
3 608 606 607
3 607 158 608
3 606 157 607
3 608 156 606
3 610 609 607
3 607 157 610
3 609 158 607
3 610 15 609
3 612 611 606
3 606 156 612
3 611 157 606
3 612 28 611
3 614 613 608
3 608 158 614
3 613 156 608
3 614 41 613
3 617 615 616
3 616 95 617
3 615 157 616
3 617 55 615
3 611 350 616
3 616 157 611
3 350 95 616
3 611 28 350
3 209 610 615
3 615 55 209
3 610 157 615
3 209 15 610
3 351 210 617
3 617 95 351
3 210 55 617
3 351 7 210
3 620 618 619
3 619 135 620
3 618 156 619
3 620 94 618
3 613 490 619
3 619 156 613
3 490 135 619
3 613 41 490
3 342 612 618
3 618 94 342
3 612 156 618
3 342 28 612
3 491 345 620
3 620 135 491
3 345 94 620
3 491 2 345
3 623 621 622
3 622 56 623
3 621 158 622
3 623 134 621
3 609 215 622
3 622 158 609
3 215 56 622
3 609 15 215
3 484 614 621
3 621 134 484
3 614 158 621
3 484 41 614
3 216 485 623
3 623 56 216
3 485 134 623
3 216 9 485
3 626 624 625
3 625 161 626
3 624 160 625
3 626 159 624
3 628 627 625
3 625 160 628
3 627 161 625
3 628 31 627
3 630 629 624
3 624 159 630
3 629 160 624
3 630 20 629
3 632 631 626
3 626 161 632
3 631 159 626
3 632 40 631
3 635 633 634
3 634 73 635
3 633 160 634
3 635 105 633
3 629 272 634
3 634 160 629
3 272 73 634
3 629 20 272
3 382 628 633
3 633 105 382
3 628 160 633
3 382 31 628
3 273 385 635
3 635 73 273
3 385 105 635
3 273 6 385
3 638 636 637
3 637 137 638
3 636 159 637
3 638 72 636
3 631 496 637
3 637 159 631
3 496 137 637
3 631 40 496
3 265 630 636
3 636 72 265
3 630 159 636
3 265 20 630
3 497 268 638
3 638 137 497
3 268 72 638
3 497 10 268
3 641 639 640
3 640 102 641
3 639 161 640
3 641 136 639
3 627 372 640
3 640 161 627
3 372 102 640
3 627 31 372
3 489 632 639
3 639 136 489
3 632 161 639
3 489 40 632
3 373 492 641
3 641 102 373
3 492 136 641
3 373 2 492
