# vtk DataFile Version 3.0
this file was written using fslvtkio
ASCII
DATASET POLYDATA
POINTS 1068 float
71.8651 142.51 160.001
70.8727 142.292 161.401
71.6274 141.223 160.878
72.4563 140.953 159.963
73.1918 142.608 159.508
73.5997 141.174 159.721
74.387 142.638 159.412
74.7835 141.172 159.931
75.5334 142.347 159.61
75.932 141.126 160.328
71.411 143.572 160.97
70.256 142.83 162.412
72.5945 144.103 159.98
73.9465 144.208 159.403
75.543 143.842 159.326
76.6392 142.812 159.935
70.8762 144.253 162.005
69.8735 143.929 163.225
72.0767 145.123 161.006
73.535 145.506 160.383
75.0403 145.329 160.092
76.4352 144.38 160.242
71.2856 145.395 162.368
72.945 146.144 161.618
74.6171 146.284 161.33
75.8541 145.725 161.163
76.2157 136.248 157.668
75.2312 135.176 158.695
76.1442 134.509 157.796
77.3191 134.847 157.34
77.6464 136.154 158.082
78.4377 134.966 158.198
74.9593 136.762 158.459
73.9143 137.216 159.446
74.4851 135.833 159.803
76.0612 137.685 158.408
77.1484 137.206 158.895
78.5588 136.295 159.098
74.0083 138.748 158.788
73.3115 138.118 160.293
75.2608 138.581 158.763
76.7435 138.782 159.48
78.2537 137.835 159.83
72.0802 139.977 160.922
71.0364 140.761 161.881
71.8925 139.61 162.361
72.644 138.859 161.557
73.043 139.441 160.097
74.1805 140.055 159.614
75.4748 139.757 159.721
76.5927 139.986 160.522
77.8344 139.022 160.439
70.3242 141.335 162.848
77.1774 141.445 160.701
69.6041 142.101 163.702
77.4666 143.22 160.683
69.2781 142.957 164.509
76.8951 144.885 161.447
70.4528 145.151 163.687
69.5745 144.276 164.836
71.6935 146.063 163.172
73.2804 146.386 162.827
74.6568 146.407 162.841
75.8856 146.068 162.728
70.5761 145.685 164.623
72.0937 146.1 164.307
73.4211 146.117 164.025
79.9597 130.276 156.752
78.5687 130.188 157.586
79.4336 128.763 157.972
80.6157 128.324 157.234
81.4097 130.167 157.69
81.8831 128.558 157.661
82.3871 129.846 158.407
82.6331 128.281 158.795
78.3639 131.623 156.908
76.7523 132.234 157.906
77.6763 131.135 158.429
79.5831 132.199 157.279
80.7895 131.895 157.845
81.989 131.505 158.692
82.5384 129.924 159.497
76.9805 133.207 157.334
75.9184 133.633 158.749
78.4521 133.404 157.446
80.018 133.599 158.296
81.3374 133.209 159.006
82.4239 132.147 159.764
75.4745 134.546 160.09
79.5128 134.905 158.894
80.8049 134.777 159.699
82.1937 134.066 160.061
73.7215 136.487 160.95
74.7546 135.255 161.236
79.3519 136.607 159.931
80.4253 136.226 160.294
81.7948 135.593 160.911
73.3784 137.648 161.637
72.8239 138.096 162.861
73.4478 136.866 162.701
79.3925 138.376 160.643
80.4981 137.773 161.086
81.4943 136.872 161.182
70.9822 139.964 163.341
72.0308 138.797 163.61
77.9579 140.03 161.156
79.1009 139.923 161.558
80.216 139.043 161.669
70.2384 140.538 164.224
78.2586 141.828 161.333
78.8534 141.429 162.172
79.8093 140.342 162.347
69.6929 141.234 165.183
78.0229 143.777 161.711
78.7861 142.938 162.367
69.1277 143.065 165.696
77.164 145.184 162.617
77.9334 144.258 162.955
69.268 144.473 166.356
75.7343 145.522 164.525
74.542 145.934 164.078
76.8681 145.227 163.916
70.0359 145.437 165.848
71.5243 145.754 165.78
72.949 145.726 165.401
78.7184 129.903 159.29
79.3201 127.893 159.177
80.2408 126.903 158.315
81.731 127.041 158.099
82.303 127.698 159.855
76.5189 132.164 159.422
77.628 131.134 159.818
82.2368 129.334 160.527
75.982 133.158 160.341
82.6295 131.204 160.656
82.8356 132.798 160.93
82.8388 131.835 162.075
75.4291 133.821 161.557
82.856 134.324 161.289
83.203 133.334 162.352
73.9444 135.691 162.444
74.5329 134.79 162.56
82.8896 135.113 162.019
83.103 134.484 163.131
72.653 137.256 164.064
73.2727 136.007 163.926
81.7496 137.991 162.065
82.382 136.731 162.206
82.9712 135.804 162.685
71.2702 139.119 164.748
71.9744 137.875 164.832
81.446 138.671 162.659
82.2567 138.102 163.501
70.4615 139.524 165.483
79.6662 141.574 163.129
80.6346 140.168 163.007
81.3665 139.352 163.317
69.3137 141.476 166.197
78.9334 142.971 163.474
79.9996 141.61 164.193
68.9268 142.981 166.938
78.9061 142.904 164.364
77.7542 144.2 164.104
69.0743 144.094 167.689
74.3344 145.65 165.193
75.4502 145.182 165.515
76.847 144.748 165.406
69.8211 145.221 167.544
71.0545 145.5 167.164
72.4816 145.386 166.803
73.8789 145.311 166.292
78.9728 128.831 160.077
79.1441 127.484 160.531
79.9676 126.295 159.789
81.5502 126.302 159.635
81.6014 127.994 161.31
77.0394 131.65 161.031
77.9814 130.53 160.941
78.5295 129.398 161.231
82.0116 129.338 161.801
82.5073 130.506 161.556
82.3033 130.684 162.913
76.1266 132.423 161.618
76.6264 131.63 162.611
82.7876 131.856 163.546
75.3768 133.545 162.946
82.8471 133.109 164.061
73.7321 134.89 164.159
74.4825 134.242 163.433
82.9048 134.178 164.673
72.8332 136.291 165.379
73.1867 135.374 164.845
82.8027 136.821 163.585
82.8768 135.476 164.339
71.2953 137.897 166.091
72.1446 137.087 165.859
82.4608 137.457 164.491
82.4004 136.605 165.101
70.3097 139.123 166.375
69.6893 139.242 167.599
70.6653 138.302 167.101
80.8097 140.367 164.201
81.6818 138.941 164.56
81.9593 137.968 165.359
69.4753 140.441 166.614
69.0622 140.247 168.064
80.5427 141.109 165.029
80.8373 140.275 165.387
68.7541 141.73 167.514
68.657 141.264 168.85
78.1012 143.793 165.094
79.233 142.359 165.273
79.7591 141.514 165.906
68.7914 142.945 168.363
68.7757 142.411 169.485
76.8134 144.284 166.857
75.2949 144.704 166.425
77.8227 143.79 166.043
69.3364 144.318 168.922
70.3458 144.89 168.971
71.1681 145.027 168.318
72.4084 144.993 167.877
73.8344 144.865 167.399
80.3675 125.616 160.863
79.1321 126.59 161.615
79.4052 125.376 162.694
80.8665 125.638 162.311
81.5366 126.493 161.204
81.113 127.025 162.907
78.742 127.939 161.802
81.1557 128.262 163.34
77.6189 130.773 162.679
78.2139 129.158 162.628
81.8219 129.319 163.13
82.2271 130.396 164.231
75.6463 132.557 163.54
76.3245 131.387 164.261
82.7197 131.584 165.067
74.3206 133.958 164.445
74.4649 133.551 165.738
75.0353 133.056 164.63
82.6711 132.944 165.674
73.3195 134.934 165.887
72.7946 134.558 167.239
73.7423 133.808 166.957
82.5428 134.457 165.926
72.3695 136.068 166.754
71.5385 136.176 168.081
72.1812 134.921 168.216
82.2646 135.587 166.11
71.2261 137.181 167.175
70.2977 137.983 168.273
70.5573 136.663 168.653
81.966 136.827 166.466
69.2431 138.661 168.95
81.3007 138.003 166.713
81.1055 139.088 165.877
68.6609 139.658 169.593
80.4003 140.442 166.466
68.4743 140.802 170.222
79.3246 141.387 167.125
78.8173 142.618 166.408
68.7565 141.809 170.779
76.5506 143.771 167.89
75.1339 144.272 167.479
77.702 143.267 167.111
69.1426 143.41 170.081
69.9856 144.282 170.157
71.3086 144.545 169.701
72.4808 144.59 169.032
73.8088 144.315 168.486
78.666 126.547 163.174
77.9891 127.456 164.563
78.4248 125.745 164.307
79.506 124.787 163.861
80.5551 125.842 163.872
80.5878 126.847 164.827
78.3234 127.926 163.347
77.6826 129.374 164.027
80.8869 127.925 165.343
77.1287 130.437 164.372
81.6088 129.123 164.785
81.974 130.151 165.701
75.4033 132.271 165.276
74.7969 131.676 167.18
75.5025 131.15 166.119
76.2478 130.316 165.721
82.2615 131.402 166.489
74.5567 132.795 166.964
73.1812 132.768 168.179
73.8226 131.697 168.533
82.1509 132.962 166.992
72.4581 133.211 168.777
81.9855 134.359 167.313
71.2274 135.484 169.199
71.7684 134.053 169.385
81.7921 135.653 167.609
69.8711 137.36 169.613
70.2538 135.965 169.928
81.3311 136.832 167.683
69.229 138.001 170.399
80.5896 138.04 167.748
80.562 139.218 167.02
68.6001 139.049 171.044
79.8748 140.218 167.649
68.5784 140.192 171.594
78.8801 141.052 168.198
78.4258 142.299 167.568
68.8787 141.225 172.058
75.148 143.881 168.35
76.0426 143.413 168.709
77.1651 142.853 168.34
69.3229 142.714 171.289
70.1572 143.547 171.219
71.3582 143.738 170.827
72.5431 143.793 170.123
73.6967 143.77 169.634
74.7794 143.631 169.234
78.8221 124.204 164.578
77.982 125.7 165.438
78.1663 123.719 165.307
79.7236 123.043 165.597
80.1363 124.382 164.821
79.8774 124.214 166.206
80.1721 125.522 165.268
80.0082 125.422 166.641
77.582 127.662 165.559
80.4995 126.467 166.852
77.2022 128.971 165.555
80.8962 127.448 167.207
76.8317 129.721 165.781
76.0631 129.084 167.11
76.7146 128.87 166.459
81.3832 128.84 166.447
81.8388 129.982 167.261
74.4484 130.379 168.145
75.4657 130 167.092
81.8788 131.408 167.85
72.8338 131.519 170.035
73.4577 130.597 169.465
81.7778 132.976 168.32
71.8066 132.48 170.06
81.5194 134.456 168.66
70.9097 134.483 170.265
71.3368 133.469 170.135
80.9763 135.799 168.892
69.4106 136.424 170.98
69.9545 135.182 170.86
80.7421 137.123 168.608
68.8489 137.302 171.776
80.2523 137.904 168.896
79.9069 139.072 168.338
68.5233 138.541 172.385
79.3627 139.922 168.813
68.7513 139.64 172.895
78.3517 140.571 169.174
77.8469 141.831 168.511
69.2869 140.689 173.055
76.8484 142.031 169.399
75.9714 142.879 169.399
69.5914 142.054 172.273
70.4751 142.827 172.093
71.5758 143.063 171.755
72.6461 143.075 171.201
73.7387 143.049 170.647
74.7509 143.073 170.028
78.802 122.33 165.779
77.6467 123.762 166.213
78.2229 121.559 166.545
79.6345 121.411 166.687
79.9336 122.579 166.786
79.638 122.135 168.193
77.5061 125.391 166.364
79.6587 123.84 167.519
80.0215 124.963 168.328
77.145 126.7 166.777
76.3054 126.088 167.962
76.8951 125.577 167.197
80.4436 125.924 168.848
76.5732 127.944 166.978
75.7436 127.563 168.23
80.6646 127.174 168.801
75.2024 129.038 168.301
74.5203 128.117 169.446
75.1123 127.752 168.8
81.3883 128.579 167.985
81.4978 130.011 168.737
74.0066 129.556 169.422
72.4148 129.882 170.77
73.3534 128.745 170.431
81.4794 131.562 169.143
71.6177 131.02 171.097
81.2673 133.159 169.55
71.0361 132.809 170.781
70.0943 132.665 171.832
70.7634 131.746 171.59
80.8416 134.566 169.893
70.2138 133.922 171.3
69.4669 135.046 171.951
69.4971 133.401 172.45
80.5458 135.704 169.865
80.2616 135.242 170.865
80.0149 136.601 170.329
68.8476 135.893 172.471
80.4532 136.916 169.505
79.6075 137.979 169.789
68.628 137.043 173.141
79.0855 138.749 169.751
68.7737 138.192 173.734
78.6301 139.598 169.894
69.3333 139.255 173.953
78.0393 140.223 169.787
77.4837 141.132 169.517
69.6704 140.463 173.668
69.9403 141.495 173.2
70.586 141.008 173.991
76.7564 141.487 170.032
75.8147 142.263 170.145
70.7789 142.127 172.938
71.9088 142.363 172.593
72.7838 142.423 172.057
73.8471 142.267 171.634
74.732 142.373 170.811
77.2991 122.77 167.054
76.7048 122.562 168.154
77.2454 121.323 167.733
78.288 120.151 166.894
79.8582 120.543 167.437
79.4149 121.23 169.472
76.8498 124.412 167.561
76.191 123.477 168.863
79.5961 123.33 169.036
79.992 124.538 169.945
75.9843 125.009 168.889
74.9876 124.983 170.01
75.6849 124.13 169.481
80.3124 125.766 170.59
75.1941 126.541 169.234
74.1112 126.186 170.422
80.5644 127.289 169.976
81.0457 128.569 169.114
80.8457 128.919 170.175
73.8153 127.482 170.352
72.2963 128.271 171.569
72.9663 126.814 171.17
81.1244 130.328 170.063
71.3789 129.418 172.005
81.105 131.878 170.328
70.8676 130.381 172.141
80.6887 133.101 170.668
69.5729 131.508 172.743
70.2737 130.8 172.455
80.329 134.01 171.29
69.0615 134.337 173.268
69.0688 132.518 173.375
79.5654 135.147 171.744
79.4723 136.605 171.002
68.596 135.46 173.862
78.8524 137.475 171.043
68.5936 136.704 174.553
78.4167 138.487 170.988
69.2826 137.86 174.923
77.8414 139.802 170.395
77.8805 138.918 171.132
77.3936 139.362 171.237
69.8425 138.799 174.792
69.9427 140.029 174.417
70.5466 139.68 174.939
76.9892 140.733 170.41
76.6618 139.628 171.537
76.221 140.508 171.24
71.3209 140.368 174.495
74.9982 141.608 171.507
74.9331 140.943 172.216
74.2111 141.425 172.299
75.9887 141.479 170.813
75.4804 140.673 171.868
71.3891 141.409 173.717
72.2818 141.637 173.307
73.2393 141.737 172.696
79.2214 118.917 167.295
77.6246 119.2 167.839
77.8361 118.058 168.061
79.3027 118.079 168.43
79.6459 119.744 168.678
79.2752 119.306 170.011
76.1223 121.287 169.072
76.7448 120.105 168.306
79.1837 120.842 170.875
75.4527 123.178 169.737
74.9054 122.222 170.636
75.5658 121.696 169.863
79.5644 122.783 170.325
79.8565 124.215 171.338
74.2608 123.981 170.744
72.7781 124.301 171.728
73.6418 122.814 171.455
79.9982 125.693 172.081
73.2525 125.261 171.14
71.9227 126.481 172.064
80.2736 127.324 171.068
80.4443 128.915 171.372
71.1682 127.69 172.515
80.5405 130.422 171.141
70.4385 128.481 173.016
69.74 127.705 174.253
70.3006 127.18 173.571
80.3984 131.531 171.493
69.9859 129.644 173.2
69.3304 129.075 174.363
80.1191 132.494 172.014
69.1871 130.735 173.684
68.7699 132.654 174.292
68.8358 130.502 174.567
79.6896 133.708 172.243
68.7137 133.94 174.645
79.088 134.613 172.606
78.8232 135.947 172.121
68.8164 135.106 175.188
78.2602 136.878 172.204
69.1012 136.34 175.713
77.8411 137.971 171.798
77.6297 136.791 172.929
77.1707 137.63 172.765
69.9033 137.304 175.779
75.4687 139.093 173.281
75.2754 138.014 174.647
74.8657 139.024 173.884
76.3349 138.642 172.989
75.91 138.094 174.018
77.0227 138.696 172.141
76.518 137.545 173.639
70.4711 138.199 175.563
71.2264 139.085 175.348
74.9 140.197 172.767
74.2334 139.575 173.543
75.8294 139.561 172.328
71.8758 139.647 174.793
72.2275 140.637 174.095
73.0923 140.797 173.583
72.6271 139.645 174.382
73.8861 140.629 173.028
73.4383 139.67 173.943
76.3634 116.875 169.372
75.3582 117.326 170.233
75.812 115.541 170.265
77.2957 115.518 169.571
77.5902 117.037 168.612
78.7552 116.099 169.264
79.3323 117.429 169.207
79.0536 117.354 170.436
76.3933 118.706 168.989
75.3175 118.695 170.331
78.7453 118.942 171.257
75.6368 120.188 169.807
74.2047 120.249 171.246
74.2077 119.081 171.361
78.9255 120.478 172.159
74.3309 121.432 171.14
72.7344 122.105 172.259
73.2896 120.746 171.974
79.4863 122.417 171.625
79.5709 123.901 172.652
72.0222 124.159 172.444
79.7454 125.197 173.102
71.3869 125.262 172.891
70.187 124.898 174.135
70.9535 123.864 173.399
80.0614 127.089 172.184
79.633 126.551 173.429
70.7908 126.303 173.249
69.6187 126.102 174.597
80.0862 128.244 172.559
80.0894 129.715 172.392
68.8503 127.121 175.32
79.7651 130.747 172.774
68.7663 129.111 175.131
68.5053 130.866 175.322
68.2991 128.476 175.935
79.3343 132.277 172.825
68.6298 132.237 175.54
79.1296 133.391 172.968
78.858 132.396 173.584
78.5585 133.985 173.447
68.854 133.409 175.923
78.2585 135.183 173.12
69.1962 134.656 176.36
77.9641 135.87 173.251
69.5865 135.551 176.647
70.0589 136.712 176.42
70.7201 136.021 176.916
77.0914 136.774 173.617
77.0677 135.664 174.207
76.5757 136.446 174.427
77.5451 135.449 173.862
70.495 137.347 176.194
71.1875 137.012 176.555
75.0245 136.966 175.535
74.5555 138.263 175.003
75.8545 136.969 174.883
72.1769 138.655 175.412
71.4457 137.927 176.037
73.1055 138.721 175.102
72.6816 137.721 175.97
73.9515 138.825 174.703
73.592 137.782 175.658
73.508 116.18 172.386
72.0917 115.839 173.294
72.8434 114.658 172.717
74.2078 114.824 171.541
74.6253 116.364 171.202
75.7445 114.304 170.57
77.5986 114.377 170.311
78.7853 115.479 170.484
78.6625 116.851 171.587
72.9614 117.625 172.714
71.8515 117.667 173.533
74.0543 117.854 171.713
78.5224 118.348 172.448
72.7776 119.299 172.577
71.5952 119.242 173.54
78.5755 119.546 173.32
72.1354 120.808 172.956
70.9742 121.819 173.887
71.0766 120.28 173.967
79.1927 122.039 172.691
78.8145 121.123 173.683
71.6751 122.746 173.049
70.0052 123.206 174.22
79.2111 123.005 173.561
79.2879 124.523 173.963
69.1114 124.454 174.984
79.1897 125.821 174.468
68.6493 125.638 175.814
79.6748 128.124 173.484
79.121 127.384 174.482
68.245 126.829 176.597
79.347 129.163 173.755
78.8355 128.605 174.925
68.274 130.372 176.307
68.2054 128.583 177.001
78.7833 130.136 174.364
78.4413 129.585 175.293
78.2125 130.769 175.031
79.1974 130.783 173.63
68.6305 131.624 176.822
78.3828 131.953 174.295
77.6767 131.593 175.154
69.0806 132.836 177.052
77.9206 133.334 174.228
77.3565 132.825 175.248
69.7929 133.592 177.142
77.3289 134.098 174.565
77.0507 133.495 175.249
76.5709 134.019 175.257
77.8353 134.694 173.765
70.0563 134.627 177.298
71.9648 136.016 176.88
70.9509 135.14 177.362
72.2045 135.099 177.32
76.6066 135.246 174.757
75.8806 134.612 175.508
75.8441 135.787 175.287
72.2134 136.901 176.429
73.042 135.697 176.794
73.2871 136.609 176.329
74.2132 137.017 175.852
74.0818 135.781 176.36
74.9908 135.86 175.859
74.7255 112.011 171.452
73.0166 112.042 172.47
73.1679 110.968 172.194
74.9245 110.611 171.519
76.4599 112.021 171.113
76.4034 111.025 171.672
77.5452 112.491 171.777
77.1729 111.836 172.58
73.3327 113.331 172.298
71.5793 113.994 173.67
72.0391 112.645 173.526
74.8398 113.494 171.347
76.2648 113.234 170.788
77.7899 113.644 171.442
77.6182 113.531 172.87
71.1296 115.752 174.171
78.3734 115.085 171.799
78.0872 116.535 172.832
71.0275 117.903 174.411
78.0921 117.953 173.728
70.7671 119.246 174.418
69.9465 120.399 174.955
69.9538 118.807 175.021
78.3218 119.674 174.578
69.7506 121.9 175.019
78.3443 121.275 174.936
69.0804 123.014 175.499
78.9307 122.798 174.515
78.6775 124.211 175.023
68.4278 124.002 176.337
78.5196 125.528 175.354
68.3623 125.143 177.165
78.466 126.933 175.55
68.3441 126.432 177.84
78.3552 128.185 175.617
68.533 129.907 177.604
68.4656 128.004 178.008
78.0453 128.701 175.895
77.7621 129.794 176.015
69.2182 131.254 177.854
69.134 129.724 178.564
77.0499 131.419 175.835
69.9551 132.45 177.749
70.2011 131.271 178.568
76.7303 132.841 175.808
76.4599 131.473 176.333
76.0918 132.393 176.536
70.5114 133.454 177.599
70.8948 132.481 178.258
75.0427 133.674 176.641
74.6413 132.62 177.195
74.1365 133.563 177.087
75.907 133.571 176.168
75.4772 132.402 176.962
71.205 134.138 177.643
73.3605 134.71 177.162
72.2452 134.233 177.589
74.278 134.646 176.647
73.2481 133.651 177.433
75.2157 134.734 176.09
72.0709 97.1748 169.398
70.8837 97.854 169.932
70.751 96.1034 169.252
72.103 95.7902 169.485
72.7254 96.8488 170.373
72.1424 96.0442 170.867
72.0549 98.5812 169.972
71.3934 99.4708 170.431
73.0131 98.1742 170.513
72.8423 97.3896 171.712
72.721 99.922 170.537
73.352 99.119 171.4
71.4882 110.177 173.96
70.0881 110.88 175.504
70.2487 109.566 175.19
72.0249 109.105 173.282
72.9713 110.021 172.42
74.0787 108.726 172.145
75.1852 109.576 171.87
76.2414 108.769 172.684
71.4142 111.402 174.165
70.6083 112.59 174.853
76.7457 110.311 172.454
77.0734 111.91 173.584
70.393 114.301 174.687
77.0395 113.417 174.334
70.1541 115.735 174.999
69.2139 116.632 175.777
69.4111 114.884 175.604
77.7575 114.996 173.279
77.66 116.409 174.3
70.1505 117.24 175.023
69.1278 118.732 175.755
77.789 118.027 174.935
68.8686 120.434 175.979
77.6893 119.494 175.759
68.5125 121.646 176.403
77.2343 120.305 176.419
68.2034 122.663 177.14
78.25 122.478 175.399
77.4283 121.518 176.155
68.353 123.791 178.068
77.9898 123.459 176.014
77.2019 122.983 176.785
68.6089 125.065 178.721
77.7682 124.881 176.267
77.1216 125.306 176.836
68.923 126.692 178.916
77.9251 127.073 176.171
77.1462 126.805 176.87
69.3506 128.314 178.982
77.4016 128.554 176.542
76.5334 127.321 177.35
76.3883 128.4 177.493
70.0496 129.774 179.124
75.4999 129.971 177.761
74.6472 129.196 178.508
74.3591 130.18 178.244
76.4487 129.591 177.204
75.4897 128.633 178.233
76.9022 130.297 176.455
71.048 130.89 179.007
71.7601 131.991 178.604
73.108 131.805 178.425
72.2288 130.976 178.98
74.3017 131.249 177.992
73.3738 130.629 178.708
74.8929 131.521 177.315
75.8632 131.034 176.985
71.7244 133.168 177.888
72.6374 132.843 177.74
73.8096 132.44 177.598
69.2868 95.6065 170.182
68.7493 96.4757 171.053
68.1895 94.9526 171.403
69.0464 94.0015 170.478
70.2408 94.9058 169.376
70.3042 94.0398 170.731
69.9351 97.0781 170.339
69.2633 97.9256 171.299
71.4701 94.7471 170.219
71.538 95.4587 171.651
70.4315 99.1075 170.928
69.5299 99.0629 171.956
72.002 96.7907 172.384
70.6471 100.765 171.728
69.6694 100.621 172.863
71.8487 100.997 171.009
73.4341 100.961 171.232
73.202 99.155 172.456
70.7421 102.246 172.536
69.6008 101.801 173.608
71.9751 102.568 171.748
73.3644 102.567 171.386
74.1092 100.66 172.422
74.4407 102.32 171.999
74.2894 101.808 173.155
70.6235 103.368 173.315
69.3649 102.928 174.423
71.7725 104.166 172.329
73.1322 104.242 171.755
74.5206 103.911 171.941
74.7283 103.301 173.273
70.425 104.481 173.912
71.3577 105.518 173.005
70.2954 105.785 174.393
72.9281 105.859 172.238
74.4269 105.492 172.333
74.9198 104.747 173.385
70.8621 107.005 174.005
69.6956 106.891 175.475
72.1186 107.079 172.936
74.3501 106.726 172.184
75.2908 106.045 173.782
69.6189 107.979 175.618
70.6913 108.428 174.307
69.1746 109.029 176.71
72.8462 107.926 172.604
75.5157 106.98 173.823
75.2546 107.714 172.33
75.6388 107.979 174.075
69.0736 110.089 177.056
75.9312 109.176 174.36
69.6725 111.709 176.26
69.0847 112.816 176.671
68.9202 111.084 177.787
76.7384 110.269 173.836
76.4832 111.574 174.862
69.7536 113.257 175.756
68.6489 114.814 176.539
76.2007 112.577 175.702
68.5464 117.004 176.632
77.2292 114.815 174.712
76.4677 113.942 175.993
68.3839 118.724 176.842
77.1515 115.869 175.531
77.2114 117.422 175.91
68.069 120.081 177.326
76.9022 118.556 176.754
68.1152 121.176 178.018
76.6132 119.692 177.238
76.0937 118.37 177.561
75.7337 119.54 178.092
68.2412 122.417 178.831
76.3711 120.911 177.439
75.5419 121.196 178.395
68.7325 123.74 179.675
76.483 122.125 177.469
75.6242 122.743 178.449
69.201 125.316 179.85
76.0142 123.853 178.034
75.0099 123.575 178.956
74.9909 124.768 178.914
76.6681 124.025 177.359
69.8497 126.855 179.523
75.4882 125.56 178.216
74.8481 126.083 178.733
76.318 125.583 177.649
70.3413 128.259 179.384
75.8081 127.168 178.042
74.9627 127.4 178.638
70.9804 129.15 179.409
71.4048 130.067 179.361
72.6754 129.848 179.18
72.2474 128.952 179.569
73.7204 129.595 178.847
73.3777 128.598 179.228
74.2965 127.997 178.994
68.1376 96.6076 172.205
67.985 94.7185 172.597
68.8725 93.5254 171.936
69.7968 93.6757 172.593
68.3485 97.7438 172.82
70.7885 94.4645 171.942
70.9116 95.4243 172.973
68.6448 99.1344 173.156
72.1127 97.5586 173.192
68.6731 100.052 174.142
72.5747 99.0436 173.792
68.781 101.201 174.948
73.4538 100.514 173.532
73.8765 102.291 174.233
68.8109 102.127 175.701
74.181 103.858 174.756
69.4988 104.227 174.799
68.7765 103.451 175.876
74.3979 105.249 175.082
69.357 105.244 175.499
69.1037 106.3 176.464
74.1836 106.298 175.966
68.9102 107.539 177.432
69.0677 108.004 178.802
74.4202 107.285 176.114
74.847 108.429 175.981
68.9001 109.362 178.939
74.9664 109.316 176.273
68.8018 112.946 177.647
68.9578 110.995 179.136
75.8634 110.285 175.469
75.4444 111.049 176.476
68.3768 115.088 177.559
75.4452 112.569 176.962
68.2455 116.855 177.74
75.4193 113.956 177.365
68.2652 118.353 178.14
76.5071 115.825 176.495
75.8765 115.278 177.362
68.1629 119.659 178.755
76.246 116.965 177.217
75.466 117.461 178.139
68.3681 120.844 179.606
74.9689 119.121 178.735
68.8291 122.065 180.059
74.7253 120.868 179.029
74.1925 119.656 179.593
73.8811 121.089 179.981
69.573 123.145 180.422
70.0423 124.473 180.477
71.5696 124.093 180.642
70.6734 123.059 180.859
72.8876 123.354 180.498
71.8672 122.5 180.935
73.9641 122.477 179.919
73.0274 121.764 180.713
74.8376 122.51 179.118
70.547 125.858 180.1
71.6131 125.335 180.217
72.8616 124.786 180.221
73.9694 123.955 179.737
70.9343 127.207 179.741
71.8155 126.591 180
72.8762 126.027 179.825
73.8818 125.385 179.444
71.3413 128.262 179.59
72.2046 127.833 179.625
73.1174 127.319 179.49
73.992 126.724 179.204
67.8817 95.8348 173.558
68.4245 94.0087 173.753
68.1503 96.8639 174.253
68.5577 95.2318 174.759
69.8478 94.5262 173.924
68.3531 98.2954 174.506
68.755 97.0443 175.441
69.7429 95.8544 175.257
70.6385 96.0394 174.21
71.5631 97.3489 174.081
68.5075 99.6353 175.568
72.0825 99.0621 174.905
68.8487 100.893 176.428
72.9923 100.812 174.758
73.2821 102.637 175.433
68.989 102.091 177.169
73.4839 104.404 176.084
68.9357 103.402 177.38
73.2845 105.618 176.972
68.8874 104.678 176.682
68.9912 105.206 177.846
72.9725 106.932 177.875
68.9689 106.353 178.09
70.423 107.721 180.188
69.5293 106.562 179.466
72.2753 107.807 179.013
71.4942 106.583 179.692
73.6303 108.06 177.354
69.9122 109.353 180.025
71.6943 109.049 179.794
73.1646 108.837 178.216
68.7981 113.228 178.605
69.3164 112.007 179.833
70.2571 110.435 180.6
71.9953 110.308 180.121
72.618 111.469 179.66
73.0649 109.928 178.823
74.2946 109.942 177.489
68.5664 115.072 178.772
73.6167 111.695 178.739
72.994 112.95 179.704
74.4036 111.353 177.794
68.4635 116.562 179.026
73.6862 113.783 178.903
73.0603 114.501 180.145
74.4981 112.894 178.134
68.4946 117.799 179.458
73.8534 115.517 179.277
72.9877 116.12 180.408
74.787 114.772 178.324
68.6658 119.127 179.895
73.7941 117.1 179.463
72.7035 117.609 180.523
74.9211 116.356 178.463
69.2227 119.69 180.515
69.5933 120.796 180.943
71.2387 120.009 181.258
70.2983 119.211 181.166
72.6825 118.959 180.91
71.6062 118.411 181.17
73.5863 118.557 180.119
74.4338 118.165 179.22
69.7917 122.145 180.948
70.9397 121.583 181.102
72.232 120.864 181.106
73.2249 120.002 180.498
68.9439 98.3726 176.177
70.0414 97.4594 176.285
70.8285 97.2539 175.206
69.3376 99.7838 177.17
70.5061 99.091 176.856
71.3686 98.7224 175.797
69.7036 101.211 178.043
70.8895 100.769 177.842
71.7254 100.62 176.782
72.2328 100.719 175.758
69.6869 102.615 178.731
71.0936 102.41 178.568
71.9199 102.478 177.547
72.6183 102.655 176.439
69.2977 103.932 178.599
70.7608 103.842 179.218
71.9609 104.123 178.419
72.7102 104.25 177.283
69.6833 105.167 179.332
71.1698 105.416 179.465
72.2952 105.76 178.337
69.2741 113.703 179.725
70.1765 112.408 180.606
71.3704 111.45 180.657
69.2007 115.032 180.059
70.2727 113.836 180.959
71.6935 112.727 180.68
69.2461 116.242 180.461
70.4715 115.056 181.287
71.9446 114.054 180.907
69.4257 117.557 180.606
70.5998 116.355 181.174
71.9861 115.498 181.06
69.5654 118.65 180.827
70.5827 117.791 181.195
71.8282 116.88 181.072
POLYGONS 2132  8528
3 0 1 2
3 0 3 4
3 2 3 0
3 4 5 6
3 3 5 4
3 6 7 8
3 5 7 6
3 7 9 8
3 10 1 0
3 11 1 10
3 4 12 0
3 12 10 0
3 6 13 4
3 13 12 4
3 8 14 6
3 14 13 6
3 15 8 9
3 14 8 15
3 16 11 10
3 17 11 16
3 12 18 10
3 18 16 10
3 13 19 12
3 19 18 12
3 14 20 13
3 20 19 13
3 21 14 15
3 20 14 21
3 16 22 17
3 18 22 16
3 23 22 18
3 19 23 18
3 24 23 19
3 20 24 19
3 25 24 20
3 21 25 20
3 26 27 28
3 26 29 30
3 28 29 26
3 29 31 30
3 32 33 34
3 27 32 34
3 27 26 32
3 26 35 32
3 30 36 26
3 36 35 26
3 37 30 31
3 36 30 37
3 38 33 32
3 39 33 38
3 35 40 32
3 40 38 32
3 36 41 35
3 41 40 35
3 42 36 37
3 41 36 42
3 43 44 45
3 43 46 47
3 45 46 43
3 39 47 46
3 39 38 47
3 38 48 47
3 40 49 38
3 49 48 38
3 50 41 51
3 50 49 41
3 49 40 41
3 42 51 41
3 2 44 43
3 2 1 44
3 1 52 44
3 3 2 43
3 47 3 43
3 5 3 47
3 48 5 47
3 7 5 48
3 49 7 48
3 49 9 7
3 49 50 9
3 50 53 9
3 1 11 52
3 52 11 54
3 9 53 15
3 53 55 15
3 11 17 54
3 54 17 56
3 15 55 21
3 55 57 21
3 58 17 22
3 58 59 17
3 59 56 17
3 22 23 60
3 58 22 60
3 23 24 61
3 60 23 61
3 62 61 24
3 62 24 63
3 63 24 25
3 57 25 21
3 63 25 57
3 58 64 59
3 60 64 58
3 65 64 60
3 61 65 60
3 66 65 61
3 62 66 61
3 67 68 69
3 67 70 71
3 69 70 67
3 71 72 73
3 70 72 71
3 72 74 73
3 75 76 77
3 68 75 77
3 68 67 75
3 67 78 75
3 71 79 67
3 79 78 67
3 73 80 71
3 80 79 71
3 81 73 74
3 80 73 81
3 82 76 75
3 83 76 82
3 78 84 75
3 84 82 75
3 79 85 78
3 85 84 78
3 80 86 79
3 86 85 79
3 87 80 81
3 86 80 87
3 28 83 82
3 28 27 83
3 27 88 83
3 29 28 82
3 84 29 82
3 31 29 84
3 31 84 89
3 89 84 85
3 86 90 85
3 90 89 85
3 91 86 87
3 90 86 91
3 34 92 93
3 33 92 34
3 88 27 34
3 93 88 34
3 89 94 37
3 31 89 37
3 90 95 89
3 95 94 89
3 96 90 91
3 95 90 96
3 97 98 99
3 97 99 92
3 97 92 39
3 39 92 33
3 94 100 42
3 37 94 42
3 101 95 102
3 101 100 95
3 100 94 95
3 96 102 95
3 45 103 104
3 44 103 45
3 98 97 46
3 98 46 104
3 104 46 45
3 39 46 97
3 51 105 50
3 51 42 100
3 51 100 105
3 105 100 106
3 107 100 101
3 106 100 107
3 44 52 103
3 103 52 108
3 105 109 53
3 50 105 53
3 110 106 111
3 110 109 106
3 109 105 106
3 107 111 106
3 52 54 108
3 108 54 112
3 109 113 55
3 53 109 55
3 114 109 110
3 113 109 114
3 54 56 112
3 112 56 115
3 113 116 57
3 55 113 57
3 117 113 114
3 116 113 117
3 56 59 115
3 115 59 118
3 63 119 120
3 62 63 120
3 116 63 57
3 116 121 63
3 121 119 63
3 117 121 116
3 59 122 118
3 64 122 59
3 65 123 64
3 64 123 122
3 66 124 65
3 65 124 123
3 120 66 62
3 124 66 120
3 69 125 126
3 68 125 69
3 70 69 127
3 69 126 127
3 72 70 128
3 70 127 128
3 128 74 72
3 129 74 128
3 77 130 131
3 76 130 77
3 125 68 77
3 131 125 77
3 74 129 81
3 129 132 81
3 76 83 130
3 130 83 133
3 134 135 87
3 134 87 132
3 132 87 81
3 134 136 135
3 83 88 133
3 133 88 137
3 135 138 91
3 87 135 91
3 139 135 136
3 138 135 139
3 93 140 141
3 92 140 93
3 137 88 93
3 141 137 93
3 138 142 96
3 91 138 96
3 143 138 139
3 142 138 143
3 99 144 145
3 98 144 99
3 140 92 99
3 145 140 99
3 102 146 101
3 102 147 146
3 96 147 102
3 96 148 147
3 96 142 148
3 143 148 142
3 104 149 150
3 103 149 104
3 144 98 104
3 150 144 104
3 146 151 107
3 101 146 107
3 152 146 147
3 151 146 152
3 103 108 149
3 149 108 153
3 111 154 110
3 111 155 154
3 107 155 111
3 107 156 155
3 107 151 156
3 152 156 151
3 108 112 153
3 153 112 157
3 154 158 114
3 110 154 114
3 159 154 155
3 158 154 159
3 112 115 157
3 157 115 160
3 158 161 162
3 158 162 114
3 114 162 117
3 159 161 158
3 115 118 160
3 160 118 163
3 119 164 120
3 165 164 119
3 165 119 166
3 166 119 121
3 162 121 117
3 166 121 162
3 118 167 163
3 122 167 118
3 123 168 122
3 122 168 167
3 124 169 123
3 123 169 168
3 164 124 120
3 164 170 124
3 170 169 124
3 165 170 164
3 126 125 171
3 172 126 171
3 172 173 126
3 173 127 126
3 128 127 174
3 127 173 174
3 174 129 128
3 175 129 174
3 131 130 176
3 131 176 177
3 125 131 177
3 125 177 178
3 125 178 171
3 172 171 178
3 179 180 132
3 179 132 175
3 175 132 129
3 179 181 180
3 176 182 183
3 176 130 182
3 130 133 182
3 177 176 183
3 132 180 134
3 180 136 134
3 180 181 136
3 181 184 136
3 133 137 182
3 182 137 185
3 136 184 139
3 184 186 139
3 141 187 188
3 140 187 141
3 185 137 141
3 188 185 141
3 139 186 143
3 186 189 143
3 145 190 191
3 144 190 145
3 187 140 145
3 191 187 145
3 148 192 147
3 148 193 192
3 148 143 193
3 143 189 193
3 150 194 195
3 149 194 150
3 190 144 150
3 195 190 150
3 192 196 152
3 147 192 152
3 197 192 193
3 196 192 197
3 198 199 200
3 198 200 194
3 198 194 153
3 153 194 149
3 156 201 155
3 156 202 201
3 152 202 156
3 152 203 202
3 152 196 203
3 197 203 196
3 204 199 198
3 205 199 204
3 153 157 204
3 198 153 204
3 201 206 159
3 155 201 159
3 207 201 202
3 206 201 207
3 208 205 204
3 209 205 208
3 157 160 208
3 204 157 208
3 161 210 162
3 161 211 210
3 159 211 161
3 159 212 211
3 159 206 212
3 207 212 206
3 213 209 208
3 214 209 213
3 160 163 213
3 208 160 213
3 166 215 216
3 165 166 216
3 210 166 162
3 210 217 166
3 217 215 166
3 211 217 210
3 213 218 214
3 163 218 213
3 163 167 218
3 167 219 218
3 168 220 167
3 167 220 219
3 169 221 168
3 168 221 220
3 170 222 169
3 169 222 221
3 216 170 165
3 222 170 216
3 223 224 225
3 223 226 227
3 225 226 223
3 226 228 227
3 173 224 223
3 173 172 224
3 172 229 224
3 174 173 223
3 227 174 223
3 227 175 174
3 227 228 175
3 228 230 175
3 178 231 232
3 177 231 178
3 229 172 178
3 232 229 178
3 175 230 233
3 179 175 233
3 233 181 179
3 234 181 233
3 183 235 236
3 182 235 183
3 231 177 183
3 236 231 183
3 181 234 184
3 234 237 184
3 238 239 240
3 238 240 235
3 238 235 185
3 185 235 182
3 184 237 186
3 237 241 186
3 242 243 244
3 239 242 244
3 238 242 239
3 238 187 242
3 238 188 187
3 185 188 238
3 186 241 189
3 241 245 189
3 246 247 248
3 243 246 248
3 242 246 243
3 242 190 246
3 242 191 190
3 187 191 242
3 189 245 193
3 245 249 193
3 250 251 252
3 247 250 252
3 246 250 247
3 246 194 250
3 246 195 194
3 190 195 246
3 193 249 197
3 249 253 197
3 200 251 250
3 200 199 251
3 199 254 251
3 194 200 250
3 203 255 256
3 202 203 256
3 253 203 197
3 255 203 253
3 199 205 254
3 254 205 257
3 202 256 207
3 256 258 207
3 205 209 257
3 257 209 259
3 212 260 261
3 211 212 261
3 258 212 207
3 260 212 258
3 209 214 259
3 259 214 262
3 215 263 264
3 216 215 264
3 217 265 215
3 215 265 263
3 261 217 211
3 265 217 261
3 214 266 262
3 218 266 214
3 219 267 218
3 218 267 266
3 220 268 219
3 219 268 267
3 221 269 220
3 220 269 268
3 222 270 221
3 221 270 269
3 264 222 216
3 270 222 264
3 271 272 273
3 271 225 224
3 271 273 225
3 273 274 225
3 226 225 275
3 225 274 275
3 275 228 226
3 276 228 275
3 277 272 271
3 278 272 277
3 224 229 277
3 271 224 277
3 228 276 230
3 276 279 230
3 232 278 277
3 232 231 278
3 231 280 278
3 229 232 277
3 230 279 281
3 233 230 281
3 281 234 233
3 282 234 281
3 283 284 285
3 283 236 235
3 283 285 236
3 285 286 236
3 280 231 236
3 286 280 236
3 234 282 237
3 282 287 237
3 288 289 290
3 284 288 290
3 283 288 284
3 283 239 288
3 283 240 239
3 235 240 283
3 237 287 241
3 287 291 241
3 244 289 288
3 244 243 289
3 243 292 289
3 239 244 288
3 241 291 245
3 291 293 245
3 248 294 295
3 247 294 248
3 292 243 248
3 295 292 248
3 245 293 249
3 293 296 249
3 252 297 298
3 251 297 252
3 294 247 252
3 298 294 252
3 249 296 253
3 296 299 253
3 251 254 297
3 297 254 300
3 255 301 302
3 256 255 302
3 299 255 253
3 301 255 299
3 254 257 300
3 300 257 303
3 256 302 258
3 302 304 258
3 257 259 303
3 303 259 305
3 260 306 307
3 261 260 307
3 304 260 258
3 306 260 304
3 259 262 305
3 305 262 308
3 263 309 264
3 310 309 263
3 310 263 311
3 311 263 265
3 307 265 261
3 311 265 307
3 262 312 308
3 266 312 262
3 267 313 266
3 266 313 312
3 268 314 267
3 267 314 313
3 269 315 268
3 268 315 314
3 270 316 269
3 269 316 315
3 309 270 264
3 309 317 270
3 317 316 270
3 310 317 309
3 318 319 320
3 318 321 322
3 320 321 318
3 322 323 324
3 321 323 322
3 323 325 324
3 273 319 318
3 273 272 319
3 272 326 319
3 274 273 318
3 322 274 318
3 275 274 322
3 324 275 322
3 324 276 275
3 324 325 276
3 325 327 276
3 272 278 326
3 326 278 328
3 276 327 279
3 327 329 279
3 330 331 332
3 330 332 328
3 330 328 280
3 280 328 278
3 279 329 333
3 281 279 333
3 333 282 281
3 334 282 333
3 285 335 336
3 284 335 285
3 331 330 286
3 331 286 336
3 336 286 285
3 280 286 330
3 282 334 287
3 334 337 287
3 290 338 339
3 289 338 290
3 335 284 290
3 339 335 290
3 287 337 291
3 337 340 291
3 289 292 338
3 338 292 341
3 291 340 293
3 340 342 293
3 295 343 344
3 294 343 295
3 341 292 295
3 344 341 295
3 293 342 296
3 342 345 296
3 298 346 347
3 297 346 298
3 343 294 298
3 347 343 298
3 296 345 299
3 345 348 299
3 297 300 346
3 346 300 349
3 301 350 351
3 302 301 351
3 348 301 299
3 350 301 348
3 300 303 349
3 349 303 352
3 302 351 304
3 351 353 304
3 303 305 352
3 352 305 354
3 306 355 356
3 307 306 356
3 353 306 304
3 355 306 353
3 305 308 354
3 354 308 357
3 311 358 359
3 310 311 359
3 356 311 307
3 358 311 356
3 308 360 357
3 312 360 308
3 313 361 312
3 312 361 360
3 314 362 313
3 313 362 361
3 315 363 314
3 314 363 362
3 316 364 315
3 315 364 363
3 317 365 316
3 316 365 364
3 359 317 310
3 365 317 359
3 366 367 368
3 366 369 370
3 368 369 366
3 369 371 370
3 320 367 366
3 320 319 367
3 319 372 367
3 321 320 366
3 370 321 366
3 370 371 373
3 370 373 321
3 321 373 323
3 373 325 323
3 374 325 373
3 375 376 377
3 375 377 372
3 375 372 326
3 326 372 319
3 325 374 327
3 374 378 327
3 379 376 375
3 380 376 379
3 326 328 379
3 375 326 379
3 327 378 329
3 378 381 329
3 382 383 384
3 380 382 384
3 379 382 380
3 379 331 382
3 379 332 331
3 328 332 379
3 329 381 385
3 333 329 385
3 385 334 333
3 386 334 385
3 387 388 389
3 383 387 389
3 382 387 383
3 382 335 387
3 382 336 335
3 331 336 382
3 334 386 337
3 386 390 337
3 339 388 387
3 339 338 388
3 338 391 388
3 335 339 387
3 337 390 340
3 390 392 340
3 393 394 395
3 393 395 391
3 393 391 341
3 341 391 338
3 340 392 342
3 392 396 342
3 397 398 399
3 394 397 399
3 393 397 394
3 393 343 397
3 393 344 343
3 341 344 393
3 400 401 402
3 400 396 401
3 400 345 396
3 345 342 396
3 347 398 397
3 347 346 398
3 346 403 398
3 343 347 397
3 404 400 402
3 405 404 402
3 345 404 348
3 400 404 345
3 346 349 403
3 403 349 406
3 350 404 405
3 350 405 351
3 351 405 407
3 348 404 350
3 349 352 406
3 406 352 408
3 351 407 353
3 407 409 353
3 352 354 408
3 408 354 410
3 355 411 412
3 356 355 412
3 409 355 353
3 411 355 409
3 413 357 414
3 413 410 357
3 410 354 357
3 413 414 415
3 358 416 417
3 359 358 417
3 412 358 356
3 416 358 412
3 357 360 414
3 414 418 415
3 414 360 418
3 360 361 418
3 362 419 361
3 361 419 418
3 363 420 362
3 362 420 419
3 364 421 363
3 363 421 420
3 365 422 364
3 364 422 421
3 417 365 359
3 422 365 417
3 423 424 425
3 423 368 367
3 423 425 368
3 425 426 368
3 369 368 427
3 368 426 427
3 427 371 369
3 428 371 427
3 429 424 423
3 430 424 429
3 367 372 429
3 423 367 429
3 371 428 431
3 373 371 431
3 431 374 373
3 432 374 431
3 433 434 435
3 430 433 435
3 429 433 430
3 429 376 433
3 429 377 376
3 372 377 429
3 374 432 378
3 432 436 378
3 437 434 433
3 438 434 437
3 376 380 437
3 433 376 437
3 439 440 381
3 439 381 436
3 436 381 378
3 439 441 440
3 442 443 444
3 438 442 444
3 437 442 438
3 437 383 442
3 437 384 383
3 380 384 437
3 381 440 385
3 440 386 385
3 440 441 386
3 441 445 386
3 389 443 442
3 389 388 443
3 388 446 443
3 383 389 442
3 386 445 390
3 445 447 390
3 388 391 446
3 446 391 448
3 390 447 392
3 447 449 392
3 395 450 451
3 394 450 395
3 448 391 395
3 451 448 395
3 392 449 396
3 449 452 396
3 399 453 454
3 398 453 399
3 450 394 399
3 454 450 399
3 401 455 456
3 402 401 456
3 452 401 396
3 455 401 452
3 398 403 453
3 453 403 457
3 402 456 405
3 456 458 405
3 403 406 457
3 457 406 459
3 405 458 407
3 458 460 407
3 406 408 459
3 459 408 461
3 462 463 464
3 462 460 463
3 462 409 460
3 409 407 460
3 465 410 466
3 465 461 410
3 461 408 410
3 465 466 467
3 468 469 470
3 464 469 468
3 462 464 468
3 462 468 412
3 462 412 411
3 409 462 411
3 410 413 466
3 466 413 415
3 466 415 467
3 467 415 471
3 472 473 474
3 472 475 476
3 473 472 476
3 470 476 475
3 468 470 475
3 468 475 417
3 468 417 416
3 412 468 416
3 415 477 471
3 418 477 415
3 419 478 418
3 418 478 477
3 420 479 419
3 419 479 478
3 474 421 472
3 474 479 421
3 479 420 421
3 422 472 421
3 475 472 422
3 417 475 422
3 480 481 482
3 480 483 484
3 482 483 480
3 483 485 484
3 425 486 487
3 424 486 425
3 481 480 426
3 481 426 487
3 487 426 425
3 427 426 480
3 484 427 480
3 484 428 427
3 484 485 428
3 485 488 428
3 489 490 491
3 489 491 486
3 489 486 430
3 430 486 424
3 428 488 492
3 431 428 492
3 492 432 431
3 493 432 492
3 494 495 496
3 490 494 496
3 489 494 490
3 489 434 494
3 489 435 434
3 430 435 489
3 432 493 436
3 493 497 436
3 498 495 494
3 499 495 498
3 434 438 498
3 494 434 498
3 436 497 500
3 439 436 500
3 500 441 439
3 501 441 500
3 444 499 498
3 444 443 499
3 443 502 499
3 438 444 498
3 441 501 445
3 501 503 445
3 504 505 506
3 504 506 502
3 504 502 446
3 446 502 443
3 445 503 447
3 503 507 447
3 508 505 504
3 509 505 508
3 446 448 508
3 504 446 508
3 447 507 449
3 507 510 449
3 511 512 513
3 509 511 513
3 508 511 509
3 508 450 511
3 508 451 450
3 448 451 508
3 449 510 452
3 510 514 452
3 454 512 511
3 454 453 512
3 453 515 512
3 450 454 511
3 455 516 517
3 456 455 517
3 514 455 452
3 516 455 514
3 453 457 515
3 515 457 518
3 456 517 458
3 517 519 458
3 457 459 518
3 518 459 520
3 521 522 523
3 521 519 522
3 521 460 519
3 460 458 519
3 459 461 520
3 520 461 524
3 525 526 527
3 525 528 529
3 526 525 529
3 528 530 531
3 529 528 531
3 523 531 530
3 521 523 530
3 521 530 464
3 521 464 463
3 460 521 463
3 461 532 524
3 465 532 461
3 532 465 467
3 533 532 467
3 534 525 527
3 535 534 527
3 528 525 536
3 536 525 534
3 469 536 470
3 469 530 536
3 530 528 536
3 464 530 469
3 537 471 538
3 537 533 471
3 533 467 471
3 538 539 540
3 537 538 540
3 539 541 542
3 540 539 542
3 535 542 541
3 534 535 541
3 534 541 474
3 534 474 473
3 476 534 473
3 536 534 476
3 470 536 476
3 471 477 538
3 478 538 477
3 539 538 478
3 479 539 478
3 541 539 479
3 474 541 479
3 543 544 545
3 543 546 547
3 545 546 543
3 547 548 549
3 546 548 547
3 548 550 549
3 551 544 543
3 552 544 551
3 482 481 551
3 482 551 547
3 547 551 543
3 483 482 547
3 549 483 547
3 549 485 483
3 549 550 485
3 550 553 485
3 554 555 556
3 552 554 556
3 551 554 552
3 551 486 554
3 551 487 486
3 481 487 551
3 485 553 488
3 553 557 488
3 558 559 560
3 555 558 560
3 554 558 555
3 554 490 558
3 554 491 490
3 486 491 554
3 488 557 561
3 492 488 561
3 561 493 492
3 562 493 561
3 496 559 558
3 496 495 559
3 495 563 559
3 490 496 558
3 493 562 497
3 562 564 497
3 565 566 567
3 565 567 563
3 565 563 499
3 499 563 495
3 568 500 497
3 568 497 569
3 569 497 564
3 500 568 501
3 570 566 565
3 571 566 570
3 499 502 570
3 565 499 570
3 568 569 572
3 572 501 568
3 572 573 501
3 573 503 501
3 506 571 570
3 506 505 571
3 505 574 571
3 502 506 570
3 503 573 507
3 573 575 507
3 576 577 578
3 576 578 574
3 576 574 509
3 509 574 505
3 507 575 510
3 575 579 510
3 513 577 576
3 513 512 577
3 512 580 577
3 509 513 576
3 581 582 583
3 581 579 582
3 581 514 579
3 514 510 579
3 512 515 580
3 580 515 584
3 516 581 583
3 516 583 517
3 517 583 585
3 514 581 516
3 515 518 584
3 584 518 586
3 517 585 519
3 585 587 519
3 588 520 589
3 588 586 520
3 586 518 520
3 588 589 590
3 591 592 593
3 591 523 522
3 591 522 592
3 592 522 594
3 587 522 519
3 594 522 587
3 589 524 595
3 520 524 589
3 596 590 589
3 595 596 589
3 526 597 598
3 527 526 598
3 529 599 526
3 526 599 597
3 593 531 591
3 593 599 531
3 599 529 531
3 523 591 531
3 524 532 595
3 533 600 601
3 532 533 601
3 532 601 596
3 532 596 595
3 600 602 603
3 601 600 603
3 602 604 605
3 603 602 605
3 604 598 605
3 604 535 598
3 535 527 598
3 533 537 600
3 540 600 537
3 602 600 540
3 542 602 540
3 604 602 542
3 535 604 542
3 606 607 608
3 606 609 610
3 608 609 606
3 610 545 544
3 610 609 545
3 609 611 545
3 546 545 612
3 545 611 612
3 548 546 613
3 546 612 613
3 613 550 548
3 614 550 613
3 615 607 606
3 616 607 615
3 610 617 606
3 617 615 606
3 544 552 617
3 610 544 617
3 550 614 553
3 614 618 553
3 619 616 615
3 620 616 619
3 556 555 619
3 556 619 617
3 617 619 615
3 552 556 617
3 553 618 557
3 618 621 557
3 622 623 624
3 620 622 624
3 619 622 620
3 619 559 622
3 619 560 559
3 555 560 619
3 625 561 557
3 625 557 626
3 626 557 621
3 561 625 562
3 627 623 622
3 628 623 627
3 559 563 627
3 622 559 627
3 625 626 629
3 629 562 625
3 629 630 562
3 630 564 562
3 567 628 627
3 567 566 628
3 566 631 628
3 563 567 627
3 564 630 569
3 630 632 569
3 566 571 631
3 631 571 633
3 634 572 569
3 634 569 635
3 635 569 632
3 572 634 573
3 571 574 633
3 633 574 636
3 637 634 635
3 638 637 635
3 573 637 575
3 634 637 573
3 578 639 640
3 577 639 578
3 636 574 578
3 640 636 578
3 641 642 643
3 638 642 641
3 638 641 637
3 637 641 644
3 575 644 579
3 637 644 575
3 577 580 639
3 639 580 645
3 646 641 643
3 647 646 643
3 582 646 583
3 582 644 646
3 644 641 646
3 579 644 582
3 580 584 645
3 645 584 648
3 649 646 647
3 650 649 647
3 583 649 585
3 646 649 583
3 584 586 648
3 648 586 651
3 652 653 654
3 650 653 652
3 650 652 649
3 649 652 655
3 585 655 587
3 649 655 585
3 586 656 651
3 588 656 586
3 590 657 658
3 590 658 588
3 588 658 656
3 658 657 659
3 660 661 662
3 654 661 660
3 652 654 660
3 652 660 593
3 652 593 592
3 594 652 592
3 655 652 594
3 587 655 594
3 657 596 663
3 590 596 657
3 664 659 657
3 664 657 665
3 665 657 663
3 665 666 667
3 664 665 667
3 666 598 597
3 666 597 667
3 667 597 668
3 662 599 660
3 662 668 599
3 668 597 599
3 593 660 599
3 596 601 663
3 603 663 601
3 665 663 603
3 605 665 603
3 666 665 605
3 598 666 605
3 669 670 671
3 669 672 673
3 671 672 669
3 673 674 675
3 672 674 673
3 674 676 675
3 677 678 679
3 670 677 679
3 670 669 677
3 669 680 677
3 673 681 669
3 681 680 669
3 675 682 673
3 682 681 673
3 683 675 676
3 682 675 683
3 608 678 677
3 608 607 678
3 607 684 678
3 609 608 677
3 680 609 677
3 611 609 680
3 681 611 680
3 612 611 681
3 682 612 681
3 682 683 685
3 682 685 612
3 612 685 613
3 685 614 613
3 686 614 685
3 607 616 684
3 684 616 687
3 614 686 618
3 686 688 618
3 689 690 691
3 689 691 687
3 689 687 620
3 620 687 616
3 618 688 621
3 688 692 621
3 624 690 689
3 624 623 690
3 623 693 690
3 620 624 689
3 621 692 626
3 692 694 626
3 623 628 693
3 693 628 695
3 626 694 696
3 629 626 696
3 696 630 629
3 697 630 696
3 628 631 695
3 695 631 698
3 630 697 632
3 697 699 632
3 631 633 698
3 698 633 700
3 632 699 635
3 699 701 635
3 633 636 700
3 700 636 702
3 635 701 638
3 701 703 638
3 640 639 704
3 640 704 705
3 640 705 636
3 636 705 702
3 642 706 707
3 643 642 707
3 703 642 638
3 706 642 703
3 704 645 708
3 639 645 704
3 709 705 704
3 708 709 704
3 643 707 647
3 707 710 647
3 708 648 711
3 645 648 708
3 712 709 708
3 711 712 708
3 713 714 715
3 713 710 714
3 713 650 710
3 650 647 710
3 711 651 716
3 648 651 711
3 717 712 711
3 716 717 711
3 718 719 720
3 718 721 722
3 719 718 722
3 715 722 721
3 713 715 721
3 713 721 654
3 713 654 653
3 650 713 653
3 651 656 716
3 716 723 717
3 716 656 723
3 656 658 723
3 659 724 725
3 659 725 658
3 658 725 723
3 724 726 727
3 725 724 727
3 720 727 726
3 720 726 718
3 718 726 728
3 661 728 662
3 661 721 728
3 721 718 728
3 654 721 661
3 659 664 724
3 667 724 664
3 726 724 667
3 668 726 667
3 728 726 668
3 662 728 668
3 729 730 731
3 729 732 733
3 731 732 729
3 732 734 733
3 735 730 729
3 736 730 735
3 733 737 729
3 737 735 729
3 738 733 734
3 737 733 738
3 735 739 736
3 737 739 735
3 740 739 737
3 738 740 737
3 741 742 743
3 741 744 745
3 743 744 741
3 745 746 747
3 744 746 745
3 746 748 747
3 749 742 741
3 750 742 749
3 671 670 749
3 671 749 745
3 745 749 741
3 672 671 745
3 747 672 745
3 747 748 751
3 747 751 672
3 672 751 674
3 751 676 674
3 752 676 751
3 679 750 749
3 679 678 750
3 678 753 750
3 670 679 749
3 676 752 683
3 752 754 683
3 755 756 757
3 755 757 753
3 755 753 684
3 684 753 678
3 683 754 758
3 685 683 758
3 758 686 685
3 759 686 758
3 760 756 755
3 761 756 760
3 684 687 760
3 755 684 760
3 686 759 688
3 759 762 688
3 691 761 760
3 691 690 761
3 690 763 761
3 687 691 760
3 688 762 692
3 762 764 692
3 690 693 763
3 763 693 765
3 692 764 694
3 764 766 694
3 693 695 765
3 765 695 767
3 768 696 694
3 768 694 769
3 769 694 766
3 696 768 697
3 695 698 767
3 767 698 770
3 771 768 769
3 772 771 769
3 697 771 699
3 768 771 697
3 698 700 770
3 770 700 773
3 774 771 772
3 775 774 772
3 699 774 701
3 771 774 699
3 700 702 773
3 773 702 776
3 777 774 775
3 778 777 775
3 701 777 703
3 774 777 701
3 702 705 776
3 776 705 779
3 780 781 782
3 778 781 780
3 777 778 780
3 777 780 707
3 777 707 706
3 703 777 706
3 705 709 779
3 779 709 783
3 784 785 786
3 784 787 788
3 785 784 788
3 782 788 787
3 782 787 780
3 780 787 789
3 707 789 710
3 780 789 707
3 790 712 791
3 790 783 712
3 783 709 712
3 791 792 793
3 790 791 793
3 792 794 795
3 793 792 795
3 786 795 794
3 786 794 784
3 784 794 796
3 787 784 797
3 797 784 796
3 714 797 715
3 714 789 797
3 789 787 797
3 710 789 714
3 791 717 798
3 712 717 791
3 792 791 799
3 799 791 798
3 794 792 800
3 800 792 799
3 719 800 720
3 719 796 800
3 796 794 800
3 722 796 719
3 797 796 722
3 715 797 722
3 717 723 798
3 725 798 723
3 799 798 725
3 727 799 725
3 800 799 727
3 720 800 727
3 801 802 803
3 801 804 805
3 803 804 801
3 804 806 805
3 807 802 801
3 808 802 807
3 731 730 807
3 731 807 805
3 805 807 801
3 805 806 809
3 805 809 731
3 731 809 732
3 809 734 732
3 810 734 809
3 811 808 807
3 812 808 811
3 730 736 811
3 807 730 811
3 734 810 738
3 810 813 738
3 814 812 811
3 815 812 814
3 736 739 816
3 736 816 811
3 811 816 814
3 739 740 817
3 816 739 817
3 740 818 817
3 740 738 818
3 738 813 818
3 819 815 814
3 820 815 819
3 816 821 814
3 821 819 814
3 817 822 816
3 822 821 816
3 823 817 818
3 823 824 817
3 824 822 817
3 823 825 824
3 826 820 819
3 827 820 826
3 821 828 819
3 828 826 819
3 822 829 821
3 829 828 821
3 824 830 822
3 830 829 822
3 831 824 825
3 830 824 831
3 826 832 827
3 832 833 834
3 832 826 833
3 826 828 833
3 829 835 828
3 835 833 828
3 830 836 829
3 836 835 829
3 837 830 831
3 836 830 837
3 838 834 833
3 839 834 838
3 835 840 833
3 840 838 833
3 836 841 835
3 841 840 835
3 842 836 837
3 841 836 842
3 838 843 839
3 843 844 845
3 843 838 844
3 838 840 844
3 841 846 840
3 846 844 840
3 847 841 842
3 847 848 841
3 848 846 841
3 847 849 848
3 743 845 844
3 743 742 845
3 742 850 845
3 744 743 844
3 846 744 844
3 746 744 846
3 848 746 846
3 848 748 746
3 848 849 748
3 849 851 748
3 852 853 854
3 852 854 850
3 852 850 750
3 750 850 742
3 748 851 855
3 751 748 855
3 855 752 751
3 856 752 855
3 857 853 852
3 858 853 857
3 750 753 857
3 852 750 857
3 752 856 754
3 856 859 754
3 757 858 857
3 757 756 858
3 756 860 858
3 753 757 857
3 861 758 754
3 861 754 862
3 862 754 859
3 758 861 759
3 756 761 860
3 860 761 863
3 861 862 864
3 864 759 861
3 864 865 759
3 865 762 759
3 761 763 863
3 863 763 866
3 762 865 764
3 865 867 764
3 763 765 866
3 866 765 868
3 869 870 871
3 869 867 870
3 869 766 867
3 766 764 867
3 765 767 868
3 868 767 872
3 873 869 871
3 874 873 871
3 766 873 769
3 869 873 766
3 767 770 872
3 872 770 875
3 876 873 874
3 877 876 874
3 769 876 772
3 873 876 769
3 770 773 875
3 875 773 878
3 879 880 881
3 877 880 879
3 877 879 876
3 876 879 882
3 772 882 775
3 876 882 772
3 773 776 878
3 878 776 883
3 884 879 881
3 885 884 881
3 882 879 886
3 886 879 884
3 775 886 778
3 882 886 775
3 776 779 883
3 883 779 887
3 888 884 885
3 889 888 885
3 781 888 782
3 781 886 888
3 886 884 888
3 778 886 781
3 890 783 891
3 890 887 783
3 887 779 783
3 891 892 893
3 890 891 893
3 892 894 895
3 893 892 895
3 894 786 785
3 894 785 895
3 895 785 896
3 889 788 888
3 889 896 788
3 896 785 788
3 782 888 788
3 783 790 891
3 793 891 790
3 892 891 793
3 795 892 793
3 894 892 795
3 786 894 795
3 803 897 898
3 802 897 803
3 804 803 899
3 803 898 899
3 899 806 804
3 900 806 899
3 802 808 897
3 897 808 901
3 806 900 902
3 809 806 902
3 902 810 809
3 903 810 902
3 808 812 901
3 901 812 904
3 810 903 813
3 903 905 813
3 812 815 904
3 904 815 906
3 813 905 818
3 905 907 818
3 815 820 906
3 906 820 908
3 818 907 909
3 823 818 909
3 909 825 823
3 910 825 909
3 820 827 908
3 908 827 911
3 825 910 831
3 910 912 831
3 913 827 832
3 913 914 827
3 914 911 827
3 832 834 913
3 831 912 837
3 912 915 837
3 913 916 914
3 916 913 834
3 916 834 917
3 917 834 839
3 837 915 842
3 915 918 842
3 839 919 917
3 843 919 839
3 919 843 845
3 920 919 845
3 842 918 921
3 847 842 921
3 921 849 847
3 922 849 921
3 845 850 920
3 920 850 923
3 849 922 851
3 922 924 851
3 854 925 926
3 853 925 854
3 923 850 854
3 926 923 854
3 851 924 927
3 855 851 927
3 927 856 855
3 928 856 927
3 853 858 925
3 925 858 929
3 856 928 859
3 928 930 859
3 858 860 929
3 929 860 931
3 859 930 862
3 930 932 862
3 860 863 931
3 931 863 933
3 934 864 862
3 934 862 935
3 935 862 932
3 864 934 865
3 863 866 933
3 933 866 936
3 937 934 935
3 938 937 935
3 865 937 867
3 934 937 865
3 866 868 936
3 936 868 939
3 870 937 938
3 870 938 871
3 871 938 940
3 867 937 870
3 868 872 939
3 939 872 941
3 942 943 944
3 942 940 943
3 942 874 940
3 874 871 940
3 945 875 946
3 945 941 875
3 941 872 875
3 946 947 948
3 945 946 948
3 947 949 950
3 948 947 950
3 949 951 952
3 950 949 952
3 944 952 951
3 944 951 942
3 942 951 953
3 874 953 877
3 942 953 874
3 946 878 954
3 875 878 946
3 947 946 955
3 955 946 954
3 949 947 956
3 956 947 955
3 951 949 957
3 957 949 956
3 880 957 881
3 880 953 957
3 953 951 957
3 877 953 880
3 954 883 958
3 878 883 954
3 955 954 959
3 959 954 958
3 956 955 960
3 960 955 959
3 957 956 961
3 961 956 960
3 881 961 885
3 957 961 881
3 958 887 962
3 883 887 958
3 959 958 963
3 963 958 962
3 960 959 964
3 964 959 963
3 961 960 965
3 965 960 964
3 885 965 889
3 961 965 885
3 887 890 962
3 893 962 890
3 963 962 893
3 895 963 893
3 964 963 895
3 896 964 895
3 965 964 896
3 889 965 896
3 898 897 966
3 898 967 899
3 966 967 898
3 899 967 900
3 966 901 968
3 897 901 966
3 967 966 969
3 969 966 968
3 900 970 902
3 900 967 970
3 967 969 970
3 902 970 903
3 968 971 972
3 968 901 971
3 901 904 971
3 969 968 972
3 973 969 972
3 970 969 973
3 974 970 973
3 974 903 970
3 974 975 903
3 975 905 903
3 904 906 971
3 971 906 976
3 905 975 907
3 975 977 907
3 906 908 976
3 976 908 978
3 907 977 979
3 909 907 979
3 979 910 909
3 980 910 979
3 908 911 978
3 978 911 981
3 910 980 912
3 980 982 912
3 911 914 981
3 981 914 983
3 912 982 915
3 982 984 915
3 914 985 983
3 916 985 914
3 985 916 917
3 986 985 917
3 915 984 918
3 984 987 918
3 917 988 986
3 919 988 917
3 920 989 990
3 920 990 919
3 919 990 988
3 989 991 992
3 990 989 992
3 921 991 993
3 921 987 991
3 921 918 987
3 992 991 987
3 921 993 922
3 989 923 994
3 920 923 989
3 991 989 995
3 995 989 994
3 993 991 996
3 996 991 995
3 922 996 924
3 993 996 922
3 926 997 998
3 925 997 926
3 994 923 926
3 994 926 999
3 999 926 998
3 995 994 999
3 1000 995 999
3 1000 1001 1002
3 1000 1002 995
3 995 1002 996
3 924 1003 927
3 924 996 1003
3 996 1002 1003
3 927 1003 928
3 925 929 997
3 997 929 1004
3 1005 1002 1001
3 1006 1005 1001
3 1003 1002 1007
3 1007 1002 1005
3 928 1007 930
3 1003 1007 928
3 929 931 1004
3 1004 931 1008
3 1009 1005 1006
3 1010 1009 1006
3 1007 1005 1011
3 1011 1005 1009
3 930 1011 932
3 1007 1011 930
3 931 933 1008
3 1008 933 1012
3 1013 1009 1010
3 1014 1013 1010
3 1011 1009 1015
3 1015 1009 1013
3 932 1015 935
3 1011 1015 932
3 933 936 1012
3 1012 936 1016
3 1017 1013 1014
3 1018 1017 1014
3 1015 1013 1019
3 1019 1013 1017
3 935 1019 938
3 1015 1019 935
3 1020 939 1021
3 1020 1016 939
3 1016 936 939
3 1021 1022 1023
3 1020 1021 1023
3 1022 1024 1025
3 1023 1022 1025
3 1018 1025 1024
3 1018 1024 1017
3 1017 1024 1026
3 1019 1017 1027
3 1027 1017 1026
3 938 1027 940
3 1019 1027 938
3 1021 941 1028
3 939 941 1021
3 1022 1021 1029
3 1029 1021 1028
3 1024 1022 1030
3 1030 1022 1029
3 1026 1024 1031
3 1031 1024 1030
3 943 1031 944
3 943 1027 1031
3 1027 1026 1031
3 940 1027 943
3 941 945 1028
3 948 1028 945
3 1029 1028 948
3 950 1029 948
3 1030 1029 950
3 952 1030 950
3 1031 1030 952
3 944 1031 952
3 972 971 1032
3 972 1033 973
3 1032 1033 972
3 973 1034 974
3 1033 1034 973
3 974 1034 975
3 1032 976 1035
3 971 976 1032
3 1033 1032 1036
3 1036 1032 1035
3 1034 1033 1037
3 1037 1033 1036
3 975 1037 977
3 1034 1037 975
3 1035 978 1038
3 976 978 1035
3 1036 1035 1039
3 1039 1035 1038
3 1037 1036 1040
3 1040 1036 1039
3 977 1041 979
3 977 1037 1041
3 1037 1040 1041
3 979 1041 980
3 1038 981 1042
3 978 981 1038
3 1039 1038 1043
3 1043 1038 1042
3 1040 1039 1044
3 1044 1039 1043
3 1041 1040 1045
3 1045 1040 1044
3 980 1045 982
3 1041 1045 980
3 1042 983 1046
3 981 983 1042
3 1043 1042 1047
3 1047 1042 1046
3 1044 1043 1048
3 1048 1043 1047
3 1045 1044 1049
3 1049 1044 1048
3 982 1049 984
3 1045 1049 982
3 983 985 1046
3 986 1046 985
3 986 1050 1046
3 1050 1047 1046
3 1048 1047 1051
3 1051 1047 1050
3 1049 1048 1052
3 1052 1048 1051
3 984 1052 987
3 1049 1052 984
3 986 988 1050
3 990 1050 988
3 1051 1050 990
3 992 1051 990
3 1052 1051 992
3 987 1052 992
3 998 997 1053
3 998 1054 999
3 1053 1054 998
3 999 1055 1000
3 1054 1055 999
3 1000 1055 1001
3 1053 1004 1056
3 997 1004 1053
3 1054 1053 1057
3 1057 1053 1056
3 1055 1054 1058
3 1058 1054 1057
3 1001 1058 1006
3 1055 1058 1001
3 1056 1008 1059
3 1004 1008 1056
3 1057 1056 1060
3 1060 1056 1059
3 1058 1057 1061
3 1061 1057 1060
3 1006 1061 1010
3 1058 1061 1006
3 1059 1012 1062
3 1008 1012 1059
3 1060 1059 1063
3 1063 1059 1062
3 1061 1060 1064
3 1064 1060 1063
3 1010 1064 1014
3 1061 1064 1010
3 1062 1016 1065
3 1012 1016 1062
3 1063 1062 1066
3 1066 1062 1065
3 1064 1063 1067
3 1067 1063 1066
3 1014 1067 1018
3 1064 1067 1014
3 1016 1020 1065
3 1023 1065 1020
3 1066 1065 1023
3 1025 1066 1023
3 1067 1066 1025
3 1018 1067 1025
