# vtk DataFile Version 3.0
this file was written using fslvtkio
ASCII
DATASET POLYDATA
POINTS 642 float
110.881 122.001 156.82
99.8874 122.19 156.194
104.947 114.921 154.626
114.639 111.248 154.038
110.229 116.055 161.167
111.242 117.782 151.205
103.533 118.822 150.208
104.465 116.992 160.887
104.556 125.875 161.893
109.767 108.712 157.351
109.422 110.249 150.143
104.671 126.156 154.252
103.626 121.198 162.856
107.661 121.319 162.788
107.487 115.563 163.214
107.307 112.54 159.799
111.048 110.773 160.613
103.572 122.626 152.123
107.532 118.199 150.501
108.24 122.363 152.737
106.64 114.456 149.933
111.535 113.168 149.806
112.906 112.687 157.863
110.698 119.454 159.39
113.6 116.67 155.386
114.159 114.096 151.388
111.73 120.697 153.4
101.53 120.568 159.695
104.713 115.747 157.801
101.513 118.508 155.14
99.9012 121.324 151.922
103.451 116.705 152.111
108.036 125.466 155.545
107.632 124.847 159.578
102.941 128.548 157.815
100.535 125.569 155.061
100.381 125.357 159.416
114.272 108.21 150.298
109.88 107.756 153.182
113.669 107.054 155.953
106.422 111.693 152.174
107.092 111.145 155.888
105.768 121.368 163.508
107.631 118.488 163.646
105.437 118.412 163.408
109.273 115.721 162.768
108.923 118.759 162.146
106.326 123.82 162.789
103.926 123.66 162.493
103.475 118.781 162.248
105.647 116.173 162.261
107.137 113.919 161.77
109.367 113.155 162.525
108.929 111.262 160.804
110.734 113.448 161.026
105.874 114.879 160.305
108.39 110.675 158.544
110.404 109.337 159.228
105.647 120.757 151.084
107.814 120.272 151.484
106.008 122.391 152.43
109.654 120.071 151.857
109.431 117.924 150.791
105.592 118.652 150.154
103.623 120.931 150.832
104.364 124.035 153.468
106.557 124.266 153.476
109.022 113.933 149.649
109.42 115.78 149.967
107.065 116.365 149.897
111.295 115.563 150.282
110.599 111.622 149.793
108.056 112.358 150.009
105.052 116.722 150.229
112.152 116.15 158.728
112.406 117.97 157.531
113.451 114.847 156.908
112.285 119.332 156.077
110.917 120.801 158.161
110.44 117.817 160.339
111.692 114.413 159.575
113.885 111.862 156.061
114.264 114.025 154.836
114.176 115.581 153.35
112.956 118.715 154.292
113.325 117.517 152.391
111.27 121.366 155.074
114.763 112.74 152.657
112.942 116.188 150.985
111.697 119.389 152.088
103.035 118.255 158.675
102.971 117.283 156.808
101.718 119.333 157.42
103.211 116.838 155.012
104.609 115.298 156.205
104.711 116.553 159.285
102.739 118.668 160.446
100.823 121.337 157.852
100.503 120.197 155.643
100.332 119.619 153.502
102.372 117.645 153.491
101.124 118.888 151.771
104.297 115.756 153.374
99.5026 121.602 154.028
101.607 120.284 150.737
103.189 117.566 150.956
107.636 125.637 157.596
105.516 127.344 159.103
105.292 127.355 156.703
103.692 127.705 160.343
106.327 125.694 161.125
109.536 123.619 158.311
109.756 123.878 156.21
106.58 126.174 154.596
103.479 128.04 155.356
101.27 128.191 155.805
101.174 127.719 159.057
99.2407 126.104 157.074
102.327 125.722 160.975
102.627 125.898 154.478
99.4635 123.841 155.568
99.6692 123.695 158.007
112.009 106.59 151.079
112.013 106.035 154.328
114.779 106.599 152.791
111.654 107.264 157.035
109.664 108.008 155.377
109.545 108.711 151.294
111.76 109.104 150.098
115.012 109.549 152.187
114.269 109.171 154.855
106.85 111.233 153.929
108.146 109.093 154.49
107.997 109.348 152.448
108.269 109.939 156.716
106.048 113.059 155.254
105.784 113.346 153.413
107.559 110.935 150.911
109.093 120.524 161.05
107.719 123.265 161.307
109.415 122.358 159.688
110.006 123.214 154.407
108.495 124.434 153.705
110.223 121.692 152.714
112.371 108.538 158.515
111.972 111.614 159.242
113.42 109.748 157.019
114.665 111.024 150.76
113.045 113.723 150.242
112.966 110.631 149.745
101.962 123.476 161.303
102.125 120.726 161.533
100.571 122.847 159.645
100.278 123.157 153.596
101.765 122.039 151.611
102.152 123.993 153.678
105.897 113.63 156.821
106.014 114.262 158.732
107.059 112.069 157.781
106.26 112.986 150.851
104.977 115.403 151.007
105.31 114.233 152.229
106.68 119.975 163.762
106.519 118.513 163.618
105.589 119.891 163.607
106.442 117.125 163.379
107.439 117.13 163.515
107.634 119.977 163.466
106.856 121.279 163.437
104.7 121.143 163.352
104.599 119.818 163.29
108.404 117.173 163.315
108.349 118.722 163.054
108.979 117.37 162.591
108.256 120.034 162.627
108.403 115.741 163.243
109.672 116.06 162.029
109.506 117.363 161.763
106.052 122.55 163.282
104.782 122.469 163.153
105.136 123.719 162.821
103.743 122.409 162.785
107.039 122.568 162.924
105.475 124.947 162.571
104.263 124.802 162.347
104.393 118.675 162.978
105.465 117.255 162.95
104.536 117.531 162.369
106.484 115.953 162.861
103.659 119.886 162.739
103.944 117.72 161.682
104.972 116.612 161.654
108.166 113.434 162.346
109.096 112.094 161.853
108.056 112.532 161.483
109.963 110.91 161.061
110.189 111.946 161.718
108.451 114.324 163.002
107.213 114.644 162.636
107.302 113.062 160.886
108.072 111.9 160.473
110.164 113.244 161.946
109.303 114.54 162.842
110.041 114.738 161.865
110.885 112.168 161.053
110.494 114.812 161.107
106.333 115.035 162.053
106.516 114.295 160.967
105.598 115.469 161.237
106.709 113.656 160.147
105.137 116.026 160.658
108.528 110.994 159.705
109.582 110.281 160.173
109.297 110.046 159.105
110.726 109.862 160.062
107.848 111.576 159.297
109.096 109.684 158.123
109.945 109.057 158.383
106.764 120.525 151.28
106.956 121.444 151.9
105.824 121.612 151.741
107.145 122.279 152.513
107.912 121.334 152.098
107.595 119.335 150.893
106.629 119.614 150.729
104.72 121.797 151.59
104.882 122.461 152.217
108.714 120.211 151.677
108.551 119.09 151.02
109.525 118.98 151.261
108.448 118.1 150.649
108.89 121.252 152.279
110.415 118.906 151.496
110.348 117.853 150.964
105.68 119.731 150.568
104.639 120.966 150.997
104.669 119.842 150.401
103.658 121.897 151.395
106.552 118.598 150.356
104.569 118.819 150.069
103.693 119.845 150.344
105.19 123.199 152.911
106.339 123.218 153.02
105.468 124.186 153.513
107.384 123.259 153.05
104.064 123.19 152.816
104.571 125.079 153.877
105.642 125.253 153.827
109.21 114.865 149.734
108.218 116.11 149.883
107.997 115.129 149.644
107.353 117.284 150.178
108.482 116.978 150.222
110.398 114.53 149.767
110.248 113.61 149.708
107.794 114.246 149.675
106.921 115.359 149.749
109.334 116.938 150.392
110.367 115.617 150.086
110.343 116.812 150.491
111.361 114.394 149.922
111.224 116.747 150.678
109.854 112.805 149.713
108.532 113.158 149.706
109.3 112.009 149.81
107.405 113.424 149.847
111.101 112.405 149.747
109.977 110.922 149.895
108.742 111.315 150.021
106.075 116.485 150.032
106.391 117.57 150.084
105.266 117.673 150.076
105.932 115.596 150.087
104.27 117.831 150.141
112.308 117.139 158.187
113.024 116.469 157.213
112.831 115.521 157.834
113.504 115.893 156.294
113.074 117.2 156.531
111.62 118.572 158.499
111.611 117.778 159.018
112.588 114.51 158.347
113.144 113.911 157.511
112.401 118.591 156.788
111.651 119.328 157.862
111.638 119.998 157.171
110.896 120.033 158.74
112.99 117.927 155.773
111.607 120.628 156.444
111.005 121.362 157.454
111.38 117.047 159.546
111.921 115.293 159.176
111.108 116.215 160.049
112.342 113.509 158.715
110.706 118.548 159.792
110.248 117.002 160.832
110.938 115.267 160.368
113.643 113.398 156.6
113.858 114.505 155.923
114.101 113.07 155.597
113.946 115.366 155.191
113.4 112.284 157.003
114.315 111.665 155.102
114.483 112.662 154.517
113.645 117.178 153.87
113.228 118.206 153.323
113.853 116.611 152.866
112.713 119.069 152.913
112.459 119.614 153.709
113.347 117.654 154.799
113.954 116.253 154.375
114.225 115.037 152.36
113.858 115.922 151.932
112.201 120.008 154.603
112.69 118.944 155.21
111.908 120.361 155.522
111.536 120.982 154.216
111.165 121.594 155.981
114.263 114.917 154.18
114.466 114.231 152.998
114.562 113.448 153.786
114.518 113.492 151.978
114.766 112.049 153.445
113.224 116.859 151.644
112.633 118.521 152.183
112.344 117.783 151.562
111.927 120.012 152.678
113.704 115.261 151.146
112.066 117.026 151.058
111.428 118.631 151.641
103.103 117.643 157.717
102.264 118.213 157.102
102.384 118.772 158.103
101.584 118.768 156.417
102.152 117.953 156.099
103.812 116.661 157.482
103.852 117.174 158.21
102.22 119.336 159.092
101.733 119.88 158.515
102.963 117.042 155.943
103.8 116.347 156.64
103.903 116.139 155.717
104.542 115.561 157.045
102.325 117.695 155.151
104.115 115.989 154.824
104.682 115.186 155.373
103.922 117.426 158.987
102.85 118.5 159.522
103.768 117.711 159.902
102.065 119.6 160.024
104.672 116.305 158.495
104.585 116.802 160.083
103.633 117.864 160.796
101.293 120.342 157.701
101.104 119.711 156.574
100.693 120.777 156.728
101.003 119.268 155.505
101.214 120.915 158.83
100.341 121.818 156.988
100.136 121.219 155.861
101.294 118.531 153.57
101.664 118.18 152.706
100.605 119.243 152.636
102.169 117.936 151.929
102.789 117.341 152.636
101.901 118.073 154.316
100.97 118.994 154.316
99.7648 120.341 152.629
100.242 119.999 151.728
103.321 116.831 153.372
102.795 117.246 154.323
103.823 116.361 154.119
103.849 116.219 152.734
104.682 115.371 154.058
100.512 119.756 154.672
99.793 120.494 153.723
99.9069 120.799 154.879
99.5048 121.419 152.937
99.6544 121.813 155.12
101.114 119.583 151.127
102.065 118.36 151.245
102.174 118.945 150.628
103.197 117.194 151.577
100.644 120.789 151.24
102.7 119.533 150.403
103.325 118.078 150.493
106.469 126.537 158.278
105.347 127.478 157.895
106.492 126.61 157.219
104.207 128.175 157.307
104.388 128.152 158.556
106.596 126.216 159.274
107.489 125.483 158.621
107.6 125.769 156.573
106.582 126.505 156.199
104.854 127.721 159.794
106.036 126.547 160.141
105.187 127.006 160.974
106.944 125.412 160.254
103.413 128.207 159.169
104.048 126.799 161.237
105.605 125.929 161.768
108.594 124.739 157.98
108.661 124.885 156.854
109.562 123.945 157.262
108.836 124.746 155.918
108.506 124.369 158.903
110.3 122.834 157.632
110.385 122.957 156.564
105.832 126.89 155.6
104.415 127.83 156.09
104.947 127.163 154.988
103.152 128.546 156.501
107.193 126.017 155.165
105.711 126.182 154.368
104.06 127.014 154.682
100.984 128.235 157.482
100.102 127.367 157.915
100.141 127.593 156.705
99.6646 126.047 158.224
100.481 126.685 159.123
102.041 128.337 158.52
101.98 128.638 156.687
100.669 126.981 155.623
99.684 126.29 156.023
101.546 126.829 160.021
102.41 127.827 159.752
102.85 126.859 160.817
101.249 125.703 160.152
103.438 125.765 161.575
102.456 128.396 155.465
101.752 127.175 155.116
103.049 127.047 154.75
101.492 125.981 154.876
103.678 125.97 154.294
99.1022 125.14 156.223
99.2505 124.943 157.677
99.3565 123.863 156.755
99.8033 124.706 158.722
99.8017 124.931 155.296
99.5692 122.898 155.865
99.8628 122.889 157.154
112.132 105.903 152.64
113.581 105.459 153.535
113.623 105.842 151.682
114.255 106.429 154.314
113.18 105.942 155.038
111.009 106.591 153.493
110.973 106.741 152.195
113.371 106.926 150.536
114.706 106.862 151.201
111.927 106.385 155.75
110.852 106.92 154.81
110.74 107.485 156.129
109.979 107.641 154.218
112.771 106.714 156.524
110.54 108.056 157.222
109.473 108.498 156.327
110.727 107.612 151.273
111.977 107.744 150.364
110.517 108.918 150.637
113.049 108.333 150.024
109.921 107.888 152.088
109.262 109.505 150.621
110.543 109.775 150.123
115.047 107.915 152.266
114.579 107.778 153.884
114.765 109.392 153.588
114.115 107.862 155.196
114.988 108.453 151.142
114.861 110.466 153.131
114.445 110.307 154.558
107.421 110.094 154.124
108.101 109.045 153.407
107.34 110.263 153.205
108.925 108.378 152.686
108.976 108.238 153.85
107.54 110.094 155.109
106.995 111.021 154.843
106.736 111.285 153.014
107.164 110.507 152.396
108.879 108.403 154.874
108.106 109.509 155.527
108.771 108.935 156.035
107.665 110.423 156.211
108.976 109.342 157.158
106.455 112.095 154.615
106.297 112.226 153.651
105.937 113.189 154.307
106.106 112.377 152.833
106.614 112.028 155.497
105.489 114.041 154.927
105.457 114.209 154.047
107.66 110.126 151.722
108.684 108.816 151.834
108.368 109.692 151.067
106.982 111.201 151.588
108.378 110.576 150.408
108.376 121.868 161.229
108.564 122.833 160.497
109.297 121.416 160.361
108.591 123.682 159.703
107.758 124.093 160.472
107.718 122.328 162.109
108.335 120.937 161.926
109.915 120.071 160.236
110.079 120.911 159.615
107.081 124.517 161.181
107.108 123.518 162.148
106.409 124.854 162.093
108.982 119.703 161.626
109.817 119.153 160.598
109.659 118.272 161.217
110.207 121.491 158.98
109.47 123.101 159.055
110.306 122.213 158.282
109.359 124.047 154.014
109.364 123.11 153.172
110.225 122.586 153.444
109.25 122.116 152.723
108.431 123.366 153.16
108.341 125.179 154.553
109.155 124.48 154.996
110.877 121.993 153.886
111.085 121.381 152.998
107.581 124.24 153.496
107.604 125.39 154.121
106.645 125.325 153.865
109.854 123.603 155.317
110.671 122.224 154.714
110.546 122.566 155.715
110.991 120.539 152.415
109.876 120.933 152.293
110.669 119.731 151.93
112.304 110.061 158.936
112.76 110.667 158.164
113.004 109.015 157.75
113.11 111.243 157.48
112.483 112.071 158.539
111.552 111.151 159.958
111.751 109.632 159.567
113.068 107.596 157.34
113.599 108.316 156.508
111.888 113.036 159.39
111.347 112.478 160.186
111.182 113.945 160.273
111.332 108.955 159.147
112.052 107.701 157.864
110.771 108.422 158.102
113.882 109.202 155.914
113.63 110.838 156.61
114.1 110.544 155.565
113.98 112.249 150.29
113.199 112.093 149.822
114.05 110.649 149.974
112.282 111.977 149.718
112.327 113.467 149.996
113.691 113.836 150.723
114.452 112.578 151.018
114.73 109.477 150.465
113.691 109.301 149.842
112.188 114.697 150.207
113.076 115.024 150.606
112.063 115.954 150.653
114.77 112.144 151.686
114.911 110.26 151.388
114.933 111.302 152.523
112.526 109.738 149.821
111.686 111.25 149.74
111.09 110.421 149.932
101.953 122.084 161.549
101.313 121.86 160.673
101.165 123.206 160.567
101.002 121.685 159.703
101.689 120.627 160.644
102.832 120.908 162.26
102.747 122.278 162.205
101.118 124.524 160.404
100.348 124.084 159.599
102.216 119.568 160.9
102.758 119.778 161.964
103.034 118.59 161.355
102.932 123.435 161.997
102.088 124.633 161.09
103.189 124.679 161.8
100.093 123.218 158.866
100.777 121.781 158.809
100.26 122.375 157.889
100.945 122.666 152.586
101.917 122.982 152.725
101.179 123.647 153.589
102.842 123.246 152.881
102.63 122.419 151.879
100.813 121.772 151.688
100.038 122.255 152.661
100.516 124.28 154.451
101.376 124.802 154.377
102.801 121.514 151.226
101.638 121.128 151.093
102.761 120.437 150.666
99.7236 122.38 153.698
99.8953 123.625 154.602
99.5616 122.621 154.863
102.388 124.884 154.19
103.327 123.849 153.445
103.576 124.9 153.955
105.898 113.956 157.76
106.569 113.128 158.299
106.491 112.843 157.217
107.183 112.249 158.825
106.595 113.389 159.281
105.404 115.012 158.185
105.237 114.654 157.331
106.519 112.436 156.322
107.016 111.695 156.78
105.979 114.564 159.536
105.366 115.48 158.874
105.262 115.779 159.806
105.185 114.486 156.542
105.989 113.359 155.998
105.294 114.329 155.636
107.532 111.091 157.042
107.633 111.41 158.155
108.293 110.353 157.579
105.662 114.208 150.949
105.071 114.93 151.644
105.683 113.519 151.59
104.428 115.51 152.182
104.12 116.004 151.551
105.776 114.9 150.445
106.435 113.708 150.301
106.268 112.326 151.473
105.844 112.867 152.216
104.008 116.493 151.132
105 115.988 150.597
104.08 117.117 150.475
107.053 112.745 150.296
106.844 111.994 150.919
107.799 111.671 150.386
105.584 113.747 152.795
104.804 115.135 152.773
105.199 114.691 153.473
POLYGONS 1280  5120
3 164 162 163
3 163 44 164
3 162 43 163
3 164 42 162
3 166 165 163
3 163 43 166
3 165 44 163
3 166 14 165
3 168 167 162
3 162 42 168
3 167 43 162
3 168 13 167
3 170 169 164
3 164 44 170
3 169 42 164
3 170 12 169
3 173 171 172
3 172 46 173
3 171 43 172
3 173 45 171
3 167 174 172
3 172 43 167
3 174 46 172
3 167 13 174
3 175 166 171
3 171 45 175
3 166 43 171
3 175 14 166
3 177 176 173
3 173 46 177
3 176 45 173
3 177 4 176
3 180 178 179
3 179 48 180
3 178 42 179
3 180 47 178
3 169 181 179
3 179 42 169
3 181 48 179
3 169 12 181
3 182 168 178
3 178 47 182
3 168 42 178
3 182 13 168
3 184 183 180
3 180 48 184
3 183 47 180
3 184 8 183
3 187 185 186
3 186 50 187
3 185 44 186
3 187 49 185
3 165 188 186
3 186 44 165
3 188 50 186
3 165 14 188
3 189 170 185
3 185 49 189
3 170 44 185
3 189 12 170
3 191 190 187
3 187 50 191
3 190 49 187
3 191 7 190
3 194 192 193
3 193 53 194
3 192 52 193
3 194 51 192
3 196 195 193
3 193 52 196
3 195 53 193
3 196 16 195
3 198 197 192
3 192 51 198
3 197 52 192
3 198 14 197
3 200 199 194
3 194 53 200
3 199 51 194
3 200 15 199
3 203 201 202
3 202 45 203
3 201 52 202
3 203 54 201
3 197 175 202
3 202 52 197
3 175 45 202
3 197 14 175
3 204 196 201
3 201 54 204
3 196 52 201
3 204 16 196
3 176 205 203
3 203 45 176
3 205 54 203
3 176 4 205
3 208 206 207
3 207 55 208
3 206 51 207
3 208 50 206
3 199 209 207
3 207 51 199
3 209 55 207
3 199 15 209
3 188 198 206
3 206 50 188
3 198 51 206
3 188 14 198
3 210 191 208
3 208 55 210
3 191 50 208
3 210 7 191
3 213 211 212
3 212 57 213
3 211 53 212
3 213 56 211
3 195 214 212
3 212 53 195
3 214 57 212
3 195 16 214
3 215 200 211
3 211 56 215
3 200 53 211
3 215 15 200
3 217 216 213
3 213 57 217
3 216 56 213
3 217 9 216
3 220 218 219
3 219 60 220
3 218 59 219
3 220 58 218
3 222 221 219
3 219 59 222
3 221 60 219
3 222 19 221
3 224 223 218
3 218 58 224
3 223 59 218
3 224 18 223
3 226 225 220
3 220 60 226
3 225 58 220
3 226 17 225
3 229 227 228
3 228 62 229
3 227 59 228
3 229 61 227
3 223 230 228
3 228 59 223
3 230 62 228
3 223 18 230
3 231 222 227
3 227 61 231
3 222 59 227
3 231 19 222
3 233 232 229
3 229 62 233
3 232 61 229
3 233 5 232
3 236 234 235
3 235 64 236
3 234 58 235
3 236 63 234
3 225 237 235
3 235 58 225
3 237 64 235
3 225 17 237
3 238 224 234
3 234 63 238
3 224 58 234
3 238 18 224
3 240 239 236
3 236 64 240
3 239 63 236
3 240 6 239
3 243 241 242
3 242 66 243
3 241 60 242
3 243 65 241
3 221 244 242
3 242 60 221
3 244 66 242
3 221 19 244
3 245 226 241
3 241 65 245
3 226 60 241
3 245 17 226
3 247 246 243
3 243 66 247
3 246 65 243
3 247 11 246
3 250 248 249
3 249 69 250
3 248 68 249
3 250 67 248
3 252 251 249
3 249 68 252
3 251 69 249
3 252 18 251
3 254 253 248
3 248 67 254
3 253 68 248
3 254 21 253
3 256 255 250
3 250 69 256
3 255 67 250
3 256 20 255
3 259 257 258
3 258 70 259
3 257 68 258
3 259 62 257
3 253 260 258
3 258 68 253
3 260 70 258
3 253 21 260
3 230 252 257
3 257 62 230
3 252 68 257
3 230 18 252
3 261 233 259
3 259 70 261
3 233 62 259
3 261 5 233
3 264 262 263
3 263 72 264
3 262 67 263
3 264 71 262
3 255 265 263
3 263 67 255
3 265 72 263
3 255 20 265
3 266 254 262
3 262 71 266
3 254 67 262
3 266 21 254
3 268 267 264
3 264 72 268
3 267 71 264
3 268 10 267
3 271 269 270
3 270 63 271
3 269 69 270
3 271 73 269
3 251 238 270
3 270 69 251
3 238 63 270
3 251 18 238
3 272 256 269
3 269 73 272
3 256 69 269
3 272 20 256
3 239 273 271
3 271 63 239
3 273 73 271
3 239 6 273
3 276 274 275
3 275 76 276
3 274 75 275
3 276 74 274
3 278 277 275
3 275 75 278
3 277 76 275
3 278 24 277
3 280 279 274
3 274 74 280
3 279 75 274
3 280 23 279
3 282 281 276
3 276 76 282
3 281 74 276
3 282 22 281
3 285 283 284
3 284 78 285
3 283 75 284
3 285 77 283
3 279 286 284
3 284 75 279
3 286 78 284
3 279 23 286
3 287 278 283
3 283 77 287
3 278 75 283
3 287 24 278
3 289 288 285
3 285 78 289
3 288 77 285
3 289 0 288
3 292 290 291
3 291 80 292
3 290 74 291
3 292 79 290
3 281 293 291
3 291 74 281
3 293 80 291
3 281 22 293
3 294 280 290
3 290 79 294
3 280 74 290
3 294 23 280
3 296 295 292
3 292 80 296
3 295 79 292
3 296 4 295
3 299 297 298
3 298 82 299
3 297 76 298
3 299 81 297
3 277 300 298
3 298 76 277
3 300 82 298
3 277 24 300
3 301 282 297
3 297 81 301
3 282 76 297
3 301 22 282
3 303 302 299
3 299 82 303
3 302 81 299
3 303 3 302
3 306 304 305
3 305 85 306
3 304 84 305
3 306 83 304
3 308 307 305
3 305 84 308
3 307 85 305
3 308 26 307
3 310 309 304
3 304 83 310
3 309 84 304
3 310 24 309
3 312 311 306
3 306 85 312
3 311 83 306
3 312 25 311
3 315 313 314
3 314 77 315
3 313 84 314
3 315 86 313
3 309 287 314
3 314 84 309
3 287 77 314
3 309 24 287
3 316 308 313
3 313 86 316
3 308 84 313
3 316 26 308
3 288 317 315
3 315 77 288
3 317 86 315
3 288 0 317
3 320 318 319
3 319 87 320
3 318 83 319
3 320 82 318
3 311 321 319
3 319 83 311
3 321 87 319
3 311 25 321
3 300 310 318
3 318 82 300
3 310 83 318
3 300 24 310
3 322 303 320
3 320 87 322
3 303 82 320
3 322 3 303
3 325 323 324
3 324 89 325
3 323 85 324
3 325 88 323
3 307 326 324
3 324 85 307
3 326 89 324
3 307 26 326
3 327 312 323
3 323 88 327
3 312 85 323
3 327 25 312
3 329 328 325
3 325 89 329
3 328 88 325
3 329 5 328
3 332 330 331
3 331 92 332
3 330 91 331
3 332 90 330
3 334 333 331
3 331 91 334
3 333 92 331
3 334 29 333
3 336 335 330
3 330 90 336
3 335 91 330
3 336 28 335
3 338 337 332
3 332 92 338
3 337 90 332
3 338 27 337
3 341 339 340
3 340 94 341
3 339 91 340
3 341 93 339
3 335 342 340
3 340 91 335
3 342 94 340
3 335 28 342
3 343 334 339
3 339 93 343
3 334 91 339
3 343 29 334
3 345 344 341
3 341 94 345
3 344 93 341
3 345 2 344
3 348 346 347
3 347 96 348
3 346 90 347
3 348 95 346
3 337 349 347
3 347 90 337
3 349 96 347
3 337 27 349
3 350 336 346
3 346 95 350
3 336 90 346
3 350 28 336
3 352 351 348
3 348 96 352
3 351 95 348
3 352 7 351
3 355 353 354
3 354 98 355
3 353 92 354
3 355 97 353
3 333 356 354
3 354 92 333
3 356 98 354
3 333 29 356
3 357 338 353
3 353 97 357
3 338 92 353
3 357 27 338
3 359 358 355
3 355 98 359
3 358 97 355
3 359 1 358
3 362 360 361
3 361 101 362
3 360 100 361
3 362 99 360
3 364 363 361
3 361 100 364
3 363 101 361
3 364 31 363
3 366 365 360
3 360 99 366
3 365 100 360
3 366 29 365
3 368 367 362
3 362 101 368
3 367 99 362
3 368 30 367
3 371 369 370
3 370 93 371
3 369 100 370
3 371 102 369
3 365 343 370
3 370 100 365
3 343 93 370
3 365 29 343
3 372 364 369
3 369 102 372
3 364 100 369
3 372 31 364
3 344 373 371
3 371 93 344
3 373 102 371
3 344 2 373
3 376 374 375
3 375 103 376
3 374 99 375
3 376 98 374
3 367 377 375
3 375 99 367
3 377 103 375
3 367 30 377
3 356 366 374
3 374 98 356
3 366 99 374
3 356 29 366
3 378 359 376
3 376 103 378
3 359 98 376
3 378 1 359
3 381 379 380
3 380 105 381
3 379 101 380
3 381 104 379
3 363 382 380
3 380 101 363
3 382 105 380
3 363 31 382
3 383 368 379
3 379 104 383
3 368 101 379
3 383 30 368
3 385 384 381
3 381 105 385
3 384 104 381
3 385 6 384
3 388 386 387
3 387 108 388
3 386 107 387
3 388 106 386
3 390 389 387
3 387 107 390
3 389 108 387
3 390 34 389
3 392 391 386
3 386 106 392
3 391 107 386
3 392 33 391
3 394 393 388
3 388 108 394
3 393 106 388
3 394 32 393
3 397 395 396
3 396 110 397
3 395 107 396
3 397 109 395
3 391 398 396
3 396 107 391
3 398 110 396
3 391 33 398
3 399 390 395
3 395 109 399
3 390 107 395
3 399 34 390
3 401 400 397
3 397 110 401
3 400 109 397
3 401 8 400
3 404 402 403
3 403 112 404
3 402 106 403
3 404 111 402
3 393 405 403
3 403 106 393
3 405 112 403
3 393 32 405
3 406 392 402
3 402 111 406
3 392 106 402
3 406 33 392
3 408 407 404
3 404 112 408
3 407 111 404
3 408 0 407
3 411 409 410
3 410 114 411
3 409 108 410
3 411 113 409
3 389 412 410
3 410 108 389
3 412 114 410
3 389 34 412
3 413 394 409
3 409 113 413
3 394 108 409
3 413 32 394
3 415 414 411
3 411 114 415
3 414 113 411
3 415 11 414
3 418 416 417
3 417 117 418
3 416 116 417
3 418 115 416
3 420 419 417
3 417 116 420
3 419 117 417
3 420 36 419
3 422 421 416
3 416 115 422
3 421 116 416
3 422 34 421
3 424 423 418
3 418 117 424
3 423 115 418
3 424 35 423
3 427 425 426
3 426 109 427
3 425 116 426
3 427 118 425
3 421 399 426
3 426 116 421
3 399 109 426
3 421 34 399
3 428 420 425
3 425 118 428
3 420 116 425
3 428 36 420
3 400 429 427
3 427 109 400
3 429 118 427
3 400 8 429
3 432 430 431
3 431 119 432
3 430 115 431
3 432 114 430
3 423 433 431
3 431 115 423
3 433 119 431
3 423 35 433
3 412 422 430
3 430 114 412
3 422 115 430
3 412 34 422
3 434 415 432
3 432 119 434
3 415 114 432
3 434 11 415
3 437 435 436
3 436 121 437
3 435 117 436
3 437 120 435
3 419 438 436
3 436 117 419
3 438 121 436
3 419 36 438
3 439 424 435
3 435 120 439
3 424 117 435
3 439 35 424
3 441 440 437
3 437 121 441
3 440 120 437
3 441 1 440
3 444 442 443
3 443 124 444
3 442 123 443
3 444 122 442
3 446 445 443
3 443 123 446
3 445 124 443
3 446 39 445
3 448 447 442
3 442 122 448
3 447 123 442
3 448 38 447
3 450 449 444
3 444 124 450
3 449 122 444
3 450 37 449
3 453 451 452
3 452 126 453
3 451 123 452
3 453 125 451
3 447 454 452
3 452 123 447
3 454 126 452
3 447 38 454
3 455 446 451
3 451 125 455
3 446 123 451
3 455 39 446
3 457 456 453
3 453 126 457
3 456 125 453
3 457 9 456
3 460 458 459
3 459 128 460
3 458 122 459
3 460 127 458
3 449 461 459
3 459 122 449
3 461 128 459
3 449 37 461
3 462 448 458
3 458 127 462
3 448 122 458
3 462 38 448
3 464 463 460
3 460 128 464
3 463 127 460
3 464 10 463
3 467 465 466
3 466 130 467
3 465 124 466
3 467 129 465
3 445 468 466
3 466 124 445
3 468 130 466
3 445 39 468
3 469 450 465
3 465 129 469
3 450 124 465
3 469 37 450
3 471 470 467
3 467 130 471
3 470 129 467
3 471 3 470
3 474 472 473
3 473 133 474
3 472 132 473
3 474 131 472
3 476 475 473
3 473 132 476
3 475 133 473
3 476 38 475
3 478 477 472
3 472 131 478
3 477 132 472
3 478 41 477
3 480 479 474
3 474 133 480
3 479 131 474
3 480 40 479
3 483 481 482
3 482 134 483
3 481 132 482
3 483 126 481
3 477 484 482
3 482 132 477
3 484 134 482
3 477 41 484
3 454 476 481
3 481 126 454
3 476 132 481
3 454 38 476
3 485 457 483
3 483 134 485
3 457 126 483
3 485 9 457
3 488 486 487
3 487 136 488
3 486 131 487
3 488 135 486
3 479 489 487
3 487 131 479
3 489 136 487
3 479 40 489
3 490 478 486
3 486 135 490
3 478 131 486
3 490 41 478
3 492 491 488
3 488 136 492
3 491 135 488
3 492 2 491
3 495 493 494
3 494 127 495
3 493 133 494
3 495 137 493
3 475 462 494
3 494 133 475
3 462 127 494
3 475 38 462
3 496 480 493
3 493 137 496
3 480 133 493
3 496 40 480
3 463 497 495
3 495 127 463
3 497 137 495
3 463 10 497
3 500 498 499
3 499 140 500
3 498 139 499
3 500 138 498
3 502 501 499
3 499 139 502
3 501 140 499
3 502 33 501
3 504 503 498
3 498 138 504
3 503 139 498
3 504 13 503
3 506 505 500
3 500 140 506
3 505 138 500
3 506 23 505
3 509 507 508
3 508 47 509
3 507 139 508
3 509 110 507
3 503 182 508
3 508 139 503
3 182 47 508
3 503 13 182
3 398 502 507
3 507 110 398
3 502 139 507
3 398 33 502
3 183 401 509
3 509 47 183
3 401 110 509
3 183 8 401
3 512 510 511
3 511 79 512
3 510 138 511
3 512 46 510
3 505 294 511
3 511 138 505
3 294 79 511
3 505 23 294
3 174 504 510
3 510 46 174
3 504 138 510
3 174 13 504
3 295 177 512
3 512 79 295
3 177 46 512
3 295 4 177
3 515 513 514
3 514 111 515
3 513 140 514
3 515 78 513
3 501 406 514
3 514 140 501
3 406 111 514
3 501 33 406
3 286 506 513
3 513 78 286
3 506 140 513
3 286 23 506
3 407 289 515
3 515 111 407
3 289 78 515
3 407 0 289
3 518 516 517
3 517 143 518
3 516 142 517
3 518 141 516
3 520 519 517
3 517 142 520
3 519 143 517
3 520 19 519
3 522 521 516
3 516 141 522
3 521 142 516
3 522 32 521
3 524 523 518
3 518 143 524
3 523 141 518
3 524 26 523
3 527 525 526
3 526 113 527
3 525 142 526
3 527 66 525
3 521 413 526
3 526 142 521
3 413 113 526
3 521 32 413
3 244 520 525
3 525 66 244
3 520 142 525
3 244 19 520
3 414 247 527
3 527 113 414
3 247 66 527
3 414 11 247
3 530 528 529
3 529 86 530
3 528 141 529
3 530 112 528
3 523 316 529
3 529 141 523
3 316 86 529
3 523 26 316
3 405 522 528
3 528 112 405
3 522 141 528
3 405 32 522
3 317 408 530
3 530 86 317
3 408 112 530
3 317 0 408
3 533 531 532
3 532 61 533
3 531 143 532
3 533 89 531
3 519 231 532
3 532 143 519
3 231 61 532
3 519 19 231
3 326 524 531
3 531 89 326
3 524 143 531
3 326 26 524
3 232 329 533
3 533 61 232
3 329 89 533
3 232 5 329
3 536 534 535
3 535 146 536
3 534 145 535
3 536 144 534
3 538 537 535
3 535 145 538
3 537 146 535
3 538 22 537
3 540 539 534
3 534 144 540
3 539 145 534
3 540 16 539
3 542 541 536
3 536 146 542
3 541 144 536
3 542 39 541
3 545 543 544
3 544 54 545
3 543 145 544
3 545 80 543
3 539 204 544
3 544 145 539
3 204 54 544
3 539 16 204
3 293 538 543
3 543 80 293
3 538 145 543
3 293 22 538
3 205 296 545
3 545 54 205
3 296 80 545
3 205 4 296
3 548 546 547
3 547 125 548
3 546 144 547
3 548 57 546
3 541 455 547
3 547 144 541
3 455 125 547
3 541 39 455
3 214 540 546
3 546 57 214
3 540 144 546
3 214 16 540
3 456 217 548
3 548 125 456
3 217 57 548
3 456 9 217
3 551 549 550
3 550 81 551
3 549 146 550
3 551 130 549
3 537 301 550
3 550 146 537
3 301 81 550
3 537 22 301
3 468 542 549
3 549 130 468
3 542 146 549
3 468 39 542
3 302 471 551
3 551 81 302
3 471 130 551
3 302 3 471
3 554 552 553
3 553 149 554
3 552 148 553
3 554 147 552
3 556 555 553
3 553 148 556
3 555 149 553
3 556 21 555
3 558 557 552
3 552 147 558
3 557 148 552
3 558 25 557
3 560 559 554
3 554 149 560
3 559 147 554
3 560 37 559
3 563 561 562
3 562 88 563
3 561 148 562
3 563 70 561
3 557 327 562
3 562 148 557
3 327 88 562
3 557 25 327
3 260 556 561
3 561 70 260
3 556 148 561
3 260 21 556
3 328 261 563
3 563 88 328
3 261 70 563
3 328 5 261
3 566 564 565
3 565 129 566
3 564 147 565
3 566 87 564
3 559 469 565
3 565 147 559
3 469 129 565
3 559 37 469
3 321 558 564
3 564 87 321
3 558 147 564
3 321 25 558
3 470 322 566
3 566 129 470
3 322 87 566
3 470 3 322
3 569 567 568
3 568 71 569
3 567 149 568
3 569 128 567
3 555 266 568
3 568 149 555
3 266 71 568
3 555 21 266
3 461 560 567
3 567 128 461
3 560 149 567
3 461 37 560
3 267 464 569
3 569 71 267
3 464 128 569
3 267 10 464
3 572 570 571
3 571 152 572
3 570 151 571
3 572 150 570
3 574 573 571
3 571 151 574
3 573 152 571
3 574 27 573
3 576 575 570
3 570 150 576
3 575 151 570
3 576 12 575
3 578 577 572
3 572 152 578
3 577 150 572
3 578 36 577
3 581 579 580
3 580 49 581
3 579 151 580
3 581 96 579
3 575 189 580
3 580 151 575
3 189 49 580
3 575 12 189
3 349 574 579
3 579 96 349
3 574 151 579
3 349 27 574
3 190 352 581
3 581 49 190
3 352 96 581
3 190 7 352
3 584 582 583
3 583 118 584
3 582 150 583
3 584 48 582
3 577 428 583
3 583 150 577
3 428 118 583
3 577 36 428
3 181 576 582
3 582 48 181
3 576 150 582
3 181 12 576
3 429 184 584
3 584 118 429
3 184 48 584
3 429 8 184
3 587 585 586
3 586 97 587
3 585 152 586
3 587 121 585
3 573 357 586
3 586 152 573
3 357 97 586
3 573 27 357
3 438 578 585
3 585 121 438
3 578 152 585
3 438 36 578
3 358 441 587
3 587 97 358
3 441 121 587
3 358 1 441
3 590 588 589
3 589 155 590
3 588 154 589
3 590 153 588
3 592 591 589
3 589 154 592
3 591 155 589
3 592 17 591
3 594 593 588
3 588 153 594
3 593 154 588
3 594 30 593
3 596 595 590
3 590 155 596
3 595 153 590
3 596 35 595
3 599 597 598
3 598 104 599
3 597 154 598
3 599 64 597
3 593 383 598
3 598 154 593
3 383 104 598
3 593 30 383
3 237 592 597
3 597 64 237
3 592 154 597
3 237 17 592
3 384 240 599
3 599 104 384
3 240 64 599
3 384 6 240
3 602 600 601
3 601 120 602
3 600 153 601
3 602 103 600
3 595 439 601
3 601 153 595
3 439 120 601
3 595 35 439
3 377 594 600
3 600 103 377
3 594 153 600
3 377 30 594
3 440 378 602
3 602 120 440
3 378 103 602
3 440 1 378
3 605 603 604
3 604 65 605
3 603 155 604
3 605 119 603
3 591 245 604
3 604 155 591
3 245 65 604
3 591 17 245
3 433 596 603
3 603 119 433
3 596 155 603
3 433 35 596
3 246 434 605
3 605 65 246
3 434 119 605
3 246 11 434
3 608 606 607
3 607 158 608
3 606 157 607
3 608 156 606
3 610 609 607
3 607 157 610
3 609 158 607
3 610 15 609
3 612 611 606
3 606 156 612
3 611 157 606
3 612 28 611
3 614 613 608
3 608 158 614
3 613 156 608
3 614 41 613
3 617 615 616
3 616 95 617
3 615 157 616
3 617 55 615
3 611 350 616
3 616 157 611
3 350 95 616
3 611 28 350
3 209 610 615
3 615 55 209
3 610 157 615
3 209 15 610
3 351 210 617
3 617 95 351
3 210 55 617
3 351 7 210
3 620 618 619
3 619 135 620
3 618 156 619
3 620 94 618
3 613 490 619
3 619 156 613
3 490 135 619
3 613 41 490
3 342 612 618
3 618 94 342
3 612 156 618
3 342 28 612
3 491 345 620
3 620 135 491
3 345 94 620
3 491 2 345
3 623 621 622
3 622 56 623
3 621 158 622
3 623 134 621
3 609 215 622
3 622 158 609
3 215 56 622
3 609 15 215
3 484 614 621
3 621 134 484
3 614 158 621
3 484 41 614
3 216 485 623
3 623 56 216
3 485 134 623
3 216 9 485
3 626 624 625
3 625 161 626
3 624 160 625
3 626 159 624
3 628 627 625
3 625 160 628
3 627 161 625
3 628 31 627
3 630 629 624
3 624 159 630
3 629 160 624
3 630 20 629
3 632 631 626
3 626 161 632
3 631 159 626
3 632 40 631
3 635 633 634
3 634 73 635
3 633 160 634
3 635 105 633
3 629 272 634
3 634 160 629
3 272 73 634
3 629 20 272
3 382 628 633
3 633 105 382
3 628 160 633
3 382 31 628
3 273 385 635
3 635 73 273
3 385 105 635
3 273 6 385
3 638 636 637
3 637 137 638
3 636 159 637
3 638 72 636
3 631 496 637
3 637 159 631
3 496 137 637
3 631 40 496
3 265 630 636
3 636 72 265
3 630 159 636
3 265 20 630
3 497 268 638
3 638 137 497
3 268 72 638
3 497 10 268
3 641 639 640
3 640 102 641
3 639 161 640
3 641 136 639
3 627 372 640
3 640 161 627
3 372 102 640
3 627 31 372
3 489 632 639
3 639 136 489
3 632 161 639
3 489 40 632
3 373 492 641
3 641 102 373
3 492 136 641
3 373 2 492
