# vtk DataFile Version 3.0
this file was written using fslvtkio
ASCII
DATASET POLYDATA
POINTS 642 float
128.429 113.107 77.8309
99.1499 109.065 74.9178
106.228 95.2133 67.8829
125.476 97.1575 70.8836
123.487 100.924 95.0484
123.882 102.939 55.4082
110.142 100.989 51.2595
104.801 99.0266 92.8825
113.257 112.225 86.2417
115.35 91.8849 77.3299
117.415 89.8517 57.1041
114.129 115.697 69.231
107.782 104.713 93.3494
118.666 106.033 94.166
113.255 99.006 98.7033
110.194 94.0226 87.5767
119.141 94.357 88.6937
112.268 107.982 60.5381
118.447 101.552 45.67
119.436 109.708 61.7965
113.686 94.3822 47.9114
123.701 94.5963 50.1078
124.483 99.7614 83.325
127.236 108.226 88.7685
126.056 106.139 75.1228
125.904 99.0861 61.6163
124.931 109.783 67.6849
100.37 105.073 86.1035
105.354 98.0668 81.0857
104.076 103.383 71.8319
105.805 106.542 64.7827
107.405 96.456 57.5323
122.242 117.904 73.7533
122.496 115.344 85.4375
112.499 117.981 79.955
105.21 115.095 71.9293
103.564 113.291 84.4599
123.536 92.0019 63.0031
115.506 87.9902 68.6124
121.056 92.1923 73.9912
110.264 90.5343 59.566
110.571 92.0004 72.8838
113.176 105.297 93.598
116.63 103.753 99.8911
109.317 102.898 99.4797
119.978 98.9984 99.13
122.994 105.069 97.9953
116.141 108.366 88.4239
110.846 107.609 88.0195
103.637 102.443 96.0808
107.543 97.625 97.6846
111.205 95.0322 94.1463
116.893 95.7652 94.7987
114.458 94.1626 88.9066
121.542 96.679 92.5302
107.293 95.5642 90.9381
112.909 92.9569 82.6776
117.15 93.488 83.2885
115.313 104.023 52.3167
118.864 104.711 53.6374
116.082 107.529 60.3683
121.341 105.497 57.48
121.78 102.372 49.834
114.12 101.051 46.8391
111.839 104.225 54.6186
112.81 112.799 64.6386
117.198 113.798 65.2582
118.832 95.6713 48.3742
122.199 98.8371 45.7793
116.161 98.3737 43.7061
124.277 98.8498 51.4782
120.69 90.8949 52.6618
115.66 90.4221 51.61
111.314 97.1377 47.0139
125.721 104.477 86.1671
127.263 106.904 81.4764
125.237 102.621 79.2135
128.471 109.562 76.2631
127.951 110.581 82.7144
125.905 105.07 92.9575
123.821 100.73 89.2894
124.731 98.6523 76.7783
125.129 101.071 72.6858
125.491 102.251 68.3187
125.717 108.374 71.6348
123.781 104.112 65.1738
128.191 112.185 72.1841
125.782 98.365 66.3889
124.957 100.772 58.3284
122.795 105.628 62.0386
102.943 101.809 84.017
104.201 100.291 76.638
101.711 103.865 78.7752
105.955 99.0895 70.0839
106.139 96.6186 74.3782
105.48 98.9281 87.2031
101.661 102.061 90.7325
99.5656 107.088 80.1454
100.423 106.025 73.5918
104.753 105.078 68.5331
106.664 99.7168 64.7119
108.276 101.471 60.9882
106.026 95.7934 62.7163
100.92 108.276 69.3881
108.884 103.208 57.5667
108.533 98.239 53.3889
123.111 119.013 80.6203
118.069 118.588 83.5841
117.924 119.421 77.4588
112.413 116.451 84.2069
117.788 114.217 86.6428
126.505 115.479 82.2305
126.071 116.355 75.9993
118.091 117.405 71.3577
113.114 117.149 74.625
108.065 117.474 76.5102
106.864 117.396 82.7928
103.108 116.064 78.7926
108.28 113.238 86.1626
109.718 116.049 70.1613
101.557 112.677 73.3259
100.007 112.12 80.1686
120.531 89.3034 66.3985
120.516 86.423 70.8206
124.176 89.5204 68.6842
118.364 91.2221 75.8963
115.526 86.9524 72.6376
116.326 90.4569 63.6651
120.612 90.7738 59.674
125.17 93.8815 66.5163
124.106 93.9796 72.9533
110.123 90.3263 67.0528
111.402 86.0275 69.8062
112.58 88.717 65.0966
112.778 91.1212 75.3773
107.443 92.9038 70.6436
107.623 92.0656 63.549
113.752 90.4572 57.6669
123.598 107.625 92.4084
120.359 109.42 87.6863
125.263 111.582 86.6064
124.818 114.448 70.2195
120.96 114.903 67.5789
122.549 110.412 64.3143
120.446 93.4756 81.3153
122.224 96.8623 86.2705
123.338 95.5869 79.0617
126.602 94.8855 61.6942
125.509 96.297 55.5694
124.172 92.0625 56.2298
106.623 107.923 86.6097
103.206 105.16 90.8825
101.717 109.021 84.9471
104.402 111.22 67.381
108.661 107.62 61.7711
108.439 112.874 65.5314
107.617 94.4805 77.5554
107.442 95.7335 84.444
109.952 92.8783 80.2135
111.263 90.3216 52.5114
109.606 94.0493 51.1795
107.74 92.6479 57.7322
114.541 104.493 96.7858
112.953 103.449 98.9387
111.475 103.974 96.5125
111.279 101.171 99.9828
114.89 101.448 99.7258
117.608 104.758 97.0922
115.964 105.58 93.9078
110.372 104.996 93.4891
108.46 103.529 96.4548
118.48 101.698 100.557
119.931 104.263 99.3748
121.495 102.156 99.8711
120.516 105.217 96.3969
116.772 99.3611 99.3819
122.098 99.8907 97.4376
123.667 102.629 97.558
114.739 106.557 91.0082
111.994 106.144 90.781
113.479 108.032 88.1864
109.484 105.97 90.527
117.199 106.946 91.2528
114.76 110.359 87.0629
111.97 110.038 86.8454
106.422 102.253 98.4071
108.063 100.112 99.9116
105.515 100.024 98.2094
110.231 98.2067 99.0021
105.758 103.41 95.2624
104.007 100.234 95.4097
105.834 98.3667 95.6654
113.949 95.9235 94.6486
115.706 94.4193 91.9928
112.904 93.5836 91.8309
116.875 94.1896 89.0307
118.119 94.2064 91.9407
115.32 97.625 97.2437
112.017 96.5417 97.2666
110.452 93.3068 90.9798
112.225 93.8314 88.4388
119.4 95.6954 93.8131
118.141 97.058 97.4411
120.767 97.5792 96.0701
120.6 94.8037 90.743
122.488 98.7631 94.037
109.439 95.9502 96.546
109.072 94.863 92.848
107.359 96.4842 94.4737
108.583 94.182 89.4163
106.021 97.3475 92.1679
113.578 94.3406 85.9336
115.952 94.6141 86.3876
114.909 93.3932 83.3306
117.892 94.6237 86.0181
111.825 94.0306 85.3304
114.331 92.6059 80.3173
116.076 92.874 80.5837
117.133 104.092 52.644
117.548 106.004 56.9845
115.528 105.663 56.4969
117.634 108.451 60.6563
118.851 106.92 58.4456
118.593 103.339 49.529
116.833 102.978 48.6846
113.978 105.933 57.0823
114.376 107.529 60.1037
120.143 105.471 55.6022
120.238 103.625 51.0953
121.761 104.249 53.4333
120.164 102.057 47.5159
120.179 107.157 59.6785
122.764 104.41 56.3198
123.06 102.836 52.6426
114.9 102.702 48.918
113.659 104.373 53.4907
112.946 102.858 50.6624
112.279 105.804 57.5651
116.215 101.401 45.5808
112.091 101.264 49.0778
110.989 102.852 52.3864
114.504 110.267 62.2347
116.476 110.781 62.5599
115.113 112.505 64.5842
118.482 112.008 63.498
112.301 110.766 62.2949
113.478 114.376 67.0673
115.672 114.867 67.2521
120.476 97.4534 46.6792
119.468 98.9123 43.9829
118.073 97.5375 46.0074
117.307 100.178 43.5667
120.465 100.548 44.9344
122.755 96.7719 47.9184
121.18 95.3718 49.12
116.465 95.5655 47.8188
115.385 96.8562 46.0886
122.01 100.563 47.3911
123.285 98.6148 48.5078
123.246 100.904 50.583
124.413 96.8584 50.0991
124.281 101.045 53.3599
119.827 92.9849 50.1824
117.34 93.2422 49.8031
118.241 90.6275 51.4281
115.129 92.9265 49.3439
122.118 92.8597 51.1801
119.015 89.9012 54.4768
116.818 89.7886 54.0449
113.309 97.547 44.7339
114.717 99.6596 44.6165
112.355 99.4274 46.8634
112.34 95.4122 46.7389
110.604 99.1567 49.1104
126.725 105.505 83.67
126.201 104.9 80.1589
125.488 103.704 82.4156
125.819 104.26 77.1551
126.676 106.316 78.3483
127.351 107.54 85.0237
127.045 106.15 87.6574
124.92 102.461 84.6518
125.058 101.253 81.6368
127.601 108.288 78.5908
127.534 108.816 82.1065
128.644 109.883 79.2357
127.318 109.41 85.6082
126.866 107.969 76.0835
129.239 111.124 76.7942
128.673 111.815 80.1846
125.697 104.909 89.5497
124.507 102.712 87.6771
124.458 103.089 91.2644
124.074 100.436 86.1701
127.522 106.65 91.1727
124.574 103.164 94.5647
123.742 100.847 92.3088
125.03 100.506 78.359
125.136 102.099 76.038
124.901 100.057 74.9669
125.541 103.404 73.9522
124.703 99.1061 80.1185
124.97 97.9303 73.6279
125.071 99.2225 71.762
125.127 105.785 70.2887
124.166 106.473 68.8227
125.122 103.269 66.5305
123.894 107.067 66.8733
125.625 109.061 69.4133
125.756 107.509 73.3533
125.896 104.396 71.7216
125.63 100.747 65.0493
124.689 101.427 63.4017
127.89 110.131 71.3528
127.166 109.123 73.8575
129.132 110.764 73.9696
127.053 111.085 69.6263
128.596 112.697 74.9472
125.326 101.793 70.5679
125.542 100.053 67.0305
125.238 99.6775 69.4293
125.904 98.8327 64.0607
125.636 97.8489 68.7637
123.797 102.076 62.0075
123.2 105.044 63.735
124.152 103.32 60.2139
123.803 107.721 64.9914
125.217 99.9492 60.1066
124.556 101.971 56.8292
123.504 104.249 58.7917
103.536 101.003 80.1011
103.082 102.37 77.6604
102.211 102.652 81.2361
102.884 103.789 75.2079
103.977 101.775 74.2638
104.633 99.1633 79.2336
104.272 100.181 82.701
101.367 103.262 84.9568
100.917 104.275 82.3376
104.983 99.7886 73.3145
105.571 98.7387 75.8476
106.091 97.923 72.3937
105.762 97.4535 77.6477
105.072 101.08 71.0383
106.124 97.1606 69.0434
106.23 96.0701 71.0231
104.261 100.515 85.9746
102.512 102.16 87.3063
103.755 100.81 89.2744
100.458 103.395 88.5979
105.385 98.6161 84.0972
104.958 99.1198 90.123
103.305 100.725 92.3865
100.474 105.325 79.6413
101.29 104.873 76.107
99.6649 106.288 76.7042
102.711 104.762 73.3969
100.311 106.044 82.9172
98.9561 107.932 77.402
98.9887 107.152 73.9087
106.407 102.811 66.7116
107.607 100.852 63.0089
106.906 103.46 65.0548
107.757 98.8248 59.3076
107.042 98.0151 61.2788
105.443 101.622 68.2477
104.768 104.406 70.0633
105.249 105.71 66.6077
107.286 104.108 63.2443
106.291 97.6203 63.7026
106.157 99.3953 67.56
106.119 97.2924 66.3744
106.467 95.9135 59.9802
106.114 95.5227 65.4395
102.548 105.55 71.2215
102.425 106.436 68.9711
99.9054 106.691 71.0454
103.303 107.752 67.3417
99.5108 108.611 71.8499
108.288 102.392 59.3187
107.896 99.7703 57.2246
108.238 100.874 55.3148
108.139 97.4679 55.6965
108.159 104.607 61.5017
109.081 102.365 54.218
108.996 99.6907 52.0565
120.736 119.122 82.2218
118.133 119.2 80.5731
120.579 119.531 79.0971
115.466 118.772 79.0106
115.464 118.56 81.7064
120.488 117.53 84.737
122.868 117.947 83.6735
122.487 118.619 77.3479
120.317 118.851 76.0588
115.276 117.541 83.9728
117.836 116.786 85.515
115.276 115.731 85.6927
120.159 114.943 86.0803
112.37 117.587 82.2999
112.685 114.593 85.4604
115.407 113.22 86.5831
125.061 117.615 81.689
124.746 117.904 78.4401
126.515 116.347 79.2984
124.182 117.505 75.2139
124.754 116.052 84.2295
127.946 114.368 79.9425
127.563 114.832 76.7336
118.021 118.478 74.4703
115.527 118.333 76.0995
115.705 117.588 73.1589
112.898 117.886 77.3253
120.166 117.946 72.6411
116.04 116.644 70.0341
113.579 116.595 71.7398
107.551 117.823 79.6226
104.828 117.303 80.8775
105.447 117.272 77.5751
102.68 115.61 81.8739
104.608 115.891 83.7584
109.551 117.912 81.2886
110.121 117.933 78.4716
106.17 116.288 74.5523
103.874 115.654 75.7346
107.194 115.692 84.7773
109.653 117.152 83.7282
109.951 115.376 85.6133
105.762 113.495 85.406
110.868 112.738 86.4652
110.635 117.486 75.648
108.642 116.577 73.5706
111.095 116.646 72.6939
107.318 115.948 71.0215
111.96 115.808 69.6835
101.885 114.353 76.332
101.232 114.238 79.4662
100.224 112.578 76.8048
101.511 113.279 82.5329
103.332 114.107 72.9178
100.159 110.861 73.773
99.2474 110.518 77.3768
120.862 86.6623 68.3837
123.597 86.2396 69.322
122.831 87.8117 67.3112
123.007 89.2887 70.6926
121.969 88.2589 71.5489
118.375 87.6297 69.9522
118.669 89.4281 68.0503
122.134 90.0705 64.8837
123.479 90.602 66.4336
119.862 88.6878 73.1268
118.047 86.8296 72.1865
117.578 89.1173 74.2083
115.614 86.3055 70.2433
120.042 91.1647 74.5587
116.69 91.5981 76.6967
115.48 89.2868 74.8126
118.527 90.5472 65.2809
120.439 90.4535 63.4774
118.656 90.4838 61.9339
122.116 91.243 61.47
116.115 89.7588 66.736
116.777 90.3464 60.2995
119.159 89.9716 58.3278
123.815 92.2181 67.9762
123.019 91.9167 70.448
124.273 93.7159 69.8026
122.2 92.6871 73.1021
124.55 92.5954 64.9016
125.609 95.3136 68.6811
125.087 95.5834 71.9284
110.111 87.8406 68.5472
111.769 85.9128 67.2429
110.902 89.0632 65.8361
113.772 88.1565 67.0829
113.731 85.6495 68.7967
110.769 88.9452 70.758
110.119 90.4603 69.7161
110.007 90.3739 63.4994
111.389 89.9783 62.3424
113.474 86.3154 71.4023
112.175 88.6987 72.2398
113.814 88.9305 73.9235
111.668 91.2291 73.7611
114.06 91.4723 76.835
109.507 92.0972 68.6387
109.255 91.5951 65.3235
107.866 92.6822 67.1949
108.698 91.0791 61.3219
108.936 92.2832 71.8953
106.443 93.9706 69.3962
106.387 93.3312 65.8664
113.15 90.335 61.7851
114.34 89.5812 64.712
114.901 90.3581 60.835
111.966 90.4005 58.6324
115.566 90.1052 57.2669
121.692 108.212 90.0829
122.628 110.498 87.1587
124.026 109.161 88.9411
124.152 113.498 85.8696
121.512 112.491 86.5228
119.374 107.372 90.8127
121.069 106.642 93.3835
125.995 108.459 90.8056
126.387 110.102 87.5268
119.415 112.064 86.7479
118.303 108.968 87.944
116.999 111.229 87.0159
122.975 106.384 94.9481
126.204 107.255 93.4482
124.986 105.061 95.655
127.108 111.593 85.0802
126.235 113.964 84.5532
127.59 113.106 82.3383
122.931 114.9 68.7479
122.05 112.834 65.6632
123.837 112.699 67.279
120.961 110.025 62.6965
120.248 112.689 64.5824
121.595 116.479 70.6782
123.658 116.322 71.964
125.521 112.2 68.5922
123.744 110.258 66.1076
119.147 114.486 66.2769
119.693 116.43 69.4916
117.67 115.636 68.2667
125.364 115.587 73.1392
126.526 113.406 71.212
127.178 114.334 73.9362
122.683 107.994 63.3003
121.314 107.586 61.3912
122.102 105.6 59.869
121.116 95.34 83.8158
122.738 96.1941 82.5927
121.982 94.3803 80.2404
123.805 97.6691 81.3541
123.429 98.1413 84.708
120.689 95.7177 87.4343
119.54 94.8664 85.1595
121.021 92.8787 77.4908
122.706 93.5249 76.8642
123.039 98.6484 87.7912
121.967 96.6501 89.5665
122.989 98.7034 91.0186
118.833 93.2788 82.5732
119.363 92.5249 78.22
117.625 92.8054 79.4851
123.762 94.4871 75.8038
124.136 97.1002 77.9806
124.746 96.3476 74.8315
126.077 95.4357 58.511
125.062 94.0904 55.4561
125.52 93.4085 58.6845
124.053 92.9696 52.9289
124.861 95.2379 52.5276
126.11 97.572 58.5612
126.579 96.9328 61.3924
125.493 93.205 61.7818
123.966 91.9889 59.6135
124.989 97.3415 53.1044
125.483 98.4624 56.6719
125.025 99.7621 54.8611
126.897 96.7235 64.0515
126.255 93.9576 64.016
126.366 95.9817 66.5623
122.416 91.0449 57.7774
122.594 91.3459 53.8558
120.795 90.2992 56.0915
105.171 106.271 88.5692
102.953 106.803 87.3502
104.28 108.594 86.0089
100.899 107.008 85.3738
101.28 105.317 88.735
105.485 104.802 92.0958
107.294 105.967 89.9098
105.167 110.716 85.6103
102.426 111.219 84.6909
100.453 104.192 91.3899
103.389 104.078 93.4369
101.943 102.092 93.5198
108.758 107.791 87.1462
107.386 110.723 86.0409
109.776 110.441 86.6248
100.78 110.792 82.5163
100.287 108.241 82.6981
99.3989 109.509 79.8999
106.195 109.746 64.3563
108.202 110.397 63.2081
106.4 112.214 66.3042
110.215 110.966 62.7064
110.565 107.762 61.0017
107.14 106.97 62.9883
104.694 108.602 65.6432
104.697 113.479 69.4608
106.892 114.342 68.6357
110.764 105.508 58.7384
109.31 105.053 60.1013
110.155 103.883 55.9911
102.64 109.668 68.0982
103.05 112.189 70.4145
101.096 110.526 70.9122
109.052 114.723 67.8473
110.649 113.014 64.7975
111.334 114.583 67.2724
107.576 95.1992 80.9924
108.917 94.4637 82.5516
108.666 93.4552 78.827
110.276 94.0475 84.1302
108.825 94.7951 85.9767
106.19 96.698 82.7449
106.359 96.2037 79.3884
108.555 92.5873 75.485
109.954 92.0432 76.4883
107.509 95.5928 87.8698
106.474 97.1221 85.9798
106.182 97.2242 89.1989
106.702 95.5206 76.0933
107.691 93.4749 74.0738
106.762 94.652 72.633
111.311 92.0261 77.7111
111.278 92.6486 81.7788
112.749 92.202 79.1375
110.466 92.0623 51.1788
109.073 93.081 54.1117
109.522 91.469 54.4643
107.552 94.2937 57.0531
108.293 95.0185 54.2885
111.282 93.6323 48.9166
112.576 91.9904 49.6384
110.564 90.3569 56.0631
108.792 91.2536 57.9753
108.97 96.0238 52.2161
110.561 95.3269 48.8943
109.837 97.3446 49.973
113.498 90.8938 51.2719
112.28 90.0382 54.9474
114.61 90.0675 54.3628
107.381 92.0881 60.6465
106.44 93.902 60.1627
106.149 93.5493 63.0957
POLYGONS 1280  5120
3 164 162 163
3 163 44 164
3 162 43 163
3 164 42 162
3 166 165 163
3 163 43 166
3 165 44 163
3 166 14 165
3 168 167 162
3 162 42 168
3 167 43 162
3 168 13 167
3 170 169 164
3 164 44 170
3 169 42 164
3 170 12 169
3 173 171 172
3 172 46 173
3 171 43 172
3 173 45 171
3 167 174 172
3 172 43 167
3 174 46 172
3 167 13 174
3 175 166 171
3 171 45 175
3 166 43 171
3 175 14 166
3 177 176 173
3 173 46 177
3 176 45 173
3 177 4 176
3 180 178 179
3 179 48 180
3 178 42 179
3 180 47 178
3 169 181 179
3 179 42 169
3 181 48 179
3 169 12 181
3 182 168 178
3 178 47 182
3 168 42 178
3 182 13 168
3 184 183 180
3 180 48 184
3 183 47 180
3 184 8 183
3 187 185 186
3 186 50 187
3 185 44 186
3 187 49 185
3 165 188 186
3 186 44 165
3 188 50 186
3 165 14 188
3 189 170 185
3 185 49 189
3 170 44 185
3 189 12 170
3 191 190 187
3 187 50 191
3 190 49 187
3 191 7 190
3 194 192 193
3 193 53 194
3 192 52 193
3 194 51 192
3 196 195 193
3 193 52 196
3 195 53 193
3 196 16 195
3 198 197 192
3 192 51 198
3 197 52 192
3 198 14 197
3 200 199 194
3 194 53 200
3 199 51 194
3 200 15 199
3 203 201 202
3 202 45 203
3 201 52 202
3 203 54 201
3 197 175 202
3 202 52 197
3 175 45 202
3 197 14 175
3 204 196 201
3 201 54 204
3 196 52 201
3 204 16 196
3 176 205 203
3 203 45 176
3 205 54 203
3 176 4 205
3 208 206 207
3 207 55 208
3 206 51 207
3 208 50 206
3 199 209 207
3 207 51 199
3 209 55 207
3 199 15 209
3 188 198 206
3 206 50 188
3 198 51 206
3 188 14 198
3 210 191 208
3 208 55 210
3 191 50 208
3 210 7 191
3 213 211 212
3 212 57 213
3 211 53 212
3 213 56 211
3 195 214 212
3 212 53 195
3 214 57 212
3 195 16 214
3 215 200 211
3 211 56 215
3 200 53 211
3 215 15 200
3 217 216 213
3 213 57 217
3 216 56 213
3 217 9 216
3 220 218 219
3 219 60 220
3 218 59 219
3 220 58 218
3 222 221 219
3 219 59 222
3 221 60 219
3 222 19 221
3 224 223 218
3 218 58 224
3 223 59 218
3 224 18 223
3 226 225 220
3 220 60 226
3 225 58 220
3 226 17 225
3 229 227 228
3 228 62 229
3 227 59 228
3 229 61 227
3 223 230 228
3 228 59 223
3 230 62 228
3 223 18 230
3 231 222 227
3 227 61 231
3 222 59 227
3 231 19 222
3 233 232 229
3 229 62 233
3 232 61 229
3 233 5 232
3 236 234 235
3 235 64 236
3 234 58 235
3 236 63 234
3 225 237 235
3 235 58 225
3 237 64 235
3 225 17 237
3 238 224 234
3 234 63 238
3 224 58 234
3 238 18 224
3 240 239 236
3 236 64 240
3 239 63 236
3 240 6 239
3 243 241 242
3 242 66 243
3 241 60 242
3 243 65 241
3 221 244 242
3 242 60 221
3 244 66 242
3 221 19 244
3 245 226 241
3 241 65 245
3 226 60 241
3 245 17 226
3 247 246 243
3 243 66 247
3 246 65 243
3 247 11 246
3 250 248 249
3 249 69 250
3 248 68 249
3 250 67 248
3 252 251 249
3 249 68 252
3 251 69 249
3 252 18 251
3 254 253 248
3 248 67 254
3 253 68 248
3 254 21 253
3 256 255 250
3 250 69 256
3 255 67 250
3 256 20 255
3 259 257 258
3 258 70 259
3 257 68 258
3 259 62 257
3 253 260 258
3 258 68 253
3 260 70 258
3 253 21 260
3 230 252 257
3 257 62 230
3 252 68 257
3 230 18 252
3 261 233 259
3 259 70 261
3 233 62 259
3 261 5 233
3 264 262 263
3 263 72 264
3 262 67 263
3 264 71 262
3 255 265 263
3 263 67 255
3 265 72 263
3 255 20 265
3 266 254 262
3 262 71 266
3 254 67 262
3 266 21 254
3 268 267 264
3 264 72 268
3 267 71 264
3 268 10 267
3 271 269 270
3 270 63 271
3 269 69 270
3 271 73 269
3 251 238 270
3 270 69 251
3 238 63 270
3 251 18 238
3 272 256 269
3 269 73 272
3 256 69 269
3 272 20 256
3 239 273 271
3 271 63 239
3 273 73 271
3 239 6 273
3 276 274 275
3 275 76 276
3 274 75 275
3 276 74 274
3 278 277 275
3 275 75 278
3 277 76 275
3 278 24 277
3 280 279 274
3 274 74 280
3 279 75 274
3 280 23 279
3 282 281 276
3 276 76 282
3 281 74 276
3 282 22 281
3 285 283 284
3 284 78 285
3 283 75 284
3 285 77 283
3 279 286 284
3 284 75 279
3 286 78 284
3 279 23 286
3 287 278 283
3 283 77 287
3 278 75 283
3 287 24 278
3 289 288 285
3 285 78 289
3 288 77 285
3 289 0 288
3 292 290 291
3 291 80 292
3 290 74 291
3 292 79 290
3 281 293 291
3 291 74 281
3 293 80 291
3 281 22 293
3 294 280 290
3 290 79 294
3 280 74 290
3 294 23 280
3 296 295 292
3 292 80 296
3 295 79 292
3 296 4 295
3 299 297 298
3 298 82 299
3 297 76 298
3 299 81 297
3 277 300 298
3 298 76 277
3 300 82 298
3 277 24 300
3 301 282 297
3 297 81 301
3 282 76 297
3 301 22 282
3 303 302 299
3 299 82 303
3 302 81 299
3 303 3 302
3 306 304 305
3 305 85 306
3 304 84 305
3 306 83 304
3 308 307 305
3 305 84 308
3 307 85 305
3 308 26 307
3 310 309 304
3 304 83 310
3 309 84 304
3 310 24 309
3 312 311 306
3 306 85 312
3 311 83 306
3 312 25 311
3 315 313 314
3 314 77 315
3 313 84 314
3 315 86 313
3 309 287 314
3 314 84 309
3 287 77 314
3 309 24 287
3 316 308 313
3 313 86 316
3 308 84 313
3 316 26 308
3 288 317 315
3 315 77 288
3 317 86 315
3 288 0 317
3 320 318 319
3 319 87 320
3 318 83 319
3 320 82 318
3 311 321 319
3 319 83 311
3 321 87 319
3 311 25 321
3 300 310 318
3 318 82 300
3 310 83 318
3 300 24 310
3 322 303 320
3 320 87 322
3 303 82 320
3 322 3 303
3 325 323 324
3 324 89 325
3 323 85 324
3 325 88 323
3 307 326 324
3 324 85 307
3 326 89 324
3 307 26 326
3 327 312 323
3 323 88 327
3 312 85 323
3 327 25 312
3 329 328 325
3 325 89 329
3 328 88 325
3 329 5 328
3 332 330 331
3 331 92 332
3 330 91 331
3 332 90 330
3 334 333 331
3 331 91 334
3 333 92 331
3 334 29 333
3 336 335 330
3 330 90 336
3 335 91 330
3 336 28 335
3 338 337 332
3 332 92 338
3 337 90 332
3 338 27 337
3 341 339 340
3 340 94 341
3 339 91 340
3 341 93 339
3 335 342 340
3 340 91 335
3 342 94 340
3 335 28 342
3 343 334 339
3 339 93 343
3 334 91 339
3 343 29 334
3 345 344 341
3 341 94 345
3 344 93 341
3 345 2 344
3 348 346 347
3 347 96 348
3 346 90 347
3 348 95 346
3 337 349 347
3 347 90 337
3 349 96 347
3 337 27 349
3 350 336 346
3 346 95 350
3 336 90 346
3 350 28 336
3 352 351 348
3 348 96 352
3 351 95 348
3 352 7 351
3 355 353 354
3 354 98 355
3 353 92 354
3 355 97 353
3 333 356 354
3 354 92 333
3 356 98 354
3 333 29 356
3 357 338 353
3 353 97 357
3 338 92 353
3 357 27 338
3 359 358 355
3 355 98 359
3 358 97 355
3 359 1 358
3 362 360 361
3 361 101 362
3 360 100 361
3 362 99 360
3 364 363 361
3 361 100 364
3 363 101 361
3 364 31 363
3 366 365 360
3 360 99 366
3 365 100 360
3 366 29 365
3 368 367 362
3 362 101 368
3 367 99 362
3 368 30 367
3 371 369 370
3 370 93 371
3 369 100 370
3 371 102 369
3 365 343 370
3 370 100 365
3 343 93 370
3 365 29 343
3 372 364 369
3 369 102 372
3 364 100 369
3 372 31 364
3 344 373 371
3 371 93 344
3 373 102 371
3 344 2 373
3 376 374 375
3 375 103 376
3 374 99 375
3 376 98 374
3 367 377 375
3 375 99 367
3 377 103 375
3 367 30 377
3 356 366 374
3 374 98 356
3 366 99 374
3 356 29 366
3 378 359 376
3 376 103 378
3 359 98 376
3 378 1 359
3 381 379 380
3 380 105 381
3 379 101 380
3 381 104 379
3 363 382 380
3 380 101 363
3 382 105 380
3 363 31 382
3 383 368 379
3 379 104 383
3 368 101 379
3 383 30 368
3 385 384 381
3 381 105 385
3 384 104 381
3 385 6 384
3 388 386 387
3 387 108 388
3 386 107 387
3 388 106 386
3 390 389 387
3 387 107 390
3 389 108 387
3 390 34 389
3 392 391 386
3 386 106 392
3 391 107 386
3 392 33 391
3 394 393 388
3 388 108 394
3 393 106 388
3 394 32 393
3 397 395 396
3 396 110 397
3 395 107 396
3 397 109 395
3 391 398 396
3 396 107 391
3 398 110 396
3 391 33 398
3 399 390 395
3 395 109 399
3 390 107 395
3 399 34 390
3 401 400 397
3 397 110 401
3 400 109 397
3 401 8 400
3 404 402 403
3 403 112 404
3 402 106 403
3 404 111 402
3 393 405 403
3 403 106 393
3 405 112 403
3 393 32 405
3 406 392 402
3 402 111 406
3 392 106 402
3 406 33 392
3 408 407 404
3 404 112 408
3 407 111 404
3 408 0 407
3 411 409 410
3 410 114 411
3 409 108 410
3 411 113 409
3 389 412 410
3 410 108 389
3 412 114 410
3 389 34 412
3 413 394 409
3 409 113 413
3 394 108 409
3 413 32 394
3 415 414 411
3 411 114 415
3 414 113 411
3 415 11 414
3 418 416 417
3 417 117 418
3 416 116 417
3 418 115 416
3 420 419 417
3 417 116 420
3 419 117 417
3 420 36 419
3 422 421 416
3 416 115 422
3 421 116 416
3 422 34 421
3 424 423 418
3 418 117 424
3 423 115 418
3 424 35 423
3 427 425 426
3 426 109 427
3 425 116 426
3 427 118 425
3 421 399 426
3 426 116 421
3 399 109 426
3 421 34 399
3 428 420 425
3 425 118 428
3 420 116 425
3 428 36 420
3 400 429 427
3 427 109 400
3 429 118 427
3 400 8 429
3 432 430 431
3 431 119 432
3 430 115 431
3 432 114 430
3 423 433 431
3 431 115 423
3 433 119 431
3 423 35 433
3 412 422 430
3 430 114 412
3 422 115 430
3 412 34 422
3 434 415 432
3 432 119 434
3 415 114 432
3 434 11 415
3 437 435 436
3 436 121 437
3 435 117 436
3 437 120 435
3 419 438 436
3 436 117 419
3 438 121 436
3 419 36 438
3 439 424 435
3 435 120 439
3 424 117 435
3 439 35 424
3 441 440 437
3 437 121 441
3 440 120 437
3 441 1 440
3 444 442 443
3 443 124 444
3 442 123 443
3 444 122 442
3 446 445 443
3 443 123 446
3 445 124 443
3 446 39 445
3 448 447 442
3 442 122 448
3 447 123 442
3 448 38 447
3 450 449 444
3 444 124 450
3 449 122 444
3 450 37 449
3 453 451 452
3 452 126 453
3 451 123 452
3 453 125 451
3 447 454 452
3 452 123 447
3 454 126 452
3 447 38 454
3 455 446 451
3 451 125 455
3 446 123 451
3 455 39 446
3 457 456 453
3 453 126 457
3 456 125 453
3 457 9 456
3 460 458 459
3 459 128 460
3 458 122 459
3 460 127 458
3 449 461 459
3 459 122 449
3 461 128 459
3 449 37 461
3 462 448 458
3 458 127 462
3 448 122 458
3 462 38 448
3 464 463 460
3 460 128 464
3 463 127 460
3 464 10 463
3 467 465 466
3 466 130 467
3 465 124 466
3 467 129 465
3 445 468 466
3 466 124 445
3 468 130 466
3 445 39 468
3 469 450 465
3 465 129 469
3 450 124 465
3 469 37 450
3 471 470 467
3 467 130 471
3 470 129 467
3 471 3 470
3 474 472 473
3 473 133 474
3 472 132 473
3 474 131 472
3 476 475 473
3 473 132 476
3 475 133 473
3 476 38 475
3 478 477 472
3 472 131 478
3 477 132 472
3 478 41 477
3 480 479 474
3 474 133 480
3 479 131 474
3 480 40 479
3 483 481 482
3 482 134 483
3 481 132 482
3 483 126 481
3 477 484 482
3 482 132 477
3 484 134 482
3 477 41 484
3 454 476 481
3 481 126 454
3 476 132 481
3 454 38 476
3 485 457 483
3 483 134 485
3 457 126 483
3 485 9 457
3 488 486 487
3 487 136 488
3 486 131 487
3 488 135 486
3 479 489 487
3 487 131 479
3 489 136 487
3 479 40 489
3 490 478 486
3 486 135 490
3 478 131 486
3 490 41 478
3 492 491 488
3 488 136 492
3 491 135 488
3 492 2 491
3 495 493 494
3 494 127 495
3 493 133 494
3 495 137 493
3 475 462 494
3 494 133 475
3 462 127 494
3 475 38 462
3 496 480 493
3 493 137 496
3 480 133 493
3 496 40 480
3 463 497 495
3 495 127 463
3 497 137 495
3 463 10 497
3 500 498 499
3 499 140 500
3 498 139 499
3 500 138 498
3 502 501 499
3 499 139 502
3 501 140 499
3 502 33 501
3 504 503 498
3 498 138 504
3 503 139 498
3 504 13 503
3 506 505 500
3 500 140 506
3 505 138 500
3 506 23 505
3 509 507 508
3 508 47 509
3 507 139 508
3 509 110 507
3 503 182 508
3 508 139 503
3 182 47 508
3 503 13 182
3 398 502 507
3 507 110 398
3 502 139 507
3 398 33 502
3 183 401 509
3 509 47 183
3 401 110 509
3 183 8 401
3 512 510 511
3 511 79 512
3 510 138 511
3 512 46 510
3 505 294 511
3 511 138 505
3 294 79 511
3 505 23 294
3 174 504 510
3 510 46 174
3 504 138 510
3 174 13 504
3 295 177 512
3 512 79 295
3 177 46 512
3 295 4 177
3 515 513 514
3 514 111 515
3 513 140 514
3 515 78 513
3 501 406 514
3 514 140 501
3 406 111 514
3 501 33 406
3 286 506 513
3 513 78 286
3 506 140 513
3 286 23 506
3 407 289 515
3 515 111 407
3 289 78 515
3 407 0 289
3 518 516 517
3 517 143 518
3 516 142 517
3 518 141 516
3 520 519 517
3 517 142 520
3 519 143 517
3 520 19 519
3 522 521 516
3 516 141 522
3 521 142 516
3 522 32 521
3 524 523 518
3 518 143 524
3 523 141 518
3 524 26 523
3 527 525 526
3 526 113 527
3 525 142 526
3 527 66 525
3 521 413 526
3 526 142 521
3 413 113 526
3 521 32 413
3 244 520 525
3 525 66 244
3 520 142 525
3 244 19 520
3 414 247 527
3 527 113 414
3 247 66 527
3 414 11 247
3 530 528 529
3 529 86 530
3 528 141 529
3 530 112 528
3 523 316 529
3 529 141 523
3 316 86 529
3 523 26 316
3 405 522 528
3 528 112 405
3 522 141 528
3 405 32 522
3 317 408 530
3 530 86 317
3 408 112 530
3 317 0 408
3 533 531 532
3 532 61 533
3 531 143 532
3 533 89 531
3 519 231 532
3 532 143 519
3 231 61 532
3 519 19 231
3 326 524 531
3 531 89 326
3 524 143 531
3 326 26 524
3 232 329 533
3 533 61 232
3 329 89 533
3 232 5 329
3 536 534 535
3 535 146 536
3 534 145 535
3 536 144 534
3 538 537 535
3 535 145 538
3 537 146 535
3 538 22 537
3 540 539 534
3 534 144 540
3 539 145 534
3 540 16 539
3 542 541 536
3 536 146 542
3 541 144 536
3 542 39 541
3 545 543 544
3 544 54 545
3 543 145 544
3 545 80 543
3 539 204 544
3 544 145 539
3 204 54 544
3 539 16 204
3 293 538 543
3 543 80 293
3 538 145 543
3 293 22 538
3 205 296 545
3 545 54 205
3 296 80 545
3 205 4 296
3 548 546 547
3 547 125 548
3 546 144 547
3 548 57 546
3 541 455 547
3 547 144 541
3 455 125 547
3 541 39 455
3 214 540 546
3 546 57 214
3 540 144 546
3 214 16 540
3 456 217 548
3 548 125 456
3 217 57 548
3 456 9 217
3 551 549 550
3 550 81 551
3 549 146 550
3 551 130 549
3 537 301 550
3 550 146 537
3 301 81 550
3 537 22 301
3 468 542 549
3 549 130 468
3 542 146 549
3 468 39 542
3 302 471 551
3 551 81 302
3 471 130 551
3 302 3 471
3 554 552 553
3 553 149 554
3 552 148 553
3 554 147 552
3 556 555 553
3 553 148 556
3 555 149 553
3 556 21 555
3 558 557 552
3 552 147 558
3 557 148 552
3 558 25 557
3 560 559 554
3 554 149 560
3 559 147 554
3 560 37 559
3 563 561 562
3 562 88 563
3 561 148 562
3 563 70 561
3 557 327 562
3 562 148 557
3 327 88 562
3 557 25 327
3 260 556 561
3 561 70 260
3 556 148 561
3 260 21 556
3 328 261 563
3 563 88 328
3 261 70 563
3 328 5 261
3 566 564 565
3 565 129 566
3 564 147 565
3 566 87 564
3 559 469 565
3 565 147 559
3 469 129 565
3 559 37 469
3 321 558 564
3 564 87 321
3 558 147 564
3 321 25 558
3 470 322 566
3 566 129 470
3 322 87 566
3 470 3 322
3 569 567 568
3 568 71 569
3 567 149 568
3 569 128 567
3 555 266 568
3 568 149 555
3 266 71 568
3 555 21 266
3 461 560 567
3 567 128 461
3 560 149 567
3 461 37 560
3 267 464 569
3 569 71 267
3 464 128 569
3 267 10 464
3 572 570 571
3 571 152 572
3 570 151 571
3 572 150 570
3 574 573 571
3 571 151 574
3 573 152 571
3 574 27 573
3 576 575 570
3 570 150 576
3 575 151 570
3 576 12 575
3 578 577 572
3 572 152 578
3 577 150 572
3 578 36 577
3 581 579 580
3 580 49 581
3 579 151 580
3 581 96 579
3 575 189 580
3 580 151 575
3 189 49 580
3 575 12 189
3 349 574 579
3 579 96 349
3 574 151 579
3 349 27 574
3 190 352 581
3 581 49 190
3 352 96 581
3 190 7 352
3 584 582 583
3 583 118 584
3 582 150 583
3 584 48 582
3 577 428 583
3 583 150 577
3 428 118 583
3 577 36 428
3 181 576 582
3 582 48 181
3 576 150 582
3 181 12 576
3 429 184 584
3 584 118 429
3 184 48 584
3 429 8 184
3 587 585 586
3 586 97 587
3 585 152 586
3 587 121 585
3 573 357 586
3 586 152 573
3 357 97 586
3 573 27 357
3 438 578 585
3 585 121 438
3 578 152 585
3 438 36 578
3 358 441 587
3 587 97 358
3 441 121 587
3 358 1 441
3 590 588 589
3 589 155 590
3 588 154 589
3 590 153 588
3 592 591 589
3 589 154 592
3 591 155 589
3 592 17 591
3 594 593 588
3 588 153 594
3 593 154 588
3 594 30 593
3 596 595 590
3 590 155 596
3 595 153 590
3 596 35 595
3 599 597 598
3 598 104 599
3 597 154 598
3 599 64 597
3 593 383 598
3 598 154 593
3 383 104 598
3 593 30 383
3 237 592 597
3 597 64 237
3 592 154 597
3 237 17 592
3 384 240 599
3 599 104 384
3 240 64 599
3 384 6 240
3 602 600 601
3 601 120 602
3 600 153 601
3 602 103 600
3 595 439 601
3 601 153 595
3 439 120 601
3 595 35 439
3 377 594 600
3 600 103 377
3 594 153 600
3 377 30 594
3 440 378 602
3 602 120 440
3 378 103 602
3 440 1 378
3 605 603 604
3 604 65 605
3 603 155 604
3 605 119 603
3 591 245 604
3 604 155 591
3 245 65 604
3 591 17 245
3 433 596 603
3 603 119 433
3 596 155 603
3 433 35 596
3 246 434 605
3 605 65 246
3 434 119 605
3 246 11 434
3 608 606 607
3 607 158 608
3 606 157 607
3 608 156 606
3 610 609 607
3 607 157 610
3 609 158 607
3 610 15 609
3 612 611 606
3 606 156 612
3 611 157 606
3 612 28 611
3 614 613 608
3 608 158 614
3 613 156 608
3 614 41 613
3 617 615 616
3 616 95 617
3 615 157 616
3 617 55 615
3 611 350 616
3 616 157 611
3 350 95 616
3 611 28 350
3 209 610 615
3 615 55 209
3 610 157 615
3 209 15 610
3 351 210 617
3 617 95 351
3 210 55 617
3 351 7 210
3 620 618 619
3 619 135 620
3 618 156 619
3 620 94 618
3 613 490 619
3 619 156 613
3 490 135 619
3 613 41 490
3 342 612 618
3 618 94 342
3 612 156 618
3 342 28 612
3 491 345 620
3 620 135 491
3 345 94 620
3 491 2 345
3 623 621 622
3 622 56 623
3 621 158 622
3 623 134 621
3 609 215 622
3 622 158 609
3 215 56 622
3 609 15 215
3 484 614 621
3 621 134 484
3 614 158 621
3 484 41 614
3 216 485 623
3 623 56 216
3 485 134 623
3 216 9 485
3 626 624 625
3 625 161 626
3 624 160 625
3 626 159 624
3 628 627 625
3 625 160 628
3 627 161 625
3 628 31 627
3 630 629 624
3 624 159 630
3 629 160 624
3 630 20 629
3 632 631 626
3 626 161 632
3 631 159 626
3 632 40 631
3 635 633 634
3 634 73 635
3 633 160 634
3 635 105 633
3 629 272 634
3 634 160 629
3 272 73 634
3 629 20 272
3 382 628 633
3 633 105 382
3 628 160 633
3 382 31 628
3 273 385 635
3 635 73 273
3 385 105 635
3 273 6 385
3 638 636 637
3 637 137 638
3 636 159 637
3 638 72 636
3 631 496 637
3 637 159 631
3 496 137 637
3 631 40 496
3 265 630 636
3 636 72 265
3 630 159 636
3 265 20 630
3 497 268 638
3 638 137 497
3 268 72 638
3 497 10 268
3 641 639 640
3 640 102 641
3 639 161 640
3 641 136 639
3 627 372 640
3 640 161 627
3 372 102 640
3 627 31 372
3 489 632 639
3 639 136 489
3 632 161 639
3 489 40 632
3 373 492 641
3 641 102 373
3 492 136 641
3 373 2 492
