# vtk DataFile Version 3.0
this file was written using fslvtkio
ASCII
DATASET POLYDATA
POINTS 1068 float
96.0883 143.216 102.922
95.0978 142.978 104.175
95.621 142.048 103.497
96.5925 141.805 102.704
97.3188 143.363 102.325
97.7604 142.009 102.322
98.6445 143.41 102.201
99.1377 142.14 102.493
99.8181 143.354 102.475
100.374 142.356 102.961
95.698 144.222 103.916
94.6331 143.684 105.177
96.8359 144.686 103.048
98.1526 144.821 102.609
99.6266 144.697 102.652
100.792 143.95 103.078
95.2562 144.985 104.881
94.3683 144.776 106.016
96.3456 145.691 104.054
97.6599 146.096 103.561
99.0563 145.959 103.386
100.379 145.318 103.658
95.6219 146.064 105.273
97.0363 146.788 104.638
98.5822 147.077 104.512
99.7246 146.558 104.455
100.587 137.579 101.72
99.593 136.659 102.45
100.517 136.021 101.901
101.636 136.405 101.732
101.832 137.721 102.279
102.694 136.908 102.42
99.2699 138.093 102.1
98.2804 138.527 103.006
98.6536 137.268 103.334
100.386 139.016 102.223
101.422 138.887 102.773
102.646 138.299 103.15
98.4014 139.713 102.306
97.382 139.332 103.408
99.5986 139.72 102.261
100.945 140.256 102.985
102.316 139.689 103.623
95.9894 140.89 103.629
94.944 141.58 104.489
95.4833 140.485 104.976
96.3169 139.861 104.277
97.1629 140.504 102.892
98.4281 141.113 102.503
99.7894 141.015 102.801
100.969 141.589 103.539
101.962 140.831 103.964
94.3346 142.261 105.464
101.566 142.967 103.641
93.8938 143.12 106.364
101.533 144.527 103.979
93.5837 144.052 107.15
100.722 146.026 104.763
94.7803 146.085 106.417
93.9405 145.405 107.467
95.8607 147.044 105.957
97.2686 147.483 105.627
98.5277 147.592 105.808
99.6329 147.232 105.922
94.8863 146.89 107.327
96.1845 147.503 107.034
97.4354 147.68 106.801
104.038 132.689 102.068
102.642 132.196 102.465
103.538 131.27 103.192
104.733 131.188 102.778
105.267 132.921 102.905
105.784 131.672 103.155
106.171 132.943 103.595
106.417 131.834 104.211
102.606 133.582 101.703
101.087 134.041 102.322
101.719 133.045 102.999
103.734 134.441 102.169
104.81 134.476 102.793
105.86 134.38 103.606
106.433 133.297 104.577
101.446 134.897 101.806
100.127 135.251 102.722
102.764 135.382 102.072
104.109 135.974 102.896
105.301 135.916 103.701
106.317 135.18 104.56
99.3197 136.095 103.766
103.646 137.242 103.244
104.81 137.442 104.139
105.951 136.9 104.786
97.692 137.95 104.273
98.4433 136.762 104.693
103.312 138.916 104.012
104.262 138.752 104.57
105.576 138.336 105.48
96.9565 138.867 104.579
96.2532 139.3 105.644
97.0235 138.322 105.757
103.267 140.606 104.581
104.321 140.236 105.173
105.14 139.432 105.563
94.6847 141.008 105.965
95.4118 139.907 106.289
102.21 142.013 104.363
103.092 142.096 105.119
104.031 141.415 105.725
93.9715 141.689 106.85
102.436 143.547 104.582
103.007 143.422 105.6
103.671 142.647 106.032
93.5534 142.547 107.744
101.822 145.13 105.074
102.529 144.669 105.853
93.342 144.328 108.285
100.822 146.443 105.92
101.589 145.754 106.273
93.6451 145.679 108.906
99.5974 147.272 107.553
98.478 147.616 107.013
100.621 146.691 107.15
94.3673 146.723 108.462
95.6419 147.455 108.511
96.9954 147.606 108.164
102.446 132.031 104.073
103.389 130.568 104.341
104.54 130.003 103.838
105.746 130.512 103.865
106.21 131.393 105.23
100.664 134.152 103.698
101.544 133.236 104.329
106.182 132.962 105.615
99.9267 135.037 104.227
106.457 134.513 105.602
106.595 135.929 105.619
106.4 135.151 106.891
99.2687 135.727 105.281
106.481 137.306 105.903
106.567 136.457 107.043
97.6298 137.293 105.675
98.3051 136.517 106.091
106.473 138.06 106.569
106.442 137.505 107.725
96.1052 138.714 106.94
96.8335 137.68 107.005
105.22 140.525 106.365
105.977 139.569 106.575
106.407 138.698 107.205
94.535 140.365 107.327
95.3056 139.236 107.672
105 141.301 106.826
105.583 140.867 107.789
93.859 140.992 108.14
103.513 143.786 106.717
104.149 142.622 106.91
104.806 141.933 107.397
93.209 142.856 108.817
102.652 144.832 107.014
103.445 143.973 107.957
93.0349 144.355 109.467
102.399 144.925 107.945
101.552 145.825 107.35
93.3684 145.46 110.153
98.3026 147.51 108.114
99.2188 147.097 108.542
100.322 146.488 108.547
94.0859 146.609 110.001
95.2233 147.193 109.786
96.583 147.343 109.526
97.853 147.275 109.163
102.785 131.286 105.058
103.17 130.246 105.612
104.236 129.531 105.175
105.658 129.94 105.239
105.588 131.585 106.591
100.845 133.83 105.317
101.698 132.808 105.51
102.24 131.813 106.003
105.829 132.864 106.864
106.208 133.936 106.542
105.939 134.071 107.76
99.9803 134.599 105.628
100.348 133.881 106.742
106.113 135.231 108.281
98.9897 135.527 106.671
106.196 136.318 108.701
97.4325 136.797 107.414
98.2289 136.199 107.013
106.115 137.335 109.173
96.0645 137.932 108.284
96.7572 137.261 107.981
106.027 139.694 107.942
106.1 138.493 108.788
94.5168 139.492 108.752
95.3063 138.625 108.649
105.621 140.314 108.735
105.589 139.548 109.408
93.6778 140.594 109.121
93.2005 140.816 110.326
93.8613 139.806 109.801
104.157 142.802 108.142
104.889 141.727 108.673
105.143 140.834 109.546
93.2466 141.9 109.402
92.8573 141.868 110.793
103.703 143.571 108.826
104.084 142.878 109.348
92.9222 143.21 110.162
92.6712 142.896 111.44
101.482 145.619 108.392
102.48 144.583 108.909
103.022 143.972 109.674
92.909 144.459 110.899
92.7498 144.042 112.031
99.9976 146.062 109.934
98.9908 146.722 109.476
101.012 145.562 109.288
93.4787 145.808 111.313
94.3279 146.607 111.506
95.2456 146.945 111.071
96.4679 147.055 110.722
97.6762 146.921 110.275
104.562 129.196 106.365
103.142 129.561 106.677
103.615 128.731 107.834
104.815 129.358 107.684
105.417 130.19 106.667
104.988 130.687 108.102
102.588 130.684 106.661
105.058 131.736 108.482
101.17 132.987 107.089
101.856 131.649 107.29
105.523 132.81 108.105
105.665 133.893 109.044
99.2223 134.629 107.36
99.8051 133.684 108.325
105.805 135.094 109.73
97.9371 136.004 107.957
97.7802 135.68 109.108
98.5224 135.166 108.27
105.761 136.287 110.212
96.6664 136.855 108.997
96.0522 136.647 110.311
96.9371 135.958 110.06
105.726 137.662 110.315
95.4941 137.897 109.588
94.6127 137.951 110.829
95.2845 136.975 111.147
105.462 138.702 110.432
94.3824 138.813 109.94
93.4901 139.595 110.958
93.7968 138.458 111.459
105.113 139.854 110.65
92.8898 140.455 111.678
104.469 140.889 110.84
104.284 141.858 109.941
92.5863 141.428 112.293
103.519 143.002 110.368
92.4996 142.517 112.819
102.443 143.811 110.822
101.836 144.687 109.879
92.659 143.594 113.306
99.6867 145.665 111.047
98.6937 146.384 110.577
100.808 145.255 110.47
93.1829 145.078 112.513
93.9658 146.075 112.66
95.1844 146.614 112.45
96.3093 146.673 111.926
97.5038 146.483 111.476
102.616 129.456 107.99
101.677 130.178 109.133
102.367 128.819 109.092
103.617 128.37 109.001
104.555 129.545 109.045
104.455 130.537 109.942
102.02 130.569 107.951
101.243 131.759 108.496
104.66 131.547 110.369
100.589 132.824 108.657
105.218 132.69 109.667
105.339 133.761 110.48
98.7403 134.511 108.953
97.9855 134.04 110.564
98.9249 133.595 109.931
99.7511 132.953 109.814
105.384 134.984 111.117
97.627 134.972 110.206
96.5379 135.283 111.381
97.0678 134.23 111.736
105.307 136.412 111.457
95.83 135.748 112.015
105.137 137.668 111.67
94.3889 137.506 112.069
94.9782 136.348 112.496
104.853 138.846 111.8
93.1633 139.214 112.373
93.5308 138.027 112.825
104.52 139.933 111.829
92.6752 139.979 113.127
103.876 140.997 111.916
103.721 141.981 111.087
92.4053 140.98 113.726
102.947 142.853 111.542
92.4374 142.112 114.183
102.002 143.627 111.996
101.412 144.499 111.072
92.7288 143.187 114.557
98.5502 145.96 111.426
99.291 145.52 111.923
100.322 145.028 111.773
93.1872 144.593 113.742
93.8961 145.582 113.735
95.0471 146.078 113.632
96.2224 146.213 113.199
97.2383 146.001 112.695
98.1454 145.755 112.264
102.867 127.713 109.743
101.651 128.721 110.145
102.181 127.197 110.467
103.568 126.88 110.849
104.046 128.127 109.956
103.875 128.016 111.243
104.153 129.213 110.346
103.968 129.24 111.626
101.078 130.424 110.057
104.181 130.269 111.842
100.618 131.564 109.881
104.423 131.303 112.11
100.213 132.294 109.943
99.4909 131.951 111.153
100.111 131.595 110.63
104.91 132.568 111.23
105.104 133.721 111.977
97.7965 133.062 111.703
98.9053 132.725 111.022
105.048 135.067 112.403
95.9769 134.165 112.959
96.7093 133.282 112.741
104.874 136.47 112.715
95.1536 134.997 113.24
104.591 137.781 112.927
94.0769 136.753 113.239
94.6252 135.842 113.245
104.2 139.03 113.032
92.7758 138.582 113.842
93.2803 137.442 113.876
103.974 140.181 112.711
92.4352 139.484 114.558
103.434 140.826 112.961
103.116 141.845 112.373
92.3366 140.63 115.121
102.451 142.66 112.736
92.5613 141.727 115.517
101.543 143.283 113.043
100.994 144.25 112.166
92.9421 142.82 115.656
100.055 144.455 112.919
99.2174 145.15 112.724
93.3277 144.145 114.842
94.0346 145.044 114.799
95.0843 145.549 114.681
96.1737 145.649 114.319
97.1546 145.494 113.845
98.1462 145.427 113.245
102.644 126.039 111.087
101.368 127.118 111.224
101.877 125.341 111.906
103.163 125.444 112.165
103.679 126.491 112.064
103.448 126.275 113.401
100.998 128.618 111.083
103.627 127.76 112.525
103.733 128.927 113.223
100.559 129.802 111.281
99.725 129.412 112.395
100.407 128.83 111.824
103.888 129.972 113.672
100.001 130.916 111.275
99.12 130.661 112.316
104.135 131.147 113.594
98.5454 131.919 112.134
97.757 131.131 113.213
98.4598 130.842 112.779
104.681 132.472 112.677
104.693 133.796 113.347
97.2625 132.381 112.924
95.7065 132.74 113.989
96.5901 131.688 113.938
104.642 135.208 113.632
94.8378 133.715 114.231
104.377 136.61 113.885
94.3817 135.311 113.977
93.5385 135.294 115.027
94.0219 134.359 114.791
103.95 137.814 114.105
93.551 136.332 114.388
92.8543 137.38 114.989
92.9776 136.032 115.616
103.769 138.917 113.974
103.374 138.556 114.947
103.214 139.745 114.37
92.4502 138.267 115.48
103.621 139.969 113.564
102.868 140.909 113.823
92.2446 139.359 116.029
102.326 141.66 113.701
92.4475 140.484 116.529
101.783 142.449 113.828
92.914 141.535 116.693
101.288 143.051 113.75
100.749 143.763 113.342
93.2362 142.739 116.376
93.4717 143.724 115.829
93.9035 143.488 116.77
99.9713 144.058 113.669
99.105 144.72 113.649
94.1816 144.504 115.768
95.2118 144.96 115.65
96.1069 145.135 115.239
97.1443 144.99 114.995
98.048 144.914 114.199
100.932 126.4 112.131
100.197 126.317 113.054
100.77 125.233 112.899
101.889 124.358 112.721
103.202 124.819 113.209
103.088 125.616 114.799
100.335 127.844 112.223
99.6164 127.194 113.534
103.337 127.473 114.013
103.499 128.708 114.756
99.358 128.518 113.363
98.2885 128.545 114.302
99.0528 127.767 113.972
103.663 129.985 115.296
98.5752 129.883 113.438
97.4573 129.567 114.499
104.008 131.312 114.671
104.334 132.453 113.758
104.152 132.771 114.761
97.09 130.601 114.134
95.5727 131.382 114.967
96.3381 130.068 115.005
104.28 134.068 114.598
94.6691 132.367 115.285
104.196 135.445 114.77
94.1682 133.272 115.384
103.853 136.528 115.029
93.1852 134.368 116.01
93.6507 133.655 115.741
103.447 137.439 115.448
92.5281 136.903 116.422
92.6555 135.278 116.61
102.85 138.555 115.869
102.741 139.828 115.069
92.2627 138.024 116.933
102.138 140.62 115.04
92.3553 139.237 117.467
101.659 141.505 114.969
92.8837 140.403 117.811
101.118 142.74 114.364
101.137 141.95 115.127
100.627 142.356 115.219
93.3829 141.374 117.656
93.4238 142.38 117.12
93.9258 142.338 117.752
100.198 143.494 114.282
99.9251 142.641 115.487
99.4296 143.334 115.092
94.5747 143.148 117.579
98.1855 144.262 115.012
98.0628 143.727 115.777
97.3879 144.185 115.73
99.1589 144.109 114.468
98.6689 143.456 115.562
94.6361 144.031 116.732
95.4633 144.359 116.482
96.439 144.535 116.045
102.654 123.37 113.254
101.197 123.46 113.472
101.399 122.56 113.867
102.804 122.715 114.245
103.292 124.165 114.31
102.979 123.89 115.533
99.6346 125.334 114.123
100.329 124.243 113.609
102.745 125.425 116.138
98.8553 126.939 114.397
98.1985 126.202 115.3
98.9824 125.699 114.749
103.102 127.132 115.306
103.303 128.555 116.133
97.6012 127.626 115.093
96.2469 127.965 116.008
97.025 126.695 115.975
103.382 130.011 116.714
96.6973 128.803 115.283
95.3519 129.818 115.842
103.805 131.374 115.723
103.836 132.827 115.951
94.5783 130.897 116.081
103.815 134.179 115.68
93.8252 131.687 116.454
93.1373 131.208 117.79
93.7633 130.602 117.252
103.635 135.185 115.999
93.4305 132.713 116.575
92.83 132.374 117.801
103.347 136.162 116.356
92.7843 133.767 117.056
92.3424 135.451 117.583
92.4291 133.64 117.946
102.95 137.277 116.44
92.2549 136.723 117.882
102.443 138.128 116.781
102.146 139.311 116.181
92.3735 137.899 118.321
101.595 140.134 116.272
92.8012 139.094 118.704
101.053 141.128 115.84
100.951 140.105 117.006
100.382 140.82 116.78
93.3368 140.198 118.791
98.6788 142.126 117.064
98.3871 141.163 118.34
97.9982 142.072 117.549
99.5112 141.625 116.849
99.0138 141.162 117.781
100.205 141.73 116.125
99.693 140.677 117.561
93.8535 141.133 118.535
94.5046 142.003 118.438
98.1085 143.103 116.445
97.4542 142.694 117.273
99.1481 142.569 116.205
95.0995 142.651 118.074
95.4283 143.53 117.322
96.258 143.708 116.906
95.8991 142.799 117.917
97.1249 143.578 116.539
96.6739 142.828 117.61
100.063 121.467 114.941
99.0206 121.855 115.559
99.5402 120.267 115.822
100.949 120.336 115.352
101.225 121.716 114.492
102.232 121.008 115.202
102.813 122.177 115.004
102.771 122.19 116.087
99.9371 123.156 114.466
98.7862 123.094 115.525
102.551 123.719 116.766
99.0304 124.454 114.981
97.7024 124.499 116.118
97.7623 123.49 116.307
102.542 125.293 117.464
97.6835 125.511 115.879
96.1757 126.048 116.746
96.8206 124.864 116.607
102.975 126.954 116.633
103.106 128.426 117.494
95.4801 127.79 116.665
103.158 129.733 117.826
94.8403 128.821 116.867
93.6584 128.637 118.035
94.455 127.673 117.555
103.426 131.319 116.791
103.086 130.979 118.078
94.2486 129.77 117.088
93.1128 129.808 118.428
103.395 132.38 117.08
103.426 133.674 116.927
92.4935 130.861 119.053
103.154 134.716 117.279
92.4131 132.507 118.602
92.1782 134.026 118.727
92.1182 132.11 119.565
102.836 136.101 117.266
92.2232 135.321 118.914
102.531 137.074 117.209
102.332 136.32 117.949
101.998 137.689 117.665
92.4031 136.52 119.243
101.647 138.758 117.328
92.7957 137.689 119.556
101.285 139.387 117.354
93.2542 138.638 119.749
93.5606 139.688 119.467
94.2161 139.296 120.073
100.337 140.108 117.6
100.468 139.282 118.23
99.8726 139.745 118.404
100.929 139.046 117.974
93.8416 140.414 119.209
94.4659 140.245 119.697
98.1079 140.334 119.243
97.6413 141.504 118.608
99.0026 140.197 118.687
95.3986 141.909 118.808
94.6945 141.17 119.248
96.3032 141.974 118.625
95.8415 141.175 119.469
97.0903 142.043 118.279
96.7833 141.227 119.304
97.182 120.822 117.232
96.0149 120.535 118.095
96.7757 119.476 117.729
98.0372 119.598 116.691
98.2887 120.975 116.329
99.5692 119.134 116.204
101.148 119.399 116.18
102.332 120.475 116.289
102.353 121.838 117.244
96.5838 122.159 117.423
95.5896 122.194 118.137
97.6329 122.372 116.641
102.19 123.349 117.919
96.3581 123.758 117.228
95.2386 123.59 118.095
102.172 124.585 118.64
95.4944 124.979 117.484
94.3138 125.778 118.276
94.578 124.489 118.412
102.741 126.79 117.782
102.364 126.115 118.846
95.0498 126.61 117.432
93.6838 127.162 118.579
102.728 127.784 118.514
102.715 129.211 118.744
92.8598 128.388 119.103
102.573 130.486 119.142
92.4155 129.574 119.765
103.031 132.402 118.036
102.479 131.886 119.074
92.1425 130.773 120.419
102.76 133.418 118.273
102.163 133.035 119.42
92.14 133.792 119.781
92.1184 132.357 120.622
102.235 134.37 118.896
101.712 133.916 119.722
101.607 134.97 119.45
102.619 134.938 118.124
92.4129 134.976 120.21
101.828 136.05 118.682
101.15 135.731 119.652
92.6767 136.22 120.467
101.427 137.259 118.652
100.782 136.886 119.629
93.1948 137.043 120.662
100.719 138.031 118.891
100.45 137.495 119.645
99.981 137.916 119.648
101.296 138.487 118.08
93.5857 137.943 120.603
95.2606 139.554 120.363
94.4189 138.567 120.671
95.5477 138.804 120.976
99.8952 138.92 119.041
99.2947 138.421 119.826
99.0597 139.317 119.389
95.4302 140.4 119.871
96.321 139.413 120.57
96.5027 140.231 119.975
97.3576 140.546 119.535
97.318 139.481 120.256
98.2198 139.444 119.812
98.7032 117.142 117.196
97.1367 117.071 117.811
97.4918 116.082 117.719
99.0849 115.818 117.53
100.259 117.249 117.169
100.374 116.393 117.771
101.179 117.809 117.789
100.959 117.283 118.548
97.2813 118.276 117.561
95.6441 118.892 118.741
96.0944 117.664 118.644
98.6654 118.415 116.748
100.073 118.247 116.641
101.44 118.742 117.219
101.374 118.901 118.591
95.0027 120.533 118.854
102.043 120.173 117.478
101.826 121.66 118.396
94.7404 122.398 118.898
101.775 123.107 119.11
94.4355 123.587 118.819
93.6466 124.563 119.364
93.7947 123.13 119.48
101.867 124.875 119.729
93.3352 125.908 119.402
101.945 126.398 120.075
92.8374 127.099 119.801
102.375 127.764 119.451
102.184 129.13 119.843
92.3297 128.174 120.484
102.022 130.414 120.086
92.2303 129.32 121.125
101.82 131.687 120.191
92.2709 130.496 121.694
101.676 132.795 120.137
92.4488 133.564 121.083
92.4018 131.94 121.649
101.344 133.187 120.364
101.019 134.063 120.454
92.9136 134.882 121.342
92.923 133.581 122.05
100.472 135.576 120.294
93.3701 136.092 121.388
93.7822 135.05 122.144
100.102 136.859 120.214
99.8313 135.632 120.794
99.4187 136.437 120.882
93.8761 137.072 121.273
94.3126 136.299 121.935
98.4142 137.625 120.961
98.0008 136.742 121.639
97.5317 137.616 121.433
99.2865 137.543 120.492
98.7671 136.48 121.3
94.5802 137.734 121.325
96.6435 138.593 121.114
95.5852 138.024 121.471
97.6759 138.557 120.839
96.6387 137.631 121.654
98.5761 138.558 120.308
96.4316 103.241 117.138
95.3325 103.701 117.309
95.3932 102.002 116.914
96.4594 102.088 117.45
96.9196 103.287 118.082
96.4865 102.629 118.606
96.336 104.508 117.48
95.747 105.248 117.738
97.0813 104.464 118.106
96.9027 104.03 119.236
96.7564 105.831 117.974
97.2106 105.476 118.845
95.985 115.317 119.044
94.5901 116.076 120.184
94.9328 114.83 120.08
96.6378 114.241 118.699
97.4604 115.114 118.011
98.5104 113.994 118.304
99.4149 114.921 118.083
99.9856 114.608 119.288
95.8133 116.462 119.035
94.7536 117.54 119.732
100.538 115.89 118.67
100.79 117.597 119.472
94.5385 119.17 119.557
100.811 119.102 120.004
94.1518 120.464 119.653
93.3611 121.316 120.444
93.6166 119.772 120.399
101.463 120.349 118.907
101.313 121.8 119.764
94.0063 121.797 119.595
93.1596 123.144 120.297
101.438 123.38 120.195
92.8189 124.652 120.452
101.367 124.804 120.847
92.5036 125.871 120.779
101.037 125.72 121.477
92.3132 127.011 121.362
101.84 127.656 120.39
101.155 126.947 121.243
92.3774 128.192 122.114
101.565 128.706 120.868
100.866 128.392 121.658
92.5994 129.418 122.62
101.292 130.061 120.991
100.711 130.408 121.597
92.7264 130.942 122.77
101.216 131.952 120.823
100.494 131.639 121.527
93.0871 132.418 122.678
100.577 133.11 121.156
99.9215 131.966 122.065
99.6304 132.895 122.056
93.7184 133.736 122.739
98.6862 134.336 122.262
97.9451 133.622 123.089
97.6365 134.514 122.706
99.664 133.982 121.77
98.7483 133.077 122.723
100.178 134.625 121.012
94.5411 134.816 122.693
95.1549 135.932 122.421
96.4002 135.888 122.496
95.5934 135.009 122.878
97.5442 135.425 122.314
96.6797 134.862 122.887
98.2246 135.65 121.749
99.168 135.23 121.459
95.0922 137.04 121.898
96.0144 136.93 122.091
97.1863 136.611 122.039
93.8424 101.472 117.728
93.4836 102.503 118.328
93.0799 101.265 118.961
93.8831 100.328 118.375
94.9081 100.941 117.313
95.055 100.575 118.791
94.42 102.907 117.558
93.9318 103.847 118.508
95.9711 101.296 118.222
96.1023 102.318 119.456
94.8563 104.935 118.064
94.003 105.126 119
96.3962 103.685 120.019
94.9175 106.597 118.629
94.0239 106.709 119.599
95.9955 106.702 118.138
97.2821 106.894 118.6
97.1195 105.697 119.842
94.9609 108.121 119.11
93.899 107.912 120.11
96.0652 108.246 118.515
97.232 108.245 118.455
97.7429 107.037 119.683
98.0253 108.27 119.265
97.9134 108.1 120.317
94.8434 109.296 119.61
93.6911 108.997 120.663
96.0266 109.766 118.768
97.3545 109.82 118.423
98.305 109.633 119.115
98.2313 109.36 120.349
94.6594 110.347 119.97
95.7655 111.048 119.166
94.5894 111.535 120.214
97.2784 111.27 118.616
98.5928 111.09 119.185
98.5168 110.7 120.385
95.3379 112.453 119.629
94.1614 112.643 120.926
96.6683 112.373 118.802
98.6726 112.256 118.907
98.9099 112.058 120.671
94.343 113.558 120.764
95.4707 113.697 119.582
93.8606 114.693 121.44
97.4619 113.156 118.597
99.1998 112.99 120.575
99.3852 113.373 119.122
99.4119 114.005 120.727
93.6425 115.758 121.652
99.7454 115.179 120.775
93.8612 117.091 121.036
93.3491 118.053 121.486
93.2546 116.663 122.57
100.443 116.177 119.985
100.275 117.495 120.75
93.886 118.389 120.519
93.0631 119.757 121.35
100.076 118.509 121.442
92.8305 121.645 121.302
100.944 120.438 120.26
100.251 119.846 121.531
92.5173 123.19 121.387
100.857 121.453 120.955
100.929 122.905 121.158
92.3191 124.562 121.777
100.7 124.073 121.836
92.3217 125.776 122.338
100.405 125.153 122.251
99.9643 123.97 122.637
99.5853 125.068 123.05
92.5119 127.031 122.937
100.221 126.338 122.415
99.3474 126.619 123.284
92.8944 128.329 123.621
100.215 127.575 122.379
99.267 127.982 123.204
93.1805 129.752 123.733
99.6189 129.055 122.864
98.6344 128.703 123.687
98.5585 129.739 123.652
100.326 129.279 122.188
93.4939 131.294 123.591
99.1173 130.459 123.012
98.415 130.883 123.483
99.8977 130.544 122.381
93.9274 132.502 123.31
99.243 131.832 122.706
98.3804 132.012 123.28
94.4949 133.286 123.325
94.9245 134.09 123.113
96.0816 134.073 123.321
95.6488 133.267 123.681
97.0712 134.001 123.254
96.7945 133.046 123.664
97.6532 132.525 123.526
93.1147 102.861 119.37
92.9799 101.423 120.058
93.7719 100.345 119.725
94.6587 100.755 120.369
93.2218 104.116 119.942
95.4782 101.424 119.814
95.5841 102.601 120.659
93.3832 105.422 120.122
96.3728 104.464 120.716
93.2901 106.476 120.901
96.6409 105.825 121.13
93.2193 107.638 121.46
97.3007 107.054 120.725
97.5971 108.619 121.282
93.1798 108.584 122.016
97.897 110.056 121.665
93.8184 110.226 120.816
93.3401 109.731 121.921
98.1128 111.406 121.843
93.6886 111.185 121.29
93.5598 112.257 121.934
98.0884 112.497 122.521
93.5779 113.562 122.409
93.5926 114.294 123.53
98.3001 113.527 122.523
98.7444 114.642 122.349
93.45 115.399 123.625
98.8579 115.53 122.449
93.0722 118.219 122.493
93.3405 116.757 123.951
99.6169 116.394 121.456
99.3342 117.248 122.311
92.7452 120.023 122.354
99.3635 118.693 122.587
92.6175 121.669 122.437
99.3707 119.997 122.864
92.5425 123.091 122.683
100.322 121.531 121.906
99.6813 121.223 122.752
92.5609 124.393 123.134
100.041 122.682 122.368
99.2817 123.205 123.273
92.7014 125.622 123.81
98.8451 124.808 123.726
92.9982 126.803 124.129
98.5285 126.331 123.967
98.0406 125.178 124.447
97.6447 126.401 124.701
93.5266 127.856 124.551
94.015 129.039 124.556
95.3925 128.813 125.068
94.4958 127.807 125.096
96.675 128.352 125.144
95.69 127.466 125.384
97.6724 127.62 124.639
96.7857 126.918 125.261
98.5245 127.737 123.941
94.2398 130.435 124.203
95.2848 129.99 124.614
96.5031 129.584 124.785
97.6475 128.981 124.462
94.532 131.692 123.957
95.421 131.188 124.326
96.4784 130.759 124.46
97.54 130.217 124.21
94.8574 132.616 123.677
95.6877 132.323 123.979
96.6277 131.916 124.086
97.5263 131.373 123.891
93.0505 102.623 120.667
93.517 101.249 121.103
93.1473 103.747 121.322
93.5961 102.585 121.825
94.6851 101.871 121.358
93.181 105.064 121.497
93.5348 104.187 122.512
94.4012 103.261 122.533
95.2872 103.217 121.743
95.9657 104.415 121.633
93.1649 106.401 122.31
96.2809 106.025 122.175
93.3329 107.671 122.906
96.9466 107.448 121.834
97.1721 109.037 122.39
93.4274 108.898 123.308
97.352 110.685 122.84
93.362 110.027 123.304
97.2648 111.956 123.456
93.2959 110.941 122.447
93.356 111.661 123.379
97.0584 113.241 124.066
93.4557 112.666 123.345
94.5401 114.317 125.224
93.8882 113.151 124.513
96.4606 114.204 124.876
95.515 113.22 125.315
97.7353 114.341 123.587
94.1139 115.56 124.948
95.7587 115.394 125.409
97.3726 115.202 124.229
93.1033 118.527 123.482
93.6099 117.668 124.691
94.4345 116.57 125.461
96.0551 116.612 125.56
96.6814 117.679 125.2
97.2315 116.341 124.616
98.3143 116.279 123.349
92.8665 120.166 123.534
97.6223 117.965 124.354
97.0363 119.034 125.234
98.411 117.591 123.491
92.869 121.555 123.653
97.8339 119.762 124.471
97.0134 120.476 125.356
98.5336 119.022 123.696
92.8697 122.798 123.916
97.8463 121.367 124.58
96.9373 121.955 125.412
98.6997 120.709 123.707
93.0053 124.037 124.201
97.7503 122.803 124.641
96.648 123.224 125.428
98.7666 122.156 123.726
93.4038 124.671 124.749
93.7264 125.743 125.018
95.1377 125.184 125.501
94.3227 124.384 125.306
96.5115 124.448 125.569
95.4897 123.838 125.615
97.4505 124.145 124.977
98.3061 123.845 124.231
93.8076 126.942 124.971
94.8131 126.532 125.301
96.0319 126.023 125.496
97.0848 125.394 125.178
93.5497 105.502 123.083
94.4873 104.857 123.4
95.2739 104.438 122.621
93.8706 106.92 123.697
94.8598 106.374 123.821
95.6901 105.869 123.077
94.0016 108.341 124.198
95.0175 107.984 124.36
95.8838 107.702 123.731
96.354 107.516 122.812
93.9473 109.656 124.574
95.0991 109.492 124.889
95.9846 109.383 124.284
96.6543 109.275 123.347
93.5651 110.736 124.285
94.6799 110.794 125.15
95.8758 110.905 124.94
96.6796 110.804 123.949
93.9817 111.9 124.649
95.0949 112.192 125.218
96.3925 112.247 124.657
93.4152 119.126 124.57
94.2855 118.27 125.474
95.3291 117.593 125.674
93.4476 120.365 124.771
94.3862 119.561 125.717
95.6911 118.738 125.797
93.5234 121.537 124.924
94.5803 120.698 125.827
95.9493 119.992 126.001
93.6166 122.742 124.964
94.6628 121.886 125.638
95.9468 121.283 125.87
93.7572 123.73 125.034
94.6486 123.097 125.464
95.7643 122.505 125.72
POLYGONS 2132  8528
3 0 1 2
3 0 3 4
3 2 3 0
3 4 5 6
3 3 5 4
3 6 7 8
3 5 7 6
3 7 9 8
3 10 1 0
3 11 1 10
3 4 12 0
3 12 10 0
3 6 13 4
3 13 12 4
3 8 14 6
3 14 13 6
3 15 8 9
3 14 8 15
3 16 11 10
3 17 11 16
3 12 18 10
3 18 16 10
3 13 19 12
3 19 18 12
3 14 20 13
3 20 19 13
3 21 14 15
3 20 14 21
3 16 22 17
3 18 22 16
3 23 22 18
3 19 23 18
3 24 23 19
3 20 24 19
3 25 24 20
3 21 25 20
3 26 27 28
3 26 29 30
3 28 29 26
3 29 31 30
3 32 33 34
3 27 32 34
3 27 26 32
3 26 35 32
3 30 36 26
3 36 35 26
3 37 30 31
3 36 30 37
3 38 33 32
3 39 33 38
3 35 40 32
3 40 38 32
3 36 41 35
3 41 40 35
3 42 36 37
3 41 36 42
3 43 44 45
3 43 46 47
3 45 46 43
3 39 47 46
3 39 38 47
3 38 48 47
3 40 49 38
3 49 48 38
3 50 41 51
3 50 49 41
3 49 40 41
3 42 51 41
3 2 44 43
3 2 1 44
3 1 52 44
3 3 2 43
3 47 3 43
3 5 3 47
3 48 5 47
3 7 5 48
3 49 7 48
3 49 9 7
3 49 50 9
3 50 53 9
3 1 11 52
3 52 11 54
3 9 53 15
3 53 55 15
3 11 17 54
3 54 17 56
3 15 55 21
3 55 57 21
3 58 17 22
3 58 59 17
3 59 56 17
3 22 23 60
3 58 22 60
3 23 24 61
3 60 23 61
3 62 61 24
3 62 24 63
3 63 24 25
3 57 25 21
3 63 25 57
3 58 64 59
3 60 64 58
3 65 64 60
3 61 65 60
3 66 65 61
3 62 66 61
3 67 68 69
3 67 70 71
3 69 70 67
3 71 72 73
3 70 72 71
3 72 74 73
3 75 76 77
3 68 75 77
3 68 67 75
3 67 78 75
3 71 79 67
3 79 78 67
3 73 80 71
3 80 79 71
3 81 73 74
3 80 73 81
3 82 76 75
3 83 76 82
3 78 84 75
3 84 82 75
3 79 85 78
3 85 84 78
3 80 86 79
3 86 85 79
3 87 80 81
3 86 80 87
3 28 83 82
3 28 27 83
3 27 88 83
3 29 28 82
3 84 29 82
3 31 29 84
3 31 84 89
3 89 84 85
3 86 90 85
3 90 89 85
3 91 86 87
3 90 86 91
3 34 92 93
3 33 92 34
3 88 27 34
3 93 88 34
3 89 94 37
3 31 89 37
3 90 95 89
3 95 94 89
3 96 90 91
3 95 90 96
3 97 98 99
3 97 99 92
3 97 92 39
3 39 92 33
3 94 100 42
3 37 94 42
3 101 95 102
3 101 100 95
3 100 94 95
3 96 102 95
3 45 103 104
3 44 103 45
3 98 97 46
3 98 46 104
3 104 46 45
3 39 46 97
3 51 105 50
3 51 42 100
3 51 100 105
3 105 100 106
3 107 100 101
3 106 100 107
3 44 52 103
3 103 52 108
3 105 109 53
3 50 105 53
3 110 106 111
3 110 109 106
3 109 105 106
3 107 111 106
3 52 54 108
3 108 54 112
3 109 113 55
3 53 109 55
3 114 109 110
3 113 109 114
3 54 56 112
3 112 56 115
3 113 116 57
3 55 113 57
3 117 113 114
3 116 113 117
3 56 59 115
3 115 59 118
3 63 119 120
3 62 63 120
3 116 63 57
3 116 121 63
3 121 119 63
3 117 121 116
3 59 122 118
3 64 122 59
3 65 123 64
3 64 123 122
3 66 124 65
3 65 124 123
3 120 66 62
3 124 66 120
3 69 125 126
3 68 125 69
3 70 69 127
3 69 126 127
3 72 70 128
3 70 127 128
3 128 74 72
3 129 74 128
3 77 130 131
3 76 130 77
3 125 68 77
3 131 125 77
3 74 129 81
3 129 132 81
3 76 83 130
3 130 83 133
3 134 135 87
3 134 87 132
3 132 87 81
3 134 136 135
3 83 88 133
3 133 88 137
3 135 138 91
3 87 135 91
3 139 135 136
3 138 135 139
3 93 140 141
3 92 140 93
3 137 88 93
3 141 137 93
3 138 142 96
3 91 138 96
3 143 138 139
3 142 138 143
3 99 144 145
3 98 144 99
3 140 92 99
3 145 140 99
3 102 146 101
3 102 147 146
3 96 147 102
3 96 148 147
3 96 142 148
3 143 148 142
3 104 149 150
3 103 149 104
3 144 98 104
3 150 144 104
3 146 151 107
3 101 146 107
3 152 146 147
3 151 146 152
3 103 108 149
3 149 108 153
3 111 154 110
3 111 155 154
3 107 155 111
3 107 156 155
3 107 151 156
3 152 156 151
3 108 112 153
3 153 112 157
3 154 158 114
3 110 154 114
3 159 154 155
3 158 154 159
3 112 115 157
3 157 115 160
3 158 161 162
3 158 162 114
3 114 162 117
3 159 161 158
3 115 118 160
3 160 118 163
3 119 164 120
3 165 164 119
3 165 119 166
3 166 119 121
3 162 121 117
3 166 121 162
3 118 167 163
3 122 167 118
3 123 168 122
3 122 168 167
3 124 169 123
3 123 169 168
3 164 124 120
3 164 170 124
3 170 169 124
3 165 170 164
3 126 125 171
3 172 126 171
3 172 173 126
3 173 127 126
3 128 127 174
3 127 173 174
3 174 129 128
3 175 129 174
3 131 130 176
3 131 176 177
3 125 131 177
3 125 177 178
3 125 178 171
3 172 171 178
3 179 180 132
3 179 132 175
3 175 132 129
3 179 181 180
3 176 182 183
3 176 130 182
3 130 133 182
3 177 176 183
3 132 180 134
3 180 136 134
3 180 181 136
3 181 184 136
3 133 137 182
3 182 137 185
3 136 184 139
3 184 186 139
3 141 187 188
3 140 187 141
3 185 137 141
3 188 185 141
3 139 186 143
3 186 189 143
3 145 190 191
3 144 190 145
3 187 140 145
3 191 187 145
3 148 192 147
3 148 193 192
3 148 143 193
3 143 189 193
3 150 194 195
3 149 194 150
3 190 144 150
3 195 190 150
3 192 196 152
3 147 192 152
3 197 192 193
3 196 192 197
3 198 199 200
3 198 200 194
3 198 194 153
3 153 194 149
3 156 201 155
3 156 202 201
3 152 202 156
3 152 203 202
3 152 196 203
3 197 203 196
3 204 199 198
3 205 199 204
3 153 157 204
3 198 153 204
3 201 206 159
3 155 201 159
3 207 201 202
3 206 201 207
3 208 205 204
3 209 205 208
3 157 160 208
3 204 157 208
3 161 210 162
3 161 211 210
3 159 211 161
3 159 212 211
3 159 206 212
3 207 212 206
3 213 209 208
3 214 209 213
3 160 163 213
3 208 160 213
3 166 215 216
3 165 166 216
3 210 166 162
3 210 217 166
3 217 215 166
3 211 217 210
3 213 218 214
3 163 218 213
3 163 167 218
3 167 219 218
3 168 220 167
3 167 220 219
3 169 221 168
3 168 221 220
3 170 222 169
3 169 222 221
3 216 170 165
3 222 170 216
3 223 224 225
3 223 226 227
3 225 226 223
3 226 228 227
3 173 224 223
3 173 172 224
3 172 229 224
3 174 173 223
3 227 174 223
3 227 175 174
3 227 228 175
3 228 230 175
3 178 231 232
3 177 231 178
3 229 172 178
3 232 229 178
3 175 230 233
3 179 175 233
3 233 181 179
3 234 181 233
3 183 235 236
3 182 235 183
3 231 177 183
3 236 231 183
3 181 234 184
3 234 237 184
3 238 239 240
3 238 240 235
3 238 235 185
3 185 235 182
3 184 237 186
3 237 241 186
3 242 243 244
3 239 242 244
3 238 242 239
3 238 187 242
3 238 188 187
3 185 188 238
3 186 241 189
3 241 245 189
3 246 247 248
3 243 246 248
3 242 246 243
3 242 190 246
3 242 191 190
3 187 191 242
3 189 245 193
3 245 249 193
3 250 251 252
3 247 250 252
3 246 250 247
3 246 194 250
3 246 195 194
3 190 195 246
3 193 249 197
3 249 253 197
3 200 251 250
3 200 199 251
3 199 254 251
3 194 200 250
3 203 255 256
3 202 203 256
3 253 203 197
3 255 203 253
3 199 205 254
3 254 205 257
3 202 256 207
3 256 258 207
3 205 209 257
3 257 209 259
3 212 260 261
3 211 212 261
3 258 212 207
3 260 212 258
3 209 214 259
3 259 214 262
3 215 263 264
3 216 215 264
3 217 265 215
3 215 265 263
3 261 217 211
3 265 217 261
3 214 266 262
3 218 266 214
3 219 267 218
3 218 267 266
3 220 268 219
3 219 268 267
3 221 269 220
3 220 269 268
3 222 270 221
3 221 270 269
3 264 222 216
3 270 222 264
3 271 272 273
3 271 225 224
3 271 273 225
3 273 274 225
3 226 225 275
3 225 274 275
3 275 228 226
3 276 228 275
3 277 272 271
3 278 272 277
3 224 229 277
3 271 224 277
3 228 276 230
3 276 279 230
3 232 278 277
3 232 231 278
3 231 280 278
3 229 232 277
3 230 279 281
3 233 230 281
3 281 234 233
3 282 234 281
3 283 284 285
3 283 236 235
3 283 285 236
3 285 286 236
3 280 231 236
3 286 280 236
3 234 282 237
3 282 287 237
3 288 289 290
3 284 288 290
3 283 288 284
3 283 239 288
3 283 240 239
3 235 240 283
3 237 287 241
3 287 291 241
3 244 289 288
3 244 243 289
3 243 292 289
3 239 244 288
3 241 291 245
3 291 293 245
3 248 294 295
3 247 294 248
3 292 243 248
3 295 292 248
3 245 293 249
3 293 296 249
3 252 297 298
3 251 297 252
3 294 247 252
3 298 294 252
3 249 296 253
3 296 299 253
3 251 254 297
3 297 254 300
3 255 301 302
3 256 255 302
3 299 255 253
3 301 255 299
3 254 257 300
3 300 257 303
3 256 302 258
3 302 304 258
3 257 259 303
3 303 259 305
3 260 306 307
3 261 260 307
3 304 260 258
3 306 260 304
3 259 262 305
3 305 262 308
3 263 309 264
3 310 309 263
3 310 263 311
3 311 263 265
3 307 265 261
3 311 265 307
3 262 312 308
3 266 312 262
3 267 313 266
3 266 313 312
3 268 314 267
3 267 314 313
3 269 315 268
3 268 315 314
3 270 316 269
3 269 316 315
3 309 270 264
3 309 317 270
3 317 316 270
3 310 317 309
3 318 319 320
3 318 321 322
3 320 321 318
3 322 323 324
3 321 323 322
3 323 325 324
3 273 319 318
3 273 272 319
3 272 326 319
3 274 273 318
3 322 274 318
3 275 274 322
3 324 275 322
3 324 276 275
3 324 325 276
3 325 327 276
3 272 278 326
3 326 278 328
3 276 327 279
3 327 329 279
3 330 331 332
3 330 332 328
3 330 328 280
3 280 328 278
3 279 329 333
3 281 279 333
3 333 282 281
3 334 282 333
3 285 335 336
3 284 335 285
3 331 330 286
3 331 286 336
3 336 286 285
3 280 286 330
3 282 334 287
3 334 337 287
3 290 338 339
3 289 338 290
3 335 284 290
3 339 335 290
3 287 337 291
3 337 340 291
3 289 292 338
3 338 292 341
3 291 340 293
3 340 342 293
3 295 343 344
3 294 343 295
3 341 292 295
3 344 341 295
3 293 342 296
3 342 345 296
3 298 346 347
3 297 346 298
3 343 294 298
3 347 343 298
3 296 345 299
3 345 348 299
3 297 300 346
3 346 300 349
3 301 350 351
3 302 301 351
3 348 301 299
3 350 301 348
3 300 303 349
3 349 303 352
3 302 351 304
3 351 353 304
3 303 305 352
3 352 305 354
3 306 355 356
3 307 306 356
3 353 306 304
3 355 306 353
3 305 308 354
3 354 308 357
3 311 358 359
3 310 311 359
3 356 311 307
3 358 311 356
3 308 360 357
3 312 360 308
3 313 361 312
3 312 361 360
3 314 362 313
3 313 362 361
3 315 363 314
3 314 363 362
3 316 364 315
3 315 364 363
3 317 365 316
3 316 365 364
3 359 317 310
3 365 317 359
3 366 367 368
3 366 369 370
3 368 369 366
3 369 371 370
3 320 367 366
3 320 319 367
3 319 372 367
3 321 320 366
3 370 321 366
3 370 371 373
3 370 373 321
3 321 373 323
3 373 325 323
3 374 325 373
3 375 376 377
3 375 377 372
3 375 372 326
3 326 372 319
3 325 374 327
3 374 378 327
3 379 376 375
3 380 376 379
3 326 328 379
3 375 326 379
3 327 378 329
3 378 381 329
3 382 383 384
3 380 382 384
3 379 382 380
3 379 331 382
3 379 332 331
3 328 332 379
3 329 381 385
3 333 329 385
3 385 334 333
3 386 334 385
3 387 388 389
3 383 387 389
3 382 387 383
3 382 335 387
3 382 336 335
3 331 336 382
3 334 386 337
3 386 390 337
3 339 388 387
3 339 338 388
3 338 391 388
3 335 339 387
3 337 390 340
3 390 392 340
3 393 394 395
3 393 395 391
3 393 391 341
3 341 391 338
3 340 392 342
3 392 396 342
3 397 398 399
3 394 397 399
3 393 397 394
3 393 343 397
3 393 344 343
3 341 344 393
3 400 401 402
3 400 396 401
3 400 345 396
3 345 342 396
3 347 398 397
3 347 346 398
3 346 403 398
3 343 347 397
3 404 400 402
3 405 404 402
3 345 404 348
3 400 404 345
3 346 349 403
3 403 349 406
3 350 404 405
3 350 405 351
3 351 405 407
3 348 404 350
3 349 352 406
3 406 352 408
3 351 407 353
3 407 409 353
3 352 354 408
3 408 354 410
3 355 411 412
3 356 355 412
3 409 355 353
3 411 355 409
3 413 357 414
3 413 410 357
3 410 354 357
3 413 414 415
3 358 416 417
3 359 358 417
3 412 358 356
3 416 358 412
3 357 360 414
3 414 418 415
3 414 360 418
3 360 361 418
3 362 419 361
3 361 419 418
3 363 420 362
3 362 420 419
3 364 421 363
3 363 421 420
3 365 422 364
3 364 422 421
3 417 365 359
3 422 365 417
3 423 424 425
3 423 368 367
3 423 425 368
3 425 426 368
3 369 368 427
3 368 426 427
3 427 371 369
3 428 371 427
3 429 424 423
3 430 424 429
3 367 372 429
3 423 367 429
3 371 428 431
3 373 371 431
3 431 374 373
3 432 374 431
3 433 434 435
3 430 433 435
3 429 433 430
3 429 376 433
3 429 377 376
3 372 377 429
3 374 432 378
3 432 436 378
3 437 434 433
3 438 434 437
3 376 380 437
3 433 376 437
3 439 440 381
3 439 381 436
3 436 381 378
3 439 441 440
3 442 443 444
3 438 442 444
3 437 442 438
3 437 383 442
3 437 384 383
3 380 384 437
3 381 440 385
3 440 386 385
3 440 441 386
3 441 445 386
3 389 443 442
3 389 388 443
3 388 446 443
3 383 389 442
3 386 445 390
3 445 447 390
3 388 391 446
3 446 391 448
3 390 447 392
3 447 449 392
3 395 450 451
3 394 450 395
3 448 391 395
3 451 448 395
3 392 449 396
3 449 452 396
3 399 453 454
3 398 453 399
3 450 394 399
3 454 450 399
3 401 455 456
3 402 401 456
3 452 401 396
3 455 401 452
3 398 403 453
3 453 403 457
3 402 456 405
3 456 458 405
3 403 406 457
3 457 406 459
3 405 458 407
3 458 460 407
3 406 408 459
3 459 408 461
3 462 463 464
3 462 460 463
3 462 409 460
3 409 407 460
3 465 410 466
3 465 461 410
3 461 408 410
3 465 466 467
3 468 469 470
3 464 469 468
3 462 464 468
3 462 468 412
3 462 412 411
3 409 462 411
3 410 413 466
3 466 413 415
3 466 415 467
3 467 415 471
3 472 473 474
3 472 475 476
3 473 472 476
3 470 476 475
3 468 470 475
3 468 475 417
3 468 417 416
3 412 468 416
3 415 477 471
3 418 477 415
3 419 478 418
3 418 478 477
3 420 479 419
3 419 479 478
3 474 421 472
3 474 479 421
3 479 420 421
3 422 472 421
3 475 472 422
3 417 475 422
3 480 481 482
3 480 483 484
3 482 483 480
3 483 485 484
3 425 486 487
3 424 486 425
3 481 480 426
3 481 426 487
3 487 426 425
3 427 426 480
3 484 427 480
3 484 428 427
3 484 485 428
3 485 488 428
3 489 490 491
3 489 491 486
3 489 486 430
3 430 486 424
3 428 488 492
3 431 428 492
3 492 432 431
3 493 432 492
3 494 495 496
3 490 494 496
3 489 494 490
3 489 434 494
3 489 435 434
3 430 435 489
3 432 493 436
3 493 497 436
3 498 495 494
3 499 495 498
3 434 438 498
3 494 434 498
3 436 497 500
3 439 436 500
3 500 441 439
3 501 441 500
3 444 499 498
3 444 443 499
3 443 502 499
3 438 444 498
3 441 501 445
3 501 503 445
3 504 505 506
3 504 506 502
3 504 502 446
3 446 502 443
3 445 503 447
3 503 507 447
3 508 505 504
3 509 505 508
3 446 448 508
3 504 446 508
3 447 507 449
3 507 510 449
3 511 512 513
3 509 511 513
3 508 511 509
3 508 450 511
3 508 451 450
3 448 451 508
3 449 510 452
3 510 514 452
3 454 512 511
3 454 453 512
3 453 515 512
3 450 454 511
3 455 516 517
3 456 455 517
3 514 455 452
3 516 455 514
3 453 457 515
3 515 457 518
3 456 517 458
3 517 519 458
3 457 459 518
3 518 459 520
3 521 522 523
3 521 519 522
3 521 460 519
3 460 458 519
3 459 461 520
3 520 461 524
3 525 526 527
3 525 528 529
3 526 525 529
3 528 530 531
3 529 528 531
3 523 531 530
3 521 523 530
3 521 530 464
3 521 464 463
3 460 521 463
3 461 532 524
3 465 532 461
3 532 465 467
3 533 532 467
3 534 525 527
3 535 534 527
3 528 525 536
3 536 525 534
3 469 536 470
3 469 530 536
3 530 528 536
3 464 530 469
3 537 471 538
3 537 533 471
3 533 467 471
3 538 539 540
3 537 538 540
3 539 541 542
3 540 539 542
3 535 542 541
3 534 535 541
3 534 541 474
3 534 474 473
3 476 534 473
3 536 534 476
3 470 536 476
3 471 477 538
3 478 538 477
3 539 538 478
3 479 539 478
3 541 539 479
3 474 541 479
3 543 544 545
3 543 546 547
3 545 546 543
3 547 548 549
3 546 548 547
3 548 550 549
3 551 544 543
3 552 544 551
3 482 481 551
3 482 551 547
3 547 551 543
3 483 482 547
3 549 483 547
3 549 485 483
3 549 550 485
3 550 553 485
3 554 555 556
3 552 554 556
3 551 554 552
3 551 486 554
3 551 487 486
3 481 487 551
3 485 553 488
3 553 557 488
3 558 559 560
3 555 558 560
3 554 558 555
3 554 490 558
3 554 491 490
3 486 491 554
3 488 557 561
3 492 488 561
3 561 493 492
3 562 493 561
3 496 559 558
3 496 495 559
3 495 563 559
3 490 496 558
3 493 562 497
3 562 564 497
3 565 566 567
3 565 567 563
3 565 563 499
3 499 563 495
3 568 500 497
3 568 497 569
3 569 497 564
3 500 568 501
3 570 566 565
3 571 566 570
3 499 502 570
3 565 499 570
3 568 569 572
3 572 501 568
3 572 573 501
3 573 503 501
3 506 571 570
3 506 505 571
3 505 574 571
3 502 506 570
3 503 573 507
3 573 575 507
3 576 577 578
3 576 578 574
3 576 574 509
3 509 574 505
3 507 575 510
3 575 579 510
3 513 577 576
3 513 512 577
3 512 580 577
3 509 513 576
3 581 582 583
3 581 579 582
3 581 514 579
3 514 510 579
3 512 515 580
3 580 515 584
3 516 581 583
3 516 583 517
3 517 583 585
3 514 581 516
3 515 518 584
3 584 518 586
3 517 585 519
3 585 587 519
3 588 520 589
3 588 586 520
3 586 518 520
3 588 589 590
3 591 592 593
3 591 523 522
3 591 522 592
3 592 522 594
3 587 522 519
3 594 522 587
3 589 524 595
3 520 524 589
3 596 590 589
3 595 596 589
3 526 597 598
3 527 526 598
3 529 599 526
3 526 599 597
3 593 531 591
3 593 599 531
3 599 529 531
3 523 591 531
3 524 532 595
3 533 600 601
3 532 533 601
3 532 601 596
3 532 596 595
3 600 602 603
3 601 600 603
3 602 604 605
3 603 602 605
3 604 598 605
3 604 535 598
3 535 527 598
3 533 537 600
3 540 600 537
3 602 600 540
3 542 602 540
3 604 602 542
3 535 604 542
3 606 607 608
3 606 609 610
3 608 609 606
3 610 545 544
3 610 609 545
3 609 611 545
3 546 545 612
3 545 611 612
3 548 546 613
3 546 612 613
3 613 550 548
3 614 550 613
3 615 607 606
3 616 607 615
3 610 617 606
3 617 615 606
3 544 552 617
3 610 544 617
3 550 614 553
3 614 618 553
3 619 616 615
3 620 616 619
3 556 555 619
3 556 619 617
3 617 619 615
3 552 556 617
3 553 618 557
3 618 621 557
3 622 623 624
3 620 622 624
3 619 622 620
3 619 559 622
3 619 560 559
3 555 560 619
3 625 561 557
3 625 557 626
3 626 557 621
3 561 625 562
3 627 623 622
3 628 623 627
3 559 563 627
3 622 559 627
3 625 626 629
3 629 562 625
3 629 630 562
3 630 564 562
3 567 628 627
3 567 566 628
3 566 631 628
3 563 567 627
3 564 630 569
3 630 632 569
3 566 571 631
3 631 571 633
3 634 572 569
3 634 569 635
3 635 569 632
3 572 634 573
3 571 574 633
3 633 574 636
3 637 634 635
3 638 637 635
3 573 637 575
3 634 637 573
3 578 639 640
3 577 639 578
3 636 574 578
3 640 636 578
3 641 642 643
3 638 642 641
3 638 641 637
3 637 641 644
3 575 644 579
3 637 644 575
3 577 580 639
3 639 580 645
3 646 641 643
3 647 646 643
3 582 646 583
3 582 644 646
3 644 641 646
3 579 644 582
3 580 584 645
3 645 584 648
3 649 646 647
3 650 649 647
3 583 649 585
3 646 649 583
3 584 586 648
3 648 586 651
3 652 653 654
3 650 653 652
3 650 652 649
3 649 652 655
3 585 655 587
3 649 655 585
3 586 656 651
3 588 656 586
3 590 657 658
3 590 658 588
3 588 658 656
3 658 657 659
3 660 661 662
3 654 661 660
3 652 654 660
3 652 660 593
3 652 593 592
3 594 652 592
3 655 652 594
3 587 655 594
3 657 596 663
3 590 596 657
3 664 659 657
3 664 657 665
3 665 657 663
3 665 666 667
3 664 665 667
3 666 598 597
3 666 597 667
3 667 597 668
3 662 599 660
3 662 668 599
3 668 597 599
3 593 660 599
3 596 601 663
3 603 663 601
3 665 663 603
3 605 665 603
3 666 665 605
3 598 666 605
3 669 670 671
3 669 672 673
3 671 672 669
3 673 674 675
3 672 674 673
3 674 676 675
3 677 678 679
3 670 677 679
3 670 669 677
3 669 680 677
3 673 681 669
3 681 680 669
3 675 682 673
3 682 681 673
3 683 675 676
3 682 675 683
3 608 678 677
3 608 607 678
3 607 684 678
3 609 608 677
3 680 609 677
3 611 609 680
3 681 611 680
3 612 611 681
3 682 612 681
3 682 683 685
3 682 685 612
3 612 685 613
3 685 614 613
3 686 614 685
3 607 616 684
3 684 616 687
3 614 686 618
3 686 688 618
3 689 690 691
3 689 691 687
3 689 687 620
3 620 687 616
3 618 688 621
3 688 692 621
3 624 690 689
3 624 623 690
3 623 693 690
3 620 624 689
3 621 692 626
3 692 694 626
3 623 628 693
3 693 628 695
3 626 694 696
3 629 626 696
3 696 630 629
3 697 630 696
3 628 631 695
3 695 631 698
3 630 697 632
3 697 699 632
3 631 633 698
3 698 633 700
3 632 699 635
3 699 701 635
3 633 636 700
3 700 636 702
3 635 701 638
3 701 703 638
3 640 639 704
3 640 704 705
3 640 705 636
3 636 705 702
3 642 706 707
3 643 642 707
3 703 642 638
3 706 642 703
3 704 645 708
3 639 645 704
3 709 705 704
3 708 709 704
3 643 707 647
3 707 710 647
3 708 648 711
3 645 648 708
3 712 709 708
3 711 712 708
3 713 714 715
3 713 710 714
3 713 650 710
3 650 647 710
3 711 651 716
3 648 651 711
3 717 712 711
3 716 717 711
3 718 719 720
3 718 721 722
3 719 718 722
3 715 722 721
3 713 715 721
3 713 721 654
3 713 654 653
3 650 713 653
3 651 656 716
3 716 723 717
3 716 656 723
3 656 658 723
3 659 724 725
3 659 725 658
3 658 725 723
3 724 726 727
3 725 724 727
3 720 727 726
3 720 726 718
3 718 726 728
3 661 728 662
3 661 721 728
3 721 718 728
3 654 721 661
3 659 664 724
3 667 724 664
3 726 724 667
3 668 726 667
3 728 726 668
3 662 728 668
3 729 730 731
3 729 732 733
3 731 732 729
3 732 734 733
3 735 730 729
3 736 730 735
3 733 737 729
3 737 735 729
3 738 733 734
3 737 733 738
3 735 739 736
3 737 739 735
3 740 739 737
3 738 740 737
3 741 742 743
3 741 744 745
3 743 744 741
3 745 746 747
3 744 746 745
3 746 748 747
3 749 742 741
3 750 742 749
3 671 670 749
3 671 749 745
3 745 749 741
3 672 671 745
3 747 672 745
3 747 748 751
3 747 751 672
3 672 751 674
3 751 676 674
3 752 676 751
3 679 750 749
3 679 678 750
3 678 753 750
3 670 679 749
3 676 752 683
3 752 754 683
3 755 756 757
3 755 757 753
3 755 753 684
3 684 753 678
3 683 754 758
3 685 683 758
3 758 686 685
3 759 686 758
3 760 756 755
3 761 756 760
3 684 687 760
3 755 684 760
3 686 759 688
3 759 762 688
3 691 761 760
3 691 690 761
3 690 763 761
3 687 691 760
3 688 762 692
3 762 764 692
3 690 693 763
3 763 693 765
3 692 764 694
3 764 766 694
3 693 695 765
3 765 695 767
3 768 696 694
3 768 694 769
3 769 694 766
3 696 768 697
3 695 698 767
3 767 698 770
3 771 768 769
3 772 771 769
3 697 771 699
3 768 771 697
3 698 700 770
3 770 700 773
3 774 771 772
3 775 774 772
3 699 774 701
3 771 774 699
3 700 702 773
3 773 702 776
3 777 774 775
3 778 777 775
3 701 777 703
3 774 777 701
3 702 705 776
3 776 705 779
3 780 781 782
3 778 781 780
3 777 778 780
3 777 780 707
3 777 707 706
3 703 777 706
3 705 709 779
3 779 709 783
3 784 785 786
3 784 787 788
3 785 784 788
3 782 788 787
3 782 787 780
3 780 787 789
3 707 789 710
3 780 789 707
3 790 712 791
3 790 783 712
3 783 709 712
3 791 792 793
3 790 791 793
3 792 794 795
3 793 792 795
3 786 795 794
3 786 794 784
3 784 794 796
3 787 784 797
3 797 784 796
3 714 797 715
3 714 789 797
3 789 787 797
3 710 789 714
3 791 717 798
3 712 717 791
3 792 791 799
3 799 791 798
3 794 792 800
3 800 792 799
3 719 800 720
3 719 796 800
3 796 794 800
3 722 796 719
3 797 796 722
3 715 797 722
3 717 723 798
3 725 798 723
3 799 798 725
3 727 799 725
3 800 799 727
3 720 800 727
3 801 802 803
3 801 804 805
3 803 804 801
3 804 806 805
3 807 802 801
3 808 802 807
3 731 730 807
3 731 807 805
3 805 807 801
3 805 806 809
3 805 809 731
3 731 809 732
3 809 734 732
3 810 734 809
3 811 808 807
3 812 808 811
3 730 736 811
3 807 730 811
3 734 810 738
3 810 813 738
3 814 812 811
3 815 812 814
3 736 739 816
3 736 816 811
3 811 816 814
3 739 740 817
3 816 739 817
3 740 818 817
3 740 738 818
3 738 813 818
3 819 815 814
3 820 815 819
3 816 821 814
3 821 819 814
3 817 822 816
3 822 821 816
3 823 817 818
3 823 824 817
3 824 822 817
3 823 825 824
3 826 820 819
3 827 820 826
3 821 828 819
3 828 826 819
3 822 829 821
3 829 828 821
3 824 830 822
3 830 829 822
3 831 824 825
3 830 824 831
3 826 832 827
3 832 833 834
3 832 826 833
3 826 828 833
3 829 835 828
3 835 833 828
3 830 836 829
3 836 835 829
3 837 830 831
3 836 830 837
3 838 834 833
3 839 834 838
3 835 840 833
3 840 838 833
3 836 841 835
3 841 840 835
3 842 836 837
3 841 836 842
3 838 843 839
3 843 844 845
3 843 838 844
3 838 840 844
3 841 846 840
3 846 844 840
3 847 841 842
3 847 848 841
3 848 846 841
3 847 849 848
3 743 845 844
3 743 742 845
3 742 850 845
3 744 743 844
3 846 744 844
3 746 744 846
3 848 746 846
3 848 748 746
3 848 849 748
3 849 851 748
3 852 853 854
3 852 854 850
3 852 850 750
3 750 850 742
3 748 851 855
3 751 748 855
3 855 752 751
3 856 752 855
3 857 853 852
3 858 853 857
3 750 753 857
3 852 750 857
3 752 856 754
3 856 859 754
3 757 858 857
3 757 756 858
3 756 860 858
3 753 757 857
3 861 758 754
3 861 754 862
3 862 754 859
3 758 861 759
3 756 761 860
3 860 761 863
3 861 862 864
3 864 759 861
3 864 865 759
3 865 762 759
3 761 763 863
3 863 763 866
3 762 865 764
3 865 867 764
3 763 765 866
3 866 765 868
3 869 870 871
3 869 867 870
3 869 766 867
3 766 764 867
3 765 767 868
3 868 767 872
3 873 869 871
3 874 873 871
3 766 873 769
3 869 873 766
3 767 770 872
3 872 770 875
3 876 873 874
3 877 876 874
3 769 876 772
3 873 876 769
3 770 773 875
3 875 773 878
3 879 880 881
3 877 880 879
3 877 879 876
3 876 879 882
3 772 882 775
3 876 882 772
3 773 776 878
3 878 776 883
3 884 879 881
3 885 884 881
3 882 879 886
3 886 879 884
3 775 886 778
3 882 886 775
3 776 779 883
3 883 779 887
3 888 884 885
3 889 888 885
3 781 888 782
3 781 886 888
3 886 884 888
3 778 886 781
3 890 783 891
3 890 887 783
3 887 779 783
3 891 892 893
3 890 891 893
3 892 894 895
3 893 892 895
3 894 786 785
3 894 785 895
3 895 785 896
3 889 788 888
3 889 896 788
3 896 785 788
3 782 888 788
3 783 790 891
3 793 891 790
3 892 891 793
3 795 892 793
3 894 892 795
3 786 894 795
3 803 897 898
3 802 897 803
3 804 803 899
3 803 898 899
3 899 806 804
3 900 806 899
3 802 808 897
3 897 808 901
3 806 900 902
3 809 806 902
3 902 810 809
3 903 810 902
3 808 812 901
3 901 812 904
3 810 903 813
3 903 905 813
3 812 815 904
3 904 815 906
3 813 905 818
3 905 907 818
3 815 820 906
3 906 820 908
3 818 907 909
3 823 818 909
3 909 825 823
3 910 825 909
3 820 827 908
3 908 827 911
3 825 910 831
3 910 912 831
3 913 827 832
3 913 914 827
3 914 911 827
3 832 834 913
3 831 912 837
3 912 915 837
3 913 916 914
3 916 913 834
3 916 834 917
3 917 834 839
3 837 915 842
3 915 918 842
3 839 919 917
3 843 919 839
3 919 843 845
3 920 919 845
3 842 918 921
3 847 842 921
3 921 849 847
3 922 849 921
3 845 850 920
3 920 850 923
3 849 922 851
3 922 924 851
3 854 925 926
3 853 925 854
3 923 850 854
3 926 923 854
3 851 924 927
3 855 851 927
3 927 856 855
3 928 856 927
3 853 858 925
3 925 858 929
3 856 928 859
3 928 930 859
3 858 860 929
3 929 860 931
3 859 930 862
3 930 932 862
3 860 863 931
3 931 863 933
3 934 864 862
3 934 862 935
3 935 862 932
3 864 934 865
3 863 866 933
3 933 866 936
3 937 934 935
3 938 937 935
3 865 937 867
3 934 937 865
3 866 868 936
3 936 868 939
3 870 937 938
3 870 938 871
3 871 938 940
3 867 937 870
3 868 872 939
3 939 872 941
3 942 943 944
3 942 940 943
3 942 874 940
3 874 871 940
3 945 875 946
3 945 941 875
3 941 872 875
3 946 947 948
3 945 946 948
3 947 949 950
3 948 947 950
3 949 951 952
3 950 949 952
3 944 952 951
3 944 951 942
3 942 951 953
3 874 953 877
3 942 953 874
3 946 878 954
3 875 878 946
3 947 946 955
3 955 946 954
3 949 947 956
3 956 947 955
3 951 949 957
3 957 949 956
3 880 957 881
3 880 953 957
3 953 951 957
3 877 953 880
3 954 883 958
3 878 883 954
3 955 954 959
3 959 954 958
3 956 955 960
3 960 955 959
3 957 956 961
3 961 956 960
3 881 961 885
3 957 961 881
3 958 887 962
3 883 887 958
3 959 958 963
3 963 958 962
3 960 959 964
3 964 959 963
3 961 960 965
3 965 960 964
3 885 965 889
3 961 965 885
3 887 890 962
3 893 962 890
3 963 962 893
3 895 963 893
3 964 963 895
3 896 964 895
3 965 964 896
3 889 965 896
3 898 897 966
3 898 967 899
3 966 967 898
3 899 967 900
3 966 901 968
3 897 901 966
3 967 966 969
3 969 966 968
3 900 970 902
3 900 967 970
3 967 969 970
3 902 970 903
3 968 971 972
3 968 901 971
3 901 904 971
3 969 968 972
3 973 969 972
3 970 969 973
3 974 970 973
3 974 903 970
3 974 975 903
3 975 905 903
3 904 906 971
3 971 906 976
3 905 975 907
3 975 977 907
3 906 908 976
3 976 908 978
3 907 977 979
3 909 907 979
3 979 910 909
3 980 910 979
3 908 911 978
3 978 911 981
3 910 980 912
3 980 982 912
3 911 914 981
3 981 914 983
3 912 982 915
3 982 984 915
3 914 985 983
3 916 985 914
3 985 916 917
3 986 985 917
3 915 984 918
3 984 987 918
3 917 988 986
3 919 988 917
3 920 989 990
3 920 990 919
3 919 990 988
3 989 991 992
3 990 989 992
3 921 991 993
3 921 987 991
3 921 918 987
3 992 991 987
3 921 993 922
3 989 923 994
3 920 923 989
3 991 989 995
3 995 989 994
3 993 991 996
3 996 991 995
3 922 996 924
3 993 996 922
3 926 997 998
3 925 997 926
3 994 923 926
3 994 926 999
3 999 926 998
3 995 994 999
3 1000 995 999
3 1000 1001 1002
3 1000 1002 995
3 995 1002 996
3 924 1003 927
3 924 996 1003
3 996 1002 1003
3 927 1003 928
3 925 929 997
3 997 929 1004
3 1005 1002 1001
3 1006 1005 1001
3 1003 1002 1007
3 1007 1002 1005
3 928 1007 930
3 1003 1007 928
3 929 931 1004
3 1004 931 1008
3 1009 1005 1006
3 1010 1009 1006
3 1007 1005 1011
3 1011 1005 1009
3 930 1011 932
3 1007 1011 930
3 931 933 1008
3 1008 933 1012
3 1013 1009 1010
3 1014 1013 1010
3 1011 1009 1015
3 1015 1009 1013
3 932 1015 935
3 1011 1015 932
3 933 936 1012
3 1012 936 1016
3 1017 1013 1014
3 1018 1017 1014
3 1015 1013 1019
3 1019 1013 1017
3 935 1019 938
3 1015 1019 935
3 1020 939 1021
3 1020 1016 939
3 1016 936 939
3 1021 1022 1023
3 1020 1021 1023
3 1022 1024 1025
3 1023 1022 1025
3 1018 1025 1024
3 1018 1024 1017
3 1017 1024 1026
3 1019 1017 1027
3 1027 1017 1026
3 938 1027 940
3 1019 1027 938
3 1021 941 1028
3 939 941 1021
3 1022 1021 1029
3 1029 1021 1028
3 1024 1022 1030
3 1030 1022 1029
3 1026 1024 1031
3 1031 1024 1030
3 943 1031 944
3 943 1027 1031
3 1027 1026 1031
3 940 1027 943
3 941 945 1028
3 948 1028 945
3 1029 1028 948
3 950 1029 948
3 1030 1029 950
3 952 1030 950
3 1031 1030 952
3 944 1031 952
3 972 971 1032
3 972 1033 973
3 1032 1033 972
3 973 1034 974
3 1033 1034 973
3 974 1034 975
3 1032 976 1035
3 971 976 1032
3 1033 1032 1036
3 1036 1032 1035
3 1034 1033 1037
3 1037 1033 1036
3 975 1037 977
3 1034 1037 975
3 1035 978 1038
3 976 978 1035
3 1036 1035 1039
3 1039 1035 1038
3 1037 1036 1040
3 1040 1036 1039
3 977 1041 979
3 977 1037 1041
3 1037 1040 1041
3 979 1041 980
3 1038 981 1042
3 978 981 1038
3 1039 1038 1043
3 1043 1038 1042
3 1040 1039 1044
3 1044 1039 1043
3 1041 1040 1045
3 1045 1040 1044
3 980 1045 982
3 1041 1045 980
3 1042 983 1046
3 981 983 1042
3 1043 1042 1047
3 1047 1042 1046
3 1044 1043 1048
3 1048 1043 1047
3 1045 1044 1049
3 1049 1044 1048
3 982 1049 984
3 1045 1049 982
3 983 985 1046
3 986 1046 985
3 986 1050 1046
3 1050 1047 1046
3 1048 1047 1051
3 1051 1047 1050
3 1049 1048 1052
3 1052 1048 1051
3 984 1052 987
3 1049 1052 984
3 986 988 1050
3 990 1050 988
3 1051 1050 990
3 992 1051 990
3 1052 1051 992
3 987 1052 992
3 998 997 1053
3 998 1054 999
3 1053 1054 998
3 999 1055 1000
3 1054 1055 999
3 1000 1055 1001
3 1053 1004 1056
3 997 1004 1053
3 1054 1053 1057
3 1057 1053 1056
3 1055 1054 1058
3 1058 1054 1057
3 1001 1058 1006
3 1055 1058 1001
3 1056 1008 1059
3 1004 1008 1056
3 1057 1056 1060
3 1060 1056 1059
3 1058 1057 1061
3 1061 1057 1060
3 1006 1061 1010
3 1058 1061 1006
3 1059 1012 1062
3 1008 1012 1059
3 1060 1059 1063
3 1063 1059 1062
3 1061 1060 1064
3 1064 1060 1063
3 1010 1064 1014
3 1061 1064 1010
3 1062 1016 1065
3 1012 1016 1062
3 1063 1062 1066
3 1066 1062 1065
3 1064 1063 1067
3 1067 1063 1066
3 1014 1067 1018
3 1064 1067 1014
3 1016 1020 1065
3 1023 1065 1020
3 1066 1065 1023
3 1025 1066 1023
3 1067 1066 1025
3 1018 1067 1025
