# vtk DataFile Version 3.0
this file was written using fslvtkio
ASCII
DATASET POLYDATA
POINTS 642 float
105.148 139.366 101.987
98.6115 139.292 100.858
100.952 135.029 100.288
106.462 134.673 100.398
104.58 137.435 103.577
104.569 136.816 98.6652
101.294 136.817 98.3721
101.153 137.423 103.014
102.595 141.893 104.791
103.583 133.825 101.46
103.08 131.835 97.0772
102.348 141.311 100.195
101.482 139.399 103.724
103.976 139.49 104.858
102.712 137.618 103.646
102.393 136.056 102.126
104.055 135.495 102.552
101.43 139.133 99.0475
102.917 136.731 98.1428
103.271 138.749 99.737
101.683 134.227 96.1086
104.391 134.576 97.1196
106.038 135.911 102.269
105.819 138.737 103.387
105.845 137.137 101.179
105.806 135.601 99.0975
104.738 137.99 100.415
99.7019 138.342 102.369
100.592 136.457 101.902
99.5659 137.082 100.765
99.6561 138.405 99.2152
101.02 135.539 98.9604
104.019 140.831 101.387
104.812 141.345 103.722
102.566 143.621 102.295
100.065 141.388 100.047
99.9156 141.569 102.664
105.787 132.365 98.6301
103.347 131.555 99.9624
105.451 133 101.627
101.115 132.514 98.6244
102.037 133.894 100.813
102.656 139.548 104.416
103.169 138.573 104.138
102.221 138.559 103.734
103.608 137.523 103.836
104.326 138.459 104.07
103.338 140.734 105.063
101.957 140.683 104.224
101.29 138.359 103.248
101.905 137.612 103.266
102.567 136.893 102.852
103.39 136.711 103.107
103.228 135.82 102.314
104.433 136.655 102.942
101.683 136.916 102.659
102.816 134.757 101.928
103.789 134.597 101.945
102.173 137.772 98.9125
102.93 137.632 99.2187
102.418 139 99.3419
103.835 137.555 99.3675
103.886 136.85 98.3612
101.964 136.715 98.148
101.266 137.813 98.7843
101.86 140.288 99.6667
102.808 140.062 100.086
103.205 134.355 95.9578
103.724 135.82 97.2164
102.56 135.656 96.9715
104.501 135.922 98.0541
103.958 132.797 96.3965
102.173 132.308 95.6894
101.609 135.647 97.5783
105.535 137.352 102.626
105.57 137.831 102.207
105.961 136.544 101.739
105.53 138.383 101.63
105.628 139.216 102.644
105.342 138.077 103.643
105.224 136.882 102.677
106.38 135.246 101.31
106.286 135.896 100.716
105.94 136.433 100.141
105.534 137.658 100.648
105.563 137.001 99.663
105.178 138.92 101.181
106.227 135.027 99.7517
105.284 136.339 98.756
104.756 137.411 99.4193
99.9692 137.321 102.213
99.8 136.656 101.522
99.3804 137.744 101.626
100.375 136.267 100.624
100.66 135.754 101.193
100.727 136.948 102.634
100.47 137.821 102.827
98.9947 138.865 101.677
98.973 138.215 100.759
99.4356 137.685 99.9631
100.249 136.601 99.9153
100.238 137.087 99.3137
100.973 135.101 99.6513
99.006 138.979 99.9982
100.599 137.545 98.9885
101.096 136.197 98.4465
104.441 141.522 102.519
104.009 142.846 103.396
103.67 142.501 101.78
102.47 143.175 104.125
103.951 141.973 104.683
105.21 140.493 102.722
104.773 140.187 101.797
103.252 141.386 100.732
102.42 142.438 100.88
100.973 143.052 100.933
100.696 143.204 102.794
99.1941 142.405 101.257
101.199 142.052 103.871
101.408 141.74 99.9817
98.8115 140.56 100.302
99.1136 140.606 101.506
104.786 131.185 99.253
104.637 131.721 100.861
106.074 131.997 100.242
104.387 133.243 101.429
103.663 132.679 100.866
103.093 131.293 98.4061
104.52 131.857 97.717
106.215 133.564 99.7153
106.268 133.77 100.92
101.775 133.112 99.8841
102.815 132.683 100.237
102.126 131.998 99.3113
102.768 133.666 101.195
101.276 134.331 100.548
100.97 133.798 99.5797
101.797 131.887 97.6139
105.064 139.213 104.236
104.914 140.757 105.05
105.439 140.069 103.715
104.211 139.204 100.953
103.582 139.783 100.521
104.033 138.465 100.11
104.866 134.412 101.828
105.157 135.603 102.402
105.855 134.539 101.792
105.956 134.045 98.5932
105.437 135.013 98.0226
105.331 133.273 97.3976
100.751 140.436 103.362
100.383 138.958 103.181
99.6434 139.806 102.535
99.496 139.882 99.3794
100.414 138.996 99.0483
100.722 140.355 99.4262
101.325 135.256 101.477
101.533 136.262 101.983
102.095 134.896 101.585
100.996 132.801 96.8941
101.363 134.467 97.669
100.936 133.72 98.4655
102.94 139.058 104.341
102.732 138.59 103.914
102.339 138.996 104.13
102.509 138.125 103.644
102.977 138.096 103.785
103.526 139.047 104.523
103.261 139.612 104.752
102.006 139.435 104.115
101.807 138.957 103.826
103.437 138.019 103.907
103.774 138.557 104.174
103.873 137.927 104.03
104.148 139 104.423
103.182 137.555 103.734
104.098 137.454 103.793
104.416 137.956 103.95
102.97 140.082 104.779
102.241 139.97 104.462
102.642 140.698 104.661
101.636 139.923 104.005
103.708 140.028 105.154
102.952 141.363 104.851
102.338 141.404 104.433
101.73 138.488 103.493
102.095 138.072 103.44
101.608 137.993 103.289
102.306 137.667 103.46
101.343 138.86 103.521
101.183 137.826 103.142
101.511 137.515 103.118
102.992 136.836 102.986
103.346 136.262 102.635
103.04 136.49 102.443
103.574 135.612 102.526
103.685 136.105 102.816
102.934 137.077 103.546
102.553 137.174 103.353
102.56 136.588 102.363
102.835 135.959 102.223
103.932 136.663 102.993
103.405 136.984 103.589
103.981 136.969 103.457
104.269 136.106 102.725
104.558 137.025 103.179
102.133 137.17 103.176
102.093 136.898 102.765
101.674 137.147 103.095
102.084 136.625 102.316
101.389 137.099 102.903
103.04 135.274 102.095
103.505 135.134 102.152
103.219 134.675 102.005
103.903 135.001 102.263
102.615 135.394 102.039
103.17 134.211 101.734
103.625 134.151 101.7
102.523 137.659 99.0735
102.669 138.214 99.267
102.271 138.369 99.0836
102.859 138.886 99.5113
103.069 138.116 99.489
102.895 137.128 98.7179
102.479 137.128 98.6879
101.829 138.478 98.9571
101.961 139.101 99.1644
103.39 137.596 99.2911
103.374 137.186 98.7276
103.87 137.27 98.7977
103.384 136.79 98.2577
103.423 138.018 99.7199
104.257 137.24 98.9172
104.248 136.789 98.5278
102.042 137.138 98.6732
101.743 137.797 98.8531
101.69 137.186 98.6171
101.322 138.487 98.8508
102.416 136.723 98.1628
101.567 136.754 98.2565
101.259 137.27 98.5824
102.152 139.63 99.516
102.59 139.504 99.6903
102.319 140.148 99.8739
103.04 139.385 99.8987
101.677 139.732 99.3275
102.079 140.823 99.9526
102.532 140.667 100.2
103.546 135.171 96.4673
103.174 135.739 96.9093
102.862 135.088 96.2077
102.78 136.23 97.584
103.307 136.265 97.6726
104.057 135.253 97.0214
103.767 134.431 96.5997
102.35 134.215 95.8352
102.125 134.989 96.3428
103.758 136.351 97.899
104.159 135.875 97.6052
104.165 136.358 98.1475
104.477 135.344 97.5355
104.55 136.392 98.4032
103.592 133.469 95.9649
102.748 133.271 95.5235
103.136 132.448 95.8656
101.768 133.159 95.6655
104.256 133.615 96.6232
103.502 132.162 96.6018
102.644 132 96.412
102.002 135.608 97.0612
102.252 136.268 97.5879
101.756 136.308 97.6994
101.67 134.943 96.7765
101.463 136.335 97.99
105.491 137.621 102.451
105.781 137.2 101.938
105.797 136.964 102.238
105.922 136.829 101.444
105.697 137.45 101.65
105.808 138.383 102.766
105.664 138.103 103.026
105.762 136.676 102.417
106.083 136.276 102.002
105.492 138.061 101.944
105.768 138.649 102.426
105.565 138.839 102.118
105.828 139.035 102.99
105.58 137.7 101.434
105.435 139.014 101.803
105.383 139.34 102.277
105.402 137.739 103.122
105.364 137.091 102.655
105.16 137.451 103.072
105.574 136.433 102.536
105.649 138.401 103.656
104.946 137.756 103.631
104.935 137.148 103.021
106.255 135.877 101.506
106.184 136.186 101.227
106.362 135.608 101.023
105.974 136.442 100.922
106.223 135.532 101.777
106.422 134.879 100.809
106.418 135.223 100.513
105.844 137.053 100.38
105.602 137.335 100.158
105.83 136.765 99.8831
105.263 137.588 99.9848
105.198 137.839 100.513
105.714 137.336 100.906
105.906 136.778 100.63
105.896 136.024 99.6368
105.779 136.385 99.3556
105.279 138.251 100.926
105.476 138.005 101.149
105.44 138.674 101.349
104.965 138.465 100.806
105.171 139.193 101.581
106.155 136.15 100.389
106.099 135.77 99.9059
106.279 135.473 100.225
105.983 135.301 99.4017
106.455 134.811 100.053
105.486 136.652 99.1795
105.224 137.228 99.5232
105.109 136.889 99.0558
104.709 137.674 99.9535
105.573 135.986 98.8666
104.846 136.553 98.6919
104.65 137.092 99.0169
99.8057 136.969 101.905
99.6379 137.168 101.641
99.7007 137.552 101.967
99.3975 137.36 101.244
99.6367 136.84 101.187
100.184 136.525 101.746
100.138 136.811 102.165
99.8699 137.855 102.269
99.4679 138.086 101.999
100.11 136.515 101.02
100.288 136.252 101.327
100.444 136.007 100.882
100.633 136.107 101.556
99.9637 136.707 100.699
100.71 135.643 100.447
100.772 135.395 100.712
100.306 137.087 102.441
100.159 137.5 102.53
100.52 137.307 102.739
100.163 138.116 102.57
100.657 136.775 102.271
100.942 137.162 102.86
100.79 137.541 103.012
99.2215 138.326 101.613
99.1154 137.946 101.231
98.9172 138.494 101.261
99.1855 137.615 100.787
99.2966 138.591 102.075
98.7292 139.061 101.26
98.7194 138.686 100.831
99.8545 137.142 99.9446
100.266 136.87 99.6293
99.8005 137.418 99.6174
100.642 136.366 99.1632
100.625 136.12 99.4674
99.9431 136.899 100.302
99.4861 137.363 100.347
99.5799 138.061 99.59
99.8977 137.77 99.3241
100.662 135.955 99.7977
100.35 136.417 100.235
100.72 135.808 100.136
100.97 135.238 99.28
100.966 135.055 100.001
99.1288 137.923 100.338
99.1658 138.327 99.9217
98.925 138.563 100.387
99.2431 138.732 99.5153
98.7289 139.175 100.428
100.396 137.397 99.0965
100.647 136.639 98.9048
100.815 136.951 98.7123
101.051 135.852 98.6911
100.075 138.098 99.0684
100.964 137.156 98.6294
101.194 136.542 98.3467
104.298 142.067 102.925
103.852 142.825 102.535
104.103 142.015 102.208
103.284 143.293 101.983
103.313 143.393 102.866
104.406 141.961 103.672
104.587 141.521 103.151
104.357 141.266 101.906
103.876 141.654 101.613
103.41 143.287 103.858
104.035 142.537 104.278
103.375 142.845 104.65
104.407 141.625 104.257
102.478 143.45 103.231
102.509 142.686 104.701
103.245 142.07 104.904
104.861 141.044 102.65
104.587 140.822 102.167
104.874 140.342 102.306
104.418 140.516 101.63
105.196 141.087 103.183
105.111 139.806 102.327
104.988 139.76 101.889
103.412 141.883 101.248
103.151 142.684 101.266
102.944 141.969 100.793
102.535 143.25 101.427
103.606 141.068 101.1
102.813 141.423 100.437
102.389 141.877 100.417
100.702 143.471 101.776
99.7185 143.083 102.046
100.034 142.925 100.997
99.4909 142.043 102.028
99.9591 142.528 102.874
101.625 143.49 102.535
101.695 143.513 101.626
100.466 142.292 100.383
99.633 142.091 100.417
100.866 142.713 103.459
101.608 143.165 103.457
101.648 142.813 104.149
100.463 141.889 103.336
101.879 142.069 104.453
101.737 142.831 100.937
101.175 142.309 100.384
101.862 142.179 100.386
100.749 141.697 99.9532
101.927 141.539 100.089
99.059 141.443 100.739
99.2173 141.44 101.429
98.9235 140.781 100.938
99.5516 141.157 101.977
99.3345 141.104 100.059
98.6468 139.861 100.612
98.7415 139.877 101.179
104.729 131.285 100.127
105.345 131.577 100.675
105.489 131.513 99.7737
105.833 132.295 101.091
105.041 132.217 101.287
103.989 131.517 100.379
103.973 131.117 99.6265
105.415 131.612 98.8772
105.98 132.085 99.3549
104.504 132.473 101.298
104.024 132.131 100.887
104.034 132.86 101.2
103.581 132.13 100.451
104.817 132.976 101.529
103.922 133.553 101.423
103.626 133.325 101.212
103.938 131.164 98.8136
104.694 131.435 98.4084
103.818 131.437 98.0284
105.246 132.033 98.1368
103.168 131.217 99.2222
103.051 131.483 97.6323
103.712 131.835 97.3491
106.255 132.843 99.9054
106.299 132.976 100.652
106.206 133.56 100.307
106.056 133.289 101.333
106.117 132.904 99.1855
106.477 134.138 100.079
106.467 134.195 100.584
102.326 132.883 100.072
102.515 132.209 99.8278
101.942 132.466 99.5943
102.655 131.664 99.6191
103.059 132.107 100.068
102.409 133.276 100.488
102.019 133.574 100.345
101.415 132.718 99.3493
101.661 132.189 98.9308
103.281 132.658 100.476
102.879 133.125 100.731
103.265 133.142 100.97
102.354 133.742 101.016
103.198 133.726 101.379
101.615 133.816 100.17
101.214 133.393 99.7486
101.164 134.04 100.082
100.994 133.16 99.1485
101.618 134.101 100.711
101.052 134.678 100.402
100.952 134.431 99.9887
101.813 131.844 98.5364
102.335 131.411 98.8732
102.265 131.457 98.0093
101.402 132.138 98.0689
102.338 131.646 97.1875
105.179 139.974 104.777
105.463 140.597 104.417
105.346 139.6 104.076
105.434 140.923 103.774
104.971 141.13 104.373
104.482 140.069 105.109
104.604 139.403 104.6
105.563 138.927 103.895
105.744 139.346 103.547
104.437 141.334 104.85
104.129 140.743 105.403
103.647 141.448 105.038
104.772 138.922 104.035
105.23 138.629 104.038
104.839 138.313 103.977
105.547 139.594 103.171
105.383 140.389 103.231
105.305 139.753 102.756
103.86 139.492 100.781
103.717 139.039 100.437
104.093 138.851 100.588
103.703 138.667 99.9519
103.388 139.218 100.188
103.773 140.364 100.946
104.113 140.041 101.164
104.483 138.648 100.726
104.308 138.206 100.297
103.233 139.986 100.315
103.441 140.65 100.673
103.013 140.711 100.431
104.557 139.739 101.309
104.734 139.077 101.06
104.887 139.498 101.465
104.195 137.779 99.9196
103.755 137.905 99.8625
104.26 137.469 99.418
105.012 135.034 102.238
105.53 135.124 102.242
105.367 134.406 101.883
105.994 135.288 102.083
105.632 135.71 102.386
104.564 135.484 102.457
104.398 134.963 102.35
105.223 133.732 101.646
105.688 133.886 101.592
105.213 136.194 102.63
104.823 136.062 102.637
104.931 136.704 102.845
104.352 134.445 101.879
104.666 133.764 101.623
104.138 133.982 101.659
106.081 134.153 101.407
106.188 134.883 101.55
106.36 134.528 101.128
105.745 134.525 98.2179
105.428 134.159 97.6382
105.658 133.639 98.0211
104.837 133.874 97.181
104.845 134.738 97.6231
105.607 135.34 98.5892
105.882 134.874 98.8253
105.977 133.182 98.5342
105.613 132.771 97.9365
104.963 135.534 97.968
105.376 135.766 98.4011
104.95 136.072 98.3882
106.199 134.512 99.1538
106.089 133.7 99.1238
106.322 134.266 99.6483
105.049 132.46 97.435
104.662 132.995 96.9581
104.265 132.348 97.0603
100.556 139.679 103.256
99.9783 139.348 102.902
100.086 140.076 103.023
99.5674 138.966 102.522
100.038 138.685 102.757
100.919 139.255 103.46
101.113 139.93 103.555
100.353 140.956 103.094
99.8143 140.649 102.59
100.447 138.36 102.93
100.871 138.679 103.217
100.852 138.115 103.031
101.256 140.574 103.832
100.923 141.297 103.566
101.552 141.383 104.063
99.3196 140.244 102.104
99.2163 139.319 102.127
98.9125 139.621 101.682
99.8785 139.56 99.046
100.54 139.727 99.1371
100.123 140.169 99.3665
101.12 139.754 99.2282
100.887 139.093 99.0222
99.936 138.781 99.0413
99.378 139.143 99.1484
99.7999 140.559 99.7587
100.411 140.806 99.7435
100.82 138.44 98.8397
100.374 138.307 98.896
100.872 137.699 98.7906
99.0934 139.459 99.6431
99.1433 140.208 99.781
98.7821 139.74 100.036
101.056 140.969 99.7181
101.314 140.34 99.523
101.626 140.957 99.7666
101.425 135.8 101.731
101.839 135.682 101.762
101.655 134.996 101.546
102.223 135.501 101.909
102.029 136.224 102.015
101.062 136.342 101.974
101.109 136.02 101.622
101.551 134.441 101.256
101.932 134.287 101.308
101.639 136.673 102.269
101.121 136.687 102.312
101.213 136.858 102.623
100.963 135.494 101.39
101.214 134.751 101.078
100.983 135.084 100.93
102.289 134.214 101.464
102.425 134.833 101.759
102.745 134.208 101.649
101.164 133.659 97.1565
101.089 134.041 98.0412
100.902 133.264 97.7272
101.103 134.618 98.6958
101.293 134.946 98.395
101.404 134.248 96.8681
101.264 133.292 96.274
100.948 132.528 97.7627
100.909 133.086 98.4565
101.432 135.384 98.1596
101.521 135.086 97.5339
101.41 135.859 97.9667
101.337 132.489 96.1315
101.305 132.215 97.1375
101.904 132.005 96.6494
100.968 133.715 99.0168
101.013 134.418 99.0914
100.943 134.37 99.5284
POLYGONS 1280  5120
3 164 162 163
3 163 44 164
3 162 43 163
3 164 42 162
3 166 165 163
3 163 43 166
3 165 44 163
3 166 14 165
3 168 167 162
3 162 42 168
3 167 43 162
3 168 13 167
3 170 169 164
3 164 44 170
3 169 42 164
3 170 12 169
3 173 171 172
3 172 46 173
3 171 43 172
3 173 45 171
3 167 174 172
3 172 43 167
3 174 46 172
3 167 13 174
3 175 166 171
3 171 45 175
3 166 43 171
3 175 14 166
3 177 176 173
3 173 46 177
3 176 45 173
3 177 4 176
3 180 178 179
3 179 48 180
3 178 42 179
3 180 47 178
3 169 181 179
3 179 42 169
3 181 48 179
3 169 12 181
3 182 168 178
3 178 47 182
3 168 42 178
3 182 13 168
3 184 183 180
3 180 48 184
3 183 47 180
3 184 8 183
3 187 185 186
3 186 50 187
3 185 44 186
3 187 49 185
3 165 188 186
3 186 44 165
3 188 50 186
3 165 14 188
3 189 170 185
3 185 49 189
3 170 44 185
3 189 12 170
3 191 190 187
3 187 50 191
3 190 49 187
3 191 7 190
3 194 192 193
3 193 53 194
3 192 52 193
3 194 51 192
3 196 195 193
3 193 52 196
3 195 53 193
3 196 16 195
3 198 197 192
3 192 51 198
3 197 52 192
3 198 14 197
3 200 199 194
3 194 53 200
3 199 51 194
3 200 15 199
3 203 201 202
3 202 45 203
3 201 52 202
3 203 54 201
3 197 175 202
3 202 52 197
3 175 45 202
3 197 14 175
3 204 196 201
3 201 54 204
3 196 52 201
3 204 16 196
3 176 205 203
3 203 45 176
3 205 54 203
3 176 4 205
3 208 206 207
3 207 55 208
3 206 51 207
3 208 50 206
3 199 209 207
3 207 51 199
3 209 55 207
3 199 15 209
3 188 198 206
3 206 50 188
3 198 51 206
3 188 14 198
3 210 191 208
3 208 55 210
3 191 50 208
3 210 7 191
3 213 211 212
3 212 57 213
3 211 53 212
3 213 56 211
3 195 214 212
3 212 53 195
3 214 57 212
3 195 16 214
3 215 200 211
3 211 56 215
3 200 53 211
3 215 15 200
3 217 216 213
3 213 57 217
3 216 56 213
3 217 9 216
3 220 218 219
3 219 60 220
3 218 59 219
3 220 58 218
3 222 221 219
3 219 59 222
3 221 60 219
3 222 19 221
3 224 223 218
3 218 58 224
3 223 59 218
3 224 18 223
3 226 225 220
3 220 60 226
3 225 58 220
3 226 17 225
3 229 227 228
3 228 62 229
3 227 59 228
3 229 61 227
3 223 230 228
3 228 59 223
3 230 62 228
3 223 18 230
3 231 222 227
3 227 61 231
3 222 59 227
3 231 19 222
3 233 232 229
3 229 62 233
3 232 61 229
3 233 5 232
3 236 234 235
3 235 64 236
3 234 58 235
3 236 63 234
3 225 237 235
3 235 58 225
3 237 64 235
3 225 17 237
3 238 224 234
3 234 63 238
3 224 58 234
3 238 18 224
3 240 239 236
3 236 64 240
3 239 63 236
3 240 6 239
3 243 241 242
3 242 66 243
3 241 60 242
3 243 65 241
3 221 244 242
3 242 60 221
3 244 66 242
3 221 19 244
3 245 226 241
3 241 65 245
3 226 60 241
3 245 17 226
3 247 246 243
3 243 66 247
3 246 65 243
3 247 11 246
3 250 248 249
3 249 69 250
3 248 68 249
3 250 67 248
3 252 251 249
3 249 68 252
3 251 69 249
3 252 18 251
3 254 253 248
3 248 67 254
3 253 68 248
3 254 21 253
3 256 255 250
3 250 69 256
3 255 67 250
3 256 20 255
3 259 257 258
3 258 70 259
3 257 68 258
3 259 62 257
3 253 260 258
3 258 68 253
3 260 70 258
3 253 21 260
3 230 252 257
3 257 62 230
3 252 68 257
3 230 18 252
3 261 233 259
3 259 70 261
3 233 62 259
3 261 5 233
3 264 262 263
3 263 72 264
3 262 67 263
3 264 71 262
3 255 265 263
3 263 67 255
3 265 72 263
3 255 20 265
3 266 254 262
3 262 71 266
3 254 67 262
3 266 21 254
3 268 267 264
3 264 72 268
3 267 71 264
3 268 10 267
3 271 269 270
3 270 63 271
3 269 69 270
3 271 73 269
3 251 238 270
3 270 69 251
3 238 63 270
3 251 18 238
3 272 256 269
3 269 73 272
3 256 69 269
3 272 20 256
3 239 273 271
3 271 63 239
3 273 73 271
3 239 6 273
3 276 274 275
3 275 76 276
3 274 75 275
3 276 74 274
3 278 277 275
3 275 75 278
3 277 76 275
3 278 24 277
3 280 279 274
3 274 74 280
3 279 75 274
3 280 23 279
3 282 281 276
3 276 76 282
3 281 74 276
3 282 22 281
3 285 283 284
3 284 78 285
3 283 75 284
3 285 77 283
3 279 286 284
3 284 75 279
3 286 78 284
3 279 23 286
3 287 278 283
3 283 77 287
3 278 75 283
3 287 24 278
3 289 288 285
3 285 78 289
3 288 77 285
3 289 0 288
3 292 290 291
3 291 80 292
3 290 74 291
3 292 79 290
3 281 293 291
3 291 74 281
3 293 80 291
3 281 22 293
3 294 280 290
3 290 79 294
3 280 74 290
3 294 23 280
3 296 295 292
3 292 80 296
3 295 79 292
3 296 4 295
3 299 297 298
3 298 82 299
3 297 76 298
3 299 81 297
3 277 300 298
3 298 76 277
3 300 82 298
3 277 24 300
3 301 282 297
3 297 81 301
3 282 76 297
3 301 22 282
3 303 302 299
3 299 82 303
3 302 81 299
3 303 3 302
3 306 304 305
3 305 85 306
3 304 84 305
3 306 83 304
3 308 307 305
3 305 84 308
3 307 85 305
3 308 26 307
3 310 309 304
3 304 83 310
3 309 84 304
3 310 24 309
3 312 311 306
3 306 85 312
3 311 83 306
3 312 25 311
3 315 313 314
3 314 77 315
3 313 84 314
3 315 86 313
3 309 287 314
3 314 84 309
3 287 77 314
3 309 24 287
3 316 308 313
3 313 86 316
3 308 84 313
3 316 26 308
3 288 317 315
3 315 77 288
3 317 86 315
3 288 0 317
3 320 318 319
3 319 87 320
3 318 83 319
3 320 82 318
3 311 321 319
3 319 83 311
3 321 87 319
3 311 25 321
3 300 310 318
3 318 82 300
3 310 83 318
3 300 24 310
3 322 303 320
3 320 87 322
3 303 82 320
3 322 3 303
3 325 323 324
3 324 89 325
3 323 85 324
3 325 88 323
3 307 326 324
3 324 85 307
3 326 89 324
3 307 26 326
3 327 312 323
3 323 88 327
3 312 85 323
3 327 25 312
3 329 328 325
3 325 89 329
3 328 88 325
3 329 5 328
3 332 330 331
3 331 92 332
3 330 91 331
3 332 90 330
3 334 333 331
3 331 91 334
3 333 92 331
3 334 29 333
3 336 335 330
3 330 90 336
3 335 91 330
3 336 28 335
3 338 337 332
3 332 92 338
3 337 90 332
3 338 27 337
3 341 339 340
3 340 94 341
3 339 91 340
3 341 93 339
3 335 342 340
3 340 91 335
3 342 94 340
3 335 28 342
3 343 334 339
3 339 93 343
3 334 91 339
3 343 29 334
3 345 344 341
3 341 94 345
3 344 93 341
3 345 2 344
3 348 346 347
3 347 96 348
3 346 90 347
3 348 95 346
3 337 349 347
3 347 90 337
3 349 96 347
3 337 27 349
3 350 336 346
3 346 95 350
3 336 90 346
3 350 28 336
3 352 351 348
3 348 96 352
3 351 95 348
3 352 7 351
3 355 353 354
3 354 98 355
3 353 92 354
3 355 97 353
3 333 356 354
3 354 92 333
3 356 98 354
3 333 29 356
3 357 338 353
3 353 97 357
3 338 92 353
3 357 27 338
3 359 358 355
3 355 98 359
3 358 97 355
3 359 1 358
3 362 360 361
3 361 101 362
3 360 100 361
3 362 99 360
3 364 363 361
3 361 100 364
3 363 101 361
3 364 31 363
3 366 365 360
3 360 99 366
3 365 100 360
3 366 29 365
3 368 367 362
3 362 101 368
3 367 99 362
3 368 30 367
3 371 369 370
3 370 93 371
3 369 100 370
3 371 102 369
3 365 343 370
3 370 100 365
3 343 93 370
3 365 29 343
3 372 364 369
3 369 102 372
3 364 100 369
3 372 31 364
3 344 373 371
3 371 93 344
3 373 102 371
3 344 2 373
3 376 374 375
3 375 103 376
3 374 99 375
3 376 98 374
3 367 377 375
3 375 99 367
3 377 103 375
3 367 30 377
3 356 366 374
3 374 98 356
3 366 99 374
3 356 29 366
3 378 359 376
3 376 103 378
3 359 98 376
3 378 1 359
3 381 379 380
3 380 105 381
3 379 101 380
3 381 104 379
3 363 382 380
3 380 101 363
3 382 105 380
3 363 31 382
3 383 368 379
3 379 104 383
3 368 101 379
3 383 30 368
3 385 384 381
3 381 105 385
3 384 104 381
3 385 6 384
3 388 386 387
3 387 108 388
3 386 107 387
3 388 106 386
3 390 389 387
3 387 107 390
3 389 108 387
3 390 34 389
3 392 391 386
3 386 106 392
3 391 107 386
3 392 33 391
3 394 393 388
3 388 108 394
3 393 106 388
3 394 32 393
3 397 395 396
3 396 110 397
3 395 107 396
3 397 109 395
3 391 398 396
3 396 107 391
3 398 110 396
3 391 33 398
3 399 390 395
3 395 109 399
3 390 107 395
3 399 34 390
3 401 400 397
3 397 110 401
3 400 109 397
3 401 8 400
3 404 402 403
3 403 112 404
3 402 106 403
3 404 111 402
3 393 405 403
3 403 106 393
3 405 112 403
3 393 32 405
3 406 392 402
3 402 111 406
3 392 106 402
3 406 33 392
3 408 407 404
3 404 112 408
3 407 111 404
3 408 0 407
3 411 409 410
3 410 114 411
3 409 108 410
3 411 113 409
3 389 412 410
3 410 108 389
3 412 114 410
3 389 34 412
3 413 394 409
3 409 113 413
3 394 108 409
3 413 32 394
3 415 414 411
3 411 114 415
3 414 113 411
3 415 11 414
3 418 416 417
3 417 117 418
3 416 116 417
3 418 115 416
3 420 419 417
3 417 116 420
3 419 117 417
3 420 36 419
3 422 421 416
3 416 115 422
3 421 116 416
3 422 34 421
3 424 423 418
3 418 117 424
3 423 115 418
3 424 35 423
3 427 425 426
3 426 109 427
3 425 116 426
3 427 118 425
3 421 399 426
3 426 116 421
3 399 109 426
3 421 34 399
3 428 420 425
3 425 118 428
3 420 116 425
3 428 36 420
3 400 429 427
3 427 109 400
3 429 118 427
3 400 8 429
3 432 430 431
3 431 119 432
3 430 115 431
3 432 114 430
3 423 433 431
3 431 115 423
3 433 119 431
3 423 35 433
3 412 422 430
3 430 114 412
3 422 115 430
3 412 34 422
3 434 415 432
3 432 119 434
3 415 114 432
3 434 11 415
3 437 435 436
3 436 121 437
3 435 117 436
3 437 120 435
3 419 438 436
3 436 117 419
3 438 121 436
3 419 36 438
3 439 424 435
3 435 120 439
3 424 117 435
3 439 35 424
3 441 440 437
3 437 121 441
3 440 120 437
3 441 1 440
3 444 442 443
3 443 124 444
3 442 123 443
3 444 122 442
3 446 445 443
3 443 123 446
3 445 124 443
3 446 39 445
3 448 447 442
3 442 122 448
3 447 123 442
3 448 38 447
3 450 449 444
3 444 124 450
3 449 122 444
3 450 37 449
3 453 451 452
3 452 126 453
3 451 123 452
3 453 125 451
3 447 454 452
3 452 123 447
3 454 126 452
3 447 38 454
3 455 446 451
3 451 125 455
3 446 123 451
3 455 39 446
3 457 456 453
3 453 126 457
3 456 125 453
3 457 9 456
3 460 458 459
3 459 128 460
3 458 122 459
3 460 127 458
3 449 461 459
3 459 122 449
3 461 128 459
3 449 37 461
3 462 448 458
3 458 127 462
3 448 122 458
3 462 38 448
3 464 463 460
3 460 128 464
3 463 127 460
3 464 10 463
3 467 465 466
3 466 130 467
3 465 124 466
3 467 129 465
3 445 468 466
3 466 124 445
3 468 130 466
3 445 39 468
3 469 450 465
3 465 129 469
3 450 124 465
3 469 37 450
3 471 470 467
3 467 130 471
3 470 129 467
3 471 3 470
3 474 472 473
3 473 133 474
3 472 132 473
3 474 131 472
3 476 475 473
3 473 132 476
3 475 133 473
3 476 38 475
3 478 477 472
3 472 131 478
3 477 132 472
3 478 41 477
3 480 479 474
3 474 133 480
3 479 131 474
3 480 40 479
3 483 481 482
3 482 134 483
3 481 132 482
3 483 126 481
3 477 484 482
3 482 132 477
3 484 134 482
3 477 41 484
3 454 476 481
3 481 126 454
3 476 132 481
3 454 38 476
3 485 457 483
3 483 134 485
3 457 126 483
3 485 9 457
3 488 486 487
3 487 136 488
3 486 131 487
3 488 135 486
3 479 489 487
3 487 131 479
3 489 136 487
3 479 40 489
3 490 478 486
3 486 135 490
3 478 131 486
3 490 41 478
3 492 491 488
3 488 136 492
3 491 135 488
3 492 2 491
3 495 493 494
3 494 127 495
3 493 133 494
3 495 137 493
3 475 462 494
3 494 133 475
3 462 127 494
3 475 38 462
3 496 480 493
3 493 137 496
3 480 133 493
3 496 40 480
3 463 497 495
3 495 127 463
3 497 137 495
3 463 10 497
3 500 498 499
3 499 140 500
3 498 139 499
3 500 138 498
3 502 501 499
3 499 139 502
3 501 140 499
3 502 33 501
3 504 503 498
3 498 138 504
3 503 139 498
3 504 13 503
3 506 505 500
3 500 140 506
3 505 138 500
3 506 23 505
3 509 507 508
3 508 47 509
3 507 139 508
3 509 110 507
3 503 182 508
3 508 139 503
3 182 47 508
3 503 13 182
3 398 502 507
3 507 110 398
3 502 139 507
3 398 33 502
3 183 401 509
3 509 47 183
3 401 110 509
3 183 8 401
3 512 510 511
3 511 79 512
3 510 138 511
3 512 46 510
3 505 294 511
3 511 138 505
3 294 79 511
3 505 23 294
3 174 504 510
3 510 46 174
3 504 138 510
3 174 13 504
3 295 177 512
3 512 79 295
3 177 46 512
3 295 4 177
3 515 513 514
3 514 111 515
3 513 140 514
3 515 78 513
3 501 406 514
3 514 140 501
3 406 111 514
3 501 33 406
3 286 506 513
3 513 78 286
3 506 140 513
3 286 23 506
3 407 289 515
3 515 111 407
3 289 78 515
3 407 0 289
3 518 516 517
3 517 143 518
3 516 142 517
3 518 141 516
3 520 519 517
3 517 142 520
3 519 143 517
3 520 19 519
3 522 521 516
3 516 141 522
3 521 142 516
3 522 32 521
3 524 523 518
3 518 143 524
3 523 141 518
3 524 26 523
3 527 525 526
3 526 113 527
3 525 142 526
3 527 66 525
3 521 413 526
3 526 142 521
3 413 113 526
3 521 32 413
3 244 520 525
3 525 66 244
3 520 142 525
3 244 19 520
3 414 247 527
3 527 113 414
3 247 66 527
3 414 11 247
3 530 528 529
3 529 86 530
3 528 141 529
3 530 112 528
3 523 316 529
3 529 141 523
3 316 86 529
3 523 26 316
3 405 522 528
3 528 112 405
3 522 141 528
3 405 32 522
3 317 408 530
3 530 86 317
3 408 112 530
3 317 0 408
3 533 531 532
3 532 61 533
3 531 143 532
3 533 89 531
3 519 231 532
3 532 143 519
3 231 61 532
3 519 19 231
3 326 524 531
3 531 89 326
3 524 143 531
3 326 26 524
3 232 329 533
3 533 61 232
3 329 89 533
3 232 5 329
3 536 534 535
3 535 146 536
3 534 145 535
3 536 144 534
3 538 537 535
3 535 145 538
3 537 146 535
3 538 22 537
3 540 539 534
3 534 144 540
3 539 145 534
3 540 16 539
3 542 541 536
3 536 146 542
3 541 144 536
3 542 39 541
3 545 543 544
3 544 54 545
3 543 145 544
3 545 80 543
3 539 204 544
3 544 145 539
3 204 54 544
3 539 16 204
3 293 538 543
3 543 80 293
3 538 145 543
3 293 22 538
3 205 296 545
3 545 54 205
3 296 80 545
3 205 4 296
3 548 546 547
3 547 125 548
3 546 144 547
3 548 57 546
3 541 455 547
3 547 144 541
3 455 125 547
3 541 39 455
3 214 540 546
3 546 57 214
3 540 144 546
3 214 16 540
3 456 217 548
3 548 125 456
3 217 57 548
3 456 9 217
3 551 549 550
3 550 81 551
3 549 146 550
3 551 130 549
3 537 301 550
3 550 146 537
3 301 81 550
3 537 22 301
3 468 542 549
3 549 130 468
3 542 146 549
3 468 39 542
3 302 471 551
3 551 81 302
3 471 130 551
3 302 3 471
3 554 552 553
3 553 149 554
3 552 148 553
3 554 147 552
3 556 555 553
3 553 148 556
3 555 149 553
3 556 21 555
3 558 557 552
3 552 147 558
3 557 148 552
3 558 25 557
3 560 559 554
3 554 149 560
3 559 147 554
3 560 37 559
3 563 561 562
3 562 88 563
3 561 148 562
3 563 70 561
3 557 327 562
3 562 148 557
3 327 88 562
3 557 25 327
3 260 556 561
3 561 70 260
3 556 148 561
3 260 21 556
3 328 261 563
3 563 88 328
3 261 70 563
3 328 5 261
3 566 564 565
3 565 129 566
3 564 147 565
3 566 87 564
3 559 469 565
3 565 147 559
3 469 129 565
3 559 37 469
3 321 558 564
3 564 87 321
3 558 147 564
3 321 25 558
3 470 322 566
3 566 129 470
3 322 87 566
3 470 3 322
3 569 567 568
3 568 71 569
3 567 149 568
3 569 128 567
3 555 266 568
3 568 149 555
3 266 71 568
3 555 21 266
3 461 560 567
3 567 128 461
3 560 149 567
3 461 37 560
3 267 464 569
3 569 71 267
3 464 128 569
3 267 10 464
3 572 570 571
3 571 152 572
3 570 151 571
3 572 150 570
3 574 573 571
3 571 151 574
3 573 152 571
3 574 27 573
3 576 575 570
3 570 150 576
3 575 151 570
3 576 12 575
3 578 577 572
3 572 152 578
3 577 150 572
3 578 36 577
3 581 579 580
3 580 49 581
3 579 151 580
3 581 96 579
3 575 189 580
3 580 151 575
3 189 49 580
3 575 12 189
3 349 574 579
3 579 96 349
3 574 151 579
3 349 27 574
3 190 352 581
3 581 49 190
3 352 96 581
3 190 7 352
3 584 582 583
3 583 118 584
3 582 150 583
3 584 48 582
3 577 428 583
3 583 150 577
3 428 118 583
3 577 36 428
3 181 576 582
3 582 48 181
3 576 150 582
3 181 12 576
3 429 184 584
3 584 118 429
3 184 48 584
3 429 8 184
3 587 585 586
3 586 97 587
3 585 152 586
3 587 121 585
3 573 357 586
3 586 152 573
3 357 97 586
3 573 27 357
3 438 578 585
3 585 121 438
3 578 152 585
3 438 36 578
3 358 441 587
3 587 97 358
3 441 121 587
3 358 1 441
3 590 588 589
3 589 155 590
3 588 154 589
3 590 153 588
3 592 591 589
3 589 154 592
3 591 155 589
3 592 17 591
3 594 593 588
3 588 153 594
3 593 154 588
3 594 30 593
3 596 595 590
3 590 155 596
3 595 153 590
3 596 35 595
3 599 597 598
3 598 104 599
3 597 154 598
3 599 64 597
3 593 383 598
3 598 154 593
3 383 104 598
3 593 30 383
3 237 592 597
3 597 64 237
3 592 154 597
3 237 17 592
3 384 240 599
3 599 104 384
3 240 64 599
3 384 6 240
3 602 600 601
3 601 120 602
3 600 153 601
3 602 103 600
3 595 439 601
3 601 153 595
3 439 120 601
3 595 35 439
3 377 594 600
3 600 103 377
3 594 153 600
3 377 30 594
3 440 378 602
3 602 120 440
3 378 103 602
3 440 1 378
3 605 603 604
3 604 65 605
3 603 155 604
3 605 119 603
3 591 245 604
3 604 155 591
3 245 65 604
3 591 17 245
3 433 596 603
3 603 119 433
3 596 155 603
3 433 35 596
3 246 434 605
3 605 65 246
3 434 119 605
3 246 11 434
3 608 606 607
3 607 158 608
3 606 157 607
3 608 156 606
3 610 609 607
3 607 157 610
3 609 158 607
3 610 15 609
3 612 611 606
3 606 156 612
3 611 157 606
3 612 28 611
3 614 613 608
3 608 158 614
3 613 156 608
3 614 41 613
3 617 615 616
3 616 95 617
3 615 157 616
3 617 55 615
3 611 350 616
3 616 157 611
3 350 95 616
3 611 28 350
3 209 610 615
3 615 55 209
3 610 157 615
3 209 15 610
3 351 210 617
3 617 95 351
3 210 55 617
3 351 7 210
3 620 618 619
3 619 135 620
3 618 156 619
3 620 94 618
3 613 490 619
3 619 156 613
3 490 135 619
3 613 41 490
3 342 612 618
3 618 94 342
3 612 156 618
3 342 28 612
3 491 345 620
3 620 135 491
3 345 94 620
3 491 2 345
3 623 621 622
3 622 56 623
3 621 158 622
3 623 134 621
3 609 215 622
3 622 158 609
3 215 56 622
3 609 15 215
3 484 614 621
3 621 134 484
3 614 158 621
3 484 41 614
3 216 485 623
3 623 56 216
3 485 134 623
3 216 9 485
3 626 624 625
3 625 161 626
3 624 160 625
3 626 159 624
3 628 627 625
3 625 160 628
3 627 161 625
3 628 31 627
3 630 629 624
3 624 159 630
3 629 160 624
3 630 20 629
3 632 631 626
3 626 161 632
3 631 159 626
3 632 40 631
3 635 633 634
3 634 73 635
3 633 160 634
3 635 105 633
3 629 272 634
3 634 160 629
3 272 73 634
3 629 20 272
3 382 628 633
3 633 105 382
3 628 160 633
3 382 31 628
3 273 385 635
3 635 73 273
3 385 105 635
3 273 6 385
3 638 636 637
3 637 137 638
3 636 159 637
3 638 72 636
3 631 496 637
3 637 159 631
3 496 137 637
3 631 40 496
3 265 630 636
3 636 72 265
3 630 159 636
3 265 20 630
3 497 268 638
3 638 137 497
3 268 72 638
3 497 10 268
3 641 639 640
3 640 102 641
3 639 161 640
3 641 136 639
3 627 372 640
3 640 161 627
3 372 102 640
3 627 31 372
3 489 632 639
3 639 136 489
3 632 161 639
3 489 40 632
3 373 492 641
3 641 102 373
3 492 136 641
3 373 2 492
