# vtk DataFile Version 3.0
this file was written using fslvtkio
ASCII
DATASET POLYDATA
POINTS 642 float
138.081 137.741 107.943
126.375 136.015 108.787
134.024 124.489 108.796
141.652 120.312 105.751
139.17 126.39 115.337
136.252 131.905 101.708
128.54 132.464 101.474
132.157 126.066 117.397
132.268 141.753 115.513
137.693 111.198 112.052
138.097 116.66 100.446
128.057 144.849 101.349
132.109 134.066 118.142
136.412 135.03 116.572
136.383 125.561 119.642
134.841 118.189 116.715
139.228 117.451 114.786
125.093 138.027 98.2168
131.968 132.752 100.458
131.95 139.665 99.7978
136.058 124.758 102.564
139.335 121.616 99.6337
140.91 122.099 110.878
138.916 132.73 112.111
140.32 129.104 106.998
140.794 124.649 102.414
137.11 136.588 103.653
128.907 132.06 114.2
131.943 123.195 113.11
130.041 130.969 108.893
124.786 135.195 103.114
132.164 128.617 105.095
133.504 143.794 105.113
135.341 141.762 111.507
129.284 146.007 108.522
125.191 141.174 104.584
128.654 139.555 112.218
142.3 115.153 100.513
138.766 112.028 105.191
141.293 113.141 108.351
136.887 120.018 105.496
135.332 116.897 110.257
134.516 135.059 118.489
136.609 130.433 118.329
134.313 130.012 119.177
137.983 125.963 117.535
137.944 130.837 116.172
134.55 138.797 116.48
132.021 138.262 117.228
131.873 129.969 118.171
133.891 125.279 119.43
135.375 121.452 119.182
137.764 121.575 117.643
137.473 117.096 116.87
139.089 121.84 115.178
133.097 122.05 117.515
136.527 114.697 114.246
139.111 113.198 113.99
128.014 135.637 98.1086
131.263 136.092 99.2386
128.658 139.194 98.2461
133.864 136.038 100.688
134.463 132.133 100.701
130.007 132.892 100.752
125.443 134.579 98.8646
126.451 141.463 99.6112
130.149 142.575 100.118
137.666 122.696 100.774
136.008 127.503 101.127
133.952 128.659 101.462
137.75 126.931 101.35
138.676 118.658 98.342
136.942 120.004 100.885
132.144 129.406 102.257
140.26 127.291 111.702
139.806 130.48 109.678
140.984 125.71 109.132
139.22 133.608 107.631
138.665 135.396 110.193
139.064 129.811 113.809
140.068 124.108 113.256
141.559 121.223 108.414
141.299 124.872 106.384
140.595 127.485 104.618
139.026 132.671 105.442
138.863 130.94 103.619
137.691 137.498 105.641
141.417 122.31 103.811
138.811 128.461 102.179
136.729 134.468 102.399
130.019 127.55 113.86
130.858 126.895 111.266
129.178 130.696 111.596
131.987 127.921 108.905
132.865 123.805 110.786
131.7 124.495 115.481
130.397 129.372 116.05
127.885 134.241 111.589
127.971 133.494 108.804
127.933 133.588 106.012
130.735 130.484 106.586
128.282 132.758 104.088
133.483 126.766 106.929
125.356 135.742 105.892
125.899 133.662 101.778
130.455 130.742 103.415
134.444 143.559 108.386
132.467 145.074 110.476
131.365 146.35 106.537
130.757 143.989 112.399
133.978 142.203 113.717
137.025 139.967 109.708
136.191 141.09 106.596
131.064 145.126 102.868
128.188 146.278 104.742
126.98 144.177 106.422
128.714 143.136 110.267
126.629 141.214 108.307
130.265 140.751 114.062
125.915 143.258 102.652
125.167 138.735 106.926
127.099 138.009 110.434
140.977 111.875 101.652
140.744 109.611 106.613
142.033 113.911 104.602
139.877 111.033 110.735
137.882 110.955 108.705
138.888 114.626 102.404
140.579 115.923 98.4135
141.823 117.686 103.504
141.798 117.018 107.075
136.228 118.066 107.586
137.002 113.917 107.79
137.892 115.707 105.166
136.546 114.157 111.225
134.543 120.484 109.467
135.31 122.41 107.145
137.419 118.398 103.015
137.794 134.279 114.416
136.098 138.855 114.203
137.374 137.56 112.07
135.571 140.616 104.026
132.971 142.136 102.106
134.635 138.348 101.771
140.471 114.889 111.691
140.32 119.456 112.836
141.227 117.571 109.836
141.468 119.218 101.22
140.063 122.871 100.863
141.782 118.181 97.9766
130.064 137.201 115.72
130.061 133.179 116.475
128.388 136.039 113.485
124.28 138.005 103.938
123.432 135.577 100.121
124.489 139.632 100.979
133.422 120.127 111.76
133.053 120.399 114.983
134.871 117.338 113.462
136.59 122.279 103.6
133.763 127.127 103.788
135.186 124.64 105.464
135.624 132.772 118.542
135.532 130.384 119.112
134.461 132.65 119.121
135.379 127.955 119.705
136.443 128.155 119.097
136.471 132.764 117.583
135.63 134.836 117.719
133.366 134.398 118.579
133.275 132.139 118.914
137.318 128.177 118.067
137.322 130.708 117.351
137.934 128.457 116.933
137.087 132.911 116.483
137.211 125.865 118.653
138.638 126.345 116.476
138.55 128.596 115.851
134.706 136.91 117.633
133.238 136.672 118.177
133.372 138.641 117.372
132.041 136.25 117.719
135.537 136.889 116.561
133.569 140.52 116.335
132.099 140.177 116.588
133.052 129.907 118.927
134.178 127.644 119.421
133.035 127.76 118.817
135.088 125.495 119.92
132.095 131.939 118.29
132.08 127.905 117.878
132.953 125.665 118.483
136.776 121.34 118.71
137.58 119.342 117.516
136.362 119.174 118.248
138.428 117.426 116.076
138.402 119.544 116.369
137.102 123.552 118.763
135.907 123.409 119.615
134.961 119.607 118.171
136.028 117.522 117.123
138.592 121.664 116.47
137.918 123.806 117.691
138.654 124.082 116.488
139.158 119.598 115.138
139.17 124.113 115.265
134.522 123.356 119.491
134.146 121.562 118.459
133.246 123.577 118.702
134.02 120.16 117.268
132.509 124.046 117.616
136.918 115.623 115.827
138.261 115.311 115.411
137.67 113.472 114.743
139.144 115.494 114.44
135.79 116.54 115.481
137.23 112.811 113.231
138.468 111.591 113.499
129.759 135.714 98.6004
130 137.54 98.4978
128.278 137.247 97.8746
130.308 139.33 98.8704
131.47 137.887 99.2241
131.307 134.397 99.6025
129.873 134.299 99.2064
126.456 136.798 97.78
126.952 138.515 97.9428
132.572 136.203 99.8511
132.663 134.308 99.999
133.953 134.236 100.458
133.177 132.439 100.475
132.861 137.986 100.129
135.054 133.977 101.183
135.456 131.94 101.199
128.552 134.23 99.1941
126.526 135.247 98.2371
127.481 134.131 99.5106
124.787 136.248 98.2398
130.778 133.019 100.556
129.215 132.758 101.029
127.14 133.749 100.312
127.589 140.344 98.6151
129.471 140.891 98.9303
128.267 142.081 99.4808
130.995 141.089 99.7916
126.022 139.744 98.6733
127.263 143.221 100.297
129.094 143.753 100.484
137.051 125.161 101.338
134.874 128.276 101.243
136.112 125.843 101.764
132.753 130.871 100.761
133.917 130.431 100.82
137.763 124.531 100.894
138.403 122.079 99.8911
136.835 123.68 101.667
135.258 126.403 102.151
134.843 130.163 100.927
136.842 127.265 101.282
136.029 129.724 101.304
138.445 124.277 100.882
136.85 129.663 101.499
138.198 120.535 99.3136
137.552 121.222 100.62
137.556 119.09 99.4733
136.857 122.252 101.738
139.305 120.116 98.3947
138.269 117.354 99.1646
137.257 118.134 100.582
133.195 128.849 101.839
131.857 130.892 100.915
131.085 130.963 101.333
134.013 127.229 102.518
130.329 131.158 101.92
140.065 128.953 110.707
140.547 128.168 109.425
140.638 126.481 110.41
140.754 127.542 108.153
140.181 129.634 108.427
139.433 131.268 110.991
139.66 129.858 111.869
140.669 124.823 111.318
141.049 124.081 110.128
139.593 132.018 108.67
139.244 132.774 110.045
139.165 134.253 109.036
138.9 134.009 111.161
139.662 131.238 107.435
138.694 135.632 107.846
138.467 136.519 109.067
139.755 128.569 112.793
140.208 125.669 112.466
139.861 127.063 113.709
140.546 123.088 112.039
139.007 131.215 112.902
139.184 128.187 114.661
139.522 125.301 114.269
141.477 123.507 108.915
141.057 125.335 107.806
141.695 123.237 107.526
140.762 126.985 106.832
141.298 121.627 109.695
141.586 121.082 107.041
141.62 122.758 106.099
139.918 130.072 105.131
138.847 131.92 104.523
139.983 129.208 103.988
137.96 133.71 103.757
138.319 134.646 104.512
139.675 130.764 106.179
140.468 128.449 105.826
140.608 126.601 103.494
139.862 127.97 103.127
138.435 135.233 105.482
139.091 133.004 106.468
138.625 135.455 106.633
137.419 137.008 104.63
137.962 137.554 106.791
140.974 126.278 105.478
141.152 125.108 104.081
141.587 123.916 104.987
141.209 123.643 103.112
141.439 121.37 104.842
138.89 129.748 102.834
137.802 132.742 103.073
137.723 131.434 102.541
137.039 135.543 102.957
139.888 126.514 102.301
137.508 130.202 102.029
136.458 133.01 102.092
130.211 127.118 112.428
130.046 128.92 111.446
129.485 129.066 112.718
129.713 130.552 110.28
130.454 128.917 110.237
131.25 125.209 112.331
130.929 125.673 113.433
129.372 129.7 113.976
128.888 130.96 112.944
131.397 127.358 110.026
131.83 125.306 111.125
132.449 125.882 109.963
132.228 123.428 111.978
130.926 129.3 108.99
133.015 126.406 108.843
133.454 124.389 109.722
130.953 126.023 114.677
130.02 128.362 115.012
130.939 126.98 115.868
129.554 130.651 115.141
131.825 123.937 114.2
131.821 125.204 116.519
131.232 127.731 116.871
128.482 132.394 111.733
128.829 132.181 110.274
127.908 133.597 110.33
129.101 132.365 108.866
128.405 133.021 112.95
127.23 135.184 110.108
127.042 134.69 108.785
129.671 132.371 106.455
130.012 131.823 105.328
128.199 133.343 104.946
130.231 131.118 104.626
131.134 129.94 105.589
130.372 130.857 107.703
129.162 132.465 107.468
126.494 134.447 104.605
126.407 133.975 103.566
131.986 128.738 106.602
131.455 129.369 107.779
132.633 127.654 107.749
132.757 127.751 105.95
134.01 125.751 107.976
128.014 133.505 107.411
126.698 134.749 105.81
126.901 134.734 107.305
125.035 135.493 104.452
125.937 135.865 107.346
127.096 133.267 103.01
129.327 131.868 103.686
128.152 132.532 102.58
131.125 129.591 104.258
124.965 134.424 102.172
127.209 133.171 101.461
129.601 131.718 102.481
133.336 144.483 109.253
131.97 145.879 108.518
132.899 145.067 107.612
130.418 146.817 107.66
130.944 146.007 109.567
134.031 143.729 110.96
134.813 142.978 109.996
133.863 144 106.757
132.384 145.15 105.904
131.53 144.862 111.507
133.369 143.863 112.197
132.535 143.683 113.424
134.574 142.311 112.417
130.057 145.186 110.405
131.453 142.918 113.979
133.224 142.172 114.82
135.627 141.883 109.07
135.292 142.521 107.444
136.644 140.781 108.189
134.913 142.735 106.016
136.162 141.1 110.503
137.617 138.849 108.837
137.278 139.542 107.27
131.219 145.941 104.652
129.92 146.867 105.589
129.601 146.307 103.533
128.756 146.532 106.702
132.215 144.551 104.117
129.576 145.23 101.819
127.859 145.753 102.831
127.772 143.865 108.435
127.805 142.138 109.184
126.626 142.805 107.546
127.722 140.725 110.171
128.561 141.384 110.998
128.989 144.619 109.353
128.041 145.223 107.427
126.008 142.788 105.658
125.818 141.506 106.568
129.447 142.002 111.956
129.794 143.706 111.186
130.472 142.416 113.074
129.394 140.335 112.926
131.139 141.275 115.047
127.437 145.44 105.595
126.33 143.906 104.567
126.784 145.036 103.575
125.479 142.284 103.693
126.693 144.211 101.77
125.942 140.061 107.451
126.991 139.674 109.352
126.223 138.483 108.621
127.861 139.075 111.121
125.169 140.088 105.74
125.749 137.377 107.92
126.653 136.961 109.607
141.361 110.534 103.961
141.697 111.838 105.268
142.11 112.611 103.03
141.655 113.285 106.538
141.183 111.198 107.36
139.597 110.186 105.368
139.815 111.537 103.463
142.287 113.208 100.703
142.189 114.524 102.422
140.414 109.987 108.719
138.853 109.333 107.409
138.612 109.526 109.764
138.458 110.967 106.815
140.692 111.991 109.5
138.881 110.203 111.67
137.623 111.015 110.553
139.726 113.085 101.869
140.763 113.505 100.025
139.795 114.757 100.341
141.802 114.788 99.0012
139.016 113.154 103.712
138.532 115.804 101.438
139.187 116.08 99.2153
141.746 115.671 104.123
141.951 115.24 106.053
141.985 117.44 105.386
141.63 114.943 107.67
141.953 116.278 102.261
141.784 119.053 104.61
142.044 118.791 106.538
136.772 115.941 107.62
137.463 114.552 106.406
137.111 116.71 106.362
138.36 113.758 105.179
137.844 112.554 106.561
136.333 115.571 108.912
135.818 117.241 108.742
136.72 118.823 106.524
137.347 117.828 105.369
137.554 112.399 108.17
136.554 114.128 109.446
137.079 112.522 109.947
135.981 115.556 110.632
137.105 112.77 111.695
135.317 119.14 108.563
135.872 120.131 107.42
135.031 121.303 108.308
136.214 121.079 106.466
134.723 118.492 109.788
134.409 122.541 109.187
134.782 123.537 108.083
137.767 117.065 104.116
138.408 114.931 103.894
138.086 116.362 102.764
137.28 118.994 104.338
137.524 117.571 101.768
136.91 136.512 114.367
136.803 138.191 113.194
137.569 135.828 113.218
136.496 139.771 111.879
135.78 140.396 112.909
136.255 136.879 115.379
137.115 134.794 115.49
138.325 133.752 113.14
138.187 135.243 112.197
135.11 140.665 113.953
135.48 138.734 115.429
134.374 140.567 115.23
137.903 132.689 115.393
138.473 132.195 114.056
138.452 130.372 114.924
138.039 136.41 111.159
137.241 138.901 110.954
137.82 137.683 109.976
134.267 141.435 103.135
134.043 140.352 101.699
135.332 139.493 102.805
133.444 139.235 100.703
132.6 140.927 100.871
133.284 143.1 103.596
134.495 142.188 104.623
136.413 138.676 103.648
135.855 137.531 102.75
131.7 142.388 100.927
132.062 143.66 102.542
130.672 143.923 101.348
135.856 141.158 105.3
136.758 139.177 104.708
137.024 139.439 105.985
135.728 136.23 102.089
134.28 137.131 101.137
135.528 135.082 101.392
140.448 117.17 112.347
140.785 118.522 111.332
140.834 116.147 110.683
141.227 119.759 110.474
140.675 120.686 111.784
139.785 118.335 113.753
139.931 116.13 113.264
140.978 113.899 110.069
141.356 115.326 109.129
140.212 121.675 112.959
139.686 120.495 114.04
139.687 122.875 114.175
139.673 114.189 112.995
140.392 112.941 111.334
139.636 112.003 112.575
141.558 117.157 108.451
141.615 119.444 109.217
141.835 119.173 107.775
140.74 121.011 100.933
140.828 120.02 99.4965
141.714 118.348 99.7065
140.512 120.022 98.6136
139.512 122.115 100.492
140.297 124.312 101.596
141.024 122.201 101.937
141.886 116.888 100.769
142.203 116.509 98.9112
139.012 124.726 101.172
139.447 125.884 101.689
138.218 127.723 101.584
141.189 121.222 102.627
141.702 118.513 102.284
141.456 120.099 103.685
141.461 116.931 97.2015
140.158 119.112 97.7804
139.2 117.243 98.1793
130.057 135.208 116.19
129.259 134.672 115.05
129.133 136.668 114.682
128.664 134.116 113.939
129.336 132.786 115.299
131.02 133.589 117.428
131.022 135.738 117.102
129.393 138.469 114.094
128.476 137.903 112.996
130.016 131.249 116.285
130.959 131.672 117.406
131.009 129.554 117.198
130.995 137.725 116.471
130.115 139.142 114.831
130.964 139.64 115.964
127.837 137.261 111.948
128.053 135.12 112.569
127.586 136.132 111.006
123.845 137.129 101.803
123.87 137.765 100.561
124.223 138.767 102.367
124.495 138.864 99.3949
123.918 136.866 99.063
123.754 135.414 101.498
124.262 136.46 103.21
124.601 139.581 104.194
124.787 140.494 102.802
124.022 134.732 99.0812
124.404 134.262 100.796
125.786 133.792 100.384
124.268 136.577 104.96
124.62 138.399 105.462
125.026 136.991 106.625
125.278 141.435 101.957
125.152 140.502 100.008
125.931 142.576 100.948
133.188 120.069 113.365
133.952 118.849 114.301
134.041 118.634 112.636
134.837 117.665 115.151
133.906 119.357 115.927
132.458 121.642 113.957
132.657 121.518 112.51
134.339 118.557 111.149
134.934 117.183 111.775
132.977 121.092 116.249
132.397 122.509 115.116
132.338 123.14 116.447
132.993 121.944 111.271
133.914 120.232 110.492
133.781 122.371 110.194
135.769 115.968 112.19
135.653 116.177 113.939
136.548 114.498 112.749
135.366 124.702 103.811
134.505 125.823 104.587
135.826 123.382 104.669
133.76 126.831 105.264
132.769 127.951 104.344
134.813 126.092 103.203
136.18 123.508 102.931
136.826 121.02 104.451
136.184 122.213 105.525
131.833 128.772 103.48
132.877 128.009 102.895
131.145 129.996 102.751
136.737 121.561 102.389
137.083 120.298 103.285
137.089 119.455 101.961
135.548 123.499 106.346
134.298 125.857 106.114
134.838 124.825 107.175
POLYGONS 1280  5120
3 164 162 163
3 163 44 164
3 162 43 163
3 164 42 162
3 166 165 163
3 163 43 166
3 165 44 163
3 166 14 165
3 168 167 162
3 162 42 168
3 167 43 162
3 168 13 167
3 170 169 164
3 164 44 170
3 169 42 164
3 170 12 169
3 173 171 172
3 172 46 173
3 171 43 172
3 173 45 171
3 167 174 172
3 172 43 167
3 174 46 172
3 167 13 174
3 175 166 171
3 171 45 175
3 166 43 171
3 175 14 166
3 177 176 173
3 173 46 177
3 176 45 173
3 177 4 176
3 180 178 179
3 179 48 180
3 178 42 179
3 180 47 178
3 169 181 179
3 179 42 169
3 181 48 179
3 169 12 181
3 182 168 178
3 178 47 182
3 168 42 178
3 182 13 168
3 184 183 180
3 180 48 184
3 183 47 180
3 184 8 183
3 187 185 186
3 186 50 187
3 185 44 186
3 187 49 185
3 165 188 186
3 186 44 165
3 188 50 186
3 165 14 188
3 189 170 185
3 185 49 189
3 170 44 185
3 189 12 170
3 191 190 187
3 187 50 191
3 190 49 187
3 191 7 190
3 194 192 193
3 193 53 194
3 192 52 193
3 194 51 192
3 196 195 193
3 193 52 196
3 195 53 193
3 196 16 195
3 198 197 192
3 192 51 198
3 197 52 192
3 198 14 197
3 200 199 194
3 194 53 200
3 199 51 194
3 200 15 199
3 203 201 202
3 202 45 203
3 201 52 202
3 203 54 201
3 197 175 202
3 202 52 197
3 175 45 202
3 197 14 175
3 204 196 201
3 201 54 204
3 196 52 201
3 204 16 196
3 176 205 203
3 203 45 176
3 205 54 203
3 176 4 205
3 208 206 207
3 207 55 208
3 206 51 207
3 208 50 206
3 199 209 207
3 207 51 199
3 209 55 207
3 199 15 209
3 188 198 206
3 206 50 188
3 198 51 206
3 188 14 198
3 210 191 208
3 208 55 210
3 191 50 208
3 210 7 191
3 213 211 212
3 212 57 213
3 211 53 212
3 213 56 211
3 195 214 212
3 212 53 195
3 214 57 212
3 195 16 214
3 215 200 211
3 211 56 215
3 200 53 211
3 215 15 200
3 217 216 213
3 213 57 217
3 216 56 213
3 217 9 216
3 220 218 219
3 219 60 220
3 218 59 219
3 220 58 218
3 222 221 219
3 219 59 222
3 221 60 219
3 222 19 221
3 224 223 218
3 218 58 224
3 223 59 218
3 224 18 223
3 226 225 220
3 220 60 226
3 225 58 220
3 226 17 225
3 229 227 228
3 228 62 229
3 227 59 228
3 229 61 227
3 223 230 228
3 228 59 223
3 230 62 228
3 223 18 230
3 231 222 227
3 227 61 231
3 222 59 227
3 231 19 222
3 233 232 229
3 229 62 233
3 232 61 229
3 233 5 232
3 236 234 235
3 235 64 236
3 234 58 235
3 236 63 234
3 225 237 235
3 235 58 225
3 237 64 235
3 225 17 237
3 238 224 234
3 234 63 238
3 224 58 234
3 238 18 224
3 240 239 236
3 236 64 240
3 239 63 236
3 240 6 239
3 243 241 242
3 242 66 243
3 241 60 242
3 243 65 241
3 221 244 242
3 242 60 221
3 244 66 242
3 221 19 244
3 245 226 241
3 241 65 245
3 226 60 241
3 245 17 226
3 247 246 243
3 243 66 247
3 246 65 243
3 247 11 246
3 250 248 249
3 249 69 250
3 248 68 249
3 250 67 248
3 252 251 249
3 249 68 252
3 251 69 249
3 252 18 251
3 254 253 248
3 248 67 254
3 253 68 248
3 254 21 253
3 256 255 250
3 250 69 256
3 255 67 250
3 256 20 255
3 259 257 258
3 258 70 259
3 257 68 258
3 259 62 257
3 253 260 258
3 258 68 253
3 260 70 258
3 253 21 260
3 230 252 257
3 257 62 230
3 252 68 257
3 230 18 252
3 261 233 259
3 259 70 261
3 233 62 259
3 261 5 233
3 264 262 263
3 263 72 264
3 262 67 263
3 264 71 262
3 255 265 263
3 263 67 255
3 265 72 263
3 255 20 265
3 266 254 262
3 262 71 266
3 254 67 262
3 266 21 254
3 268 267 264
3 264 72 268
3 267 71 264
3 268 10 267
3 271 269 270
3 270 63 271
3 269 69 270
3 271 73 269
3 251 238 270
3 270 69 251
3 238 63 270
3 251 18 238
3 272 256 269
3 269 73 272
3 256 69 269
3 272 20 256
3 239 273 271
3 271 63 239
3 273 73 271
3 239 6 273
3 276 274 275
3 275 76 276
3 274 75 275
3 276 74 274
3 278 277 275
3 275 75 278
3 277 76 275
3 278 24 277
3 280 279 274
3 274 74 280
3 279 75 274
3 280 23 279
3 282 281 276
3 276 76 282
3 281 74 276
3 282 22 281
3 285 283 284
3 284 78 285
3 283 75 284
3 285 77 283
3 279 286 284
3 284 75 279
3 286 78 284
3 279 23 286
3 287 278 283
3 283 77 287
3 278 75 283
3 287 24 278
3 289 288 285
3 285 78 289
3 288 77 285
3 289 0 288
3 292 290 291
3 291 80 292
3 290 74 291
3 292 79 290
3 281 293 291
3 291 74 281
3 293 80 291
3 281 22 293
3 294 280 290
3 290 79 294
3 280 74 290
3 294 23 280
3 296 295 292
3 292 80 296
3 295 79 292
3 296 4 295
3 299 297 298
3 298 82 299
3 297 76 298
3 299 81 297
3 277 300 298
3 298 76 277
3 300 82 298
3 277 24 300
3 301 282 297
3 297 81 301
3 282 76 297
3 301 22 282
3 303 302 299
3 299 82 303
3 302 81 299
3 303 3 302
3 306 304 305
3 305 85 306
3 304 84 305
3 306 83 304
3 308 307 305
3 305 84 308
3 307 85 305
3 308 26 307
3 310 309 304
3 304 83 310
3 309 84 304
3 310 24 309
3 312 311 306
3 306 85 312
3 311 83 306
3 312 25 311
3 315 313 314
3 314 77 315
3 313 84 314
3 315 86 313
3 309 287 314
3 314 84 309
3 287 77 314
3 309 24 287
3 316 308 313
3 313 86 316
3 308 84 313
3 316 26 308
3 288 317 315
3 315 77 288
3 317 86 315
3 288 0 317
3 320 318 319
3 319 87 320
3 318 83 319
3 320 82 318
3 311 321 319
3 319 83 311
3 321 87 319
3 311 25 321
3 300 310 318
3 318 82 300
3 310 83 318
3 300 24 310
3 322 303 320
3 320 87 322
3 303 82 320
3 322 3 303
3 325 323 324
3 324 89 325
3 323 85 324
3 325 88 323
3 307 326 324
3 324 85 307
3 326 89 324
3 307 26 326
3 327 312 323
3 323 88 327
3 312 85 323
3 327 25 312
3 329 328 325
3 325 89 329
3 328 88 325
3 329 5 328
3 332 330 331
3 331 92 332
3 330 91 331
3 332 90 330
3 334 333 331
3 331 91 334
3 333 92 331
3 334 29 333
3 336 335 330
3 330 90 336
3 335 91 330
3 336 28 335
3 338 337 332
3 332 92 338
3 337 90 332
3 338 27 337
3 341 339 340
3 340 94 341
3 339 91 340
3 341 93 339
3 335 342 340
3 340 91 335
3 342 94 340
3 335 28 342
3 343 334 339
3 339 93 343
3 334 91 339
3 343 29 334
3 345 344 341
3 341 94 345
3 344 93 341
3 345 2 344
3 348 346 347
3 347 96 348
3 346 90 347
3 348 95 346
3 337 349 347
3 347 90 337
3 349 96 347
3 337 27 349
3 350 336 346
3 346 95 350
3 336 90 346
3 350 28 336
3 352 351 348
3 348 96 352
3 351 95 348
3 352 7 351
3 355 353 354
3 354 98 355
3 353 92 354
3 355 97 353
3 333 356 354
3 354 92 333
3 356 98 354
3 333 29 356
3 357 338 353
3 353 97 357
3 338 92 353
3 357 27 338
3 359 358 355
3 355 98 359
3 358 97 355
3 359 1 358
3 362 360 361
3 361 101 362
3 360 100 361
3 362 99 360
3 364 363 361
3 361 100 364
3 363 101 361
3 364 31 363
3 366 365 360
3 360 99 366
3 365 100 360
3 366 29 365
3 368 367 362
3 362 101 368
3 367 99 362
3 368 30 367
3 371 369 370
3 370 93 371
3 369 100 370
3 371 102 369
3 365 343 370
3 370 100 365
3 343 93 370
3 365 29 343
3 372 364 369
3 369 102 372
3 364 100 369
3 372 31 364
3 344 373 371
3 371 93 344
3 373 102 371
3 344 2 373
3 376 374 375
3 375 103 376
3 374 99 375
3 376 98 374
3 367 377 375
3 375 99 367
3 377 103 375
3 367 30 377
3 356 366 374
3 374 98 356
3 366 99 374
3 356 29 366
3 378 359 376
3 376 103 378
3 359 98 376
3 378 1 359
3 381 379 380
3 380 105 381
3 379 101 380
3 381 104 379
3 363 382 380
3 380 101 363
3 382 105 380
3 363 31 382
3 383 368 379
3 379 104 383
3 368 101 379
3 383 30 368
3 385 384 381
3 381 105 385
3 384 104 381
3 385 6 384
3 388 386 387
3 387 108 388
3 386 107 387
3 388 106 386
3 390 389 387
3 387 107 390
3 389 108 387
3 390 34 389
3 392 391 386
3 386 106 392
3 391 107 386
3 392 33 391
3 394 393 388
3 388 108 394
3 393 106 388
3 394 32 393
3 397 395 396
3 396 110 397
3 395 107 396
3 397 109 395
3 391 398 396
3 396 107 391
3 398 110 396
3 391 33 398
3 399 390 395
3 395 109 399
3 390 107 395
3 399 34 390
3 401 400 397
3 397 110 401
3 400 109 397
3 401 8 400
3 404 402 403
3 403 112 404
3 402 106 403
3 404 111 402
3 393 405 403
3 403 106 393
3 405 112 403
3 393 32 405
3 406 392 402
3 402 111 406
3 392 106 402
3 406 33 392
3 408 407 404
3 404 112 408
3 407 111 404
3 408 0 407
3 411 409 410
3 410 114 411
3 409 108 410
3 411 113 409
3 389 412 410
3 410 108 389
3 412 114 410
3 389 34 412
3 413 394 409
3 409 113 413
3 394 108 409
3 413 32 394
3 415 414 411
3 411 114 415
3 414 113 411
3 415 11 414
3 418 416 417
3 417 117 418
3 416 116 417
3 418 115 416
3 420 419 417
3 417 116 420
3 419 117 417
3 420 36 419
3 422 421 416
3 416 115 422
3 421 116 416
3 422 34 421
3 424 423 418
3 418 117 424
3 423 115 418
3 424 35 423
3 427 425 426
3 426 109 427
3 425 116 426
3 427 118 425
3 421 399 426
3 426 116 421
3 399 109 426
3 421 34 399
3 428 420 425
3 425 118 428
3 420 116 425
3 428 36 420
3 400 429 427
3 427 109 400
3 429 118 427
3 400 8 429
3 432 430 431
3 431 119 432
3 430 115 431
3 432 114 430
3 423 433 431
3 431 115 423
3 433 119 431
3 423 35 433
3 412 422 430
3 430 114 412
3 422 115 430
3 412 34 422
3 434 415 432
3 432 119 434
3 415 114 432
3 434 11 415
3 437 435 436
3 436 121 437
3 435 117 436
3 437 120 435
3 419 438 436
3 436 117 419
3 438 121 436
3 419 36 438
3 439 424 435
3 435 120 439
3 424 117 435
3 439 35 424
3 441 440 437
3 437 121 441
3 440 120 437
3 441 1 440
3 444 442 443
3 443 124 444
3 442 123 443
3 444 122 442
3 446 445 443
3 443 123 446
3 445 124 443
3 446 39 445
3 448 447 442
3 442 122 448
3 447 123 442
3 448 38 447
3 450 449 444
3 444 124 450
3 449 122 444
3 450 37 449
3 453 451 452
3 452 126 453
3 451 123 452
3 453 125 451
3 447 454 452
3 452 123 447
3 454 126 452
3 447 38 454
3 455 446 451
3 451 125 455
3 446 123 451
3 455 39 446
3 457 456 453
3 453 126 457
3 456 125 453
3 457 9 456
3 460 458 459
3 459 128 460
3 458 122 459
3 460 127 458
3 449 461 459
3 459 122 449
3 461 128 459
3 449 37 461
3 462 448 458
3 458 127 462
3 448 122 458
3 462 38 448
3 464 463 460
3 460 128 464
3 463 127 460
3 464 10 463
3 467 465 466
3 466 130 467
3 465 124 466
3 467 129 465
3 445 468 466
3 466 124 445
3 468 130 466
3 445 39 468
3 469 450 465
3 465 129 469
3 450 124 465
3 469 37 450
3 471 470 467
3 467 130 471
3 470 129 467
3 471 3 470
3 474 472 473
3 473 133 474
3 472 132 473
3 474 131 472
3 476 475 473
3 473 132 476
3 475 133 473
3 476 38 475
3 478 477 472
3 472 131 478
3 477 132 472
3 478 41 477
3 480 479 474
3 474 133 480
3 479 131 474
3 480 40 479
3 483 481 482
3 482 134 483
3 481 132 482
3 483 126 481
3 477 484 482
3 482 132 477
3 484 134 482
3 477 41 484
3 454 476 481
3 481 126 454
3 476 132 481
3 454 38 476
3 485 457 483
3 483 134 485
3 457 126 483
3 485 9 457
3 488 486 487
3 487 136 488
3 486 131 487
3 488 135 486
3 479 489 487
3 487 131 479
3 489 136 487
3 479 40 489
3 490 478 486
3 486 135 490
3 478 131 486
3 490 41 478
3 492 491 488
3 488 136 492
3 491 135 488
3 492 2 491
3 495 493 494
3 494 127 495
3 493 133 494
3 495 137 493
3 475 462 494
3 494 133 475
3 462 127 494
3 475 38 462
3 496 480 493
3 493 137 496
3 480 133 493
3 496 40 480
3 463 497 495
3 495 127 463
3 497 137 495
3 463 10 497
3 500 498 499
3 499 140 500
3 498 139 499
3 500 138 498
3 502 501 499
3 499 139 502
3 501 140 499
3 502 33 501
3 504 503 498
3 498 138 504
3 503 139 498
3 504 13 503
3 506 505 500
3 500 140 506
3 505 138 500
3 506 23 505
3 509 507 508
3 508 47 509
3 507 139 508
3 509 110 507
3 503 182 508
3 508 139 503
3 182 47 508
3 503 13 182
3 398 502 507
3 507 110 398
3 502 139 507
3 398 33 502
3 183 401 509
3 509 47 183
3 401 110 509
3 183 8 401
3 512 510 511
3 511 79 512
3 510 138 511
3 512 46 510
3 505 294 511
3 511 138 505
3 294 79 511
3 505 23 294
3 174 504 510
3 510 46 174
3 504 138 510
3 174 13 504
3 295 177 512
3 512 79 295
3 177 46 512
3 295 4 177
3 515 513 514
3 514 111 515
3 513 140 514
3 515 78 513
3 501 406 514
3 514 140 501
3 406 111 514
3 501 33 406
3 286 506 513
3 513 78 286
3 506 140 513
3 286 23 506
3 407 289 515
3 515 111 407
3 289 78 515
3 407 0 289
3 518 516 517
3 517 143 518
3 516 142 517
3 518 141 516
3 520 519 517
3 517 142 520
3 519 143 517
3 520 19 519
3 522 521 516
3 516 141 522
3 521 142 516
3 522 32 521
3 524 523 518
3 518 143 524
3 523 141 518
3 524 26 523
3 527 525 526
3 526 113 527
3 525 142 526
3 527 66 525
3 521 413 526
3 526 142 521
3 413 113 526
3 521 32 413
3 244 520 525
3 525 66 244
3 520 142 525
3 244 19 520
3 414 247 527
3 527 113 414
3 247 66 527
3 414 11 247
3 530 528 529
3 529 86 530
3 528 141 529
3 530 112 528
3 523 316 529
3 529 141 523
3 316 86 529
3 523 26 316
3 405 522 528
3 528 112 405
3 522 141 528
3 405 32 522
3 317 408 530
3 530 86 317
3 408 112 530
3 317 0 408
3 533 531 532
3 532 61 533
3 531 143 532
3 533 89 531
3 519 231 532
3 532 143 519
3 231 61 532
3 519 19 231
3 326 524 531
3 531 89 326
3 524 143 531
3 326 26 524
3 232 329 533
3 533 61 232
3 329 89 533
3 232 5 329
3 536 534 535
3 535 146 536
3 534 145 535
3 536 144 534
3 538 537 535
3 535 145 538
3 537 146 535
3 538 22 537
3 540 539 534
3 534 144 540
3 539 145 534
3 540 16 539
3 542 541 536
3 536 146 542
3 541 144 536
3 542 39 541
3 545 543 544
3 544 54 545
3 543 145 544
3 545 80 543
3 539 204 544
3 544 145 539
3 204 54 544
3 539 16 204
3 293 538 543
3 543 80 293
3 538 145 543
3 293 22 538
3 205 296 545
3 545 54 205
3 296 80 545
3 205 4 296
3 548 546 547
3 547 125 548
3 546 144 547
3 548 57 546
3 541 455 547
3 547 144 541
3 455 125 547
3 541 39 455
3 214 540 546
3 546 57 214
3 540 144 546
3 214 16 540
3 456 217 548
3 548 125 456
3 217 57 548
3 456 9 217
3 551 549 550
3 550 81 551
3 549 146 550
3 551 130 549
3 537 301 550
3 550 146 537
3 301 81 550
3 537 22 301
3 468 542 549
3 549 130 468
3 542 146 549
3 468 39 542
3 302 471 551
3 551 81 302
3 471 130 551
3 302 3 471
3 554 552 553
3 553 149 554
3 552 148 553
3 554 147 552
3 556 555 553
3 553 148 556
3 555 149 553
3 556 21 555
3 558 557 552
3 552 147 558
3 557 148 552
3 558 25 557
3 560 559 554
3 554 149 560
3 559 147 554
3 560 37 559
3 563 561 562
3 562 88 563
3 561 148 562
3 563 70 561
3 557 327 562
3 562 148 557
3 327 88 562
3 557 25 327
3 260 556 561
3 561 70 260
3 556 148 561
3 260 21 556
3 328 261 563
3 563 88 328
3 261 70 563
3 328 5 261
3 566 564 565
3 565 129 566
3 564 147 565
3 566 87 564
3 559 469 565
3 565 147 559
3 469 129 565
3 559 37 469
3 321 558 564
3 564 87 321
3 558 147 564
3 321 25 558
3 470 322 566
3 566 129 470
3 322 87 566
3 470 3 322
3 569 567 568
3 568 71 569
3 567 149 568
3 569 128 567
3 555 266 568
3 568 149 555
3 266 71 568
3 555 21 266
3 461 560 567
3 567 128 461
3 560 149 567
3 461 37 560
3 267 464 569
3 569 71 267
3 464 128 569
3 267 10 464
3 572 570 571
3 571 152 572
3 570 151 571
3 572 150 570
3 574 573 571
3 571 151 574
3 573 152 571
3 574 27 573
3 576 575 570
3 570 150 576
3 575 151 570
3 576 12 575
3 578 577 572
3 572 152 578
3 577 150 572
3 578 36 577
3 581 579 580
3 580 49 581
3 579 151 580
3 581 96 579
3 575 189 580
3 580 151 575
3 189 49 580
3 575 12 189
3 349 574 579
3 579 96 349
3 574 151 579
3 349 27 574
3 190 352 581
3 581 49 190
3 352 96 581
3 190 7 352
3 584 582 583
3 583 118 584
3 582 150 583
3 584 48 582
3 577 428 583
3 583 150 577
3 428 118 583
3 577 36 428
3 181 576 582
3 582 48 181
3 576 150 582
3 181 12 576
3 429 184 584
3 584 118 429
3 184 48 584
3 429 8 184
3 587 585 586
3 586 97 587
3 585 152 586
3 587 121 585
3 573 357 586
3 586 152 573
3 357 97 586
3 573 27 357
3 438 578 585
3 585 121 438
3 578 152 585
3 438 36 578
3 358 441 587
3 587 97 358
3 441 121 587
3 358 1 441
3 590 588 589
3 589 155 590
3 588 154 589
3 590 153 588
3 592 591 589
3 589 154 592
3 591 155 589
3 592 17 591
3 594 593 588
3 588 153 594
3 593 154 588
3 594 30 593
3 596 595 590
3 590 155 596
3 595 153 590
3 596 35 595
3 599 597 598
3 598 104 599
3 597 154 598
3 599 64 597
3 593 383 598
3 598 154 593
3 383 104 598
3 593 30 383
3 237 592 597
3 597 64 237
3 592 154 597
3 237 17 592
3 384 240 599
3 599 104 384
3 240 64 599
3 384 6 240
3 602 600 601
3 601 120 602
3 600 153 601
3 602 103 600
3 595 439 601
3 601 153 595
3 439 120 601
3 595 35 439
3 377 594 600
3 600 103 377
3 594 153 600
3 377 30 594
3 440 378 602
3 602 120 440
3 378 103 602
3 440 1 378
3 605 603 604
3 604 65 605
3 603 155 604
3 605 119 603
3 591 245 604
3 604 155 591
3 245 65 604
3 591 17 245
3 433 596 603
3 603 119 433
3 596 155 603
3 433 35 596
3 246 434 605
3 605 65 246
3 434 119 605
3 246 11 434
3 608 606 607
3 607 158 608
3 606 157 607
3 608 156 606
3 610 609 607
3 607 157 610
3 609 158 607
3 610 15 609
3 612 611 606
3 606 156 612
3 611 157 606
3 612 28 611
3 614 613 608
3 608 158 614
3 613 156 608
3 614 41 613
3 617 615 616
3 616 95 617
3 615 157 616
3 617 55 615
3 611 350 616
3 616 157 611
3 350 95 616
3 611 28 350
3 209 610 615
3 615 55 209
3 610 157 615
3 209 15 610
3 351 210 617
3 617 95 351
3 210 55 617
3 351 7 210
3 620 618 619
3 619 135 620
3 618 156 619
3 620 94 618
3 613 490 619
3 619 156 613
3 490 135 619
3 613 41 490
3 342 612 618
3 618 94 342
3 612 156 618
3 342 28 612
3 491 345 620
3 620 135 491
3 345 94 620
3 491 2 345
3 623 621 622
3 622 56 623
3 621 158 622
3 623 134 621
3 609 215 622
3 622 158 609
3 215 56 622
3 609 15 215
3 484 614 621
3 621 134 484
3 614 158 621
3 484 41 614
3 216 485 623
3 623 56 216
3 485 134 623
3 216 9 485
3 626 624 625
3 625 161 626
3 624 160 625
3 626 159 624
3 628 627 625
3 625 160 628
3 627 161 625
3 628 31 627
3 630 629 624
3 624 159 630
3 629 160 624
3 630 20 629
3 632 631 626
3 626 161 632
3 631 159 626
3 632 40 631
3 635 633 634
3 634 73 635
3 633 160 634
3 635 105 633
3 629 272 634
3 634 160 629
3 272 73 634
3 629 20 272
3 382 628 633
3 633 105 382
3 628 160 633
3 382 31 628
3 273 385 635
3 635 73 273
3 385 105 635
3 273 6 385
3 638 636 637
3 637 137 638
3 636 159 637
3 638 72 636
3 631 496 637
3 637 159 631
3 496 137 637
3 631 40 496
3 265 630 636
3 636 72 265
3 630 159 636
3 265 20 630
3 497 268 638
3 638 137 497
3 268 72 638
3 497 10 268
3 641 639 640
3 640 102 641
3 639 161 640
3 641 136 639
3 627 372 640
3 640 161 627
3 372 102 640
3 627 31 372
3 489 632 639
3 639 136 489
3 632 161 639
3 489 40 632
3 373 492 641
3 641 102 373
3 492 136 641
3 373 2 492
