# vtk DataFile Version 3.0
this file was written using fslvtkio
ASCII
DATASET POLYDATA
POINTS 970 float
124.679 147.174 103.594
123.369 146.7 104.145
124.128 146.213 104.003
125.014 145.956 103.844
126.004 147.035 103.578
126.278 145.681 104.093
127.136 146.609 104.248
127.46 145.607 104.938
124.175 148.104 104.115
123.391 148.148 104.816
125.429 148.363 104.21
126.786 147.99 104.342
127.774 146.969 105.266
124.523 149.234 105.19
126.091 149.323 105.054
127.205 148.257 105.469
121.153 137.137 103.026
119.636 136.851 103.448
120.382 135.512 102.867
121.855 135.755 102.953
122.329 137.608 103.236
122.675 136.48 103.812
123.035 137.928 104.117
122.638 136.719 104.993
120.749 138.228 103.959
119.421 137.957 104.462
121.994 138.891 103.686
123.05 139.216 103.752
123.357 137.892 105.158
123.767 139.297 104.719
123.765 138.685 105.89
120.578 139.232 104.679
119.457 138.744 105.016
121.866 139.98 104.378
123 140.565 104.158
123.951 140.668 104.579
124.384 140.078 105.707
119.725 139.622 105.315
121.464 140.659 104.954
120.646 140.705 105.402
122.882 141.789 104.616
124.125 142.171 104.462
124.773 141.448 105.248
121.564 141.859 105.453
122.868 142.977 105.087
123.935 143.691 104.496
123.298 144.285 105.3
125.215 142.581 105.148
125.101 143.67 104.562
126.025 143.295 105.579
126.484 144.025 105.139
126.685 143.842 106.163
123.929 145.259 104.783
122.83 145.048 105.649
124.964 144.819 104.586
126.393 144.697 104.626
127.517 144.719 105.843
122.731 145.952 105.046
121.693 146.33 105.806
121.825 145.243 106.328
128.329 146.026 106.159
122.357 147.325 105.069
121.747 147.59 106.246
128.168 147.741 106.423
123.031 148.615 105.98
123.875 149.581 106.545
125.44 149.998 106.12
126.977 149.4 106.2
118.616 133.793 103.527
117.517 134.31 104.107
117.744 132.794 104.455
119.272 132.785 104.049
119.87 134.217 103.126
120.509 133.49 104.087
118.705 135.503 103.439
117.348 135.703 104.477
121.299 134.542 103.571
122.128 135.433 104.467
122.299 136.102 105.937
118.323 136.991 104.193
117.006 137.057 105.098
123.099 137.388 106.169
123.766 138.454 107.115
118.25 138.332 105.169
116.877 138.416 106.036
124.274 139.752 106.952
124.947 141.056 106.529
125.009 140.632 107.631
118.424 139.609 105.917
119.951 140.813 105.805
118.779 140.671 106.501
125.434 142.079 106.342
125.711 141.796 107.744
120.135 141.864 106.392
121.12 142.961 106.393
120.025 142.78 106.967
122.176 143.283 105.757
126.278 142.898 106.848
127.179 143.92 107.243
121.14 144.218 107.082
120.06 143.39 107.465
122.097 144.14 106.281
128.02 144.953 107.267
120.157 144.141 107.649
121.028 145.788 106.973
128.441 146.254 107.436
121.25 147.471 107.345
128.33 147.714 107.581
122.52 148.562 107.369
123.745 149.439 107.801
123.441 148.924 108.8
124.945 150.093 107.531
126.525 150.102 107.277
127.653 149.027 107.25
124.647 149.78 108.956
125.922 150.206 108.688
127.134 149.992 108.435
116.842 134.063 105.328
117.458 132.624 105.721
118.723 132.231 105.374
120.1 132.898 105.388
120.992 133.91 105.18
120.85 133.967 106.84
116.614 135.583 105.786
121.555 134.835 105.518
122.059 135.851 107.149
116.334 136.924 106.347
122.907 137.269 107.302
123.692 138.16 108.486
115.988 137.857 107.045
124.41 139.446 108.128
125.169 140.618 108.716
117.24 139.833 106.644
116.141 139.221 107.461
125.905 141.716 109.033
117.151 140.77 107.579
116.312 140.598 108.601
118.497 141.441 107.079
126.513 142.945 108.22
127.24 143.831 108.747
117.443 141.707 108.157
118.694 142.568 107.665
118.099 142.571 108.495
127.818 144.851 108.719
118.957 143.514 108.52
120.116 145.04 107.968
119.686 145.212 108.792
128.259 145.979 108.765
128.564 147.092 108.579
128.556 146.538 109.768
120.5 146.484 107.917
120.368 146.6 108.989
128.247 148.291 108.55
128.557 147.702 109.813
121.585 147.712 108.555
122.576 148.238 109.148
123.479 148.56 109.963
127.77 149.217 108.744
128.279 148.762 110.03
124.44 149.125 110.154
125.481 149.829 110.232
126.753 150.11 110.053
127.636 149.682 110.02
118.179 131.95 106.737
117.365 133.009 106.93
117.859 131.681 107.841
119.108 131.415 107.722
119.388 132.216 106.562
119.835 132.197 107.812
120.229 133.031 106.852
120.458 132.957 108.29
117.009 134.337 106.992
120.977 133.849 108.614
116.624 135.577 107.273
121.474 134.878 107.398
122.186 135.811 108.585
116.211 136.663 107.861
122.854 137.027 108.513
123.663 137.965 109.713
115.848 137.896 108.396
124.582 139.25 109.329
125.387 140.427 109.974
115.935 139.195 108.942
126.144 141.486 110.41
116.186 140.173 109.784
126.638 142.724 109.644
127.351 143.68 110.345
117.233 142.066 109.012
116.831 141.512 110.045
127.791 144.712 110.087
128.092 145.606 109.653
128.391 145.507 110.883
117.893 143.038 109.541
118.864 144.354 109.427
118.541 144.202 110.449
128.808 146.731 110.97
119.585 145.609 109.968
119.391 145.327 110.988
128.634 147.867 111.136
120.72 146.766 110.006
121.725 147.514 110.143
122.657 148.038 110.455
122.192 147.615 111.331
128.392 149.02 111.369
123.637 148.338 111.224
124.565 148.753 111.682
125.36 149.319 111.541
126.454 149.858 111.478
127.568 149.779 111.394
117.398 132.889 108.413
117.87 131.254 108.984
118.89 130.704 108.677
119.961 131.733 108.925
120.618 132.465 109.879
117.171 134.312 108.615
121.288 133.522 110.239
116.54 135.322 108.895
121.546 134.789 109.184
122.307 135.575 110.011
116.152 136.506 109.374
123.011 136.786 109.863
123.932 137.662 111.092
115.953 137.755 109.908
124.532 138.999 110.589
125.319 139.959 111.242
116.068 138.899 110.575
126.188 140.93 111.683
116.493 140.113 111.114
127 142.442 111.035
127.671 143.116 112.073
117.154 141.381 111.416
127.97 144.339 111.269
128.636 145.386 112.141
117.68 142.805 110.703
118.4 143.926 111.6
128.783 146.647 112.146
119.298 144.697 112.312
128.625 147.75 112.512
120.191 145.906 111.472
121.147 146.643 111.35
122.086 146.825 112.384
128.277 148.926 112.609
123.169 147.765 112.29
124.253 148.207 112.769
125.259 148.821 113.068
126.224 149.444 112.884
127.386 149.565 112.737
118.355 130.096 109.711
117.658 131.358 109.767
117.908 129.772 110.682
119.138 129.155 110.492
119.503 130.298 109.594
120.126 129.827 110.577
120.179 131.157 109.98
120.654 130.835 110.984
117.47 132.77 109.812
121.116 132.122 111.375
117.108 134.059 110.077
121.525 133.238 111.458
116.469 135.036 110.462
121.825 134.446 110.99
122.645 135.407 111.347
116.182 136.28 110.941
123.255 136.515 111.155
124.243 137.024 112.389
116.097 137.471 111.488
124.716 138.443 111.941
125.604 139.41 112.457
116.258 138.7 112.011
126.419 140.581 112.814
116.755 139.926 112.445
127.021 141.891 112.282
127.613 142.289 113.399
117.303 141.092 112.785
128.125 144.152 112.476
128.056 143.492 113.701
117.818 142.545 112.032
118.459 143.436 112.874
128.555 144.833 113.226
128.705 146.175 113.427
119.32 144.138 113.604
128.571 147.586 113.692
120.264 145.297 112.931
121.079 146.067 112.824
122.012 146.522 113.708
128.129 148.766 113.82
123.036 147.277 113.49
124.097 147.822 113.923
125.156 148.351 114.359
126.063 148.973 114.416
127.119 149.279 114.018
117.814 131.131 111.063
118.049 129.306 111.786
118.816 128.425 111.293
120.225 128.974 111.652
121.076 130.431 112.181
117.491 132.639 111.076
121.396 131.442 112.587
121.783 132.555 112.557
122.077 131.926 113.632
117.202 133.711 111.64
121.944 133.528 112.036
122.497 133.439 112.891
116.574 134.793 111.965
122.691 134.551 112.455
123.421 135.843 112.227
123.774 135.414 113.3
116.241 135.982 112.464
124.639 136.496 113.642
116.323 137.256 112.966
125.19 137.942 113.157
126.219 139.336 113.52
116.539 138.454 113.488
126.77 140.315 113.804
127.013 141.315 113.357
127.459 140.952 114.563
116.908 139.61 113.871
128.096 142.22 114.752
117.461 140.623 114.32
128.386 143.632 115.158
117.953 141.986 113.435
118.651 142.835 114.247
128.6 144.826 114.314
128.639 146.266 114.685
119.662 143.685 114.84
128.366 147.416 114.897
120.392 144.881 114.171
121.382 145.743 114.403
122.399 146.332 115.131
127.827 148.525 114.762
123.008 146.813 114.602
123.971 147.295 115.093
124.988 147.83 115.533
126.129 148.297 115.747
127.076 148.663 115.403
119.003 127.672 112.201
118.361 127.605 113.313
119.256 126.942 113.36
120.436 127.07 113.661
120.226 127.677 112.387
121.072 127.996 113.273
117.972 130.417 112.312
118.069 128.815 112.911
121.194 129.217 112.929
121.624 130.581 113.263
121.992 130.219 114.348
117.633 131.977 112.328
117.959 130.508 113.571
122.717 131.899 114.529
117.16 133.337 112.976
123.145 133.014 114.262
116.698 134.547 113.449
123.613 134.142 113.883
124.359 135.061 114.5
116.501 135.811 113.978
125.088 136.084 114.924
125.167 137.043 114.064
125.621 137.502 114.614
116.637 137.061 114.502
126.141 138.56 114.347
126.86 139.662 114.596
127.143 139.328 115.66
116.933 138.173 115.008
127.893 140.67 115.721
117.212 139.214 115.371
128.447 141.918 116.065
117.612 140.23 115.69
128.565 143.191 116.467
118.154 141.424 114.944
118.987 142.52 115.482
128.582 145.21 115.502
128.46 144.639 116.537
119.946 143.178 116.117
120.451 144.367 115.328
120.789 144.028 116.259
128.334 146.44 116.115
127.913 146.419 117.049
121.501 145.16 115.522
123.564 146.603 116.065
122.654 145.776 116.246
124.727 147.275 116.619
124.072 146.333 117.312
126.015 147.748 116.88
125.397 147.022 117.847
127.322 147.711 116.636
126.951 147.208 117.753
127.844 147.816 115.666
119.548 126.254 114.187
118.666 126.736 114.587
119.423 125.804 115.137
120.426 125.676 115.071
120.415 126.322 114.286
121.095 126.477 114.679
118.336 128.117 114.447
121.696 127.359 114.908
121.576 128.794 114.153
122.206 128.61 115.328
118.259 129.395 114.379
122.591 130.324 115.349
117.617 131.921 113.766
117.914 130.616 114.992
123.289 130.938 116.031
123.42 132.335 115.337
123.999 131.696 116.351
117.192 133.182 114.429
123.69 133.161 114.759
124.133 133.277 115.283
116.827 134.401 114.971
124.828 134.151 115.618
124.959 135.111 115.351
125.565 135.124 116.093
116.688 135.583 115.546
125.957 136.636 115.824
126.446 138.049 115.507
126.988 137.622 116.529
116.889 136.808 116.071
127.696 138.995 116.733
117.387 137.849 116.643
128.204 140.264 116.849
117.624 139.127 116.709
128.456 141.026 117.377
128.722 142.164 117.411
128.682 140.774 118.54
117.892 139.97 116.75
118.087 140.67 116.118
118.418 140.349 117.368
128.65 143.459 117.612
128.685 142.028 118.7
119.291 142.335 116.293
118.709 141.397 116.258
119.596 142.166 117.123
128.321 144.739 117.744
128.443 143.404 118.753
121.527 144.47 116.725
120.641 143.282 117.173
121.677 143.925 117.718
127.85 144.733 118.641
127.706 145.863 117.871
122.52 145.065 117.046
123.754 145.589 117.844
125.061 146.141 118.525
126.428 146.544 118.653
120.086 125.048 115.945
119.052 125.725 115.887
119.753 124.571 116.848
120.917 124.248 116.902
121.17 125.256 115.869
121.705 124.588 116.847
121.934 125.462 116.41
122.35 124.938 117.096
118.678 126.931 115.867
121.801 126.186 115.613
122.458 126.258 116.603
118.355 128.331 115.809
122.592 127.471 116.434
122.904 128.964 116.282
123.536 128.429 117.393
118.106 129.556 116.122
123.187 129.926 116.251
123.963 129.714 117.086
117.544 131.897 115.349
117.839 130.633 116.493
124.619 130.548 117.527
124.616 132.289 116.724
125.225 131.709 117.704
117.236 133.016 115.858
124.69 133.215 116.197
125.323 133.271 116.855
117.022 134.075 116.557
125.987 134.234 117.176
126.326 135.959 116.668
126.755 135.796 117.496
117.11 135.196 117.02
127.457 137.243 117.549
117.308 136.249 117.607
127.906 137.964 117.887
128.125 139.054 117.985
128.156 137.798 119.105
117.624 137.198 117.984
117.926 138.244 118.006
118.39 137.208 119.302
128.456 139.96 118.129
128.431 139.148 119.342
118.134 139.334 117.787
118.649 138.673 118.96
128.557 140.396 119.68
118.985 140.048 118.468
128.35 141.892 119.758
119.138 141.107 117.717
120.138 141.8 118.136
127.894 143.515 119.517
120.658 142.733 118.071
122.567 144.299 118.16
121.814 143.275 118.726
122.908 144.012 119.191
127.49 144.505 119.385
126.997 145.501 118.974
123.467 144.799 118.473
124.551 145.264 119.073
125.735 145.614 119.355
118.957 125.466 117.159
119.676 123.88 117.515
120.824 123.183 117.446
122.157 123.569 117.548
122.95 124.792 117.693
118.786 126.939 117.22
123.536 125.374 118.349
122.99 126.453 117.419
123.669 126.578 118.18
118.532 128.09 117.382
123.87 127.532 118.059
124.591 128.519 118.232
125.11 127.701 119.419
118.272 129.181 117.734
124.835 129.476 118.13
125.568 128.942 119.247
117.641 131.54 117.036
117.973 130.333 118.136
125.549 130.361 118.569
125.854 131.962 118.392
126.397 131.119 119.319
117.407 132.661 117.363
117.753 131.491 118.561
125.897 133.103 117.888
126.438 133.02 118.779
117.396 133.653 118.224
126.611 134.41 118.233
127.267 135.83 118.493
127.397 134.901 119.413
117.448 134.77 118.585
127.804 136.849 118.699
127.944 136.123 119.854
117.758 135.498 118.996
117.952 136.426 118.964
118.433 135.745 120.307
128.384 137.571 120.225
119.057 137.094 120.446
128.386 138.993 120.648
119.323 138.313 119.985
119.371 139.442 119.474
120.118 139.275 120.375
128.121 140.386 120.807
119.468 140.315 118.852
120.017 140.354 119.63
127.91 142.394 120.458
120.993 142.186 118.937
120.157 141.15 118.995
121.67 142.557 119.391
121.408 141.654 119.819
122.272 142.599 119.993
127.171 144.073 120.029
127.126 142.651 120.856
126.404 143.454 120.821
123.95 144.456 119.807
123.034 143.335 120.085
125.103 144.785 120.164
124.266 143.719 120.69
126.341 144.811 120.069
125.468 143.866 120.865
120.266 122.564 118.248
119.425 124.114 118.347
119.841 122.708 119.161
120.771 121.595 119.122
121.608 122.272 118.188
122.385 121.538 118.828
122.985 122.918 118.319
123.667 121.877 119.033
123.922 123.204 119.119
124.49 122.689 119.944
119.157 125.507 118.448
123.597 124.126 118.655
124.618 124.131 119.847
118.973 126.702 118.755
124.614 125.425 119.471
124.631 126.693 119.162
125.562 126.127 120.327
118.679 127.881 118.934
125.972 127.412 120.418
118.415 129.043 119.249
126.523 128.242 120.702
126.233 129.662 119.696
126.858 129.855 120.623
118.264 130.096 119.814
126.964 131.609 119.982
117.74 132.501 119.237
118.125 131.249 120.04
127.238 132.796 120.021
117.938 133.621 119.883
118.151 132.615 120.717
127.122 133.86 119.475
127.942 134.605 120.632
117.955 134.713 120.044
118.664 134.111 121.275
128.316 136.023 121.015
119.024 135.63 121.427
128.313 137.539 121.452
119.646 136.683 121.745
119.952 138.056 120.976
120.697 138.526 121.424
120.355 137.252 122.104
121.008 137.803 122.478
128.038 139.02 121.873
120.954 139.897 120.88
121.336 139.102 121.98
127.648 140.201 121.741
127.289 139.564 122.653
127.013 140.773 122.233
120.942 140.84 120.131
121.9 140.265 121.586
121.883 141.214 120.692
122.606 141.243 121.383
127.583 141.476 121.236
126.62 141.931 121.808
123.035 141.924 121.29
125.837 142.887 121.607
123.16 142.541 120.869
123.909 142.8 121.122
124.892 142.958 121.511
122.412 119.359 119.965
121.131 119.707 120.149
121.673 118.605 120.775
122.573 117.767 120.567
123.58 119.37 120.101
123.83 117.781 120.525
124.63 119.718 120.39
124.845 118.199 120.9
121.708 120.587 119.433
120.456 120.939 120.305
123.22 120.534 119.476
124.456 121.257 120.004
125.307 119.575 120.953
125.415 121.411 120.796
125.938 119.775 121.539
119.629 124.068 119.541
120.171 122.411 120.254
125.477 123.14 120.768
126.224 120.953 121.733
126.322 122.429 121.726
126.91 121.098 122.59
119.555 125.308 119.902
125.644 124.765 120.699
126.375 124.084 121.722
127.025 123.022 122.565
119.163 126.532 120.282
126.562 125.793 121.469
126.988 124.971 122.545
118.724 127.887 120.212
126.566 127.046 121.363
127.082 126.871 122.384
118.636 129.027 120.825
127.199 128.503 121.628
127.306 130.559 121.258
127.616 129.637 122.193
118.748 130.148 121.538
127.57 132.03 120.983
127.79 131.354 122.026
118.581 131.464 121.543
127.744 133.42 120.545
128.049 133.252 121.66
118.826 132.889 121.809
128.373 134.621 121.888
119.488 133.324 122.788
119.434 134.663 122.369
120.066 134.016 123.323
128.276 135.984 122.241
119.864 135.854 122.348
120.246 135.247 123.05
127.831 137.322 122.536
120.885 136.356 123.156
121.613 137.596 123.147
127.335 138.301 123.021
121.968 138.572 122.839
121.96 139.372 122.222
122.462 139.416 122.827
126.521 139.059 123.422
126.243 140.184 123.055
123.617 141.301 122.257
122.926 140.327 122.433
124.724 141.253 122.846
123.905 140.269 123.174
125.77 141.114 122.637
125.077 140.153 123.482
123.704 142.115 121.677
124.463 142.178 122.021
125.509 142.07 122.175
123.267 116.233 121.157
122.206 116.831 121.625
122.644 115.814 122.326
123.415 114.745 121.779
124.568 116.469 121.07
124.781 115.137 121.201
125.733 116.741 121.516
125.979 115.415 121.578
121.037 119.43 121.294
121.682 117.985 121.948
125.769 118.167 121.501
126.559 116.571 122.16
126.644 117.932 122.433
127.292 116.946 122.995
120.853 120.677 121.618
126.569 119.455 122.336
127.256 119.017 123.231
120 123.641 120.828
120.483 122.048 121.574
127.336 121.177 123.421
119.847 124.9 121.319
120.212 123.403 122.125
127.461 123.299 123.423
119.469 126.105 121.535
120.06 124.915 122.687
127.396 125.331 123.481
119.02 127.538 121.444
119.64 126.231 122.633
127.339 126.841 123.828
119.061 128.73 122.164
127.443 128.252 122.914
127.76 129.736 123.079
119.562 128.994 123.148
119.212 130.484 122.72
119.896 129.929 123.748
127.851 131.722 122.874
119.198 131.71 122.615
119.946 131.093 123.693
127.934 133.234 122.898
119.516 132.495 122.718
120.132 132.231 123.577
127.969 134.568 123.192
120.763 134.566 123.9
120.666 133.041 124.138
121.42 134.214 124.536
127.76 135.923 123.355
120.892 135.517 123.577
121.565 135.626 124.129
127.222 136.993 123.602
122.625 138.033 123.787
122.008 136.728 123.947
123.724 137.995 124.333
123.067 136.902 124.588
124.823 137.87 124.482
124.238 136.743 124.998
125.781 137.706 124.321
125.396 136.615 124.915
126.537 137.904 123.845
126.351 136.745 124.482
123.221 139.293 123.637
124.361 139.156 123.983
125.573 139.025 123.986
127.382 106.13 119.518
126.23 107.466 120.997
127.162 105.311 121.191
128.525 103.764 120.176
128.943 106.363 119.835
130.239 104.613 120.366
129.845 106.857 120.997
130.309 105.807 121.937
126.361 108.903 120.407
125.222 109.206 121.58
127.781 108.693 120.343
128.842 108.491 121.166
129.634 107.929 122.394
125.632 110.888 121.121
124.686 110.778 122.563
127.133 110.501 120.94
128.354 110.566 121.728
129.107 110.04 122.795
124.633 112.104 121.472
124.031 112.982 122.722
124.415 112.06 123.18
126.207 112.672 121.43
127.499 112.254 121.715
128.37 112.361 122.994
128.837 111.755 123.871
124.326 113.675 121.708
123.701 114.089 123.192
125.761 114.046 121.505
127.429 114.131 122.31
128.265 113.769 123.285
122.475 116.928 123.113
123.214 115.263 123.474
126.923 115.318 122.299
127.853 115.648 123.468
121.376 119.337 122.522
122 118.16 123.337
127.748 117.453 123.962
121.061 120.616 122.904
127.615 119.441 124.206
120.798 121.987 123.007
127.616 121.476 124.35
120.55 123.314 123.383
127.621 123.6 124.4
120.492 124.641 123.899
127.499 125.329 124.709
119.473 127.389 122.867
120.216 126.136 123.838
127.318 126.933 125.178
119.543 128.137 123.168
120.115 127.595 124.014
127.506 128.275 124.097
127.736 130.12 123.993
120.658 130.266 124.612
120.288 128.836 124.223
121.11 129.336 125.177
127.595 131.397 124.06
120.976 131.373 124.701
121.584 130.451 125.65
127.613 132.854 124.066
120.871 132.199 124.473
121.683 131.977 125.436
127.46 133.855 124.273
127.238 132.772 124.739
126.855 133.222 125.169
122.329 134.697 125.073
121.719 133.107 125.079
122.632 133.569 125.643
127.263 134.859 124.296
126.38 134.266 125.304
122.562 135.893 124.836
123.189 134.575 125.771
123.672 135.651 125.362
125.019 135.547 125.439
124.288 134.659 126.019
126.245 135.483 125.066
125.48 134.459 125.848
127.025 135.956 124.24
126.152 107.796 122.383
126.987 106.494 123.065
128.173 104.707 122.654
129.858 104.283 122.459
129.988 106.559 123.405
125.431 109.687 123.211
129.591 108.895 123.831
125.15 111.341 124.435
129.227 110.577 124.48
124.325 113.411 124.494
124.758 112.434 124.571
128.692 111.867 125.583
128.563 113.481 124.919
123.957 114.653 124.857
128.29 114.939 124.461
123.022 116.572 124.283
123.595 115.746 125.013
128.12 116.454 124.844
121.812 119.304 123.961
122.68 117.905 124.636
127.952 118.091 125.094
121.536 120.64 124.238
122.394 119.253 125.188
127.695 119.9 125.275
121.217 121.924 124.383
122.096 120.863 125.428
127.7 121.85 125.357
120.985 123.373 124.648
121.849 122.286 125.569
127.541 123.481 125.603
120.969 125.197 124.92
121.609 123.694 125.561
127.284 125.038 125.878
120.891 126.705 124.973
121.837 124.867 125.876
121.728 126.072 125.908
122.581 125.313 126.681
127.031 126.418 126.198
121.039 128.13 125.095
121.857 127.44 125.936
122.705 126.751 126.86
127.303 128.563 125.037
126.904 128.153 126.102
121.929 128.968 125.994
122.777 128.237 126.761
127.323 129.787 125.306
126.751 129.896 126.243
122.418 130.927 126.28
122.823 129.783 126.699
127.165 131.379 125.209
126.476 130.93 126.335
122.669 132.393 126.063
123.33 131.014 126.738
123.764 132.246 126.444
125.144 132.292 126.415
124.41 131.236 126.785
126.442 132.089 125.863
125.614 131.211 126.774
123.545 133.463 126.253
124.673 133.502 126.335
125.862 133.262 125.937
126.259 108.325 123.698
126.973 107.43 124.389
127.793 106.235 124.424
129.276 105.911 124.378
129.388 107.903 124.743
125.881 109.942 124.602
129.162 109.45 125.19
125.811 110.897 125.612
128.918 110.642 125.717
125.161 112.904 125.969
125.716 111.936 126.131
126.439 112.825 127.293
128.295 112.95 126.516
127.43 111.973 127.144
128.325 111.141 126.685
124.705 114.18 126.077
125.616 113.898 127.317
127.191 113.821 127.599
128.175 114.139 126.331
128.236 115.276 125.768
123.552 116.843 125.635
124.322 115.598 126.346
128.059 116.966 126.189
123.332 118.258 125.985
124.214 117.107 126.816
127.752 118.666 126.313
123.006 119.815 126.312
124.001 118.798 126.987
127.596 120.421 126.358
122.87 121.432 126.453
123.723 120.486 127.268
127.425 122.037 126.579
122.619 122.935 126.562
123.569 122.184 127.315
127.087 123.478 126.77
122.431 124.136 126.476
123.347 123.877 127.305
126.861 124.904 126.956
123.426 125.351 127.412
126.693 126.53 127.022
123.64 126.484 127.536
123.775 127.76 127.445
125.267 127.842 127.569
124.644 126.666 127.667
126.339 127.652 127.148
125.83 126.543 127.644
123.757 129.134 127.142
124.949 129.007 127.299
126.257 128.864 126.925
123.778 130.274 127.128
124.788 130.229 127.268
125.906 130.078 127.068
126.534 108.75 125.134
127.403 107.661 125.627
128.537 107.19 125.234
126.451 110.017 126.056
127.329 109.111 126.4
128.586 108.494 125.985
126.311 111.124 126.803
127.253 110.469 127.13
128.397 109.863 126.53
125.372 115.381 127.338
126.604 115.218 127.887
127.756 115.032 127.176
125.139 116.738 127.64
126.488 116.66 128.089
127.674 116.264 127.232
124.963 118.248 127.833
126.333 118.189 128.139
127.442 117.834 127.394
124.811 119.775 127.827
126.132 119.651 128.067
127.212 119.388 127.413
124.531 121.42 127.948
125.802 121.082 128.087
126.953 120.881 127.458
124.295 123.053 128.009
125.526 122.636 128.115
126.597 122.316 127.603
124.219 124.542 127.907
125.313 124.097 128.054
126.336 123.764 127.669
124.208 125.632 127.698
125.083 125.387 127.887
126.173 125.227 127.723
POLYGONS 1936  7744
3 0 1 2
3 0 3 4
3 2 3 0
3 4 5 6
3 3 5 4
3 5 7 6
3 8 1 0
3 9 1 8
3 4 10 0
3 10 8 0
3 6 11 4
3 11 10 4
3 12 6 7
3 11 6 12
3 8 13 9
3 10 13 8
3 14 13 10
3 11 14 10
3 15 14 11
3 12 15 11
3 16 17 18
3 16 19 20
3 18 19 16
3 20 21 22
3 19 21 20
3 21 23 22
3 24 17 16
3 25 17 24
3 20 26 16
3 26 24 16
3 22 27 20
3 27 26 20
3 28 22 23
3 28 29 22
3 29 27 22
3 28 30 29
3 31 25 24
3 32 25 31
3 26 33 24
3 33 31 24
3 27 34 26
3 34 33 26
3 29 35 27
3 35 34 27
3 36 29 30
3 35 29 36
3 31 37 32
3 37 38 39
3 37 31 38
3 31 33 38
3 34 40 33
3 40 38 33
3 35 41 34
3 41 40 34
3 42 35 36
3 41 35 42
3 38 43 39
3 40 43 38
3 44 43 40
3 44 45 46
3 44 40 45
3 40 41 45
3 47 41 42
3 47 48 41
3 48 45 41
3 48 49 50
3 47 49 48
3 49 51 50
3 52 46 45
3 53 46 52
3 48 54 45
3 54 52 45
3 50 55 48
3 55 54 48
3 56 50 51
3 55 50 56
3 57 58 59
3 53 57 59
3 52 57 53
3 52 1 57
3 52 2 1
3 3 2 52
3 54 3 52
3 5 3 54
3 55 5 54
3 55 7 5
3 55 56 7
3 56 60 7
3 61 58 57
3 62 58 61
3 1 9 61
3 57 1 61
3 7 60 12
3 60 63 12
3 61 64 62
3 9 64 61
3 9 13 64
3 13 65 64
3 14 66 13
3 13 66 65
3 15 67 14
3 14 67 66
3 63 15 12
3 67 15 63
3 68 69 70
3 68 71 72
3 70 71 68
3 71 73 72
3 74 69 68
3 75 69 74
3 18 17 74
3 18 74 72
3 72 74 68
3 72 73 76
3 72 76 18
3 18 76 19
3 21 19 77
3 19 76 77
3 77 23 21
3 78 23 77
3 79 75 74
3 80 75 79
3 17 25 79
3 74 17 79
3 23 78 81
3 28 23 81
3 81 30 28
3 82 30 81
3 83 80 79
3 84 80 83
3 25 32 83
3 79 25 83
3 85 86 36
3 85 36 82
3 82 36 30
3 85 87 86
3 83 88 84
3 89 90 88
3 37 89 88
3 37 88 83
3 37 83 32
3 37 39 89
3 86 91 42
3 36 86 42
3 92 86 87
3 91 86 92
3 89 93 90
3 94 95 93
3 43 94 93
3 43 93 89
3 43 89 39
3 43 44 96
3 94 43 96
3 44 46 96
3 42 91 47
3 91 92 97
3 91 97 47
3 47 97 49
3 97 51 49
3 98 51 97
3 99 95 94
3 100 95 99
3 96 101 94
3 101 99 94
3 46 53 101
3 96 46 101
3 51 98 56
3 98 102 56
3 99 103 100
3 59 58 104
3 59 104 99
3 59 99 101
3 99 104 103
3 53 59 101
3 56 102 60
3 102 105 60
3 58 62 104
3 104 62 106
3 60 105 63
3 105 107 63
3 62 108 106
3 64 108 62
3 109 110 108
3 109 108 65
3 65 108 64
3 65 66 111
3 109 65 111
3 66 67 112
3 111 66 112
3 67 113 112
3 67 63 113
3 63 107 113
3 109 114 110
3 111 114 109
3 115 114 111
3 112 115 111
3 116 115 112
3 113 116 112
3 70 117 118
3 69 117 70
3 71 70 119
3 70 118 119
3 73 120 121
3 73 71 120
3 71 119 120
3 120 122 121
3 69 75 117
3 117 75 123
3 73 121 76
3 121 122 124
3 121 124 76
3 76 124 77
3 124 78 77
3 125 78 124
3 75 80 123
3 123 80 126
3 78 125 127
3 81 78 127
3 127 82 81
3 128 82 127
3 80 84 126
3 126 84 129
3 82 128 130
3 85 82 130
3 130 87 85
3 131 87 130
3 132 84 88
3 132 133 84
3 133 129 84
3 88 90 132
3 87 131 92
3 131 134 92
3 135 133 132
3 136 133 135
3 90 93 137
3 90 137 132
3 132 137 135
3 93 95 137
3 92 134 138
3 97 92 138
3 138 98 97
3 139 98 138
3 135 140 136
3 140 141 142
3 140 135 141
3 135 137 141
3 95 100 141
3 137 95 141
3 98 139 102
3 139 143 102
3 141 144 142
3 145 146 144
3 103 145 144
3 103 144 141
3 103 141 100
3 103 104 145
3 147 148 105
3 147 105 143
3 143 105 102
3 147 149 148
3 150 146 145
3 151 146 150
3 104 106 150
3 145 104 150
3 148 152 107
3 105 148 107
3 153 148 149
3 152 148 153
3 150 154 151
3 106 154 150
3 106 108 154
3 108 155 154
3 155 108 110
3 156 155 110
3 152 157 113
3 107 152 113
3 158 152 153
3 157 152 158
3 110 159 156
3 114 159 110
3 115 160 114
3 114 160 159
3 116 161 115
3 115 161 160
3 157 116 113
3 157 162 116
3 162 161 116
3 158 162 157
3 163 164 165
3 163 166 167
3 165 166 163
3 167 168 169
3 166 168 167
3 168 170 169
3 118 164 163
3 118 117 164
3 117 171 164
3 119 118 163
3 167 119 163
3 120 119 167
3 169 120 167
3 169 122 120
3 169 170 122
3 170 172 122
3 117 123 171
3 171 123 173
3 122 172 174
3 124 122 174
3 174 125 124
3 175 125 174
3 123 126 173
3 173 126 176
3 125 175 177
3 127 125 177
3 177 128 127
3 178 128 177
3 126 129 176
3 176 129 179
3 128 178 180
3 130 128 180
3 180 131 130
3 181 131 180
3 129 133 179
3 179 133 182
3 131 181 134
3 181 183 134
3 133 136 182
3 182 136 184
3 134 183 185
3 138 134 185
3 185 139 138
3 186 139 185
3 187 136 140
3 187 188 136
3 188 184 136
3 140 142 187
3 189 190 143
3 189 143 186
3 186 143 139
3 189 191 190
3 187 192 188
3 193 194 192
3 144 193 192
3 144 192 187
3 144 187 142
3 144 146 193
3 143 190 147
3 190 149 147
3 190 191 149
3 191 195 149
3 196 194 193
3 197 194 196
3 146 151 196
3 193 146 196
3 149 195 153
3 195 198 153
3 196 199 197
3 151 199 196
3 151 154 199
3 154 200 199
3 201 202 200
3 201 200 155
3 155 200 154
3 155 156 201
3 153 198 158
3 198 203 158
3 201 204 202
3 156 204 201
3 156 159 204
3 159 205 204
3 160 206 159
3 159 206 205
3 161 207 160
3 160 207 206
3 162 208 161
3 161 208 207
3 203 162 158
3 208 162 203
3 165 209 210
3 164 209 165
3 166 165 211
3 165 210 211
3 168 166 212
3 166 211 212
3 212 170 168
3 213 170 212
3 164 171 209
3 209 171 214
3 170 213 172
3 213 215 172
3 171 173 214
3 214 173 216
3 172 215 217
3 174 172 217
3 217 175 174
3 218 175 217
3 173 176 216
3 216 176 219
3 175 218 220
3 177 175 220
3 220 178 177
3 221 178 220
3 176 179 219
3 219 179 222
3 178 221 223
3 180 178 223
3 223 181 180
3 224 181 223
3 179 182 222
3 222 182 225
3 181 224 183
3 224 226 183
3 182 184 225
3 225 184 227
3 183 226 228
3 185 183 228
3 228 186 185
3 229 186 228
3 184 188 227
3 227 188 230
3 186 229 231
3 189 186 231
3 231 191 189
3 232 191 231
3 188 233 230
3 192 233 188
3 233 192 194
3 234 233 194
3 191 232 195
3 232 235 195
3 194 197 234
3 234 197 236
3 195 235 198
3 235 237 198
3 197 238 236
3 199 238 197
3 200 239 199
3 199 239 238
3 239 200 202
3 240 239 202
3 198 237 203
3 237 241 203
3 202 242 240
3 204 242 202
3 205 243 204
3 204 243 242
3 206 244 205
3 205 244 243
3 207 245 206
3 206 245 244
3 208 246 207
3 207 246 245
3 241 208 203
3 246 208 241
3 247 248 249
3 247 250 251
3 249 250 247
3 251 252 253
3 250 252 251
3 252 254 253
3 210 248 247
3 210 209 248
3 209 255 248
3 211 210 247
3 251 211 247
3 212 211 251
3 253 212 251
3 253 213 212
3 253 254 213
3 254 256 213
3 209 214 255
3 255 214 257
3 213 256 215
3 256 258 215
3 214 216 257
3 257 216 259
3 215 258 260
3 217 215 260
3 260 218 217
3 261 218 260
3 216 219 259
3 259 219 262
3 218 261 263
3 220 218 263
3 263 221 220
3 264 221 263
3 219 222 262
3 262 222 265
3 221 264 266
3 223 221 266
3 266 224 223
3 267 224 266
3 222 225 265
3 265 225 268
3 224 267 226
3 267 269 226
3 225 227 268
3 268 227 270
3 226 269 271
3 228 226 271
3 271 229 228
3 272 229 271
3 227 230 270
3 270 230 273
3 274 231 229
3 274 229 275
3 275 229 272
3 231 274 232
3 230 276 273
3 233 276 230
3 276 233 234
3 277 276 234
3 274 275 278
3 278 232 274
3 278 279 232
3 279 235 232
3 234 236 277
3 277 236 280
3 235 279 237
3 279 281 237
3 236 282 280
3 238 282 236
3 239 283 238
3 238 283 282
3 283 239 240
3 284 283 240
3 237 281 241
3 281 285 241
3 240 286 284
3 242 286 240
3 243 287 242
3 242 287 286
3 244 288 243
3 243 288 287
3 245 289 244
3 244 289 288
3 246 290 245
3 245 290 289
3 285 246 241
3 290 246 285
3 249 291 292
3 248 291 249
3 250 249 293
3 249 292 293
3 252 250 294
3 250 293 294
3 294 254 252
3 295 254 294
3 248 255 291
3 291 255 296
3 297 298 256
3 297 256 295
3 295 256 254
3 297 299 298
3 255 257 296
3 296 257 300
3 298 301 258
3 256 298 258
3 302 298 299
3 301 298 302
3 257 259 300
3 300 259 303
3 258 301 260
3 261 304 305
3 260 304 261
3 260 302 304
3 260 301 302
3 304 306 305
3 259 262 303
3 303 262 307
3 261 305 263
3 305 264 263
3 305 306 264
3 306 308 264
3 262 265 307
3 307 265 309
3 264 308 310
3 266 264 310
3 310 267 266
3 311 267 310
3 265 268 309
3 309 268 312
3 313 314 269
3 313 269 311
3 311 269 267
3 313 315 314
3 268 270 312
3 312 270 316
3 269 314 271
3 314 272 271
3 314 315 272
3 315 317 272
3 270 273 316
3 316 273 318
3 272 317 275
3 317 319 275
3 273 320 318
3 276 320 273
3 320 276 277
3 321 320 277
3 275 319 322
3 278 275 322
3 322 279 278
3 323 279 322
3 277 280 321
3 321 280 324
3 279 323 281
3 323 325 281
3 280 326 324
3 282 326 280
3 283 327 282
3 282 327 326
3 327 283 284
3 328 327 284
3 281 325 285
3 325 329 285
3 284 330 328
3 286 330 284
3 287 331 286
3 286 331 330
3 288 332 287
3 287 332 331
3 289 333 288
3 288 333 332
3 290 334 289
3 289 334 333
3 329 290 285
3 334 290 329
3 335 336 337
3 335 338 339
3 337 338 335
3 338 340 339
3 292 291 341
3 335 342 336
3 335 292 342
3 335 293 292
3 341 342 292
3 294 293 335
3 339 294 335
3 295 343 344
3 294 343 295
3 294 340 343
3 294 339 340
3 343 345 344
3 341 346 347
3 341 291 346
3 291 296 346
3 342 341 347
3 295 344 297
3 344 299 297
3 344 345 299
3 345 348 299
3 296 300 346
3 346 300 349
3 299 348 302
3 348 350 302
3 300 303 349
3 349 303 351
3 302 350 352
3 304 302 352
3 352 306 304
3 353 306 352
3 303 307 351
3 351 307 354
3 355 356 308
3 355 308 353
3 353 308 306
3 355 357 356
3 307 309 354
3 354 309 358
3 308 356 310
3 311 359 360
3 310 359 311
3 310 357 359
3 310 356 357
3 359 361 360
3 309 312 358
3 358 312 362
3 311 360 313
3 360 315 313
3 360 361 315
3 361 363 315
3 312 316 362
3 362 316 364
3 315 363 317
3 363 365 317
3 316 318 364
3 364 318 366
3 317 365 319
3 365 367 319
3 318 368 366
3 320 368 318
3 368 320 321
3 369 368 321
3 370 322 319
3 370 319 371
3 371 319 367
3 322 370 323
3 372 324 373
3 372 369 324
3 369 321 324
3 372 373 374
3 375 370 371
3 376 375 371
3 323 375 325
3 370 375 323
3 324 326 373
3 373 377 374
3 373 326 377
3 326 327 377
3 328 378 379
3 328 379 327
3 327 379 377
3 378 380 381
3 379 378 381
3 380 382 383
3 381 380 383
3 382 384 385
3 383 382 385
3 376 385 384
3 376 384 375
3 375 384 386
3 325 386 329
3 375 386 325
3 328 330 378
3 331 378 330
3 380 378 331
3 332 380 331
3 382 380 332
3 333 382 332
3 384 382 333
3 334 384 333
3 386 384 334
3 329 386 334
3 387 388 389
3 387 390 391
3 389 390 387
3 390 392 391
3 337 388 387
3 337 336 388
3 336 393 388
3 338 337 387
3 391 338 387
3 340 394 395
3 338 394 340
3 338 392 394
3 338 391 392
3 394 396 395
3 336 342 393
3 393 342 397
3 340 395 343
3 395 345 343
3 395 396 345
3 396 398 345
3 347 399 400
3 346 399 347
3 397 342 347
3 400 397 347
3 401 402 348
3 401 348 398
3 398 348 345
3 401 403 402
3 346 349 399
3 399 349 404
3 402 405 350
3 348 402 350
3 406 402 403
3 405 402 406
3 349 351 404
3 404 351 407
3 350 405 352
3 353 408 409
3 352 408 353
3 352 406 408
3 352 405 406
3 408 410 409
3 351 354 407
3 407 354 411
3 353 409 355
3 357 412 413
3 355 412 357
3 355 410 412
3 355 409 410
3 412 414 413
3 354 358 411
3 411 358 415
3 357 413 359
3 413 361 359
3 413 414 361
3 414 416 361
3 358 362 415
3 415 362 417
3 361 416 363
3 416 418 363
3 362 364 417
3 417 364 419
3 420 421 365
3 420 365 418
3 418 365 363
3 420 422 421
3 423 366 424
3 423 419 366
3 419 364 366
3 423 424 425
3 421 426 367
3 365 421 367
3 427 421 422
3 426 421 427
3 366 368 424
3 369 428 429
3 368 369 429
3 368 429 425
3 368 425 424
3 429 428 430
3 426 431 371
3 367 426 371
3 432 426 427
3 431 426 432
3 369 372 428
3 374 433 434
3 372 374 434
3 372 434 430
3 372 430 428
3 434 433 435
3 431 436 437
3 431 437 371
3 371 437 376
3 432 436 431
3 374 377 433
3 433 438 435
3 433 377 438
3 377 379 438
3 381 439 379
3 379 439 438
3 383 440 381
3 381 440 439
3 385 441 383
3 383 441 440
3 437 385 376
3 441 385 437
3 442 443 444
3 442 445 446
3 444 445 442
3 446 447 448
3 445 447 446
3 447 449 448
3 389 443 442
3 389 388 443
3 388 450 443
3 390 389 442
3 446 390 442
3 392 390 446
3 392 446 451
3 451 446 448
3 452 448 449
3 451 448 452
3 388 393 450
3 450 393 453
3 392 451 394
3 396 454 455
3 394 454 396
3 394 452 454
3 394 451 452
3 454 456 455
3 393 397 453
3 453 397 457
3 455 458 398
3 396 455 398
3 459 455 456
3 458 455 459
3 400 460 461
3 399 460 400
3 457 397 400
3 461 457 400
3 398 458 401
3 403 462 463
3 401 462 403
3 401 459 462
3 401 458 459
3 462 464 463
3 399 404 460
3 460 404 465
3 463 466 406
3 403 463 406
3 467 463 464
3 466 463 467
3 404 407 465
3 465 407 468
3 406 466 408
3 410 469 470
3 408 469 410
3 408 467 469
3 408 466 467
3 469 471 470
3 407 411 468
3 468 411 472
3 410 470 412
3 470 414 412
3 470 471 414
3 471 473 414
3 411 415 472
3 472 415 474
3 475 476 416
3 475 416 473
3 473 416 414
3 475 477 476
3 478 417 479
3 478 474 417
3 474 415 417
3 478 479 480
3 476 481 418
3 416 476 418
3 482 476 477
3 481 476 482
3 479 419 483
3 417 419 479
3 484 480 479
3 483 484 479
3 418 481 420
3 481 422 420
3 481 482 422
3 482 485 422
3 419 423 483
3 483 423 425
3 483 425 484
3 484 425 486
3 422 485 427
3 485 487 427
3 425 488 486
3 429 488 425
3 488 429 430
3 489 488 430
3 427 487 432
3 487 490 432
3 430 491 489
3 434 491 430
3 435 492 493
3 435 493 434
3 434 493 491
3 493 492 494
3 436 495 496
3 437 436 496
3 490 436 432
3 495 436 490
3 435 438 492
3 492 497 494
3 492 438 497
3 438 439 497
3 440 498 439
3 439 498 497
3 441 499 440
3 440 499 498
3 496 441 437
3 499 441 496
3 444 500 501
3 443 500 444
3 445 444 502
3 444 501 502
3 447 445 503
3 445 502 503
3 503 449 447
3 504 449 503
3 443 450 500
3 500 450 505
3 506 507 452
3 506 452 504
3 504 452 449
3 506 508 507
3 450 453 505
3 505 453 509
3 452 507 454
3 456 510 511
3 454 510 456
3 454 508 510
3 454 507 508
3 510 512 511
3 453 457 509
3 509 457 513
3 511 514 459
3 456 511 459
3 515 511 512
3 514 511 515
3 461 460 516
3 461 516 517
3 461 517 457
3 457 517 513
3 459 514 462
3 464 518 519
3 462 518 464
3 462 515 518
3 462 514 515
3 518 520 519
3 516 521 522
3 516 460 521
3 460 465 521
3 517 516 522
3 519 523 467
3 464 519 467
3 524 519 520
3 523 519 524
3 465 468 521
3 521 468 525
3 467 523 469
3 471 526 527
3 469 526 471
3 469 524 526
3 469 523 524
3 526 528 527
3 468 472 525
3 525 472 529
3 527 530 473
3 471 527 473
3 531 527 528
3 530 527 531
3 532 474 533
3 532 529 474
3 529 472 474
3 532 533 534
3 473 530 475
3 530 477 475
3 530 531 477
3 531 535 477
3 474 478 533
3 533 478 480
3 533 480 534
3 534 480 536
3 477 535 482
3 535 537 482
3 538 484 539
3 538 536 484
3 536 480 484
3 538 539 540
3 482 537 485
3 537 541 485
3 539 486 542
3 484 486 539
3 543 540 539
3 542 543 539
3 485 541 487
3 541 544 487
3 486 488 542
3 489 545 546
3 488 489 546
3 488 546 543
3 488 543 542
3 545 547 548
3 546 545 548
3 548 547 549
3 550 551 552
3 550 544 551
3 550 490 544
3 490 487 544
3 489 491 545
3 493 545 491
3 547 545 493
3 494 553 554
3 493 494 554
3 493 554 549
3 493 549 547
3 553 555 556
3 554 553 556
3 555 557 558
3 556 555 558
3 552 558 557
3 550 552 557
3 550 557 496
3 550 496 495
3 490 550 495
3 494 497 553
3 498 553 497
3 555 553 498
3 499 555 498
3 557 555 499
3 496 557 499
3 559 560 561
3 559 562 563
3 561 562 559
3 563 564 565
3 562 564 563
3 565 566 567
3 564 566 565
3 566 568 567
3 501 560 559
3 501 500 560
3 500 569 560
3 502 501 559
3 563 502 559
3 503 502 563
3 565 503 563
3 504 503 565
3 504 565 570
3 570 565 567
3 571 567 568
3 570 567 571
3 500 505 569
3 569 505 572
3 504 570 506
3 508 573 574
3 506 573 508
3 506 571 573
3 506 570 571
3 573 575 574
3 505 509 572
3 572 509 576
3 508 574 510
3 574 512 510
3 574 575 512
3 575 577 512
3 509 513 576
3 576 513 578
3 579 580 515
3 579 515 577
3 577 515 512
3 579 581 580
3 513 517 578
3 578 517 582
3 515 580 518
3 580 520 518
3 580 581 520
3 581 583 520
3 522 521 584
3 522 584 585
3 522 585 517
3 517 585 582
3 520 583 524
3 583 586 524
3 584 525 587
3 521 525 584
3 588 585 584
3 587 588 584
3 524 586 589
3 526 524 589
3 589 528 526
3 590 528 589
3 587 529 591
3 525 529 587
3 592 588 587
3 591 592 587
3 528 590 531
3 590 593 531
3 529 532 591
3 591 532 534
3 591 534 592
3 592 534 594
3 531 593 535
3 593 595 535
3 596 536 597
3 596 594 536
3 594 534 536
3 597 598 599
3 596 597 599
3 599 598 600
3 535 595 537
3 595 601 537
3 536 538 597
3 540 597 538
3 540 602 597
3 602 598 597
3 603 600 598
3 602 603 598
3 604 605 606
3 604 601 605
3 604 541 601
3 541 537 601
3 602 543 607
3 540 543 602
3 608 603 602
3 608 602 609
3 609 602 607
3 608 609 610
3 611 604 606
3 612 611 606
3 541 611 544
3 604 611 541
3 543 546 607
3 548 607 546
3 609 607 548
3 609 548 549
3 609 549 610
3 610 549 613
3 551 611 612
3 551 612 552
3 552 612 614
3 544 611 551
3 549 615 613
3 554 615 549
3 556 616 554
3 554 616 615
3 558 617 556
3 556 617 616
3 614 558 552
3 617 558 614
3 618 619 620
3 618 621 622
3 620 621 618
3 622 623 624
3 621 623 622
3 623 625 624
3 626 619 618
3 627 619 626
3 622 628 618
3 628 626 618
3 624 629 622
3 629 628 622
3 630 624 625
3 630 631 624
3 631 629 624
3 630 632 631
3 561 633 634
3 560 633 561
3 627 626 562
3 627 562 634
3 634 562 561
3 564 562 626
3 628 564 626
3 566 564 628
3 629 566 628
3 568 566 629
3 568 629 635
3 635 629 631
3 636 631 632
3 636 637 631
3 637 635 631
3 636 638 637
3 560 569 633
3 633 569 639
3 635 640 571
3 568 635 571
3 637 641 635
3 641 640 635
3 642 637 638
3 641 637 642
3 569 572 639
3 639 572 643
3 571 640 573
3 575 573 640
3 575 640 644
3 644 640 641
3 645 641 642
3 644 641 645
3 572 576 643
3 643 576 646
3 644 647 577
3 575 644 577
3 648 644 645
3 647 644 648
3 576 578 646
3 646 578 649
3 577 647 579
3 581 650 651
3 579 650 581
3 579 648 650
3 579 647 648
3 650 652 651
3 578 582 649
3 649 582 653
3 651 654 583
3 581 651 583
3 655 651 652
3 654 651 655
3 582 585 653
3 653 585 656
3 654 657 586
3 583 654 586
3 658 654 655
3 657 654 658
3 585 588 656
3 656 588 659
3 586 657 589
3 657 590 589
3 657 658 590
3 658 660 590
3 661 592 662
3 661 659 592
3 659 588 592
3 661 662 663
3 590 660 593
3 660 664 593
3 662 594 665
3 592 594 662
3 666 663 662
3 665 666 662
3 593 664 595
3 664 667 595
3 594 596 665
3 665 668 666
3 665 596 668
3 596 599 668
3 668 599 600
3 669 668 600
3 595 667 601
3 667 670 601
3 671 603 672
3 671 669 603
3 669 600 603
3 671 672 673
3 605 674 675
3 606 605 675
3 670 605 601
3 674 605 670
3 603 608 672
3 610 676 677
3 608 610 677
3 608 677 673
3 608 673 672
3 676 678 679
3 677 676 679
3 678 680 681
3 679 678 681
3 680 675 681
3 680 612 675
3 612 606 675
3 676 613 682
3 610 613 676
3 678 676 683
3 683 676 682
3 680 678 684
3 684 678 683
3 612 684 614
3 680 684 612
3 613 615 682
3 616 682 615
3 683 682 616
3 617 683 616
3 684 683 617
3 614 684 617
3 685 686 687
3 685 688 689
3 687 688 685
3 689 690 691
3 688 690 689
3 690 692 691
3 620 693 694
3 619 693 620
3 686 685 621
3 686 621 694
3 694 621 620
3 623 621 685
3 689 623 685
3 625 623 689
3 625 689 695
3 695 689 691
3 696 691 692
3 696 697 691
3 697 695 691
3 696 698 697
3 619 627 693
3 693 627 699
3 625 695 630
3 632 630 695
3 632 695 700
3 700 695 697
3 701 697 698
3 700 697 701
3 634 633 702
3 634 702 703
3 634 703 627
3 627 703 699
3 632 700 636
3 700 638 636
3 700 701 638
3 701 704 638
3 702 639 705
3 633 639 702
3 706 703 702
3 705 706 702
3 638 704 642
3 704 707 642
3 705 643 708
3 639 643 705
3 709 706 705
3 708 709 705
3 642 707 645
3 707 710 645
3 708 711 712
3 708 643 711
3 643 646 711
3 709 708 712
3 645 710 648
3 710 713 648
3 646 649 711
3 711 649 714
3 648 713 715
3 650 648 715
3 715 652 650
3 716 652 715
3 717 653 718
3 717 714 653
3 714 649 653
3 717 718 719
3 652 716 655
3 716 720 655
3 718 656 721
3 653 656 718
3 722 719 718
3 721 722 718
3 655 720 658
3 720 723 658
3 721 659 724
3 656 659 721
3 725 722 721
3 724 725 721
3 658 723 660
3 723 726 660
3 659 661 724
3 663 727 728
3 661 663 728
3 661 728 725
3 661 725 724
3 728 727 729
3 660 726 664
3 726 730 664
3 727 666 731
3 663 666 727
3 732 729 727
3 731 732 727
3 664 730 667
3 730 733 667
3 666 668 731
3 669 734 735
3 668 669 735
3 668 735 732
3 668 732 731
3 734 736 737
3 735 734 737
3 736 738 739
3 737 736 739
3 738 740 741
3 739 738 741
3 740 742 743
3 741 740 743
3 742 733 743
3 742 670 733
3 670 667 733
3 669 671 734
3 673 734 671
3 673 744 734
3 744 736 734
3 738 736 745
3 745 736 744
3 740 738 746
3 746 738 745
3 674 746 675
3 674 742 746
3 742 740 746
3 670 742 674
3 673 677 744
3 679 744 677
3 745 744 679
3 681 745 679
3 746 745 681
3 675 746 681
3 747 748 749
3 747 750 751
3 749 750 747
3 751 752 753
3 750 752 751
3 752 754 753
3 755 748 747
3 756 748 755
3 751 757 747
3 757 755 747
3 753 758 751
3 758 757 751
3 759 753 754
3 758 753 759
3 760 756 755
3 761 756 760
3 757 762 755
3 762 760 755
3 758 763 757
3 763 762 757
3 764 758 759
3 763 758 764
3 765 766 767
3 761 765 767
3 761 760 765
3 760 768 765
3 762 769 760
3 769 768 760
3 770 763 771
3 770 769 763
3 769 762 763
3 764 771 763
3 772 766 765
3 773 766 772
3 768 774 765
3 774 772 765
3 769 775 768
3 775 774 768
3 776 769 770
3 775 769 776
3 687 777 778
3 686 777 687
3 773 772 688
3 773 688 778
3 778 688 687
3 690 688 772
3 774 690 772
3 692 690 774
3 692 774 779
3 779 774 775
3 780 775 776
3 779 775 780
3 694 781 782
3 693 781 694
3 777 686 694
3 782 777 694
3 692 779 696
3 779 698 696
3 779 780 698
3 780 783 698
3 693 699 781
3 781 699 784
3 698 783 701
3 783 785 701
3 699 703 784
3 784 703 786
3 701 785 704
3 785 787 704
3 703 706 786
3 786 706 788
3 704 787 707
3 787 789 707
3 706 709 788
3 788 709 790
3 707 789 710
3 789 791 710
3 712 711 792
3 712 792 793
3 712 793 709
3 709 793 790
3 710 791 713
3 791 794 713
3 792 714 795
3 711 714 792
3 796 793 792
3 795 796 792
3 713 794 797
3 715 713 797
3 797 716 715
3 798 716 797
3 714 717 795
3 719 799 800
3 717 719 800
3 717 800 796
3 717 796 795
3 800 799 801
3 716 798 720
3 798 802 720
3 799 722 803
3 719 722 799
3 804 801 799
3 803 804 799
3 720 802 723
3 802 805 723
3 803 725 806
3 722 725 803
3 807 804 803
3 806 807 803
3 808 809 810
3 808 805 809
3 808 726 805
3 726 723 805
3 725 728 806
3 729 811 812
3 728 729 812
3 728 812 807
3 728 807 806
3 812 811 813
3 814 808 810
3 815 814 810
3 726 814 730
3 808 814 726
3 811 732 816
3 729 732 811
3 817 813 811
3 817 811 818
3 818 811 816
3 818 819 820
3 817 818 820
3 819 821 822
3 820 819 822
3 815 822 821
3 815 821 814
3 814 821 823
3 730 823 733
3 814 823 730
3 732 735 816
3 737 816 735
3 818 816 737
3 739 818 737
3 819 818 739
3 741 819 739
3 821 819 741
3 743 821 741
3 823 821 743
3 733 823 743
3 749 824 825
3 748 824 749
3 750 749 826
3 749 825 826
3 752 750 827
3 750 826 827
3 827 754 752
3 828 754 827
3 748 756 824
3 824 756 829
3 754 828 759
3 828 830 759
3 756 761 829
3 829 761 831
3 759 830 764
3 830 832 764
3 767 833 834
3 766 833 767
3 831 761 767
3 834 831 767
3 771 835 836
3 770 771 836
3 832 771 764
3 835 771 832
3 766 773 833
3 833 773 837
3 770 836 776
3 836 838 776
3 778 839 840
3 777 839 778
3 837 773 778
3 840 837 778
3 776 838 780
3 838 841 780
3 782 781 842
3 782 842 843
3 782 843 777
3 777 843 839
3 780 841 783
3 841 844 783
3 842 784 845
3 781 784 842
3 846 843 842
3 845 846 842
3 783 844 785
3 844 847 785
3 845 786 848
3 784 786 845
3 849 846 845
3 848 849 845
3 785 847 787
3 847 850 787
3 848 788 851
3 786 788 848
3 852 849 848
3 851 852 848
3 787 850 789
3 850 853 789
3 851 790 854
3 788 790 851
3 855 852 851
3 854 855 851
3 789 853 791
3 853 856 791
3 854 793 857
3 790 793 854
3 858 855 854
3 858 854 859
3 859 854 857
3 858 859 860
3 791 856 794
3 856 861 794
3 857 796 862
3 793 796 857
3 859 857 863
3 863 857 862
3 864 860 859
3 863 864 859
3 865 797 794
3 865 794 866
3 866 794 861
3 797 865 798
3 796 800 862
3 801 862 800
3 801 867 862
3 867 863 862
3 868 864 863
3 867 868 863
3 869 865 866
3 870 869 866
3 798 869 802
3 865 869 798
3 867 804 871
3 801 804 867
3 872 868 867
3 871 872 867
3 873 869 870
3 874 873 870
3 802 873 805
3 869 873 802
3 871 807 875
3 804 807 871
3 876 872 871
3 876 871 877
3 877 871 875
3 877 878 879
3 876 877 879
3 878 880 881
3 879 878 881
3 874 881 880
3 873 874 880
3 873 880 810
3 873 810 809
3 805 873 809
3 807 812 875
3 813 875 812
3 813 882 875
3 882 877 875
3 878 877 883
3 883 877 882
3 880 878 884
3 884 878 883
3 810 884 815
3 880 884 810
3 813 817 882
3 820 882 817
3 883 882 820
3 822 883 820
3 884 883 822
3 815 884 822
3 825 885 886
3 824 885 825
3 826 825 887
3 825 886 887
3 827 826 888
3 826 887 888
3 888 828 827
3 889 828 888
3 824 829 885
3 885 829 890
3 828 889 830
3 889 891 830
3 829 831 890
3 890 831 892
3 830 891 832
3 891 893 832
3 834 833 894
3 895 892 831
3 895 831 894
3 895 894 896
3 894 831 834
3 896 897 898
3 895 896 898
3 897 836 835
3 897 835 898
3 898 835 899
3 893 835 832
3 899 835 893
3 894 900 901
3 894 833 900
3 833 837 900
3 896 894 901
3 902 896 901
3 897 896 902
3 903 897 902
3 903 836 897
3 903 904 836
3 904 838 836
3 840 839 905
3 840 905 906
3 840 906 837
3 837 906 900
3 838 904 841
3 904 907 841
3 905 843 908
3 839 843 905
3 909 906 905
3 908 909 905
3 841 907 844
3 907 910 844
3 908 846 911
3 843 846 908
3 912 909 908
3 911 912 908
3 844 910 847
3 910 913 847
3 911 849 914
3 846 849 911
3 915 912 911
3 914 915 911
3 847 913 850
3 913 916 850
3 914 852 917
3 849 852 914
3 918 915 914
3 917 918 914
3 850 916 853
3 916 919 853
3 917 855 920
3 852 855 917
3 921 918 917
3 920 921 917
3 853 919 856
3 919 922 856
3 855 858 920
3 920 858 860
3 920 860 921
3 921 860 923
3 856 922 861
3 922 924 861
3 925 864 926
3 925 923 864
3 923 860 864
3 926 927 928
3 925 926 928
3 927 929 930
3 928 927 930
3 929 924 930
3 929 866 924
3 866 861 924
3 926 868 931
3 864 868 926
3 927 926 932
3 932 926 931
3 929 927 933
3 933 927 932
3 866 933 870
3 929 933 866
3 931 872 934
3 868 872 931
3 932 931 935
3 935 931 934
3 933 932 936
3 936 932 935
3 870 936 874
3 933 936 870
3 872 876 934
3 879 934 876
3 935 934 879
3 881 935 879
3 936 935 881
3 874 936 881
3 886 885 937
3 886 938 887
3 937 938 886
3 887 939 888
3 938 939 887
3 888 939 889
3 937 890 940
3 885 890 937
3 938 937 941
3 941 937 940
3 939 938 942
3 942 938 941
3 889 942 891
3 939 942 889
3 940 892 943
3 890 892 940
3 941 940 944
3 944 940 943
3 942 941 945
3 945 941 944
3 891 945 893
3 942 945 891
3 892 895 943
3 898 943 895
3 944 943 898
3 899 944 898
3 945 944 899
3 893 945 899
3 901 900 946
3 901 947 902
3 946 947 901
3 902 948 903
3 947 948 902
3 903 948 904
3 946 906 949
3 900 906 946
3 947 946 950
3 950 946 949
3 948 947 951
3 951 947 950
3 904 951 907
3 948 951 904
3 949 909 952
3 906 909 949
3 950 949 953
3 953 949 952
3 951 950 954
3 954 950 953
3 907 954 910
3 951 954 907
3 952 912 955
3 909 912 952
3 953 952 956
3 956 952 955
3 954 953 957
3 957 953 956
3 910 957 913
3 954 957 910
3 955 915 958
3 912 915 955
3 956 955 959
3 959 955 958
3 957 956 960
3 960 956 959
3 913 960 916
3 957 960 913
3 958 918 961
3 915 918 958
3 959 958 962
3 962 958 961
3 960 959 963
3 963 959 962
3 916 963 919
3 960 963 916
3 961 921 964
3 918 921 961
3 962 961 965
3 965 961 964
3 963 962 966
3 966 962 965
3 919 966 922
3 963 966 919
3 964 923 967
3 921 923 964
3 965 964 968
3 968 964 967
3 966 965 969
3 969 965 968
3 922 969 924
3 966 969 922
3 923 925 967
3 928 967 925
3 968 967 928
3 930 968 928
3 969 968 930
3 924 969 930
