# vtk DataFile Version 3.0
this file was written using fslvtkio
ASCII
DATASET POLYDATA
POINTS 642 float
111.169 117.392 110.093
96.2324 111.73 107.836
92.65 97.8118 102.156
108.762 102.92 106.215
106.321 107.025 116.106
109.293 110.477 100.173
98.9633 107.115 99.1219
95.685 104.048 114.93
101.352 118.997 115.971
100.731 95.6319 107.822
101.556 95.9919 96.7276
104.433 122.119 104.122
97.928 112.058 117.291
104.087 113.406 117.555
100.507 105.005 117.182
97.3794 98.4431 112.764
103.809 100.337 112.996
102.545 114.838 102.327
104.258 108.936 99.4463
108.603 118.88 101.24
99.157 100.609 96.8849
105.177 102.51 99.4989
108.577 104.55 111.546
109.101 113.163 114.448
111.531 110.364 108.155
110.256 106.184 102.616
111.511 116.665 104.277
95.1802 108.57 112.129
93.2933 99.7057 109.303
93.9269 104.239 105.065
97.5465 110.159 103.208
95.2863 101.374 99.4634
109.416 123.375 106.644
107.252 120.09 113.765
102.885 122.628 110.551
99.9318 117.856 106.905
97.332 116.567 112.77
106.319 97.3937 101.258
99.4939 93.3599 101.172
105.932 96.8041 107.181
94.5203 95.5268 95.8248
95.2992 94.9544 104.534
100.932 113.02 118.167
102.328 109.174 117.907
99.1005 108.409 118.02
103.499 105.916 116.854
105.416 110.398 117.348
102.966 116.511 117.115
99.3842 115.66 117.006
96.7679 108.084 116.526
97.7626 103.979 116.715
98.9791 101.306 115.584
102.383 102.642 115.587
100.644 99.1535 113.299
105.29 103.505 114.635
95.9485 100.575 114.195
99.161 97.1662 110.345
102.517 97.8808 110.584
103.602 112.189 100.683
106.661 114.262 100.467
105.341 117.16 101.251
109.11 114.811 100.415
106.793 109.846 99.9007
101.646 108.082 99.0866
100.883 110.763 101.249
103.504 118.624 103.066
106.48 121.069 102.022
102.268 101.379 97.6983
104.868 105.897 99.0174
101.815 104.763 97.8546
107.492 106.247 99.9204
103.875 99.0783 97.7106
100.269 98.211 95.7389
99.1729 104.036 97.7851
109.347 108.838 113.256
110.927 111.571 111.542
110.58 107.355 110.262
111.498 113.872 109.086
110.428 115.208 112.496
107.958 110.13 115.673
107.741 105.518 113.967
108.887 103.596 108.873
110.995 106.573 107.346
111.21 108.523 105.296
111.587 113.431 106.147
111.191 111.48 103.458
111.549 117.32 107.056
109.823 104.351 104.464
110.234 108.273 101.071
110.883 113.688 101.887
94.1823 104.073 110.865
93.3424 102.18 107.426
94.7411 106.177 108.767
93.2633 100.976 103.815
92.8852 98.6806 105.891
94.1422 101.818 112.33
95.2215 106.642 113.865
95.5387 110.09 109.898
95.407 107.683 106.507
95.6361 106.872 103.958
94.1038 102.732 102.012
95.6952 105.733 101.008
93.3916 99.2952 100.031
96.7155 110.949 105.303
98.3534 108.576 101.411
96.7027 104.436 98.7464
108.773 122.026 110.502
105.199 122.297 112.459
106.435 123.736 108.025
101.666 121.397 113.769
104.434 119.655 115.286
109.848 118.939 112.333
110.872 120.587 108.726
107.408 123.857 103.977
103.651 122.812 106.99
101.188 120.976 108.652
99.6856 120.265 112.09
98.4936 117.567 109.816
98.601 118.126 114.953
102.134 119.845 105.464
97.7684 114.844 107.283
96.7385 114.159 110.347
103.675 94.1572 100.909
103.144 94.4139 104.016
106.626 96.3212 103.921
103.456 95.9345 107.67
100.267 94.2482 104.529
100.861 93.9738 98.5758
104.371 96.5409 98.7411
107.573 100.275 103.984
107.5 99.3913 106.688
94.1233 94.2172 99.7356
97.2318 93.7408 102.913
96.9168 93.7027 98.2933
97.91 95.1908 106.643
93.431 95.9292 103.362
92.7907 96.4157 98.4724
98.0236 95.2784 95.9165
106.998 113.503 116.64
105.95 117.063 116.196
108.671 116.998 114.595
110.965 120.405 105.582
109.417 122.266 103.203
110.655 117.549 102.026
105.129 98.5069 110.064
106.394 101.968 112.283
107.311 100.635 109.282
108.002 102.001 102.427
108.277 104.325 100.789
105.973 99.8923 100.109
97.0667 114.678 115.345
95.9324 110.479 115.039
95.9262 112.697 112.455
98.4972 114.205 105.036
99.714 112.639 102.605
101.074 116.553 104.303
94.2568 97.0491 107.07
94.7962 98.7391 111.561
96.5774 96.646 108.959
96.9828 97.8095 95.1167
96.8341 100.703 97.7496
93.6805 98.4888 96.7037
101.538 111.052 118.204
100.71 108.985 118.181
100.019 110.701 118.361
99.8962 106.883 117.849
101.268 107.237 117.721
102.985 111.301 117.911
102.444 112.906 117.962
99.4079 112.286 118.012
98.6526 110.363 117.931
102.798 107.477 117.54
103.819 109.838 117.704
104.339 108.121 117.346
104.559 111.794 117.591
101.923 105.604 117.153
104.911 106.593 116.654
105.71 108.557 116.938
102.022 114.639 117.837
100.015 114.264 117.94
101.14 115.987 117.437
98.6266 113.86 117.363
103.521 114.905 117.392
102.047 117.724 116.812
100.375 117.294 116.758
97.8603 108.398 117.483
98.468 106.271 117.667
97.2312 106.075 116.919
99.126 104.782 117.208
97.3318 110.14 117.171
96.2449 106.02 115.968
96.666 104.153 116.033
100.696 101.921 115.687
101.473 100.769 114.621
99.8678 100.181 114.542
102.199 99.9065 113.44
102.915 101.303 114.417
101.411 103.708 116.491
99.8056 103.108 116.434
98.2302 99.7174 114.437
99.0001 98.8566 113.35
103.848 102.894 115.123
102.939 104.301 116.397
104.628 104.773 115.93
104.387 101.786 113.926
105.849 105.296 115.543
98.4858 102.682 116.376
97.4253 100.795 115.142
96.8159 102.321 115.721
96.7149 99.4005 113.748
95.8064 102.29 114.72
99.7893 98.1611 112.01
101.676 98.6402 112.101
100.84 97.6201 110.62
103.073 99.0869 111.995
98.2899 97.8076 111.681
100.119 96.4108 109.27
101.625 96.6774 109.442
105.082 113.255 100.576
106.048 115.703 100.811
104.555 114.74 101.052
106.921 117.8 101.005
107.561 116.593 100.681
105.491 111.877 100.117
104.211 110.928 100.052
103.253 113.758 101.357
103.941 115.84 101.675
107.87 114.756 100.456
106.677 112.039 100.171
107.97 112.401 100.096
105.576 109.962 99.7967
108.915 117.017 100.786
109.105 112.505 100.168
108.01 110.267 99.9635
102.851 110.131 100.057
102.304 111.67 101.051
101.351 109.519 100.124
101.8 112.945 101.763
103.061 108.625 99.2762
100.322 107.67 99.0402
100.05 108.885 100.248
104.296 117.843 101.987
105.954 119.053 101.444
104.82 119.886 102.123
107.432 119.752 101.43
103.127 116.749 102.607
103.982 120.401 103.348
105.171 121.623 102.744
103.598 103.666 98.3339
103.373 105.298 98.3982
102.099 103.176 97.7836
103.045 106.773 98.51
104.548 107.439 99.0915
104.834 104.004 99.0159
103.765 102.204 98.5575
100.849 101.232 97.1909
100.623 102.681 97.4826
105.772 108.088 99.5769
106.032 105.951 99.5012
107.225 108.084 99.83
106.252 104.384 99.6485
108.488 108.404 100.042
102.998 100.328 97.7374
101.343 99.9238 96.5949
102.287 98.8207 96.4084
99.7593 99.5979 96.1292
104.276 100.818 98.6991
102.91 97.6149 96.9534
101.177 97.194 96.1332
100.612 104.506 97.7629
101.931 106.749 98.3732
100.371 106.346 98.1268
99.3168 102.397 97.5071
98.9733 105.609 98.1723
110.216 110.187 112.459
110.882 109.484 110.985
110.071 108.092 111.812
111.241 108.928 109.528
111.334 110.593 109.991
110.057 112.042 112.995
109.424 110.968 113.694
109.231 106.8 112.411
109.646 106.192 111.141
111.389 112.488 110.376
110.69 113.324 112.203
111.214 114.269 110.915
109.787 114.037 113.535
111.534 111.99 108.824
111.352 115.522 109.658
111.015 116.02 111.245
108.713 109.659 114.43
108.643 107.208 113.676
108.001 107.868 114.989
108.283 105.143 112.769
108.608 111.711 114.993
107.108 108.556 116.047
107.133 106.235 115.123
109.842 105.489 109.726
111.004 107.013 108.886
109.988 105.084 108.189
111.368 108.524 107.948
108.89 104.218 110.309
108.926 103.382 107.487
110.125 104.801 106.783
111.511 110.968 105.832
111.483 112.372 104.812
111.192 109.953 104.425
111.499 113.889 103.974
111.58 114.699 105.046
111.567 111.737 107.053
111.458 109.683 106.678
110.786 107.673 103.877
110.865 109.033 103.202
111.486 115.286 106.445
111.618 113.391 107.647
111.476 115.468 108.041
111.617 116.858 105.58
111.388 117.147 108.617
111.238 107.733 106.48
110.785 106.534 104.797
110.664 105.597 105.81
110.186 105.349 103.567
109.45 103.807 105.457
110.749 109.857 102.256
111.117 112.744 102.783
110.603 111.113 101.467
111.327 115.225 103.176
110.365 107.499 102.002
109.924 109.488 100.543
110.201 112.075 100.803
93.7365 103.103 109.159
93.9477 104.173 108.068
94.3853 105.109 109.773
94.1931 105.01 107.046
93.585 103.434 106.471
93.1855 101.227 108.571
93.5998 102.006 110.018
94.6944 106.16 111.293
94.8361 107.068 110.425
93.093 101.742 105.756
92.9394 100.477 106.85
92.9342 99.9896 105.013
93.0548 99.3936 107.712
93.4108 102.665 104.655
92.8969 99.4397 103.138
92.741 98.3936 104.076
94.0561 102.769 111.503
94.6201 105.311 112.276
94.7058 104.245 113.128
95.0309 107.434 112.858
93.5772 100.725 110.752
94.8935 103.082 113.712
95.4818 105.444 114.524
95.1863 108.062 109.496
94.9447 106.742 107.575
95.3843 108.779 108.209
94.6141 105.854 105.983
95.3188 109.188 111.021
95.7699 110.619 108.662
95.7189 109.571 107.136
94.4886 104.869 102.985
94.6642 104.322 101.499
95.5655 106.225 102.545
95.2148 103.84 100.186
94.7076 102.332 100.709
93.8369 103.575 103.455
94.6491 105.473 104.398
96.5017 108.245 103.327
96.5144 107.5 102.186
94.155 100.987 101.182
93.6221 101.894 103.001
93.4728 100.048 101.988
94.3162 100.373 99.7015
92.9024 98.6147 101.197
95.3699 106.999 105.257
96.4091 108.626 104.571
96.0389 109.282 105.849
97.08 110.39 104.168
96.3878 111.179 106.571
97.0315 107.118 101.2
96.1153 105.23 99.8084
97.3497 106.709 99.7966
95.8819 103.099 99.2635
97.6859 109.107 102.232
98.76 107.878 100.302
97.6862 105.867 98.6734
107.043 122.506 111.162
106.06 123.159 110.34
107.582 123.167 109.441
104.859 123.276 109.476
104.299 122.789 111.351
106.388 121.497 112.93
107.881 121.315 112.103
109.059 122.865 108.7
108.042 123.841 107.416
103.505 122.088 113.169
104.828 121.18 114.023
103.069 120.938 114.815
105.934 120.073 114.493
102.375 122.224 112.207
101.36 120.296 115.039
102.954 119.343 115.842
109.253 120.57 111.613
110.087 121.569 109.837
110.622 119.651 110.672
110.175 122.148 108.029
108.511 119.881 112.958
110.717 117.96 111.408
111.144 118.956 109.437
106.884 124.089 106.053
105.053 123.41 107.496
105.427 123.601 105.411
103.503 122.917 108.829
108.426 124.042 105.365
105.652 123.293 103.872
103.791 122.431 105.604
100.407 120.759 110.377
99.1345 119.192 110.841
99.7896 119.473 109.429
97.9532 117.421 111.228
98.4579 118.517 112.261
101.118 121.686 111.418
101.867 122.035 109.624
100.358 119.351 108.011
99.2518 117.99 108.478
99.0362 119.301 113.416
100.711 121.104 112.913
100.099 119.886 114.493
97.8998 117.659 113.722
99.8732 118.611 115.672
102.355 122.128 107.981
101.515 120.346 107.198
102.685 121.456 106.273
100.952 118.989 106.36
103.326 120.891 104.719
98.226 116.239 108.533
97.5397 115.959 110.1
97.1724 114.459 108.729
97.0177 115.615 111.533
98.8891 116.555 107.29
96.8845 113.267 107.524
96.4217 112.929 109.083
103.599 94.073 102.53
105.072 95.071 103.897
105.445 94.9181 102.341
106.027 96.1436 105.414
104.643 95.3023 105.368
101.636 93.6956 102.604
101.772 93.6591 101.221
105.287 95.2749 100.901
106.473 96.5217 102.377
103.373 94.9964 105.947
101.734 94.3172 104.231
101.868 94.8715 106.316
99.9841 93.6202 102.807
104.718 96.0851 107.175
102.102 95.8166 107.932
100.337 94.7181 106.277
102.416 93.9639 99.7637
104.241 95.0475 99.5138
102.752 94.8367 98.1779
105.4 96.6369 100.046
100.324 93.5946 99.9138
101.216 94.7546 97.2463
103.211 96.471 97.6147
107.282 98.1121 103.825
107.299 97.5793 105.318
107.634 99.8364 105.358
106.977 97.6643 106.741
107.058 98.5683 102.654
108.101 101.67 105.157
107.982 101.331 106.628
95.7036 93.6178 101.147
96.9377 93.3263 100.497
95.3847 93.74 98.9083
98.1914 93.4082 99.7264
98.2766 93.428 102.006
95.9253 94.2069 103.233
94.6914 94.2733 101.83
94.0407 94.4607 97.6345
95.5373 94.2662 96.9563
98.9933 93.9241 103.682
97.3281 94.327 104.519
98.929 94.5127 105.711
96.5549 94.9521 105.576
99.3442 95.4249 107.421
93.6512 94.9227 101.468
93.1828 95.0219 98.9512
92.819 95.8806 100.85
93.3001 95.7922 96.9242
94.3025 95.1576 103.557
92.9411 96.8443 102.91
92.5625 97.0496 100.359
97.4193 94.166 97.161
99.1964 93.7264 98.7428
99.5268 94.4025 97.1619
96.2916 95.2219 95.8513
99.7681 95.5783 96.2403
106.533 115.369 116.593
107.406 117.148 115.536
107.855 115.368 115.79
108.031 118.689 114.34
106.741 118.712 115.194
105.11 115.207 116.948
105.62 113.573 117.23
108.15 113.576 115.66
108.838 115.064 114.771
105.397 118.529 115.654
104.517 116.602 116.68
103.685 118.125 116.329
106.194 112.059 117.126
107.683 111.888 116.145
106.771 110.089 116.654
109.57 115.949 113.734
109.208 118.176 113.523
110.235 117.017 112.484
110.241 121.434 104.475
110.212 120.153 102.797
110.821 119.322 103.768
109.9 118.33 101.472
109.178 120.591 101.975
109.686 123.192 104.929
110.317 121.987 106.394
111.373 118.57 104.834
111.189 117.156 103.094
107.998 121.324 102.154
108.724 123.421 103.661
106.409 122.632 102.812
110.948 120.583 107.192
111.451 118.755 106.226
111.297 118.825 108.012
110.869 115.389 101.917
110.019 116.062 100.902
110.121 113.623 100.606
105.783 100.219 111.211
107.022 101.376 110.838
106.422 99.3334 109.673
107.908 102.59 110.52
107.583 103.044 111.837
105.141 100.993 112.581
104.511 99.4901 111.511
105.757 97.6036 108.723
106.847 98.515 108.284
107.201 103.745 112.999
105.748 102.551 113.408
106.582 104.431 114.373
103.883 98.2099 110.457
104.609 96.9783 108.769
103.094 96.7911 109.181
107.4 99.8087 107.959
108.047 102.278 109.26
108.018 101.775 107.803
108.272 103.279 101.642
106.944 102.214 100.753
107.085 100.941 101.274
105.643 101.36 99.9086
106.747 103.419 100.219
109.617 105.152 101.561
109.291 104.043 102.587
107.046 99.6809 101.941
106.267 98.69 100.636
107.916 105.181 100.227
109.579 106.171 100.896
108.989 107.371 100.438
108.989 103.406 103.488
107.635 101.076 103.153
108.391 102.558 104.446
105.496 98.1019 99.4484
104.977 99.777 99.0503
104.415 97.935 98.068
96.3305 112.632 115.305
95.8109 111.676 113.804
96.2903 113.736 113.981
95.5202 110.678 112.407
95.4621 109.774 113.582
96.769 111.383 116.318
97.381 113.375 116.392
96.9869 115.59 114.027
96.5649 114.609 112.706
95.5781 108.602 114.27
96.3561 109.443 115.958
95.8321 107.297 115.285
97.9942 115.135 116.393
97.6682 116.486 114.985
98.9649 117.045 116.115
96.2638 113.534 111.411
95.7019 111.228 111.199
95.9883 112.055 109.904
99.1456 113.57 103.785
100.434 114.642 103.522
99.7315 115.456 104.666
101.738 115.621 103.196
101.09 113.756 102.547
98.4958 111.698 102.928
97.9759 112.382 104.027
99.185 116.045 105.934
100.372 117.189 105.552
100.344 111.84 101.892
98.7724 110.601 102.106
99.5373 109.639 101.251
97.4049 112.432 104.981
98.1941 114.622 106.172
97.0295 112.861 106.298
101.453 118.176 105.021
102.32 117.21 103.682
102.82 119.178 104.222
94.5451 97.8096 109.356
95.674 97.5973 110.209
95.3348 96.7347 108.018
96.9413 97.569 110.906
96.0013 98.4109 112.115
93.8777 99.0228 110.422
93.711 98.2215 108.387
94.7736 95.8606 105.834
95.9468 95.6832 106.883
95.3238 99.5547 112.989
94.1003 100.166 111.953
94.9652 101.499 113.443
93.5308 97.8944 106.688
93.9011 96.2982 105.222
93.1611 97.3325 104.686
97.2183 95.7888 107.725
97.83 96.9161 109.804
98.7694 96.0653 108.582
96.6595 99.348 96.1805
95.3297 99.5241 97.1049
95.0119 98.2905 95.3156
94.6905 99.7328 98.2809
96.1289 101.178 98.7188
98.0741 100.799 97.4805
97.971 99.4472 95.9081
95.6869 96.6052 95.141
93.7314 97.0416 95.8319
96.8324 102.583 98.3881
98.0207 102.501 97.8443
97.8344 104.252 98.0867
98.6787 98.5196 95.3613
97.5084 96.4481 95.3247
99.5559 96.8457 95.681
93.0648 97.3467 97.53
93.5719 99.0619 98.4812
92.8322 97.9554 99.5631
POLYGONS 1280  5120
3 164 162 163
3 163 44 164
3 162 43 163
3 164 42 162
3 166 165 163
3 163 43 166
3 165 44 163
3 166 14 165
3 168 167 162
3 162 42 168
3 167 43 162
3 168 13 167
3 170 169 164
3 164 44 170
3 169 42 164
3 170 12 169
3 173 171 172
3 172 46 173
3 171 43 172
3 173 45 171
3 167 174 172
3 172 43 167
3 174 46 172
3 167 13 174
3 175 166 171
3 171 45 175
3 166 43 171
3 175 14 166
3 177 176 173
3 173 46 177
3 176 45 173
3 177 4 176
3 180 178 179
3 179 48 180
3 178 42 179
3 180 47 178
3 169 181 179
3 179 42 169
3 181 48 179
3 169 12 181
3 182 168 178
3 178 47 182
3 168 42 178
3 182 13 168
3 184 183 180
3 180 48 184
3 183 47 180
3 184 8 183
3 187 185 186
3 186 50 187
3 185 44 186
3 187 49 185
3 165 188 186
3 186 44 165
3 188 50 186
3 165 14 188
3 189 170 185
3 185 49 189
3 170 44 185
3 189 12 170
3 191 190 187
3 187 50 191
3 190 49 187
3 191 7 190
3 194 192 193
3 193 53 194
3 192 52 193
3 194 51 192
3 196 195 193
3 193 52 196
3 195 53 193
3 196 16 195
3 198 197 192
3 192 51 198
3 197 52 192
3 198 14 197
3 200 199 194
3 194 53 200
3 199 51 194
3 200 15 199
3 203 201 202
3 202 45 203
3 201 52 202
3 203 54 201
3 197 175 202
3 202 52 197
3 175 45 202
3 197 14 175
3 204 196 201
3 201 54 204
3 196 52 201
3 204 16 196
3 176 205 203
3 203 45 176
3 205 54 203
3 176 4 205
3 208 206 207
3 207 55 208
3 206 51 207
3 208 50 206
3 199 209 207
3 207 51 199
3 209 55 207
3 199 15 209
3 188 198 206
3 206 50 188
3 198 51 206
3 188 14 198
3 210 191 208
3 208 55 210
3 191 50 208
3 210 7 191
3 213 211 212
3 212 57 213
3 211 53 212
3 213 56 211
3 195 214 212
3 212 53 195
3 214 57 212
3 195 16 214
3 215 200 211
3 211 56 215
3 200 53 211
3 215 15 200
3 217 216 213
3 213 57 217
3 216 56 213
3 217 9 216
3 220 218 219
3 219 60 220
3 218 59 219
3 220 58 218
3 222 221 219
3 219 59 222
3 221 60 219
3 222 19 221
3 224 223 218
3 218 58 224
3 223 59 218
3 224 18 223
3 226 225 220
3 220 60 226
3 225 58 220
3 226 17 225
3 229 227 228
3 228 62 229
3 227 59 228
3 229 61 227
3 223 230 228
3 228 59 223
3 230 62 228
3 223 18 230
3 231 222 227
3 227 61 231
3 222 59 227
3 231 19 222
3 233 232 229
3 229 62 233
3 232 61 229
3 233 5 232
3 236 234 235
3 235 64 236
3 234 58 235
3 236 63 234
3 225 237 235
3 235 58 225
3 237 64 235
3 225 17 237
3 238 224 234
3 234 63 238
3 224 58 234
3 238 18 224
3 240 239 236
3 236 64 240
3 239 63 236
3 240 6 239
3 243 241 242
3 242 66 243
3 241 60 242
3 243 65 241
3 221 244 242
3 242 60 221
3 244 66 242
3 221 19 244
3 245 226 241
3 241 65 245
3 226 60 241
3 245 17 226
3 247 246 243
3 243 66 247
3 246 65 243
3 247 11 246
3 250 248 249
3 249 69 250
3 248 68 249
3 250 67 248
3 252 251 249
3 249 68 252
3 251 69 249
3 252 18 251
3 254 253 248
3 248 67 254
3 253 68 248
3 254 21 253
3 256 255 250
3 250 69 256
3 255 67 250
3 256 20 255
3 259 257 258
3 258 70 259
3 257 68 258
3 259 62 257
3 253 260 258
3 258 68 253
3 260 70 258
3 253 21 260
3 230 252 257
3 257 62 230
3 252 68 257
3 230 18 252
3 261 233 259
3 259 70 261
3 233 62 259
3 261 5 233
3 264 262 263
3 263 72 264
3 262 67 263
3 264 71 262
3 255 265 263
3 263 67 255
3 265 72 263
3 255 20 265
3 266 254 262
3 262 71 266
3 254 67 262
3 266 21 254
3 268 267 264
3 264 72 268
3 267 71 264
3 268 10 267
3 271 269 270
3 270 63 271
3 269 69 270
3 271 73 269
3 251 238 270
3 270 69 251
3 238 63 270
3 251 18 238
3 272 256 269
3 269 73 272
3 256 69 269
3 272 20 256
3 239 273 271
3 271 63 239
3 273 73 271
3 239 6 273
3 276 274 275
3 275 76 276
3 274 75 275
3 276 74 274
3 278 277 275
3 275 75 278
3 277 76 275
3 278 24 277
3 280 279 274
3 274 74 280
3 279 75 274
3 280 23 279
3 282 281 276
3 276 76 282
3 281 74 276
3 282 22 281
3 285 283 284
3 284 78 285
3 283 75 284
3 285 77 283
3 279 286 284
3 284 75 279
3 286 78 284
3 279 23 286
3 287 278 283
3 283 77 287
3 278 75 283
3 287 24 278
3 289 288 285
3 285 78 289
3 288 77 285
3 289 0 288
3 292 290 291
3 291 80 292
3 290 74 291
3 292 79 290
3 281 293 291
3 291 74 281
3 293 80 291
3 281 22 293
3 294 280 290
3 290 79 294
3 280 74 290
3 294 23 280
3 296 295 292
3 292 80 296
3 295 79 292
3 296 4 295
3 299 297 298
3 298 82 299
3 297 76 298
3 299 81 297
3 277 300 298
3 298 76 277
3 300 82 298
3 277 24 300
3 301 282 297
3 297 81 301
3 282 76 297
3 301 22 282
3 303 302 299
3 299 82 303
3 302 81 299
3 303 3 302
3 306 304 305
3 305 85 306
3 304 84 305
3 306 83 304
3 308 307 305
3 305 84 308
3 307 85 305
3 308 26 307
3 310 309 304
3 304 83 310
3 309 84 304
3 310 24 309
3 312 311 306
3 306 85 312
3 311 83 306
3 312 25 311
3 315 313 314
3 314 77 315
3 313 84 314
3 315 86 313
3 309 287 314
3 314 84 309
3 287 77 314
3 309 24 287
3 316 308 313
3 313 86 316
3 308 84 313
3 316 26 308
3 288 317 315
3 315 77 288
3 317 86 315
3 288 0 317
3 320 318 319
3 319 87 320
3 318 83 319
3 320 82 318
3 311 321 319
3 319 83 311
3 321 87 319
3 311 25 321
3 300 310 318
3 318 82 300
3 310 83 318
3 300 24 310
3 322 303 320
3 320 87 322
3 303 82 320
3 322 3 303
3 325 323 324
3 324 89 325
3 323 85 324
3 325 88 323
3 307 326 324
3 324 85 307
3 326 89 324
3 307 26 326
3 327 312 323
3 323 88 327
3 312 85 323
3 327 25 312
3 329 328 325
3 325 89 329
3 328 88 325
3 329 5 328
3 332 330 331
3 331 92 332
3 330 91 331
3 332 90 330
3 334 333 331
3 331 91 334
3 333 92 331
3 334 29 333
3 336 335 330
3 330 90 336
3 335 91 330
3 336 28 335
3 338 337 332
3 332 92 338
3 337 90 332
3 338 27 337
3 341 339 340
3 340 94 341
3 339 91 340
3 341 93 339
3 335 342 340
3 340 91 335
3 342 94 340
3 335 28 342
3 343 334 339
3 339 93 343
3 334 91 339
3 343 29 334
3 345 344 341
3 341 94 345
3 344 93 341
3 345 2 344
3 348 346 347
3 347 96 348
3 346 90 347
3 348 95 346
3 337 349 347
3 347 90 337
3 349 96 347
3 337 27 349
3 350 336 346
3 346 95 350
3 336 90 346
3 350 28 336
3 352 351 348
3 348 96 352
3 351 95 348
3 352 7 351
3 355 353 354
3 354 98 355
3 353 92 354
3 355 97 353
3 333 356 354
3 354 92 333
3 356 98 354
3 333 29 356
3 357 338 353
3 353 97 357
3 338 92 353
3 357 27 338
3 359 358 355
3 355 98 359
3 358 97 355
3 359 1 358
3 362 360 361
3 361 101 362
3 360 100 361
3 362 99 360
3 364 363 361
3 361 100 364
3 363 101 361
3 364 31 363
3 366 365 360
3 360 99 366
3 365 100 360
3 366 29 365
3 368 367 362
3 362 101 368
3 367 99 362
3 368 30 367
3 371 369 370
3 370 93 371
3 369 100 370
3 371 102 369
3 365 343 370
3 370 100 365
3 343 93 370
3 365 29 343
3 372 364 369
3 369 102 372
3 364 100 369
3 372 31 364
3 344 373 371
3 371 93 344
3 373 102 371
3 344 2 373
3 376 374 375
3 375 103 376
3 374 99 375
3 376 98 374
3 367 377 375
3 375 99 367
3 377 103 375
3 367 30 377
3 356 366 374
3 374 98 356
3 366 99 374
3 356 29 366
3 378 359 376
3 376 103 378
3 359 98 376
3 378 1 359
3 381 379 380
3 380 105 381
3 379 101 380
3 381 104 379
3 363 382 380
3 380 101 363
3 382 105 380
3 363 31 382
3 383 368 379
3 379 104 383
3 368 101 379
3 383 30 368
3 385 384 381
3 381 105 385
3 384 104 381
3 385 6 384
3 388 386 387
3 387 108 388
3 386 107 387
3 388 106 386
3 390 389 387
3 387 107 390
3 389 108 387
3 390 34 389
3 392 391 386
3 386 106 392
3 391 107 386
3 392 33 391
3 394 393 388
3 388 108 394
3 393 106 388
3 394 32 393
3 397 395 396
3 396 110 397
3 395 107 396
3 397 109 395
3 391 398 396
3 396 107 391
3 398 110 396
3 391 33 398
3 399 390 395
3 395 109 399
3 390 107 395
3 399 34 390
3 401 400 397
3 397 110 401
3 400 109 397
3 401 8 400
3 404 402 403
3 403 112 404
3 402 106 403
3 404 111 402
3 393 405 403
3 403 106 393
3 405 112 403
3 393 32 405
3 406 392 402
3 402 111 406
3 392 106 402
3 406 33 392
3 408 407 404
3 404 112 408
3 407 111 404
3 408 0 407
3 411 409 410
3 410 114 411
3 409 108 410
3 411 113 409
3 389 412 410
3 410 108 389
3 412 114 410
3 389 34 412
3 413 394 409
3 409 113 413
3 394 108 409
3 413 32 394
3 415 414 411
3 411 114 415
3 414 113 411
3 415 11 414
3 418 416 417
3 417 117 418
3 416 116 417
3 418 115 416
3 420 419 417
3 417 116 420
3 419 117 417
3 420 36 419
3 422 421 416
3 416 115 422
3 421 116 416
3 422 34 421
3 424 423 418
3 418 117 424
3 423 115 418
3 424 35 423
3 427 425 426
3 426 109 427
3 425 116 426
3 427 118 425
3 421 399 426
3 426 116 421
3 399 109 426
3 421 34 399
3 428 420 425
3 425 118 428
3 420 116 425
3 428 36 420
3 400 429 427
3 427 109 400
3 429 118 427
3 400 8 429
3 432 430 431
3 431 119 432
3 430 115 431
3 432 114 430
3 423 433 431
3 431 115 423
3 433 119 431
3 423 35 433
3 412 422 430
3 430 114 412
3 422 115 430
3 412 34 422
3 434 415 432
3 432 119 434
3 415 114 432
3 434 11 415
3 437 435 436
3 436 121 437
3 435 117 436
3 437 120 435
3 419 438 436
3 436 117 419
3 438 121 436
3 419 36 438
3 439 424 435
3 435 120 439
3 424 117 435
3 439 35 424
3 441 440 437
3 437 121 441
3 440 120 437
3 441 1 440
3 444 442 443
3 443 124 444
3 442 123 443
3 444 122 442
3 446 445 443
3 443 123 446
3 445 124 443
3 446 39 445
3 448 447 442
3 442 122 448
3 447 123 442
3 448 38 447
3 450 449 444
3 444 124 450
3 449 122 444
3 450 37 449
3 453 451 452
3 452 126 453
3 451 123 452
3 453 125 451
3 447 454 452
3 452 123 447
3 454 126 452
3 447 38 454
3 455 446 451
3 451 125 455
3 446 123 451
3 455 39 446
3 457 456 453
3 453 126 457
3 456 125 453
3 457 9 456
3 460 458 459
3 459 128 460
3 458 122 459
3 460 127 458
3 449 461 459
3 459 122 449
3 461 128 459
3 449 37 461
3 462 448 458
3 458 127 462
3 448 122 458
3 462 38 448
3 464 463 460
3 460 128 464
3 463 127 460
3 464 10 463
3 467 465 466
3 466 130 467
3 465 124 466
3 467 129 465
3 445 468 466
3 466 124 445
3 468 130 466
3 445 39 468
3 469 450 465
3 465 129 469
3 450 124 465
3 469 37 450
3 471 470 467
3 467 130 471
3 470 129 467
3 471 3 470
3 474 472 473
3 473 133 474
3 472 132 473
3 474 131 472
3 476 475 473
3 473 132 476
3 475 133 473
3 476 38 475
3 478 477 472
3 472 131 478
3 477 132 472
3 478 41 477
3 480 479 474
3 474 133 480
3 479 131 474
3 480 40 479
3 483 481 482
3 482 134 483
3 481 132 482
3 483 126 481
3 477 484 482
3 482 132 477
3 484 134 482
3 477 41 484
3 454 476 481
3 481 126 454
3 476 132 481
3 454 38 476
3 485 457 483
3 483 134 485
3 457 126 483
3 485 9 457
3 488 486 487
3 487 136 488
3 486 131 487
3 488 135 486
3 479 489 487
3 487 131 479
3 489 136 487
3 479 40 489
3 490 478 486
3 486 135 490
3 478 131 486
3 490 41 478
3 492 491 488
3 488 136 492
3 491 135 488
3 492 2 491
3 495 493 494
3 494 127 495
3 493 133 494
3 495 137 493
3 475 462 494
3 494 133 475
3 462 127 494
3 475 38 462
3 496 480 493
3 493 137 496
3 480 133 493
3 496 40 480
3 463 497 495
3 495 127 463
3 497 137 495
3 463 10 497
3 500 498 499
3 499 140 500
3 498 139 499
3 500 138 498
3 502 501 499
3 499 139 502
3 501 140 499
3 502 33 501
3 504 503 498
3 498 138 504
3 503 139 498
3 504 13 503
3 506 505 500
3 500 140 506
3 505 138 500
3 506 23 505
3 509 507 508
3 508 47 509
3 507 139 508
3 509 110 507
3 503 182 508
3 508 139 503
3 182 47 508
3 503 13 182
3 398 502 507
3 507 110 398
3 502 139 507
3 398 33 502
3 183 401 509
3 509 47 183
3 401 110 509
3 183 8 401
3 512 510 511
3 511 79 512
3 510 138 511
3 512 46 510
3 505 294 511
3 511 138 505
3 294 79 511
3 505 23 294
3 174 504 510
3 510 46 174
3 504 138 510
3 174 13 504
3 295 177 512
3 512 79 295
3 177 46 512
3 295 4 177
3 515 513 514
3 514 111 515
3 513 140 514
3 515 78 513
3 501 406 514
3 514 140 501
3 406 111 514
3 501 33 406
3 286 506 513
3 513 78 286
3 506 140 513
3 286 23 506
3 407 289 515
3 515 111 407
3 289 78 515
3 407 0 289
3 518 516 517
3 517 143 518
3 516 142 517
3 518 141 516
3 520 519 517
3 517 142 520
3 519 143 517
3 520 19 519
3 522 521 516
3 516 141 522
3 521 142 516
3 522 32 521
3 524 523 518
3 518 143 524
3 523 141 518
3 524 26 523
3 527 525 526
3 526 113 527
3 525 142 526
3 527 66 525
3 521 413 526
3 526 142 521
3 413 113 526
3 521 32 413
3 244 520 525
3 525 66 244
3 520 142 525
3 244 19 520
3 414 247 527
3 527 113 414
3 247 66 527
3 414 11 247
3 530 528 529
3 529 86 530
3 528 141 529
3 530 112 528
3 523 316 529
3 529 141 523
3 316 86 529
3 523 26 316
3 405 522 528
3 528 112 405
3 522 141 528
3 405 32 522
3 317 408 530
3 530 86 317
3 408 112 530
3 317 0 408
3 533 531 532
3 532 61 533
3 531 143 532
3 533 89 531
3 519 231 532
3 532 143 519
3 231 61 532
3 519 19 231
3 326 524 531
3 531 89 326
3 524 143 531
3 326 26 524
3 232 329 533
3 533 61 232
3 329 89 533
3 232 5 329
3 536 534 535
3 535 146 536
3 534 145 535
3 536 144 534
3 538 537 535
3 535 145 538
3 537 146 535
3 538 22 537
3 540 539 534
3 534 144 540
3 539 145 534
3 540 16 539
3 542 541 536
3 536 146 542
3 541 144 536
3 542 39 541
3 545 543 544
3 544 54 545
3 543 145 544
3 545 80 543
3 539 204 544
3 544 145 539
3 204 54 544
3 539 16 204
3 293 538 543
3 543 80 293
3 538 145 543
3 293 22 538
3 205 296 545
3 545 54 205
3 296 80 545
3 205 4 296
3 548 546 547
3 547 125 548
3 546 144 547
3 548 57 546
3 541 455 547
3 547 144 541
3 455 125 547
3 541 39 455
3 214 540 546
3 546 57 214
3 540 144 546
3 214 16 540
3 456 217 548
3 548 125 456
3 217 57 548
3 456 9 217
3 551 549 550
3 550 81 551
3 549 146 550
3 551 130 549
3 537 301 550
3 550 146 537
3 301 81 550
3 537 22 301
3 468 542 549
3 549 130 468
3 542 146 549
3 468 39 542
3 302 471 551
3 551 81 302
3 471 130 551
3 302 3 471
3 554 552 553
3 553 149 554
3 552 148 553
3 554 147 552
3 556 555 553
3 553 148 556
3 555 149 553
3 556 21 555
3 558 557 552
3 552 147 558
3 557 148 552
3 558 25 557
3 560 559 554
3 554 149 560
3 559 147 554
3 560 37 559
3 563 561 562
3 562 88 563
3 561 148 562
3 563 70 561
3 557 327 562
3 562 148 557
3 327 88 562
3 557 25 327
3 260 556 561
3 561 70 260
3 556 148 561
3 260 21 556
3 328 261 563
3 563 88 328
3 261 70 563
3 328 5 261
3 566 564 565
3 565 129 566
3 564 147 565
3 566 87 564
3 559 469 565
3 565 147 559
3 469 129 565
3 559 37 469
3 321 558 564
3 564 87 321
3 558 147 564
3 321 25 558
3 470 322 566
3 566 129 470
3 322 87 566
3 470 3 322
3 569 567 568
3 568 71 569
3 567 149 568
3 569 128 567
3 555 266 568
3 568 149 555
3 266 71 568
3 555 21 266
3 461 560 567
3 567 128 461
3 560 149 567
3 461 37 560
3 267 464 569
3 569 71 267
3 464 128 569
3 267 10 464
3 572 570 571
3 571 152 572
3 570 151 571
3 572 150 570
3 574 573 571
3 571 151 574
3 573 152 571
3 574 27 573
3 576 575 570
3 570 150 576
3 575 151 570
3 576 12 575
3 578 577 572
3 572 152 578
3 577 150 572
3 578 36 577
3 581 579 580
3 580 49 581
3 579 151 580
3 581 96 579
3 575 189 580
3 580 151 575
3 189 49 580
3 575 12 189
3 349 574 579
3 579 96 349
3 574 151 579
3 349 27 574
3 190 352 581
3 581 49 190
3 352 96 581
3 190 7 352
3 584 582 583
3 583 118 584
3 582 150 583
3 584 48 582
3 577 428 583
3 583 150 577
3 428 118 583
3 577 36 428
3 181 576 582
3 582 48 181
3 576 150 582
3 181 12 576
3 429 184 584
3 584 118 429
3 184 48 584
3 429 8 184
3 587 585 586
3 586 97 587
3 585 152 586
3 587 121 585
3 573 357 586
3 586 152 573
3 357 97 586
3 573 27 357
3 438 578 585
3 585 121 438
3 578 152 585
3 438 36 578
3 358 441 587
3 587 97 358
3 441 121 587
3 358 1 441
3 590 588 589
3 589 155 590
3 588 154 589
3 590 153 588
3 592 591 589
3 589 154 592
3 591 155 589
3 592 17 591
3 594 593 588
3 588 153 594
3 593 154 588
3 594 30 593
3 596 595 590
3 590 155 596
3 595 153 590
3 596 35 595
3 599 597 598
3 598 104 599
3 597 154 598
3 599 64 597
3 593 383 598
3 598 154 593
3 383 104 598
3 593 30 383
3 237 592 597
3 597 64 237
3 592 154 597
3 237 17 592
3 384 240 599
3 599 104 384
3 240 64 599
3 384 6 240
3 602 600 601
3 601 120 602
3 600 153 601
3 602 103 600
3 595 439 601
3 601 153 595
3 439 120 601
3 595 35 439
3 377 594 600
3 600 103 377
3 594 153 600
3 377 30 594
3 440 378 602
3 602 120 440
3 378 103 602
3 440 1 378
3 605 603 604
3 604 65 605
3 603 155 604
3 605 119 603
3 591 245 604
3 604 155 591
3 245 65 604
3 591 17 245
3 433 596 603
3 603 119 433
3 596 155 603
3 433 35 596
3 246 434 605
3 605 65 246
3 434 119 605
3 246 11 434
3 608 606 607
3 607 158 608
3 606 157 607
3 608 156 606
3 610 609 607
3 607 157 610
3 609 158 607
3 610 15 609
3 612 611 606
3 606 156 612
3 611 157 606
3 612 28 611
3 614 613 608
3 608 158 614
3 613 156 608
3 614 41 613
3 617 615 616
3 616 95 617
3 615 157 616
3 617 55 615
3 611 350 616
3 616 157 611
3 350 95 616
3 611 28 350
3 209 610 615
3 615 55 209
3 610 157 615
3 209 15 610
3 351 210 617
3 617 95 351
3 210 55 617
3 351 7 210
3 620 618 619
3 619 135 620
3 618 156 619
3 620 94 618
3 613 490 619
3 619 156 613
3 490 135 619
3 613 41 490
3 342 612 618
3 618 94 342
3 612 156 618
3 342 28 612
3 491 345 620
3 620 135 491
3 345 94 620
3 491 2 345
3 623 621 622
3 622 56 623
3 621 158 622
3 623 134 621
3 609 215 622
3 622 158 609
3 215 56 622
3 609 15 215
3 484 614 621
3 621 134 484
3 614 158 621
3 484 41 614
3 216 485 623
3 623 56 216
3 485 134 623
3 216 9 485
3 626 624 625
3 625 161 626
3 624 160 625
3 626 159 624
3 628 627 625
3 625 160 628
3 627 161 625
3 628 31 627
3 630 629 624
3 624 159 630
3 629 160 624
3 630 20 629
3 632 631 626
3 626 161 632
3 631 159 626
3 632 40 631
3 635 633 634
3 634 73 635
3 633 160 634
3 635 105 633
3 629 272 634
3 634 160 629
3 272 73 634
3 629 20 272
3 382 628 633
3 633 105 382
3 628 160 633
3 382 31 628
3 273 385 635
3 635 73 273
3 385 105 635
3 273 6 385
3 638 636 637
3 637 137 638
3 636 159 637
3 638 72 636
3 631 496 637
3 637 159 631
3 496 137 637
3 631 40 496
3 265 630 636
3 636 72 265
3 630 159 636
3 265 20 630
3 497 268 638
3 638 137 497
3 268 72 638
3 497 10 268
3 641 639 640
3 640 102 641
3 639 161 640
3 641 136 639
3 627 372 640
3 640 161 627
3 372 102 640
3 627 31 372
3 489 632 639
3 639 136 489
3 632 161 639
3 489 40 632
3 373 492 641
3 641 102 373
3 492 136 641
3 373 2 492
