# vtk DataFile Version 3.0
this file was written using fslvtkio
ASCII
DATASET POLYDATA
POINTS 732 float
135.978 123.432 80.2888
134.859 121.966 80.4165
135.964 121.966 80.2362
137.105 122.225 80.4363
137.393 123.853 80.6319
138.512 122.613 80.8548
138.727 124.079 81.3551
139.763 123.521 81.6884
135.142 124.255 80.5433
133.993 123.729 80.4129
136.592 125.234 81.1227
138.093 125.248 81.6464
139.833 124.83 82.4607
134.215 125.676 80.6883
132.542 125.502 81.433
133.112 124.444 80.9594
135.553 126.026 80.8968
136.579 126.514 81.9633
137.574 126.097 82.571
138.983 125.728 82.7244
133.721 126.7 81.4748
132.442 126.518 82.2471
135.238 127.095 81.7999
136.262 127.205 83.0741
136.874 126.433 83.9974
138.391 126.163 83.4688
133.689 127.115 82.8377
134.952 127.253 83.4139
136.371 120.541 80.7245
134.781 120.143 81.2696
135.562 119.123 81.5975
137.267 119.278 81.2033
138.099 121.173 80.7467
138.899 119.996 81.1468
139.751 122.03 81.4134
140.253 120.609 81.718
141.143 122.255 82.252
141.658 121.125 82.3712
133.973 121.411 81.0381
132.506 121.151 82.1383
133.325 120.114 82.0506
141.1 123.736 82.6654
142.217 122.609 83.4449
132.38 122.346 81.8477
131.036 122.656 82.962
131.386 121.295 83.0098
133.248 122.973 80.9399
140.873 124.925 83.4413
141.656 124.08 83.8401
131.898 123.939 81.901
130.764 124.104 83.2654
141.286 125.327 84.7872
139.842 125.647 83.9719
131.485 125.376 82.5185
130.561 125.508 83.6522
135.79 126.83 84.1957
135.547 126.241 85.4956
134.765 127.108 84.6375
137.234 126.192 85.3824
138.525 126.118 84.636
131.99 126.787 83.4838
133.405 126.963 84.3363
140.384 117.975 81.721
138.923 117.025 81.724
139.83 116.349 82.0911
141.227 116.704 82.225
142.013 118.199 82.1501
142.649 117.095 82.5052
134.37 117.574 82.8307
133.25 116.778 83.5961
134.354 116.569 83.4008
135.485 116.513 82.978
136.299 117.858 81.899
137.213 116.665 82.068
138.342 118.264 81.516
139.854 119.209 81.5052
141.564 119.54 81.9991
143.23 118.26 82.8365
142.995 119.432 82.8675
144.243 118.682 83.6339
132.448 118.312 83.2457
131.097 117.823 84.2807
132.026 117.325 83.7099
134 118.836 82.3705
142.877 120.874 83.2165
143.948 120.235 84.035
130.633 119.439 84.0064
129.333 119.553 85.0777
129.887 118.775 84.5733
131.899 119.862 83.0581
142.713 122.466 84.4472
143.282 121.483 84.6283
130.078 121.284 84.1808
128.848 121.241 85.3464
142.383 122.657 85.6628
141.961 123.841 85.0747
128.957 122.87 85.2151
127.839 123.194 86.6549
127.898 121.982 86.3092
129.993 123.042 84.1212
140.941 124.936 86.1334
139.868 125.772 85.4524
128.71 124.467 85.9869
129.664 124.468 84.7427
129.448 125.757 85.8217
134.169 126.498 85.4498
133.755 125.902 86.2811
132.963 126.567 85.572
135.155 125.474 86.7667
136.653 125.741 86.4198
138.317 125.943 86.1039
130.458 126.233 84.7683
131.812 126.653 85.0951
138.046 114.542 82.7566
136.654 114.099 83.9359
137.788 113.927 83.6694
138.978 113.897 83.2972
140.126 115.085 82.4335
140.839 114.212 82.9574
142.117 115.74 82.5788
142.586 114.666 83.0944
143.657 116.04 83.4333
144.145 115.251 84.0598
134.288 115.364 83.7993
132.779 114.927 84.6873
133.912 114.509 84.682
135.052 114.357 84.2895
136.468 115.211 83.0492
138.182 115.715 82.338
143.794 117.131 83.1776
144.823 117.376 84.2591
131.989 116.303 84.4718
130.662 116.192 85.3919
131.682 115.479 85.0143
144.878 119.078 84.9525
129.771 117.979 85.3298
128.199 118.044 86.6124
129.105 116.854 86.0226
143.924 120.504 85.1936
128.129 119.026 86.0943
126.945 120.144 87.1393
127.064 119.098 87.5996
143.016 121.553 85.9945
127.91 120.608 86.2689
126.669 121.747 87.7308
141.755 122.296 86.9458
141.658 123.678 86.4669
126.971 123.184 88.1834
136.259 124.727 87.2206
135.215 123.756 87.7507
134.955 124.774 87.3506
137.868 125.124 87.0476
137.098 123.953 87.6005
139.499 125.468 86.6949
139.084 124.44 87.2246
140.413 123.994 87.0926
127.995 124.289 87.2095
130.702 126.174 86.4055
129.522 125.362 87.2508
132.114 126.25 86.2953
131.781 125.557 87.0041
133.655 125.105 87.1075
137.527 113.202 84.4136
136.035 112.558 85.6116
137.381 112.415 85.0462
138.653 112.316 84.6503
139.568 113.181 83.8088
140.644 112.474 84.2329
141.475 113.326 83.717
142.936 112.542 84.268
143.216 113.804 83.8526
144.329 113.901 84.6813
133.793 113.721 85.5736
132.012 113.804 86.1761
132.537 112.856 86.6232
134.212 112.505 86.41
135.58 113.43 85.1411
144.93 115.36 84.9527
131.512 114.735 85.7037
129.683 114.757 87.0181
130.609 114.072 86.8213
145.262 116.6 85.3903
145.324 117.873 85.622
145.612 116.66 86.8198
129.63 115.715 86.4213
128.064 116.655 87.195
128.359 115.641 87.9906
144.963 119.085 86.1384
145.238 117.969 87.0561
127.374 118.079 88.2184
144.379 119.297 87.1963
143.9 120.216 86.2526
126.689 120.468 88.4744
126.843 119.336 89.1608
142.867 121.129 87.1914
126.682 121.983 89.0537
137.772 123.103 87.8033
136.569 121.633 88.481
136.437 122.615 87.988
139.217 123.117 87.6934
138.243 122.259 88.2764
140.662 122.861 87.2375
139.988 121.897 88.0057
141.434 121.331 87.6695
127.578 123.326 89.2443
131.033 124.647 87.6506
130.442 123.848 88.8036
129.634 124.493 88.1929
132.589 124.462 87.7784
131.733 123.603 88.7682
133.982 124.189 87.7148
133.288 123.239 88.45
134.987 122.749 88.1496
128.187 124.331 88.3274
137.364 111.628 85.7633
136.117 111.058 86.9275
137.291 110.891 86.3705
138.48 110.771 85.9644
139.488 111.581 85.3036
140.47 110.732 85.4615
141.487 111.58 84.8094
142.687 110.869 85.5801
142.748 111.648 84.93
143.75 111.937 85.4343
135.368 111.938 86.699
133.609 111.62 87.6045
134.937 111.461 87.4272
144.713 113.091 85.3876
145.461 114.316 85.921
145.739 113.454 87.0689
131.104 113.387 87.2017
129.748 113.907 88.3149
130.549 112.38 88.1281
132.376 111.983 87.3297
145.528 115.559 86.2124
145.724 114.984 87.5439
128.843 114.939 88.9704
145.352 116.669 88.0251
127.779 117.038 88.9079
128.359 116.323 89.7034
144.424 118.074 88.0684
127.62 118.416 89.85
143.984 119.259 87.9809
143.184 120.046 87.757
126.854 120.662 89.8127
127.526 119.515 90.3626
140.477 120.862 88.6635
139.141 119.811 89.3056
139.134 121.162 88.9829
141.977 120.536 88.1087
141.098 119.927 88.8896
127.908 121.59 89.983
128.512 122.517 89.5862
130.423 122.636 89.3166
129.48 121.477 89.7454
132.238 122.295 89.1655
131.215 121.248 89.5119
133.889 122.068 88.8441
132.79 121.076 89.7243
135.361 121.852 88.4977
134.526 121.136 89.5209
136.127 120.819 89.2245
137.891 121.424 88.8481
129.066 123.605 89.1699
137.238 110.136 87.0023
136.367 109.775 87.9083
137.514 109.247 87.4492
138.641 109.275 87.1649
139.353 109.969 86.3292
140.449 109.1 86.6024
141.343 109.884 85.8018
142.318 109.066 86.4239
142.651 109.906 85.9961
143.848 109.986 86.4551
134.627 110.932 87.9525
133.793 110.594 88.7008
135.043 110.259 88.4062
144.464 111.177 86.5273
145.067 112.298 86.5059
145.587 112.027 87.9559
131.684 111.411 88.4934
131.377 111.234 90.1118
132.443 110.695 89.0037
145.941 113.743 88.5387
129.722 113.078 89.6057
130.243 112.062 89.9375
145.389 115.488 89.0332
129.447 114.554 90.3344
129.98 113.762 91.0363
144.55 117.047 89.1275
128.413 117.575 90.6715
129.353 116.14 90.9758
143.651 118.847 88.7172
143.633 118.009 89.3478
142.729 118.327 89.7541
129.187 119.234 90.8534
129.958 117.817 91.3263
142.364 119.479 88.9287
141.456 118.554 89.8744
140.719 119.051 89.5558
128.464 120.565 90.4956
130.028 120.511 90.2494
130.834 118.98 90.786
131.382 120.016 90.2456
133.294 120.017 90.1742
132.215 118.997 90.7267
135.035 119.992 89.7382
133.905 118.918 90.3865
136.69 120.023 89.4094
135.419 118.961 90.1456
137.958 120.173 89.3935
137.164 119.123 89.9932
139.062 119.017 89.8454
140.09 107.42 87.789
139.251 106.811 88.3983
140.412 106.504 88.2926
141.523 106.582 88.0833
142.325 107.492 87.5023
142.902 106.748 88.1194
138.014 108.317 87.8944
136.663 108.321 88.8599
137.742 107.317 88.7827
139.728 108.441 87.1991
141.62 108.257 87.0625
143.613 107.707 87.7251
143.716 108.76 87.0289
144.761 108.253 88.1473
145.205 109.503 88.0636
145.512 109.069 89.434
135.64 109.47 88.7706
134.235 109.194 89.2996
135.333 108.452 89.5551
145.049 110.498 87.4966
145.606 110.8 89.1225
133.245 110.095 89.3638
132.333 110.067 90.3786
133.277 109.31 89.8695
145.591 112.46 89.5066
132.596 111.305 91.22
131.8 112.004 91.4116
133.357 112.294 91.9456
145.422 114.371 89.938
130.889 112.45 91.4255
132.26 112.88 92.144
144.418 115.979 90.2218
130.519 115.579 91.8221
130.848 113.94 91.9078
143.454 117.179 90.0286
143.422 116.643 90.609
142.302 116.838 90.8957
131.058 117.102 91.6996
131.896 115.718 92.0946
132.647 116.887 91.6587
134.763 117.139 91.264
133.587 116.52 92.379
136.599 117.113 90.8094
135.389 116.499 91.965
138.462 117.215 90.7045
137.276 116.404 91.5282
140.093 117.431 90.6922
139.075 116.561 91.3733
141.695 117.821 90.495
140.829 116.792 91.2255
131.475 118.262 91.1697
132.666 118.067 91.1574
134.292 117.974 90.7439
135.96 117.961 90.449
137.745 118.118 90.1839
139.672 118.117 90.2527
140.839 105.564 88.7406
139.18 105.288 89.2493
140.155 104.517 89.3676
141.765 104.375 88.9972
142.877 105.827 88.704
143.564 104.522 89.2717
144.48 106.194 89.1356
144.658 105.308 89.7787
136.542 106.257 89.9685
135.538 105.551 90.5649
136.629 105.398 90.4313
137.692 105.316 89.9846
138.416 106.249 89.0912
144.185 106.983 88.4903
145.203 106.763 89.8248
145.149 107.709 89.327
145.426 107.671 90.656
134.792 106.937 90.2651
133.016 107.557 90.911
133.833 106.312 90.8916
136.04 107.373 89.7165
145.619 109.655 90.626
133.87 108.452 90.0803
133.071 108.984 91.2625
145.531 111.348 90.6881
133.24 110.177 91.5025
132.574 110.619 91.3712
133.992 111.172 91.7872
144.953 113.019 90.8036
134.034 113.575 92.1722
134.956 112.253 92.1711
135.888 113.167 92.4296
144.272 114.713 90.8901
132.268 113.853 92.3427
134.574 114.57 92.2973
135.946 114.024 92.4415
143.271 115.957 91.0331
143.4 115.053 91.6377
142.433 115.543 91.8537
132.5 115.09 92.4253
134.225 115.373 92.2129
136.389 114.637 92.1757
136.183 115.358 91.8477
138.269 115.57 91.6539
137.969 114.702 92.072
140.028 115.844 91.6511
139.658 115.028 92.2665
141.729 116.11 91.6675
141.198 115.28 92.2794
138.468 103.337 90.589
137.459 102.749 91.3643
138.561 102.346 90.9982
139.721 102.277 90.6408
140.364 103.485 89.904
141.527 102.228 90.3563
142.256 103.428 89.8386
143.223 102.476 90.4951
143.672 103.495 90.1158
144.474 103.559 91.5822
136.797 104.45 90.8819
134.771 104.467 91.5463
136.039 103.558 91.6572
138.691 104.352 89.9721
144.663 104.693 90.6853
145.344 106.135 90.5456
145.03 106.188 91.4816
134.295 105.234 91.2316
132.591 106.292 91.7028
132.682 105.064 91.9512
145.061 108.191 91.8783
133.1 107.659 92.4374
145.04 109.96 91.9948
133.976 108.82 92.5618
134.389 109.947 92.2454
135.732 110.29 92.7525
135.48 109.244 93.1778
136.794 110.07 93.4755
144.901 111.684 91.9307
135.32 111.18 92.2401
136.594 111.252 92.9408
144.148 112.937 91.9287
143.906 111.812 92.8674
143.385 112.623 92.884
137.668 113.28 92.8922
136.738 112.318 92.9546
139.394 113.398 93.1569
138.31 112.34 93.3484
139.894 112.312 93.3647
142.727 113.799 92.7207
142.421 112.418 93.4376
141.733 113.197 93.116
143.798 114.062 91.6666
137.472 114.154 92.5544
139.007 114.226 92.8235
140.645 113.141 93.2769
140.838 114.259 92.8093
142.378 114.815 92.3728
138.791 101.413 91.4319
137.089 101.387 92.144
138.366 100.306 92.1247
140.104 100.079 91.889
140.763 101.126 91.0968
142.045 100.223 92.0003
142.597 101.274 90.9079
143.491 100.958 91.9515
143.968 102.052 91.3023
144.061 102.471 92.6861
133.665 102.861 92.5634
132.513 102.376 92.9197
133.941 101.973 92.9821
135.32 101.807 92.858
136.096 102.518 92.0942
144.344 104.057 93.423
131.805 104.25 92.3856
130.219 104.511 93.7817
130.815 103.056 93.2522
134.146 103.749 92.109
144.695 105.046 92.3506
144.669 106.508 92.6146
131.221 105.505 93.5836
132.576 106.242 93.3457
144.457 107.652 92.9459
144.522 106.828 93.4809
143.989 107.261 94.1705
133.957 106.968 93.3978
134.773 108.123 93.4223
136.581 108.792 93.8376
135.571 107.277 93.9752
138.204 108.918 94.4189
137.137 107.448 94.381
138.527 107.718 94.7791
144.339 108.964 93.1675
143.368 108.496 94.2777
138.201 110.189 93.8478
139.45 108.707 94.6636
139.834 109.856 94.3183
141.626 110.019 94.6599
140.646 108.741 94.9829
143.166 109.93 94.1082
142.207 108.848 95.0364
144.145 110.621 93.1939
137.95 111.36 93.4365
139.506 111.312 93.6852
140.968 110.805 94.1152
142.785 111.329 93.9857
141.22 111.93 93.8272
136.684 99.5446 93.1978
135.574 99.166 93.785
136.942 98.4436 93.4808
138.403 98.259 93.3504
139.119 99.123 92.6626
140.668 97.8023 93.4064
141.182 98.9628 92.4312
142.284 98.099 93.5521
142.834 99.2635 92.855
143.218 99.4704 94.4627
134.22 100.949 93.3337
132.662 100.627 93.9744
134.24 100.03 93.977
136.789 100.438 92.6089
143.565 100.724 93.3103
143.783 102.595 94.0796
131.391 101.774 93.5611
130.228 102.908 95.1
130.909 101.365 94.0491
143.63 103.793 94.7279
130.883 104.36 95.2773
144.324 105.764 93.9326
143.497 104.97 94.8453
131.196 105.277 94.7083
134.347 106.291 94.388
132.701 105.703 94.8447
136.212 106.295 94.8195
134.839 105.397 95.3747
138.175 106.461 94.9667
136.777 105.088 95.518
139.937 106.515 95.8196
138.661 105.177 95.574
141.614 106.618 95.9176
140.433 105.211 96.1746
143.187 106.422 95.2065
142.112 105.269 95.8721
139.663 107.442 95.2364
141.211 107.675 95.5202
142.739 107.555 95.1406
137.099 97.4111 93.9365
135.429 97.4448 94.5338
136.718 96.4688 94.4893
138.272 95.9654 94.5792
139.29 97.0012 93.9682
140.194 96.3107 94.9742
141.207 97.0238 94.4904
141.641 97.1983 96.1972
134.196 99.1283 94.3939
132.751 99.0595 94.8051
134.115 98.0511 94.7099
142.418 97.9455 95.1734
142.798 99.6124 95.9271
129.484 101.139 94.8251
128.724 100.352 96.31
129.51 99.7943 95.0437
130.912 99.3994 94.9052
131.047 100.678 94.2921
143.47 101.305 94.7533
142.819 101.22 95.8101
129.033 102.066 95.9003
132.053 103.705 96.0712
130.787 102.455 96.6132
134.246 103.237 96.0613
132.848 102.348 96.494
134.743 102.287 96.857
142.948 102.948 95.4238
142.107 102.778 96.3429
132.334 104.824 95.5562
133.912 104.549 95.6819
135.813 102.912 96.5567
136.073 103.891 95.9922
137.979 103.991 96.2334
137.501 102.922 96.9121
139.714 104.117 96.493
139.116 103.072 96.8565
141.557 104.072 96.2625
140.727 103.117 96.7564
142.843 104.34 95.5402
135.988 95.7966 95.2638
134.615 95.4052 95.8084
135.255 94.4577 96.919
136.705 94.8865 96.3696
137.955 95.2247 95.642
138.582 95.22 97.0652
134.128 97.027 95.1798
132.905 96.6142 96.1083
133.868 96.0989 96.0536
139.881 95.8135 96.1429
140.879 96.9456 97.4514
130.195 98.6087 95.6633
128.679 98.8736 96.4862
129.725 97.8051 96.0595
131.03 97.2353 96.0856
132.28 97.9988 95.4234
142.078 99.0787 96.9158
141.284 98.7514 97.9683
129.292 100.079 97.5982
129.422 101.539 97.0434
130.671 101.084 97.4473
131.159 99.9965 98.1278
132.432 100.264 97.8246
140.89 100.751 97.7184
140.31 99.9063 98.2156
138.966 100.663 98.1356
142.195 100.626 96.7976
132.434 101.445 97.2117
136.64 102.031 97.34
134.543 101.438 97.6245
138.833 101.829 97.5702
136.911 101.044 97.8601
140.278 102.187 97.2892
141.573 101.844 96.915
133.6 94.986 96.8741
132.449 94.6547 97.2982
133.505 94.3222 98.2625
135.703 94.53 98.3632
137.35 94.9202 97.9258
138.621 95.8499 99.0421
129.823 96.8678 96.6676
128.708 96.2633 97.2996
129.844 95.7283 97.4585
130.963 95.4217 97.3709
131.904 95.9012 96.7083
139.686 96.2625 98.0649
140.228 97.7802 98.7891
128.004 97.711 96.711
126.474 97.5849 97.7552
127.419 96.6996 97.1877
139.573 99.14 98.6244
139.376 98.3654 99.3159
138.26 98.7626 99.3972
127.78 99.1698 97.5488
129.151 99.0285 98.282
130.82 99.039 98.5632
133.846 100.433 98.2364
132.866 99.1552 98.7634
135.804 100.403 98.5927
134.703 99.336 99.0862
137.794 99.9694 98.7751
136.517 99.2162 99.3563
129.706 94.5842 98.1936
128.271 94.2495 98.3044
129.228 93.531 99.2649
131.412 93.9368 98.8135
131.545 94.5182 97.9365
133.412 94.2042 99.537
135.109 94.4594 99.4003
136.984 94.9149 99.2726
137.589 95.6074 100.275
125.881 95.9646 97.9758
124.556 94.8258 98.5425
125.617 94.608 98.361
126.735 94.4081 98.2478
127.649 95.7707 97.8167
139.084 97.3648 99.8106
137.944 96.8846 100.65
124.956 96.5953 98.8041
128.176 98.2122 98.5906
126.77 97.2891 99.0995
130.063 98.1286 99.1496
128.769 97.3435 99.5532
131.938 98.2496 99.4531
130.773 97.4825 100.15
133.792 98.4779 99.9623
132.5 97.6272 100.517
135.538 98.4011 100.159
134.05 97.5782 101.044
137.274 98.0802 100.114
135.995 97.504 100.9
125.345 93.2745 98.9555
123.436 92.3498 100.218
125.538 92.3793 100.57
127.049 93.0092 99.9581
127.382 93.3876 98.9061
129.337 93.3546 100.475
130.887 93.7936 100.054
132.522 94.032 100.609
134.615 94.3145 100.664
136.155 95.0688 100.692
135.11 95.1498 101.677
123.571 93.5021 99.1053
122.373 94.3148 99.4841
121.744 92.8062 100.244
135.243 96.5215 101.747
134.007 95.7481 102.382
133.51 96.7372 101.927
136.839 96.3493 101.217
123.585 95.3579 99.4411
124.821 96.0283 100.135
126.299 96.4595 100.02
128.081 96.6939 100.305
129.935 96.879 100.703
131.813 97.1617 101.691
123.97 92.49 101.553
125.789 93.0715 101.982
127.153 93.1788 101.56
128.752 93.3903 101.499
130.652 93.7805 101.415
132.326 94.3938 101.91
131.044 94.8513 102.796
133.625 94.4846 101.839
122.275 94.3559 100.979
122.847 93.2847 101.735
132.54 95.8468 102.602
130.854 96.2619 102.462
123.96 95.0605 100.977
125.721 95.7011 100.996
127.417 96.0422 101.289
129.291 96.3863 101.769
124.522 93.8418 102.336
126.39 94.133 102.448
128.07 94.3675 102.602
129.561 94.2524 102.438
124.431 94.7443 101.625
126.066 95.2176 101.884
127.829 95.5742 102.371
129.361 95.5282 103.123
POLYGONS 1460  5840
3 0 1 2
3 0 3 4
3 2 3 0
3 4 5 6
3 3 5 4
3 5 7 6
3 8 1 0
3 9 1 8
3 4 10 0
3 10 8 0
3 6 11 4
3 11 10 4
3 12 6 7
3 11 6 12
3 13 14 15
3 9 13 15
3 9 8 13
3 8 16 13
3 10 17 8
3 17 16 8
3 11 18 10
3 18 17 10
3 19 11 12
3 18 11 19
3 20 14 13
3 21 14 20
3 16 22 13
3 22 20 13
3 23 17 24
3 23 22 17
3 22 16 17
3 18 24 17
3 25 24 18
3 19 25 18
3 20 26 21
3 22 26 20
3 27 26 22
3 23 27 22
3 28 29 30
3 28 31 32
3 30 31 28
3 32 33 34
3 31 33 32
3 34 35 36
3 33 35 34
3 35 37 36
3 38 39 40
3 29 38 40
3 28 38 29
3 28 1 38
3 28 2 1
3 3 2 28
3 32 3 28
3 5 3 32
3 34 5 32
3 7 5 34
3 7 34 41
3 41 34 36
3 42 36 37
3 41 36 42
3 43 44 45
3 39 43 45
3 39 38 43
3 38 46 43
3 1 9 46
3 38 1 46
3 41 47 12
3 7 41 12
3 48 41 42
3 47 41 48
3 49 44 43
3 50 44 49
3 15 14 49
3 15 49 46
3 46 49 43
3 9 15 46
3 47 51 52
3 47 52 12
3 12 52 19
3 48 51 47
3 53 50 49
3 54 50 53
3 14 21 53
3 49 14 53
3 55 56 57
3 55 23 24
3 55 24 56
3 56 24 58
3 25 59 24
3 24 59 58
3 52 25 19
3 59 25 52
3 53 60 54
3 21 60 53
3 21 26 60
3 26 61 60
3 57 27 55
3 57 61 27
3 61 26 27
3 23 55 27
3 62 63 64
3 62 65 66
3 64 65 62
3 65 67 66
3 68 69 70
3 68 71 72
3 70 71 68
3 72 73 74
3 71 73 72
3 63 74 73
3 63 62 74
3 62 75 74
3 66 76 62
3 76 75 62
3 77 66 67
3 77 78 66
3 78 76 66
3 77 79 78
3 80 81 82
3 69 80 82
3 69 68 80
3 68 83 80
3 30 29 83
3 30 83 72
3 72 83 68
3 31 30 72
3 74 31 72
3 33 31 74
3 75 33 74
3 35 33 75
3 76 35 75
3 37 35 76
3 37 76 84
3 84 76 78
3 85 78 79
3 84 78 85
3 86 87 88
3 81 86 88
3 81 80 86
3 80 89 86
3 40 39 89
3 40 89 83
3 83 89 80
3 29 40 83
3 84 90 42
3 37 84 42
3 91 84 85
3 90 84 91
3 92 87 86
3 93 87 92
3 45 44 92
3 45 92 89
3 89 92 86
3 39 45 89
3 90 94 95
3 90 95 42
3 42 95 48
3 91 94 90
3 96 97 98
3 93 96 98
3 93 92 96
3 92 99 96
3 44 50 99
3 92 44 99
3 51 100 101
3 52 51 101
3 95 51 48
3 100 51 95
3 96 102 97
3 102 103 104
3 102 96 103
3 96 99 103
3 50 54 103
3 99 50 103
3 105 106 107
3 105 57 56
3 105 56 106
3 106 56 108
3 58 109 56
3 56 109 108
3 59 110 58
3 58 110 109
3 101 59 52
3 110 59 101
3 103 111 104
3 54 111 103
3 54 60 111
3 60 112 111
3 107 61 105
3 107 112 61
3 112 60 61
3 57 105 61
3 113 114 115
3 113 116 117
3 115 116 113
3 117 118 119
3 116 118 117
3 119 120 121
3 118 120 119
3 120 122 121
3 123 124 125
3 123 126 127
3 125 126 123
3 114 127 126
3 114 113 127
3 113 128 127
3 64 63 128
3 64 128 117
3 117 128 113
3 65 64 117
3 119 65 117
3 67 65 119
3 67 119 129
3 129 119 121
3 130 121 122
3 129 121 130
3 131 132 133
3 124 131 133
3 123 131 124
3 123 69 131
3 123 70 69
3 71 70 123
3 127 71 123
3 73 71 127
3 128 73 127
3 63 73 128
3 67 129 77
3 129 79 77
3 129 130 79
3 130 134 79
3 135 136 137
3 132 135 137
3 131 135 132
3 131 81 135
3 131 82 81
3 69 82 131
3 79 134 85
3 134 138 85
3 139 140 141
3 136 139 141
3 135 139 136
3 135 87 139
3 135 88 87
3 81 88 135
3 85 138 91
3 138 142 91
3 143 140 139
3 144 140 143
3 87 93 143
3 139 87 143
3 94 145 146
3 95 94 146
3 142 94 91
3 145 94 142
3 98 144 143
3 98 97 144
3 97 147 144
3 93 98 143
3 148 149 150
3 148 151 152
3 149 148 152
3 151 153 154
3 152 151 154
3 153 101 100
3 153 100 154
3 154 100 155
3 146 100 95
3 155 100 146
3 97 156 147
3 102 156 97
3 104 157 158
3 104 158 102
3 102 158 156
3 157 159 160
3 158 157 160
3 159 107 106
3 159 106 160
3 160 106 161
3 150 108 148
3 150 161 108
3 161 106 108
3 109 148 108
3 151 148 109
3 110 151 109
3 153 151 110
3 101 153 110
3 104 111 157
3 112 157 111
3 159 157 112
3 107 159 112
3 162 163 164
3 162 165 166
3 164 165 162
3 166 167 168
3 165 167 166
3 168 169 170
3 167 169 168
3 169 171 170
3 172 173 174
3 172 175 176
3 174 175 172
3 163 176 175
3 162 176 163
3 162 114 176
3 162 115 114
3 116 115 162
3 166 116 162
3 118 116 166
3 168 118 166
3 120 118 168
3 170 120 168
3 170 122 120
3 170 171 122
3 171 177 122
3 178 179 180
3 173 178 180
3 172 178 173
3 172 124 178
3 172 125 124
3 126 125 172
3 176 126 172
3 114 126 176
3 181 182 130
3 181 130 177
3 177 130 122
3 181 183 182
3 184 185 186
3 179 184 186
3 178 184 179
3 178 132 184
3 178 133 132
3 124 133 178
3 182 187 134
3 130 182 134
3 188 182 183
3 187 182 188
3 137 185 184
3 137 136 185
3 136 189 185
3 132 137 184
3 187 190 191
3 187 191 134
3 134 191 138
3 188 190 187
3 141 192 193
3 140 192 141
3 189 136 141
3 193 189 141
3 138 191 142
3 191 194 142
3 140 144 192
3 192 144 195
3 196 197 198
3 196 199 200
3 197 196 200
3 199 201 202
3 200 199 202
3 201 146 145
3 201 145 202
3 202 145 203
3 194 145 142
3 203 145 194
3 144 147 195
3 195 147 204
3 205 206 207
3 205 208 209
3 206 205 209
3 208 210 211
3 209 208 211
3 210 150 149
3 210 149 211
3 211 149 212
3 198 152 196
3 198 212 152
3 212 149 152
3 154 196 152
3 199 196 154
3 155 199 154
3 201 199 155
3 146 201 155
3 147 213 204
3 156 213 147
3 207 158 205
3 207 213 158
3 213 156 158
3 160 205 158
3 208 205 160
3 161 208 160
3 210 208 161
3 150 210 161
3 214 215 216
3 214 217 218
3 216 217 214
3 218 219 220
3 217 219 218
3 220 221 222
3 219 221 220
3 221 223 222
3 224 225 226
3 215 224 226
3 214 224 215
3 214 163 224
3 214 164 163
3 165 164 214
3 218 165 214
3 167 165 218
3 220 167 218
3 169 167 220
3 222 169 220
3 171 227 228
3 169 227 171
3 169 223 227
3 169 222 223
3 227 229 228
3 230 231 232
3 230 174 173
3 230 232 174
3 232 233 174
3 225 224 175
3 225 175 233
3 233 175 174
3 163 175 224
3 228 234 177
3 171 228 177
3 235 228 229
3 234 228 235
3 180 231 230
3 180 179 231
3 179 236 231
3 173 180 230
3 177 234 181
3 234 183 181
3 234 235 183
3 235 237 183
3 186 238 239
3 185 238 186
3 236 179 186
3 239 236 186
3 183 237 188
3 237 240 188
3 185 189 238
3 238 189 241
3 190 242 243
3 191 190 243
3 240 190 188
3 242 190 240
3 193 244 245
3 192 244 193
3 241 189 193
3 245 241 193
3 246 247 248
3 246 249 250
3 247 246 250
3 249 243 250
3 249 194 243
3 194 191 243
3 251 195 252
3 251 244 195
3 244 192 195
3 252 253 254
3 251 252 254
3 253 255 256
3 254 253 256
3 255 257 258
3 256 255 258
3 257 259 260
3 258 257 260
3 259 198 197
3 259 197 260
3 260 197 261
3 200 262 197
3 197 262 261
3 248 202 246
3 248 262 202
3 262 200 202
3 203 246 202
3 249 246 203
3 194 249 203
3 252 204 263
3 195 204 252
3 206 263 207
3 206 253 263
3 253 252 263
3 209 253 206
3 255 253 209
3 211 255 209
3 257 255 211
3 212 257 211
3 259 257 212
3 198 259 212
3 204 213 263
3 207 263 213
3 264 265 266
3 264 267 268
3 266 267 264
3 268 269 270
3 267 269 268
3 270 271 272
3 269 271 270
3 271 273 272
3 274 275 276
3 265 274 276
3 264 274 265
3 264 215 274
3 264 216 215
3 217 216 264
3 268 217 264
3 219 217 268
3 270 219 268
3 221 219 270
3 272 221 270
3 223 277 278
3 221 277 223
3 221 273 277
3 221 272 273
3 277 279 278
3 280 281 282
3 275 280 282
3 274 280 275
3 274 225 280
3 274 226 225
3 215 226 274
3 223 278 227
3 278 229 227
3 278 279 229
3 279 283 229
3 232 231 284
3 280 285 281
3 280 232 285
3 280 233 232
3 284 285 232
3 225 233 280
3 229 283 235
3 283 286 235
3 284 287 288
3 284 231 287
3 231 236 287
3 285 284 288
3 235 286 237
3 286 289 237
3 239 238 290
3 239 290 291
3 239 291 236
3 236 291 287
3 292 293 294
3 292 289 293
3 292 240 289
3 240 237 289
3 290 241 295
3 238 241 290
3 296 291 290
3 295 296 290
3 297 298 299
3 294 298 297
3 292 294 297
3 292 297 243
3 292 243 242
3 240 292 242
3 245 244 300
3 245 295 241
3 245 300 295
3 300 301 295
3 302 296 295
3 302 295 303
3 303 295 301
3 303 304 305
3 302 303 305
3 304 306 307
3 305 304 307
3 306 308 309
3 307 306 309
3 308 310 311
3 309 308 311
3 310 248 247
3 310 247 311
3 311 247 312
3 299 250 297
3 299 312 250
3 312 247 250
3 243 297 250
3 244 251 300
3 254 300 251
3 301 300 254
3 256 301 254
3 303 301 256
3 258 303 256
3 304 303 258
3 260 304 258
3 306 304 260
3 261 306 260
3 308 306 261
3 262 308 261
3 310 308 262
3 248 310 262
3 313 314 315
3 313 316 317
3 315 316 313
3 316 318 317
3 319 320 321
3 314 319 321
3 314 313 319
3 313 322 319
3 317 323 313
3 323 322 313
3 324 317 318
3 324 325 317
3 325 323 317
3 325 326 327
3 324 326 325
3 326 328 327
3 329 330 331
3 320 329 331
3 319 329 320
3 319 265 329
3 319 266 265
3 267 266 319
3 322 267 319
3 269 267 322
3 323 269 322
3 271 269 323
3 325 271 323
3 273 271 325
3 273 325 332
3 332 325 327
3 333 327 328
3 332 327 333
3 334 335 336
3 330 334 336
3 329 334 330
3 329 275 334
3 329 276 275
3 265 276 329
3 273 332 277
3 332 279 277
3 332 333 279
3 333 337 279
3 338 281 339
3 338 335 281
3 282 281 334
3 334 281 335
3 282 334 275
3 339 340 338
3 279 337 283
3 337 341 283
3 339 342 343
3 339 281 342
3 281 285 342
3 340 339 343
3 283 341 286
3 341 344 286
3 288 287 345
3 288 345 346
3 288 346 285
3 285 346 342
3 347 348 349
3 347 344 348
3 347 289 344
3 289 286 344
3 345 291 350
3 287 291 345
3 351 346 345
3 351 345 352
3 352 345 350
3 352 353 354
3 351 352 354
3 353 355 356
3 354 353 356
3 355 357 358
3 356 355 358
3 357 359 360
3 358 357 360
3 359 361 362
3 360 359 362
3 349 362 361
3 347 349 361
3 347 361 294
3 347 294 293
3 289 347 293
3 350 296 363
3 291 296 350
3 352 350 364
3 364 350 363
3 353 352 365
3 365 352 364
3 355 353 366
3 366 353 365
3 357 355 367
3 367 355 366
3 359 357 368
3 368 357 367
3 298 368 299
3 298 361 368
3 361 359 368
3 294 361 298
3 296 302 363
3 305 363 302
3 364 363 305
3 307 364 305
3 365 364 307
3 309 365 307
3 366 365 309
3 311 366 309
3 367 366 311
3 312 367 311
3 368 367 312
3 299 368 312
3 369 370 371
3 369 372 373
3 371 372 369
3 373 374 375
3 372 374 373
3 374 376 375
3 377 378 379
3 377 380 381
3 379 380 377
3 370 381 380
3 369 381 370
3 369 314 381
3 369 315 314
3 316 315 369
3 373 316 369
3 318 316 373
3 318 373 382
3 382 373 375
3 383 375 376
3 383 384 375
3 384 382 375
3 383 385 384
3 386 387 388
3 378 386 388
3 378 377 386
3 377 389 386
3 321 320 389
3 321 389 381
3 381 389 377
3 314 321 381
3 318 382 324
3 326 324 382
3 384 326 382
3 384 328 326
3 384 385 328
3 385 390 328
3 391 387 386
3 392 387 391
3 331 330 391
3 331 391 389
3 389 391 386
3 320 331 389
3 328 390 333
3 390 393 333
3 394 335 395
3 394 392 335
3 336 335 391
3 391 335 392
3 336 391 330
3 395 396 394
3 333 393 337
3 393 397 337
3 335 338 395
3 340 398 399
3 338 340 399
3 338 399 396
3 338 396 395
3 399 398 400
3 337 397 341
3 397 401 341
3 343 342 402
3 343 398 340
3 343 402 398
3 402 403 398
3 404 400 398
3 403 404 398
3 405 406 407
3 405 401 406
3 405 344 401
3 344 341 401
3 402 346 408
3 342 346 402
3 403 402 409
3 409 402 408
3 410 404 403
3 410 403 411
3 411 403 409
3 411 412 413
3 410 411 413
3 412 414 415
3 413 412 415
3 414 416 417
3 415 414 417
3 407 417 416
3 405 407 416
3 405 416 349
3 405 349 348
3 344 405 348
3 346 351 408
3 354 408 351
3 409 408 354
3 356 409 354
3 411 409 356
3 358 411 356
3 412 411 358
3 360 412 358
3 414 412 360
3 362 414 360
3 416 414 362
3 349 416 362
3 418 419 420
3 418 421 422
3 420 421 418
3 422 423 424
3 421 423 422
3 424 425 426
3 423 425 424
3 425 427 426
3 428 429 430
3 419 428 430
3 419 418 428
3 418 431 428
3 371 370 431
3 371 431 422
3 422 431 418
3 372 371 422
3 424 372 422
3 374 372 424
3 426 374 424
3 376 432 433
3 374 432 376
3 374 427 432
3 374 426 427
3 432 434 433
3 435 436 437
3 429 435 437
3 428 435 429
3 428 378 435
3 428 379 378
3 380 379 428
3 431 380 428
3 370 380 431
3 376 433 383
3 433 385 383
3 433 434 385
3 434 438 385
3 388 436 435
3 388 387 436
3 387 439 436
3 378 388 435
3 385 438 390
3 438 440 390
3 441 392 442
3 441 439 392
3 439 387 392
3 442 443 444
3 441 442 444
3 444 443 445
3 390 440 393
3 440 446 393
3 392 394 442
3 396 442 394
3 396 447 442
3 447 443 442
3 448 445 443
3 447 448 443
3 449 450 451
3 449 446 450
3 449 397 446
3 397 393 446
3 396 399 447
3 400 452 453
3 399 400 453
3 399 453 448
3 399 448 447
3 452 454 455
3 453 452 455
3 455 454 456
3 457 458 459
3 451 458 457
3 451 457 449
3 449 457 460
3 397 460 401
3 449 460 397
3 452 404 461
3 400 404 452
3 454 452 462
3 462 452 461
3 463 456 454
3 463 454 464
3 464 454 462
3 459 463 464
3 459 464 457
3 457 464 465
3 406 465 407
3 406 460 465
3 460 457 465
3 401 460 406
3 404 410 461
3 413 461 410
3 462 461 413
3 415 462 413
3 464 462 415
3 417 464 415
3 465 464 417
3 407 465 417
3 466 467 468
3 466 469 470
3 468 469 466
3 470 471 472
3 469 471 470
3 472 473 474
3 471 473 472
3 473 475 474
3 476 477 478
3 476 479 480
3 478 479 476
3 467 480 479
3 466 480 467
3 466 419 480
3 466 420 419
3 421 420 466
3 470 421 466
3 423 421 470
3 472 423 470
3 425 423 472
3 474 425 472
3 474 427 425
3 474 475 427
3 475 481 427
3 482 483 484
3 477 482 484
3 477 476 482
3 476 485 482
3 430 429 485
3 430 485 480
3 480 485 476
3 419 430 480
3 427 481 486
3 432 427 486
3 486 434 432
3 487 434 486
3 482 488 483
3 437 436 489
3 437 489 482
3 437 482 485
3 482 489 488
3 429 437 485
3 490 491 492
3 490 487 491
3 490 438 487
3 438 434 487
3 493 439 494
3 493 489 439
3 489 436 439
3 494 495 496
3 493 494 496
3 495 497 498
3 496 495 498
3 498 497 499
3 500 490 492
3 501 500 492
3 438 500 440
3 490 500 438
3 439 441 494
3 444 494 441
3 495 494 444
3 445 495 444
3 445 502 495
3 502 497 495
3 503 499 497
3 503 497 504
3 504 497 502
3 504 505 506
3 503 504 506
3 505 507 508
3 506 505 508
3 501 508 507
3 501 507 500
3 500 507 509
3 440 509 446
3 500 509 440
3 502 448 510
3 445 448 502
3 504 502 511
3 511 502 510
3 505 504 512
3 512 504 511
3 507 505 513
3 513 505 512
3 450 513 451
3 450 509 513
3 509 507 513
3 446 509 450
3 448 453 510
3 455 510 453
3 511 510 455
3 456 511 455
3 456 514 511
3 514 512 511
3 458 514 459
3 458 513 514
3 513 512 514
3 451 513 458
3 456 463 514
3 459 514 463
3 515 516 517
3 515 518 519
3 517 518 515
3 519 520 521
3 518 520 519
3 521 522 523
3 520 522 521
3 522 524 523
3 525 526 527
3 516 525 527
3 516 515 525
3 515 528 525
3 468 467 528
3 468 528 519
3 519 528 515
3 469 468 519
3 521 469 519
3 471 469 521
3 523 471 521
3 523 524 529
3 523 529 471
3 471 529 473
3 529 475 473
3 530 475 529
3 531 532 533
3 526 531 533
3 525 531 526
3 525 477 531
3 525 478 477
3 479 478 525
3 528 479 525
3 467 479 528
3 475 530 481
3 530 534 481
3 484 532 531
3 484 483 532
3 483 535 532
3 477 484 531
3 536 486 481
3 536 481 537
3 537 481 534
3 486 536 487
3 483 538 535
3 488 538 483
3 489 539 540
3 489 540 488
3 488 540 538
3 539 541 542
3 540 539 542
3 541 543 544
3 542 541 544
3 543 545 546
3 544 543 546
3 545 547 548
3 546 545 548
3 547 549 550
3 548 547 550
3 537 550 549
3 536 537 549
3 536 549 492
3 536 492 491
3 487 536 491
3 489 493 539
3 496 539 493
3 541 539 496
3 498 541 496
3 543 541 498
3 499 543 498
3 499 551 543
3 551 545 543
3 547 545 552
3 552 545 551
3 549 547 553
3 553 547 552
3 492 553 501
3 549 553 492
3 499 503 551
3 506 551 503
3 552 551 506
3 508 552 506
3 553 552 508
3 501 553 508
3 554 555 556
3 554 557 558
3 556 557 554
3 558 559 560
3 557 559 558
3 559 561 560
3 562 563 564
3 555 562 564
3 554 562 555
3 554 516 562
3 554 517 516
3 518 517 554
3 558 518 554
3 520 518 558
3 560 520 558
3 560 561 565
3 560 565 520
3 520 565 522
3 565 524 522
3 566 524 565
3 567 568 569
3 567 570 571
3 569 570 567
3 563 571 570
3 562 571 563
3 562 526 571
3 562 527 526
3 516 527 562
3 572 529 524
3 572 524 573
3 573 524 566
3 529 572 530
3 567 574 568
3 571 532 567
3 571 533 532
3 567 532 574
3 575 576 532
3 574 532 576
3 575 577 578
3 575 578 576
3 571 526 533
3 578 577 579
3 580 572 573
3 581 580 573
3 530 580 534
3 572 580 530
3 575 535 582
3 532 535 575
3 577 575 583
3 583 575 582
3 584 579 577
3 584 577 585
3 585 577 583
3 585 586 587
3 584 585 587
3 586 588 589
3 587 586 589
3 588 590 591
3 589 588 591
3 581 591 590
3 581 590 580
3 580 590 592
3 534 592 537
3 580 592 534
3 535 538 582
3 540 582 538
3 583 582 540
3 542 583 540
3 585 583 542
3 544 585 542
3 586 585 544
3 546 586 544
3 588 586 546
3 548 588 546
3 590 588 548
3 550 590 548
3 592 590 550
3 537 592 550
3 593 594 595
3 593 596 597
3 595 596 593
3 596 598 597
3 599 600 601
3 594 599 601
3 593 599 594
3 593 555 599
3 593 556 555
3 557 556 593
3 597 557 593
3 597 598 602
3 597 602 557
3 557 602 559
3 602 561 559
3 603 561 602
3 604 605 606
3 604 607 608
3 606 607 604
3 600 608 607
3 599 608 600
3 599 563 608
3 599 564 563
3 555 564 599
3 609 565 561
3 609 561 610
3 610 561 603
3 565 609 566
3 611 568 612
3 611 605 568
3 569 568 604
3 604 568 605
3 613 614 611
3 613 611 612
3 608 570 604
3 604 570 569
3 570 608 563
3 613 615 614
3 616 617 618
3 610 617 616
3 610 616 609
3 609 616 619
3 566 619 573
3 609 619 566
3 568 574 612
3 576 612 574
3 613 612 576
3 613 620 615
3 613 576 620
3 576 578 620
3 579 621 622
3 579 622 578
3 578 622 620
3 621 623 624
3 622 621 624
3 618 624 623
3 618 623 616
3 616 623 625
3 619 616 626
3 626 616 625
3 573 626 581
3 619 626 573
3 579 584 621
3 587 621 584
3 623 621 587
3 589 623 587
3 625 623 589
3 591 625 589
3 626 625 591
3 581 626 591
3 627 628 629
3 627 595 594
3 627 629 595
3 629 630 595
3 596 595 631
3 595 630 631
3 631 598 596
3 632 598 631
3 633 634 635
3 633 636 637
3 635 636 633
3 628 637 636
3 627 637 628
3 627 600 637
3 627 601 600
3 594 601 627
3 598 632 638
3 602 598 638
3 638 603 602
3 639 603 638
3 640 641 642
3 634 640 642
3 633 640 634
3 633 605 640
3 633 606 605
3 607 606 633
3 637 607 633
3 600 607 637
3 643 644 645
3 643 639 644
3 643 610 639
3 610 603 639
3 640 646 641
3 605 646 640
3 605 611 646
3 611 647 646
3 614 648 611
3 611 648 647
3 615 649 650
3 615 650 614
3 614 650 648
3 649 651 652
3 650 649 652
3 651 653 654
3 652 651 654
3 645 654 653
3 643 645 653
3 643 653 618
3 643 618 617
3 610 643 617
3 615 620 649
3 622 649 620
3 651 649 622
3 624 651 622
3 653 651 624
3 618 653 624
3 655 656 657
3 655 658 659
3 657 658 655
3 659 629 628
3 659 658 629
3 658 660 629
3 630 629 661
3 629 660 661
3 631 630 662
3 630 661 662
3 662 632 631
3 663 632 662
3 664 665 666
3 664 667 668
3 666 667 664
3 656 668 667
3 655 668 656
3 655 634 668
3 655 635 634
3 636 635 655
3 659 636 655
3 628 636 659
3 669 638 632
3 669 632 670
3 670 632 663
3 638 669 639
3 664 671 665
3 668 641 664
3 668 642 641
3 664 641 671
3 672 673 641
3 671 641 673
3 672 674 675
3 672 675 673
3 668 634 642
3 674 676 677
3 675 674 677
3 676 678 679
3 677 676 679
3 678 680 681
3 679 678 681
3 680 682 683
3 681 680 683
3 670 683 682
3 669 670 682
3 669 682 645
3 669 645 644
3 639 669 644
3 641 646 672
3 647 672 646
3 674 672 647
3 648 674 647
3 676 674 648
3 650 676 648
3 678 676 650
3 652 678 650
3 680 678 652
3 654 680 652
3 682 680 654
3 645 682 654
3 684 685 686
3 684 687 688
3 686 687 684
3 688 657 656
3 688 687 657
3 687 689 657
3 658 657 690
3 657 689 690
3 660 658 691
3 658 690 691
3 661 660 692
3 660 691 692
3 693 692 694
3 693 662 692
3 662 661 692
3 662 693 663
3 695 696 697
3 685 695 697
3 684 695 685
3 684 665 695
3 684 666 665
3 667 666 684
3 688 667 684
3 656 667 688
3 698 699 700
3 694 699 698
3 694 698 693
3 693 698 701
3 663 701 670
3 693 701 663
3 695 702 696
3 665 702 695
3 665 671 702
3 671 703 702
3 673 704 671
3 671 704 703
3 675 705 673
3 673 705 704
3 677 706 675
3 675 706 705
3 679 707 677
3 677 707 706
3 700 681 698
3 700 707 681
3 707 679 681
3 683 698 681
3 701 698 683
3 670 701 683
3 686 708 709
3 685 708 686
3 687 686 710
3 686 709 710
3 689 687 711
3 687 710 711
3 690 689 712
3 689 711 712
3 713 712 714
3 713 691 712
3 691 690 712
3 691 715 692
3 713 715 691
3 692 715 694
3 697 696 716
3 697 716 717
3 697 717 685
3 685 717 708
3 718 713 714
3 719 718 714
3 699 718 700
3 699 715 718
3 715 713 718
3 694 715 699
3 696 702 716
3 716 720 717
3 716 702 720
3 702 703 720
3 704 721 703
3 703 721 720
3 705 722 704
3 704 722 721
3 706 723 705
3 705 723 722
3 719 707 718
3 719 723 707
3 723 706 707
3 700 718 707
3 709 708 724
3 709 725 710
3 724 725 709
3 710 726 711
3 725 726 710
3 711 727 712
3 726 727 711
3 712 727 714
3 724 717 728
3 708 717 724
3 725 724 729
3 729 724 728
3 726 725 730
3 730 725 729
3 727 726 731
3 731 726 730
3 714 731 719
3 727 731 714
3 717 720 728
3 721 728 720
3 729 728 721
3 722 729 721
3 730 729 722
3 723 730 722
3 731 730 723
3 719 731 723
