# vtk DataFile Version 3.0
this file was written using fslvtkio
ASCII
DATASET POLYDATA
POINTS 642 float
127.033 117.011 111.709
111.935 116.565 109.527
117.317 102.807 106.081
133.393 104.062 106.918
127.868 108.561 118.297
127.258 111.326 102.199
117.323 111.192 100.528
116.846 107.463 116.917
118.973 121.224 118.017
125.643 98.5278 110.495
127.492 98.5437 98.2657
118.878 124.784 105.26
117.174 114.642 119.459
123.963 115.81 120.332
122.754 107.544 119.762
121.134 101.643 114.589
128.119 101.578 116.364
116.565 119.512 101.488
122.85 110.527 100.264
122.417 117.825 104.172
122.817 103.586 99.5274
129.177 104.455 99.3231
131.761 104.974 113.31
128.092 113.977 115.959
130.805 109.985 109.426
131.496 106.61 103.33
127.316 114.734 106.613
113.619 112.811 114.417
116.206 104.556 111.619
112.782 109.299 107.643
113.07 115.33 103.462
116.039 105.825 101.95
123.28 121.705 109.228
124.086 121.847 116.064
117.474 125.012 111.896
113.159 123.296 105.936
113.902 120.17 114.334
134.79 100.392 99.9445
127.354 95.6573 103.492
131.518 99.4168 108.849
121.21 98.1917 101.383
120.422 97.7148 108.063
120.627 115.092 120.445
123.197 111.698 120.851
119.881 111.004 120.005
125.642 107.777 119.986
125.991 112.377 119.68
121.637 118.884 119.838
117.988 118.1 119.02
116.67 110.954 118.714
119.549 107.274 118.781
121.71 104.266 117.834
125.336 104.253 118.487
124.438 101.353 116.18
128.507 104.896 117.606
118.934 104.456 115.857
123.23 99.5678 112.901
126.793 99.7192 113.84
119.654 115.543 101.357
122.238 114.373 102.178
119.963 118.986 102.367
124.691 114.421 103.491
125.043 111.169 101.005
120.114 111.324 100.554
116.882 115.478 100.85
118.016 122.467 102.77
120.757 121.391 104.656
125.91 103.921 98.5139
126.09 107.297 99.5843
122.683 107.279 99.6952
128.184 108.143 100.531
128.574 101.825 97.5046
124.547 100.861 98.0844
119.977 107.3 100.339
130.077 109.349 114.495
129.255 111.466 112.725
131.347 107.948 111.641
128.688 113.307 110.733
127.826 115.617 113.871
128.171 111.273 117.224
129.905 106.999 115.912
132.898 104.494 110.375
132.507 107.171 108.095
131.745 108.886 106.155
129.062 112.126 108.056
129.85 110.669 105.1
127.352 116.019 109.056
132.873 105.051 104.424
129.635 109.556 102.712
127.065 112.996 104.639
114.261 108.468 113.124
113.931 106.721 109.871
112.502 110.536 111.272
114.517 105.683 106.853
116.599 103.549 108.787
116.416 105.806 114.3
114.972 110.111 115.901
112.149 114.32 112.196
112.143 112.784 108.675
112.855 112.119 105.344
114.203 107.608 104.601
114.299 110.294 102.751
116.449 104.168 103.969
112.35 115.857 106.383
114.548 113.224 101.122
116.578 108.212 100.778
123.608 122.666 112.649
121.152 124.714 114.907
120.858 125.073 110.614
117.871 123.739 115.387
121.902 122.134 117.859
125.833 119.681 113.787
125.356 119.467 110.556
121.301 123.102 107.364
117.752 125.594 108.137
114.81 124.952 108.426
115.092 123.201 112.825
112.697 122.068 110.209
115.956 120.967 116.628
115.565 124.913 104.026
112.166 119.926 108.094
112.395 118.411 112.141
131.898 96.9662 101.252
129.604 97.381 105.656
133.181 99.1329 104.139
128.542 98.7004 109.762
126.282 96.9337 107.143
127.414 96.4565 100.415
131.667 99.3842 98.1091
134.406 102.022 103.96
133.439 101.517 108.224
120.457 96.9586 104.489
123.657 95.954 105.741
123.893 95.7322 102.146
122.918 97.9176 109.269
118.423 99.6734 107.034
118.929 100.177 103.845
123.937 98.0058 99.2701
126.415 115.283 118.416
124.301 119.238 118.56
126.318 118.135 116.149
125.511 118.464 107.912
123.133 120.058 106.438
125.052 116.617 105.458
129.895 100.078 112.848
130.652 103.171 115.294
132.567 101.66 111.625
133.903 103.671 101.066
130.15 106.15 101.573
132.125 102.649 97.6202
115.008 117.787 117.82
114.781 113.831 117.548
113.369 116.64 114.654
112.474 119.392 105
114.118 117.345 101.554
114.407 122.232 102.765
118.357 101.01 109.881
118.51 102.63 113.125
120.497 99.5613 111.419
121.444 101.061 99.8982
119.477 104.997 101.194
118.919 102.311 102.216
121.836 113.365 120.894
121.457 111.395 120.507
120.197 113.08 120.262
121.413 109.385 120.009
122.827 109.761 120.527
123.493 113.733 120.839
122.355 115.296 120.702
118.979 114.709 119.922
118.614 112.921 119.832
124.35 109.823 120.636
124.671 112.033 120.567
125.6 110.211 120.226
124.975 114.107 120.24
124.132 107.762 120.168
126.74 108.295 119.392
126.727 110.337 119.275
121.147 116.894 120.353
119.329 116.547 119.83
119.892 118.184 119.797
117.591 116.353 119.357
122.79 117.286 120.187
120.195 119.972 119.265
118.589 119.567 118.755
118.235 111.093 119.511
119.768 109.128 119.586
118.194 109.175 118.945
121.144 107.487 119.414
116.984 112.773 119.254
116.895 109.069 118.075
118.162 107.453 118.049
123.48 104.243 118.229
124.784 102.776 117.389
123.011 102.766 117.002
126.213 101.484 116.53
126.604 102.841 117.549
123.984 105.778 119.21
122.255 105.819 118.953
121.565 102.873 116.301
122.662 101.608 115.678
126.982 104.452 118.36
125.48 105.956 119.434
127.147 106.275 119.012
128.324 103.097 117.279
128.121 106.806 118.018
120.615 105.752 118.41
120.246 104.221 116.903
119.08 105.712 117.463
120.239 103.051 115.468
117.857 106.007 116.576
123.696 100.378 114.748
125.615 100.346 115.196
124.924 99.6432 113.592
127.49 100.475 115.32
122.163 100.474 114.005
124.506 98.8572 111.918
126.18 98.9841 112.367
121.108 115.089 101.791
121.187 116.808 102.592
119.826 117.266 101.793
121.239 118.265 103.22
122.218 116.347 103.117
122.258 112.494 101.359
121.065 113.29 101.197
118.245 117.58 101.4
118.347 119.201 101.856
123.317 114.447 102.941
123.406 112.52 101.903
124.466 112.706 102.597
123.914 110.853 100.556
123.449 116.114 103.819
125.672 112.469 103.123
126.053 111.324 101.665
119.816 113.5 100.917
118.23 115.707 101.14
118.46 113.579 100.815
116.722 117.603 101.155
121.447 111.201 100.526
118.774 111.358 100.575
117.223 113.268 100.628
119.182 120.65 102.4
120.644 120.154 103.507
119.664 122.186 103.468
121.566 119.542 104.441
117.514 120.88 102.047
118.622 123.914 103.768
120.02 123.195 104.845
125.861 105.48 99.3016
124.449 107.188 99.5309
124.43 105.388 99.5834
122.887 108.929 99.773
124.567 108.882 99.8173
127.429 105.554 99.4919
127.389 104.415 98.6624
124.452 103.802 98.9583
123.037 105.195 99.8234
125.412 109.636 100.093
127.012 107.731 100.012
126.71 109.858 100.565
128.46 106.07 100.084
127.755 109.951 101.148
127.084 103.096 97.5259
125.118 102.567 97.7053
126.591 101.436 97.6228
123.558 102.361 98.3326
128.664 103.493 98.02
127.823 100.194 97.6765
125.97 99.7997 97.9495
121.411 107.15 99.982
121.419 109.383 100.108
120.045 109.21 100.283
121.53 105.439 100.339
118.657 109.434 100.463
129.625 110.513 113.659
130.476 109.757 112.157
130.73 108.612 113.104
131.163 109.095 110.684
130.061 110.582 111.142
128.764 112.613 114.358
128.891 111.439 114.992
130.946 107.228 113.845
131.624 106.659 112.543
129.042 112.438 111.749
128.524 113.525 113.374
128.271 114.347 112.316
128.019 114.77 114.936
129.512 111.393 110.203
127.907 115.086 111.17
127.472 116.199 112.704
128.96 110.36 115.8
130.01 108.172 115.223
128.994 109.175 116.59
130.957 106.046 114.602
128.183 112.518 116.418
127.933 110.113 117.973
128.821 107.885 117.088
132.154 106.232 111.041
131.938 107.65 109.992
132.6 106.085 109.434
131.843 108.715 108.787
132.297 104.723 111.891
133.172 104.499 108.764
132.885 105.624 107.628
130.209 110.511 107.319
129.191 111.427 106.644
130.738 109.916 105.744
128.395 112.361 106.011
128.233 113.281 107.178
129.976 110.74 108.699
131.302 109.521 107.67
131.785 107.916 104.702
131.055 108.942 104.173
128.22 114.027 108.463
128.954 112.571 109.358
128.058 114.515 109.804
127.386 115.319 107.8
127.275 116.515 110.356
132.27 108.001 106.974
132.336 106.831 105.281
132.701 106.178 106.261
132.184 105.757 103.746
133.219 104.712 105.761
129.937 110.162 103.834
128.418 111.776 104.891
128.63 111.356 103.533
127.292 113.761 105.655
130.865 108.261 102.97
128.46 110.818 102.394
126.923 112.098 103.662
114.025 107.471 111.511
113.023 108.507 110.582
113.276 109.356 112.221
112.503 109.709 109.567
112.992 108.005 108.96
115.005 105.794 110.962
114.993 106.511 112.404
113.7 110.554 113.701
112.844 111.345 112.927
114.096 106.192 108.377
115.252 105.146 109.425
115.59 104.695 107.889
116.256 104.06 110.243
113.353 107.422 107.378
115.957 104.308 106.441
116.963 103.15 107.418
115.337 107.099 113.793
114.645 109.291 114.452
115.564 107.967 115.22
114.296 111.519 115.065
116.156 105.162 112.95
116.58 106.614 115.639
115.823 108.898 116.701
112.206 112.367 111.878
112.17 111.553 109.999
111.997 113.495 110.475
112.367 110.944 108.224
112.768 113.383 113.403
111.962 115.345 110.801
112.068 114.618 109.099
113.382 109.754 105.251
114.221 108.947 103.79
113.541 111.138 104.178
114.941 108.116 102.353
115.031 106.709 103.095
113.408 108.548 106.153
112.734 110.59 106.439
113.012 113.576 104.287
113.674 112.539 103.183
114.975 105.742 104.207
114.055 106.654 105.802
115.317 104.939 105.312
115.992 104.888 102.932
116.863 103.624 105.075
112.373 112.315 106.958
112.527 113.951 105.72
112.278 114.193 107.399
112.557 115.675 104.804
112.117 116.129 107.969
114.349 111.726 101.91
115.068 109.249 101.448
115.399 110.631 100.739
116.026 106.999 101.251
113.802 114.198 102.399
115.909 112.237 100.534
116.961 109.692 100.517
122.644 124.167 113.696
121.23 125.013 112.812
122.425 124.222 111.919
119.44 125.286 111.598
119.518 125.007 113.463
122.779 123.785 115.569
123.766 122.793 114.459
123.095 122.853 110.822
122.041 123.9 109.931
119.503 124.381 115.326
121.481 123.786 116.646
119.911 123.298 116.885
123.005 122.398 116.947
117.706 124.593 113.732
118.174 122.573 116.694
120.282 121.855 117.949
124.688 121.264 113.335
124.282 121.266 111.475
125.488 119.77 112.113
124.19 120.922 110.095
124.911 120.971 114.931
126.423 118.368 112.748
126.304 118.271 111.114
120.994 124.466 108.616
119.377 125.357 109.39
119.635 125.04 107.524
117.808 125.383 110.139
122.282 122.552 108.501
120.269 123.804 106.34
118.271 125.467 106.379
114.713 124.227 110.626
113.815 122.988 111.199
113.638 123.757 109.253
113.192 121.412 112.14
114.125 121.968 113.29
115.974 124.389 112.279
115.988 124.996 110.28
113.619 124.353 107.175
112.843 122.765 108.185
115.352 122.196 114.63
116.476 123.631 114.031
116.683 122.463 115.81
114.751 120.771 115.478
117.443 121.009 117.469
116.371 125.358 108.61
114.946 125.236 106.442
116.541 125.613 106.165
114.046 124.754 104.927
117.204 125.151 104.51
112.249 120.986 109.302
112.523 120.207 111.406
112.198 119.016 110.168
113.144 119.592 113.139
112.608 121.661 107.134
112.091 118.214 108.869
112.07 117.337 110.945
130.723 96.7238 103.907
131.328 98.2152 105.129
132.493 97.898 102.84
132.247 99.0046 106.29
130.75 98.4632 107.074
128.892 96.0115 104.233
130.03 96.2909 102.149
133.607 98.3692 100.455
134.152 99.3224 101.996
129.081 98.061 107.698
128.035 96.8859 106.148
127.391 97.828 108.153
126.823 96.0417 105.335
130.06 98.9188 109.233
127.099 98.5752 110.151
125.806 97.8142 108.831
130.004 96.6599 100.346
132.117 97.8522 99.3454
129.883 97.6171 98.9866
133.532 99.6909 98.7222
127.667 95.9658 101.913
127.17 97.2873 99.2794
129.326 98.8284 98.0779
134.14 100.243 104.289
133.376 99.9461 106.637
134.122 101.821 106.164
132.731 99.9843 108.253
134.909 100.858 102.258
133.952 103.214 105.531
133.547 102.982 107.79
121.976 96.0788 104.918
123.708 95.5399 103.94
122.047 95.8865 103.34
125.592 95.5555 102.863
125.413 95.6419 104.616
121.965 96.5847 106.654
120.589 96.9998 106.163
120.894 97.0452 102.78
122.298 96.4409 101.705
125.07 96.2907 106.418
123.236 96.8156 107.456
124.562 97.3118 108.122
121.699 97.5945 108.462
124.227 98.1665 109.914
119.316 98.0565 105.773
119.564 98.2517 103.95
118.564 99.6376 105.335
120.053 98.8457 102.595
119.386 98.337 107.39
117.94 101.166 106.582
118.089 101.463 105.091
123.844 96.5233 100.663
125.72 95.9764 101.298
125.428 96.8903 99.785
122.497 97.7775 100.285
125.632 98.3732 98.5669
125.451 117.281 118.599
125.564 118.812 117.495
126.489 116.797 117.318
125.384 120.067 116.242
124.375 120.596 117.386
124.166 117.591 119.499
125.255 115.65 119.49
127.258 114.872 117.197
127.181 116.126 116.154
123.251 120.859 118.162
123.024 119.133 119.381
121.495 120.596 118.797
126.332 113.901 119.083
127.512 113.279 117.717
127.183 111.76 118.508
127.156 116.871 115.001
126.095 119.082 115.024
126.794 117.605 113.799
124.314 119.389 107.224
124.121 118.386 105.921
125.346 117.668 106.628
123.729 117.225 104.836
122.887 118.923 105.21
123.238 120.922 107.871
124.383 120.058 108.613
126.509 116.7 107.226
126.335 115.895 105.965
122.015 120.52 105.573
122.208 121.569 107.075
121.026 122.171 105.97
125.317 119.129 109.275
126.539 117.273 108.427
126.425 117.835 109.794
126.241 114.922 104.999
124.836 115.665 104.439
125.94 113.784 103.973
130.608 101.261 114.321
131.705 102.12 113.588
131.43 100.67 112.413
132.356 103.162 112.699
131.39 103.96 114.35
129.532 102.28 115.868
129.156 100.651 114.867
130.788 99.63 110.994
132.15 100.31 110.447
130.525 105.191 115.579
129.589 104.002 116.526
129.29 106.147 116.869
128.354 99.8604 113.523
129.259 99.307 111.385
127.665 99.0419 111.911
133.021 101.325 109.867
132.991 103.123 111.216
133.263 102.981 109.427
132.036 104.348 100.797
131.826 104.026 99.3358
133.866 103.097 99.0942
130.429 103.897 98.8258
129.667 105.563 100.672
130.798 106.229 102.373
132.128 104.837 102.371
134.942 101.973 100.559
133.773 101.363 98.2452
129.072 107.237 101.064
130.06 107.94 101.997
128.771 109.217 101.695
133.223 104.333 102.853
134.587 102.646 102.286
133.818 103.717 104.299
131.787 100.908 97.777
129.991 102.822 97.6949
129.359 100.422 97.6233
114.73 115.859 117.849
114.083 115.434 116.282
114.046 117.167 116.4
113.573 114.767 114.806
114.237 113.569 115.95
115.723 114.235 118.813
115.917 116.244 118.924
114.348 118.927 116.158
113.589 118.356 114.718
114.715 111.943 116.549
115.556 112.481 118.214
115.612 110.519 117.463
116.322 117.92 118.585
115.264 119.533 117.246
116.834 119.621 118.064
112.844 117.611 113.475
112.799 115.301 113.501
112.192 116.303 112.284
113.273 118.867 103.188
114.033 119.869 102.244
113.364 120.841 103.77
115.383 120.704 101.773
115.28 118.333 101.324
113.411 116.57 102.598
112.606 117.452 104.158
112.752 121.277 105.546
113.554 122.862 104.309
115.482 116.293 100.804
114.267 115.211 101.404
115.794 114.139 100.663
112.248 117.514 105.733
112.32 119.62 106.593
112.112 117.751 107.379
114.671 123.616 103.458
116.359 121.996 102.334
117.055 123.798 103.382
118.238 101.925 111.526
119.405 101.116 112.349
119.245 100.098 110.69
120.692 100.579 113.014
119.786 102.066 113.957
117.372 103.416 112.28
117.348 102.86 110.837
119.246 99.1445 109.089
120.431 98.646 109.79
118.773 103.434 114.515
117.39 104.183 113.636
117.547 104.988 115.18
117.488 102.385 109.393
118.403 100.12 108.47
117.672 101.738 107.996
121.681 98.5515 110.368
121.8 99.5942 112.209
123.13 98.7662 111.131
120.617 103.046 100.971
118.941 103.749 101.696
120.059 101.622 101.108
117.483 104.2 102.277
117.673 105.477 101.451
121.21 104.209 100.532
122.008 102.426 99.7748
121.238 99.6636 100.658
120.076 100.208 101.873
117.871 106.682 100.922
119.74 106.157 100.783
118.306 108.133 100.663
122.674 101.181 98.8314
122.386 99.3898 99.6314
124.005 99.5201 98.5941
118.98 101.217 103.027
117.65 103.323 103.252
117.886 102.436 104.298
POLYGONS 1280  5120
3 164 162 163
3 163 44 164
3 162 43 163
3 164 42 162
3 166 165 163
3 163 43 166
3 165 44 163
3 166 14 165
3 168 167 162
3 162 42 168
3 167 43 162
3 168 13 167
3 170 169 164
3 164 44 170
3 169 42 164
3 170 12 169
3 173 171 172
3 172 46 173
3 171 43 172
3 173 45 171
3 167 174 172
3 172 43 167
3 174 46 172
3 167 13 174
3 175 166 171
3 171 45 175
3 166 43 171
3 175 14 166
3 177 176 173
3 173 46 177
3 176 45 173
3 177 4 176
3 180 178 179
3 179 48 180
3 178 42 179
3 180 47 178
3 169 181 179
3 179 42 169
3 181 48 179
3 169 12 181
3 182 168 178
3 178 47 182
3 168 42 178
3 182 13 168
3 184 183 180
3 180 48 184
3 183 47 180
3 184 8 183
3 187 185 186
3 186 50 187
3 185 44 186
3 187 49 185
3 165 188 186
3 186 44 165
3 188 50 186
3 165 14 188
3 189 170 185
3 185 49 189
3 170 44 185
3 189 12 170
3 191 190 187
3 187 50 191
3 190 49 187
3 191 7 190
3 194 192 193
3 193 53 194
3 192 52 193
3 194 51 192
3 196 195 193
3 193 52 196
3 195 53 193
3 196 16 195
3 198 197 192
3 192 51 198
3 197 52 192
3 198 14 197
3 200 199 194
3 194 53 200
3 199 51 194
3 200 15 199
3 203 201 202
3 202 45 203
3 201 52 202
3 203 54 201
3 197 175 202
3 202 52 197
3 175 45 202
3 197 14 175
3 204 196 201
3 201 54 204
3 196 52 201
3 204 16 196
3 176 205 203
3 203 45 176
3 205 54 203
3 176 4 205
3 208 206 207
3 207 55 208
3 206 51 207
3 208 50 206
3 199 209 207
3 207 51 199
3 209 55 207
3 199 15 209
3 188 198 206
3 206 50 188
3 198 51 206
3 188 14 198
3 210 191 208
3 208 55 210
3 191 50 208
3 210 7 191
3 213 211 212
3 212 57 213
3 211 53 212
3 213 56 211
3 195 214 212
3 212 53 195
3 214 57 212
3 195 16 214
3 215 200 211
3 211 56 215
3 200 53 211
3 215 15 200
3 217 216 213
3 213 57 217
3 216 56 213
3 217 9 216
3 220 218 219
3 219 60 220
3 218 59 219
3 220 58 218
3 222 221 219
3 219 59 222
3 221 60 219
3 222 19 221
3 224 223 218
3 218 58 224
3 223 59 218
3 224 18 223
3 226 225 220
3 220 60 226
3 225 58 220
3 226 17 225
3 229 227 228
3 228 62 229
3 227 59 228
3 229 61 227
3 223 230 228
3 228 59 223
3 230 62 228
3 223 18 230
3 231 222 227
3 227 61 231
3 222 59 227
3 231 19 222
3 233 232 229
3 229 62 233
3 232 61 229
3 233 5 232
3 236 234 235
3 235 64 236
3 234 58 235
3 236 63 234
3 225 237 235
3 235 58 225
3 237 64 235
3 225 17 237
3 238 224 234
3 234 63 238
3 224 58 234
3 238 18 224
3 240 239 236
3 236 64 240
3 239 63 236
3 240 6 239
3 243 241 242
3 242 66 243
3 241 60 242
3 243 65 241
3 221 244 242
3 242 60 221
3 244 66 242
3 221 19 244
3 245 226 241
3 241 65 245
3 226 60 241
3 245 17 226
3 247 246 243
3 243 66 247
3 246 65 243
3 247 11 246
3 250 248 249
3 249 69 250
3 248 68 249
3 250 67 248
3 252 251 249
3 249 68 252
3 251 69 249
3 252 18 251
3 254 253 248
3 248 67 254
3 253 68 248
3 254 21 253
3 256 255 250
3 250 69 256
3 255 67 250
3 256 20 255
3 259 257 258
3 258 70 259
3 257 68 258
3 259 62 257
3 253 260 258
3 258 68 253
3 260 70 258
3 253 21 260
3 230 252 257
3 257 62 230
3 252 68 257
3 230 18 252
3 261 233 259
3 259 70 261
3 233 62 259
3 261 5 233
3 264 262 263
3 263 72 264
3 262 67 263
3 264 71 262
3 255 265 263
3 263 67 255
3 265 72 263
3 255 20 265
3 266 254 262
3 262 71 266
3 254 67 262
3 266 21 254
3 268 267 264
3 264 72 268
3 267 71 264
3 268 10 267
3 271 269 270
3 270 63 271
3 269 69 270
3 271 73 269
3 251 238 270
3 270 69 251
3 238 63 270
3 251 18 238
3 272 256 269
3 269 73 272
3 256 69 269
3 272 20 256
3 239 273 271
3 271 63 239
3 273 73 271
3 239 6 273
3 276 274 275
3 275 76 276
3 274 75 275
3 276 74 274
3 278 277 275
3 275 75 278
3 277 76 275
3 278 24 277
3 280 279 274
3 274 74 280
3 279 75 274
3 280 23 279
3 282 281 276
3 276 76 282
3 281 74 276
3 282 22 281
3 285 283 284
3 284 78 285
3 283 75 284
3 285 77 283
3 279 286 284
3 284 75 279
3 286 78 284
3 279 23 286
3 287 278 283
3 283 77 287
3 278 75 283
3 287 24 278
3 289 288 285
3 285 78 289
3 288 77 285
3 289 0 288
3 292 290 291
3 291 80 292
3 290 74 291
3 292 79 290
3 281 293 291
3 291 74 281
3 293 80 291
3 281 22 293
3 294 280 290
3 290 79 294
3 280 74 290
3 294 23 280
3 296 295 292
3 292 80 296
3 295 79 292
3 296 4 295
3 299 297 298
3 298 82 299
3 297 76 298
3 299 81 297
3 277 300 298
3 298 76 277
3 300 82 298
3 277 24 300
3 301 282 297
3 297 81 301
3 282 76 297
3 301 22 282
3 303 302 299
3 299 82 303
3 302 81 299
3 303 3 302
3 306 304 305
3 305 85 306
3 304 84 305
3 306 83 304
3 308 307 305
3 305 84 308
3 307 85 305
3 308 26 307
3 310 309 304
3 304 83 310
3 309 84 304
3 310 24 309
3 312 311 306
3 306 85 312
3 311 83 306
3 312 25 311
3 315 313 314
3 314 77 315
3 313 84 314
3 315 86 313
3 309 287 314
3 314 84 309
3 287 77 314
3 309 24 287
3 316 308 313
3 313 86 316
3 308 84 313
3 316 26 308
3 288 317 315
3 315 77 288
3 317 86 315
3 288 0 317
3 320 318 319
3 319 87 320
3 318 83 319
3 320 82 318
3 311 321 319
3 319 83 311
3 321 87 319
3 311 25 321
3 300 310 318
3 318 82 300
3 310 83 318
3 300 24 310
3 322 303 320
3 320 87 322
3 303 82 320
3 322 3 303
3 325 323 324
3 324 89 325
3 323 85 324
3 325 88 323
3 307 326 324
3 324 85 307
3 326 89 324
3 307 26 326
3 327 312 323
3 323 88 327
3 312 85 323
3 327 25 312
3 329 328 325
3 325 89 329
3 328 88 325
3 329 5 328
3 332 330 331
3 331 92 332
3 330 91 331
3 332 90 330
3 334 333 331
3 331 91 334
3 333 92 331
3 334 29 333
3 336 335 330
3 330 90 336
3 335 91 330
3 336 28 335
3 338 337 332
3 332 92 338
3 337 90 332
3 338 27 337
3 341 339 340
3 340 94 341
3 339 91 340
3 341 93 339
3 335 342 340
3 340 91 335
3 342 94 340
3 335 28 342
3 343 334 339
3 339 93 343
3 334 91 339
3 343 29 334
3 345 344 341
3 341 94 345
3 344 93 341
3 345 2 344
3 348 346 347
3 347 96 348
3 346 90 347
3 348 95 346
3 337 349 347
3 347 90 337
3 349 96 347
3 337 27 349
3 350 336 346
3 346 95 350
3 336 90 346
3 350 28 336
3 352 351 348
3 348 96 352
3 351 95 348
3 352 7 351
3 355 353 354
3 354 98 355
3 353 92 354
3 355 97 353
3 333 356 354
3 354 92 333
3 356 98 354
3 333 29 356
3 357 338 353
3 353 97 357
3 338 92 353
3 357 27 338
3 359 358 355
3 355 98 359
3 358 97 355
3 359 1 358
3 362 360 361
3 361 101 362
3 360 100 361
3 362 99 360
3 364 363 361
3 361 100 364
3 363 101 361
3 364 31 363
3 366 365 360
3 360 99 366
3 365 100 360
3 366 29 365
3 368 367 362
3 362 101 368
3 367 99 362
3 368 30 367
3 371 369 370
3 370 93 371
3 369 100 370
3 371 102 369
3 365 343 370
3 370 100 365
3 343 93 370
3 365 29 343
3 372 364 369
3 369 102 372
3 364 100 369
3 372 31 364
3 344 373 371
3 371 93 344
3 373 102 371
3 344 2 373
3 376 374 375
3 375 103 376
3 374 99 375
3 376 98 374
3 367 377 375
3 375 99 367
3 377 103 375
3 367 30 377
3 356 366 374
3 374 98 356
3 366 99 374
3 356 29 366
3 378 359 376
3 376 103 378
3 359 98 376
3 378 1 359
3 381 379 380
3 380 105 381
3 379 101 380
3 381 104 379
3 363 382 380
3 380 101 363
3 382 105 380
3 363 31 382
3 383 368 379
3 379 104 383
3 368 101 379
3 383 30 368
3 385 384 381
3 381 105 385
3 384 104 381
3 385 6 384
3 388 386 387
3 387 108 388
3 386 107 387
3 388 106 386
3 390 389 387
3 387 107 390
3 389 108 387
3 390 34 389
3 392 391 386
3 386 106 392
3 391 107 386
3 392 33 391
3 394 393 388
3 388 108 394
3 393 106 388
3 394 32 393
3 397 395 396
3 396 110 397
3 395 107 396
3 397 109 395
3 391 398 396
3 396 107 391
3 398 110 396
3 391 33 398
3 399 390 395
3 395 109 399
3 390 107 395
3 399 34 390
3 401 400 397
3 397 110 401
3 400 109 397
3 401 8 400
3 404 402 403
3 403 112 404
3 402 106 403
3 404 111 402
3 393 405 403
3 403 106 393
3 405 112 403
3 393 32 405
3 406 392 402
3 402 111 406
3 392 106 402
3 406 33 392
3 408 407 404
3 404 112 408
3 407 111 404
3 408 0 407
3 411 409 410
3 410 114 411
3 409 108 410
3 411 113 409
3 389 412 410
3 410 108 389
3 412 114 410
3 389 34 412
3 413 394 409
3 409 113 413
3 394 108 409
3 413 32 394
3 415 414 411
3 411 114 415
3 414 113 411
3 415 11 414
3 418 416 417
3 417 117 418
3 416 116 417
3 418 115 416
3 420 419 417
3 417 116 420
3 419 117 417
3 420 36 419
3 422 421 416
3 416 115 422
3 421 116 416
3 422 34 421
3 424 423 418
3 418 117 424
3 423 115 418
3 424 35 423
3 427 425 426
3 426 109 427
3 425 116 426
3 427 118 425
3 421 399 426
3 426 116 421
3 399 109 426
3 421 34 399
3 428 420 425
3 425 118 428
3 420 116 425
3 428 36 420
3 400 429 427
3 427 109 400
3 429 118 427
3 400 8 429
3 432 430 431
3 431 119 432
3 430 115 431
3 432 114 430
3 423 433 431
3 431 115 423
3 433 119 431
3 423 35 433
3 412 422 430
3 430 114 412
3 422 115 430
3 412 34 422
3 434 415 432
3 432 119 434
3 415 114 432
3 434 11 415
3 437 435 436
3 436 121 437
3 435 117 436
3 437 120 435
3 419 438 436
3 436 117 419
3 438 121 436
3 419 36 438
3 439 424 435
3 435 120 439
3 424 117 435
3 439 35 424
3 441 440 437
3 437 121 441
3 440 120 437
3 441 1 440
3 444 442 443
3 443 124 444
3 442 123 443
3 444 122 442
3 446 445 443
3 443 123 446
3 445 124 443
3 446 39 445
3 448 447 442
3 442 122 448
3 447 123 442
3 448 38 447
3 450 449 444
3 444 124 450
3 449 122 444
3 450 37 449
3 453 451 452
3 452 126 453
3 451 123 452
3 453 125 451
3 447 454 452
3 452 123 447
3 454 126 452
3 447 38 454
3 455 446 451
3 451 125 455
3 446 123 451
3 455 39 446
3 457 456 453
3 453 126 457
3 456 125 453
3 457 9 456
3 460 458 459
3 459 128 460
3 458 122 459
3 460 127 458
3 449 461 459
3 459 122 449
3 461 128 459
3 449 37 461
3 462 448 458
3 458 127 462
3 448 122 458
3 462 38 448
3 464 463 460
3 460 128 464
3 463 127 460
3 464 10 463
3 467 465 466
3 466 130 467
3 465 124 466
3 467 129 465
3 445 468 466
3 466 124 445
3 468 130 466
3 445 39 468
3 469 450 465
3 465 129 469
3 450 124 465
3 469 37 450
3 471 470 467
3 467 130 471
3 470 129 467
3 471 3 470
3 474 472 473
3 473 133 474
3 472 132 473
3 474 131 472
3 476 475 473
3 473 132 476
3 475 133 473
3 476 38 475
3 478 477 472
3 472 131 478
3 477 132 472
3 478 41 477
3 480 479 474
3 474 133 480
3 479 131 474
3 480 40 479
3 483 481 482
3 482 134 483
3 481 132 482
3 483 126 481
3 477 484 482
3 482 132 477
3 484 134 482
3 477 41 484
3 454 476 481
3 481 126 454
3 476 132 481
3 454 38 476
3 485 457 483
3 483 134 485
3 457 126 483
3 485 9 457
3 488 486 487
3 487 136 488
3 486 131 487
3 488 135 486
3 479 489 487
3 487 131 479
3 489 136 487
3 479 40 489
3 490 478 486
3 486 135 490
3 478 131 486
3 490 41 478
3 492 491 488
3 488 136 492
3 491 135 488
3 492 2 491
3 495 493 494
3 494 127 495
3 493 133 494
3 495 137 493
3 475 462 494
3 494 133 475
3 462 127 494
3 475 38 462
3 496 480 493
3 493 137 496
3 480 133 493
3 496 40 480
3 463 497 495
3 495 127 463
3 497 137 495
3 463 10 497
3 500 498 499
3 499 140 500
3 498 139 499
3 500 138 498
3 502 501 499
3 499 139 502
3 501 140 499
3 502 33 501
3 504 503 498
3 498 138 504
3 503 139 498
3 504 13 503
3 506 505 500
3 500 140 506
3 505 138 500
3 506 23 505
3 509 507 508
3 508 47 509
3 507 139 508
3 509 110 507
3 503 182 508
3 508 139 503
3 182 47 508
3 503 13 182
3 398 502 507
3 507 110 398
3 502 139 507
3 398 33 502
3 183 401 509
3 509 47 183
3 401 110 509
3 183 8 401
3 512 510 511
3 511 79 512
3 510 138 511
3 512 46 510
3 505 294 511
3 511 138 505
3 294 79 511
3 505 23 294
3 174 504 510
3 510 46 174
3 504 138 510
3 174 13 504
3 295 177 512
3 512 79 295
3 177 46 512
3 295 4 177
3 515 513 514
3 514 111 515
3 513 140 514
3 515 78 513
3 501 406 514
3 514 140 501
3 406 111 514
3 501 33 406
3 286 506 513
3 513 78 286
3 506 140 513
3 286 23 506
3 407 289 515
3 515 111 407
3 289 78 515
3 407 0 289
3 518 516 517
3 517 143 518
3 516 142 517
3 518 141 516
3 520 519 517
3 517 142 520
3 519 143 517
3 520 19 519
3 522 521 516
3 516 141 522
3 521 142 516
3 522 32 521
3 524 523 518
3 518 143 524
3 523 141 518
3 524 26 523
3 527 525 526
3 526 113 527
3 525 142 526
3 527 66 525
3 521 413 526
3 526 142 521
3 413 113 526
3 521 32 413
3 244 520 525
3 525 66 244
3 520 142 525
3 244 19 520
3 414 247 527
3 527 113 414
3 247 66 527
3 414 11 247
3 530 528 529
3 529 86 530
3 528 141 529
3 530 112 528
3 523 316 529
3 529 141 523
3 316 86 529
3 523 26 316
3 405 522 528
3 528 112 405
3 522 141 528
3 405 32 522
3 317 408 530
3 530 86 317
3 408 112 530
3 317 0 408
3 533 531 532
3 532 61 533
3 531 143 532
3 533 89 531
3 519 231 532
3 532 143 519
3 231 61 532
3 519 19 231
3 326 524 531
3 531 89 326
3 524 143 531
3 326 26 524
3 232 329 533
3 533 61 232
3 329 89 533
3 232 5 329
3 536 534 535
3 535 146 536
3 534 145 535
3 536 144 534
3 538 537 535
3 535 145 538
3 537 146 535
3 538 22 537
3 540 539 534
3 534 144 540
3 539 145 534
3 540 16 539
3 542 541 536
3 536 146 542
3 541 144 536
3 542 39 541
3 545 543 544
3 544 54 545
3 543 145 544
3 545 80 543
3 539 204 544
3 544 145 539
3 204 54 544
3 539 16 204
3 293 538 543
3 543 80 293
3 538 145 543
3 293 22 538
3 205 296 545
3 545 54 205
3 296 80 545
3 205 4 296
3 548 546 547
3 547 125 548
3 546 144 547
3 548 57 546
3 541 455 547
3 547 144 541
3 455 125 547
3 541 39 455
3 214 540 546
3 546 57 214
3 540 144 546
3 214 16 540
3 456 217 548
3 548 125 456
3 217 57 548
3 456 9 217
3 551 549 550
3 550 81 551
3 549 146 550
3 551 130 549
3 537 301 550
3 550 146 537
3 301 81 550
3 537 22 301
3 468 542 549
3 549 130 468
3 542 146 549
3 468 39 542
3 302 471 551
3 551 81 302
3 471 130 551
3 302 3 471
3 554 552 553
3 553 149 554
3 552 148 553
3 554 147 552
3 556 555 553
3 553 148 556
3 555 149 553
3 556 21 555
3 558 557 552
3 552 147 558
3 557 148 552
3 558 25 557
3 560 559 554
3 554 149 560
3 559 147 554
3 560 37 559
3 563 561 562
3 562 88 563
3 561 148 562
3 563 70 561
3 557 327 562
3 562 148 557
3 327 88 562
3 557 25 327
3 260 556 561
3 561 70 260
3 556 148 561
3 260 21 556
3 328 261 563
3 563 88 328
3 261 70 563
3 328 5 261
3 566 564 565
3 565 129 566
3 564 147 565
3 566 87 564
3 559 469 565
3 565 147 559
3 469 129 565
3 559 37 469
3 321 558 564
3 564 87 321
3 558 147 564
3 321 25 558
3 470 322 566
3 566 129 470
3 322 87 566
3 470 3 322
3 569 567 568
3 568 71 569
3 567 149 568
3 569 128 567
3 555 266 568
3 568 149 555
3 266 71 568
3 555 21 266
3 461 560 567
3 567 128 461
3 560 149 567
3 461 37 560
3 267 464 569
3 569 71 267
3 464 128 569
3 267 10 464
3 572 570 571
3 571 152 572
3 570 151 571
3 572 150 570
3 574 573 571
3 571 151 574
3 573 152 571
3 574 27 573
3 576 575 570
3 570 150 576
3 575 151 570
3 576 12 575
3 578 577 572
3 572 152 578
3 577 150 572
3 578 36 577
3 581 579 580
3 580 49 581
3 579 151 580
3 581 96 579
3 575 189 580
3 580 151 575
3 189 49 580
3 575 12 189
3 349 574 579
3 579 96 349
3 574 151 579
3 349 27 574
3 190 352 581
3 581 49 190
3 352 96 581
3 190 7 352
3 584 582 583
3 583 118 584
3 582 150 583
3 584 48 582
3 577 428 583
3 583 150 577
3 428 118 583
3 577 36 428
3 181 576 582
3 582 48 181
3 576 150 582
3 181 12 576
3 429 184 584
3 584 118 429
3 184 48 584
3 429 8 184
3 587 585 586
3 586 97 587
3 585 152 586
3 587 121 585
3 573 357 586
3 586 152 573
3 357 97 586
3 573 27 357
3 438 578 585
3 585 121 438
3 578 152 585
3 438 36 578
3 358 441 587
3 587 97 358
3 441 121 587
3 358 1 441
3 590 588 589
3 589 155 590
3 588 154 589
3 590 153 588
3 592 591 589
3 589 154 592
3 591 155 589
3 592 17 591
3 594 593 588
3 588 153 594
3 593 154 588
3 594 30 593
3 596 595 590
3 590 155 596
3 595 153 590
3 596 35 595
3 599 597 598
3 598 104 599
3 597 154 598
3 599 64 597
3 593 383 598
3 598 154 593
3 383 104 598
3 593 30 383
3 237 592 597
3 597 64 237
3 592 154 597
3 237 17 592
3 384 240 599
3 599 104 384
3 240 64 599
3 384 6 240
3 602 600 601
3 601 120 602
3 600 153 601
3 602 103 600
3 595 439 601
3 601 153 595
3 439 120 601
3 595 35 439
3 377 594 600
3 600 103 377
3 594 153 600
3 377 30 594
3 440 378 602
3 602 120 440
3 378 103 602
3 440 1 378
3 605 603 604
3 604 65 605
3 603 155 604
3 605 119 603
3 591 245 604
3 604 155 591
3 245 65 604
3 591 17 245
3 433 596 603
3 603 119 433
3 596 155 603
3 433 35 596
3 246 434 605
3 605 65 246
3 434 119 605
3 246 11 434
3 608 606 607
3 607 158 608
3 606 157 607
3 608 156 606
3 610 609 607
3 607 157 610
3 609 158 607
3 610 15 609
3 612 611 606
3 606 156 612
3 611 157 606
3 612 28 611
3 614 613 608
3 608 158 614
3 613 156 608
3 614 41 613
3 617 615 616
3 616 95 617
3 615 157 616
3 617 55 615
3 611 350 616
3 616 157 611
3 350 95 616
3 611 28 350
3 209 610 615
3 615 55 209
3 610 157 615
3 209 15 610
3 351 210 617
3 617 95 351
3 210 55 617
3 351 7 210
3 620 618 619
3 619 135 620
3 618 156 619
3 620 94 618
3 613 490 619
3 619 156 613
3 490 135 619
3 613 41 490
3 342 612 618
3 618 94 342
3 612 156 618
3 342 28 612
3 491 345 620
3 620 135 491
3 345 94 620
3 491 2 345
3 623 621 622
3 622 56 623
3 621 158 622
3 623 134 621
3 609 215 622
3 622 158 609
3 215 56 622
3 609 15 215
3 484 614 621
3 621 134 484
3 614 158 621
3 484 41 614
3 216 485 623
3 623 56 216
3 485 134 623
3 216 9 485
3 626 624 625
3 625 161 626
3 624 160 625
3 626 159 624
3 628 627 625
3 625 160 628
3 627 161 625
3 628 31 627
3 630 629 624
3 624 159 630
3 629 160 624
3 630 20 629
3 632 631 626
3 626 161 632
3 631 159 626
3 632 40 631
3 635 633 634
3 634 73 635
3 633 160 634
3 635 105 633
3 629 272 634
3 634 160 629
3 272 73 634
3 629 20 272
3 382 628 633
3 633 105 382
3 628 160 633
3 382 31 628
3 273 385 635
3 635 73 273
3 385 105 635
3 273 6 385
3 638 636 637
3 637 137 638
3 636 159 637
3 638 72 636
3 631 496 637
3 637 159 631
3 496 137 637
3 631 40 496
3 265 630 636
3 636 72 265
3 630 159 636
3 265 20 630
3 497 268 638
3 638 137 497
3 268 72 638
3 497 10 268
3 641 639 640
3 640 102 641
3 639 161 640
3 641 136 639
3 627 372 640
3 640 161 627
3 372 102 640
3 627 31 372
3 489 632 639
3 639 136 489
3 632 161 639
3 489 40 632
3 373 492 641
3 641 102 373
3 492 136 641
3 373 2 492
