# vtk DataFile Version 3.0
this file was written using fslvtkio
ASCII
DATASET POLYDATA
POINTS 664 float
89.554 119.07 76.6589
87.8584 118.465 76.9619
88.7411 117.074 77.2271
90.5565 117.419 77.4728
91.3457 119.185 77.2232
91.7894 117.873 77.876
87.631 120.005 76.6834
85.4995 119.327 77.2604
86.3159 118.368 77.0076
89.5234 120.972 76.6118
91.1258 120.813 76.5895
92.5801 119.203 77.8794
92.5892 120.815 77.1988
93.3957 119.916 78.1891
93.8021 120.969 78.0369
94.3956 120.016 78.8088
87.0842 121.328 77.5571
85.5046 120.63 78.4862
88.8593 122.198 76.9514
90.7943 122.787 76.9313
92.4599 122.581 76.892
93.9047 122.177 77.7182
94.904 121.237 78.8548
87.3707 122.025 78.8694
86.91 121.315 79.8093
88.7842 123.062 78.3549
90.5306 124.112 77.8455
92.3973 124.462 77.4416
94.0834 123.891 77.6573
95.3096 122.865 78.6679
88.6985 122.917 79.848
90.4703 124.052 79.5272
92.1822 124.939 79.1619
94.0564 125.148 79.0054
95.2891 124.414 79.0353
86.8253 117.263 77.0954
84.7762 117.01 77.4761
86.3598 116.079 77.3549
87.8544 115.532 77.664
89.9532 115.705 77.946
91.8658 116.477 78.5985
92.8272 117.919 78.5003
93.4113 116.971 79.207
84.0053 118.889 78.2519
93.9564 118.742 79.0344
95.3948 119.547 79.6953
84.862 120.093 79.8974
96.1723 121.632 79.7203
86.685 120.863 80.8604
96.4451 123.747 79.8022
88.5095 121.963 80.9327
90.4446 123.063 80.9423
92.1869 124.18 80.8783
93.9795 124.88 80.8385
95.8081 124.978 80.8529
86.7758 112.837 78.5794
85.365 112.247 79.2612
86.702 111.692 79.5545
87.8743 111.464 79.6128
88.703 112.779 78.8145
89.3107 111.863 79.9895
85.4547 114.706 78.1186
83.9292 113.654 78.6653
87.8799 114.185 78.1597
89.9598 112.956 79.5384
89.9054 114.188 78.653
91.1078 113.569 79.6127
83.502 115.495 78.2211
81.6002 115.76 79.604
82.4704 114.124 79.2683
91.7894 115.092 79.2253
94.1225 115.701 80.0447
94.6885 117.703 79.6023
95.6636 117.678 80.6384
82.7645 117.307 78.5199
81.6525 117.445 80.2464
96.5381 119.748 80.7435
83.0227 118.792 79.8959
82.761 118.146 81.8825
96.9957 121.223 80.9643
97.1536 122.854 80.7683
98.1326 122.013 81.8011
84.331 119.378 81.3465
86.0885 119.991 81.8774
97.189 124.333 81.2679
98.234 123.515 82.1751
88.2235 120.992 81.7747
90.276 121.694 81.8562
92.0646 122.897 82.1115
93.7151 124.12 82.3289
95.5889 124.754 82.6256
97.4858 124.781 82.8689
86.8606 110.275 80.3727
85.28 109.515 80.7369
86.094 108.76 81.5078
87.8391 108.946 81.5919
89.0952 110.54 80.8531
89.752 109.371 82.1903
91.1068 110.607 81.8032
91.7493 109.294 83.2269
84.6698 110.875 80.2155
83.1361 109.888 80.9618
84.2189 109.506 80.8567
90.7843 112.071 80.7017
92.9092 110.767 82.305
92.6179 112.481 81.3376
93.9114 111.933 82.1593
94.2331 113.19 81.6142
95.1232 112.936 82.4376
82.1794 111.416 80.5527
80.4516 111.683 81.6197
81.2894 110.195 81.5273
83.1834 112.434 79.5206
92.4976 113.947 80.1219
94.0183 114.063 80.7829
95.5365 114.596 81.6611
81.1081 113.396 80.4389
80.1583 113.416 82.4018
96.1629 116.376 81.4479
97.2804 118.749 81.579
97.4963 117.643 82.2896
98.4838 118.997 82.7563
98.83 118.134 83.3183
80.93 115.024 81.3859
81.3846 116.684 82.0997
97.9819 120.593 81.9519
99.0072 120.361 82.9217
99.7727 119.566 83.9404
83.1888 117.527 83.5494
99.4648 122.133 82.954
100.465 121.296 84.2152
84.7333 118.713 82.7539
86.5209 119.035 83.1211
99.0879 123.791 83.4152
100.538 123.191 84.4936
87.9059 120.016 82.6915
89.6687 120.686 82.6101
91.644 121.382 83.0296
93.3061 122.685 83.3852
95.0204 123.707 84.0682
96.9529 124.449 84.4753
98.7991 124.278 84.6693
84.6021 106.751 82.3014
82.7799 106.419 82.651
83.8027 105.325 82.944
85.6397 105.6 82.9749
86.5222 107.267 82.1377
87.4794 106.008 83.2759
88.505 107.673 82.6072
89.3417 106.602 83.7866
90.3152 108.064 83.1653
91.3203 107.538 84.4873
84.0883 108.288 81.7162
82.1216 107.605 82.3119
92.8247 108.614 84.6868
81.9625 108.783 81.6912
80.1033 109.824 83.0427
80.6689 107.944 82.6186
93.5456 109.954 83.7376
94.935 111.238 83.288
96.3048 113.027 83.061
79.6279 111.618 83.6006
97.2047 114.211 83.1003
80.4393 113.484 84.3245
97.3252 115.54 82.7453
98.2504 116.831 83.239
99.7428 117.964 84.4717
81.0291 115.275 83.3274
82.2813 116.499 84.4601
100.966 119.906 85.3283
84.5893 117.05 85.1034
101.541 121.993 85.9293
85.4516 118.062 84.1016
87.0883 118.25 84.0552
92.0389 120.566 84.1114
91.6921 119.318 84.8303
90.927 119.968 83.8487
92.7122 120.022 85.0889
100.184 123.386 86.2023
88.092 119.044 83.4719
89.6996 119.556 83.3795
93.0066 121.498 84.3467
94.4656 122.352 85.0553
96.2381 123.116 85.5359
98.0515 123.701 86.0352
85.3627 102.782 84.3696
84.2107 101.581 84.7077
85.4087 101.402 84.9118
86.5647 101.522 85.0645
87.3082 103.231 84.6552
88.1591 101.905 85.4914
88.934 103.936 85.0717
89.4611 102.523 86.0965
90.2749 104.329 85.6589
90.8969 103.461 86.5038
83.1563 103.022 84.0602
81.4222 103.11 84.5216
82.498 101.806 84.9671
84.303 104.076 83.4555
86.3124 104.301 83.7768
88.2244 104.913 84.1276
90.0965 105.735 84.8783
91.5898 105.73 85.6375
82.0839 104.697 83.4609
80.3839 105.07 84.314
92.6971 107.44 85.6236
81.0372 106.568 83.3306
79.9106 108.118 84.1528
93.5793 108.395 85.899
79.8319 110.243 85.2293
94.4671 109.309 85.3345
95.5011 110.289 84.8624
96.5995 111.737 84.1664
97.7845 113.531 84.3425
97.8171 112.674 85.4067
80.386 111.814 85.4271
98.3006 114.908 84.2547
98.7941 114.717 86.1107
81.4797 113.09 85.9224
99.2992 116.354 84.9708
100.842 118.113 86.0046
81.8222 114.982 85.1231
83.8573 115.75 85.9368
101.688 120.393 87.0395
86.1646 116.303 86.1746
86.9942 117.217 84.994
89.0935 117.345 85.325
88.0669 116.238 86.0592
90.9446 117.568 85.6873
89.9143 116.491 86.3574
92.5885 118.377 85.8424
91.7556 116.574 86.7292
94.4718 119.352 86.4975
93.5904 117.683 87.0503
96.1082 120.284 87.154
95.4533 118.366 87.5894
96.9763 119.128 88.0701
100.786 121.918 87.6282
88.6861 118.261 84.3424
90.4488 118.532 84.5974
93.7462 120.454 85.6384
95.395 121.552 86.2548
97.5707 120.633 87.9221
97.2887 122.107 86.9389
99.0786 122.597 87.201
99.0923 121.321 88.1943
85.5156 100.074 85.4642
83.984 99.1753 85.6833
85.0386 98.3869 86.1328
86.6466 98.5746 86.1104
87.4204 100.22 85.8171
88.4186 99.0309 86.6412
89.0914 100.597 86.4492
90.4894 99.8609 87.585
90.2664 101.598 86.7615
91.392 101.686 87.4156
83.3794 100.44 85.3146
81.4576 100.789 85.914
82.4298 99.1857 85.8944
91.9583 103.798 86.9026
80.6594 102.553 85.7967
92.6557 104.908 86.6802
93.1174 106.343 86.5009
93.5706 105.199 87.4786
80.4254 104.495 85.7718
80.5477 104.926 86.9289
80.6671 103.49 86.8303
93.5661 107.87 86.9575
93.6024 106.935 87.7048
80.0387 106.389 85.355
80.3881 106.476 86.9332
94.5836 108.925 86.7691
94.7239 109.105 88.207
80.0226 108.326 86.0087
80.7742 107.887 87.4876
95.8468 109.844 87.0851
96.8603 111.064 85.9844
97.873 112.736 86.696
80.9441 109.717 86.9438
81.7536 111.255 87.0783
98.3153 113.988 87.5916
82.9709 112.587 86.9039
100.033 116.562 86.8952
98.9392 115.531 88.0419
82.9745 114.286 86.356
84.6179 114.483 87.033
93.3133 116.059 87.5226
92.8227 114.801 87.9279
91.7501 114.907 87.4109
95.1481 116.711 87.8885
93.9738 115.133 88.3012
97.1505 117.481 88.5111
95.7328 115.647 88.6613
99.2628 117.734 88.3202
97.5287 115.905 88.8252
100.693 118.677 87.5265
85.7681 115.251 86.9052
87.6488 114.987 86.8308
89.8384 115.196 87.0358
98.5826 119.297 88.5069
100.31 120.027 88.3172
86.4389 95.424 87.7695
84.8329 95.0012 87.7847
85.6019 93.6727 88.5215
87.7612 94.4863 88.4814
88.2334 96.241 87.7058
89.1759 95.5497 88.6302
89.8894 97.134 88.2018
90.8162 96.2636 89.0965
84.5181 96.233 87.1036
82.7799 96.9284 87.5667
83.6045 95.4354 87.7354
85.6737 97.2394 86.9632
87.3147 97.3287 87.0444
89.1525 98.0587 87.3871
91.4638 97.7662 88.8526
90.8038 98.6528 88.283
92.6573 99.2407 89.1067
83.4327 97.8165 86.5672
81.7358 98.7751 87.2489
92.1384 100.615 88.2681
92.5322 102.473 87.8099
93.3916 101.603 88.4663
81.0255 100.462 87.692
93.0779 103.846 87.5241
93.7545 103.304 88.3944
80.6734 102.051 87.4424
80.6889 103.263 88.2008
81.0159 101.475 88.9886
93.5774 105.066 88.5695
80.9467 104.771 88.3561
93.262 107.52 88.4064
81.2762 106.171 88.4351
93.345 109.031 88.969
81.7729 107.328 88.5685
95.9501 110.917 89.1029
94.2848 110.477 89.4692
96.9935 111.186 87.5636
81.7354 108.892 88.2256
83.9244 111.461 87.8089
82.7221 110.024 88.3615
84.2152 110.358 88.7338
94.5632 112.385 89.4369
93.4824 111.19 89.5537
92.7898 111.973 89.2982
96.3679 112.846 89.426
97.3667 112.52 88.41
84.5046 112.99 87.2885
85.4287 110.96 88.2635
86.0655 112.452 87.7579
86.8251 111.217 87.9922
92.7403 113.397 88.4934
91.7729 112.185 88.8052
90.9236 112.414 88.2441
94.5076 114.195 88.894
96.0383 114.296 89.3874
97.5536 114.272 88.8717
86.4217 113.807 87.3542
87.7455 112.303 87.6493
88.5651 113.645 87.3808
90.6078 113.667 87.5635
89.2888 112.172 87.7017
84.0724 94.305 88.3576
82.9079 95.2486 88.7373
83.6953 93.3747 89.2987
85.219 92.0371 89.5407
87.3403 93.0683 89.1934
89.7766 94.2846 89.3908
91.7206 95.972 89.8327
82.1402 97.0016 88.8041
92.8251 97.7037 89.5438
94.7078 98.6287 90.1205
81.6566 98.6655 89.1528
93.9499 100.347 89.1841
94.3963 101.969 89.4395
81.7391 100.065 90.2407
93.7713 103.398 89.6142
81.5339 103.151 89.4708
81.9289 101.842 90.4349
93.0378 105.284 89.1761
82.2087 104.539 89.6501
92.3185 106.601 88.904
92.0943 105.202 89.5651
91.2857 106.307 89.4257
82.4135 105.986 89.5877
92.1145 108.089 88.977
91.0347 107.86 89.311
82.6 106.95 89.3009
82.4452 107.975 88.7728
83.2932 107.481 89.4055
92.3042 110.088 89.1138
90.9163 109.164 89.2135
83.1509 108.681 89.0458
85.1467 109.982 88.8796
84.5561 109.008 89.108
85.8259 109.163 88.7855
91.0368 110.878 88.9539
89.731 108.922 89.3894
89.3913 109.814 88.921
88.2375 110.962 88.0431
86.7874 109.937 88.4471
89.6161 111.114 88.4147
88.1834 109.573 88.6808
87.1309 91.6669 90.1145
85.0973 91.1543 90.9967
87.3333 90.6333 91.1674
89.3117 91.4671 90.7736
89.0811 92.7031 89.8408
91.0129 92.7631 90.9071
90.4471 93.4716 90.1829
91.8915 94.1169 90.6402
82.7861 94.873 90.3012
83.6295 92.5296 90.8023
92.4116 95.3776 90.4899
93.5383 96.8796 90.2592
95.1344 96.623 90.9276
82.3499 96.7304 90.4222
96.2773 98.3642 91.2797
82.4002 97.9782 91.179
94.9461 100.557 90.2696
94.8341 99.9564 91.6501
83.1124 99.3016 91.879
93.7912 101.964 90.9006
92.9954 101.15 91.6878
83.0364 103.101 90.7242
82.9943 101.079 91.4962
92.1155 103.089 91.0459
91.5571 101.723 91.3798
90.635 102.748 90.9287
92.7885 103.856 90.1598
83.6114 104.812 90.3237
84.2803 102.803 91.5225
85.0914 104.333 90.8016
86.8447 104.404 90.9028
85.8695 102.986 91.516
88.5992 104.373 90.9542
87.5025 102.838 91.4252
90.425 104.292 90.6809
89.2205 102.773 91.1165
91.4858 104.726 90.0465
83.5175 106.481 90.011
84.8208 106.12 90.2289
86.3172 105.916 90.48
87.7701 105.783 90.6452
89.2784 105.855 90.477
90.5297 106.079 90.1257
84.2704 107.545 89.687
85.6822 107.586 89.644
87.0989 107.146 90.0762
88.4752 107.082 90.3825
89.8306 107.621 90.0162
86.9969 108.394 89.0413
88.3947 108.282 89.5569
85.7342 90.5557 92.2512
87.6545 89.8847 91.998
89.5691 90.3831 91.5751
91.4732 91.5883 91.6265
93.1363 93.3033 91.7961
93.7113 94.9164 91.0664
95.3093 94.9738 91.7491
83.4459 93.907 91.8743
84.3335 92.2776 92.7038
96.791 96.8616 91.9493
83.2911 95.9674 92.048
84.4005 94.4455 93.0019
94.9086 98.2179 93.0342
83.8055 97.4713 92.7123
93.1686 99.6002 92.4157
84.2895 98.7816 93.0033
84.4837 100.295 92.6237
85.5648 99.0595 93.2171
90.0891 100.292 91.8893
89.9968 99.0194 92.2834
88.8301 99.7988 92.1859
91.6382 100.444 91.7939
91.5085 99.1374 92.3216
84.8072 101.783 92.0723
86.0878 100.01 92.7342
86.5441 101.321 92.0822
88.3248 101.248 91.7427
87.5438 99.8358 92.5011
90.0088 101.484 91.2483
88.9216 88.9821 92.1915
86.956 89.362 92.9497
88.1723 88.261 93.6503
90.172 88.4794 92.9306
91.2404 89.8733 92.1373
92.0626 89.1983 93.0469
93.1476 91.4011 92.4218
93.9227 90.5857 93.3156
94.877 93.1735 92.5371
95.3275 91.9994 93.4316
96.4671 93.5099 92.8154
96.8305 92.6164 93.4769
85.7235 90.7728 93.693
96.827 95.0634 92.3108
97.5386 94.4045 93.4209
85.4446 92.2938 94.3161
95.8582 96.6744 93.5779
96.6097 95.7247 93.7392
85.04 96.0575 93.7066
85.6189 93.9946 94.1126
91.7351 96.6685 93.5349
91.6852 95.08 94.2359
90.2242 96.0182 93.8804
93.3498 97.3358 93.452
93.7004 96.0261 93.8818
95.3103 95.593 94.3257
85.533 97.6205 93.4792
86.7146 95.5485 94.2238
87.2702 97.0769 93.6969
89.3596 97.0602 93.3976
88.4402 95.9021 94.17
90.7204 98.0936 92.9681
92.7142 98.2388 92.9635
86.9394 98.4582 93.0292
88.6639 98.2777 92.6762
93.0089 88.8524 93.9049
91.6064 87.8988 93.9613
92.4881 87.2311 94.8277
93.7433 88.0418 94.676
94.1569 89.4973 94.0683
94.7331 88.98 94.6579
86.7466 89.4626 94.5853
88.0117 88.2905 95.3006
89.906 87.8659 94.2329
95.1994 90.5632 93.9426
96.6452 91.1684 94.2937
97.9179 92.9559 94.0025
97.796 91.6509 94.5919
86.5661 91.2199 95.2725
97.5828 94.1444 94.9659
98.0504 92.957 95.1948
86.8191 92.682 95.3163
96.4045 92.7941 95.8623
96.1849 94.6207 94.7756
87.4326 93.7672 95.1245
87.7503 94.6288 94.5188
89.6564 95.0144 94.4297
89.605 94.346 95.4171
91.3104 94.0807 95.5324
92.752 94.0954 94.8414
94.2655 94.5897 94.7023
91.0086 87.4628 95.3704
92.3472 86.8581 96.1655
93.6517 86.9484 95.6312
94.8376 87.8064 95.3516
95.6796 89.7853 94.6435
95.8265 88.8765 95.3002
96.3487 89.9277 94.9276
96.9594 89.4548 95.3078
87.5626 90.107 96.0657
88.2679 88.9095 96.7076
89.4577 87.9042 96.0149
97.9066 90.3445 95.069
98.5372 91.6911 95.3939
98.9059 90.6035 95.4793
99.2944 91.3747 95.9578
99.7547 90.4805 96.1831
88.1746 91.8303 96.2905
88.8165 90.4773 97.0881
97.7631 92.3262 96.1778
98.516 91.7926 96.5686
99.6241 91.1519 96.8455
88.4349 93.2518 95.9284
89.9299 91.6039 96.8792
90.0596 93.1661 96.4699
92.086 93.2065 96.0905
91.3965 92.2898 96.7588
93.7036 93.1774 95.7321
93.0788 91.9323 96.5369
95.1274 93.4948 95.4326
94.778 92.1388 96.27
96.0432 91.7229 96.8226
97.3702 91.7566 96.993
98.7656 91.4253 97.5072
91.1492 87.3829 96.8724
92.5308 86.8778 97.1894
93.6208 86.8262 96.8974
94.9301 87.0043 96.396
96.0602 87.9736 95.9095
97.0065 88.1473 96.3449
88.9643 88.7172 97.6913
89.9747 87.8011 97.6327
98.1488 88.7468 96.137
99.0979 89.6765 96.0885
100.104 90.1682 96.866
89.4678 89.6732 98.1514
99.8154 90.8306 97.6577
90.1315 90.6482 97.8841
91.4716 91.2986 97.5917
92.8851 91.0674 97.4757
92.4083 90.5793 98.4165
94.1459 91.0313 97.2418
95.2481 91.0922 97.2586
96.5242 91.212 97.7021
97.5376 91.0648 98.0487
98.603 90.9179 98.2701
93.721 90.6819 98.2846
94.9584 90.6407 98.2038
96.0378 90.7985 98.2827
96.9298 90.912 98.6005
92.2353 87.0636 97.7835
93.3769 86.9013 97.9778
94.7784 86.8918 97.8368
96.0828 87.1317 97.053
89.9373 88.5969 98.7255
91.1246 87.7387 98.3977
92.4322 87.3486 98.6229
94.0919 87.2583 98.9419
95.949 87.0895 98.372
97.3623 87.5854 97.5106
98.5622 87.922 97.5048
99.3842 88.7407 97.1271
100.057 89.3239 97.182
100.677 90.194 97.8318
100.575 89.4035 98.2336
90.2217 89.7509 98.9182
90.8532 88.8234 99.5808
99.8159 90.6418 98.5391
100.644 90.2117 98.9341
91.1258 90.3751 98.8119
92.1594 90.1813 99.416
98.4387 90.5095 99.5652
97.6638 90.7711 99.1285
99.3424 90.3952 99.1965
93.2025 90.315 99.1934
94.452 90.4006 99.2116
95.6178 90.5183 99.2832
96.6922 90.6806 99.4018
91.7415 88.0191 99.7923
93.0556 87.7216 100.023
94.3405 87.6472 99.9952
95.3425 87.3932 99.4773
96.7317 87.4797 99.0983
97.9369 87.6883 98.6253
99.1476 88.1252 98.3844
100.057 88.6853 98.1359
100.821 89.2368 99.2966
91.555 89.3826 99.9051
92.4501 88.6863 100.623
93.8559 88.4247 100.684
100.214 89.9946 99.7029
92.6367 89.798 100.407
93.6523 89.4316 100.89
98.1561 90.186 100.574
97.395 90.5293 100.154
99.2086 90.0723 100.28
93.8253 90.1576 100.176
95.1472 90.3148 100.164
96.3427 90.4404 100.438
95.2148 88.1117 100.494
96.3688 87.9124 100.255
97.5761 87.9802 99.8496
98.8459 88.338 99.625
99.969 88.5875 99.1569
94.8914 89.1138 100.924
96.0848 88.8687 100.878
97.1944 88.6848 100.626
98.3793 89.0773 100.528
99.7829 89.0745 100.138
94.6391 89.8991 100.838
95.8138 89.8682 100.952
97.0866 89.7261 100.934
POLYGONS 1324  5296
3 0 1 2
3 0 3 4
3 2 3 0
3 3 5 4
3 6 7 8
3 1 6 8
3 1 0 6
3 0 9 6
3 4 10 0
3 10 9 0
3 11 4 5
3 11 12 4
3 12 10 4
3 12 13 14
3 11 13 12
3 13 15 14
3 16 7 6
3 17 7 16
3 9 18 6
3 18 16 6
3 10 19 9
3 19 18 9
3 12 20 10
3 20 19 10
3 14 21 12
3 21 20 12
3 22 14 15
3 21 14 22
3 23 17 16
3 24 17 23
3 18 25 16
3 25 23 16
3 19 26 18
3 26 25 18
3 20 27 19
3 27 26 19
3 21 28 20
3 28 27 20
3 29 21 22
3 28 21 29
3 23 30 24
3 25 30 23
3 31 30 25
3 26 31 25
3 32 31 26
3 27 32 26
3 33 32 27
3 28 33 27
3 34 33 28
3 29 34 28
3 35 36 37
3 35 2 1
3 35 37 2
3 37 38 2
3 3 2 39
3 2 38 39
3 5 40 41
3 5 3 40
3 3 39 40
3 40 42 41
3 8 36 35
3 8 7 36
3 7 43 36
3 1 8 35
3 5 41 11
3 41 42 44
3 41 44 11
3 11 44 13
3 44 15 13
3 45 15 44
3 7 17 43
3 43 17 46
3 15 45 22
3 45 47 22
3 17 24 46
3 46 24 48
3 22 47 29
3 47 49 29
3 24 50 48
3 30 50 24
3 31 51 30
3 30 51 50
3 32 52 31
3 31 52 51
3 33 53 32
3 32 53 52
3 34 54 33
3 33 54 53
3 49 34 29
3 54 34 49
3 55 56 57
3 55 58 59
3 57 58 55
3 58 60 59
3 61 56 55
3 62 56 61
3 59 63 55
3 63 61 55
3 64 59 60
3 64 65 59
3 65 63 59
3 64 66 65
3 67 68 69
3 62 67 69
3 61 67 62
3 61 36 67
3 61 37 36
3 38 37 61
3 63 38 61
3 39 38 63
3 65 39 63
3 65 66 70
3 65 70 39
3 39 70 40
3 42 71 72
3 42 40 71
3 40 70 71
3 71 73 72
3 74 68 67
3 75 68 74
3 36 43 74
3 67 36 74
3 42 72 44
3 72 45 44
3 72 73 45
3 73 76 45
3 77 75 74
3 78 75 77
3 43 46 77
3 74 43 77
3 79 80 47
3 79 47 76
3 76 47 45
3 79 81 80
3 77 82 78
3 82 77 46
3 82 46 83
3 83 46 48
3 80 84 49
3 47 80 49
3 85 80 81
3 84 80 85
3 48 86 83
3 50 86 48
3 51 87 50
3 50 87 86
3 52 88 51
3 51 88 87
3 53 89 52
3 52 89 88
3 54 90 53
3 53 90 89
3 84 54 49
3 84 91 54
3 91 90 54
3 85 91 84
3 92 93 94
3 92 95 96
3 94 95 92
3 96 97 98
3 95 97 96
3 97 99 98
3 100 101 102
3 93 100 102
3 92 100 93
3 92 56 100
3 92 57 56
3 58 57 92
3 96 58 92
3 60 58 96
3 60 96 103
3 103 96 98
3 104 98 99
3 104 105 98
3 105 103 98
3 105 106 107
3 104 106 105
3 106 108 107
3 109 110 111
3 101 109 111
3 101 100 109
3 100 112 109
3 56 62 112
3 100 56 112
3 60 103 64
3 66 64 103
3 66 103 113
3 113 103 105
3 107 114 105
3 114 113 105
3 115 107 108
3 114 107 115
3 116 110 109
3 117 110 116
3 69 68 116
3 69 116 112
3 112 116 109
3 62 69 112
3 66 113 70
3 71 70 113
3 114 71 113
3 73 118 119
3 71 118 73
3 71 115 118
3 71 114 115
3 119 120 121
3 118 120 119
3 120 122 121
3 116 123 117
3 123 116 68
3 123 68 124
3 124 68 75
3 119 125 76
3 73 119 76
3 121 126 119
3 126 125 119
3 127 121 122
3 126 121 127
3 75 78 124
3 124 78 128
3 76 125 79
3 81 79 125
3 81 125 129
3 129 125 126
3 130 126 127
3 129 126 130
3 78 131 128
3 82 131 78
3 131 82 83
3 132 131 83
3 129 133 85
3 81 129 85
3 134 129 130
3 133 129 134
3 83 135 132
3 86 135 83
3 87 136 86
3 86 136 135
3 88 137 87
3 87 137 136
3 89 138 88
3 88 138 137
3 90 139 89
3 89 139 138
3 91 140 90
3 90 140 139
3 133 91 85
3 133 141 91
3 141 140 91
3 134 141 133
3 142 143 144
3 142 145 146
3 144 145 142
3 146 147 148
3 145 147 146
3 148 149 150
3 147 149 148
3 149 151 150
3 152 143 142
3 153 143 152
3 94 93 152
3 94 152 146
3 146 152 142
3 95 94 146
3 148 95 146
3 97 95 148
3 150 97 148
3 150 99 97
3 150 151 99
3 151 154 99
3 155 156 157
3 153 155 157
3 152 155 153
3 152 101 155
3 152 102 101
3 93 102 152
3 99 154 158
3 104 99 158
3 106 104 159
3 104 158 159
3 159 108 106
3 160 108 159
3 111 156 155
3 111 110 156
3 110 161 156
3 101 111 155
3 108 160 115
3 160 162 115
3 110 117 161
3 161 117 163
3 115 162 164
3 118 115 164
3 120 118 165
3 118 164 165
3 165 122 120
3 166 122 165
3 117 167 163
3 123 167 117
3 167 123 124
3 168 167 124
3 122 166 127
3 166 169 127
3 124 128 168
3 168 128 170
3 127 169 130
3 169 171 130
3 128 172 170
3 131 172 128
3 172 131 132
3 173 172 132
3 174 175 176
3 175 174 177
3 130 171 134
3 171 178 134
3 132 179 173
3 135 179 132
3 136 180 135
3 135 180 179
3 176 137 174
3 176 180 137
3 180 136 137
3 174 181 177
3 174 137 181
3 137 138 181
3 139 182 138
3 138 182 181
3 140 183 139
3 139 183 182
3 141 184 140
3 140 184 183
3 178 141 134
3 184 141 178
3 185 186 187
3 185 188 189
3 187 188 185
3 189 190 191
3 188 190 189
3 191 192 193
3 190 192 191
3 192 194 193
3 195 196 197
3 186 195 197
3 186 185 195
3 185 198 195
3 189 199 185
3 199 198 185
3 191 200 189
3 200 199 189
3 193 201 191
3 201 200 191
3 202 193 194
3 201 193 202
3 203 196 195
3 204 196 203
3 144 143 203
3 144 203 198
3 198 203 195
3 145 144 198
3 199 145 198
3 147 145 199
3 200 147 199
3 149 147 200
3 201 149 200
3 201 151 149
3 201 202 151
3 202 205 151
3 206 204 203
3 207 204 206
3 143 153 206
3 203 143 206
3 151 205 154
3 205 208 154
3 157 207 206
3 157 156 207
3 156 209 207
3 153 157 206
3 154 208 210
3 158 154 210
3 159 158 211
3 158 210 211
3 160 212 213
3 160 159 212
3 159 211 212
3 212 214 213
3 156 161 209
3 209 161 215
3 213 216 162
3 160 213 162
3 217 213 214
3 216 213 217
3 161 163 215
3 215 163 218
3 162 216 164
3 216 217 219
3 216 219 164
3 164 219 165
3 219 166 165
3 220 166 219
3 163 221 218
3 167 221 163
3 221 167 168
3 222 221 168
3 166 220 169
3 220 223 169
3 224 170 225
3 224 222 170
3 222 168 170
3 225 226 227
3 224 225 227
3 226 228 229
3 227 226 229
3 228 230 231
3 229 228 231
3 230 232 233
3 231 230 233
3 232 234 235
3 233 232 235
3 235 234 236
3 169 223 171
3 223 237 171
3 170 172 225
3 173 225 172
3 173 238 225
3 238 226 225
3 228 226 239
3 239 226 238
3 175 239 176
3 175 230 239
3 230 228 239
3 177 230 175
3 177 240 230
3 240 232 230
3 234 232 241
3 241 232 240
3 242 236 234
3 242 234 243
3 243 234 241
3 243 244 245
3 242 243 245
3 244 237 245
3 244 178 237
3 178 171 237
3 173 179 238
3 180 238 179
3 239 238 180
3 176 239 180
3 177 181 240
3 182 240 181
3 241 240 182
3 183 241 182
3 243 241 183
3 184 243 183
3 244 243 184
3 178 244 184
3 246 247 248
3 246 249 250
3 248 249 246
3 250 251 252
3 249 251 250
3 252 253 254
3 251 253 252
3 253 255 254
3 256 257 258
3 247 256 258
3 246 256 247
3 246 186 256
3 246 187 186
3 188 187 246
3 250 188 246
3 190 188 250
3 252 190 250
3 192 190 252
3 254 192 252
3 254 194 192
3 254 255 194
3 255 259 194
3 197 257 256
3 197 196 257
3 196 260 257
3 186 197 256
3 261 262 202
3 261 202 259
3 259 202 194
3 261 263 262
3 264 265 266
3 264 266 260
3 264 260 204
3 204 260 196
3 262 267 205
3 202 262 205
3 268 262 263
3 267 262 268
3 269 265 264
3 270 265 269
3 204 207 269
3 264 204 269
3 267 271 208
3 205 267 208
3 272 267 268
3 271 267 272
3 273 270 269
3 274 270 273
3 207 209 273
3 269 207 273
3 208 271 210
3 271 272 275
3 271 275 210
3 210 275 211
3 212 211 276
3 211 275 276
3 276 214 212
3 277 214 276
3 273 278 274
3 278 273 209
3 278 209 279
3 279 209 215
3 214 277 217
3 277 280 217
3 215 218 279
3 279 218 281
3 282 219 217
3 282 217 283
3 283 217 280
3 219 282 220
3 218 284 281
3 221 284 218
3 284 221 222
3 285 284 222
3 286 287 288
3 286 289 290
3 287 286 290
3 289 291 292
3 290 289 292
3 291 293 294
3 292 291 294
3 283 294 293
3 283 293 282
3 282 293 295
3 220 295 223
3 282 295 220
3 222 296 285
3 224 296 222
3 227 297 224
3 224 297 296
3 229 298 227
3 227 298 297
3 288 231 286
3 288 298 231
3 298 229 231
3 233 286 231
3 289 286 233
3 235 289 233
3 291 289 235
3 236 291 235
3 236 299 291
3 299 293 291
3 295 293 300
3 300 293 299
3 223 300 237
3 295 300 223
3 236 242 299
3 245 299 242
3 300 299 245
3 237 300 245
3 301 302 303
3 301 304 305
3 303 304 301
3 305 306 307
3 304 306 305
3 306 308 307
3 309 310 311
3 302 309 311
3 302 301 309
3 301 312 309
3 305 313 301
3 313 312 301
3 307 314 305
3 314 313 305
3 315 307 308
3 315 316 307
3 316 314 307
3 315 317 316
3 318 310 309
3 319 310 318
3 248 247 318
3 248 318 312
3 312 318 309
3 249 248 312
3 313 249 312
3 251 249 313
3 314 251 313
3 253 251 314
3 316 253 314
3 255 320 321
3 253 320 255
3 253 317 320
3 253 316 317
3 320 322 321
3 258 319 318
3 258 257 319
3 257 323 319
3 247 258 318
3 321 324 259
3 255 321 259
3 325 321 322
3 324 321 325
3 326 327 328
3 326 328 323
3 326 323 260
3 260 323 257
3 259 324 261
3 324 263 261
3 324 325 263
3 325 329 263
3 266 327 326
3 266 265 327
3 265 330 327
3 260 266 326
3 263 329 268
3 329 331 268
3 265 270 330
3 330 270 332
3 268 331 272
3 331 333 272
3 270 274 332
3 332 274 334
3 335 275 272
3 335 272 336
3 336 272 333
3 275 337 276
3 335 337 275
3 276 337 277
3 274 338 334
3 278 338 274
3 279 339 340
3 279 340 278
3 278 340 338
3 340 339 341
3 342 343 344
3 336 343 342
3 336 342 335
3 335 342 345
3 337 335 346
3 346 335 345
3 277 346 280
3 337 346 277
3 339 281 347
3 279 281 339
3 348 341 339
3 348 339 349
3 349 339 347
3 348 349 350
3 351 352 353
3 344 352 351
3 344 351 342
3 342 351 354
3 345 342 355
3 355 342 354
3 346 345 356
3 356 345 355
3 280 356 283
3 346 356 280
3 281 284 347
3 285 347 284
3 285 357 347
3 357 349 347
3 358 350 349
3 358 349 359
3 359 349 357
3 359 360 361
3 358 359 361
3 353 361 360
3 351 353 360
3 351 360 288
3 351 288 287
3 290 351 287
3 354 351 290
3 292 354 290
3 355 354 292
3 294 355 292
3 356 355 294
3 283 356 294
3 285 296 357
3 297 357 296
3 359 357 297
3 298 359 297
3 360 359 298
3 288 360 298
3 362 363 364
3 362 303 302
3 362 364 303
3 364 365 303
3 304 303 366
3 303 365 366
3 306 304 367
3 304 366 367
3 367 308 306
3 368 308 367
3 311 363 362
3 311 310 363
3 310 369 363
3 302 311 362
3 308 368 370
3 315 308 370
3 370 317 315
3 371 317 370
3 310 319 369
3 369 319 372
3 317 371 373
3 320 317 373
3 373 322 320
3 374 322 373
3 319 323 372
3 372 323 375
3 322 374 325
3 374 376 325
3 328 377 378
3 327 377 328
3 375 323 328
3 378 375 328
3 325 376 329
3 376 379 329
3 327 330 377
3 377 330 380
3 381 382 383
3 381 379 382
3 381 331 379
3 331 329 379
3 330 332 380
3 380 332 384
3 385 381 383
3 386 385 383
3 331 385 333
3 381 385 331
3 387 334 388
3 387 384 334
3 384 332 334
3 387 388 389
3 390 385 386
3 391 390 386
3 333 390 336
3 385 390 333
3 334 338 388
3 388 392 389
3 388 338 392
3 338 340 392
3 341 393 394
3 341 394 340
3 340 394 392
3 394 393 395
3 396 397 398
3 391 397 396
3 390 391 396
3 390 396 344
3 390 344 343
3 336 390 343
3 341 348 393
3 350 399 400
3 348 350 400
3 348 400 395
3 348 395 393
3 399 401 402
3 400 399 402
3 398 402 401
3 396 398 401
3 396 401 353
3 396 353 352
3 344 396 352
3 350 358 399
3 361 399 358
3 401 399 361
3 353 401 361
3 403 404 405
3 403 406 407
3 405 406 403
3 407 408 409
3 406 408 407
3 408 410 409
3 364 411 412
3 363 411 364
3 404 403 365
3 404 365 412
3 412 365 364
3 366 365 403
3 407 366 403
3 367 366 407
3 409 367 407
3 368 413 414
3 367 413 368
3 367 410 413
3 367 409 410
3 413 415 414
3 363 369 411
3 411 369 416
3 368 414 370
3 414 371 370
3 414 415 371
3 415 417 371
3 369 372 416
3 416 372 418
3 419 373 371
3 419 371 420
3 420 371 417
3 373 419 374
3 372 375 418
3 418 375 421
3 422 419 420
3 423 422 420
3 374 422 376
3 419 422 374
3 378 377 424
3 378 424 425
3 378 425 375
3 375 425 421
3 426 427 428
3 423 427 426
3 423 426 422
3 422 426 429
3 376 429 379
3 422 429 376
3 424 380 430
3 377 380 424
3 431 425 424
3 431 424 432
3 432 424 430
3 432 433 434
3 431 432 434
3 433 435 436
3 434 433 436
3 435 437 438
3 436 435 438
3 428 438 437
3 428 437 426
3 426 437 439
3 382 439 383
3 382 429 439
3 429 426 439
3 379 429 382
3 430 384 440
3 380 384 430
3 432 430 441
3 441 430 440
3 433 432 442
3 442 432 441
3 435 433 443
3 443 433 442
3 437 435 444
3 444 435 443
3 439 437 445
3 445 437 444
3 383 445 386
3 439 445 383
3 384 387 440
3 389 440 387
3 389 446 440
3 446 441 440
3 442 441 447
3 447 441 446
3 443 442 448
3 448 442 447
3 444 443 449
3 449 443 448
3 445 444 450
3 450 444 449
3 386 450 391
3 445 450 386
3 389 392 446
3 394 446 392
3 447 446 394
3 395 447 394
3 395 451 447
3 451 448 447
3 449 448 452
3 452 448 451
3 397 452 398
3 397 450 452
3 450 449 452
3 391 450 397
3 395 400 451
3 402 451 400
3 452 451 402
3 398 452 402
3 405 453 454
3 404 453 405
3 406 405 455
3 405 454 455
3 408 406 456
3 406 455 456
3 410 457 458
3 410 408 457
3 408 456 457
3 457 459 458
3 412 411 460
3 412 460 461
3 412 461 404
3 404 461 453
3 410 458 413
3 458 415 413
3 458 459 415
3 459 462 415
3 460 463 464
3 460 411 463
3 411 416 463
3 461 460 464
3 415 462 417
3 462 465 417
3 416 418 463
3 463 418 466
3 417 465 420
3 465 467 420
3 468 421 469
3 468 466 421
3 466 418 421
3 468 469 470
3 471 472 473
3 471 474 475
3 472 471 475
3 474 467 475
3 474 423 467
3 423 420 467
3 469 425 476
3 421 425 469
3 477 470 469
3 477 469 478
3 478 469 476
3 478 479 480
3 477 478 480
3 473 480 479
3 473 479 471
3 471 479 481
3 427 481 428
3 427 474 481
3 474 471 481
3 423 474 427
3 425 431 476
3 434 476 431
3 478 476 434
3 436 478 434
3 479 478 436
3 438 479 436
3 481 479 438
3 428 481 438
3 482 483 484
3 482 485 486
3 484 485 482
3 486 487 488
3 485 487 486
3 488 489 490
3 487 489 488
3 490 491 492
3 489 491 490
3 491 493 492
3 454 483 482
3 454 453 483
3 453 494 483
3 455 454 482
3 486 455 482
3 456 455 486
3 488 456 486
3 457 456 488
3 490 457 488
3 459 457 490
3 459 490 495
3 495 490 492
3 496 492 493
3 495 492 496
3 453 461 494
3 494 461 497
3 495 498 462
3 459 495 462
3 499 495 496
3 498 495 499
3 464 463 500
3 464 500 501
3 464 501 461
3 461 501 497
3 502 503 504
3 502 505 506
3 503 502 506
3 498 507 506
3 498 506 465
3 498 465 462
3 465 506 505
3 499 507 498
3 500 466 508
3 463 466 500
3 509 501 500
3 509 500 510
3 510 500 508
3 510 511 512
3 509 510 512
3 504 512 511
3 504 511 502
3 502 511 513
3 505 502 514
3 514 502 513
3 465 514 467
3 505 514 465
3 466 468 508
3 470 508 468
3 470 515 508
3 515 510 508
3 511 510 516
3 516 510 515
3 472 516 473
3 472 513 516
3 513 511 516
3 475 513 472
3 514 513 475
3 467 514 475
3 470 477 515
3 480 515 477
3 516 515 480
3 473 516 480
3 517 518 519
3 517 520 521
3 519 520 517
3 520 522 521
3 484 523 524
3 483 523 484
3 485 484 525
3 484 524 525
3 518 517 487
3 518 487 525
3 525 487 485
3 489 487 517
3 521 489 517
3 521 522 526
3 521 526 489
3 489 526 491
3 493 527 528
3 493 491 527
3 491 526 527
3 527 529 528
3 483 494 523
3 523 494 530
3 528 531 496
3 493 528 496
3 532 528 529
3 531 528 532
3 494 497 530
3 530 497 533
3 531 534 535
3 531 535 496
3 496 535 499
3 532 534 531
3 536 501 537
3 536 533 501
3 533 497 501
3 537 538 539
3 536 537 539
3 538 504 503
3 538 503 539
3 539 503 540
3 506 541 503
3 503 541 540
3 507 542 506
3 506 542 541
3 535 507 499
3 542 507 535
3 501 509 537
3 512 537 509
3 538 537 512
3 504 538 512
3 519 543 544
3 518 543 519
3 520 519 545
3 519 544 545
3 522 546 547
3 522 520 546
3 520 545 546
3 547 548 549
3 546 548 547
3 548 550 549
3 524 523 551
3 552 524 551
3 552 553 524
3 553 525 524
3 543 518 525
3 553 543 525
3 522 547 526
3 527 526 547
3 549 527 547
3 529 554 555
3 527 554 529
3 527 550 554
3 527 549 550
3 555 556 557
3 554 556 555
3 556 558 557
3 551 530 559
3 523 530 551
3 560 552 551
3 559 560 551
3 555 561 532
3 529 555 532
3 557 562 555
3 562 561 555
3 563 557 558
3 562 557 563
3 559 533 564
3 530 533 559
3 565 560 559
3 565 559 566
3 566 559 564
3 566 567 568
3 565 566 568
3 567 569 570
3 568 567 570
3 569 571 572
3 570 569 572
3 571 535 534
3 571 534 572
3 572 534 573
3 561 534 532
3 561 574 534
3 574 573 534
3 562 574 561
3 575 574 562
3 563 575 562
3 533 536 564
3 539 564 536
3 566 564 539
3 540 566 539
3 567 566 540
3 541 567 540
3 569 567 541
3 542 569 541
3 571 569 542
3 535 571 542
3 544 576 577
3 543 576 544
3 545 544 578
3 544 577 578
3 546 545 579
3 545 578 579
3 548 546 580
3 546 579 580
3 580 550 548
3 581 550 580
3 553 582 583
3 552 582 553
3 576 543 553
3 583 576 553
3 550 581 584
3 554 550 584
3 556 554 585
3 554 584 585
3 585 558 556
3 586 558 585
3 552 560 582
3 582 560 587
3 558 586 563
3 586 588 563
3 560 589 587
3 565 589 560
3 568 590 565
3 565 590 589
3 591 592 590
3 591 590 570
3 570 590 568
3 570 572 593
3 591 570 593
3 572 573 594
3 593 572 594
3 573 574 595
3 594 573 595
3 596 595 574
3 596 574 597
3 597 574 575
3 588 575 563
3 597 575 588
3 591 598 592
3 593 598 591
3 599 598 593
3 594 599 593
3 600 599 594
3 595 600 594
3 601 600 595
3 596 601 595
3 577 576 602
3 577 603 578
3 602 603 577
3 578 604 579
3 603 604 578
3 579 605 580
3 604 605 579
3 580 605 581
3 583 582 606
3 583 606 607
3 576 583 607
3 576 607 608
3 576 608 602
3 603 602 608
3 609 603 608
3 604 603 609
3 610 604 609
3 605 604 610
3 611 605 610
3 581 605 611
3 581 611 584
3 584 611 612
3 585 584 613
3 584 612 613
3 586 614 615
3 586 585 614
3 585 613 614
3 614 616 615
3 606 587 617
3 582 587 606
3 618 607 606
3 617 618 606
3 615 619 588
3 586 615 588
3 620 615 616
3 619 615 620
3 587 589 617
3 617 621 618
3 617 589 621
3 589 590 621
3 621 590 592
3 622 621 592
3 597 623 624
3 596 597 624
3 619 597 588
3 619 625 597
3 625 623 597
3 620 625 619
3 592 626 622
3 598 626 592
3 599 627 598
3 598 627 626
3 600 628 599
3 599 628 627
3 601 629 600
3 600 629 628
3 624 601 596
3 629 601 624
3 608 607 630
3 608 631 609
3 630 631 608
3 632 609 631
3 632 633 609
3 633 610 609
3 611 610 634
3 610 633 634
3 612 611 635
3 611 634 635
3 613 612 636
3 612 635 636
3 614 613 637
3 613 636 637
3 637 616 614
3 638 616 637
3 630 618 639
3 607 618 630
3 631 630 640
3 640 630 639
3 641 632 631
3 640 641 631
3 616 638 620
3 638 642 620
3 618 621 639
3 622 639 621
3 622 643 639
3 643 640 639
3 644 641 640
3 643 644 640
3 623 645 646
3 624 623 646
3 625 647 623
3 623 647 645
3 642 625 620
3 647 625 642
3 622 626 643
3 643 648 644
3 643 626 648
3 626 627 648
3 628 649 627
3 627 649 648
3 629 650 628
3 628 650 649
3 646 629 624
3 650 629 646
3 633 632 651
3 633 652 634
3 651 652 633
3 634 653 635
3 652 653 634
3 635 654 636
3 653 654 635
3 636 655 637
3 654 655 636
3 637 655 638
3 651 641 656
3 632 641 651
3 652 651 657
3 657 651 656
3 653 652 658
3 658 652 657
3 654 653 659
3 659 653 658
3 655 654 660
3 660 654 659
3 638 660 642
3 655 660 638
3 656 644 661
3 641 644 656
3 657 656 662
3 662 656 661
3 658 657 663
3 663 657 662
3 645 663 646
3 645 659 663
3 659 658 663
3 647 659 645
3 660 659 647
3 642 660 647
3 644 648 661
3 649 661 648
3 662 661 649
3 650 662 649
3 663 662 650
3 646 663 650
