# vtk DataFile Version 3.0
this file was written using fslvtkio
ASCII
DATASET POLYDATA
POINTS 642 float
119.344 138.198 146.383
103.404 134.04 145.299
104.229 128.158 143.242
117.853 131.657 142.673
114.479 129.39 148.527
116.013 137.754 137.601
106.497 135.324 138.464
106.12 126.537 149.675
110.423 134.377 148.813
111.832 125.123 145.916
111.589 131.949 140.934
110.819 138.649 142.727
107.645 130.346 149.573
113.042 132.083 149.024
111.176 126.605 150.244
108.868 123.318 148.614
114.526 125.305 147.938
108.442 138.486 139.847
110.509 137.353 136.219
113.741 140.242 139.439
109.204 134.018 139.479
114.039 134.544 137.923
116.741 130.382 146.071
117.301 133.915 147.627
119.536 135.202 143.908
118.563 134.909 139.302
118.539 139.368 141.542
103.446 130.24 147.718
103.562 125.589 146.407
101.862 131.39 143.267
104.491 135.382 141.96
105.293 132.367 141.769
115.198 139.031 144.182
115.063 136.655 148.363
110.545 137.164 146.364
106.67 136.968 144.267
106.2 134.051 147.915
115.083 132.021 141.654
111.205 128.252 143.252
114.811 128.146 144.841
107.97 129.919 142.524
107.34 125.519 144.948
110.327 130.904 149.01
111.743 129.294 149.573
109.468 128.68 150.057
113.256 128.022 149.699
113.802 130.694 148.818
111.797 133.284 149.24
108.97 132.387 149.393
106.697 128.567 149.955
108.671 126.209 150.356
110.353 124.193 150.45
113.252 125.629 149.832
112.392 123.262 149.013
114.977 127.208 148.685
107.303 124.394 149.531
110.744 123.841 147.137
113.773 124.411 146.847
109.448 138.44 137.691
112.135 139.334 137.54
111.03 139.265 139.383
114.933 139.442 138.4
113.403 137.709 136.697
108.183 136.436 136.93
107.223 137.339 138.866
109.711 138.735 141.203
112.175 139.669 141.118
111.519 134.355 138.41
112.372 135.731 136.494
109.753 135.09 137.014
115.262 136.05 137.006
112.757 133.555 139.555
110.472 133.089 140.289
107.805 134.445 138.535
116.994 132.548 146.6
119.02 134.572 146.067
118.081 133.197 144.888
120.06 136.815 145.292
118.928 135.842 147.645
115.387 131.966 147.617
115.877 129.68 147.517
117.341 131.153 144.369
118.881 133.325 143.032
119.363 135.13 141.547
119.563 137.308 142.759
118.973 137.266 140.214
119.4 139.122 144.074
118.397 133.182 141.153
117.815 136.494 137.888
117.416 138.852 139.33
102.677 127.866 146.932
101.476 128.089 144.621
102.13 130.471 145.51
102.509 129.246 143.132
103.183 126.474 144.24
104.581 125.74 148.426
104.476 128.342 148.923
103.084 132.254 146.582
102.156 132.886 144.336
102.36 133.706 142.441
103.305 131.583 142.347
104.056 133.727 140.894
104.575 130.211 142.708
103.535 134.834 143.634
105.251 135.775 139.917
105.911 133.722 139.781
115.359 138.201 146.64
112.916 137.232 147.388
112.949 138.194 145.335
110.473 135.98 147.779
112.629 135.476 148.465
117.481 137.493 147.967
117.451 138.888 145.535
112.868 139.021 143.237
110.716 137.951 144.52
108.462 137.175 145.482
108.143 135.842 147.263
106.094 135.93 146.44
108.223 134.129 148.478
108.94 137.714 143.382
104.65 135.821 144.88
104.366 134.2 146.94
113.241 130.126 142.574
113.066 128.172 143.918
115.051 130.019 142.999
113.43 126.304 145.431
111.484 126.763 144.672
111.47 130.216 142.233
113.362 132.191 141.305
116.719 131.661 141.965
116.493 129.863 143.771
107.498 127.428 143.211
109.454 126.881 143.911
109.585 128.883 142.774
109.676 125.308 145.539
105.389 126.673 143.7
106.098 128.821 143.03
109.845 131.17 141.904
115.221 133.06 148.403
114.25 134.377 149.084
116.796 135.295 148.754
117.261 139.76 143.042
114.612 139.9 141.799
116.37 140.187 140.38
114.853 126.286 146.293
115.432 127.701 147.153
115.735 128.917 145.745
116.832 133.484 140.645
116.471 134.619 138.395
114.937 133.656 140.08
106.489 132.231 149.207
105.09 130.333 149.168
104.225 132.31 148.316
105.381 136.593 142.836
106.418 137.081 140.873
107.677 138.048 141.993
105.265 124.889 145.534
105.951 123.845 147.787
108.042 124.088 146.754
108.633 132.188 141.341
107.264 133.109 140.87
106.606 131.106 142.392
110.962 130.32 149.172
110.718 129.085 149.975
109.799 130.047 149.463
110.346 127.71 150.18
111.458 128.101 150.09
112.136 130.601 149.07
111.715 131.368 148.991
108.991 130.541 149.294
108.646 129.596 149.808
112.429 128.666 149.773
112.768 129.935 149.264
113.305 129.322 149.208
113.365 131.369 148.925
112.313 127.286 150.134
113.865 128.694 149.092
114.061 130.053 148.638
111.129 132.043 149.247
109.651 131.536 149.204
110.347 132.631 149.271
108.333 131.263 149.392
112.439 132.728 149.168
111.066 133.751 149.057
109.749 133.381 149.106
108.152 128.582 150.028
109.144 127.462 150.165
107.821 127.46 150.153
110.015 126.401 150.284
107.24 129.512 149.788
106.427 127.502 149.863
107.401 126.32 150.086
111.955 124.837 150.202
112.977 124.195 149.721
111.459 123.356 150.01
113.726 124.089 148.644
113.981 125.166 149.153
112.336 126.02 150.227
110.864 125.435 150.444
109.689 123.315 149.698
110.611 122.977 148.956
114.296 126.346 149.338
113.391 126.816 149.961
114.265 127.665 149.247
114.858 126.041 148.518
114.771 128.242 148.624
109.538 125.278 150.455
108.788 124.034 150.158
108.088 125.253 150.101
108.123 123.625 149.171
106.637 125.444 149.7
111.603 123.251 148.127
113.361 123.577 147.918
112.342 123.852 147.059
114.381 124.542 147.313
109.875 123.381 147.909
111.418 124.568 146.643
112.738 124.647 146.448
110.714 139.05 137.479
111.611 139.471 138.498
110.255 139.089 138.536
112.36 139.874 139.227
112.925 139.878 138.496
111.299 138.365 137.007
109.853 138.02 136.746
109.074 138.589 138.691
109.742 138.916 139.446
113.566 139.554 137.735
112.709 138.594 137.163
114.039 138.68 137.517
111.958 137.666 136.443
114.298 140.134 138.804
115.301 138.568 138.02
114.715 137.759 137.13
108.781 137.543 137.244
108.345 137.96 138.247
107.552 136.999 137.77
107.869 137.976 139.306
109.239 137.011 136.376
107.19 135.858 137.602
106.691 136.38 138.441
110.239 139.138 140.22
111.65 139.657 140.125
110.906 139.242 141.045
112.943 140.069 140.215
109.088 138.804 140.47
110.365 138.636 141.967
111.424 139.241 141.953
111.936 134.924 137.328
111.003 135.395 136.485
110.628 134.659 137.573
110.072 136.186 136.246
111.469 136.648 136.195
113.228 135.235 137.286
112.754 134.527 138.057
110.323 134.332 138.787
109.555 134.491 138.096
112.77 136.874 136.403
113.702 135.938 136.684
114.292 136.962 136.803
114.591 135.185 137.267
115.696 137.064 137.178
112.223 133.991 138.997
110.985 133.965 139.405
111.593 133.368 139.892
109.983 133.764 139.973
113.402 134.047 138.707
112.121 132.835 140.276
111.13 132.556 140.568
108.723 134.748 137.608
109.003 135.745 136.693
107.881 135.257 137.462
108.503 134.214 138.945
107.13 134.889 138.382
117.974 133.454 146.351
118.634 133.82 145.437
117.383 132.787 145.733
118.973 134.148 144.403
119.302 134.885 145.077
118.182 134.262 146.911
117.234 133.261 147.044
117.056 131.44 146.319
117.478 131.863 145.45
119.759 135.638 145.794
119.143 135.236 146.842
119.828 136.301 146.485
118.286 134.895 147.752
119.905 135.984 144.644
119.917 137.532 145.86
119.41 137.034 147.222
116.35 132.236 147.175
116.476 130.969 146.922
115.698 130.814 147.507
116.448 129.947 146.828
116.462 132.908 147.638
114.912 130.629 148.043
115.09 129.598 148.035
117.855 131.938 144.627
118.493 133.305 144.027
118.221 132.16 143.6
119.303 134.223 143.374
117.029 130.777 145.244
117.716 131.401 143.387
118.488 132.502 142.773
119.441 136.279 142.187
119.248 137.28 141.535
119.282 136.257 140.987
118.835 138.268 140.856
119.279 138.328 142.107
119.629 136.26 143.296
119.397 135.161 142.7
119.119 135.162 140.414
119.117 136.155 139.617
119.596 138.159 143.421
119.995 136.835 143.984
119.947 137.836 144.662
119.159 139.286 142.787
119.465 138.666 145.211
119.232 134.104 142.259
119.067 134.146 141.125
118.851 133.127 142.05
118.526 134.227 140.338
118.356 132.357 141.908
118.472 136.889 139.024
118.441 138.163 139.694
117.886 137.851 138.499
118.21 139.27 140.303
118.46 135.687 138.592
117.031 137.194 137.665
116.695 138.339 138.409
101.954 127.963 145.738
101.731 129.388 144.949
102.319 129.177 146.051
101.787 130.886 144.472
101.317 129.856 143.939
102.236 126.577 145.494
102.874 126.665 146.67
103.001 129.064 147.191
102.757 130.199 146.558
101.838 128.71 143.682
102.047 126.957 144.343
102.554 127.771 143.64
103.08 125.866 145.262
101.986 130.225 143.204
103.302 128.604 143.204
103.542 127.382 143.55
103.546 126.843 147.699
103.52 128.097 147.975
104.39 127.097 148.628
103.587 129.254 148.395
103.993 125.611 147.465
105.322 126.066 149.247
105.286 127.491 149.351
102.663 131.267 146.056
102.064 131.62 145.026
102.54 132.423 145.455
101.822 132.095 143.857
103.106 131.229 147.235
103.18 133.066 145.854
102.763 133.39 144.785
102.338 132.494 141.914
103.488 132.636 141.431
103.089 133.772 141.622
104.473 132.934 141.085
104.242 131.899 141.904
102.499 131.364 142.765
101.953 132.434 142.825
103.128 134.679 142.103
104.068 134.694 141.33
103.867 130.941 142.753
102.949 130.567 143.029
103.502 129.728 142.877
104.956 131.271 142.489
104.283 129.076 142.865
101.999 133.234 143.338
102.761 134.355 143.01
102.536 133.947 143.883
103.825 135.244 142.805
103.253 134.491 144.429
104.765 134.712 140.588
105.014 133.687 140.339
105.424 134.647 139.636
105.567 133.085 140.846
104.86 135.652 140.946
105.78 135.603 139.029
106.21 134.524 139.071
114.123 137.758 147.113
112.95 137.618 146.316
114.134 138.167 145.972
111.844 137.632 145.775
111.816 137.232 146.736
114.022 137.201 148.03
115.272 137.667 147.791
115.273 138.663 145.448
114.093 138.671 144.861
111.723 136.689 147.54
112.815 136.522 148.094
111.595 135.876 148.14
113.774 136.115 148.363
110.612 136.622 147.189
110.46 135.102 148.373
111.507 134.926 148.716
116.474 138.051 147.431
116.496 138.651 146.194
117.599 138.256 146.908
116.332 138.993 144.863
116.268 137.158 148.273
118.558 137.728 147.298
118.495 138.591 146.122
112.971 138.577 144.311
111.76 138.112 144.914
111.74 138.525 143.907
110.67 137.619 145.489
114.059 138.961 143.629
111.729 138.932 142.914
110.798 138.217 143.578
108.279 136.614 146.484
107.094 135.979 146.853
107.21 136.693 146.063
106.079 135.045 147.202
107.077 135.023 147.602
109.308 136.562 146.948
109.501 137.082 145.955
107.434 137.065 144.982
106.334 136.563 145.48
108.076 135.054 147.961
109.361 135.946 147.515
109.29 135.094 148.26
107.238 134.105 148.218
109.283 134.27 148.716
109.7 137.503 145.018
108.637 137.458 144.455
109.77 137.83 143.999
107.821 137.363 143.838
109.988 138.143 143.017
105.332 135.947 145.712
105.218 135.077 146.649
104.477 135.032 145.872
105.196 134.221 147.509
105.717 136.405 144.624
104.09 134.85 145.008
103.859 134.108 146.111
113.197 129.11 143.177
114.113 128.93 143.251
114.172 130.103 142.841
114.825 129.014 143.728
114.003 128.079 144.259
112.209 128.253 143.488
112.31 129.131 142.955
114.15 131.072 142.328
114.986 131.034 142.424
113.269 127.316 144.751
112.361 127.393 144.342
112.442 126.587 145.143
111.348 127.545 143.9
114.1 127.231 145.199
112.627 125.576 145.747
111.607 125.898 145.379
112.384 130.169 142.433
113.335 131.275 142.166
112.433 131.274 141.958
114.26 132.116 141.567
111.429 129.217 142.709
111.496 131.331 141.762
112.448 131.996 140.987
115.838 130.93 142.65
115.814 129.803 143.311
116.574 130.831 142.93
115.575 129.085 144.268
115.81 131.809 141.855
117.428 131.598 142.358
117.203 130.922 143.347
108.406 127.081 143.557
109.53 127.727 143.041
108.57 128.121 142.972
110.404 128.549 142.998
110.375 127.611 143.59
108.428 126.095 144.359
107.412 126.482 143.828
107.789 128.587 142.839
108.752 129.327 142.556
110.619 126.809 144.258
109.627 126.098 144.629
110.699 126.049 145.022
108.527 125.411 145.309
110.784 125.195 145.821
106.503 127.018 143.255
106.801 128.094 143.064
105.727 127.74 143.223
107.09 129.282 142.756
106.332 126.028 144.175
104.663 127.381 143.373
105.145 128.453 143.151
109.676 130.067 142.342
110.588 129.51 142.476
110.593 130.685 142.041
108.897 130.624 142.329
110.752 131.629 141.404
114.885 133.593 148.961
115.533 134.804 148.98
116.184 134.064 148.821
116 136.072 148.656
114.607 135.535 148.77
113.673 133.149 149.12
114.21 132.532 148.884
116.362 133.386 148.077
117.1 134.419 148.266
113.458 135.019 148.729
113.006 133.762 149.124
112.239 134.407 148.844
114.465 132.06 148.541
115.413 132.541 148.015
114.609 131.312 148.244
117.844 135.34 148.186
117.07 136.3 148.385
118.349 136.638 147.996
115.95 139.845 142.35
115.587 140.075 141.091
116.941 140.116 141.653
115.042 140.293 139.918
114.252 140.117 140.632
114.93 139.502 142.936
116.147 139.461 143.552
118.172 139.95 142.344
117.783 140.082 140.876
113.347 139.79 141.411
113.755 139.502 142.489
112.451 139.523 142.18
117.331 139.393 144.292
118.391 139.592 143.592
118.386 139.119 144.862
117.107 139.832 139.73
115.617 140.018 139.385
116.191 139.202 138.764
115.198 126.921 146.768
115.456 128.338 146.446
115.244 127.477 146.124
116.246 129.715 145.803
116.114 129.14 146.66
115.291 126.325 147.659
114.802 125.657 147.048
114.772 127.24 145.651
115.397 128.414 145.245
115.886 128.736 147.313
115.41 127.285 147.976
115.43 128.453 148.134
114.435 125.222 146.506
114.362 126.314 145.843
113.6 125.279 146.1
116.216 129.35 144.71
116.582 130.049 145.029
116.999 130.527 144.225
116.673 134.143 139.58
115.634 134.147 139.308
115.898 133.54 140.431
114.583 134.178 138.909
115.319 134.558 138.195
117.627 134.751 138.798
117.609 134.281 139.977
116.023 132.644 141.039
115.066 132.912 140.928
115.9 135.164 137.551
117.307 135.375 137.972
116.528 136.182 137.43
117.624 133.372 140.706
116.779 132.421 141.232
117.682 132.258 141.565
114.169 132.989 140.714
113.825 133.604 139.686
113.101 132.917 140.426
105.847 131.242 149.082
104.598 131.267 148.645
105.352 132.241 148.831
103.58 131.36 148.08
104.014 130.309 148.521
106.437 130.367 149.448
107.134 131.235 149.191
106.272 133.145 148.626
105.237 133.081 148.116
104.69 129.424 148.947
105.968 129.509 149.53
105.58 128.484 149.463
107.757 132.208 149.328
107.418 133.177 148.791
108.556 133.313 149.057
104.417 133.176 147.547
103.588 132.258 147.511
103.662 133.21 146.739
105.876 136.886 141.834
107.074 137.679 141.372
106.581 137.441 142.479
107.995 138.388 140.816
107.345 137.9 140.306
105.333 136.334 141.334
104.852 136.099 142.357
106.1 136.819 143.515
107.254 137.441 143.108
106.822 137.338 139.831
105.825 136.557 140.402
106.175 136.562 139.323
104.249 135.902 143.251
104.93 136.355 143.888
103.994 135.415 144.206
108.297 137.873 142.724
108.674 138.416 141.579
109.448 138.222 142.324
105.487 124.176 146.748
106.961 123.735 147.229
106.707 124.337 146.27
108.324 123.536 147.571
107.481 123.44 148.228
104.762 124.659 147.197
104.309 125.08 145.952
106.306 125.013 145.126
107.673 124.708 145.795
106.552 123.839 148.815
105.203 124.744 148.107
105.854 124.983 149.067
104.111 125.654 144.968
105.289 125.669 144.534
104.255 126.582 144.018
108.849 124.747 146.179
109.191 123.881 146.967
110.13 124.558 146.324
108.038 132.755 141.18
107.01 132.205 141.659
107.65 131.607 141.855
105.958 131.651 142.171
106.314 132.646 141.365
108.231 133.571 140.172
109.023 133.251 140.455
108.275 131.17 142.151
107.28 130.529 142.452
106.62 133.419 140.392
107.613 133.852 139.733
106.894 134.155 139.245
109.579 132.714 140.717
109.243 131.706 141.621
110.211 132.117 141.017
106.319 129.96 142.652
105.637 130.653 142.674
105.275 129.557 142.835
POLYGONS 1280  5120
3 164 162 163
3 163 44 164
3 162 43 163
3 164 42 162
3 166 165 163
3 163 43 166
3 165 44 163
3 166 14 165
3 168 167 162
3 162 42 168
3 167 43 162
3 168 13 167
3 170 169 164
3 164 44 170
3 169 42 164
3 170 12 169
3 173 171 172
3 172 46 173
3 171 43 172
3 173 45 171
3 167 174 172
3 172 43 167
3 174 46 172
3 167 13 174
3 175 166 171
3 171 45 175
3 166 43 171
3 175 14 166
3 177 176 173
3 173 46 177
3 176 45 173
3 177 4 176
3 180 178 179
3 179 48 180
3 178 42 179
3 180 47 178
3 169 181 179
3 179 42 169
3 181 48 179
3 169 12 181
3 182 168 178
3 178 47 182
3 168 42 178
3 182 13 168
3 184 183 180
3 180 48 184
3 183 47 180
3 184 8 183
3 187 185 186
3 186 50 187
3 185 44 186
3 187 49 185
3 165 188 186
3 186 44 165
3 188 50 186
3 165 14 188
3 189 170 185
3 185 49 189
3 170 44 185
3 189 12 170
3 191 190 187
3 187 50 191
3 190 49 187
3 191 7 190
3 194 192 193
3 193 53 194
3 192 52 193
3 194 51 192
3 196 195 193
3 193 52 196
3 195 53 193
3 196 16 195
3 198 197 192
3 192 51 198
3 197 52 192
3 198 14 197
3 200 199 194
3 194 53 200
3 199 51 194
3 200 15 199
3 203 201 202
3 202 45 203
3 201 52 202
3 203 54 201
3 197 175 202
3 202 52 197
3 175 45 202
3 197 14 175
3 204 196 201
3 201 54 204
3 196 52 201
3 204 16 196
3 176 205 203
3 203 45 176
3 205 54 203
3 176 4 205
3 208 206 207
3 207 55 208
3 206 51 207
3 208 50 206
3 199 209 207
3 207 51 199
3 209 55 207
3 199 15 209
3 188 198 206
3 206 50 188
3 198 51 206
3 188 14 198
3 210 191 208
3 208 55 210
3 191 50 208
3 210 7 191
3 213 211 212
3 212 57 213
3 211 53 212
3 213 56 211
3 195 214 212
3 212 53 195
3 214 57 212
3 195 16 214
3 215 200 211
3 211 56 215
3 200 53 211
3 215 15 200
3 217 216 213
3 213 57 217
3 216 56 213
3 217 9 216
3 220 218 219
3 219 60 220
3 218 59 219
3 220 58 218
3 222 221 219
3 219 59 222
3 221 60 219
3 222 19 221
3 224 223 218
3 218 58 224
3 223 59 218
3 224 18 223
3 226 225 220
3 220 60 226
3 225 58 220
3 226 17 225
3 229 227 228
3 228 62 229
3 227 59 228
3 229 61 227
3 223 230 228
3 228 59 223
3 230 62 228
3 223 18 230
3 231 222 227
3 227 61 231
3 222 59 227
3 231 19 222
3 233 232 229
3 229 62 233
3 232 61 229
3 233 5 232
3 236 234 235
3 235 64 236
3 234 58 235
3 236 63 234
3 225 237 235
3 235 58 225
3 237 64 235
3 225 17 237
3 238 224 234
3 234 63 238
3 224 58 234
3 238 18 224
3 240 239 236
3 236 64 240
3 239 63 236
3 240 6 239
3 243 241 242
3 242 66 243
3 241 60 242
3 243 65 241
3 221 244 242
3 242 60 221
3 244 66 242
3 221 19 244
3 245 226 241
3 241 65 245
3 226 60 241
3 245 17 226
3 247 246 243
3 243 66 247
3 246 65 243
3 247 11 246
3 250 248 249
3 249 69 250
3 248 68 249
3 250 67 248
3 252 251 249
3 249 68 252
3 251 69 249
3 252 18 251
3 254 253 248
3 248 67 254
3 253 68 248
3 254 21 253
3 256 255 250
3 250 69 256
3 255 67 250
3 256 20 255
3 259 257 258
3 258 70 259
3 257 68 258
3 259 62 257
3 253 260 258
3 258 68 253
3 260 70 258
3 253 21 260
3 230 252 257
3 257 62 230
3 252 68 257
3 230 18 252
3 261 233 259
3 259 70 261
3 233 62 259
3 261 5 233
3 264 262 263
3 263 72 264
3 262 67 263
3 264 71 262
3 255 265 263
3 263 67 255
3 265 72 263
3 255 20 265
3 266 254 262
3 262 71 266
3 254 67 262
3 266 21 254
3 268 267 264
3 264 72 268
3 267 71 264
3 268 10 267
3 271 269 270
3 270 63 271
3 269 69 270
3 271 73 269
3 251 238 270
3 270 69 251
3 238 63 270
3 251 18 238
3 272 256 269
3 269 73 272
3 256 69 269
3 272 20 256
3 239 273 271
3 271 63 239
3 273 73 271
3 239 6 273
3 276 274 275
3 275 76 276
3 274 75 275
3 276 74 274
3 278 277 275
3 275 75 278
3 277 76 275
3 278 24 277
3 280 279 274
3 274 74 280
3 279 75 274
3 280 23 279
3 282 281 276
3 276 76 282
3 281 74 276
3 282 22 281
3 285 283 284
3 284 78 285
3 283 75 284
3 285 77 283
3 279 286 284
3 284 75 279
3 286 78 284
3 279 23 286
3 287 278 283
3 283 77 287
3 278 75 283
3 287 24 278
3 289 288 285
3 285 78 289
3 288 77 285
3 289 0 288
3 292 290 291
3 291 80 292
3 290 74 291
3 292 79 290
3 281 293 291
3 291 74 281
3 293 80 291
3 281 22 293
3 294 280 290
3 290 79 294
3 280 74 290
3 294 23 280
3 296 295 292
3 292 80 296
3 295 79 292
3 296 4 295
3 299 297 298
3 298 82 299
3 297 76 298
3 299 81 297
3 277 300 298
3 298 76 277
3 300 82 298
3 277 24 300
3 301 282 297
3 297 81 301
3 282 76 297
3 301 22 282
3 303 302 299
3 299 82 303
3 302 81 299
3 303 3 302
3 306 304 305
3 305 85 306
3 304 84 305
3 306 83 304
3 308 307 305
3 305 84 308
3 307 85 305
3 308 26 307
3 310 309 304
3 304 83 310
3 309 84 304
3 310 24 309
3 312 311 306
3 306 85 312
3 311 83 306
3 312 25 311
3 315 313 314
3 314 77 315
3 313 84 314
3 315 86 313
3 309 287 314
3 314 84 309
3 287 77 314
3 309 24 287
3 316 308 313
3 313 86 316
3 308 84 313
3 316 26 308
3 288 317 315
3 315 77 288
3 317 86 315
3 288 0 317
3 320 318 319
3 319 87 320
3 318 83 319
3 320 82 318
3 311 321 319
3 319 83 311
3 321 87 319
3 311 25 321
3 300 310 318
3 318 82 300
3 310 83 318
3 300 24 310
3 322 303 320
3 320 87 322
3 303 82 320
3 322 3 303
3 325 323 324
3 324 89 325
3 323 85 324
3 325 88 323
3 307 326 324
3 324 85 307
3 326 89 324
3 307 26 326
3 327 312 323
3 323 88 327
3 312 85 323
3 327 25 312
3 329 328 325
3 325 89 329
3 328 88 325
3 329 5 328
3 332 330 331
3 331 92 332
3 330 91 331
3 332 90 330
3 334 333 331
3 331 91 334
3 333 92 331
3 334 29 333
3 336 335 330
3 330 90 336
3 335 91 330
3 336 28 335
3 338 337 332
3 332 92 338
3 337 90 332
3 338 27 337
3 341 339 340
3 340 94 341
3 339 91 340
3 341 93 339
3 335 342 340
3 340 91 335
3 342 94 340
3 335 28 342
3 343 334 339
3 339 93 343
3 334 91 339
3 343 29 334
3 345 344 341
3 341 94 345
3 344 93 341
3 345 2 344
3 348 346 347
3 347 96 348
3 346 90 347
3 348 95 346
3 337 349 347
3 347 90 337
3 349 96 347
3 337 27 349
3 350 336 346
3 346 95 350
3 336 90 346
3 350 28 336
3 352 351 348
3 348 96 352
3 351 95 348
3 352 7 351
3 355 353 354
3 354 98 355
3 353 92 354
3 355 97 353
3 333 356 354
3 354 92 333
3 356 98 354
3 333 29 356
3 357 338 353
3 353 97 357
3 338 92 353
3 357 27 338
3 359 358 355
3 355 98 359
3 358 97 355
3 359 1 358
3 362 360 361
3 361 101 362
3 360 100 361
3 362 99 360
3 364 363 361
3 361 100 364
3 363 101 361
3 364 31 363
3 366 365 360
3 360 99 366
3 365 100 360
3 366 29 365
3 368 367 362
3 362 101 368
3 367 99 362
3 368 30 367
3 371 369 370
3 370 93 371
3 369 100 370
3 371 102 369
3 365 343 370
3 370 100 365
3 343 93 370
3 365 29 343
3 372 364 369
3 369 102 372
3 364 100 369
3 372 31 364
3 344 373 371
3 371 93 344
3 373 102 371
3 344 2 373
3 376 374 375
3 375 103 376
3 374 99 375
3 376 98 374
3 367 377 375
3 375 99 367
3 377 103 375
3 367 30 377
3 356 366 374
3 374 98 356
3 366 99 374
3 356 29 366
3 378 359 376
3 376 103 378
3 359 98 376
3 378 1 359
3 381 379 380
3 380 105 381
3 379 101 380
3 381 104 379
3 363 382 380
3 380 101 363
3 382 105 380
3 363 31 382
3 383 368 379
3 379 104 383
3 368 101 379
3 383 30 368
3 385 384 381
3 381 105 385
3 384 104 381
3 385 6 384
3 388 386 387
3 387 108 388
3 386 107 387
3 388 106 386
3 390 389 387
3 387 107 390
3 389 108 387
3 390 34 389
3 392 391 386
3 386 106 392
3 391 107 386
3 392 33 391
3 394 393 388
3 388 108 394
3 393 106 388
3 394 32 393
3 397 395 396
3 396 110 397
3 395 107 396
3 397 109 395
3 391 398 396
3 396 107 391
3 398 110 396
3 391 33 398
3 399 390 395
3 395 109 399
3 390 107 395
3 399 34 390
3 401 400 397
3 397 110 401
3 400 109 397
3 401 8 400
3 404 402 403
3 403 112 404
3 402 106 403
3 404 111 402
3 393 405 403
3 403 106 393
3 405 112 403
3 393 32 405
3 406 392 402
3 402 111 406
3 392 106 402
3 406 33 392
3 408 407 404
3 404 112 408
3 407 111 404
3 408 0 407
3 411 409 410
3 410 114 411
3 409 108 410
3 411 113 409
3 389 412 410
3 410 108 389
3 412 114 410
3 389 34 412
3 413 394 409
3 409 113 413
3 394 108 409
3 413 32 394
3 415 414 411
3 411 114 415
3 414 113 411
3 415 11 414
3 418 416 417
3 417 117 418
3 416 116 417
3 418 115 416
3 420 419 417
3 417 116 420
3 419 117 417
3 420 36 419
3 422 421 416
3 416 115 422
3 421 116 416
3 422 34 421
3 424 423 418
3 418 117 424
3 423 115 418
3 424 35 423
3 427 425 426
3 426 109 427
3 425 116 426
3 427 118 425
3 421 399 426
3 426 116 421
3 399 109 426
3 421 34 399
3 428 420 425
3 425 118 428
3 420 116 425
3 428 36 420
3 400 429 427
3 427 109 400
3 429 118 427
3 400 8 429
3 432 430 431
3 431 119 432
3 430 115 431
3 432 114 430
3 423 433 431
3 431 115 423
3 433 119 431
3 423 35 433
3 412 422 430
3 430 114 412
3 422 115 430
3 412 34 422
3 434 415 432
3 432 119 434
3 415 114 432
3 434 11 415
3 437 435 436
3 436 121 437
3 435 117 436
3 437 120 435
3 419 438 436
3 436 117 419
3 438 121 436
3 419 36 438
3 439 424 435
3 435 120 439
3 424 117 435
3 439 35 424
3 441 440 437
3 437 121 441
3 440 120 437
3 441 1 440
3 444 442 443
3 443 124 444
3 442 123 443
3 444 122 442
3 446 445 443
3 443 123 446
3 445 124 443
3 446 39 445
3 448 447 442
3 442 122 448
3 447 123 442
3 448 38 447
3 450 449 444
3 444 124 450
3 449 122 444
3 450 37 449
3 453 451 452
3 452 126 453
3 451 123 452
3 453 125 451
3 447 454 452
3 452 123 447
3 454 126 452
3 447 38 454
3 455 446 451
3 451 125 455
3 446 123 451
3 455 39 446
3 457 456 453
3 453 126 457
3 456 125 453
3 457 9 456
3 460 458 459
3 459 128 460
3 458 122 459
3 460 127 458
3 449 461 459
3 459 122 449
3 461 128 459
3 449 37 461
3 462 448 458
3 458 127 462
3 448 122 458
3 462 38 448
3 464 463 460
3 460 128 464
3 463 127 460
3 464 10 463
3 467 465 466
3 466 130 467
3 465 124 466
3 467 129 465
3 445 468 466
3 466 124 445
3 468 130 466
3 445 39 468
3 469 450 465
3 465 129 469
3 450 124 465
3 469 37 450
3 471 470 467
3 467 130 471
3 470 129 467
3 471 3 470
3 474 472 473
3 473 133 474
3 472 132 473
3 474 131 472
3 476 475 473
3 473 132 476
3 475 133 473
3 476 38 475
3 478 477 472
3 472 131 478
3 477 132 472
3 478 41 477
3 480 479 474
3 474 133 480
3 479 131 474
3 480 40 479
3 483 481 482
3 482 134 483
3 481 132 482
3 483 126 481
3 477 484 482
3 482 132 477
3 484 134 482
3 477 41 484
3 454 476 481
3 481 126 454
3 476 132 481
3 454 38 476
3 485 457 483
3 483 134 485
3 457 126 483
3 485 9 457
3 488 486 487
3 487 136 488
3 486 131 487
3 488 135 486
3 479 489 487
3 487 131 479
3 489 136 487
3 479 40 489
3 490 478 486
3 486 135 490
3 478 131 486
3 490 41 478
3 492 491 488
3 488 136 492
3 491 135 488
3 492 2 491
3 495 493 494
3 494 127 495
3 493 133 494
3 495 137 493
3 475 462 494
3 494 133 475
3 462 127 494
3 475 38 462
3 496 480 493
3 493 137 496
3 480 133 493
3 496 40 480
3 463 497 495
3 495 127 463
3 497 137 495
3 463 10 497
3 500 498 499
3 499 140 500
3 498 139 499
3 500 138 498
3 502 501 499
3 499 139 502
3 501 140 499
3 502 33 501
3 504 503 498
3 498 138 504
3 503 139 498
3 504 13 503
3 506 505 500
3 500 140 506
3 505 138 500
3 506 23 505
3 509 507 508
3 508 47 509
3 507 139 508
3 509 110 507
3 503 182 508
3 508 139 503
3 182 47 508
3 503 13 182
3 398 502 507
3 507 110 398
3 502 139 507
3 398 33 502
3 183 401 509
3 509 47 183
3 401 110 509
3 183 8 401
3 512 510 511
3 511 79 512
3 510 138 511
3 512 46 510
3 505 294 511
3 511 138 505
3 294 79 511
3 505 23 294
3 174 504 510
3 510 46 174
3 504 138 510
3 174 13 504
3 295 177 512
3 512 79 295
3 177 46 512
3 295 4 177
3 515 513 514
3 514 111 515
3 513 140 514
3 515 78 513
3 501 406 514
3 514 140 501
3 406 111 514
3 501 33 406
3 286 506 513
3 513 78 286
3 506 140 513
3 286 23 506
3 407 289 515
3 515 111 407
3 289 78 515
3 407 0 289
3 518 516 517
3 517 143 518
3 516 142 517
3 518 141 516
3 520 519 517
3 517 142 520
3 519 143 517
3 520 19 519
3 522 521 516
3 516 141 522
3 521 142 516
3 522 32 521
3 524 523 518
3 518 143 524
3 523 141 518
3 524 26 523
3 527 525 526
3 526 113 527
3 525 142 526
3 527 66 525
3 521 413 526
3 526 142 521
3 413 113 526
3 521 32 413
3 244 520 525
3 525 66 244
3 520 142 525
3 244 19 520
3 414 247 527
3 527 113 414
3 247 66 527
3 414 11 247
3 530 528 529
3 529 86 530
3 528 141 529
3 530 112 528
3 523 316 529
3 529 141 523
3 316 86 529
3 523 26 316
3 405 522 528
3 528 112 405
3 522 141 528
3 405 32 522
3 317 408 530
3 530 86 317
3 408 112 530
3 317 0 408
3 533 531 532
3 532 61 533
3 531 143 532
3 533 89 531
3 519 231 532
3 532 143 519
3 231 61 532
3 519 19 231
3 326 524 531
3 531 89 326
3 524 143 531
3 326 26 524
3 232 329 533
3 533 61 232
3 329 89 533
3 232 5 329
3 536 534 535
3 535 146 536
3 534 145 535
3 536 144 534
3 538 537 535
3 535 145 538
3 537 146 535
3 538 22 537
3 540 539 534
3 534 144 540
3 539 145 534
3 540 16 539
3 542 541 536
3 536 146 542
3 541 144 536
3 542 39 541
3 545 543 544
3 544 54 545
3 543 145 544
3 545 80 543
3 539 204 544
3 544 145 539
3 204 54 544
3 539 16 204
3 293 538 543
3 543 80 293
3 538 145 543
3 293 22 538
3 205 296 545
3 545 54 205
3 296 80 545
3 205 4 296
3 548 546 547
3 547 125 548
3 546 144 547
3 548 57 546
3 541 455 547
3 547 144 541
3 455 125 547
3 541 39 455
3 214 540 546
3 546 57 214
3 540 144 546
3 214 16 540
3 456 217 548
3 548 125 456
3 217 57 548
3 456 9 217
3 551 549 550
3 550 81 551
3 549 146 550
3 551 130 549
3 537 301 550
3 550 146 537
3 301 81 550
3 537 22 301
3 468 542 549
3 549 130 468
3 542 146 549
3 468 39 542
3 302 471 551
3 551 81 302
3 471 130 551
3 302 3 471
3 554 552 553
3 553 149 554
3 552 148 553
3 554 147 552
3 556 555 553
3 553 148 556
3 555 149 553
3 556 21 555
3 558 557 552
3 552 147 558
3 557 148 552
3 558 25 557
3 560 559 554
3 554 149 560
3 559 147 554
3 560 37 559
3 563 561 562
3 562 88 563
3 561 148 562
3 563 70 561
3 557 327 562
3 562 148 557
3 327 88 562
3 557 25 327
3 260 556 561
3 561 70 260
3 556 148 561
3 260 21 556
3 328 261 563
3 563 88 328
3 261 70 563
3 328 5 261
3 566 564 565
3 565 129 566
3 564 147 565
3 566 87 564
3 559 469 565
3 565 147 559
3 469 129 565
3 559 37 469
3 321 558 564
3 564 87 321
3 558 147 564
3 321 25 558
3 470 322 566
3 566 129 470
3 322 87 566
3 470 3 322
3 569 567 568
3 568 71 569
3 567 149 568
3 569 128 567
3 555 266 568
3 568 149 555
3 266 71 568
3 555 21 266
3 461 560 567
3 567 128 461
3 560 149 567
3 461 37 560
3 267 464 569
3 569 71 267
3 464 128 569
3 267 10 464
3 572 570 571
3 571 152 572
3 570 151 571
3 572 150 570
3 574 573 571
3 571 151 574
3 573 152 571
3 574 27 573
3 576 575 570
3 570 150 576
3 575 151 570
3 576 12 575
3 578 577 572
3 572 152 578
3 577 150 572
3 578 36 577
3 581 579 580
3 580 49 581
3 579 151 580
3 581 96 579
3 575 189 580
3 580 151 575
3 189 49 580
3 575 12 189
3 349 574 579
3 579 96 349
3 574 151 579
3 349 27 574
3 190 352 581
3 581 49 190
3 352 96 581
3 190 7 352
3 584 582 583
3 583 118 584
3 582 150 583
3 584 48 582
3 577 428 583
3 583 150 577
3 428 118 583
3 577 36 428
3 181 576 582
3 582 48 181
3 576 150 582
3 181 12 576
3 429 184 584
3 584 118 429
3 184 48 584
3 429 8 184
3 587 585 586
3 586 97 587
3 585 152 586
3 587 121 585
3 573 357 586
3 586 152 573
3 357 97 586
3 573 27 357
3 438 578 585
3 585 121 438
3 578 152 585
3 438 36 578
3 358 441 587
3 587 97 358
3 441 121 587
3 358 1 441
3 590 588 589
3 589 155 590
3 588 154 589
3 590 153 588
3 592 591 589
3 589 154 592
3 591 155 589
3 592 17 591
3 594 593 588
3 588 153 594
3 593 154 588
3 594 30 593
3 596 595 590
3 590 155 596
3 595 153 590
3 596 35 595
3 599 597 598
3 598 104 599
3 597 154 598
3 599 64 597
3 593 383 598
3 598 154 593
3 383 104 598
3 593 30 383
3 237 592 597
3 597 64 237
3 592 154 597
3 237 17 592
3 384 240 599
3 599 104 384
3 240 64 599
3 384 6 240
3 602 600 601
3 601 120 602
3 600 153 601
3 602 103 600
3 595 439 601
3 601 153 595
3 439 120 601
3 595 35 439
3 377 594 600
3 600 103 377
3 594 153 600
3 377 30 594
3 440 378 602
3 602 120 440
3 378 103 602
3 440 1 378
3 605 603 604
3 604 65 605
3 603 155 604
3 605 119 603
3 591 245 604
3 604 155 591
3 245 65 604
3 591 17 245
3 433 596 603
3 603 119 433
3 596 155 603
3 433 35 596
3 246 434 605
3 605 65 246
3 434 119 605
3 246 11 434
3 608 606 607
3 607 158 608
3 606 157 607
3 608 156 606
3 610 609 607
3 607 157 610
3 609 158 607
3 610 15 609
3 612 611 606
3 606 156 612
3 611 157 606
3 612 28 611
3 614 613 608
3 608 158 614
3 613 156 608
3 614 41 613
3 617 615 616
3 616 95 617
3 615 157 616
3 617 55 615
3 611 350 616
3 616 157 611
3 350 95 616
3 611 28 350
3 209 610 615
3 615 55 209
3 610 157 615
3 209 15 610
3 351 210 617
3 617 95 351
3 210 55 617
3 351 7 210
3 620 618 619
3 619 135 620
3 618 156 619
3 620 94 618
3 613 490 619
3 619 156 613
3 490 135 619
3 613 41 490
3 342 612 618
3 618 94 342
3 612 156 618
3 342 28 612
3 491 345 620
3 620 135 491
3 345 94 620
3 491 2 345
3 623 621 622
3 622 56 623
3 621 158 622
3 623 134 621
3 609 215 622
3 622 158 609
3 215 56 622
3 609 15 215
3 484 614 621
3 621 134 484
3 614 158 621
3 484 41 614
3 216 485 623
3 623 56 216
3 485 134 623
3 216 9 485
3 626 624 625
3 625 161 626
3 624 160 625
3 626 159 624
3 628 627 625
3 625 160 628
3 627 161 625
3 628 31 627
3 630 629 624
3 624 159 630
3 629 160 624
3 630 20 629
3 632 631 626
3 626 161 632
3 631 159 626
3 632 40 631
3 635 633 634
3 634 73 635
3 633 160 634
3 635 105 633
3 629 272 634
3 634 160 629
3 272 73 634
3 629 20 272
3 382 628 633
3 633 105 382
3 628 160 633
3 382 31 628
3 273 385 635
3 635 73 273
3 385 105 635
3 273 6 385
3 638 636 637
3 637 137 638
3 636 159 637
3 638 72 636
3 631 496 637
3 637 159 631
3 496 137 637
3 631 40 496
3 265 630 636
3 636 72 265
3 630 159 636
3 265 20 630
3 497 268 638
3 638 137 497
3 268 72 638
3 497 10 268
3 641 639 640
3 640 102 641
3 639 161 640
3 641 136 639
3 627 372 640
3 640 161 627
3 372 102 640
3 627 31 372
3 489 632 639
3 639 136 489
3 632 161 639
3 489 40 632
3 373 492 641
3 641 102 373
3 492 136 641
3 373 2 492
