# vtk DataFile Version 3.0
this file was written using fslvtkio
ASCII
DATASET POLYDATA
POINTS 642 float
104.974 118.25 165.963
87.4896 119.359 164.808
92.446 102.934 159.452
110.389 102.345 159.192
105.249 107.49 171.597
103.921 112.363 155.717
92.6577 113.604 154.572
93.0174 107.443 171.076
96.2441 123.224 173.477
101.878 96.5458 162.887
103.173 97.7582 150.425
95.5688 128.476 160.882
93.8305 115.62 174.274
101.4 116.066 174.59
99.7256 106.799 173.478
97.3741 100.464 167.598
105.321 99.2952 169.094
92.3642 123.075 156.474
98.7766 112.388 153.89
98.9283 120.316 158.749
98.2038 104.151 152.882
105.324 103.97 152.677
109.319 103.189 165.958
105.956 113.856 169.833
108.692 109.731 162.674
108.299 106.268 156.084
104.579 115.901 160.4
89.206 114.187 169.374
91.5949 104.534 165.44
87.9749 111.068 162.045
88.2953 118.514 158.284
90.9923 107.216 155.598
100.632 124.457 164.186
101.871 123.562 171.14
94.4563 128.705 167.822
89.0334 127.191 161.835
90.0397 122.985 170.057
111.913 99.1743 151.464
103.117 93.7583 155.361
108.507 97.1728 160.898
96.1778 97.7402 153.95
95.6462 96.2165 160.853
97.8099 115.597 175.175
100.482 111.338 175.201
96.7527 111.042 174.265
102.926 106.62 173.566
103.389 111.961 173.466
99.1529 119.935 174.788
94.9961 119.521 174.228
93.1504 111.425 173.194
96.1552 106.83 172.573
98.4505 103.234 171.111
102.389 102.743 171.542
101.201 99.5529 168.975
105.795 103.146 170.523
95.1421 103.825 169.436
99.4788 97.8119 165.554
103.557 97.3742 166.331
95.5806 118.191 155.767
98.5681 116.714 156.251
96.0165 122.001 157.35
101.408 116.194 157.41
101.359 112.658 154.622
95.7846 113.427 154.4
92.4335 118.562 155.216
94.1137 126.292 158.016
97.4537 124.796 159.624
101.705 103.788 152.215
102.165 108.374 152.813
98.4426 108.569 153.153
104.666 108.839 153.626
104.437 101.35 150.146
100.115 100.782 150.865
95.3547 108.832 153.856
107.722 108.347 167.765
107.047 111.237 166.245
108.997 106.932 164.604
106.417 113.782 164.462
105.502 116.092 167.975
105.685 110.564 170.781
107.512 105.455 168.951
110.113 102.783 162.802
109.893 106.236 160.926
109.103 108.609 159.172
106.555 112.572 161.599
107.144 111.145 158.292
105.059 117.459 163.046
109.637 103.889 156.909
106.706 109.979 155.672
104.048 114.084 158.155
89.708 109.16 167.564
89.2318 107.597 164.061
87.8092 112.115 165.951
89.6359 106.65 160.783
91.8341 103.579 162.41
92.1588 105.784 168.306
90.8701 110.862 170.484
87.6868 116.536 167.356
87.4215 115.093 163.507
88.0892 114.699 159.993
89.3951 109.222 158.648
89.3716 112.626 156.971
91.3992 104.876 157.442
87.6629 118.944 161.449
89.7954 116.194 155.627
91.6448 110.184 154.516
101.301 125.012 167.766
98.6809 127.306 170.35
98.287 128.405 166.17
95.0571 126.596 171.146
99.49 123.965 173.191
103.805 121.27 168.465
103.065 121.501 165.148
98.3539 126.466 162.566
94.6385 129.413 163.989
91.0625 129.142 164.508
91.6309 126.628 168.73
88.7275 125.744 166.147
92.8261 123.319 172.052
91.7877 128.857 160.167
87.7971 123.336 163.728
88.2886 121.284 167.666
108.25 95.5447 152.927
105.98 95.351 157.655
110.055 97.3148 155.923
105.069 96.6242 161.956
102.301 94.6953 159.326
103.079 95.1407 152.351
107.91 98.4076 149.92
111.642 100.346 155.893
110.96 99.4146 160.379
95.3824 95.584 157.105
98.9785 93.7021 158.24
99.0535 94.2899 154.306
98.692 96.1097 161.857
93.7256 99.0708 160.05
94.0768 99.9757 156.816
99.175 97.4599 151.71
104.364 115.321 172.629
102.129 120.153 173.368
104.3 118.987 170.684
102.765 120.389 162.352
100.122 122.685 161.19
101.992 118.485 159.625
107.09 97.365 165.216
108.192 100.871 167.959
110.102 99.2318 163.881
110.601 102.296 153.26
106.624 105.749 154.456
108.524 102.003 149.782
91.5546 119.605 173.089
90.8913 114.949 172.561
89.2225 118.718 170.099
87.9264 123.195 160.406
89.5856 121.001 156.531
90.2331 126.483 158.22
93.7696 100.339 163.16
94.23 101.918 166.594
96.2623 98.3164 164.275
96.5403 101.217 152.651
94.5515 106.004 154.526
93.9964 102.788 155.353
99.0722 113.38 175.486
98.556 111.164 174.842
97.1893 113.312 174.839
98.3241 108.977 174.056
99.9171 109.156 174.645
100.926 113.676 175.338
99.7253 115.652 175.41
95.9194 115.41 174.726
95.3936 113.406 174.431
101.592 109.104 174.57
102.023 111.677 174.569
102.896 109.497 173.869
102.388 114.007 174.302
101.296 106.811 173.837
104.059 107.134 172.739
104.09 109.523 172.823
98.501 117.692 175.308
96.4199 117.495 174.853
97.1808 119.356 174.858
94.4139 117.516 174.377
100.331 117.976 175.064
97.6544 121.399 174.399
95.7563 121.183 174.008
94.9292 111.392 173.826
96.4911 108.918 173.599
94.7358 109.185 172.99
97.93 106.872 173.139
93.5447 113.517 173.927
93.1808 109.262 172.305
94.5385 107.145 172.004
100.365 102.931 171.392
101.705 101.054 170.348
99.7063 101.253 170.055
103.222 99.5064 169.283
103.731 100.933 170.493
101.054 104.614 172.597
99.1704 104.937 172.384
98.0544 101.609 169.454
99.1696 100.072 168.624
104.203 102.659 171.456
102.678 104.543 172.83
104.475 104.719 172.284
105.617 100.962 170.108
105.574 105.316 171.244
97.3123 104.993 171.893
96.6967 103.225 170.321
95.4806 105.057 171.2
96.5159 102.072 168.741
94.0206 105.585 170.466
100.229 98.7321 167.389
102.422 98.3441 167.8
101.423 97.6338 166.2
104.473 98.1612 167.898
98.4218 99.0898 166.787
100.765 96.9264 164.434
102.658 96.7997 164.808
97.2961 117.522 155.972
97.4649 119.427 157.096
95.8429 120.087 156.542
97.5303 121.025 157.989
98.6732 118.799 157.507
98.3686 114.555 155.266
97.029 115.645 155.18
94.0662 120.669 156.189
94.2848 122.498 156.825
99.841 116.5 156.887
99.7143 114.326 155.699
100.972 114.368 156.348
100.051 112.564 154.136
100.112 118.216 158.049
102.374 113.928 156.684
102.553 112.608 155.196
95.6459 115.891 155.001
93.9994 118.578 155.535
94.09 116.199 154.898
92.4305 120.848 155.884
97.3135 113.18 154.248
94.2337 113.686 154.463
92.6381 116.044 154.773
95.2236 124.117 157.554
97.0456 123.384 158.341
95.9339 125.689 158.666
98.2407 122.547 159.122
93.364 124.591 157.128
95.0064 127.596 159.21
96.6911 126.89 160.012
101.715 106.114 152.753
100.28 108.367 152.85
100.16 106.238 152.839
98.7044 110.506 153.312
100.565 110.251 153.224
103.441 105.878 152.9
103.312 104.112 152.369
100.055 104.022 152.448
98.5461 106.153 153.024
101.634 110.985 153.443
103.277 108.589 153.225
103.204 111.002 153.824
104.751 106.34 153.181
104.393 110.805 154.441
102.961 102.714 151.02
100.893 102.536 151.061
102.298 101.147 150.387
99.152 102.538 151.652
104.674 102.991 151.318
103.622 99.5645 149.998
101.539 99.3472 150.371
96.9773 108.572 153.482
97.1309 111.105 153.635
95.5823 111.068 153.9
96.9195 106.479 153.633
94.0345 111.409 154.176
107.437 109.965 167.109
108.37 109.163 165.435
108.444 107.597 166.249
109.034 108.403 163.811
107.982 110.329 164.5
106.546 112.371 168.053
106.686 110.932 168.624
108.512 105.861 166.792
109.136 105.313 165.407
106.855 112.524 165.359
106.364 113.618 167.166
106.129 114.844 166.237
105.806 114.885 168.846
107.202 111.431 163.687
105.755 115.97 165.14
105.283 117.107 166.886
106.627 109.521 169.271
107.601 106.876 168.366
106.535 108.058 169.881
108.528 104.335 167.402
105.925 112.128 170.203
105.481 109.138 171.393
106.45 106.519 170.392
109.608 104.817 163.782
109.471 106.687 162.912
109.891 104.741 162.088
109.384 108.053 161.809
109.696 103.005 164.461
110.21 102.881 161.112
109.967 104.373 160.172
107.814 110.781 160.593
106.584 112.061 160.081
108.097 110.023 158.865
105.614 113.026 159.525
105.579 114.173 160.832
107.755 110.884 162.025
108.888 109.274 160.757
108.984 107.641 157.539
108.39 109.057 157.019
105.735 114.921 162.24
106.688 113.105 162.979
105.747 115.428 163.642
104.951 116.702 161.689
105.1 117.768 164.465
109.552 107.35 159.885
109.423 106.178 157.971
109.792 105.245 158.923
108.805 104.931 156.404
110.088 103.261 158.108
107.181 110.517 156.877
105.581 112.467 158.204
105.645 112.055 156.87
104.386 114.749 159.286
107.888 108.24 155.778
105.337 111.484 155.648
103.826 113.149 157.112
89.2816 108.205 165.847
88.2321 109.74 165.043
88.6633 110.513 166.79
87.7129 111.346 164.103
88.2297 109.383 163.298
90.2769 106.152 165.004
90.3375 106.855 166.589
89.2007 111.631 168.394
88.3122 112.792 167.716
89.3055 107.154 162.448
90.549 105.593 163.324
90.7962 105.154 161.671
91.519 104.019 163.966
88.5349 108.829 161.541
91.0687 104.822 160.103
92.1471 103.211 160.901
90.9394 107.519 168.015
90.3275 110.129 168.97
91.3233 108.339 169.546
89.996 112.626 169.916
91.739 105.196 166.877
92.5533 106.609 169.709
91.8273 109.196 171.045
87.6757 114.254 166.749
87.3958 113.502 164.735
87.3853 115.751 165.455
87.6094 112.984 162.818
88.3106 115.172 168.441
87.4924 117.859 166.041
87.3935 117.2 164.173
88.5274 111.787 159.608
89.3944 110.908 157.988
88.7129 113.524 158.639
90.0452 110.036 156.354
90.1255 108.218 156.934
88.561 110.32 160.398
87.9522 112.772 160.939
88.1268 116.492 159.017
88.835 115.249 157.718
90.0341 106.982 158.041
89.2094 108.031 159.853
90.4296 105.852 159.096
90.9906 105.948 156.527
91.9473 104.082 158.538
87.6338 114.743 161.722
87.7777 116.816 160.617
87.5551 116.896 162.374
87.7611 118.908 159.785
87.537 119.048 163.139
89.5506 114.379 156.309
90.1264 111.474 155.447
90.4604 113.162 154.817
91.0166 108.787 154.957
89.0083 117.258 157.038
91.1432 114.952 154.748
92.1816 111.868 154.361
100.415 126.771 169.037
98.7098 127.899 168.303
100.074 127.005 167.259
96.6942 128.655 167.285
96.8479 128.205 169.184
100.446 126.012 170.902
101.47 124.825 169.609
100.612 125.393 166
99.4547 126.946 165.313
96.8511 127.179 170.91
99.03 126.067 172.075
97.3382 125.693 172.498
100.648 124.16 172.14
94.7658 127.903 169.576
95.366 125.076 172.461
97.7504 123.807 173.469
102.483 123.232 168.262
101.961 123.503 166.379
103.39 121.696 166.793
101.745 123.324 164.915
102.826 122.676 169.826
104.358 119.799 167.202
104.128 119.889 165.509
98.1989 127.824 164.128
96.4925 128.871 165.135
96.7892 128.748 163.137
94.7146 129.09 165.968
99.5454 125.676 163.595
97.2106 127.353 161.678
95.067 129.277 162.182
91.0661 128.121 166.684
90.0637 126.53 167.235
89.6856 127.759 165.369
89.2837 124.665 168.053
90.4519 125.157 169.221
92.7056 128.023 168.232
92.5869 128.954 166.306
89.6582 128.494 163.254
88.7039 126.774 164.146
92.023 125.125 170.354
93.3661 126.793 169.886
93.7056 125.113 171.498
91.2742 123.392 171.08
94.5406 123.14 172.907
92.9681 129.497 164.496
91.2178 129.464 162.512
93.1143 129.662 162.146
90.1133 128.654 161.041
93.6912 128.888 160.493
88.05 124.647 165.066
88.3315 123.564 167.18
87.8196 122.255 165.765
89.0675 122.449 168.84
88.2784 125.373 162.944
87.7246 121.248 164.348
87.7704 120.165 166.391
107.057 94.8609 155.635
107.861 96.3942 156.944
109.178 96.2379 154.588
109.029 97.0805 158.162
107.373 96.4383 159.076
105.021 93.9445 156.013
106.142 94.5897 153.957
110.429 97.0254 152.029
111.166 97.6932 153.679
105.509 96.0024 159.788
104.219 94.6948 158.173
103.63 95.7149 160.322
102.723 93.7016 157.335
106.805 96.8124 161.377
103.464 96.6126 162.441
101.923 95.8272 161.091
106.031 95.2537 152.182
108.494 96.6758 151.065
105.865 96.4956 150.866
110.228 98.6717 150.342
103.425 94.3196 153.778
102.829 96.3189 151.343
105.291 98.019 150.069
111.218 98.4099 156.148
110.511 97.858 158.555
111.351 99.9468 158.184
109.939 97.6858 160.288
112.198 99.2279 153.985
110.864 101.404 157.621
110.867 101.081 159.981
97.0026 94.1331 157.508
98.9331 93.6229 156.239
97.0725 94.4077 155.724
100.99 93.8374 154.981
100.931 93.4383 156.838
97.1279 94.566 159.388
95.5879 95.3612 158.894
95.7768 96.0523 155.321
97.211 95.4382 154.088
100.81 94.0032 158.71
98.7527 94.6745 160.055
100.408 95.2403 160.585
97.178 95.8764 161.17
100.252 96.2907 162.42
94.3785 97.0597 158.527
94.6172 97.5717 156.668
93.7626 99.2233 158.31
95.0326 98.3454 155.289
94.5197 97.1949 160.282
93.0428 100.914 159.77
93.2108 101.425 158.248
98.9353 95.504 152.862
101.136 94.5339 153.34
100.822 95.9217 151.959
97.5518 97.2268 152.799
101.086 97.7589 150.946
103.328 117.788 173.117
103.509 119.655 172.178
104.382 117.124 171.658
103.337 121.339 171.019
102.161 121.842 172.235
101.864 118.26 174.157
102.866 115.815 173.695
105.132 114.751 171.223
105.103 116.383 170.295
100.883 122.209 173.101
100.657 120.055 174.15
99.0837 122.127 174.057
103.945 113.696 173.142
105.202 112.949 171.663
104.699 111.153 172.223
104.9 117.566 169.35
104.129 120.398 169.685
104.705 118.732 168.244
101.456 121.694 161.82
100.913 120.51 160.484
102.494 119.55 160.948
100.435 119.308 159.219
99.4738 121.385 159.893
100.487 123.71 162.673
101.752 122.461 163.288
103.902 118.326 161.321
103.487 117.41 159.983
98.9047 123.521 160.363
99.3094 124.621 161.972
97.9622 125.588 160.987
102.785 121.153 163.814
104.014 118.97 162.647
104.074 119.471 164.113
103.264 116.445 158.881
101.627 117.464 158.522
102.781 115.252 157.737
107.954 98.6773 166.719
109.3 99.6311 166.026
108.92 97.989 164.781
109.905 101.046 165.165
108.933 101.879 166.964
106.89 99.8929 168.494
106.293 98.1353 167.317
107.941 97.0458 163.2
109.591 97.745 162.644
107.983 103.311 168.358
106.981 101.942 169.296
106.726 104.478 169.842
105.296 97.2758 165.969
106.127 96.8381 163.658
104.305 96.7465 164.216
110.546 98.9281 162.069
110.335 101.081 163.53
110.564 101.012 161.706
108.513 103.245 153.372
108.291 103.042 151.853
110.598 102.051 151.184
106.664 103.024 151.641
105.98 105.113 153.688
107.46 105.811 155.14
108.652 103.749 154.919
112.321 100.778 152.265
110.649 100.567 149.83
105.669 107.495 153.918
106.852 108.026 154.911
105.548 109.749 154.804
110.032 102.945 155.156
111.628 101.134 154.188
110.729 102.053 156.329
108.11 100.187 149.609
106.139 102.376 150.326
105.344 99.8862 149.766
91.0134 117.323 173.015
90.0147 117.068 171.583
90.3264 119.163 171.748
89.2518 116.433 170.076
90.0461 114.878 171.048
92.1049 115.329 173.766
92.5278 117.592 173.937
90.6409 121.292 171.732
89.5636 120.794 170.366
90.6988 112.875 171.412
91.9061 113.297 172.991
91.8401 111.092 171.999
93.1204 119.506 173.769
91.9468 121.635 172.658
93.7803 121.489 173.353
88.6545 120.155 169.042
88.5097 117.422 168.781
87.9484 118.83 167.614
88.7269 122.678 158.339
89.6215 123.866 157.421
88.9954 124.792 159.093
91.1638 124.752 157.007
90.9063 122.045 156.287
88.7163 120.084 157.582
88.0566 121.035 159.354
88.4389 125.157 161.123
89.394 126.899 159.983
90.9383 119.744 155.499
89.5118 118.524 156.127
91.0517 117.22 155.01
87.7101 120.943 160.995
87.7934 123.308 162.08
87.667 121.042 162.722
90.6777 127.941 159.224
92.32 126.149 157.701
93.3226 127.872 159.021
93.8294 101.293 164.913
95.2449 100.241 165.505
94.8744 99.1552 163.728
96.708 99.4774 165.953
95.8057 101.177 167.147
92.8823 103.04 165.943
92.7015 102.453 164.405
94.608 98.0545 162.058
95.8762 97.2192 162.624
94.7206 102.696 168.066
93.1348 103.799 167.379
93.5498 104.677 168.935
92.7378 101.991 162.861
93.7825 99.4965 161.574
92.8674 101.427 161.314
97.4018 96.9988 163.091
97.8014 98.1463 164.984
99.1109 97.0276 163.737
95.7737 103.594 153.932
94.0409 104.508 154.899
95.1715 101.929 154.042
92.4428 105.06 155.664
92.5971 106.713 154.946
96.3953 105.012 153.723
97.3341 102.82 152.852
96.2856 99.5872 153.342
95.1097 100.161 154.687
92.9666 108.146 154.347
95.0147 107.369 154.218
93.5878 109.822 154.266
98.0985 101.258 151.709
97.6954 99.1995 152.337
99.4388 99.2785 151.263
94.098 101.245 156.015
92.6496 103.827 156.534
92.9779 102.618 157.53
POLYGONS 1280  5120
3 164 162 163
3 163 44 164
3 162 43 163
3 164 42 162
3 166 165 163
3 163 43 166
3 165 44 163
3 166 14 165
3 168 167 162
3 162 42 168
3 167 43 162
3 168 13 167
3 170 169 164
3 164 44 170
3 169 42 164
3 170 12 169
3 173 171 172
3 172 46 173
3 171 43 172
3 173 45 171
3 167 174 172
3 172 43 167
3 174 46 172
3 167 13 174
3 175 166 171
3 171 45 175
3 166 43 171
3 175 14 166
3 177 176 173
3 173 46 177
3 176 45 173
3 177 4 176
3 180 178 179
3 179 48 180
3 178 42 179
3 180 47 178
3 169 181 179
3 179 42 169
3 181 48 179
3 169 12 181
3 182 168 178
3 178 47 182
3 168 42 178
3 182 13 168
3 184 183 180
3 180 48 184
3 183 47 180
3 184 8 183
3 187 185 186
3 186 50 187
3 185 44 186
3 187 49 185
3 165 188 186
3 186 44 165
3 188 50 186
3 165 14 188
3 189 170 185
3 185 49 189
3 170 44 185
3 189 12 170
3 191 190 187
3 187 50 191
3 190 49 187
3 191 7 190
3 194 192 193
3 193 53 194
3 192 52 193
3 194 51 192
3 196 195 193
3 193 52 196
3 195 53 193
3 196 16 195
3 198 197 192
3 192 51 198
3 197 52 192
3 198 14 197
3 200 199 194
3 194 53 200
3 199 51 194
3 200 15 199
3 203 201 202
3 202 45 203
3 201 52 202
3 203 54 201
3 197 175 202
3 202 52 197
3 175 45 202
3 197 14 175
3 204 196 201
3 201 54 204
3 196 52 201
3 204 16 196
3 176 205 203
3 203 45 176
3 205 54 203
3 176 4 205
3 208 206 207
3 207 55 208
3 206 51 207
3 208 50 206
3 199 209 207
3 207 51 199
3 209 55 207
3 199 15 209
3 188 198 206
3 206 50 188
3 198 51 206
3 188 14 198
3 210 191 208
3 208 55 210
3 191 50 208
3 210 7 191
3 213 211 212
3 212 57 213
3 211 53 212
3 213 56 211
3 195 214 212
3 212 53 195
3 214 57 212
3 195 16 214
3 215 200 211
3 211 56 215
3 200 53 211
3 215 15 200
3 217 216 213
3 213 57 217
3 216 56 213
3 217 9 216
3 220 218 219
3 219 60 220
3 218 59 219
3 220 58 218
3 222 221 219
3 219 59 222
3 221 60 219
3 222 19 221
3 224 223 218
3 218 58 224
3 223 59 218
3 224 18 223
3 226 225 220
3 220 60 226
3 225 58 220
3 226 17 225
3 229 227 228
3 228 62 229
3 227 59 228
3 229 61 227
3 223 230 228
3 228 59 223
3 230 62 228
3 223 18 230
3 231 222 227
3 227 61 231
3 222 59 227
3 231 19 222
3 233 232 229
3 229 62 233
3 232 61 229
3 233 5 232
3 236 234 235
3 235 64 236
3 234 58 235
3 236 63 234
3 225 237 235
3 235 58 225
3 237 64 235
3 225 17 237
3 238 224 234
3 234 63 238
3 224 58 234
3 238 18 224
3 240 239 236
3 236 64 240
3 239 63 236
3 240 6 239
3 243 241 242
3 242 66 243
3 241 60 242
3 243 65 241
3 221 244 242
3 242 60 221
3 244 66 242
3 221 19 244
3 245 226 241
3 241 65 245
3 226 60 241
3 245 17 226
3 247 246 243
3 243 66 247
3 246 65 243
3 247 11 246
3 250 248 249
3 249 69 250
3 248 68 249
3 250 67 248
3 252 251 249
3 249 68 252
3 251 69 249
3 252 18 251
3 254 253 248
3 248 67 254
3 253 68 248
3 254 21 253
3 256 255 250
3 250 69 256
3 255 67 250
3 256 20 255
3 259 257 258
3 258 70 259
3 257 68 258
3 259 62 257
3 253 260 258
3 258 68 253
3 260 70 258
3 253 21 260
3 230 252 257
3 257 62 230
3 252 68 257
3 230 18 252
3 261 233 259
3 259 70 261
3 233 62 259
3 261 5 233
3 264 262 263
3 263 72 264
3 262 67 263
3 264 71 262
3 255 265 263
3 263 67 255
3 265 72 263
3 255 20 265
3 266 254 262
3 262 71 266
3 254 67 262
3 266 21 254
3 268 267 264
3 264 72 268
3 267 71 264
3 268 10 267
3 271 269 270
3 270 63 271
3 269 69 270
3 271 73 269
3 251 238 270
3 270 69 251
3 238 63 270
3 251 18 238
3 272 256 269
3 269 73 272
3 256 69 269
3 272 20 256
3 239 273 271
3 271 63 239
3 273 73 271
3 239 6 273
3 276 274 275
3 275 76 276
3 274 75 275
3 276 74 274
3 278 277 275
3 275 75 278
3 277 76 275
3 278 24 277
3 280 279 274
3 274 74 280
3 279 75 274
3 280 23 279
3 282 281 276
3 276 76 282
3 281 74 276
3 282 22 281
3 285 283 284
3 284 78 285
3 283 75 284
3 285 77 283
3 279 286 284
3 284 75 279
3 286 78 284
3 279 23 286
3 287 278 283
3 283 77 287
3 278 75 283
3 287 24 278
3 289 288 285
3 285 78 289
3 288 77 285
3 289 0 288
3 292 290 291
3 291 80 292
3 290 74 291
3 292 79 290
3 281 293 291
3 291 74 281
3 293 80 291
3 281 22 293
3 294 280 290
3 290 79 294
3 280 74 290
3 294 23 280
3 296 295 292
3 292 80 296
3 295 79 292
3 296 4 295
3 299 297 298
3 298 82 299
3 297 76 298
3 299 81 297
3 277 300 298
3 298 76 277
3 300 82 298
3 277 24 300
3 301 282 297
3 297 81 301
3 282 76 297
3 301 22 282
3 303 302 299
3 299 82 303
3 302 81 299
3 303 3 302
3 306 304 305
3 305 85 306
3 304 84 305
3 306 83 304
3 308 307 305
3 305 84 308
3 307 85 305
3 308 26 307
3 310 309 304
3 304 83 310
3 309 84 304
3 310 24 309
3 312 311 306
3 306 85 312
3 311 83 306
3 312 25 311
3 315 313 314
3 314 77 315
3 313 84 314
3 315 86 313
3 309 287 314
3 314 84 309
3 287 77 314
3 309 24 287
3 316 308 313
3 313 86 316
3 308 84 313
3 316 26 308
3 288 317 315
3 315 77 288
3 317 86 315
3 288 0 317
3 320 318 319
3 319 87 320
3 318 83 319
3 320 82 318
3 311 321 319
3 319 83 311
3 321 87 319
3 311 25 321
3 300 310 318
3 318 82 300
3 310 83 318
3 300 24 310
3 322 303 320
3 320 87 322
3 303 82 320
3 322 3 303
3 325 323 324
3 324 89 325
3 323 85 324
3 325 88 323
3 307 326 324
3 324 85 307
3 326 89 324
3 307 26 326
3 327 312 323
3 323 88 327
3 312 85 323
3 327 25 312
3 329 328 325
3 325 89 329
3 328 88 325
3 329 5 328
3 332 330 331
3 331 92 332
3 330 91 331
3 332 90 330
3 334 333 331
3 331 91 334
3 333 92 331
3 334 29 333
3 336 335 330
3 330 90 336
3 335 91 330
3 336 28 335
3 338 337 332
3 332 92 338
3 337 90 332
3 338 27 337
3 341 339 340
3 340 94 341
3 339 91 340
3 341 93 339
3 335 342 340
3 340 91 335
3 342 94 340
3 335 28 342
3 343 334 339
3 339 93 343
3 334 91 339
3 343 29 334
3 345 344 341
3 341 94 345
3 344 93 341
3 345 2 344
3 348 346 347
3 347 96 348
3 346 90 347
3 348 95 346
3 337 349 347
3 347 90 337
3 349 96 347
3 337 27 349
3 350 336 346
3 346 95 350
3 336 90 346
3 350 28 336
3 352 351 348
3 348 96 352
3 351 95 348
3 352 7 351
3 355 353 354
3 354 98 355
3 353 92 354
3 355 97 353
3 333 356 354
3 354 92 333
3 356 98 354
3 333 29 356
3 357 338 353
3 353 97 357
3 338 92 353
3 357 27 338
3 359 358 355
3 355 98 359
3 358 97 355
3 359 1 358
3 362 360 361
3 361 101 362
3 360 100 361
3 362 99 360
3 364 363 361
3 361 100 364
3 363 101 361
3 364 31 363
3 366 365 360
3 360 99 366
3 365 100 360
3 366 29 365
3 368 367 362
3 362 101 368
3 367 99 362
3 368 30 367
3 371 369 370
3 370 93 371
3 369 100 370
3 371 102 369
3 365 343 370
3 370 100 365
3 343 93 370
3 365 29 343
3 372 364 369
3 369 102 372
3 364 100 369
3 372 31 364
3 344 373 371
3 371 93 344
3 373 102 371
3 344 2 373
3 376 374 375
3 375 103 376
3 374 99 375
3 376 98 374
3 367 377 375
3 375 99 367
3 377 103 375
3 367 30 377
3 356 366 374
3 374 98 356
3 366 99 374
3 356 29 366
3 378 359 376
3 376 103 378
3 359 98 376
3 378 1 359
3 381 379 380
3 380 105 381
3 379 101 380
3 381 104 379
3 363 382 380
3 380 101 363
3 382 105 380
3 363 31 382
3 383 368 379
3 379 104 383
3 368 101 379
3 383 30 368
3 385 384 381
3 381 105 385
3 384 104 381
3 385 6 384
3 388 386 387
3 387 108 388
3 386 107 387
3 388 106 386
3 390 389 387
3 387 107 390
3 389 108 387
3 390 34 389
3 392 391 386
3 386 106 392
3 391 107 386
3 392 33 391
3 394 393 388
3 388 108 394
3 393 106 388
3 394 32 393
3 397 395 396
3 396 110 397
3 395 107 396
3 397 109 395
3 391 398 396
3 396 107 391
3 398 110 396
3 391 33 398
3 399 390 395
3 395 109 399
3 390 107 395
3 399 34 390
3 401 400 397
3 397 110 401
3 400 109 397
3 401 8 400
3 404 402 403
3 403 112 404
3 402 106 403
3 404 111 402
3 393 405 403
3 403 106 393
3 405 112 403
3 393 32 405
3 406 392 402
3 402 111 406
3 392 106 402
3 406 33 392
3 408 407 404
3 404 112 408
3 407 111 404
3 408 0 407
3 411 409 410
3 410 114 411
3 409 108 410
3 411 113 409
3 389 412 410
3 410 108 389
3 412 114 410
3 389 34 412
3 413 394 409
3 409 113 413
3 394 108 409
3 413 32 394
3 415 414 411
3 411 114 415
3 414 113 411
3 415 11 414
3 418 416 417
3 417 117 418
3 416 116 417
3 418 115 416
3 420 419 417
3 417 116 420
3 419 117 417
3 420 36 419
3 422 421 416
3 416 115 422
3 421 116 416
3 422 34 421
3 424 423 418
3 418 117 424
3 423 115 418
3 424 35 423
3 427 425 426
3 426 109 427
3 425 116 426
3 427 118 425
3 421 399 426
3 426 116 421
3 399 109 426
3 421 34 399
3 428 420 425
3 425 118 428
3 420 116 425
3 428 36 420
3 400 429 427
3 427 109 400
3 429 118 427
3 400 8 429
3 432 430 431
3 431 119 432
3 430 115 431
3 432 114 430
3 423 433 431
3 431 115 423
3 433 119 431
3 423 35 433
3 412 422 430
3 430 114 412
3 422 115 430
3 412 34 422
3 434 415 432
3 432 119 434
3 415 114 432
3 434 11 415
3 437 435 436
3 436 121 437
3 435 117 436
3 437 120 435
3 419 438 436
3 436 117 419
3 438 121 436
3 419 36 438
3 439 424 435
3 435 120 439
3 424 117 435
3 439 35 424
3 441 440 437
3 437 121 441
3 440 120 437
3 441 1 440
3 444 442 443
3 443 124 444
3 442 123 443
3 444 122 442
3 446 445 443
3 443 123 446
3 445 124 443
3 446 39 445
3 448 447 442
3 442 122 448
3 447 123 442
3 448 38 447
3 450 449 444
3 444 124 450
3 449 122 444
3 450 37 449
3 453 451 452
3 452 126 453
3 451 123 452
3 453 125 451
3 447 454 452
3 452 123 447
3 454 126 452
3 447 38 454
3 455 446 451
3 451 125 455
3 446 123 451
3 455 39 446
3 457 456 453
3 453 126 457
3 456 125 453
3 457 9 456
3 460 458 459
3 459 128 460
3 458 122 459
3 460 127 458
3 449 461 459
3 459 122 449
3 461 128 459
3 449 37 461
3 462 448 458
3 458 127 462
3 448 122 458
3 462 38 448
3 464 463 460
3 460 128 464
3 463 127 460
3 464 10 463
3 467 465 466
3 466 130 467
3 465 124 466
3 467 129 465
3 445 468 466
3 466 124 445
3 468 130 466
3 445 39 468
3 469 450 465
3 465 129 469
3 450 124 465
3 469 37 450
3 471 470 467
3 467 130 471
3 470 129 467
3 471 3 470
3 474 472 473
3 473 133 474
3 472 132 473
3 474 131 472
3 476 475 473
3 473 132 476
3 475 133 473
3 476 38 475
3 478 477 472
3 472 131 478
3 477 132 472
3 478 41 477
3 480 479 474
3 474 133 480
3 479 131 474
3 480 40 479
3 483 481 482
3 482 134 483
3 481 132 482
3 483 126 481
3 477 484 482
3 482 132 477
3 484 134 482
3 477 41 484
3 454 476 481
3 481 126 454
3 476 132 481
3 454 38 476
3 485 457 483
3 483 134 485
3 457 126 483
3 485 9 457
3 488 486 487
3 487 136 488
3 486 131 487
3 488 135 486
3 479 489 487
3 487 131 479
3 489 136 487
3 479 40 489
3 490 478 486
3 486 135 490
3 478 131 486
3 490 41 478
3 492 491 488
3 488 136 492
3 491 135 488
3 492 2 491
3 495 493 494
3 494 127 495
3 493 133 494
3 495 137 493
3 475 462 494
3 494 133 475
3 462 127 494
3 475 38 462
3 496 480 493
3 493 137 496
3 480 133 493
3 496 40 480
3 463 497 495
3 495 127 463
3 497 137 495
3 463 10 497
3 500 498 499
3 499 140 500
3 498 139 499
3 500 138 498
3 502 501 499
3 499 139 502
3 501 140 499
3 502 33 501
3 504 503 498
3 498 138 504
3 503 139 498
3 504 13 503
3 506 505 500
3 500 140 506
3 505 138 500
3 506 23 505
3 509 507 508
3 508 47 509
3 507 139 508
3 509 110 507
3 503 182 508
3 508 139 503
3 182 47 508
3 503 13 182
3 398 502 507
3 507 110 398
3 502 139 507
3 398 33 502
3 183 401 509
3 509 47 183
3 401 110 509
3 183 8 401
3 512 510 511
3 511 79 512
3 510 138 511
3 512 46 510
3 505 294 511
3 511 138 505
3 294 79 511
3 505 23 294
3 174 504 510
3 510 46 174
3 504 138 510
3 174 13 504
3 295 177 512
3 512 79 295
3 177 46 512
3 295 4 177
3 515 513 514
3 514 111 515
3 513 140 514
3 515 78 513
3 501 406 514
3 514 140 501
3 406 111 514
3 501 33 406
3 286 506 513
3 513 78 286
3 506 140 513
3 286 23 506
3 407 289 515
3 515 111 407
3 289 78 515
3 407 0 289
3 518 516 517
3 517 143 518
3 516 142 517
3 518 141 516
3 520 519 517
3 517 142 520
3 519 143 517
3 520 19 519
3 522 521 516
3 516 141 522
3 521 142 516
3 522 32 521
3 524 523 518
3 518 143 524
3 523 141 518
3 524 26 523
3 527 525 526
3 526 113 527
3 525 142 526
3 527 66 525
3 521 413 526
3 526 142 521
3 413 113 526
3 521 32 413
3 244 520 525
3 525 66 244
3 520 142 525
3 244 19 520
3 414 247 527
3 527 113 414
3 247 66 527
3 414 11 247
3 530 528 529
3 529 86 530
3 528 141 529
3 530 112 528
3 523 316 529
3 529 141 523
3 316 86 529
3 523 26 316
3 405 522 528
3 528 112 405
3 522 141 528
3 405 32 522
3 317 408 530
3 530 86 317
3 408 112 530
3 317 0 408
3 533 531 532
3 532 61 533
3 531 143 532
3 533 89 531
3 519 231 532
3 532 143 519
3 231 61 532
3 519 19 231
3 326 524 531
3 531 89 326
3 524 143 531
3 326 26 524
3 232 329 533
3 533 61 232
3 329 89 533
3 232 5 329
3 536 534 535
3 535 146 536
3 534 145 535
3 536 144 534
3 538 537 535
3 535 145 538
3 537 146 535
3 538 22 537
3 540 539 534
3 534 144 540
3 539 145 534
3 540 16 539
3 542 541 536
3 536 146 542
3 541 144 536
3 542 39 541
3 545 543 544
3 544 54 545
3 543 145 544
3 545 80 543
3 539 204 544
3 544 145 539
3 204 54 544
3 539 16 204
3 293 538 543
3 543 80 293
3 538 145 543
3 293 22 538
3 205 296 545
3 545 54 205
3 296 80 545
3 205 4 296
3 548 546 547
3 547 125 548
3 546 144 547
3 548 57 546
3 541 455 547
3 547 144 541
3 455 125 547
3 541 39 455
3 214 540 546
3 546 57 214
3 540 144 546
3 214 16 540
3 456 217 548
3 548 125 456
3 217 57 548
3 456 9 217
3 551 549 550
3 550 81 551
3 549 146 550
3 551 130 549
3 537 301 550
3 550 146 537
3 301 81 550
3 537 22 301
3 468 542 549
3 549 130 468
3 542 146 549
3 468 39 542
3 302 471 551
3 551 81 302
3 471 130 551
3 302 3 471
3 554 552 553
3 553 149 554
3 552 148 553
3 554 147 552
3 556 555 553
3 553 148 556
3 555 149 553
3 556 21 555
3 558 557 552
3 552 147 558
3 557 148 552
3 558 25 557
3 560 559 554
3 554 149 560
3 559 147 554
3 560 37 559
3 563 561 562
3 562 88 563
3 561 148 562
3 563 70 561
3 557 327 562
3 562 148 557
3 327 88 562
3 557 25 327
3 260 556 561
3 561 70 260
3 556 148 561
3 260 21 556
3 328 261 563
3 563 88 328
3 261 70 563
3 328 5 261
3 566 564 565
3 565 129 566
3 564 147 565
3 566 87 564
3 559 469 565
3 565 147 559
3 469 129 565
3 559 37 469
3 321 558 564
3 564 87 321
3 558 147 564
3 321 25 558
3 470 322 566
3 566 129 470
3 322 87 566
3 470 3 322
3 569 567 568
3 568 71 569
3 567 149 568
3 569 128 567
3 555 266 568
3 568 149 555
3 266 71 568
3 555 21 266
3 461 560 567
3 567 128 461
3 560 149 567
3 461 37 560
3 267 464 569
3 569 71 267
3 464 128 569
3 267 10 464
3 572 570 571
3 571 152 572
3 570 151 571
3 572 150 570
3 574 573 571
3 571 151 574
3 573 152 571
3 574 27 573
3 576 575 570
3 570 150 576
3 575 151 570
3 576 12 575
3 578 577 572
3 572 152 578
3 577 150 572
3 578 36 577
3 581 579 580
3 580 49 581
3 579 151 580
3 581 96 579
3 575 189 580
3 580 151 575
3 189 49 580
3 575 12 189
3 349 574 579
3 579 96 349
3 574 151 579
3 349 27 574
3 190 352 581
3 581 49 190
3 352 96 581
3 190 7 352
3 584 582 583
3 583 118 584
3 582 150 583
3 584 48 582
3 577 428 583
3 583 150 577
3 428 118 583
3 577 36 428
3 181 576 582
3 582 48 181
3 576 150 582
3 181 12 576
3 429 184 584
3 584 118 429
3 184 48 584
3 429 8 184
3 587 585 586
3 586 97 587
3 585 152 586
3 587 121 585
3 573 357 586
3 586 152 573
3 357 97 586
3 573 27 357
3 438 578 585
3 585 121 438
3 578 152 585
3 438 36 578
3 358 441 587
3 587 97 358
3 441 121 587
3 358 1 441
3 590 588 589
3 589 155 590
3 588 154 589
3 590 153 588
3 592 591 589
3 589 154 592
3 591 155 589
3 592 17 591
3 594 593 588
3 588 153 594
3 593 154 588
3 594 30 593
3 596 595 590
3 590 155 596
3 595 153 590
3 596 35 595
3 599 597 598
3 598 104 599
3 597 154 598
3 599 64 597
3 593 383 598
3 598 154 593
3 383 104 598
3 593 30 383
3 237 592 597
3 597 64 237
3 592 154 597
3 237 17 592
3 384 240 599
3 599 104 384
3 240 64 599
3 384 6 240
3 602 600 601
3 601 120 602
3 600 153 601
3 602 103 600
3 595 439 601
3 601 153 595
3 439 120 601
3 595 35 439
3 377 594 600
3 600 103 377
3 594 153 600
3 377 30 594
3 440 378 602
3 602 120 440
3 378 103 602
3 440 1 378
3 605 603 604
3 604 65 605
3 603 155 604
3 605 119 603
3 591 245 604
3 604 155 591
3 245 65 604
3 591 17 245
3 433 596 603
3 603 119 433
3 596 155 603
3 433 35 596
3 246 434 605
3 605 65 246
3 434 119 605
3 246 11 434
3 608 606 607
3 607 158 608
3 606 157 607
3 608 156 606
3 610 609 607
3 607 157 610
3 609 158 607
3 610 15 609
3 612 611 606
3 606 156 612
3 611 157 606
3 612 28 611
3 614 613 608
3 608 158 614
3 613 156 608
3 614 41 613
3 617 615 616
3 616 95 617
3 615 157 616
3 617 55 615
3 611 350 616
3 616 157 611
3 350 95 616
3 611 28 350
3 209 610 615
3 615 55 209
3 610 157 615
3 209 15 610
3 351 210 617
3 617 95 351
3 210 55 617
3 351 7 210
3 620 618 619
3 619 135 620
3 618 156 619
3 620 94 618
3 613 490 619
3 619 156 613
3 490 135 619
3 613 41 490
3 342 612 618
3 618 94 342
3 612 156 618
3 342 28 612
3 491 345 620
3 620 135 491
3 345 94 620
3 491 2 345
3 623 621 622
3 622 56 623
3 621 158 622
3 623 134 621
3 609 215 622
3 622 158 609
3 215 56 622
3 609 15 215
3 484 614 621
3 621 134 484
3 614 158 621
3 484 41 614
3 216 485 623
3 623 56 216
3 485 134 623
3 216 9 485
3 626 624 625
3 625 161 626
3 624 160 625
3 626 159 624
3 628 627 625
3 625 160 628
3 627 161 625
3 628 31 627
3 630 629 624
3 624 159 630
3 629 160 624
3 630 20 629
3 632 631 626
3 626 161 632
3 631 159 626
3 632 40 631
3 635 633 634
3 634 73 635
3 633 160 634
3 635 105 633
3 629 272 634
3 634 160 629
3 272 73 634
3 629 20 272
3 382 628 633
3 633 105 382
3 628 160 633
3 382 31 628
3 273 385 635
3 635 73 273
3 385 105 635
3 273 6 385
3 638 636 637
3 637 137 638
3 636 159 637
3 638 72 636
3 631 496 637
3 637 159 631
3 496 137 637
3 631 40 496
3 265 630 636
3 636 72 265
3 630 159 636
3 265 20 630
3 497 268 638
3 638 137 497
3 268 72 638
3 497 10 268
3 641 639 640
3 640 102 641
3 639 161 640
3 641 136 639
3 627 372 640
3 640 161 627
3 372 102 640
3 627 31 372
3 489 632 639
3 639 136 489
3 632 161 639
3 489 40 632
3 373 492 641
3 641 102 373
3 492 136 641
3 373 2 492
