# vtk DataFile Version 3.0
this file was written using fslvtkio
ASCII
DATASET POLYDATA
POINTS 642 float
70.3232 133.966 144.114
57.042 136.506 145.879
58.5545 130.59 143.558
69.0266 128.909 142.89
70.2947 127.527 148.725
65.5855 135.566 137.874
57.1104 136.379 137.457
62.5363 128.93 149.17
65.5731 134.518 148.332
63.933 123.725 145.97
62.0811 130.779 141.165
63.2408 138.734 141.22
63.9791 131.708 149.132
68.7774 131.308 149.645
66.324 127.328 150.263
62.9197 124.604 148.92
67.5197 124.077 147.698
59.9429 138.866 138.85
61.8956 136.399 136.14
65.1957 139.107 137.543
59.6725 133.783 138.788
63.5804 133.664 139.436
71.843 127.011 144.824
72.0808 130.913 146.683
71.4266 131.099 143.044
67.2957 132.535 141.123
67.9915 135.555 140.505
59.4076 133.019 147.515
60.329 129.419 146.47
55.8243 134.169 144.626
55.8951 137.206 141.726
56.3825 133.583 140.484
66.8298 136.927 142.438
68.9408 134.369 146.765
64.3718 136.968 144.94
59.671 138.02 143.252
61.249 135.666 147.643
65.2691 130.05 142.637
63.3013 127.236 143.962
66.9949 126.071 144.39
59.6258 130.029 141.858
60.2521 125.634 145.685
66.3828 131.157 149.812
67.7567 129.32 150.817
65.2631 129.738 150.755
68.5366 127.166 149.878
69.8089 129.471 149.768
67.2955 133.076 149.381
64.7662 133.236 148.917
63.2482 130.339 149.374
64.1274 128.07 150.216
64.7037 125.9 149.647
67.2109 125.053 149.561
65.2271 123.75 148.885
69.2065 125.767 148.106
62.6143 126.987 149.221
63.3968 123.517 147.481
65.7338 123.225 146.817
60.8143 138.191 136.728
63.5504 138.002 136.168
62.6063 139.356 137.803
65.9463 137.285 136.788
64.0502 136.025 136.659
59.25 136.565 136.406
58.4552 137.669 138.094
61.6407 138.937 139.912
64.1587 138.664 139.489
61.6642 134.021 139.113
62.6992 134.981 137.712
60.3934 134.933 137.407
64.5772 134.654 138.558
62.6699 132.375 140.387
60.9665 132.368 140.174
58.0334 134.525 137.275
73.1489 128.629 145.799
72.6655 130.875 144.604
72.7303 128.637 143.357
71.139 132.669 143.641
71.9639 132.866 145.722
71.3569 129.182 147.899
71.4363 126.937 146.997
70.688 127.582 142.974
70.3489 129.636 142.89
69.2848 131.879 142.181
69.5555 133.418 142.145
68.0277 133.91 140.616
69.2306 134.726 142.377
68.1552 130.75 142.747
66.3708 134.238 139.567
67.0272 135.72 138.697
59.9443 131.697 146.766
58.5492 132.575 145.523
57.1286 133.528 146.51
57.7893 132.535 143.83
59.4311 130.176 145.092
61.5064 128.989 147.743
61.4901 131.062 147.935
57.6961 134.968 147.165
55.4146 135.548 145.573
54.9208 135.815 143.298
56.2858 134.206 142.606
55.5523 135.627 140.993
57.5633 132.314 142.327
56.1108 136.822 143.966
56.6129 136.945 139.511
55.8923 135.018 138.738
67.8394 135.503 144.535
66.557 135.609 145.644
65.5964 136.594 143.806
65.0547 135.826 146.9
67.3045 134.574 147.738
69.9647 134.35 145.495
68.6001 135.504 143.285
64.9543 137.91 141.732
63.7022 137.989 143.122
61.9733 137.639 144.293
62.7192 136.376 146.154
60.4957 136.814 145.421
63.5028 135.212 148.035
61.3775 138.576 142.116
58.3348 137.121 144.428
59.0353 136.228 146.986
64.3854 128.473 143.241
64.9106 126.25 143.866
66.254 127.727 143.322
65.5193 124.842 145.275
63.5157 125.251 144.957
62.5769 129.372 142.835
63.6155 130.582 142.045
67.155 129.403 143.005
68.3379 127.42 143.284
60.0441 127.677 143.709
61.884 126.442 144.724
61.3362 128.517 143.162
62.1042 124.196 145.906
59.0465 128.028 144.951
58.2516 129.889 142.403
60.8418 130.358 141.479
70.6492 131.292 148.518
69.2358 133.225 148.662
71.0994 133.128 147.427
67.6983 136.562 141.167
66.1594 138.222 139.978
67.0532 137.718 138.464
67.5746 124.889 145.849
70.0512 125.359 146.399
69.5265 126.455 144.589
66.1968 131.405 142.007
65.4501 133.131 140.314
64.3076 131.863 140.995
62.3823 133.727 148.412
61.7245 132.378 148.512
59.919 134.399 148.039
57.5262 137.986 142.443
57.7974 137.891 140.294
59.3316 138.752 140.964
59.7555 127.098 146.56
61.2689 126.711 148.045
61.4926 124.573 147.459
59.5356 132.123 140.594
57.6627 133.241 139.097
58.0634 131.616 140.9
67.0126 130.317 150.357
66.4318 129.454 150.804
65.7759 130.544 150.414
65.9028 128.382 150.908
66.9852 128.302 150.617
68.2225 130.325 150.259
67.5339 131.124 149.852
65.2158 131.332 149.584
64.6926 130.786 150.062
68.1819 128.241 150.441
68.9484 129.449 150.558
69.3092 128.297 150.034
69.3331 130.446 149.751
67.4794 127.119 150.275
69.4182 127.37 149.228
70.1545 128.397 149.29
66.8568 132.124 149.641
65.5992 132.224 149.504
66.0278 133.04 149.271
64.3675 132.456 149.066
68.0528 132.139 149.546
66.4229 133.888 148.912
65.2262 133.907 148.634
64.1998 130.115 150.188
64.722 128.818 150.791
63.7058 129.291 150.08
65.1772 127.622 150.406
63.6822 131.023 149.278
62.7069 129.742 149.489
63.2566 128.56 149.592
65.9113 125.278 149.775
66.2939 124.393 149.184
64.8659 124.533 149.476
66.4656 123.765 148.305
67.3712 124.524 148.537
66.779 126.076 149.965
65.524 126.47 149.902
63.821 125.326 149.177
63.9333 124.016 149.115
68.2665 125.364 148.877
67.9773 125.938 149.833
68.8391 126.266 149.014
68.4321 124.811 147.946
69.7615 126.692 148.378
64.44 127.024 150.041
63.6072 126.515 149.604
63.4188 127.511 149.71
62.7697 125.909 149.181
62.5818 127.98 149.166
64.2703 123.401 148.203
65.54 123.143 147.862
64.5902 123.131 147.147
66.5935 123.514 147.335
63.1451 123.724 148.391
63.6686 123.465 146.64
64.7931 123.415 146.31
62.1647 138.224 136.359
63.003 139.016 136.816
61.6476 138.95 137.129
63.9188 139.254 137.637
64.4375 138.801 136.607
62.7704 137.183 135.893
61.3458 137.439 136.015
60.3967 138.727 137.626
61.2525 139.201 138.134
64.9232 137.759 136.336
63.9494 136.859 136.061
64.8808 136.662 136.635
63.0479 136.201 136.358
65.8116 138.43 136.8
65.7005 136.363 137.367
64.8302 135.825 137.238
59.9853 137.508 136.44
59.5367 138.029 137.259
58.7459 137.348 137.035
59.1569 138.281 138.402
60.6087 136.583 136.173
58.1224 136.512 136.834
57.7482 137.063 137.737
62.0263 139.201 138.861
63.4378 139.292 138.601
62.9118 138.82 139.62
64.647 139.074 138.561
60.715 139.061 139.318
62.4601 138.784 140.573
63.6278 138.555 140.415
62.1054 134.434 138.314
61.529 135.046 137.565
61.0674 134.429 138.076
61.1138 135.829 136.893
62.2996 135.623 136.923
63.1303 134.307 138.598
62.6261 133.856 139.234
60.6852 133.975 138.848
60.0083 134.366 137.961
63.302 135.453 137.098
63.6729 134.83 138.025
64.2409 135.273 137.529
64.0489 134.236 139.076
65.103 135.079 138.138
62.2073 133.308 139.856
61.265 133.315 139.642
61.8661 132.468 140.251
60.3487 133.184 139.557
63.0527 133.063 139.942
62.3243 131.487 140.787
61.5239 131.514 140.662
59.2601 134.723 137.178
59.79 135.649 136.624
58.5334 135.507 136.716
58.96 134.116 137.955
57.2956 135.485 137.138
73.0953 129.735 145.134
72.9144 129.829 143.954
73.4131 128.555 144.443
72.1659 129.977 143.177
72.2125 130.91 143.752
72.5857 130.724 145.679
72.6587 129.789 146.271
72.7889 127.65 145.139
72.7717 127.778 143.897
72.2053 131.781 144.079
72.3456 131.759 145.137
71.6813 132.611 144.61
72.0866 131.828 146.182
71.5586 131.872 143.216
70.7027 133.273 143.945
71.0481 133.321 144.861
72.3626 128.876 146.924
72.4998 127.711 146.401
71.6447 127.968 147.424
72.0053 126.762 145.927
71.6435 130.065 147.095
70.888 128.327 148.488
70.7792 127.183 147.861
72.0374 127.844 142.806
71.6234 129.104 142.809
70.8252 128.551 142.686
70.8829 130.374 143.093
71.4734 127.335 143.869
69.8696 128.204 142.629
69.7057 129.133 142.856
69.6647 132.526 141.978
68.8382 133.729 141.352
68.6145 132.831 141.496
68.0721 134.864 140.478
68.8713 134.614 141.332
70.5545 132.108 142.636
70.3425 131.39 142.63
68.2878 132.256 141.699
67.7182 133.15 140.959
69.324 134.153 142.356
70.3045 132.978 142.884
70.0247 133.645 143.165
68.6857 135.183 141.402
69.8158 134.218 143.322
69.8546 130.788 142.607
68.7819 131.144 142.351
69.1962 130.153 142.886
67.8016 131.604 141.869
68.5841 129.762 143.025
67.2762 134.001 139.996
67.5234 134.987 139.708
66.8398 134.841 139.075
67.6466 135.836 139.437
66.8048 133.414 140.384
66.0073 134.924 138.604
66.3333 135.659 138.153
59.329 132.122 146.134
57.9468 133.121 145.857
58.6987 132.675 146.623
56.3008 133.759 145.67
57.201 133.497 145.097
59.535 131.106 145.946
60.1978 130.576 146.559
59.668 132.438 147.057
58.1883 133.266 147.146
57.9795 132.686 144.739
58.9831 131.424 145.288
58.4675 131.53 144.523
59.7815 129.892 145.924
56.88 133.529 144.233
58.3177 131.555 143.693
58.8303 130.433 144.394
60.8327 130.387 147.129
60.7134 131.492 147.272
61.5129 130.276 147.827
60.5314 131.975 147.731
60.8934 129.094 147.111
62.1446 128.902 148.398
62.0851 129.997 148.624
57.2101 134.218 147.033
56.1175 134.442 146.282
56.4803 135.191 146.533
55.4268 134.786 145.146
58.3618 134.114 147.58
57.3043 135.832 146.645
56.2813 136.016 145.714
55.2766 134.852 142.963
55.7211 134.845 141.788
55.1063 135.76 142.161
55.9545 134.733 140.711
56.5184 134.058 141.54
55.8397 134.212 143.642
55.1877 134.982 144.048
55.0713 136.609 142.423
55.638 136.496 141.423
56.9957 133.204 142.318
56.9034 133.393 143.32
57.6486 132.326 143.042
57.0467 133.066 141.438
58.0392 131.418 142.938
55.0079 135.644 144.426
55.1292 136.41 143.645
55.5316 136.254 144.794
55.8212 137.087 142.885
56.4597 136.699 144.997
55.8946 136.32 140.207
55.7037 135.305 139.837
55.8605 135.92 138.976
56.0368 134.329 139.626
56.2304 137.136 140.67
56.847 136.559 138.423
56.2873 135.776 137.888
67.1581 135.384 145.063
66.0899 136.196 144.712
66.6642 136.064 144.155
65.0772 136.875 144.416
65.4511 136.333 145.272
67.7477 134.957 146.323
68.3612 134.917 145.697
67.2597 136.174 143.541
66.2218 136.62 143.168
65.8108 135.758 146.281
66.9109 135.024 146.73
66.1188 135.185 147.244
68.1694 134.473 147.318
64.6883 136.298 145.861
65.3062 135.293 147.815
66.4186 134.491 148.097
68.7995 134.8 145.031
68.2484 135.518 143.909
69.1852 134.816 144.395
67.7663 136.279 142.904
69.5331 134.331 146.156
70.2143 134.234 144.805
69.5249 134.729 143.713
65.2344 137.245 142.872
64.7771 137.405 143.481
64.5145 137.985 142.501
64.0079 137.449 144.061
65.9232 137.482 142.045
64.1734 138.405 141.408
63.4197 138.542 142.126
62.384 137.024 145.193
61.6283 136.675 145.9
61.1923 137.296 144.846
60.8995 136.391 146.717
61.9327 135.987 146.881
63.578 136.721 145.574
63.161 137.376 144.669
60.8079 137.822 143.789
60.1499 137.396 144.3
63.0346 135.796 147.087
63.9275 136.175 146.475
64.279 135.605 147.453
62.2667 135.287 147.665
64.5819 134.842 148.17
62.8384 137.806 143.707
61.6732 138.123 143.223
62.5369 138.274 142.697
60.5126 138.358 142.711
62.2547 138.717 141.634
59.4428 136.973 144.857
59.7812 136.639 146.276
58.6909 136.797 145.783
60.1453 136.088 147.467
59.0611 137.459 143.773
57.5173 136.982 145.312
57.9936 136.415 146.5
64.6132 127.329 143.657
65.6015 126.85 143.699
65.2113 128.015 143.359
66.6919 126.874 143.948
65.9315 126.126 144.12
64.0685 126.756 143.958
63.7665 127.888 143.617
64.8919 129.134 142.876
65.801 128.812 142.947
65.2646 125.591 144.441
64.26 125.917 144.387
64.374 125.025 145.039
63.4844 126.26 144.472
66.2535 125.271 144.67
64.8129 124.196 145.582
63.617 124.464 145.601
63.4697 128.919 143.037
64.0255 129.607 142.765
63.1718 129.956 142.441
64.4765 130.3 142.428
62.9365 128.442 143.525
62.2606 130.089 142.085
62.7834 130.625 141.54
66.8273 128.555 143.01
67.2989 127.51 143.461
67.8244 128.283 142.926
67.7312 126.908 144.04
66.1859 129.702 142.83
68.0795 129.2 142.941
68.834 128.141 142.885
60.915 127.014 144.29
61.6954 127.455 143.824
60.6883 128.035 143.165
62.3812 127.818 143.684
62.6049 126.822 144.295
61.0616 126.2 145.183
60.0571 126.541 144.764
59.8774 129.016 143.03
60.4313 129.395 142.807
62.7432 125.776 144.767
61.8749 125.346 145.359
62.906 124.673 145.473
61.3438 124.975 145.839
63.0693 123.865 146.097
59.3783 127.592 144.322
59.1651 128.686 143.062
58.7065 128.966 143.763
58.9454 129.871 142.066
59.5858 126.675 145.397
58.7514 129.357 144.341
58.2209 130.162 143.084
61.0931 129.603 142.58
61.9736 128.984 143.179
61.6732 129.882 142.452
60.268 130.274 141.714
61.4411 130.543 141.281
70.0211 132.242 148.732
70.2234 133.208 148.186
70.9248 132.232 147.968
70.1858 133.838 147.282
69.3181 133.917 147.86
69.0349 132.234 149.188
69.8945 131.363 149.299
71.2769 131.206 147.543
71.5952 132.052 147.073
68.382 133.966 148.291
68.2955 133.122 149.128
67.4216 133.927 148.609
70.2752 130.418 149.093
70.8761 130.326 148.052
70.5537 129.431 148.741
71.6381 133.053 146.568
70.6263 133.8 146.55
71.0365 133.704 145.746
67.0285 137.624 140.527
66.7562 138.318 139.149
67.4587 137.428 139.824
66.3266 138.643 137.719
65.7567 138.85 138.654
66.5391 137.529 141.257
67.3679 136.859 141.752
67.9261 136.252 140.735
67.6684 136.78 139.408
65.1982 138.46 139.662
65.5861 137.908 140.925
64.553 138.273 140.627
68.1301 136.037 142.254
68.4006 135.696 141.734
69.0327 135.191 142.745
67.1325 136.723 138.555
66.7533 137.698 137.389
66.5051 136.512 137.797
68.9607 125.023 146.165
70.0485 125.845 145.395
68.7049 125.69 145.351
70.6747 126.67 144.581
71.1989 126.116 145.578
68.8653 124.508 147.064
67.6237 124.233 146.686
67.3137 125.407 145.128
68.2687 126.239 144.517
70.9569 125.936 146.691
69.7681 125.176 147.51
70.2091 126.419 147.458
66.6994 123.946 146.249
66.412 124.835 145.436
65.6296 123.924 145.77
68.8143 126.954 144.065
70.097 126.926 143.829
69.4122 127.401 143.062
65.8907 132.057 140.902
64.9341 132.444 140.563
65.2438 131.542 141.341
63.9209 132.769 140.17
64.5132 133.399 139.809
66.3539 132.89 140.733
66.7996 131.921 141.448
65.6656 130.816 142.409
64.8408 130.958 141.828
64.923 133.938 139.619
65.9165 133.668 139.971
65.4078 134.455 139.222
67.1855 131.148 142.408
66.5814 130.611 142.831
67.6117 130.174 142.913
64.0337 131.084 141.4
63.4388 132.147 140.766
63.1121 131.319 141.112
61.9707 133.08 148.587
60.7489 133.389 148.381
61.1593 133.955 148.28
59.6104 133.774 147.906
60.4798 132.605 148.178
62.9649 132.104 148.735
63.2341 132.796 148.803
61.6616 134.616 148.079
60.5326 135.041 147.888
61.4606 131.705 148.359
62.7376 131.246 148.654
62.3852 130.626 148.658
63.5506 133.49 148.588
62.9205 134.384 148.121
63.9808 134.109 148.331
59.4158 135.405 147.632
58.775 134.748 147.751
58.3764 135.537 147.097
57.5921 137.925 141.319
58.5194 138.257 140.651
58.5033 138.371 141.697
59.5067 138.751 139.906
58.8557 138.279 139.568
56.8903 137.466 140.998
56.7042 137.608 142.073
58.6209 138.052 142.781
59.4571 138.465 142.12
58.12 137.99 139.185
57.1012 137.593 139.9
57.5266 137.279 138.791
56.7587 137.327 143.096
57.9307 137.461 143.412
57.0721 137.093 144.254
60.3406 138.816 141.511
60.3798 139.099 140.323
61.3826 138.901 140.982
60.3334 126.783 147.412
61.0657 125.396 148.039
60.4717 125.628 147.109
62.0084 124.317 148.387
61.8412 125.593 148.823
60.5172 127.921 147.408
60.0215 128.247 146.696
59.8648 126.149 146.166
60.8802 124.899 146.663
61.8834 126.819 148.681
61.3971 127.872 147.785
61.9499 127.868 148.516
59.659 128.844 145.936
59.3744 127.667 145.771
59.1387 129.216 145.2
61.7623 124.267 146.596
62.4078 123.854 147.634
62.7384 123.856 146.696
58.6948 132.743 139.938
57.8198 132.457 140.102
58.7656 131.772 140.672
57.0534 132.544 140.581
56.6376 133.212 139.507
58.6871 133.51 138.88
59.539 133.013 139.713
59.6017 130.997 141.089
58.8287 130.839 141.335
56.6264 134.016 138.699
57.6824 133.878 138.027
56.8375 134.674 137.865
60.1587 132.295 140.196
60.2687 131.122 140.835
60.8177 131.286 140.713
58.1409 130.908 141.688
57.556 132.053 141.556
57.8249 131.177 142.231
POLYGONS 1280  5120
3 164 162 163
3 163 44 164
3 162 43 163
3 164 42 162
3 166 165 163
3 163 43 166
3 165 44 163
3 166 14 165
3 168 167 162
3 162 42 168
3 167 43 162
3 168 13 167
3 170 169 164
3 164 44 170
3 169 42 164
3 170 12 169
3 173 171 172
3 172 46 173
3 171 43 172
3 173 45 171
3 167 174 172
3 172 43 167
3 174 46 172
3 167 13 174
3 175 166 171
3 171 45 175
3 166 43 171
3 175 14 166
3 177 176 173
3 173 46 177
3 176 45 173
3 177 4 176
3 180 178 179
3 179 48 180
3 178 42 179
3 180 47 178
3 169 181 179
3 179 42 169
3 181 48 179
3 169 12 181
3 182 168 178
3 178 47 182
3 168 42 178
3 182 13 168
3 184 183 180
3 180 48 184
3 183 47 180
3 184 8 183
3 187 185 186
3 186 50 187
3 185 44 186
3 187 49 185
3 165 188 186
3 186 44 165
3 188 50 186
3 165 14 188
3 189 170 185
3 185 49 189
3 170 44 185
3 189 12 170
3 191 190 187
3 187 50 191
3 190 49 187
3 191 7 190
3 194 192 193
3 193 53 194
3 192 52 193
3 194 51 192
3 196 195 193
3 193 52 196
3 195 53 193
3 196 16 195
3 198 197 192
3 192 51 198
3 197 52 192
3 198 14 197
3 200 199 194
3 194 53 200
3 199 51 194
3 200 15 199
3 203 201 202
3 202 45 203
3 201 52 202
3 203 54 201
3 197 175 202
3 202 52 197
3 175 45 202
3 197 14 175
3 204 196 201
3 201 54 204
3 196 52 201
3 204 16 196
3 176 205 203
3 203 45 176
3 205 54 203
3 176 4 205
3 208 206 207
3 207 55 208
3 206 51 207
3 208 50 206
3 199 209 207
3 207 51 199
3 209 55 207
3 199 15 209
3 188 198 206
3 206 50 188
3 198 51 206
3 188 14 198
3 210 191 208
3 208 55 210
3 191 50 208
3 210 7 191
3 213 211 212
3 212 57 213
3 211 53 212
3 213 56 211
3 195 214 212
3 212 53 195
3 214 57 212
3 195 16 214
3 215 200 211
3 211 56 215
3 200 53 211
3 215 15 200
3 217 216 213
3 213 57 217
3 216 56 213
3 217 9 216
3 220 218 219
3 219 60 220
3 218 59 219
3 220 58 218
3 222 221 219
3 219 59 222
3 221 60 219
3 222 19 221
3 224 223 218
3 218 58 224
3 223 59 218
3 224 18 223
3 226 225 220
3 220 60 226
3 225 58 220
3 226 17 225
3 229 227 228
3 228 62 229
3 227 59 228
3 229 61 227
3 223 230 228
3 228 59 223
3 230 62 228
3 223 18 230
3 231 222 227
3 227 61 231
3 222 59 227
3 231 19 222
3 233 232 229
3 229 62 233
3 232 61 229
3 233 5 232
3 236 234 235
3 235 64 236
3 234 58 235
3 236 63 234
3 225 237 235
3 235 58 225
3 237 64 235
3 225 17 237
3 238 224 234
3 234 63 238
3 224 58 234
3 238 18 224
3 240 239 236
3 236 64 240
3 239 63 236
3 240 6 239
3 243 241 242
3 242 66 243
3 241 60 242
3 243 65 241
3 221 244 242
3 242 60 221
3 244 66 242
3 221 19 244
3 245 226 241
3 241 65 245
3 226 60 241
3 245 17 226
3 247 246 243
3 243 66 247
3 246 65 243
3 247 11 246
3 250 248 249
3 249 69 250
3 248 68 249
3 250 67 248
3 252 251 249
3 249 68 252
3 251 69 249
3 252 18 251
3 254 253 248
3 248 67 254
3 253 68 248
3 254 21 253
3 256 255 250
3 250 69 256
3 255 67 250
3 256 20 255
3 259 257 258
3 258 70 259
3 257 68 258
3 259 62 257
3 253 260 258
3 258 68 253
3 260 70 258
3 253 21 260
3 230 252 257
3 257 62 230
3 252 68 257
3 230 18 252
3 261 233 259
3 259 70 261
3 233 62 259
3 261 5 233
3 264 262 263
3 263 72 264
3 262 67 263
3 264 71 262
3 255 265 263
3 263 67 255
3 265 72 263
3 255 20 265
3 266 254 262
3 262 71 266
3 254 67 262
3 266 21 254
3 268 267 264
3 264 72 268
3 267 71 264
3 268 10 267
3 271 269 270
3 270 63 271
3 269 69 270
3 271 73 269
3 251 238 270
3 270 69 251
3 238 63 270
3 251 18 238
3 272 256 269
3 269 73 272
3 256 69 269
3 272 20 256
3 239 273 271
3 271 63 239
3 273 73 271
3 239 6 273
3 276 274 275
3 275 76 276
3 274 75 275
3 276 74 274
3 278 277 275
3 275 75 278
3 277 76 275
3 278 24 277
3 280 279 274
3 274 74 280
3 279 75 274
3 280 23 279
3 282 281 276
3 276 76 282
3 281 74 276
3 282 22 281
3 285 283 284
3 284 78 285
3 283 75 284
3 285 77 283
3 279 286 284
3 284 75 279
3 286 78 284
3 279 23 286
3 287 278 283
3 283 77 287
3 278 75 283
3 287 24 278
3 289 288 285
3 285 78 289
3 288 77 285
3 289 0 288
3 292 290 291
3 291 80 292
3 290 74 291
3 292 79 290
3 281 293 291
3 291 74 281
3 293 80 291
3 281 22 293
3 294 280 290
3 290 79 294
3 280 74 290
3 294 23 280
3 296 295 292
3 292 80 296
3 295 79 292
3 296 4 295
3 299 297 298
3 298 82 299
3 297 76 298
3 299 81 297
3 277 300 298
3 298 76 277
3 300 82 298
3 277 24 300
3 301 282 297
3 297 81 301
3 282 76 297
3 301 22 282
3 303 302 299
3 299 82 303
3 302 81 299
3 303 3 302
3 306 304 305
3 305 85 306
3 304 84 305
3 306 83 304
3 308 307 305
3 305 84 308
3 307 85 305
3 308 26 307
3 310 309 304
3 304 83 310
3 309 84 304
3 310 24 309
3 312 311 306
3 306 85 312
3 311 83 306
3 312 25 311
3 315 313 314
3 314 77 315
3 313 84 314
3 315 86 313
3 309 287 314
3 314 84 309
3 287 77 314
3 309 24 287
3 316 308 313
3 313 86 316
3 308 84 313
3 316 26 308
3 288 317 315
3 315 77 288
3 317 86 315
3 288 0 317
3 320 318 319
3 319 87 320
3 318 83 319
3 320 82 318
3 311 321 319
3 319 83 311
3 321 87 319
3 311 25 321
3 300 310 318
3 318 82 300
3 310 83 318
3 300 24 310
3 322 303 320
3 320 87 322
3 303 82 320
3 322 3 303
3 325 323 324
3 324 89 325
3 323 85 324
3 325 88 323
3 307 326 324
3 324 85 307
3 326 89 324
3 307 26 326
3 327 312 323
3 323 88 327
3 312 85 323
3 327 25 312
3 329 328 325
3 325 89 329
3 328 88 325
3 329 5 328
3 332 330 331
3 331 92 332
3 330 91 331
3 332 90 330
3 334 333 331
3 331 91 334
3 333 92 331
3 334 29 333
3 336 335 330
3 330 90 336
3 335 91 330
3 336 28 335
3 338 337 332
3 332 92 338
3 337 90 332
3 338 27 337
3 341 339 340
3 340 94 341
3 339 91 340
3 341 93 339
3 335 342 340
3 340 91 335
3 342 94 340
3 335 28 342
3 343 334 339
3 339 93 343
3 334 91 339
3 343 29 334
3 345 344 341
3 341 94 345
3 344 93 341
3 345 2 344
3 348 346 347
3 347 96 348
3 346 90 347
3 348 95 346
3 337 349 347
3 347 90 337
3 349 96 347
3 337 27 349
3 350 336 346
3 346 95 350
3 336 90 346
3 350 28 336
3 352 351 348
3 348 96 352
3 351 95 348
3 352 7 351
3 355 353 354
3 354 98 355
3 353 92 354
3 355 97 353
3 333 356 354
3 354 92 333
3 356 98 354
3 333 29 356
3 357 338 353
3 353 97 357
3 338 92 353
3 357 27 338
3 359 358 355
3 355 98 359
3 358 97 355
3 359 1 358
3 362 360 361
3 361 101 362
3 360 100 361
3 362 99 360
3 364 363 361
3 361 100 364
3 363 101 361
3 364 31 363
3 366 365 360
3 360 99 366
3 365 100 360
3 366 29 365
3 368 367 362
3 362 101 368
3 367 99 362
3 368 30 367
3 371 369 370
3 370 93 371
3 369 100 370
3 371 102 369
3 365 343 370
3 370 100 365
3 343 93 370
3 365 29 343
3 372 364 369
3 369 102 372
3 364 100 369
3 372 31 364
3 344 373 371
3 371 93 344
3 373 102 371
3 344 2 373
3 376 374 375
3 375 103 376
3 374 99 375
3 376 98 374
3 367 377 375
3 375 99 367
3 377 103 375
3 367 30 377
3 356 366 374
3 374 98 356
3 366 99 374
3 356 29 366
3 378 359 376
3 376 103 378
3 359 98 376
3 378 1 359
3 381 379 380
3 380 105 381
3 379 101 380
3 381 104 379
3 363 382 380
3 380 101 363
3 382 105 380
3 363 31 382
3 383 368 379
3 379 104 383
3 368 101 379
3 383 30 368
3 385 384 381
3 381 105 385
3 384 104 381
3 385 6 384
3 388 386 387
3 387 108 388
3 386 107 387
3 388 106 386
3 390 389 387
3 387 107 390
3 389 108 387
3 390 34 389
3 392 391 386
3 386 106 392
3 391 107 386
3 392 33 391
3 394 393 388
3 388 108 394
3 393 106 388
3 394 32 393
3 397 395 396
3 396 110 397
3 395 107 396
3 397 109 395
3 391 398 396
3 396 107 391
3 398 110 396
3 391 33 398
3 399 390 395
3 395 109 399
3 390 107 395
3 399 34 390
3 401 400 397
3 397 110 401
3 400 109 397
3 401 8 400
3 404 402 403
3 403 112 404
3 402 106 403
3 404 111 402
3 393 405 403
3 403 106 393
3 405 112 403
3 393 32 405
3 406 392 402
3 402 111 406
3 392 106 402
3 406 33 392
3 408 407 404
3 404 112 408
3 407 111 404
3 408 0 407
3 411 409 410
3 410 114 411
3 409 108 410
3 411 113 409
3 389 412 410
3 410 108 389
3 412 114 410
3 389 34 412
3 413 394 409
3 409 113 413
3 394 108 409
3 413 32 394
3 415 414 411
3 411 114 415
3 414 113 411
3 415 11 414
3 418 416 417
3 417 117 418
3 416 116 417
3 418 115 416
3 420 419 417
3 417 116 420
3 419 117 417
3 420 36 419
3 422 421 416
3 416 115 422
3 421 116 416
3 422 34 421
3 424 423 418
3 418 117 424
3 423 115 418
3 424 35 423
3 427 425 426
3 426 109 427
3 425 116 426
3 427 118 425
3 421 399 426
3 426 116 421
3 399 109 426
3 421 34 399
3 428 420 425
3 425 118 428
3 420 116 425
3 428 36 420
3 400 429 427
3 427 109 400
3 429 118 427
3 400 8 429
3 432 430 431
3 431 119 432
3 430 115 431
3 432 114 430
3 423 433 431
3 431 115 423
3 433 119 431
3 423 35 433
3 412 422 430
3 430 114 412
3 422 115 430
3 412 34 422
3 434 415 432
3 432 119 434
3 415 114 432
3 434 11 415
3 437 435 436
3 436 121 437
3 435 117 436
3 437 120 435
3 419 438 436
3 436 117 419
3 438 121 436
3 419 36 438
3 439 424 435
3 435 120 439
3 424 117 435
3 439 35 424
3 441 440 437
3 437 121 441
3 440 120 437
3 441 1 440
3 444 442 443
3 443 124 444
3 442 123 443
3 444 122 442
3 446 445 443
3 443 123 446
3 445 124 443
3 446 39 445
3 448 447 442
3 442 122 448
3 447 123 442
3 448 38 447
3 450 449 444
3 444 124 450
3 449 122 444
3 450 37 449
3 453 451 452
3 452 126 453
3 451 123 452
3 453 125 451
3 447 454 452
3 452 123 447
3 454 126 452
3 447 38 454
3 455 446 451
3 451 125 455
3 446 123 451
3 455 39 446
3 457 456 453
3 453 126 457
3 456 125 453
3 457 9 456
3 460 458 459
3 459 128 460
3 458 122 459
3 460 127 458
3 449 461 459
3 459 122 449
3 461 128 459
3 449 37 461
3 462 448 458
3 458 127 462
3 448 122 458
3 462 38 448
3 464 463 460
3 460 128 464
3 463 127 460
3 464 10 463
3 467 465 466
3 466 130 467
3 465 124 466
3 467 129 465
3 445 468 466
3 466 124 445
3 468 130 466
3 445 39 468
3 469 450 465
3 465 129 469
3 450 124 465
3 469 37 450
3 471 470 467
3 467 130 471
3 470 129 467
3 471 3 470
3 474 472 473
3 473 133 474
3 472 132 473
3 474 131 472
3 476 475 473
3 473 132 476
3 475 133 473
3 476 38 475
3 478 477 472
3 472 131 478
3 477 132 472
3 478 41 477
3 480 479 474
3 474 133 480
3 479 131 474
3 480 40 479
3 483 481 482
3 482 134 483
3 481 132 482
3 483 126 481
3 477 484 482
3 482 132 477
3 484 134 482
3 477 41 484
3 454 476 481
3 481 126 454
3 476 132 481
3 454 38 476
3 485 457 483
3 483 134 485
3 457 126 483
3 485 9 457
3 488 486 487
3 487 136 488
3 486 131 487
3 488 135 486
3 479 489 487
3 487 131 479
3 489 136 487
3 479 40 489
3 490 478 486
3 486 135 490
3 478 131 486
3 490 41 478
3 492 491 488
3 488 136 492
3 491 135 488
3 492 2 491
3 495 493 494
3 494 127 495
3 493 133 494
3 495 137 493
3 475 462 494
3 494 133 475
3 462 127 494
3 475 38 462
3 496 480 493
3 493 137 496
3 480 133 493
3 496 40 480
3 463 497 495
3 495 127 463
3 497 137 495
3 463 10 497
3 500 498 499
3 499 140 500
3 498 139 499
3 500 138 498
3 502 501 499
3 499 139 502
3 501 140 499
3 502 33 501
3 504 503 498
3 498 138 504
3 503 139 498
3 504 13 503
3 506 505 500
3 500 140 506
3 505 138 500
3 506 23 505
3 509 507 508
3 508 47 509
3 507 139 508
3 509 110 507
3 503 182 508
3 508 139 503
3 182 47 508
3 503 13 182
3 398 502 507
3 507 110 398
3 502 139 507
3 398 33 502
3 183 401 509
3 509 47 183
3 401 110 509
3 183 8 401
3 512 510 511
3 511 79 512
3 510 138 511
3 512 46 510
3 505 294 511
3 511 138 505
3 294 79 511
3 505 23 294
3 174 504 510
3 510 46 174
3 504 138 510
3 174 13 504
3 295 177 512
3 512 79 295
3 177 46 512
3 295 4 177
3 515 513 514
3 514 111 515
3 513 140 514
3 515 78 513
3 501 406 514
3 514 140 501
3 406 111 514
3 501 33 406
3 286 506 513
3 513 78 286
3 506 140 513
3 286 23 506
3 407 289 515
3 515 111 407
3 289 78 515
3 407 0 289
3 518 516 517
3 517 143 518
3 516 142 517
3 518 141 516
3 520 519 517
3 517 142 520
3 519 143 517
3 520 19 519
3 522 521 516
3 516 141 522
3 521 142 516
3 522 32 521
3 524 523 518
3 518 143 524
3 523 141 518
3 524 26 523
3 527 525 526
3 526 113 527
3 525 142 526
3 527 66 525
3 521 413 526
3 526 142 521
3 413 113 526
3 521 32 413
3 244 520 525
3 525 66 244
3 520 142 525
3 244 19 520
3 414 247 527
3 527 113 414
3 247 66 527
3 414 11 247
3 530 528 529
3 529 86 530
3 528 141 529
3 530 112 528
3 523 316 529
3 529 141 523
3 316 86 529
3 523 26 316
3 405 522 528
3 528 112 405
3 522 141 528
3 405 32 522
3 317 408 530
3 530 86 317
3 408 112 530
3 317 0 408
3 533 531 532
3 532 61 533
3 531 143 532
3 533 89 531
3 519 231 532
3 532 143 519
3 231 61 532
3 519 19 231
3 326 524 531
3 531 89 326
3 524 143 531
3 326 26 524
3 232 329 533
3 533 61 232
3 329 89 533
3 232 5 329
3 536 534 535
3 535 146 536
3 534 145 535
3 536 144 534
3 538 537 535
3 535 145 538
3 537 146 535
3 538 22 537
3 540 539 534
3 534 144 540
3 539 145 534
3 540 16 539
3 542 541 536
3 536 146 542
3 541 144 536
3 542 39 541
3 545 543 544
3 544 54 545
3 543 145 544
3 545 80 543
3 539 204 544
3 544 145 539
3 204 54 544
3 539 16 204
3 293 538 543
3 543 80 293
3 538 145 543
3 293 22 538
3 205 296 545
3 545 54 205
3 296 80 545
3 205 4 296
3 548 546 547
3 547 125 548
3 546 144 547
3 548 57 546
3 541 455 547
3 547 144 541
3 455 125 547
3 541 39 455
3 214 540 546
3 546 57 214
3 540 144 546
3 214 16 540
3 456 217 548
3 548 125 456
3 217 57 548
3 456 9 217
3 551 549 550
3 550 81 551
3 549 146 550
3 551 130 549
3 537 301 550
3 550 146 537
3 301 81 550
3 537 22 301
3 468 542 549
3 549 130 468
3 542 146 549
3 468 39 542
3 302 471 551
3 551 81 302
3 471 130 551
3 302 3 471
3 554 552 553
3 553 149 554
3 552 148 553
3 554 147 552
3 556 555 553
3 553 148 556
3 555 149 553
3 556 21 555
3 558 557 552
3 552 147 558
3 557 148 552
3 558 25 557
3 560 559 554
3 554 149 560
3 559 147 554
3 560 37 559
3 563 561 562
3 562 88 563
3 561 148 562
3 563 70 561
3 557 327 562
3 562 148 557
3 327 88 562
3 557 25 327
3 260 556 561
3 561 70 260
3 556 148 561
3 260 21 556
3 328 261 563
3 563 88 328
3 261 70 563
3 328 5 261
3 566 564 565
3 565 129 566
3 564 147 565
3 566 87 564
3 559 469 565
3 565 147 559
3 469 129 565
3 559 37 469
3 321 558 564
3 564 87 321
3 558 147 564
3 321 25 558
3 470 322 566
3 566 129 470
3 322 87 566
3 470 3 322
3 569 567 568
3 568 71 569
3 567 149 568
3 569 128 567
3 555 266 568
3 568 149 555
3 266 71 568
3 555 21 266
3 461 560 567
3 567 128 461
3 560 149 567
3 461 37 560
3 267 464 569
3 569 71 267
3 464 128 569
3 267 10 464
3 572 570 571
3 571 152 572
3 570 151 571
3 572 150 570
3 574 573 571
3 571 151 574
3 573 152 571
3 574 27 573
3 576 575 570
3 570 150 576
3 575 151 570
3 576 12 575
3 578 577 572
3 572 152 578
3 577 150 572
3 578 36 577
3 581 579 580
3 580 49 581
3 579 151 580
3 581 96 579
3 575 189 580
3 580 151 575
3 189 49 580
3 575 12 189
3 349 574 579
3 579 96 349
3 574 151 579
3 349 27 574
3 190 352 581
3 581 49 190
3 352 96 581
3 190 7 352
3 584 582 583
3 583 118 584
3 582 150 583
3 584 48 582
3 577 428 583
3 583 150 577
3 428 118 583
3 577 36 428
3 181 576 582
3 582 48 181
3 576 150 582
3 181 12 576
3 429 184 584
3 584 118 429
3 184 48 584
3 429 8 184
3 587 585 586
3 586 97 587
3 585 152 586
3 587 121 585
3 573 357 586
3 586 152 573
3 357 97 586
3 573 27 357
3 438 578 585
3 585 121 438
3 578 152 585
3 438 36 578
3 358 441 587
3 587 97 358
3 441 121 587
3 358 1 441
3 590 588 589
3 589 155 590
3 588 154 589
3 590 153 588
3 592 591 589
3 589 154 592
3 591 155 589
3 592 17 591
3 594 593 588
3 588 153 594
3 593 154 588
3 594 30 593
3 596 595 590
3 590 155 596
3 595 153 590
3 596 35 595
3 599 597 598
3 598 104 599
3 597 154 598
3 599 64 597
3 593 383 598
3 598 154 593
3 383 104 598
3 593 30 383
3 237 592 597
3 597 64 237
3 592 154 597
3 237 17 592
3 384 240 599
3 599 104 384
3 240 64 599
3 384 6 240
3 602 600 601
3 601 120 602
3 600 153 601
3 602 103 600
3 595 439 601
3 601 153 595
3 439 120 601
3 595 35 439
3 377 594 600
3 600 103 377
3 594 153 600
3 377 30 594
3 440 378 602
3 602 120 440
3 378 103 602
3 440 1 378
3 605 603 604
3 604 65 605
3 603 155 604
3 605 119 603
3 591 245 604
3 604 155 591
3 245 65 604
3 591 17 245
3 433 596 603
3 603 119 433
3 596 155 603
3 433 35 596
3 246 434 605
3 605 65 246
3 434 119 605
3 246 11 434
3 608 606 607
3 607 158 608
3 606 157 607
3 608 156 606
3 610 609 607
3 607 157 610
3 609 158 607
3 610 15 609
3 612 611 606
3 606 156 612
3 611 157 606
3 612 28 611
3 614 613 608
3 608 158 614
3 613 156 608
3 614 41 613
3 617 615 616
3 616 95 617
3 615 157 616
3 617 55 615
3 611 350 616
3 616 157 611
3 350 95 616
3 611 28 350
3 209 610 615
3 615 55 209
3 610 157 615
3 209 15 610
3 351 210 617
3 617 95 351
3 210 55 617
3 351 7 210
3 620 618 619
3 619 135 620
3 618 156 619
3 620 94 618
3 613 490 619
3 619 156 613
3 490 135 619
3 613 41 490
3 342 612 618
3 618 94 342
3 612 156 618
3 342 28 612
3 491 345 620
3 620 135 491
3 345 94 620
3 491 2 345
3 623 621 622
3 622 56 623
3 621 158 622
3 623 134 621
3 609 215 622
3 622 158 609
3 215 56 622
3 609 15 215
3 484 614 621
3 621 134 484
3 614 158 621
3 484 41 614
3 216 485 623
3 623 56 216
3 485 134 623
3 216 9 485
3 626 624 625
3 625 161 626
3 624 160 625
3 626 159 624
3 628 627 625
3 625 160 628
3 627 161 625
3 628 31 627
3 630 629 624
3 624 159 630
3 629 160 624
3 630 20 629
3 632 631 626
3 626 161 632
3 631 159 626
3 632 40 631
3 635 633 634
3 634 73 635
3 633 160 634
3 635 105 633
3 629 272 634
3 634 160 629
3 272 73 634
3 629 20 272
3 382 628 633
3 633 105 382
3 628 160 633
3 382 31 628
3 273 385 635
3 635 73 273
3 385 105 635
3 273 6 385
3 638 636 637
3 637 137 638
3 636 159 637
3 638 72 636
3 631 496 637
3 637 159 631
3 496 137 637
3 631 40 496
3 265 630 636
3 636 72 265
3 630 159 636
3 265 20 630
3 497 268 638
3 638 137 497
3 268 72 638
3 497 10 268
3 641 639 640
3 640 102 641
3 639 161 640
3 641 136 639
3 627 372 640
3 640 161 627
3 372 102 640
3 627 31 372
3 489 632 639
3 639 136 489
3 632 161 639
3 489 40 632
3 373 492 641
3 641 102 373
3 492 136 641
3 373 2 492
