# vtk DataFile Version 3.0
this file was written using fslvtkio
ASCII
DATASET POLYDATA
POINTS 642 float
126.954 116.914 111.748
111.868 116.488 109.517
117.258 102.755 106.026
133.417 104.011 106.931
127.829 108.437 118.356
127.247 111.266 102.183
117.264 111.172 100.453
116.786 107.359 116.894
118.896 121.085 118.047
125.613 98.553 110.418
127.479 98.5822 98.2402
118.793 124.73 105.297
117.088 114.52 119.501
123.916 115.673 120.426
122.699 107.411 119.797
121.109 101.58 114.54
128.105 101.45 116.426
116.5 119.49 101.463
122.802 110.523 100.237
122.349 117.78 104.202
122.845 103.537 99.5925
129.142 104.409 99.2924
131.725 104.856 113.33
127.99 113.852 116
130.755 109.883 109.41
131.422 106.542 103.331
127.228 114.64 106.646
113.532 112.693 114.395
116.109 104.453 111.602
112.727 109.229 107.617
113.029 115.293 103.443
115.964 105.785 101.88
123.198 121.631 109.273
123.998 121.737 116.117
117.366 125.01 111.924
113.075 123.243 105.97
113.823 120.064 114.34
134.777 100.481 99.9475
127.333 95.6336 103.456
131.482 99.4136 108.827
121.146 98.1653 101.323
120.374 97.6868 108.019
120.55 114.96 120.481
123.123 111.565 120.892
119.812 110.871 120.021
125.6 107.65 120.053
125.931 112.245 119.737
121.588 118.756 119.941
117.903 117.969 119.071
116.609 110.843 118.694
119.504 107.171 118.765
121.659 104.169 117.831
125.282 104.13 118.535
124.406 101.246 116.191
128.494 104.759 117.682
118.899 104.386 115.813
123.211 99.542 112.848
126.769 99.6786 113.826
119.587 115.525 101.345
122.164 114.339 102.232
119.894 118.963 102.363
124.625 114.352 103.55
124.995 111.141 101.03
120.061 111.302 100.504
116.823 115.461 100.792
117.948 122.43 102.79
120.696 121.351 104.676
125.911 103.887 98.504
126.047 107.223 99.7215
122.668 107.247 99.7618
128.144 108.089 100.566
128.567 101.883 97.4069
124.502 100.89 97.9866
119.944 107.273 100.302
130.029 109.23 114.504
129.168 111.349 112.731
131.254 107.818 111.642
128.594 113.207 110.759
127.733 115.506 113.913
128.111 111.157 117.272
129.875 106.901 115.952
132.872 104.383 110.39
132.428 107.063 108.098
131.72 108.804 106.141
129.024 112.066 108.058
129.878 110.63 105.073
127.284 115.939 109.092
132.869 104.977 104.38
129.697 109.556 102.633
127.009 112.911 104.663
114.173 108.352 113.099
113.821 106.615 109.844
112.409 110.445 111.253
114.453 105.613 106.809
116.508 103.46 108.748
116.339 105.704 114.283
114.917 110.01 115.87
112.065 114.222 112.186
112.088 112.712 108.652
112.803 112.064 105.323
114.147 107.566 104.566
114.257 110.264 102.722
116.373 104.122 103.905
112.288 115.788 106.364
114.489 113.203 101.079
116.508 108.184 100.683
123.499 122.575 112.682
121.046 124.641 114.922
120.753 125.03 110.635
117.787 123.645 115.41
121.819 122.009 117.91
125.776 119.592 113.841
125.281 119.385 110.606
121.224 123.03 107.41
117.67 125.621 108.153
114.723 124.961 108.451
115.014 123.116 112.828
112.594 122.009 110.215
115.886 120.829 116.629
115.47 124.859 104.101
112.094 119.856 108.106
112.307 118.312 112.15
131.921 96.9282 101.241
129.58 97.3127 105.639
133.115 99.1462 104.11
128.5 98.7205 109.692
126.256 96.8446 107.12
127.398 96.4949 100.402
131.657 99.4308 98.1476
134.465 102.03 103.96
133.468 101.46 108.235
120.348 96.8862 104.44
123.601 95.8615 105.727
123.837 95.7433 102.12
122.889 97.8919 109.216
118.354 99.6059 106.985
118.871 100.137 103.788
123.9 97.9939 99.2005
126.356 115.167 118.485
124.268 119.139 118.673
126.226 118.037 116.209
125.462 118.407 107.941
123.073 120.006 106.475
125.028 116.588 105.454
129.87 100.023 112.85
130.662 103.038 115.38
132.602 101.569 111.672
134.015 103.765 101.012
130.07 106.044 101.638
132.19 102.749 97.4743
114.944 117.656 117.813
114.723 113.719 117.518
113.289 116.525 114.66
112.417 119.346 105.002
114.062 117.318 101.544
114.334 122.179 102.784
118.31 100.94 109.842
118.447 102.54 113.102
120.476 99.5238 111.374
121.416 101.062 99.8653
119.468 104.989 101.212
118.881 102.29 102.174
121.758 113.23 120.939
121.383 111.253 120.532
120.121 112.948 120.297
121.342 109.242 120.034
122.758 109.622 120.554
123.435 113.596 120.92
122.286 115.159 120.787
118.895 114.568 119.964
118.539 112.786 119.872
124.287 109.695 120.691
124.611 111.903 120.64
125.541 110.086 120.292
124.937 113.977 120.33
124.083 107.635 120.195
126.707 108.167 119.47
126.668 110.205 119.319
121.083 116.767 120.445
119.257 116.411 119.877
119.82 118.044 119.851
117.52 116.224 119.402
122.747 117.167 120.325
120.123 119.831 119.339
118.512 119.431 118.804
118.16 110.969 119.518
119.697 109.006 119.596
118.133 109.065 118.922
121.087 107.354 119.434
116.912 112.656 119.268
116.843 108.967 118.036
118.122 107.352 118.018
123.425 104.123 118.246
124.734 102.676 117.396
122.964 102.677 116.988
126.189 101.363 116.58
126.567 102.734 117.598
123.936 105.656 119.241
122.207 105.706 118.965
121.531 102.795 116.265
122.638 101.534 115.651
126.946 104.327 118.441
125.432 105.825 119.49
127.107 106.147 119.087
128.311 102.966 117.355
128.09 106.673 118.072
120.562 105.648 118.398
120.21 104.138 116.868
119.03 105.614 117.438
120.211 102.983 115.421
117.808 105.915 116.547
123.673 100.301 114.729
125.588 100.263 115.191
124.901 99.6237 113.548
127.467 100.382 115.332
122.135 100.404 113.98
124.482 98.8507 111.864
126.153 99.0068 112.309
121.043 115.049 101.811
121.125 116.76 102.617
119.764 117.225 101.804
121.172 118.237 103.214
122.143 116.325 103.157
122.179 112.474 101.386
120.99 113.282 101.207
118.173 117.56 101.379
118.28 119.184 101.844
123.237 114.388 103.013
123.335 112.473 101.947
124.392 112.642 102.653
123.864 110.854 100.551
123.398 116.054 103.863
125.608 112.389 103.171
126.013 111.292 101.681
119.75 113.49 100.906
118.175 115.687 101.085
118.402 113.567 100.776
116.663 117.579 101.118
121.387 111.205 100.485
118.713 111.343 100.503
117.159 113.261 100.564
119.125 120.613 102.403
120.589 120.124 103.508
119.61 122.159 103.472
121.505 119.5 104.455
117.453 120.861 102.04
118.541 123.86 103.815
119.955 123.143 104.876
125.847 105.348 99.4599
124.43 107.155 99.6657
124.446 105.305 99.79
122.839 108.931 99.7576
124.531 108.884 99.8552
127.39 105.401 99.6292
127.372 104.35 98.6474
124.488 103.749 99.0047
123.065 105.121 99.9861
125.366 109.64 100.087
126.954 107.7 100.109
126.681 109.868 100.53
128.374 105.96 100.235
127.761 109.911 101.082
127.06 103.173 97.3499
125.075 102.613 97.5964
126.566 101.486 97.5164
123.536 102.372 98.2565
128.678 103.557 97.8535
127.805 100.249 97.6378
125.944 99.8335 97.8808
121.393 107.12 100.003
121.369 109.366 100.046
119.991 109.193 100.195
121.551 105.412 100.437
118.6 109.405 100.365
129.531 110.392 113.67
130.407 109.647 112.162
130.666 108.501 113.111
131.118 108.981 110.686
130.004 110.459 111.124
128.664 112.495 114.385
128.811 111.319 115.013
130.896 107.107 113.871
131.544 106.531 112.549
128.957 112.335 111.768
128.428 113.422 113.408
128.157 114.239 112.35
127.909 114.646 114.984
129.465 111.319 110.211
127.808 114.985 111.203
127.384 116.096 112.749
128.889 110.248 115.82
129.956 108.063 115.262
128.97 109.08 116.638
130.911 105.938 114.627
128.113 112.394 116.454
127.884 109.989 118.026
128.799 107.778 117.142
132.06 106.104 111.05
131.858 107.529 110.004
132.52 105.969 109.434
131.808 108.622 108.778
132.269 104.6 111.908
133.157 104.392 108.777
132.811 105.509 107.624
130.225 110.467 107.31
129.205 111.374 106.638
130.748 109.854 105.723
128.385 112.292 105.995
128.176 113.205 107.184
129.96 110.679 108.692
131.304 109.449 107.648
131.758 107.84 104.68
131.067 108.907 104.136
128.131 113.948 108.481
128.888 112.491 109.372
127.948 114.409 109.83
127.314 115.24 107.83
127.203 116.422 110.39
132.216 107.898 106.961
132.272 106.724 105.263
132.623 106.068 106.243
132.145 105.676 103.724
133.229 104.651 105.747
129.973 110.154 103.789
128.416 111.726 104.867
128.63 111.311 103.505
127.213 113.682 105.688
130.869 108.232 102.912
128.491 110.804 102.329
126.884 112.028 103.687
113.934 107.377 111.488
112.924 108.413 110.558
113.186 109.258 112.201
112.435 109.627 109.537
112.912 107.923 108.93
114.89 105.689 110.939
114.902 106.396 112.378
113.619 110.443 113.676
112.743 111.244 112.911
114.002 106.103 108.34
115.141 105.032 109.394
115.499 104.59 107.846
116.153 103.953 110.219
113.282 107.354 107.338
115.874 104.236 106.386
116.886 103.07 107.369
115.234 106.977 113.78
114.566 109.18 114.428
115.485 107.851 115.194
114.225 111.408 115.042
116.074 105.056 112.934
116.52 106.523 115.616
115.764 108.8 116.664
112.117 112.271 111.866
112.1 111.473 109.967
111.941 113.413 110.454
112.318 110.875 108.199
112.665 113.279 113.394
111.896 115.26 110.796
112.017 114.547 109.088
113.345 109.714 105.226
114.168 108.906 103.754
113.49 111.098 104.151
114.883 108.09 102.305
114.972 106.676 103.045
113.348 108.494 106.119
112.691 110.531 106.416
112.971 113.529 104.263
113.647 112.507 103.159
114.889 105.681 104.146
113.999 106.594 105.759
115.219 104.852 105.246
115.889 104.82 102.853
116.802 103.588 105.016
112.316 112.243 106.937
112.483 113.892 105.704
112.23 114.123 107.386
112.498 115.617 104.781
112.057 116.054 107.958
114.307 111.698 101.873
114.999 109.224 101.386
115.332 110.603 100.671
115.961 106.977 101.19
113.77 114.164 102.376
115.844 112.226 100.471
116.901 109.667 100.439
122.514 124.079 113.716
121.12 124.959 112.83
122.319 124.175 111.944
119.34 125.276 111.622
119.402 124.974 113.487
122.646 123.671 115.589
123.642 122.684 114.494
123.01 122.789 110.852
121.952 123.859 109.956
119.411 124.29 115.344
121.381 123.671 116.669
119.826 123.191 116.919
122.914 122.278 116.997
117.6 124.528 113.755
118.1 122.44 116.703
120.199 121.713 117.979
124.603 121.172 113.391
124.213 121.186 111.522
125.412 119.674 112.168
124.117 120.828 110.14
124.826 120.869 114.982
126.357 118.279 112.799
126.236 118.181 111.158
120.907 124.414 108.642
119.279 125.326 109.401
119.564 125.021 107.531
117.728 125.41 110.168
122.191 122.466 108.549
120.203 123.741 106.382
118.202 125.46 106.398
114.628 124.175 110.629
113.729 122.919 111.198
113.55 123.71 109.265
113.088 121.352 112.149
114.044 121.868 113.281
115.882 124.327 112.3
115.894 124.997 110.314
113.544 124.326 107.211
112.747 122.722 108.206
115.28 122.075 114.626
116.391 123.53 114.052
116.607 122.341 115.816
114.677 120.654 115.473
117.363 120.879 117.491
116.286 125.401 108.66
114.836 125.267 106.484
116.472 125.65 106.207
113.959 124.702 104.987
117.104 125.099 104.569
112.165 120.915 109.314
112.442 120.122 111.421
112.124 118.931 110.177
113.063 119.514 113.137
112.515 121.604 107.151
112.026 118.138 108.866
111.981 117.245 110.95
130.727 96.6445 103.914
131.286 98.1938 105.134
132.505 97.8388 102.847
132.191 99.0156 106.271
130.698 98.4653 107.043
128.873 95.9455 104.21
130.03 96.2835 102.122
133.65 98.3619 100.469
134.128 99.3516 101.976
129.039 98.0365 107.643
128.022 96.7838 106.137
127.355 97.7955 108.095
126.813 95.9519 105.308
130.014 98.9263 109.181
127.058 98.5999 110.075
125.772 97.7932 108.768
130.016 96.673 100.327
132.157 97.8609 99.3411
129.894 97.6465 98.98
133.526 99.7806 98.7914
127.645 95.9852 101.892
127.152 97.3065 99.2431
129.311 98.8619 98.0912
134.094 100.265 104.262
133.325 99.9428 106.605
134.16 101.787 106.16
132.697 99.9786 108.25
134.91 100.889 102.248
134.027 103.217 105.546
133.628 102.939 107.795
121.881 95.9799 104.897
123.655 95.5183 103.908
121.969 95.8397 103.306
125.556 95.5662 102.834
125.384 95.5889 104.59
121.895 96.4953 106.626
120.512 96.9299 106.13
120.801 96.9998 102.732
122.232 96.4318 101.671
125.039 96.1901 106.404
123.194 96.738 107.422
124.528 97.263 108.069
121.66 97.5721 108.418
124.2 98.1578 109.849
119.227 97.9828 105.728
119.471 98.1922 103.887
118.482 99.5792 105.278
119.981 98.8066 102.534
119.318 98.2772 107.352
117.876 101.108 106.53
118.03 101.41 105.035
123.8 96.5301 100.631
125.688 96.0162 101.278
125.398 96.9169 99.7525
122.437 97.7641 100.22
125.617 98.3836 98.5097
125.395 117.166 118.683
125.518 118.716 117.581
126.418 116.685 117.389
125.316 119.992 116.318
124.317 120.49 117.472
124.12 117.486 119.626
125.211 115.53 119.578
127.166 114.753 117.24
127.107 116.04 116.212
123.203 120.755 118.25
122.976 119.038 119.502
121.429 120.483 118.888
126.266 113.78 119.144
127.435 113.157 117.756
127.136 111.649 118.566
127.071 116.766 115.05
126.032 119.004 115.088
126.726 117.51 113.851
124.252 119.335 107.268
124.087 118.356 105.947
125.315 117.624 106.653
123.685 117.193 104.864
122.838 118.887 105.241
123.147 120.836 107.921
124.327 119.995 108.654
126.464 116.634 107.258
126.279 115.841 105.992
121.951 120.471 105.6
122.128 121.494 107.118
120.956 122.114 105.999
125.27 119.063 109.313
126.493 117.212 108.46
126.367 117.759 109.834
126.165 114.853 105.041
124.791 115.616 104.46
125.866 113.704 104.03
130.606 101.14 114.371
131.741 101.994 113.655
131.427 100.588 112.448
132.409 103.058 112.757
131.378 103.849 114.401
129.542 102.121 115.962
129.131 100.539 114.887
130.76 99.6092 110.993
132.129 100.27 110.469
130.51 105.09 115.636
129.578 103.871 116.588
129.265 106.033 116.919
128.327 99.8033 113.5
129.217 99.3103 111.332
127.628 99.0623 111.851
133.039 101.251 109.898
133.05 103.038 111.259
133.326 102.908 109.451
132.059 104.362 100.755
131.884 104.094 99.2266
134.04 103.218 98.9815
130.428 103.966 98.7291
129.587 105.449 100.749
130.723 106.137 102.413
132.129 104.784 102.353
134.997 102.046 100.557
133.79 101.43 98.2216
129.003 107.18 101.136
130.055 107.921 101.973
128.791 109.202 101.642
133.31 104.324 102.801
134.704 102.689 102.272
133.902 103.71 104.289
131.792 100.947 97.7201
130.012 102.869 97.5243
129.35 100.444 97.6072
114.675 115.733 117.827
114.011 115.305 116.267
113.985 117.045 116.388
113.487 114.647 114.8
114.17 113.451 115.918
115.647 114.111 118.811
115.846 116.111 118.933
114.292 118.807 116.14
113.51 118.249 114.711
114.667 111.836 116.521
115.494 112.364 118.201
115.555 110.409 117.44
116.245 117.79 118.607
115.196 119.403 117.24
116.76 119.488 118.079
112.762 117.508 113.48
112.706 115.199 113.507
112.117 116.207 112.288
113.203 118.827 103.182
113.963 119.836 102.241
113.293 120.806 103.782
115.314 120.68 101.755
115.208 118.314 101.303
113.356 116.539 102.581
112.557 117.405 104.153
112.665 121.23 105.564
113.488 122.818 104.346
115.419 116.273 100.752
114.212 115.185 101.382
115.728 114.122 100.602
112.205 117.46 105.731
112.277 119.556 106.604
112.058 117.681 107.378
114.602 123.564 103.496
116.289 121.967 102.355
116.973 123.727 103.453
118.189 101.863 111.492
119.361 101.05 112.316
119.203 100.035 110.647
120.666 100.517 112.973
119.752 102.004 113.911
117.271 103.301 112.269
117.277 102.772 110.813
119.18 99.0612 109.055
120.382 98.5869 109.757
118.731 103.357 114.477
117.326 104.084 113.613
117.501 104.904 115.148
117.429 102.312 109.356
118.336 100.049 108.43
117.603 101.666 107.952
121.653 98.5207 110.321
121.776 99.5533 112.163
123.107 98.7425 111.079
120.607 103.041 100.977
118.915 103.739 101.69
120.022 101.611 101.071
117.432 104.176 102.241
117.622 105.441 101.387
121.231 104.188 100.611
122.005 102.42 99.7666
121.195 99.6469 100.6
120.035 100.181 101.815
117.818 106.659 100.865
119.712 106.133 100.753
118.245 108.107 100.568
122.654 101.176 98.7825
122.361 99.3883 99.5857
123.982 99.5238 98.5326
118.933 101.182 102.966
117.608 103.305 103.215
117.841 102.398 104.246
POLYGONS 1280  5120
3 164 162 163
3 163 44 164
3 162 43 163
3 164 42 162
3 166 165 163
3 163 43 166
3 165 44 163
3 166 14 165
3 168 167 162
3 162 42 168
3 167 43 162
3 168 13 167
3 170 169 164
3 164 44 170
3 169 42 164
3 170 12 169
3 173 171 172
3 172 46 173
3 171 43 172
3 173 45 171
3 167 174 172
3 172 43 167
3 174 46 172
3 167 13 174
3 175 166 171
3 171 45 175
3 166 43 171
3 175 14 166
3 177 176 173
3 173 46 177
3 176 45 173
3 177 4 176
3 180 178 179
3 179 48 180
3 178 42 179
3 180 47 178
3 169 181 179
3 179 42 169
3 181 48 179
3 169 12 181
3 182 168 178
3 178 47 182
3 168 42 178
3 182 13 168
3 184 183 180
3 180 48 184
3 183 47 180
3 184 8 183
3 187 185 186
3 186 50 187
3 185 44 186
3 187 49 185
3 165 188 186
3 186 44 165
3 188 50 186
3 165 14 188
3 189 170 185
3 185 49 189
3 170 44 185
3 189 12 170
3 191 190 187
3 187 50 191
3 190 49 187
3 191 7 190
3 194 192 193
3 193 53 194
3 192 52 193
3 194 51 192
3 196 195 193
3 193 52 196
3 195 53 193
3 196 16 195
3 198 197 192
3 192 51 198
3 197 52 192
3 198 14 197
3 200 199 194
3 194 53 200
3 199 51 194
3 200 15 199
3 203 201 202
3 202 45 203
3 201 52 202
3 203 54 201
3 197 175 202
3 202 52 197
3 175 45 202
3 197 14 175
3 204 196 201
3 201 54 204
3 196 52 201
3 204 16 196
3 176 205 203
3 203 45 176
3 205 54 203
3 176 4 205
3 208 206 207
3 207 55 208
3 206 51 207
3 208 50 206
3 199 209 207
3 207 51 199
3 209 55 207
3 199 15 209
3 188 198 206
3 206 50 188
3 198 51 206
3 188 14 198
3 210 191 208
3 208 55 210
3 191 50 208
3 210 7 191
3 213 211 212
3 212 57 213
3 211 53 212
3 213 56 211
3 195 214 212
3 212 53 195
3 214 57 212
3 195 16 214
3 215 200 211
3 211 56 215
3 200 53 211
3 215 15 200
3 217 216 213
3 213 57 217
3 216 56 213
3 217 9 216
3 220 218 219
3 219 60 220
3 218 59 219
3 220 58 218
3 222 221 219
3 219 59 222
3 221 60 219
3 222 19 221
3 224 223 218
3 218 58 224
3 223 59 218
3 224 18 223
3 226 225 220
3 220 60 226
3 225 58 220
3 226 17 225
3 229 227 228
3 228 62 229
3 227 59 228
3 229 61 227
3 223 230 228
3 228 59 223
3 230 62 228
3 223 18 230
3 231 222 227
3 227 61 231
3 222 59 227
3 231 19 222
3 233 232 229
3 229 62 233
3 232 61 229
3 233 5 232
3 236 234 235
3 235 64 236
3 234 58 235
3 236 63 234
3 225 237 235
3 235 58 225
3 237 64 235
3 225 17 237
3 238 224 234
3 234 63 238
3 224 58 234
3 238 18 224
3 240 239 236
3 236 64 240
3 239 63 236
3 240 6 239
3 243 241 242
3 242 66 243
3 241 60 242
3 243 65 241
3 221 244 242
3 242 60 221
3 244 66 242
3 221 19 244
3 245 226 241
3 241 65 245
3 226 60 241
3 245 17 226
3 247 246 243
3 243 66 247
3 246 65 243
3 247 11 246
3 250 248 249
3 249 69 250
3 248 68 249
3 250 67 248
3 252 251 249
3 249 68 252
3 251 69 249
3 252 18 251
3 254 253 248
3 248 67 254
3 253 68 248
3 254 21 253
3 256 255 250
3 250 69 256
3 255 67 250
3 256 20 255
3 259 257 258
3 258 70 259
3 257 68 258
3 259 62 257
3 253 260 258
3 258 68 253
3 260 70 258
3 253 21 260
3 230 252 257
3 257 62 230
3 252 68 257
3 230 18 252
3 261 233 259
3 259 70 261
3 233 62 259
3 261 5 233
3 264 262 263
3 263 72 264
3 262 67 263
3 264 71 262
3 255 265 263
3 263 67 255
3 265 72 263
3 255 20 265
3 266 254 262
3 262 71 266
3 254 67 262
3 266 21 254
3 268 267 264
3 264 72 268
3 267 71 264
3 268 10 267
3 271 269 270
3 270 63 271
3 269 69 270
3 271 73 269
3 251 238 270
3 270 69 251
3 238 63 270
3 251 18 238
3 272 256 269
3 269 73 272
3 256 69 269
3 272 20 256
3 239 273 271
3 271 63 239
3 273 73 271
3 239 6 273
3 276 274 275
3 275 76 276
3 274 75 275
3 276 74 274
3 278 277 275
3 275 75 278
3 277 76 275
3 278 24 277
3 280 279 274
3 274 74 280
3 279 75 274
3 280 23 279
3 282 281 276
3 276 76 282
3 281 74 276
3 282 22 281
3 285 283 284
3 284 78 285
3 283 75 284
3 285 77 283
3 279 286 284
3 284 75 279
3 286 78 284
3 279 23 286
3 287 278 283
3 283 77 287
3 278 75 283
3 287 24 278
3 289 288 285
3 285 78 289
3 288 77 285
3 289 0 288
3 292 290 291
3 291 80 292
3 290 74 291
3 292 79 290
3 281 293 291
3 291 74 281
3 293 80 291
3 281 22 293
3 294 280 290
3 290 79 294
3 280 74 290
3 294 23 280
3 296 295 292
3 292 80 296
3 295 79 292
3 296 4 295
3 299 297 298
3 298 82 299
3 297 76 298
3 299 81 297
3 277 300 298
3 298 76 277
3 300 82 298
3 277 24 300
3 301 282 297
3 297 81 301
3 282 76 297
3 301 22 282
3 303 302 299
3 299 82 303
3 302 81 299
3 303 3 302
3 306 304 305
3 305 85 306
3 304 84 305
3 306 83 304
3 308 307 305
3 305 84 308
3 307 85 305
3 308 26 307
3 310 309 304
3 304 83 310
3 309 84 304
3 310 24 309
3 312 311 306
3 306 85 312
3 311 83 306
3 312 25 311
3 315 313 314
3 314 77 315
3 313 84 314
3 315 86 313
3 309 287 314
3 314 84 309
3 287 77 314
3 309 24 287
3 316 308 313
3 313 86 316
3 308 84 313
3 316 26 308
3 288 317 315
3 315 77 288
3 317 86 315
3 288 0 317
3 320 318 319
3 319 87 320
3 318 83 319
3 320 82 318
3 311 321 319
3 319 83 311
3 321 87 319
3 311 25 321
3 300 310 318
3 318 82 300
3 310 83 318
3 300 24 310
3 322 303 320
3 320 87 322
3 303 82 320
3 322 3 303
3 325 323 324
3 324 89 325
3 323 85 324
3 325 88 323
3 307 326 324
3 324 85 307
3 326 89 324
3 307 26 326
3 327 312 323
3 323 88 327
3 312 85 323
3 327 25 312
3 329 328 325
3 325 89 329
3 328 88 325
3 329 5 328
3 332 330 331
3 331 92 332
3 330 91 331
3 332 90 330
3 334 333 331
3 331 91 334
3 333 92 331
3 334 29 333
3 336 335 330
3 330 90 336
3 335 91 330
3 336 28 335
3 338 337 332
3 332 92 338
3 337 90 332
3 338 27 337
3 341 339 340
3 340 94 341
3 339 91 340
3 341 93 339
3 335 342 340
3 340 91 335
3 342 94 340
3 335 28 342
3 343 334 339
3 339 93 343
3 334 91 339
3 343 29 334
3 345 344 341
3 341 94 345
3 344 93 341
3 345 2 344
3 348 346 347
3 347 96 348
3 346 90 347
3 348 95 346
3 337 349 347
3 347 90 337
3 349 96 347
3 337 27 349
3 350 336 346
3 346 95 350
3 336 90 346
3 350 28 336
3 352 351 348
3 348 96 352
3 351 95 348
3 352 7 351
3 355 353 354
3 354 98 355
3 353 92 354
3 355 97 353
3 333 356 354
3 354 92 333
3 356 98 354
3 333 29 356
3 357 338 353
3 353 97 357
3 338 92 353
3 357 27 338
3 359 358 355
3 355 98 359
3 358 97 355
3 359 1 358
3 362 360 361
3 361 101 362
3 360 100 361
3 362 99 360
3 364 363 361
3 361 100 364
3 363 101 361
3 364 31 363
3 366 365 360
3 360 99 366
3 365 100 360
3 366 29 365
3 368 367 362
3 362 101 368
3 367 99 362
3 368 30 367
3 371 369 370
3 370 93 371
3 369 100 370
3 371 102 369
3 365 343 370
3 370 100 365
3 343 93 370
3 365 29 343
3 372 364 369
3 369 102 372
3 364 100 369
3 372 31 364
3 344 373 371
3 371 93 344
3 373 102 371
3 344 2 373
3 376 374 375
3 375 103 376
3 374 99 375
3 376 98 374
3 367 377 375
3 375 99 367
3 377 103 375
3 367 30 377
3 356 366 374
3 374 98 356
3 366 99 374
3 356 29 366
3 378 359 376
3 376 103 378
3 359 98 376
3 378 1 359
3 381 379 380
3 380 105 381
3 379 101 380
3 381 104 379
3 363 382 380
3 380 101 363
3 382 105 380
3 363 31 382
3 383 368 379
3 379 104 383
3 368 101 379
3 383 30 368
3 385 384 381
3 381 105 385
3 384 104 381
3 385 6 384
3 388 386 387
3 387 108 388
3 386 107 387
3 388 106 386
3 390 389 387
3 387 107 390
3 389 108 387
3 390 34 389
3 392 391 386
3 386 106 392
3 391 107 386
3 392 33 391
3 394 393 388
3 388 108 394
3 393 106 388
3 394 32 393
3 397 395 396
3 396 110 397
3 395 107 396
3 397 109 395
3 391 398 396
3 396 107 391
3 398 110 396
3 391 33 398
3 399 390 395
3 395 109 399
3 390 107 395
3 399 34 390
3 401 400 397
3 397 110 401
3 400 109 397
3 401 8 400
3 404 402 403
3 403 112 404
3 402 106 403
3 404 111 402
3 393 405 403
3 403 106 393
3 405 112 403
3 393 32 405
3 406 392 402
3 402 111 406
3 392 106 402
3 406 33 392
3 408 407 404
3 404 112 408
3 407 111 404
3 408 0 407
3 411 409 410
3 410 114 411
3 409 108 410
3 411 113 409
3 389 412 410
3 410 108 389
3 412 114 410
3 389 34 412
3 413 394 409
3 409 113 413
3 394 108 409
3 413 32 394
3 415 414 411
3 411 114 415
3 414 113 411
3 415 11 414
3 418 416 417
3 417 117 418
3 416 116 417
3 418 115 416
3 420 419 417
3 417 116 420
3 419 117 417
3 420 36 419
3 422 421 416
3 416 115 422
3 421 116 416
3 422 34 421
3 424 423 418
3 418 117 424
3 423 115 418
3 424 35 423
3 427 425 426
3 426 109 427
3 425 116 426
3 427 118 425
3 421 399 426
3 426 116 421
3 399 109 426
3 421 34 399
3 428 420 425
3 425 118 428
3 420 116 425
3 428 36 420
3 400 429 427
3 427 109 400
3 429 118 427
3 400 8 429
3 432 430 431
3 431 119 432
3 430 115 431
3 432 114 430
3 423 433 431
3 431 115 423
3 433 119 431
3 423 35 433
3 412 422 430
3 430 114 412
3 422 115 430
3 412 34 422
3 434 415 432
3 432 119 434
3 415 114 432
3 434 11 415
3 437 435 436
3 436 121 437
3 435 117 436
3 437 120 435
3 419 438 436
3 436 117 419
3 438 121 436
3 419 36 438
3 439 424 435
3 435 120 439
3 424 117 435
3 439 35 424
3 441 440 437
3 437 121 441
3 440 120 437
3 441 1 440
3 444 442 443
3 443 124 444
3 442 123 443
3 444 122 442
3 446 445 443
3 443 123 446
3 445 124 443
3 446 39 445
3 448 447 442
3 442 122 448
3 447 123 442
3 448 38 447
3 450 449 444
3 444 124 450
3 449 122 444
3 450 37 449
3 453 451 452
3 452 126 453
3 451 123 452
3 453 125 451
3 447 454 452
3 452 123 447
3 454 126 452
3 447 38 454
3 455 446 451
3 451 125 455
3 446 123 451
3 455 39 446
3 457 456 453
3 453 126 457
3 456 125 453
3 457 9 456
3 460 458 459
3 459 128 460
3 458 122 459
3 460 127 458
3 449 461 459
3 459 122 449
3 461 128 459
3 449 37 461
3 462 448 458
3 458 127 462
3 448 122 458
3 462 38 448
3 464 463 460
3 460 128 464
3 463 127 460
3 464 10 463
3 467 465 466
3 466 130 467
3 465 124 466
3 467 129 465
3 445 468 466
3 466 124 445
3 468 130 466
3 445 39 468
3 469 450 465
3 465 129 469
3 450 124 465
3 469 37 450
3 471 470 467
3 467 130 471
3 470 129 467
3 471 3 470
3 474 472 473
3 473 133 474
3 472 132 473
3 474 131 472
3 476 475 473
3 473 132 476
3 475 133 473
3 476 38 475
3 478 477 472
3 472 131 478
3 477 132 472
3 478 41 477
3 480 479 474
3 474 133 480
3 479 131 474
3 480 40 479
3 483 481 482
3 482 134 483
3 481 132 482
3 483 126 481
3 477 484 482
3 482 132 477
3 484 134 482
3 477 41 484
3 454 476 481
3 481 126 454
3 476 132 481
3 454 38 476
3 485 457 483
3 483 134 485
3 457 126 483
3 485 9 457
3 488 486 487
3 487 136 488
3 486 131 487
3 488 135 486
3 479 489 487
3 487 131 479
3 489 136 487
3 479 40 489
3 490 478 486
3 486 135 490
3 478 131 486
3 490 41 478
3 492 491 488
3 488 136 492
3 491 135 488
3 492 2 491
3 495 493 494
3 494 127 495
3 493 133 494
3 495 137 493
3 475 462 494
3 494 133 475
3 462 127 494
3 475 38 462
3 496 480 493
3 493 137 496
3 480 133 493
3 496 40 480
3 463 497 495
3 495 127 463
3 497 137 495
3 463 10 497
3 500 498 499
3 499 140 500
3 498 139 499
3 500 138 498
3 502 501 499
3 499 139 502
3 501 140 499
3 502 33 501
3 504 503 498
3 498 138 504
3 503 139 498
3 504 13 503
3 506 505 500
3 500 140 506
3 505 138 500
3 506 23 505
3 509 507 508
3 508 47 509
3 507 139 508
3 509 110 507
3 503 182 508
3 508 139 503
3 182 47 508
3 503 13 182
3 398 502 507
3 507 110 398
3 502 139 507
3 398 33 502
3 183 401 509
3 509 47 183
3 401 110 509
3 183 8 401
3 512 510 511
3 511 79 512
3 510 138 511
3 512 46 510
3 505 294 511
3 511 138 505
3 294 79 511
3 505 23 294
3 174 504 510
3 510 46 174
3 504 138 510
3 174 13 504
3 295 177 512
3 512 79 295
3 177 46 512
3 295 4 177
3 515 513 514
3 514 111 515
3 513 140 514
3 515 78 513
3 501 406 514
3 514 140 501
3 406 111 514
3 501 33 406
3 286 506 513
3 513 78 286
3 506 140 513
3 286 23 506
3 407 289 515
3 515 111 407
3 289 78 515
3 407 0 289
3 518 516 517
3 517 143 518
3 516 142 517
3 518 141 516
3 520 519 517
3 517 142 520
3 519 143 517
3 520 19 519
3 522 521 516
3 516 141 522
3 521 142 516
3 522 32 521
3 524 523 518
3 518 143 524
3 523 141 518
3 524 26 523
3 527 525 526
3 526 113 527
3 525 142 526
3 527 66 525
3 521 413 526
3 526 142 521
3 413 113 526
3 521 32 413
3 244 520 525
3 525 66 244
3 520 142 525
3 244 19 520
3 414 247 527
3 527 113 414
3 247 66 527
3 414 11 247
3 530 528 529
3 529 86 530
3 528 141 529
3 530 112 528
3 523 316 529
3 529 141 523
3 316 86 529
3 523 26 316
3 405 522 528
3 528 112 405
3 522 141 528
3 405 32 522
3 317 408 530
3 530 86 317
3 408 112 530
3 317 0 408
3 533 531 532
3 532 61 533
3 531 143 532
3 533 89 531
3 519 231 532
3 532 143 519
3 231 61 532
3 519 19 231
3 326 524 531
3 531 89 326
3 524 143 531
3 326 26 524
3 232 329 533
3 533 61 232
3 329 89 533
3 232 5 329
3 536 534 535
3 535 146 536
3 534 145 535
3 536 144 534
3 538 537 535
3 535 145 538
3 537 146 535
3 538 22 537
3 540 539 534
3 534 144 540
3 539 145 534
3 540 16 539
3 542 541 536
3 536 146 542
3 541 144 536
3 542 39 541
3 545 543 544
3 544 54 545
3 543 145 544
3 545 80 543
3 539 204 544
3 544 145 539
3 204 54 544
3 539 16 204
3 293 538 543
3 543 80 293
3 538 145 543
3 293 22 538
3 205 296 545
3 545 54 205
3 296 80 545
3 205 4 296
3 548 546 547
3 547 125 548
3 546 144 547
3 548 57 546
3 541 455 547
3 547 144 541
3 455 125 547
3 541 39 455
3 214 540 546
3 546 57 214
3 540 144 546
3 214 16 540
3 456 217 548
3 548 125 456
3 217 57 548
3 456 9 217
3 551 549 550
3 550 81 551
3 549 146 550
3 551 130 549
3 537 301 550
3 550 146 537
3 301 81 550
3 537 22 301
3 468 542 549
3 549 130 468
3 542 146 549
3 468 39 542
3 302 471 551
3 551 81 302
3 471 130 551
3 302 3 471
3 554 552 553
3 553 149 554
3 552 148 553
3 554 147 552
3 556 555 553
3 553 148 556
3 555 149 553
3 556 21 555
3 558 557 552
3 552 147 558
3 557 148 552
3 558 25 557
3 560 559 554
3 554 149 560
3 559 147 554
3 560 37 559
3 563 561 562
3 562 88 563
3 561 148 562
3 563 70 561
3 557 327 562
3 562 148 557
3 327 88 562
3 557 25 327
3 260 556 561
3 561 70 260
3 556 148 561
3 260 21 556
3 328 261 563
3 563 88 328
3 261 70 563
3 328 5 261
3 566 564 565
3 565 129 566
3 564 147 565
3 566 87 564
3 559 469 565
3 565 147 559
3 469 129 565
3 559 37 469
3 321 558 564
3 564 87 321
3 558 147 564
3 321 25 558
3 470 322 566
3 566 129 470
3 322 87 566
3 470 3 322
3 569 567 568
3 568 71 569
3 567 149 568
3 569 128 567
3 555 266 568
3 568 149 555
3 266 71 568
3 555 21 266
3 461 560 567
3 567 128 461
3 560 149 567
3 461 37 560
3 267 464 569
3 569 71 267
3 464 128 569
3 267 10 464
3 572 570 571
3 571 152 572
3 570 151 571
3 572 150 570
3 574 573 571
3 571 151 574
3 573 152 571
3 574 27 573
3 576 575 570
3 570 150 576
3 575 151 570
3 576 12 575
3 578 577 572
3 572 152 578
3 577 150 572
3 578 36 577
3 581 579 580
3 580 49 581
3 579 151 580
3 581 96 579
3 575 189 580
3 580 151 575
3 189 49 580
3 575 12 189
3 349 574 579
3 579 96 349
3 574 151 579
3 349 27 574
3 190 352 581
3 581 49 190
3 352 96 581
3 190 7 352
3 584 582 583
3 583 118 584
3 582 150 583
3 584 48 582
3 577 428 583
3 583 150 577
3 428 118 583
3 577 36 428
3 181 576 582
3 582 48 181
3 576 150 582
3 181 12 576
3 429 184 584
3 584 118 429
3 184 48 584
3 429 8 184
3 587 585 586
3 586 97 587
3 585 152 586
3 587 121 585
3 573 357 586
3 586 152 573
3 357 97 586
3 573 27 357
3 438 578 585
3 585 121 438
3 578 152 585
3 438 36 578
3 358 441 587
3 587 97 358
3 441 121 587
3 358 1 441
3 590 588 589
3 589 155 590
3 588 154 589
3 590 153 588
3 592 591 589
3 589 154 592
3 591 155 589
3 592 17 591
3 594 593 588
3 588 153 594
3 593 154 588
3 594 30 593
3 596 595 590
3 590 155 596
3 595 153 590
3 596 35 595
3 599 597 598
3 598 104 599
3 597 154 598
3 599 64 597
3 593 383 598
3 598 154 593
3 383 104 598
3 593 30 383
3 237 592 597
3 597 64 237
3 592 154 597
3 237 17 592
3 384 240 599
3 599 104 384
3 240 64 599
3 384 6 240
3 602 600 601
3 601 120 602
3 600 153 601
3 602 103 600
3 595 439 601
3 601 153 595
3 439 120 601
3 595 35 439
3 377 594 600
3 600 103 377
3 594 153 600
3 377 30 594
3 440 378 602
3 602 120 440
3 378 103 602
3 440 1 378
3 605 603 604
3 604 65 605
3 603 155 604
3 605 119 603
3 591 245 604
3 604 155 591
3 245 65 604
3 591 17 245
3 433 596 603
3 603 119 433
3 596 155 603
3 433 35 596
3 246 434 605
3 605 65 246
3 434 119 605
3 246 11 434
3 608 606 607
3 607 158 608
3 606 157 607
3 608 156 606
3 610 609 607
3 607 157 610
3 609 158 607
3 610 15 609
3 612 611 606
3 606 156 612
3 611 157 606
3 612 28 611
3 614 613 608
3 608 158 614
3 613 156 608
3 614 41 613
3 617 615 616
3 616 95 617
3 615 157 616
3 617 55 615
3 611 350 616
3 616 157 611
3 350 95 616
3 611 28 350
3 209 610 615
3 615 55 209
3 610 157 615
3 209 15 610
3 351 210 617
3 617 95 351
3 210 55 617
3 351 7 210
3 620 618 619
3 619 135 620
3 618 156 619
3 620 94 618
3 613 490 619
3 619 156 613
3 490 135 619
3 613 41 490
3 342 612 618
3 618 94 342
3 612 156 618
3 342 28 612
3 491 345 620
3 620 135 491
3 345 94 620
3 491 2 345
3 623 621 622
3 622 56 623
3 621 158 622
3 623 134 621
3 609 215 622
3 622 158 609
3 215 56 622
3 609 15 215
3 484 614 621
3 621 134 484
3 614 158 621
3 484 41 614
3 216 485 623
3 623 56 216
3 485 134 623
3 216 9 485
3 626 624 625
3 625 161 626
3 624 160 625
3 626 159 624
3 628 627 625
3 625 160 628
3 627 161 625
3 628 31 627
3 630 629 624
3 624 159 630
3 629 160 624
3 630 20 629
3 632 631 626
3 626 161 632
3 631 159 626
3 632 40 631
3 635 633 634
3 634 73 635
3 633 160 634
3 635 105 633
3 629 272 634
3 634 160 629
3 272 73 634
3 629 20 272
3 382 628 633
3 633 105 382
3 628 160 633
3 382 31 628
3 273 385 635
3 635 73 273
3 385 105 635
3 273 6 385
3 638 636 637
3 637 137 638
3 636 159 637
3 638 72 636
3 631 496 637
3 637 159 631
3 496 137 637
3 631 40 496
3 265 630 636
3 636 72 265
3 630 159 636
3 265 20 630
3 497 268 638
3 638 137 497
3 268 72 638
3 497 10 268
3 641 639 640
3 640 102 641
3 639 161 640
3 641 136 639
3 627 372 640
3 640 161 627
3 372 102 640
3 627 31 372
3 489 632 639
3 639 136 489
3 632 161 639
3 489 40 632
3 373 492 641
3 641 102 373
3 492 136 641
3 373 2 492
