# vtk DataFile Version 3.0
this file was written using fslvtkio
ASCII
DATASET POLYDATA
POINTS 642 float
128.447 113.132 77.8284
99.1302 109.148 74.9517
106.025 95.1572 67.9345
125.483 97.2137 70.8555
123.473 100.999 95.0907
123.839 102.942 55.3215
110.043 101.057 51.2848
104.691 99.0725 92.9222
113.274 112.229 86.2108
115.348 91.9671 77.3375
117.375 89.8572 57.032
114.149 115.879 69.2176
107.703 104.853 93.4927
118.663 106.191 94.249
113.178 99.0708 98.7383
110.147 94.0145 87.5599
119.168 94.3878 88.6956
112.192 108.172 60.542
118.3 101.503 45.5381
119.491 109.936 61.7859
113.462 94.3397 47.6868
123.544 94.624 49.8074
124.471 99.8599 83.3573
127.334 108.362 89.0437
125.886 106.284 75.0949
125.802 99.1274 61.5136
125.045 109.845 67.5749
100.139 105.169 86.3461
105.262 98.1086 81.1906
104.116 103.43 71.876
105.699 106.603 64.7197
107.268 96.4933 57.5633
122.345 118.041 73.7557
122.503 115.369 85.4436
112.549 118.118 79.9867
105.185 115.243 71.9241
103.625 113.308 84.4307
123.613 91.9884 62.8885
115.514 88.0954 68.6735
120.999 92.2867 73.9018
110.158 90.5187 59.6166
110.508 92.0534 72.9529
113.145 105.475 93.6687
116.559 103.906 99.9793
109.226 103.067 99.6427
119.905 99.0684 99.1725
122.964 105.154 98.0014
116.138 108.453 88.5112
110.834 107.716 88.1781
103.462 102.596 96.1808
107.47 97.6957 97.7266
111.157 95.0556 94.1533
116.858 95.7658 94.8083
114.452 94.123 88.8901
121.534 96.7501 92.5625
107.236 95.6176 90.9533
112.89 92.9937 82.715
117.163 93.5372 83.2998
115.284 104.08 52.4439
118.801 104.739 53.7441
116.052 107.741 60.4289
121.283 105.512 57.5115
121.607 102.326 49.7582
114.03 101.094 46.8197
111.8 104.289 54.6813
112.803 113.026 64.5946
117.225 114.002 65.2204
118.643 95.7172 48.0076
122.137 98.8829 45.2788
115.841 98.3322 43.123
124.179 98.8466 51.2872
120.655 90.9287 52.5539
115.592 90.49 51.481
111.176 97.1504 46.9662
125.772 104.589 86.3466
127.201 106.98 81.6165
125.129 102.759 79.2617
128.388 109.619 76.2427
127.9 110.586 82.7891
126.055 105.192 93.1573
123.827 100.82 89.3512
124.699 98.7675 76.7772
124.988 101.252 72.6915
125.267 102.427 68.3362
125.744 108.464 71.5377
123.727 104.239 65.1496
128.247 112.229 72.1314
125.732 98.4448 66.3331
124.918 100.818 58.2422
122.763 105.67 61.9973
102.776 101.893 84.2346
104.17 100.369 76.7304
101.686 103.938 78.961
105.85 99.119 70.1483
105.991 96.6273 74.4502
105.363 98.9744 87.2796
101.407 102.159 90.9142
99.6225 107.137 80.2165
100.497 106.072 73.571
104.725 105.114 68.5191
106.583 99.7496 64.7518
108.181 101.535 61.0218
105.875 95.8102 62.7609
100.927 108.378 69.3552
108.825 103.286 57.6147
108.41 98.2959 53.4296
123.17 119.081 80.6421
118.129 118.7 83.6156
118.001 119.57 77.4625
112.482 116.5 84.2125
117.801 114.245 86.6513
126.517 115.484 82.1958
126.124 116.393 75.9748
118.132 117.59 71.3447
113.168 117.309 74.6485
108.083 117.619 76.4938
106.933 117.456 82.8022
103.146 116.12 78.7823
108.325 113.248 86.1514
109.719 116.226 70.1575
101.553 112.757 73.3545
100.049 112.143 80.1712
120.497 89.3001 66.3429
120.551 86.3955 70.7957
124.052 89.612 68.6076
118.365 91.3238 75.8476
115.523 86.9643 72.6501
116.319 90.4542 63.6458
120.587 90.8309 59.6461
125.278 93.8662 66.4329
124.18 94.0055 72.9394
110.034 90.3976 67.0861
111.331 86.0595 69.8216
112.596 88.809 65.124
112.765 91.2179 75.4066
107.184 92.7924 70.7274
107.38 91.9537 63.556
113.683 90.4678 57.6743
123.627 107.769 92.5263
120.358 109.485 87.6938
125.207 111.577 86.5876
124.883 114.507 70.1714
121.038 115.068 67.551
122.663 110.548 64.2553
120.523 93.4878 81.3045
122.248 96.9465 86.2896
123.372 95.6451 79.0636
126.586 94.8842 61.5814
125.383 96.3448 55.3979
124.132 92.1235 56.0747
106.622 107.969 86.7164
103.03 105.291 91.0525
101.751 109.036 85.0177
104.342 111.315 67.3901
108.524 107.771 61.758
108.372 113.041 65.5053
107.441 94.4262 77.6047
107.327 95.7336 84.4825
109.837 92.8148 80.286
111.133 90.3326 52.5348
109.449 94.0968 51.2978
107.565 92.6233 57.8376
114.501 104.607 96.8229
112.884 103.598 99.0293
111.414 104.099 96.5904
111.194 101.274 100.02
114.818 101.546 99.7729
117.578 104.867 97.143
115.944 105.759 93.9637
110.327 105.16 93.5913
108.382 103.658 96.5946
118.412 101.816 100.611
119.877 104.404 99.4577
121.428 102.275 99.9391
120.509 105.352 96.4392
116.71 99.4593 99.4121
122.046 99.9917 97.5021
123.636 102.735 97.615
114.723 106.755 91.1096
111.965 106.341 90.9065
113.474 108.132 88.2489
109.41 106.121 90.6992
117.215 107.122 91.3723
114.775 110.356 87.0248
111.985 110.038 86.818
106.302 102.401 98.5276
107.977 100.244 99.9699
105.395 100.151 98.3229
110.141 98.2639 99.0543
105.65 103.54 95.3691
103.837 100.316 95.5408
105.698 98.4533 95.761
113.91 95.9318 94.6745
115.693 94.3706 91.9756
112.876 93.5631 91.8074
116.894 94.1759 89.0241
118.129 94.2065 91.9634
115.274 97.6621 97.2987
111.959 96.5739 97.3073
110.39 93.2978 90.9914
112.187 93.7818 88.4328
119.372 95.7622 93.8605
118.096 97.0994 97.4809
120.718 97.6619 96.1016
120.609 94.8746 90.7586
122.474 98.8394 94.0568
109.37 95.9677 96.5889
108.993 94.9013 92.878
107.249 96.5516 94.5299
108.525 94.208 89.4264
105.93 97.3911 92.1881
113.555 94.3119 85.9463
115.952 94.5704 86.3763
114.914 93.4524 83.3324
117.949 94.614 86.0244
111.765 93.9607 85.3372
114.32 92.6778 80.3214
116.083 92.9457 80.5719
117.072 104.145 52.8116
117.508 106.078 57.1729
115.48 105.744 56.715
117.652 108.667 60.6986
118.836 106.985 58.5496
118.49 103.314 49.5825
116.759 102.967 48.7191
113.945 106.006 57.1541
114.307 107.712 60.1396
120.098 105.488 55.6538
120.144 103.614 51.1057
121.679 104.224 53.4432
119.997 102.001 47.4042
120.165 107.229 59.7517
122.702 104.391 56.234
122.945 102.814 52.5397
114.858 102.733 48.9623
113.629 104.405 53.569
112.903 102.926 50.7055
112.224 105.906 57.6132
116.095 101.415 45.5013
112.048 101.305 49.0901
110.961 102.886 52.4072
114.477 110.525 62.1798
116.475 111.049 62.5151
115.106 112.76 64.5158
118.517 112.259 63.4097
112.259 110.997 62.2496
113.49 114.6 67.0302
115.702 115.041 67.2397
120.24 97.5206 46.1275
119.279 98.9241 43.4456
117.841 97.5639 45.4684
117.106 100.198 43.218
120.352 100.567 44.6786
122.582 96.7874 47.3948
120.983 95.4867 48.6592
116.249 95.6059 47.4317
115.126 96.8262 45.6364
121.889 100.535 47.2588
123.189 98.5998 48.2137
123.106 100.862 50.4877
124.283 96.8142 49.7163
124.189 101.048 53.2556
119.757 93.0589 49.9371
117.234 93.3368 49.5886
118.175 90.7167 51.3071
114.974 92.9416 49.116
122.031 92.9164 50.8594
118.962 89.9423 54.3832
116.743 89.8229 53.9383
113.036 97.5261 44.4024
114.503 99.7281 44.4471
112.248 99.4494 46.9081
112.119 95.3981 46.5674
110.495 99.2135 49.1307
126.716 105.577 83.8219
126.128 105.006 80.2252
125.454 103.78 82.5064
125.649 104.449 77.178
126.563 106.453 78.4023
127.377 107.621 85.2366
127.138 106.277 87.8978
124.921 102.58 84.7704
125.001 101.351 81.7055
127.511 108.373 78.6322
127.489 108.864 82.1982
128.601 109.948 79.2703
127.303 109.433 85.7809
126.759 108.046 76.0612
129.206 111.172 76.806
128.638 111.837 80.2307
125.795 104.989 89.7171
124.538 102.797 87.8009
124.536 103.197 91.3814
124.092 100.535 86.22
127.655 106.75 91.4441
124.602 103.268 94.6354
123.772 100.94 92.3642
124.942 100.656 78.3702
124.994 102.283 76.046
124.82 100.192 74.9621
125.322 103.617 73.978
124.683 99.2036 80.1269
124.932 98.0448 73.6069
124.999 99.3409 71.7437
124.994 105.92 70.2749
124.137 106.586 68.7726
124.983 103.402 66.4986
123.962 107.186 66.8243
125.725 109.123 69.335
125.658 107.596 73.2927
125.668 104.584 71.7387
125.475 100.84 64.9973
124.586 101.525 63.3486
127.961 110.162 71.307
127.167 109.18 73.794
129.145 110.783 73.9505
127.108 111.137 69.5697
128.626 112.741 74.9094
125.132 101.97 70.5713
125.346 100.18 67.0035
125.109 99.7809 69.3846
125.806 98.8886 63.9704
125.632 97.9154 68.7349
123.708 102.155 61.9604
123.217 105.168 63.701
124.096 103.374 60.1413
123.887 107.854 64.9127
125.142 100.014 60.0393
124.549 102.017 56.756
123.463 104.275 58.706
103.439 101.058 80.2284
103.032 102.438 77.765
102.116 102.72 81.4393
102.898 103.849 75.3407
103.984 101.865 74.3509
104.552 99.1911 79.3737
104.153 100.28 82.8608
101.136 103.324 85.2918
100.826 104.346 82.629
104.954 99.8608 73.3874
105.46 98.7709 75.9425
105.939 97.9269 72.4576
105.658 97.4651 77.7403
105.055 101.151 71.1021
105.967 97.1543 69.0971
106.054 96.0352 71.0709
104.122 100.574 86.1125
102.257 102.185 87.5112
103.588 100.895 89.4246
100.12 103.455 88.8905
105.269 98.6764 84.19
104.85 99.1895 90.1768
103.143 100.779 92.4902
100.519 105.378 79.6968
101.339 104.943 76.1106
99.7208 106.34 76.7159
102.758 104.815 73.3867
100.265 106.107 83.0641
98.9835 107.977 77.4473
99.0026 107.202 73.9258
106.356 102.822 66.7219
107.479 100.886 63.0076
106.826 103.496 65.0307
107.646 98.884 59.3387
106.903 98.0777 61.2797
105.489 101.663 68.3237
104.773 104.403 70.0811
105.151 105.749 66.5442
107.186 104.167 63.239
106.204 97.6644 63.7193
106.102 99.4312 67.63
106.02 97.3032 66.4012
106.327 95.9791 60.0273
105.95 95.5168 65.5066
102.571 105.605 71.2089
102.413 106.455 68.9137
99.9224 106.762 71.0339
103.241 107.794 67.2623
99.5131 108.706 71.8563
108.232 102.478 59.3987
107.79 99.8474 57.2773
108.117 100.953 55.3654
108.001 97.5231 55.7256
108.028 104.711 61.4817
109.008 102.449 54.2707
108.861 99.7564 52.092
120.79 119.235 82.2558
118.176 119.299 80.6021
120.644 119.65 79.1091
115.519 118.912 79.0355
115.514 118.67 81.7377
120.543 117.618 84.7813
122.928 118.009 83.6979
122.557 118.739 77.3538
120.404 119.02 76.055
115.343 117.618 84.0015
117.88 116.857 85.5517
115.325 115.746 85.6895
120.168 114.986 86.0783
112.438 117.688 82.3363
112.724 114.6 85.4398
115.417 113.217 86.5654
125.094 117.636 81.6573
124.788 117.955 78.3996
126.568 116.386 79.2578
124.271 117.6 75.1659
124.766 116.063 84.2104
127.976 114.401 79.92
127.61 114.857 76.7182
118.089 118.669 74.465
115.591 118.499 76.1186
115.756 117.76 73.1643
112.944 118.034 77.3497
120.24 118.088 72.6551
116.062 116.8 70.0373
113.621 116.785 71.7517
107.588 117.913 79.6293
104.873 117.374 80.8757
105.471 117.387 77.5843
102.747 115.624 81.8427
104.679 115.91 83.7231
109.605 117.994 81.3123
110.153 118.038 78.4859
106.193 116.458 74.5321
103.908 115.778 75.7132
107.259 115.701 84.7685
109.718 117.189 83.7456
110.004 115.376 85.5994
105.811 113.497 85.3715
110.906 112.732 86.4524
110.682 117.639 75.6658
108.667 116.779 73.5503
111.125 116.783 72.7104
107.31 116.101 71.0325
111.98 116.029 69.6741
101.905 114.451 76.3009
101.25 114.284 79.4466
100.266 112.642 76.8039
101.568 113.299 82.5118
103.315 114.215 72.8938
100.149 110.931 73.8211
99.2779 110.565 77.4117
120.841 86.5442 68.1693
123.597 86.2983 69.2486
122.775 87.9199 67.2018
122.928 89.351 70.638
121.928 88.2897 71.4775
118.45 87.5673 69.8673
118.698 89.3286 67.9822
122.105 90.1595 64.7734
123.507 90.6403 66.2708
119.845 88.737 73.0682
118.062 86.8481 72.1286
117.575 89.1704 74.1712
115.62 86.4486 70.2739
120.009 91.2804 74.4895
116.696 91.6814 76.6614
115.47 89.3727 74.8385
118.511 90.5499 65.3046
120.392 90.4573 63.447
118.612 90.4937 61.8971
122.135 91.286 61.4004
116.122 89.7986 66.7648
116.749 90.2984 60.2627
119.11 90.0245 58.2733
123.828 92.2304 67.8654
122.966 91.98 70.3924
124.335 93.7227 69.7409
122.18 92.775 73.0542
124.748 92.4854 64.7773
125.663 95.3112 68.643
125.149 95.6219 71.9175
110.056 87.9641 68.5675
111.73 86.0256 67.2425
110.863 89.1782 65.7998
113.793 88.2478 67.1087
113.704 85.738 68.8099
110.725 88.992 70.7939
110.067 90.5256 69.78
109.911 90.3846 63.4965
111.363 90.0343 62.3494
113.438 86.3406 71.4033
112.132 88.7274 72.2547
113.787 88.9557 73.9176
111.646 91.3586 73.8232
114.05 91.5409 76.8254
109.347 92.0949 68.6817
109.063 91.5285 65.306
107.623 92.5626 67.2136
108.522 90.9921 61.3757
108.792 92.2528 71.9636
106.222 93.883 69.4601
106.171 93.2478 65.9228
113.137 90.3764 61.785
114.354 89.6486 64.6933
114.86 90.3361 60.794
111.885 90.4155 58.6455
115.494 90.0797 57.2306
121.709 108.363 90.1454
122.614 110.533 87.1254
124.045 109.267 89.0222
124.149 113.542 85.8949
121.513 112.538 86.5339
119.41 107.537 90.9188
121.108 106.809 93.451
126.028 108.573 90.9846
126.358 110.128 87.6001
119.408 112.101 86.7466
118.297 109.039 88.0048
116.997 111.248 86.9944
122.998 106.518 94.9994
126.32 107.455 93.6269
125.042 105.175 95.7366
127.055 111.599 85.0745
126.218 113.974 84.5622
127.578 113.121 82.337
123.017 115.03 68.6936
122.145 112.99 65.587
123.939 112.816 67.2113
121.044 110.18 62.6569
120.323 112.885 64.5259
121.692 116.642 70.6648
123.746 116.409 71.9181
125.602 112.27 68.5482
123.857 110.372 66.0411
119.204 114.67 66.2348
119.753 116.575 69.4903
117.707 115.826 68.2424
125.43 115.635 73.1121
126.597 113.472 71.1699
127.24 114.37 73.904
122.773 108.102 63.2477
121.349 107.67 61.3956
122.066 105.618 59.8544
121.172 95.3829 83.8301
122.793 96.2714 82.6243
122.067 94.4176 80.2624
123.805 97.753 81.3795
123.444 98.2468 84.7392
120.729 95.7456 87.4263
119.605 94.8792 85.1625
121.071 92.9661 77.473
122.801 93.5357 76.8365
123.072 98.7252 87.8257
121.972 96.7207 89.5908
123.001 98.7796 91.0569
118.878 93.3048 82.584
119.374 92.6594 78.207
117.646 92.9152 79.4905
123.886 94.5433 75.82
124.139 97.1985 77.996
124.783 96.4363 74.8305
125.972 95.493 58.3864
124.947 94.1646 55.2584
125.493 93.462 58.5754
123.959 93.0028 52.68
124.731 95.2868 52.2625
125.99 97.6189 58.4477
126.444 96.9505 61.2688
125.583 93.1111 61.7001
123.974 92.029 59.5148
124.896 97.3732 52.8977
125.386 98.5063 56.5511
124.936 99.7943 54.7423
126.812 96.7627 63.9335
126.384 93.9378 63.9465
126.403 96.033 66.5031
122.409 91.0819 57.6873
122.571 91.3438 53.7062
120.766 90.3342 56.026
105.074 106.389 88.7384
102.831 106.893 87.5066
104.286 108.603 86.0632
100.847 107.055 85.479
101.051 105.453 88.9566
105.366 104.967 92.23
107.216 106.1 90.0822
105.224 110.71 85.5745
102.478 111.24 84.7265
100.13 104.335 91.6121
103.278 104.209 93.525
101.763 102.146 93.6038
108.75 107.87 87.2902
107.423 110.734 86.0263
109.8 110.46 86.5973
100.818 110.837 82.5859
100.308 108.29 82.7912
99.4474 109.557 79.9545
106.109 109.865 64.3512
108.114 110.556 63.1709
106.322 112.357 66.2812
110.138 111.153 62.6714
110.471 107.935 61.0125
106.994 107.094 62.9717
104.597 108.714 65.6566
104.662 113.586 69.4589
106.845 114.491 68.632
110.704 105.62 58.7913
109.214 105.166 60.1046
110.108 103.966 56.0154
102.572 109.769 68.0919
102.998 112.283 70.4136
101.063 110.613 70.9397
109.017 114.9 67.8236
110.611 113.207 64.7678
111.324 114.795 67.2501
107.438 95.1877 81.0571
108.802 94.4304 82.613
108.496 93.3913 78.9035
110.179 93.9894 84.153
108.725 94.76 85.9912
106.069 96.7343 82.8159
106.238 96.2027 79.4551
108.359 92.4997 75.5465
109.811 92.0372 76.573
107.444 95.6414 87.897
106.354 97.1404 86.0177
106.092 97.2776 89.2311
106.549 95.5101 76.1457
107.435 93.3872 74.146
106.55 94.6114 72.6963
111.25 92.1026 77.7684
111.214 92.6395 81.8213
112.722 92.3152 79.1578
110.295 92.0899 51.2579
108.895 93.1307 54.2667
109.331 91.4313 54.5906
107.407 94.3302 57.1703
108.153 95.0821 54.3649
111.079 93.6212 48.8767
112.413 91.9674 49.5704
110.453 90.3532 56.0804
108.657 91.2008 58.056
108.838 96.0724 52.2444
110.367 95.327 48.8768
109.702 97.3919 49.9902
113.405 90.854 51.2222
112.226 90.0712 54.939
114.537 90.091 54.3617
107.197 92.0107 60.7097
106.307 93.9423 60.2388
105.973 93.5472 63.1705
POLYGONS 1280  5120
3 164 162 163
3 163 44 164
3 162 43 163
3 164 42 162
3 166 165 163
3 163 43 166
3 165 44 163
3 166 14 165
3 168 167 162
3 162 42 168
3 167 43 162
3 168 13 167
3 170 169 164
3 164 44 170
3 169 42 164
3 170 12 169
3 173 171 172
3 172 46 173
3 171 43 172
3 173 45 171
3 167 174 172
3 172 43 167
3 174 46 172
3 167 13 174
3 175 166 171
3 171 45 175
3 166 43 171
3 175 14 166
3 177 176 173
3 173 46 177
3 176 45 173
3 177 4 176
3 180 178 179
3 179 48 180
3 178 42 179
3 180 47 178
3 169 181 179
3 179 42 169
3 181 48 179
3 169 12 181
3 182 168 178
3 178 47 182
3 168 42 178
3 182 13 168
3 184 183 180
3 180 48 184
3 183 47 180
3 184 8 183
3 187 185 186
3 186 50 187
3 185 44 186
3 187 49 185
3 165 188 186
3 186 44 165
3 188 50 186
3 165 14 188
3 189 170 185
3 185 49 189
3 170 44 185
3 189 12 170
3 191 190 187
3 187 50 191
3 190 49 187
3 191 7 190
3 194 192 193
3 193 53 194
3 192 52 193
3 194 51 192
3 196 195 193
3 193 52 196
3 195 53 193
3 196 16 195
3 198 197 192
3 192 51 198
3 197 52 192
3 198 14 197
3 200 199 194
3 194 53 200
3 199 51 194
3 200 15 199
3 203 201 202
3 202 45 203
3 201 52 202
3 203 54 201
3 197 175 202
3 202 52 197
3 175 45 202
3 197 14 175
3 204 196 201
3 201 54 204
3 196 52 201
3 204 16 196
3 176 205 203
3 203 45 176
3 205 54 203
3 176 4 205
3 208 206 207
3 207 55 208
3 206 51 207
3 208 50 206
3 199 209 207
3 207 51 199
3 209 55 207
3 199 15 209
3 188 198 206
3 206 50 188
3 198 51 206
3 188 14 198
3 210 191 208
3 208 55 210
3 191 50 208
3 210 7 191
3 213 211 212
3 212 57 213
3 211 53 212
3 213 56 211
3 195 214 212
3 212 53 195
3 214 57 212
3 195 16 214
3 215 200 211
3 211 56 215
3 200 53 211
3 215 15 200
3 217 216 213
3 213 57 217
3 216 56 213
3 217 9 216
3 220 218 219
3 219 60 220
3 218 59 219
3 220 58 218
3 222 221 219
3 219 59 222
3 221 60 219
3 222 19 221
3 224 223 218
3 218 58 224
3 223 59 218
3 224 18 223
3 226 225 220
3 220 60 226
3 225 58 220
3 226 17 225
3 229 227 228
3 228 62 229
3 227 59 228
3 229 61 227
3 223 230 228
3 228 59 223
3 230 62 228
3 223 18 230
3 231 222 227
3 227 61 231
3 222 59 227
3 231 19 222
3 233 232 229
3 229 62 233
3 232 61 229
3 233 5 232
3 236 234 235
3 235 64 236
3 234 58 235
3 236 63 234
3 225 237 235
3 235 58 225
3 237 64 235
3 225 17 237
3 238 224 234
3 234 63 238
3 224 58 234
3 238 18 224
3 240 239 236
3 236 64 240
3 239 63 236
3 240 6 239
3 243 241 242
3 242 66 243
3 241 60 242
3 243 65 241
3 221 244 242
3 242 60 221
3 244 66 242
3 221 19 244
3 245 226 241
3 241 65 245
3 226 60 241
3 245 17 226
3 247 246 243
3 243 66 247
3 246 65 243
3 247 11 246
3 250 248 249
3 249 69 250
3 248 68 249
3 250 67 248
3 252 251 249
3 249 68 252
3 251 69 249
3 252 18 251
3 254 253 248
3 248 67 254
3 253 68 248
3 254 21 253
3 256 255 250
3 250 69 256
3 255 67 250
3 256 20 255
3 259 257 258
3 258 70 259
3 257 68 258
3 259 62 257
3 253 260 258
3 258 68 253
3 260 70 258
3 253 21 260
3 230 252 257
3 257 62 230
3 252 68 257
3 230 18 252
3 261 233 259
3 259 70 261
3 233 62 259
3 261 5 233
3 264 262 263
3 263 72 264
3 262 67 263
3 264 71 262
3 255 265 263
3 263 67 255
3 265 72 263
3 255 20 265
3 266 254 262
3 262 71 266
3 254 67 262
3 266 21 254
3 268 267 264
3 264 72 268
3 267 71 264
3 268 10 267
3 271 269 270
3 270 63 271
3 269 69 270
3 271 73 269
3 251 238 270
3 270 69 251
3 238 63 270
3 251 18 238
3 272 256 269
3 269 73 272
3 256 69 269
3 272 20 256
3 239 273 271
3 271 63 239
3 273 73 271
3 239 6 273
3 276 274 275
3 275 76 276
3 274 75 275
3 276 74 274
3 278 277 275
3 275 75 278
3 277 76 275
3 278 24 277
3 280 279 274
3 274 74 280
3 279 75 274
3 280 23 279
3 282 281 276
3 276 76 282
3 281 74 276
3 282 22 281
3 285 283 284
3 284 78 285
3 283 75 284
3 285 77 283
3 279 286 284
3 284 75 279
3 286 78 284
3 279 23 286
3 287 278 283
3 283 77 287
3 278 75 283
3 287 24 278
3 289 288 285
3 285 78 289
3 288 77 285
3 289 0 288
3 292 290 291
3 291 80 292
3 290 74 291
3 292 79 290
3 281 293 291
3 291 74 281
3 293 80 291
3 281 22 293
3 294 280 290
3 290 79 294
3 280 74 290
3 294 23 280
3 296 295 292
3 292 80 296
3 295 79 292
3 296 4 295
3 299 297 298
3 298 82 299
3 297 76 298
3 299 81 297
3 277 300 298
3 298 76 277
3 300 82 298
3 277 24 300
3 301 282 297
3 297 81 301
3 282 76 297
3 301 22 282
3 303 302 299
3 299 82 303
3 302 81 299
3 303 3 302
3 306 304 305
3 305 85 306
3 304 84 305
3 306 83 304
3 308 307 305
3 305 84 308
3 307 85 305
3 308 26 307
3 310 309 304
3 304 83 310
3 309 84 304
3 310 24 309
3 312 311 306
3 306 85 312
3 311 83 306
3 312 25 311
3 315 313 314
3 314 77 315
3 313 84 314
3 315 86 313
3 309 287 314
3 314 84 309
3 287 77 314
3 309 24 287
3 316 308 313
3 313 86 316
3 308 84 313
3 316 26 308
3 288 317 315
3 315 77 288
3 317 86 315
3 288 0 317
3 320 318 319
3 319 87 320
3 318 83 319
3 320 82 318
3 311 321 319
3 319 83 311
3 321 87 319
3 311 25 321
3 300 310 318
3 318 82 300
3 310 83 318
3 300 24 310
3 322 303 320
3 320 87 322
3 303 82 320
3 322 3 303
3 325 323 324
3 324 89 325
3 323 85 324
3 325 88 323
3 307 326 324
3 324 85 307
3 326 89 324
3 307 26 326
3 327 312 323
3 323 88 327
3 312 85 323
3 327 25 312
3 329 328 325
3 325 89 329
3 328 88 325
3 329 5 328
3 332 330 331
3 331 92 332
3 330 91 331
3 332 90 330
3 334 333 331
3 331 91 334
3 333 92 331
3 334 29 333
3 336 335 330
3 330 90 336
3 335 91 330
3 336 28 335
3 338 337 332
3 332 92 338
3 337 90 332
3 338 27 337
3 341 339 340
3 340 94 341
3 339 91 340
3 341 93 339
3 335 342 340
3 340 91 335
3 342 94 340
3 335 28 342
3 343 334 339
3 339 93 343
3 334 91 339
3 343 29 334
3 345 344 341
3 341 94 345
3 344 93 341
3 345 2 344
3 348 346 347
3 347 96 348
3 346 90 347
3 348 95 346
3 337 349 347
3 347 90 337
3 349 96 347
3 337 27 349
3 350 336 346
3 346 95 350
3 336 90 346
3 350 28 336
3 352 351 348
3 348 96 352
3 351 95 348
3 352 7 351
3 355 353 354
3 354 98 355
3 353 92 354
3 355 97 353
3 333 356 354
3 354 92 333
3 356 98 354
3 333 29 356
3 357 338 353
3 353 97 357
3 338 92 353
3 357 27 338
3 359 358 355
3 355 98 359
3 358 97 355
3 359 1 358
3 362 360 361
3 361 101 362
3 360 100 361
3 362 99 360
3 364 363 361
3 361 100 364
3 363 101 361
3 364 31 363
3 366 365 360
3 360 99 366
3 365 100 360
3 366 29 365
3 368 367 362
3 362 101 368
3 367 99 362
3 368 30 367
3 371 369 370
3 370 93 371
3 369 100 370
3 371 102 369
3 365 343 370
3 370 100 365
3 343 93 370
3 365 29 343
3 372 364 369
3 369 102 372
3 364 100 369
3 372 31 364
3 344 373 371
3 371 93 344
3 373 102 371
3 344 2 373
3 376 374 375
3 375 103 376
3 374 99 375
3 376 98 374
3 367 377 375
3 375 99 367
3 377 103 375
3 367 30 377
3 356 366 374
3 374 98 356
3 366 99 374
3 356 29 366
3 378 359 376
3 376 103 378
3 359 98 376
3 378 1 359
3 381 379 380
3 380 105 381
3 379 101 380
3 381 104 379
3 363 382 380
3 380 101 363
3 382 105 380
3 363 31 382
3 383 368 379
3 379 104 383
3 368 101 379
3 383 30 368
3 385 384 381
3 381 105 385
3 384 104 381
3 385 6 384
3 388 386 387
3 387 108 388
3 386 107 387
3 388 106 386
3 390 389 387
3 387 107 390
3 389 108 387
3 390 34 389
3 392 391 386
3 386 106 392
3 391 107 386
3 392 33 391
3 394 393 388
3 388 108 394
3 393 106 388
3 394 32 393
3 397 395 396
3 396 110 397
3 395 107 396
3 397 109 395
3 391 398 396
3 396 107 391
3 398 110 396
3 391 33 398
3 399 390 395
3 395 109 399
3 390 107 395
3 399 34 390
3 401 400 397
3 397 110 401
3 400 109 397
3 401 8 400
3 404 402 403
3 403 112 404
3 402 106 403
3 404 111 402
3 393 405 403
3 403 106 393
3 405 112 403
3 393 32 405
3 406 392 402
3 402 111 406
3 392 106 402
3 406 33 392
3 408 407 404
3 404 112 408
3 407 111 404
3 408 0 407
3 411 409 410
3 410 114 411
3 409 108 410
3 411 113 409
3 389 412 410
3 410 108 389
3 412 114 410
3 389 34 412
3 413 394 409
3 409 113 413
3 394 108 409
3 413 32 394
3 415 414 411
3 411 114 415
3 414 113 411
3 415 11 414
3 418 416 417
3 417 117 418
3 416 116 417
3 418 115 416
3 420 419 417
3 417 116 420
3 419 117 417
3 420 36 419
3 422 421 416
3 416 115 422
3 421 116 416
3 422 34 421
3 424 423 418
3 418 117 424
3 423 115 418
3 424 35 423
3 427 425 426
3 426 109 427
3 425 116 426
3 427 118 425
3 421 399 426
3 426 116 421
3 399 109 426
3 421 34 399
3 428 420 425
3 425 118 428
3 420 116 425
3 428 36 420
3 400 429 427
3 427 109 400
3 429 118 427
3 400 8 429
3 432 430 431
3 431 119 432
3 430 115 431
3 432 114 430
3 423 433 431
3 431 115 423
3 433 119 431
3 423 35 433
3 412 422 430
3 430 114 412
3 422 115 430
3 412 34 422
3 434 415 432
3 432 119 434
3 415 114 432
3 434 11 415
3 437 435 436
3 436 121 437
3 435 117 436
3 437 120 435
3 419 438 436
3 436 117 419
3 438 121 436
3 419 36 438
3 439 424 435
3 435 120 439
3 424 117 435
3 439 35 424
3 441 440 437
3 437 121 441
3 440 120 437
3 441 1 440
3 444 442 443
3 443 124 444
3 442 123 443
3 444 122 442
3 446 445 443
3 443 123 446
3 445 124 443
3 446 39 445
3 448 447 442
3 442 122 448
3 447 123 442
3 448 38 447
3 450 449 444
3 444 124 450
3 449 122 444
3 450 37 449
3 453 451 452
3 452 126 453
3 451 123 452
3 453 125 451
3 447 454 452
3 452 123 447
3 454 126 452
3 447 38 454
3 455 446 451
3 451 125 455
3 446 123 451
3 455 39 446
3 457 456 453
3 453 126 457
3 456 125 453
3 457 9 456
3 460 458 459
3 459 128 460
3 458 122 459
3 460 127 458
3 449 461 459
3 459 122 449
3 461 128 459
3 449 37 461
3 462 448 458
3 458 127 462
3 448 122 458
3 462 38 448
3 464 463 460
3 460 128 464
3 463 127 460
3 464 10 463
3 467 465 466
3 466 130 467
3 465 124 466
3 467 129 465
3 445 468 466
3 466 124 445
3 468 130 466
3 445 39 468
3 469 450 465
3 465 129 469
3 450 124 465
3 469 37 450
3 471 470 467
3 467 130 471
3 470 129 467
3 471 3 470
3 474 472 473
3 473 133 474
3 472 132 473
3 474 131 472
3 476 475 473
3 473 132 476
3 475 133 473
3 476 38 475
3 478 477 472
3 472 131 478
3 477 132 472
3 478 41 477
3 480 479 474
3 474 133 480
3 479 131 474
3 480 40 479
3 483 481 482
3 482 134 483
3 481 132 482
3 483 126 481
3 477 484 482
3 482 132 477
3 484 134 482
3 477 41 484
3 454 476 481
3 481 126 454
3 476 132 481
3 454 38 476
3 485 457 483
3 483 134 485
3 457 126 483
3 485 9 457
3 488 486 487
3 487 136 488
3 486 131 487
3 488 135 486
3 479 489 487
3 487 131 479
3 489 136 487
3 479 40 489
3 490 478 486
3 486 135 490
3 478 131 486
3 490 41 478
3 492 491 488
3 488 136 492
3 491 135 488
3 492 2 491
3 495 493 494
3 494 127 495
3 493 133 494
3 495 137 493
3 475 462 494
3 494 133 475
3 462 127 494
3 475 38 462
3 496 480 493
3 493 137 496
3 480 133 493
3 496 40 480
3 463 497 495
3 495 127 463
3 497 137 495
3 463 10 497
3 500 498 499
3 499 140 500
3 498 139 499
3 500 138 498
3 502 501 499
3 499 139 502
3 501 140 499
3 502 33 501
3 504 503 498
3 498 138 504
3 503 139 498
3 504 13 503
3 506 505 500
3 500 140 506
3 505 138 500
3 506 23 505
3 509 507 508
3 508 47 509
3 507 139 508
3 509 110 507
3 503 182 508
3 508 139 503
3 182 47 508
3 503 13 182
3 398 502 507
3 507 110 398
3 502 139 507
3 398 33 502
3 183 401 509
3 509 47 183
3 401 110 509
3 183 8 401
3 512 510 511
3 511 79 512
3 510 138 511
3 512 46 510
3 505 294 511
3 511 138 505
3 294 79 511
3 505 23 294
3 174 504 510
3 510 46 174
3 504 138 510
3 174 13 504
3 295 177 512
3 512 79 295
3 177 46 512
3 295 4 177
3 515 513 514
3 514 111 515
3 513 140 514
3 515 78 513
3 501 406 514
3 514 140 501
3 406 111 514
3 501 33 406
3 286 506 513
3 513 78 286
3 506 140 513
3 286 23 506
3 407 289 515
3 515 111 407
3 289 78 515
3 407 0 289
3 518 516 517
3 517 143 518
3 516 142 517
3 518 141 516
3 520 519 517
3 517 142 520
3 519 143 517
3 520 19 519
3 522 521 516
3 516 141 522
3 521 142 516
3 522 32 521
3 524 523 518
3 518 143 524
3 523 141 518
3 524 26 523
3 527 525 526
3 526 113 527
3 525 142 526
3 527 66 525
3 521 413 526
3 526 142 521
3 413 113 526
3 521 32 413
3 244 520 525
3 525 66 244
3 520 142 525
3 244 19 520
3 414 247 527
3 527 113 414
3 247 66 527
3 414 11 247
3 530 528 529
3 529 86 530
3 528 141 529
3 530 112 528
3 523 316 529
3 529 141 523
3 316 86 529
3 523 26 316
3 405 522 528
3 528 112 405
3 522 141 528
3 405 32 522
3 317 408 530
3 530 86 317
3 408 112 530
3 317 0 408
3 533 531 532
3 532 61 533
3 531 143 532
3 533 89 531
3 519 231 532
3 532 143 519
3 231 61 532
3 519 19 231
3 326 524 531
3 531 89 326
3 524 143 531
3 326 26 524
3 232 329 533
3 533 61 232
3 329 89 533
3 232 5 329
3 536 534 535
3 535 146 536
3 534 145 535
3 536 144 534
3 538 537 535
3 535 145 538
3 537 146 535
3 538 22 537
3 540 539 534
3 534 144 540
3 539 145 534
3 540 16 539
3 542 541 536
3 536 146 542
3 541 144 536
3 542 39 541
3 545 543 544
3 544 54 545
3 543 145 544
3 545 80 543
3 539 204 544
3 544 145 539
3 204 54 544
3 539 16 204
3 293 538 543
3 543 80 293
3 538 145 543
3 293 22 538
3 205 296 545
3 545 54 205
3 296 80 545
3 205 4 296
3 548 546 547
3 547 125 548
3 546 144 547
3 548 57 546
3 541 455 547
3 547 144 541
3 455 125 547
3 541 39 455
3 214 540 546
3 546 57 214
3 540 144 546
3 214 16 540
3 456 217 548
3 548 125 456
3 217 57 548
3 456 9 217
3 551 549 550
3 550 81 551
3 549 146 550
3 551 130 549
3 537 301 550
3 550 146 537
3 301 81 550
3 537 22 301
3 468 542 549
3 549 130 468
3 542 146 549
3 468 39 542
3 302 471 551
3 551 81 302
3 471 130 551
3 302 3 471
3 554 552 553
3 553 149 554
3 552 148 553
3 554 147 552
3 556 555 553
3 553 148 556
3 555 149 553
3 556 21 555
3 558 557 552
3 552 147 558
3 557 148 552
3 558 25 557
3 560 559 554
3 554 149 560
3 559 147 554
3 560 37 559
3 563 561 562
3 562 88 563
3 561 148 562
3 563 70 561
3 557 327 562
3 562 148 557
3 327 88 562
3 557 25 327
3 260 556 561
3 561 70 260
3 556 148 561
3 260 21 556
3 328 261 563
3 563 88 328
3 261 70 563
3 328 5 261
3 566 564 565
3 565 129 566
3 564 147 565
3 566 87 564
3 559 469 565
3 565 147 559
3 469 129 565
3 559 37 469
3 321 558 564
3 564 87 321
3 558 147 564
3 321 25 558
3 470 322 566
3 566 129 470
3 322 87 566
3 470 3 322
3 569 567 568
3 568 71 569
3 567 149 568
3 569 128 567
3 555 266 568
3 568 149 555
3 266 71 568
3 555 21 266
3 461 560 567
3 567 128 461
3 560 149 567
3 461 37 560
3 267 464 569
3 569 71 267
3 464 128 569
3 267 10 464
3 572 570 571
3 571 152 572
3 570 151 571
3 572 150 570
3 574 573 571
3 571 151 574
3 573 152 571
3 574 27 573
3 576 575 570
3 570 150 576
3 575 151 570
3 576 12 575
3 578 577 572
3 572 152 578
3 577 150 572
3 578 36 577
3 581 579 580
3 580 49 581
3 579 151 580
3 581 96 579
3 575 189 580
3 580 151 575
3 189 49 580
3 575 12 189
3 349 574 579
3 579 96 349
3 574 151 579
3 349 27 574
3 190 352 581
3 581 49 190
3 352 96 581
3 190 7 352
3 584 582 583
3 583 118 584
3 582 150 583
3 584 48 582
3 577 428 583
3 583 150 577
3 428 118 583
3 577 36 428
3 181 576 582
3 582 48 181
3 576 150 582
3 181 12 576
3 429 184 584
3 584 118 429
3 184 48 584
3 429 8 184
3 587 585 586
3 586 97 587
3 585 152 586
3 587 121 585
3 573 357 586
3 586 152 573
3 357 97 586
3 573 27 357
3 438 578 585
3 585 121 438
3 578 152 585
3 438 36 578
3 358 441 587
3 587 97 358
3 441 121 587
3 358 1 441
3 590 588 589
3 589 155 590
3 588 154 589
3 590 153 588
3 592 591 589
3 589 154 592
3 591 155 589
3 592 17 591
3 594 593 588
3 588 153 594
3 593 154 588
3 594 30 593
3 596 595 590
3 590 155 596
3 595 153 590
3 596 35 595
3 599 597 598
3 598 104 599
3 597 154 598
3 599 64 597
3 593 383 598
3 598 154 593
3 383 104 598
3 593 30 383
3 237 592 597
3 597 64 237
3 592 154 597
3 237 17 592
3 384 240 599
3 599 104 384
3 240 64 599
3 384 6 240
3 602 600 601
3 601 120 602
3 600 153 601
3 602 103 600
3 595 439 601
3 601 153 595
3 439 120 601
3 595 35 439
3 377 594 600
3 600 103 377
3 594 153 600
3 377 30 594
3 440 378 602
3 602 120 440
3 378 103 602
3 440 1 378
3 605 603 604
3 604 65 605
3 603 155 604
3 605 119 603
3 591 245 604
3 604 155 591
3 245 65 604
3 591 17 245
3 433 596 603
3 603 119 433
3 596 155 603
3 433 35 596
3 246 434 605
3 605 65 246
3 434 119 605
3 246 11 434
3 608 606 607
3 607 158 608
3 606 157 607
3 608 156 606
3 610 609 607
3 607 157 610
3 609 158 607
3 610 15 609
3 612 611 606
3 606 156 612
3 611 157 606
3 612 28 611
3 614 613 608
3 608 158 614
3 613 156 608
3 614 41 613
3 617 615 616
3 616 95 617
3 615 157 616
3 617 55 615
3 611 350 616
3 616 157 611
3 350 95 616
3 611 28 350
3 209 610 615
3 615 55 209
3 610 157 615
3 209 15 610
3 351 210 617
3 617 95 351
3 210 55 617
3 351 7 210
3 620 618 619
3 619 135 620
3 618 156 619
3 620 94 618
3 613 490 619
3 619 156 613
3 490 135 619
3 613 41 490
3 342 612 618
3 618 94 342
3 612 156 618
3 342 28 612
3 491 345 620
3 620 135 491
3 345 94 620
3 491 2 345
3 623 621 622
3 622 56 623
3 621 158 622
3 623 134 621
3 609 215 622
3 622 158 609
3 215 56 622
3 609 15 215
3 484 614 621
3 621 134 484
3 614 158 621
3 484 41 614
3 216 485 623
3 623 56 216
3 485 134 623
3 216 9 485
3 626 624 625
3 625 161 626
3 624 160 625
3 626 159 624
3 628 627 625
3 625 160 628
3 627 161 625
3 628 31 627
3 630 629 624
3 624 159 630
3 629 160 624
3 630 20 629
3 632 631 626
3 626 161 632
3 631 159 626
3 632 40 631
3 635 633 634
3 634 73 635
3 633 160 634
3 635 105 633
3 629 272 634
3 634 160 629
3 272 73 634
3 629 20 272
3 382 628 633
3 633 105 382
3 628 160 633
3 382 31 628
3 273 385 635
3 635 73 273
3 385 105 635
3 273 6 385
3 638 636 637
3 637 137 638
3 636 159 637
3 638 72 636
3 631 496 637
3 637 159 631
3 496 137 637
3 631 40 496
3 265 630 636
3 636 72 265
3 630 159 636
3 265 20 630
3 497 268 638
3 638 137 497
3 268 72 638
3 497 10 268
3 641 639 640
3 640 102 641
3 639 161 640
3 641 136 639
3 627 372 640
3 640 161 627
3 372 102 640
3 627 31 372
3 489 632 639
3 639 136 489
3 632 161 639
3 489 40 632
3 373 492 641
3 641 102 373
3 492 136 641
3 373 2 492
