# vtk DataFile Version 3.0
this file was written using fslvtkio
ASCII
DATASET POLYDATA
POINTS 642 float
108.394 121.259 158.76
97.9607 120.775 158.362
102.996 114.289 156.929
112.665 111.843 156.224
108.144 115.802 162.742
109.119 117.654 153.74
101.813 118.036 153.084
102.489 116.181 162.61
102.31 124.428 163.527
108.114 109.073 159.342
107.911 110.715 152.9
102.401 124.792 156.439
101.623 120.025 164.341
105.479 120.447 164.284
105.531 115.157 164.59
105.503 112.364 161.552
109.227 111.036 162.237
101.499 121.541 154.606
105.586 117.735 153.244
105.947 121.501 155.078
104.935 114.195 152.533
109.668 113.514 152.332
110.921 112.974 159.728
108.382 118.974 161.123
111.387 116.701 157.457
112.116 114.41 153.846
109.427 120.198 155.691
99.5638 119.25 161.528
102.764 115.061 159.79
99.7232 117.478 157.436
98.1713 120.062 154.562
101.841 116.012 154.707
105.597 124.276 157.683
105.296 123.737 161.369
100.749 126.825 159.864
98.3988 123.974 157.257
98.4212 123.65 161.31
112.499 109.127 152.882
108.484 108.315 155.569
111.954 107.906 157.956
104.922 111.731 154.712
105.478 111.187 158.056
103.647 120.3 164.975
105.547 117.824 165.012
103.475 117.595 164.784
107.196 115.435 164.169
106.794 118.178 163.672
104.061 122.632 164.249
101.778 122.332 164.065
101.637 117.816 163.737
103.749 115.568 163.793
105.294 113.619 163.262
107.438 113.064 163.822
107.191 111.238 162.436
108.771 113.445 162.607
103.948 114.343 162.056
106.649 110.687 160.445
108.72 109.57 161.035
103.606 119.949 153.629
105.697 119.629 153.968
103.814 121.461 154.783
107.515 119.59 154.25
107.394 117.625 153.432
103.735 118.012 153.005
101.694 119.963 153.507
102.17 122.939 155.635
104.278 123.216 155.705
107.242 113.958 152.274
107.521 115.637 152.674
105.283 116.016 152.784
109.288 115.699 152.88
108.867 111.995 152.369
106.393 112.427 152.598
103.363 116.207 153.082
109.964 116.059 160.492
110.069 117.731 159.412
111.289 115.025 158.853
109.948 118.985 158.11
108.45 120.164 159.954
108.3 117.435 161.999
109.615 114.454 161.281
111.908 112.35 158.072
112.152 114.337 156.967
111.979 115.784 155.605
110.648 118.514 156.503
111.083 117.466 154.751
108.825 120.724 157.202
112.714 113.237 154.982
110.79 116.282 153.541
109.46 119.097 154.454
101.066 117.261 160.597
101.082 116.392 158.903
99.7846 118.194 159.474
101.326 115.965 157.303
102.727 114.637 158.346
102.694 115.773 161.164
100.811 117.628 162.21
98.9219 120.011 159.851
98.6602 118.998 157.865
98.5818 118.46 155.96
100.587 116.72 155.957
99.5108 117.862 154.47
102.457 115.09 155.814
97.6914 120.274 156.404
99.8626 119.191 153.533
101.607 116.908 153.796
105.251 124.439 159.533
103.187 125.861 160.903
103.038 125.89 158.681
101.39 126.076 162.111
104.058 124.441 162.817
107.042 122.65 160.14
107.223 122.858 158.251
104.245 124.899 156.783
101.252 126.319 157.588
99.1415 126.398 158.092
99.0533 125.935 160.971
97.393 124.32 159.198
100.196 124.111 162.708
100.435 124.407 156.741
97.4159 122.279 157.745
97.7689 122.099 159.999
110.538 107.325 153.609
110.531 106.8 156.552
113.089 107.511 155.083
110.014 107.949 158.969
108.143 108.475 157.543
108.158 109.278 153.893
110.108 109.773 152.798
113.164 110.319 154.556
112.418 109.906 156.962
105.282 111.258 156.291
106.691 109.455 156.773
106.612 109.738 154.975
106.672 110.144 158.794
104.174 112.7 157.488
103.981 113.06 155.817
106.14 111.149 153.574
106.851 119.804 162.664
105.511 122.234 162.949
107.062 121.531 161.43
107.547 122.325 156.598
106.109 123.385 155.981
107.903 121.094 155.081
110.599 109.146 160.352
110.085 111.911 160.989
111.516 110.339 158.903
112.783 111.772 153.264
111.057 114.137 152.796
111.142 111.327 152.424
99.92 121.959 163.026
100.219 119.446 163.169
98.6645 121.324 161.503
98.1966 121.85 155.913
99.8537 120.87 154.212
99.9851 122.774 155.896
103.997 113.187 158.932
104.092 113.788 160.652
105.339 111.941 159.756
104.651 112.872 153.417
103.309 114.904 153.608
103.592 113.863 154.726
104.593 119.11 165.179
104.496 117.761 164.982
103.55 118.938 165.007
104.488 116.476 164.782
105.438 116.537 164.913
105.481 119.191 164.858
104.705 120.338 164.902
102.644 120.05 164.792
102.615 118.826 164.684
106.34 116.665 164.738
106.247 118.08 164.497
106.905 116.879 164.052
106.093 119.298 164.111
106.391 115.379 164.579
107.627 115.755 163.517
107.402 116.947 163.304
103.847 121.434 164.73
102.654 121.271 164.613
102.934 122.462 164.342
101.658 121.157 164.288
104.786 121.532 164.404
103.215 123.615 164.124
102.072 123.411 163.902
102.498 117.756 164.368
103.567 116.524 164.386
102.665 116.711 163.862
104.579 115.413 164.316
101.716 118.817 164.208
102.049 116.862 163.278
103.057 115.9 163.257
106.311 113.241 163.714
107.324 112.024 163.293
106.292 112.386 163.007
108.211 111.009 162.669
108.376 111.995 163.19
106.499 114.098 164.318
105.348 114.303 164.032
105.518 112.824 162.501
106.275 111.804 162.147
108.17 113.245 163.378
107.274 114.349 164.19
107.975 114.574 163.351
109.034 112.28 162.618
108.456 114.675 162.674
104.445 114.582 163.587
104.624 113.886 162.619
103.727 114.907 162.877
104.839 113.337 161.891
103.206 115.342 162.384
106.774 110.941 161.488
107.874 110.379 161.911
107.603 110.131 160.969
108.992 110.147 161.786
106.071 111.49 161.116
107.436 109.869 160.065
108.265 109.299 160.296
104.68 119.799 153.801
104.811 120.664 154.334
103.737 120.753 154.19
104.9 121.411 154.862
105.718 120.602 154.526
105.545 118.757 153.522
104.61 118.969 153.391
102.669 120.854 154.072
102.76 121.458 154.61
106.579 119.651 154.125
106.481 118.625 153.632
107.405 118.6 153.797
106.461 117.676 153.348
106.678 120.559 154.687
108.285 118.624 153.956
108.271 117.652 153.549
103.702 119.012 153.263
102.634 120.053 153.586
102.748 119.047 153.14
101.632 120.88 153.987
104.638 118.016 153.148
102.767 118.093 152.94
101.855 118.966 153.147
103.022 122.18 155.17
104.11 122.238 155.315
103.216 123.131 155.67
105.099 122.302 155.331
101.927 122.121 155.128
102.313 123.865 156.035
103.346 124.069 156.026
107.351 114.819 152.42
106.36 115.87 152.707
106.203 114.95 152.387
105.477 116.873 153.025
106.561 116.655 153.005
108.54 114.598 152.408
108.422 113.781 152.299
106.055 114.122 152.312
105.173 115.061 152.496
107.374 116.692 153.065
108.433 115.607 152.742
108.325 116.69 153.122
109.44 114.622 152.526
109.164 116.722 153.276
108.096 112.995 152.31
106.813 113.205 152.318
107.603 112.233 152.4
105.705 113.339 152.445
109.308 112.757 152.278
108.351 111.337 152.573
107.149 111.591 152.662
104.334 116.054 152.902
104.551 117.027 152.985
103.5 117.081 152.982
104.232 115.196 152.813
102.574 117.202 153.051
110.015 116.988 160
110.771 116.448 159.117
110.658 115.58 159.68
111.297 115.981 158.286
110.799 117.109 158.493
109.248 118.238 160.284
109.335 117.51 160.756
110.495 114.62 160.144
111.067 114.125 159.389
110.051 118.293 158.744
109.245 118.914 159.703
109.246 119.516 159.078
108.496 119.513 160.514
110.668 117.767 157.821
109.197 120.08 158.433
108.516 120.68 159.32
109.187 116.815 161.247
109.809 115.26 160.912
108.971 116.023 161.695
110.288 113.699 160.476
108.451 118.128 161.483
108.141 116.668 162.461
108.86 115.157 162.019
111.573 113.718 158.563
111.715 114.743 157.955
112.06 113.456 157.654
111.755 115.541 157.286
111.408 112.669 158.93
112.339 112.174 157.196
112.442 113.108 156.662
111.435 117.203 156.09
110.975 118.093 155.605
111.646 116.696 155.171
110.452 118.801 155.234
110.148 119.265 155.967
111.078 117.564 156.932
111.763 116.369 156.532
112.104 115.268 154.712
111.696 116.044 154.333
109.837 119.614 156.772
110.341 118.689 157.322
109.508 119.885 157.608
109.174 120.42 156.428
108.672 120.917 158.005
112.064 115.159 156.363
112.372 114.58 155.31
112.478 113.858 156.018
112.479 113.893 154.368
112.727 112.577 155.679
111.016 116.908 154.113
110.361 118.355 154.577
110.168 117.688 154.022
109.626 119.643 155.043
111.573 115.468 153.661
109.923 116.984 153.609
109.25 118.42 154.083
101.174 116.728 159.718
100.37 117.207 159.177
100.416 117.693 160.088
99.7277 117.706 158.559
100.331 116.979 158.267
101.888 115.846 159.493
101.865 116.294 160.164
100.262 118.192 160.985
99.7707 118.678 160.469
101.103 116.143 158.126
101.883 115.535 158.743
102.003 115.36 157.917
102.647 114.891 159.098
100.495 116.725 157.433
102.187 115.218 157.109
102.77 114.529 157.605
101.905 116.518 160.887
100.897 117.469 161.389
101.743 116.766 161.73
100.106 118.411 161.837
102.688 115.545 160.427
102.588 116.004 161.878
101.676 116.934 162.501
99.3772 119.119 159.73
99.2275 118.551 158.707
98.8153 119.521 158.836
99.1858 118.167 157.741
99.2525 119.581 160.75
98.4439 120.45 159.078
98.2841 119.929 158.068
99.5677 117.505 156.039
99.9963 117.22 155.269
98.962 118.168 155.214
100.566 117.091 154.59
101.082 116.508 155.179
100.09 117.091 156.701
99.2218 117.926 156.692
98.0444 119.117 155.19
98.6136 118.869 154.426
101.486 116.005 155.82
100.92 116.323 156.69
101.914 115.567 156.478
102.089 115.515 155.252
102.769 114.721 156.412
98.6949 118.611 156.986
97.9835 119.245 156.157
98.0933 119.549 157.189
97.7379 120.113 155.44
97.7618 120.466 157.408
99.481 118.541 153.91
100.486 117.517 154.04
100.544 118.052 153.494
101.633 116.502 154.289
98.9228 119.623 153.963
100.972 118.593 153.244
101.7 117.38 153.385
104.101 125.193 160.134
103.033 125.967 159.795
104.141 125.272 159.157
101.933 126.495 159.295
102.084 126.53 160.437
104.235 124.887 161.065
105.122 124.296 160.47
105.22 124.525 158.594
104.291 125.179 158.218
102.514 126.179 161.564
103.706 125.166 161.871
102.89 125.55 162.656
104.642 124.195 161.994
101.155 126.584 161.06
101.782 125.219 162.894
103.322 124.586 163.44
106.142 123.622 159.862
106.198 123.72 158.843
107.068 122.897 159.187
106.354 123.608 158.002
106.116 123.321 160.725
107.8 121.959 159.499
107.87 122.074 158.54
103.568 125.541 157.657
102.18 126.219 158.167
102.725 125.7 157.145
100.929 126.754 158.65
104.79 124.74 157.305
103.423 124.877 156.552
101.844 125.504 156.88
98.8534 126.423 159.579
98.0906 125.509 159.977
98.0981 125.756 158.878
97.7624 124.257 160.241
98.4981 124.878 161.034
99.8514 126.602 160.493
99.8195 126.818 158.882
98.5719 125.27 157.871
97.7244 124.513 158.222
99.4413 125.083 161.824
100.174 126.134 161.611
100.655 125.196 162.524
99.2241 124.007 161.974
101.248 124.245 163.222
100.241 126.567 157.763
99.6191 125.466 157.427
100.846 125.42 157.059
99.3024 124.422 157.095
101.465 124.546 156.519
97.1957 123.41 158.402
97.365 123.231 159.711
97.4348 122.271 158.87
97.9079 123.01 160.663
97.7188 123.297 157.465
97.5717 121.417 158.064
97.8965 121.379 159.243
110.67 106.672 155.002
112.033 106.327 155.804
112.088 106.695 154.074
112.585 107.33 156.468
111.597 106.794 157.177
109.575 107.273 155.808
109.577 107.436 154.647
111.782 107.787 153.031
113.068 107.806 153.627
110.364 107.179 157.802
109.328 107.57 156.994
109.157 108.101 158.174
108.479 108.189 156.498
111.102 107.548 158.483
108.9 108.556 159.204
107.904 108.908 158.415
109.289 108.259 153.845
110.439 108.458 152.985
109.022 109.508 153.32
111.341 109.161 152.667
108.544 108.525 154.614
107.84 110.029 153.345
108.96 110.324 152.862
113.259 108.782 154.634
112.818 108.598 156.109
112.9 110.097 155.812
112.316 108.682 157.25
113.212 109.363 153.612
112.909 111.142 155.415
112.549 110.965 156.691
105.938 110.338 156.479
106.701 109.449 155.826
105.902 110.491 155.642
107.572 108.923 155.165
107.556 108.733 156.184
106.035 110.324 157.352
105.392 111.066 157.129
105.221 111.361 155.46
105.749 110.72 154.908
107.415 108.835 157.107
106.627 109.814 157.698
107.23 109.27 158.16
106.113 110.582 158.336
107.336 109.599 159.177
104.737 111.944 156.9
104.62 112.081 156.039
104.069 112.843 156.639
104.475 112.277 155.306
104.864 111.892 157.714
103.568 113.528 157.193
103.522 113.718 156.399
106.275 110.436 154.315
107.327 109.351 154.401
107.012 110.128 153.756
105.521 111.353 154.194
106.937 110.911 153.129
106.13 120.986 162.851
106.295 121.902 162.179
106.995 120.609 162.007
106.234 122.697 161.449
105.473 123.021 162.194
105.506 121.377 163.684
106.142 120.126 163.5
107.632 119.454 161.899
107.719 120.239 161.316
104.841 123.376 162.848
104.868 122.425 163.692
104.124 123.628 163.676
106.808 119.043 163.201
107.629 118.619 162.264
107.517 117.783 162.798
107.779 120.767 160.725
107.062 122.19 160.836
107.811 121.394 160.076
106.897 123.044 156.27
106.982 122.259 155.487
107.794 121.78 155.756
106.937 121.364 155.058
106.099 122.421 155.466
105.935 124.057 156.769
106.647 123.397 157.148
108.437 121.254 156.145
108.732 120.814 155.369
105.266 123.19 155.735
105.224 124.162 156.383
104.333 124.104 156.114
107.366 122.66 157.424
108.211 121.476 156.875
108.049 121.774 157.783
108.759 120.127 154.769
107.675 120.401 154.672
108.513 119.403 154.283
110.424 110.518 160.69
110.833 111.107 159.979
111.161 109.66 159.615
111.179 111.666 159.366
110.531 112.376 160.339
109.699 111.434 161.628
109.929 110.076 161.315
111.295 108.399 159.224
111.773 109.075 158.421
109.9 113.199 161.105
109.44 112.647 161.842
109.133 113.954 161.885
109.629 109.363 160.948
110.354 108.38 159.725
109.089 108.804 160.037
112.025 109.912 157.926
111.706 111.382 158.567
112.164 111.145 157.61
112.046 112.875 152.815
111.31 112.701 152.383
112.159 111.426 152.591
110.44 112.485 152.267
110.405 113.826 152.524
111.699 114.201 153.227
112.519 113.093 153.487
112.898 110.363 152.996
111.888 110.159 152.504
110.178 114.938 152.774
111.007 115.251 153.163
109.987 116.031 153.244
112.805 112.707 154.111
113.059 111.034 153.835
112.971 111.914 154.849
110.78 110.468 152.554
109.898 111.755 152.316
109.404 110.922 152.618
99.9849 120.678 163.225
99.3858 120.424 162.431
99.1998 121.663 162.336
99.0654 120.264 161.55
99.7657 119.314 162.38
100.872 119.664 163.835
100.746 120.94 163.783
99.097 122.891 162.207
98.4158 122.446 161.486
100.303 118.399 162.607
100.854 118.64 163.539
101.156 117.625 162.987
100.819 122.032 163.629
99.9931 123.068 162.818
101.03 123.204 163.436
98.2071 121.682 160.779
98.8341 120.39 160.748
98.3345 120.937 159.901
98.9776 121.424 155.071
99.8391 121.789 155.114
99.0308 122.409 155.811
100.726 122.088 155.243
100.629 121.258 154.423
98.9979 120.537 154.339
98.1582 120.938 155.18
98.3476 122.852 156.626
99.1823 123.396 156.547
100.868 120.438 153.844
99.7962 120.001 153.763
100.922 119.408 153.414
97.7933 121.018 156.074
97.766 122.158 156.799
97.5484 121.192 157.127
100.201 123.529 156.376
101.187 122.694 155.682
101.355 123.627 156.109
103.983 113.477 159.786
104.745 112.817 160.24
104.673 112.57 159.263
105.421 112.086 160.692
104.746 113.058 161.123
103.456 114.411 160.158
103.325 114.084 159.39
104.742 112.246 158.458
105.347 111.649 158.845
104.046 114.077 161.356
103.369 114.836 160.786
103.279 115.111 161.618
103.285 113.928 158.668
104.084 112.949 158.18
103.39 113.778 157.84
105.911 111.156 159.079
105.926 111.357 160.089
106.606 110.444 159.57
103.979 113.869 153.534
103.383 114.492 154.203
104.007 113.284 154.134
102.697 114.925 154.699
102.514 115.408 154.156
104.091 114.505 153.06
104.757 113.496 152.866
104.736 112.31 154.057
104.226 112.719 154.736
102.415 115.916 153.842
103.297 115.486 153.298
102.457 116.53 153.367
105.421 112.668 152.883
105.345 112.039 153.544
106.25 111.787 153.024
103.821 113.426 155.255
102.99 114.591 155.236
103.315 114.183 155.856
POLYGONS 1280  5120
3 164 162 163
3 163 44 164
3 162 43 163
3 164 42 162
3 166 165 163
3 163 43 166
3 165 44 163
3 166 14 165
3 168 167 162
3 162 42 168
3 167 43 162
3 168 13 167
3 170 169 164
3 164 44 170
3 169 42 164
3 170 12 169
3 173 171 172
3 172 46 173
3 171 43 172
3 173 45 171
3 167 174 172
3 172 43 167
3 174 46 172
3 167 13 174
3 175 166 171
3 171 45 175
3 166 43 171
3 175 14 166
3 177 176 173
3 173 46 177
3 176 45 173
3 177 4 176
3 180 178 179
3 179 48 180
3 178 42 179
3 180 47 178
3 169 181 179
3 179 42 169
3 181 48 179
3 169 12 181
3 182 168 178
3 178 47 182
3 168 42 178
3 182 13 168
3 184 183 180
3 180 48 184
3 183 47 180
3 184 8 183
3 187 185 186
3 186 50 187
3 185 44 186
3 187 49 185
3 165 188 186
3 186 44 165
3 188 50 186
3 165 14 188
3 189 170 185
3 185 49 189
3 170 44 185
3 189 12 170
3 191 190 187
3 187 50 191
3 190 49 187
3 191 7 190
3 194 192 193
3 193 53 194
3 192 52 193
3 194 51 192
3 196 195 193
3 193 52 196
3 195 53 193
3 196 16 195
3 198 197 192
3 192 51 198
3 197 52 192
3 198 14 197
3 200 199 194
3 194 53 200
3 199 51 194
3 200 15 199
3 203 201 202
3 202 45 203
3 201 52 202
3 203 54 201
3 197 175 202
3 202 52 197
3 175 45 202
3 197 14 175
3 204 196 201
3 201 54 204
3 196 52 201
3 204 16 196
3 176 205 203
3 203 45 176
3 205 54 203
3 176 4 205
3 208 206 207
3 207 55 208
3 206 51 207
3 208 50 206
3 199 209 207
3 207 51 199
3 209 55 207
3 199 15 209
3 188 198 206
3 206 50 188
3 198 51 206
3 188 14 198
3 210 191 208
3 208 55 210
3 191 50 208
3 210 7 191
3 213 211 212
3 212 57 213
3 211 53 212
3 213 56 211
3 195 214 212
3 212 53 195
3 214 57 212
3 195 16 214
3 215 200 211
3 211 56 215
3 200 53 211
3 215 15 200
3 217 216 213
3 213 57 217
3 216 56 213
3 217 9 216
3 220 218 219
3 219 60 220
3 218 59 219
3 220 58 218
3 222 221 219
3 219 59 222
3 221 60 219
3 222 19 221
3 224 223 218
3 218 58 224
3 223 59 218
3 224 18 223
3 226 225 220
3 220 60 226
3 225 58 220
3 226 17 225
3 229 227 228
3 228 62 229
3 227 59 228
3 229 61 227
3 223 230 228
3 228 59 223
3 230 62 228
3 223 18 230
3 231 222 227
3 227 61 231
3 222 59 227
3 231 19 222
3 233 232 229
3 229 62 233
3 232 61 229
3 233 5 232
3 236 234 235
3 235 64 236
3 234 58 235
3 236 63 234
3 225 237 235
3 235 58 225
3 237 64 235
3 225 17 237
3 238 224 234
3 234 63 238
3 224 58 234
3 238 18 224
3 240 239 236
3 236 64 240
3 239 63 236
3 240 6 239
3 243 241 242
3 242 66 243
3 241 60 242
3 243 65 241
3 221 244 242
3 242 60 221
3 244 66 242
3 221 19 244
3 245 226 241
3 241 65 245
3 226 60 241
3 245 17 226
3 247 246 243
3 243 66 247
3 246 65 243
3 247 11 246
3 250 248 249
3 249 69 250
3 248 68 249
3 250 67 248
3 252 251 249
3 249 68 252
3 251 69 249
3 252 18 251
3 254 253 248
3 248 67 254
3 253 68 248
3 254 21 253
3 256 255 250
3 250 69 256
3 255 67 250
3 256 20 255
3 259 257 258
3 258 70 259
3 257 68 258
3 259 62 257
3 253 260 258
3 258 68 253
3 260 70 258
3 253 21 260
3 230 252 257
3 257 62 230
3 252 68 257
3 230 18 252
3 261 233 259
3 259 70 261
3 233 62 259
3 261 5 233
3 264 262 263
3 263 72 264
3 262 67 263
3 264 71 262
3 255 265 263
3 263 67 255
3 265 72 263
3 255 20 265
3 266 254 262
3 262 71 266
3 254 67 262
3 266 21 254
3 268 267 264
3 264 72 268
3 267 71 264
3 268 10 267
3 271 269 270
3 270 63 271
3 269 69 270
3 271 73 269
3 251 238 270
3 270 69 251
3 238 63 270
3 251 18 238
3 272 256 269
3 269 73 272
3 256 69 269
3 272 20 256
3 239 273 271
3 271 63 239
3 273 73 271
3 239 6 273
3 276 274 275
3 275 76 276
3 274 75 275
3 276 74 274
3 278 277 275
3 275 75 278
3 277 76 275
3 278 24 277
3 280 279 274
3 274 74 280
3 279 75 274
3 280 23 279
3 282 281 276
3 276 76 282
3 281 74 276
3 282 22 281
3 285 283 284
3 284 78 285
3 283 75 284
3 285 77 283
3 279 286 284
3 284 75 279
3 286 78 284
3 279 23 286
3 287 278 283
3 283 77 287
3 278 75 283
3 287 24 278
3 289 288 285
3 285 78 289
3 288 77 285
3 289 0 288
3 292 290 291
3 291 80 292
3 290 74 291
3 292 79 290
3 281 293 291
3 291 74 281
3 293 80 291
3 281 22 293
3 294 280 290
3 290 79 294
3 280 74 290
3 294 23 280
3 296 295 292
3 292 80 296
3 295 79 292
3 296 4 295
3 299 297 298
3 298 82 299
3 297 76 298
3 299 81 297
3 277 300 298
3 298 76 277
3 300 82 298
3 277 24 300
3 301 282 297
3 297 81 301
3 282 76 297
3 301 22 282
3 303 302 299
3 299 82 303
3 302 81 299
3 303 3 302
3 306 304 305
3 305 85 306
3 304 84 305
3 306 83 304
3 308 307 305
3 305 84 308
3 307 85 305
3 308 26 307
3 310 309 304
3 304 83 310
3 309 84 304
3 310 24 309
3 312 311 306
3 306 85 312
3 311 83 306
3 312 25 311
3 315 313 314
3 314 77 315
3 313 84 314
3 315 86 313
3 309 287 314
3 314 84 309
3 287 77 314
3 309 24 287
3 316 308 313
3 313 86 316
3 308 84 313
3 316 26 308
3 288 317 315
3 315 77 288
3 317 86 315
3 288 0 317
3 320 318 319
3 319 87 320
3 318 83 319
3 320 82 318
3 311 321 319
3 319 83 311
3 321 87 319
3 311 25 321
3 300 310 318
3 318 82 300
3 310 83 318
3 300 24 310
3 322 303 320
3 320 87 322
3 303 82 320
3 322 3 303
3 325 323 324
3 324 89 325
3 323 85 324
3 325 88 323
3 307 326 324
3 324 85 307
3 326 89 324
3 307 26 326
3 327 312 323
3 323 88 327
3 312 85 323
3 327 25 312
3 329 328 325
3 325 89 329
3 328 88 325
3 329 5 328
3 332 330 331
3 331 92 332
3 330 91 331
3 332 90 330
3 334 333 331
3 331 91 334
3 333 92 331
3 334 29 333
3 336 335 330
3 330 90 336
3 335 91 330
3 336 28 335
3 338 337 332
3 332 92 338
3 337 90 332
3 338 27 337
3 341 339 340
3 340 94 341
3 339 91 340
3 341 93 339
3 335 342 340
3 340 91 335
3 342 94 340
3 335 28 342
3 343 334 339
3 339 93 343
3 334 91 339
3 343 29 334
3 345 344 341
3 341 94 345
3 344 93 341
3 345 2 344
3 348 346 347
3 347 96 348
3 346 90 347
3 348 95 346
3 337 349 347
3 347 90 337
3 349 96 347
3 337 27 349
3 350 336 346
3 346 95 350
3 336 90 346
3 350 28 336
3 352 351 348
3 348 96 352
3 351 95 348
3 352 7 351
3 355 353 354
3 354 98 355
3 353 92 354
3 355 97 353
3 333 356 354
3 354 92 333
3 356 98 354
3 333 29 356
3 357 338 353
3 353 97 357
3 338 92 353
3 357 27 338
3 359 358 355
3 355 98 359
3 358 97 355
3 359 1 358
3 362 360 361
3 361 101 362
3 360 100 361
3 362 99 360
3 364 363 361
3 361 100 364
3 363 101 361
3 364 31 363
3 366 365 360
3 360 99 366
3 365 100 360
3 366 29 365
3 368 367 362
3 362 101 368
3 367 99 362
3 368 30 367
3 371 369 370
3 370 93 371
3 369 100 370
3 371 102 369
3 365 343 370
3 370 100 365
3 343 93 370
3 365 29 343
3 372 364 369
3 369 102 372
3 364 100 369
3 372 31 364
3 344 373 371
3 371 93 344
3 373 102 371
3 344 2 373
3 376 374 375
3 375 103 376
3 374 99 375
3 376 98 374
3 367 377 375
3 375 99 367
3 377 103 375
3 367 30 377
3 356 366 374
3 374 98 356
3 366 99 374
3 356 29 366
3 378 359 376
3 376 103 378
3 359 98 376
3 378 1 359
3 381 379 380
3 380 105 381
3 379 101 380
3 381 104 379
3 363 382 380
3 380 101 363
3 382 105 380
3 363 31 382
3 383 368 379
3 379 104 383
3 368 101 379
3 383 30 368
3 385 384 381
3 381 105 385
3 384 104 381
3 385 6 384
3 388 386 387
3 387 108 388
3 386 107 387
3 388 106 386
3 390 389 387
3 387 107 390
3 389 108 387
3 390 34 389
3 392 391 386
3 386 106 392
3 391 107 386
3 392 33 391
3 394 393 388
3 388 108 394
3 393 106 388
3 394 32 393
3 397 395 396
3 396 110 397
3 395 107 396
3 397 109 395
3 391 398 396
3 396 107 391
3 398 110 396
3 391 33 398
3 399 390 395
3 395 109 399
3 390 107 395
3 399 34 390
3 401 400 397
3 397 110 401
3 400 109 397
3 401 8 400
3 404 402 403
3 403 112 404
3 402 106 403
3 404 111 402
3 393 405 403
3 403 106 393
3 405 112 403
3 393 32 405
3 406 392 402
3 402 111 406
3 392 106 402
3 406 33 392
3 408 407 404
3 404 112 408
3 407 111 404
3 408 0 407
3 411 409 410
3 410 114 411
3 409 108 410
3 411 113 409
3 389 412 410
3 410 108 389
3 412 114 410
3 389 34 412
3 413 394 409
3 409 113 413
3 394 108 409
3 413 32 394
3 415 414 411
3 411 114 415
3 414 113 411
3 415 11 414
3 418 416 417
3 417 117 418
3 416 116 417
3 418 115 416
3 420 419 417
3 417 116 420
3 419 117 417
3 420 36 419
3 422 421 416
3 416 115 422
3 421 116 416
3 422 34 421
3 424 423 418
3 418 117 424
3 423 115 418
3 424 35 423
3 427 425 426
3 426 109 427
3 425 116 426
3 427 118 425
3 421 399 426
3 426 116 421
3 399 109 426
3 421 34 399
3 428 420 425
3 425 118 428
3 420 116 425
3 428 36 420
3 400 429 427
3 427 109 400
3 429 118 427
3 400 8 429
3 432 430 431
3 431 119 432
3 430 115 431
3 432 114 430
3 423 433 431
3 431 115 423
3 433 119 431
3 423 35 433
3 412 422 430
3 430 114 412
3 422 115 430
3 412 34 422
3 434 415 432
3 432 119 434
3 415 114 432
3 434 11 415
3 437 435 436
3 436 121 437
3 435 117 436
3 437 120 435
3 419 438 436
3 436 117 419
3 438 121 436
3 419 36 438
3 439 424 435
3 435 120 439
3 424 117 435
3 439 35 424
3 441 440 437
3 437 121 441
3 440 120 437
3 441 1 440
3 444 442 443
3 443 124 444
3 442 123 443
3 444 122 442
3 446 445 443
3 443 123 446
3 445 124 443
3 446 39 445
3 448 447 442
3 442 122 448
3 447 123 442
3 448 38 447
3 450 449 444
3 444 124 450
3 449 122 444
3 450 37 449
3 453 451 452
3 452 126 453
3 451 123 452
3 453 125 451
3 447 454 452
3 452 123 447
3 454 126 452
3 447 38 454
3 455 446 451
3 451 125 455
3 446 123 451
3 455 39 446
3 457 456 453
3 453 126 457
3 456 125 453
3 457 9 456
3 460 458 459
3 459 128 460
3 458 122 459
3 460 127 458
3 449 461 459
3 459 122 449
3 461 128 459
3 449 37 461
3 462 448 458
3 458 127 462
3 448 122 458
3 462 38 448
3 464 463 460
3 460 128 464
3 463 127 460
3 464 10 463
3 467 465 466
3 466 130 467
3 465 124 466
3 467 129 465
3 445 468 466
3 466 124 445
3 468 130 466
3 445 39 468
3 469 450 465
3 465 129 469
3 450 124 465
3 469 37 450
3 471 470 467
3 467 130 471
3 470 129 467
3 471 3 470
3 474 472 473
3 473 133 474
3 472 132 473
3 474 131 472
3 476 475 473
3 473 132 476
3 475 133 473
3 476 38 475
3 478 477 472
3 472 131 478
3 477 132 472
3 478 41 477
3 480 479 474
3 474 133 480
3 479 131 474
3 480 40 479
3 483 481 482
3 482 134 483
3 481 132 482
3 483 126 481
3 477 484 482
3 482 132 477
3 484 134 482
3 477 41 484
3 454 476 481
3 481 126 454
3 476 132 481
3 454 38 476
3 485 457 483
3 483 134 485
3 457 126 483
3 485 9 457
3 488 486 487
3 487 136 488
3 486 131 487
3 488 135 486
3 479 489 487
3 487 131 479
3 489 136 487
3 479 40 489
3 490 478 486
3 486 135 490
3 478 131 486
3 490 41 478
3 492 491 488
3 488 136 492
3 491 135 488
3 492 2 491
3 495 493 494
3 494 127 495
3 493 133 494
3 495 137 493
3 475 462 494
3 494 133 475
3 462 127 494
3 475 38 462
3 496 480 493
3 493 137 496
3 480 133 493
3 496 40 480
3 463 497 495
3 495 127 463
3 497 137 495
3 463 10 497
3 500 498 499
3 499 140 500
3 498 139 499
3 500 138 498
3 502 501 499
3 499 139 502
3 501 140 499
3 502 33 501
3 504 503 498
3 498 138 504
3 503 139 498
3 504 13 503
3 506 505 500
3 500 140 506
3 505 138 500
3 506 23 505
3 509 507 508
3 508 47 509
3 507 139 508
3 509 110 507
3 503 182 508
3 508 139 503
3 182 47 508
3 503 13 182
3 398 502 507
3 507 110 398
3 502 139 507
3 398 33 502
3 183 401 509
3 509 47 183
3 401 110 509
3 183 8 401
3 512 510 511
3 511 79 512
3 510 138 511
3 512 46 510
3 505 294 511
3 511 138 505
3 294 79 511
3 505 23 294
3 174 504 510
3 510 46 174
3 504 138 510
3 174 13 504
3 295 177 512
3 512 79 295
3 177 46 512
3 295 4 177
3 515 513 514
3 514 111 515
3 513 140 514
3 515 78 513
3 501 406 514
3 514 140 501
3 406 111 514
3 501 33 406
3 286 506 513
3 513 78 286
3 506 140 513
3 286 23 506
3 407 289 515
3 515 111 407
3 289 78 515
3 407 0 289
3 518 516 517
3 517 143 518
3 516 142 517
3 518 141 516
3 520 519 517
3 517 142 520
3 519 143 517
3 520 19 519
3 522 521 516
3 516 141 522
3 521 142 516
3 522 32 521
3 524 523 518
3 518 143 524
3 523 141 518
3 524 26 523
3 527 525 526
3 526 113 527
3 525 142 526
3 527 66 525
3 521 413 526
3 526 142 521
3 413 113 526
3 521 32 413
3 244 520 525
3 525 66 244
3 520 142 525
3 244 19 520
3 414 247 527
3 527 113 414
3 247 66 527
3 414 11 247
3 530 528 529
3 529 86 530
3 528 141 529
3 530 112 528
3 523 316 529
3 529 141 523
3 316 86 529
3 523 26 316
3 405 522 528
3 528 112 405
3 522 141 528
3 405 32 522
3 317 408 530
3 530 86 317
3 408 112 530
3 317 0 408
3 533 531 532
3 532 61 533
3 531 143 532
3 533 89 531
3 519 231 532
3 532 143 519
3 231 61 532
3 519 19 231
3 326 524 531
3 531 89 326
3 524 143 531
3 326 26 524
3 232 329 533
3 533 61 232
3 329 89 533
3 232 5 329
3 536 534 535
3 535 146 536
3 534 145 535
3 536 144 534
3 538 537 535
3 535 145 538
3 537 146 535
3 538 22 537
3 540 539 534
3 534 144 540
3 539 145 534
3 540 16 539
3 542 541 536
3 536 146 542
3 541 144 536
3 542 39 541
3 545 543 544
3 544 54 545
3 543 145 544
3 545 80 543
3 539 204 544
3 544 145 539
3 204 54 544
3 539 16 204
3 293 538 543
3 543 80 293
3 538 145 543
3 293 22 538
3 205 296 545
3 545 54 205
3 296 80 545
3 205 4 296
3 548 546 547
3 547 125 548
3 546 144 547
3 548 57 546
3 541 455 547
3 547 144 541
3 455 125 547
3 541 39 455
3 214 540 546
3 546 57 214
3 540 144 546
3 214 16 540
3 456 217 548
3 548 125 456
3 217 57 548
3 456 9 217
3 551 549 550
3 550 81 551
3 549 146 550
3 551 130 549
3 537 301 550
3 550 146 537
3 301 81 550
3 537 22 301
3 468 542 549
3 549 130 468
3 542 146 549
3 468 39 542
3 302 471 551
3 551 81 302
3 471 130 551
3 302 3 471
3 554 552 553
3 553 149 554
3 552 148 553
3 554 147 552
3 556 555 553
3 553 148 556
3 555 149 553
3 556 21 555
3 558 557 552
3 552 147 558
3 557 148 552
3 558 25 557
3 560 559 554
3 554 149 560
3 559 147 554
3 560 37 559
3 563 561 562
3 562 88 563
3 561 148 562
3 563 70 561
3 557 327 562
3 562 148 557
3 327 88 562
3 557 25 327
3 260 556 561
3 561 70 260
3 556 148 561
3 260 21 556
3 328 261 563
3 563 88 328
3 261 70 563
3 328 5 261
3 566 564 565
3 565 129 566
3 564 147 565
3 566 87 564
3 559 469 565
3 565 147 559
3 469 129 565
3 559 37 469
3 321 558 564
3 564 87 321
3 558 147 564
3 321 25 558
3 470 322 566
3 566 129 470
3 322 87 566
3 470 3 322
3 569 567 568
3 568 71 569
3 567 149 568
3 569 128 567
3 555 266 568
3 568 149 555
3 266 71 568
3 555 21 266
3 461 560 567
3 567 128 461
3 560 149 567
3 461 37 560
3 267 464 569
3 569 71 267
3 464 128 569
3 267 10 464
3 572 570 571
3 571 152 572
3 570 151 571
3 572 150 570
3 574 573 571
3 571 151 574
3 573 152 571
3 574 27 573
3 576 575 570
3 570 150 576
3 575 151 570
3 576 12 575
3 578 577 572
3 572 152 578
3 577 150 572
3 578 36 577
3 581 579 580
3 580 49 581
3 579 151 580
3 581 96 579
3 575 189 580
3 580 151 575
3 189 49 580
3 575 12 189
3 349 574 579
3 579 96 349
3 574 151 579
3 349 27 574
3 190 352 581
3 581 49 190
3 352 96 581
3 190 7 352
3 584 582 583
3 583 118 584
3 582 150 583
3 584 48 582
3 577 428 583
3 583 150 577
3 428 118 583
3 577 36 428
3 181 576 582
3 582 48 181
3 576 150 582
3 181 12 576
3 429 184 584
3 584 118 429
3 184 48 584
3 429 8 184
3 587 585 586
3 586 97 587
3 585 152 586
3 587 121 585
3 573 357 586
3 586 152 573
3 357 97 586
3 573 27 357
3 438 578 585
3 585 121 438
3 578 152 585
3 438 36 578
3 358 441 587
3 587 97 358
3 441 121 587
3 358 1 441
3 590 588 589
3 589 155 590
3 588 154 589
3 590 153 588
3 592 591 589
3 589 154 592
3 591 155 589
3 592 17 591
3 594 593 588
3 588 153 594
3 593 154 588
3 594 30 593
3 596 595 590
3 590 155 596
3 595 153 590
3 596 35 595
3 599 597 598
3 598 104 599
3 597 154 598
3 599 64 597
3 593 383 598
3 598 154 593
3 383 104 598
3 593 30 383
3 237 592 597
3 597 64 237
3 592 154 597
3 237 17 592
3 384 240 599
3 599 104 384
3 240 64 599
3 384 6 240
3 602 600 601
3 601 120 602
3 600 153 601
3 602 103 600
3 595 439 601
3 601 153 595
3 439 120 601
3 595 35 439
3 377 594 600
3 600 103 377
3 594 153 600
3 377 30 594
3 440 378 602
3 602 120 440
3 378 103 602
3 440 1 378
3 605 603 604
3 604 65 605
3 603 155 604
3 605 119 603
3 591 245 604
3 604 155 591
3 245 65 604
3 591 17 245
3 433 596 603
3 603 119 433
3 596 155 603
3 433 35 596
3 246 434 605
3 605 65 246
3 434 119 605
3 246 11 434
3 608 606 607
3 607 158 608
3 606 157 607
3 608 156 606
3 610 609 607
3 607 157 610
3 609 158 607
3 610 15 609
3 612 611 606
3 606 156 612
3 611 157 606
3 612 28 611
3 614 613 608
3 608 158 614
3 613 156 608
3 614 41 613
3 617 615 616
3 616 95 617
3 615 157 616
3 617 55 615
3 611 350 616
3 616 157 611
3 350 95 616
3 611 28 350
3 209 610 615
3 615 55 209
3 610 157 615
3 209 15 610
3 351 210 617
3 617 95 351
3 210 55 617
3 351 7 210
3 620 618 619
3 619 135 620
3 618 156 619
3 620 94 618
3 613 490 619
3 619 156 613
3 490 135 619
3 613 41 490
3 342 612 618
3 618 94 342
3 612 156 618
3 342 28 612
3 491 345 620
3 620 135 491
3 345 94 620
3 491 2 345
3 623 621 622
3 622 56 623
3 621 158 622
3 623 134 621
3 609 215 622
3 622 158 609
3 215 56 622
3 609 15 215
3 484 614 621
3 621 134 484
3 614 158 621
3 484 41 614
3 216 485 623
3 623 56 216
3 485 134 623
3 216 9 485
3 626 624 625
3 625 161 626
3 624 160 625
3 626 159 624
3 628 627 625
3 625 160 628
3 627 161 625
3 628 31 627
3 630 629 624
3 624 159 630
3 629 160 624
3 630 20 629
3 632 631 626
3 626 161 632
3 631 159 626
3 632 40 631
3 635 633 634
3 634 73 635
3 633 160 634
3 635 105 633
3 629 272 634
3 634 160 629
3 272 73 634
3 629 20 272
3 382 628 633
3 633 105 382
3 628 160 633
3 382 31 628
3 273 385 635
3 635 73 273
3 385 105 635
3 273 6 385
3 638 636 637
3 637 137 638
3 636 159 637
3 638 72 636
3 631 496 637
3 637 159 631
3 496 137 637
3 631 40 496
3 265 630 636
3 636 72 265
3 630 159 636
3 265 20 630
3 497 268 638
3 638 137 497
3 268 72 638
3 497 10 268
3 641 639 640
3 640 102 641
3 639 161 640
3 641 136 639
3 627 372 640
3 640 161 627
3 372 102 640
3 627 31 372
3 489 632 639
3 639 136 489
3 632 161 639
3 489 40 632
3 373 492 641
3 641 102 373
3 492 136 641
3 373 2 492
