# vtk DataFile Version 3.0
this file was written using fslvtkio
ASCII
DATASET POLYDATA
POINTS 642 float
79.8648 135.181 160.986
72.1025 135.771 161.072
73.7977 130.423 158.493
80.6537 128.91 158.965
79.9746 131.903 163.058
78.3263 132.588 156.441
74.0653 133.168 156.225
76.0432 133.082 161.574
76.7887 137.012 164.215
77.5566 127.92 160.139
76.7004 127.575 155.101
75.5275 137.891 159.68
76.0384 134.678 163.441
79.0066 134.494 164.607
77.9751 132.549 162.58
76.8222 130.54 160.783
79.0138 129.547 161.341
74.4774 135.778 157.986
76.2838 132.815 155.514
77.0437 135.228 158.056
74.6799 130.355 153.628
77.9186 129.937 154.776
81.0242 130.128 161.174
80.7794 133.942 162.727
80.6998 132.267 159.796
79.6635 130.56 157.201
79.0772 133.964 158.715
74.0436 134.478 161.676
74.5811 131.613 160.342
72.7519 133.047 159.596
72.4836 135.069 158.656
73.5544 131.485 156.727
78.0958 137.149 160.482
79.4484 137.138 163.365
75.7952 138.579 162.286
72.6021 137.881 160.542
73.2353 136.766 163.273
79.5512 127.197 156.907
77.0438 126.578 158.003
79.8849 126.791 160.364
74.747 128.431 156.289
75.5399 128.863 159.058
77.5432 134.673 164.062
78.5679 133.615 163.505
77.3869 133.817 162.936
79.0137 132.213 162.903
79.6814 133.253 163.796
77.9848 135.988 164.644
76.2857 135.887 164.091
76.2067 133.941 162.331
76.9736 132.819 162.063
77.5087 131.552 161.529
78.4521 131.154 162
77.9378 130.064 161.128
79.5367 130.793 162.16
76.3953 131.931 161.166
77.2039 129.191 160.387
78.2599 128.504 160.977
75.4739 134.238 156.794
76.5522 133.98 156.869
75.738 135.503 157.902
77.793 133.938 157.128
77.4445 132.666 155.856
75.0496 132.923 155.727
74.3379 134.428 157.088
74.8857 136.958 158.903
76.2622 136.607 158.985
76.606 130.159 153.658
77.268 131.629 154.426
75.6471 131.853 154.118
78.4581 131.393 155.34
77.3681 128.572 154.702
75.7812 128.732 154.069
74.3403 131.819 154.929
81.2385 132.113 161.966
80.7387 133.012 161.252
81.0986 131.187 160.532
80.2117 133.783 160.407
80.4566 134.722 161.853
80.5846 132.824 163.144
80.6918 131.069 162.362
80.8748 129.316 160.114
80.6059 130.453 159.309
80.2675 131.395 158.485
80.0334 133.114 159.14
79.6475 132.437 157.857
79.5608 134.753 159.826
80.1613 129.568 158.038
78.9965 131.563 156.656
78.8763 133.434 157.464
74.4552 133.315 160.833
73.6463 132.375 160.077
73.5662 134.061 160.64
73.3268 131.712 158.963
73.8831 130.816 159.629
75.3253 132.423 160.96
75.1863 133.936 161.571
72.8534 135.081 161.547
72.5779 134.586 160.314
72.401 133.942 159.029
73.0744 132.402 158.183
72.9585 133.309 157.642
73.6544 130.892 157.59
72.1595 135.592 159.964
73.3796 134.181 157.381
73.713 132.316 156.293
78.7419 137.455 161.891
77.8702 138.168 162.934
77.2124 138.226 161.441
76.2742 137.923 163.654
78.137 137.329 164.16
79.787 136.227 162.152
79.2549 136.271 160.76
76.8103 137.752 160.069
75.4832 138.559 160.848
73.7561 138.48 161.503
74.19 138.06 163.024
72.2523 137.745 162.256
75.0742 137.029 163.858
74.1138 138.298 159.951
71.7485 136.904 161.001
72.0887 136.227 162.255
78.4471 126.337 157.564
78.4606 126.162 159.387
79.9909 126.456 158.775
78.5219 127.118 160.378
77.4116 127.049 159.235
76.7106 126.729 156.386
78.0946 127.22 155.811
80.3268 127.88 158.075
80.769 127.629 159.603
75.0699 128.392 157.729
76.2344 127.504 158.368
75.8248 127.367 156.897
76.6699 128.361 159.503
74.4068 129.523 158.788
74.1666 129.512 157.476
75.5496 127.802 155.398
80.3411 134.424 163.959
79.5989 136.105 164.556
80.3278 135.532 163.248
78.59 135.572 159.561
77.4966 136.248 159.275
78.1567 134.779 158.359
79.4827 128.039 161.161
80.1604 129.536 161.431
80.6082 128.271 160.76
79.6415 128.763 156.871
79.0624 130.045 155.908
78.6811 128.474 155.697
74.6245 135.725 163.506
74.7824 134.557 162.727
73.2621 135.34 162.813
72.3954 136.708 159.604
73.3343 135.728 158.281
73.4708 137.213 159.132
74.808 129.989 159.88
75.6566 131.009 160.482
76.059 129.541 160.153
74.3301 129.043 154.684
73.8402 130.713 155.145
73.8878 129.858 156.243
78.1281 134.132 163.794
77.9893 133.741 163.207
77.4181 134.165 163.549
77.8229 133.328 162.656
78.299 133.133 162.983
78.6796 133.963 164.147
78.2583 134.604 164.395
76.7758 134.69 163.781
76.7207 134.204 163.263
78.841 132.979 163.196
79.1182 133.46 163.719
79.2796 132.666 163.412
79.3861 133.899 164.207
78.5144 132.376 162.757
79.4684 132.003 163.029
79.8238 132.442 163.465
77.805 135.342 164.397
76.9603 135.318 164.137
77.1337 135.891 164.403
76.1689 135.308 163.809
78.59 135.334 164.766
77.3629 136.621 164.473
76.5052 136.511 164.211
76.7989 133.884 162.634
77.3021 133.436 162.368
76.6863 133.499 162.13
77.4602 132.707 162.336
76.1266 134.287 162.88
76.1258 133.595 161.873
76.4766 132.953 161.822
78.0016 131.35 161.792
78.2148 130.611 161.554
77.7553 130.869 161.316
78.4618 129.805 161.254
78.7034 130.346 161.693
78.2281 131.838 162.314
77.7091 132.043 162.096
77.2133 131.064 161.114
77.3701 130.295 160.988
78.9901 130.955 162.073
78.6876 131.656 162.497
79.2563 131.512 162.497
79.2502 130.163 161.73
79.7833 131.37 162.589
77.2173 132.208 161.848
76.9759 131.748 161.307
76.7315 132.388 161.584
76.6468 131.273 160.936
76.1735 132.481 161.43
77.5851 129.599 160.785
78.147 129.302 160.971
77.7516 128.886 160.697
78.6532 128.981 161.187
77.0134 129.857 160.574
77.343 128.575 160.291
77.8606 128.172 160.578
76.0479 134.104 156.775
76.1638 134.687 157.427
75.5894 134.864 157.358
76.3995 135.348 157.918
76.7186 134.618 157.492
76.474 133.478 156.071
75.877 133.508 156.123
74.9955 135.046 157.427
75.1338 135.654 157.919
77.1767 133.995 156.994
77.0363 133.486 156.218
77.6779 133.485 156.393
76.9163 132.773 155.58
77.3242 134.539 157.642
78.1968 133.38 156.68
77.9531 132.646 156.137
75.2799 133.651 156.221
74.893 134.38 156.925
74.7295 133.774 156.391
74.4092 135.151 157.54
75.6661 132.866 155.533
74.5426 133.042 155.994
74.1547 133.797 156.636
75.2983 136.194 158.421
75.9693 136.026 158.418
75.564 136.758 158.903
76.574 135.824 158.55
74.6806 136.372 158.45
75.1813 137.497 159.337
75.8679 137.291 159.382
77.0229 130.945 153.854
76.4804 131.808 154.178
76.1231 131.019 153.59
76.0249 132.312 154.829
76.7612 132.265 154.878
77.7218 130.79 154.287
77.3145 130.061 154.174
75.6904 130.23 153.398
75.1808 131.099 153.663
77.3879 132.111 155.15
77.901 131.475 154.832
77.9244 132.031 155.498
78.3289 130.703 154.853
78.3702 131.944 155.932
76.9636 129.35 154.07
76.175 129.378 153.57
76.5732 128.629 154.302
75.1771 129.432 153.546
77.6188 129.246 154.746
77.0567 127.973 154.802
76.2897 128.11 154.597
74.8808 131.833 154.391
75.3534 132.361 154.901
74.6959 132.377 155.292
74.3366 131.199 154.079
74.275 132.432 155.695
81.0793 132.597 161.604
81.0852 132.169 160.905
81.2136 131.648 161.256
80.9902 131.735 160.168
80.7622 132.64 160.527
80.8073 133.504 161.976
80.9061 132.999 162.325
81.1986 131.185 161.565
81.1404 130.672 160.885
80.4673 133.413 160.841
80.6406 133.908 161.55
80.3864 134.238 161.103
80.6886 134.397 162.306
80.4783 133.073 160.125
80.0837 134.541 160.684
80.1216 134.934 161.406
80.9446 132.458 162.623
81.1055 131.569 162.24
80.7443 131.895 162.761
80.9256 130.669 161.786
80.768 133.392 162.992
80.3607 132.267 163.2
80.3174 131.502 162.728
80.9661 130.252 160.304
80.9562 130.812 159.896
80.7783 129.948 159.709
80.7563 131.352 159.498
81.0335 129.699 160.652
80.8085 129.059 159.536
80.6208 129.636 159.093
80.2328 132.276 158.793
79.8638 132.815 158.493
79.9824 131.904 158.136
79.4594 133.286 158.264
79.6791 133.57 158.864
80.3565 132.664 159.476
80.5035 131.822 159.137
79.9663 130.978 157.852
79.6792 131.474 157.518
79.6929 133.824 159.503
80.0793 133.407 159.797
79.8351 134.162 160.091
79.2814 134.324 159.27
79.7371 135.03 160.404
80.502 130.941 158.874
80.1521 130.47 158.256
80.3595 130.026 158.674
79.9806 130.074 157.573
80.4186 129.194 158.482
79.3581 132.001 157.25
79.2684 132.932 157.653
78.9983 132.507 157.069
79.0453 133.749 158.069
79.3373 131.082 156.914
78.6715 132.099 156.51
78.5898 132.998 156.931
74.0569 132.873 160.463
73.5824 133.149 160.304
74.0342 133.699 160.732
73.1355 133.515 160.147
73.1629 132.71 159.856
74.1306 132.034 160.248
74.4769 132.472 160.597
74.4087 134.074 161.126
73.8809 134.374 161.105
73.3935 132.033 159.594
73.8077 131.602 159.838
73.6356 131.307 159.306
74.2747 131.176 160.005
72.9933 132.362 159.27
73.5252 130.988 158.727
73.7088 130.542 159.089
74.8853 132.874 160.9
74.8757 133.717 161.15
75.2822 133.238 161.215
74.6485 134.197 161.622
74.9191 132.044 160.71
75.7058 132.754 161.276
75.6585 133.539 161.533
73.345 134.634 161.042
73.0718 134.333 160.506
72.8062 134.874 160.919
72.6917 133.867 159.914
73.4296 134.78 161.661
72.4294 135.412 161.359
72.3091 135.139 160.69
72.6533 133.119 158.59
72.9996 132.814 157.889
72.5778 133.61 158.314
73.2948 132.384 157.183
73.3772 132.009 157.463
72.763 132.69 158.919
72.5489 133.471 159.276
72.3926 134.487 158.826
72.6035 134.173 158.088
73.4112 131.663 157.839
73.1545 132.035 158.576
73.4533 131.314 158.292
73.5732 131.176 157.138
73.7652 130.656 158.067
72.3692 134.244 159.71
72.2634 134.727 159.475
72.2272 134.965 160.093
72.3349 135.294 159.292
72.0215 135.779 160.527
73.082 133.822 157.486
73.3993 132.877 157.029
73.544 133.305 156.93
73.6356 131.887 156.439
72.8101 134.689 157.912
73.7715 133.619 156.824
73.8416 132.815 156.209
78.3009 137.826 162.434
77.5943 138.386 162.162
78.0267 137.888 161.654
76.6715 138.617 161.843
76.8791 138.5 162.59
78.6288 137.69 163.175
79.0576 137.387 162.661
78.4208 137.404 161.188
77.7896 137.797 160.938
77.1078 138.167 163.355
78.0806 137.825 163.643
77.3071 137.759 163.941
78.8714 137.339 163.85
76.0002 138.366 162.998
76.5685 137.53 164.045
77.4577 137.214 164.273
79.3713 136.935 162.067
79.0951 136.965 161.305
79.4902 136.318 161.453
78.6888 136.732 160.649
79.6979 136.741 162.768
79.8626 135.666 161.536
79.6366 135.746 160.872
76.9903 138.057 160.741
76.4066 138.481 161.162
76.2381 138.246 160.491
75.635 138.679 161.534
77.4425 137.487 160.282
76.1724 137.919 159.811
75.5078 138.315 160.154
73.898 138.313 162.318
73.1298 137.994 162.696
72.9223 138.221 161.894
72.6973 137.31 162.899
73.6062 137.519 163.251
74.9416 138.347 162.675
74.7213 138.538 161.94
73.0453 138.266 161.052
72.2884 137.948 161.4
74.5891 137.596 163.544
75.2578 138.076 163.308
75.6184 137.591 163.837
74.1283 136.91 163.578
75.9562 137.034 164.085
74.6532 138.648 161.132
73.8598 138.41 160.728
74.6461 138.359 160.501
73.3253 138.186 160.212
74.873 138.122 159.794
71.7903 137.377 161.642
71.9844 136.983 162.378
71.7553 136.618 161.704
72.48 136.396 162.859
71.9864 137.476 160.814
71.9187 136.346 161.105
72.0281 136.015 161.663
78.4997 126.16 158.505
79.283 126.118 159.148
79.257 126.312 158.175
79.9968 126.413 159.71
79.2155 126.377 159.906
77.8118 126.367 158.654
77.703 126.297 157.845
79.1109 126.648 157.181
79.7818 126.779 157.785
78.5503 126.599 159.939
77.8287 126.532 159.316
77.9369 126.977 159.85
77.2452 126.746 158.688
79.1958 126.823 160.451
77.9913 127.534 160.199
77.5141 127.495 159.724
77.6018 126.507 156.957
78.3056 126.689 156.641
77.4795 126.847 156.1
78.8749 127.123 156.342
76.8923 126.635 157.222
76.6663 127.184 155.629
77.3084 127.379 155.416
80.2655 127.131 158.363
80.445 126.971 159.252
80.5998 127.645 158.816
80.4472 127.124 160.03
79.9454 127.513 157.539
80.5365 128.407 158.56
80.7416 128.267 159.245
75.688 127.924 157.999
76.0505 127.381 157.642
75.4976 127.842 157.225
76.3812 126.956 157.434
76.6066 127.011 158.139
75.891 128.192 158.664
75.3631 128.586 158.388
74.9306 128.336 157.001
75.2587 127.842 156.52
76.7959 127.248 158.797
76.4193 127.93 158.998
77.083 127.747 159.273
76.1391 128.611 159.24
77.1792 128.162 159.807
74.6967 128.951 158.303
74.4841 128.85 157.577
74.2704 129.49 158.16
74.2961 128.915 156.871
74.971 129.193 158.889
73.973 129.911 158.644
73.9155 130.023 158.04
75.5805 127.496 156.172
76.1233 126.972 156.661
76.0112 127.216 155.868
75.1112 128.064 155.795
76.0963 127.625 155.187
80.0483 135.276 164.351
80.1446 135.952 163.977
80.4397 135.002 163.641
80.0368 136.446 163.402
79.6394 136.75 164.05
79.3171 135.36 164.709
79.773 134.461 164.458
80.6646 134.233 163.37
80.6432 134.743 162.999
78.9174 136.823 164.405
78.8756 136.138 164.776
78.1003 136.752 164.432
80.0201 133.813 163.957
80.5086 133.671 163.552
80.235 133.032 163.592
80.4529 135.173 162.552
80.1187 135.986 162.749
80.1158 135.44 162.06
78.1038 135.963 159.42
77.8745 135.523 158.791
78.4364 135.255 158.9
77.636 135.055 158.213
77.2022 135.664 158.7
77.7893 136.792 159.877
78.3352 136.398 160.07
78.8994 134.843 159.081
78.5931 134.373 158.538
76.9034 136.455 159.095
77.134 137.017 159.703
76.5447 137.232 159.491
78.9242 135.973 160.146
79.1476 135.205 159.662
79.3636 135.498 160.264
78.4489 134.075 157.937
77.9069 134.371 157.775
78.3293 133.745 157.32
79.8287 128.716 161.412
80.409 128.837 161.262
80.1575 128 161.133
80.8776 129.214 161.014
80.6447 129.754 161.367
79.555 129.467 161.433
79.225 128.794 161.382
79.6978 127.338 160.904
80.3657 127.502 160.646
80.4407 130.308 161.814
79.8559 130.162 161.77
80.1355 130.833 162.285
78.8616 128.216 161.147
79.0338 127.441 160.924
78.414 127.78 160.72
80.6502 127.902 160.233
80.7803 128.733 160.43
80.8314 128.426 159.869
79.2949 129.401 156.405
78.8738 129.221 155.768
79.188 128.583 156.294
78.3008 129.178 155.201
78.524 129.947 155.323
79.4345 130.253 156.543
79.7007 129.681 156.963
79.5905 127.957 156.867
79.0835 127.839 156.288
78.8222 130.737 155.494
79.1554 130.843 156.24
78.7585 131.391 156.031
79.9663 129.135 157.448
79.9573 128.269 157.436
80.3442 128.725 157.967
78.5216 127.752 155.67
78.0277 128.506 155.176
77.7834 127.845 155.183
74.6557 135.117 163.194
73.9915 134.904 162.816
73.8558 135.567 163.185
73.588 134.807 162.297
74.3264 134.518 162.247
75.3945 134.669 163.097
75.3344 135.253 163.537
73.86 136.174 163.444
73.0955 135.935 163.117
75.043 134.266 162.106
75.5341 134.298 162.566
75.6537 133.944 161.942
75.3577 135.747 163.887
74.7398 136.32 163.771
75.5593 136.446 164.109
72.5273 135.747 162.657
72.9552 135.188 162.21
72.3969 135.59 162.001
72.8444 136.269 158.921
73.3701 136.481 158.756
72.8378 137.073 159.33
74.0097 136.493 158.577
73.8926 135.823 158.086
72.8572 135.493 158.468
72.4857 135.846 159.102
72.3211 137.426 159.983
72.9873 137.706 159.737
73.8472 135.129 157.663
73.2971 134.994 157.808
73.8152 134.349 157.26
72.2703 136.189 159.828
71.9691 136.944 160.297
71.9281 136.377 160.452
73.7289 137.851 159.482
74.1963 137.093 159.025
74.5242 137.774 159.309
75.2179 130.508 160.255
75.8126 130.259 160.376
75.4483 129.744 160.002
76.4555 130.032 160.451
76.2671 130.818 160.598
75.0806 131.267 160.418
74.6857 130.783 160.133
75.1827 129.402 159.479
75.8219 129.207 159.577
76.0533 131.491 160.787
75.5076 131.751 160.671
75.8671 132.133 161.021
74.2656 130.362 159.826
74.5238 129.664 159.412
74.0478 130.06 159.266
76.3872 128.996 159.756
76.6716 129.396 160.244
76.9702 128.793 159.935
73.8932 129.843 154.752
73.7699 130.304 155.722
73.8899 129.369 155.491
73.7944 130.678 156.429
73.7896 131.027 155.972
73.9696 130.489 154.2
74.3119 129.581 153.926
74.514 128.682 155.514
74.1079 129.075 156.211
73.8795 131.486 155.701
73.982 131.304 154.863
74.0134 131.954 155.62
74.9858 128.845 154.205
75.0161 128.389 154.995
75.6334 128.239 154.717
74.0415 129.631 156.839
73.8676 130.418 156.924
73.931 130.21 157.46
POLYGONS 1280  5120
3 164 162 163
3 163 44 164
3 162 43 163
3 164 42 162
3 166 165 163
3 163 43 166
3 165 44 163
3 166 14 165
3 168 167 162
3 162 42 168
3 167 43 162
3 168 13 167
3 170 169 164
3 164 44 170
3 169 42 164
3 170 12 169
3 173 171 172
3 172 46 173
3 171 43 172
3 173 45 171
3 167 174 172
3 172 43 167
3 174 46 172
3 167 13 174
3 175 166 171
3 171 45 175
3 166 43 171
3 175 14 166
3 177 176 173
3 173 46 177
3 176 45 173
3 177 4 176
3 180 178 179
3 179 48 180
3 178 42 179
3 180 47 178
3 169 181 179
3 179 42 169
3 181 48 179
3 169 12 181
3 182 168 178
3 178 47 182
3 168 42 178
3 182 13 168
3 184 183 180
3 180 48 184
3 183 47 180
3 184 8 183
3 187 185 186
3 186 50 187
3 185 44 186
3 187 49 185
3 165 188 186
3 186 44 165
3 188 50 186
3 165 14 188
3 189 170 185
3 185 49 189
3 170 44 185
3 189 12 170
3 191 190 187
3 187 50 191
3 190 49 187
3 191 7 190
3 194 192 193
3 193 53 194
3 192 52 193
3 194 51 192
3 196 195 193
3 193 52 196
3 195 53 193
3 196 16 195
3 198 197 192
3 192 51 198
3 197 52 192
3 198 14 197
3 200 199 194
3 194 53 200
3 199 51 194
3 200 15 199
3 203 201 202
3 202 45 203
3 201 52 202
3 203 54 201
3 197 175 202
3 202 52 197
3 175 45 202
3 197 14 175
3 204 196 201
3 201 54 204
3 196 52 201
3 204 16 196
3 176 205 203
3 203 45 176
3 205 54 203
3 176 4 205
3 208 206 207
3 207 55 208
3 206 51 207
3 208 50 206
3 199 209 207
3 207 51 199
3 209 55 207
3 199 15 209
3 188 198 206
3 206 50 188
3 198 51 206
3 188 14 198
3 210 191 208
3 208 55 210
3 191 50 208
3 210 7 191
3 213 211 212
3 212 57 213
3 211 53 212
3 213 56 211
3 195 214 212
3 212 53 195
3 214 57 212
3 195 16 214
3 215 200 211
3 211 56 215
3 200 53 211
3 215 15 200
3 217 216 213
3 213 57 217
3 216 56 213
3 217 9 216
3 220 218 219
3 219 60 220
3 218 59 219
3 220 58 218
3 222 221 219
3 219 59 222
3 221 60 219
3 222 19 221
3 224 223 218
3 218 58 224
3 223 59 218
3 224 18 223
3 226 225 220
3 220 60 226
3 225 58 220
3 226 17 225
3 229 227 228
3 228 62 229
3 227 59 228
3 229 61 227
3 223 230 228
3 228 59 223
3 230 62 228
3 223 18 230
3 231 222 227
3 227 61 231
3 222 59 227
3 231 19 222
3 233 232 229
3 229 62 233
3 232 61 229
3 233 5 232
3 236 234 235
3 235 64 236
3 234 58 235
3 236 63 234
3 225 237 235
3 235 58 225
3 237 64 235
3 225 17 237
3 238 224 234
3 234 63 238
3 224 58 234
3 238 18 224
3 240 239 236
3 236 64 240
3 239 63 236
3 240 6 239
3 243 241 242
3 242 66 243
3 241 60 242
3 243 65 241
3 221 244 242
3 242 60 221
3 244 66 242
3 221 19 244
3 245 226 241
3 241 65 245
3 226 60 241
3 245 17 226
3 247 246 243
3 243 66 247
3 246 65 243
3 247 11 246
3 250 248 249
3 249 69 250
3 248 68 249
3 250 67 248
3 252 251 249
3 249 68 252
3 251 69 249
3 252 18 251
3 254 253 248
3 248 67 254
3 253 68 248
3 254 21 253
3 256 255 250
3 250 69 256
3 255 67 250
3 256 20 255
3 259 257 258
3 258 70 259
3 257 68 258
3 259 62 257
3 253 260 258
3 258 68 253
3 260 70 258
3 253 21 260
3 230 252 257
3 257 62 230
3 252 68 257
3 230 18 252
3 261 233 259
3 259 70 261
3 233 62 259
3 261 5 233
3 264 262 263
3 263 72 264
3 262 67 263
3 264 71 262
3 255 265 263
3 263 67 255
3 265 72 263
3 255 20 265
3 266 254 262
3 262 71 266
3 254 67 262
3 266 21 254
3 268 267 264
3 264 72 268
3 267 71 264
3 268 10 267
3 271 269 270
3 270 63 271
3 269 69 270
3 271 73 269
3 251 238 270
3 270 69 251
3 238 63 270
3 251 18 238
3 272 256 269
3 269 73 272
3 256 69 269
3 272 20 256
3 239 273 271
3 271 63 239
3 273 73 271
3 239 6 273
3 276 274 275
3 275 76 276
3 274 75 275
3 276 74 274
3 278 277 275
3 275 75 278
3 277 76 275
3 278 24 277
3 280 279 274
3 274 74 280
3 279 75 274
3 280 23 279
3 282 281 276
3 276 76 282
3 281 74 276
3 282 22 281
3 285 283 284
3 284 78 285
3 283 75 284
3 285 77 283
3 279 286 284
3 284 75 279
3 286 78 284
3 279 23 286
3 287 278 283
3 283 77 287
3 278 75 283
3 287 24 278
3 289 288 285
3 285 78 289
3 288 77 285
3 289 0 288
3 292 290 291
3 291 80 292
3 290 74 291
3 292 79 290
3 281 293 291
3 291 74 281
3 293 80 291
3 281 22 293
3 294 280 290
3 290 79 294
3 280 74 290
3 294 23 280
3 296 295 292
3 292 80 296
3 295 79 292
3 296 4 295
3 299 297 298
3 298 82 299
3 297 76 298
3 299 81 297
3 277 300 298
3 298 76 277
3 300 82 298
3 277 24 300
3 301 282 297
3 297 81 301
3 282 76 297
3 301 22 282
3 303 302 299
3 299 82 303
3 302 81 299
3 303 3 302
3 306 304 305
3 305 85 306
3 304 84 305
3 306 83 304
3 308 307 305
3 305 84 308
3 307 85 305
3 308 26 307
3 310 309 304
3 304 83 310
3 309 84 304
3 310 24 309
3 312 311 306
3 306 85 312
3 311 83 306
3 312 25 311
3 315 313 314
3 314 77 315
3 313 84 314
3 315 86 313
3 309 287 314
3 314 84 309
3 287 77 314
3 309 24 287
3 316 308 313
3 313 86 316
3 308 84 313
3 316 26 308
3 288 317 315
3 315 77 288
3 317 86 315
3 288 0 317
3 320 318 319
3 319 87 320
3 318 83 319
3 320 82 318
3 311 321 319
3 319 83 311
3 321 87 319
3 311 25 321
3 300 310 318
3 318 82 300
3 310 83 318
3 300 24 310
3 322 303 320
3 320 87 322
3 303 82 320
3 322 3 303
3 325 323 324
3 324 89 325
3 323 85 324
3 325 88 323
3 307 326 324
3 324 85 307
3 326 89 324
3 307 26 326
3 327 312 323
3 323 88 327
3 312 85 323
3 327 25 312
3 329 328 325
3 325 89 329
3 328 88 325
3 329 5 328
3 332 330 331
3 331 92 332
3 330 91 331
3 332 90 330
3 334 333 331
3 331 91 334
3 333 92 331
3 334 29 333
3 336 335 330
3 330 90 336
3 335 91 330
3 336 28 335
3 338 337 332
3 332 92 338
3 337 90 332
3 338 27 337
3 341 339 340
3 340 94 341
3 339 91 340
3 341 93 339
3 335 342 340
3 340 91 335
3 342 94 340
3 335 28 342
3 343 334 339
3 339 93 343
3 334 91 339
3 343 29 334
3 345 344 341
3 341 94 345
3 344 93 341
3 345 2 344
3 348 346 347
3 347 96 348
3 346 90 347
3 348 95 346
3 337 349 347
3 347 90 337
3 349 96 347
3 337 27 349
3 350 336 346
3 346 95 350
3 336 90 346
3 350 28 336
3 352 351 348
3 348 96 352
3 351 95 348
3 352 7 351
3 355 353 354
3 354 98 355
3 353 92 354
3 355 97 353
3 333 356 354
3 354 92 333
3 356 98 354
3 333 29 356
3 357 338 353
3 353 97 357
3 338 92 353
3 357 27 338
3 359 358 355
3 355 98 359
3 358 97 355
3 359 1 358
3 362 360 361
3 361 101 362
3 360 100 361
3 362 99 360
3 364 363 361
3 361 100 364
3 363 101 361
3 364 31 363
3 366 365 360
3 360 99 366
3 365 100 360
3 366 29 365
3 368 367 362
3 362 101 368
3 367 99 362
3 368 30 367
3 371 369 370
3 370 93 371
3 369 100 370
3 371 102 369
3 365 343 370
3 370 100 365
3 343 93 370
3 365 29 343
3 372 364 369
3 369 102 372
3 364 100 369
3 372 31 364
3 344 373 371
3 371 93 344
3 373 102 371
3 344 2 373
3 376 374 375
3 375 103 376
3 374 99 375
3 376 98 374
3 367 377 375
3 375 99 367
3 377 103 375
3 367 30 377
3 356 366 374
3 374 98 356
3 366 99 374
3 356 29 366
3 378 359 376
3 376 103 378
3 359 98 376
3 378 1 359
3 381 379 380
3 380 105 381
3 379 101 380
3 381 104 379
3 363 382 380
3 380 101 363
3 382 105 380
3 363 31 382
3 383 368 379
3 379 104 383
3 368 101 379
3 383 30 368
3 385 384 381
3 381 105 385
3 384 104 381
3 385 6 384
3 388 386 387
3 387 108 388
3 386 107 387
3 388 106 386
3 390 389 387
3 387 107 390
3 389 108 387
3 390 34 389
3 392 391 386
3 386 106 392
3 391 107 386
3 392 33 391
3 394 393 388
3 388 108 394
3 393 106 388
3 394 32 393
3 397 395 396
3 396 110 397
3 395 107 396
3 397 109 395
3 391 398 396
3 396 107 391
3 398 110 396
3 391 33 398
3 399 390 395
3 395 109 399
3 390 107 395
3 399 34 390
3 401 400 397
3 397 110 401
3 400 109 397
3 401 8 400
3 404 402 403
3 403 112 404
3 402 106 403
3 404 111 402
3 393 405 403
3 403 106 393
3 405 112 403
3 393 32 405
3 406 392 402
3 402 111 406
3 392 106 402
3 406 33 392
3 408 407 404
3 404 112 408
3 407 111 404
3 408 0 407
3 411 409 410
3 410 114 411
3 409 108 410
3 411 113 409
3 389 412 410
3 410 108 389
3 412 114 410
3 389 34 412
3 413 394 409
3 409 113 413
3 394 108 409
3 413 32 394
3 415 414 411
3 411 114 415
3 414 113 411
3 415 11 414
3 418 416 417
3 417 117 418
3 416 116 417
3 418 115 416
3 420 419 417
3 417 116 420
3 419 117 417
3 420 36 419
3 422 421 416
3 416 115 422
3 421 116 416
3 422 34 421
3 424 423 418
3 418 117 424
3 423 115 418
3 424 35 423
3 427 425 426
3 426 109 427
3 425 116 426
3 427 118 425
3 421 399 426
3 426 116 421
3 399 109 426
3 421 34 399
3 428 420 425
3 425 118 428
3 420 116 425
3 428 36 420
3 400 429 427
3 427 109 400
3 429 118 427
3 400 8 429
3 432 430 431
3 431 119 432
3 430 115 431
3 432 114 430
3 423 433 431
3 431 115 423
3 433 119 431
3 423 35 433
3 412 422 430
3 430 114 412
3 422 115 430
3 412 34 422
3 434 415 432
3 432 119 434
3 415 114 432
3 434 11 415
3 437 435 436
3 436 121 437
3 435 117 436
3 437 120 435
3 419 438 436
3 436 117 419
3 438 121 436
3 419 36 438
3 439 424 435
3 435 120 439
3 424 117 435
3 439 35 424
3 441 440 437
3 437 121 441
3 440 120 437
3 441 1 440
3 444 442 443
3 443 124 444
3 442 123 443
3 444 122 442
3 446 445 443
3 443 123 446
3 445 124 443
3 446 39 445
3 448 447 442
3 442 122 448
3 447 123 442
3 448 38 447
3 450 449 444
3 444 124 450
3 449 122 444
3 450 37 449
3 453 451 452
3 452 126 453
3 451 123 452
3 453 125 451
3 447 454 452
3 452 123 447
3 454 126 452
3 447 38 454
3 455 446 451
3 451 125 455
3 446 123 451
3 455 39 446
3 457 456 453
3 453 126 457
3 456 125 453
3 457 9 456
3 460 458 459
3 459 128 460
3 458 122 459
3 460 127 458
3 449 461 459
3 459 122 449
3 461 128 459
3 449 37 461
3 462 448 458
3 458 127 462
3 448 122 458
3 462 38 448
3 464 463 460
3 460 128 464
3 463 127 460
3 464 10 463
3 467 465 466
3 466 130 467
3 465 124 466
3 467 129 465
3 445 468 466
3 466 124 445
3 468 130 466
3 445 39 468
3 469 450 465
3 465 129 469
3 450 124 465
3 469 37 450
3 471 470 467
3 467 130 471
3 470 129 467
3 471 3 470
3 474 472 473
3 473 133 474
3 472 132 473
3 474 131 472
3 476 475 473
3 473 132 476
3 475 133 473
3 476 38 475
3 478 477 472
3 472 131 478
3 477 132 472
3 478 41 477
3 480 479 474
3 474 133 480
3 479 131 474
3 480 40 479
3 483 481 482
3 482 134 483
3 481 132 482
3 483 126 481
3 477 484 482
3 482 132 477
3 484 134 482
3 477 41 484
3 454 476 481
3 481 126 454
3 476 132 481
3 454 38 476
3 485 457 483
3 483 134 485
3 457 126 483
3 485 9 457
3 488 486 487
3 487 136 488
3 486 131 487
3 488 135 486
3 479 489 487
3 487 131 479
3 489 136 487
3 479 40 489
3 490 478 486
3 486 135 490
3 478 131 486
3 490 41 478
3 492 491 488
3 488 136 492
3 491 135 488
3 492 2 491
3 495 493 494
3 494 127 495
3 493 133 494
3 495 137 493
3 475 462 494
3 494 133 475
3 462 127 494
3 475 38 462
3 496 480 493
3 493 137 496
3 480 133 493
3 496 40 480
3 463 497 495
3 495 127 463
3 497 137 495
3 463 10 497
3 500 498 499
3 499 140 500
3 498 139 499
3 500 138 498
3 502 501 499
3 499 139 502
3 501 140 499
3 502 33 501
3 504 503 498
3 498 138 504
3 503 139 498
3 504 13 503
3 506 505 500
3 500 140 506
3 505 138 500
3 506 23 505
3 509 507 508
3 508 47 509
3 507 139 508
3 509 110 507
3 503 182 508
3 508 139 503
3 182 47 508
3 503 13 182
3 398 502 507
3 507 110 398
3 502 139 507
3 398 33 502
3 183 401 509
3 509 47 183
3 401 110 509
3 183 8 401
3 512 510 511
3 511 79 512
3 510 138 511
3 512 46 510
3 505 294 511
3 511 138 505
3 294 79 511
3 505 23 294
3 174 504 510
3 510 46 174
3 504 138 510
3 174 13 504
3 295 177 512
3 512 79 295
3 177 46 512
3 295 4 177
3 515 513 514
3 514 111 515
3 513 140 514
3 515 78 513
3 501 406 514
3 514 140 501
3 406 111 514
3 501 33 406
3 286 506 513
3 513 78 286
3 506 140 513
3 286 23 506
3 407 289 515
3 515 111 407
3 289 78 515
3 407 0 289
3 518 516 517
3 517 143 518
3 516 142 517
3 518 141 516
3 520 519 517
3 517 142 520
3 519 143 517
3 520 19 519
3 522 521 516
3 516 141 522
3 521 142 516
3 522 32 521
3 524 523 518
3 518 143 524
3 523 141 518
3 524 26 523
3 527 525 526
3 526 113 527
3 525 142 526
3 527 66 525
3 521 413 526
3 526 142 521
3 413 113 526
3 521 32 413
3 244 520 525
3 525 66 244
3 520 142 525
3 244 19 520
3 414 247 527
3 527 113 414
3 247 66 527
3 414 11 247
3 530 528 529
3 529 86 530
3 528 141 529
3 530 112 528
3 523 316 529
3 529 141 523
3 316 86 529
3 523 26 316
3 405 522 528
3 528 112 405
3 522 141 528
3 405 32 522
3 317 408 530
3 530 86 317
3 408 112 530
3 317 0 408
3 533 531 532
3 532 61 533
3 531 143 532
3 533 89 531
3 519 231 532
3 532 143 519
3 231 61 532
3 519 19 231
3 326 524 531
3 531 89 326
3 524 143 531
3 326 26 524
3 232 329 533
3 533 61 232
3 329 89 533
3 232 5 329
3 536 534 535
3 535 146 536
3 534 145 535
3 536 144 534
3 538 537 535
3 535 145 538
3 537 146 535
3 538 22 537
3 540 539 534
3 534 144 540
3 539 145 534
3 540 16 539
3 542 541 536
3 536 146 542
3 541 144 536
3 542 39 541
3 545 543 544
3 544 54 545
3 543 145 544
3 545 80 543
3 539 204 544
3 544 145 539
3 204 54 544
3 539 16 204
3 293 538 543
3 543 80 293
3 538 145 543
3 293 22 538
3 205 296 545
3 545 54 205
3 296 80 545
3 205 4 296
3 548 546 547
3 547 125 548
3 546 144 547
3 548 57 546
3 541 455 547
3 547 144 541
3 455 125 547
3 541 39 455
3 214 540 546
3 546 57 214
3 540 144 546
3 214 16 540
3 456 217 548
3 548 125 456
3 217 57 548
3 456 9 217
3 551 549 550
3 550 81 551
3 549 146 550
3 551 130 549
3 537 301 550
3 550 146 537
3 301 81 550
3 537 22 301
3 468 542 549
3 549 130 468
3 542 146 549
3 468 39 542
3 302 471 551
3 551 81 302
3 471 130 551
3 302 3 471
3 554 552 553
3 553 149 554
3 552 148 553
3 554 147 552
3 556 555 553
3 553 148 556
3 555 149 553
3 556 21 555
3 558 557 552
3 552 147 558
3 557 148 552
3 558 25 557
3 560 559 554
3 554 149 560
3 559 147 554
3 560 37 559
3 563 561 562
3 562 88 563
3 561 148 562
3 563 70 561
3 557 327 562
3 562 148 557
3 327 88 562
3 557 25 327
3 260 556 561
3 561 70 260
3 556 148 561
3 260 21 556
3 328 261 563
3 563 88 328
3 261 70 563
3 328 5 261
3 566 564 565
3 565 129 566
3 564 147 565
3 566 87 564
3 559 469 565
3 565 147 559
3 469 129 565
3 559 37 469
3 321 558 564
3 564 87 321
3 558 147 564
3 321 25 558
3 470 322 566
3 566 129 470
3 322 87 566
3 470 3 322
3 569 567 568
3 568 71 569
3 567 149 568
3 569 128 567
3 555 266 568
3 568 149 555
3 266 71 568
3 555 21 266
3 461 560 567
3 567 128 461
3 560 149 567
3 461 37 560
3 267 464 569
3 569 71 267
3 464 128 569
3 267 10 464
3 572 570 571
3 571 152 572
3 570 151 571
3 572 150 570
3 574 573 571
3 571 151 574
3 573 152 571
3 574 27 573
3 576 575 570
3 570 150 576
3 575 151 570
3 576 12 575
3 578 577 572
3 572 152 578
3 577 150 572
3 578 36 577
3 581 579 580
3 580 49 581
3 579 151 580
3 581 96 579
3 575 189 580
3 580 151 575
3 189 49 580
3 575 12 189
3 349 574 579
3 579 96 349
3 574 151 579
3 349 27 574
3 190 352 581
3 581 49 190
3 352 96 581
3 190 7 352
3 584 582 583
3 583 118 584
3 582 150 583
3 584 48 582
3 577 428 583
3 583 150 577
3 428 118 583
3 577 36 428
3 181 576 582
3 582 48 181
3 576 150 582
3 181 12 576
3 429 184 584
3 584 118 429
3 184 48 584
3 429 8 184
3 587 585 586
3 586 97 587
3 585 152 586
3 587 121 585
3 573 357 586
3 586 152 573
3 357 97 586
3 573 27 357
3 438 578 585
3 585 121 438
3 578 152 585
3 438 36 578
3 358 441 587
3 587 97 358
3 441 121 587
3 358 1 441
3 590 588 589
3 589 155 590
3 588 154 589
3 590 153 588
3 592 591 589
3 589 154 592
3 591 155 589
3 592 17 591
3 594 593 588
3 588 153 594
3 593 154 588
3 594 30 593
3 596 595 590
3 590 155 596
3 595 153 590
3 596 35 595
3 599 597 598
3 598 104 599
3 597 154 598
3 599 64 597
3 593 383 598
3 598 154 593
3 383 104 598
3 593 30 383
3 237 592 597
3 597 64 237
3 592 154 597
3 237 17 592
3 384 240 599
3 599 104 384
3 240 64 599
3 384 6 240
3 602 600 601
3 601 120 602
3 600 153 601
3 602 103 600
3 595 439 601
3 601 153 595
3 439 120 601
3 595 35 439
3 377 594 600
3 600 103 377
3 594 153 600
3 377 30 594
3 440 378 602
3 602 120 440
3 378 103 602
3 440 1 378
3 605 603 604
3 604 65 605
3 603 155 604
3 605 119 603
3 591 245 604
3 604 155 591
3 245 65 604
3 591 17 245
3 433 596 603
3 603 119 433
3 596 155 603
3 433 35 596
3 246 434 605
3 605 65 246
3 434 119 605
3 246 11 434
3 608 606 607
3 607 158 608
3 606 157 607
3 608 156 606
3 610 609 607
3 607 157 610
3 609 158 607
3 610 15 609
3 612 611 606
3 606 156 612
3 611 157 606
3 612 28 611
3 614 613 608
3 608 158 614
3 613 156 608
3 614 41 613
3 617 615 616
3 616 95 617
3 615 157 616
3 617 55 615
3 611 350 616
3 616 157 611
3 350 95 616
3 611 28 350
3 209 610 615
3 615 55 209
3 610 157 615
3 209 15 610
3 351 210 617
3 617 95 351
3 210 55 617
3 351 7 210
3 620 618 619
3 619 135 620
3 618 156 619
3 620 94 618
3 613 490 619
3 619 156 613
3 490 135 619
3 613 41 490
3 342 612 618
3 618 94 342
3 612 156 618
3 342 28 612
3 491 345 620
3 620 135 491
3 345 94 620
3 491 2 345
3 623 621 622
3 622 56 623
3 621 158 622
3 623 134 621
3 609 215 622
3 622 158 609
3 215 56 622
3 609 15 215
3 484 614 621
3 621 134 484
3 614 158 621
3 484 41 614
3 216 485 623
3 623 56 216
3 485 134 623
3 216 9 485
3 626 624 625
3 625 161 626
3 624 160 625
3 626 159 624
3 628 627 625
3 625 160 628
3 627 161 625
3 628 31 627
3 630 629 624
3 624 159 630
3 629 160 624
3 630 20 629
3 632 631 626
3 626 161 632
3 631 159 626
3 632 40 631
3 635 633 634
3 634 73 635
3 633 160 634
3 635 105 633
3 629 272 634
3 634 160 629
3 272 73 634
3 629 20 272
3 382 628 633
3 633 105 382
3 628 160 633
3 382 31 628
3 273 385 635
3 635 73 273
3 385 105 635
3 273 6 385
3 638 636 637
3 637 137 638
3 636 159 637
3 638 72 636
3 631 496 637
3 637 159 631
3 496 137 637
3 631 40 496
3 265 630 636
3 636 72 265
3 630 159 636
3 265 20 630
3 497 268 638
3 638 137 497
3 268 72 638
3 497 10 268
3 641 639 640
3 640 102 641
3 639 161 640
3 641 136 639
3 627 372 640
3 640 161 627
3 372 102 640
3 627 31 372
3 489 632 639
3 639 136 489
3 632 161 639
3 489 40 632
3 373 492 641
3 641 102 373
3 492 136 641
3 373 2 492
