# vtk DataFile Version 3.0
this file was written using fslvtkio
ASCII
DATASET POLYDATA
POINTS 642 float
131.179 129.856 106.138
121.592 128.722 105.239
126.536 122.483 105.265
135.393 120.698 105.678
130.652 125.578 110.89
132.62 125.451 101.573
125.848 125.229 100.928
125.563 125.477 110.364
125.514 133.82 109.69
131.197 118.132 108.943
131.696 118.335 102.223
126.036 132.63 102.449
125.06 129.737 111.099
128.307 130.372 111.425
128.429 125.255 112.483
128.611 121.843 110.204
131.939 120.87 111.366
125.618 128.796 101.805
129.499 125.153 101.067
129.689 129.417 101.743
128.999 121.94 101.481
133.271 121.099 101.58
133.489 122.391 108.769
130.985 128.269 108.798
133.757 125.42 105.838
135.11 122.565 102.81
132.495 128.368 103.245
123.018 128.119 108.563
126.375 124.236 107.758
123.248 125.278 105.065
122.523 127.112 101.907
125.39 123.53 102.665
128.589 132.237 104.245
128.149 132.877 107.87
124.54 135.287 105.505
122.194 131.782 103.279
122.13 132.284 107.314
135.951 116.873 102.513
131.469 116.745 105.217
134.72 117.317 107.93
128.98 120.071 103.765
129.089 120.242 107.011
126.652 130.336 111.84
128.344 128.016 112.581
126.546 127.549 112.228
129.861 125.403 112.244
129.493 128.045 111.305
127.094 132.446 110.868
125.092 131.882 110.314
124.866 127.412 111.051
126.754 125.323 111.64
128.163 123.355 111.674
130.196 123.102 112.554
130.038 121.018 111.438
131.422 123.286 111.306
127.107 123.806 110.212
129.927 120.158 109.485
131.555 119.1 110.616
127.565 127.22 101.122
129.509 127.289 101.248
127.784 129.04 101.739
131.17 127.487 101.398
131.058 125.222 101.401
127.719 125.225 100.925
125.746 127.056 100.957
125.971 130.603 102.325
127.896 131.088 102.159
131.154 121.515 101.339
131.244 123.14 101.221
129.062 123.531 101.068
132.768 123.233 101.47
132.53 119.665 101.864
130.489 120.238 102.098
127.238 123.593 101.142
132.426 125.425 108.852
132.466 126.738 107.468
133.707 124.149 107.537
132.386 127.61 106.003
131.186 129.201 107.554
130.761 126.942 109.852
132.206 124.062 109.923
134.491 121.551 107.35
134.683 123.158 105.903
134.684 124.256 104.34
133.177 126.863 104.535
134.106 125.651 103.072
131.76 129.153 104.694
135.417 121.787 104.299
134.029 124.164 102.008
132.847 127.184 102.096
124.518 126.111 108.159
124.722 124.869 106.633
123.369 126.632 106.856
124.923 124.015 105.245
126.309 123.214 106.57
126.035 124.865 109.034
124.187 126.766 109.562
122.298 128.202 106.881
122.36 126.885 105.09
122.513 125.81 103.397
124.191 124.289 103.79
123.444 125.035 102.009
125.951 122.807 103.934
121.799 127.791 103.502
124.009 126.184 101.008
125.462 124.16 101.547
128.084 132.951 105.941
126.626 135.011 107.04
126.498 134.549 104.646
124.846 134.937 107.928
127.135 133.835 109.097
129.593 131.33 106.978
130.105 131.182 105.172
127.476 132.713 103.158
125.027 134.334 103.314
123.113 134.091 103.73
122.824 134.428 106.5
121.155 132.483 105.047
123.666 133.119 108.627
124.204 132.153 102.631
121.197 130.083 104.18
121.482 130.398 106.394
133.62 115.564 103.597
133.445 115.689 106.611
135.809 116.382 105.307
132.909 117.055 109.006
131.303 117.327 107.106
131.318 117.06 103.26
133.485 117.278 101.981
135.997 118.856 104.417
135.191 119.167 106.809
128.94 119.856 105.339
130.238 118.244 106.084
130.154 117.931 104.283
130.078 119.141 107.972
127.836 121.38 106.13
127.711 121.381 104.476
130.094 119.116 102.898
129.597 129.425 110.081
128.279 131.674 109.652
129.611 130.686 108.454
130.76 130.428 103.706
129.445 131.201 102.719
131.416 129.014 102.14
133.266 118.66 109.939
132.655 121.593 110.078
134.131 119.775 108.497
135.838 119.621 102.89
134.347 121.798 101.874
134.612 118.685 101.754
123.49 131.12 109.236
123.809 128.876 109.985
122.287 130.111 107.912
122.421 129.344 102.936
124.05 127.931 101.642
123.968 130.255 102.596
127.653 122.306 107.354
127.49 123.073 108.887
128.847 121.207 108.512
128.749 120.99 102.527
127.04 122.601 101.938
127.178 121.887 103.12
127.491 129.185 112.373
127.419 127.87 112.482
126.618 128.944 112.078
127.476 126.491 112.455
128.237 126.714 112.675
128.299 129.299 112.179
127.584 130.393 111.984
125.866 130.021 111.534
125.817 128.716 111.769
129.026 126.79 112.556
128.948 128.102 112.04
129.542 126.859 111.942
128.883 129.211 111.515
129.115 125.495 112.613
130.196 125.664 111.587
130.004 126.839 111.19
126.835 131.45 111.557
125.826 131.176 111.198
126.08 132.241 110.783
125.024 130.844 110.738
127.67 131.452 111.24
126.313 133.254 110.38
125.265 132.926 110.127
125.672 127.61 111.708
126.572 126.401 112.064
125.731 126.394 111.483
127.533 125.34 112.166
125.028 128.544 111.245
125.162 126.271 110.865
126.097 125.447 111.07
129.123 123.212 112.287
130.031 122.011 112.19
129.128 122.235 111.739
130.977 120.952 111.75
131.038 122.044 112.173
129.305 124.153 112.665
128.238 124.211 112.223
128.465 122.449 111.063
129.238 121.404 111.002
130.881 123.269 112.086
130.035 124.399 112.61
130.691 124.491 111.77
131.648 122.165 111.556
131.062 124.442 111.083
127.46 124.346 111.645
127.665 123.405 110.914
126.881 124.542 110.854
127.908 122.76 110.304
126.366 124.811 110.313
129.937 120.625 110.463
130.816 120.11 111.08
130.648 119.668 110.186
131.856 119.87 111.198
129.266 120.984 109.987
130.566 119.137 109.41
131.276 118.67 109.876
128.567 127.216 101.238
128.655 128.19 101.439
127.687 128.112 101.36
128.755 129.15 101.728
129.556 128.332 101.483
129.386 126.251 101.117
128.543 126.308 101.07
126.677 128.076 101.386
126.787 128.847 101.744
130.316 127.414 101.263
130.212 126.189 101.251
131.074 126.333 101.393
130.257 125.182 101.221
130.408 128.428 101.567
131.895 126.443 101.55
131.843 125.305 101.532
127.682 126.248 100.96
126.647 127.221 101.036
126.765 126.222 100.894
125.716 127.92 101.366
128.579 125.359 100.981
126.792 125.287 100.875
125.889 126.113 100.862
126.812 129.783 102.06
127.845 130.003 101.987
126.952 130.85 102.177
128.766 130.191 101.966
125.89 129.59 102.108
126.003 131.661 102.338
126.982 131.889 102.289
131.19 122.317 101.151
130.125 123.321 101.185
130.053 122.51 101.156
129.306 124.335 101.059
130.3 124.136 101.189
132.235 122.199 101.213
132.223 121.314 101.382
130.051 121.802 101.352
129.148 122.646 101.206
131.01 124.232 101.337
132.023 123.162 101.249
131.845 124.262 101.5
133.049 122.183 101.385
132.6 124.354 101.634
131.835 120.675 101.639
130.688 120.945 101.731
131.451 119.98 101.884
129.81 121.159 101.783
132.915 120.37 101.7
132.113 119.008 101.973
131.143 119.313 102.161
128.191 123.45 101.1
128.399 124.409 100.971
127.433 124.33 100.91
128.143 122.731 101.287
126.552 124.461 100.978
132.455 126.109 108.15
133.144 125.477 107.457
133.101 124.787 108.193
133.698 124.917 106.753
133.143 125.989 106.739
131.778 127.428 108.188
131.72 126.745 108.689
133.026 124.045 108.841
133.575 123.43 108.269
132.477 127.13 106.729
131.832 127.95 107.544
131.842 128.375 106.816
131.185 128.69 108.182
133.063 126.463 105.98
131.857 128.754 106.071
131.232 129.558 106.844
131.542 126.19 109.273
132.34 124.752 109.39
131.416 125.577 109.908
132.951 123.234 109.36
130.963 127.538 109.278
130.641 126.329 110.435
131.39 124.847 110.391
134.095 122.92 107.515
134.198 123.744 106.741
134.583 122.518 106.697
134.246 124.336 105.947
134.012 122.036 108.103
134.979 121.29 106.549
135.052 121.984 105.872
133.976 125.632 104.506
133.652 126.328 103.854
134.447 125.034 103.744
133.391 126.932 103.209
132.952 127.59 103.827
133.456 126.126 105.162
134.256 124.931 105.1
134.925 123.586 103.561
134.671 124.233 102.986
132.542 127.985 104.559
132.784 127.135 105.313
132.19 128.413 105.303
132.125 128.724 103.973
131.544 129.462 105.448
134.624 123.805 105.175
135.003 123.077 104.311
135.04 122.535 105.104
135.258 122.206 103.514
135.409 121.277 105.058
134.2 124.919 102.477
133.594 126.397 102.545
133.524 125.686 101.971
132.863 127.667 102.672
134.712 123.435 102.334
133.305 124.813 101.789
132.729 126.343 101.754
124.697 125.403 107.385
123.994 125.701 106.71
123.935 126.387 107.511
123.36 125.907 106.043
123.927 125.15 105.948
125.493 124.693 107.329
125.313 125.22 107.949
123.64 126.956 108.322
123.212 127.239 107.752
124.717 124.42 105.966
125.569 124.149 106.688
125.605 123.654 105.98
126.283 123.783 107.188
124.034 124.668 105.223
125.744 123.326 105.239
126.329 122.807 105.869
125.255 125.514 108.646
124.324 126.461 108.834
125.044 125.846 109.369
123.518 127.421 109.051
126.164 124.658 108.358
125.737 125.173 109.712
124.879 126.151 110.063
122.813 127.388 106.912
122.828 126.677 106.001
122.303 127.516 106.018
122.767 125.999 105.158
122.677 128.095 107.777
121.903 128.406 106.023
121.92 127.767 105.143
123.235 124.894 103.617
123.791 124.546 102.913
122.902 125.302 102.684
124.315 124.298 102.324
124.731 123.992 103.097
123.616 124.718 104.428
122.847 125.474 104.215
122.305 126.298 102.54
122.701 125.871 101.847
125.127 123.64 103.815
124.519 124.119 104.55
125.482 123.389 104.54
125.664 123.19 103.269
126.232 122.619 104.641
122.455 126.222 104.342
122.069 126.694 103.385
121.97 127.22 104.294
122.063 127.391 102.684
121.665 128.211 104.382
123.531 125.588 101.376
124.369 124.673 101.669
124.621 125.202 101.199
125.304 123.9 102.088
123.125 126.628 101.389
125.034 125.742 100.97
125.629 124.618 101.172
127.251 134.085 106.392
126.513 134.928 105.795
127.308 133.868 105.417
125.565 135.213 105.039
125.662 135.421 106.279
127.373 133.993 107.369
127.989 133.136 106.882
128.104 132.887 105.03
127.419 133.496 104.451
125.994 135.314 107.541
126.988 134.348 108.081
126.17 134.918 108.793
127.592 133.382 108.408
124.822 135.233 106.865
125.059 134.387 108.899
126.387 134.105 109.631
128.885 132.277 106.489
128.949 132.156 105.509
129.812 131.333 106.042
129.222 131.853 104.757
128.76 132.198 107.381
130.419 130.608 106.599
130.672 130.493 105.691
126.909 133.608 103.782
125.792 134.63 103.981
126.259 133.653 103.115
124.714 135.074 104.259
127.952 132.566 103.809
127.002 132.696 102.663
125.526 133.367 102.667
122.841 134.431 105.069
121.878 133.763 105.633
122.01 133.589 104.469
121.512 132.644 106.132
122.224 133.455 106.819
123.711 134.969 105.985
123.749 134.892 104.466
122.473 133.039 103.401
121.451 132.444 103.974
123.05 133.836 107.599
123.824 134.745 107.161
124.037 134.194 108.322
122.835 132.815 107.908
124.539 133.445 109.249
124.137 134.348 103.445
123.443 133.225 102.889
124.617 133.275 102.665
123.141 132.197 102.911
125.121 132.327 102.469
120.968 131.384 104.517
121.123 131.481 105.837
121.122 130.263 105.293
121.587 131.54 106.781
121.463 131.141 103.691
121.349 129.295 104.73
121.526 129.475 105.872
133.463 115.374 105.144
134.828 115.119 106.146
134.975 115.111 104.319
135.379 116.383 106.623
134.483 115.897 107.285
132.532 115.95 105.71
132.591 115.803 104.482
134.961 115.762 102.997
136.049 116.133 103.87
133.328 116.23 107.811
132.39 116.42 106.861
132.193 116.909 107.974
131.568 116.923 106.16
134.022 116.776 108.406
131.81 117.538 108.948
131.117 117.8 107.961
132.426 116.243 103.445
133.684 116.281 102.715
132.318 117.059 102.505
134.779 116.664 102.158
131.67 116.572 104.186
131.331 117.668 102.616
132.521 117.825 102.038
136.076 117.51 104.736
135.533 117.699 106.175
135.617 119.061 105.668
135.141 117.961 107.264
136.312 117.497 103.525
135.68 119.817 105.052
135.234 120.059 106.316
129.577 118.926 105.634
130.26 117.962 105.151
129.578 118.869 104.823
130.866 117.11 104.63
130.897 117.378 105.672
129.645 119.221 106.451
129.057 119.955 106.122
129.039 119.781 104.554
129.599 119.025 104.112
130.842 117.75 106.54
130.125 118.72 106.913
130.635 118.284 107.538
129.68 119.611 107.347
130.582 118.647 108.588
128.372 120.624 105.758
128.367 120.59 104.847
127.766 121.278 105.267
128.376 120.711 104.11
128.454 120.79 106.569
127.201 121.923 105.665
127.12 121.935 104.889
130.081 118.533 103.642
130.689 117.239 103.821
130.589 118 103.064
129.536 119.466 103.368
130.837 118.78 102.525
128.974 130.558 109.938
128.914 131.106 109.02
129.7 129.929 109.223
128.814 131.729 108.155
128.241 132.238 108.768
128.307 131.059 110.568
128.908 129.856 110.761
130.314 128.911 109.405
130.346 129.518 108.703
127.682 132.757 109.313
127.699 132.05 110.356
127.15 133.288 110.071
129.52 128.762 110.684
130.31 128.185 109.907
130.13 127.486 110.551
130.451 129.887 108.062
129.595 131.105 107.756
130.452 130.273 107.305
130.194 130.946 103.182
130.493 130.167 102.321
131.227 129.806 102.858
130.572 129.283 101.939
129.657 130.358 102.076
129.085 131.776 103.46
129.801 131.421 104.038
131.73 129.412 103.445
132.092 128.767 102.585
128.775 131.089 102.356
128.492 132.021 102.976
127.831 131.957 102.523
130.399 130.891 104.49
131.313 129.783 104.213
130.966 130.108 105.03
132.197 128.156 102.082
131.254 128.293 101.694
132.024 127.308 101.672
133.056 120.164 110.051
133.432 120.603 109.312
133.765 119.121 109.23
133.794 121.103 108.67
133.124 121.939 109.432
132.342 121.144 110.734
132.699 119.727 110.663
134.049 117.77 109.088
134.517 118.441 108.351
132.497 122.853 109.986
132.087 122.395 110.82
131.79 123.705 110.597
132.387 118.865 110.573
133.189 117.679 109.721
132.028 118.118 109.727
134.72 119.175 107.69
134.281 120.725 107.948
134.853 120.355 107.171
135.269 120.523 102.21
134.694 120.104 101.82
135.566 118.916 102.051
133.874 120.003 101.807
133.857 121.466 101.733
134.776 122.114 102.249
135.524 121.116 102.861
136.158 118.151 102.791
135.388 117.616 101.913
133.593 122.601 101.538
134.264 123.051 101.864
133.342 123.767 101.722
135.614 121.07 103.621
136.035 119.256 103.608
135.716 120.515 104.494
134.211 117.825 101.753
133.423 119.363 101.896
132.893 118.57 101.953
123.706 130.006 109.585
123.104 129.589 108.918
122.814 130.689 108.615
122.63 129.109 108.276
123.323 128.525 109.298
124.399 129.231 110.636
124.353 130.379 110.212
122.794 131.787 108.253
122.084 131.204 107.597
123.743 127.663 109.751
124.246 128.141 110.571
124.432 126.954 110.362
124.264 131.345 109.876
123.475 132.145 108.939
124.381 132.492 109.573
121.851 130.232 107.221
122.362 128.939 107.51
121.887 129.169 106.632
123.188 128.691 102.214
124.016 129.084 102.169
123.141 129.874 102.729
124.771 129.398 102.222
124.796 128.379 101.767
123.222 127.621 101.659
122.53 128.249 102.371
122.268 130.612 103.219
123.067 131.17 102.877
124.927 127.491 101.232
124.004 126.989 101.211
124.983 126.553 100.974
122.051 128.502 103.055
121.795 129.863 103.524
121.712 128.917 103.935
124.043 131.239 102.6
125.073 130.169 102.422
125.133 131.307 102.511
127.621 122.745 108.109
128.229 122.16 108.774
128.285 121.751 107.905
128.754 121.49 109.377
128.027 122.481 109.574
127.024 123.692 108.244
127.032 123.27 107.548
128.297 121.239 107.22
128.886 120.801 107.718
127.332 123.443 109.569
126.83 124.096 108.837
126.576 124.404 109.625
126.952 122.746 106.967
127.727 121.763 106.719
126.982 122.317 106.228
129.434 120.272 107.978
129.346 120.707 108.946
130.004 119.712 108.675
127.895 121.807 102.152
127.002 122.242 102.468
127.989 121.391 102.795
126.267 122.669 102.866
126.137 123.047 102.323
127.973 122.213 101.624
128.85 121.466 101.961
128.869 120.524 103.141
128.155 121.07 103.454
126.145 123.354 101.761
127.163 123.01 101.446
126.339 123.87 101.248
129.532 120.699 102.289
129.385 120.043 102.778
130.233 119.666 102.428
127.608 121.613 103.787
126.533 122.373 103.485
126.849 122.117 104.21
POLYGONS 1280  5120
3 164 162 163
3 163 44 164
3 162 43 163
3 164 42 162
3 166 165 163
3 163 43 166
3 165 44 163
3 166 14 165
3 168 167 162
3 162 42 168
3 167 43 162
3 168 13 167
3 170 169 164
3 164 44 170
3 169 42 164
3 170 12 169
3 173 171 172
3 172 46 173
3 171 43 172
3 173 45 171
3 167 174 172
3 172 43 167
3 174 46 172
3 167 13 174
3 175 166 171
3 171 45 175
3 166 43 171
3 175 14 166
3 177 176 173
3 173 46 177
3 176 45 173
3 177 4 176
3 180 178 179
3 179 48 180
3 178 42 179
3 180 47 178
3 169 181 179
3 179 42 169
3 181 48 179
3 169 12 181
3 182 168 178
3 178 47 182
3 168 42 178
3 182 13 168
3 184 183 180
3 180 48 184
3 183 47 180
3 184 8 183
3 187 185 186
3 186 50 187
3 185 44 186
3 187 49 185
3 165 188 186
3 186 44 165
3 188 50 186
3 165 14 188
3 189 170 185
3 185 49 189
3 170 44 185
3 189 12 170
3 191 190 187
3 187 50 191
3 190 49 187
3 191 7 190
3 194 192 193
3 193 53 194
3 192 52 193
3 194 51 192
3 196 195 193
3 193 52 196
3 195 53 193
3 196 16 195
3 198 197 192
3 192 51 198
3 197 52 192
3 198 14 197
3 200 199 194
3 194 53 200
3 199 51 194
3 200 15 199
3 203 201 202
3 202 45 203
3 201 52 202
3 203 54 201
3 197 175 202
3 202 52 197
3 175 45 202
3 197 14 175
3 204 196 201
3 201 54 204
3 196 52 201
3 204 16 196
3 176 205 203
3 203 45 176
3 205 54 203
3 176 4 205
3 208 206 207
3 207 55 208
3 206 51 207
3 208 50 206
3 199 209 207
3 207 51 199
3 209 55 207
3 199 15 209
3 188 198 206
3 206 50 188
3 198 51 206
3 188 14 198
3 210 191 208
3 208 55 210
3 191 50 208
3 210 7 191
3 213 211 212
3 212 57 213
3 211 53 212
3 213 56 211
3 195 214 212
3 212 53 195
3 214 57 212
3 195 16 214
3 215 200 211
3 211 56 215
3 200 53 211
3 215 15 200
3 217 216 213
3 213 57 217
3 216 56 213
3 217 9 216
3 220 218 219
3 219 60 220
3 218 59 219
3 220 58 218
3 222 221 219
3 219 59 222
3 221 60 219
3 222 19 221
3 224 223 218
3 218 58 224
3 223 59 218
3 224 18 223
3 226 225 220
3 220 60 226
3 225 58 220
3 226 17 225
3 229 227 228
3 228 62 229
3 227 59 228
3 229 61 227
3 223 230 228
3 228 59 223
3 230 62 228
3 223 18 230
3 231 222 227
3 227 61 231
3 222 59 227
3 231 19 222
3 233 232 229
3 229 62 233
3 232 61 229
3 233 5 232
3 236 234 235
3 235 64 236
3 234 58 235
3 236 63 234
3 225 237 235
3 235 58 225
3 237 64 235
3 225 17 237
3 238 224 234
3 234 63 238
3 224 58 234
3 238 18 224
3 240 239 236
3 236 64 240
3 239 63 236
3 240 6 239
3 243 241 242
3 242 66 243
3 241 60 242
3 243 65 241
3 221 244 242
3 242 60 221
3 244 66 242
3 221 19 244
3 245 226 241
3 241 65 245
3 226 60 241
3 245 17 226
3 247 246 243
3 243 66 247
3 246 65 243
3 247 11 246
3 250 248 249
3 249 69 250
3 248 68 249
3 250 67 248
3 252 251 249
3 249 68 252
3 251 69 249
3 252 18 251
3 254 253 248
3 248 67 254
3 253 68 248
3 254 21 253
3 256 255 250
3 250 69 256
3 255 67 250
3 256 20 255
3 259 257 258
3 258 70 259
3 257 68 258
3 259 62 257
3 253 260 258
3 258 68 253
3 260 70 258
3 253 21 260
3 230 252 257
3 257 62 230
3 252 68 257
3 230 18 252
3 261 233 259
3 259 70 261
3 233 62 259
3 261 5 233
3 264 262 263
3 263 72 264
3 262 67 263
3 264 71 262
3 255 265 263
3 263 67 255
3 265 72 263
3 255 20 265
3 266 254 262
3 262 71 266
3 254 67 262
3 266 21 254
3 268 267 264
3 264 72 268
3 267 71 264
3 268 10 267
3 271 269 270
3 270 63 271
3 269 69 270
3 271 73 269
3 251 238 270
3 270 69 251
3 238 63 270
3 251 18 238
3 272 256 269
3 269 73 272
3 256 69 269
3 272 20 256
3 239 273 271
3 271 63 239
3 273 73 271
3 239 6 273
3 276 274 275
3 275 76 276
3 274 75 275
3 276 74 274
3 278 277 275
3 275 75 278
3 277 76 275
3 278 24 277
3 280 279 274
3 274 74 280
3 279 75 274
3 280 23 279
3 282 281 276
3 276 76 282
3 281 74 276
3 282 22 281
3 285 283 284
3 284 78 285
3 283 75 284
3 285 77 283
3 279 286 284
3 284 75 279
3 286 78 284
3 279 23 286
3 287 278 283
3 283 77 287
3 278 75 283
3 287 24 278
3 289 288 285
3 285 78 289
3 288 77 285
3 289 0 288
3 292 290 291
3 291 80 292
3 290 74 291
3 292 79 290
3 281 293 291
3 291 74 281
3 293 80 291
3 281 22 293
3 294 280 290
3 290 79 294
3 280 74 290
3 294 23 280
3 296 295 292
3 292 80 296
3 295 79 292
3 296 4 295
3 299 297 298
3 298 82 299
3 297 76 298
3 299 81 297
3 277 300 298
3 298 76 277
3 300 82 298
3 277 24 300
3 301 282 297
3 297 81 301
3 282 76 297
3 301 22 282
3 303 302 299
3 299 82 303
3 302 81 299
3 303 3 302
3 306 304 305
3 305 85 306
3 304 84 305
3 306 83 304
3 308 307 305
3 305 84 308
3 307 85 305
3 308 26 307
3 310 309 304
3 304 83 310
3 309 84 304
3 310 24 309
3 312 311 306
3 306 85 312
3 311 83 306
3 312 25 311
3 315 313 314
3 314 77 315
3 313 84 314
3 315 86 313
3 309 287 314
3 314 84 309
3 287 77 314
3 309 24 287
3 316 308 313
3 313 86 316
3 308 84 313
3 316 26 308
3 288 317 315
3 315 77 288
3 317 86 315
3 288 0 317
3 320 318 319
3 319 87 320
3 318 83 319
3 320 82 318
3 311 321 319
3 319 83 311
3 321 87 319
3 311 25 321
3 300 310 318
3 318 82 300
3 310 83 318
3 300 24 310
3 322 303 320
3 320 87 322
3 303 82 320
3 322 3 303
3 325 323 324
3 324 89 325
3 323 85 324
3 325 88 323
3 307 326 324
3 324 85 307
3 326 89 324
3 307 26 326
3 327 312 323
3 323 88 327
3 312 85 323
3 327 25 312
3 329 328 325
3 325 89 329
3 328 88 325
3 329 5 328
3 332 330 331
3 331 92 332
3 330 91 331
3 332 90 330
3 334 333 331
3 331 91 334
3 333 92 331
3 334 29 333
3 336 335 330
3 330 90 336
3 335 91 330
3 336 28 335
3 338 337 332
3 332 92 338
3 337 90 332
3 338 27 337
3 341 339 340
3 340 94 341
3 339 91 340
3 341 93 339
3 335 342 340
3 340 91 335
3 342 94 340
3 335 28 342
3 343 334 339
3 339 93 343
3 334 91 339
3 343 29 334
3 345 344 341
3 341 94 345
3 344 93 341
3 345 2 344
3 348 346 347
3 347 96 348
3 346 90 347
3 348 95 346
3 337 349 347
3 347 90 337
3 349 96 347
3 337 27 349
3 350 336 346
3 346 95 350
3 336 90 346
3 350 28 336
3 352 351 348
3 348 96 352
3 351 95 348
3 352 7 351
3 355 353 354
3 354 98 355
3 353 92 354
3 355 97 353
3 333 356 354
3 354 92 333
3 356 98 354
3 333 29 356
3 357 338 353
3 353 97 357
3 338 92 353
3 357 27 338
3 359 358 355
3 355 98 359
3 358 97 355
3 359 1 358
3 362 360 361
3 361 101 362
3 360 100 361
3 362 99 360
3 364 363 361
3 361 100 364
3 363 101 361
3 364 31 363
3 366 365 360
3 360 99 366
3 365 100 360
3 366 29 365
3 368 367 362
3 362 101 368
3 367 99 362
3 368 30 367
3 371 369 370
3 370 93 371
3 369 100 370
3 371 102 369
3 365 343 370
3 370 100 365
3 343 93 370
3 365 29 343
3 372 364 369
3 369 102 372
3 364 100 369
3 372 31 364
3 344 373 371
3 371 93 344
3 373 102 371
3 344 2 373
3 376 374 375
3 375 103 376
3 374 99 375
3 376 98 374
3 367 377 375
3 375 99 367
3 377 103 375
3 367 30 377
3 356 366 374
3 374 98 356
3 366 99 374
3 356 29 366
3 378 359 376
3 376 103 378
3 359 98 376
3 378 1 359
3 381 379 380
3 380 105 381
3 379 101 380
3 381 104 379
3 363 382 380
3 380 101 363
3 382 105 380
3 363 31 382
3 383 368 379
3 379 104 383
3 368 101 379
3 383 30 368
3 385 384 381
3 381 105 385
3 384 104 381
3 385 6 384
3 388 386 387
3 387 108 388
3 386 107 387
3 388 106 386
3 390 389 387
3 387 107 390
3 389 108 387
3 390 34 389
3 392 391 386
3 386 106 392
3 391 107 386
3 392 33 391
3 394 393 388
3 388 108 394
3 393 106 388
3 394 32 393
3 397 395 396
3 396 110 397
3 395 107 396
3 397 109 395
3 391 398 396
3 396 107 391
3 398 110 396
3 391 33 398
3 399 390 395
3 395 109 399
3 390 107 395
3 399 34 390
3 401 400 397
3 397 110 401
3 400 109 397
3 401 8 400
3 404 402 403
3 403 112 404
3 402 106 403
3 404 111 402
3 393 405 403
3 403 106 393
3 405 112 403
3 393 32 405
3 406 392 402
3 402 111 406
3 392 106 402
3 406 33 392
3 408 407 404
3 404 112 408
3 407 111 404
3 408 0 407
3 411 409 410
3 410 114 411
3 409 108 410
3 411 113 409
3 389 412 410
3 410 108 389
3 412 114 410
3 389 34 412
3 413 394 409
3 409 113 413
3 394 108 409
3 413 32 394
3 415 414 411
3 411 114 415
3 414 113 411
3 415 11 414
3 418 416 417
3 417 117 418
3 416 116 417
3 418 115 416
3 420 419 417
3 417 116 420
3 419 117 417
3 420 36 419
3 422 421 416
3 416 115 422
3 421 116 416
3 422 34 421
3 424 423 418
3 418 117 424
3 423 115 418
3 424 35 423
3 427 425 426
3 426 109 427
3 425 116 426
3 427 118 425
3 421 399 426
3 426 116 421
3 399 109 426
3 421 34 399
3 428 420 425
3 425 118 428
3 420 116 425
3 428 36 420
3 400 429 427
3 427 109 400
3 429 118 427
3 400 8 429
3 432 430 431
3 431 119 432
3 430 115 431
3 432 114 430
3 423 433 431
3 431 115 423
3 433 119 431
3 423 35 433
3 412 422 430
3 430 114 412
3 422 115 430
3 412 34 422
3 434 415 432
3 432 119 434
3 415 114 432
3 434 11 415
3 437 435 436
3 436 121 437
3 435 117 436
3 437 120 435
3 419 438 436
3 436 117 419
3 438 121 436
3 419 36 438
3 439 424 435
3 435 120 439
3 424 117 435
3 439 35 424
3 441 440 437
3 437 121 441
3 440 120 437
3 441 1 440
3 444 442 443
3 443 124 444
3 442 123 443
3 444 122 442
3 446 445 443
3 443 123 446
3 445 124 443
3 446 39 445
3 448 447 442
3 442 122 448
3 447 123 442
3 448 38 447
3 450 449 444
3 444 124 450
3 449 122 444
3 450 37 449
3 453 451 452
3 452 126 453
3 451 123 452
3 453 125 451
3 447 454 452
3 452 123 447
3 454 126 452
3 447 38 454
3 455 446 451
3 451 125 455
3 446 123 451
3 455 39 446
3 457 456 453
3 453 126 457
3 456 125 453
3 457 9 456
3 460 458 459
3 459 128 460
3 458 122 459
3 460 127 458
3 449 461 459
3 459 122 449
3 461 128 459
3 449 37 461
3 462 448 458
3 458 127 462
3 448 122 458
3 462 38 448
3 464 463 460
3 460 128 464
3 463 127 460
3 464 10 463
3 467 465 466
3 466 130 467
3 465 124 466
3 467 129 465
3 445 468 466
3 466 124 445
3 468 130 466
3 445 39 468
3 469 450 465
3 465 129 469
3 450 124 465
3 469 37 450
3 471 470 467
3 467 130 471
3 470 129 467
3 471 3 470
3 474 472 473
3 473 133 474
3 472 132 473
3 474 131 472
3 476 475 473
3 473 132 476
3 475 133 473
3 476 38 475
3 478 477 472
3 472 131 478
3 477 132 472
3 478 41 477
3 480 479 474
3 474 133 480
3 479 131 474
3 480 40 479
3 483 481 482
3 482 134 483
3 481 132 482
3 483 126 481
3 477 484 482
3 482 132 477
3 484 134 482
3 477 41 484
3 454 476 481
3 481 126 454
3 476 132 481
3 454 38 476
3 485 457 483
3 483 134 485
3 457 126 483
3 485 9 457
3 488 486 487
3 487 136 488
3 486 131 487
3 488 135 486
3 479 489 487
3 487 131 479
3 489 136 487
3 479 40 489
3 490 478 486
3 486 135 490
3 478 131 486
3 490 41 478
3 492 491 488
3 488 136 492
3 491 135 488
3 492 2 491
3 495 493 494
3 494 127 495
3 493 133 494
3 495 137 493
3 475 462 494
3 494 133 475
3 462 127 494
3 475 38 462
3 496 480 493
3 493 137 496
3 480 133 493
3 496 40 480
3 463 497 495
3 495 127 463
3 497 137 495
3 463 10 497
3 500 498 499
3 499 140 500
3 498 139 499
3 500 138 498
3 502 501 499
3 499 139 502
3 501 140 499
3 502 33 501
3 504 503 498
3 498 138 504
3 503 139 498
3 504 13 503
3 506 505 500
3 500 140 506
3 505 138 500
3 506 23 505
3 509 507 508
3 508 47 509
3 507 139 508
3 509 110 507
3 503 182 508
3 508 139 503
3 182 47 508
3 503 13 182
3 398 502 507
3 507 110 398
3 502 139 507
3 398 33 502
3 183 401 509
3 509 47 183
3 401 110 509
3 183 8 401
3 512 510 511
3 511 79 512
3 510 138 511
3 512 46 510
3 505 294 511
3 511 138 505
3 294 79 511
3 505 23 294
3 174 504 510
3 510 46 174
3 504 138 510
3 174 13 504
3 295 177 512
3 512 79 295
3 177 46 512
3 295 4 177
3 515 513 514
3 514 111 515
3 513 140 514
3 515 78 513
3 501 406 514
3 514 140 501
3 406 111 514
3 501 33 406
3 286 506 513
3 513 78 286
3 506 140 513
3 286 23 506
3 407 289 515
3 515 111 407
3 289 78 515
3 407 0 289
3 518 516 517
3 517 143 518
3 516 142 517
3 518 141 516
3 520 519 517
3 517 142 520
3 519 143 517
3 520 19 519
3 522 521 516
3 516 141 522
3 521 142 516
3 522 32 521
3 524 523 518
3 518 143 524
3 523 141 518
3 524 26 523
3 527 525 526
3 526 113 527
3 525 142 526
3 527 66 525
3 521 413 526
3 526 142 521
3 413 113 526
3 521 32 413
3 244 520 525
3 525 66 244
3 520 142 525
3 244 19 520
3 414 247 527
3 527 113 414
3 247 66 527
3 414 11 247
3 530 528 529
3 529 86 530
3 528 141 529
3 530 112 528
3 523 316 529
3 529 141 523
3 316 86 529
3 523 26 316
3 405 522 528
3 528 112 405
3 522 141 528
3 405 32 522
3 317 408 530
3 530 86 317
3 408 112 530
3 317 0 408
3 533 531 532
3 532 61 533
3 531 143 532
3 533 89 531
3 519 231 532
3 532 143 519
3 231 61 532
3 519 19 231
3 326 524 531
3 531 89 326
3 524 143 531
3 326 26 524
3 232 329 533
3 533 61 232
3 329 89 533
3 232 5 329
3 536 534 535
3 535 146 536
3 534 145 535
3 536 144 534
3 538 537 535
3 535 145 538
3 537 146 535
3 538 22 537
3 540 539 534
3 534 144 540
3 539 145 534
3 540 16 539
3 542 541 536
3 536 146 542
3 541 144 536
3 542 39 541
3 545 543 544
3 544 54 545
3 543 145 544
3 545 80 543
3 539 204 544
3 544 145 539
3 204 54 544
3 539 16 204
3 293 538 543
3 543 80 293
3 538 145 543
3 293 22 538
3 205 296 545
3 545 54 205
3 296 80 545
3 205 4 296
3 548 546 547
3 547 125 548
3 546 144 547
3 548 57 546
3 541 455 547
3 547 144 541
3 455 125 547
3 541 39 455
3 214 540 546
3 546 57 214
3 540 144 546
3 214 16 540
3 456 217 548
3 548 125 456
3 217 57 548
3 456 9 217
3 551 549 550
3 550 81 551
3 549 146 550
3 551 130 549
3 537 301 550
3 550 146 537
3 301 81 550
3 537 22 301
3 468 542 549
3 549 130 468
3 542 146 549
3 468 39 542
3 302 471 551
3 551 81 302
3 471 130 551
3 302 3 471
3 554 552 553
3 553 149 554
3 552 148 553
3 554 147 552
3 556 555 553
3 553 148 556
3 555 149 553
3 556 21 555
3 558 557 552
3 552 147 558
3 557 148 552
3 558 25 557
3 560 559 554
3 554 149 560
3 559 147 554
3 560 37 559
3 563 561 562
3 562 88 563
3 561 148 562
3 563 70 561
3 557 327 562
3 562 148 557
3 327 88 562
3 557 25 327
3 260 556 561
3 561 70 260
3 556 148 561
3 260 21 556
3 328 261 563
3 563 88 328
3 261 70 563
3 328 5 261
3 566 564 565
3 565 129 566
3 564 147 565
3 566 87 564
3 559 469 565
3 565 147 559
3 469 129 565
3 559 37 469
3 321 558 564
3 564 87 321
3 558 147 564
3 321 25 558
3 470 322 566
3 566 129 470
3 322 87 566
3 470 3 322
3 569 567 568
3 568 71 569
3 567 149 568
3 569 128 567
3 555 266 568
3 568 149 555
3 266 71 568
3 555 21 266
3 461 560 567
3 567 128 461
3 560 149 567
3 461 37 560
3 267 464 569
3 569 71 267
3 464 128 569
3 267 10 464
3 572 570 571
3 571 152 572
3 570 151 571
3 572 150 570
3 574 573 571
3 571 151 574
3 573 152 571
3 574 27 573
3 576 575 570
3 570 150 576
3 575 151 570
3 576 12 575
3 578 577 572
3 572 152 578
3 577 150 572
3 578 36 577
3 581 579 580
3 580 49 581
3 579 151 580
3 581 96 579
3 575 189 580
3 580 151 575
3 189 49 580
3 575 12 189
3 349 574 579
3 579 96 349
3 574 151 579
3 349 27 574
3 190 352 581
3 581 49 190
3 352 96 581
3 190 7 352
3 584 582 583
3 583 118 584
3 582 150 583
3 584 48 582
3 577 428 583
3 583 150 577
3 428 118 583
3 577 36 428
3 181 576 582
3 582 48 181
3 576 150 582
3 181 12 576
3 429 184 584
3 584 118 429
3 184 48 584
3 429 8 184
3 587 585 586
3 586 97 587
3 585 152 586
3 587 121 585
3 573 357 586
3 586 152 573
3 357 97 586
3 573 27 357
3 438 578 585
3 585 121 438
3 578 152 585
3 438 36 578
3 358 441 587
3 587 97 358
3 441 121 587
3 358 1 441
3 590 588 589
3 589 155 590
3 588 154 589
3 590 153 588
3 592 591 589
3 589 154 592
3 591 155 589
3 592 17 591
3 594 593 588
3 588 153 594
3 593 154 588
3 594 30 593
3 596 595 590
3 590 155 596
3 595 153 590
3 596 35 595
3 599 597 598
3 598 104 599
3 597 154 598
3 599 64 597
3 593 383 598
3 598 154 593
3 383 104 598
3 593 30 383
3 237 592 597
3 597 64 237
3 592 154 597
3 237 17 592
3 384 240 599
3 599 104 384
3 240 64 599
3 384 6 240
3 602 600 601
3 601 120 602
3 600 153 601
3 602 103 600
3 595 439 601
3 601 153 595
3 439 120 601
3 595 35 439
3 377 594 600
3 600 103 377
3 594 153 600
3 377 30 594
3 440 378 602
3 602 120 440
3 378 103 602
3 440 1 378
3 605 603 604
3 604 65 605
3 603 155 604
3 605 119 603
3 591 245 604
3 604 155 591
3 245 65 604
3 591 17 245
3 433 596 603
3 603 119 433
3 596 155 603
3 433 35 596
3 246 434 605
3 605 65 246
3 434 119 605
3 246 11 434
3 608 606 607
3 607 158 608
3 606 157 607
3 608 156 606
3 610 609 607
3 607 157 610
3 609 158 607
3 610 15 609
3 612 611 606
3 606 156 612
3 611 157 606
3 612 28 611
3 614 613 608
3 608 158 614
3 613 156 608
3 614 41 613
3 617 615 616
3 616 95 617
3 615 157 616
3 617 55 615
3 611 350 616
3 616 157 611
3 350 95 616
3 611 28 350
3 209 610 615
3 615 55 209
3 610 157 615
3 209 15 610
3 351 210 617
3 617 95 351
3 210 55 617
3 351 7 210
3 620 618 619
3 619 135 620
3 618 156 619
3 620 94 618
3 613 490 619
3 619 156 613
3 490 135 619
3 613 41 490
3 342 612 618
3 618 94 342
3 612 156 618
3 342 28 612
3 491 345 620
3 620 135 491
3 345 94 620
3 491 2 345
3 623 621 622
3 622 56 623
3 621 158 622
3 623 134 621
3 609 215 622
3 622 158 609
3 215 56 622
3 609 15 215
3 484 614 621
3 621 134 484
3 614 158 621
3 484 41 614
3 216 485 623
3 623 56 216
3 485 134 623
3 216 9 485
3 626 624 625
3 625 161 626
3 624 160 625
3 626 159 624
3 628 627 625
3 625 160 628
3 627 161 625
3 628 31 627
3 630 629 624
3 624 159 630
3 629 160 624
3 630 20 629
3 632 631 626
3 626 161 632
3 631 159 626
3 632 40 631
3 635 633 634
3 634 73 635
3 633 160 634
3 635 105 633
3 629 272 634
3 634 160 629
3 272 73 634
3 629 20 272
3 382 628 633
3 633 105 382
3 628 160 633
3 382 31 628
3 273 385 635
3 635 73 273
3 385 105 635
3 273 6 385
3 638 636 637
3 637 137 638
3 636 159 637
3 638 72 636
3 631 496 637
3 637 159 631
3 496 137 637
3 631 40 496
3 265 630 636
3 636 72 265
3 630 159 636
3 265 20 630
3 497 268 638
3 638 137 497
3 268 72 638
3 497 10 268
3 641 639 640
3 640 102 641
3 639 161 640
3 641 136 639
3 627 372 640
3 640 161 627
3 372 102 640
3 627 31 372
3 489 632 639
3 639 136 489
3 632 161 639
3 489 40 632
3 373 492 641
3 641 102 373
3 492 136 641
3 373 2 492
