# vtk DataFile Version 3.0
this file was written using fslvtkio
ASCII
DATASET POLYDATA
POINTS 642 float
101.214 128.357 104.784
91.8501 124.922 103.578
89.3988 116.082 102.351
97.8373 119.85 103.852
96.5863 122.708 108.88
99.2041 123.551 99.6537
92.7358 121.639 99.4254
91.9019 120.699 108.14
95.2359 129.775 108.328
92.4289 113.887 106.336
93.7337 114.845 100.062
96.709 129.866 101.235
93.4579 125.457 109.04
96.6017 126.75 109.747
93.8113 121.36 110.52
91.4114 116.508 108.575
94.6232 118.173 108.245
94.738 126.057 99.8732
95.8866 122.547 99.4567
98.8086 127.409 100.794
92.6416 117.608 99.3948
96.5832 119.099 99.7305
97.1762 121.283 106.3
99.1813 126.25 107.513
100.504 124.052 104.118
99.5602 121.55 101.44
101.497 126.558 101.45
91.5983 123.1 106.127
90.3253 117.554 105.585
90.1736 120.449 102.69
91.675 123.864 100.54
90.1717 118.252 99.7868
100.367 131.385 102.667
98.8528 130.761 106.842
96.4022 131.342 104.729
93.75 128.153 102.204
93.4586 127.686 105.991
95.9732 116.612 101.963
92.1457 111.991 102.469
94.8587 116.39 104.948
89.9767 113.185 99.7711
89.769 113.04 104.432
94.7086 126.412 110.179
95.227 124.207 110.491
93.4912 123.599 110.213
95.3117 121.971 109.853
96.8247 124.659 109.673
95.9774 128.514 109.309
94.1414 127.793 109.039
92.6771 123.062 108.646
92.5295 121 109.666
92.531 118.892 110.098
94.3839 119.584 109.745
93.1528 116.971 109.171
95.7387 120.395 108.655
91.5573 118.638 108.487
91.8409 114.949 107.862
93.5865 116.021 107.459
95.4832 124.356 99.5103
97.3908 125.101 99.83
96.7602 126.774 100.273
99.064 125.504 100.013
97.5552 123.085 99.4793
94.2847 122.041 99.4126
93.694 123.882 99.3002
95.7038 128.148 100.455
97.8185 128.779 100.963
94.632 118.406 99.5017
96.2382 120.812 99.48
94.344 120.03 99.4006
97.959 121.38 99.6988
95.1876 117.013 99.8633
93.2257 116.175 99.531
92.7476 119.617 99.3539
98.4061 123.852 106.927
99.8042 125.094 105.842
98.8583 122.892 105.381
100.937 126.187 104.446
100.221 127.321 106.188
98.0094 124.429 108.346
96.8227 122.073 107.547
97.6221 120.489 105.101
99.223 122.021 104.002
100.443 122.724 102.705
101.55 125.218 102.744
101.365 123.958 101.025
101.694 127.496 103.038
98.6182 120.629 102.717
99.7023 122.427 100.259
100.694 125.112 100.114
90.7909 120.334 105.792
90.1015 119.12 104.281
90.8073 121.555 104.439
89.6688 118.292 102.51
89.6819 116.689 104.061
91.0268 119.17 106.922
91.7159 121.974 107.17
91.614 123.992 104.852
91.063 122.663 103.149
90.8121 122.168 101.572
89.9968 119.529 101.136
90.5992 121.255 100.011
89.4466 117.029 100.902
91.7339 124.44 102.078
91.9838 122.918 99.4327
91.3444 120.043 99.4982
100.104 131.827 104.914
97.6165 132.24 106.163
98.3878 132.336 103.422
95.5687 130.896 106.759
96.954 130.496 107.915
100.435 129.679 105.978
101.479 130.11 103.858
98.4899 130.907 101.689
96.6833 130.696 102.785
95.2341 129.738 103.518
94.8667 129.643 105.441
93.6723 128.226 104.13
94.3505 128.724 107.279
95.0532 129.14 101.501
92.669 126.608 102.928
92.5898 126.294 104.779
94.1349 114 102.194
93.5333 113.819 103.832
95.3334 116.052 103.423
93.7184 115.023 105.644
92.1116 112.555 104.616
92.99 113.147 100.908
94.9944 115.602 100.943
96.97 118.273 102.904
96.3685 118.121 104.403
89.2323 112.088 101.683
90.4922 111.257 103.497
91.1532 111.643 100.468
90.7861 112.896 106.146
89.4019 114.44 103.299
89.2432 114.515 101.138
91.9719 113.856 99.7704
98.0253 126.507 108.811
97.728 128.888 108.38
99.2558 128.616 107.266
101.171 129.109 102.261
99.5945 129.662 101.604
100.279 127.12 100.956
94.8453 117.277 106.6
95.8661 119.697 107.211
96.0698 118.917 105.654
97.7501 119.213 101.73
98.2292 120.296 100.479
96.5042 117.818 100.762
93.2611 126.652 107.633
92.3782 124.353 107.627
92.364 125.435 106.171
92.5989 126.155 101.336
92.8763 125.126 99.7858
93.9847 127.411 100.55
89.9026 115.148 105.172
90.8787 116.937 107.036
90.4387 114.548 106.793
91.3332 115.231 99.3154
91.2919 117.836 99.3247
89.7513 115.526 99.6447
94.9654 125.335 110.486
94.2748 123.966 110.537
94.0532 125.047 110.318
93.6575 122.58 110.542
94.4736 122.882 110.533
95.8429 125.522 110.241
95.6285 126.53 110.112
93.9565 125.908 109.758
93.4293 124.655 109.751
95.271 123.07 110.232
96.0325 124.454 110.147
96.0638 123.38 109.874
96.7169 125.691 109.868
94.5899 121.755 110.282
95.9834 122.38 109.407
96.7223 123.592 109.39
95.3091 127.494 109.98
94.3104 127.147 109.792
94.9499 128.252 109.458
93.7515 126.685 109.142
96.2867 127.651 109.572
95.5604 129.245 108.958
94.7 128.845 108.808
93.0414 123.421 109.47
93.0391 122.342 109.998
92.6635 122.13 109.165
93.0555 121.193 110.334
93.0364 124.278 108.964
92.257 121.872 108.453
92.2366 120.886 108.91
93.4914 119.171 110.078
93.7389 118.277 109.492
92.8629 117.885 109.799
93.9259 117.563 108.801
94.4706 118.792 109.071
94.1048 120.42 110.26
93.1495 120.043 110.439
92.0128 117.704 109.428
92.2181 116.686 109.206
95.055 119.913 109.195
94.851 120.746 109.876
95.5631 121.152 109.312
95.1434 119.285 108.501
96.1252 121.633 108.783
92.5002 119.973 109.94
91.9659 118.764 109.35
92.0407 119.824 109.072
91.5167 117.613 108.631
91.693 119.703 108.307
92.5095 115.909 108.734
93.4833 116.444 108.42
92.7912 115.417 107.829
94.2089 117.018 107.985
91.5683 115.599 108.483
92.1601 114.403 107.128
93.0615 115.005 106.963
96.4146 124.754 99.6572
97.093 125.968 100.026
96.0817 125.561 99.9058
97.7717 127.065 100.471
98.0651 126.32 100.197
96.6617 123.932 99.4743
95.814 123.54 99.4082
95.2001 125.209 99.7356
95.7398 126.365 100.058
98.2299 125.353 99.9592
97.4672 124.062 99.5261
98.3482 124.293 99.5988
96.7192 122.937 99.3951
98.9308 126.53 100.377
99.1487 124.465 99.6464
98.3857 123.338 99.6187
94.9417 123.25 99.3703
94.5969 124.158 99.3707
94.0862 123.009 99.3339
94.2358 124.953 99.5161
95.1087 122.313 99.4261
93.477 121.824 99.4083
93.2449 122.79 99.3185
96.2204 127.412 100.385
97.2864 127.706 100.745
96.7813 128.434 100.679
98.3027 128.021 100.955
95.3091 127.124 100.126
96.233 129.071 100.65
97.2588 129.396 100.901
95.4612 119.569 99.4338
95.3283 120.438 99.4379
94.4866 119.227 99.4052
95.1259 121.223 99.4708
96.0541 121.671 99.4668
96.3507 119.871 99.5169
95.62 118.791 99.5645
93.6648 118.073 99.4272
93.5241 118.825 99.4032
96.8671 122.012 99.4292
97.0627 121.055 99.5715
97.7466 122.195 99.4974
97.2342 120.221 99.7084
98.5896 122.517 99.6513
94.9355 117.762 99.5881
93.9 117.352 99.5214
94.205 116.614 99.6685
92.9777 116.983 99.4362
95.8715 118.068 99.7202
94.4112 115.938 99.9927
93.5303 115.487 99.7564
93.5758 119.831 99.3836
94.4079 121.087 99.4921
93.5476 120.827 99.4484
92.7148 118.643 99.3332
92.7765 120.628 99.4692
99.0608 124.488 106.411
99.3385 123.967 105.605
98.51 123.281 106.125
99.6877 123.552 104.831
100.031 124.548 105.019
99.5058 125.56 106.701
98.9132 124.999 107.212
97.7812 122.689 106.533
97.9796 122.191 105.912
100.365 125.608 105.172
100.057 126.17 106.069
100.596 126.718 105.364
99.7116 126.718 106.859
100.714 125.098 104.358
101.125 127.257 104.59
100.755 127.824 105.474
98.2819 124.179 107.669
97.6049 123.027 107.212
97.4814 123.314 107.969
97.0327 121.793 106.891
98.6419 125.412 107.954
97.2995 123.562 108.682
96.7367 122.368 108.235
98.2909 121.745 105.324
99.1288 122.474 104.703
98.5375 121.3 104.694
99.9522 123.066 104.094
97.4785 120.919 105.712
97.8521 120.23 104.476
98.6175 120.952 103.985
101.162 123.933 102.713
101.646 124.594 101.886
101.085 123.352 101.925
101.689 125.206 101.117
101.698 125.855 101.983
101.089 124.574 103.473
100.561 123.349 103.415
100.221 122.227 101.943
100.671 122.819 101.209
101.657 126.258 102.862
101.158 125.601 103.667
101.372 126.789 103.746
101.694 127.073 102.218
101.475 127.959 103.928
99.8123 122.341 103.44
99.6225 121.71 102.654
98.9886 121.225 103.329
99.1495 121.133 102.11
98.2427 120.224 103.36
100.659 123.17 100.489
101.17 124.505 100.405
100.409 123.771 99.9351
101.235 125.804 100.707
99.8093 122.026 100.847
99.4558 122.942 99.8764
99.9261 124.255 99.7494
90.4051 119.725 105.058
90.3792 120.371 104.35
90.8086 121.038 105.144
90.4361 120.884 103.636
90.1185 119.82 103.557
90.1943 118.413 104.969
90.4972 118.978 105.654
91.1362 121.679 105.886
91.2054 122.179 105.314
89.8362 118.691 103.468
89.8415 117.912 104.215
89.6574 117.536 103.354
89.9924 117.116 104.848
89.9 119.39 102.686
89.5295 117.188 102.468
89.5309 116.45 103.177
90.8782 119.693 106.337
91.18 121.159 106.466
91.3409 120.589 107.007
91.6056 122.453 106.587
90.6353 118.321 106.242
91.4422 119.977 107.556
91.8228 121.368 107.684
91.2495 122.729 104.699
90.9324 122.03 103.772
91.3262 123.262 104.032
90.6116 121.509 102.932
91.5747 123.482 105.483
91.6766 124.393 104.165
91.4295 123.785 103.383
90.3728 120.869 101.384
90.304 120.417 100.6
90.5902 121.778 100.802
90.3643 119.837 99.9452
89.9824 119.012 100.373
90.0563 120.061 101.9
90.4592 121.286 102.122
91.204 122.983 100.983
90.9992 122.522 100.229
89.6961 118.342 100.997
89.7261 118.965 101.872
89.4857 117.726 101.714
89.7867 117.604 100.273
89.3649 116.556 101.649
90.9186 122.332 102.405
91.2955 123.271 101.777
91.395 123.532 102.604
91.6673 124.183 101.309
91.782 124.658 102.871
91.1978 122.089 99.6498
90.916 120.674 99.6428
91.6394 121.476 99.4428
90.6827 119.232 99.5468
91.6396 123.335 99.8888
92.3788 122.238 99.3531
92.0483 120.872 99.4817
98.9571 132.287 105.43
98.1795 132.52 104.783
99.3917 132.449 104.229
97.3471 132.096 104.101
96.9861 132.088 105.35
98.3898 131.741 106.502
99.4712 131.471 105.911
100.338 131.824 103.718
99.4673 132.158 102.983
96.4574 131.808 106.518
97.3457 131.495 107.099
96.1657 131.079 107.552
97.9186 130.795 107.365
96.0122 131.317 105.761
95.3092 130.308 107.561
96.0072 130.176 108.291
100.36 130.843 105.517
100.931 131.11 104.428
101.099 130.031 105.008
101.065 130.976 103.347
99.7358 130.44 106.333
100.899 128.981 105.497
101.448 129.182 104.424
98.5148 131.708 102.477
97.4504 131.627 103.078
97.4912 130.93 102.095
96.7286 131.251 103.737
99.4007 131.411 102.186
97.5726 130.359 101.364
96.6044 130.287 101.896
95.1456 129.813 104.485
94.2682 129.023 104.783
94.4238 129.043 103.828
93.6053 128.156 105.059
94.0928 128.738 105.646
95.6756 130.578 105.164
95.9659 130.567 104.152
94.4915 128.914 102.925
93.7732 128.294 103.197
94.5218 129.188 106.299
95.272 130.349 106.07
94.94 129.83 107.027
93.9433 128.226 106.576
94.7353 129.259 107.926
95.9982 130.336 103.235
95.1512 129.399 102.598
95.842 129.903 102.203
94.4583 128.722 101.929
95.8485 129.521 101.272
93.1601 127.462 103.501
93.1435 127.357 104.478
92.6339 126.532 103.882
93.0621 127.132 105.325
93.1786 127.448 102.59
92.2253 125.777 103.293
92.1192 125.607 104.198
93.8472 113.792 103.034
94.4464 114.882 103.607
94.7386 114.925 102.843
94.9823 115.983 104.174
94.2196 115.025 104.354
92.9146 112.804 103.2
93.1477 112.97 102.363
94.9811 115.217 102.13
95.5637 116.112 102.658
93.6075 114.406 104.717
92.9529 113.067 104.197
92.9371 113.69 105.146
92.1532 112.161 103.561
94.2712 115.574 105.201
93.1192 114.453 106.019
92.205 113.167 105.539
93.5977 113.499 101.598
94.5583 114.728 101.526
94.0929 114.257 100.875
95.4431 115.943 101.506
92.5915 112.439 101.623
93.455 114.002 100.392
94.4062 115.294 100.481
96.1785 117.069 103.117
95.8099 117.015 103.942
96.6308 118.056 103.641
95.5571 117.185 104.68
96.4557 117.419 102.429
97.4261 119.084 103.392
97.1806 119.031 104.153
89.754 111.149 102.457
90.8045 111.136 101.875
89.9885 111.328 100.94
91.7427 111.671 101.41
91.4097 111.491 103.013
89.7874 111.816 103.895
89.3473 112.219 103.036
89.3767 112.296 100.502
90.349 112.109 99.9617
91.4105 111.854 104.169
90.516 111.845 104.749
91.4167 112.606 105.411
90.1489 112.751 105.239
91.6398 113.29 106.403
89.2819 113.213 102.596
89.1784 113.212 101.345
89.21 114.424 102.208
89.4065 113.572 100.393
89.4665 113.414 103.707
89.382 115.356 102.91
89.2486 115.351 101.789
91.4981 112.568 99.9524
92.2322 112.397 100.771
92.667 113.467 100.18
90.9443 113.283 99.7183
92.8836 114.421 99.8479
97.9399 127.742 108.585
98.5072 128.849 107.787
98.6561 127.645 108.072
99.1293 129.749 107.044
98.2548 129.907 107.586
97.1882 127.795 109.062
97.363 126.687 109.31
98.6279 126.482 108.182
99.2428 127.402 107.523
97.4388 129.777 108.192
96.8518 128.611 108.915
96.4592 129.525 108.677
97.4288 125.607 109.326
98.1453 125.429 108.662
97.4733 124.431 109.089
99.7626 127.844 106.892
99.7958 129.242 106.648
100.363 128.479 106.176
100.463 129.526 101.945
99.9852 128.453 101.465
100.73 128.203 101.607
99.59 127.401 100.951
99.2109 128.472 101.24
100.055 130.65 101.967
100.934 130.415 102.48
101.355 127.84 101.839
100.962 126.943 101.151
98.6895 129.083 101.226
99.1419 130.404 101.582
98.1633 129.882 101.132
101.441 129.725 102.954
101.525 128.197 102.54
101.636 128.777 103.528
100.546 126.085 100.482
99.6749 126.35 100.402
99.8494 125.243 99.998
95.2777 118.502 106.899
95.8924 119.365 106.376
95.3999 118.055 106.091
96.6088 120.118 106
96.4844 120.487 106.715
95.2105 118.895 107.703
94.7677 117.713 107.43
94.8721 116.829 105.74
95.5081 117.639 105.373
96.3828 120.824 107.338
95.7766 119.952 107.927
96.2484 121.203 108.077
94.3338 116.629 107.081
94.3182 116.163 106.051
93.6887 115.546 106.524
96.1716 118.388 105.014
96.8183 119.731 105.406
97.0588 119.336 104.79
98.1115 119.804 101.099
97.3932 119.101 100.591
97.1789 118.465 101.21
96.711 118.499 100.164
97.4109 119.648 100.077
98.9612 120.896 100.951
98.6638 120.422 101.628
96.8819 117.94 101.851
96.2942 117.234 101.345
98.057 120.776 100.067
99.0261 121.352 100.407
98.8091 121.916 99.9721
98.2686 119.998 102.193
97.3255 118.692 102.32
97.8204 119.526 102.837
95.8053 116.663 100.88
95.926 117.468 100.261
95.1985 116.309 100.321
92.8964 125.48 107.614
92.3169 124.848 106.869
92.8673 126.031 106.827
91.8467 124.302 106.208
91.9357 123.766 106.864
92.98 124.881 108.337
93.3888 126.081 108.342
93.3303 127.13 106.774
92.915 126.603 106.08
92.0391 123.169 107.329
92.5406 123.744 108.177
92.2255 122.527 107.899
93.6529 127.172 108.354
93.763 127.708 107.413
94.2048 128.254 108.176
92.5011 125.93 105.461
91.8627 124.73 105.56
91.964 125.163 104.809
92.6876 125.728 100.503
93.4263 126.279 100.169
93.2055 126.822 100.901
94.3184 126.76 100.093
93.7784 125.607 99.735
92.1775 124.58 100.103
92.0723 125.074 100.891
93.1009 127.172 101.745
93.7726 127.853 101.327
93.3118 124.554 99.4635
92.3568 124.004 99.6142
92.7884 123.375 99.3391
92.093 125.288 101.692
92.6035 126.418 102.147
92.1087 125.535 102.54
94.4223 128.374 101.025
94.7903 127.725 100.356
95.2936 128.825 100.724
90.3272 116.006 106.189
90.6208 115.727 106.967
90.1239 114.797 105.968
90.8958 115.499 107.762
91.0744 116.693 107.838
90.5357 117.119 106.283
90.1056 116.349 105.48
89.7322 114.04 104.835
90.0454 113.67 105.682
91.213 117.778 107.794
90.8504 118.023 106.949
91.2997 118.905 107.639
89.8198 115.943 104.688
89.5915 114.62 104.244
89.5329 115.576 103.773
90.4574 113.583 106.547
91.0679 114.723 107.615
91.3326 113.881 107.093
91.1913 116.459 99.3195
90.511 116.572 99.3565
90.4538 115.24 99.2717
89.9676 116.881 99.7105
90.7023 117.957 99.5033
91.9225 117.667 99.3523
91.9597 116.509 99.3832
90.6621 114.134 99.4675
89.772 114.298 99.6808
91.2722 118.94 99.3079
92.0154 118.714 99.2623
92.0426 119.834 99.3978
92.3274 115.928 99.4357
91.595 114.492 99.5003
92.6166 115.081 99.6268
89.442 114.936 100.34
89.5671 116.397 100.254
89.3643 115.858 101.08
POLYGONS 1280  5120
3 164 162 163
3 163 44 164
3 162 43 163
3 164 42 162
3 166 165 163
3 163 43 166
3 165 44 163
3 166 14 165
3 168 167 162
3 162 42 168
3 167 43 162
3 168 13 167
3 170 169 164
3 164 44 170
3 169 42 164
3 170 12 169
3 173 171 172
3 172 46 173
3 171 43 172
3 173 45 171
3 167 174 172
3 172 43 167
3 174 46 172
3 167 13 174
3 175 166 171
3 171 45 175
3 166 43 171
3 175 14 166
3 177 176 173
3 173 46 177
3 176 45 173
3 177 4 176
3 180 178 179
3 179 48 180
3 178 42 179
3 180 47 178
3 169 181 179
3 179 42 169
3 181 48 179
3 169 12 181
3 182 168 178
3 178 47 182
3 168 42 178
3 182 13 168
3 184 183 180
3 180 48 184
3 183 47 180
3 184 8 183
3 187 185 186
3 186 50 187
3 185 44 186
3 187 49 185
3 165 188 186
3 186 44 165
3 188 50 186
3 165 14 188
3 189 170 185
3 185 49 189
3 170 44 185
3 189 12 170
3 191 190 187
3 187 50 191
3 190 49 187
3 191 7 190
3 194 192 193
3 193 53 194
3 192 52 193
3 194 51 192
3 196 195 193
3 193 52 196
3 195 53 193
3 196 16 195
3 198 197 192
3 192 51 198
3 197 52 192
3 198 14 197
3 200 199 194
3 194 53 200
3 199 51 194
3 200 15 199
3 203 201 202
3 202 45 203
3 201 52 202
3 203 54 201
3 197 175 202
3 202 52 197
3 175 45 202
3 197 14 175
3 204 196 201
3 201 54 204
3 196 52 201
3 204 16 196
3 176 205 203
3 203 45 176
3 205 54 203
3 176 4 205
3 208 206 207
3 207 55 208
3 206 51 207
3 208 50 206
3 199 209 207
3 207 51 199
3 209 55 207
3 199 15 209
3 188 198 206
3 206 50 188
3 198 51 206
3 188 14 198
3 210 191 208
3 208 55 210
3 191 50 208
3 210 7 191
3 213 211 212
3 212 57 213
3 211 53 212
3 213 56 211
3 195 214 212
3 212 53 195
3 214 57 212
3 195 16 214
3 215 200 211
3 211 56 215
3 200 53 211
3 215 15 200
3 217 216 213
3 213 57 217
3 216 56 213
3 217 9 216
3 220 218 219
3 219 60 220
3 218 59 219
3 220 58 218
3 222 221 219
3 219 59 222
3 221 60 219
3 222 19 221
3 224 223 218
3 218 58 224
3 223 59 218
3 224 18 223
3 226 225 220
3 220 60 226
3 225 58 220
3 226 17 225
3 229 227 228
3 228 62 229
3 227 59 228
3 229 61 227
3 223 230 228
3 228 59 223
3 230 62 228
3 223 18 230
3 231 222 227
3 227 61 231
3 222 59 227
3 231 19 222
3 233 232 229
3 229 62 233
3 232 61 229
3 233 5 232
3 236 234 235
3 235 64 236
3 234 58 235
3 236 63 234
3 225 237 235
3 235 58 225
3 237 64 235
3 225 17 237
3 238 224 234
3 234 63 238
3 224 58 234
3 238 18 224
3 240 239 236
3 236 64 240
3 239 63 236
3 240 6 239
3 243 241 242
3 242 66 243
3 241 60 242
3 243 65 241
3 221 244 242
3 242 60 221
3 244 66 242
3 221 19 244
3 245 226 241
3 241 65 245
3 226 60 241
3 245 17 226
3 247 246 243
3 243 66 247
3 246 65 243
3 247 11 246
3 250 248 249
3 249 69 250
3 248 68 249
3 250 67 248
3 252 251 249
3 249 68 252
3 251 69 249
3 252 18 251
3 254 253 248
3 248 67 254
3 253 68 248
3 254 21 253
3 256 255 250
3 250 69 256
3 255 67 250
3 256 20 255
3 259 257 258
3 258 70 259
3 257 68 258
3 259 62 257
3 253 260 258
3 258 68 253
3 260 70 258
3 253 21 260
3 230 252 257
3 257 62 230
3 252 68 257
3 230 18 252
3 261 233 259
3 259 70 261
3 233 62 259
3 261 5 233
3 264 262 263
3 263 72 264
3 262 67 263
3 264 71 262
3 255 265 263
3 263 67 255
3 265 72 263
3 255 20 265
3 266 254 262
3 262 71 266
3 254 67 262
3 266 21 254
3 268 267 264
3 264 72 268
3 267 71 264
3 268 10 267
3 271 269 270
3 270 63 271
3 269 69 270
3 271 73 269
3 251 238 270
3 270 69 251
3 238 63 270
3 251 18 238
3 272 256 269
3 269 73 272
3 256 69 269
3 272 20 256
3 239 273 271
3 271 63 239
3 273 73 271
3 239 6 273
3 276 274 275
3 275 76 276
3 274 75 275
3 276 74 274
3 278 277 275
3 275 75 278
3 277 76 275
3 278 24 277
3 280 279 274
3 274 74 280
3 279 75 274
3 280 23 279
3 282 281 276
3 276 76 282
3 281 74 276
3 282 22 281
3 285 283 284
3 284 78 285
3 283 75 284
3 285 77 283
3 279 286 284
3 284 75 279
3 286 78 284
3 279 23 286
3 287 278 283
3 283 77 287
3 278 75 283
3 287 24 278
3 289 288 285
3 285 78 289
3 288 77 285
3 289 0 288
3 292 290 291
3 291 80 292
3 290 74 291
3 292 79 290
3 281 293 291
3 291 74 281
3 293 80 291
3 281 22 293
3 294 280 290
3 290 79 294
3 280 74 290
3 294 23 280
3 296 295 292
3 292 80 296
3 295 79 292
3 296 4 295
3 299 297 298
3 298 82 299
3 297 76 298
3 299 81 297
3 277 300 298
3 298 76 277
3 300 82 298
3 277 24 300
3 301 282 297
3 297 81 301
3 282 76 297
3 301 22 282
3 303 302 299
3 299 82 303
3 302 81 299
3 303 3 302
3 306 304 305
3 305 85 306
3 304 84 305
3 306 83 304
3 308 307 305
3 305 84 308
3 307 85 305
3 308 26 307
3 310 309 304
3 304 83 310
3 309 84 304
3 310 24 309
3 312 311 306
3 306 85 312
3 311 83 306
3 312 25 311
3 315 313 314
3 314 77 315
3 313 84 314
3 315 86 313
3 309 287 314
3 314 84 309
3 287 77 314
3 309 24 287
3 316 308 313
3 313 86 316
3 308 84 313
3 316 26 308
3 288 317 315
3 315 77 288
3 317 86 315
3 288 0 317
3 320 318 319
3 319 87 320
3 318 83 319
3 320 82 318
3 311 321 319
3 319 83 311
3 321 87 319
3 311 25 321
3 300 310 318
3 318 82 300
3 310 83 318
3 300 24 310
3 322 303 320
3 320 87 322
3 303 82 320
3 322 3 303
3 325 323 324
3 324 89 325
3 323 85 324
3 325 88 323
3 307 326 324
3 324 85 307
3 326 89 324
3 307 26 326
3 327 312 323
3 323 88 327
3 312 85 323
3 327 25 312
3 329 328 325
3 325 89 329
3 328 88 325
3 329 5 328
3 332 330 331
3 331 92 332
3 330 91 331
3 332 90 330
3 334 333 331
3 331 91 334
3 333 92 331
3 334 29 333
3 336 335 330
3 330 90 336
3 335 91 330
3 336 28 335
3 338 337 332
3 332 92 338
3 337 90 332
3 338 27 337
3 341 339 340
3 340 94 341
3 339 91 340
3 341 93 339
3 335 342 340
3 340 91 335
3 342 94 340
3 335 28 342
3 343 334 339
3 339 93 343
3 334 91 339
3 343 29 334
3 345 344 341
3 341 94 345
3 344 93 341
3 345 2 344
3 348 346 347
3 347 96 348
3 346 90 347
3 348 95 346
3 337 349 347
3 347 90 337
3 349 96 347
3 337 27 349
3 350 336 346
3 346 95 350
3 336 90 346
3 350 28 336
3 352 351 348
3 348 96 352
3 351 95 348
3 352 7 351
3 355 353 354
3 354 98 355
3 353 92 354
3 355 97 353
3 333 356 354
3 354 92 333
3 356 98 354
3 333 29 356
3 357 338 353
3 353 97 357
3 338 92 353
3 357 27 338
3 359 358 355
3 355 98 359
3 358 97 355
3 359 1 358
3 362 360 361
3 361 101 362
3 360 100 361
3 362 99 360
3 364 363 361
3 361 100 364
3 363 101 361
3 364 31 363
3 366 365 360
3 360 99 366
3 365 100 360
3 366 29 365
3 368 367 362
3 362 101 368
3 367 99 362
3 368 30 367
3 371 369 370
3 370 93 371
3 369 100 370
3 371 102 369
3 365 343 370
3 370 100 365
3 343 93 370
3 365 29 343
3 372 364 369
3 369 102 372
3 364 100 369
3 372 31 364
3 344 373 371
3 371 93 344
3 373 102 371
3 344 2 373
3 376 374 375
3 375 103 376
3 374 99 375
3 376 98 374
3 367 377 375
3 375 99 367
3 377 103 375
3 367 30 377
3 356 366 374
3 374 98 356
3 366 99 374
3 356 29 366
3 378 359 376
3 376 103 378
3 359 98 376
3 378 1 359
3 381 379 380
3 380 105 381
3 379 101 380
3 381 104 379
3 363 382 380
3 380 101 363
3 382 105 380
3 363 31 382
3 383 368 379
3 379 104 383
3 368 101 379
3 383 30 368
3 385 384 381
3 381 105 385
3 384 104 381
3 385 6 384
3 388 386 387
3 387 108 388
3 386 107 387
3 388 106 386
3 390 389 387
3 387 107 390
3 389 108 387
3 390 34 389
3 392 391 386
3 386 106 392
3 391 107 386
3 392 33 391
3 394 393 388
3 388 108 394
3 393 106 388
3 394 32 393
3 397 395 396
3 396 110 397
3 395 107 396
3 397 109 395
3 391 398 396
3 396 107 391
3 398 110 396
3 391 33 398
3 399 390 395
3 395 109 399
3 390 107 395
3 399 34 390
3 401 400 397
3 397 110 401
3 400 109 397
3 401 8 400
3 404 402 403
3 403 112 404
3 402 106 403
3 404 111 402
3 393 405 403
3 403 106 393
3 405 112 403
3 393 32 405
3 406 392 402
3 402 111 406
3 392 106 402
3 406 33 392
3 408 407 404
3 404 112 408
3 407 111 404
3 408 0 407
3 411 409 410
3 410 114 411
3 409 108 410
3 411 113 409
3 389 412 410
3 410 108 389
3 412 114 410
3 389 34 412
3 413 394 409
3 409 113 413
3 394 108 409
3 413 32 394
3 415 414 411
3 411 114 415
3 414 113 411
3 415 11 414
3 418 416 417
3 417 117 418
3 416 116 417
3 418 115 416
3 420 419 417
3 417 116 420
3 419 117 417
3 420 36 419
3 422 421 416
3 416 115 422
3 421 116 416
3 422 34 421
3 424 423 418
3 418 117 424
3 423 115 418
3 424 35 423
3 427 425 426
3 426 109 427
3 425 116 426
3 427 118 425
3 421 399 426
3 426 116 421
3 399 109 426
3 421 34 399
3 428 420 425
3 425 118 428
3 420 116 425
3 428 36 420
3 400 429 427
3 427 109 400
3 429 118 427
3 400 8 429
3 432 430 431
3 431 119 432
3 430 115 431
3 432 114 430
3 423 433 431
3 431 115 423
3 433 119 431
3 423 35 433
3 412 422 430
3 430 114 412
3 422 115 430
3 412 34 422
3 434 415 432
3 432 119 434
3 415 114 432
3 434 11 415
3 437 435 436
3 436 121 437
3 435 117 436
3 437 120 435
3 419 438 436
3 436 117 419
3 438 121 436
3 419 36 438
3 439 424 435
3 435 120 439
3 424 117 435
3 439 35 424
3 441 440 437
3 437 121 441
3 440 120 437
3 441 1 440
3 444 442 443
3 443 124 444
3 442 123 443
3 444 122 442
3 446 445 443
3 443 123 446
3 445 124 443
3 446 39 445
3 448 447 442
3 442 122 448
3 447 123 442
3 448 38 447
3 450 449 444
3 444 124 450
3 449 122 444
3 450 37 449
3 453 451 452
3 452 126 453
3 451 123 452
3 453 125 451
3 447 454 452
3 452 123 447
3 454 126 452
3 447 38 454
3 455 446 451
3 451 125 455
3 446 123 451
3 455 39 446
3 457 456 453
3 453 126 457
3 456 125 453
3 457 9 456
3 460 458 459
3 459 128 460
3 458 122 459
3 460 127 458
3 449 461 459
3 459 122 449
3 461 128 459
3 449 37 461
3 462 448 458
3 458 127 462
3 448 122 458
3 462 38 448
3 464 463 460
3 460 128 464
3 463 127 460
3 464 10 463
3 467 465 466
3 466 130 467
3 465 124 466
3 467 129 465
3 445 468 466
3 466 124 445
3 468 130 466
3 445 39 468
3 469 450 465
3 465 129 469
3 450 124 465
3 469 37 450
3 471 470 467
3 467 130 471
3 470 129 467
3 471 3 470
3 474 472 473
3 473 133 474
3 472 132 473
3 474 131 472
3 476 475 473
3 473 132 476
3 475 133 473
3 476 38 475
3 478 477 472
3 472 131 478
3 477 132 472
3 478 41 477
3 480 479 474
3 474 133 480
3 479 131 474
3 480 40 479
3 483 481 482
3 482 134 483
3 481 132 482
3 483 126 481
3 477 484 482
3 482 132 477
3 484 134 482
3 477 41 484
3 454 476 481
3 481 126 454
3 476 132 481
3 454 38 476
3 485 457 483
3 483 134 485
3 457 126 483
3 485 9 457
3 488 486 487
3 487 136 488
3 486 131 487
3 488 135 486
3 479 489 487
3 487 131 479
3 489 136 487
3 479 40 489
3 490 478 486
3 486 135 490
3 478 131 486
3 490 41 478
3 492 491 488
3 488 136 492
3 491 135 488
3 492 2 491
3 495 493 494
3 494 127 495
3 493 133 494
3 495 137 493
3 475 462 494
3 494 133 475
3 462 127 494
3 475 38 462
3 496 480 493
3 493 137 496
3 480 133 493
3 496 40 480
3 463 497 495
3 495 127 463
3 497 137 495
3 463 10 497
3 500 498 499
3 499 140 500
3 498 139 499
3 500 138 498
3 502 501 499
3 499 139 502
3 501 140 499
3 502 33 501
3 504 503 498
3 498 138 504
3 503 139 498
3 504 13 503
3 506 505 500
3 500 140 506
3 505 138 500
3 506 23 505
3 509 507 508
3 508 47 509
3 507 139 508
3 509 110 507
3 503 182 508
3 508 139 503
3 182 47 508
3 503 13 182
3 398 502 507
3 507 110 398
3 502 139 507
3 398 33 502
3 183 401 509
3 509 47 183
3 401 110 509
3 183 8 401
3 512 510 511
3 511 79 512
3 510 138 511
3 512 46 510
3 505 294 511
3 511 138 505
3 294 79 511
3 505 23 294
3 174 504 510
3 510 46 174
3 504 138 510
3 174 13 504
3 295 177 512
3 512 79 295
3 177 46 512
3 295 4 177
3 515 513 514
3 514 111 515
3 513 140 514
3 515 78 513
3 501 406 514
3 514 140 501
3 406 111 514
3 501 33 406
3 286 506 513
3 513 78 286
3 506 140 513
3 286 23 506
3 407 289 515
3 515 111 407
3 289 78 515
3 407 0 289
3 518 516 517
3 517 143 518
3 516 142 517
3 518 141 516
3 520 519 517
3 517 142 520
3 519 143 517
3 520 19 519
3 522 521 516
3 516 141 522
3 521 142 516
3 522 32 521
3 524 523 518
3 518 143 524
3 523 141 518
3 524 26 523
3 527 525 526
3 526 113 527
3 525 142 526
3 527 66 525
3 521 413 526
3 526 142 521
3 413 113 526
3 521 32 413
3 244 520 525
3 525 66 244
3 520 142 525
3 244 19 520
3 414 247 527
3 527 113 414
3 247 66 527
3 414 11 247
3 530 528 529
3 529 86 530
3 528 141 529
3 530 112 528
3 523 316 529
3 529 141 523
3 316 86 529
3 523 26 316
3 405 522 528
3 528 112 405
3 522 141 528
3 405 32 522
3 317 408 530
3 530 86 317
3 408 112 530
3 317 0 408
3 533 531 532
3 532 61 533
3 531 143 532
3 533 89 531
3 519 231 532
3 532 143 519
3 231 61 532
3 519 19 231
3 326 524 531
3 531 89 326
3 524 143 531
3 326 26 524
3 232 329 533
3 533 61 232
3 329 89 533
3 232 5 329
3 536 534 535
3 535 146 536
3 534 145 535
3 536 144 534
3 538 537 535
3 535 145 538
3 537 146 535
3 538 22 537
3 540 539 534
3 534 144 540
3 539 145 534
3 540 16 539
3 542 541 536
3 536 146 542
3 541 144 536
3 542 39 541
3 545 543 544
3 544 54 545
3 543 145 544
3 545 80 543
3 539 204 544
3 544 145 539
3 204 54 544
3 539 16 204
3 293 538 543
3 543 80 293
3 538 145 543
3 293 22 538
3 205 296 545
3 545 54 205
3 296 80 545
3 205 4 296
3 548 546 547
3 547 125 548
3 546 144 547
3 548 57 546
3 541 455 547
3 547 144 541
3 455 125 547
3 541 39 455
3 214 540 546
3 546 57 214
3 540 144 546
3 214 16 540
3 456 217 548
3 548 125 456
3 217 57 548
3 456 9 217
3 551 549 550
3 550 81 551
3 549 146 550
3 551 130 549
3 537 301 550
3 550 146 537
3 301 81 550
3 537 22 301
3 468 542 549
3 549 130 468
3 542 146 549
3 468 39 542
3 302 471 551
3 551 81 302
3 471 130 551
3 302 3 471
3 554 552 553
3 553 149 554
3 552 148 553
3 554 147 552
3 556 555 553
3 553 148 556
3 555 149 553
3 556 21 555
3 558 557 552
3 552 147 558
3 557 148 552
3 558 25 557
3 560 559 554
3 554 149 560
3 559 147 554
3 560 37 559
3 563 561 562
3 562 88 563
3 561 148 562
3 563 70 561
3 557 327 562
3 562 148 557
3 327 88 562
3 557 25 327
3 260 556 561
3 561 70 260
3 556 148 561
3 260 21 556
3 328 261 563
3 563 88 328
3 261 70 563
3 328 5 261
3 566 564 565
3 565 129 566
3 564 147 565
3 566 87 564
3 559 469 565
3 565 147 559
3 469 129 565
3 559 37 469
3 321 558 564
3 564 87 321
3 558 147 564
3 321 25 558
3 470 322 566
3 566 129 470
3 322 87 566
3 470 3 322
3 569 567 568
3 568 71 569
3 567 149 568
3 569 128 567
3 555 266 568
3 568 149 555
3 266 71 568
3 555 21 266
3 461 560 567
3 567 128 461
3 560 149 567
3 461 37 560
3 267 464 569
3 569 71 267
3 464 128 569
3 267 10 464
3 572 570 571
3 571 152 572
3 570 151 571
3 572 150 570
3 574 573 571
3 571 151 574
3 573 152 571
3 574 27 573
3 576 575 570
3 570 150 576
3 575 151 570
3 576 12 575
3 578 577 572
3 572 152 578
3 577 150 572
3 578 36 577
3 581 579 580
3 580 49 581
3 579 151 580
3 581 96 579
3 575 189 580
3 580 151 575
3 189 49 580
3 575 12 189
3 349 574 579
3 579 96 349
3 574 151 579
3 349 27 574
3 190 352 581
3 581 49 190
3 352 96 581
3 190 7 352
3 584 582 583
3 583 118 584
3 582 150 583
3 584 48 582
3 577 428 583
3 583 150 577
3 428 118 583
3 577 36 428
3 181 576 582
3 582 48 181
3 576 150 582
3 181 12 576
3 429 184 584
3 584 118 429
3 184 48 584
3 429 8 184
3 587 585 586
3 586 97 587
3 585 152 586
3 587 121 585
3 573 357 586
3 586 152 573
3 357 97 586
3 573 27 357
3 438 578 585
3 585 121 438
3 578 152 585
3 438 36 578
3 358 441 587
3 587 97 358
3 441 121 587
3 358 1 441
3 590 588 589
3 589 155 590
3 588 154 589
3 590 153 588
3 592 591 589
3 589 154 592
3 591 155 589
3 592 17 591
3 594 593 588
3 588 153 594
3 593 154 588
3 594 30 593
3 596 595 590
3 590 155 596
3 595 153 590
3 596 35 595
3 599 597 598
3 598 104 599
3 597 154 598
3 599 64 597
3 593 383 598
3 598 154 593
3 383 104 598
3 593 30 383
3 237 592 597
3 597 64 237
3 592 154 597
3 237 17 592
3 384 240 599
3 599 104 384
3 240 64 599
3 384 6 240
3 602 600 601
3 601 120 602
3 600 153 601
3 602 103 600
3 595 439 601
3 601 153 595
3 439 120 601
3 595 35 439
3 377 594 600
3 600 103 377
3 594 153 600
3 377 30 594
3 440 378 602
3 602 120 440
3 378 103 602
3 440 1 378
3 605 603 604
3 604 65 605
3 603 155 604
3 605 119 603
3 591 245 604
3 604 155 591
3 245 65 604
3 591 17 245
3 433 596 603
3 603 119 433
3 596 155 603
3 433 35 596
3 246 434 605
3 605 65 246
3 434 119 605
3 246 11 434
3 608 606 607
3 607 158 608
3 606 157 607
3 608 156 606
3 610 609 607
3 607 157 610
3 609 158 607
3 610 15 609
3 612 611 606
3 606 156 612
3 611 157 606
3 612 28 611
3 614 613 608
3 608 158 614
3 613 156 608
3 614 41 613
3 617 615 616
3 616 95 617
3 615 157 616
3 617 55 615
3 611 350 616
3 616 157 611
3 350 95 616
3 611 28 350
3 209 610 615
3 615 55 209
3 610 157 615
3 209 15 610
3 351 210 617
3 617 95 351
3 210 55 617
3 351 7 210
3 620 618 619
3 619 135 620
3 618 156 619
3 620 94 618
3 613 490 619
3 619 156 613
3 490 135 619
3 613 41 490
3 342 612 618
3 618 94 342
3 612 156 618
3 342 28 612
3 491 345 620
3 620 135 491
3 345 94 620
3 491 2 345
3 623 621 622
3 622 56 623
3 621 158 622
3 623 134 621
3 609 215 622
3 622 158 609
3 215 56 622
3 609 15 215
3 484 614 621
3 621 134 484
3 614 158 621
3 484 41 614
3 216 485 623
3 623 56 216
3 485 134 623
3 216 9 485
3 626 624 625
3 625 161 626
3 624 160 625
3 626 159 624
3 628 627 625
3 625 160 628
3 627 161 625
3 628 31 627
3 630 629 624
3 624 159 630
3 629 160 624
3 630 20 629
3 632 631 626
3 626 161 632
3 631 159 626
3 632 40 631
3 635 633 634
3 634 73 635
3 633 160 634
3 635 105 633
3 629 272 634
3 634 160 629
3 272 73 634
3 629 20 272
3 382 628 633
3 633 105 382
3 628 160 633
3 382 31 628
3 273 385 635
3 635 73 273
3 385 105 635
3 273 6 385
3 638 636 637
3 637 137 638
3 636 159 637
3 638 72 636
3 631 496 637
3 637 159 631
3 496 137 637
3 631 40 496
3 265 630 636
3 636 72 265
3 630 159 636
3 265 20 630
3 497 268 638
3 638 137 497
3 268 72 638
3 497 10 268
3 641 639 640
3 640 102 641
3 639 161 640
3 641 136 639
3 627 372 640
3 640 161 627
3 372 102 640
3 627 31 372
3 489 632 639
3 639 136 489
3 632 161 639
3 489 40 632
3 373 492 641
3 641 102 373
3 492 136 641
3 373 2 492
