# vtk DataFile Version 3.0
this file was written using fslvtkio
ASCII
DATASET POLYDATA
POINTS 642 float
124.78 141.125 101.882
117.546 142.578 104.198
116.29 135.936 102.141
123.092 134.935 100.871
121.551 138.98 103.808
122.977 137.507 97.5395
118.795 138.15 99.2454
117.611 139.669 105.892
121.935 144.17 106.227
118.754 133.549 104.326
119.652 132.746 99.0179
121.905 144.069 100.971
119.109 142.397 106.946
121.836 141.961 105.081
119.606 139.6 104.776
117.863 136.618 104.487
120.266 136.48 103.618
120.089 141.208 100.025
120.77 137.459 97.5593
122.597 141.101 99.1619
118.495 134.929 97.8397
122.101 134.398 96.7276
122.767 136.668 103.146
123.3 140.407 103.331
123.401 138.174 101.029
123.906 135.581 98.4158
124.079 139.864 99.6442
116.455 141.832 106.411
116.302 137.956 104.555
116.345 139.796 102.876
117.865 140.912 101.251
117.094 136.694 100.122
124.673 143.794 101.133
124.445 143.309 104.211
122.779 145.734 104.052
119.604 143.864 102.699
118.882 144.946 106.646
122.696 133.127 99.3324
118.609 131.916 102.435
121.489 133.722 102.588
116.645 133.197 100.549
116.12 133.655 104.13
120.612 142.165 105.982
120.629 140.928 104.832
119.447 141.19 105.689
120.586 139.351 104.123
121.496 140.576 104.201
122.086 143.018 105.746
120.494 143.318 106.893
118.427 141.103 106.326
118.497 139.746 105.253
119.093 137.989 105.216
120.192 137.772 104.684
119.121 136.633 104.176
121.264 137.434 104.301
117.845 138.019 105.396
118.093 135.134 104.099
119.361 135.142 103.557
120.601 139.378 98.9777
121.596 139.147 98.3882
121.331 141.08 99.4332
122.719 139.163 98.4035
121.929 137.426 97.2155
119.814 137.845 98.4017
119.413 139.699 99.5369
120.855 142.824 100.315
122.336 142.652 99.9589
120.144 134.639 96.9938
121.143 135.921 96.3486
119.59 136.23 97.2429
122.876 135.94 96.564
120.883 133.463 97.8362
118.845 133.463 98.1489
118.662 136.468 98.3126
122.952 138.656 103.081
123.343 139.217 102.234
123.23 137.512 102.14
123.822 139.77 101.416
124.085 140.782 102.695
122.154 139.95 103.285
122.458 137.668 104.002
122.663 135.938 101.942
123.099 136.526 100.945
123.207 136.818 99.836
123.914 138.812 100.255
123.539 137.704 99.0535
124.922 140.551 100.63
123.673 135.208 99.7806
123.618 136.696 97.7019
123.584 138.695 98.5342
116.06 140.035 105.564
116.253 139 103.906
116.1 140.979 104.771
116.535 137.84 102.46
116.166 136.887 103.287
116.81 138.728 105.538
116.895 140.638 106.685
116.999 142.361 105.373
116.776 141.259 103.547
116.733 140.329 101.887
116.78 138.142 101.443
117.411 138.876 100.677
116.511 136.213 101.041
117.728 141.768 102.614
118.314 139.615 100.235
117.811 137.429 99.4566
125.021 143.854 102.862
124.976 145.252 104.463
124.237 145.274 102.412
122.577 145.324 105.616
123.57 143.783 105.184
124.728 142.135 102.999
125.393 142.283 101.3
123.27 144.259 100.91
122.301 145.394 102.232
120.9 145.298 103.299
120.719 145.331 105.294
119.3 144.651 104.517
120.509 144.688 106.95
120.734 144.186 101.695
118.426 143.252 103.453
118.182 143.736 105.323
120.988 132.382 100.633
120.496 132.192 102.632
122.478 132.788 101.36
120.035 133.538 103.546
118.695 132.019 104.134
119.318 132.33 100.469
121.216 132.756 98.9969
123.349 133.909 100.382
122.424 134.474 101.765
115.965 133.07 102.475
116.777 131.915 103.796
117.302 132.016 101.481
117.358 133.418 104.782
115.885 134.835 102.925
116.136 134.572 101.39
117.955 132.597 99.725
122.505 141.186 104.215
123.211 142.68 104.692
123.929 141.732 103.902
125.122 142.014 99.9717
123.774 142.8 99.9333
123.679 140.863 99.2239
120.601 135.144 103.024
121.587 136.523 103.483
121.778 135.416 102.504
123.572 134.322 98.9125
123.779 134.981 97.19
122.492 133.588 97.8725
118.843 143.781 107.616
117.767 141.939 107.044
117.616 143.38 106.604
118.561 142.511 101.903
118.889 141.128 100.557
119.7 142.804 101.099
116.38 135.763 103.834
116.899 136.999 104.74
117 135.145 104.242
117.246 133.933 98.8394
117.592 135.704 98.9218
116.633 134.966 100.005
120.681 141.556 105.313
120.031 140.994 105.194
120.083 141.585 105.898
119.474 140.524 105.133
120.032 140.34 104.828
121.237 141.537 105.03
121.156 142.112 105.469
119.965 142.226 106.523
119.394 141.839 106.377
120.53 140.218 104.419
121.187 140.808 104.591
120.996 140.04 104.017
121.746 141.255 104.777
120.087 139.604 104.413
121.044 139.137 103.927
121.345 139.845 103.687
121.249 142.718 105.801
120.574 142.75 106.363
121.3 143.131 106.369
119.839 142.902 106.861
121.947 142.574 105.481
122.054 143.516 106.074
121.239 143.775 106.684
118.929 141.222 105.997
118.936 140.524 105.374
118.434 140.461 105.717
119.037 139.745 105.029
118.751 141.85 106.647
117.921 140.391 105.966
117.981 139.712 105.493
119.719 137.98 104.955
119.752 137.199 104.508
119.186 137.311 104.84
119.668 136.564 103.891
120.303 137.056 104.356
119.896 138.792 104.696
119.269 138.837 104.904
118.52 137.243 104.964
118.523 136.688 104.355
120.714 137.567 104.499
120.404 138.595 104.442
120.911 138.33 104.269
120.82 136.907 104.036
121.385 138.136 104.111
118.754 138.882 105.12
118.506 137.943 105.324
118.2 138.881 105.358
117.926 137.24 105.082
117.709 138.838 105.633
118.59 135.94 104.011
119.199 135.939 103.73
118.787 135.129 103.932
119.786 135.905 103.456
117.946 135.972 104.109
118.354 134.341 104.21
119.089 134.318 103.949
121.101 139.237 98.6412
121.497 140.182 98.9143
120.881 140.299 99.0835
121.945 141.006 99.234
122.02 140.193 98.7393
121.183 138.307 98.0605
120.651 138.43 98.3174
120.261 140.379 99.3776
120.696 141.066 99.7852
122.151 139.159 98.333
121.696 138.199 97.8051
122.315 138.196 97.8676
121.301 137.447 97.2484
122.656 140.218 98.7739
122.784 138.281 97.9105
122.527 137.477 97.3462
120.191 138.522 98.6852
119.991 139.525 99.2741
119.641 138.627 99.1146
119.708 140.467 99.7047
120.285 137.628 97.9925
119.342 137.944 98.8848
119.16 138.785 99.4458
121.119 141.899 99.8531
121.816 141.815 99.6452
121.578 142.71 100.098
122.446 141.786 99.6191
120.489 141.956 100.132
121.326 143.511 100.592
122.099 143.439 100.358
120.687 135.206 96.6412
120.354 136.159 96.8012
119.87 135.446 97.038
120.19 136.808 97.4161
120.854 136.745 96.9207
121.665 135.065 96.4632
121.066 134.459 96.7938
119.347 134.835 97.3016
119.12 135.546 97.4903
121.563 136.699 96.6527
122.061 135.842 96.3658
122.356 136.758 96.7326
122.58 135.077 96.4836
123.017 136.722 96.934
120.426 133.969 97.2382
119.383 134.076 97.3923
119.857 133.432 97.8296
118.546 134.179 97.8241
121.398 133.91 97.208
120.289 133.083 98.3816
119.362 132.962 98.5989
119.124 136.349 97.756
119.749 136.996 97.8925
119.243 137.156 98.4519
118.496 135.724 97.9294
118.849 137.362 98.8581
123.13 138.945 102.694
123.232 138.406 102.168
123.174 137.989 102.7
123.259 138.009 101.601
123.434 138.73 101.677
123.21 139.849 102.726
122.861 139.682 102.929
123.064 137.483 103.217
123.159 137.051 102.634
123.509 139.512 101.818
123.593 140.096 102.436
123.936 140.218 102.025
123.655 140.587 103.024
123.69 138.979 101.23
124.371 140.44 101.648
124.411 140.922 102.294
122.516 139.329 103.167
122.785 138.077 103.577
122.299 138.812 103.564
122.721 137.106 103.713
122.678 140.259 103.27
121.742 139.502 103.42
122.048 138.3 103.975
123.015 136.634 102.046
123.089 137.102 101.489
122.966 136.22 101.419
123.102 137.432 100.974
122.774 136.354 102.527
122.747 135.463 101.355
123.167 135.614 100.929
123.478 137.817 100.053
123.694 138.234 99.6778
123.375 137.196 99.4166
123.809 138.668 99.3021
124.038 139.249 99.9051
123.667 138.432 100.637
123.274 137.456 100.437
123.505 136.147 99.1605
123.471 136.641 98.7025
124.297 139.733 100.468
123.978 139.347 100.903
124.358 140.17 101.056
124.527 140.332 100.053
124.802 140.857 101.304
123.109 136.696 100.474
123.429 135.984 99.7933
123.408 135.814 100.484
123.812 135.368 99.1172
123.527 135.13 100.425
123.548 137.12 98.4646
123.581 138.186 98.7625
123.433 137.712 98.1957
123.802 139.141 99.0868
123.732 136.113 97.9837
123.349 137.151 97.594
123.162 138.192 98.0726
116.101 139.535 104.752
116.08 140.009 104.312
115.879 140.597 105.172
116.155 140.431 103.876
116.293 139.517 103.504
116.213 138.454 104.23
116.28 139.039 104.993
116.108 141.044 106.023
116.268 141.459 105.562
116.423 138.48 103.173
116.301 137.94 103.5
116.386 137.398 102.854
116.172 137.411 103.875
116.465 138.851 102.68
116.406 136.804 102.193
116.239 136.372 102.681
116.438 139.406 105.659
116.263 140.39 106.348
116.857 139.799 106.018
116.464 141.199 106.758
116.5 138.434 105.097
117.204 139.09 105.866
117.349 140.176 106.273
116.545 141.643 105.04
116.372 141.167 104.165
116.787 141.854 104.444
116.415 140.571 103.269
116.721 142.145 105.897
117.226 142.508 104.691
117.192 141.961 103.882
116.782 139.208 101.681
117.052 138.465 101.011
117.096 139.522 101.276
117.158 137.794 100.338
116.854 137.39 100.747
116.577 138.97 102.102
116.466 139.995 102.336
117.263 140.555 101.511
117.522 139.93 100.958
116.61 137.252 101.261
116.6 138.003 101.979
116.48 137.027 101.754
116.762 136.409 100.581
116.384 136.05 101.572
116.642 140.87 102.643
117.162 141.137 102.146
117.267 141.46 103.072
117.703 141.363 101.821
117.693 142.128 103.407
117.93 139.231 100.514
117.589 138.084 100.103
118.211 138.454 100.006
117.386 137.064 99.7238
118.075 140.282 100.748
118.646 138.774 99.8243
118.322 137.821 99.3869
125.353 144.639 103.601
124.826 145.52 103.34
124.879 144.628 102.526
123.783 145.801 103.267
124.117 145.723 104.111
125.127 144.178 104.477
125.008 143.624 103.695
124.984 143.973 101.904
124.475 144.623 101.711
123.832 145.458 105.017
124.472 144.573 105.14
123.304 144.712 105.571
124.263 143.562 104.861
122.847 145.661 104.836
122.257 144.698 106.031
122.702 143.943 105.722
125.014 143.029 102.939
125.23 143.247 102.08
125.148 142.294 102.165
125.191 143.247 101.245
124.484 142.876 103.626
124.753 141.59 102.411
125.166 141.639 101.668
123.737 144.961 101.683
123.293 145.479 102.436
122.839 144.867 101.589
122.64 145.734 103.183
123.999 144.191 101.069
122.566 144.115 100.913
122.083 144.715 101.557
120.843 145.373 104.275
119.877 145.165 104.958
120.025 144.996 103.914
119.031 144.977 105.56
119.781 145.271 106.055
121.697 145.558 104.595
121.756 145.564 103.696
120.189 144.737 103.053
119.493 144.414 103.541
120.58 145.261 106.155
121.728 145.476 105.368
121.537 145.04 106.255
119.752 144.985 106.998
121.217 144.453 106.708
121.701 145.513 102.75
120.808 144.912 102.481
121.494 144.855 101.937
120.252 144.097 102.257
121.32 144.099 101.263
118.911 143.924 103.923
118.632 144.301 104.905
118.328 143.447 104.324
118.436 144.504 105.963
119.003 143.593 103.07
117.91 142.901 103.836
117.762 143.183 104.77
120.71 132.188 101.665
121.599 132.286 101.954
121.756 132.474 100.924
122.087 132.977 102.148
121.233 132.775 102.623
119.635 132.036 102.476
119.837 132.144 101.557
121.94 132.605 99.9581
122.569 132.911 100.385
120.426 132.71 103.249
119.609 132.047 103.388
119.699 132.582 104.026
118.646 131.85 103.276
120.754 133.572 103.015
119.415 133.57 104.009
118.825 132.818 104.457
120.048 132.298 100.627
121.104 132.518 99.8171
120.27 132.528 99.7003
121.972 132.838 99.0937
118.964 132.116 101.453
119.467 132.525 99.6326
120.404 132.782 98.9396
123.018 133.318 100.914
122.601 133.483 101.798
122.936 134.17 101.148
122.032 133.939 102.136
123.123 133.43 99.9215
123.296 134.45 100.772
122.649 134.846 101.296
116.198 132.284 103.171
117.039 131.901 102.682
116.403 132.257 102.088
117.908 131.946 101.998
117.674 131.789 103.094
116.238 132.67 104.137
115.969 133.234 103.36
116.273 133.108 101.583
116.76 132.507 101.077
117.701 131.818 104.003
116.896 132.437 104.748
117.983 132.654 104.641
116.615 133.381 104.639
118.043 133.493 104.583
115.923 133.952 102.716
116.044 133.891 101.873
116.148 134.803 102.257
116.273 133.843 101.005
115.935 134.135 103.468
116.07 135.442 102.506
116.191 135.282 101.737
117.575 132.256 100.627
118.389 132.242 101.105
118.679 132.445 100.231
117.112 132.78 100.086
118.823 132.666 99.3316
122.9 141.878 104.443
123.65 142.255 104.269
123.248 141.51 104.145
124.126 142.608 104.013
123.953 142.991 104.616
122.538 142.292 104.844
122.261 141.631 104.684
122.989 140.823 103.859
123.604 141.083 103.719
123.489 143.142 105.016
122.692 142.755 105.242
122.899 143.264 105.609
121.937 140.967 104.256
122.274 140.643 103.634
121.749 140.298 103.619
123.946 141.186 103.346
124.38 141.979 103.507
124.42 141.386 102.892
124.535 142.622 99.9547
123.742 141.816 99.7786
124.245 141.534 99.8578
123.19 141.032 99.254
123.117 141.866 99.7546
124.266 143.463 100.51
125.014 143.003 100.491
124.541 141.049 99.8279
123.984 140.406 99.4151
122.998 142.653 99.9127
123.579 143.576 100.413
122.798 143.491 100.345
125.303 142.209 100.567
125.068 141.15 100.188
125.053 141.372 101.023
123.603 139.667 98.9574
123.165 140.096 98.8658
123.184 138.999 98.4089
121.009 135.928 103.051
121.674 136.038 102.992
121.23 135.238 102.753
122.287 136.13 102.808
122.266 136.58 103.488
120.957 136.453 103.544
120.371 135.865 103.197
120.937 134.391 102.75
121.576 134.513 102.448
122.147 137.026 103.972
121.449 136.967 103.954
121.84 137.666 104.127
120.037 135.182 103.332
120.333 134.271 103.163
119.665 134.33 103.529
121.947 134.824 102.089
122.245 135.708 102.229
122.342 135.249 101.753
123.864 134.569 97.9752
123.307 134.248 97.3673
123.237 133.863 98.3154
122.402 133.977 97.2567
122.949 134.718 96.9339
124.055 135.295 97.8259
123.911 134.916 98.7066
123.162 133.616 99.0692
122.596 133.265 98.5104
123.375 135.494 96.703
123.929 135.833 97.3431
123.51 136.447 97.0586
123.84 134.804 99.4577
123.386 133.996 99.6811
123.666 134.563 100.202
121.895 133.066 98.3297
121.712 133.5 97.7375
121.033 133.119 98.3485
118.329 142.92 107.17
117.68 142.691 106.924
118.033 143.934 107.415
117.105 142.551 106.443
117.066 141.828 106.964
118.401 142.248 106.971
119.021 142.962 107.382
118.789 144.576 107.405
118.083 144.264 106.602
117.378 141.219 106.885
118.119 141.456 106.77
117.713 140.762 106.432
119.696 143.339 107.267
119.622 144.351 107.507
120.482 143.966 107.04
117.909 143.687 106.004
117.314 142.883 105.979
117.469 143.065 105.325
118.748 141.919 101.177
119.336 141.984 100.832
119.102 142.774 101.509
119.879 141.962 100.491
119.502 141.169 100.294
118.351 141.031 100.92
118.211 141.722 101.533
119.035 143.231 102.318
119.673 143.484 101.893
119.113 140.488 99.9606
118.531 140.419 100.366
118.806 139.7 99.8079
118.097 142.114 102.24
118.47 142.937 102.668
118.104 142.485 103.047
120.219 143.532 101.435
120.162 142.766 100.571
120.687 143.556 100.88
116.653 136.459 104.201
116.984 136.14 104.143
116.579 135.277 104.153
117.346 135.933 104.135
117.358 136.733 104.728
116.517 137.502 104.761
116.295 136.922 104.109
116.066 134.646 103.962
116.52 134.331 104.418
117.349 137.497 105.161
116.829 137.832 105.208
117.264 138.306 105.552
116.249 136.38 103.595
115.989 135.147 103.501
116.099 135.823 103.041
117.082 134.282 104.493
117.545 135.231 104.118
117.74 134.35 104.35
117.326 134.894 98.7719
116.966 135.386 99.3605
116.8 134.434 99.3848
116.884 135.824 99.9977
117.31 136.122 99.499
117.932 135.302 98.332
117.792 134.5 98.3014
116.959 133.551 99.6579
116.597 134.108 100.173
117.731 136.569 99.1353
118.21 136.113 98.6179
118.296 137.001 98.9236
117.996 133.704 98.4236
117.457 133.167 99.2332
118.394 132.998 98.8936
116.33 134.598 100.66
116.525 135.482 100.486
116.275 135.341 101.066
POLYGONS 1280  5120
3 164 162 163
3 163 44 164
3 162 43 163
3 164 42 162
3 166 165 163
3 163 43 166
3 165 44 163
3 166 14 165
3 168 167 162
3 162 42 168
3 167 43 162
3 168 13 167
3 170 169 164
3 164 44 170
3 169 42 164
3 170 12 169
3 173 171 172
3 172 46 173
3 171 43 172
3 173 45 171
3 167 174 172
3 172 43 167
3 174 46 172
3 167 13 174
3 175 166 171
3 171 45 175
3 166 43 171
3 175 14 166
3 177 176 173
3 173 46 177
3 176 45 173
3 177 4 176
3 180 178 179
3 179 48 180
3 178 42 179
3 180 47 178
3 169 181 179
3 179 42 169
3 181 48 179
3 169 12 181
3 182 168 178
3 178 47 182
3 168 42 178
3 182 13 168
3 184 183 180
3 180 48 184
3 183 47 180
3 184 8 183
3 187 185 186
3 186 50 187
3 185 44 186
3 187 49 185
3 165 188 186
3 186 44 165
3 188 50 186
3 165 14 188
3 189 170 185
3 185 49 189
3 170 44 185
3 189 12 170
3 191 190 187
3 187 50 191
3 190 49 187
3 191 7 190
3 194 192 193
3 193 53 194
3 192 52 193
3 194 51 192
3 196 195 193
3 193 52 196
3 195 53 193
3 196 16 195
3 198 197 192
3 192 51 198
3 197 52 192
3 198 14 197
3 200 199 194
3 194 53 200
3 199 51 194
3 200 15 199
3 203 201 202
3 202 45 203
3 201 52 202
3 203 54 201
3 197 175 202
3 202 52 197
3 175 45 202
3 197 14 175
3 204 196 201
3 201 54 204
3 196 52 201
3 204 16 196
3 176 205 203
3 203 45 176
3 205 54 203
3 176 4 205
3 208 206 207
3 207 55 208
3 206 51 207
3 208 50 206
3 199 209 207
3 207 51 199
3 209 55 207
3 199 15 209
3 188 198 206
3 206 50 188
3 198 51 206
3 188 14 198
3 210 191 208
3 208 55 210
3 191 50 208
3 210 7 191
3 213 211 212
3 212 57 213
3 211 53 212
3 213 56 211
3 195 214 212
3 212 53 195
3 214 57 212
3 195 16 214
3 215 200 211
3 211 56 215
3 200 53 211
3 215 15 200
3 217 216 213
3 213 57 217
3 216 56 213
3 217 9 216
3 220 218 219
3 219 60 220
3 218 59 219
3 220 58 218
3 222 221 219
3 219 59 222
3 221 60 219
3 222 19 221
3 224 223 218
3 218 58 224
3 223 59 218
3 224 18 223
3 226 225 220
3 220 60 226
3 225 58 220
3 226 17 225
3 229 227 228
3 228 62 229
3 227 59 228
3 229 61 227
3 223 230 228
3 228 59 223
3 230 62 228
3 223 18 230
3 231 222 227
3 227 61 231
3 222 59 227
3 231 19 222
3 233 232 229
3 229 62 233
3 232 61 229
3 233 5 232
3 236 234 235
3 235 64 236
3 234 58 235
3 236 63 234
3 225 237 235
3 235 58 225
3 237 64 235
3 225 17 237
3 238 224 234
3 234 63 238
3 224 58 234
3 238 18 224
3 240 239 236
3 236 64 240
3 239 63 236
3 240 6 239
3 243 241 242
3 242 66 243
3 241 60 242
3 243 65 241
3 221 244 242
3 242 60 221
3 244 66 242
3 221 19 244
3 245 226 241
3 241 65 245
3 226 60 241
3 245 17 226
3 247 246 243
3 243 66 247
3 246 65 243
3 247 11 246
3 250 248 249
3 249 69 250
3 248 68 249
3 250 67 248
3 252 251 249
3 249 68 252
3 251 69 249
3 252 18 251
3 254 253 248
3 248 67 254
3 253 68 248
3 254 21 253
3 256 255 250
3 250 69 256
3 255 67 250
3 256 20 255
3 259 257 258
3 258 70 259
3 257 68 258
3 259 62 257
3 253 260 258
3 258 68 253
3 260 70 258
3 253 21 260
3 230 252 257
3 257 62 230
3 252 68 257
3 230 18 252
3 261 233 259
3 259 70 261
3 233 62 259
3 261 5 233
3 264 262 263
3 263 72 264
3 262 67 263
3 264 71 262
3 255 265 263
3 263 67 255
3 265 72 263
3 255 20 265
3 266 254 262
3 262 71 266
3 254 67 262
3 266 21 254
3 268 267 264
3 264 72 268
3 267 71 264
3 268 10 267
3 271 269 270
3 270 63 271
3 269 69 270
3 271 73 269
3 251 238 270
3 270 69 251
3 238 63 270
3 251 18 238
3 272 256 269
3 269 73 272
3 256 69 269
3 272 20 256
3 239 273 271
3 271 63 239
3 273 73 271
3 239 6 273
3 276 274 275
3 275 76 276
3 274 75 275
3 276 74 274
3 278 277 275
3 275 75 278
3 277 76 275
3 278 24 277
3 280 279 274
3 274 74 280
3 279 75 274
3 280 23 279
3 282 281 276
3 276 76 282
3 281 74 276
3 282 22 281
3 285 283 284
3 284 78 285
3 283 75 284
3 285 77 283
3 279 286 284
3 284 75 279
3 286 78 284
3 279 23 286
3 287 278 283
3 283 77 287
3 278 75 283
3 287 24 278
3 289 288 285
3 285 78 289
3 288 77 285
3 289 0 288
3 292 290 291
3 291 80 292
3 290 74 291
3 292 79 290
3 281 293 291
3 291 74 281
3 293 80 291
3 281 22 293
3 294 280 290
3 290 79 294
3 280 74 290
3 294 23 280
3 296 295 292
3 292 80 296
3 295 79 292
3 296 4 295
3 299 297 298
3 298 82 299
3 297 76 298
3 299 81 297
3 277 300 298
3 298 76 277
3 300 82 298
3 277 24 300
3 301 282 297
3 297 81 301
3 282 76 297
3 301 22 282
3 303 302 299
3 299 82 303
3 302 81 299
3 303 3 302
3 306 304 305
3 305 85 306
3 304 84 305
3 306 83 304
3 308 307 305
3 305 84 308
3 307 85 305
3 308 26 307
3 310 309 304
3 304 83 310
3 309 84 304
3 310 24 309
3 312 311 306
3 306 85 312
3 311 83 306
3 312 25 311
3 315 313 314
3 314 77 315
3 313 84 314
3 315 86 313
3 309 287 314
3 314 84 309
3 287 77 314
3 309 24 287
3 316 308 313
3 313 86 316
3 308 84 313
3 316 26 308
3 288 317 315
3 315 77 288
3 317 86 315
3 288 0 317
3 320 318 319
3 319 87 320
3 318 83 319
3 320 82 318
3 311 321 319
3 319 83 311
3 321 87 319
3 311 25 321
3 300 310 318
3 318 82 300
3 310 83 318
3 300 24 310
3 322 303 320
3 320 87 322
3 303 82 320
3 322 3 303
3 325 323 324
3 324 89 325
3 323 85 324
3 325 88 323
3 307 326 324
3 324 85 307
3 326 89 324
3 307 26 326
3 327 312 323
3 323 88 327
3 312 85 323
3 327 25 312
3 329 328 325
3 325 89 329
3 328 88 325
3 329 5 328
3 332 330 331
3 331 92 332
3 330 91 331
3 332 90 330
3 334 333 331
3 331 91 334
3 333 92 331
3 334 29 333
3 336 335 330
3 330 90 336
3 335 91 330
3 336 28 335
3 338 337 332
3 332 92 338
3 337 90 332
3 338 27 337
3 341 339 340
3 340 94 341
3 339 91 340
3 341 93 339
3 335 342 340
3 340 91 335
3 342 94 340
3 335 28 342
3 343 334 339
3 339 93 343
3 334 91 339
3 343 29 334
3 345 344 341
3 341 94 345
3 344 93 341
3 345 2 344
3 348 346 347
3 347 96 348
3 346 90 347
3 348 95 346
3 337 349 347
3 347 90 337
3 349 96 347
3 337 27 349
3 350 336 346
3 346 95 350
3 336 90 346
3 350 28 336
3 352 351 348
3 348 96 352
3 351 95 348
3 352 7 351
3 355 353 354
3 354 98 355
3 353 92 354
3 355 97 353
3 333 356 354
3 354 92 333
3 356 98 354
3 333 29 356
3 357 338 353
3 353 97 357
3 338 92 353
3 357 27 338
3 359 358 355
3 355 98 359
3 358 97 355
3 359 1 358
3 362 360 361
3 361 101 362
3 360 100 361
3 362 99 360
3 364 363 361
3 361 100 364
3 363 101 361
3 364 31 363
3 366 365 360
3 360 99 366
3 365 100 360
3 366 29 365
3 368 367 362
3 362 101 368
3 367 99 362
3 368 30 367
3 371 369 370
3 370 93 371
3 369 100 370
3 371 102 369
3 365 343 370
3 370 100 365
3 343 93 370
3 365 29 343
3 372 364 369
3 369 102 372
3 364 100 369
3 372 31 364
3 344 373 371
3 371 93 344
3 373 102 371
3 344 2 373
3 376 374 375
3 375 103 376
3 374 99 375
3 376 98 374
3 367 377 375
3 375 99 367
3 377 103 375
3 367 30 377
3 356 366 374
3 374 98 356
3 366 99 374
3 356 29 366
3 378 359 376
3 376 103 378
3 359 98 376
3 378 1 359
3 381 379 380
3 380 105 381
3 379 101 380
3 381 104 379
3 363 382 380
3 380 101 363
3 382 105 380
3 363 31 382
3 383 368 379
3 379 104 383
3 368 101 379
3 383 30 368
3 385 384 381
3 381 105 385
3 384 104 381
3 385 6 384
3 388 386 387
3 387 108 388
3 386 107 387
3 388 106 386
3 390 389 387
3 387 107 390
3 389 108 387
3 390 34 389
3 392 391 386
3 386 106 392
3 391 107 386
3 392 33 391
3 394 393 388
3 388 108 394
3 393 106 388
3 394 32 393
3 397 395 396
3 396 110 397
3 395 107 396
3 397 109 395
3 391 398 396
3 396 107 391
3 398 110 396
3 391 33 398
3 399 390 395
3 395 109 399
3 390 107 395
3 399 34 390
3 401 400 397
3 397 110 401
3 400 109 397
3 401 8 400
3 404 402 403
3 403 112 404
3 402 106 403
3 404 111 402
3 393 405 403
3 403 106 393
3 405 112 403
3 393 32 405
3 406 392 402
3 402 111 406
3 392 106 402
3 406 33 392
3 408 407 404
3 404 112 408
3 407 111 404
3 408 0 407
3 411 409 410
3 410 114 411
3 409 108 410
3 411 113 409
3 389 412 410
3 410 108 389
3 412 114 410
3 389 34 412
3 413 394 409
3 409 113 413
3 394 108 409
3 413 32 394
3 415 414 411
3 411 114 415
3 414 113 411
3 415 11 414
3 418 416 417
3 417 117 418
3 416 116 417
3 418 115 416
3 420 419 417
3 417 116 420
3 419 117 417
3 420 36 419
3 422 421 416
3 416 115 422
3 421 116 416
3 422 34 421
3 424 423 418
3 418 117 424
3 423 115 418
3 424 35 423
3 427 425 426
3 426 109 427
3 425 116 426
3 427 118 425
3 421 399 426
3 426 116 421
3 399 109 426
3 421 34 399
3 428 420 425
3 425 118 428
3 420 116 425
3 428 36 420
3 400 429 427
3 427 109 400
3 429 118 427
3 400 8 429
3 432 430 431
3 431 119 432
3 430 115 431
3 432 114 430
3 423 433 431
3 431 115 423
3 433 119 431
3 423 35 433
3 412 422 430
3 430 114 412
3 422 115 430
3 412 34 422
3 434 415 432
3 432 119 434
3 415 114 432
3 434 11 415
3 437 435 436
3 436 121 437
3 435 117 436
3 437 120 435
3 419 438 436
3 436 117 419
3 438 121 436
3 419 36 438
3 439 424 435
3 435 120 439
3 424 117 435
3 439 35 424
3 441 440 437
3 437 121 441
3 440 120 437
3 441 1 440
3 444 442 443
3 443 124 444
3 442 123 443
3 444 122 442
3 446 445 443
3 443 123 446
3 445 124 443
3 446 39 445
3 448 447 442
3 442 122 448
3 447 123 442
3 448 38 447
3 450 449 444
3 444 124 450
3 449 122 444
3 450 37 449
3 453 451 452
3 452 126 453
3 451 123 452
3 453 125 451
3 447 454 452
3 452 123 447
3 454 126 452
3 447 38 454
3 455 446 451
3 451 125 455
3 446 123 451
3 455 39 446
3 457 456 453
3 453 126 457
3 456 125 453
3 457 9 456
3 460 458 459
3 459 128 460
3 458 122 459
3 460 127 458
3 449 461 459
3 459 122 449
3 461 128 459
3 449 37 461
3 462 448 458
3 458 127 462
3 448 122 458
3 462 38 448
3 464 463 460
3 460 128 464
3 463 127 460
3 464 10 463
3 467 465 466
3 466 130 467
3 465 124 466
3 467 129 465
3 445 468 466
3 466 124 445
3 468 130 466
3 445 39 468
3 469 450 465
3 465 129 469
3 450 124 465
3 469 37 450
3 471 470 467
3 467 130 471
3 470 129 467
3 471 3 470
3 474 472 473
3 473 133 474
3 472 132 473
3 474 131 472
3 476 475 473
3 473 132 476
3 475 133 473
3 476 38 475
3 478 477 472
3 472 131 478
3 477 132 472
3 478 41 477
3 480 479 474
3 474 133 480
3 479 131 474
3 480 40 479
3 483 481 482
3 482 134 483
3 481 132 482
3 483 126 481
3 477 484 482
3 482 132 477
3 484 134 482
3 477 41 484
3 454 476 481
3 481 126 454
3 476 132 481
3 454 38 476
3 485 457 483
3 483 134 485
3 457 126 483
3 485 9 457
3 488 486 487
3 487 136 488
3 486 131 487
3 488 135 486
3 479 489 487
3 487 131 479
3 489 136 487
3 479 40 489
3 490 478 486
3 486 135 490
3 478 131 486
3 490 41 478
3 492 491 488
3 488 136 492
3 491 135 488
3 492 2 491
3 495 493 494
3 494 127 495
3 493 133 494
3 495 137 493
3 475 462 494
3 494 133 475
3 462 127 494
3 475 38 462
3 496 480 493
3 493 137 496
3 480 133 493
3 496 40 480
3 463 497 495
3 495 127 463
3 497 137 495
3 463 10 497
3 500 498 499
3 499 140 500
3 498 139 499
3 500 138 498
3 502 501 499
3 499 139 502
3 501 140 499
3 502 33 501
3 504 503 498
3 498 138 504
3 503 139 498
3 504 13 503
3 506 505 500
3 500 140 506
3 505 138 500
3 506 23 505
3 509 507 508
3 508 47 509
3 507 139 508
3 509 110 507
3 503 182 508
3 508 139 503
3 182 47 508
3 503 13 182
3 398 502 507
3 507 110 398
3 502 139 507
3 398 33 502
3 183 401 509
3 509 47 183
3 401 110 509
3 183 8 401
3 512 510 511
3 511 79 512
3 510 138 511
3 512 46 510
3 505 294 511
3 511 138 505
3 294 79 511
3 505 23 294
3 174 504 510
3 510 46 174
3 504 138 510
3 174 13 504
3 295 177 512
3 512 79 295
3 177 46 512
3 295 4 177
3 515 513 514
3 514 111 515
3 513 140 514
3 515 78 513
3 501 406 514
3 514 140 501
3 406 111 514
3 501 33 406
3 286 506 513
3 513 78 286
3 506 140 513
3 286 23 506
3 407 289 515
3 515 111 407
3 289 78 515
3 407 0 289
3 518 516 517
3 517 143 518
3 516 142 517
3 518 141 516
3 520 519 517
3 517 142 520
3 519 143 517
3 520 19 519
3 522 521 516
3 516 141 522
3 521 142 516
3 522 32 521
3 524 523 518
3 518 143 524
3 523 141 518
3 524 26 523
3 527 525 526
3 526 113 527
3 525 142 526
3 527 66 525
3 521 413 526
3 526 142 521
3 413 113 526
3 521 32 413
3 244 520 525
3 525 66 244
3 520 142 525
3 244 19 520
3 414 247 527
3 527 113 414
3 247 66 527
3 414 11 247
3 530 528 529
3 529 86 530
3 528 141 529
3 530 112 528
3 523 316 529
3 529 141 523
3 316 86 529
3 523 26 316
3 405 522 528
3 528 112 405
3 522 141 528
3 405 32 522
3 317 408 530
3 530 86 317
3 408 112 530
3 317 0 408
3 533 531 532
3 532 61 533
3 531 143 532
3 533 89 531
3 519 231 532
3 532 143 519
3 231 61 532
3 519 19 231
3 326 524 531
3 531 89 326
3 524 143 531
3 326 26 524
3 232 329 533
3 533 61 232
3 329 89 533
3 232 5 329
3 536 534 535
3 535 146 536
3 534 145 535
3 536 144 534
3 538 537 535
3 535 145 538
3 537 146 535
3 538 22 537
3 540 539 534
3 534 144 540
3 539 145 534
3 540 16 539
3 542 541 536
3 536 146 542
3 541 144 536
3 542 39 541
3 545 543 544
3 544 54 545
3 543 145 544
3 545 80 543
3 539 204 544
3 544 145 539
3 204 54 544
3 539 16 204
3 293 538 543
3 543 80 293
3 538 145 543
3 293 22 538
3 205 296 545
3 545 54 205
3 296 80 545
3 205 4 296
3 548 546 547
3 547 125 548
3 546 144 547
3 548 57 546
3 541 455 547
3 547 144 541
3 455 125 547
3 541 39 455
3 214 540 546
3 546 57 214
3 540 144 546
3 214 16 540
3 456 217 548
3 548 125 456
3 217 57 548
3 456 9 217
3 551 549 550
3 550 81 551
3 549 146 550
3 551 130 549
3 537 301 550
3 550 146 537
3 301 81 550
3 537 22 301
3 468 542 549
3 549 130 468
3 542 146 549
3 468 39 542
3 302 471 551
3 551 81 302
3 471 130 551
3 302 3 471
3 554 552 553
3 553 149 554
3 552 148 553
3 554 147 552
3 556 555 553
3 553 148 556
3 555 149 553
3 556 21 555
3 558 557 552
3 552 147 558
3 557 148 552
3 558 25 557
3 560 559 554
3 554 149 560
3 559 147 554
3 560 37 559
3 563 561 562
3 562 88 563
3 561 148 562
3 563 70 561
3 557 327 562
3 562 148 557
3 327 88 562
3 557 25 327
3 260 556 561
3 561 70 260
3 556 148 561
3 260 21 556
3 328 261 563
3 563 88 328
3 261 70 563
3 328 5 261
3 566 564 565
3 565 129 566
3 564 147 565
3 566 87 564
3 559 469 565
3 565 147 559
3 469 129 565
3 559 37 469
3 321 558 564
3 564 87 321
3 558 147 564
3 321 25 558
3 470 322 566
3 566 129 470
3 322 87 566
3 470 3 322
3 569 567 568
3 568 71 569
3 567 149 568
3 569 128 567
3 555 266 568
3 568 149 555
3 266 71 568
3 555 21 266
3 461 560 567
3 567 128 461
3 560 149 567
3 461 37 560
3 267 464 569
3 569 71 267
3 464 128 569
3 267 10 464
3 572 570 571
3 571 152 572
3 570 151 571
3 572 150 570
3 574 573 571
3 571 151 574
3 573 152 571
3 574 27 573
3 576 575 570
3 570 150 576
3 575 151 570
3 576 12 575
3 578 577 572
3 572 152 578
3 577 150 572
3 578 36 577
3 581 579 580
3 580 49 581
3 579 151 580
3 581 96 579
3 575 189 580
3 580 151 575
3 189 49 580
3 575 12 189
3 349 574 579
3 579 96 349
3 574 151 579
3 349 27 574
3 190 352 581
3 581 49 190
3 352 96 581
3 190 7 352
3 584 582 583
3 583 118 584
3 582 150 583
3 584 48 582
3 577 428 583
3 583 150 577
3 428 118 583
3 577 36 428
3 181 576 582
3 582 48 181
3 576 150 582
3 181 12 576
3 429 184 584
3 584 118 429
3 184 48 584
3 429 8 184
3 587 585 586
3 586 97 587
3 585 152 586
3 587 121 585
3 573 357 586
3 586 152 573
3 357 97 586
3 573 27 357
3 438 578 585
3 585 121 438
3 578 152 585
3 438 36 578
3 358 441 587
3 587 97 358
3 441 121 587
3 358 1 441
3 590 588 589
3 589 155 590
3 588 154 589
3 590 153 588
3 592 591 589
3 589 154 592
3 591 155 589
3 592 17 591
3 594 593 588
3 588 153 594
3 593 154 588
3 594 30 593
3 596 595 590
3 590 155 596
3 595 153 590
3 596 35 595
3 599 597 598
3 598 104 599
3 597 154 598
3 599 64 597
3 593 383 598
3 598 154 593
3 383 104 598
3 593 30 383
3 237 592 597
3 597 64 237
3 592 154 597
3 237 17 592
3 384 240 599
3 599 104 384
3 240 64 599
3 384 6 240
3 602 600 601
3 601 120 602
3 600 153 601
3 602 103 600
3 595 439 601
3 601 153 595
3 439 120 601
3 595 35 439
3 377 594 600
3 600 103 377
3 594 153 600
3 377 30 594
3 440 378 602
3 602 120 440
3 378 103 602
3 440 1 378
3 605 603 604
3 604 65 605
3 603 155 604
3 605 119 603
3 591 245 604
3 604 155 591
3 245 65 604
3 591 17 245
3 433 596 603
3 603 119 433
3 596 155 603
3 433 35 596
3 246 434 605
3 605 65 246
3 434 119 605
3 246 11 434
3 608 606 607
3 607 158 608
3 606 157 607
3 608 156 606
3 610 609 607
3 607 157 610
3 609 158 607
3 610 15 609
3 612 611 606
3 606 156 612
3 611 157 606
3 612 28 611
3 614 613 608
3 608 158 614
3 613 156 608
3 614 41 613
3 617 615 616
3 616 95 617
3 615 157 616
3 617 55 615
3 611 350 616
3 616 157 611
3 350 95 616
3 611 28 350
3 209 610 615
3 615 55 209
3 610 157 615
3 209 15 610
3 351 210 617
3 617 95 351
3 210 55 617
3 351 7 210
3 620 618 619
3 619 135 620
3 618 156 619
3 620 94 618
3 613 490 619
3 619 156 613
3 490 135 619
3 613 41 490
3 342 612 618
3 618 94 342
3 612 156 618
3 342 28 612
3 491 345 620
3 620 135 491
3 345 94 620
3 491 2 345
3 623 621 622
3 622 56 623
3 621 158 622
3 623 134 621
3 609 215 622
3 622 158 609
3 215 56 622
3 609 15 215
3 484 614 621
3 621 134 484
3 614 158 621
3 484 41 614
3 216 485 623
3 623 56 216
3 485 134 623
3 216 9 485
3 626 624 625
3 625 161 626
3 624 160 625
3 626 159 624
3 628 627 625
3 625 160 628
3 627 161 625
3 628 31 627
3 630 629 624
3 624 159 630
3 629 160 624
3 630 20 629
3 632 631 626
3 626 161 632
3 631 159 626
3 632 40 631
3 635 633 634
3 634 73 635
3 633 160 634
3 635 105 633
3 629 272 634
3 634 160 629
3 272 73 634
3 629 20 272
3 382 628 633
3 633 105 382
3 628 160 633
3 382 31 628
3 273 385 635
3 635 73 273
3 385 105 635
3 273 6 385
3 638 636 637
3 637 137 638
3 636 159 637
3 638 72 636
3 631 496 637
3 637 159 631
3 496 137 637
3 631 40 496
3 265 630 636
3 636 72 265
3 630 159 636
3 265 20 630
3 497 268 638
3 638 137 497
3 268 72 638
3 497 10 268
3 641 639 640
3 640 102 641
3 639 161 640
3 641 136 639
3 627 372 640
3 640 161 627
3 372 102 640
3 627 31 372
3 489 632 639
3 639 136 489
3 632 161 639
3 489 40 632
3 373 492 641
3 641 102 373
3 492 136 641
3 373 2 492
