# vtk DataFile Version 3.0
this file was written using fslvtkio
ASCII
DATASET POLYDATA
POINTS 642 float
128.325 113.091 77.7884
99.1636 109.15 74.988
106.172 95.1996 67.8761
125.414 97.1667 70.7834
123.456 100.948 95.0829
123.704 102.887 55.2267
110.111 101.014 51.1802
104.758 99.0492 92.9648
113.262 112.322 86.3678
115.347 91.9354 77.3165
117.332 89.9874 57.0049
114.101 115.807 69.2408
107.801 104.768 93.4401
118.669 106.106 94.2026
113.244 99.0051 98.7021
110.186 94.0472 87.562
119.143 94.4093 88.6742
112.219 107.992 60.5532
118.26 101.56 45.452
119.355 109.716 61.8328
113.557 94.4939 47.6724
123.364 94.7005 49.7605
124.427 99.857 83.3346
127.238 108.341 88.9301
126.054 106.177 75.0146
125.769 99.1324 61.4762
124.82 109.772 67.6305
100.259 105.177 86.3407
105.317 98.1241 81.1866
103.97 103.399 71.8315
105.805 106.563 64.7736
107.398 96.5363 57.5459
122.243 118 73.7547
122.487 115.389 85.5029
112.542 118.177 80.052
105.217 115.199 71.9852
103.617 113.365 84.6123
123.448 92.0174 62.8874
115.495 88.2011 68.6955
120.992 92.2578 73.8804
110.26 90.5678 59.5889
110.642 92.1008 72.906
113.186 105.375 93.6223
116.615 103.757 99.8857
109.354 102.935 99.5046
119.912 98.9947 99.1393
122.94 105.073 97.9437
116.153 108.469 88.5269
110.856 107.724 88.1574
103.65 102.491 96.1682
107.574 97.6481 97.7282
111.201 95.0543 94.1372
116.897 95.76 94.7755
114.465 94.1747 88.8925
121.499 96.7238 92.5361
107.314 95.6268 90.9677
112.895 93.0083 82.7198
117.167 93.5569 83.2784
115.243 104.07 52.299
118.747 104.732 53.5875
116.012 107.594 60.416
121.229 105.492 57.364
121.518 102.281 49.6152
114.053 101.058 46.6429
111.78 104.279 54.537
112.77 112.853 64.6804
117.162 113.875 65.2785
118.605 95.9047 47.9148
121.995 98.9763 45.2365
115.921 98.4411 43.1586
124.013 98.7875 51.1831
120.553 91.0926 52.5088
115.583 90.6815 51.4508
111.286 97.1441 46.8754
125.72 104.572 86.2198
127.23 106.942 81.4753
125.232 102.667 79.176
128.381 109.575 76.2275
127.834 110.584 82.7496
125.953 105.162 93.0402
123.799 100.793 89.3255
124.617 98.7281 76.7363
125.078 101.123 72.6432
125.432 102.309 68.2676
125.688 108.427 71.5712
123.61 104.139 65.1528
128.089 112.184 72.135
125.7 98.4303 66.2822
124.814 100.777 58.1622
122.627 105.599 61.9737
102.85 101.893 84.1881
104.109 100.285 76.6741
101.664 103.927 78.8611
105.828 99.0743 70.1143
106.067 96.6299 74.4379
105.433 98.9656 87.2964
101.53 102.14 90.891
99.6065 107.164 80.271
100.373 106.04 73.6115
104.732 105.157 68.6044
106.52 99.7392 64.7164
108.22 101.537 60.9879
106.033 95.8649 62.7129
100.926 108.352 69.4129
108.815 103.272 57.494
108.486 98.2848 53.335
123.114 119.077 80.6757
118.102 118.746 83.7054
117.936 119.612 77.482
112.456 116.592 84.3208
117.808 114.288 86.7347
126.453 115.475 82.2225
125.997 116.333 75.98
118.083 117.573 71.3318
113.134 117.321 74.6554
108.091 117.611 76.5771
106.916 117.523 82.927
103.173 116.145 78.9161
108.308 113.326 86.3153
109.696 116.145 70.1975
101.606 112.747 73.4354
100.062 112.208 80.2971
120.446 89.3694 66.3669
120.531 86.4519 70.7775
124.086 89.5245 68.5958
118.387 91.2748 75.8644
115.533 86.9845 72.6522
116.288 90.5077 63.6313
120.521 90.8709 59.577
125.185 93.851 66.3813
124.077 93.9983 72.8896
110.129 90.3646 67.1211
111.385 85.9673 69.8484
112.61 88.8313 65.1041
112.777 91.1914 75.3981
107.355 92.861 70.6844
107.584 92.045 63.5269
113.702 90.5311 57.5924
123.621 107.729 92.5042
120.359 109.523 87.7804
125.221 111.616 86.6402
124.707 114.425 70.2191
120.927 114.968 67.5759
122.395 110.343 64.3438
120.479 93.507 81.282
122.208 96.9469 86.2715
123.313 95.6574 79.0314
126.37 94.888 61.5258
125.199 96.3224 55.3182
123.96 92.1797 56.0517
106.66 108.007 86.7432
103.189 105.232 91.0254
101.753 109.097 85.0868
104.418 111.275 67.4675
108.658 107.63 61.8175
108.413 112.932 65.5775
107.561 94.4945 77.5973
107.415 95.7844 84.4905
109.908 92.8784 80.2876
111.235 90.4616 52.4836
109.595 94.1468 51.2113
107.796 92.7207 57.7612
114.548 104.519 96.7808
112.962 103.467 98.934
111.496 104.003 96.511
111.292 101.206 99.982
114.872 101.458 99.7373
117.605 104.771 97.1094
115.965 105.654 93.9424
110.39 105.063 93.5495
108.482 103.555 96.5213
118.445 101.702 100.55
119.896 104.259 99.3877
121.442 102.169 99.897
120.495 105.253 96.3974
116.731 99.3814 99.3682
122.057 99.9045 97.4786
123.622 102.672 97.5696
114.751 106.681 91.0792
112.002 106.267 90.8682
113.49 108.141 88.2665
109.482 106.066 90.6462
117.223 107.059 91.3464
114.77 110.434 87.1602
111.983 110.115 86.9463
106.468 102.269 98.4558
108.095 100.164 99.9348
105.536 100.065 98.3048
110.238 98.2379 99.0136
105.778 103.454 95.3298
103.948 100.25 95.5428
105.806 98.374 95.7651
113.946 95.9282 94.653
115.719 94.4226 91.9605
112.904 93.6341 91.7914
116.887 94.2288 89.0112
118.126 94.2254 91.92
115.315 97.6333 97.2366
112 96.5485 97.2679
110.446 93.3406 90.982
112.217 93.8393 88.447
119.373 95.7344 93.8146
118.101 97.0859 97.4474
120.713 97.6238 96.0756
120.569 94.8912 90.727
122.446 98.7925 94.0445
109.439 95.9661 96.5753
109.068 94.9035 92.8776
107.326 96.511 94.5283
108.6 94.2441 89.455
106.016 97.3818 92.2116
113.566 94.3307 85.9544
115.969 94.5976 86.3752
114.917 93.4636 83.3326
117.932 94.6292 86.0097
111.804 93.9978 85.3693
114.327 92.6805 80.3318
116.084 92.9438 80.5709
117.023 104.146 52.6515
117.45 106.063 57.014
115.449 105.731 56.5599
117.556 108.517 60.7102
118.75 106.951 58.4348
118.449 103.322 49.4587
116.732 103.004 48.5893
113.924 105.945 57.0533
114.3 107.559 60.1445
120.028 105.451 55.4922
120.071 103.569 50.9678
121.585 104.171 53.285
119.941 102.01 47.2901
120.069 107.135 59.596
122.61 104.36 56.1452
122.824 102.758 52.4277
114.848 102.709 48.7901
113.612 104.381 53.4001
112.942 102.858 50.5531
112.223 105.849 57.4917
116.083 101.453 45.3787
112.112 101.249 48.9482
111.002 102.857 52.2684
114.442 110.279 62.3053
116.404 110.843 62.6217
115.055 112.565 64.6083
118.426 112.076 63.5037
112.249 110.767 62.3769
113.446 114.438 67.0961
115.647 114.94 67.2694
120.166 97.6936 46.1091
119.234 99.0596 43.4106
117.856 97.7343 45.4604
117.068 100.29 43.1521
120.281 100.648 44.5622
122.394 96.8928 47.3673
120.869 95.649 48.612
116.277 95.7826 47.3653
115.223 96.9779 45.6583
121.804 100.519 47.1336
123.023 98.588 48.1557
122.957 100.809 50.3889
124.113 96.8189 49.6636
124.03 100.984 53.1611
119.664 93.2702 49.8721
117.208 93.5646 49.546
118.124 90.95 51.2455
115.032 93.1493 49.0877
121.854 93.0999 50.8555
118.898 90.0851 54.3237
116.73 89.9796 53.8808
113.147 97.5585 44.4057
114.546 99.7233 44.3543
112.301 99.4106 46.7691
112.26 95.4842 46.5617
110.579 99.1773 49.0322
126.684 105.564 83.6874
126.208 104.955 80.107
125.475 103.76 82.4043
125.808 104.294 77.0794
126.668 106.361 78.2748
127.286 107.598 85.091
127.051 106.254 87.7507
124.899 102.556 84.6673
125.042 101.302 81.6265
127.546 108.331 78.5894
127.465 108.853 82.1527
128.54 109.924 79.2332
127.232 109.416 85.7075
126.818 107.997 76.0219
129.144 111.123 76.7456
128.545 111.82 80.1675
125.724 104.98 89.6164
124.495 102.772 87.7088
124.49 103.152 91.323
124.038 100.527 86.1869
127.565 106.723 91.2976
124.583 103.224 94.6091
123.737 100.9 92.3453
124.97 100.559 78.3502
125.073 102.15 76.0071
124.802 100.108 74.9168
125.496 103.451 73.8977
124.638 99.1765 80.1143
124.871 98.0022 73.5402
124.998 99.2801 71.6841
125.129 105.861 70.2373
124.095 106.515 68.8086
125.086 103.359 66.4821
123.771 107.087 66.8643
125.56 109.064 69.3617
125.712 107.563 73.2947
125.884 104.445 71.6364
125.583 100.817 64.9712
124.594 101.49 63.3354
127.824 110.119 71.3
127.135 109.134 73.7953
129.048 110.752 73.921
126.932 111.05 69.5929
128.504 112.694 74.8915
125.261 101.854 70.5204
125.468 100.12 66.9482
125.151 99.7374 69.339
125.777 98.9004 63.9383
125.567 97.8929 68.6698
123.667 102.086 61.9229
123.03 105.073 63.708
124.058 103.342 60.0777
123.643 107.741 64.9795
125.104 100.003 59.9827
124.409 101.968 56.6745
123.42 104.261 58.6503
103.433 101.043 80.1781
102.97 102.405 77.7209
102.164 102.734 81.3711
102.82 103.828 75.254
103.84 101.747 74.3018
104.538 99.1499 79.3052
104.187 100.249 82.7994
101.236 103.331 85.1855
100.88 104.358 82.5303
104.919 99.7871 73.3517
105.506 98.7295 75.9212
106.002 97.9154 72.4374
105.706 97.4813 77.7455
104.932 101.06 71.0716
106.011 97.1708 69.0579
106.165 96.0702 71.0303
104.209 100.582 86.0939
102.371 102.202 87.4805
103.672 100.861 89.4074
100.272 103.462 88.8325
105.335 98.6919 84.2
104.917 99.1615 90.1962
103.205 100.754 92.4899
100.484 105.402 79.7383
101.246 104.931 76.1535
99.6742 106.35 76.7561
102.677 104.817 73.4337
100.306 106.117 83.1052
98.9912 108.007 77.4819
98.9291 107.188 73.9453
106.294 102.862 66.7307
107.506 100.924 63.0242
106.876 103.545 65.1035
107.651 98.9027 59.3253
106.919 98.1136 61.3143
105.325 101.606 68.2537
104.69 104.467 70.1288
105.229 105.786 66.6458
107.305 104.152 63.2591
106.19 97.6723 63.7018
106.018 99.3854 67.5766
106.006 97.3103 66.3715
106.454 96.0228 60.0044
106.092 95.5642 65.4475
102.501 105.594 71.2432
102.378 106.45 68.9468
99.8275 106.715 71.0413
103.274 107.778 67.3342
99.5115 108.685 71.8907
108.213 102.462 59.2909
107.808 99.8239 57.1873
108.156 100.93 55.2549
108.083 97.535 55.6637
108.13 104.673 61.4706
109.032 102.437 54.1449
108.953 99.7266 51.9981
120.751 119.268 82.3092
118.148 119.37 80.6528
120.594 119.676 79.147
115.487 118.979 79.0811
115.496 118.754 81.8218
120.503 117.635 84.8414
122.865 118.018 83.7478
122.453 118.696 77.3831
120.322 119.001 76.0888
115.311 117.694 84.1092
117.852 116.905 85.6568
115.308 115.821 85.8162
120.156 115.028 86.1587
112.416 117.762 82.4096
112.707 114.697 85.5915
115.418 113.291 86.7098
125.028 117.635 81.7126
124.693 117.92 78.4329
126.456 116.355 79.2739
124.149 117.56 75.2155
124.717 116.064 84.2515
127.882 114.376 79.9147
127.484 114.807 76.6949
118.033 118.681 74.4603
115.541 118.526 76.1375
115.7 117.772 73.156
112.928 118.073 77.3783
120.167 118.064 72.6515
116.014 116.788 70.0224
113.571 116.747 71.7534
107.588 117.926 79.712
104.88 117.421 80.983
105.487 117.367 77.657
102.767 115.69 82.0147
104.68 115.986 83.8759
109.578 118.02 81.4094
110.155 118.061 78.5712
106.212 116.413 74.618
103.949 115.743 75.8215
107.245 115.799 84.9303
109.695 117.277 83.8641
109.987 115.467 85.7365
105.808 113.574 85.5131
110.884 112.831 86.6094
110.662 117.629 75.7247
108.664 116.7 73.6288
111.101 116.743 72.751
107.31 116.061 71.0814
111.929 115.937 69.7048
101.943 114.455 76.4266
101.282 114.336 79.5984
100.301 112.674 76.9163
101.576 113.367 82.6692
103.373 114.185 73.0052
100.203 110.937 73.8672
99.3024 110.607 77.4826
120.799 86.7111 68.2467
123.609 86.2054 69.2174
122.749 87.8494 67.2487
122.974 89.2704 70.63
121.995 88.2091 71.4781
118.419 87.7536 69.9236
118.66 89.487 68.0072
122.03 90.1347 64.796
123.409 90.6232 66.3313
119.891 88.7127 73.0961
118.065 86.9474 72.1634
117.596 89.1338 74.2067
115.6 86.5298 70.2931
120.029 91.2131 74.4747
116.702 91.656 76.6583
115.469 89.2813 74.8621
118.479 90.6378 65.2794
120.341 90.4868 63.4213
118.579 90.5558 61.8841
122.023 91.3018 61.383
116.097 89.8793 66.7555
116.713 90.4078 60.2606
119.043 90.0857 58.2415
123.771 92.2171 67.8737
122.928 91.9356 70.3688
124.233 93.7117 69.7038
122.145 92.7427 73.0197
124.56 92.5146 64.7771
125.552 95.2869 68.544
125.085 95.5894 71.8611
110.088 87.8644 68.5705
111.795 86.092 67.3404
110.921 89.1794 65.8464
113.803 88.3122 67.1367
113.724 85.8055 68.8799
110.777 88.8801 70.7788
110.152 90.47 69.7933
110.004 90.3886 63.5132
111.386 90.026 62.3378
113.47 86.3071 71.4215
112.148 88.6683 72.2744
113.796 88.9274 73.9497
111.704 91.3455 73.7833
114.048 91.5247 76.8348
109.527 92.1527 68.6992
109.221 91.591 65.337
107.825 92.6651 67.2061
108.674 91.0449 61.3573
108.957 92.3414 71.9468
106.358 93.9357 69.4127
106.353 93.3107 65.8468
113.142 90.3959 61.753
114.338 89.662 64.6819
114.835 90.397 60.7541
111.929 90.4482 58.6101
115.503 90.2007 57.1907
121.712 108.327 90.1574
122.627 110.573 87.2225
124.048 109.277 89.0498
124.146 113.562 85.9369
121.512 112.565 86.6113
119.401 107.495 90.8896
121.093 106.732 93.4257
126.019 108.544 90.9507
126.37 110.184 87.5876
119.422 112.144 86.8381
118.297 109.081 88.0566
117.001 111.302 87.104
122.971 106.431 94.9619
126.266 107.359 93.5485
124.976 105.1 95.6698
127.013 111.603 85.0742
126.18 113.975 84.5658
127.501 113.105 82.3152
122.872 114.931 68.724
121.966 112.823 65.6435
123.75 112.692 67.2623
120.834 109.958 62.713
120.186 112.719 64.6004
121.58 116.566 70.6756
123.597 116.334 71.967
125.403 112.185 68.5963
123.601 110.244 66.1189
119.122 114.56 66.2708
119.683 116.536 69.4855
117.649 115.753 68.2601
125.284 115.59 73.1277
126.421 113.401 71.1923
127.088 114.317 73.9085
122.516 107.936 63.2922
121.178 107.526 61.3452
122.018 105.594 59.7527
121.119 95.3992 83.8015
122.732 96.2706 82.5962
122.01 94.433 80.235
123.721 97.7644 81.3472
123.374 98.2496 84.7074
120.706 95.7387 87.3855
119.568 94.8975 85.1385
121.022 92.9773 77.4306
122.725 93.5673 76.8117
123.019 98.7201 87.7985
121.918 96.7191 89.567
122.97 98.7534 91.0396
118.859 93.3377 82.5582
119.347 92.6681 78.1441
117.638 92.9258 79.4475
123.789 94.5443 75.7659
124.057 97.1918 77.9525
124.731 96.4113 74.7821
125.734 95.4729 58.2924
124.729 94.1817 55.1811
125.28 93.5067 58.4943
123.764 93.1098 52.6498
124.555 95.2994 52.2142
125.844 97.5913 58.392
126.277 96.9112 61.2129
125.368 93.1827 61.6822
123.795 92.0759 59.524
124.727 97.3372 52.8128
125.268 98.4596 56.4597
124.787 99.7407 54.6457
126.7 96.7478 63.8588
126.244 93.9323 63.88
126.282 96.0164 66.4197
122.31 91.0918 57.6373
122.439 91.4661 53.6656
120.675 90.3743 55.9636
105.165 106.369 88.7064
102.911 106.884 87.5083
104.305 108.667 86.1397
100.862 107.107 85.5303
101.214 105.411 88.9444
105.486 104.86 92.1855
107.297 106.067 90.054
105.215 110.765 85.7088
102.449 111.299 84.8342
100.356 104.267 91.5537
103.403 104.124 93.5256
101.893 102.12 93.6252
108.78 107.9 87.277
107.412 110.807 86.1611
109.793 110.53 86.7161
100.797 110.873 82.6612
100.322 108.312 82.8328
99.4376 109.584 80.0055
106.214 109.791 64.4404
108.209 110.411 63.274
106.396 112.276 66.3614
110.192 110.977 62.7719
110.55 107.767 61.0494
107.134 107.01 63.039
104.675 108.666 65.7218
104.715 113.542 69.5394
106.9 114.401 68.7077
110.715 105.579 58.6878
109.245 105.112 60.0286
110.096 103.945 55.8792
102.639 109.739 68.1684
103.098 112.247 70.5174
101.135 110.591 71.011
109.034 114.782 67.8953
110.618 113.054 64.8434
111.305 114.648 67.3111
107.529 95.2356 81.0648
108.887 94.4971 82.6212
108.597 93.4626 78.9005
110.24 94.0287 84.1743
108.778 94.7868 85.9996
106.158 96.7796 82.8204
106.342 96.2533 79.4468
108.5 92.5818 75.5253
109.906 92.114 76.5505
107.51 95.6421 87.91
106.432 97.1559 86.0317
106.159 97.2651 89.2493
106.673 95.5613 76.1397
107.582 93.4545 74.1078
106.667 94.6487 72.6654
111.3 92.1451 77.738
111.247 92.6866 81.8362
112.742 92.3381 79.1443
110.49 92.2167 51.1767
109.099 93.2046 54.1716
109.517 91.5693 54.5091
107.605 94.3884 57.1172
108.288 95.1216 54.3084
111.235 93.7327 48.8534
112.556 92.1569 49.5428
110.538 90.4343 56.0645
108.825 91.3115 58.0184
108.946 96.0752 52.1518
110.546 95.361 48.8119
109.803 97.3695 49.8853
113.455 91.0546 51.1626
112.245 90.1337 54.8729
114.548 90.1832 54.2974
107.409 92.1156 60.6475
106.521 93.9712 60.1811
106.178 93.6026 63.0898
POLYGONS 1280  5120
3 164 162 163
3 163 44 164
3 162 43 163
3 164 42 162
3 166 165 163
3 163 43 166
3 165 44 163
3 166 14 165
3 168 167 162
3 162 42 168
3 167 43 162
3 168 13 167
3 170 169 164
3 164 44 170
3 169 42 164
3 170 12 169
3 173 171 172
3 172 46 173
3 171 43 172
3 173 45 171
3 167 174 172
3 172 43 167
3 174 46 172
3 167 13 174
3 175 166 171
3 171 45 175
3 166 43 171
3 175 14 166
3 177 176 173
3 173 46 177
3 176 45 173
3 177 4 176
3 180 178 179
3 179 48 180
3 178 42 179
3 180 47 178
3 169 181 179
3 179 42 169
3 181 48 179
3 169 12 181
3 182 168 178
3 178 47 182
3 168 42 178
3 182 13 168
3 184 183 180
3 180 48 184
3 183 47 180
3 184 8 183
3 187 185 186
3 186 50 187
3 185 44 186
3 187 49 185
3 165 188 186
3 186 44 165
3 188 50 186
3 165 14 188
3 189 170 185
3 185 49 189
3 170 44 185
3 189 12 170
3 191 190 187
3 187 50 191
3 190 49 187
3 191 7 190
3 194 192 193
3 193 53 194
3 192 52 193
3 194 51 192
3 196 195 193
3 193 52 196
3 195 53 193
3 196 16 195
3 198 197 192
3 192 51 198
3 197 52 192
3 198 14 197
3 200 199 194
3 194 53 200
3 199 51 194
3 200 15 199
3 203 201 202
3 202 45 203
3 201 52 202
3 203 54 201
3 197 175 202
3 202 52 197
3 175 45 202
3 197 14 175
3 204 196 201
3 201 54 204
3 196 52 201
3 204 16 196
3 176 205 203
3 203 45 176
3 205 54 203
3 176 4 205
3 208 206 207
3 207 55 208
3 206 51 207
3 208 50 206
3 199 209 207
3 207 51 199
3 209 55 207
3 199 15 209
3 188 198 206
3 206 50 188
3 198 51 206
3 188 14 198
3 210 191 208
3 208 55 210
3 191 50 208
3 210 7 191
3 213 211 212
3 212 57 213
3 211 53 212
3 213 56 211
3 195 214 212
3 212 53 195
3 214 57 212
3 195 16 214
3 215 200 211
3 211 56 215
3 200 53 211
3 215 15 200
3 217 216 213
3 213 57 217
3 216 56 213
3 217 9 216
3 220 218 219
3 219 60 220
3 218 59 219
3 220 58 218
3 222 221 219
3 219 59 222
3 221 60 219
3 222 19 221
3 224 223 218
3 218 58 224
3 223 59 218
3 224 18 223
3 226 225 220
3 220 60 226
3 225 58 220
3 226 17 225
3 229 227 228
3 228 62 229
3 227 59 228
3 229 61 227
3 223 230 228
3 228 59 223
3 230 62 228
3 223 18 230
3 231 222 227
3 227 61 231
3 222 59 227
3 231 19 222
3 233 232 229
3 229 62 233
3 232 61 229
3 233 5 232
3 236 234 235
3 235 64 236
3 234 58 235
3 236 63 234
3 225 237 235
3 235 58 225
3 237 64 235
3 225 17 237
3 238 224 234
3 234 63 238
3 224 58 234
3 238 18 224
3 240 239 236
3 236 64 240
3 239 63 236
3 240 6 239
3 243 241 242
3 242 66 243
3 241 60 242
3 243 65 241
3 221 244 242
3 242 60 221
3 244 66 242
3 221 19 244
3 245 226 241
3 241 65 245
3 226 60 241
3 245 17 226
3 247 246 243
3 243 66 247
3 246 65 243
3 247 11 246
3 250 248 249
3 249 69 250
3 248 68 249
3 250 67 248
3 252 251 249
3 249 68 252
3 251 69 249
3 252 18 251
3 254 253 248
3 248 67 254
3 253 68 248
3 254 21 253
3 256 255 250
3 250 69 256
3 255 67 250
3 256 20 255
3 259 257 258
3 258 70 259
3 257 68 258
3 259 62 257
3 253 260 258
3 258 68 253
3 260 70 258
3 253 21 260
3 230 252 257
3 257 62 230
3 252 68 257
3 230 18 252
3 261 233 259
3 259 70 261
3 233 62 259
3 261 5 233
3 264 262 263
3 263 72 264
3 262 67 263
3 264 71 262
3 255 265 263
3 263 67 255
3 265 72 263
3 255 20 265
3 266 254 262
3 262 71 266
3 254 67 262
3 266 21 254
3 268 267 264
3 264 72 268
3 267 71 264
3 268 10 267
3 271 269 270
3 270 63 271
3 269 69 270
3 271 73 269
3 251 238 270
3 270 69 251
3 238 63 270
3 251 18 238
3 272 256 269
3 269 73 272
3 256 69 269
3 272 20 256
3 239 273 271
3 271 63 239
3 273 73 271
3 239 6 273
3 276 274 275
3 275 76 276
3 274 75 275
3 276 74 274
3 278 277 275
3 275 75 278
3 277 76 275
3 278 24 277
3 280 279 274
3 274 74 280
3 279 75 274
3 280 23 279
3 282 281 276
3 276 76 282
3 281 74 276
3 282 22 281
3 285 283 284
3 284 78 285
3 283 75 284
3 285 77 283
3 279 286 284
3 284 75 279
3 286 78 284
3 279 23 286
3 287 278 283
3 283 77 287
3 278 75 283
3 287 24 278
3 289 288 285
3 285 78 289
3 288 77 285
3 289 0 288
3 292 290 291
3 291 80 292
3 290 74 291
3 292 79 290
3 281 293 291
3 291 74 281
3 293 80 291
3 281 22 293
3 294 280 290
3 290 79 294
3 280 74 290
3 294 23 280
3 296 295 292
3 292 80 296
3 295 79 292
3 296 4 295
3 299 297 298
3 298 82 299
3 297 76 298
3 299 81 297
3 277 300 298
3 298 76 277
3 300 82 298
3 277 24 300
3 301 282 297
3 297 81 301
3 282 76 297
3 301 22 282
3 303 302 299
3 299 82 303
3 302 81 299
3 303 3 302
3 306 304 305
3 305 85 306
3 304 84 305
3 306 83 304
3 308 307 305
3 305 84 308
3 307 85 305
3 308 26 307
3 310 309 304
3 304 83 310
3 309 84 304
3 310 24 309
3 312 311 306
3 306 85 312
3 311 83 306
3 312 25 311
3 315 313 314
3 314 77 315
3 313 84 314
3 315 86 313
3 309 287 314
3 314 84 309
3 287 77 314
3 309 24 287
3 316 308 313
3 313 86 316
3 308 84 313
3 316 26 308
3 288 317 315
3 315 77 288
3 317 86 315
3 288 0 317
3 320 318 319
3 319 87 320
3 318 83 319
3 320 82 318
3 311 321 319
3 319 83 311
3 321 87 319
3 311 25 321
3 300 310 318
3 318 82 300
3 310 83 318
3 300 24 310
3 322 303 320
3 320 87 322
3 303 82 320
3 322 3 303
3 325 323 324
3 324 89 325
3 323 85 324
3 325 88 323
3 307 326 324
3 324 85 307
3 326 89 324
3 307 26 326
3 327 312 323
3 323 88 327
3 312 85 323
3 327 25 312
3 329 328 325
3 325 89 329
3 328 88 325
3 329 5 328
3 332 330 331
3 331 92 332
3 330 91 331
3 332 90 330
3 334 333 331
3 331 91 334
3 333 92 331
3 334 29 333
3 336 335 330
3 330 90 336
3 335 91 330
3 336 28 335
3 338 337 332
3 332 92 338
3 337 90 332
3 338 27 337
3 341 339 340
3 340 94 341
3 339 91 340
3 341 93 339
3 335 342 340
3 340 91 335
3 342 94 340
3 335 28 342
3 343 334 339
3 339 93 343
3 334 91 339
3 343 29 334
3 345 344 341
3 341 94 345
3 344 93 341
3 345 2 344
3 348 346 347
3 347 96 348
3 346 90 347
3 348 95 346
3 337 349 347
3 347 90 337
3 349 96 347
3 337 27 349
3 350 336 346
3 346 95 350
3 336 90 346
3 350 28 336
3 352 351 348
3 348 96 352
3 351 95 348
3 352 7 351
3 355 353 354
3 354 98 355
3 353 92 354
3 355 97 353
3 333 356 354
3 354 92 333
3 356 98 354
3 333 29 356
3 357 338 353
3 353 97 357
3 338 92 353
3 357 27 338
3 359 358 355
3 355 98 359
3 358 97 355
3 359 1 358
3 362 360 361
3 361 101 362
3 360 100 361
3 362 99 360
3 364 363 361
3 361 100 364
3 363 101 361
3 364 31 363
3 366 365 360
3 360 99 366
3 365 100 360
3 366 29 365
3 368 367 362
3 362 101 368
3 367 99 362
3 368 30 367
3 371 369 370
3 370 93 371
3 369 100 370
3 371 102 369
3 365 343 370
3 370 100 365
3 343 93 370
3 365 29 343
3 372 364 369
3 369 102 372
3 364 100 369
3 372 31 364
3 344 373 371
3 371 93 344
3 373 102 371
3 344 2 373
3 376 374 375
3 375 103 376
3 374 99 375
3 376 98 374
3 367 377 375
3 375 99 367
3 377 103 375
3 367 30 377
3 356 366 374
3 374 98 356
3 366 99 374
3 356 29 366
3 378 359 376
3 376 103 378
3 359 98 376
3 378 1 359
3 381 379 380
3 380 105 381
3 379 101 380
3 381 104 379
3 363 382 380
3 380 101 363
3 382 105 380
3 363 31 382
3 383 368 379
3 379 104 383
3 368 101 379
3 383 30 368
3 385 384 381
3 381 105 385
3 384 104 381
3 385 6 384
3 388 386 387
3 387 108 388
3 386 107 387
3 388 106 386
3 390 389 387
3 387 107 390
3 389 108 387
3 390 34 389
3 392 391 386
3 386 106 392
3 391 107 386
3 392 33 391
3 394 393 388
3 388 108 394
3 393 106 388
3 394 32 393
3 397 395 396
3 396 110 397
3 395 107 396
3 397 109 395
3 391 398 396
3 396 107 391
3 398 110 396
3 391 33 398
3 399 390 395
3 395 109 399
3 390 107 395
3 399 34 390
3 401 400 397
3 397 110 401
3 400 109 397
3 401 8 400
3 404 402 403
3 403 112 404
3 402 106 403
3 404 111 402
3 393 405 403
3 403 106 393
3 405 112 403
3 393 32 405
3 406 392 402
3 402 111 406
3 392 106 402
3 406 33 392
3 408 407 404
3 404 112 408
3 407 111 404
3 408 0 407
3 411 409 410
3 410 114 411
3 409 108 410
3 411 113 409
3 389 412 410
3 410 108 389
3 412 114 410
3 389 34 412
3 413 394 409
3 409 113 413
3 394 108 409
3 413 32 394
3 415 414 411
3 411 114 415
3 414 113 411
3 415 11 414
3 418 416 417
3 417 117 418
3 416 116 417
3 418 115 416
3 420 419 417
3 417 116 420
3 419 117 417
3 420 36 419
3 422 421 416
3 416 115 422
3 421 116 416
3 422 34 421
3 424 423 418
3 418 117 424
3 423 115 418
3 424 35 423
3 427 425 426
3 426 109 427
3 425 116 426
3 427 118 425
3 421 399 426
3 426 116 421
3 399 109 426
3 421 34 399
3 428 420 425
3 425 118 428
3 420 116 425
3 428 36 420
3 400 429 427
3 427 109 400
3 429 118 427
3 400 8 429
3 432 430 431
3 431 119 432
3 430 115 431
3 432 114 430
3 423 433 431
3 431 115 423
3 433 119 431
3 423 35 433
3 412 422 430
3 430 114 412
3 422 115 430
3 412 34 422
3 434 415 432
3 432 119 434
3 415 114 432
3 434 11 415
3 437 435 436
3 436 121 437
3 435 117 436
3 437 120 435
3 419 438 436
3 436 117 419
3 438 121 436
3 419 36 438
3 439 424 435
3 435 120 439
3 424 117 435
3 439 35 424
3 441 440 437
3 437 121 441
3 440 120 437
3 441 1 440
3 444 442 443
3 443 124 444
3 442 123 443
3 444 122 442
3 446 445 443
3 443 123 446
3 445 124 443
3 446 39 445
3 448 447 442
3 442 122 448
3 447 123 442
3 448 38 447
3 450 449 444
3 444 124 450
3 449 122 444
3 450 37 449
3 453 451 452
3 452 126 453
3 451 123 452
3 453 125 451
3 447 454 452
3 452 123 447
3 454 126 452
3 447 38 454
3 455 446 451
3 451 125 455
3 446 123 451
3 455 39 446
3 457 456 453
3 453 126 457
3 456 125 453
3 457 9 456
3 460 458 459
3 459 128 460
3 458 122 459
3 460 127 458
3 449 461 459
3 459 122 449
3 461 128 459
3 449 37 461
3 462 448 458
3 458 127 462
3 448 122 458
3 462 38 448
3 464 463 460
3 460 128 464
3 463 127 460
3 464 10 463
3 467 465 466
3 466 130 467
3 465 124 466
3 467 129 465
3 445 468 466
3 466 124 445
3 468 130 466
3 445 39 468
3 469 450 465
3 465 129 469
3 450 124 465
3 469 37 450
3 471 470 467
3 467 130 471
3 470 129 467
3 471 3 470
3 474 472 473
3 473 133 474
3 472 132 473
3 474 131 472
3 476 475 473
3 473 132 476
3 475 133 473
3 476 38 475
3 478 477 472
3 472 131 478
3 477 132 472
3 478 41 477
3 480 479 474
3 474 133 480
3 479 131 474
3 480 40 479
3 483 481 482
3 482 134 483
3 481 132 482
3 483 126 481
3 477 484 482
3 482 132 477
3 484 134 482
3 477 41 484
3 454 476 481
3 481 126 454
3 476 132 481
3 454 38 476
3 485 457 483
3 483 134 485
3 457 126 483
3 485 9 457
3 488 486 487
3 487 136 488
3 486 131 487
3 488 135 486
3 479 489 487
3 487 131 479
3 489 136 487
3 479 40 489
3 490 478 486
3 486 135 490
3 478 131 486
3 490 41 478
3 492 491 488
3 488 136 492
3 491 135 488
3 492 2 491
3 495 493 494
3 494 127 495
3 493 133 494
3 495 137 493
3 475 462 494
3 494 133 475
3 462 127 494
3 475 38 462
3 496 480 493
3 493 137 496
3 480 133 493
3 496 40 480
3 463 497 495
3 495 127 463
3 497 137 495
3 463 10 497
3 500 498 499
3 499 140 500
3 498 139 499
3 500 138 498
3 502 501 499
3 499 139 502
3 501 140 499
3 502 33 501
3 504 503 498
3 498 138 504
3 503 139 498
3 504 13 503
3 506 505 500
3 500 140 506
3 505 138 500
3 506 23 505
3 509 507 508
3 508 47 509
3 507 139 508
3 509 110 507
3 503 182 508
3 508 139 503
3 182 47 508
3 503 13 182
3 398 502 507
3 507 110 398
3 502 139 507
3 398 33 502
3 183 401 509
3 509 47 183
3 401 110 509
3 183 8 401
3 512 510 511
3 511 79 512
3 510 138 511
3 512 46 510
3 505 294 511
3 511 138 505
3 294 79 511
3 505 23 294
3 174 504 510
3 510 46 174
3 504 138 510
3 174 13 504
3 295 177 512
3 512 79 295
3 177 46 512
3 295 4 177
3 515 513 514
3 514 111 515
3 513 140 514
3 515 78 513
3 501 406 514
3 514 140 501
3 406 111 514
3 501 33 406
3 286 506 513
3 513 78 286
3 506 140 513
3 286 23 506
3 407 289 515
3 515 111 407
3 289 78 515
3 407 0 289
3 518 516 517
3 517 143 518
3 516 142 517
3 518 141 516
3 520 519 517
3 517 142 520
3 519 143 517
3 520 19 519
3 522 521 516
3 516 141 522
3 521 142 516
3 522 32 521
3 524 523 518
3 518 143 524
3 523 141 518
3 524 26 523
3 527 525 526
3 526 113 527
3 525 142 526
3 527 66 525
3 521 413 526
3 526 142 521
3 413 113 526
3 521 32 413
3 244 520 525
3 525 66 244
3 520 142 525
3 244 19 520
3 414 247 527
3 527 113 414
3 247 66 527
3 414 11 247
3 530 528 529
3 529 86 530
3 528 141 529
3 530 112 528
3 523 316 529
3 529 141 523
3 316 86 529
3 523 26 316
3 405 522 528
3 528 112 405
3 522 141 528
3 405 32 522
3 317 408 530
3 530 86 317
3 408 112 530
3 317 0 408
3 533 531 532
3 532 61 533
3 531 143 532
3 533 89 531
3 519 231 532
3 532 143 519
3 231 61 532
3 519 19 231
3 326 524 531
3 531 89 326
3 524 143 531
3 326 26 524
3 232 329 533
3 533 61 232
3 329 89 533
3 232 5 329
3 536 534 535
3 535 146 536
3 534 145 535
3 536 144 534
3 538 537 535
3 535 145 538
3 537 146 535
3 538 22 537
3 540 539 534
3 534 144 540
3 539 145 534
3 540 16 539
3 542 541 536
3 536 146 542
3 541 144 536
3 542 39 541
3 545 543 544
3 544 54 545
3 543 145 544
3 545 80 543
3 539 204 544
3 544 145 539
3 204 54 544
3 539 16 204
3 293 538 543
3 543 80 293
3 538 145 543
3 293 22 538
3 205 296 545
3 545 54 205
3 296 80 545
3 205 4 296
3 548 546 547
3 547 125 548
3 546 144 547
3 548 57 546
3 541 455 547
3 547 144 541
3 455 125 547
3 541 39 455
3 214 540 546
3 546 57 214
3 540 144 546
3 214 16 540
3 456 217 548
3 548 125 456
3 217 57 548
3 456 9 217
3 551 549 550
3 550 81 551
3 549 146 550
3 551 130 549
3 537 301 550
3 550 146 537
3 301 81 550
3 537 22 301
3 468 542 549
3 549 130 468
3 542 146 549
3 468 39 542
3 302 471 551
3 551 81 302
3 471 130 551
3 302 3 471
3 554 552 553
3 553 149 554
3 552 148 553
3 554 147 552
3 556 555 553
3 553 148 556
3 555 149 553
3 556 21 555
3 558 557 552
3 552 147 558
3 557 148 552
3 558 25 557
3 560 559 554
3 554 149 560
3 559 147 554
3 560 37 559
3 563 561 562
3 562 88 563
3 561 148 562
3 563 70 561
3 557 327 562
3 562 148 557
3 327 88 562
3 557 25 327
3 260 556 561
3 561 70 260
3 556 148 561
3 260 21 556
3 328 261 563
3 563 88 328
3 261 70 563
3 328 5 261
3 566 564 565
3 565 129 566
3 564 147 565
3 566 87 564
3 559 469 565
3 565 147 559
3 469 129 565
3 559 37 469
3 321 558 564
3 564 87 321
3 558 147 564
3 321 25 558
3 470 322 566
3 566 129 470
3 322 87 566
3 470 3 322
3 569 567 568
3 568 71 569
3 567 149 568
3 569 128 567
3 555 266 568
3 568 149 555
3 266 71 568
3 555 21 266
3 461 560 567
3 567 128 461
3 560 149 567
3 461 37 560
3 267 464 569
3 569 71 267
3 464 128 569
3 267 10 464
3 572 570 571
3 571 152 572
3 570 151 571
3 572 150 570
3 574 573 571
3 571 151 574
3 573 152 571
3 574 27 573
3 576 575 570
3 570 150 576
3 575 151 570
3 576 12 575
3 578 577 572
3 572 152 578
3 577 150 572
3 578 36 577
3 581 579 580
3 580 49 581
3 579 151 580
3 581 96 579
3 575 189 580
3 580 151 575
3 189 49 580
3 575 12 189
3 349 574 579
3 579 96 349
3 574 151 579
3 349 27 574
3 190 352 581
3 581 49 190
3 352 96 581
3 190 7 352
3 584 582 583
3 583 118 584
3 582 150 583
3 584 48 582
3 577 428 583
3 583 150 577
3 428 118 583
3 577 36 428
3 181 576 582
3 582 48 181
3 576 150 582
3 181 12 576
3 429 184 584
3 584 118 429
3 184 48 584
3 429 8 184
3 587 585 586
3 586 97 587
3 585 152 586
3 587 121 585
3 573 357 586
3 586 152 573
3 357 97 586
3 573 27 357
3 438 578 585
3 585 121 438
3 578 152 585
3 438 36 578
3 358 441 587
3 587 97 358
3 441 121 587
3 358 1 441
3 590 588 589
3 589 155 590
3 588 154 589
3 590 153 588
3 592 591 589
3 589 154 592
3 591 155 589
3 592 17 591
3 594 593 588
3 588 153 594
3 593 154 588
3 594 30 593
3 596 595 590
3 590 155 596
3 595 153 590
3 596 35 595
3 599 597 598
3 598 104 599
3 597 154 598
3 599 64 597
3 593 383 598
3 598 154 593
3 383 104 598
3 593 30 383
3 237 592 597
3 597 64 237
3 592 154 597
3 237 17 592
3 384 240 599
3 599 104 384
3 240 64 599
3 384 6 240
3 602 600 601
3 601 120 602
3 600 153 601
3 602 103 600
3 595 439 601
3 601 153 595
3 439 120 601
3 595 35 439
3 377 594 600
3 600 103 377
3 594 153 600
3 377 30 594
3 440 378 602
3 602 120 440
3 378 103 602
3 440 1 378
3 605 603 604
3 604 65 605
3 603 155 604
3 605 119 603
3 591 245 604
3 604 155 591
3 245 65 604
3 591 17 245
3 433 596 603
3 603 119 433
3 596 155 603
3 433 35 596
3 246 434 605
3 605 65 246
3 434 119 605
3 246 11 434
3 608 606 607
3 607 158 608
3 606 157 607
3 608 156 606
3 610 609 607
3 607 157 610
3 609 158 607
3 610 15 609
3 612 611 606
3 606 156 612
3 611 157 606
3 612 28 611
3 614 613 608
3 608 158 614
3 613 156 608
3 614 41 613
3 617 615 616
3 616 95 617
3 615 157 616
3 617 55 615
3 611 350 616
3 616 157 611
3 350 95 616
3 611 28 350
3 209 610 615
3 615 55 209
3 610 157 615
3 209 15 610
3 351 210 617
3 617 95 351
3 210 55 617
3 351 7 210
3 620 618 619
3 619 135 620
3 618 156 619
3 620 94 618
3 613 490 619
3 619 156 613
3 490 135 619
3 613 41 490
3 342 612 618
3 618 94 342
3 612 156 618
3 342 28 612
3 491 345 620
3 620 135 491
3 345 94 620
3 491 2 345
3 623 621 622
3 622 56 623
3 621 158 622
3 623 134 621
3 609 215 622
3 622 158 609
3 215 56 622
3 609 15 215
3 484 614 621
3 621 134 484
3 614 158 621
3 484 41 614
3 216 485 623
3 623 56 216
3 485 134 623
3 216 9 485
3 626 624 625
3 625 161 626
3 624 160 625
3 626 159 624
3 628 627 625
3 625 160 628
3 627 161 625
3 628 31 627
3 630 629 624
3 624 159 630
3 629 160 624
3 630 20 629
3 632 631 626
3 626 161 632
3 631 159 626
3 632 40 631
3 635 633 634
3 634 73 635
3 633 160 634
3 635 105 633
3 629 272 634
3 634 160 629
3 272 73 634
3 629 20 272
3 382 628 633
3 633 105 382
3 628 160 633
3 382 31 628
3 273 385 635
3 635 73 273
3 385 105 635
3 273 6 385
3 638 636 637
3 637 137 638
3 636 159 637
3 638 72 636
3 631 496 637
3 637 159 631
3 496 137 637
3 631 40 496
3 265 630 636
3 636 72 265
3 630 159 636
3 265 20 630
3 497 268 638
3 638 137 497
3 268 72 638
3 497 10 268
3 641 639 640
3 640 102 641
3 639 161 640
3 641 136 639
3 627 372 640
3 640 161 627
3 372 102 640
3 627 31 372
3 489 632 639
3 639 136 489
3 632 161 639
3 489 40 632
3 373 492 641
3 641 102 373
3 492 136 641
3 373 2 492
