# vtk DataFile Version 3.0
this file was written using fslvtkio
ASCII
DATASET POLYDATA
POINTS 642 float
141.403 130.483 92.1555
127.66 127.206 91.2895
128.566 121.854 89.758
140.729 124.604 89.5775
137.292 123.739 94.8983
139.963 129.124 84.02
131.376 127.186 85.1152
129.823 121.316 95.4232
133.848 127.693 94.816
134.582 119.347 91.9075
135.371 124.502 87.701
134.681 130.176 88.4496
131.137 124.786 96.2582
135.694 125.876 95.2825
133.893 121.838 96.5027
131.81 118.457 94.3845
136.543 120.469 94.2472
132.774 129.638 85.7147
135.377 128.417 83.4197
137.601 131.048 85.3934
133.634 125.905 86.043
137.908 126.211 84.8191
139.593 123.958 92.4192
139.787 127.017 93.8455
142.327 127.754 90.5291
141.531 126.867 86.4167
141.692 130.944 87.5521
127.691 124.101 93.872
127.46 119.878 92.2332
126.597 124.389 89.8086
128.654 127.755 87.6527
129.696 125.163 87.8022
138.383 131.015 90.1789
137.817 129.529 94.4675
134.3 129.554 92.0395
130.86 129.051 89.795
130.449 127.272 93.3367
138.311 124.746 88.3759
134.606 121.845 89.7546
138.105 121.515 90.7669
131.987 123.384 89.2893
130.807 119.225 90.6552
133.486 125.207 96.0657
134.714 123.836 96.4303
132.558 123.327 96.9084
135.876 122.809 95.932
136.586 124.779 95.2337
134.802 126.863 95.1767
132.448 126.319 95.5785
130.161 123.056 96.1494
131.61 121.355 96.4113
132.822 119.627 96.1663
135.372 120.86 95.7697
134.388 119.098 94.8687
137.362 122.052 94.868
130.497 119.505 95.2565
133.497 118.487 93.1607
135.957 119.349 92.9898
133.943 129.495 83.8433
136.423 130.244 83.4667
135.04 130.421 85.1447
139.096 130.619 84.2072
137.879 128.933 83.371
133.191 127.838 84.0547
131.833 128.641 85.0293
133.74 130.126 86.9571
136.054 130.727 86.9723
135.757 126.131 85.275
136.915 127.303 83.8633
134.517 126.857 84.2889
139.312 127.478 83.7647
136.557 125.535 86.4347
134.625 125.161 86.8202
132.442 126.525 85.3214
140.019 125.677 93.0559
141.439 127.51 92.3785
141.085 125.93 91.6076
142.283 129.441 91.4132
140.979 128.888 93.5009
138.326 125.468 94.0706
138.577 123.818 93.7938
140.389 124.138 90.97
141.671 125.926 89.9714
142.316 127.559 88.4257
142.713 129.465 89.0705
142.196 129.031 86.808
141.826 130.906 90.0416
141.223 125.704 88.1845
141.236 128.109 84.6907
141.107 130.273 85.4181
127.143 121.99 93.1258
125.994 121.725 91.0288
126.608 123.922 91.88
127.192 122.576 89.6407
127.385 120.213 90.2064
128.551 120.352 94.1576
128.645 122.715 94.7496
127.433 125.736 92.6802
126.856 126.001 90.6096
126.939 126.411 88.5653
127.942 124.783 88.7995
128.45 126.197 86.9577
129.048 123.55 89.2105
127.673 127.68 89.5253
129.835 127.61 85.9877
130.416 126.029 86.1546
138.201 130.596 92.534
136.164 129.695 93.2538
136.383 130.403 91.25
134.031 128.862 93.7333
135.809 128.708 94.9571
139.87 130.255 93.7015
140.181 131.05 91.3159
136.485 130.641 89.0914
134.514 129.992 90.2085
132.433 129.38 91.0466
132.139 128.7 92.9752
130.388 128.601 91.947
132.103 127.388 94.2797
132.861 129.602 89.0709
128.872 128.483 90.5994
128.596 127.476 92.6372
136.653 123.307 89.193
136.423 121.623 90.0981
138.331 123.178 89.7771
136.376 120.265 91.4344
134.529 120.311 90.5284
135.087 123.471 88.9411
136.878 124.82 87.9669
139.7 124.583 88.929
139.785 122.948 90.159
131.323 121.372 89.8935
132.701 120.66 90.1433
133.205 122.598 89.6549
132.717 119.048 91.2835
129.372 120.361 89.9249
130.196 122.605 89.7563
133.766 124.128 88.5646
137.7 126.541 94.5423
136.991 127.617 95.1305
139.168 128.382 94.6789
140.141 131.419 88.7681
138.166 131.289 87.7003
139.919 131.481 86.2681
137.703 120.608 92.5581
138.195 121.99 93.4615
139.286 122.159 91.9044
140.037 125.766 87.2444
139.976 126.472 85.3699
138.358 125.869 86.6795
130.405 125.994 95.0711
128.863 124.571 95.5784
128.632 125.978 94.1471
129.539 128.687 88.5942
130.709 128.669 86.7922
131.732 129.479 87.6679
128.905 118.771 91.2413
129.359 118.519 93.3726
131.085 118.081 92.3746
132.752 124.695 87.7151
131.683 125.432 87.0269
130.904 124.249 88.6226
134.079 124.603 96.2094
133.7 123.595 96.9017
132.975 124.411 96.5101
133.242 122.578 96.8573
134.357 122.988 96.7503
135.085 124.799 95.7738
134.609 125.477 95.674
132.348 125.022 96.2528
131.871 124.181 96.6041
135.295 123.405 96.4045
135.657 124.271 95.8553
136.174 123.761 95.7302
136.099 125.283 95.3318
134.974 122.292 96.37
136.652 123.321 95.407
136.95 124.196 95.0472
134.088 126.054 95.564
132.975 125.785 95.8769
133.611 126.521 95.3687
131.799 125.563 95.9398
135.229 126.449 95.2902
134.336 127.254 94.9591
133.24 126.998 95.0239
131.455 123.215 96.5359
132.164 122.363 96.644
131.046 122.317 96.3164
132.793 121.496 96.5078
130.615 123.932 96.3246
130.03 122.194 95.7379
130.646 121.273 95.9422
134.176 120.151 96.0018
134.933 119.802 95.5255
133.607 119.102 95.6694
135.628 119.662 94.6934
135.986 120.503 95.1513
134.631 121.198 96.2839
133.47 120.723 96.395
132.342 118.82 95.3841
133.01 118.668 94.7851
136.457 121.455 95.3097
135.675 121.756 96.0461
136.658 122.31 95.4704
137.052 121.226 94.6545
137.318 122.858 94.8266
132.241 120.48 96.3987
131.533 119.395 95.8685
131.117 120.329 95.9629
131.104 118.727 94.9378
130.077 120.346 95.4571
133.956 118.657 94.2479
135.327 119.137 94.0546
134.701 118.77 93.2435
136.416 119.709 93.7343
132.606 118.358 93.8662
134.075 118.945 92.5086
135.216 119.297 92.4863
135.09 129.983 83.4615
135.712 130.52 84.2302
134.448 130.104 84.3493
136.283 130.809 85.1345
137.027 130.862 84.3154
135.835 129.332 83.2253
134.567 128.919 83.3056
133.407 129.64 84.7272
133.937 130.025 85.3248
137.763 130.484 83.7033
137.154 129.613 83.2383
138.503 129.922 83.453
136.588 128.682 83.3257
138.319 131 84.6768
139.682 129.955 83.9355
139.098 129.025 83.5873
133.594 128.705 83.7968
132.984 129.062 84.4429
132.451 128.368 84.3472
132.387 129.081 85.3688
134.205 128.129 83.6058
132.152 127.458 84.5443
131.504 127.879 84.9202
134.363 130.322 86.0602
135.592 130.657 86.0109
134.881 130.455 86.8495
136.817 130.939 86.1722
133.248 129.958 86.2621
134.208 130.184 87.7628
135.311 130.469 87.7855
136.408 126.597 84.4518
135.707 127.084 83.9725
135.214 126.412 84.6712
134.989 127.637 83.7351
136.181 127.963 83.6973
137.532 126.687 84.2958
136.782 126.143 84.9602
134.717 126.063 85.5853
134.125 126.313 85.1032
137.377 128.196 83.5974
138.086 127.361 83.7422
138.639 128.241 83.5271
138.682 126.656 84.0918
139.708 128.416 83.8468
136.192 125.795 85.7997
135.165 125.683 86.0159
135.595 125.376 86.6306
134.171 125.583 86.4639
137.256 125.902 85.6528
135.964 125.028 87.0686
135.063 124.808 87.2647
133.445 126.634 84.7373
133.896 127.39 84.1056
132.803 127.078 84.5702
133.066 126.235 85.6849
131.862 126.854 85.1961
140.772 126.683 92.7246
141.312 126.838 91.9711
140.597 125.77 92.3466
141.876 126.926 91.1767
142.015 127.707 91.5317
140.654 127.323 93.18
139.943 126.473 93.3668
139.83 124.819 92.6742
140.41 124.89 92.0281
142.065 128.518 92.0166
141.225 128.265 92.876
141.774 129.207 92.5214
140.475 127.948 93.7226
142.517 128.641 90.9764
141.937 130.108 91.8119
141.255 129.798 92.9099
139.247 125.625 93.5956
139.266 124.695 93.3031
138.515 124.61 93.9455
139.1 123.846 93.0907
139.042 126.292 93.8674
137.768 124.48 94.5274
137.913 123.734 94.4293
140.722 124.903 91.2775
141.449 125.993 90.8348
141.063 125.012 90.4825
142.054 126.841 90.2492
140.038 123.952 91.7129
140.614 124.33 90.2887
141.329 125.183 89.6666
142.459 128.577 88.7857
142.521 129.352 87.9188
142.471 128.329 87.6199
142.258 130.047 87.0873
142.377 130.254 88.281
142.526 128.661 89.847
142.336 127.691 89.4655
142.033 127.302 87.424
142.163 127.888 86.4481
142.379 130.365 89.5443
142.715 129.498 90.2524
142.289 130.337 90.7004
141.853 130.955 88.7454
141.686 130.78 91.1793
142.016 126.704 89.193
141.816 126.547 88.2027
141.598 125.833 89.0541
141.356 126.441 87.4075
141.072 125.155 88.9074
141.756 128.551 85.738
141.866 129.778 86.0593
141.289 129.303 85.04
141.586 130.741 86.424
141.573 127.367 85.5214
140.657 128.685 84.3054
140.632 129.806 84.5185
126.404 121.794 92.1341
126.236 122.883 91.4604
126.752 122.953 92.5063
126.438 124.104 90.8566
126.103 123.078 90.4398
126.535 120.538 91.6365
127.102 120.79 92.7436
127.388 123.053 93.4903
127.082 123.928 92.8713
126.382 122.065 90.15
126.512 120.693 90.574
127.038 121.281 89.9344
127.107 119.801 91.0639
126.746 123.39 89.6692
127.829 122.107 89.6716
127.89 121.025 89.7672
127.774 121.118 93.6593
127.892 122.325 94.0386
128.47 121.496 94.4848
127.961 123.438 94.449
128.013 120.08 93.2476
129.152 120.736 95.0169
129.207 122.03 95.0801
126.98 124.843 92.3497
126.685 124.96 91.3419
127.049 125.738 91.6138
126.549 125.239 90.2583
127.45 124.888 93.3363
127.526 126.481 91.943
127.205 126.66 90.9918
127.319 125.475 88.4395
128.17 125.474 87.8349
127.649 126.36 87.7018
128.991 125.552 87.2766
128.764 124.949 88.2936
127.223 124.552 89.2681
126.809 125.427 89.2745
127.541 127.308 88.0368
128.276 127.193 87.1477
128.424 124.097 89.09
127.577 123.668 89.339
128.091 123.03 89.3743
129.368 124.505 88.7196
128.699 122.642 89.6051
126.644 126.26 89.5697
127.07 127.236 89.0098
126.989 126.961 90.0107
128.056 127.835 88.5451
127.535 127.499 90.4164
129.07 126.898 86.5039
129.387 126.055 86.5028
129.933 126.75 85.91
129.997 125.607 86.9452
129.203 127.759 86.7602
130.592 127.368 85.4024
130.948 126.706 85.6633
137.18 130.235 92.9458
136.317 130.133 92.2607
137.31 130.598 91.895
135.38 129.961 91.643
135.307 129.646 92.5965
137.002 129.77 93.9409
138.043 130.183 93.634
138.327 130.857 91.3872
137.366 130.748 90.7608
135.115 129.323 93.5192
136.044 129.286 94.1517
134.912 128.927 94.3771
136.824 129.094 94.7298
134.221 129.283 92.9741
133.927 128.278 94.462
134.783 128.192 94.8952
139.072 130.525 93.2265
139.221 130.902 92.0153
140.068 130.78 92.614
139.319 131.075 90.7502
138.875 129.983 94.2172
140.745 130.359 92.9448
140.926 130.895 91.885
136.449 130.56 90.2004
135.456 130.266 90.7373
135.502 130.303 89.7055
134.401 129.842 91.154
137.433 130.822 89.588
135.519 130.398 88.7011
134.627 130.031 89.2584
132.248 129.195 92.0758
131.24 128.684 92.4747
131.357 129.126 91.5556
130.342 128.07 92.7566
131.229 128.038 93.1967
133.169 129.272 92.5865
133.357 129.476 91.5672
131.576 129.233 90.4634
130.616 128.926 90.9157
132.051 128.054 93.6241
133.059 128.825 93.3413
132.951 128.235 94.1508
131.288 127.288 93.824
132.975 127.556 94.6311
133.503 129.659 90.6238
132.622 129.462 90.0402
133.654 129.788 89.6542
131.813 129.336 89.3992
133.818 129.858 88.7077
129.597 128.584 91.349
129.455 128.084 92.3014
128.708 128.055 91.6805
129.469 127.448 93.0954
129.908 128.773 90.23
128.179 127.874 91.0039
128.03 127.368 91.9671
136.537 122.496 89.7494
137.378 122.312 89.871
137.486 123.374 89.5833
138.195 122.194 90.1028
137.277 121.495 90.4043
135.521 121.694 89.8734
135.654 122.613 89.6461
137.533 123.985 88.7943
138.26 123.981 89.1394
136.436 120.869 90.6546
135.497 120.964 90.2747
135.454 120.324 90.9909
134.56 121.04 89.9897
137.24 120.868 91.1575
135.453 119.769 91.7056
134.536 119.788 91.2812
135.816 123.317 88.9984
136.783 124.052 88.6258
136.038 124.183 88.5756
137.604 124.791 88.1461
134.855 122.752 89.4183
135.233 124.218 88.3701
136.076 124.595 87.7466
138.996 123.964 89.4485
139.018 122.952 89.9086
139.666 123.871 89.7217
138.995 122.183 90.429
138.971 124.644 88.6467
140.298 124.599 89.2745
140.284 123.923 90.0527
131.935 120.995 90.0832
132.952 121.672 89.914
132.291 122.035 89.8949
133.867 122.263 89.732
133.67 121.294 90.0153
131.786 119.872 90.3476
131.035 120.254 90.1253
131.61 122.429 89.6928
132.55 122.977 89.4874
133.618 120.401 90.2225
132.731 119.68 90.3893
133.642 119.714 90.7348
131.787 119.029 90.9193
133.678 119.288 91.6623
130.375 120.774 89.8151
130.717 121.912 89.7826
129.776 121.414 89.76
131.078 122.955 89.5386
130.071 119.773 90.2468
128.851 121.013 89.7013
129.344 122.206 89.7947
133.445 123.449 89.2027
134.153 123.05 89.3237
134.366 123.809 88.7978
132.875 123.768 88.9226
134.591 124.28 88.0195
137.352 127.038 94.8189
138.057 127.902 94.8362
138.468 127.324 94.5596
138.618 129.059 94.796
137.535 128.648 95.0503
136.337 126.77 95.1291
136.712 126.181 94.9588
138.794 126.801 94.2086
139.502 127.623 94.2876
136.499 128.262 95.2262
135.911 127.295 95.2264
135.399 127.756 95.1146
137.053 125.703 94.7904
138.045 126.065 94.2705
137.449 125.181 94.6894
140.094 128.557 94.1373
139.593 129.365 94.3144
140.539 129.618 93.68
139.184 131.497 88.1926
139.041 131.504 86.9091
140.095 131.653 87.4442
138.807 131.302 85.7742
137.938 131.229 86.4953
138.266 131.146 88.9313
139.25 131.219 89.4775
141.018 131.421 88.1125
140.995 131.451 86.8474
137.106 131.001 87.274
137.328 130.937 88.3849
136.26 130.713 87.9989
140.152 131.168 90.0108
141.055 131.193 89.344
141 131.086 90.6183
140.576 131.095 85.8174
139.498 131.095 85.2914
140.181 130.573 84.7671
138.009 121.219 93.0843
138.601 122.091 92.76
138.385 121.431 92.3442
139.397 123.078 92.2013
138.874 122.995 92.9635
137.619 121.15 93.9156
137.221 120.464 93.4372
137.922 121.038 91.7387
138.815 121.679 91.3087
138.394 122.925 93.585
137.869 121.964 94.1431
137.948 122.841 94.2424
136.883 119.989 92.7849
137.133 120.365 91.9362
136.267 119.756 92.2441
139.632 122.388 90.9509
139.957 123.141 91.39
140.22 123.468 90.6495
140.064 126.147 86.3351
139.138 126.145 86.0841
139.208 125.851 86.9537
138.226 126.039 85.7693
138.992 126.316 84.9991
140.876 126.643 85.8165
140.765 126.388 86.7884
139.123 125.347 87.815
138.366 125.469 87.5695
139.809 126.783 84.3066
140.806 127.044 84.8914
140.366 127.706 84.2159
140.636 125.741 87.5639
139.817 125.194 88.1508
140.5 125.095 88.4241
137.596 125.453 87.3914
137.512 125.74 86.4833
136.814 125.261 87.1755
129.553 125.436 95.5265
128.662 125.311 94.8228
129.504 126.018 94.6304
128.001 125.15 94.1407
128.069 124.443 94.8082
129.932 124.684 96.1357
130.698 125.444 95.8169
130.372 126.671 94.2585
129.51 126.644 93.8013
128.648 123.664 95.1562
129.498 123.793 95.957
129.326 122.897 95.4916
131.456 126.111 95.4078
131.242 126.766 94.6783
132.168 126.927 95.0785
128.647 126.689 93.3909
127.987 125.863 93.4443
127.974 126.632 92.7141
130.006 128.74 87.5656
131.234 129.095 87.1526
130.627 129.155 88.0925
132.285 129.563 86.6737
131.801 129.102 86.2374
129.534 128.347 87.1815
129.056 128.345 88.0521
130.245 128.9 89.139
131.28 129.206 88.6824
131.36 128.649 85.962
130.25 128.311 86.4275
130.797 128.206 85.5831
128.524 128.323 88.9845
129.211 128.637 89.5794
128.202 128.168 90.02
132.259 129.565 88.3773
132.743 129.825 87.2828
133.297 129.789 88.0262
129.075 118.563 92.3248
130.19 118.2 92.8828
129.953 118.298 91.8449
131.333 118.125 93.3731
130.625 118.316 93.8203
128.389 119.207 92.7944
127.938 119.098 91.7154
129.866 118.779 90.9358
130.938 118.419 91.3173
129.923 118.805 94.4452
128.885 119.324 93.7999
129.441 119.758 94.7347
127.875 119.353 90.602
129.08 119.471 90.3854
128.304 120.137 89.9808
131.986 118.469 91.7672
132.241 118.256 92.8349
133.028 118.721 92.2174
132.287 125.098 87.3786
131.282 124.919 87.8593
131.84 124.512 88.233
130.339 124.677 88.2935
130.674 125.25 87.4699
132.648 125.725 86.5412
133.214 125.339 86.8625
132.35 124.133 88.6311
131.419 123.745 88.9588
131.023 125.65 86.6226
132.073 126 86.2322
131.477 126.297 85.9267
133.679 124.905 87.1651
133.288 124.389 88.1317
134.188 124.508 87.5844
130.508 123.404 89.2763
129.999 123.939 89.0405
129.634 123.054 89.4816
POLYGONS 1280  5120
3 164 162 163
3 163 44 164
3 162 43 163
3 164 42 162
3 166 165 163
3 163 43 166
3 165 44 163
3 166 14 165
3 168 167 162
3 162 42 168
3 167 43 162
3 168 13 167
3 170 169 164
3 164 44 170
3 169 42 164
3 170 12 169
3 173 171 172
3 172 46 173
3 171 43 172
3 173 45 171
3 167 174 172
3 172 43 167
3 174 46 172
3 167 13 174
3 175 166 171
3 171 45 175
3 166 43 171
3 175 14 166
3 177 176 173
3 173 46 177
3 176 45 173
3 177 4 176
3 180 178 179
3 179 48 180
3 178 42 179
3 180 47 178
3 169 181 179
3 179 42 169
3 181 48 179
3 169 12 181
3 182 168 178
3 178 47 182
3 168 42 178
3 182 13 168
3 184 183 180
3 180 48 184
3 183 47 180
3 184 8 183
3 187 185 186
3 186 50 187
3 185 44 186
3 187 49 185
3 165 188 186
3 186 44 165
3 188 50 186
3 165 14 188
3 189 170 185
3 185 49 189
3 170 44 185
3 189 12 170
3 191 190 187
3 187 50 191
3 190 49 187
3 191 7 190
3 194 192 193
3 193 53 194
3 192 52 193
3 194 51 192
3 196 195 193
3 193 52 196
3 195 53 193
3 196 16 195
3 198 197 192
3 192 51 198
3 197 52 192
3 198 14 197
3 200 199 194
3 194 53 200
3 199 51 194
3 200 15 199
3 203 201 202
3 202 45 203
3 201 52 202
3 203 54 201
3 197 175 202
3 202 52 197
3 175 45 202
3 197 14 175
3 204 196 201
3 201 54 204
3 196 52 201
3 204 16 196
3 176 205 203
3 203 45 176
3 205 54 203
3 176 4 205
3 208 206 207
3 207 55 208
3 206 51 207
3 208 50 206
3 199 209 207
3 207 51 199
3 209 55 207
3 199 15 209
3 188 198 206
3 206 50 188
3 198 51 206
3 188 14 198
3 210 191 208
3 208 55 210
3 191 50 208
3 210 7 191
3 213 211 212
3 212 57 213
3 211 53 212
3 213 56 211
3 195 214 212
3 212 53 195
3 214 57 212
3 195 16 214
3 215 200 211
3 211 56 215
3 200 53 211
3 215 15 200
3 217 216 213
3 213 57 217
3 216 56 213
3 217 9 216
3 220 218 219
3 219 60 220
3 218 59 219
3 220 58 218
3 222 221 219
3 219 59 222
3 221 60 219
3 222 19 221
3 224 223 218
3 218 58 224
3 223 59 218
3 224 18 223
3 226 225 220
3 220 60 226
3 225 58 220
3 226 17 225
3 229 227 228
3 228 62 229
3 227 59 228
3 229 61 227
3 223 230 228
3 228 59 223
3 230 62 228
3 223 18 230
3 231 222 227
3 227 61 231
3 222 59 227
3 231 19 222
3 233 232 229
3 229 62 233
3 232 61 229
3 233 5 232
3 236 234 235
3 235 64 236
3 234 58 235
3 236 63 234
3 225 237 235
3 235 58 225
3 237 64 235
3 225 17 237
3 238 224 234
3 234 63 238
3 224 58 234
3 238 18 224
3 240 239 236
3 236 64 240
3 239 63 236
3 240 6 239
3 243 241 242
3 242 66 243
3 241 60 242
3 243 65 241
3 221 244 242
3 242 60 221
3 244 66 242
3 221 19 244
3 245 226 241
3 241 65 245
3 226 60 241
3 245 17 226
3 247 246 243
3 243 66 247
3 246 65 243
3 247 11 246
3 250 248 249
3 249 69 250
3 248 68 249
3 250 67 248
3 252 251 249
3 249 68 252
3 251 69 249
3 252 18 251
3 254 253 248
3 248 67 254
3 253 68 248
3 254 21 253
3 256 255 250
3 250 69 256
3 255 67 250
3 256 20 255
3 259 257 258
3 258 70 259
3 257 68 258
3 259 62 257
3 253 260 258
3 258 68 253
3 260 70 258
3 253 21 260
3 230 252 257
3 257 62 230
3 252 68 257
3 230 18 252
3 261 233 259
3 259 70 261
3 233 62 259
3 261 5 233
3 264 262 263
3 263 72 264
3 262 67 263
3 264 71 262
3 255 265 263
3 263 67 255
3 265 72 263
3 255 20 265
3 266 254 262
3 262 71 266
3 254 67 262
3 266 21 254
3 268 267 264
3 264 72 268
3 267 71 264
3 268 10 267
3 271 269 270
3 270 63 271
3 269 69 270
3 271 73 269
3 251 238 270
3 270 69 251
3 238 63 270
3 251 18 238
3 272 256 269
3 269 73 272
3 256 69 269
3 272 20 256
3 239 273 271
3 271 63 239
3 273 73 271
3 239 6 273
3 276 274 275
3 275 76 276
3 274 75 275
3 276 74 274
3 278 277 275
3 275 75 278
3 277 76 275
3 278 24 277
3 280 279 274
3 274 74 280
3 279 75 274
3 280 23 279
3 282 281 276
3 276 76 282
3 281 74 276
3 282 22 281
3 285 283 284
3 284 78 285
3 283 75 284
3 285 77 283
3 279 286 284
3 284 75 279
3 286 78 284
3 279 23 286
3 287 278 283
3 283 77 287
3 278 75 283
3 287 24 278
3 289 288 285
3 285 78 289
3 288 77 285
3 289 0 288
3 292 290 291
3 291 80 292
3 290 74 291
3 292 79 290
3 281 293 291
3 291 74 281
3 293 80 291
3 281 22 293
3 294 280 290
3 290 79 294
3 280 74 290
3 294 23 280
3 296 295 292
3 292 80 296
3 295 79 292
3 296 4 295
3 299 297 298
3 298 82 299
3 297 76 298
3 299 81 297
3 277 300 298
3 298 76 277
3 300 82 298
3 277 24 300
3 301 282 297
3 297 81 301
3 282 76 297
3 301 22 282
3 303 302 299
3 299 82 303
3 302 81 299
3 303 3 302
3 306 304 305
3 305 85 306
3 304 84 305
3 306 83 304
3 308 307 305
3 305 84 308
3 307 85 305
3 308 26 307
3 310 309 304
3 304 83 310
3 309 84 304
3 310 24 309
3 312 311 306
3 306 85 312
3 311 83 306
3 312 25 311
3 315 313 314
3 314 77 315
3 313 84 314
3 315 86 313
3 309 287 314
3 314 84 309
3 287 77 314
3 309 24 287
3 316 308 313
3 313 86 316
3 308 84 313
3 316 26 308
3 288 317 315
3 315 77 288
3 317 86 315
3 288 0 317
3 320 318 319
3 319 87 320
3 318 83 319
3 320 82 318
3 311 321 319
3 319 83 311
3 321 87 319
3 311 25 321
3 300 310 318
3 318 82 300
3 310 83 318
3 300 24 310
3 322 303 320
3 320 87 322
3 303 82 320
3 322 3 303
3 325 323 324
3 324 89 325
3 323 85 324
3 325 88 323
3 307 326 324
3 324 85 307
3 326 89 324
3 307 26 326
3 327 312 323
3 323 88 327
3 312 85 323
3 327 25 312
3 329 328 325
3 325 89 329
3 328 88 325
3 329 5 328
3 332 330 331
3 331 92 332
3 330 91 331
3 332 90 330
3 334 333 331
3 331 91 334
3 333 92 331
3 334 29 333
3 336 335 330
3 330 90 336
3 335 91 330
3 336 28 335
3 338 337 332
3 332 92 338
3 337 90 332
3 338 27 337
3 341 339 340
3 340 94 341
3 339 91 340
3 341 93 339
3 335 342 340
3 340 91 335
3 342 94 340
3 335 28 342
3 343 334 339
3 339 93 343
3 334 91 339
3 343 29 334
3 345 344 341
3 341 94 345
3 344 93 341
3 345 2 344
3 348 346 347
3 347 96 348
3 346 90 347
3 348 95 346
3 337 349 347
3 347 90 337
3 349 96 347
3 337 27 349
3 350 336 346
3 346 95 350
3 336 90 346
3 350 28 336
3 352 351 348
3 348 96 352
3 351 95 348
3 352 7 351
3 355 353 354
3 354 98 355
3 353 92 354
3 355 97 353
3 333 356 354
3 354 92 333
3 356 98 354
3 333 29 356
3 357 338 353
3 353 97 357
3 338 92 353
3 357 27 338
3 359 358 355
3 355 98 359
3 358 97 355
3 359 1 358
3 362 360 361
3 361 101 362
3 360 100 361
3 362 99 360
3 364 363 361
3 361 100 364
3 363 101 361
3 364 31 363
3 366 365 360
3 360 99 366
3 365 100 360
3 366 29 365
3 368 367 362
3 362 101 368
3 367 99 362
3 368 30 367
3 371 369 370
3 370 93 371
3 369 100 370
3 371 102 369
3 365 343 370
3 370 100 365
3 343 93 370
3 365 29 343
3 372 364 369
3 369 102 372
3 364 100 369
3 372 31 364
3 344 373 371
3 371 93 344
3 373 102 371
3 344 2 373
3 376 374 375
3 375 103 376
3 374 99 375
3 376 98 374
3 367 377 375
3 375 99 367
3 377 103 375
3 367 30 377
3 356 366 374
3 374 98 356
3 366 99 374
3 356 29 366
3 378 359 376
3 376 103 378
3 359 98 376
3 378 1 359
3 381 379 380
3 380 105 381
3 379 101 380
3 381 104 379
3 363 382 380
3 380 101 363
3 382 105 380
3 363 31 382
3 383 368 379
3 379 104 383
3 368 101 379
3 383 30 368
3 385 384 381
3 381 105 385
3 384 104 381
3 385 6 384
3 388 386 387
3 387 108 388
3 386 107 387
3 388 106 386
3 390 389 387
3 387 107 390
3 389 108 387
3 390 34 389
3 392 391 386
3 386 106 392
3 391 107 386
3 392 33 391
3 394 393 388
3 388 108 394
3 393 106 388
3 394 32 393
3 397 395 396
3 396 110 397
3 395 107 396
3 397 109 395
3 391 398 396
3 396 107 391
3 398 110 396
3 391 33 398
3 399 390 395
3 395 109 399
3 390 107 395
3 399 34 390
3 401 400 397
3 397 110 401
3 400 109 397
3 401 8 400
3 404 402 403
3 403 112 404
3 402 106 403
3 404 111 402
3 393 405 403
3 403 106 393
3 405 112 403
3 393 32 405
3 406 392 402
3 402 111 406
3 392 106 402
3 406 33 392
3 408 407 404
3 404 112 408
3 407 111 404
3 408 0 407
3 411 409 410
3 410 114 411
3 409 108 410
3 411 113 409
3 389 412 410
3 410 108 389
3 412 114 410
3 389 34 412
3 413 394 409
3 409 113 413
3 394 108 409
3 413 32 394
3 415 414 411
3 411 114 415
3 414 113 411
3 415 11 414
3 418 416 417
3 417 117 418
3 416 116 417
3 418 115 416
3 420 419 417
3 417 116 420
3 419 117 417
3 420 36 419
3 422 421 416
3 416 115 422
3 421 116 416
3 422 34 421
3 424 423 418
3 418 117 424
3 423 115 418
3 424 35 423
3 427 425 426
3 426 109 427
3 425 116 426
3 427 118 425
3 421 399 426
3 426 116 421
3 399 109 426
3 421 34 399
3 428 420 425
3 425 118 428
3 420 116 425
3 428 36 420
3 400 429 427
3 427 109 400
3 429 118 427
3 400 8 429
3 432 430 431
3 431 119 432
3 430 115 431
3 432 114 430
3 423 433 431
3 431 115 423
3 433 119 431
3 423 35 433
3 412 422 430
3 430 114 412
3 422 115 430
3 412 34 422
3 434 415 432
3 432 119 434
3 415 114 432
3 434 11 415
3 437 435 436
3 436 121 437
3 435 117 436
3 437 120 435
3 419 438 436
3 436 117 419
3 438 121 436
3 419 36 438
3 439 424 435
3 435 120 439
3 424 117 435
3 439 35 424
3 441 440 437
3 437 121 441
3 440 120 437
3 441 1 440
3 444 442 443
3 443 124 444
3 442 123 443
3 444 122 442
3 446 445 443
3 443 123 446
3 445 124 443
3 446 39 445
3 448 447 442
3 442 122 448
3 447 123 442
3 448 38 447
3 450 449 444
3 444 124 450
3 449 122 444
3 450 37 449
3 453 451 452
3 452 126 453
3 451 123 452
3 453 125 451
3 447 454 452
3 452 123 447
3 454 126 452
3 447 38 454
3 455 446 451
3 451 125 455
3 446 123 451
3 455 39 446
3 457 456 453
3 453 126 457
3 456 125 453
3 457 9 456
3 460 458 459
3 459 128 460
3 458 122 459
3 460 127 458
3 449 461 459
3 459 122 449
3 461 128 459
3 449 37 461
3 462 448 458
3 458 127 462
3 448 122 458
3 462 38 448
3 464 463 460
3 460 128 464
3 463 127 460
3 464 10 463
3 467 465 466
3 466 130 467
3 465 124 466
3 467 129 465
3 445 468 466
3 466 124 445
3 468 130 466
3 445 39 468
3 469 450 465
3 465 129 469
3 450 124 465
3 469 37 450
3 471 470 467
3 467 130 471
3 470 129 467
3 471 3 470
3 474 472 473
3 473 133 474
3 472 132 473
3 474 131 472
3 476 475 473
3 473 132 476
3 475 133 473
3 476 38 475
3 478 477 472
3 472 131 478
3 477 132 472
3 478 41 477
3 480 479 474
3 474 133 480
3 479 131 474
3 480 40 479
3 483 481 482
3 482 134 483
3 481 132 482
3 483 126 481
3 477 484 482
3 482 132 477
3 484 134 482
3 477 41 484
3 454 476 481
3 481 126 454
3 476 132 481
3 454 38 476
3 485 457 483
3 483 134 485
3 457 126 483
3 485 9 457
3 488 486 487
3 487 136 488
3 486 131 487
3 488 135 486
3 479 489 487
3 487 131 479
3 489 136 487
3 479 40 489
3 490 478 486
3 486 135 490
3 478 131 486
3 490 41 478
3 492 491 488
3 488 136 492
3 491 135 488
3 492 2 491
3 495 493 494
3 494 127 495
3 493 133 494
3 495 137 493
3 475 462 494
3 494 133 475
3 462 127 494
3 475 38 462
3 496 480 493
3 493 137 496
3 480 133 493
3 496 40 480
3 463 497 495
3 495 127 463
3 497 137 495
3 463 10 497
3 500 498 499
3 499 140 500
3 498 139 499
3 500 138 498
3 502 501 499
3 499 139 502
3 501 140 499
3 502 33 501
3 504 503 498
3 498 138 504
3 503 139 498
3 504 13 503
3 506 505 500
3 500 140 506
3 505 138 500
3 506 23 505
3 509 507 508
3 508 47 509
3 507 139 508
3 509 110 507
3 503 182 508
3 508 139 503
3 182 47 508
3 503 13 182
3 398 502 507
3 507 110 398
3 502 139 507
3 398 33 502
3 183 401 509
3 509 47 183
3 401 110 509
3 183 8 401
3 512 510 511
3 511 79 512
3 510 138 511
3 512 46 510
3 505 294 511
3 511 138 505
3 294 79 511
3 505 23 294
3 174 504 510
3 510 46 174
3 504 138 510
3 174 13 504
3 295 177 512
3 512 79 295
3 177 46 512
3 295 4 177
3 515 513 514
3 514 111 515
3 513 140 514
3 515 78 513
3 501 406 514
3 514 140 501
3 406 111 514
3 501 33 406
3 286 506 513
3 513 78 286
3 506 140 513
3 286 23 506
3 407 289 515
3 515 111 407
3 289 78 515
3 407 0 289
3 518 516 517
3 517 143 518
3 516 142 517
3 518 141 516
3 520 519 517
3 517 142 520
3 519 143 517
3 520 19 519
3 522 521 516
3 516 141 522
3 521 142 516
3 522 32 521
3 524 523 518
3 518 143 524
3 523 141 518
3 524 26 523
3 527 525 526
3 526 113 527
3 525 142 526
3 527 66 525
3 521 413 526
3 526 142 521
3 413 113 526
3 521 32 413
3 244 520 525
3 525 66 244
3 520 142 525
3 244 19 520
3 414 247 527
3 527 113 414
3 247 66 527
3 414 11 247
3 530 528 529
3 529 86 530
3 528 141 529
3 530 112 528
3 523 316 529
3 529 141 523
3 316 86 529
3 523 26 316
3 405 522 528
3 528 112 405
3 522 141 528
3 405 32 522
3 317 408 530
3 530 86 317
3 408 112 530
3 317 0 408
3 533 531 532
3 532 61 533
3 531 143 532
3 533 89 531
3 519 231 532
3 532 143 519
3 231 61 532
3 519 19 231
3 326 524 531
3 531 89 326
3 524 143 531
3 326 26 524
3 232 329 533
3 533 61 232
3 329 89 533
3 232 5 329
3 536 534 535
3 535 146 536
3 534 145 535
3 536 144 534
3 538 537 535
3 535 145 538
3 537 146 535
3 538 22 537
3 540 539 534
3 534 144 540
3 539 145 534
3 540 16 539
3 542 541 536
3 536 146 542
3 541 144 536
3 542 39 541
3 545 543 544
3 544 54 545
3 543 145 544
3 545 80 543
3 539 204 544
3 544 145 539
3 204 54 544
3 539 16 204
3 293 538 543
3 543 80 293
3 538 145 543
3 293 22 538
3 205 296 545
3 545 54 205
3 296 80 545
3 205 4 296
3 548 546 547
3 547 125 548
3 546 144 547
3 548 57 546
3 541 455 547
3 547 144 541
3 455 125 547
3 541 39 455
3 214 540 546
3 546 57 214
3 540 144 546
3 214 16 540
3 456 217 548
3 548 125 456
3 217 57 548
3 456 9 217
3 551 549 550
3 550 81 551
3 549 146 550
3 551 130 549
3 537 301 550
3 550 146 537
3 301 81 550
3 537 22 301
3 468 542 549
3 549 130 468
3 542 146 549
3 468 39 542
3 302 471 551
3 551 81 302
3 471 130 551
3 302 3 471
3 554 552 553
3 553 149 554
3 552 148 553
3 554 147 552
3 556 555 553
3 553 148 556
3 555 149 553
3 556 21 555
3 558 557 552
3 552 147 558
3 557 148 552
3 558 25 557
3 560 559 554
3 554 149 560
3 559 147 554
3 560 37 559
3 563 561 562
3 562 88 563
3 561 148 562
3 563 70 561
3 557 327 562
3 562 148 557
3 327 88 562
3 557 25 327
3 260 556 561
3 561 70 260
3 556 148 561
3 260 21 556
3 328 261 563
3 563 88 328
3 261 70 563
3 328 5 261
3 566 564 565
3 565 129 566
3 564 147 565
3 566 87 564
3 559 469 565
3 565 147 559
3 469 129 565
3 559 37 469
3 321 558 564
3 564 87 321
3 558 147 564
3 321 25 558
3 470 322 566
3 566 129 470
3 322 87 566
3 470 3 322
3 569 567 568
3 568 71 569
3 567 149 568
3 569 128 567
3 555 266 568
3 568 149 555
3 266 71 568
3 555 21 266
3 461 560 567
3 567 128 461
3 560 149 567
3 461 37 560
3 267 464 569
3 569 71 267
3 464 128 569
3 267 10 464
3 572 570 571
3 571 152 572
3 570 151 571
3 572 150 570
3 574 573 571
3 571 151 574
3 573 152 571
3 574 27 573
3 576 575 570
3 570 150 576
3 575 151 570
3 576 12 575
3 578 577 572
3 572 152 578
3 577 150 572
3 578 36 577
3 581 579 580
3 580 49 581
3 579 151 580
3 581 96 579
3 575 189 580
3 580 151 575
3 189 49 580
3 575 12 189
3 349 574 579
3 579 96 349
3 574 151 579
3 349 27 574
3 190 352 581
3 581 49 190
3 352 96 581
3 190 7 352
3 584 582 583
3 583 118 584
3 582 150 583
3 584 48 582
3 577 428 583
3 583 150 577
3 428 118 583
3 577 36 428
3 181 576 582
3 582 48 181
3 576 150 582
3 181 12 576
3 429 184 584
3 584 118 429
3 184 48 584
3 429 8 184
3 587 585 586
3 586 97 587
3 585 152 586
3 587 121 585
3 573 357 586
3 586 152 573
3 357 97 586
3 573 27 357
3 438 578 585
3 585 121 438
3 578 152 585
3 438 36 578
3 358 441 587
3 587 97 358
3 441 121 587
3 358 1 441
3 590 588 589
3 589 155 590
3 588 154 589
3 590 153 588
3 592 591 589
3 589 154 592
3 591 155 589
3 592 17 591
3 594 593 588
3 588 153 594
3 593 154 588
3 594 30 593
3 596 595 590
3 590 155 596
3 595 153 590
3 596 35 595
3 599 597 598
3 598 104 599
3 597 154 598
3 599 64 597
3 593 383 598
3 598 154 593
3 383 104 598
3 593 30 383
3 237 592 597
3 597 64 237
3 592 154 597
3 237 17 592
3 384 240 599
3 599 104 384
3 240 64 599
3 384 6 240
3 602 600 601
3 601 120 602
3 600 153 601
3 602 103 600
3 595 439 601
3 601 153 595
3 439 120 601
3 595 35 439
3 377 594 600
3 600 103 377
3 594 153 600
3 377 30 594
3 440 378 602
3 602 120 440
3 378 103 602
3 440 1 378
3 605 603 604
3 604 65 605
3 603 155 604
3 605 119 603
3 591 245 604
3 604 155 591
3 245 65 604
3 591 17 245
3 433 596 603
3 603 119 433
3 596 155 603
3 433 35 596
3 246 434 605
3 605 65 246
3 434 119 605
3 246 11 434
3 608 606 607
3 607 158 608
3 606 157 607
3 608 156 606
3 610 609 607
3 607 157 610
3 609 158 607
3 610 15 609
3 612 611 606
3 606 156 612
3 611 157 606
3 612 28 611
3 614 613 608
3 608 158 614
3 613 156 608
3 614 41 613
3 617 615 616
3 616 95 617
3 615 157 616
3 617 55 615
3 611 350 616
3 616 157 611
3 350 95 616
3 611 28 350
3 209 610 615
3 615 55 209
3 610 157 615
3 209 15 610
3 351 210 617
3 617 95 351
3 210 55 617
3 351 7 210
3 620 618 619
3 619 135 620
3 618 156 619
3 620 94 618
3 613 490 619
3 619 156 613
3 490 135 619
3 613 41 490
3 342 612 618
3 618 94 342
3 612 156 618
3 342 28 612
3 491 345 620
3 620 135 491
3 345 94 620
3 491 2 345
3 623 621 622
3 622 56 623
3 621 158 622
3 623 134 621
3 609 215 622
3 622 158 609
3 215 56 622
3 609 15 215
3 484 614 621
3 621 134 484
3 614 158 621
3 484 41 614
3 216 485 623
3 623 56 216
3 485 134 623
3 216 9 485
3 626 624 625
3 625 161 626
3 624 160 625
3 626 159 624
3 628 627 625
3 625 160 628
3 627 161 625
3 628 31 627
3 630 629 624
3 624 159 630
3 629 160 624
3 630 20 629
3 632 631 626
3 626 161 632
3 631 159 626
3 632 40 631
3 635 633 634
3 634 73 635
3 633 160 634
3 635 105 633
3 629 272 634
3 634 160 629
3 272 73 634
3 629 20 272
3 382 628 633
3 633 105 382
3 628 160 633
3 382 31 628
3 273 385 635
3 635 73 273
3 385 105 635
3 273 6 385
3 638 636 637
3 637 137 638
3 636 159 637
3 638 72 636
3 631 496 637
3 637 159 631
3 496 137 637
3 631 40 496
3 265 630 636
3 636 72 265
3 630 159 636
3 265 20 630
3 497 268 638
3 638 137 497
3 268 72 638
3 497 10 268
3 641 639 640
3 640 102 641
3 639 161 640
3 641 136 639
3 627 372 640
3 640 161 627
3 372 102 640
3 627 31 372
3 489 632 639
3 639 136 489
3 632 161 639
3 489 40 632
3 373 492 641
3 641 102 373
3 492 136 641
3 373 2 492
