# vtk DataFile Version 3.0
this file was written using fslvtkio
ASCII
DATASET POLYDATA
POINTS 642 float
105.103 139.365 101.89
98.4868 139.43 100.777
100.934 135.124 100.235
106.512 134.841 100.413
104.739 137.554 104.054
104.565 136.768 98.7927
101.525 136.707 98.3583
101.296 137.605 102.998
102.86 141.827 104.4
103.992 134.145 101.217
103.128 132.104 97.1827
102.389 141.168 100.04
101.86 139.853 103.261
104.074 139.732 104.458
102.82 137.853 103.862
102.474 136.249 102.27
104.306 135.721 102.538
101.462 139.114 98.956
103.047 136.559 98.2967
103.296 138.62 99.6513
102.068 134.356 96.5579
104.42 134.701 97.3589
105.994 135.995 102.176
105.942 138.94 103.393
105.858 137.187 101.174
105.927 135.757 99.1482
104.813 138.051 100.347
99.9706 138.619 102.094
100.52 136.595 102.008
99.5491 137.072 100.573
99.6769 138.396 99.0037
101.11 135.587 98.7576
104.106 140.765 101.179
104.874 141.421 103.472
102.705 143.106 102.042
99.9604 141.422 99.96
100.027 141.573 102.533
105.644 132.888 98.7981
103.528 132.074 99.9166
105.725 133.124 101.769
101.186 132.697 98.5543
102.194 134.207 100.766
102.977 139.926 103.936
103.363 138.885 104.023
102.486 138.987 103.495
103.704 137.703 104.156
104.403 138.665 104.314
103.526 140.797 104.654
102.191 140.846 103.83
101.588 138.712 103.014
102.03 137.838 103.365
102.619 137.094 103.123
103.465 136.944 103.373
103.463 136.074 102.369
104.5 136.836 103.216
101.747 137.097 102.843
103.149 135.123 101.804
104.186 134.811 101.771
102.288 137.745 98.7964
103.058 137.616 99.0733
102.477 138.955 99.1823
103.934 137.623 99.3182
103.901 136.771 98.4651
102.176 136.507 98.3275
101.396 137.845 98.6249
101.873 140.177 99.5501
102.87 139.904 99.9263
103.346 134.454 96.4416
103.833 135.785 97.4542
102.784 135.634 97.2251
104.54 135.939 98.1813
104 133.088 96.6905
102.364 132.567 96.0667
101.871 135.64 97.5359
105.714 137.551 102.713
105.63 137.95 102.206
105.95 136.618 101.707
105.503 138.373 101.594
105.62 139.281 102.567
105.613 138.254 103.923
105.339 137.089 102.917
106.374 135.33 101.265
106.331 136.029 100.694
106.003 136.564 100.135
105.556 137.662 100.629
105.601 137.052 99.6839
105.135 138.866 101.103
106.335 135.22 99.7489
105.399 136.4 98.8428
104.774 137.463 99.4287
99.9881 137.378 102.232
99.6988 136.714 101.516
99.3658 137.688 101.437
100.369 136.347 100.532
100.608 135.869 101.206
100.778 137.144 102.752
100.663 137.96 102.667
99.0659 139.077 101.539
98.964 138.202 100.544
99.463 137.669 99.6972
100.37 136.625 99.7003
100.407 137.092 99.0628
100.99 135.192 99.4873
98.8717 139.033 99.8044
100.698 137.575 98.7433
101.25 136.215 98.299
104.65 141.539 102.251
104.175 142.652 103.086
103.796 142.362 101.516
102.757 142.804 103.698
104.119 141.944 104.415
105.175 140.503 102.531
104.814 140.184 101.602
103.352 141.239 100.508
102.48 142.167 100.723
101.111 142.661 100.801
101.044 142.863 102.562
99.265 142.37 101.2
101.457 142.036 103.611
101.384 141.602 99.8593
98.5475 140.672 100.146
98.9826 140.736 101.507
104.848 131.827 99.3017
104.855 132.393 100.776
106.016 132.698 100.244
104.633 133.451 101.455
103.864 133.044 100.738
103.179 131.782 98.4711
104.551 132.294 97.8893
106.151 133.886 99.7532
106.384 133.916 100.945
101.904 133.371 99.837
102.928 132.995 100.162
102.167 132.235 99.2979
103.094 134.047 100.972
101.296 134.548 100.582
101.083 133.962 99.49
101.746 132.066 97.5308
105.083 139.385 104.059
104.805 140.756 104.541
105.317 140.074 103.466
104.237 139.116 100.807
103.67 139.652 100.358
104.064 138.413 100.041
105.117 134.411 101.877
105.254 135.78 102.342
105.997 134.559 101.758
105.991 134.328 98.6705
105.435 135.167 98.1733
105.271 133.577 97.6082
100.98 140.701 103.062
100.842 139.468 102.668
99.9353 140.119 102.218
99.4087 139.984 99.2429
100.465 139 98.9929
100.703 140.376 99.3923
101.295 135.428 101.556
101.528 136.454 102.138
102.173 135.178 101.623
101.263 133.018 97.0832
101.576 134.624 97.6863
101.127 133.954 98.4222
103.189 139.438 103.968
102.982 138.96 103.69
102.69 139.456 103.695
102.68 138.384 103.65
103.133 138.323 103.843
103.698 139.341 104.248
103.46 139.867 104.318
102.376 139.871 103.656
102.161 139.453 103.422
103.54 138.223 104.087
103.872 138.798 104.23
103.967 138.151 104.3
104.251 139.247 104.277
103.286 137.781 104.006
104.207 137.614 104.182
104.558 138.178 104.309
103.195 140.271 104.351
102.56 140.27 104.001
102.874 140.814 104.289
101.955 140.253 103.583
103.807 140.158 104.685
103.195 141.385 104.492
102.615 141.44 104.051
102.006 138.892 103.266
102.27 138.326 103.416
101.793 138.216 103.227
102.439 137.92 103.611
101.764 139.376 103.072
101.349 138.012 103.069
101.649 137.703 103.144
103.06 137.086 103.26
103.533 136.52 102.75
103.176 136.713 102.598
103.811 135.844 102.54
103.847 136.346 102.936
103.02 137.309 103.831
102.63 137.42 103.602
102.639 136.752 102.568
103.002 136.192 102.341
103.976 136.861 103.289
103.489 137.208 103.888
104.053 137.162 103.829
104.374 136.318 102.873
104.646 137.158 103.589
102.236 137.408 103.381
102.135 137.081 103.021
101.805 137.34 103.208
102.157 136.801 102.497
101.523 137.297 102.967
103.293 135.553 102.113
103.801 135.418 102.103
103.639 134.998 101.814
104.267 135.189 102.144
102.764 135.654 102.112
103.611 134.564 101.454
104.071 134.447 101.455
102.637 137.615 98.942
102.782 138.264 99.0498
102.361 138.411 98.8828
102.917 138.825 99.3684
103.18 138.142 99.3241
102.965 136.952 98.7911
102.589 136.926 98.7758
101.916 138.527 98.791
102.002 139.066 99.0377
103.498 137.613 99.2007
103.429 137.062 98.7749
103.847 137.161 98.8973
103.441 136.638 98.4013
103.494 138.011 99.6251
104.213 137.158 99.0098
104.209 136.708 98.6533
102.181 136.925 98.7675
101.867 137.825 98.7077
101.857 137.05 98.6172
101.402 138.579 98.6899
102.578 136.51 98.3704
101.812 136.546 98.3397
101.447 137.227 98.4987
102.197 139.562 99.3789
102.666 139.428 99.517
102.369 140.025 99.7278
103.127 139.275 99.7391
101.709 139.691 99.2379
102.095 140.668 99.8223
102.577 140.471 100.047
103.635 135.206 96.8434
103.339 135.671 97.1911
103.039 135.104 96.6886
102.951 136.112 97.7922
103.439 136.169 97.8572
104.109 135.302 97.3279
103.808 134.553 96.9618
102.628 134.354 96.3967
102.404 135.02 96.77
103.825 136.29 98.0805
104.232 135.87 97.7772
104.24 136.337 98.2569
104.524 135.422 97.7287
104.652 136.433 98.481
103.661 133.693 96.421
102.912 133.498 96.0677
103.223 132.733 96.237
102.08 133.374 96.1689
104.298 133.851 96.8945
103.592 132.458 96.7721
102.706 132.185 96.4827
102.304 135.615 97.1417
102.478 136.124 97.7869
102.023 136.184 97.7691
102.014 135.008 96.9921
101.703 136.266 97.9465
105.624 137.792 102.496
105.779 137.309 101.938
105.815 137.102 102.237
105.905 136.899 101.437
105.773 137.536 101.631
105.891 138.563 102.781
105.808 138.318 103.118
105.795 136.817 102.437
106.076 136.355 101.948
105.547 138.134 101.899
105.773 138.74 102.385
105.507 138.83 102.068
105.917 139.169 102.922
105.61 137.727 101.407
105.379 138.971 101.718
105.33 139.339 102.198
105.659 137.937 103.314
105.504 137.295 102.801
105.414 137.605 103.429
105.609 136.6 102.57
105.896 138.611 103.784
105.186 137.891 104.06
105.098 137.261 103.468
106.213 135.961 101.448
106.148 136.27 101.204
106.374 135.741 101.008
106.006 136.548 100.902
106.135 135.578 101.687
106.481 135.032 100.8
106.453 135.378 100.516
105.912 137.145 100.353
105.654 137.388 100.147
105.868 136.868 99.9051
105.324 137.648 99.9476
105.216 137.839 100.475
105.735 137.382 100.888
105.958 136.873 100.616
105.955 136.165 99.6718
105.885 136.523 99.3933
105.275 138.224 100.886
105.46 137.992 101.136
105.398 138.639 101.294
105.019 138.476 100.719
105.105 139.139 101.472
106.198 136.294 100.376
106.195 135.944 99.9089
106.377 135.659 100.205
106.067 135.469 99.4448
106.5 134.995 100.069
105.626 136.766 99.2032
105.258 137.291 99.5255
105.145 136.919 99.1384
104.754 137.693 99.9139
105.682 136.114 98.952
104.933 136.576 98.8026
104.623 137.069 99.1119
99.744 136.997 101.918
99.5975 137.201 101.514
99.7167 137.527 101.878
99.3811 137.333 101.03
99.5492 136.869 101.098
100.097 136.618 101.799
100.074 136.936 102.275
100.002 137.877 102.142
99.606 138.142 101.801
100.025 136.58 100.987
100.196 136.35 101.349
100.416 136.114 100.852
100.55 136.237 101.607
99.9591 136.733 100.57
100.7 135.744 100.375
100.755 135.498 100.685
100.326 137.233 102.54
100.303 137.591 102.456
100.64 137.459 102.739
100.405 138.325 102.352
100.608 136.936 102.423
101.061 137.348 102.902
100.967 137.722 102.917
99.2928 138.39 101.408
99.1163 137.873 100.997
98.9582 138.6 101.077
99.1973 137.55 100.544
99.5297 138.864 101.817
98.7007 139.244 101.178
98.7051 138.821 100.673
99.9165 137.163 99.7054
100.403 136.88 99.3833
99.8931 137.426 99.3512
100.802 136.38 98.9266
100.742 136.164 99.2389
100.054 136.93 100.083
99.5447 137.328 100.093
99.5644 138.04 99.3192
99.9696 137.718 99.0277
100.751 136.022 99.6059
100.43 136.494 100.073
100.764 135.904 100.004
101.042 135.314 99.0849
100.954 135.146 99.8826
99.0998 137.904 100.102
99.0764 138.322 99.6989
98.8629 138.62 100.175
99.1902 138.76 99.3296
98.571 139.273 100.286
100.521 137.375 98.8252
100.832 136.648 98.702
100.979 136.954 98.5555
101.156 135.883 98.5085
100.148 138.085 98.817
101.122 137.186 98.5023
101.387 136.495 98.271
104.513 142.062 102.656
103.994 142.599 102.27
104.318 141.98 101.931
103.37 142.922 101.775
103.458 142.981 102.569
104.585 141.97 103.391
104.725 141.542 102.898
104.497 141.264 101.649
103.985 141.549 101.392
103.597 142.904 103.5
104.186 142.364 103.95
103.586 142.56 104.257
104.548 141.691 104.01
102.707 142.943 102.882
102.773 142.442 104.255
103.453 141.966 104.53
104.909 141.034 102.424
104.715 140.849 101.917
104.905 140.344 102.096
104.522 140.523 101.417
105.219 141.153 102.974
105.11 139.865 102.188
104.99 139.766 101.73
103.504 141.705 101.028
103.212 142.432 101.072
103.039 141.779 100.607
102.602 142.842 101.267
103.737 140.961 100.866
102.892 141.255 100.252
102.439 141.663 100.278
100.944 143.042 101.579
99.9916 142.851 101.909
100.186 142.674 100.906
99.5216 142.028 101.976
100.237 142.385 102.687
101.878 143.003 102.254
101.84 143.018 101.435
100.487 142.081 100.301
99.6071 142.018 100.344
101.189 142.552 103.19
101.962 142.733 103.102
101.982 142.563 103.734
100.636 141.875 103.191
102.186 141.989 104.059
101.802 142.448 100.793
101.217 142.032 100.271
101.91 141.926 100.232
100.724 141.616 99.8818
101.934 141.417 99.937
98.8389 141.557 100.626
99.0709 141.543 101.426
98.7025 140.868 100.885
99.5145 141.245 101.957
99.1274 141.22 99.8995
98.4315 139.985 100.509
98.6511 140.063 101.105
104.858 131.985 100.112
105.465 132.297 100.62
105.489 132.237 99.8036
105.937 132.842 101.037
105.262 132.703 101.234
104.193 132.161 100.307
104.14 131.755 99.6261
105.389 132.238 98.9902
105.852 132.722 99.4491
104.736 132.882 101.248
104.267 132.676 100.753
104.285 133.189 101.103
103.734 132.596 100.357
105.039 133.129 101.646
104.287 133.825 101.301
103.92 133.63 101.002
104.027 131.735 98.8797
104.742 131.992 98.5271
103.887 131.946 98.1636
105.217 132.525 98.3045
103.335 131.786 99.2204
103.117 131.883 97.7572
103.792 132.21 97.5229
106.131 133.359 99.9446
106.253 133.427 100.629
106.216 133.86 100.316
106.249 133.496 101.374
105.955 133.352 99.301
106.488 134.346 100.092
106.526 134.338 100.617
102.488 133.161 100.002
102.591 132.518 99.7929
102.058 132.689 99.565
102.812 132.082 99.5834
103.156 132.47 100.029
102.594 133.576 100.411
102.168 133.858 100.274
101.466 132.93 99.3051
101.7 132.355 98.8929
103.451 132.978 100.366
103.044 133.415 100.62
103.515 133.486 100.79
102.613 134.085 100.885
103.558 134.072 101.109
101.727 134.071 100.164
101.347 133.628 99.6891
101.212 134.225 100.049
101.152 133.361 99.0854
101.717 134.362 100.728
101.052 134.856 100.403
100.985 134.551 99.9001
101.816 132.056 98.4877
102.492 131.85 98.8762
102.27 131.751 98.0197
101.431 132.292 97.9883
102.322 131.844 97.1877
105.006 140.047 104.296
105.299 140.573 104.026
105.234 139.667 103.801
105.342 140.953 103.522
104.905 141.109 104.04
104.448 140.132 104.598
104.618 139.634 104.252
105.66 139.113 103.85
105.736 139.45 103.399
104.475 141.307 104.492
104.118 140.791 104.858
103.798 141.429 104.678
104.844 139.093 104.095
105.46 138.806 104.241
105.012 138.464 104.308
105.542 139.663 103.008
105.341 140.428 103.014
105.292 139.798 102.603
103.9 139.372 100.623
103.685 138.866 100.356
104.044 138.701 100.525
103.678 138.536 99.9076
103.441 139.069 100.057
103.882 140.274 100.742
104.183 139.966 100.977
104.504 138.59 100.647
104.381 138.213 100.227
103.343 139.845 100.118
103.547 140.542 100.454
103.085 140.535 100.238
104.559 139.683 101.154
104.735 139.012 100.951
104.815 139.402 101.354
104.353 137.854 99.826
103.85 137.939 99.7823
104.33 137.529 99.3962
105.19 135.031 102.165
105.624 135.113 102.104
105.548 134.328 102.003
105.919 135.298 101.872
105.646 135.841 102.248
104.762 135.71 102.409
104.713 135.063 102.208
105.418 133.695 101.867
105.993 133.852 101.742
105.277 136.415 102.742
104.893 136.278 102.815
105.023 136.907 103.093
104.681 134.59 101.798
104.888 133.815 101.769
104.45 134.169 101.574
106.22 134.229 101.434
106.207 134.975 101.483
106.418 134.653 101.129
105.771 134.732 98.3169
105.426 134.377 97.7837
105.606 133.902 98.1584
104.863 134.092 97.3542
104.877 134.887 97.7811
105.688 135.5 98.664
106.005 135.078 98.8517
105.849 133.562 98.6818
105.541 133.132 98.1112
105.006 135.624 98.1135
105.431 135.87 98.5177
105.058 136.156 98.4842
106.272 134.75 99.1828
106.042 134.014 99.1805
106.356 134.497 99.6794
105.054 132.81 97.6251
104.682 133.288 97.1521
104.317 132.677 97.2547
100.887 140.053 102.829
100.364 139.79 102.489
100.355 140.39 102.695
99.9509 139.404 102.173
100.464 139.156 102.31
101.334 139.713 102.975
101.429 140.248 103.13
100.492 141.099 102.91
100.005 140.872 102.349
100.818 138.746 102.552
101.3 139.152 102.771
101.115 138.369 102.826
101.514 140.766 103.479
101.091 141.373 103.371
101.803 141.431 103.733
99.4291 140.443 101.978
99.436 139.592 101.933
98.9142 139.82 101.597
99.8812 139.633 98.9817
100.553 139.78 99.0795
100.083 140.257 99.2771
101.131 139.771 99.1675
100.925 139.083 98.9536
99.9858 138.807 98.9399
99.3712 139.209 99.0445
99.6816 140.641 99.637
100.362 140.81 99.6881
100.908 138.546 98.6628
100.45 138.362 98.7125
100.995 137.764 98.5899
98.9951 139.501 99.4812
98.9807 140.315 99.6306
98.5924 139.825 99.8826
101.03 140.907 99.6439
101.327 140.278 99.4446
101.635 140.835 99.6647
101.381 135.965 101.857
101.853 135.874 101.889
101.657 135.226 101.645
102.256 135.697 102.042
102.066 136.407 102.153
101.013 136.496 102.116
101.012 136.136 101.722
101.603 134.731 101.285
102.077 134.612 101.283
101.724 136.878 102.415
101.155 136.911 102.465
101.298 137.078 102.739
100.912 135.611 101.438
101.238 134.99 101.136
100.918 135.224 100.975
102.588 134.589 101.32
102.627 135.172 101.733
103.133 134.597 101.409
101.501 133.905 97.329
101.32 134.238 98.0164
101.158 133.499 97.7724
101.226 134.768 98.5842
101.39 135.053 98.2732
101.767 134.427 97.137
101.638 133.528 96.6446
101.126 132.735 97.7433
101.114 133.306 98.415
101.535 135.433 98.0376
101.758 135.145 97.5172
101.579 135.868 97.8484
101.592 132.727 96.4246
101.393 132.379 97.1564
101.944 132.11 96.6224
101.107 133.914 98.9407
101.113 134.556 98.9724
100.997 134.495 99.4223
POLYGONS 1280  5120
3 164 162 163
3 163 44 164
3 162 43 163
3 164 42 162
3 166 165 163
3 163 43 166
3 165 44 163
3 166 14 165
3 168 167 162
3 162 42 168
3 167 43 162
3 168 13 167
3 170 169 164
3 164 44 170
3 169 42 164
3 170 12 169
3 173 171 172
3 172 46 173
3 171 43 172
3 173 45 171
3 167 174 172
3 172 43 167
3 174 46 172
3 167 13 174
3 175 166 171
3 171 45 175
3 166 43 171
3 175 14 166
3 177 176 173
3 173 46 177
3 176 45 173
3 177 4 176
3 180 178 179
3 179 48 180
3 178 42 179
3 180 47 178
3 169 181 179
3 179 42 169
3 181 48 179
3 169 12 181
3 182 168 178
3 178 47 182
3 168 42 178
3 182 13 168
3 184 183 180
3 180 48 184
3 183 47 180
3 184 8 183
3 187 185 186
3 186 50 187
3 185 44 186
3 187 49 185
3 165 188 186
3 186 44 165
3 188 50 186
3 165 14 188
3 189 170 185
3 185 49 189
3 170 44 185
3 189 12 170
3 191 190 187
3 187 50 191
3 190 49 187
3 191 7 190
3 194 192 193
3 193 53 194
3 192 52 193
3 194 51 192
3 196 195 193
3 193 52 196
3 195 53 193
3 196 16 195
3 198 197 192
3 192 51 198
3 197 52 192
3 198 14 197
3 200 199 194
3 194 53 200
3 199 51 194
3 200 15 199
3 203 201 202
3 202 45 203
3 201 52 202
3 203 54 201
3 197 175 202
3 202 52 197
3 175 45 202
3 197 14 175
3 204 196 201
3 201 54 204
3 196 52 201
3 204 16 196
3 176 205 203
3 203 45 176
3 205 54 203
3 176 4 205
3 208 206 207
3 207 55 208
3 206 51 207
3 208 50 206
3 199 209 207
3 207 51 199
3 209 55 207
3 199 15 209
3 188 198 206
3 206 50 188
3 198 51 206
3 188 14 198
3 210 191 208
3 208 55 210
3 191 50 208
3 210 7 191
3 213 211 212
3 212 57 213
3 211 53 212
3 213 56 211
3 195 214 212
3 212 53 195
3 214 57 212
3 195 16 214
3 215 200 211
3 211 56 215
3 200 53 211
3 215 15 200
3 217 216 213
3 213 57 217
3 216 56 213
3 217 9 216
3 220 218 219
3 219 60 220
3 218 59 219
3 220 58 218
3 222 221 219
3 219 59 222
3 221 60 219
3 222 19 221
3 224 223 218
3 218 58 224
3 223 59 218
3 224 18 223
3 226 225 220
3 220 60 226
3 225 58 220
3 226 17 225
3 229 227 228
3 228 62 229
3 227 59 228
3 229 61 227
3 223 230 228
3 228 59 223
3 230 62 228
3 223 18 230
3 231 222 227
3 227 61 231
3 222 59 227
3 231 19 222
3 233 232 229
3 229 62 233
3 232 61 229
3 233 5 232
3 236 234 235
3 235 64 236
3 234 58 235
3 236 63 234
3 225 237 235
3 235 58 225
3 237 64 235
3 225 17 237
3 238 224 234
3 234 63 238
3 224 58 234
3 238 18 224
3 240 239 236
3 236 64 240
3 239 63 236
3 240 6 239
3 243 241 242
3 242 66 243
3 241 60 242
3 243 65 241
3 221 244 242
3 242 60 221
3 244 66 242
3 221 19 244
3 245 226 241
3 241 65 245
3 226 60 241
3 245 17 226
3 247 246 243
3 243 66 247
3 246 65 243
3 247 11 246
3 250 248 249
3 249 69 250
3 248 68 249
3 250 67 248
3 252 251 249
3 249 68 252
3 251 69 249
3 252 18 251
3 254 253 248
3 248 67 254
3 253 68 248
3 254 21 253
3 256 255 250
3 250 69 256
3 255 67 250
3 256 20 255
3 259 257 258
3 258 70 259
3 257 68 258
3 259 62 257
3 253 260 258
3 258 68 253
3 260 70 258
3 253 21 260
3 230 252 257
3 257 62 230
3 252 68 257
3 230 18 252
3 261 233 259
3 259 70 261
3 233 62 259
3 261 5 233
3 264 262 263
3 263 72 264
3 262 67 263
3 264 71 262
3 255 265 263
3 263 67 255
3 265 72 263
3 255 20 265
3 266 254 262
3 262 71 266
3 254 67 262
3 266 21 254
3 268 267 264
3 264 72 268
3 267 71 264
3 268 10 267
3 271 269 270
3 270 63 271
3 269 69 270
3 271 73 269
3 251 238 270
3 270 69 251
3 238 63 270
3 251 18 238
3 272 256 269
3 269 73 272
3 256 69 269
3 272 20 256
3 239 273 271
3 271 63 239
3 273 73 271
3 239 6 273
3 276 274 275
3 275 76 276
3 274 75 275
3 276 74 274
3 278 277 275
3 275 75 278
3 277 76 275
3 278 24 277
3 280 279 274
3 274 74 280
3 279 75 274
3 280 23 279
3 282 281 276
3 276 76 282
3 281 74 276
3 282 22 281
3 285 283 284
3 284 78 285
3 283 75 284
3 285 77 283
3 279 286 284
3 284 75 279
3 286 78 284
3 279 23 286
3 287 278 283
3 283 77 287
3 278 75 283
3 287 24 278
3 289 288 285
3 285 78 289
3 288 77 285
3 289 0 288
3 292 290 291
3 291 80 292
3 290 74 291
3 292 79 290
3 281 293 291
3 291 74 281
3 293 80 291
3 281 22 293
3 294 280 290
3 290 79 294
3 280 74 290
3 294 23 280
3 296 295 292
3 292 80 296
3 295 79 292
3 296 4 295
3 299 297 298
3 298 82 299
3 297 76 298
3 299 81 297
3 277 300 298
3 298 76 277
3 300 82 298
3 277 24 300
3 301 282 297
3 297 81 301
3 282 76 297
3 301 22 282
3 303 302 299
3 299 82 303
3 302 81 299
3 303 3 302
3 306 304 305
3 305 85 306
3 304 84 305
3 306 83 304
3 308 307 305
3 305 84 308
3 307 85 305
3 308 26 307
3 310 309 304
3 304 83 310
3 309 84 304
3 310 24 309
3 312 311 306
3 306 85 312
3 311 83 306
3 312 25 311
3 315 313 314
3 314 77 315
3 313 84 314
3 315 86 313
3 309 287 314
3 314 84 309
3 287 77 314
3 309 24 287
3 316 308 313
3 313 86 316
3 308 84 313
3 316 26 308
3 288 317 315
3 315 77 288
3 317 86 315
3 288 0 317
3 320 318 319
3 319 87 320
3 318 83 319
3 320 82 318
3 311 321 319
3 319 83 311
3 321 87 319
3 311 25 321
3 300 310 318
3 318 82 300
3 310 83 318
3 300 24 310
3 322 303 320
3 320 87 322
3 303 82 320
3 322 3 303
3 325 323 324
3 324 89 325
3 323 85 324
3 325 88 323
3 307 326 324
3 324 85 307
3 326 89 324
3 307 26 326
3 327 312 323
3 323 88 327
3 312 85 323
3 327 25 312
3 329 328 325
3 325 89 329
3 328 88 325
3 329 5 328
3 332 330 331
3 331 92 332
3 330 91 331
3 332 90 330
3 334 333 331
3 331 91 334
3 333 92 331
3 334 29 333
3 336 335 330
3 330 90 336
3 335 91 330
3 336 28 335
3 338 337 332
3 332 92 338
3 337 90 332
3 338 27 337
3 341 339 340
3 340 94 341
3 339 91 340
3 341 93 339
3 335 342 340
3 340 91 335
3 342 94 340
3 335 28 342
3 343 334 339
3 339 93 343
3 334 91 339
3 343 29 334
3 345 344 341
3 341 94 345
3 344 93 341
3 345 2 344
3 348 346 347
3 347 96 348
3 346 90 347
3 348 95 346
3 337 349 347
3 347 90 337
3 349 96 347
3 337 27 349
3 350 336 346
3 346 95 350
3 336 90 346
3 350 28 336
3 352 351 348
3 348 96 352
3 351 95 348
3 352 7 351
3 355 353 354
3 354 98 355
3 353 92 354
3 355 97 353
3 333 356 354
3 354 92 333
3 356 98 354
3 333 29 356
3 357 338 353
3 353 97 357
3 338 92 353
3 357 27 338
3 359 358 355
3 355 98 359
3 358 97 355
3 359 1 358
3 362 360 361
3 361 101 362
3 360 100 361
3 362 99 360
3 364 363 361
3 361 100 364
3 363 101 361
3 364 31 363
3 366 365 360
3 360 99 366
3 365 100 360
3 366 29 365
3 368 367 362
3 362 101 368
3 367 99 362
3 368 30 367
3 371 369 370
3 370 93 371
3 369 100 370
3 371 102 369
3 365 343 370
3 370 100 365
3 343 93 370
3 365 29 343
3 372 364 369
3 369 102 372
3 364 100 369
3 372 31 364
3 344 373 371
3 371 93 344
3 373 102 371
3 344 2 373
3 376 374 375
3 375 103 376
3 374 99 375
3 376 98 374
3 367 377 375
3 375 99 367
3 377 103 375
3 367 30 377
3 356 366 374
3 374 98 356
3 366 99 374
3 356 29 366
3 378 359 376
3 376 103 378
3 359 98 376
3 378 1 359
3 381 379 380
3 380 105 381
3 379 101 380
3 381 104 379
3 363 382 380
3 380 101 363
3 382 105 380
3 363 31 382
3 383 368 379
3 379 104 383
3 368 101 379
3 383 30 368
3 385 384 381
3 381 105 385
3 384 104 381
3 385 6 384
3 388 386 387
3 387 108 388
3 386 107 387
3 388 106 386
3 390 389 387
3 387 107 390
3 389 108 387
3 390 34 389
3 392 391 386
3 386 106 392
3 391 107 386
3 392 33 391
3 394 393 388
3 388 108 394
3 393 106 388
3 394 32 393
3 397 395 396
3 396 110 397
3 395 107 396
3 397 109 395
3 391 398 396
3 396 107 391
3 398 110 396
3 391 33 398
3 399 390 395
3 395 109 399
3 390 107 395
3 399 34 390
3 401 400 397
3 397 110 401
3 400 109 397
3 401 8 400
3 404 402 403
3 403 112 404
3 402 106 403
3 404 111 402
3 393 405 403
3 403 106 393
3 405 112 403
3 393 32 405
3 406 392 402
3 402 111 406
3 392 106 402
3 406 33 392
3 408 407 404
3 404 112 408
3 407 111 404
3 408 0 407
3 411 409 410
3 410 114 411
3 409 108 410
3 411 113 409
3 389 412 410
3 410 108 389
3 412 114 410
3 389 34 412
3 413 394 409
3 409 113 413
3 394 108 409
3 413 32 394
3 415 414 411
3 411 114 415
3 414 113 411
3 415 11 414
3 418 416 417
3 417 117 418
3 416 116 417
3 418 115 416
3 420 419 417
3 417 116 420
3 419 117 417
3 420 36 419
3 422 421 416
3 416 115 422
3 421 116 416
3 422 34 421
3 424 423 418
3 418 117 424
3 423 115 418
3 424 35 423
3 427 425 426
3 426 109 427
3 425 116 426
3 427 118 425
3 421 399 426
3 426 116 421
3 399 109 426
3 421 34 399
3 428 420 425
3 425 118 428
3 420 116 425
3 428 36 420
3 400 429 427
3 427 109 400
3 429 118 427
3 400 8 429
3 432 430 431
3 431 119 432
3 430 115 431
3 432 114 430
3 423 433 431
3 431 115 423
3 433 119 431
3 423 35 433
3 412 422 430
3 430 114 412
3 422 115 430
3 412 34 422
3 434 415 432
3 432 119 434
3 415 114 432
3 434 11 415
3 437 435 436
3 436 121 437
3 435 117 436
3 437 120 435
3 419 438 436
3 436 117 419
3 438 121 436
3 419 36 438
3 439 424 435
3 435 120 439
3 424 117 435
3 439 35 424
3 441 440 437
3 437 121 441
3 440 120 437
3 441 1 440
3 444 442 443
3 443 124 444
3 442 123 443
3 444 122 442
3 446 445 443
3 443 123 446
3 445 124 443
3 446 39 445
3 448 447 442
3 442 122 448
3 447 123 442
3 448 38 447
3 450 449 444
3 444 124 450
3 449 122 444
3 450 37 449
3 453 451 452
3 452 126 453
3 451 123 452
3 453 125 451
3 447 454 452
3 452 123 447
3 454 126 452
3 447 38 454
3 455 446 451
3 451 125 455
3 446 123 451
3 455 39 446
3 457 456 453
3 453 126 457
3 456 125 453
3 457 9 456
3 460 458 459
3 459 128 460
3 458 122 459
3 460 127 458
3 449 461 459
3 459 122 449
3 461 128 459
3 449 37 461
3 462 448 458
3 458 127 462
3 448 122 458
3 462 38 448
3 464 463 460
3 460 128 464
3 463 127 460
3 464 10 463
3 467 465 466
3 466 130 467
3 465 124 466
3 467 129 465
3 445 468 466
3 466 124 445
3 468 130 466
3 445 39 468
3 469 450 465
3 465 129 469
3 450 124 465
3 469 37 450
3 471 470 467
3 467 130 471
3 470 129 467
3 471 3 470
3 474 472 473
3 473 133 474
3 472 132 473
3 474 131 472
3 476 475 473
3 473 132 476
3 475 133 473
3 476 38 475
3 478 477 472
3 472 131 478
3 477 132 472
3 478 41 477
3 480 479 474
3 474 133 480
3 479 131 474
3 480 40 479
3 483 481 482
3 482 134 483
3 481 132 482
3 483 126 481
3 477 484 482
3 482 132 477
3 484 134 482
3 477 41 484
3 454 476 481
3 481 126 454
3 476 132 481
3 454 38 476
3 485 457 483
3 483 134 485
3 457 126 483
3 485 9 457
3 488 486 487
3 487 136 488
3 486 131 487
3 488 135 486
3 479 489 487
3 487 131 479
3 489 136 487
3 479 40 489
3 490 478 486
3 486 135 490
3 478 131 486
3 490 41 478
3 492 491 488
3 488 136 492
3 491 135 488
3 492 2 491
3 495 493 494
3 494 127 495
3 493 133 494
3 495 137 493
3 475 462 494
3 494 133 475
3 462 127 494
3 475 38 462
3 496 480 493
3 493 137 496
3 480 133 493
3 496 40 480
3 463 497 495
3 495 127 463
3 497 137 495
3 463 10 497
3 500 498 499
3 499 140 500
3 498 139 499
3 500 138 498
3 502 501 499
3 499 139 502
3 501 140 499
3 502 33 501
3 504 503 498
3 498 138 504
3 503 139 498
3 504 13 503
3 506 505 500
3 500 140 506
3 505 138 500
3 506 23 505
3 509 507 508
3 508 47 509
3 507 139 508
3 509 110 507
3 503 182 508
3 508 139 503
3 182 47 508
3 503 13 182
3 398 502 507
3 507 110 398
3 502 139 507
3 398 33 502
3 183 401 509
3 509 47 183
3 401 110 509
3 183 8 401
3 512 510 511
3 511 79 512
3 510 138 511
3 512 46 510
3 505 294 511
3 511 138 505
3 294 79 511
3 505 23 294
3 174 504 510
3 510 46 174
3 504 138 510
3 174 13 504
3 295 177 512
3 512 79 295
3 177 46 512
3 295 4 177
3 515 513 514
3 514 111 515
3 513 140 514
3 515 78 513
3 501 406 514
3 514 140 501
3 406 111 514
3 501 33 406
3 286 506 513
3 513 78 286
3 506 140 513
3 286 23 506
3 407 289 515
3 515 111 407
3 289 78 515
3 407 0 289
3 518 516 517
3 517 143 518
3 516 142 517
3 518 141 516
3 520 519 517
3 517 142 520
3 519 143 517
3 520 19 519
3 522 521 516
3 516 141 522
3 521 142 516
3 522 32 521
3 524 523 518
3 518 143 524
3 523 141 518
3 524 26 523
3 527 525 526
3 526 113 527
3 525 142 526
3 527 66 525
3 521 413 526
3 526 142 521
3 413 113 526
3 521 32 413
3 244 520 525
3 525 66 244
3 520 142 525
3 244 19 520
3 414 247 527
3 527 113 414
3 247 66 527
3 414 11 247
3 530 528 529
3 529 86 530
3 528 141 529
3 530 112 528
3 523 316 529
3 529 141 523
3 316 86 529
3 523 26 316
3 405 522 528
3 528 112 405
3 522 141 528
3 405 32 522
3 317 408 530
3 530 86 317
3 408 112 530
3 317 0 408
3 533 531 532
3 532 61 533
3 531 143 532
3 533 89 531
3 519 231 532
3 532 143 519
3 231 61 532
3 519 19 231
3 326 524 531
3 531 89 326
3 524 143 531
3 326 26 524
3 232 329 533
3 533 61 232
3 329 89 533
3 232 5 329
3 536 534 535
3 535 146 536
3 534 145 535
3 536 144 534
3 538 537 535
3 535 145 538
3 537 146 535
3 538 22 537
3 540 539 534
3 534 144 540
3 539 145 534
3 540 16 539
3 542 541 536
3 536 146 542
3 541 144 536
3 542 39 541
3 545 543 544
3 544 54 545
3 543 145 544
3 545 80 543
3 539 204 544
3 544 145 539
3 204 54 544
3 539 16 204
3 293 538 543
3 543 80 293
3 538 145 543
3 293 22 538
3 205 296 545
3 545 54 205
3 296 80 545
3 205 4 296
3 548 546 547
3 547 125 548
3 546 144 547
3 548 57 546
3 541 455 547
3 547 144 541
3 455 125 547
3 541 39 455
3 214 540 546
3 546 57 214
3 540 144 546
3 214 16 540
3 456 217 548
3 548 125 456
3 217 57 548
3 456 9 217
3 551 549 550
3 550 81 551
3 549 146 550
3 551 130 549
3 537 301 550
3 550 146 537
3 301 81 550
3 537 22 301
3 468 542 549
3 549 130 468
3 542 146 549
3 468 39 542
3 302 471 551
3 551 81 302
3 471 130 551
3 302 3 471
3 554 552 553
3 553 149 554
3 552 148 553
3 554 147 552
3 556 555 553
3 553 148 556
3 555 149 553
3 556 21 555
3 558 557 552
3 552 147 558
3 557 148 552
3 558 25 557
3 560 559 554
3 554 149 560
3 559 147 554
3 560 37 559
3 563 561 562
3 562 88 563
3 561 148 562
3 563 70 561
3 557 327 562
3 562 148 557
3 327 88 562
3 557 25 327
3 260 556 561
3 561 70 260
3 556 148 561
3 260 21 556
3 328 261 563
3 563 88 328
3 261 70 563
3 328 5 261
3 566 564 565
3 565 129 566
3 564 147 565
3 566 87 564
3 559 469 565
3 565 147 559
3 469 129 565
3 559 37 469
3 321 558 564
3 564 87 321
3 558 147 564
3 321 25 558
3 470 322 566
3 566 129 470
3 322 87 566
3 470 3 322
3 569 567 568
3 568 71 569
3 567 149 568
3 569 128 567
3 555 266 568
3 568 149 555
3 266 71 568
3 555 21 266
3 461 560 567
3 567 128 461
3 560 149 567
3 461 37 560
3 267 464 569
3 569 71 267
3 464 128 569
3 267 10 464
3 572 570 571
3 571 152 572
3 570 151 571
3 572 150 570
3 574 573 571
3 571 151 574
3 573 152 571
3 574 27 573
3 576 575 570
3 570 150 576
3 575 151 570
3 576 12 575
3 578 577 572
3 572 152 578
3 577 150 572
3 578 36 577
3 581 579 580
3 580 49 581
3 579 151 580
3 581 96 579
3 575 189 580
3 580 151 575
3 189 49 580
3 575 12 189
3 349 574 579
3 579 96 349
3 574 151 579
3 349 27 574
3 190 352 581
3 581 49 190
3 352 96 581
3 190 7 352
3 584 582 583
3 583 118 584
3 582 150 583
3 584 48 582
3 577 428 583
3 583 150 577
3 428 118 583
3 577 36 428
3 181 576 582
3 582 48 181
3 576 150 582
3 181 12 576
3 429 184 584
3 584 118 429
3 184 48 584
3 429 8 184
3 587 585 586
3 586 97 587
3 585 152 586
3 587 121 585
3 573 357 586
3 586 152 573
3 357 97 586
3 573 27 357
3 438 578 585
3 585 121 438
3 578 152 585
3 438 36 578
3 358 441 587
3 587 97 358
3 441 121 587
3 358 1 441
3 590 588 589
3 589 155 590
3 588 154 589
3 590 153 588
3 592 591 589
3 589 154 592
3 591 155 589
3 592 17 591
3 594 593 588
3 588 153 594
3 593 154 588
3 594 30 593
3 596 595 590
3 590 155 596
3 595 153 590
3 596 35 595
3 599 597 598
3 598 104 599
3 597 154 598
3 599 64 597
3 593 383 598
3 598 154 593
3 383 104 598
3 593 30 383
3 237 592 597
3 597 64 237
3 592 154 597
3 237 17 592
3 384 240 599
3 599 104 384
3 240 64 599
3 384 6 240
3 602 600 601
3 601 120 602
3 600 153 601
3 602 103 600
3 595 439 601
3 601 153 595
3 439 120 601
3 595 35 439
3 377 594 600
3 600 103 377
3 594 153 600
3 377 30 594
3 440 378 602
3 602 120 440
3 378 103 602
3 440 1 378
3 605 603 604
3 604 65 605
3 603 155 604
3 605 119 603
3 591 245 604
3 604 155 591
3 245 65 604
3 591 17 245
3 433 596 603
3 603 119 433
3 596 155 603
3 433 35 596
3 246 434 605
3 605 65 246
3 434 119 605
3 246 11 434
3 608 606 607
3 607 158 608
3 606 157 607
3 608 156 606
3 610 609 607
3 607 157 610
3 609 158 607
3 610 15 609
3 612 611 606
3 606 156 612
3 611 157 606
3 612 28 611
3 614 613 608
3 608 158 614
3 613 156 608
3 614 41 613
3 617 615 616
3 616 95 617
3 615 157 616
3 617 55 615
3 611 350 616
3 616 157 611
3 350 95 616
3 611 28 350
3 209 610 615
3 615 55 209
3 610 157 615
3 209 15 610
3 351 210 617
3 617 95 351
3 210 55 617
3 351 7 210
3 620 618 619
3 619 135 620
3 618 156 619
3 620 94 618
3 613 490 619
3 619 156 613
3 490 135 619
3 613 41 490
3 342 612 618
3 618 94 342
3 612 156 618
3 342 28 612
3 491 345 620
3 620 135 491
3 345 94 620
3 491 2 345
3 623 621 622
3 622 56 623
3 621 158 622
3 623 134 621
3 609 215 622
3 622 158 609
3 215 56 622
3 609 15 215
3 484 614 621
3 621 134 484
3 614 158 621
3 484 41 614
3 216 485 623
3 623 56 216
3 485 134 623
3 216 9 485
3 626 624 625
3 625 161 626
3 624 160 625
3 626 159 624
3 628 627 625
3 625 160 628
3 627 161 625
3 628 31 627
3 630 629 624
3 624 159 630
3 629 160 624
3 630 20 629
3 632 631 626
3 626 161 632
3 631 159 626
3 632 40 631
3 635 633 634
3 634 73 635
3 633 160 634
3 635 105 633
3 629 272 634
3 634 160 629
3 272 73 634
3 629 20 272
3 382 628 633
3 633 105 382
3 628 160 633
3 382 31 628
3 273 385 635
3 635 73 273
3 385 105 635
3 273 6 385
3 638 636 637
3 637 137 638
3 636 159 637
3 638 72 636
3 631 496 637
3 637 159 631
3 496 137 637
3 631 40 496
3 265 630 636
3 636 72 265
3 630 159 636
3 265 20 630
3 497 268 638
3 638 137 497
3 268 72 638
3 497 10 268
3 641 639 640
3 640 102 641
3 639 161 640
3 641 136 639
3 627 372 640
3 640 161 627
3 372 102 640
3 627 31 372
3 489 632 639
3 639 136 489
3 632 161 639
3 489 40 632
3 373 492 641
3 641 102 373
3 492 136 641
3 373 2 492
