# vtk DataFile Version 3.0
this file was written using fslvtkio
ASCII
DATASET POLYDATA
POINTS 664 float
89.0437 120.29 76.2094
87.1708 119.725 76.3603
88.1693 118.251 76.7133
90.2693 118.573 77.1377
91.0765 120.339 76.8831
91.6354 118.997 77.5354
86.8992 121.415 76.185
84.5252 120.794 76.6925
85.4493 119.699 76.4183
89.026 122.309 76.1269
90.7664 122.051 76.228
92.4676 120.221 77.5167
92.4928 121.878 76.844
93.4175 120.872 77.72
93.8517 121.901 77.5901
94.5035 120.912 78.3164
86.1312 122.938 76.9665
84.3337 122.317 77.9938
88.2058 123.726 76.4019
90.4121 124.21 76.5261
92.2463 123.852 76.5769
93.8146 123.195 77.4073
95.0755 122.091 78.3954
86.258 123.806 78.3694
85.7401 123.043 79.475
87.9954 124.728 77.9498
90.0217 125.689 77.4612
92.142 125.861 77.1812
93.9526 125.047 77.4814
95.3395 123.816 78.3955
87.8219 124.502 79.5534
89.8444 125.543 79.2876
91.8774 126.32 79.0186
93.9841 126.344 78.9109
95.3041 125.414 78.9285
86.0575 118.556 76.4609
83.8518 118.341 76.9345
85.643 117.331 76.6722
87.2886 116.654 77.0786
89.6523 116.754 77.5448
91.8741 117.581 78.3107
92.7284 119.005 78.2045
93.523 118.093 78.9238
82.8729 120.412 77.7847
93.9806 119.752 78.7122
95.6221 120.387 79.3176
83.5527 121.841 79.6058
96.4513 122.436 79.4431
85.5292 122.551 80.6785
96.533 124.544 79.7151
87.5528 123.452 80.7442
89.7295 124.455 80.7666
91.7092 125.468 80.764
93.8122 126.102 80.7894
95.9155 125.981 80.7983
86.0592 113.938 78.1052
84.3578 113.442 78.8267
85.816 112.765 79.1333
87.1707 112.454 79.1825
88.1617 113.81 78.4787
88.7564 112.865 79.6423
84.6283 115.927 77.4954
82.8155 114.826 78.1383
87.3587 115.279 77.6893
89.529 113.933 79.2236
89.6051 115.131 78.3226
90.8701 114.525 79.2772
82.3795 116.753 77.7352
80.3098 117.116 79.2681
81.2238 115.35 78.882
91.6728 116.076 78.909
94.4823 116.682 79.7516
94.8898 118.622 79.2878
96.0957 118.582 80.36
81.5326 118.743 78.0479
80.2335 119.002 79.8618
96.9851 120.624 80.4955
81.6556 120.397 79.4822
81.3161 119.777 81.5865
97.4636 122.03 80.7284
97.4356 123.656 80.5876
98.6079 122.802 81.5881
83.0452 121.034 81.0524
84.8719 121.631 81.758
97.3065 125.038 81.159
98.5762 124.28 82.0142
87.2379 122.303 81.5808
89.5041 122.825 81.5832
91.5069 123.839 81.8059
93.3808 125.032 82.1134
95.5422 125.67 82.5306
97.6603 125.436 82.7578
85.8653 111.298 80.0158
84.1518 110.511 80.5394
85.0522 109.694 81.2249
86.9967 109.792 81.1959
88.4922 111.518 80.5276
89.2295 110.092 81.8023
90.8151 111.456 81.3927
91.4906 109.994 82.8327
83.588 111.864 79.9079
81.9327 110.807 80.7477
83.0877 110.48 80.6747
90.4628 113.089 80.307
92.9684 111.442 81.888
92.6616 113.308 81.0007
94.0825 112.649 81.769
94.4533 113.936 81.2714
95.4755 113.6 82.0522
80.9472 112.468 80.3461
79.0583 112.756 81.5501
79.9501 111.137 81.3922
82.0291 113.575 79.1868
92.4703 114.905 79.81
94.2595 114.843 80.4152
96.0601 115.265 81.3462
79.7673 114.585 80.1967
78.6074 114.683 82.3506
97.0279 117.199 81.2133
98.0257 119.556 81.3351
98.6038 118.34 82.0624
99.4315 119.699 82.5271
100.063 118.694 83.1216
79.4512 116.338 81.1898
79.9456 118.169 81.8876
98.5575 121.377 81.7514
99.7772 121.051 82.7931
100.846 120.115 83.8225
81.9536 118.999 83.3781
100.031 122.892 82.7706
101.249 121.94 84.2387
83.4834 120.282 82.5491
85.4968 120.448 82.9729
99.3869 124.393 83.2996
100.926 123.766 84.5365
86.9303 121.344 82.575
88.8218 121.787 82.3362
90.9703 122.211 82.776
92.8854 123.33 83.0646
94.8 124.351 83.8394
96.9614 125.007 84.3323
98.9942 124.683 84.5612
83.4293 107.435 82.0937
81.4511 107.048 82.4448
82.5688 105.932 82.6875
84.591 106.328 82.7674
85.5066 108.068 81.8648
86.582 106.772 83.1157
87.7525 108.464 82.354
88.7231 107.294 83.5979
89.8416 108.778 82.8463
91.0514 108.13 84.172
82.9399 109.098 81.5302
80.8308 108.405 82.2589
92.7808 109.087 84.3616
80.736 109.702 81.656
78.6654 110.745 83.0697
79.3541 108.793 82.6521
93.7492 110.43 83.3474
95.236 111.79 82.8377
96.8673 113.518 82.7116
78.0916 112.732 83.7068
98.0072 114.662 82.7778
78.9589 114.735 84.4681
98.3388 116.062 82.5237
99.4474 117.341 83.0669
101.086 118.38 84.47
79.544 116.66 83.3762
80.9688 117.847 84.4526
102.188 120.455 85.4919
83.4737 118.296 85.0416
102.196 122.557 86.1354
84.3762 119.479 83.9599
86.0725 119.56 83.9361
91.4272 121.282 83.8702
91.0288 120.169 84.6076
90.2391 120.838 83.6678
92.1463 120.748 84.8629
100.371 123.658 86.2711
87.1309 120.251 83.3206
88.8365 120.606 83.1942
92.4966 122.101 84.0512
94.1535 122.876 84.7309
96.1387 123.554 85.2514
98.1156 124.052 85.9301
84.2586 103.329 84.0884
82.9868 101.991 84.5186
84.2527 101.842 84.6237
85.5277 101.981 84.7261
86.3859 103.784 84.3699
87.3239 102.367 85.1428
88.2465 104.449 84.7592
88.7981 102.942 85.7379
89.7504 104.736 85.3328
90.394 103.824 86.1509
81.9094 103.5 83.9556
80.0591 103.534 84.6841
81.1982 102.184 84.9764
83.1347 104.649 83.1739
85.3483 104.931 83.5217
87.4727 105.53 83.8611
89.5843 106.308 84.7072
91.2542 106.095 85.4249
80.7795 105.232 83.4527
78.9763 105.707 84.4959
92.6996 107.769 85.3114
79.7157 107.289 83.3197
78.4912 108.882 84.3354
93.7179 108.67 85.5824
78.3164 111.246 85.4919
94.7099 109.651 85.0646
95.8852 110.656 84.5391
97.2713 112.122 83.8795
98.6212 113.861 84.1007
98.6493 112.985 85.2675
78.8952 113.018 85.6602
99.3332 115.237 84.0831
99.7737 114.949 86.1481
80.1174 114.347 86.2145
100.604 116.637 85.0057
102.24 118.534 86.2971
80.5093 116.25 85.2815
82.8057 116.892 86.0014
102.746 120.919 87.4658
85.1274 117.427 86.2221
85.9592 118.424 84.9743
88.1886 118.467 85.3881
87.1517 117.331 86.1296
90.2141 118.568 85.6925
89.1381 117.571 86.4299
91.9826 119.246 85.7713
91.1659 117.511 86.7518
94.2343 120.037 86.5039
93.2852 118.435 86.9757
96.1138 120.816 87.152
95.4702 119.012 87.6146
97.1321 119.719 88.1857
101.178 122.333 87.8701
87.7272 119.38 84.2233
89.7091 119.485 84.4647
93.3694 121.088 85.4374
95.2645 122.036 86.028
97.7136 121.165 87.992
97.276 122.526 86.8669
99.2526 122.948 87.2162
99.3823 121.8 88.3185
84.3436 100.399 85.1544
82.7422 99.4352 85.5106
83.883 98.6296 85.8301
85.5996 98.8709 85.8184
86.4484 100.617 85.4808
87.5253 99.3348 86.3187
88.3034 101.029 86.0927
89.7656 100.251 87.2876
89.6698 101.974 86.3624
90.8097 102.107 87.1356
82.0925 100.756 85.174
80.1262 101.065 86.0466
81.0999 99.4086 85.8453
91.6118 104.089 86.6068
79.1709 102.94 86.1124
92.4856 105.125 86.3776
93.016 106.571 86.2723
93.6482 105.322 87.2079
78.9488 105.007 86.0758
79.0065 105.503 87.2676
79.1409 103.962 87.1588
93.7078 108.046 86.6822
93.7202 107.099 87.5601
78.5562 107.036 85.7067
78.8106 107.223 87.407
94.8191 109.194 86.5482
94.8382 109.353 88.1601
78.4716 109.168 86.354
79.3761 108.778 87.975
96.117 110.18 86.9395
97.4675 111.348 85.8221
98.5949 113.012 86.6953
79.5651 110.642 87.3516
80.4671 112.319 87.2883
98.972 114.344 87.7169
81.8405 113.681 87.1616
101.204 116.913 87.2756
99.6421 115.931 88.3366
81.8138 115.453 86.5939
83.4784 115.708 87.3116
92.9914 116.653 87.4408
92.601 115.327 87.7375
91.3428 115.537 87.2563
95.04 117.29 87.8693
93.8432 115.65 88.1231
97.3431 118.077 88.6899
95.7949 116.181 88.5978
99.9116 118.264 88.8405
97.8724 116.409 89.1032
101.828 119.161 88.1097
84.6921 116.402 87.0906
86.6581 116.063 86.9973
89.1276 116.123 87.0656
98.8861 119.935 88.8426
100.973 120.577 88.8361
85.408 95.5814 87.5222
83.7143 95.0922 87.6321
84.5812 93.7145 88.3124
86.9758 94.6182 88.2263
87.3944 96.4074 87.4099
88.4455 95.7679 88.397
89.1359 97.3686 87.932
90.1516 96.5428 88.8415
83.3646 96.3427 86.9658
81.513 96.9118 87.5134
82.5048 95.5306 87.6789
84.6109 97.4221 86.6109
86.4058 97.5371 86.7328
88.394 98.3146 87.0898
90.6962 98.1328 88.6929
90.0822 98.9372 88.0337
92.0176 99.664 88.8771
82.2595 97.9181 86.4168
80.398 98.876 87.3339
91.6815 101.104 88.0436
92.2098 102.823 87.5421
93.2379 102.023 88.2435
79.5156 100.718 88.0427
92.9941 104.017 87.1594
93.7901 103.575 88.1613
79.1001 102.453 87.7906
79.2321 103.784 88.5533
79.6126 101.951 89.381
93.8198 105.341 88.5068
79.5135 105.455 88.7344
93.2885 107.706 88.4393
79.916 106.976 88.8888
93.3471 109.317 89.0172
80.5133 108.182 89.0869
96.2219 111.217 89.1591
94.3328 110.738 89.5677
97.4615 111.497 87.55
80.5595 109.718 88.6471
82.9131 112.451 88.0906
81.6152 110.92 88.6846
83.198 111.297 89.1428
94.6044 112.736 89.3839
93.4196 111.521 89.5962
92.572 112.368 89.2487
96.5914 113.24 89.4477
97.838 112.901 88.495
83.4934 114.093 87.6133
84.5413 111.798 88.6263
85.2262 113.416 88.103
85.9962 111.957 88.1434
92.5006 113.872 88.2624
91.4514 112.653 88.6517
90.5051 112.92 88.1554
94.4942 114.643 88.6809
96.1656 114.703 89.3578
97.9575 114.685 89.0086
85.3752 114.905 87.6404
86.9519 113.073 87.8079
87.6986 114.522 87.4803
90.0665 114.322 87.467
88.621 112.861 87.7575
82.9435 94.3265 88.2181
81.7034 95.2646 88.6654
82.4771 93.2938 89.1771
84.21 91.9584 89.4107
86.5438 93.092 88.9932
89.1618 94.5233 89.2007
91.1505 96.344 89.6662
80.7409 96.9373 88.9032
92.168 98.1095 89.3876
94.3683 99.1723 89.9463
80.3 98.7632 89.4758
93.7143 100.828 88.9103
94.6015 102.441 89.2912
80.4689 100.403 90.643
94.0743 103.862 89.654
80.25 103.706 89.886
80.7173 102.278 90.8793
93.1129 105.582 89.2278
80.8795 105.26 90.0735
92.2769 106.904 89.0208
92.0775 105.556 89.7194
91.1046 106.71 89.5288
81.1687 106.835 90.0366
92 108.37 89.0225
90.8011 108.281 89.3436
81.4236 107.778 89.7369
81.3192 108.759 89.1569
82.1679 108.28 89.7393
92.1095 110.424 89.1845
90.5742 109.556 89.1043
82.0695 109.482 89.3986
84.1996 110.813 89.2165
83.5471 109.847 89.4174
84.9051 109.961 89.1361
90.6724 111.271 88.9232
89.2611 109.431 89.3219
88.8588 110.276 88.796
87.4885 111.594 88.1188
85.9662 110.706 88.6512
89.0674 111.589 88.3607
87.496 110.167 88.6895
86.2819 91.6037 90.0386
84.0893 90.9633 91.0409
86.4689 90.4803 91.1421
88.6178 91.5187 90.8073
88.4088 92.7557 89.7014
90.4232 92.9532 90.918
89.8052 93.6249 90.0745
91.251 94.4067 90.6297
81.5209 94.7518 90.3736
82.4376 92.2964 90.8297
91.8964 95.7727 90.3814
93.0781 97.3331 90.0865
94.8616 97.0301 90.7207
81.0435 96.7064 90.6627
96.4187 98.9662 91.0331
81.3173 98.1679 91.4374
95.2706 101.124 90.1152
95.1398 100.744 91.8257
82.2203 99.554 92.1793
94.0532 102.643 91.0346
93.0278 101.86 91.9661
81.973 103.655 91.0391
81.9702 101.48 91.9607
92.0039 103.554 91.271
91.3574 102.312 91.6741
90.3678 103.254 91.2952
92.8068 104.279 90.2387
82.4561 105.528 90.6505
83.3615 103.25 91.8592
84.1084 104.877 91.132
86.0791 104.982 91.2348
85.0838 103.452 91.7878
88.046 104.947 91.305
86.8449 103.29 91.6438
90.0711 104.772 90.9682
88.8158 103.318 91.5021
91.2848 105.093 90.1413
82.3971 107.278 90.4299
83.8375 106.768 90.5604
85.5086 106.515 90.8023
87.123 106.404 91.0417
88.8831 106.53 90.906
90.2894 106.613 90.3708
83.2373 108.303 90.0213
84.8423 108.31 89.9404
86.4409 107.82 90.3394
87.927 107.736 90.638
89.3976 108.176 90.1166
86.2449 109.104 89.2738
87.7877 108.908 89.6735
84.6518 90.0911 92.3797
86.7423 89.5409 91.9996
88.8086 90.2435 91.5552
90.8979 91.6402 91.646
92.8189 93.5493 91.76
93.3283 95.2374 90.9756
95.2257 95.3861 91.6733
82.3082 93.7671 92.0495
83.2455 91.9981 92.9589
97.1381 97.405 91.604
82.2145 95.9832 92.3268
83.5047 94.3519 93.2363
95.2539 98.9689 93.1904
82.9342 97.6251 92.9119
93.1602 100.315 92.6466
83.5445 99.0076 93.1558
83.6728 100.646 92.9545
84.8863 99.333 93.3321
89.7071 100.769 92.0925
89.6324 99.3993 92.2413
88.3531 100.205 92.3031
91.4485 101.066 92.0415
91.2543 99.6766 92.4404
83.9612 102.207 92.4116
85.4069 100.308 92.8968
85.8447 101.731 92.3303
87.8108 101.689 91.9231
87.0258 100.165 92.5297
89.7293 102.025 91.5857
88.0979 88.6825 92.2672
85.8673 88.8582 93.1176
87.2846 87.8343 93.9058
89.5645 88.2941 93.0947
90.6955 89.6854 92.0992
91.6928 89.202 93.2039
92.7743 91.5268 92.5224
93.8188 90.8267 93.5359
94.9479 93.4275 92.5378
95.4819 92.2225 93.6024
96.7962 93.8164 92.8442
97.1586 92.8315 93.5162
84.6451 90.3892 94.018
97.4116 95.4949 92.1332
98.1595 94.9038 93.4761
84.5839 92.1003 94.7322
96.7471 97.6489 93.469
97.6698 96.5829 93.6967
84.4123 96.1439 93.8645
85.0716 93.8966 94.2583
91.9457 97.1437 93.6637
91.7707 95.3945 94.2313
90.2123 96.2946 93.8133
93.631 98.0254 93.6405
94.2896 96.8175 93.9958
96.129 96.5717 94.4763
84.9794 97.8068 93.4705
86.3371 95.5636 94.2094
86.9125 97.2252 93.5712
89.2151 97.2702 93.2975
88.2318 96.0203 94.0143
90.5728 98.5629 92.9497
92.7685 98.9041 93.1477
86.4136 98.7478 93.0207
88.287 98.534 92.569
92.6548 89.0305 94.176
91.1583 87.8745 94.2345
92.1023 87.2847 94.9927
93.455 88.2165 94.798
93.9334 89.6622 94.2949
94.5241 89.1238 94.7782
85.7074 89.0119 94.9832
87.0666 87.8061 95.7569
89.2828 87.6776 94.5901
95.2518 90.6115 94.1236
96.8852 91.1949 94.4548
98.4048 93.1316 94.0508
98.2648 91.817 94.7435
85.7677 91.0467 95.7476
98.3849 94.7148 95.0281
98.7036 93.2333 95.3824
86.2098 92.6707 95.715
96.9725 93.2976 96.0292
96.9614 95.3945 94.9496
87.0322 93.7181 95.1714
87.4861 94.6237 94.4437
89.5663 95.1088 94.2663
89.3746 94.3836 95.3582
91.2256 94.2868 95.5378
93.0042 94.5962 94.9417
94.8178 95.287 94.8562
90.5022 87.3499 95.7649
91.9085 86.8758 96.3572
93.3036 87.037 95.6289
94.6079 87.905 95.306
95.686 89.7605 94.756
95.8408 88.8171 95.2331
96.4496 89.8507 94.9263
97.068 89.3981 95.2855
86.695 89.8449 96.6352
87.3786 88.5157 97.2861
88.7373 87.5111 96.5352
98.4 90.3778 95.1978
99.1376 91.8032 95.5328
99.5431 90.667 95.6385
99.97 91.4363 96.0451
100.436 90.4953 96.2872
87.6274 91.8009 96.7441
88.2271 90.3245 97.5972
98.4371 92.5867 96.2925
99.1328 91.8813 96.6357
100.333 91.1969 96.8605
88.0125 93.248 96.1142
89.6041 91.6291 97.2716
89.7762 93.2422 96.6568
92.0294 93.4665 96.1791
91.2067 92.4667 96.997
93.894 93.6682 95.8551
93.0289 92.1304 96.5885
95.5673 94.0778 95.5916
95.0239 92.4548 96.3316
96.3915 92.0594 96.908
97.8556 91.9387 97.0722
99.3293 91.4408 97.4465
90.6941 87.2076 97.405
92.0334 86.8511 97.3686
93.1024 86.8913 96.8902
94.5488 87.0379 96.3014
95.8696 87.9627 95.8312
96.8779 88.2265 96.3063
88.1558 88.4318 98.3058
89.2228 87.4324 98.2426
98.3467 88.6832 96.1363
99.6674 89.6758 96.2517
100.798 90.163 96.9465
88.8974 89.5937 98.6983
100.394 90.9013 97.7156
89.7887 90.5392 98.2472
91.3175 91.3571 97.8652
92.833 91.2158 97.6206
92.3167 90.6058 98.624
94.2165 91.2586 97.29
95.4631 91.3361 97.2779
96.7896 91.4259 97.6971
97.7679 91.113 97.9758
98.9002 90.8363 98.1209
93.7027 90.762 98.3359
95.0301 90.7482 98.1356
96.153 90.8711 98.1674
97.0772 90.9552 98.4628
91.7611 87.0086 97.983
92.8127 86.911 98.0007
94.263 86.9738 97.7516
95.7205 87.1736 96.942
89.2036 88.4377 99.3279
90.4201 87.5727 98.9497
91.877 87.2096 98.8046
93.6225 87.225 98.9836
95.4686 87.0736 98.3078
97.1179 87.6138 97.4178
98.5609 87.7843 97.3819
99.6275 88.5179 97.0862
100.503 89.1929 97.2531
101.145 90.1684 97.9139
100.857 89.2044 98.2586
89.7683 89.7037 99.3476
90.248 88.8134 100.137
100.195 90.6255 98.569
100.864 90.0751 99.0435
90.9318 90.3002 99.0988
92.0039 90.1718 99.6024
98.4384 90.3029 99.345
97.7746 90.6791 98.9379
99.4883 90.2569 99.1959
93.1117 90.3104 99.2463
94.3814 90.376 99.1346
95.5522 90.4152 99.0626
96.6781 90.6147 99.1521
91.1506 87.8405 100.316
92.5662 87.5329 100.274
93.8809 87.5216 100.108
94.9197 87.3303 99.543
96.3634 87.3443 99.0168
97.7586 87.5171 98.4478
99.1273 87.876 98.1652
100.24 88.3467 98.0272
100.814 88.973 99.2727
91.2308 89.4012 100.316
92.0587 88.6485 100.896
93.4249 88.3213 100.799
100.168 89.7591 99.7701
92.4201 89.7899 100.536
93.3342 89.4038 101.008
97.9015 89.9919 100.256
97.2751 90.3915 99.8575
99.0012 89.844 100.145
93.6736 90.1066 100.149
94.951 90.2186 99.9656
96.1307 90.3436 100.128
94.78 87.9779 100.584
96.0036 87.6944 100.282
97.2974 87.7333 99.7633
98.658 88.0771 99.4024
99.9151 88.2869 98.9833
94.5265 89.0572 100.936
95.725 88.7532 100.767
96.851 88.4996 100.47
98.0469 88.8886 100.299
99.5705 88.8009 99.99
94.3687 89.8692 100.747
95.4832 89.8235 100.744
96.7436 89.6325 100.627
POLYGONS 1324  5296
3 0 1 2
3 0 3 4
3 2 3 0
3 3 5 4
3 6 7 8
3 1 6 8
3 1 0 6
3 0 9 6
3 4 10 0
3 10 9 0
3 11 4 5
3 11 12 4
3 12 10 4
3 12 13 14
3 11 13 12
3 13 15 14
3 16 7 6
3 17 7 16
3 9 18 6
3 18 16 6
3 10 19 9
3 19 18 9
3 12 20 10
3 20 19 10
3 14 21 12
3 21 20 12
3 22 14 15
3 21 14 22
3 23 17 16
3 24 17 23
3 18 25 16
3 25 23 16
3 19 26 18
3 26 25 18
3 20 27 19
3 27 26 19
3 21 28 20
3 28 27 20
3 29 21 22
3 28 21 29
3 23 30 24
3 25 30 23
3 31 30 25
3 26 31 25
3 32 31 26
3 27 32 26
3 33 32 27
3 28 33 27
3 34 33 28
3 29 34 28
3 35 36 37
3 35 2 1
3 35 37 2
3 37 38 2
3 3 2 39
3 2 38 39
3 5 40 41
3 5 3 40
3 3 39 40
3 40 42 41
3 8 36 35
3 8 7 36
3 7 43 36
3 1 8 35
3 5 41 11
3 41 42 44
3 41 44 11
3 11 44 13
3 44 15 13
3 45 15 44
3 7 17 43
3 43 17 46
3 15 45 22
3 45 47 22
3 17 24 46
3 46 24 48
3 22 47 29
3 47 49 29
3 24 50 48
3 30 50 24
3 31 51 30
3 30 51 50
3 32 52 31
3 31 52 51
3 33 53 32
3 32 53 52
3 34 54 33
3 33 54 53
3 49 34 29
3 54 34 49
3 55 56 57
3 55 58 59
3 57 58 55
3 58 60 59
3 61 56 55
3 62 56 61
3 59 63 55
3 63 61 55
3 64 59 60
3 64 65 59
3 65 63 59
3 64 66 65
3 67 68 69
3 62 67 69
3 61 67 62
3 61 36 67
3 61 37 36
3 38 37 61
3 63 38 61
3 39 38 63
3 65 39 63
3 65 66 70
3 65 70 39
3 39 70 40
3 42 71 72
3 42 40 71
3 40 70 71
3 71 73 72
3 74 68 67
3 75 68 74
3 36 43 74
3 67 36 74
3 42 72 44
3 72 45 44
3 72 73 45
3 73 76 45
3 77 75 74
3 78 75 77
3 43 46 77
3 74 43 77
3 79 80 47
3 79 47 76
3 76 47 45
3 79 81 80
3 77 82 78
3 82 77 46
3 82 46 83
3 83 46 48
3 80 84 49
3 47 80 49
3 85 80 81
3 84 80 85
3 48 86 83
3 50 86 48
3 51 87 50
3 50 87 86
3 52 88 51
3 51 88 87
3 53 89 52
3 52 89 88
3 54 90 53
3 53 90 89
3 84 54 49
3 84 91 54
3 91 90 54
3 85 91 84
3 92 93 94
3 92 95 96
3 94 95 92
3 96 97 98
3 95 97 96
3 97 99 98
3 100 101 102
3 93 100 102
3 92 100 93
3 92 56 100
3 92 57 56
3 58 57 92
3 96 58 92
3 60 58 96
3 60 96 103
3 103 96 98
3 104 98 99
3 104 105 98
3 105 103 98
3 105 106 107
3 104 106 105
3 106 108 107
3 109 110 111
3 101 109 111
3 101 100 109
3 100 112 109
3 56 62 112
3 100 56 112
3 60 103 64
3 66 64 103
3 66 103 113
3 113 103 105
3 107 114 105
3 114 113 105
3 115 107 108
3 114 107 115
3 116 110 109
3 117 110 116
3 69 68 116
3 69 116 112
3 112 116 109
3 62 69 112
3 66 113 70
3 71 70 113
3 114 71 113
3 73 118 119
3 71 118 73
3 71 115 118
3 71 114 115
3 119 120 121
3 118 120 119
3 120 122 121
3 116 123 117
3 123 116 68
3 123 68 124
3 124 68 75
3 119 125 76
3 73 119 76
3 121 126 119
3 126 125 119
3 127 121 122
3 126 121 127
3 75 78 124
3 124 78 128
3 76 125 79
3 81 79 125
3 81 125 129
3 129 125 126
3 130 126 127
3 129 126 130
3 78 131 128
3 82 131 78
3 131 82 83
3 132 131 83
3 129 133 85
3 81 129 85
3 134 129 130
3 133 129 134
3 83 135 132
3 86 135 83
3 87 136 86
3 86 136 135
3 88 137 87
3 87 137 136
3 89 138 88
3 88 138 137
3 90 139 89
3 89 139 138
3 91 140 90
3 90 140 139
3 133 91 85
3 133 141 91
3 141 140 91
3 134 141 133
3 142 143 144
3 142 145 146
3 144 145 142
3 146 147 148
3 145 147 146
3 148 149 150
3 147 149 148
3 149 151 150
3 152 143 142
3 153 143 152
3 94 93 152
3 94 152 146
3 146 152 142
3 95 94 146
3 148 95 146
3 97 95 148
3 150 97 148
3 150 99 97
3 150 151 99
3 151 154 99
3 155 156 157
3 153 155 157
3 152 155 153
3 152 101 155
3 152 102 101
3 93 102 152
3 99 154 158
3 104 99 158
3 106 104 159
3 104 158 159
3 159 108 106
3 160 108 159
3 111 156 155
3 111 110 156
3 110 161 156
3 101 111 155
3 108 160 115
3 160 162 115
3 110 117 161
3 161 117 163
3 115 162 164
3 118 115 164
3 120 118 165
3 118 164 165
3 165 122 120
3 166 122 165
3 117 167 163
3 123 167 117
3 167 123 124
3 168 167 124
3 122 166 127
3 166 169 127
3 124 128 168
3 168 128 170
3 127 169 130
3 169 171 130
3 128 172 170
3 131 172 128
3 172 131 132
3 173 172 132
3 174 175 176
3 175 174 177
3 130 171 134
3 171 178 134
3 132 179 173
3 135 179 132
3 136 180 135
3 135 180 179
3 176 137 174
3 176 180 137
3 180 136 137
3 174 181 177
3 174 137 181
3 137 138 181
3 139 182 138
3 138 182 181
3 140 183 139
3 139 183 182
3 141 184 140
3 140 184 183
3 178 141 134
3 184 141 178
3 185 186 187
3 185 188 189
3 187 188 185
3 189 190 191
3 188 190 189
3 191 192 193
3 190 192 191
3 192 194 193
3 195 196 197
3 186 195 197
3 186 185 195
3 185 198 195
3 189 199 185
3 199 198 185
3 191 200 189
3 200 199 189
3 193 201 191
3 201 200 191
3 202 193 194
3 201 193 202
3 203 196 195
3 204 196 203
3 144 143 203
3 144 203 198
3 198 203 195
3 145 144 198
3 199 145 198
3 147 145 199
3 200 147 199
3 149 147 200
3 201 149 200
3 201 151 149
3 201 202 151
3 202 205 151
3 206 204 203
3 207 204 206
3 143 153 206
3 203 143 206
3 151 205 154
3 205 208 154
3 157 207 206
3 157 156 207
3 156 209 207
3 153 157 206
3 154 208 210
3 158 154 210
3 159 158 211
3 158 210 211
3 160 212 213
3 160 159 212
3 159 211 212
3 212 214 213
3 156 161 209
3 209 161 215
3 213 216 162
3 160 213 162
3 217 213 214
3 216 213 217
3 161 163 215
3 215 163 218
3 162 216 164
3 216 217 219
3 216 219 164
3 164 219 165
3 219 166 165
3 220 166 219
3 163 221 218
3 167 221 163
3 221 167 168
3 222 221 168
3 166 220 169
3 220 223 169
3 224 170 225
3 224 222 170
3 222 168 170
3 225 226 227
3 224 225 227
3 226 228 229
3 227 226 229
3 228 230 231
3 229 228 231
3 230 232 233
3 231 230 233
3 232 234 235
3 233 232 235
3 235 234 236
3 169 223 171
3 223 237 171
3 170 172 225
3 173 225 172
3 173 238 225
3 238 226 225
3 228 226 239
3 239 226 238
3 175 239 176
3 175 230 239
3 230 228 239
3 177 230 175
3 177 240 230
3 240 232 230
3 234 232 241
3 241 232 240
3 242 236 234
3 242 234 243
3 243 234 241
3 243 244 245
3 242 243 245
3 244 237 245
3 244 178 237
3 178 171 237
3 173 179 238
3 180 238 179
3 239 238 180
3 176 239 180
3 177 181 240
3 182 240 181
3 241 240 182
3 183 241 182
3 243 241 183
3 184 243 183
3 244 243 184
3 178 244 184
3 246 247 248
3 246 249 250
3 248 249 246
3 250 251 252
3 249 251 250
3 252 253 254
3 251 253 252
3 253 255 254
3 256 257 258
3 247 256 258
3 246 256 247
3 246 186 256
3 246 187 186
3 188 187 246
3 250 188 246
3 190 188 250
3 252 190 250
3 192 190 252
3 254 192 252
3 254 194 192
3 254 255 194
3 255 259 194
3 197 257 256
3 197 196 257
3 196 260 257
3 186 197 256
3 261 262 202
3 261 202 259
3 259 202 194
3 261 263 262
3 264 265 266
3 264 266 260
3 264 260 204
3 204 260 196
3 262 267 205
3 202 262 205
3 268 262 263
3 267 262 268
3 269 265 264
3 270 265 269
3 204 207 269
3 264 204 269
3 267 271 208
3 205 267 208
3 272 267 268
3 271 267 272
3 273 270 269
3 274 270 273
3 207 209 273
3 269 207 273
3 208 271 210
3 271 272 275
3 271 275 210
3 210 275 211
3 212 211 276
3 211 275 276
3 276 214 212
3 277 214 276
3 273 278 274
3 278 273 209
3 278 209 279
3 279 209 215
3 214 277 217
3 277 280 217
3 215 218 279
3 279 218 281
3 282 219 217
3 282 217 283
3 283 217 280
3 219 282 220
3 218 284 281
3 221 284 218
3 284 221 222
3 285 284 222
3 286 287 288
3 286 289 290
3 287 286 290
3 289 291 292
3 290 289 292
3 291 293 294
3 292 291 294
3 283 294 293
3 283 293 282
3 282 293 295
3 220 295 223
3 282 295 220
3 222 296 285
3 224 296 222
3 227 297 224
3 224 297 296
3 229 298 227
3 227 298 297
3 288 231 286
3 288 298 231
3 298 229 231
3 233 286 231
3 289 286 233
3 235 289 233
3 291 289 235
3 236 291 235
3 236 299 291
3 299 293 291
3 295 293 300
3 300 293 299
3 223 300 237
3 295 300 223
3 236 242 299
3 245 299 242
3 300 299 245
3 237 300 245
3 301 302 303
3 301 304 305
3 303 304 301
3 305 306 307
3 304 306 305
3 306 308 307
3 309 310 311
3 302 309 311
3 302 301 309
3 301 312 309
3 305 313 301
3 313 312 301
3 307 314 305
3 314 313 305
3 315 307 308
3 315 316 307
3 316 314 307
3 315 317 316
3 318 310 309
3 319 310 318
3 248 247 318
3 248 318 312
3 312 318 309
3 249 248 312
3 313 249 312
3 251 249 313
3 314 251 313
3 253 251 314
3 316 253 314
3 255 320 321
3 253 320 255
3 253 317 320
3 253 316 317
3 320 322 321
3 258 319 318
3 258 257 319
3 257 323 319
3 247 258 318
3 321 324 259
3 255 321 259
3 325 321 322
3 324 321 325
3 326 327 328
3 326 328 323
3 326 323 260
3 260 323 257
3 259 324 261
3 324 263 261
3 324 325 263
3 325 329 263
3 266 327 326
3 266 265 327
3 265 330 327
3 260 266 326
3 263 329 268
3 329 331 268
3 265 270 330
3 330 270 332
3 268 331 272
3 331 333 272
3 270 274 332
3 332 274 334
3 335 275 272
3 335 272 336
3 336 272 333
3 275 337 276
3 335 337 275
3 276 337 277
3 274 338 334
3 278 338 274
3 279 339 340
3 279 340 278
3 278 340 338
3 340 339 341
3 342 343 344
3 336 343 342
3 336 342 335
3 335 342 345
3 337 335 346
3 346 335 345
3 277 346 280
3 337 346 277
3 339 281 347
3 279 281 339
3 348 341 339
3 348 339 349
3 349 339 347
3 348 349 350
3 351 352 353
3 344 352 351
3 344 351 342
3 342 351 354
3 345 342 355
3 355 342 354
3 346 345 356
3 356 345 355
3 280 356 283
3 346 356 280
3 281 284 347
3 285 347 284
3 285 357 347
3 357 349 347
3 358 350 349
3 358 349 359
3 359 349 357
3 359 360 361
3 358 359 361
3 353 361 360
3 351 353 360
3 351 360 288
3 351 288 287
3 290 351 287
3 354 351 290
3 292 354 290
3 355 354 292
3 294 355 292
3 356 355 294
3 283 356 294
3 285 296 357
3 297 357 296
3 359 357 297
3 298 359 297
3 360 359 298
3 288 360 298
3 362 363 364
3 362 303 302
3 362 364 303
3 364 365 303
3 304 303 366
3 303 365 366
3 306 304 367
3 304 366 367
3 367 308 306
3 368 308 367
3 311 363 362
3 311 310 363
3 310 369 363
3 302 311 362
3 308 368 370
3 315 308 370
3 370 317 315
3 371 317 370
3 310 319 369
3 369 319 372
3 317 371 373
3 320 317 373
3 373 322 320
3 374 322 373
3 319 323 372
3 372 323 375
3 322 374 325
3 374 376 325
3 328 377 378
3 327 377 328
3 375 323 328
3 378 375 328
3 325 376 329
3 376 379 329
3 327 330 377
3 377 330 380
3 381 382 383
3 381 379 382
3 381 331 379
3 331 329 379
3 330 332 380
3 380 332 384
3 385 381 383
3 386 385 383
3 331 385 333
3 381 385 331
3 387 334 388
3 387 384 334
3 384 332 334
3 387 388 389
3 390 385 386
3 391 390 386
3 333 390 336
3 385 390 333
3 334 338 388
3 388 392 389
3 388 338 392
3 338 340 392
3 341 393 394
3 341 394 340
3 340 394 392
3 394 393 395
3 396 397 398
3 391 397 396
3 390 391 396
3 390 396 344
3 390 344 343
3 336 390 343
3 341 348 393
3 350 399 400
3 348 350 400
3 348 400 395
3 348 395 393
3 399 401 402
3 400 399 402
3 398 402 401
3 396 398 401
3 396 401 353
3 396 353 352
3 344 396 352
3 350 358 399
3 361 399 358
3 401 399 361
3 353 401 361
3 403 404 405
3 403 406 407
3 405 406 403
3 407 408 409
3 406 408 407
3 408 410 409
3 364 411 412
3 363 411 364
3 404 403 365
3 404 365 412
3 412 365 364
3 366 365 403
3 407 366 403
3 367 366 407
3 409 367 407
3 368 413 414
3 367 413 368
3 367 410 413
3 367 409 410
3 413 415 414
3 363 369 411
3 411 369 416
3 368 414 370
3 414 371 370
3 414 415 371
3 415 417 371
3 369 372 416
3 416 372 418
3 419 373 371
3 419 371 420
3 420 371 417
3 373 419 374
3 372 375 418
3 418 375 421
3 422 419 420
3 423 422 420
3 374 422 376
3 419 422 374
3 378 377 424
3 378 424 425
3 378 425 375
3 375 425 421
3 426 427 428
3 423 427 426
3 423 426 422
3 422 426 429
3 376 429 379
3 422 429 376
3 424 380 430
3 377 380 424
3 431 425 424
3 431 424 432
3 432 424 430
3 432 433 434
3 431 432 434
3 433 435 436
3 434 433 436
3 435 437 438
3 436 435 438
3 428 438 437
3 428 437 426
3 426 437 439
3 382 439 383
3 382 429 439
3 429 426 439
3 379 429 382
3 430 384 440
3 380 384 430
3 432 430 441
3 441 430 440
3 433 432 442
3 442 432 441
3 435 433 443
3 443 433 442
3 437 435 444
3 444 435 443
3 439 437 445
3 445 437 444
3 383 445 386
3 439 445 383
3 384 387 440
3 389 440 387
3 389 446 440
3 446 441 440
3 442 441 447
3 447 441 446
3 443 442 448
3 448 442 447
3 444 443 449
3 449 443 448
3 445 444 450
3 450 444 449
3 386 450 391
3 445 450 386
3 389 392 446
3 394 446 392
3 447 446 394
3 395 447 394
3 395 451 447
3 451 448 447
3 449 448 452
3 452 448 451
3 397 452 398
3 397 450 452
3 450 449 452
3 391 450 397
3 395 400 451
3 402 451 400
3 452 451 402
3 398 452 402
3 405 453 454
3 404 453 405
3 406 405 455
3 405 454 455
3 408 406 456
3 406 455 456
3 410 457 458
3 410 408 457
3 408 456 457
3 457 459 458
3 412 411 460
3 412 460 461
3 412 461 404
3 404 461 453
3 410 458 413
3 458 415 413
3 458 459 415
3 459 462 415
3 460 463 464
3 460 411 463
3 411 416 463
3 461 460 464
3 415 462 417
3 462 465 417
3 416 418 463
3 463 418 466
3 417 465 420
3 465 467 420
3 468 421 469
3 468 466 421
3 466 418 421
3 468 469 470
3 471 472 473
3 471 474 475
3 472 471 475
3 474 467 475
3 474 423 467
3 423 420 467
3 469 425 476
3 421 425 469
3 477 470 469
3 477 469 478
3 478 469 476
3 478 479 480
3 477 478 480
3 473 480 479
3 473 479 471
3 471 479 481
3 427 481 428
3 427 474 481
3 474 471 481
3 423 474 427
3 425 431 476
3 434 476 431
3 478 476 434
3 436 478 434
3 479 478 436
3 438 479 436
3 481 479 438
3 428 481 438
3 482 483 484
3 482 485 486
3 484 485 482
3 486 487 488
3 485 487 486
3 488 489 490
3 487 489 488
3 490 491 492
3 489 491 490
3 491 493 492
3 454 483 482
3 454 453 483
3 453 494 483
3 455 454 482
3 486 455 482
3 456 455 486
3 488 456 486
3 457 456 488
3 490 457 488
3 459 457 490
3 459 490 495
3 495 490 492
3 496 492 493
3 495 492 496
3 453 461 494
3 494 461 497
3 495 498 462
3 459 495 462
3 499 495 496
3 498 495 499
3 464 463 500
3 464 500 501
3 464 501 461
3 461 501 497
3 502 503 504
3 502 505 506
3 503 502 506
3 498 507 506
3 498 506 465
3 498 465 462
3 465 506 505
3 499 507 498
3 500 466 508
3 463 466 500
3 509 501 500
3 509 500 510
3 510 500 508
3 510 511 512
3 509 510 512
3 504 512 511
3 504 511 502
3 502 511 513
3 505 502 514
3 514 502 513
3 465 514 467
3 505 514 465
3 466 468 508
3 470 508 468
3 470 515 508
3 515 510 508
3 511 510 516
3 516 510 515
3 472 516 473
3 472 513 516
3 513 511 516
3 475 513 472
3 514 513 475
3 467 514 475
3 470 477 515
3 480 515 477
3 516 515 480
3 473 516 480
3 517 518 519
3 517 520 521
3 519 520 517
3 520 522 521
3 484 523 524
3 483 523 484
3 485 484 525
3 484 524 525
3 518 517 487
3 518 487 525
3 525 487 485
3 489 487 517
3 521 489 517
3 521 522 526
3 521 526 489
3 489 526 491
3 493 527 528
3 493 491 527
3 491 526 527
3 527 529 528
3 483 494 523
3 523 494 530
3 528 531 496
3 493 528 496
3 532 528 529
3 531 528 532
3 494 497 530
3 530 497 533
3 531 534 535
3 531 535 496
3 496 535 499
3 532 534 531
3 536 501 537
3 536 533 501
3 533 497 501
3 537 538 539
3 536 537 539
3 538 504 503
3 538 503 539
3 539 503 540
3 506 541 503
3 503 541 540
3 507 542 506
3 506 542 541
3 535 507 499
3 542 507 535
3 501 509 537
3 512 537 509
3 538 537 512
3 504 538 512
3 519 543 544
3 518 543 519
3 520 519 545
3 519 544 545
3 522 546 547
3 522 520 546
3 520 545 546
3 547 548 549
3 546 548 547
3 548 550 549
3 524 523 551
3 552 524 551
3 552 553 524
3 553 525 524
3 543 518 525
3 553 543 525
3 522 547 526
3 527 526 547
3 549 527 547
3 529 554 555
3 527 554 529
3 527 550 554
3 527 549 550
3 555 556 557
3 554 556 555
3 556 558 557
3 551 530 559
3 523 530 551
3 560 552 551
3 559 560 551
3 555 561 532
3 529 555 532
3 557 562 555
3 562 561 555
3 563 557 558
3 562 557 563
3 559 533 564
3 530 533 559
3 565 560 559
3 565 559 566
3 566 559 564
3 566 567 568
3 565 566 568
3 567 569 570
3 568 567 570
3 569 571 572
3 570 569 572
3 571 535 534
3 571 534 572
3 572 534 573
3 561 534 532
3 561 574 534
3 574 573 534
3 562 574 561
3 575 574 562
3 563 575 562
3 533 536 564
3 539 564 536
3 566 564 539
3 540 566 539
3 567 566 540
3 541 567 540
3 569 567 541
3 542 569 541
3 571 569 542
3 535 571 542
3 544 576 577
3 543 576 544
3 545 544 578
3 544 577 578
3 546 545 579
3 545 578 579
3 548 546 580
3 546 579 580
3 580 550 548
3 581 550 580
3 553 582 583
3 552 582 553
3 576 543 553
3 583 576 553
3 550 581 584
3 554 550 584
3 556 554 585
3 554 584 585
3 585 558 556
3 586 558 585
3 552 560 582
3 582 560 587
3 558 586 563
3 586 588 563
3 560 589 587
3 565 589 560
3 568 590 565
3 565 590 589
3 591 592 590
3 591 590 570
3 570 590 568
3 570 572 593
3 591 570 593
3 572 573 594
3 593 572 594
3 573 574 595
3 594 573 595
3 596 595 574
3 596 574 597
3 597 574 575
3 588 575 563
3 597 575 588
3 591 598 592
3 593 598 591
3 599 598 593
3 594 599 593
3 600 599 594
3 595 600 594
3 601 600 595
3 596 601 595
3 577 576 602
3 577 603 578
3 602 603 577
3 578 604 579
3 603 604 578
3 579 605 580
3 604 605 579
3 580 605 581
3 583 582 606
3 583 606 607
3 576 583 607
3 576 607 608
3 576 608 602
3 603 602 608
3 609 603 608
3 604 603 609
3 610 604 609
3 605 604 610
3 611 605 610
3 581 605 611
3 581 611 584
3 584 611 612
3 585 584 613
3 584 612 613
3 586 614 615
3 586 585 614
3 585 613 614
3 614 616 615
3 606 587 617
3 582 587 606
3 618 607 606
3 617 618 606
3 615 619 588
3 586 615 588
3 620 615 616
3 619 615 620
3 587 589 617
3 617 621 618
3 617 589 621
3 589 590 621
3 621 590 592
3 622 621 592
3 597 623 624
3 596 597 624
3 619 597 588
3 619 625 597
3 625 623 597
3 620 625 619
3 592 626 622
3 598 626 592
3 599 627 598
3 598 627 626
3 600 628 599
3 599 628 627
3 601 629 600
3 600 629 628
3 624 601 596
3 629 601 624
3 608 607 630
3 608 631 609
3 630 631 608
3 632 609 631
3 632 633 609
3 633 610 609
3 611 610 634
3 610 633 634
3 612 611 635
3 611 634 635
3 613 612 636
3 612 635 636
3 614 613 637
3 613 636 637
3 637 616 614
3 638 616 637
3 630 618 639
3 607 618 630
3 631 630 640
3 640 630 639
3 641 632 631
3 640 641 631
3 616 638 620
3 638 642 620
3 618 621 639
3 622 639 621
3 622 643 639
3 643 640 639
3 644 641 640
3 643 644 640
3 623 645 646
3 624 623 646
3 625 647 623
3 623 647 645
3 642 625 620
3 647 625 642
3 622 626 643
3 643 648 644
3 643 626 648
3 626 627 648
3 628 649 627
3 627 649 648
3 629 650 628
3 628 650 649
3 646 629 624
3 650 629 646
3 633 632 651
3 633 652 634
3 651 652 633
3 634 653 635
3 652 653 634
3 635 654 636
3 653 654 635
3 636 655 637
3 654 655 636
3 637 655 638
3 651 641 656
3 632 641 651
3 652 651 657
3 657 651 656
3 653 652 658
3 658 652 657
3 654 653 659
3 659 653 658
3 655 654 660
3 660 654 659
3 638 660 642
3 655 660 638
3 656 644 661
3 641 644 656
3 657 656 662
3 662 656 661
3 658 657 663
3 663 657 662
3 645 663 646
3 645 659 663
3 659 658 663
3 647 659 645
3 660 659 647
3 642 660 647
3 644 648 661
3 649 661 648
3 662 661 649
3 650 662 649
3 663 662 650
3 646 663 650
