# vtk DataFile Version 3.0
this file was written using fslvtkio
ASCII
DATASET POLYDATA
POINTS 642 float
131.12 129.283 105.885
121.626 128.323 105.1
126.829 122.068 104.938
135.476 119.858 105.2
130.715 124.924 110.685
132.612 124.818 101.265
125.902 124.699 100.661
125.652 124.975 110.218
125.419 133.382 109.661
131.263 117.407 108.618
131.784 117.469 101.621
125.914 132.228 102.256
124.978 129.267 111.122
128.301 129.874 111.329
128.501 124.609 112.409
128.766 121.197 109.975
132.095 120.078 111.203
125.522 128.415 101.573
129.552 124.51 100.759
129.626 128.967 101.494
129.117 121.166 100.984
133.378 120.242 101.045
133.583 121.672 108.437
131.048 127.702 108.598
133.831 124.79 105.527
135.133 121.739 102.413
132.471 127.83 102.969
123.07 127.654 108.432
126.488 123.731 107.525
123.31 124.791 104.862
122.466 126.694 101.697
125.647 123.094 102.419
128.528 131.809 104.058
128.115 132.41 107.745
124.382 134.805 105.329
122.045 131.409 103.084
122.013 131.876 107.26
136.161 115.824 101.817
131.627 116.09 104.712
134.723 116.565 107.423
129.04 119.279 103.324
129.211 119.575 106.669
126.641 129.866 111.862
128.383 127.459 112.532
126.568 127.008 112.204
129.9 124.789 112.084
129.521 127.448 111.152
127.032 132.003 110.868
124.987 131.456 110.372
124.905 126.919 110.955
126.842 124.791 111.525
128.289 122.715 111.494
130.343 122.385 112.432
130.186 120.249 111.28
131.487 122.563 111.081
127.271 123.259 110.02
130.036 119.436 109.23
131.688 118.279 110.386
127.527 126.71 100.944
129.44 126.782 101.07
127.715 128.612 101.495
131.11 126.944 101.2
131.074 124.609 101.071
127.759 124.65 100.651
125.721 126.584 100.816
125.859 130.221 102.103
127.811 130.665 101.965
131.236 120.728 100.806
131.364 122.422 100.767
129.162 122.85 100.677
132.86 122.518 100.999
132.631 118.759 101.232
130.523 119.396 101.471
127.358 122.98 100.801
132.521 124.79 108.588
132.561 126.176 107.211
133.799 123.477 107.204
132.455 127.049 105.732
131.189 128.634 107.321
130.841 126.358 109.667
132.277 123.38 109.651
134.6 120.819 106.948
134.774 122.416 105.495
134.711 123.581 103.954
133.275 126.314 104.227
134.113 125.031 102.725
131.715 128.596 104.43
135.486 120.977 103.862
134.025 123.477 101.676
132.842 126.61 101.788
124.61 125.612 107.971
124.808 124.386 106.412
123.392 126.136 106.677
125.127 123.61 104.946
126.512 122.768 106.25
126.173 124.385 108.84
124.266 126.312 109.424
122.35 127.802 106.727
122.378 126.419 104.91
122.53 125.351 103.187
124.319 123.89 103.526
123.492 124.563 101.789
126.255 122.452 103.646
121.746 127.354 103.315
124.003 125.708 100.825
125.543 123.678 101.271
128.068 132.537 105.776
126.509 134.509 106.871
126.429 134.125 104.439
124.733 134.478 107.819
127.034 133.352 108.983
129.533 130.831 106.804
130.031 130.697 104.969
127.362 132.331 102.985
124.876 133.952 103.09
122.891 133.724 103.513
122.644 134.01 106.391
121.023 132.112 104.912
123.544 132.716 108.605
124.057 131.785 102.44
121.144 129.679 104.046
121.433 130.019 106.265
133.698 114.557 103.017
133.51 114.956 106.08
135.917 115.436 104.781
132.962 116.368 108.629
131.409 116.67 106.683
131.455 116.335 102.78
133.635 116.292 101.324
136.039 117.896 103.865
135.237 118.324 106.315
129.046 119.159 104.946
130.299 117.545 105.68
130.226 117.196 103.817
130.177 118.458 107.646
128.053 120.838 105.78
127.966 120.843 104.112
130.106 118.294 102.327
129.602 128.88 109.916
128.229 131.19 109.546
129.557 130.145 108.273
130.71 129.931 103.456
129.371 130.77 102.509
131.359 128.511 101.874
133.369 117.911 109.602
132.756 120.839 109.794
134.217 119.022 108.1
135.893 118.64 102.361
134.403 120.995 101.417
134.754 117.733 101.093
123.403 130.692 109.231
123.767 128.404 109.914
122.267 129.686 107.833
122.281 128.962 102.702
123.956 127.533 101.407
123.836 129.889 102.381
127.84 121.737 107.058
127.669 122.536 108.638
128.999 120.608 108.226
128.814 120.226 102.053
127.253 122.045 101.607
127.474 121.315 102.799
127.509 128.681 112.361
127.452 127.317 112.451
126.611 128.447 112.081
127.53 125.897 112.406
128.303 126.109 112.633
128.316 128.764 112.092
127.588 129.918 111.964
125.834 129.524 111.557
125.798 128.22 111.759
129.092 126.19 112.469
128.967 127.513 111.913
129.585 126.24 111.779
128.87 128.637 111.371
129.189 124.847 112.513
130.253 125.014 111.398
130.064 126.218 111.013
126.815 131.003 111.587
125.776 130.713 111.241
126.003 131.793 110.84
124.943 130.392 110.794
127.648 130.982 111.198
126.236 132.817 110.388
125.181 132.507 110.167
125.685 127.086 111.659
126.613 125.843 111.999
125.783 125.868 111.382
127.61 124.736 112.078
124.987 128.056 111.224
125.239 125.776 110.729
126.186 124.929 110.941
129.237 122.486 112.15
130.159 121.243 112.067
129.243 121.504 111.569
131.141 120.152 111.632
131.195 121.277 112.012
129.426 123.456 112.542
128.354 123.559 112.083
128.613 121.781 110.859
129.395 120.676 110.795
130.986 122.586 111.925
130.12 123.755 112.45
130.757 123.829 111.58
131.754 121.391 111.305
131.143 123.755 110.871
127.557 123.758 111.506
127.803 122.833 110.732
127.002 124.007 110.685
128.059 122.158 110.077
126.494 124.294 110.143
130.058 119.863 110.249
130.934 119.308 110.923
130.762 118.865 109.958
132.002 119.061 111.032
129.389 120.288 109.742
130.658 118.37 109.137
131.376 117.863 109.608
128.51 126.698 101.047
128.589 127.728 101.22
127.617 127.652 101.141
128.691 128.713 101.475
129.492 127.87 101.256
129.367 125.69 100.887
128.544 125.727 100.845
126.605 127.635 101.17
126.712 128.431 101.499
130.254 126.884 101.083
130.185 125.627 101.019
131.043 125.761 101.134
130.281 124.553 100.921
130.34 127.941 101.348
131.863 125.856 101.282
131.85 124.673 101.204
127.674 125.705 100.735
126.598 126.739 100.882
126.768 125.69 100.679
125.627 127.508 101.172
128.625 124.742 100.694
126.839 124.718 100.615
125.897 125.606 100.669
126.722 129.38 101.812
127.763 129.591 101.759
126.852 130.447 101.973
128.692 129.769 101.74
125.795 129.21 101.866
125.894 131.257 102.162
126.886 131.472 102.107
131.293 121.578 100.638
130.217 122.637 100.771
130.162 121.786 100.666
129.378 123.688 100.686
130.393 123.452 100.795
132.364 121.405 100.687
132.308 120.51 100.835
130.142 121.011 100.816
129.268 121.921 100.749
131.076 123.572 100.93
132.127 122.45 100.78
131.9 123.593 101.094
133.161 121.391 100.9
132.625 123.673 101.242
131.923 119.83 101.042
130.762 120.112 101.128
131.528 119.107 101.239
129.862 120.321 101.206
133.012 119.499 101.103
132.213 118.084 101.321
131.192 118.435 101.538
128.299 122.818 100.733
128.466 123.791 100.633
127.492 123.745 100.605
128.3 122.06 100.902
126.621 123.903 100.67
132.556 125.505 107.888
133.26 124.861 107.169
133.203 124.147 107.895
133.786 124.264 106.426
133.253 125.414 106.457
131.861 126.843 107.956
131.813 126.148 108.462
133.122 123.37 108.539
133.66 122.731 107.922
132.561 126.577 106.465
131.887 127.384 107.305
131.886 127.808 106.564
131.212 128.131 107.979
133.156 125.889 105.693
131.87 128.185 105.809
131.19 128.97 106.59
131.63 125.587 109.048
132.423 124.096 109.123
131.497 124.931 109.672
133.026 122.529 109.056
131.031 126.969 109.085
130.73 125.703 110.246
131.457 124.178 110.155
134.177 122.216 107.139
134.268 123.05 106.362
134.692 121.781 106.301
134.315 123.648 105.583
134.105 121.319 107.733
135.069 120.508 106.099
135.147 121.198 105.433
134.04 125.023 104.167
133.718 125.787 103.516
134.447 124.389 103.379
133.42 126.39 102.887
132.986 127.045 103.521
133.551 125.544 104.856
134.29 124.28 104.752
134.949 122.856 103.16
134.666 123.524 102.625
132.574 127.435 104.269
132.866 126.587 105.02
132.207 127.84 105.026
132.105 128.181 103.705
131.465 128.887 105.183
134.704 123.099 104.772
135.071 122.33 103.892
135.141 121.78 104.679
135.305 121.408 103.086
135.496 120.44 104.605
134.194 124.269 102.129
133.592 125.81 102.221
133.498 125.061 101.665
132.849 127.122 102.37
134.718 122.672 101.991
133.3 124.157 101.457
132.699 125.736 101.467
124.75 124.901 107.186
124.025 125.188 106.521
123.99 125.899 107.327
123.38 125.399 105.858
123.992 124.658 105.742
125.587 124.21 107.098
125.407 124.706 107.744
123.757 126.509 108.134
123.292 126.781 107.574
124.851 123.979 105.71
125.709 123.7 106.417
125.804 123.257 105.68
126.441 123.293 106.911
124.168 124.215 104.981
125.995 122.933 104.93
126.574 122.393 105.541
125.349 125.034 108.468
124.417 126.006 108.67
125.129 125.358 109.216
123.599 126.962 108.895
126.281 124.165 108.145
125.849 124.686 109.547
124.972 125.673 109.918
122.848 126.947 106.751
122.838 126.205 105.825
122.353 127.085 105.852
122.797 125.515 104.962
122.736 127.665 107.641
121.963 128.009 105.865
121.965 127.341 104.977
123.308 124.463 103.387
123.887 124.108 102.666
122.925 124.842 102.479
124.459 123.854 102.097
124.918 123.589 102.84
123.71 124.274 104.201
122.898 125.025 104.01
122.292 125.84 102.34
122.711 125.413 101.652
125.347 123.29 103.537
124.68 123.731 104.265
125.713 123.032 104.24
125.952 122.817 103.008
126.533 122.248 104.33
122.47 125.792 104.123
122.054 126.255 103.175
121.99 126.793 104.101
121.997 126.96 102.464
121.669 127.795 104.236
123.537 125.105 101.148
124.442 124.19 101.43
124.644 124.71 100.951
125.466 123.442 101.844
123.084 126.185 101.194
125.056 125.247 100.745
125.688 124.126 100.895
127.205 133.635 106.219
126.44 134.453 105.604
127.261 133.443 105.225
125.456 134.724 104.865
125.535 134.903 106.109
127.31 133.528 107.231
127.962 132.693 106.737
128.079 132.462 104.838
127.393 133.092 104.251
125.844 134.794 107.395
126.862 133.878 107.958
126.057 134.416 108.671
127.546 132.916 108.3
124.653 134.744 106.69
124.957 133.956 108.836
126.294 133.626 109.539
128.863 131.845 106.342
128.921 131.72 105.338
129.744 130.857 105.857
129.187 131.407 104.57
128.757 131.747 107.245
130.352 130.06 106.38
130.598 129.966 105.465
126.846 133.241 103.571
125.698 134.22 103.766
126.151 133.295 102.897
124.583 134.624 104.073
127.89 132.156 103.616
126.875 132.303 102.485
125.397 132.994 102.433
122.618 134.042 104.907
121.67 133.398 105.51
121.793 133.226 104.295
121.38 132.256 106.031
122.062 133.048 106.734
123.518 134.506 105.847
123.548 134.461 104.301
122.262 132.689 103.182
121.31 132.056 103.809
122.914 133.418 107.523
123.686 134.279 107.059
123.914 133.765 108.26
122.706 132.402 107.873
124.422 133.044 109.262
123.944 133.986 103.244
123.25 132.862 102.652
124.449 132.921 102.433
122.993 131.82 102.721
124.992 131.944 102.282
120.873 131.008 104.393
121.017 131.107 105.719
121.11 129.89 105.161
121.489 131.151 106.685
121.354 130.752 103.529
121.336 128.888 104.591
121.54 129.104 105.722
133.509 114.504 104.626
134.895 114.135 105.67
135.059 114.026 103.755
135.453 115.506 106.097
134.519 115.14 106.757
132.644 115.269 105.163
132.718 114.988 103.925
135.115 114.667 102.373
136.187 115.06 103.312
133.388 115.553 107.335
132.506 115.783 106.366
132.296 116.26 107.538
131.694 116.299 105.685
134.04 116.072 107.965
131.894 116.848 108.591
131.214 117.119 107.589
132.545 115.412 102.893
133.821 115.24 102.054
132.471 116.203 101.954
134.96 115.599 101.454
131.821 115.898 103.69
131.442 116.872 102.095
132.66 116.924 101.415
136.133 116.562 104.181
135.589 116.823 105.658
135.671 118.186 105.156
135.166 117.161 106.779
136.453 116.457 102.893
135.743 118.927 104.529
135.292 119.218 105.827
129.64 118.219 105.239
130.329 117.261 104.715
129.62 118.123 104.396
130.992 116.459 104.156
131.012 116.729 105.21
129.72 118.524 106.087
129.16 119.267 105.757
129.121 119.053 104.129
129.617 118.226 103.641
130.936 117.083 106.121
130.208 118.033 106.546
130.731 117.595 107.165
129.772 118.942 107.022
130.67 117.936 108.261
128.54 119.998 105.389
128.533 119.949 104.468
128.003 120.745 104.907
128.535 120.028 103.734
128.613 120.155 106.22
127.47 121.451 105.32
127.418 121.481 104.539
130.106 117.746 103.125
130.79 116.547 103.34
130.656 117.229 102.535
129.538 118.65 102.844
130.882 117.924 101.932
128.937 130.03 109.783
128.876 130.616 108.88
129.675 129.387 109.044
128.801 131.252 108.023
128.197 131.762 108.66
128.272 130.566 110.461
128.885 129.319 110.615
130.341 128.352 109.213
130.362 128.971 108.524
127.621 132.299 109.23
127.64 131.596 110.279
127.072 132.811 110
129.529 128.195 110.515
130.345 127.63 109.74
130.175 126.9 110.377
130.426 129.336 107.85
129.522 130.565 107.575
130.38 129.71 107.068
130.13 130.463 102.96
130.436 129.702 102.087
131.174 129.317 102.591
130.515 128.81 101.679
129.588 129.911 101.859
129.016 131.356 103.27
129.729 130.955 103.825
131.695 128.901 103.179
132.06 128.235 102.298
128.692 130.673 102.13
128.399 131.605 102.787
127.732 131.557 102.315
130.319 130.396 104.254
131.253 129.262 103.952
130.883 129.57 104.782
132.164 127.609 101.79
131.197 127.777 101.441
131.99 126.748 101.421
133.164 119.415 109.747
133.548 119.861 108.983
133.851 118.372 108.856
133.921 120.369 108.315
133.206 121.204 109.114
132.463 120.377 110.488
132.829 118.964 110.419
134.099 117.044 108.655
134.566 117.685 107.899
132.567 122.131 109.69
132.15 121.661 110.535
131.855 123.009 110.335
132.54 118.091 110.31
133.293 116.948 109.359
132.114 117.33 109.441
134.783 118.405 107.244
134.382 119.988 107.545
134.921 119.568 106.712
135.311 119.59 101.723
134.813 119.169 101.256
135.703 117.922 101.466
134.009 119.107 101.202
133.952 120.623 101.227
134.807 121.287 101.831
135.531 120.229 102.407
136.292 117.116 102.186
135.554 116.566 101.221
133.677 121.842 101.084
134.308 122.312 101.463
133.386 123.055 101.319
135.647 120.21 103.138
136.066 118.301 103.079
135.761 119.656 103.999
134.346 116.866 101.068
133.546 118.483 101.249
133.006 117.656 101.273
123.616 129.553 109.57
123.071 129.121 108.848
122.754 130.25 108.57
122.663 128.668 108.164
123.331 128.053 109.192
124.32 128.764 110.612
124.262 129.933 110.225
122.698 131.366 108.228
122.026 130.798 107.526
123.763 127.189 109.643
124.23 127.656 110.5
124.494 126.486 110.231
124.16 130.936 109.898
123.382 131.733 108.918
124.271 132.089 109.592
121.83 129.839 107.099
122.368 128.531 107.378
121.926 128.796 106.479
123.062 128.305 101.959
123.872 128.717 101.909
123 129.499 102.512
124.647 129.043 101.965
124.69 127.994 101.542
123.134 127.214 101.418
122.407 127.855 102.127
122.135 130.235 103.032
122.947 130.782 102.691
124.857 127.049 101.043
123.94 126.56 101.011
124.956 126.081 100.805
121.923 128.076 102.835
121.677 129.447 103.325
121.635 128.486 103.751
123.92 130.852 102.419
124.948 129.809 102.172
125.004 130.914 102.304
127.784 122.193 107.84
128.403 121.586 108.499
128.442 121.17 107.608
128.908 120.866 109.116
128.21 121.895 109.328
127.184 123.174 108.002
127.203 122.745 107.288
128.475 120.629 106.895
129.034 120.195 107.399
127.497 122.924 109.335
126.983 123.599 108.61
126.712 123.906 109.436
127.154 122.259 106.661
127.926 121.232 106.392
127.222 121.855 105.895
129.554 119.637 107.663
129.483 120.074 108.666
130.103 119.015 108.376
128.059 121.138 101.766
127.261 121.702 102.162
128.163 120.719 102.422
126.576 122.207 102.589
126.378 122.551 102.031
128.149 121.544 101.231
128.924 120.695 101.465
128.917 119.745 102.692
128.325 120.369 103.094
126.288 122.862 101.471
127.328 122.444 101.125
126.434 123.334 100.941
129.56 119.887 101.731
129.409 119.255 102.255
130.251 118.836 101.836
127.863 121.063 103.434
126.849 121.965 103.179
127.15 121.707 103.879
POLYGONS 1280  5120
3 164 162 163
3 163 44 164
3 162 43 163
3 164 42 162
3 166 165 163
3 163 43 166
3 165 44 163
3 166 14 165
3 168 167 162
3 162 42 168
3 167 43 162
3 168 13 167
3 170 169 164
3 164 44 170
3 169 42 164
3 170 12 169
3 173 171 172
3 172 46 173
3 171 43 172
3 173 45 171
3 167 174 172
3 172 43 167
3 174 46 172
3 167 13 174
3 175 166 171
3 171 45 175
3 166 43 171
3 175 14 166
3 177 176 173
3 173 46 177
3 176 45 173
3 177 4 176
3 180 178 179
3 179 48 180
3 178 42 179
3 180 47 178
3 169 181 179
3 179 42 169
3 181 48 179
3 169 12 181
3 182 168 178
3 178 47 182
3 168 42 178
3 182 13 168
3 184 183 180
3 180 48 184
3 183 47 180
3 184 8 183
3 187 185 186
3 186 50 187
3 185 44 186
3 187 49 185
3 165 188 186
3 186 44 165
3 188 50 186
3 165 14 188
3 189 170 185
3 185 49 189
3 170 44 185
3 189 12 170
3 191 190 187
3 187 50 191
3 190 49 187
3 191 7 190
3 194 192 193
3 193 53 194
3 192 52 193
3 194 51 192
3 196 195 193
3 193 52 196
3 195 53 193
3 196 16 195
3 198 197 192
3 192 51 198
3 197 52 192
3 198 14 197
3 200 199 194
3 194 53 200
3 199 51 194
3 200 15 199
3 203 201 202
3 202 45 203
3 201 52 202
3 203 54 201
3 197 175 202
3 202 52 197
3 175 45 202
3 197 14 175
3 204 196 201
3 201 54 204
3 196 52 201
3 204 16 196
3 176 205 203
3 203 45 176
3 205 54 203
3 176 4 205
3 208 206 207
3 207 55 208
3 206 51 207
3 208 50 206
3 199 209 207
3 207 51 199
3 209 55 207
3 199 15 209
3 188 198 206
3 206 50 188
3 198 51 206
3 188 14 198
3 210 191 208
3 208 55 210
3 191 50 208
3 210 7 191
3 213 211 212
3 212 57 213
3 211 53 212
3 213 56 211
3 195 214 212
3 212 53 195
3 214 57 212
3 195 16 214
3 215 200 211
3 211 56 215
3 200 53 211
3 215 15 200
3 217 216 213
3 213 57 217
3 216 56 213
3 217 9 216
3 220 218 219
3 219 60 220
3 218 59 219
3 220 58 218
3 222 221 219
3 219 59 222
3 221 60 219
3 222 19 221
3 224 223 218
3 218 58 224
3 223 59 218
3 224 18 223
3 226 225 220
3 220 60 226
3 225 58 220
3 226 17 225
3 229 227 228
3 228 62 229
3 227 59 228
3 229 61 227
3 223 230 228
3 228 59 223
3 230 62 228
3 223 18 230
3 231 222 227
3 227 61 231
3 222 59 227
3 231 19 222
3 233 232 229
3 229 62 233
3 232 61 229
3 233 5 232
3 236 234 235
3 235 64 236
3 234 58 235
3 236 63 234
3 225 237 235
3 235 58 225
3 237 64 235
3 225 17 237
3 238 224 234
3 234 63 238
3 224 58 234
3 238 18 224
3 240 239 236
3 236 64 240
3 239 63 236
3 240 6 239
3 243 241 242
3 242 66 243
3 241 60 242
3 243 65 241
3 221 244 242
3 242 60 221
3 244 66 242
3 221 19 244
3 245 226 241
3 241 65 245
3 226 60 241
3 245 17 226
3 247 246 243
3 243 66 247
3 246 65 243
3 247 11 246
3 250 248 249
3 249 69 250
3 248 68 249
3 250 67 248
3 252 251 249
3 249 68 252
3 251 69 249
3 252 18 251
3 254 253 248
3 248 67 254
3 253 68 248
3 254 21 253
3 256 255 250
3 250 69 256
3 255 67 250
3 256 20 255
3 259 257 258
3 258 70 259
3 257 68 258
3 259 62 257
3 253 260 258
3 258 68 253
3 260 70 258
3 253 21 260
3 230 252 257
3 257 62 230
3 252 68 257
3 230 18 252
3 261 233 259
3 259 70 261
3 233 62 259
3 261 5 233
3 264 262 263
3 263 72 264
3 262 67 263
3 264 71 262
3 255 265 263
3 263 67 255
3 265 72 263
3 255 20 265
3 266 254 262
3 262 71 266
3 254 67 262
3 266 21 254
3 268 267 264
3 264 72 268
3 267 71 264
3 268 10 267
3 271 269 270
3 270 63 271
3 269 69 270
3 271 73 269
3 251 238 270
3 270 69 251
3 238 63 270
3 251 18 238
3 272 256 269
3 269 73 272
3 256 69 269
3 272 20 256
3 239 273 271
3 271 63 239
3 273 73 271
3 239 6 273
3 276 274 275
3 275 76 276
3 274 75 275
3 276 74 274
3 278 277 275
3 275 75 278
3 277 76 275
3 278 24 277
3 280 279 274
3 274 74 280
3 279 75 274
3 280 23 279
3 282 281 276
3 276 76 282
3 281 74 276
3 282 22 281
3 285 283 284
3 284 78 285
3 283 75 284
3 285 77 283
3 279 286 284
3 284 75 279
3 286 78 284
3 279 23 286
3 287 278 283
3 283 77 287
3 278 75 283
3 287 24 278
3 289 288 285
3 285 78 289
3 288 77 285
3 289 0 288
3 292 290 291
3 291 80 292
3 290 74 291
3 292 79 290
3 281 293 291
3 291 74 281
3 293 80 291
3 281 22 293
3 294 280 290
3 290 79 294
3 280 74 290
3 294 23 280
3 296 295 292
3 292 80 296
3 295 79 292
3 296 4 295
3 299 297 298
3 298 82 299
3 297 76 298
3 299 81 297
3 277 300 298
3 298 76 277
3 300 82 298
3 277 24 300
3 301 282 297
3 297 81 301
3 282 76 297
3 301 22 282
3 303 302 299
3 299 82 303
3 302 81 299
3 303 3 302
3 306 304 305
3 305 85 306
3 304 84 305
3 306 83 304
3 308 307 305
3 305 84 308
3 307 85 305
3 308 26 307
3 310 309 304
3 304 83 310
3 309 84 304
3 310 24 309
3 312 311 306
3 306 85 312
3 311 83 306
3 312 25 311
3 315 313 314
3 314 77 315
3 313 84 314
3 315 86 313
3 309 287 314
3 314 84 309
3 287 77 314
3 309 24 287
3 316 308 313
3 313 86 316
3 308 84 313
3 316 26 308
3 288 317 315
3 315 77 288
3 317 86 315
3 288 0 317
3 320 318 319
3 319 87 320
3 318 83 319
3 320 82 318
3 311 321 319
3 319 83 311
3 321 87 319
3 311 25 321
3 300 310 318
3 318 82 300
3 310 83 318
3 300 24 310
3 322 303 320
3 320 87 322
3 303 82 320
3 322 3 303
3 325 323 324
3 324 89 325
3 323 85 324
3 325 88 323
3 307 326 324
3 324 85 307
3 326 89 324
3 307 26 326
3 327 312 323
3 323 88 327
3 312 85 323
3 327 25 312
3 329 328 325
3 325 89 329
3 328 88 325
3 329 5 328
3 332 330 331
3 331 92 332
3 330 91 331
3 332 90 330
3 334 333 331
3 331 91 334
3 333 92 331
3 334 29 333
3 336 335 330
3 330 90 336
3 335 91 330
3 336 28 335
3 338 337 332
3 332 92 338
3 337 90 332
3 338 27 337
3 341 339 340
3 340 94 341
3 339 91 340
3 341 93 339
3 335 342 340
3 340 91 335
3 342 94 340
3 335 28 342
3 343 334 339
3 339 93 343
3 334 91 339
3 343 29 334
3 345 344 341
3 341 94 345
3 344 93 341
3 345 2 344
3 348 346 347
3 347 96 348
3 346 90 347
3 348 95 346
3 337 349 347
3 347 90 337
3 349 96 347
3 337 27 349
3 350 336 346
3 346 95 350
3 336 90 346
3 350 28 336
3 352 351 348
3 348 96 352
3 351 95 348
3 352 7 351
3 355 353 354
3 354 98 355
3 353 92 354
3 355 97 353
3 333 356 354
3 354 92 333
3 356 98 354
3 333 29 356
3 357 338 353
3 353 97 357
3 338 92 353
3 357 27 338
3 359 358 355
3 355 98 359
3 358 97 355
3 359 1 358
3 362 360 361
3 361 101 362
3 360 100 361
3 362 99 360
3 364 363 361
3 361 100 364
3 363 101 361
3 364 31 363
3 366 365 360
3 360 99 366
3 365 100 360
3 366 29 365
3 368 367 362
3 362 101 368
3 367 99 362
3 368 30 367
3 371 369 370
3 370 93 371
3 369 100 370
3 371 102 369
3 365 343 370
3 370 100 365
3 343 93 370
3 365 29 343
3 372 364 369
3 369 102 372
3 364 100 369
3 372 31 364
3 344 373 371
3 371 93 344
3 373 102 371
3 344 2 373
3 376 374 375
3 375 103 376
3 374 99 375
3 376 98 374
3 367 377 375
3 375 99 367
3 377 103 375
3 367 30 377
3 356 366 374
3 374 98 356
3 366 99 374
3 356 29 366
3 378 359 376
3 376 103 378
3 359 98 376
3 378 1 359
3 381 379 380
3 380 105 381
3 379 101 380
3 381 104 379
3 363 382 380
3 380 101 363
3 382 105 380
3 363 31 382
3 383 368 379
3 379 104 383
3 368 101 379
3 383 30 368
3 385 384 381
3 381 105 385
3 384 104 381
3 385 6 384
3 388 386 387
3 387 108 388
3 386 107 387
3 388 106 386
3 390 389 387
3 387 107 390
3 389 108 387
3 390 34 389
3 392 391 386
3 386 106 392
3 391 107 386
3 392 33 391
3 394 393 388
3 388 108 394
3 393 106 388
3 394 32 393
3 397 395 396
3 396 110 397
3 395 107 396
3 397 109 395
3 391 398 396
3 396 107 391
3 398 110 396
3 391 33 398
3 399 390 395
3 395 109 399
3 390 107 395
3 399 34 390
3 401 400 397
3 397 110 401
3 400 109 397
3 401 8 400
3 404 402 403
3 403 112 404
3 402 106 403
3 404 111 402
3 393 405 403
3 403 106 393
3 405 112 403
3 393 32 405
3 406 392 402
3 402 111 406
3 392 106 402
3 406 33 392
3 408 407 404
3 404 112 408
3 407 111 404
3 408 0 407
3 411 409 410
3 410 114 411
3 409 108 410
3 411 113 409
3 389 412 410
3 410 108 389
3 412 114 410
3 389 34 412
3 413 394 409
3 409 113 413
3 394 108 409
3 413 32 394
3 415 414 411
3 411 114 415
3 414 113 411
3 415 11 414
3 418 416 417
3 417 117 418
3 416 116 417
3 418 115 416
3 420 419 417
3 417 116 420
3 419 117 417
3 420 36 419
3 422 421 416
3 416 115 422
3 421 116 416
3 422 34 421
3 424 423 418
3 418 117 424
3 423 115 418
3 424 35 423
3 427 425 426
3 426 109 427
3 425 116 426
3 427 118 425
3 421 399 426
3 426 116 421
3 399 109 426
3 421 34 399
3 428 420 425
3 425 118 428
3 420 116 425
3 428 36 420
3 400 429 427
3 427 109 400
3 429 118 427
3 400 8 429
3 432 430 431
3 431 119 432
3 430 115 431
3 432 114 430
3 423 433 431
3 431 115 423
3 433 119 431
3 423 35 433
3 412 422 430
3 430 114 412
3 422 115 430
3 412 34 422
3 434 415 432
3 432 119 434
3 415 114 432
3 434 11 415
3 437 435 436
3 436 121 437
3 435 117 436
3 437 120 435
3 419 438 436
3 436 117 419
3 438 121 436
3 419 36 438
3 439 424 435
3 435 120 439
3 424 117 435
3 439 35 424
3 441 440 437
3 437 121 441
3 440 120 437
3 441 1 440
3 444 442 443
3 443 124 444
3 442 123 443
3 444 122 442
3 446 445 443
3 443 123 446
3 445 124 443
3 446 39 445
3 448 447 442
3 442 122 448
3 447 123 442
3 448 38 447
3 450 449 444
3 444 124 450
3 449 122 444
3 450 37 449
3 453 451 452
3 452 126 453
3 451 123 452
3 453 125 451
3 447 454 452
3 452 123 447
3 454 126 452
3 447 38 454
3 455 446 451
3 451 125 455
3 446 123 451
3 455 39 446
3 457 456 453
3 453 126 457
3 456 125 453
3 457 9 456
3 460 458 459
3 459 128 460
3 458 122 459
3 460 127 458
3 449 461 459
3 459 122 449
3 461 128 459
3 449 37 461
3 462 448 458
3 458 127 462
3 448 122 458
3 462 38 448
3 464 463 460
3 460 128 464
3 463 127 460
3 464 10 463
3 467 465 466
3 466 130 467
3 465 124 466
3 467 129 465
3 445 468 466
3 466 124 445
3 468 130 466
3 445 39 468
3 469 450 465
3 465 129 469
3 450 124 465
3 469 37 450
3 471 470 467
3 467 130 471
3 470 129 467
3 471 3 470
3 474 472 473
3 473 133 474
3 472 132 473
3 474 131 472
3 476 475 473
3 473 132 476
3 475 133 473
3 476 38 475
3 478 477 472
3 472 131 478
3 477 132 472
3 478 41 477
3 480 479 474
3 474 133 480
3 479 131 474
3 480 40 479
3 483 481 482
3 482 134 483
3 481 132 482
3 483 126 481
3 477 484 482
3 482 132 477
3 484 134 482
3 477 41 484
3 454 476 481
3 481 126 454
3 476 132 481
3 454 38 476
3 485 457 483
3 483 134 485
3 457 126 483
3 485 9 457
3 488 486 487
3 487 136 488
3 486 131 487
3 488 135 486
3 479 489 487
3 487 131 479
3 489 136 487
3 479 40 489
3 490 478 486
3 486 135 490
3 478 131 486
3 490 41 478
3 492 491 488
3 488 136 492
3 491 135 488
3 492 2 491
3 495 493 494
3 494 127 495
3 493 133 494
3 495 137 493
3 475 462 494
3 494 133 475
3 462 127 494
3 475 38 462
3 496 480 493
3 493 137 496
3 480 133 493
3 496 40 480
3 463 497 495
3 495 127 463
3 497 137 495
3 463 10 497
3 500 498 499
3 499 140 500
3 498 139 499
3 500 138 498
3 502 501 499
3 499 139 502
3 501 140 499
3 502 33 501
3 504 503 498
3 498 138 504
3 503 139 498
3 504 13 503
3 506 505 500
3 500 140 506
3 505 138 500
3 506 23 505
3 509 507 508
3 508 47 509
3 507 139 508
3 509 110 507
3 503 182 508
3 508 139 503
3 182 47 508
3 503 13 182
3 398 502 507
3 507 110 398
3 502 139 507
3 398 33 502
3 183 401 509
3 509 47 183
3 401 110 509
3 183 8 401
3 512 510 511
3 511 79 512
3 510 138 511
3 512 46 510
3 505 294 511
3 511 138 505
3 294 79 511
3 505 23 294
3 174 504 510
3 510 46 174
3 504 138 510
3 174 13 504
3 295 177 512
3 512 79 295
3 177 46 512
3 295 4 177
3 515 513 514
3 514 111 515
3 513 140 514
3 515 78 513
3 501 406 514
3 514 140 501
3 406 111 514
3 501 33 406
3 286 506 513
3 513 78 286
3 506 140 513
3 286 23 506
3 407 289 515
3 515 111 407
3 289 78 515
3 407 0 289
3 518 516 517
3 517 143 518
3 516 142 517
3 518 141 516
3 520 519 517
3 517 142 520
3 519 143 517
3 520 19 519
3 522 521 516
3 516 141 522
3 521 142 516
3 522 32 521
3 524 523 518
3 518 143 524
3 523 141 518
3 524 26 523
3 527 525 526
3 526 113 527
3 525 142 526
3 527 66 525
3 521 413 526
3 526 142 521
3 413 113 526
3 521 32 413
3 244 520 525
3 525 66 244
3 520 142 525
3 244 19 520
3 414 247 527
3 527 113 414
3 247 66 527
3 414 11 247
3 530 528 529
3 529 86 530
3 528 141 529
3 530 112 528
3 523 316 529
3 529 141 523
3 316 86 529
3 523 26 316
3 405 522 528
3 528 112 405
3 522 141 528
3 405 32 522
3 317 408 530
3 530 86 317
3 408 112 530
3 317 0 408
3 533 531 532
3 532 61 533
3 531 143 532
3 533 89 531
3 519 231 532
3 532 143 519
3 231 61 532
3 519 19 231
3 326 524 531
3 531 89 326
3 524 143 531
3 326 26 524
3 232 329 533
3 533 61 232
3 329 89 533
3 232 5 329
3 536 534 535
3 535 146 536
3 534 145 535
3 536 144 534
3 538 537 535
3 535 145 538
3 537 146 535
3 538 22 537
3 540 539 534
3 534 144 540
3 539 145 534
3 540 16 539
3 542 541 536
3 536 146 542
3 541 144 536
3 542 39 541
3 545 543 544
3 544 54 545
3 543 145 544
3 545 80 543
3 539 204 544
3 544 145 539
3 204 54 544
3 539 16 204
3 293 538 543
3 543 80 293
3 538 145 543
3 293 22 538
3 205 296 545
3 545 54 205
3 296 80 545
3 205 4 296
3 548 546 547
3 547 125 548
3 546 144 547
3 548 57 546
3 541 455 547
3 547 144 541
3 455 125 547
3 541 39 455
3 214 540 546
3 546 57 214
3 540 144 546
3 214 16 540
3 456 217 548
3 548 125 456
3 217 57 548
3 456 9 217
3 551 549 550
3 550 81 551
3 549 146 550
3 551 130 549
3 537 301 550
3 550 146 537
3 301 81 550
3 537 22 301
3 468 542 549
3 549 130 468
3 542 146 549
3 468 39 542
3 302 471 551
3 551 81 302
3 471 130 551
3 302 3 471
3 554 552 553
3 553 149 554
3 552 148 553
3 554 147 552
3 556 555 553
3 553 148 556
3 555 149 553
3 556 21 555
3 558 557 552
3 552 147 558
3 557 148 552
3 558 25 557
3 560 559 554
3 554 149 560
3 559 147 554
3 560 37 559
3 563 561 562
3 562 88 563
3 561 148 562
3 563 70 561
3 557 327 562
3 562 148 557
3 327 88 562
3 557 25 327
3 260 556 561
3 561 70 260
3 556 148 561
3 260 21 556
3 328 261 563
3 563 88 328
3 261 70 563
3 328 5 261
3 566 564 565
3 565 129 566
3 564 147 565
3 566 87 564
3 559 469 565
3 565 147 559
3 469 129 565
3 559 37 469
3 321 558 564
3 564 87 321
3 558 147 564
3 321 25 558
3 470 322 566
3 566 129 470
3 322 87 566
3 470 3 322
3 569 567 568
3 568 71 569
3 567 149 568
3 569 128 567
3 555 266 568
3 568 149 555
3 266 71 568
3 555 21 266
3 461 560 567
3 567 128 461
3 560 149 567
3 461 37 560
3 267 464 569
3 569 71 267
3 464 128 569
3 267 10 464
3 572 570 571
3 571 152 572
3 570 151 571
3 572 150 570
3 574 573 571
3 571 151 574
3 573 152 571
3 574 27 573
3 576 575 570
3 570 150 576
3 575 151 570
3 576 12 575
3 578 577 572
3 572 152 578
3 577 150 572
3 578 36 577
3 581 579 580
3 580 49 581
3 579 151 580
3 581 96 579
3 575 189 580
3 580 151 575
3 189 49 580
3 575 12 189
3 349 574 579
3 579 96 349
3 574 151 579
3 349 27 574
3 190 352 581
3 581 49 190
3 352 96 581
3 190 7 352
3 584 582 583
3 583 118 584
3 582 150 583
3 584 48 582
3 577 428 583
3 583 150 577
3 428 118 583
3 577 36 428
3 181 576 582
3 582 48 181
3 576 150 582
3 181 12 576
3 429 184 584
3 584 118 429
3 184 48 584
3 429 8 184
3 587 585 586
3 586 97 587
3 585 152 586
3 587 121 585
3 573 357 586
3 586 152 573
3 357 97 586
3 573 27 357
3 438 578 585
3 585 121 438
3 578 152 585
3 438 36 578
3 358 441 587
3 587 97 358
3 441 121 587
3 358 1 441
3 590 588 589
3 589 155 590
3 588 154 589
3 590 153 588
3 592 591 589
3 589 154 592
3 591 155 589
3 592 17 591
3 594 593 588
3 588 153 594
3 593 154 588
3 594 30 593
3 596 595 590
3 590 155 596
3 595 153 590
3 596 35 595
3 599 597 598
3 598 104 599
3 597 154 598
3 599 64 597
3 593 383 598
3 598 154 593
3 383 104 598
3 593 30 383
3 237 592 597
3 597 64 237
3 592 154 597
3 237 17 592
3 384 240 599
3 599 104 384
3 240 64 599
3 384 6 240
3 602 600 601
3 601 120 602
3 600 153 601
3 602 103 600
3 595 439 601
3 601 153 595
3 439 120 601
3 595 35 439
3 377 594 600
3 600 103 377
3 594 153 600
3 377 30 594
3 440 378 602
3 602 120 440
3 378 103 602
3 440 1 378
3 605 603 604
3 604 65 605
3 603 155 604
3 605 119 603
3 591 245 604
3 604 155 591
3 245 65 604
3 591 17 245
3 433 596 603
3 603 119 433
3 596 155 603
3 433 35 596
3 246 434 605
3 605 65 246
3 434 119 605
3 246 11 434
3 608 606 607
3 607 158 608
3 606 157 607
3 608 156 606
3 610 609 607
3 607 157 610
3 609 158 607
3 610 15 609
3 612 611 606
3 606 156 612
3 611 157 606
3 612 28 611
3 614 613 608
3 608 158 614
3 613 156 608
3 614 41 613
3 617 615 616
3 616 95 617
3 615 157 616
3 617 55 615
3 611 350 616
3 616 157 611
3 350 95 616
3 611 28 350
3 209 610 615
3 615 55 209
3 610 157 615
3 209 15 610
3 351 210 617
3 617 95 351
3 210 55 617
3 351 7 210
3 620 618 619
3 619 135 620
3 618 156 619
3 620 94 618
3 613 490 619
3 619 156 613
3 490 135 619
3 613 41 490
3 342 612 618
3 618 94 342
3 612 156 618
3 342 28 612
3 491 345 620
3 620 135 491
3 345 94 620
3 491 2 345
3 623 621 622
3 622 56 623
3 621 158 622
3 623 134 621
3 609 215 622
3 622 158 609
3 215 56 622
3 609 15 215
3 484 614 621
3 621 134 484
3 614 158 621
3 484 41 614
3 216 485 623
3 623 56 216
3 485 134 623
3 216 9 485
3 626 624 625
3 625 161 626
3 624 160 625
3 626 159 624
3 628 627 625
3 625 160 628
3 627 161 625
3 628 31 627
3 630 629 624
3 624 159 630
3 629 160 624
3 630 20 629
3 632 631 626
3 626 161 632
3 631 159 626
3 632 40 631
3 635 633 634
3 634 73 635
3 633 160 634
3 635 105 633
3 629 272 634
3 634 160 629
3 272 73 634
3 629 20 272
3 382 628 633
3 633 105 382
3 628 160 633
3 382 31 628
3 273 385 635
3 635 73 273
3 385 105 635
3 273 6 385
3 638 636 637
3 637 137 638
3 636 159 637
3 638 72 636
3 631 496 637
3 637 159 631
3 496 137 637
3 631 40 496
3 265 630 636
3 636 72 265
3 630 159 636
3 265 20 630
3 497 268 638
3 638 137 497
3 268 72 638
3 497 10 268
3 641 639 640
3 640 102 641
3 639 161 640
3 641 136 639
3 627 372 640
3 640 161 627
3 372 102 640
3 627 31 372
3 489 632 639
3 639 136 489
3 632 161 639
3 489 40 632
3 373 492 641
3 641 102 373
3 492 136 641
3 373 2 492
