# vtk DataFile Version 3.0
this file was written using fslvtkio
ASCII
DATASET POLYDATA
POINTS 642 float
105.212 139.364 102.048
98.5968 139.32 100.917
101.022 135.193 100.227
106.314 134.621 100.325
104.542 137.379 103.588
104.57 136.824 98.6254
101.324 136.982 98.418
101.197 137.406 102.989
102.668 141.854 104.623
103.509 133.815 101.395
103.01 131.908 97.0147
102.42 141.313 100.255
101.542 139.431 103.768
104.002 139.507 105.121
102.693 137.589 103.661
102.388 136.031 102.061
104.047 135.462 102.466
101.475 139.218 99.1185
102.898 136.761 98.1867
103.289 138.771 99.8062
101.645 134.245 95.9786
104.301 134.541 97.0122
105.896 135.823 102.148
105.811 138.698 103.489
105.81 137.087 101.128
105.693 135.55 99.0396
104.739 137.968 100.415
99.7645 138.411 102.379
100.636 136.495 101.83
99.5312 137.138 100.771
99.7091 138.502 99.3381
101.034 135.699 98.9289
104.123 140.827 101.433
104.933 141.355 103.854
102.615 143.429 102.305
100.09 141.408 100.111
99.9413 141.568 102.672
105.649 132.45 98.5632
103.344 131.696 99.8444
105.374 133 101.524
101.049 132.577 98.5249
101.963 133.973 100.786
102.698 139.585 104.523
103.175 138.608 104.251
102.258 138.58 103.783
103.577 137.516 103.844
104.308 138.457 104.204
103.354 140.793 105.117
102.003 140.695 104.229
101.338 138.387 103.263
101.936 137.592 103.249
102.567 136.864 102.797
103.386 136.68 103.046
103.219 135.798 102.264
104.408 136.63 102.853
101.674 136.88 102.639
102.784 134.766 101.859
103.738 134.576 101.908
102.196 137.868 98.9971
102.907 137.664 99.2965
102.457 139.07 99.3977
103.802 137.558 99.407
103.851 136.87 98.3512
102.007 136.829 98.2216
101.31 137.926 98.9174
101.91 140.333 99.729
102.864 140.056 100.159
103.142 134.291 95.7853
103.632 135.785 97.2278
102.525 135.671 97.0305
104.422 135.871 98.0132
103.873 132.804 96.2793
102.062 132.257 95.5139
101.668 135.737 97.6434
105.53 137.261 102.598
105.551 137.785 102.217
105.856 136.457 101.676
105.53 138.359 101.643
105.648 139.2 102.74
105.29 137.988 103.68
105.19 136.807 102.598
106.179 135.139 101.218
106.103 135.818 100.649
105.89 136.401 100.072
105.524 137.632 100.634
105.556 136.985 99.6238
105.201 138.911 101.201
106.071 134.984 99.6752
105.226 136.3 98.7048
104.739 137.411 99.4127
100.046 137.349 102.162
99.7963 136.709 101.501
99.4308 137.803 101.628
100.342 136.367 100.602
100.688 135.863 101.135
100.752 136.925 102.59
100.515 137.868 102.816
99.0108 138.906 101.73
98.9919 138.273 100.815
99.4634 137.766 100.006
100.181 136.69 99.8991
100.173 137.205 99.3123
101.037 135.285 99.6041
99.0329 139.043 100.082
100.633 137.671 99.0748
101.09 136.365 98.4396
104.567 141.514 102.595
104.061 142.721 103.406
103.717 142.356 101.849
102.543 143.012 103.996
103.976 141.937 104.641
105.342 140.533 102.834
104.907 140.218 101.84
103.342 141.363 100.77
102.461 142.285 100.995
101.063 142.882 100.981
100.78 143.083 102.746
99.2677 142.37 101.275
101.285 142.024 103.788
101.449 141.714 100.073
98.8382 140.618 100.374
99.1311 140.626 101.56
104.697 131.369 99.1651
104.576 131.809 100.753
105.934 132.114 100.132
104.339 133.249 101.344
103.622 132.729 100.746
103.063 131.45 98.3533
104.41 132.003 97.6814
106.157 133.569 99.616
106.213 133.727 100.866
101.667 133.189 99.8369
102.743 132.703 100.168
102.066 132.028 99.2304
102.688 133.707 101.142
101.323 134.488 100.481
101.075 133.957 99.5003
101.686 131.896 97.4811
105.134 139.178 104.489
104.998 140.843 105.29
105.566 140.104 103.898
104.269 139.214 100.995
103.651 139.786 100.574
104.056 138.466 100.144
104.814 134.36 101.76
105.09 135.567 102.301
105.768 134.464 101.726
105.856 134.057 98.5135
105.321 134.996 97.9527
105.22 133.306 97.3144
100.807 140.445 103.372
100.448 138.981 103.199
99.7062 139.846 102.541
99.5297 139.954 99.4932
100.462 139.093 99.1687
100.756 140.422 99.5196
101.346 135.331 101.389
101.559 136.277 101.9
102.059 134.923 101.54
100.944 132.86 96.7893
101.473 134.633 97.6785
101.058 133.907 98.4297
102.968 139.084 104.46
102.739 138.598 104.004
102.383 139.012 104.192
102.52 138.131 103.679
102.974 138.103 103.842
103.535 139.069 104.713
103.288 139.642 104.916
102.057 139.47 104.188
101.855 138.975 103.881
103.425 138.04 103.969
103.765 138.581 104.317
103.847 137.917 104.097
104.151 139.006 104.655
103.156 137.543 103.747
104.052 137.426 103.805
104.367 137.914 104.013
103.008 140.141 104.883
102.286 140.02 104.525
102.664 140.722 104.699
101.706 139.958 104.032
103.723 140.1 105.346
102.993 141.389 104.781
102.387 141.406 104.377
101.766 138.523 103.536
102.121 138.089 103.462
101.64 138.005 103.299
102.309 137.639 103.463
101.396 138.88 103.552
101.225 137.835 103.144
101.552 137.5 103.094
102.993 136.806 102.935
103.341 136.233 102.566
103.05 136.467 102.364
103.561 135.587 102.462
103.67 136.061 102.733
102.904 137.048 103.538
102.531 137.13 103.342
102.572 136.556 102.288
102.827 135.938 102.163
103.925 136.635 102.915
103.373 136.966 103.567
103.952 136.937 103.421
104.245 136.069 102.627
104.529 136.983 103.132
102.125 137.126 103.162
102.082 136.864 102.735
101.679 137.109 103.082
102.1 136.602 102.25
101.409 137.071 102.873
103.024 135.267 102.04
103.485 135.125 102.1
103.187 134.678 101.964
103.869 134.988 102.19
102.598 135.381 101.974
103.103 134.226 101.684
103.569 134.136 101.653
102.528 137.719 99.1545
102.692 138.289 99.3237
102.303 138.473 99.1392
102.888 138.924 99.5805
103.077 138.171 99.542
102.874 137.159 98.7835
102.481 137.175 98.7813
101.87 138.593 99.0255
102.003 139.18 99.2151
103.367 137.621 99.347
103.34 137.216 98.7716
103.842 137.296 98.8189
103.355 136.816 98.2663
103.42 138.04 99.7703
104.239 137.27 98.9189
104.232 136.806 98.4941
102.067 137.216 98.7958
101.774 137.908 98.9697
101.733 137.296 98.7429
101.371 138.602 98.9516
102.427 136.793 98.2252
101.625 136.905 98.3253
101.303 137.404 98.6991
102.202 139.689 99.5688
102.634 139.533 99.7601
102.39 140.186 99.9275
103.073 139.381 99.9703
101.721 139.793 99.3853
102.14 140.857 100.016
102.615 140.703 100.239
103.473 135.134 96.3945
103.101 135.724 96.9527
102.802 135.064 96.1586
102.745 136.256 97.6419
103.257 136.259 97.6993
103.983 135.201 96.9311
103.695 134.392 96.4466
102.308 134.175 95.6318
102.108 135 96.327
103.683 136.325 97.9094
104.059 135.817 97.5911
104.089 136.323 98.1364
104.398 135.293 97.4578
104.52 136.37 98.3527
103.522 133.445 95.8115
102.666 133.228 95.3268
103.052 132.432 95.7279
101.684 133.123 95.4461
104.153 133.611 96.5186
103.423 132.184 96.5056
102.562 131.989 96.2836
102.022 135.656 97.1294
102.26 136.337 97.6644
101.797 136.418 97.7827
101.722 135.007 96.8241
101.494 136.477 98.0225
105.501 137.562 102.441
105.745 137.131 101.905
105.755 136.883 102.181
105.861 136.753 101.39
105.675 137.396 101.628
105.803 138.347 102.819
105.652 138.033 103.062
105.692 136.595 102.331
105.94 136.189 101.914
105.474 138.019 101.956
105.747 138.619 102.483
105.554 138.807 102.167
105.826 139.012 103.096
105.558 137.666 101.419
105.456 138.979 101.839
105.434 139.332 102.357
105.396 137.642 103.142
105.34 137.001 102.603
105.127 137.346 103.07
105.5 136.359 102.419
105.633 138.328 103.741
104.906 137.685 103.636
104.902 137.089 102.978
106.051 135.77 101.425
106.037 136.107 101.159
106.148 135.52 100.945
105.886 136.386 100.861
106.03 135.423 101.666
106.251 134.806 100.734
106.232 135.156 100.44
105.848 137.032 100.332
105.586 137.317 100.135
105.814 136.74 99.8304
105.236 137.556 99.977
105.194 137.812 100.494
105.7 137.31 100.881
105.874 136.741 100.57
105.799 135.985 99.5739
105.731 136.354 99.2977
105.274 138.227 100.927
105.45 137.967 101.151
105.438 138.647 101.372
104.989 138.455 100.808
105.224 139.183 101.615
106.03 136.098 100.322
105.96 135.719 99.8358
106.099 135.41 100.153
105.856 135.263 99.3327
106.297 134.774 99.9752
105.469 136.63 99.1304
105.223 137.223 99.4959
105.104 136.883 99.0192
104.688 137.647 99.9544
105.496 135.941 98.8162
104.829 136.536 98.6388
104.651 137.117 98.9973
99.8556 137.002 101.864
99.6788 137.211 101.609
99.7651 137.601 101.932
99.4417 137.425 101.243
99.6103 136.897 101.187
100.217 136.588 101.697
100.173 136.84 102.122
99.9366 137.898 102.253
99.5223 138.135 102.013
100.07 136.597 101.014
100.298 136.332 101.299
100.446 136.112 100.852
100.683 136.185 101.486
99.8942 136.778 100.699
100.728 135.779 100.405
100.803 135.529 100.661
100.367 137.084 102.385
100.244 137.551 102.478
100.584 137.308 102.689
100.229 138.175 102.558
100.683 136.788 102.22
100.987 137.14 102.815
100.837 137.561 102.989
99.2549 138.375 101.652
99.1541 138.004 101.268
98.9203 138.536 101.322
99.2138 137.678 100.823
99.3498 138.652 102.101
98.7168 139.086 101.329
98.7032 138.718 100.9
99.7952 137.216 99.9532
100.183 136.961 99.6175
99.7571 137.498 99.6404
100.604 136.513 99.1409
100.6 136.261 99.4407
99.8636 136.962 100.297
99.4742 137.421 100.363
99.6373 138.158 99.6694
99.8915 137.862 99.372
100.66 136.097 99.7674
100.29 136.517 100.221
100.731 135.944 100.097
101.011 135.414 99.2489
101.038 135.231 99.9424
99.1475 137.986 100.396
99.2134 138.41 100.006
98.933 138.617 100.457
99.3098 138.81 99.6222
98.7125 139.218 100.496
100.384 137.529 99.1334
100.629 136.8 98.912
100.82 137.103 98.7548
101.051 136.012 98.6693
100.091 138.203 99.1471
100.994 137.306 98.7087
101.195 136.714 98.3613
104.348 141.977 102.992
103.898 142.68 102.584
104.163 141.914 102.275
103.33 143.112 102.04
103.37 143.225 102.869
104.482 141.921 103.718
104.733 141.543 103.244
104.453 141.245 101.975
103.968 141.616 101.662
103.457 143.117 103.791
104.09 142.454 104.244
103.417 142.707 104.517
104.476 141.628 104.32
102.544 143.282 103.173
102.582 142.563 104.514
103.279 141.996 104.724
104.999 141.065 102.749
104.716 140.828 102.24
105.006 140.356 102.381
104.542 140.535 101.687
105.34 141.129 103.318
105.217 139.834 102.417
105.086 139.768 101.943
103.469 141.804 101.322
103.192 142.521 101.366
102.99 141.878 100.887
102.587 143.054 101.497
103.711 141.072 101.129
102.899 141.407 100.494
102.448 141.806 100.516
100.797 143.308 101.764
99.819 142.985 102.018
100.119 142.81 101.018
99.5486 142.041 102.025
100.06 142.477 102.831
101.695 143.324 102.503
101.767 143.312 101.652
100.528 142.199 100.462
99.6861 142.056 100.487
100.96 142.618 103.37
101.697 143.036 103.37
101.751 142.682 104.009
100.517 141.872 103.307
101.963 142.025 104.329
101.81 142.646 101.02
101.246 142.194 100.478
101.916 142.061 100.496
100.79 141.698 100.024
101.973 141.517 100.175
99.0851 141.469 100.802
99.2507 141.451 101.471
98.9264 140.804 100.991
99.565 141.171 102.005
99.3541 141.146 100.14
98.6528 139.91 100.669
98.7414 139.903 101.243
104.661 131.438 100.022
105.259 131.692 100.557
105.371 131.672 99.6806
105.728 132.348 100.97
104.979 132.258 101.173
103.954 131.634 100.266
103.938 131.3 99.5258
105.284 131.77 98.8179
105.826 132.195 99.2769
104.468 132.522 101.196
103.971 132.192 100.777
103.982 132.894 101.104
103.562 132.222 100.331
104.769 132.996 101.426
103.872 133.546 101.346
103.558 133.328 101.119
103.876 131.347 98.7377
104.588 131.609 98.35
103.74 131.598 97.9761
105.113 132.174 98.091
103.167 131.402 99.1286
102.992 131.611 97.5936
103.634 131.949 97.304
106.135 132.883 99.8018
106.194 132.98 100.557
106.15 133.546 100.22
105.971 133.268 101.279
106.008 132.938 99.0937
106.391 134.118 99.9925
106.375 134.147 100.518
102.222 132.902 100.031
102.453 132.25 99.7536
101.826 132.501 99.5314
102.64 131.757 99.5197
103.026 132.191 99.9664
102.305 133.309 100.462
101.906 133.635 100.329
101.343 132.807 99.276
101.55 132.227 98.843
103.244 132.712 100.364
102.805 133.152 100.656
103.197 133.172 100.878
102.267 133.795 100.99
103.112 133.743 101.323
101.577 133.93 100.124
101.211 133.512 99.674
101.241 134.204 100.018
101.011 133.27 99.0658
101.605 134.217 100.646
101.124 134.857 100.349
101.061 134.627 99.92
101.737 131.871 98.4492
102.341 131.521 98.7993
102.233 131.545 97.9453
101.273 132.157 97.9579
102.275 131.703 97.103
105.258 140.023 105.058
105.562 140.654 104.635
105.454 139.604 104.307
105.552 140.962 103.947
105.09 141.193 104.552
104.527 140.136 105.382
104.645 139.396 104.904
105.589 138.896 104.06
105.794 139.343 103.705
104.455 141.385 104.945
104.126 140.822 105.536
103.638 141.483 104.993
104.765 138.878 104.255
105.209 138.57 104.169
104.797 138.258 104.053
105.639 139.616 103.31
105.508 140.428 103.381
105.407 139.784 102.866
103.929 139.506 100.832
103.764 139.05 100.478
104.133 138.854 100.618
103.735 138.68 100
103.433 139.23 100.24
103.859 140.373 100.99
104.207 140.052 101.216
104.528 138.655 100.739
104.326 138.208 100.313
103.291 139.977 100.381
103.531 140.658 100.709
103.1 140.727 100.47
104.641 139.757 101.355
104.783 139.083 101.081
104.955 139.495 101.502
104.184 137.775 99.9346
103.75 137.913 99.8936
104.226 137.467 99.4369
104.953 134.976 102.159
105.453 135.039 102.16
105.304 134.344 101.83
105.855 135.191 101.963
105.527 135.655 102.253
104.532 135.466 102.376
104.354 134.926 102.266
105.161 133.727 101.569
105.618 133.863 101.553
105.157 136.162 102.497
104.786 136.044 102.528
104.893 136.673 102.754
104.304 134.409 101.812
104.616 133.742 101.542
104.089 133.972 101.585
106 134.108 101.355
106.032 134.792 101.463
106.244 134.458 101.056
105.617 134.53 98.1635
105.317 134.167 97.5611
105.559 133.678 97.9318
104.726 133.872 97.0976
104.746 134.719 97.5393
105.493 135.305 98.5289
105.766 134.847 98.7602
105.869 133.217 98.4512
105.497 132.831 97.8544
104.864 135.499 97.9079
105.27 135.735 98.3552
104.862 136.037 98.3552
106.084 134.501 99.0763
106.036 133.702 99.0221
106.235 134.261 99.5598
104.935 132.54 97.3764
104.551 133.04 96.8761
104.167 132.41 96.9946
100.62 139.704 103.275
100.058 139.399 102.899
100.152 140.111 103.014
99.6374 139.017 102.537
100.117 138.734 102.758
100.989 139.28 103.479
101.187 139.969 103.566
100.388 140.958 103.104
99.8331 140.666 102.608
100.508 138.408 102.933
100.938 138.712 103.229
100.907 138.139 103.028
101.324 140.581 103.825
100.981 141.284 103.554
101.613 141.376 104.029
99.3458 140.269 102.142
99.2714 139.359 102.159
98.9388 139.654 101.736
99.9255 139.641 99.1465
100.578 139.807 99.235
100.154 140.252 99.4686
101.153 139.828 99.3063
100.931 139.175 99.1239
99.9832 138.866 99.186
99.4357 139.218 99.2611
99.8109 140.623 99.839
100.438 140.869 99.8176
100.863 138.549 98.9486
100.405 138.414 98.9944
100.918 137.812 98.9179
99.1555 139.521 99.7448
99.1677 140.271 99.8663
98.7963 139.79 100.114
101.092 141.006 99.8055
101.355 140.39 99.5935
101.666 140.983 99.8561
101.443 135.854 101.648
101.837 135.708 101.698
101.644 135.044 101.473
102.201 135.496 101.86
102.034 136.223 101.944
101.107 136.381 101.885
101.145 136.078 101.546
101.544 134.528 101.182
101.886 134.358 101.261
101.653 136.655 102.211
101.146 136.685 102.246
101.23 136.831 102.586
100.995 135.6 101.322
101.253 134.867 100.995
101.032 135.226 100.865
102.227 134.264 101.422
102.393 134.853 101.708
102.673 134.237 101.602
101.244 133.776 97.1216
101.211 134.235 98.0319
100.945 133.385 97.6742
101.201 134.826 98.6829
101.385 135.139 98.3877
101.477 134.346 96.8691
101.198 133.326 96.1469
100.883 132.592 97.6621
100.924 133.202 98.3794
101.486 135.548 98.1684
101.627 135.213 97.5963
101.443 136.008 97.9867
101.22 132.473 95.9578
101.174 132.23 97.0113
101.808 131.969 96.4989
101.072 133.887 98.9583
101.125 134.635 99.0587
101.064 134.588 99.4753
POLYGONS 1280  5120
3 164 162 163
3 163 44 164
3 162 43 163
3 164 42 162
3 166 165 163
3 163 43 166
3 165 44 163
3 166 14 165
3 168 167 162
3 162 42 168
3 167 43 162
3 168 13 167
3 170 169 164
3 164 44 170
3 169 42 164
3 170 12 169
3 173 171 172
3 172 46 173
3 171 43 172
3 173 45 171
3 167 174 172
3 172 43 167
3 174 46 172
3 167 13 174
3 175 166 171
3 171 45 175
3 166 43 171
3 175 14 166
3 177 176 173
3 173 46 177
3 176 45 173
3 177 4 176
3 180 178 179
3 179 48 180
3 178 42 179
3 180 47 178
3 169 181 179
3 179 42 169
3 181 48 179
3 169 12 181
3 182 168 178
3 178 47 182
3 168 42 178
3 182 13 168
3 184 183 180
3 180 48 184
3 183 47 180
3 184 8 183
3 187 185 186
3 186 50 187
3 185 44 186
3 187 49 185
3 165 188 186
3 186 44 165
3 188 50 186
3 165 14 188
3 189 170 185
3 185 49 189
3 170 44 185
3 189 12 170
3 191 190 187
3 187 50 191
3 190 49 187
3 191 7 190
3 194 192 193
3 193 53 194
3 192 52 193
3 194 51 192
3 196 195 193
3 193 52 196
3 195 53 193
3 196 16 195
3 198 197 192
3 192 51 198
3 197 52 192
3 198 14 197
3 200 199 194
3 194 53 200
3 199 51 194
3 200 15 199
3 203 201 202
3 202 45 203
3 201 52 202
3 203 54 201
3 197 175 202
3 202 52 197
3 175 45 202
3 197 14 175
3 204 196 201
3 201 54 204
3 196 52 201
3 204 16 196
3 176 205 203
3 203 45 176
3 205 54 203
3 176 4 205
3 208 206 207
3 207 55 208
3 206 51 207
3 208 50 206
3 199 209 207
3 207 51 199
3 209 55 207
3 199 15 209
3 188 198 206
3 206 50 188
3 198 51 206
3 188 14 198
3 210 191 208
3 208 55 210
3 191 50 208
3 210 7 191
3 213 211 212
3 212 57 213
3 211 53 212
3 213 56 211
3 195 214 212
3 212 53 195
3 214 57 212
3 195 16 214
3 215 200 211
3 211 56 215
3 200 53 211
3 215 15 200
3 217 216 213
3 213 57 217
3 216 56 213
3 217 9 216
3 220 218 219
3 219 60 220
3 218 59 219
3 220 58 218
3 222 221 219
3 219 59 222
3 221 60 219
3 222 19 221
3 224 223 218
3 218 58 224
3 223 59 218
3 224 18 223
3 226 225 220
3 220 60 226
3 225 58 220
3 226 17 225
3 229 227 228
3 228 62 229
3 227 59 228
3 229 61 227
3 223 230 228
3 228 59 223
3 230 62 228
3 223 18 230
3 231 222 227
3 227 61 231
3 222 59 227
3 231 19 222
3 233 232 229
3 229 62 233
3 232 61 229
3 233 5 232
3 236 234 235
3 235 64 236
3 234 58 235
3 236 63 234
3 225 237 235
3 235 58 225
3 237 64 235
3 225 17 237
3 238 224 234
3 234 63 238
3 224 58 234
3 238 18 224
3 240 239 236
3 236 64 240
3 239 63 236
3 240 6 239
3 243 241 242
3 242 66 243
3 241 60 242
3 243 65 241
3 221 244 242
3 242 60 221
3 244 66 242
3 221 19 244
3 245 226 241
3 241 65 245
3 226 60 241
3 245 17 226
3 247 246 243
3 243 66 247
3 246 65 243
3 247 11 246
3 250 248 249
3 249 69 250
3 248 68 249
3 250 67 248
3 252 251 249
3 249 68 252
3 251 69 249
3 252 18 251
3 254 253 248
3 248 67 254
3 253 68 248
3 254 21 253
3 256 255 250
3 250 69 256
3 255 67 250
3 256 20 255
3 259 257 258
3 258 70 259
3 257 68 258
3 259 62 257
3 253 260 258
3 258 68 253
3 260 70 258
3 253 21 260
3 230 252 257
3 257 62 230
3 252 68 257
3 230 18 252
3 261 233 259
3 259 70 261
3 233 62 259
3 261 5 233
3 264 262 263
3 263 72 264
3 262 67 263
3 264 71 262
3 255 265 263
3 263 67 255
3 265 72 263
3 255 20 265
3 266 254 262
3 262 71 266
3 254 67 262
3 266 21 254
3 268 267 264
3 264 72 268
3 267 71 264
3 268 10 267
3 271 269 270
3 270 63 271
3 269 69 270
3 271 73 269
3 251 238 270
3 270 69 251
3 238 63 270
3 251 18 238
3 272 256 269
3 269 73 272
3 256 69 269
3 272 20 256
3 239 273 271
3 271 63 239
3 273 73 271
3 239 6 273
3 276 274 275
3 275 76 276
3 274 75 275
3 276 74 274
3 278 277 275
3 275 75 278
3 277 76 275
3 278 24 277
3 280 279 274
3 274 74 280
3 279 75 274
3 280 23 279
3 282 281 276
3 276 76 282
3 281 74 276
3 282 22 281
3 285 283 284
3 284 78 285
3 283 75 284
3 285 77 283
3 279 286 284
3 284 75 279
3 286 78 284
3 279 23 286
3 287 278 283
3 283 77 287
3 278 75 283
3 287 24 278
3 289 288 285
3 285 78 289
3 288 77 285
3 289 0 288
3 292 290 291
3 291 80 292
3 290 74 291
3 292 79 290
3 281 293 291
3 291 74 281
3 293 80 291
3 281 22 293
3 294 280 290
3 290 79 294
3 280 74 290
3 294 23 280
3 296 295 292
3 292 80 296
3 295 79 292
3 296 4 295
3 299 297 298
3 298 82 299
3 297 76 298
3 299 81 297
3 277 300 298
3 298 76 277
3 300 82 298
3 277 24 300
3 301 282 297
3 297 81 301
3 282 76 297
3 301 22 282
3 303 302 299
3 299 82 303
3 302 81 299
3 303 3 302
3 306 304 305
3 305 85 306
3 304 84 305
3 306 83 304
3 308 307 305
3 305 84 308
3 307 85 305
3 308 26 307
3 310 309 304
3 304 83 310
3 309 84 304
3 310 24 309
3 312 311 306
3 306 85 312
3 311 83 306
3 312 25 311
3 315 313 314
3 314 77 315
3 313 84 314
3 315 86 313
3 309 287 314
3 314 84 309
3 287 77 314
3 309 24 287
3 316 308 313
3 313 86 316
3 308 84 313
3 316 26 308
3 288 317 315
3 315 77 288
3 317 86 315
3 288 0 317
3 320 318 319
3 319 87 320
3 318 83 319
3 320 82 318
3 311 321 319
3 319 83 311
3 321 87 319
3 311 25 321
3 300 310 318
3 318 82 300
3 310 83 318
3 300 24 310
3 322 303 320
3 320 87 322
3 303 82 320
3 322 3 303
3 325 323 324
3 324 89 325
3 323 85 324
3 325 88 323
3 307 326 324
3 324 85 307
3 326 89 324
3 307 26 326
3 327 312 323
3 323 88 327
3 312 85 323
3 327 25 312
3 329 328 325
3 325 89 329
3 328 88 325
3 329 5 328
3 332 330 331
3 331 92 332
3 330 91 331
3 332 90 330
3 334 333 331
3 331 91 334
3 333 92 331
3 334 29 333
3 336 335 330
3 330 90 336
3 335 91 330
3 336 28 335
3 338 337 332
3 332 92 338
3 337 90 332
3 338 27 337
3 341 339 340
3 340 94 341
3 339 91 340
3 341 93 339
3 335 342 340
3 340 91 335
3 342 94 340
3 335 28 342
3 343 334 339
3 339 93 343
3 334 91 339
3 343 29 334
3 345 344 341
3 341 94 345
3 344 93 341
3 345 2 344
3 348 346 347
3 347 96 348
3 346 90 347
3 348 95 346
3 337 349 347
3 347 90 337
3 349 96 347
3 337 27 349
3 350 336 346
3 346 95 350
3 336 90 346
3 350 28 336
3 352 351 348
3 348 96 352
3 351 95 348
3 352 7 351
3 355 353 354
3 354 98 355
3 353 92 354
3 355 97 353
3 333 356 354
3 354 92 333
3 356 98 354
3 333 29 356
3 357 338 353
3 353 97 357
3 338 92 353
3 357 27 338
3 359 358 355
3 355 98 359
3 358 97 355
3 359 1 358
3 362 360 361
3 361 101 362
3 360 100 361
3 362 99 360
3 364 363 361
3 361 100 364
3 363 101 361
3 364 31 363
3 366 365 360
3 360 99 366
3 365 100 360
3 366 29 365
3 368 367 362
3 362 101 368
3 367 99 362
3 368 30 367
3 371 369 370
3 370 93 371
3 369 100 370
3 371 102 369
3 365 343 370
3 370 100 365
3 343 93 370
3 365 29 343
3 372 364 369
3 369 102 372
3 364 100 369
3 372 31 364
3 344 373 371
3 371 93 344
3 373 102 371
3 344 2 373
3 376 374 375
3 375 103 376
3 374 99 375
3 376 98 374
3 367 377 375
3 375 99 367
3 377 103 375
3 367 30 377
3 356 366 374
3 374 98 356
3 366 99 374
3 356 29 366
3 378 359 376
3 376 103 378
3 359 98 376
3 378 1 359
3 381 379 380
3 380 105 381
3 379 101 380
3 381 104 379
3 363 382 380
3 380 101 363
3 382 105 380
3 363 31 382
3 383 368 379
3 379 104 383
3 368 101 379
3 383 30 368
3 385 384 381
3 381 105 385
3 384 104 381
3 385 6 384
3 388 386 387
3 387 108 388
3 386 107 387
3 388 106 386
3 390 389 387
3 387 107 390
3 389 108 387
3 390 34 389
3 392 391 386
3 386 106 392
3 391 107 386
3 392 33 391
3 394 393 388
3 388 108 394
3 393 106 388
3 394 32 393
3 397 395 396
3 396 110 397
3 395 107 396
3 397 109 395
3 391 398 396
3 396 107 391
3 398 110 396
3 391 33 398
3 399 390 395
3 395 109 399
3 390 107 395
3 399 34 390
3 401 400 397
3 397 110 401
3 400 109 397
3 401 8 400
3 404 402 403
3 403 112 404
3 402 106 403
3 404 111 402
3 393 405 403
3 403 106 393
3 405 112 403
3 393 32 405
3 406 392 402
3 402 111 406
3 392 106 402
3 406 33 392
3 408 407 404
3 404 112 408
3 407 111 404
3 408 0 407
3 411 409 410
3 410 114 411
3 409 108 410
3 411 113 409
3 389 412 410
3 410 108 389
3 412 114 410
3 389 34 412
3 413 394 409
3 409 113 413
3 394 108 409
3 413 32 394
3 415 414 411
3 411 114 415
3 414 113 411
3 415 11 414
3 418 416 417
3 417 117 418
3 416 116 417
3 418 115 416
3 420 419 417
3 417 116 420
3 419 117 417
3 420 36 419
3 422 421 416
3 416 115 422
3 421 116 416
3 422 34 421
3 424 423 418
3 418 117 424
3 423 115 418
3 424 35 423
3 427 425 426
3 426 109 427
3 425 116 426
3 427 118 425
3 421 399 426
3 426 116 421
3 399 109 426
3 421 34 399
3 428 420 425
3 425 118 428
3 420 116 425
3 428 36 420
3 400 429 427
3 427 109 400
3 429 118 427
3 400 8 429
3 432 430 431
3 431 119 432
3 430 115 431
3 432 114 430
3 423 433 431
3 431 115 423
3 433 119 431
3 423 35 433
3 412 422 430
3 430 114 412
3 422 115 430
3 412 34 422
3 434 415 432
3 432 119 434
3 415 114 432
3 434 11 415
3 437 435 436
3 436 121 437
3 435 117 436
3 437 120 435
3 419 438 436
3 436 117 419
3 438 121 436
3 419 36 438
3 439 424 435
3 435 120 439
3 424 117 435
3 439 35 424
3 441 440 437
3 437 121 441
3 440 120 437
3 441 1 440
3 444 442 443
3 443 124 444
3 442 123 443
3 444 122 442
3 446 445 443
3 443 123 446
3 445 124 443
3 446 39 445
3 448 447 442
3 442 122 448
3 447 123 442
3 448 38 447
3 450 449 444
3 444 124 450
3 449 122 444
3 450 37 449
3 453 451 452
3 452 126 453
3 451 123 452
3 453 125 451
3 447 454 452
3 452 123 447
3 454 126 452
3 447 38 454
3 455 446 451
3 451 125 455
3 446 123 451
3 455 39 446
3 457 456 453
3 453 126 457
3 456 125 453
3 457 9 456
3 460 458 459
3 459 128 460
3 458 122 459
3 460 127 458
3 449 461 459
3 459 122 449
3 461 128 459
3 449 37 461
3 462 448 458
3 458 127 462
3 448 122 458
3 462 38 448
3 464 463 460
3 460 128 464
3 463 127 460
3 464 10 463
3 467 465 466
3 466 130 467
3 465 124 466
3 467 129 465
3 445 468 466
3 466 124 445
3 468 130 466
3 445 39 468
3 469 450 465
3 465 129 469
3 450 124 465
3 469 37 450
3 471 470 467
3 467 130 471
3 470 129 467
3 471 3 470
3 474 472 473
3 473 133 474
3 472 132 473
3 474 131 472
3 476 475 473
3 473 132 476
3 475 133 473
3 476 38 475
3 478 477 472
3 472 131 478
3 477 132 472
3 478 41 477
3 480 479 474
3 474 133 480
3 479 131 474
3 480 40 479
3 483 481 482
3 482 134 483
3 481 132 482
3 483 126 481
3 477 484 482
3 482 132 477
3 484 134 482
3 477 41 484
3 454 476 481
3 481 126 454
3 476 132 481
3 454 38 476
3 485 457 483
3 483 134 485
3 457 126 483
3 485 9 457
3 488 486 487
3 487 136 488
3 486 131 487
3 488 135 486
3 479 489 487
3 487 131 479
3 489 136 487
3 479 40 489
3 490 478 486
3 486 135 490
3 478 131 486
3 490 41 478
3 492 491 488
3 488 136 492
3 491 135 488
3 492 2 491
3 495 493 494
3 494 127 495
3 493 133 494
3 495 137 493
3 475 462 494
3 494 133 475
3 462 127 494
3 475 38 462
3 496 480 493
3 493 137 496
3 480 133 493
3 496 40 480
3 463 497 495
3 495 127 463
3 497 137 495
3 463 10 497
3 500 498 499
3 499 140 500
3 498 139 499
3 500 138 498
3 502 501 499
3 499 139 502
3 501 140 499
3 502 33 501
3 504 503 498
3 498 138 504
3 503 139 498
3 504 13 503
3 506 505 500
3 500 140 506
3 505 138 500
3 506 23 505
3 509 507 508
3 508 47 509
3 507 139 508
3 509 110 507
3 503 182 508
3 508 139 503
3 182 47 508
3 503 13 182
3 398 502 507
3 507 110 398
3 502 139 507
3 398 33 502
3 183 401 509
3 509 47 183
3 401 110 509
3 183 8 401
3 512 510 511
3 511 79 512
3 510 138 511
3 512 46 510
3 505 294 511
3 511 138 505
3 294 79 511
3 505 23 294
3 174 504 510
3 510 46 174
3 504 138 510
3 174 13 504
3 295 177 512
3 512 79 295
3 177 46 512
3 295 4 177
3 515 513 514
3 514 111 515
3 513 140 514
3 515 78 513
3 501 406 514
3 514 140 501
3 406 111 514
3 501 33 406
3 286 506 513
3 513 78 286
3 506 140 513
3 286 23 506
3 407 289 515
3 515 111 407
3 289 78 515
3 407 0 289
3 518 516 517
3 517 143 518
3 516 142 517
3 518 141 516
3 520 519 517
3 517 142 520
3 519 143 517
3 520 19 519
3 522 521 516
3 516 141 522
3 521 142 516
3 522 32 521
3 524 523 518
3 518 143 524
3 523 141 518
3 524 26 523
3 527 525 526
3 526 113 527
3 525 142 526
3 527 66 525
3 521 413 526
3 526 142 521
3 413 113 526
3 521 32 413
3 244 520 525
3 525 66 244
3 520 142 525
3 244 19 520
3 414 247 527
3 527 113 414
3 247 66 527
3 414 11 247
3 530 528 529
3 529 86 530
3 528 141 529
3 530 112 528
3 523 316 529
3 529 141 523
3 316 86 529
3 523 26 316
3 405 522 528
3 528 112 405
3 522 141 528
3 405 32 522
3 317 408 530
3 530 86 317
3 408 112 530
3 317 0 408
3 533 531 532
3 532 61 533
3 531 143 532
3 533 89 531
3 519 231 532
3 532 143 519
3 231 61 532
3 519 19 231
3 326 524 531
3 531 89 326
3 524 143 531
3 326 26 524
3 232 329 533
3 533 61 232
3 329 89 533
3 232 5 329
3 536 534 535
3 535 146 536
3 534 145 535
3 536 144 534
3 538 537 535
3 535 145 538
3 537 146 535
3 538 22 537
3 540 539 534
3 534 144 540
3 539 145 534
3 540 16 539
3 542 541 536
3 536 146 542
3 541 144 536
3 542 39 541
3 545 543 544
3 544 54 545
3 543 145 544
3 545 80 543
3 539 204 544
3 544 145 539
3 204 54 544
3 539 16 204
3 293 538 543
3 543 80 293
3 538 145 543
3 293 22 538
3 205 296 545
3 545 54 205
3 296 80 545
3 205 4 296
3 548 546 547
3 547 125 548
3 546 144 547
3 548 57 546
3 541 455 547
3 547 144 541
3 455 125 547
3 541 39 455
3 214 540 546
3 546 57 214
3 540 144 546
3 214 16 540
3 456 217 548
3 548 125 456
3 217 57 548
3 456 9 217
3 551 549 550
3 550 81 551
3 549 146 550
3 551 130 549
3 537 301 550
3 550 146 537
3 301 81 550
3 537 22 301
3 468 542 549
3 549 130 468
3 542 146 549
3 468 39 542
3 302 471 551
3 551 81 302
3 471 130 551
3 302 3 471
3 554 552 553
3 553 149 554
3 552 148 553
3 554 147 552
3 556 555 553
3 553 148 556
3 555 149 553
3 556 21 555
3 558 557 552
3 552 147 558
3 557 148 552
3 558 25 557
3 560 559 554
3 554 149 560
3 559 147 554
3 560 37 559
3 563 561 562
3 562 88 563
3 561 148 562
3 563 70 561
3 557 327 562
3 562 148 557
3 327 88 562
3 557 25 327
3 260 556 561
3 561 70 260
3 556 148 561
3 260 21 556
3 328 261 563
3 563 88 328
3 261 70 563
3 328 5 261
3 566 564 565
3 565 129 566
3 564 147 565
3 566 87 564
3 559 469 565
3 565 147 559
3 469 129 565
3 559 37 469
3 321 558 564
3 564 87 321
3 558 147 564
3 321 25 558
3 470 322 566
3 566 129 470
3 322 87 566
3 470 3 322
3 569 567 568
3 568 71 569
3 567 149 568
3 569 128 567
3 555 266 568
3 568 149 555
3 266 71 568
3 555 21 266
3 461 560 567
3 567 128 461
3 560 149 567
3 461 37 560
3 267 464 569
3 569 71 267
3 464 128 569
3 267 10 464
3 572 570 571
3 571 152 572
3 570 151 571
3 572 150 570
3 574 573 571
3 571 151 574
3 573 152 571
3 574 27 573
3 576 575 570
3 570 150 576
3 575 151 570
3 576 12 575
3 578 577 572
3 572 152 578
3 577 150 572
3 578 36 577
3 581 579 580
3 580 49 581
3 579 151 580
3 581 96 579
3 575 189 580
3 580 151 575
3 189 49 580
3 575 12 189
3 349 574 579
3 579 96 349
3 574 151 579
3 349 27 574
3 190 352 581
3 581 49 190
3 352 96 581
3 190 7 352
3 584 582 583
3 583 118 584
3 582 150 583
3 584 48 582
3 577 428 583
3 583 150 577
3 428 118 583
3 577 36 428
3 181 576 582
3 582 48 181
3 576 150 582
3 181 12 576
3 429 184 584
3 584 118 429
3 184 48 584
3 429 8 184
3 587 585 586
3 586 97 587
3 585 152 586
3 587 121 585
3 573 357 586
3 586 152 573
3 357 97 586
3 573 27 357
3 438 578 585
3 585 121 438
3 578 152 585
3 438 36 578
3 358 441 587
3 587 97 358
3 441 121 587
3 358 1 441
3 590 588 589
3 589 155 590
3 588 154 589
3 590 153 588
3 592 591 589
3 589 154 592
3 591 155 589
3 592 17 591
3 594 593 588
3 588 153 594
3 593 154 588
3 594 30 593
3 596 595 590
3 590 155 596
3 595 153 590
3 596 35 595
3 599 597 598
3 598 104 599
3 597 154 598
3 599 64 597
3 593 383 598
3 598 154 593
3 383 104 598
3 593 30 383
3 237 592 597
3 597 64 237
3 592 154 597
3 237 17 592
3 384 240 599
3 599 104 384
3 240 64 599
3 384 6 240
3 602 600 601
3 601 120 602
3 600 153 601
3 602 103 600
3 595 439 601
3 601 153 595
3 439 120 601
3 595 35 439
3 377 594 600
3 600 103 377
3 594 153 600
3 377 30 594
3 440 378 602
3 602 120 440
3 378 103 602
3 440 1 378
3 605 603 604
3 604 65 605
3 603 155 604
3 605 119 603
3 591 245 604
3 604 155 591
3 245 65 604
3 591 17 245
3 433 596 603
3 603 119 433
3 596 155 603
3 433 35 596
3 246 434 605
3 605 65 246
3 434 119 605
3 246 11 434
3 608 606 607
3 607 158 608
3 606 157 607
3 608 156 606
3 610 609 607
3 607 157 610
3 609 158 607
3 610 15 609
3 612 611 606
3 606 156 612
3 611 157 606
3 612 28 611
3 614 613 608
3 608 158 614
3 613 156 608
3 614 41 613
3 617 615 616
3 616 95 617
3 615 157 616
3 617 55 615
3 611 350 616
3 616 157 611
3 350 95 616
3 611 28 350
3 209 610 615
3 615 55 209
3 610 157 615
3 209 15 610
3 351 210 617
3 617 95 351
3 210 55 617
3 351 7 210
3 620 618 619
3 619 135 620
3 618 156 619
3 620 94 618
3 613 490 619
3 619 156 613
3 490 135 619
3 613 41 490
3 342 612 618
3 618 94 342
3 612 156 618
3 342 28 612
3 491 345 620
3 620 135 491
3 345 94 620
3 491 2 345
3 623 621 622
3 622 56 623
3 621 158 622
3 623 134 621
3 609 215 622
3 622 158 609
3 215 56 622
3 609 15 215
3 484 614 621
3 621 134 484
3 614 158 621
3 484 41 614
3 216 485 623
3 623 56 216
3 485 134 623
3 216 9 485
3 626 624 625
3 625 161 626
3 624 160 625
3 626 159 624
3 628 627 625
3 625 160 628
3 627 161 625
3 628 31 627
3 630 629 624
3 624 159 630
3 629 160 624
3 630 20 629
3 632 631 626
3 626 161 632
3 631 159 626
3 632 40 631
3 635 633 634
3 634 73 635
3 633 160 634
3 635 105 633
3 629 272 634
3 634 160 629
3 272 73 634
3 629 20 272
3 382 628 633
3 633 105 382
3 628 160 633
3 382 31 628
3 273 385 635
3 635 73 273
3 385 105 635
3 273 6 385
3 638 636 637
3 637 137 638
3 636 159 637
3 638 72 636
3 631 496 637
3 637 159 631
3 496 137 637
3 631 40 496
3 265 630 636
3 636 72 265
3 630 159 636
3 265 20 630
3 497 268 638
3 638 137 497
3 268 72 638
3 497 10 268
3 641 639 640
3 640 102 641
3 639 161 640
3 641 136 639
3 627 372 640
3 640 161 627
3 372 102 640
3 627 31 372
3 489 632 639
3 639 136 489
3 632 161 639
3 489 40 632
3 373 492 641
3 641 102 373
3 492 136 641
3 373 2 492
