# vtk DataFile Version 3.0
this file was written using fslvtkio
ASCII
DATASET POLYDATA
POINTS 642 float
94.96 129.695 108.417
86.8866 136.045 104.106
84.1859 119.504 104.081
89.4064 113.707 107.687
90.0597 120.741 115.508
92.8405 125.684 102.184
89.8589 127.855 99.9693
84.391 125.176 111.833
90.763 137.023 111.995
84.6538 109.236 109.949
86.1057 108.865 98.2293
98.3892 139.07 101.013
86.6204 132.048 113.237
90.3356 128.809 115.175
86.1011 122.459 116.077
83.6259 117.019 112.271
86.6272 113.563 115.112
95.0645 135.258 97.9313
92.5281 127.399 100.602
100.276 132.763 99.9219
86.6465 116.075 100.538
87.456 115.594 101.369
90.4357 116.102 112.004
93.2691 125.268 112.509
91.919 122.086 108.509
89.9361 119.477 104.949
94.936 128.652 104.591
84.9593 131.909 108.524
83.5925 122.434 107.976
85.1788 128.378 104.336
89.0577 133.456 100.554
86.6481 123.738 101.903
98.4183 135.454 104.997
94.1387 134.081 110.477
94.2642 140.919 106.384
92.188 140.579 101.698
88.6809 139.713 108.155
87.8167 109.518 103.952
84.5779 106.123 103.583
87.6451 107.109 109.584
84.1506 112.523 101.492
83.4226 113.647 106.98
87.9625 130.221 115.14
87.9905 125.789 116.746
86.1114 127.291 115.184
88.142 121.039 116.516
90.2834 124.725 115.925
90.4213 133.274 113.685
88.4691 135.241 113.464
85.2595 128.549 112.752
84.9548 123.832 113.992
84.7507 119.352 114.536
86.2984 117.742 116.32
84.9398 114.952 113.939
88.9227 116.642 116.08
83.7966 121.119 112.217
84.3694 113.013 111.19
85.4767 110.323 112.542
94.9121 131.729 98.8605
96.369 131.14 99.8544
98.3622 134.226 98.0117
96.0764 130.084 101.377
92.9672 126.64 101.256
91.5067 127.978 99.8897
92.4488 131.832 99.2442
97.3226 137.579 98.941
100.57 136.515 99.7732
87.0705 115.087 99.479
88.6972 121.101 101.416
89.0213 122.468 101.077
90.319 121.382 102.237
87.6276 111.677 99.4789
86.0543 112.203 96.909
88.7229 123.806 100.304
92.2487 120.841 112.574
93.1794 123.476 110.443
91.4179 119.099 110.23
93.6332 126.169 108.392
94.1827 127.653 110.515
91.9677 123.148 114.558
90.4625 117.967 114.064
89.9333 114.349 109.802
90.3568 117.866 108.152
90.9974 121.103 106.54
92.899 125.179 106.435
92.5588 124.153 104.728
95.358 129.319 106.412
89.3924 116.209 106.143
91.295 122.319 103.352
94.4046 127.44 102.981
84.2844 127.136 108.353
84.3254 125.494 106.074
84.7531 130.015 106.349
84.7941 123.706 104.081
83.8092 120.756 105.876
84.0174 123.706 110.053
84.852 128.727 110.369
85.6265 134.345 106.34
85.8889 132.664 104.032
86.7882 130.645 102.304
85.7141 126.355 102.607
87.5424 129.028 100.869
85.156 120.691 102.536
88.0783 135.011 102.135
89.7851 130.825 99.9612
87.9714 126.104 100.245
96.2532 135.464 107.737
94.3654 137.664 108.149
96.4899 138.319 105.457
92.1593 139.559 109.206
92.5171 135.902 111.143
95.1514 131.957 109.441
97.0448 132.716 106.891
98.919 137.207 102.914
96.532 140.792 103.496
93.4969 142.637 103.848
91.3228 142.425 107.552
89.9022 141.5 104.928
89.5615 139.328 110.659
95.804 140.969 100.556
89.3372 138.746 103.015
87.8964 138.037 106.053
86.9039 105.77 103.066
86.2244 104.239 106.653
87.7317 107.321 106.357
85.6481 106.405 110.213
84.8365 107.105 107.244
84.8636 106.487 100.184
86.9788 108.879 101.181
88.4574 111.231 106.177
88.3452 110.288 108.614
83.5256 112.518 104.241
84.0989 109.587 105.523
84.1697 109.109 102.294
83.8563 111.063 108.414
83.1459 116.281 105.234
83.6225 115.988 102.845
84.4898 110.083 99.2069
92.1759 127.51 113.961
92.2866 131.823 112.893
93.7977 129.822 111.931
97.937 132.287 104.46
100.092 134.002 102.406
98.1698 131.211 102.681
87.4473 109.822 112.89
89.0669 113.721 113.925
88.6623 111.537 111.436
88.3089 114.233 104.439
88.8591 117.557 103.243
87.617 112.682 102.342
87.3139 136.412 111.062
85.7072 132.641 110.887
86.4561 136.075 108.615
90.6646 137.374 100.511
91.6021 134.851 98.8512
93.9183 138.175 99.3688
83.068 117.815 107.658
83.2166 119.234 109.944
83.2775 115.113 109.653
84.9616 113.928 99.4958
86.8484 119.424 101.673
84.7872 117.124 100.921
87.9748 128.118 116.119
86.8696 126.406 116.258
86.7528 128.881 115.543
86.1804 124.785 115.614
86.9384 124.078 116.665
89.1279 127.298 115.996
89.105 129.373 115.299
87.134 131.381 114.357
86.2346 129.577 114.314
88.1084 123.531 116.987
89.177 125.1 116.292
89.1989 122.857 116.492
90.2257 126.78 115.659
87.0523 121.725 116.818
89.1985 120.539 116.173
90.1996 122.643 115.781
89.1495 131.652 114.088
88.3449 132.85 114.334
89.362 133.924 113.859
87.442 133.801 113.495
90.2165 130.795 114.294
90.5908 135.227 112.936
89.6759 136.225 112.944
85.5525 127.986 114.052
85.6045 125.652 114.629
85.1413 126.209 113.507
85.4689 123.038 114.98
85.843 130.224 113.137
84.8444 126.783 112.286
84.7458 124.47 112.885
85.301 118.258 115.538
85.5495 116.211 115.272
84.8329 117.087 114.451
85.7208 114.085 114.68
86.4571 115.599 116.02
86.2472 120.052 116.241
85.3473 120.598 115.41
84.3299 118.09 113.485
84.3095 115.921 113.08
87.5834 116.824 116.43
87.2252 119.168 116.749
88.3178 118.642 116.466
87.7774 114.939 116.022
89.409 118.65 115.78
84.9521 121.575 114.31
84.2068 120.183 113.464
84.4792 122.299 113.227
83.6173 119.097 112.447
84.3727 123.172 111.968
84.7532 113.84 112.57
85.3764 112.736 113.249
84.858 111.597 112.031
86.0645 111.899 113.779
83.8329 114.976 111.847
84.3137 110.948 110.833
84.9131 109.477 111.353
95.6926 131.273 99.3699
97.749 132.388 98.8584
96.6683 132.779 98.4261
99.4781 133.662 98.8866
98.5314 132.208 99.4789
94.1941 129.49 100.314
93.9203 130.068 99.7946
95.3815 133.402 98.0784
96.839 134.764 98.0897
96.8088 130.944 100.489
94.5516 129.4 100.783
94.729 128.916 101.344
92.7133 126.806 100.93
98.4465 131.659 100.64
94.2393 128.05 102.046
92.8995 126.228 101.794
93.1924 130.296 99.6021
93.8452 132.112 98.7463
92.2628 130.27 99.4274
93.8153 133.737 98.2851
92.0697 127.775 100.211
90.7723 128.145 99.7128
90.8931 129.715 99.4989
98.1079 136.085 98.1534
99.8314 135.56 98.4775
99.1207 137.316 99.0988
100.852 134.649 99.7925
96.1838 136.557 98.4082
98.1341 138.743 99.741
99.5415 138.018 100.435
86.8069 117.29 100.975
89.0364 121.257 100.543
86.8648 117.716 100.782
91.1247 125.377 100.475
91.1046 124.402 100.766
86.9963 117.677 101.239
87.1623 115.172 100.517
86.5355 115.333 99.4147
87.5548 118.713 101.303
91.1287 124.173 101.275
89.1444 121.121 101.745
91.7123 124.138 101.693
88.1758 118.688 101.949
91.8177 123.246 102.224
87.5904 113.286 99.1408
87.0938 113.614 97.9088
86.9502 111.628 97.9421
85.9315 114.162 97.734
87.6029 113.419 100.509
86.9934 110.126 98.6655
85.8188 110.185 97.2494
88.9861 122.994 101.003
90.5057 125.656 100.328
90.1585 126.367 99.9089
87.9642 119.923 101.567
89.3202 126.23 99.7294
92.9329 121.989 111.567
92.2354 121.244 110.527
91.9078 119.808 111.432
91.6981 120.568 109.378
92.6274 122.643 109.534
93.3912 124.25 111.498
92.8326 123.157 112.662
91.3002 118.515 112.291
91.0705 117.754 111.212
93.4532 124.806 109.332
93.7038 125.494 110.46
94.0266 126.871 109.5
93.7081 126.455 111.465
92.8376 124.073 108.433
94.336 128.007 108.377
94.5853 128.776 109.439
92.2076 121.664 113.59
91.2922 119.354 113.3
91.2207 120.538 114.32
90.5689 116.822 113.049
92.5583 124.159 113.611
91.0498 121.973 115.139
90.3762 119.286 115.014
90.516 116.826 110.079
90.8464 118.461 109.211
90.3791 116.225 109.011
91.0341 120.123 108.297
90.2245 115.301 110.931
89.8479 114.038 108.651
89.9377 115.758 107.893
91.9802 123.232 106.396
92.817 124.818 105.498
91.4687 122.777 105.683
93.6228 126.488 104.541
93.8785 126.948 105.501
92.3717 123.57 107.44
91.5204 121.632 107.398
90.4961 120.36 105.794
91.1791 121.657 104.907
94.0539 127.366 106.421
93.3897 125.661 107.354
94.186 127.705 107.319
95.2251 128.986 105.535
95.1746 129.477 107.385
90.4599 119.52 107.245
90.0731 118.714 106.324
89.8427 117.316 107.117
89.4447 117.624 105.49
89.4002 114.888 106.907
92.071 123.315 104.024
93.2558 125.569 103.828
92.7592 124.757 103.345
94.7516 127.982 103.713
90.7643 120.925 104.097
92.0867 124.042 102.673
93.4359 126.547 102.581
84.1886 126.324 107.201
84.7886 127.76 106.271
84.4879 128.64 107.383
84.9713 129.274 105.277
84.7916 126.876 105.12
83.96 124.022 107.051
84.0144 124.806 108.133
84.601 129.557 108.49
84.8014 130.945 107.44
84.5983 124.558 105.043
83.8809 123.175 105.979
84.1333 122.278 105.013
83.6033 121.626 106.92
84.9021 125.971 104.019
84.5367 121.579 103.997
83.9342 120.021 104.903
84.0606 125.405 109.235
84.4867 127.987 109.318
84.3715 126.341 110.152
84.8114 130.407 109.589
83.6113 123.051 109.067
84.2068 124.48 110.972
84.7031 126.932 111.195
85.0687 132.122 106.355
85.2986 131.261 105.301
85.5837 133.317 105.184
85.5049 130.64 104.152
85.1496 133.261 107.466
86.0789 135.246 105.15
86.3535 134.416 104.016
86.2753 128.555 102.26
86.4609 127.325 101.56
87.0978 129.816 101.421
86.9951 126.447 101.297
86.1934 125.035 102.012
85.4147 127.4 103.318
85.7608 129.547 103.17
87.8418 131.95 101.54
88.5412 131.371 100.942
85.3401 123.386 102.312
85.2215 124.807 103.101
85.0232 122.435 103.178
85.629 121.632 101.848
84.7268 119.98 103.286
86.4612 131.7 103.115
87.3896 132.938 102.223
86.8049 133.637 102.95
88.5283 134.091 101.333
87.5757 135.646 103.118
88.6086 129.965 100.361
87.8705 127.744 100.531
88.7615 128.451 99.9628
87.2093 125.245 101.072
89.58 132.262 100.15
89.8866 129.298 99.6996
88.9036 127.059 99.8968
95.3302 136.46 108.104
95.4674 138.052 106.889
96.55 136.893 106.728
95.3897 139.681 105.895
94.332 139.482 107.382
94.2033 136.01 109.358
95.0092 134.857 109.084
97.3372 135.539 106.276
97.5674 136.933 105.193
93.3516 138.705 108.701
93.3883 136.995 109.674
92.2062 137.651 109.947
93.3384 135.07 110.707
93.2064 140.503 107.904
91.2742 138.379 110.629
91.5536 136.567 111.549
95.8715 133.852 108.715
96.8514 134.152 107.397
96.0129 132.461 108.087
97.8414 134.04 105.986
94.7476 132.949 110.115
95.2741 130.692 109.024
95.9102 131.016 107.689
97.7413 137.962 104.273
96.6184 139.617 104.567
97.4929 138.844 103.187
95.4662 141.129 105.018
99.0094 136.328 103.846
98.9949 138.321 101.929
97.5144 139.92 102.136
92.5202 142.783 105.629
90.495 142.388 106.273
91.6163 142.508 104.352
89.1564 140.901 106.574
89.6729 141.397 107.918
93.102 142.054 107.049
94.1113 142.099 105.151
92.7413 141.935 102.568
90.9886 141.317 103.257
90.5105 140.949 108.904
91.866 141.147 108.355
90.8309 139.745 109.769
88.9958 139.77 109.592
90.0912 138.16 111.43
95.2046 141.865 103.415
94.6872 141.657 102.134
96.273 141.35 101.922
93.8622 140.991 100.987
97.2693 140.066 100.658
89.7402 140.231 103.87
88.8749 139.847 105.497
88.6119 138.657 104.579
88.156 139.08 107.013
90.7883 139.803 102.358
88.1997 137.284 103.614
87.3289 136.995 105.056
86.6852 104.691 104.578
87.3395 105.436 106.497
87.43 106.304 104.791
87.8208 106.896 107.936
87.2846 105.203 108.213
85.1246 104.892 104.847
85.6281 104.914 102.88
87.4212 107.436 103.497
87.6692 108.116 104.895
85.9304 105.335 108.491
85.0729 105.236 106.862
85.1064 106.617 108.533
84.5991 106.405 105.481
87.001 106.092 110.33
85.0326 107.773 110.255
84.6593 108.209 108.816
86.1596 105.801 101.474
87.0094 107.323 102.122
86.5036 107.159 100.216
87.3826 109.09 102.713
84.7334 106.064 101.795
85.4995 107.447 98.6118
86.6842 108.942 99.6859
87.9224 109.042 106.238
87.896 108.672 107.642
88.6061 110.407 107.237
88.0772 108.556 109.074
88.0692 110.338 105.066
89.0075 112.624 106.968
89.035 112.085 108.217
83.7284 110.925 104.846
84.1587 109.17 103.915
83.8234 110.685 103.279
84.3554 107.554 102.964
84.4236 107.771 104.706
83.6903 111.399 106.261
83.5882 112.862 105.637
83.9252 112.416 102.864
84.0726 110.766 101.778
84.4027 108.298 106.421
83.999 110.116 107.019
84.3576 109.061 107.918
83.6318 112.201 107.584
84.4958 110.213 109.247
83.4055 114.351 104.826
83.3983 114.13 103.385
83.5134 116.041 104.013
83.8029 114.246 102.231
83.216 114.917 106.205
83.3596 117.909 104.575
83.6885 117.862 103.498
84.1784 109.469 100.697
84.308 107.54 101.339
84.2712 107.856 99.4439
84.2868 111.287 100.314
84.6176 109.068 97.9112
92.2073 129.564 113.565
93.1297 130.791 112.515
92.9229 128.605 112.922
94.0755 131.969 111.448
93.167 133.065 111.675
91.3043 130.359 113.992
91.2702 128.324 114.568
92.8097 126.389 113.32
93.5575 127.571 112.297
92.3127 133.786 112.07
91.4006 132.653 113.436
91.5549 134.756 112.474
91.2746 126.33 115.089
91.8907 125.452 114.273
91.0384 124.161 115.098
94.1355 128.696 111.239
94.6872 130.911 110.87
94.782 129.843 110.159
99.0157 133.258 103.549
99.9123 132.397 102.476
98.0597 131.617 103.606
99.5871 131.862 101.48
100.726 133.319 101.201
99.4823 134.882 103.813
98.7157 133.843 104.815
96.5761 130.578 104.592
96.4 130.204 103.765
100.729 134.989 100.966
100.002 135.75 102.272
100.313 136.876 101.32
97.6536 132.407 105.657
96.607 130.745 105.579
96.4121 131.014 106.565
96.1544 129.837 102.789
97.407 130.825 101.769
95.201 129.066 102.283
88.5006 111.572 113.47
88.9149 112.596 112.711
88.1908 110.363 112.033
89.343 113.786 111.984
89.7865 114.577 112.926
87.8778 113.345 114.616
87.1856 111.618 114.217
87.5809 108.269 111.279
88.0357 109.257 110.64
89.6616 115.76 113.974
89.1262 114.922 115.305
89.5743 117.151 114.96
86.4956 109.551 113.05
86.6084 107.667 111.586
85.5636 108.171 112.161
88.4895 110.521 110.001
89.1522 112.616 110.615
89.075 112.16 109.418
88.6822 115.851 103.772
88.3528 115.116 102.602
87.976 113.437 103.421
87.7893 114.208 101.777
88.1637 116.807 102.299
89.3922 118.39 104.197
88.9805 116.807 104.652
87.8456 111.872 104.219
87.5894 111.009 103.127
89.4833 119.478 102.67
89.9768 119.829 103.224
90.8561 121.542 102.672
89.0976 115.136 105.22
88.3972 112.704 105.246
88.907 113.745 106.038
87.4056 110.678 101.766
87.4393 112.314 101.173
87.5364 110.499 100.332
86.3835 134.553 111.13
86.1245 134.424 109.845
86.9977 136.371 109.822
85.5982 134.043 108.628
85.3938 132.479 109.687
86.1928 132.519 112.112
86.9405 134.366 112.28
87.9259 138.33 109.618
87.4996 137.967 108.418
85.0735 130.761 110.759
85.5714 130.684 111.949
85.1714 128.837 111.516
87.5356 136.009 112.534
88.3324 137.857 110.965
88.9266 137.103 111.99
87.0985 137.12 107.314
85.7713 135.262 107.46
86.294 136.285 106.215
91.1083 136.062 99.6048
92.7361 136.626 98.8504
92.2398 137.828 99.9399
94.4202 136.796 98.4276
93.2689 135.219 98.3049
90.2361 134.194 99.686
89.8283 135.434 100.461
91.4972 139.084 100.885
93.1341 139.524 100.315
92.1271 133.359 98.7417
90.7901 132.78 99.6225
91.0488 131.237 99.6409
89.2953 136.247 101.309
90.1822 138.089 101.764
88.8634 136.994 102.398
94.7814 139.719 99.9428
95.5508 138.081 99.0714
96.4725 139.27 99.6864
83.2216 118.526 108.775
83.2873 117.173 109.843
82.8833 116.335 108.691
83.3434 116.06 110.956
83.4548 118.17 111.125
83.2703 120.769 108.922
83.261 120.14 107.88
83.0672 115.659 107.468
83.3414 114.338 108.268
83.382 120.053 111.071
83.4767 121.464 110.034
83.8393 122.245 111.022
83.2976 119.152 106.657
82.9034 116.907 106.496
83.478 118.4 105.628
83.7881 113.084 108.948
83.6294 113.977 110.44
84.0471 112.018 109.925
86.0884 116.618 100.249
85.9476 118.246 101.116
84.888 115.495 100.263
85.9229 120.102 101.527
86.6191 121.599 101.736
87.1731 117.758 101.274
85.9844 114.943 99.5947
84.4125 112.966 100.272
83.9433 114.629 100.975
87.1139 123.053 100.303
87.6189 121.142 100.994
87.8897 124.15 99.5656
85.5607 113.075 98.15
84.5531 112.107 98.7613
84.8016 111.229 97.5946
84.0653 116.231 101.757
85.2138 118.862 101.827
84.3739 118.192 102.551
POLYGONS 1280  5120
3 164 162 163
3 163 44 164
3 162 43 163
3 164 42 162
3 166 165 163
3 163 43 166
3 165 44 163
3 166 14 165
3 168 167 162
3 162 42 168
3 167 43 162
3 168 13 167
3 170 169 164
3 164 44 170
3 169 42 164
3 170 12 169
3 173 171 172
3 172 46 173
3 171 43 172
3 173 45 171
3 167 174 172
3 172 43 167
3 174 46 172
3 167 13 174
3 175 166 171
3 171 45 175
3 166 43 171
3 175 14 166
3 177 176 173
3 173 46 177
3 176 45 173
3 177 4 176
3 180 178 179
3 179 48 180
3 178 42 179
3 180 47 178
3 169 181 179
3 179 42 169
3 181 48 179
3 169 12 181
3 182 168 178
3 178 47 182
3 168 42 178
3 182 13 168
3 184 183 180
3 180 48 184
3 183 47 180
3 184 8 183
3 187 185 186
3 186 50 187
3 185 44 186
3 187 49 185
3 165 188 186
3 186 44 165
3 188 50 186
3 165 14 188
3 189 170 185
3 185 49 189
3 170 44 185
3 189 12 170
3 191 190 187
3 187 50 191
3 190 49 187
3 191 7 190
3 194 192 193
3 193 53 194
3 192 52 193
3 194 51 192
3 196 195 193
3 193 52 196
3 195 53 193
3 196 16 195
3 198 197 192
3 192 51 198
3 197 52 192
3 198 14 197
3 200 199 194
3 194 53 200
3 199 51 194
3 200 15 199
3 203 201 202
3 202 45 203
3 201 52 202
3 203 54 201
3 197 175 202
3 202 52 197
3 175 45 202
3 197 14 175
3 204 196 201
3 201 54 204
3 196 52 201
3 204 16 196
3 176 205 203
3 203 45 176
3 205 54 203
3 176 4 205
3 208 206 207
3 207 55 208
3 206 51 207
3 208 50 206
3 199 209 207
3 207 51 199
3 209 55 207
3 199 15 209
3 188 198 206
3 206 50 188
3 198 51 206
3 188 14 198
3 210 191 208
3 208 55 210
3 191 50 208
3 210 7 191
3 213 211 212
3 212 57 213
3 211 53 212
3 213 56 211
3 195 214 212
3 212 53 195
3 214 57 212
3 195 16 214
3 215 200 211
3 211 56 215
3 200 53 211
3 215 15 200
3 217 216 213
3 213 57 217
3 216 56 213
3 217 9 216
3 220 218 219
3 219 60 220
3 218 59 219
3 220 58 218
3 222 221 219
3 219 59 222
3 221 60 219
3 222 19 221
3 224 223 218
3 218 58 224
3 223 59 218
3 224 18 223
3 226 225 220
3 220 60 226
3 225 58 220
3 226 17 225
3 229 227 228
3 228 62 229
3 227 59 228
3 229 61 227
3 223 230 228
3 228 59 223
3 230 62 228
3 223 18 230
3 231 222 227
3 227 61 231
3 222 59 227
3 231 19 222
3 233 232 229
3 229 62 233
3 232 61 229
3 233 5 232
3 236 234 235
3 235 64 236
3 234 58 235
3 236 63 234
3 225 237 235
3 235 58 225
3 237 64 235
3 225 17 237
3 238 224 234
3 234 63 238
3 224 58 234
3 238 18 224
3 240 239 236
3 236 64 240
3 239 63 236
3 240 6 239
3 243 241 242
3 242 66 243
3 241 60 242
3 243 65 241
3 221 244 242
3 242 60 221
3 244 66 242
3 221 19 244
3 245 226 241
3 241 65 245
3 226 60 241
3 245 17 226
3 247 246 243
3 243 66 247
3 246 65 243
3 247 11 246
3 250 248 249
3 249 69 250
3 248 68 249
3 250 67 248
3 252 251 249
3 249 68 252
3 251 69 249
3 252 18 251
3 254 253 248
3 248 67 254
3 253 68 248
3 254 21 253
3 256 255 250
3 250 69 256
3 255 67 250
3 256 20 255
3 259 257 258
3 258 70 259
3 257 68 258
3 259 62 257
3 253 260 258
3 258 68 253
3 260 70 258
3 253 21 260
3 230 252 257
3 257 62 230
3 252 68 257
3 230 18 252
3 261 233 259
3 259 70 261
3 233 62 259
3 261 5 233
3 264 262 263
3 263 72 264
3 262 67 263
3 264 71 262
3 255 265 263
3 263 67 255
3 265 72 263
3 255 20 265
3 266 254 262
3 262 71 266
3 254 67 262
3 266 21 254
3 268 267 264
3 264 72 268
3 267 71 264
3 268 10 267
3 271 269 270
3 270 63 271
3 269 69 270
3 271 73 269
3 251 238 270
3 270 69 251
3 238 63 270
3 251 18 238
3 272 256 269
3 269 73 272
3 256 69 269
3 272 20 256
3 239 273 271
3 271 63 239
3 273 73 271
3 239 6 273
3 276 274 275
3 275 76 276
3 274 75 275
3 276 74 274
3 278 277 275
3 275 75 278
3 277 76 275
3 278 24 277
3 280 279 274
3 274 74 280
3 279 75 274
3 280 23 279
3 282 281 276
3 276 76 282
3 281 74 276
3 282 22 281
3 285 283 284
3 284 78 285
3 283 75 284
3 285 77 283
3 279 286 284
3 284 75 279
3 286 78 284
3 279 23 286
3 287 278 283
3 283 77 287
3 278 75 283
3 287 24 278
3 289 288 285
3 285 78 289
3 288 77 285
3 289 0 288
3 292 290 291
3 291 80 292
3 290 74 291
3 292 79 290
3 281 293 291
3 291 74 281
3 293 80 291
3 281 22 293
3 294 280 290
3 290 79 294
3 280 74 290
3 294 23 280
3 296 295 292
3 292 80 296
3 295 79 292
3 296 4 295
3 299 297 298
3 298 82 299
3 297 76 298
3 299 81 297
3 277 300 298
3 298 76 277
3 300 82 298
3 277 24 300
3 301 282 297
3 297 81 301
3 282 76 297
3 301 22 282
3 303 302 299
3 299 82 303
3 302 81 299
3 303 3 302
3 306 304 305
3 305 85 306
3 304 84 305
3 306 83 304
3 308 307 305
3 305 84 308
3 307 85 305
3 308 26 307
3 310 309 304
3 304 83 310
3 309 84 304
3 310 24 309
3 312 311 306
3 306 85 312
3 311 83 306
3 312 25 311
3 315 313 314
3 314 77 315
3 313 84 314
3 315 86 313
3 309 287 314
3 314 84 309
3 287 77 314
3 309 24 287
3 316 308 313
3 313 86 316
3 308 84 313
3 316 26 308
3 288 317 315
3 315 77 288
3 317 86 315
3 288 0 317
3 320 318 319
3 319 87 320
3 318 83 319
3 320 82 318
3 311 321 319
3 319 83 311
3 321 87 319
3 311 25 321
3 300 310 318
3 318 82 300
3 310 83 318
3 300 24 310
3 322 303 320
3 320 87 322
3 303 82 320
3 322 3 303
3 325 323 324
3 324 89 325
3 323 85 324
3 325 88 323
3 307 326 324
3 324 85 307
3 326 89 324
3 307 26 326
3 327 312 323
3 323 88 327
3 312 85 323
3 327 25 312
3 329 328 325
3 325 89 329
3 328 88 325
3 329 5 328
3 332 330 331
3 331 92 332
3 330 91 331
3 332 90 330
3 334 333 331
3 331 91 334
3 333 92 331
3 334 29 333
3 336 335 330
3 330 90 336
3 335 91 330
3 336 28 335
3 338 337 332
3 332 92 338
3 337 90 332
3 338 27 337
3 341 339 340
3 340 94 341
3 339 91 340
3 341 93 339
3 335 342 340
3 340 91 335
3 342 94 340
3 335 28 342
3 343 334 339
3 339 93 343
3 334 91 339
3 343 29 334
3 345 344 341
3 341 94 345
3 344 93 341
3 345 2 344
3 348 346 347
3 347 96 348
3 346 90 347
3 348 95 346
3 337 349 347
3 347 90 337
3 349 96 347
3 337 27 349
3 350 336 346
3 346 95 350
3 336 90 346
3 350 28 336
3 352 351 348
3 348 96 352
3 351 95 348
3 352 7 351
3 355 353 354
3 354 98 355
3 353 92 354
3 355 97 353
3 333 356 354
3 354 92 333
3 356 98 354
3 333 29 356
3 357 338 353
3 353 97 357
3 338 92 353
3 357 27 338
3 359 358 355
3 355 98 359
3 358 97 355
3 359 1 358
3 362 360 361
3 361 101 362
3 360 100 361
3 362 99 360
3 364 363 361
3 361 100 364
3 363 101 361
3 364 31 363
3 366 365 360
3 360 99 366
3 365 100 360
3 366 29 365
3 368 367 362
3 362 101 368
3 367 99 362
3 368 30 367
3 371 369 370
3 370 93 371
3 369 100 370
3 371 102 369
3 365 343 370
3 370 100 365
3 343 93 370
3 365 29 343
3 372 364 369
3 369 102 372
3 364 100 369
3 372 31 364
3 344 373 371
3 371 93 344
3 373 102 371
3 344 2 373
3 376 374 375
3 375 103 376
3 374 99 375
3 376 98 374
3 367 377 375
3 375 99 367
3 377 103 375
3 367 30 377
3 356 366 374
3 374 98 356
3 366 99 374
3 356 29 366
3 378 359 376
3 376 103 378
3 359 98 376
3 378 1 359
3 381 379 380
3 380 105 381
3 379 101 380
3 381 104 379
3 363 382 380
3 380 101 363
3 382 105 380
3 363 31 382
3 383 368 379
3 379 104 383
3 368 101 379
3 383 30 368
3 385 384 381
3 381 105 385
3 384 104 381
3 385 6 384
3 388 386 387
3 387 108 388
3 386 107 387
3 388 106 386
3 390 389 387
3 387 107 390
3 389 108 387
3 390 34 389
3 392 391 386
3 386 106 392
3 391 107 386
3 392 33 391
3 394 393 388
3 388 108 394
3 393 106 388
3 394 32 393
3 397 395 396
3 396 110 397
3 395 107 396
3 397 109 395
3 391 398 396
3 396 107 391
3 398 110 396
3 391 33 398
3 399 390 395
3 395 109 399
3 390 107 395
3 399 34 390
3 401 400 397
3 397 110 401
3 400 109 397
3 401 8 400
3 404 402 403
3 403 112 404
3 402 106 403
3 404 111 402
3 393 405 403
3 403 106 393
3 405 112 403
3 393 32 405
3 406 392 402
3 402 111 406
3 392 106 402
3 406 33 392
3 408 407 404
3 404 112 408
3 407 111 404
3 408 0 407
3 411 409 410
3 410 114 411
3 409 108 410
3 411 113 409
3 389 412 410
3 410 108 389
3 412 114 410
3 389 34 412
3 413 394 409
3 409 113 413
3 394 108 409
3 413 32 394
3 415 414 411
3 411 114 415
3 414 113 411
3 415 11 414
3 418 416 417
3 417 117 418
3 416 116 417
3 418 115 416
3 420 419 417
3 417 116 420
3 419 117 417
3 420 36 419
3 422 421 416
3 416 115 422
3 421 116 416
3 422 34 421
3 424 423 418
3 418 117 424
3 423 115 418
3 424 35 423
3 427 425 426
3 426 109 427
3 425 116 426
3 427 118 425
3 421 399 426
3 426 116 421
3 399 109 426
3 421 34 399
3 428 420 425
3 425 118 428
3 420 116 425
3 428 36 420
3 400 429 427
3 427 109 400
3 429 118 427
3 400 8 429
3 432 430 431
3 431 119 432
3 430 115 431
3 432 114 430
3 423 433 431
3 431 115 423
3 433 119 431
3 423 35 433
3 412 422 430
3 430 114 412
3 422 115 430
3 412 34 422
3 434 415 432
3 432 119 434
3 415 114 432
3 434 11 415
3 437 435 436
3 436 121 437
3 435 117 436
3 437 120 435
3 419 438 436
3 436 117 419
3 438 121 436
3 419 36 438
3 439 424 435
3 435 120 439
3 424 117 435
3 439 35 424
3 441 440 437
3 437 121 441
3 440 120 437
3 441 1 440
3 444 442 443
3 443 124 444
3 442 123 443
3 444 122 442
3 446 445 443
3 443 123 446
3 445 124 443
3 446 39 445
3 448 447 442
3 442 122 448
3 447 123 442
3 448 38 447
3 450 449 444
3 444 124 450
3 449 122 444
3 450 37 449
3 453 451 452
3 452 126 453
3 451 123 452
3 453 125 451
3 447 454 452
3 452 123 447
3 454 126 452
3 447 38 454
3 455 446 451
3 451 125 455
3 446 123 451
3 455 39 446
3 457 456 453
3 453 126 457
3 456 125 453
3 457 9 456
3 460 458 459
3 459 128 460
3 458 122 459
3 460 127 458
3 449 461 459
3 459 122 449
3 461 128 459
3 449 37 461
3 462 448 458
3 458 127 462
3 448 122 458
3 462 38 448
3 464 463 460
3 460 128 464
3 463 127 460
3 464 10 463
3 467 465 466
3 466 130 467
3 465 124 466
3 467 129 465
3 445 468 466
3 466 124 445
3 468 130 466
3 445 39 468
3 469 450 465
3 465 129 469
3 450 124 465
3 469 37 450
3 471 470 467
3 467 130 471
3 470 129 467
3 471 3 470
3 474 472 473
3 473 133 474
3 472 132 473
3 474 131 472
3 476 475 473
3 473 132 476
3 475 133 473
3 476 38 475
3 478 477 472
3 472 131 478
3 477 132 472
3 478 41 477
3 480 479 474
3 474 133 480
3 479 131 474
3 480 40 479
3 483 481 482
3 482 134 483
3 481 132 482
3 483 126 481
3 477 484 482
3 482 132 477
3 484 134 482
3 477 41 484
3 454 476 481
3 481 126 454
3 476 132 481
3 454 38 476
3 485 457 483
3 483 134 485
3 457 126 483
3 485 9 457
3 488 486 487
3 487 136 488
3 486 131 487
3 488 135 486
3 479 489 487
3 487 131 479
3 489 136 487
3 479 40 489
3 490 478 486
3 486 135 490
3 478 131 486
3 490 41 478
3 492 491 488
3 488 136 492
3 491 135 488
3 492 2 491
3 495 493 494
3 494 127 495
3 493 133 494
3 495 137 493
3 475 462 494
3 494 133 475
3 462 127 494
3 475 38 462
3 496 480 493
3 493 137 496
3 480 133 493
3 496 40 480
3 463 497 495
3 495 127 463
3 497 137 495
3 463 10 497
3 500 498 499
3 499 140 500
3 498 139 499
3 500 138 498
3 502 501 499
3 499 139 502
3 501 140 499
3 502 33 501
3 504 503 498
3 498 138 504
3 503 139 498
3 504 13 503
3 506 505 500
3 500 140 506
3 505 138 500
3 506 23 505
3 509 507 508
3 508 47 509
3 507 139 508
3 509 110 507
3 503 182 508
3 508 139 503
3 182 47 508
3 503 13 182
3 398 502 507
3 507 110 398
3 502 139 507
3 398 33 502
3 183 401 509
3 509 47 183
3 401 110 509
3 183 8 401
3 512 510 511
3 511 79 512
3 510 138 511
3 512 46 510
3 505 294 511
3 511 138 505
3 294 79 511
3 505 23 294
3 174 504 510
3 510 46 174
3 504 138 510
3 174 13 504
3 295 177 512
3 512 79 295
3 177 46 512
3 295 4 177
3 515 513 514
3 514 111 515
3 513 140 514
3 515 78 513
3 501 406 514
3 514 140 501
3 406 111 514
3 501 33 406
3 286 506 513
3 513 78 286
3 506 140 513
3 286 23 506
3 407 289 515
3 515 111 407
3 289 78 515
3 407 0 289
3 518 516 517
3 517 143 518
3 516 142 517
3 518 141 516
3 520 519 517
3 517 142 520
3 519 143 517
3 520 19 519
3 522 521 516
3 516 141 522
3 521 142 516
3 522 32 521
3 524 523 518
3 518 143 524
3 523 141 518
3 524 26 523
3 527 525 526
3 526 113 527
3 525 142 526
3 527 66 525
3 521 413 526
3 526 142 521
3 413 113 526
3 521 32 413
3 244 520 525
3 525 66 244
3 520 142 525
3 244 19 520
3 414 247 527
3 527 113 414
3 247 66 527
3 414 11 247
3 530 528 529
3 529 86 530
3 528 141 529
3 530 112 528
3 523 316 529
3 529 141 523
3 316 86 529
3 523 26 316
3 405 522 528
3 528 112 405
3 522 141 528
3 405 32 522
3 317 408 530
3 530 86 317
3 408 112 530
3 317 0 408
3 533 531 532
3 532 61 533
3 531 143 532
3 533 89 531
3 519 231 532
3 532 143 519
3 231 61 532
3 519 19 231
3 326 524 531
3 531 89 326
3 524 143 531
3 326 26 524
3 232 329 533
3 533 61 232
3 329 89 533
3 232 5 329
3 536 534 535
3 535 146 536
3 534 145 535
3 536 144 534
3 538 537 535
3 535 145 538
3 537 146 535
3 538 22 537
3 540 539 534
3 534 144 540
3 539 145 534
3 540 16 539
3 542 541 536
3 536 146 542
3 541 144 536
3 542 39 541
3 545 543 544
3 544 54 545
3 543 145 544
3 545 80 543
3 539 204 544
3 544 145 539
3 204 54 544
3 539 16 204
3 293 538 543
3 543 80 293
3 538 145 543
3 293 22 538
3 205 296 545
3 545 54 205
3 296 80 545
3 205 4 296
3 548 546 547
3 547 125 548
3 546 144 547
3 548 57 546
3 541 455 547
3 547 144 541
3 455 125 547
3 541 39 455
3 214 540 546
3 546 57 214
3 540 144 546
3 214 16 540
3 456 217 548
3 548 125 456
3 217 57 548
3 456 9 217
3 551 549 550
3 550 81 551
3 549 146 550
3 551 130 549
3 537 301 550
3 550 146 537
3 301 81 550
3 537 22 301
3 468 542 549
3 549 130 468
3 542 146 549
3 468 39 542
3 302 471 551
3 551 81 302
3 471 130 551
3 302 3 471
3 554 552 553
3 553 149 554
3 552 148 553
3 554 147 552
3 556 555 553
3 553 148 556
3 555 149 553
3 556 21 555
3 558 557 552
3 552 147 558
3 557 148 552
3 558 25 557
3 560 559 554
3 554 149 560
3 559 147 554
3 560 37 559
3 563 561 562
3 562 88 563
3 561 148 562
3 563 70 561
3 557 327 562
3 562 148 557
3 327 88 562
3 557 25 327
3 260 556 561
3 561 70 260
3 556 148 561
3 260 21 556
3 328 261 563
3 563 88 328
3 261 70 563
3 328 5 261
3 566 564 565
3 565 129 566
3 564 147 565
3 566 87 564
3 559 469 565
3 565 147 559
3 469 129 565
3 559 37 469
3 321 558 564
3 564 87 321
3 558 147 564
3 321 25 558
3 470 322 566
3 566 129 470
3 322 87 566
3 470 3 322
3 569 567 568
3 568 71 569
3 567 149 568
3 569 128 567
3 555 266 568
3 568 149 555
3 266 71 568
3 555 21 266
3 461 560 567
3 567 128 461
3 560 149 567
3 461 37 560
3 267 464 569
3 569 71 267
3 464 128 569
3 267 10 464
3 572 570 571
3 571 152 572
3 570 151 571
3 572 150 570
3 574 573 571
3 571 151 574
3 573 152 571
3 574 27 573
3 576 575 570
3 570 150 576
3 575 151 570
3 576 12 575
3 578 577 572
3 572 152 578
3 577 150 572
3 578 36 577
3 581 579 580
3 580 49 581
3 579 151 580
3 581 96 579
3 575 189 580
3 580 151 575
3 189 49 580
3 575 12 189
3 349 574 579
3 579 96 349
3 574 151 579
3 349 27 574
3 190 352 581
3 581 49 190
3 352 96 581
3 190 7 352
3 584 582 583
3 583 118 584
3 582 150 583
3 584 48 582
3 577 428 583
3 583 150 577
3 428 118 583
3 577 36 428
3 181 576 582
3 582 48 181
3 576 150 582
3 181 12 576
3 429 184 584
3 584 118 429
3 184 48 584
3 429 8 184
3 587 585 586
3 586 97 587
3 585 152 586
3 587 121 585
3 573 357 586
3 586 152 573
3 357 97 586
3 573 27 357
3 438 578 585
3 585 121 438
3 578 152 585
3 438 36 578
3 358 441 587
3 587 97 358
3 441 121 587
3 358 1 441
3 590 588 589
3 589 155 590
3 588 154 589
3 590 153 588
3 592 591 589
3 589 154 592
3 591 155 589
3 592 17 591
3 594 593 588
3 588 153 594
3 593 154 588
3 594 30 593
3 596 595 590
3 590 155 596
3 595 153 590
3 596 35 595
3 599 597 598
3 598 104 599
3 597 154 598
3 599 64 597
3 593 383 598
3 598 154 593
3 383 104 598
3 593 30 383
3 237 592 597
3 597 64 237
3 592 154 597
3 237 17 592
3 384 240 599
3 599 104 384
3 240 64 599
3 384 6 240
3 602 600 601
3 601 120 602
3 600 153 601
3 602 103 600
3 595 439 601
3 601 153 595
3 439 120 601
3 595 35 439
3 377 594 600
3 600 103 377
3 594 153 600
3 377 30 594
3 440 378 602
3 602 120 440
3 378 103 602
3 440 1 378
3 605 603 604
3 604 65 605
3 603 155 604
3 605 119 603
3 591 245 604
3 604 155 591
3 245 65 604
3 591 17 245
3 433 596 603
3 603 119 433
3 596 155 603
3 433 35 596
3 246 434 605
3 605 65 246
3 434 119 605
3 246 11 434
3 608 606 607
3 607 158 608
3 606 157 607
3 608 156 606
3 610 609 607
3 607 157 610
3 609 158 607
3 610 15 609
3 612 611 606
3 606 156 612
3 611 157 606
3 612 28 611
3 614 613 608
3 608 158 614
3 613 156 608
3 614 41 613
3 617 615 616
3 616 95 617
3 615 157 616
3 617 55 615
3 611 350 616
3 616 157 611
3 350 95 616
3 611 28 350
3 209 610 615
3 615 55 209
3 610 157 615
3 209 15 610
3 351 210 617
3 617 95 351
3 210 55 617
3 351 7 210
3 620 618 619
3 619 135 620
3 618 156 619
3 620 94 618
3 613 490 619
3 619 156 613
3 490 135 619
3 613 41 490
3 342 612 618
3 618 94 342
3 612 156 618
3 342 28 612
3 491 345 620
3 620 135 491
3 345 94 620
3 491 2 345
3 623 621 622
3 622 56 623
3 621 158 622
3 623 134 621
3 609 215 622
3 622 158 609
3 215 56 622
3 609 15 215
3 484 614 621
3 621 134 484
3 614 158 621
3 484 41 614
3 216 485 623
3 623 56 216
3 485 134 623
3 216 9 485
3 626 624 625
3 625 161 626
3 624 160 625
3 626 159 624
3 628 627 625
3 625 160 628
3 627 161 625
3 628 31 627
3 630 629 624
3 624 159 630
3 629 160 624
3 630 20 629
3 632 631 626
3 626 161 632
3 631 159 626
3 632 40 631
3 635 633 634
3 634 73 635
3 633 160 634
3 635 105 633
3 629 272 634
3 634 160 629
3 272 73 634
3 629 20 272
3 382 628 633
3 633 105 382
3 628 160 633
3 382 31 628
3 273 385 635
3 635 73 273
3 385 105 635
3 273 6 385
3 638 636 637
3 637 137 638
3 636 159 637
3 638 72 636
3 631 496 637
3 637 159 631
3 496 137 637
3 631 40 496
3 265 630 636
3 636 72 265
3 630 159 636
3 265 20 630
3 497 268 638
3 638 137 497
3 268 72 638
3 497 10 268
3 641 639 640
3 640 102 641
3 639 161 640
3 641 136 639
3 627 372 640
3 640 161 627
3 372 102 640
3 627 31 372
3 489 632 639
3 639 136 489
3 632 161 639
3 489 40 632
3 373 492 641
3 641 102 373
3 492 136 641
3 373 2 492
