# vtk DataFile Version 3.0
this file was written using fslvtkio
ASCII
DATASET POLYDATA
POINTS 642 float
97.862 125.417 88.1671
87.5194 126.565 87.5036
88.3483 120.906 86.572
97.8951 119.881 88.0749
97.8624 120.545 92.5208
94.6864 125.025 82.0598
88.1709 125.455 80.5734
91.5829 121.417 92.2466
93.7477 126.065 90.917
93.7155 116.17 90.939
91.8858 120.886 84.6307
92.0777 128.893 83.7354
92.5877 123.879 92.2189
96.5356 123.837 92.9424
94.8279 120.672 93.503
92.0494 117.353 92.9964
96.4954 116.839 92.9567
89.3864 128.633 80.8625
91.8335 125.537 79.9584
93.766 128.335 81.4635
89.8247 123.223 81.7515
93.0678 123.128 82.9123
100.185 118.557 90.0686
99.28 123.126 90.9343
99.2707 122.784 87.8244
96.0901 123.136 85.7161
96.266 125.762 84.8281
89.0414 124.247 90.4286
89.7636 120.705 89.967
86.8764 124.019 86.9622
86.6792 126.489 83.5555
87.5538 123.306 83.2691
95.144 127.858 85.875
96.438 126.014 90.1416
92.5982 127.764 87.4751
88.9478 128.121 84.8578
90.4424 126.37 89.5451
94.8722 120.369 86.6389
92.8347 118.485 88.105
96.9341 116.796 89.0302
89.3758 120.157 84.9097
90.0084 116.964 89.677
94.5972 123.747 92.8404
95.8114 122.485 94.0014
93.7693 122.615 93.7415
96.5094 120.429 93.5216
97.3715 122.387 93.2972
95.1484 125.016 92.1625
93.0654 124.947 91.5993
91.9827 122.822 92.5972
93.2064 121.314 93.0528
93.5651 119.361 93.2416
95.6397 118.753 93.6373
93.9089 117.034 93.9872
97.5113 118.568 92.7863
92.0936 119.671 92.3336
92.3676 115.897 92.3228
95.0018 116.273 92.2509
90.7357 127.135 80.6412
92.6933 126.969 80.6391
91.8039 129.024 80.6556
94.2679 126.491 81.5044
93.4286 125.31 80.7558
89.8392 125.583 80.0051
88.7799 126.829 80.885
90.8807 129.084 82.0555
93.1145 128.969 82.4372
91.4782 123.309 82.0924
92.5115 124.164 80.9686
90.6181 124.275 80.7239
93.8218 124.181 82.4627
92.3576 122.235 83.9248
90.7612 122.323 83.3396
88.8293 124.061 80.6858
100.432 121.085 90.6055
99.8102 122.91 89.2543
100.503 120.528 88.7725
99.1554 124.38 87.9202
98.8657 124.5 89.7495
98.7709 121.883 91.9655
99.2389 119.548 91.5705
99.5731 118.675 88.3378
98.6163 121.253 88.1115
97.6 123.066 87.0321
98.1073 124.299 86.4333
96.8279 124.168 84.8153
96.9665 125.565 86.5499
96.9274 121.653 87.2818
95.2722 124.141 83.9498
95.5712 125.487 83.1706
89.1339 122.553 90.214
88.2242 122.617 88.5568
87.8522 124.241 88.877
87.7411 122.538 86.7057
88.9692 120.962 88.366
90.7164 120.966 91.1832
90.248 122.687 91.544
88.0938 125.37 89.0345
86.851 125.416 87.2677
86.4262 125.289 85.3298
87.3439 123.878 85.0948
86.7272 125.055 83.3726
87.7792 122.207 85.0579
86.7992 126.551 85.6709
87.508 126.104 82.0015
87.2784 124.283 81.5252
95.8664 127.019 88.1173
94.6245 127.23 88.8589
93.9561 127.757 86.8458
93.2239 127.109 89.4206
95.1688 126.15 90.6772
97.3475 125.95 89.2784
96.2935 126.424 87.0721
93.7795 128.645 84.7486
92.2194 128.445 85.5713
90.6657 128.025 86.2153
91.3293 127.036 88.2621
89.686 127.261 87.2418
92.0992 126.445 90.3297
90.3362 128.682 84.0354
88.2214 127.254 86.1215
88.8781 126.52 88.6754
94.2029 119.137 87.291
94.7992 117.621 88.7577
96.1609 118.509 87.9834
95.2518 116.697 90.4504
93.2869 117.29 89.5287
92.387 119.596 86.2721
93.4076 120.706 85.7203
96.3694 120.179 87.5863
97.8441 118.072 88.2004
89.787 118.584 87.4268
91.4147 117.742 88.8155
91.0816 119.185 86.5661
91.7475 116.13 90.3471
88.7546 118.971 88.2927
88.0688 120.214 85.3075
90.6569 120.515 84.6599
98.0522 123.586 92.2007
96.6157 124.996 91.7347
98.1713 124.92 90.9091
95.2459 126.403 85.3601
94.4853 128.25 83.5524
94.8461 126.932 82.9474
96.9068 116.443 91.2566
98.976 117.308 91.8628
99.0505 117.061 89.4445
95.369 121.774 86.2859
94.5451 123.216 84.5121
93.735 121.986 85.0433
91.5266 125.265 91.0839
90.7724 124.06 91.6914
89.629 125.434 90.2496
87.5511 127.613 84.0537
87.7398 127.433 82.0191
88.8068 128.734 82.5903
89.6125 118.742 90.1275
90.9318 119.082 91.5864
91.1 116.886 91.6563
89.5907 122.158 83.5348
88.2379 123.058 82.0049
88.1967 121.537 83.7836
95.1295 123.16 93.5333
94.7729 122.541 93.8495
94.1339 123.292 93.5384
94.4067 121.708 93.8092
95.1993 121.648 93.7184
96.1273 123.205 93.5426
95.4931 123.654 92.9574
93.6221 123.719 92.5771
93.2292 123.311 93.0789
96.1155 121.513 93.7265
96.7292 122.503 93.8034
96.92 121.527 93.4159
97.0696 123.242 93.2516
95.7018 120.553 93.729
97.1149 120.505 92.9234
97.5872 121.433 92.8299
94.8737 124.266 92.4883
93.8415 124.319 92.3335
94.1542 124.849 91.9884
92.8962 124.46 92.0625
95.7723 124.246 92.4914
94.3894 125.489 91.5517
93.4741 125.451 91.2778
92.8909 122.767 93.224
93.4892 121.895 93.5829
92.5744 122.091 92.988
93.9938 121.028 93.4145
92.3851 123.354 92.4912
91.6311 122.194 92.5575
92.3659 121.412 92.5439
94.5774 119.239 93.5807
94.9224 117.888 93.8865
93.6865 118.105 93.7693
95.1853 116.976 93.596
95.8938 117.64 93.34
95.2625 119.661 93.7573
94.2495 119.974 93.3809
92.8148 118.501 92.903
92.8038 117.177 93.643
96.5509 118.482 93.2641
96.1145 119.488 93.674
96.881 119.407 93.1008
96.9849 117.581 92.9294
97.6232 119.591 92.5818
93.5183 120.474 93.1353
92.7235 119.616 92.9253
92.6994 120.649 92.5852
92.0134 118.644 92.6905
91.9419 120.629 92.1364
93.0923 116.257 93.4807
94.5052 116.411 93.1768
93.7905 115.942 92.4499
95.6531 116.447 92.7295
92.0785 116.479 93.0643
93.1469 115.71 91.5056
94.3548 116.104 91.5803
91.695 127.044 80.6803
92.0925 127.952 80.5797
91.0904 128.151 80.38
92.7977 128.661 80.9877
93.0759 127.659 80.9126
92.3352 126.355 80.2409
91.3618 126.454 80.3079
90.0465 128.133 80.4452
90.6371 129.104 80.5197
93.5581 126.887 81.0009
93.1648 126.098 80.5164
93.8987 125.976 81.0852
92.695 125.479 80.1899
93.9562 127.382 81.3359
94.4485 125.739 81.7849
93.9813 125.194 81.376
90.3896 126.416 80.4008
89.7859 127.051 80.5756
89.3924 126.347 80.5983
89.014 127.61 80.7519
90.8865 125.7 80.0261
89.0568 125.57 80.2501
88.5393 126.15 80.8074
91.3102 129.315 81.2125
92.5089 129.203 81.454
92.0774 129.093 82.1776
93.4329 128.91 81.8564
90.0955 129.096 81.3092
91.5552 129.014 82.9277
92.5953 128.93 83.1182
92.0159 123.619 81.4578
91.6222 124.169 80.683
91.0468 123.695 81.2571
91.2262 124.932 80.239
92.1968 124.698 80.2272
92.749 123.6 81.9131
92.2727 123.159 82.3736
90.6525 123.293 81.7669
90.1859 123.723 81.0788
92.9283 124.706 80.7055
93.1487 124.168 81.6285
93.636 124.606 81.3774
93.4554 123.667 82.6415
94.2972 124.587 82.1547
91.8827 122.778 82.8791
91.132 122.823 82.5936
91.5824 122.333 83.5163
90.3333 122.852 82.5263
92.6283 122.669 83.3261
92.0888 121.52 84.2574
91.3145 121.63 84.0531
89.7192 124.182 80.5924
90.2126 124.762 80.0077
89.2821 124.719 80.1705
89.3655 123.654 81.1386
88.3372 124.673 80.4418
100.254 121.974 89.9295
100.355 121.86 88.9504
100.991 120.753 89.7079
99.982 121.772 88.1895
99.842 122.823 88.473
99.5517 122.776 90.1023
99.8565 122.1 90.7683
100.65 119.757 90.3526
100.874 119.537 89.287
99.6536 123.651 88.6616
99.3979 123.669 89.5783
98.891 124.307 88.857
98.9815 123.725 90.3166
99.3815 123.603 87.8093
98.4653 124.77 88.1475
98.4456 124.945 88.9709
99.7331 121.417 91.3944
100.126 120.165 91.2043
99.1368 120.637 91.7846
99.986 118.897 90.9685
99.1447 122.399 91.3804
98.3279 121.228 92.3689
98.4916 120.057 92.0605
100.307 119.392 88.3997
99.6911 120.838 88.1829
99.3872 119.982 88.0122
98.9692 121.965 88.0445
100.05 118.7 89.2224
98.8091 119.276 87.9973
98.392 120.527 88.0929
97.9705 123.667 86.7244
97.5379 124.207 85.6285
97.1796 123.704 86.1238
96.8543 125.011 84.5328
97.4783 125.1 85.402
98.6312 123.638 87.3709
98.3958 122.832 87.5792
96.8777 123.217 86.3703
96.4436 123.814 85.4677
97.6641 125.173 86.4072
98.5684 124.274 87.2339
98.1 125.006 87.4058
96.6703 125.615 85.7109
97.4439 125.337 87.4424
98.1761 122.09 87.5641
97.2708 122.265 87.1484
97.7142 121.454 87.8
96.5268 122.396 86.4989
97.421 120.925 87.9241
96.0962 124.101 84.3591
96.2869 124.863 83.8778
95.7223 124.607 83.3849
96.0155 125.713 83.8058
95.6072 123.83 84.997
95.0015 124.599 82.9529
95.1579 125.272 82.5018
88.7158 122.644 89.3466
87.9633 123.304 88.6975
88.4222 123.331 89.5918
87.2945 124.018 87.9978
87.5154 123.283 87.8217
88.927 121.651 89.2656
89.3815 121.648 90.0621
89.0828 123.388 90.2393
88.392 124.238 89.7328
87.9204 122.638 87.622
88.5068 121.772 88.5212
88.2618 121.815 87.5571
89.2438 120.878 89.3101
87.2038 123.252 86.8436
88.1488 121.804 86.6512
88.4372 120.978 87.4672
89.8436 121.764 90.6944
89.5222 122.659 90.9157
90.4973 121.931 91.285
89.6177 123.293 91.033
90.2043 120.834 90.5453
91.2617 121.246 91.6603
90.9565 122.06 91.9695
87.8531 124.891 89.1091
87.282 124.825 88.1536
87.5553 125.368 88.212
86.8403 124.813 87.1312
88.4006 124.982 89.866
87.8966 125.948 88.2544
87.278 125.922 87.3624
86.5752 124.448 85.2724
86.992 124.367 84.2412
86.43 125.106 84.3483
87.3047 124.204 83.3182
87.5914 123.656 84.141
86.8275 123.952 86.0803
86.5251 124.709 86.2104
86.1891 125.873 84.3753
86.6765 125.791 83.5586
87.6297 123.025 84.9554
87.3598 123.15 85.9307
87.6722 122.314 85.7941
87.6349 122.915 84.1409
88.1061 121.551 85.7852
86.4172 125.36 86.3375
86.32 125.967 85.4868
86.6273 126.03 86.5716
86.5546 126.478 84.5757
86.9943 126.612 86.6789
86.9723 125.531 82.6294
87.0271 124.688 82.4283
87.1608 125.223 81.6384
87.2853 123.907 82.4288
87.0599 126.27 82.7954
87.8196 125.729 81.2157
87.5117 124.877 80.798
95.2521 127.146 88.4918
94.3161 127.55 87.8525
94.8988 127.446 87.4582
93.3697 127.905 87.1943
93.6549 127.543 88.1689
95.558 126.784 89.5854
96.1533 126.647 89.1931
95.4026 127.406 87.0675
94.6454 127.8 86.4517
93.9501 127.206 89.1364
94.9065 126.749 89.8703
94.2294 126.73 90.0706
95.7898 126.105 90.4053
92.9431 127.349 88.3833
93.4925 126.772 90.3046
94.4408 126.053 90.8423
96.5406 126.397 88.7439
96.1582 126.798 87.5903
96.8046 126.15 88.1716
95.731 127.176 86.5872
96.9037 126.027 89.727
97.5896 125.685 88.7103
97.0395 125.857 87.5742
93.83 128.159 85.8433
93.2329 128.155 86.2073
93.1242 128.532 85.2485
92.4198 128.12 86.5422
94.5105 128.277 85.2737
92.9337 128.851 84.1638
92.0711 128.691 84.5885
91.034 127.519 87.1829
90.5459 127.233 87.797
90.145 127.647 86.7038
90.0587 126.902 88.4473
90.8365 126.671 88.8702
91.9646 127.426 87.7903
91.5724 127.91 86.8171
89.7742 128.131 85.5926
89.4194 127.685 86.0809
91.6208 126.699 89.3029
92.2818 127.063 88.7294
92.6792 126.774 89.8456
91.1945 126.316 89.8976
92.998 126.196 90.6678
91.407 128.254 85.8804
90.4865 128.47 85.1707
91.2558 128.611 84.8524
89.6078 128.414 84.4412
91.1535 128.823 83.8313
88.9533 127.336 86.6143
89.2562 127.076 88.0233
88.4911 127.129 87.4984
89.6602 126.532 89.0885
88.7074 127.502 85.4071
87.7156 127.074 86.9392
88.1721 126.578 88.1797
94.5206 118.508 88.0686
95.641 117.993 88.3543
95.1919 118.883 87.7011
96.6053 117.644 88.5818
95.8431 117.29 88.907
93.8288 118.121 88.4463
93.5771 118.798 87.6972
94.6933 119.497 86.9383
95.5319 119.338 87.3253
95.1164 117.063 89.3838
94.0826 117.639 89.2286
94.2992 116.953 89.9679
93.0257 117.851 88.6598
96.0001 116.621 89.696
94.6244 116.425 90.7381
93.4841 116.667 90.2551
93.314 119.214 86.6805
93.8582 119.846 86.5278
93.0185 120.042 86.0195
94.2002 120.506 86.2799
92.6466 119.052 87.1991
92.1322 120.278 85.5003
92.5978 120.701 85.067
96.3639 119.25 87.6347
96.9674 118.208 88.1989
97.1841 119.012 87.9123
97.4945 117.407 88.571
95.5787 120.196 87.0852
97.1018 120.076 87.9029
98.0393 118.967 88.1154
90.6362 118.245 88.2008
91.3392 118.684 87.7223
90.4244 118.86 86.7881
92.026 118.881 87.5335
92.0374 118.134 88.3145
90.7064 117.344 89.1552
89.8514 117.749 88.6326
89.6291 119.439 86.2262
90.2143 119.667 85.8916
92.3262 117.455 88.9615
91.5278 116.955 89.5972
92.5131 116.661 89.923
90.9485 116.592 90.0306
92.7503 115.966 90.7339
89.1019 118.615 87.727
88.9575 119.308 86.2966
88.4155 119.61 86.8039
88.7347 120.046 85.0932
89.4624 117.873 89.0428
88.4113 119.906 87.4235
88.1349 120.567 85.9502
90.839 119.828 85.6211
91.7663 119.425 86.5262
91.5295 120.119 85.5777
90.0084 120.349 84.8016
91.2569 120.742 84.6651
97.298 124.242 91.9819
97.3912 124.958 91.3629
98.0648 124.221 91.4932
97.3423 125.479 90.6233
96.6763 125.563 90.999
96.549 124.275 92.3179
97.4227 123.773 92.7519
98.6996 123.418 91.5723
98.7412 124.08 90.9815
95.9352 125.611 91.2602
95.9069 125.02 92.0964
95.1409 125.623 91.4703
97.8709 123.069 92.9389
98.5206 122.837 92.1243
98.0433 122.139 92.5839
98.6142 124.794 90.4022
97.895 125.639 90.2378
98.2533 125.405 89.608
94.9727 127.481 84.4466
94.6655 127.664 83.1906
95.1004 126.797 84.1728
94.4134 127.644 82.0351
94.2053 128.395 82.3832
94.8217 128.024 84.7505
95.3573 127.279 85.5291
95.6668 126.248 85.1079
95.5517 126.391 83.9008
93.9293 128.7 82.9208
94.3048 128.53 84.1415
93.4535 128.798 83.5853
95.7672 126.443 86.2275
95.9802 125.931 85.9539
96.5813 125.869 86.8004
95.2271 126.241 83.0671
94.7415 126.816 81.9718
94.9016 125.989 82.3094
98.2318 116.496 91.6897
99.2686 116.959 90.7083
98.3268 116.426 90.4198
99.7081 117.657 89.7335
99.7868 117.78 90.8803
97.8213 116.963 92.4763
96.7975 116.511 92.2121
96.9782 116.504 90.1125
98.0153 116.841 89.2419
99.1893 118.285 91.7532
98.28 117.897 92.6413
98.3162 119.142 92.1962
95.9104 116.277 91.8033
95.942 116.596 90.8218
95.1462 116.403 91.2715
98.3517 117.546 88.7598
99.2601 117.882 88.9035
98.6012 118.327 88.2243
94.9221 122.512 85.4505
94.0859 122.655 84.8129
94.5524 121.773 85.5845
93.2867 122.648 84.0534
93.7736 123.121 83.6973
95.2325 123.276 85.2767
95.6925 122.465 86.0169
95.0687 121.135 86.4419
94.357 121.15 85.8355
94.0445 123.664 83.6023
94.8788 123.741 84.2933
94.4882 124.161 83.3165
96.143 121.701 86.7228
95.8171 121.024 86.9543
96.6514 120.934 87.3519
93.6898 121.239 85.2789
92.9884 122.148 84.5707
92.8268 121.375 84.7513
91.1231 124.689 91.4636
90.1179 124.843 91.1095
90.618 125.283 90.607
89.3097 124.975 90.4429
89.7898 124.093 91.3244
91.7849 124.007 91.939
92.0471 124.638 91.8312
90.9192 125.768 90.4148
90.0513 125.879 89.9428
90.4178 123.372 91.6629
91.4504 123.356 91.9804
91.0955 122.749 92.0944
92.2966 125.151 91.4103
91.7791 125.889 90.675
92.6404 125.696 90.9829
89.239 125.905 89.4108
88.8484 125.376 89.7502
88.5882 125.747 88.7876
87.5512 127.523 82.961
88.1338 128.124 82.1655
88.0788 128.086 83.2824
88.986 128.63 81.6411
88.4944 127.95 81.3324
87.2999 126.786 82.7655
87.099 127.049 83.7552
88.2543 127.891 84.3766
88.8589 128.344 83.7126
88.219 127.217 81.3055
87.5789 126.762 81.9911
88.1141 126.424 81.3405
87.0698 126.994 84.7626
87.935 127.319 85.0748
87.2972 127.009 86.0507
89.6296 128.747 83.2886
89.7357 129.047 82.0998
90.599 128.983 82.9562
90.0055 118.908 91.038
90.6973 117.857 91.875
90.1576 117.77 91.0113
91.468 116.983 92.4349
91.352 118.236 92.4273
90.3177 119.826 90.793
89.6031 119.802 90.145
89.714 117.784 89.8862
90.5172 116.819 90.7705
91.4572 119.337 92.0054
90.9626 120.008 91.1642
91.505 120.3 91.716
89.0694 120.019 89.3234
89.0971 118.924 89.1797
88.7642 120.162 88.3292
91.2465 116.469 90.9474
91.674 116.328 92.2127
92.2692 116.018 91.1894
88.9786 122.718 82.8915
88.2248 122.396 82.9503
88.9258 121.843 83.6655
87.6712 122.423 83.406
87.6561 123.078 82.4059
89.045 123.159 81.8441
89.6555 122.903 82.7387
89.4495 121.03 84.2054
88.737 120.763 84.2332
87.6867 123.586 81.6131
88.4598 123.43 81.0907
87.8831 124.04 80.9076
90.158 122.406 83.3761
90.1828 121.262 83.9941
90.7227 121.477 83.9936
88.1621 120.909 84.5628
87.8718 121.927 84.3296
87.8762 121.233 85.0982
POLYGONS 1280  5120
3 164 162 163
3 163 44 164
3 162 43 163
3 164 42 162
3 166 165 163
3 163 43 166
3 165 44 163
3 166 14 165
3 168 167 162
3 162 42 168
3 167 43 162
3 168 13 167
3 170 169 164
3 164 44 170
3 169 42 164
3 170 12 169
3 173 171 172
3 172 46 173
3 171 43 172
3 173 45 171
3 167 174 172
3 172 43 167
3 174 46 172
3 167 13 174
3 175 166 171
3 171 45 175
3 166 43 171
3 175 14 166
3 177 176 173
3 173 46 177
3 176 45 173
3 177 4 176
3 180 178 179
3 179 48 180
3 178 42 179
3 180 47 178
3 169 181 179
3 179 42 169
3 181 48 179
3 169 12 181
3 182 168 178
3 178 47 182
3 168 42 178
3 182 13 168
3 184 183 180
3 180 48 184
3 183 47 180
3 184 8 183
3 187 185 186
3 186 50 187
3 185 44 186
3 187 49 185
3 165 188 186
3 186 44 165
3 188 50 186
3 165 14 188
3 189 170 185
3 185 49 189
3 170 44 185
3 189 12 170
3 191 190 187
3 187 50 191
3 190 49 187
3 191 7 190
3 194 192 193
3 193 53 194
3 192 52 193
3 194 51 192
3 196 195 193
3 193 52 196
3 195 53 193
3 196 16 195
3 198 197 192
3 192 51 198
3 197 52 192
3 198 14 197
3 200 199 194
3 194 53 200
3 199 51 194
3 200 15 199
3 203 201 202
3 202 45 203
3 201 52 202
3 203 54 201
3 197 175 202
3 202 52 197
3 175 45 202
3 197 14 175
3 204 196 201
3 201 54 204
3 196 52 201
3 204 16 196
3 176 205 203
3 203 45 176
3 205 54 203
3 176 4 205
3 208 206 207
3 207 55 208
3 206 51 207
3 208 50 206
3 199 209 207
3 207 51 199
3 209 55 207
3 199 15 209
3 188 198 206
3 206 50 188
3 198 51 206
3 188 14 198
3 210 191 208
3 208 55 210
3 191 50 208
3 210 7 191
3 213 211 212
3 212 57 213
3 211 53 212
3 213 56 211
3 195 214 212
3 212 53 195
3 214 57 212
3 195 16 214
3 215 200 211
3 211 56 215
3 200 53 211
3 215 15 200
3 217 216 213
3 213 57 217
3 216 56 213
3 217 9 216
3 220 218 219
3 219 60 220
3 218 59 219
3 220 58 218
3 222 221 219
3 219 59 222
3 221 60 219
3 222 19 221
3 224 223 218
3 218 58 224
3 223 59 218
3 224 18 223
3 226 225 220
3 220 60 226
3 225 58 220
3 226 17 225
3 229 227 228
3 228 62 229
3 227 59 228
3 229 61 227
3 223 230 228
3 228 59 223
3 230 62 228
3 223 18 230
3 231 222 227
3 227 61 231
3 222 59 227
3 231 19 222
3 233 232 229
3 229 62 233
3 232 61 229
3 233 5 232
3 236 234 235
3 235 64 236
3 234 58 235
3 236 63 234
3 225 237 235
3 235 58 225
3 237 64 235
3 225 17 237
3 238 224 234
3 234 63 238
3 224 58 234
3 238 18 224
3 240 239 236
3 236 64 240
3 239 63 236
3 240 6 239
3 243 241 242
3 242 66 243
3 241 60 242
3 243 65 241
3 221 244 242
3 242 60 221
3 244 66 242
3 221 19 244
3 245 226 241
3 241 65 245
3 226 60 241
3 245 17 226
3 247 246 243
3 243 66 247
3 246 65 243
3 247 11 246
3 250 248 249
3 249 69 250
3 248 68 249
3 250 67 248
3 252 251 249
3 249 68 252
3 251 69 249
3 252 18 251
3 254 253 248
3 248 67 254
3 253 68 248
3 254 21 253
3 256 255 250
3 250 69 256
3 255 67 250
3 256 20 255
3 259 257 258
3 258 70 259
3 257 68 258
3 259 62 257
3 253 260 258
3 258 68 253
3 260 70 258
3 253 21 260
3 230 252 257
3 257 62 230
3 252 68 257
3 230 18 252
3 261 233 259
3 259 70 261
3 233 62 259
3 261 5 233
3 264 262 263
3 263 72 264
3 262 67 263
3 264 71 262
3 255 265 263
3 263 67 255
3 265 72 263
3 255 20 265
3 266 254 262
3 262 71 266
3 254 67 262
3 266 21 254
3 268 267 264
3 264 72 268
3 267 71 264
3 268 10 267
3 271 269 270
3 270 63 271
3 269 69 270
3 271 73 269
3 251 238 270
3 270 69 251
3 238 63 270
3 251 18 238
3 272 256 269
3 269 73 272
3 256 69 269
3 272 20 256
3 239 273 271
3 271 63 239
3 273 73 271
3 239 6 273
3 276 274 275
3 275 76 276
3 274 75 275
3 276 74 274
3 278 277 275
3 275 75 278
3 277 76 275
3 278 24 277
3 280 279 274
3 274 74 280
3 279 75 274
3 280 23 279
3 282 281 276
3 276 76 282
3 281 74 276
3 282 22 281
3 285 283 284
3 284 78 285
3 283 75 284
3 285 77 283
3 279 286 284
3 284 75 279
3 286 78 284
3 279 23 286
3 287 278 283
3 283 77 287
3 278 75 283
3 287 24 278
3 289 288 285
3 285 78 289
3 288 77 285
3 289 0 288
3 292 290 291
3 291 80 292
3 290 74 291
3 292 79 290
3 281 293 291
3 291 74 281
3 293 80 291
3 281 22 293
3 294 280 290
3 290 79 294
3 280 74 290
3 294 23 280
3 296 295 292
3 292 80 296
3 295 79 292
3 296 4 295
3 299 297 298
3 298 82 299
3 297 76 298
3 299 81 297
3 277 300 298
3 298 76 277
3 300 82 298
3 277 24 300
3 301 282 297
3 297 81 301
3 282 76 297
3 301 22 282
3 303 302 299
3 299 82 303
3 302 81 299
3 303 3 302
3 306 304 305
3 305 85 306
3 304 84 305
3 306 83 304
3 308 307 305
3 305 84 308
3 307 85 305
3 308 26 307
3 310 309 304
3 304 83 310
3 309 84 304
3 310 24 309
3 312 311 306
3 306 85 312
3 311 83 306
3 312 25 311
3 315 313 314
3 314 77 315
3 313 84 314
3 315 86 313
3 309 287 314
3 314 84 309
3 287 77 314
3 309 24 287
3 316 308 313
3 313 86 316
3 308 84 313
3 316 26 308
3 288 317 315
3 315 77 288
3 317 86 315
3 288 0 317
3 320 318 319
3 319 87 320
3 318 83 319
3 320 82 318
3 311 321 319
3 319 83 311
3 321 87 319
3 311 25 321
3 300 310 318
3 318 82 300
3 310 83 318
3 300 24 310
3 322 303 320
3 320 87 322
3 303 82 320
3 322 3 303
3 325 323 324
3 324 89 325
3 323 85 324
3 325 88 323
3 307 326 324
3 324 85 307
3 326 89 324
3 307 26 326
3 327 312 323
3 323 88 327
3 312 85 323
3 327 25 312
3 329 328 325
3 325 89 329
3 328 88 325
3 329 5 328
3 332 330 331
3 331 92 332
3 330 91 331
3 332 90 330
3 334 333 331
3 331 91 334
3 333 92 331
3 334 29 333
3 336 335 330
3 330 90 336
3 335 91 330
3 336 28 335
3 338 337 332
3 332 92 338
3 337 90 332
3 338 27 337
3 341 339 340
3 340 94 341
3 339 91 340
3 341 93 339
3 335 342 340
3 340 91 335
3 342 94 340
3 335 28 342
3 343 334 339
3 339 93 343
3 334 91 339
3 343 29 334
3 345 344 341
3 341 94 345
3 344 93 341
3 345 2 344
3 348 346 347
3 347 96 348
3 346 90 347
3 348 95 346
3 337 349 347
3 347 90 337
3 349 96 347
3 337 27 349
3 350 336 346
3 346 95 350
3 336 90 346
3 350 28 336
3 352 351 348
3 348 96 352
3 351 95 348
3 352 7 351
3 355 353 354
3 354 98 355
3 353 92 354
3 355 97 353
3 333 356 354
3 354 92 333
3 356 98 354
3 333 29 356
3 357 338 353
3 353 97 357
3 338 92 353
3 357 27 338
3 359 358 355
3 355 98 359
3 358 97 355
3 359 1 358
3 362 360 361
3 361 101 362
3 360 100 361
3 362 99 360
3 364 363 361
3 361 100 364
3 363 101 361
3 364 31 363
3 366 365 360
3 360 99 366
3 365 100 360
3 366 29 365
3 368 367 362
3 362 101 368
3 367 99 362
3 368 30 367
3 371 369 370
3 370 93 371
3 369 100 370
3 371 102 369
3 365 343 370
3 370 100 365
3 343 93 370
3 365 29 343
3 372 364 369
3 369 102 372
3 364 100 369
3 372 31 364
3 344 373 371
3 371 93 344
3 373 102 371
3 344 2 373
3 376 374 375
3 375 103 376
3 374 99 375
3 376 98 374
3 367 377 375
3 375 99 367
3 377 103 375
3 367 30 377
3 356 366 374
3 374 98 356
3 366 99 374
3 356 29 366
3 378 359 376
3 376 103 378
3 359 98 376
3 378 1 359
3 381 379 380
3 380 105 381
3 379 101 380
3 381 104 379
3 363 382 380
3 380 101 363
3 382 105 380
3 363 31 382
3 383 368 379
3 379 104 383
3 368 101 379
3 383 30 368
3 385 384 381
3 381 105 385
3 384 104 381
3 385 6 384
3 388 386 387
3 387 108 388
3 386 107 387
3 388 106 386
3 390 389 387
3 387 107 390
3 389 108 387
3 390 34 389
3 392 391 386
3 386 106 392
3 391 107 386
3 392 33 391
3 394 393 388
3 388 108 394
3 393 106 388
3 394 32 393
3 397 395 396
3 396 110 397
3 395 107 396
3 397 109 395
3 391 398 396
3 396 107 391
3 398 110 396
3 391 33 398
3 399 390 395
3 395 109 399
3 390 107 395
3 399 34 390
3 401 400 397
3 397 110 401
3 400 109 397
3 401 8 400
3 404 402 403
3 403 112 404
3 402 106 403
3 404 111 402
3 393 405 403
3 403 106 393
3 405 112 403
3 393 32 405
3 406 392 402
3 402 111 406
3 392 106 402
3 406 33 392
3 408 407 404
3 404 112 408
3 407 111 404
3 408 0 407
3 411 409 410
3 410 114 411
3 409 108 410
3 411 113 409
3 389 412 410
3 410 108 389
3 412 114 410
3 389 34 412
3 413 394 409
3 409 113 413
3 394 108 409
3 413 32 394
3 415 414 411
3 411 114 415
3 414 113 411
3 415 11 414
3 418 416 417
3 417 117 418
3 416 116 417
3 418 115 416
3 420 419 417
3 417 116 420
3 419 117 417
3 420 36 419
3 422 421 416
3 416 115 422
3 421 116 416
3 422 34 421
3 424 423 418
3 418 117 424
3 423 115 418
3 424 35 423
3 427 425 426
3 426 109 427
3 425 116 426
3 427 118 425
3 421 399 426
3 426 116 421
3 399 109 426
3 421 34 399
3 428 420 425
3 425 118 428
3 420 116 425
3 428 36 420
3 400 429 427
3 427 109 400
3 429 118 427
3 400 8 429
3 432 430 431
3 431 119 432
3 430 115 431
3 432 114 430
3 423 433 431
3 431 115 423
3 433 119 431
3 423 35 433
3 412 422 430
3 430 114 412
3 422 115 430
3 412 34 422
3 434 415 432
3 432 119 434
3 415 114 432
3 434 11 415
3 437 435 436
3 436 121 437
3 435 117 436
3 437 120 435
3 419 438 436
3 436 117 419
3 438 121 436
3 419 36 438
3 439 424 435
3 435 120 439
3 424 117 435
3 439 35 424
3 441 440 437
3 437 121 441
3 440 120 437
3 441 1 440
3 444 442 443
3 443 124 444
3 442 123 443
3 444 122 442
3 446 445 443
3 443 123 446
3 445 124 443
3 446 39 445
3 448 447 442
3 442 122 448
3 447 123 442
3 448 38 447
3 450 449 444
3 444 124 450
3 449 122 444
3 450 37 449
3 453 451 452
3 452 126 453
3 451 123 452
3 453 125 451
3 447 454 452
3 452 123 447
3 454 126 452
3 447 38 454
3 455 446 451
3 451 125 455
3 446 123 451
3 455 39 446
3 457 456 453
3 453 126 457
3 456 125 453
3 457 9 456
3 460 458 459
3 459 128 460
3 458 122 459
3 460 127 458
3 449 461 459
3 459 122 449
3 461 128 459
3 449 37 461
3 462 448 458
3 458 127 462
3 448 122 458
3 462 38 448
3 464 463 460
3 460 128 464
3 463 127 460
3 464 10 463
3 467 465 466
3 466 130 467
3 465 124 466
3 467 129 465
3 445 468 466
3 466 124 445
3 468 130 466
3 445 39 468
3 469 450 465
3 465 129 469
3 450 124 465
3 469 37 450
3 471 470 467
3 467 130 471
3 470 129 467
3 471 3 470
3 474 472 473
3 473 133 474
3 472 132 473
3 474 131 472
3 476 475 473
3 473 132 476
3 475 133 473
3 476 38 475
3 478 477 472
3 472 131 478
3 477 132 472
3 478 41 477
3 480 479 474
3 474 133 480
3 479 131 474
3 480 40 479
3 483 481 482
3 482 134 483
3 481 132 482
3 483 126 481
3 477 484 482
3 482 132 477
3 484 134 482
3 477 41 484
3 454 476 481
3 481 126 454
3 476 132 481
3 454 38 476
3 485 457 483
3 483 134 485
3 457 126 483
3 485 9 457
3 488 486 487
3 487 136 488
3 486 131 487
3 488 135 486
3 479 489 487
3 487 131 479
3 489 136 487
3 479 40 489
3 490 478 486
3 486 135 490
3 478 131 486
3 490 41 478
3 492 491 488
3 488 136 492
3 491 135 488
3 492 2 491
3 495 493 494
3 494 127 495
3 493 133 494
3 495 137 493
3 475 462 494
3 494 133 475
3 462 127 494
3 475 38 462
3 496 480 493
3 493 137 496
3 480 133 493
3 496 40 480
3 463 497 495
3 495 127 463
3 497 137 495
3 463 10 497
3 500 498 499
3 499 140 500
3 498 139 499
3 500 138 498
3 502 501 499
3 499 139 502
3 501 140 499
3 502 33 501
3 504 503 498
3 498 138 504
3 503 139 498
3 504 13 503
3 506 505 500
3 500 140 506
3 505 138 500
3 506 23 505
3 509 507 508
3 508 47 509
3 507 139 508
3 509 110 507
3 503 182 508
3 508 139 503
3 182 47 508
3 503 13 182
3 398 502 507
3 507 110 398
3 502 139 507
3 398 33 502
3 183 401 509
3 509 47 183
3 401 110 509
3 183 8 401
3 512 510 511
3 511 79 512
3 510 138 511
3 512 46 510
3 505 294 511
3 511 138 505
3 294 79 511
3 505 23 294
3 174 504 510
3 510 46 174
3 504 138 510
3 174 13 504
3 295 177 512
3 512 79 295
3 177 46 512
3 295 4 177
3 515 513 514
3 514 111 515
3 513 140 514
3 515 78 513
3 501 406 514
3 514 140 501
3 406 111 514
3 501 33 406
3 286 506 513
3 513 78 286
3 506 140 513
3 286 23 506
3 407 289 515
3 515 111 407
3 289 78 515
3 407 0 289
3 518 516 517
3 517 143 518
3 516 142 517
3 518 141 516
3 520 519 517
3 517 142 520
3 519 143 517
3 520 19 519
3 522 521 516
3 516 141 522
3 521 142 516
3 522 32 521
3 524 523 518
3 518 143 524
3 523 141 518
3 524 26 523
3 527 525 526
3 526 113 527
3 525 142 526
3 527 66 525
3 521 413 526
3 526 142 521
3 413 113 526
3 521 32 413
3 244 520 525
3 525 66 244
3 520 142 525
3 244 19 520
3 414 247 527
3 527 113 414
3 247 66 527
3 414 11 247
3 530 528 529
3 529 86 530
3 528 141 529
3 530 112 528
3 523 316 529
3 529 141 523
3 316 86 529
3 523 26 316
3 405 522 528
3 528 112 405
3 522 141 528
3 405 32 522
3 317 408 530
3 530 86 317
3 408 112 530
3 317 0 408
3 533 531 532
3 532 61 533
3 531 143 532
3 533 89 531
3 519 231 532
3 532 143 519
3 231 61 532
3 519 19 231
3 326 524 531
3 531 89 326
3 524 143 531
3 326 26 524
3 232 329 533
3 533 61 232
3 329 89 533
3 232 5 329
3 536 534 535
3 535 146 536
3 534 145 535
3 536 144 534
3 538 537 535
3 535 145 538
3 537 146 535
3 538 22 537
3 540 539 534
3 534 144 540
3 539 145 534
3 540 16 539
3 542 541 536
3 536 146 542
3 541 144 536
3 542 39 541
3 545 543 544
3 544 54 545
3 543 145 544
3 545 80 543
3 539 204 544
3 544 145 539
3 204 54 544
3 539 16 204
3 293 538 543
3 543 80 293
3 538 145 543
3 293 22 538
3 205 296 545
3 545 54 205
3 296 80 545
3 205 4 296
3 548 546 547
3 547 125 548
3 546 144 547
3 548 57 546
3 541 455 547
3 547 144 541
3 455 125 547
3 541 39 455
3 214 540 546
3 546 57 214
3 540 144 546
3 214 16 540
3 456 217 548
3 548 125 456
3 217 57 548
3 456 9 217
3 551 549 550
3 550 81 551
3 549 146 550
3 551 130 549
3 537 301 550
3 550 146 537
3 301 81 550
3 537 22 301
3 468 542 549
3 549 130 468
3 542 146 549
3 468 39 542
3 302 471 551
3 551 81 302
3 471 130 551
3 302 3 471
3 554 552 553
3 553 149 554
3 552 148 553
3 554 147 552
3 556 555 553
3 553 148 556
3 555 149 553
3 556 21 555
3 558 557 552
3 552 147 558
3 557 148 552
3 558 25 557
3 560 559 554
3 554 149 560
3 559 147 554
3 560 37 559
3 563 561 562
3 562 88 563
3 561 148 562
3 563 70 561
3 557 327 562
3 562 148 557
3 327 88 562
3 557 25 327
3 260 556 561
3 561 70 260
3 556 148 561
3 260 21 556
3 328 261 563
3 563 88 328
3 261 70 563
3 328 5 261
3 566 564 565
3 565 129 566
3 564 147 565
3 566 87 564
3 559 469 565
3 565 147 559
3 469 129 565
3 559 37 469
3 321 558 564
3 564 87 321
3 558 147 564
3 321 25 558
3 470 322 566
3 566 129 470
3 322 87 566
3 470 3 322
3 569 567 568
3 568 71 569
3 567 149 568
3 569 128 567
3 555 266 568
3 568 149 555
3 266 71 568
3 555 21 266
3 461 560 567
3 567 128 461
3 560 149 567
3 461 37 560
3 267 464 569
3 569 71 267
3 464 128 569
3 267 10 464
3 572 570 571
3 571 152 572
3 570 151 571
3 572 150 570
3 574 573 571
3 571 151 574
3 573 152 571
3 574 27 573
3 576 575 570
3 570 150 576
3 575 151 570
3 576 12 575
3 578 577 572
3 572 152 578
3 577 150 572
3 578 36 577
3 581 579 580
3 580 49 581
3 579 151 580
3 581 96 579
3 575 189 580
3 580 151 575
3 189 49 580
3 575 12 189
3 349 574 579
3 579 96 349
3 574 151 579
3 349 27 574
3 190 352 581
3 581 49 190
3 352 96 581
3 190 7 352
3 584 582 583
3 583 118 584
3 582 150 583
3 584 48 582
3 577 428 583
3 583 150 577
3 428 118 583
3 577 36 428
3 181 576 582
3 582 48 181
3 576 150 582
3 181 12 576
3 429 184 584
3 584 118 429
3 184 48 584
3 429 8 184
3 587 585 586
3 586 97 587
3 585 152 586
3 587 121 585
3 573 357 586
3 586 152 573
3 357 97 586
3 573 27 357
3 438 578 585
3 585 121 438
3 578 152 585
3 438 36 578
3 358 441 587
3 587 97 358
3 441 121 587
3 358 1 441
3 590 588 589
3 589 155 590
3 588 154 589
3 590 153 588
3 592 591 589
3 589 154 592
3 591 155 589
3 592 17 591
3 594 593 588
3 588 153 594
3 593 154 588
3 594 30 593
3 596 595 590
3 590 155 596
3 595 153 590
3 596 35 595
3 599 597 598
3 598 104 599
3 597 154 598
3 599 64 597
3 593 383 598
3 598 154 593
3 383 104 598
3 593 30 383
3 237 592 597
3 597 64 237
3 592 154 597
3 237 17 592
3 384 240 599
3 599 104 384
3 240 64 599
3 384 6 240
3 602 600 601
3 601 120 602
3 600 153 601
3 602 103 600
3 595 439 601
3 601 153 595
3 439 120 601
3 595 35 439
3 377 594 600
3 600 103 377
3 594 153 600
3 377 30 594
3 440 378 602
3 602 120 440
3 378 103 602
3 440 1 378
3 605 603 604
3 604 65 605
3 603 155 604
3 605 119 603
3 591 245 604
3 604 155 591
3 245 65 604
3 591 17 245
3 433 596 603
3 603 119 433
3 596 155 603
3 433 35 596
3 246 434 605
3 605 65 246
3 434 119 605
3 246 11 434
3 608 606 607
3 607 158 608
3 606 157 607
3 608 156 606
3 610 609 607
3 607 157 610
3 609 158 607
3 610 15 609
3 612 611 606
3 606 156 612
3 611 157 606
3 612 28 611
3 614 613 608
3 608 158 614
3 613 156 608
3 614 41 613
3 617 615 616
3 616 95 617
3 615 157 616
3 617 55 615
3 611 350 616
3 616 157 611
3 350 95 616
3 611 28 350
3 209 610 615
3 615 55 209
3 610 157 615
3 209 15 610
3 351 210 617
3 617 95 351
3 210 55 617
3 351 7 210
3 620 618 619
3 619 135 620
3 618 156 619
3 620 94 618
3 613 490 619
3 619 156 613
3 490 135 619
3 613 41 490
3 342 612 618
3 618 94 342
3 612 156 618
3 342 28 612
3 491 345 620
3 620 135 491
3 345 94 620
3 491 2 345
3 623 621 622
3 622 56 623
3 621 158 622
3 623 134 621
3 609 215 622
3 622 158 609
3 215 56 622
3 609 15 215
3 484 614 621
3 621 134 484
3 614 158 621
3 484 41 614
3 216 485 623
3 623 56 216
3 485 134 623
3 216 9 485
3 626 624 625
3 625 161 626
3 624 160 625
3 626 159 624
3 628 627 625
3 625 160 628
3 627 161 625
3 628 31 627
3 630 629 624
3 624 159 630
3 629 160 624
3 630 20 629
3 632 631 626
3 626 161 632
3 631 159 626
3 632 40 631
3 635 633 634
3 634 73 635
3 633 160 634
3 635 105 633
3 629 272 634
3 634 160 629
3 272 73 634
3 629 20 272
3 382 628 633
3 633 105 382
3 628 160 633
3 382 31 628
3 273 385 635
3 635 73 273
3 385 105 635
3 273 6 385
3 638 636 637
3 637 137 638
3 636 159 637
3 638 72 636
3 631 496 637
3 637 159 631
3 496 137 637
3 631 40 496
3 265 630 636
3 636 72 265
3 630 159 636
3 265 20 630
3 497 268 638
3 638 137 497
3 268 72 638
3 497 10 268
3 641 639 640
3 640 102 641
3 639 161 640
3 641 136 639
3 627 372 640
3 640 161 627
3 372 102 640
3 627 31 372
3 489 632 639
3 639 136 489
3 632 161 639
3 489 40 632
3 373 492 641
3 641 102 373
3 492 136 641
3 373 2 492
