# vtk DataFile Version 3.0
this file was written using fslvtkio
ASCII
DATASET POLYDATA
POINTS 642 float
141.327 130.563 92.1844
127.692 127.155 91.2344
128.578 121.845 89.7529
140.399 124.854 89.6619
137.167 123.957 94.9175
139.96 129.23 84.0007
131.353 127.183 84.9514
129.734 121.396 95.4505
133.722 127.793 94.8304
134.577 119.498 91.9584
135.369 124.518 87.5947
134.66 130.275 88.399
131.009 124.855 96.2906
135.506 125.974 95.2822
133.767 122.038 96.497
131.82 118.431 94.4702
136.498 120.73 94.2785
132.867 129.672 85.6462
135.439 128.473 83.288
137.631 131.124 85.2383
133.655 125.939 85.9425
137.943 126.248 84.7044
139.356 124.261 92.4679
139.697 127.151 93.9373
142.211 127.905 90.5631
141.347 127.027 86.5317
141.668 131.063 87.4971
127.59 124.107 93.8605
127.484 119.938 92.3312
126.577 124.295 89.7439
128.633 127.755 87.5946
129.69 125.162 87.7149
138.305 131.099 90.1416
137.694 129.59 94.452
134.215 129.636 92.0268
130.839 129.076 89.7841
130.416 127.27 93.2949
138.287 124.675 88.2037
134.605 121.89 89.6426
137.988 121.734 90.8341
131.989 123.433 89.2532
130.861 119.516 90.8998
133.318 125.282 96.0763
134.594 123.993 96.4133
132.424 123.49 96.9155
135.754 123.022 95.9028
136.455 124.944 95.2567
134.63 126.965 95.2125
132.306 126.42 95.642
130.032 123.14 96.1881
131.484 121.492 96.4217
132.792 119.813 96.1525
135.284 121.067 95.7974
134.41 119.257 94.9217
137.273 122.302 94.9151
130.477 119.602 95.2945
133.492 118.543 93.1687
135.975 119.528 93.0223
134.017 129.561 83.7124
136.501 130.404 83.2559
135.088 130.491 85.0156
139.185 130.777 84.04
137.944 129.034 83.3233
133.185 127.86 83.9087
131.859 128.692 84.967
133.781 130.161 86.8981
136.055 130.808 86.8855
135.802 126.133 85.1066
136.96 127.391 83.7616
134.562 126.9 84.174
139.316 127.598 83.7413
136.611 125.466 86.2419
134.647 125.163 86.7096
132.475 126.542 85.1995
139.866 125.883 93.1235
141.316 127.645 92.4379
140.913 126.177 91.6656
142.119 129.506 91.4241
140.866 128.976 93.5306
138.195 125.654 94.1315
138.449 124.092 93.8857
139.965 124.46 91.0116
141.399 126.162 90.0069
142.18 127.713 88.4706
142.607 129.569 89.0665
142.131 129.182 86.8429
141.774 130.999 90.015
141.01 125.928 88.2825
141.121 128.239 84.7992
141.147 130.423 85.3251
127.087 121.997 93.1257
126.02 121.72 91.0046
126.588 123.903 91.8497
127.193 122.514 89.5792
127.455 120.305 90.3342
128.569 120.435 94.1809
128.544 122.74 94.7782
127.424 125.712 92.6445
126.899 125.912 90.5862
127.009 126.313 88.5267
127.941 124.693 88.7086
128.463 126.173 86.8857
129.049 123.541 89.1593
127.66 127.651 89.5063
129.833 127.647 85.8676
130.439 126.062 86.0395
138.12 130.653 92.5212
136.056 129.772 93.2446
136.302 130.507 91.2565
133.925 128.948 93.7568
135.675 128.754 94.9125
139.749 130.257 93.693
140.1 131.113 91.3214
136.433 130.763 89.0485
134.455 130.084 90.1783
132.368 129.446 91.0238
132.06 128.769 92.9548
130.337 128.621 91.9389
132.018 127.478 94.2905
132.841 129.654 89.0231
128.839 128.481 90.5895
128.608 127.428 92.5621
136.611 123.308 89.0724
136.382 121.744 90.073
138.257 123.256 89.6605
136.345 120.411 91.4532
134.521 120.472 90.5375
135.065 123.507 88.8602
136.871 124.752 87.7959
139.609 124.629 88.8441
139.526 123.198 90.2541
131.352 121.478 89.8962
132.736 120.856 90.2035
133.214 122.603 89.5487
132.699 119.273 91.4412
129.417 120.517 90.0651
130.203 122.602 89.7064
133.769 124.181 88.5538
137.583 126.679 94.6356
136.86 127.725 95.1681
139.046 128.467 94.7334
140.072 131.478 88.7401
138.143 131.362 87.6193
139.906 131.581 86.1725
137.697 120.804 92.5707
138.096 122.271 93.5073
139.002 122.486 91.9708
140.004 125.762 87.1575
139.929 126.565 85.3685
138.407 125.735 86.4641
130.293 126.08 95.0811
128.774 124.604 95.5624
128.551 125.999 94.1329
129.54 128.696 88.5716
130.711 128.731 86.7673
131.777 129.462 87.632
129.023 118.954 91.4293
129.396 118.549 93.4422
131.1 118.218 92.4643
132.763 124.735 87.6657
131.685 125.451 86.9404
130.895 124.298 88.5958
133.936 124.708 96.212
133.573 123.76 96.8776
132.835 124.528 96.5434
133.105 122.748 96.8371
134.247 123.152 96.7316
134.932 124.917 95.7605
134.434 125.561 95.679
132.191 125.097 96.3046
131.718 124.291 96.6654
135.19 123.596 96.3834
135.548 124.428 95.8651
136.071 123.952 95.7253
135.947 125.422 95.3254
134.863 122.482 96.3391
136.531 123.531 95.4001
136.841 124.402 95.0727
133.924 126.157 95.6081
132.824 125.879 95.9412
133.452 126.626 95.4206
131.658 125.639 95.9964
135.069 126.544 95.3316
134.191 127.357 94.9698
133.104 127.106 95.0623
131.302 123.326 96.5852
132.027 122.515 96.67
130.918 122.441 96.315
132.667 121.657 96.5008
130.478 124.026 96.3794
129.913 122.285 95.7424
130.531 121.382 95.9498
134.1 120.355 95.9919
134.882 120.047 95.5566
133.593 119.282 95.7215
135.611 119.907 94.7374
135.921 120.746 95.1846
134.52 121.388 96.2791
133.372 120.917 96.3939
132.306 118.926 95.4257
133.032 118.727 94.8402
136.358 121.671 95.3444
135.574 121.952 96.0502
136.542 122.529 95.4842
136.967 121.472 94.696
137.197 123.099 94.8544
132.171 120.65 96.3781
131.493 119.538 95.8977
131.049 120.457 95.988
131.081 118.776 95.0093
130.027 120.442 95.4868
133.999 118.754 94.2765
135.346 119.324 94.0975
134.719 118.89 93.2689
136.434 119.941 93.7825
132.645 118.368 93.8976
134.074 119.051 92.5462
135.219 119.441 92.5258
135.157 130.108 83.3
135.78 130.619 84.0667
134.521 130.182 84.2297
136.328 130.888 84.9943
137.089 130.985 84.1208
135.92 129.426 83.0576
134.624 128.984 83.1393
133.489 129.695 84.6247
134.002 130.086 85.2268
137.852 130.661 83.4836
137.253 129.746 83.067
138.591 130.068 83.3186
136.663 128.767 83.2624
138.387 131.114 84.5035
139.747 130.088 83.8264
139.137 129.145 83.5595
133.653 128.753 83.6721
133.057 129.101 84.3569
132.475 128.425 84.2273
132.455 129.132 85.3019
134.251 128.175 83.4792
132.129 127.469 84.405
131.492 127.915 84.8176
134.398 130.393 85.9553
135.633 130.726 85.9049
134.9 130.524 86.7778
136.844 131 86.0426
133.32 129.985 86.1988
134.224 130.236 87.7229
135.29 130.553 87.7341
136.459 126.638 84.3039
135.76 127.146 83.8587
135.254 126.44 84.5214
135.063 127.693 83.6104
136.249 128.037 83.5954
137.575 126.754 84.1791
136.832 126.171 84.8216
134.746 126.068 85.4411
134.159 126.355 84.9819
137.448 128.299 83.5327
138.123 127.461 83.6681
138.672 128.355 83.5097
138.694 126.761 84.0522
139.72 128.533 83.846
136.262 125.785 85.6461
135.219 125.683 85.8699
135.63 125.336 86.4524
134.205 125.601 86.3498
137.316 125.884 85.4972
135.979 124.971 86.8962
135.067 124.785 87.1301
133.492 126.672 84.6213
133.943 127.435 83.9736
132.833 127.087 84.4294
133.088 126.267 85.5666
131.869 126.858 85.0482
140.647 126.842 92.7921
141.191 127.008 92.0315
140.422 126.025 92.4032
141.735 127.118 91.2209
141.849 127.852 91.555
140.571 127.442 93.2795
139.832 126.625 93.4479
139.659 125.073 92.7411
140.167 125.166 92.0736
141.909 128.621 92.0487
141.112 128.367 92.944
141.627 129.288 92.5403
140.398 128.056 93.815
142.357 128.747 90.9824
141.824 130.169 91.8236
141.154 129.871 92.9501
139.126 125.809 93.6736
139.139 124.923 93.3792
138.402 124.828 94.0156
138.945 124.129 93.1705
138.937 126.437 93.9722
137.657 124.682 94.5763
137.783 123.988 94.4855
140.451 125.171 91.3215
141.228 126.222 90.8707
140.682 125.26 90.5191
141.918 127.028 90.2784
139.699 124.267 91.7496
140.149 124.625 90.3623
140.961 125.431 89.7404
142.368 128.734 88.8225
142.444 129.502 87.9338
142.368 128.494 87.6708
142.25 130.221 87.0588
142.338 130.383 88.2696
142.404 128.794 89.8652
142.225 127.857 89.507
141.857 127.444 87.4962
141.985 128.034 86.5471
142.305 130.447 89.5417
142.583 129.578 90.2487
142.192 130.395 90.7031
141.817 131.072 88.7021
141.604 130.868 91.1847
141.841 126.889 89.2266
141.61 126.731 88.2706
141.281 126.056 89.1292
141.176 126.616 87.4754
140.819 125.347 88.9954
141.629 128.663 85.8192
141.857 129.912 86.0274
141.261 129.428 85.061
141.595 130.886 86.3319
141.444 127.509 85.6382
140.617 128.779 84.3404
140.652 129.909 84.4599
126.376 121.795 92.1273
126.237 122.862 91.4171
126.722 122.941 92.4767
126.414 124.052 90.8096
126.1 123.019 90.3607
126.547 120.556 91.6674
127.093 120.817 92.7644
127.315 123.058 93.4771
127.017 123.925 92.843
126.39 122 90.0966
126.545 120.694 90.5845
127.083 121.275 89.9622
127.187 119.882 91.1912
126.722 123.296 89.5673
127.86 122.066 89.6418
127.942 121.065 89.8423
127.739 121.151 93.6806
127.801 122.342 94.0525
128.411 121.544 94.5048
127.855 123.444 94.444
128.023 120.137 93.3045
129.138 120.827 95.0229
129.131 122.078 95.0839
126.965 124.831 92.3218
126.694 124.904 91.3209
127.081 125.687 91.5799
126.566 125.135 90.2178
127.397 124.895 93.3176
127.567 126.429 91.879
127.248 126.6 90.9462
127.338 125.375 88.3872
128.163 125.414 87.7529
127.66 126.293 87.6349
129.004 125.541 87.1713
128.775 124.913 88.2234
127.187 124.445 89.1717
126.843 125.322 89.2219
127.584 127.25 87.9991
128.275 127.165 87.0729
128.424 124.062 88.997
127.571 123.602 89.2503
128.089 123.014 89.3125
129.361 124.491 88.6305
128.708 122.634 89.5631
126.717 126.139 89.535
127.135 127.136 88.9857
127.03 126.871 89.9755
128.035 127.821 88.5137
127.553 127.457 90.3805
129.079 126.908 86.403
129.417 126.075 86.4265
129.933 126.757 85.7711
130.027 125.637 86.8641
129.205 127.777 86.688
130.569 127.397 85.2358
130.962 126.701 85.5087
137.092 130.297 92.9623
136.225 130.234 92.2814
137.238 130.677 91.8959
135.291 130.073 91.6434
135.201 129.719 92.5757
136.892 129.825 93.9174
137.942 130.24 93.6412
138.238 130.937 91.3467
137.28 130.835 90.7496
135.032 129.383 93.4879
135.937 129.334 94.11
134.808 128.986 94.3586
136.695 129.155 94.6838
134.132 129.348 92.9516
133.819 128.374 94.5044
134.665 128.272 94.8933
138.967 130.554 93.2295
139.138 130.962 91.9984
139.955 130.808 92.6096
139.239 131.16 90.7382
138.758 130.016 94.2166
140.632 130.391 92.9555
140.832 130.932 91.8914
136.381 130.671 90.1816
135.381 130.365 90.7298
135.443 130.423 89.672
134.321 129.945 91.1418
137.368 130.931 89.5628
135.465 130.513 88.6496
134.585 130.14 89.2098
132.155 129.255 92.0587
131.168 128.734 92.4461
131.292 129.159 91.5388
130.279 128.092 92.7575
131.16 128.088 93.1867
133.076 129.344 92.5672
133.278 129.553 91.5594
131.538 129.27 90.4371
130.562 128.962 90.9103
131.974 128.137 93.624
132.967 128.897 93.3396
132.865 128.333 94.1575
131.23 127.334 93.7916
132.874 127.649 94.6435
133.436 129.736 90.6017
132.573 129.522 90.0015
133.597 129.874 89.6283
131.798 129.359 89.3716
133.8 129.931 88.6607
129.549 128.592 91.3385
129.406 128.083 92.2952
128.678 128.035 91.6539
129.462 127.409 93.0303
129.864 128.798 90.2308
128.171 127.836 90.977
128.045 127.332 91.8977
136.505 122.55 89.6382
137.31 122.403 89.7823
137.432 123.389 89.4569
138.079 122.355 90.0874
137.216 121.662 90.4287
135.499 121.781 89.7982
135.63 122.63 89.5065
137.486 123.953 88.641
138.22 123.977 88.9688
136.393 121.029 90.682
135.472 121.117 90.2809
135.445 120.468 90.9801
134.556 121.165 89.9691
137.193 121.047 91.1968
135.439 119.908 91.7031
134.542 119.925 91.2792
135.775 123.335 88.898
136.745 124.019 88.4813
136.001 124.179 88.4738
137.582 124.7 87.9582
134.833 122.758 89.2963
135.229 124.264 88.3051
136.064 124.581 87.6278
138.912 124.01 89.3307
138.885 123.1 89.8943
139.498 124.005 89.7069
138.794 122.416 90.518
138.947 124.624 88.5073
140.124 124.727 89.2708
139.953 124.18 90.1581
131.965 121.161 90.1422
132.972 121.743 89.8682
132.311 122.099 89.8339
133.875 122.275 89.6287
133.69 121.41 89.9772
131.803 120.142 90.5324
131.071 120.472 90.2675
131.634 122.47 89.6124
132.575 123.003 89.4047
133.637 120.58 90.2615
132.736 119.915 90.5293
133.645 119.899 90.8114
131.787 119.293 91.1301
133.661 119.436 91.7617
130.407 120.902 89.88
130.746 121.953 89.7292
129.806 121.496 89.7826
131.078 122.982 89.4718
130.13 120.003 90.4612
128.897 121.099 89.7918
129.347 122.22 89.7874
133.449 123.492 89.1376
134.143 123.063 89.219
134.365 123.877 88.757
132.867 123.838 88.9155
134.596 124.325 87.9838
137.222 127.166 94.8913
137.927 128.025 94.8807
138.374 127.453 94.6562
138.496 129.117 94.8132
137.415 128.738 95.0607
136.187 126.875 95.192
136.564 126.323 95.0125
138.714 126.947 94.3308
139.44 127.753 94.3865
136.369 128.335 95.2276
135.763 127.399 95.2648
135.274 127.85 95.121
136.929 125.874 94.8355
137.935 126.237 94.3529
137.325 125.376 94.7319
139.99 128.67 94.1783
139.479 129.402 94.3443
140.447 129.685 93.7313
139.146 131.549 88.1479
139.025 131.559 86.8287
140.055 131.705 87.3907
138.817 131.399 85.6311
137.947 131.289 86.3807
138.217 131.231 88.88
139.182 131.294 89.4591
140.972 131.504 88.0699
140.97 131.551 86.7733
137.102 131.089 87.189
137.289 131.042 88.3284
136.225 130.831 87.9374
140.092 131.24 90.0113
140.987 131.28 89.3403
140.917 131.146 90.6231
140.609 131.225 85.7172
139.537 131.2 85.1682
140.252 130.713 84.6423
137.924 121.5 93.1157
138.413 122.418 92.768
138.267 121.728 92.3598
139.121 123.39 92.2243
138.743 123.285 93.0132
137.544 121.419 93.9647
137.198 120.72 93.4788
137.888 121.245 91.7611
138.635 121.984 91.3911
138.307 123.189 93.6652
137.777 122.245 94.1929
137.85 123.087 94.3114
136.89 120.191 92.7881
137.126 120.528 91.9314
136.263 119.915 92.2353
139.37 122.726 91.0453
139.59 123.47 91.4172
139.832 123.788 90.7564
140.039 126.19 86.3001
139.174 126.14 85.9847
139.238 125.768 86.7863
138.279 126.006 85.6168
138.998 126.38 84.9305
140.776 126.766 85.8725
140.65 126.49 86.81
139.125 125.239 87.648
138.383 125.31 87.3245
139.79 126.922 84.3159
140.737 127.187 84.9493
140.33 127.828 84.2518
140.536 125.865 87.5815
139.788 125.189 88.044
140.373 125.236 88.4405
137.631 125.296 87.1255
137.566 125.612 86.2532
136.841 125.147 86.9632
129.453 125.474 95.5191
128.58 125.337 94.8188
129.4 126.062 94.6294
127.919 125.166 94.1109
128.003 124.468 94.7628
129.839 124.746 96.132
130.581 125.509 95.8223
130.29 126.712 94.2336
129.465 126.653 93.749
128.547 123.689 95.1542
129.383 123.845 95.9809
129.218 122.953 95.4882
131.331 126.213 95.4638
131.146 126.857 94.6874
132.052 127.016 95.1044
128.633 126.679 93.3339
127.93 125.88 93.4216
127.978 126.598 92.6511
130.005 128.797 87.5449
131.279 129.122 87.1337
130.647 129.156 88.0865
132.36 129.562 86.6207
131.856 129.151 86.1969
129.505 128.394 87.1297
129.002 128.381 88.0137
130.232 128.924 89.1351
131.295 129.209 88.6549
131.388 128.713 85.9199
130.246 128.356 86.3745
130.759 128.267 85.4928
128.48 128.345 88.9811
129.172 128.661 89.5742
128.177 128.169 90.0035
132.266 129.576 88.3324
132.785 129.823 87.2329
133.29 129.843 87.9669
129.143 118.644 92.4463
130.251 118.285 92.9625
130.031 118.444 91.9985
131.379 118.173 93.4288
130.66 118.373 93.8822
128.417 119.246 92.8853
128.03 119.215 91.8386
129.952 119.024 91.1642
130.962 118.661 91.4959
129.922 118.859 94.4954
128.895 119.375 93.8663
129.43 119.825 94.7622
127.98 119.511 90.7677
129.153 119.678 90.6046
128.365 120.271 90.1469
131.95 118.689 91.918
132.238 118.335 92.8623
132.993 118.83 92.2772
132.3 125.119 87.2906
131.269 124.927 87.7616
131.835 124.541 88.1765
130.317 124.682 88.2222
130.68 125.275 87.3889
132.673 125.765 86.4567
133.252 125.375 86.7777
132.351 124.184 88.6186
131.426 123.803 88.9366
131.041 125.697 86.5393
132.097 126.024 86.1231
131.498 126.314 85.8098
133.702 124.912 87.091
133.295 124.441 88.0924
134.184 124.526 87.5199
130.508 123.443 89.2434
130.001 123.97 89.0091
129.64 123.061 89.443
POLYGONS 1280  5120
3 164 162 163
3 163 44 164
3 162 43 163
3 164 42 162
3 166 165 163
3 163 43 166
3 165 44 163
3 166 14 165
3 168 167 162
3 162 42 168
3 167 43 162
3 168 13 167
3 170 169 164
3 164 44 170
3 169 42 164
3 170 12 169
3 173 171 172
3 172 46 173
3 171 43 172
3 173 45 171
3 167 174 172
3 172 43 167
3 174 46 172
3 167 13 174
3 175 166 171
3 171 45 175
3 166 43 171
3 175 14 166
3 177 176 173
3 173 46 177
3 176 45 173
3 177 4 176
3 180 178 179
3 179 48 180
3 178 42 179
3 180 47 178
3 169 181 179
3 179 42 169
3 181 48 179
3 169 12 181
3 182 168 178
3 178 47 182
3 168 42 178
3 182 13 168
3 184 183 180
3 180 48 184
3 183 47 180
3 184 8 183
3 187 185 186
3 186 50 187
3 185 44 186
3 187 49 185
3 165 188 186
3 186 44 165
3 188 50 186
3 165 14 188
3 189 170 185
3 185 49 189
3 170 44 185
3 189 12 170
3 191 190 187
3 187 50 191
3 190 49 187
3 191 7 190
3 194 192 193
3 193 53 194
3 192 52 193
3 194 51 192
3 196 195 193
3 193 52 196
3 195 53 193
3 196 16 195
3 198 197 192
3 192 51 198
3 197 52 192
3 198 14 197
3 200 199 194
3 194 53 200
3 199 51 194
3 200 15 199
3 203 201 202
3 202 45 203
3 201 52 202
3 203 54 201
3 197 175 202
3 202 52 197
3 175 45 202
3 197 14 175
3 204 196 201
3 201 54 204
3 196 52 201
3 204 16 196
3 176 205 203
3 203 45 176
3 205 54 203
3 176 4 205
3 208 206 207
3 207 55 208
3 206 51 207
3 208 50 206
3 199 209 207
3 207 51 199
3 209 55 207
3 199 15 209
3 188 198 206
3 206 50 188
3 198 51 206
3 188 14 198
3 210 191 208
3 208 55 210
3 191 50 208
3 210 7 191
3 213 211 212
3 212 57 213
3 211 53 212
3 213 56 211
3 195 214 212
3 212 53 195
3 214 57 212
3 195 16 214
3 215 200 211
3 211 56 215
3 200 53 211
3 215 15 200
3 217 216 213
3 213 57 217
3 216 56 213
3 217 9 216
3 220 218 219
3 219 60 220
3 218 59 219
3 220 58 218
3 222 221 219
3 219 59 222
3 221 60 219
3 222 19 221
3 224 223 218
3 218 58 224
3 223 59 218
3 224 18 223
3 226 225 220
3 220 60 226
3 225 58 220
3 226 17 225
3 229 227 228
3 228 62 229
3 227 59 228
3 229 61 227
3 223 230 228
3 228 59 223
3 230 62 228
3 223 18 230
3 231 222 227
3 227 61 231
3 222 59 227
3 231 19 222
3 233 232 229
3 229 62 233
3 232 61 229
3 233 5 232
3 236 234 235
3 235 64 236
3 234 58 235
3 236 63 234
3 225 237 235
3 235 58 225
3 237 64 235
3 225 17 237
3 238 224 234
3 234 63 238
3 224 58 234
3 238 18 224
3 240 239 236
3 236 64 240
3 239 63 236
3 240 6 239
3 243 241 242
3 242 66 243
3 241 60 242
3 243 65 241
3 221 244 242
3 242 60 221
3 244 66 242
3 221 19 244
3 245 226 241
3 241 65 245
3 226 60 241
3 245 17 226
3 247 246 243
3 243 66 247
3 246 65 243
3 247 11 246
3 250 248 249
3 249 69 250
3 248 68 249
3 250 67 248
3 252 251 249
3 249 68 252
3 251 69 249
3 252 18 251
3 254 253 248
3 248 67 254
3 253 68 248
3 254 21 253
3 256 255 250
3 250 69 256
3 255 67 250
3 256 20 255
3 259 257 258
3 258 70 259
3 257 68 258
3 259 62 257
3 253 260 258
3 258 68 253
3 260 70 258
3 253 21 260
3 230 252 257
3 257 62 230
3 252 68 257
3 230 18 252
3 261 233 259
3 259 70 261
3 233 62 259
3 261 5 233
3 264 262 263
3 263 72 264
3 262 67 263
3 264 71 262
3 255 265 263
3 263 67 255
3 265 72 263
3 255 20 265
3 266 254 262
3 262 71 266
3 254 67 262
3 266 21 254
3 268 267 264
3 264 72 268
3 267 71 264
3 268 10 267
3 271 269 270
3 270 63 271
3 269 69 270
3 271 73 269
3 251 238 270
3 270 69 251
3 238 63 270
3 251 18 238
3 272 256 269
3 269 73 272
3 256 69 269
3 272 20 256
3 239 273 271
3 271 63 239
3 273 73 271
3 239 6 273
3 276 274 275
3 275 76 276
3 274 75 275
3 276 74 274
3 278 277 275
3 275 75 278
3 277 76 275
3 278 24 277
3 280 279 274
3 274 74 280
3 279 75 274
3 280 23 279
3 282 281 276
3 276 76 282
3 281 74 276
3 282 22 281
3 285 283 284
3 284 78 285
3 283 75 284
3 285 77 283
3 279 286 284
3 284 75 279
3 286 78 284
3 279 23 286
3 287 278 283
3 283 77 287
3 278 75 283
3 287 24 278
3 289 288 285
3 285 78 289
3 288 77 285
3 289 0 288
3 292 290 291
3 291 80 292
3 290 74 291
3 292 79 290
3 281 293 291
3 291 74 281
3 293 80 291
3 281 22 293
3 294 280 290
3 290 79 294
3 280 74 290
3 294 23 280
3 296 295 292
3 292 80 296
3 295 79 292
3 296 4 295
3 299 297 298
3 298 82 299
3 297 76 298
3 299 81 297
3 277 300 298
3 298 76 277
3 300 82 298
3 277 24 300
3 301 282 297
3 297 81 301
3 282 76 297
3 301 22 282
3 303 302 299
3 299 82 303
3 302 81 299
3 303 3 302
3 306 304 305
3 305 85 306
3 304 84 305
3 306 83 304
3 308 307 305
3 305 84 308
3 307 85 305
3 308 26 307
3 310 309 304
3 304 83 310
3 309 84 304
3 310 24 309
3 312 311 306
3 306 85 312
3 311 83 306
3 312 25 311
3 315 313 314
3 314 77 315
3 313 84 314
3 315 86 313
3 309 287 314
3 314 84 309
3 287 77 314
3 309 24 287
3 316 308 313
3 313 86 316
3 308 84 313
3 316 26 308
3 288 317 315
3 315 77 288
3 317 86 315
3 288 0 317
3 320 318 319
3 319 87 320
3 318 83 319
3 320 82 318
3 311 321 319
3 319 83 311
3 321 87 319
3 311 25 321
3 300 310 318
3 318 82 300
3 310 83 318
3 300 24 310
3 322 303 320
3 320 87 322
3 303 82 320
3 322 3 303
3 325 323 324
3 324 89 325
3 323 85 324
3 325 88 323
3 307 326 324
3 324 85 307
3 326 89 324
3 307 26 326
3 327 312 323
3 323 88 327
3 312 85 323
3 327 25 312
3 329 328 325
3 325 89 329
3 328 88 325
3 329 5 328
3 332 330 331
3 331 92 332
3 330 91 331
3 332 90 330
3 334 333 331
3 331 91 334
3 333 92 331
3 334 29 333
3 336 335 330
3 330 90 336
3 335 91 330
3 336 28 335
3 338 337 332
3 332 92 338
3 337 90 332
3 338 27 337
3 341 339 340
3 340 94 341
3 339 91 340
3 341 93 339
3 335 342 340
3 340 91 335
3 342 94 340
3 335 28 342
3 343 334 339
3 339 93 343
3 334 91 339
3 343 29 334
3 345 344 341
3 341 94 345
3 344 93 341
3 345 2 344
3 348 346 347
3 347 96 348
3 346 90 347
3 348 95 346
3 337 349 347
3 347 90 337
3 349 96 347
3 337 27 349
3 350 336 346
3 346 95 350
3 336 90 346
3 350 28 336
3 352 351 348
3 348 96 352
3 351 95 348
3 352 7 351
3 355 353 354
3 354 98 355
3 353 92 354
3 355 97 353
3 333 356 354
3 354 92 333
3 356 98 354
3 333 29 356
3 357 338 353
3 353 97 357
3 338 92 353
3 357 27 338
3 359 358 355
3 355 98 359
3 358 97 355
3 359 1 358
3 362 360 361
3 361 101 362
3 360 100 361
3 362 99 360
3 364 363 361
3 361 100 364
3 363 101 361
3 364 31 363
3 366 365 360
3 360 99 366
3 365 100 360
3 366 29 365
3 368 367 362
3 362 101 368
3 367 99 362
3 368 30 367
3 371 369 370
3 370 93 371
3 369 100 370
3 371 102 369
3 365 343 370
3 370 100 365
3 343 93 370
3 365 29 343
3 372 364 369
3 369 102 372
3 364 100 369
3 372 31 364
3 344 373 371
3 371 93 344
3 373 102 371
3 344 2 373
3 376 374 375
3 375 103 376
3 374 99 375
3 376 98 374
3 367 377 375
3 375 99 367
3 377 103 375
3 367 30 377
3 356 366 374
3 374 98 356
3 366 99 374
3 356 29 366
3 378 359 376
3 376 103 378
3 359 98 376
3 378 1 359
3 381 379 380
3 380 105 381
3 379 101 380
3 381 104 379
3 363 382 380
3 380 101 363
3 382 105 380
3 363 31 382
3 383 368 379
3 379 104 383
3 368 101 379
3 383 30 368
3 385 384 381
3 381 105 385
3 384 104 381
3 385 6 384
3 388 386 387
3 387 108 388
3 386 107 387
3 388 106 386
3 390 389 387
3 387 107 390
3 389 108 387
3 390 34 389
3 392 391 386
3 386 106 392
3 391 107 386
3 392 33 391
3 394 393 388
3 388 108 394
3 393 106 388
3 394 32 393
3 397 395 396
3 396 110 397
3 395 107 396
3 397 109 395
3 391 398 396
3 396 107 391
3 398 110 396
3 391 33 398
3 399 390 395
3 395 109 399
3 390 107 395
3 399 34 390
3 401 400 397
3 397 110 401
3 400 109 397
3 401 8 400
3 404 402 403
3 403 112 404
3 402 106 403
3 404 111 402
3 393 405 403
3 403 106 393
3 405 112 403
3 393 32 405
3 406 392 402
3 402 111 406
3 392 106 402
3 406 33 392
3 408 407 404
3 404 112 408
3 407 111 404
3 408 0 407
3 411 409 410
3 410 114 411
3 409 108 410
3 411 113 409
3 389 412 410
3 410 108 389
3 412 114 410
3 389 34 412
3 413 394 409
3 409 113 413
3 394 108 409
3 413 32 394
3 415 414 411
3 411 114 415
3 414 113 411
3 415 11 414
3 418 416 417
3 417 117 418
3 416 116 417
3 418 115 416
3 420 419 417
3 417 116 420
3 419 117 417
3 420 36 419
3 422 421 416
3 416 115 422
3 421 116 416
3 422 34 421
3 424 423 418
3 418 117 424
3 423 115 418
3 424 35 423
3 427 425 426
3 426 109 427
3 425 116 426
3 427 118 425
3 421 399 426
3 426 116 421
3 399 109 426
3 421 34 399
3 428 420 425
3 425 118 428
3 420 116 425
3 428 36 420
3 400 429 427
3 427 109 400
3 429 118 427
3 400 8 429
3 432 430 431
3 431 119 432
3 430 115 431
3 432 114 430
3 423 433 431
3 431 115 423
3 433 119 431
3 423 35 433
3 412 422 430
3 430 114 412
3 422 115 430
3 412 34 422
3 434 415 432
3 432 119 434
3 415 114 432
3 434 11 415
3 437 435 436
3 436 121 437
3 435 117 436
3 437 120 435
3 419 438 436
3 436 117 419
3 438 121 436
3 419 36 438
3 439 424 435
3 435 120 439
3 424 117 435
3 439 35 424
3 441 440 437
3 437 121 441
3 440 120 437
3 441 1 440
3 444 442 443
3 443 124 444
3 442 123 443
3 444 122 442
3 446 445 443
3 443 123 446
3 445 124 443
3 446 39 445
3 448 447 442
3 442 122 448
3 447 123 442
3 448 38 447
3 450 449 444
3 444 124 450
3 449 122 444
3 450 37 449
3 453 451 452
3 452 126 453
3 451 123 452
3 453 125 451
3 447 454 452
3 452 123 447
3 454 126 452
3 447 38 454
3 455 446 451
3 451 125 455
3 446 123 451
3 455 39 446
3 457 456 453
3 453 126 457
3 456 125 453
3 457 9 456
3 460 458 459
3 459 128 460
3 458 122 459
3 460 127 458
3 449 461 459
3 459 122 449
3 461 128 459
3 449 37 461
3 462 448 458
3 458 127 462
3 448 122 458
3 462 38 448
3 464 463 460
3 460 128 464
3 463 127 460
3 464 10 463
3 467 465 466
3 466 130 467
3 465 124 466
3 467 129 465
3 445 468 466
3 466 124 445
3 468 130 466
3 445 39 468
3 469 450 465
3 465 129 469
3 450 124 465
3 469 37 450
3 471 470 467
3 467 130 471
3 470 129 467
3 471 3 470
3 474 472 473
3 473 133 474
3 472 132 473
3 474 131 472
3 476 475 473
3 473 132 476
3 475 133 473
3 476 38 475
3 478 477 472
3 472 131 478
3 477 132 472
3 478 41 477
3 480 479 474
3 474 133 480
3 479 131 474
3 480 40 479
3 483 481 482
3 482 134 483
3 481 132 482
3 483 126 481
3 477 484 482
3 482 132 477
3 484 134 482
3 477 41 484
3 454 476 481
3 481 126 454
3 476 132 481
3 454 38 476
3 485 457 483
3 483 134 485
3 457 126 483
3 485 9 457
3 488 486 487
3 487 136 488
3 486 131 487
3 488 135 486
3 479 489 487
3 487 131 479
3 489 136 487
3 479 40 489
3 490 478 486
3 486 135 490
3 478 131 486
3 490 41 478
3 492 491 488
3 488 136 492
3 491 135 488
3 492 2 491
3 495 493 494
3 494 127 495
3 493 133 494
3 495 137 493
3 475 462 494
3 494 133 475
3 462 127 494
3 475 38 462
3 496 480 493
3 493 137 496
3 480 133 493
3 496 40 480
3 463 497 495
3 495 127 463
3 497 137 495
3 463 10 497
3 500 498 499
3 499 140 500
3 498 139 499
3 500 138 498
3 502 501 499
3 499 139 502
3 501 140 499
3 502 33 501
3 504 503 498
3 498 138 504
3 503 139 498
3 504 13 503
3 506 505 500
3 500 140 506
3 505 138 500
3 506 23 505
3 509 507 508
3 508 47 509
3 507 139 508
3 509 110 507
3 503 182 508
3 508 139 503
3 182 47 508
3 503 13 182
3 398 502 507
3 507 110 398
3 502 139 507
3 398 33 502
3 183 401 509
3 509 47 183
3 401 110 509
3 183 8 401
3 512 510 511
3 511 79 512
3 510 138 511
3 512 46 510
3 505 294 511
3 511 138 505
3 294 79 511
3 505 23 294
3 174 504 510
3 510 46 174
3 504 138 510
3 174 13 504
3 295 177 512
3 512 79 295
3 177 46 512
3 295 4 177
3 515 513 514
3 514 111 515
3 513 140 514
3 515 78 513
3 501 406 514
3 514 140 501
3 406 111 514
3 501 33 406
3 286 506 513
3 513 78 286
3 506 140 513
3 286 23 506
3 407 289 515
3 515 111 407
3 289 78 515
3 407 0 289
3 518 516 517
3 517 143 518
3 516 142 517
3 518 141 516
3 520 519 517
3 517 142 520
3 519 143 517
3 520 19 519
3 522 521 516
3 516 141 522
3 521 142 516
3 522 32 521
3 524 523 518
3 518 143 524
3 523 141 518
3 524 26 523
3 527 525 526
3 526 113 527
3 525 142 526
3 527 66 525
3 521 413 526
3 526 142 521
3 413 113 526
3 521 32 413
3 244 520 525
3 525 66 244
3 520 142 525
3 244 19 520
3 414 247 527
3 527 113 414
3 247 66 527
3 414 11 247
3 530 528 529
3 529 86 530
3 528 141 529
3 530 112 528
3 523 316 529
3 529 141 523
3 316 86 529
3 523 26 316
3 405 522 528
3 528 112 405
3 522 141 528
3 405 32 522
3 317 408 530
3 530 86 317
3 408 112 530
3 317 0 408
3 533 531 532
3 532 61 533
3 531 143 532
3 533 89 531
3 519 231 532
3 532 143 519
3 231 61 532
3 519 19 231
3 326 524 531
3 531 89 326
3 524 143 531
3 326 26 524
3 232 329 533
3 533 61 232
3 329 89 533
3 232 5 329
3 536 534 535
3 535 146 536
3 534 145 535
3 536 144 534
3 538 537 535
3 535 145 538
3 537 146 535
3 538 22 537
3 540 539 534
3 534 144 540
3 539 145 534
3 540 16 539
3 542 541 536
3 536 146 542
3 541 144 536
3 542 39 541
3 545 543 544
3 544 54 545
3 543 145 544
3 545 80 543
3 539 204 544
3 544 145 539
3 204 54 544
3 539 16 204
3 293 538 543
3 543 80 293
3 538 145 543
3 293 22 538
3 205 296 545
3 545 54 205
3 296 80 545
3 205 4 296
3 548 546 547
3 547 125 548
3 546 144 547
3 548 57 546
3 541 455 547
3 547 144 541
3 455 125 547
3 541 39 455
3 214 540 546
3 546 57 214
3 540 144 546
3 214 16 540
3 456 217 548
3 548 125 456
3 217 57 548
3 456 9 217
3 551 549 550
3 550 81 551
3 549 146 550
3 551 130 549
3 537 301 550
3 550 146 537
3 301 81 550
3 537 22 301
3 468 542 549
3 549 130 468
3 542 146 549
3 468 39 542
3 302 471 551
3 551 81 302
3 471 130 551
3 302 3 471
3 554 552 553
3 553 149 554
3 552 148 553
3 554 147 552
3 556 555 553
3 553 148 556
3 555 149 553
3 556 21 555
3 558 557 552
3 552 147 558
3 557 148 552
3 558 25 557
3 560 559 554
3 554 149 560
3 559 147 554
3 560 37 559
3 563 561 562
3 562 88 563
3 561 148 562
3 563 70 561
3 557 327 562
3 562 148 557
3 327 88 562
3 557 25 327
3 260 556 561
3 561 70 260
3 556 148 561
3 260 21 556
3 328 261 563
3 563 88 328
3 261 70 563
3 328 5 261
3 566 564 565
3 565 129 566
3 564 147 565
3 566 87 564
3 559 469 565
3 565 147 559
3 469 129 565
3 559 37 469
3 321 558 564
3 564 87 321
3 558 147 564
3 321 25 558
3 470 322 566
3 566 129 470
3 322 87 566
3 470 3 322
3 569 567 568
3 568 71 569
3 567 149 568
3 569 128 567
3 555 266 568
3 568 149 555
3 266 71 568
3 555 21 266
3 461 560 567
3 567 128 461
3 560 149 567
3 461 37 560
3 267 464 569
3 569 71 267
3 464 128 569
3 267 10 464
3 572 570 571
3 571 152 572
3 570 151 571
3 572 150 570
3 574 573 571
3 571 151 574
3 573 152 571
3 574 27 573
3 576 575 570
3 570 150 576
3 575 151 570
3 576 12 575
3 578 577 572
3 572 152 578
3 577 150 572
3 578 36 577
3 581 579 580
3 580 49 581
3 579 151 580
3 581 96 579
3 575 189 580
3 580 151 575
3 189 49 580
3 575 12 189
3 349 574 579
3 579 96 349
3 574 151 579
3 349 27 574
3 190 352 581
3 581 49 190
3 352 96 581
3 190 7 352
3 584 582 583
3 583 118 584
3 582 150 583
3 584 48 582
3 577 428 583
3 583 150 577
3 428 118 583
3 577 36 428
3 181 576 582
3 582 48 181
3 576 150 582
3 181 12 576
3 429 184 584
3 584 118 429
3 184 48 584
3 429 8 184
3 587 585 586
3 586 97 587
3 585 152 586
3 587 121 585
3 573 357 586
3 586 152 573
3 357 97 586
3 573 27 357
3 438 578 585
3 585 121 438
3 578 152 585
3 438 36 578
3 358 441 587
3 587 97 358
3 441 121 587
3 358 1 441
3 590 588 589
3 589 155 590
3 588 154 589
3 590 153 588
3 592 591 589
3 589 154 592
3 591 155 589
3 592 17 591
3 594 593 588
3 588 153 594
3 593 154 588
3 594 30 593
3 596 595 590
3 590 155 596
3 595 153 590
3 596 35 595
3 599 597 598
3 598 104 599
3 597 154 598
3 599 64 597
3 593 383 598
3 598 154 593
3 383 104 598
3 593 30 383
3 237 592 597
3 597 64 237
3 592 154 597
3 237 17 592
3 384 240 599
3 599 104 384
3 240 64 599
3 384 6 240
3 602 600 601
3 601 120 602
3 600 153 601
3 602 103 600
3 595 439 601
3 601 153 595
3 439 120 601
3 595 35 439
3 377 594 600
3 600 103 377
3 594 153 600
3 377 30 594
3 440 378 602
3 602 120 440
3 378 103 602
3 440 1 378
3 605 603 604
3 604 65 605
3 603 155 604
3 605 119 603
3 591 245 604
3 604 155 591
3 245 65 604
3 591 17 245
3 433 596 603
3 603 119 433
3 596 155 603
3 433 35 596
3 246 434 605
3 605 65 246
3 434 119 605
3 246 11 434
3 608 606 607
3 607 158 608
3 606 157 607
3 608 156 606
3 610 609 607
3 607 157 610
3 609 158 607
3 610 15 609
3 612 611 606
3 606 156 612
3 611 157 606
3 612 28 611
3 614 613 608
3 608 158 614
3 613 156 608
3 614 41 613
3 617 615 616
3 616 95 617
3 615 157 616
3 617 55 615
3 611 350 616
3 616 157 611
3 350 95 616
3 611 28 350
3 209 610 615
3 615 55 209
3 610 157 615
3 209 15 610
3 351 210 617
3 617 95 351
3 210 55 617
3 351 7 210
3 620 618 619
3 619 135 620
3 618 156 619
3 620 94 618
3 613 490 619
3 619 156 613
3 490 135 619
3 613 41 490
3 342 612 618
3 618 94 342
3 612 156 618
3 342 28 612
3 491 345 620
3 620 135 491
3 345 94 620
3 491 2 345
3 623 621 622
3 622 56 623
3 621 158 622
3 623 134 621
3 609 215 622
3 622 158 609
3 215 56 622
3 609 15 215
3 484 614 621
3 621 134 484
3 614 158 621
3 484 41 614
3 216 485 623
3 623 56 216
3 485 134 623
3 216 9 485
3 626 624 625
3 625 161 626
3 624 160 625
3 626 159 624
3 628 627 625
3 625 160 628
3 627 161 625
3 628 31 627
3 630 629 624
3 624 159 630
3 629 160 624
3 630 20 629
3 632 631 626
3 626 161 632
3 631 159 626
3 632 40 631
3 635 633 634
3 634 73 635
3 633 160 634
3 635 105 633
3 629 272 634
3 634 160 629
3 272 73 634
3 629 20 272
3 382 628 633
3 633 105 382
3 628 160 633
3 382 31 628
3 273 385 635
3 635 73 273
3 385 105 635
3 273 6 385
3 638 636 637
3 637 137 638
3 636 159 637
3 638 72 636
3 631 496 637
3 637 159 631
3 496 137 637
3 631 40 496
3 265 630 636
3 636 72 265
3 630 159 636
3 265 20 630
3 497 268 638
3 638 137 497
3 268 72 638
3 497 10 268
3 641 639 640
3 640 102 641
3 639 161 640
3 641 136 639
3 627 372 640
3 640 161 627
3 372 102 640
3 627 31 372
3 489 632 639
3 639 136 489
3 632 161 639
3 489 40 632
3 373 492 641
3 641 102 373
3 492 136 641
3 373 2 492
