# vtk DataFile Version 3.0
this file was written using fslvtkio
ASCII
DATASET POLYDATA
POINTS 642 float
128.525 113.159 77.7071
99.0929 109.116 74.871
106.146 95.2239 67.9282
125.383 97.1945 70.7668
123.492 100.99 95.0152
123.867 102.985 55.2479
110.08 101.066 51.2789
104.805 99.0052 92.95
113.351 112.169 86.0065
115.37 91.8963 77.3353
117.367 89.9248 57.0756
114.141 115.727 69.2691
107.895 104.73 93.397
118.711 106.128 94.1727
113.337 99.0925 98.6739
110.212 94.0036 87.5515
119.173 94.42 88.6413
112.195 108.147 60.6138
118.326 101.488 45.3467
119.456 109.901 61.7888
113.322 94.127 47.4425
123.633 94.5241 49.615
124.464 99.8378 83.3525
127.233 108.317 88.9146
125.973 106.274 75.0287
125.725 99.085 61.414
125.139 109.917 67.5034
100.318 105.124 86.3679
105.292 98.0686 81.235
103.988 103.447 71.9096
105.446 106.67 64.6677
107.376 96.5432 57.5956
122.317 117.996 73.6942
122.509 115.387 85.3122
112.547 118.062 79.9085
105.175 115.179 71.8675
103.695 113.277 84.3034
123.677 91.892 62.7896
115.527 87.992 68.6418
120.975 92.2618 73.8589
110.224 90.587 59.6077
110.504 92.0226 72.9595
113.263 105.402 93.4822
116.671 103.878 99.8732
109.428 103.029 99.5015
119.954 99.0803 99.0547
123.024 105.16 97.8847
116.228 108.276 88.2007
110.962 107.524 87.8114
103.669 102.523 96.1932
107.646 97.6654 97.7486
111.245 95.0618 94.1549
116.923 95.7788 94.7672
114.508 94.2048 88.8955
121.539 96.7426 92.4756
107.319 95.5511 90.9717
112.937 93.0076 82.7406
117.164 93.5418 83.2825
115.301 104.061 52.5087
118.741 104.687 53.7561
116.028 107.731 60.5304
121.225 105.489 57.4725
121.578 102.401 49.6715
114.06 101.155 46.8085
111.859 104.252 54.7651
112.786 113.007 64.6113
117.192 113.941 65.2656
118.648 95.4902 47.7082
122.246 98.8709 45.1703
115.78 98.2804 42.9135
124.264 98.9329 51.2659
120.69 90.8308 52.4985
115.54 90.3898 51.3859
111.151 97.179 46.9504
125.796 104.553 86.3657
127.23 106.974 81.54
125.152 102.765 79.2348
128.567 109.581 76.1654
127.923 110.639 82.6551
126.113 105.212 93.1092
123.8 100.809 89.309
124.692 98.7139 76.747
125.016 101.25 72.7038
125.219 102.458 68.3627
125.954 108.38 71.4439
123.721 104.279 65.1288
128.24 112.263 72.0792
125.643 98.3736 66.2203
124.924 100.84 58.2122
122.759 105.694 61.9661
102.807 101.821 84.2138
104.176 100.345 76.7254
101.67 103.89 78.9052
105.841 99.1723 70.2089
106.052 96.6235 74.4794
105.423 98.9164 87.3215
101.536 102.072 90.9173
99.6346 107.119 80.1974
100.221 105.876 73.4658
104.367 105.083 68.4607
106.612 99.8651 64.897
108.235 101.618 61.1838
106.003 95.8649 62.7671
100.81 108.409 69.3054
108.952 103.256 57.7336
108.501 98.3301 53.5086
123.158 119.064 80.5207
118.127 118.69 83.5135
117.974 119.502 77.3843
112.516 116.433 84.0764
117.844 114.225 86.5005
126.533 115.478 82.1009
126.136 116.395 75.8707
118.103 117.466 71.3405
113.154 117.165 74.6234
108.082 117.546 76.4143
106.973 117.409 82.6921
103.155 116.064 78.7033
108.405 113.199 85.9726
109.719 116.104 70.1615
101.537 112.719 73.3082
100.024 112.117 80.1322
120.518 89.1599 66.2326
120.53 86.4217 70.7349
124.04 89.5384 68.5569
118.368 91.3181 75.8285
115.538 87.0085 72.5722
116.317 90.4784 63.7358
120.622 90.7955 59.6731
125.128 93.83 66.3102
124.044 94.0402 72.841
110.086 90.3855 67.1071
111.433 86.0667 69.8214
112.584 88.774 65.2504
112.758 91.201 75.3994
107.292 92.8624 70.7541
107.542 92.0238 63.6122
113.69 90.5493 57.7687
123.541 107.661 92.3706
120.349 109.318 87.3773
125.114 111.495 86.3705
124.872 114.537 70.1174
120.987 115.035 67.5292
122.649 110.599 64.2055
120.465 93.5263 81.2286
122.263 96.9288 86.2403
123.326 95.6788 79.0076
126.528 94.8537 61.4943
125.454 96.3093 55.2263
124.168 92.0411 55.9365
106.873 107.722 86.3347
103.459 105.121 90.9697
102.019 108.91 84.8603
104.324 111.298 67.3499
108.46 107.83 61.7345
108.365 113.042 65.5009
107.491 94.4538 77.6275
107.382 95.703 84.5217
109.897 92.8417 80.3043
111.159 90.285 52.4227
109.445 94.0999 51.2661
107.609 92.6897 57.8903
114.63 104.595 96.6555
113.042 103.601 98.84
111.57 104.083 96.4108
111.383 101.292 99.9077
114.95 101.575 99.7032
117.66 104.863 97.0964
116.035 105.697 93.8266
110.471 105.057 93.4241
108.552 103.638 96.5314
118.499 101.806 100.521
119.962 104.367 99.3526
121.502 102.258 99.8225
120.578 105.366 96.3645
116.799 99.4402 99.3829
122.073 99.9785 97.389
123.669 102.731 97.5228
114.823 106.605 90.8752
112.088 106.185 90.6598
113.582 107.948 87.9177
109.593 105.98 90.4886
117.264 106.995 91.1809
114.864 110.264 86.7845
112.064 109.945 86.5562
106.526 102.317 98.4681
108.183 100.235 99.9355
105.598 100.095 98.3421
110.333 98.3087 98.9977
105.853 103.459 95.3647
103.978 100.257 95.5872
105.803 98.3819 95.802
113.985 95.9521 94.6499
115.746 94.4217 91.9436
112.951 93.6219 91.7837
116.912 94.2603 89.0174
118.157 94.2435 91.8953
115.366 97.6782 97.2531
112.066 96.617 97.2556
110.499 93.3507 90.993
112.248 93.8503 88.4575
119.412 95.742 93.8041
118.148 97.1268 97.4039
120.757 97.6537 96.0158
120.586 94.9047 90.681
122.463 98.8293 93.9652
109.483 95.9683 96.5984
109.081 94.8697 92.8914
107.344 96.5042 94.5546
108.648 94.2028 89.4407
106.025 97.3084 92.2302
113.613 94.2924 85.9496
115.971 94.5594 86.359
114.943 93.4362 83.3411
117.958 94.5579 86.0021
111.814 93.9466 85.3429
114.344 92.6946 80.3074
116.096 92.98 80.5433
117.046 104.095 52.9074
117.481 105.946 57.3276
115.446 105.6 56.8854
117.637 108.609 60.7696
118.787 106.864 58.5828
118.471 103.27 49.5454
116.77 102.928 48.7101
113.957 105.91 57.2158
114.282 107.686 60.1877
120.052 105.442 55.6297
120.099 103.613 51.0621
121.625 104.198 53.425
119.982 102.01 47.2397
120.11 107.154 59.7796
122.665 104.366 56.1745
122.909 102.848 52.4708
114.886 102.718 49.008
113.639 104.391 53.6274
112.936 102.93 50.7538
112.261 105.852 57.7373
116.133 101.457 45.3811
112.107 101.34 49.0981
111.019 102.871 52.4526
114.447 110.561 62.166
116.46 111.067 62.5286
115.083 112.762 64.5248
118.481 112.217 63.452
112.242 111.042 62.2204
113.473 114.486 67.0984
115.679 114.97 67.275
120.299 97.4699 45.9107
119.304 98.9135 43.2908
117.854 97.4839 45.2015
117.066 100.206 43.018
120.463 100.591 44.4957
122.682 96.7016 47.2365
121.043 95.2808 48.4215
116.224 95.3972 47.1113
115.059 96.6952 45.4015
121.947 100.698 47.2064
123.273 98.6665 48.1139
123.156 100.977 50.4823
124.392 96.8288 49.5437
124.264 101.12 53.223
119.797 92.8227 49.7485
117.206 93.1005 49.3567
118.144 90.5778 51.2896
114.921 92.7011 48.817
122.104 92.7295 50.6347
118.956 89.8956 54.3832
116.712 89.8615 53.9656
112.978 97.5598 44.2532
114.399 99.8721 44.3253
112.223 99.5197 46.9904
111.999 95.3266 46.3959
110.503 99.229 49.1743
126.712 105.593 83.8425
126.144 105.024 80.2152
125.472 103.777 82.4995
125.71 104.439 77.1497
126.622 106.458 78.3296
127.37 107.603 85.1887
127.138 106.244 87.9121
124.932 102.56 84.7757
124.994 101.363 81.7219
127.604 108.322 78.5807
127.497 108.866 82.1394
128.632 109.962 79.214
127.252 109.403 85.5976
126.931 107.981 75.9965
129.294 111.165 76.7219
128.708 111.865 80.0837
125.849 104.948 89.7153
124.532 102.776 87.799
124.525 103.204 91.3626
124.072 100.52 86.1935
127.69 106.755 91.423
124.62 103.271 94.5603
123.757 100.94 92.3036
124.934 100.614 78.3902
124.99 102.247 76.053
124.814 100.131 74.9513
125.387 103.621 73.9821
124.688 99.1825 80.132
124.886 98.0082 73.5416
124.978 99.3234 71.7102
125.075 105.917 70.2421
124.284 106.602 68.7095
124.903 103.441 66.5412
124.105 107.212 66.7294
125.899 109.09 69.1974
125.81 107.55 73.2126
125.671 104.608 71.7509
125.38 100.839 64.9691
124.474 101.531 63.3553
128.027 110.189 71.2344
127.347 109.083 73.7173
129.198 110.832 73.8959
127.137 111.174 69.5119
128.67 112.767 74.8315
125.103 101.978 70.5874
125.298 100.151 66.9619
125.055 99.7553 69.3472
125.745 98.8229 63.8435
125.512 97.876 68.6293
123.648 102.147 61.9274
123.214 105.205 63.664
124.051 103.381 60.1245
123.983 107.918 64.8276
125.068 99.9833 59.9897
124.595 102.058 56.7195
123.417 104.269 58.6713
103.449 101.03 80.1971
103.045 102.423 77.7169
102.174 102.704 81.3948
102.834 103.825 75.3152
103.964 101.86 74.3192
104.578 99.1639 79.388
104.162 100.212 82.8791
101.206 103.265 85.2697
100.918 104.33 82.585
104.963 99.8225 73.4305
105.446 98.7097 75.9853
105.973 97.9186 72.486
105.656 97.4215 77.7864
105.023 101.206 71.1408
106.026 97.2095 69.1408
106.152 96.066 71.0696
104.164 100.508 86.1431
102.326 102.087 87.5108
103.678 100.806 89.4689
100.254 103.38 88.8558
105.31 98.6117 84.2205
104.924 99.1066 90.2238
103.232 100.697 92.5615
100.508 105.35 79.7097
101.21 104.819 76.1017
99.6303 106.249 76.6962
102.526 104.706 73.3581
100.351 106.058 83.0427
98.9182 107.943 77.3767
98.8979 107.108 73.8609
106.206 102.918 66.8589
107.468 100.983 63.1688
106.612 103.573 65.1055
107.774 98.9321 59.4693
107.002 98.1255 61.3841
105.447 101.788 68.4659
104.556 104.41 70.1077
104.784 105.735 66.4749
107 104.258 63.3493
106.297 97.7132 63.7749
106.101 99.4774 67.6679
106.075 97.3544 66.4434
106.446 96.0227 60.0254
106.084 95.5659 65.5027
102.248 105.428 71.0956
102.061 106.368 68.7391
99.6943 106.664 70.956
102.999 107.782 67.1747
99.4899 108.702 71.8219
108.353 102.525 59.5662
107.93 99.8849 57.4106
108.165 100.967 55.4673
108.115 97.5718 55.8158
107.983 104.774 61.5801
109.1 102.437 54.3382
108.926 99.7912 52.1791
120.776 119.221 82.1435
118.168 119.254 80.5141
120.618 119.607 79.0241
115.511 118.84 78.9642
115.52 118.634 81.64
120.566 117.622 84.6484
122.924 118.015 83.5582
122.551 118.69 77.267
120.385 118.969 76.0061
115.373 117.58 83.8843
117.931 116.85 85.437
115.376 115.711 85.5687
120.198 114.973 85.9592
112.458 117.615 82.225
112.766 114.568 85.3298
115.467 113.181 86.42
125.103 117.621 81.5429
124.795 117.921 78.3191
126.612 116.389 79.1573
124.248 117.567 75.1117
124.746 116.064 84.0763
128.018 114.404 79.8468
127.654 114.888 76.6251
118.074 118.568 74.4252
115.559 118.411 76.0636
115.739 117.599 73.1597
112.936 117.956 77.2957
120.215 117.997 72.6341
116.053 116.629 70.0761
113.604 116.623 71.7723
107.601 117.856 79.548
104.888 117.333 80.7949
105.483 117.32 77.5283
102.771 115.589 81.743
104.727 115.863 83.6006
109.634 117.943 81.1979
110.144 117.984 78.388
106.161 116.37 74.4943
103.885 115.703 75.6673
107.292 115.656 84.6539
109.75 117.135 83.6137
110.05 115.338 85.4683
105.884 113.447 85.2482
110.977 112.676 86.2601
110.681 117.544 75.6124
108.643 116.668 73.5109
111.111 116.656 72.6928
107.308 116.002 71.0158
111.973 115.864 69.7255
101.88 114.386 76.2399
101.262 114.236 79.3755
100.219 112.596 76.7763
101.585 113.277 82.4311
103.304 114.176 72.8401
100.12 110.903 73.7832
99.2211 110.522 77.3834
120.875 86.4069 68.1254
123.556 86.2668 69.2208
122.847 87.7345 67.0847
122.889 89.335 70.5624
121.893 88.3034 71.4376
118.449 87.4594 69.8142
118.711 89.2119 67.9324
122.164 90.0273 64.729
123.556 90.5038 66.2256
119.825 88.7499 73.0276
118.074 86.8706 72.0783
117.564 89.164 74.1198
115.646 86.3505 70.2224
119.977 91.2953 74.4481
116.725 91.6486 76.6686
115.475 89.3702 74.7897
118.546 90.5392 65.3348
120.458 90.4058 63.425
118.623 90.5187 61.943
122.215 91.2253 61.3562
116.166 89.7444 66.7985
116.75 90.429 60.3115
119.13 90.0483 58.3253
123.778 92.1834 67.7677
122.887 91.9625 70.2944
124.182 93.7131 69.6262
122.09 92.7973 72.9698
124.746 92.449 64.675
125.491 95.2973 68.5346
125.048 95.6026 71.829
110.138 87.9647 68.6382
111.711 85.8414 67.2559
110.857 89.1183 65.8771
113.824 88.1275 67.1147
113.739 85.6104 68.8157
110.763 88.9967 70.8091
110.1 90.4799 69.7788
109.974 90.4188 63.5299
111.389 90.0819 62.4589
113.477 86.3496 71.3812
112.155 88.7348 72.2442
113.8 88.9663 73.8882
111.644 91.3329 73.8359
114.05 91.513 76.8219
109.398 92.0717 68.7315
109.169 91.5665 65.3384
107.764 92.6247 67.2617
108.645 91.1083 61.3922
108.874 92.3016 71.9788
106.328 93.9393 69.4605
106.323 93.3204 65.9465
113.122 90.482 61.9076
114.347 89.6298 64.8083
114.876 90.4419 60.8976
111.91 90.5054 58.7076
115.507 90.1845 57.2951
121.65 108.199 89.9084
122.557 110.396 86.8529
123.912 109.126 88.7903
124.099 113.518 85.6887
121.494 112.476 86.3193
119.404 107.379 90.7136
121.089 106.759 93.3414
125.872 108.438 90.809
126.203 110.012 87.3949
119.426 112.048 86.5345
118.329 108.859 87.6674
117.047 111.186 86.7607
122.987 106.524 94.8693
126.306 107.433 93.5256
125.035 105.17 95.6043
127.033 111.572 84.9748
126.202 113.968 84.447
127.644 113.147 82.2691
122.975 115.021 68.6638
122.099 113 65.5618
123.91 112.837 67.1542
121.018 110.21 62.6171
120.271 112.858 64.53
121.651 116.607 70.6124
123.726 116.407 71.8719
125.582 112.309 68.4725
123.9 110.425 65.9265
119.161 114.615 66.2523
119.721 116.538 69.4765
117.679 115.745 68.2633
125.42 115.632 73.0238
126.6 113.479 71.0766
127.28 114.401 73.8114
122.789 108.141 63.1584
121.317 107.675 61.3559
122.011 105.62 59.8044
121.158 95.3875 83.7612
122.782 96.2592 82.5787
122.009 94.4565 80.2086
123.81 97.7318 81.3328
123.441 98.231 84.6978
120.753 95.7317 87.3275
119.597 94.8924 85.0851
120.989 93.0504 77.412
122.703 93.6134 76.7729
123.066 98.7107 87.7655
121.947 96.7339 89.5197
122.996 98.7812 90.9862
118.845 93.3432 82.5304
119.318 92.716 78.1231
117.63 92.9623 79.431
123.808 94.5467 75.7359
124.121 97.1876 77.9521
124.68 96.4279 74.7495
126.023 95.4636 58.2804
125.033 94.1019 55.116
125.522 93.4204 58.4641
124.041 92.8733 52.516
124.844 95.2434 52.0533
125.99 97.5698 58.3409
126.419 96.9225 61.1698
125.569 93.0617 61.6013
124.016 92.0163 59.4137
125.004 97.3933 52.79
125.41 98.5111 56.4996
124.982 99.829 54.7188
126.746 96.7242 63.8478
126.244 93.9103 63.8424
126.285 95.9752 66.4198
122.401 91.0683 57.6877
122.581 91.263 53.6602
120.765 90.3208 56.051
105.421 106.188 88.5047
103.289 106.681 87.2966
104.599 108.412 85.7635
101.112 106.968 85.4624
101.524 105.335 88.9216
105.656 104.774 92.158
107.453 105.913 89.8803
105.387 110.639 85.3626
102.638 111.174 84.5506
100.477 104.283 91.5308
103.572 104.104 93.4841
101.92 102.109 93.6601
108.932 107.649 86.9362
107.539 110.674 85.8148
109.896 110.389 86.3868
100.871 110.799 82.5117
100.384 108.237 82.7562
99.4371 109.518 79.9149
106.042 109.89 64.2736
108.077 110.598 63.1561
106.311 112.338 66.2669
110.117 111.206 62.6761
110.45 107.975 61.0386
106.884 107.138 62.8829
104.509 108.722 65.5586
104.653 113.555 69.4209
106.836 114.466 68.5872
110.771 105.598 58.9005
109.26 105.174 60.2065
110.22 103.909 56.1259
102.553 109.766 68.0572
102.996 112.256 70.3849
101.054 110.6 70.9056
109.02 114.849 67.8159
110.605 113.196 64.7776
111.329 114.722 67.2831
107.477 95.1641 81.0801
108.851 94.4306 82.6226
108.545 93.4035 78.9151
110.229 93.9845 84.1634
108.758 94.7081 85.9956
106.128 96.6942 82.8456
106.287 96.1901 79.4824
108.425 92.5536 75.5726
109.868 92.0974 76.5948
107.489 95.5965 87.9206
106.392 97.0995 86.0486
106.142 97.212 89.2739
106.603 95.52 76.1596
107.495 93.4049 74.1623
106.62 94.6342 72.699
111.288 92.1423 77.7792
111.268 92.673 81.8514
112.744 92.3391 79.1587
110.271 92.0229 51.1522
108.888 93.1438 54.256
109.378 91.4802 54.5851
107.424 94.3647 57.1689
108.198 95.1117 54.373
111.016 93.5254 48.7112
112.363 91.7367 49.3397
110.495 90.4334 56.0316
108.736 91.2915 58.0492
108.85 96.1204 52.2895
110.304 95.3336 48.8476
109.738 97.4351 50.0545
113.369 90.6905 51.1767
112.216 90.0613 55.0023
114.5 90.0917 54.4296
107.297 92.0973 60.7706
106.32 93.985 60.2718
106.106 93.6001 63.2137
POLYGONS 1280  5120
3 164 162 163
3 163 44 164
3 162 43 163
3 164 42 162
3 166 165 163
3 163 43 166
3 165 44 163
3 166 14 165
3 168 167 162
3 162 42 168
3 167 43 162
3 168 13 167
3 170 169 164
3 164 44 170
3 169 42 164
3 170 12 169
3 173 171 172
3 172 46 173
3 171 43 172
3 173 45 171
3 167 174 172
3 172 43 167
3 174 46 172
3 167 13 174
3 175 166 171
3 171 45 175
3 166 43 171
3 175 14 166
3 177 176 173
3 173 46 177
3 176 45 173
3 177 4 176
3 180 178 179
3 179 48 180
3 178 42 179
3 180 47 178
3 169 181 179
3 179 42 169
3 181 48 179
3 169 12 181
3 182 168 178
3 178 47 182
3 168 42 178
3 182 13 168
3 184 183 180
3 180 48 184
3 183 47 180
3 184 8 183
3 187 185 186
3 186 50 187
3 185 44 186
3 187 49 185
3 165 188 186
3 186 44 165
3 188 50 186
3 165 14 188
3 189 170 185
3 185 49 189
3 170 44 185
3 189 12 170
3 191 190 187
3 187 50 191
3 190 49 187
3 191 7 190
3 194 192 193
3 193 53 194
3 192 52 193
3 194 51 192
3 196 195 193
3 193 52 196
3 195 53 193
3 196 16 195
3 198 197 192
3 192 51 198
3 197 52 192
3 198 14 197
3 200 199 194
3 194 53 200
3 199 51 194
3 200 15 199
3 203 201 202
3 202 45 203
3 201 52 202
3 203 54 201
3 197 175 202
3 202 52 197
3 175 45 202
3 197 14 175
3 204 196 201
3 201 54 204
3 196 52 201
3 204 16 196
3 176 205 203
3 203 45 176
3 205 54 203
3 176 4 205
3 208 206 207
3 207 55 208
3 206 51 207
3 208 50 206
3 199 209 207
3 207 51 199
3 209 55 207
3 199 15 209
3 188 198 206
3 206 50 188
3 198 51 206
3 188 14 198
3 210 191 208
3 208 55 210
3 191 50 208
3 210 7 191
3 213 211 212
3 212 57 213
3 211 53 212
3 213 56 211
3 195 214 212
3 212 53 195
3 214 57 212
3 195 16 214
3 215 200 211
3 211 56 215
3 200 53 211
3 215 15 200
3 217 216 213
3 213 57 217
3 216 56 213
3 217 9 216
3 220 218 219
3 219 60 220
3 218 59 219
3 220 58 218
3 222 221 219
3 219 59 222
3 221 60 219
3 222 19 221
3 224 223 218
3 218 58 224
3 223 59 218
3 224 18 223
3 226 225 220
3 220 60 226
3 225 58 220
3 226 17 225
3 229 227 228
3 228 62 229
3 227 59 228
3 229 61 227
3 223 230 228
3 228 59 223
3 230 62 228
3 223 18 230
3 231 222 227
3 227 61 231
3 222 59 227
3 231 19 222
3 233 232 229
3 229 62 233
3 232 61 229
3 233 5 232
3 236 234 235
3 235 64 236
3 234 58 235
3 236 63 234
3 225 237 235
3 235 58 225
3 237 64 235
3 225 17 237
3 238 224 234
3 234 63 238
3 224 58 234
3 238 18 224
3 240 239 236
3 236 64 240
3 239 63 236
3 240 6 239
3 243 241 242
3 242 66 243
3 241 60 242
3 243 65 241
3 221 244 242
3 242 60 221
3 244 66 242
3 221 19 244
3 245 226 241
3 241 65 245
3 226 60 241
3 245 17 226
3 247 246 243
3 243 66 247
3 246 65 243
3 247 11 246
3 250 248 249
3 249 69 250
3 248 68 249
3 250 67 248
3 252 251 249
3 249 68 252
3 251 69 249
3 252 18 251
3 254 253 248
3 248 67 254
3 253 68 248
3 254 21 253
3 256 255 250
3 250 69 256
3 255 67 250
3 256 20 255
3 259 257 258
3 258 70 259
3 257 68 258
3 259 62 257
3 253 260 258
3 258 68 253
3 260 70 258
3 253 21 260
3 230 252 257
3 257 62 230
3 252 68 257
3 230 18 252
3 261 233 259
3 259 70 261
3 233 62 259
3 261 5 233
3 264 262 263
3 263 72 264
3 262 67 263
3 264 71 262
3 255 265 263
3 263 67 255
3 265 72 263
3 255 20 265
3 266 254 262
3 262 71 266
3 254 67 262
3 266 21 254
3 268 267 264
3 264 72 268
3 267 71 264
3 268 10 267
3 271 269 270
3 270 63 271
3 269 69 270
3 271 73 269
3 251 238 270
3 270 69 251
3 238 63 270
3 251 18 238
3 272 256 269
3 269 73 272
3 256 69 269
3 272 20 256
3 239 273 271
3 271 63 239
3 273 73 271
3 239 6 273
3 276 274 275
3 275 76 276
3 274 75 275
3 276 74 274
3 278 277 275
3 275 75 278
3 277 76 275
3 278 24 277
3 280 279 274
3 274 74 280
3 279 75 274
3 280 23 279
3 282 281 276
3 276 76 282
3 281 74 276
3 282 22 281
3 285 283 284
3 284 78 285
3 283 75 284
3 285 77 283
3 279 286 284
3 284 75 279
3 286 78 284
3 279 23 286
3 287 278 283
3 283 77 287
3 278 75 283
3 287 24 278
3 289 288 285
3 285 78 289
3 288 77 285
3 289 0 288
3 292 290 291
3 291 80 292
3 290 74 291
3 292 79 290
3 281 293 291
3 291 74 281
3 293 80 291
3 281 22 293
3 294 280 290
3 290 79 294
3 280 74 290
3 294 23 280
3 296 295 292
3 292 80 296
3 295 79 292
3 296 4 295
3 299 297 298
3 298 82 299
3 297 76 298
3 299 81 297
3 277 300 298
3 298 76 277
3 300 82 298
3 277 24 300
3 301 282 297
3 297 81 301
3 282 76 297
3 301 22 282
3 303 302 299
3 299 82 303
3 302 81 299
3 303 3 302
3 306 304 305
3 305 85 306
3 304 84 305
3 306 83 304
3 308 307 305
3 305 84 308
3 307 85 305
3 308 26 307
3 310 309 304
3 304 83 310
3 309 84 304
3 310 24 309
3 312 311 306
3 306 85 312
3 311 83 306
3 312 25 311
3 315 313 314
3 314 77 315
3 313 84 314
3 315 86 313
3 309 287 314
3 314 84 309
3 287 77 314
3 309 24 287
3 316 308 313
3 313 86 316
3 308 84 313
3 316 26 308
3 288 317 315
3 315 77 288
3 317 86 315
3 288 0 317
3 320 318 319
3 319 87 320
3 318 83 319
3 320 82 318
3 311 321 319
3 319 83 311
3 321 87 319
3 311 25 321
3 300 310 318
3 318 82 300
3 310 83 318
3 300 24 310
3 322 303 320
3 320 87 322
3 303 82 320
3 322 3 303
3 325 323 324
3 324 89 325
3 323 85 324
3 325 88 323
3 307 326 324
3 324 85 307
3 326 89 324
3 307 26 326
3 327 312 323
3 323 88 327
3 312 85 323
3 327 25 312
3 329 328 325
3 325 89 329
3 328 88 325
3 329 5 328
3 332 330 331
3 331 92 332
3 330 91 331
3 332 90 330
3 334 333 331
3 331 91 334
3 333 92 331
3 334 29 333
3 336 335 330
3 330 90 336
3 335 91 330
3 336 28 335
3 338 337 332
3 332 92 338
3 337 90 332
3 338 27 337
3 341 339 340
3 340 94 341
3 339 91 340
3 341 93 339
3 335 342 340
3 340 91 335
3 342 94 340
3 335 28 342
3 343 334 339
3 339 93 343
3 334 91 339
3 343 29 334
3 345 344 341
3 341 94 345
3 344 93 341
3 345 2 344
3 348 346 347
3 347 96 348
3 346 90 347
3 348 95 346
3 337 349 347
3 347 90 337
3 349 96 347
3 337 27 349
3 350 336 346
3 346 95 350
3 336 90 346
3 350 28 336
3 352 351 348
3 348 96 352
3 351 95 348
3 352 7 351
3 355 353 354
3 354 98 355
3 353 92 354
3 355 97 353
3 333 356 354
3 354 92 333
3 356 98 354
3 333 29 356
3 357 338 353
3 353 97 357
3 338 92 353
3 357 27 338
3 359 358 355
3 355 98 359
3 358 97 355
3 359 1 358
3 362 360 361
3 361 101 362
3 360 100 361
3 362 99 360
3 364 363 361
3 361 100 364
3 363 101 361
3 364 31 363
3 366 365 360
3 360 99 366
3 365 100 360
3 366 29 365
3 368 367 362
3 362 101 368
3 367 99 362
3 368 30 367
3 371 369 370
3 370 93 371
3 369 100 370
3 371 102 369
3 365 343 370
3 370 100 365
3 343 93 370
3 365 29 343
3 372 364 369
3 369 102 372
3 364 100 369
3 372 31 364
3 344 373 371
3 371 93 344
3 373 102 371
3 344 2 373
3 376 374 375
3 375 103 376
3 374 99 375
3 376 98 374
3 367 377 375
3 375 99 367
3 377 103 375
3 367 30 377
3 356 366 374
3 374 98 356
3 366 99 374
3 356 29 366
3 378 359 376
3 376 103 378
3 359 98 376
3 378 1 359
3 381 379 380
3 380 105 381
3 379 101 380
3 381 104 379
3 363 382 380
3 380 101 363
3 382 105 380
3 363 31 382
3 383 368 379
3 379 104 383
3 368 101 379
3 383 30 368
3 385 384 381
3 381 105 385
3 384 104 381
3 385 6 384
3 388 386 387
3 387 108 388
3 386 107 387
3 388 106 386
3 390 389 387
3 387 107 390
3 389 108 387
3 390 34 389
3 392 391 386
3 386 106 392
3 391 107 386
3 392 33 391
3 394 393 388
3 388 108 394
3 393 106 388
3 394 32 393
3 397 395 396
3 396 110 397
3 395 107 396
3 397 109 395
3 391 398 396
3 396 107 391
3 398 110 396
3 391 33 398
3 399 390 395
3 395 109 399
3 390 107 395
3 399 34 390
3 401 400 397
3 397 110 401
3 400 109 397
3 401 8 400
3 404 402 403
3 403 112 404
3 402 106 403
3 404 111 402
3 393 405 403
3 403 106 393
3 405 112 403
3 393 32 405
3 406 392 402
3 402 111 406
3 392 106 402
3 406 33 392
3 408 407 404
3 404 112 408
3 407 111 404
3 408 0 407
3 411 409 410
3 410 114 411
3 409 108 410
3 411 113 409
3 389 412 410
3 410 108 389
3 412 114 410
3 389 34 412
3 413 394 409
3 409 113 413
3 394 108 409
3 413 32 394
3 415 414 411
3 411 114 415
3 414 113 411
3 415 11 414
3 418 416 417
3 417 117 418
3 416 116 417
3 418 115 416
3 420 419 417
3 417 116 420
3 419 117 417
3 420 36 419
3 422 421 416
3 416 115 422
3 421 116 416
3 422 34 421
3 424 423 418
3 418 117 424
3 423 115 418
3 424 35 423
3 427 425 426
3 426 109 427
3 425 116 426
3 427 118 425
3 421 399 426
3 426 116 421
3 399 109 426
3 421 34 399
3 428 420 425
3 425 118 428
3 420 116 425
3 428 36 420
3 400 429 427
3 427 109 400
3 429 118 427
3 400 8 429
3 432 430 431
3 431 119 432
3 430 115 431
3 432 114 430
3 423 433 431
3 431 115 423
3 433 119 431
3 423 35 433
3 412 422 430
3 430 114 412
3 422 115 430
3 412 34 422
3 434 415 432
3 432 119 434
3 415 114 432
3 434 11 415
3 437 435 436
3 436 121 437
3 435 117 436
3 437 120 435
3 419 438 436
3 436 117 419
3 438 121 436
3 419 36 438
3 439 424 435
3 435 120 439
3 424 117 435
3 439 35 424
3 441 440 437
3 437 121 441
3 440 120 437
3 441 1 440
3 444 442 443
3 443 124 444
3 442 123 443
3 444 122 442
3 446 445 443
3 443 123 446
3 445 124 443
3 446 39 445
3 448 447 442
3 442 122 448
3 447 123 442
3 448 38 447
3 450 449 444
3 444 124 450
3 449 122 444
3 450 37 449
3 453 451 452
3 452 126 453
3 451 123 452
3 453 125 451
3 447 454 452
3 452 123 447
3 454 126 452
3 447 38 454
3 455 446 451
3 451 125 455
3 446 123 451
3 455 39 446
3 457 456 453
3 453 126 457
3 456 125 453
3 457 9 456
3 460 458 459
3 459 128 460
3 458 122 459
3 460 127 458
3 449 461 459
3 459 122 449
3 461 128 459
3 449 37 461
3 462 448 458
3 458 127 462
3 448 122 458
3 462 38 448
3 464 463 460
3 460 128 464
3 463 127 460
3 464 10 463
3 467 465 466
3 466 130 467
3 465 124 466
3 467 129 465
3 445 468 466
3 466 124 445
3 468 130 466
3 445 39 468
3 469 450 465
3 465 129 469
3 450 124 465
3 469 37 450
3 471 470 467
3 467 130 471
3 470 129 467
3 471 3 470
3 474 472 473
3 473 133 474
3 472 132 473
3 474 131 472
3 476 475 473
3 473 132 476
3 475 133 473
3 476 38 475
3 478 477 472
3 472 131 478
3 477 132 472
3 478 41 477
3 480 479 474
3 474 133 480
3 479 131 474
3 480 40 479
3 483 481 482
3 482 134 483
3 481 132 482
3 483 126 481
3 477 484 482
3 482 132 477
3 484 134 482
3 477 41 484
3 454 476 481
3 481 126 454
3 476 132 481
3 454 38 476
3 485 457 483
3 483 134 485
3 457 126 483
3 485 9 457
3 488 486 487
3 487 136 488
3 486 131 487
3 488 135 486
3 479 489 487
3 487 131 479
3 489 136 487
3 479 40 489
3 490 478 486
3 486 135 490
3 478 131 486
3 490 41 478
3 492 491 488
3 488 136 492
3 491 135 488
3 492 2 491
3 495 493 494
3 494 127 495
3 493 133 494
3 495 137 493
3 475 462 494
3 494 133 475
3 462 127 494
3 475 38 462
3 496 480 493
3 493 137 496
3 480 133 493
3 496 40 480
3 463 497 495
3 495 127 463
3 497 137 495
3 463 10 497
3 500 498 499
3 499 140 500
3 498 139 499
3 500 138 498
3 502 501 499
3 499 139 502
3 501 140 499
3 502 33 501
3 504 503 498
3 498 138 504
3 503 139 498
3 504 13 503
3 506 505 500
3 500 140 506
3 505 138 500
3 506 23 505
3 509 507 508
3 508 47 509
3 507 139 508
3 509 110 507
3 503 182 508
3 508 139 503
3 182 47 508
3 503 13 182
3 398 502 507
3 507 110 398
3 502 139 507
3 398 33 502
3 183 401 509
3 509 47 183
3 401 110 509
3 183 8 401
3 512 510 511
3 511 79 512
3 510 138 511
3 512 46 510
3 505 294 511
3 511 138 505
3 294 79 511
3 505 23 294
3 174 504 510
3 510 46 174
3 504 138 510
3 174 13 504
3 295 177 512
3 512 79 295
3 177 46 512
3 295 4 177
3 515 513 514
3 514 111 515
3 513 140 514
3 515 78 513
3 501 406 514
3 514 140 501
3 406 111 514
3 501 33 406
3 286 506 513
3 513 78 286
3 506 140 513
3 286 23 506
3 407 289 515
3 515 111 407
3 289 78 515
3 407 0 289
3 518 516 517
3 517 143 518
3 516 142 517
3 518 141 516
3 520 519 517
3 517 142 520
3 519 143 517
3 520 19 519
3 522 521 516
3 516 141 522
3 521 142 516
3 522 32 521
3 524 523 518
3 518 143 524
3 523 141 518
3 524 26 523
3 527 525 526
3 526 113 527
3 525 142 526
3 527 66 525
3 521 413 526
3 526 142 521
3 413 113 526
3 521 32 413
3 244 520 525
3 525 66 244
3 520 142 525
3 244 19 520
3 414 247 527
3 527 113 414
3 247 66 527
3 414 11 247
3 530 528 529
3 529 86 530
3 528 141 529
3 530 112 528
3 523 316 529
3 529 141 523
3 316 86 529
3 523 26 316
3 405 522 528
3 528 112 405
3 522 141 528
3 405 32 522
3 317 408 530
3 530 86 317
3 408 112 530
3 317 0 408
3 533 531 532
3 532 61 533
3 531 143 532
3 533 89 531
3 519 231 532
3 532 143 519
3 231 61 532
3 519 19 231
3 326 524 531
3 531 89 326
3 524 143 531
3 326 26 524
3 232 329 533
3 533 61 232
3 329 89 533
3 232 5 329
3 536 534 535
3 535 146 536
3 534 145 535
3 536 144 534
3 538 537 535
3 535 145 538
3 537 146 535
3 538 22 537
3 540 539 534
3 534 144 540
3 539 145 534
3 540 16 539
3 542 541 536
3 536 146 542
3 541 144 536
3 542 39 541
3 545 543 544
3 544 54 545
3 543 145 544
3 545 80 543
3 539 204 544
3 544 145 539
3 204 54 544
3 539 16 204
3 293 538 543
3 543 80 293
3 538 145 543
3 293 22 538
3 205 296 545
3 545 54 205
3 296 80 545
3 205 4 296
3 548 546 547
3 547 125 548
3 546 144 547
3 548 57 546
3 541 455 547
3 547 144 541
3 455 125 547
3 541 39 455
3 214 540 546
3 546 57 214
3 540 144 546
3 214 16 540
3 456 217 548
3 548 125 456
3 217 57 548
3 456 9 217
3 551 549 550
3 550 81 551
3 549 146 550
3 551 130 549
3 537 301 550
3 550 146 537
3 301 81 550
3 537 22 301
3 468 542 549
3 549 130 468
3 542 146 549
3 468 39 542
3 302 471 551
3 551 81 302
3 471 130 551
3 302 3 471
3 554 552 553
3 553 149 554
3 552 148 553
3 554 147 552
3 556 555 553
3 553 148 556
3 555 149 553
3 556 21 555
3 558 557 552
3 552 147 558
3 557 148 552
3 558 25 557
3 560 559 554
3 554 149 560
3 559 147 554
3 560 37 559
3 563 561 562
3 562 88 563
3 561 148 562
3 563 70 561
3 557 327 562
3 562 148 557
3 327 88 562
3 557 25 327
3 260 556 561
3 561 70 260
3 556 148 561
3 260 21 556
3 328 261 563
3 563 88 328
3 261 70 563
3 328 5 261
3 566 564 565
3 565 129 566
3 564 147 565
3 566 87 564
3 559 469 565
3 565 147 559
3 469 129 565
3 559 37 469
3 321 558 564
3 564 87 321
3 558 147 564
3 321 25 558
3 470 322 566
3 566 129 470
3 322 87 566
3 470 3 322
3 569 567 568
3 568 71 569
3 567 149 568
3 569 128 567
3 555 266 568
3 568 149 555
3 266 71 568
3 555 21 266
3 461 560 567
3 567 128 461
3 560 149 567
3 461 37 560
3 267 464 569
3 569 71 267
3 464 128 569
3 267 10 464
3 572 570 571
3 571 152 572
3 570 151 571
3 572 150 570
3 574 573 571
3 571 151 574
3 573 152 571
3 574 27 573
3 576 575 570
3 570 150 576
3 575 151 570
3 576 12 575
3 578 577 572
3 572 152 578
3 577 150 572
3 578 36 577
3 581 579 580
3 580 49 581
3 579 151 580
3 581 96 579
3 575 189 580
3 580 151 575
3 189 49 580
3 575 12 189
3 349 574 579
3 579 96 349
3 574 151 579
3 349 27 574
3 190 352 581
3 581 49 190
3 352 96 581
3 190 7 352
3 584 582 583
3 583 118 584
3 582 150 583
3 584 48 582
3 577 428 583
3 583 150 577
3 428 118 583
3 577 36 428
3 181 576 582
3 582 48 181
3 576 150 582
3 181 12 576
3 429 184 584
3 584 118 429
3 184 48 584
3 429 8 184
3 587 585 586
3 586 97 587
3 585 152 586
3 587 121 585
3 573 357 586
3 586 152 573
3 357 97 586
3 573 27 357
3 438 578 585
3 585 121 438
3 578 152 585
3 438 36 578
3 358 441 587
3 587 97 358
3 441 121 587
3 358 1 441
3 590 588 589
3 589 155 590
3 588 154 589
3 590 153 588
3 592 591 589
3 589 154 592
3 591 155 589
3 592 17 591
3 594 593 588
3 588 153 594
3 593 154 588
3 594 30 593
3 596 595 590
3 590 155 596
3 595 153 590
3 596 35 595
3 599 597 598
3 598 104 599
3 597 154 598
3 599 64 597
3 593 383 598
3 598 154 593
3 383 104 598
3 593 30 383
3 237 592 597
3 597 64 237
3 592 154 597
3 237 17 592
3 384 240 599
3 599 104 384
3 240 64 599
3 384 6 240
3 602 600 601
3 601 120 602
3 600 153 601
3 602 103 600
3 595 439 601
3 601 153 595
3 439 120 601
3 595 35 439
3 377 594 600
3 600 103 377
3 594 153 600
3 377 30 594
3 440 378 602
3 602 120 440
3 378 103 602
3 440 1 378
3 605 603 604
3 604 65 605
3 603 155 604
3 605 119 603
3 591 245 604
3 604 155 591
3 245 65 604
3 591 17 245
3 433 596 603
3 603 119 433
3 596 155 603
3 433 35 596
3 246 434 605
3 605 65 246
3 434 119 605
3 246 11 434
3 608 606 607
3 607 158 608
3 606 157 607
3 608 156 606
3 610 609 607
3 607 157 610
3 609 158 607
3 610 15 609
3 612 611 606
3 606 156 612
3 611 157 606
3 612 28 611
3 614 613 608
3 608 158 614
3 613 156 608
3 614 41 613
3 617 615 616
3 616 95 617
3 615 157 616
3 617 55 615
3 611 350 616
3 616 157 611
3 350 95 616
3 611 28 350
3 209 610 615
3 615 55 209
3 610 157 615
3 209 15 610
3 351 210 617
3 617 95 351
3 210 55 617
3 351 7 210
3 620 618 619
3 619 135 620
3 618 156 619
3 620 94 618
3 613 490 619
3 619 156 613
3 490 135 619
3 613 41 490
3 342 612 618
3 618 94 342
3 612 156 618
3 342 28 612
3 491 345 620
3 620 135 491
3 345 94 620
3 491 2 345
3 623 621 622
3 622 56 623
3 621 158 622
3 623 134 621
3 609 215 622
3 622 158 609
3 215 56 622
3 609 15 215
3 484 614 621
3 621 134 484
3 614 158 621
3 484 41 614
3 216 485 623
3 623 56 216
3 485 134 623
3 216 9 485
3 626 624 625
3 625 161 626
3 624 160 625
3 626 159 624
3 628 627 625
3 625 160 628
3 627 161 625
3 628 31 627
3 630 629 624
3 624 159 630
3 629 160 624
3 630 20 629
3 632 631 626
3 626 161 632
3 631 159 626
3 632 40 631
3 635 633 634
3 634 73 635
3 633 160 634
3 635 105 633
3 629 272 634
3 634 160 629
3 272 73 634
3 629 20 272
3 382 628 633
3 633 105 382
3 628 160 633
3 382 31 628
3 273 385 635
3 635 73 273
3 385 105 635
3 273 6 385
3 638 636 637
3 637 137 638
3 636 159 637
3 638 72 636
3 631 496 637
3 637 159 631
3 496 137 637
3 631 40 496
3 265 630 636
3 636 72 265
3 630 159 636
3 265 20 630
3 497 268 638
3 638 137 497
3 268 72 638
3 497 10 268
3 641 639 640
3 640 102 641
3 639 161 640
3 641 136 639
3 627 372 640
3 640 161 627
3 372 102 640
3 627 31 372
3 489 632 639
3 639 136 489
3 632 161 639
3 489 40 632
3 373 492 641
3 641 102 373
3 492 136 641
3 373 2 492
