# vtk DataFile Version 3.0
this file was written using fslvtkio
ASCII
DATASET POLYDATA
POINTS 642 float
101.702 112.499 129.732
72.7906 112.224 129.543
76.8332 99.7604 121.514
96.9242 99.3413 122.697
98.4526 99.6031 145.572
94.8294 106.767 108.197
79.9907 107.187 105.006
77.4003 99.8815 145.443
86.9583 112.966 139.208
87.4126 93.629 129.897
87.4774 94.6243 110.367
86.6797 117.339 123.322
81.6794 104.441 145.051
92.4514 104.244 144.13
87.0674 97.5901 150.264
82.7122 94.8384 139.549
93.1028 94.147 139.859
83.7926 111.253 114.284
88.163 108.348 98.1023
90.7155 111.649 115.579
83.0048 100.74 102.078
94.3273 99.2593 103.058
97.6484 100.101 134.605
101.255 106.802 139.547
97.5839 107.204 126.951
97.1245 101.778 114.065
95.9558 110.875 120.426
72.4082 107.418 140.877
77.4514 100.638 134.357
78.0776 107.302 126.559
79.703 110.225 119.286
77.2055 102.376 111.627
95.2196 117.906 126.906
97.0128 115.291 137.767
86.0869 118.87 133.647
78.1022 117.378 126.577
77.0548 115.023 138.526
94.4024 95.4139 115.168
86.6571 92.183 121.632
93.1403 94.3124 125.867
80.2328 96.4037 113.099
81.2267 95.4339 126.377
87.2492 104.365 145.141
90.9112 101.77 150.458
82.9607 101.558 151.277
94.7865 96.7673 150.413
97.0944 102.487 148.152
89.6725 108.013 139.126
84.6198 107.941 139.807
76.9192 103.163 148.599
80.5079 96.9632 150.013
84.4874 93.8497 146.043
91.2045 94.1255 146.211
87.7766 93.9005 140.066
96.2299 96.0177 143.401
79.4968 96.3368 143
85.3726 94.5514 134.972
90.0399 94.3542 135.117
85.5129 110.287 104.88
89.6973 110.387 106.067
87.3814 110.535 114.004
92.6853 109.578 110.349
92.1756 107.712 102.493
83.1459 108.147 99.7745
81.737 110.307 108.291
84.5906 115.778 118.772
89.3013 115.758 119.263
88.5734 100.482 101.723
92.2491 104.425 99.3094
85.3758 105.36 96.9543
95.0285 103.573 104.671
90.5002 96.0462 105.939
85.2366 96.3682 105.326
80.5299 103.835 101.547
99.9059 103.802 137.23
100.429 106.888 132.501
97.1501 103.992 130.995
100.964 109.58 128.025
101.848 109.858 134.56
100.662 103.344 143.431
98.0354 100.282 140.232
96.8515 100.174 128.543
95.5382 103.811 124.97
94.9821 105.436 121.174
97.5511 109.471 123.693
93.5298 106.403 118.162
100.108 112.059 124.472
97.0973 100.603 118.463
95.8667 104.145 111.17
93.3039 108.14 114.759
75.1987 104.382 138.369
77.4245 104.171 130.594
74.9667 107.209 133.547
78.5899 103.6 123.926
77.8098 100.409 127.776
77.5537 100.622 140.084
74.1845 103.601 144.311
72.8326 109.733 134.712
74.6247 110.013 128.04
78.7919 108.873 122.929
79.652 104.827 119.269
80.6564 106.013 114.791
76.4955 101.085 116.715
74.9247 111.754 123.886
79.7955 108.455 111.26
78.5008 104.48 107.814
97.1095 118.666 133.213
92.1633 118.547 136.258
91.3811 119.557 130.631
86.3065 117.235 137.789
92.0203 114.332 139.57
100.64 114.825 134.083
99.1196 115.663 128.395
90.9548 118.34 124.881
86.2629 118.526 128.502
81.3782 119.504 130.717
80.5894 118.82 136.751
76.5404 118.027 133.282
81.9853 114.238 139.856
82.252 118.329 124.593
74.5893 115.244 128.173
73.68 114.495 134.391
91.6898 93.2131 119.176
91.9053 88.6894 122.803
95.346 92.4392 120.632
90.7304 93.1208 127.987
86.9927 90.163 125.04
87.0349 95.1222 116.858
90.9962 95.1134 112.42
96.9132 96.3277 118.503
95.7874 96.2669 124.59
80.1259 94.8252 120.303
82.1309 90.9317 122.963
82.9923 94.8826 118.747
84.0133 93.7619 128.267
78.6962 97.488 124.079
77.5158 97.108 117.093
83.9794 96.0581 111.423
96.5167 105.562 141.914
93.9173 108.763 137.976
98.7876 110.43 137.25
96.9823 114.69 123.206
93.3637 116.153 120.97
93.7797 112.063 117.639
93.3812 94.8338 133.133
96.144 96.9291 137.481
95.9762 96.9018 130.36
97.8746 97.6542 113.507
96.4491 100.335 108.068
94.8777 96.2141 108.657
80.2174 108.91 139.087
77.309 106.189 142.982
75.1138 110.725 138.341
76.873 114.375 122.386
81.0535 111.122 116.477
80.5953 115.686 120.403
78.9169 97.6234 130.572
79.2199 97.1903 137.334
81.8625 95.5038 133.082
80.9391 97.1243 106.333
78.6705 100.712 105.349
77.1412 98.6317 111.691
88.53 102.748 147.998
86.967 101.684 150.47
85.4792 102.578 148.318
84.74 99.4944 151.624
89.0071 99.574 150.942
91.6462 102.894 147.063
89.9789 104.236 144.78
84.3722 104.29 145.31
82.3537 102.736 148.107
93.1582 99.6799 151.859
94.2081 102.063 149.586
96.0534 99.8278 150.638
94.3649 103.1 146.166
91.3022 97.5196 150.871
96.9536 97.8366 148.409
98.1143 100.533 147.822
88.4965 105.77 142.1
85.8513 105.748 142.432
87.1632 107.725 139.59
83.4346 105.844 142.322
90.6604 105.762 141.537
88.3995 110.634 139.019
85.6907 110.486 139.243
79.753 101.963 150.633
81.2725 99.1772 152.011
78.2888 99.8456 150.741
83.5589 96.7871 150.72
79.7519 103.431 147.482
76.9053 100.783 148.254
78.5893 98.4741 148.26
87.835 94.5636 146.318
89.4242 92.6853 143.246
86.1902 92.7589 143.125
90.5379 93.6429 140.031
92.617 92.4496 143.072
89.6228 95.771 149.032
85.7717 95.1904 149.096
82.8996 92.5429 142.617
85.0788 94.0733 139.826
94.1574 94.3638 145.1
93.0178 94.9882 149.15
95.8199 96.0307 146.915
95.1454 94.1781 141.551
97.4194 97.8311 144.865
82.4062 94.8896 148.319
81.3677 94.3908 144.78
79.7932 96.4441 146.699
80.5721 94.4918 141.334
78.205 98.0944 144.391
86.4642 94.8417 137.784
89.2287 94.6897 137.992
87.6935 94.6549 135.147
91.3945 94.6114 137.599
84.241 94.8699 137.502
86.5991 94.2063 132.489
88.6055 94.185 132.622
87.618 110.089 105.179
88.426 110.912 109.543
86.442 110.864 109.167
88.9275 111.247 114.375
89.9723 110.993 110.915
88.8824 109.446 102.011
86.5095 109.565 101.041
84.8663 111.039 109.317
85.5753 110.885 113.353
91.3544 110.493 108.34
90.8727 109.137 103.924
92.5722 108.895 106.447
90.5024 108.297 100.034
91.2523 110.518 112.234
93.8031 108.239 108.658
93.5281 107.442 105.274
84.3464 109.542 101.906
83.6095 110.66 106.648
82.5543 109.253 104.221
83.2201 110.974 110.402
85.2997 108.686 97.7729
81.6905 107.876 102.52
80.9858 108.844 105.706
85.9218 112.672 116.454
88.1103 113.124 116.836
86.8187 115.06 118.482
90.3285 113.967 117.519
83.8944 113.651 116.734
85.557 116.815 121.129
88.023 116.665 121.26
90.7555 102.562 99.0234
89.2637 105.334 97.3199
88.022 103.116 98.6265
86.6229 107.302 96.2261
90.6719 106.999 98.1044
93.4276 101.761 100.514
91.3234 100.22 102.036
86.0787 101.271 101.045
84.6092 102.897 98.8724
92.5438 106.151 100.817
94.1187 103.782 101.636
94.2747 105.851 103.912
94.9038 101.675 102.852
94.8558 105.449 106.427
89.6236 97.9865 103.661
86.9004 98.4455 103.127
87.9108 96.135 104.929
84.6842 99 103.016
92.1351 97.8285 104.198
88.9495 95.0238 107.638
86.3848 95.1354 107.494
82.2949 104.35 98.8188
83.3707 106.944 97.8344
81.2192 106.171 101.087
81.4744 102.014 100.932
80.1481 105.73 103.331
100.192 105.101 134.684
98.9035 105.327 131.884
98.6002 103.878 134.047
97.5246 105.892 129.071
99.3085 106.996 129.881
101.081 106.653 135.773
101.346 105.208 138.128
98.5312 102.275 135.824
97.5964 102.065 133.083
100.587 108.589 130.374
101.322 108.411 133.669
101.958 109.658 131.02
101.23 108.267 137.014
99.1829 108.453 127.724
102.09 110.835 128.689
102.162 111.202 132.01
100.716 103.648 140.23
98.6057 102.373 138.716
99.0875 102.089 141.881
97.7004 100.394 137.366
101.71 105.037 141.323
99.1582 101.77 144.993
98.2468 100.059 142.976
96.902 102.119 130.084
96.1734 104.461 128.125
96.1464 102.066 126.952
96.2123 105.833 126.302
97.3622 100.226 131.643
96.7111 99.9866 125.531
95.9774 101.61 123.891
95.6694 107.814 123.014
95.1005 108.335 121.377
94.2897 106.067 119.674
94.3621 108.872 119.851
96.9047 110.305 122.093
97.5859 108.331 125.365
95.9537 106.712 124.104
95.1774 103.377 117.801
94.6022 103.951 116.113
99.4691 110.52 123.804
99.5593 109.67 125.73
101.382 110.691 125.9
98.5753 111.737 122.152
101.236 112.427 126.927
95.2234 104.876 123.129
95.5005 102.916 119.619
95.8166 102.269 121.785
97.1715 101.289 116.4
96.9707 100.057 120.693
94.6277 105.171 114.761
93.4582 107.501 116.992
95.0357 106.453 113.079
93.8082 109.49 118.204
96.0864 103.039 112.766
95.4583 105.544 109.851
94.4764 107.509 111.337
76.4137 104.146 134.037
76.3663 105.801 131.947
74.9465 105.52 135.708
76.3205 107.292 130.209
77.5419 105.985 128.793
77.2154 102.439 132.992
76.4704 102.846 136.447
73.1827 105.588 139.789
73.5407 106.961 137.206
77.9599 104.25 127.202
77.7005 102.468 129.393
78.1264 102.11 125.93
77.7 100.684 131.09
78.5656 105.531 125.5
77.9153 101.623 122.763
77.4221 100.182 124.578
76.6184 102.488 139.212
74.555 103.953 141.162
76.0746 102.345 142.564
72.6141 105.289 142.878
77.4501 100.791 137.095
77.2414 100.436 142.932
75.9044 101.787 145.507
73.7576 108.406 133.832
75.0062 108.814 130.359
73.0653 109.838 130.918
76.7755 108.554 127.51
73.166 108.469 137.756
72.5049 111.091 131.999
72.9457 111.032 128.442
80.3414 106.787 121.089
80.592 105.229 116.984
80.7187 107.181 119.045
78.7376 104.122 112.981
78.4395 103.311 115.288
79.2484 106.218 123.071
78.7179 107.988 124.418
79.5584 109.426 120.991
80.9889 108.116 117.249
78.1211 102.756 117.771
79.0445 104.376 121.858
78.0954 101.963 120.208
76.7386 101.671 114.112
76.4063 100.415 119.317
76.7166 109.596 125.607
77.074 110.626 123.447
74.4042 110.831 125.645
77.4934 111.259 121.797
73.2571 112.079 126.486
79.8943 107.415 113.41
78.645 105.513 111.265
78.6337 106.773 109.449
78.0882 103.427 109.794
81.2339 108.757 115.581
79.2238 108.225 107.906
78.9581 105.99 106.329
94.8757 119.004 134.783
91.9907 119.478 133.432
94.3792 119.453 131.755
89.0743 119.19 132.432
89.3935 118.808 134.881
94.7268 117.693 137.422
97.255 117.673 136.134
95.9778 118.439 130.103
93.5398 119.106 128.975
89.3343 117.843 137.121
92.0408 116.957 138.394
89.4474 116.059 138.84
94.567 115.212 138.749
86.1709 118.439 135.856
86.6288 115.42 138.868
89.4039 113.587 139.576
99.1012 117.013 133.892
98.2322 117.317 130.896
100.104 115.698 131.346
97.248 117.039 128.052
99.1874 115.602 136.301
101.38 113.692 131.599
100.634 114.144 128.808
91.0951 119.179 127.76
88.8037 119.115 129.663
88.6021 118.744 126.73
86.3211 119.149 131.166
93.1663 118.508 125.939
88.8093 117.766 123.914
86.4056 118.261 125.627
80.9316 119.604 133.751
78.2749 119.08 135.041
78.7606 119.174 131.878
76.416 117.311 136.283
78.3433 117.667 137.906
83.2164 119.222 135.112
83.5101 119.525 132.439
79.299 118.568 128.992
77.2026 118.03 130.245
81.0058 117.005 138.753
83.4706 118.302 137.492
83.8041 116.238 139.1
79.4209 114.911 139.343
84.6189 113.549 139.858
83.9023 119.416 129.74
81.6978 118.785 127.85
84.0663 118.53 126.811
80.0481 118.161 125.583
84.4529 117.797 123.83
75.4764 116.639 130.994
74.9615 116.355 134.113
73.8098 115.188 131.366
74.9893 115.174 136.887
76.361 116.522 127.885
73.3834 113.726 128.589
72.7664 113.466 131.698
92.001 89.5146 119.887
94.9573 89.2169 120.982
93.9154 91.8575 119.348
94.4372 92.0402 122.693
93.6482 90.4053 123.358
89.5439 90.2037 121.872
89.9078 92.7794 120.659
93.1781 94.1385 117.05
94.8604 93.8693 118.464
91.6602 90.7843 124.968
89.4566 89.3046 124.184
89.4688 91.2882 126.462
86.8649 89.9303 122.699
92.2409 93.2585 126.523
88.8614 93.4323 128.979
87.1853 91.9833 127.243
89.1976 94.4621 118.125
90.9414 94.611 116.078
88.9862 94.9137 114.749
92.7557 95.3472 113.814
87.2708 94.2513 120.15
87.0445 94.8404 113.306
89.4549 94.7174 111.057
95.2614 94.9508 120.024
94.3834 94.5926 122.617
95.9235 96.2243 121.828
94.165 95.0767 125.169
95.8438 95.5066 116.982
97.018 97.5821 120.56
96.516 97.8046 123.598
80.396 92.7684 121.286
82.4978 91.7664 120.08
81.6726 94.8309 119.342
84.1542 93.8117 120.751
84.5411 90.5466 121.339
81.4793 93.2221 123.95
80.632 94.7802 123.132
80.3685 95.8537 117.14
81.6611 96.0343 115.613
84.5256 90.277 123.956
83.2057 92.4146 125.362
85.1891 91.6662 126.488
82.4999 94.4628 127.049
85.7521 93.6366 129.096
79.6772 96.3854 122.206
79.0856 96.277 118.777
78.1819 97.3829 120.818
78.7751 96.6025 114.842
79.8719 96.2745 125.295
77.495 98.5413 122.865
76.7095 98.2294 119.373
83.6663 95.6523 115.183
85.3263 95.1651 118.233
85.4591 95.3917 114.314
82.0752 96.1708 112.182
85.7315 95.3552 110.678
94.8677 107.14 139.905
96.0525 109.833 137.389
96.8524 107.706 138.847
98.3807 113.116 137.358
95.4609 112.392 138.081
92.62 106.273 140.707
94.3477 104.841 142.997
98.5008 106.411 140.57
99.6057 108.474 138.454
93.2838 112.054 138.784
91.8116 108.304 138.418
90.8192 111.27 139.39
96.4 104 144.755
99.0782 105.342 143.161
99.4264 103.363 145.94
101.022 110.484 136.246
100.376 113.115 135.961
101.618 112.424 133.832
95.2744 115.622 122.025
93.8634 114.284 118.996
95.7098 113.784 120.254
92.233 111.88 116.131
92.0753 114.417 118.135
94.3673 117.096 124.065
96.2908 116.405 125.083
97.2224 112.861 121.286
94.9504 111.569 119.06
91.3975 116.058 119.951
92.3483 117.298 123.054
90.1959 117.08 121.978
98.0568 115.492 125.866
98.8142 113.612 123.773
99.8617 114.022 126.248
93.3017 110.046 116.601
92.1986 110.176 114.454
93.2598 108.761 112.492
94.7501 95.9662 135.308
96.138 96.9648 133.862
94.7878 95.8299 131.62
96.9381 98.4526 132.62
97.2206 98.2894 135.879
94.61 95.6605 138.762
93.1384 95.1328 136.702
93.3846 94.6467 129.529
94.7434 95.3498 128.292
97.0792 98.5971 138.914
96.334 96.3706 140.557
97.4388 98.163 141.978
91.7727 94.4562 134.213
91.8643 94.2425 130.251
90.2299 94.1207 131.494
95.7003 96.5929 127.299
96.8046 98.4987 129.592
96.5043 98.2472 126.381
97.3187 99.0719 110.746
96.2481 98.0481 107.785
96.8 96.8158 110.7
94.6844 97.4611 105.594
95.7701 99.7157 105.12
97.2066 101.104 111.062
98.0756 99.7976 113.39
96.5165 96.2272 113.864
94.8539 95.8482 111.911
95.6834 101.682 105.85
96.4272 102.283 109.317
95.6079 103.854 107.817
98.4017 99.1904 115.932
97.6624 96.8042 116.022
98.049 98.3358 118.438
92.9957 95.7377 110.512
92.7051 96.3685 106.682
90.9162 95.6133 109.039
79.0758 107.434 141.198
76.7372 108.253 140.089
77.8429 109.915 138.73
73.9548 109.039 139.467
74.792 107.332 142.189
79.5959 105.181 144.133
81.3266 106.527 141.733
78.621 112.139 138.768
75.8625 112.88 138.028
74.3742 105.819 144.7
77.8589 104.69 145.702
75.1583 103.315 146.619
82.5076 108.309 139.238
80.8717 111.756 138.964
83.4094 111.194 139.437
73.8707 112.906 136.335
73.6001 110.541 136.584
72.7754 112.173 133.899
78.6372 113.117 119.246
80.4206 113.593 118.023
78.6957 115.196 121.212
82.1712 113.994 117.417
82.444 111.222 115.169
80.1876 110.746 117.938
77.332 112.357 120.714
77.2435 116.131 124.467
79.2875 116.85 123.427
81.7617 110.407 112.171
81.2675 109.383 113.786
80.5072 109.325 109.365
75.3672 113.167 123.168
75.6998 115.037 125.336
74.0933 113.616 125.99
81.2754 117.148 122.617
82.588 115.789 119.398
83.4184 117.204 121.585
79.0358 97.4564 133.831
80.5932 96.3504 135.255
80.2629 96.4061 131.644
82.497 95.6034 136.604
80.908 95.9975 138.56
78.0377 98.7548 135.78
78.0544 99.0454 132.594
80.0623 96.5586 128.601
81.477 95.5555 129.733
79.4089 96.7868 140.28
78.3957 98.9064 138.618
78.2413 98.5856 141.694
78.1398 99.0306 129.316
79.0021 97.5168 127.242
77.8232 98.7069 125.957
83.0262 94.7881 130.511
83.5692 94.9886 134.372
84.7547 94.3522 131.59
79.605 98.6638 105.064
78.2022 99.4578 107.982
78.7891 97.7282 108.176
77.1985 100.32 111.174
77.9332 101.36 108.573
80.5049 100.248 102.999
82.1889 98.6168 103.795
80.1989 96.7458 109.709
78.4809 97.2574 111.679
78.5253 102.526 106.629
79.8744 102.048 103.31
79.3265 103.993 104.538
83.2049 97.5036 105.478
82.1549 96.3788 109.172
84.5151 96.1054 108.381
77.0293 97.6446 114.446
76.1998 99.8072 114.111
76.0143 98.9295 116.941
POLYGONS 1280  5120
3 164 162 163
3 163 44 164
3 162 43 163
3 164 42 162
3 166 165 163
3 163 43 166
3 165 44 163
3 166 14 165
3 168 167 162
3 162 42 168
3 167 43 162
3 168 13 167
3 170 169 164
3 164 44 170
3 169 42 164
3 170 12 169
3 173 171 172
3 172 46 173
3 171 43 172
3 173 45 171
3 167 174 172
3 172 43 167
3 174 46 172
3 167 13 174
3 175 166 171
3 171 45 175
3 166 43 171
3 175 14 166
3 177 176 173
3 173 46 177
3 176 45 173
3 177 4 176
3 180 178 179
3 179 48 180
3 178 42 179
3 180 47 178
3 169 181 179
3 179 42 169
3 181 48 179
3 169 12 181
3 182 168 178
3 178 47 182
3 168 42 178
3 182 13 168
3 184 183 180
3 180 48 184
3 183 47 180
3 184 8 183
3 187 185 186
3 186 50 187
3 185 44 186
3 187 49 185
3 165 188 186
3 186 44 165
3 188 50 186
3 165 14 188
3 189 170 185
3 185 49 189
3 170 44 185
3 189 12 170
3 191 190 187
3 187 50 191
3 190 49 187
3 191 7 190
3 194 192 193
3 193 53 194
3 192 52 193
3 194 51 192
3 196 195 193
3 193 52 196
3 195 53 193
3 196 16 195
3 198 197 192
3 192 51 198
3 197 52 192
3 198 14 197
3 200 199 194
3 194 53 200
3 199 51 194
3 200 15 199
3 203 201 202
3 202 45 203
3 201 52 202
3 203 54 201
3 197 175 202
3 202 52 197
3 175 45 202
3 197 14 175
3 204 196 201
3 201 54 204
3 196 52 201
3 204 16 196
3 176 205 203
3 203 45 176
3 205 54 203
3 176 4 205
3 208 206 207
3 207 55 208
3 206 51 207
3 208 50 206
3 199 209 207
3 207 51 199
3 209 55 207
3 199 15 209
3 188 198 206
3 206 50 188
3 198 51 206
3 188 14 198
3 210 191 208
3 208 55 210
3 191 50 208
3 210 7 191
3 213 211 212
3 212 57 213
3 211 53 212
3 213 56 211
3 195 214 212
3 212 53 195
3 214 57 212
3 195 16 214
3 215 200 211
3 211 56 215
3 200 53 211
3 215 15 200
3 217 216 213
3 213 57 217
3 216 56 213
3 217 9 216
3 220 218 219
3 219 60 220
3 218 59 219
3 220 58 218
3 222 221 219
3 219 59 222
3 221 60 219
3 222 19 221
3 224 223 218
3 218 58 224
3 223 59 218
3 224 18 223
3 226 225 220
3 220 60 226
3 225 58 220
3 226 17 225
3 229 227 228
3 228 62 229
3 227 59 228
3 229 61 227
3 223 230 228
3 228 59 223
3 230 62 228
3 223 18 230
3 231 222 227
3 227 61 231
3 222 59 227
3 231 19 222
3 233 232 229
3 229 62 233
3 232 61 229
3 233 5 232
3 236 234 235
3 235 64 236
3 234 58 235
3 236 63 234
3 225 237 235
3 235 58 225
3 237 64 235
3 225 17 237
3 238 224 234
3 234 63 238
3 224 58 234
3 238 18 224
3 240 239 236
3 236 64 240
3 239 63 236
3 240 6 239
3 243 241 242
3 242 66 243
3 241 60 242
3 243 65 241
3 221 244 242
3 242 60 221
3 244 66 242
3 221 19 244
3 245 226 241
3 241 65 245
3 226 60 241
3 245 17 226
3 247 246 243
3 243 66 247
3 246 65 243
3 247 11 246
3 250 248 249
3 249 69 250
3 248 68 249
3 250 67 248
3 252 251 249
3 249 68 252
3 251 69 249
3 252 18 251
3 254 253 248
3 248 67 254
3 253 68 248
3 254 21 253
3 256 255 250
3 250 69 256
3 255 67 250
3 256 20 255
3 259 257 258
3 258 70 259
3 257 68 258
3 259 62 257
3 253 260 258
3 258 68 253
3 260 70 258
3 253 21 260
3 230 252 257
3 257 62 230
3 252 68 257
3 230 18 252
3 261 233 259
3 259 70 261
3 233 62 259
3 261 5 233
3 264 262 263
3 263 72 264
3 262 67 263
3 264 71 262
3 255 265 263
3 263 67 255
3 265 72 263
3 255 20 265
3 266 254 262
3 262 71 266
3 254 67 262
3 266 21 254
3 268 267 264
3 264 72 268
3 267 71 264
3 268 10 267
3 271 269 270
3 270 63 271
3 269 69 270
3 271 73 269
3 251 238 270
3 270 69 251
3 238 63 270
3 251 18 238
3 272 256 269
3 269 73 272
3 256 69 269
3 272 20 256
3 239 273 271
3 271 63 239
3 273 73 271
3 239 6 273
3 276 274 275
3 275 76 276
3 274 75 275
3 276 74 274
3 278 277 275
3 275 75 278
3 277 76 275
3 278 24 277
3 280 279 274
3 274 74 280
3 279 75 274
3 280 23 279
3 282 281 276
3 276 76 282
3 281 74 276
3 282 22 281
3 285 283 284
3 284 78 285
3 283 75 284
3 285 77 283
3 279 286 284
3 284 75 279
3 286 78 284
3 279 23 286
3 287 278 283
3 283 77 287
3 278 75 283
3 287 24 278
3 289 288 285
3 285 78 289
3 288 77 285
3 289 0 288
3 292 290 291
3 291 80 292
3 290 74 291
3 292 79 290
3 281 293 291
3 291 74 281
3 293 80 291
3 281 22 293
3 294 280 290
3 290 79 294
3 280 74 290
3 294 23 280
3 296 295 292
3 292 80 296
3 295 79 292
3 296 4 295
3 299 297 298
3 298 82 299
3 297 76 298
3 299 81 297
3 277 300 298
3 298 76 277
3 300 82 298
3 277 24 300
3 301 282 297
3 297 81 301
3 282 76 297
3 301 22 282
3 303 302 299
3 299 82 303
3 302 81 299
3 303 3 302
3 306 304 305
3 305 85 306
3 304 84 305
3 306 83 304
3 308 307 305
3 305 84 308
3 307 85 305
3 308 26 307
3 310 309 304
3 304 83 310
3 309 84 304
3 310 24 309
3 312 311 306
3 306 85 312
3 311 83 306
3 312 25 311
3 315 313 314
3 314 77 315
3 313 84 314
3 315 86 313
3 309 287 314
3 314 84 309
3 287 77 314
3 309 24 287
3 316 308 313
3 313 86 316
3 308 84 313
3 316 26 308
3 288 317 315
3 315 77 288
3 317 86 315
3 288 0 317
3 320 318 319
3 319 87 320
3 318 83 319
3 320 82 318
3 311 321 319
3 319 83 311
3 321 87 319
3 311 25 321
3 300 310 318
3 318 82 300
3 310 83 318
3 300 24 310
3 322 303 320
3 320 87 322
3 303 82 320
3 322 3 303
3 325 323 324
3 324 89 325
3 323 85 324
3 325 88 323
3 307 326 324
3 324 85 307
3 326 89 324
3 307 26 326
3 327 312 323
3 323 88 327
3 312 85 323
3 327 25 312
3 329 328 325
3 325 89 329
3 328 88 325
3 329 5 328
3 332 330 331
3 331 92 332
3 330 91 331
3 332 90 330
3 334 333 331
3 331 91 334
3 333 92 331
3 334 29 333
3 336 335 330
3 330 90 336
3 335 91 330
3 336 28 335
3 338 337 332
3 332 92 338
3 337 90 332
3 338 27 337
3 341 339 340
3 340 94 341
3 339 91 340
3 341 93 339
3 335 342 340
3 340 91 335
3 342 94 340
3 335 28 342
3 343 334 339
3 339 93 343
3 334 91 339
3 343 29 334
3 345 344 341
3 341 94 345
3 344 93 341
3 345 2 344
3 348 346 347
3 347 96 348
3 346 90 347
3 348 95 346
3 337 349 347
3 347 90 337
3 349 96 347
3 337 27 349
3 350 336 346
3 346 95 350
3 336 90 346
3 350 28 336
3 352 351 348
3 348 96 352
3 351 95 348
3 352 7 351
3 355 353 354
3 354 98 355
3 353 92 354
3 355 97 353
3 333 356 354
3 354 92 333
3 356 98 354
3 333 29 356
3 357 338 353
3 353 97 357
3 338 92 353
3 357 27 338
3 359 358 355
3 355 98 359
3 358 97 355
3 359 1 358
3 362 360 361
3 361 101 362
3 360 100 361
3 362 99 360
3 364 363 361
3 361 100 364
3 363 101 361
3 364 31 363
3 366 365 360
3 360 99 366
3 365 100 360
3 366 29 365
3 368 367 362
3 362 101 368
3 367 99 362
3 368 30 367
3 371 369 370
3 370 93 371
3 369 100 370
3 371 102 369
3 365 343 370
3 370 100 365
3 343 93 370
3 365 29 343
3 372 364 369
3 369 102 372
3 364 100 369
3 372 31 364
3 344 373 371
3 371 93 344
3 373 102 371
3 344 2 373
3 376 374 375
3 375 103 376
3 374 99 375
3 376 98 374
3 367 377 375
3 375 99 367
3 377 103 375
3 367 30 377
3 356 366 374
3 374 98 356
3 366 99 374
3 356 29 366
3 378 359 376
3 376 103 378
3 359 98 376
3 378 1 359
3 381 379 380
3 380 105 381
3 379 101 380
3 381 104 379
3 363 382 380
3 380 101 363
3 382 105 380
3 363 31 382
3 383 368 379
3 379 104 383
3 368 101 379
3 383 30 368
3 385 384 381
3 381 105 385
3 384 104 381
3 385 6 384
3 388 386 387
3 387 108 388
3 386 107 387
3 388 106 386
3 390 389 387
3 387 107 390
3 389 108 387
3 390 34 389
3 392 391 386
3 386 106 392
3 391 107 386
3 392 33 391
3 394 393 388
3 388 108 394
3 393 106 388
3 394 32 393
3 397 395 396
3 396 110 397
3 395 107 396
3 397 109 395
3 391 398 396
3 396 107 391
3 398 110 396
3 391 33 398
3 399 390 395
3 395 109 399
3 390 107 395
3 399 34 390
3 401 400 397
3 397 110 401
3 400 109 397
3 401 8 400
3 404 402 403
3 403 112 404
3 402 106 403
3 404 111 402
3 393 405 403
3 403 106 393
3 405 112 403
3 393 32 405
3 406 392 402
3 402 111 406
3 392 106 402
3 406 33 392
3 408 407 404
3 404 112 408
3 407 111 404
3 408 0 407
3 411 409 410
3 410 114 411
3 409 108 410
3 411 113 409
3 389 412 410
3 410 108 389
3 412 114 410
3 389 34 412
3 413 394 409
3 409 113 413
3 394 108 409
3 413 32 394
3 415 414 411
3 411 114 415
3 414 113 411
3 415 11 414
3 418 416 417
3 417 117 418
3 416 116 417
3 418 115 416
3 420 419 417
3 417 116 420
3 419 117 417
3 420 36 419
3 422 421 416
3 416 115 422
3 421 116 416
3 422 34 421
3 424 423 418
3 418 117 424
3 423 115 418
3 424 35 423
3 427 425 426
3 426 109 427
3 425 116 426
3 427 118 425
3 421 399 426
3 426 116 421
3 399 109 426
3 421 34 399
3 428 420 425
3 425 118 428
3 420 116 425
3 428 36 420
3 400 429 427
3 427 109 400
3 429 118 427
3 400 8 429
3 432 430 431
3 431 119 432
3 430 115 431
3 432 114 430
3 423 433 431
3 431 115 423
3 433 119 431
3 423 35 433
3 412 422 430
3 430 114 412
3 422 115 430
3 412 34 422
3 434 415 432
3 432 119 434
3 415 114 432
3 434 11 415
3 437 435 436
3 436 121 437
3 435 117 436
3 437 120 435
3 419 438 436
3 436 117 419
3 438 121 436
3 419 36 438
3 439 424 435
3 435 120 439
3 424 117 435
3 439 35 424
3 441 440 437
3 437 121 441
3 440 120 437
3 441 1 440
3 444 442 443
3 443 124 444
3 442 123 443
3 444 122 442
3 446 445 443
3 443 123 446
3 445 124 443
3 446 39 445
3 448 447 442
3 442 122 448
3 447 123 442
3 448 38 447
3 450 449 444
3 444 124 450
3 449 122 444
3 450 37 449
3 453 451 452
3 452 126 453
3 451 123 452
3 453 125 451
3 447 454 452
3 452 123 447
3 454 126 452
3 447 38 454
3 455 446 451
3 451 125 455
3 446 123 451
3 455 39 446
3 457 456 453
3 453 126 457
3 456 125 453
3 457 9 456
3 460 458 459
3 459 128 460
3 458 122 459
3 460 127 458
3 449 461 459
3 459 122 449
3 461 128 459
3 449 37 461
3 462 448 458
3 458 127 462
3 448 122 458
3 462 38 448
3 464 463 460
3 460 128 464
3 463 127 460
3 464 10 463
3 467 465 466
3 466 130 467
3 465 124 466
3 467 129 465
3 445 468 466
3 466 124 445
3 468 130 466
3 445 39 468
3 469 450 465
3 465 129 469
3 450 124 465
3 469 37 450
3 471 470 467
3 467 130 471
3 470 129 467
3 471 3 470
3 474 472 473
3 473 133 474
3 472 132 473
3 474 131 472
3 476 475 473
3 473 132 476
3 475 133 473
3 476 38 475
3 478 477 472
3 472 131 478
3 477 132 472
3 478 41 477
3 480 479 474
3 474 133 480
3 479 131 474
3 480 40 479
3 483 481 482
3 482 134 483
3 481 132 482
3 483 126 481
3 477 484 482
3 482 132 477
3 484 134 482
3 477 41 484
3 454 476 481
3 481 126 454
3 476 132 481
3 454 38 476
3 485 457 483
3 483 134 485
3 457 126 483
3 485 9 457
3 488 486 487
3 487 136 488
3 486 131 487
3 488 135 486
3 479 489 487
3 487 131 479
3 489 136 487
3 479 40 489
3 490 478 486
3 486 135 490
3 478 131 486
3 490 41 478
3 492 491 488
3 488 136 492
3 491 135 488
3 492 2 491
3 495 493 494
3 494 127 495
3 493 133 494
3 495 137 493
3 475 462 494
3 494 133 475
3 462 127 494
3 475 38 462
3 496 480 493
3 493 137 496
3 480 133 493
3 496 40 480
3 463 497 495
3 495 127 463
3 497 137 495
3 463 10 497
3 500 498 499
3 499 140 500
3 498 139 499
3 500 138 498
3 502 501 499
3 499 139 502
3 501 140 499
3 502 33 501
3 504 503 498
3 498 138 504
3 503 139 498
3 504 13 503
3 506 505 500
3 500 140 506
3 505 138 500
3 506 23 505
3 509 507 508
3 508 47 509
3 507 139 508
3 509 110 507
3 503 182 508
3 508 139 503
3 182 47 508
3 503 13 182
3 398 502 507
3 507 110 398
3 502 139 507
3 398 33 502
3 183 401 509
3 509 47 183
3 401 110 509
3 183 8 401
3 512 510 511
3 511 79 512
3 510 138 511
3 512 46 510
3 505 294 511
3 511 138 505
3 294 79 511
3 505 23 294
3 174 504 510
3 510 46 174
3 504 138 510
3 174 13 504
3 295 177 512
3 512 79 295
3 177 46 512
3 295 4 177
3 515 513 514
3 514 111 515
3 513 140 514
3 515 78 513
3 501 406 514
3 514 140 501
3 406 111 514
3 501 33 406
3 286 506 513
3 513 78 286
3 506 140 513
3 286 23 506
3 407 289 515
3 515 111 407
3 289 78 515
3 407 0 289
3 518 516 517
3 517 143 518
3 516 142 517
3 518 141 516
3 520 519 517
3 517 142 520
3 519 143 517
3 520 19 519
3 522 521 516
3 516 141 522
3 521 142 516
3 522 32 521
3 524 523 518
3 518 143 524
3 523 141 518
3 524 26 523
3 527 525 526
3 526 113 527
3 525 142 526
3 527 66 525
3 521 413 526
3 526 142 521
3 413 113 526
3 521 32 413
3 244 520 525
3 525 66 244
3 520 142 525
3 244 19 520
3 414 247 527
3 527 113 414
3 247 66 527
3 414 11 247
3 530 528 529
3 529 86 530
3 528 141 529
3 530 112 528
3 523 316 529
3 529 141 523
3 316 86 529
3 523 26 316
3 405 522 528
3 528 112 405
3 522 141 528
3 405 32 522
3 317 408 530
3 530 86 317
3 408 112 530
3 317 0 408
3 533 531 532
3 532 61 533
3 531 143 532
3 533 89 531
3 519 231 532
3 532 143 519
3 231 61 532
3 519 19 231
3 326 524 531
3 531 89 326
3 524 143 531
3 326 26 524
3 232 329 533
3 533 61 232
3 329 89 533
3 232 5 329
3 536 534 535
3 535 146 536
3 534 145 535
3 536 144 534
3 538 537 535
3 535 145 538
3 537 146 535
3 538 22 537
3 540 539 534
3 534 144 540
3 539 145 534
3 540 16 539
3 542 541 536
3 536 146 542
3 541 144 536
3 542 39 541
3 545 543 544
3 544 54 545
3 543 145 544
3 545 80 543
3 539 204 544
3 544 145 539
3 204 54 544
3 539 16 204
3 293 538 543
3 543 80 293
3 538 145 543
3 293 22 538
3 205 296 545
3 545 54 205
3 296 80 545
3 205 4 296
3 548 546 547
3 547 125 548
3 546 144 547
3 548 57 546
3 541 455 547
3 547 144 541
3 455 125 547
3 541 39 455
3 214 540 546
3 546 57 214
3 540 144 546
3 214 16 540
3 456 217 548
3 548 125 456
3 217 57 548
3 456 9 217
3 551 549 550
3 550 81 551
3 549 146 550
3 551 130 549
3 537 301 550
3 550 146 537
3 301 81 550
3 537 22 301
3 468 542 549
3 549 130 468
3 542 146 549
3 468 39 542
3 302 471 551
3 551 81 302
3 471 130 551
3 302 3 471
3 554 552 553
3 553 149 554
3 552 148 553
3 554 147 552
3 556 555 553
3 553 148 556
3 555 149 553
3 556 21 555
3 558 557 552
3 552 147 558
3 557 148 552
3 558 25 557
3 560 559 554
3 554 149 560
3 559 147 554
3 560 37 559
3 563 561 562
3 562 88 563
3 561 148 562
3 563 70 561
3 557 327 562
3 562 148 557
3 327 88 562
3 557 25 327
3 260 556 561
3 561 70 260
3 556 148 561
3 260 21 556
3 328 261 563
3 563 88 328
3 261 70 563
3 328 5 261
3 566 564 565
3 565 129 566
3 564 147 565
3 566 87 564
3 559 469 565
3 565 147 559
3 469 129 565
3 559 37 469
3 321 558 564
3 564 87 321
3 558 147 564
3 321 25 558
3 470 322 566
3 566 129 470
3 322 87 566
3 470 3 322
3 569 567 568
3 568 71 569
3 567 149 568
3 569 128 567
3 555 266 568
3 568 149 555
3 266 71 568
3 555 21 266
3 461 560 567
3 567 128 461
3 560 149 567
3 461 37 560
3 267 464 569
3 569 71 267
3 464 128 569
3 267 10 464
3 572 570 571
3 571 152 572
3 570 151 571
3 572 150 570
3 574 573 571
3 571 151 574
3 573 152 571
3 574 27 573
3 576 575 570
3 570 150 576
3 575 151 570
3 576 12 575
3 578 577 572
3 572 152 578
3 577 150 572
3 578 36 577
3 581 579 580
3 580 49 581
3 579 151 580
3 581 96 579
3 575 189 580
3 580 151 575
3 189 49 580
3 575 12 189
3 349 574 579
3 579 96 349
3 574 151 579
3 349 27 574
3 190 352 581
3 581 49 190
3 352 96 581
3 190 7 352
3 584 582 583
3 583 118 584
3 582 150 583
3 584 48 582
3 577 428 583
3 583 150 577
3 428 118 583
3 577 36 428
3 181 576 582
3 582 48 181
3 576 150 582
3 181 12 576
3 429 184 584
3 584 118 429
3 184 48 584
3 429 8 184
3 587 585 586
3 586 97 587
3 585 152 586
3 587 121 585
3 573 357 586
3 586 152 573
3 357 97 586
3 573 27 357
3 438 578 585
3 585 121 438
3 578 152 585
3 438 36 578
3 358 441 587
3 587 97 358
3 441 121 587
3 358 1 441
3 590 588 589
3 589 155 590
3 588 154 589
3 590 153 588
3 592 591 589
3 589 154 592
3 591 155 589
3 592 17 591
3 594 593 588
3 588 153 594
3 593 154 588
3 594 30 593
3 596 595 590
3 590 155 596
3 595 153 590
3 596 35 595
3 599 597 598
3 598 104 599
3 597 154 598
3 599 64 597
3 593 383 598
3 598 154 593
3 383 104 598
3 593 30 383
3 237 592 597
3 597 64 237
3 592 154 597
3 237 17 592
3 384 240 599
3 599 104 384
3 240 64 599
3 384 6 240
3 602 600 601
3 601 120 602
3 600 153 601
3 602 103 600
3 595 439 601
3 601 153 595
3 439 120 601
3 595 35 439
3 377 594 600
3 600 103 377
3 594 153 600
3 377 30 594
3 440 378 602
3 602 120 440
3 378 103 602
3 440 1 378
3 605 603 604
3 604 65 605
3 603 155 604
3 605 119 603
3 591 245 604
3 604 155 591
3 245 65 604
3 591 17 245
3 433 596 603
3 603 119 433
3 596 155 603
3 433 35 596
3 246 434 605
3 605 65 246
3 434 119 605
3 246 11 434
3 608 606 607
3 607 158 608
3 606 157 607
3 608 156 606
3 610 609 607
3 607 157 610
3 609 158 607
3 610 15 609
3 612 611 606
3 606 156 612
3 611 157 606
3 612 28 611
3 614 613 608
3 608 158 614
3 613 156 608
3 614 41 613
3 617 615 616
3 616 95 617
3 615 157 616
3 617 55 615
3 611 350 616
3 616 157 611
3 350 95 616
3 611 28 350
3 209 610 615
3 615 55 209
3 610 157 615
3 209 15 610
3 351 210 617
3 617 95 351
3 210 55 617
3 351 7 210
3 620 618 619
3 619 135 620
3 618 156 619
3 620 94 618
3 613 490 619
3 619 156 613
3 490 135 619
3 613 41 490
3 342 612 618
3 618 94 342
3 612 156 618
3 342 28 612
3 491 345 620
3 620 135 491
3 345 94 620
3 491 2 345
3 623 621 622
3 622 56 623
3 621 158 622
3 623 134 621
3 609 215 622
3 622 158 609
3 215 56 622
3 609 15 215
3 484 614 621
3 621 134 484
3 614 158 621
3 484 41 614
3 216 485 623
3 623 56 216
3 485 134 623
3 216 9 485
3 626 624 625
3 625 161 626
3 624 160 625
3 626 159 624
3 628 627 625
3 625 160 628
3 627 161 625
3 628 31 627
3 630 629 624
3 624 159 630
3 629 160 624
3 630 20 629
3 632 631 626
3 626 161 632
3 631 159 626
3 632 40 631
3 635 633 634
3 634 73 635
3 633 160 634
3 635 105 633
3 629 272 634
3 634 160 629
3 272 73 634
3 629 20 272
3 382 628 633
3 633 105 382
3 628 160 633
3 382 31 628
3 273 385 635
3 635 73 273
3 385 105 635
3 273 6 385
3 638 636 637
3 637 137 638
3 636 159 637
3 638 72 636
3 631 496 637
3 637 159 631
3 496 137 637
3 631 40 496
3 265 630 636
3 636 72 265
3 630 159 636
3 265 20 630
3 497 268 638
3 638 137 497
3 268 72 638
3 497 10 268
3 641 639 640
3 640 102 641
3 639 161 640
3 641 136 639
3 627 372 640
3 640 161 627
3 372 102 640
3 627 31 372
3 489 632 639
3 639 136 489
3 632 161 639
3 489 40 632
3 373 492 641
3 641 102 373
3 492 136 641
3 373 2 492
