# vtk DataFile Version 3.0
this file was written using fslvtkio
ASCII
DATASET POLYDATA
POINTS 642 float
81.534 136.717 159.085
73.5108 137.644 158.329
75.8979 132.851 156.245
83.0268 130.62 156.858
81.7741 134.003 161.007
80.5861 134.213 154.173
75.8917 135.087 153.519
77.8052 135.35 159.685
78.4586 139.615 162.635
79.8355 130.22 157.713
78.077 129.363 152.046
77.4151 139.542 157.693
77.8618 137.536 161.391
81.1075 137.049 163.14
79.7067 134.845 160.691
78.8821 132.66 158.818
81.1127 131.471 159.804
76.6161 137.25 155.819
78.3978 134.622 152.999
79.0229 136.847 156.115
76.2443 132.377 151.706
79.8409 131.656 152.318
83.022 131.799 159.416
82.7296 135.58 160.534
82.3701 133.518 157.711
81.7337 132.043 154.954
81.039 135.411 156.671
75.7344 136.873 159.428
76.4964 133.884 158.43
75.0716 135.298 157.301
74.857 136.655 156.178
75.2608 133.557 154.325
79.8091 138.917 158.733
81.4706 139.311 161.794
77.0364 141.216 160.336
74.1921 139.897 157.911
74.5997 139.475 160.621
82.2106 129.005 154.043
78.9891 128.867 155.268
82.6883 128.675 158.192
76.2133 130.695 154.126
77.6106 131.387 156.72
79.4416 137.491 162.392
80.3417 136.242 161.673
79.1087 136.466 161.058
80.7065 134.403 161.043
81.5016 135.658 161.724
80.0834 138.54 163.398
78.0863 138.577 162.199
77.8801 136.493 160.368
78.7244 135.146 160.158
79.2777 133.531 159.861
80.3241 133.106 160.269
80.0225 132.135 159.29
81.4085 132.804 160.539
78.2037 133.957 159.467
79.3547 131.364 158.273
80.6196 130.629 158.735
77.5768 135.786 154.462
78.673 135.609 154.671
77.8594 137.038 155.835
79.845 135.394 155.036
79.6458 134.448 153.486
77.0161 134.917 153.056
76.4424 135.86 154.832
76.9532 138.591 156.764
78.2745 138.239 157.003
78.0592 131.885 151.473
78.9937 133.182 152.495
77.4706 133.59 151.994
80.324 132.991 153.234
79.249 130.226 151.482
76.8491 130.534 151.291
76.0978 133.804 152.543
82.6544 133.737 159.705
82.3709 134.43 159.057
82.6669 132.674 158.581
81.9927 135.244 158.362
82.1908 136.311 159.811
82.5169 134.684 161.014
82.573 133.01 160.414
83.1924 130.987 158.187
82.3753 131.869 157.274
82.1284 132.699 156.374
81.6447 134.345 157.136
81.6141 133.692 155.762
81.2797 136.189 157.901
82.4675 131.218 155.804
81.1735 133.136 154.427
80.7057 134.655 155.446
76.3093 135.533 158.71
75.5677 134.63 157.994
75.2881 136.13 158.445
75.3806 133.874 156.786
76.0582 133.285 157.464
77.1197 134.604 159.175
76.9236 136.218 159.513
74.4204 137.277 159.06
74.4066 136.709 157.864
74.8594 135.987 156.69
75.0818 134.314 155.841
74.9841 135.019 155.16
75.608 133.084 155.383
73.8351 137.41 157.231
75.5465 135.631 154.937
75.1838 134.397 153.571
80.4599 139.402 160.244
79.4553 140.528 161.415
78.8651 140.415 159.724
77.5383 140.626 161.994
80.2191 139.841 162.917
81.6449 138.027 160.307
80.8919 137.831 158.964
78.469 139.417 158.272
77.0701 140.775 158.842
74.978 141.25 159.05
74.9447 140.951 160.973
72.9247 140.524 159.533
76.3671 139.643 161.773
75.9484 140.058 157.73
73.2431 138.875 158.067
73.9301 138.728 159.366
80.682 128.556 154.721
80.9797 128.497 156.654
82.681 128.488 156.168
81.1081 129.331 157.862
79.65 129.539 156.651
78.4024 128.92 153.615
80.2293 129.117 152.786
83.2215 129.706 155.559
83.6436 129.474 157.503
76.8227 130.791 155.552
78.0371 129.941 155.904
77.1305 129.493 154.531
78.6797 130.723 157.171
76.655 132.151 156.453
75.9521 131.839 155.318
76.6569 129.738 152.844
82.3812 136.345 162.057
82.1989 138.381 163.33
82.3596 137.447 161.37
80.2929 137.111 157.785
79.4066 137.93 157.466
80.2443 136.409 156.288
82.0059 129.997 159.049
82.2841 131.437 159.904
83.3963 129.977 159.165
82.3021 130.542 154.212
81.1375 131.798 153.522
81.2711 130.192 152.601
76.3371 138.529 161.131
76.5111 137.215 160.493
75.0568 138.112 160.147
73.9846 138.499 156.781
75.5037 137.108 156.007
75.4564 138.825 156.754
77.1525 132.644 157.563
77.6213 133.249 158.715
78.2882 132.005 157.829
75.8886 131.368 152.624
75.6378 132.912 152.973
75.5849 132.176 154.098
79.9061 136.808 162.106
79.696 136.306 161.406
79.1713 136.851 161.762
79.4946 135.847 160.843
80.0204 135.648 161.121
80.6348 136.675 162.409
80.2205 137.304 162.841
78.6166 137.511 161.947
78.4669 136.998 161.358
80.5636 135.421 161.299
80.9507 136.034 161.793
81.0327 135.038 161.417
81.3278 136.434 162.374
80.232 134.672 160.875
81.2188 134.143 161.079
81.5241 134.689 161.391
79.772 138.035 162.948
78.8195 138.073 162.403
79.075 138.586 162.843
77.9918 138.072 161.792
80.6807 137.853 163.435
79.2495 139.158 163.09
78.2473 139.136 162.481
78.4809 136.573 160.726
79.0315 135.987 160.481
78.3778 135.974 160.262
79.1853 135.031 160.461
77.7858 136.959 160.947
77.8945 135.941 159.937
78.2528 135.262 159.884
79.801 133.355 160.066
80.1789 132.588 159.729
79.6449 132.805 159.539
80.5494 131.776 159.586
80.6601 132.278 160.013
79.9833 133.98 160.533
79.4694 134.163 160.331
79.0981 133.052 159.345
79.4651 132.362 159.043
80.8402 132.902 160.389
80.4827 133.796 160.682
81.037 133.564 160.765
81.2497 132.205 160.151
81.6185 133.434 160.797
78.9524 134.28 160.112
78.7761 133.713 159.632
78.4407 134.426 159.866
78.5329 133.28 159.187
77.9971 134.651 159.606
79.7585 131.694 158.737
80.365 131.345 158.989
79.9662 130.989 158.573
80.8159 130.963 159.303
79.1862 132.016 158.487
79.49 130.757 158.076
80.2297 130.389 158.226
78.1355 135.674 154.529
78.2521 136.244 155.3
77.6933 136.398 155.155
78.4274 136.916 155.982
78.8134 136.19 155.432
78.5872 135.066 153.806
77.9572 135.11 153.738
77.1144 136.5 155.169
77.2632 137.168 155.713
79.2869 135.574 154.829
79.1816 135.044 153.998
79.7571 134.97 154.236
79.0517 134.546 153.218
79.4522 136.111 155.568
80.2053 134.782 154.589
80.1943 134.369 153.775
77.3486 135.237 153.784
76.977 135.859 154.654
76.7452 135.367 153.967
76.5505 136.489 155.335
77.7024 134.771 152.973
76.4091 135.01 153.283
76.1923 135.414 154.153
77.4345 137.755 156.318
78 137.592 156.497
77.6408 138.375 156.809
78.6227 137.492 156.644
76.799 137.921 156.284
77.1824 139.09 157.302
77.8493 138.954 157.349
78.5151 132.587 151.948
78.2553 133.431 152.135
77.7163 132.855 151.573
77.9733 134.134 152.451
78.7528 133.952 152.623
79.337 132.428 152.334
78.9704 131.731 151.791
77.0813 132.126 151.246
76.8117 133.016 151.645
79.3482 133.811 152.991
79.6443 133.04 152.849
79.9355 133.712 153.311
80.0615 132.329 152.79
80.4864 133.618 153.702
78.6315 131.055 151.299
77.4778 131.176 151.12
78.0359 130.337 151.161
76.5102 131.457 151.43
79.6496 130.936 151.762
78.6811 129.67 151.571
77.4393 129.815 151.495
76.7183 133.664 152.232
77.2341 134.333 152.517
76.5149 134.493 152.71
76.2051 133.163 152.083
75.9294 134.629 152.907
82.5249 134.081 159.404
82.5687 133.578 158.763
82.8117 133.208 159.163
82.524 133.094 158.144
82.3759 133.92 158.368
82.601 135.003 159.752
82.7186 134.581 160.035
82.9122 132.857 159.558
82.9262 132.241 158.996
82.222 134.804 158.691
82.3931 135.4 159.416
82.1476 135.752 159.062
82.5153 135.965 160.157
82.0553 134.322 158.071
81.8025 136.075 158.741
81.886 136.549 159.423
82.6633 134.277 160.302
82.7019 133.371 160.016
82.4979 133.919 160.583
82.7966 132.496 159.935
82.7141 135.09 160.807
82.1718 134.321 161.049
82.1867 133.607 160.68
82.8258 131.772 158.368
82.5782 132.241 157.912
82.8029 131.463 157.714
82.4017 132.649 157.488
83.234 131.286 158.812
83.055 130.77 157.512
82.7168 131.241 157.049
81.9723 133.544 156.754
81.5435 134.007 156.5
81.9156 133.225 156.039
81.2256 134.468 156.235
81.3459 134.847 156.859
82.0632 133.933 157.409
82.3048 133.098 157.032
81.9547 132.357 155.676
81.7738 132.874 155.326
81.5836 135.256 157.441
81.7948 134.749 157.756
81.725 135.696 158.085
81.2545 135.859 157.277
81.4564 136.494 158.502
82.2865 132.26 156.797
82.1554 131.904 156.071
82.3957 131.532 156.564
82.1945 131.638 155.285
82.7654 130.881 156.316
81.4183 133.364 155.101
81.2382 134.173 155.551
81.0968 133.909 154.892
80.8902 135.015 156.025
81.4543 132.582 154.665
80.8434 133.676 154.28
80.6955 134.444 154.778
75.9301 135.038 158.334
75.5051 135.379 158.158
75.8064 135.872 158.602
75.1313 135.718 157.926
75.3015 135.017 157.682
76.0265 134.313 158.235
76.3711 134.7 158.586
76.1325 136.269 158.968
75.4888 136.541 158.938
75.3771 134.253 157.469
75.745 133.868 157.8
75.603 133.561 157.198
76.2428 133.525 158.003
75.1771 134.598 157.073
75.6131 133.317 156.508
75.9427 133.064 156.831
76.7313 135.092 158.896
76.6241 135.918 159.059
77.0178 135.424 159.263
76.3945 136.571 159.425
76.8321 134.328 158.816
77.4836 134.991 159.435
77.3988 135.768 159.603
74.9405 136.762 158.719
74.8573 136.411 158.154
74.406 136.96 158.446
74.7625 136.02 157.64
75.0639 137.119 159.32
73.882 137.461 158.702
73.9264 137.208 158.122
74.9904 135.105 156.238
75.0208 134.642 155.47
74.9844 135.457 155.964
75.0346 134.251 154.696
75.0968 133.926 155.116
75.0421 134.834 156.604
74.8892 135.613 156.941
74.803 136.319 156.414
75.0351 135.825 155.725
75.2991 133.695 155.579
75.2329 134.116 156.338
75.4882 133.503 156.08
75.3921 133.29 154.869
75.7459 132.943 155.865
74.498 136.329 157.308
74.3308 136.725 156.975
74.0789 137.022 157.579
74.287 137.128 156.689
73.5597 137.537 157.838
75.2289 135.408 155.007
75.115 134.686 154.389
75.3494 135.022 154.238
75.1925 133.97 153.92
75.2693 136.122 155.578
75.6986 135.318 154.186
75.4769 134.796 153.444
80.0386 139.985 160.835
79.1471 140.539 160.534
79.8099 139.986 159.944
78.0918 140.928 160.091
78.3396 140.941 160.919
80.4996 139.977 161.658
80.9226 139.462 161.041
80.1432 139.226 159.466
79.3446 139.727 159.274
78.5898 140.745 161.783
79.9371 140.317 162.272
78.9382 140.313 162.498
80.9144 139.647 162.423
77.2594 141.045 161.204
77.9824 140.107 162.431
79.3017 139.811 162.931
81.1599 138.784 160.308
80.7101 138.633 159.606
81.2336 137.967 159.639
80.3829 138.401 158.919
81.6605 138.752 161.03
81.5784 137.32 159.64
81.2048 137.238 159.053
78.5964 140.037 159.011
77.9425 140.738 159.338
77.8876 140.226 158.617
77.0155 141.158 159.528
79.104 139.226 158.529
77.9574 139.533 157.915
77.2517 140.191 158.15
74.7649 141.334 160.006
73.6526 140.998 160.35
73.8267 141.134 159.31
73.545 140.022 160.348
74.3883 140.239 161.017
75.9661 141.165 160.62
75.9409 141.338 159.701
74.353 140.759 158.445
73.4438 140.5 158.6
75.5258 140.305 161.522
76.2715 140.834 161.455
76.764 140.208 162.026
75.3276 139.614 161.267
77.4716 139.656 162.201
76.1499 141.094 158.928
75.3955 140.816 158.307
76.4296 140.488 158.231
75.0264 140.116 157.752
76.7179 139.781 157.755
73.0655 139.75 158.792
73.2631 139.486 159.586
73.3565 138.851 158.773
74.1255 139.184 160.014
73.4685 139.549 157.959
73.2758 138.191 158.206
73.6188 138.159 158.828
80.8376 128.437 155.701
81.8586 128.338 156.511
81.7036 128.487 155.416
82.8211 128.384 157.339
81.8602 128.479 157.423
79.9821 128.613 155.882
79.7998 128.559 155.009
81.5182 128.656 154.36
82.4631 128.652 155.067
81.0603 128.821 157.345
80.1478 128.894 156.666
80.3675 129.398 157.266
79.3621 129.089 156.009
81.8686 128.896 158.06
80.4276 129.772 157.79
79.7794 129.91 157.173
79.5566 128.733 154.108
80.443 128.797 153.761
79.325 128.943 153.222
81.2781 129.024 153.38
78.682 128.796 154.45
78.141 129.076 152.777
79.1144 129.212 152.363
83.1588 128.957 155.748
83.4269 128.777 156.861
83.5476 129.518 156.48
83.5171 128.874 158.009
82.8759 129.209 154.788
83.2023 130.202 156.277
83.4565 130.083 157.121
77.3385 130.319 155.738
77.5041 129.601 155.306
76.8929 130.102 155.086
77.9471 129.07 154.852
78.4339 129.334 155.579
77.7713 130.667 156.321
77.2513 131.067 156.14
76.5107 130.666 154.886
76.6434 130.064 154.318
78.7887 129.685 156.198
78.331 130.313 156.56
79.1006 130.111 156.828
78.1371 131.042 156.93
79.2532 130.493 157.44
76.6966 131.479 156.009
76.3262 131.3 155.408
76.2719 131.919 155.905
76.0046 131.23 154.746
77.0823 131.746 156.52
76.1817 132.531 156.395
75.9814 132.42 155.812
76.8318 129.573 153.757
77.6317 129.087 154.068
77.3151 129.208 153.164
76.3641 130.191 153.53
77.1636 129.39 152.296
82.5623 137.266 162.894
82.4502 137.971 162.32
82.6369 136.879 161.78
82.0418 138.426 161.666
81.9873 138.959 162.579
81.817 137.559 163.554
81.8608 136.663 162.83
82.7067 135.991 161.289
82.6933 136.518 160.963
81.2939 139.197 163.176
81.1316 138.452 163.623
80.2265 139.248 163.445
81.9264 135.989 161.954
82.4353 135.542 161.438
82.008 135.117 161.437
82.3153 136.901 160.575
81.9828 137.817 160.897
81.9296 137.182 160.106
79.8456 137.577 157.675
79.755 137.122 156.96
80.2284 136.775 157.052
79.6842 136.694 156.192
79.2291 137.379 156.836
79.5181 138.468 158.13
80.137 138.042 158.272
80.7033 136.328 157.21
80.6799 135.964 156.473
78.8566 138.125 157.238
78.9749 138.733 157.9
78.4221 138.881 157.594
80.5793 137.53 158.356
80.7512 136.661 157.844
81.0736 137.02 158.394
80.4862 135.544 155.844
80.047 135.914 155.675
80.3144 135.095 155.24
82.1527 130.615 159.642
82.9135 130.59 159.784
82.7189 129.836 159.312
83.3428 130.812 159.318
82.7486 131.564 159.733
81.6945 131.426 159.943
81.4641 130.69 159.459
82.4188 129.304 158.738
83.2194 129.278 158.787
82.434 132.243 160.196
81.8067 132.18 160.223
81.9991 132.857 160.602
81.2579 130.265 158.892
81.6278 129.543 158.492
80.9269 129.997 158.288
83.607 129.693 158.422
83.3976 130.477 158.658
83.4553 130.248 157.912
81.6719 131.171 153.837
81.3137 131.019 153.021
81.9142 130.358 153.385
80.5431 130.917 152.367
80.5445 131.709 152.899
81.4604 131.887 154.267
81.971 131.34 154.57
82.4658 129.736 154.005
81.7388 129.576 153.23
80.6283 132.36 153.386
81.0425 132.481 154.065
80.7523 133.026 153.854
82.5185 130.854 154.992
82.9445 130.023 154.746
82.8841 130.479 155.593
80.9199 129.501 152.525
80.2985 130.218 152.029
79.8154 129.589 152.013
76.4567 137.921 160.8
75.8024 137.681 160.299
75.5858 138.355 160.666
75.3188 137.355 159.855
76.076 137.057 159.956
77.1956 137.426 160.907
77.1807 138.088 161.224
75.4238 139.018 160.959
74.8088 138.796 160.401
76.7081 136.678 159.987
77.2226 136.83 160.459
77.3663 136.34 159.946
77.2352 138.573 161.589
76.2898 139.112 161.478
77.2908 139.144 161.961
74.378 138.488 159.874
74.6629 137.673 159.627
74.0899 137.965 159.259
74.717 137.942 156.297
75.3966 138.075 156.28
74.6495 138.755 156.759
76.0874 138.068 156.247
76.0226 137.193 155.941
75.1185 136.914 156.089
74.3288 137.584 156.438
74.0205 139.202 157.347
74.8054 139.397 157.355
76.038 136.414 155.457
75.5963 136.297 155.502
75.9419 135.789 154.899
73.7818 137.898 156.936
73.4787 138.769 157.387
73.3935 138.13 157.602
75.6264 139.472 157.284
76.2352 138.742 156.701
76.421 139.28 157.314
77.3496 132.932 158.2
78.0219 132.638 158.269
77.7093 132.314 157.718
78.59 132.342 158.33
78.2505 132.956 158.771
77.0234 133.563 158.606
76.7771 133.213 158.091
77.4477 132.015 157.079
77.9331 131.695 157.302
77.8913 133.606 159.112
77.3273 133.945 158.991
77.6327 134.232 159.344
76.535 132.978 157.576
76.9763 132.386 156.947
76.4315 132.761 156.936
78.4355 131.373 157.542
78.8292 131.698 158.024
78.9829 131.079 157.77
75.7081 132.182 152.772
75.5897 132.542 153.511
75.6287 131.768 153.391
75.5131 132.849 154.199
75.4883 133.219 153.637
75.8864 132.62 152.347
75.9312 131.823 152.053
75.925 130.936 153.365
75.7669 131.438 154.077
75.5074 133.623 153.228
75.8808 133.341 152.688
75.5919 134.117 152.938
76.2372 130.978 151.966
76.182 130.531 152.692
76.6404 130.08 152.004
75.7513 131.919 154.718
75.5835 132.633 154.781
75.7562 132.489 155.349
POLYGONS 1280  5120
3 164 162 163
3 163 44 164
3 162 43 163
3 164 42 162
3 166 165 163
3 163 43 166
3 165 44 163
3 166 14 165
3 168 167 162
3 162 42 168
3 167 43 162
3 168 13 167
3 170 169 164
3 164 44 170
3 169 42 164
3 170 12 169
3 173 171 172
3 172 46 173
3 171 43 172
3 173 45 171
3 167 174 172
3 172 43 167
3 174 46 172
3 167 13 174
3 175 166 171
3 171 45 175
3 166 43 171
3 175 14 166
3 177 176 173
3 173 46 177
3 176 45 173
3 177 4 176
3 180 178 179
3 179 48 180
3 178 42 179
3 180 47 178
3 169 181 179
3 179 42 169
3 181 48 179
3 169 12 181
3 182 168 178
3 178 47 182
3 168 42 178
3 182 13 168
3 184 183 180
3 180 48 184
3 183 47 180
3 184 8 183
3 187 185 186
3 186 50 187
3 185 44 186
3 187 49 185
3 165 188 186
3 186 44 165
3 188 50 186
3 165 14 188
3 189 170 185
3 185 49 189
3 170 44 185
3 189 12 170
3 191 190 187
3 187 50 191
3 190 49 187
3 191 7 190
3 194 192 193
3 193 53 194
3 192 52 193
3 194 51 192
3 196 195 193
3 193 52 196
3 195 53 193
3 196 16 195
3 198 197 192
3 192 51 198
3 197 52 192
3 198 14 197
3 200 199 194
3 194 53 200
3 199 51 194
3 200 15 199
3 203 201 202
3 202 45 203
3 201 52 202
3 203 54 201
3 197 175 202
3 202 52 197
3 175 45 202
3 197 14 175
3 204 196 201
3 201 54 204
3 196 52 201
3 204 16 196
3 176 205 203
3 203 45 176
3 205 54 203
3 176 4 205
3 208 206 207
3 207 55 208
3 206 51 207
3 208 50 206
3 199 209 207
3 207 51 199
3 209 55 207
3 199 15 209
3 188 198 206
3 206 50 188
3 198 51 206
3 188 14 198
3 210 191 208
3 208 55 210
3 191 50 208
3 210 7 191
3 213 211 212
3 212 57 213
3 211 53 212
3 213 56 211
3 195 214 212
3 212 53 195
3 214 57 212
3 195 16 214
3 215 200 211
3 211 56 215
3 200 53 211
3 215 15 200
3 217 216 213
3 213 57 217
3 216 56 213
3 217 9 216
3 220 218 219
3 219 60 220
3 218 59 219
3 220 58 218
3 222 221 219
3 219 59 222
3 221 60 219
3 222 19 221
3 224 223 218
3 218 58 224
3 223 59 218
3 224 18 223
3 226 225 220
3 220 60 226
3 225 58 220
3 226 17 225
3 229 227 228
3 228 62 229
3 227 59 228
3 229 61 227
3 223 230 228
3 228 59 223
3 230 62 228
3 223 18 230
3 231 222 227
3 227 61 231
3 222 59 227
3 231 19 222
3 233 232 229
3 229 62 233
3 232 61 229
3 233 5 232
3 236 234 235
3 235 64 236
3 234 58 235
3 236 63 234
3 225 237 235
3 235 58 225
3 237 64 235
3 225 17 237
3 238 224 234
3 234 63 238
3 224 58 234
3 238 18 224
3 240 239 236
3 236 64 240
3 239 63 236
3 240 6 239
3 243 241 242
3 242 66 243
3 241 60 242
3 243 65 241
3 221 244 242
3 242 60 221
3 244 66 242
3 221 19 244
3 245 226 241
3 241 65 245
3 226 60 241
3 245 17 226
3 247 246 243
3 243 66 247
3 246 65 243
3 247 11 246
3 250 248 249
3 249 69 250
3 248 68 249
3 250 67 248
3 252 251 249
3 249 68 252
3 251 69 249
3 252 18 251
3 254 253 248
3 248 67 254
3 253 68 248
3 254 21 253
3 256 255 250
3 250 69 256
3 255 67 250
3 256 20 255
3 259 257 258
3 258 70 259
3 257 68 258
3 259 62 257
3 253 260 258
3 258 68 253
3 260 70 258
3 253 21 260
3 230 252 257
3 257 62 230
3 252 68 257
3 230 18 252
3 261 233 259
3 259 70 261
3 233 62 259
3 261 5 233
3 264 262 263
3 263 72 264
3 262 67 263
3 264 71 262
3 255 265 263
3 263 67 255
3 265 72 263
3 255 20 265
3 266 254 262
3 262 71 266
3 254 67 262
3 266 21 254
3 268 267 264
3 264 72 268
3 267 71 264
3 268 10 267
3 271 269 270
3 270 63 271
3 269 69 270
3 271 73 269
3 251 238 270
3 270 69 251
3 238 63 270
3 251 18 238
3 272 256 269
3 269 73 272
3 256 69 269
3 272 20 256
3 239 273 271
3 271 63 239
3 273 73 271
3 239 6 273
3 276 274 275
3 275 76 276
3 274 75 275
3 276 74 274
3 278 277 275
3 275 75 278
3 277 76 275
3 278 24 277
3 280 279 274
3 274 74 280
3 279 75 274
3 280 23 279
3 282 281 276
3 276 76 282
3 281 74 276
3 282 22 281
3 285 283 284
3 284 78 285
3 283 75 284
3 285 77 283
3 279 286 284
3 284 75 279
3 286 78 284
3 279 23 286
3 287 278 283
3 283 77 287
3 278 75 283
3 287 24 278
3 289 288 285
3 285 78 289
3 288 77 285
3 289 0 288
3 292 290 291
3 291 80 292
3 290 74 291
3 292 79 290
3 281 293 291
3 291 74 281
3 293 80 291
3 281 22 293
3 294 280 290
3 290 79 294
3 280 74 290
3 294 23 280
3 296 295 292
3 292 80 296
3 295 79 292
3 296 4 295
3 299 297 298
3 298 82 299
3 297 76 298
3 299 81 297
3 277 300 298
3 298 76 277
3 300 82 298
3 277 24 300
3 301 282 297
3 297 81 301
3 282 76 297
3 301 22 282
3 303 302 299
3 299 82 303
3 302 81 299
3 303 3 302
3 306 304 305
3 305 85 306
3 304 84 305
3 306 83 304
3 308 307 305
3 305 84 308
3 307 85 305
3 308 26 307
3 310 309 304
3 304 83 310
3 309 84 304
3 310 24 309
3 312 311 306
3 306 85 312
3 311 83 306
3 312 25 311
3 315 313 314
3 314 77 315
3 313 84 314
3 315 86 313
3 309 287 314
3 314 84 309
3 287 77 314
3 309 24 287
3 316 308 313
3 313 86 316
3 308 84 313
3 316 26 308
3 288 317 315
3 315 77 288
3 317 86 315
3 288 0 317
3 320 318 319
3 319 87 320
3 318 83 319
3 320 82 318
3 311 321 319
3 319 83 311
3 321 87 319
3 311 25 321
3 300 310 318
3 318 82 300
3 310 83 318
3 300 24 310
3 322 303 320
3 320 87 322
3 303 82 320
3 322 3 303
3 325 323 324
3 324 89 325
3 323 85 324
3 325 88 323
3 307 326 324
3 324 85 307
3 326 89 324
3 307 26 326
3 327 312 323
3 323 88 327
3 312 85 323
3 327 25 312
3 329 328 325
3 325 89 329
3 328 88 325
3 329 5 328
3 332 330 331
3 331 92 332
3 330 91 331
3 332 90 330
3 334 333 331
3 331 91 334
3 333 92 331
3 334 29 333
3 336 335 330
3 330 90 336
3 335 91 330
3 336 28 335
3 338 337 332
3 332 92 338
3 337 90 332
3 338 27 337
3 341 339 340
3 340 94 341
3 339 91 340
3 341 93 339
3 335 342 340
3 340 91 335
3 342 94 340
3 335 28 342
3 343 334 339
3 339 93 343
3 334 91 339
3 343 29 334
3 345 344 341
3 341 94 345
3 344 93 341
3 345 2 344
3 348 346 347
3 347 96 348
3 346 90 347
3 348 95 346
3 337 349 347
3 347 90 337
3 349 96 347
3 337 27 349
3 350 336 346
3 346 95 350
3 336 90 346
3 350 28 336
3 352 351 348
3 348 96 352
3 351 95 348
3 352 7 351
3 355 353 354
3 354 98 355
3 353 92 354
3 355 97 353
3 333 356 354
3 354 92 333
3 356 98 354
3 333 29 356
3 357 338 353
3 353 97 357
3 338 92 353
3 357 27 338
3 359 358 355
3 355 98 359
3 358 97 355
3 359 1 358
3 362 360 361
3 361 101 362
3 360 100 361
3 362 99 360
3 364 363 361
3 361 100 364
3 363 101 361
3 364 31 363
3 366 365 360
3 360 99 366
3 365 100 360
3 366 29 365
3 368 367 362
3 362 101 368
3 367 99 362
3 368 30 367
3 371 369 370
3 370 93 371
3 369 100 370
3 371 102 369
3 365 343 370
3 370 100 365
3 343 93 370
3 365 29 343
3 372 364 369
3 369 102 372
3 364 100 369
3 372 31 364
3 344 373 371
3 371 93 344
3 373 102 371
3 344 2 373
3 376 374 375
3 375 103 376
3 374 99 375
3 376 98 374
3 367 377 375
3 375 99 367
3 377 103 375
3 367 30 377
3 356 366 374
3 374 98 356
3 366 99 374
3 356 29 366
3 378 359 376
3 376 103 378
3 359 98 376
3 378 1 359
3 381 379 380
3 380 105 381
3 379 101 380
3 381 104 379
3 363 382 380
3 380 101 363
3 382 105 380
3 363 31 382
3 383 368 379
3 379 104 383
3 368 101 379
3 383 30 368
3 385 384 381
3 381 105 385
3 384 104 381
3 385 6 384
3 388 386 387
3 387 108 388
3 386 107 387
3 388 106 386
3 390 389 387
3 387 107 390
3 389 108 387
3 390 34 389
3 392 391 386
3 386 106 392
3 391 107 386
3 392 33 391
3 394 393 388
3 388 108 394
3 393 106 388
3 394 32 393
3 397 395 396
3 396 110 397
3 395 107 396
3 397 109 395
3 391 398 396
3 396 107 391
3 398 110 396
3 391 33 398
3 399 390 395
3 395 109 399
3 390 107 395
3 399 34 390
3 401 400 397
3 397 110 401
3 400 109 397
3 401 8 400
3 404 402 403
3 403 112 404
3 402 106 403
3 404 111 402
3 393 405 403
3 403 106 393
3 405 112 403
3 393 32 405
3 406 392 402
3 402 111 406
3 392 106 402
3 406 33 392
3 408 407 404
3 404 112 408
3 407 111 404
3 408 0 407
3 411 409 410
3 410 114 411
3 409 108 410
3 411 113 409
3 389 412 410
3 410 108 389
3 412 114 410
3 389 34 412
3 413 394 409
3 409 113 413
3 394 108 409
3 413 32 394
3 415 414 411
3 411 114 415
3 414 113 411
3 415 11 414
3 418 416 417
3 417 117 418
3 416 116 417
3 418 115 416
3 420 419 417
3 417 116 420
3 419 117 417
3 420 36 419
3 422 421 416
3 416 115 422
3 421 116 416
3 422 34 421
3 424 423 418
3 418 117 424
3 423 115 418
3 424 35 423
3 427 425 426
3 426 109 427
3 425 116 426
3 427 118 425
3 421 399 426
3 426 116 421
3 399 109 426
3 421 34 399
3 428 420 425
3 425 118 428
3 420 116 425
3 428 36 420
3 400 429 427
3 427 109 400
3 429 118 427
3 400 8 429
3 432 430 431
3 431 119 432
3 430 115 431
3 432 114 430
3 423 433 431
3 431 115 423
3 433 119 431
3 423 35 433
3 412 422 430
3 430 114 412
3 422 115 430
3 412 34 422
3 434 415 432
3 432 119 434
3 415 114 432
3 434 11 415
3 437 435 436
3 436 121 437
3 435 117 436
3 437 120 435
3 419 438 436
3 436 117 419
3 438 121 436
3 419 36 438
3 439 424 435
3 435 120 439
3 424 117 435
3 439 35 424
3 441 440 437
3 437 121 441
3 440 120 437
3 441 1 440
3 444 442 443
3 443 124 444
3 442 123 443
3 444 122 442
3 446 445 443
3 443 123 446
3 445 124 443
3 446 39 445
3 448 447 442
3 442 122 448
3 447 123 442
3 448 38 447
3 450 449 444
3 444 124 450
3 449 122 444
3 450 37 449
3 453 451 452
3 452 126 453
3 451 123 452
3 453 125 451
3 447 454 452
3 452 123 447
3 454 126 452
3 447 38 454
3 455 446 451
3 451 125 455
3 446 123 451
3 455 39 446
3 457 456 453
3 453 126 457
3 456 125 453
3 457 9 456
3 460 458 459
3 459 128 460
3 458 122 459
3 460 127 458
3 449 461 459
3 459 122 449
3 461 128 459
3 449 37 461
3 462 448 458
3 458 127 462
3 448 122 458
3 462 38 448
3 464 463 460
3 460 128 464
3 463 127 460
3 464 10 463
3 467 465 466
3 466 130 467
3 465 124 466
3 467 129 465
3 445 468 466
3 466 124 445
3 468 130 466
3 445 39 468
3 469 450 465
3 465 129 469
3 450 124 465
3 469 37 450
3 471 470 467
3 467 130 471
3 470 129 467
3 471 3 470
3 474 472 473
3 473 133 474
3 472 132 473
3 474 131 472
3 476 475 473
3 473 132 476
3 475 133 473
3 476 38 475
3 478 477 472
3 472 131 478
3 477 132 472
3 478 41 477
3 480 479 474
3 474 133 480
3 479 131 474
3 480 40 479
3 483 481 482
3 482 134 483
3 481 132 482
3 483 126 481
3 477 484 482
3 482 132 477
3 484 134 482
3 477 41 484
3 454 476 481
3 481 126 454
3 476 132 481
3 454 38 476
3 485 457 483
3 483 134 485
3 457 126 483
3 485 9 457
3 488 486 487
3 487 136 488
3 486 131 487
3 488 135 486
3 479 489 487
3 487 131 479
3 489 136 487
3 479 40 489
3 490 478 486
3 486 135 490
3 478 131 486
3 490 41 478
3 492 491 488
3 488 136 492
3 491 135 488
3 492 2 491
3 495 493 494
3 494 127 495
3 493 133 494
3 495 137 493
3 475 462 494
3 494 133 475
3 462 127 494
3 475 38 462
3 496 480 493
3 493 137 496
3 480 133 493
3 496 40 480
3 463 497 495
3 495 127 463
3 497 137 495
3 463 10 497
3 500 498 499
3 499 140 500
3 498 139 499
3 500 138 498
3 502 501 499
3 499 139 502
3 501 140 499
3 502 33 501
3 504 503 498
3 498 138 504
3 503 139 498
3 504 13 503
3 506 505 500
3 500 140 506
3 505 138 500
3 506 23 505
3 509 507 508
3 508 47 509
3 507 139 508
3 509 110 507
3 503 182 508
3 508 139 503
3 182 47 508
3 503 13 182
3 398 502 507
3 507 110 398
3 502 139 507
3 398 33 502
3 183 401 509
3 509 47 183
3 401 110 509
3 183 8 401
3 512 510 511
3 511 79 512
3 510 138 511
3 512 46 510
3 505 294 511
3 511 138 505
3 294 79 511
3 505 23 294
3 174 504 510
3 510 46 174
3 504 138 510
3 174 13 504
3 295 177 512
3 512 79 295
3 177 46 512
3 295 4 177
3 515 513 514
3 514 111 515
3 513 140 514
3 515 78 513
3 501 406 514
3 514 140 501
3 406 111 514
3 501 33 406
3 286 506 513
3 513 78 286
3 506 140 513
3 286 23 506
3 407 289 515
3 515 111 407
3 289 78 515
3 407 0 289
3 518 516 517
3 517 143 518
3 516 142 517
3 518 141 516
3 520 519 517
3 517 142 520
3 519 143 517
3 520 19 519
3 522 521 516
3 516 141 522
3 521 142 516
3 522 32 521
3 524 523 518
3 518 143 524
3 523 141 518
3 524 26 523
3 527 525 526
3 526 113 527
3 525 142 526
3 527 66 525
3 521 413 526
3 526 142 521
3 413 113 526
3 521 32 413
3 244 520 525
3 525 66 244
3 520 142 525
3 244 19 520
3 414 247 527
3 527 113 414
3 247 66 527
3 414 11 247
3 530 528 529
3 529 86 530
3 528 141 529
3 530 112 528
3 523 316 529
3 529 141 523
3 316 86 529
3 523 26 316
3 405 522 528
3 528 112 405
3 522 141 528
3 405 32 522
3 317 408 530
3 530 86 317
3 408 112 530
3 317 0 408
3 533 531 532
3 532 61 533
3 531 143 532
3 533 89 531
3 519 231 532
3 532 143 519
3 231 61 532
3 519 19 231
3 326 524 531
3 531 89 326
3 524 143 531
3 326 26 524
3 232 329 533
3 533 61 232
3 329 89 533
3 232 5 329
3 536 534 535
3 535 146 536
3 534 145 535
3 536 144 534
3 538 537 535
3 535 145 538
3 537 146 535
3 538 22 537
3 540 539 534
3 534 144 540
3 539 145 534
3 540 16 539
3 542 541 536
3 536 146 542
3 541 144 536
3 542 39 541
3 545 543 544
3 544 54 545
3 543 145 544
3 545 80 543
3 539 204 544
3 544 145 539
3 204 54 544
3 539 16 204
3 293 538 543
3 543 80 293
3 538 145 543
3 293 22 538
3 205 296 545
3 545 54 205
3 296 80 545
3 205 4 296
3 548 546 547
3 547 125 548
3 546 144 547
3 548 57 546
3 541 455 547
3 547 144 541
3 455 125 547
3 541 39 455
3 214 540 546
3 546 57 214
3 540 144 546
3 214 16 540
3 456 217 548
3 548 125 456
3 217 57 548
3 456 9 217
3 551 549 550
3 550 81 551
3 549 146 550
3 551 130 549
3 537 301 550
3 550 146 537
3 301 81 550
3 537 22 301
3 468 542 549
3 549 130 468
3 542 146 549
3 468 39 542
3 302 471 551
3 551 81 302
3 471 130 551
3 302 3 471
3 554 552 553
3 553 149 554
3 552 148 553
3 554 147 552
3 556 555 553
3 553 148 556
3 555 149 553
3 556 21 555
3 558 557 552
3 552 147 558
3 557 148 552
3 558 25 557
3 560 559 554
3 554 149 560
3 559 147 554
3 560 37 559
3 563 561 562
3 562 88 563
3 561 148 562
3 563 70 561
3 557 327 562
3 562 148 557
3 327 88 562
3 557 25 327
3 260 556 561
3 561 70 260
3 556 148 561
3 260 21 556
3 328 261 563
3 563 88 328
3 261 70 563
3 328 5 261
3 566 564 565
3 565 129 566
3 564 147 565
3 566 87 564
3 559 469 565
3 565 147 559
3 469 129 565
3 559 37 469
3 321 558 564
3 564 87 321
3 558 147 564
3 321 25 558
3 470 322 566
3 566 129 470
3 322 87 566
3 470 3 322
3 569 567 568
3 568 71 569
3 567 149 568
3 569 128 567
3 555 266 568
3 568 149 555
3 266 71 568
3 555 21 266
3 461 560 567
3 567 128 461
3 560 149 567
3 461 37 560
3 267 464 569
3 569 71 267
3 464 128 569
3 267 10 464
3 572 570 571
3 571 152 572
3 570 151 571
3 572 150 570
3 574 573 571
3 571 151 574
3 573 152 571
3 574 27 573
3 576 575 570
3 570 150 576
3 575 151 570
3 576 12 575
3 578 577 572
3 572 152 578
3 577 150 572
3 578 36 577
3 581 579 580
3 580 49 581
3 579 151 580
3 581 96 579
3 575 189 580
3 580 151 575
3 189 49 580
3 575 12 189
3 349 574 579
3 579 96 349
3 574 151 579
3 349 27 574
3 190 352 581
3 581 49 190
3 352 96 581
3 190 7 352
3 584 582 583
3 583 118 584
3 582 150 583
3 584 48 582
3 577 428 583
3 583 150 577
3 428 118 583
3 577 36 428
3 181 576 582
3 582 48 181
3 576 150 582
3 181 12 576
3 429 184 584
3 584 118 429
3 184 48 584
3 429 8 184
3 587 585 586
3 586 97 587
3 585 152 586
3 587 121 585
3 573 357 586
3 586 152 573
3 357 97 586
3 573 27 357
3 438 578 585
3 585 121 438
3 578 152 585
3 438 36 578
3 358 441 587
3 587 97 358
3 441 121 587
3 358 1 441
3 590 588 589
3 589 155 590
3 588 154 589
3 590 153 588
3 592 591 589
3 589 154 592
3 591 155 589
3 592 17 591
3 594 593 588
3 588 153 594
3 593 154 588
3 594 30 593
3 596 595 590
3 590 155 596
3 595 153 590
3 596 35 595
3 599 597 598
3 598 104 599
3 597 154 598
3 599 64 597
3 593 383 598
3 598 154 593
3 383 104 598
3 593 30 383
3 237 592 597
3 597 64 237
3 592 154 597
3 237 17 592
3 384 240 599
3 599 104 384
3 240 64 599
3 384 6 240
3 602 600 601
3 601 120 602
3 600 153 601
3 602 103 600
3 595 439 601
3 601 153 595
3 439 120 601
3 595 35 439
3 377 594 600
3 600 103 377
3 594 153 600
3 377 30 594
3 440 378 602
3 602 120 440
3 378 103 602
3 440 1 378
3 605 603 604
3 604 65 605
3 603 155 604
3 605 119 603
3 591 245 604
3 604 155 591
3 245 65 604
3 591 17 245
3 433 596 603
3 603 119 433
3 596 155 603
3 433 35 596
3 246 434 605
3 605 65 246
3 434 119 605
3 246 11 434
3 608 606 607
3 607 158 608
3 606 157 607
3 608 156 606
3 610 609 607
3 607 157 610
3 609 158 607
3 610 15 609
3 612 611 606
3 606 156 612
3 611 157 606
3 612 28 611
3 614 613 608
3 608 158 614
3 613 156 608
3 614 41 613
3 617 615 616
3 616 95 617
3 615 157 616
3 617 55 615
3 611 350 616
3 616 157 611
3 350 95 616
3 611 28 350
3 209 610 615
3 615 55 209
3 610 157 615
3 209 15 610
3 351 210 617
3 617 95 351
3 210 55 617
3 351 7 210
3 620 618 619
3 619 135 620
3 618 156 619
3 620 94 618
3 613 490 619
3 619 156 613
3 490 135 619
3 613 41 490
3 342 612 618
3 618 94 342
3 612 156 618
3 342 28 612
3 491 345 620
3 620 135 491
3 345 94 620
3 491 2 345
3 623 621 622
3 622 56 623
3 621 158 622
3 623 134 621
3 609 215 622
3 622 158 609
3 215 56 622
3 609 15 215
3 484 614 621
3 621 134 484
3 614 158 621
3 484 41 614
3 216 485 623
3 623 56 216
3 485 134 623
3 216 9 485
3 626 624 625
3 625 161 626
3 624 160 625
3 626 159 624
3 628 627 625
3 625 160 628
3 627 161 625
3 628 31 627
3 630 629 624
3 624 159 630
3 629 160 624
3 630 20 629
3 632 631 626
3 626 161 632
3 631 159 626
3 632 40 631
3 635 633 634
3 634 73 635
3 633 160 634
3 635 105 633
3 629 272 634
3 634 160 629
3 272 73 634
3 629 20 272
3 382 628 633
3 633 105 382
3 628 160 633
3 382 31 628
3 273 385 635
3 635 73 273
3 385 105 635
3 273 6 385
3 638 636 637
3 637 137 638
3 636 159 637
3 638 72 636
3 631 496 637
3 637 159 631
3 496 137 637
3 631 40 496
3 265 630 636
3 636 72 265
3 630 159 636
3 265 20 630
3 497 268 638
3 638 137 497
3 268 72 638
3 497 10 268
3 641 639 640
3 640 102 641
3 639 161 640
3 641 136 639
3 627 372 640
3 640 161 627
3 372 102 640
3 627 31 372
3 489 632 639
3 639 136 489
3 632 161 639
3 489 40 632
3 373 492 641
3 641 102 373
3 492 136 641
3 373 2 492
