# vtk DataFile Version 3.0
this file was written using fslvtkio
ASCII
DATASET POLYDATA
POINTS 642 float
101.283 128.497 104.76
91.8483 125.026 103.608
89.3517 116.204 102.483
97.862 119.984 103.935
96.6306 122.904 108.92
99.265 123.622 99.576
92.6763 121.744 99.4321
91.9034 120.883 108.203
95.2623 129.898 108.297
92.3853 114.097 106.459
93.6064 114.934 100.228
96.6959 129.859 101.211
93.4919 125.593 109.055
96.6594 126.915 109.731
93.8294 121.572 110.568
91.3982 116.73 108.7
94.6239 118.409 108.325
94.7063 126.062 99.9285
95.883 122.688 99.397
98.8185 127.403 100.853
92.5439 117.707 99.5401
96.5194 119.297 99.8459
97.1782 121.473 106.348
99.2644 126.42 107.55
100.548 124.203 104.147
99.6435 121.721 101.473
101.51 126.666 101.453
91.6317 123.242 106.167
90.3037 117.705 105.701
90.169 120.575 102.75
91.6459 123.954 100.579
90.1349 118.332 99.9136
100.383 131.474 102.58
98.899 130.904 106.767
96.4362 131.353 104.659
93.7054 128.209 102.181
93.4584 127.775 105.988
95.8241 116.747 102.076
91.9872 112.016 102.65
94.7919 116.567 105.032
89.8552 113.168 99.8765
89.6926 113.172 104.635
94.7338 126.582 110.218
95.2747 124.392 110.543
93.5248 123.773 110.238
95.326 122.184 109.9
96.8871 124.831 109.719
96.0159 128.644 109.277
94.1646 127.91 109.019
92.7172 123.222 108.66
92.5534 121.199 109.723
92.529 119.115 110.227
94.4066 119.808 109.83
93.1508 117.227 109.277
95.7566 120.608 108.713
91.5589 118.838 108.59
91.8198 115.203 107.997
93.564 116.268 107.573
95.4543 124.404 99.5222
97.3932 125.155 99.846
96.7504 126.76 100.374
99.0626 125.543 100.015
97.5684 123.191 99.4096
94.2482 122.17 99.3766
93.6538 123.962 99.3088
95.6749 128.131 100.505
97.7913 128.743 101.016
94.5507 118.58 99.6484
96.2441 120.995 99.4645
94.3095 120.194 99.458
98.0243 121.509 99.6492
95.0621 117.183 100.027
93.1174 116.302 99.7183
92.6817 119.713 99.4418
98.4649 124.025 106.976
99.8556 125.249 105.873
98.8826 123.056 105.419
101.005 126.325 104.478
100.289 127.466 106.199
98.0815 124.6 108.384
96.852 122.268 107.587
97.6346 120.635 105.177
99.2343 122.168 104.06
100.45 122.879 102.752
101.601 125.36 102.763
101.39 124.122 101.043
101.726 127.594 103.022
98.6452 120.763 102.777
99.7767 122.493 100.225
100.706 125.198 100.109
90.7802 120.49 105.87
90.0856 119.255 104.375
90.7945 121.69 104.496
89.6607 118.42 102.616
89.6711 116.85 104.19
91.0013 119.341 107.011
91.7267 122.136 107.215
91.6316 124.112 104.89
91.0589 122.77 103.192
90.7864 122.296 101.621
89.9855 119.653 101.22
90.5471 121.377 100.057
89.4031 117.16 101.04
91.7295 124.522 102.114
91.9269 123.028 99.4411
91.2822 120.129 99.5835
100.16 131.922 104.797
97.6435 132.316 106.053
98.4078 132.393 103.318
95.587 130.965 106.689
96.9878 130.635 107.867
100.492 129.814 105.935
101.529 130.231 103.785
98.4831 130.917 101.635
96.7044 130.684 102.747
95.2702 129.738 103.484
94.9041 129.666 105.399
93.6639 128.284 104.105
94.3666 128.814 107.254
95.0362 129.157 101.482
92.6416 126.702 102.934
92.5918 126.401 104.792
93.9768 114.051 102.322
93.4398 113.896 103.959
95.2535 116.189 103.527
93.6792 115.238 105.759
92.0369 112.694 104.789
92.8664 113.178 101.059
94.8651 115.74 101.072
96.9297 118.446 102.994
96.3418 118.284 104.491
89.1532 112.142 101.897
90.423 111.301 103.803
91.0618 111.624 100.618
90.727 113.082 106.359
89.3416 114.594 103.469
89.1635 114.603 101.284
91.8652 113.918 99.8991
98.0838 126.646 108.831
97.7692 129.049 108.341
99.3191 128.788 107.242
101.153 129.174 102.254
99.567 129.696 101.62
100.276 127.144 100.969
94.8278 117.487 106.689
95.8723 119.905 107.28
96.0615 119.099 105.731
97.725 119.419 101.821
98.2446 120.474 100.564
96.393 117.981 100.895
93.272 126.771 107.648
92.4107 124.487 107.653
92.3785 125.558 106.186
92.5753 126.226 101.364
92.8493 125.175 99.8183
93.9511 127.441 100.564
89.8536 115.31 105.306
90.8477 117.145 107.178
90.4099 114.756 106.921
91.2207 115.247 99.4478
91.2114 117.896 99.4585
89.6446 115.551 99.7897
94.9998 125.515 110.525
94.3129 124.157 110.577
94.0839 125.218 110.339
93.6883 122.793 110.601
94.5063 123.085 110.605
95.8844 125.693 110.27
95.6681 126.681 110.119
93.977 126.057 109.792
93.47 124.813 109.778
95.3107 123.27 110.287
96.0829 124.64 110.195
96.1145 123.572 109.925
96.7633 125.863 109.882
94.6076 121.98 110.336
96.0091 122.589 109.454
96.7812 123.769 109.442
95.3449 127.631 109.984
94.3241 127.288 109.799
94.9735 128.383 109.437
93.7731 126.808 109.152
96.3275 127.794 109.555
95.5915 129.369 108.927
94.7296 128.955 108.774
93.0857 123.591 109.488
93.0683 122.533 110.05
92.6931 122.313 109.214
93.0716 121.405 110.404
93.0816 124.425 108.979
92.2852 122.054 108.499
92.2574 121.079 108.971
93.5002 119.396 110.186
93.7486 118.521 109.592
92.8684 118.12 109.923
93.92 117.819 108.892
94.4847 119.022 109.157
94.1195 120.641 110.325
93.1466 120.251 110.529
92.0094 117.948 109.563
92.2166 116.941 109.336
95.0785 120.128 109.269
94.8622 120.978 109.939
95.5716 121.382 109.357
95.1543 119.504 108.576
96.1419 121.849 108.83
92.5028 120.186 110.033
91.9717 118.981 109.459
92.047 120.027 109.155
91.5094 117.827 108.758
91.695 119.891 108.389
92.4922 116.171 108.862
93.4745 116.697 108.535
92.7644 115.679 107.947
94.1999 117.255 108.087
91.5536 115.841 108.625
92.1246 114.658 107.234
93.0257 115.253 107.074
96.4013 124.808 99.6806
97.0895 125.987 100.082
96.0586 125.576 99.9685
97.7743 127.049 100.553
98.0628 126.332 100.255
96.6576 124.029 99.4303
95.7952 123.635 99.366
95.1805 125.232 99.7969
95.7189 126.358 100.136
98.2224 125.403 99.9649
97.4655 124.144 99.4764
98.3569 124.366 99.5402
96.7284 123.071 99.3222
98.9247 126.537 100.419
99.1658 124.524 99.5933
98.4148 123.43 99.5344
94.9133 123.351 99.3157
94.5649 124.228 99.3938
94.0484 123.111 99.2912
94.2048 124.987 99.5754
95.0855 122.443 99.3745
93.4338 121.94 99.4003
93.2043 122.892 99.2919
96.1888 127.383 100.472
97.2662 127.671 100.841
96.7543 128.403 100.754
98.2923 127.992 101.025
95.2809 127.107 100.185
96.2061 129.053 100.666
97.2387 129.377 100.913
95.4324 119.746 99.5116
95.3139 120.613 99.4549
94.4331 119.398 99.5217
95.1099 121.377 99.4375
96.0609 121.839 99.4061
96.3278 120.059 99.5806
95.5503 118.976 99.6886
93.5711 118.219 99.575
93.4617 118.973 99.5314
96.8841 122.167 99.3564
97.0929 121.216 99.5277
97.7925 122.333 99.4161
97.2368 120.405 99.7435
98.66 122.614 99.5636
94.8426 117.936 99.7417
93.8034 117.51 99.6878
94.0913 116.769 99.8441
92.8805 117.105 99.6054
95.7772 118.252 99.8603
94.2786 116.089 100.165
93.4112 115.61 99.934
93.5199 119.96 99.4602
94.3704 121.227 99.4839
93.4871 120.947 99.4627
92.6476 118.759 99.4585
92.708 120.731 99.5006
99.1104 124.642 106.447
99.3706 124.126 105.632
98.5387 123.446 106.163
99.726 123.716 104.866
100.073 124.698 105.053
99.5791 125.716 106.741
99.001 125.158 107.261
97.817 122.87 106.583
97.9968 122.367 105.964
100.424 125.752 105.207
100.123 126.318 106.104
100.675 126.86 105.391
99.7911 126.872 106.884
100.759 125.241 104.391
101.204 127.389 104.599
100.824 127.959 105.468
98.3704 124.348 107.72
97.6592 123.206 107.262
97.5406 123.494 108.011
97.0586 121.993 106.936
98.7366 125.583 107.997
97.3599 123.729 108.724
96.7747 122.566 108.27
98.3001 121.914 105.376
99.1524 122.633 104.75
98.5591 121.441 104.76
99.9756 123.223 104.142
97.4829 121.098 105.774
97.8827 120.363 104.561
98.6466 121.09 104.055
101.184 124.084 102.736
101.686 124.76 101.895
101.108 123.518 101.955
101.742 125.349 101.111
101.726 125.998 101.991
101.127 124.725 103.492
100.57 123.504 103.448
100.257 122.393 101.988
100.721 122.989 101.235
101.694 126.368 102.882
101.195 125.719 103.701
101.423 126.908 103.766
101.708 127.179 102.218
101.536 128.078 103.904
99.8128 122.5 103.492
99.6325 121.857 102.705
98.9991 121.357 103.386
99.1968 121.283 102.161
98.2667 120.359 103.435
100.711 123.295 100.495
101.207 124.631 100.4
100.452 123.867 99.9073
101.251 125.914 100.704
99.897 122.155 100.846
99.5338 122.998 99.8058
99.9641 124.328 99.7107
90.3937 119.877 105.139
90.3683 120.507 104.424
90.8057 121.186 105.212
90.4265 121.006 103.698
90.1156 119.957 103.646
90.1841 118.574 105.074
90.485 119.146 105.744
91.1293 121.831 105.941
91.2078 122.315 105.371
89.8297 118.83 103.568
89.8343 118.057 104.332
89.6507 117.688 103.471
89.9827 117.278 104.972
89.9012 119.518 102.784
89.5034 117.325 102.595
89.5065 116.611 103.305
90.8673 119.855 106.415
91.1702 121.327 106.532
91.3339 120.763 107.077
91.6166 122.591 106.623
90.6083 118.483 106.339
91.432 120.159 107.626
91.8263 121.548 107.744
91.2656 122.85 104.749
90.9291 122.141 103.821
91.3369 123.371 104.08
90.593 121.619 102.983
91.6056 123.61 105.519
91.6771 124.498 104.198
91.417 123.88 103.426
90.3453 120.999 101.447
90.2761 120.548 100.673
90.5582 121.903 100.859
90.3298 119.954 100.026
89.9583 119.123 100.468
90.0525 120.183 101.974
90.4359 121.411 102.176
91.1784 123.092 101.024
90.9407 122.644 100.259
89.6839 118.475 101.112
89.7261 119.095 101.981
89.464 117.855 101.84
89.7514 117.713 100.399
89.3188 116.681 101.788
90.9005 122.44 102.458
91.2777 123.369 101.819
91.3866 123.637 102.645
91.6432 124.264 101.345
91.7757 124.748 102.907
91.1337 122.211 99.6754
90.8729 120.784 99.7038
91.5837 121.59 99.4837
90.6362 119.32 99.6603
91.5879 123.435 99.9145
92.3239 122.346 99.3554
91.9806 120.968 99.5297
99.0063 132.386 105.3
98.2269 132.592 104.669
99.4324 132.543 104.111
97.3843 132.142 104.016
97.0255 132.143 105.251
98.437 131.866 106.406
99.5224 131.595 105.808
100.382 131.93 103.616
99.4843 132.249 102.88
96.4758 131.899 106.428
97.3797 131.618 107.037
96.1819 131.203 107.506
97.9663 130.937 107.307
96.0438 131.354 105.679
95.322 130.413 107.512
96.0362 130.311 108.253
100.403 130.956 105.438
100.988 131.218 104.34
101.154 130.152 104.949
101.099 131.079 103.267
99.789 130.586 106.272
100.941 129.111 105.472
101.508 129.316 104.375
98.5276 131.753 102.391
97.4689 131.642 103.012
97.4915 130.932 102.034
96.7809 131.266 103.686
99.402 131.461 102.124
97.5643 130.357 101.322
96.6058 130.279 101.869
95.1881 129.822 104.44
94.2775 129.072 104.755
94.4321 129.075 103.802
93.6148 128.233 105.043
94.0974 128.804 105.621
95.7169 130.587 105.104
96.0288 130.56 104.106
94.4906 128.94 102.908
93.7535 128.349 103.177
94.5537 129.238 106.26
95.3225 130.382 106.007
94.9785 129.894 106.979
93.9473 128.31 106.563
94.7591 129.359 107.897
96.0437 130.328 103.206
95.1595 129.402 102.578
95.847 129.892 102.178
94.4391 128.756 101.92
95.8275 129.528 101.239
93.1271 127.555 103.482
93.1246 127.453 104.474
92.6217 126.63 103.888
93.0568 127.245 105.326
93.1395 127.534 102.572
92.2121 125.884 103.315
92.1096 125.723 104.22
93.7104 113.858 103.153
94.3556 114.969 103.713
94.6221 114.999 102.958
94.9102 116.107 104.271
94.1455 115.146 104.454
92.7856 112.859 103.359
92.9795 112.995 102.506
94.8289 115.273 102.246
95.4465 116.222 102.761
93.546 114.578 104.84
92.8819 113.192 104.355
92.8888 113.856 105.303
92.0396 112.247 103.755
94.2208 115.76 105.292
93.0766 114.684 106.14
92.1622 113.335 105.702
93.4456 113.553 101.747
94.4256 114.813 101.652
93.962 114.358 101.019
95.2854 116.057 101.635
92.4417 112.445 101.778
93.3305 114.084 100.549
94.2985 115.424 100.621
96.0974 117.213 103.202
95.7511 117.162 104.033
96.5975 118.212 103.729
95.5173 117.341 104.77
96.3737 117.57 102.522
97.4162 119.245 103.478
97.1783 119.184 104.241
89.6443 111.147 102.711
90.7297 111.12 102.114
89.8808 111.285 101.151
91.6274 111.677 101.559
91.3069 111.529 103.275
89.7022 111.886 104.154
89.2751 112.302 103.255
89.2818 112.299 100.689
90.2261 112.046 100.091
91.3653 111.966 104.395
90.4326 111.935 105.022
91.371 112.789 105.614
90.0783 112.897 105.451
91.5845 113.494 106.574
89.2296 113.323 102.785
89.1135 113.286 101.517
89.152 114.567 102.374
89.3049 113.585 100.531
89.406 113.542 103.888
89.3243 115.505 103.07
89.1763 115.466 101.926
91.3915 112.565 100.083
92.1536 112.414 100.914
92.5732 113.549 100.317
90.8227 113.258 99.8298
92.766 114.52 100.005
97.9926 127.898 108.571
98.5594 129.011 107.766
98.7136 127.805 108.067
99.1829 129.904 107.004
98.3014 130.056 107.534
97.2313 127.957 109.032
97.4161 126.848 109.305
98.6969 126.644 108.203
99.3053 127.568 107.531
97.4729 129.922 108.135
96.8887 128.759 108.88
96.4861 129.665 108.632
97.4797 125.762 109.355
98.2155 125.573 108.691
97.5253 124.584 109.125
99.8167 127.998 106.894
99.8511 129.406 106.617
100.415 128.619 106.16
100.45 129.589 101.945
99.9613 128.478 101.513
100.702 128.242 101.624
99.5964 127.416 100.993
99.1886 128.479 101.295
100.043 130.71 101.933
100.945 130.501 102.432
101.342 127.912 101.847
100.961 127.004 101.157
98.6602 129.072 101.264
99.1237 130.431 101.55
98.1323 129.874 101.118
101.449 129.825 102.904
101.506 128.264 102.526
101.674 128.881 103.492
100.546 126.145 100.479
99.6659 126.386 100.422
99.8434 125.293 99.9875
95.2885 118.709 106.992
95.894 119.562 106.452
95.3809 118.249 106.174
96.6078 120.299 106.062
96.4874 120.686 106.771
95.2213 119.116 107.785
94.7575 117.941 107.513
94.8374 117.024 105.828
95.479 117.821 105.457
96.3992 121.024 107.387
95.7743 120.163 107.988
96.2618 121.417 108.126
94.3113 116.869 107.187
94.2741 116.388 106.141
93.6499 115.795 106.632
96.1552 118.564 105.096
96.8253 119.911 105.485
97.0695 119.496 104.875
98.1189 119.999 101.185
97.3216 119.305 100.7
97.0859 118.657 101.321
96.6167 118.691 100.297
97.3691 119.834 100.172
99.0358 121.063 101.003
98.7178 120.593 101.693
96.7902 118.11 101.947
96.1555 117.377 101.473
98.0749 120.903 100.101
99.0847 121.462 100.429
98.8869 121.995 99.921
98.2762 120.165 102.267
97.2731 118.872 102.406
97.8035 119.69 102.92
95.6732 116.813 101.02
95.8211 117.639 100.398
95.0669 116.471 100.473
92.9225 125.603 107.631
92.3254 124.974 106.893
92.8823 126.148 106.837
91.8709 124.437 106.233
91.9622 123.905 106.895
93.0172 125.015 108.358
93.4157 126.205 108.359
93.3408 127.227 106.777
92.9195 126.72 106.086
92.0716 123.313 107.342
92.5827 123.89 108.188
92.2607 122.682 107.92
93.6698 127.288 108.35
93.7686 127.812 107.405
94.2256 128.363 108.152
92.5195 126.051 105.476
91.8796 124.859 105.582
91.9708 125.277 104.827
92.6563 125.794 100.527
93.3942 126.313 100.201
93.1771 126.879 100.918
94.284 126.769 100.134
93.748 125.638 99.7725
92.1597 124.653 100.144
92.0584 125.151 100.929
93.0614 127.24 101.744
93.7249 127.906 101.315
93.2814 124.614 99.5007
92.311 124.082 99.6409
92.7507 123.459 99.3453
92.0769 125.361 101.719
92.5723 126.501 102.161
92.0859 125.625 102.57
94.3912 128.394 101.036
94.762 127.718 100.379
95.2782 128.828 100.738
90.2794 116.187 106.329
90.576 115.929 107.11
90.0777 114.979 106.106
90.8712 115.718 107.9
91.0474 116.92 107.981
90.5033 117.289 106.412
90.0663 116.505 105.614
89.6702 114.192 104.982
89.9947 113.842 105.832
91.2053 117.996 107.921
90.8184 118.209 107.062
91.2937 119.106 107.732
89.7863 116.118 104.835
89.5422 114.779 104.392
89.4905 115.748 103.921
90.4205 113.805 106.696
91.0463 114.976 107.766
91.3139 114.132 107.247
91.0902 116.483 99.4717
90.4149 116.585 99.5078
90.3259 115.226 99.3893
89.9081 116.931 99.8535
90.6352 118.013 99.6363
91.8323 117.756 99.4905
91.85 116.572 99.5535
90.5417 114.111 99.5781
89.6405 114.292 99.8039
91.2025 119.013 99.4194
91.9495 118.799 99.384
91.9697 119.912 99.4733
92.2268 116.028 99.6088
91.4878 114.531 99.6281
92.517 115.182 99.7931
89.3518 114.996 100.492
89.5196 116.503 100.406
89.2923 115.984 101.227
POLYGONS 1280  5120
3 164 162 163
3 163 44 164
3 162 43 163
3 164 42 162
3 166 165 163
3 163 43 166
3 165 44 163
3 166 14 165
3 168 167 162
3 162 42 168
3 167 43 162
3 168 13 167
3 170 169 164
3 164 44 170
3 169 42 164
3 170 12 169
3 173 171 172
3 172 46 173
3 171 43 172
3 173 45 171
3 167 174 172
3 172 43 167
3 174 46 172
3 167 13 174
3 175 166 171
3 171 45 175
3 166 43 171
3 175 14 166
3 177 176 173
3 173 46 177
3 176 45 173
3 177 4 176
3 180 178 179
3 179 48 180
3 178 42 179
3 180 47 178
3 169 181 179
3 179 42 169
3 181 48 179
3 169 12 181
3 182 168 178
3 178 47 182
3 168 42 178
3 182 13 168
3 184 183 180
3 180 48 184
3 183 47 180
3 184 8 183
3 187 185 186
3 186 50 187
3 185 44 186
3 187 49 185
3 165 188 186
3 186 44 165
3 188 50 186
3 165 14 188
3 189 170 185
3 185 49 189
3 170 44 185
3 189 12 170
3 191 190 187
3 187 50 191
3 190 49 187
3 191 7 190
3 194 192 193
3 193 53 194
3 192 52 193
3 194 51 192
3 196 195 193
3 193 52 196
3 195 53 193
3 196 16 195
3 198 197 192
3 192 51 198
3 197 52 192
3 198 14 197
3 200 199 194
3 194 53 200
3 199 51 194
3 200 15 199
3 203 201 202
3 202 45 203
3 201 52 202
3 203 54 201
3 197 175 202
3 202 52 197
3 175 45 202
3 197 14 175
3 204 196 201
3 201 54 204
3 196 52 201
3 204 16 196
3 176 205 203
3 203 45 176
3 205 54 203
3 176 4 205
3 208 206 207
3 207 55 208
3 206 51 207
3 208 50 206
3 199 209 207
3 207 51 199
3 209 55 207
3 199 15 209
3 188 198 206
3 206 50 188
3 198 51 206
3 188 14 198
3 210 191 208
3 208 55 210
3 191 50 208
3 210 7 191
3 213 211 212
3 212 57 213
3 211 53 212
3 213 56 211
3 195 214 212
3 212 53 195
3 214 57 212
3 195 16 214
3 215 200 211
3 211 56 215
3 200 53 211
3 215 15 200
3 217 216 213
3 213 57 217
3 216 56 213
3 217 9 216
3 220 218 219
3 219 60 220
3 218 59 219
3 220 58 218
3 222 221 219
3 219 59 222
3 221 60 219
3 222 19 221
3 224 223 218
3 218 58 224
3 223 59 218
3 224 18 223
3 226 225 220
3 220 60 226
3 225 58 220
3 226 17 225
3 229 227 228
3 228 62 229
3 227 59 228
3 229 61 227
3 223 230 228
3 228 59 223
3 230 62 228
3 223 18 230
3 231 222 227
3 227 61 231
3 222 59 227
3 231 19 222
3 233 232 229
3 229 62 233
3 232 61 229
3 233 5 232
3 236 234 235
3 235 64 236
3 234 58 235
3 236 63 234
3 225 237 235
3 235 58 225
3 237 64 235
3 225 17 237
3 238 224 234
3 234 63 238
3 224 58 234
3 238 18 224
3 240 239 236
3 236 64 240
3 239 63 236
3 240 6 239
3 243 241 242
3 242 66 243
3 241 60 242
3 243 65 241
3 221 244 242
3 242 60 221
3 244 66 242
3 221 19 244
3 245 226 241
3 241 65 245
3 226 60 241
3 245 17 226
3 247 246 243
3 243 66 247
3 246 65 243
3 247 11 246
3 250 248 249
3 249 69 250
3 248 68 249
3 250 67 248
3 252 251 249
3 249 68 252
3 251 69 249
3 252 18 251
3 254 253 248
3 248 67 254
3 253 68 248
3 254 21 253
3 256 255 250
3 250 69 256
3 255 67 250
3 256 20 255
3 259 257 258
3 258 70 259
3 257 68 258
3 259 62 257
3 253 260 258
3 258 68 253
3 260 70 258
3 253 21 260
3 230 252 257
3 257 62 230
3 252 68 257
3 230 18 252
3 261 233 259
3 259 70 261
3 233 62 259
3 261 5 233
3 264 262 263
3 263 72 264
3 262 67 263
3 264 71 262
3 255 265 263
3 263 67 255
3 265 72 263
3 255 20 265
3 266 254 262
3 262 71 266
3 254 67 262
3 266 21 254
3 268 267 264
3 264 72 268
3 267 71 264
3 268 10 267
3 271 269 270
3 270 63 271
3 269 69 270
3 271 73 269
3 251 238 270
3 270 69 251
3 238 63 270
3 251 18 238
3 272 256 269
3 269 73 272
3 256 69 269
3 272 20 256
3 239 273 271
3 271 63 239
3 273 73 271
3 239 6 273
3 276 274 275
3 275 76 276
3 274 75 275
3 276 74 274
3 278 277 275
3 275 75 278
3 277 76 275
3 278 24 277
3 280 279 274
3 274 74 280
3 279 75 274
3 280 23 279
3 282 281 276
3 276 76 282
3 281 74 276
3 282 22 281
3 285 283 284
3 284 78 285
3 283 75 284
3 285 77 283
3 279 286 284
3 284 75 279
3 286 78 284
3 279 23 286
3 287 278 283
3 283 77 287
3 278 75 283
3 287 24 278
3 289 288 285
3 285 78 289
3 288 77 285
3 289 0 288
3 292 290 291
3 291 80 292
3 290 74 291
3 292 79 290
3 281 293 291
3 291 74 281
3 293 80 291
3 281 22 293
3 294 280 290
3 290 79 294
3 280 74 290
3 294 23 280
3 296 295 292
3 292 80 296
3 295 79 292
3 296 4 295
3 299 297 298
3 298 82 299
3 297 76 298
3 299 81 297
3 277 300 298
3 298 76 277
3 300 82 298
3 277 24 300
3 301 282 297
3 297 81 301
3 282 76 297
3 301 22 282
3 303 302 299
3 299 82 303
3 302 81 299
3 303 3 302
3 306 304 305
3 305 85 306
3 304 84 305
3 306 83 304
3 308 307 305
3 305 84 308
3 307 85 305
3 308 26 307
3 310 309 304
3 304 83 310
3 309 84 304
3 310 24 309
3 312 311 306
3 306 85 312
3 311 83 306
3 312 25 311
3 315 313 314
3 314 77 315
3 313 84 314
3 315 86 313
3 309 287 314
3 314 84 309
3 287 77 314
3 309 24 287
3 316 308 313
3 313 86 316
3 308 84 313
3 316 26 308
3 288 317 315
3 315 77 288
3 317 86 315
3 288 0 317
3 320 318 319
3 319 87 320
3 318 83 319
3 320 82 318
3 311 321 319
3 319 83 311
3 321 87 319
3 311 25 321
3 300 310 318
3 318 82 300
3 310 83 318
3 300 24 310
3 322 303 320
3 320 87 322
3 303 82 320
3 322 3 303
3 325 323 324
3 324 89 325
3 323 85 324
3 325 88 323
3 307 326 324
3 324 85 307
3 326 89 324
3 307 26 326
3 327 312 323
3 323 88 327
3 312 85 323
3 327 25 312
3 329 328 325
3 325 89 329
3 328 88 325
3 329 5 328
3 332 330 331
3 331 92 332
3 330 91 331
3 332 90 330
3 334 333 331
3 331 91 334
3 333 92 331
3 334 29 333
3 336 335 330
3 330 90 336
3 335 91 330
3 336 28 335
3 338 337 332
3 332 92 338
3 337 90 332
3 338 27 337
3 341 339 340
3 340 94 341
3 339 91 340
3 341 93 339
3 335 342 340
3 340 91 335
3 342 94 340
3 335 28 342
3 343 334 339
3 339 93 343
3 334 91 339
3 343 29 334
3 345 344 341
3 341 94 345
3 344 93 341
3 345 2 344
3 348 346 347
3 347 96 348
3 346 90 347
3 348 95 346
3 337 349 347
3 347 90 337
3 349 96 347
3 337 27 349
3 350 336 346
3 346 95 350
3 336 90 346
3 350 28 336
3 352 351 348
3 348 96 352
3 351 95 348
3 352 7 351
3 355 353 354
3 354 98 355
3 353 92 354
3 355 97 353
3 333 356 354
3 354 92 333
3 356 98 354
3 333 29 356
3 357 338 353
3 353 97 357
3 338 92 353
3 357 27 338
3 359 358 355
3 355 98 359
3 358 97 355
3 359 1 358
3 362 360 361
3 361 101 362
3 360 100 361
3 362 99 360
3 364 363 361
3 361 100 364
3 363 101 361
3 364 31 363
3 366 365 360
3 360 99 366
3 365 100 360
3 366 29 365
3 368 367 362
3 362 101 368
3 367 99 362
3 368 30 367
3 371 369 370
3 370 93 371
3 369 100 370
3 371 102 369
3 365 343 370
3 370 100 365
3 343 93 370
3 365 29 343
3 372 364 369
3 369 102 372
3 364 100 369
3 372 31 364
3 344 373 371
3 371 93 344
3 373 102 371
3 344 2 373
3 376 374 375
3 375 103 376
3 374 99 375
3 376 98 374
3 367 377 375
3 375 99 367
3 377 103 375
3 367 30 377
3 356 366 374
3 374 98 356
3 366 99 374
3 356 29 366
3 378 359 376
3 376 103 378
3 359 98 376
3 378 1 359
3 381 379 380
3 380 105 381
3 379 101 380
3 381 104 379
3 363 382 380
3 380 101 363
3 382 105 380
3 363 31 382
3 383 368 379
3 379 104 383
3 368 101 379
3 383 30 368
3 385 384 381
3 381 105 385
3 384 104 381
3 385 6 384
3 388 386 387
3 387 108 388
3 386 107 387
3 388 106 386
3 390 389 387
3 387 107 390
3 389 108 387
3 390 34 389
3 392 391 386
3 386 106 392
3 391 107 386
3 392 33 391
3 394 393 388
3 388 108 394
3 393 106 388
3 394 32 393
3 397 395 396
3 396 110 397
3 395 107 396
3 397 109 395
3 391 398 396
3 396 107 391
3 398 110 396
3 391 33 398
3 399 390 395
3 395 109 399
3 390 107 395
3 399 34 390
3 401 400 397
3 397 110 401
3 400 109 397
3 401 8 400
3 404 402 403
3 403 112 404
3 402 106 403
3 404 111 402
3 393 405 403
3 403 106 393
3 405 112 403
3 393 32 405
3 406 392 402
3 402 111 406
3 392 106 402
3 406 33 392
3 408 407 404
3 404 112 408
3 407 111 404
3 408 0 407
3 411 409 410
3 410 114 411
3 409 108 410
3 411 113 409
3 389 412 410
3 410 108 389
3 412 114 410
3 389 34 412
3 413 394 409
3 409 113 413
3 394 108 409
3 413 32 394
3 415 414 411
3 411 114 415
3 414 113 411
3 415 11 414
3 418 416 417
3 417 117 418
3 416 116 417
3 418 115 416
3 420 419 417
3 417 116 420
3 419 117 417
3 420 36 419
3 422 421 416
3 416 115 422
3 421 116 416
3 422 34 421
3 424 423 418
3 418 117 424
3 423 115 418
3 424 35 423
3 427 425 426
3 426 109 427
3 425 116 426
3 427 118 425
3 421 399 426
3 426 116 421
3 399 109 426
3 421 34 399
3 428 420 425
3 425 118 428
3 420 116 425
3 428 36 420
3 400 429 427
3 427 109 400
3 429 118 427
3 400 8 429
3 432 430 431
3 431 119 432
3 430 115 431
3 432 114 430
3 423 433 431
3 431 115 423
3 433 119 431
3 423 35 433
3 412 422 430
3 430 114 412
3 422 115 430
3 412 34 422
3 434 415 432
3 432 119 434
3 415 114 432
3 434 11 415
3 437 435 436
3 436 121 437
3 435 117 436
3 437 120 435
3 419 438 436
3 436 117 419
3 438 121 436
3 419 36 438
3 439 424 435
3 435 120 439
3 424 117 435
3 439 35 424
3 441 440 437
3 437 121 441
3 440 120 437
3 441 1 440
3 444 442 443
3 443 124 444
3 442 123 443
3 444 122 442
3 446 445 443
3 443 123 446
3 445 124 443
3 446 39 445
3 448 447 442
3 442 122 448
3 447 123 442
3 448 38 447
3 450 449 444
3 444 124 450
3 449 122 444
3 450 37 449
3 453 451 452
3 452 126 453
3 451 123 452
3 453 125 451
3 447 454 452
3 452 123 447
3 454 126 452
3 447 38 454
3 455 446 451
3 451 125 455
3 446 123 451
3 455 39 446
3 457 456 453
3 453 126 457
3 456 125 453
3 457 9 456
3 460 458 459
3 459 128 460
3 458 122 459
3 460 127 458
3 449 461 459
3 459 122 449
3 461 128 459
3 449 37 461
3 462 448 458
3 458 127 462
3 448 122 458
3 462 38 448
3 464 463 460
3 460 128 464
3 463 127 460
3 464 10 463
3 467 465 466
3 466 130 467
3 465 124 466
3 467 129 465
3 445 468 466
3 466 124 445
3 468 130 466
3 445 39 468
3 469 450 465
3 465 129 469
3 450 124 465
3 469 37 450
3 471 470 467
3 467 130 471
3 470 129 467
3 471 3 470
3 474 472 473
3 473 133 474
3 472 132 473
3 474 131 472
3 476 475 473
3 473 132 476
3 475 133 473
3 476 38 475
3 478 477 472
3 472 131 478
3 477 132 472
3 478 41 477
3 480 479 474
3 474 133 480
3 479 131 474
3 480 40 479
3 483 481 482
3 482 134 483
3 481 132 482
3 483 126 481
3 477 484 482
3 482 132 477
3 484 134 482
3 477 41 484
3 454 476 481
3 481 126 454
3 476 132 481
3 454 38 476
3 485 457 483
3 483 134 485
3 457 126 483
3 485 9 457
3 488 486 487
3 487 136 488
3 486 131 487
3 488 135 486
3 479 489 487
3 487 131 479
3 489 136 487
3 479 40 489
3 490 478 486
3 486 135 490
3 478 131 486
3 490 41 478
3 492 491 488
3 488 136 492
3 491 135 488
3 492 2 491
3 495 493 494
3 494 127 495
3 493 133 494
3 495 137 493
3 475 462 494
3 494 133 475
3 462 127 494
3 475 38 462
3 496 480 493
3 493 137 496
3 480 133 493
3 496 40 480
3 463 497 495
3 495 127 463
3 497 137 495
3 463 10 497
3 500 498 499
3 499 140 500
3 498 139 499
3 500 138 498
3 502 501 499
3 499 139 502
3 501 140 499
3 502 33 501
3 504 503 498
3 498 138 504
3 503 139 498
3 504 13 503
3 506 505 500
3 500 140 506
3 505 138 500
3 506 23 505
3 509 507 508
3 508 47 509
3 507 139 508
3 509 110 507
3 503 182 508
3 508 139 503
3 182 47 508
3 503 13 182
3 398 502 507
3 507 110 398
3 502 139 507
3 398 33 502
3 183 401 509
3 509 47 183
3 401 110 509
3 183 8 401
3 512 510 511
3 511 79 512
3 510 138 511
3 512 46 510
3 505 294 511
3 511 138 505
3 294 79 511
3 505 23 294
3 174 504 510
3 510 46 174
3 504 138 510
3 174 13 504
3 295 177 512
3 512 79 295
3 177 46 512
3 295 4 177
3 515 513 514
3 514 111 515
3 513 140 514
3 515 78 513
3 501 406 514
3 514 140 501
3 406 111 514
3 501 33 406
3 286 506 513
3 513 78 286
3 506 140 513
3 286 23 506
3 407 289 515
3 515 111 407
3 289 78 515
3 407 0 289
3 518 516 517
3 517 143 518
3 516 142 517
3 518 141 516
3 520 519 517
3 517 142 520
3 519 143 517
3 520 19 519
3 522 521 516
3 516 141 522
3 521 142 516
3 522 32 521
3 524 523 518
3 518 143 524
3 523 141 518
3 524 26 523
3 527 525 526
3 526 113 527
3 525 142 526
3 527 66 525
3 521 413 526
3 526 142 521
3 413 113 526
3 521 32 413
3 244 520 525
3 525 66 244
3 520 142 525
3 244 19 520
3 414 247 527
3 527 113 414
3 247 66 527
3 414 11 247
3 530 528 529
3 529 86 530
3 528 141 529
3 530 112 528
3 523 316 529
3 529 141 523
3 316 86 529
3 523 26 316
3 405 522 528
3 528 112 405
3 522 141 528
3 405 32 522
3 317 408 530
3 530 86 317
3 408 112 530
3 317 0 408
3 533 531 532
3 532 61 533
3 531 143 532
3 533 89 531
3 519 231 532
3 532 143 519
3 231 61 532
3 519 19 231
3 326 524 531
3 531 89 326
3 524 143 531
3 326 26 524
3 232 329 533
3 533 61 232
3 329 89 533
3 232 5 329
3 536 534 535
3 535 146 536
3 534 145 535
3 536 144 534
3 538 537 535
3 535 145 538
3 537 146 535
3 538 22 537
3 540 539 534
3 534 144 540
3 539 145 534
3 540 16 539
3 542 541 536
3 536 146 542
3 541 144 536
3 542 39 541
3 545 543 544
3 544 54 545
3 543 145 544
3 545 80 543
3 539 204 544
3 544 145 539
3 204 54 544
3 539 16 204
3 293 538 543
3 543 80 293
3 538 145 543
3 293 22 538
3 205 296 545
3 545 54 205
3 296 80 545
3 205 4 296
3 548 546 547
3 547 125 548
3 546 144 547
3 548 57 546
3 541 455 547
3 547 144 541
3 455 125 547
3 541 39 455
3 214 540 546
3 546 57 214
3 540 144 546
3 214 16 540
3 456 217 548
3 548 125 456
3 217 57 548
3 456 9 217
3 551 549 550
3 550 81 551
3 549 146 550
3 551 130 549
3 537 301 550
3 550 146 537
3 301 81 550
3 537 22 301
3 468 542 549
3 549 130 468
3 542 146 549
3 468 39 542
3 302 471 551
3 551 81 302
3 471 130 551
3 302 3 471
3 554 552 553
3 553 149 554
3 552 148 553
3 554 147 552
3 556 555 553
3 553 148 556
3 555 149 553
3 556 21 555
3 558 557 552
3 552 147 558
3 557 148 552
3 558 25 557
3 560 559 554
3 554 149 560
3 559 147 554
3 560 37 559
3 563 561 562
3 562 88 563
3 561 148 562
3 563 70 561
3 557 327 562
3 562 148 557
3 327 88 562
3 557 25 327
3 260 556 561
3 561 70 260
3 556 148 561
3 260 21 556
3 328 261 563
3 563 88 328
3 261 70 563
3 328 5 261
3 566 564 565
3 565 129 566
3 564 147 565
3 566 87 564
3 559 469 565
3 565 147 559
3 469 129 565
3 559 37 469
3 321 558 564
3 564 87 321
3 558 147 564
3 321 25 558
3 470 322 566
3 566 129 470
3 322 87 566
3 470 3 322
3 569 567 568
3 568 71 569
3 567 149 568
3 569 128 567
3 555 266 568
3 568 149 555
3 266 71 568
3 555 21 266
3 461 560 567
3 567 128 461
3 560 149 567
3 461 37 560
3 267 464 569
3 569 71 267
3 464 128 569
3 267 10 464
3 572 570 571
3 571 152 572
3 570 151 571
3 572 150 570
3 574 573 571
3 571 151 574
3 573 152 571
3 574 27 573
3 576 575 570
3 570 150 576
3 575 151 570
3 576 12 575
3 578 577 572
3 572 152 578
3 577 150 572
3 578 36 577
3 581 579 580
3 580 49 581
3 579 151 580
3 581 96 579
3 575 189 580
3 580 151 575
3 189 49 580
3 575 12 189
3 349 574 579
3 579 96 349
3 574 151 579
3 349 27 574
3 190 352 581
3 581 49 190
3 352 96 581
3 190 7 352
3 584 582 583
3 583 118 584
3 582 150 583
3 584 48 582
3 577 428 583
3 583 150 577
3 428 118 583
3 577 36 428
3 181 576 582
3 582 48 181
3 576 150 582
3 181 12 576
3 429 184 584
3 584 118 429
3 184 48 584
3 429 8 184
3 587 585 586
3 586 97 587
3 585 152 586
3 587 121 585
3 573 357 586
3 586 152 573
3 357 97 586
3 573 27 357
3 438 578 585
3 585 121 438
3 578 152 585
3 438 36 578
3 358 441 587
3 587 97 358
3 441 121 587
3 358 1 441
3 590 588 589
3 589 155 590
3 588 154 589
3 590 153 588
3 592 591 589
3 589 154 592
3 591 155 589
3 592 17 591
3 594 593 588
3 588 153 594
3 593 154 588
3 594 30 593
3 596 595 590
3 590 155 596
3 595 153 590
3 596 35 595
3 599 597 598
3 598 104 599
3 597 154 598
3 599 64 597
3 593 383 598
3 598 154 593
3 383 104 598
3 593 30 383
3 237 592 597
3 597 64 237
3 592 154 597
3 237 17 592
3 384 240 599
3 599 104 384
3 240 64 599
3 384 6 240
3 602 600 601
3 601 120 602
3 600 153 601
3 602 103 600
3 595 439 601
3 601 153 595
3 439 120 601
3 595 35 439
3 377 594 600
3 600 103 377
3 594 153 600
3 377 30 594
3 440 378 602
3 602 120 440
3 378 103 602
3 440 1 378
3 605 603 604
3 604 65 605
3 603 155 604
3 605 119 603
3 591 245 604
3 604 155 591
3 245 65 604
3 591 17 245
3 433 596 603
3 603 119 433
3 596 155 603
3 433 35 596
3 246 434 605
3 605 65 246
3 434 119 605
3 246 11 434
3 608 606 607
3 607 158 608
3 606 157 607
3 608 156 606
3 610 609 607
3 607 157 610
3 609 158 607
3 610 15 609
3 612 611 606
3 606 156 612
3 611 157 606
3 612 28 611
3 614 613 608
3 608 158 614
3 613 156 608
3 614 41 613
3 617 615 616
3 616 95 617
3 615 157 616
3 617 55 615
3 611 350 616
3 616 157 611
3 350 95 616
3 611 28 350
3 209 610 615
3 615 55 209
3 610 157 615
3 209 15 610
3 351 210 617
3 617 95 351
3 210 55 617
3 351 7 210
3 620 618 619
3 619 135 620
3 618 156 619
3 620 94 618
3 613 490 619
3 619 156 613
3 490 135 619
3 613 41 490
3 342 612 618
3 618 94 342
3 612 156 618
3 342 28 612
3 491 345 620
3 620 135 491
3 345 94 620
3 491 2 345
3 623 621 622
3 622 56 623
3 621 158 622
3 623 134 621
3 609 215 622
3 622 158 609
3 215 56 622
3 609 15 215
3 484 614 621
3 621 134 484
3 614 158 621
3 484 41 614
3 216 485 623
3 623 56 216
3 485 134 623
3 216 9 485
3 626 624 625
3 625 161 626
3 624 160 625
3 626 159 624
3 628 627 625
3 625 160 628
3 627 161 625
3 628 31 627
3 630 629 624
3 624 159 630
3 629 160 624
3 630 20 629
3 632 631 626
3 626 161 632
3 631 159 626
3 632 40 631
3 635 633 634
3 634 73 635
3 633 160 634
3 635 105 633
3 629 272 634
3 634 160 629
3 272 73 634
3 629 20 272
3 382 628 633
3 633 105 382
3 628 160 633
3 382 31 628
3 273 385 635
3 635 73 273
3 385 105 635
3 273 6 385
3 638 636 637
3 637 137 638
3 636 159 637
3 638 72 636
3 631 496 637
3 637 159 631
3 496 137 637
3 631 40 496
3 265 630 636
3 636 72 265
3 630 159 636
3 265 20 630
3 497 268 638
3 638 137 497
3 268 72 638
3 497 10 268
3 641 639 640
3 640 102 641
3 639 161 640
3 641 136 639
3 627 372 640
3 640 161 627
3 372 102 640
3 627 31 372
3 489 632 639
3 639 136 489
3 632 161 639
3 489 40 632
3 373 492 641
3 641 102 373
3 492 136 641
3 373 2 492
