# vtk DataFile Version 3.0
this file was written using fslvtkio
ASCII
DATASET POLYDATA
POINTS 642 float
105.049 139.175 102.033
98.6292 139.044 100.842
101.014 134.99 100.25
106.609 134.659 100.579
104.687 137.366 103.946
104.751 136.767 98.7514
101.524 136.649 98.2661
101.204 137.337 103.111
102.676 141.84 104.71
103.774 133.825 101.545
103.297 131.873 97.0532
102.452 141.057 100.199
101.555 139.392 103.651
104.005 139.519 104.71
102.739 137.611 103.86
102.532 136.068 102.207
104.236 135.44 102.575
101.59 138.864 99.1394
103.173 136.637 98.0848
103.328 138.473 99.8154
102.04 134.307 96.2651
104.588 134.635 97.273
106.105 135.813 102.325
105.948 138.732 103.466
106.06 137.097 101.256
106.082 135.629 99.2052
104.825 137.885 100.463
99.638 138.044 102.422
100.648 136.487 101.983
99.6669 136.946 100.691
99.8258 138.171 99.1364
101.109 135.528 98.8241
104.08 140.683 101.374
104.819 141.28 103.625
102.664 143.348 102.231
100.165 141.151 100.081
100.08 141.396 102.555
106.008 132.551 98.8043
103.745 131.896 99.9837
105.705 132.939 101.946
101.406 132.677 98.5654
102.186 133.97 100.881
102.729 139.591 104.317
103.206 138.54 104.227
102.196 138.483 103.856
103.667 137.483 104.095
104.371 138.424 104.319
103.389 140.71 104.962
102.044 140.639 104.072
101.261 138.16 103.383
101.927 137.553 103.428
102.636 136.894 103.026
103.462 136.707 103.258
103.447 135.805 102.336
104.513 136.603 103.104
101.749 136.937 102.812
102.965 134.777 102.024
103.967 134.522 102.011
102.383 137.552 98.8559
103.135 137.446 99.1438
102.534 138.739 99.413
104.032 137.489 99.3635
104.096 136.794 98.3768
102.199 136.563 98.0754
101.463 137.644 98.7047
101.978 140.017 99.7211
102.888 139.778 100.146
103.458 134.409 96.1345
103.988 135.828 97.294
102.818 135.694 96.9423
104.714 135.937 98.1245
104.184 132.89 96.5275
102.419 132.409 95.7736
101.823 135.665 97.4351
105.724 137.393 102.754
105.706 137.814 102.28
106.124 136.5 101.818
105.583 138.254 101.684
105.592 139.099 102.661
105.574 138.058 103.967
105.325 136.877 102.803
106.487 135.161 101.435
106.504 135.882 100.834
106.178 136.42 100.223
105.704 137.597 100.714
105.792 136.987 99.731
105.195 138.753 101.22
106.473 135.047 99.8814
105.555 136.358 98.8411
104.887 137.381 99.4947
99.9769 137.183 102.301
99.8223 136.6 101.558
99.3661 137.496 101.611
100.471 136.245 100.591
100.728 135.737 101.199
100.792 136.96 102.743
100.442 137.544 102.938
98.9469 138.595 101.708
98.9804 137.911 100.684
99.5622 137.509 99.8499
100.411 136.524 99.8117
100.381 136.964 99.1628
101.066 135.085 99.5586
99.0418 138.723 99.885
100.772 137.407 98.8471
101.197 136.156 98.2712
104.549 141.46 102.443
104.086 142.681 103.307
103.743 142.354 101.705
102.583 142.995 104.007
104.015 141.897 104.62
105.164 140.38 102.673
104.705 139.993 101.798
103.356 141.195 100.699
102.502 142.176 100.846
101.102 142.828 100.89
100.888 142.986 102.721
99.3088 142.261 101.228
101.305 141.945 103.79
101.503 141.49 99.9555
98.867 140.344 100.251
99.1602 140.413 101.502
105.082 131.463 99.34
104.934 131.98 100.965
106.322 132.187 100.417
104.58 133.221 101.612
104.001 132.876 100.877
103.394 131.546 98.4348
104.797 131.988 97.799
106.405 133.646 99.8964
106.461 133.733 101.146
102.108 133.299 99.8269
103.21 132.949 100.175
102.535 132.318 99.2385
102.954 133.728 101.262
101.334 134.341 100.586
101.184 133.859 99.5212
101.981 132.031 97.5538
105.064 139.181 104.176
104.837 140.663 104.826
105.325 139.934 103.601
104.165 138.945 101.007
103.6 139.497 100.586
104.116 138.297 100.166
105.045 134.256 102.056
105.265 135.522 102.426
105.989 134.428 101.942
106.185 134.136 98.7481
105.603 135.047 98.1785
105.507 133.395 97.5728
100.84 140.35 103.255
100.421 138.835 103.162
99.7024 139.657 102.474
99.618 139.652 99.3528
100.621 138.726 99.1403
100.88 140.115 99.4867
101.427 135.27 101.502
101.629 136.326 102.062
102.217 134.972 101.658
101.265 132.899 96.9219
101.582 134.571 97.6379
101.174 133.838 98.4254
102.971 139.057 104.313
102.76 138.537 103.991
102.373 138.979 104.133
102.518 138.065 103.799
103.017 138.06 103.936
103.561 139.058 104.493
103.295 139.612 104.644
102.098 139.458 104.028
101.836 138.941 103.83
103.474 137.97 104.117
103.805 138.532 104.313
103.92 137.887 104.292
104.205 139.026 104.417
103.238 137.561 103.956
104.169 137.393 104.107
104.517 137.925 104.297
103.013 140.072 104.663
102.321 139.973 104.326
102.724 140.68 104.543
101.742 139.917 103.857
103.721 140.004 104.97
103.025 141.348 104.787
102.446 141.36 104.312
101.693 138.354 103.632
102.09 137.971 103.6
101.608 137.848 103.433
102.342 137.655 103.634
101.372 138.788 103.532
101.176 137.646 103.283
101.563 137.427 103.235
103.071 136.856 103.145
103.513 136.261 102.685
103.203 136.488 102.498
103.768 135.571 102.546
103.839 136.079 102.855
102.982 137.074 103.749
102.599 137.174 103.536
102.688 136.575 102.458
103.028 135.966 102.267
103.993 136.632 103.17
103.46 136.981 103.796
104.023 136.945 103.731
104.39 136.055 102.775
104.627 136.949 103.474
102.187 137.165 103.34
102.147 136.898 102.949
101.752 137.117 103.221
102.191 136.647 102.426
101.475 137.085 103.005
103.218 135.259 102.17
103.691 135.105 102.19
103.389 134.644 102.072
104.113 134.921 102.301
102.766 135.412 102.124
103.345 134.202 101.802
103.808 134.129 101.774
102.725 137.441 98.9927
102.816 137.983 99.2693
102.435 138.121 99.103
102.954 138.644 99.5745
103.207 137.899 99.4884
103.109 136.94 98.6877
102.708 136.908 98.6218
102.008 138.215 99.0121
102.095 138.835 99.2449
103.591 137.483 99.2515
103.593 137.055 98.7108
104.039 137.168 98.8365
103.623 136.702 98.2449
103.549 137.834 99.7346
104.402 137.148 98.9781
104.413 136.729 98.5994
102.256 136.909 98.6059
101.94 137.607 98.7955
101.904 136.994 98.5306
101.508 138.26 98.8876
102.656 136.589 98.1035
101.811 136.561 98.1756
101.471 137.127 98.4563
102.266 139.351 99.625
102.676 139.23 99.7896
102.412 139.883 99.9359
103.099 139.09 99.9894
101.821 139.452 99.4372
102.184 140.559 99.9808
102.631 140.386 100.233
103.78 135.197 96.5945
103.447 135.734 96.9443
103.119 135.129 96.3502
103.049 136.228 97.524
103.592 136.268 97.6433
104.291 135.281 97.1566
103.974 134.497 96.7604
102.644 134.293 96.0569
102.399 135.049 96.4597
103.99 136.355 97.9401
104.404 135.893 97.676
104.421 136.389 98.1598
104.696 135.371 97.6536
104.802 136.424 98.4507
103.812 133.561 96.1623
103.002 133.386 95.7173
103.361 132.538 95.9921
102.083 133.274 95.8403
104.444 133.719 96.7959
103.762 132.222 96.6091
102.841 132.025 96.3477
102.267 135.653 96.9643
102.504 136.252 97.4987
101.996 136.27 97.576
101.95 135.007 96.7977
101.682 136.278 97.8334
105.669 137.649 102.553
105.92 137.193 102.019
105.919 136.968 102.31
106.11 136.793 101.529
105.879 137.427 101.717
105.929 138.395 102.845
105.828 138.125 103.162
105.854 136.655 102.489
106.207 136.213 102.083
105.609 137.996 101.992
105.839 138.597 102.463
105.587 138.715 102.149
105.875 138.963 102.998
105.737 137.627 101.5
105.415 138.85 101.846
105.298 139.169 102.31
105.628 137.748 103.327
105.505 137.098 102.786
105.374 137.425 103.373
105.657 136.396 102.581
105.879 138.421 103.854
105.115 137.68 104.035
105.061 137.067 103.352
106.366 135.809 101.598
106.339 136.137 101.329
106.524 135.568 101.161
106.194 136.407 101.007
106.278 135.427 101.857
106.587 134.843 100.966
106.585 135.195 100.667
106.072 137.046 100.448
105.82 137.314 100.22
106.074 136.765 99.9508
105.448 137.553 100.034
105.312 137.759 100.572
105.95 137.316 100.971
106.124 136.75 100.712
106.163 136.035 99.7312
106.052 136.408 99.4394
105.356 138.117 100.984
105.587 137.899 101.214
105.484 138.533 101.402
105.052 138.347 100.833
105.112 138.989 101.617
106.376 136.138 100.501
106.375 135.788 100.02
106.518 135.485 100.353
106.211 135.312 99.538
106.633 134.813 100.221
105.773 136.683 99.2447
105.399 137.217 99.5892
105.323 136.883 99.1387
104.832 137.588 100.017
105.858 136.032 98.9667
105.081 136.558 98.7799
104.784 137.035 99.1108
99.8068 136.852 101.974
99.6546 137.043 101.635
99.6968 137.349 102.004
99.4517 137.19 101.185
99.6715 136.756 101.181
100.223 136.516 101.817
100.167 136.794 102.252
99.846 137.555 102.34
99.4341 137.776 102.015
100.161 136.477 101.019
100.332 136.244 101.354
100.512 135.994 100.868
100.7 136.114 101.585
100.074 136.642 100.652
100.771 135.619 100.398
100.818 135.356 100.692
100.336 137.04 102.566
100.176 137.289 102.611
100.561 137.184 102.852
100.115 137.814 102.666
100.712 136.823 102.379
101.006 137.106 102.967
100.824 137.377 103.104
99.1568 138.001 101.628
99.1122 137.646 101.17
98.8712 138.197 101.258
99.277 137.402 100.7
99.2467 138.299 102.085
98.7213 138.807 101.269
98.7408 138.435 100.793
100.01 137.038 99.8402
100.426 136.78 99.4963
99.9402 137.272 99.4863
100.759 136.301 99.0022
100.728 136.078 99.3331
100.136 136.829 100.206
99.6494 137.206 100.243
99.6772 137.851 99.4561
100.065 137.585 99.174
100.772 135.924 99.6965
100.502 136.379 100.163
100.82 135.787 100.067
101.07 135.231 99.1623
101.052 135.029 99.9263
99.19 137.698 100.231
99.1788 138.07 99.7906
98.9343 138.3 100.288
99.3204 138.492 99.3903
98.7528 138.918 100.362
100.54 137.256 98.928
100.768 136.535 98.73
100.959 136.84 98.5389
101.121 135.833 98.5387
100.286 137.892 98.9733
101.138 137.05 98.4754
101.372 136.431 98.2056
104.418 141.977 102.839
103.946 142.657 102.454
104.229 141.925 102.121
103.358 143.056 101.935
103.383 143.132 102.789
104.511 141.897 103.594
104.658 141.451 103.064
104.461 141.187 101.84
103.931 141.485 101.578
103.486 143.056 103.768
104.096 142.406 104.195
103.451 142.704 104.553
104.436 141.554 104.181
102.584 143.175 103.134
102.583 142.579 104.604
103.303 142.024 104.845
104.911 140.969 102.569
104.632 140.731 102.111
104.816 140.182 102.277
104.408 140.351 101.627
105.203 141.03 103.105
105.028 139.654 102.33
104.897 139.562 101.911
103.49 141.688 101.191
103.222 142.472 101.22
103.044 141.743 100.75
102.619 142.997 101.395
103.712 140.903 101.059
102.932 141.199 100.427
102.481 141.628 100.398
100.864 143.25 101.722
99.8848 142.915 102.009
100.184 142.737 100.973
99.5933 141.881 101.99
100.134 142.335 102.783
101.764 143.227 102.457
101.812 143.264 101.576
100.586 142.045 100.376
99.7622 141.882 100.408
101.02 142.55 103.356
101.762 142.907 103.343
101.759 142.662 104.02
100.599 141.744 103.263
101.965 141.978 104.361
101.829 142.563 100.9
101.28 142.036 100.378
101.953 141.912 100.368
100.862 141.443 99.9549
102.015 141.277 100.085
99.1339 141.268 100.689
99.2713 141.286 101.407
98.9753 140.586 100.912
99.6771 141.002 101.914
99.4221 140.896 100.024
98.6796 139.625 100.557
98.8062 139.675 101.152
105.029 131.568 100.229
105.618 131.801 100.82
105.75 131.77 99.9063
106.1 132.384 101.326
105.273 132.314 101.488
104.343 131.823 100.446
104.338 131.437 99.7008
105.678 131.838 99.0095
106.214 132.296 99.528
104.734 132.582 101.428
104.352 132.405 100.927
104.293 132.953 101.274
103.976 132.443 100.445
105.014 132.92 101.803
104.135 133.552 101.551
103.869 133.385 101.251
104.252 131.43 98.8796
104.974 131.656 98.4907
104.101 131.645 98.0896
105.487 132.206 98.2689
103.544 131.53 99.2471
103.295 131.633 97.6597
103.979 131.945 97.397
106.462 132.995 100.094
106.519 133.072 100.865
106.4 133.62 100.51
106.289 133.264 101.583
106.286 133.046 99.3792
106.642 134.148 100.251
106.609 134.161 100.791
102.735 133.13 99.9916
102.975 132.561 99.7433
102.41 132.749 99.5002
103.096 132.038 99.5831
103.479 132.436 100.024
102.683 133.411 100.5
102.258 133.709 100.342
101.755 132.929 99.2807
102.05 132.412 98.8707
103.649 132.87 100.446
103.134 133.236 100.756
103.537 133.26 100.996
102.551 133.817 101.095
103.389 133.751 101.444
101.8 133.913 100.175
101.485 133.531 99.6988
101.28 134.082 100.072
101.292 133.291 99.0993
101.725 134.147 100.769
101.118 134.677 100.408
101.066 134.419 99.9352
102.153 132.105 98.4912
102.729 131.75 98.8649
102.518 131.646 97.9905
101.687 132.301 98.0081
102.501 131.701 97.1185
105.093 139.919 104.565
105.372 140.489 104.245
105.227 139.5 103.934
105.372 140.835 103.662
104.901 141 104.227
104.439 140.015 104.891
104.622 139.416 104.472
105.633 138.887 103.924
105.68 139.23 103.489
104.417 141.219 104.684
104.106 140.694 105.189
103.688 141.4 104.93
104.835 138.892 104.118
105.419 138.598 104.261
104.967 138.244 104.329
105.458 139.455 103.11
105.354 140.306 103.14
105.213 139.596 102.726
103.841 139.223 100.829
103.709 138.763 100.519
104.079 138.606 100.667
103.748 138.434 100.03
103.422 138.926 100.274
103.813 140.132 100.953
104.103 139.813 101.182
104.521 138.467 100.786
104.404 138.064 100.349
103.292 139.693 100.372
103.511 140.427 100.67
103.093 140.446 100.461
104.477 139.503 101.344
104.727 138.87 101.097
104.792 139.257 101.505
104.361 137.698 99.9569
103.919 137.785 99.8779
104.423 137.419 99.4591
105.144 134.879 102.343
105.627 135.002 102.323
105.514 134.242 102.113
106.033 135.171 102.107
105.685 135.612 102.386
104.703 135.413 102.484
104.592 134.849 102.413
105.404 133.555 101.978
105.93 133.75 101.865
105.288 136.157 102.686
104.923 136.013 102.712
105.029 136.67 102.98
104.517 134.344 102.028
104.824 133.621 101.906
104.293 133.912 101.82
106.246 134.064 101.614
106.294 134.819 101.673
106.503 134.49 101.307
105.942 134.592 98.3666
105.6 134.248 97.803
105.823 133.733 98.1954
105.02 133.978 97.3336
105.046 134.786 97.7557
105.84 135.382 98.7037
106.112 134.911 98.9546
106.172 133.308 98.7062
105.808 132.901 98.1101
105.18 135.568 98.0725
105.593 135.8 98.5125
105.206 136.113 98.4505
106.437 134.56 99.2957
106.33 133.781 99.2671
106.544 134.295 99.8043
105.301 132.587 97.5564
104.884 133.125 97.0864
104.527 132.455 97.1432
100.616 139.591 103.175
100.021 139.24 102.863
100.193 139.975 102.924
99.5865 138.791 102.501
100.041 138.48 102.772
100.957 139.171 103.43
101.184 139.849 103.447
100.479 140.833 102.989
99.9846 140.533 102.456
100.424 138.113 103.002
100.862 138.491 103.272
100.828 137.86 103.158
101.353 140.493 103.704
101.026 141.198 103.476
101.647 141.303 103.941
99.4123 140.076 102.054
99.2326 139.101 102.114
98.9345 139.386 101.674
100.046 139.341 99.0992
100.712 139.479 99.2224
100.284 139.948 99.3889
101.274 139.481 99.3308
101.07 138.82 99.1237
100.146 138.535 99.086
99.5341 138.93 99.1302
99.9255 140.342 99.7676
100.547 140.576 99.792
101.032 138.235 98.8536
100.602 138.1 98.8793
101.068 137.568 98.6872
99.1867 139.209 99.5612
99.2554 139.986 99.7548
98.8351 139.494 99.9593
101.185 140.717 99.7468
101.45 140.061 99.5811
101.742 140.686 99.7943
101.51 135.83 101.785
101.955 135.729 101.823
101.748 135.044 101.619
102.337 135.54 101.99
102.167 136.276 102.082
101.137 136.389 102.058
101.177 136.031 101.659
101.646 134.495 101.311
102.06 134.34 101.393
101.748 136.744 102.37
101.219 136.78 102.399
101.303 136.894 102.721
101.066 135.485 101.398
101.318 134.787 101.106
101.03 135.065 100.959
102.47 134.303 101.53
102.572 134.903 101.846
102.939 134.266 101.697
101.476 133.773 97.2033
101.311 134.132 97.999
101.183 133.383 97.7178
101.27 134.691 98.6134
101.386 134.99 98.2888
101.727 134.348 96.954
101.611 133.398 96.3858
101.232 132.662 97.7251
101.193 133.214 98.4146
101.52 135.404 98.0253
101.735 135.138 97.4585
101.543 135.876 97.7864
101.617 132.61 96.1958
101.529 132.341 97.1194
102.059 132.041 96.5685
101.187 133.809 98.9637
101.185 134.475 99.0168
101.089 134.394 99.4667
POLYGONS 1280  5120
3 164 162 163
3 163 44 164
3 162 43 163
3 164 42 162
3 166 165 163
3 163 43 166
3 165 44 163
3 166 14 165
3 168 167 162
3 162 42 168
3 167 43 162
3 168 13 167
3 170 169 164
3 164 44 170
3 169 42 164
3 170 12 169
3 173 171 172
3 172 46 173
3 171 43 172
3 173 45 171
3 167 174 172
3 172 43 167
3 174 46 172
3 167 13 174
3 175 166 171
3 171 45 175
3 166 43 171
3 175 14 166
3 177 176 173
3 173 46 177
3 176 45 173
3 177 4 176
3 180 178 179
3 179 48 180
3 178 42 179
3 180 47 178
3 169 181 179
3 179 42 169
3 181 48 179
3 169 12 181
3 182 168 178
3 178 47 182
3 168 42 178
3 182 13 168
3 184 183 180
3 180 48 184
3 183 47 180
3 184 8 183
3 187 185 186
3 186 50 187
3 185 44 186
3 187 49 185
3 165 188 186
3 186 44 165
3 188 50 186
3 165 14 188
3 189 170 185
3 185 49 189
3 170 44 185
3 189 12 170
3 191 190 187
3 187 50 191
3 190 49 187
3 191 7 190
3 194 192 193
3 193 53 194
3 192 52 193
3 194 51 192
3 196 195 193
3 193 52 196
3 195 53 193
3 196 16 195
3 198 197 192
3 192 51 198
3 197 52 192
3 198 14 197
3 200 199 194
3 194 53 200
3 199 51 194
3 200 15 199
3 203 201 202
3 202 45 203
3 201 52 202
3 203 54 201
3 197 175 202
3 202 52 197
3 175 45 202
3 197 14 175
3 204 196 201
3 201 54 204
3 196 52 201
3 204 16 196
3 176 205 203
3 203 45 176
3 205 54 203
3 176 4 205
3 208 206 207
3 207 55 208
3 206 51 207
3 208 50 206
3 199 209 207
3 207 51 199
3 209 55 207
3 199 15 209
3 188 198 206
3 206 50 188
3 198 51 206
3 188 14 198
3 210 191 208
3 208 55 210
3 191 50 208
3 210 7 191
3 213 211 212
3 212 57 213
3 211 53 212
3 213 56 211
3 195 214 212
3 212 53 195
3 214 57 212
3 195 16 214
3 215 200 211
3 211 56 215
3 200 53 211
3 215 15 200
3 217 216 213
3 213 57 217
3 216 56 213
3 217 9 216
3 220 218 219
3 219 60 220
3 218 59 219
3 220 58 218
3 222 221 219
3 219 59 222
3 221 60 219
3 222 19 221
3 224 223 218
3 218 58 224
3 223 59 218
3 224 18 223
3 226 225 220
3 220 60 226
3 225 58 220
3 226 17 225
3 229 227 228
3 228 62 229
3 227 59 228
3 229 61 227
3 223 230 228
3 228 59 223
3 230 62 228
3 223 18 230
3 231 222 227
3 227 61 231
3 222 59 227
3 231 19 222
3 233 232 229
3 229 62 233
3 232 61 229
3 233 5 232
3 236 234 235
3 235 64 236
3 234 58 235
3 236 63 234
3 225 237 235
3 235 58 225
3 237 64 235
3 225 17 237
3 238 224 234
3 234 63 238
3 224 58 234
3 238 18 224
3 240 239 236
3 236 64 240
3 239 63 236
3 240 6 239
3 243 241 242
3 242 66 243
3 241 60 242
3 243 65 241
3 221 244 242
3 242 60 221
3 244 66 242
3 221 19 244
3 245 226 241
3 241 65 245
3 226 60 241
3 245 17 226
3 247 246 243
3 243 66 247
3 246 65 243
3 247 11 246
3 250 248 249
3 249 69 250
3 248 68 249
3 250 67 248
3 252 251 249
3 249 68 252
3 251 69 249
3 252 18 251
3 254 253 248
3 248 67 254
3 253 68 248
3 254 21 253
3 256 255 250
3 250 69 256
3 255 67 250
3 256 20 255
3 259 257 258
3 258 70 259
3 257 68 258
3 259 62 257
3 253 260 258
3 258 68 253
3 260 70 258
3 253 21 260
3 230 252 257
3 257 62 230
3 252 68 257
3 230 18 252
3 261 233 259
3 259 70 261
3 233 62 259
3 261 5 233
3 264 262 263
3 263 72 264
3 262 67 263
3 264 71 262
3 255 265 263
3 263 67 255
3 265 72 263
3 255 20 265
3 266 254 262
3 262 71 266
3 254 67 262
3 266 21 254
3 268 267 264
3 264 72 268
3 267 71 264
3 268 10 267
3 271 269 270
3 270 63 271
3 269 69 270
3 271 73 269
3 251 238 270
3 270 69 251
3 238 63 270
3 251 18 238
3 272 256 269
3 269 73 272
3 256 69 269
3 272 20 256
3 239 273 271
3 271 63 239
3 273 73 271
3 239 6 273
3 276 274 275
3 275 76 276
3 274 75 275
3 276 74 274
3 278 277 275
3 275 75 278
3 277 76 275
3 278 24 277
3 280 279 274
3 274 74 280
3 279 75 274
3 280 23 279
3 282 281 276
3 276 76 282
3 281 74 276
3 282 22 281
3 285 283 284
3 284 78 285
3 283 75 284
3 285 77 283
3 279 286 284
3 284 75 279
3 286 78 284
3 279 23 286
3 287 278 283
3 283 77 287
3 278 75 283
3 287 24 278
3 289 288 285
3 285 78 289
3 288 77 285
3 289 0 288
3 292 290 291
3 291 80 292
3 290 74 291
3 292 79 290
3 281 293 291
3 291 74 281
3 293 80 291
3 281 22 293
3 294 280 290
3 290 79 294
3 280 74 290
3 294 23 280
3 296 295 292
3 292 80 296
3 295 79 292
3 296 4 295
3 299 297 298
3 298 82 299
3 297 76 298
3 299 81 297
3 277 300 298
3 298 76 277
3 300 82 298
3 277 24 300
3 301 282 297
3 297 81 301
3 282 76 297
3 301 22 282
3 303 302 299
3 299 82 303
3 302 81 299
3 303 3 302
3 306 304 305
3 305 85 306
3 304 84 305
3 306 83 304
3 308 307 305
3 305 84 308
3 307 85 305
3 308 26 307
3 310 309 304
3 304 83 310
3 309 84 304
3 310 24 309
3 312 311 306
3 306 85 312
3 311 83 306
3 312 25 311
3 315 313 314
3 314 77 315
3 313 84 314
3 315 86 313
3 309 287 314
3 314 84 309
3 287 77 314
3 309 24 287
3 316 308 313
3 313 86 316
3 308 84 313
3 316 26 308
3 288 317 315
3 315 77 288
3 317 86 315
3 288 0 317
3 320 318 319
3 319 87 320
3 318 83 319
3 320 82 318
3 311 321 319
3 319 83 311
3 321 87 319
3 311 25 321
3 300 310 318
3 318 82 300
3 310 83 318
3 300 24 310
3 322 303 320
3 320 87 322
3 303 82 320
3 322 3 303
3 325 323 324
3 324 89 325
3 323 85 324
3 325 88 323
3 307 326 324
3 324 85 307
3 326 89 324
3 307 26 326
3 327 312 323
3 323 88 327
3 312 85 323
3 327 25 312
3 329 328 325
3 325 89 329
3 328 88 325
3 329 5 328
3 332 330 331
3 331 92 332
3 330 91 331
3 332 90 330
3 334 333 331
3 331 91 334
3 333 92 331
3 334 29 333
3 336 335 330
3 330 90 336
3 335 91 330
3 336 28 335
3 338 337 332
3 332 92 338
3 337 90 332
3 338 27 337
3 341 339 340
3 340 94 341
3 339 91 340
3 341 93 339
3 335 342 340
3 340 91 335
3 342 94 340
3 335 28 342
3 343 334 339
3 339 93 343
3 334 91 339
3 343 29 334
3 345 344 341
3 341 94 345
3 344 93 341
3 345 2 344
3 348 346 347
3 347 96 348
3 346 90 347
3 348 95 346
3 337 349 347
3 347 90 337
3 349 96 347
3 337 27 349
3 350 336 346
3 346 95 350
3 336 90 346
3 350 28 336
3 352 351 348
3 348 96 352
3 351 95 348
3 352 7 351
3 355 353 354
3 354 98 355
3 353 92 354
3 355 97 353
3 333 356 354
3 354 92 333
3 356 98 354
3 333 29 356
3 357 338 353
3 353 97 357
3 338 92 353
3 357 27 338
3 359 358 355
3 355 98 359
3 358 97 355
3 359 1 358
3 362 360 361
3 361 101 362
3 360 100 361
3 362 99 360
3 364 363 361
3 361 100 364
3 363 101 361
3 364 31 363
3 366 365 360
3 360 99 366
3 365 100 360
3 366 29 365
3 368 367 362
3 362 101 368
3 367 99 362
3 368 30 367
3 371 369 370
3 370 93 371
3 369 100 370
3 371 102 369
3 365 343 370
3 370 100 365
3 343 93 370
3 365 29 343
3 372 364 369
3 369 102 372
3 364 100 369
3 372 31 364
3 344 373 371
3 371 93 344
3 373 102 371
3 344 2 373
3 376 374 375
3 375 103 376
3 374 99 375
3 376 98 374
3 367 377 375
3 375 99 367
3 377 103 375
3 367 30 377
3 356 366 374
3 374 98 356
3 366 99 374
3 356 29 366
3 378 359 376
3 376 103 378
3 359 98 376
3 378 1 359
3 381 379 380
3 380 105 381
3 379 101 380
3 381 104 379
3 363 382 380
3 380 101 363
3 382 105 380
3 363 31 382
3 383 368 379
3 379 104 383
3 368 101 379
3 383 30 368
3 385 384 381
3 381 105 385
3 384 104 381
3 385 6 384
3 388 386 387
3 387 108 388
3 386 107 387
3 388 106 386
3 390 389 387
3 387 107 390
3 389 108 387
3 390 34 389
3 392 391 386
3 386 106 392
3 391 107 386
3 392 33 391
3 394 393 388
3 388 108 394
3 393 106 388
3 394 32 393
3 397 395 396
3 396 110 397
3 395 107 396
3 397 109 395
3 391 398 396
3 396 107 391
3 398 110 396
3 391 33 398
3 399 390 395
3 395 109 399
3 390 107 395
3 399 34 390
3 401 400 397
3 397 110 401
3 400 109 397
3 401 8 400
3 404 402 403
3 403 112 404
3 402 106 403
3 404 111 402
3 393 405 403
3 403 106 393
3 405 112 403
3 393 32 405
3 406 392 402
3 402 111 406
3 392 106 402
3 406 33 392
3 408 407 404
3 404 112 408
3 407 111 404
3 408 0 407
3 411 409 410
3 410 114 411
3 409 108 410
3 411 113 409
3 389 412 410
3 410 108 389
3 412 114 410
3 389 34 412
3 413 394 409
3 409 113 413
3 394 108 409
3 413 32 394
3 415 414 411
3 411 114 415
3 414 113 411
3 415 11 414
3 418 416 417
3 417 117 418
3 416 116 417
3 418 115 416
3 420 419 417
3 417 116 420
3 419 117 417
3 420 36 419
3 422 421 416
3 416 115 422
3 421 116 416
3 422 34 421
3 424 423 418
3 418 117 424
3 423 115 418
3 424 35 423
3 427 425 426
3 426 109 427
3 425 116 426
3 427 118 425
3 421 399 426
3 426 116 421
3 399 109 426
3 421 34 399
3 428 420 425
3 425 118 428
3 420 116 425
3 428 36 420
3 400 429 427
3 427 109 400
3 429 118 427
3 400 8 429
3 432 430 431
3 431 119 432
3 430 115 431
3 432 114 430
3 423 433 431
3 431 115 423
3 433 119 431
3 423 35 433
3 412 422 430
3 430 114 412
3 422 115 430
3 412 34 422
3 434 415 432
3 432 119 434
3 415 114 432
3 434 11 415
3 437 435 436
3 436 121 437
3 435 117 436
3 437 120 435
3 419 438 436
3 436 117 419
3 438 121 436
3 419 36 438
3 439 424 435
3 435 120 439
3 424 117 435
3 439 35 424
3 441 440 437
3 437 121 441
3 440 120 437
3 441 1 440
3 444 442 443
3 443 124 444
3 442 123 443
3 444 122 442
3 446 445 443
3 443 123 446
3 445 124 443
3 446 39 445
3 448 447 442
3 442 122 448
3 447 123 442
3 448 38 447
3 450 449 444
3 444 124 450
3 449 122 444
3 450 37 449
3 453 451 452
3 452 126 453
3 451 123 452
3 453 125 451
3 447 454 452
3 452 123 447
3 454 126 452
3 447 38 454
3 455 446 451
3 451 125 455
3 446 123 451
3 455 39 446
3 457 456 453
3 453 126 457
3 456 125 453
3 457 9 456
3 460 458 459
3 459 128 460
3 458 122 459
3 460 127 458
3 449 461 459
3 459 122 449
3 461 128 459
3 449 37 461
3 462 448 458
3 458 127 462
3 448 122 458
3 462 38 448
3 464 463 460
3 460 128 464
3 463 127 460
3 464 10 463
3 467 465 466
3 466 130 467
3 465 124 466
3 467 129 465
3 445 468 466
3 466 124 445
3 468 130 466
3 445 39 468
3 469 450 465
3 465 129 469
3 450 124 465
3 469 37 450
3 471 470 467
3 467 130 471
3 470 129 467
3 471 3 470
3 474 472 473
3 473 133 474
3 472 132 473
3 474 131 472
3 476 475 473
3 473 132 476
3 475 133 473
3 476 38 475
3 478 477 472
3 472 131 478
3 477 132 472
3 478 41 477
3 480 479 474
3 474 133 480
3 479 131 474
3 480 40 479
3 483 481 482
3 482 134 483
3 481 132 482
3 483 126 481
3 477 484 482
3 482 132 477
3 484 134 482
3 477 41 484
3 454 476 481
3 481 126 454
3 476 132 481
3 454 38 476
3 485 457 483
3 483 134 485
3 457 126 483
3 485 9 457
3 488 486 487
3 487 136 488
3 486 131 487
3 488 135 486
3 479 489 487
3 487 131 479
3 489 136 487
3 479 40 489
3 490 478 486
3 486 135 490
3 478 131 486
3 490 41 478
3 492 491 488
3 488 136 492
3 491 135 488
3 492 2 491
3 495 493 494
3 494 127 495
3 493 133 494
3 495 137 493
3 475 462 494
3 494 133 475
3 462 127 494
3 475 38 462
3 496 480 493
3 493 137 496
3 480 133 493
3 496 40 480
3 463 497 495
3 495 127 463
3 497 137 495
3 463 10 497
3 500 498 499
3 499 140 500
3 498 139 499
3 500 138 498
3 502 501 499
3 499 139 502
3 501 140 499
3 502 33 501
3 504 503 498
3 498 138 504
3 503 139 498
3 504 13 503
3 506 505 500
3 500 140 506
3 505 138 500
3 506 23 505
3 509 507 508
3 508 47 509
3 507 139 508
3 509 110 507
3 503 182 508
3 508 139 503
3 182 47 508
3 503 13 182
3 398 502 507
3 507 110 398
3 502 139 507
3 398 33 502
3 183 401 509
3 509 47 183
3 401 110 509
3 183 8 401
3 512 510 511
3 511 79 512
3 510 138 511
3 512 46 510
3 505 294 511
3 511 138 505
3 294 79 511
3 505 23 294
3 174 504 510
3 510 46 174
3 504 138 510
3 174 13 504
3 295 177 512
3 512 79 295
3 177 46 512
3 295 4 177
3 515 513 514
3 514 111 515
3 513 140 514
3 515 78 513
3 501 406 514
3 514 140 501
3 406 111 514
3 501 33 406
3 286 506 513
3 513 78 286
3 506 140 513
3 286 23 506
3 407 289 515
3 515 111 407
3 289 78 515
3 407 0 289
3 518 516 517
3 517 143 518
3 516 142 517
3 518 141 516
3 520 519 517
3 517 142 520
3 519 143 517
3 520 19 519
3 522 521 516
3 516 141 522
3 521 142 516
3 522 32 521
3 524 523 518
3 518 143 524
3 523 141 518
3 524 26 523
3 527 525 526
3 526 113 527
3 525 142 526
3 527 66 525
3 521 413 526
3 526 142 521
3 413 113 526
3 521 32 413
3 244 520 525
3 525 66 244
3 520 142 525
3 244 19 520
3 414 247 527
3 527 113 414
3 247 66 527
3 414 11 247
3 530 528 529
3 529 86 530
3 528 141 529
3 530 112 528
3 523 316 529
3 529 141 523
3 316 86 529
3 523 26 316
3 405 522 528
3 528 112 405
3 522 141 528
3 405 32 522
3 317 408 530
3 530 86 317
3 408 112 530
3 317 0 408
3 533 531 532
3 532 61 533
3 531 143 532
3 533 89 531
3 519 231 532
3 532 143 519
3 231 61 532
3 519 19 231
3 326 524 531
3 531 89 326
3 524 143 531
3 326 26 524
3 232 329 533
3 533 61 232
3 329 89 533
3 232 5 329
3 536 534 535
3 535 146 536
3 534 145 535
3 536 144 534
3 538 537 535
3 535 145 538
3 537 146 535
3 538 22 537
3 540 539 534
3 534 144 540
3 539 145 534
3 540 16 539
3 542 541 536
3 536 146 542
3 541 144 536
3 542 39 541
3 545 543 544
3 544 54 545
3 543 145 544
3 545 80 543
3 539 204 544
3 544 145 539
3 204 54 544
3 539 16 204
3 293 538 543
3 543 80 293
3 538 145 543
3 293 22 538
3 205 296 545
3 545 54 205
3 296 80 545
3 205 4 296
3 548 546 547
3 547 125 548
3 546 144 547
3 548 57 546
3 541 455 547
3 547 144 541
3 455 125 547
3 541 39 455
3 214 540 546
3 546 57 214
3 540 144 546
3 214 16 540
3 456 217 548
3 548 125 456
3 217 57 548
3 456 9 217
3 551 549 550
3 550 81 551
3 549 146 550
3 551 130 549
3 537 301 550
3 550 146 537
3 301 81 550
3 537 22 301
3 468 542 549
3 549 130 468
3 542 146 549
3 468 39 542
3 302 471 551
3 551 81 302
3 471 130 551
3 302 3 471
3 554 552 553
3 553 149 554
3 552 148 553
3 554 147 552
3 556 555 553
3 553 148 556
3 555 149 553
3 556 21 555
3 558 557 552
3 552 147 558
3 557 148 552
3 558 25 557
3 560 559 554
3 554 149 560
3 559 147 554
3 560 37 559
3 563 561 562
3 562 88 563
3 561 148 562
3 563 70 561
3 557 327 562
3 562 148 557
3 327 88 562
3 557 25 327
3 260 556 561
3 561 70 260
3 556 148 561
3 260 21 556
3 328 261 563
3 563 88 328
3 261 70 563
3 328 5 261
3 566 564 565
3 565 129 566
3 564 147 565
3 566 87 564
3 559 469 565
3 565 147 559
3 469 129 565
3 559 37 469
3 321 558 564
3 564 87 321
3 558 147 564
3 321 25 558
3 470 322 566
3 566 129 470
3 322 87 566
3 470 3 322
3 569 567 568
3 568 71 569
3 567 149 568
3 569 128 567
3 555 266 568
3 568 149 555
3 266 71 568
3 555 21 266
3 461 560 567
3 567 128 461
3 560 149 567
3 461 37 560
3 267 464 569
3 569 71 267
3 464 128 569
3 267 10 464
3 572 570 571
3 571 152 572
3 570 151 571
3 572 150 570
3 574 573 571
3 571 151 574
3 573 152 571
3 574 27 573
3 576 575 570
3 570 150 576
3 575 151 570
3 576 12 575
3 578 577 572
3 572 152 578
3 577 150 572
3 578 36 577
3 581 579 580
3 580 49 581
3 579 151 580
3 581 96 579
3 575 189 580
3 580 151 575
3 189 49 580
3 575 12 189
3 349 574 579
3 579 96 349
3 574 151 579
3 349 27 574
3 190 352 581
3 581 49 190
3 352 96 581
3 190 7 352
3 584 582 583
3 583 118 584
3 582 150 583
3 584 48 582
3 577 428 583
3 583 150 577
3 428 118 583
3 577 36 428
3 181 576 582
3 582 48 181
3 576 150 582
3 181 12 576
3 429 184 584
3 584 118 429
3 184 48 584
3 429 8 184
3 587 585 586
3 586 97 587
3 585 152 586
3 587 121 585
3 573 357 586
3 586 152 573
3 357 97 586
3 573 27 357
3 438 578 585
3 585 121 438
3 578 152 585
3 438 36 578
3 358 441 587
3 587 97 358
3 441 121 587
3 358 1 441
3 590 588 589
3 589 155 590
3 588 154 589
3 590 153 588
3 592 591 589
3 589 154 592
3 591 155 589
3 592 17 591
3 594 593 588
3 588 153 594
3 593 154 588
3 594 30 593
3 596 595 590
3 590 155 596
3 595 153 590
3 596 35 595
3 599 597 598
3 598 104 599
3 597 154 598
3 599 64 597
3 593 383 598
3 598 154 593
3 383 104 598
3 593 30 383
3 237 592 597
3 597 64 237
3 592 154 597
3 237 17 592
3 384 240 599
3 599 104 384
3 240 64 599
3 384 6 240
3 602 600 601
3 601 120 602
3 600 153 601
3 602 103 600
3 595 439 601
3 601 153 595
3 439 120 601
3 595 35 439
3 377 594 600
3 600 103 377
3 594 153 600
3 377 30 594
3 440 378 602
3 602 120 440
3 378 103 602
3 440 1 378
3 605 603 604
3 604 65 605
3 603 155 604
3 605 119 603
3 591 245 604
3 604 155 591
3 245 65 604
3 591 17 245
3 433 596 603
3 603 119 433
3 596 155 603
3 433 35 596
3 246 434 605
3 605 65 246
3 434 119 605
3 246 11 434
3 608 606 607
3 607 158 608
3 606 157 607
3 608 156 606
3 610 609 607
3 607 157 610
3 609 158 607
3 610 15 609
3 612 611 606
3 606 156 612
3 611 157 606
3 612 28 611
3 614 613 608
3 608 158 614
3 613 156 608
3 614 41 613
3 617 615 616
3 616 95 617
3 615 157 616
3 617 55 615
3 611 350 616
3 616 157 611
3 350 95 616
3 611 28 350
3 209 610 615
3 615 55 209
3 610 157 615
3 209 15 610
3 351 210 617
3 617 95 351
3 210 55 617
3 351 7 210
3 620 618 619
3 619 135 620
3 618 156 619
3 620 94 618
3 613 490 619
3 619 156 613
3 490 135 619
3 613 41 490
3 342 612 618
3 618 94 342
3 612 156 618
3 342 28 612
3 491 345 620
3 620 135 491
3 345 94 620
3 491 2 345
3 623 621 622
3 622 56 623
3 621 158 622
3 623 134 621
3 609 215 622
3 622 158 609
3 215 56 622
3 609 15 215
3 484 614 621
3 621 134 484
3 614 158 621
3 484 41 614
3 216 485 623
3 623 56 216
3 485 134 623
3 216 9 485
3 626 624 625
3 625 161 626
3 624 160 625
3 626 159 624
3 628 627 625
3 625 160 628
3 627 161 625
3 628 31 627
3 630 629 624
3 624 159 630
3 629 160 624
3 630 20 629
3 632 631 626
3 626 161 632
3 631 159 626
3 632 40 631
3 635 633 634
3 634 73 635
3 633 160 634
3 635 105 633
3 629 272 634
3 634 160 629
3 272 73 634
3 629 20 272
3 382 628 633
3 633 105 382
3 628 160 633
3 382 31 628
3 273 385 635
3 635 73 273
3 385 105 635
3 273 6 385
3 638 636 637
3 637 137 638
3 636 159 637
3 638 72 636
3 631 496 637
3 637 159 631
3 496 137 637
3 631 40 496
3 265 630 636
3 636 72 265
3 630 159 636
3 265 20 630
3 497 268 638
3 638 137 497
3 268 72 638
3 497 10 268
3 641 639 640
3 640 102 641
3 639 161 640
3 641 136 639
3 627 372 640
3 640 161 627
3 372 102 640
3 627 31 372
3 489 632 639
3 639 136 489
3 632 161 639
3 489 40 632
3 373 492 641
3 641 102 373
3 492 136 641
3 373 2 492
