# vtk DataFile Version 3.0
this file was written using fslvtkio
ASCII
DATASET POLYDATA
POINTS 1068 float
96.2284 142.835 102.675
95.3949 142.775 104.117
95.7945 141.752 103.687
96.6337 141.443 102.928
97.3355 142.924 101.991
97.7455 141.621 102.517
98.5885 143.003 101.898
98.9526 141.76 102.7
99.6847 143.026 102.292
100.143 142.037 103.103
95.8368 144.041 103.555
94.8543 143.562 104.951
96.7787 144.459 102.453
98.037 144.58 101.997
99.4362 144.451 102.175
100.572 143.677 102.809
95.2856 144.86 104.495
94.4776 144.682 105.676
96.2966 145.574 103.477
97.5081 145.954 102.919
98.8233 145.746 102.835
99.9929 145.036 103.208
95.5529 145.96 104.78
96.923 146.658 104.03
98.378 146.835 103.927
99.397 146.152 103.926
100.274 137.137 102.22
99.5246 136.182 103.031
100.213 135.411 101.959
101.255 135.776 101.425
101.424 137.131 102.413
102.307 136.24 102.041
99.1682 137.717 103.09
98.141 138.155 103.73
98.532 136.81 103.86
99.9445 138.535 103.285
100.87 138.281 103.431
102.112 137.514 103.291
98.2739 139.434 103.309
97.2587 138.959 103.995
99.2551 139.376 103.516
100.353 139.815 103.885
101.61 139.014 104.133
96.0414 140.609 103.975
95.1514 141.397 104.724
95.6463 140.309 105.323
96.2644 139.488 104.68
97.078 140.231 103.569
98.2195 140.808 103.341
99.3928 140.736 103.698
100.482 141.196 103.987
101.273 140.289 104.483
94.6001 142.152 105.502
101.177 142.671 103.638
94.0416 143.046 106.253
101.171 144.297 103.726
93.5654 143.947 106.954
100.256 145.463 104.385
94.7548 145.938 106
93.8914 145.209 107.095
95.8196 146.768 105.466
97.1955 147.067 105.16
98.3397 146.93 105.301
99.2131 146.393 105.35
94.8623 146.539 106.894
96.1578 146.929 106.568
97.2958 146.868 106.274
103.811 132.168 101.714
102.438 131.731 102.203
103.358 131.095 103.297
104.494 130.953 102.863
105.029 132.52 102.622
105.484 131.421 103.191
105.773 132.719 103.415
105.988 131.792 104.27
102.298 132.908 101.175
100.82 133.461 102.165
101.495 132.622 102.816
103.486 133.871 101.5
104.53 134.004 102.237
105.463 134.112 103.167
106.016 133.274 104.356
101.007 134.181 101.307
100.015 134.635 102.821
102.353 134.65 101.381
103.658 135.323 102.186
104.796 135.503 103.075
105.835 134.995 104.166
99.3757 135.662 104.141
103.118 136.501 102.823
104.108 136.799 103.724
105.355 136.453 104.361
97.617 137.493 104.73
98.5112 136.379 105.085
102.623 138.046 104.175
103.519 138.002 104.531
104.7 137.577 105.239
97.004 138.518 105.1
96.332 139.018 106.047
97.0591 137.984 106.173
102.365 139.854 104.845
103.488 139.463 105.163
104.395 138.702 105.442
94.9728 140.91 106.224
95.524 139.704 106.636
101.502 141.503 104.668
102.207 141.37 105.269
103.088 140.512 105.718
94.1523 141.581 106.908
101.794 143.118 104.54
102.116 142.691 105.565
102.7 141.755 106.064
93.622 142.436 107.715
101.298 144.698 104.929
101.895 143.943 105.69
93.3425 144.198 108.109
100.198 145.539 105.503
100.9 144.91 106.006
93.5559 145.495 108.632
98.939 145.924 106.906
98.1254 146.507 106.38
99.8501 145.523 106.569
94.3448 146.313 108.068
95.5944 146.725 108.063
96.7724 146.61 107.568
102.136 131.709 103.909
103.084 130.68 104.626
104.167 130.252 104.291
105.329 130.568 104.172
105.649 131.552 105.447
100.606 133.741 103.637
101.378 132.936 104.187
105.8 133.067 105.575
99.9483 134.635 104.344
106.058 134.315 105.482
106.139 135.65 105.355
105.873 134.835 106.787
99.3094 135.353 105.563
105.827 136.868 105.597
106.003 136.074 106.795
97.6783 136.932 106.036
98.2524 136.188 106.378
105.767 137.431 106.335
105.8 136.97 107.499
96.2076 138.432 107.286
96.8503 137.362 107.332
104.449 139.724 106.201
105.238 138.802 106.323
105.728 138.073 106.944
94.6306 140.174 107.484
95.4066 139.02 107.902
104.205 140.436 106.667
104.783 140.042 107.517
93.802 140.79 108.187
102.614 142.827 106.594
103.228 141.613 106.819
103.972 141.027 107.214
93.3861 142.665 108.779
101.852 143.917 106.722
102.588 142.959 107.637
93.1731 144.136 109.359
101.55 143.887 107.529
100.678 144.817 106.948
93.3165 145.188 109.921
97.8378 146.287 107.42
98.4679 145.63 107.752
99.4947 145.106 107.923
93.9986 146.225 109.664
95.1393 146.462 109.337
96.2846 146.246 108.917
97.2848 145.952 108.367
102.447 131.21 105.171
102.858 130.341 105.917
103.842 129.771 105.616
105.093 130.195 105.719
105.047 131.571 106.91
100.806 133.607 105.304
101.577 132.651 105.367
101.883 131.622 105.982
105.334 132.739 106.984
105.68 133.757 106.575
105.41 133.755 107.818
99.9684 134.294 105.676
100.186 133.772 106.768
105.557 134.837 108.223
98.8938 135.2 106.831
105.562 135.864 108.572
97.2552 136.437 107.698
98.1266 135.874 107.274
105.516 136.847 109.011
95.9722 137.636 108.531
96.6393 136.94 108.28
105.356 139.026 107.664
105.42 137.92 108.604
94.4594 139.274 108.819
95.2659 138.416 108.864
104.939 139.637 108.469
104.919 138.927 109.169
93.7751 140.371 109.179
93.4024 140.562 110.377
93.9267 139.543 109.866
103.337 141.866 107.83
104.086 140.815 108.371
104.423 140.094 109.279
93.4152 141.683 109.412
93.0912 141.615 110.808
102.873 142.56 108.468
103.31 141.91 108.944
93.1352 142.961 110.101
92.8795 142.64 111.364
100.602 144.412 107.875
101.658 143.464 108.436
102.206 142.924 109.252
92.9766 144.162 110.754
92.8032 143.834 111.924
99.2644 144.683 109.237
98.2361 145.23 108.665
100.172 144.224 108.683
93.3847 145.546 111.059
94.2841 146.005 111.176
95.1324 146.032 110.606
96.1057 145.863 110.096
97.1286 145.57 109.52
104.004 129.434 106.894
102.805 129.709 107.103
103.162 128.837 108.213
104.247 129.418 108.184
104.74 130.283 107.177
104.476 130.577 108.596
102.232 130.713 106.894
104.592 131.531 108.905
100.908 132.905 106.924
101.524 131.591 107.3
105.035 132.576 108.351
105.155 133.55 109.17
98.9844 134.387 107.37
99.4746 133.51 108.296
105.322 134.654 109.77
97.6653 135.702 108.182
97.5667 135.428 109.282
98.3135 134.884 108.369
105.236 135.838 110.144
96.4639 136.647 109.27
96 136.416 110.511
96.8532 135.735 110.237
105.191 137.156 110.19
95.3859 137.704 109.778
94.6824 137.743 111.046
95.3192 136.78 111.298
104.86 138.13 110.268
94.4026 138.562 110.044
93.6786 139.317 111.08
93.9887 138.258 111.61
104.468 139.208 110.423
93.122 140.201 111.717
103.774 140.142 110.552
103.557 140.988 109.585
92.7908 141.206 112.275
102.786 142.058 109.924
92.6535 142.299 112.73
101.674 142.749 110.333
101.102 143.537 109.352
92.7226 143.325 113.169
98.9789 144.252 110.303
98.0674 145.011 109.782
100.032 143.924 109.81
93.0706 144.815 112.343
93.9071 145.538 112.398
95.0715 145.676 112.012
95.9923 145.467 111.344
97.0289 145.192 110.769
102.255 129.481 108.311
101.358 130.202 109.293
101.937 128.768 109.346
103.165 128.213 109.307
104.075 129.397 109.493
103.993 130.243 110.442
101.642 130.59 108.135
100.938 131.831 108.472
104.204 131.213 110.795
100.296 132.78 108.499
104.737 132.392 109.95
104.827 133.393 110.649
98.5155 134.31 108.996
97.8724 133.918 110.646
98.732 133.489 109.93
99.5015 132.838 109.746
104.861 134.576 111.168
97.5175 134.78 110.347
96.4874 135.055 111.473
97.0049 134.108 111.842
104.794 135.955 111.432
95.8382 135.51 112.14
104.607 137.192 111.559
94.6112 137.355 112.28
95.1236 136.166 112.599
104.214 138.263 111.622
93.4407 139.015 112.497
93.7293 137.832 112.963
103.809 139.251 111.564
92.9502 139.76 113.144
103.147 140.218 111.583
103.041 141.17 110.705
92.5863 140.749 113.643
102.206 141.913 111.044
92.5952 141.84 114.071
101.259 142.6 111.468
100.752 143.398 110.517
92.7992 142.826 114.386
97.9733 144.622 110.681
98.6884 144.16 111.212
99.6764 143.808 111.113
93.1742 144.173 113.456
93.8496 144.988 113.397
94.9671 145.12 113.11
95.9822 144.998 112.615
96.8589 144.729 112.052
97.6515 144.441 111.563
102.388 127.627 110.086
101.314 128.803 110.404
101.686 127.19 110.792
102.998 126.802 111.322
103.51 127.948 110.429
103.328 127.808 111.765
103.679 129.014 110.862
103.425 128.934 112.152
100.828 130.565 110.131
103.745 129.912 112.334
100.441 131.675 109.92
103.952 130.934 112.526
100.047 132.326 109.92
99.3247 131.993 111.206
99.9613 131.691 110.704
104.395 132.19 111.5
104.615 133.325 112.149
97.7323 133.018 111.77
98.6959 132.631 111.002
104.531 134.684 112.485
96.054 134.064 113.126
96.7504 133.18 112.834
104.363 136.078 112.684
95.2663 134.856 113.428
104.02 137.358 112.791
94.253 136.556 113.33
94.7902 135.681 113.41
103.589 138.548 112.883
92.9757 138.345 113.874
93.4074 137.205 113.924
103.305 139.543 112.443
92.5826 139.244 114.528
102.754 140.129 112.615
102.439 141.064 111.94
92.4229 140.376 115.024
101.786 141.793 112.253
92.6247 141.413 115.425
100.847 142.266 112.514
100.34 143.184 111.598
92.9501 142.414 115.488
99.4557 143.338 112.355
98.6578 143.854 112.058
93.2946 143.686 114.543
94.0053 144.382 114.394
95.0119 144.673 114.18
95.9976 144.634 113.762
96.8788 144.403 113.276
97.7372 144.222 112.612
102.112 126.048 111.529
100.995 127.255 111.565
101.411 125.436 112.335
102.538 125.357 112.64
103.041 126.322 112.595
102.755 126.026 113.971
100.81 128.797 111.303
103.046 127.506 113.097
103.196 128.632 113.754
100.374 129.936 111.388
99.6064 129.561 112.568
100.217 128.96 111.995
103.451 129.635 114.167
99.8547 131.024 111.367
98.9939 130.765 112.4
103.618 130.826 113.971
98.3748 131.929 112.188
97.7126 131.099 113.297
98.3655 130.856 112.853
104.236 132.077 112.944
104.221 133.431 113.502
97.2495 132.302 113.019
95.8438 132.664 114.081
96.6277 131.565 113.956
104.076 134.88 113.655
94.9282 133.583 114.315
103.873 136.286 113.829
94.455 135.151 114.087
93.5701 135.009 115.058
94.1068 134.126 114.814
103.342 137.431 113.929
93.5917 136.098 114.438
92.9728 137.155 114.946
93.0286 135.753 115.58
103.13 138.451 113.779
102.716 138.121 114.726
102.622 139.277 114.147
92.5508 138.048 115.382
103.002 139.449 113.325
102.229 140.283 113.443
92.3519 139.11 115.912
101.705 140.939 113.252
92.4958 140.196 116.399
101.115 141.549 113.329
92.9435 141.176 116.59
100.615 142.085 113.253
100.134 142.761 112.782
93.1905 142.368 116.218
93.3803 143.291 115.591
93.8001 143.118 116.54
99.4084 143.033 113.163
98.5877 143.636 113.082
94.1631 143.86 115.371
95.1393 144.12 115.134
95.9721 144.122 114.709
96.8744 143.956 114.417
97.6911 143.822 113.649
100.582 126.496 112.439
99.9622 126.425 113.308
100.483 125.319 113.282
101.41 124.374 113.093
102.513 124.681 113.722
102.396 125.325 115.318
100.153 127.998 112.482
99.5561 127.328 113.759
102.755 127.183 114.589
103.038 128.401 115.264
99.2981 128.64 113.552
98.232 128.597 114.403
98.9804 127.831 114.118
103.215 129.686 115.681
98.5595 129.943 113.601
97.4457 129.578 114.637
103.465 131.022 114.929
103.863 132.112 113.981
103.662 132.483 114.897
97.145 130.573 114.225
95.6743 131.288 114.925
96.3595 129.978 114.994
103.77 133.787 114.652
94.8358 132.255 115.265
103.648 135.17 114.726
94.3212 133.111 115.417
103.195 136.229 114.877
93.1822 134.073 115.926
93.6974 133.393 115.76
102.775 137.078 115.24
92.5903 136.694 116.251
92.6541 135.011 116.443
102.152 138.113 115.597
102.098 139.351 114.75
92.2424 137.784 116.74
101.528 140.053 114.65
92.3548 138.966 117.3
101.023 140.793 114.504
92.9094 140.048 117.637
100.489 141.857 113.872
100.505 141.129 114.652
100.05 141.522 114.784
93.393 141.015 117.51
93.3648 142.053 116.972
93.8872 142.027 117.545
99.6744 142.513 113.778
99.3632 141.784 115.019
98.8962 142.397 114.55
94.4737 142.759 117.336
97.814 143.308 114.477
97.7032 142.893 115.291
97.0619 143.308 115.176
98.742 143.132 113.946
98.2378 142.579 115.055
94.5625 143.525 116.395
95.3657 143.645 116.063
96.2197 143.658 115.566
102.102 123.342 113.641
100.81 123.471 113.772
100.968 122.582 114.215
102.172 122.677 114.651
102.513 124.042 114.774
102.322 123.663 115.955
99.4929 125.403 114.361
100.087 124.296 114.002
102.165 125.16 116.595
98.7925 126.995 114.544
98.2151 126.237 115.43
98.9218 125.744 114.941
102.557 126.853 115.82
102.799 128.285 116.569
97.5578 127.598 115.11
96.3205 127.931 115.977
97.0862 126.649 115.979
102.888 129.777 116.992
96.6873 128.751 115.274
95.42 129.71 115.757
103.285 131.153 115.923
103.289 132.632 115.984
94.731 130.786 115.978
103.175 133.943 115.636
93.9277 131.5 116.307
93.3524 131.005 117.65
94.0249 130.47 117.134
103.011 134.967 115.892
93.5524 132.49 116.487
92.9653 132.14 117.694
102.722 135.896 116.237
92.8537 133.486 116.926
92.4731 135.223 117.353
92.6257 133.389 117.813
102.276 136.958 116.241
92.3745 136.485 117.66
101.709 137.692 116.482
101.503 138.845 115.813
92.4152 137.637 118.059
101.014 139.624 115.883
92.7334 138.828 118.541
100.455 140.42 115.403
100.416 139.578 116.667
99.845 140.22 116.378
93.3656 139.807 118.536
98.1589 141.312 116.545
97.8831 140.518 117.89
97.5444 141.315 117.046
98.9907 140.934 116.385
98.5177 140.537 117.365
99.6416 140.976 115.663
99.1763 140.116 117.137
93.9005 140.728 118.223
94.4424 141.567 118.152
97.6377 142.254 115.926
97.0364 141.88 116.787
98.5956 141.735 115.712
94.966 142.079 117.705
95.2733 142.874 116.922
96.0053 142.924 116.504
95.6703 142.06 117.43
96.8225 142.76 116.074
96.3407 142.049 117.117
99.8574 121.361 115.187
98.967 121.798 115.81
99.3409 120.118 115.94
100.612 120.148 115.463
100.865 121.666 114.712
101.743 120.894 115.426
102.22 122.14 115.353
102.088 121.984 116.394
99.8096 123.161 114.783
98.7908 123.086 115.808
101.894 123.446 117.09
99.0131 124.471 115.198
97.8256 124.529 116.349
97.9173 123.506 116.587
101.965 125.04 117.789
97.8063 125.515 116.009
96.4016 126.032 116.753
96.9711 124.858 116.726
102.438 126.699 117.054
102.602 128.235 117.855
95.7267 127.773 116.644
102.646 129.581 118.031
95.0922 128.749 116.776
94.0523 128.516 117.875
94.8592 127.577 117.472
102.941 131.138 116.959
102.557 130.849 118.135
94.4834 129.628 116.977
93.4836 129.665 118.26
102.858 132.224 117.094
102.828 133.472 116.881
92.7316 130.632 118.803
102.501 134.476 117.116
92.6251 132.318 118.447
92.3821 133.802 118.483
92.2982 131.872 119.344
102.177 135.838 117.057
92.3584 135.088 118.612
101.857 136.726 116.959
101.666 136.017 117.714
101.369 137.346 117.375
92.4959 136.223 118.92
101.013 138.305 116.974
92.8515 137.324 119.196
100.74 138.926 117.027
93.1797 138.235 119.502
93.5229 139.269 119.228
94.1016 138.807 119.814
99.8263 139.587 117.251
99.9511 138.787 117.911
99.3742 139.247 118.025
100.401 138.513 117.629
93.8498 139.976 118.924
94.3945 139.76 119.491
97.6957 139.776 118.8
97.2563 140.906 118.215
98.5257 139.633 118.245
95.2242 141.312 118.402
94.6334 140.596 118.878
96.0437 141.323 118.205
95.6251 140.57 119.069
96.7471 141.341 117.86
96.4595 140.577 118.83
97.3218 120.758 117.546
96.166 120.422 118.291
96.8482 119.36 117.946
98.0233 119.513 116.93
98.274 120.943 116.601
99.3344 118.955 116.319
100.756 119.167 116.249
101.807 120.259 116.49
101.674 121.588 117.437
96.7591 122.069 117.602
95.8403 122.067 118.212
97.7839 122.364 116.954
101.56 123.076 118.161
96.589 123.713 117.377
95.5602 123.447 118.155
101.593 124.321 118.86
95.812 124.832 117.424
94.7793 125.618 118.146
95.0513 124.319 118.37
102.222 126.575 118.108
101.814 125.893 119.014
95.4348 126.521 117.373
94.118 126.988 118.354
102.164 127.603 118.731
102.143 129.096 118.864
93.2907 128.208 118.862
101.981 130.354 119.155
92.8344 129.381 119.525
102.449 132.216 117.984
101.88 131.715 118.987
92.3629 130.587 120.122
102.15 133.198 118.162
101.468 132.778 119.221
92.277 133.55 119.49
92.1444 132.118 120.33
101.562 134.083 118.656
101.099 133.628 119.532
100.979 134.631 119.216
101.935 134.666 117.876
92.4535 134.691 119.866
101.202 135.724 118.438
100.503 135.305 119.377
92.691 135.862 120.102
100.857 136.837 118.38
100.178 136.415 119.266
93.2082 136.603 120.276
100.216 137.576 118.534
99.8978 137.009 119.225
99.4942 137.472 119.244
100.773 138.026 117.77
93.582 137.413 120.2
95.087 139.053 120.119
94.2959 138.023 120.331
95.3337 138.285 120.679
99.4121 138.391 118.589
98.8325 137.976 119.403
98.6317 138.804 118.97
95.2579 139.867 119.551
96.0583 138.939 120.246
96.21 139.654 119.574
96.996 139.935 119.045
96.9759 138.993 119.837
97.8205 138.938 119.404
98.5789 117.055 117.367
97.1325 117 118.003
97.445 116.025 117.952
98.9424 115.799 117.641
100.026 117.226 117.358
100.118 116.438 117.921
100.769 117.861 118.043
100.444 117.343 118.752
97.3444 118.213 117.815
95.7545 118.712 118.92
96.1801 117.547 118.832
98.6158 118.347 116.973
99.8011 118.194 116.823
100.961 118.68 117.448
100.708 118.859 118.784
95.2873 120.416 118.964
101.403 120.033 117.653
101.215 121.442 118.578
95.1412 122.273 118.921
101.193 122.856 119.282
94.8993 123.415 118.834
94.1981 124.385 119.218
94.295 122.969 119.41
101.326 124.694 119.874
93.9145 125.76 119.155
101.438 126.249 120.124
93.3191 126.893 119.487
101.826 127.617 119.546
101.587 129.007 119.85
92.7754 127.934 120.112
101.442 130.237 120.023
92.5304 129.094 120.714
101.26 131.468 120.076
92.4336 130.266 121.302
101.05 132.534 119.949
92.4196 133.304 120.774
92.4156 131.701 121.29
100.707 132.873 120.186
100.442 133.715 120.237
92.9335 134.511 120.914
92.9271 133.263 121.661
99.9065 135.183 120.006
93.3071 135.661 120.988
93.7442 134.658 121.695
99.5511 136.408 119.818
99.3302 135.32 120.473
98.9239 136.094 120.507
93.8285 136.561 120.82
94.1909 135.82 121.488
98.0063 137.263 120.569
97.6147 136.399 121.281
97.1612 137.222 121.019
98.8124 137.134 120.065
98.334 136.174 120.971
94.46 137.178 120.896
96.3697 138.138 120.78
95.3635 137.509 121.084
97.316 138.123 120.444
96.3183 137.139 121.186
98.1917 138.143 119.918
96.6274 103.537 117.032
95.6015 103.983 117.107
95.7744 102.325 116.626
96.7319 102.419 117.27
97.136 103.579 117.887
96.714 102.936 118.401
96.5789 104.839 117.262
95.953 105.556 117.56
97.3619 104.819 117.889
96.9852 104.323 118.998
96.8963 106.123 117.83
97.3584 105.784 118.706
96.1166 115.274 119.228
94.6951 115.923 120.279
95.0473 114.733 120.165
96.7001 114.223 118.845
97.4928 115.03 118.09
98.4766 113.979 118.294
99.3316 114.846 118.041
99.793 114.59 119.256
95.9119 116.389 119.245
94.8275 117.294 119.827
100.192 115.968 118.772
100.239 117.576 119.597
94.7221 118.968 119.6
100.291 118.999 120.193
94.4755 120.281 119.677
93.7703 121.097 120.36
93.89 119.564 120.367
100.826 120.213 119.072
100.738 121.652 119.927
94.5051 121.645 119.654
93.6638 122.923 120.134
100.881 123.279 120.309
93.4916 124.474 120.193
100.835 124.743 120.913
93.0268 125.67 120.385
100.47 125.62 121.491
92.6702 126.712 120.921
101.283 127.487 120.372
100.593 126.758 121.14
92.6154 127.912 121.618
100.988 128.493 120.816
100.238 128.175 121.506
92.7316 129.135 122.12
100.687 129.763 120.872
100.135 130.186 121.441
92.7741 130.682 122.352
100.625 131.599 120.624
99.9145 131.409 121.287
93.113 132.098 122.274
100.028 132.825 120.884
99.3884 131.739 121.819
99.1308 132.665 121.784
93.7021 133.375 122.323
98.2245 134.079 121.943
97.528 133.343 122.715
97.2367 134.22 122.367
99.1375 133.709 121.468
98.2929 132.847 122.463
99.6363 134.339 120.696
94.4095 134.419 122.275
94.9683 135.485 122.002
96.1338 135.473 122.107
95.3655 134.615 122.491
97.1487 135.079 121.941
96.3696 134.525 122.573
97.7804 135.323 121.375
98.695 134.973 121.154
94.9176 136.527 121.412
95.7603 136.438 121.604
96.8455 136.193 121.64
94.2139 101.808 117.459
93.756 102.801 118.05
93.4064 101.533 118.665
94.2355 100.717 118.056
95.3699 101.266 116.942
95.3387 100.957 118.385
94.7225 103.272 117.288
94.2224 104.094 118.325
96.2755 101.619 117.93
96.2779 102.584 119.153
95.1234 105.226 117.943
94.2212 105.355 118.842
96.4189 103.893 119.755
95.1169 106.842 118.619
94.1885 106.847 119.56
96.103 106.953 118.067
97.3412 107.169 118.516
97.1715 105.871 119.73
95.1465 108.268 119.132
94.0438 108.077 120.081
96.2404 108.436 118.524
97.3537 108.516 118.375
97.6353 107.282 119.619
98.1412 108.48 119.163
97.9032 108.279 120.264
94.97 109.373 119.588
93.8496 109.169 120.607
96.1217 109.808 118.717
97.4344 109.942 118.348
98.3885 109.769 119.044
98.113 109.484 120.274
94.8001 110.389 119.915
95.8386 111.032 119.036
94.6912 111.538 120.082
97.3642 111.25 118.491
98.6959 111.074 119.018
98.4056 110.761 120.284
95.4126 112.4 119.502
94.2577 112.604 120.833
96.7254 112.334 118.688
98.729 112.19 118.707
98.8905 111.971 120.484
94.4648 113.494 120.751
95.5622 113.658 119.66
93.9996 114.611 121.478
97.4773 113.123 118.585
99.1985 112.884 120.448
99.3407 113.329 119.02
99.3339 113.89 120.668
93.7931 115.601 121.65
99.4692 115.108 120.766
94.0248 116.875 120.992
93.478 117.784 121.343
93.3189 116.418 122.403
100.07 116.157 120.069
99.8621 117.395 120.898
94.1009 118.177 120.501
93.2826 119.458 121.2
99.6107 118.408 121.549
93.314 121.365 121.142
100.391 120.351 120.432
99.7565 119.751 121.627
92.9996 122.924 121.085
100.249 121.387 121.034
100.336 122.869 121.185
92.8065 124.309 121.363
100.123 124.009 121.853
92.6721 125.466 121.836
99.8377 125.078 122.214
99.4481 123.888 122.581
99.0342 124.934 122.925
92.6713 126.731 122.396
99.6104 126.214 122.295
98.7951 126.489 123.1
92.968 128.016 123.052
99.6979 127.406 122.233
98.8032 127.829 123.028
93.2244 129.472 123.181
99.0925 128.829 122.6
98.1411 128.514 123.363
98.1148 129.546 123.345
99.7219 129.09 121.957
93.4839 131.007 123.155
98.6088 130.233 122.715
98.0049 130.675 123.192
99.3648 130.362 122.169
93.8891 132.156 122.868
98.776 131.631 122.443
97.981 131.801 123.044
94.3969 132.912 122.885
94.7604 133.712 122.752
95.8249 133.735 122.947
95.4349 132.95 123.317
96.7324 133.684 122.92
96.5112 132.749 123.343
97.2868 132.275 123.234
93.449 103.035 119.141
93.1047 101.537 119.754
94.0155 100.637 119.316
94.8666 100.955 119.963
93.4408 104.281 119.746
95.6796 101.641 119.455
95.6639 102.704 120.348
93.5636 105.582 119.986
96.3828 104.642 120.462
93.4221 106.599 120.771
96.6082 105.987 120.977
93.246 107.796 121.306
97.2236 107.236 120.642
97.3951 108.723 121.163
93.2467 108.703 121.905
97.6881 110.098 121.529
94.0028 110.322 120.771
93.4445 109.826 121.823
97.9224 111.375 121.675
93.8438 111.234 121.221
93.695 112.268 121.852
97.9737 112.385 122.291
93.6712 113.484 122.341
93.6596 114.154 123.471
98.1609 113.376 122.308
98.5175 114.471 122.214
93.4831 115.176 123.539
98.5895 115.361 122.381
93.1541 117.893 122.261
93.3348 116.498 123.698
99.2896 116.276 121.47
98.9535 117.095 122.331
92.9747 119.674 122.13
99.0111 118.546 122.666
92.9939 121.352 122.168
98.9798 119.829 122.93
92.9187 122.761 122.311
99.7823 121.474 121.91
99.2107 121.055 122.691
92.8172 124.06 122.656
99.5245 122.601 122.377
98.7851 123.135 123.128
92.8301 125.317 123.231
98.3561 124.684 123.554
93.0975 126.495 123.54
97.9987 126.178 123.711
97.6078 125.017 124.258
97.2262 126.212 124.401
93.4909 127.527 123.975
93.8503 128.745 124.033
95.1101 128.587 124.534
94.3241 127.535 124.536
96.285 128.152 124.777
95.3905 127.274 124.993
97.2749 127.453 124.387
96.4497 126.749 125.001
98.0537 127.578 123.706
94.1283 130.142 123.718
95.0787 129.722 124.112
96.1763 129.389 124.393
97.2191 128.781 124.106
94.4442 131.416 123.53
95.2091 130.859 123.818
96.1837 130.493 124.057
97.151 129.992 123.856
94.7205 132.307 123.308
95.4821 132.055 123.654
96.3245 131.645 123.741
97.155 131.106 123.526
93.2588 102.731 120.357
93.6455 101.301 120.813
93.2673 103.827 121.025
93.7428 102.63 121.485
94.7885 101.959 121.067
93.3493 105.136 121.286
93.6209 104.208 122.196
94.5483 103.337 122.153
95.3533 103.367 121.373
95.9902 104.571 121.365
93.1987 106.508 122.115
96.1642 106.182 121.999
93.3666 107.768 122.698
96.8266 107.554 121.737
96.9536 109.09 122.249
93.412 108.976 123.181
97.1484 110.68 122.682
93.3276 110.082 123.188
97.0886 111.902 123.258
93.3613 111.007 122.353
93.3372 111.715 123.312
96.9686 113.114 123.839
93.49 112.683 123.266
94.5487 114.138 125.114
93.8911 113.098 124.424
96.3825 114.019 124.763
95.4915 113.144 125.15
97.5517 114.158 123.38
94.0194 115.365 124.816
95.6368 115.19 125.239
97.1964 114.97 124.086
93.0931 118.151 123.233
93.472 117.407 124.461
94.3303 116.379 125.258
95.839 116.41 125.313
96.4384 117.435 125.018
96.9524 116.079 124.478
97.9768 116.113 123.248
92.9535 119.833 123.251
97.2913 117.686 124.222
96.7607 118.787 125.022
98.0532 117.393 123.428
92.9764 121.211 123.309
97.4504 119.528 124.329
96.6811 120.235 125.103
98.1701 118.789 123.676
93.078 122.441 123.501
97.4633 121.184 124.4
96.5964 121.758 125.207
98.2507 120.534 123.62
93.1347 123.756 123.706
97.364 122.601 124.395
96.2961 122.995 125.154
98.3453 122.001 123.53
93.4001 124.374 124.222
93.6309 125.47 124.512
94.916 124.964 125.084
94.1732 124.12 124.866
96.2016 124.226 125.252
95.2409 123.611 125.299
97.0677 123.948 124.741
97.884 123.682 124.088
93.7383 126.653 124.44
94.6248 126.279 124.826
95.7296 125.812 125.116
96.7398 125.222 124.918
93.529 105.577 122.861
94.5087 104.927 123.016
95.3253 104.54 122.309
93.7695 106.983 123.633
94.7743 106.437 123.653
95.5656 105.995 122.854
93.9036 108.38 124.067
94.92 107.985 124.276
95.7728 107.767 123.641
96.1909 107.624 122.687
93.8051 109.7 124.538
94.9722 109.524 124.75
95.8017 109.411 124.14
96.4465 109.339 123.204
93.4234 110.779 124.198
94.6053 110.809 125.064
95.7773 110.921 124.86
96.5514 110.809 123.864
93.8885 111.913 124.652
95.0681 112.182 125.204
96.298 112.209 124.522
93.3102 118.794 124.263
94.1139 118.034 125.189
95.148 117.376 125.451
93.42 120.046 124.426
94.2713 119.276 125.383
95.4967 118.49 125.53
93.4956 121.245 124.591
94.4612 120.42 125.473
95.7302 119.739 125.699
93.6087 122.415 124.57
94.4762 121.62 125.354
95.6815 121.039 125.583
93.6911 123.452 124.602
94.4729 122.846 125.116
95.483 122.272 125.426
POLYGONS 2132  8528
3 0 1 2
3 0 3 4
3 2 3 0
3 4 5 6
3 3 5 4
3 6 7 8
3 5 7 6
3 7 9 8
3 10 1 0
3 11 1 10
3 4 12 0
3 12 10 0
3 6 13 4
3 13 12 4
3 8 14 6
3 14 13 6
3 15 8 9
3 14 8 15
3 16 11 10
3 17 11 16
3 12 18 10
3 18 16 10
3 13 19 12
3 19 18 12
3 14 20 13
3 20 19 13
3 21 14 15
3 20 14 21
3 16 22 17
3 18 22 16
3 23 22 18
3 19 23 18
3 24 23 19
3 20 24 19
3 25 24 20
3 21 25 20
3 26 27 28
3 26 29 30
3 28 29 26
3 29 31 30
3 32 33 34
3 27 32 34
3 27 26 32
3 26 35 32
3 30 36 26
3 36 35 26
3 37 30 31
3 36 30 37
3 38 33 32
3 39 33 38
3 35 40 32
3 40 38 32
3 36 41 35
3 41 40 35
3 42 36 37
3 41 36 42
3 43 44 45
3 43 46 47
3 45 46 43
3 39 47 46
3 39 38 47
3 38 48 47
3 40 49 38
3 49 48 38
3 50 41 51
3 50 49 41
3 49 40 41
3 42 51 41
3 2 44 43
3 2 1 44
3 1 52 44
3 3 2 43
3 47 3 43
3 5 3 47
3 48 5 47
3 7 5 48
3 49 7 48
3 49 9 7
3 49 50 9
3 50 53 9
3 1 11 52
3 52 11 54
3 9 53 15
3 53 55 15
3 11 17 54
3 54 17 56
3 15 55 21
3 55 57 21
3 58 17 22
3 58 59 17
3 59 56 17
3 22 23 60
3 58 22 60
3 23 24 61
3 60 23 61
3 62 61 24
3 62 24 63
3 63 24 25
3 57 25 21
3 63 25 57
3 58 64 59
3 60 64 58
3 65 64 60
3 61 65 60
3 66 65 61
3 62 66 61
3 67 68 69
3 67 70 71
3 69 70 67
3 71 72 73
3 70 72 71
3 72 74 73
3 75 76 77
3 68 75 77
3 68 67 75
3 67 78 75
3 71 79 67
3 79 78 67
3 73 80 71
3 80 79 71
3 81 73 74
3 80 73 81
3 82 76 75
3 83 76 82
3 78 84 75
3 84 82 75
3 79 85 78
3 85 84 78
3 80 86 79
3 86 85 79
3 87 80 81
3 86 80 87
3 28 83 82
3 28 27 83
3 27 88 83
3 29 28 82
3 84 29 82
3 31 29 84
3 31 84 89
3 89 84 85
3 86 90 85
3 90 89 85
3 91 86 87
3 90 86 91
3 34 92 93
3 33 92 34
3 88 27 34
3 93 88 34
3 89 94 37
3 31 89 37
3 90 95 89
3 95 94 89
3 96 90 91
3 95 90 96
3 97 98 99
3 97 99 92
3 97 92 39
3 39 92 33
3 94 100 42
3 37 94 42
3 101 95 102
3 101 100 95
3 100 94 95
3 96 102 95
3 45 103 104
3 44 103 45
3 98 97 46
3 98 46 104
3 104 46 45
3 39 46 97
3 51 105 50
3 51 42 100
3 51 100 105
3 105 100 106
3 107 100 101
3 106 100 107
3 44 52 103
3 103 52 108
3 105 109 53
3 50 105 53
3 110 106 111
3 110 109 106
3 109 105 106
3 107 111 106
3 52 54 108
3 108 54 112
3 109 113 55
3 53 109 55
3 114 109 110
3 113 109 114
3 54 56 112
3 112 56 115
3 113 116 57
3 55 113 57
3 117 113 114
3 116 113 117
3 56 59 115
3 115 59 118
3 63 119 120
3 62 63 120
3 116 63 57
3 116 121 63
3 121 119 63
3 117 121 116
3 59 122 118
3 64 122 59
3 65 123 64
3 64 123 122
3 66 124 65
3 65 124 123
3 120 66 62
3 124 66 120
3 69 125 126
3 68 125 69
3 70 69 127
3 69 126 127
3 72 70 128
3 70 127 128
3 128 74 72
3 129 74 128
3 77 130 131
3 76 130 77
3 125 68 77
3 131 125 77
3 74 129 81
3 129 132 81
3 76 83 130
3 130 83 133
3 134 135 87
3 134 87 132
3 132 87 81
3 134 136 135
3 83 88 133
3 133 88 137
3 135 138 91
3 87 135 91
3 139 135 136
3 138 135 139
3 93 140 141
3 92 140 93
3 137 88 93
3 141 137 93
3 138 142 96
3 91 138 96
3 143 138 139
3 142 138 143
3 99 144 145
3 98 144 99
3 140 92 99
3 145 140 99
3 102 146 101
3 102 147 146
3 96 147 102
3 96 148 147
3 96 142 148
3 143 148 142
3 104 149 150
3 103 149 104
3 144 98 104
3 150 144 104
3 146 151 107
3 101 146 107
3 152 146 147
3 151 146 152
3 103 108 149
3 149 108 153
3 111 154 110
3 111 155 154
3 107 155 111
3 107 156 155
3 107 151 156
3 152 156 151
3 108 112 153
3 153 112 157
3 154 158 114
3 110 154 114
3 159 154 155
3 158 154 159
3 112 115 157
3 157 115 160
3 158 161 162
3 158 162 114
3 114 162 117
3 159 161 158
3 115 118 160
3 160 118 163
3 119 164 120
3 165 164 119
3 165 119 166
3 166 119 121
3 162 121 117
3 166 121 162
3 118 167 163
3 122 167 118
3 123 168 122
3 122 168 167
3 124 169 123
3 123 169 168
3 164 124 120
3 164 170 124
3 170 169 124
3 165 170 164
3 126 125 171
3 172 126 171
3 172 173 126
3 173 127 126
3 128 127 174
3 127 173 174
3 174 129 128
3 175 129 174
3 131 130 176
3 131 176 177
3 125 131 177
3 125 177 178
3 125 178 171
3 172 171 178
3 179 180 132
3 179 132 175
3 175 132 129
3 179 181 180
3 176 182 183
3 176 130 182
3 130 133 182
3 177 176 183
3 132 180 134
3 180 136 134
3 180 181 136
3 181 184 136
3 133 137 182
3 182 137 185
3 136 184 139
3 184 186 139
3 141 187 188
3 140 187 141
3 185 137 141
3 188 185 141
3 139 186 143
3 186 189 143
3 145 190 191
3 144 190 145
3 187 140 145
3 191 187 145
3 148 192 147
3 148 193 192
3 148 143 193
3 143 189 193
3 150 194 195
3 149 194 150
3 190 144 150
3 195 190 150
3 192 196 152
3 147 192 152
3 197 192 193
3 196 192 197
3 198 199 200
3 198 200 194
3 198 194 153
3 153 194 149
3 156 201 155
3 156 202 201
3 152 202 156
3 152 203 202
3 152 196 203
3 197 203 196
3 204 199 198
3 205 199 204
3 153 157 204
3 198 153 204
3 201 206 159
3 155 201 159
3 207 201 202
3 206 201 207
3 208 205 204
3 209 205 208
3 157 160 208
3 204 157 208
3 161 210 162
3 161 211 210
3 159 211 161
3 159 212 211
3 159 206 212
3 207 212 206
3 213 209 208
3 214 209 213
3 160 163 213
3 208 160 213
3 166 215 216
3 165 166 216
3 210 166 162
3 210 217 166
3 217 215 166
3 211 217 210
3 213 218 214
3 163 218 213
3 163 167 218
3 167 219 218
3 168 220 167
3 167 220 219
3 169 221 168
3 168 221 220
3 170 222 169
3 169 222 221
3 216 170 165
3 222 170 216
3 223 224 225
3 223 226 227
3 225 226 223
3 226 228 227
3 173 224 223
3 173 172 224
3 172 229 224
3 174 173 223
3 227 174 223
3 227 175 174
3 227 228 175
3 228 230 175
3 178 231 232
3 177 231 178
3 229 172 178
3 232 229 178
3 175 230 233
3 179 175 233
3 233 181 179
3 234 181 233
3 183 235 236
3 182 235 183
3 231 177 183
3 236 231 183
3 181 234 184
3 234 237 184
3 238 239 240
3 238 240 235
3 238 235 185
3 185 235 182
3 184 237 186
3 237 241 186
3 242 243 244
3 239 242 244
3 238 242 239
3 238 187 242
3 238 188 187
3 185 188 238
3 186 241 189
3 241 245 189
3 246 247 248
3 243 246 248
3 242 246 243
3 242 190 246
3 242 191 190
3 187 191 242
3 189 245 193
3 245 249 193
3 250 251 252
3 247 250 252
3 246 250 247
3 246 194 250
3 246 195 194
3 190 195 246
3 193 249 197
3 249 253 197
3 200 251 250
3 200 199 251
3 199 254 251
3 194 200 250
3 203 255 256
3 202 203 256
3 253 203 197
3 255 203 253
3 199 205 254
3 254 205 257
3 202 256 207
3 256 258 207
3 205 209 257
3 257 209 259
3 212 260 261
3 211 212 261
3 258 212 207
3 260 212 258
3 209 214 259
3 259 214 262
3 215 263 264
3 216 215 264
3 217 265 215
3 215 265 263
3 261 217 211
3 265 217 261
3 214 266 262
3 218 266 214
3 219 267 218
3 218 267 266
3 220 268 219
3 219 268 267
3 221 269 220
3 220 269 268
3 222 270 221
3 221 270 269
3 264 222 216
3 270 222 264
3 271 272 273
3 271 225 224
3 271 273 225
3 273 274 225
3 226 225 275
3 225 274 275
3 275 228 226
3 276 228 275
3 277 272 271
3 278 272 277
3 224 229 277
3 271 224 277
3 228 276 230
3 276 279 230
3 232 278 277
3 232 231 278
3 231 280 278
3 229 232 277
3 230 279 281
3 233 230 281
3 281 234 233
3 282 234 281
3 283 284 285
3 283 236 235
3 283 285 236
3 285 286 236
3 280 231 236
3 286 280 236
3 234 282 237
3 282 287 237
3 288 289 290
3 284 288 290
3 283 288 284
3 283 239 288
3 283 240 239
3 235 240 283
3 237 287 241
3 287 291 241
3 244 289 288
3 244 243 289
3 243 292 289
3 239 244 288
3 241 291 245
3 291 293 245
3 248 294 295
3 247 294 248
3 292 243 248
3 295 292 248
3 245 293 249
3 293 296 249
3 252 297 298
3 251 297 252
3 294 247 252
3 298 294 252
3 249 296 253
3 296 299 253
3 251 254 297
3 297 254 300
3 255 301 302
3 256 255 302
3 299 255 253
3 301 255 299
3 254 257 300
3 300 257 303
3 256 302 258
3 302 304 258
3 257 259 303
3 303 259 305
3 260 306 307
3 261 260 307
3 304 260 258
3 306 260 304
3 259 262 305
3 305 262 308
3 263 309 264
3 310 309 263
3 310 263 311
3 311 263 265
3 307 265 261
3 311 265 307
3 262 312 308
3 266 312 262
3 267 313 266
3 266 313 312
3 268 314 267
3 267 314 313
3 269 315 268
3 268 315 314
3 270 316 269
3 269 316 315
3 309 270 264
3 309 317 270
3 317 316 270
3 310 317 309
3 318 319 320
3 318 321 322
3 320 321 318
3 322 323 324
3 321 323 322
3 323 325 324
3 273 319 318
3 273 272 319
3 272 326 319
3 274 273 318
3 322 274 318
3 275 274 322
3 324 275 322
3 324 276 275
3 324 325 276
3 325 327 276
3 272 278 326
3 326 278 328
3 276 327 279
3 327 329 279
3 330 331 332
3 330 332 328
3 330 328 280
3 280 328 278
3 279 329 333
3 281 279 333
3 333 282 281
3 334 282 333
3 285 335 336
3 284 335 285
3 331 330 286
3 331 286 336
3 336 286 285
3 280 286 330
3 282 334 287
3 334 337 287
3 290 338 339
3 289 338 290
3 335 284 290
3 339 335 290
3 287 337 291
3 337 340 291
3 289 292 338
3 338 292 341
3 291 340 293
3 340 342 293
3 295 343 344
3 294 343 295
3 341 292 295
3 344 341 295
3 293 342 296
3 342 345 296
3 298 346 347
3 297 346 298
3 343 294 298
3 347 343 298
3 296 345 299
3 345 348 299
3 297 300 346
3 346 300 349
3 301 350 351
3 302 301 351
3 348 301 299
3 350 301 348
3 300 303 349
3 349 303 352
3 302 351 304
3 351 353 304
3 303 305 352
3 352 305 354
3 306 355 356
3 307 306 356
3 353 306 304
3 355 306 353
3 305 308 354
3 354 308 357
3 311 358 359
3 310 311 359
3 356 311 307
3 358 311 356
3 308 360 357
3 312 360 308
3 313 361 312
3 312 361 360
3 314 362 313
3 313 362 361
3 315 363 314
3 314 363 362
3 316 364 315
3 315 364 363
3 317 365 316
3 316 365 364
3 359 317 310
3 365 317 359
3 366 367 368
3 366 369 370
3 368 369 366
3 369 371 370
3 320 367 366
3 320 319 367
3 319 372 367
3 321 320 366
3 370 321 366
3 370 371 373
3 370 373 321
3 321 373 323
3 373 325 323
3 374 325 373
3 375 376 377
3 375 377 372
3 375 372 326
3 326 372 319
3 325 374 327
3 374 378 327
3 379 376 375
3 380 376 379
3 326 328 379
3 375 326 379
3 327 378 329
3 378 381 329
3 382 383 384
3 380 382 384
3 379 382 380
3 379 331 382
3 379 332 331
3 328 332 379
3 329 381 385
3 333 329 385
3 385 334 333
3 386 334 385
3 387 388 389
3 383 387 389
3 382 387 383
3 382 335 387
3 382 336 335
3 331 336 382
3 334 386 337
3 386 390 337
3 339 388 387
3 339 338 388
3 338 391 388
3 335 339 387
3 337 390 340
3 390 392 340
3 393 394 395
3 393 395 391
3 393 391 341
3 341 391 338
3 340 392 342
3 392 396 342
3 397 398 399
3 394 397 399
3 393 397 394
3 393 343 397
3 393 344 343
3 341 344 393
3 400 401 402
3 400 396 401
3 400 345 396
3 345 342 396
3 347 398 397
3 347 346 398
3 346 403 398
3 343 347 397
3 404 400 402
3 405 404 402
3 345 404 348
3 400 404 345
3 346 349 403
3 403 349 406
3 350 404 405
3 350 405 351
3 351 405 407
3 348 404 350
3 349 352 406
3 406 352 408
3 351 407 353
3 407 409 353
3 352 354 408
3 408 354 410
3 355 411 412
3 356 355 412
3 409 355 353
3 411 355 409
3 413 357 414
3 413 410 357
3 410 354 357
3 413 414 415
3 358 416 417
3 359 358 417
3 412 358 356
3 416 358 412
3 357 360 414
3 414 418 415
3 414 360 418
3 360 361 418
3 362 419 361
3 361 419 418
3 363 420 362
3 362 420 419
3 364 421 363
3 363 421 420
3 365 422 364
3 364 422 421
3 417 365 359
3 422 365 417
3 423 424 425
3 423 368 367
3 423 425 368
3 425 426 368
3 369 368 427
3 368 426 427
3 427 371 369
3 428 371 427
3 429 424 423
3 430 424 429
3 367 372 429
3 423 367 429
3 371 428 431
3 373 371 431
3 431 374 373
3 432 374 431
3 433 434 435
3 430 433 435
3 429 433 430
3 429 376 433
3 429 377 376
3 372 377 429
3 374 432 378
3 432 436 378
3 437 434 433
3 438 434 437
3 376 380 437
3 433 376 437
3 439 440 381
3 439 381 436
3 436 381 378
3 439 441 440
3 442 443 444
3 438 442 444
3 437 442 438
3 437 383 442
3 437 384 383
3 380 384 437
3 381 440 385
3 440 386 385
3 440 441 386
3 441 445 386
3 389 443 442
3 389 388 443
3 388 446 443
3 383 389 442
3 386 445 390
3 445 447 390
3 388 391 446
3 446 391 448
3 390 447 392
3 447 449 392
3 395 450 451
3 394 450 395
3 448 391 395
3 451 448 395
3 392 449 396
3 449 452 396
3 399 453 454
3 398 453 399
3 450 394 399
3 454 450 399
3 401 455 456
3 402 401 456
3 452 401 396
3 455 401 452
3 398 403 453
3 453 403 457
3 402 456 405
3 456 458 405
3 403 406 457
3 457 406 459
3 405 458 407
3 458 460 407
3 406 408 459
3 459 408 461
3 462 463 464
3 462 460 463
3 462 409 460
3 409 407 460
3 465 410 466
3 465 461 410
3 461 408 410
3 465 466 467
3 468 469 470
3 464 469 468
3 462 464 468
3 462 468 412
3 462 412 411
3 409 462 411
3 410 413 466
3 466 413 415
3 466 415 467
3 467 415 471
3 472 473 474
3 472 475 476
3 473 472 476
3 470 476 475
3 468 470 475
3 468 475 417
3 468 417 416
3 412 468 416
3 415 477 471
3 418 477 415
3 419 478 418
3 418 478 477
3 420 479 419
3 419 479 478
3 474 421 472
3 474 479 421
3 479 420 421
3 422 472 421
3 475 472 422
3 417 475 422
3 480 481 482
3 480 483 484
3 482 483 480
3 483 485 484
3 425 486 487
3 424 486 425
3 481 480 426
3 481 426 487
3 487 426 425
3 427 426 480
3 484 427 480
3 484 428 427
3 484 485 428
3 485 488 428
3 489 490 491
3 489 491 486
3 489 486 430
3 430 486 424
3 428 488 492
3 431 428 492
3 492 432 431
3 493 432 492
3 494 495 496
3 490 494 496
3 489 494 490
3 489 434 494
3 489 435 434
3 430 435 489
3 432 493 436
3 493 497 436
3 498 495 494
3 499 495 498
3 434 438 498
3 494 434 498
3 436 497 500
3 439 436 500
3 500 441 439
3 501 441 500
3 444 499 498
3 444 443 499
3 443 502 499
3 438 444 498
3 441 501 445
3 501 503 445
3 504 505 506
3 504 506 502
3 504 502 446
3 446 502 443
3 445 503 447
3 503 507 447
3 508 505 504
3 509 505 508
3 446 448 508
3 504 446 508
3 447 507 449
3 507 510 449
3 511 512 513
3 509 511 513
3 508 511 509
3 508 450 511
3 508 451 450
3 448 451 508
3 449 510 452
3 510 514 452
3 454 512 511
3 454 453 512
3 453 515 512
3 450 454 511
3 455 516 517
3 456 455 517
3 514 455 452
3 516 455 514
3 453 457 515
3 515 457 518
3 456 517 458
3 517 519 458
3 457 459 518
3 518 459 520
3 521 522 523
3 521 519 522
3 521 460 519
3 460 458 519
3 459 461 520
3 520 461 524
3 525 526 527
3 525 528 529
3 526 525 529
3 528 530 531
3 529 528 531
3 523 531 530
3 521 523 530
3 521 530 464
3 521 464 463
3 460 521 463
3 461 532 524
3 465 532 461
3 532 465 467
3 533 532 467
3 534 525 527
3 535 534 527
3 528 525 536
3 536 525 534
3 469 536 470
3 469 530 536
3 530 528 536
3 464 530 469
3 537 471 538
3 537 533 471
3 533 467 471
3 538 539 540
3 537 538 540
3 539 541 542
3 540 539 542
3 535 542 541
3 534 535 541
3 534 541 474
3 534 474 473
3 476 534 473
3 536 534 476
3 470 536 476
3 471 477 538
3 478 538 477
3 539 538 478
3 479 539 478
3 541 539 479
3 474 541 479
3 543 544 545
3 543 546 547
3 545 546 543
3 547 548 549
3 546 548 547
3 548 550 549
3 551 544 543
3 552 544 551
3 482 481 551
3 482 551 547
3 547 551 543
3 483 482 547
3 549 483 547
3 549 485 483
3 549 550 485
3 550 553 485
3 554 555 556
3 552 554 556
3 551 554 552
3 551 486 554
3 551 487 486
3 481 487 551
3 485 553 488
3 553 557 488
3 558 559 560
3 555 558 560
3 554 558 555
3 554 490 558
3 554 491 490
3 486 491 554
3 488 557 561
3 492 488 561
3 561 493 492
3 562 493 561
3 496 559 558
3 496 495 559
3 495 563 559
3 490 496 558
3 493 562 497
3 562 564 497
3 565 566 567
3 565 567 563
3 565 563 499
3 499 563 495
3 568 500 497
3 568 497 569
3 569 497 564
3 500 568 501
3 570 566 565
3 571 566 570
3 499 502 570
3 565 499 570
3 568 569 572
3 572 501 568
3 572 573 501
3 573 503 501
3 506 571 570
3 506 505 571
3 505 574 571
3 502 506 570
3 503 573 507
3 573 575 507
3 576 577 578
3 576 578 574
3 576 574 509
3 509 574 505
3 507 575 510
3 575 579 510
3 513 577 576
3 513 512 577
3 512 580 577
3 509 513 576
3 581 582 583
3 581 579 582
3 581 514 579
3 514 510 579
3 512 515 580
3 580 515 584
3 516 581 583
3 516 583 517
3 517 583 585
3 514 581 516
3 515 518 584
3 584 518 586
3 517 585 519
3 585 587 519
3 588 520 589
3 588 586 520
3 586 518 520
3 588 589 590
3 591 592 593
3 591 523 522
3 591 522 592
3 592 522 594
3 587 522 519
3 594 522 587
3 589 524 595
3 520 524 589
3 596 590 589
3 595 596 589
3 526 597 598
3 527 526 598
3 529 599 526
3 526 599 597
3 593 531 591
3 593 599 531
3 599 529 531
3 523 591 531
3 524 532 595
3 533 600 601
3 532 533 601
3 532 601 596
3 532 596 595
3 600 602 603
3 601 600 603
3 602 604 605
3 603 602 605
3 604 598 605
3 604 535 598
3 535 527 598
3 533 537 600
3 540 600 537
3 602 600 540
3 542 602 540
3 604 602 542
3 535 604 542
3 606 607 608
3 606 609 610
3 608 609 606
3 610 545 544
3 610 609 545
3 609 611 545
3 546 545 612
3 545 611 612
3 548 546 613
3 546 612 613
3 613 550 548
3 614 550 613
3 615 607 606
3 616 607 615
3 610 617 606
3 617 615 606
3 544 552 617
3 610 544 617
3 550 614 553
3 614 618 553
3 619 616 615
3 620 616 619
3 556 555 619
3 556 619 617
3 617 619 615
3 552 556 617
3 553 618 557
3 618 621 557
3 622 623 624
3 620 622 624
3 619 622 620
3 619 559 622
3 619 560 559
3 555 560 619
3 625 561 557
3 625 557 626
3 626 557 621
3 561 625 562
3 627 623 622
3 628 623 627
3 559 563 627
3 622 559 627
3 625 626 629
3 629 562 625
3 629 630 562
3 630 564 562
3 567 628 627
3 567 566 628
3 566 631 628
3 563 567 627
3 564 630 569
3 630 632 569
3 566 571 631
3 631 571 633
3 634 572 569
3 634 569 635
3 635 569 632
3 572 634 573
3 571 574 633
3 633 574 636
3 637 634 635
3 638 637 635
3 573 637 575
3 634 637 573
3 578 639 640
3 577 639 578
3 636 574 578
3 640 636 578
3 641 642 643
3 638 642 641
3 638 641 637
3 637 641 644
3 575 644 579
3 637 644 575
3 577 580 639
3 639 580 645
3 646 641 643
3 647 646 643
3 582 646 583
3 582 644 646
3 644 641 646
3 579 644 582
3 580 584 645
3 645 584 648
3 649 646 647
3 650 649 647
3 583 649 585
3 646 649 583
3 584 586 648
3 648 586 651
3 652 653 654
3 650 653 652
3 650 652 649
3 649 652 655
3 585 655 587
3 649 655 585
3 586 656 651
3 588 656 586
3 590 657 658
3 590 658 588
3 588 658 656
3 658 657 659
3 660 661 662
3 654 661 660
3 652 654 660
3 652 660 593
3 652 593 592
3 594 652 592
3 655 652 594
3 587 655 594
3 657 596 663
3 590 596 657
3 664 659 657
3 664 657 665
3 665 657 663
3 665 666 667
3 664 665 667
3 666 598 597
3 666 597 667
3 667 597 668
3 662 599 660
3 662 668 599
3 668 597 599
3 593 660 599
3 596 601 663
3 603 663 601
3 665 663 603
3 605 665 603
3 666 665 605
3 598 666 605
3 669 670 671
3 669 672 673
3 671 672 669
3 673 674 675
3 672 674 673
3 674 676 675
3 677 678 679
3 670 677 679
3 670 669 677
3 669 680 677
3 673 681 669
3 681 680 669
3 675 682 673
3 682 681 673
3 683 675 676
3 682 675 683
3 608 678 677
3 608 607 678
3 607 684 678
3 609 608 677
3 680 609 677
3 611 609 680
3 681 611 680
3 612 611 681
3 682 612 681
3 682 683 685
3 682 685 612
3 612 685 613
3 685 614 613
3 686 614 685
3 607 616 684
3 684 616 687
3 614 686 618
3 686 688 618
3 689 690 691
3 689 691 687
3 689 687 620
3 620 687 616
3 618 688 621
3 688 692 621
3 624 690 689
3 624 623 690
3 623 693 690
3 620 624 689
3 621 692 626
3 692 694 626
3 623 628 693
3 693 628 695
3 626 694 696
3 629 626 696
3 696 630 629
3 697 630 696
3 628 631 695
3 695 631 698
3 630 697 632
3 697 699 632
3 631 633 698
3 698 633 700
3 632 699 635
3 699 701 635
3 633 636 700
3 700 636 702
3 635 701 638
3 701 703 638
3 640 639 704
3 640 704 705
3 640 705 636
3 636 705 702
3 642 706 707
3 643 642 707
3 703 642 638
3 706 642 703
3 704 645 708
3 639 645 704
3 709 705 704
3 708 709 704
3 643 707 647
3 707 710 647
3 708 648 711
3 645 648 708
3 712 709 708
3 711 712 708
3 713 714 715
3 713 710 714
3 713 650 710
3 650 647 710
3 711 651 716
3 648 651 711
3 717 712 711
3 716 717 711
3 718 719 720
3 718 721 722
3 719 718 722
3 715 722 721
3 713 715 721
3 713 721 654
3 713 654 653
3 650 713 653
3 651 656 716
3 716 723 717
3 716 656 723
3 656 658 723
3 659 724 725
3 659 725 658
3 658 725 723
3 724 726 727
3 725 724 727
3 720 727 726
3 720 726 718
3 718 726 728
3 661 728 662
3 661 721 728
3 721 718 728
3 654 721 661
3 659 664 724
3 667 724 664
3 726 724 667
3 668 726 667
3 728 726 668
3 662 728 668
3 729 730 731
3 729 732 733
3 731 732 729
3 732 734 733
3 735 730 729
3 736 730 735
3 733 737 729
3 737 735 729
3 738 733 734
3 737 733 738
3 735 739 736
3 737 739 735
3 740 739 737
3 738 740 737
3 741 742 743
3 741 744 745
3 743 744 741
3 745 746 747
3 744 746 745
3 746 748 747
3 749 742 741
3 750 742 749
3 671 670 749
3 671 749 745
3 745 749 741
3 672 671 745
3 747 672 745
3 747 748 751
3 747 751 672
3 672 751 674
3 751 676 674
3 752 676 751
3 679 750 749
3 679 678 750
3 678 753 750
3 670 679 749
3 676 752 683
3 752 754 683
3 755 756 757
3 755 757 753
3 755 753 684
3 684 753 678
3 683 754 758
3 685 683 758
3 758 686 685
3 759 686 758
3 760 756 755
3 761 756 760
3 684 687 760
3 755 684 760
3 686 759 688
3 759 762 688
3 691 761 760
3 691 690 761
3 690 763 761
3 687 691 760
3 688 762 692
3 762 764 692
3 690 693 763
3 763 693 765
3 692 764 694
3 764 766 694
3 693 695 765
3 765 695 767
3 768 696 694
3 768 694 769
3 769 694 766
3 696 768 697
3 695 698 767
3 767 698 770
3 771 768 769
3 772 771 769
3 697 771 699
3 768 771 697
3 698 700 770
3 770 700 773
3 774 771 772
3 775 774 772
3 699 774 701
3 771 774 699
3 700 702 773
3 773 702 776
3 777 774 775
3 778 777 775
3 701 777 703
3 774 777 701
3 702 705 776
3 776 705 779
3 780 781 782
3 778 781 780
3 777 778 780
3 777 780 707
3 777 707 706
3 703 777 706
3 705 709 779
3 779 709 783
3 784 785 786
3 784 787 788
3 785 784 788
3 782 788 787
3 782 787 780
3 780 787 789
3 707 789 710
3 780 789 707
3 790 712 791
3 790 783 712
3 783 709 712
3 791 792 793
3 790 791 793
3 792 794 795
3 793 792 795
3 786 795 794
3 786 794 784
3 784 794 796
3 787 784 797
3 797 784 796
3 714 797 715
3 714 789 797
3 789 787 797
3 710 789 714
3 791 717 798
3 712 717 791
3 792 791 799
3 799 791 798
3 794 792 800
3 800 792 799
3 719 800 720
3 719 796 800
3 796 794 800
3 722 796 719
3 797 796 722
3 715 797 722
3 717 723 798
3 725 798 723
3 799 798 725
3 727 799 725
3 800 799 727
3 720 800 727
3 801 802 803
3 801 804 805
3 803 804 801
3 804 806 805
3 807 802 801
3 808 802 807
3 731 730 807
3 731 807 805
3 805 807 801
3 805 806 809
3 805 809 731
3 731 809 732
3 809 734 732
3 810 734 809
3 811 808 807
3 812 808 811
3 730 736 811
3 807 730 811
3 734 810 738
3 810 813 738
3 814 812 811
3 815 812 814
3 736 739 816
3 736 816 811
3 811 816 814
3 739 740 817
3 816 739 817
3 740 818 817
3 740 738 818
3 738 813 818
3 819 815 814
3 820 815 819
3 816 821 814
3 821 819 814
3 817 822 816
3 822 821 816
3 823 817 818
3 823 824 817
3 824 822 817
3 823 825 824
3 826 820 819
3 827 820 826
3 821 828 819
3 828 826 819
3 822 829 821
3 829 828 821
3 824 830 822
3 830 829 822
3 831 824 825
3 830 824 831
3 826 832 827
3 832 833 834
3 832 826 833
3 826 828 833
3 829 835 828
3 835 833 828
3 830 836 829
3 836 835 829
3 837 830 831
3 836 830 837
3 838 834 833
3 839 834 838
3 835 840 833
3 840 838 833
3 836 841 835
3 841 840 835
3 842 836 837
3 841 836 842
3 838 843 839
3 843 844 845
3 843 838 844
3 838 840 844
3 841 846 840
3 846 844 840
3 847 841 842
3 847 848 841
3 848 846 841
3 847 849 848
3 743 845 844
3 743 742 845
3 742 850 845
3 744 743 844
3 846 744 844
3 746 744 846
3 848 746 846
3 848 748 746
3 848 849 748
3 849 851 748
3 852 853 854
3 852 854 850
3 852 850 750
3 750 850 742
3 748 851 855
3 751 748 855
3 855 752 751
3 856 752 855
3 857 853 852
3 858 853 857
3 750 753 857
3 852 750 857
3 752 856 754
3 856 859 754
3 757 858 857
3 757 756 858
3 756 860 858
3 753 757 857
3 861 758 754
3 861 754 862
3 862 754 859
3 758 861 759
3 756 761 860
3 860 761 863
3 861 862 864
3 864 759 861
3 864 865 759
3 865 762 759
3 761 763 863
3 863 763 866
3 762 865 764
3 865 867 764
3 763 765 866
3 866 765 868
3 869 870 871
3 869 867 870
3 869 766 867
3 766 764 867
3 765 767 868
3 868 767 872
3 873 869 871
3 874 873 871
3 766 873 769
3 869 873 766
3 767 770 872
3 872 770 875
3 876 873 874
3 877 876 874
3 769 876 772
3 873 876 769
3 770 773 875
3 875 773 878
3 879 880 881
3 877 880 879
3 877 879 876
3 876 879 882
3 772 882 775
3 876 882 772
3 773 776 878
3 878 776 883
3 884 879 881
3 885 884 881
3 882 879 886
3 886 879 884
3 775 886 778
3 882 886 775
3 776 779 883
3 883 779 887
3 888 884 885
3 889 888 885
3 781 888 782
3 781 886 888
3 886 884 888
3 778 886 781
3 890 783 891
3 890 887 783
3 887 779 783
3 891 892 893
3 890 891 893
3 892 894 895
3 893 892 895
3 894 786 785
3 894 785 895
3 895 785 896
3 889 788 888
3 889 896 788
3 896 785 788
3 782 888 788
3 783 790 891
3 793 891 790
3 892 891 793
3 795 892 793
3 894 892 795
3 786 894 795
3 803 897 898
3 802 897 803
3 804 803 899
3 803 898 899
3 899 806 804
3 900 806 899
3 802 808 897
3 897 808 901
3 806 900 902
3 809 806 902
3 902 810 809
3 903 810 902
3 808 812 901
3 901 812 904
3 810 903 813
3 903 905 813
3 812 815 904
3 904 815 906
3 813 905 818
3 905 907 818
3 815 820 906
3 906 820 908
3 818 907 909
3 823 818 909
3 909 825 823
3 910 825 909
3 820 827 908
3 908 827 911
3 825 910 831
3 910 912 831
3 913 827 832
3 913 914 827
3 914 911 827
3 832 834 913
3 831 912 837
3 912 915 837
3 913 916 914
3 916 913 834
3 916 834 917
3 917 834 839
3 837 915 842
3 915 918 842
3 839 919 917
3 843 919 839
3 919 843 845
3 920 919 845
3 842 918 921
3 847 842 921
3 921 849 847
3 922 849 921
3 845 850 920
3 920 850 923
3 849 922 851
3 922 924 851
3 854 925 926
3 853 925 854
3 923 850 854
3 926 923 854
3 851 924 927
3 855 851 927
3 927 856 855
3 928 856 927
3 853 858 925
3 925 858 929
3 856 928 859
3 928 930 859
3 858 860 929
3 929 860 931
3 859 930 862
3 930 932 862
3 860 863 931
3 931 863 933
3 934 864 862
3 934 862 935
3 935 862 932
3 864 934 865
3 863 866 933
3 933 866 936
3 937 934 935
3 938 937 935
3 865 937 867
3 934 937 865
3 866 868 936
3 936 868 939
3 870 937 938
3 870 938 871
3 871 938 940
3 867 937 870
3 868 872 939
3 939 872 941
3 942 943 944
3 942 940 943
3 942 874 940
3 874 871 940
3 945 875 946
3 945 941 875
3 941 872 875
3 946 947 948
3 945 946 948
3 947 949 950
3 948 947 950
3 949 951 952
3 950 949 952
3 944 952 951
3 944 951 942
3 942 951 953
3 874 953 877
3 942 953 874
3 946 878 954
3 875 878 946
3 947 946 955
3 955 946 954
3 949 947 956
3 956 947 955
3 951 949 957
3 957 949 956
3 880 957 881
3 880 953 957
3 953 951 957
3 877 953 880
3 954 883 958
3 878 883 954
3 955 954 959
3 959 954 958
3 956 955 960
3 960 955 959
3 957 956 961
3 961 956 960
3 881 961 885
3 957 961 881
3 958 887 962
3 883 887 958
3 959 958 963
3 963 958 962
3 960 959 964
3 964 959 963
3 961 960 965
3 965 960 964
3 885 965 889
3 961 965 885
3 887 890 962
3 893 962 890
3 963 962 893
3 895 963 893
3 964 963 895
3 896 964 895
3 965 964 896
3 889 965 896
3 898 897 966
3 898 967 899
3 966 967 898
3 899 967 900
3 966 901 968
3 897 901 966
3 967 966 969
3 969 966 968
3 900 970 902
3 900 967 970
3 967 969 970
3 902 970 903
3 968 971 972
3 968 901 971
3 901 904 971
3 969 968 972
3 973 969 972
3 970 969 973
3 974 970 973
3 974 903 970
3 974 975 903
3 975 905 903
3 904 906 971
3 971 906 976
3 905 975 907
3 975 977 907
3 906 908 976
3 976 908 978
3 907 977 979
3 909 907 979
3 979 910 909
3 980 910 979
3 908 911 978
3 978 911 981
3 910 980 912
3 980 982 912
3 911 914 981
3 981 914 983
3 912 982 915
3 982 984 915
3 914 985 983
3 916 985 914
3 985 916 917
3 986 985 917
3 915 984 918
3 984 987 918
3 917 988 986
3 919 988 917
3 920 989 990
3 920 990 919
3 919 990 988
3 989 991 992
3 990 989 992
3 921 991 993
3 921 987 991
3 921 918 987
3 992 991 987
3 921 993 922
3 989 923 994
3 920 923 989
3 991 989 995
3 995 989 994
3 993 991 996
3 996 991 995
3 922 996 924
3 993 996 922
3 926 997 998
3 925 997 926
3 994 923 926
3 994 926 999
3 999 926 998
3 995 994 999
3 1000 995 999
3 1000 1001 1002
3 1000 1002 995
3 995 1002 996
3 924 1003 927
3 924 996 1003
3 996 1002 1003
3 927 1003 928
3 925 929 997
3 997 929 1004
3 1005 1002 1001
3 1006 1005 1001
3 1003 1002 1007
3 1007 1002 1005
3 928 1007 930
3 1003 1007 928
3 929 931 1004
3 1004 931 1008
3 1009 1005 1006
3 1010 1009 1006
3 1007 1005 1011
3 1011 1005 1009
3 930 1011 932
3 1007 1011 930
3 931 933 1008
3 1008 933 1012
3 1013 1009 1010
3 1014 1013 1010
3 1011 1009 1015
3 1015 1009 1013
3 932 1015 935
3 1011 1015 932
3 933 936 1012
3 1012 936 1016
3 1017 1013 1014
3 1018 1017 1014
3 1015 1013 1019
3 1019 1013 1017
3 935 1019 938
3 1015 1019 935
3 1020 939 1021
3 1020 1016 939
3 1016 936 939
3 1021 1022 1023
3 1020 1021 1023
3 1022 1024 1025
3 1023 1022 1025
3 1018 1025 1024
3 1018 1024 1017
3 1017 1024 1026
3 1019 1017 1027
3 1027 1017 1026
3 938 1027 940
3 1019 1027 938
3 1021 941 1028
3 939 941 1021
3 1022 1021 1029
3 1029 1021 1028
3 1024 1022 1030
3 1030 1022 1029
3 1026 1024 1031
3 1031 1024 1030
3 943 1031 944
3 943 1027 1031
3 1027 1026 1031
3 940 1027 943
3 941 945 1028
3 948 1028 945
3 1029 1028 948
3 950 1029 948
3 1030 1029 950
3 952 1030 950
3 1031 1030 952
3 944 1031 952
3 972 971 1032
3 972 1033 973
3 1032 1033 972
3 973 1034 974
3 1033 1034 973
3 974 1034 975
3 1032 976 1035
3 971 976 1032
3 1033 1032 1036
3 1036 1032 1035
3 1034 1033 1037
3 1037 1033 1036
3 975 1037 977
3 1034 1037 975
3 1035 978 1038
3 976 978 1035
3 1036 1035 1039
3 1039 1035 1038
3 1037 1036 1040
3 1040 1036 1039
3 977 1041 979
3 977 1037 1041
3 1037 1040 1041
3 979 1041 980
3 1038 981 1042
3 978 981 1038
3 1039 1038 1043
3 1043 1038 1042
3 1040 1039 1044
3 1044 1039 1043
3 1041 1040 1045
3 1045 1040 1044
3 980 1045 982
3 1041 1045 980
3 1042 983 1046
3 981 983 1042
3 1043 1042 1047
3 1047 1042 1046
3 1044 1043 1048
3 1048 1043 1047
3 1045 1044 1049
3 1049 1044 1048
3 982 1049 984
3 1045 1049 982
3 983 985 1046
3 986 1046 985
3 986 1050 1046
3 1050 1047 1046
3 1048 1047 1051
3 1051 1047 1050
3 1049 1048 1052
3 1052 1048 1051
3 984 1052 987
3 1049 1052 984
3 986 988 1050
3 990 1050 988
3 1051 1050 990
3 992 1051 990
3 1052 1051 992
3 987 1052 992
3 998 997 1053
3 998 1054 999
3 1053 1054 998
3 999 1055 1000
3 1054 1055 999
3 1000 1055 1001
3 1053 1004 1056
3 997 1004 1053
3 1054 1053 1057
3 1057 1053 1056
3 1055 1054 1058
3 1058 1054 1057
3 1001 1058 1006
3 1055 1058 1001
3 1056 1008 1059
3 1004 1008 1056
3 1057 1056 1060
3 1060 1056 1059
3 1058 1057 1061
3 1061 1057 1060
3 1006 1061 1010
3 1058 1061 1006
3 1059 1012 1062
3 1008 1012 1059
3 1060 1059 1063
3 1063 1059 1062
3 1061 1060 1064
3 1064 1060 1063
3 1010 1064 1014
3 1061 1064 1010
3 1062 1016 1065
3 1012 1016 1062
3 1063 1062 1066
3 1066 1062 1065
3 1064 1063 1067
3 1067 1063 1066
3 1014 1067 1018
3 1064 1067 1014
3 1016 1020 1065
3 1023 1065 1020
3 1066 1065 1023
3 1025 1066 1023
3 1067 1066 1025
3 1018 1067 1025
