# vtk DataFile Version 3.0
this file was written using fslvtkio
ASCII
DATASET POLYDATA
POINTS 664 float
89.0018 120.198 76.2689
87.1158 119.657 76.4078
88.1244 118.198 76.7593
90.2601 118.521 77.2092
91.062 120.231 76.9617
91.6273 118.934 77.6099
86.8234 121.32 76.2003
84.4236 120.72 76.6609
85.386 119.624 76.4262
88.9624 122.191 76.1758
90.729 121.911 76.3257
92.4548 120.108 77.6116
92.4732 121.715 76.9611
93.3869 120.77 77.8087
93.811 121.756 77.6843
94.4441 120.822 78.3786
86.0308 122.855 76.9794
84.2074 122.25 77.9896
88.1202 123.612 76.4402
90.3543 124.057 76.619
92.2021 123.679 76.7251
93.7717 123.023 77.534
95.0319 121.963 78.444
86.1062 123.723 78.3838
85.5708 122.98 79.5037
87.8659 124.61 77.9895
89.93 125.537 77.5426
92.0709 125.676 77.3068
93.8978 124.86 77.6154
95.2994 123.667 78.4703
87.6453 124.413 79.5871
89.701 125.43 79.3549
91.7782 126.19 79.1095
93.9232 126.189 79.0193
95.2439 125.252 79.0193
86.0146 118.512 76.4867
83.8006 118.275 76.9219
85.6357 117.312 76.6921
87.267 116.639 77.131
89.6432 116.732 77.6292
91.8951 117.577 78.3929
92.709 118.947 78.2667
93.5234 118.107 78.9827
82.7499 120.339 77.7638
93.9441 119.694 78.7617
95.5703 120.324 79.3583
83.4039 121.774 79.6175
96.4346 122.327 79.4824
85.3643 122.477 80.7124
96.4809 124.42 79.7673
87.3681 123.348 80.7854
89.55 124.352 80.8247
91.5637 125.36 80.8437
93.7136 125.99 80.8669
95.8655 125.859 80.8589
86.0517 113.924 78.1094
84.3019 113.442 78.7963
85.7707 112.758 79.1149
87.128 112.452 79.1778
88.1436 113.805 78.497
88.7132 112.882 79.6507
84.6171 115.907 77.4694
82.7423 114.781 78.0962
87.3654 115.265 77.7151
89.5036 113.923 79.2397
89.6059 115.093 78.3796
90.8496 114.513 79.2991
82.3022 116.68 77.7135
80.191 117.023 79.2475
81.1239 115.281 78.8534
91.6588 116.071 78.9688
94.5209 116.709 79.8157
94.8768 118.599 79.3386
96.1165 118.615 80.4104
81.4121 118.669 78.0185
80.1197 118.926 79.8377
96.9892 120.608 80.5169
81.5149 120.331 79.4633
81.169 119.715 81.5651
97.4519 122.003 80.738
97.3958 123.589 80.6131
98.568 122.796 81.5766
82.8872 120.962 81.0497
84.7017 121.554 81.7823
97.2516 124.943 81.1883
98.5238 124.246 82.0237
87.057 122.188 81.6135
89.3119 122.702 81.6214
91.3261 123.721 81.8568
93.2384 124.932 82.1747
95.4491 125.592 82.5886
97.6161 125.38 82.7958
85.7843 111.306 79.9784
84.0917 110.471 80.4998
85.0192 109.687 81.1567
86.9662 109.781 81.1264
88.4537 111.531 80.5107
89.2164 110.066 81.7522
90.7959 111.47 81.3619
91.4727 109.98 82.7772
83.5129 111.803 79.8843
81.8818 110.728 80.7297
83.0348 110.422 80.6331
90.4353 113.124 80.2913
92.9615 111.423 81.8751
92.6604 113.301 81.0104
94.0418 112.655 81.7741
94.4384 113.917 81.2847
95.4364 113.572 82.0463
80.8772 112.39 80.3517
78.9705 112.649 81.545
79.9021 111.036 81.3664
81.9468 113.526 79.1647
92.4654 114.908 79.84
94.2433 114.824 80.4616
96.0482 115.246 81.3975
79.6597 114.492 80.1836
78.4977 114.577 82.3498
97.0847 117.243 81.2965
98.0526 119.576 81.3774
98.6461 118.394 82.1099
99.4218 119.719 82.5379
100.029 118.728 83.1233
79.3369 116.23 81.1913
79.8295 118.072 81.8675
98.5416 121.391 81.7468
99.7603 121.067 82.7803
100.78 120.126 83.8004
81.786 118.924 83.3736
99.9955 122.923 82.7363
101.22 121.969 84.2076
83.2924 120.237 82.5631
85.3223 120.376 82.9976
99.3386 124.384 83.2995
100.877 123.804 84.5431
86.7586 121.226 82.59
88.6226 121.667 82.3521
90.7754 122.09 82.8147
92.715 123.216 83.0945
94.6668 124.261 83.8623
96.8741 124.937 84.3505
98.9306 124.649 84.578
83.4263 107.373 82.0142
81.4699 106.971 82.3634
82.5875 105.885 82.5965
84.603 106.305 82.6728
85.4876 108.043 81.7757
86.594 106.761 83.0251
87.7468 108.444 82.2735
88.725 107.276 83.5281
89.8395 108.742 82.7713
91.0461 108.084 84.101
82.9132 109.021 81.4464
80.82 108.312 82.1892
92.7617 109.034 84.3114
80.7016 109.612 81.6191
78.6432 110.608 83.0335
79.344 108.674 82.6059
93.7378 110.382 83.3326
95.1846 111.773 82.8114
96.8186 113.463 82.7143
77.9963 112.609 83.6878
97.9606 114.626 82.7943
78.835 114.631 84.4801
98.3358 116.049 82.5574
99.4304 117.371 83.0877
101.019 118.41 84.457
79.4314 116.538 83.3824
80.8257 117.734 84.4478
102.122 120.468 85.4616
83.2832 118.216 85.0442
102.113 122.571 86.1292
84.1951 119.42 83.967
85.873 119.493 83.9423
91.2275 121.183 83.8885
90.8098 120.114 84.6074
90.0492 120.745 83.6914
91.9181 120.683 84.8524
100.267 123.665 86.3043
86.9301 120.158 83.342
88.6333 120.499 83.2054
92.291 122.001 84.0632
93.9776 122.791 84.7322
95.991 123.488 85.254
97.9943 124.014 85.9547
84.293 103.319 83.9756
83.0356 101.956 84.4029
84.2983 101.836 84.4946
85.5646 101.982 84.5932
86.4029 103.788 84.2679
87.3616 102.379 85.0168
88.2688 104.436 84.6635
88.8324 102.962 85.6275
89.7629 104.701 85.2345
90.4015 103.813 86.0662
81.959 103.433 83.8677
80.1017 103.42 84.6007
81.2659 102.107 84.8565
83.1699 104.627 83.0868
85.3765 104.942 83.4356
87.4886 105.537 83.7866
89.5889 106.274 84.6429
91.2533 106.027 85.3736
80.8139 105.13 83.3686
78.9908 105.583 84.4316
92.6825 107.71 85.2495
79.7467 107.172 83.2382
78.4752 108.69 84.2964
93.69 108.603 85.5391
78.2725 111.086 85.4566
94.6653 109.58 85.0432
95.8339 110.606 84.5142
97.2285 112.067 83.8735
98.5377 113.81 84.0922
98.546 112.925 85.2619
78.7995 112.905 85.633
99.2659 115.186 84.0856
99.652 114.865 86.1265
80.0036 114.252 86.2285
100.525 116.621 84.9989
102.162 118.539 86.2808
80.3921 116.124 85.2947
82.6461 116.789 86.0333
102.614 120.905 87.4556
84.9248 117.359 86.2546
85.7533 118.357 84.9923
87.9754 118.379 85.3802
86.9416 117.26 86.1537
89.9712 118.467 85.6751
88.9056 117.493 86.4223
91.7274 119.161 85.7141
90.9107 117.407 86.7202
94.0127 119.95 86.4084
93.04 118.334 86.9102
95.9181 120.716 87.0625
95.2401 118.909 87.4746
96.9014 119.629 88.0619
101.018 122.31 87.8734
87.5117 119.306 84.2408
89.4993 119.402 84.4775
93.1473 121.017 85.3982
95.074 121.961 85.9969
97.5049 121.084 87.9129
97.1034 122.468 86.848
99.1036 122.911 87.2141
99.179 121.754 88.2661
84.39 100.405 85.0188
82.8037 99.4026 85.3534
83.9567 98.6489 85.6745
85.6754 98.9068 85.6697
86.5027 100.649 85.3512
87.6062 99.4024 86.1811
88.3617 101.09 85.9624
89.8378 100.332 87.1718
89.699 102.019 86.2585
90.8555 102.187 87.0239
82.1503 100.713 85.0564
80.1695 100.966 85.8957
81.1765 99.3517 85.6872
91.637 104.077 86.507
79.1993 102.839 86.0407
92.4816 105.086 86.3008
92.9921 106.515 86.2065
93.6118 105.273 87.1346
78.9634 104.866 86.0222
79.0153 105.375 87.1999
79.1813 103.855 87.087
93.661 107.956 86.6093
93.6739 107.005 87.4998
78.5431 106.866 85.6887
78.8116 107.082 87.3768
94.7489 109.09 86.4974
94.7276 109.22 88.111
78.4488 108.996 86.3332
79.3687 108.642 87.9533
96.0385 110.085 86.9008
97.4054 111.28 85.8127
98.4762 112.922 86.6837
79.5222 110.471 87.3317
80.3557 112.198 87.2474
98.8529 114.245 87.6937
81.7241 113.569 87.1639
101.098 116.874 87.2551
99.4878 115.839 88.2993
81.6982 115.331 86.6166
83.3101 115.612 87.3286
92.7454 116.529 87.389
92.3949 115.194 87.6833
91.1275 115.421 87.2459
94.7813 117.161 87.738
93.6321 115.507 88.0379
97.0818 117.991 88.5682
95.5792 116.064 88.4991
99.6887 118.211 88.7678
97.6678 116.312 89.0261
101.655 119.129 88.0719
84.4859 116.32 87.1203
86.4189 115.987 87.0235
88.8842 116.042 87.0894
98.6469 119.875 88.7256
100.761 120.508 88.7801
85.494 95.6659 87.3375
83.8022 95.1189 87.4288
84.6855 93.7998 88.1257
87.0826 94.7247 88.0591
87.4911 96.4934 87.2496
88.5195 95.8796 88.2477
89.1912 97.4494 87.7942
90.1997 96.6306 88.6826
83.4475 96.3604 86.7904
81.6013 96.8688 87.3406
82.5864 95.5142 87.4655
84.6952 97.4874 86.4741
86.5085 97.6341 86.6
88.4838 98.4032 86.9665
90.7012 98.2031 88.5468
90.1155 98.9887 87.9065
91.9937 99.7254 88.7401
82.3565 97.906 86.2654
80.434 98.791 87.1559
91.7497 101.201 87.9213
92.2652 102.887 87.4388
93.2618 102.125 88.1518
79.5419 100.648 87.9287
92.9972 104.026 87.0578
93.805 103.645 88.0741
79.1317 102.385 87.7011
79.2618 103.703 88.443
79.6111 101.925 89.2669
93.796 105.32 88.4518
79.4995 105.362 88.6385
93.2263 107.58 88.4333
79.9061 106.889 88.8301
93.2292 109.175 88.9784
80.5049 108.079 89.0442
96.1077 111.091 89.1116
94.1901 110.595 89.5159
97.3714 111.4 87.5258
80.5431 109.565 88.6164
82.8037 112.339 88.0938
81.538 110.798 88.6534
83.1144 111.182 89.1076
94.45 112.6 89.3369
93.2703 111.391 89.5479
92.3987 112.215 89.2028
96.4752 113.117 89.4164
97.7437 112.785 88.477
83.3646 113.986 87.6134
84.442 111.657 88.6299
85.0903 113.299 88.1206
85.8538 111.842 88.1365
92.2993 113.725 88.2219
91.265 112.504 88.6149
90.2981 112.765 88.1317
94.3125 114.503 88.6152
95.9982 114.579 89.2891
97.8131 114.586 88.9666
85.1612 114.813 87.6511
86.7836 112.947 87.8192
87.4697 114.411 87.5002
89.8387 114.201 87.4832
88.4265 112.729 87.7521
83.0323 94.3527 88.0168
81.7687 95.2383 88.4414
82.5746 93.3396 88.9542
84.2987 92.0232 89.2083
86.6402 93.1762 88.8217
89.2431 94.6397 89.0538
91.193 96.4283 89.508
80.7622 96.8644 88.7136
92.1325 98.1594 89.2506
94.3526 99.2326 89.809
80.3109 98.6862 89.3242
93.7198 100.908 88.7715
94.5767 102.515 89.2028
80.4774 100.386 90.5127
94.0799 103.93 89.6018
80.2539 103.66 89.7776
80.7132 102.248 90.7685
93.0927 105.567 89.2221
80.8473 105.219 89.9546
92.2339 106.82 89.0349
92.0582 105.542 89.7327
91.0766 106.639 89.5424
81.1358 106.782 89.9575
91.9228 108.225 89.0084
90.7283 108.178 89.3293
81.3891 107.707 89.6794
81.2931 108.631 89.115
82.1029 108.19 89.6767
91.9768 110.289 89.1453
90.4613 109.442 89.0793
82.0006 109.361 89.3542
84.0973 110.689 89.1796
83.4505 109.745 89.3535
84.8016 109.86 89.0869
90.5035 111.138 88.8885
89.1685 109.354 89.3022
88.7248 110.191 88.7865
87.3271 111.498 88.1248
85.8717 110.609 88.6327
88.8746 111.473 88.363
87.3896 110.088 88.6833
86.3619 91.6807 89.8706
84.1844 91.0228 90.8624
86.5565 90.5563 90.9787
88.6831 91.6185 90.6635
88.4758 92.8454 89.5387
90.4514 93.0479 90.7713
89.8507 93.7181 89.9224
91.2639 94.4916 90.4774
81.55 94.7303 90.1728
82.5198 92.3419 90.6265
91.9363 95.8683 90.2339
93.0739 97.3976 89.9426
94.8707 97.0811 90.5916
81.0567 96.6705 90.4834
96.4217 99.0055 90.9454
81.313 98.1523 91.2725
95.245 101.176 90.0061
95.0984 100.778 91.7312
82.2342 99.5455 92.0508
94.0375 102.705 90.9596
92.9728 101.867 91.8697
81.9522 103.638 90.9171
81.9762 101.487 91.8643
91.9825 103.573 91.2484
91.3152 102.31 91.6052
90.3463 103.249 91.2627
92.8107 104.323 90.2367
82.3969 105.506 90.5407
83.3357 103.225 91.7766
84.046 104.828 91.0376
86.0197 104.939 91.152
85.0498 103.418 91.7063
87.9834 104.905 91.2367
86.8095 103.261 91.5692
90.032 104.754 90.9358
88.7976 103.302 91.4454
91.2794 105.094 90.1418
82.3427 107.227 90.3523
83.772 106.708 90.4733
85.4452 106.461 90.719
87.0644 106.352 90.9823
88.8244 106.481 90.8441
90.2587 106.566 90.3465
83.1579 108.213 89.9479
84.7724 108.235 89.8733
86.3764 107.766 90.2792
87.8571 107.674 90.5827
89.3235 108.108 90.068
86.1558 109.026 89.2251
87.7054 108.849 89.6466
84.7489 90.1273 92.2011
86.8298 89.624 91.8456
88.8531 90.3386 91.4107
90.92 91.7222 91.501
92.8219 93.6244 91.6093
93.337 95.3012 90.8316
95.2344 95.4166 91.5527
82.348 93.7762 91.8655
83.314 92.0239 92.7815
97.1454 97.4191 91.5568
82.23 95.9821 92.1532
83.5497 94.3481 93.0633
95.2279 98.9574 93.1201
82.9394 97.6363 92.7638
93.1067 100.329 92.5608
83.5455 99.0095 93.0232
83.6823 100.621 92.848
84.8755 99.3244 93.1955
89.6704 100.751 92.0114
89.5998 99.3818 92.158
88.3371 100.193 92.2337
91.402 101.052 91.9451
91.2104 99.6678 92.3514
83.9449 102.19 92.3189
85.3997 100.275 92.7937
85.8134 101.703 92.2395
87.8054 101.668 91.8475
87.0147 100.16 92.4524
89.7239 102.004 91.5025
88.1813 88.803 92.1411
85.9734 88.9244 92.9572
87.3963 87.9294 93.7462
89.6364 88.4236 92.9545
90.7291 89.7785 91.9621
91.7358 89.2899 93.0758
92.7806 91.5864 92.3905
93.8132 90.8409 93.4343
94.9379 93.4423 92.4328
95.4204 92.1808 93.5287
96.7209 93.7515 92.826
97.0218 92.7431 93.4965
84.7382 90.4106 93.8242
97.3755 95.4284 92.1302
98.0062 94.7531 93.5375
84.6834 92.0896 94.5537
96.7274 97.567 93.4515
97.5743 96.4203 93.7395
84.4425 96.1436 93.701
85.1507 93.8842 94.0978
91.9132 97.1336 93.5983
91.6911 95.3457 94.1396
90.1804 96.2823 93.7431
93.6063 97.9926 93.55
94.2574 96.7478 93.9038
96.0282 96.4194 94.4252
84.9756 97.8167 93.3032
86.3692 95.5561 94.073
86.8977 97.2119 93.4592
89.2012 97.2665 93.2485
88.2357 96.0213 93.9334
90.5532 98.5609 92.8805
92.7533 98.9016 93.0626
86.3905 98.7435 92.9095
88.2706 98.5181 92.4793
92.6655 89.0757 94.0525
91.2346 87.9662 94.0957
92.1336 87.3401 94.8314
93.4407 88.2377 94.6335
93.8882 89.6521 94.1796
94.4422 89.1082 94.6406
85.8174 89.0487 94.7981
87.1846 87.8315 95.5802
89.4043 87.7773 94.4318
95.1454 90.5438 94.0497
96.6821 91.0982 94.441
98.1802 92.9742 94.118
97.9834 91.6781 94.8024
85.8752 91.0348 95.5489
98.1375 94.4768 95.0808
98.3867 92.9939 95.4665
86.2919 92.6411 95.5377
96.7321 93.0782 96.0278
96.7761 95.1832 94.9499
87.0739 93.6945 95.021
87.5185 94.5984 94.2934
89.5418 95.0859 94.1558
89.3286 94.3446 95.2442
91.1564 94.2462 95.4403
92.9029 94.5243 94.8624
94.7005 95.1511 94.7836
90.616 87.4349 95.5915
91.9468 86.9335 96.1809
93.2607 87.0774 95.4531
94.5093 87.9095 95.1491
95.5453 89.6874 94.6834
95.6764 88.7822 95.149
96.2514 89.7729 94.8794
96.807 89.3171 95.2521
86.8281 89.8242 96.4315
87.5054 88.4983 97.0875
88.8663 87.5537 96.3596
98.1274 90.2889 95.223
98.7785 91.6071 95.6232
99.2134 90.5574 95.6901
99.5833 91.2501 96.0913
100.067 90.3761 96.295
87.6969 91.7558 96.5746
88.3303 90.2431 97.4081
98.1346 92.3321 96.3173
98.802 91.6351 96.6499
99.9503 90.9957 96.833
88.0256 93.2 95.958
89.6302 91.5534 97.1365
89.7488 93.1934 96.5321
91.926 93.3991 96.0771
91.1551 92.3755 96.8756
93.7375 93.5499 95.7652
92.901 92.0037 96.4715
95.3647 93.8977 95.5416
94.8357 92.297 96.262
96.1899 91.8808 96.8626
97.628 91.7194 97.0579
99.0233 91.1989 97.4035
90.8083 87.297 97.2187
92.0318 86.9093 97.1672
93.0135 86.8984 96.6953
94.4073 87.0305 96.1337
95.6635 87.9261 95.7352
96.6106 88.1908 96.2552
88.289 88.4263 98.0936
89.3257 87.4685 98.0276
98.0641 88.6451 96.1216
99.3786 89.628 96.2472
100.439 90.0658 96.9181
88.9849 89.5439 98.5052
100.08 90.7192 97.6467
89.8256 90.455 98.0944
91.302 91.2407 97.7384
92.7895 91.0862 97.5035
92.3339 90.491 98.4793
94.1197 91.1294 97.1815
95.3357 91.1932 97.2004
96.6147 91.2652 97.6345
97.5584 90.9175 97.9167
98.6697 90.5936 98.0593
93.6746 90.6313 98.1944
94.9562 90.6113 98.0067
96.0361 90.7224 98.0741
96.9254 90.7931 98.3723
91.7862 87.0725 97.7463
92.7355 86.9291 97.7819
94.1217 86.936 97.5544
95.5268 87.1403 96.8124
89.2911 88.4506 99.0939
90.4697 87.6312 98.7212
91.8901 87.249 98.5362
93.5767 87.2164 98.7598
95.2955 87.0049 98.1648
96.8772 87.5673 97.3356
98.3298 87.7468 97.3057
99.381 88.4842 97.0121
100.245 89.1329 97.1988
100.885 90.0671 97.8268
100.66 89.1314 98.1704
89.8274 89.6583 99.141
90.3171 88.8113 99.8891
99.9527 90.4219 98.4877
100.688 89.9546 98.9878
90.9751 90.2192 98.9564
92.0489 90.1027 99.4309
98.2507 90.0836 99.2069
97.6079 90.482 98.8319
99.2903 90.0371 99.0963
93.1289 90.1935 99.0709
94.354 90.2371 98.9542
95.477 90.2635 98.8959
96.5584 90.4387 99.0061
91.2156 87.8559 100.027
92.58 87.5381 99.9851
93.8324 87.4898 99.8757
94.804 87.267 99.3993
96.1858 87.2608 98.906
97.5611 87.4529 98.3462
98.9125 87.8258 98.066
100.026 88.29 97.9291
100.661 88.8529 99.2247
91.3019 89.3629 100.108
92.116 88.6187 100.62
93.4247 88.2777 100.531
99.9979 89.6066 99.7202
92.4608 89.734 100.323
93.3505 89.3222 100.752
97.7356 89.8182 100.109
97.1306 90.1991 99.6835
98.8161 89.6683 100.044
93.6836 89.9996 99.9502
94.8979 90.0773 99.7615
96.0176 90.1821 99.9229
94.7107 87.8878 100.406
95.8817 87.5619 100.169
97.1364 87.598 99.6733
98.4776 87.9518 99.3161
99.7417 88.1814 98.9003
94.4898 88.9699 100.689
95.6279 88.63 100.598
96.7129 88.359 100.347
97.8852 88.741 100.2
99.4083 88.6639 99.9369
94.3389 89.7532 100.515
95.3923 89.6878 100.517
96.6026 89.4801 100.436
POLYGONS 1324  5296
3 0 1 2
3 0 3 4
3 2 3 0
3 3 5 4
3 6 7 8
3 1 6 8
3 1 0 6
3 0 9 6
3 4 10 0
3 10 9 0
3 11 4 5
3 11 12 4
3 12 10 4
3 12 13 14
3 11 13 12
3 13 15 14
3 16 7 6
3 17 7 16
3 9 18 6
3 18 16 6
3 10 19 9
3 19 18 9
3 12 20 10
3 20 19 10
3 14 21 12
3 21 20 12
3 22 14 15
3 21 14 22
3 23 17 16
3 24 17 23
3 18 25 16
3 25 23 16
3 19 26 18
3 26 25 18
3 20 27 19
3 27 26 19
3 21 28 20
3 28 27 20
3 29 21 22
3 28 21 29
3 23 30 24
3 25 30 23
3 31 30 25
3 26 31 25
3 32 31 26
3 27 32 26
3 33 32 27
3 28 33 27
3 34 33 28
3 29 34 28
3 35 36 37
3 35 2 1
3 35 37 2
3 37 38 2
3 3 2 39
3 2 38 39
3 5 40 41
3 5 3 40
3 3 39 40
3 40 42 41
3 8 36 35
3 8 7 36
3 7 43 36
3 1 8 35
3 5 41 11
3 41 42 44
3 41 44 11
3 11 44 13
3 44 15 13
3 45 15 44
3 7 17 43
3 43 17 46
3 15 45 22
3 45 47 22
3 17 24 46
3 46 24 48
3 22 47 29
3 47 49 29
3 24 50 48
3 30 50 24
3 31 51 30
3 30 51 50
3 32 52 31
3 31 52 51
3 33 53 32
3 32 53 52
3 34 54 33
3 33 54 53
3 49 34 29
3 54 34 49
3 55 56 57
3 55 58 59
3 57 58 55
3 58 60 59
3 61 56 55
3 62 56 61
3 59 63 55
3 63 61 55
3 64 59 60
3 64 65 59
3 65 63 59
3 64 66 65
3 67 68 69
3 62 67 69
3 61 67 62
3 61 36 67
3 61 37 36
3 38 37 61
3 63 38 61
3 39 38 63
3 65 39 63
3 65 66 70
3 65 70 39
3 39 70 40
3 42 71 72
3 42 40 71
3 40 70 71
3 71 73 72
3 74 68 67
3 75 68 74
3 36 43 74
3 67 36 74
3 42 72 44
3 72 45 44
3 72 73 45
3 73 76 45
3 77 75 74
3 78 75 77
3 43 46 77
3 74 43 77
3 79 80 47
3 79 47 76
3 76 47 45
3 79 81 80
3 77 82 78
3 82 77 46
3 82 46 83
3 83 46 48
3 80 84 49
3 47 80 49
3 85 80 81
3 84 80 85
3 48 86 83
3 50 86 48
3 51 87 50
3 50 87 86
3 52 88 51
3 51 88 87
3 53 89 52
3 52 89 88
3 54 90 53
3 53 90 89
3 84 54 49
3 84 91 54
3 91 90 54
3 85 91 84
3 92 93 94
3 92 95 96
3 94 95 92
3 96 97 98
3 95 97 96
3 97 99 98
3 100 101 102
3 93 100 102
3 92 100 93
3 92 56 100
3 92 57 56
3 58 57 92
3 96 58 92
3 60 58 96
3 60 96 103
3 103 96 98
3 104 98 99
3 104 105 98
3 105 103 98
3 105 106 107
3 104 106 105
3 106 108 107
3 109 110 111
3 101 109 111
3 101 100 109
3 100 112 109
3 56 62 112
3 100 56 112
3 60 103 64
3 66 64 103
3 66 103 113
3 113 103 105
3 107 114 105
3 114 113 105
3 115 107 108
3 114 107 115
3 116 110 109
3 117 110 116
3 69 68 116
3 69 116 112
3 112 116 109
3 62 69 112
3 66 113 70
3 71 70 113
3 114 71 113
3 73 118 119
3 71 118 73
3 71 115 118
3 71 114 115
3 119 120 121
3 118 120 119
3 120 122 121
3 116 123 117
3 123 116 68
3 123 68 124
3 124 68 75
3 119 125 76
3 73 119 76
3 121 126 119
3 126 125 119
3 127 121 122
3 126 121 127
3 75 78 124
3 124 78 128
3 76 125 79
3 81 79 125
3 81 125 129
3 129 125 126
3 130 126 127
3 129 126 130
3 78 131 128
3 82 131 78
3 131 82 83
3 132 131 83
3 129 133 85
3 81 129 85
3 134 129 130
3 133 129 134
3 83 135 132
3 86 135 83
3 87 136 86
3 86 136 135
3 88 137 87
3 87 137 136
3 89 138 88
3 88 138 137
3 90 139 89
3 89 139 138
3 91 140 90
3 90 140 139
3 133 91 85
3 133 141 91
3 141 140 91
3 134 141 133
3 142 143 144
3 142 145 146
3 144 145 142
3 146 147 148
3 145 147 146
3 148 149 150
3 147 149 148
3 149 151 150
3 152 143 142
3 153 143 152
3 94 93 152
3 94 152 146
3 146 152 142
3 95 94 146
3 148 95 146
3 97 95 148
3 150 97 148
3 150 99 97
3 150 151 99
3 151 154 99
3 155 156 157
3 153 155 157
3 152 155 153
3 152 101 155
3 152 102 101
3 93 102 152
3 99 154 158
3 104 99 158
3 106 104 159
3 104 158 159
3 159 108 106
3 160 108 159
3 111 156 155
3 111 110 156
3 110 161 156
3 101 111 155
3 108 160 115
3 160 162 115
3 110 117 161
3 161 117 163
3 115 162 164
3 118 115 164
3 120 118 165
3 118 164 165
3 165 122 120
3 166 122 165
3 117 167 163
3 123 167 117
3 167 123 124
3 168 167 124
3 122 166 127
3 166 169 127
3 124 128 168
3 168 128 170
3 127 169 130
3 169 171 130
3 128 172 170
3 131 172 128
3 172 131 132
3 173 172 132
3 174 175 176
3 175 174 177
3 130 171 134
3 171 178 134
3 132 179 173
3 135 179 132
3 136 180 135
3 135 180 179
3 176 137 174
3 176 180 137
3 180 136 137
3 174 181 177
3 174 137 181
3 137 138 181
3 139 182 138
3 138 182 181
3 140 183 139
3 139 183 182
3 141 184 140
3 140 184 183
3 178 141 134
3 184 141 178
3 185 186 187
3 185 188 189
3 187 188 185
3 189 190 191
3 188 190 189
3 191 192 193
3 190 192 191
3 192 194 193
3 195 196 197
3 186 195 197
3 186 185 195
3 185 198 195
3 189 199 185
3 199 198 185
3 191 200 189
3 200 199 189
3 193 201 191
3 201 200 191
3 202 193 194
3 201 193 202
3 203 196 195
3 204 196 203
3 144 143 203
3 144 203 198
3 198 203 195
3 145 144 198
3 199 145 198
3 147 145 199
3 200 147 199
3 149 147 200
3 201 149 200
3 201 151 149
3 201 202 151
3 202 205 151
3 206 204 203
3 207 204 206
3 143 153 206
3 203 143 206
3 151 205 154
3 205 208 154
3 157 207 206
3 157 156 207
3 156 209 207
3 153 157 206
3 154 208 210
3 158 154 210
3 159 158 211
3 158 210 211
3 160 212 213
3 160 159 212
3 159 211 212
3 212 214 213
3 156 161 209
3 209 161 215
3 213 216 162
3 160 213 162
3 217 213 214
3 216 213 217
3 161 163 215
3 215 163 218
3 162 216 164
3 216 217 219
3 216 219 164
3 164 219 165
3 219 166 165
3 220 166 219
3 163 221 218
3 167 221 163
3 221 167 168
3 222 221 168
3 166 220 169
3 220 223 169
3 224 170 225
3 224 222 170
3 222 168 170
3 225 226 227
3 224 225 227
3 226 228 229
3 227 226 229
3 228 230 231
3 229 228 231
3 230 232 233
3 231 230 233
3 232 234 235
3 233 232 235
3 235 234 236
3 169 223 171
3 223 237 171
3 170 172 225
3 173 225 172
3 173 238 225
3 238 226 225
3 228 226 239
3 239 226 238
3 175 239 176
3 175 230 239
3 230 228 239
3 177 230 175
3 177 240 230
3 240 232 230
3 234 232 241
3 241 232 240
3 242 236 234
3 242 234 243
3 243 234 241
3 243 244 245
3 242 243 245
3 244 237 245
3 244 178 237
3 178 171 237
3 173 179 238
3 180 238 179
3 239 238 180
3 176 239 180
3 177 181 240
3 182 240 181
3 241 240 182
3 183 241 182
3 243 241 183
3 184 243 183
3 244 243 184
3 178 244 184
3 246 247 248
3 246 249 250
3 248 249 246
3 250 251 252
3 249 251 250
3 252 253 254
3 251 253 252
3 253 255 254
3 256 257 258
3 247 256 258
3 246 256 247
3 246 186 256
3 246 187 186
3 188 187 246
3 250 188 246
3 190 188 250
3 252 190 250
3 192 190 252
3 254 192 252
3 254 194 192
3 254 255 194
3 255 259 194
3 197 257 256
3 197 196 257
3 196 260 257
3 186 197 256
3 261 262 202
3 261 202 259
3 259 202 194
3 261 263 262
3 264 265 266
3 264 266 260
3 264 260 204
3 204 260 196
3 262 267 205
3 202 262 205
3 268 262 263
3 267 262 268
3 269 265 264
3 270 265 269
3 204 207 269
3 264 204 269
3 267 271 208
3 205 267 208
3 272 267 268
3 271 267 272
3 273 270 269
3 274 270 273
3 207 209 273
3 269 207 273
3 208 271 210
3 271 272 275
3 271 275 210
3 210 275 211
3 212 211 276
3 211 275 276
3 276 214 212
3 277 214 276
3 273 278 274
3 278 273 209
3 278 209 279
3 279 209 215
3 214 277 217
3 277 280 217
3 215 218 279
3 279 218 281
3 282 219 217
3 282 217 283
3 283 217 280
3 219 282 220
3 218 284 281
3 221 284 218
3 284 221 222
3 285 284 222
3 286 287 288
3 286 289 290
3 287 286 290
3 289 291 292
3 290 289 292
3 291 293 294
3 292 291 294
3 283 294 293
3 283 293 282
3 282 293 295
3 220 295 223
3 282 295 220
3 222 296 285
3 224 296 222
3 227 297 224
3 224 297 296
3 229 298 227
3 227 298 297
3 288 231 286
3 288 298 231
3 298 229 231
3 233 286 231
3 289 286 233
3 235 289 233
3 291 289 235
3 236 291 235
3 236 299 291
3 299 293 291
3 295 293 300
3 300 293 299
3 223 300 237
3 295 300 223
3 236 242 299
3 245 299 242
3 300 299 245
3 237 300 245
3 301 302 303
3 301 304 305
3 303 304 301
3 305 306 307
3 304 306 305
3 306 308 307
3 309 310 311
3 302 309 311
3 302 301 309
3 301 312 309
3 305 313 301
3 313 312 301
3 307 314 305
3 314 313 305
3 315 307 308
3 315 316 307
3 316 314 307
3 315 317 316
3 318 310 309
3 319 310 318
3 248 247 318
3 248 318 312
3 312 318 309
3 249 248 312
3 313 249 312
3 251 249 313
3 314 251 313
3 253 251 314
3 316 253 314
3 255 320 321
3 253 320 255
3 253 317 320
3 253 316 317
3 320 322 321
3 258 319 318
3 258 257 319
3 257 323 319
3 247 258 318
3 321 324 259
3 255 321 259
3 325 321 322
3 324 321 325
3 326 327 328
3 326 328 323
3 326 323 260
3 260 323 257
3 259 324 261
3 324 263 261
3 324 325 263
3 325 329 263
3 266 327 326
3 266 265 327
3 265 330 327
3 260 266 326
3 263 329 268
3 329 331 268
3 265 270 330
3 330 270 332
3 268 331 272
3 331 333 272
3 270 274 332
3 332 274 334
3 335 275 272
3 335 272 336
3 336 272 333
3 275 337 276
3 335 337 275
3 276 337 277
3 274 338 334
3 278 338 274
3 279 339 340
3 279 340 278
3 278 340 338
3 340 339 341
3 342 343 344
3 336 343 342
3 336 342 335
3 335 342 345
3 337 335 346
3 346 335 345
3 277 346 280
3 337 346 277
3 339 281 347
3 279 281 339
3 348 341 339
3 348 339 349
3 349 339 347
3 348 349 350
3 351 352 353
3 344 352 351
3 344 351 342
3 342 351 354
3 345 342 355
3 355 342 354
3 346 345 356
3 356 345 355
3 280 356 283
3 346 356 280
3 281 284 347
3 285 347 284
3 285 357 347
3 357 349 347
3 358 350 349
3 358 349 359
3 359 349 357
3 359 360 361
3 358 359 361
3 353 361 360
3 351 353 360
3 351 360 288
3 351 288 287
3 290 351 287
3 354 351 290
3 292 354 290
3 355 354 292
3 294 355 292
3 356 355 294
3 283 356 294
3 285 296 357
3 297 357 296
3 359 357 297
3 298 359 297
3 360 359 298
3 288 360 298
3 362 363 364
3 362 303 302
3 362 364 303
3 364 365 303
3 304 303 366
3 303 365 366
3 306 304 367
3 304 366 367
3 367 308 306
3 368 308 367
3 311 363 362
3 311 310 363
3 310 369 363
3 302 311 362
3 308 368 370
3 315 308 370
3 370 317 315
3 371 317 370
3 310 319 369
3 369 319 372
3 317 371 373
3 320 317 373
3 373 322 320
3 374 322 373
3 319 323 372
3 372 323 375
3 322 374 325
3 374 376 325
3 328 377 378
3 327 377 328
3 375 323 328
3 378 375 328
3 325 376 329
3 376 379 329
3 327 330 377
3 377 330 380
3 381 382 383
3 381 379 382
3 381 331 379
3 331 329 379
3 330 332 380
3 380 332 384
3 385 381 383
3 386 385 383
3 331 385 333
3 381 385 331
3 387 334 388
3 387 384 334
3 384 332 334
3 387 388 389
3 390 385 386
3 391 390 386
3 333 390 336
3 385 390 333
3 334 338 388
3 388 392 389
3 388 338 392
3 338 340 392
3 341 393 394
3 341 394 340
3 340 394 392
3 394 393 395
3 396 397 398
3 391 397 396
3 390 391 396
3 390 396 344
3 390 344 343
3 336 390 343
3 341 348 393
3 350 399 400
3 348 350 400
3 348 400 395
3 348 395 393
3 399 401 402
3 400 399 402
3 398 402 401
3 396 398 401
3 396 401 353
3 396 353 352
3 344 396 352
3 350 358 399
3 361 399 358
3 401 399 361
3 353 401 361
3 403 404 405
3 403 406 407
3 405 406 403
3 407 408 409
3 406 408 407
3 408 410 409
3 364 411 412
3 363 411 364
3 404 403 365
3 404 365 412
3 412 365 364
3 366 365 403
3 407 366 403
3 367 366 407
3 409 367 407
3 368 413 414
3 367 413 368
3 367 410 413
3 367 409 410
3 413 415 414
3 363 369 411
3 411 369 416
3 368 414 370
3 414 371 370
3 414 415 371
3 415 417 371
3 369 372 416
3 416 372 418
3 419 373 371
3 419 371 420
3 420 371 417
3 373 419 374
3 372 375 418
3 418 375 421
3 422 419 420
3 423 422 420
3 374 422 376
3 419 422 374
3 378 377 424
3 378 424 425
3 378 425 375
3 375 425 421
3 426 427 428
3 423 427 426
3 423 426 422
3 422 426 429
3 376 429 379
3 422 429 376
3 424 380 430
3 377 380 424
3 431 425 424
3 431 424 432
3 432 424 430
3 432 433 434
3 431 432 434
3 433 435 436
3 434 433 436
3 435 437 438
3 436 435 438
3 428 438 437
3 428 437 426
3 426 437 439
3 382 439 383
3 382 429 439
3 429 426 439
3 379 429 382
3 430 384 440
3 380 384 430
3 432 430 441
3 441 430 440
3 433 432 442
3 442 432 441
3 435 433 443
3 443 433 442
3 437 435 444
3 444 435 443
3 439 437 445
3 445 437 444
3 383 445 386
3 439 445 383
3 384 387 440
3 389 440 387
3 389 446 440
3 446 441 440
3 442 441 447
3 447 441 446
3 443 442 448
3 448 442 447
3 444 443 449
3 449 443 448
3 445 444 450
3 450 444 449
3 386 450 391
3 445 450 386
3 389 392 446
3 394 446 392
3 447 446 394
3 395 447 394
3 395 451 447
3 451 448 447
3 449 448 452
3 452 448 451
3 397 452 398
3 397 450 452
3 450 449 452
3 391 450 397
3 395 400 451
3 402 451 400
3 452 451 402
3 398 452 402
3 405 453 454
3 404 453 405
3 406 405 455
3 405 454 455
3 408 406 456
3 406 455 456
3 410 457 458
3 410 408 457
3 408 456 457
3 457 459 458
3 412 411 460
3 412 460 461
3 412 461 404
3 404 461 453
3 410 458 413
3 458 415 413
3 458 459 415
3 459 462 415
3 460 463 464
3 460 411 463
3 411 416 463
3 461 460 464
3 415 462 417
3 462 465 417
3 416 418 463
3 463 418 466
3 417 465 420
3 465 467 420
3 468 421 469
3 468 466 421
3 466 418 421
3 468 469 470
3 471 472 473
3 471 474 475
3 472 471 475
3 474 467 475
3 474 423 467
3 423 420 467
3 469 425 476
3 421 425 469
3 477 470 469
3 477 469 478
3 478 469 476
3 478 479 480
3 477 478 480
3 473 480 479
3 473 479 471
3 471 479 481
3 427 481 428
3 427 474 481
3 474 471 481
3 423 474 427
3 425 431 476
3 434 476 431
3 478 476 434
3 436 478 434
3 479 478 436
3 438 479 436
3 481 479 438
3 428 481 438
3 482 483 484
3 482 485 486
3 484 485 482
3 486 487 488
3 485 487 486
3 488 489 490
3 487 489 488
3 490 491 492
3 489 491 490
3 491 493 492
3 454 483 482
3 454 453 483
3 453 494 483
3 455 454 482
3 486 455 482
3 456 455 486
3 488 456 486
3 457 456 488
3 490 457 488
3 459 457 490
3 459 490 495
3 495 490 492
3 496 492 493
3 495 492 496
3 453 461 494
3 494 461 497
3 495 498 462
3 459 495 462
3 499 495 496
3 498 495 499
3 464 463 500
3 464 500 501
3 464 501 461
3 461 501 497
3 502 503 504
3 502 505 506
3 503 502 506
3 498 507 506
3 498 506 465
3 498 465 462
3 465 506 505
3 499 507 498
3 500 466 508
3 463 466 500
3 509 501 500
3 509 500 510
3 510 500 508
3 510 511 512
3 509 510 512
3 504 512 511
3 504 511 502
3 502 511 513
3 505 502 514
3 514 502 513
3 465 514 467
3 505 514 465
3 466 468 508
3 470 508 468
3 470 515 508
3 515 510 508
3 511 510 516
3 516 510 515
3 472 516 473
3 472 513 516
3 513 511 516
3 475 513 472
3 514 513 475
3 467 514 475
3 470 477 515
3 480 515 477
3 516 515 480
3 473 516 480
3 517 518 519
3 517 520 521
3 519 520 517
3 520 522 521
3 484 523 524
3 483 523 484
3 485 484 525
3 484 524 525
3 518 517 487
3 518 487 525
3 525 487 485
3 489 487 517
3 521 489 517
3 521 522 526
3 521 526 489
3 489 526 491
3 493 527 528
3 493 491 527
3 491 526 527
3 527 529 528
3 483 494 523
3 523 494 530
3 528 531 496
3 493 528 496
3 532 528 529
3 531 528 532
3 494 497 530
3 530 497 533
3 531 534 535
3 531 535 496
3 496 535 499
3 532 534 531
3 536 501 537
3 536 533 501
3 533 497 501
3 537 538 539
3 536 537 539
3 538 504 503
3 538 503 539
3 539 503 540
3 506 541 503
3 503 541 540
3 507 542 506
3 506 542 541
3 535 507 499
3 542 507 535
3 501 509 537
3 512 537 509
3 538 537 512
3 504 538 512
3 519 543 544
3 518 543 519
3 520 519 545
3 519 544 545
3 522 546 547
3 522 520 546
3 520 545 546
3 547 548 549
3 546 548 547
3 548 550 549
3 524 523 551
3 552 524 551
3 552 553 524
3 553 525 524
3 543 518 525
3 553 543 525
3 522 547 526
3 527 526 547
3 549 527 547
3 529 554 555
3 527 554 529
3 527 550 554
3 527 549 550
3 555 556 557
3 554 556 555
3 556 558 557
3 551 530 559
3 523 530 551
3 560 552 551
3 559 560 551
3 555 561 532
3 529 555 532
3 557 562 555
3 562 561 555
3 563 557 558
3 562 557 563
3 559 533 564
3 530 533 559
3 565 560 559
3 565 559 566
3 566 559 564
3 566 567 568
3 565 566 568
3 567 569 570
3 568 567 570
3 569 571 572
3 570 569 572
3 571 535 534
3 571 534 572
3 572 534 573
3 561 534 532
3 561 574 534
3 574 573 534
3 562 574 561
3 575 574 562
3 563 575 562
3 533 536 564
3 539 564 536
3 566 564 539
3 540 566 539
3 567 566 540
3 541 567 540
3 569 567 541
3 542 569 541
3 571 569 542
3 535 571 542
3 544 576 577
3 543 576 544
3 545 544 578
3 544 577 578
3 546 545 579
3 545 578 579
3 548 546 580
3 546 579 580
3 580 550 548
3 581 550 580
3 553 582 583
3 552 582 553
3 576 543 553
3 583 576 553
3 550 581 584
3 554 550 584
3 556 554 585
3 554 584 585
3 585 558 556
3 586 558 585
3 552 560 582
3 582 560 587
3 558 586 563
3 586 588 563
3 560 589 587
3 565 589 560
3 568 590 565
3 565 590 589
3 591 592 590
3 591 590 570
3 570 590 568
3 570 572 593
3 591 570 593
3 572 573 594
3 593 572 594
3 573 574 595
3 594 573 595
3 596 595 574
3 596 574 597
3 597 574 575
3 588 575 563
3 597 575 588
3 591 598 592
3 593 598 591
3 599 598 593
3 594 599 593
3 600 599 594
3 595 600 594
3 601 600 595
3 596 601 595
3 577 576 602
3 577 603 578
3 602 603 577
3 578 604 579
3 603 604 578
3 579 605 580
3 604 605 579
3 580 605 581
3 583 582 606
3 583 606 607
3 576 583 607
3 576 607 608
3 576 608 602
3 603 602 608
3 609 603 608
3 604 603 609
3 610 604 609
3 605 604 610
3 611 605 610
3 581 605 611
3 581 611 584
3 584 611 612
3 585 584 613
3 584 612 613
3 586 614 615
3 586 585 614
3 585 613 614
3 614 616 615
3 606 587 617
3 582 587 606
3 618 607 606
3 617 618 606
3 615 619 588
3 586 615 588
3 620 615 616
3 619 615 620
3 587 589 617
3 617 621 618
3 617 589 621
3 589 590 621
3 621 590 592
3 622 621 592
3 597 623 624
3 596 597 624
3 619 597 588
3 619 625 597
3 625 623 597
3 620 625 619
3 592 626 622
3 598 626 592
3 599 627 598
3 598 627 626
3 600 628 599
3 599 628 627
3 601 629 600
3 600 629 628
3 624 601 596
3 629 601 624
3 608 607 630
3 608 631 609
3 630 631 608
3 632 609 631
3 632 633 609
3 633 610 609
3 611 610 634
3 610 633 634
3 612 611 635
3 611 634 635
3 613 612 636
3 612 635 636
3 614 613 637
3 613 636 637
3 637 616 614
3 638 616 637
3 630 618 639
3 607 618 630
3 631 630 640
3 640 630 639
3 641 632 631
3 640 641 631
3 616 638 620
3 638 642 620
3 618 621 639
3 622 639 621
3 622 643 639
3 643 640 639
3 644 641 640
3 643 644 640
3 623 645 646
3 624 623 646
3 625 647 623
3 623 647 645
3 642 625 620
3 647 625 642
3 622 626 643
3 643 648 644
3 643 626 648
3 626 627 648
3 628 649 627
3 627 649 648
3 629 650 628
3 628 650 649
3 646 629 624
3 650 629 646
3 633 632 651
3 633 652 634
3 651 652 633
3 634 653 635
3 652 653 634
3 635 654 636
3 653 654 635
3 636 655 637
3 654 655 636
3 637 655 638
3 651 641 656
3 632 641 651
3 652 651 657
3 657 651 656
3 653 652 658
3 658 652 657
3 654 653 659
3 659 653 658
3 655 654 660
3 660 654 659
3 638 660 642
3 655 660 638
3 656 644 661
3 641 644 656
3 657 656 662
3 662 656 661
3 658 657 663
3 663 657 662
3 645 663 646
3 645 659 663
3 659 658 663
3 647 659 645
3 660 659 647
3 642 660 647
3 644 648 661
3 649 661 648
3 662 661 649
3 650 662 649
3 663 662 650
3 646 663 650
