# vtk DataFile Version 3.0
this file was written using fslvtkio
ASCII
DATASET POLYDATA
POINTS 642 float
127.072 116.986 111.73
111.941 116.543 109.619
117.375 102.824 106.195
133.436 104.045 106.954
127.973 108.608 118.307
127.171 111.255 102.31
117.274 111.138 100.633
117.005 107.544 116.959
119.088 121.235 118.04
125.716 98.6021 110.566
127.429 98.4795 98.3778
118.88 124.723 105.298
117.315 114.684 119.488
124.103 115.866 120.343
122.899 107.623 119.835
121.254 101.732 114.637
128.254 101.625 116.456
116.516 119.41 101.581
122.795 110.459 100.372
122.394 117.749 104.236
122.767 103.527 99.6042
129.12 104.408 99.3728
131.807 104.976 113.321
128.134 113.962 115.946
130.763 109.948 109.444
131.343 106.493 103.448
127.237 114.661 106.669
113.745 112.849 114.503
116.329 104.619 111.705
112.833 109.305 107.752
113.083 115.274 103.579
116.022 105.788 102.065
123.314 121.654 109.251
124.153 121.836 116.061
117.551 124.93 111.919
113.195 123.199 106.031
114.03 120.152 114.389
134.819 100.35 99.9738
127.312 95.7479 103.588
131.558 99.4456 108.929
121.176 98.1518 101.491
120.484 97.782 108.169
120.768 115.135 120.499
123.35 111.754 120.933
120.032 111.055 120.077
125.784 107.826 120.037
126.109 112.437 119.695
121.766 118.903 119.851
118.125 118.124 119.064
116.824 111.018 118.757
119.713 107.356 118.812
121.852 104.358 117.882
125.468 104.323 118.555
124.565 101.441 116.231
128.619 104.956 117.613
119.088 104.556 115.891
123.333 99.6927 112.937
126.883 99.8269 113.898
119.609 115.457 101.439
122.186 114.308 102.284
119.898 118.878 102.457
124.627 114.325 103.595
124.978 111.108 101.105
120.069 111.268 100.674
116.842 115.408 100.905
117.982 122.345 102.858
120.76 121.308 104.706
125.852 103.866 98.5915
126.028 107.213 99.7156
122.643 107.229 99.8292
128.072 108.077 100.669
128.487 101.75 97.636
124.492 100.798 98.2304
119.936 107.268 100.474
130.127 109.357 114.502
129.255 111.432 112.723
131.322 107.92 111.654
128.632 113.244 110.758
127.821 115.586 113.884
128.231 111.3 117.23
129.965 107.046 115.908
132.931 104.493 110.41
132.414 107.115 108.118
131.611 108.8 106.217
128.939 112.034 108.113
129.773 110.614 105.178
127.33 115.961 109.084
132.9 104.99 104.435
129.525 109.499 102.825
126.944 112.878 104.759
114.407 108.528 113.195
114.041 106.759 109.971
112.615 110.561 111.366
114.574 105.69 106.97
116.682 103.587 108.894
116.577 105.889 114.353
115.116 110.171 115.961
112.238 114.32 112.276
112.149 112.766 108.776
112.879 112.099 105.461
114.222 107.583 104.726
114.308 110.266 102.887
116.466 104.168 104.088
112.357 115.806 106.484
114.537 113.161 101.242
116.554 108.157 100.891
123.646 122.614 112.659
121.231 124.678 114.92
120.899 125.025 110.607
117.968 123.707 115.406
122.022 122.12 117.872
125.903 119.672 113.802
125.38 119.424 110.578
121.341 123.042 107.387
117.759 125.531 108.158
114.872 124.843 108.487
115.189 123.155 112.872
112.808 121.982 110.278
116.086 120.947 116.651
115.545 124.801 104.077
112.187 119.867 108.179
112.511 118.389 112.214
131.846 97.0142 101.334
129.584 97.4378 105.749
133.18 99.1075 104.2
128.598 98.7446 109.84
126.297 96.9997 107.223
127.345 96.4692 100.544
131.629 99.3386 98.1742
134.382 101.997 103.999
133.464 101.548 108.285
120.456 96.9697 104.63
123.671 96.0209 105.864
123.863 95.7701 102.278
122.98 97.9948 109.359
118.496 99.717 107.155
118.947 100.169 103.958
123.858 97.9669 99.3615
126.484 115.295 118.386
124.405 119.254 118.554
126.374 118.136 116.141
125.51 118.406 107.955
123.135 119.991 106.483
125.019 116.545 105.504
129.956 100.157 112.917
130.783 103.206 115.376
132.623 101.697 111.669
133.934 103.652 101.066
130.059 106.1 101.658
132.076 102.56 97.6704
115.147 117.803 117.847
114.915 113.857 117.613
113.477 116.647 114.721
112.474 119.323 105.111
114.106 117.247 101.666
114.399 122.128 102.875
118.472 101.101 109.965
118.649 102.73 113.187
120.619 99.692 111.464
121.411 101.013 100.029
119.446 104.952 101.305
118.914 102.297 102.336
121.987 113.415 120.961
121.607 111.453 120.597
120.342 113.126 120.343
121.566 109.451 120.085
122.976 109.832 120.609
123.642 113.775 120.885
122.502 115.338 120.738
119.121 114.745 119.987
118.77 112.972 119.883
124.498 109.88 120.692
124.815 112.081 120.611
125.732 110.277 120.272
125.099 114.15 120.253
124.274 107.833 120.222
126.861 108.357 119.425
126.841 110.396 119.306
121.294 116.928 120.396
119.461 116.579 119.896
120.024 118.205 119.845
117.735 116.38 119.402
122.931 117.331 120.232
120.33 119.971 119.274
118.723 119.577 118.79
118.389 111.159 119.556
119.929 109.195 119.638
118.361 109.25 118.965
121.298 107.561 119.468
117.143 112.829 119.289
117.064 109.138 118.11
118.322 107.523 118.096
123.616 104.321 118.281
124.907 102.847 117.455
123.135 102.845 117.054
126.342 101.558 116.606
126.732 102.91 117.626
124.127 105.855 119.272
122.409 105.91 119.004
121.697 102.953 116.354
122.784 101.695 115.742
127.117 104.513 118.411
125.617 106.014 119.503
127.287 106.346 119.067
128.467 103.135 117.349
128.234 106.871 118.038
120.771 105.845 118.44
120.394 104.307 116.938
119.237 105.796 117.497
120.382 103.134 115.521
118.017 106.099 116.618
123.805 100.495 114.789
125.724 100.459 115.248
125.016 99.7671 113.637
127.598 100.568 115.39
122.284 100.606 114.047
124.587 98.9636 111.973
126.26 99.0895 112.43
121.062 115 101.884
121.142 116.718 102.675
119.776 117.163 101.893
121.199 118.17 103.28
122.181 116.283 103.198
122.197 112.423 101.461
121.014 113.22 101.283
118.189 117.473 101.517
118.288 119.078 101.964
123.263 114.365 103.047
123.34 112.428 102.012
124.385 112.606 102.721
123.851 110.786 100.661
123.423 116.041 103.887
125.572 112.357 103.246
125.974 111.262 101.771
119.764 113.426 101.02
118.191 115.619 101.208
118.408 113.512 100.904
116.685 117.505 101.256
121.402 111.153 100.628
118.73 111.302 100.689
117.176 113.206 100.707
119.116 120.507 102.519
120.622 120.038 103.587
119.624 122.07 103.549
121.533 119.445 104.514
117.474 120.751 102.148
118.578 123.793 103.861
120.029 123.113 104.892
125.805 105.39 99.4052
124.399 107.142 99.6594
124.386 105.335 99.6877
122.831 108.879 99.8849
124.514 108.827 99.9408
127.367 105.458 99.5926
127.331 104.362 98.7257
124.407 103.744 99.042
123.008 105.124 99.9209
125.332 109.594 100.199
126.918 107.666 100.156
126.632 109.815 100.679
128.379 105.997 100.184
127.661 109.886 101.269
127.007 103.037 97.6119
125.053 102.504 97.8152
126.531 101.359 97.7788
123.514 102.31 98.4409
128.582 103.432 98.0824
127.753 100.118 97.8093
125.904 99.7356 98.0622
121.376 107.105 100.124
121.367 109.336 100.222
120.002 109.161 100.416
121.509 105.394 100.461
118.612 109.391 100.602
129.634 110.498 113.663
130.493 109.75 112.172
130.74 108.597 113.112
131.151 109.064 110.704
130.063 110.554 111.153
128.779 112.582 114.355
128.921 111.425 114.991
130.973 107.227 113.852
131.624 106.653 112.555
129.009 112.381 111.759
128.528 113.494 113.378
128.242 114.291 112.334
128.02 114.732 114.929
129.474 111.336 110.228
127.884 115.029 111.193
127.496 116.169 112.721
128.995 110.381 115.803
130.055 108.195 115.234
129.076 109.222 116.605
130.997 106.068 114.597
128.24 112.524 116.411
128.011 110.169 117.992
128.916 107.934 117.097
132.115 106.201 111.064
131.872 107.608 110.019
132.585 106.06 109.468
131.767 108.658 108.807
132.337 104.72 111.918
133.201 104.497 108.801
132.867 105.574 107.656
130.127 110.454 107.376
129.084 111.346 106.715
130.653 109.863 105.81
128.279 112.258 106.101
128.124 113.191 107.244
129.906 110.687 108.73
131.229 109.469 107.706
131.616 107.809 104.795
130.92 108.867 104.272
128.131 113.945 108.514
128.88 112.509 109.397
128.018 114.461 109.833
127.333 115.258 107.842
127.286 116.472 110.379
132.118 107.894 107.003
132.19 106.713 105.333
132.631 106.081 106.274
132.14 105.66 103.787
133.246 104.682 105.788
129.856 110.108 103.924
128.302 111.674 104.995
128.523 111.279 103.637
127.182 113.656 105.744
130.685 108.174 103.132
128.356 110.741 102.497
126.813 111.985 103.784
114.161 107.529 111.592
113.132 108.54 110.683
113.42 109.406 112.302
112.562 109.716 109.681
113.068 108.03 109.074
115.114 105.838 111.056
115.132 106.575 112.477
113.863 110.614 113.767
112.986 111.387 113.004
114.182 106.218 108.488
115.36 105.187 109.527
115.683 104.732 107.999
116.354 104.111 110.342
113.402 107.432 107.495
116.029 104.334 106.556
117.029 103.176 107.535
115.502 107.174 113.852
114.799 109.349 114.512
115.715 108.036 115.279
114.428 111.567 115.139
116.3 105.234 113.021
116.755 106.71 115.672
115.981 108.979 116.751
112.293 112.377 111.971
112.204 111.545 110.099
112.034 113.486 110.563
112.408 110.937 108.341
112.904 113.406 113.474
112.006 115.331 110.897
112.076 114.597 109.206
113.41 109.732 105.375
114.248 108.922 103.923
113.554 111.106 104.303
114.955 108.091 102.49
115.028 106.684 103.219
113.444 108.539 106.275
112.771 110.584 106.551
113.008 113.538 104.404
113.676 112.505 103.314
114.98 105.718 104.329
114.097 106.65 105.927
115.365 104.94 105.432
115.992 104.872 103.049
116.9 103.631 105.186
112.383 112.288 107.07
112.534 113.912 105.834
112.281 114.162 107.509
112.565 115.622 104.911
112.118 116.086 108.064
114.348 111.687 102.046
115.063 109.22 101.583
115.374 110.581 100.854
116.004 106.976 101.38
113.804 114.138 102.522
115.862 112.172 100.6
116.928 109.625 100.633
122.705 124.144 113.692
121.292 124.958 112.814
122.477 124.197 111.925
119.498 125.211 111.614
119.6 124.941 113.478
122.849 123.77 115.57
123.802 122.756 114.454
123.117 122.803 110.839
122.083 123.867 109.935
119.596 124.326 115.334
121.569 123.762 116.666
120.017 123.272 116.899
123.092 122.383 116.947
117.793 124.536 113.755
118.275 122.568 116.708
120.396 121.843 117.95
124.746 121.224 113.355
124.338 121.239 111.487
125.537 119.747 112.133
124.237 120.88 110.111
124.964 120.957 114.939
126.464 118.35 112.768
126.341 118.247 111.131
121.042 124.432 108.606
119.402 125.286 109.389
119.658 124.996 107.516
117.865 125.301 110.162
122.327 122.502 108.523
120.294 123.73 106.367
118.273 125.436 106.398
114.804 124.143 110.671
113.92 122.918 111.251
113.722 123.657 109.319
113.334 121.349 112.188
114.243 121.929 113.332
116.052 124.326 112.336
116.065 124.901 110.336
113.679 124.235 107.256
112.89 122.676 108.277
115.46 122.168 114.666
116.568 123.589 114.078
116.791 122.441 115.848
114.875 120.755 115.521
117.569 121.003 117.505
116.403 125.268 108.682
114.961 125.132 106.524
116.529 125.539 106.215
114.062 124.659 105.019
117.171 125.07 104.561
112.304 120.923 109.383
112.633 120.161 111.475
112.229 118.971 110.253
113.272 119.564 113.208
112.628 121.586 107.224
112.094 118.175 108.959
112.121 117.308 111.034
130.647 96.7937 103.994
131.295 98.2451 105.22
132.469 97.9069 102.924
132.272 99.0148 106.355
130.772 98.4931 107.178
128.845 96.0944 104.298
129.98 96.3721 102.232
133.614 98.3465 100.511
134.199 99.2822 102.055
129.102 98.0993 107.786
128.022 96.9492 106.221
127.418 97.8875 108.222
126.802 96.1174 105.416
130.109 98.9503 109.325
127.162 98.6326 110.219
125.85 97.8844 108.902
129.953 96.6911 100.43
132.081 97.8534 99.4259
129.84 97.6077 99.065
133.534 99.6286 98.7669
127.612 96.0326 102.036
127.098 97.2564 99.4091
129.268 98.7791 98.1716
134.141 100.202 104.362
133.402 99.9386 106.711
134.104 101.841 106.223
132.761 100.003 108.308
134.921 100.817 102.316
133.973 103.203 105.569
133.601 102.993 107.85
121.988 96.1107 105.05
123.702 95.5921 104.074
122.038 95.9034 103.483
125.553 95.6202 102.989
125.394 95.7184 104.727
121.99 96.6329 106.784
120.62 97.0459 106.292
120.869 97.0417 102.927
122.245 96.4328 101.844
125.082 96.3622 106.524
123.268 96.8848 107.566
124.596 97.392 108.211
121.766 97.6758 108.548
124.292 98.2452 109.987
119.353 98.0931 105.891
119.567 98.2537 104.072
118.597 99.6579 105.456
120.048 98.808 102.712
119.45 98.3885 107.496
117.998 101.194 106.706
118.122 101.467 105.206
123.769 96.5117 100.778
125.663 96.0115 101.424
125.352 96.8686 99.8939
122.438 97.7443 100.388
125.555 98.3269 98.6781
125.552 117.301 118.58
125.662 118.826 117.485
126.563 116.79 117.292
125.455 120.062 116.24
124.46 120.591 117.375
124.291 117.65 119.509
125.365 115.688 119.486
127.29 114.859 117.163
127.232 116.116 116.142
123.361 120.86 118.167
123.137 119.146 119.375
121.608 120.608 118.808
126.399 113.934 119.061
127.57 113.3 117.696
127.289 111.81 118.523
127.197 116.86 115.007
126.156 119.088 115.031
126.852 117.596 113.815
124.316 119.339 107.259
124.107 118.319 105.971
125.34 117.617 106.671
123.717 117.162 104.877
122.867 118.841 105.272
123.258 120.871 107.904
124.4 120.005 108.643
126.482 116.644 107.273
126.272 115.82 106.028
122.022 120.441 105.623
122.228 121.501 107.112
121.047 122.098 106.01
125.322 119.074 109.309
126.524 117.209 108.464
126.443 117.789 109.82
126.172 114.837 105.083
124.788 115.582 104.506
125.852 113.667 104.085
130.703 101.313 114.4
131.791 102.172 113.65
131.488 100.739 112.484
132.418 103.19 112.731
131.474 103.993 114.392
129.667 102.31 115.964
129.26 100.713 114.942
130.844 99.6779 111.073
132.198 100.359 110.518
130.594 105.238 115.582
129.71 104.045 116.574
129.372 106.206 116.864
128.428 99.9518 113.583
129.315 99.3544 111.456
127.723 99.1177 111.97
133.076 101.334 109.916
133.038 103.15 111.256
133.315 102.998 109.48
132.048 104.318 100.787
131.8 103.997 99.3542
133.867 103.021 99.092
130.357 103.856 98.8804
129.588 105.535 100.74
130.694 106.143 102.473
132.13 104.783 102.402
134.933 101.917 100.591
133.737 101.275 98.2718
128.93 107.176 101.213
129.881 107.859 102.179
128.65 109.161 101.831
133.27 104.324 102.868
134.553 102.584 102.313
133.873 103.711 104.333
131.703 100.848 97.8422
129.896 102.749 97.7814
129.262 100.362 97.7413
114.865 115.886 117.888
114.2 115.464 116.354
114.171 117.18 116.456
113.691 114.789 114.889
114.354 113.606 116.037
115.862 114.268 118.855
116.064 116.265 118.931
114.479 118.929 116.199
113.717 118.345 114.778
114.851 111.986 116.618
115.703 112.531 118.272
115.77 110.582 117.516
116.473 117.927 118.605
115.4 119.53 117.27
116.975 119.618 118.077
112.979 117.603 113.535
112.938 115.303 113.568
112.292 116.29 112.364
113.258 118.786 103.294
114.017 119.767 102.365
113.35 120.749 103.88
115.346 120.602 101.877
115.246 118.232 101.433
113.404 116.496 102.713
112.601 117.389 104.267
112.756 121.189 105.654
113.565 122.762 104.419
115.447 116.2 100.888
114.247 115.131 101.519
115.757 114.058 100.742
112.25 117.448 105.837
112.334 119.551 106.693
112.113 117.689 107.476
114.66 123.496 103.554
116.335 121.872 102.414
117.033 123.67 103.474
118.373 102.031 111.59
119.545 101.24 112.394
119.378 100.216 110.748
120.822 100.712 113.05
119.92 102.181 114.008
117.519 103.508 112.35
117.456 102.936 110.929
119.346 99.229 109.178
120.521 98.7487 109.865
118.919 103.536 114.571
117.535 104.276 113.695
117.702 105.086 115.233
117.583 102.448 109.498
118.49 100.182 108.578
117.751 101.784 108.112
121.767 98.6618 110.434
121.911 99.7265 112.252
123.212 98.8668 111.197
120.577 103.022 101.054
118.902 103.722 101.789
120.051 101.592 101.235
117.469 104.174 102.395
117.633 105.446 101.575
121.184 104.156 100.627
121.955 102.378 99.8713
121.21 99.6212 100.78
120.077 100.181 102.004
117.846 106.642 101.048
119.723 106.126 100.938
118.277 108.083 100.788
122.618 101.144 98.9622
122.338 99.3584 99.7528
123.942 99.4801 98.7127
118.997 101.207 103.154
117.66 103.32 103.375
117.919 102.447 104.425
POLYGONS 1280  5120
3 164 162 163
3 163 44 164
3 162 43 163
3 164 42 162
3 166 165 163
3 163 43 166
3 165 44 163
3 166 14 165
3 168 167 162
3 162 42 168
3 167 43 162
3 168 13 167
3 170 169 164
3 164 44 170
3 169 42 164
3 170 12 169
3 173 171 172
3 172 46 173
3 171 43 172
3 173 45 171
3 167 174 172
3 172 43 167
3 174 46 172
3 167 13 174
3 175 166 171
3 171 45 175
3 166 43 171
3 175 14 166
3 177 176 173
3 173 46 177
3 176 45 173
3 177 4 176
3 180 178 179
3 179 48 180
3 178 42 179
3 180 47 178
3 169 181 179
3 179 42 169
3 181 48 179
3 169 12 181
3 182 168 178
3 178 47 182
3 168 42 178
3 182 13 168
3 184 183 180
3 180 48 184
3 183 47 180
3 184 8 183
3 187 185 186
3 186 50 187
3 185 44 186
3 187 49 185
3 165 188 186
3 186 44 165
3 188 50 186
3 165 14 188
3 189 170 185
3 185 49 189
3 170 44 185
3 189 12 170
3 191 190 187
3 187 50 191
3 190 49 187
3 191 7 190
3 194 192 193
3 193 53 194
3 192 52 193
3 194 51 192
3 196 195 193
3 193 52 196
3 195 53 193
3 196 16 195
3 198 197 192
3 192 51 198
3 197 52 192
3 198 14 197
3 200 199 194
3 194 53 200
3 199 51 194
3 200 15 199
3 203 201 202
3 202 45 203
3 201 52 202
3 203 54 201
3 197 175 202
3 202 52 197
3 175 45 202
3 197 14 175
3 204 196 201
3 201 54 204
3 196 52 201
3 204 16 196
3 176 205 203
3 203 45 176
3 205 54 203
3 176 4 205
3 208 206 207
3 207 55 208
3 206 51 207
3 208 50 206
3 199 209 207
3 207 51 199
3 209 55 207
3 199 15 209
3 188 198 206
3 206 50 188
3 198 51 206
3 188 14 198
3 210 191 208
3 208 55 210
3 191 50 208
3 210 7 191
3 213 211 212
3 212 57 213
3 211 53 212
3 213 56 211
3 195 214 212
3 212 53 195
3 214 57 212
3 195 16 214
3 215 200 211
3 211 56 215
3 200 53 211
3 215 15 200
3 217 216 213
3 213 57 217
3 216 56 213
3 217 9 216
3 220 218 219
3 219 60 220
3 218 59 219
3 220 58 218
3 222 221 219
3 219 59 222
3 221 60 219
3 222 19 221
3 224 223 218
3 218 58 224
3 223 59 218
3 224 18 223
3 226 225 220
3 220 60 226
3 225 58 220
3 226 17 225
3 229 227 228
3 228 62 229
3 227 59 228
3 229 61 227
3 223 230 228
3 228 59 223
3 230 62 228
3 223 18 230
3 231 222 227
3 227 61 231
3 222 59 227
3 231 19 222
3 233 232 229
3 229 62 233
3 232 61 229
3 233 5 232
3 236 234 235
3 235 64 236
3 234 58 235
3 236 63 234
3 225 237 235
3 235 58 225
3 237 64 235
3 225 17 237
3 238 224 234
3 234 63 238
3 224 58 234
3 238 18 224
3 240 239 236
3 236 64 240
3 239 63 236
3 240 6 239
3 243 241 242
3 242 66 243
3 241 60 242
3 243 65 241
3 221 244 242
3 242 60 221
3 244 66 242
3 221 19 244
3 245 226 241
3 241 65 245
3 226 60 241
3 245 17 226
3 247 246 243
3 243 66 247
3 246 65 243
3 247 11 246
3 250 248 249
3 249 69 250
3 248 68 249
3 250 67 248
3 252 251 249
3 249 68 252
3 251 69 249
3 252 18 251
3 254 253 248
3 248 67 254
3 253 68 248
3 254 21 253
3 256 255 250
3 250 69 256
3 255 67 250
3 256 20 255
3 259 257 258
3 258 70 259
3 257 68 258
3 259 62 257
3 253 260 258
3 258 68 253
3 260 70 258
3 253 21 260
3 230 252 257
3 257 62 230
3 252 68 257
3 230 18 252
3 261 233 259
3 259 70 261
3 233 62 259
3 261 5 233
3 264 262 263
3 263 72 264
3 262 67 263
3 264 71 262
3 255 265 263
3 263 67 255
3 265 72 263
3 255 20 265
3 266 254 262
3 262 71 266
3 254 67 262
3 266 21 254
3 268 267 264
3 264 72 268
3 267 71 264
3 268 10 267
3 271 269 270
3 270 63 271
3 269 69 270
3 271 73 269
3 251 238 270
3 270 69 251
3 238 63 270
3 251 18 238
3 272 256 269
3 269 73 272
3 256 69 269
3 272 20 256
3 239 273 271
3 271 63 239
3 273 73 271
3 239 6 273
3 276 274 275
3 275 76 276
3 274 75 275
3 276 74 274
3 278 277 275
3 275 75 278
3 277 76 275
3 278 24 277
3 280 279 274
3 274 74 280
3 279 75 274
3 280 23 279
3 282 281 276
3 276 76 282
3 281 74 276
3 282 22 281
3 285 283 284
3 284 78 285
3 283 75 284
3 285 77 283
3 279 286 284
3 284 75 279
3 286 78 284
3 279 23 286
3 287 278 283
3 283 77 287
3 278 75 283
3 287 24 278
3 289 288 285
3 285 78 289
3 288 77 285
3 289 0 288
3 292 290 291
3 291 80 292
3 290 74 291
3 292 79 290
3 281 293 291
3 291 74 281
3 293 80 291
3 281 22 293
3 294 280 290
3 290 79 294
3 280 74 290
3 294 23 280
3 296 295 292
3 292 80 296
3 295 79 292
3 296 4 295
3 299 297 298
3 298 82 299
3 297 76 298
3 299 81 297
3 277 300 298
3 298 76 277
3 300 82 298
3 277 24 300
3 301 282 297
3 297 81 301
3 282 76 297
3 301 22 282
3 303 302 299
3 299 82 303
3 302 81 299
3 303 3 302
3 306 304 305
3 305 85 306
3 304 84 305
3 306 83 304
3 308 307 305
3 305 84 308
3 307 85 305
3 308 26 307
3 310 309 304
3 304 83 310
3 309 84 304
3 310 24 309
3 312 311 306
3 306 85 312
3 311 83 306
3 312 25 311
3 315 313 314
3 314 77 315
3 313 84 314
3 315 86 313
3 309 287 314
3 314 84 309
3 287 77 314
3 309 24 287
3 316 308 313
3 313 86 316
3 308 84 313
3 316 26 308
3 288 317 315
3 315 77 288
3 317 86 315
3 288 0 317
3 320 318 319
3 319 87 320
3 318 83 319
3 320 82 318
3 311 321 319
3 319 83 311
3 321 87 319
3 311 25 321
3 300 310 318
3 318 82 300
3 310 83 318
3 300 24 310
3 322 303 320
3 320 87 322
3 303 82 320
3 322 3 303
3 325 323 324
3 324 89 325
3 323 85 324
3 325 88 323
3 307 326 324
3 324 85 307
3 326 89 324
3 307 26 326
3 327 312 323
3 323 88 327
3 312 85 323
3 327 25 312
3 329 328 325
3 325 89 329
3 328 88 325
3 329 5 328
3 332 330 331
3 331 92 332
3 330 91 331
3 332 90 330
3 334 333 331
3 331 91 334
3 333 92 331
3 334 29 333
3 336 335 330
3 330 90 336
3 335 91 330
3 336 28 335
3 338 337 332
3 332 92 338
3 337 90 332
3 338 27 337
3 341 339 340
3 340 94 341
3 339 91 340
3 341 93 339
3 335 342 340
3 340 91 335
3 342 94 340
3 335 28 342
3 343 334 339
3 339 93 343
3 334 91 339
3 343 29 334
3 345 344 341
3 341 94 345
3 344 93 341
3 345 2 344
3 348 346 347
3 347 96 348
3 346 90 347
3 348 95 346
3 337 349 347
3 347 90 337
3 349 96 347
3 337 27 349
3 350 336 346
3 346 95 350
3 336 90 346
3 350 28 336
3 352 351 348
3 348 96 352
3 351 95 348
3 352 7 351
3 355 353 354
3 354 98 355
3 353 92 354
3 355 97 353
3 333 356 354
3 354 92 333
3 356 98 354
3 333 29 356
3 357 338 353
3 353 97 357
3 338 92 353
3 357 27 338
3 359 358 355
3 355 98 359
3 358 97 355
3 359 1 358
3 362 360 361
3 361 101 362
3 360 100 361
3 362 99 360
3 364 363 361
3 361 100 364
3 363 101 361
3 364 31 363
3 366 365 360
3 360 99 366
3 365 100 360
3 366 29 365
3 368 367 362
3 362 101 368
3 367 99 362
3 368 30 367
3 371 369 370
3 370 93 371
3 369 100 370
3 371 102 369
3 365 343 370
3 370 100 365
3 343 93 370
3 365 29 343
3 372 364 369
3 369 102 372
3 364 100 369
3 372 31 364
3 344 373 371
3 371 93 344
3 373 102 371
3 344 2 373
3 376 374 375
3 375 103 376
3 374 99 375
3 376 98 374
3 367 377 375
3 375 99 367
3 377 103 375
3 367 30 377
3 356 366 374
3 374 98 356
3 366 99 374
3 356 29 366
3 378 359 376
3 376 103 378
3 359 98 376
3 378 1 359
3 381 379 380
3 380 105 381
3 379 101 380
3 381 104 379
3 363 382 380
3 380 101 363
3 382 105 380
3 363 31 382
3 383 368 379
3 379 104 383
3 368 101 379
3 383 30 368
3 385 384 381
3 381 105 385
3 384 104 381
3 385 6 384
3 388 386 387
3 387 108 388
3 386 107 387
3 388 106 386
3 390 389 387
3 387 107 390
3 389 108 387
3 390 34 389
3 392 391 386
3 386 106 392
3 391 107 386
3 392 33 391
3 394 393 388
3 388 108 394
3 393 106 388
3 394 32 393
3 397 395 396
3 396 110 397
3 395 107 396
3 397 109 395
3 391 398 396
3 396 107 391
3 398 110 396
3 391 33 398
3 399 390 395
3 395 109 399
3 390 107 395
3 399 34 390
3 401 400 397
3 397 110 401
3 400 109 397
3 401 8 400
3 404 402 403
3 403 112 404
3 402 106 403
3 404 111 402
3 393 405 403
3 403 106 393
3 405 112 403
3 393 32 405
3 406 392 402
3 402 111 406
3 392 106 402
3 406 33 392
3 408 407 404
3 404 112 408
3 407 111 404
3 408 0 407
3 411 409 410
3 410 114 411
3 409 108 410
3 411 113 409
3 389 412 410
3 410 108 389
3 412 114 410
3 389 34 412
3 413 394 409
3 409 113 413
3 394 108 409
3 413 32 394
3 415 414 411
3 411 114 415
3 414 113 411
3 415 11 414
3 418 416 417
3 417 117 418
3 416 116 417
3 418 115 416
3 420 419 417
3 417 116 420
3 419 117 417
3 420 36 419
3 422 421 416
3 416 115 422
3 421 116 416
3 422 34 421
3 424 423 418
3 418 117 424
3 423 115 418
3 424 35 423
3 427 425 426
3 426 109 427
3 425 116 426
3 427 118 425
3 421 399 426
3 426 116 421
3 399 109 426
3 421 34 399
3 428 420 425
3 425 118 428
3 420 116 425
3 428 36 420
3 400 429 427
3 427 109 400
3 429 118 427
3 400 8 429
3 432 430 431
3 431 119 432
3 430 115 431
3 432 114 430
3 423 433 431
3 431 115 423
3 433 119 431
3 423 35 433
3 412 422 430
3 430 114 412
3 422 115 430
3 412 34 422
3 434 415 432
3 432 119 434
3 415 114 432
3 434 11 415
3 437 435 436
3 436 121 437
3 435 117 436
3 437 120 435
3 419 438 436
3 436 117 419
3 438 121 436
3 419 36 438
3 439 424 435
3 435 120 439
3 424 117 435
3 439 35 424
3 441 440 437
3 437 121 441
3 440 120 437
3 441 1 440
3 444 442 443
3 443 124 444
3 442 123 443
3 444 122 442
3 446 445 443
3 443 123 446
3 445 124 443
3 446 39 445
3 448 447 442
3 442 122 448
3 447 123 442
3 448 38 447
3 450 449 444
3 444 124 450
3 449 122 444
3 450 37 449
3 453 451 452
3 452 126 453
3 451 123 452
3 453 125 451
3 447 454 452
3 452 123 447
3 454 126 452
3 447 38 454
3 455 446 451
3 451 125 455
3 446 123 451
3 455 39 446
3 457 456 453
3 453 126 457
3 456 125 453
3 457 9 456
3 460 458 459
3 459 128 460
3 458 122 459
3 460 127 458
3 449 461 459
3 459 122 449
3 461 128 459
3 449 37 461
3 462 448 458
3 458 127 462
3 448 122 458
3 462 38 448
3 464 463 460
3 460 128 464
3 463 127 460
3 464 10 463
3 467 465 466
3 466 130 467
3 465 124 466
3 467 129 465
3 445 468 466
3 466 124 445
3 468 130 466
3 445 39 468
3 469 450 465
3 465 129 469
3 450 124 465
3 469 37 450
3 471 470 467
3 467 130 471
3 470 129 467
3 471 3 470
3 474 472 473
3 473 133 474
3 472 132 473
3 474 131 472
3 476 475 473
3 473 132 476
3 475 133 473
3 476 38 475
3 478 477 472
3 472 131 478
3 477 132 472
3 478 41 477
3 480 479 474
3 474 133 480
3 479 131 474
3 480 40 479
3 483 481 482
3 482 134 483
3 481 132 482
3 483 126 481
3 477 484 482
3 482 132 477
3 484 134 482
3 477 41 484
3 454 476 481
3 481 126 454
3 476 132 481
3 454 38 476
3 485 457 483
3 483 134 485
3 457 126 483
3 485 9 457
3 488 486 487
3 487 136 488
3 486 131 487
3 488 135 486
3 479 489 487
3 487 131 479
3 489 136 487
3 479 40 489
3 490 478 486
3 486 135 490
3 478 131 486
3 490 41 478
3 492 491 488
3 488 136 492
3 491 135 488
3 492 2 491
3 495 493 494
3 494 127 495
3 493 133 494
3 495 137 493
3 475 462 494
3 494 133 475
3 462 127 494
3 475 38 462
3 496 480 493
3 493 137 496
3 480 133 493
3 496 40 480
3 463 497 495
3 495 127 463
3 497 137 495
3 463 10 497
3 500 498 499
3 499 140 500
3 498 139 499
3 500 138 498
3 502 501 499
3 499 139 502
3 501 140 499
3 502 33 501
3 504 503 498
3 498 138 504
3 503 139 498
3 504 13 503
3 506 505 500
3 500 140 506
3 505 138 500
3 506 23 505
3 509 507 508
3 508 47 509
3 507 139 508
3 509 110 507
3 503 182 508
3 508 139 503
3 182 47 508
3 503 13 182
3 398 502 507
3 507 110 398
3 502 139 507
3 398 33 502
3 183 401 509
3 509 47 183
3 401 110 509
3 183 8 401
3 512 510 511
3 511 79 512
3 510 138 511
3 512 46 510
3 505 294 511
3 511 138 505
3 294 79 511
3 505 23 294
3 174 504 510
3 510 46 174
3 504 138 510
3 174 13 504
3 295 177 512
3 512 79 295
3 177 46 512
3 295 4 177
3 515 513 514
3 514 111 515
3 513 140 514
3 515 78 513
3 501 406 514
3 514 140 501
3 406 111 514
3 501 33 406
3 286 506 513
3 513 78 286
3 506 140 513
3 286 23 506
3 407 289 515
3 515 111 407
3 289 78 515
3 407 0 289
3 518 516 517
3 517 143 518
3 516 142 517
3 518 141 516
3 520 519 517
3 517 142 520
3 519 143 517
3 520 19 519
3 522 521 516
3 516 141 522
3 521 142 516
3 522 32 521
3 524 523 518
3 518 143 524
3 523 141 518
3 524 26 523
3 527 525 526
3 526 113 527
3 525 142 526
3 527 66 525
3 521 413 526
3 526 142 521
3 413 113 526
3 521 32 413
3 244 520 525
3 525 66 244
3 520 142 525
3 244 19 520
3 414 247 527
3 527 113 414
3 247 66 527
3 414 11 247
3 530 528 529
3 529 86 530
3 528 141 529
3 530 112 528
3 523 316 529
3 529 141 523
3 316 86 529
3 523 26 316
3 405 522 528
3 528 112 405
3 522 141 528
3 405 32 522
3 317 408 530
3 530 86 317
3 408 112 530
3 317 0 408
3 533 531 532
3 532 61 533
3 531 143 532
3 533 89 531
3 519 231 532
3 532 143 519
3 231 61 532
3 519 19 231
3 326 524 531
3 531 89 326
3 524 143 531
3 326 26 524
3 232 329 533
3 533 61 232
3 329 89 533
3 232 5 329
3 536 534 535
3 535 146 536
3 534 145 535
3 536 144 534
3 538 537 535
3 535 145 538
3 537 146 535
3 538 22 537
3 540 539 534
3 534 144 540
3 539 145 534
3 540 16 539
3 542 541 536
3 536 146 542
3 541 144 536
3 542 39 541
3 545 543 544
3 544 54 545
3 543 145 544
3 545 80 543
3 539 204 544
3 544 145 539
3 204 54 544
3 539 16 204
3 293 538 543
3 543 80 293
3 538 145 543
3 293 22 538
3 205 296 545
3 545 54 205
3 296 80 545
3 205 4 296
3 548 546 547
3 547 125 548
3 546 144 547
3 548 57 546
3 541 455 547
3 547 144 541
3 455 125 547
3 541 39 455
3 214 540 546
3 546 57 214
3 540 144 546
3 214 16 540
3 456 217 548
3 548 125 456
3 217 57 548
3 456 9 217
3 551 549 550
3 550 81 551
3 549 146 550
3 551 130 549
3 537 301 550
3 550 146 537
3 301 81 550
3 537 22 301
3 468 542 549
3 549 130 468
3 542 146 549
3 468 39 542
3 302 471 551
3 551 81 302
3 471 130 551
3 302 3 471
3 554 552 553
3 553 149 554
3 552 148 553
3 554 147 552
3 556 555 553
3 553 148 556
3 555 149 553
3 556 21 555
3 558 557 552
3 552 147 558
3 557 148 552
3 558 25 557
3 560 559 554
3 554 149 560
3 559 147 554
3 560 37 559
3 563 561 562
3 562 88 563
3 561 148 562
3 563 70 561
3 557 327 562
3 562 148 557
3 327 88 562
3 557 25 327
3 260 556 561
3 561 70 260
3 556 148 561
3 260 21 556
3 328 261 563
3 563 88 328
3 261 70 563
3 328 5 261
3 566 564 565
3 565 129 566
3 564 147 565
3 566 87 564
3 559 469 565
3 565 147 559
3 469 129 565
3 559 37 469
3 321 558 564
3 564 87 321
3 558 147 564
3 321 25 558
3 470 322 566
3 566 129 470
3 322 87 566
3 470 3 322
3 569 567 568
3 568 71 569
3 567 149 568
3 569 128 567
3 555 266 568
3 568 149 555
3 266 71 568
3 555 21 266
3 461 560 567
3 567 128 461
3 560 149 567
3 461 37 560
3 267 464 569
3 569 71 267
3 464 128 569
3 267 10 464
3 572 570 571
3 571 152 572
3 570 151 571
3 572 150 570
3 574 573 571
3 571 151 574
3 573 152 571
3 574 27 573
3 576 575 570
3 570 150 576
3 575 151 570
3 576 12 575
3 578 577 572
3 572 152 578
3 577 150 572
3 578 36 577
3 581 579 580
3 580 49 581
3 579 151 580
3 581 96 579
3 575 189 580
3 580 151 575
3 189 49 580
3 575 12 189
3 349 574 579
3 579 96 349
3 574 151 579
3 349 27 574
3 190 352 581
3 581 49 190
3 352 96 581
3 190 7 352
3 584 582 583
3 583 118 584
3 582 150 583
3 584 48 582
3 577 428 583
3 583 150 577
3 428 118 583
3 577 36 428
3 181 576 582
3 582 48 181
3 576 150 582
3 181 12 576
3 429 184 584
3 584 118 429
3 184 48 584
3 429 8 184
3 587 585 586
3 586 97 587
3 585 152 586
3 587 121 585
3 573 357 586
3 586 152 573
3 357 97 586
3 573 27 357
3 438 578 585
3 585 121 438
3 578 152 585
3 438 36 578
3 358 441 587
3 587 97 358
3 441 121 587
3 358 1 441
3 590 588 589
3 589 155 590
3 588 154 589
3 590 153 588
3 592 591 589
3 589 154 592
3 591 155 589
3 592 17 591
3 594 593 588
3 588 153 594
3 593 154 588
3 594 30 593
3 596 595 590
3 590 155 596
3 595 153 590
3 596 35 595
3 599 597 598
3 598 104 599
3 597 154 598
3 599 64 597
3 593 383 598
3 598 154 593
3 383 104 598
3 593 30 383
3 237 592 597
3 597 64 237
3 592 154 597
3 237 17 592
3 384 240 599
3 599 104 384
3 240 64 599
3 384 6 240
3 602 600 601
3 601 120 602
3 600 153 601
3 602 103 600
3 595 439 601
3 601 153 595
3 439 120 601
3 595 35 439
3 377 594 600
3 600 103 377
3 594 153 600
3 377 30 594
3 440 378 602
3 602 120 440
3 378 103 602
3 440 1 378
3 605 603 604
3 604 65 605
3 603 155 604
3 605 119 603
3 591 245 604
3 604 155 591
3 245 65 604
3 591 17 245
3 433 596 603
3 603 119 433
3 596 155 603
3 433 35 596
3 246 434 605
3 605 65 246
3 434 119 605
3 246 11 434
3 608 606 607
3 607 158 608
3 606 157 607
3 608 156 606
3 610 609 607
3 607 157 610
3 609 158 607
3 610 15 609
3 612 611 606
3 606 156 612
3 611 157 606
3 612 28 611
3 614 613 608
3 608 158 614
3 613 156 608
3 614 41 613
3 617 615 616
3 616 95 617
3 615 157 616
3 617 55 615
3 611 350 616
3 616 157 611
3 350 95 616
3 611 28 350
3 209 610 615
3 615 55 209
3 610 157 615
3 209 15 610
3 351 210 617
3 617 95 351
3 210 55 617
3 351 7 210
3 620 618 619
3 619 135 620
3 618 156 619
3 620 94 618
3 613 490 619
3 619 156 613
3 490 135 619
3 613 41 490
3 342 612 618
3 618 94 342
3 612 156 618
3 342 28 612
3 491 345 620
3 620 135 491
3 345 94 620
3 491 2 345
3 623 621 622
3 622 56 623
3 621 158 622
3 623 134 621
3 609 215 622
3 622 158 609
3 215 56 622
3 609 15 215
3 484 614 621
3 621 134 484
3 614 158 621
3 484 41 614
3 216 485 623
3 623 56 216
3 485 134 623
3 216 9 485
3 626 624 625
3 625 161 626
3 624 160 625
3 626 159 624
3 628 627 625
3 625 160 628
3 627 161 625
3 628 31 627
3 630 629 624
3 624 159 630
3 629 160 624
3 630 20 629
3 632 631 626
3 626 161 632
3 631 159 626
3 632 40 631
3 635 633 634
3 634 73 635
3 633 160 634
3 635 105 633
3 629 272 634
3 634 160 629
3 272 73 634
3 629 20 272
3 382 628 633
3 633 105 382
3 628 160 633
3 382 31 628
3 273 385 635
3 635 73 273
3 385 105 635
3 273 6 385
3 638 636 637
3 637 137 638
3 636 159 637
3 638 72 636
3 631 496 637
3 637 159 631
3 496 137 637
3 631 40 496
3 265 630 636
3 636 72 265
3 630 159 636
3 265 20 630
3 497 268 638
3 638 137 497
3 268 72 638
3 497 10 268
3 641 639 640
3 640 102 641
3 639 161 640
3 641 136 639
3 627 372 640
3 640 161 627
3 372 102 640
3 627 31 372
3 489 632 639
3 639 136 489
3 632 161 639
3 489 40 632
3 373 492 641
3 641 102 373
3 492 136 641
3 373 2 492
