# vtk DataFile Version 3.0
this file was written using fslvtkio
ASCII
DATASET POLYDATA
POINTS 642 float
138.134 137.794 108.099
126.423 136.155 109.024
134.027 124.548 108.965
141.671 120.346 105.919
139.218 126.441 115.537
136.24 132.036 101.856
128.576 132.659 101.735
132.221 126.196 117.576
132.404 141.895 115.667
137.783 111.309 112.21
138.146 116.667 100.594
128.166 144.961 101.535
132.224 134.21 118.366
136.482 135.122 116.752
136.445 125.596 119.849
134.905 118.284 116.886
139.264 117.508 115.004
125.023 138.095 98.4416
131.966 132.922 100.686
131.974 139.831 99.9213
136.137 124.817 102.718
139.414 121.603 99.6787
140.965 122.126 111.082
138.951 132.784 112.284
140.296 129.107 107.173
140.807 124.664 102.576
137.066 136.718 103.827
128.974 132.244 114.44
131.96 123.278 113.312
130.091 131.091 109.121
124.811 135.335 103.369
132.224 128.709 105.313
133.622 143.899 105.267
135.45 141.861 111.663
129.47 146.178 108.697
125.407 141.311 104.765
128.795 139.718 112.449
142.289 115.22 100.627
138.81 111.976 105.369
141.293 113.184 108.532
136.919 120.05 105.671
135.385 116.96 110.419
134.617 135.184 118.687
136.679 130.476 118.511
134.402 130.088 119.361
138.054 126.021 117.744
137.989 130.92 116.357
134.653 138.905 116.649
132.112 138.443 117.452
131.965 130.117 118.353
133.961 125.361 119.592
135.424 121.526 119.35
137.824 121.611 117.879
137.505 117.15 117.095
139.143 121.874 115.403
133.142 122.154 117.671
136.612 114.815 114.417
139.164 113.282 114.194
127.939 135.778 98.2828
131.228 136.239 99.3934
128.631 139.348 98.3804
133.837 136.195 100.849
134.466 132.265 100.84
130.061 133.081 101.033
125.371 134.646 99.0698
126.486 141.554 99.7961
130.224 142.705 100.287
137.732 122.736 100.857
136.056 127.561 101.21
133.99 128.744 101.616
137.794 126.986 101.405
138.701 118.7 98.4468
137.059 120.061 101.044
132.166 129.492 102.451
140.272 127.308 111.899
139.805 130.508 109.855
141.033 125.734 109.33
139.206 133.631 107.801
138.709 135.463 110.371
139.089 129.875 113.99
140.137 124.147 113.471
141.595 121.276 108.606
141.326 124.913 106.556
140.567 127.506 104.793
138.98 132.707 105.624
138.807 130.98 103.815
137.713 137.568 105.797
141.453 122.351 103.979
138.799 128.502 102.347
136.718 134.553 102.583
130.028 127.681 114.079
130.872 126.967 111.462
129.204 130.815 111.826
132.007 128.024 109.102
132.878 123.868 110.967
131.737 124.589 115.662
130.436 129.523 116.256
127.985 134.396 111.833
128.024 133.614 109.035
127.978 133.708 106.251
130.783 130.596 106.814
128.339 132.924 104.326
133.496 126.844 107.124
125.399 135.877 106.133
125.899 133.787 102.045
130.485 130.839 103.642
134.57 143.642 108.535
132.618 145.185 110.619
131.519 146.468 106.67
130.892 144.186 112.56
134.082 142.318 113.843
137.125 140.038 109.875
136.291 141.168 106.745
131.191 145.233 103.018
128.367 146.37 104.923
127.187 144.317 106.643
128.874 143.313 110.465
126.776 141.375 108.523
130.388 140.927 114.272
126.078 143.377 102.864
125.323 138.902 107.14
127.221 138.168 110.66
141.018 111.872 101.813
140.755 109.589 106.838
142.026 113.948 104.784
139.918 111.135 110.938
137.937 110.975 108.881
138.943 114.628 102.578
140.601 115.971 98.5038
141.829 117.721 103.653
141.795 117.083 107.271
136.254 118.087 107.74
137.074 113.925 107.946
137.931 115.699 105.321
136.638 114.264 111.401
134.565 120.524 109.639
135.327 122.432 107.317
137.486 118.454 103.195
137.843 134.356 114.593
136.187 138.965 114.372
137.442 137.641 112.239
135.641 140.729 104.174
133.07 142.262 102.23
134.642 138.461 101.904
140.476 114.946 111.883
140.372 119.515 113.059
141.24 117.614 110.02
141.488 119.264 101.375
140.061 122.988 101.011
141.807 118.22 98.0585
130.167 137.371 115.975
130.17 133.341 116.716
128.503 136.216 113.705
124.457 138.165 104.132
123.403 135.589 100.341
124.602 139.747 101.195
133.456 120.209 111.93
133.093 120.489 115.155
134.944 117.411 113.631
136.677 122.369 103.795
133.795 127.229 103.981
135.205 124.709 105.653
135.702 132.855 118.732
135.616 130.442 119.302
134.554 132.738 119.32
135.455 127.999 119.91
136.519 128.184 119.297
136.528 132.84 117.777
135.714 134.922 117.912
133.475 134.511 118.795
133.374 132.244 119.126
137.396 128.237 118.276
137.39 130.806 117.548
138.004 128.538 117.134
137.143 133.011 116.676
137.272 125.91 118.849
138.698 126.41 116.686
138.594 128.668 116.046
134.809 137.017 117.811
133.341 136.791 118.391
133.487 138.758 117.577
132.151 136.41 117.937
135.621 136.983 116.731
133.678 140.623 116.496
132.222 140.323 116.784
133.142 130.02 119.109
134.257 127.721 119.584
133.112 127.872 118.984
135.147 125.553 120.108
132.198 132.074 118.505
132.15 128.05 118.056
133.021 125.776 118.652
136.83 121.379 118.938
137.64 119.381 117.774
136.392 119.2 118.494
138.47 117.499 116.317
138.455 119.601 116.61
137.156 123.59 118.978
135.948 123.463 119.819
135.02 119.697 118.332
136.069 117.572 117.322
138.643 121.705 116.695
137.981 123.847 117.911
138.728 124.135 116.715
139.226 119.634 115.37
139.226 124.157 115.484
134.567 123.425 119.668
134.215 121.664 118.595
133.278 123.67 118.879
134.096 120.27 117.406
132.543 124.144 117.798
136.974 115.71 116.015
138.303 115.399 115.62
137.74 113.596 114.884
139.181 115.576 114.658
135.864 116.64 115.665
137.328 112.925 113.378
138.527 111.701 113.672
129.718 135.85 98.7433
129.968 137.692 98.6499
128.224 137.399 98.0121
130.299 139.482 98.9953
131.441 138.044 99.378
131.252 134.54 99.7814
129.801 134.451 99.3947
126.371 136.922 97.9661
126.899 138.644 98.0915
132.547 136.365 99.9946
132.611 134.466 100.175
133.902 134.383 100.635
133.165 132.596 100.648
132.865 138.145 100.257
135.006 134.113 101.36
135.454 132.067 101.346
128.48 134.39 99.3869
126.438 135.365 98.4272
127.435 134.285 99.7122
124.69 136.323 98.4473
130.794 133.201 100.812
129.286 132.965 101.311
127.149 133.907 100.551
127.593 140.468 98.7695
129.507 141.036 99.0765
128.321 142.197 99.6428
131.046 141.236 99.9112
126.007 139.826 98.8727
127.342 143.317 100.462
129.167 143.86 100.639
137.093 125.211 101.429
134.909 128.36 101.366
136.155 125.906 101.872
132.785 130.997 100.942
133.95 130.534 100.948
137.821 124.559 100.944
138.459 122.117 99.9535
136.9 123.734 101.779
135.327 126.459 102.294
134.869 130.292 101.036
136.882 127.345 101.327
136.053 129.826 101.409
138.493 124.302 100.949
136.863 129.754 101.617
138.22 120.601 99.384
137.6 121.28 100.755
137.603 119.127 99.6023
136.962 122.309 101.886
139.337 120.161 98.4492
138.292 117.387 99.2986
137.339 118.174 100.741
133.25 128.911 102.012
131.905 130.999 101.11
131.131 131.057 101.545
134.071 127.323 102.704
130.367 131.31 102.152
140.077 128.976 110.883
140.57 128.197 109.609
140.658 126.521 110.602
140.761 127.567 108.335
140.178 129.646 108.607
139.447 131.291 111.165
139.682 129.881 112.046
140.712 124.855 111.517
141.102 124.128 110.337
139.57 132.036 108.841
139.273 132.816 110.228
139.169 134.275 109.213
138.932 134.052 111.331
139.623 131.236 107.609
138.71 135.655 108.018
138.514 136.559 109.236
139.792 128.625 112.988
140.234 125.692 112.661
139.893 127.121 113.905
140.607 123.12 112.243
139.028 131.273 113.071
139.23 128.249 114.854
139.576 125.354 114.471
141.532 123.541 109.128
141.083 125.368 107.993
141.732 123.29 107.721
140.751 127.002 107.009
141.342 121.67 109.899
141.62 121.153 107.218
141.654 122.813 106.279
139.877 130.092 105.316
138.779 131.964 104.713
139.955 129.243 104.169
137.9 133.793 103.957
138.264 134.709 104.7
139.623 130.767 106.358
140.443 128.461 106.004
140.61 126.634 103.671
139.855 127.987 103.315
138.408 135.278 105.66
139.067 133.021 106.648
138.625 135.501 106.804
137.392 137.081 104.803
137.999 137.611 106.949
140.964 126.32 105.641
141.181 125.147 104.232
141.63 123.965 105.161
141.235 123.679 103.272
141.46 121.412 105.019
138.871 129.763 103.037
137.768 132.822 103.269
137.696 131.483 102.747
137.013 135.644 103.148
139.893 126.541 102.477
137.497 130.271 102.194
136.458 133.1 102.27
130.225 127.214 112.632
130.054 129.003 111.651
129.491 129.173 112.926
129.752 130.65 110.511
130.479 129.014 110.455
131.263 125.286 112.541
130.94 125.796 113.635
129.398 129.843 114.195
128.93 131.1 113.177
131.422 127.444 110.237
131.839 125.352 111.323
132.454 125.949 110.151
132.258 123.489 112.18
130.954 129.401 109.207
133.02 126.496 109.031
133.462 124.473 109.895
130.982 126.131 114.877
130.053 128.501 115.219
130.97 127.107 116.063
129.607 130.822 115.353
131.84 124.026 114.386
131.86 125.312 116.703
131.28 127.875 117.061
128.546 132.532 111.974
128.897 132.307 110.508
127.985 133.741 110.563
129.163 132.486 109.107
128.483 133.179 113.194
127.313 135.333 110.341
127.095 134.821 109.011
129.742 132.51 106.688
130.086 131.946 105.552
128.258 133.487 105.181
130.287 131.252 104.854
131.172 130.06 105.806
130.417 130.983 107.929
129.213 132.594 107.695
126.528 134.554 104.852
126.415 134.103 103.814
132.016 128.842 106.811
131.493 129.478 108.003
132.653 127.735 107.944
132.78 127.839 106.163
134.008 125.81 108.162
128.067 133.625 107.647
126.718 134.844 106.051
126.931 134.845 107.541
125.093 135.611 104.705
125.976 136.004 107.579
127.105 133.419 103.264
129.386 132.016 103.935
128.212 132.704 102.843
131.161 129.696 104.488
124.948 134.542 102.429
127.239 133.325 101.731
129.636 131.861 102.72
133.458 144.59 109.382
132.124 145.986 108.649
133.038 145.176 107.76
130.597 146.929 107.804
131.13 146.153 109.712
134.167 143.846 111.09
134.944 143.095 110.146
133.997 144.108 106.915
132.53 145.259 106.059
131.678 145.043 111.652
133.497 144.001 112.318
132.662 143.822 113.544
134.685 142.438 112.554
130.215 145.396 110.587
131.587 143.074 114.118
133.343 142.293 114.953
135.756 141.97 109.236
135.42 142.606 107.6
136.756 140.846 108.35
135.035 142.848 106.177
136.264 141.195 110.661
137.706 138.912 109
137.371 139.619 107.421
131.367 146.045 104.799
130.07 146.977 105.746
129.746 146.419 103.682
128.942 146.654 106.875
132.339 144.655 104.273
129.692 145.338 101.98
127.999 145.838 103.038
127.936 144.038 108.659
127.973 142.282 109.409
126.81 142.951 107.764
127.862 140.89 110.399
128.702 141.55 111.206
129.157 144.805 109.546
128.226 145.377 107.627
126.21 142.935 105.885
125.996 141.659 106.761
129.59 142.18 112.141
129.953 143.901 111.351
130.61 142.591 113.245
129.535 140.515 113.133
131.277 141.433 115.225
127.641 145.537 105.781
126.527 144.005 104.773
126.954 145.124 103.768
125.677 142.397 103.899
126.816 144.308 101.947
126.091 140.226 107.668
127.125 139.845 109.586
126.343 138.631 108.86
128.002 139.249 111.336
125.363 140.252 105.93
125.854 137.54 108.137
126.749 137.103 109.844
141.388 110.515 104.17
141.69 111.84 105.472
142.096 112.619 103.239
141.65 113.319 106.716
141.201 111.207 107.561
139.626 110.126 105.548
139.85 111.5 103.616
142.286 113.249 100.878
142.18 114.565 102.589
140.445 110.012 108.932
138.872 109.268 107.597
138.649 109.537 109.966
138.484 110.92 106.997
140.716 112.064 109.692
138.95 110.321 111.836
137.705 111.08 110.721
139.769 113.086 102.019
140.788 113.534 100.15
139.833 114.795 100.474
141.81 114.837 99.1137
139.078 113.12 103.879
138.58 115.824 101.628
139.215 116.112 99.3309
141.711 115.713 104.303
141.946 115.287 106.253
141.998 117.509 105.577
141.635 114.986 107.853
141.935 116.311 102.396
141.79 119.091 104.762
142.057 118.851 106.734
136.822 115.959 107.776
137.52 114.537 106.557
137.138 116.725 106.515
138.417 113.731 105.334
137.897 112.521 106.734
136.411 115.614 109.068
135.846 117.279 108.895
136.752 118.845 106.686
137.389 117.841 105.539
137.61 112.412 108.347
136.633 114.182 109.623
137.161 112.583 110.129
136.06 115.649 110.793
137.191 112.879 111.861
135.333 119.161 108.732
135.886 120.144 107.585
135.033 121.33 108.469
136.233 121.104 106.638
134.743 118.539 109.968
134.42 122.588 109.346
134.787 123.584 108.245
137.817 117.083 104.295
138.467 114.918 104.063
138.168 116.393 102.95
137.329 119.025 104.514
137.594 117.603 101.94
136.986 136.611 114.545
136.887 138.285 113.371
137.621 135.894 113.386
136.589 139.857 112.04
135.873 140.498 113.066
136.336 136.984 115.55
137.178 134.887 115.673
138.359 133.814 113.31
138.238 135.311 112.372
135.201 140.779 114.1
135.581 138.846 115.598
134.458 140.671 115.374
137.949 132.772 115.58
138.498 132.268 114.227
138.481 130.433 115.102
138.1 136.469 111.337
137.325 138.976 111.124
137.888 137.744 110.142
134.358 141.553 103.268
134.101 140.459 101.839
135.386 139.593 102.944
133.471 139.367 100.814
132.673 141.062 101.001
133.398 143.217 103.741
134.59 142.297 104.784
136.432 138.789 103.8
135.834 137.633 102.899
131.797 142.505 101.054
132.182 143.779 102.687
130.775 144.048 101.493
135.941 141.267 105.453
136.802 139.26 104.853
137.099 139.516 106.135
135.742 136.317 102.25
134.29 137.25 101.291
135.526 135.166 101.571
140.474 117.224 112.552
140.824 118.58 111.541
140.828 116.201 110.869
141.27 119.786 110.677
140.727 120.729 111.997
139.835 118.39 113.969
139.964 116.192 113.469
140.957 113.955 110.25
141.353 115.362 109.3
140.283 121.719 113.184
139.741 120.545 114.272
139.747 122.933 114.401
139.673 114.258 113.187
140.408 113.006 111.529
139.68 112.088 112.779
141.562 117.218 108.643
141.647 119.507 109.426
141.87 119.252 107.972
140.758 121.079 101.066
140.819 120.076 99.6279
141.733 118.421 99.8284
140.59 120.059 98.6927
139.518 122.205 100.642
140.289 124.377 101.759
141.048 122.25 102.089
141.875 116.941 100.912
142.229 116.589 99.0264
139.023 124.839 101.27
139.456 125.973 101.826
138.224 127.812 101.703
141.22 121.291 102.789
141.729 118.558 102.448
141.475 120.161 103.868
141.48 116.972 97.3046
140.18 119.2 97.8389
139.2 117.294 98.3322
130.151 135.371 116.45
129.368 134.858 115.285
129.249 136.842 114.921
128.77 134.297 114.172
129.424 132.967 115.546
131.13 133.729 117.668
131.125 135.887 117.359
129.524 138.641 114.321
128.613 138.068 113.211
130.078 131.408 116.491
131.026 131.821 117.627
131.065 129.692 117.398
131.067 137.906 116.718
130.23 139.322 115.035
131.069 139.821 116.175
127.975 137.432 112.158
128.145 135.285 112.812
127.691 136.29 111.244
123.923 137.233 102.018
123.926 137.833 100.808
124.357 138.881 102.567
124.532 138.924 99.654
123.874 136.9 99.3242
123.772 135.513 101.731
124.384 136.64 103.453
124.819 139.725 104.383
124.951 140.601 102.993
123.964 134.741 99.2986
124.417 134.329 101.069
125.827 133.89 100.648
124.401 136.763 105.176
124.829 138.576 105.65
125.139 137.159 106.839
125.437 141.558 102.187
125.222 140.633 100.225
126.034 142.704 101.166
133.226 120.129 113.538
134.021 118.936 114.467
134.095 118.707 112.816
134.903 117.758 115.315
133.977 119.445 116.082
132.484 121.709 114.134
132.686 121.589 112.697
134.388 118.624 111.345
134.984 117.251 111.95
133.022 121.183 116.411
132.414 122.594 115.285
132.355 123.234 116.62
133.035 122.021 111.452
133.944 120.295 110.658
133.811 122.454 110.36
135.831 116.043 112.357
135.734 116.268 114.115
136.658 114.615 112.923
135.41 124.799 104.003
134.525 125.904 104.778
135.874 123.441 104.869
133.784 126.909 105.461
132.814 128.051 104.545
134.83 126.167 103.394
136.264 123.605 103.113
136.885 121.071 104.645
136.212 122.259 105.718
131.849 128.89 103.696
132.904 128.13 103.114
131.156 130.111 102.952
136.862 121.672 102.567
137.164 120.369 103.48
137.206 119.533 102.133
135.554 123.543 106.528
134.303 125.925 106.303
134.84 124.886 107.356
POLYGONS 1280  5120
3 164 162 163
3 163 44 164
3 162 43 163
3 164 42 162
3 166 165 163
3 163 43 166
3 165 44 163
3 166 14 165
3 168 167 162
3 162 42 168
3 167 43 162
3 168 13 167
3 170 169 164
3 164 44 170
3 169 42 164
3 170 12 169
3 173 171 172
3 172 46 173
3 171 43 172
3 173 45 171
3 167 174 172
3 172 43 167
3 174 46 172
3 167 13 174
3 175 166 171
3 171 45 175
3 166 43 171
3 175 14 166
3 177 176 173
3 173 46 177
3 176 45 173
3 177 4 176
3 180 178 179
3 179 48 180
3 178 42 179
3 180 47 178
3 169 181 179
3 179 42 169
3 181 48 179
3 169 12 181
3 182 168 178
3 178 47 182
3 168 42 178
3 182 13 168
3 184 183 180
3 180 48 184
3 183 47 180
3 184 8 183
3 187 185 186
3 186 50 187
3 185 44 186
3 187 49 185
3 165 188 186
3 186 44 165
3 188 50 186
3 165 14 188
3 189 170 185
3 185 49 189
3 170 44 185
3 189 12 170
3 191 190 187
3 187 50 191
3 190 49 187
3 191 7 190
3 194 192 193
3 193 53 194
3 192 52 193
3 194 51 192
3 196 195 193
3 193 52 196
3 195 53 193
3 196 16 195
3 198 197 192
3 192 51 198
3 197 52 192
3 198 14 197
3 200 199 194
3 194 53 200
3 199 51 194
3 200 15 199
3 203 201 202
3 202 45 203
3 201 52 202
3 203 54 201
3 197 175 202
3 202 52 197
3 175 45 202
3 197 14 175
3 204 196 201
3 201 54 204
3 196 52 201
3 204 16 196
3 176 205 203
3 203 45 176
3 205 54 203
3 176 4 205
3 208 206 207
3 207 55 208
3 206 51 207
3 208 50 206
3 199 209 207
3 207 51 199
3 209 55 207
3 199 15 209
3 188 198 206
3 206 50 188
3 198 51 206
3 188 14 198
3 210 191 208
3 208 55 210
3 191 50 208
3 210 7 191
3 213 211 212
3 212 57 213
3 211 53 212
3 213 56 211
3 195 214 212
3 212 53 195
3 214 57 212
3 195 16 214
3 215 200 211
3 211 56 215
3 200 53 211
3 215 15 200
3 217 216 213
3 213 57 217
3 216 56 213
3 217 9 216
3 220 218 219
3 219 60 220
3 218 59 219
3 220 58 218
3 222 221 219
3 219 59 222
3 221 60 219
3 222 19 221
3 224 223 218
3 218 58 224
3 223 59 218
3 224 18 223
3 226 225 220
3 220 60 226
3 225 58 220
3 226 17 225
3 229 227 228
3 228 62 229
3 227 59 228
3 229 61 227
3 223 230 228
3 228 59 223
3 230 62 228
3 223 18 230
3 231 222 227
3 227 61 231
3 222 59 227
3 231 19 222
3 233 232 229
3 229 62 233
3 232 61 229
3 233 5 232
3 236 234 235
3 235 64 236
3 234 58 235
3 236 63 234
3 225 237 235
3 235 58 225
3 237 64 235
3 225 17 237
3 238 224 234
3 234 63 238
3 224 58 234
3 238 18 224
3 240 239 236
3 236 64 240
3 239 63 236
3 240 6 239
3 243 241 242
3 242 66 243
3 241 60 242
3 243 65 241
3 221 244 242
3 242 60 221
3 244 66 242
3 221 19 244
3 245 226 241
3 241 65 245
3 226 60 241
3 245 17 226
3 247 246 243
3 243 66 247
3 246 65 243
3 247 11 246
3 250 248 249
3 249 69 250
3 248 68 249
3 250 67 248
3 252 251 249
3 249 68 252
3 251 69 249
3 252 18 251
3 254 253 248
3 248 67 254
3 253 68 248
3 254 21 253
3 256 255 250
3 250 69 256
3 255 67 250
3 256 20 255
3 259 257 258
3 258 70 259
3 257 68 258
3 259 62 257
3 253 260 258
3 258 68 253
3 260 70 258
3 253 21 260
3 230 252 257
3 257 62 230
3 252 68 257
3 230 18 252
3 261 233 259
3 259 70 261
3 233 62 259
3 261 5 233
3 264 262 263
3 263 72 264
3 262 67 263
3 264 71 262
3 255 265 263
3 263 67 255
3 265 72 263
3 255 20 265
3 266 254 262
3 262 71 266
3 254 67 262
3 266 21 254
3 268 267 264
3 264 72 268
3 267 71 264
3 268 10 267
3 271 269 270
3 270 63 271
3 269 69 270
3 271 73 269
3 251 238 270
3 270 69 251
3 238 63 270
3 251 18 238
3 272 256 269
3 269 73 272
3 256 69 269
3 272 20 256
3 239 273 271
3 271 63 239
3 273 73 271
3 239 6 273
3 276 274 275
3 275 76 276
3 274 75 275
3 276 74 274
3 278 277 275
3 275 75 278
3 277 76 275
3 278 24 277
3 280 279 274
3 274 74 280
3 279 75 274
3 280 23 279
3 282 281 276
3 276 76 282
3 281 74 276
3 282 22 281
3 285 283 284
3 284 78 285
3 283 75 284
3 285 77 283
3 279 286 284
3 284 75 279
3 286 78 284
3 279 23 286
3 287 278 283
3 283 77 287
3 278 75 283
3 287 24 278
3 289 288 285
3 285 78 289
3 288 77 285
3 289 0 288
3 292 290 291
3 291 80 292
3 290 74 291
3 292 79 290
3 281 293 291
3 291 74 281
3 293 80 291
3 281 22 293
3 294 280 290
3 290 79 294
3 280 74 290
3 294 23 280
3 296 295 292
3 292 80 296
3 295 79 292
3 296 4 295
3 299 297 298
3 298 82 299
3 297 76 298
3 299 81 297
3 277 300 298
3 298 76 277
3 300 82 298
3 277 24 300
3 301 282 297
3 297 81 301
3 282 76 297
3 301 22 282
3 303 302 299
3 299 82 303
3 302 81 299
3 303 3 302
3 306 304 305
3 305 85 306
3 304 84 305
3 306 83 304
3 308 307 305
3 305 84 308
3 307 85 305
3 308 26 307
3 310 309 304
3 304 83 310
3 309 84 304
3 310 24 309
3 312 311 306
3 306 85 312
3 311 83 306
3 312 25 311
3 315 313 314
3 314 77 315
3 313 84 314
3 315 86 313
3 309 287 314
3 314 84 309
3 287 77 314
3 309 24 287
3 316 308 313
3 313 86 316
3 308 84 313
3 316 26 308
3 288 317 315
3 315 77 288
3 317 86 315
3 288 0 317
3 320 318 319
3 319 87 320
3 318 83 319
3 320 82 318
3 311 321 319
3 319 83 311
3 321 87 319
3 311 25 321
3 300 310 318
3 318 82 300
3 310 83 318
3 300 24 310
3 322 303 320
3 320 87 322
3 303 82 320
3 322 3 303
3 325 323 324
3 324 89 325
3 323 85 324
3 325 88 323
3 307 326 324
3 324 85 307
3 326 89 324
3 307 26 326
3 327 312 323
3 323 88 327
3 312 85 323
3 327 25 312
3 329 328 325
3 325 89 329
3 328 88 325
3 329 5 328
3 332 330 331
3 331 92 332
3 330 91 331
3 332 90 330
3 334 333 331
3 331 91 334
3 333 92 331
3 334 29 333
3 336 335 330
3 330 90 336
3 335 91 330
3 336 28 335
3 338 337 332
3 332 92 338
3 337 90 332
3 338 27 337
3 341 339 340
3 340 94 341
3 339 91 340
3 341 93 339
3 335 342 340
3 340 91 335
3 342 94 340
3 335 28 342
3 343 334 339
3 339 93 343
3 334 91 339
3 343 29 334
3 345 344 341
3 341 94 345
3 344 93 341
3 345 2 344
3 348 346 347
3 347 96 348
3 346 90 347
3 348 95 346
3 337 349 347
3 347 90 337
3 349 96 347
3 337 27 349
3 350 336 346
3 346 95 350
3 336 90 346
3 350 28 336
3 352 351 348
3 348 96 352
3 351 95 348
3 352 7 351
3 355 353 354
3 354 98 355
3 353 92 354
3 355 97 353
3 333 356 354
3 354 92 333
3 356 98 354
3 333 29 356
3 357 338 353
3 353 97 357
3 338 92 353
3 357 27 338
3 359 358 355
3 355 98 359
3 358 97 355
3 359 1 358
3 362 360 361
3 361 101 362
3 360 100 361
3 362 99 360
3 364 363 361
3 361 100 364
3 363 101 361
3 364 31 363
3 366 365 360
3 360 99 366
3 365 100 360
3 366 29 365
3 368 367 362
3 362 101 368
3 367 99 362
3 368 30 367
3 371 369 370
3 370 93 371
3 369 100 370
3 371 102 369
3 365 343 370
3 370 100 365
3 343 93 370
3 365 29 343
3 372 364 369
3 369 102 372
3 364 100 369
3 372 31 364
3 344 373 371
3 371 93 344
3 373 102 371
3 344 2 373
3 376 374 375
3 375 103 376
3 374 99 375
3 376 98 374
3 367 377 375
3 375 99 367
3 377 103 375
3 367 30 377
3 356 366 374
3 374 98 356
3 366 99 374
3 356 29 366
3 378 359 376
3 376 103 378
3 359 98 376
3 378 1 359
3 381 379 380
3 380 105 381
3 379 101 380
3 381 104 379
3 363 382 380
3 380 101 363
3 382 105 380
3 363 31 382
3 383 368 379
3 379 104 383
3 368 101 379
3 383 30 368
3 385 384 381
3 381 105 385
3 384 104 381
3 385 6 384
3 388 386 387
3 387 108 388
3 386 107 387
3 388 106 386
3 390 389 387
3 387 107 390
3 389 108 387
3 390 34 389
3 392 391 386
3 386 106 392
3 391 107 386
3 392 33 391
3 394 393 388
3 388 108 394
3 393 106 388
3 394 32 393
3 397 395 396
3 396 110 397
3 395 107 396
3 397 109 395
3 391 398 396
3 396 107 391
3 398 110 396
3 391 33 398
3 399 390 395
3 395 109 399
3 390 107 395
3 399 34 390
3 401 400 397
3 397 110 401
3 400 109 397
3 401 8 400
3 404 402 403
3 403 112 404
3 402 106 403
3 404 111 402
3 393 405 403
3 403 106 393
3 405 112 403
3 393 32 405
3 406 392 402
3 402 111 406
3 392 106 402
3 406 33 392
3 408 407 404
3 404 112 408
3 407 111 404
3 408 0 407
3 411 409 410
3 410 114 411
3 409 108 410
3 411 113 409
3 389 412 410
3 410 108 389
3 412 114 410
3 389 34 412
3 413 394 409
3 409 113 413
3 394 108 409
3 413 32 394
3 415 414 411
3 411 114 415
3 414 113 411
3 415 11 414
3 418 416 417
3 417 117 418
3 416 116 417
3 418 115 416
3 420 419 417
3 417 116 420
3 419 117 417
3 420 36 419
3 422 421 416
3 416 115 422
3 421 116 416
3 422 34 421
3 424 423 418
3 418 117 424
3 423 115 418
3 424 35 423
3 427 425 426
3 426 109 427
3 425 116 426
3 427 118 425
3 421 399 426
3 426 116 421
3 399 109 426
3 421 34 399
3 428 420 425
3 425 118 428
3 420 116 425
3 428 36 420
3 400 429 427
3 427 109 400
3 429 118 427
3 400 8 429
3 432 430 431
3 431 119 432
3 430 115 431
3 432 114 430
3 423 433 431
3 431 115 423
3 433 119 431
3 423 35 433
3 412 422 430
3 430 114 412
3 422 115 430
3 412 34 422
3 434 415 432
3 432 119 434
3 415 114 432
3 434 11 415
3 437 435 436
3 436 121 437
3 435 117 436
3 437 120 435
3 419 438 436
3 436 117 419
3 438 121 436
3 419 36 438
3 439 424 435
3 435 120 439
3 424 117 435
3 439 35 424
3 441 440 437
3 437 121 441
3 440 120 437
3 441 1 440
3 444 442 443
3 443 124 444
3 442 123 443
3 444 122 442
3 446 445 443
3 443 123 446
3 445 124 443
3 446 39 445
3 448 447 442
3 442 122 448
3 447 123 442
3 448 38 447
3 450 449 444
3 444 124 450
3 449 122 444
3 450 37 449
3 453 451 452
3 452 126 453
3 451 123 452
3 453 125 451
3 447 454 452
3 452 123 447
3 454 126 452
3 447 38 454
3 455 446 451
3 451 125 455
3 446 123 451
3 455 39 446
3 457 456 453
3 453 126 457
3 456 125 453
3 457 9 456
3 460 458 459
3 459 128 460
3 458 122 459
3 460 127 458
3 449 461 459
3 459 122 449
3 461 128 459
3 449 37 461
3 462 448 458
3 458 127 462
3 448 122 458
3 462 38 448
3 464 463 460
3 460 128 464
3 463 127 460
3 464 10 463
3 467 465 466
3 466 130 467
3 465 124 466
3 467 129 465
3 445 468 466
3 466 124 445
3 468 130 466
3 445 39 468
3 469 450 465
3 465 129 469
3 450 124 465
3 469 37 450
3 471 470 467
3 467 130 471
3 470 129 467
3 471 3 470
3 474 472 473
3 473 133 474
3 472 132 473
3 474 131 472
3 476 475 473
3 473 132 476
3 475 133 473
3 476 38 475
3 478 477 472
3 472 131 478
3 477 132 472
3 478 41 477
3 480 479 474
3 474 133 480
3 479 131 474
3 480 40 479
3 483 481 482
3 482 134 483
3 481 132 482
3 483 126 481
3 477 484 482
3 482 132 477
3 484 134 482
3 477 41 484
3 454 476 481
3 481 126 454
3 476 132 481
3 454 38 476
3 485 457 483
3 483 134 485
3 457 126 483
3 485 9 457
3 488 486 487
3 487 136 488
3 486 131 487
3 488 135 486
3 479 489 487
3 487 131 479
3 489 136 487
3 479 40 489
3 490 478 486
3 486 135 490
3 478 131 486
3 490 41 478
3 492 491 488
3 488 136 492
3 491 135 488
3 492 2 491
3 495 493 494
3 494 127 495
3 493 133 494
3 495 137 493
3 475 462 494
3 494 133 475
3 462 127 494
3 475 38 462
3 496 480 493
3 493 137 496
3 480 133 493
3 496 40 480
3 463 497 495
3 495 127 463
3 497 137 495
3 463 10 497
3 500 498 499
3 499 140 500
3 498 139 499
3 500 138 498
3 502 501 499
3 499 139 502
3 501 140 499
3 502 33 501
3 504 503 498
3 498 138 504
3 503 139 498
3 504 13 503
3 506 505 500
3 500 140 506
3 505 138 500
3 506 23 505
3 509 507 508
3 508 47 509
3 507 139 508
3 509 110 507
3 503 182 508
3 508 139 503
3 182 47 508
3 503 13 182
3 398 502 507
3 507 110 398
3 502 139 507
3 398 33 502
3 183 401 509
3 509 47 183
3 401 110 509
3 183 8 401
3 512 510 511
3 511 79 512
3 510 138 511
3 512 46 510
3 505 294 511
3 511 138 505
3 294 79 511
3 505 23 294
3 174 504 510
3 510 46 174
3 504 138 510
3 174 13 504
3 295 177 512
3 512 79 295
3 177 46 512
3 295 4 177
3 515 513 514
3 514 111 515
3 513 140 514
3 515 78 513
3 501 406 514
3 514 140 501
3 406 111 514
3 501 33 406
3 286 506 513
3 513 78 286
3 506 140 513
3 286 23 506
3 407 289 515
3 515 111 407
3 289 78 515
3 407 0 289
3 518 516 517
3 517 143 518
3 516 142 517
3 518 141 516
3 520 519 517
3 517 142 520
3 519 143 517
3 520 19 519
3 522 521 516
3 516 141 522
3 521 142 516
3 522 32 521
3 524 523 518
3 518 143 524
3 523 141 518
3 524 26 523
3 527 525 526
3 526 113 527
3 525 142 526
3 527 66 525
3 521 413 526
3 526 142 521
3 413 113 526
3 521 32 413
3 244 520 525
3 525 66 244
3 520 142 525
3 244 19 520
3 414 247 527
3 527 113 414
3 247 66 527
3 414 11 247
3 530 528 529
3 529 86 530
3 528 141 529
3 530 112 528
3 523 316 529
3 529 141 523
3 316 86 529
3 523 26 316
3 405 522 528
3 528 112 405
3 522 141 528
3 405 32 522
3 317 408 530
3 530 86 317
3 408 112 530
3 317 0 408
3 533 531 532
3 532 61 533
3 531 143 532
3 533 89 531
3 519 231 532
3 532 143 519
3 231 61 532
3 519 19 231
3 326 524 531
3 531 89 326
3 524 143 531
3 326 26 524
3 232 329 533
3 533 61 232
3 329 89 533
3 232 5 329
3 536 534 535
3 535 146 536
3 534 145 535
3 536 144 534
3 538 537 535
3 535 145 538
3 537 146 535
3 538 22 537
3 540 539 534
3 534 144 540
3 539 145 534
3 540 16 539
3 542 541 536
3 536 146 542
3 541 144 536
3 542 39 541
3 545 543 544
3 544 54 545
3 543 145 544
3 545 80 543
3 539 204 544
3 544 145 539
3 204 54 544
3 539 16 204
3 293 538 543
3 543 80 293
3 538 145 543
3 293 22 538
3 205 296 545
3 545 54 205
3 296 80 545
3 205 4 296
3 548 546 547
3 547 125 548
3 546 144 547
3 548 57 546
3 541 455 547
3 547 144 541
3 455 125 547
3 541 39 455
3 214 540 546
3 546 57 214
3 540 144 546
3 214 16 540
3 456 217 548
3 548 125 456
3 217 57 548
3 456 9 217
3 551 549 550
3 550 81 551
3 549 146 550
3 551 130 549
3 537 301 550
3 550 146 537
3 301 81 550
3 537 22 301
3 468 542 549
3 549 130 468
3 542 146 549
3 468 39 542
3 302 471 551
3 551 81 302
3 471 130 551
3 302 3 471
3 554 552 553
3 553 149 554
3 552 148 553
3 554 147 552
3 556 555 553
3 553 148 556
3 555 149 553
3 556 21 555
3 558 557 552
3 552 147 558
3 557 148 552
3 558 25 557
3 560 559 554
3 554 149 560
3 559 147 554
3 560 37 559
3 563 561 562
3 562 88 563
3 561 148 562
3 563 70 561
3 557 327 562
3 562 148 557
3 327 88 562
3 557 25 327
3 260 556 561
3 561 70 260
3 556 148 561
3 260 21 556
3 328 261 563
3 563 88 328
3 261 70 563
3 328 5 261
3 566 564 565
3 565 129 566
3 564 147 565
3 566 87 564
3 559 469 565
3 565 147 559
3 469 129 565
3 559 37 469
3 321 558 564
3 564 87 321
3 558 147 564
3 321 25 558
3 470 322 566
3 566 129 470
3 322 87 566
3 470 3 322
3 569 567 568
3 568 71 569
3 567 149 568
3 569 128 567
3 555 266 568
3 568 149 555
3 266 71 568
3 555 21 266
3 461 560 567
3 567 128 461
3 560 149 567
3 461 37 560
3 267 464 569
3 569 71 267
3 464 128 569
3 267 10 464
3 572 570 571
3 571 152 572
3 570 151 571
3 572 150 570
3 574 573 571
3 571 151 574
3 573 152 571
3 574 27 573
3 576 575 570
3 570 150 576
3 575 151 570
3 576 12 575
3 578 577 572
3 572 152 578
3 577 150 572
3 578 36 577
3 581 579 580
3 580 49 581
3 579 151 580
3 581 96 579
3 575 189 580
3 580 151 575
3 189 49 580
3 575 12 189
3 349 574 579
3 579 96 349
3 574 151 579
3 349 27 574
3 190 352 581
3 581 49 190
3 352 96 581
3 190 7 352
3 584 582 583
3 583 118 584
3 582 150 583
3 584 48 582
3 577 428 583
3 583 150 577
3 428 118 583
3 577 36 428
3 181 576 582
3 582 48 181
3 576 150 582
3 181 12 576
3 429 184 584
3 584 118 429
3 184 48 584
3 429 8 184
3 587 585 586
3 586 97 587
3 585 152 586
3 587 121 585
3 573 357 586
3 586 152 573
3 357 97 586
3 573 27 357
3 438 578 585
3 585 121 438
3 578 152 585
3 438 36 578
3 358 441 587
3 587 97 358
3 441 121 587
3 358 1 441
3 590 588 589
3 589 155 590
3 588 154 589
3 590 153 588
3 592 591 589
3 589 154 592
3 591 155 589
3 592 17 591
3 594 593 588
3 588 153 594
3 593 154 588
3 594 30 593
3 596 595 590
3 590 155 596
3 595 153 590
3 596 35 595
3 599 597 598
3 598 104 599
3 597 154 598
3 599 64 597
3 593 383 598
3 598 154 593
3 383 104 598
3 593 30 383
3 237 592 597
3 597 64 237
3 592 154 597
3 237 17 592
3 384 240 599
3 599 104 384
3 240 64 599
3 384 6 240
3 602 600 601
3 601 120 602
3 600 153 601
3 602 103 600
3 595 439 601
3 601 153 595
3 439 120 601
3 595 35 439
3 377 594 600
3 600 103 377
3 594 153 600
3 377 30 594
3 440 378 602
3 602 120 440
3 378 103 602
3 440 1 378
3 605 603 604
3 604 65 605
3 603 155 604
3 605 119 603
3 591 245 604
3 604 155 591
3 245 65 604
3 591 17 245
3 433 596 603
3 603 119 433
3 596 155 603
3 433 35 596
3 246 434 605
3 605 65 246
3 434 119 605
3 246 11 434
3 608 606 607
3 607 158 608
3 606 157 607
3 608 156 606
3 610 609 607
3 607 157 610
3 609 158 607
3 610 15 609
3 612 611 606
3 606 156 612
3 611 157 606
3 612 28 611
3 614 613 608
3 608 158 614
3 613 156 608
3 614 41 613
3 617 615 616
3 616 95 617
3 615 157 616
3 617 55 615
3 611 350 616
3 616 157 611
3 350 95 616
3 611 28 350
3 209 610 615
3 615 55 209
3 610 157 615
3 209 15 610
3 351 210 617
3 617 95 351
3 210 55 617
3 351 7 210
3 620 618 619
3 619 135 620
3 618 156 619
3 620 94 618
3 613 490 619
3 619 156 613
3 490 135 619
3 613 41 490
3 342 612 618
3 618 94 342
3 612 156 618
3 342 28 612
3 491 345 620
3 620 135 491
3 345 94 620
3 491 2 345
3 623 621 622
3 622 56 623
3 621 158 622
3 623 134 621
3 609 215 622
3 622 158 609
3 215 56 622
3 609 15 215
3 484 614 621
3 621 134 484
3 614 158 621
3 484 41 614
3 216 485 623
3 623 56 216
3 485 134 623
3 216 9 485
3 626 624 625
3 625 161 626
3 624 160 625
3 626 159 624
3 628 627 625
3 625 160 628
3 627 161 625
3 628 31 627
3 630 629 624
3 624 159 630
3 629 160 624
3 630 20 629
3 632 631 626
3 626 161 632
3 631 159 626
3 632 40 631
3 635 633 634
3 634 73 635
3 633 160 634
3 635 105 633
3 629 272 634
3 634 160 629
3 272 73 634
3 629 20 272
3 382 628 633
3 633 105 382
3 628 160 633
3 382 31 628
3 273 385 635
3 635 73 273
3 385 105 635
3 273 6 385
3 638 636 637
3 637 137 638
3 636 159 637
3 638 72 636
3 631 496 637
3 637 159 631
3 496 137 637
3 631 40 496
3 265 630 636
3 636 72 265
3 630 159 636
3 265 20 630
3 497 268 638
3 638 137 497
3 268 72 638
3 497 10 268
3 641 639 640
3 640 102 641
3 639 161 640
3 641 136 639
3 627 372 640
3 640 161 627
3 372 102 640
3 627 31 372
3 489 632 639
3 639 136 489
3 632 161 639
3 489 40 632
3 373 492 641
3 641 102 373
3 492 136 641
3 373 2 492
