# vtk DataFile Version 3.0
this file was written using fslvtkio
ASCII
DATASET POLYDATA
POINTS 642 float
131.078 128.699 106.025
121.712 127.865 105.215
126.491 121.382 104.948
135.221 119.27 105.126
130.694 124.208 110.749
132.246 124.355 101.39
125.705 124.209 100.699
125.688 124.42 110.212
125.492 132.947 110.009
131.047 116.675 108.488
131.253 117.099 101.569
125.963 131.723 102.638
124.956 128.718 111.249
128.263 129.247 111.479
128.411 123.825 112.45
128.59 120.502 109.904
131.979 119.273 111.114
125.379 127.999 101.636
129.199 124.024 100.895
129.431 128.459 101.784
128.703 120.528 100.889
132.867 119.865 100.903
133.42 120.877 108.394
130.986 127.045 108.715
133.831 124.21 105.587
134.832 121.285 102.372
132.302 127.251 103.127
123.11 127.208 108.548
126.28 122.995 107.566
123.333 124.335 104.87
122.438 126.288 101.724
125.37 122.444 102.402
128.748 131.459 104.259
128.247 131.838 108.024
124.413 134.39 105.78
122.18 130.964 103.406
122.028 131.498 107.529
135.518 115.652 101.918
131.435 115.421 104.666
134.593 115.633 107.292
128.605 118.573 103.214
128.956 118.826 106.593
126.618 129.273 112.018
128.32 126.719 112.575
126.552 126.347 112.242
129.811 124.066 112.135
129.449 126.764 111.256
127.051 131.453 111.138
125.001 130.976 110.665
124.938 126.351 111.017
126.82 124.132 111.519
128.205 122.009 111.447
130.242 121.58 112.348
130.039 119.477 111.182
131.41 121.81 111.087
127.139 122.582 109.993
129.798 118.708 109.107
131.506 117.552 110.24
127.306 126.264 101.021
129.171 126.267 101.279
127.523 128.142 101.692
130.794 126.4 101.472
130.717 124.116 101.148
127.481 124.185 100.721
125.569 126.131 100.865
125.835 129.732 102.208
127.761 130.157 102.176
130.764 120.2 100.688
130.938 121.952 100.834
128.845 122.323 100.775
132.444 122.135 101.036
132.116 118.361 100.956
129.966 118.786 101.103
127.084 122.431 100.862
132.45 124.082 108.625
132.524 125.518 107.29
133.686 122.802 107.227
132.445 126.458 105.827
131.141 127.972 107.428
130.819 125.678 109.765
132.154 122.635 109.634
134.392 120.104 106.881
134.614 121.829 105.488
134.568 123.02 103.934
133.196 125.72 104.299
133.886 124.446 102.723
131.658 127.994 104.546
135.271 120.453 103.744
133.716 123.011 101.646
132.535 126.011 101.968
124.56 125.09 108.012
124.642 123.782 106.47
123.38 125.629 106.763
124.88 122.971 104.995
126.249 122.078 106.256
126.059 123.754 108.848
124.324 125.81 109.471
122.462 127.372 106.828
122.426 125.966 104.987
122.522 124.962 103.211
124.154 123.282 103.517
123.383 124.066 101.789
125.981 121.858 103.678
121.769 126.925 103.393
123.923 125.238 100.886
125.333 123.122 101.309
128.276 132.063 106.043
126.505 133.831 107.164
126.454 133.434 104.817
124.787 134.074 108.206
127.114 132.794 109.284
129.724 130.342 107.057
130.12 130.216 105.172
127.545 131.906 103.19
124.897 133.385 103.549
122.985 133.381 103.914
122.734 133.652 106.837
121.107 131.7 105.246
123.586 132.286 109
124.133 131.282 102.805
121.245 129.234 104.224
121.486 129.571 106.504
133.451 114.088 102.895
133.305 114.122 105.946
135.793 114.682 104.531
132.78 115.576 108.468
131.159 115.936 106.61
131.178 115.89 102.763
133.159 116.165 101.535
135.737 117.411 103.719
135.012 117.549 106.14
128.787 118.506 104.869
129.98 116.782 105.616
129.942 116.576 103.777
129.915 117.785 107.578
127.772 120.146 105.752
127.614 120.151 104.074
129.614 117.709 102.169
129.539 128.187 110.039
128.318 130.623 109.807
129.653 129.572 108.488
130.634 129.424 103.632
129.359 130.343 102.698
131.175 127.97 102.105
133.23 117.072 109.521
132.648 120.059 109.766
134.072 118.155 107.984
135.491 118.417 102.233
133.987 120.644 101.369
134.207 117.651 101.148
123.377 130.246 109.48
123.77 127.877 110.07
122.277 129.26 108.049
122.288 128.522 102.777
123.9 127.101 101.428
123.836 129.454 102.536
127.565 120.988 107.047
127.451 121.819 108.646
128.763 119.917 108.15
128.379 119.508 101.873
126.924 121.395 101.568
127.16 120.693 102.821
127.464 128.025 112.445
127.411 126.605 112.483
126.584 127.822 112.174
127.472 125.197 112.422
128.244 125.344 112.652
128.255 128.074 112.204
127.555 129.28 112.098
125.819 128.922 111.709
125.805 127.614 111.844
129.006 125.427 112.504
128.908 126.824 112.015
129.516 125.519 111.821
128.81 127.984 111.498
129.1 124.074 112.539
130.208 124.3 111.471
130.025 125.496 111.096
126.816 130.409 111.811
125.767 130.139 111.446
126.025 131.286 111.128
124.92 129.87 111.001
127.646 130.405 111.433
126.288 132.345 110.737
125.239 132.046 110.478
125.693 126.461 111.72
126.621 125.197 111.987
125.81 125.283 111.373
127.553 124.036 112.101
125.018 127.466 111.338
125.284 125.225 110.747
126.205 124.339 110.932
129.155 121.721 112.078
130.077 120.427 111.993
129.159 120.748 111.489
130.999 119.328 111.518
131.117 120.434 111.931
129.323 122.673 112.528
128.262 122.832 112.07
128.493 121.068 110.819
129.238 119.959 110.696
130.876 121.802 111.902
129.988 123.005 112.4
130.663 123.093 111.578
131.66 120.614 111.272
131.064 123.031 110.894
127.459 123.074 111.503
127.691 122.148 110.698
126.9 123.327 110.673
127.923 121.474 110.046
126.409 123.643 110.14
129.809 119.113 110.143
130.732 118.553 110.807
130.53 118.133 109.85
131.809 118.285 110.903
129.184 119.588 109.646
130.447 117.675 109.016
131.148 117.168 109.468
128.267 126.212 101.173
128.374 127.245 101.432
127.413 127.193 101.313
128.498 128.204 101.712
129.243 127.363 101.527
129.063 125.205 101.04
128.271 125.259 100.935
126.439 127.213 101.247
126.55 127.996 101.601
129.966 126.357 101.357
129.872 125.155 101.165
130.722 125.257 101.301
129.914 124.084 101.027
130.084 127.439 101.62
131.512 125.358 101.46
131.496 124.196 101.277
127.425 125.242 100.801
126.414 126.313 100.943
126.554 125.224 100.701
125.482 127.115 101.211
128.31 124.267 100.796
126.595 124.251 100.65
125.721 125.115 100.685
126.643 128.919 101.889
127.662 129.092 101.942
126.804 129.974 102.155
128.574 129.254 101.964
125.691 128.76 101.918
125.909 130.756 102.415
126.871 130.979 102.397
130.838 121.107 100.698
129.851 122.159 100.839
129.777 121.25 100.67
129.03 123.174 100.816
130.028 122.961 100.892
131.884 120.931 100.763
131.794 120.052 100.748
129.714 120.415 100.709
128.886 121.343 100.716
130.698 123.096 100.989
131.689 122.007 100.874
131.541 123.131 101.092
132.651 121.004 100.918
132.278 123.24 101.24
131.431 119.329 100.777
130.297 119.508 100.824
130.987 118.588 100.886
129.378 119.68 100.953
132.508 119.112 100.854
131.638 117.706 101.141
130.599 117.934 101.242
127.992 122.303 100.819
128.167 123.28 100.753
127.225 123.257 100.694
127.952 121.475 100.867
126.39 123.408 100.743
132.504 124.869 107.975
133.211 124.22 107.234
133.121 123.461 107.937
133.721 123.654 106.496
133.232 124.773 106.521
131.799 126.175 108.054
131.781 125.484 108.563
132.997 122.619 108.542
133.504 121.989 107.901
132.541 125.933 106.542
131.846 126.719 107.405
131.859 127.168 106.67
131.144 127.46 108.082
133.149 125.289 105.756
131.848 127.566 105.92
131.166 128.329 106.701
131.629 124.912 109.149
132.321 123.364 109.145
131.465 124.239 109.743
132.86 121.757 109.02
131.013 126.296 109.187
130.696 124.998 110.333
131.398 123.457 110.193
134.003 121.494 107.122
134.129 122.402 106.374
134.514 121.121 106.283
134.211 123.072 105.621
133.917 120.539 107.677
134.834 119.815 106.032
134.942 120.597 105.392
133.975 124.448 104.173
133.607 125.209 103.534
134.28 123.81 103.35
133.218 125.808 102.966
132.863 126.41 103.613
133.54 124.948 104.91
134.236 123.715 104.764
134.745 122.338 103.127
134.435 123 102.584
132.502 126.826 104.363
132.822 125.991 105.093
132.18 127.239 105.138
132.036 127.584 103.839
131.426 128.291 105.318
134.571 122.543 104.774
134.898 121.783 103.836
134.951 121.216 104.638
135.094 120.923 103.006
135.272 119.912 104.514
133.918 123.766 102.129
133.297 125.276 102.311
133.18 124.529 101.739
132.61 126.571 102.533
134.374 122.241 101.974
132.952 123.685 101.476
132.371 125.211 101.624
124.658 124.339 107.238
123.985 124.643 106.588
123.954 125.364 107.408
123.39 124.904 105.912
123.931 124.127 105.763
125.412 123.54 107.147
125.312 124.115 107.774
123.771 126.043 108.212
123.318 126.325 107.655
124.646 123.328 105.765
125.47 123.014 106.466
125.538 122.577 105.718
126.199 122.587 106.935
124.044 123.636 104.996
125.701 122.268 104.951
126.265 121.723 105.557
125.308 124.455 108.477
124.414 125.482 108.72
125.119 124.815 109.224
123.645 126.491 108.978
126.124 123.49 108.16
125.843 124.131 109.535
125.015 125.143 109.95
122.902 126.498 106.852
122.864 125.726 105.909
122.411 126.641 105.928
122.855 125.086 105.022
122.792 127.241 107.763
122.062 127.596 105.982
122.021 126.893 105.063
123.261 124.021 103.406
123.718 123.578 102.667
122.874 124.44 102.494
124.255 123.305 102.056
124.659 122.948 102.797
123.643 123.762 104.201
122.923 124.593 104.03
122.276 125.461 102.366
122.699 125.014 101.682
125.05 122.651 103.545
124.482 123.122 104.307
125.436 122.419 104.267
125.649 122.193 103.034
126.232 121.631 104.35
122.51 125.368 104.182
122.091 125.839 103.247
122.031 126.366 104.199
122.002 126.554 102.525
121.686 127.344 104.322
123.478 124.623 101.204
124.298 123.649 101.44
124.498 124.189 100.95
125.242 122.81 101.839
123.065 125.74 101.244
124.903 124.729 100.743
125.505 123.624 100.962
127.254 132.977 106.496
126.417 133.734 105.961
127.348 132.855 105.495
125.471 134.109 105.29
125.562 134.354 106.513
127.361 132.88 107.495
128.105 132.155 107.002
128.321 131.988 105.091
127.548 132.571 104.547
125.884 134.24 107.729
126.883 133.24 108.223
126.116 133.879 108.982
127.632 132.35 108.57
124.697 134.373 107.11
125.012 133.515 109.198
126.409 133.123 109.899
129.033 131.346 106.603
129.138 131.236 105.587
129.891 130.371 106.101
129.378 130.991 104.775
128.926 131.242 107.496
130.442 129.538 106.578
130.629 129.443 105.646
126.967 132.73 103.874
125.717 133.582 104.176
126.225 132.754 103.274
124.61 134.111 104.527
128.044 131.813 103.81
126.927 131.811 102.806
125.434 132.475 102.896
122.699 133.721 105.362
121.777 133.025 105.894
121.895 132.928 104.714
121.43 131.863 106.34
122.126 132.672 107.097
123.569 134.175 106.326
123.624 134.065 104.73
122.37 132.322 103.635
121.454 131.672 104.173
122.97 133.011 107.924
123.717 133.933 107.524
123.976 133.358 108.703
122.749 131.99 108.203
124.494 132.599 109.641
124.011 133.509 103.676
123.328 132.406 103.135
124.527 132.379 102.914
123.05 131.379 103.103
125.066 131.433 102.655
121 130.587 104.634
121.083 130.678 105.988
121.189 129.439 105.362
121.534 130.719 106.959
121.513 130.297 103.768
121.415 128.44 104.743
121.611 128.659 105.912
133.352 113.823 104.412
134.737 113.326 105.394
134.85 113.386 103.47
135.318 114.653 105.896
134.335 114.212 106.608
132.434 114.508 105.075
132.477 114.4 103.844
134.728 114.33 102.295
135.898 114.523 103.025
133.193 114.707 107.214
132.271 114.989 106.264
132.051 115.547 107.445
131.469 115.545 105.627
133.876 115.188 107.892
131.693 116.105 108.474
130.919 116.417 107.479
132.253 114.931 102.83
133.459 114.996 102.077
132.115 115.971 102.069
134.409 115.544 101.646
131.574 115.32 103.635
131.048 116.505 102.103
132.164 116.696 101.517
135.893 115.919 103.944
135.424 116.05 105.456
135.45 117.536 104.976
134.951 116.301 106.58
135.986 116.128 102.779
135.463 118.407 104.425
135.08 118.536 105.713
129.354 117.538 105.176
130.03 116.546 104.66
129.315 117.49 104.339
130.752 115.834 104.09
130.746 115.99 105.15
129.426 117.791 106.035
128.891 118.549 105.689
128.785 118.411 104.043
129.254 117.56 103.575
130.622 116.288 106.052
129.892 117.294 106.489
130.395 116.834 107.091
129.514 118.236 106.971
130.421 117.235 108.153
128.311 119.343 105.338
128.243 119.29 104.427
127.688 120.103 104.886
128.156 119.317 103.68
128.379 119.457 106.167
127.131 120.763 105.331
127.07 120.793 104.526
129.708 117.158 103.041
130.516 116.046 103.281
130.289 116.746 102.485
129.068 117.999 102.722
130.361 117.401 101.787
128.928 129.398 109.967
129.003 130.072 109.12
129.683 128.775 109.222
128.955 130.724 108.278
128.326 131.232 108.946
128.288 129.966 110.689
128.838 128.66 110.753
130.284 127.68 109.35
130.344 128.327 108.666
127.736 131.734 109.517
127.705 131.005 110.525
127.118 132.248 110.302
129.469 127.524 110.648
130.294 126.948 109.849
130.124 126.202 110.476
130.436 128.699 107.995
129.681 130.042 107.804
130.456 129.136 107.248
130.097 130.04 103.134
130.303 129.201 102.314
131.004 128.786 102.804
130.328 128.279 101.92
129.481 129.403 102.13
129.106 131.031 103.436
129.796 130.562 103.998
131.529 128.339 103.344
131.846 127.705 102.537
128.659 130.163 102.318
128.489 131.149 102.961
127.741 131.03 102.568
130.348 129.901 104.422
131.172 128.669 104.084
130.869 129.009 104.932
131.905 127.016 102.022
130.936 127.228 101.722
131.692 126.182 101.656
133.025 118.577 109.678
133.418 119.053 108.923
133.712 117.522 108.762
133.75 119.547 108.233
133.07 120.421 109.08
132.352 119.612 110.447
132.675 118.155 110.342
133.928 116.175 108.547
134.402 116.802 107.737
132.438 121.372 109.672
132.038 120.907 110.511
131.743 122.265 110.321
132.36 117.341 110.215
133.076 116.171 109.188
131.866 116.594 109.306
134.575 117.599 107.09
134.207 119.213 107.462
134.675 118.834 106.575
134.919 119.406 101.547
134.327 119.032 101.091
135.146 117.855 101.437
133.529 118.845 100.969
133.468 120.256 101.143
134.469 120.904 101.782
135.231 119.89 102.271
135.746 116.945 102.11
134.92 116.522 101.396
133.226 121.429 101.135
133.924 121.893 101.476
133.011 122.627 101.331
135.364 119.723 103.001
135.702 117.891 102.925
135.477 119.106 103.837
133.798 116.79 101.306
133.051 118.169 101.052
132.497 117.379 101.255
123.575 129.066 109.804
123.028 128.667 109.062
122.734 129.822 108.807
122.671 128.239 108.327
123.36 127.57 109.326
124.336 128.222 110.733
124.209 129.442 110.44
122.668 130.955 108.491
122.012 130.375 107.801
123.82 126.685 109.71
124.283 127.115 110.592
124.549 125.956 110.271
124.155 130.44 110.197
123.413 131.269 109.221
124.305 131.617 109.932
121.877 129.376 107.316
122.458 128.063 107.535
122.016 128.353 106.635
123.035 127.886 102.022
123.81 128.298 102.014
123.01 129.05 102.616
124.568 128.632 102.06
124.579 127.573 101.579
123.116 126.784 101.476
122.373 127.418 102.2
122.217 129.747 103.202
123.015 130.297 102.938
124.762 126.607 101.072
123.857 126.112 101.05
124.841 125.565 100.842
121.923 127.64 102.946
121.732 129 103.45
121.609 128.027 103.886
123.962 130.357 102.71
124.926 129.366 102.277
125.023 130.417 102.503
127.522 121.441 107.845
128.169 120.854 108.46
128.185 120.446 107.55
128.715 120.182 109.063
128.003 121.182 109.296
126.953 122.427 108.041
126.928 121.974 107.316
128.251 119.948 106.821
128.779 119.476 107.314
127.317 122.219 109.321
126.782 122.882 108.62
126.568 123.239 109.439
126.86 121.536 106.659
127.632 120.523 106.368
126.914 121.143 105.903
129.308 118.967 107.58
129.255 119.383 108.578
129.84 118.31 108.276
127.678 120.484 101.725
126.955 121.102 102.202
127.754 120.054 102.391
126.275 121.594 102.616
126.084 121.906 101.993
127.773 120.928 101.187
128.492 120.019 101.317
128.45 119.044 102.544
127.934 119.665 103.042
126.029 122.264 101.488
127.016 121.852 101.131
126.186 122.79 100.985
129.067 119.191 101.436
128.916 118.595 102.057
129.717 118.217 101.559
127.473 120.377 103.431
126.547 121.344 103.205
126.833 121.063 103.886
POLYGONS 1280  5120
3 164 162 163
3 163 44 164
3 162 43 163
3 164 42 162
3 166 165 163
3 163 43 166
3 165 44 163
3 166 14 165
3 168 167 162
3 162 42 168
3 167 43 162
3 168 13 167
3 170 169 164
3 164 44 170
3 169 42 164
3 170 12 169
3 173 171 172
3 172 46 173
3 171 43 172
3 173 45 171
3 167 174 172
3 172 43 167
3 174 46 172
3 167 13 174
3 175 166 171
3 171 45 175
3 166 43 171
3 175 14 166
3 177 176 173
3 173 46 177
3 176 45 173
3 177 4 176
3 180 178 179
3 179 48 180
3 178 42 179
3 180 47 178
3 169 181 179
3 179 42 169
3 181 48 179
3 169 12 181
3 182 168 178
3 178 47 182
3 168 42 178
3 182 13 168
3 184 183 180
3 180 48 184
3 183 47 180
3 184 8 183
3 187 185 186
3 186 50 187
3 185 44 186
3 187 49 185
3 165 188 186
3 186 44 165
3 188 50 186
3 165 14 188
3 189 170 185
3 185 49 189
3 170 44 185
3 189 12 170
3 191 190 187
3 187 50 191
3 190 49 187
3 191 7 190
3 194 192 193
3 193 53 194
3 192 52 193
3 194 51 192
3 196 195 193
3 193 52 196
3 195 53 193
3 196 16 195
3 198 197 192
3 192 51 198
3 197 52 192
3 198 14 197
3 200 199 194
3 194 53 200
3 199 51 194
3 200 15 199
3 203 201 202
3 202 45 203
3 201 52 202
3 203 54 201
3 197 175 202
3 202 52 197
3 175 45 202
3 197 14 175
3 204 196 201
3 201 54 204
3 196 52 201
3 204 16 196
3 176 205 203
3 203 45 176
3 205 54 203
3 176 4 205
3 208 206 207
3 207 55 208
3 206 51 207
3 208 50 206
3 199 209 207
3 207 51 199
3 209 55 207
3 199 15 209
3 188 198 206
3 206 50 188
3 198 51 206
3 188 14 198
3 210 191 208
3 208 55 210
3 191 50 208
3 210 7 191
3 213 211 212
3 212 57 213
3 211 53 212
3 213 56 211
3 195 214 212
3 212 53 195
3 214 57 212
3 195 16 214
3 215 200 211
3 211 56 215
3 200 53 211
3 215 15 200
3 217 216 213
3 213 57 217
3 216 56 213
3 217 9 216
3 220 218 219
3 219 60 220
3 218 59 219
3 220 58 218
3 222 221 219
3 219 59 222
3 221 60 219
3 222 19 221
3 224 223 218
3 218 58 224
3 223 59 218
3 224 18 223
3 226 225 220
3 220 60 226
3 225 58 220
3 226 17 225
3 229 227 228
3 228 62 229
3 227 59 228
3 229 61 227
3 223 230 228
3 228 59 223
3 230 62 228
3 223 18 230
3 231 222 227
3 227 61 231
3 222 59 227
3 231 19 222
3 233 232 229
3 229 62 233
3 232 61 229
3 233 5 232
3 236 234 235
3 235 64 236
3 234 58 235
3 236 63 234
3 225 237 235
3 235 58 225
3 237 64 235
3 225 17 237
3 238 224 234
3 234 63 238
3 224 58 234
3 238 18 224
3 240 239 236
3 236 64 240
3 239 63 236
3 240 6 239
3 243 241 242
3 242 66 243
3 241 60 242
3 243 65 241
3 221 244 242
3 242 60 221
3 244 66 242
3 221 19 244
3 245 226 241
3 241 65 245
3 226 60 241
3 245 17 226
3 247 246 243
3 243 66 247
3 246 65 243
3 247 11 246
3 250 248 249
3 249 69 250
3 248 68 249
3 250 67 248
3 252 251 249
3 249 68 252
3 251 69 249
3 252 18 251
3 254 253 248
3 248 67 254
3 253 68 248
3 254 21 253
3 256 255 250
3 250 69 256
3 255 67 250
3 256 20 255
3 259 257 258
3 258 70 259
3 257 68 258
3 259 62 257
3 253 260 258
3 258 68 253
3 260 70 258
3 253 21 260
3 230 252 257
3 257 62 230
3 252 68 257
3 230 18 252
3 261 233 259
3 259 70 261
3 233 62 259
3 261 5 233
3 264 262 263
3 263 72 264
3 262 67 263
3 264 71 262
3 255 265 263
3 263 67 255
3 265 72 263
3 255 20 265
3 266 254 262
3 262 71 266
3 254 67 262
3 266 21 254
3 268 267 264
3 264 72 268
3 267 71 264
3 268 10 267
3 271 269 270
3 270 63 271
3 269 69 270
3 271 73 269
3 251 238 270
3 270 69 251
3 238 63 270
3 251 18 238
3 272 256 269
3 269 73 272
3 256 69 269
3 272 20 256
3 239 273 271
3 271 63 239
3 273 73 271
3 239 6 273
3 276 274 275
3 275 76 276
3 274 75 275
3 276 74 274
3 278 277 275
3 275 75 278
3 277 76 275
3 278 24 277
3 280 279 274
3 274 74 280
3 279 75 274
3 280 23 279
3 282 281 276
3 276 76 282
3 281 74 276
3 282 22 281
3 285 283 284
3 284 78 285
3 283 75 284
3 285 77 283
3 279 286 284
3 284 75 279
3 286 78 284
3 279 23 286
3 287 278 283
3 283 77 287
3 278 75 283
3 287 24 278
3 289 288 285
3 285 78 289
3 288 77 285
3 289 0 288
3 292 290 291
3 291 80 292
3 290 74 291
3 292 79 290
3 281 293 291
3 291 74 281
3 293 80 291
3 281 22 293
3 294 280 290
3 290 79 294
3 280 74 290
3 294 23 280
3 296 295 292
3 292 80 296
3 295 79 292
3 296 4 295
3 299 297 298
3 298 82 299
3 297 76 298
3 299 81 297
3 277 300 298
3 298 76 277
3 300 82 298
3 277 24 300
3 301 282 297
3 297 81 301
3 282 76 297
3 301 22 282
3 303 302 299
3 299 82 303
3 302 81 299
3 303 3 302
3 306 304 305
3 305 85 306
3 304 84 305
3 306 83 304
3 308 307 305
3 305 84 308
3 307 85 305
3 308 26 307
3 310 309 304
3 304 83 310
3 309 84 304
3 310 24 309
3 312 311 306
3 306 85 312
3 311 83 306
3 312 25 311
3 315 313 314
3 314 77 315
3 313 84 314
3 315 86 313
3 309 287 314
3 314 84 309
3 287 77 314
3 309 24 287
3 316 308 313
3 313 86 316
3 308 84 313
3 316 26 308
3 288 317 315
3 315 77 288
3 317 86 315
3 288 0 317
3 320 318 319
3 319 87 320
3 318 83 319
3 320 82 318
3 311 321 319
3 319 83 311
3 321 87 319
3 311 25 321
3 300 310 318
3 318 82 300
3 310 83 318
3 300 24 310
3 322 303 320
3 320 87 322
3 303 82 320
3 322 3 303
3 325 323 324
3 324 89 325
3 323 85 324
3 325 88 323
3 307 326 324
3 324 85 307
3 326 89 324
3 307 26 326
3 327 312 323
3 323 88 327
3 312 85 323
3 327 25 312
3 329 328 325
3 325 89 329
3 328 88 325
3 329 5 328
3 332 330 331
3 331 92 332
3 330 91 331
3 332 90 330
3 334 333 331
3 331 91 334
3 333 92 331
3 334 29 333
3 336 335 330
3 330 90 336
3 335 91 330
3 336 28 335
3 338 337 332
3 332 92 338
3 337 90 332
3 338 27 337
3 341 339 340
3 340 94 341
3 339 91 340
3 341 93 339
3 335 342 340
3 340 91 335
3 342 94 340
3 335 28 342
3 343 334 339
3 339 93 343
3 334 91 339
3 343 29 334
3 345 344 341
3 341 94 345
3 344 93 341
3 345 2 344
3 348 346 347
3 347 96 348
3 346 90 347
3 348 95 346
3 337 349 347
3 347 90 337
3 349 96 347
3 337 27 349
3 350 336 346
3 346 95 350
3 336 90 346
3 350 28 336
3 352 351 348
3 348 96 352
3 351 95 348
3 352 7 351
3 355 353 354
3 354 98 355
3 353 92 354
3 355 97 353
3 333 356 354
3 354 92 333
3 356 98 354
3 333 29 356
3 357 338 353
3 353 97 357
3 338 92 353
3 357 27 338
3 359 358 355
3 355 98 359
3 358 97 355
3 359 1 358
3 362 360 361
3 361 101 362
3 360 100 361
3 362 99 360
3 364 363 361
3 361 100 364
3 363 101 361
3 364 31 363
3 366 365 360
3 360 99 366
3 365 100 360
3 366 29 365
3 368 367 362
3 362 101 368
3 367 99 362
3 368 30 367
3 371 369 370
3 370 93 371
3 369 100 370
3 371 102 369
3 365 343 370
3 370 100 365
3 343 93 370
3 365 29 343
3 372 364 369
3 369 102 372
3 364 100 369
3 372 31 364
3 344 373 371
3 371 93 344
3 373 102 371
3 344 2 373
3 376 374 375
3 375 103 376
3 374 99 375
3 376 98 374
3 367 377 375
3 375 99 367
3 377 103 375
3 367 30 377
3 356 366 374
3 374 98 356
3 366 99 374
3 356 29 366
3 378 359 376
3 376 103 378
3 359 98 376
3 378 1 359
3 381 379 380
3 380 105 381
3 379 101 380
3 381 104 379
3 363 382 380
3 380 101 363
3 382 105 380
3 363 31 382
3 383 368 379
3 379 104 383
3 368 101 379
3 383 30 368
3 385 384 381
3 381 105 385
3 384 104 381
3 385 6 384
3 388 386 387
3 387 108 388
3 386 107 387
3 388 106 386
3 390 389 387
3 387 107 390
3 389 108 387
3 390 34 389
3 392 391 386
3 386 106 392
3 391 107 386
3 392 33 391
3 394 393 388
3 388 108 394
3 393 106 388
3 394 32 393
3 397 395 396
3 396 110 397
3 395 107 396
3 397 109 395
3 391 398 396
3 396 107 391
3 398 110 396
3 391 33 398
3 399 390 395
3 395 109 399
3 390 107 395
3 399 34 390
3 401 400 397
3 397 110 401
3 400 109 397
3 401 8 400
3 404 402 403
3 403 112 404
3 402 106 403
3 404 111 402
3 393 405 403
3 403 106 393
3 405 112 403
3 393 32 405
3 406 392 402
3 402 111 406
3 392 106 402
3 406 33 392
3 408 407 404
3 404 112 408
3 407 111 404
3 408 0 407
3 411 409 410
3 410 114 411
3 409 108 410
3 411 113 409
3 389 412 410
3 410 108 389
3 412 114 410
3 389 34 412
3 413 394 409
3 409 113 413
3 394 108 409
3 413 32 394
3 415 414 411
3 411 114 415
3 414 113 411
3 415 11 414
3 418 416 417
3 417 117 418
3 416 116 417
3 418 115 416
3 420 419 417
3 417 116 420
3 419 117 417
3 420 36 419
3 422 421 416
3 416 115 422
3 421 116 416
3 422 34 421
3 424 423 418
3 418 117 424
3 423 115 418
3 424 35 423
3 427 425 426
3 426 109 427
3 425 116 426
3 427 118 425
3 421 399 426
3 426 116 421
3 399 109 426
3 421 34 399
3 428 420 425
3 425 118 428
3 420 116 425
3 428 36 420
3 400 429 427
3 427 109 400
3 429 118 427
3 400 8 429
3 432 430 431
3 431 119 432
3 430 115 431
3 432 114 430
3 423 433 431
3 431 115 423
3 433 119 431
3 423 35 433
3 412 422 430
3 430 114 412
3 422 115 430
3 412 34 422
3 434 415 432
3 432 119 434
3 415 114 432
3 434 11 415
3 437 435 436
3 436 121 437
3 435 117 436
3 437 120 435
3 419 438 436
3 436 117 419
3 438 121 436
3 419 36 438
3 439 424 435
3 435 120 439
3 424 117 435
3 439 35 424
3 441 440 437
3 437 121 441
3 440 120 437
3 441 1 440
3 444 442 443
3 443 124 444
3 442 123 443
3 444 122 442
3 446 445 443
3 443 123 446
3 445 124 443
3 446 39 445
3 448 447 442
3 442 122 448
3 447 123 442
3 448 38 447
3 450 449 444
3 444 124 450
3 449 122 444
3 450 37 449
3 453 451 452
3 452 126 453
3 451 123 452
3 453 125 451
3 447 454 452
3 452 123 447
3 454 126 452
3 447 38 454
3 455 446 451
3 451 125 455
3 446 123 451
3 455 39 446
3 457 456 453
3 453 126 457
3 456 125 453
3 457 9 456
3 460 458 459
3 459 128 460
3 458 122 459
3 460 127 458
3 449 461 459
3 459 122 449
3 461 128 459
3 449 37 461
3 462 448 458
3 458 127 462
3 448 122 458
3 462 38 448
3 464 463 460
3 460 128 464
3 463 127 460
3 464 10 463
3 467 465 466
3 466 130 467
3 465 124 466
3 467 129 465
3 445 468 466
3 466 124 445
3 468 130 466
3 445 39 468
3 469 450 465
3 465 129 469
3 450 124 465
3 469 37 450
3 471 470 467
3 467 130 471
3 470 129 467
3 471 3 470
3 474 472 473
3 473 133 474
3 472 132 473
3 474 131 472
3 476 475 473
3 473 132 476
3 475 133 473
3 476 38 475
3 478 477 472
3 472 131 478
3 477 132 472
3 478 41 477
3 480 479 474
3 474 133 480
3 479 131 474
3 480 40 479
3 483 481 482
3 482 134 483
3 481 132 482
3 483 126 481
3 477 484 482
3 482 132 477
3 484 134 482
3 477 41 484
3 454 476 481
3 481 126 454
3 476 132 481
3 454 38 476
3 485 457 483
3 483 134 485
3 457 126 483
3 485 9 457
3 488 486 487
3 487 136 488
3 486 131 487
3 488 135 486
3 479 489 487
3 487 131 479
3 489 136 487
3 479 40 489
3 490 478 486
3 486 135 490
3 478 131 486
3 490 41 478
3 492 491 488
3 488 136 492
3 491 135 488
3 492 2 491
3 495 493 494
3 494 127 495
3 493 133 494
3 495 137 493
3 475 462 494
3 494 133 475
3 462 127 494
3 475 38 462
3 496 480 493
3 493 137 496
3 480 133 493
3 496 40 480
3 463 497 495
3 495 127 463
3 497 137 495
3 463 10 497
3 500 498 499
3 499 140 500
3 498 139 499
3 500 138 498
3 502 501 499
3 499 139 502
3 501 140 499
3 502 33 501
3 504 503 498
3 498 138 504
3 503 139 498
3 504 13 503
3 506 505 500
3 500 140 506
3 505 138 500
3 506 23 505
3 509 507 508
3 508 47 509
3 507 139 508
3 509 110 507
3 503 182 508
3 508 139 503
3 182 47 508
3 503 13 182
3 398 502 507
3 507 110 398
3 502 139 507
3 398 33 502
3 183 401 509
3 509 47 183
3 401 110 509
3 183 8 401
3 512 510 511
3 511 79 512
3 510 138 511
3 512 46 510
3 505 294 511
3 511 138 505
3 294 79 511
3 505 23 294
3 174 504 510
3 510 46 174
3 504 138 510
3 174 13 504
3 295 177 512
3 512 79 295
3 177 46 512
3 295 4 177
3 515 513 514
3 514 111 515
3 513 140 514
3 515 78 513
3 501 406 514
3 514 140 501
3 406 111 514
3 501 33 406
3 286 506 513
3 513 78 286
3 506 140 513
3 286 23 506
3 407 289 515
3 515 111 407
3 289 78 515
3 407 0 289
3 518 516 517
3 517 143 518
3 516 142 517
3 518 141 516
3 520 519 517
3 517 142 520
3 519 143 517
3 520 19 519
3 522 521 516
3 516 141 522
3 521 142 516
3 522 32 521
3 524 523 518
3 518 143 524
3 523 141 518
3 524 26 523
3 527 525 526
3 526 113 527
3 525 142 526
3 527 66 525
3 521 413 526
3 526 142 521
3 413 113 526
3 521 32 413
3 244 520 525
3 525 66 244
3 520 142 525
3 244 19 520
3 414 247 527
3 527 113 414
3 247 66 527
3 414 11 247
3 530 528 529
3 529 86 530
3 528 141 529
3 530 112 528
3 523 316 529
3 529 141 523
3 316 86 529
3 523 26 316
3 405 522 528
3 528 112 405
3 522 141 528
3 405 32 522
3 317 408 530
3 530 86 317
3 408 112 530
3 317 0 408
3 533 531 532
3 532 61 533
3 531 143 532
3 533 89 531
3 519 231 532
3 532 143 519
3 231 61 532
3 519 19 231
3 326 524 531
3 531 89 326
3 524 143 531
3 326 26 524
3 232 329 533
3 533 61 232
3 329 89 533
3 232 5 329
3 536 534 535
3 535 146 536
3 534 145 535
3 536 144 534
3 538 537 535
3 535 145 538
3 537 146 535
3 538 22 537
3 540 539 534
3 534 144 540
3 539 145 534
3 540 16 539
3 542 541 536
3 536 146 542
3 541 144 536
3 542 39 541
3 545 543 544
3 544 54 545
3 543 145 544
3 545 80 543
3 539 204 544
3 544 145 539
3 204 54 544
3 539 16 204
3 293 538 543
3 543 80 293
3 538 145 543
3 293 22 538
3 205 296 545
3 545 54 205
3 296 80 545
3 205 4 296
3 548 546 547
3 547 125 548
3 546 144 547
3 548 57 546
3 541 455 547
3 547 144 541
3 455 125 547
3 541 39 455
3 214 540 546
3 546 57 214
3 540 144 546
3 214 16 540
3 456 217 548
3 548 125 456
3 217 57 548
3 456 9 217
3 551 549 550
3 550 81 551
3 549 146 550
3 551 130 549
3 537 301 550
3 550 146 537
3 301 81 550
3 537 22 301
3 468 542 549
3 549 130 468
3 542 146 549
3 468 39 542
3 302 471 551
3 551 81 302
3 471 130 551
3 302 3 471
3 554 552 553
3 553 149 554
3 552 148 553
3 554 147 552
3 556 555 553
3 553 148 556
3 555 149 553
3 556 21 555
3 558 557 552
3 552 147 558
3 557 148 552
3 558 25 557
3 560 559 554
3 554 149 560
3 559 147 554
3 560 37 559
3 563 561 562
3 562 88 563
3 561 148 562
3 563 70 561
3 557 327 562
3 562 148 557
3 327 88 562
3 557 25 327
3 260 556 561
3 561 70 260
3 556 148 561
3 260 21 556
3 328 261 563
3 563 88 328
3 261 70 563
3 328 5 261
3 566 564 565
3 565 129 566
3 564 147 565
3 566 87 564
3 559 469 565
3 565 147 559
3 469 129 565
3 559 37 469
3 321 558 564
3 564 87 321
3 558 147 564
3 321 25 558
3 470 322 566
3 566 129 470
3 322 87 566
3 470 3 322
3 569 567 568
3 568 71 569
3 567 149 568
3 569 128 567
3 555 266 568
3 568 149 555
3 266 71 568
3 555 21 266
3 461 560 567
3 567 128 461
3 560 149 567
3 461 37 560
3 267 464 569
3 569 71 267
3 464 128 569
3 267 10 464
3 572 570 571
3 571 152 572
3 570 151 571
3 572 150 570
3 574 573 571
3 571 151 574
3 573 152 571
3 574 27 573
3 576 575 570
3 570 150 576
3 575 151 570
3 576 12 575
3 578 577 572
3 572 152 578
3 577 150 572
3 578 36 577
3 581 579 580
3 580 49 581
3 579 151 580
3 581 96 579
3 575 189 580
3 580 151 575
3 189 49 580
3 575 12 189
3 349 574 579
3 579 96 349
3 574 151 579
3 349 27 574
3 190 352 581
3 581 49 190
3 352 96 581
3 190 7 352
3 584 582 583
3 583 118 584
3 582 150 583
3 584 48 582
3 577 428 583
3 583 150 577
3 428 118 583
3 577 36 428
3 181 576 582
3 582 48 181
3 576 150 582
3 181 12 576
3 429 184 584
3 584 118 429
3 184 48 584
3 429 8 184
3 587 585 586
3 586 97 587
3 585 152 586
3 587 121 585
3 573 357 586
3 586 152 573
3 357 97 586
3 573 27 357
3 438 578 585
3 585 121 438
3 578 152 585
3 438 36 578
3 358 441 587
3 587 97 358
3 441 121 587
3 358 1 441
3 590 588 589
3 589 155 590
3 588 154 589
3 590 153 588
3 592 591 589
3 589 154 592
3 591 155 589
3 592 17 591
3 594 593 588
3 588 153 594
3 593 154 588
3 594 30 593
3 596 595 590
3 590 155 596
3 595 153 590
3 596 35 595
3 599 597 598
3 598 104 599
3 597 154 598
3 599 64 597
3 593 383 598
3 598 154 593
3 383 104 598
3 593 30 383
3 237 592 597
3 597 64 237
3 592 154 597
3 237 17 592
3 384 240 599
3 599 104 384
3 240 64 599
3 384 6 240
3 602 600 601
3 601 120 602
3 600 153 601
3 602 103 600
3 595 439 601
3 601 153 595
3 439 120 601
3 595 35 439
3 377 594 600
3 600 103 377
3 594 153 600
3 377 30 594
3 440 378 602
3 602 120 440
3 378 103 602
3 440 1 378
3 605 603 604
3 604 65 605
3 603 155 604
3 605 119 603
3 591 245 604
3 604 155 591
3 245 65 604
3 591 17 245
3 433 596 603
3 603 119 433
3 596 155 603
3 433 35 596
3 246 434 605
3 605 65 246
3 434 119 605
3 246 11 434
3 608 606 607
3 607 158 608
3 606 157 607
3 608 156 606
3 610 609 607
3 607 157 610
3 609 158 607
3 610 15 609
3 612 611 606
3 606 156 612
3 611 157 606
3 612 28 611
3 614 613 608
3 608 158 614
3 613 156 608
3 614 41 613
3 617 615 616
3 616 95 617
3 615 157 616
3 617 55 615
3 611 350 616
3 616 157 611
3 350 95 616
3 611 28 350
3 209 610 615
3 615 55 209
3 610 157 615
3 209 15 610
3 351 210 617
3 617 95 351
3 210 55 617
3 351 7 210
3 620 618 619
3 619 135 620
3 618 156 619
3 620 94 618
3 613 490 619
3 619 156 613
3 490 135 619
3 613 41 490
3 342 612 618
3 618 94 342
3 612 156 618
3 342 28 612
3 491 345 620
3 620 135 491
3 345 94 620
3 491 2 345
3 623 621 622
3 622 56 623
3 621 158 622
3 623 134 621
3 609 215 622
3 622 158 609
3 215 56 622
3 609 15 215
3 484 614 621
3 621 134 484
3 614 158 621
3 484 41 614
3 216 485 623
3 623 56 216
3 485 134 623
3 216 9 485
3 626 624 625
3 625 161 626
3 624 160 625
3 626 159 624
3 628 627 625
3 625 160 628
3 627 161 625
3 628 31 627
3 630 629 624
3 624 159 630
3 629 160 624
3 630 20 629
3 632 631 626
3 626 161 632
3 631 159 626
3 632 40 631
3 635 633 634
3 634 73 635
3 633 160 634
3 635 105 633
3 629 272 634
3 634 160 629
3 272 73 634
3 629 20 272
3 382 628 633
3 633 105 382
3 628 160 633
3 382 31 628
3 273 385 635
3 635 73 273
3 385 105 635
3 273 6 385
3 638 636 637
3 637 137 638
3 636 159 637
3 638 72 636
3 631 496 637
3 637 159 631
3 496 137 637
3 631 40 496
3 265 630 636
3 636 72 265
3 630 159 636
3 265 20 630
3 497 268 638
3 638 137 497
3 268 72 638
3 497 10 268
3 641 639 640
3 640 102 641
3 639 161 640
3 641 136 639
3 627 372 640
3 640 161 627
3 372 102 640
3 627 31 372
3 489 632 639
3 639 136 489
3 632 161 639
3 489 40 632
3 373 492 641
3 641 102 373
3 492 136 641
3 373 2 492
