# vtk DataFile Version 3.0
this file was written using fslvtkio
ASCII
DATASET POLYDATA
POINTS 642 float
105.037 139.406 101.931
98.4349 139.349 100.76
100.918 135.052 100.157
106.598 134.858 100.389
104.704 137.534 104.015
104.651 136.857 98.6942
101.481 136.698 98.2061
101.235 137.554 103.007
102.699 141.826 104.621
103.947 134.047 101.217
103.134 132.058 97.1006
102.325 141.273 100.1
101.731 139.773 103.388
104.019 139.745 104.523
102.758 137.799 103.854
102.559 136.222 102.097
104.295 135.667 102.476
101.455 139.112 98.9792
103.096 136.652 98.1236
103.26 138.69 99.6894
102.015 134.321 96.4028
104.494 134.68 97.2354
106.104 136.031 102.201
105.901 138.942 103.369
105.899 137.221 101.154
105.988 135.761 99.0837
104.74 138.05 100.374
99.832 138.506 102.162
100.61 136.582 101.889
99.6148 137.058 100.548
99.6967 138.348 98.9963
101.094 135.499 98.6808
104.048 140.899 101.255
104.816 141.497 103.602
102.558 143.281 102.169
99.9082 141.443 99.9706
99.9937 141.544 102.538
105.781 132.779 98.7353
103.553 131.973 99.8678
105.804 133.117 101.724
101.158 132.647 98.5008
102.177 134.103 100.69
102.859 139.887 104.087
103.284 138.855 104.064
102.377 138.919 103.585
103.633 137.647 104.159
104.364 138.653 104.268
103.444 140.785 104.851
102.086 140.793 103.969
101.483 138.638 103.09
101.973 137.774 103.366
102.641 137.056 103.007
103.466 136.9 103.275
103.496 136.018 102.234
104.509 136.816 103.119
101.78 137.072 102.732
103.128 135.025 101.751
104.171 134.741 101.724
102.289 137.73 98.7292
103.074 137.651 99.03
102.45 138.978 99.2406
103.951 137.661 99.2845
103.986 136.865 98.3354
102.162 136.561 98.1284
101.376 137.798 98.5828
101.833 140.24 99.5897
102.805 139.988 100.003
103.368 134.422 96.2855
103.859 135.812 97.3551
102.782 135.637 97.1115
104.577 135.974 98.1031
104.048 133.004 96.5486
102.335 132.503 95.9279
101.837 135.624 97.4183
105.688 137.567 102.692
105.603 137.955 102.185
106.034 136.658 101.703
105.451 138.387 101.601
105.559 139.308 102.579
105.596 138.252 103.894
105.337 137.097 102.85
106.485 135.385 101.264
106.443 136.065 100.677
106.063 136.575 100.103
105.531 137.684 100.623
105.652 137.091 99.6377
105.075 138.894 101.143
106.41 135.217 99.7158
105.431 136.436 98.7776
104.794 137.501 99.4014
99.9597 137.333 102.208
99.7661 136.682 101.449
99.3066 137.641 101.466
100.441 136.312 100.47
100.684 135.831 101.107
100.776 137.097 102.681
100.578 137.9 102.708
98.9755 138.972 101.563
98.9076 138.144 100.551
99.4893 137.634 99.7023
100.431 136.573 99.6591
100.456 137.014 99.0409
100.961 135.104 99.4276
98.8174 138.973 99.7784
100.71 137.501 98.7253
101.221 136.146 98.1906
104.561 141.659 102.362
104.028 142.735 103.244
103.709 142.531 101.618
102.567 142.91 103.898
103.989 141.94 104.571
105.121 140.579 102.604
104.723 140.239 101.676
103.287 141.393 100.589
102.386 142.345 100.779
100.964 142.831 100.857
100.858 142.945 102.669
99.1853 142.384 101.225
101.3 142.005 103.722
101.325 141.704 99.878
98.5192 140.632 100.13
99.0055 140.697 101.475
104.927 131.689 99.2511
104.936 132.269 100.749
106.161 132.558 100.228
104.671 133.387 101.412
103.877 132.955 100.719
103.191 131.67 98.3998
104.608 132.2 97.8019
106.251 133.85 99.7298
106.442 133.947 100.922
101.88 133.306 99.7671
102.928 132.923 100.104
102.17 132.21 99.2263
103.037 133.925 100.966
101.266 134.441 100.488
100.983 133.869 99.4326
101.754 132.052 97.4869
105.015 139.389 104.029
104.787 140.799 104.714
105.266 140.127 103.522
104.146 139.167 100.877
103.588 139.748 100.437
104.027 138.47 100.066
105.149 134.423 101.809
105.287 135.772 102.312
106.048 134.621 101.722
106.08 134.281 98.6105
105.51 135.157 98.0873
105.375 133.519 97.5058
100.892 140.622 103.137
100.687 139.334 102.807
99.8418 140.033 102.274
99.3421 139.959 99.1923
100.457 138.946 98.9871
100.664 140.4 99.3601
101.371 135.379 101.415
101.625 136.44 101.978
102.235 135.117 101.487
101.207 132.967 96.9766
101.506 134.559 97.5651
101.007 133.86 98.3333
103.098 139.412 104.071
102.886 138.915 103.764
102.567 139.401 103.83
102.602 138.346 103.68
103.056 138.29 103.863
103.633 139.338 104.292
103.377 139.87 104.438
102.246 139.803 103.798
102.031 139.38 103.545
103.466 138.179 104.091
103.821 138.787 104.218
103.904 138.099 104.289
104.205 139.245 104.255
103.213 137.722 104.007
104.149 137.565 104.173
104.516 138.137 104.293
103.09 140.24 104.521
102.436 140.206 104.161
102.78 140.785 104.446
101.828 140.175 103.715
103.75 140.157 104.843
103.074 141.361 104.679
102.475 141.409 104.221
101.899 138.822 103.35
102.193 138.275 103.453
101.711 138.165 103.27
102.377 137.856 103.608
101.622 139.277 103.199
101.282 137.956 103.097
101.594 137.647 103.147
103.064 137.037 103.154
103.549 136.472 102.624
103.207 136.666 102.462
103.812 135.778 102.453
103.858 136.302 102.824
102.984 137.25 103.788
102.603 137.351 103.557
102.692 136.724 102.418
103.061 136.143 102.183
103.987 136.828 103.183
103.447 137.156 103.848
104.015 137.116 103.782
104.4 136.297 102.755
104.623 137.132 103.528
102.214 137.34 103.333
102.176 137.047 102.896
101.777 137.279 103.172
102.226 136.785 102.338
101.496 137.24 102.935
103.307 135.477 102.006
103.792 135.329 102.023
103.59 134.895 101.785
104.242 135.118 102.098
102.826 135.605 101.968
103.549 134.453 101.455
104.028 134.357 101.452
102.644 137.623 98.8866
102.755 138.252 99.0903
102.354 138.389 98.9059
102.878 138.866 99.4209
103.151 138.157 99.3502
103.015 137.029 98.6578
102.61 136.98 98.6311
101.909 138.483 98.8018
101.984 139.081 99.0759
103.516 137.658 99.1634
103.499 137.157 98.6591
103.931 137.263 98.7899
103.513 136.734 98.2522
103.483 138.054 99.6324
104.29 137.252 98.9269
104.299 136.803 98.5391
102.181 136.969 98.6108
101.854 137.791 98.6519
101.84 137.067 98.4796
101.392 138.501 98.7043
102.597 136.584 98.1819
101.773 136.577 98.1567
101.422 137.206 98.3822
102.164 139.6 99.4465
102.606 139.473 99.6067
102.308 140.09 99.7947
103.054 139.336 99.8196
101.682 139.715 99.2861
102.042 140.755 99.8696
102.52 140.575 100.11
103.663 135.199 96.7209
103.353 135.693 97.0758
103.054 135.102 96.5394
102.972 136.156 97.6495
103.482 136.229 97.7236
104.151 135.303 97.216
103.864 134.517 96.8223
102.6 134.316 96.2438
102.386 135.006 96.6279
103.877 136.356 97.9597
104.27 135.902 97.6853
104.3 136.41 98.1476
104.569 135.417 97.6414
104.692 136.483 98.4035
103.715 133.614 96.2349
102.91 133.429 95.8913
103.247 132.642 96.0714
102.032 133.322 96.0145
104.378 133.784 96.739
103.605 132.395 96.6713
102.699 132.153 96.4046
102.277 135.611 97.0338
102.476 136.164 97.6256
101.995 136.207 97.6115
101.961 134.984 96.8609
101.665 136.261 97.7984
105.591 137.795 102.474
105.817 137.33 101.923
105.863 137.131 102.234
105.966 136.937 101.422
105.77 137.55 101.616
105.854 138.56 102.754
105.776 138.316 103.087
105.836 136.845 102.429
106.188 136.402 101.961
105.494 138.134 101.895
105.728 138.748 102.374
105.453 138.855 102.081
105.859 139.177 102.913
105.593 137.737 101.401
105.325 139.012 101.748
105.264 139.383 102.226
105.627 137.951 103.276
105.496 137.307 102.765
105.392 137.621 103.388
105.652 136.612 102.55
105.854 138.612 103.74
105.158 137.878 104.041
105.079 137.261 103.399
106.343 136.019 101.452
106.265 136.311 101.189
106.492 135.781 101.002
106.087 136.565 100.88
106.27 135.646 101.708
106.576 135.064 100.787
106.559 135.404 100.494
105.923 137.168 100.337
105.66 137.415 100.129
105.919 136.896 99.8616
105.312 137.669 99.9377
105.158 137.85 100.489
105.763 137.415 100.869
106.013 136.895 100.589
106.025 136.172 99.6207
105.935 136.545 99.3354
105.223 138.241 100.902
105.428 138.005 101.133
105.364 138.677 101.315
104.947 138.494 100.758
105.047 139.178 101.514
106.293 136.311 100.353
106.27 135.945 99.8717
106.465 135.669 100.179
106.129 135.459 99.395
106.592 135 100.036
105.654 136.792 99.1524
105.3 137.336 99.485
105.2 136.974 99.0711
104.739 137.726 99.9094
105.734 136.135 98.8805
104.976 136.63 98.7285
104.693 137.148 99.0425
99.7597 136.959 101.875
99.5918 137.155 101.509
99.6639 137.482 101.889
99.3577 137.295 101.047
99.6121 136.841 101.052
100.173 136.594 101.711
100.119 136.898 102.186
99.9184 137.821 102.168
99.4975 138.072 101.841
100.119 136.552 100.913
100.29 136.324 101.253
100.481 136.076 100.771
100.648 136.208 101.498
100.048 136.72 100.523
100.736 135.69 100.301
100.783 135.446 100.6
100.31 137.185 102.49
100.221 137.53 102.479
100.579 137.403 102.739
100.292 138.236 102.411
100.667 136.912 102.316
101.014 137.291 102.885
100.892 137.654 102.944
99.1932 138.308 101.444
99.0538 137.824 101.017
98.8684 138.507 101.092
99.1749 137.516 100.557
99.3961 138.745 101.875
98.6329 139.15 101.17
98.6377 138.741 100.666
100.001 137.122 99.6819
100.476 136.818 99.3495
99.9674 137.376 99.3485
100.824 136.284 98.8688
100.769 136.074 99.1856
100.123 136.902 100.055
99.5886 137.31 100.087
99.5853 138 99.3182
100.041 137.676 99.0469
100.776 135.947 99.5532
100.493 136.447 100.029
100.793 135.839 99.947
101.015 135.226 99.0214
100.932 135.066 99.8178
99.0828 137.859 100.1
99.0488 138.272 99.6823
98.8061 138.552 100.168
99.1519 138.716 99.3
98.5265 139.203 100.265
100.552 137.311 98.8201
100.823 136.561 98.6292
100.96 136.887 98.4633
101.135 135.801 98.4152
100.199 138.014 98.8384
101.101 137.135 98.4025
101.348 136.453 98.1417
104.412 142.17 102.783
103.874 142.731 102.4
104.227 142.128 102.036
103.249 143.091 101.886
103.311 143.121 102.721
104.471 142.031 103.544
104.642 141.637 103.022
104.442 141.398 101.738
103.91 141.704 101.484
103.437 143.011 103.684
104.043 142.414 104.127
103.428 142.624 104.455
104.434 141.701 104.159
102.533 143.1 103.049
102.594 142.501 104.476
103.318 141.984 104.735
104.854 141.138 102.515
104.643 140.947 102.005
104.826 140.411 102.175
104.431 140.602 101.499
105.177 141.237 103.068
105.026 139.901 102.24
104.901 139.801 101.791
103.438 141.885 101.104
103.121 142.612 101.149
102.962 141.949 100.669
102.483 143.02 101.355
103.682 141.122 100.941
102.826 141.393 100.316
102.361 141.82 100.324
100.773 143.19 101.673
99.8351 142.923 101.976
100.054 142.783 100.957
99.4865 142.004 101.979
100.107 142.38 102.737
101.702 143.152 102.387
101.692 143.198 101.53
100.386 142.197 100.319
99.5316 142.077 100.361
101.016 142.565 103.298
101.754 142.843 103.263
101.774 142.619 103.913
100.553 141.837 103.226
102 141.982 104.239
101.689 142.639 100.848
101.112 142.191 100.291
101.824 142.085 100.271
100.655 141.692 99.8806
101.867 141.508 99.9858
98.8452 141.547 100.638
99.0797 141.521 101.41
98.7082 140.836 100.869
99.5297 141.222 101.93
99.0918 141.208 99.895
98.3884 139.912 100.479
98.6186 139.993 101.089
104.935 131.835 100.077
105.568 132.157 100.605
105.606 132.079 99.765
106.052 132.747 101.036
105.343 132.614 101.215
104.239 132.029 100.274
104.182 131.619 99.58
105.5 132.093 98.9279
106.001 132.586 99.4013
104.795 132.787 101.214
104.312 132.567 100.728
104.315 133.099 101.076
103.764 132.491 100.326
105.11 133.091 101.591
104.272 133.741 101.295
103.902 133.543 100.998
104.073 131.606 98.8167
104.806 131.867 98.4582
103.92 131.833 98.0846
105.305 132.422 98.232
103.339 131.648 99.165
103.122 131.799 97.6645
103.809 132.141 97.4327
106.27 133.278 99.9208
106.389 133.378 100.623
106.294 133.846 100.3
106.34 133.494 101.34
106.096 133.263 99.256
106.57 134.34 100.067
106.596 134.364 100.594
102.471 133.101 99.9304
102.603 132.471 99.7176
102.04 132.639 99.4973
102.819 132.014 99.5207
103.181 132.399 99.9661
102.579 133.49 100.348
102.156 133.779 100.201
101.443 132.868 99.2466
101.699 132.32 98.8331
103.445 132.894 100.33
103.018 133.32 100.587
103.486 133.382 100.786
102.573 133.97 100.844
103.504 133.959 101.112
101.689 133.979 100.079
101.281 133.548 99.6304
101.144 134.126 99.9758
101.076 133.289 99.0282
101.685 134.258 100.641
101.019 134.759 100.318
100.927 134.456 99.829
101.82 132.033 98.4312
102.471 131.762 98.8123
102.27 131.691 97.9443
101.424 132.257 97.9355
102.323 131.82 97.1227
104.998 140.059 104.381
105.295 140.629 104.145
105.174 139.687 103.822
105.331 141.04 103.623
104.875 141.167 104.192
104.424 140.154 104.737
104.577 139.626 104.258
105.609 139.115 103.826
105.672 139.466 103.405
104.415 141.33 104.662
104.1 140.801 105.078
103.712 141.423 104.867
104.802 139.106 104.039
105.417 138.815 104.187
104.983 138.456 104.281
105.454 139.684 103.04
105.286 140.491 103.082
105.204 139.828 102.648
103.822 139.455 100.696
103.63 138.952 100.417
103.983 138.767 100.577
103.652 138.616 99.9326
103.373 139.152 100.134
103.797 140.378 100.82
104.114 140.059 101.05
104.414 138.614 100.701
104.327 138.241 100.252
103.26 139.937 100.207
103.472 140.659 100.533
103.013 140.652 100.32
104.495 139.744 101.215
104.645 139.041 101.01
104.761 139.457 101.401
104.323 137.873 99.8332
103.84 137.976 99.7843
104.352 137.57 99.368
105.211 135.057 102.121
105.676 135.173 102.099
105.589 134.384 101.912
106.026 135.36 101.9
105.71 135.86 102.261
104.77 135.679 102.358
104.705 135.036 102.175
105.488 133.717 101.788
106.04 133.908 101.675
105.301 136.404 102.684
104.919 136.267 102.712
105.025 136.9 103.012
104.685 134.548 101.752
104.941 133.797 101.692
104.455 134.11 101.551
106.294 134.276 101.407
106.302 135.031 101.475
106.502 134.7 101.108
105.847 134.707 98.244
105.515 134.351 97.6915
105.713 133.856 98.0811
104.951 134.055 97.2385
104.937 134.866 97.6914
105.737 135.496 98.5965
106.056 135.056 98.7976
105.988 133.491 98.6144
105.648 133.06 98.041
105.048 135.632 98.0345
105.477 135.882 98.4435
105.089 136.181 98.4132
106.331 134.711 99.1466
106.151 133.963 99.1411
106.432 134.47 99.6481
105.127 132.741 97.5362
104.763 133.215 97.0343
104.357 132.611 97.1599
100.776 139.963 102.934
100.227 139.662 102.59
100.271 140.294 102.766
99.8046 139.269 102.249
100.3 139.013 102.433
101.199 139.612 103.1
101.312 140.169 103.245
100.444 141.048 102.936
99.9633 140.811 102.376
100.68 138.625 102.656
101.149 139.033 102.904
101.011 138.291 102.897
101.405 140.705 103.589
101.002 141.33 103.433
101.672 141.393 103.856
99.3999 140.394 101.975
99.341 139.503 101.959
98.8765 139.748 101.594
99.8409 139.608 98.9533
100.523 139.761 99.0724
100.031 140.253 99.236
101.111 139.765 99.1818
100.913 139.052 98.9567
99.9918 138.748 98.9345
99.326 139.171 99.0012
99.6279 140.64 99.6016
100.307 140.847 99.6617
100.906 138.452 98.6789
100.474 138.276 98.7256
100.989 137.699 98.5601
98.9229 139.459 99.4377
98.913 140.28 99.5871
98.5385 139.771 99.8505
100.982 140.961 99.6446
101.285 140.319 99.4491
101.577 140.901 99.6977
101.482 135.938 101.693
101.946 135.843 101.718
101.731 135.181 101.495
102.349 135.673 101.869
102.164 136.389 101.98
101.112 136.487 101.971
101.123 136.122 101.575
101.631 134.646 101.17
102.099 134.522 101.182
101.785 136.869 102.275
101.212 136.888 102.344
101.308 137.037 102.657
100.992 135.57 101.312
101.254 134.901 101.019
100.954 135.16 100.867
102.571 134.493 101.262
102.651 135.1 101.637
103.079 134.487 101.399
101.396 133.834 97.1986
101.21 134.141 97.9123
101.06 133.43 97.6739
101.151 134.668 98.4952
101.325 134.961 98.1657
101.684 134.369 96.9919
101.578 133.474 96.5086
101.075 132.682 97.6772
101.034 133.233 98.3472
101.478 135.368 97.9172
101.707 135.106 97.3993
101.542 135.834 97.7223
101.561 132.682 96.322
101.387 132.358 97.0967
101.938 132.11 96.5839
100.999 133.819 98.8743
101.028 134.463 98.9009
100.919 134.401 99.3612
POLYGONS 1280  5120
3 164 162 163
3 163 44 164
3 162 43 163
3 164 42 162
3 166 165 163
3 163 43 166
3 165 44 163
3 166 14 165
3 168 167 162
3 162 42 168
3 167 43 162
3 168 13 167
3 170 169 164
3 164 44 170
3 169 42 164
3 170 12 169
3 173 171 172
3 172 46 173
3 171 43 172
3 173 45 171
3 167 174 172
3 172 43 167
3 174 46 172
3 167 13 174
3 175 166 171
3 171 45 175
3 166 43 171
3 175 14 166
3 177 176 173
3 173 46 177
3 176 45 173
3 177 4 176
3 180 178 179
3 179 48 180
3 178 42 179
3 180 47 178
3 169 181 179
3 179 42 169
3 181 48 179
3 169 12 181
3 182 168 178
3 178 47 182
3 168 42 178
3 182 13 168
3 184 183 180
3 180 48 184
3 183 47 180
3 184 8 183
3 187 185 186
3 186 50 187
3 185 44 186
3 187 49 185
3 165 188 186
3 186 44 165
3 188 50 186
3 165 14 188
3 189 170 185
3 185 49 189
3 170 44 185
3 189 12 170
3 191 190 187
3 187 50 191
3 190 49 187
3 191 7 190
3 194 192 193
3 193 53 194
3 192 52 193
3 194 51 192
3 196 195 193
3 193 52 196
3 195 53 193
3 196 16 195
3 198 197 192
3 192 51 198
3 197 52 192
3 198 14 197
3 200 199 194
3 194 53 200
3 199 51 194
3 200 15 199
3 203 201 202
3 202 45 203
3 201 52 202
3 203 54 201
3 197 175 202
3 202 52 197
3 175 45 202
3 197 14 175
3 204 196 201
3 201 54 204
3 196 52 201
3 204 16 196
3 176 205 203
3 203 45 176
3 205 54 203
3 176 4 205
3 208 206 207
3 207 55 208
3 206 51 207
3 208 50 206
3 199 209 207
3 207 51 199
3 209 55 207
3 199 15 209
3 188 198 206
3 206 50 188
3 198 51 206
3 188 14 198
3 210 191 208
3 208 55 210
3 191 50 208
3 210 7 191
3 213 211 212
3 212 57 213
3 211 53 212
3 213 56 211
3 195 214 212
3 212 53 195
3 214 57 212
3 195 16 214
3 215 200 211
3 211 56 215
3 200 53 211
3 215 15 200
3 217 216 213
3 213 57 217
3 216 56 213
3 217 9 216
3 220 218 219
3 219 60 220
3 218 59 219
3 220 58 218
3 222 221 219
3 219 59 222
3 221 60 219
3 222 19 221
3 224 223 218
3 218 58 224
3 223 59 218
3 224 18 223
3 226 225 220
3 220 60 226
3 225 58 220
3 226 17 225
3 229 227 228
3 228 62 229
3 227 59 228
3 229 61 227
3 223 230 228
3 228 59 223
3 230 62 228
3 223 18 230
3 231 222 227
3 227 61 231
3 222 59 227
3 231 19 222
3 233 232 229
3 229 62 233
3 232 61 229
3 233 5 232
3 236 234 235
3 235 64 236
3 234 58 235
3 236 63 234
3 225 237 235
3 235 58 225
3 237 64 235
3 225 17 237
3 238 224 234
3 234 63 238
3 224 58 234
3 238 18 224
3 240 239 236
3 236 64 240
3 239 63 236
3 240 6 239
3 243 241 242
3 242 66 243
3 241 60 242
3 243 65 241
3 221 244 242
3 242 60 221
3 244 66 242
3 221 19 244
3 245 226 241
3 241 65 245
3 226 60 241
3 245 17 226
3 247 246 243
3 243 66 247
3 246 65 243
3 247 11 246
3 250 248 249
3 249 69 250
3 248 68 249
3 250 67 248
3 252 251 249
3 249 68 252
3 251 69 249
3 252 18 251
3 254 253 248
3 248 67 254
3 253 68 248
3 254 21 253
3 256 255 250
3 250 69 256
3 255 67 250
3 256 20 255
3 259 257 258
3 258 70 259
3 257 68 258
3 259 62 257
3 253 260 258
3 258 68 253
3 260 70 258
3 253 21 260
3 230 252 257
3 257 62 230
3 252 68 257
3 230 18 252
3 261 233 259
3 259 70 261
3 233 62 259
3 261 5 233
3 264 262 263
3 263 72 264
3 262 67 263
3 264 71 262
3 255 265 263
3 263 67 255
3 265 72 263
3 255 20 265
3 266 254 262
3 262 71 266
3 254 67 262
3 266 21 254
3 268 267 264
3 264 72 268
3 267 71 264
3 268 10 267
3 271 269 270
3 270 63 271
3 269 69 270
3 271 73 269
3 251 238 270
3 270 69 251
3 238 63 270
3 251 18 238
3 272 256 269
3 269 73 272
3 256 69 269
3 272 20 256
3 239 273 271
3 271 63 239
3 273 73 271
3 239 6 273
3 276 274 275
3 275 76 276
3 274 75 275
3 276 74 274
3 278 277 275
3 275 75 278
3 277 76 275
3 278 24 277
3 280 279 274
3 274 74 280
3 279 75 274
3 280 23 279
3 282 281 276
3 276 76 282
3 281 74 276
3 282 22 281
3 285 283 284
3 284 78 285
3 283 75 284
3 285 77 283
3 279 286 284
3 284 75 279
3 286 78 284
3 279 23 286
3 287 278 283
3 283 77 287
3 278 75 283
3 287 24 278
3 289 288 285
3 285 78 289
3 288 77 285
3 289 0 288
3 292 290 291
3 291 80 292
3 290 74 291
3 292 79 290
3 281 293 291
3 291 74 281
3 293 80 291
3 281 22 293
3 294 280 290
3 290 79 294
3 280 74 290
3 294 23 280
3 296 295 292
3 292 80 296
3 295 79 292
3 296 4 295
3 299 297 298
3 298 82 299
3 297 76 298
3 299 81 297
3 277 300 298
3 298 76 277
3 300 82 298
3 277 24 300
3 301 282 297
3 297 81 301
3 282 76 297
3 301 22 282
3 303 302 299
3 299 82 303
3 302 81 299
3 303 3 302
3 306 304 305
3 305 85 306
3 304 84 305
3 306 83 304
3 308 307 305
3 305 84 308
3 307 85 305
3 308 26 307
3 310 309 304
3 304 83 310
3 309 84 304
3 310 24 309
3 312 311 306
3 306 85 312
3 311 83 306
3 312 25 311
3 315 313 314
3 314 77 315
3 313 84 314
3 315 86 313
3 309 287 314
3 314 84 309
3 287 77 314
3 309 24 287
3 316 308 313
3 313 86 316
3 308 84 313
3 316 26 308
3 288 317 315
3 315 77 288
3 317 86 315
3 288 0 317
3 320 318 319
3 319 87 320
3 318 83 319
3 320 82 318
3 311 321 319
3 319 83 311
3 321 87 319
3 311 25 321
3 300 310 318
3 318 82 300
3 310 83 318
3 300 24 310
3 322 303 320
3 320 87 322
3 303 82 320
3 322 3 303
3 325 323 324
3 324 89 325
3 323 85 324
3 325 88 323
3 307 326 324
3 324 85 307
3 326 89 324
3 307 26 326
3 327 312 323
3 323 88 327
3 312 85 323
3 327 25 312
3 329 328 325
3 325 89 329
3 328 88 325
3 329 5 328
3 332 330 331
3 331 92 332
3 330 91 331
3 332 90 330
3 334 333 331
3 331 91 334
3 333 92 331
3 334 29 333
3 336 335 330
3 330 90 336
3 335 91 330
3 336 28 335
3 338 337 332
3 332 92 338
3 337 90 332
3 338 27 337
3 341 339 340
3 340 94 341
3 339 91 340
3 341 93 339
3 335 342 340
3 340 91 335
3 342 94 340
3 335 28 342
3 343 334 339
3 339 93 343
3 334 91 339
3 343 29 334
3 345 344 341
3 341 94 345
3 344 93 341
3 345 2 344
3 348 346 347
3 347 96 348
3 346 90 347
3 348 95 346
3 337 349 347
3 347 90 337
3 349 96 347
3 337 27 349
3 350 336 346
3 346 95 350
3 336 90 346
3 350 28 336
3 352 351 348
3 348 96 352
3 351 95 348
3 352 7 351
3 355 353 354
3 354 98 355
3 353 92 354
3 355 97 353
3 333 356 354
3 354 92 333
3 356 98 354
3 333 29 356
3 357 338 353
3 353 97 357
3 338 92 353
3 357 27 338
3 359 358 355
3 355 98 359
3 358 97 355
3 359 1 358
3 362 360 361
3 361 101 362
3 360 100 361
3 362 99 360
3 364 363 361
3 361 100 364
3 363 101 361
3 364 31 363
3 366 365 360
3 360 99 366
3 365 100 360
3 366 29 365
3 368 367 362
3 362 101 368
3 367 99 362
3 368 30 367
3 371 369 370
3 370 93 371
3 369 100 370
3 371 102 369
3 365 343 370
3 370 100 365
3 343 93 370
3 365 29 343
3 372 364 369
3 369 102 372
3 364 100 369
3 372 31 364
3 344 373 371
3 371 93 344
3 373 102 371
3 344 2 373
3 376 374 375
3 375 103 376
3 374 99 375
3 376 98 374
3 367 377 375
3 375 99 367
3 377 103 375
3 367 30 377
3 356 366 374
3 374 98 356
3 366 99 374
3 356 29 366
3 378 359 376
3 376 103 378
3 359 98 376
3 378 1 359
3 381 379 380
3 380 105 381
3 379 101 380
3 381 104 379
3 363 382 380
3 380 101 363
3 382 105 380
3 363 31 382
3 383 368 379
3 379 104 383
3 368 101 379
3 383 30 368
3 385 384 381
3 381 105 385
3 384 104 381
3 385 6 384
3 388 386 387
3 387 108 388
3 386 107 387
3 388 106 386
3 390 389 387
3 387 107 390
3 389 108 387
3 390 34 389
3 392 391 386
3 386 106 392
3 391 107 386
3 392 33 391
3 394 393 388
3 388 108 394
3 393 106 388
3 394 32 393
3 397 395 396
3 396 110 397
3 395 107 396
3 397 109 395
3 391 398 396
3 396 107 391
3 398 110 396
3 391 33 398
3 399 390 395
3 395 109 399
3 390 107 395
3 399 34 390
3 401 400 397
3 397 110 401
3 400 109 397
3 401 8 400
3 404 402 403
3 403 112 404
3 402 106 403
3 404 111 402
3 393 405 403
3 403 106 393
3 405 112 403
3 393 32 405
3 406 392 402
3 402 111 406
3 392 106 402
3 406 33 392
3 408 407 404
3 404 112 408
3 407 111 404
3 408 0 407
3 411 409 410
3 410 114 411
3 409 108 410
3 411 113 409
3 389 412 410
3 410 108 389
3 412 114 410
3 389 34 412
3 413 394 409
3 409 113 413
3 394 108 409
3 413 32 394
3 415 414 411
3 411 114 415
3 414 113 411
3 415 11 414
3 418 416 417
3 417 117 418
3 416 116 417
3 418 115 416
3 420 419 417
3 417 116 420
3 419 117 417
3 420 36 419
3 422 421 416
3 416 115 422
3 421 116 416
3 422 34 421
3 424 423 418
3 418 117 424
3 423 115 418
3 424 35 423
3 427 425 426
3 426 109 427
3 425 116 426
3 427 118 425
3 421 399 426
3 426 116 421
3 399 109 426
3 421 34 399
3 428 420 425
3 425 118 428
3 420 116 425
3 428 36 420
3 400 429 427
3 427 109 400
3 429 118 427
3 400 8 429
3 432 430 431
3 431 119 432
3 430 115 431
3 432 114 430
3 423 433 431
3 431 115 423
3 433 119 431
3 423 35 433
3 412 422 430
3 430 114 412
3 422 115 430
3 412 34 422
3 434 415 432
3 432 119 434
3 415 114 432
3 434 11 415
3 437 435 436
3 436 121 437
3 435 117 436
3 437 120 435
3 419 438 436
3 436 117 419
3 438 121 436
3 419 36 438
3 439 424 435
3 435 120 439
3 424 117 435
3 439 35 424
3 441 440 437
3 437 121 441
3 440 120 437
3 441 1 440
3 444 442 443
3 443 124 444
3 442 123 443
3 444 122 442
3 446 445 443
3 443 123 446
3 445 124 443
3 446 39 445
3 448 447 442
3 442 122 448
3 447 123 442
3 448 38 447
3 450 449 444
3 444 124 450
3 449 122 444
3 450 37 449
3 453 451 452
3 452 126 453
3 451 123 452
3 453 125 451
3 447 454 452
3 452 123 447
3 454 126 452
3 447 38 454
3 455 446 451
3 451 125 455
3 446 123 451
3 455 39 446
3 457 456 453
3 453 126 457
3 456 125 453
3 457 9 456
3 460 458 459
3 459 128 460
3 458 122 459
3 460 127 458
3 449 461 459
3 459 122 449
3 461 128 459
3 449 37 461
3 462 448 458
3 458 127 462
3 448 122 458
3 462 38 448
3 464 463 460
3 460 128 464
3 463 127 460
3 464 10 463
3 467 465 466
3 466 130 467
3 465 124 466
3 467 129 465
3 445 468 466
3 466 124 445
3 468 130 466
3 445 39 468
3 469 450 465
3 465 129 469
3 450 124 465
3 469 37 450
3 471 470 467
3 467 130 471
3 470 129 467
3 471 3 470
3 474 472 473
3 473 133 474
3 472 132 473
3 474 131 472
3 476 475 473
3 473 132 476
3 475 133 473
3 476 38 475
3 478 477 472
3 472 131 478
3 477 132 472
3 478 41 477
3 480 479 474
3 474 133 480
3 479 131 474
3 480 40 479
3 483 481 482
3 482 134 483
3 481 132 482
3 483 126 481
3 477 484 482
3 482 132 477
3 484 134 482
3 477 41 484
3 454 476 481
3 481 126 454
3 476 132 481
3 454 38 476
3 485 457 483
3 483 134 485
3 457 126 483
3 485 9 457
3 488 486 487
3 487 136 488
3 486 131 487
3 488 135 486
3 479 489 487
3 487 131 479
3 489 136 487
3 479 40 489
3 490 478 486
3 486 135 490
3 478 131 486
3 490 41 478
3 492 491 488
3 488 136 492
3 491 135 488
3 492 2 491
3 495 493 494
3 494 127 495
3 493 133 494
3 495 137 493
3 475 462 494
3 494 133 475
3 462 127 494
3 475 38 462
3 496 480 493
3 493 137 496
3 480 133 493
3 496 40 480
3 463 497 495
3 495 127 463
3 497 137 495
3 463 10 497
3 500 498 499
3 499 140 500
3 498 139 499
3 500 138 498
3 502 501 499
3 499 139 502
3 501 140 499
3 502 33 501
3 504 503 498
3 498 138 504
3 503 139 498
3 504 13 503
3 506 505 500
3 500 140 506
3 505 138 500
3 506 23 505
3 509 507 508
3 508 47 509
3 507 139 508
3 509 110 507
3 503 182 508
3 508 139 503
3 182 47 508
3 503 13 182
3 398 502 507
3 507 110 398
3 502 139 507
3 398 33 502
3 183 401 509
3 509 47 183
3 401 110 509
3 183 8 401
3 512 510 511
3 511 79 512
3 510 138 511
3 512 46 510
3 505 294 511
3 511 138 505
3 294 79 511
3 505 23 294
3 174 504 510
3 510 46 174
3 504 138 510
3 174 13 504
3 295 177 512
3 512 79 295
3 177 46 512
3 295 4 177
3 515 513 514
3 514 111 515
3 513 140 514
3 515 78 513
3 501 406 514
3 514 140 501
3 406 111 514
3 501 33 406
3 286 506 513
3 513 78 286
3 506 140 513
3 286 23 506
3 407 289 515
3 515 111 407
3 289 78 515
3 407 0 289
3 518 516 517
3 517 143 518
3 516 142 517
3 518 141 516
3 520 519 517
3 517 142 520
3 519 143 517
3 520 19 519
3 522 521 516
3 516 141 522
3 521 142 516
3 522 32 521
3 524 523 518
3 518 143 524
3 523 141 518
3 524 26 523
3 527 525 526
3 526 113 527
3 525 142 526
3 527 66 525
3 521 413 526
3 526 142 521
3 413 113 526
3 521 32 413
3 244 520 525
3 525 66 244
3 520 142 525
3 244 19 520
3 414 247 527
3 527 113 414
3 247 66 527
3 414 11 247
3 530 528 529
3 529 86 530
3 528 141 529
3 530 112 528
3 523 316 529
3 529 141 523
3 316 86 529
3 523 26 316
3 405 522 528
3 528 112 405
3 522 141 528
3 405 32 522
3 317 408 530
3 530 86 317
3 408 112 530
3 317 0 408
3 533 531 532
3 532 61 533
3 531 143 532
3 533 89 531
3 519 231 532
3 532 143 519
3 231 61 532
3 519 19 231
3 326 524 531
3 531 89 326
3 524 143 531
3 326 26 524
3 232 329 533
3 533 61 232
3 329 89 533
3 232 5 329
3 536 534 535
3 535 146 536
3 534 145 535
3 536 144 534
3 538 537 535
3 535 145 538
3 537 146 535
3 538 22 537
3 540 539 534
3 534 144 540
3 539 145 534
3 540 16 539
3 542 541 536
3 536 146 542
3 541 144 536
3 542 39 541
3 545 543 544
3 544 54 545
3 543 145 544
3 545 80 543
3 539 204 544
3 544 145 539
3 204 54 544
3 539 16 204
3 293 538 543
3 543 80 293
3 538 145 543
3 293 22 538
3 205 296 545
3 545 54 205
3 296 80 545
3 205 4 296
3 548 546 547
3 547 125 548
3 546 144 547
3 548 57 546
3 541 455 547
3 547 144 541
3 455 125 547
3 541 39 455
3 214 540 546
3 546 57 214
3 540 144 546
3 214 16 540
3 456 217 548
3 548 125 456
3 217 57 548
3 456 9 217
3 551 549 550
3 550 81 551
3 549 146 550
3 551 130 549
3 537 301 550
3 550 146 537
3 301 81 550
3 537 22 301
3 468 542 549
3 549 130 468
3 542 146 549
3 468 39 542
3 302 471 551
3 551 81 302
3 471 130 551
3 302 3 471
3 554 552 553
3 553 149 554
3 552 148 553
3 554 147 552
3 556 555 553
3 553 148 556
3 555 149 553
3 556 21 555
3 558 557 552
3 552 147 558
3 557 148 552
3 558 25 557
3 560 559 554
3 554 149 560
3 559 147 554
3 560 37 559
3 563 561 562
3 562 88 563
3 561 148 562
3 563 70 561
3 557 327 562
3 562 148 557
3 327 88 562
3 557 25 327
3 260 556 561
3 561 70 260
3 556 148 561
3 260 21 556
3 328 261 563
3 563 88 328
3 261 70 563
3 328 5 261
3 566 564 565
3 565 129 566
3 564 147 565
3 566 87 564
3 559 469 565
3 565 147 559
3 469 129 565
3 559 37 469
3 321 558 564
3 564 87 321
3 558 147 564
3 321 25 558
3 470 322 566
3 566 129 470
3 322 87 566
3 470 3 322
3 569 567 568
3 568 71 569
3 567 149 568
3 569 128 567
3 555 266 568
3 568 149 555
3 266 71 568
3 555 21 266
3 461 560 567
3 567 128 461
3 560 149 567
3 461 37 560
3 267 464 569
3 569 71 267
3 464 128 569
3 267 10 464
3 572 570 571
3 571 152 572
3 570 151 571
3 572 150 570
3 574 573 571
3 571 151 574
3 573 152 571
3 574 27 573
3 576 575 570
3 570 150 576
3 575 151 570
3 576 12 575
3 578 577 572
3 572 152 578
3 577 150 572
3 578 36 577
3 581 579 580
3 580 49 581
3 579 151 580
3 581 96 579
3 575 189 580
3 580 151 575
3 189 49 580
3 575 12 189
3 349 574 579
3 579 96 349
3 574 151 579
3 349 27 574
3 190 352 581
3 581 49 190
3 352 96 581
3 190 7 352
3 584 582 583
3 583 118 584
3 582 150 583
3 584 48 582
3 577 428 583
3 583 150 577
3 428 118 583
3 577 36 428
3 181 576 582
3 582 48 181
3 576 150 582
3 181 12 576
3 429 184 584
3 584 118 429
3 184 48 584
3 429 8 184
3 587 585 586
3 586 97 587
3 585 152 586
3 587 121 585
3 573 357 586
3 586 152 573
3 357 97 586
3 573 27 357
3 438 578 585
3 585 121 438
3 578 152 585
3 438 36 578
3 358 441 587
3 587 97 358
3 441 121 587
3 358 1 441
3 590 588 589
3 589 155 590
3 588 154 589
3 590 153 588
3 592 591 589
3 589 154 592
3 591 155 589
3 592 17 591
3 594 593 588
3 588 153 594
3 593 154 588
3 594 30 593
3 596 595 590
3 590 155 596
3 595 153 590
3 596 35 595
3 599 597 598
3 598 104 599
3 597 154 598
3 599 64 597
3 593 383 598
3 598 154 593
3 383 104 598
3 593 30 383
3 237 592 597
3 597 64 237
3 592 154 597
3 237 17 592
3 384 240 599
3 599 104 384
3 240 64 599
3 384 6 240
3 602 600 601
3 601 120 602
3 600 153 601
3 602 103 600
3 595 439 601
3 601 153 595
3 439 120 601
3 595 35 439
3 377 594 600
3 600 103 377
3 594 153 600
3 377 30 594
3 440 378 602
3 602 120 440
3 378 103 602
3 440 1 378
3 605 603 604
3 604 65 605
3 603 155 604
3 605 119 603
3 591 245 604
3 604 155 591
3 245 65 604
3 591 17 245
3 433 596 603
3 603 119 433
3 596 155 603
3 433 35 596
3 246 434 605
3 605 65 246
3 434 119 605
3 246 11 434
3 608 606 607
3 607 158 608
3 606 157 607
3 608 156 606
3 610 609 607
3 607 157 610
3 609 158 607
3 610 15 609
3 612 611 606
3 606 156 612
3 611 157 606
3 612 28 611
3 614 613 608
3 608 158 614
3 613 156 608
3 614 41 613
3 617 615 616
3 616 95 617
3 615 157 616
3 617 55 615
3 611 350 616
3 616 157 611
3 350 95 616
3 611 28 350
3 209 610 615
3 615 55 209
3 610 157 615
3 209 15 610
3 351 210 617
3 617 95 351
3 210 55 617
3 351 7 210
3 620 618 619
3 619 135 620
3 618 156 619
3 620 94 618
3 613 490 619
3 619 156 613
3 490 135 619
3 613 41 490
3 342 612 618
3 618 94 342
3 612 156 618
3 342 28 612
3 491 345 620
3 620 135 491
3 345 94 620
3 491 2 345
3 623 621 622
3 622 56 623
3 621 158 622
3 623 134 621
3 609 215 622
3 622 158 609
3 215 56 622
3 609 15 215
3 484 614 621
3 621 134 484
3 614 158 621
3 484 41 614
3 216 485 623
3 623 56 216
3 485 134 623
3 216 9 485
3 626 624 625
3 625 161 626
3 624 160 625
3 626 159 624
3 628 627 625
3 625 160 628
3 627 161 625
3 628 31 627
3 630 629 624
3 624 159 630
3 629 160 624
3 630 20 629
3 632 631 626
3 626 161 632
3 631 159 626
3 632 40 631
3 635 633 634
3 634 73 635
3 633 160 634
3 635 105 633
3 629 272 634
3 634 160 629
3 272 73 634
3 629 20 272
3 382 628 633
3 633 105 382
3 628 160 633
3 382 31 628
3 273 385 635
3 635 73 273
3 385 105 635
3 273 6 385
3 638 636 637
3 637 137 638
3 636 159 637
3 638 72 636
3 631 496 637
3 637 159 631
3 496 137 637
3 631 40 496
3 265 630 636
3 636 72 265
3 630 159 636
3 265 20 630
3 497 268 638
3 638 137 497
3 268 72 638
3 497 10 268
3 641 639 640
3 640 102 641
3 639 161 640
3 641 136 639
3 627 372 640
3 640 161 627
3 372 102 640
3 627 31 372
3 489 632 639
3 639 136 489
3 632 161 639
3 489 40 632
3 373 492 641
3 641 102 373
3 492 136 641
3 373 2 492
