# vtk DataFile Version 3.0
this file was written using fslvtkio
ASCII
DATASET POLYDATA
POINTS 642 float
101.302 127.158 104.906
91.7889 123.557 103.653
89.4302 114.579 102.214
97.6074 118.59 103.694
96.6691 121.398 109.018
99.3489 122.205 99.4756
92.8184 120.159 99.405
91.8889 119.286 108.256
95.3222 128.563 108.58
92.5653 112.365 106.32
93.9276 113.25 99.5923
96.7496 128.626 101.364
93.5319 124.112 109.164
96.7564 125.571 110.072
93.8689 119.839 110.632
91.4261 114.928 108.715
94.6348 116.7 108.195
94.8161 124.697 100.094
96.0166 121.065 99.3377
98.9614 126.17 100.676
92.7254 116.067 98.8064
96.8003 117.646 99.2642
97.0968 119.92 106.303
99.2622 125.011 107.728
100.393 122.755 104.097
99.4093 120.353 101.322
101.668 125.343 101.331
91.4853 121.72 106.211
90.2862 116.077 105.597
90.0522 119.078 102.669
91.6816 122.408 100.684
90.1813 116.691 99.592
100.528 130.305 102.865
99.0548 129.736 107.205
96.4226 130.193 104.91
93.7274 126.854 102.293
93.4319 126.396 106.067
96.1008 115.149 101.678
92.2973 110.316 102.295
94.9234 114.94 104.796
89.9571 111.585 99.462
89.8626 111.38 104.478
94.7952 125.161 110.403
95.3134 122.901 110.718
93.5993 122.225 110.327
95.3902 120.619 110.012
96.9363 123.372 109.908
96.0774 127.36 109.679
94.3078 126.497 109.101
92.7149 121.703 108.762
92.5841 119.573 109.783
92.546 117.375 110.121
94.4595 118.109 109.78
93.1997 115.428 109.196
95.7217 119.05 108.684
91.6136 117.162 108.545
91.9169 113.258 107.969
93.6522 114.497 107.352
95.5981 122.952 99.735
97.5104 123.792 99.8278
96.8757 125.469 100.315
99.1894 124.228 99.8493
97.6646 121.694 99.341
94.3937 120.628 99.3337
93.823 122.461 99.6339
95.7333 126.796 100.607
97.8997 127.491 101.014
94.8354 116.933 98.8158
96.4243 119.381 99.0775
94.4215 118.591 98.9853
98.1046 119.981 99.387
95.3866 115.49 99.3353
93.3819 114.61 98.9287
92.7988 118.154 99.0234
98.3313 122.543 106.983
99.6975 123.845 105.911
98.7675 121.549 105.384
100.861 124.927 104.493
100.308 126.105 106.351
98.1034 123.158 108.521
96.85 120.753 107.632
97.5122 119.189 105.021
99.0622 120.708 103.924
100.216 121.484 102.609
101.53 123.956 102.74
101.335 122.721 101.01
101.743 126.21 103.068
98.3837 119.384 102.529
99.7569 121.056 100.101
100.845 123.862 99.9725
90.6513 118.906 105.872
89.9936 117.698 104.273
90.6277 120.18 104.509
89.5863 116.863 102.451
89.7312 115.244 103.985
90.9955 117.692 106.981
91.6819 120.553 107.25
91.481 122.626 104.921
90.9567 121.277 103.162
90.7486 120.752 101.572
89.8839 118.081 101.018
90.6429 119.672 100.04
89.4531 115.566 100.735
91.6971 123.036 102.174
92.0945 121.387 99.7044
91.3726 118.518 99.3316
100.404 130.833 105.142
97.7292 131.173 106.438
98.4909 131.253 103.558
95.6963 129.662 106.914
97.0881 129.46 108.354
100.606 128.548 106.209
101.673 128.925 103.994
98.5577 129.701 101.902
96.6707 129.561 102.889
95.1525 128.618 103.596
94.8157 128.469 105.549
93.6377 126.914 104.199
94.4008 127.471 107.377
95.0163 127.902 101.587
92.6606 125.238 103.015
92.5288 124.949 104.848
94.3125 112.429 101.918
93.6753 112.26 103.704
95.3862 114.607 103.212
93.8225 113.522 105.544
92.237 110.976 104.55
93.1905 111.532 100.587
95.2044 114.085 100.537
96.9026 116.902 102.677
96.3238 116.782 104.251
89.3966 110.617 101.657
90.6517 109.508 103.631
91.1912 110.092 100.276
90.9158 111.37 106.153
89.5165 112.928 103.208
89.3232 112.99 100.919
92.0505 112.238 99.207
98.2029 125.245 109.148
97.8775 127.765 108.784
99.4463 127.464 107.581
101.358 127.897 102.277
99.7149 128.442 101.684
100.479 125.863 100.755
94.8302 115.864 106.463
95.8052 118.344 107.196
96.024 117.543 105.554
97.6369 117.876 101.503
98.1801 118.93 100.274
96.6643 116.353 100.408
93.3275 125.345 107.714
92.4411 122.979 107.69
92.331 124.094 106.243
92.5564 124.759 101.433
92.98 123.707 100.069
93.9347 126.037 100.665
90.0043 113.642 105.099
90.8687 115.424 107.128
90.5207 113.027 106.835
91.353 113.689 98.7867
91.313 116.321 98.9392
89.7565 113.963 99.3542
95.0388 124.057 110.751
94.3568 122.602 110.732
94.1343 123.738 110.513
93.7383 121.147 110.653
94.5529 121.483 110.701
95.9465 124.275 110.512
95.7355 125.321 110.418
94.0566 124.597 109.92
93.5591 123.318 109.887
95.3584 121.704 110.439
96.1287 123.189 110.407
96.1575 122.055 110.064
96.8318 124.449 110.126
94.6712 120.315 110.448
96.0602 121.058 109.554
96.8438 122.286 109.583
95.393 126.299 110.275
94.3937 125.884 109.921
95.0297 127.061 109.711
93.8756 125.337 109.213
96.4074 126.481 109.959
95.6348 128.087 109.299
94.8149 127.579 108.947
93.1585 122.052 109.581
93.1285 120.925 110.097
92.7268 120.755 109.298
93.1019 119.704 110.45
93.1402 122.92 109.069
92.298 120.48 108.562
92.2688 119.486 109.025
93.5418 117.669 110.184
93.802 116.785 109.542
92.8949 116.348 109.832
93.9767 116.029 108.808
94.5336 117.303 109.074
94.1487 118.909 110.351
93.1716 118.52 110.501
92.0107 116.143 109.522
92.2613 115.098 109.319
95.1082 118.488 109.253
94.928 119.359 109.995
95.6171 119.817 109.416
95.157 117.868 108.499
96.1676 120.304 108.869
92.5183 118.525 110.035
92.0008 117.272 109.424
92.0676 118.381 109.145
91.5189 116.089 108.753
91.727 118.263 108.391
92.5889 114.324 108.744
93.525 114.93 108.365
92.8717 113.841 107.813
94.1971 115.541 107.891
91.6176 113.958 108.588
92.3317 112.807 107.19
93.1541 113.44 106.92
96.5374 123.397 99.8214
97.2117 124.659 100.083
96.1725 124.236 100.055
97.9045 125.774 100.425
98.2018 125.022 100.171
96.7726 122.548 99.5722
95.943 122.131 99.5232
95.2962 123.881 99.951
95.8255 125.015 100.183
98.3555 124.078 99.8567
97.5673 122.709 99.5392
98.4365 122.965 99.5176
96.8484 121.536 99.3476
99.0794 125.238 100.242
99.2535 123.146 99.5491
98.5088 121.996 99.4252
95.0643 121.848 99.5048
94.7309 122.772 99.6862
94.1958 121.592 99.4805
94.3508 123.579 99.837
95.2337 120.878 99.3383
93.5858 120.404 99.3723
93.3392 121.342 99.4576
96.2639 126.069 100.459
97.3895 126.438 100.701
96.8241 127.136 100.767
98.4395 126.788 100.888
95.3351 125.749 100.273
96.2677 127.768 100.82
97.3211 128.114 101.068
95.6355 118.115 98.9074
95.4417 119.019 99.0382
94.6125 117.754 98.8226
95.2183 119.792 99.1706
96.1894 120.214 99.1713
96.5335 118.436 99.057
95.8481 117.332 98.9457
93.8117 116.591 98.7647
93.6012 117.348 98.7859
96.9969 120.598 99.1344
97.235 119.66 99.1897
97.8881 120.821 99.2047
97.3899 118.817 99.3627
98.7285 121.127 99.3932
95.178 116.251 98.9468
94.0968 115.832 98.8336
94.4203 115.066 99.0503
93.113 115.417 98.8056
96.0913 116.595 99.2323
94.6193 114.373 99.4514
93.7025 113.914 99.1951
93.626 118.385 98.9914
94.473 119.689 99.2277
93.5985 119.43 99.2198
92.7705 117.152 98.8594
92.8324 119.186 99.2615
98.9736 123.24 106.47
99.2603 122.674 105.607
98.4231 121.987 106.136
99.6072 122.232 104.84
99.9578 123.224 105.053
99.462 124.326 106.835
98.8799 123.727 107.316
97.7156 121.35 106.563
97.9207 120.852 105.937
100.278 124.342 105.215
100.023 124.927 106.188
100.544 125.494 105.422
99.7866 125.505 107.064
100.628 123.795 104.397
101.107 126.033 104.681
100.823 126.607 105.606
98.2839 122.926 107.765
97.5683 121.696 107.294
97.5428 121.979 108.098
97.0118 120.447 106.934
98.7408 124.142 108.148
97.4167 122.238 108.86
96.7984 121.069 108.342
98.2154 120.385 105.304
99.0041 121.152 104.667
98.3766 120.002 104.595
99.8092 121.762 104.071
97.3889 119.586 105.691
97.6664 118.953 104.342
98.3814 119.707 103.836
101.009 122.688 102.682
101.617 123.352 101.878
100.924 122.118 101.885
101.785 123.985 101.051
101.778 124.629 101.952
100.991 123.301 103.47
100.356 122.08 103.354
99.9965 121.024 101.848
100.537 121.604 101.149
101.649 124.978 102.881
101.125 124.304 103.711
101.347 125.518 103.816
101.764 125.793 102.177
101.545 126.716 104.009
99.6015 121.086 103.328
99.3797 120.508 102.513
98.7671 120.015 103.18
98.9271 119.92 101.946
97.9893 118.989 103.175
100.632 121.908 100.452
101.274 123.256 100.363
100.497 122.477 99.8577
101.415 124.609 100.571
99.7237 120.791 100.734
99.6207 121.588 99.6771
100.046 122.977 99.6421
90.2868 118.296 105.09
90.2287 118.967 104.377
90.6511 119.63 105.213
90.3044 119.505 103.645
90.004 118.444 103.555
90.1346 117.001 104.983
90.4188 117.534 105.685
91.0256 120.267 105.947
91.0624 120.798 105.388
89.7613 117.296 103.416
89.8154 116.482 104.193
89.6082 116.108 103.291
90.0163 115.68 104.824
89.814 117.993 102.641
89.4747 115.722 102.374
89.5367 114.985 103.08
90.7942 118.244 106.404
91.1067 119.741 106.547
91.2729 119.156 107.107
91.5331 121.048 106.665
90.5969 116.841 106.275
91.4269 118.542 107.647
91.8081 119.95 107.783
91.0903 121.356 104.759
90.7451 120.659 103.811
91.1609 121.866 104.076
90.4848 120.124 102.938
91.4355 122.11 105.554
91.5804 123 104.213
91.3487 122.384 103.413
90.2185 119.459 101.316
90.198 118.947 100.493
90.6116 120.291 100.791
90.3392 118.262 99.8211
89.9179 117.523 100.218
89.9457 118.651 101.832
90.3393 119.883 102.088
91.1903 121.523 101.046
91.0937 121.002 100.364
89.6367 116.893 100.84
89.6784 117.534 101.777
89.4648 116.276 101.597
89.7589 116.108 100.068
89.3994 115.101 101.501
90.8231 120.933 102.412
91.2354 121.851 101.827
91.2874 122.155 102.638
91.6445 122.747 101.409
91.7178 123.253 102.945
91.3031 120.545 99.8163
90.9489 119.08 99.5986
91.7154 119.948 99.5005
90.6785 117.632 99.3624
91.7375 121.844 100.116
92.4722 120.768 99.4972
92.105 119.388 99.3756
99.166 131.309 105.685
98.3248 131.455 104.982
99.5539 131.409 104.423
97.4451 130.984 104.3
97.0726 130.993 105.559
98.5731 130.723 106.821
99.7298 130.483 106.206
100.547 130.849 103.922
99.5912 131.075 103.175
96.5517 130.707 106.73
97.5007 130.473 107.477
96.2638 129.907 107.822
98.1031 129.731 107.785
96.0826 130.089 105.935
95.4074 129.074 107.765
96.0976 129.082 108.654
100.6 129.794 105.774
101.181 130.052 104.619
101.295 128.903 105.209
101.277 129.871 103.512
99.9522 129.397 106.637
101.027 127.798 105.658
101.584 128.002 104.556
98.5793 130.614 102.63
97.4998 130.508 103.244
97.5191 129.752 102.256
96.7504 130.148 103.885
99.5166 130.267 102.369
97.628 129.153 101.507
96.5998 129.097 102.023
95.0523 128.66 104.575
94.1894 127.789 104.867
94.3014 127.849 103.909
93.5937 126.831 105.13
94.0915 127.485 105.735
95.6394 129.394 105.271
95.9183 129.457 104.247
94.4073 127.745 103.017
93.7573 127.018 103.289
94.5578 127.972 106.415
95.3 129.116 106.196
94.989 128.586 107.153
93.9526 126.982 106.653
94.8424 128.007 108.049
95.9576 129.211 103.313
95.0407 128.265 102.635
95.8002 128.73 102.264
94.3992 127.461 102.018
95.8579 128.277 101.38
93.1438 126.133 103.582
93.0901 126.008 104.552
92.6171 125.173 103.95
93.0103 125.791 105.413
93.187 126.112 102.683
92.2088 124.379 103.37
92.1033 124.237 104.266
94.0015 112.221 102.832
94.6133 113.341 103.447
94.9129 113.417 102.62
95.0516 114.503 104.002
94.3473 113.495 104.211
93.0498 111.203 103.035
93.3211 111.321 102.114
95.177 113.681 101.827
95.6473 114.658 102.404
93.75 112.869 104.637
93.0239 111.536 104.069
93.0546 112.157 105.096
92.3077 110.484 103.469
94.3503 114.103 105.06
93.2629 112.96 105.978
92.3125 111.658 105.516
93.8268 111.874 101.289
94.8058 113.199 101.168
94.3447 112.67 100.478
95.6439 114.453 101.175
92.7576 110.78 101.356
93.6533 112.384 99.979
94.6317 113.72 100.023
96.1628 115.671 102.924
95.8053 115.598 103.771
96.576 116.715 103.473
95.5656 115.78 104.514
96.4811 115.98 102.187
97.2419 117.749 103.211
97.0447 117.729 104.007
89.9159 109.606 102.433
90.9059 109.492 101.828
90.0797 109.799 100.87
91.8326 110.05 101.208
91.5489 109.736 102.982
89.9451 110.122 103.974
89.5062 110.664 103.043
89.4733 110.772 100.383
90.3535 110.562 99.7355
91.6318 110.147 104.183
90.6467 110.162 104.864
91.5589 111.026 105.409
90.2685 111.102 105.328
91.7532 111.791 106.419
89.4229 111.729 102.51
89.2954 111.734 101.189
89.3341 112.969 102.062
89.41 112.026 100.117
89.6062 111.871 103.67
89.4428 113.85 102.789
89.322 113.832 101.598
91.5628 111.035 99.6174
92.3644 110.812 100.458
92.7984 111.914 99.7894
90.9407 111.683 99.2575
93.0216 112.812 99.3405
98.1261 126.571 109.008
98.6978 127.683 108.179
98.8374 126.44 108.437
99.3427 128.664 107.377
98.4607 128.815 107.991
97.3364 126.67 109.463
97.53 125.49 109.624
98.7888 125.243 108.471
99.399 126.215 107.809
97.5816 128.697 108.622
96.9608 127.496 109.332
96.5515 128.462 109.1
97.5678 124.327 109.614
98.2759 124.149 108.901
97.5699 123.149 109.295
99.937 126.654 107.131
100.004 128.114 106.923
100.496 127.271 106.355
100.611 128.336 101.988
100.161 127.238 101.35
100.939 126.998 101.506
99.7717 126.141 100.788
99.3495 127.25 101.187
100.183 129.495 102.126
101.107 129.25 102.621
101.544 126.599 101.791
101.151 125.711 101.015
98.7852 127.845 101.299
99.236 129.181 101.731
98.2228 128.628 101.299
101.647 128.53 103.043
101.692 126.938 102.573
101.761 127.52 103.63
100.729 124.861 100.307
99.821 125.106 100.219
99.9764 123.967 99.845
95.2657 117.126 106.85
95.8499 118.004 106.334
95.3829 116.681 105.988
96.5348 118.748 105.947
96.4028 119.14 106.699
95.2139 117.504 107.68
94.7582 116.3 107.345
94.8909 115.426 105.591
95.5301 116.243 105.234
96.3896 119.516 107.379
95.7631 118.618 107.942
96.2853 119.88 108.157
94.3495 115.213 106.956
94.3699 114.721 105.91
93.763 114.069 106.413
96.144 117.047 104.901
96.7649 118.415 105.344
96.9629 118.046 104.658
97.9995 118.483 100.895
97.4704 117.678 100.293
97.2242 117.048 100.948
96.8478 117.053 99.7927
97.5144 118.236 99.7627
98.843 119.631 100.799
98.485 119.173 101.452
96.8992 116.502 101.593
96.451 115.755 101.043
98.1243 119.37 99.8096
98.9847 119.999 100.288
98.9388 120.523 99.7183
98.0479 118.707 102.004
97.2306 117.315 102.085
97.5934 118.228 102.662
96.0081 115.167 100.511
96.1144 115.965 99.8199
95.3643 114.778 99.8783
92.9462 124.158 107.693
92.3557 123.519 106.952
92.8697 124.743 106.917
91.8301 122.932 106.281
91.9228 122.399 106.944
93.0363 123.532 108.417
93.426 124.745 108.458
93.3456 125.861 106.852
92.874 125.281 106.163
92.0335 121.783 107.401
92.6095 122.37 108.238
92.2269 121.128 107.984
93.7427 125.874 108.434
93.8049 126.427 107.489
94.3216 126.971 108.251
92.4502 124.594 105.546
91.8329 123.334 105.614
91.9329 123.785 104.873
92.6602 124.306 100.631
93.4206 124.897 100.303
93.1565 125.459 100.983
94.3341 125.384 100.237
93.8649 124.226 100.005
92.2479 123.141 100.342
92.0789 123.651 101.043
93.0827 125.81 101.833
93.7463 126.509 101.417
93.4355 123.122 99.8105
92.4783 122.538 99.9067
92.9046 121.925 99.6052
92.0636 123.888 101.797
92.6117 125.044 102.243
92.1111 124.13 102.624
94.4035 127.035 101.127
94.7844 126.366 100.481
95.2962 127.491 100.856
90.3937 114.493 106.179
90.6968 114.22 107.024
90.2433 113.25 105.944
90.9415 113.953 107.862
91.0655 115.166 107.977
90.5422 115.615 106.318
90.1676 114.853 105.438
89.8832 112.468 104.784
90.1706 112.094 105.687
91.1953 116.277 107.889
90.8338 116.531 107.007
91.3237 117.449 107.71
89.8848 114.489 104.626
89.7412 113.126 104.156
89.6097 114.109 103.676
90.5842 112.087 106.554
91.0961 113.135 107.726
91.4697 112.316 107.159
91.2091 114.909 98.7771
90.506 115.028 98.9832
90.4471 113.677 98.8491
89.9728 115.312 99.458
90.6964 116.376 99.1935
91.9647 116.162 98.8359
92.033 114.948 98.7443
90.6194 112.546 98.9845
89.7518 112.714 99.3329
91.2677 117.422 99.0721
92.0488 117.25 98.9226
92.0841 118.378 99.1554
92.4221 114.378 98.8414
91.6287 112.919 98.926
92.7461 113.524 99.0371
89.4671 113.415 100.074
89.5692 114.922 100.037
89.4193 114.359 100.889
POLYGONS 1280  5120
3 164 162 163
3 163 44 164
3 162 43 163
3 164 42 162
3 166 165 163
3 163 43 166
3 165 44 163
3 166 14 165
3 168 167 162
3 162 42 168
3 167 43 162
3 168 13 167
3 170 169 164
3 164 44 170
3 169 42 164
3 170 12 169
3 173 171 172
3 172 46 173
3 171 43 172
3 173 45 171
3 167 174 172
3 172 43 167
3 174 46 172
3 167 13 174
3 175 166 171
3 171 45 175
3 166 43 171
3 175 14 166
3 177 176 173
3 173 46 177
3 176 45 173
3 177 4 176
3 180 178 179
3 179 48 180
3 178 42 179
3 180 47 178
3 169 181 179
3 179 42 169
3 181 48 179
3 169 12 181
3 182 168 178
3 178 47 182
3 168 42 178
3 182 13 168
3 184 183 180
3 180 48 184
3 183 47 180
3 184 8 183
3 187 185 186
3 186 50 187
3 185 44 186
3 187 49 185
3 165 188 186
3 186 44 165
3 188 50 186
3 165 14 188
3 189 170 185
3 185 49 189
3 170 44 185
3 189 12 170
3 191 190 187
3 187 50 191
3 190 49 187
3 191 7 190
3 194 192 193
3 193 53 194
3 192 52 193
3 194 51 192
3 196 195 193
3 193 52 196
3 195 53 193
3 196 16 195
3 198 197 192
3 192 51 198
3 197 52 192
3 198 14 197
3 200 199 194
3 194 53 200
3 199 51 194
3 200 15 199
3 203 201 202
3 202 45 203
3 201 52 202
3 203 54 201
3 197 175 202
3 202 52 197
3 175 45 202
3 197 14 175
3 204 196 201
3 201 54 204
3 196 52 201
3 204 16 196
3 176 205 203
3 203 45 176
3 205 54 203
3 176 4 205
3 208 206 207
3 207 55 208
3 206 51 207
3 208 50 206
3 199 209 207
3 207 51 199
3 209 55 207
3 199 15 209
3 188 198 206
3 206 50 188
3 198 51 206
3 188 14 198
3 210 191 208
3 208 55 210
3 191 50 208
3 210 7 191
3 213 211 212
3 212 57 213
3 211 53 212
3 213 56 211
3 195 214 212
3 212 53 195
3 214 57 212
3 195 16 214
3 215 200 211
3 211 56 215
3 200 53 211
3 215 15 200
3 217 216 213
3 213 57 217
3 216 56 213
3 217 9 216
3 220 218 219
3 219 60 220
3 218 59 219
3 220 58 218
3 222 221 219
3 219 59 222
3 221 60 219
3 222 19 221
3 224 223 218
3 218 58 224
3 223 59 218
3 224 18 223
3 226 225 220
3 220 60 226
3 225 58 220
3 226 17 225
3 229 227 228
3 228 62 229
3 227 59 228
3 229 61 227
3 223 230 228
3 228 59 223
3 230 62 228
3 223 18 230
3 231 222 227
3 227 61 231
3 222 59 227
3 231 19 222
3 233 232 229
3 229 62 233
3 232 61 229
3 233 5 232
3 236 234 235
3 235 64 236
3 234 58 235
3 236 63 234
3 225 237 235
3 235 58 225
3 237 64 235
3 225 17 237
3 238 224 234
3 234 63 238
3 224 58 234
3 238 18 224
3 240 239 236
3 236 64 240
3 239 63 236
3 240 6 239
3 243 241 242
3 242 66 243
3 241 60 242
3 243 65 241
3 221 244 242
3 242 60 221
3 244 66 242
3 221 19 244
3 245 226 241
3 241 65 245
3 226 60 241
3 245 17 226
3 247 246 243
3 243 66 247
3 246 65 243
3 247 11 246
3 250 248 249
3 249 69 250
3 248 68 249
3 250 67 248
3 252 251 249
3 249 68 252
3 251 69 249
3 252 18 251
3 254 253 248
3 248 67 254
3 253 68 248
3 254 21 253
3 256 255 250
3 250 69 256
3 255 67 250
3 256 20 255
3 259 257 258
3 258 70 259
3 257 68 258
3 259 62 257
3 253 260 258
3 258 68 253
3 260 70 258
3 253 21 260
3 230 252 257
3 257 62 230
3 252 68 257
3 230 18 252
3 261 233 259
3 259 70 261
3 233 62 259
3 261 5 233
3 264 262 263
3 263 72 264
3 262 67 263
3 264 71 262
3 255 265 263
3 263 67 255
3 265 72 263
3 255 20 265
3 266 254 262
3 262 71 266
3 254 67 262
3 266 21 254
3 268 267 264
3 264 72 268
3 267 71 264
3 268 10 267
3 271 269 270
3 270 63 271
3 269 69 270
3 271 73 269
3 251 238 270
3 270 69 251
3 238 63 270
3 251 18 238
3 272 256 269
3 269 73 272
3 256 69 269
3 272 20 256
3 239 273 271
3 271 63 239
3 273 73 271
3 239 6 273
3 276 274 275
3 275 76 276
3 274 75 275
3 276 74 274
3 278 277 275
3 275 75 278
3 277 76 275
3 278 24 277
3 280 279 274
3 274 74 280
3 279 75 274
3 280 23 279
3 282 281 276
3 276 76 282
3 281 74 276
3 282 22 281
3 285 283 284
3 284 78 285
3 283 75 284
3 285 77 283
3 279 286 284
3 284 75 279
3 286 78 284
3 279 23 286
3 287 278 283
3 283 77 287
3 278 75 283
3 287 24 278
3 289 288 285
3 285 78 289
3 288 77 285
3 289 0 288
3 292 290 291
3 291 80 292
3 290 74 291
3 292 79 290
3 281 293 291
3 291 74 281
3 293 80 291
3 281 22 293
3 294 280 290
3 290 79 294
3 280 74 290
3 294 23 280
3 296 295 292
3 292 80 296
3 295 79 292
3 296 4 295
3 299 297 298
3 298 82 299
3 297 76 298
3 299 81 297
3 277 300 298
3 298 76 277
3 300 82 298
3 277 24 300
3 301 282 297
3 297 81 301
3 282 76 297
3 301 22 282
3 303 302 299
3 299 82 303
3 302 81 299
3 303 3 302
3 306 304 305
3 305 85 306
3 304 84 305
3 306 83 304
3 308 307 305
3 305 84 308
3 307 85 305
3 308 26 307
3 310 309 304
3 304 83 310
3 309 84 304
3 310 24 309
3 312 311 306
3 306 85 312
3 311 83 306
3 312 25 311
3 315 313 314
3 314 77 315
3 313 84 314
3 315 86 313
3 309 287 314
3 314 84 309
3 287 77 314
3 309 24 287
3 316 308 313
3 313 86 316
3 308 84 313
3 316 26 308
3 288 317 315
3 315 77 288
3 317 86 315
3 288 0 317
3 320 318 319
3 319 87 320
3 318 83 319
3 320 82 318
3 311 321 319
3 319 83 311
3 321 87 319
3 311 25 321
3 300 310 318
3 318 82 300
3 310 83 318
3 300 24 310
3 322 303 320
3 320 87 322
3 303 82 320
3 322 3 303
3 325 323 324
3 324 89 325
3 323 85 324
3 325 88 323
3 307 326 324
3 324 85 307
3 326 89 324
3 307 26 326
3 327 312 323
3 323 88 327
3 312 85 323
3 327 25 312
3 329 328 325
3 325 89 329
3 328 88 325
3 329 5 328
3 332 330 331
3 331 92 332
3 330 91 331
3 332 90 330
3 334 333 331
3 331 91 334
3 333 92 331
3 334 29 333
3 336 335 330
3 330 90 336
3 335 91 330
3 336 28 335
3 338 337 332
3 332 92 338
3 337 90 332
3 338 27 337
3 341 339 340
3 340 94 341
3 339 91 340
3 341 93 339
3 335 342 340
3 340 91 335
3 342 94 340
3 335 28 342
3 343 334 339
3 339 93 343
3 334 91 339
3 343 29 334
3 345 344 341
3 341 94 345
3 344 93 341
3 345 2 344
3 348 346 347
3 347 96 348
3 346 90 347
3 348 95 346
3 337 349 347
3 347 90 337
3 349 96 347
3 337 27 349
3 350 336 346
3 346 95 350
3 336 90 346
3 350 28 336
3 352 351 348
3 348 96 352
3 351 95 348
3 352 7 351
3 355 353 354
3 354 98 355
3 353 92 354
3 355 97 353
3 333 356 354
3 354 92 333
3 356 98 354
3 333 29 356
3 357 338 353
3 353 97 357
3 338 92 353
3 357 27 338
3 359 358 355
3 355 98 359
3 358 97 355
3 359 1 358
3 362 360 361
3 361 101 362
3 360 100 361
3 362 99 360
3 364 363 361
3 361 100 364
3 363 101 361
3 364 31 363
3 366 365 360
3 360 99 366
3 365 100 360
3 366 29 365
3 368 367 362
3 362 101 368
3 367 99 362
3 368 30 367
3 371 369 370
3 370 93 371
3 369 100 370
3 371 102 369
3 365 343 370
3 370 100 365
3 343 93 370
3 365 29 343
3 372 364 369
3 369 102 372
3 364 100 369
3 372 31 364
3 344 373 371
3 371 93 344
3 373 102 371
3 344 2 373
3 376 374 375
3 375 103 376
3 374 99 375
3 376 98 374
3 367 377 375
3 375 99 367
3 377 103 375
3 367 30 377
3 356 366 374
3 374 98 356
3 366 99 374
3 356 29 366
3 378 359 376
3 376 103 378
3 359 98 376
3 378 1 359
3 381 379 380
3 380 105 381
3 379 101 380
3 381 104 379
3 363 382 380
3 380 101 363
3 382 105 380
3 363 31 382
3 383 368 379
3 379 104 383
3 368 101 379
3 383 30 368
3 385 384 381
3 381 105 385
3 384 104 381
3 385 6 384
3 388 386 387
3 387 108 388
3 386 107 387
3 388 106 386
3 390 389 387
3 387 107 390
3 389 108 387
3 390 34 389
3 392 391 386
3 386 106 392
3 391 107 386
3 392 33 391
3 394 393 388
3 388 108 394
3 393 106 388
3 394 32 393
3 397 395 396
3 396 110 397
3 395 107 396
3 397 109 395
3 391 398 396
3 396 107 391
3 398 110 396
3 391 33 398
3 399 390 395
3 395 109 399
3 390 107 395
3 399 34 390
3 401 400 397
3 397 110 401
3 400 109 397
3 401 8 400
3 404 402 403
3 403 112 404
3 402 106 403
3 404 111 402
3 393 405 403
3 403 106 393
3 405 112 403
3 393 32 405
3 406 392 402
3 402 111 406
3 392 106 402
3 406 33 392
3 408 407 404
3 404 112 408
3 407 111 404
3 408 0 407
3 411 409 410
3 410 114 411
3 409 108 410
3 411 113 409
3 389 412 410
3 410 108 389
3 412 114 410
3 389 34 412
3 413 394 409
3 409 113 413
3 394 108 409
3 413 32 394
3 415 414 411
3 411 114 415
3 414 113 411
3 415 11 414
3 418 416 417
3 417 117 418
3 416 116 417
3 418 115 416
3 420 419 417
3 417 116 420
3 419 117 417
3 420 36 419
3 422 421 416
3 416 115 422
3 421 116 416
3 422 34 421
3 424 423 418
3 418 117 424
3 423 115 418
3 424 35 423
3 427 425 426
3 426 109 427
3 425 116 426
3 427 118 425
3 421 399 426
3 426 116 421
3 399 109 426
3 421 34 399
3 428 420 425
3 425 118 428
3 420 116 425
3 428 36 420
3 400 429 427
3 427 109 400
3 429 118 427
3 400 8 429
3 432 430 431
3 431 119 432
3 430 115 431
3 432 114 430
3 423 433 431
3 431 115 423
3 433 119 431
3 423 35 433
3 412 422 430
3 430 114 412
3 422 115 430
3 412 34 422
3 434 415 432
3 432 119 434
3 415 114 432
3 434 11 415
3 437 435 436
3 436 121 437
3 435 117 436
3 437 120 435
3 419 438 436
3 436 117 419
3 438 121 436
3 419 36 438
3 439 424 435
3 435 120 439
3 424 117 435
3 439 35 424
3 441 440 437
3 437 121 441
3 440 120 437
3 441 1 440
3 444 442 443
3 443 124 444
3 442 123 443
3 444 122 442
3 446 445 443
3 443 123 446
3 445 124 443
3 446 39 445
3 448 447 442
3 442 122 448
3 447 123 442
3 448 38 447
3 450 449 444
3 444 124 450
3 449 122 444
3 450 37 449
3 453 451 452
3 452 126 453
3 451 123 452
3 453 125 451
3 447 454 452
3 452 123 447
3 454 126 452
3 447 38 454
3 455 446 451
3 451 125 455
3 446 123 451
3 455 39 446
3 457 456 453
3 453 126 457
3 456 125 453
3 457 9 456
3 460 458 459
3 459 128 460
3 458 122 459
3 460 127 458
3 449 461 459
3 459 122 449
3 461 128 459
3 449 37 461
3 462 448 458
3 458 127 462
3 448 122 458
3 462 38 448
3 464 463 460
3 460 128 464
3 463 127 460
3 464 10 463
3 467 465 466
3 466 130 467
3 465 124 466
3 467 129 465
3 445 468 466
3 466 124 445
3 468 130 466
3 445 39 468
3 469 450 465
3 465 129 469
3 450 124 465
3 469 37 450
3 471 470 467
3 467 130 471
3 470 129 467
3 471 3 470
3 474 472 473
3 473 133 474
3 472 132 473
3 474 131 472
3 476 475 473
3 473 132 476
3 475 133 473
3 476 38 475
3 478 477 472
3 472 131 478
3 477 132 472
3 478 41 477
3 480 479 474
3 474 133 480
3 479 131 474
3 480 40 479
3 483 481 482
3 482 134 483
3 481 132 482
3 483 126 481
3 477 484 482
3 482 132 477
3 484 134 482
3 477 41 484
3 454 476 481
3 481 126 454
3 476 132 481
3 454 38 476
3 485 457 483
3 483 134 485
3 457 126 483
3 485 9 457
3 488 486 487
3 487 136 488
3 486 131 487
3 488 135 486
3 479 489 487
3 487 131 479
3 489 136 487
3 479 40 489
3 490 478 486
3 486 135 490
3 478 131 486
3 490 41 478
3 492 491 488
3 488 136 492
3 491 135 488
3 492 2 491
3 495 493 494
3 494 127 495
3 493 133 494
3 495 137 493
3 475 462 494
3 494 133 475
3 462 127 494
3 475 38 462
3 496 480 493
3 493 137 496
3 480 133 493
3 496 40 480
3 463 497 495
3 495 127 463
3 497 137 495
3 463 10 497
3 500 498 499
3 499 140 500
3 498 139 499
3 500 138 498
3 502 501 499
3 499 139 502
3 501 140 499
3 502 33 501
3 504 503 498
3 498 138 504
3 503 139 498
3 504 13 503
3 506 505 500
3 500 140 506
3 505 138 500
3 506 23 505
3 509 507 508
3 508 47 509
3 507 139 508
3 509 110 507
3 503 182 508
3 508 139 503
3 182 47 508
3 503 13 182
3 398 502 507
3 507 110 398
3 502 139 507
3 398 33 502
3 183 401 509
3 509 47 183
3 401 110 509
3 183 8 401
3 512 510 511
3 511 79 512
3 510 138 511
3 512 46 510
3 505 294 511
3 511 138 505
3 294 79 511
3 505 23 294
3 174 504 510
3 510 46 174
3 504 138 510
3 174 13 504
3 295 177 512
3 512 79 295
3 177 46 512
3 295 4 177
3 515 513 514
3 514 111 515
3 513 140 514
3 515 78 513
3 501 406 514
3 514 140 501
3 406 111 514
3 501 33 406
3 286 506 513
3 513 78 286
3 506 140 513
3 286 23 506
3 407 289 515
3 515 111 407
3 289 78 515
3 407 0 289
3 518 516 517
3 517 143 518
3 516 142 517
3 518 141 516
3 520 519 517
3 517 142 520
3 519 143 517
3 520 19 519
3 522 521 516
3 516 141 522
3 521 142 516
3 522 32 521
3 524 523 518
3 518 143 524
3 523 141 518
3 524 26 523
3 527 525 526
3 526 113 527
3 525 142 526
3 527 66 525
3 521 413 526
3 526 142 521
3 413 113 526
3 521 32 413
3 244 520 525
3 525 66 244
3 520 142 525
3 244 19 520
3 414 247 527
3 527 113 414
3 247 66 527
3 414 11 247
3 530 528 529
3 529 86 530
3 528 141 529
3 530 112 528
3 523 316 529
3 529 141 523
3 316 86 529
3 523 26 316
3 405 522 528
3 528 112 405
3 522 141 528
3 405 32 522
3 317 408 530
3 530 86 317
3 408 112 530
3 317 0 408
3 533 531 532
3 532 61 533
3 531 143 532
3 533 89 531
3 519 231 532
3 532 143 519
3 231 61 532
3 519 19 231
3 326 524 531
3 531 89 326
3 524 143 531
3 326 26 524
3 232 329 533
3 533 61 232
3 329 89 533
3 232 5 329
3 536 534 535
3 535 146 536
3 534 145 535
3 536 144 534
3 538 537 535
3 535 145 538
3 537 146 535
3 538 22 537
3 540 539 534
3 534 144 540
3 539 145 534
3 540 16 539
3 542 541 536
3 536 146 542
3 541 144 536
3 542 39 541
3 545 543 544
3 544 54 545
3 543 145 544
3 545 80 543
3 539 204 544
3 544 145 539
3 204 54 544
3 539 16 204
3 293 538 543
3 543 80 293
3 538 145 543
3 293 22 538
3 205 296 545
3 545 54 205
3 296 80 545
3 205 4 296
3 548 546 547
3 547 125 548
3 546 144 547
3 548 57 546
3 541 455 547
3 547 144 541
3 455 125 547
3 541 39 455
3 214 540 546
3 546 57 214
3 540 144 546
3 214 16 540
3 456 217 548
3 548 125 456
3 217 57 548
3 456 9 217
3 551 549 550
3 550 81 551
3 549 146 550
3 551 130 549
3 537 301 550
3 550 146 537
3 301 81 550
3 537 22 301
3 468 542 549
3 549 130 468
3 542 146 549
3 468 39 542
3 302 471 551
3 551 81 302
3 471 130 551
3 302 3 471
3 554 552 553
3 553 149 554
3 552 148 553
3 554 147 552
3 556 555 553
3 553 148 556
3 555 149 553
3 556 21 555
3 558 557 552
3 552 147 558
3 557 148 552
3 558 25 557
3 560 559 554
3 554 149 560
3 559 147 554
3 560 37 559
3 563 561 562
3 562 88 563
3 561 148 562
3 563 70 561
3 557 327 562
3 562 148 557
3 327 88 562
3 557 25 327
3 260 556 561
3 561 70 260
3 556 148 561
3 260 21 556
3 328 261 563
3 563 88 328
3 261 70 563
3 328 5 261
3 566 564 565
3 565 129 566
3 564 147 565
3 566 87 564
3 559 469 565
3 565 147 559
3 469 129 565
3 559 37 469
3 321 558 564
3 564 87 321
3 558 147 564
3 321 25 558
3 470 322 566
3 566 129 470
3 322 87 566
3 470 3 322
3 569 567 568
3 568 71 569
3 567 149 568
3 569 128 567
3 555 266 568
3 568 149 555
3 266 71 568
3 555 21 266
3 461 560 567
3 567 128 461
3 560 149 567
3 461 37 560
3 267 464 569
3 569 71 267
3 464 128 569
3 267 10 464
3 572 570 571
3 571 152 572
3 570 151 571
3 572 150 570
3 574 573 571
3 571 151 574
3 573 152 571
3 574 27 573
3 576 575 570
3 570 150 576
3 575 151 570
3 576 12 575
3 578 577 572
3 572 152 578
3 577 150 572
3 578 36 577
3 581 579 580
3 580 49 581
3 579 151 580
3 581 96 579
3 575 189 580
3 580 151 575
3 189 49 580
3 575 12 189
3 349 574 579
3 579 96 349
3 574 151 579
3 349 27 574
3 190 352 581
3 581 49 190
3 352 96 581
3 190 7 352
3 584 582 583
3 583 118 584
3 582 150 583
3 584 48 582
3 577 428 583
3 583 150 577
3 428 118 583
3 577 36 428
3 181 576 582
3 582 48 181
3 576 150 582
3 181 12 576
3 429 184 584
3 584 118 429
3 184 48 584
3 429 8 184
3 587 585 586
3 586 97 587
3 585 152 586
3 587 121 585
3 573 357 586
3 586 152 573
3 357 97 586
3 573 27 357
3 438 578 585
3 585 121 438
3 578 152 585
3 438 36 578
3 358 441 587
3 587 97 358
3 441 121 587
3 358 1 441
3 590 588 589
3 589 155 590
3 588 154 589
3 590 153 588
3 592 591 589
3 589 154 592
3 591 155 589
3 592 17 591
3 594 593 588
3 588 153 594
3 593 154 588
3 594 30 593
3 596 595 590
3 590 155 596
3 595 153 590
3 596 35 595
3 599 597 598
3 598 104 599
3 597 154 598
3 599 64 597
3 593 383 598
3 598 154 593
3 383 104 598
3 593 30 383
3 237 592 597
3 597 64 237
3 592 154 597
3 237 17 592
3 384 240 599
3 599 104 384
3 240 64 599
3 384 6 240
3 602 600 601
3 601 120 602
3 600 153 601
3 602 103 600
3 595 439 601
3 601 153 595
3 439 120 601
3 595 35 439
3 377 594 600
3 600 103 377
3 594 153 600
3 377 30 594
3 440 378 602
3 602 120 440
3 378 103 602
3 440 1 378
3 605 603 604
3 604 65 605
3 603 155 604
3 605 119 603
3 591 245 604
3 604 155 591
3 245 65 604
3 591 17 245
3 433 596 603
3 603 119 433
3 596 155 603
3 433 35 596
3 246 434 605
3 605 65 246
3 434 119 605
3 246 11 434
3 608 606 607
3 607 158 608
3 606 157 607
3 608 156 606
3 610 609 607
3 607 157 610
3 609 158 607
3 610 15 609
3 612 611 606
3 606 156 612
3 611 157 606
3 612 28 611
3 614 613 608
3 608 158 614
3 613 156 608
3 614 41 613
3 617 615 616
3 616 95 617
3 615 157 616
3 617 55 615
3 611 350 616
3 616 157 611
3 350 95 616
3 611 28 350
3 209 610 615
3 615 55 209
3 610 157 615
3 209 15 610
3 351 210 617
3 617 95 351
3 210 55 617
3 351 7 210
3 620 618 619
3 619 135 620
3 618 156 619
3 620 94 618
3 613 490 619
3 619 156 613
3 490 135 619
3 613 41 490
3 342 612 618
3 618 94 342
3 612 156 618
3 342 28 612
3 491 345 620
3 620 135 491
3 345 94 620
3 491 2 345
3 623 621 622
3 622 56 623
3 621 158 622
3 623 134 621
3 609 215 622
3 622 158 609
3 215 56 622
3 609 15 215
3 484 614 621
3 621 134 484
3 614 158 621
3 484 41 614
3 216 485 623
3 623 56 216
3 485 134 623
3 216 9 485
3 626 624 625
3 625 161 626
3 624 160 625
3 626 159 624
3 628 627 625
3 625 160 628
3 627 161 625
3 628 31 627
3 630 629 624
3 624 159 630
3 629 160 624
3 630 20 629
3 632 631 626
3 626 161 632
3 631 159 626
3 632 40 631
3 635 633 634
3 634 73 635
3 633 160 634
3 635 105 633
3 629 272 634
3 634 160 629
3 272 73 634
3 629 20 272
3 382 628 633
3 633 105 382
3 628 160 633
3 382 31 628
3 273 385 635
3 635 73 273
3 385 105 635
3 273 6 385
3 638 636 637
3 637 137 638
3 636 159 637
3 638 72 636
3 631 496 637
3 637 159 631
3 496 137 637
3 631 40 496
3 265 630 636
3 636 72 265
3 630 159 636
3 265 20 630
3 497 268 638
3 638 137 497
3 268 72 638
3 497 10 268
3 641 639 640
3 640 102 641
3 639 161 640
3 641 136 639
3 627 372 640
3 640 161 627
3 372 102 640
3 627 31 372
3 489 632 639
3 639 136 489
3 632 161 639
3 489 40 632
3 373 492 641
3 641 102 373
3 492 136 641
3 373 2 492
