# vtk DataFile Version 3.0
this file was written using fslvtkio
ASCII
DATASET POLYDATA
POINTS 642 float
104.895 139.324 101.855
98.4747 139.348 100.853
100.863 134.994 100.078
106.378 134.649 100.481
104.666 137.517 104.12
104.677 136.737 98.4811
101.45 136.536 98.0977
101.269 137.626 103.098
102.611 141.942 104.968
103.675 133.807 101.445
103.03 131.935 97.134
102.122 141.433 100.023
101.648 139.666 103.929
104.002 139.844 105.045
102.723 137.851 104.035
102.505 136.132 102.113
104.155 135.582 102.561
101.369 139.235 98.8524
103.079 136.538 97.9106
103.179 138.714 99.5676
101.902 134.12 96.138
104.516 134.385 96.9865
105.949 136.007 102.171
105.869 138.98 103.436
105.901 137.215 101.092
105.823 135.475 99.0335
104.704 138.002 100.224
99.8156 138.476 102.335
100.673 136.606 101.825
99.6284 137.081 100.568
99.6642 138.437 99.0104
100.981 135.392 98.5791
103.817 140.903 101.19
104.485 141.245 103.471
102.344 143.319 102.164
99.7605 141.576 100.01
100.073 141.501 102.696
105.791 132.44 98.8555
103.439 131.77 99.9618
105.648 132.923 101.946
101.132 132.531 98.4451
101.964 133.906 100.782
102.772 139.904 104.738
103.277 138.93 104.425
102.339 138.912 104.003
103.578 137.662 104.328
104.365 138.721 104.448
103.407 140.975 105.443
102.048 140.784 104.491
101.464 138.606 103.388
101.981 137.828 103.51
102.668 137.07 103.019
103.417 136.901 103.329
103.365 135.927 102.318
104.437 136.768 103.174
101.783 137.086 102.735
102.862 134.813 101.932
103.933 134.607 101.912
102.256 137.605 98.6681
103.003 137.51 98.9204
102.359 139.041 99.1264
103.919 137.557 99.1066
103.99 136.699 98.1409
102.127 136.445 97.9366
101.337 137.701 98.5809
101.689 140.447 99.4432
102.645 140.125 99.9247
103.343 134.163 95.916
103.822 135.61 97.1224
102.711 135.503 96.8556
104.525 135.722 97.9249
104.013 132.68 96.3595
102.177 132.221 95.6806
101.777 135.479 97.3311
105.662 137.622 102.737
105.641 138.011 102.177
105.918 136.611 101.688
105.463 138.386 101.5
105.48 139.28 102.537
105.559 138.292 104.009
105.315 137.04 102.898
106.217 135.28 101.295
106.197 135.921 100.703
105.9 136.358 100.066
105.565 137.684 100.508
105.688 137.007 99.4967
105.027 138.868 101.027
106.178 134.916 99.7609
105.282 136.184 98.6702
104.807 137.459 99.2432
100.031 137.457 102.233
99.8695 136.766 101.419
99.3578 137.731 101.56
100.447 136.317 100.399
100.686 135.79 101.042
100.826 137.128 102.639
100.574 137.985 102.867
99.0206 138.952 101.691
98.8937 138.169 100.65
99.4999 137.697 99.7459
100.394 136.567 99.6156
100.428 137.009 99.0218
100.89 135.018 99.342
98.8669 139.019 99.8474
100.719 137.474 98.7404
101.171 135.998 98.0917
104.28 141.528 102.288
103.772 142.635 103.17
103.472 142.53 101.579
102.396 142.899 103.997
103.836 141.874 104.47
104.833 140.407 102.565
104.495 140.168 101.619
103.099 141.495 100.526
102.17 142.523 100.73
100.739 142.981 100.882
100.731 142.952 102.769
99.1214 142.342 101.391
101.252 141.991 103.961
101.142 141.964 99.7623
98.5501 140.64 100.277
99.1028 140.623 101.611
104.815 131.457 99.4346
104.755 131.893 100.985
106.143 132.088 100.515
104.529 133.232 101.548
103.771 132.748 100.823
103.088 131.517 98.4922
104.476 132.024 97.9166
106.232 133.525 99.8836
106.306 133.725 101.089
101.731 133.138 99.7469
102.843 132.729 100.131
102.094 132.098 99.2106
102.797 133.682 101.137
101.119 134.296 100.466
100.872 133.773 99.3811
101.671 131.946 97.4857
104.97 139.479 104.169
104.699 140.89 104.749
105.048 140.059 103.502
103.997 139.17 100.792
103.424 139.8 100.357
103.966 138.456 99.9107
104.982 134.381 101.925
105.173 135.69 102.337
105.851 134.586 101.771
106.028 133.934 98.6367
105.482 134.859 97.9637
105.345 133.199 97.4759
100.904 140.508 103.469
100.6 139.186 103.218
99.8315 139.907 102.525
99.3373 140.045 99.2723
100.402 139.071 98.8942
100.525 140.592 99.2281
101.304 135.239 101.373
101.617 136.397 101.924
102.094 134.957 101.559
101.098 132.803 96.7941
101.424 134.456 97.4177
100.94 133.772 98.2293
103.056 139.419 104.614
102.871 138.962 104.151
102.485 139.359 104.4
102.597 138.436 103.932
103.033 138.383 104.127
103.581 139.368 104.788
103.313 139.936 105.076
102.155 139.735 104.418
101.968 139.308 104.065
103.458 138.254 104.304
103.83 138.872 104.481
103.88 138.1 104.478
104.186 139.334 104.603
103.157 137.763 104.184
104.102 137.55 104.311
104.498 138.143 104.479
102.99 140.297 105.205
102.346 140.184 104.795
102.728 140.869 105.019
101.757 140.084 104.273
103.731 140.312 105.492
103.035 141.538 105.133
102.39 141.478 104.68
101.867 138.8 103.72
102.203 138.335 103.696
101.732 138.218 103.462
102.372 137.905 103.768
101.547 139.195 103.657
101.311 138.017 103.262
101.64 137.719 103.249
103.04 137.022 103.208
103.444 136.426 102.711
103.153 136.628 102.501
103.666 135.685 102.545
103.756 136.246 102.875
102.966 137.273 103.875
102.607 137.378 103.63
102.675 136.686 102.432
102.959 136.038 102.238
103.94 136.819 103.215
103.397 137.169 103.942
103.963 137.116 103.853
104.303 136.237 102.778
104.568 137.117 103.59
102.226 137.366 103.399
102.192 137.062 102.907
101.783 137.324 103.251
102.213 136.767 102.323
101.496 137.288 102.993
103.117 135.343 102.127
103.618 135.198 102.142
103.319 134.707 101.987
104.036 135.006 102.245
102.702 135.475 102.02
103.255 134.231 101.691
103.756 134.166 101.68
102.611 137.501 98.7846
102.652 138.132 99.0474
102.288 138.3 98.8857
102.789 138.902 99.3063
103.029 138.037 99.2601
103.01 136.928 98.4442
102.589 136.875 98.4449
101.838 138.419 98.7983
101.902 139.187 98.9585
103.454 137.532 99.024
103.503 137.073 98.4559
103.978 137.215 98.5602
103.519 136.599 98.0419
103.397 137.964 99.4915
104.35 137.226 98.7056
104.32 136.667 98.3361
102.166 136.885 98.4384
101.805 137.661 98.6468
101.81 136.964 98.3677
101.335 138.478 98.6822
102.581 136.486 97.9489
101.749 136.446 98.0164
101.378 137.09 98.3046
102.042 139.758 99.3391
102.465 139.561 99.5278
102.144 140.27 99.6805
102.894 139.379 99.7385
101.56 139.875 99.1566
101.876 140.987 99.7371
102.349 140.752 100.011
103.637 134.963 96.4146
103.301 135.53 96.8246
103.006 134.908 96.1879
102.933 136.029 97.4288
103.449 136.068 97.5015
104.167 135.04 96.9091
103.872 134.239 96.5106
102.526 134.076 95.9083
102.293 134.835 96.3697
103.825 136.148 97.7626
104.233 135.674 97.4623
104.24 136.198 97.9543
104.573 135.134 97.4132
104.617 136.254 98.2411
103.695 133.281 95.9076
102.835 133.118 95.4906
103.157 132.318 95.836
101.893 133.064 95.6807
104.377 133.444 96.5226
103.496 132.163 96.6088
102.587 131.976 96.3484
102.183 135.477 96.8797
102.427 136.05 97.4096
101.942 136.073 97.4896
101.844 134.844 96.6812
101.633 136.103 97.695
105.604 137.852 102.49
105.838 137.36 101.917
105.82 137.129 102.233
105.937 136.921 101.389
105.786 137.586 101.587
105.861 138.595 102.775
105.739 138.346 103.151
105.753 136.848 102.415
106.03 136.366 101.946
105.519 138.158 101.854
105.743 138.768 102.354
105.468 138.87 102.006
105.794 139.176 102.926
105.636 137.762 101.33
105.285 138.983 101.657
105.148 139.324 102.169
105.587 137.965 103.339
105.481 137.311 102.814
105.386 137.6 103.473
105.591 136.583 102.532
105.817 138.663 103.836
105.135 137.882 104.178
105.044 137.24 103.474
106.096 135.939 101.455
106.072 136.219 101.187
106.215 135.638 101.024
105.929 136.466 100.857
106.031 135.61 101.693
106.347 134.898 100.862
106.315 135.203 100.535
105.889 137.069 100.268
105.683 137.36 100.009
105.853 136.716 99.7666
105.348 137.646 99.7927
105.172 137.841 100.351
105.827 137.423 100.786
105.905 136.795 100.544
105.843 135.902 99.5783
105.781 136.287 99.2649
105.189 138.217 100.774
105.447 138.005 101.022
105.338 138.648 101.194
104.885 138.466 100.621
104.949 139.117 101.431
106.075 136.132 100.363
106.059 135.678 99.8756
106.203 135.435 100.213
105.955 135.163 99.3839
106.341 134.74 100.107
105.585 136.604 99.0393
105.341 137.291 99.3329
105.216 136.862 98.9
104.761 137.72 99.7589
105.601 135.866 98.7922
104.904 136.446 98.5641
104.713 137.079 98.8546
99.8391 137.045 101.881
99.6446 137.207 101.544
99.729 137.6 101.935
99.4103 137.37 101.097
99.6746 136.879 101.046
100.265 136.666 101.667
100.211 136.973 102.145
99.9709 137.936 102.247
99.5026 138.101 101.96
100.198 136.607 100.857
100.375 136.354 101.18
100.499 136.066 100.694
100.713 136.189 101.43
100.072 136.768 100.493
100.684 135.638 100.218
100.725 135.386 100.541
100.366 137.259 102.493
100.276 137.667 102.53
100.613 137.492 102.79
100.277 138.251 102.581
100.718 136.946 102.277
101.032 137.337 102.923
100.914 137.734 103.054
99.2035 138.317 101.579
99.0622 137.884 101.125
98.8239 138.472 101.224
99.1998 137.602 100.621
99.4049 138.715 102.037
98.673 139.133 101.283
98.6147 138.698 100.761
99.9835 137.131 99.6709
100.44 136.817 99.3197
99.9704 137.398 99.3432
100.732 136.218 98.8004
100.695 136.008 99.1154
100.092 136.92 100.048
99.5964 137.351 100.121
99.5744 138.068 99.3409
100.072 137.727 99.0636
100.714 135.878 99.4727
100.489 136.441 99.9741
100.73 135.776 99.8659
100.918 135.13 98.9293
100.889 135.004 99.7363
99.0801 137.903 100.168
99.0531 138.297 99.7313
98.7894 138.543 100.248
99.1693 138.757 99.3355
98.5617 139.228 100.34
100.55 137.303 98.831
100.778 136.477 98.5777
100.946 136.795 98.4136
101.06 135.675 98.3028
100.201 138.064 98.867
101.088 137.01 98.3432
101.31 136.297 98.0406
104.117 142.001 102.702
103.642 142.71 102.349
103.956 142.056 101.983
103.039 143.135 101.838
103.079 143.119 102.693
104.169 141.832 103.43
104.324 141.436 102.927
104.205 141.349 101.679
103.692 141.724 101.414
103.225 142.948 103.678
103.804 142.282 104.036
103.264 142.593 104.458
104.15 141.512 103.985
102.331 143.148 103.078
102.487 142.552 104.667
103.264 142.068 104.881
104.593 140.989 102.445
104.383 140.844 101.942
104.551 140.285 102.131
104.167 140.541 101.457
104.868 141.024 102.984
104.81 139.773 102.193
104.699 139.708 101.739
103.224 141.956 101.037
102.919 142.707 101.102
102.764 142.081 100.595
102.268 143.107 101.332
103.481 141.195 100.872
102.624 141.535 100.253
102.172 142.038 100.222
100.595 143.243 101.778
99.7142 142.946 102.099
99.8682 142.859 101.073
99.5334 141.948 102.112
100.087 142.356 102.867
101.523 143.194 102.462
101.488 143.28 101.571
100.184 142.357 100.338
99.3949 142.134 100.495
100.934 142.552 103.441
101.592 142.899 103.362
101.653 142.65 104.12
100.589 141.802 103.384
101.869 142.038 104.583
101.478 142.83 100.822
100.891 142.405 100.264
101.585 142.299 100.239
100.463 141.915 99.8019
101.679 141.71 99.8878
98.8958 141.523 100.811
99.1751 141.462 101.546
98.7453 140.798 101.013
99.627 141.157 102.055
99.0535 141.253 100.02
98.4442 139.911 100.59
98.651 139.935 101.241
104.803 131.525 100.274
105.445 131.732 100.878
105.521 131.707 99.997
105.981 132.32 101.38
105.166 132.254 101.499
104.116 131.754 100.432
104.067 131.39 99.7363
105.414 131.809 99.1184
105.995 132.185 99.6159
104.631 132.531 101.409
104.162 132.301 100.898
104.14 132.877 101.258
103.673 132.267 100.417
104.966 132.955 101.751
104.045 133.54 101.485
103.713 133.319 101.17
103.965 131.422 98.9602
104.683 131.682 98.6301
103.814 131.692 98.2216
105.197 132.179 98.3703
103.217 131.452 99.2664
103.033 131.726 97.7452
103.672 132.022 97.5347
106.293 132.886 100.145
106.36 133.013 100.909
106.207 133.553 100.501
106.223 133.249 101.555
106.116 132.888 99.4059
106.407 134.082 100.195
106.409 134.157 100.726
102.338 132.908 99.9411
102.532 132.325 99.7157
101.936 132.508 99.4682
102.725 131.88 99.5562
103.127 132.233 99.9922
102.394 133.27 100.42
101.979 133.584 100.237
101.402 132.756 99.1932
101.639 132.225 98.7886
103.316 132.689 100.394
102.847 133.095 100.67
103.331 133.164 100.893
102.344 133.756 100.974
103.247 133.707 101.334
101.504 133.808 100.071
101.13 133.395 99.5973
101.018 134.031 99.9428
100.976 133.163 98.964
101.514 134.09 100.65
100.925 134.656 100.269
100.849 134.408 99.7713
101.754 131.944 98.4283
102.364 131.621 98.8537
102.208 131.611 97.9837
101.334 132.146 97.9034
102.27 131.748 97.1679
104.982 140.189 104.547
105.134 140.61 104.126
105.025 139.714 103.853
105.083 140.887 103.542
104.631 141.039 104.06
104.448 140.375 105.123
104.586 139.718 104.592
105.533 139.197 103.905
105.545 139.468 103.425
104.265 141.34 104.523
104.172 141.053 105.416
103.718 141.621 105.043
104.78 139.217 104.194
105.368 138.906 104.277
104.955 138.5 104.453
105.283 139.623 103.015
105.028 140.345 103.035
104.993 139.695 102.606
103.696 139.482 100.607
103.586 139.007 100.268
103.952 138.814 100.411
103.581 138.623 99.7917
103.239 139.188 100.028
103.585 140.384 100.762
103.91 140.064 101.005
104.356 138.631 100.549
104.281 138.219 100.093
103.077 140.02 100.157
103.256 140.683 100.491
102.831 140.763 100.27
104.303 139.722 101.159
104.553 139.045 100.891
104.639 139.437 101.316
104.246 137.804 99.6916
103.752 137.881 99.6358
104.341 137.5 99.1948
105.059 135.034 102.216
105.546 135.158 102.162
105.435 134.371 101.973
105.87 135.339 101.93
105.575 135.811 102.232
104.624 135.583 102.436
104.517 134.983 102.324
105.345 133.66 101.927
105.887 133.827 101.824
105.228 136.347 102.662
104.846 136.215 102.707
104.97 136.831 103.066
104.502 134.461 101.911
104.813 133.721 101.797
104.295 133.969 101.704
106.117 134.148 101.521
106.055 134.965 101.512
106.29 134.557 101.195
105.805 134.39 98.2006
105.503 134.017 97.6074
105.718 133.536 98.0616
104.946 133.715 97.0974
104.933 134.552 97.5341
105.655 135.199 98.5173
105.926 134.732 98.7913
106.016 133.125 98.6676
105.608 132.763 98.1065
105.021 135.361 97.8672
105.396 135.616 98.332
104.942 135.895 98.2988
106.217 134.374 99.1824
106.183 133.605 99.2102
106.323 134.169 99.7306
105.013 132.503 97.6008
104.681 132.92 96.982
104.235 132.397 97.1937
100.742 139.811 103.333
100.174 139.491 102.909
100.311 140.179 103.038
99.7744 139.163 102.474
100.218 138.895 102.747
101.128 139.492 103.557
101.255 140.044 103.729
100.522 140.98 103.143
100.026 140.706 102.58
100.617 138.548 102.955
101.062 138.921 103.312
100.996 138.28 103.129
101.383 140.632 104.027
101.034 141.277 103.686
101.61 141.394 104.273
99.4413 140.298 102.136
99.3596 139.433 102.128
98.9496 139.69 101.732
99.7965 139.692 98.955
100.417 139.879 98.9852
99.9302 140.398 99.2007
100.978 139.895 99.055
100.84 139.178 98.8353
99.959 138.825 98.9118
99.3394 139.232 99.0277
99.5436 140.777 99.6557
100.15 141.061 99.59
100.88 138.443 98.6697
100.48 138.289 98.7304
100.982 137.619 98.5785
98.993 139.533 99.5315
98.9157 140.355 99.7103
98.5768 139.823 99.9635
100.808 141.199 99.5042
101.12 140.503 99.3232
101.409 141.149 99.5493
101.438 135.852 101.654
101.871 135.739 101.703
101.633 135.027 101.495
102.271 135.569 101.879
102.141 136.34 101.951
101.134 136.48 101.906
101.138 136.075 101.509
101.491 134.458 101.188
101.938 134.348 101.249
101.782 136.86 102.224
101.252 136.889 102.269
101.339 137.063 102.629
100.981 135.496 101.254
101.151 134.733 100.981
100.923 135.062 100.803
102.339 134.297 101.408
102.461 134.911 101.752
102.822 134.263 101.587
101.334 133.661 97.0191
101.132 134.06 97.8025
100.986 133.285 97.5504
101.065 134.567 98.3757
101.22 134.83 98.0306
101.589 134.204 96.7669
101.466 133.264 96.2725
101.021 132.557 97.602
100.954 133.098 98.2662
101.403 135.219 97.7771
101.633 135 97.2879
101.501 135.686 97.6219
101.402 132.461 96.1071
101.276 132.228 97.021
101.814 131.971 96.5385
100.914 133.715 98.8031
100.959 134.407 98.8055
100.862 134.367 99.2984
POLYGONS 1280  5120
3 164 162 163
3 163 44 164
3 162 43 163
3 164 42 162
3 166 165 163
3 163 43 166
3 165 44 163
3 166 14 165
3 168 167 162
3 162 42 168
3 167 43 162
3 168 13 167
3 170 169 164
3 164 44 170
3 169 42 164
3 170 12 169
3 173 171 172
3 172 46 173
3 171 43 172
3 173 45 171
3 167 174 172
3 172 43 167
3 174 46 172
3 167 13 174
3 175 166 171
3 171 45 175
3 166 43 171
3 175 14 166
3 177 176 173
3 173 46 177
3 176 45 173
3 177 4 176
3 180 178 179
3 179 48 180
3 178 42 179
3 180 47 178
3 169 181 179
3 179 42 169
3 181 48 179
3 169 12 181
3 182 168 178
3 178 47 182
3 168 42 178
3 182 13 168
3 184 183 180
3 180 48 184
3 183 47 180
3 184 8 183
3 187 185 186
3 186 50 187
3 185 44 186
3 187 49 185
3 165 188 186
3 186 44 165
3 188 50 186
3 165 14 188
3 189 170 185
3 185 49 189
3 170 44 185
3 189 12 170
3 191 190 187
3 187 50 191
3 190 49 187
3 191 7 190
3 194 192 193
3 193 53 194
3 192 52 193
3 194 51 192
3 196 195 193
3 193 52 196
3 195 53 193
3 196 16 195
3 198 197 192
3 192 51 198
3 197 52 192
3 198 14 197
3 200 199 194
3 194 53 200
3 199 51 194
3 200 15 199
3 203 201 202
3 202 45 203
3 201 52 202
3 203 54 201
3 197 175 202
3 202 52 197
3 175 45 202
3 197 14 175
3 204 196 201
3 201 54 204
3 196 52 201
3 204 16 196
3 176 205 203
3 203 45 176
3 205 54 203
3 176 4 205
3 208 206 207
3 207 55 208
3 206 51 207
3 208 50 206
3 199 209 207
3 207 51 199
3 209 55 207
3 199 15 209
3 188 198 206
3 206 50 188
3 198 51 206
3 188 14 198
3 210 191 208
3 208 55 210
3 191 50 208
3 210 7 191
3 213 211 212
3 212 57 213
3 211 53 212
3 213 56 211
3 195 214 212
3 212 53 195
3 214 57 212
3 195 16 214
3 215 200 211
3 211 56 215
3 200 53 211
3 215 15 200
3 217 216 213
3 213 57 217
3 216 56 213
3 217 9 216
3 220 218 219
3 219 60 220
3 218 59 219
3 220 58 218
3 222 221 219
3 219 59 222
3 221 60 219
3 222 19 221
3 224 223 218
3 218 58 224
3 223 59 218
3 224 18 223
3 226 225 220
3 220 60 226
3 225 58 220
3 226 17 225
3 229 227 228
3 228 62 229
3 227 59 228
3 229 61 227
3 223 230 228
3 228 59 223
3 230 62 228
3 223 18 230
3 231 222 227
3 227 61 231
3 222 59 227
3 231 19 222
3 233 232 229
3 229 62 233
3 232 61 229
3 233 5 232
3 236 234 235
3 235 64 236
3 234 58 235
3 236 63 234
3 225 237 235
3 235 58 225
3 237 64 235
3 225 17 237
3 238 224 234
3 234 63 238
3 224 58 234
3 238 18 224
3 240 239 236
3 236 64 240
3 239 63 236
3 240 6 239
3 243 241 242
3 242 66 243
3 241 60 242
3 243 65 241
3 221 244 242
3 242 60 221
3 244 66 242
3 221 19 244
3 245 226 241
3 241 65 245
3 226 60 241
3 245 17 226
3 247 246 243
3 243 66 247
3 246 65 243
3 247 11 246
3 250 248 249
3 249 69 250
3 248 68 249
3 250 67 248
3 252 251 249
3 249 68 252
3 251 69 249
3 252 18 251
3 254 253 248
3 248 67 254
3 253 68 248
3 254 21 253
3 256 255 250
3 250 69 256
3 255 67 250
3 256 20 255
3 259 257 258
3 258 70 259
3 257 68 258
3 259 62 257
3 253 260 258
3 258 68 253
3 260 70 258
3 253 21 260
3 230 252 257
3 257 62 230
3 252 68 257
3 230 18 252
3 261 233 259
3 259 70 261
3 233 62 259
3 261 5 233
3 264 262 263
3 263 72 264
3 262 67 263
3 264 71 262
3 255 265 263
3 263 67 255
3 265 72 263
3 255 20 265
3 266 254 262
3 262 71 266
3 254 67 262
3 266 21 254
3 268 267 264
3 264 72 268
3 267 71 264
3 268 10 267
3 271 269 270
3 270 63 271
3 269 69 270
3 271 73 269
3 251 238 270
3 270 69 251
3 238 63 270
3 251 18 238
3 272 256 269
3 269 73 272
3 256 69 269
3 272 20 256
3 239 273 271
3 271 63 239
3 273 73 271
3 239 6 273
3 276 274 275
3 275 76 276
3 274 75 275
3 276 74 274
3 278 277 275
3 275 75 278
3 277 76 275
3 278 24 277
3 280 279 274
3 274 74 280
3 279 75 274
3 280 23 279
3 282 281 276
3 276 76 282
3 281 74 276
3 282 22 281
3 285 283 284
3 284 78 285
3 283 75 284
3 285 77 283
3 279 286 284
3 284 75 279
3 286 78 284
3 279 23 286
3 287 278 283
3 283 77 287
3 278 75 283
3 287 24 278
3 289 288 285
3 285 78 289
3 288 77 285
3 289 0 288
3 292 290 291
3 291 80 292
3 290 74 291
3 292 79 290
3 281 293 291
3 291 74 281
3 293 80 291
3 281 22 293
3 294 280 290
3 290 79 294
3 280 74 290
3 294 23 280
3 296 295 292
3 292 80 296
3 295 79 292
3 296 4 295
3 299 297 298
3 298 82 299
3 297 76 298
3 299 81 297
3 277 300 298
3 298 76 277
3 300 82 298
3 277 24 300
3 301 282 297
3 297 81 301
3 282 76 297
3 301 22 282
3 303 302 299
3 299 82 303
3 302 81 299
3 303 3 302
3 306 304 305
3 305 85 306
3 304 84 305
3 306 83 304
3 308 307 305
3 305 84 308
3 307 85 305
3 308 26 307
3 310 309 304
3 304 83 310
3 309 84 304
3 310 24 309
3 312 311 306
3 306 85 312
3 311 83 306
3 312 25 311
3 315 313 314
3 314 77 315
3 313 84 314
3 315 86 313
3 309 287 314
3 314 84 309
3 287 77 314
3 309 24 287
3 316 308 313
3 313 86 316
3 308 84 313
3 316 26 308
3 288 317 315
3 315 77 288
3 317 86 315
3 288 0 317
3 320 318 319
3 319 87 320
3 318 83 319
3 320 82 318
3 311 321 319
3 319 83 311
3 321 87 319
3 311 25 321
3 300 310 318
3 318 82 300
3 310 83 318
3 300 24 310
3 322 303 320
3 320 87 322
3 303 82 320
3 322 3 303
3 325 323 324
3 324 89 325
3 323 85 324
3 325 88 323
3 307 326 324
3 324 85 307
3 326 89 324
3 307 26 326
3 327 312 323
3 323 88 327
3 312 85 323
3 327 25 312
3 329 328 325
3 325 89 329
3 328 88 325
3 329 5 328
3 332 330 331
3 331 92 332
3 330 91 331
3 332 90 330
3 334 333 331
3 331 91 334
3 333 92 331
3 334 29 333
3 336 335 330
3 330 90 336
3 335 91 330
3 336 28 335
3 338 337 332
3 332 92 338
3 337 90 332
3 338 27 337
3 341 339 340
3 340 94 341
3 339 91 340
3 341 93 339
3 335 342 340
3 340 91 335
3 342 94 340
3 335 28 342
3 343 334 339
3 339 93 343
3 334 91 339
3 343 29 334
3 345 344 341
3 341 94 345
3 344 93 341
3 345 2 344
3 348 346 347
3 347 96 348
3 346 90 347
3 348 95 346
3 337 349 347
3 347 90 337
3 349 96 347
3 337 27 349
3 350 336 346
3 346 95 350
3 336 90 346
3 350 28 336
3 352 351 348
3 348 96 352
3 351 95 348
3 352 7 351
3 355 353 354
3 354 98 355
3 353 92 354
3 355 97 353
3 333 356 354
3 354 92 333
3 356 98 354
3 333 29 356
3 357 338 353
3 353 97 357
3 338 92 353
3 357 27 338
3 359 358 355
3 355 98 359
3 358 97 355
3 359 1 358
3 362 360 361
3 361 101 362
3 360 100 361
3 362 99 360
3 364 363 361
3 361 100 364
3 363 101 361
3 364 31 363
3 366 365 360
3 360 99 366
3 365 100 360
3 366 29 365
3 368 367 362
3 362 101 368
3 367 99 362
3 368 30 367
3 371 369 370
3 370 93 371
3 369 100 370
3 371 102 369
3 365 343 370
3 370 100 365
3 343 93 370
3 365 29 343
3 372 364 369
3 369 102 372
3 364 100 369
3 372 31 364
3 344 373 371
3 371 93 344
3 373 102 371
3 344 2 373
3 376 374 375
3 375 103 376
3 374 99 375
3 376 98 374
3 367 377 375
3 375 99 367
3 377 103 375
3 367 30 377
3 356 366 374
3 374 98 356
3 366 99 374
3 356 29 366
3 378 359 376
3 376 103 378
3 359 98 376
3 378 1 359
3 381 379 380
3 380 105 381
3 379 101 380
3 381 104 379
3 363 382 380
3 380 101 363
3 382 105 380
3 363 31 382
3 383 368 379
3 379 104 383
3 368 101 379
3 383 30 368
3 385 384 381
3 381 105 385
3 384 104 381
3 385 6 384
3 388 386 387
3 387 108 388
3 386 107 387
3 388 106 386
3 390 389 387
3 387 107 390
3 389 108 387
3 390 34 389
3 392 391 386
3 386 106 392
3 391 107 386
3 392 33 391
3 394 393 388
3 388 108 394
3 393 106 388
3 394 32 393
3 397 395 396
3 396 110 397
3 395 107 396
3 397 109 395
3 391 398 396
3 396 107 391
3 398 110 396
3 391 33 398
3 399 390 395
3 395 109 399
3 390 107 395
3 399 34 390
3 401 400 397
3 397 110 401
3 400 109 397
3 401 8 400
3 404 402 403
3 403 112 404
3 402 106 403
3 404 111 402
3 393 405 403
3 403 106 393
3 405 112 403
3 393 32 405
3 406 392 402
3 402 111 406
3 392 106 402
3 406 33 392
3 408 407 404
3 404 112 408
3 407 111 404
3 408 0 407
3 411 409 410
3 410 114 411
3 409 108 410
3 411 113 409
3 389 412 410
3 410 108 389
3 412 114 410
3 389 34 412
3 413 394 409
3 409 113 413
3 394 108 409
3 413 32 394
3 415 414 411
3 411 114 415
3 414 113 411
3 415 11 414
3 418 416 417
3 417 117 418
3 416 116 417
3 418 115 416
3 420 419 417
3 417 116 420
3 419 117 417
3 420 36 419
3 422 421 416
3 416 115 422
3 421 116 416
3 422 34 421
3 424 423 418
3 418 117 424
3 423 115 418
3 424 35 423
3 427 425 426
3 426 109 427
3 425 116 426
3 427 118 425
3 421 399 426
3 426 116 421
3 399 109 426
3 421 34 399
3 428 420 425
3 425 118 428
3 420 116 425
3 428 36 420
3 400 429 427
3 427 109 400
3 429 118 427
3 400 8 429
3 432 430 431
3 431 119 432
3 430 115 431
3 432 114 430
3 423 433 431
3 431 115 423
3 433 119 431
3 423 35 433
3 412 422 430
3 430 114 412
3 422 115 430
3 412 34 422
3 434 415 432
3 432 119 434
3 415 114 432
3 434 11 415
3 437 435 436
3 436 121 437
3 435 117 436
3 437 120 435
3 419 438 436
3 436 117 419
3 438 121 436
3 419 36 438
3 439 424 435
3 435 120 439
3 424 117 435
3 439 35 424
3 441 440 437
3 437 121 441
3 440 120 437
3 441 1 440
3 444 442 443
3 443 124 444
3 442 123 443
3 444 122 442
3 446 445 443
3 443 123 446
3 445 124 443
3 446 39 445
3 448 447 442
3 442 122 448
3 447 123 442
3 448 38 447
3 450 449 444
3 444 124 450
3 449 122 444
3 450 37 449
3 453 451 452
3 452 126 453
3 451 123 452
3 453 125 451
3 447 454 452
3 452 123 447
3 454 126 452
3 447 38 454
3 455 446 451
3 451 125 455
3 446 123 451
3 455 39 446
3 457 456 453
3 453 126 457
3 456 125 453
3 457 9 456
3 460 458 459
3 459 128 460
3 458 122 459
3 460 127 458
3 449 461 459
3 459 122 449
3 461 128 459
3 449 37 461
3 462 448 458
3 458 127 462
3 448 122 458
3 462 38 448
3 464 463 460
3 460 128 464
3 463 127 460
3 464 10 463
3 467 465 466
3 466 130 467
3 465 124 466
3 467 129 465
3 445 468 466
3 466 124 445
3 468 130 466
3 445 39 468
3 469 450 465
3 465 129 469
3 450 124 465
3 469 37 450
3 471 470 467
3 467 130 471
3 470 129 467
3 471 3 470
3 474 472 473
3 473 133 474
3 472 132 473
3 474 131 472
3 476 475 473
3 473 132 476
3 475 133 473
3 476 38 475
3 478 477 472
3 472 131 478
3 477 132 472
3 478 41 477
3 480 479 474
3 474 133 480
3 479 131 474
3 480 40 479
3 483 481 482
3 482 134 483
3 481 132 482
3 483 126 481
3 477 484 482
3 482 132 477
3 484 134 482
3 477 41 484
3 454 476 481
3 481 126 454
3 476 132 481
3 454 38 476
3 485 457 483
3 483 134 485
3 457 126 483
3 485 9 457
3 488 486 487
3 487 136 488
3 486 131 487
3 488 135 486
3 479 489 487
3 487 131 479
3 489 136 487
3 479 40 489
3 490 478 486
3 486 135 490
3 478 131 486
3 490 41 478
3 492 491 488
3 488 136 492
3 491 135 488
3 492 2 491
3 495 493 494
3 494 127 495
3 493 133 494
3 495 137 493
3 475 462 494
3 494 133 475
3 462 127 494
3 475 38 462
3 496 480 493
3 493 137 496
3 480 133 493
3 496 40 480
3 463 497 495
3 495 127 463
3 497 137 495
3 463 10 497
3 500 498 499
3 499 140 500
3 498 139 499
3 500 138 498
3 502 501 499
3 499 139 502
3 501 140 499
3 502 33 501
3 504 503 498
3 498 138 504
3 503 139 498
3 504 13 503
3 506 505 500
3 500 140 506
3 505 138 500
3 506 23 505
3 509 507 508
3 508 47 509
3 507 139 508
3 509 110 507
3 503 182 508
3 508 139 503
3 182 47 508
3 503 13 182
3 398 502 507
3 507 110 398
3 502 139 507
3 398 33 502
3 183 401 509
3 509 47 183
3 401 110 509
3 183 8 401
3 512 510 511
3 511 79 512
3 510 138 511
3 512 46 510
3 505 294 511
3 511 138 505
3 294 79 511
3 505 23 294
3 174 504 510
3 510 46 174
3 504 138 510
3 174 13 504
3 295 177 512
3 512 79 295
3 177 46 512
3 295 4 177
3 515 513 514
3 514 111 515
3 513 140 514
3 515 78 513
3 501 406 514
3 514 140 501
3 406 111 514
3 501 33 406
3 286 506 513
3 513 78 286
3 506 140 513
3 286 23 506
3 407 289 515
3 515 111 407
3 289 78 515
3 407 0 289
3 518 516 517
3 517 143 518
3 516 142 517
3 518 141 516
3 520 519 517
3 517 142 520
3 519 143 517
3 520 19 519
3 522 521 516
3 516 141 522
3 521 142 516
3 522 32 521
3 524 523 518
3 518 143 524
3 523 141 518
3 524 26 523
3 527 525 526
3 526 113 527
3 525 142 526
3 527 66 525
3 521 413 526
3 526 142 521
3 413 113 526
3 521 32 413
3 244 520 525
3 525 66 244
3 520 142 525
3 244 19 520
3 414 247 527
3 527 113 414
3 247 66 527
3 414 11 247
3 530 528 529
3 529 86 530
3 528 141 529
3 530 112 528
3 523 316 529
3 529 141 523
3 316 86 529
3 523 26 316
3 405 522 528
3 528 112 405
3 522 141 528
3 405 32 522
3 317 408 530
3 530 86 317
3 408 112 530
3 317 0 408
3 533 531 532
3 532 61 533
3 531 143 532
3 533 89 531
3 519 231 532
3 532 143 519
3 231 61 532
3 519 19 231
3 326 524 531
3 531 89 326
3 524 143 531
3 326 26 524
3 232 329 533
3 533 61 232
3 329 89 533
3 232 5 329
3 536 534 535
3 535 146 536
3 534 145 535
3 536 144 534
3 538 537 535
3 535 145 538
3 537 146 535
3 538 22 537
3 540 539 534
3 534 144 540
3 539 145 534
3 540 16 539
3 542 541 536
3 536 146 542
3 541 144 536
3 542 39 541
3 545 543 544
3 544 54 545
3 543 145 544
3 545 80 543
3 539 204 544
3 544 145 539
3 204 54 544
3 539 16 204
3 293 538 543
3 543 80 293
3 538 145 543
3 293 22 538
3 205 296 545
3 545 54 205
3 296 80 545
3 205 4 296
3 548 546 547
3 547 125 548
3 546 144 547
3 548 57 546
3 541 455 547
3 547 144 541
3 455 125 547
3 541 39 455
3 214 540 546
3 546 57 214
3 540 144 546
3 214 16 540
3 456 217 548
3 548 125 456
3 217 57 548
3 456 9 217
3 551 549 550
3 550 81 551
3 549 146 550
3 551 130 549
3 537 301 550
3 550 146 537
3 301 81 550
3 537 22 301
3 468 542 549
3 549 130 468
3 542 146 549
3 468 39 542
3 302 471 551
3 551 81 302
3 471 130 551
3 302 3 471
3 554 552 553
3 553 149 554
3 552 148 553
3 554 147 552
3 556 555 553
3 553 148 556
3 555 149 553
3 556 21 555
3 558 557 552
3 552 147 558
3 557 148 552
3 558 25 557
3 560 559 554
3 554 149 560
3 559 147 554
3 560 37 559
3 563 561 562
3 562 88 563
3 561 148 562
3 563 70 561
3 557 327 562
3 562 148 557
3 327 88 562
3 557 25 327
3 260 556 561
3 561 70 260
3 556 148 561
3 260 21 556
3 328 261 563
3 563 88 328
3 261 70 563
3 328 5 261
3 566 564 565
3 565 129 566
3 564 147 565
3 566 87 564
3 559 469 565
3 565 147 559
3 469 129 565
3 559 37 469
3 321 558 564
3 564 87 321
3 558 147 564
3 321 25 558
3 470 322 566
3 566 129 470
3 322 87 566
3 470 3 322
3 569 567 568
3 568 71 569
3 567 149 568
3 569 128 567
3 555 266 568
3 568 149 555
3 266 71 568
3 555 21 266
3 461 560 567
3 567 128 461
3 560 149 567
3 461 37 560
3 267 464 569
3 569 71 267
3 464 128 569
3 267 10 464
3 572 570 571
3 571 152 572
3 570 151 571
3 572 150 570
3 574 573 571
3 571 151 574
3 573 152 571
3 574 27 573
3 576 575 570
3 570 150 576
3 575 151 570
3 576 12 575
3 578 577 572
3 572 152 578
3 577 150 572
3 578 36 577
3 581 579 580
3 580 49 581
3 579 151 580
3 581 96 579
3 575 189 580
3 580 151 575
3 189 49 580
3 575 12 189
3 349 574 579
3 579 96 349
3 574 151 579
3 349 27 574
3 190 352 581
3 581 49 190
3 352 96 581
3 190 7 352
3 584 582 583
3 583 118 584
3 582 150 583
3 584 48 582
3 577 428 583
3 583 150 577
3 428 118 583
3 577 36 428
3 181 576 582
3 582 48 181
3 576 150 582
3 181 12 576
3 429 184 584
3 584 118 429
3 184 48 584
3 429 8 184
3 587 585 586
3 586 97 587
3 585 152 586
3 587 121 585
3 573 357 586
3 586 152 573
3 357 97 586
3 573 27 357
3 438 578 585
3 585 121 438
3 578 152 585
3 438 36 578
3 358 441 587
3 587 97 358
3 441 121 587
3 358 1 441
3 590 588 589
3 589 155 590
3 588 154 589
3 590 153 588
3 592 591 589
3 589 154 592
3 591 155 589
3 592 17 591
3 594 593 588
3 588 153 594
3 593 154 588
3 594 30 593
3 596 595 590
3 590 155 596
3 595 153 590
3 596 35 595
3 599 597 598
3 598 104 599
3 597 154 598
3 599 64 597
3 593 383 598
3 598 154 593
3 383 104 598
3 593 30 383
3 237 592 597
3 597 64 237
3 592 154 597
3 237 17 592
3 384 240 599
3 599 104 384
3 240 64 599
3 384 6 240
3 602 600 601
3 601 120 602
3 600 153 601
3 602 103 600
3 595 439 601
3 601 153 595
3 439 120 601
3 595 35 439
3 377 594 600
3 600 103 377
3 594 153 600
3 377 30 594
3 440 378 602
3 602 120 440
3 378 103 602
3 440 1 378
3 605 603 604
3 604 65 605
3 603 155 604
3 605 119 603
3 591 245 604
3 604 155 591
3 245 65 604
3 591 17 245
3 433 596 603
3 603 119 433
3 596 155 603
3 433 35 596
3 246 434 605
3 605 65 246
3 434 119 605
3 246 11 434
3 608 606 607
3 607 158 608
3 606 157 607
3 608 156 606
3 610 609 607
3 607 157 610
3 609 158 607
3 610 15 609
3 612 611 606
3 606 156 612
3 611 157 606
3 612 28 611
3 614 613 608
3 608 158 614
3 613 156 608
3 614 41 613
3 617 615 616
3 616 95 617
3 615 157 616
3 617 55 615
3 611 350 616
3 616 157 611
3 350 95 616
3 611 28 350
3 209 610 615
3 615 55 209
3 610 157 615
3 209 15 610
3 351 210 617
3 617 95 351
3 210 55 617
3 351 7 210
3 620 618 619
3 619 135 620
3 618 156 619
3 620 94 618
3 613 490 619
3 619 156 613
3 490 135 619
3 613 41 490
3 342 612 618
3 618 94 342
3 612 156 618
3 342 28 612
3 491 345 620
3 620 135 491
3 345 94 620
3 491 2 345
3 623 621 622
3 622 56 623
3 621 158 622
3 623 134 621
3 609 215 622
3 622 158 609
3 215 56 622
3 609 15 215
3 484 614 621
3 621 134 484
3 614 158 621
3 484 41 614
3 216 485 623
3 623 56 216
3 485 134 623
3 216 9 485
3 626 624 625
3 625 161 626
3 624 160 625
3 626 159 624
3 628 627 625
3 625 160 628
3 627 161 625
3 628 31 627
3 630 629 624
3 624 159 630
3 629 160 624
3 630 20 629
3 632 631 626
3 626 161 632
3 631 159 626
3 632 40 631
3 635 633 634
3 634 73 635
3 633 160 634
3 635 105 633
3 629 272 634
3 634 160 629
3 272 73 634
3 629 20 272
3 382 628 633
3 633 105 382
3 628 160 633
3 382 31 628
3 273 385 635
3 635 73 273
3 385 105 635
3 273 6 385
3 638 636 637
3 637 137 638
3 636 159 637
3 638 72 636
3 631 496 637
3 637 159 631
3 496 137 637
3 631 40 496
3 265 630 636
3 636 72 265
3 630 159 636
3 265 20 630
3 497 268 638
3 638 137 497
3 268 72 638
3 497 10 268
3 641 639 640
3 640 102 641
3 639 161 640
3 641 136 639
3 627 372 640
3 640 161 627
3 372 102 640
3 627 31 372
3 489 632 639
3 639 136 489
3 632 161 639
3 489 40 632
3 373 492 641
3 641 102 373
3 492 136 641
3 373 2 492
