# vtk DataFile Version 3.0
this file was written using fslvtkio
ASCII
DATASET POLYDATA
POINTS 642 float
131.117 128.744 106.053
121.676 127.913 105.298
126.492 121.445 105.049
135.217 119.285 105.202
130.725 124.321 110.81
132.19 124.306 101.537
125.695 124.209 100.816
125.679 124.499 110.284
125.561 132.995 110.014
131.056 116.803 108.545
131.235 117.129 101.671
125.975 131.756 102.611
125.028 128.819 111.292
128.34 129.346 111.534
128.427 123.994 112.515
128.561 120.635 109.962
131.927 119.455 111.148
125.371 128.029 101.659
129.186 124.013 100.985
129.428 128.493 101.812
128.708 120.569 101.015
132.857 119.869 100.996
133.434 120.979 108.464
131.019 127.115 108.759
133.792 124.228 105.641
134.818 121.274 102.44
132.289 127.272 103.17
123.117 127.277 108.625
126.278 123.079 107.651
123.359 124.408 104.973
122.476 126.317 101.84
125.363 122.456 102.512
128.75 131.464 104.264
128.291 131.882 108.032
124.475 134.418 105.773
122.138 131.002 103.388
122.063 131.534 107.564
135.506 115.625 101.974
131.341 115.456 104.746
134.566 115.679 107.394
128.584 118.621 103.319
128.945 118.916 106.675
126.684 129.386 112.068
128.383 126.867 112.649
126.602 126.479 112.3
129.841 124.188 112.195
129.505 126.867 111.311
127.131 131.543 111.175
125.066 131.053 110.678
124.978 126.453 111.081
126.83 124.238 111.584
128.17 122.153 111.523
130.205 121.753 112.418
130.005 119.687 111.2
131.419 121.949 111.151
127.109 122.679 110.063
129.814 118.863 109.153
131.489 117.725 110.261
127.287 126.268 101.112
129.144 126.264 101.359
127.526 128.163 101.706
130.753 126.371 101.565
130.683 124.1 101.263
127.465 124.188 100.837
125.557 126.139 100.954
125.834 129.767 102.212
127.761 130.189 102.176
130.752 120.235 100.778
130.929 121.956 100.881
128.824 122.336 100.852
132.423 122.113 101.112
132.097 118.38 101.096
129.958 118.836 101.246
127.079 122.452 100.982
132.46 124.16 108.69
132.522 125.576 107.343
133.681 122.854 107.277
132.448 126.496 105.873
131.16 128.026 107.461
130.857 125.769 109.823
132.178 122.731 109.706
134.388 120.162 106.948
134.576 121.839 105.544
134.528 123.005 104.006
133.171 125.733 104.357
133.815 124.402 102.824
131.689 128.038 104.579
135.262 120.458 103.822
133.673 122.951 101.743
132.493 125.965 102.074
124.57 125.17 108.095
124.665 123.849 106.555
123.427 125.725 106.845
124.851 122.974 105.097
126.247 122.153 106.358
126.062 123.836 108.93
124.319 125.875 109.549
122.446 127.421 106.912
122.461 126.048 105.079
122.57 125.01 103.329
124.123 123.26 103.633
123.414 124.063 101.93
125.969 121.889 103.784
121.805 126.969 103.489
123.945 125.231 101.015
125.318 123.103 101.396
128.293 132.079 106.042
126.585 133.89 107.164
126.492 133.489 104.807
124.854 134.104 108.197
127.183 132.871 109.296
129.746 130.369 107.056
130.144 130.226 105.179
127.552 131.939 103.192
124.934 133.428 103.517
123.015 133.389 103.89
122.778 133.677 106.814
121.104 131.737 105.26
123.652 132.346 108.987
124.131 131.309 102.77
121.181 129.27 104.255
121.486 129.616 106.555
133.368 114.058 102.956
133.233 114.122 106.04
135.761 114.702 104.645
132.749 115.654 108.549
131.145 116.025 106.684
131.115 115.924 102.844
133.117 116.156 101.606
135.742 117.412 103.8
135.002 117.582 106.24
128.754 118.577 104.966
129.969 116.897 105.698
129.898 116.655 103.864
129.906 117.876 107.645
127.78 120.225 105.841
127.616 120.201 104.176
129.588 117.742 102.273
129.603 128.285 110.091
128.374 130.702 109.84
129.692 129.624 108.513
130.683 129.483 103.643
129.368 130.362 102.706
131.166 127.973 102.135
133.209 117.192 109.575
132.648 120.183 109.829
134.057 118.241 108.062
135.479 118.405 102.323
133.987 120.635 101.419
134.184 117.62 101.257
123.438 130.318 109.511
123.812 127.964 110.135
122.296 129.315 108.106
122.246 128.573 102.821
123.895 127.114 101.506
123.813 129.491 102.528
127.59 121.089 107.123
127.44 121.903 108.718
128.776 120.018 108.213
128.387 119.57 102.004
126.947 121.455 101.708
127.175 120.736 102.935
127.528 128.154 112.512
127.466 126.749 112.547
126.649 127.943 112.233
127.512 125.346 112.481
128.285 125.507 112.724
128.329 128.201 112.272
127.618 129.393 112.15
125.889 129.034 111.757
125.867 127.736 111.897
129.056 125.567 112.57
128.966 126.946 112.075
129.568 125.644 111.894
128.877 128.087 111.553
129.125 124.224 112.609
130.241 124.421 111.537
130.073 125.606 111.162
126.878 130.512 111.847
125.828 130.24 111.477
126.094 131.363 111.155
124.988 129.963 111.026
127.722 130.505 111.474
126.363 132.399 110.74
125.316 132.093 110.472
125.742 126.583 111.778
126.655 125.318 112.053
125.829 125.384 111.457
127.565 124.165 112.164
125.069 127.572 111.394
125.295 125.316 110.823
126.202 124.436 111.007
129.113 121.886 112.154
130.022 120.615 112.049
129.111 120.923 111.546
130.948 119.529 111.53
131.052 120.622 111.996
129.308 122.842 112.595
128.25 122.982 112.157
128.457 121.227 110.878
129.204 120.139 110.737
130.87 121.937 111.954
130.006 123.132 112.477
130.685 123.215 111.651
131.632 120.761 111.33
131.081 123.158 110.963
127.442 123.182 111.579
127.664 122.263 110.756
126.88 123.434 110.739
127.9 121.588 110.105
126.393 123.741 110.212
129.817 119.305 110.167
130.71 118.747 110.814
130.533 118.306 109.869
131.772 118.479 110.914
129.184 119.743 109.7
130.45 117.814 109.057
131.148 117.307 109.505
128.247 126.205 101.266
128.364 127.253 101.497
127.401 127.205 101.372
128.499 128.236 101.74
129.229 127.372 101.587
129.034 125.188 101.152
128.247 125.246 101.06
126.431 127.234 101.306
126.543 128.028 101.622
129.935 126.339 101.436
129.833 125.129 101.282
130.677 125.224 101.424
129.894 124.07 101.127
130.062 127.44 101.685
131.462 125.309 101.595
131.448 124.168 101.42
127.406 125.235 100.925
126.398 126.321 101.032
126.537 125.225 100.82
125.471 127.13 101.275
128.297 124.261 100.893
126.58 124.255 100.77
125.709 125.115 100.798
126.642 128.951 101.9
127.663 129.127 101.941
126.81 130.002 102.158
128.575 129.293 101.976
125.687 128.794 101.933
125.909 130.797 102.41
126.883 131.013 102.395
130.825 121.122 100.739
129.83 122.162 100.908
129.757 121.268 100.733
129.016 123.176 100.898
130.013 122.959 100.973
131.874 120.948 100.806
131.787 120.073 100.827
129.705 120.452 100.808
128.879 121.365 100.81
130.683 123.094 101.068
131.675 122.006 100.929
131.51 123.116 101.203
132.652 120.999 100.971
132.235 123.21 101.361
131.417 119.361 100.899
130.286 119.555 100.95
130.975 118.629 101.033
129.378 119.736 101.091
132.491 119.126 100.994
131.629 117.733 101.274
130.59 117.972 101.375
127.97 122.323 100.919
128.148 123.293 100.839
127.202 123.271 100.804
127.959 121.512 100.996
126.376 123.411 100.857
132.511 124.924 108.021
133.197 124.26 107.281
133.125 123.52 107.992
133.696 123.685 106.539
133.206 124.809 106.57
131.819 126.239 108.098
131.798 125.551 108.611
133.011 122.709 108.605
133.511 122.07 107.964
132.538 125.981 106.593
131.864 126.778 107.45
131.868 127.21 106.708
131.166 127.521 108.117
133.12 125.319 105.808
131.87 127.614 105.959
131.192 128.376 106.733
131.651 124.994 109.208
132.34 123.455 109.213
131.491 124.332 109.808
132.885 121.861 109.093
131.045 126.376 109.238
130.731 125.098 110.392
131.428 123.559 110.256
133.991 121.55 107.177
134.107 122.433 106.422
134.506 121.153 106.346
134.18 123.086 105.674
133.919 120.623 107.742
134.835 119.847 106.103
134.929 120.615 105.461
133.921 124.432 104.247
133.555 125.195 103.614
134.228 123.785 103.435
133.167 125.788 103.052
132.846 126.433 103.666
133.498 124.955 104.966
134.189 123.715 104.828
134.71 122.32 103.203
134.386 122.965 102.666
132.511 126.863 104.403
132.811 126.016 105.142
132.192 127.275 105.18
132.044 127.626 103.867
131.46 128.337 105.349
134.524 122.539 104.834
134.866 121.776 103.909
134.925 121.224 104.706
135.083 120.926 103.081
135.264 119.925 104.595
133.855 123.702 102.234
133.219 125.215 102.423
133.113 124.462 101.868
132.577 126.557 102.61
134.348 122.196 102.044
132.9 123.634 101.603
132.317 125.156 101.758
124.695 124.426 107.306
124.023 124.732 106.665
123.983 125.45 107.486
123.432 124.997 106.003
123.955 124.202 105.853
125.419 123.615 107.237
125.323 124.205 107.856
123.788 126.118 108.295
123.345 126.406 107.738
124.633 123.365 105.863
125.459 123.068 106.566
125.524 122.622 105.82
126.206 122.661 107.028
124.043 123.677 105.1
125.688 122.3 105.054
126.277 121.793 105.655
125.318 124.539 108.564
124.408 125.547 108.803
125.105 124.877 109.312
123.648 126.565 109.06
126.128 123.574 108.244
125.836 124.208 109.614
125.013 125.209 110.025
122.929 126.572 106.933
122.902 125.813 105.992
122.416 126.707 106.02
122.889 125.165 105.121
122.795 127.298 107.845
122.035 127.635 106.064
122.028 126.959 105.154
123.277 124.043 103.528
123.716 123.564 102.794
122.927 124.469 102.634
124.254 123.277 102.174
124.637 122.928 102.911
123.635 123.787 104.313
122.949 124.651 104.146
122.333 125.5 102.486
122.759 125.034 101.832
125.013 122.628 103.656
124.443 123.102 104.414
125.405 122.42 104.374
125.639 122.216 103.141
126.229 121.676 104.449
122.541 125.439 104.281
122.142 125.902 103.348
122.074 126.436 104.29
122.041 126.592 102.62
121.694 127.407 104.412
123.511 124.622 101.351
124.298 123.628 101.557
124.503 124.167 101.078
125.224 122.804 101.934
123.098 125.753 101.373
124.904 124.722 100.867
125.487 123.613 101.055
127.308 133.027 106.496
126.479 133.792 105.956
127.372 132.894 105.499
125.522 134.157 105.286
125.628 134.398 106.515
127.422 132.932 107.497
128.136 132.172 107
128.324 132.005 105.096
127.558 132.593 104.553
125.961 134.295 107.732
126.964 133.307 108.227
126.193 133.946 108.984
127.685 132.403 108.576
124.76 134.399 107.105
125.087 133.551 109.192
126.474 133.191 109.911
129.057 131.362 106.596
129.15 131.251 105.584
129.911 130.383 106.1
129.388 130.992 104.781
128.962 131.27 107.501
130.459 129.558 106.589
130.653 129.471 105.655
126.973 132.758 103.877
125.752 133.635 104.157
126.237 132.789 103.262
124.654 134.145 104.51
128.041 131.828 103.823
126.942 131.844 102.799
125.46 132.508 102.867
122.735 133.729 105.332
121.807 133.046 105.881
121.913 132.937 104.692
121.455 131.898 106.363
122.169 132.703 107.095
123.621 134.188 106.304
123.665 134.084 104.717
122.376 132.337 103.61
121.427 131.699 104.165
123.022 133.058 107.918
123.782 133.95 107.505
124.04 133.397 108.686
122.797 132.042 108.213
124.566 132.65 109.629
124.043 133.533 103.656
123.347 132.423 103.11
124.548 132.413 102.885
123.042 131.401 103.075
125.067 131.466 102.622
120.96 130.618 104.661
121.097 130.719 106.025
121.161 129.477 105.407
121.55 130.76 106.998
121.444 130.338 103.772
121.363 128.482 104.799
121.574 128.698 105.974
133.25 113.802 104.506
134.692 113.323 105.501
134.802 113.363 103.564
135.283 114.675 106.001
134.308 114.23 106.7
132.33 114.5 105.156
132.379 114.382 103.909
134.678 114.303 102.365
135.86 114.519 103.133
133.155 114.731 107.306
132.203 115.005 106.349
132.029 115.602 107.52
131.409 115.598 105.703
133.838 115.244 107.967
131.685 116.213 108.539
130.929 116.523 107.557
132.17 114.925 102.891
133.4 114.976 102.146
132.058 115.979 102.135
134.376 115.5 101.71
131.476 115.338 103.708
131.014 116.537 102.192
132.134 116.708 101.611
135.885 115.94 104.042
135.411 116.085 105.558
135.441 117.564 105.068
134.936 116.347 106.699
135.999 116.11 102.85
135.466 118.421 104.508
135.067 118.558 105.798
129.325 117.624 105.263
130.005 116.653 104.746
129.275 117.565 104.43
130.691 115.899 104.175
130.708 116.09 105.23
129.405 117.879 106.12
128.866 118.629 105.786
128.752 118.475 104.146
129.21 117.624 103.672
130.625 116.405 106.129
129.886 117.391 106.568
130.403 116.937 107.163
129.5 118.321 107.046
130.428 117.352 108.21
128.297 119.412 105.432
128.22 119.353 104.527
127.695 120.159 104.979
128.136 119.371 103.781
128.375 119.54 106.257
127.14 120.836 105.424
127.07 120.845 104.629
129.67 117.21 103.137
130.462 116.099 103.367
130.253 116.788 102.583
129.041 118.05 102.821
130.346 117.434 101.894
128.995 129.493 110.013
129.039 130.132 109.144
129.738 128.858 109.264
128.989 130.763 108.295
128.377 131.286 108.969
128.356 130.058 110.733
128.912 128.761 110.809
130.332 127.761 109.396
130.39 128.392 108.704
127.779 131.802 109.53
127.776 131.107 110.561
127.191 132.332 110.319
129.528 127.618 110.693
130.343 127.035 109.898
130.181 126.305 110.54
130.465 128.763 108.025
129.703 130.083 107.813
130.484 129.19 107.273
130.123 130.062 103.131
130.32 129.23 102.306
131.031 128.827 102.804
130.328 128.291 101.952
129.49 129.433 102.136
129.106 131.032 103.446
129.816 130.57 104.006
131.546 128.39 103.361
131.83 127.71 102.565
128.66 130.188 102.332
128.486 131.168 102.978
127.749 131.064 102.561
130.382 129.925 104.433
131.209 128.718 104.106
130.904 129.049 104.951
131.867 126.981 102.103
130.91 127.208 101.79
131.648 126.137 101.765
133.005 118.695 109.724
133.408 119.16 108.989
133.7 117.616 108.834
133.747 119.644 108.305
133.082 120.536 109.15
132.329 119.751 110.488
132.641 118.314 110.38
133.903 116.252 108.623
134.395 116.867 107.836
132.455 121.484 109.746
132.039 121.037 110.576
131.765 122.374 110.392
132.342 117.493 110.233
133.056 116.257 109.257
131.866 116.725 109.359
134.566 117.663 107.18
134.194 119.292 107.539
134.665 118.885 106.658
134.901 119.388 101.652
134.304 118.998 101.217
135.137 117.813 101.529
133.501 118.835 101.115
133.468 120.255 101.211
134.454 120.897 101.844
135.22 119.887 102.356
135.753 116.92 102.188
134.908 116.478 101.464
133.222 121.42 101.167
133.904 121.868 101.525
132.965 122.601 101.431
135.353 119.729 103.084
135.705 117.889 103.01
135.467 119.122 103.92
133.778 116.76 101.392
133.022 118.169 101.186
132.477 117.387 101.379
123.621 129.148 109.847
123.065 128.74 109.114
122.778 129.888 108.849
122.686 128.3 108.391
123.378 127.644 109.401
124.392 128.32 110.785
124.274 129.527 110.472
122.725 131.012 108.523
122.047 130.425 107.84
123.834 126.762 109.785
124.314 127.207 110.658
124.575 126.045 110.337
124.218 130.525 110.208
123.478 131.335 109.23
124.38 131.683 109.925
121.881 129.432 107.375
122.441 128.116 107.606
121.992 128.393 106.701
123.013 127.917 102.077
123.786 128.334 102.037
122.969 129.105 102.623
124.554 128.665 102.068
124.57 127.592 101.625
123.128 126.804 101.577
122.378 127.453 102.294
122.16 129.806 103.214
122.982 130.341 102.922
124.75 126.615 101.155
123.868 126.115 101.163
124.836 125.569 100.948
121.93 127.67 103.025
121.679 129.047 103.486
121.59 128.072 103.952
123.948 130.39 102.685
124.92 129.393 102.285
125.016 130.448 102.485
127.542 121.539 107.917
128.17 120.952 108.528
128.204 120.54 107.628
128.707 120.302 109.116
127.987 121.284 109.356
126.954 122.511 108.115
126.94 122.066 107.399
128.259 120.039 106.905
128.79 119.57 107.384
127.299 122.299 109.398
126.767 122.956 108.703
126.549 123.312 109.512
126.871 121.626 106.747
127.655 120.61 106.452
126.93 121.227 105.994
129.318 119.063 107.65
129.272 119.504 108.642
129.847 118.424 108.337
127.703 120.539 101.858
126.963 121.143 102.32
127.776 120.106 102.514
126.287 121.638 102.733
126.093 121.954 102.117
127.796 120.977 101.328
128.5 120.074 101.449
128.442 119.093 102.658
127.934 119.71 103.15
126.031 122.289 101.608
127.032 121.903 101.277
126.182 122.799 101.094
129.062 119.246 101.576
128.904 118.647 102.175
129.708 118.27 101.691
127.48 120.428 103.536
126.552 121.386 103.317
126.827 121.104 103.992
POLYGONS 1280  5120
3 164 162 163
3 163 44 164
3 162 43 163
3 164 42 162
3 166 165 163
3 163 43 166
3 165 44 163
3 166 14 165
3 168 167 162
3 162 42 168
3 167 43 162
3 168 13 167
3 170 169 164
3 164 44 170
3 169 42 164
3 170 12 169
3 173 171 172
3 172 46 173
3 171 43 172
3 173 45 171
3 167 174 172
3 172 43 167
3 174 46 172
3 167 13 174
3 175 166 171
3 171 45 175
3 166 43 171
3 175 14 166
3 177 176 173
3 173 46 177
3 176 45 173
3 177 4 176
3 180 178 179
3 179 48 180
3 178 42 179
3 180 47 178
3 169 181 179
3 179 42 169
3 181 48 179
3 169 12 181
3 182 168 178
3 178 47 182
3 168 42 178
3 182 13 168
3 184 183 180
3 180 48 184
3 183 47 180
3 184 8 183
3 187 185 186
3 186 50 187
3 185 44 186
3 187 49 185
3 165 188 186
3 186 44 165
3 188 50 186
3 165 14 188
3 189 170 185
3 185 49 189
3 170 44 185
3 189 12 170
3 191 190 187
3 187 50 191
3 190 49 187
3 191 7 190
3 194 192 193
3 193 53 194
3 192 52 193
3 194 51 192
3 196 195 193
3 193 52 196
3 195 53 193
3 196 16 195
3 198 197 192
3 192 51 198
3 197 52 192
3 198 14 197
3 200 199 194
3 194 53 200
3 199 51 194
3 200 15 199
3 203 201 202
3 202 45 203
3 201 52 202
3 203 54 201
3 197 175 202
3 202 52 197
3 175 45 202
3 197 14 175
3 204 196 201
3 201 54 204
3 196 52 201
3 204 16 196
3 176 205 203
3 203 45 176
3 205 54 203
3 176 4 205
3 208 206 207
3 207 55 208
3 206 51 207
3 208 50 206
3 199 209 207
3 207 51 199
3 209 55 207
3 199 15 209
3 188 198 206
3 206 50 188
3 198 51 206
3 188 14 198
3 210 191 208
3 208 55 210
3 191 50 208
3 210 7 191
3 213 211 212
3 212 57 213
3 211 53 212
3 213 56 211
3 195 214 212
3 212 53 195
3 214 57 212
3 195 16 214
3 215 200 211
3 211 56 215
3 200 53 211
3 215 15 200
3 217 216 213
3 213 57 217
3 216 56 213
3 217 9 216
3 220 218 219
3 219 60 220
3 218 59 219
3 220 58 218
3 222 221 219
3 219 59 222
3 221 60 219
3 222 19 221
3 224 223 218
3 218 58 224
3 223 59 218
3 224 18 223
3 226 225 220
3 220 60 226
3 225 58 220
3 226 17 225
3 229 227 228
3 228 62 229
3 227 59 228
3 229 61 227
3 223 230 228
3 228 59 223
3 230 62 228
3 223 18 230
3 231 222 227
3 227 61 231
3 222 59 227
3 231 19 222
3 233 232 229
3 229 62 233
3 232 61 229
3 233 5 232
3 236 234 235
3 235 64 236
3 234 58 235
3 236 63 234
3 225 237 235
3 235 58 225
3 237 64 235
3 225 17 237
3 238 224 234
3 234 63 238
3 224 58 234
3 238 18 224
3 240 239 236
3 236 64 240
3 239 63 236
3 240 6 239
3 243 241 242
3 242 66 243
3 241 60 242
3 243 65 241
3 221 244 242
3 242 60 221
3 244 66 242
3 221 19 244
3 245 226 241
3 241 65 245
3 226 60 241
3 245 17 226
3 247 246 243
3 243 66 247
3 246 65 243
3 247 11 246
3 250 248 249
3 249 69 250
3 248 68 249
3 250 67 248
3 252 251 249
3 249 68 252
3 251 69 249
3 252 18 251
3 254 253 248
3 248 67 254
3 253 68 248
3 254 21 253
3 256 255 250
3 250 69 256
3 255 67 250
3 256 20 255
3 259 257 258
3 258 70 259
3 257 68 258
3 259 62 257
3 253 260 258
3 258 68 253
3 260 70 258
3 253 21 260
3 230 252 257
3 257 62 230
3 252 68 257
3 230 18 252
3 261 233 259
3 259 70 261
3 233 62 259
3 261 5 233
3 264 262 263
3 263 72 264
3 262 67 263
3 264 71 262
3 255 265 263
3 263 67 255
3 265 72 263
3 255 20 265
3 266 254 262
3 262 71 266
3 254 67 262
3 266 21 254
3 268 267 264
3 264 72 268
3 267 71 264
3 268 10 267
3 271 269 270
3 270 63 271
3 269 69 270
3 271 73 269
3 251 238 270
3 270 69 251
3 238 63 270
3 251 18 238
3 272 256 269
3 269 73 272
3 256 69 269
3 272 20 256
3 239 273 271
3 271 63 239
3 273 73 271
3 239 6 273
3 276 274 275
3 275 76 276
3 274 75 275
3 276 74 274
3 278 277 275
3 275 75 278
3 277 76 275
3 278 24 277
3 280 279 274
3 274 74 280
3 279 75 274
3 280 23 279
3 282 281 276
3 276 76 282
3 281 74 276
3 282 22 281
3 285 283 284
3 284 78 285
3 283 75 284
3 285 77 283
3 279 286 284
3 284 75 279
3 286 78 284
3 279 23 286
3 287 278 283
3 283 77 287
3 278 75 283
3 287 24 278
3 289 288 285
3 285 78 289
3 288 77 285
3 289 0 288
3 292 290 291
3 291 80 292
3 290 74 291
3 292 79 290
3 281 293 291
3 291 74 281
3 293 80 291
3 281 22 293
3 294 280 290
3 290 79 294
3 280 74 290
3 294 23 280
3 296 295 292
3 292 80 296
3 295 79 292
3 296 4 295
3 299 297 298
3 298 82 299
3 297 76 298
3 299 81 297
3 277 300 298
3 298 76 277
3 300 82 298
3 277 24 300
3 301 282 297
3 297 81 301
3 282 76 297
3 301 22 282
3 303 302 299
3 299 82 303
3 302 81 299
3 303 3 302
3 306 304 305
3 305 85 306
3 304 84 305
3 306 83 304
3 308 307 305
3 305 84 308
3 307 85 305
3 308 26 307
3 310 309 304
3 304 83 310
3 309 84 304
3 310 24 309
3 312 311 306
3 306 85 312
3 311 83 306
3 312 25 311
3 315 313 314
3 314 77 315
3 313 84 314
3 315 86 313
3 309 287 314
3 314 84 309
3 287 77 314
3 309 24 287
3 316 308 313
3 313 86 316
3 308 84 313
3 316 26 308
3 288 317 315
3 315 77 288
3 317 86 315
3 288 0 317
3 320 318 319
3 319 87 320
3 318 83 319
3 320 82 318
3 311 321 319
3 319 83 311
3 321 87 319
3 311 25 321
3 300 310 318
3 318 82 300
3 310 83 318
3 300 24 310
3 322 303 320
3 320 87 322
3 303 82 320
3 322 3 303
3 325 323 324
3 324 89 325
3 323 85 324
3 325 88 323
3 307 326 324
3 324 85 307
3 326 89 324
3 307 26 326
3 327 312 323
3 323 88 327
3 312 85 323
3 327 25 312
3 329 328 325
3 325 89 329
3 328 88 325
3 329 5 328
3 332 330 331
3 331 92 332
3 330 91 331
3 332 90 330
3 334 333 331
3 331 91 334
3 333 92 331
3 334 29 333
3 336 335 330
3 330 90 336
3 335 91 330
3 336 28 335
3 338 337 332
3 332 92 338
3 337 90 332
3 338 27 337
3 341 339 340
3 340 94 341
3 339 91 340
3 341 93 339
3 335 342 340
3 340 91 335
3 342 94 340
3 335 28 342
3 343 334 339
3 339 93 343
3 334 91 339
3 343 29 334
3 345 344 341
3 341 94 345
3 344 93 341
3 345 2 344
3 348 346 347
3 347 96 348
3 346 90 347
3 348 95 346
3 337 349 347
3 347 90 337
3 349 96 347
3 337 27 349
3 350 336 346
3 346 95 350
3 336 90 346
3 350 28 336
3 352 351 348
3 348 96 352
3 351 95 348
3 352 7 351
3 355 353 354
3 354 98 355
3 353 92 354
3 355 97 353
3 333 356 354
3 354 92 333
3 356 98 354
3 333 29 356
3 357 338 353
3 353 97 357
3 338 92 353
3 357 27 338
3 359 358 355
3 355 98 359
3 358 97 355
3 359 1 358
3 362 360 361
3 361 101 362
3 360 100 361
3 362 99 360
3 364 363 361
3 361 100 364
3 363 101 361
3 364 31 363
3 366 365 360
3 360 99 366
3 365 100 360
3 366 29 365
3 368 367 362
3 362 101 368
3 367 99 362
3 368 30 367
3 371 369 370
3 370 93 371
3 369 100 370
3 371 102 369
3 365 343 370
3 370 100 365
3 343 93 370
3 365 29 343
3 372 364 369
3 369 102 372
3 364 100 369
3 372 31 364
3 344 373 371
3 371 93 344
3 373 102 371
3 344 2 373
3 376 374 375
3 375 103 376
3 374 99 375
3 376 98 374
3 367 377 375
3 375 99 367
3 377 103 375
3 367 30 377
3 356 366 374
3 374 98 356
3 366 99 374
3 356 29 366
3 378 359 376
3 376 103 378
3 359 98 376
3 378 1 359
3 381 379 380
3 380 105 381
3 379 101 380
3 381 104 379
3 363 382 380
3 380 101 363
3 382 105 380
3 363 31 382
3 383 368 379
3 379 104 383
3 368 101 379
3 383 30 368
3 385 384 381
3 381 105 385
3 384 104 381
3 385 6 384
3 388 386 387
3 387 108 388
3 386 107 387
3 388 106 386
3 390 389 387
3 387 107 390
3 389 108 387
3 390 34 389
3 392 391 386
3 386 106 392
3 391 107 386
3 392 33 391
3 394 393 388
3 388 108 394
3 393 106 388
3 394 32 393
3 397 395 396
3 396 110 397
3 395 107 396
3 397 109 395
3 391 398 396
3 396 107 391
3 398 110 396
3 391 33 398
3 399 390 395
3 395 109 399
3 390 107 395
3 399 34 390
3 401 400 397
3 397 110 401
3 400 109 397
3 401 8 400
3 404 402 403
3 403 112 404
3 402 106 403
3 404 111 402
3 393 405 403
3 403 106 393
3 405 112 403
3 393 32 405
3 406 392 402
3 402 111 406
3 392 106 402
3 406 33 392
3 408 407 404
3 404 112 408
3 407 111 404
3 408 0 407
3 411 409 410
3 410 114 411
3 409 108 410
3 411 113 409
3 389 412 410
3 410 108 389
3 412 114 410
3 389 34 412
3 413 394 409
3 409 113 413
3 394 108 409
3 413 32 394
3 415 414 411
3 411 114 415
3 414 113 411
3 415 11 414
3 418 416 417
3 417 117 418
3 416 116 417
3 418 115 416
3 420 419 417
3 417 116 420
3 419 117 417
3 420 36 419
3 422 421 416
3 416 115 422
3 421 116 416
3 422 34 421
3 424 423 418
3 418 117 424
3 423 115 418
3 424 35 423
3 427 425 426
3 426 109 427
3 425 116 426
3 427 118 425
3 421 399 426
3 426 116 421
3 399 109 426
3 421 34 399
3 428 420 425
3 425 118 428
3 420 116 425
3 428 36 420
3 400 429 427
3 427 109 400
3 429 118 427
3 400 8 429
3 432 430 431
3 431 119 432
3 430 115 431
3 432 114 430
3 423 433 431
3 431 115 423
3 433 119 431
3 423 35 433
3 412 422 430
3 430 114 412
3 422 115 430
3 412 34 422
3 434 415 432
3 432 119 434
3 415 114 432
3 434 11 415
3 437 435 436
3 436 121 437
3 435 117 436
3 437 120 435
3 419 438 436
3 436 117 419
3 438 121 436
3 419 36 438
3 439 424 435
3 435 120 439
3 424 117 435
3 439 35 424
3 441 440 437
3 437 121 441
3 440 120 437
3 441 1 440
3 444 442 443
3 443 124 444
3 442 123 443
3 444 122 442
3 446 445 443
3 443 123 446
3 445 124 443
3 446 39 445
3 448 447 442
3 442 122 448
3 447 123 442
3 448 38 447
3 450 449 444
3 444 124 450
3 449 122 444
3 450 37 449
3 453 451 452
3 452 126 453
3 451 123 452
3 453 125 451
3 447 454 452
3 452 123 447
3 454 126 452
3 447 38 454
3 455 446 451
3 451 125 455
3 446 123 451
3 455 39 446
3 457 456 453
3 453 126 457
3 456 125 453
3 457 9 456
3 460 458 459
3 459 128 460
3 458 122 459
3 460 127 458
3 449 461 459
3 459 122 449
3 461 128 459
3 449 37 461
3 462 448 458
3 458 127 462
3 448 122 458
3 462 38 448
3 464 463 460
3 460 128 464
3 463 127 460
3 464 10 463
3 467 465 466
3 466 130 467
3 465 124 466
3 467 129 465
3 445 468 466
3 466 124 445
3 468 130 466
3 445 39 468
3 469 450 465
3 465 129 469
3 450 124 465
3 469 37 450
3 471 470 467
3 467 130 471
3 470 129 467
3 471 3 470
3 474 472 473
3 473 133 474
3 472 132 473
3 474 131 472
3 476 475 473
3 473 132 476
3 475 133 473
3 476 38 475
3 478 477 472
3 472 131 478
3 477 132 472
3 478 41 477
3 480 479 474
3 474 133 480
3 479 131 474
3 480 40 479
3 483 481 482
3 482 134 483
3 481 132 482
3 483 126 481
3 477 484 482
3 482 132 477
3 484 134 482
3 477 41 484
3 454 476 481
3 481 126 454
3 476 132 481
3 454 38 476
3 485 457 483
3 483 134 485
3 457 126 483
3 485 9 457
3 488 486 487
3 487 136 488
3 486 131 487
3 488 135 486
3 479 489 487
3 487 131 479
3 489 136 487
3 479 40 489
3 490 478 486
3 486 135 490
3 478 131 486
3 490 41 478
3 492 491 488
3 488 136 492
3 491 135 488
3 492 2 491
3 495 493 494
3 494 127 495
3 493 133 494
3 495 137 493
3 475 462 494
3 494 133 475
3 462 127 494
3 475 38 462
3 496 480 493
3 493 137 496
3 480 133 493
3 496 40 480
3 463 497 495
3 495 127 463
3 497 137 495
3 463 10 497
3 500 498 499
3 499 140 500
3 498 139 499
3 500 138 498
3 502 501 499
3 499 139 502
3 501 140 499
3 502 33 501
3 504 503 498
3 498 138 504
3 503 139 498
3 504 13 503
3 506 505 500
3 500 140 506
3 505 138 500
3 506 23 505
3 509 507 508
3 508 47 509
3 507 139 508
3 509 110 507
3 503 182 508
3 508 139 503
3 182 47 508
3 503 13 182
3 398 502 507
3 507 110 398
3 502 139 507
3 398 33 502
3 183 401 509
3 509 47 183
3 401 110 509
3 183 8 401
3 512 510 511
3 511 79 512
3 510 138 511
3 512 46 510
3 505 294 511
3 511 138 505
3 294 79 511
3 505 23 294
3 174 504 510
3 510 46 174
3 504 138 510
3 174 13 504
3 295 177 512
3 512 79 295
3 177 46 512
3 295 4 177
3 515 513 514
3 514 111 515
3 513 140 514
3 515 78 513
3 501 406 514
3 514 140 501
3 406 111 514
3 501 33 406
3 286 506 513
3 513 78 286
3 506 140 513
3 286 23 506
3 407 289 515
3 515 111 407
3 289 78 515
3 407 0 289
3 518 516 517
3 517 143 518
3 516 142 517
3 518 141 516
3 520 519 517
3 517 142 520
3 519 143 517
3 520 19 519
3 522 521 516
3 516 141 522
3 521 142 516
3 522 32 521
3 524 523 518
3 518 143 524
3 523 141 518
3 524 26 523
3 527 525 526
3 526 113 527
3 525 142 526
3 527 66 525
3 521 413 526
3 526 142 521
3 413 113 526
3 521 32 413
3 244 520 525
3 525 66 244
3 520 142 525
3 244 19 520
3 414 247 527
3 527 113 414
3 247 66 527
3 414 11 247
3 530 528 529
3 529 86 530
3 528 141 529
3 530 112 528
3 523 316 529
3 529 141 523
3 316 86 529
3 523 26 316
3 405 522 528
3 528 112 405
3 522 141 528
3 405 32 522
3 317 408 530
3 530 86 317
3 408 112 530
3 317 0 408
3 533 531 532
3 532 61 533
3 531 143 532
3 533 89 531
3 519 231 532
3 532 143 519
3 231 61 532
3 519 19 231
3 326 524 531
3 531 89 326
3 524 143 531
3 326 26 524
3 232 329 533
3 533 61 232
3 329 89 533
3 232 5 329
3 536 534 535
3 535 146 536
3 534 145 535
3 536 144 534
3 538 537 535
3 535 145 538
3 537 146 535
3 538 22 537
3 540 539 534
3 534 144 540
3 539 145 534
3 540 16 539
3 542 541 536
3 536 146 542
3 541 144 536
3 542 39 541
3 545 543 544
3 544 54 545
3 543 145 544
3 545 80 543
3 539 204 544
3 544 145 539
3 204 54 544
3 539 16 204
3 293 538 543
3 543 80 293
3 538 145 543
3 293 22 538
3 205 296 545
3 545 54 205
3 296 80 545
3 205 4 296
3 548 546 547
3 547 125 548
3 546 144 547
3 548 57 546
3 541 455 547
3 547 144 541
3 455 125 547
3 541 39 455
3 214 540 546
3 546 57 214
3 540 144 546
3 214 16 540
3 456 217 548
3 548 125 456
3 217 57 548
3 456 9 217
3 551 549 550
3 550 81 551
3 549 146 550
3 551 130 549
3 537 301 550
3 550 146 537
3 301 81 550
3 537 22 301
3 468 542 549
3 549 130 468
3 542 146 549
3 468 39 542
3 302 471 551
3 551 81 302
3 471 130 551
3 302 3 471
3 554 552 553
3 553 149 554
3 552 148 553
3 554 147 552
3 556 555 553
3 553 148 556
3 555 149 553
3 556 21 555
3 558 557 552
3 552 147 558
3 557 148 552
3 558 25 557
3 560 559 554
3 554 149 560
3 559 147 554
3 560 37 559
3 563 561 562
3 562 88 563
3 561 148 562
3 563 70 561
3 557 327 562
3 562 148 557
3 327 88 562
3 557 25 327
3 260 556 561
3 561 70 260
3 556 148 561
3 260 21 556
3 328 261 563
3 563 88 328
3 261 70 563
3 328 5 261
3 566 564 565
3 565 129 566
3 564 147 565
3 566 87 564
3 559 469 565
3 565 147 559
3 469 129 565
3 559 37 469
3 321 558 564
3 564 87 321
3 558 147 564
3 321 25 558
3 470 322 566
3 566 129 470
3 322 87 566
3 470 3 322
3 569 567 568
3 568 71 569
3 567 149 568
3 569 128 567
3 555 266 568
3 568 149 555
3 266 71 568
3 555 21 266
3 461 560 567
3 567 128 461
3 560 149 567
3 461 37 560
3 267 464 569
3 569 71 267
3 464 128 569
3 267 10 464
3 572 570 571
3 571 152 572
3 570 151 571
3 572 150 570
3 574 573 571
3 571 151 574
3 573 152 571
3 574 27 573
3 576 575 570
3 570 150 576
3 575 151 570
3 576 12 575
3 578 577 572
3 572 152 578
3 577 150 572
3 578 36 577
3 581 579 580
3 580 49 581
3 579 151 580
3 581 96 579
3 575 189 580
3 580 151 575
3 189 49 580
3 575 12 189
3 349 574 579
3 579 96 349
3 574 151 579
3 349 27 574
3 190 352 581
3 581 49 190
3 352 96 581
3 190 7 352
3 584 582 583
3 583 118 584
3 582 150 583
3 584 48 582
3 577 428 583
3 583 150 577
3 428 118 583
3 577 36 428
3 181 576 582
3 582 48 181
3 576 150 582
3 181 12 576
3 429 184 584
3 584 118 429
3 184 48 584
3 429 8 184
3 587 585 586
3 586 97 587
3 585 152 586
3 587 121 585
3 573 357 586
3 586 152 573
3 357 97 586
3 573 27 357
3 438 578 585
3 585 121 438
3 578 152 585
3 438 36 578
3 358 441 587
3 587 97 358
3 441 121 587
3 358 1 441
3 590 588 589
3 589 155 590
3 588 154 589
3 590 153 588
3 592 591 589
3 589 154 592
3 591 155 589
3 592 17 591
3 594 593 588
3 588 153 594
3 593 154 588
3 594 30 593
3 596 595 590
3 590 155 596
3 595 153 590
3 596 35 595
3 599 597 598
3 598 104 599
3 597 154 598
3 599 64 597
3 593 383 598
3 598 154 593
3 383 104 598
3 593 30 383
3 237 592 597
3 597 64 237
3 592 154 597
3 237 17 592
3 384 240 599
3 599 104 384
3 240 64 599
3 384 6 240
3 602 600 601
3 601 120 602
3 600 153 601
3 602 103 600
3 595 439 601
3 601 153 595
3 439 120 601
3 595 35 439
3 377 594 600
3 600 103 377
3 594 153 600
3 377 30 594
3 440 378 602
3 602 120 440
3 378 103 602
3 440 1 378
3 605 603 604
3 604 65 605
3 603 155 604
3 605 119 603
3 591 245 604
3 604 155 591
3 245 65 604
3 591 17 245
3 433 596 603
3 603 119 433
3 596 155 603
3 433 35 596
3 246 434 605
3 605 65 246
3 434 119 605
3 246 11 434
3 608 606 607
3 607 158 608
3 606 157 607
3 608 156 606
3 610 609 607
3 607 157 610
3 609 158 607
3 610 15 609
3 612 611 606
3 606 156 612
3 611 157 606
3 612 28 611
3 614 613 608
3 608 158 614
3 613 156 608
3 614 41 613
3 617 615 616
3 616 95 617
3 615 157 616
3 617 55 615
3 611 350 616
3 616 157 611
3 350 95 616
3 611 28 350
3 209 610 615
3 615 55 209
3 610 157 615
3 209 15 610
3 351 210 617
3 617 95 351
3 210 55 617
3 351 7 210
3 620 618 619
3 619 135 620
3 618 156 619
3 620 94 618
3 613 490 619
3 619 156 613
3 490 135 619
3 613 41 490
3 342 612 618
3 618 94 342
3 612 156 618
3 342 28 612
3 491 345 620
3 620 135 491
3 345 94 620
3 491 2 345
3 623 621 622
3 622 56 623
3 621 158 622
3 623 134 621
3 609 215 622
3 622 158 609
3 215 56 622
3 609 15 215
3 484 614 621
3 621 134 484
3 614 158 621
3 484 41 614
3 216 485 623
3 623 56 216
3 485 134 623
3 216 9 485
3 626 624 625
3 625 161 626
3 624 160 625
3 626 159 624
3 628 627 625
3 625 160 628
3 627 161 625
3 628 31 627
3 630 629 624
3 624 159 630
3 629 160 624
3 630 20 629
3 632 631 626
3 626 161 632
3 631 159 626
3 632 40 631
3 635 633 634
3 634 73 635
3 633 160 634
3 635 105 633
3 629 272 634
3 634 160 629
3 272 73 634
3 629 20 272
3 382 628 633
3 633 105 382
3 628 160 633
3 382 31 628
3 273 385 635
3 635 73 273
3 385 105 635
3 273 6 385
3 638 636 637
3 637 137 638
3 636 159 637
3 638 72 636
3 631 496 637
3 637 159 631
3 496 137 637
3 631 40 496
3 265 630 636
3 636 72 265
3 630 159 636
3 265 20 630
3 497 268 638
3 638 137 497
3 268 72 638
3 497 10 268
3 641 639 640
3 640 102 641
3 639 161 640
3 641 136 639
3 627 372 640
3 640 161 627
3 372 102 640
3 627 31 372
3 489 632 639
3 639 136 489
3 632 161 639
3 489 40 632
3 373 492 641
3 641 102 373
3 492 136 641
3 373 2 492
