# vtk DataFile Version 3.0
this file was written using fslvtkio
ASCII
DATASET POLYDATA
POINTS 642 float
128.42 113.149 77.7775
99.1207 109.19 74.968
106.15 95.2439 67.9377
125.408 97.2131 70.8066
123.464 100.972 95.0934
123.802 102.976 55.2299
110.058 101.092 51.2424
104.761 99.0832 92.9639
113.282 112.251 86.2199
115.35 91.873 77.3981
117.345 89.9556 57.0771
114.127 115.838 69.2392
107.745 104.835 93.5639
118.676 106.192 94.3359
113.222 99.0731 98.7912
110.173 94.0573 87.5454
119.137 94.4319 88.6765
112.184 108.154 60.6067
118.28 101.494 45.4631
119.44 109.933 61.7819
113.421 94.3052 47.4846
123.565 94.5928 49.63
124.459 99.8518 83.3632
127.234 108.344 88.9818
125.971 106.264 75.0492
125.793 99.1346 61.4418
124.983 109.89 67.5616
100.285 105.197 86.3569
105.293 98.1352 81.209
104.049 103.491 71.885
105.677 106.666 64.7266
107.387 96.548 57.5646
122.298 118.04 73.7284
122.493 115.371 85.4121
112.549 118.057 79.9664
105.185 115.238 71.9388
103.633 113.339 84.4756
123.61 92.0129 62.8956
115.442 88.0174 68.7415
121.022 92.2354 73.9081
110.151 90.5134 59.6132
110.58 92.0403 72.9346
113.171 105.473 93.6733
116.587 103.913 100.069
109.298 103.08 99.6944
119.907 99.0482 99.1847
123.005 105.17 98.0757
116.166 108.465 88.532
110.847 107.721 88.1573
103.524 102.549 96.2512
107.552 97.6847 97.7595
111.192 95.0661 94.1702
116.866 95.7775 94.822
114.455 94.2111 88.9082
121.512 96.7471 92.5457
107.3 95.6378 90.977
112.897 93.0035 82.7459
117.163 93.5425 83.3015
115.271 104.082 52.4891
118.738 104.739 53.7559
116.022 107.746 60.5137
121.234 105.529 57.4473
121.535 102.361 49.6761
114.064 101.122 46.7956
111.825 104.3 54.6597
112.775 113.004 64.647
117.194 113.993 65.2458
118.635 95.6638 47.7686
122.177 98.9265 45.1371
115.783 98.3414 42.891
124.144 98.8925 51.2075
120.658 90.9571 52.4829
115.549 90.5239 51.4018
111.182 97.1884 46.8875
125.719 104.595 86.2953
127.213 106.993 81.5468
125.146 102.756 79.2455
128.406 109.639 76.2215
127.852 110.624 82.7465
125.97 105.179 93.1452
123.799 100.83 89.3398
124.661 98.7785 76.7634
125.008 101.253 72.69
125.295 102.435 68.32
125.77 108.456 71.5094
123.685 104.243 65.1334
128.18 112.259 72.1053
125.67 98.4454 66.2827
124.865 100.867 58.2051
122.692 105.689 61.974
102.825 101.894 84.2041
104.185 100.399 76.7368
101.673 103.96 78.893
105.906 99.2142 70.2018
106.069 96.7022 74.4775
105.415 98.9981 87.3083
101.511 102.151 90.9195
99.6309 107.186 80.2578
100.403 106.078 73.5924
104.667 105.173 68.5542
106.635 99.843 64.7996
108.218 101.607 61.0812
106.033 95.9234 62.7782
100.911 108.419 69.3682
108.883 103.309 57.632
108.442 98.3654 53.4477
123.141 119.07 80.5964
118.107 118.684 83.5915
117.963 119.56 77.4309
112.483 116.488 84.1843
117.817 114.252 86.6317
126.493 115.491 82.1713
126.074 116.391 75.9404
118.108 117.601 71.3132
113.147 117.252 74.6347
108.089 117.585 76.4967
106.948 117.448 82.7842
103.164 116.133 78.8046
108.323 113.286 86.175
109.71 116.174 70.1852
101.556 112.784 73.3786
100.056 112.189 80.2138
120.477 89.3419 66.4612
120.592 86.3195 70.849
124.173 89.5009 68.6492
118.408 91.2484 75.9311
115.506 86.8852 72.726
116.266 90.5289 63.7655
120.579 90.8569 59.6844
125.273 93.8537 66.3958
124.118 94.0247 72.9223
110.016 90.3086 67.1379
111.276 85.8228 69.8681
112.551 88.7112 65.223
112.744 91.1543 75.4431
107.306 92.8946 70.7512
107.458 92.0031 63.5872
113.654 90.4987 57.7487
123.616 107.759 92.5853
120.36 109.494 87.7491
125.203 111.596 86.5956
124.817 114.526 70.1659
120.986 115.063 67.5473
122.574 110.547 64.2547
120.506 93.5095 81.2797
122.234 96.9481 86.3028
123.349 95.6692 79.0346
126.573 94.8696 61.5603
125.375 96.3652 55.2853
124.121 92.1186 55.9885
106.669 107.966 86.7269
103.164 105.251 91.1062
101.812 109.074 85.0133
104.354 111.356 67.4293
108.533 107.81 61.7784
108.37 113.059 65.5434
107.52 94.4924 77.6115
107.352 95.7746 84.5087
109.867 92.868 80.2889
111.151 90.3398 52.4327
109.488 94.1458 51.2218
107.625 92.6878 57.8499
114.53 104.644 96.8623
112.928 103.627 99.0617
111.452 104.137 96.6094
111.267 101.293 100.078
114.854 101.559 99.8298
117.602 104.894 97.2453
115.959 105.756 93.9962
110.365 105.153 93.6003
108.421 103.686 96.6673
118.432 101.783 100.66
119.903 104.39 99.5463
121.443 102.254 99.9923
120.541 105.371 96.5526
116.727 99.4457 99.4301
122.046 99.9819 97.5302
123.638 102.727 97.6758
114.751 106.734 91.0971
111.993 106.321 90.8811
113.493 108.139 88.233
109.455 106.089 90.7133
117.238 107.093 91.406
114.792 110.381 87.0562
111.986 110.066 86.8448
106.38 102.367 98.6099
108.064 100.231 100.037
105.493 100.128 98.3861
110.211 98.2756 99.0866
105.677 103.53 95.4947
103.906 100.304 95.5985
105.781 98.447 95.7967
113.923 95.941 94.6905
115.7 94.4382 91.9719
112.887 93.6267 91.8003
116.879 94.2718 89.029
118.112 94.2505 91.9548
115.287 97.6784 97.3035
111.993 96.5894 97.3254
110.429 93.3575 90.9968
112.201 93.8588 88.4463
119.372 95.7479 93.8436
118.087 97.1139 97.4693
120.717 97.6583 96.1064
120.563 94.9223 90.7317
122.437 98.825 94.0536
109.428 95.9978 96.611
109.047 94.9161 92.899
107.304 96.5425 94.5559
108.597 94.2769 89.4504
106.009 97.4031 92.2261
113.565 94.3448 85.9633
115.959 94.5983 86.3767
114.919 93.4543 83.3689
117.953 94.6207 86.0124
111.783 93.9917 85.3473
114.314 92.6724 80.3502
116.081 92.945 80.5949
117.032 104.143 52.8817
117.473 106.069 57.2535
115.434 105.699 56.8207
117.608 108.673 60.7441
118.775 106.956 58.5818
118.434 103.315 49.5978
116.748 102.971 48.7546
113.932 105.97 57.2377
114.286 107.704 60.2251
120.039 105.472 55.5771
120.074 103.612 51.0565
121.603 104.223 53.3652
119.92 102.005 47.3201
120.103 107.183 59.7255
122.642 104.407 56.1536
122.879 102.838 52.4562
114.882 102.731 48.9364
113.646 104.389 53.5402
112.937 102.934 50.679
112.243 105.86 57.6394
116.134 101.429 45.4512
112.072 101.335 49.0602
110.99 102.91 52.3893
114.449 110.529 62.2326
116.441 111.07 62.5478
115.075 112.741 64.5749
118.478 112.266 63.4375
112.236 110.989 62.3137
113.462 114.549 67.0779
115.676 115.02 67.2666
120.228 97.548 45.8903
119.28 98.956 43.2313
117.835 97.5848 45.2077
117.07 100.234 43.0618
120.372 100.606 44.5561
122.572 96.7724 47.185
120.982 95.4525 48.4089
116.241 95.5892 47.1803
115.092 96.8171 45.4031
121.851 100.618 47.1927
123.184 98.6555 48.0912
123.061 100.924 50.4324
124.294 96.8235 49.5343
124.156 101.078 53.1873
119.758 93.0303 49.7627
117.204 93.3053 49.41
118.141 90.7623 51.2546
114.958 92.9126 48.9046
122.04 92.8943 50.67
118.934 90.0116 54.3694
116.705 89.9013 53.9249
112.986 97.5601 44.225
114.457 99.8199 44.3466
112.261 99.4975 46.9099
112.061 95.3837 46.3966
110.508 99.2347 49.1065
126.685 105.6 83.7716
126.144 105.016 80.1967
125.448 103.794 82.4876
125.696 104.408 77.153
126.616 106.439 78.3385
127.309 107.626 85.1659
127.049 106.28 87.829
124.895 102.574 84.7336
125.013 101.349 81.698
127.545 108.385 78.6117
127.467 108.894 82.1665
128.582 109.981 79.2397
127.233 109.437 85.7359
126.818 108.042 76.0347
129.205 111.176 76.7523
128.631 111.863 80.1694
125.727 104.999 89.6847
124.514 102.797 87.7765
124.492 103.19 91.3893
124.063 100.534 86.2071
127.554 106.731 91.3802
124.586 103.242 94.6976
123.745 100.936 92.3548
124.958 100.637 78.3832
124.993 102.265 76.0524
124.801 100.188 74.9584
125.374 103.594 73.9553
124.674 99.2206 80.1455
124.891 98.0564 73.5653
124.964 99.3649 71.7222
125.052 105.935 70.239
124.181 106.59 68.7454
124.99 103.423 66.4852
123.95 107.188 66.7998
125.696 109.127 69.285
125.723 107.593 73.2604
125.733 104.576 71.7082
125.468 100.855 64.9678
124.549 101.531 63.3126
127.886 110.194 71.2785
127.177 109.183 73.7743
129.089 110.811 73.9117
127.039 111.151 69.5496
128.586 112.752 74.8739
125.151 101.976 70.5571
125.355 100.193 66.9727
125.084 99.7958 69.3615
125.777 98.8996 63.9076
125.545 97.915 68.6814
123.628 102.168 61.938
123.144 105.199 63.6925
124.045 103.422 60.1088
123.824 107.891 64.914
125.11 100.038 59.9823
124.512 102.071 56.7111
123.425 104.314 58.6553
103.451 101.084 80.2243
103.027 102.47 77.7486
102.142 102.738 81.3951
102.872 103.897 75.2986
103.953 101.886 74.3527
104.577 99.2132 79.3686
104.188 100.28 82.8539
101.236 103.348 85.2224
100.875 104.365 82.5605
104.997 99.9171 73.4222
105.506 98.8166 75.9695
106.026 98.0068 72.4875
105.703 97.5157 77.7706
105.044 101.208 71.1395
106.064 97.2534 69.1306
106.155 96.1197 71.0826
104.174 100.592 86.1292
102.34 102.2 87.5014
103.658 100.892 89.4445
100.261 103.478 88.8536
105.314 98.6996 84.2117
104.918 99.1984 90.2121
103.206 100.783 92.5499
100.51 105.437 79.7471
101.269 104.965 76.1602
99.6893 106.39 76.7556
102.683 104.85 73.407
100.337 106.127 83.1045
98.9726 108.02 77.4758
98.9675 107.226 73.9495
106.336 102.926 66.783
107.554 100.978 63.0803
106.838 103.597 65.1059
107.716 98.9406 59.3747
107.018 98.1363 61.336
105.455 101.745 68.3521
104.697 104.478 70.1188
105.117 105.815 66.585
107.215 104.248 63.313
106.322 97.7412 63.767
106.142 99.5102 67.6603
106.109 97.3903 66.4438
106.453 96.0433 60.0207
106.093 95.6129 65.5197
102.476 105.608 71.2099
102.368 106.517 68.9158
99.8974 106.794 71.0476
103.229 107.848 67.2778
99.5091 108.743 71.8726
108.289 102.55 59.464
107.818 99.9236 57.3245
108.112 101.006 55.3854
108.071 97.5979 55.7422
108.072 104.778 61.5337
109.034 102.488 54.2606
108.878 99.8148 52.1027
120.765 119.222 82.2182
118.155 119.29 80.5733
120.609 119.631 79.0859
115.499 118.898 79.0049
115.499 118.659 81.7099
120.522 117.604 84.7391
122.888 118.002 83.6499
122.512 118.728 77.3224
120.36 119.02 76.0343
115.335 117.607 83.9811
117.877 116.845 85.5326
115.329 115.743 85.6813
120.171 114.997 86.0679
112.437 117.638 82.3006
112.717 114.621 85.4508
115.426 113.239 86.5832
125.068 117.639 81.6398
124.75 117.947 78.3777
126.531 116.388 79.2231
124.218 117.602 75.1669
124.731 116.058 84.178
127.943 114.409 79.8867
127.556 114.859 76.672
118.06 118.671 74.43
115.564 118.482 76.0878
115.73 117.743 73.1378
112.943 117.976 77.3284
120.205 118.087 72.6306
116.045 116.786 70.0313
113.592 116.742 71.7501
107.6 117.881 79.6071
104.889 117.38 80.872
105.481 117.36 77.5743
102.777 115.652 81.8734
104.695 115.936 83.7277
109.609 117.955 81.2969
110.164 117.986 78.4744
106.178 116.438 74.5348
103.899 115.765 75.7319
107.26 115.72 84.7693
109.721 117.168 83.722
110.006 115.382 85.5926
105.81 113.531 85.3899
110.906 112.756 86.4695
110.677 117.58 75.6714
108.657 116.728 73.5715
111.108 116.75 72.713
107.305 116.087 71.0498
111.952 115.954 69.7106
101.901 114.465 76.3485
101.271 114.313 79.4931
100.264 112.673 76.8507
101.58 113.345 82.5601
103.315 114.231 72.9374
100.167 110.962 73.8392
99.2662 110.609 77.4423
120.849 86.5301 68.2317
123.706 86.1327 69.2691
122.814 87.8372 67.2538
123.031 89.2214 70.6755
122.024 88.1539 71.5218
118.472 87.5768 69.9709
118.677 89.3732 68.1065
122.098 90.173 64.8658
123.515 90.59 66.3394
119.911 88.6657 73.1613
118.089 86.8237 72.2163
117.603 89.0839 74.2745
115.57 86.387 70.3277
120.056 91.2111 74.5331
116.717 91.6072 76.7316
115.459 89.2576 74.9318
118.487 90.6369 65.4272
120.394 90.5074 63.5234
118.583 90.5322 61.9879
122.13 91.3094 61.4258
116.059 89.8206 66.8955
116.715 90.4159 60.3523
119.081 90.0976 58.3174
123.867 92.1883 67.9041
123.005 91.9105 70.4162
124.299 93.7 69.7361
122.168 92.7587 73.0396
124.741 92.4631 64.7931
125.611 95.3026 68.5884
125.1 95.632 71.8876
109.96 87.7902 68.6177
111.659 85.7678 67.2521
110.783 89.0471 65.8589
113.752 88.1249 67.1663
113.667 85.5038 68.8219
110.716 88.8211 70.822
110.087 90.4381 69.8337
109.876 90.3101 63.5049
111.304 89.9649 62.4521
113.412 86.1703 71.4361
112.108 88.5885 72.2898
113.759 88.8531 73.971
111.66 91.3073 73.839
114.028 91.4646 76.8968
109.437 92.0969 68.7541
109.111 91.5194 65.3586
107.758 92.6358 67.264
108.534 91.0049 61.3817
108.901 92.3287 71.9868
106.337 93.9689 69.4649
106.308 93.33 65.9302
113.073 90.3798 61.8994
114.301 89.6338 64.8104
114.809 90.3942 60.8835
111.847 90.4113 58.7119
115.476 90.1667 57.2805
121.709 108.325 90.1938
122.614 110.535 87.1838
124.031 109.282 89.0647
124.129 113.543 85.856
121.505 112.531 86.5169
119.415 107.512 90.9395
121.1 106.799 93.5336
125.992 108.545 90.9911
126.327 110.155 87.6003
119.423 112.12 86.7456
118.304 109.061 88.0443
117.005 111.275 87.0249
123.004 106.528 95.058
126.312 107.416 93.6317
125.014 105.165 95.7594
126.997 111.606 85.0489
126.183 113.989 84.5257
127.546 113.142 82.2985
122.951 115.031 68.6887
122.074 112.987 65.5761
123.862 112.824 67.1988
120.971 110.174 62.6415
120.271 112.888 64.5287
121.639 116.644 70.647
123.685 116.415 71.9169
125.531 112.305 68.5334
123.787 110.405 66.0247
119.167 114.669 66.2447
119.724 116.614 69.4612
117.68 115.84 68.2327
125.362 115.647 73.0939
126.525 113.484 71.1523
127.179 114.378 73.8771
122.682 108.105 63.2482
121.264 107.649 61.3922
122.007 105.634 59.8066
121.17 95.3963 83.8072
122.778 96.2816 82.6089
122.055 94.4455 80.2555
123.786 97.7585 81.3659
123.419 98.2429 84.7395
120.727 95.7404 87.3954
119.607 94.8834 85.126
121.052 92.9903 77.4635
122.765 93.5769 76.8081
123.055 98.7429 87.8249
121.941 96.7466 89.5793
122.974 98.7917 91.0533
118.871 93.3135 82.5689
119.37 92.6552 78.1948
117.641 92.9212 79.4923
123.839 94.5808 75.7968
124.109 97.2321 77.9842
124.745 96.464 74.8077
125.95 95.5152 58.3324
124.952 94.177 55.1703
125.491 93.4742 58.5338
123.978 92.9797 52.5572
124.755 95.2946 52.1118
125.972 97.6228 58.3819
126.42 96.9447 61.2129
125.564 93.1117 61.6892
123.979 92.0548 59.4802
124.894 97.4178 52.7939
125.36 98.546 56.4969
124.885 99.8365 54.6969
126.785 96.7855 63.8971
126.399 93.938 63.9256
126.346 96.0392 66.4613
122.401 91.0732 57.6788
122.566 91.3364 53.6619
120.744 90.3595 56.0392
105.165 106.351 88.7603
102.951 106.882 87.5204
104.345 108.617 86.0921
100.936 107.087 85.5164
101.232 105.419 88.979
105.445 104.898 92.3143
107.286 106.071 90.098
105.234 110.74 85.6092
102.491 111.279 84.7347
100.291 104.304 91.5983
103.329 104.181 93.6078
101.825 102.142 93.6712
108.777 107.874 87.2885
107.421 110.783 86.0675
109.804 110.499 86.6312
100.817 110.874 82.6015
100.334 108.314 82.807
99.4406 109.595 79.9712
106.112 109.919 64.3794
108.127 110.578 63.2134
106.335 112.385 66.3205
110.134 111.173 62.7281
110.477 107.947 61.0456
106.999 107.15 62.9841
104.596 108.766 65.6733
104.673 113.607 69.4954
106.86 114.494 68.6631
110.751 105.624 58.8166
109.253 105.207 60.1214
110.154 103.979 56.0156
102.586 109.81 68.1341
103.028 112.315 70.4633
101.083 110.645 70.9721
109.019 114.878 67.8579
110.601 113.2 64.8112
111.306 114.752 67.2928
107.483 95.2392 81.0771
108.841 94.4874 82.6312
108.553 93.4608 78.9165
110.197 94.0217 84.1556
108.743 94.7901 85.997
106.113 96.7777 82.8346
106.304 96.2529 79.4699
108.451 92.576 75.5344
109.867 92.1051 76.5631
107.488 95.6773 87.9193
106.394 97.179 86.0461
106.152 97.3036 89.2663
106.617 95.5887 76.1708
107.524 93.4826 74.1577
106.638 94.6924 72.7069
111.27 92.1394 77.7764
111.227 92.6684 81.8406
112.721 92.3112 79.1809
110.33 92.1071 51.129
108.973 93.1897 54.1991
109.38 91.4941 54.5339
107.513 94.3821 57.1428
108.232 95.1388 54.3354
111.065 93.623 48.7177
112.428 91.9462 49.4008
110.446 90.3773 56.0404
108.678 91.2588 58.0486
108.865 96.1497 52.2444
110.333 95.3625 48.8007
109.723 97.4519 49.987
113.374 90.8267 51.1889
112.192 90.0714 54.9753
114.496 90.1345 54.4088
107.238 92.0904 60.7406
106.396 94.0286 60.2679
106.106 93.6482 63.1964
POLYGONS 1280  5120
3 164 162 163
3 163 44 164
3 162 43 163
3 164 42 162
3 166 165 163
3 163 43 166
3 165 44 163
3 166 14 165
3 168 167 162
3 162 42 168
3 167 43 162
3 168 13 167
3 170 169 164
3 164 44 170
3 169 42 164
3 170 12 169
3 173 171 172
3 172 46 173
3 171 43 172
3 173 45 171
3 167 174 172
3 172 43 167
3 174 46 172
3 167 13 174
3 175 166 171
3 171 45 175
3 166 43 171
3 175 14 166
3 177 176 173
3 173 46 177
3 176 45 173
3 177 4 176
3 180 178 179
3 179 48 180
3 178 42 179
3 180 47 178
3 169 181 179
3 179 42 169
3 181 48 179
3 169 12 181
3 182 168 178
3 178 47 182
3 168 42 178
3 182 13 168
3 184 183 180
3 180 48 184
3 183 47 180
3 184 8 183
3 187 185 186
3 186 50 187
3 185 44 186
3 187 49 185
3 165 188 186
3 186 44 165
3 188 50 186
3 165 14 188
3 189 170 185
3 185 49 189
3 170 44 185
3 189 12 170
3 191 190 187
3 187 50 191
3 190 49 187
3 191 7 190
3 194 192 193
3 193 53 194
3 192 52 193
3 194 51 192
3 196 195 193
3 193 52 196
3 195 53 193
3 196 16 195
3 198 197 192
3 192 51 198
3 197 52 192
3 198 14 197
3 200 199 194
3 194 53 200
3 199 51 194
3 200 15 199
3 203 201 202
3 202 45 203
3 201 52 202
3 203 54 201
3 197 175 202
3 202 52 197
3 175 45 202
3 197 14 175
3 204 196 201
3 201 54 204
3 196 52 201
3 204 16 196
3 176 205 203
3 203 45 176
3 205 54 203
3 176 4 205
3 208 206 207
3 207 55 208
3 206 51 207
3 208 50 206
3 199 209 207
3 207 51 199
3 209 55 207
3 199 15 209
3 188 198 206
3 206 50 188
3 198 51 206
3 188 14 198
3 210 191 208
3 208 55 210
3 191 50 208
3 210 7 191
3 213 211 212
3 212 57 213
3 211 53 212
3 213 56 211
3 195 214 212
3 212 53 195
3 214 57 212
3 195 16 214
3 215 200 211
3 211 56 215
3 200 53 211
3 215 15 200
3 217 216 213
3 213 57 217
3 216 56 213
3 217 9 216
3 220 218 219
3 219 60 220
3 218 59 219
3 220 58 218
3 222 221 219
3 219 59 222
3 221 60 219
3 222 19 221
3 224 223 218
3 218 58 224
3 223 59 218
3 224 18 223
3 226 225 220
3 220 60 226
3 225 58 220
3 226 17 225
3 229 227 228
3 228 62 229
3 227 59 228
3 229 61 227
3 223 230 228
3 228 59 223
3 230 62 228
3 223 18 230
3 231 222 227
3 227 61 231
3 222 59 227
3 231 19 222
3 233 232 229
3 229 62 233
3 232 61 229
3 233 5 232
3 236 234 235
3 235 64 236
3 234 58 235
3 236 63 234
3 225 237 235
3 235 58 225
3 237 64 235
3 225 17 237
3 238 224 234
3 234 63 238
3 224 58 234
3 238 18 224
3 240 239 236
3 236 64 240
3 239 63 236
3 240 6 239
3 243 241 242
3 242 66 243
3 241 60 242
3 243 65 241
3 221 244 242
3 242 60 221
3 244 66 242
3 221 19 244
3 245 226 241
3 241 65 245
3 226 60 241
3 245 17 226
3 247 246 243
3 243 66 247
3 246 65 243
3 247 11 246
3 250 248 249
3 249 69 250
3 248 68 249
3 250 67 248
3 252 251 249
3 249 68 252
3 251 69 249
3 252 18 251
3 254 253 248
3 248 67 254
3 253 68 248
3 254 21 253
3 256 255 250
3 250 69 256
3 255 67 250
3 256 20 255
3 259 257 258
3 258 70 259
3 257 68 258
3 259 62 257
3 253 260 258
3 258 68 253
3 260 70 258
3 253 21 260
3 230 252 257
3 257 62 230
3 252 68 257
3 230 18 252
3 261 233 259
3 259 70 261
3 233 62 259
3 261 5 233
3 264 262 263
3 263 72 264
3 262 67 263
3 264 71 262
3 255 265 263
3 263 67 255
3 265 72 263
3 255 20 265
3 266 254 262
3 262 71 266
3 254 67 262
3 266 21 254
3 268 267 264
3 264 72 268
3 267 71 264
3 268 10 267
3 271 269 270
3 270 63 271
3 269 69 270
3 271 73 269
3 251 238 270
3 270 69 251
3 238 63 270
3 251 18 238
3 272 256 269
3 269 73 272
3 256 69 269
3 272 20 256
3 239 273 271
3 271 63 239
3 273 73 271
3 239 6 273
3 276 274 275
3 275 76 276
3 274 75 275
3 276 74 274
3 278 277 275
3 275 75 278
3 277 76 275
3 278 24 277
3 280 279 274
3 274 74 280
3 279 75 274
3 280 23 279
3 282 281 276
3 276 76 282
3 281 74 276
3 282 22 281
3 285 283 284
3 284 78 285
3 283 75 284
3 285 77 283
3 279 286 284
3 284 75 279
3 286 78 284
3 279 23 286
3 287 278 283
3 283 77 287
3 278 75 283
3 287 24 278
3 289 288 285
3 285 78 289
3 288 77 285
3 289 0 288
3 292 290 291
3 291 80 292
3 290 74 291
3 292 79 290
3 281 293 291
3 291 74 281
3 293 80 291
3 281 22 293
3 294 280 290
3 290 79 294
3 280 74 290
3 294 23 280
3 296 295 292
3 292 80 296
3 295 79 292
3 296 4 295
3 299 297 298
3 298 82 299
3 297 76 298
3 299 81 297
3 277 300 298
3 298 76 277
3 300 82 298
3 277 24 300
3 301 282 297
3 297 81 301
3 282 76 297
3 301 22 282
3 303 302 299
3 299 82 303
3 302 81 299
3 303 3 302
3 306 304 305
3 305 85 306
3 304 84 305
3 306 83 304
3 308 307 305
3 305 84 308
3 307 85 305
3 308 26 307
3 310 309 304
3 304 83 310
3 309 84 304
3 310 24 309
3 312 311 306
3 306 85 312
3 311 83 306
3 312 25 311
3 315 313 314
3 314 77 315
3 313 84 314
3 315 86 313
3 309 287 314
3 314 84 309
3 287 77 314
3 309 24 287
3 316 308 313
3 313 86 316
3 308 84 313
3 316 26 308
3 288 317 315
3 315 77 288
3 317 86 315
3 288 0 317
3 320 318 319
3 319 87 320
3 318 83 319
3 320 82 318
3 311 321 319
3 319 83 311
3 321 87 319
3 311 25 321
3 300 310 318
3 318 82 300
3 310 83 318
3 300 24 310
3 322 303 320
3 320 87 322
3 303 82 320
3 322 3 303
3 325 323 324
3 324 89 325
3 323 85 324
3 325 88 323
3 307 326 324
3 324 85 307
3 326 89 324
3 307 26 326
3 327 312 323
3 323 88 327
3 312 85 323
3 327 25 312
3 329 328 325
3 325 89 329
3 328 88 325
3 329 5 328
3 332 330 331
3 331 92 332
3 330 91 331
3 332 90 330
3 334 333 331
3 331 91 334
3 333 92 331
3 334 29 333
3 336 335 330
3 330 90 336
3 335 91 330
3 336 28 335
3 338 337 332
3 332 92 338
3 337 90 332
3 338 27 337
3 341 339 340
3 340 94 341
3 339 91 340
3 341 93 339
3 335 342 340
3 340 91 335
3 342 94 340
3 335 28 342
3 343 334 339
3 339 93 343
3 334 91 339
3 343 29 334
3 345 344 341
3 341 94 345
3 344 93 341
3 345 2 344
3 348 346 347
3 347 96 348
3 346 90 347
3 348 95 346
3 337 349 347
3 347 90 337
3 349 96 347
3 337 27 349
3 350 336 346
3 346 95 350
3 336 90 346
3 350 28 336
3 352 351 348
3 348 96 352
3 351 95 348
3 352 7 351
3 355 353 354
3 354 98 355
3 353 92 354
3 355 97 353
3 333 356 354
3 354 92 333
3 356 98 354
3 333 29 356
3 357 338 353
3 353 97 357
3 338 92 353
3 357 27 338
3 359 358 355
3 355 98 359
3 358 97 355
3 359 1 358
3 362 360 361
3 361 101 362
3 360 100 361
3 362 99 360
3 364 363 361
3 361 100 364
3 363 101 361
3 364 31 363
3 366 365 360
3 360 99 366
3 365 100 360
3 366 29 365
3 368 367 362
3 362 101 368
3 367 99 362
3 368 30 367
3 371 369 370
3 370 93 371
3 369 100 370
3 371 102 369
3 365 343 370
3 370 100 365
3 343 93 370
3 365 29 343
3 372 364 369
3 369 102 372
3 364 100 369
3 372 31 364
3 344 373 371
3 371 93 344
3 373 102 371
3 344 2 373
3 376 374 375
3 375 103 376
3 374 99 375
3 376 98 374
3 367 377 375
3 375 99 367
3 377 103 375
3 367 30 377
3 356 366 374
3 374 98 356
3 366 99 374
3 356 29 366
3 378 359 376
3 376 103 378
3 359 98 376
3 378 1 359
3 381 379 380
3 380 105 381
3 379 101 380
3 381 104 379
3 363 382 380
3 380 101 363
3 382 105 380
3 363 31 382
3 383 368 379
3 379 104 383
3 368 101 379
3 383 30 368
3 385 384 381
3 381 105 385
3 384 104 381
3 385 6 384
3 388 386 387
3 387 108 388
3 386 107 387
3 388 106 386
3 390 389 387
3 387 107 390
3 389 108 387
3 390 34 389
3 392 391 386
3 386 106 392
3 391 107 386
3 392 33 391
3 394 393 388
3 388 108 394
3 393 106 388
3 394 32 393
3 397 395 396
3 396 110 397
3 395 107 396
3 397 109 395
3 391 398 396
3 396 107 391
3 398 110 396
3 391 33 398
3 399 390 395
3 395 109 399
3 390 107 395
3 399 34 390
3 401 400 397
3 397 110 401
3 400 109 397
3 401 8 400
3 404 402 403
3 403 112 404
3 402 106 403
3 404 111 402
3 393 405 403
3 403 106 393
3 405 112 403
3 393 32 405
3 406 392 402
3 402 111 406
3 392 106 402
3 406 33 392
3 408 407 404
3 404 112 408
3 407 111 404
3 408 0 407
3 411 409 410
3 410 114 411
3 409 108 410
3 411 113 409
3 389 412 410
3 410 108 389
3 412 114 410
3 389 34 412
3 413 394 409
3 409 113 413
3 394 108 409
3 413 32 394
3 415 414 411
3 411 114 415
3 414 113 411
3 415 11 414
3 418 416 417
3 417 117 418
3 416 116 417
3 418 115 416
3 420 419 417
3 417 116 420
3 419 117 417
3 420 36 419
3 422 421 416
3 416 115 422
3 421 116 416
3 422 34 421
3 424 423 418
3 418 117 424
3 423 115 418
3 424 35 423
3 427 425 426
3 426 109 427
3 425 116 426
3 427 118 425
3 421 399 426
3 426 116 421
3 399 109 426
3 421 34 399
3 428 420 425
3 425 118 428
3 420 116 425
3 428 36 420
3 400 429 427
3 427 109 400
3 429 118 427
3 400 8 429
3 432 430 431
3 431 119 432
3 430 115 431
3 432 114 430
3 423 433 431
3 431 115 423
3 433 119 431
3 423 35 433
3 412 422 430
3 430 114 412
3 422 115 430
3 412 34 422
3 434 415 432
3 432 119 434
3 415 114 432
3 434 11 415
3 437 435 436
3 436 121 437
3 435 117 436
3 437 120 435
3 419 438 436
3 436 117 419
3 438 121 436
3 419 36 438
3 439 424 435
3 435 120 439
3 424 117 435
3 439 35 424
3 441 440 437
3 437 121 441
3 440 120 437
3 441 1 440
3 444 442 443
3 443 124 444
3 442 123 443
3 444 122 442
3 446 445 443
3 443 123 446
3 445 124 443
3 446 39 445
3 448 447 442
3 442 122 448
3 447 123 442
3 448 38 447
3 450 449 444
3 444 124 450
3 449 122 444
3 450 37 449
3 453 451 452
3 452 126 453
3 451 123 452
3 453 125 451
3 447 454 452
3 452 123 447
3 454 126 452
3 447 38 454
3 455 446 451
3 451 125 455
3 446 123 451
3 455 39 446
3 457 456 453
3 453 126 457
3 456 125 453
3 457 9 456
3 460 458 459
3 459 128 460
3 458 122 459
3 460 127 458
3 449 461 459
3 459 122 449
3 461 128 459
3 449 37 461
3 462 448 458
3 458 127 462
3 448 122 458
3 462 38 448
3 464 463 460
3 460 128 464
3 463 127 460
3 464 10 463
3 467 465 466
3 466 130 467
3 465 124 466
3 467 129 465
3 445 468 466
3 466 124 445
3 468 130 466
3 445 39 468
3 469 450 465
3 465 129 469
3 450 124 465
3 469 37 450
3 471 470 467
3 467 130 471
3 470 129 467
3 471 3 470
3 474 472 473
3 473 133 474
3 472 132 473
3 474 131 472
3 476 475 473
3 473 132 476
3 475 133 473
3 476 38 475
3 478 477 472
3 472 131 478
3 477 132 472
3 478 41 477
3 480 479 474
3 474 133 480
3 479 131 474
3 480 40 479
3 483 481 482
3 482 134 483
3 481 132 482
3 483 126 481
3 477 484 482
3 482 132 477
3 484 134 482
3 477 41 484
3 454 476 481
3 481 126 454
3 476 132 481
3 454 38 476
3 485 457 483
3 483 134 485
3 457 126 483
3 485 9 457
3 488 486 487
3 487 136 488
3 486 131 487
3 488 135 486
3 479 489 487
3 487 131 479
3 489 136 487
3 479 40 489
3 490 478 486
3 486 135 490
3 478 131 486
3 490 41 478
3 492 491 488
3 488 136 492
3 491 135 488
3 492 2 491
3 495 493 494
3 494 127 495
3 493 133 494
3 495 137 493
3 475 462 494
3 494 133 475
3 462 127 494
3 475 38 462
3 496 480 493
3 493 137 496
3 480 133 493
3 496 40 480
3 463 497 495
3 495 127 463
3 497 137 495
3 463 10 497
3 500 498 499
3 499 140 500
3 498 139 499
3 500 138 498
3 502 501 499
3 499 139 502
3 501 140 499
3 502 33 501
3 504 503 498
3 498 138 504
3 503 139 498
3 504 13 503
3 506 505 500
3 500 140 506
3 505 138 500
3 506 23 505
3 509 507 508
3 508 47 509
3 507 139 508
3 509 110 507
3 503 182 508
3 508 139 503
3 182 47 508
3 503 13 182
3 398 502 507
3 507 110 398
3 502 139 507
3 398 33 502
3 183 401 509
3 509 47 183
3 401 110 509
3 183 8 401
3 512 510 511
3 511 79 512
3 510 138 511
3 512 46 510
3 505 294 511
3 511 138 505
3 294 79 511
3 505 23 294
3 174 504 510
3 510 46 174
3 504 138 510
3 174 13 504
3 295 177 512
3 512 79 295
3 177 46 512
3 295 4 177
3 515 513 514
3 514 111 515
3 513 140 514
3 515 78 513
3 501 406 514
3 514 140 501
3 406 111 514
3 501 33 406
3 286 506 513
3 513 78 286
3 506 140 513
3 286 23 506
3 407 289 515
3 515 111 407
3 289 78 515
3 407 0 289
3 518 516 517
3 517 143 518
3 516 142 517
3 518 141 516
3 520 519 517
3 517 142 520
3 519 143 517
3 520 19 519
3 522 521 516
3 516 141 522
3 521 142 516
3 522 32 521
3 524 523 518
3 518 143 524
3 523 141 518
3 524 26 523
3 527 525 526
3 526 113 527
3 525 142 526
3 527 66 525
3 521 413 526
3 526 142 521
3 413 113 526
3 521 32 413
3 244 520 525
3 525 66 244
3 520 142 525
3 244 19 520
3 414 247 527
3 527 113 414
3 247 66 527
3 414 11 247
3 530 528 529
3 529 86 530
3 528 141 529
3 530 112 528
3 523 316 529
3 529 141 523
3 316 86 529
3 523 26 316
3 405 522 528
3 528 112 405
3 522 141 528
3 405 32 522
3 317 408 530
3 530 86 317
3 408 112 530
3 317 0 408
3 533 531 532
3 532 61 533
3 531 143 532
3 533 89 531
3 519 231 532
3 532 143 519
3 231 61 532
3 519 19 231
3 326 524 531
3 531 89 326
3 524 143 531
3 326 26 524
3 232 329 533
3 533 61 232
3 329 89 533
3 232 5 329
3 536 534 535
3 535 146 536
3 534 145 535
3 536 144 534
3 538 537 535
3 535 145 538
3 537 146 535
3 538 22 537
3 540 539 534
3 534 144 540
3 539 145 534
3 540 16 539
3 542 541 536
3 536 146 542
3 541 144 536
3 542 39 541
3 545 543 544
3 544 54 545
3 543 145 544
3 545 80 543
3 539 204 544
3 544 145 539
3 204 54 544
3 539 16 204
3 293 538 543
3 543 80 293
3 538 145 543
3 293 22 538
3 205 296 545
3 545 54 205
3 296 80 545
3 205 4 296
3 548 546 547
3 547 125 548
3 546 144 547
3 548 57 546
3 541 455 547
3 547 144 541
3 455 125 547
3 541 39 455
3 214 540 546
3 546 57 214
3 540 144 546
3 214 16 540
3 456 217 548
3 548 125 456
3 217 57 548
3 456 9 217
3 551 549 550
3 550 81 551
3 549 146 550
3 551 130 549
3 537 301 550
3 550 146 537
3 301 81 550
3 537 22 301
3 468 542 549
3 549 130 468
3 542 146 549
3 468 39 542
3 302 471 551
3 551 81 302
3 471 130 551
3 302 3 471
3 554 552 553
3 553 149 554
3 552 148 553
3 554 147 552
3 556 555 553
3 553 148 556
3 555 149 553
3 556 21 555
3 558 557 552
3 552 147 558
3 557 148 552
3 558 25 557
3 560 559 554
3 554 149 560
3 559 147 554
3 560 37 559
3 563 561 562
3 562 88 563
3 561 148 562
3 563 70 561
3 557 327 562
3 562 148 557
3 327 88 562
3 557 25 327
3 260 556 561
3 561 70 260
3 556 148 561
3 260 21 556
3 328 261 563
3 563 88 328
3 261 70 563
3 328 5 261
3 566 564 565
3 565 129 566
3 564 147 565
3 566 87 564
3 559 469 565
3 565 147 559
3 469 129 565
3 559 37 469
3 321 558 564
3 564 87 321
3 558 147 564
3 321 25 558
3 470 322 566
3 566 129 470
3 322 87 566
3 470 3 322
3 569 567 568
3 568 71 569
3 567 149 568
3 569 128 567
3 555 266 568
3 568 149 555
3 266 71 568
3 555 21 266
3 461 560 567
3 567 128 461
3 560 149 567
3 461 37 560
3 267 464 569
3 569 71 267
3 464 128 569
3 267 10 464
3 572 570 571
3 571 152 572
3 570 151 571
3 572 150 570
3 574 573 571
3 571 151 574
3 573 152 571
3 574 27 573
3 576 575 570
3 570 150 576
3 575 151 570
3 576 12 575
3 578 577 572
3 572 152 578
3 577 150 572
3 578 36 577
3 581 579 580
3 580 49 581
3 579 151 580
3 581 96 579
3 575 189 580
3 580 151 575
3 189 49 580
3 575 12 189
3 349 574 579
3 579 96 349
3 574 151 579
3 349 27 574
3 190 352 581
3 581 49 190
3 352 96 581
3 190 7 352
3 584 582 583
3 583 118 584
3 582 150 583
3 584 48 582
3 577 428 583
3 583 150 577
3 428 118 583
3 577 36 428
3 181 576 582
3 582 48 181
3 576 150 582
3 181 12 576
3 429 184 584
3 584 118 429
3 184 48 584
3 429 8 184
3 587 585 586
3 586 97 587
3 585 152 586
3 587 121 585
3 573 357 586
3 586 152 573
3 357 97 586
3 573 27 357
3 438 578 585
3 585 121 438
3 578 152 585
3 438 36 578
3 358 441 587
3 587 97 358
3 441 121 587
3 358 1 441
3 590 588 589
3 589 155 590
3 588 154 589
3 590 153 588
3 592 591 589
3 589 154 592
3 591 155 589
3 592 17 591
3 594 593 588
3 588 153 594
3 593 154 588
3 594 30 593
3 596 595 590
3 590 155 596
3 595 153 590
3 596 35 595
3 599 597 598
3 598 104 599
3 597 154 598
3 599 64 597
3 593 383 598
3 598 154 593
3 383 104 598
3 593 30 383
3 237 592 597
3 597 64 237
3 592 154 597
3 237 17 592
3 384 240 599
3 599 104 384
3 240 64 599
3 384 6 240
3 602 600 601
3 601 120 602
3 600 153 601
3 602 103 600
3 595 439 601
3 601 153 595
3 439 120 601
3 595 35 439
3 377 594 600
3 600 103 377
3 594 153 600
3 377 30 594
3 440 378 602
3 602 120 440
3 378 103 602
3 440 1 378
3 605 603 604
3 604 65 605
3 603 155 604
3 605 119 603
3 591 245 604
3 604 155 591
3 245 65 604
3 591 17 245
3 433 596 603
3 603 119 433
3 596 155 603
3 433 35 596
3 246 434 605
3 605 65 246
3 434 119 605
3 246 11 434
3 608 606 607
3 607 158 608
3 606 157 607
3 608 156 606
3 610 609 607
3 607 157 610
3 609 158 607
3 610 15 609
3 612 611 606
3 606 156 612
3 611 157 606
3 612 28 611
3 614 613 608
3 608 158 614
3 613 156 608
3 614 41 613
3 617 615 616
3 616 95 617
3 615 157 616
3 617 55 615
3 611 350 616
3 616 157 611
3 350 95 616
3 611 28 350
3 209 610 615
3 615 55 209
3 610 157 615
3 209 15 610
3 351 210 617
3 617 95 351
3 210 55 617
3 351 7 210
3 620 618 619
3 619 135 620
3 618 156 619
3 620 94 618
3 613 490 619
3 619 156 613
3 490 135 619
3 613 41 490
3 342 612 618
3 618 94 342
3 612 156 618
3 342 28 612
3 491 345 620
3 620 135 491
3 345 94 620
3 491 2 345
3 623 621 622
3 622 56 623
3 621 158 622
3 623 134 621
3 609 215 622
3 622 158 609
3 215 56 622
3 609 15 215
3 484 614 621
3 621 134 484
3 614 158 621
3 484 41 614
3 216 485 623
3 623 56 216
3 485 134 623
3 216 9 485
3 626 624 625
3 625 161 626
3 624 160 625
3 626 159 624
3 628 627 625
3 625 160 628
3 627 161 625
3 628 31 627
3 630 629 624
3 624 159 630
3 629 160 624
3 630 20 629
3 632 631 626
3 626 161 632
3 631 159 626
3 632 40 631
3 635 633 634
3 634 73 635
3 633 160 634
3 635 105 633
3 629 272 634
3 634 160 629
3 272 73 634
3 629 20 272
3 382 628 633
3 633 105 382
3 628 160 633
3 382 31 628
3 273 385 635
3 635 73 273
3 385 105 635
3 273 6 385
3 638 636 637
3 637 137 638
3 636 159 637
3 638 72 636
3 631 496 637
3 637 159 631
3 496 137 637
3 631 40 496
3 265 630 636
3 636 72 265
3 630 159 636
3 265 20 630
3 497 268 638
3 638 137 497
3 268 72 638
3 497 10 268
3 641 639 640
3 640 102 641
3 639 161 640
3 641 136 639
3 627 372 640
3 640 161 627
3 372 102 640
3 627 31 372
3 489 632 639
3 639 136 489
3 632 161 639
3 489 40 632
3 373 492 641
3 641 102 373
3 492 136 641
3 373 2 492
