# vtk DataFile Version 3.0
this file was written using fslvtkio
ASCII
DATASET POLYDATA
POINTS 732 float
138.019 124.304 78.9298
136.987 122.505 79.3775
138.205 122.65 78.981
139.384 122.996 78.9134
139.545 124.896 78.8257
140.93 123.444 78.9994
141.117 125.133 79.2533
142.299 124.525 79.6919
137.024 125.068 79.1901
135.879 124.373 79.4382
138.546 126.413 79.3349
140.295 126.564 79.603
142.172 126.018 80.372
135.886 126.336 79.6761
134.16 125.92 80.6884
134.871 124.942 80.2197
137.181 126.915 79.431
138.241 127.512 80.4105
139.619 127.312 80.8497
141.245 127.032 80.817
135.226 127.274 80.5787
134.012 126.954 81.5008
136.876 127.817 80.7324
137.978 128.035 81.8464
138.863 127.375 82.4299
140.617 127.381 81.7383
135.206 127.641 81.9086
136.603 127.929 82.393
138.702 121.03 79.5718
137.005 120.696 80.6945
137.83 119.573 80.8163
139.609 119.659 79.9837
140.539 121.753 79.0503
141.386 120.543 79.4889
142.432 122.827 79.3887
143.002 121.283 79.703
143.927 123.131 80.195
144.602 121.916 80.324
136.119 121.705 80.1511
134.333 121.357 81.4873
135.292 120.484 81.5732
143.717 124.762 80.618
145.034 123.572 81.5201
134.235 122.544 81.2008
132.57 122.665 82.3786
132.862 121.412 82.5059
135.247 123.44 80.2116
143.331 125.843 81.5404
144.399 125.05 81.9887
133.628 124.095 81.2372
132.328 124.196 82.6512
143.799 126.203 82.9909
142.203 126.796 82.0509
133.094 125.61 81.8088
132.049 125.598 82.9846
137.662 127.678 82.9838
137.596 127.002 84.2496
136.56 127.884 83.5943
139.322 127.077 83.9294
140.751 127.134 82.9928
133.418 127.18 82.6571
134.964 127.699 83.4535
143.103 118.521 79.9958
141.398 117.458 80.4018
142.482 116.847 80.7195
144.048 117.2 80.4865
144.968 118.889 80.162
145.725 117.706 80.5173
136.395 117.961 82.3279
135.103 117.168 83.2968
136.328 116.953 82.943
137.53 116.865 82.3272
138.532 118.289 81.0812
139.521 117.106 81.1752
140.839 118.719 80.1287
142.53 119.72 79.6237
144.424 120.19 79.9196
146.273 119.133 80.8967
145.893 120.377 80.9825
147.262 119.78 81.8542
134.159 118.603 82.8771
132.51 118.046 83.9444
133.717 117.642 83.4777
136.077 119.211 81.8679
145.805 121.833 81.3898
146.937 121.352 82.366
131.919 119.549 83.6497
130.229 119.551 84.8016
131.092 118.903 84.2181
133.542 120.072 82.6276
145.602 123.394 82.7596
146.322 122.597 83.1021
131.171 121.203 83.7649
129.502 121.295 84.9096
145.227 123.683 84.1903
144.622 124.663 83.3208
129.998 122.917 84.9497
128.68 123.545 86.5262
128.094 122.204 85.8941
131.375 122.988 83.5718
143.431 125.708 84.4313
142.241 126.729 83.6407
129.901 124.8 85.5597
131.069 124.496 84.2263
130.964 125.992 85.2838
136.07 127.278 84.4633
135.773 126.465 85.093
134.741 127.377 84.7829
137.156 125.941 85.542
138.732 126.301 84.964
140.508 126.65 84.4442
131.968 126.519 84.0622
133.334 127.314 84.3354
140.576 115.03 82.0001
139.072 114.561 83.4348
140.293 114.311 82.8858
141.583 114.235 82.1793
142.904 115.541 81.0682
143.692 114.605 81.5491
145.027 116.317 80.9201
145.58 115.274 81.6007
146.778 116.844 81.6877
147.217 116.3 82.4927
136.248 115.784 83.5275
134.604 115.235 84.5072
135.871 114.877 84.4061
137.21 114.798 84.0224
138.739 115.602 82.4137
140.649 116.151 81.3684
146.925 118.083 81.3145
147.994 118.638 82.55
133.663 116.659 84.3416
132.156 116.473 85.2747
133.318 115.731 84.8507
147.896 120.384 83.4144
130.832 118.044 84.94
128.786 118.115 86.3731
130.311 117.108 85.9139
147.139 121.854 83.7517
128.669 119.056 85.8244
126.903 120.293 86.9358
127.128 119.295 87.668
146.033 122.78 84.7088
128.177 120.774 85.9351
126.686 122.048 87.6244
144.502 123.325 85.7271
144.261 124.497 84.9202
127.658 123.584 88.2169
138.34 125.117 85.8428
137.134 124.213 86.7598
136.876 125.114 86.0864
140.065 125.663 85.4793
139.273 124.413 86.3023
141.83 126.117 84.9438
141.431 125.02 85.7028
142.904 124.763 85.7285
129.137 124.599 86.8124
132.306 126.51 85.7239
130.964 125.693 86.6563
133.927 126.864 85.5213
133.651 126.003 86.1693
135.624 125.536 85.9965
140.058 113.598 83.6913
138.471 113.048 85.2667
139.877 112.869 84.4956
141.163 112.635 83.7824
142.306 113.548 82.7545
143.41 112.822 83.0503
144.415 113.832 82.4205
145.863 113.141 82.9675
146.27 114.574 82.4438
147.439 114.822 83.3086
135.813 114.054 85.3066
133.821 114.005 85.9609
134.509 113.208 86.4885
136.407 112.97 86.2921
137.84 113.768 84.6651
147.939 116.582 83.5462
133.064 114.857 85.416
130.883 114.701 86.8039
132.242 114.274 86.698
148.354 117.925 83.9683
148.432 119.31 84.1746
148.548 118.182 85.6296
130.911 115.896 86.1702
128.945 116.839 87.0304
129.247 115.703 87.8638
148.009 120.398 84.8224
148.338 119.498 85.9534
127.697 118.287 88.1335
147.394 120.631 86.1169
146.935 121.51 84.9951
126.22 120.671 88.6137
126.833 119.526 89.4518
145.672 122.219 85.9943
126.915 122.557 89.3299
139.98 123.7 86.7479
138.513 122.372 87.9319
138.408 123.192 87.0629
141.568 123.907 86.5341
140.508 122.982 87.3453
143.251 123.879 86.0071
142.526 122.791 86.948
144.226 122.408 86.7214
128.466 123.829 89.1058
132.58 125.17 86.9763
131.805 124.382 88.2709
130.962 125.063 87.775
134.327 124.998 86.9902
133.235 124.161 88.1073
135.813 124.66 86.7939
134.964 123.873 87.8559
136.798 123.377 87.477
129.291 124.791 88.0188
139.834 112.111 85.3431
138.452 111.489 86.7497
139.59 111.22 85.9439
140.794 110.929 85.2093
142.085 111.802 84.3505
143.047 110.918 84.4932
144.257 111.967 83.6934
145.356 111.342 84.4892
145.55 112.168 83.7281
146.598 112.643 84.1748
137.793 112.526 86.6341
135.885 112.088 87.5668
137.24 111.914 87.3676
147.646 114.043 84.1787
148.399 115.563 84.7128
148.529 114.811 86.0532
132.844 113.611 87.1045
131.138 114.013 88.2688
132.377 112.603 88.1087
134.494 112.443 87.2913
148.439 116.925 85.0333
148.577 116.558 86.5258
129.729 114.94 88.9495
148.307 118.239 87.0806
128.352 117.306 88.9473
129.236 116.559 89.7397
147.532 119.622 87.2251
127.852 118.695 90.0307
146.986 120.655 87.1121
146.073 121.312 86.7916
126.677 121.073 90.2383
127.775 119.876 90.7432
143.102 121.876 87.8108
141.63 120.882 88.6836
141.57 122.081 88.1954
144.739 121.664 87.2109
143.782 121.072 88.1574
128.223 122.25 90.3291
129.451 123.139 89.3645
131.781 123.171 88.8682
130.324 122.16 89.7263
133.698 122.871 88.752
132.353 121.8 89.3903
135.516 122.722 88.3898
134.097 121.599 89.5222
137.162 122.503 87.9398
136.032 121.799 89.1573
137.961 121.625 88.7915
140.083 122.21 88.1192
130.211 124.076 88.6815
139.488 110.53 86.8204
138.49 110.088 87.8311
139.72 109.606 87.2791
140.855 109.493 86.718
141.775 110.254 85.8007
142.866 109.383 85.9796
143.894 110.234 85.0553
144.87 109.54 85.7415
145.272 110.399 85.1316
146.478 110.69 85.6063
136.818 111.267 87.9371
135.692 110.77 88.5513
137.051 110.51 88.3424
147.19 111.965 85.3939
147.792 113.361 85.444
148.169 113.263 86.9645
133.776 111.798 88.5194
133.454 111.427 90.1297
134.263 110.957 88.9891
148.723 115.274 87.5806
131.299 113.331 89.6399
132.183 112.475 90.04
148.357 117.1 88.2133
130.501 114.616 90.4843
131.378 113.795 91.2469
147.608 118.627 88.4699
129.037 117.967 90.8506
130.222 116.402 91.0804
146.636 120.312 88.0183
146.696 119.512 88.805
145.619 119.697 89.1774
129.65 119.704 91.2722
130.949 118.301 91.3922
145.165 120.733 88.1497
144.212 119.717 89.2455
143.356 120.088 88.8062
128.932 121.121 90.6523
130.737 121.052 90.3514
131.977 119.357 90.7744
132.317 120.437 90.1981
134.663 120.564 89.9129
133.552 119.393 90.3238
136.743 120.649 89.3747
135.541 119.543 90.0713
138.721 120.911 89.1017
137.411 119.751 89.8255
140.246 121.169 88.8735
139.438 120.079 89.5519
141.593 119.967 89.195
142.438 107.683 87.2954
141.459 107.088 88.1276
142.747 106.724 87.8858
143.965 106.906 87.6617
144.91 107.798 86.8957
145.451 107.135 87.6557
140.102 108.611 87.5755
138.599 108.557 88.7783
139.829 107.549 88.7228
142.011 108.677 86.6538
144.111 108.537 86.4215
146.274 108.142 87.0629
146.241 109.361 86.3792
147.405 108.852 87.5038
147.674 110.377 87.3408
148.111 110.068 88.7612
137.492 109.797 88.8398
135.935 109.301 89.4615
137.103 108.552 89.6071
147.578 111.511 86.6662
148.265 111.989 88.2581
134.908 110.208 89.3643
133.93 110.101 90.6302
134.775 109.401 89.9937
148.34 113.784 88.5408
134.416 111.509 91.427
133.855 112.267 91.3634
135.373 112.632 92.0653
148.331 115.81 89.1407
133.005 112.883 91.4639
134.47 113.288 92.0929
147.489 117.508 89.6385
131.711 115.641 91.8267
132.542 114.231 92.1524
146.396 118.558 89.5063
146.424 118.028 90.1872
145.223 118.002 90.4475
132.232 117.412 91.4594
133.553 115.941 91.9733
134.073 117.205 91.3976
136.594 117.642 90.71
135.487 116.784 91.8834
138.852 117.82 90.2153
137.705 116.957 91.1051
140.985 118.119 90.2811
139.856 117.007 90.6661
142.756 118.458 90.2398
141.712 117.454 90.92
144.527 119.015 90.0211
143.582 117.835 90.7505
132.801 118.607 90.8939
134.161 118.489 90.7674
135.964 118.501 90.3281
138.117 118.708 89.9206
140.158 119.015 89.723
142.292 119.103 89.6508
143.22 105.83 88.4935
141.436 105.483 89.104
142.52 104.762 89.3002
144.216 104.666 88.8588
145.396 106.198 88.3184
146.057 104.946 89.1565
147.041 106.78 88.8669
147.228 105.887 89.5608
138.469 106.472 90.0043
137.452 105.686 90.6727
138.644 105.504 90.3947
139.767 105.435 89.8361
140.579 106.492 89.0221
146.851 107.451 88.019
147.865 107.443 89.4932
147.873 108.494 88.8333
148.147 108.636 90.1554
136.433 107.1 90.5352
134.512 107.592 91.2735
135.485 106.35 91.1271
137.898 107.584 89.8173
148.332 110.764 89.9448
135.254 108.498 90.375
134.375 109.102 91.8049
148.403 112.588 89.85
134.743 110.311 91.9349
134.208 110.774 91.7094
135.777 111.462 92.1292
148.132 114.342 90.1933
136.255 114.046 92.1411
136.982 112.679 92.5388
138.021 113.683 92.81
147.362 116.108 90.3867
134.382 114.317 92.3599
136.927 115.1 92.0956
138.242 114.606 92.6059
146.266 117.155 90.5656
146.493 116.286 91.4315
145.348 116.593 91.5194
134.509 115.52 92.2045
136.463 115.888 91.8007
138.784 115.303 92.0837
138.739 115.973 91.3245
140.925 116.351 91.1682
140.525 115.521 91.8472
142.778 116.739 91.143
142.34 115.935 92.1253
144.562 117.127 91.2251
143.991 116.24 92.0725
140.762 103.372 90.463
139.771 102.729 91.2712
140.933 102.291 90.8813
142.149 102.257 90.4695
142.793 103.538 89.6702
144.103 102.294 90.1557
144.856 103.575 89.6229
145.903 102.61 90.292
146.343 103.762 89.8782
147.179 103.966 91.2665
138.935 104.574 90.8982
136.897 104.462 91.7089
138.271 103.568 91.706
140.962 104.509 89.9339
147.284 105.292 90.4897
147.979 106.87 90.2415
147.784 107.061 91.1616
136.22 105.273 91.4251
134.187 106.211 91.9755
134.602 104.933 92.0473
147.863 109.2 91.4579
134.607 107.754 92.8416
147.874 111.028 91.4656
135.576 109.002 92.9758
135.957 110.3 92.765
137.619 110.591 93.0009
137.286 109.509 93.464
138.853 110.395 93.6025
147.842 112.748 91.3799
137.267 111.473 92.5099
138.676 111.657 93.1693
147.204 113.981 91.5871
146.841 112.724 92.6055
146.324 113.532 92.7516
139.972 114.035 93.2905
138.868 112.819 93.4292
141.993 114.226 93.4129
140.686 113.012 93.7488
142.467 113.054 93.656
145.743 114.769 92.5784
145.242 113.213 93.3438
144.537 114.027 92.9989
146.998 115.249 91.3746
139.994 114.957 92.6722
141.681 115.136 92.8579
143.364 113.929 93.3731
143.631 115.153 92.7354
145.414 115.862 92.2355
141.275 101.341 91.4073
139.558 101.215 92.1433
140.945 100.088 92.1217
142.696 99.9799 91.8531
143.356 101.132 90.9961
144.768 100.214 91.9161
145.324 101.371 90.7465
146.316 101.102 91.8363
146.711 102.314 91.1365
146.947 102.79 92.5443
136.182 102.687 92.7811
135.134 102.181 93.1236
136.533 101.713 93.1644
137.796 101.518 92.8667
138.474 102.347 92.0505
147.024 104.42 93.2036
133.863 103.973 92.4616
131.96 104.455 93.8484
133.199 102.961 93.4257
136.306 103.736 92.337
147.431 105.694 92.1097
147.356 107.302 92.328
132.881 105.492 93.6949
134.076 106.303 93.5244
147.314 108.455 92.6682
147.313 107.493 93.2269
146.763 107.92 93.9559
135.509 107.22 93.9059
136.562 108.291 93.6799
138.676 109.001 93.7561
137.407 107.54 94.2485
140.549 109.141 94.2717
139.286 107.626 94.2723
140.869 107.924 94.6117
147.17 109.792 92.8198
146.128 109.075 94.0895
140.511 110.577 93.9037
141.956 108.954 94.3752
142.259 110.238 94.2568
144.228 110.478 94.5735
143.238 109.098 94.8455
145.915 110.569 94.0035
144.859 109.27 94.852
147.011 111.523 92.8839
140.268 111.851 93.697
142.026 111.856 93.8354
143.607 111.341 94.1087
145.604 112.038 93.8984
143.908 112.559 93.8735
139.261 99.0217 93.1972
137.971 98.7051 93.9427
139.382 98.0621 93.6365
140.965 97.8285 93.4349
141.729 98.8871 92.699
143.269 97.5597 93.5227
143.786 98.9342 92.5154
144.954 98.1125 93.6809
145.588 99.2603 92.8616
145.951 99.492 94.5554
137.114 100.568 93.5713
134.925 100.526 94.2201
136.611 99.7742 94.1668
139.365 100.055 92.629
146.426 100.824 93.1987
146.702 102.766 94.0856
134.102 101.731 93.72
132.03 103.121 95.1275
133.01 101.523 94.0869
146.5 104.046 94.7708
132.463 104.537 95.5717
146.984 106.243 93.6963
146.194 105.275 94.6812
132.895 105.275 94.7886
136.16 106.475 94.6243
134.473 105.761 94.9341
138.304 106.471 94.7612
136.765 105.559 95.4678
140.474 106.657 94.8793
138.969 105.259 95.4244
142.418 106.678 95.578
141.023 105.328 95.4215
144.245 106.918 95.9382
142.955 105.413 96.0347
146.034 106.865 95.1456
144.788 105.51 95.8193
142.141 107.711 95.0851
143.81 108.003 95.4802
145.454 108.025 95.1567
139.393 97.1113 94.1619
137.511 97.211 94.7671
138.927 96.1767 94.62
140.616 95.608 94.734
141.849 96.5825 94.0206
142.764 95.9625 95.0721
143.764 96.887 94.6958
144.191 97.1351 96.4222
136.132 98.9363 94.6384
134.398 98.973 94.9744
135.944 97.9117 94.8832
144.903 98.061 95.3616
145.396 99.7048 96.0771
130.836 101.424 95.0128
129.831 100.687 96.4741
130.556 99.8158 95.2594
132.232 99.3367 94.9859
132.826 100.903 94.5782
146.283 101.359 94.8003
145.422 101.319 95.9153
130.054 102.58 95.991
133.857 103.924 96.2333
132.056 102.839 96.812
136.226 103.447 96.2357
134.535 102.549 96.6763
136.56 102.333 96.8336
145.785 103.102 95.4975
144.802 102.922 96.4632
134.048 105.02 95.7687
135.729 104.807 95.9563
137.877 103.038 96.5981
138.152 104.086 96.1292
140.227 104.141 96.1748
139.745 102.957 96.7558
142.174 104.269 96.3332
141.486 103.237 96.7831
144.196 104.243 96.2102
143.319 103.292 96.8515
145.531 104.547 95.5038
138.144 95.5852 95.3358
136.766 95.2337 95.9666
137.731 94.3024 97.0608
139.184 94.7304 96.5966
140.424 95.0148 95.8284
141.155 95.0821 97.3502
135.923 96.8924 95.3901
134.799 96.4607 96.2592
135.849 95.813 96.1047
142.511 95.5896 96.3033
143.442 96.8483 97.7169
131.694 98.6055 95.952
130.449 98.9469 96.5818
131.43 97.7158 96.278
132.892 97.2155 96.3269
133.884 97.8636 95.5872
144.517 99.1899 97.048
143.633 98.8507 98.0383
130.87 100.179 97.6829
130.508 101.889 97.3234
132.015 101.289 97.6683
132.986 99.9023 98.2609
134.119 100.358 97.8568
143.077 100.826 97.6803
142.516 100.032 98.2256
140.967 100.723 98.0733
144.653 100.71 96.9493
133.757 101.749 97.3405
138.559 102.119 97.2943
136.117 101.516 97.692
140.903 101.906 97.4327
138.733 101.086 97.9103
142.573 102.349 97.3598
144.029 101.993 97.0046
135.912 94.792 96.966
134.806 94.4192 97.5427
136.234 94.1515 98.3575
138.331 94.0987 98.515
139.895 94.6761 98.0753
141.281 95.6304 99.4103
132.047 96.5734 96.8429
131.06 96.0727 97.5612
132.185 95.4671 97.7472
133.197 95.0564 97.6761
134.015 95.5819 96.8195
142.302 96.1025 98.363
142.617 97.8758 98.9327
130.198 97.5366 96.751
128.826 97.7314 97.8548
129.565 96.4904 97.2385
141.766 99.3948 98.7693
141.68 98.4302 99.451
140.517 98.8483 99.5717
129.71 99.2655 97.6052
131.182 99.1039 98.4762
132.887 99.0028 98.7271
135.68 100.496 98.2945
134.997 99.3781 99.0101
137.758 100.4 98.6672
136.86 99.4767 99.4005
139.79 100.115 98.8523
138.726 99.2191 99.5643
132.31 94.4508 98.6727
130.71 94.1447 98.7774
132 93.7537 99.7607
134.359 93.9396 99.2936
134.148 94.2516 98.3348
136.205 94.0603 99.8411
137.886 94.1378 99.7285
139.734 94.6432 99.51
140.231 95.3936 100.724
128.356 96.0774 98.1741
127.053 95.1359 98.796
128.041 94.8152 98.7113
129.146 94.5243 98.8078
130.063 95.5432 98.1156
141.631 97.364 100.066
140.56 96.7284 100.981
127.486 97.0714 99.0105
130.477 98.3429 98.7767
129.272 97.6254 99.3432
132.366 98.2627 99.3653
131.323 97.6339 99.9013
134.3 98.5285 99.82
133.378 97.8953 100.684
136.217 98.7897 100.532
135.193 98.0834 101.131
138.015 98.5636 100.718
136.86 97.7464 101.606
139.736 98.084 100.467
138.674 97.4159 101.337
127.913 93.5909 99.5467
126.196 93.0985 100.802
128.204 93.336 101.218
129.734 93.4492 100.652
129.807 93.4268 99.5079
131.997 93.68 100.964
133.586 93.8982 100.437
135.326 93.8545 101.003
137.471 94.0593 101.136
138.921 94.7443 101.186
137.887 94.9017 102.317
126.213 93.8734 99.6651
124.838 94.6296 99.839
124.507 93.4899 100.749
137.924 96.331 102.33
136.682 95.6074 103.224
136.233 96.6955 102.444
139.517 96.1871 101.782
126.033 95.7642 99.5143
127.295 96.5845 100.392
128.792 96.9283 100.455
130.622 97.0373 100.649
132.631 97.2171 101.065
134.711 97.2394 102.059
126.742 93.867 102.153
128.43 94.49 102.401
129.839 94.1943 102.127
131.445 93.7969 102.169
133.417 93.7726 101.919
135.066 94.2018 102.589
133.837 94.8314 103.628
136.469 94.1608 102.533
124.591 95.1354 101.133
125.328 94.2916 102.11
135.434 95.7742 103.381
133.761 96.4085 102.993
126.19 95.9528 101.207
128.181 96.4798 101.433
130.049 96.748 101.833
132.165 96.8472 102.278
127.092 95.099 102.773
129.054 95.2341 103.081
130.829 95.0124 103.26
132.306 94.4049 103.232
126.602 95.7613 102.197
128.447 96.2384 102.656
130.464 96.3596 103.215
132.152 95.9618 103.88
POLYGONS 1460  5840
3 0 1 2
3 0 3 4
3 2 3 0
3 4 5 6
3 3 5 4
3 5 7 6
3 8 1 0
3 9 1 8
3 4 10 0
3 10 8 0
3 6 11 4
3 11 10 4
3 12 6 7
3 11 6 12
3 13 14 15
3 9 13 15
3 9 8 13
3 8 16 13
3 10 17 8
3 17 16 8
3 11 18 10
3 18 17 10
3 19 11 12
3 18 11 19
3 20 14 13
3 21 14 20
3 16 22 13
3 22 20 13
3 23 17 24
3 23 22 17
3 22 16 17
3 18 24 17
3 25 24 18
3 19 25 18
3 20 26 21
3 22 26 20
3 27 26 22
3 23 27 22
3 28 29 30
3 28 31 32
3 30 31 28
3 32 33 34
3 31 33 32
3 34 35 36
3 33 35 34
3 35 37 36
3 38 39 40
3 29 38 40
3 28 38 29
3 28 1 38
3 28 2 1
3 3 2 28
3 32 3 28
3 5 3 32
3 34 5 32
3 7 5 34
3 7 34 41
3 41 34 36
3 42 36 37
3 41 36 42
3 43 44 45
3 39 43 45
3 39 38 43
3 38 46 43
3 1 9 46
3 38 1 46
3 41 47 12
3 7 41 12
3 48 41 42
3 47 41 48
3 49 44 43
3 50 44 49
3 15 14 49
3 15 49 46
3 46 49 43
3 9 15 46
3 47 51 52
3 47 52 12
3 12 52 19
3 48 51 47
3 53 50 49
3 54 50 53
3 14 21 53
3 49 14 53
3 55 56 57
3 55 23 24
3 55 24 56
3 56 24 58
3 25 59 24
3 24 59 58
3 52 25 19
3 59 25 52
3 53 60 54
3 21 60 53
3 21 26 60
3 26 61 60
3 57 27 55
3 57 61 27
3 61 26 27
3 23 55 27
3 62 63 64
3 62 65 66
3 64 65 62
3 65 67 66
3 68 69 70
3 68 71 72
3 70 71 68
3 72 73 74
3 71 73 72
3 63 74 73
3 63 62 74
3 62 75 74
3 66 76 62
3 76 75 62
3 77 66 67
3 77 78 66
3 78 76 66
3 77 79 78
3 80 81 82
3 69 80 82
3 69 68 80
3 68 83 80
3 30 29 83
3 30 83 72
3 72 83 68
3 31 30 72
3 74 31 72
3 33 31 74
3 75 33 74
3 35 33 75
3 76 35 75
3 37 35 76
3 37 76 84
3 84 76 78
3 85 78 79
3 84 78 85
3 86 87 88
3 81 86 88
3 81 80 86
3 80 89 86
3 40 39 89
3 40 89 83
3 83 89 80
3 29 40 83
3 84 90 42
3 37 84 42
3 91 84 85
3 90 84 91
3 92 87 86
3 93 87 92
3 45 44 92
3 45 92 89
3 89 92 86
3 39 45 89
3 90 94 95
3 90 95 42
3 42 95 48
3 91 94 90
3 96 97 98
3 93 96 98
3 93 92 96
3 92 99 96
3 44 50 99
3 92 44 99
3 51 100 101
3 52 51 101
3 95 51 48
3 100 51 95
3 96 102 97
3 102 103 104
3 102 96 103
3 96 99 103
3 50 54 103
3 99 50 103
3 105 106 107
3 105 57 56
3 105 56 106
3 106 56 108
3 58 109 56
3 56 109 108
3 59 110 58
3 58 110 109
3 101 59 52
3 110 59 101
3 103 111 104
3 54 111 103
3 54 60 111
3 60 112 111
3 107 61 105
3 107 112 61
3 112 60 61
3 57 105 61
3 113 114 115
3 113 116 117
3 115 116 113
3 117 118 119
3 116 118 117
3 119 120 121
3 118 120 119
3 120 122 121
3 123 124 125
3 123 126 127
3 125 126 123
3 114 127 126
3 114 113 127
3 113 128 127
3 64 63 128
3 64 128 117
3 117 128 113
3 65 64 117
3 119 65 117
3 67 65 119
3 67 119 129
3 129 119 121
3 130 121 122
3 129 121 130
3 131 132 133
3 124 131 133
3 123 131 124
3 123 69 131
3 123 70 69
3 71 70 123
3 127 71 123
3 73 71 127
3 128 73 127
3 63 73 128
3 67 129 77
3 129 79 77
3 129 130 79
3 130 134 79
3 135 136 137
3 132 135 137
3 131 135 132
3 131 81 135
3 131 82 81
3 69 82 131
3 79 134 85
3 134 138 85
3 139 140 141
3 136 139 141
3 135 139 136
3 135 87 139
3 135 88 87
3 81 88 135
3 85 138 91
3 138 142 91
3 143 140 139
3 144 140 143
3 87 93 143
3 139 87 143
3 94 145 146
3 95 94 146
3 142 94 91
3 145 94 142
3 98 144 143
3 98 97 144
3 97 147 144
3 93 98 143
3 148 149 150
3 148 151 152
3 149 148 152
3 151 153 154
3 152 151 154
3 153 101 100
3 153 100 154
3 154 100 155
3 146 100 95
3 155 100 146
3 97 156 147
3 102 156 97
3 104 157 158
3 104 158 102
3 102 158 156
3 157 159 160
3 158 157 160
3 159 107 106
3 159 106 160
3 160 106 161
3 150 108 148
3 150 161 108
3 161 106 108
3 109 148 108
3 151 148 109
3 110 151 109
3 153 151 110
3 101 153 110
3 104 111 157
3 112 157 111
3 159 157 112
3 107 159 112
3 162 163 164
3 162 165 166
3 164 165 162
3 166 167 168
3 165 167 166
3 168 169 170
3 167 169 168
3 169 171 170
3 172 173 174
3 172 175 176
3 174 175 172
3 163 176 175
3 162 176 163
3 162 114 176
3 162 115 114
3 116 115 162
3 166 116 162
3 118 116 166
3 168 118 166
3 120 118 168
3 170 120 168
3 170 122 120
3 170 171 122
3 171 177 122
3 178 179 180
3 173 178 180
3 172 178 173
3 172 124 178
3 172 125 124
3 126 125 172
3 176 126 172
3 114 126 176
3 181 182 130
3 181 130 177
3 177 130 122
3 181 183 182
3 184 185 186
3 179 184 186
3 178 184 179
3 178 132 184
3 178 133 132
3 124 133 178
3 182 187 134
3 130 182 134
3 188 182 183
3 187 182 188
3 137 185 184
3 137 136 185
3 136 189 185
3 132 137 184
3 187 190 191
3 187 191 134
3 134 191 138
3 188 190 187
3 141 192 193
3 140 192 141
3 189 136 141
3 193 189 141
3 138 191 142
3 191 194 142
3 140 144 192
3 192 144 195
3 196 197 198
3 196 199 200
3 197 196 200
3 199 201 202
3 200 199 202
3 201 146 145
3 201 145 202
3 202 145 203
3 194 145 142
3 203 145 194
3 144 147 195
3 195 147 204
3 205 206 207
3 205 208 209
3 206 205 209
3 208 210 211
3 209 208 211
3 210 150 149
3 210 149 211
3 211 149 212
3 198 152 196
3 198 212 152
3 212 149 152
3 154 196 152
3 199 196 154
3 155 199 154
3 201 199 155
3 146 201 155
3 147 213 204
3 156 213 147
3 207 158 205
3 207 213 158
3 213 156 158
3 160 205 158
3 208 205 160
3 161 208 160
3 210 208 161
3 150 210 161
3 214 215 216
3 214 217 218
3 216 217 214
3 218 219 220
3 217 219 218
3 220 221 222
3 219 221 220
3 221 223 222
3 224 225 226
3 215 224 226
3 214 224 215
3 214 163 224
3 214 164 163
3 165 164 214
3 218 165 214
3 167 165 218
3 220 167 218
3 169 167 220
3 222 169 220
3 171 227 228
3 169 227 171
3 169 223 227
3 169 222 223
3 227 229 228
3 230 231 232
3 230 174 173
3 230 232 174
3 232 233 174
3 225 224 175
3 225 175 233
3 233 175 174
3 163 175 224
3 228 234 177
3 171 228 177
3 235 228 229
3 234 228 235
3 180 231 230
3 180 179 231
3 179 236 231
3 173 180 230
3 177 234 181
3 234 183 181
3 234 235 183
3 235 237 183
3 186 238 239
3 185 238 186
3 236 179 186
3 239 236 186
3 183 237 188
3 237 240 188
3 185 189 238
3 238 189 241
3 190 242 243
3 191 190 243
3 240 190 188
3 242 190 240
3 193 244 245
3 192 244 193
3 241 189 193
3 245 241 193
3 246 247 248
3 246 249 250
3 247 246 250
3 249 243 250
3 249 194 243
3 194 191 243
3 251 195 252
3 251 244 195
3 244 192 195
3 252 253 254
3 251 252 254
3 253 255 256
3 254 253 256
3 255 257 258
3 256 255 258
3 257 259 260
3 258 257 260
3 259 198 197
3 259 197 260
3 260 197 261
3 200 262 197
3 197 262 261
3 248 202 246
3 248 262 202
3 262 200 202
3 203 246 202
3 249 246 203
3 194 249 203
3 252 204 263
3 195 204 252
3 206 263 207
3 206 253 263
3 253 252 263
3 209 253 206
3 255 253 209
3 211 255 209
3 257 255 211
3 212 257 211
3 259 257 212
3 198 259 212
3 204 213 263
3 207 263 213
3 264 265 266
3 264 267 268
3 266 267 264
3 268 269 270
3 267 269 268
3 270 271 272
3 269 271 270
3 271 273 272
3 274 275 276
3 265 274 276
3 264 274 265
3 264 215 274
3 264 216 215
3 217 216 264
3 268 217 264
3 219 217 268
3 270 219 268
3 221 219 270
3 272 221 270
3 223 277 278
3 221 277 223
3 221 273 277
3 221 272 273
3 277 279 278
3 280 281 282
3 275 280 282
3 274 280 275
3 274 225 280
3 274 226 225
3 215 226 274
3 223 278 227
3 278 229 227
3 278 279 229
3 279 283 229
3 232 231 284
3 280 285 281
3 280 232 285
3 280 233 232
3 284 285 232
3 225 233 280
3 229 283 235
3 283 286 235
3 284 287 288
3 284 231 287
3 231 236 287
3 285 284 288
3 235 286 237
3 286 289 237
3 239 238 290
3 239 290 291
3 239 291 236
3 236 291 287
3 292 293 294
3 292 289 293
3 292 240 289
3 240 237 289
3 290 241 295
3 238 241 290
3 296 291 290
3 295 296 290
3 297 298 299
3 294 298 297
3 292 294 297
3 292 297 243
3 292 243 242
3 240 292 242
3 245 244 300
3 245 295 241
3 245 300 295
3 300 301 295
3 302 296 295
3 302 295 303
3 303 295 301
3 303 304 305
3 302 303 305
3 304 306 307
3 305 304 307
3 306 308 309
3 307 306 309
3 308 310 311
3 309 308 311
3 310 248 247
3 310 247 311
3 311 247 312
3 299 250 297
3 299 312 250
3 312 247 250
3 243 297 250
3 244 251 300
3 254 300 251
3 301 300 254
3 256 301 254
3 303 301 256
3 258 303 256
3 304 303 258
3 260 304 258
3 306 304 260
3 261 306 260
3 308 306 261
3 262 308 261
3 310 308 262
3 248 310 262
3 313 314 315
3 313 316 317
3 315 316 313
3 316 318 317
3 319 320 321
3 314 319 321
3 314 313 319
3 313 322 319
3 317 323 313
3 323 322 313
3 324 317 318
3 324 325 317
3 325 323 317
3 325 326 327
3 324 326 325
3 326 328 327
3 329 330 331
3 320 329 331
3 319 329 320
3 319 265 329
3 319 266 265
3 267 266 319
3 322 267 319
3 269 267 322
3 323 269 322
3 271 269 323
3 325 271 323
3 273 271 325
3 273 325 332
3 332 325 327
3 333 327 328
3 332 327 333
3 334 335 336
3 330 334 336
3 329 334 330
3 329 275 334
3 329 276 275
3 265 276 329
3 273 332 277
3 332 279 277
3 332 333 279
3 333 337 279
3 338 281 339
3 338 335 281
3 282 281 334
3 334 281 335
3 282 334 275
3 339 340 338
3 279 337 283
3 337 341 283
3 339 342 343
3 339 281 342
3 281 285 342
3 340 339 343
3 283 341 286
3 341 344 286
3 288 287 345
3 288 345 346
3 288 346 285
3 285 346 342
3 347 348 349
3 347 344 348
3 347 289 344
3 289 286 344
3 345 291 350
3 287 291 345
3 351 346 345
3 351 345 352
3 352 345 350
3 352 353 354
3 351 352 354
3 353 355 356
3 354 353 356
3 355 357 358
3 356 355 358
3 357 359 360
3 358 357 360
3 359 361 362
3 360 359 362
3 349 362 361
3 347 349 361
3 347 361 294
3 347 294 293
3 289 347 293
3 350 296 363
3 291 296 350
3 352 350 364
3 364 350 363
3 353 352 365
3 365 352 364
3 355 353 366
3 366 353 365
3 357 355 367
3 367 355 366
3 359 357 368
3 368 357 367
3 298 368 299
3 298 361 368
3 361 359 368
3 294 361 298
3 296 302 363
3 305 363 302
3 364 363 305
3 307 364 305
3 365 364 307
3 309 365 307
3 366 365 309
3 311 366 309
3 367 366 311
3 312 367 311
3 368 367 312
3 299 368 312
3 369 370 371
3 369 372 373
3 371 372 369
3 373 374 375
3 372 374 373
3 374 376 375
3 377 378 379
3 377 380 381
3 379 380 377
3 370 381 380
3 369 381 370
3 369 314 381
3 369 315 314
3 316 315 369
3 373 316 369
3 318 316 373
3 318 373 382
3 382 373 375
3 383 375 376
3 383 384 375
3 384 382 375
3 383 385 384
3 386 387 388
3 378 386 388
3 378 377 386
3 377 389 386
3 321 320 389
3 321 389 381
3 381 389 377
3 314 321 381
3 318 382 324
3 326 324 382
3 384 326 382
3 384 328 326
3 384 385 328
3 385 390 328
3 391 387 386
3 392 387 391
3 331 330 391
3 331 391 389
3 389 391 386
3 320 331 389
3 328 390 333
3 390 393 333
3 394 335 395
3 394 392 335
3 336 335 391
3 391 335 392
3 336 391 330
3 395 396 394
3 333 393 337
3 393 397 337
3 335 338 395
3 340 398 399
3 338 340 399
3 338 399 396
3 338 396 395
3 399 398 400
3 337 397 341
3 397 401 341
3 343 342 402
3 343 398 340
3 343 402 398
3 402 403 398
3 404 400 398
3 403 404 398
3 405 406 407
3 405 401 406
3 405 344 401
3 344 341 401
3 402 346 408
3 342 346 402
3 403 402 409
3 409 402 408
3 410 404 403
3 410 403 411
3 411 403 409
3 411 412 413
3 410 411 413
3 412 414 415
3 413 412 415
3 414 416 417
3 415 414 417
3 407 417 416
3 405 407 416
3 405 416 349
3 405 349 348
3 344 405 348
3 346 351 408
3 354 408 351
3 409 408 354
3 356 409 354
3 411 409 356
3 358 411 356
3 412 411 358
3 360 412 358
3 414 412 360
3 362 414 360
3 416 414 362
3 349 416 362
3 418 419 420
3 418 421 422
3 420 421 418
3 422 423 424
3 421 423 422
3 424 425 426
3 423 425 424
3 425 427 426
3 428 429 430
3 419 428 430
3 419 418 428
3 418 431 428
3 371 370 431
3 371 431 422
3 422 431 418
3 372 371 422
3 424 372 422
3 374 372 424
3 426 374 424
3 376 432 433
3 374 432 376
3 374 427 432
3 374 426 427
3 432 434 433
3 435 436 437
3 429 435 437
3 428 435 429
3 428 378 435
3 428 379 378
3 380 379 428
3 431 380 428
3 370 380 431
3 376 433 383
3 433 385 383
3 433 434 385
3 434 438 385
3 388 436 435
3 388 387 436
3 387 439 436
3 378 388 435
3 385 438 390
3 438 440 390
3 441 392 442
3 441 439 392
3 439 387 392
3 442 443 444
3 441 442 444
3 444 443 445
3 390 440 393
3 440 446 393
3 392 394 442
3 396 442 394
3 396 447 442
3 447 443 442
3 448 445 443
3 447 448 443
3 449 450 451
3 449 446 450
3 449 397 446
3 397 393 446
3 396 399 447
3 400 452 453
3 399 400 453
3 399 453 448
3 399 448 447
3 452 454 455
3 453 452 455
3 455 454 456
3 457 458 459
3 451 458 457
3 451 457 449
3 449 457 460
3 397 460 401
3 449 460 397
3 452 404 461
3 400 404 452
3 454 452 462
3 462 452 461
3 463 456 454
3 463 454 464
3 464 454 462
3 459 463 464
3 459 464 457
3 457 464 465
3 406 465 407
3 406 460 465
3 460 457 465
3 401 460 406
3 404 410 461
3 413 461 410
3 462 461 413
3 415 462 413
3 464 462 415
3 417 464 415
3 465 464 417
3 407 465 417
3 466 467 468
3 466 469 470
3 468 469 466
3 470 471 472
3 469 471 470
3 472 473 474
3 471 473 472
3 473 475 474
3 476 477 478
3 476 479 480
3 478 479 476
3 467 480 479
3 466 480 467
3 466 419 480
3 466 420 419
3 421 420 466
3 470 421 466
3 423 421 470
3 472 423 470
3 425 423 472
3 474 425 472
3 474 427 425
3 474 475 427
3 475 481 427
3 482 483 484
3 477 482 484
3 477 476 482
3 476 485 482
3 430 429 485
3 430 485 480
3 480 485 476
3 419 430 480
3 427 481 486
3 432 427 486
3 486 434 432
3 487 434 486
3 482 488 483
3 437 436 489
3 437 489 482
3 437 482 485
3 482 489 488
3 429 437 485
3 490 491 492
3 490 487 491
3 490 438 487
3 438 434 487
3 493 439 494
3 493 489 439
3 489 436 439
3 494 495 496
3 493 494 496
3 495 497 498
3 496 495 498
3 498 497 499
3 500 490 492
3 501 500 492
3 438 500 440
3 490 500 438
3 439 441 494
3 444 494 441
3 495 494 444
3 445 495 444
3 445 502 495
3 502 497 495
3 503 499 497
3 503 497 504
3 504 497 502
3 504 505 506
3 503 504 506
3 505 507 508
3 506 505 508
3 501 508 507
3 501 507 500
3 500 507 509
3 440 509 446
3 500 509 440
3 502 448 510
3 445 448 502
3 504 502 511
3 511 502 510
3 505 504 512
3 512 504 511
3 507 505 513
3 513 505 512
3 450 513 451
3 450 509 513
3 509 507 513
3 446 509 450
3 448 453 510
3 455 510 453
3 511 510 455
3 456 511 455
3 456 514 511
3 514 512 511
3 458 514 459
3 458 513 514
3 513 512 514
3 451 513 458
3 456 463 514
3 459 514 463
3 515 516 517
3 515 518 519
3 517 518 515
3 519 520 521
3 518 520 519
3 521 522 523
3 520 522 521
3 522 524 523
3 525 526 527
3 516 525 527
3 516 515 525
3 515 528 525
3 468 467 528
3 468 528 519
3 519 528 515
3 469 468 519
3 521 469 519
3 471 469 521
3 523 471 521
3 523 524 529
3 523 529 471
3 471 529 473
3 529 475 473
3 530 475 529
3 531 532 533
3 526 531 533
3 525 531 526
3 525 477 531
3 525 478 477
3 479 478 525
3 528 479 525
3 467 479 528
3 475 530 481
3 530 534 481
3 484 532 531
3 484 483 532
3 483 535 532
3 477 484 531
3 536 486 481
3 536 481 537
3 537 481 534
3 486 536 487
3 483 538 535
3 488 538 483
3 489 539 540
3 489 540 488
3 488 540 538
3 539 541 542
3 540 539 542
3 541 543 544
3 542 541 544
3 543 545 546
3 544 543 546
3 545 547 548
3 546 545 548
3 547 549 550
3 548 547 550
3 537 550 549
3 536 537 549
3 536 549 492
3 536 492 491
3 487 536 491
3 489 493 539
3 496 539 493
3 541 539 496
3 498 541 496
3 543 541 498
3 499 543 498
3 499 551 543
3 551 545 543
3 547 545 552
3 552 545 551
3 549 547 553
3 553 547 552
3 492 553 501
3 549 553 492
3 499 503 551
3 506 551 503
3 552 551 506
3 508 552 506
3 553 552 508
3 501 553 508
3 554 555 556
3 554 557 558
3 556 557 554
3 558 559 560
3 557 559 558
3 559 561 560
3 562 563 564
3 555 562 564
3 554 562 555
3 554 516 562
3 554 517 516
3 518 517 554
3 558 518 554
3 520 518 558
3 560 520 558
3 560 561 565
3 560 565 520
3 520 565 522
3 565 524 522
3 566 524 565
3 567 568 569
3 567 570 571
3 569 570 567
3 563 571 570
3 562 571 563
3 562 526 571
3 562 527 526
3 516 527 562
3 572 529 524
3 572 524 573
3 573 524 566
3 529 572 530
3 567 574 568
3 571 532 567
3 571 533 532
3 567 532 574
3 575 576 532
3 574 532 576
3 575 577 578
3 575 578 576
3 571 526 533
3 578 577 579
3 580 572 573
3 581 580 573
3 530 580 534
3 572 580 530
3 575 535 582
3 532 535 575
3 577 575 583
3 583 575 582
3 584 579 577
3 584 577 585
3 585 577 583
3 585 586 587
3 584 585 587
3 586 588 589
3 587 586 589
3 588 590 591
3 589 588 591
3 581 591 590
3 581 590 580
3 580 590 592
3 534 592 537
3 580 592 534
3 535 538 582
3 540 582 538
3 583 582 540
3 542 583 540
3 585 583 542
3 544 585 542
3 586 585 544
3 546 586 544
3 588 586 546
3 548 588 546
3 590 588 548
3 550 590 548
3 592 590 550
3 537 592 550
3 593 594 595
3 593 596 597
3 595 596 593
3 596 598 597
3 599 600 601
3 594 599 601
3 593 599 594
3 593 555 599
3 593 556 555
3 557 556 593
3 597 557 593
3 597 598 602
3 597 602 557
3 557 602 559
3 602 561 559
3 603 561 602
3 604 605 606
3 604 607 608
3 606 607 604
3 600 608 607
3 599 608 600
3 599 563 608
3 599 564 563
3 555 564 599
3 609 565 561
3 609 561 610
3 610 561 603
3 565 609 566
3 611 568 612
3 611 605 568
3 569 568 604
3 604 568 605
3 613 614 611
3 613 611 612
3 608 570 604
3 604 570 569
3 570 608 563
3 613 615 614
3 616 617 618
3 610 617 616
3 610 616 609
3 609 616 619
3 566 619 573
3 609 619 566
3 568 574 612
3 576 612 574
3 613 612 576
3 613 620 615
3 613 576 620
3 576 578 620
3 579 621 622
3 579 622 578
3 578 622 620
3 621 623 624
3 622 621 624
3 618 624 623
3 618 623 616
3 616 623 625
3 619 616 626
3 626 616 625
3 573 626 581
3 619 626 573
3 579 584 621
3 587 621 584
3 623 621 587
3 589 623 587
3 625 623 589
3 591 625 589
3 626 625 591
3 581 626 591
3 627 628 629
3 627 595 594
3 627 629 595
3 629 630 595
3 596 595 631
3 595 630 631
3 631 598 596
3 632 598 631
3 633 634 635
3 633 636 637
3 635 636 633
3 628 637 636
3 627 637 628
3 627 600 637
3 627 601 600
3 594 601 627
3 598 632 638
3 602 598 638
3 638 603 602
3 639 603 638
3 640 641 642
3 634 640 642
3 633 640 634
3 633 605 640
3 633 606 605
3 607 606 633
3 637 607 633
3 600 607 637
3 643 644 645
3 643 639 644
3 643 610 639
3 610 603 639
3 640 646 641
3 605 646 640
3 605 611 646
3 611 647 646
3 614 648 611
3 611 648 647
3 615 649 650
3 615 650 614
3 614 650 648
3 649 651 652
3 650 649 652
3 651 653 654
3 652 651 654
3 645 654 653
3 643 645 653
3 643 653 618
3 643 618 617
3 610 643 617
3 615 620 649
3 622 649 620
3 651 649 622
3 624 651 622
3 653 651 624
3 618 653 624
3 655 656 657
3 655 658 659
3 657 658 655
3 659 629 628
3 659 658 629
3 658 660 629
3 630 629 661
3 629 660 661
3 631 630 662
3 630 661 662
3 662 632 631
3 663 632 662
3 664 665 666
3 664 667 668
3 666 667 664
3 656 668 667
3 655 668 656
3 655 634 668
3 655 635 634
3 636 635 655
3 659 636 655
3 628 636 659
3 669 638 632
3 669 632 670
3 670 632 663
3 638 669 639
3 664 671 665
3 668 641 664
3 668 642 641
3 664 641 671
3 672 673 641
3 671 641 673
3 672 674 675
3 672 675 673
3 668 634 642
3 674 676 677
3 675 674 677
3 676 678 679
3 677 676 679
3 678 680 681
3 679 678 681
3 680 682 683
3 681 680 683
3 670 683 682
3 669 670 682
3 669 682 645
3 669 645 644
3 639 669 644
3 641 646 672
3 647 672 646
3 674 672 647
3 648 674 647
3 676 674 648
3 650 676 648
3 678 676 650
3 652 678 650
3 680 678 652
3 654 680 652
3 682 680 654
3 645 682 654
3 684 685 686
3 684 687 688
3 686 687 684
3 688 657 656
3 688 687 657
3 687 689 657
3 658 657 690
3 657 689 690
3 660 658 691
3 658 690 691
3 661 660 692
3 660 691 692
3 693 692 694
3 693 662 692
3 662 661 692
3 662 693 663
3 695 696 697
3 685 695 697
3 684 695 685
3 684 665 695
3 684 666 665
3 667 666 684
3 688 667 684
3 656 667 688
3 698 699 700
3 694 699 698
3 694 698 693
3 693 698 701
3 663 701 670
3 693 701 663
3 695 702 696
3 665 702 695
3 665 671 702
3 671 703 702
3 673 704 671
3 671 704 703
3 675 705 673
3 673 705 704
3 677 706 675
3 675 706 705
3 679 707 677
3 677 707 706
3 700 681 698
3 700 707 681
3 707 679 681
3 683 698 681
3 701 698 683
3 670 701 683
3 686 708 709
3 685 708 686
3 687 686 710
3 686 709 710
3 689 687 711
3 687 710 711
3 690 689 712
3 689 711 712
3 713 712 714
3 713 691 712
3 691 690 712
3 691 715 692
3 713 715 691
3 692 715 694
3 697 696 716
3 697 716 717
3 697 717 685
3 685 717 708
3 718 713 714
3 719 718 714
3 699 718 700
3 699 715 718
3 715 713 718
3 694 715 699
3 696 702 716
3 716 720 717
3 716 702 720
3 702 703 720
3 704 721 703
3 703 721 720
3 705 722 704
3 704 722 721
3 706 723 705
3 705 723 722
3 719 707 718
3 719 723 707
3 723 706 707
3 700 718 707
3 709 708 724
3 709 725 710
3 724 725 709
3 710 726 711
3 725 726 710
3 711 727 712
3 726 727 711
3 712 727 714
3 724 717 728
3 708 717 724
3 725 724 729
3 729 724 728
3 726 725 730
3 730 725 729
3 727 726 731
3 731 726 730
3 714 731 719
3 727 731 714
3 717 720 728
3 721 728 720
3 729 728 721
3 722 729 721
3 730 729 722
3 723 730 722
3 731 730 723
3 719 731 723
