# vtk DataFile Version 3.0
this file was written using fslvtkio
ASCII
DATASET POLYDATA
POINTS 642 float
104.973 139.216 101.719
98.5032 139.661 100.811
100.789 135.134 100.098
106.36 134.631 100.586
104.775 137.532 104.013
104.755 136.77 98.5289
101.513 136.707 98.2154
101.275 137.691 103.037
102.854 141.945 104.541
103.947 133.86 101.356
103.059 132.166 97.2273
102.238 141.46 100.061
101.888 140 103.531
104.177 139.929 104.768
102.796 137.91 103.944
102.513 136.045 102.155
104.324 135.54 102.567
101.391 139.363 98.9449
103.105 136.54 98.146
103.286 138.766 99.5711
102.063 134.345 96.3766
104.404 134.561 97.2905
105.901 135.934 102.083
105.952 138.863 103.259
105.965 137.094 101.042
105.835 135.537 99.1372
104.842 137.989 100.165
99.9908 138.879 102.119
100.497 136.613 101.93
99.2819 137.124 100.57
99.4756 138.611 98.9621
100.872 135.61 98.4962
104.027 140.976 101.08
104.729 141.229 103.24
102.442 143.265 102.052
99.7667 141.736 100.13
99.8868 141.627 102.729
105.832 132.687 99.0623
103.617 132.016 99.9519
105.993 132.943 102.192
101.192 132.773 98.4231
101.953 133.949 100.85
103.041 140.172 104.297
103.452 139.106 104.172
102.549 139.171 103.687
103.693 137.714 104.183
104.459 138.773 104.343
103.639 141.028 105.058
102.211 140.952 104.178
101.644 138.888 103.11
102.021 137.906 103.425
102.687 137.064 103.003
103.513 136.905 103.24
103.469 135.885 102.339
104.523 136.748 103.106
101.748 137.075 102.763
102.966 134.775 101.983
104.207 134.618 101.878
102.328 137.781 98.7145
103.078 137.593 98.9643
102.473 139.163 99.081
104.001 137.629 99.1424
103.982 136.748 98.2654
102.229 136.482 98.1968
101.402 137.881 98.7194
101.77 140.497 99.5042
102.829 140.201 99.8475
103.382 134.354 96.2089
103.822 135.696 97.3492
102.785 135.614 97.0889
104.551 135.811 98.0504
103.976 132.968 96.6435
102.256 132.547 95.9004
101.884 135.657 97.3737
105.747 137.51 102.653
105.692 137.862 102.075
105.887 136.466 101.643
105.487 138.215 101.403
105.553 139.131 102.376
105.672 138.251 103.89
105.384 137.003 102.847
106.132 135.167 101.309
106.167 135.837 100.712
106.03 136.359 100.063
105.61 137.54 100.456
105.83 137.004 99.4839
105.061 138.759 100.939
106.142 134.947 99.8563
105.431 136.272 98.7039
104.907 137.47 99.246
99.9057 137.535 102.255
99.5624 136.818 101.505
99.2057 137.849 101.522
100.205 136.405 100.436
100.531 135.824 101.114
100.73 137.162 102.695
100.63 138.178 102.718
99.1006 139.332 101.558
98.7185 138.309 100.576
99.2104 137.764 99.6606
100.164 136.675 99.5779
100.284 137.183 98.9563
100.802 135.256 99.3037
98.7457 139.229 99.8346
100.719 137.668 98.8178
101.079 136.237 98.0436
104.526 141.528 102.111
103.978 142.593 102.975
103.61 142.512 101.491
102.601 142.738 103.661
104.119 141.868 104.145
105.05 140.362 102.367
104.677 140.163 101.467
103.277 141.523 100.466
102.237 142.484 100.762
100.777 142.966 100.93
100.78 142.993 102.717
98.9088 142.526 101.434
101.34 142.107 103.78
101.201 142.006 99.8517
98.4822 140.856 100.322
99.0167 140.878 101.61
104.958 131.707 99.5374
105.01 132.068 101.051
106.351 132.321 100.659
104.868 133.336 101.546
103.984 132.894 100.755
103.167 131.792 98.5213
104.53 132.297 98.0565
106.324 133.675 100.013
106.551 133.749 101.262
101.834 133.355 99.7271
102.969 132.927 100.073
102.163 132.286 99.1927
102.965 133.742 101.088
101.045 134.373 100.502
100.985 133.991 99.3318
101.646 132.165 97.4416
105.098 139.439 103.971
104.907 140.826 104.427
105.17 139.93 103.271
104.136 139.146 100.716
103.639 139.839 100.277
104.066 138.458 99.9074
105.258 134.358 101.958
105.272 135.647 102.279
106 134.564 101.847
105.957 134.079 98.8199
105.327 134.987 98.2025
105.245 133.423 97.7439
100.988 140.759 103.24
100.89 139.645 102.81
99.9734 140.278 102.299
99.3324 140.26 99.3611
100.368 139.278 98.9825
100.548 140.728 99.4186
101.217 135.191 101.425
101.551 136.343 101.988
102.006 134.875 101.707
101.227 133.107 96.892
101.446 134.739 97.4173
101.039 134.077 98.2431
103.28 139.635 104.23
103.074 139.172 103.849
102.747 139.638 103.971
102.717 138.557 103.773
103.14 138.49 103.97
103.762 139.514 104.504
103.523 140.086 104.679
102.408 140.041 104.019
102.211 139.619 103.687
103.555 138.341 104.175
103.966 138.976 104.295
103.981 138.179 104.343
104.333 139.402 104.408
103.255 137.816 104.064
104.212 137.585 104.166
104.578 138.168 104.362
103.231 140.47 104.802
102.604 140.436 104.39
102.916 140.983 104.678
101.989 140.378 103.901
103.918 140.395 105.114
103.291 141.596 104.727
102.57 141.565 104.343
102.061 139.078 103.44
102.301 138.47 103.539
101.816 138.358 103.306
102.42 137.96 103.699
101.825 139.573 103.257
101.357 138.127 103.151
101.668 137.783 103.173
103.105 137.03 103.153
103.579 136.434 102.632
103.225 136.606 102.459
103.806 135.643 102.541
103.889 136.244 102.816
103.05 137.319 103.789
102.649 137.432 103.584
102.702 136.61 102.432
103.021 135.956 102.274
104.031 136.801 103.122
103.523 137.223 103.788
104.073 137.153 103.713
104.415 136.222 102.756
104.66 137.134 103.465
102.257 137.43 103.357
102.175 137.035 102.927
101.813 137.362 103.202
102.217 136.71 102.341
101.505 137.33 102.949
103.219 135.271 102.168
103.768 135.187 102.173
103.538 134.716 101.973
104.273 135 102.223
102.723 135.379 102.096
103.461 134.253 101.648
104.064 134.198 101.605
102.688 137.629 98.8287
102.76 138.307 99.0004
102.378 138.522 98.8246
102.918 138.995 99.2759
103.138 138.162 99.2531
103.036 136.945 98.6195
102.649 136.9 98.6477
101.893 138.651 98.8046
101.968 139.306 98.9608
103.54 137.606 99.059
103.521 137.095 98.5819
103.964 137.205 98.689
103.52 136.631 98.2216
103.494 138.03 99.5049
104.364 137.229 98.7738
104.329 136.685 98.4265
102.244 136.931 98.6538
101.869 137.857 98.7337
101.903 137.058 98.582
101.375 138.72 98.7415
102.65 136.496 98.2047
101.872 136.522 98.2226
101.46 137.247 98.4858
102.125 139.817 99.3575
102.61 139.629 99.4765
102.286 140.322 99.6576
103.073 139.442 99.673
101.615 139.962 99.2424
101.98 141.018 99.7867
102.502 140.804 99.9809
103.636 135.094 96.7095
103.351 135.61 97.054
103.072 135.034 96.4903
102.987 136.087 97.6625
103.462 136.118 97.7152
104.114 135.174 97.1898
103.832 134.434 96.8103
102.653 134.292 96.1793
102.409 134.974 96.6392
103.827 136.218 97.931
104.217 135.753 97.6522
104.257 136.263 98.0678
104.508 135.266 97.6458
104.719 136.341 98.277
103.675 133.579 96.2639
102.906 133.421 95.8322
103.179 132.656 96.087
102.047 133.348 95.9764
104.283 133.718 96.8653
103.535 132.41 96.7402
102.617 132.219 96.4386
102.312 135.629 97.0278
102.512 136.115 97.6694
102.066 136.179 97.6721
101.999 135.033 96.8189
101.692 136.282 97.7646
105.687 137.727 102.408
105.851 137.218 101.854
105.83 136.997 102.167
105.937 136.791 101.351
105.862 137.452 101.516
105.905 138.444 102.654
105.814 138.239 103.037
105.792 136.755 102.363
106.001 136.245 101.888
105.554 138.002 101.745
105.741 138.589 102.225
105.458 138.677 101.88
105.863 139.028 102.755
105.673 137.619 101.25
105.309 138.808 101.531
105.234 139.198 102.027
105.709 137.899 103.25
105.552 137.225 102.741
105.487 137.56 103.395
105.635 136.532 102.504
105.942 138.591 103.706
105.248 137.866 104.068
105.136 137.231 103.366
105.994 135.806 101.422
106.009 136.096 101.172
106.152 135.531 101.038
105.975 136.377 100.844
105.912 135.479 101.631
106.318 134.849 100.941
106.25 135.134 100.599
106.026 137.023 100.221
105.786 137.303 99.9748
105.998 136.733 99.7685
105.465 137.602 99.7559
105.228 137.733 100.287
105.879 137.308 100.742
106.036 136.727 100.515
105.898 135.94 99.6307
105.906 136.333 99.3099
105.215 138.062 100.693
105.431 137.822 100.962
105.356 138.488 101.099
104.978 138.399 100.545
104.997 138.993 101.306
106.118 136.096 100.373
106.076 135.695 99.9312
106.18 135.408 100.258
105.939 135.218 99.4894
106.31 134.741 100.202
105.772 136.682 99.0366
105.501 137.331 99.2984
105.377 136.913 98.9008
104.859 137.689 99.7437
105.643 135.929 98.8891
105.05 136.522 98.5785
104.801 137.117 98.8803
99.6202 137.097 101.928
99.3868 137.295 101.548
99.5899 137.679 101.923
99.1453 137.455 101.094
99.3561 136.945 101.097
100.016 136.689 101.772
100.006 137.034 102.256
99.9472 138.095 102.184
99.5127 138.34 101.864
99.8854 136.661 100.937
100.126 136.382 101.283
100.293 136.133 100.766
100.548 136.203 101.506
99.7429 136.82 100.532
100.522 135.746 100.25
100.613 135.463 100.593
100.254 137.329 102.543
100.278 137.815 102.441
100.576 137.588 102.756
100.408 138.57 102.389
100.561 136.983 102.378
101.015 137.404 102.89
100.935 137.864 102.955
99.1938 138.585 101.47
98.894 138.013 101.087
98.8195 138.755 101.13
98.911 137.658 100.595
99.5859 139.14 101.814
98.7214 139.485 101.207
98.5908 138.975 100.68
99.7297 137.237 99.6104
100.237 136.938 99.242
99.7217 137.512 99.26
100.608 136.393 98.7166
100.525 136.173 99.0437
99.8118 136.998 100.024
99.2973 137.399 100.065
99.2958 138.18 99.244
99.8725 137.867 98.9839
100.539 136.042 99.4353
100.241 136.562 99.9765
100.56 135.921 99.8629
100.835 135.376 98.8756
100.807 135.194 99.7204
98.7921 137.971 100.104
98.8144 138.411 99.6767
98.6463 138.73 100.177
99.026 138.935 99.3227
98.5046 139.471 100.317
100.487 137.486 98.8301
100.702 136.682 98.5472
100.925 137.013 98.4609
100.935 135.887 98.2098
100.074 138.264 98.8392
101.13 137.22 98.4669
101.293 136.513 98.0662
104.337 141.986 102.539
103.804 142.642 102.222
104.159 142.051 101.843
103.138 143.065 101.764
103.242 143.033 102.534
104.412 141.835 103.2
104.573 141.433 102.734
104.386 141.373 101.541
103.863 141.774 101.312
103.418 142.823 103.424
104.037 142.22 103.753
103.5 142.455 104.087
104.442 141.523 103.719
102.49 143.033 102.87
102.717 142.457 104.249
103.545 142.017 104.452
104.814 140.965 102.265
104.608 140.853 101.778
104.783 140.273 101.947
104.405 140.596 101.317
105.107 140.999 102.779
104.996 139.726 102.022
104.81 139.637 101.602
103.371 141.993 100.979
103.004 142.679 101.084
102.88 142.076 100.603
102.334 143.055 101.305
103.684 141.264 100.775
102.753 141.536 100.258
102.266 142.007 100.286
100.618 143.256 101.753
99.6168 143.085 102.125
99.8023 142.952 101.111
99.2431 142.111 102.196
100 142.477 102.893
101.62 143.164 102.345
101.552 143.239 101.548
100.171 142.414 100.432
99.2853 142.275 100.577
101.007 142.624 103.334
101.764 142.83 103.163
101.852 142.596 103.827
100.525 141.94 103.343
102.072 142.086 104.241
101.535 142.789 100.857
100.933 142.402 100.359
101.655 142.262 100.31
100.517 141.989 99.9378
101.76 141.739 99.9579
98.6864 141.713 100.846
98.9065 141.634 101.606
98.6391 141.009 101.03
99.4034 141.325 102.111
98.9678 141.455 100.074
98.4409 140.195 100.61
98.698 140.28 101.203
105.006 131.759 100.355
105.701 131.923 100.987
105.705 131.967 100.121
106.284 132.431 101.537
105.472 132.355 101.617
104.317 131.969 100.456
104.239 131.655 99.7812
105.543 132.06 99.2689
106.137 132.421 99.782
104.935 132.664 101.445
104.382 132.449 100.889
104.403 132.987 101.215
103.843 132.453 100.383
105.294 133.036 101.838
104.358 133.601 101.424
103.957 133.412 101.074
104.078 131.692 99.0215
104.787 131.953 98.7395
103.896 131.982 98.3064
105.269 132.457 98.5415
103.369 131.733 99.2802
103.078 131.99 97.8214
103.72 132.281 97.6616
106.462 133.079 100.276
106.595 133.132 101.064
106.418 133.643 100.638
106.58 133.298 101.818
106.2 133.092 99.5696
106.458 134.146 100.313
106.514 134.162 100.855
102.472 133.111 99.9094
102.609 132.524 99.6982
102.019 132.74 99.4586
102.852 132.088 99.5351
103.243 132.42 99.9595
102.497 133.402 100.395
102 133.687 100.255
101.486 133.023 99.1725
101.68 132.438 98.766
103.512 132.863 100.305
103.012 133.22 100.603
103.54 133.293 100.794
102.41 133.804 101.012
103.448 133.756 101.257
101.515 133.94 100.094
101.268 133.643 99.5645
101.028 134.174 99.9375
101.136 133.442 98.9332
101.458 134.139 100.717
100.857 134.787 100.303
100.847 134.587 99.752
101.775 132.15 98.4053
102.479 131.859 98.8497
102.221 131.837 97.9823
101.352 132.376 97.8836
102.277 131.953 97.1922
105.103 140.146 104.252
105.264 140.503 103.821
105.12 139.595 103.607
105.268 140.811 103.309
104.876 140.991 103.782
104.616 140.364 104.809
104.723 139.746 104.406
105.626 139.13 103.698
105.65 139.347 103.213
104.534 141.317 104.218
104.374 141.049 105.021
103.988 141.611 104.654
104.895 139.239 104.056
105.496 138.881 104.151
105.061 138.485 104.363
105.404 139.501 102.822
105.208 140.258 102.818
105.155 139.61 102.424
103.866 139.483 100.524
103.696 138.98 100.238
104.045 138.77 100.382
103.686 138.643 99.8029
103.408 139.217 99.9778
103.826 140.467 100.653
104.118 140.085 100.889
104.49 138.615 100.495
104.412 138.218 100.056
103.309 140.102 100.053
103.495 140.779 100.378
103.04 140.839 100.181
104.469 139.73 101.03
104.655 138.995 100.816
104.718 139.343 101.218
104.399 137.841 99.674
103.868 137.922 99.6408
104.427 137.545 99.2067
105.256 134.963 102.185
105.676 135.073 102.154
105.658 134.341 102.085
105.836 135.225 101.833
105.598 135.761 102.136
104.775 135.566 102.418
104.759 134.932 102.278
105.625 133.696 102.057
106.177 133.831 102.042
105.29 136.336 102.638
104.923 136.185 102.7
105.037 136.821 103.007
104.794 134.449 101.874
105.109 133.739 101.848
104.618 134.006 101.643
106.299 134.158 101.67
106.04 134.897 101.522
106.334 134.521 101.293
105.686 134.507 98.3989
105.379 134.175 97.8647
105.612 133.717 98.2999
104.832 133.922 97.3974
104.823 134.709 97.7939
105.589 135.3 98.6843
105.879 134.819 98.9248
105.97 133.334 98.8787
105.597 133.004 98.3185
104.977 135.476 98.0532
105.384 135.715 98.4697
105.043 135.993 98.3661
106.154 134.463 99.3216
106.174 133.753 99.3685
106.298 134.251 99.8603
105.026 132.745 97.7949
104.618 133.187 97.2461
104.249 132.662 97.37
100.948 140.174 102.976
100.422 139.937 102.558
100.411 140.496 102.8
100.039 139.639 102.175
100.494 139.395 102.381
101.402 139.879 103.149
101.459 140.355 103.377
100.439 141.166 103.075
99.9636 140.956 102.516
100.837 138.941 102.643
101.335 139.321 102.921
101.135 138.542 102.902
101.52 140.843 103.749
101.053 141.435 103.545
101.738 141.515 104.019
99.429 140.575 102.071
99.5322 139.829 101.944
98.9957 140.054 101.642
99.7909 139.878 99.0717
100.422 140.056 99.1223
99.9498 140.576 99.354
100.993 140.042 99.1874
100.836 139.357 98.9493
99.8633 139.033 98.9409
99.2814 139.437 99.0828
99.5467 140.96 99.7776
100.194 141.196 99.7662
100.891 138.701 98.7151
100.422 138.521 98.7356
101.033 137.81 98.7128
98.9496 139.749 99.5809
98.8844 140.578 99.7796
98.5345 140.076 100.003
100.859 141.291 99.6625
101.176 140.584 99.4546
101.473 141.197 99.66
101.354 135.795 101.721
101.818 135.677 101.799
101.541 134.962 101.605
102.217 135.458 102.003
102.111 136.276 102.003
101.016 136.449 101.988
101 136.041 101.586
101.412 134.459 101.284
101.883 134.324 101.369
101.749 136.823 102.269
101.158 136.875 102.339
101.274 137.077 102.657
100.866 135.486 101.308
101.061 134.753 101.042
100.818 135.105 100.858
102.393 134.281 101.47
102.465 134.833 101.867
102.955 134.264 101.584
101.499 133.968 97.1209
101.21 134.365 97.8104
101.139 133.588 97.6033
101.082 134.886 98.3587
101.187 135.132 97.9908
101.746 134.465 96.9093
101.623 133.561 96.4595
101.109 132.838 97.6106
101.079 133.404 98.2616
101.356 135.487 97.7325
101.689 135.233 97.2874
101.495 135.904 97.6077
101.501 132.771 96.2526
101.285 132.482 97.0249
101.845 132.199 96.5323
101.029 133.994 98.7806
100.987 134.704 98.7846
100.897 134.628 99.2629
POLYGONS 1280  5120
3 164 162 163
3 163 44 164
3 162 43 163
3 164 42 162
3 166 165 163
3 163 43 166
3 165 44 163
3 166 14 165
3 168 167 162
3 162 42 168
3 167 43 162
3 168 13 167
3 170 169 164
3 164 44 170
3 169 42 164
3 170 12 169
3 173 171 172
3 172 46 173
3 171 43 172
3 173 45 171
3 167 174 172
3 172 43 167
3 174 46 172
3 167 13 174
3 175 166 171
3 171 45 175
3 166 43 171
3 175 14 166
3 177 176 173
3 173 46 177
3 176 45 173
3 177 4 176
3 180 178 179
3 179 48 180
3 178 42 179
3 180 47 178
3 169 181 179
3 179 42 169
3 181 48 179
3 169 12 181
3 182 168 178
3 178 47 182
3 168 42 178
3 182 13 168
3 184 183 180
3 180 48 184
3 183 47 180
3 184 8 183
3 187 185 186
3 186 50 187
3 185 44 186
3 187 49 185
3 165 188 186
3 186 44 165
3 188 50 186
3 165 14 188
3 189 170 185
3 185 49 189
3 170 44 185
3 189 12 170
3 191 190 187
3 187 50 191
3 190 49 187
3 191 7 190
3 194 192 193
3 193 53 194
3 192 52 193
3 194 51 192
3 196 195 193
3 193 52 196
3 195 53 193
3 196 16 195
3 198 197 192
3 192 51 198
3 197 52 192
3 198 14 197
3 200 199 194
3 194 53 200
3 199 51 194
3 200 15 199
3 203 201 202
3 202 45 203
3 201 52 202
3 203 54 201
3 197 175 202
3 202 52 197
3 175 45 202
3 197 14 175
3 204 196 201
3 201 54 204
3 196 52 201
3 204 16 196
3 176 205 203
3 203 45 176
3 205 54 203
3 176 4 205
3 208 206 207
3 207 55 208
3 206 51 207
3 208 50 206
3 199 209 207
3 207 51 199
3 209 55 207
3 199 15 209
3 188 198 206
3 206 50 188
3 198 51 206
3 188 14 198
3 210 191 208
3 208 55 210
3 191 50 208
3 210 7 191
3 213 211 212
3 212 57 213
3 211 53 212
3 213 56 211
3 195 214 212
3 212 53 195
3 214 57 212
3 195 16 214
3 215 200 211
3 211 56 215
3 200 53 211
3 215 15 200
3 217 216 213
3 213 57 217
3 216 56 213
3 217 9 216
3 220 218 219
3 219 60 220
3 218 59 219
3 220 58 218
3 222 221 219
3 219 59 222
3 221 60 219
3 222 19 221
3 224 223 218
3 218 58 224
3 223 59 218
3 224 18 223
3 226 225 220
3 220 60 226
3 225 58 220
3 226 17 225
3 229 227 228
3 228 62 229
3 227 59 228
3 229 61 227
3 223 230 228
3 228 59 223
3 230 62 228
3 223 18 230
3 231 222 227
3 227 61 231
3 222 59 227
3 231 19 222
3 233 232 229
3 229 62 233
3 232 61 229
3 233 5 232
3 236 234 235
3 235 64 236
3 234 58 235
3 236 63 234
3 225 237 235
3 235 58 225
3 237 64 235
3 225 17 237
3 238 224 234
3 234 63 238
3 224 58 234
3 238 18 224
3 240 239 236
3 236 64 240
3 239 63 236
3 240 6 239
3 243 241 242
3 242 66 243
3 241 60 242
3 243 65 241
3 221 244 242
3 242 60 221
3 244 66 242
3 221 19 244
3 245 226 241
3 241 65 245
3 226 60 241
3 245 17 226
3 247 246 243
3 243 66 247
3 246 65 243
3 247 11 246
3 250 248 249
3 249 69 250
3 248 68 249
3 250 67 248
3 252 251 249
3 249 68 252
3 251 69 249
3 252 18 251
3 254 253 248
3 248 67 254
3 253 68 248
3 254 21 253
3 256 255 250
3 250 69 256
3 255 67 250
3 256 20 255
3 259 257 258
3 258 70 259
3 257 68 258
3 259 62 257
3 253 260 258
3 258 68 253
3 260 70 258
3 253 21 260
3 230 252 257
3 257 62 230
3 252 68 257
3 230 18 252
3 261 233 259
3 259 70 261
3 233 62 259
3 261 5 233
3 264 262 263
3 263 72 264
3 262 67 263
3 264 71 262
3 255 265 263
3 263 67 255
3 265 72 263
3 255 20 265
3 266 254 262
3 262 71 266
3 254 67 262
3 266 21 254
3 268 267 264
3 264 72 268
3 267 71 264
3 268 10 267
3 271 269 270
3 270 63 271
3 269 69 270
3 271 73 269
3 251 238 270
3 270 69 251
3 238 63 270
3 251 18 238
3 272 256 269
3 269 73 272
3 256 69 269
3 272 20 256
3 239 273 271
3 271 63 239
3 273 73 271
3 239 6 273
3 276 274 275
3 275 76 276
3 274 75 275
3 276 74 274
3 278 277 275
3 275 75 278
3 277 76 275
3 278 24 277
3 280 279 274
3 274 74 280
3 279 75 274
3 280 23 279
3 282 281 276
3 276 76 282
3 281 74 276
3 282 22 281
3 285 283 284
3 284 78 285
3 283 75 284
3 285 77 283
3 279 286 284
3 284 75 279
3 286 78 284
3 279 23 286
3 287 278 283
3 283 77 287
3 278 75 283
3 287 24 278
3 289 288 285
3 285 78 289
3 288 77 285
3 289 0 288
3 292 290 291
3 291 80 292
3 290 74 291
3 292 79 290
3 281 293 291
3 291 74 281
3 293 80 291
3 281 22 293
3 294 280 290
3 290 79 294
3 280 74 290
3 294 23 280
3 296 295 292
3 292 80 296
3 295 79 292
3 296 4 295
3 299 297 298
3 298 82 299
3 297 76 298
3 299 81 297
3 277 300 298
3 298 76 277
3 300 82 298
3 277 24 300
3 301 282 297
3 297 81 301
3 282 76 297
3 301 22 282
3 303 302 299
3 299 82 303
3 302 81 299
3 303 3 302
3 306 304 305
3 305 85 306
3 304 84 305
3 306 83 304
3 308 307 305
3 305 84 308
3 307 85 305
3 308 26 307
3 310 309 304
3 304 83 310
3 309 84 304
3 310 24 309
3 312 311 306
3 306 85 312
3 311 83 306
3 312 25 311
3 315 313 314
3 314 77 315
3 313 84 314
3 315 86 313
3 309 287 314
3 314 84 309
3 287 77 314
3 309 24 287
3 316 308 313
3 313 86 316
3 308 84 313
3 316 26 308
3 288 317 315
3 315 77 288
3 317 86 315
3 288 0 317
3 320 318 319
3 319 87 320
3 318 83 319
3 320 82 318
3 311 321 319
3 319 83 311
3 321 87 319
3 311 25 321
3 300 310 318
3 318 82 300
3 310 83 318
3 300 24 310
3 322 303 320
3 320 87 322
3 303 82 320
3 322 3 303
3 325 323 324
3 324 89 325
3 323 85 324
3 325 88 323
3 307 326 324
3 324 85 307
3 326 89 324
3 307 26 326
3 327 312 323
3 323 88 327
3 312 85 323
3 327 25 312
3 329 328 325
3 325 89 329
3 328 88 325
3 329 5 328
3 332 330 331
3 331 92 332
3 330 91 331
3 332 90 330
3 334 333 331
3 331 91 334
3 333 92 331
3 334 29 333
3 336 335 330
3 330 90 336
3 335 91 330
3 336 28 335
3 338 337 332
3 332 92 338
3 337 90 332
3 338 27 337
3 341 339 340
3 340 94 341
3 339 91 340
3 341 93 339
3 335 342 340
3 340 91 335
3 342 94 340
3 335 28 342
3 343 334 339
3 339 93 343
3 334 91 339
3 343 29 334
3 345 344 341
3 341 94 345
3 344 93 341
3 345 2 344
3 348 346 347
3 347 96 348
3 346 90 347
3 348 95 346
3 337 349 347
3 347 90 337
3 349 96 347
3 337 27 349
3 350 336 346
3 346 95 350
3 336 90 346
3 350 28 336
3 352 351 348
3 348 96 352
3 351 95 348
3 352 7 351
3 355 353 354
3 354 98 355
3 353 92 354
3 355 97 353
3 333 356 354
3 354 92 333
3 356 98 354
3 333 29 356
3 357 338 353
3 353 97 357
3 338 92 353
3 357 27 338
3 359 358 355
3 355 98 359
3 358 97 355
3 359 1 358
3 362 360 361
3 361 101 362
3 360 100 361
3 362 99 360
3 364 363 361
3 361 100 364
3 363 101 361
3 364 31 363
3 366 365 360
3 360 99 366
3 365 100 360
3 366 29 365
3 368 367 362
3 362 101 368
3 367 99 362
3 368 30 367
3 371 369 370
3 370 93 371
3 369 100 370
3 371 102 369
3 365 343 370
3 370 100 365
3 343 93 370
3 365 29 343
3 372 364 369
3 369 102 372
3 364 100 369
3 372 31 364
3 344 373 371
3 371 93 344
3 373 102 371
3 344 2 373
3 376 374 375
3 375 103 376
3 374 99 375
3 376 98 374
3 367 377 375
3 375 99 367
3 377 103 375
3 367 30 377
3 356 366 374
3 374 98 356
3 366 99 374
3 356 29 366
3 378 359 376
3 376 103 378
3 359 98 376
3 378 1 359
3 381 379 380
3 380 105 381
3 379 101 380
3 381 104 379
3 363 382 380
3 380 101 363
3 382 105 380
3 363 31 382
3 383 368 379
3 379 104 383
3 368 101 379
3 383 30 368
3 385 384 381
3 381 105 385
3 384 104 381
3 385 6 384
3 388 386 387
3 387 108 388
3 386 107 387
3 388 106 386
3 390 389 387
3 387 107 390
3 389 108 387
3 390 34 389
3 392 391 386
3 386 106 392
3 391 107 386
3 392 33 391
3 394 393 388
3 388 108 394
3 393 106 388
3 394 32 393
3 397 395 396
3 396 110 397
3 395 107 396
3 397 109 395
3 391 398 396
3 396 107 391
3 398 110 396
3 391 33 398
3 399 390 395
3 395 109 399
3 390 107 395
3 399 34 390
3 401 400 397
3 397 110 401
3 400 109 397
3 401 8 400
3 404 402 403
3 403 112 404
3 402 106 403
3 404 111 402
3 393 405 403
3 403 106 393
3 405 112 403
3 393 32 405
3 406 392 402
3 402 111 406
3 392 106 402
3 406 33 392
3 408 407 404
3 404 112 408
3 407 111 404
3 408 0 407
3 411 409 410
3 410 114 411
3 409 108 410
3 411 113 409
3 389 412 410
3 410 108 389
3 412 114 410
3 389 34 412
3 413 394 409
3 409 113 413
3 394 108 409
3 413 32 394
3 415 414 411
3 411 114 415
3 414 113 411
3 415 11 414
3 418 416 417
3 417 117 418
3 416 116 417
3 418 115 416
3 420 419 417
3 417 116 420
3 419 117 417
3 420 36 419
3 422 421 416
3 416 115 422
3 421 116 416
3 422 34 421
3 424 423 418
3 418 117 424
3 423 115 418
3 424 35 423
3 427 425 426
3 426 109 427
3 425 116 426
3 427 118 425
3 421 399 426
3 426 116 421
3 399 109 426
3 421 34 399
3 428 420 425
3 425 118 428
3 420 116 425
3 428 36 420
3 400 429 427
3 427 109 400
3 429 118 427
3 400 8 429
3 432 430 431
3 431 119 432
3 430 115 431
3 432 114 430
3 423 433 431
3 431 115 423
3 433 119 431
3 423 35 433
3 412 422 430
3 430 114 412
3 422 115 430
3 412 34 422
3 434 415 432
3 432 119 434
3 415 114 432
3 434 11 415
3 437 435 436
3 436 121 437
3 435 117 436
3 437 120 435
3 419 438 436
3 436 117 419
3 438 121 436
3 419 36 438
3 439 424 435
3 435 120 439
3 424 117 435
3 439 35 424
3 441 440 437
3 437 121 441
3 440 120 437
3 441 1 440
3 444 442 443
3 443 124 444
3 442 123 443
3 444 122 442
3 446 445 443
3 443 123 446
3 445 124 443
3 446 39 445
3 448 447 442
3 442 122 448
3 447 123 442
3 448 38 447
3 450 449 444
3 444 124 450
3 449 122 444
3 450 37 449
3 453 451 452
3 452 126 453
3 451 123 452
3 453 125 451
3 447 454 452
3 452 123 447
3 454 126 452
3 447 38 454
3 455 446 451
3 451 125 455
3 446 123 451
3 455 39 446
3 457 456 453
3 453 126 457
3 456 125 453
3 457 9 456
3 460 458 459
3 459 128 460
3 458 122 459
3 460 127 458
3 449 461 459
3 459 122 449
3 461 128 459
3 449 37 461
3 462 448 458
3 458 127 462
3 448 122 458
3 462 38 448
3 464 463 460
3 460 128 464
3 463 127 460
3 464 10 463
3 467 465 466
3 466 130 467
3 465 124 466
3 467 129 465
3 445 468 466
3 466 124 445
3 468 130 466
3 445 39 468
3 469 450 465
3 465 129 469
3 450 124 465
3 469 37 450
3 471 470 467
3 467 130 471
3 470 129 467
3 471 3 470
3 474 472 473
3 473 133 474
3 472 132 473
3 474 131 472
3 476 475 473
3 473 132 476
3 475 133 473
3 476 38 475
3 478 477 472
3 472 131 478
3 477 132 472
3 478 41 477
3 480 479 474
3 474 133 480
3 479 131 474
3 480 40 479
3 483 481 482
3 482 134 483
3 481 132 482
3 483 126 481
3 477 484 482
3 482 132 477
3 484 134 482
3 477 41 484
3 454 476 481
3 481 126 454
3 476 132 481
3 454 38 476
3 485 457 483
3 483 134 485
3 457 126 483
3 485 9 457
3 488 486 487
3 487 136 488
3 486 131 487
3 488 135 486
3 479 489 487
3 487 131 479
3 489 136 487
3 479 40 489
3 490 478 486
3 486 135 490
3 478 131 486
3 490 41 478
3 492 491 488
3 488 136 492
3 491 135 488
3 492 2 491
3 495 493 494
3 494 127 495
3 493 133 494
3 495 137 493
3 475 462 494
3 494 133 475
3 462 127 494
3 475 38 462
3 496 480 493
3 493 137 496
3 480 133 493
3 496 40 480
3 463 497 495
3 495 127 463
3 497 137 495
3 463 10 497
3 500 498 499
3 499 140 500
3 498 139 499
3 500 138 498
3 502 501 499
3 499 139 502
3 501 140 499
3 502 33 501
3 504 503 498
3 498 138 504
3 503 139 498
3 504 13 503
3 506 505 500
3 500 140 506
3 505 138 500
3 506 23 505
3 509 507 508
3 508 47 509
3 507 139 508
3 509 110 507
3 503 182 508
3 508 139 503
3 182 47 508
3 503 13 182
3 398 502 507
3 507 110 398
3 502 139 507
3 398 33 502
3 183 401 509
3 509 47 183
3 401 110 509
3 183 8 401
3 512 510 511
3 511 79 512
3 510 138 511
3 512 46 510
3 505 294 511
3 511 138 505
3 294 79 511
3 505 23 294
3 174 504 510
3 510 46 174
3 504 138 510
3 174 13 504
3 295 177 512
3 512 79 295
3 177 46 512
3 295 4 177
3 515 513 514
3 514 111 515
3 513 140 514
3 515 78 513
3 501 406 514
3 514 140 501
3 406 111 514
3 501 33 406
3 286 506 513
3 513 78 286
3 506 140 513
3 286 23 506
3 407 289 515
3 515 111 407
3 289 78 515
3 407 0 289
3 518 516 517
3 517 143 518
3 516 142 517
3 518 141 516
3 520 519 517
3 517 142 520
3 519 143 517
3 520 19 519
3 522 521 516
3 516 141 522
3 521 142 516
3 522 32 521
3 524 523 518
3 518 143 524
3 523 141 518
3 524 26 523
3 527 525 526
3 526 113 527
3 525 142 526
3 527 66 525
3 521 413 526
3 526 142 521
3 413 113 526
3 521 32 413
3 244 520 525
3 525 66 244
3 520 142 525
3 244 19 520
3 414 247 527
3 527 113 414
3 247 66 527
3 414 11 247
3 530 528 529
3 529 86 530
3 528 141 529
3 530 112 528
3 523 316 529
3 529 141 523
3 316 86 529
3 523 26 316
3 405 522 528
3 528 112 405
3 522 141 528
3 405 32 522
3 317 408 530
3 530 86 317
3 408 112 530
3 317 0 408
3 533 531 532
3 532 61 533
3 531 143 532
3 533 89 531
3 519 231 532
3 532 143 519
3 231 61 532
3 519 19 231
3 326 524 531
3 531 89 326
3 524 143 531
3 326 26 524
3 232 329 533
3 533 61 232
3 329 89 533
3 232 5 329
3 536 534 535
3 535 146 536
3 534 145 535
3 536 144 534
3 538 537 535
3 535 145 538
3 537 146 535
3 538 22 537
3 540 539 534
3 534 144 540
3 539 145 534
3 540 16 539
3 542 541 536
3 536 146 542
3 541 144 536
3 542 39 541
3 545 543 544
3 544 54 545
3 543 145 544
3 545 80 543
3 539 204 544
3 544 145 539
3 204 54 544
3 539 16 204
3 293 538 543
3 543 80 293
3 538 145 543
3 293 22 538
3 205 296 545
3 545 54 205
3 296 80 545
3 205 4 296
3 548 546 547
3 547 125 548
3 546 144 547
3 548 57 546
3 541 455 547
3 547 144 541
3 455 125 547
3 541 39 455
3 214 540 546
3 546 57 214
3 540 144 546
3 214 16 540
3 456 217 548
3 548 125 456
3 217 57 548
3 456 9 217
3 551 549 550
3 550 81 551
3 549 146 550
3 551 130 549
3 537 301 550
3 550 146 537
3 301 81 550
3 537 22 301
3 468 542 549
3 549 130 468
3 542 146 549
3 468 39 542
3 302 471 551
3 551 81 302
3 471 130 551
3 302 3 471
3 554 552 553
3 553 149 554
3 552 148 553
3 554 147 552
3 556 555 553
3 553 148 556
3 555 149 553
3 556 21 555
3 558 557 552
3 552 147 558
3 557 148 552
3 558 25 557
3 560 559 554
3 554 149 560
3 559 147 554
3 560 37 559
3 563 561 562
3 562 88 563
3 561 148 562
3 563 70 561
3 557 327 562
3 562 148 557
3 327 88 562
3 557 25 327
3 260 556 561
3 561 70 260
3 556 148 561
3 260 21 556
3 328 261 563
3 563 88 328
3 261 70 563
3 328 5 261
3 566 564 565
3 565 129 566
3 564 147 565
3 566 87 564
3 559 469 565
3 565 147 559
3 469 129 565
3 559 37 469
3 321 558 564
3 564 87 321
3 558 147 564
3 321 25 558
3 470 322 566
3 566 129 470
3 322 87 566
3 470 3 322
3 569 567 568
3 568 71 569
3 567 149 568
3 569 128 567
3 555 266 568
3 568 149 555
3 266 71 568
3 555 21 266
3 461 560 567
3 567 128 461
3 560 149 567
3 461 37 560
3 267 464 569
3 569 71 267
3 464 128 569
3 267 10 464
3 572 570 571
3 571 152 572
3 570 151 571
3 572 150 570
3 574 573 571
3 571 151 574
3 573 152 571
3 574 27 573
3 576 575 570
3 570 150 576
3 575 151 570
3 576 12 575
3 578 577 572
3 572 152 578
3 577 150 572
3 578 36 577
3 581 579 580
3 580 49 581
3 579 151 580
3 581 96 579
3 575 189 580
3 580 151 575
3 189 49 580
3 575 12 189
3 349 574 579
3 579 96 349
3 574 151 579
3 349 27 574
3 190 352 581
3 581 49 190
3 352 96 581
3 190 7 352
3 584 582 583
3 583 118 584
3 582 150 583
3 584 48 582
3 577 428 583
3 583 150 577
3 428 118 583
3 577 36 428
3 181 576 582
3 582 48 181
3 576 150 582
3 181 12 576
3 429 184 584
3 584 118 429
3 184 48 584
3 429 8 184
3 587 585 586
3 586 97 587
3 585 152 586
3 587 121 585
3 573 357 586
3 586 152 573
3 357 97 586
3 573 27 357
3 438 578 585
3 585 121 438
3 578 152 585
3 438 36 578
3 358 441 587
3 587 97 358
3 441 121 587
3 358 1 441
3 590 588 589
3 589 155 590
3 588 154 589
3 590 153 588
3 592 591 589
3 589 154 592
3 591 155 589
3 592 17 591
3 594 593 588
3 588 153 594
3 593 154 588
3 594 30 593
3 596 595 590
3 590 155 596
3 595 153 590
3 596 35 595
3 599 597 598
3 598 104 599
3 597 154 598
3 599 64 597
3 593 383 598
3 598 154 593
3 383 104 598
3 593 30 383
3 237 592 597
3 597 64 237
3 592 154 597
3 237 17 592
3 384 240 599
3 599 104 384
3 240 64 599
3 384 6 240
3 602 600 601
3 601 120 602
3 600 153 601
3 602 103 600
3 595 439 601
3 601 153 595
3 439 120 601
3 595 35 439
3 377 594 600
3 600 103 377
3 594 153 600
3 377 30 594
3 440 378 602
3 602 120 440
3 378 103 602
3 440 1 378
3 605 603 604
3 604 65 605
3 603 155 604
3 605 119 603
3 591 245 604
3 604 155 591
3 245 65 604
3 591 17 245
3 433 596 603
3 603 119 433
3 596 155 603
3 433 35 596
3 246 434 605
3 605 65 246
3 434 119 605
3 246 11 434
3 608 606 607
3 607 158 608
3 606 157 607
3 608 156 606
3 610 609 607
3 607 157 610
3 609 158 607
3 610 15 609
3 612 611 606
3 606 156 612
3 611 157 606
3 612 28 611
3 614 613 608
3 608 158 614
3 613 156 608
3 614 41 613
3 617 615 616
3 616 95 617
3 615 157 616
3 617 55 615
3 611 350 616
3 616 157 611
3 350 95 616
3 611 28 350
3 209 610 615
3 615 55 209
3 610 157 615
3 209 15 610
3 351 210 617
3 617 95 351
3 210 55 617
3 351 7 210
3 620 618 619
3 619 135 620
3 618 156 619
3 620 94 618
3 613 490 619
3 619 156 613
3 490 135 619
3 613 41 490
3 342 612 618
3 618 94 342
3 612 156 618
3 342 28 612
3 491 345 620
3 620 135 491
3 345 94 620
3 491 2 345
3 623 621 622
3 622 56 623
3 621 158 622
3 623 134 621
3 609 215 622
3 622 158 609
3 215 56 622
3 609 15 215
3 484 614 621
3 621 134 484
3 614 158 621
3 484 41 614
3 216 485 623
3 623 56 216
3 485 134 623
3 216 9 485
3 626 624 625
3 625 161 626
3 624 160 625
3 626 159 624
3 628 627 625
3 625 160 628
3 627 161 625
3 628 31 627
3 630 629 624
3 624 159 630
3 629 160 624
3 630 20 629
3 632 631 626
3 626 161 632
3 631 159 626
3 632 40 631
3 635 633 634
3 634 73 635
3 633 160 634
3 635 105 633
3 629 272 634
3 634 160 629
3 272 73 634
3 629 20 272
3 382 628 633
3 633 105 382
3 628 160 633
3 382 31 628
3 273 385 635
3 635 73 273
3 385 105 635
3 273 6 385
3 638 636 637
3 637 137 638
3 636 159 637
3 638 72 636
3 631 496 637
3 637 159 631
3 496 137 637
3 631 40 496
3 265 630 636
3 636 72 265
3 630 159 636
3 265 20 630
3 497 268 638
3 638 137 497
3 268 72 638
3 497 10 268
3 641 639 640
3 640 102 641
3 639 161 640
3 641 136 639
3 627 372 640
3 640 161 627
3 372 102 640
3 627 31 372
3 489 632 639
3 639 136 489
3 632 161 639
3 489 40 632
3 373 492 641
3 641 102 373
3 492 136 641
3 373 2 492
