# vtk DataFile Version 3.0
this file was written using fslvtkio
ASCII
DATASET POLYDATA
POINTS 642 float
127.103 117.035 111.749
111.916 116.594 109.62
117.333 102.794 106.214
133.502 104.029 106.988
128.045 108.619 118.414
127.206 111.293 102.29
117.258 111.16 100.6
117.016 107.563 117.008
119.103 121.303 118.07
125.746 98.5285 110.652
127.432 98.4667 98.3817
118.886 124.803 105.235
117.344 114.734 119.521
124.15 115.902 120.437
122.943 107.619 119.927
121.282 101.741 114.691
128.291 101.64 116.565
116.512 119.467 101.556
122.782 110.51 100.367
122.404 117.814 104.193
122.755 103.523 99.6044
129.127 104.395 99.3839
131.844 104.979 113.385
128.155 113.999 115.999
130.784 109.944 109.474
131.387 106.486 103.478
127.308 114.731 106.658
113.721 112.894 114.53
116.307 104.623 111.746
112.805 109.323 107.761
113.021 115.315 103.549
115.985 105.766 102.039
123.338 121.754 109.232
124.205 121.93 116.092
117.537 125.021 111.9
113.148 123.252 106.01
113.994 120.23 114.391
134.809 100.345 100.042
127.342 95.6926 103.619
131.655 99.3614 109.005
121.141 98.1078 101.498
120.485 97.7449 108.217
120.799 115.182 120.563
123.397 111.772 121.01
120.069 111.084 120.138
125.845 107.831 120.147
126.179 112.447 119.796
121.803 118.978 119.914
118.136 118.192 119.09
116.852 111.054 118.781
119.739 107.381 118.875
121.883 104.363 117.952
125.513 104.316 118.672
124.603 101.438 116.298
128.701 104.959 117.752
119.111 104.577 115.939
123.357 99.6607 113.003
126.931 99.809 113.974
119.594 115.515 101.415
122.193 114.375 102.23
119.9 118.945 102.428
124.674 114.404 103.534
124.983 111.134 101.108
120.058 111.286 100.657
116.827 115.436 100.886
117.963 122.43 102.804
120.768 121.392 104.655
125.851 103.875 98.5973
126.023 107.207 99.7529
122.65 107.232 99.8437
128.082 108.07 100.698
128.503 101.754 97.6239
124.488 100.796 98.2239
119.925 107.28 100.46
130.161 109.366 114.551
129.298 111.455 112.773
131.341 107.912 111.688
128.678 113.279 110.785
127.869 115.643 113.922
128.289 111.332 117.302
130.027 107.06 116.004
132.985 104.472 110.455
132.478 107.088 108.138
131.661 108.793 106.234
129.012 112.078 108.115
129.82 110.654 105.184
127.385 116.018 109.087
132.973 104.973 104.451
129.561 109.504 102.831
127.022 112.957 104.713
114.371 108.546 113.237
113.998 106.767 109.999
112.589 110.589 111.388
114.536 105.684 106.98
116.653 103.57 108.924
116.578 105.91 114.397
115.122 110.201 115.99
112.202 114.37 112.294
112.139 112.811 108.781
112.848 112.129 105.453
114.197 107.592 104.723
114.284 110.285 102.874
116.399 104.124 104.073
112.313 115.866 106.465
114.519 113.2 101.208
116.532 108.175 100.864
123.68 122.713 112.659
121.24 124.761 114.91
120.906 125.1 110.594
117.972 123.796 115.417
122.031 122.222 117.901
125.918 119.729 113.826
125.416 119.501 110.586
121.349 123.161 107.337
117.762 125.598 108.125
114.842 124.917 108.46
115.162 123.242 112.872
112.729 122.089 110.274
116.087 121.017 116.653
115.535 124.858 104.062
112.134 119.926 108.158
112.458 118.461 112.21
131.856 96.9681 101.368
129.637 97.4299 105.772
133.27 99.0726 104.259
128.655 98.6554 109.928
126.318 96.9971 107.264
127.38 96.4161 100.537
131.633 99.3197 98.2243
134.522 102.013 104.048
133.554 101.509 108.336
120.462 96.9197 104.643
123.701 96.0179 105.872
123.874 95.7091 102.286
122.999 97.9467 109.423
118.469 99.6756 107.187
118.909 100.134 103.975
123.861 97.9296 99.3753
126.539 115.362 118.462
124.453 119.344 118.624
126.403 118.208 116.189
125.549 118.485 107.935
123.157 120.066 106.451
125.077 116.635 105.451
130.018 100.13 112.983
130.83 103.196 115.457
132.692 101.668 111.73
133.98 103.681 101.089
130.076 106.052 101.702
132.104 102.579 97.6922
115.133 117.876 117.882
114.925 113.918 117.635
113.44 116.713 114.758
112.411 119.386 105.051
114.076 117.314 101.632
114.363 122.188 102.819
118.464 101.072 110.007
118.667 102.744 113.22
120.627 99.6699 111.52
121.398 100.987 100.013
119.415 104.946 101.276
118.882 102.281 102.326
122.026 113.454 121.038
121.648 111.481 120.659
120.378 113.166 120.4
121.604 109.466 120.161
123.023 109.839 120.695
123.691 113.802 120.972
122.541 115.381 120.827
119.15 114.803 120.031
118.8 113.012 119.931
124.558 109.887 120.799
124.871 112.098 120.704
125.808 110.275 120.379
125.17 114.182 120.348
124.327 107.828 120.335
126.943 108.357 119.545
126.926 110.406 119.409
121.326 116.983 120.461
119.492 116.642 119.944
120.046 118.272 119.899
117.756 116.446 119.429
122.971 117.389 120.307
120.35 120.05 119.321
118.735 119.647 118.821
118.414 111.193 119.607
119.956 109.222 119.699
118.382 109.281 119.01
121.331 107.568 119.555
117.168 112.871 119.324
117.082 109.166 118.148
118.343 107.545 118.146
123.656 104.316 118.368
124.953 102.838 117.544
123.173 102.842 117.129
126.386 101.557 116.682
126.783 102.899 117.749
124.172 105.845 119.387
122.445 105.907 119.092
121.728 102.964 116.416
122.817 101.696 115.798
127.178 104.505 118.553
125.675 106.009 119.622
127.366 106.331 119.212
128.527 103.139 117.488
128.318 106.868 118.169
120.799 105.864 118.506
120.421 104.325 116.994
119.259 105.815 117.553
120.405 103.151 115.568
118.031 106.121 116.667
123.835 100.472 114.861
125.767 100.446 115.313
125.048 99.7334 113.708
127.646 100.559 115.468
122.31 100.585 114.105
124.616 98.8989 112.054
126.299 99.0318 112.515
121.055 115.064 101.842
121.141 116.784 102.626
119.767 117.222 101.863
121.199 118.243 103.254
122.195 116.353 103.139
122.202 112.492 101.434
121.009 113.272 101.256
118.176 117.533 101.49
118.286 119.146 101.933
123.291 114.441 102.983
123.36 112.504 101.972
124.42 112.683 102.668
123.853 110.819 100.658
123.461 116.125 103.827
125.621 112.439 103.193
126.002 111.295 101.759
119.756 113.466 100.99
118.177 115.662 101.183
118.398 113.538 100.872
116.673 117.545 101.226
121.388 111.181 100.609
118.714 111.317 100.663
117.16 113.225 100.664
119.112 120.596 102.458
120.628 120.13 103.521
119.635 122.164 103.472
121.551 119.533 104.462
117.449 120.832 102.114
118.578 123.878 103.789
120.036 123.209 104.824
125.814 105.391 99.4145
124.397 107.142 99.6872
124.377 105.321 99.6929
122.831 108.907 99.8806
124.505 108.853 99.9433
127.375 105.457 99.6106
127.347 104.36 98.7213
124.393 103.737 99.0261
122.993 105.12 99.9224
125.34 109.601 100.21
126.923 107.645 100.194
126.635 109.82 100.687
128.391 105.974 100.226
127.681 109.91 101.262
127.012 103.029 97.6213
125.058 102.495 97.8155
126.536 101.361 97.7586
123.496 102.295 98.4358
128.613 103.438 98.0706
127.774 100.114 97.8163
125.913 99.7291 98.0638
121.374 107.114 100.124
121.36 109.352 100.207
119.99 109.177 100.385
121.493 105.396 100.439
118.597 109.403 100.562
129.673 110.517 113.712
130.515 109.747 112.211
130.751 108.595 113.156
131.163 109.052 110.731
130.078 110.558 111.189
128.821 112.617 114.41
128.972 111.45 115.051
130.998 107.215 113.902
131.665 106.649 112.595
129.058 112.414 111.799
128.566 113.536 113.421
128.293 114.333 112.362
128.06 114.792 114.982
129.526 111.365 110.258
127.941 115.079 111.218
127.544 116.225 112.749
129.053 110.393 115.867
130.097 108.204 115.298
129.138 109.244 116.683
131.054 106.068 114.68
128.282 112.55 116.473
128.079 110.195 118.083
128.981 107.951 117.202
132.176 106.195 111.098
131.922 107.594 110.051
132.644 106.038 109.495
131.801 108.637 108.832
132.376 104.708 111.963
133.26 104.466 108.836
132.933 105.537 107.674
130.199 110.485 107.386
129.152 111.38 106.713
130.707 109.865 105.815
128.336 112.311 106.092
128.194 113.249 107.244
129.959 110.722 108.753
131.269 109.472 107.733
131.671 107.791 104.812
130.957 108.867 104.29
128.206 114.002 108.518
128.94 112.55 109.414
128.073 114.513 109.851
127.39 115.328 107.835
127.333 116.527 110.392
132.185 107.888 107.021
132.249 106.685 105.351
132.693 106.054 106.3
132.186 105.646 103.822
133.33 104.652 105.804
129.891 110.136 103.929
128.356 111.73 104.98
128.572 111.326 103.607
127.26 113.74 105.709
130.723 108.172 103.141
128.403 110.782 102.466
126.864 112.049 103.739
114.126 107.538 111.631
113.101 108.555 110.708
113.383 109.422 112.339
112.54 109.748 109.697
113.041 108.048 109.085
115.079 105.843 111.091
115.103 106.583 112.516
113.831 110.647 113.803
112.945 111.423 113.035
114.144 106.219 108.509
115.303 105.164 109.56
115.639 104.713 108.024
116.331 104.104 110.383
113.377 107.441 107.504
115.98 104.303 106.57
116.994 103.143 107.558
115.482 107.189 113.896
114.778 109.37 114.553
115.708 108.052 115.32
114.431 111.606 115.167
116.284 105.245 113.067
116.758 106.728 115.723
115.985 108.998 116.792
112.269 112.42 111.989
112.194 111.587 110.114
112.006 113.528 110.576
112.394 110.971 108.349
112.867 113.46 113.504
111.97 115.382 110.907
112.047 114.646 109.207
113.372 109.75 105.363
114.221 108.934 103.909
113.52 111.137 104.286
114.942 108.087 102.48
115.021 106.685 103.219
113.412 108.552 106.273
112.745 110.609 106.555
112.971 113.575 104.388
113.648 112.546 103.295
114.959 105.719 104.331
114.068 106.65 105.932
115.318 104.917 105.434
115.931 104.83 103.021
116.86 103.606 105.192
112.368 112.328 107.066
112.491 113.961 105.816
112.252 114.209 107.499
112.503 115.674 104.88
112.085 116.143 108.054
114.328 111.718 102.02
115.046 109.235 101.571
115.355 110.605 100.835
115.985 106.974 101.351
113.773 114.178 102.492
115.837 112.203 100.566
116.904 109.647 100.594
122.707 124.21 113.687
121.291 125.04 112.796
122.472 124.26 111.907
119.483 125.287 111.588
119.599 125.032 113.461
122.877 123.848 115.577
123.853 122.852 114.47
123.164 122.892 110.824
122.102 123.942 109.91
119.597 124.425 115.342
121.572 123.84 116.656
120.023 123.366 116.915
123.117 122.483 116.972
117.795 124.619 113.743
118.285 122.648 116.738
120.409 121.933 117.991
124.764 121.302 113.365
124.354 121.308 111.495
125.557 119.805 112.149
124.254 120.955 110.109
124.99 121.027 114.96
126.491 118.401 112.79
126.372 118.301 111.15
121.057 124.531 108.585
119.398 125.365 109.368
119.669 125.084 107.489
117.848 125.385 110.133
122.35 122.613 108.479
120.298 123.843 106.308
118.272 125.491 106.359
114.775 124.217 110.65
113.861 123.017 111.251
113.668 123.75 109.308
113.27 121.443 112.187
114.203 122.005 113.331
116.044 124.403 112.308
116.04 124.984 110.301
113.642 124.303 107.227
112.813 122.759 108.267
115.449 122.244 114.664
116.564 123.677 114.07
116.787 122.526 115.856
114.861 120.828 115.516
117.581 121.073 117.507
116.392 125.348 108.628
114.946 125.202 106.482
116.517 125.602 106.174
114.037 124.707 104.985
117.172 125.128 104.527
112.244 121.012 109.36
112.561 120.249 111.464
112.179 119.05 110.238
113.215 119.648 113.209
112.561 121.654 107.198
112.051 118.228 108.946
112.076 117.373 111.029
130.693 96.784 104.001
131.367 98.224 105.241
132.514 97.8995 102.944
132.376 98.9582 106.421
130.859 98.4394 107.227
128.871 96.078 104.342
129.985 96.3156 102.275
133.612 98.3392 100.561
134.231 99.275 102.096
129.17 98.0533 107.85
128.049 96.9689 106.259
127.463 97.8419 108.302
126.828 96.1183 105.443
130.186 98.8581 109.393
127.2 98.5507 110.309
125.881 97.8199 108.981
129.969 96.6275 100.455
132.092 97.8155 99.4579
129.855 97.5652 99.0818
133.535 99.6152 98.8307
127.641 95.9676 102.045
127.131 97.2198 99.3851
129.277 98.762 98.193
134.234 100.193 104.396
133.512 99.8997 106.755
134.248 101.808 106.266
132.865 99.9369 108.372
134.969 100.825 102.368
134.081 103.199 105.615
133.676 102.966 107.884
122.012 96.0954 105.073
123.733 95.5592 104.082
122.044 95.8516 103.491
125.584 95.5582 102.997
125.431 95.6901 104.743
122 96.6108 106.813
120.619 97.0191 106.319
120.846 96.9821 102.924
122.251 96.3859 101.843
125.103 96.3604 106.546
123.283 96.8545 107.605
124.616 97.3406 108.275
121.779 97.6351 108.603
124.315 98.1847 110.065
119.333 98.0474 105.916
119.539 98.1948 104.088
118.561 99.6103 105.475
119.999 98.7773 102.721
119.443 98.3588 107.538
117.958 101.156 106.725
118.081 101.439 105.223
123.783 96.4633 100.777
125.682 95.9528 101.422
125.378 96.8236 99.8905
122.421 97.707 100.394
125.56 98.3026 98.6736
125.59 117.375 118.652
125.7 118.907 117.547
126.576 116.856 117.353
125.495 120.151 116.282
124.501 120.686 117.425
124.332 117.709 119.592
125.419 115.743 119.571
127.335 114.917 117.231
127.253 116.171 116.197
123.394 120.956 118.211
123.183 119.235 119.447
121.64 120.692 118.854
126.467 113.985 119.153
127.615 113.346 117.767
127.35 111.851 118.612
127.221 116.914 115.048
126.186 119.154 115.068
126.873 117.647 113.846
124.353 119.416 107.231
124.138 118.39 105.938
125.377 117.693 106.641
123.763 117.249 104.821
122.883 118.914 105.235
123.284 120.958 107.874
124.435 120.092 108.629
126.542 116.733 107.248
126.344 115.91 105.991
122.035 120.527 105.586
122.255 121.602 107.064
121.061 122.195 105.957
125.366 119.152 109.302
126.576 117.286 108.455
126.472 117.848 109.828
126.242 114.912 105.036
124.851 115.666 104.439
125.917 113.747 104.03
130.743 101.312 114.448
131.842 102.152 113.706
131.548 100.704 112.533
132.473 103.181 112.798
131.522 103.981 114.468
129.706 102.316 116.053
129.301 100.726 115.018
130.924 99.6015 111.138
132.282 100.301 110.568
130.661 105.241 115.683
129.78 104.045 116.695
129.453 106.213 116.979
128.483 99.9218 113.652
129.382 99.2824 111.533
127.775 99.0474 112.054
133.154 101.305 109.98
133.106 103.125 111.314
133.385 102.967 109.528
132.07 104.327 100.825
131.817 104 99.3856
133.896 103.046 99.1244
130.384 103.861 98.8792
129.609 105.485 100.774
130.715 106.119 102.523
132.16 104.781 102.44
134.97 101.932 100.619
133.749 101.281 98.337
128.957 107.143 101.24
129.928 107.839 102.179
128.68 109.139 101.833
133.322 104.307 102.885
134.671 102.619 102.324
133.978 103.702 104.34
131.734 100.85 97.8878
129.94 102.743 97.7629
129.305 100.36 97.7539
114.87 115.947 117.921
114.193 115.523 116.388
114.146 117.25 116.497
113.673 114.854 114.912
114.361 113.661 116.049
115.891 114.32 118.868
116.078 116.325 118.963
114.455 119.006 116.217
113.675 118.423 114.799
114.868 112.034 116.643
115.727 112.576 118.292
115.788 110.618 117.544
116.473 117.995 118.622
115.39 119.604 117.287
116.98 119.684 118.086
112.929 117.671 113.56
112.889 115.366 113.596
112.245 116.355 112.376
113.209 118.831 103.246
113.984 119.829 102.31
113.305 120.805 103.827
115.329 120.667 101.83
115.234 118.294 101.407
113.369 116.54 102.68
112.544 117.44 104.219
112.703 121.257 105.605
113.535 122.814 104.378
115.425 116.256 100.867
114.225 115.182 101.483
115.732 114.105 100.701
112.191 117.519 105.799
112.273 119.625 106.652
112.072 117.758 107.449
114.643 123.564 103.514
116.302 121.964 102.358
117.007 123.764 103.4
118.379 102.025 111.632
119.552 101.227 112.444
119.373 100.185 110.795
120.835 100.69 113.109
119.946 102.193 114.04
117.517 103.522 112.384
117.455 102.925 110.964
119.342 99.1924 109.223
120.531 98.7182 109.915
118.938 103.554 114.611
117.542 104.283 113.743
117.718 105.104 115.272
117.569 102.421 109.534
118.463 100.134 108.622
117.721 101.746 108.143
121.778 98.616 110.5
121.931 99.7071 112.302
123.224 98.8103 111.271
120.564 103.006 101.046
118.873 103.697 101.762
120.028 101.566 101.218
117.415 104.135 102.353
117.593 105.422 101.53
121.161 104.151 100.608
121.944 102.363 99.8604
121.188 99.583 100.772
120.046 100.155 102.001
117.826 106.641 101.007
119.706 106.122 100.902
118.262 108.092 100.758
122.618 101.12 98.9481
122.335 99.3276 99.7426
123.955 99.4591 98.7146
118.968 101.177 103.155
117.62 103.288 103.356
117.891 102.421 104.426
POLYGONS 1280  5120
3 164 162 163
3 163 44 164
3 162 43 163
3 164 42 162
3 166 165 163
3 163 43 166
3 165 44 163
3 166 14 165
3 168 167 162
3 162 42 168
3 167 43 162
3 168 13 167
3 170 169 164
3 164 44 170
3 169 42 164
3 170 12 169
3 173 171 172
3 172 46 173
3 171 43 172
3 173 45 171
3 167 174 172
3 172 43 167
3 174 46 172
3 167 13 174
3 175 166 171
3 171 45 175
3 166 43 171
3 175 14 166
3 177 176 173
3 173 46 177
3 176 45 173
3 177 4 176
3 180 178 179
3 179 48 180
3 178 42 179
3 180 47 178
3 169 181 179
3 179 42 169
3 181 48 179
3 169 12 181
3 182 168 178
3 178 47 182
3 168 42 178
3 182 13 168
3 184 183 180
3 180 48 184
3 183 47 180
3 184 8 183
3 187 185 186
3 186 50 187
3 185 44 186
3 187 49 185
3 165 188 186
3 186 44 165
3 188 50 186
3 165 14 188
3 189 170 185
3 185 49 189
3 170 44 185
3 189 12 170
3 191 190 187
3 187 50 191
3 190 49 187
3 191 7 190
3 194 192 193
3 193 53 194
3 192 52 193
3 194 51 192
3 196 195 193
3 193 52 196
3 195 53 193
3 196 16 195
3 198 197 192
3 192 51 198
3 197 52 192
3 198 14 197
3 200 199 194
3 194 53 200
3 199 51 194
3 200 15 199
3 203 201 202
3 202 45 203
3 201 52 202
3 203 54 201
3 197 175 202
3 202 52 197
3 175 45 202
3 197 14 175
3 204 196 201
3 201 54 204
3 196 52 201
3 204 16 196
3 176 205 203
3 203 45 176
3 205 54 203
3 176 4 205
3 208 206 207
3 207 55 208
3 206 51 207
3 208 50 206
3 199 209 207
3 207 51 199
3 209 55 207
3 199 15 209
3 188 198 206
3 206 50 188
3 198 51 206
3 188 14 198
3 210 191 208
3 208 55 210
3 191 50 208
3 210 7 191
3 213 211 212
3 212 57 213
3 211 53 212
3 213 56 211
3 195 214 212
3 212 53 195
3 214 57 212
3 195 16 214
3 215 200 211
3 211 56 215
3 200 53 211
3 215 15 200
3 217 216 213
3 213 57 217
3 216 56 213
3 217 9 216
3 220 218 219
3 219 60 220
3 218 59 219
3 220 58 218
3 222 221 219
3 219 59 222
3 221 60 219
3 222 19 221
3 224 223 218
3 218 58 224
3 223 59 218
3 224 18 223
3 226 225 220
3 220 60 226
3 225 58 220
3 226 17 225
3 229 227 228
3 228 62 229
3 227 59 228
3 229 61 227
3 223 230 228
3 228 59 223
3 230 62 228
3 223 18 230
3 231 222 227
3 227 61 231
3 222 59 227
3 231 19 222
3 233 232 229
3 229 62 233
3 232 61 229
3 233 5 232
3 236 234 235
3 235 64 236
3 234 58 235
3 236 63 234
3 225 237 235
3 235 58 225
3 237 64 235
3 225 17 237
3 238 224 234
3 234 63 238
3 224 58 234
3 238 18 224
3 240 239 236
3 236 64 240
3 239 63 236
3 240 6 239
3 243 241 242
3 242 66 243
3 241 60 242
3 243 65 241
3 221 244 242
3 242 60 221
3 244 66 242
3 221 19 244
3 245 226 241
3 241 65 245
3 226 60 241
3 245 17 226
3 247 246 243
3 243 66 247
3 246 65 243
3 247 11 246
3 250 248 249
3 249 69 250
3 248 68 249
3 250 67 248
3 252 251 249
3 249 68 252
3 251 69 249
3 252 18 251
3 254 253 248
3 248 67 254
3 253 68 248
3 254 21 253
3 256 255 250
3 250 69 256
3 255 67 250
3 256 20 255
3 259 257 258
3 258 70 259
3 257 68 258
3 259 62 257
3 253 260 258
3 258 68 253
3 260 70 258
3 253 21 260
3 230 252 257
3 257 62 230
3 252 68 257
3 230 18 252
3 261 233 259
3 259 70 261
3 233 62 259
3 261 5 233
3 264 262 263
3 263 72 264
3 262 67 263
3 264 71 262
3 255 265 263
3 263 67 255
3 265 72 263
3 255 20 265
3 266 254 262
3 262 71 266
3 254 67 262
3 266 21 254
3 268 267 264
3 264 72 268
3 267 71 264
3 268 10 267
3 271 269 270
3 270 63 271
3 269 69 270
3 271 73 269
3 251 238 270
3 270 69 251
3 238 63 270
3 251 18 238
3 272 256 269
3 269 73 272
3 256 69 269
3 272 20 256
3 239 273 271
3 271 63 239
3 273 73 271
3 239 6 273
3 276 274 275
3 275 76 276
3 274 75 275
3 276 74 274
3 278 277 275
3 275 75 278
3 277 76 275
3 278 24 277
3 280 279 274
3 274 74 280
3 279 75 274
3 280 23 279
3 282 281 276
3 276 76 282
3 281 74 276
3 282 22 281
3 285 283 284
3 284 78 285
3 283 75 284
3 285 77 283
3 279 286 284
3 284 75 279
3 286 78 284
3 279 23 286
3 287 278 283
3 283 77 287
3 278 75 283
3 287 24 278
3 289 288 285
3 285 78 289
3 288 77 285
3 289 0 288
3 292 290 291
3 291 80 292
3 290 74 291
3 292 79 290
3 281 293 291
3 291 74 281
3 293 80 291
3 281 22 293
3 294 280 290
3 290 79 294
3 280 74 290
3 294 23 280
3 296 295 292
3 292 80 296
3 295 79 292
3 296 4 295
3 299 297 298
3 298 82 299
3 297 76 298
3 299 81 297
3 277 300 298
3 298 76 277
3 300 82 298
3 277 24 300
3 301 282 297
3 297 81 301
3 282 76 297
3 301 22 282
3 303 302 299
3 299 82 303
3 302 81 299
3 303 3 302
3 306 304 305
3 305 85 306
3 304 84 305
3 306 83 304
3 308 307 305
3 305 84 308
3 307 85 305
3 308 26 307
3 310 309 304
3 304 83 310
3 309 84 304
3 310 24 309
3 312 311 306
3 306 85 312
3 311 83 306
3 312 25 311
3 315 313 314
3 314 77 315
3 313 84 314
3 315 86 313
3 309 287 314
3 314 84 309
3 287 77 314
3 309 24 287
3 316 308 313
3 313 86 316
3 308 84 313
3 316 26 308
3 288 317 315
3 315 77 288
3 317 86 315
3 288 0 317
3 320 318 319
3 319 87 320
3 318 83 319
3 320 82 318
3 311 321 319
3 319 83 311
3 321 87 319
3 311 25 321
3 300 310 318
3 318 82 300
3 310 83 318
3 300 24 310
3 322 303 320
3 320 87 322
3 303 82 320
3 322 3 303
3 325 323 324
3 324 89 325
3 323 85 324
3 325 88 323
3 307 326 324
3 324 85 307
3 326 89 324
3 307 26 326
3 327 312 323
3 323 88 327
3 312 85 323
3 327 25 312
3 329 328 325
3 325 89 329
3 328 88 325
3 329 5 328
3 332 330 331
3 331 92 332
3 330 91 331
3 332 90 330
3 334 333 331
3 331 91 334
3 333 92 331
3 334 29 333
3 336 335 330
3 330 90 336
3 335 91 330
3 336 28 335
3 338 337 332
3 332 92 338
3 337 90 332
3 338 27 337
3 341 339 340
3 340 94 341
3 339 91 340
3 341 93 339
3 335 342 340
3 340 91 335
3 342 94 340
3 335 28 342
3 343 334 339
3 339 93 343
3 334 91 339
3 343 29 334
3 345 344 341
3 341 94 345
3 344 93 341
3 345 2 344
3 348 346 347
3 347 96 348
3 346 90 347
3 348 95 346
3 337 349 347
3 347 90 337
3 349 96 347
3 337 27 349
3 350 336 346
3 346 95 350
3 336 90 346
3 350 28 336
3 352 351 348
3 348 96 352
3 351 95 348
3 352 7 351
3 355 353 354
3 354 98 355
3 353 92 354
3 355 97 353
3 333 356 354
3 354 92 333
3 356 98 354
3 333 29 356
3 357 338 353
3 353 97 357
3 338 92 353
3 357 27 338
3 359 358 355
3 355 98 359
3 358 97 355
3 359 1 358
3 362 360 361
3 361 101 362
3 360 100 361
3 362 99 360
3 364 363 361
3 361 100 364
3 363 101 361
3 364 31 363
3 366 365 360
3 360 99 366
3 365 100 360
3 366 29 365
3 368 367 362
3 362 101 368
3 367 99 362
3 368 30 367
3 371 369 370
3 370 93 371
3 369 100 370
3 371 102 369
3 365 343 370
3 370 100 365
3 343 93 370
3 365 29 343
3 372 364 369
3 369 102 372
3 364 100 369
3 372 31 364
3 344 373 371
3 371 93 344
3 373 102 371
3 344 2 373
3 376 374 375
3 375 103 376
3 374 99 375
3 376 98 374
3 367 377 375
3 375 99 367
3 377 103 375
3 367 30 377
3 356 366 374
3 374 98 356
3 366 99 374
3 356 29 366
3 378 359 376
3 376 103 378
3 359 98 376
3 378 1 359
3 381 379 380
3 380 105 381
3 379 101 380
3 381 104 379
3 363 382 380
3 380 101 363
3 382 105 380
3 363 31 382
3 383 368 379
3 379 104 383
3 368 101 379
3 383 30 368
3 385 384 381
3 381 105 385
3 384 104 381
3 385 6 384
3 388 386 387
3 387 108 388
3 386 107 387
3 388 106 386
3 390 389 387
3 387 107 390
3 389 108 387
3 390 34 389
3 392 391 386
3 386 106 392
3 391 107 386
3 392 33 391
3 394 393 388
3 388 108 394
3 393 106 388
3 394 32 393
3 397 395 396
3 396 110 397
3 395 107 396
3 397 109 395
3 391 398 396
3 396 107 391
3 398 110 396
3 391 33 398
3 399 390 395
3 395 109 399
3 390 107 395
3 399 34 390
3 401 400 397
3 397 110 401
3 400 109 397
3 401 8 400
3 404 402 403
3 403 112 404
3 402 106 403
3 404 111 402
3 393 405 403
3 403 106 393
3 405 112 403
3 393 32 405
3 406 392 402
3 402 111 406
3 392 106 402
3 406 33 392
3 408 407 404
3 404 112 408
3 407 111 404
3 408 0 407
3 411 409 410
3 410 114 411
3 409 108 410
3 411 113 409
3 389 412 410
3 410 108 389
3 412 114 410
3 389 34 412
3 413 394 409
3 409 113 413
3 394 108 409
3 413 32 394
3 415 414 411
3 411 114 415
3 414 113 411
3 415 11 414
3 418 416 417
3 417 117 418
3 416 116 417
3 418 115 416
3 420 419 417
3 417 116 420
3 419 117 417
3 420 36 419
3 422 421 416
3 416 115 422
3 421 116 416
3 422 34 421
3 424 423 418
3 418 117 424
3 423 115 418
3 424 35 423
3 427 425 426
3 426 109 427
3 425 116 426
3 427 118 425
3 421 399 426
3 426 116 421
3 399 109 426
3 421 34 399
3 428 420 425
3 425 118 428
3 420 116 425
3 428 36 420
3 400 429 427
3 427 109 400
3 429 118 427
3 400 8 429
3 432 430 431
3 431 119 432
3 430 115 431
3 432 114 430
3 423 433 431
3 431 115 423
3 433 119 431
3 423 35 433
3 412 422 430
3 430 114 412
3 422 115 430
3 412 34 422
3 434 415 432
3 432 119 434
3 415 114 432
3 434 11 415
3 437 435 436
3 436 121 437
3 435 117 436
3 437 120 435
3 419 438 436
3 436 117 419
3 438 121 436
3 419 36 438
3 439 424 435
3 435 120 439
3 424 117 435
3 439 35 424
3 441 440 437
3 437 121 441
3 440 120 437
3 441 1 440
3 444 442 443
3 443 124 444
3 442 123 443
3 444 122 442
3 446 445 443
3 443 123 446
3 445 124 443
3 446 39 445
3 448 447 442
3 442 122 448
3 447 123 442
3 448 38 447
3 450 449 444
3 444 124 450
3 449 122 444
3 450 37 449
3 453 451 452
3 452 126 453
3 451 123 452
3 453 125 451
3 447 454 452
3 452 123 447
3 454 126 452
3 447 38 454
3 455 446 451
3 451 125 455
3 446 123 451
3 455 39 446
3 457 456 453
3 453 126 457
3 456 125 453
3 457 9 456
3 460 458 459
3 459 128 460
3 458 122 459
3 460 127 458
3 449 461 459
3 459 122 449
3 461 128 459
3 449 37 461
3 462 448 458
3 458 127 462
3 448 122 458
3 462 38 448
3 464 463 460
3 460 128 464
3 463 127 460
3 464 10 463
3 467 465 466
3 466 130 467
3 465 124 466
3 467 129 465
3 445 468 466
3 466 124 445
3 468 130 466
3 445 39 468
3 469 450 465
3 465 129 469
3 450 124 465
3 469 37 450
3 471 470 467
3 467 130 471
3 470 129 467
3 471 3 470
3 474 472 473
3 473 133 474
3 472 132 473
3 474 131 472
3 476 475 473
3 473 132 476
3 475 133 473
3 476 38 475
3 478 477 472
3 472 131 478
3 477 132 472
3 478 41 477
3 480 479 474
3 474 133 480
3 479 131 474
3 480 40 479
3 483 481 482
3 482 134 483
3 481 132 482
3 483 126 481
3 477 484 482
3 482 132 477
3 484 134 482
3 477 41 484
3 454 476 481
3 481 126 454
3 476 132 481
3 454 38 476
3 485 457 483
3 483 134 485
3 457 126 483
3 485 9 457
3 488 486 487
3 487 136 488
3 486 131 487
3 488 135 486
3 479 489 487
3 487 131 479
3 489 136 487
3 479 40 489
3 490 478 486
3 486 135 490
3 478 131 486
3 490 41 478
3 492 491 488
3 488 136 492
3 491 135 488
3 492 2 491
3 495 493 494
3 494 127 495
3 493 133 494
3 495 137 493
3 475 462 494
3 494 133 475
3 462 127 494
3 475 38 462
3 496 480 493
3 493 137 496
3 480 133 493
3 496 40 480
3 463 497 495
3 495 127 463
3 497 137 495
3 463 10 497
3 500 498 499
3 499 140 500
3 498 139 499
3 500 138 498
3 502 501 499
3 499 139 502
3 501 140 499
3 502 33 501
3 504 503 498
3 498 138 504
3 503 139 498
3 504 13 503
3 506 505 500
3 500 140 506
3 505 138 500
3 506 23 505
3 509 507 508
3 508 47 509
3 507 139 508
3 509 110 507
3 503 182 508
3 508 139 503
3 182 47 508
3 503 13 182
3 398 502 507
3 507 110 398
3 502 139 507
3 398 33 502
3 183 401 509
3 509 47 183
3 401 110 509
3 183 8 401
3 512 510 511
3 511 79 512
3 510 138 511
3 512 46 510
3 505 294 511
3 511 138 505
3 294 79 511
3 505 23 294
3 174 504 510
3 510 46 174
3 504 138 510
3 174 13 504
3 295 177 512
3 512 79 295
3 177 46 512
3 295 4 177
3 515 513 514
3 514 111 515
3 513 140 514
3 515 78 513
3 501 406 514
3 514 140 501
3 406 111 514
3 501 33 406
3 286 506 513
3 513 78 286
3 506 140 513
3 286 23 506
3 407 289 515
3 515 111 407
3 289 78 515
3 407 0 289
3 518 516 517
3 517 143 518
3 516 142 517
3 518 141 516
3 520 519 517
3 517 142 520
3 519 143 517
3 520 19 519
3 522 521 516
3 516 141 522
3 521 142 516
3 522 32 521
3 524 523 518
3 518 143 524
3 523 141 518
3 524 26 523
3 527 525 526
3 526 113 527
3 525 142 526
3 527 66 525
3 521 413 526
3 526 142 521
3 413 113 526
3 521 32 413
3 244 520 525
3 525 66 244
3 520 142 525
3 244 19 520
3 414 247 527
3 527 113 414
3 247 66 527
3 414 11 247
3 530 528 529
3 529 86 530
3 528 141 529
3 530 112 528
3 523 316 529
3 529 141 523
3 316 86 529
3 523 26 316
3 405 522 528
3 528 112 405
3 522 141 528
3 405 32 522
3 317 408 530
3 530 86 317
3 408 112 530
3 317 0 408
3 533 531 532
3 532 61 533
3 531 143 532
3 533 89 531
3 519 231 532
3 532 143 519
3 231 61 532
3 519 19 231
3 326 524 531
3 531 89 326
3 524 143 531
3 326 26 524
3 232 329 533
3 533 61 232
3 329 89 533
3 232 5 329
3 536 534 535
3 535 146 536
3 534 145 535
3 536 144 534
3 538 537 535
3 535 145 538
3 537 146 535
3 538 22 537
3 540 539 534
3 534 144 540
3 539 145 534
3 540 16 539
3 542 541 536
3 536 146 542
3 541 144 536
3 542 39 541
3 545 543 544
3 544 54 545
3 543 145 544
3 545 80 543
3 539 204 544
3 544 145 539
3 204 54 544
3 539 16 204
3 293 538 543
3 543 80 293
3 538 145 543
3 293 22 538
3 205 296 545
3 545 54 205
3 296 80 545
3 205 4 296
3 548 546 547
3 547 125 548
3 546 144 547
3 548 57 546
3 541 455 547
3 547 144 541
3 455 125 547
3 541 39 455
3 214 540 546
3 546 57 214
3 540 144 546
3 214 16 540
3 456 217 548
3 548 125 456
3 217 57 548
3 456 9 217
3 551 549 550
3 550 81 551
3 549 146 550
3 551 130 549
3 537 301 550
3 550 146 537
3 301 81 550
3 537 22 301
3 468 542 549
3 549 130 468
3 542 146 549
3 468 39 542
3 302 471 551
3 551 81 302
3 471 130 551
3 302 3 471
3 554 552 553
3 553 149 554
3 552 148 553
3 554 147 552
3 556 555 553
3 553 148 556
3 555 149 553
3 556 21 555
3 558 557 552
3 552 147 558
3 557 148 552
3 558 25 557
3 560 559 554
3 554 149 560
3 559 147 554
3 560 37 559
3 563 561 562
3 562 88 563
3 561 148 562
3 563 70 561
3 557 327 562
3 562 148 557
3 327 88 562
3 557 25 327
3 260 556 561
3 561 70 260
3 556 148 561
3 260 21 556
3 328 261 563
3 563 88 328
3 261 70 563
3 328 5 261
3 566 564 565
3 565 129 566
3 564 147 565
3 566 87 564
3 559 469 565
3 565 147 559
3 469 129 565
3 559 37 469
3 321 558 564
3 564 87 321
3 558 147 564
3 321 25 558
3 470 322 566
3 566 129 470
3 322 87 566
3 470 3 322
3 569 567 568
3 568 71 569
3 567 149 568
3 569 128 567
3 555 266 568
3 568 149 555
3 266 71 568
3 555 21 266
3 461 560 567
3 567 128 461
3 560 149 567
3 461 37 560
3 267 464 569
3 569 71 267
3 464 128 569
3 267 10 464
3 572 570 571
3 571 152 572
3 570 151 571
3 572 150 570
3 574 573 571
3 571 151 574
3 573 152 571
3 574 27 573
3 576 575 570
3 570 150 576
3 575 151 570
3 576 12 575
3 578 577 572
3 572 152 578
3 577 150 572
3 578 36 577
3 581 579 580
3 580 49 581
3 579 151 580
3 581 96 579
3 575 189 580
3 580 151 575
3 189 49 580
3 575 12 189
3 349 574 579
3 579 96 349
3 574 151 579
3 349 27 574
3 190 352 581
3 581 49 190
3 352 96 581
3 190 7 352
3 584 582 583
3 583 118 584
3 582 150 583
3 584 48 582
3 577 428 583
3 583 150 577
3 428 118 583
3 577 36 428
3 181 576 582
3 582 48 181
3 576 150 582
3 181 12 576
3 429 184 584
3 584 118 429
3 184 48 584
3 429 8 184
3 587 585 586
3 586 97 587
3 585 152 586
3 587 121 585
3 573 357 586
3 586 152 573
3 357 97 586
3 573 27 357
3 438 578 585
3 585 121 438
3 578 152 585
3 438 36 578
3 358 441 587
3 587 97 358
3 441 121 587
3 358 1 441
3 590 588 589
3 589 155 590
3 588 154 589
3 590 153 588
3 592 591 589
3 589 154 592
3 591 155 589
3 592 17 591
3 594 593 588
3 588 153 594
3 593 154 588
3 594 30 593
3 596 595 590
3 590 155 596
3 595 153 590
3 596 35 595
3 599 597 598
3 598 104 599
3 597 154 598
3 599 64 597
3 593 383 598
3 598 154 593
3 383 104 598
3 593 30 383
3 237 592 597
3 597 64 237
3 592 154 597
3 237 17 592
3 384 240 599
3 599 104 384
3 240 64 599
3 384 6 240
3 602 600 601
3 601 120 602
3 600 153 601
3 602 103 600
3 595 439 601
3 601 153 595
3 439 120 601
3 595 35 439
3 377 594 600
3 600 103 377
3 594 153 600
3 377 30 594
3 440 378 602
3 602 120 440
3 378 103 602
3 440 1 378
3 605 603 604
3 604 65 605
3 603 155 604
3 605 119 603
3 591 245 604
3 604 155 591
3 245 65 604
3 591 17 245
3 433 596 603
3 603 119 433
3 596 155 603
3 433 35 596
3 246 434 605
3 605 65 246
3 434 119 605
3 246 11 434
3 608 606 607
3 607 158 608
3 606 157 607
3 608 156 606
3 610 609 607
3 607 157 610
3 609 158 607
3 610 15 609
3 612 611 606
3 606 156 612
3 611 157 606
3 612 28 611
3 614 613 608
3 608 158 614
3 613 156 608
3 614 41 613
3 617 615 616
3 616 95 617
3 615 157 616
3 617 55 615
3 611 350 616
3 616 157 611
3 350 95 616
3 611 28 350
3 209 610 615
3 615 55 209
3 610 157 615
3 209 15 610
3 351 210 617
3 617 95 351
3 210 55 617
3 351 7 210
3 620 618 619
3 619 135 620
3 618 156 619
3 620 94 618
3 613 490 619
3 619 156 613
3 490 135 619
3 613 41 490
3 342 612 618
3 618 94 342
3 612 156 618
3 342 28 612
3 491 345 620
3 620 135 491
3 345 94 620
3 491 2 345
3 623 621 622
3 622 56 623
3 621 158 622
3 623 134 621
3 609 215 622
3 622 158 609
3 215 56 622
3 609 15 215
3 484 614 621
3 621 134 484
3 614 158 621
3 484 41 614
3 216 485 623
3 623 56 216
3 485 134 623
3 216 9 485
3 626 624 625
3 625 161 626
3 624 160 625
3 626 159 624
3 628 627 625
3 625 160 628
3 627 161 625
3 628 31 627
3 630 629 624
3 624 159 630
3 629 160 624
3 630 20 629
3 632 631 626
3 626 161 632
3 631 159 626
3 632 40 631
3 635 633 634
3 634 73 635
3 633 160 634
3 635 105 633
3 629 272 634
3 634 160 629
3 272 73 634
3 629 20 272
3 382 628 633
3 633 105 382
3 628 160 633
3 382 31 628
3 273 385 635
3 635 73 273
3 385 105 635
3 273 6 385
3 638 636 637
3 637 137 638
3 636 159 637
3 638 72 636
3 631 496 637
3 637 159 631
3 496 137 637
3 631 40 496
3 265 630 636
3 636 72 265
3 630 159 636
3 265 20 630
3 497 268 638
3 638 137 497
3 268 72 638
3 497 10 268
3 641 639 640
3 640 102 641
3 639 161 640
3 641 136 639
3 627 372 640
3 640 161 627
3 372 102 640
3 627 31 372
3 489 632 639
3 639 136 489
3 632 161 639
3 489 40 632
3 373 492 641
3 641 102 373
3 492 136 641
3 373 2 492
