# vtk DataFile Version 3.0
this file was written using fslvtkio
ASCII
DATASET POLYDATA
POINTS 642 float
128.429 113.155 77.7802
99.0673 109.167 74.9338
106.127 95.1782 67.9018
125.353 97.2098 70.8318
123.441 100.953 95.0825
123.683 102.936 55.2883
110.019 101.073 51.1262
104.77 99.0608 92.9542
113.268 112.21 86.3005
115.33 91.9182 77.3356
117.334 90.068 57.0681
114.106 115.827 69.2469
107.758 104.775 93.4908
118.679 106.113 94.2625
113.23 98.9723 98.6864
110.171 94.0232 87.5165
119.129 94.4123 88.6523
112.196 108.027 60.5456
118.272 101.519 45.427
119.362 109.826 61.8259
113.418 94.31 47.4452
123.481 94.6413 49.6885
124.435 99.8517 83.3689
127.268 108.349 88.8895
125.946 106.263 75.0508
125.718 99.1697 61.5312
124.918 109.864 67.616
100.273 105.19 86.2266
105.28 98.0851 81.1982
104.118 103.467 71.8588
105.765 106.634 64.755
107.321 96.5132 57.4784
122.276 118.089 73.7767
122.492 115.37 85.4686
112.524 118.182 80.0594
105.176 115.249 71.9483
103.61 113.348 84.5108
123.541 92.0343 62.9388
115.454 88.0656 68.7015
120.951 92.2798 73.914
110.16 90.5391 59.5774
110.598 92.0531 72.8778
113.173 105.362 93.6778
116.587 103.739 99.9158
109.351 102.931 99.5313
119.898 98.9838 99.1158
122.935 105.063 97.9949
116.144 108.462 88.6257
110.838 107.731 88.2344
103.657 102.462 96.1625
107.566 97.6349 97.6883
111.199 95.041 94.1086
116.874 95.7426 94.7457
114.454 94.1465 88.8801
121.484 96.7347 92.5364
107.309 95.6318 90.9489
112.887 92.9748 82.7311
117.143 93.5244 83.2949
115.25 104.087 52.3503
118.731 104.753 53.6586
115.999 107.647 60.4342
121.182 105.519 57.4627
121.505 102.335 49.679
114.011 101.117 46.6587
111.768 104.307 54.5245
112.77 112.893 64.6726
117.158 113.919 65.2675
118.64 95.675 47.7012
122.121 98.9146 45.2192
115.821 98.3358 42.9486
124.051 98.8535 51.2596
120.6 91.0502 52.5024
115.565 90.587 51.3653
111.137 97.1517 46.7786
125.712 104.577 86.228
127.207 106.97 81.5025
125.176 102.734 79.2226
128.425 109.608 76.2383
127.879 110.626 82.7351
125.922 105.137 92.9911
123.792 100.788 89.3371
124.628 98.7426 76.78
124.974 101.236 72.7251
125.227 102.453 68.3842
125.739 108.458 71.5181
123.541 104.246 65.2291
128.188 112.261 72.1209
125.611 98.4462 66.3201
124.753 100.826 58.2372
122.557 105.633 62.0335
102.857 101.874 84.1365
104.167 100.331 76.6798
101.677 103.93 78.8436
105.881 99.1385 70.1551
106.052 96.6395 74.4426
105.411 98.9547 87.2916
101.585 102.149 90.8012
99.6097 107.182 80.2168
100.432 106.069 73.5911
104.769 105.189 68.5681
106.649 99.8087 64.7463
108.227 101.572 60.9928
105.993 95.8592 62.7121
100.876 108.395 69.3571
108.825 103.283 57.5038
108.384 98.3193 53.3102
123.153 119.139 80.6705
118.099 118.746 83.7093
117.949 119.638 77.4934
112.449 116.526 84.3094
117.807 114.194 86.6758
126.51 115.512 82.2371
126.071 116.421 75.9791
118.075 117.608 71.3341
113.133 117.344 74.66
108.063 117.671 76.5462
106.909 117.545 82.8989
103.12 116.193 78.8441
108.322 113.241 86.2264
109.709 116.173 70.197
101.532 112.789 73.3853
100.026 112.192 80.2335
120.436 89.3817 66.4326
120.538 86.4005 70.8155
124.063 89.5958 68.6442
118.344 91.3076 75.891
115.502 86.9448 72.6851
116.24 90.6153 63.7589
120.513 90.9667 59.6861
125.231 93.8633 66.4386
124.099 94.0161 72.9482
110.001 90.2611 67.0601
111.284 85.8551 69.841
112.535 88.6931 65.1208
112.762 91.1687 75.3963
107.267 92.8217 70.7011
107.448 91.97 63.5367
113.661 90.5193 57.7041
123.637 107.723 92.4979
120.371 109.541 87.8606
125.23 111.591 86.648
124.767 114.529 70.2176
120.944 115.052 67.5746
122.463 110.464 64.329
120.478 93.4913 81.3102
122.214 96.9338 86.2892
123.315 95.6504 79.0645
126.475 94.9064 61.5806
125.283 96.3711 55.3684
124.014 92.1881 56.0534
106.629 108.012 86.8239
103.158 105.232 91.0034
101.768 109.067 85.0383
104.366 111.324 67.419
108.609 107.701 61.7778
108.392 112.984 65.56
107.518 94.4412 77.587
107.369 95.7434 84.4887
109.874 92.8323 80.2612
111.177 90.3738 52.4103
109.463 94.1 51.1287
107.643 92.6691 57.7745
114.536 104.524 96.8315
112.946 103.442 98.9814
111.48 104.014 96.5615
111.269 101.15 99.9531
114.874 101.411 99.7094
117.595 104.791 97.1736
115.963 105.64 94.0009
110.365 105.042 93.6104
108.456 103.584 96.5823
118.436 101.671 100.548
119.871 104.254 99.4314
121.456 102.149 99.8889
120.499 105.264 96.4524
116.732 99.3272 99.3298
122.055 99.9087 97.467
123.647 102.682 97.5739
114.747 106.664 91.1341
111.989 106.254 90.9203
113.477 108.131 88.3493
109.467 106.044 90.713
117.236 107.037 91.4059
114.763 110.353 87.1678
111.984 110.041 86.9491
106.445 102.282 98.4626
108.064 100.16 99.921
105.503 100.04 98.2742
110.204 98.2037 98.9817
105.748 103.463 95.3648
103.95 100.249 95.4885
105.822 98.3719 95.712
113.928 95.9 94.6325
115.703 94.3984 91.9422
112.888 93.6247 91.7621
116.873 94.2275 88.9851
118.121 94.2047 91.8936
115.295 97.6085 97.195
111.99 96.5517 97.2363
110.43 93.3253 90.952
112.206 93.8173 88.4249
119.356 95.7342 93.7923
118.091 97.0733 97.3918
120.705 97.6275 96.0636
120.56 94.8991 90.7177
122.425 98.8053 94.045
109.437 95.9707 96.534
109.065 94.8988 92.8499
107.334 96.5069 94.4952
108.591 94.2441 89.43
106.012 97.389 92.1969
113.556 94.3125 85.9411
115.95 94.5332 86.3607
114.897 93.4302 83.3404
117.943 94.5974 85.9874
111.779 93.9716 85.3338
114.308 92.6817 80.3183
116.059 92.9405 80.5736
117.022 104.152 52.7365
117.45 106.077 57.1001
115.436 105.718 56.6472
117.556 108.592 60.7131
118.744 106.957 58.5051
118.437 103.34 49.5022
116.729 102.998 48.63
113.916 105.935 57.0767
114.274 107.586 60.1552
120.01 105.463 55.5492
120.059 103.606 51.0208
121.564 104.197 53.362
119.924 102.001 47.3088
120.044 107.158 59.7036
122.565 104.392 56.2065
122.824 102.812 52.4941
114.843 102.737 48.8124
113.606 104.392 53.3996
112.901 102.91 50.5517
112.219 105.844 57.4989
116.098 101.447 45.3567
112.026 101.312 48.9188
110.938 102.904 52.2595
114.431 110.348 62.2757
116.4 110.925 62.5847
115.048 112.625 64.5946
118.42 112.163 63.4672
112.242 110.826 62.3485
113.449 114.49 67.0852
115.643 114.966 67.2787
120.231 97.5282 45.9053
119.282 98.9324 43.2948
117.831 97.5602 45.2349
117.092 100.221 43.0647
120.343 100.589 44.563
122.532 96.7859 47.2297
120.963 95.4763 48.42
116.232 95.5705 47.1389
115.088 96.7842 45.394
121.833 100.593 47.2003
123.125 98.6347 48.1608
122.996 100.881 50.4663
124.211 96.8161 49.6114
124.039 101.04 53.2366
119.733 93.11 49.7499
117.206 93.3751 49.3843
118.127 90.8545 51.2616
114.959 92.9682 48.9035
121.971 92.979 50.7345
118.896 90.1173 54.3794
116.708 89.9748 53.9039
113.006 97.5415 44.1973
114.472 99.8047 44.2691
112.203 99.4758 46.7461
112.057 95.3557 46.3323
110.471 99.2121 48.9771
126.692 105.584 83.7067
126.175 104.996 80.1426
125.46 103.775 82.4413
125.694 104.388 77.1094
126.604 106.427 78.2978
127.31 107.61 85.1068
127.051 106.26 87.7386
124.902 102.557 84.6975
125.03 101.329 81.673
127.525 108.364 78.62
127.473 108.872 82.1674
128.575 109.955 79.2528
127.282 109.451 85.7021
126.821 108.054 76.0187
129.242 111.174 76.7509
128.641 111.875 80.159
125.693 104.975 89.6098
124.518 102.759 87.7301
124.477 103.132 91.3042
124.053 100.513 86.212
127.53 106.724 91.2481
124.581 103.206 94.5821
123.735 100.89 92.348
124.95 100.605 78.3976
124.981 102.228 76.0716
124.766 100.158 74.9833
125.345 103.575 73.9649
124.651 99.2012 80.1593
124.859 98.0385 73.5917
124.945 99.3619 71.772
124.984 105.951 70.2909
124.082 106.602 68.8156
124.886 103.447 66.5741
123.818 107.193 66.8774
125.645 109.132 69.3229
125.676 107.603 73.2618
125.695 104.588 71.7407
125.377 100.88 65.0635
124.445 101.548 63.4146
127.901 110.17 71.2863
127.178 109.173 73.7739
129.115 110.801 73.9125
127.033 111.14 69.5754
128.592 112.762 74.887
125.096 101.972 70.6037
125.31 100.195 67.0337
125.043 99.8109 69.4206
125.703 98.9149 63.9727
125.486 97.9264 68.7173
123.552 102.132 61.9757
122.975 105.13 63.7558
123.931 103.375 60.1445
123.672 107.833 64.994
125.043 100.038 60.0484
124.369 102.027 56.7499
123.321 104.278 58.7093
103.453 101.042 80.1647
103.037 102.422 77.6829
102.137 102.7 81.3298
102.907 103.865 75.2487
103.977 101.825 74.2857
104.538 99.1573 79.3156
104.18 100.231 82.7842
101.264 103.333 85.1021
100.836 104.334 82.4733
104.994 99.835 73.3825
105.496 98.7431 75.9344
106.004 97.9342 72.4443
105.692 97.4713 77.7636
105.074 101.145 71.0816
106.024 97.1789 69.0807
106.141 96.0455 71.0446
104.191 100.561 86.0551
102.397 102.21 87.4232
103.703 100.865 89.3418
100.323 103.493 88.7178
105.304 98.662 84.1988
104.921 99.1584 90.1988
103.236 100.769 92.4297
100.503 105.418 79.721
101.321 104.97 76.1572
99.7064 106.372 76.7406
102.748 104.877 73.4073
100.315 106.129 83.0446
98.9468 108.005 77.4419
98.9018 107.198 73.9288
106.427 102.915 66.7543
107.611 100.945 63.0291
106.956 103.604 65.1096
107.649 98.9025 59.2669
106.975 98.1034 61.261
105.489 101.705 68.3084
104.797 104.512 70.1198
105.216 105.84 66.6253
107.323 104.221 63.2782
106.269 97.7007 63.7037
106.141 99.4486 67.6067
106.046 97.3319 66.3886
106.407 95.9859 59.9421
106.057 95.5406 65.4651
102.55 105.616 71.214
102.375 106.478 68.9038
99.8436 106.737 71.02
103.225 107.811 67.2823
99.4385 108.724 71.843
108.238 102.506 59.3288
107.764 99.8761 57.1868
108.083 100.964 55.253
108.006 97.5497 55.6226
108.139 104.716 61.4745
108.975 102.465 54.126
108.84 99.7793 51.9667
120.767 119.297 82.319
118.15 119.383 80.6619
120.601 119.707 79.1628
115.485 118.99 79.0793
115.489 118.749 81.8123
120.526 117.625 84.8305
122.908 118.041 83.7268
122.519 118.785 77.3948
120.35 119.077 76.0915
115.307 117.65 84.0859
117.87 116.844 85.6064
115.315 115.739 85.7618
120.157 114.977 86.1251
112.399 117.75 82.4185
112.708 114.609 85.5579
115.413 113.185 86.637
125.083 117.681 81.7125
124.764 117.994 78.441
126.545 116.422 79.2815
124.206 117.636 75.21
124.743 116.061 84.2539
127.953 114.426 79.9279
127.558 114.879 76.7009
118.049 118.749 74.4617
115.545 118.568 76.1386
115.711 117.794 73.1629
112.919 118.09 77.3873
120.176 118.129 72.6518
116.01 116.795 70.0381
113.574 116.782 71.7555
107.562 117.989 79.6782
104.839 117.477 80.94
105.447 117.426 77.6097
102.736 115.702 81.9299
104.663 115.989 83.8105
109.568 118.065 81.3996
110.139 118.105 78.5483
106.157 116.487 74.5616
103.876 115.8 75.7568
107.237 115.743 84.8738
109.689 117.261 83.863
109.988 115.381 85.6956
105.806 113.509 85.4226
110.898 112.716 86.539
110.651 117.67 75.7118
108.64 116.768 73.6016
111.096 116.79 72.7367
107.301 116.095 71.0599
111.948 115.947 69.7184
101.871 114.494 76.3751
101.236 114.347 79.5346
100.225 112.692 76.8682
101.541 113.36 82.5961
103.303 114.234 72.9448
100.116 110.97 73.8279
99.2214 110.605 77.4349
120.81 86.579 68.1768
123.614 86.2564 69.2535
122.751 87.9062 67.2332
122.924 89.3169 70.6688
121.939 88.2255 71.4992
118.432 87.6214 69.9114
118.643 89.4106 68.0444
122.028 90.2142 64.8655
123.43 90.6497 66.3431
119.846 88.716 73.1064
118.048 86.8778 72.1741
117.565 89.1462 74.2123
115.561 86.4334 70.2818
119.989 91.2497 74.5217
116.678 91.6671 76.6755
115.447 89.3106 74.8632
118.444 90.6717 65.4152
120.318 90.5866 63.5398
118.547 90.6435 62.0207
122.068 91.355 61.4543
116.027 89.8797 66.8735
116.702 90.4958 60.3504
119.028 90.2141 58.3361
123.793 92.2365 67.9026
122.926 91.971 70.4179
124.279 93.7241 69.7546
122.122 92.7815 73.0624
124.681 92.4894 64.8027
125.551 95.326 68.6137
125.077 95.626 71.9223
109.926 87.7549 68.5265
111.677 85.7988 67.1949
110.782 89.0189 65.795
113.729 88.1711 67.1292
113.663 85.6055 68.7963
110.717 88.8432 70.7413
110.08 90.4356 69.7459
109.888 90.2642 63.4622
111.304 89.9713 62.3928
113.415 86.2225 71.398
112.115 88.6394 72.2429
113.77 88.9124 73.9263
111.675 91.3111 73.7745
114.036 91.5204 76.8316
109.429 92.075 68.6657
109.08 91.4554 65.2806
107.721 92.5902 67.188
108.549 90.9678 61.3089
108.902 92.3109 71.936
106.307 93.8999 69.4247
106.277 93.2815 65.8822
113.078 90.3634 61.8544
114.29 89.6607 64.7833
114.793 90.4251 60.8694
111.854 90.424 58.6772
115.488 90.2332 57.2789
121.727 108.328 90.1875
122.649 110.563 87.26
124.077 109.294 89.0744
124.13 113.52 85.9063
121.5 112.523 86.5554
119.424 107.497 90.9301
121.11 106.723 93.4476
126.035 108.522 90.9334
126.392 110.197 87.6321
119.41 112.059 86.7911
118.298 109.069 88.1642
116.992 111.207 87.0829
122.98 106.42 95.0136
126.205 107.286 93.5334
124.926 105.074 95.655
127.02 111.598 85.0788
126.197 113.973 84.5702
127.552 113.135 82.3309
122.904 115.023 68.7335
122.002 112.928 65.6422
123.789 112.786 67.2546
120.877 110.082 62.7056
120.208 112.809 64.5718
121.609 116.672 70.6856
123.657 116.451 71.9675
125.467 112.289 68.5844
123.686 110.346 66.0959
119.121 114.623 66.2608
119.686 116.615 69.4743
117.639 115.805 68.249
125.359 115.676 73.1203
126.504 113.487 71.1764
127.172 114.396 73.8991
122.548 108.032 63.3224
121.171 107.593 61.4251
121.936 105.618 59.853
121.132 95.3929 83.8103
122.739 96.2768 82.6164
122.03 94.418 80.2703
123.741 97.7626 81.3787
123.402 98.2356 84.7384
120.714 95.7226 87.383
119.583 94.8677 85.1243
121.026 92.9832 77.492
122.742 93.5525 76.8405
123.036 98.714 87.8196
121.933 96.7144 89.5741
122.956 98.7564 91.0451
118.854 93.3063 82.5822
119.331 92.678 78.1956
117.613 92.941 79.4825
123.831 94.5445 75.8257
124.061 97.2055 78.0061
124.72 96.435 74.8368
125.827 95.5314 58.374
124.824 94.2067 55.2239
125.374 93.5178 58.5617
123.859 93.0643 52.6245
124.646 95.309 52.2045
125.893 97.6482 58.4572
126.314 96.9685 61.2692
125.474 93.1541 61.7309
123.878 92.1046 59.5504
124.789 97.3964 52.8656
125.288 98.528 56.5476
124.782 99.7985 54.7358
126.698 96.7781 63.9198
126.341 93.9607 63.9617
126.253 96.0452 66.4839
122.338 91.1328 57.6968
122.492 91.42 53.6989
120.681 90.4396 56.0354
105.146 106.376 88.7441
102.884 106.907 87.5132
104.282 108.652 86.1611
100.845 107.116 85.5133
101.21 105.39 88.8755
105.452 104.859 92.2057
107.285 106.066 90.0891
105.212 110.722 85.6435
102.473 111.259 84.76
100.441 104.225 91.4967
103.364 104.097 93.557
101.941 102.114 93.5927
108.751 107.891 87.3744
107.412 110.738 86.1153
109.795 110.442 86.6822
100.788 110.857 82.6279
100.306 108.299 82.7992
99.4138 109.58 79.9797
106.164 109.848 64.3924
108.17 110.483 63.2386
106.35 112.337 66.3304
110.167 111.047 62.7379
110.514 107.836 61.0225
107.11 107.064 63.0014
104.626 108.718 65.658
104.678 113.585 69.5059
106.87 114.454 68.6753
110.719 105.589 58.7009
109.252 105.146 60.0124
110.094 103.964 55.8783
102.587 109.782 68.1157
103.03 112.294 70.4648
101.053 110.632 70.9567
109.022 114.84 67.8727
110.609 113.112 64.8266
111.306 114.704 67.3012
107.489 95.1977 81.0556
108.856 94.463 82.6056
108.554 93.413 78.896
110.21 94.0066 84.1352
108.75 94.764 85.9769
106.116 96.7347 82.8173
106.308 96.2073 79.4499
108.442 92.5233 75.5051
109.864 92.0722 76.5273
107.487 95.6419 87.8921
106.393 97.1423 86.0191
106.15 97.2706 89.2314
106.631 95.5425 76.1455
107.499 93.4143 74.1274
106.618 94.6302 72.6771
111.273 92.1239 77.7378
111.22 92.6485 81.833
112.729 92.3257 79.147
110.334 92.0908 51.08
108.967 93.1562 54.1171
109.405 91.4968 54.4786
107.494 94.3503 57.0694
108.193 95.0967 54.2424
111.061 93.6002 48.6633
112.445 91.9852 49.3943
110.472 90.4075 56.0184
108.699 91.2556 57.9891
108.823 96.0924 52.1182
110.306 95.3147 48.6957
109.676 97.4029 49.8572
113.403 90.8997 51.1767
112.219 90.097 54.9346
114.516 90.1661 54.3662
107.256 92.0577 60.672
106.394 93.9695 60.1978
106.113 93.5934 63.1329
POLYGONS 1280  5120
3 164 162 163
3 163 44 164
3 162 43 163
3 164 42 162
3 166 165 163
3 163 43 166
3 165 44 163
3 166 14 165
3 168 167 162
3 162 42 168
3 167 43 162
3 168 13 167
3 170 169 164
3 164 44 170
3 169 42 164
3 170 12 169
3 173 171 172
3 172 46 173
3 171 43 172
3 173 45 171
3 167 174 172
3 172 43 167
3 174 46 172
3 167 13 174
3 175 166 171
3 171 45 175
3 166 43 171
3 175 14 166
3 177 176 173
3 173 46 177
3 176 45 173
3 177 4 176
3 180 178 179
3 179 48 180
3 178 42 179
3 180 47 178
3 169 181 179
3 179 42 169
3 181 48 179
3 169 12 181
3 182 168 178
3 178 47 182
3 168 42 178
3 182 13 168
3 184 183 180
3 180 48 184
3 183 47 180
3 184 8 183
3 187 185 186
3 186 50 187
3 185 44 186
3 187 49 185
3 165 188 186
3 186 44 165
3 188 50 186
3 165 14 188
3 189 170 185
3 185 49 189
3 170 44 185
3 189 12 170
3 191 190 187
3 187 50 191
3 190 49 187
3 191 7 190
3 194 192 193
3 193 53 194
3 192 52 193
3 194 51 192
3 196 195 193
3 193 52 196
3 195 53 193
3 196 16 195
3 198 197 192
3 192 51 198
3 197 52 192
3 198 14 197
3 200 199 194
3 194 53 200
3 199 51 194
3 200 15 199
3 203 201 202
3 202 45 203
3 201 52 202
3 203 54 201
3 197 175 202
3 202 52 197
3 175 45 202
3 197 14 175
3 204 196 201
3 201 54 204
3 196 52 201
3 204 16 196
3 176 205 203
3 203 45 176
3 205 54 203
3 176 4 205
3 208 206 207
3 207 55 208
3 206 51 207
3 208 50 206
3 199 209 207
3 207 51 199
3 209 55 207
3 199 15 209
3 188 198 206
3 206 50 188
3 198 51 206
3 188 14 198
3 210 191 208
3 208 55 210
3 191 50 208
3 210 7 191
3 213 211 212
3 212 57 213
3 211 53 212
3 213 56 211
3 195 214 212
3 212 53 195
3 214 57 212
3 195 16 214
3 215 200 211
3 211 56 215
3 200 53 211
3 215 15 200
3 217 216 213
3 213 57 217
3 216 56 213
3 217 9 216
3 220 218 219
3 219 60 220
3 218 59 219
3 220 58 218
3 222 221 219
3 219 59 222
3 221 60 219
3 222 19 221
3 224 223 218
3 218 58 224
3 223 59 218
3 224 18 223
3 226 225 220
3 220 60 226
3 225 58 220
3 226 17 225
3 229 227 228
3 228 62 229
3 227 59 228
3 229 61 227
3 223 230 228
3 228 59 223
3 230 62 228
3 223 18 230
3 231 222 227
3 227 61 231
3 222 59 227
3 231 19 222
3 233 232 229
3 229 62 233
3 232 61 229
3 233 5 232
3 236 234 235
3 235 64 236
3 234 58 235
3 236 63 234
3 225 237 235
3 235 58 225
3 237 64 235
3 225 17 237
3 238 224 234
3 234 63 238
3 224 58 234
3 238 18 224
3 240 239 236
3 236 64 240
3 239 63 236
3 240 6 239
3 243 241 242
3 242 66 243
3 241 60 242
3 243 65 241
3 221 244 242
3 242 60 221
3 244 66 242
3 221 19 244
3 245 226 241
3 241 65 245
3 226 60 241
3 245 17 226
3 247 246 243
3 243 66 247
3 246 65 243
3 247 11 246
3 250 248 249
3 249 69 250
3 248 68 249
3 250 67 248
3 252 251 249
3 249 68 252
3 251 69 249
3 252 18 251
3 254 253 248
3 248 67 254
3 253 68 248
3 254 21 253
3 256 255 250
3 250 69 256
3 255 67 250
3 256 20 255
3 259 257 258
3 258 70 259
3 257 68 258
3 259 62 257
3 253 260 258
3 258 68 253
3 260 70 258
3 253 21 260
3 230 252 257
3 257 62 230
3 252 68 257
3 230 18 252
3 261 233 259
3 259 70 261
3 233 62 259
3 261 5 233
3 264 262 263
3 263 72 264
3 262 67 263
3 264 71 262
3 255 265 263
3 263 67 255
3 265 72 263
3 255 20 265
3 266 254 262
3 262 71 266
3 254 67 262
3 266 21 254
3 268 267 264
3 264 72 268
3 267 71 264
3 268 10 267
3 271 269 270
3 270 63 271
3 269 69 270
3 271 73 269
3 251 238 270
3 270 69 251
3 238 63 270
3 251 18 238
3 272 256 269
3 269 73 272
3 256 69 269
3 272 20 256
3 239 273 271
3 271 63 239
3 273 73 271
3 239 6 273
3 276 274 275
3 275 76 276
3 274 75 275
3 276 74 274
3 278 277 275
3 275 75 278
3 277 76 275
3 278 24 277
3 280 279 274
3 274 74 280
3 279 75 274
3 280 23 279
3 282 281 276
3 276 76 282
3 281 74 276
3 282 22 281
3 285 283 284
3 284 78 285
3 283 75 284
3 285 77 283
3 279 286 284
3 284 75 279
3 286 78 284
3 279 23 286
3 287 278 283
3 283 77 287
3 278 75 283
3 287 24 278
3 289 288 285
3 285 78 289
3 288 77 285
3 289 0 288
3 292 290 291
3 291 80 292
3 290 74 291
3 292 79 290
3 281 293 291
3 291 74 281
3 293 80 291
3 281 22 293
3 294 280 290
3 290 79 294
3 280 74 290
3 294 23 280
3 296 295 292
3 292 80 296
3 295 79 292
3 296 4 295
3 299 297 298
3 298 82 299
3 297 76 298
3 299 81 297
3 277 300 298
3 298 76 277
3 300 82 298
3 277 24 300
3 301 282 297
3 297 81 301
3 282 76 297
3 301 22 282
3 303 302 299
3 299 82 303
3 302 81 299
3 303 3 302
3 306 304 305
3 305 85 306
3 304 84 305
3 306 83 304
3 308 307 305
3 305 84 308
3 307 85 305
3 308 26 307
3 310 309 304
3 304 83 310
3 309 84 304
3 310 24 309
3 312 311 306
3 306 85 312
3 311 83 306
3 312 25 311
3 315 313 314
3 314 77 315
3 313 84 314
3 315 86 313
3 309 287 314
3 314 84 309
3 287 77 314
3 309 24 287
3 316 308 313
3 313 86 316
3 308 84 313
3 316 26 308
3 288 317 315
3 315 77 288
3 317 86 315
3 288 0 317
3 320 318 319
3 319 87 320
3 318 83 319
3 320 82 318
3 311 321 319
3 319 83 311
3 321 87 319
3 311 25 321
3 300 310 318
3 318 82 300
3 310 83 318
3 300 24 310
3 322 303 320
3 320 87 322
3 303 82 320
3 322 3 303
3 325 323 324
3 324 89 325
3 323 85 324
3 325 88 323
3 307 326 324
3 324 85 307
3 326 89 324
3 307 26 326
3 327 312 323
3 323 88 327
3 312 85 323
3 327 25 312
3 329 328 325
3 325 89 329
3 328 88 325
3 329 5 328
3 332 330 331
3 331 92 332
3 330 91 331
3 332 90 330
3 334 333 331
3 331 91 334
3 333 92 331
3 334 29 333
3 336 335 330
3 330 90 336
3 335 91 330
3 336 28 335
3 338 337 332
3 332 92 338
3 337 90 332
3 338 27 337
3 341 339 340
3 340 94 341
3 339 91 340
3 341 93 339
3 335 342 340
3 340 91 335
3 342 94 340
3 335 28 342
3 343 334 339
3 339 93 343
3 334 91 339
3 343 29 334
3 345 344 341
3 341 94 345
3 344 93 341
3 345 2 344
3 348 346 347
3 347 96 348
3 346 90 347
3 348 95 346
3 337 349 347
3 347 90 337
3 349 96 347
3 337 27 349
3 350 336 346
3 346 95 350
3 336 90 346
3 350 28 336
3 352 351 348
3 348 96 352
3 351 95 348
3 352 7 351
3 355 353 354
3 354 98 355
3 353 92 354
3 355 97 353
3 333 356 354
3 354 92 333
3 356 98 354
3 333 29 356
3 357 338 353
3 353 97 357
3 338 92 353
3 357 27 338
3 359 358 355
3 355 98 359
3 358 97 355
3 359 1 358
3 362 360 361
3 361 101 362
3 360 100 361
3 362 99 360
3 364 363 361
3 361 100 364
3 363 101 361
3 364 31 363
3 366 365 360
3 360 99 366
3 365 100 360
3 366 29 365
3 368 367 362
3 362 101 368
3 367 99 362
3 368 30 367
3 371 369 370
3 370 93 371
3 369 100 370
3 371 102 369
3 365 343 370
3 370 100 365
3 343 93 370
3 365 29 343
3 372 364 369
3 369 102 372
3 364 100 369
3 372 31 364
3 344 373 371
3 371 93 344
3 373 102 371
3 344 2 373
3 376 374 375
3 375 103 376
3 374 99 375
3 376 98 374
3 367 377 375
3 375 99 367
3 377 103 375
3 367 30 377
3 356 366 374
3 374 98 356
3 366 99 374
3 356 29 366
3 378 359 376
3 376 103 378
3 359 98 376
3 378 1 359
3 381 379 380
3 380 105 381
3 379 101 380
3 381 104 379
3 363 382 380
3 380 101 363
3 382 105 380
3 363 31 382
3 383 368 379
3 379 104 383
3 368 101 379
3 383 30 368
3 385 384 381
3 381 105 385
3 384 104 381
3 385 6 384
3 388 386 387
3 387 108 388
3 386 107 387
3 388 106 386
3 390 389 387
3 387 107 390
3 389 108 387
3 390 34 389
3 392 391 386
3 386 106 392
3 391 107 386
3 392 33 391
3 394 393 388
3 388 108 394
3 393 106 388
3 394 32 393
3 397 395 396
3 396 110 397
3 395 107 396
3 397 109 395
3 391 398 396
3 396 107 391
3 398 110 396
3 391 33 398
3 399 390 395
3 395 109 399
3 390 107 395
3 399 34 390
3 401 400 397
3 397 110 401
3 400 109 397
3 401 8 400
3 404 402 403
3 403 112 404
3 402 106 403
3 404 111 402
3 393 405 403
3 403 106 393
3 405 112 403
3 393 32 405
3 406 392 402
3 402 111 406
3 392 106 402
3 406 33 392
3 408 407 404
3 404 112 408
3 407 111 404
3 408 0 407
3 411 409 410
3 410 114 411
3 409 108 410
3 411 113 409
3 389 412 410
3 410 108 389
3 412 114 410
3 389 34 412
3 413 394 409
3 409 113 413
3 394 108 409
3 413 32 394
3 415 414 411
3 411 114 415
3 414 113 411
3 415 11 414
3 418 416 417
3 417 117 418
3 416 116 417
3 418 115 416
3 420 419 417
3 417 116 420
3 419 117 417
3 420 36 419
3 422 421 416
3 416 115 422
3 421 116 416
3 422 34 421
3 424 423 418
3 418 117 424
3 423 115 418
3 424 35 423
3 427 425 426
3 426 109 427
3 425 116 426
3 427 118 425
3 421 399 426
3 426 116 421
3 399 109 426
3 421 34 399
3 428 420 425
3 425 118 428
3 420 116 425
3 428 36 420
3 400 429 427
3 427 109 400
3 429 118 427
3 400 8 429
3 432 430 431
3 431 119 432
3 430 115 431
3 432 114 430
3 423 433 431
3 431 115 423
3 433 119 431
3 423 35 433
3 412 422 430
3 430 114 412
3 422 115 430
3 412 34 422
3 434 415 432
3 432 119 434
3 415 114 432
3 434 11 415
3 437 435 436
3 436 121 437
3 435 117 436
3 437 120 435
3 419 438 436
3 436 117 419
3 438 121 436
3 419 36 438
3 439 424 435
3 435 120 439
3 424 117 435
3 439 35 424
3 441 440 437
3 437 121 441
3 440 120 437
3 441 1 440
3 444 442 443
3 443 124 444
3 442 123 443
3 444 122 442
3 446 445 443
3 443 123 446
3 445 124 443
3 446 39 445
3 448 447 442
3 442 122 448
3 447 123 442
3 448 38 447
3 450 449 444
3 444 124 450
3 449 122 444
3 450 37 449
3 453 451 452
3 452 126 453
3 451 123 452
3 453 125 451
3 447 454 452
3 452 123 447
3 454 126 452
3 447 38 454
3 455 446 451
3 451 125 455
3 446 123 451
3 455 39 446
3 457 456 453
3 453 126 457
3 456 125 453
3 457 9 456
3 460 458 459
3 459 128 460
3 458 122 459
3 460 127 458
3 449 461 459
3 459 122 449
3 461 128 459
3 449 37 461
3 462 448 458
3 458 127 462
3 448 122 458
3 462 38 448
3 464 463 460
3 460 128 464
3 463 127 460
3 464 10 463
3 467 465 466
3 466 130 467
3 465 124 466
3 467 129 465
3 445 468 466
3 466 124 445
3 468 130 466
3 445 39 468
3 469 450 465
3 465 129 469
3 450 124 465
3 469 37 450
3 471 470 467
3 467 130 471
3 470 129 467
3 471 3 470
3 474 472 473
3 473 133 474
3 472 132 473
3 474 131 472
3 476 475 473
3 473 132 476
3 475 133 473
3 476 38 475
3 478 477 472
3 472 131 478
3 477 132 472
3 478 41 477
3 480 479 474
3 474 133 480
3 479 131 474
3 480 40 479
3 483 481 482
3 482 134 483
3 481 132 482
3 483 126 481
3 477 484 482
3 482 132 477
3 484 134 482
3 477 41 484
3 454 476 481
3 481 126 454
3 476 132 481
3 454 38 476
3 485 457 483
3 483 134 485
3 457 126 483
3 485 9 457
3 488 486 487
3 487 136 488
3 486 131 487
3 488 135 486
3 479 489 487
3 487 131 479
3 489 136 487
3 479 40 489
3 490 478 486
3 486 135 490
3 478 131 486
3 490 41 478
3 492 491 488
3 488 136 492
3 491 135 488
3 492 2 491
3 495 493 494
3 494 127 495
3 493 133 494
3 495 137 493
3 475 462 494
3 494 133 475
3 462 127 494
3 475 38 462
3 496 480 493
3 493 137 496
3 480 133 493
3 496 40 480
3 463 497 495
3 495 127 463
3 497 137 495
3 463 10 497
3 500 498 499
3 499 140 500
3 498 139 499
3 500 138 498
3 502 501 499
3 499 139 502
3 501 140 499
3 502 33 501
3 504 503 498
3 498 138 504
3 503 139 498
3 504 13 503
3 506 505 500
3 500 140 506
3 505 138 500
3 506 23 505
3 509 507 508
3 508 47 509
3 507 139 508
3 509 110 507
3 503 182 508
3 508 139 503
3 182 47 508
3 503 13 182
3 398 502 507
3 507 110 398
3 502 139 507
3 398 33 502
3 183 401 509
3 509 47 183
3 401 110 509
3 183 8 401
3 512 510 511
3 511 79 512
3 510 138 511
3 512 46 510
3 505 294 511
3 511 138 505
3 294 79 511
3 505 23 294
3 174 504 510
3 510 46 174
3 504 138 510
3 174 13 504
3 295 177 512
3 512 79 295
3 177 46 512
3 295 4 177
3 515 513 514
3 514 111 515
3 513 140 514
3 515 78 513
3 501 406 514
3 514 140 501
3 406 111 514
3 501 33 406
3 286 506 513
3 513 78 286
3 506 140 513
3 286 23 506
3 407 289 515
3 515 111 407
3 289 78 515
3 407 0 289
3 518 516 517
3 517 143 518
3 516 142 517
3 518 141 516
3 520 519 517
3 517 142 520
3 519 143 517
3 520 19 519
3 522 521 516
3 516 141 522
3 521 142 516
3 522 32 521
3 524 523 518
3 518 143 524
3 523 141 518
3 524 26 523
3 527 525 526
3 526 113 527
3 525 142 526
3 527 66 525
3 521 413 526
3 526 142 521
3 413 113 526
3 521 32 413
3 244 520 525
3 525 66 244
3 520 142 525
3 244 19 520
3 414 247 527
3 527 113 414
3 247 66 527
3 414 11 247
3 530 528 529
3 529 86 530
3 528 141 529
3 530 112 528
3 523 316 529
3 529 141 523
3 316 86 529
3 523 26 316
3 405 522 528
3 528 112 405
3 522 141 528
3 405 32 522
3 317 408 530
3 530 86 317
3 408 112 530
3 317 0 408
3 533 531 532
3 532 61 533
3 531 143 532
3 533 89 531
3 519 231 532
3 532 143 519
3 231 61 532
3 519 19 231
3 326 524 531
3 531 89 326
3 524 143 531
3 326 26 524
3 232 329 533
3 533 61 232
3 329 89 533
3 232 5 329
3 536 534 535
3 535 146 536
3 534 145 535
3 536 144 534
3 538 537 535
3 535 145 538
3 537 146 535
3 538 22 537
3 540 539 534
3 534 144 540
3 539 145 534
3 540 16 539
3 542 541 536
3 536 146 542
3 541 144 536
3 542 39 541
3 545 543 544
3 544 54 545
3 543 145 544
3 545 80 543
3 539 204 544
3 544 145 539
3 204 54 544
3 539 16 204
3 293 538 543
3 543 80 293
3 538 145 543
3 293 22 538
3 205 296 545
3 545 54 205
3 296 80 545
3 205 4 296
3 548 546 547
3 547 125 548
3 546 144 547
3 548 57 546
3 541 455 547
3 547 144 541
3 455 125 547
3 541 39 455
3 214 540 546
3 546 57 214
3 540 144 546
3 214 16 540
3 456 217 548
3 548 125 456
3 217 57 548
3 456 9 217
3 551 549 550
3 550 81 551
3 549 146 550
3 551 130 549
3 537 301 550
3 550 146 537
3 301 81 550
3 537 22 301
3 468 542 549
3 549 130 468
3 542 146 549
3 468 39 542
3 302 471 551
3 551 81 302
3 471 130 551
3 302 3 471
3 554 552 553
3 553 149 554
3 552 148 553
3 554 147 552
3 556 555 553
3 553 148 556
3 555 149 553
3 556 21 555
3 558 557 552
3 552 147 558
3 557 148 552
3 558 25 557
3 560 559 554
3 554 149 560
3 559 147 554
3 560 37 559
3 563 561 562
3 562 88 563
3 561 148 562
3 563 70 561
3 557 327 562
3 562 148 557
3 327 88 562
3 557 25 327
3 260 556 561
3 561 70 260
3 556 148 561
3 260 21 556
3 328 261 563
3 563 88 328
3 261 70 563
3 328 5 261
3 566 564 565
3 565 129 566
3 564 147 565
3 566 87 564
3 559 469 565
3 565 147 559
3 469 129 565
3 559 37 469
3 321 558 564
3 564 87 321
3 558 147 564
3 321 25 558
3 470 322 566
3 566 129 470
3 322 87 566
3 470 3 322
3 569 567 568
3 568 71 569
3 567 149 568
3 569 128 567
3 555 266 568
3 568 149 555
3 266 71 568
3 555 21 266
3 461 560 567
3 567 128 461
3 560 149 567
3 461 37 560
3 267 464 569
3 569 71 267
3 464 128 569
3 267 10 464
3 572 570 571
3 571 152 572
3 570 151 571
3 572 150 570
3 574 573 571
3 571 151 574
3 573 152 571
3 574 27 573
3 576 575 570
3 570 150 576
3 575 151 570
3 576 12 575
3 578 577 572
3 572 152 578
3 577 150 572
3 578 36 577
3 581 579 580
3 580 49 581
3 579 151 580
3 581 96 579
3 575 189 580
3 580 151 575
3 189 49 580
3 575 12 189
3 349 574 579
3 579 96 349
3 574 151 579
3 349 27 574
3 190 352 581
3 581 49 190
3 352 96 581
3 190 7 352
3 584 582 583
3 583 118 584
3 582 150 583
3 584 48 582
3 577 428 583
3 583 150 577
3 428 118 583
3 577 36 428
3 181 576 582
3 582 48 181
3 576 150 582
3 181 12 576
3 429 184 584
3 584 118 429
3 184 48 584
3 429 8 184
3 587 585 586
3 586 97 587
3 585 152 586
3 587 121 585
3 573 357 586
3 586 152 573
3 357 97 586
3 573 27 357
3 438 578 585
3 585 121 438
3 578 152 585
3 438 36 578
3 358 441 587
3 587 97 358
3 441 121 587
3 358 1 441
3 590 588 589
3 589 155 590
3 588 154 589
3 590 153 588
3 592 591 589
3 589 154 592
3 591 155 589
3 592 17 591
3 594 593 588
3 588 153 594
3 593 154 588
3 594 30 593
3 596 595 590
3 590 155 596
3 595 153 590
3 596 35 595
3 599 597 598
3 598 104 599
3 597 154 598
3 599 64 597
3 593 383 598
3 598 154 593
3 383 104 598
3 593 30 383
3 237 592 597
3 597 64 237
3 592 154 597
3 237 17 592
3 384 240 599
3 599 104 384
3 240 64 599
3 384 6 240
3 602 600 601
3 601 120 602
3 600 153 601
3 602 103 600
3 595 439 601
3 601 153 595
3 439 120 601
3 595 35 439
3 377 594 600
3 600 103 377
3 594 153 600
3 377 30 594
3 440 378 602
3 602 120 440
3 378 103 602
3 440 1 378
3 605 603 604
3 604 65 605
3 603 155 604
3 605 119 603
3 591 245 604
3 604 155 591
3 245 65 604
3 591 17 245
3 433 596 603
3 603 119 433
3 596 155 603
3 433 35 596
3 246 434 605
3 605 65 246
3 434 119 605
3 246 11 434
3 608 606 607
3 607 158 608
3 606 157 607
3 608 156 606
3 610 609 607
3 607 157 610
3 609 158 607
3 610 15 609
3 612 611 606
3 606 156 612
3 611 157 606
3 612 28 611
3 614 613 608
3 608 158 614
3 613 156 608
3 614 41 613
3 617 615 616
3 616 95 617
3 615 157 616
3 617 55 615
3 611 350 616
3 616 157 611
3 350 95 616
3 611 28 350
3 209 610 615
3 615 55 209
3 610 157 615
3 209 15 610
3 351 210 617
3 617 95 351
3 210 55 617
3 351 7 210
3 620 618 619
3 619 135 620
3 618 156 619
3 620 94 618
3 613 490 619
3 619 156 613
3 490 135 619
3 613 41 490
3 342 612 618
3 618 94 342
3 612 156 618
3 342 28 612
3 491 345 620
3 620 135 491
3 345 94 620
3 491 2 345
3 623 621 622
3 622 56 623
3 621 158 622
3 623 134 621
3 609 215 622
3 622 158 609
3 215 56 622
3 609 15 215
3 484 614 621
3 621 134 484
3 614 158 621
3 484 41 614
3 216 485 623
3 623 56 216
3 485 134 623
3 216 9 485
3 626 624 625
3 625 161 626
3 624 160 625
3 626 159 624
3 628 627 625
3 625 160 628
3 627 161 625
3 628 31 627
3 630 629 624
3 624 159 630
3 629 160 624
3 630 20 629
3 632 631 626
3 626 161 632
3 631 159 626
3 632 40 631
3 635 633 634
3 634 73 635
3 633 160 634
3 635 105 633
3 629 272 634
3 634 160 629
3 272 73 634
3 629 20 272
3 382 628 633
3 633 105 382
3 628 160 633
3 382 31 628
3 273 385 635
3 635 73 273
3 385 105 635
3 273 6 385
3 638 636 637
3 637 137 638
3 636 159 637
3 638 72 636
3 631 496 637
3 637 159 631
3 496 137 637
3 631 40 496
3 265 630 636
3 636 72 265
3 630 159 636
3 265 20 630
3 497 268 638
3 638 137 497
3 268 72 638
3 497 10 268
3 641 639 640
3 640 102 641
3 639 161 640
3 641 136 639
3 627 372 640
3 640 161 627
3 372 102 640
3 627 31 372
3 489 632 639
3 639 136 489
3 632 161 639
3 489 40 632
3 373 492 641
3 641 102 373
3 492 136 641
3 373 2 492
