# vtk DataFile Version 3.0
this file was written using fslvtkio
ASCII
DATASET POLYDATA
POINTS 642 float
141.387 130.68 92.15
127.667 127.167 91.3098
128.581 121.823 89.8339
140.711 124.622 89.4867
137.243 123.948 94.8769
139.796 129.158 83.9919
131.227 127.123 85.1636
129.846 121.426 95.5689
133.828 127.765 94.7158
134.595 119.437 91.9517
135.286 124.497 87.6975
134.543 130.143 88.4334
131.15 124.903 96.2688
135.668 126.035 95.2701
133.877 122.052 96.5511
131.836 118.483 94.5204
136.56 120.627 94.2561
132.578 129.629 85.7285
135.167 128.377 83.4071
137.387 131.011 85.3826
133.497 125.84 86.0488
137.741 126.225 84.8372
139.555 124.087 92.353
139.731 127.183 93.7803
142.14 127.845 90.4444
141.337 126.942 86.4491
141.589 131.109 87.5075
127.697 124.139 93.9369
127.531 119.959 92.4204
126.527 124.345 89.8514
128.611 127.691 87.7091
129.607 125.096 87.8169
138.235 131.062 90.139
137.761 129.7 94.4375
134.212 129.604 92.0093
130.759 129.05 89.8161
130.454 127.302 93.2843
138.256 124.722 88.3112
134.609 121.869 89.7449
138.115 121.626 90.7529
131.956 123.39 89.3476
130.87 119.364 90.8811
133.478 125.338 96.0439
134.692 124.029 96.4427
132.557 123.513 97.0092
135.836 123.032 95.9307
136.552 124.964 95.2213
134.778 126.978 95.1033
132.456 126.401 95.4852
130.153 123.169 96.2879
131.619 121.526 96.5346
132.86 119.814 96.2601
135.357 121.077 95.8113
134.399 119.147 94.9774
137.305 122.265 94.85
130.559 119.629 95.3843
133.49 118.489 93.2057
135.977 119.421 92.9934
133.714 129.465 83.8365
136.197 130.241 83.44
134.82 130.379 85.1397
138.908 130.657 84.1823
137.681 128.923 83.373
133.004 127.768 84.1011
131.648 128.6 85.053
133.584 130.092 86.9647
135.873 130.695 86.9596
135.6 126.075 85.2605
136.716 127.312 83.8912
134.349 126.825 84.3136
139.106 127.512 83.8103
136.436 125.513 86.4226
134.51 125.139 86.8521
132.309 126.487 85.375
139.964 125.821 93.0127
141.309 127.66 92.2888
140.998 126.039 91.5377
142.198 129.567 91.3753
140.945 129.037 93.4901
138.285 125.652 94.0554
138.516 124.031 93.7395
140.395 124.223 90.8957
141.585 125.997 89.8911
142.16 127.641 88.395
142.559 129.6 89.0382
142.046 129.142 86.7956
141.758 131.085 90.0056
141.101 125.746 88.1579
141.031 128.171 84.7249
140.981 130.377 85.3732
127.185 122.044 93.256
126.029 121.712 91.1699
126.606 123.938 91.962
127.17 122.519 89.704
127.441 120.227 90.3659
128.613 120.449 94.3088
128.659 122.787 94.8815
127.424 125.752 92.7231
126.794 126.005 90.6611
126.826 126.381 88.5706
127.85 124.711 88.8163
128.336 126.113 86.9501
128.994 123.506 89.2495
127.659 127.624 89.5708
129.714 127.553 86.0297
130.293 125.95 86.1745
138.107 130.694 92.4904
136.08 129.794 93.1967
136.271 130.445 91.1988
133.979 128.963 93.7077
135.771 128.815 94.8804
139.827 130.432 93.7059
140.077 131.154 91.2919
136.323 130.643 89.0637
134.415 129.99 90.1783
132.335 129.414 91.0349
132.091 128.765 92.9516
130.349 128.607 91.9384
132.111 127.429 94.1715
132.742 129.606 89.0798
128.848 128.438 90.6143
128.6 127.468 92.6247
136.611 123.321 89.1462
136.417 121.681 90.0793
138.301 123.202 89.721
136.362 120.388 91.4625
134.539 120.405 90.5973
135.043 123.469 88.9118
136.803 124.794 87.9175
139.642 124.59 88.87
139.777 123.02 90.1053
131.348 121.413 89.9856
132.736 120.755 90.2648
133.189 122.618 89.6773
132.741 119.164 91.4338
129.422 120.436 90.1078
130.178 122.581 89.8053
133.706 124.138 88.5956
137.648 126.695 94.4977
136.944 127.739 95.0546
139.1 128.527 94.6182
139.993 131.488 88.7402
137.964 131.29 87.6775
139.726 131.518 86.2513
137.717 120.721 92.5334
138.11 122.211 93.4178
139.288 122.304 91.8467
139.904 125.803 87.2416
139.776 126.549 85.4346
138.238 125.861 86.6803
130.458 126.045 94.9817
128.87 124.652 95.6252
128.674 125.998 94.1244
129.461 128.661 88.6308
130.566 128.654 86.8225
131.597 129.481 87.6922
129.022 118.914 91.4936
129.443 118.619 93.5479
131.115 118.149 92.5193
132.667 124.683 87.7595
131.567 125.355 87.0258
130.845 124.226 88.6635
134.067 124.767 96.2059
133.701 123.802 96.9616
132.977 124.577 96.5475
133.233 122.788 96.9353
134.34 123.207 96.7912
135.062 124.966 95.7519
134.589 125.628 95.6478
132.345 125.146 96.2553
131.866 124.323 96.6807
135.264 123.619 96.4158
135.629 124.459 95.8505
136.136 123.964 95.7319
136.067 125.452 95.3097
134.944 122.517 96.4
136.607 123.538 95.3901
136.919 124.394 95.0492
134.071 126.195 95.5196
132.968 125.905 95.8247
133.595 126.619 95.2778
131.814 125.672 95.9038
135.208 126.591 95.2485
134.317 127.337 94.8599
133.233 127.067 94.9251
131.443 123.36 96.6578
132.155 122.533 96.7632
131.04 122.457 96.4565
132.793 121.698 96.601
130.615 124.058 96.4137
130.028 122.301 95.878
130.657 121.408 96.0807
134.178 120.359 96.0791
134.944 119.967 95.6052
133.629 119.234 95.7819
135.644 119.767 94.7509
135.973 120.706 95.1645
134.622 121.425 96.3324
133.476 120.928 96.4831
132.364 118.952 95.4984
133.025 118.705 94.8964
136.415 121.68 95.3106
135.654 121.995 96.0708
136.61 122.551 95.4559
137.022 121.408 94.6406
137.25 123.079 94.7954
132.262 120.659 96.5051
131.576 119.552 95.9739
131.143 120.482 96.0916
131.168 118.839 95.0636
130.122 120.46 95.5957
133.959 118.646 94.3083
135.353 119.183 94.1008
134.694 118.801 93.2639
136.455 119.793 93.7384
132.62 118.358 93.9488
134.075 118.979 92.5436
135.218 119.365 92.5023
134.869 129.957 83.4426
135.482 130.495 84.2165
134.229 130.074 84.3383
136.064 130.775 85.1243
136.793 130.849 84.2927
135.623 129.309 83.1842
134.339 128.88 83.2787
133.199 129.627 84.7209
133.727 130.004 85.3233
137.551 130.512 83.685
136.956 129.624 83.215
138.317 129.95 83.4158
136.399 128.663 83.3075
138.116 131.001 84.6673
139.51 130.001 83.8849
138.906 129.029 83.5708
133.369 128.653 83.8
132.766 129.035 84.4598
132.25 128.302 84.368
132.19 129.077 85.3886
133.989 128.071 83.6162
131.986 127.391 84.5949
131.334 127.818 84.951
134.178 130.29 86.0633
135.406 130.619 86.0086
134.724 130.407 86.8531
136.624 130.909 86.156
133.059 129.946 86.2667
134.071 130.142 87.7601
135.148 130.431 87.774
136.239 126.563 84.4476
135.525 127.067 83.9844
135.051 126.357 84.658
134.807 127.611 83.7594
135.988 127.948 83.7049
137.341 126.698 84.3222
136.628 126.12 84.9628
134.57 125.998 85.5755
133.972 126.252 85.1037
137.189 128.193 83.6046
137.876 127.38 83.7844
138.445 128.237 83.5334
138.485 126.703 84.1493
139.528 128.432 83.8388
136.06 125.75 85.7872
135.034 125.633 86.0183
135.474 125.348 86.6303
134.049 125.55 86.4864
137.112 125.891 85.6493
135.858 125.017 87.0675
134.96 124.807 87.2863
133.295 126.593 84.7802
133.726 127.349 84.1489
132.654 127.039 84.6338
132.929 126.179 85.7046
131.732 126.813 85.2721
140.693 126.819 92.6678
141.204 126.949 91.9017
140.529 125.909 92.2901
141.735 127.02 91.0982
141.841 127.819 91.4374
140.573 127.483 93.1124
139.887 126.632 93.3133
139.785 124.954 92.6232
140.356 125.007 91.9571
141.935 128.643 91.9555
141.144 128.421 92.8282
141.735 129.357 92.5016
140.421 128.108 93.6791
142.338 128.751 90.9162
141.929 130.28 91.7998
141.249 129.976 92.9153
139.201 125.806 93.5823
139.215 124.875 93.2813
138.46 124.812 93.922
139.044 124.02 93.0297
138.994 126.459 93.819
137.724 124.686 94.5157
137.854 123.953 94.3861
140.676 124.997 91.209
141.353 126.086 90.7579
141.042 125.08 90.4003
141.9 126.907 90.177
140.014 124.067 91.6401
140.629 124.385 90.1938
141.305 125.221 89.5805
142.272 128.687 88.7514
142.378 129.477 87.8915
142.312 128.432 87.6105
142.149 130.203 87.0526
142.28 130.424 88.2498
142.315 128.765 89.7931
142.147 127.777 89.4099
141.867 127.374 87.4142
141.961 127.983 86.476
142.306 130.514 89.5135
142.565 129.594 90.2137
142.244 130.479 90.6803
141.776 131.128 88.7132
141.644 130.963 91.1499
141.864 126.786 89.1506
141.671 126.617 88.1759
141.508 125.888 88.9885
141.189 126.508 87.41
141.023 125.171 88.8388
141.571 128.624 85.7496
141.743 129.892 86.0251
141.132 129.367 85.022
141.476 130.886 86.3742
141.362 127.443 85.5684
140.484 128.721 84.2956
140.487 129.865 84.4798
126.455 121.82 92.2666
126.266 122.885 91.5689
126.78 122.966 92.6088
126.397 124.106 90.9449
126.11 123.044 90.5408
126.595 120.571 91.7971
127.166 120.849 92.899
127.403 123.101 93.5989
127.088 123.961 92.9456
126.376 122.006 90.2533
126.555 120.691 90.7274
127.048 121.241 90.0353
127.18 119.858 91.2587
126.707 123.323 89.7201
127.832 122.062 89.744
127.93 121.004 89.8709
127.824 121.193 93.8121
127.921 122.385 94.1689
128.514 121.581 94.6255
127.962 123.487 94.5462
128.074 120.167 93.4185
129.2 120.836 95.1614
129.226 122.12 95.2187
126.967 124.865 92.4168
126.638 124.965 91.4137
127.018 125.744 91.6687
126.473 125.222 90.3001
127.46 124.907 93.3784
127.515 126.469 91.9715
127.195 126.634 91.0216
127.187 125.398 88.425
128.048 125.381 87.8215
127.518 126.293 87.6964
128.88 125.467 87.2617
128.679 124.882 88.3058
127.136 124.479 89.2866
126.702 125.388 89.2884
127.481 127.263 88.0766
128.199 127.129 87.1771
128.355 124.045 89.1198
127.513 123.606 89.373
128.046 122.981 89.4236
129.299 124.453 88.7479
128.678 122.605 89.6641
126.563 126.258 89.6028
127.012 127.2 89.0391
126.958 126.931 90.0443
128.021 127.775 88.6009
127.542 127.445 90.4532
128.973 126.839 86.5433
129.276 125.97 86.5103
129.819 126.69 85.9696
129.895 125.506 86.9385
129.112 127.693 86.8096
130.447 127.305 85.452
130.831 126.664 85.7346
137.093 130.339 92.8956
136.217 130.201 92.2007
137.2 130.666 91.8409
135.285 129.995 91.5945
135.217 129.725 92.5453
136.924 129.907 93.9027
137.966 130.318 93.6019
138.204 130.933 91.3383
137.232 130.798 90.7068
135.049 129.426 93.4743
135.977 129.41 94.0996
134.867 129.031 94.3329
136.764 129.234 94.6661
134.151 129.366 92.9427
133.893 128.357 94.4048
134.755 128.275 94.7973
138.99 130.665 93.2076
139.121 131.002 91.9834
139.993 130.921 92.6028
139.19 131.142 90.7168
138.821 130.15 94.1901
140.722 130.544 92.9548
140.856 131.048 91.8643
136.307 130.587 90.1577
135.342 130.28 90.6919
135.361 130.305 89.6653
134.307 129.855 91.1142
137.277 130.849 89.5451
135.36 130.382 88.6814
134.509 130.007 89.2355
132.179 129.235 92.0503
131.193 128.724 92.4566
131.293 129.145 91.5392
130.319 128.103 92.7422
131.203 128.096 93.1586
133.09 129.34 92.5633
133.268 129.509 91.5423
131.471 129.247 90.4686
130.548 128.926 90.9232
132.026 128.126 93.5743
133.004 128.91 93.3152
132.923 128.32 94.0952
131.299 127.328 93.7379
132.969 127.612 94.5238
133.409 129.676 90.6028
132.509 129.483 90.0421
133.548 129.796 89.6425
131.692 129.351 89.4186
133.697 129.833 88.705
129.562 128.565 91.3482
129.433 128.078 92.2918
128.701 128.023 91.683
129.483 127.459 93.0551
129.841 128.754 90.2461
128.18 127.822 91.0167
128.032 127.341 91.977
136.515 122.524 89.7007
137.354 122.36 89.8292
137.447 123.397 89.5314
138.186 122.256 90.0583
137.275 121.588 90.389
135.53 121.73 89.8426
135.635 122.621 89.5996
137.492 123.974 88.7354
138.224 123.975 89.0778
136.426 120.977 90.6682
135.499 121.037 90.2881
135.446 120.433 91.0412
134.583 121.103 90.0214
137.238 120.993 91.1551
135.454 119.867 91.7409
134.546 119.888 91.3401
135.772 123.326 88.9617
136.73 124.032 88.5659
135.975 124.162 88.5355
137.536 124.761 88.0923
134.829 122.755 89.3831
135.173 124.213 88.3606
135.996 124.581 87.7231
138.954 123.984 89.3937
138.997 122.998 89.8588
139.634 123.907 89.6624
138.995 122.275 90.3892
138.915 124.644 88.5948
140.257 124.615 89.1924
140.272 123.964 89.9695
131.971 121.067 90.2045
132.967 121.711 89.9581
132.293 122.055 89.9378
133.863 122.28 89.7344
133.692 121.352 90.0611
131.828 119.995 90.5486
131.075 120.354 90.3055
131.609 122.431 89.7397
132.53 122.99 89.5301
133.645 120.51 90.3189
132.765 119.805 90.5452
133.671 119.824 90.8421
131.823 119.165 91.1161
133.699 119.375 91.7473
130.412 120.844 89.9592
130.724 121.926 89.8503
129.79 121.435 89.8641
131.058 122.95 89.5974
130.141 119.901 90.4604
128.886 121.026 89.8274
129.337 122.185 89.8641
133.413 123.458 89.2313
134.126 123.062 89.3196
134.318 123.806 88.7964
132.832 123.778 88.9651
134.52 124.287 88.035
137.306 127.188 94.7609
137.998 128.035 94.7523
138.407 127.481 94.4735
138.558 129.22 94.7668
137.476 128.791 94.9923
136.304 126.917 95.0902
136.682 126.347 94.9454
138.738 126.961 94.145
139.433 127.782 94.2138
136.45 128.369 95.1499
135.874 127.424 95.1619
135.361 127.852 95.0226
137.023 125.886 94.7708
138.006 126.238 94.2397
137.414 125.367 94.6716
140.041 128.695 94.0976
139.544 129.52 94.3014
140.517 129.778 93.6946
139.002 131.526 88.1647
138.837 131.518 86.8864
139.929 131.717 87.4097
138.589 131.298 85.764
137.73 131.222 86.4734
138.087 131.164 88.8922
139.095 131.269 89.4415
140.897 131.542 88.0714
140.847 131.548 86.8008
136.907 130.978 87.2579
137.142 130.928 88.3606
136.067 130.695 87.9855
140.022 131.256 89.9775
140.945 131.319 89.312
140.9 131.218 90.5958
140.419 131.163 85.7871
139.297 131.116 85.2825
140.023 130.633 84.7187
138.015 121.39 93.0742
138.56 122.272 92.7185
138.39 121.564 92.3041
139.381 123.211 92.1483
138.802 123.179 92.9114
137.593 121.339 93.9076
137.235 120.587 93.4441
137.924 121.155 91.7188
138.817 121.807 91.2768
138.316 123.139 93.5433
137.801 122.184 94.1162
137.864 123.07 94.2045
136.904 120.073 92.778
137.125 120.485 91.9293
136.264 119.846 92.2537
139.624 122.501 90.8874
139.952 123.258 91.3376
140.216 123.557 90.5763
139.899 126.194 86.3607
138.979 126.179 86.1058
139.081 125.866 86.9518
138.075 126.055 85.781
138.804 126.363 85.0388
140.678 126.718 85.8544
140.6 126.449 86.8037
139.028 125.337 87.7716
138.274 125.446 87.5299
139.596 126.857 84.3782
140.591 127.118 84.95
140.162 127.736 84.2438
140.505 125.787 87.557
139.726 125.212 88.1155
140.418 125.125 88.3861
137.499 125.428 87.3618
137.392 125.725 86.4793
136.714 125.25 87.1631
129.596 125.503 95.4911
128.689 125.365 94.8272
129.555 126.056 94.5686
128.013 125.183 94.1596
128.074 124.494 94.8566
129.945 124.789 96.1584
130.736 125.527 95.7715
130.416 126.694 94.1767
129.536 126.669 93.7502
128.641 123.738 95.2587
129.495 123.899 96.05
129.327 122.995 95.6205
131.492 126.175 95.3002
131.277 126.8 94.567
132.182 126.984 94.9715
128.687 126.694 93.36
128.002 125.884 93.4538
127.979 126.632 92.7194
129.898 128.715 87.6059
131.09 129.098 87.1887
130.509 129.165 88.1276
132.112 129.566 86.6876
131.615 129.111 86.2614
129.454 128.289 87.226
128.996 128.285 88.1012
130.153 128.903 89.1659
131.153 129.22 88.7072
131.188 128.642 85.9815
130.128 128.266 86.4637
130.647 128.15 85.6097
128.498 128.261 89.029
129.17 128.596 89.6069
128.206 128.097 90.0481
132.133 129.568 88.3991
132.594 129.811 87.3039
133.169 129.766 88.0402
129.162 118.692 92.5363
130.261 118.277 93.062
130.042 118.419 92.0417
131.368 118.147 93.4961
130.688 118.402 93.9743
128.472 119.321 92.9884
128.045 119.225 91.9284
129.966 118.934 91.1782
130.997 118.548 91.5088
129.99 118.92 94.6033
128.935 119.417 93.9831
129.49 119.873 94.8893
127.961 119.449 90.8246
129.155 119.583 90.6144
128.359 120.185 90.1569
132.007 118.58 91.9241
132.249 118.281 92.9244
133.034 118.786 92.3112
132.192 125.061 87.403
131.197 124.878 87.8854
131.773 124.499 88.2788
130.264 124.623 88.3208
130.578 125.163 87.4764
132.52 125.656 86.5459
133.104 125.303 86.892
132.298 124.139 88.6858
131.377 123.739 89.0075
130.905 125.557 86.622
131.946 125.926 86.2496
131.347 126.238 85.9674
133.581 124.886 87.1979
133.22 124.41 88.1705
134.099 124.518 87.6178
130.472 123.39 89.3176
129.942 123.904 89.0834
129.599 123.022 89.5284
POLYGONS 1280  5120
3 164 162 163
3 163 44 164
3 162 43 163
3 164 42 162
3 166 165 163
3 163 43 166
3 165 44 163
3 166 14 165
3 168 167 162
3 162 42 168
3 167 43 162
3 168 13 167
3 170 169 164
3 164 44 170
3 169 42 164
3 170 12 169
3 173 171 172
3 172 46 173
3 171 43 172
3 173 45 171
3 167 174 172
3 172 43 167
3 174 46 172
3 167 13 174
3 175 166 171
3 171 45 175
3 166 43 171
3 175 14 166
3 177 176 173
3 173 46 177
3 176 45 173
3 177 4 176
3 180 178 179
3 179 48 180
3 178 42 179
3 180 47 178
3 169 181 179
3 179 42 169
3 181 48 179
3 169 12 181
3 182 168 178
3 178 47 182
3 168 42 178
3 182 13 168
3 184 183 180
3 180 48 184
3 183 47 180
3 184 8 183
3 187 185 186
3 186 50 187
3 185 44 186
3 187 49 185
3 165 188 186
3 186 44 165
3 188 50 186
3 165 14 188
3 189 170 185
3 185 49 189
3 170 44 185
3 189 12 170
3 191 190 187
3 187 50 191
3 190 49 187
3 191 7 190
3 194 192 193
3 193 53 194
3 192 52 193
3 194 51 192
3 196 195 193
3 193 52 196
3 195 53 193
3 196 16 195
3 198 197 192
3 192 51 198
3 197 52 192
3 198 14 197
3 200 199 194
3 194 53 200
3 199 51 194
3 200 15 199
3 203 201 202
3 202 45 203
3 201 52 202
3 203 54 201
3 197 175 202
3 202 52 197
3 175 45 202
3 197 14 175
3 204 196 201
3 201 54 204
3 196 52 201
3 204 16 196
3 176 205 203
3 203 45 176
3 205 54 203
3 176 4 205
3 208 206 207
3 207 55 208
3 206 51 207
3 208 50 206
3 199 209 207
3 207 51 199
3 209 55 207
3 199 15 209
3 188 198 206
3 206 50 188
3 198 51 206
3 188 14 198
3 210 191 208
3 208 55 210
3 191 50 208
3 210 7 191
3 213 211 212
3 212 57 213
3 211 53 212
3 213 56 211
3 195 214 212
3 212 53 195
3 214 57 212
3 195 16 214
3 215 200 211
3 211 56 215
3 200 53 211
3 215 15 200
3 217 216 213
3 213 57 217
3 216 56 213
3 217 9 216
3 220 218 219
3 219 60 220
3 218 59 219
3 220 58 218
3 222 221 219
3 219 59 222
3 221 60 219
3 222 19 221
3 224 223 218
3 218 58 224
3 223 59 218
3 224 18 223
3 226 225 220
3 220 60 226
3 225 58 220
3 226 17 225
3 229 227 228
3 228 62 229
3 227 59 228
3 229 61 227
3 223 230 228
3 228 59 223
3 230 62 228
3 223 18 230
3 231 222 227
3 227 61 231
3 222 59 227
3 231 19 222
3 233 232 229
3 229 62 233
3 232 61 229
3 233 5 232
3 236 234 235
3 235 64 236
3 234 58 235
3 236 63 234
3 225 237 235
3 235 58 225
3 237 64 235
3 225 17 237
3 238 224 234
3 234 63 238
3 224 58 234
3 238 18 224
3 240 239 236
3 236 64 240
3 239 63 236
3 240 6 239
3 243 241 242
3 242 66 243
3 241 60 242
3 243 65 241
3 221 244 242
3 242 60 221
3 244 66 242
3 221 19 244
3 245 226 241
3 241 65 245
3 226 60 241
3 245 17 226
3 247 246 243
3 243 66 247
3 246 65 243
3 247 11 246
3 250 248 249
3 249 69 250
3 248 68 249
3 250 67 248
3 252 251 249
3 249 68 252
3 251 69 249
3 252 18 251
3 254 253 248
3 248 67 254
3 253 68 248
3 254 21 253
3 256 255 250
3 250 69 256
3 255 67 250
3 256 20 255
3 259 257 258
3 258 70 259
3 257 68 258
3 259 62 257
3 253 260 258
3 258 68 253
3 260 70 258
3 253 21 260
3 230 252 257
3 257 62 230
3 252 68 257
3 230 18 252
3 261 233 259
3 259 70 261
3 233 62 259
3 261 5 233
3 264 262 263
3 263 72 264
3 262 67 263
3 264 71 262
3 255 265 263
3 263 67 255
3 265 72 263
3 255 20 265
3 266 254 262
3 262 71 266
3 254 67 262
3 266 21 254
3 268 267 264
3 264 72 268
3 267 71 264
3 268 10 267
3 271 269 270
3 270 63 271
3 269 69 270
3 271 73 269
3 251 238 270
3 270 69 251
3 238 63 270
3 251 18 238
3 272 256 269
3 269 73 272
3 256 69 269
3 272 20 256
3 239 273 271
3 271 63 239
3 273 73 271
3 239 6 273
3 276 274 275
3 275 76 276
3 274 75 275
3 276 74 274
3 278 277 275
3 275 75 278
3 277 76 275
3 278 24 277
3 280 279 274
3 274 74 280
3 279 75 274
3 280 23 279
3 282 281 276
3 276 76 282
3 281 74 276
3 282 22 281
3 285 283 284
3 284 78 285
3 283 75 284
3 285 77 283
3 279 286 284
3 284 75 279
3 286 78 284
3 279 23 286
3 287 278 283
3 283 77 287
3 278 75 283
3 287 24 278
3 289 288 285
3 285 78 289
3 288 77 285
3 289 0 288
3 292 290 291
3 291 80 292
3 290 74 291
3 292 79 290
3 281 293 291
3 291 74 281
3 293 80 291
3 281 22 293
3 294 280 290
3 290 79 294
3 280 74 290
3 294 23 280
3 296 295 292
3 292 80 296
3 295 79 292
3 296 4 295
3 299 297 298
3 298 82 299
3 297 76 298
3 299 81 297
3 277 300 298
3 298 76 277
3 300 82 298
3 277 24 300
3 301 282 297
3 297 81 301
3 282 76 297
3 301 22 282
3 303 302 299
3 299 82 303
3 302 81 299
3 303 3 302
3 306 304 305
3 305 85 306
3 304 84 305
3 306 83 304
3 308 307 305
3 305 84 308
3 307 85 305
3 308 26 307
3 310 309 304
3 304 83 310
3 309 84 304
3 310 24 309
3 312 311 306
3 306 85 312
3 311 83 306
3 312 25 311
3 315 313 314
3 314 77 315
3 313 84 314
3 315 86 313
3 309 287 314
3 314 84 309
3 287 77 314
3 309 24 287
3 316 308 313
3 313 86 316
3 308 84 313
3 316 26 308
3 288 317 315
3 315 77 288
3 317 86 315
3 288 0 317
3 320 318 319
3 319 87 320
3 318 83 319
3 320 82 318
3 311 321 319
3 319 83 311
3 321 87 319
3 311 25 321
3 300 310 318
3 318 82 300
3 310 83 318
3 300 24 310
3 322 303 320
3 320 87 322
3 303 82 320
3 322 3 303
3 325 323 324
3 324 89 325
3 323 85 324
3 325 88 323
3 307 326 324
3 324 85 307
3 326 89 324
3 307 26 326
3 327 312 323
3 323 88 327
3 312 85 323
3 327 25 312
3 329 328 325
3 325 89 329
3 328 88 325
3 329 5 328
3 332 330 331
3 331 92 332
3 330 91 331
3 332 90 330
3 334 333 331
3 331 91 334
3 333 92 331
3 334 29 333
3 336 335 330
3 330 90 336
3 335 91 330
3 336 28 335
3 338 337 332
3 332 92 338
3 337 90 332
3 338 27 337
3 341 339 340
3 340 94 341
3 339 91 340
3 341 93 339
3 335 342 340
3 340 91 335
3 342 94 340
3 335 28 342
3 343 334 339
3 339 93 343
3 334 91 339
3 343 29 334
3 345 344 341
3 341 94 345
3 344 93 341
3 345 2 344
3 348 346 347
3 347 96 348
3 346 90 347
3 348 95 346
3 337 349 347
3 347 90 337
3 349 96 347
3 337 27 349
3 350 336 346
3 346 95 350
3 336 90 346
3 350 28 336
3 352 351 348
3 348 96 352
3 351 95 348
3 352 7 351
3 355 353 354
3 354 98 355
3 353 92 354
3 355 97 353
3 333 356 354
3 354 92 333
3 356 98 354
3 333 29 356
3 357 338 353
3 353 97 357
3 338 92 353
3 357 27 338
3 359 358 355
3 355 98 359
3 358 97 355
3 359 1 358
3 362 360 361
3 361 101 362
3 360 100 361
3 362 99 360
3 364 363 361
3 361 100 364
3 363 101 361
3 364 31 363
3 366 365 360
3 360 99 366
3 365 100 360
3 366 29 365
3 368 367 362
3 362 101 368
3 367 99 362
3 368 30 367
3 371 369 370
3 370 93 371
3 369 100 370
3 371 102 369
3 365 343 370
3 370 100 365
3 343 93 370
3 365 29 343
3 372 364 369
3 369 102 372
3 364 100 369
3 372 31 364
3 344 373 371
3 371 93 344
3 373 102 371
3 344 2 373
3 376 374 375
3 375 103 376
3 374 99 375
3 376 98 374
3 367 377 375
3 375 99 367
3 377 103 375
3 367 30 377
3 356 366 374
3 374 98 356
3 366 99 374
3 356 29 366
3 378 359 376
3 376 103 378
3 359 98 376
3 378 1 359
3 381 379 380
3 380 105 381
3 379 101 380
3 381 104 379
3 363 382 380
3 380 101 363
3 382 105 380
3 363 31 382
3 383 368 379
3 379 104 383
3 368 101 379
3 383 30 368
3 385 384 381
3 381 105 385
3 384 104 381
3 385 6 384
3 388 386 387
3 387 108 388
3 386 107 387
3 388 106 386
3 390 389 387
3 387 107 390
3 389 108 387
3 390 34 389
3 392 391 386
3 386 106 392
3 391 107 386
3 392 33 391
3 394 393 388
3 388 108 394
3 393 106 388
3 394 32 393
3 397 395 396
3 396 110 397
3 395 107 396
3 397 109 395
3 391 398 396
3 396 107 391
3 398 110 396
3 391 33 398
3 399 390 395
3 395 109 399
3 390 107 395
3 399 34 390
3 401 400 397
3 397 110 401
3 400 109 397
3 401 8 400
3 404 402 403
3 403 112 404
3 402 106 403
3 404 111 402
3 393 405 403
3 403 106 393
3 405 112 403
3 393 32 405
3 406 392 402
3 402 111 406
3 392 106 402
3 406 33 392
3 408 407 404
3 404 112 408
3 407 111 404
3 408 0 407
3 411 409 410
3 410 114 411
3 409 108 410
3 411 113 409
3 389 412 410
3 410 108 389
3 412 114 410
3 389 34 412
3 413 394 409
3 409 113 413
3 394 108 409
3 413 32 394
3 415 414 411
3 411 114 415
3 414 113 411
3 415 11 414
3 418 416 417
3 417 117 418
3 416 116 417
3 418 115 416
3 420 419 417
3 417 116 420
3 419 117 417
3 420 36 419
3 422 421 416
3 416 115 422
3 421 116 416
3 422 34 421
3 424 423 418
3 418 117 424
3 423 115 418
3 424 35 423
3 427 425 426
3 426 109 427
3 425 116 426
3 427 118 425
3 421 399 426
3 426 116 421
3 399 109 426
3 421 34 399
3 428 420 425
3 425 118 428
3 420 116 425
3 428 36 420
3 400 429 427
3 427 109 400
3 429 118 427
3 400 8 429
3 432 430 431
3 431 119 432
3 430 115 431
3 432 114 430
3 423 433 431
3 431 115 423
3 433 119 431
3 423 35 433
3 412 422 430
3 430 114 412
3 422 115 430
3 412 34 422
3 434 415 432
3 432 119 434
3 415 114 432
3 434 11 415
3 437 435 436
3 436 121 437
3 435 117 436
3 437 120 435
3 419 438 436
3 436 117 419
3 438 121 436
3 419 36 438
3 439 424 435
3 435 120 439
3 424 117 435
3 439 35 424
3 441 440 437
3 437 121 441
3 440 120 437
3 441 1 440
3 444 442 443
3 443 124 444
3 442 123 443
3 444 122 442
3 446 445 443
3 443 123 446
3 445 124 443
3 446 39 445
3 448 447 442
3 442 122 448
3 447 123 442
3 448 38 447
3 450 449 444
3 444 124 450
3 449 122 444
3 450 37 449
3 453 451 452
3 452 126 453
3 451 123 452
3 453 125 451
3 447 454 452
3 452 123 447
3 454 126 452
3 447 38 454
3 455 446 451
3 451 125 455
3 446 123 451
3 455 39 446
3 457 456 453
3 453 126 457
3 456 125 453
3 457 9 456
3 460 458 459
3 459 128 460
3 458 122 459
3 460 127 458
3 449 461 459
3 459 122 449
3 461 128 459
3 449 37 461
3 462 448 458
3 458 127 462
3 448 122 458
3 462 38 448
3 464 463 460
3 460 128 464
3 463 127 460
3 464 10 463
3 467 465 466
3 466 130 467
3 465 124 466
3 467 129 465
3 445 468 466
3 466 124 445
3 468 130 466
3 445 39 468
3 469 450 465
3 465 129 469
3 450 124 465
3 469 37 450
3 471 470 467
3 467 130 471
3 470 129 467
3 471 3 470
3 474 472 473
3 473 133 474
3 472 132 473
3 474 131 472
3 476 475 473
3 473 132 476
3 475 133 473
3 476 38 475
3 478 477 472
3 472 131 478
3 477 132 472
3 478 41 477
3 480 479 474
3 474 133 480
3 479 131 474
3 480 40 479
3 483 481 482
3 482 134 483
3 481 132 482
3 483 126 481
3 477 484 482
3 482 132 477
3 484 134 482
3 477 41 484
3 454 476 481
3 481 126 454
3 476 132 481
3 454 38 476
3 485 457 483
3 483 134 485
3 457 126 483
3 485 9 457
3 488 486 487
3 487 136 488
3 486 131 487
3 488 135 486
3 479 489 487
3 487 131 479
3 489 136 487
3 479 40 489
3 490 478 486
3 486 135 490
3 478 131 486
3 490 41 478
3 492 491 488
3 488 136 492
3 491 135 488
3 492 2 491
3 495 493 494
3 494 127 495
3 493 133 494
3 495 137 493
3 475 462 494
3 494 133 475
3 462 127 494
3 475 38 462
3 496 480 493
3 493 137 496
3 480 133 493
3 496 40 480
3 463 497 495
3 495 127 463
3 497 137 495
3 463 10 497
3 500 498 499
3 499 140 500
3 498 139 499
3 500 138 498
3 502 501 499
3 499 139 502
3 501 140 499
3 502 33 501
3 504 503 498
3 498 138 504
3 503 139 498
3 504 13 503
3 506 505 500
3 500 140 506
3 505 138 500
3 506 23 505
3 509 507 508
3 508 47 509
3 507 139 508
3 509 110 507
3 503 182 508
3 508 139 503
3 182 47 508
3 503 13 182
3 398 502 507
3 507 110 398
3 502 139 507
3 398 33 502
3 183 401 509
3 509 47 183
3 401 110 509
3 183 8 401
3 512 510 511
3 511 79 512
3 510 138 511
3 512 46 510
3 505 294 511
3 511 138 505
3 294 79 511
3 505 23 294
3 174 504 510
3 510 46 174
3 504 138 510
3 174 13 504
3 295 177 512
3 512 79 295
3 177 46 512
3 295 4 177
3 515 513 514
3 514 111 515
3 513 140 514
3 515 78 513
3 501 406 514
3 514 140 501
3 406 111 514
3 501 33 406
3 286 506 513
3 513 78 286
3 506 140 513
3 286 23 506
3 407 289 515
3 515 111 407
3 289 78 515
3 407 0 289
3 518 516 517
3 517 143 518
3 516 142 517
3 518 141 516
3 520 519 517
3 517 142 520
3 519 143 517
3 520 19 519
3 522 521 516
3 516 141 522
3 521 142 516
3 522 32 521
3 524 523 518
3 518 143 524
3 523 141 518
3 524 26 523
3 527 525 526
3 526 113 527
3 525 142 526
3 527 66 525
3 521 413 526
3 526 142 521
3 413 113 526
3 521 32 413
3 244 520 525
3 525 66 244
3 520 142 525
3 244 19 520
3 414 247 527
3 527 113 414
3 247 66 527
3 414 11 247
3 530 528 529
3 529 86 530
3 528 141 529
3 530 112 528
3 523 316 529
3 529 141 523
3 316 86 529
3 523 26 316
3 405 522 528
3 528 112 405
3 522 141 528
3 405 32 522
3 317 408 530
3 530 86 317
3 408 112 530
3 317 0 408
3 533 531 532
3 532 61 533
3 531 143 532
3 533 89 531
3 519 231 532
3 532 143 519
3 231 61 532
3 519 19 231
3 326 524 531
3 531 89 326
3 524 143 531
3 326 26 524
3 232 329 533
3 533 61 232
3 329 89 533
3 232 5 329
3 536 534 535
3 535 146 536
3 534 145 535
3 536 144 534
3 538 537 535
3 535 145 538
3 537 146 535
3 538 22 537
3 540 539 534
3 534 144 540
3 539 145 534
3 540 16 539
3 542 541 536
3 536 146 542
3 541 144 536
3 542 39 541
3 545 543 544
3 544 54 545
3 543 145 544
3 545 80 543
3 539 204 544
3 544 145 539
3 204 54 544
3 539 16 204
3 293 538 543
3 543 80 293
3 538 145 543
3 293 22 538
3 205 296 545
3 545 54 205
3 296 80 545
3 205 4 296
3 548 546 547
3 547 125 548
3 546 144 547
3 548 57 546
3 541 455 547
3 547 144 541
3 455 125 547
3 541 39 455
3 214 540 546
3 546 57 214
3 540 144 546
3 214 16 540
3 456 217 548
3 548 125 456
3 217 57 548
3 456 9 217
3 551 549 550
3 550 81 551
3 549 146 550
3 551 130 549
3 537 301 550
3 550 146 537
3 301 81 550
3 537 22 301
3 468 542 549
3 549 130 468
3 542 146 549
3 468 39 542
3 302 471 551
3 551 81 302
3 471 130 551
3 302 3 471
3 554 552 553
3 553 149 554
3 552 148 553
3 554 147 552
3 556 555 553
3 553 148 556
3 555 149 553
3 556 21 555
3 558 557 552
3 552 147 558
3 557 148 552
3 558 25 557
3 560 559 554
3 554 149 560
3 559 147 554
3 560 37 559
3 563 561 562
3 562 88 563
3 561 148 562
3 563 70 561
3 557 327 562
3 562 148 557
3 327 88 562
3 557 25 327
3 260 556 561
3 561 70 260
3 556 148 561
3 260 21 556
3 328 261 563
3 563 88 328
3 261 70 563
3 328 5 261
3 566 564 565
3 565 129 566
3 564 147 565
3 566 87 564
3 559 469 565
3 565 147 559
3 469 129 565
3 559 37 469
3 321 558 564
3 564 87 321
3 558 147 564
3 321 25 558
3 470 322 566
3 566 129 470
3 322 87 566
3 470 3 322
3 569 567 568
3 568 71 569
3 567 149 568
3 569 128 567
3 555 266 568
3 568 149 555
3 266 71 568
3 555 21 266
3 461 560 567
3 567 128 461
3 560 149 567
3 461 37 560
3 267 464 569
3 569 71 267
3 464 128 569
3 267 10 464
3 572 570 571
3 571 152 572
3 570 151 571
3 572 150 570
3 574 573 571
3 571 151 574
3 573 152 571
3 574 27 573
3 576 575 570
3 570 150 576
3 575 151 570
3 576 12 575
3 578 577 572
3 572 152 578
3 577 150 572
3 578 36 577
3 581 579 580
3 580 49 581
3 579 151 580
3 581 96 579
3 575 189 580
3 580 151 575
3 189 49 580
3 575 12 189
3 349 574 579
3 579 96 349
3 574 151 579
3 349 27 574
3 190 352 581
3 581 49 190
3 352 96 581
3 190 7 352
3 584 582 583
3 583 118 584
3 582 150 583
3 584 48 582
3 577 428 583
3 583 150 577
3 428 118 583
3 577 36 428
3 181 576 582
3 582 48 181
3 576 150 582
3 181 12 576
3 429 184 584
3 584 118 429
3 184 48 584
3 429 8 184
3 587 585 586
3 586 97 587
3 585 152 586
3 587 121 585
3 573 357 586
3 586 152 573
3 357 97 586
3 573 27 357
3 438 578 585
3 585 121 438
3 578 152 585
3 438 36 578
3 358 441 587
3 587 97 358
3 441 121 587
3 358 1 441
3 590 588 589
3 589 155 590
3 588 154 589
3 590 153 588
3 592 591 589
3 589 154 592
3 591 155 589
3 592 17 591
3 594 593 588
3 588 153 594
3 593 154 588
3 594 30 593
3 596 595 590
3 590 155 596
3 595 153 590
3 596 35 595
3 599 597 598
3 598 104 599
3 597 154 598
3 599 64 597
3 593 383 598
3 598 154 593
3 383 104 598
3 593 30 383
3 237 592 597
3 597 64 237
3 592 154 597
3 237 17 592
3 384 240 599
3 599 104 384
3 240 64 599
3 384 6 240
3 602 600 601
3 601 120 602
3 600 153 601
3 602 103 600
3 595 439 601
3 601 153 595
3 439 120 601
3 595 35 439
3 377 594 600
3 600 103 377
3 594 153 600
3 377 30 594
3 440 378 602
3 602 120 440
3 378 103 602
3 440 1 378
3 605 603 604
3 604 65 605
3 603 155 604
3 605 119 603
3 591 245 604
3 604 155 591
3 245 65 604
3 591 17 245
3 433 596 603
3 603 119 433
3 596 155 603
3 433 35 596
3 246 434 605
3 605 65 246
3 434 119 605
3 246 11 434
3 608 606 607
3 607 158 608
3 606 157 607
3 608 156 606
3 610 609 607
3 607 157 610
3 609 158 607
3 610 15 609
3 612 611 606
3 606 156 612
3 611 157 606
3 612 28 611
3 614 613 608
3 608 158 614
3 613 156 608
3 614 41 613
3 617 615 616
3 616 95 617
3 615 157 616
3 617 55 615
3 611 350 616
3 616 157 611
3 350 95 616
3 611 28 350
3 209 610 615
3 615 55 209
3 610 157 615
3 209 15 610
3 351 210 617
3 617 95 351
3 210 55 617
3 351 7 210
3 620 618 619
3 619 135 620
3 618 156 619
3 620 94 618
3 613 490 619
3 619 156 613
3 490 135 619
3 613 41 490
3 342 612 618
3 618 94 342
3 612 156 618
3 342 28 612
3 491 345 620
3 620 135 491
3 345 94 620
3 491 2 345
3 623 621 622
3 622 56 623
3 621 158 622
3 623 134 621
3 609 215 622
3 622 158 609
3 215 56 622
3 609 15 215
3 484 614 621
3 621 134 484
3 614 158 621
3 484 41 614
3 216 485 623
3 623 56 216
3 485 134 623
3 216 9 485
3 626 624 625
3 625 161 626
3 624 160 625
3 626 159 624
3 628 627 625
3 625 160 628
3 627 161 625
3 628 31 627
3 630 629 624
3 624 159 630
3 629 160 624
3 630 20 629
3 632 631 626
3 626 161 632
3 631 159 626
3 632 40 631
3 635 633 634
3 634 73 635
3 633 160 634
3 635 105 633
3 629 272 634
3 634 160 629
3 272 73 634
3 629 20 272
3 382 628 633
3 633 105 382
3 628 160 633
3 382 31 628
3 273 385 635
3 635 73 273
3 385 105 635
3 273 6 385
3 638 636 637
3 637 137 638
3 636 159 637
3 638 72 636
3 631 496 637
3 637 159 631
3 496 137 637
3 631 40 496
3 265 630 636
3 636 72 265
3 630 159 636
3 265 20 630
3 497 268 638
3 638 137 497
3 268 72 638
3 497 10 268
3 641 639 640
3 640 102 641
3 639 161 640
3 641 136 639
3 627 372 640
3 640 161 627
3 372 102 640
3 627 31 372
3 489 632 639
3 639 136 489
3 632 161 639
3 489 40 632
3 373 492 641
3 641 102 373
3 492 136 641
3 373 2 492
