# vtk DataFile Version 3.0
this file was written using fslvtkio
ASCII
DATASET POLYDATA
POINTS 970 float
124.699 147.275 103.794
123.411 146.794 104.32
124.162 146.301 104.164
125.03 146.027 103.969
125.981 147.144 103.777
126.257 145.756 104.211
127.086 146.697 104.427
127.399 145.66 105.073
124.178 148.201 104.289
123.395 148.249 104.977
125.407 148.477 104.39
126.731 148.079 104.527
127.698 147.02 105.427
124.508 149.346 105.343
126.06 149.421 105.223
127.146 148.328 105.632
121.077 137.106 103.303
119.558 136.822 103.675
120.297 135.487 103.098
121.76 135.727 103.197
122.242 137.581 103.544
122.59 136.437 104.067
122.953 137.902 104.368
122.584 136.691 105.233
120.68 138.204 104.187
119.341 137.936 104.654
121.92 138.861 103.927
122.968 139.21 103.98
123.321 137.883 105.363
123.7 139.303 104.905
123.748 138.7 106.068
120.526 139.266 104.837
119.375 138.743 105.176
121.812 140.004 104.509
122.947 140.614 104.266
123.905 140.69 104.674
124.354 140.11 105.812
119.625 139.628 105.457
121.378 140.699 105.042
120.555 140.744 105.49
122.799 141.841 104.661
124.07 142.204 104.481
124.743 141.473 105.285
121.465 141.899 105.494
122.792 143.004 105.104
123.887 143.684 104.489
123.255 144.297 105.31
125.198 142.593 105.138
125.089 143.675 104.548
126.03 143.296 105.587
126.497 144.044 105.158
126.688 143.861 106.216
123.922 145.307 104.848
122.801 145.081 105.694
124.936 144.837 104.614
126.37 144.729 104.656
127.481 144.756 105.927
122.784 146.042 105.178
121.731 146.415 105.927
121.827 145.31 106.402
128.246 146.05 106.285
122.382 147.422 105.227
121.765 147.647 106.373
128.105 147.778 106.555
123.03 148.715 106.119
123.873 149.676 106.655
125.423 150.071 106.264
126.94 149.475 106.346
118.574 133.774 103.716
117.488 134.276 104.323
117.748 132.768 104.646
119.266 132.763 104.219
119.823 134.193 103.336
120.499 133.49 104.292
118.628 135.49 103.663
117.321 135.675 104.696
121.237 134.533 103.811
122.073 135.402 104.709
122.275 136.085 106.149
118.236 136.979 104.392
116.967 137.018 105.303
123.113 137.371 106.36
123.776 138.454 107.282
118.161 138.312 105.35
116.836 138.383 106.21
124.272 139.765 107.059
124.943 141.074 106.578
125.04 140.646 107.698
118.322 139.608 106.052
119.853 140.843 105.886
118.684 140.702 106.591
125.43 142.092 106.372
125.742 141.801 107.794
120.044 141.9 106.439
121.006 142.987 106.408
119.933 142.81 106.988
122.081 143.3 105.775
126.27 142.897 106.867
127.174 143.922 107.305
121.074 144.285 107.113
119.968 143.438 107.486
122.014 144.155 106.302
127.976 144.964 107.362
120.059 144.2 107.673
121.03 145.849 107.048
128.378 146.264 107.535
121.255 147.555 107.433
128.274 147.749 107.682
122.512 148.653 107.449
123.728 149.538 107.865
123.387 149.031 108.84
124.943 150.189 107.627
126.506 150.183 107.406
127.604 149.084 107.363
124.614 149.859 109.017
125.875 150.26 108.797
127.076 150.043 108.546
116.891 134.027 105.557
117.491 132.592 105.884
118.753 132.206 105.518
120.111 132.875 105.552
120.973 133.89 105.413
120.855 133.92 107.054
116.683 135.526 106.019
121.521 134.815 105.753
122.043 135.844 107.341
116.359 136.874 106.554
122.946 137.242 107.472
123.734 138.148 108.629
116 137.837 107.219
124.421 139.464 108.242
125.231 140.624 108.79
117.171 139.83 106.782
116.129 139.226 107.614
125.942 141.725 109.084
117.108 140.786 107.682
116.308 140.619 108.712
118.425 141.482 107.156
126.519 142.954 108.248
127.247 143.828 108.811
117.377 141.751 108.222
118.619 142.626 107.703
118.042 142.641 108.547
127.796 144.841 108.797
118.902 143.603 108.55
120.095 145.118 108.013
119.671 145.28 108.839
128.211 145.987 108.837
128.504 147.112 108.655
128.507 146.568 109.846
120.512 146.556 107.98
120.355 146.668 109.042
128.173 148.323 108.643
128.483 147.73 109.881
121.553 147.804 108.624
122.515 148.324 109.188
123.402 148.658 110.011
127.709 149.268 108.842
128.212 148.792 110.114
124.382 149.194 110.177
125.414 149.861 110.303
126.68 150.146 110.155
127.564 149.722 110.108
118.206 131.895 106.837
117.392 132.941 107.095
117.868 131.591 107.942
119.124 131.316 107.811
119.424 132.167 106.682
119.863 132.118 107.923
120.25 132.988 107.017
120.479 132.873 108.447
117.07 134.252 107.196
120.994 133.796 108.779
116.691 135.511 107.484
121.472 134.863 107.588
122.205 135.798 108.741
116.248 136.626 108.044
122.909 136.996 108.653
123.739 137.942 109.827
115.873 137.88 108.555
124.625 139.259 109.423
125.436 140.437 110.04
115.965 139.202 109.069
126.159 141.502 110.466
116.209 140.202 109.879
126.645 142.738 109.675
127.337 143.681 110.413
117.185 142.124 109.083
116.817 141.572 110.111
127.763 144.699 110.161
128.063 145.61 109.728
128.33 145.523 110.956
117.846 143.123 109.574
118.802 144.441 109.462
118.461 144.295 110.482
128.742 146.758 111.041
119.555 145.675 110.003
119.331 145.4 111.018
128.557 147.889 111.201
120.681 146.836 110.054
121.643 147.594 110.206
122.573 148.11 110.502
122.128 147.67 111.366
128.323 149.048 111.441
123.581 148.408 111.241
124.508 148.785 111.688
125.3 149.328 111.576
126.373 149.854 111.542
127.486 149.783 111.465
117.426 132.783 108.562
117.865 131.134 109.066
118.906 130.585 108.746
119.977 131.624 109.012
120.648 132.387 109.995
117.234 134.216 108.786
121.302 133.485 110.358
116.604 135.276 109.068
121.564 134.761 109.325
122.333 135.57 110.135
116.188 136.482 109.525
123.072 136.766 109.969
123.996 137.657 111.179
115.976 137.758 110.043
124.589 139.005 110.653
125.363 139.967 111.303
116.089 138.922 110.679
126.203 140.961 111.732
116.519 140.168 111.174
127.005 142.448 111.059
127.661 143.109 112.111
117.152 141.453 111.447
127.948 144.341 111.338
128.567 145.399 112.198
117.617 142.898 110.722
118.33 144.023 111.632
128.71 146.665 112.209
119.239 144.785 112.331
128.531 147.77 112.569
120.155 145.979 111.486
121.099 146.707 111.396
122.032 146.885 112.411
128.202 148.95 112.67
123.096 147.815 112.282
124.175 148.234 112.766
125.179 148.816 113.077
126.135 149.421 112.917
127.294 149.565 112.786
118.35 129.973 109.771
117.67 131.259 109.877
117.904 129.658 110.762
119.15 129.016 110.543
119.534 130.193 109.664
120.149 129.711 110.646
120.216 131.069 110.07
120.676 130.739 111.076
117.518 132.677 109.952
121.125 132.064 111.454
117.162 134 110.22
121.54 133.182 111.545
116.525 135.003 110.601
121.849 134.426 111.082
122.675 135.389 111.448
116.229 136.268 111.058
123.316 136.499 111.244
124.285 137.015 112.463
116.136 137.481 111.593
124.762 138.453 111.994
125.647 139.412 112.5
116.294 138.742 112.082
126.437 140.58 112.851
116.78 139.984 112.49
127.025 141.908 112.315
127.598 142.279 113.467
117.301 141.167 112.803
128.105 144.135 112.531
128.015 143.467 113.741
117.772 142.638 112.035
118.408 143.533 112.886
128.504 144.843 113.274
128.635 146.185 113.476
119.268 144.23 113.608
128.485 147.592 113.73
120.241 145.357 112.92
121.042 146.114 112.848
121.974 146.561 113.72
128.057 148.785 113.857
122.969 147.323 113.481
124.022 147.839 113.917
125.081 148.335 114.35
125.984 148.941 114.43
127.032 149.266 114.048
117.84 131.049 111.163
118.057 129.235 111.878
118.827 128.334 111.383
120.234 128.874 111.717
121.091 130.35 112.256
117.534 132.581 111.199
121.415 131.383 112.658
121.812 132.506 112.639
122.113 131.913 113.719
117.243 133.675 111.76
121.965 133.49 112.113
122.516 133.422 112.972
116.617 134.785 112.081
122.705 134.529 112.536
123.461 135.835 112.318
123.795 135.417 113.378
116.277 135.985 112.564
124.667 136.494 113.703
116.347 137.286 113.041
125.215 137.956 113.193
126.237 139.31 113.568
116.565 138.501 113.539
126.785 140.301 113.85
127.018 141.317 113.4
127.45 140.951 114.629
116.927 139.666 113.9
128.067 142.227 114.803
117.463 140.7 114.319
128.351 143.639 115.172
117.929 142.082 113.418
118.619 142.935 114.248
128.52 144.824 114.345
128.559 146.263 114.718
119.626 143.768 114.836
128.299 147.413 114.919
120.364 144.95 114.151
121.36 145.783 114.404
122.37 146.363 115.148
127.743 148.516 114.782
122.952 146.856 114.605
123.914 147.317 115.098
124.927 147.828 115.533
126.062 148.263 115.742
127 148.641 115.407
119.034 127.608 112.291
118.393 127.593 113.405
119.3 126.93 113.464
120.496 127.051 113.77
120.279 127.627 112.471
121.129 127.967 113.364
117.997 130.385 112.408
118.079 128.797 112.987
121.216 129.158 112.988
121.659 130.546 113.346
122.039 130.198 114.411
117.664 131.941 112.425
117.975 130.487 113.673
122.757 131.892 114.599
117.195 133.327 113.078
123.166 133.017 114.322
116.737 134.549 113.553
123.623 134.152 113.942
124.379 135.059 114.56
116.528 135.836 114.052
125.11 136.065 114.985
125.197 137.042 114.121
125.637 137.483 114.68
116.66 137.089 114.556
126.142 138.536 114.409
126.883 139.634 114.647
127.154 139.305 115.711
116.959 138.213 115.036
127.884 140.66 115.762
117.215 139.271 115.389
128.436 141.946 116.072
117.593 140.306 115.682
128.562 143.224 116.466
118.131 141.525 114.909
118.952 142.598 115.47
128.523 145.21 115.529
128.448 144.659 116.539
119.892 143.264 116.112
120.422 144.436 115.316
120.756 144.091 116.265
128.275 146.43 116.135
127.858 146.447 117.06
121.467 145.218 115.503
123.526 146.633 116.082
122.609 145.813 116.251
124.684 147.276 116.621
124.016 146.345 117.311
125.967 147.739 116.872
125.334 147.009 117.836
127.263 147.705 116.63
126.879 147.216 117.757
127.773 147.807 115.667
119.602 126.278 114.314
118.719 126.761 114.714
119.471 125.817 115.27
120.465 125.671 115.184
120.462 126.334 114.414
121.146 126.477 114.796
118.36 128.128 114.551
121.746 127.351 114.997
121.622 128.781 114.223
122.262 128.601 115.391
118.264 129.385 114.46
122.655 130.315 115.392
117.658 131.918 113.846
117.933 130.591 115.086
123.343 130.908 116.091
123.456 132.322 115.413
124.046 131.686 116.412
117.226 133.175 114.513
123.714 133.163 114.83
124.165 133.284 115.339
116.862 134.418 115.052
124.835 134.155 115.662
124.991 135.101 115.418
125.592 135.111 116.153
116.724 135.604 115.604
125.996 136.608 115.884
126.453 138.039 115.581
127.019 137.618 116.592
116.901 136.834 116.11
127.72 138.994 116.767
117.375 137.885 116.658
128.201 140.273 116.866
117.604 139.165 116.724
128.448 141.051 117.384
128.71 142.199 117.41
128.671 140.824 118.554
117.864 140.033 116.752
118.068 140.757 116.107
118.394 140.415 117.381
128.651 143.499 117.608
128.673 142.083 118.693
119.247 142.419 116.296
118.669 141.471 116.231
119.562 142.254 117.111
128.31 144.792 117.74
128.448 143.46 118.747
121.5 144.52 116.725
120.6 143.361 117.178
121.655 143.963 117.723
127.842 144.782 118.636
127.673 145.908 117.865
122.482 145.106 117.027
123.724 145.598 117.847
125.027 146.131 118.524
126.377 146.55 118.638
120.133 125.043 116.062
119.119 125.743 116.015
119.795 124.561 116.954
120.935 124.198 116.994
121.198 125.237 115.955
121.724 124.53 116.935
121.97 125.421 116.497
122.385 124.875 117.178
118.708 126.939 115.992
121.842 126.173 115.716
122.502 126.218 116.684
118.374 128.324 115.923
122.626 127.444 116.489
122.942 128.937 116.343
123.564 128.394 117.45
118.116 129.53 116.204
123.235 129.895 116.316
124 129.691 117.152
117.58 131.887 115.411
117.862 130.613 116.571
124.654 130.533 117.569
124.662 132.283 116.773
125.265 131.703 117.751
117.27 133.019 115.921
124.743 133.208 116.26
125.363 133.271 116.911
117.06 134.08 116.62
126.003 134.231 117.206
126.361 135.96 116.732
126.779 135.785 117.543
117.125 135.206 117.068
127.485 137.236 117.594
117.301 136.268 117.634
127.914 137.966 117.931
128.138 139.074 118.007
128.16 137.852 119.138
117.61 137.213 117.999
117.913 138.273 118.013
118.362 137.257 119.317
128.456 139.985 118.155
128.439 139.198 119.36
118.107 139.389 117.804
118.624 138.726 118.965
128.556 140.46 119.683
118.951 140.117 118.481
128.344 141.948 119.754
119.112 141.185 117.674
120.112 141.861 118.121
127.905 143.565 119.519
120.63 142.812 118.08
122.55 144.329 118.156
121.78 143.344 118.746
122.898 144.046 119.206
127.488 144.532 119.386
126.97 145.539 118.96
123.438 144.82 118.455
124.525 145.261 119.074
125.717 145.619 119.35
119.015 125.462 117.283
119.693 123.829 117.598
120.831 123.101 117.501
122.172 123.486 117.623
122.99 124.723 117.755
118.803 126.915 117.35
123.56 125.317 118.401
123.033 126.416 117.484
123.707 126.526 118.236
118.544 128.069 117.5
123.891 127.486 118.108
124.623 128.495 118.287
125.137 127.68 119.449
118.266 129.157 117.83
124.873 129.458 118.19
125.609 128.935 119.286
117.657 131.526 117.098
117.988 130.304 118.2
125.577 130.348 118.613
125.888 131.953 118.45
126.455 131.126 119.359
117.431 132.647 117.402
117.767 131.487 118.605
125.948 133.093 117.954
126.472 133.023 118.832
117.413 133.635 118.27
126.629 134.403 118.259
127.292 135.823 118.537
127.434 134.923 119.453
117.454 134.758 118.615
127.826 136.859 118.754
127.965 136.168 119.898
117.755 135.49 119.02
117.94 136.445 118.985
118.405 135.782 120.323
128.395 137.616 120.255
119.02 137.138 120.45
128.388 139.041 120.651
119.292 138.354 120
119.341 139.494 119.487
120.084 139.326 120.405
128.124 140.435 120.797
119.437 140.382 118.857
119.989 140.411 119.648
127.919 142.434 120.464
120.959 142.243 118.947
120.121 141.2 118.974
121.642 142.614 119.412
121.378 141.692 119.814
122.255 142.641 120.023
127.18 144.112 120.022
127.144 142.703 120.863
126.408 143.5 120.821
123.94 144.464 119.806
122.999 143.376 120.096
125.095 144.789 120.162
124.24 143.728 120.696
126.34 144.837 120.062
125.452 143.88 120.875
120.285 122.488 118.311
119.439 124.04 118.436
119.865 122.607 119.22
120.768 121.48 119.149
121.617 122.182 118.236
122.376 121.445 118.854
122.994 122.84 118.371
123.654 121.787 119.065
123.929 123.128 119.161
124.486 122.614 119.976
119.187 125.452 118.561
123.619 124.066 118.712
124.637 124.082 119.883
118.984 126.653 118.865
124.646 125.374 119.51
124.677 126.655 119.205
125.586 126.096 120.367
118.682 127.852 119.034
125.985 127.402 120.438
118.406 129.027 119.334
126.537 128.244 120.721
126.267 129.671 119.734
126.886 129.862 120.666
118.248 130.087 119.877
127.006 131.627 120.024
117.745 132.489 119.279
118.12 131.233 120.064
127.262 132.815 120.071
117.942 133.619 119.917
118.146 132.61 120.745
127.146 133.879 119.512
127.974 134.644 120.655
117.952 134.721 120.074
118.639 134.12 121.294
128.335 136.064 121.042
118.984 135.649 121.426
128.318 137.575 121.464
119.588 136.698 121.734
119.91 138.074 120.979
120.661 138.558 121.422
120.306 137.274 122.104
120.977 137.835 122.486
128.05 139.041 121.864
120.922 139.948 120.894
121.311 139.146 121.975
127.665 140.227 121.731
127.305 139.573 122.646
127.021 140.793 122.238
120.925 140.89 120.146
121.884 140.316 121.581
121.873 141.269 120.708
122.608 141.268 121.404
127.583 141.509 121.238
126.635 141.968 121.81
123.037 141.946 121.304
125.843 142.905 121.609
123.152 142.582 120.881
123.934 142.817 121.135
124.914 142.973 121.529
122.413 119.241 119.966
121.118 119.592 120.146
121.66 118.475 120.759
122.58 117.641 120.556
123.583 119.267 120.105
123.853 117.706 120.542
124.639 119.65 120.4
124.883 118.153 120.923
121.709 120.486 119.451
120.437 120.819 120.321
123.21 120.439 119.504
124.444 121.166 120.019
125.321 119.557 120.976
125.414 121.374 120.8
125.97 119.802 121.562
119.642 123.973 119.617
120.17 122.288 120.301
125.489 123.09 120.776
126.249 120.99 121.744
126.345 122.437 121.724
126.934 121.175 122.602
119.561 125.221 119.99
125.643 124.731 120.732
126.397 124.081 121.719
127.055 123.076 122.567
119.165 126.462 120.356
126.572 125.787 121.48
127.014 124.997 122.54
118.743 127.856 120.29
126.587 127.04 121.384
127.114 126.872 122.394
118.648 129.016 120.885
127.21 128.495 121.645
127.349 130.568 121.286
127.632 129.651 122.224
118.741 130.144 121.573
127.613 132.04 121.024
127.826 131.385 122.056
118.565 131.452 121.553
127.775 133.448 120.59
128.078 133.291 121.692
118.8 132.874 121.827
128.386 134.655 121.901
119.439 133.324 122.793
119.384 134.675 122.373
120.008 134.021 123.333
128.294 136.022 122.251
119.818 135.876 122.349
120.191 135.269 123.062
127.84 137.348 122.545
120.84 136.39 123.144
121.586 137.602 123.158
127.364 138.321 123.024
121.94 138.584 122.859
121.944 139.407 122.227
122.457 139.424 122.836
126.533 139.082 123.431
126.244 140.19 123.038
123.618 141.294 122.275
122.908 140.333 122.424
124.728 141.229 122.831
123.889 140.249 123.152
125.779 141.114 122.632
125.061 140.134 123.46
123.712 142.132 121.698
124.479 142.192 122.042
125.518 142.082 122.188
123.313 116.155 121.151
122.197 116.719 121.593
122.659 115.72 122.319
123.47 114.689 121.806
124.616 116.436 121.11
124.839 115.111 121.264
125.77 116.75 121.565
126.016 115.421 121.643
121.012 119.312 121.288
121.657 117.862 121.927
125.823 118.185 121.53
126.585 116.61 122.216
126.681 117.987 122.465
127.318 117.01 123.03
120.835 120.568 121.636
126.606 119.517 122.372
127.283 119.102 123.26
120.007 123.527 120.882
120.494 121.937 121.607
127.357 121.254 123.433
119.861 124.806 121.372
120.228 123.304 122.157
127.494 123.354 123.43
119.481 126.031 121.588
120.08 124.829 122.719
127.426 125.352 123.477
119.026 127.484 121.494
119.648 126.166 122.676
127.374 126.845 123.823
119.063 128.677 122.207
127.45 128.252 122.92
127.774 129.745 123.097
119.55 128.945 123.165
119.19 130.449 122.743
119.874 129.89 123.778
127.877 131.742 122.893
119.173 131.678 122.634
119.93 131.069 123.713
127.949 133.259 122.914
119.484 132.479 122.747
120.1 132.215 123.614
127.986 134.594 123.194
120.72 134.564 123.91
120.608 133.037 124.142
121.383 134.201 124.544
127.78 135.935 123.358
120.849 135.537 123.59
121.529 135.625 124.151
127.231 137.01 123.606
122.611 138.019 123.791
121.963 136.714 123.938
123.71 137.983 124.337
123.041 136.884 124.564
124.813 137.88 124.48
124.215 136.734 124.989
125.785 137.73 124.317
125.381 136.635 124.912
126.553 137.928 123.847
126.351 136.759 124.483
123.214 139.287 123.643
124.345 139.158 123.979
125.56 139.042 123.981
127.398 106.057 119.574
126.231 107.428 121.088
127.18 105.215 121.276
128.534 103.64 120.239
128.961 106.315 119.877
130.258 104.49 120.386
129.875 106.798 121.032
130.342 105.706 121.964
126.383 108.889 120.49
125.214 109.171 121.664
127.794 108.665 120.413
128.851 108.467 121.233
129.666 107.886 122.437
125.649 110.873 121.165
124.686 110.756 122.615
127.159 110.508 121.005
128.377 110.567 121.778
129.132 110.046 122.836
124.673 112.084 121.513
124.044 112.955 122.741
124.43 112.041 123.22
126.248 112.678 121.488
127.528 112.274 121.77
128.388 112.389 123.021
128.857 111.768 123.885
124.38 113.652 121.749
123.72 114.056 123.229
125.813 114.038 121.565
127.469 114.168 122.359
128.287 113.811 123.316
122.448 116.828 123.088
123.228 115.209 123.488
126.963 115.349 122.354
127.867 115.712 123.508
121.362 119.229 122.512
121.985 118.061 123.325
127.76 117.516 123.984
121.078 120.528 122.911
127.641 119.501 124.216
120.815 121.909 123.03
127.626 121.536 124.359
120.572 123.244 123.407
127.634 123.64 124.405
120.507 124.586 123.922
127.524 125.341 124.705
119.48 127.333 122.915
120.21 126.075 123.865
127.357 126.931 125.154
119.551 128.081 123.211
120.124 127.54 124.058
127.529 128.274 124.094
127.769 130.12 123.998
120.645 130.233 124.632
120.284 128.782 124.241
121.112 129.306 125.185
127.63 131.388 124.067
120.966 131.347 124.72
121.591 130.438 125.661
127.639 132.843 124.071
120.848 132.193 124.495
121.668 131.969 125.436
127.478 133.853 124.264
127.271 132.743 124.747
126.88 133.22 125.171
122.298 134.682 125.076
121.677 133.092 125.08
122.609 133.557 125.638
127.276 134.852 124.296
126.388 134.277 125.287
122.551 135.879 124.838
123.184 134.576 125.768
123.667 135.642 125.356
125.026 135.564 125.428
124.288 134.666 126.014
126.271 135.504 125.055
125.492 134.488 125.837
127.05 135.973 124.235
126.162 107.765 122.479
127.027 106.423 123.16
128.223 104.613 122.744
129.886 104.181 122.522
130.018 106.483 123.438
125.438 109.665 123.3
129.619 108.87 123.852
125.171 111.323 124.494
129.246 110.583 124.497
124.335 113.38 124.512
124.782 112.415 124.609
128.706 111.892 125.585
128.578 113.51 124.919
123.975 114.61 124.878
128.299 114.975 124.48
123.006 116.512 124.275
123.596 115.696 125.02
128.134 116.498 124.86
121.813 119.223 123.945
122.671 117.835 124.628
127.972 118.132 125.103
121.557 120.58 124.234
122.393 119.191 125.168
127.704 119.94 125.276
121.231 121.869 124.399
122.109 120.81 125.415
127.711 121.889 125.365
121.006 123.329 124.669
121.859 122.239 125.572
127.553 123.508 125.607
120.968 125.159 124.936
121.618 123.657 125.574
127.318 125.052 125.873
120.889 126.655 124.997
121.836 124.848 125.891
121.744 126.061 125.913
122.602 125.312 126.677
127.059 126.42 126.185
121.044 128.089 125.116
121.882 127.424 125.933
122.73 126.756 126.856
127.335 128.557 125.03
126.955 128.137 126.08
121.942 128.955 125.991
122.792 128.229 126.74
127.354 129.768 125.302
126.773 129.868 126.224
122.419 130.933 126.259
122.819 129.782 126.668
127.194 131.34 125.203
126.496 130.927 126.31
122.676 132.377 126.044
123.347 131.027 126.703
123.801 132.25 126.418
125.171 132.311 126.385
124.437 131.243 126.757
126.47 132.104 125.845
125.633 131.224 126.752
123.544 133.448 126.235
124.682 133.51 126.312
125.875 133.289 125.921
126.289 108.289 123.78
127.029 107.383 124.475
127.839 106.174 124.525
129.313 105.864 124.442
129.419 107.87 124.766
125.903 109.905 124.689
129.194 109.435 125.202
125.829 110.892 125.686
128.955 110.652 125.73
125.185 112.888 125.995
125.736 111.953 126.192
126.474 112.842 127.334
128.312 112.979 126.502
127.485 112.022 127.176
128.369 111.17 126.702
124.73 114.149 126.084
125.646 113.89 127.31
127.207 113.83 127.606
128.186 114.167 126.331
128.247 115.303 125.773
123.554 116.799 125.629
124.344 115.567 126.334
128.076 116.982 126.185
123.325 118.211 125.97
124.222 117.083 126.789
127.77 118.684 126.305
123.02 119.774 126.277
124.014 118.774 126.948
127.589 120.433 126.349
122.878 121.389 126.436
123.745 120.456 127.225
127.434 122.045 126.578
122.64 122.898 126.552
123.568 122.146 127.309
127.102 123.486 126.765
122.45 124.12 126.484
123.368 123.838 127.292
126.883 124.906 126.95
123.462 125.33 127.371
126.708 126.54 126.994
123.661 126.466 127.516
123.808 127.753 127.424
125.289 127.848 127.558
124.657 126.658 127.663
126.362 127.666 127.124
125.84 126.538 127.607
123.771 129.121 127.112
124.961 129.008 127.274
126.284 128.879 126.905
123.795 130.275 127.081
124.801 130.224 127.221
125.914 130.081 127.016
126.566 108.711 125.235
127.456 107.626 125.716
128.593 107.16 125.309
126.482 110.007 126.149
127.382 109.111 126.483
128.629 108.49 126.022
126.35 111.149 126.874
127.307 110.507 127.213
128.442 109.874 126.562
125.387 115.367 127.32
126.608 115.22 127.881
127.754 115.045 127.175
125.13 116.711 127.618
126.497 116.654 128.054
127.673 116.268 127.211
124.962 118.224 127.791
126.326 118.171 128.092
127.445 117.835 127.372
124.817 119.755 127.79
126.129 119.632 128.034
127.22 119.39 127.396
124.537 121.393 127.932
125.804 121.07 128.077
126.952 120.878 127.448
124.309 123.023 127.994
125.535 122.615 128.104
126.62 122.31 127.601
124.232 124.508 127.885
125.327 124.087 128.051
126.341 123.761 127.65
124.231 125.611 127.669
125.105 125.381 127.868
126.19 125.233 127.7
POLYGONS 1936  7744
3 0 1 2
3 0 3 4
3 2 3 0
3 4 5 6
3 3 5 4
3 5 7 6
3 8 1 0
3 9 1 8
3 4 10 0
3 10 8 0
3 6 11 4
3 11 10 4
3 12 6 7
3 11 6 12
3 8 13 9
3 10 13 8
3 14 13 10
3 11 14 10
3 15 14 11
3 12 15 11
3 16 17 18
3 16 19 20
3 18 19 16
3 20 21 22
3 19 21 20
3 21 23 22
3 24 17 16
3 25 17 24
3 20 26 16
3 26 24 16
3 22 27 20
3 27 26 20
3 28 22 23
3 28 29 22
3 29 27 22
3 28 30 29
3 31 25 24
3 32 25 31
3 26 33 24
3 33 31 24
3 27 34 26
3 34 33 26
3 29 35 27
3 35 34 27
3 36 29 30
3 35 29 36
3 31 37 32
3 37 38 39
3 37 31 38
3 31 33 38
3 34 40 33
3 40 38 33
3 35 41 34
3 41 40 34
3 42 35 36
3 41 35 42
3 38 43 39
3 40 43 38
3 44 43 40
3 44 45 46
3 44 40 45
3 40 41 45
3 47 41 42
3 47 48 41
3 48 45 41
3 48 49 50
3 47 49 48
3 49 51 50
3 52 46 45
3 53 46 52
3 48 54 45
3 54 52 45
3 50 55 48
3 55 54 48
3 56 50 51
3 55 50 56
3 57 58 59
3 53 57 59
3 52 57 53
3 52 1 57
3 52 2 1
3 3 2 52
3 54 3 52
3 5 3 54
3 55 5 54
3 55 7 5
3 55 56 7
3 56 60 7
3 61 58 57
3 62 58 61
3 1 9 61
3 57 1 61
3 7 60 12
3 60 63 12
3 61 64 62
3 9 64 61
3 9 13 64
3 13 65 64
3 14 66 13
3 13 66 65
3 15 67 14
3 14 67 66
3 63 15 12
3 67 15 63
3 68 69 70
3 68 71 72
3 70 71 68
3 71 73 72
3 74 69 68
3 75 69 74
3 18 17 74
3 18 74 72
3 72 74 68
3 72 73 76
3 72 76 18
3 18 76 19
3 21 19 77
3 19 76 77
3 77 23 21
3 78 23 77
3 79 75 74
3 80 75 79
3 17 25 79
3 74 17 79
3 23 78 81
3 28 23 81
3 81 30 28
3 82 30 81
3 83 80 79
3 84 80 83
3 25 32 83
3 79 25 83
3 85 86 36
3 85 36 82
3 82 36 30
3 85 87 86
3 83 88 84
3 89 90 88
3 37 89 88
3 37 88 83
3 37 83 32
3 37 39 89
3 86 91 42
3 36 86 42
3 92 86 87
3 91 86 92
3 89 93 90
3 94 95 93
3 43 94 93
3 43 93 89
3 43 89 39
3 43 44 96
3 94 43 96
3 44 46 96
3 42 91 47
3 91 92 97
3 91 97 47
3 47 97 49
3 97 51 49
3 98 51 97
3 99 95 94
3 100 95 99
3 96 101 94
3 101 99 94
3 46 53 101
3 96 46 101
3 51 98 56
3 98 102 56
3 99 103 100
3 59 58 104
3 59 104 99
3 59 99 101
3 99 104 103
3 53 59 101
3 56 102 60
3 102 105 60
3 58 62 104
3 104 62 106
3 60 105 63
3 105 107 63
3 62 108 106
3 64 108 62
3 109 110 108
3 109 108 65
3 65 108 64
3 65 66 111
3 109 65 111
3 66 67 112
3 111 66 112
3 67 113 112
3 67 63 113
3 63 107 113
3 109 114 110
3 111 114 109
3 115 114 111
3 112 115 111
3 116 115 112
3 113 116 112
3 70 117 118
3 69 117 70
3 71 70 119
3 70 118 119
3 73 120 121
3 73 71 120
3 71 119 120
3 120 122 121
3 69 75 117
3 117 75 123
3 73 121 76
3 121 122 124
3 121 124 76
3 76 124 77
3 124 78 77
3 125 78 124
3 75 80 123
3 123 80 126
3 78 125 127
3 81 78 127
3 127 82 81
3 128 82 127
3 80 84 126
3 126 84 129
3 82 128 130
3 85 82 130
3 130 87 85
3 131 87 130
3 132 84 88
3 132 133 84
3 133 129 84
3 88 90 132
3 87 131 92
3 131 134 92
3 135 133 132
3 136 133 135
3 90 93 137
3 90 137 132
3 132 137 135
3 93 95 137
3 92 134 138
3 97 92 138
3 138 98 97
3 139 98 138
3 135 140 136
3 140 141 142
3 140 135 141
3 135 137 141
3 95 100 141
3 137 95 141
3 98 139 102
3 139 143 102
3 141 144 142
3 145 146 144
3 103 145 144
3 103 144 141
3 103 141 100
3 103 104 145
3 147 148 105
3 147 105 143
3 143 105 102
3 147 149 148
3 150 146 145
3 151 146 150
3 104 106 150
3 145 104 150
3 148 152 107
3 105 148 107
3 153 148 149
3 152 148 153
3 150 154 151
3 106 154 150
3 106 108 154
3 108 155 154
3 155 108 110
3 156 155 110
3 152 157 113
3 107 152 113
3 158 152 153
3 157 152 158
3 110 159 156
3 114 159 110
3 115 160 114
3 114 160 159
3 116 161 115
3 115 161 160
3 157 116 113
3 157 162 116
3 162 161 116
3 158 162 157
3 163 164 165
3 163 166 167
3 165 166 163
3 167 168 169
3 166 168 167
3 168 170 169
3 118 164 163
3 118 117 164
3 117 171 164
3 119 118 163
3 167 119 163
3 120 119 167
3 169 120 167
3 169 122 120
3 169 170 122
3 170 172 122
3 117 123 171
3 171 123 173
3 122 172 174
3 124 122 174
3 174 125 124
3 175 125 174
3 123 126 173
3 173 126 176
3 125 175 177
3 127 125 177
3 177 128 127
3 178 128 177
3 126 129 176
3 176 129 179
3 128 178 180
3 130 128 180
3 180 131 130
3 181 131 180
3 129 133 179
3 179 133 182
3 131 181 134
3 181 183 134
3 133 136 182
3 182 136 184
3 134 183 185
3 138 134 185
3 185 139 138
3 186 139 185
3 187 136 140
3 187 188 136
3 188 184 136
3 140 142 187
3 189 190 143
3 189 143 186
3 186 143 139
3 189 191 190
3 187 192 188
3 193 194 192
3 144 193 192
3 144 192 187
3 144 187 142
3 144 146 193
3 143 190 147
3 190 149 147
3 190 191 149
3 191 195 149
3 196 194 193
3 197 194 196
3 146 151 196
3 193 146 196
3 149 195 153
3 195 198 153
3 196 199 197
3 151 199 196
3 151 154 199
3 154 200 199
3 201 202 200
3 201 200 155
3 155 200 154
3 155 156 201
3 153 198 158
3 198 203 158
3 201 204 202
3 156 204 201
3 156 159 204
3 159 205 204
3 160 206 159
3 159 206 205
3 161 207 160
3 160 207 206
3 162 208 161
3 161 208 207
3 203 162 158
3 208 162 203
3 165 209 210
3 164 209 165
3 166 165 211
3 165 210 211
3 168 166 212
3 166 211 212
3 212 170 168
3 213 170 212
3 164 171 209
3 209 171 214
3 170 213 172
3 213 215 172
3 171 173 214
3 214 173 216
3 172 215 217
3 174 172 217
3 217 175 174
3 218 175 217
3 173 176 216
3 216 176 219
3 175 218 220
3 177 175 220
3 220 178 177
3 221 178 220
3 176 179 219
3 219 179 222
3 178 221 223
3 180 178 223
3 223 181 180
3 224 181 223
3 179 182 222
3 222 182 225
3 181 224 183
3 224 226 183
3 182 184 225
3 225 184 227
3 183 226 228
3 185 183 228
3 228 186 185
3 229 186 228
3 184 188 227
3 227 188 230
3 186 229 231
3 189 186 231
3 231 191 189
3 232 191 231
3 188 233 230
3 192 233 188
3 233 192 194
3 234 233 194
3 191 232 195
3 232 235 195
3 194 197 234
3 234 197 236
3 195 235 198
3 235 237 198
3 197 238 236
3 199 238 197
3 200 239 199
3 199 239 238
3 239 200 202
3 240 239 202
3 198 237 203
3 237 241 203
3 202 242 240
3 204 242 202
3 205 243 204
3 204 243 242
3 206 244 205
3 205 244 243
3 207 245 206
3 206 245 244
3 208 246 207
3 207 246 245
3 241 208 203
3 246 208 241
3 247 248 249
3 247 250 251
3 249 250 247
3 251 252 253
3 250 252 251
3 252 254 253
3 210 248 247
3 210 209 248
3 209 255 248
3 211 210 247
3 251 211 247
3 212 211 251
3 253 212 251
3 253 213 212
3 253 254 213
3 254 256 213
3 209 214 255
3 255 214 257
3 213 256 215
3 256 258 215
3 214 216 257
3 257 216 259
3 215 258 260
3 217 215 260
3 260 218 217
3 261 218 260
3 216 219 259
3 259 219 262
3 218 261 263
3 220 218 263
3 263 221 220
3 264 221 263
3 219 222 262
3 262 222 265
3 221 264 266
3 223 221 266
3 266 224 223
3 267 224 266
3 222 225 265
3 265 225 268
3 224 267 226
3 267 269 226
3 225 227 268
3 268 227 270
3 226 269 271
3 228 226 271
3 271 229 228
3 272 229 271
3 227 230 270
3 270 230 273
3 274 231 229
3 274 229 275
3 275 229 272
3 231 274 232
3 230 276 273
3 233 276 230
3 276 233 234
3 277 276 234
3 274 275 278
3 278 232 274
3 278 279 232
3 279 235 232
3 234 236 277
3 277 236 280
3 235 279 237
3 279 281 237
3 236 282 280
3 238 282 236
3 239 283 238
3 238 283 282
3 283 239 240
3 284 283 240
3 237 281 241
3 281 285 241
3 240 286 284
3 242 286 240
3 243 287 242
3 242 287 286
3 244 288 243
3 243 288 287
3 245 289 244
3 244 289 288
3 246 290 245
3 245 290 289
3 285 246 241
3 290 246 285
3 249 291 292
3 248 291 249
3 250 249 293
3 249 292 293
3 252 250 294
3 250 293 294
3 294 254 252
3 295 254 294
3 248 255 291
3 291 255 296
3 297 298 256
3 297 256 295
3 295 256 254
3 297 299 298
3 255 257 296
3 296 257 300
3 298 301 258
3 256 298 258
3 302 298 299
3 301 298 302
3 257 259 300
3 300 259 303
3 258 301 260
3 261 304 305
3 260 304 261
3 260 302 304
3 260 301 302
3 304 306 305
3 259 262 303
3 303 262 307
3 261 305 263
3 305 264 263
3 305 306 264
3 306 308 264
3 262 265 307
3 307 265 309
3 264 308 310
3 266 264 310
3 310 267 266
3 311 267 310
3 265 268 309
3 309 268 312
3 313 314 269
3 313 269 311
3 311 269 267
3 313 315 314
3 268 270 312
3 312 270 316
3 269 314 271
3 314 272 271
3 314 315 272
3 315 317 272
3 270 273 316
3 316 273 318
3 272 317 275
3 317 319 275
3 273 320 318
3 276 320 273
3 320 276 277
3 321 320 277
3 275 319 322
3 278 275 322
3 322 279 278
3 323 279 322
3 277 280 321
3 321 280 324
3 279 323 281
3 323 325 281
3 280 326 324
3 282 326 280
3 283 327 282
3 282 327 326
3 327 283 284
3 328 327 284
3 281 325 285
3 325 329 285
3 284 330 328
3 286 330 284
3 287 331 286
3 286 331 330
3 288 332 287
3 287 332 331
3 289 333 288
3 288 333 332
3 290 334 289
3 289 334 333
3 329 290 285
3 334 290 329
3 335 336 337
3 335 338 339
3 337 338 335
3 338 340 339
3 292 291 341
3 335 342 336
3 335 292 342
3 335 293 292
3 341 342 292
3 294 293 335
3 339 294 335
3 295 343 344
3 294 343 295
3 294 340 343
3 294 339 340
3 343 345 344
3 341 346 347
3 341 291 346
3 291 296 346
3 342 341 347
3 295 344 297
3 344 299 297
3 344 345 299
3 345 348 299
3 296 300 346
3 346 300 349
3 299 348 302
3 348 350 302
3 300 303 349
3 349 303 351
3 302 350 352
3 304 302 352
3 352 306 304
3 353 306 352
3 303 307 351
3 351 307 354
3 355 356 308
3 355 308 353
3 353 308 306
3 355 357 356
3 307 309 354
3 354 309 358
3 308 356 310
3 311 359 360
3 310 359 311
3 310 357 359
3 310 356 357
3 359 361 360
3 309 312 358
3 358 312 362
3 311 360 313
3 360 315 313
3 360 361 315
3 361 363 315
3 312 316 362
3 362 316 364
3 315 363 317
3 363 365 317
3 316 318 364
3 364 318 366
3 317 365 319
3 365 367 319
3 318 368 366
3 320 368 318
3 368 320 321
3 369 368 321
3 370 322 319
3 370 319 371
3 371 319 367
3 322 370 323
3 372 324 373
3 372 369 324
3 369 321 324
3 372 373 374
3 375 370 371
3 376 375 371
3 323 375 325
3 370 375 323
3 324 326 373
3 373 377 374
3 373 326 377
3 326 327 377
3 328 378 379
3 328 379 327
3 327 379 377
3 378 380 381
3 379 378 381
3 380 382 383
3 381 380 383
3 382 384 385
3 383 382 385
3 376 385 384
3 376 384 375
3 375 384 386
3 325 386 329
3 375 386 325
3 328 330 378
3 331 378 330
3 380 378 331
3 332 380 331
3 382 380 332
3 333 382 332
3 384 382 333
3 334 384 333
3 386 384 334
3 329 386 334
3 387 388 389
3 387 390 391
3 389 390 387
3 390 392 391
3 337 388 387
3 337 336 388
3 336 393 388
3 338 337 387
3 391 338 387
3 340 394 395
3 338 394 340
3 338 392 394
3 338 391 392
3 394 396 395
3 336 342 393
3 393 342 397
3 340 395 343
3 395 345 343
3 395 396 345
3 396 398 345
3 347 399 400
3 346 399 347
3 397 342 347
3 400 397 347
3 401 402 348
3 401 348 398
3 398 348 345
3 401 403 402
3 346 349 399
3 399 349 404
3 402 405 350
3 348 402 350
3 406 402 403
3 405 402 406
3 349 351 404
3 404 351 407
3 350 405 352
3 353 408 409
3 352 408 353
3 352 406 408
3 352 405 406
3 408 410 409
3 351 354 407
3 407 354 411
3 353 409 355
3 357 412 413
3 355 412 357
3 355 410 412
3 355 409 410
3 412 414 413
3 354 358 411
3 411 358 415
3 357 413 359
3 413 361 359
3 413 414 361
3 414 416 361
3 358 362 415
3 415 362 417
3 361 416 363
3 416 418 363
3 362 364 417
3 417 364 419
3 420 421 365
3 420 365 418
3 418 365 363
3 420 422 421
3 423 366 424
3 423 419 366
3 419 364 366
3 423 424 425
3 421 426 367
3 365 421 367
3 427 421 422
3 426 421 427
3 366 368 424
3 369 428 429
3 368 369 429
3 368 429 425
3 368 425 424
3 429 428 430
3 426 431 371
3 367 426 371
3 432 426 427
3 431 426 432
3 369 372 428
3 374 433 434
3 372 374 434
3 372 434 430
3 372 430 428
3 434 433 435
3 431 436 437
3 431 437 371
3 371 437 376
3 432 436 431
3 374 377 433
3 433 438 435
3 433 377 438
3 377 379 438
3 381 439 379
3 379 439 438
3 383 440 381
3 381 440 439
3 385 441 383
3 383 441 440
3 437 385 376
3 441 385 437
3 442 443 444
3 442 445 446
3 444 445 442
3 446 447 448
3 445 447 446
3 447 449 448
3 389 443 442
3 389 388 443
3 388 450 443
3 390 389 442
3 446 390 442
3 392 390 446
3 392 446 451
3 451 446 448
3 452 448 449
3 451 448 452
3 388 393 450
3 450 393 453
3 392 451 394
3 396 454 455
3 394 454 396
3 394 452 454
3 394 451 452
3 454 456 455
3 393 397 453
3 453 397 457
3 455 458 398
3 396 455 398
3 459 455 456
3 458 455 459
3 400 460 461
3 399 460 400
3 457 397 400
3 461 457 400
3 398 458 401
3 403 462 463
3 401 462 403
3 401 459 462
3 401 458 459
3 462 464 463
3 399 404 460
3 460 404 465
3 463 466 406
3 403 463 406
3 467 463 464
3 466 463 467
3 404 407 465
3 465 407 468
3 406 466 408
3 410 469 470
3 408 469 410
3 408 467 469
3 408 466 467
3 469 471 470
3 407 411 468
3 468 411 472
3 410 470 412
3 470 414 412
3 470 471 414
3 471 473 414
3 411 415 472
3 472 415 474
3 475 476 416
3 475 416 473
3 473 416 414
3 475 477 476
3 478 417 479
3 478 474 417
3 474 415 417
3 478 479 480
3 476 481 418
3 416 476 418
3 482 476 477
3 481 476 482
3 479 419 483
3 417 419 479
3 484 480 479
3 483 484 479
3 418 481 420
3 481 422 420
3 481 482 422
3 482 485 422
3 419 423 483
3 483 423 425
3 483 425 484
3 484 425 486
3 422 485 427
3 485 487 427
3 425 488 486
3 429 488 425
3 488 429 430
3 489 488 430
3 427 487 432
3 487 490 432
3 430 491 489
3 434 491 430
3 435 492 493
3 435 493 434
3 434 493 491
3 493 492 494
3 436 495 496
3 437 436 496
3 490 436 432
3 495 436 490
3 435 438 492
3 492 497 494
3 492 438 497
3 438 439 497
3 440 498 439
3 439 498 497
3 441 499 440
3 440 499 498
3 496 441 437
3 499 441 496
3 444 500 501
3 443 500 444
3 445 444 502
3 444 501 502
3 447 445 503
3 445 502 503
3 503 449 447
3 504 449 503
3 443 450 500
3 500 450 505
3 506 507 452
3 506 452 504
3 504 452 449
3 506 508 507
3 450 453 505
3 505 453 509
3 452 507 454
3 456 510 511
3 454 510 456
3 454 508 510
3 454 507 508
3 510 512 511
3 453 457 509
3 509 457 513
3 511 514 459
3 456 511 459
3 515 511 512
3 514 511 515
3 461 460 516
3 461 516 517
3 461 517 457
3 457 517 513
3 459 514 462
3 464 518 519
3 462 518 464
3 462 515 518
3 462 514 515
3 518 520 519
3 516 521 522
3 516 460 521
3 460 465 521
3 517 516 522
3 519 523 467
3 464 519 467
3 524 519 520
3 523 519 524
3 465 468 521
3 521 468 525
3 467 523 469
3 471 526 527
3 469 526 471
3 469 524 526
3 469 523 524
3 526 528 527
3 468 472 525
3 525 472 529
3 527 530 473
3 471 527 473
3 531 527 528
3 530 527 531
3 532 474 533
3 532 529 474
3 529 472 474
3 532 533 534
3 473 530 475
3 530 477 475
3 530 531 477
3 531 535 477
3 474 478 533
3 533 478 480
3 533 480 534
3 534 480 536
3 477 535 482
3 535 537 482
3 538 484 539
3 538 536 484
3 536 480 484
3 538 539 540
3 482 537 485
3 537 541 485
3 539 486 542
3 484 486 539
3 543 540 539
3 542 543 539
3 485 541 487
3 541 544 487
3 486 488 542
3 489 545 546
3 488 489 546
3 488 546 543
3 488 543 542
3 545 547 548
3 546 545 548
3 548 547 549
3 550 551 552
3 550 544 551
3 550 490 544
3 490 487 544
3 489 491 545
3 493 545 491
3 547 545 493
3 494 553 554
3 493 494 554
3 493 554 549
3 493 549 547
3 553 555 556
3 554 553 556
3 555 557 558
3 556 555 558
3 552 558 557
3 550 552 557
3 550 557 496
3 550 496 495
3 490 550 495
3 494 497 553
3 498 553 497
3 555 553 498
3 499 555 498
3 557 555 499
3 496 557 499
3 559 560 561
3 559 562 563
3 561 562 559
3 563 564 565
3 562 564 563
3 565 566 567
3 564 566 565
3 566 568 567
3 501 560 559
3 501 500 560
3 500 569 560
3 502 501 559
3 563 502 559
3 503 502 563
3 565 503 563
3 504 503 565
3 504 565 570
3 570 565 567
3 571 567 568
3 570 567 571
3 500 505 569
3 569 505 572
3 504 570 506
3 508 573 574
3 506 573 508
3 506 571 573
3 506 570 571
3 573 575 574
3 505 509 572
3 572 509 576
3 508 574 510
3 574 512 510
3 574 575 512
3 575 577 512
3 509 513 576
3 576 513 578
3 579 580 515
3 579 515 577
3 577 515 512
3 579 581 580
3 513 517 578
3 578 517 582
3 515 580 518
3 580 520 518
3 580 581 520
3 581 583 520
3 522 521 584
3 522 584 585
3 522 585 517
3 517 585 582
3 520 583 524
3 583 586 524
3 584 525 587
3 521 525 584
3 588 585 584
3 587 588 584
3 524 586 589
3 526 524 589
3 589 528 526
3 590 528 589
3 587 529 591
3 525 529 587
3 592 588 587
3 591 592 587
3 528 590 531
3 590 593 531
3 529 532 591
3 591 532 534
3 591 534 592
3 592 534 594
3 531 593 535
3 593 595 535
3 596 536 597
3 596 594 536
3 594 534 536
3 597 598 599
3 596 597 599
3 599 598 600
3 535 595 537
3 595 601 537
3 536 538 597
3 540 597 538
3 540 602 597
3 602 598 597
3 603 600 598
3 602 603 598
3 604 605 606
3 604 601 605
3 604 541 601
3 541 537 601
3 602 543 607
3 540 543 602
3 608 603 602
3 608 602 609
3 609 602 607
3 608 609 610
3 611 604 606
3 612 611 606
3 541 611 544
3 604 611 541
3 543 546 607
3 548 607 546
3 609 607 548
3 609 548 549
3 609 549 610
3 610 549 613
3 551 611 612
3 551 612 552
3 552 612 614
3 544 611 551
3 549 615 613
3 554 615 549
3 556 616 554
3 554 616 615
3 558 617 556
3 556 617 616
3 614 558 552
3 617 558 614
3 618 619 620
3 618 621 622
3 620 621 618
3 622 623 624
3 621 623 622
3 623 625 624
3 626 619 618
3 627 619 626
3 622 628 618
3 628 626 618
3 624 629 622
3 629 628 622
3 630 624 625
3 630 631 624
3 631 629 624
3 630 632 631
3 561 633 634
3 560 633 561
3 627 626 562
3 627 562 634
3 634 562 561
3 564 562 626
3 628 564 626
3 566 564 628
3 629 566 628
3 568 566 629
3 568 629 635
3 635 629 631
3 636 631 632
3 636 637 631
3 637 635 631
3 636 638 637
3 560 569 633
3 633 569 639
3 635 640 571
3 568 635 571
3 637 641 635
3 641 640 635
3 642 637 638
3 641 637 642
3 569 572 639
3 639 572 643
3 571 640 573
3 575 573 640
3 575 640 644
3 644 640 641
3 645 641 642
3 644 641 645
3 572 576 643
3 643 576 646
3 644 647 577
3 575 644 577
3 648 644 645
3 647 644 648
3 576 578 646
3 646 578 649
3 577 647 579
3 581 650 651
3 579 650 581
3 579 648 650
3 579 647 648
3 650 652 651
3 578 582 649
3 649 582 653
3 651 654 583
3 581 651 583
3 655 651 652
3 654 651 655
3 582 585 653
3 653 585 656
3 654 657 586
3 583 654 586
3 658 654 655
3 657 654 658
3 585 588 656
3 656 588 659
3 586 657 589
3 657 590 589
3 657 658 590
3 658 660 590
3 661 592 662
3 661 659 592
3 659 588 592
3 661 662 663
3 590 660 593
3 660 664 593
3 662 594 665
3 592 594 662
3 666 663 662
3 665 666 662
3 593 664 595
3 664 667 595
3 594 596 665
3 665 668 666
3 665 596 668
3 596 599 668
3 668 599 600
3 669 668 600
3 595 667 601
3 667 670 601
3 671 603 672
3 671 669 603
3 669 600 603
3 671 672 673
3 605 674 675
3 606 605 675
3 670 605 601
3 674 605 670
3 603 608 672
3 610 676 677
3 608 610 677
3 608 677 673
3 608 673 672
3 676 678 679
3 677 676 679
3 678 680 681
3 679 678 681
3 680 675 681
3 680 612 675
3 612 606 675
3 676 613 682
3 610 613 676
3 678 676 683
3 683 676 682
3 680 678 684
3 684 678 683
3 612 684 614
3 680 684 612
3 613 615 682
3 616 682 615
3 683 682 616
3 617 683 616
3 684 683 617
3 614 684 617
3 685 686 687
3 685 688 689
3 687 688 685
3 689 690 691
3 688 690 689
3 690 692 691
3 620 693 694
3 619 693 620
3 686 685 621
3 686 621 694
3 694 621 620
3 623 621 685
3 689 623 685
3 625 623 689
3 625 689 695
3 695 689 691
3 696 691 692
3 696 697 691
3 697 695 691
3 696 698 697
3 619 627 693
3 693 627 699
3 625 695 630
3 632 630 695
3 632 695 700
3 700 695 697
3 701 697 698
3 700 697 701
3 634 633 702
3 634 702 703
3 634 703 627
3 627 703 699
3 632 700 636
3 700 638 636
3 700 701 638
3 701 704 638
3 702 639 705
3 633 639 702
3 706 703 702
3 705 706 702
3 638 704 642
3 704 707 642
3 705 643 708
3 639 643 705
3 709 706 705
3 708 709 705
3 642 707 645
3 707 710 645
3 708 711 712
3 708 643 711
3 643 646 711
3 709 708 712
3 645 710 648
3 710 713 648
3 646 649 711
3 711 649 714
3 648 713 715
3 650 648 715
3 715 652 650
3 716 652 715
3 717 653 718
3 717 714 653
3 714 649 653
3 717 718 719
3 652 716 655
3 716 720 655
3 718 656 721
3 653 656 718
3 722 719 718
3 721 722 718
3 655 720 658
3 720 723 658
3 721 659 724
3 656 659 721
3 725 722 721
3 724 725 721
3 658 723 660
3 723 726 660
3 659 661 724
3 663 727 728
3 661 663 728
3 661 728 725
3 661 725 724
3 728 727 729
3 660 726 664
3 726 730 664
3 727 666 731
3 663 666 727
3 732 729 727
3 731 732 727
3 664 730 667
3 730 733 667
3 666 668 731
3 669 734 735
3 668 669 735
3 668 735 732
3 668 732 731
3 734 736 737
3 735 734 737
3 736 738 739
3 737 736 739
3 738 740 741
3 739 738 741
3 740 742 743
3 741 740 743
3 742 733 743
3 742 670 733
3 670 667 733
3 669 671 734
3 673 734 671
3 673 744 734
3 744 736 734
3 738 736 745
3 745 736 744
3 740 738 746
3 746 738 745
3 674 746 675
3 674 742 746
3 742 740 746
3 670 742 674
3 673 677 744
3 679 744 677
3 745 744 679
3 681 745 679
3 746 745 681
3 675 746 681
3 747 748 749
3 747 750 751
3 749 750 747
3 751 752 753
3 750 752 751
3 752 754 753
3 755 748 747
3 756 748 755
3 751 757 747
3 757 755 747
3 753 758 751
3 758 757 751
3 759 753 754
3 758 753 759
3 760 756 755
3 761 756 760
3 757 762 755
3 762 760 755
3 758 763 757
3 763 762 757
3 764 758 759
3 763 758 764
3 765 766 767
3 761 765 767
3 761 760 765
3 760 768 765
3 762 769 760
3 769 768 760
3 770 763 771
3 770 769 763
3 769 762 763
3 764 771 763
3 772 766 765
3 773 766 772
3 768 774 765
3 774 772 765
3 769 775 768
3 775 774 768
3 776 769 770
3 775 769 776
3 687 777 778
3 686 777 687
3 773 772 688
3 773 688 778
3 778 688 687
3 690 688 772
3 774 690 772
3 692 690 774
3 692 774 779
3 779 774 775
3 780 775 776
3 779 775 780
3 694 781 782
3 693 781 694
3 777 686 694
3 782 777 694
3 692 779 696
3 779 698 696
3 779 780 698
3 780 783 698
3 693 699 781
3 781 699 784
3 698 783 701
3 783 785 701
3 699 703 784
3 784 703 786
3 701 785 704
3 785 787 704
3 703 706 786
3 786 706 788
3 704 787 707
3 787 789 707
3 706 709 788
3 788 709 790
3 707 789 710
3 789 791 710
3 712 711 792
3 712 792 793
3 712 793 709
3 709 793 790
3 710 791 713
3 791 794 713
3 792 714 795
3 711 714 792
3 796 793 792
3 795 796 792
3 713 794 797
3 715 713 797
3 797 716 715
3 798 716 797
3 714 717 795
3 719 799 800
3 717 719 800
3 717 800 796
3 717 796 795
3 800 799 801
3 716 798 720
3 798 802 720
3 799 722 803
3 719 722 799
3 804 801 799
3 803 804 799
3 720 802 723
3 802 805 723
3 803 725 806
3 722 725 803
3 807 804 803
3 806 807 803
3 808 809 810
3 808 805 809
3 808 726 805
3 726 723 805
3 725 728 806
3 729 811 812
3 728 729 812
3 728 812 807
3 728 807 806
3 812 811 813
3 814 808 810
3 815 814 810
3 726 814 730
3 808 814 726
3 811 732 816
3 729 732 811
3 817 813 811
3 817 811 818
3 818 811 816
3 818 819 820
3 817 818 820
3 819 821 822
3 820 819 822
3 815 822 821
3 815 821 814
3 814 821 823
3 730 823 733
3 814 823 730
3 732 735 816
3 737 816 735
3 818 816 737
3 739 818 737
3 819 818 739
3 741 819 739
3 821 819 741
3 743 821 741
3 823 821 743
3 733 823 743
3 749 824 825
3 748 824 749
3 750 749 826
3 749 825 826
3 752 750 827
3 750 826 827
3 827 754 752
3 828 754 827
3 748 756 824
3 824 756 829
3 754 828 759
3 828 830 759
3 756 761 829
3 829 761 831
3 759 830 764
3 830 832 764
3 767 833 834
3 766 833 767
3 831 761 767
3 834 831 767
3 771 835 836
3 770 771 836
3 832 771 764
3 835 771 832
3 766 773 833
3 833 773 837
3 770 836 776
3 836 838 776
3 778 839 840
3 777 839 778
3 837 773 778
3 840 837 778
3 776 838 780
3 838 841 780
3 782 781 842
3 782 842 843
3 782 843 777
3 777 843 839
3 780 841 783
3 841 844 783
3 842 784 845
3 781 784 842
3 846 843 842
3 845 846 842
3 783 844 785
3 844 847 785
3 845 786 848
3 784 786 845
3 849 846 845
3 848 849 845
3 785 847 787
3 847 850 787
3 848 788 851
3 786 788 848
3 852 849 848
3 851 852 848
3 787 850 789
3 850 853 789
3 851 790 854
3 788 790 851
3 855 852 851
3 854 855 851
3 789 853 791
3 853 856 791
3 854 793 857
3 790 793 854
3 858 855 854
3 858 854 859
3 859 854 857
3 858 859 860
3 791 856 794
3 856 861 794
3 857 796 862
3 793 796 857
3 859 857 863
3 863 857 862
3 864 860 859
3 863 864 859
3 865 797 794
3 865 794 866
3 866 794 861
3 797 865 798
3 796 800 862
3 801 862 800
3 801 867 862
3 867 863 862
3 868 864 863
3 867 868 863
3 869 865 866
3 870 869 866
3 798 869 802
3 865 869 798
3 867 804 871
3 801 804 867
3 872 868 867
3 871 872 867
3 873 869 870
3 874 873 870
3 802 873 805
3 869 873 802
3 871 807 875
3 804 807 871
3 876 872 871
3 876 871 877
3 877 871 875
3 877 878 879
3 876 877 879
3 878 880 881
3 879 878 881
3 874 881 880
3 873 874 880
3 873 880 810
3 873 810 809
3 805 873 809
3 807 812 875
3 813 875 812
3 813 882 875
3 882 877 875
3 878 877 883
3 883 877 882
3 880 878 884
3 884 878 883
3 810 884 815
3 880 884 810
3 813 817 882
3 820 882 817
3 883 882 820
3 822 883 820
3 884 883 822
3 815 884 822
3 825 885 886
3 824 885 825
3 826 825 887
3 825 886 887
3 827 826 888
3 826 887 888
3 888 828 827
3 889 828 888
3 824 829 885
3 885 829 890
3 828 889 830
3 889 891 830
3 829 831 890
3 890 831 892
3 830 891 832
3 891 893 832
3 834 833 894
3 895 892 831
3 895 831 894
3 895 894 896
3 894 831 834
3 896 897 898
3 895 896 898
3 897 836 835
3 897 835 898
3 898 835 899
3 893 835 832
3 899 835 893
3 894 900 901
3 894 833 900
3 833 837 900
3 896 894 901
3 902 896 901
3 897 896 902
3 903 897 902
3 903 836 897
3 903 904 836
3 904 838 836
3 840 839 905
3 840 905 906
3 840 906 837
3 837 906 900
3 838 904 841
3 904 907 841
3 905 843 908
3 839 843 905
3 909 906 905
3 908 909 905
3 841 907 844
3 907 910 844
3 908 846 911
3 843 846 908
3 912 909 908
3 911 912 908
3 844 910 847
3 910 913 847
3 911 849 914
3 846 849 911
3 915 912 911
3 914 915 911
3 847 913 850
3 913 916 850
3 914 852 917
3 849 852 914
3 918 915 914
3 917 918 914
3 850 916 853
3 916 919 853
3 917 855 920
3 852 855 917
3 921 918 917
3 920 921 917
3 853 919 856
3 919 922 856
3 855 858 920
3 920 858 860
3 920 860 921
3 921 860 923
3 856 922 861
3 922 924 861
3 925 864 926
3 925 923 864
3 923 860 864
3 926 927 928
3 925 926 928
3 927 929 930
3 928 927 930
3 929 924 930
3 929 866 924
3 866 861 924
3 926 868 931
3 864 868 926
3 927 926 932
3 932 926 931
3 929 927 933
3 933 927 932
3 866 933 870
3 929 933 866
3 931 872 934
3 868 872 931
3 932 931 935
3 935 931 934
3 933 932 936
3 936 932 935
3 870 936 874
3 933 936 870
3 872 876 934
3 879 934 876
3 935 934 879
3 881 935 879
3 936 935 881
3 874 936 881
3 886 885 937
3 886 938 887
3 937 938 886
3 887 939 888
3 938 939 887
3 888 939 889
3 937 890 940
3 885 890 937
3 938 937 941
3 941 937 940
3 939 938 942
3 942 938 941
3 889 942 891
3 939 942 889
3 940 892 943
3 890 892 940
3 941 940 944
3 944 940 943
3 942 941 945
3 945 941 944
3 891 945 893
3 942 945 891
3 892 895 943
3 898 943 895
3 944 943 898
3 899 944 898
3 945 944 899
3 893 945 899
3 901 900 946
3 901 947 902
3 946 947 901
3 902 948 903
3 947 948 902
3 903 948 904
3 946 906 949
3 900 906 946
3 947 946 950
3 950 946 949
3 948 947 951
3 951 947 950
3 904 951 907
3 948 951 904
3 949 909 952
3 906 909 949
3 950 949 953
3 953 949 952
3 951 950 954
3 954 950 953
3 907 954 910
3 951 954 907
3 952 912 955
3 909 912 952
3 953 952 956
3 956 952 955
3 954 953 957
3 957 953 956
3 910 957 913
3 954 957 910
3 955 915 958
3 912 915 955
3 956 955 959
3 959 955 958
3 957 956 960
3 960 956 959
3 913 960 916
3 957 960 913
3 958 918 961
3 915 918 958
3 959 958 962
3 962 958 961
3 960 959 963
3 963 959 962
3 916 963 919
3 960 963 916
3 961 921 964
3 918 921 961
3 962 961 965
3 965 961 964
3 963 962 966
3 966 962 965
3 919 966 922
3 963 966 919
3 964 923 967
3 921 923 964
3 965 964 968
3 968 964 967
3 966 965 969
3 969 965 968
3 922 969 924
3 966 969 922
3 923 925 967
3 928 967 925
3 968 967 928
3 930 968 928
3 969 968 930
3 924 969 930
