# vtk DataFile Version 3.0
this file was written using fslvtkio
ASCII
DATASET POLYDATA
POINTS 642 float
67.7122 141.476 163.74
60.9577 149.88 161.472
56.8468 133.833 158.302
62.6883 126.811 161.401
64.612 130.592 171.48
65.0173 139.511 156.898
62.1144 142.747 154.309
58.7641 137.074 168.121
65.5597 148.457 169.933
57.6378 122.417 164.041
57.8554 125.256 150.941
72.1192 152.601 156.926
61.5469 143.326 171.026
65.1903 139.318 172.506
60.6648 132.342 171.969
57.2522 129.001 167.323
61.3226 123.402 170.468
68.0657 150.232 153.91
64.2454 141.571 154.661
73.595 146.553 154.04
58.3957 132.042 150.596
59.9585 130.961 153.752
64.3916 126.842 166.727
67.1978 136.149 168.251
65.0428 134.505 163.137
61.9148 132.218 158.641
67.1482 142.183 159.352
59.4789 144.551 165.526
57.0845 135.29 163.404
58.5557 142.419 159.865
62.5027 148.47 156.856
58.4978 137.656 155.135
72.1214 147.658 159.753
68.268 145.327 166.861
69.1177 153.169 163.626
66.2113 154.639 159.208
63.1339 151.795 166.458
60.4811 123.362 156.71
56.6109 120.472 156.234
60.7165 120.035 163.347
56.0231 127.697 153.429
56.2926 126.975 160.39
63.1364 141.594 172.787
62.7825 135.903 173.54
61.2281 137.944 171.812
62.6273 131.062 172.891
65.0845 135.021 172.222
65.4896 144.199 171.381
63.2824 146.895 171.548
60.1854 140.372 169.483
59.4678 135.087 170.339
58.7831 130.586 170.027
60.6474 127.487 171.915
59.0232 126.009 169.317
63.291 126.672 171.549
57.7565 133.123 167.734
57.6014 125.569 165.645
59.1328 122.538 167.599
67.3026 146.898 153.687
68.9435 145.668 154.891
71.1618 148.648 152.605
68.6708 144.263 156.14
64.468 140.552 155.861
63.5126 142.44 153.8
64.981 147.107 154.412
70.5732 151.834 154.934
74.5339 149.612 154.554
59.9349 131.594 150.747
61.0312 135.322 154.516
60.8561 136.593 153.679
61.9521 135.63 155.838
59.2527 128.018 151.735
57.3428 129.398 148.302
60.4855 138.042 153.536
65.9951 131.315 167.584
66.6291 134.618 165.571
65.0126 130.534 164.924
66.3451 137.959 163.635
67.7067 138.678 166.162
66.2601 133.424 170.158
65.0527 128.537 169.438
63.7295 126.882 163.914
63.6666 130.839 162.482
63.5593 134.03 160.855
65.4901 138.277 161.432
64.3994 137.243 159.377
67.5542 142.312 161.361
62.1766 129.734 160.165
63.0047 135.966 157.656
66.6855 140.765 157.901
58.2219 139.894 164.465
57.8337 139.037 161.669
58.6867 143.417 162.731
57.5668 138.165 158.941
57.2024 134.67 160.766
57.7856 136.43 165.859
59.4503 140.909 166.904
59.968 147.486 163.646
59.8391 146.322 160.75
60.3858 145.373 158.386
58.4193 140.647 157.425
60.1518 143.521 156.128
57.5022 135.565 156.424
61.8879 149.566 159.081
62.413 145.73 155.468
59.8141 140.913 154.232
69.9515 147.123 163.252
68.5876 149.519 164.945
70.7387 150.788 161.155
66.736 151.313 166.932
66.9596 147.039 168.344
68.7521 143.207 165.182
69.7858 144.721 161.908
73.3878 150.054 158.041
70.9122 154.076 160.014
67.7809 155.65 161.76
66.1115 154.446 165.671
64.4312 154.376 163.054
64.1391 151.13 169.179
69.4587 154.906 157.462
63.3548 152.695 160.615
62.276 151.043 163.856
59.2971 119.914 155.778
58.6346 117.84 160.029
60.8269 120.764 159.644
58.8237 119.529 164.153
57.3109 120.839 160.406
57.131 121.609 152.545
59.4505 124.296 153.813
61.3156 125.337 159.382
61.961 123.359 162.177
55.7707 127.017 156.865
56.2421 123.511 158.186
55.9738 124.079 153.871
56.3644 124.313 162.088
56.0876 130.27 159.222
56.3402 130.844 156.068
55.7673 127.073 150.339
66.5929 137.981 170.514
66.9293 142.619 169.91
67.9606 140.982 167.86
70.6356 145.102 159.251
74.1624 146.441 156.731
70.6932 144.927 156.938
61.1962 121.199 167.312
63.4785 124.639 168.925
62.7717 123.373 165.143
60.9081 127.689 157.84
61.0736 132.186 156.552
60.2856 127.277 155.122
61.9343 147.91 169.019
60.6468 144.34 168.256
61.0129 148.407 166.263
64.3245 152.107 157.755
64.7252 149.858 155.109
67.3917 152.891 156.049
56.1782 131.113 162.057
56.8833 131.861 165.222
56.531 127.988 163.822
56.597 130.504 151.146
58.5825 134.768 153.192
57.0353 132.261 154.021
62.8874 138.609 173.271
61.8205 136.962 172.85
62.0016 139.789 172.649
60.8909 135.125 171.942
61.5218 134.322 172.991
64.017 137.584 173.231
64.1044 140.165 172.941
62.2863 142.48 171.977
61.2083 140.52 171.632
62.7131 133.585 173.485
64.1073 135.366 173.098
63.8109 132.945 172.656
65.0853 137.17 172.455
61.5415 131.878 172.906
63.6975 130.612 172.232
64.6555 132.786 171.803
64.4288 142.819 172.313
63.2173 144.2 172.246
64.5024 145.324 172.046
62.4174 145.335 171.295
65.3973 141.746 171.975
65.561 146.424 170.937
64.6019 147.566 171.277
60.5697 139.348 170.791
60.3937 136.573 171.205
59.6701 137.84 170.115
60.0149 133.607 171.137
60.8658 141.641 170.48
59.4452 138.575 168.886
59.1725 136.132 169.231
59.5011 128.686 171.038
59.8444 126.498 170.733
58.7815 128.057 169.936
60.0644 124.399 170.02
60.8862 125.216 171.564
60.605 129.778 171.886
59.6691 131.107 171.114
58.1538 129.559 168.89
58.0876 127.612 168.452
61.7274 126.952 172.137
61.4944 129.581 172.613
62.8747 128.74 172.351
62.3468 124.998 171.568
63.9673 128.532 171.658
59.1567 132.92 170.218
58.2883 131.836 168.953
58.6363 134.083 169.079
57.5886 130.932 167.701
58.2914 135.13 167.933
58.2228 126.018 167.548
59.1949 124.335 168.448
58.1401 124.042 166.714
60.1127 122.532 169.149
57.4981 127.373 166.643
57.5324 123.743 165.036
58.2015 122.59 165.947
67.8531 145.893 154.693
70.2327 146.852 153.748
69.0127 147.513 152.909
72.5008 147.738 153.068
71.4477 146.479 154.123
66.3164 144.085 155.206
66.3348 144.93 154.545
67.8143 148.601 153.393
69.7807 149.481 153.102
69.2281 145.279 155.324
66.4823 143.366 155.506
67.0409 143.063 155.946
64.3251 140.92 155.295
71.1241 145.806 155.357
66.8 141.821 156.599
64.9308 140.35 156.351
65.5044 145.103 154.308
66.2185 147.324 153.784
64.6523 145.225 154.192
66.3231 149.034 153.915
64.2097 142.281 154.048
62.9172 142.794 153.809
63.5511 144.889 154.447
71.3515 150.374 153.359
72.9755 149.447 153.217
72.5758 150.856 154.185
74.5933 148.055 153.822
69.5291 151.046 154.138
71.7496 152.144 155.65
73.3327 151.087 155.53
60.304 133.353 152.998
61.2084 136.332 154.201
59.8752 133.554 152.246
62.7102 139.158 154.09
62.8864 138.734 154.631
60.2956 132.688 153.764
60.1642 131.433 152.214
59.077 131.75 149.812
59.489 133.636 152.31
62.8852 138.148 155.208
61.1232 134.766 154.904
63.0732 137.857 155.897
60.4369 132.712 155.073
63.5983 137.92 156.494
59.8211 129.828 150.888
59.2077 130.449 149.018
58.5692 128.558 149.911
57.5333 131.137 148.184
59.9653 129.465 152.523
58.466 126.651 151.203
57.3685 127.336 149.525
60.7781 137.129 153.727
62.5713 139.914 153.806
62.0037 140.396 153.328
59.6686 134.605 153.005
61.2943 140.763 153.492
66.4243 132.942 166.608
65.7645 132.625 165.374
65.4681 130.868 166.259
65.1193 132.533 164.191
65.9263 134.254 164.377
66.8964 135.049 166.96
66.7085 133.709 167.893
65.2426 129.172 167.143
64.891 128.818 165.93
66.6745 136.104 164.59
67.2739 136.512 165.979
67.2184 137.896 164.894
67.4615 137.372 167.201
65.8074 136.112 163.409
67.2442 139.465 163.749
67.7608 139.819 164.88
66.2864 132.393 168.857
65.5082 129.945 168.435
65.4313 131.007 169.716
64.8028 127.736 168.055
66.8373 134.687 169.144
65.3825 132.137 170.844
64.8045 129.572 170.621
64.388 128.592 164.584
64.4631 130.711 163.715
63.8809 128.874 163.222
64.3466 132.6 162.973
64.1186 126.892 165.359
63.3957 127.04 162.598
63.2225 128.824 162.006
64.4983 136.03 161.385
64.9126 137.855 160.51
63.6262 135.829 160.259
65.6802 139.38 159.637
66.2517 139.913 160.395
65.1482 136.355 162.307
64.303 134.392 162.054
62.7762 133.546 159.794
63.0564 134.96 159.191
66.598 140.288 161.381
65.9123 138.164 162.5
66.9134 139.955 162.529
67.3317 142.296 160.312
67.4687 141.747 162.682
63.5442 132.57 161.776
62.7207 132.089 160.548
62.9813 130.469 161.308
62.0415 131.168 159.404
62.5268 128.213 160.763
63.5375 136.659 158.61
65.276 139.069 158.823
64.5606 138.442 158.07
66.9116 141.433 158.643
62.3805 134.053 158.088
63.8729 137.751 157.258
65.9676 139.893 157.27
57.9341 139.533 163.112
58.1315 141.3 162.235
58.4351 141.762 163.66
58.4702 142.831 161.372
58.1591 140.78 160.877
57.3148 137.385 162.727
57.5175 137.722 163.901
58.857 142.223 164.925
58.9724 143.825 164.168
57.5896 138.696 160.377
57.1206 136.843 161.361
57.1241 136.55 159.948
57.0009 135.179 162.15
58.0853 140.257 159.512
57.2467 136.071 158.561
56.9595 134.53 159.44
57.9351 138.2 165.142
58.8512 140.534 165.675
58.3892 138.825 166.418
59.3465 142.766 166.222
57.1626 135.969 164.697
58.1388 136.863 167.079
59.0824 139.013 167.656
59.3394 145.366 163.308
59.1131 144.734 161.778
59.6644 146.878 162.224
59.0995 144.353 160.384
59.6677 146.086 164.653
60.3843 148.655 162.511
60.4062 148.146 161.081
59.0052 143.248 157.804
59.0552 142.065 156.698
60.2557 144.4 157.297
59.141 140.908 155.709
58.5977 139.539 156.235
58.4514 141.781 158.563
59.2746 144.037 159.036
61.3467 146.74 157.577
61.2793 145.739 156.689
57.7684 138.214 156.757
58.0087 139.443 158.187
57.3676 137.208 157.608
57.9501 136.629 155.622
57.1462 134.596 157.345
59.9797 145.834 159.525
61.2586 147.429 158.716
60.6808 147.876 159.779
62.2115 148.952 157.968
61.5029 149.625 160.331
61.2249 144.711 155.83
59.9092 142.191 155.145
61.0913 143.32 154.905
59.0773 139.363 154.807
62.4563 147.311 156.066
62.3299 144.24 154.722
61.0451 141.897 154.137
69.4179 148.373 164.132
69.5872 150.266 162.961
70.4292 148.936 162.251
69.9009 152.072 162.366
68.777 151.366 164.192
68.4422 147.585 165.814
68.891 146.576 165
70.993 147.802 161.486
71.6177 149.253 160.575
67.6858 150.443 165.934
67.6297 148.41 166.678
66.7143 149.13 167.636
67.7141 146.347 167.473
67.9543 152.314 165.289
66.031 150.019 168.697
66.309 147.644 169.392
69.3426 145.336 164.301
70.0769 145.943 162.599
69.2739 143.833 163.558
70.8435 146.487 160.914
68.6982 144.515 165.902
68.3647 142.051 164.506
68.6572 143.044 162.787
72.3407 150.688 159.781
70.9668 152.369 160.582
72.308 152.117 158.923
70.1101 153.774 161.757
72.9361 148.814 158.896
73.2806 151.471 157.194
71.6792 153.715 158.315
67.1196 155.358 163.804
65.1044 154.822 164.482
65.9606 155.457 162.52
63.8494 153.399 164.829
64.396 153.469 166.186
67.7408 154.038 164.717
68.7352 154.624 162.999
66.661 155.447 160.628
65.2333 154.74 161.273
65.0845 152.909 167.257
66.6485 153.049 166.31
65.5264 151.555 168.131
63.6681 151.724 167.813
64.8663 149.811 169.986
69.3222 155.051 160.912
68.4273 155.398 159.552
70.253 155.084 158.729
67.6659 155.097 158.472
70.882 153.795 156.96
64.0714 153.52 161.793
63.1354 153.032 163.529
62.4872 152.167 162.297
62.6378 151.881 165.049
64.7421 153.89 159.994
62.2368 151.248 161.087
61.4787 150.405 162.672
59.3506 118.296 157.724
60.2444 118.868 159.688
60.1699 119.775 157.886
60.6365 119.992 161.462
60.053 118.134 161.694
57.4813 118.831 157.944
57.9518 118.953 155.844
60.0383 121.287 156.326
60.7083 121.645 157.956
58.6641 118.331 162.174
57.6128 119.147 160.103
57.9865 120.087 162.286
56.8685 120.483 158.276
59.951 119.105 163.966
58.1702 121.08 164.104
57.3613 121.597 162.25
58.3606 120.516 154.296
59.3639 122.11 154.827
58.6046 122.725 153.027
59.8437 123.641 155.392
56.6759 120.315 154.289
57.5503 123.483 151.368
58.891 124.843 152.333
61.0277 122.805 159.294
61.3175 121.978 160.932
61.7873 124.078 160.501
61.3973 121.609 162.674
61.0146 123.738 158.114
62.074 126.314 160.354
62.6603 125.157 161.741
55.8472 125.253 157.217
56.2828 123.95 156.043
55.8402 125.458 155.331
56.1947 122.157 155.143
56.5234 122.143 157.227
55.9928 125.066 159.075
55.9225 126.715 158.549
55.8652 127.275 155.183
55.7222 125.983 153.539
56.8059 121.966 159.188
56.2777 123.71 160.068
56.7267 122.584 161.209
56.1873 125.464 161.025
57.1273 123.309 163.086
56.1394 128.532 158.1
55.9468 128.862 156.426
56.3082 130.624 157.671
56.1303 129.075 154.887
56.2996 128.445 159.655
56.2037 132.238 158.848
56.3108 132.378 157.247
55.7054 125.139 152.013
56.0893 122.448 152.998
56.0297 123.961 151.023
55.8173 127.277 151.753
56.3473 125.753 149.775
66.6692 140.241 170.193
67.4655 141.789 168.875
67.0551 139.464 169.122
68.2667 143.218 167.538
67.5167 144.017 168.383
66.0279 140.867 171.106
65.9582 138.717 171.488
66.9917 137.266 169.353
67.3829 138.633 168.113
66.9933 144.885 169.032
66.2399 143.352 170.742
66.3895 145.733 170.027
66.0131 136.678 171.488
66.5571 135.852 170.23
65.6992 134.421 171.103
68.1047 139.751 167.046
68.4695 142.282 166.61
68.0969 141.003 165.746
72.1288 145.655 158.127
72.7848 145.436 156.642
70.4677 144.73 158.225
72.4708 145.424 155.558
74.6751 146.408 155.156
73.1345 146.878 158.257
71.7094 146.289 159.507
68.9313 143.747 159.202
68.8219 143.635 158.273
74.7843 147.787 155.55
73.8702 148.068 157.457
74.2527 149.728 156.452
70.2925 145.079 160.507
68.9555 143.693 160.243
68.7434 143.491 161.441
68.1126 143.306 157.764
69.5111 144.818 156.662
67.1723 142.567 157.237
62.7297 122.628 168.202
63.2561 123.912 167.006
61.965 122.253 166.152
63.5674 125.082 166.015
63.9534 125.64 167.782
62.5015 123.87 169.893
61.4604 121.686 169.242
61.0537 120.592 165.433
61.6151 121.662 164.353
64.181 126.62 169.083
63.4908 125.322 170.464
64.1833 127.632 170.496
59.8244 121.117 167.837
59.8104 120.011 165.685
58.6417 120.928 165.994
62.3958 123.182 163.62
63.4666 125.001 164.5
63.1876 125.101 163.02
60.7008 129.731 157.047
60.3666 129.306 155.988
60.6357 127.151 156.596
60.012 129.344 154.522
60.2522 131.11 155.439
61.4322 132.158 157.564
61.2396 130.037 158.157
60.8696 125.31 157.356
60.3438 125.185 155.827
61.4086 134.051 156.073
61.992 134.38 157.08
62.7972 136.264 156.645
61.7829 129.291 158.897
61.2948 126.605 158.508
61.6986 127.789 159.735
60.0774 125.936 154.303
59.8182 128.193 153.574
59.4593 126.49 152.726
61.0538 146.199 168.832
60.6102 146.461 167.371
61.5413 148.305 167.597
60.1352 146.574 165.971
60.0813 144.725 166.883
61.0696 143.879 169.723
61.6737 145.645 170.184
62.4776 150.071 167.826
62.0791 150.203 166.375
59.8495 142.913 167.532
60.2014 142.522 169.107
59.9448 140.74 168.096
62.3775 147.634 170.365
62.9971 149.828 169.058
63.5827 148.983 170.557
61.7406 149.894 165.091
60.3301 148.112 164.992
60.7007 149.448 163.821
64.6605 151.071 156.261
66.2175 151.621 155.633
65.6873 152.618 156.888
67.8168 151.53 154.813
66.2626 150.318 154.632
63.5235 149.178 155.945
63.4061 150.401 157.168
65.1878 153.622 158.254
66.6956 153.921 157.406
64.7697 148.419 154.529
63.3225 147.834 155.195
63.4964 146.123 154.878
63.0729 150.925 158.372
63.9627 152.668 159.121
62.6567 151.292 159.739
68.1855 154.277 156.843
68.7637 152.409 155.53
69.9086 153.416 156.118
56.5243 131.636 163.555
56.5382 130.048 164.566
56.2794 129.487 162.867
56.9488 128.564 165.497
57.0845 130.421 166.213
56.836 133.434 164.215
56.6037 133.209 162.849
56.1589 129.045 161.296
56.1749 127.44 162.091
57.2192 132.45 166.495
57.2188 134.248 165.365
57.6512 134.808 166.677
56.3843 132.867 161.447
56.0406 130.596 160.592
56.2989 132.567 160.074
56.581 126.111 162.813
57.0118 126.756 164.728
56.9639 124.897 163.974
57.6087 132.479 152.075
57.447 133.665 153.4
56.6748 131.14 152.743
57.6953 134.832 154.537
58.4797 136.146 154.1
58.7536 133.258 152.241
57.5669 131.477 150.461
56.31 128.902 152.201
56.2948 129.826 153.713
59.0941 138.188 153.832
59.5247 136.295 153.593
60.017 139.51 153.539
56.6683 130.511 149.133
56.1865 128.958 150.624
55.8716 128.28 148.826
56.7621 131.447 154.959
57.201 134.2 155.203
56.5576 133.207 156.207
POLYGONS 1280  5120
3 164 162 163
3 163 44 164
3 162 43 163
3 164 42 162
3 166 165 163
3 163 43 166
3 165 44 163
3 166 14 165
3 168 167 162
3 162 42 168
3 167 43 162
3 168 13 167
3 170 169 164
3 164 44 170
3 169 42 164
3 170 12 169
3 173 171 172
3 172 46 173
3 171 43 172
3 173 45 171
3 167 174 172
3 172 43 167
3 174 46 172
3 167 13 174
3 175 166 171
3 171 45 175
3 166 43 171
3 175 14 166
3 177 176 173
3 173 46 177
3 176 45 173
3 177 4 176
3 180 178 179
3 179 48 180
3 178 42 179
3 180 47 178
3 169 181 179
3 179 42 169
3 181 48 179
3 169 12 181
3 182 168 178
3 178 47 182
3 168 42 178
3 182 13 168
3 184 183 180
3 180 48 184
3 183 47 180
3 184 8 183
3 187 185 186
3 186 50 187
3 185 44 186
3 187 49 185
3 165 188 186
3 186 44 165
3 188 50 186
3 165 14 188
3 189 170 185
3 185 49 189
3 170 44 185
3 189 12 170
3 191 190 187
3 187 50 191
3 190 49 187
3 191 7 190
3 194 192 193
3 193 53 194
3 192 52 193
3 194 51 192
3 196 195 193
3 193 52 196
3 195 53 193
3 196 16 195
3 198 197 192
3 192 51 198
3 197 52 192
3 198 14 197
3 200 199 194
3 194 53 200
3 199 51 194
3 200 15 199
3 203 201 202
3 202 45 203
3 201 52 202
3 203 54 201
3 197 175 202
3 202 52 197
3 175 45 202
3 197 14 175
3 204 196 201
3 201 54 204
3 196 52 201
3 204 16 196
3 176 205 203
3 203 45 176
3 205 54 203
3 176 4 205
3 208 206 207
3 207 55 208
3 206 51 207
3 208 50 206
3 199 209 207
3 207 51 199
3 209 55 207
3 199 15 209
3 188 198 206
3 206 50 188
3 198 51 206
3 188 14 198
3 210 191 208
3 208 55 210
3 191 50 208
3 210 7 191
3 213 211 212
3 212 57 213
3 211 53 212
3 213 56 211
3 195 214 212
3 212 53 195
3 214 57 212
3 195 16 214
3 215 200 211
3 211 56 215
3 200 53 211
3 215 15 200
3 217 216 213
3 213 57 217
3 216 56 213
3 217 9 216
3 220 218 219
3 219 60 220
3 218 59 219
3 220 58 218
3 222 221 219
3 219 59 222
3 221 60 219
3 222 19 221
3 224 223 218
3 218 58 224
3 223 59 218
3 224 18 223
3 226 225 220
3 220 60 226
3 225 58 220
3 226 17 225
3 229 227 228
3 228 62 229
3 227 59 228
3 229 61 227
3 223 230 228
3 228 59 223
3 230 62 228
3 223 18 230
3 231 222 227
3 227 61 231
3 222 59 227
3 231 19 222
3 233 232 229
3 229 62 233
3 232 61 229
3 233 5 232
3 236 234 235
3 235 64 236
3 234 58 235
3 236 63 234
3 225 237 235
3 235 58 225
3 237 64 235
3 225 17 237
3 238 224 234
3 234 63 238
3 224 58 234
3 238 18 224
3 240 239 236
3 236 64 240
3 239 63 236
3 240 6 239
3 243 241 242
3 242 66 243
3 241 60 242
3 243 65 241
3 221 244 242
3 242 60 221
3 244 66 242
3 221 19 244
3 245 226 241
3 241 65 245
3 226 60 241
3 245 17 226
3 247 246 243
3 243 66 247
3 246 65 243
3 247 11 246
3 250 248 249
3 249 69 250
3 248 68 249
3 250 67 248
3 252 251 249
3 249 68 252
3 251 69 249
3 252 18 251
3 254 253 248
3 248 67 254
3 253 68 248
3 254 21 253
3 256 255 250
3 250 69 256
3 255 67 250
3 256 20 255
3 259 257 258
3 258 70 259
3 257 68 258
3 259 62 257
3 253 260 258
3 258 68 253
3 260 70 258
3 253 21 260
3 230 252 257
3 257 62 230
3 252 68 257
3 230 18 252
3 261 233 259
3 259 70 261
3 233 62 259
3 261 5 233
3 264 262 263
3 263 72 264
3 262 67 263
3 264 71 262
3 255 265 263
3 263 67 255
3 265 72 263
3 255 20 265
3 266 254 262
3 262 71 266
3 254 67 262
3 266 21 254
3 268 267 264
3 264 72 268
3 267 71 264
3 268 10 267
3 271 269 270
3 270 63 271
3 269 69 270
3 271 73 269
3 251 238 270
3 270 69 251
3 238 63 270
3 251 18 238
3 272 256 269
3 269 73 272
3 256 69 269
3 272 20 256
3 239 273 271
3 271 63 239
3 273 73 271
3 239 6 273
3 276 274 275
3 275 76 276
3 274 75 275
3 276 74 274
3 278 277 275
3 275 75 278
3 277 76 275
3 278 24 277
3 280 279 274
3 274 74 280
3 279 75 274
3 280 23 279
3 282 281 276
3 276 76 282
3 281 74 276
3 282 22 281
3 285 283 284
3 284 78 285
3 283 75 284
3 285 77 283
3 279 286 284
3 284 75 279
3 286 78 284
3 279 23 286
3 287 278 283
3 283 77 287
3 278 75 283
3 287 24 278
3 289 288 285
3 285 78 289
3 288 77 285
3 289 0 288
3 292 290 291
3 291 80 292
3 290 74 291
3 292 79 290
3 281 293 291
3 291 74 281
3 293 80 291
3 281 22 293
3 294 280 290
3 290 79 294
3 280 74 290
3 294 23 280
3 296 295 292
3 292 80 296
3 295 79 292
3 296 4 295
3 299 297 298
3 298 82 299
3 297 76 298
3 299 81 297
3 277 300 298
3 298 76 277
3 300 82 298
3 277 24 300
3 301 282 297
3 297 81 301
3 282 76 297
3 301 22 282
3 303 302 299
3 299 82 303
3 302 81 299
3 303 3 302
3 306 304 305
3 305 85 306
3 304 84 305
3 306 83 304
3 308 307 305
3 305 84 308
3 307 85 305
3 308 26 307
3 310 309 304
3 304 83 310
3 309 84 304
3 310 24 309
3 312 311 306
3 306 85 312
3 311 83 306
3 312 25 311
3 315 313 314
3 314 77 315
3 313 84 314
3 315 86 313
3 309 287 314
3 314 84 309
3 287 77 314
3 309 24 287
3 316 308 313
3 313 86 316
3 308 84 313
3 316 26 308
3 288 317 315
3 315 77 288
3 317 86 315
3 288 0 317
3 320 318 319
3 319 87 320
3 318 83 319
3 320 82 318
3 311 321 319
3 319 83 311
3 321 87 319
3 311 25 321
3 300 310 318
3 318 82 300
3 310 83 318
3 300 24 310
3 322 303 320
3 320 87 322
3 303 82 320
3 322 3 303
3 325 323 324
3 324 89 325
3 323 85 324
3 325 88 323
3 307 326 324
3 324 85 307
3 326 89 324
3 307 26 326
3 327 312 323
3 323 88 327
3 312 85 323
3 327 25 312
3 329 328 325
3 325 89 329
3 328 88 325
3 329 5 328
3 332 330 331
3 331 92 332
3 330 91 331
3 332 90 330
3 334 333 331
3 331 91 334
3 333 92 331
3 334 29 333
3 336 335 330
3 330 90 336
3 335 91 330
3 336 28 335
3 338 337 332
3 332 92 338
3 337 90 332
3 338 27 337
3 341 339 340
3 340 94 341
3 339 91 340
3 341 93 339
3 335 342 340
3 340 91 335
3 342 94 340
3 335 28 342
3 343 334 339
3 339 93 343
3 334 91 339
3 343 29 334
3 345 344 341
3 341 94 345
3 344 93 341
3 345 2 344
3 348 346 347
3 347 96 348
3 346 90 347
3 348 95 346
3 337 349 347
3 347 90 337
3 349 96 347
3 337 27 349
3 350 336 346
3 346 95 350
3 336 90 346
3 350 28 336
3 352 351 348
3 348 96 352
3 351 95 348
3 352 7 351
3 355 353 354
3 354 98 355
3 353 92 354
3 355 97 353
3 333 356 354
3 354 92 333
3 356 98 354
3 333 29 356
3 357 338 353
3 353 97 357
3 338 92 353
3 357 27 338
3 359 358 355
3 355 98 359
3 358 97 355
3 359 1 358
3 362 360 361
3 361 101 362
3 360 100 361
3 362 99 360
3 364 363 361
3 361 100 364
3 363 101 361
3 364 31 363
3 366 365 360
3 360 99 366
3 365 100 360
3 366 29 365
3 368 367 362
3 362 101 368
3 367 99 362
3 368 30 367
3 371 369 370
3 370 93 371
3 369 100 370
3 371 102 369
3 365 343 370
3 370 100 365
3 343 93 370
3 365 29 343
3 372 364 369
3 369 102 372
3 364 100 369
3 372 31 364
3 344 373 371
3 371 93 344
3 373 102 371
3 344 2 373
3 376 374 375
3 375 103 376
3 374 99 375
3 376 98 374
3 367 377 375
3 375 99 367
3 377 103 375
3 367 30 377
3 356 366 374
3 374 98 356
3 366 99 374
3 356 29 366
3 378 359 376
3 376 103 378
3 359 98 376
3 378 1 359
3 381 379 380
3 380 105 381
3 379 101 380
3 381 104 379
3 363 382 380
3 380 101 363
3 382 105 380
3 363 31 382
3 383 368 379
3 379 104 383
3 368 101 379
3 383 30 368
3 385 384 381
3 381 105 385
3 384 104 381
3 385 6 384
3 388 386 387
3 387 108 388
3 386 107 387
3 388 106 386
3 390 389 387
3 387 107 390
3 389 108 387
3 390 34 389
3 392 391 386
3 386 106 392
3 391 107 386
3 392 33 391
3 394 393 388
3 388 108 394
3 393 106 388
3 394 32 393
3 397 395 396
3 396 110 397
3 395 107 396
3 397 109 395
3 391 398 396
3 396 107 391
3 398 110 396
3 391 33 398
3 399 390 395
3 395 109 399
3 390 107 395
3 399 34 390
3 401 400 397
3 397 110 401
3 400 109 397
3 401 8 400
3 404 402 403
3 403 112 404
3 402 106 403
3 404 111 402
3 393 405 403
3 403 106 393
3 405 112 403
3 393 32 405
3 406 392 402
3 402 111 406
3 392 106 402
3 406 33 392
3 408 407 404
3 404 112 408
3 407 111 404
3 408 0 407
3 411 409 410
3 410 114 411
3 409 108 410
3 411 113 409
3 389 412 410
3 410 108 389
3 412 114 410
3 389 34 412
3 413 394 409
3 409 113 413
3 394 108 409
3 413 32 394
3 415 414 411
3 411 114 415
3 414 113 411
3 415 11 414
3 418 416 417
3 417 117 418
3 416 116 417
3 418 115 416
3 420 419 417
3 417 116 420
3 419 117 417
3 420 36 419
3 422 421 416
3 416 115 422
3 421 116 416
3 422 34 421
3 424 423 418
3 418 117 424
3 423 115 418
3 424 35 423
3 427 425 426
3 426 109 427
3 425 116 426
3 427 118 425
3 421 399 426
3 426 116 421
3 399 109 426
3 421 34 399
3 428 420 425
3 425 118 428
3 420 116 425
3 428 36 420
3 400 429 427
3 427 109 400
3 429 118 427
3 400 8 429
3 432 430 431
3 431 119 432
3 430 115 431
3 432 114 430
3 423 433 431
3 431 115 423
3 433 119 431
3 423 35 433
3 412 422 430
3 430 114 412
3 422 115 430
3 412 34 422
3 434 415 432
3 432 119 434
3 415 114 432
3 434 11 415
3 437 435 436
3 436 121 437
3 435 117 436
3 437 120 435
3 419 438 436
3 436 117 419
3 438 121 436
3 419 36 438
3 439 424 435
3 435 120 439
3 424 117 435
3 439 35 424
3 441 440 437
3 437 121 441
3 440 120 437
3 441 1 440
3 444 442 443
3 443 124 444
3 442 123 443
3 444 122 442
3 446 445 443
3 443 123 446
3 445 124 443
3 446 39 445
3 448 447 442
3 442 122 448
3 447 123 442
3 448 38 447
3 450 449 444
3 444 124 450
3 449 122 444
3 450 37 449
3 453 451 452
3 452 126 453
3 451 123 452
3 453 125 451
3 447 454 452
3 452 123 447
3 454 126 452
3 447 38 454
3 455 446 451
3 451 125 455
3 446 123 451
3 455 39 446
3 457 456 453
3 453 126 457
3 456 125 453
3 457 9 456
3 460 458 459
3 459 128 460
3 458 122 459
3 460 127 458
3 449 461 459
3 459 122 449
3 461 128 459
3 449 37 461
3 462 448 458
3 458 127 462
3 448 122 458
3 462 38 448
3 464 463 460
3 460 128 464
3 463 127 460
3 464 10 463
3 467 465 466
3 466 130 467
3 465 124 466
3 467 129 465
3 445 468 466
3 466 124 445
3 468 130 466
3 445 39 468
3 469 450 465
3 465 129 469
3 450 124 465
3 469 37 450
3 471 470 467
3 467 130 471
3 470 129 467
3 471 3 470
3 474 472 473
3 473 133 474
3 472 132 473
3 474 131 472
3 476 475 473
3 473 132 476
3 475 133 473
3 476 38 475
3 478 477 472
3 472 131 478
3 477 132 472
3 478 41 477
3 480 479 474
3 474 133 480
3 479 131 474
3 480 40 479
3 483 481 482
3 482 134 483
3 481 132 482
3 483 126 481
3 477 484 482
3 482 132 477
3 484 134 482
3 477 41 484
3 454 476 481
3 481 126 454
3 476 132 481
3 454 38 476
3 485 457 483
3 483 134 485
3 457 126 483
3 485 9 457
3 488 486 487
3 487 136 488
3 486 131 487
3 488 135 486
3 479 489 487
3 487 131 479
3 489 136 487
3 479 40 489
3 490 478 486
3 486 135 490
3 478 131 486
3 490 41 478
3 492 491 488
3 488 136 492
3 491 135 488
3 492 2 491
3 495 493 494
3 494 127 495
3 493 133 494
3 495 137 493
3 475 462 494
3 494 133 475
3 462 127 494
3 475 38 462
3 496 480 493
3 493 137 496
3 480 133 493
3 496 40 480
3 463 497 495
3 495 127 463
3 497 137 495
3 463 10 497
3 500 498 499
3 499 140 500
3 498 139 499
3 500 138 498
3 502 501 499
3 499 139 502
3 501 140 499
3 502 33 501
3 504 503 498
3 498 138 504
3 503 139 498
3 504 13 503
3 506 505 500
3 500 140 506
3 505 138 500
3 506 23 505
3 509 507 508
3 508 47 509
3 507 139 508
3 509 110 507
3 503 182 508
3 508 139 503
3 182 47 508
3 503 13 182
3 398 502 507
3 507 110 398
3 502 139 507
3 398 33 502
3 183 401 509
3 509 47 183
3 401 110 509
3 183 8 401
3 512 510 511
3 511 79 512
3 510 138 511
3 512 46 510
3 505 294 511
3 511 138 505
3 294 79 511
3 505 23 294
3 174 504 510
3 510 46 174
3 504 138 510
3 174 13 504
3 295 177 512
3 512 79 295
3 177 46 512
3 295 4 177
3 515 513 514
3 514 111 515
3 513 140 514
3 515 78 513
3 501 406 514
3 514 140 501
3 406 111 514
3 501 33 406
3 286 506 513
3 513 78 286
3 506 140 513
3 286 23 506
3 407 289 515
3 515 111 407
3 289 78 515
3 407 0 289
3 518 516 517
3 517 143 518
3 516 142 517
3 518 141 516
3 520 519 517
3 517 142 520
3 519 143 517
3 520 19 519
3 522 521 516
3 516 141 522
3 521 142 516
3 522 32 521
3 524 523 518
3 518 143 524
3 523 141 518
3 524 26 523
3 527 525 526
3 526 113 527
3 525 142 526
3 527 66 525
3 521 413 526
3 526 142 521
3 413 113 526
3 521 32 413
3 244 520 525
3 525 66 244
3 520 142 525
3 244 19 520
3 414 247 527
3 527 113 414
3 247 66 527
3 414 11 247
3 530 528 529
3 529 86 530
3 528 141 529
3 530 112 528
3 523 316 529
3 529 141 523
3 316 86 529
3 523 26 316
3 405 522 528
3 528 112 405
3 522 141 528
3 405 32 522
3 317 408 530
3 530 86 317
3 408 112 530
3 317 0 408
3 533 531 532
3 532 61 533
3 531 143 532
3 533 89 531
3 519 231 532
3 532 143 519
3 231 61 532
3 519 19 231
3 326 524 531
3 531 89 326
3 524 143 531
3 326 26 524
3 232 329 533
3 533 61 232
3 329 89 533
3 232 5 329
3 536 534 535
3 535 146 536
3 534 145 535
3 536 144 534
3 538 537 535
3 535 145 538
3 537 146 535
3 538 22 537
3 540 539 534
3 534 144 540
3 539 145 534
3 540 16 539
3 542 541 536
3 536 146 542
3 541 144 536
3 542 39 541
3 545 543 544
3 544 54 545
3 543 145 544
3 545 80 543
3 539 204 544
3 544 145 539
3 204 54 544
3 539 16 204
3 293 538 543
3 543 80 293
3 538 145 543
3 293 22 538
3 205 296 545
3 545 54 205
3 296 80 545
3 205 4 296
3 548 546 547
3 547 125 548
3 546 144 547
3 548 57 546
3 541 455 547
3 547 144 541
3 455 125 547
3 541 39 455
3 214 540 546
3 546 57 214
3 540 144 546
3 214 16 540
3 456 217 548
3 548 125 456
3 217 57 548
3 456 9 217
3 551 549 550
3 550 81 551
3 549 146 550
3 551 130 549
3 537 301 550
3 550 146 537
3 301 81 550
3 537 22 301
3 468 542 549
3 549 130 468
3 542 146 549
3 468 39 542
3 302 471 551
3 551 81 302
3 471 130 551
3 302 3 471
3 554 552 553
3 553 149 554
3 552 148 553
3 554 147 552
3 556 555 553
3 553 148 556
3 555 149 553
3 556 21 555
3 558 557 552
3 552 147 558
3 557 148 552
3 558 25 557
3 560 559 554
3 554 149 560
3 559 147 554
3 560 37 559
3 563 561 562
3 562 88 563
3 561 148 562
3 563 70 561
3 557 327 562
3 562 148 557
3 327 88 562
3 557 25 327
3 260 556 561
3 561 70 260
3 556 148 561
3 260 21 556
3 328 261 563
3 563 88 328
3 261 70 563
3 328 5 261
3 566 564 565
3 565 129 566
3 564 147 565
3 566 87 564
3 559 469 565
3 565 147 559
3 469 129 565
3 559 37 469
3 321 558 564
3 564 87 321
3 558 147 564
3 321 25 558
3 470 322 566
3 566 129 470
3 322 87 566
3 470 3 322
3 569 567 568
3 568 71 569
3 567 149 568
3 569 128 567
3 555 266 568
3 568 149 555
3 266 71 568
3 555 21 266
3 461 560 567
3 567 128 461
3 560 149 567
3 461 37 560
3 267 464 569
3 569 71 267
3 464 128 569
3 267 10 464
3 572 570 571
3 571 152 572
3 570 151 571
3 572 150 570
3 574 573 571
3 571 151 574
3 573 152 571
3 574 27 573
3 576 575 570
3 570 150 576
3 575 151 570
3 576 12 575
3 578 577 572
3 572 152 578
3 577 150 572
3 578 36 577
3 581 579 580
3 580 49 581
3 579 151 580
3 581 96 579
3 575 189 580
3 580 151 575
3 189 49 580
3 575 12 189
3 349 574 579
3 579 96 349
3 574 151 579
3 349 27 574
3 190 352 581
3 581 49 190
3 352 96 581
3 190 7 352
3 584 582 583
3 583 118 584
3 582 150 583
3 584 48 582
3 577 428 583
3 583 150 577
3 428 118 583
3 577 36 428
3 181 576 582
3 582 48 181
3 576 150 582
3 181 12 576
3 429 184 584
3 584 118 429
3 184 48 584
3 429 8 184
3 587 585 586
3 586 97 587
3 585 152 586
3 587 121 585
3 573 357 586
3 586 152 573
3 357 97 586
3 573 27 357
3 438 578 585
3 585 121 438
3 578 152 585
3 438 36 578
3 358 441 587
3 587 97 358
3 441 121 587
3 358 1 441
3 590 588 589
3 589 155 590
3 588 154 589
3 590 153 588
3 592 591 589
3 589 154 592
3 591 155 589
3 592 17 591
3 594 593 588
3 588 153 594
3 593 154 588
3 594 30 593
3 596 595 590
3 590 155 596
3 595 153 590
3 596 35 595
3 599 597 598
3 598 104 599
3 597 154 598
3 599 64 597
3 593 383 598
3 598 154 593
3 383 104 598
3 593 30 383
3 237 592 597
3 597 64 237
3 592 154 597
3 237 17 592
3 384 240 599
3 599 104 384
3 240 64 599
3 384 6 240
3 602 600 601
3 601 120 602
3 600 153 601
3 602 103 600
3 595 439 601
3 601 153 595
3 439 120 601
3 595 35 439
3 377 594 600
3 600 103 377
3 594 153 600
3 377 30 594
3 440 378 602
3 602 120 440
3 378 103 602
3 440 1 378
3 605 603 604
3 604 65 605
3 603 155 604
3 605 119 603
3 591 245 604
3 604 155 591
3 245 65 604
3 591 17 245
3 433 596 603
3 603 119 433
3 596 155 603
3 433 35 596
3 246 434 605
3 605 65 246
3 434 119 605
3 246 11 434
3 608 606 607
3 607 158 608
3 606 157 607
3 608 156 606
3 610 609 607
3 607 157 610
3 609 158 607
3 610 15 609
3 612 611 606
3 606 156 612
3 611 157 606
3 612 28 611
3 614 613 608
3 608 158 614
3 613 156 608
3 614 41 613
3 617 615 616
3 616 95 617
3 615 157 616
3 617 55 615
3 611 350 616
3 616 157 611
3 350 95 616
3 611 28 350
3 209 610 615
3 615 55 209
3 610 157 615
3 209 15 610
3 351 210 617
3 617 95 351
3 210 55 617
3 351 7 210
3 620 618 619
3 619 135 620
3 618 156 619
3 620 94 618
3 613 490 619
3 619 156 613
3 490 135 619
3 613 41 490
3 342 612 618
3 618 94 342
3 612 156 618
3 342 28 612
3 491 345 620
3 620 135 491
3 345 94 620
3 491 2 345
3 623 621 622
3 622 56 623
3 621 158 622
3 623 134 621
3 609 215 622
3 622 158 609
3 215 56 622
3 609 15 215
3 484 614 621
3 621 134 484
3 614 158 621
3 484 41 614
3 216 485 623
3 623 56 216
3 485 134 623
3 216 9 485
3 626 624 625
3 625 161 626
3 624 160 625
3 626 159 624
3 628 627 625
3 625 160 628
3 627 161 625
3 628 31 627
3 630 629 624
3 624 159 630
3 629 160 624
3 630 20 629
3 632 631 626
3 626 161 632
3 631 159 626
3 632 40 631
3 635 633 634
3 634 73 635
3 633 160 634
3 635 105 633
3 629 272 634
3 634 160 629
3 272 73 634
3 629 20 272
3 382 628 633
3 633 105 382
3 628 160 633
3 382 31 628
3 273 385 635
3 635 73 273
3 385 105 635
3 273 6 385
3 638 636 637
3 637 137 638
3 636 159 637
3 638 72 636
3 631 496 637
3 637 159 631
3 496 137 637
3 631 40 496
3 265 630 636
3 636 72 265
3 630 159 636
3 265 20 630
3 497 268 638
3 638 137 497
3 268 72 638
3 497 10 268
3 641 639 640
3 640 102 641
3 639 161 640
3 641 136 639
3 627 372 640
3 640 161 627
3 372 102 640
3 627 31 372
3 489 632 639
3 639 136 489
3 632 161 639
3 489 40 632
3 373 492 641
3 641 102 373
3 492 136 641
3 373 2 492
