# vtk DataFile Version 3.0
this file was written using fslvtkio
ASCII
DATASET POLYDATA
POINTS 642 float
116.399 141.809 141.808
101.808 139.584 142.346
102.416 135.574 140.478
114.58 137.201 138.951
112.355 134.9 144.334
113.468 142.628 134.217
103.982 140.939 135.526
104.583 133.225 145.824
108.837 139.059 144.703
109.208 132.729 142.017
109.212 138.057 137.707
108.985 142.834 139.402
106.126 135.975 146.083
110.902 136.952 144.709
109.262 132.539 146.218
106.888 130.451 144.347
111.894 131.631 143.239
106.593 142.94 137.267
108.478 142.395 134.113
111.663 144.592 136.16
107.001 139.973 136.874
111.518 140.097 135.142
113.657 136.147 141.739
115.262 138.396 143.689
116.883 139.802 139.807
115.257 140.107 135.781
115.871 143.519 137.44
101.648 136.544 144.784
102.046 133.183 143.216
99.5318 137.915 140.591
102.296 141.022 138.962
103.103 138.652 138.458
112.819 142.998 140.383
112.855 140.681 144.067
108.881 141.505 142.655
105.347 141.362 141.038
104.807 139.249 144.311
112.329 137.776 138.053
108.874 135.5 139.987
112.074 134.618 140.53
105.872 136.828 139.44
105.33 133.508 141.751
108.673 136.213 145.373
109.948 134.733 145.729
107.746 134.314 146.518
111.279 133.651 145.514
111.512 135.882 144.376
109.915 138.1 145.108
107.493 137.59 145.588
105.063 134.478 146.533
106.831 132.53 146.484
108.268 130.832 145.996
111.075 131.623 145.37
110.032 130.128 144.108
112.442 133.185 144.13
105.555 131.486 145.359
108.298 131.511 142.974
110.877 131.561 142.263
107.336 143.271 135.347
110.015 144.206 134.622
108.922 143.871 136.518
112.974 144.347 134.83
111.131 142.716 133.887
105.972 141.704 134.539
105.082 142.436 136.283
107.86 143.045 138.258
110.199 143.745 137.815
109.263 140.104 135.842
110.113 141.313 134.334
107.615 140.765 134.806
112.671 141.361 134.148
110.3 139.283 136.629
108.217 139.067 137.243
105.563 140.273 135.824
114.593 137.391 142.391
116.694 139.074 141.881
115.307 138.161 140.772
117.336 140.96 140.95
116.295 140.074 143.202
113.106 136.825 143.407
113.276 135.333 143.27
114.225 136.581 140.267
115.429 138.563 139.197
116.379 140.103 137.663
117.034 141.586 138.477
116.515 141.996 136.154
116.411 142.71 139.694
114.928 138.869 137.735
114.952 141.488 134.425
115.177 143.563 135.319
100.986 134.799 143.977
99.9001 135.406 141.935
99.9389 137.034 142.907
100.594 136.316 140.45
101.68 134.4 141.616
103.092 132.983 144.69
102.92 134.866 145.475
101.288 138.265 143.76
100.225 138.961 141.653
100.326 139.774 139.611
101.116 138.092 139.358
101.647 139.805 137.682
102.585 137.083 139.793
101.936 140.246 140.785
102.663 141.502 136.786
103.621 139.726 136.739
113.067 142.18 142.605
111.011 141.306 143.366
110.863 142.445 141.644
108.786 140.513 144.015
110.774 139.824 144.453
114.915 141.303 143.44
114.811 142.606 141.219
110.788 143.113 139.681
108.979 142.201 140.976
107.017 141.603 141.977
106.778 140.394 143.509
104.904 140.394 142.822
106.836 139.027 144.678
107.33 142.044 140.097
103.449 140.469 141.678
102.841 139.581 143.734
110.665 136.485 139.012
110.632 135.111 140.191
112.505 136.046 139.087
110.747 133.396 141.287
109.081 134.157 140.942
109.062 136.776 138.759
110.75 137.984 137.865
113.723 137.372 138.328
113.78 135.617 139.457
105.519 135.205 140.379
107.153 134.604 140.793
107.463 136.073 139.601
107.336 133.267 142.184
103.662 134.567 141.096
104.126 136.167 140.099
107.574 137.67 138.748
113.088 137.706 144.268
112.193 138.894 144.769
114.462 139.577 144.443
114.506 143.596 139.08
112.332 143.939 138.3
114.084 144.56 136.643
111.935 132.755 141.768
112.711 133.741 142.627
112.932 134.924 141.323
113.848 138.908 137.016
113.638 139.926 135.146
112.18 139.143 136.666
105.133 137.767 145.653
103.535 136.266 145.966
102.944 138.01 144.967
103.925 141.149 139.954
104.433 141.955 138.2
106.041 142.25 139.027
103.521 132.897 142.202
104.219 131.348 143.753
106.075 131.901 142.709
106.447 138.515 138.221
104.998 139.229 137.792
104.544 137.829 139.221
109.258 135.616 145.397
108.954 134.537 146.278
108.187 135.432 145.852
108.576 133.438 146.565
109.703 133.704 146.329
110.245 135.777 145.015
109.88 136.471 145.101
107.469 136.037 145.726
107.048 135.265 146.281
110.597 134.172 145.847
110.859 135.246 145.174
111.407 134.683 145.116
111.203 136.328 144.601
110.378 133.06 145.975
111.914 134.324 144.963
111.929 135.392 144.375
109.344 137.067 145.313
108.07 136.769 145.496
108.702 137.703 145.342
106.857 136.7 145.732
110.466 137.565 145.045
109.39 138.553 144.937
108.251 138.357 145.16
106.488 134.313 146.62
107.359 133.339 146.617
105.994 133.461 146.646
108.124 132.486 146.423
105.65 135.242 146.468
104.772 133.849 146.237
105.645 132.799 146.225
109.723 131.08 145.712
110.758 130.448 145.008
109.227 129.927 145.386
111.348 130.627 143.727
111.654 131.337 144.533
110.259 131.969 145.932
108.837 131.682 146.199
107.621 130.316 145.275
108.383 129.919 144.334
111.948 132.272 144.772
111.247 132.603 145.616
112.023 133.389 144.862
112.257 132.302 143.86
112.485 134.007 144.251
107.58 131.748 146.299
106.85 130.95 145.851
106.266 131.964 146.013
106.15 130.676 144.976
104.945 132.296 145.724
109.101 130.552 143.501
110.651 130.764 143.161
109.589 131.319 142.752
111.666 131.325 142.616
107.708 130.876 143.563
108.818 132.242 142.567
109.992 132.101 142.196
108.565 143.801 134.939
109.459 144.222 135.594
108.118 143.746 135.875
110.254 144.32 136.19
110.827 144.563 135.37
109.141 143.303 134.309
107.696 142.942 134.471
107.081 143.208 136.252
107.703 143.444 136.744
111.461 144.391 134.554
110.515 143.541 134.126
111.935 143.696 134.118
109.787 142.597 133.961
112.301 144.781 135.335
113.133 143.595 134.353
112.398 142.728 133.972
106.662 142.582 134.884
106.329 142.821 135.851
105.271 142.271 135.164
106.044 142.616 136.811
107.174 142.132 134.27
104.808 141.339 134.982
104.29 141.798 135.666
108.305 143.578 137.343
109.667 143.966 137.061
108.98 143.457 137.949
110.93 144.243 136.961
107.251 143.154 137.691
108.498 142.912 138.814
109.529 143.259 138.634
109.731 140.626 134.959
108.849 141.034 134.414
108.471 140.396 135.167
108.027 141.578 134.219
109.334 141.945 134.201
110.918 140.763 134.746
110.372 140.143 135.436
108.098 140.086 136.164
107.338 140.234 135.655
110.512 142.12 134.044
111.353 141.385 134.17
111.909 142.141 133.973
112.113 140.666 134.532
113.152 142.078 134.042
109.87 139.7 136.244
108.725 139.757 136.645
109.245 139.228 136.943
107.744 139.662 137.055
110.969 139.681 135.901
109.683 138.699 137.077
108.8 138.532 137.386
106.54 140.474 135.25
106.878 141.248 134.532
105.662 140.868 134.968
106.337 140.111 136.32
104.709 140.567 135.535
115.771 138.143 142.192
116.116 138.496 141.269
114.795 137.753 141.588
116.372 138.952 140.331
116.893 139.398 140.905
116.105 138.775 142.848
115.04 137.951 142.944
114.213 136.833 142.026
114.525 137.184 141.229
117.306 139.978 141.543
116.724 139.61 142.557
117.095 140.531 142.116
116.04 139.197 143.58
117.403 140.337 140.393
116.975 141.449 141.405
116.565 140.986 142.629
114.005 137.13 142.965
113.852 136.38 142.687
113.163 136.153 143.218
113.475 135.743 142.461
114.292 137.542 143.529
112.517 135.893 143.703
112.792 135.144 143.835
114.778 137.172 140.474
115.37 138.295 139.98
114.737 137.427 139.658
116.319 139.137 139.409
113.96 136.338 141.04
114.503 136.834 139.488
114.957 137.891 139.032
116.766 140.887 138.139
116.731 141.791 137.368
116.608 141.042 136.977
116.481 142.739 136.699
116.692 142.57 137.867
117.049 140.706 139.129
116.638 139.91 138.717
115.861 140.206 136.656
116.152 141.079 135.845
116.817 142.229 139.104
117.37 141.132 139.645
116.944 141.833 140.269
116.305 143.139 138.53
116.382 142.233 140.747
115.89 139.249 138.485
115.604 139.425 137.518
115.209 138.582 138.482
115.141 139.608 136.793
114.753 138.062 138.508
115.877 141.786 135.215
116.179 142.877 135.621
115.21 142.593 134.851
115.895 143.8 136.21
115.399 140.691 135.017
114.297 142.092 134.261
114.298 143.178 134.649
100.311 135.042 142.904
99.7928 136.22 142.267
100.374 135.859 143.358
99.5041 137.481 141.839
99.4632 136.702 141.265
100.667 134.099 142.62
101.17 133.928 143.594
101.208 135.729 144.285
100.636 136.751 143.861
100.112 135.876 141.111
100.538 134.606 141.675
100.888 135.22 141.031
101.589 133.708 142.373
99.9597 137.02 140.434
101.428 135.851 140.437
101.92 135.084 141.058
101.936 133.882 144.397
101.92 134.797 144.732
102.817 133.963 145.091
102.033 135.651 145.205
102.57 133.079 143.887
103.848 133.064 145.349
103.703 134.054 145.775
100.6 137.673 143.417
99.9522 137.971 142.43
100.634 138.544 142.764
99.7137 138.444 141.241
101.234 137.469 144.45
101.446 138.861 142.924
101.022 139.199 141.982
100.327 138.859 139.226
101.328 138.948 138.528
100.848 139.86 138.552
102.201 139.124 137.891
102.047 138.355 138.751
100.258 137.905 139.967
99.9559 138.808 140.164
101.043 140.536 139.208
101.584 140.637 138.128
101.758 137.574 139.587
100.836 137.181 140.108
101.556 136.677 140.064
102.761 137.906 139.27
102.333 136.284 140.175
100.139 139.272 140.646
100.982 140.088 140.18
100.919 139.624 141.105
101.999 140.729 139.909
101.705 139.96 141.541
102.101 140.571 137.223
102.579 139.724 137.133
102.852 140.45 136.36
103.299 139.32 137.74
102.343 141.415 137.8
103.221 141.265 135.987
103.865 140.249 136.051
112.034 141.774 143.122
110.963 141.872 142.533
111.98 142.352 142.117
109.996 141.905 142.054
110.073 141.447 142.871
111.982 141.179 143.831
113.036 141.586 143.596
112.928 142.606 141.484
111.834 142.734 141.056
109.947 140.955 143.636
110.97 140.711 144.021
109.832 140.3 144.22
111.795 140.264 144.201
108.907 141.047 143.382
108.864 139.684 144.401
109.814 139.472 144.637
114.068 141.863 143.168
114.004 142.464 141.969
115 142.043 142.439
113.856 142.82 140.82
113.921 141.107 143.876
115.847 141.452 142.705
115.685 142.191 141.594
110.837 142.752 140.677
109.871 142.369 141.311
109.868 142.628 140.357
108.973 141.946 141.874
111.777 143.065 139.988
109.805 142.934 139.441
108.962 142.438 140.147
106.898 141.074 142.755
105.827 140.44 143.128
105.949 141.021 142.406
104.784 139.914 143.619
105.781 139.793 143.81
107.81 141.035 143.167
107.942 141.567 142.378
106.101 141.422 141.601
105.12 140.962 141.986
106.751 139.681 144.048
107.819 140.502 143.758
107.861 139.678 144.289
105.818 139.133 144.492
107.881 139.014 144.74
108.058 141.949 141.497
107.112 141.814 141.06
108.087 142.191 140.56
106.352 141.668 140.591
108.162 142.446 139.708
104.158 140.484 142.24
103.874 140.032 143.294
103.081 140.101 142.716
103.788 139.488 144.133
104.461 140.913 141.362
102.513 140.048 142.073
102.158 139.631 143.113
110.69 135.804 139.604
111.596 135.518 139.49
111.616 136.323 139.113
112.231 135.336 139.692
111.408 134.776 140.232
109.769 135.337 140.066
109.828 135.981 139.551
111.556 137.014 138.53
112.393 136.906 138.639
110.782 134.291 140.618
109.946 134.621 140.557
109.963 133.833 141.131
109.019 134.88 140.393
111.444 134.047 140.999
109.988 132.92 141.58
109.156 133.396 141.584
109.866 136.615 138.879
110.747 137.205 138.458
109.901 137.365 138.382
111.552 137.858 137.956
109.055 136.131 139.316
109.12 137.597 138.383
109.954 138.013 137.702
113.147 136.638 138.754
113.163 135.735 139.173
113.812 136.403 138.881
112.9 135.132 140
113.006 137.593 138.236
114.266 137.225 138.65
114.307 136.387 139.291
106.285 134.922 140.628
107.308 135.305 140.093
106.538 135.639 140.081
108.201 135.822 139.803
108.078 135.061 140.355
106.238 134.054 141.272
105.361 134.439 141.069
105.719 135.937 139.814
106.651 136.414 139.484
108.175 134.353 140.833
107.236 133.911 141.373
108.24 133.699 141.595
106.402 133.327 141.926
108.234 133.021 142.309
104.567 134.911 140.678
104.832 135.634 140.15
103.868 135.359 140.5
105.003 136.46 139.711
104.501 134.065 141.408
102.959 135.052 140.888
103.188 135.829 140.352
107.449 136.863 139.098
108.308 136.38 139.106
108.271 137.221 138.713
106.716 137.314 139.153
108.42 137.892 138.165
112.766 138.215 144.72
113.284 139.245 144.618
113.976 138.58 144.542
113.716 140.142 144.339
112.535 139.758 144.483
111.631 137.959 144.886
111.969 137.337 144.549
114.279 137.992 144.052
114.927 138.872 144.14
111.564 139.414 144.686
111.06 138.459 144.921
110.452 138.978 144.712
112.096 136.871 144.139
113.133 137.206 143.754
112.214 136.371 143.833
115.462 139.637 143.92
114.656 140.41 144.026
115.721 140.651 143.431
113.487 143.869 138.673
113.268 144.248 137.49
114.413 144.17 137.849
112.889 144.695 136.339
112.035 144.28 137.238
112.562 143.529 139.337
113.646 143.301 139.746
115.432 143.791 138.296
115.23 144.271 136.916
111.195 143.862 138.032
111.553 143.533 138.979
110.407 143.465 138.75
114.65 143.014 140.109
115.536 143.205 139.382
115.583 142.667 140.526
114.829 144.399 135.851
113.493 144.624 135.741
114.082 144.035 134.861
112.394 133.126 142.174
112.513 134.449 141.939
112.23 133.974 141.724
113.147 135.567 141.43
113.04 135.074 142.127
112.541 132.646 143.042
111.981 132.138 142.435
111.982 133.849 141.402
112.622 134.685 140.901
112.998 134.67 142.732
112.712 133.481 143.344
112.891 134.293 143.639
111.48 132.161 141.963
111.522 133.201 141.564
110.743 132.515 141.788
113.588 135.227 140.374
113.692 135.775 140.74
114.107 136.105 140.006
113.82 139.381 136.035
112.919 139.504 135.932
113.089 138.976 136.823
111.966 139.613 135.846
112.616 139.99 135.134
114.592 139.919 135.33
114.476 139.58 136.394
113.108 138.27 137.563
112.228 138.513 137.392
113.248 140.545 134.453
114.515 140.548 134.586
113.814 141.349 134.31
114.448 138.944 137.244
113.773 138.113 137.754
114.404 138.08 138.114
111.498 138.624 137.306
111.237 139.165 136.56
110.585 138.614 137.167
104.374 137.018 145.79
103.076 137.205 145.516
103.93 137.942 145.428
102.022 137.432 145.097
102.333 136.393 145.541
104.865 136.08 146.123
105.635 136.797 145.781
104.907 138.599 145.053
103.851 138.604 144.667
103.145 135.558 145.679
104.417 135.36 146.206
103.991 134.661 146.013
106.347 137.55 145.615
106.011 138.52 145.156
107.171 138.394 145.237
102.947 138.803 144.305
102.108 138.106 144.441
102.138 138.897 143.634
104.199 141.568 139.097
105.375 142.008 138.629
104.944 141.752 139.545
106.34 142.605 138.08
105.607 142.353 137.735
103.195 141.692 138.554
103.115 141.168 139.535
104.674 141.272 140.45
105.689 141.769 140.033
104.855 142.259 137.236
103.49 141.934 137.619
103.782 142.023 136.559
102.801 140.826 140.438
103.713 140.92 140.84
102.665 140.395 141.261
106.671 142.135 139.64
106.966 142.605 138.655
107.615 142.495 139.193
103.772 131.904 142.991
105.054 131.392 143.149
104.716 132.18 142.448
106.391 131.052 143.333
105.556 130.839 143.983
103.198 132.285 143.564
102.679 132.828 142.738
104.388 133.109 141.898
105.668 132.713 142.214
104.805 131.243 144.651
103.623 132.147 144.176
104.252 132.135 145.038
102.531 133.662 142.01
103.564 133.747 141.633
102.651 134.508 141.459
106.705 132.682 142.497
107.074 131.724 142.891
107.738 132.449 142.624
105.791 138.962 138.019
104.79 138.617 138.488
105.544 138.181 138.785
103.781 138.154 138.918
104.071 138.967 138.24
106.032 139.644 137.324
106.753 139.316 137.477
106.14 137.828 139.033
105.223 137.366 139.354
104.313 139.481 137.428
105.385 139.874 136.871
104.641 140.048 136.438
107.316 138.825 137.632
107.036 138.092 138.497
107.925 138.233 137.816
104.264 136.942 139.596
103.563 137.451 139.581
103.295 136.562 139.916
POLYGONS 1280  5120
3 164 162 163
3 163 44 164
3 162 43 163
3 164 42 162
3 166 165 163
3 163 43 166
3 165 44 163
3 166 14 165
3 168 167 162
3 162 42 168
3 167 43 162
3 168 13 167
3 170 169 164
3 164 44 170
3 169 42 164
3 170 12 169
3 173 171 172
3 172 46 173
3 171 43 172
3 173 45 171
3 167 174 172
3 172 43 167
3 174 46 172
3 167 13 174
3 175 166 171
3 171 45 175
3 166 43 171
3 175 14 166
3 177 176 173
3 173 46 177
3 176 45 173
3 177 4 176
3 180 178 179
3 179 48 180
3 178 42 179
3 180 47 178
3 169 181 179
3 179 42 169
3 181 48 179
3 169 12 181
3 182 168 178
3 178 47 182
3 168 42 178
3 182 13 168
3 184 183 180
3 180 48 184
3 183 47 180
3 184 8 183
3 187 185 186
3 186 50 187
3 185 44 186
3 187 49 185
3 165 188 186
3 186 44 165
3 188 50 186
3 165 14 188
3 189 170 185
3 185 49 189
3 170 44 185
3 189 12 170
3 191 190 187
3 187 50 191
3 190 49 187
3 191 7 190
3 194 192 193
3 193 53 194
3 192 52 193
3 194 51 192
3 196 195 193
3 193 52 196
3 195 53 193
3 196 16 195
3 198 197 192
3 192 51 198
3 197 52 192
3 198 14 197
3 200 199 194
3 194 53 200
3 199 51 194
3 200 15 199
3 203 201 202
3 202 45 203
3 201 52 202
3 203 54 201
3 197 175 202
3 202 52 197
3 175 45 202
3 197 14 175
3 204 196 201
3 201 54 204
3 196 52 201
3 204 16 196
3 176 205 203
3 203 45 176
3 205 54 203
3 176 4 205
3 208 206 207
3 207 55 208
3 206 51 207
3 208 50 206
3 199 209 207
3 207 51 199
3 209 55 207
3 199 15 209
3 188 198 206
3 206 50 188
3 198 51 206
3 188 14 198
3 210 191 208
3 208 55 210
3 191 50 208
3 210 7 191
3 213 211 212
3 212 57 213
3 211 53 212
3 213 56 211
3 195 214 212
3 212 53 195
3 214 57 212
3 195 16 214
3 215 200 211
3 211 56 215
3 200 53 211
3 215 15 200
3 217 216 213
3 213 57 217
3 216 56 213
3 217 9 216
3 220 218 219
3 219 60 220
3 218 59 219
3 220 58 218
3 222 221 219
3 219 59 222
3 221 60 219
3 222 19 221
3 224 223 218
3 218 58 224
3 223 59 218
3 224 18 223
3 226 225 220
3 220 60 226
3 225 58 220
3 226 17 225
3 229 227 228
3 228 62 229
3 227 59 228
3 229 61 227
3 223 230 228
3 228 59 223
3 230 62 228
3 223 18 230
3 231 222 227
3 227 61 231
3 222 59 227
3 231 19 222
3 233 232 229
3 229 62 233
3 232 61 229
3 233 5 232
3 236 234 235
3 235 64 236
3 234 58 235
3 236 63 234
3 225 237 235
3 235 58 225
3 237 64 235
3 225 17 237
3 238 224 234
3 234 63 238
3 224 58 234
3 238 18 224
3 240 239 236
3 236 64 240
3 239 63 236
3 240 6 239
3 243 241 242
3 242 66 243
3 241 60 242
3 243 65 241
3 221 244 242
3 242 60 221
3 244 66 242
3 221 19 244
3 245 226 241
3 241 65 245
3 226 60 241
3 245 17 226
3 247 246 243
3 243 66 247
3 246 65 243
3 247 11 246
3 250 248 249
3 249 69 250
3 248 68 249
3 250 67 248
3 252 251 249
3 249 68 252
3 251 69 249
3 252 18 251
3 254 253 248
3 248 67 254
3 253 68 248
3 254 21 253
3 256 255 250
3 250 69 256
3 255 67 250
3 256 20 255
3 259 257 258
3 258 70 259
3 257 68 258
3 259 62 257
3 253 260 258
3 258 68 253
3 260 70 258
3 253 21 260
3 230 252 257
3 257 62 230
3 252 68 257
3 230 18 252
3 261 233 259
3 259 70 261
3 233 62 259
3 261 5 233
3 264 262 263
3 263 72 264
3 262 67 263
3 264 71 262
3 255 265 263
3 263 67 255
3 265 72 263
3 255 20 265
3 266 254 262
3 262 71 266
3 254 67 262
3 266 21 254
3 268 267 264
3 264 72 268
3 267 71 264
3 268 10 267
3 271 269 270
3 270 63 271
3 269 69 270
3 271 73 269
3 251 238 270
3 270 69 251
3 238 63 270
3 251 18 238
3 272 256 269
3 269 73 272
3 256 69 269
3 272 20 256
3 239 273 271
3 271 63 239
3 273 73 271
3 239 6 273
3 276 274 275
3 275 76 276
3 274 75 275
3 276 74 274
3 278 277 275
3 275 75 278
3 277 76 275
3 278 24 277
3 280 279 274
3 274 74 280
3 279 75 274
3 280 23 279
3 282 281 276
3 276 76 282
3 281 74 276
3 282 22 281
3 285 283 284
3 284 78 285
3 283 75 284
3 285 77 283
3 279 286 284
3 284 75 279
3 286 78 284
3 279 23 286
3 287 278 283
3 283 77 287
3 278 75 283
3 287 24 278
3 289 288 285
3 285 78 289
3 288 77 285
3 289 0 288
3 292 290 291
3 291 80 292
3 290 74 291
3 292 79 290
3 281 293 291
3 291 74 281
3 293 80 291
3 281 22 293
3 294 280 290
3 290 79 294
3 280 74 290
3 294 23 280
3 296 295 292
3 292 80 296
3 295 79 292
3 296 4 295
3 299 297 298
3 298 82 299
3 297 76 298
3 299 81 297
3 277 300 298
3 298 76 277
3 300 82 298
3 277 24 300
3 301 282 297
3 297 81 301
3 282 76 297
3 301 22 282
3 303 302 299
3 299 82 303
3 302 81 299
3 303 3 302
3 306 304 305
3 305 85 306
3 304 84 305
3 306 83 304
3 308 307 305
3 305 84 308
3 307 85 305
3 308 26 307
3 310 309 304
3 304 83 310
3 309 84 304
3 310 24 309
3 312 311 306
3 306 85 312
3 311 83 306
3 312 25 311
3 315 313 314
3 314 77 315
3 313 84 314
3 315 86 313
3 309 287 314
3 314 84 309
3 287 77 314
3 309 24 287
3 316 308 313
3 313 86 316
3 308 84 313
3 316 26 308
3 288 317 315
3 315 77 288
3 317 86 315
3 288 0 317
3 320 318 319
3 319 87 320
3 318 83 319
3 320 82 318
3 311 321 319
3 319 83 311
3 321 87 319
3 311 25 321
3 300 310 318
3 318 82 300
3 310 83 318
3 300 24 310
3 322 303 320
3 320 87 322
3 303 82 320
3 322 3 303
3 325 323 324
3 324 89 325
3 323 85 324
3 325 88 323
3 307 326 324
3 324 85 307
3 326 89 324
3 307 26 326
3 327 312 323
3 323 88 327
3 312 85 323
3 327 25 312
3 329 328 325
3 325 89 329
3 328 88 325
3 329 5 328
3 332 330 331
3 331 92 332
3 330 91 331
3 332 90 330
3 334 333 331
3 331 91 334
3 333 92 331
3 334 29 333
3 336 335 330
3 330 90 336
3 335 91 330
3 336 28 335
3 338 337 332
3 332 92 338
3 337 90 332
3 338 27 337
3 341 339 340
3 340 94 341
3 339 91 340
3 341 93 339
3 335 342 340
3 340 91 335
3 342 94 340
3 335 28 342
3 343 334 339
3 339 93 343
3 334 91 339
3 343 29 334
3 345 344 341
3 341 94 345
3 344 93 341
3 345 2 344
3 348 346 347
3 347 96 348
3 346 90 347
3 348 95 346
3 337 349 347
3 347 90 337
3 349 96 347
3 337 27 349
3 350 336 346
3 346 95 350
3 336 90 346
3 350 28 336
3 352 351 348
3 348 96 352
3 351 95 348
3 352 7 351
3 355 353 354
3 354 98 355
3 353 92 354
3 355 97 353
3 333 356 354
3 354 92 333
3 356 98 354
3 333 29 356
3 357 338 353
3 353 97 357
3 338 92 353
3 357 27 338
3 359 358 355
3 355 98 359
3 358 97 355
3 359 1 358
3 362 360 361
3 361 101 362
3 360 100 361
3 362 99 360
3 364 363 361
3 361 100 364
3 363 101 361
3 364 31 363
3 366 365 360
3 360 99 366
3 365 100 360
3 366 29 365
3 368 367 362
3 362 101 368
3 367 99 362
3 368 30 367
3 371 369 370
3 370 93 371
3 369 100 370
3 371 102 369
3 365 343 370
3 370 100 365
3 343 93 370
3 365 29 343
3 372 364 369
3 369 102 372
3 364 100 369
3 372 31 364
3 344 373 371
3 371 93 344
3 373 102 371
3 344 2 373
3 376 374 375
3 375 103 376
3 374 99 375
3 376 98 374
3 367 377 375
3 375 99 367
3 377 103 375
3 367 30 377
3 356 366 374
3 374 98 356
3 366 99 374
3 356 29 366
3 378 359 376
3 376 103 378
3 359 98 376
3 378 1 359
3 381 379 380
3 380 105 381
3 379 101 380
3 381 104 379
3 363 382 380
3 380 101 363
3 382 105 380
3 363 31 382
3 383 368 379
3 379 104 383
3 368 101 379
3 383 30 368
3 385 384 381
3 381 105 385
3 384 104 381
3 385 6 384
3 388 386 387
3 387 108 388
3 386 107 387
3 388 106 386
3 390 389 387
3 387 107 390
3 389 108 387
3 390 34 389
3 392 391 386
3 386 106 392
3 391 107 386
3 392 33 391
3 394 393 388
3 388 108 394
3 393 106 388
3 394 32 393
3 397 395 396
3 396 110 397
3 395 107 396
3 397 109 395
3 391 398 396
3 396 107 391
3 398 110 396
3 391 33 398
3 399 390 395
3 395 109 399
3 390 107 395
3 399 34 390
3 401 400 397
3 397 110 401
3 400 109 397
3 401 8 400
3 404 402 403
3 403 112 404
3 402 106 403
3 404 111 402
3 393 405 403
3 403 106 393
3 405 112 403
3 393 32 405
3 406 392 402
3 402 111 406
3 392 106 402
3 406 33 392
3 408 407 404
3 404 112 408
3 407 111 404
3 408 0 407
3 411 409 410
3 410 114 411
3 409 108 410
3 411 113 409
3 389 412 410
3 410 108 389
3 412 114 410
3 389 34 412
3 413 394 409
3 409 113 413
3 394 108 409
3 413 32 394
3 415 414 411
3 411 114 415
3 414 113 411
3 415 11 414
3 418 416 417
3 417 117 418
3 416 116 417
3 418 115 416
3 420 419 417
3 417 116 420
3 419 117 417
3 420 36 419
3 422 421 416
3 416 115 422
3 421 116 416
3 422 34 421
3 424 423 418
3 418 117 424
3 423 115 418
3 424 35 423
3 427 425 426
3 426 109 427
3 425 116 426
3 427 118 425
3 421 399 426
3 426 116 421
3 399 109 426
3 421 34 399
3 428 420 425
3 425 118 428
3 420 116 425
3 428 36 420
3 400 429 427
3 427 109 400
3 429 118 427
3 400 8 429
3 432 430 431
3 431 119 432
3 430 115 431
3 432 114 430
3 423 433 431
3 431 115 423
3 433 119 431
3 423 35 433
3 412 422 430
3 430 114 412
3 422 115 430
3 412 34 422
3 434 415 432
3 432 119 434
3 415 114 432
3 434 11 415
3 437 435 436
3 436 121 437
3 435 117 436
3 437 120 435
3 419 438 436
3 436 117 419
3 438 121 436
3 419 36 438
3 439 424 435
3 435 120 439
3 424 117 435
3 439 35 424
3 441 440 437
3 437 121 441
3 440 120 437
3 441 1 440
3 444 442 443
3 443 124 444
3 442 123 443
3 444 122 442
3 446 445 443
3 443 123 446
3 445 124 443
3 446 39 445
3 448 447 442
3 442 122 448
3 447 123 442
3 448 38 447
3 450 449 444
3 444 124 450
3 449 122 444
3 450 37 449
3 453 451 452
3 452 126 453
3 451 123 452
3 453 125 451
3 447 454 452
3 452 123 447
3 454 126 452
3 447 38 454
3 455 446 451
3 451 125 455
3 446 123 451
3 455 39 446
3 457 456 453
3 453 126 457
3 456 125 453
3 457 9 456
3 460 458 459
3 459 128 460
3 458 122 459
3 460 127 458
3 449 461 459
3 459 122 449
3 461 128 459
3 449 37 461
3 462 448 458
3 458 127 462
3 448 122 458
3 462 38 448
3 464 463 460
3 460 128 464
3 463 127 460
3 464 10 463
3 467 465 466
3 466 130 467
3 465 124 466
3 467 129 465
3 445 468 466
3 466 124 445
3 468 130 466
3 445 39 468
3 469 450 465
3 465 129 469
3 450 124 465
3 469 37 450
3 471 470 467
3 467 130 471
3 470 129 467
3 471 3 470
3 474 472 473
3 473 133 474
3 472 132 473
3 474 131 472
3 476 475 473
3 473 132 476
3 475 133 473
3 476 38 475
3 478 477 472
3 472 131 478
3 477 132 472
3 478 41 477
3 480 479 474
3 474 133 480
3 479 131 474
3 480 40 479
3 483 481 482
3 482 134 483
3 481 132 482
3 483 126 481
3 477 484 482
3 482 132 477
3 484 134 482
3 477 41 484
3 454 476 481
3 481 126 454
3 476 132 481
3 454 38 476
3 485 457 483
3 483 134 485
3 457 126 483
3 485 9 457
3 488 486 487
3 487 136 488
3 486 131 487
3 488 135 486
3 479 489 487
3 487 131 479
3 489 136 487
3 479 40 489
3 490 478 486
3 486 135 490
3 478 131 486
3 490 41 478
3 492 491 488
3 488 136 492
3 491 135 488
3 492 2 491
3 495 493 494
3 494 127 495
3 493 133 494
3 495 137 493
3 475 462 494
3 494 133 475
3 462 127 494
3 475 38 462
3 496 480 493
3 493 137 496
3 480 133 493
3 496 40 480
3 463 497 495
3 495 127 463
3 497 137 495
3 463 10 497
3 500 498 499
3 499 140 500
3 498 139 499
3 500 138 498
3 502 501 499
3 499 139 502
3 501 140 499
3 502 33 501
3 504 503 498
3 498 138 504
3 503 139 498
3 504 13 503
3 506 505 500
3 500 140 506
3 505 138 500
3 506 23 505
3 509 507 508
3 508 47 509
3 507 139 508
3 509 110 507
3 503 182 508
3 508 139 503
3 182 47 508
3 503 13 182
3 398 502 507
3 507 110 398
3 502 139 507
3 398 33 502
3 183 401 509
3 509 47 183
3 401 110 509
3 183 8 401
3 512 510 511
3 511 79 512
3 510 138 511
3 512 46 510
3 505 294 511
3 511 138 505
3 294 79 511
3 505 23 294
3 174 504 510
3 510 46 174
3 504 138 510
3 174 13 504
3 295 177 512
3 512 79 295
3 177 46 512
3 295 4 177
3 515 513 514
3 514 111 515
3 513 140 514
3 515 78 513
3 501 406 514
3 514 140 501
3 406 111 514
3 501 33 406
3 286 506 513
3 513 78 286
3 506 140 513
3 286 23 506
3 407 289 515
3 515 111 407
3 289 78 515
3 407 0 289
3 518 516 517
3 517 143 518
3 516 142 517
3 518 141 516
3 520 519 517
3 517 142 520
3 519 143 517
3 520 19 519
3 522 521 516
3 516 141 522
3 521 142 516
3 522 32 521
3 524 523 518
3 518 143 524
3 523 141 518
3 524 26 523
3 527 525 526
3 526 113 527
3 525 142 526
3 527 66 525
3 521 413 526
3 526 142 521
3 413 113 526
3 521 32 413
3 244 520 525
3 525 66 244
3 520 142 525
3 244 19 520
3 414 247 527
3 527 113 414
3 247 66 527
3 414 11 247
3 530 528 529
3 529 86 530
3 528 141 529
3 530 112 528
3 523 316 529
3 529 141 523
3 316 86 529
3 523 26 316
3 405 522 528
3 528 112 405
3 522 141 528
3 405 32 522
3 317 408 530
3 530 86 317
3 408 112 530
3 317 0 408
3 533 531 532
3 532 61 533
3 531 143 532
3 533 89 531
3 519 231 532
3 532 143 519
3 231 61 532
3 519 19 231
3 326 524 531
3 531 89 326
3 524 143 531
3 326 26 524
3 232 329 533
3 533 61 232
3 329 89 533
3 232 5 329
3 536 534 535
3 535 146 536
3 534 145 535
3 536 144 534
3 538 537 535
3 535 145 538
3 537 146 535
3 538 22 537
3 540 539 534
3 534 144 540
3 539 145 534
3 540 16 539
3 542 541 536
3 536 146 542
3 541 144 536
3 542 39 541
3 545 543 544
3 544 54 545
3 543 145 544
3 545 80 543
3 539 204 544
3 544 145 539
3 204 54 544
3 539 16 204
3 293 538 543
3 543 80 293
3 538 145 543
3 293 22 538
3 205 296 545
3 545 54 205
3 296 80 545
3 205 4 296
3 548 546 547
3 547 125 548
3 546 144 547
3 548 57 546
3 541 455 547
3 547 144 541
3 455 125 547
3 541 39 455
3 214 540 546
3 546 57 214
3 540 144 546
3 214 16 540
3 456 217 548
3 548 125 456
3 217 57 548
3 456 9 217
3 551 549 550
3 550 81 551
3 549 146 550
3 551 130 549
3 537 301 550
3 550 146 537
3 301 81 550
3 537 22 301
3 468 542 549
3 549 130 468
3 542 146 549
3 468 39 542
3 302 471 551
3 551 81 302
3 471 130 551
3 302 3 471
3 554 552 553
3 553 149 554
3 552 148 553
3 554 147 552
3 556 555 553
3 553 148 556
3 555 149 553
3 556 21 555
3 558 557 552
3 552 147 558
3 557 148 552
3 558 25 557
3 560 559 554
3 554 149 560
3 559 147 554
3 560 37 559
3 563 561 562
3 562 88 563
3 561 148 562
3 563 70 561
3 557 327 562
3 562 148 557
3 327 88 562
3 557 25 327
3 260 556 561
3 561 70 260
3 556 148 561
3 260 21 556
3 328 261 563
3 563 88 328
3 261 70 563
3 328 5 261
3 566 564 565
3 565 129 566
3 564 147 565
3 566 87 564
3 559 469 565
3 565 147 559
3 469 129 565
3 559 37 469
3 321 558 564
3 564 87 321
3 558 147 564
3 321 25 558
3 470 322 566
3 566 129 470
3 322 87 566
3 470 3 322
3 569 567 568
3 568 71 569
3 567 149 568
3 569 128 567
3 555 266 568
3 568 149 555
3 266 71 568
3 555 21 266
3 461 560 567
3 567 128 461
3 560 149 567
3 461 37 560
3 267 464 569
3 569 71 267
3 464 128 569
3 267 10 464
3 572 570 571
3 571 152 572
3 570 151 571
3 572 150 570
3 574 573 571
3 571 151 574
3 573 152 571
3 574 27 573
3 576 575 570
3 570 150 576
3 575 151 570
3 576 12 575
3 578 577 572
3 572 152 578
3 577 150 572
3 578 36 577
3 581 579 580
3 580 49 581
3 579 151 580
3 581 96 579
3 575 189 580
3 580 151 575
3 189 49 580
3 575 12 189
3 349 574 579
3 579 96 349
3 574 151 579
3 349 27 574
3 190 352 581
3 581 49 190
3 352 96 581
3 190 7 352
3 584 582 583
3 583 118 584
3 582 150 583
3 584 48 582
3 577 428 583
3 583 150 577
3 428 118 583
3 577 36 428
3 181 576 582
3 582 48 181
3 576 150 582
3 181 12 576
3 429 184 584
3 584 118 429
3 184 48 584
3 429 8 184
3 587 585 586
3 586 97 587
3 585 152 586
3 587 121 585
3 573 357 586
3 586 152 573
3 357 97 586
3 573 27 357
3 438 578 585
3 585 121 438
3 578 152 585
3 438 36 578
3 358 441 587
3 587 97 358
3 441 121 587
3 358 1 441
3 590 588 589
3 589 155 590
3 588 154 589
3 590 153 588
3 592 591 589
3 589 154 592
3 591 155 589
3 592 17 591
3 594 593 588
3 588 153 594
3 593 154 588
3 594 30 593
3 596 595 590
3 590 155 596
3 595 153 590
3 596 35 595
3 599 597 598
3 598 104 599
3 597 154 598
3 599 64 597
3 593 383 598
3 598 154 593
3 383 104 598
3 593 30 383
3 237 592 597
3 597 64 237
3 592 154 597
3 237 17 592
3 384 240 599
3 599 104 384
3 240 64 599
3 384 6 240
3 602 600 601
3 601 120 602
3 600 153 601
3 602 103 600
3 595 439 601
3 601 153 595
3 439 120 601
3 595 35 439
3 377 594 600
3 600 103 377
3 594 153 600
3 377 30 594
3 440 378 602
3 602 120 440
3 378 103 602
3 440 1 378
3 605 603 604
3 604 65 605
3 603 155 604
3 605 119 603
3 591 245 604
3 604 155 591
3 245 65 604
3 591 17 245
3 433 596 603
3 603 119 433
3 596 155 603
3 433 35 596
3 246 434 605
3 605 65 246
3 434 119 605
3 246 11 434
3 608 606 607
3 607 158 608
3 606 157 607
3 608 156 606
3 610 609 607
3 607 157 610
3 609 158 607
3 610 15 609
3 612 611 606
3 606 156 612
3 611 157 606
3 612 28 611
3 614 613 608
3 608 158 614
3 613 156 608
3 614 41 613
3 617 615 616
3 616 95 617
3 615 157 616
3 617 55 615
3 611 350 616
3 616 157 611
3 350 95 616
3 611 28 350
3 209 610 615
3 615 55 209
3 610 157 615
3 209 15 610
3 351 210 617
3 617 95 351
3 210 55 617
3 351 7 210
3 620 618 619
3 619 135 620
3 618 156 619
3 620 94 618
3 613 490 619
3 619 156 613
3 490 135 619
3 613 41 490
3 342 612 618
3 618 94 342
3 612 156 618
3 342 28 612
3 491 345 620
3 620 135 491
3 345 94 620
3 491 2 345
3 623 621 622
3 622 56 623
3 621 158 622
3 623 134 621
3 609 215 622
3 622 158 609
3 215 56 622
3 609 15 215
3 484 614 621
3 621 134 484
3 614 158 621
3 484 41 614
3 216 485 623
3 623 56 216
3 485 134 623
3 216 9 485
3 626 624 625
3 625 161 626
3 624 160 625
3 626 159 624
3 628 627 625
3 625 160 628
3 627 161 625
3 628 31 627
3 630 629 624
3 624 159 630
3 629 160 624
3 630 20 629
3 632 631 626
3 626 161 632
3 631 159 626
3 632 40 631
3 635 633 634
3 634 73 635
3 633 160 634
3 635 105 633
3 629 272 634
3 634 160 629
3 272 73 634
3 629 20 272
3 382 628 633
3 633 105 382
3 628 160 633
3 382 31 628
3 273 385 635
3 635 73 273
3 385 105 635
3 273 6 385
3 638 636 637
3 637 137 638
3 636 159 637
3 638 72 636
3 631 496 637
3 637 159 631
3 496 137 637
3 631 40 496
3 265 630 636
3 636 72 265
3 630 159 636
3 265 20 630
3 497 268 638
3 638 137 497
3 268 72 638
3 497 10 268
3 641 639 640
3 640 102 641
3 639 161 640
3 641 136 639
3 627 372 640
3 640 161 627
3 372 102 640
3 627 31 372
3 489 632 639
3 639 136 489
3 632 161 639
3 489 40 632
3 373 492 641
3 641 102 373
3 492 136 641
3 373 2 492
