# vtk DataFile Version 3.0
this file was written using fslvtkio
ASCII
DATASET POLYDATA
POINTS 642 float
131.118 128.696 106.023
121.668 127.845 105.248
126.495 121.36 104.931
135.271 119.247 105.078
130.739 124.164 110.719
132.24 124.334 101.409
125.669 124.172 100.656
125.713 124.395 110.182
125.509 132.918 110.037
131.069 116.639 108.411
131.256 117.115 101.521
125.946 131.721 102.659
124.971 128.698 111.255
128.289 129.208 111.474
128.442 123.797 112.398
128.594 120.454 109.863
131.992 119.238 111.04
125.362 127.975 101.628
129.191 124.01 100.846
129.428 128.446 101.796
128.687 120.551 100.854
132.878 119.893 100.885
133.466 120.842 108.352
131.018 127.019 108.704
133.843 124.194 105.569
134.857 121.299 102.338
132.36 127.291 103.104
123.1 127.184 108.56
126.284 122.957 107.554
123.33 124.303 104.873
122.445 126.249 101.745
125.336 122.401 102.375
128.74 131.441 104.279
128.258 131.813 108.032
124.411 134.417 105.826
122.126 130.956 103.424
122.006 131.462 107.567
135.56 115.644 101.84
131.415 115.401 104.585
134.631 115.572 107.223
128.594 118.561 103.179
128.943 118.772 106.549
126.641 129.254 112.024
128.357 126.693 112.555
126.579 126.336 112.216
129.848 124.024 112.089
129.486 126.724 111.236
127.085 131.439 111.168
125.01 130.955 110.696
124.959 126.332 111.007
126.84 124.103 111.481
128.203 121.962 111.418
130.252 121.537 112.304
130.05 119.458 111.111
131.442 121.765 111.044
127.133 122.528 109.964
129.822 118.672 109.041
131.532 117.518 110.147
127.288 126.253 101.003
129.162 126.255 101.25
127.516 128.122 101.693
130.791 126.375 101.466
130.712 124.101 101.126
127.458 124.169 100.688
125.538 126.113 100.835
125.816 129.717 102.228
127.746 130.146 102.201
130.757 120.232 100.655
130.945 121.965 100.749
128.828 122.318 100.686
132.459 122.142 100.988
132.121 118.391 100.973
129.965 118.815 101.108
127.056 122.414 100.808
132.49 124.048 108.607
132.558 125.507 107.279
133.721 122.774 107.191
132.493 126.468 105.823
131.167 127.957 107.422
130.862 125.644 109.748
132.2 122.592 109.602
134.439 120.072 106.837
134.639 121.807 105.454
134.584 123.005 103.918
133.226 125.731 104.293
133.87 124.431 102.736
131.723 128.019 104.538
135.317 120.454 103.705
133.714 122.991 101.64
132.544 126.005 101.972
124.582 125.082 108
124.646 123.753 106.465
123.407 125.626 106.766
124.848 122.905 104.993
126.228 122.035 106.249
126.086 123.732 108.822
124.339 125.784 109.461
122.434 127.349 106.855
122.444 125.961 105.01
122.533 124.936 103.226
124.116 123.202 103.512
123.367 124.008 101.783
125.966 121.83 103.666
121.787 126.899 103.425
123.901 125.199 100.862
125.29 123.054 101.252
128.277 132.049 106.056
126.529 133.841 107.205
126.444 133.459 104.851
124.799 134.068 108.247
127.148 132.786 109.316
129.721 130.305 107.043
130.128 130.178 105.167
127.521 131.914 103.224
124.879 133.405 103.577
122.962 133.382 103.948
122.724 133.638 106.867
121.064 131.692 105.282
123.59 132.263 109.017
124.102 131.274 102.828
121.18 129.216 104.247
121.44 129.541 106.536
133.452 114.059 102.793
133.299 114.057 105.853
135.831 114.654 104.447
132.8 115.514 108.394
131.169 115.896 106.537
131.167 115.89 102.695
133.17 116.163 101.464
135.793 117.403 103.651
135.068 117.51 106.087
128.761 118.464 104.826
129.967 116.751 105.556
129.911 116.567 103.712
129.915 117.736 107.516
127.779 120.112 105.721
127.634 120.143 104.05
129.597 117.696 102.128
129.578 128.159 110.034
128.334 130.591 109.813
129.668 129.539 108.48
130.699 129.443 103.616
129.351 130.316 102.72
131.196 127.963 102.086
133.269 117.019 109.459
132.684 120.014 109.71
134.114 118.105 107.929
135.514 118.417 102.194
134.011 120.656 101.328
134.219 117.649 101.13
123.373 130.22 109.507
123.764 127.846 110.09
122.244 129.219 108.083
122.253 128.508 102.803
123.877 127.075 101.433
123.805 129.441 102.544
127.575 120.947 107.013
127.448 121.762 108.618
128.778 119.877 108.104
128.387 119.526 101.855
126.917 121.402 101.55
127.174 120.692 102.806
127.494 128.002 112.435
127.441 126.59 112.458
126.608 127.805 112.177
127.505 125.184 112.379
128.275 125.326 112.615
128.291 128.044 112.192
127.574 129.25 112.089
125.836 128.903 111.72
125.821 127.601 111.848
129.048 125.396 112.465
128.949 126.792 111.999
129.563 125.484 111.8
128.848 127.947 111.485
129.131 124.035 112.486
130.247 124.256 111.434
130.071 125.456 111.075
126.836 130.392 111.829
125.782 130.124 111.47
126.046 131.265 111.17
124.931 129.852 111.018
127.673 130.38 111.442
126.316 132.31 110.759
125.259 132.007 110.496
125.716 126.45 111.705
126.649 125.178 111.959
125.831 125.265 111.356
127.58 124.007 112.052
125.028 127.449 111.343
125.311 125.212 110.72
126.226 124.316 110.9
129.155 121.674 112.044
130.075 120.393 111.941
129.153 120.707 111.441
131.01 119.31 111.436
131.117 120.404 111.878
129.342 122.631 112.479
128.277 122.795 112.04
128.488 121.03 110.778
129.243 119.923 110.637
130.901 121.751 111.852
130.019 122.955 112.363
130.704 123.05 111.553
131.679 120.566 111.211
131.108 122.988 110.864
127.47 123.034 111.47
127.683 122.094 110.666
126.905 123.293 110.643
127.913 121.42 110.009
126.429 123.612 110.106
129.836 119.086 110.071
130.751 118.526 110.723
130.548 118.092 109.77
131.828 118.255 110.819
129.204 119.55 109.591
130.459 117.632 108.942
131.171 117.123 109.379
128.253 126.199 101.156
128.363 127.227 101.434
127.396 127.174 101.307
128.494 128.194 101.725
129.237 127.348 101.523
129.052 125.184 101.018
128.253 125.239 100.921
126.42 127.194 101.236
126.534 127.978 101.597
129.96 126.34 101.339
129.863 125.135 101.151
130.714 125.232 101.297
129.91 124.07 100.99
130.081 127.423 101.618
131.51 125.328 101.47
131.487 124.182 101.282
127.404 125.22 100.788
126.391 126.295 100.919
126.525 125.201 100.682
125.461 127.088 101.197
128.295 124.252 100.751
126.565 124.224 100.617
125.69 125.084 100.657
126.627 128.901 101.902
127.652 129.076 101.961
126.791 129.956 102.179
128.567 129.245 101.987
125.674 128.743 101.925
125.892 130.747 102.444
126.86 130.972 102.423
130.836 121.121 100.616
129.849 122.156 100.748
129.762 121.258 100.586
129.023 123.164 100.74
130.026 122.959 100.817
131.888 120.961 100.694
131.796 120.087 100.714
129.7 120.441 100.67
128.866 121.346 100.644
130.702 123.096 100.925
131.704 122.023 100.801
131.548 123.131 101.057
132.672 121.021 100.864
132.277 123.237 101.227
131.433 119.365 100.778
130.293 119.544 100.82
130.991 118.618 100.902
129.374 119.72 100.947
132.516 119.143 100.876
131.652 117.732 101.136
130.603 117.956 101.238
127.966 122.294 100.739
128.15 123.279 100.681
127.199 123.243 100.638
127.932 121.479 100.818
126.355 123.37 100.687
132.539 124.839 107.952
133.239 124.193 107.208
133.16 123.429 107.908
133.745 123.63 106.468
133.249 124.755 106.502
131.84 126.154 108.043
131.824 125.451 108.544
133.038 122.586 108.506
133.544 121.956 107.863
132.576 125.933 106.538
131.888 126.712 107.401
131.9 127.161 106.667
131.169 127.441 108.074
133.166 125.284 105.746
131.894 127.571 105.915
131.198 128.317 106.695
131.669 124.877 109.13
132.363 123.331 109.121
131.51 124.203 109.723
132.907 121.721 108.983
131.05 126.261 109.169
130.74 124.956 110.312
131.445 123.412 110.161
134.037 121.459 107.08
134.16 122.376 106.339
134.557 121.093 106.246
134.233 123.053 105.595
133.959 120.503 107.631
134.889 119.785 105.987
134.986 120.578 105.354
133.972 124.428 104.169
133.602 125.205 103.538
134.282 123.799 103.347
133.224 125.816 102.967
132.901 126.448 103.605
133.551 124.94 104.9
134.238 123.696 104.746
134.77 122.341 103.101
134.441 122.994 102.573
132.569 126.867 104.353
132.865 126.002 105.085
132.233 127.254 105.133
132.096 127.627 103.822
131.478 128.302 105.312
134.586 122.522 104.747
134.934 121.777 103.806
134.99 121.207 104.604
135.133 120.938 102.968
135.317 119.901 104.474
133.908 123.743 102.136
133.282 125.256 102.324
133.167 124.506 101.761
132.639 126.593 102.516
134.391 122.237 101.95
132.949 123.669 101.485
132.366 125.191 101.644
124.686 124.322 107.221
124.001 124.627 106.585
123.981 125.359 107.4
123.404 124.887 105.917
123.928 124.1 105.762
125.414 123.505 107.142
125.335 124.097 107.757
123.79 126.035 108.213
123.337 126.318 107.66
124.623 123.282 105.764
125.448 122.965 106.465
125.515 122.529 105.712
126.187 122.541 106.93
124.022 123.586 104.995
125.682 122.217 104.943
126.268 121.694 105.542
125.337 124.445 108.457
124.43 125.465 108.71
125.143 124.792 109.204
123.652 126.473 108.982
126.145 123.465 108.143
125.872 124.109 109.508
125.043 125.118 109.923
122.912 126.491 106.863
122.878 125.717 105.919
122.409 126.632 105.95
122.866 125.063 105.037
122.779 127.211 107.781
122.027 127.572 106.01
122.021 126.884 105.09
123.249 123.977 103.407
123.688 123.514 102.663
122.876 124.402 102.502
124.217 123.231 102.034
124.616 122.875 102.78
123.62 123.708 104.199
122.922 124.564 104.042
122.29 125.432 102.385
122.704 124.972 101.695
125.005 122.578 103.537
124.44 123.046 104.309
125.403 122.357 104.267
125.624 122.157 103.017
126.227 121.605 104.335
122.527 125.353 104.203
122.116 125.824 103.272
122.055 126.361 104.225
122.02 126.523 102.549
121.679 127.334 104.353
123.464 124.573 101.197
124.262 123.581 101.407
124.465 124.127 100.917
125.195 122.753 101.799
123.054 125.702 101.243
124.872 124.688 100.711
125.46 123.566 100.901
127.269 132.983 106.524
126.42 133.749 106
127.343 132.862 105.527
125.464 134.143 105.334
125.57 134.372 106.561
127.382 132.877 107.521
128.111 132.136 107.011
128.31 131.976 105.109
127.527 132.569 104.583
125.914 134.256 107.772
126.923 133.237 108.256
126.146 133.88 109.023
127.653 132.33 108.59
124.707 134.38 107.159
125.034 133.49 109.234
126.435 133.102 109.933
129.035 131.318 106.599
129.135 131.21 105.587
129.888 130.335 106.091
129.378 130.955 104.779
128.93 131.21 107.492
130.452 129.509 106.571
130.649 129.429 105.635
126.94 132.733 103.913
125.701 133.613 104.209
126.194 132.763 103.309
124.594 134.14 104.558
128.023 131.809 103.848
126.915 131.816 102.832
125.416 132.474 102.93
122.684 133.714 105.395
121.757 133.003 105.931
121.868 132.915 104.745
121.398 131.84 106.385
122.113 132.647 107.132
123.565 134.178 106.36
123.606 134.082 104.766
122.337 132.313 103.666
121.401 131.668 104.203
122.966 132.998 107.959
123.723 133.921 107.554
123.983 133.342 108.734
122.735 131.968 108.231
124.501 132.571 109.663
123.988 133.522 103.698
123.304 132.401 103.17
124.505 132.38 102.944
123.016 131.367 103.133
125.042 131.427 102.676
120.944 130.574 104.663
121.043 130.661 106.025
121.136 129.416 105.388
121.492 130.684 106.997
121.446 130.288 103.788
121.351 128.417 104.771
121.556 128.625 105.938
133.346 113.772 104.317
134.761 113.278 105.293
134.872 113.352 103.373
135.349 114.606 105.811
134.363 114.144 106.516
132.414 114.452 104.986
132.464 114.359 103.75
134.75 114.316 102.217
135.928 114.502 102.952
133.204 114.634 107.131
132.266 114.926 106.184
132.068 115.482 107.367
131.467 115.51 105.549
133.897 115.116 107.803
131.719 116.064 108.391
130.942 116.379 107.407
132.245 114.92 102.747
133.467 114.984 101.99
132.112 115.968 101.992
134.434 115.531 101.573
131.548 115.31 103.557
131.045 116.512 102.044
132.169 116.704 101.465
135.951 115.905 103.865
135.476 116.021 105.382
135.504 117.516 104.913
135 116.256 106.526
136.041 116.115 102.701
135.524 118.396 104.372
135.132 118.503 105.662
129.313 117.489 105.124
130.006 116.531 104.599
129.263 117.446 104.282
130.731 115.825 104.026
130.735 115.974 105.084
129.4 117.735 105.982
128.871 118.496 105.649
128.759 118.379 104.002
129.21 117.532 103.519
130.632 116.268 105.984
129.878 117.249 106.433
130.402 116.794 107.027
129.5 118.181 106.918
130.437 117.199 108.083
128.308 119.305 105.3
128.241 119.27 104.392
127.706 120.077 104.856
128.163 119.311 103.648
128.377 119.409 106.129
127.143 120.742 105.306
127.078 120.775 104.506
129.676 117.134 102.98
130.503 116.042 103.217
130.276 116.746 102.43
129.045 117.986 102.678
130.357 117.4 101.746
128.951 129.369 109.969
129.005 130.031 109.114
129.712 128.753 109.222
128.961 130.685 108.277
128.341 131.199 108.954
128.31 129.931 110.692
128.874 128.63 110.75
130.319 127.648 109.342
130.373 128.306 108.662
127.751 131.705 109.53
127.736 130.985 110.544
127.149 132.226 110.324
129.506 127.488 110.633
130.325 126.91 109.831
130.167 126.167 110.463
130.461 128.678 107.993
129.682 130.004 107.792
130.476 129.119 107.244
130.118 130.023 103.129
130.322 129.197 102.3
131.062 128.813 102.767
130.338 128.262 101.922
129.482 129.39 102.143
129.091 131.002 103.462
129.804 130.524 104.003
131.592 128.375 103.316
131.889 127.721 102.503
128.648 130.153 102.349
128.469 131.146 102.995
127.728 131.03 102.595
130.377 129.884 104.413
131.234 128.697 104.069
130.912 129.017 104.925
131.922 127.011 102.004
130.94 127.211 101.71
131.689 126.164 101.66
133.069 118.522 109.616
133.464 119.001 108.872
133.755 117.463 108.701
133.798 119.503 108.186
133.113 120.381 109.032
132.381 119.566 110.378
132.708 118.109 110.278
133.958 116.111 108.474
134.454 116.745 107.685
132.479 121.33 109.631
132.07 120.863 110.457
131.784 122.217 110.285
132.393 117.293 110.131
133.107 116.106 109.119
131.896 116.547 109.224
134.627 117.557 107.038
134.246 119.175 107.415
134.724 118.799 106.529
134.932 119.409 101.536
134.331 119.024 101.103
135.167 117.839 101.405
133.529 118.853 100.997
133.492 120.268 101.108
134.489 120.915 101.75
135.251 119.904 102.242
135.797 116.937 102.047
134.953 116.503 101.33
133.249 121.443 101.075
133.936 121.898 101.44
133.011 122.627 101.313
135.395 119.731 102.956
135.742 117.89 102.867
135.524 119.109 103.788
133.818 116.781 101.253
133.051 118.185 101.059
132.508 117.387 101.231
123.557 129.04 109.828
123.006 128.632 109.088
122.716 129.792 108.835
122.646 128.203 108.348
123.35 127.539 109.344
124.334 128.2 110.746
124.21 129.421 110.458
122.66 130.928 108.523
121.986 130.339 107.837
123.828 126.656 109.716
124.284 127.085 110.604
124.579 125.938 110.249
124.158 130.419 110.218
123.416 131.246 109.244
124.32 131.588 109.949
121.842 129.345 107.348
122.414 128.03 107.566
121.969 128.319 106.662
123.012 127.858 102.042
123.786 128.275 102.017
122.971 129.043 102.627
124.549 128.611 102.06
124.559 127.549 101.573
123.103 126.753 101.492
122.369 127.385 102.235
122.163 129.742 103.221
122.973 130.289 102.954
124.733 126.589 101.057
123.828 126.087 101.036
124.811 125.542 100.814
121.917 127.611 102.98
121.678 128.99 103.472
121.577 128.009 103.914
123.932 130.344 102.728
124.906 129.344 102.299
124.998 130.403 102.531
127.527 121.399 107.81
128.174 120.806 108.42
128.193 120.403 107.51
128.726 120.137 109.016
128.005 121.124 109.258
126.952 122.375 108.018
126.927 121.929 107.296
128.252 119.896 106.782
128.787 119.437 107.267
127.309 122.155 109.295
126.781 122.831 108.597
126.576 123.196 109.406
126.856 121.501 106.637
127.643 120.484 106.334
126.926 121.12 105.88
129.318 118.921 107.528
129.273 119.343 108.527
129.852 118.263 108.215
127.687 120.493 101.707
126.955 121.099 102.182
127.771 120.061 102.372
126.269 121.585 102.6
126.064 121.892 101.967
127.768 120.944 101.166
128.491 120.042 101.295
128.448 119.043 102.516
127.949 119.663 103.015
125.999 122.239 101.454
126.997 121.852 101.106
126.151 122.744 100.926
129.067 119.215 101.429
128.917 118.603 102.032
129.715 118.233 101.545
127.491 120.374 103.409
126.551 121.334 103.193
126.836 121.046 103.872
POLYGONS 1280  5120
3 164 162 163
3 163 44 164
3 162 43 163
3 164 42 162
3 166 165 163
3 163 43 166
3 165 44 163
3 166 14 165
3 168 167 162
3 162 42 168
3 167 43 162
3 168 13 167
3 170 169 164
3 164 44 170
3 169 42 164
3 170 12 169
3 173 171 172
3 172 46 173
3 171 43 172
3 173 45 171
3 167 174 172
3 172 43 167
3 174 46 172
3 167 13 174
3 175 166 171
3 171 45 175
3 166 43 171
3 175 14 166
3 177 176 173
3 173 46 177
3 176 45 173
3 177 4 176
3 180 178 179
3 179 48 180
3 178 42 179
3 180 47 178
3 169 181 179
3 179 42 169
3 181 48 179
3 169 12 181
3 182 168 178
3 178 47 182
3 168 42 178
3 182 13 168
3 184 183 180
3 180 48 184
3 183 47 180
3 184 8 183
3 187 185 186
3 186 50 187
3 185 44 186
3 187 49 185
3 165 188 186
3 186 44 165
3 188 50 186
3 165 14 188
3 189 170 185
3 185 49 189
3 170 44 185
3 189 12 170
3 191 190 187
3 187 50 191
3 190 49 187
3 191 7 190
3 194 192 193
3 193 53 194
3 192 52 193
3 194 51 192
3 196 195 193
3 193 52 196
3 195 53 193
3 196 16 195
3 198 197 192
3 192 51 198
3 197 52 192
3 198 14 197
3 200 199 194
3 194 53 200
3 199 51 194
3 200 15 199
3 203 201 202
3 202 45 203
3 201 52 202
3 203 54 201
3 197 175 202
3 202 52 197
3 175 45 202
3 197 14 175
3 204 196 201
3 201 54 204
3 196 52 201
3 204 16 196
3 176 205 203
3 203 45 176
3 205 54 203
3 176 4 205
3 208 206 207
3 207 55 208
3 206 51 207
3 208 50 206
3 199 209 207
3 207 51 199
3 209 55 207
3 199 15 209
3 188 198 206
3 206 50 188
3 198 51 206
3 188 14 198
3 210 191 208
3 208 55 210
3 191 50 208
3 210 7 191
3 213 211 212
3 212 57 213
3 211 53 212
3 213 56 211
3 195 214 212
3 212 53 195
3 214 57 212
3 195 16 214
3 215 200 211
3 211 56 215
3 200 53 211
3 215 15 200
3 217 216 213
3 213 57 217
3 216 56 213
3 217 9 216
3 220 218 219
3 219 60 220
3 218 59 219
3 220 58 218
3 222 221 219
3 219 59 222
3 221 60 219
3 222 19 221
3 224 223 218
3 218 58 224
3 223 59 218
3 224 18 223
3 226 225 220
3 220 60 226
3 225 58 220
3 226 17 225
3 229 227 228
3 228 62 229
3 227 59 228
3 229 61 227
3 223 230 228
3 228 59 223
3 230 62 228
3 223 18 230
3 231 222 227
3 227 61 231
3 222 59 227
3 231 19 222
3 233 232 229
3 229 62 233
3 232 61 229
3 233 5 232
3 236 234 235
3 235 64 236
3 234 58 235
3 236 63 234
3 225 237 235
3 235 58 225
3 237 64 235
3 225 17 237
3 238 224 234
3 234 63 238
3 224 58 234
3 238 18 224
3 240 239 236
3 236 64 240
3 239 63 236
3 240 6 239
3 243 241 242
3 242 66 243
3 241 60 242
3 243 65 241
3 221 244 242
3 242 60 221
3 244 66 242
3 221 19 244
3 245 226 241
3 241 65 245
3 226 60 241
3 245 17 226
3 247 246 243
3 243 66 247
3 246 65 243
3 247 11 246
3 250 248 249
3 249 69 250
3 248 68 249
3 250 67 248
3 252 251 249
3 249 68 252
3 251 69 249
3 252 18 251
3 254 253 248
3 248 67 254
3 253 68 248
3 254 21 253
3 256 255 250
3 250 69 256
3 255 67 250
3 256 20 255
3 259 257 258
3 258 70 259
3 257 68 258
3 259 62 257
3 253 260 258
3 258 68 253
3 260 70 258
3 253 21 260
3 230 252 257
3 257 62 230
3 252 68 257
3 230 18 252
3 261 233 259
3 259 70 261
3 233 62 259
3 261 5 233
3 264 262 263
3 263 72 264
3 262 67 263
3 264 71 262
3 255 265 263
3 263 67 255
3 265 72 263
3 255 20 265
3 266 254 262
3 262 71 266
3 254 67 262
3 266 21 254
3 268 267 264
3 264 72 268
3 267 71 264
3 268 10 267
3 271 269 270
3 270 63 271
3 269 69 270
3 271 73 269
3 251 238 270
3 270 69 251
3 238 63 270
3 251 18 238
3 272 256 269
3 269 73 272
3 256 69 269
3 272 20 256
3 239 273 271
3 271 63 239
3 273 73 271
3 239 6 273
3 276 274 275
3 275 76 276
3 274 75 275
3 276 74 274
3 278 277 275
3 275 75 278
3 277 76 275
3 278 24 277
3 280 279 274
3 274 74 280
3 279 75 274
3 280 23 279
3 282 281 276
3 276 76 282
3 281 74 276
3 282 22 281
3 285 283 284
3 284 78 285
3 283 75 284
3 285 77 283
3 279 286 284
3 284 75 279
3 286 78 284
3 279 23 286
3 287 278 283
3 283 77 287
3 278 75 283
3 287 24 278
3 289 288 285
3 285 78 289
3 288 77 285
3 289 0 288
3 292 290 291
3 291 80 292
3 290 74 291
3 292 79 290
3 281 293 291
3 291 74 281
3 293 80 291
3 281 22 293
3 294 280 290
3 290 79 294
3 280 74 290
3 294 23 280
3 296 295 292
3 292 80 296
3 295 79 292
3 296 4 295
3 299 297 298
3 298 82 299
3 297 76 298
3 299 81 297
3 277 300 298
3 298 76 277
3 300 82 298
3 277 24 300
3 301 282 297
3 297 81 301
3 282 76 297
3 301 22 282
3 303 302 299
3 299 82 303
3 302 81 299
3 303 3 302
3 306 304 305
3 305 85 306
3 304 84 305
3 306 83 304
3 308 307 305
3 305 84 308
3 307 85 305
3 308 26 307
3 310 309 304
3 304 83 310
3 309 84 304
3 310 24 309
3 312 311 306
3 306 85 312
3 311 83 306
3 312 25 311
3 315 313 314
3 314 77 315
3 313 84 314
3 315 86 313
3 309 287 314
3 314 84 309
3 287 77 314
3 309 24 287
3 316 308 313
3 313 86 316
3 308 84 313
3 316 26 308
3 288 317 315
3 315 77 288
3 317 86 315
3 288 0 317
3 320 318 319
3 319 87 320
3 318 83 319
3 320 82 318
3 311 321 319
3 319 83 311
3 321 87 319
3 311 25 321
3 300 310 318
3 318 82 300
3 310 83 318
3 300 24 310
3 322 303 320
3 320 87 322
3 303 82 320
3 322 3 303
3 325 323 324
3 324 89 325
3 323 85 324
3 325 88 323
3 307 326 324
3 324 85 307
3 326 89 324
3 307 26 326
3 327 312 323
3 323 88 327
3 312 85 323
3 327 25 312
3 329 328 325
3 325 89 329
3 328 88 325
3 329 5 328
3 332 330 331
3 331 92 332
3 330 91 331
3 332 90 330
3 334 333 331
3 331 91 334
3 333 92 331
3 334 29 333
3 336 335 330
3 330 90 336
3 335 91 330
3 336 28 335
3 338 337 332
3 332 92 338
3 337 90 332
3 338 27 337
3 341 339 340
3 340 94 341
3 339 91 340
3 341 93 339
3 335 342 340
3 340 91 335
3 342 94 340
3 335 28 342
3 343 334 339
3 339 93 343
3 334 91 339
3 343 29 334
3 345 344 341
3 341 94 345
3 344 93 341
3 345 2 344
3 348 346 347
3 347 96 348
3 346 90 347
3 348 95 346
3 337 349 347
3 347 90 337
3 349 96 347
3 337 27 349
3 350 336 346
3 346 95 350
3 336 90 346
3 350 28 336
3 352 351 348
3 348 96 352
3 351 95 348
3 352 7 351
3 355 353 354
3 354 98 355
3 353 92 354
3 355 97 353
3 333 356 354
3 354 92 333
3 356 98 354
3 333 29 356
3 357 338 353
3 353 97 357
3 338 92 353
3 357 27 338
3 359 358 355
3 355 98 359
3 358 97 355
3 359 1 358
3 362 360 361
3 361 101 362
3 360 100 361
3 362 99 360
3 364 363 361
3 361 100 364
3 363 101 361
3 364 31 363
3 366 365 360
3 360 99 366
3 365 100 360
3 366 29 365
3 368 367 362
3 362 101 368
3 367 99 362
3 368 30 367
3 371 369 370
3 370 93 371
3 369 100 370
3 371 102 369
3 365 343 370
3 370 100 365
3 343 93 370
3 365 29 343
3 372 364 369
3 369 102 372
3 364 100 369
3 372 31 364
3 344 373 371
3 371 93 344
3 373 102 371
3 344 2 373
3 376 374 375
3 375 103 376
3 374 99 375
3 376 98 374
3 367 377 375
3 375 99 367
3 377 103 375
3 367 30 377
3 356 366 374
3 374 98 356
3 366 99 374
3 356 29 366
3 378 359 376
3 376 103 378
3 359 98 376
3 378 1 359
3 381 379 380
3 380 105 381
3 379 101 380
3 381 104 379
3 363 382 380
3 380 101 363
3 382 105 380
3 363 31 382
3 383 368 379
3 379 104 383
3 368 101 379
3 383 30 368
3 385 384 381
3 381 105 385
3 384 104 381
3 385 6 384
3 388 386 387
3 387 108 388
3 386 107 387
3 388 106 386
3 390 389 387
3 387 107 390
3 389 108 387
3 390 34 389
3 392 391 386
3 386 106 392
3 391 107 386
3 392 33 391
3 394 393 388
3 388 108 394
3 393 106 388
3 394 32 393
3 397 395 396
3 396 110 397
3 395 107 396
3 397 109 395
3 391 398 396
3 396 107 391
3 398 110 396
3 391 33 398
3 399 390 395
3 395 109 399
3 390 107 395
3 399 34 390
3 401 400 397
3 397 110 401
3 400 109 397
3 401 8 400
3 404 402 403
3 403 112 404
3 402 106 403
3 404 111 402
3 393 405 403
3 403 106 393
3 405 112 403
3 393 32 405
3 406 392 402
3 402 111 406
3 392 106 402
3 406 33 392
3 408 407 404
3 404 112 408
3 407 111 404
3 408 0 407
3 411 409 410
3 410 114 411
3 409 108 410
3 411 113 409
3 389 412 410
3 410 108 389
3 412 114 410
3 389 34 412
3 413 394 409
3 409 113 413
3 394 108 409
3 413 32 394
3 415 414 411
3 411 114 415
3 414 113 411
3 415 11 414
3 418 416 417
3 417 117 418
3 416 116 417
3 418 115 416
3 420 419 417
3 417 116 420
3 419 117 417
3 420 36 419
3 422 421 416
3 416 115 422
3 421 116 416
3 422 34 421
3 424 423 418
3 418 117 424
3 423 115 418
3 424 35 423
3 427 425 426
3 426 109 427
3 425 116 426
3 427 118 425
3 421 399 426
3 426 116 421
3 399 109 426
3 421 34 399
3 428 420 425
3 425 118 428
3 420 116 425
3 428 36 420
3 400 429 427
3 427 109 400
3 429 118 427
3 400 8 429
3 432 430 431
3 431 119 432
3 430 115 431
3 432 114 430
3 423 433 431
3 431 115 423
3 433 119 431
3 423 35 433
3 412 422 430
3 430 114 412
3 422 115 430
3 412 34 422
3 434 415 432
3 432 119 434
3 415 114 432
3 434 11 415
3 437 435 436
3 436 121 437
3 435 117 436
3 437 120 435
3 419 438 436
3 436 117 419
3 438 121 436
3 419 36 438
3 439 424 435
3 435 120 439
3 424 117 435
3 439 35 424
3 441 440 437
3 437 121 441
3 440 120 437
3 441 1 440
3 444 442 443
3 443 124 444
3 442 123 443
3 444 122 442
3 446 445 443
3 443 123 446
3 445 124 443
3 446 39 445
3 448 447 442
3 442 122 448
3 447 123 442
3 448 38 447
3 450 449 444
3 444 124 450
3 449 122 444
3 450 37 449
3 453 451 452
3 452 126 453
3 451 123 452
3 453 125 451
3 447 454 452
3 452 123 447
3 454 126 452
3 447 38 454
3 455 446 451
3 451 125 455
3 446 123 451
3 455 39 446
3 457 456 453
3 453 126 457
3 456 125 453
3 457 9 456
3 460 458 459
3 459 128 460
3 458 122 459
3 460 127 458
3 449 461 459
3 459 122 449
3 461 128 459
3 449 37 461
3 462 448 458
3 458 127 462
3 448 122 458
3 462 38 448
3 464 463 460
3 460 128 464
3 463 127 460
3 464 10 463
3 467 465 466
3 466 130 467
3 465 124 466
3 467 129 465
3 445 468 466
3 466 124 445
3 468 130 466
3 445 39 468
3 469 450 465
3 465 129 469
3 450 124 465
3 469 37 450
3 471 470 467
3 467 130 471
3 470 129 467
3 471 3 470
3 474 472 473
3 473 133 474
3 472 132 473
3 474 131 472
3 476 475 473
3 473 132 476
3 475 133 473
3 476 38 475
3 478 477 472
3 472 131 478
3 477 132 472
3 478 41 477
3 480 479 474
3 474 133 480
3 479 131 474
3 480 40 479
3 483 481 482
3 482 134 483
3 481 132 482
3 483 126 481
3 477 484 482
3 482 132 477
3 484 134 482
3 477 41 484
3 454 476 481
3 481 126 454
3 476 132 481
3 454 38 476
3 485 457 483
3 483 134 485
3 457 126 483
3 485 9 457
3 488 486 487
3 487 136 488
3 486 131 487
3 488 135 486
3 479 489 487
3 487 131 479
3 489 136 487
3 479 40 489
3 490 478 486
3 486 135 490
3 478 131 486
3 490 41 478
3 492 491 488
3 488 136 492
3 491 135 488
3 492 2 491
3 495 493 494
3 494 127 495
3 493 133 494
3 495 137 493
3 475 462 494
3 494 133 475
3 462 127 494
3 475 38 462
3 496 480 493
3 493 137 496
3 480 133 493
3 496 40 480
3 463 497 495
3 495 127 463
3 497 137 495
3 463 10 497
3 500 498 499
3 499 140 500
3 498 139 499
3 500 138 498
3 502 501 499
3 499 139 502
3 501 140 499
3 502 33 501
3 504 503 498
3 498 138 504
3 503 139 498
3 504 13 503
3 506 505 500
3 500 140 506
3 505 138 500
3 506 23 505
3 509 507 508
3 508 47 509
3 507 139 508
3 509 110 507
3 503 182 508
3 508 139 503
3 182 47 508
3 503 13 182
3 398 502 507
3 507 110 398
3 502 139 507
3 398 33 502
3 183 401 509
3 509 47 183
3 401 110 509
3 183 8 401
3 512 510 511
3 511 79 512
3 510 138 511
3 512 46 510
3 505 294 511
3 511 138 505
3 294 79 511
3 505 23 294
3 174 504 510
3 510 46 174
3 504 138 510
3 174 13 504
3 295 177 512
3 512 79 295
3 177 46 512
3 295 4 177
3 515 513 514
3 514 111 515
3 513 140 514
3 515 78 513
3 501 406 514
3 514 140 501
3 406 111 514
3 501 33 406
3 286 506 513
3 513 78 286
3 506 140 513
3 286 23 506
3 407 289 515
3 515 111 407
3 289 78 515
3 407 0 289
3 518 516 517
3 517 143 518
3 516 142 517
3 518 141 516
3 520 519 517
3 517 142 520
3 519 143 517
3 520 19 519
3 522 521 516
3 516 141 522
3 521 142 516
3 522 32 521
3 524 523 518
3 518 143 524
3 523 141 518
3 524 26 523
3 527 525 526
3 526 113 527
3 525 142 526
3 527 66 525
3 521 413 526
3 526 142 521
3 413 113 526
3 521 32 413
3 244 520 525
3 525 66 244
3 520 142 525
3 244 19 520
3 414 247 527
3 527 113 414
3 247 66 527
3 414 11 247
3 530 528 529
3 529 86 530
3 528 141 529
3 530 112 528
3 523 316 529
3 529 141 523
3 316 86 529
3 523 26 316
3 405 522 528
3 528 112 405
3 522 141 528
3 405 32 522
3 317 408 530
3 530 86 317
3 408 112 530
3 317 0 408
3 533 531 532
3 532 61 533
3 531 143 532
3 533 89 531
3 519 231 532
3 532 143 519
3 231 61 532
3 519 19 231
3 326 524 531
3 531 89 326
3 524 143 531
3 326 26 524
3 232 329 533
3 533 61 232
3 329 89 533
3 232 5 329
3 536 534 535
3 535 146 536
3 534 145 535
3 536 144 534
3 538 537 535
3 535 145 538
3 537 146 535
3 538 22 537
3 540 539 534
3 534 144 540
3 539 145 534
3 540 16 539
3 542 541 536
3 536 146 542
3 541 144 536
3 542 39 541
3 545 543 544
3 544 54 545
3 543 145 544
3 545 80 543
3 539 204 544
3 544 145 539
3 204 54 544
3 539 16 204
3 293 538 543
3 543 80 293
3 538 145 543
3 293 22 538
3 205 296 545
3 545 54 205
3 296 80 545
3 205 4 296
3 548 546 547
3 547 125 548
3 546 144 547
3 548 57 546
3 541 455 547
3 547 144 541
3 455 125 547
3 541 39 455
3 214 540 546
3 546 57 214
3 540 144 546
3 214 16 540
3 456 217 548
3 548 125 456
3 217 57 548
3 456 9 217
3 551 549 550
3 550 81 551
3 549 146 550
3 551 130 549
3 537 301 550
3 550 146 537
3 301 81 550
3 537 22 301
3 468 542 549
3 549 130 468
3 542 146 549
3 468 39 542
3 302 471 551
3 551 81 302
3 471 130 551
3 302 3 471
3 554 552 553
3 553 149 554
3 552 148 553
3 554 147 552
3 556 555 553
3 553 148 556
3 555 149 553
3 556 21 555
3 558 557 552
3 552 147 558
3 557 148 552
3 558 25 557
3 560 559 554
3 554 149 560
3 559 147 554
3 560 37 559
3 563 561 562
3 562 88 563
3 561 148 562
3 563 70 561
3 557 327 562
3 562 148 557
3 327 88 562
3 557 25 327
3 260 556 561
3 561 70 260
3 556 148 561
3 260 21 556
3 328 261 563
3 563 88 328
3 261 70 563
3 328 5 261
3 566 564 565
3 565 129 566
3 564 147 565
3 566 87 564
3 559 469 565
3 565 147 559
3 469 129 565
3 559 37 469
3 321 558 564
3 564 87 321
3 558 147 564
3 321 25 558
3 470 322 566
3 566 129 470
3 322 87 566
3 470 3 322
3 569 567 568
3 568 71 569
3 567 149 568
3 569 128 567
3 555 266 568
3 568 149 555
3 266 71 568
3 555 21 266
3 461 560 567
3 567 128 461
3 560 149 567
3 461 37 560
3 267 464 569
3 569 71 267
3 464 128 569
3 267 10 464
3 572 570 571
3 571 152 572
3 570 151 571
3 572 150 570
3 574 573 571
3 571 151 574
3 573 152 571
3 574 27 573
3 576 575 570
3 570 150 576
3 575 151 570
3 576 12 575
3 578 577 572
3 572 152 578
3 577 150 572
3 578 36 577
3 581 579 580
3 580 49 581
3 579 151 580
3 581 96 579
3 575 189 580
3 580 151 575
3 189 49 580
3 575 12 189
3 349 574 579
3 579 96 349
3 574 151 579
3 349 27 574
3 190 352 581
3 581 49 190
3 352 96 581
3 190 7 352
3 584 582 583
3 583 118 584
3 582 150 583
3 584 48 582
3 577 428 583
3 583 150 577
3 428 118 583
3 577 36 428
3 181 576 582
3 582 48 181
3 576 150 582
3 181 12 576
3 429 184 584
3 584 118 429
3 184 48 584
3 429 8 184
3 587 585 586
3 586 97 587
3 585 152 586
3 587 121 585
3 573 357 586
3 586 152 573
3 357 97 586
3 573 27 357
3 438 578 585
3 585 121 438
3 578 152 585
3 438 36 578
3 358 441 587
3 587 97 358
3 441 121 587
3 358 1 441
3 590 588 589
3 589 155 590
3 588 154 589
3 590 153 588
3 592 591 589
3 589 154 592
3 591 155 589
3 592 17 591
3 594 593 588
3 588 153 594
3 593 154 588
3 594 30 593
3 596 595 590
3 590 155 596
3 595 153 590
3 596 35 595
3 599 597 598
3 598 104 599
3 597 154 598
3 599 64 597
3 593 383 598
3 598 154 593
3 383 104 598
3 593 30 383
3 237 592 597
3 597 64 237
3 592 154 597
3 237 17 592
3 384 240 599
3 599 104 384
3 240 64 599
3 384 6 240
3 602 600 601
3 601 120 602
3 600 153 601
3 602 103 600
3 595 439 601
3 601 153 595
3 439 120 601
3 595 35 439
3 377 594 600
3 600 103 377
3 594 153 600
3 377 30 594
3 440 378 602
3 602 120 440
3 378 103 602
3 440 1 378
3 605 603 604
3 604 65 605
3 603 155 604
3 605 119 603
3 591 245 604
3 604 155 591
3 245 65 604
3 591 17 245
3 433 596 603
3 603 119 433
3 596 155 603
3 433 35 596
3 246 434 605
3 605 65 246
3 434 119 605
3 246 11 434
3 608 606 607
3 607 158 608
3 606 157 607
3 608 156 606
3 610 609 607
3 607 157 610
3 609 158 607
3 610 15 609
3 612 611 606
3 606 156 612
3 611 157 606
3 612 28 611
3 614 613 608
3 608 158 614
3 613 156 608
3 614 41 613
3 617 615 616
3 616 95 617
3 615 157 616
3 617 55 615
3 611 350 616
3 616 157 611
3 350 95 616
3 611 28 350
3 209 610 615
3 615 55 209
3 610 157 615
3 209 15 610
3 351 210 617
3 617 95 351
3 210 55 617
3 351 7 210
3 620 618 619
3 619 135 620
3 618 156 619
3 620 94 618
3 613 490 619
3 619 156 613
3 490 135 619
3 613 41 490
3 342 612 618
3 618 94 342
3 612 156 618
3 342 28 612
3 491 345 620
3 620 135 491
3 345 94 620
3 491 2 345
3 623 621 622
3 622 56 623
3 621 158 622
3 623 134 621
3 609 215 622
3 622 158 609
3 215 56 622
3 609 15 215
3 484 614 621
3 621 134 484
3 614 158 621
3 484 41 614
3 216 485 623
3 623 56 216
3 485 134 623
3 216 9 485
3 626 624 625
3 625 161 626
3 624 160 625
3 626 159 624
3 628 627 625
3 625 160 628
3 627 161 625
3 628 31 627
3 630 629 624
3 624 159 630
3 629 160 624
3 630 20 629
3 632 631 626
3 626 161 632
3 631 159 626
3 632 40 631
3 635 633 634
3 634 73 635
3 633 160 634
3 635 105 633
3 629 272 634
3 634 160 629
3 272 73 634
3 629 20 272
3 382 628 633
3 633 105 382
3 628 160 633
3 382 31 628
3 273 385 635
3 635 73 273
3 385 105 635
3 273 6 385
3 638 636 637
3 637 137 638
3 636 159 637
3 638 72 636
3 631 496 637
3 637 159 631
3 496 137 637
3 631 40 496
3 265 630 636
3 636 72 265
3 630 159 636
3 265 20 630
3 497 268 638
3 638 137 497
3 268 72 638
3 497 10 268
3 641 639 640
3 640 102 641
3 639 161 640
3 641 136 639
3 627 372 640
3 640 161 627
3 372 102 640
3 627 31 372
3 489 632 639
3 639 136 489
3 632 161 639
3 489 40 632
3 373 492 641
3 641 102 373
3 492 136 641
3 373 2 492
