# vtk DataFile Version 3.0
this file was written using fslvtkio
ASCII
DATASET POLYDATA
POINTS 642 float
141.345 130.502 92.118
127.625 127.325 91.3114
128.565 121.972 89.8191
140.692 124.696 89.5268
137.205 123.954 94.8304
139.931 129.235 83.9933
131.321 127.241 85.0806
129.804 121.421 95.4802
133.808 127.825 94.8392
134.583 119.503 91.7987
135.316 124.599 87.6889
134.689 130.217 88.4149
131.13 124.905 96.2628
135.621 126.007 95.255
133.837 122.059 96.4806
131.867 118.611 94.3161
136.5 120.753 94.135
132.81 129.678 85.7269
135.323 128.451 83.3897
137.605 131.154 85.3104
133.573 125.954 86.0216
137.826 126.297 84.8413
139.483 124.178 92.3642
139.701 127.083 93.8057
142.181 127.795 90.471
141.381 126.97 86.4965
141.716 131.109 87.501
127.698 124.193 93.8783
127.43 119.968 92.2633
126.586 124.479 89.8311
128.667 127.839 87.6486
129.666 125.232 87.7679
138.371 131.051 90.1404
137.79 129.554 94.4258
134.292 129.598 92.0099
130.88 129.115 89.8003
130.431 127.41 93.3429
138.227 124.836 88.3596
134.548 122.021 89.7359
138.007 121.763 90.7262
131.958 123.513 89.2969
130.84 119.441 90.6718
133.445 125.329 96.0476
134.695 124.04 96.4844
132.527 123.486 96.9892
135.786 123.056 95.847
136.552 124.965 95.2258
134.756 126.994 95.1691
132.417 126.454 95.5636
130.15 123.157 96.2201
131.573 121.499 96.4549
132.825 119.834 96.1068
135.316 121.118 95.663
134.4 119.332 94.7444
137.227 122.308 94.7283
130.523 119.66 95.2264
133.524 118.605 93.0091
135.964 119.537 92.8387
133.932 129.542 83.8337
136.405 130.32 83.4086
135.045 130.478 85.1202
139.122 130.75 84.1217
137.831 129.017 83.3674
133.123 127.87 84.0383
131.813 128.7 85.0318
133.769 130.158 86.953
136.055 130.784 86.9241
135.686 126.177 85.2627
136.85 127.361 83.8595
134.447 126.884 84.2703
139.247 127.582 83.8049
136.489 125.619 86.45
134.579 125.255 86.8247
132.392 126.573 85.2937
139.952 125.807 93.0507
141.314 127.547 92.305
141.019 126.027 91.5738
142.135 129.441 91.3483
140.883 128.891 93.4058
138.265 125.618 94.0695
138.446 124.052 93.7202
140.327 124.304 90.9303
141.627 126.005 89.9434
142.195 127.641 88.427
142.627 129.536 89.0423
142.124 129.156 86.8149
141.831 131.006 90.0171
141.125 125.787 88.214
141.137 128.224 84.7366
141.108 130.428 85.3594
127.114 122.06 93.1746
125.973 121.781 91.0737
126.644 124.009 91.8975
127.19 122.661 89.6904
127.375 120.305 90.2344
128.555 120.469 94.1748
128.642 122.805 94.7727
127.401 125.858 92.7105
126.828 126.106 90.6324
126.931 126.524 88.5393
127.917 124.855 88.7905
128.399 126.239 86.8708
129.038 123.641 89.2232
127.663 127.794 89.5443
129.805 127.693 85.9515
130.374 126.075 86.0958
138.177 130.634 92.5022
136.143 129.706 93.2058
136.378 130.45 91.2223
134.019 128.948 93.7201
135.786 128.791 94.9658
139.832 130.281 93.6533
140.159 131.102 91.2987
136.488 130.666 89.0545
134.518 130.048 90.182
132.458 129.433 91.0233
132.143 128.786 92.954
130.405 128.674 91.9288
132.068 127.543 94.3034
132.897 129.641 89.0584
128.873 128.566 90.6133
128.569 127.599 92.6467
136.57 123.459 89.1914
136.354 121.816 90.0553
138.239 123.367 89.7691
136.326 120.445 91.3284
134.505 120.455 90.4442
135.032 123.61 88.9349
136.809 124.916 87.9598
139.625 124.672 88.9093
139.676 123.171 90.1549
131.326 121.555 89.9312
132.703 120.851 90.122
133.167 122.773 89.6943
132.742 119.237 91.2231
129.383 120.534 89.9731
130.182 122.727 89.7893
133.719 124.24 88.5626
137.632 126.666 94.5254
136.958 127.695 95.157
139.11 128.418 94.6364
140.128 131.483 88.7457
138.15 131.346 87.6484
139.928 131.632 86.197
137.646 120.849 92.4613
138.005 122.275 93.3527
139.1 122.442 91.8671
139.945 125.859 87.2927
139.852 126.609 85.4687
138.28 125.966 86.7037
130.405 126.105 95.051
128.875 124.67 95.5683
128.643 126.077 94.1358
129.57 128.751 88.6225
130.727 128.741 86.8118
131.795 129.489 87.6842
128.961 118.956 91.2734
129.44 118.691 93.347
131.128 118.275 92.3387
132.715 124.818 87.7313
131.634 125.5 87.009
130.877 124.35 88.6155
134.05 124.763 96.2456
133.67 123.773 96.9666
132.947 124.566 96.5567
133.205 122.763 96.9164
134.311 123.201 96.7611
135.055 124.967 95.7972
134.551 125.606 95.6566
132.319 125.148 96.2505
131.842 124.323 96.6666
135.247 123.638 96.3843
135.644 124.483 95.8898
136.127 123.982 95.7043
136.05 125.427 95.3233
134.912 122.535 96.3264
136.552 123.553 95.3079
136.903 124.406 95.0253
134.035 126.183 95.5261
132.937 125.913 95.837
133.566 126.657 95.3548
131.779 125.685 95.9121
135.172 126.58 95.2658
134.299 127.387 94.9788
133.196 127.148 95.0469
131.427 123.337 96.6112
132.132 122.507 96.7081
131.023 122.437 96.3799
132.752 121.683 96.5156
130.602 124.064 96.3678
130.012 122.302 95.7898
130.621 121.393 95.9953
134.147 120.386 95.9215
134.925 120.06 95.4106
133.619 119.31 95.5842
135.635 119.907 94.5797
135.94 120.799 95.0234
134.575 121.435 96.2377
133.437 120.927 96.3638
132.359 119.015 95.3206
133.047 118.85 94.685
136.349 121.727 95.1699
135.585 122.009 95.9588
136.529 122.554 95.338
136.958 121.514 94.5264
137.176 123.094 94.6991
132.222 120.649 96.3939
131.543 119.576 95.8323
131.097 120.468 95.9739
131.15 118.896 94.8942
130.074 120.462 95.4759
133.983 118.826 94.1173
135.342 119.352 93.9247
134.72 118.93 93.0948
136.412 119.945 93.6108
132.644 118.478 93.7561
134.095 119.075 92.3619
135.22 119.463 92.3492
135.075 130.032 83.438
135.706 130.587 84.1873
134.456 130.148 84.3412
136.284 130.896 85.0824
137.017 130.967 84.2351
135.803 129.389 83.1751
134.527 128.957 83.271
133.421 129.681 84.7313
133.959 130.069 85.3207
137.759 130.587 83.6254
137.13 129.696 83.1798
138.489 130.032 83.3867
136.541 128.736 83.3124
138.336 131.128 84.5827
139.669 130.068 83.8666
139.061 129.126 83.5673
133.558 128.748 83.7807
132.976 129.106 84.447
132.416 128.412 84.333
132.404 129.131 85.3796
134.136 128.161 83.5783
132.084 127.498 84.5215
131.457 127.934 84.894
134.383 130.374 86.0476
135.602 130.728 85.9718
134.89 130.504 86.8261
136.822 131.021 86.1089
133.294 129.996 86.2661
134.221 130.226 87.7409
135.315 130.511 87.7497
136.342 126.635 84.4354
135.642 127.121 83.9501
135.151 126.436 84.6376
134.926 127.671 83.7057
136.122 128.007 83.6726
137.459 126.743 84.2976
136.705 126.203 84.9631
134.654 126.096 85.5594
134.06 126.338 85.0681
137.333 128.267 83.602
138.029 127.438 83.7555
138.594 128.323 83.538
138.61 126.761 84.1388
139.663 128.517 83.85
136.132 125.859 85.7987
135.114 125.748 86.0063
135.543 125.465 86.6325
134.121 125.66 86.4538
137.178 125.977 85.6669
135.901 125.117 87.0699
135.014 124.901 87.2616
133.384 126.656 84.7108
133.823 127.425 84.0731
132.731 127.108 84.5354
133.015 126.28 85.6514
131.807 126.899 85.1665
140.68 126.768 92.6846
141.195 126.908 91.9116
140.533 125.898 92.332
141.772 126.984 91.1279
141.874 127.746 91.4551
140.56 127.372 93.1277
139.863 126.57 93.3379
139.741 124.987 92.647
140.343 125.047 91.9919
141.918 128.538 91.9515
141.102 128.29 92.8032
141.639 129.207 92.4464
140.385 127.972 93.6624
142.34 128.663 90.9124
141.842 130.111 91.7518
141.17 129.795 92.8425
139.181 125.778 93.5988
139.185 124.888 93.2842
138.443 124.811 93.9396
138.966 124.074 93.0233
138.963 126.408 93.8477
137.702 124.679 94.5115
137.8 123.962 94.3591
140.67 125.031 91.2397
141.383 126.077 90.7963
141.027 125.121 90.445
141.948 126.887 90.2127
139.947 124.147 91.6709
140.579 124.456 90.2413
141.307 125.269 89.6352
142.343 128.661 88.7777
142.462 129.456 87.9085
142.367 128.427 87.636
142.246 130.197 87.0598
142.357 130.379 88.2468
142.367 128.715 89.8125
142.204 127.759 89.4385
141.901 127.392 87.4615
142.02 127.994 86.501
142.343 130.441 89.5121
142.586 129.53 90.2066
142.211 130.374 90.6568
141.876 131.086 88.7065
141.654 130.839 91.1579
141.91 126.786 89.1801
141.694 126.631 88.2185
141.53 125.911 89.0398
141.227 126.534 87.463
141.017 125.232 88.8879
141.648 128.673 85.7705
141.837 129.926 86.0327
141.221 129.423 85.0471
141.606 130.919 86.363
141.445 127.473 85.5877
140.608 128.791 84.3066
140.614 129.917 84.4777
126.359 121.849 92.1924
126.238 122.955 91.5052
126.756 123.035 92.5446
126.457 124.195 90.8791
126.107 123.162 90.4817
126.466 120.571 91.6778
127.059 120.847 92.7917
127.385 123.142 93.5261
127.096 124.026 92.8835
126.376 122.147 90.1905
126.472 120.756 90.5983
127.026 121.358 89.9645
127.085 119.89 91.0886
126.739 123.467 89.6968
127.827 122.205 89.7286
127.891 121.135 89.7969
127.739 121.185 93.7123
127.875 122.404 94.0825
128.47 121.585 94.5189
127.946 123.527 94.4743
127.997 120.183 93.2781
129.156 120.845 95.0489
129.202 122.126 95.113
126.966 124.952 92.3784
126.692 125.051 91.3608
127.017 125.85 91.6449
126.552 125.326 90.2645
127.433 124.997 93.3528
127.494 126.593 91.9561
127.178 126.777 91.0138
127.287 125.555 88.4065
128.117 125.528 87.771
127.59 126.433 87.6268
128.94 125.603 87.203
128.737 125.025 88.2586
127.198 124.635 89.2703
126.794 125.52 89.2638
127.529 127.406 87.9996
128.249 127.267 87.0914
128.412 124.185 89.0968
127.559 123.737 89.3557
128.087 123.13 89.4195
129.345 124.599 88.7109
128.691 122.754 89.6646
126.655 126.365 89.5701
127.055 127.343 88.9971
126.977 127.084 90.0212
128.059 127.934 88.5506
127.504 127.619 90.4477
129.035 126.957 86.4443
129.343 126.097 86.4316
129.892 126.808 85.849
129.955 125.648 86.8865
129.193 127.835 86.7413
130.542 127.438 85.3578
130.914 126.757 85.6218
137.162 130.254 92.9091
136.305 130.172 92.24
137.301 130.639 91.8654
135.371 130.005 91.6155
135.296 129.674 92.5657
136.978 129.777 93.8907
138.015 130.197 93.5969
138.31 130.904 91.3507
137.353 130.782 90.7257
135.108 129.353 93.484
136.025 129.327 94.1179
134.898 129.011 94.3688
136.804 129.139 94.7192
134.215 129.332 92.9333
133.907 128.4 94.4794
134.758 128.298 94.9114
139.043 130.567 93.2055
139.2 130.95 91.9964
140.042 130.831 92.5876
139.302 131.125 90.7291
138.842 130.005 94.171
140.697 130.384 92.8983
140.9 130.943 91.8664
136.444 130.598 90.1677
135.459 130.313 90.7122
135.507 130.331 89.6682
134.402 129.891 91.1324
137.423 130.857 89.5488
135.524 130.422 88.6636
134.63 130.075 89.2266
132.254 129.255 92.0475
131.254 128.758 92.4501
131.383 129.178 91.5281
130.322 128.19 92.7759
131.22 128.157 93.2058
133.165 129.336 92.5522
133.36 129.535 91.5497
131.601 129.289 90.4471
130.633 128.996 90.9197
132.034 128.19 93.6365
133.04 128.924 93.3313
132.928 128.374 94.1717
131.272 127.435 93.8333
132.934 127.706 94.6584
133.507 129.721 90.5998
132.646 129.514 90.0206
133.662 129.853 89.6317
131.845 129.382 89.3941
133.832 129.9 88.682
129.615 128.658 91.3426
129.436 128.203 92.3122
128.694 128.159 91.6937
129.447 127.574 93.103
129.91 128.855 90.2429
128.151 127.983 91.0315
127.998 127.486 91.9817
136.457 122.685 89.7484
137.289 122.513 89.8569
137.4 123.533 89.5861
138.096 122.411 90.0801
137.196 121.711 90.3646
135.46 121.883 89.8384
135.58 122.789 89.6411
137.437 124.103 88.792
138.17 124.119 89.1272
136.37 121.049 90.5743
135.448 121.124 90.1972
135.411 120.476 90.8833
134.521 121.203 89.9361
137.17 121.082 91.0756
135.434 119.921 91.5767
134.523 119.932 91.1912
135.747 123.464 88.9876
136.701 124.166 88.6157
135.974 124.286 88.5564
137.526 124.882 88.1339
134.794 122.915 89.4204
135.179 124.323 88.3548
136.011 124.689 87.7324
138.906 124.109 89.4351
138.916 123.149 89.903
139.581 124.016 89.7018
138.873 122.431 90.4231
138.889 124.736 88.6329
140.238 124.689 89.2361
140.204 124.069 90.0179
131.941 121.195 90.1074
132.926 121.861 89.9307
132.279 122.22 89.9495
133.823 122.441 89.7514
133.64 121.477 89.9937
131.804 120.083 90.3508
131.045 120.462 90.1621
131.593 122.582 89.7283
132.517 123.133 89.5273
133.61 120.566 90.1544
132.744 119.871 90.3495
133.648 119.873 90.6608
131.813 119.234 90.8949
133.693 119.444 91.5633
130.382 120.962 89.8561
130.712 122.081 89.8264
129.77 121.578 89.8138
131.058 123.086 89.5553
130.093 119.985 90.2958
128.85 121.162 89.7506
129.333 122.337 89.8608
133.398 123.584 89.2123
134.103 123.211 89.34
134.312 123.931 88.7903
132.836 123.891 88.9215
134.543 124.386 88.0082
137.304 127.143 94.8155
138.019 127.963 94.8195
138.419 127.398 94.5373
138.584 129.09 94.7529
137.517 128.705 95.0542
136.282 126.893 95.1287
136.642 126.318 94.9419
138.721 126.902 94.1923
139.438 127.674 94.2472
136.481 128.356 95.2657
135.87 127.408 95.2471
135.37 127.862 95.1377
136.992 125.849 94.771
137.974 126.194 94.2378
137.407 125.354 94.6845
140.021 128.59 94.0546
139.564 129.374 94.2534
140.48 129.615 93.6084
139.165 131.553 88.1521
139.035 131.594 86.8489
140.097 131.765 87.3946
138.812 131.425 85.6915
137.934 131.32 86.4238
138.247 131.183 88.8913
139.233 131.264 89.4547
141.029 131.54 88.077
141.026 131.632 86.7735
137.095 131.057 87.2232
137.313 130.971 88.3472
136.254 130.745 87.966
140.142 131.221 89.9967
141.053 131.284 89.3275
140.991 131.159 90.612
140.601 131.269 85.7411
139.513 131.251 85.2101
140.188 130.7 84.6943
137.869 121.51 93.0033
138.415 122.384 92.6847
138.241 121.714 92.2799
139.226 123.329 92.1448
138.691 123.266 92.8793
137.499 121.444 93.8115
137.166 120.718 93.336
137.839 121.284 91.6671
138.678 121.96 91.2829
138.217 123.179 93.4835
137.704 122.239 94.0108
137.784 123.084 94.1216
136.87 120.204 92.6569
137.079 120.577 91.8182
136.239 119.936 92.1027
139.48 122.648 90.9388
139.809 123.37 91.3617
140.116 123.657 90.6233
139.958 126.266 86.412
139.044 126.262 86.1464
139.123 125.95 86.9817
138.142 126.133 85.8112
138.888 126.436 85.0626
140.742 126.758 85.9038
140.639 126.496 86.8651
139.034 125.426 87.8209
138.28 125.56 87.5732
139.725 126.909 84.3801
140.706 127.156 84.9648
140.287 127.81 84.2516
140.535 125.832 87.6165
139.741 125.27 88.1626
140.426 125.174 88.4242
137.514 125.537 87.3954
137.441 125.822 86.501
136.742 125.349 87.1927
129.568 125.521 95.4949
128.673 125.412 94.8161
129.52 126.111 94.6061
128.005 125.254 94.1395
128.071 124.536 94.8072
129.925 124.793 96.1312
130.696 125.543 95.7935
130.375 126.802 94.2546
129.51 126.765 93.7864
128.643 123.758 95.1795
129.485 123.899 95.9877
129.316 122.989 95.5353
131.445 126.232 95.3973
131.232 126.916 94.6835
132.138 127.073 95.0905
128.643 126.811 93.3876
127.972 125.984 93.457
127.942 126.761 92.722
130.036 128.808 87.59
131.283 129.143 87.1798
130.665 129.204 88.124
132.35 129.593 86.6903
131.83 129.159 86.2561
129.554 128.42 87.1939
129.07 128.421 88.0641
130.261 128.981 89.1581
131.314 129.254 88.6951
131.366 128.719 85.9792
130.245 128.385 86.4281
130.762 128.282 85.5731
128.538 128.406 89.0079
129.227 128.713 89.6005
128.185 128.266 90.0473
132.303 129.576 88.3822
132.796 129.832 87.2955
133.33 129.815 88.0169
129.136 118.756 92.34
130.286 118.409 92.8509
130.014 118.508 91.8458
131.401 118.29 93.3014
130.713 118.506 93.7597
128.412 119.352 92.8018
127.944 119.228 91.7346
129.913 118.995 90.9631
130.982 118.628 91.3004
129.98 118.97 94.4085
128.92 119.468 93.7887
129.466 119.895 94.7226
127.884 119.493 90.6377
129.102 119.668 90.4353
128.303 120.276 90.0163
132.011 118.66 91.7106
132.264 118.385 92.7302
133.046 118.867 92.1039
132.245 125.203 87.385
131.245 125.021 87.8603
131.804 124.628 88.2456
130.313 124.769 88.2849
130.635 125.319 87.4492
132.594 125.784 86.522
133.167 125.439 86.8689
132.315 124.254 88.637
131.39 123.859 88.9539
130.976 125.691 86.5831
132.024 126.045 86.1975
131.433 126.336 85.8916
133.636 125.011 87.176
133.247 124.502 88.1343
134.146 124.619 87.5921
130.492 123.507 89.2676
129.983 124.028 89.0329
129.62 123.149 89.4957
POLYGONS 1280  5120
3 164 162 163
3 163 44 164
3 162 43 163
3 164 42 162
3 166 165 163
3 163 43 166
3 165 44 163
3 166 14 165
3 168 167 162
3 162 42 168
3 167 43 162
3 168 13 167
3 170 169 164
3 164 44 170
3 169 42 164
3 170 12 169
3 173 171 172
3 172 46 173
3 171 43 172
3 173 45 171
3 167 174 172
3 172 43 167
3 174 46 172
3 167 13 174
3 175 166 171
3 171 45 175
3 166 43 171
3 175 14 166
3 177 176 173
3 173 46 177
3 176 45 173
3 177 4 176
3 180 178 179
3 179 48 180
3 178 42 179
3 180 47 178
3 169 181 179
3 179 42 169
3 181 48 179
3 169 12 181
3 182 168 178
3 178 47 182
3 168 42 178
3 182 13 168
3 184 183 180
3 180 48 184
3 183 47 180
3 184 8 183
3 187 185 186
3 186 50 187
3 185 44 186
3 187 49 185
3 165 188 186
3 186 44 165
3 188 50 186
3 165 14 188
3 189 170 185
3 185 49 189
3 170 44 185
3 189 12 170
3 191 190 187
3 187 50 191
3 190 49 187
3 191 7 190
3 194 192 193
3 193 53 194
3 192 52 193
3 194 51 192
3 196 195 193
3 193 52 196
3 195 53 193
3 196 16 195
3 198 197 192
3 192 51 198
3 197 52 192
3 198 14 197
3 200 199 194
3 194 53 200
3 199 51 194
3 200 15 199
3 203 201 202
3 202 45 203
3 201 52 202
3 203 54 201
3 197 175 202
3 202 52 197
3 175 45 202
3 197 14 175
3 204 196 201
3 201 54 204
3 196 52 201
3 204 16 196
3 176 205 203
3 203 45 176
3 205 54 203
3 176 4 205
3 208 206 207
3 207 55 208
3 206 51 207
3 208 50 206
3 199 209 207
3 207 51 199
3 209 55 207
3 199 15 209
3 188 198 206
3 206 50 188
3 198 51 206
3 188 14 198
3 210 191 208
3 208 55 210
3 191 50 208
3 210 7 191
3 213 211 212
3 212 57 213
3 211 53 212
3 213 56 211
3 195 214 212
3 212 53 195
3 214 57 212
3 195 16 214
3 215 200 211
3 211 56 215
3 200 53 211
3 215 15 200
3 217 216 213
3 213 57 217
3 216 56 213
3 217 9 216
3 220 218 219
3 219 60 220
3 218 59 219
3 220 58 218
3 222 221 219
3 219 59 222
3 221 60 219
3 222 19 221
3 224 223 218
3 218 58 224
3 223 59 218
3 224 18 223
3 226 225 220
3 220 60 226
3 225 58 220
3 226 17 225
3 229 227 228
3 228 62 229
3 227 59 228
3 229 61 227
3 223 230 228
3 228 59 223
3 230 62 228
3 223 18 230
3 231 222 227
3 227 61 231
3 222 59 227
3 231 19 222
3 233 232 229
3 229 62 233
3 232 61 229
3 233 5 232
3 236 234 235
3 235 64 236
3 234 58 235
3 236 63 234
3 225 237 235
3 235 58 225
3 237 64 235
3 225 17 237
3 238 224 234
3 234 63 238
3 224 58 234
3 238 18 224
3 240 239 236
3 236 64 240
3 239 63 236
3 240 6 239
3 243 241 242
3 242 66 243
3 241 60 242
3 243 65 241
3 221 244 242
3 242 60 221
3 244 66 242
3 221 19 244
3 245 226 241
3 241 65 245
3 226 60 241
3 245 17 226
3 247 246 243
3 243 66 247
3 246 65 243
3 247 11 246
3 250 248 249
3 249 69 250
3 248 68 249
3 250 67 248
3 252 251 249
3 249 68 252
3 251 69 249
3 252 18 251
3 254 253 248
3 248 67 254
3 253 68 248
3 254 21 253
3 256 255 250
3 250 69 256
3 255 67 250
3 256 20 255
3 259 257 258
3 258 70 259
3 257 68 258
3 259 62 257
3 253 260 258
3 258 68 253
3 260 70 258
3 253 21 260
3 230 252 257
3 257 62 230
3 252 68 257
3 230 18 252
3 261 233 259
3 259 70 261
3 233 62 259
3 261 5 233
3 264 262 263
3 263 72 264
3 262 67 263
3 264 71 262
3 255 265 263
3 263 67 255
3 265 72 263
3 255 20 265
3 266 254 262
3 262 71 266
3 254 67 262
3 266 21 254
3 268 267 264
3 264 72 268
3 267 71 264
3 268 10 267
3 271 269 270
3 270 63 271
3 269 69 270
3 271 73 269
3 251 238 270
3 270 69 251
3 238 63 270
3 251 18 238
3 272 256 269
3 269 73 272
3 256 69 269
3 272 20 256
3 239 273 271
3 271 63 239
3 273 73 271
3 239 6 273
3 276 274 275
3 275 76 276
3 274 75 275
3 276 74 274
3 278 277 275
3 275 75 278
3 277 76 275
3 278 24 277
3 280 279 274
3 274 74 280
3 279 75 274
3 280 23 279
3 282 281 276
3 276 76 282
3 281 74 276
3 282 22 281
3 285 283 284
3 284 78 285
3 283 75 284
3 285 77 283
3 279 286 284
3 284 75 279
3 286 78 284
3 279 23 286
3 287 278 283
3 283 77 287
3 278 75 283
3 287 24 278
3 289 288 285
3 285 78 289
3 288 77 285
3 289 0 288
3 292 290 291
3 291 80 292
3 290 74 291
3 292 79 290
3 281 293 291
3 291 74 281
3 293 80 291
3 281 22 293
3 294 280 290
3 290 79 294
3 280 74 290
3 294 23 280
3 296 295 292
3 292 80 296
3 295 79 292
3 296 4 295
3 299 297 298
3 298 82 299
3 297 76 298
3 299 81 297
3 277 300 298
3 298 76 277
3 300 82 298
3 277 24 300
3 301 282 297
3 297 81 301
3 282 76 297
3 301 22 282
3 303 302 299
3 299 82 303
3 302 81 299
3 303 3 302
3 306 304 305
3 305 85 306
3 304 84 305
3 306 83 304
3 308 307 305
3 305 84 308
3 307 85 305
3 308 26 307
3 310 309 304
3 304 83 310
3 309 84 304
3 310 24 309
3 312 311 306
3 306 85 312
3 311 83 306
3 312 25 311
3 315 313 314
3 314 77 315
3 313 84 314
3 315 86 313
3 309 287 314
3 314 84 309
3 287 77 314
3 309 24 287
3 316 308 313
3 313 86 316
3 308 84 313
3 316 26 308
3 288 317 315
3 315 77 288
3 317 86 315
3 288 0 317
3 320 318 319
3 319 87 320
3 318 83 319
3 320 82 318
3 311 321 319
3 319 83 311
3 321 87 319
3 311 25 321
3 300 310 318
3 318 82 300
3 310 83 318
3 300 24 310
3 322 303 320
3 320 87 322
3 303 82 320
3 322 3 303
3 325 323 324
3 324 89 325
3 323 85 324
3 325 88 323
3 307 326 324
3 324 85 307
3 326 89 324
3 307 26 326
3 327 312 323
3 323 88 327
3 312 85 323
3 327 25 312
3 329 328 325
3 325 89 329
3 328 88 325
3 329 5 328
3 332 330 331
3 331 92 332
3 330 91 331
3 332 90 330
3 334 333 331
3 331 91 334
3 333 92 331
3 334 29 333
3 336 335 330
3 330 90 336
3 335 91 330
3 336 28 335
3 338 337 332
3 332 92 338
3 337 90 332
3 338 27 337
3 341 339 340
3 340 94 341
3 339 91 340
3 341 93 339
3 335 342 340
3 340 91 335
3 342 94 340
3 335 28 342
3 343 334 339
3 339 93 343
3 334 91 339
3 343 29 334
3 345 344 341
3 341 94 345
3 344 93 341
3 345 2 344
3 348 346 347
3 347 96 348
3 346 90 347
3 348 95 346
3 337 349 347
3 347 90 337
3 349 96 347
3 337 27 349
3 350 336 346
3 346 95 350
3 336 90 346
3 350 28 336
3 352 351 348
3 348 96 352
3 351 95 348
3 352 7 351
3 355 353 354
3 354 98 355
3 353 92 354
3 355 97 353
3 333 356 354
3 354 92 333
3 356 98 354
3 333 29 356
3 357 338 353
3 353 97 357
3 338 92 353
3 357 27 338
3 359 358 355
3 355 98 359
3 358 97 355
3 359 1 358
3 362 360 361
3 361 101 362
3 360 100 361
3 362 99 360
3 364 363 361
3 361 100 364
3 363 101 361
3 364 31 363
3 366 365 360
3 360 99 366
3 365 100 360
3 366 29 365
3 368 367 362
3 362 101 368
3 367 99 362
3 368 30 367
3 371 369 370
3 370 93 371
3 369 100 370
3 371 102 369
3 365 343 370
3 370 100 365
3 343 93 370
3 365 29 343
3 372 364 369
3 369 102 372
3 364 100 369
3 372 31 364
3 344 373 371
3 371 93 344
3 373 102 371
3 344 2 373
3 376 374 375
3 375 103 376
3 374 99 375
3 376 98 374
3 367 377 375
3 375 99 367
3 377 103 375
3 367 30 377
3 356 366 374
3 374 98 356
3 366 99 374
3 356 29 366
3 378 359 376
3 376 103 378
3 359 98 376
3 378 1 359
3 381 379 380
3 380 105 381
3 379 101 380
3 381 104 379
3 363 382 380
3 380 101 363
3 382 105 380
3 363 31 382
3 383 368 379
3 379 104 383
3 368 101 379
3 383 30 368
3 385 384 381
3 381 105 385
3 384 104 381
3 385 6 384
3 388 386 387
3 387 108 388
3 386 107 387
3 388 106 386
3 390 389 387
3 387 107 390
3 389 108 387
3 390 34 389
3 392 391 386
3 386 106 392
3 391 107 386
3 392 33 391
3 394 393 388
3 388 108 394
3 393 106 388
3 394 32 393
3 397 395 396
3 396 110 397
3 395 107 396
3 397 109 395
3 391 398 396
3 396 107 391
3 398 110 396
3 391 33 398
3 399 390 395
3 395 109 399
3 390 107 395
3 399 34 390
3 401 400 397
3 397 110 401
3 400 109 397
3 401 8 400
3 404 402 403
3 403 112 404
3 402 106 403
3 404 111 402
3 393 405 403
3 403 106 393
3 405 112 403
3 393 32 405
3 406 392 402
3 402 111 406
3 392 106 402
3 406 33 392
3 408 407 404
3 404 112 408
3 407 111 404
3 408 0 407
3 411 409 410
3 410 114 411
3 409 108 410
3 411 113 409
3 389 412 410
3 410 108 389
3 412 114 410
3 389 34 412
3 413 394 409
3 409 113 413
3 394 108 409
3 413 32 394
3 415 414 411
3 411 114 415
3 414 113 411
3 415 11 414
3 418 416 417
3 417 117 418
3 416 116 417
3 418 115 416
3 420 419 417
3 417 116 420
3 419 117 417
3 420 36 419
3 422 421 416
3 416 115 422
3 421 116 416
3 422 34 421
3 424 423 418
3 418 117 424
3 423 115 418
3 424 35 423
3 427 425 426
3 426 109 427
3 425 116 426
3 427 118 425
3 421 399 426
3 426 116 421
3 399 109 426
3 421 34 399
3 428 420 425
3 425 118 428
3 420 116 425
3 428 36 420
3 400 429 427
3 427 109 400
3 429 118 427
3 400 8 429
3 432 430 431
3 431 119 432
3 430 115 431
3 432 114 430
3 423 433 431
3 431 115 423
3 433 119 431
3 423 35 433
3 412 422 430
3 430 114 412
3 422 115 430
3 412 34 422
3 434 415 432
3 432 119 434
3 415 114 432
3 434 11 415
3 437 435 436
3 436 121 437
3 435 117 436
3 437 120 435
3 419 438 436
3 436 117 419
3 438 121 436
3 419 36 438
3 439 424 435
3 435 120 439
3 424 117 435
3 439 35 424
3 441 440 437
3 437 121 441
3 440 120 437
3 441 1 440
3 444 442 443
3 443 124 444
3 442 123 443
3 444 122 442
3 446 445 443
3 443 123 446
3 445 124 443
3 446 39 445
3 448 447 442
3 442 122 448
3 447 123 442
3 448 38 447
3 450 449 444
3 444 124 450
3 449 122 444
3 450 37 449
3 453 451 452
3 452 126 453
3 451 123 452
3 453 125 451
3 447 454 452
3 452 123 447
3 454 126 452
3 447 38 454
3 455 446 451
3 451 125 455
3 446 123 451
3 455 39 446
3 457 456 453
3 453 126 457
3 456 125 453
3 457 9 456
3 460 458 459
3 459 128 460
3 458 122 459
3 460 127 458
3 449 461 459
3 459 122 449
3 461 128 459
3 449 37 461
3 462 448 458
3 458 127 462
3 448 122 458
3 462 38 448
3 464 463 460
3 460 128 464
3 463 127 460
3 464 10 463
3 467 465 466
3 466 130 467
3 465 124 466
3 467 129 465
3 445 468 466
3 466 124 445
3 468 130 466
3 445 39 468
3 469 450 465
3 465 129 469
3 450 124 465
3 469 37 450
3 471 470 467
3 467 130 471
3 470 129 467
3 471 3 470
3 474 472 473
3 473 133 474
3 472 132 473
3 474 131 472
3 476 475 473
3 473 132 476
3 475 133 473
3 476 38 475
3 478 477 472
3 472 131 478
3 477 132 472
3 478 41 477
3 480 479 474
3 474 133 480
3 479 131 474
3 480 40 479
3 483 481 482
3 482 134 483
3 481 132 482
3 483 126 481
3 477 484 482
3 482 132 477
3 484 134 482
3 477 41 484
3 454 476 481
3 481 126 454
3 476 132 481
3 454 38 476
3 485 457 483
3 483 134 485
3 457 126 483
3 485 9 457
3 488 486 487
3 487 136 488
3 486 131 487
3 488 135 486
3 479 489 487
3 487 131 479
3 489 136 487
3 479 40 489
3 490 478 486
3 486 135 490
3 478 131 486
3 490 41 478
3 492 491 488
3 488 136 492
3 491 135 488
3 492 2 491
3 495 493 494
3 494 127 495
3 493 133 494
3 495 137 493
3 475 462 494
3 494 133 475
3 462 127 494
3 475 38 462
3 496 480 493
3 493 137 496
3 480 133 493
3 496 40 480
3 463 497 495
3 495 127 463
3 497 137 495
3 463 10 497
3 500 498 499
3 499 140 500
3 498 139 499
3 500 138 498
3 502 501 499
3 499 139 502
3 501 140 499
3 502 33 501
3 504 503 498
3 498 138 504
3 503 139 498
3 504 13 503
3 506 505 500
3 500 140 506
3 505 138 500
3 506 23 505
3 509 507 508
3 508 47 509
3 507 139 508
3 509 110 507
3 503 182 508
3 508 139 503
3 182 47 508
3 503 13 182
3 398 502 507
3 507 110 398
3 502 139 507
3 398 33 502
3 183 401 509
3 509 47 183
3 401 110 509
3 183 8 401
3 512 510 511
3 511 79 512
3 510 138 511
3 512 46 510
3 505 294 511
3 511 138 505
3 294 79 511
3 505 23 294
3 174 504 510
3 510 46 174
3 504 138 510
3 174 13 504
3 295 177 512
3 512 79 295
3 177 46 512
3 295 4 177
3 515 513 514
3 514 111 515
3 513 140 514
3 515 78 513
3 501 406 514
3 514 140 501
3 406 111 514
3 501 33 406
3 286 506 513
3 513 78 286
3 506 140 513
3 286 23 506
3 407 289 515
3 515 111 407
3 289 78 515
3 407 0 289
3 518 516 517
3 517 143 518
3 516 142 517
3 518 141 516
3 520 519 517
3 517 142 520
3 519 143 517
3 520 19 519
3 522 521 516
3 516 141 522
3 521 142 516
3 522 32 521
3 524 523 518
3 518 143 524
3 523 141 518
3 524 26 523
3 527 525 526
3 526 113 527
3 525 142 526
3 527 66 525
3 521 413 526
3 526 142 521
3 413 113 526
3 521 32 413
3 244 520 525
3 525 66 244
3 520 142 525
3 244 19 520
3 414 247 527
3 527 113 414
3 247 66 527
3 414 11 247
3 530 528 529
3 529 86 530
3 528 141 529
3 530 112 528
3 523 316 529
3 529 141 523
3 316 86 529
3 523 26 316
3 405 522 528
3 528 112 405
3 522 141 528
3 405 32 522
3 317 408 530
3 530 86 317
3 408 112 530
3 317 0 408
3 533 531 532
3 532 61 533
3 531 143 532
3 533 89 531
3 519 231 532
3 532 143 519
3 231 61 532
3 519 19 231
3 326 524 531
3 531 89 326
3 524 143 531
3 326 26 524
3 232 329 533
3 533 61 232
3 329 89 533
3 232 5 329
3 536 534 535
3 535 146 536
3 534 145 535
3 536 144 534
3 538 537 535
3 535 145 538
3 537 146 535
3 538 22 537
3 540 539 534
3 534 144 540
3 539 145 534
3 540 16 539
3 542 541 536
3 536 146 542
3 541 144 536
3 542 39 541
3 545 543 544
3 544 54 545
3 543 145 544
3 545 80 543
3 539 204 544
3 544 145 539
3 204 54 544
3 539 16 204
3 293 538 543
3 543 80 293
3 538 145 543
3 293 22 538
3 205 296 545
3 545 54 205
3 296 80 545
3 205 4 296
3 548 546 547
3 547 125 548
3 546 144 547
3 548 57 546
3 541 455 547
3 547 144 541
3 455 125 547
3 541 39 455
3 214 540 546
3 546 57 214
3 540 144 546
3 214 16 540
3 456 217 548
3 548 125 456
3 217 57 548
3 456 9 217
3 551 549 550
3 550 81 551
3 549 146 550
3 551 130 549
3 537 301 550
3 550 146 537
3 301 81 550
3 537 22 301
3 468 542 549
3 549 130 468
3 542 146 549
3 468 39 542
3 302 471 551
3 551 81 302
3 471 130 551
3 302 3 471
3 554 552 553
3 553 149 554
3 552 148 553
3 554 147 552
3 556 555 553
3 553 148 556
3 555 149 553
3 556 21 555
3 558 557 552
3 552 147 558
3 557 148 552
3 558 25 557
3 560 559 554
3 554 149 560
3 559 147 554
3 560 37 559
3 563 561 562
3 562 88 563
3 561 148 562
3 563 70 561
3 557 327 562
3 562 148 557
3 327 88 562
3 557 25 327
3 260 556 561
3 561 70 260
3 556 148 561
3 260 21 556
3 328 261 563
3 563 88 328
3 261 70 563
3 328 5 261
3 566 564 565
3 565 129 566
3 564 147 565
3 566 87 564
3 559 469 565
3 565 147 559
3 469 129 565
3 559 37 469
3 321 558 564
3 564 87 321
3 558 147 564
3 321 25 558
3 470 322 566
3 566 129 470
3 322 87 566
3 470 3 322
3 569 567 568
3 568 71 569
3 567 149 568
3 569 128 567
3 555 266 568
3 568 149 555
3 266 71 568
3 555 21 266
3 461 560 567
3 567 128 461
3 560 149 567
3 461 37 560
3 267 464 569
3 569 71 267
3 464 128 569
3 267 10 464
3 572 570 571
3 571 152 572
3 570 151 571
3 572 150 570
3 574 573 571
3 571 151 574
3 573 152 571
3 574 27 573
3 576 575 570
3 570 150 576
3 575 151 570
3 576 12 575
3 578 577 572
3 572 152 578
3 577 150 572
3 578 36 577
3 581 579 580
3 580 49 581
3 579 151 580
3 581 96 579
3 575 189 580
3 580 151 575
3 189 49 580
3 575 12 189
3 349 574 579
3 579 96 349
3 574 151 579
3 349 27 574
3 190 352 581
3 581 49 190
3 352 96 581
3 190 7 352
3 584 582 583
3 583 118 584
3 582 150 583
3 584 48 582
3 577 428 583
3 583 150 577
3 428 118 583
3 577 36 428
3 181 576 582
3 582 48 181
3 576 150 582
3 181 12 576
3 429 184 584
3 584 118 429
3 184 48 584
3 429 8 184
3 587 585 586
3 586 97 587
3 585 152 586
3 587 121 585
3 573 357 586
3 586 152 573
3 357 97 586
3 573 27 357
3 438 578 585
3 585 121 438
3 578 152 585
3 438 36 578
3 358 441 587
3 587 97 358
3 441 121 587
3 358 1 441
3 590 588 589
3 589 155 590
3 588 154 589
3 590 153 588
3 592 591 589
3 589 154 592
3 591 155 589
3 592 17 591
3 594 593 588
3 588 153 594
3 593 154 588
3 594 30 593
3 596 595 590
3 590 155 596
3 595 153 590
3 596 35 595
3 599 597 598
3 598 104 599
3 597 154 598
3 599 64 597
3 593 383 598
3 598 154 593
3 383 104 598
3 593 30 383
3 237 592 597
3 597 64 237
3 592 154 597
3 237 17 592
3 384 240 599
3 599 104 384
3 240 64 599
3 384 6 240
3 602 600 601
3 601 120 602
3 600 153 601
3 602 103 600
3 595 439 601
3 601 153 595
3 439 120 601
3 595 35 439
3 377 594 600
3 600 103 377
3 594 153 600
3 377 30 594
3 440 378 602
3 602 120 440
3 378 103 602
3 440 1 378
3 605 603 604
3 604 65 605
3 603 155 604
3 605 119 603
3 591 245 604
3 604 155 591
3 245 65 604
3 591 17 245
3 433 596 603
3 603 119 433
3 596 155 603
3 433 35 596
3 246 434 605
3 605 65 246
3 434 119 605
3 246 11 434
3 608 606 607
3 607 158 608
3 606 157 607
3 608 156 606
3 610 609 607
3 607 157 610
3 609 158 607
3 610 15 609
3 612 611 606
3 606 156 612
3 611 157 606
3 612 28 611
3 614 613 608
3 608 158 614
3 613 156 608
3 614 41 613
3 617 615 616
3 616 95 617
3 615 157 616
3 617 55 615
3 611 350 616
3 616 157 611
3 350 95 616
3 611 28 350
3 209 610 615
3 615 55 209
3 610 157 615
3 209 15 610
3 351 210 617
3 617 95 351
3 210 55 617
3 351 7 210
3 620 618 619
3 619 135 620
3 618 156 619
3 620 94 618
3 613 490 619
3 619 156 613
3 490 135 619
3 613 41 490
3 342 612 618
3 618 94 342
3 612 156 618
3 342 28 612
3 491 345 620
3 620 135 491
3 345 94 620
3 491 2 345
3 623 621 622
3 622 56 623
3 621 158 622
3 623 134 621
3 609 215 622
3 622 158 609
3 215 56 622
3 609 15 215
3 484 614 621
3 621 134 484
3 614 158 621
3 484 41 614
3 216 485 623
3 623 56 216
3 485 134 623
3 216 9 485
3 626 624 625
3 625 161 626
3 624 160 625
3 626 159 624
3 628 627 625
3 625 160 628
3 627 161 625
3 628 31 627
3 630 629 624
3 624 159 630
3 629 160 624
3 630 20 629
3 632 631 626
3 626 161 632
3 631 159 626
3 632 40 631
3 635 633 634
3 634 73 635
3 633 160 634
3 635 105 633
3 629 272 634
3 634 160 629
3 272 73 634
3 629 20 272
3 382 628 633
3 633 105 382
3 628 160 633
3 382 31 628
3 273 385 635
3 635 73 273
3 385 105 635
3 273 6 385
3 638 636 637
3 637 137 638
3 636 159 637
3 638 72 636
3 631 496 637
3 637 159 631
3 496 137 637
3 631 40 496
3 265 630 636
3 636 72 265
3 630 159 636
3 265 20 630
3 497 268 638
3 638 137 497
3 268 72 638
3 497 10 268
3 641 639 640
3 640 102 641
3 639 161 640
3 641 136 639
3 627 372 640
3 640 161 627
3 372 102 640
3 627 31 372
3 489 632 639
3 639 136 489
3 632 161 639
3 489 40 632
3 373 492 641
3 641 102 373
3 492 136 641
3 373 2 492
