# vtk DataFile Version 3.0
this file was written using fslvtkio
ASCII
DATASET POLYDATA
POINTS 642 float
68.4684 132.659 163.303
60.1261 141.46 160.948
55.7606 124.406 156.449
63.4145 117.196 159.745
64.5462 121.141 170.398
65.9572 130.441 156.134
62.3463 133.039 153.547
58.0044 127.714 166.702
64.5279 139.081 169.625
58.1648 112.493 161.465
58.4276 114.436 148.968
72.329 143.679 157.37
60.244 134.184 170.469
64.2314 129.794 171.852
60.1157 122.927 170.672
57.1105 119.322 165.395
61.419 113.919 168.353
68.6982 141.052 154.099
64.952 132.046 153.978
75.3255 137.082 153.721
59.0464 121.816 149.004
60.984 120.741 152.349
64.9602 117.069 165.248
67.1422 126.823 167.575
65.3737 125.512 162.044
62.693 122.866 157.235
68.9958 133.171 158.669
58.594 135.875 164.782
56.146 125.892 161.775
58.3033 133.289 158.638
62.2823 139.815 156.239
58.1758 128.174 153.624
73.4268 138.659 159.804
67.6107 136.356 166.687
68.6133 144.413 164.021
65.7423 146.076 159.432
62.0188 143.507 166.551
60.9768 112.835 154.68
56.8317 110.102 153.507
61.0024 110.228 160.533
56.5812 117.885 151.927
56.3122 117.245 158.403
61.9518 131.813 172.172
61.9805 126.116 172.539
60.16 128.397 170.875
62.184 121.317 171.602
64.6631 125.551 171.379
64.3104 134.687 170.879
62.0157 137.495 171.34
59.0961 131.097 168.573
58.8769 125.623 168.91
58.5326 121.007 168.37
60.3824 117.92 170.238
59.0287 116.42 167.232
63.3677 116.982 170.089
57.3516 123.438 166.195
58.0016 115.871 163.555
59.3122 112.771 165.289
68.0321 137.317 153.481
70.3746 136.069 153.727
72.2192 139.403 152.939
70.8551 134.427 154.986
65.5541 131.319 155.035
63.8977 132.779 152.763
65.5368 137.728 154.316
70.9453 142.845 155.33
75.5559 140.437 154.677
60.6745 121.304 149.567
61.9805 125.63 153.144
61.4677 126.733 152.16
62.6418 125.931 154.716
60.1493 117.32 150.116
58.1749 118.535 147.214
60.6999 128.107 151.948
66.3929 121.927 166.625
66.998 125.413 164.659
65.4797 121.165 163.674
66.7956 129.089 162.729
67.7252 129.613 165.55
66.2247 124.069 169.453
65.218 118.852 168.13
64.3629 117.253 162.342
64.0863 121.582 161.171
63.875 124.938 159.647
66.0141 129.784 160.592
65.3152 128.832 158.347
69.3144 133.269 160.865
62.7468 120.21 158.615
63.711 127.077 156.698
68.317 132.081 156.997
57.5567 130.633 163.233
57.2406 129.874 160.317
58.0348 134.324 161.719
57.0937 128.775 157.498
55.9937 125.221 159.121
57.0162 126.741 164.383
58.4598 131.909 165.802
58.9318 138.745 162.947
58.9565 137.587 159.79
60.0402 136.581 157.429
58.5191 130.998 156.156
60.3499 134.255 155.353
56.3797 126.03 154.58
61.3016 141.098 158.466
62.7018 136.571 154.994
60.1101 131.101 153.247
70.3868 138.459 163.311
68.2577 140.707 164.971
71.0306 141.924 161.607
66.0311 142.437 166.842
66.1145 138.077 167.991
68.7915 134.467 164.95
71.1782 135.911 161.935
74.2061 141.336 158.523
70.7038 145.334 160.805
67.0553 147.11 162.64
65.3061 145.697 166.316
63.6161 146.137 163.403
63.2383 142.027 168.815
69.2458 146.194 158.349
62.5844 144.529 160.499
61.2572 142.541 163.721
59.4148 109.069 153.145
58.8141 107.31 156.798
61.0575 110.182 157.091
59.4093 110.016 161.472
57.6816 110.618 157.731
57.1864 111.097 150.338
60.0314 113.679 151.832
61.9215 115.125 157.601
62.6605 113.386 160.178
56.1101 117.217 155.079
56.2737 113.255 156.119
56.1503 113.65 152.033
56.6693 114.579 159.997
55.8413 120.825 157.487
56.0656 121.232 154.334
56.386 116.366 148.892
66.1471 128.807 169.841
65.9338 133.468 169.379
67.4219 132.014 167.305
72.7111 135.356 159.497
75.8878 137.307 156.868
72.962 134.978 156.44
61.5908 111.516 164.93
63.9138 114.818 167.236
63.2526 113.571 163.158
61.4922 117.61 156.22
61.944 121.85 155.093
61.0644 116.86 153.416
60.8387 139.196 168.79
59.4163 135.337 167.696
59.9879 139.886 165.871
63.9652 143.351 157.584
65.0831 140.832 154.995
67.5698 144.036 156.229
55.7485 121.504 160.235
56.2117 122.484 163.494
56.6349 118.32 161.806
57.2038 120.217 149.806
58.7362 125.217 151.631
56.7379 122.934 152.358
61.8464 128.928 172.415
60.9355 127.267 171.898
60.7906 130.077 171.989
60.1042 125.682 170.869
60.8628 124.67 171.9
63.0665 127.911 172.331
63.0227 130.511 172.298
60.9219 132.827 171.469
60.0649 131.089 170.918
62.0634 123.896 172.386
63.3755 125.651 172.156
63.3627 123.267 171.955
64.313 127.609 171.718
61.0307 122.251 171.598
63.4269 121.061 171.153
64.4228 123.277 171.137
63.2307 133.2 171.847
62.024 134.38 171.626
63.1951 135.537 171.52
61.1594 135.907 170.882
64.2271 132.236 171.437
64.3683 136.925 170.486
63.4153 137.862 170.898
59.6832 130.015 169.733
59.5787 127.195 169.97
58.9722 128.337 168.716
59.485 124.267 169.761
59.6903 132.542 169.735
58.6045 129.315 167.613
58.5388 126.67 167.761
59.3297 119.365 169.376
59.7088 117.015 168.861
58.5779 118.529 168.087
60.0687 114.948 167.948
60.8134 115.682 169.701
60.2514 120.353 170.422
59.2354 121.809 169.617
57.9514 120.04 167.057
58.1456 118.049 166.453
61.6151 117.238 170.547
61.2053 119.815 171.099
62.6729 119.008 171.031
62.2789 115.455 169.85
63.8712 119.045 170.353
58.6271 123.408 168.745
57.9894 122.215 167.327
58.1309 124.599 167.574
57.1887 121.236 165.938
57.6913 125.6 166.434
58.3472 116.343 165.519
59.2507 114.604 166.336
58.5529 114.427 164.542
60.253 113.047 166.906
57.5702 117.619 164.634
57.9346 114 162.771
58.6571 112.791 163.514
68.7796 136.208 153.649
71.3481 137.57 153.204
69.9142 138.202 152.948
73.7377 138.425 152.846
73.049 136.964 153.333
67.6685 134.345 154.008
66.9422 134.904 153.623
68.7019 139.302 153.494
70.679 140.219 153.37
71.1368 135.403 154.163
68.3009 133.903 154.344
68.622 133.319 154.947
65.3908 131.591 154.402
73.3975 136.005 154.35
68.3695 132.594 155.568
65.855 130.811 155.502
66.0221 135.338 153.574
67.0382 137.895 153.761
65.1337 135.779 153.489
66.9926 139.713 154.001
64.6509 132.602 153.045
63.2797 133.094 152.952
63.778 135.407 153.87
72.2128 141.217 153.627
74.1496 140.183 153.239
73.3274 141.554 154.393
76.0579 138.822 153.743
70.112 141.965 154.418
71.9744 143.043 156.071
73.851 141.925 155.797
61.1664 123.432 151.563
61.8057 126.689 153.047
60.7581 123.686 150.899
63.2691 129.553 153.011
63.5823 129.089 153.578
61.4667 122.903 152.251
60.8992 121.117 150.9
59.8046 121.415 148.955
60.3305 123.945 150.61
63.7127 128.302 154.101
62.3212 125.023 153.649
64.119 128.018 154.693
61.7716 122.793 153.588
64.3246 128.442 155.513
60.5013 119.173 149.436
59.8414 119.681 148.005
59.3575 117.843 148.552
58.2768 120.222 147.206
60.7781 119.007 150.978
59.393 115.84 149.355
58.1491 116.57 148.048
61.1592 127.212 151.798
63.0127 130.214 152.487
62.3386 130.573 152.323
59.9238 124.667 151.016
61.5935 130.679 152.709
66.9176 123.679 165.679
66.2959 123.353 164.25
65.9917 121.516 165.149
65.4682 123.273 163.109
66.2215 125.075 163.375
67.1171 125.896 166.187
67.0046 124.329 167.134
65.787 119.67 165.988
65.4225 119.377 164.608
66.9745 126.963 163.623
67.4079 127.386 165.228
67.4766 128.994 164.11
67.3714 128.306 166.588
66.1672 127.161 162.447
67.6938 130.661 163.028
67.9975 131.006 164.327
66.5231 122.874 168.031
65.7797 120.459 167.37
65.714 121.544 168.883
65.1381 117.936 166.68
66.7109 125.273 168.407
65.3998 122.797 170.113
64.8732 120.039 169.436
64.9703 119.182 163.14
64.7458 121.426 162.457
64.3683 119.358 161.754
64.7042 123.585 161.803
64.7883 117.266 163.833
64.1478 117.379 160.92
63.6549 119.532 160.519
64.6991 127.315 160.431
65.3055 129.423 159.561
64.2425 126.896 159.126
66.9826 130.751 158.681
67.3931 131.291 159.581
65.5141 127.623 161.363
64.6605 125.47 160.879
63.2003 124.343 158.464
63.8436 126.205 158.119
67.6739 131.676 160.634
66.4148 129.495 161.628
67.7157 131.364 161.827
69.2659 133.261 159.71
68.797 132.926 162.141
63.8271 123.451 160.641
63.0437 122.863 159.199
63.3526 121.131 159.879
62.6225 121.595 157.919
63.0172 118.677 159.24
64.5896 127.987 157.607
66.5888 130.6 157.804
65.9512 129.624 157.089
68.7224 132.736 157.762
63.0781 124.937 156.97
64.7594 128.78 156.384
67.2147 131.338 156.454
57.4345 130.309 161.778
57.8908 132.06 160.995
57.939 132.589 162.527
58.0461 133.807 160.172
57.8179 131.7 159.513
56.5753 128.101 161.261
56.7519 128.413 162.463
58.1955 133.243 163.871
58.1995 134.916 163.27
57.0836 129.503 158.959
56.3445 127.708 159.839
56.1809 127.239 158.375
55.9869 125.743 160.493
57.7628 131.036 158.133
56.1823 126.729 156.915
55.7811 125.063 157.75
57.1246 128.715 163.764
58.2037 131.333 164.454
57.6782 129.507 165.104
58.395 133.96 165.309
56.5144 126.366 163.044
57.5361 127.462 165.576
58.2506 129.773 166.316
58.1894 136.495 162.481
58.335 135.853 160.835
58.7939 138.188 161.385
58.6443 135.357 159.387
58.6758 137.333 163.942
59.4245 140.139 161.943
59.6032 139.539 160.318
59.0196 133.993 156.746
59.3326 132.578 155.771
60.2063 135.406 156.425
59.3867 131.157 154.727
58.373 129.905 154.807
58.4497 132.34 157.29
59.0289 135.016 157.976
61.0495 138.085 156.768
61.2937 136.844 155.946
57.3895 128.578 155.193
57.8534 129.982 156.835
56.6399 127.64 155.96
57.1959 127.128 153.971
55.9304 125.244 155.525
59.3981 137.01 158.575
60.5618 138.865 157.876
60.0835 139.217 159.031
61.7578 140.314 157.326
60.8243 141.233 159.737
61.3307 135.598 154.974
60.2873 132.635 154.44
61.2957 134.037 153.924
59.0667 129.827 153.364
62.4195 138.376 155.496
62.5812 134.881 154.003
61.3 132.169 153.361
69.3713 139.465 164.372
69.4983 141.424 163.292
70.8484 140.132 162.621
69.8444 143.206 162.779
68.5583 142.684 164.43
68.2134 138.727 165.776
68.8414 137.778 164.985
71.785 139.124 161.46
72.2133 140.495 160.837
67.262 141.696 165.867
67.2221 139.567 166.562
65.9942 140.245 167.315
66.9982 137.449 167.212
67.3281 143.641 165.502
65.1526 140.825 168.369
65.3079 138.473 168.905
69.4639 136.62 164.229
70.8004 137.173 162.758
69.7423 135.064 163.441
72.1905 137.591 161.108
68.3982 135.75 165.659
68.8832 133.283 164.195
69.9187 134.231 162.561
72.8453 141.866 160.199
71.0176 143.515 161.105
72.5529 143.323 159.414
69.7213 144.997 162.527
73.998 139.851 159.147
73.6815 142.715 157.703
71.5719 144.942 159.03
66.3275 146.868 164.625
64.3872 146.54 165.095
65.2584 147.028 163.2
62.9367 145.298 165.123
63.5788 144.927 166.609
66.9361 145.271 165.245
68.0087 145.931 163.701
66.131 146.989 161.164
64.5608 146.56 161.539
64.2119 144.014 167.566
65.8084 144.051 166.561
64.6849 142.275 167.925
62.6438 143.077 167.894
63.8849 140.374 169.54
68.8861 146.432 161.933
67.9716 146.865 160.574
69.9298 146.343 159.753
67.4435 146.439 159.211
70.8714 145.074 157.623
63.1021 145.486 161.856
62.1985 144.733 163.617
61.7244 143.649 162.186
61.6324 143.644 165.086
64.0589 145.678 159.999
61.416 142.918 160.749
60.5894 141.957 162.322
59.274 107.443 154.654
60.4406 108.171 156.839
60.4079 109.12 155.173
61.0698 109.755 158.758
60.453 107.845 158.571
57.5219 108.263 154.983
57.8274 108.473 152.809
60.2758 110.669 153.821
60.95 111.055 155.545
59.1359 108.422 158.925
58.0669 108.943 157.069
58.4869 109.996 159.5
57.2585 110.17 155.457
60.1986 109.445 160.842
58.7968 111.285 161.561
57.7979 111.48 159.662
58.452 110.057 151.778
59.6843 111.489 152.385
58.7891 112.221 150.853
60.3725 112.866 153.299
56.7422 109.819 151.524
57.8148 112.81 149.243
59.5958 114.18 150.334
61.5673 112.236 157.068
61.7916 111.738 158.589
62.3637 113.79 158.57
61.8998 111.728 160.288
61.4853 113.381 156.136
62.6679 116.369 158.73
63.3244 115.328 159.967
55.8085 114.987 155.351
56.3717 113.492 153.945
55.8871 115.279 153.675
56.3481 111.697 152.677
56.7944 111.814 154.805
56.0472 115.148 157.062
56.1491 116.978 156.587
56.3543 117.354 153.491
56.1702 115.689 151.953
57.1163 111.817 156.96
56.3639 113.85 158.021
57.0492 112.653 159.081
56.446 115.782 158.922
57.4776 113.525 160.845
56.2443 118.895 156.356
56.1505 119.103 154.707
55.9881 120.978 155.941
56.4713 119.432 153.271
56.1958 118.815 157.812
55.553 122.698 157.077
55.6466 122.901 155.44
56.0456 114.701 150.434
56.194 111.944 151.068
56.4183 113.332 149.112
56.3765 116.781 150.475
56.9581 115.072 148.034
65.8775 131.122 169.565
66.7798 132.626 168.348
66.6771 130.312 168.507
67.4937 134.222 166.978
66.7701 134.857 167.988
65.0704 131.665 170.597
65.1983 129.457 170.828
66.7952 128.066 168.742
67.0517 129.462 167.578
66.0847 135.849 168.491
65.1403 134.057 170.162
65.1955 136.502 169.397
65.499 127.453 170.674
66.2856 126.61 169.524
65.4199 125.052 170.376
67.776 130.694 166.535
68.0698 133.325 166.174
68.1522 132.041 165.347
74.3161 135.846 158.544
74.9958 135.538 156.67
72.4597 134.955 158.031
74.5797 135.597 155.172
76.3065 137.03 155.161
74.9115 137.657 158.537
73.2655 137.062 159.786
70.9078 134.283 158.879
70.925 134.285 157.615
75.9645 138.895 155.612
75.136 139.284 157.748
74.8898 140.924 156.756
72.2347 135.827 160.785
71.1733 134.26 160.117
70.6918 134.337 161.337
70.2529 133.871 156.807
72.128 134.824 155.527
69.0295 133.354 156.124
62.8349 112.947 166.075
63.5102 114.2 165.094
62.3611 112.483 163.987
64.123 115.249 164.235
64.3073 115.787 166.127
62.6888 114.116 168.057
61.4744 112.086 166.903
61.3042 110.853 162.681
62.2021 111.799 162.041
64.5614 116.741 167.641
63.6698 115.503 168.949
64.3093 118.052 169.127
60.1157 111.503 165.474
60.2981 110.54 163.182
59.2216 111.261 163.643
62.8721 113.436 161.634
64.1311 115.242 162.751
63.8235 115.34 161.266
61.5999 119.562 155.503
61.4523 119.1 154.218
61.2582 116.91 154.871
61.0525 118.931 152.781
61.417 121.09 153.899
62.1967 122.346 156.155
62.0695 120.247 156.63
61.4231 115.052 155.53
60.9016 114.726 153.962
62.2835 123.938 154.901
62.4463 124.74 156.042
63.3486 126.809 155.724
62.3712 119.388 157.362
61.8874 116.451 156.834
62.3446 117.858 158.165
60.8511 115.307 152.521
60.5861 117.777 151.944
60.4591 115.786 150.876
59.8389 137.418 168.405
59.6225 137.633 166.828
60.3927 139.687 167.327
59.1229 137.919 165.428
58.9704 135.844 166.278
59.8675 134.885 169.121
60.506 136.792 169.678
61.3361 141.441 167.799
61.0526 141.767 166.218
58.7506 133.783 166.7
59.1283 133.364 168.304
58.922 131.522 167.105
61.2175 138.46 170.155
61.8784 140.955 169.004
62.6632 139.6 170.122
60.6777 141.407 164.868
59.3565 139.34 164.435
59.8002 140.742 163.391
64.4739 142.211 155.97
66.3337 142.741 155.532
65.5323 143.749 156.852
68.1665 142.615 154.959
66.8294 141.201 154.712
63.5183 140.279 155.402
62.996 141.731 156.697
64.8078 145.057 158.232
66.5461 145.195 157.576
65.2839 139.217 154.462
63.7207 138.617 155.007
64.0284 136.718 154.754
62.4679 142.388 157.954
63.508 144.171 159.039
61.9321 142.987 159.381
68.2144 145.575 157.443
69.0493 143.573 155.981
70.0834 144.548 156.754
55.9942 122.004 161.827
56.4305 120.417 162.762
56.2653 119.893 160.975
56.9071 118.923 163.55
56.7387 120.878 164.309
56.0105 124.001 162.526
55.7419 123.647 161.168
56.1317 119.424 159.383
56.4691 117.816 160.058
56.8224 122.828 164.879
56.3352 124.591 163.839
57.1331 125.159 165.169
55.5652 123.513 159.82
55.7886 121.091 158.845
55.5848 123.136 158.422
56.9366 116.48 160.749
57.1619 117.113 162.75
57.2882 115.178 161.874
57.929 122.697 150.53
57.5918 124.46 151.852
56.9323 121.598 151.185
57.2062 125.538 152.801
58.5041 126.882 152.6
58.9344 123.428 150.415
58.1198 121.24 149.183
56.9691 118.977 150.799
56.7067 120.237 152.124
59.1977 128.417 152.422
59.6484 126.607 151.818
60.34 129.657 152.55
57.2383 119.714 148.113
56.7492 118.249 149.421
56.7665 117.517 147.503
56.5684 121.811 153.338
56.4025 124.797 153.424
55.9283 123.743 154.428
POLYGONS 1280  5120
3 164 162 163
3 163 44 164
3 162 43 163
3 164 42 162
3 166 165 163
3 163 43 166
3 165 44 163
3 166 14 165
3 168 167 162
3 162 42 168
3 167 43 162
3 168 13 167
3 170 169 164
3 164 44 170
3 169 42 164
3 170 12 169
3 173 171 172
3 172 46 173
3 171 43 172
3 173 45 171
3 167 174 172
3 172 43 167
3 174 46 172
3 167 13 174
3 175 166 171
3 171 45 175
3 166 43 171
3 175 14 166
3 177 176 173
3 173 46 177
3 176 45 173
3 177 4 176
3 180 178 179
3 179 48 180
3 178 42 179
3 180 47 178
3 169 181 179
3 179 42 169
3 181 48 179
3 169 12 181
3 182 168 178
3 178 47 182
3 168 42 178
3 182 13 168
3 184 183 180
3 180 48 184
3 183 47 180
3 184 8 183
3 187 185 186
3 186 50 187
3 185 44 186
3 187 49 185
3 165 188 186
3 186 44 165
3 188 50 186
3 165 14 188
3 189 170 185
3 185 49 189
3 170 44 185
3 189 12 170
3 191 190 187
3 187 50 191
3 190 49 187
3 191 7 190
3 194 192 193
3 193 53 194
3 192 52 193
3 194 51 192
3 196 195 193
3 193 52 196
3 195 53 193
3 196 16 195
3 198 197 192
3 192 51 198
3 197 52 192
3 198 14 197
3 200 199 194
3 194 53 200
3 199 51 194
3 200 15 199
3 203 201 202
3 202 45 203
3 201 52 202
3 203 54 201
3 197 175 202
3 202 52 197
3 175 45 202
3 197 14 175
3 204 196 201
3 201 54 204
3 196 52 201
3 204 16 196
3 176 205 203
3 203 45 176
3 205 54 203
3 176 4 205
3 208 206 207
3 207 55 208
3 206 51 207
3 208 50 206
3 199 209 207
3 207 51 199
3 209 55 207
3 199 15 209
3 188 198 206
3 206 50 188
3 198 51 206
3 188 14 198
3 210 191 208
3 208 55 210
3 191 50 208
3 210 7 191
3 213 211 212
3 212 57 213
3 211 53 212
3 213 56 211
3 195 214 212
3 212 53 195
3 214 57 212
3 195 16 214
3 215 200 211
3 211 56 215
3 200 53 211
3 215 15 200
3 217 216 213
3 213 57 217
3 216 56 213
3 217 9 216
3 220 218 219
3 219 60 220
3 218 59 219
3 220 58 218
3 222 221 219
3 219 59 222
3 221 60 219
3 222 19 221
3 224 223 218
3 218 58 224
3 223 59 218
3 224 18 223
3 226 225 220
3 220 60 226
3 225 58 220
3 226 17 225
3 229 227 228
3 228 62 229
3 227 59 228
3 229 61 227
3 223 230 228
3 228 59 223
3 230 62 228
3 223 18 230
3 231 222 227
3 227 61 231
3 222 59 227
3 231 19 222
3 233 232 229
3 229 62 233
3 232 61 229
3 233 5 232
3 236 234 235
3 235 64 236
3 234 58 235
3 236 63 234
3 225 237 235
3 235 58 225
3 237 64 235
3 225 17 237
3 238 224 234
3 234 63 238
3 224 58 234
3 238 18 224
3 240 239 236
3 236 64 240
3 239 63 236
3 240 6 239
3 243 241 242
3 242 66 243
3 241 60 242
3 243 65 241
3 221 244 242
3 242 60 221
3 244 66 242
3 221 19 244
3 245 226 241
3 241 65 245
3 226 60 241
3 245 17 226
3 247 246 243
3 243 66 247
3 246 65 243
3 247 11 246
3 250 248 249
3 249 69 250
3 248 68 249
3 250 67 248
3 252 251 249
3 249 68 252
3 251 69 249
3 252 18 251
3 254 253 248
3 248 67 254
3 253 68 248
3 254 21 253
3 256 255 250
3 250 69 256
3 255 67 250
3 256 20 255
3 259 257 258
3 258 70 259
3 257 68 258
3 259 62 257
3 253 260 258
3 258 68 253
3 260 70 258
3 253 21 260
3 230 252 257
3 257 62 230
3 252 68 257
3 230 18 252
3 261 233 259
3 259 70 261
3 233 62 259
3 261 5 233
3 264 262 263
3 263 72 264
3 262 67 263
3 264 71 262
3 255 265 263
3 263 67 255
3 265 72 263
3 255 20 265
3 266 254 262
3 262 71 266
3 254 67 262
3 266 21 254
3 268 267 264
3 264 72 268
3 267 71 264
3 268 10 267
3 271 269 270
3 270 63 271
3 269 69 270
3 271 73 269
3 251 238 270
3 270 69 251
3 238 63 270
3 251 18 238
3 272 256 269
3 269 73 272
3 256 69 269
3 272 20 256
3 239 273 271
3 271 63 239
3 273 73 271
3 239 6 273
3 276 274 275
3 275 76 276
3 274 75 275
3 276 74 274
3 278 277 275
3 275 75 278
3 277 76 275
3 278 24 277
3 280 279 274
3 274 74 280
3 279 75 274
3 280 23 279
3 282 281 276
3 276 76 282
3 281 74 276
3 282 22 281
3 285 283 284
3 284 78 285
3 283 75 284
3 285 77 283
3 279 286 284
3 284 75 279
3 286 78 284
3 279 23 286
3 287 278 283
3 283 77 287
3 278 75 283
3 287 24 278
3 289 288 285
3 285 78 289
3 288 77 285
3 289 0 288
3 292 290 291
3 291 80 292
3 290 74 291
3 292 79 290
3 281 293 291
3 291 74 281
3 293 80 291
3 281 22 293
3 294 280 290
3 290 79 294
3 280 74 290
3 294 23 280
3 296 295 292
3 292 80 296
3 295 79 292
3 296 4 295
3 299 297 298
3 298 82 299
3 297 76 298
3 299 81 297
3 277 300 298
3 298 76 277
3 300 82 298
3 277 24 300
3 301 282 297
3 297 81 301
3 282 76 297
3 301 22 282
3 303 302 299
3 299 82 303
3 302 81 299
3 303 3 302
3 306 304 305
3 305 85 306
3 304 84 305
3 306 83 304
3 308 307 305
3 305 84 308
3 307 85 305
3 308 26 307
3 310 309 304
3 304 83 310
3 309 84 304
3 310 24 309
3 312 311 306
3 306 85 312
3 311 83 306
3 312 25 311
3 315 313 314
3 314 77 315
3 313 84 314
3 315 86 313
3 309 287 314
3 314 84 309
3 287 77 314
3 309 24 287
3 316 308 313
3 313 86 316
3 308 84 313
3 316 26 308
3 288 317 315
3 315 77 288
3 317 86 315
3 288 0 317
3 320 318 319
3 319 87 320
3 318 83 319
3 320 82 318
3 311 321 319
3 319 83 311
3 321 87 319
3 311 25 321
3 300 310 318
3 318 82 300
3 310 83 318
3 300 24 310
3 322 303 320
3 320 87 322
3 303 82 320
3 322 3 303
3 325 323 324
3 324 89 325
3 323 85 324
3 325 88 323
3 307 326 324
3 324 85 307
3 326 89 324
3 307 26 326
3 327 312 323
3 323 88 327
3 312 85 323
3 327 25 312
3 329 328 325
3 325 89 329
3 328 88 325
3 329 5 328
3 332 330 331
3 331 92 332
3 330 91 331
3 332 90 330
3 334 333 331
3 331 91 334
3 333 92 331
3 334 29 333
3 336 335 330
3 330 90 336
3 335 91 330
3 336 28 335
3 338 337 332
3 332 92 338
3 337 90 332
3 338 27 337
3 341 339 340
3 340 94 341
3 339 91 340
3 341 93 339
3 335 342 340
3 340 91 335
3 342 94 340
3 335 28 342
3 343 334 339
3 339 93 343
3 334 91 339
3 343 29 334
3 345 344 341
3 341 94 345
3 344 93 341
3 345 2 344
3 348 346 347
3 347 96 348
3 346 90 347
3 348 95 346
3 337 349 347
3 347 90 337
3 349 96 347
3 337 27 349
3 350 336 346
3 346 95 350
3 336 90 346
3 350 28 336
3 352 351 348
3 348 96 352
3 351 95 348
3 352 7 351
3 355 353 354
3 354 98 355
3 353 92 354
3 355 97 353
3 333 356 354
3 354 92 333
3 356 98 354
3 333 29 356
3 357 338 353
3 353 97 357
3 338 92 353
3 357 27 338
3 359 358 355
3 355 98 359
3 358 97 355
3 359 1 358
3 362 360 361
3 361 101 362
3 360 100 361
3 362 99 360
3 364 363 361
3 361 100 364
3 363 101 361
3 364 31 363
3 366 365 360
3 360 99 366
3 365 100 360
3 366 29 365
3 368 367 362
3 362 101 368
3 367 99 362
3 368 30 367
3 371 369 370
3 370 93 371
3 369 100 370
3 371 102 369
3 365 343 370
3 370 100 365
3 343 93 370
3 365 29 343
3 372 364 369
3 369 102 372
3 364 100 369
3 372 31 364
3 344 373 371
3 371 93 344
3 373 102 371
3 344 2 373
3 376 374 375
3 375 103 376
3 374 99 375
3 376 98 374
3 367 377 375
3 375 99 367
3 377 103 375
3 367 30 377
3 356 366 374
3 374 98 356
3 366 99 374
3 356 29 366
3 378 359 376
3 376 103 378
3 359 98 376
3 378 1 359
3 381 379 380
3 380 105 381
3 379 101 380
3 381 104 379
3 363 382 380
3 380 101 363
3 382 105 380
3 363 31 382
3 383 368 379
3 379 104 383
3 368 101 379
3 383 30 368
3 385 384 381
3 381 105 385
3 384 104 381
3 385 6 384
3 388 386 387
3 387 108 388
3 386 107 387
3 388 106 386
3 390 389 387
3 387 107 390
3 389 108 387
3 390 34 389
3 392 391 386
3 386 106 392
3 391 107 386
3 392 33 391
3 394 393 388
3 388 108 394
3 393 106 388
3 394 32 393
3 397 395 396
3 396 110 397
3 395 107 396
3 397 109 395
3 391 398 396
3 396 107 391
3 398 110 396
3 391 33 398
3 399 390 395
3 395 109 399
3 390 107 395
3 399 34 390
3 401 400 397
3 397 110 401
3 400 109 397
3 401 8 400
3 404 402 403
3 403 112 404
3 402 106 403
3 404 111 402
3 393 405 403
3 403 106 393
3 405 112 403
3 393 32 405
3 406 392 402
3 402 111 406
3 392 106 402
3 406 33 392
3 408 407 404
3 404 112 408
3 407 111 404
3 408 0 407
3 411 409 410
3 410 114 411
3 409 108 410
3 411 113 409
3 389 412 410
3 410 108 389
3 412 114 410
3 389 34 412
3 413 394 409
3 409 113 413
3 394 108 409
3 413 32 394
3 415 414 411
3 411 114 415
3 414 113 411
3 415 11 414
3 418 416 417
3 417 117 418
3 416 116 417
3 418 115 416
3 420 419 417
3 417 116 420
3 419 117 417
3 420 36 419
3 422 421 416
3 416 115 422
3 421 116 416
3 422 34 421
3 424 423 418
3 418 117 424
3 423 115 418
3 424 35 423
3 427 425 426
3 426 109 427
3 425 116 426
3 427 118 425
3 421 399 426
3 426 116 421
3 399 109 426
3 421 34 399
3 428 420 425
3 425 118 428
3 420 116 425
3 428 36 420
3 400 429 427
3 427 109 400
3 429 118 427
3 400 8 429
3 432 430 431
3 431 119 432
3 430 115 431
3 432 114 430
3 423 433 431
3 431 115 423
3 433 119 431
3 423 35 433
3 412 422 430
3 430 114 412
3 422 115 430
3 412 34 422
3 434 415 432
3 432 119 434
3 415 114 432
3 434 11 415
3 437 435 436
3 436 121 437
3 435 117 436
3 437 120 435
3 419 438 436
3 436 117 419
3 438 121 436
3 419 36 438
3 439 424 435
3 435 120 439
3 424 117 435
3 439 35 424
3 441 440 437
3 437 121 441
3 440 120 437
3 441 1 440
3 444 442 443
3 443 124 444
3 442 123 443
3 444 122 442
3 446 445 443
3 443 123 446
3 445 124 443
3 446 39 445
3 448 447 442
3 442 122 448
3 447 123 442
3 448 38 447
3 450 449 444
3 444 124 450
3 449 122 444
3 450 37 449
3 453 451 452
3 452 126 453
3 451 123 452
3 453 125 451
3 447 454 452
3 452 123 447
3 454 126 452
3 447 38 454
3 455 446 451
3 451 125 455
3 446 123 451
3 455 39 446
3 457 456 453
3 453 126 457
3 456 125 453
3 457 9 456
3 460 458 459
3 459 128 460
3 458 122 459
3 460 127 458
3 449 461 459
3 459 122 449
3 461 128 459
3 449 37 461
3 462 448 458
3 458 127 462
3 448 122 458
3 462 38 448
3 464 463 460
3 460 128 464
3 463 127 460
3 464 10 463
3 467 465 466
3 466 130 467
3 465 124 466
3 467 129 465
3 445 468 466
3 466 124 445
3 468 130 466
3 445 39 468
3 469 450 465
3 465 129 469
3 450 124 465
3 469 37 450
3 471 470 467
3 467 130 471
3 470 129 467
3 471 3 470
3 474 472 473
3 473 133 474
3 472 132 473
3 474 131 472
3 476 475 473
3 473 132 476
3 475 133 473
3 476 38 475
3 478 477 472
3 472 131 478
3 477 132 472
3 478 41 477
3 480 479 474
3 474 133 480
3 479 131 474
3 480 40 479
3 483 481 482
3 482 134 483
3 481 132 482
3 483 126 481
3 477 484 482
3 482 132 477
3 484 134 482
3 477 41 484
3 454 476 481
3 481 126 454
3 476 132 481
3 454 38 476
3 485 457 483
3 483 134 485
3 457 126 483
3 485 9 457
3 488 486 487
3 487 136 488
3 486 131 487
3 488 135 486
3 479 489 487
3 487 131 479
3 489 136 487
3 479 40 489
3 490 478 486
3 486 135 490
3 478 131 486
3 490 41 478
3 492 491 488
3 488 136 492
3 491 135 488
3 492 2 491
3 495 493 494
3 494 127 495
3 493 133 494
3 495 137 493
3 475 462 494
3 494 133 475
3 462 127 494
3 475 38 462
3 496 480 493
3 493 137 496
3 480 133 493
3 496 40 480
3 463 497 495
3 495 127 463
3 497 137 495
3 463 10 497
3 500 498 499
3 499 140 500
3 498 139 499
3 500 138 498
3 502 501 499
3 499 139 502
3 501 140 499
3 502 33 501
3 504 503 498
3 498 138 504
3 503 139 498
3 504 13 503
3 506 505 500
3 500 140 506
3 505 138 500
3 506 23 505
3 509 507 508
3 508 47 509
3 507 139 508
3 509 110 507
3 503 182 508
3 508 139 503
3 182 47 508
3 503 13 182
3 398 502 507
3 507 110 398
3 502 139 507
3 398 33 502
3 183 401 509
3 509 47 183
3 401 110 509
3 183 8 401
3 512 510 511
3 511 79 512
3 510 138 511
3 512 46 510
3 505 294 511
3 511 138 505
3 294 79 511
3 505 23 294
3 174 504 510
3 510 46 174
3 504 138 510
3 174 13 504
3 295 177 512
3 512 79 295
3 177 46 512
3 295 4 177
3 515 513 514
3 514 111 515
3 513 140 514
3 515 78 513
3 501 406 514
3 514 140 501
3 406 111 514
3 501 33 406
3 286 506 513
3 513 78 286
3 506 140 513
3 286 23 506
3 407 289 515
3 515 111 407
3 289 78 515
3 407 0 289
3 518 516 517
3 517 143 518
3 516 142 517
3 518 141 516
3 520 519 517
3 517 142 520
3 519 143 517
3 520 19 519
3 522 521 516
3 516 141 522
3 521 142 516
3 522 32 521
3 524 523 518
3 518 143 524
3 523 141 518
3 524 26 523
3 527 525 526
3 526 113 527
3 525 142 526
3 527 66 525
3 521 413 526
3 526 142 521
3 413 113 526
3 521 32 413
3 244 520 525
3 525 66 244
3 520 142 525
3 244 19 520
3 414 247 527
3 527 113 414
3 247 66 527
3 414 11 247
3 530 528 529
3 529 86 530
3 528 141 529
3 530 112 528
3 523 316 529
3 529 141 523
3 316 86 529
3 523 26 316
3 405 522 528
3 528 112 405
3 522 141 528
3 405 32 522
3 317 408 530
3 530 86 317
3 408 112 530
3 317 0 408
3 533 531 532
3 532 61 533
3 531 143 532
3 533 89 531
3 519 231 532
3 532 143 519
3 231 61 532
3 519 19 231
3 326 524 531
3 531 89 326
3 524 143 531
3 326 26 524
3 232 329 533
3 533 61 232
3 329 89 533
3 232 5 329
3 536 534 535
3 535 146 536
3 534 145 535
3 536 144 534
3 538 537 535
3 535 145 538
3 537 146 535
3 538 22 537
3 540 539 534
3 534 144 540
3 539 145 534
3 540 16 539
3 542 541 536
3 536 146 542
3 541 144 536
3 542 39 541
3 545 543 544
3 544 54 545
3 543 145 544
3 545 80 543
3 539 204 544
3 544 145 539
3 204 54 544
3 539 16 204
3 293 538 543
3 543 80 293
3 538 145 543
3 293 22 538
3 205 296 545
3 545 54 205
3 296 80 545
3 205 4 296
3 548 546 547
3 547 125 548
3 546 144 547
3 548 57 546
3 541 455 547
3 547 144 541
3 455 125 547
3 541 39 455
3 214 540 546
3 546 57 214
3 540 144 546
3 214 16 540
3 456 217 548
3 548 125 456
3 217 57 548
3 456 9 217
3 551 549 550
3 550 81 551
3 549 146 550
3 551 130 549
3 537 301 550
3 550 146 537
3 301 81 550
3 537 22 301
3 468 542 549
3 549 130 468
3 542 146 549
3 468 39 542
3 302 471 551
3 551 81 302
3 471 130 551
3 302 3 471
3 554 552 553
3 553 149 554
3 552 148 553
3 554 147 552
3 556 555 553
3 553 148 556
3 555 149 553
3 556 21 555
3 558 557 552
3 552 147 558
3 557 148 552
3 558 25 557
3 560 559 554
3 554 149 560
3 559 147 554
3 560 37 559
3 563 561 562
3 562 88 563
3 561 148 562
3 563 70 561
3 557 327 562
3 562 148 557
3 327 88 562
3 557 25 327
3 260 556 561
3 561 70 260
3 556 148 561
3 260 21 556
3 328 261 563
3 563 88 328
3 261 70 563
3 328 5 261
3 566 564 565
3 565 129 566
3 564 147 565
3 566 87 564
3 559 469 565
3 565 147 559
3 469 129 565
3 559 37 469
3 321 558 564
3 564 87 321
3 558 147 564
3 321 25 558
3 470 322 566
3 566 129 470
3 322 87 566
3 470 3 322
3 569 567 568
3 568 71 569
3 567 149 568
3 569 128 567
3 555 266 568
3 568 149 555
3 266 71 568
3 555 21 266
3 461 560 567
3 567 128 461
3 560 149 567
3 461 37 560
3 267 464 569
3 569 71 267
3 464 128 569
3 267 10 464
3 572 570 571
3 571 152 572
3 570 151 571
3 572 150 570
3 574 573 571
3 571 151 574
3 573 152 571
3 574 27 573
3 576 575 570
3 570 150 576
3 575 151 570
3 576 12 575
3 578 577 572
3 572 152 578
3 577 150 572
3 578 36 577
3 581 579 580
3 580 49 581
3 579 151 580
3 581 96 579
3 575 189 580
3 580 151 575
3 189 49 580
3 575 12 189
3 349 574 579
3 579 96 349
3 574 151 579
3 349 27 574
3 190 352 581
3 581 49 190
3 352 96 581
3 190 7 352
3 584 582 583
3 583 118 584
3 582 150 583
3 584 48 582
3 577 428 583
3 583 150 577
3 428 118 583
3 577 36 428
3 181 576 582
3 582 48 181
3 576 150 582
3 181 12 576
3 429 184 584
3 584 118 429
3 184 48 584
3 429 8 184
3 587 585 586
3 586 97 587
3 585 152 586
3 587 121 585
3 573 357 586
3 586 152 573
3 357 97 586
3 573 27 357
3 438 578 585
3 585 121 438
3 578 152 585
3 438 36 578
3 358 441 587
3 587 97 358
3 441 121 587
3 358 1 441
3 590 588 589
3 589 155 590
3 588 154 589
3 590 153 588
3 592 591 589
3 589 154 592
3 591 155 589
3 592 17 591
3 594 593 588
3 588 153 594
3 593 154 588
3 594 30 593
3 596 595 590
3 590 155 596
3 595 153 590
3 596 35 595
3 599 597 598
3 598 104 599
3 597 154 598
3 599 64 597
3 593 383 598
3 598 154 593
3 383 104 598
3 593 30 383
3 237 592 597
3 597 64 237
3 592 154 597
3 237 17 592
3 384 240 599
3 599 104 384
3 240 64 599
3 384 6 240
3 602 600 601
3 601 120 602
3 600 153 601
3 602 103 600
3 595 439 601
3 601 153 595
3 439 120 601
3 595 35 439
3 377 594 600
3 600 103 377
3 594 153 600
3 377 30 594
3 440 378 602
3 602 120 440
3 378 103 602
3 440 1 378
3 605 603 604
3 604 65 605
3 603 155 604
3 605 119 603
3 591 245 604
3 604 155 591
3 245 65 604
3 591 17 245
3 433 596 603
3 603 119 433
3 596 155 603
3 433 35 596
3 246 434 605
3 605 65 246
3 434 119 605
3 246 11 434
3 608 606 607
3 607 158 608
3 606 157 607
3 608 156 606
3 610 609 607
3 607 157 610
3 609 158 607
3 610 15 609
3 612 611 606
3 606 156 612
3 611 157 606
3 612 28 611
3 614 613 608
3 608 158 614
3 613 156 608
3 614 41 613
3 617 615 616
3 616 95 617
3 615 157 616
3 617 55 615
3 611 350 616
3 616 157 611
3 350 95 616
3 611 28 350
3 209 610 615
3 615 55 209
3 610 157 615
3 209 15 610
3 351 210 617
3 617 95 351
3 210 55 617
3 351 7 210
3 620 618 619
3 619 135 620
3 618 156 619
3 620 94 618
3 613 490 619
3 619 156 613
3 490 135 619
3 613 41 490
3 342 612 618
3 618 94 342
3 612 156 618
3 342 28 612
3 491 345 620
3 620 135 491
3 345 94 620
3 491 2 345
3 623 621 622
3 622 56 623
3 621 158 622
3 623 134 621
3 609 215 622
3 622 158 609
3 215 56 622
3 609 15 215
3 484 614 621
3 621 134 484
3 614 158 621
3 484 41 614
3 216 485 623
3 623 56 216
3 485 134 623
3 216 9 485
3 626 624 625
3 625 161 626
3 624 160 625
3 626 159 624
3 628 627 625
3 625 160 628
3 627 161 625
3 628 31 627
3 630 629 624
3 624 159 630
3 629 160 624
3 630 20 629
3 632 631 626
3 626 161 632
3 631 159 626
3 632 40 631
3 635 633 634
3 634 73 635
3 633 160 634
3 635 105 633
3 629 272 634
3 634 160 629
3 272 73 634
3 629 20 272
3 382 628 633
3 633 105 382
3 628 160 633
3 382 31 628
3 273 385 635
3 635 73 273
3 385 105 635
3 273 6 385
3 638 636 637
3 637 137 638
3 636 159 637
3 638 72 636
3 631 496 637
3 637 159 631
3 496 137 637
3 631 40 496
3 265 630 636
3 636 72 265
3 630 159 636
3 265 20 630
3 497 268 638
3 638 137 497
3 268 72 638
3 497 10 268
3 641 639 640
3 640 102 641
3 639 161 640
3 641 136 639
3 627 372 640
3 640 161 627
3 372 102 640
3 627 31 372
3 489 632 639
3 639 136 489
3 632 161 639
3 489 40 632
3 373 492 641
3 641 102 373
3 492 136 641
3 373 2 492
