# vtk DataFile Version 3.0
this file was written using fslvtkio
ASCII
DATASET POLYDATA
POINTS 642 float
128.33 113.081 77.7698
99.1838 109.07 74.8506
106.279 95.2212 67.8497
125.369 97.1887 70.8562
123.422 100.959 95.0316
123.757 102.892 55.553
110.146 100.984 51.2416
104.822 99.0589 92.8406
113.234 112.207 86.2214
115.345 91.9113 77.2811
117.432 89.7775 57.064
114.136 115.738 69.2103
107.73 104.83 93.4204
118.645 106.125 94.2367
113.19 98.998 98.6915
110.242 94.1768 87.4459
119.081 94.4832 88.6119
112.289 107.917 60.6469
118.44 101.513 45.866
119.397 109.705 61.9566
113.631 94.3087 47.7607
123.652 94.5861 50.1111
124.442 99.8098 83.2736
127.071 108.198 88.6534
126.062 106.086 75.0094
125.805 99.1 61.7023
124.894 109.787 67.69
100.419 105.099 85.98
105.33 98.0569 81.0282
104.051 103.293 71.7051
105.893 106.537 64.7463
107.435 96.4201 57.4926
122.238 117.993 73.7437
122.44 115.384 85.3955
112.47 118.1 79.9524
105.21 115.163 71.8691
103.537 113.362 84.4164
123.576 91.9342 63.0649
115.516 87.9244 68.6836
120.981 92.2263 73.8966
110.278 90.4603 59.5766
110.67 92.0569 72.8009
113.14 105.398 93.6414
116.545 103.823 99.8992
109.281 102.987 99.5335
119.902 99.0063 99.1193
122.95 105.104 98.0258
116.121 108.365 88.4378
110.837 107.625 88.0526
103.587 102.517 96.0964
107.524 97.6416 97.633
111.206 95.0618 94.0157
116.865 95.7916 94.6674
114.449 94.2937 88.7912
121.507 96.7242 92.492
107.328 95.61 90.8324
112.923 93.0787 82.5917
117.109 93.592 83.2012
115.34 103.978 52.5049
118.834 104.701 53.86
116.076 107.481 60.5635
121.243 105.435 57.6414
121.658 102.327 50.0547
114.166 101.046 46.9026
111.88 104.202 54.6468
112.815 112.822 64.6514
117.198 113.832 65.2936
118.839 95.6562 48.2264
122.17 98.853 45.8885
116.219 98.3692 43.6737
124.15 98.8449 51.5844
120.709 90.8547 52.6432
115.69 90.3523 51.4824
111.317 97.1181 46.9132
125.579 104.496 86.032
127.198 106.871 81.3176
125.271 102.593 79.1232
128.358 109.54 76.2335
127.842 110.585 82.6293
125.716 105.09 92.8681
123.766 100.761 89.2429
124.656 98.6941 76.7363
125.144 101.053 72.6773
125.495 102.26 68.3188
125.677 108.354 71.5578
123.65 104.121 65.2395
128.118 112.157 72.1646
125.669 98.4118 66.4141
124.824 100.759 58.4478
122.578 105.564 62.177
102.993 101.829 83.9274
104.12 100.196 76.5303
101.687 103.817 78.656
105.888 99.0344 70.0476
106.127 96.6075 74.3266
105.479 98.9515 87.1509
101.732 102.133 90.694
99.6189 107.092 80.0494
100.507 106.014 73.483
104.819 105.048 68.4485
106.671 99.698 64.6795
108.411 101.46 60.9999
106.067 95.7962 62.6864
101.002 108.259 69.3219
108.907 103.195 57.527
108.533 98.2268 53.3489
123.092 119.13 80.6141
118.027 118.737 83.5924
117.91 119.577 77.4433
112.396 116.515 84.2086
117.746 114.2 86.6206
126.451 115.488 82.1903
126.04 116.363 75.9765
118.074 117.502 71.3328
113.121 117.244 74.6094
108.054 117.624 76.4585
106.835 117.539 82.7825
103.097 116.144 78.7295
108.271 113.254 86.1685
109.737 116.125 70.1343
101.58 112.683 73.2797
100.008 112.14 80.0999
120.566 89.2153 66.4445
120.577 86.306 70.87
124.222 89.4518 68.6917
118.366 91.2531 75.8639
115.53 86.8986 72.6669
116.369 90.3891 63.7142
120.623 90.7528 59.7158
125.123 93.8783 66.4804
123.96 94.048 72.9104
110.035 90.1824 67.0456
111.343 85.82 69.8173
112.581 88.6926 65.1619
112.798 91.1456 75.3227
107.546 92.9632 70.6221
107.628 92.0058 63.5494
113.758 90.3488 57.6474
123.521 107.678 92.4128
120.327 109.419 87.6143
125.161 111.562 86.5031
124.759 114.445 70.2327
120.953 114.95 67.6036
122.519 110.417 64.3914
120.406 93.5742 81.2362
122.193 96.9446 86.2019
123.286 95.6453 79.0198
126.537 94.8476 61.7083
125.409 96.3083 55.6252
124.174 92.0324 56.244
106.636 107.946 86.5525
103.22 105.262 90.871
101.766 109.039 84.8635
104.438 111.225 67.343
108.718 107.594 61.7958
108.447 112.898 65.518
107.61 94.4649 77.4853
107.426 95.7778 84.3409
109.972 92.9427 80.1326
111.26 90.2056 52.3993
109.578 94.0074 51.111
107.767 92.5915 57.7124
114.5 104.613 96.8154
112.892 103.506 98.9732
111.417 104.105 96.5668
111.202 101.187 99.9729
114.813 101.471 99.6985
117.572 104.895 97.1488
115.937 105.681 93.9409
110.325 105.109 93.5437
108.399 103.679 96.553
118.389 101.732 100.548
119.857 104.317 99.4202
121.396 102.182 99.8584
120.493 105.342 96.4779
116.699 99.3683 99.3412
122.03 99.9074 97.4397
123.585 102.653 97.5529
114.719 106.596 91.0174
111.977 106.19 90.793
113.465 108.037 88.1868
109.451 106.012 90.5555
117.186 106.975 91.2785
114.75 110.307 86.9965
111.965 109.992 86.7893
106.384 102.322 98.4376
108.011 100.156 99.9166
105.485 100.071 98.2009
110.174 98.1959 98.9688
105.685 103.555 95.3403
103.989 100.284 95.4054
105.806 98.4121 95.6315
113.932 95.9298 94.551
115.705 94.3974 91.861
112.9 93.5872 91.6797
116.855 94.2963 88.9082
118.117 94.1941 91.8433
115.284 97.6352 97.1742
112 96.5352 97.216
110.448 93.3259 90.8371
112.219 93.9682 88.3238
119.358 95.7484 93.7372
118.1 97.0724 97.3792
120.718 97.6067 96.0352
120.57 94.87 90.6523
122.442 98.81 94.0016
109.432 95.9571 96.4629
109.061 94.8804 92.7421
107.354 96.5298 94.4072
108.639 94.2863 89.2762
106.043 97.3787 92.0905
113.575 94.4869 85.8292
115.937 94.7345 86.2909
114.904 93.5049 83.2171
117.876 94.7357 85.9265
111.829 94.1296 85.2158
114.33 92.6962 80.2143
116.053 92.9447 80.4795
117.13 104.056 52.8902
117.542 105.986 57.1829
115.525 105.616 56.6945
117.599 108.442 60.852
118.813 106.92 58.6831
118.56 103.317 49.7932
116.852 102.946 48.9103
113.991 105.878 57.1959
114.379 107.461 60.2463
120.081 105.446 55.8294
120.18 103.575 51.3597
121.666 104.193 53.6611
120.082 102.011 47.7461
120.104 107.11 59.9031
122.655 104.347 56.4732
122.933 102.788 52.8213
114.941 102.663 49.0545
113.687 104.333 53.5615
112.985 102.82 50.7236
112.304 105.768 57.6294
116.275 101.384 45.6979
112.143 101.221 49.105
111.02 102.829 52.3981
114.493 110.27 62.3228
116.448 110.839 62.6455
115.1 112.535 64.6118
118.471 112.065 63.5489
112.307 110.767 62.3396
113.491 114.425 67.045
115.681 114.883 67.2612
120.509 97.4537 46.6338
119.529 98.9079 43.9896
118.119 97.5491 45.95
117.365 100.174 43.6243
120.44 100.545 45.0806
122.72 96.7617 47.9277
121.18 95.3496 49.038
116.455 95.5477 47.6289
115.404 96.8554 46.0098
121.918 100.554 47.5653
123.199 98.6234 48.6303
123.115 100.879 50.7334
124.345 96.8461 50.1543
124.158 101.019 53.5001
119.874 92.9365 50.0781
117.373 93.2279 49.6636
118.273 90.5976 51.3477
115.121 92.8543 49.1813
122.117 92.8208 51.1579
119.025 89.8643 54.4244
116.834 89.7289 53.9512
113.347 97.5589 44.6534
114.764 99.6843 44.6182
112.405 99.4214 46.8348
112.295 95.3602 46.5994
110.62 99.1486 49.0696
126.65 105.486 83.5082
126.22 104.863 80.0422
125.479 103.681 82.3048
125.843 104.207 77.0301
126.671 106.292 78.2083
127.208 107.512 84.8481
126.863 106.157 87.4883
124.859 102.476 84.5396
125.078 101.236 81.5453
127.494 108.294 78.5661
127.391 108.822 82.0287
128.514 109.895 79.179
127.163 109.358 85.4856
126.807 107.941 76.0086
129.132 111.09 76.7323
128.577 111.821 80.1074
125.529 104.948 89.4398
124.39 102.756 87.5822
124.334 103.114 91.1799
124.017 100.476 86.1253
127.357 106.638 91.0517
124.461 103.194 94.523
123.691 100.868 92.2754
125.025 100.496 78.3211
125.133 102.06 76.0025
124.856 100.072 74.939
125.528 103.341 73.8667
124.684 99.1411 80.0769
124.874 97.9828 73.5814
125.028 99.2542 71.7458
125.142 105.839 70.2508
124.136 106.515 68.8178
125.108 103.327 66.5461
123.801 107.075 66.9058
125.582 109.068 69.3633
125.753 107.481 73.2729
125.912 104.378 71.6478
125.587 100.776 65.1141
124.578 101.434 63.4947
127.803 110.096 71.3346
127.099 109.075 73.794
128.997 110.691 73.9243
127.019 111.067 69.6317
128.505 112.667 74.9034
125.341 101.777 70.5574
125.515 100.097 67.0705
125.23 99.727 69.449
125.797 98.8617 64.1151
125.531 97.8966 68.7616
123.622 102.05 62.1145
123.02 105.039 63.8393
123.996 103.306 60.328
123.693 107.747 65.0709
125.095 99.9415 60.2149
124.44 101.968 56.9727
123.363 104.209 58.9261
103.469 100.93 79.9996
103.019 102.288 77.5513
102.195 102.609 81.1249
102.839 103.706 75.092
103.899 101.661 74.1437
104.56 99.0811 79.1399
104.25 100.159 82.6198
101.433 103.29 84.8497
100.917 104.251 82.2024
104.949 99.7126 73.2565
105.538 98.6855 75.7931
106.063 97.8791 72.3361
105.716 97.4283 77.611
105.025 100.971 70.962
106.087 97.1474 69.0081
106.245 96.0637 70.9658
104.301 100.547 85.9156
102.588 102.219 87.2433
103.792 100.85 89.2358
100.535 103.463 88.5276
105.37 98.6317 84.0404
104.964 99.144 90.083
103.338 100.773 92.3718
100.505 105.317 79.5306
101.303 104.839 76.0122
99.7206 106.291 76.6012
102.718 104.705 73.2625
100.36 106.041 82.8126
98.9729 107.91 77.299
99.0671 107.128 73.8215
106.427 102.78 66.6649
107.713 100.842 63.0024
107.022 103.465 65.0499
107.787 98.8042 59.2892
107.066 98.0148 61.2704
105.462 101.548 68.2045
104.773 104.344 69.9693
105.329 105.698 66.5527
107.46 104.107 63.2684
106.273 97.593 63.6618
106.134 99.3239 67.5059
106.079 97.2561 66.3314
106.477 95.8913 59.9233
106.152 95.5352 65.4267
102.634 105.528 71.1113
102.539 106.408 68.8838
100.03 106.675 70.9613
103.375 107.728 67.2744
99.5592 108.594 71.7853
108.333 102.388 59.3047
107.892 99.7519 57.1845
108.198 100.862 55.274
108.155 97.4334 55.6441
108.298 104.59 61.5109
109.075 102.366 54.1954
108.971 99.6889 52.0233
120.717 119.308 82.2325
118.1 119.368 80.5758
120.556 119.668 79.0913
115.447 118.897 79.0081
115.43 118.685 81.7074
120.436 117.624 84.7265
122.828 118.033 83.6566
122.459 118.72 77.3342
120.297 118.985 76.0327
115.252 117.626 83.9821
117.799 116.82 85.4794
115.259 115.747 85.671
120.104 114.969 86.0413
112.337 117.723 82.3169
112.676 114.603 85.4644
115.368 113.194 86.5609
125.023 117.666 81.6589
124.706 117.955 78.4168
126.456 116.361 79.2644
124.163 117.57 75.214
124.706 116.089 84.1921
127.866 114.364 79.8902
127.495 114.811 76.7082
118.012 118.629 74.4339
115.519 118.485 76.0861
115.69 117.698 73.136
112.897 118.015 77.3119
120.161 118.031 72.6299
116.036 116.708 70.0099
113.588 116.652 71.7191
107.517 117.987 79.5937
104.788 117.445 80.8377
105.424 117.397 77.5214
102.68 115.677 81.8151
104.593 115.989 83.715
109.519 118.067 81.2988
110.102 118.073 78.4545
106.165 116.411 74.4813
103.865 115.747 75.6664
107.18 115.742 84.7474
109.624 117.258 83.7517
109.935 115.391 85.5939
105.742 113.545 85.3677
110.865 112.73 86.4688
110.649 117.625 75.6393
108.651 116.702 73.5333
111.112 116.721 72.6839
107.326 116.031 70.9752
111.975 115.858 69.6722
101.878 114.412 76.2554
101.222 114.293 79.4029
100.227 112.596 76.7415
101.495 113.328 82.4628
103.336 114.15 72.8428
100.195 110.858 73.7181
99.2576 110.516 77.3095
120.888 86.4915 68.3287
123.678 86.1223 69.3486
122.879 87.6992 67.3062
123.036 89.2251 70.6978
122.01 88.1638 71.5435
118.428 87.502 69.98
118.703 89.3016 68.0858
122.178 90.0293 64.9236
123.551 90.507 66.461
119.888 88.6524 73.1402
118.071 86.7644 72.2358
117.592 89.0953 74.2157
115.611 86.2398 70.2817
120.028 91.1741 74.5196
116.684 91.639 76.6321
115.474 89.2692 74.8407
118.563 90.4638 65.3685
120.462 90.4146 63.5438
118.673 90.4086 61.9755
122.159 91.1935 61.5138
116.14 89.7264 66.8212
116.789 90.2449 60.299
119.17 89.9509 58.3397
123.811 92.1655 67.9643
122.944 91.9033 70.4255
124.138 93.7321 69.7658
122.087 92.764 73.0482
124.633 92.5014 64.9317
125.466 95.3332 68.6377
124.964 95.6206 71.8897
109.967 87.6503 68.4941
111.742 85.7793 67.1979
110.879 88.983 65.8154
113.736 88.1304 67.1637
113.708 85.5153 68.774
110.724 88.7789 70.7214
110.108 90.3779 69.7096
109.998 90.2663 63.508
111.399 89.9543 62.343
113.445 86.1904 71.4034
112.139 88.6041 72.2275
113.79 88.8739 73.902
111.705 91.2672 73.7001
114.066 91.5049 76.7558
109.582 92.0989 68.6273
109.227 91.483 65.3133
107.985 92.7224 67.19
108.684 90.9771 61.3093
109.06 92.3701 71.8443
106.515 93.9919 69.3665
106.481 93.3528 65.8522
113.158 90.2903 61.7848
114.361 89.5792 64.7697
114.905 90.2745 60.8351
111.971 90.3156 58.603
115.571 89.9819 57.2356
121.629 108.251 90.0829
122.565 110.498 87.0679
123.917 109.165 88.877
124.106 113.544 85.8084
121.463 112.519 86.4627
119.351 107.423 90.8348
121.034 106.695 93.4142
125.876 108.458 90.772
126.237 110.063 87.4095
119.374 112.052 86.6898
118.275 108.95 87.9111
116.971 111.183 86.9408
122.931 106.458 94.9727
126.112 107.283 93.4105
124.893 105.089 95.6242
126.997 111.569 84.9934
126.176 113.966 84.5002
127.517 113.106 82.2794
122.907 114.939 68.7668
122.034 112.862 65.7054
123.801 112.711 67.3093
120.928 110.027 62.822
120.247 112.735 64.6306
121.583 116.536 70.694
123.63 116.364 71.983
125.485 112.198 68.6153
123.716 110.269 66.1578
119.149 114.533 66.2984
119.686 116.483 69.4937
117.667 115.695 68.2635
125.317 115.593 73.1382
126.477 113.415 71.212
127.113 114.315 73.9195
122.562 107.97 63.4261
121.197 107.511 61.5621
121.943 105.523 60.0181
121.089 95.4227 83.7533
122.703 96.2673 82.5437
121.943 94.4641 80.2083
123.767 97.722 81.3075
123.4 98.2067 84.6542
120.615 95.8358 87.3425
119.509 94.9711 85.0759
120.946 93.0024 77.4145
122.628 93.6046 76.8036
122.997 98.6923 87.7501
121.916 96.7151 89.5152
122.942 98.7433 90.9782
118.789 93.4034 82.4912
119.296 92.6774 78.146
117.594 92.9533 79.4067
123.707 94.5493 75.7722
124.074 97.1517 77.9458
124.662 96.4055 74.7951
125.962 95.4393 58.5412
125.008 94.0974 55.487
125.503 93.3988 58.7065
124.057 92.9515 52.9273
124.8 95.2447 52.5658
125.989 97.5889 58.6621
126.456 96.9088 61.4282
125.508 93.1284 61.8536
123.971 91.9458 59.67
124.892 97.3639 53.2185
125.364 98.4765 56.7739
124.907 99.7668 54.9704
126.793 96.73 64.0515
126.278 93.956 64.0386
126.26 96.0081 66.5489
122.422 90.9987 57.7903
122.605 91.298 53.8848
120.806 90.2502 56.0885
105.18 106.35 88.5467
102.979 106.865 87.3039
104.317 108.626 85.9138
100.94 107.024 85.2932
101.305 105.381 88.6886
105.45 104.881 92.1142
107.268 106.032 89.9375
105.152 110.759 85.535
102.412 111.262 84.6208
100.472 104.27 91.3664
103.359 104.198 93.4684
101.962 102.141 93.507
108.761 107.798 87.1367
107.391 110.741 85.9901
109.782 110.422 86.5549
100.76 110.814 82.4622
100.324 108.238 82.6441
99.429 109.501 79.8316
106.227 109.746 64.3236
108.229 110.402 63.2066
106.416 112.237 66.2793
110.23 110.979 62.7124
110.602 107.727 61.0745
107.232 106.951 62.9818
104.735 108.599 65.587
104.716 113.504 69.4174
106.9 114.382 68.5934
110.823 105.471 58.7495
109.401 105.019 60.0796
110.191 103.863 55.9621
102.684 109.669 68.0445
103.071 112.189 70.3633
101.143 110.512 70.8721
109.066 114.758 67.8258
110.656 113.032 64.8054
111.348 114.627 67.2558
107.56 95.2129 80.9299
108.916 94.4958 82.4677
108.661 93.4804 78.7756
110.273 94.0848 84.0286
108.845 94.8737 85.8437
106.158 96.7206 82.6688
106.367 96.1999 79.314
108.609 92.6397 75.4062
109.997 92.154 76.402
107.539 95.6681 87.7711
106.464 97.1502 85.9049
106.196 97.2698 89.1202
106.694 95.5234 76.0385
107.688 93.4971 74.0298
106.753 94.6515 72.5917
111.362 92.1759 77.6183
111.301 92.75 81.6983
112.774 92.3323 79.0423
110.439 91.9741 51.0801
109.08 93.0284 54.0462
109.512 91.3851 54.4105
107.598 94.2443 57.0166
108.321 94.9835 54.243
111.21 93.5423 48.7882
112.541 91.8526 49.4928
110.559 90.2601 56.0001
108.804 91.1798 57.9536
108.967 96.0146 52.148
110.49 95.2879 48.8026
109.832 97.3423 49.9135
113.504 90.7448 51.2009
112.306 89.9441 54.8897
114.622 89.9835 54.3161
107.386 92.0448 60.6388
106.465 93.8839 60.1428
106.21 93.5613 63.0866
POLYGONS 1280  5120
3 164 162 163
3 163 44 164
3 162 43 163
3 164 42 162
3 166 165 163
3 163 43 166
3 165 44 163
3 166 14 165
3 168 167 162
3 162 42 168
3 167 43 162
3 168 13 167
3 170 169 164
3 164 44 170
3 169 42 164
3 170 12 169
3 173 171 172
3 172 46 173
3 171 43 172
3 173 45 171
3 167 174 172
3 172 43 167
3 174 46 172
3 167 13 174
3 175 166 171
3 171 45 175
3 166 43 171
3 175 14 166
3 177 176 173
3 173 46 177
3 176 45 173
3 177 4 176
3 180 178 179
3 179 48 180
3 178 42 179
3 180 47 178
3 169 181 179
3 179 42 169
3 181 48 179
3 169 12 181
3 182 168 178
3 178 47 182
3 168 42 178
3 182 13 168
3 184 183 180
3 180 48 184
3 183 47 180
3 184 8 183
3 187 185 186
3 186 50 187
3 185 44 186
3 187 49 185
3 165 188 186
3 186 44 165
3 188 50 186
3 165 14 188
3 189 170 185
3 185 49 189
3 170 44 185
3 189 12 170
3 191 190 187
3 187 50 191
3 190 49 187
3 191 7 190
3 194 192 193
3 193 53 194
3 192 52 193
3 194 51 192
3 196 195 193
3 193 52 196
3 195 53 193
3 196 16 195
3 198 197 192
3 192 51 198
3 197 52 192
3 198 14 197
3 200 199 194
3 194 53 200
3 199 51 194
3 200 15 199
3 203 201 202
3 202 45 203
3 201 52 202
3 203 54 201
3 197 175 202
3 202 52 197
3 175 45 202
3 197 14 175
3 204 196 201
3 201 54 204
3 196 52 201
3 204 16 196
3 176 205 203
3 203 45 176
3 205 54 203
3 176 4 205
3 208 206 207
3 207 55 208
3 206 51 207
3 208 50 206
3 199 209 207
3 207 51 199
3 209 55 207
3 199 15 209
3 188 198 206
3 206 50 188
3 198 51 206
3 188 14 198
3 210 191 208
3 208 55 210
3 191 50 208
3 210 7 191
3 213 211 212
3 212 57 213
3 211 53 212
3 213 56 211
3 195 214 212
3 212 53 195
3 214 57 212
3 195 16 214
3 215 200 211
3 211 56 215
3 200 53 211
3 215 15 200
3 217 216 213
3 213 57 217
3 216 56 213
3 217 9 216
3 220 218 219
3 219 60 220
3 218 59 219
3 220 58 218
3 222 221 219
3 219 59 222
3 221 60 219
3 222 19 221
3 224 223 218
3 218 58 224
3 223 59 218
3 224 18 223
3 226 225 220
3 220 60 226
3 225 58 220
3 226 17 225
3 229 227 228
3 228 62 229
3 227 59 228
3 229 61 227
3 223 230 228
3 228 59 223
3 230 62 228
3 223 18 230
3 231 222 227
3 227 61 231
3 222 59 227
3 231 19 222
3 233 232 229
3 229 62 233
3 232 61 229
3 233 5 232
3 236 234 235
3 235 64 236
3 234 58 235
3 236 63 234
3 225 237 235
3 235 58 225
3 237 64 235
3 225 17 237
3 238 224 234
3 234 63 238
3 224 58 234
3 238 18 224
3 240 239 236
3 236 64 240
3 239 63 236
3 240 6 239
3 243 241 242
3 242 66 243
3 241 60 242
3 243 65 241
3 221 244 242
3 242 60 221
3 244 66 242
3 221 19 244
3 245 226 241
3 241 65 245
3 226 60 241
3 245 17 226
3 247 246 243
3 243 66 247
3 246 65 243
3 247 11 246
3 250 248 249
3 249 69 250
3 248 68 249
3 250 67 248
3 252 251 249
3 249 68 252
3 251 69 249
3 252 18 251
3 254 253 248
3 248 67 254
3 253 68 248
3 254 21 253
3 256 255 250
3 250 69 256
3 255 67 250
3 256 20 255
3 259 257 258
3 258 70 259
3 257 68 258
3 259 62 257
3 253 260 258
3 258 68 253
3 260 70 258
3 253 21 260
3 230 252 257
3 257 62 230
3 252 68 257
3 230 18 252
3 261 233 259
3 259 70 261
3 233 62 259
3 261 5 233
3 264 262 263
3 263 72 264
3 262 67 263
3 264 71 262
3 255 265 263
3 263 67 255
3 265 72 263
3 255 20 265
3 266 254 262
3 262 71 266
3 254 67 262
3 266 21 254
3 268 267 264
3 264 72 268
3 267 71 264
3 268 10 267
3 271 269 270
3 270 63 271
3 269 69 270
3 271 73 269
3 251 238 270
3 270 69 251
3 238 63 270
3 251 18 238
3 272 256 269
3 269 73 272
3 256 69 269
3 272 20 256
3 239 273 271
3 271 63 239
3 273 73 271
3 239 6 273
3 276 274 275
3 275 76 276
3 274 75 275
3 276 74 274
3 278 277 275
3 275 75 278
3 277 76 275
3 278 24 277
3 280 279 274
3 274 74 280
3 279 75 274
3 280 23 279
3 282 281 276
3 276 76 282
3 281 74 276
3 282 22 281
3 285 283 284
3 284 78 285
3 283 75 284
3 285 77 283
3 279 286 284
3 284 75 279
3 286 78 284
3 279 23 286
3 287 278 283
3 283 77 287
3 278 75 283
3 287 24 278
3 289 288 285
3 285 78 289
3 288 77 285
3 289 0 288
3 292 290 291
3 291 80 292
3 290 74 291
3 292 79 290
3 281 293 291
3 291 74 281
3 293 80 291
3 281 22 293
3 294 280 290
3 290 79 294
3 280 74 290
3 294 23 280
3 296 295 292
3 292 80 296
3 295 79 292
3 296 4 295
3 299 297 298
3 298 82 299
3 297 76 298
3 299 81 297
3 277 300 298
3 298 76 277
3 300 82 298
3 277 24 300
3 301 282 297
3 297 81 301
3 282 76 297
3 301 22 282
3 303 302 299
3 299 82 303
3 302 81 299
3 303 3 302
3 306 304 305
3 305 85 306
3 304 84 305
3 306 83 304
3 308 307 305
3 305 84 308
3 307 85 305
3 308 26 307
3 310 309 304
3 304 83 310
3 309 84 304
3 310 24 309
3 312 311 306
3 306 85 312
3 311 83 306
3 312 25 311
3 315 313 314
3 314 77 315
3 313 84 314
3 315 86 313
3 309 287 314
3 314 84 309
3 287 77 314
3 309 24 287
3 316 308 313
3 313 86 316
3 308 84 313
3 316 26 308
3 288 317 315
3 315 77 288
3 317 86 315
3 288 0 317
3 320 318 319
3 319 87 320
3 318 83 319
3 320 82 318
3 311 321 319
3 319 83 311
3 321 87 319
3 311 25 321
3 300 310 318
3 318 82 300
3 310 83 318
3 300 24 310
3 322 303 320
3 320 87 322
3 303 82 320
3 322 3 303
3 325 323 324
3 324 89 325
3 323 85 324
3 325 88 323
3 307 326 324
3 324 85 307
3 326 89 324
3 307 26 326
3 327 312 323
3 323 88 327
3 312 85 323
3 327 25 312
3 329 328 325
3 325 89 329
3 328 88 325
3 329 5 328
3 332 330 331
3 331 92 332
3 330 91 331
3 332 90 330
3 334 333 331
3 331 91 334
3 333 92 331
3 334 29 333
3 336 335 330
3 330 90 336
3 335 91 330
3 336 28 335
3 338 337 332
3 332 92 338
3 337 90 332
3 338 27 337
3 341 339 340
3 340 94 341
3 339 91 340
3 341 93 339
3 335 342 340
3 340 91 335
3 342 94 340
3 335 28 342
3 343 334 339
3 339 93 343
3 334 91 339
3 343 29 334
3 345 344 341
3 341 94 345
3 344 93 341
3 345 2 344
3 348 346 347
3 347 96 348
3 346 90 347
3 348 95 346
3 337 349 347
3 347 90 337
3 349 96 347
3 337 27 349
3 350 336 346
3 346 95 350
3 336 90 346
3 350 28 336
3 352 351 348
3 348 96 352
3 351 95 348
3 352 7 351
3 355 353 354
3 354 98 355
3 353 92 354
3 355 97 353
3 333 356 354
3 354 92 333
3 356 98 354
3 333 29 356
3 357 338 353
3 353 97 357
3 338 92 353
3 357 27 338
3 359 358 355
3 355 98 359
3 358 97 355
3 359 1 358
3 362 360 361
3 361 101 362
3 360 100 361
3 362 99 360
3 364 363 361
3 361 100 364
3 363 101 361
3 364 31 363
3 366 365 360
3 360 99 366
3 365 100 360
3 366 29 365
3 368 367 362
3 362 101 368
3 367 99 362
3 368 30 367
3 371 369 370
3 370 93 371
3 369 100 370
3 371 102 369
3 365 343 370
3 370 100 365
3 343 93 370
3 365 29 343
3 372 364 369
3 369 102 372
3 364 100 369
3 372 31 364
3 344 373 371
3 371 93 344
3 373 102 371
3 344 2 373
3 376 374 375
3 375 103 376
3 374 99 375
3 376 98 374
3 367 377 375
3 375 99 367
3 377 103 375
3 367 30 377
3 356 366 374
3 374 98 356
3 366 99 374
3 356 29 366
3 378 359 376
3 376 103 378
3 359 98 376
3 378 1 359
3 381 379 380
3 380 105 381
3 379 101 380
3 381 104 379
3 363 382 380
3 380 101 363
3 382 105 380
3 363 31 382
3 383 368 379
3 379 104 383
3 368 101 379
3 383 30 368
3 385 384 381
3 381 105 385
3 384 104 381
3 385 6 384
3 388 386 387
3 387 108 388
3 386 107 387
3 388 106 386
3 390 389 387
3 387 107 390
3 389 108 387
3 390 34 389
3 392 391 386
3 386 106 392
3 391 107 386
3 392 33 391
3 394 393 388
3 388 108 394
3 393 106 388
3 394 32 393
3 397 395 396
3 396 110 397
3 395 107 396
3 397 109 395
3 391 398 396
3 396 107 391
3 398 110 396
3 391 33 398
3 399 390 395
3 395 109 399
3 390 107 395
3 399 34 390
3 401 400 397
3 397 110 401
3 400 109 397
3 401 8 400
3 404 402 403
3 403 112 404
3 402 106 403
3 404 111 402
3 393 405 403
3 403 106 393
3 405 112 403
3 393 32 405
3 406 392 402
3 402 111 406
3 392 106 402
3 406 33 392
3 408 407 404
3 404 112 408
3 407 111 404
3 408 0 407
3 411 409 410
3 410 114 411
3 409 108 410
3 411 113 409
3 389 412 410
3 410 108 389
3 412 114 410
3 389 34 412
3 413 394 409
3 409 113 413
3 394 108 409
3 413 32 394
3 415 414 411
3 411 114 415
3 414 113 411
3 415 11 414
3 418 416 417
3 417 117 418
3 416 116 417
3 418 115 416
3 420 419 417
3 417 116 420
3 419 117 417
3 420 36 419
3 422 421 416
3 416 115 422
3 421 116 416
3 422 34 421
3 424 423 418
3 418 117 424
3 423 115 418
3 424 35 423
3 427 425 426
3 426 109 427
3 425 116 426
3 427 118 425
3 421 399 426
3 426 116 421
3 399 109 426
3 421 34 399
3 428 420 425
3 425 118 428
3 420 116 425
3 428 36 420
3 400 429 427
3 427 109 400
3 429 118 427
3 400 8 429
3 432 430 431
3 431 119 432
3 430 115 431
3 432 114 430
3 423 433 431
3 431 115 423
3 433 119 431
3 423 35 433
3 412 422 430
3 430 114 412
3 422 115 430
3 412 34 422
3 434 415 432
3 432 119 434
3 415 114 432
3 434 11 415
3 437 435 436
3 436 121 437
3 435 117 436
3 437 120 435
3 419 438 436
3 436 117 419
3 438 121 436
3 419 36 438
3 439 424 435
3 435 120 439
3 424 117 435
3 439 35 424
3 441 440 437
3 437 121 441
3 440 120 437
3 441 1 440
3 444 442 443
3 443 124 444
3 442 123 443
3 444 122 442
3 446 445 443
3 443 123 446
3 445 124 443
3 446 39 445
3 448 447 442
3 442 122 448
3 447 123 442
3 448 38 447
3 450 449 444
3 444 124 450
3 449 122 444
3 450 37 449
3 453 451 452
3 452 126 453
3 451 123 452
3 453 125 451
3 447 454 452
3 452 123 447
3 454 126 452
3 447 38 454
3 455 446 451
3 451 125 455
3 446 123 451
3 455 39 446
3 457 456 453
3 453 126 457
3 456 125 453
3 457 9 456
3 460 458 459
3 459 128 460
3 458 122 459
3 460 127 458
3 449 461 459
3 459 122 449
3 461 128 459
3 449 37 461
3 462 448 458
3 458 127 462
3 448 122 458
3 462 38 448
3 464 463 460
3 460 128 464
3 463 127 460
3 464 10 463
3 467 465 466
3 466 130 467
3 465 124 466
3 467 129 465
3 445 468 466
3 466 124 445
3 468 130 466
3 445 39 468
3 469 450 465
3 465 129 469
3 450 124 465
3 469 37 450
3 471 470 467
3 467 130 471
3 470 129 467
3 471 3 470
3 474 472 473
3 473 133 474
3 472 132 473
3 474 131 472
3 476 475 473
3 473 132 476
3 475 133 473
3 476 38 475
3 478 477 472
3 472 131 478
3 477 132 472
3 478 41 477
3 480 479 474
3 474 133 480
3 479 131 474
3 480 40 479
3 483 481 482
3 482 134 483
3 481 132 482
3 483 126 481
3 477 484 482
3 482 132 477
3 484 134 482
3 477 41 484
3 454 476 481
3 481 126 454
3 476 132 481
3 454 38 476
3 485 457 483
3 483 134 485
3 457 126 483
3 485 9 457
3 488 486 487
3 487 136 488
3 486 131 487
3 488 135 486
3 479 489 487
3 487 131 479
3 489 136 487
3 479 40 489
3 490 478 486
3 486 135 490
3 478 131 486
3 490 41 478
3 492 491 488
3 488 136 492
3 491 135 488
3 492 2 491
3 495 493 494
3 494 127 495
3 493 133 494
3 495 137 493
3 475 462 494
3 494 133 475
3 462 127 494
3 475 38 462
3 496 480 493
3 493 137 496
3 480 133 493
3 496 40 480
3 463 497 495
3 495 127 463
3 497 137 495
3 463 10 497
3 500 498 499
3 499 140 500
3 498 139 499
3 500 138 498
3 502 501 499
3 499 139 502
3 501 140 499
3 502 33 501
3 504 503 498
3 498 138 504
3 503 139 498
3 504 13 503
3 506 505 500
3 500 140 506
3 505 138 500
3 506 23 505
3 509 507 508
3 508 47 509
3 507 139 508
3 509 110 507
3 503 182 508
3 508 139 503
3 182 47 508
3 503 13 182
3 398 502 507
3 507 110 398
3 502 139 507
3 398 33 502
3 183 401 509
3 509 47 183
3 401 110 509
3 183 8 401
3 512 510 511
3 511 79 512
3 510 138 511
3 512 46 510
3 505 294 511
3 511 138 505
3 294 79 511
3 505 23 294
3 174 504 510
3 510 46 174
3 504 138 510
3 174 13 504
3 295 177 512
3 512 79 295
3 177 46 512
3 295 4 177
3 515 513 514
3 514 111 515
3 513 140 514
3 515 78 513
3 501 406 514
3 514 140 501
3 406 111 514
3 501 33 406
3 286 506 513
3 513 78 286
3 506 140 513
3 286 23 506
3 407 289 515
3 515 111 407
3 289 78 515
3 407 0 289
3 518 516 517
3 517 143 518
3 516 142 517
3 518 141 516
3 520 519 517
3 517 142 520
3 519 143 517
3 520 19 519
3 522 521 516
3 516 141 522
3 521 142 516
3 522 32 521
3 524 523 518
3 518 143 524
3 523 141 518
3 524 26 523
3 527 525 526
3 526 113 527
3 525 142 526
3 527 66 525
3 521 413 526
3 526 142 521
3 413 113 526
3 521 32 413
3 244 520 525
3 525 66 244
3 520 142 525
3 244 19 520
3 414 247 527
3 527 113 414
3 247 66 527
3 414 11 247
3 530 528 529
3 529 86 530
3 528 141 529
3 530 112 528
3 523 316 529
3 529 141 523
3 316 86 529
3 523 26 316
3 405 522 528
3 528 112 405
3 522 141 528
3 405 32 522
3 317 408 530
3 530 86 317
3 408 112 530
3 317 0 408
3 533 531 532
3 532 61 533
3 531 143 532
3 533 89 531
3 519 231 532
3 532 143 519
3 231 61 532
3 519 19 231
3 326 524 531
3 531 89 326
3 524 143 531
3 326 26 524
3 232 329 533
3 533 61 232
3 329 89 533
3 232 5 329
3 536 534 535
3 535 146 536
3 534 145 535
3 536 144 534
3 538 537 535
3 535 145 538
3 537 146 535
3 538 22 537
3 540 539 534
3 534 144 540
3 539 145 534
3 540 16 539
3 542 541 536
3 536 146 542
3 541 144 536
3 542 39 541
3 545 543 544
3 544 54 545
3 543 145 544
3 545 80 543
3 539 204 544
3 544 145 539
3 204 54 544
3 539 16 204
3 293 538 543
3 543 80 293
3 538 145 543
3 293 22 538
3 205 296 545
3 545 54 205
3 296 80 545
3 205 4 296
3 548 546 547
3 547 125 548
3 546 144 547
3 548 57 546
3 541 455 547
3 547 144 541
3 455 125 547
3 541 39 455
3 214 540 546
3 546 57 214
3 540 144 546
3 214 16 540
3 456 217 548
3 548 125 456
3 217 57 548
3 456 9 217
3 551 549 550
3 550 81 551
3 549 146 550
3 551 130 549
3 537 301 550
3 550 146 537
3 301 81 550
3 537 22 301
3 468 542 549
3 549 130 468
3 542 146 549
3 468 39 542
3 302 471 551
3 551 81 302
3 471 130 551
3 302 3 471
3 554 552 553
3 553 149 554
3 552 148 553
3 554 147 552
3 556 555 553
3 553 148 556
3 555 149 553
3 556 21 555
3 558 557 552
3 552 147 558
3 557 148 552
3 558 25 557
3 560 559 554
3 554 149 560
3 559 147 554
3 560 37 559
3 563 561 562
3 562 88 563
3 561 148 562
3 563 70 561
3 557 327 562
3 562 148 557
3 327 88 562
3 557 25 327
3 260 556 561
3 561 70 260
3 556 148 561
3 260 21 556
3 328 261 563
3 563 88 328
3 261 70 563
3 328 5 261
3 566 564 565
3 565 129 566
3 564 147 565
3 566 87 564
3 559 469 565
3 565 147 559
3 469 129 565
3 559 37 469
3 321 558 564
3 564 87 321
3 558 147 564
3 321 25 558
3 470 322 566
3 566 129 470
3 322 87 566
3 470 3 322
3 569 567 568
3 568 71 569
3 567 149 568
3 569 128 567
3 555 266 568
3 568 149 555
3 266 71 568
3 555 21 266
3 461 560 567
3 567 128 461
3 560 149 567
3 461 37 560
3 267 464 569
3 569 71 267
3 464 128 569
3 267 10 464
3 572 570 571
3 571 152 572
3 570 151 571
3 572 150 570
3 574 573 571
3 571 151 574
3 573 152 571
3 574 27 573
3 576 575 570
3 570 150 576
3 575 151 570
3 576 12 575
3 578 577 572
3 572 152 578
3 577 150 572
3 578 36 577
3 581 579 580
3 580 49 581
3 579 151 580
3 581 96 579
3 575 189 580
3 580 151 575
3 189 49 580
3 575 12 189
3 349 574 579
3 579 96 349
3 574 151 579
3 349 27 574
3 190 352 581
3 581 49 190
3 352 96 581
3 190 7 352
3 584 582 583
3 583 118 584
3 582 150 583
3 584 48 582
3 577 428 583
3 583 150 577
3 428 118 583
3 577 36 428
3 181 576 582
3 582 48 181
3 576 150 582
3 181 12 576
3 429 184 584
3 584 118 429
3 184 48 584
3 429 8 184
3 587 585 586
3 586 97 587
3 585 152 586
3 587 121 585
3 573 357 586
3 586 152 573
3 357 97 586
3 573 27 357
3 438 578 585
3 585 121 438
3 578 152 585
3 438 36 578
3 358 441 587
3 587 97 358
3 441 121 587
3 358 1 441
3 590 588 589
3 589 155 590
3 588 154 589
3 590 153 588
3 592 591 589
3 589 154 592
3 591 155 589
3 592 17 591
3 594 593 588
3 588 153 594
3 593 154 588
3 594 30 593
3 596 595 590
3 590 155 596
3 595 153 590
3 596 35 595
3 599 597 598
3 598 104 599
3 597 154 598
3 599 64 597
3 593 383 598
3 598 154 593
3 383 104 598
3 593 30 383
3 237 592 597
3 597 64 237
3 592 154 597
3 237 17 592
3 384 240 599
3 599 104 384
3 240 64 599
3 384 6 240
3 602 600 601
3 601 120 602
3 600 153 601
3 602 103 600
3 595 439 601
3 601 153 595
3 439 120 601
3 595 35 439
3 377 594 600
3 600 103 377
3 594 153 600
3 377 30 594
3 440 378 602
3 602 120 440
3 378 103 602
3 440 1 378
3 605 603 604
3 604 65 605
3 603 155 604
3 605 119 603
3 591 245 604
3 604 155 591
3 245 65 604
3 591 17 245
3 433 596 603
3 603 119 433
3 596 155 603
3 433 35 596
3 246 434 605
3 605 65 246
3 434 119 605
3 246 11 434
3 608 606 607
3 607 158 608
3 606 157 607
3 608 156 606
3 610 609 607
3 607 157 610
3 609 158 607
3 610 15 609
3 612 611 606
3 606 156 612
3 611 157 606
3 612 28 611
3 614 613 608
3 608 158 614
3 613 156 608
3 614 41 613
3 617 615 616
3 616 95 617
3 615 157 616
3 617 55 615
3 611 350 616
3 616 157 611
3 350 95 616
3 611 28 350
3 209 610 615
3 615 55 209
3 610 157 615
3 209 15 610
3 351 210 617
3 617 95 351
3 210 55 617
3 351 7 210
3 620 618 619
3 619 135 620
3 618 156 619
3 620 94 618
3 613 490 619
3 619 156 613
3 490 135 619
3 613 41 490
3 342 612 618
3 618 94 342
3 612 156 618
3 342 28 612
3 491 345 620
3 620 135 491
3 345 94 620
3 491 2 345
3 623 621 622
3 622 56 623
3 621 158 622
3 623 134 621
3 609 215 622
3 622 158 609
3 215 56 622
3 609 15 215
3 484 614 621
3 621 134 484
3 614 158 621
3 484 41 614
3 216 485 623
3 623 56 216
3 485 134 623
3 216 9 485
3 626 624 625
3 625 161 626
3 624 160 625
3 626 159 624
3 628 627 625
3 625 160 628
3 627 161 625
3 628 31 627
3 630 629 624
3 624 159 630
3 629 160 624
3 630 20 629
3 632 631 626
3 626 161 632
3 631 159 626
3 632 40 631
3 635 633 634
3 634 73 635
3 633 160 634
3 635 105 633
3 629 272 634
3 634 160 629
3 272 73 634
3 629 20 272
3 382 628 633
3 633 105 382
3 628 160 633
3 382 31 628
3 273 385 635
3 635 73 273
3 385 105 635
3 273 6 385
3 638 636 637
3 637 137 638
3 636 159 637
3 638 72 636
3 631 496 637
3 637 159 631
3 496 137 637
3 631 40 496
3 265 630 636
3 636 72 265
3 630 159 636
3 265 20 630
3 497 268 638
3 638 137 497
3 268 72 638
3 497 10 268
3 641 639 640
3 640 102 641
3 639 161 640
3 641 136 639
3 627 372 640
3 640 161 627
3 372 102 640
3 627 31 372
3 489 632 639
3 639 136 489
3 632 161 639
3 489 40 632
3 373 492 641
3 641 102 373
3 492 136 641
3 373 2 492
