# vtk DataFile Version 3.0
this file was written using fslvtkio
ASCII
DATASET POLYDATA
POINTS 642 float
128.454 113.131 77.7231
99.111 109.174 74.9115
106.098 95.174 67.8982
125.428 97.1721 70.7424
123.421 100.952 95.0416
123.849 102.962 55.0528
110.092 101.035 51.1751
104.737 99.0323 92.8997
113.3 112.276 86.2764
115.337 91.8736 77.3438
117.331 90.2673 57.0858
114.139 115.848 69.1372
107.812 104.778 93.3615
118.686 106.145 94.1792
113.221 98.9756 98.7162
110.147 93.9997 87.5725
119.139 94.3898 88.6709
112.213 108.033 60.4203
118.289 101.564 45.1624
119.418 109.739 61.6556
113.456 94.4013 47.6635
123.438 94.7041 49.6608
124.423 99.8644 83.3109
127.354 108.378 88.9654
126.142 106.174 74.9393
125.867 99.1393 61.3721
124.954 109.778 67.5086
100.248 105.158 86.2674
105.303 98.1134 81.1548
103.876 103.357 71.7831
105.633 106.561 64.6868
107.289 96.5591 57.6073
122.317 118.045 73.669
122.531 115.413 85.4485
112.597 118.223 79.9989
105.24 115.242 71.8773
103.667 113.407 84.4944
123.519 92.0695 62.87
115.527 88.2047 68.7415
120.998 92.2174 73.8892
110.22 90.7003 59.7512
110.547 91.9924 72.9412
113.195 105.389 93.5934
116.6 103.751 99.8695
109.353 102.927 99.4773
119.88 99.0098 99.1281
122.906 105.073 97.8514
116.17 108.439 88.4826
110.873 107.71 88.0876
103.679 102.486 96.0685
107.519 97.6409 97.7363
111.167 95.0002 94.175
116.87 95.7099 94.8057
114.456 94.1225 88.9158
121.483 96.717 92.5294
107.259 95.5934 90.9673
112.881 93.007 82.7144
117.148 93.5531 83.2804
115.241 104.142 52.1312
118.779 104.793 53.366
116.028 107.643 60.26
121.339 105.585 57.1919
121.633 102.352 49.3654
113.989 101.092 46.5585
111.735 104.312 54.5154
112.798 112.886 64.5557
117.196 113.879 65.1564
118.585 95.8269 47.7784
122.113 98.9548 44.9312
115.773 98.3371 42.9173
124.181 98.8367 51.0499
120.535 91.2346 52.4991
115.556 90.839 51.5109
111.219 97.1464 46.9372
125.789 104.571 86.2551
127.281 106.958 81.5066
125.243 102.719 79.1551
128.487 109.607 76.1504
127.875 110.602 82.6719
126.022 105.178 92.9998
123.775 100.778 89.3029
124.625 98.7349 76.6977
125.077 101.217 72.6199
125.37 102.364 68.235
125.897 108.392 71.4044
123.765 104.172 65.0181
128.207 112.22 72.0558
125.778 98.4048 66.2198
124.947 100.817 58.0367
122.803 105.646 61.8001
102.802 101.859 84.1138
104.089 100.333 76.6479
101.598 103.919 78.8085
105.791 99.1272 70.138
106.034 96.6311 74.4225
105.413 98.942 87.2523
101.495 102.12 90.7673
99.6288 107.187 80.1812
100.269 106.002 73.4829
104.474 105.075 68.4331
106.482 99.7843 64.7842
108.121 101.551 61.0292
105.919 95.8226 62.7384
100.876 108.38 69.3376
108.809 103.27 57.5513
108.483 98.3062 53.4028
123.166 119.082 80.5868
118.152 118.769 83.6609
117.993 119.607 77.4084
112.508 116.594 84.2942
117.833 114.269 86.6646
126.517 115.494 82.1558
126.094 116.382 75.8934
118.126 117.598 71.2293
113.179 117.371 74.5662
108.128 117.657 76.4729
106.999 117.538 82.8489
103.208 116.182 78.8025
108.364 113.304 86.2078
109.733 116.18 70.0921
101.61 112.788 73.3639
100.084 112.211 80.1976
120.431 89.402 66.4052
120.501 86.4434 70.7837
124.031 89.58 68.6022
118.359 91.2545 75.8708
115.509 86.9646 72.6709
116.287 90.6596 63.7629
120.503 91.086 59.6511
125.207 93.8539 66.3454
124.076 94.0056 72.8594
110.057 90.3295 67.1632
111.37 85.9847 69.873
112.608 88.8769 65.2167
112.744 91.1139 75.4164
107.272 92.8006 70.6882
107.507 92.032 63.5641
113.703 90.755 57.7598
123.662 107.78 92.4836
120.384 109.53 87.746
125.232 111.595 86.5841
124.823 114.473 70.1008
120.992 115.007 67.4417
122.491 110.383 64.2062
120.439 93.5413 81.2641
122.194 96.9364 86.2533
123.283 95.6781 79.0235
126.485 94.9073 61.4731
125.356 96.3431 55.2219
123.964 92.2747 56.0504
106.687 107.984 86.67
103.193 105.237 90.9365
101.825 109.06 84.9799
104.391 111.285 67.3898
108.588 107.671 61.7377
108.419 112.953 65.4672
107.508 94.4692 77.5891
107.377 95.7297 84.4783
109.883 92.8565 80.2795
111.214 90.6189 52.6576
109.52 94.1685 51.3385
107.663 92.7045 57.8288
114.556 104.508 96.7514
112.954 103.453 98.9207
111.506 103.998 96.4798
111.268 101.178 99.9741
114.864 101.445 99.739
117.602 104.786 97.0987
115.977 105.677 93.9199
110.401 105.052 93.508
108.499 103.56 96.4822
118.425 101.715 100.551
119.872 104.263 99.3419
121.424 102.18 99.832
120.502 105.299 96.353
116.713 99.3444 99.3966
122.033 99.9309 97.4339
123.61 102.699 97.4779
114.762 106.712 91.068
112.012 106.294 90.8434
113.505 108.108 88.2134
109.499 106.088 90.6061
117.243 107.101 91.3398
114.795 110.393 87.0824
112.009 110.091 86.8655
106.467 102.286 98.3721
108.05 100.19 99.9192
105.49 100.068 98.2422
110.189 98.2176 99.0429
105.809 103.446 95.2476
103.933 100.248 95.4284
105.769 98.35 95.7109
113.919 95.8661 94.6866
115.7 94.3641 91.9867
112.878 93.5936 91.8138
116.877 94.2085 89.0259
118.128 94.1939 91.9326
115.287 97.5669 97.2733
111.969 96.5354 97.2829
110.414 93.3042 91.0087
112.195 93.8028 88.4744
119.357 95.7163 93.8501
118.085 97.0687 97.4506
120.685 97.6327 96.0696
120.572 94.8695 90.7407
122.421 98.7936 94.0141
109.389 95.9487 96.6066
109.02 94.8673 92.9144
107.284 96.4816 94.5394
108.545 94.194 89.4635
105.975 97.3545 92.1867
113.561 94.2969 85.9725
115.946 94.5482 86.3828
114.904 93.4233 83.3374
117.923 94.5912 86.0298
111.785 93.9871 85.3758
114.309 92.6622 80.3213
116.069 92.9357 80.5666
117.038 104.214 52.457
117.473 106.108 56.8679
115.459 105.793 56.4231
117.626 108.527 60.5259
118.818 106.965 58.177
118.486 103.362 49.1798
116.72 103.044 48.3462
113.922 105.997 56.8917
114.293 107.621 59.9897
120.109 105.503 55.269
120.143 103.665 50.7053
121.688 104.253 53.0684
120.037 102.059 46.985
120.155 107.194 59.3959
122.735 104.437 55.9282
122.935 102.824 52.2221
114.803 102.771 48.6648
113.578 104.426 53.3149
112.883 102.901 50.4928
112.196 105.902 57.4217
116.033 101.483 45.1821
112.064 101.275 48.9039
110.957 102.872 52.2488
114.467 110.327 62.1628
116.463 110.848 62.4641
115.095 112.617 64.4726
118.473 112.078 63.3551
112.267 110.8 62.2324
113.472 114.488 66.9822
115.677 114.987 67.1539
120.134 97.6404 45.8353
119.195 99.0006 43.1611
117.748 97.6286 45.2016
117.002 100.24 42.9332
120.385 100.644 44.2782
122.444 96.8658 47.1236
120.886 95.6165 48.4407
116.212 95.6762 47.2552
115.066 96.8308 45.4702
121.948 100.585 46.8809
123.165 98.5979 47.9158
123.101 100.863 50.2189
124.221 96.8245 49.4567
124.17 101.057 53.0079
119.654 93.32 49.8226
117.168 93.5838 49.5149
118.076 91.1025 51.3523
114.962 93.1559 49.0914
121.899 93.1424 50.7535
118.856 90.3162 54.4082
116.7 90.2222 54.01
112.997 97.512 44.2992
114.411 99.7248 44.2226
112.232 99.405 46.7946
112.156 95.4412 46.5611
110.552 99.1889 49.0769
126.748 105.575 83.7395
126.262 104.961 80.1177
125.523 103.746 82.4164
125.85 104.351 77.0588
126.749 106.398 78.262
127.385 107.612 85.1572
127.134 106.265 87.825
124.914 102.561 84.6883
125.025 101.35 81.6234
127.593 108.341 78.4977
127.491 108.854 82.0969
128.576 109.964 79.1822
127.294 109.425 85.6438
126.974 107.981 75.9144
129.261 111.171 76.7038
128.623 111.857 80.1063
125.787 104.959 89.6202
124.526 102.753 87.718
124.506 103.151 91.2893
124.043 100.517 86.1717
127.644 106.75 91.3615
124.568 103.221 94.4979
123.715 100.892 92.3133
124.954 100.628 78.3123
125.077 102.235 75.9689
124.815 100.154 74.8834
125.526 103.537 73.8756
124.624 99.2086 80.0699
124.887 98.0052 73.5134
125.017 99.316 71.6666
125.213 105.793 70.1159
124.289 106.484 68.6232
125.058 103.358 66.4116
123.999 107.095 66.68
125.74 109.054 69.2367
125.873 107.506 73.1349
125.876 104.475 71.6035
125.56 100.828 64.8926
124.669 101.518 63.2261
127.936 110.143 71.2321
127.287 109.135 73.6913
129.167 110.812 73.8732
126.993 111.078 69.5142
128.63 112.753 74.8269
125.242 101.919 70.4805
125.45 100.141 66.8975
125.151 99.7632 69.2949
125.884 98.8761 63.8462
125.604 97.8772 68.625
123.805 102.145 61.7873
123.197 105.101 63.5665
124.172 103.376 59.9379
123.811 107.754 64.8002
125.221 100.027 59.865
124.555 102.006 56.5135
123.567 104.319 58.4598
103.389 101.038 80.1289
102.919 102.404 77.6589
102.116 102.732 81.3161
102.707 103.784 75.1963
103.807 101.787 74.2596
104.539 99.1908 79.2731
104.175 100.243 82.7403
101.215 103.312 85.1478
100.87 104.369 82.4918
104.904 99.8391 73.3497
105.451 98.7559 75.8969
105.947 97.9401 72.4296
105.698 97.4938 77.7201
104.884 101.114 71.061
105.979 97.1834 69.0827
106.123 96.052 71.0407
104.156 100.544 86.012
102.312 102.156 87.3979
103.647 100.833 89.3014
100.222 103.442 88.7666
105.314 98.6627 84.1624
104.902 99.1402 90.1498
103.204 100.74 92.3579
100.483 105.403 79.6429
101.169 104.914 76.0367
99.6568 106.356 76.6676
102.482 104.751 73.2905
100.299 106.118 82.9966
98.9909 108.033 77.4068
98.8795 107.185 73.8746
106.124 102.798 66.6707
107.399 100.917 63.0359
106.645 103.496 65.001
107.641 98.9192 59.3683
106.88 98.1291 61.3492
105.279 101.636 68.2761
104.481 104.356 69.989
104.983 105.727 66.4936
107.088 104.135 63.195
106.192 97.7019 63.7419
106.001 99.4466 67.6261
105.996 97.3343 66.395
106.358 96.0297 60.0551
106.014 95.5256 65.4708
102.312 105.522 71.095
102.202 106.405 68.8052
99.7435 106.727 70.9653
103.153 107.757 67.2279
99.489 108.73 71.8312
108.225 102.473 59.3635
107.846 99.8467 57.2614
108.179 100.936 55.3195
108.046 97.557 55.7288
107.985 104.694 61.4534
109.039 102.426 54.1745
108.98 99.7395 52.0519
120.796 119.273 82.2484
118.192 119.368 80.5936
120.647 119.691 79.0803
115.54 119.002 79.0152
115.547 118.777 81.7686
120.573 117.668 84.8029
122.924 118.026 83.664
122.546 118.75 77.2958
120.394 119.038 76.0102
115.365 117.714 84.0708
117.918 116.925 85.6168
115.353 115.805 85.767
120.193 115.024 86.1018
112.483 117.788 82.3782
112.747 114.658 85.5382
115.44 113.252 86.6306
125.085 117.642 81.6094
124.781 117.961 78.3245
126.57 116.399 79.1939
124.228 117.582 75.0957
124.753 116.07 84.1651
127.975 114.404 79.8669
127.613 114.862 76.637
118.097 118.708 74.3746
115.588 118.557 76.0574
115.759 117.784 73.0775
112.964 118.109 77.3116
120.228 118.097 72.5588
116.049 116.783 69.9447
113.615 116.794 71.6662
107.643 117.947 79.6272
104.942 117.425 80.8998
105.539 117.395 77.5776
102.808 115.722 81.9043
104.749 116.005 83.7911
109.656 118.045 81.3327
110.198 118.105 78.4781
106.243 116.479 74.5026
103.986 115.795 75.6975
107.303 115.809 84.8828
109.762 117.289 83.8149
110.04 115.46 85.6961
105.862 113.573 85.4364
110.929 112.79 86.5071
110.702 117.667 75.6297
108.691 116.794 73.4973
111.136 116.804 72.6403
107.352 116.079 70.9832
111.975 115.986 69.598
101.97 114.497 76.3071
101.326 114.357 79.481
100.323 112.705 76.8366
101.613 113.396 82.5424
103.383 114.236 72.8982
100.17 110.972 73.828
99.2957 110.614 77.4194
120.779 86.7016 68.2138
123.53 86.2961 69.2227
122.699 87.9466 67.236
122.906 89.34 70.6378
121.905 88.2676 71.5006
118.429 87.6943 69.9168
118.636 89.452 68.0218
122.014 90.2645 64.8273
123.416 90.6779 66.2924
119.82 88.7025 73.1017
118.04 86.9177 72.1514
117.549 89.1042 74.2147
115.613 86.5481 70.3304
120.001 91.203 74.4863
116.692 91.6051 76.6873
115.449 89.2682 74.8706
118.476 90.7082 65.3854
120.323 90.6126 63.4996
118.569 90.7266 62.0124
122.023 91.4518 61.4342
116.097 89.9249 66.8526
116.74 90.6301 60.3619
119.005 90.3439 58.3573
123.818 92.236 67.8497
122.971 91.9573 70.3554
124.283 93.7165 69.6741
122.165 92.728 73.0122
124.648 92.5386 64.7265
125.555 95.3008 68.5164
125.09 95.6024 71.8383
110.072 87.8576 68.6193
111.779 86.0571 67.3666
110.9 89.1665 65.9003
113.814 88.3204 67.1822
113.73 85.8299 68.9002
110.745 88.883 70.8226
110.074 90.4215 69.8147
109.961 90.4209 63.6119
111.387 90.1375 62.505
113.449 86.2961 71.4354
112.127 88.6283 72.2969
113.776 88.8695 73.9637
111.647 91.2612 73.8178
114.028 91.4567 76.8412
109.393 92.0449 68.7203
109.123 91.5538 65.3713
107.693 92.5855 67.2183
108.611 91.0834 61.4795
108.872 92.2441 71.9648
106.298 93.8975 69.4212
106.279 93.296 65.8809
113.144 90.5568 61.9493
114.341 89.7599 64.8088
114.852 90.5951 60.9226
111.929 90.6549 58.811
115.506 90.4581 57.3463
121.755 108.367 90.1304
122.664 110.58 87.1795
124.109 109.314 89.0423
124.162 113.568 85.8841
121.536 112.561 86.5426
119.437 107.546 90.8946
121.13 106.794 93.3953
126.085 108.583 90.9693
126.397 110.144 87.5675
119.441 112.122 86.7797
118.315 109.06 88.0206
117.021 111.272 87.044
123.006 106.482 94.9405
126.307 107.383 93.541
124.945 105.08 95.5688
127.027 111.591 85.0183
126.199 113.977 84.5152
127.559 113.118 82.2837
122.953 114.96 68.5971
122.05 112.864 65.4994
123.843 112.72 67.1261
120.915 109.997 62.5624
120.243 112.743 64.4596
121.662 116.621 70.5573
123.685 116.366 71.8482
125.49 112.214 68.4895
123.724 110.265 65.97
119.164 114.575 66.1439
119.739 116.581 69.3661
117.683 115.786 68.14
125.4 115.623 73.0225
126.535 113.416 71.0909
127.221 114.359 73.8199
122.652 107.965 63.0973
121.301 107.598 61.1583
122.177 105.684 59.56
121.103 95.3872 83.788
122.707 96.2814 82.5821
121.974 94.447 80.2047
123.718 97.7716 81.323
123.375 98.2485 84.6879
120.722 95.7042 87.372
119.565 94.8742 85.1369
120.991 92.9831 77.4141
122.678 93.5912 76.7936
123.018 98.6948 87.774
121.908 96.6972 89.5546
122.954 98.7351 91.0154
118.833 93.3666 82.5324
119.331 92.6584 78.1238
117.623 92.9046 79.4404
123.752 94.5626 75.7345
124.063 97.1882 77.9303
124.718 96.4063 74.7577
125.88 95.5036 58.2535
124.832 94.21 55.1287
125.351 93.5365 58.4814
123.802 93.1198 52.6163
124.66 95.3008 52.1034
125.985 97.6128 58.2917
126.405 96.9452 61.1445
125.436 93.1822 61.6333
123.811 92.1911 59.5171
124.877 97.3431 52.6417
125.412 98.4836 56.3382
124.918 99.7674 54.5162
126.783 96.7424 63.8117
126.263 93.9497 63.8424
126.304 95.9967 66.3826
122.277 91.2848 57.6599
122.397 91.5953 53.6638
120.626 90.5883 56.0019
105.19 106.367 88.6429
102.94 106.861 87.4243
104.342 108.648 86.0415
100.922 107.062 85.4444
101.218 105.4 88.8626
105.501 104.878 92.1086
107.321 106.077 89.9862
105.253 110.78 85.6008
102.507 111.319 84.7323
100.41 104.242 91.454
103.431 104.083 93.4359
101.925 102.111 93.5178
108.798 107.869 87.2131
107.436 110.794 86.085
109.81 110.506 86.654
100.836 110.891 82.5971
100.333 108.317 82.7558
99.4501 109.602 79.9537
106.178 109.803 64.3643
108.178 110.451 63.1843
106.376 112.295 66.2675
110.19 111.001 62.6506
110.51 107.818 60.9557
107.02 107.035 62.9576
104.619 108.683 65.6666
104.72 113.557 69.4521
106.897 114.434 68.5964
110.677 105.61 58.665
109.183 105.141 60.0254
110.064 103.96 55.8896
102.609 109.759 68.1132
103.075 112.28 70.437
101.103 110.623 70.9492
109.039 114.833 67.7705
110.632 113.091 64.72
111.33 114.71 67.1939
107.483 95.1891 81.0454
108.848 94.4409 82.603
108.571 93.4309 78.8811
110.207 94.0094 84.1661
108.73 94.7371 86.0047
106.13 96.7406 82.8019
106.31 96.237 79.4305
108.448 92.5398 75.534
109.875 92.0597 76.5496
107.461 95.6024 87.8961
106.388 97.1155 86.0003
106.125 97.2349 89.2217
106.638 95.5391 76.1199
107.525 93.4026 74.1041
106.635 94.6238 72.6607
111.275 92.0932 77.734
111.23 92.6876 81.8222
112.719 92.2949 79.1381
110.398 92.2529 51.3269
108.944 93.2243 54.3084
109.445 91.6213 54.6867
107.438 94.4002 57.1948
108.182 95.148 54.4048
111.147 93.7081 48.9213
112.481 92.1771 49.6483
110.54 90.6244 56.2453
108.753 91.3551 58.1543
108.886 96.0865 52.2187
110.489 95.3572 48.8706
109.778 97.3746 49.9608
113.431 91.1915 51.2947
112.251 90.3532 55.0417
114.545 90.4036 54.4388
107.326 92.1036 60.7098
106.401 93.9564 60.2161
106.111 93.5791 63.1258
POLYGONS 1280  5120
3 164 162 163
3 163 44 164
3 162 43 163
3 164 42 162
3 166 165 163
3 163 43 166
3 165 44 163
3 166 14 165
3 168 167 162
3 162 42 168
3 167 43 162
3 168 13 167
3 170 169 164
3 164 44 170
3 169 42 164
3 170 12 169
3 173 171 172
3 172 46 173
3 171 43 172
3 173 45 171
3 167 174 172
3 172 43 167
3 174 46 172
3 167 13 174
3 175 166 171
3 171 45 175
3 166 43 171
3 175 14 166
3 177 176 173
3 173 46 177
3 176 45 173
3 177 4 176
3 180 178 179
3 179 48 180
3 178 42 179
3 180 47 178
3 169 181 179
3 179 42 169
3 181 48 179
3 169 12 181
3 182 168 178
3 178 47 182
3 168 42 178
3 182 13 168
3 184 183 180
3 180 48 184
3 183 47 180
3 184 8 183
3 187 185 186
3 186 50 187
3 185 44 186
3 187 49 185
3 165 188 186
3 186 44 165
3 188 50 186
3 165 14 188
3 189 170 185
3 185 49 189
3 170 44 185
3 189 12 170
3 191 190 187
3 187 50 191
3 190 49 187
3 191 7 190
3 194 192 193
3 193 53 194
3 192 52 193
3 194 51 192
3 196 195 193
3 193 52 196
3 195 53 193
3 196 16 195
3 198 197 192
3 192 51 198
3 197 52 192
3 198 14 197
3 200 199 194
3 194 53 200
3 199 51 194
3 200 15 199
3 203 201 202
3 202 45 203
3 201 52 202
3 203 54 201
3 197 175 202
3 202 52 197
3 175 45 202
3 197 14 175
3 204 196 201
3 201 54 204
3 196 52 201
3 204 16 196
3 176 205 203
3 203 45 176
3 205 54 203
3 176 4 205
3 208 206 207
3 207 55 208
3 206 51 207
3 208 50 206
3 199 209 207
3 207 51 199
3 209 55 207
3 199 15 209
3 188 198 206
3 206 50 188
3 198 51 206
3 188 14 198
3 210 191 208
3 208 55 210
3 191 50 208
3 210 7 191
3 213 211 212
3 212 57 213
3 211 53 212
3 213 56 211
3 195 214 212
3 212 53 195
3 214 57 212
3 195 16 214
3 215 200 211
3 211 56 215
3 200 53 211
3 215 15 200
3 217 216 213
3 213 57 217
3 216 56 213
3 217 9 216
3 220 218 219
3 219 60 220
3 218 59 219
3 220 58 218
3 222 221 219
3 219 59 222
3 221 60 219
3 222 19 221
3 224 223 218
3 218 58 224
3 223 59 218
3 224 18 223
3 226 225 220
3 220 60 226
3 225 58 220
3 226 17 225
3 229 227 228
3 228 62 229
3 227 59 228
3 229 61 227
3 223 230 228
3 228 59 223
3 230 62 228
3 223 18 230
3 231 222 227
3 227 61 231
3 222 59 227
3 231 19 222
3 233 232 229
3 229 62 233
3 232 61 229
3 233 5 232
3 236 234 235
3 235 64 236
3 234 58 235
3 236 63 234
3 225 237 235
3 235 58 225
3 237 64 235
3 225 17 237
3 238 224 234
3 234 63 238
3 224 58 234
3 238 18 224
3 240 239 236
3 236 64 240
3 239 63 236
3 240 6 239
3 243 241 242
3 242 66 243
3 241 60 242
3 243 65 241
3 221 244 242
3 242 60 221
3 244 66 242
3 221 19 244
3 245 226 241
3 241 65 245
3 226 60 241
3 245 17 226
3 247 246 243
3 243 66 247
3 246 65 243
3 247 11 246
3 250 248 249
3 249 69 250
3 248 68 249
3 250 67 248
3 252 251 249
3 249 68 252
3 251 69 249
3 252 18 251
3 254 253 248
3 248 67 254
3 253 68 248
3 254 21 253
3 256 255 250
3 250 69 256
3 255 67 250
3 256 20 255
3 259 257 258
3 258 70 259
3 257 68 258
3 259 62 257
3 253 260 258
3 258 68 253
3 260 70 258
3 253 21 260
3 230 252 257
3 257 62 230
3 252 68 257
3 230 18 252
3 261 233 259
3 259 70 261
3 233 62 259
3 261 5 233
3 264 262 263
3 263 72 264
3 262 67 263
3 264 71 262
3 255 265 263
3 263 67 255
3 265 72 263
3 255 20 265
3 266 254 262
3 262 71 266
3 254 67 262
3 266 21 254
3 268 267 264
3 264 72 268
3 267 71 264
3 268 10 267
3 271 269 270
3 270 63 271
3 269 69 270
3 271 73 269
3 251 238 270
3 270 69 251
3 238 63 270
3 251 18 238
3 272 256 269
3 269 73 272
3 256 69 269
3 272 20 256
3 239 273 271
3 271 63 239
3 273 73 271
3 239 6 273
3 276 274 275
3 275 76 276
3 274 75 275
3 276 74 274
3 278 277 275
3 275 75 278
3 277 76 275
3 278 24 277
3 280 279 274
3 274 74 280
3 279 75 274
3 280 23 279
3 282 281 276
3 276 76 282
3 281 74 276
3 282 22 281
3 285 283 284
3 284 78 285
3 283 75 284
3 285 77 283
3 279 286 284
3 284 75 279
3 286 78 284
3 279 23 286
3 287 278 283
3 283 77 287
3 278 75 283
3 287 24 278
3 289 288 285
3 285 78 289
3 288 77 285
3 289 0 288
3 292 290 291
3 291 80 292
3 290 74 291
3 292 79 290
3 281 293 291
3 291 74 281
3 293 80 291
3 281 22 293
3 294 280 290
3 290 79 294
3 280 74 290
3 294 23 280
3 296 295 292
3 292 80 296
3 295 79 292
3 296 4 295
3 299 297 298
3 298 82 299
3 297 76 298
3 299 81 297
3 277 300 298
3 298 76 277
3 300 82 298
3 277 24 300
3 301 282 297
3 297 81 301
3 282 76 297
3 301 22 282
3 303 302 299
3 299 82 303
3 302 81 299
3 303 3 302
3 306 304 305
3 305 85 306
3 304 84 305
3 306 83 304
3 308 307 305
3 305 84 308
3 307 85 305
3 308 26 307
3 310 309 304
3 304 83 310
3 309 84 304
3 310 24 309
3 312 311 306
3 306 85 312
3 311 83 306
3 312 25 311
3 315 313 314
3 314 77 315
3 313 84 314
3 315 86 313
3 309 287 314
3 314 84 309
3 287 77 314
3 309 24 287
3 316 308 313
3 313 86 316
3 308 84 313
3 316 26 308
3 288 317 315
3 315 77 288
3 317 86 315
3 288 0 317
3 320 318 319
3 319 87 320
3 318 83 319
3 320 82 318
3 311 321 319
3 319 83 311
3 321 87 319
3 311 25 321
3 300 310 318
3 318 82 300
3 310 83 318
3 300 24 310
3 322 303 320
3 320 87 322
3 303 82 320
3 322 3 303
3 325 323 324
3 324 89 325
3 323 85 324
3 325 88 323
3 307 326 324
3 324 85 307
3 326 89 324
3 307 26 326
3 327 312 323
3 323 88 327
3 312 85 323
3 327 25 312
3 329 328 325
3 325 89 329
3 328 88 325
3 329 5 328
3 332 330 331
3 331 92 332
3 330 91 331
3 332 90 330
3 334 333 331
3 331 91 334
3 333 92 331
3 334 29 333
3 336 335 330
3 330 90 336
3 335 91 330
3 336 28 335
3 338 337 332
3 332 92 338
3 337 90 332
3 338 27 337
3 341 339 340
3 340 94 341
3 339 91 340
3 341 93 339
3 335 342 340
3 340 91 335
3 342 94 340
3 335 28 342
3 343 334 339
3 339 93 343
3 334 91 339
3 343 29 334
3 345 344 341
3 341 94 345
3 344 93 341
3 345 2 344
3 348 346 347
3 347 96 348
3 346 90 347
3 348 95 346
3 337 349 347
3 347 90 337
3 349 96 347
3 337 27 349
3 350 336 346
3 346 95 350
3 336 90 346
3 350 28 336
3 352 351 348
3 348 96 352
3 351 95 348
3 352 7 351
3 355 353 354
3 354 98 355
3 353 92 354
3 355 97 353
3 333 356 354
3 354 92 333
3 356 98 354
3 333 29 356
3 357 338 353
3 353 97 357
3 338 92 353
3 357 27 338
3 359 358 355
3 355 98 359
3 358 97 355
3 359 1 358
3 362 360 361
3 361 101 362
3 360 100 361
3 362 99 360
3 364 363 361
3 361 100 364
3 363 101 361
3 364 31 363
3 366 365 360
3 360 99 366
3 365 100 360
3 366 29 365
3 368 367 362
3 362 101 368
3 367 99 362
3 368 30 367
3 371 369 370
3 370 93 371
3 369 100 370
3 371 102 369
3 365 343 370
3 370 100 365
3 343 93 370
3 365 29 343
3 372 364 369
3 369 102 372
3 364 100 369
3 372 31 364
3 344 373 371
3 371 93 344
3 373 102 371
3 344 2 373
3 376 374 375
3 375 103 376
3 374 99 375
3 376 98 374
3 367 377 375
3 375 99 367
3 377 103 375
3 367 30 377
3 356 366 374
3 374 98 356
3 366 99 374
3 356 29 366
3 378 359 376
3 376 103 378
3 359 98 376
3 378 1 359
3 381 379 380
3 380 105 381
3 379 101 380
3 381 104 379
3 363 382 380
3 380 101 363
3 382 105 380
3 363 31 382
3 383 368 379
3 379 104 383
3 368 101 379
3 383 30 368
3 385 384 381
3 381 105 385
3 384 104 381
3 385 6 384
3 388 386 387
3 387 108 388
3 386 107 387
3 388 106 386
3 390 389 387
3 387 107 390
3 389 108 387
3 390 34 389
3 392 391 386
3 386 106 392
3 391 107 386
3 392 33 391
3 394 393 388
3 388 108 394
3 393 106 388
3 394 32 393
3 397 395 396
3 396 110 397
3 395 107 396
3 397 109 395
3 391 398 396
3 396 107 391
3 398 110 396
3 391 33 398
3 399 390 395
3 395 109 399
3 390 107 395
3 399 34 390
3 401 400 397
3 397 110 401
3 400 109 397
3 401 8 400
3 404 402 403
3 403 112 404
3 402 106 403
3 404 111 402
3 393 405 403
3 403 106 393
3 405 112 403
3 393 32 405
3 406 392 402
3 402 111 406
3 392 106 402
3 406 33 392
3 408 407 404
3 404 112 408
3 407 111 404
3 408 0 407
3 411 409 410
3 410 114 411
3 409 108 410
3 411 113 409
3 389 412 410
3 410 108 389
3 412 114 410
3 389 34 412
3 413 394 409
3 409 113 413
3 394 108 409
3 413 32 394
3 415 414 411
3 411 114 415
3 414 113 411
3 415 11 414
3 418 416 417
3 417 117 418
3 416 116 417
3 418 115 416
3 420 419 417
3 417 116 420
3 419 117 417
3 420 36 419
3 422 421 416
3 416 115 422
3 421 116 416
3 422 34 421
3 424 423 418
3 418 117 424
3 423 115 418
3 424 35 423
3 427 425 426
3 426 109 427
3 425 116 426
3 427 118 425
3 421 399 426
3 426 116 421
3 399 109 426
3 421 34 399
3 428 420 425
3 425 118 428
3 420 116 425
3 428 36 420
3 400 429 427
3 427 109 400
3 429 118 427
3 400 8 429
3 432 430 431
3 431 119 432
3 430 115 431
3 432 114 430
3 423 433 431
3 431 115 423
3 433 119 431
3 423 35 433
3 412 422 430
3 430 114 412
3 422 115 430
3 412 34 422
3 434 415 432
3 432 119 434
3 415 114 432
3 434 11 415
3 437 435 436
3 436 121 437
3 435 117 436
3 437 120 435
3 419 438 436
3 436 117 419
3 438 121 436
3 419 36 438
3 439 424 435
3 435 120 439
3 424 117 435
3 439 35 424
3 441 440 437
3 437 121 441
3 440 120 437
3 441 1 440
3 444 442 443
3 443 124 444
3 442 123 443
3 444 122 442
3 446 445 443
3 443 123 446
3 445 124 443
3 446 39 445
3 448 447 442
3 442 122 448
3 447 123 442
3 448 38 447
3 450 449 444
3 444 124 450
3 449 122 444
3 450 37 449
3 453 451 452
3 452 126 453
3 451 123 452
3 453 125 451
3 447 454 452
3 452 123 447
3 454 126 452
3 447 38 454
3 455 446 451
3 451 125 455
3 446 123 451
3 455 39 446
3 457 456 453
3 453 126 457
3 456 125 453
3 457 9 456
3 460 458 459
3 459 128 460
3 458 122 459
3 460 127 458
3 449 461 459
3 459 122 449
3 461 128 459
3 449 37 461
3 462 448 458
3 458 127 462
3 448 122 458
3 462 38 448
3 464 463 460
3 460 128 464
3 463 127 460
3 464 10 463
3 467 465 466
3 466 130 467
3 465 124 466
3 467 129 465
3 445 468 466
3 466 124 445
3 468 130 466
3 445 39 468
3 469 450 465
3 465 129 469
3 450 124 465
3 469 37 450
3 471 470 467
3 467 130 471
3 470 129 467
3 471 3 470
3 474 472 473
3 473 133 474
3 472 132 473
3 474 131 472
3 476 475 473
3 473 132 476
3 475 133 473
3 476 38 475
3 478 477 472
3 472 131 478
3 477 132 472
3 478 41 477
3 480 479 474
3 474 133 480
3 479 131 474
3 480 40 479
3 483 481 482
3 482 134 483
3 481 132 482
3 483 126 481
3 477 484 482
3 482 132 477
3 484 134 482
3 477 41 484
3 454 476 481
3 481 126 454
3 476 132 481
3 454 38 476
3 485 457 483
3 483 134 485
3 457 126 483
3 485 9 457
3 488 486 487
3 487 136 488
3 486 131 487
3 488 135 486
3 479 489 487
3 487 131 479
3 489 136 487
3 479 40 489
3 490 478 486
3 486 135 490
3 478 131 486
3 490 41 478
3 492 491 488
3 488 136 492
3 491 135 488
3 492 2 491
3 495 493 494
3 494 127 495
3 493 133 494
3 495 137 493
3 475 462 494
3 494 133 475
3 462 127 494
3 475 38 462
3 496 480 493
3 493 137 496
3 480 133 493
3 496 40 480
3 463 497 495
3 495 127 463
3 497 137 495
3 463 10 497
3 500 498 499
3 499 140 500
3 498 139 499
3 500 138 498
3 502 501 499
3 499 139 502
3 501 140 499
3 502 33 501
3 504 503 498
3 498 138 504
3 503 139 498
3 504 13 503
3 506 505 500
3 500 140 506
3 505 138 500
3 506 23 505
3 509 507 508
3 508 47 509
3 507 139 508
3 509 110 507
3 503 182 508
3 508 139 503
3 182 47 508
3 503 13 182
3 398 502 507
3 507 110 398
3 502 139 507
3 398 33 502
3 183 401 509
3 509 47 183
3 401 110 509
3 183 8 401
3 512 510 511
3 511 79 512
3 510 138 511
3 512 46 510
3 505 294 511
3 511 138 505
3 294 79 511
3 505 23 294
3 174 504 510
3 510 46 174
3 504 138 510
3 174 13 504
3 295 177 512
3 512 79 295
3 177 46 512
3 295 4 177
3 515 513 514
3 514 111 515
3 513 140 514
3 515 78 513
3 501 406 514
3 514 140 501
3 406 111 514
3 501 33 406
3 286 506 513
3 513 78 286
3 506 140 513
3 286 23 506
3 407 289 515
3 515 111 407
3 289 78 515
3 407 0 289
3 518 516 517
3 517 143 518
3 516 142 517
3 518 141 516
3 520 519 517
3 517 142 520
3 519 143 517
3 520 19 519
3 522 521 516
3 516 141 522
3 521 142 516
3 522 32 521
3 524 523 518
3 518 143 524
3 523 141 518
3 524 26 523
3 527 525 526
3 526 113 527
3 525 142 526
3 527 66 525
3 521 413 526
3 526 142 521
3 413 113 526
3 521 32 413
3 244 520 525
3 525 66 244
3 520 142 525
3 244 19 520
3 414 247 527
3 527 113 414
3 247 66 527
3 414 11 247
3 530 528 529
3 529 86 530
3 528 141 529
3 530 112 528
3 523 316 529
3 529 141 523
3 316 86 529
3 523 26 316
3 405 522 528
3 528 112 405
3 522 141 528
3 405 32 522
3 317 408 530
3 530 86 317
3 408 112 530
3 317 0 408
3 533 531 532
3 532 61 533
3 531 143 532
3 533 89 531
3 519 231 532
3 532 143 519
3 231 61 532
3 519 19 231
3 326 524 531
3 531 89 326
3 524 143 531
3 326 26 524
3 232 329 533
3 533 61 232
3 329 89 533
3 232 5 329
3 536 534 535
3 535 146 536
3 534 145 535
3 536 144 534
3 538 537 535
3 535 145 538
3 537 146 535
3 538 22 537
3 540 539 534
3 534 144 540
3 539 145 534
3 540 16 539
3 542 541 536
3 536 146 542
3 541 144 536
3 542 39 541
3 545 543 544
3 544 54 545
3 543 145 544
3 545 80 543
3 539 204 544
3 544 145 539
3 204 54 544
3 539 16 204
3 293 538 543
3 543 80 293
3 538 145 543
3 293 22 538
3 205 296 545
3 545 54 205
3 296 80 545
3 205 4 296
3 548 546 547
3 547 125 548
3 546 144 547
3 548 57 546
3 541 455 547
3 547 144 541
3 455 125 547
3 541 39 455
3 214 540 546
3 546 57 214
3 540 144 546
3 214 16 540
3 456 217 548
3 548 125 456
3 217 57 548
3 456 9 217
3 551 549 550
3 550 81 551
3 549 146 550
3 551 130 549
3 537 301 550
3 550 146 537
3 301 81 550
3 537 22 301
3 468 542 549
3 549 130 468
3 542 146 549
3 468 39 542
3 302 471 551
3 551 81 302
3 471 130 551
3 302 3 471
3 554 552 553
3 553 149 554
3 552 148 553
3 554 147 552
3 556 555 553
3 553 148 556
3 555 149 553
3 556 21 555
3 558 557 552
3 552 147 558
3 557 148 552
3 558 25 557
3 560 559 554
3 554 149 560
3 559 147 554
3 560 37 559
3 563 561 562
3 562 88 563
3 561 148 562
3 563 70 561
3 557 327 562
3 562 148 557
3 327 88 562
3 557 25 327
3 260 556 561
3 561 70 260
3 556 148 561
3 260 21 556
3 328 261 563
3 563 88 328
3 261 70 563
3 328 5 261
3 566 564 565
3 565 129 566
3 564 147 565
3 566 87 564
3 559 469 565
3 565 147 559
3 469 129 565
3 559 37 469
3 321 558 564
3 564 87 321
3 558 147 564
3 321 25 558
3 470 322 566
3 566 129 470
3 322 87 566
3 470 3 322
3 569 567 568
3 568 71 569
3 567 149 568
3 569 128 567
3 555 266 568
3 568 149 555
3 266 71 568
3 555 21 266
3 461 560 567
3 567 128 461
3 560 149 567
3 461 37 560
3 267 464 569
3 569 71 267
3 464 128 569
3 267 10 464
3 572 570 571
3 571 152 572
3 570 151 571
3 572 150 570
3 574 573 571
3 571 151 574
3 573 152 571
3 574 27 573
3 576 575 570
3 570 150 576
3 575 151 570
3 576 12 575
3 578 577 572
3 572 152 578
3 577 150 572
3 578 36 577
3 581 579 580
3 580 49 581
3 579 151 580
3 581 96 579
3 575 189 580
3 580 151 575
3 189 49 580
3 575 12 189
3 349 574 579
3 579 96 349
3 574 151 579
3 349 27 574
3 190 352 581
3 581 49 190
3 352 96 581
3 190 7 352
3 584 582 583
3 583 118 584
3 582 150 583
3 584 48 582
3 577 428 583
3 583 150 577
3 428 118 583
3 577 36 428
3 181 576 582
3 582 48 181
3 576 150 582
3 181 12 576
3 429 184 584
3 584 118 429
3 184 48 584
3 429 8 184
3 587 585 586
3 586 97 587
3 585 152 586
3 587 121 585
3 573 357 586
3 586 152 573
3 357 97 586
3 573 27 357
3 438 578 585
3 585 121 438
3 578 152 585
3 438 36 578
3 358 441 587
3 587 97 358
3 441 121 587
3 358 1 441
3 590 588 589
3 589 155 590
3 588 154 589
3 590 153 588
3 592 591 589
3 589 154 592
3 591 155 589
3 592 17 591
3 594 593 588
3 588 153 594
3 593 154 588
3 594 30 593
3 596 595 590
3 590 155 596
3 595 153 590
3 596 35 595
3 599 597 598
3 598 104 599
3 597 154 598
3 599 64 597
3 593 383 598
3 598 154 593
3 383 104 598
3 593 30 383
3 237 592 597
3 597 64 237
3 592 154 597
3 237 17 592
3 384 240 599
3 599 104 384
3 240 64 599
3 384 6 240
3 602 600 601
3 601 120 602
3 600 153 601
3 602 103 600
3 595 439 601
3 601 153 595
3 439 120 601
3 595 35 439
3 377 594 600
3 600 103 377
3 594 153 600
3 377 30 594
3 440 378 602
3 602 120 440
3 378 103 602
3 440 1 378
3 605 603 604
3 604 65 605
3 603 155 604
3 605 119 603
3 591 245 604
3 604 155 591
3 245 65 604
3 591 17 245
3 433 596 603
3 603 119 433
3 596 155 603
3 433 35 596
3 246 434 605
3 605 65 246
3 434 119 605
3 246 11 434
3 608 606 607
3 607 158 608
3 606 157 607
3 608 156 606
3 610 609 607
3 607 157 610
3 609 158 607
3 610 15 609
3 612 611 606
3 606 156 612
3 611 157 606
3 612 28 611
3 614 613 608
3 608 158 614
3 613 156 608
3 614 41 613
3 617 615 616
3 616 95 617
3 615 157 616
3 617 55 615
3 611 350 616
3 616 157 611
3 350 95 616
3 611 28 350
3 209 610 615
3 615 55 209
3 610 157 615
3 209 15 610
3 351 210 617
3 617 95 351
3 210 55 617
3 351 7 210
3 620 618 619
3 619 135 620
3 618 156 619
3 620 94 618
3 613 490 619
3 619 156 613
3 490 135 619
3 613 41 490
3 342 612 618
3 618 94 342
3 612 156 618
3 342 28 612
3 491 345 620
3 620 135 491
3 345 94 620
3 491 2 345
3 623 621 622
3 622 56 623
3 621 158 622
3 623 134 621
3 609 215 622
3 622 158 609
3 215 56 622
3 609 15 215
3 484 614 621
3 621 134 484
3 614 158 621
3 484 41 614
3 216 485 623
3 623 56 216
3 485 134 623
3 216 9 485
3 626 624 625
3 625 161 626
3 624 160 625
3 626 159 624
3 628 627 625
3 625 160 628
3 627 161 625
3 628 31 627
3 630 629 624
3 624 159 630
3 629 160 624
3 630 20 629
3 632 631 626
3 626 161 632
3 631 159 626
3 632 40 631
3 635 633 634
3 634 73 635
3 633 160 634
3 635 105 633
3 629 272 634
3 634 160 629
3 272 73 634
3 629 20 272
3 382 628 633
3 633 105 382
3 628 160 633
3 382 31 628
3 273 385 635
3 635 73 273
3 385 105 635
3 273 6 385
3 638 636 637
3 637 137 638
3 636 159 637
3 638 72 636
3 631 496 637
3 637 159 631
3 496 137 637
3 631 40 496
3 265 630 636
3 636 72 265
3 630 159 636
3 265 20 630
3 497 268 638
3 638 137 497
3 268 72 638
3 497 10 268
3 641 639 640
3 640 102 641
3 639 161 640
3 641 136 639
3 627 372 640
3 640 161 627
3 372 102 640
3 627 31 372
3 489 632 639
3 639 136 489
3 632 161 639
3 489 40 632
3 373 492 641
3 641 102 373
3 492 136 641
3 373 2 492
