# vtk DataFile Version 3.0
this file was written using fslvtkio
ASCII
DATASET POLYDATA
POINTS 1068 float
96.1533 142.979 103.291
95.2027 142.733 104.564
95.7432 141.818 103.931
96.6312 141.579 103.128
97.3632 143.134 102.697
97.7803 141.801 102.797
98.657 143.182 102.584
99.0782 141.94 102.992
99.7838 143.084 102.924
100.273 142.119 103.477
95.8012 143.992 104.274
94.7328 143.446 105.529
96.9014 144.467 103.348
98.2295 144.614 102.904
99.695 144.455 102.951
100.803 143.659 103.445
95.3274 144.739 105.223
94.4852 144.515 106.375
96.4132 145.444 104.389
97.7352 145.855 103.885
99.1516 145.76 103.683
100.47 145.063 103.943
95.7186 145.79 105.634
97.1206 146.504 104.995
98.6499 146.76 104.856
99.8314 146.276 104.76
100.512 137.396 101.92
99.5803 136.478 102.669
100.435 135.822 102.061
101.546 136.23 101.902
101.762 137.537 102.438
102.597 136.737 102.571
99.1999 137.876 102.331
98.2523 138.264 103.25
98.6677 137.061 103.542
100.303 138.765 102.478
101.332 138.634 102.986
102.564 138.083 103.319
98.3742 139.47 102.639
97.4165 139.04 103.722
99.5338 139.467 102.574
100.848 139.954 103.3
102.213 139.398 103.879
96.0463 140.614 104.003
95.0712 141.322 104.891
95.5792 140.204 105.326
96.3678 139.546 104.613
97.1482 140.234 103.274
98.3767 140.873 102.909
99.6984 140.762 103.201
100.844 141.274 103.981
101.832 140.534 104.297
94.4674 142.001 105.83
101.461 142.666 104.111
94.0412 142.862 106.727
101.567 144.242 104.326
93.7407 143.772 107.51
100.82 145.713 105.06
94.9131 145.785 106.785
94.0934 145.097 107.862
95.9942 146.69 106.335
97.3915 147.115 105.999
98.6285 147.19 106.135
99.7197 146.834 106.197
95.0474 146.48 107.717
96.3522 147.054 107.393
97.5785 147.216 107.126
103.986 132.545 102.122
102.613 132.047 102.53
103.516 131.163 103.282
104.716 131.116 102.887
105.243 132.765 102.965
105.746 131.568 103.263
106.088 132.784 103.682
106.333 131.718 104.283
102.544 133.456 101.794
101.06 133.878 102.44
101.683 132.896 103.098
103.686 134.28 102.234
104.766 134.292 102.844
105.808 134.182 103.659
106.305 133.122 104.651
101.396 134.739 101.912
100.106 135.037 102.874
102.712 135.253 102.211
104.046 135.779 103.008
105.24 135.678 103.792
106.212 134.94 104.659
99.3454 135.888 103.95
103.562 137.048 103.384
104.729 137.186 104.254
105.869 136.652 104.892
97.7252 137.681 104.523
98.5112 136.555 104.904
103.229 138.646 104.201
104.179 138.499 104.769
105.482 138.059 105.623
97.0308 138.58 104.882
96.3565 138.989 105.934
97.111 138.035 106.008
103.142 140.277 104.87
104.218 139.933 105.434
105.046 139.156 105.746
94.8366 140.72 106.333
95.5347 139.591 106.589
102.063 141.666 104.794
102.946 141.749 105.509
103.895 141.118 106.031
94.1359 141.397 107.209
102.363 143.211 105.01
102.863 143.047 106.002
103.495 142.265 106.402
93.7175 142.257 108.09
101.863 144.828 105.426
102.524 144.319 106.216
93.5357 143.97 108.659
100.901 146.066 106.209
101.624 145.379 106.594
93.8447 145.259 109.325
99.6655 146.809 107.829
98.5958 147.135 107.308
100.686 146.307 107.398
94.5654 146.27 108.891
95.829 146.943 108.849
97.174 147.09 108.469
102.427 131.896 104.145
103.367 130.504 104.458
104.488 129.981 103.982
105.685 130.442 103.987
106.141 131.251 105.312
100.662 133.949 103.832
101.546 133.065 104.418
106.073 132.792 105.708
99.9416 134.842 104.388
106.345 134.289 105.715
106.477 135.696 105.727
106.276 134.893 106.963
99.3008 135.494 105.425
106.358 137.039 106.025
106.453 136.176 107.134
97.7031 137.039 105.915
98.3746 136.273 106.273
106.334 137.773 106.697
106.325 137.23 107.809
96.223 138.408 107.198
96.9558 137.403 107.234
105.095 140.233 106.552
105.847 139.28 106.74
106.314 138.42 107.318
94.6955 140.04 107.646
95.4725 138.939 107.966
104.878 140.984 107.048
105.483 140.556 107.959
94.02 140.658 108.466
103.387 143.404 107.048
104.05 142.279 107.22
104.718 141.63 107.638
93.4272 142.484 109.173
102.655 144.467 107.341
103.401 143.606 108.248
93.2506 143.925 109.841
102.452 144.597 108.256
101.578 145.454 107.667
93.5773 144.975 110.536
98.4413 146.987 108.392
99.3127 146.606 108.813
100.434 146.079 108.815
94.3087 146.078 110.428
95.4351 146.647 110.138
96.7622 146.809 109.813
98.0129 146.748 109.423
102.778 131.181 105.131
103.16 130.181 105.722
104.178 129.47 105.291
105.565 129.839 105.344
105.513 131.401 106.667
100.884 133.648 105.41
101.73 132.667 105.593
102.264 131.668 106.053
105.726 132.673 106.939
106.064 133.722 106.626
105.813 133.841 107.814
100.02 134.383 105.763
100.455 133.72 106.857
106.011 134.968 108.336
99.0745 135.305 106.793
106.097 136.046 108.762
97.5556 136.519 107.625
98.3412 135.974 107.184
106.037 137.044 109.25
96.2145 137.634 108.52
96.9096 136.988 108.202
105.939 139.384 108.09
106.015 138.186 108.909
94.71 139.165 109.044
95.4698 138.323 108.925
105.558 140.016 108.871
105.522 139.255 109.525
93.892 140.204 109.429
93.4393 140.414 110.63
94.0962 139.454 110.106
104.118 142.477 108.4
104.868 141.448 108.882
105.095 140.519 109.688
93.4605 141.47 109.721
93.0908 141.43 111.12
103.691 143.2 109.06
104.103 142.561 109.566
93.1613 142.742 110.503
92.9099 142.418 111.779
101.574 145.255 108.698
102.54 144.274 109.193
103.073 143.622 109.898
93.1302 143.942 111.245
92.9801 143.541 112.387
100.12 145.645 110.199
99.122 146.262 109.762
101.132 145.199 109.591
93.6634 145.247 111.708
94.5607 145.997 111.865
95.4491 146.352 111.4
96.6596 146.512 111.015
97.8537 146.43 110.555
104.508 129.103 106.494
103.164 129.475 106.787
103.623 128.633 107.915
104.768 129.237 107.767
105.336 130.044 106.756
104.934 130.491 108.155
102.604 130.578 106.75
104.986 131.527 108.55
101.263 132.811 107.185
101.912 131.503 107.347
105.41 132.598 108.16
105.549 133.661 109.075
99.3313 134.446 107.51
99.9352 133.495 108.438
105.733 134.831 109.769
98.0897 135.733 108.105
97.9259 135.429 109.265
98.6456 134.94 108.419
105.712 136.014 110.26
96.8642 136.594 109.212
96.2715 136.386 110.541
97.1195 135.721 110.24
105.685 137.357 110.403
95.7111 137.606 109.863
94.8775 137.661 111.118
95.522 136.711 111.394
105.44 138.413 110.545
94.6106 138.495 110.237
93.7538 139.247 111.261
94.0459 138.127 111.738
105.068 139.55 110.78
93.1517 140.065 111.977
104.474 140.585 111.002
104.319 141.57 110.153
92.8131 140.975 112.605
103.585 142.685 110.597
92.7351 142.039 113.15
102.545 143.484 111.066
101.951 144.345 110.169
92.9108 143.089 113.665
99.8244 145.238 111.301
98.8491 145.91 110.847
100.938 144.882 110.745
93.3862 144.528 112.901
94.2113 145.462 112.98
95.4109 145.996 112.744
96.522 146.094 112.204
97.7104 145.983 111.735
102.651 129.37 108.077
101.78 130.089 109.185
102.427 128.709 109.142
103.621 128.196 109.017
104.531 129.345 109.064
104.428 130.326 109.948
102.076 130.469 108.017
101.331 131.634 108.571
104.583 131.346 110.423
100.698 132.663 108.776
105.11 132.47 109.711
105.24 133.534 110.504
98.8918 134.333 109.093
98.1596 133.854 110.694
99.0862 133.428 110.036
99.8803 132.787 109.919
105.308 134.731 111.144
97.7982 134.756 110.371
96.7362 135.039 111.552
97.2711 134.036 111.888
105.263 136.118 111.51
96.0257 135.481 112.196
105.108 137.375 111.739
94.6262 137.202 112.316
95.2025 136.068 112.704
104.836 138.553 111.902
93.4034 138.827 112.646
93.7637 137.688 113.08
104.48 139.61 111.946
92.9271 139.562 113.419
103.899 140.673 112.085
103.779 141.68 111.31
92.6606 140.535 114.033
103.016 142.52 111.759
92.718 141.649 114.502
102.095 143.271 112.215
101.549 144.157 111.358
93.0004 142.681 114.89
98.7175 145.489 111.685
99.4601 145.098 112.175
100.472 144.659 112.028
93.4121 144.043 114.116
94.1433 144.994 114.038
95.2785 145.458 113.896
96.4341 145.617 113.448
97.4421 145.471 112.943
98.3307 145.257 112.508
102.885 127.576 109.771
101.76 128.658 110.212
102.229 127.119 110.522
103.57 126.793 110.897
104.059 127.95 109.947
103.894 127.889 111.239
104.163 129.048 110.33
103.956 129.06 111.59
101.2 130.359 110.125
104.154 130.086 111.824
100.745 131.504 109.976
104.366 131.105 112.151
100.37 132.188 110.063
99.6841 131.855 111.234
100.279 131.53 110.719
104.81 132.349 111.27
105.013 133.493 111.995
97.9776 132.865 111.794
99.0517 132.556 111.097
104.991 134.796 112.439
96.2 133.977 113.137
96.9329 133.098 112.867
104.855 136.192 112.77
95.3601 134.763 113.411
104.584 137.492 112.998
94.332 136.465 113.481
94.8431 135.574 113.451
104.202 138.739 113.131
93.0099 138.182 114.119
93.545 137.102 114.115
103.972 139.859 112.827
92.6855 139.073 114.847
103.47 140.495 113.089
103.179 141.518 112.585
92.5942 140.205 115.415
102.503 142.303 112.941
92.8161 141.285 115.825
101.627 142.917 113.24
101.119 143.867 112.426
93.2226 142.322 115.965
100.208 144.094 113.164
99.3975 144.746 112.974
93.5798 143.599 115.189
94.2865 144.471 115.095
95.3083 144.979 114.944
96.3693 145.085 114.558
97.348 144.982 114.086
98.3468 144.941 113.497
102.647 125.968 111.149
101.459 127.091 111.307
101.902 125.319 112.012
103.133 125.365 112.222
103.664 126.388 112.081
103.442 126.165 113.398
101.112 128.591 111.155
103.635 127.628 112.519
103.722 128.775 113.201
100.682 129.742 111.342
99.9084 129.373 112.482
100.532 128.806 111.88
103.889 129.803 113.667
100.155 130.845 111.35
99.2808 130.568 112.412
104.108 130.961 113.627
98.7405 131.773 112.224
97.9769 131.018 113.324
98.6498 130.743 112.874
104.597 132.258 112.712
104.638 133.549 113.378
97.4557 132.195 113.007
95.9825 132.552 114.135
96.8248 131.521 114.039
104.605 134.957 113.672
95.1171 133.544 114.428
104.369 136.34 113.936
94.6036 135.04 114.172
93.7834 134.991 115.2
94.2582 134.107 114.963
103.989 137.563 114.185
93.8166 136.043 114.611
93.0926 136.999 115.208
93.2217 135.699 115.802
103.808 138.643 114.08
103.418 138.272 115.012
103.252 139.421 114.469
92.6675 137.854 115.729
103.644 139.652 113.672
102.917 140.546 113.951
92.4938 138.945 116.283
102.385 141.311 113.882
92.6919 140.063 116.795
101.823 142.053 113.995
93.1756 141.095 116.982
101.357 142.667 113.926
100.863 143.389 113.584
93.5116 142.244 116.657
93.7578 143.169 116.127
94.1601 142.935 117.031
100.105 143.672 113.898
99.3016 144.295 113.904
94.4499 143.909 116.032
95.4491 144.399 115.903
96.3273 144.609 115.492
97.3438 144.494 115.238
98.2476 144.454 114.456
101.021 126.379 112.223
100.314 126.309 113.141
100.837 125.237 112.998
101.873 124.325 112.813
103.161 124.74 113.235
103.107 125.514 114.794
100.496 127.82 112.307
99.7812 127.169 113.624
103.336 127.344 114.024
103.494 128.572 114.753
99.5446 128.475 113.437
98.48 128.482 114.369
99.2224 127.739 114.046
103.659 129.853 115.293
98.7398 129.8 113.508
97.6555 129.475 114.579
103.957 131.148 114.677
104.256 132.24 113.778
104.108 132.549 114.764
97.3134 130.478 114.243
95.8335 131.201 115.085
96.5562 129.928 115.086
104.256 133.831 114.614
94.9111 132.186 115.412
104.186 135.194 114.804
94.4107 133.069 115.536
103.863 136.282 115.073
93.4094 134.079 116.144
93.8843 133.421 115.883
103.471 137.18 115.517
92.7583 136.515 116.627
92.8886 134.95 116.765
102.903 138.249 115.945
102.774 139.468 115.149
92.4745 137.629 117.149
102.2 140.261 115.167
92.6051 138.832 117.696
101.713 141.137 115.125
93.1449 139.983 118.047
101.178 142.332 114.55
101.196 141.561 115.284
100.7 141.941 115.396
93.6531 140.926 117.902
93.6822 141.911 117.382
94.1698 141.843 118.009
100.312 143.086 114.51
100.019 142.229 115.666
99.5694 142.916 115.311
94.8138 142.616 117.809
98.3501 143.82 115.255
98.2293 143.275 115.997
97.5788 143.687 115.966
99.3145 143.683 114.713
98.8149 143.033 115.779
94.8831 143.462 116.97
95.6863 143.8 116.715
96.6532 144 116.277
102.63 123.321 113.27
101.213 123.445 113.527
101.389 122.553 113.9
102.766 122.668 114.245
103.287 124.072 114.292
102.992 123.783 115.509
99.7295 125.313 114.187
100.4 124.252 113.701
102.762 125.31 116.141
99.0161 126.906 114.484
98.3571 126.158 115.363
99.0968 125.677 114.822
103.108 127.015 115.326
103.296 128.445 116.139
97.7875 127.553 115.153
96.4784 127.846 116.08
97.2185 126.609 116.024
103.366 129.884 116.735
96.9079 128.7 115.332
95.6095 129.651 115.955
103.771 131.203 115.725
103.846 132.63 115.969
94.8365 130.743 116.199
103.834 133.957 115.709
94.0593 131.475 116.543
93.3859 131.008 117.864
94.0368 130.428 117.344
103.663 134.953 116.033
93.6624 132.502 116.694
93.0413 132.143 117.904
103.363 135.91 116.387
92.999 133.495 117.184
92.5905 135.092 117.742
92.6593 133.357 118.076
102.983 137.006 116.515
92.4923 136.356 118.067
102.484 137.822 116.841
102.173 138.946 116.255
92.6088 137.534 118.522
101.642 139.787 116.39
93.0321 138.721 118.945
101.098 140.747 115.995
101.016 139.755 117.152
100.46 140.442 116.936
93.5817 139.78 119.018
98.8028 141.682 117.232
98.5199 140.746 118.475
98.144 141.617 117.708
99.583 141.215 117.012
99.1295 140.758 117.924
100.272 141.315 116.294
99.7912 140.307 117.711
94.0968 140.671 118.774
94.7488 141.527 118.649
98.2595 142.643 116.649
97.6272 142.207 117.471
99.2653 142.153 116.381
95.329 142.152 118.265
95.6258 142.986 117.536
96.4368 143.178 117.125
96.0954 142.308 118.108
97.2988 143.082 116.782
96.861 142.349 117.803
100.126 121.44 115.02
99.1273 121.817 115.626
99.6171 120.19 115.823
101.004 120.285 115.357
101.235 121.718 114.54
102.239 120.976 115.202
102.783 122.129 115.004
102.765 122.098 116.066
99.9902 123.174 114.545
98.9001 123.082 115.625
102.579 123.595 116.76
99.1215 124.454 115.089
97.837 124.442 116.184
97.915 123.452 116.372
102.561 125.178 117.47
97.8303 125.447 115.934
96.3902 125.942 116.794
97.0016 124.796 116.651
102.973 126.838 116.646
103.101 128.301 117.508
95.7073 127.68 116.748
103.147 129.587 117.808
95.076 128.662 116.957
93.9356 128.488 118.085
94.7119 127.541 117.617
103.422 131.169 116.79
103.094 130.82 118.064
94.5404 129.624 117.177
93.4076 129.641 118.493
103.394 132.196 117.086
103.423 133.467 116.944
92.7586 130.686 119.111
103.152 134.501 117.291
92.6468 132.27 118.71
92.4286 133.717 118.858
92.3653 131.882 119.657
102.824 135.836 117.278
92.4633 134.986 119.05
102.561 136.805 117.266
102.356 136.057 117.985
102.062 137.377 117.736
92.6607 136.181 119.39
101.681 138.416 117.403
93.0426 137.354 119.741
101.319 139.022 117.436
93.5058 138.291 119.963
93.7782 139.326 119.69
94.4314 138.947 120.269
100.422 139.762 117.748
100.527 138.941 118.317
99.9653 139.388 118.515
100.955 138.7 118.05
94.0769 139.991 119.414
94.6808 139.858 119.888
98.2176 139.948 119.373
97.7962 141.067 118.764
99.1041 139.808 118.826
95.6203 141.464 118.975
94.9378 140.736 119.427
96.4938 141.531 118.78
96.042 140.757 119.615
97.2692 141.593 118.455
96.9477 140.825 119.439
97.3501 120.74 117.308
96.181 120.467 118.176
96.9148 119.408 117.814
98.1584 119.516 116.758
98.4278 120.9 116.404
99.6351 119.053 116.206
101.196 119.283 116.156
102.363 120.356 116.271
102.369 121.701 117.225
96.7775 122.071 117.496
95.8038 122.12 118.212
97.7989 122.305 116.709
102.229 123.211 117.901
96.579 123.682 117.301
95.4459 123.484 118.171
102.235 124.46 118.608
95.7149 124.857 117.544
94.5655 125.644 118.325
94.8205 124.379 118.461
102.746 126.682 117.783
102.395 126.004 118.839
95.2963 126.491 117.492
93.9441 127.016 118.627
102.743 127.637 118.504
102.752 129.056 118.72
93.1115 128.223 119.146
102.615 130.311 119.119
92.6736 129.406 119.815
103.045 132.225 118.02
102.53 131.697 119.064
92.3815 130.59 120.493
102.776 133.233 118.295
102.205 132.821 119.441
92.37 133.513 119.903
92.3404 132.118 120.715
102.243 134.139 118.923
101.755 133.646 119.764
101.642 134.685 119.509
102.63 134.717 118.145
92.6262 134.691 120.327
101.867 135.772 118.733
101.178 135.431 119.683
92.9041 135.912 120.594
101.483 136.977 118.733
100.827 136.574 119.684
93.4284 136.706 120.796
100.762 137.716 118.966
100.505 137.18 119.709
100.059 137.598 119.727
101.336 138.156 118.166
93.8181 137.596 120.764
95.4545 139.206 120.528
94.6451 138.208 120.847
95.7421 138.45 121.111
99.9467 138.567 119.122
99.3885 138.071 119.903
99.1377 138.926 119.489
95.6191 140.022 120.034
96.4837 139.063 120.717
96.6471 139.868 120.117
97.4879 140.161 119.672
97.4562 139.14 120.378
98.3362 139.07 119.927
98.7733 117.093 117.227
97.2349 117.027 117.851
97.5919 116.053 117.741
99.1698 115.771 117.521
100.317 117.179 117.176
100.456 116.317 117.745
101.224 117.7 117.789
100.97 117.166 118.536
97.3903 118.206 117.613
95.7807 118.826 118.813
96.1998 117.608 118.688
98.7665 118.329 116.765
100.151 118.163 116.628
101.49 118.598 117.221
101.381 118.738 118.594
95.1783 120.479 118.933
102.054 120.024 117.482
101.861 121.524 118.38
94.9519 122.34 118.947
101.828 122.993 119.072
94.6515 123.483 118.871
93.8913 124.428 119.374
94.031 123.033 119.49
101.937 124.741 119.687
93.5732 125.775 119.421
101.998 126.251 120.078
93.0277 126.934 119.81
102.407 127.614 119.436
102.238 128.958 119.809
92.5297 128.011 120.502
102.089 130.252 120.063
92.464 129.154 121.158
101.895 131.501 120.197
92.511 130.295 121.745
101.739 132.564 120.166
92.6374 133.307 121.179
92.6221 131.721 121.744
101.401 132.945 120.375
101.06 133.77 120.475
93.1156 134.606 121.441
93.1357 133.329 122.139
100.518 135.278 120.326
93.5771 135.785 121.499
93.9713 134.77 122.241
100.178 136.564 120.28
99.9189 135.364 120.842
99.5238 136.149 120.944
94.0894 136.729 121.374
94.5016 135.998 122.011
98.5328 137.297 121.04
98.1492 136.428 121.703
97.6756 137.235 121.486
99.3896 137.221 120.569
98.8934 136.205 121.369
94.7915 137.36 121.425
96.7894 138.234 121.2
95.7754 137.64 121.558
97.8017 138.196 120.924
96.7994 137.257 121.685
98.695 138.204 120.391
96.6464 103.391 116.979
95.5774 103.799 117.113
95.6343 102.173 116.699
96.663 102.265 117.262
97.0957 103.397 117.898
96.6366 102.762 118.371
96.5717 104.6 117.307
95.9986 105.291 117.545
97.2732 104.531 117.933
97.0483 104.083 119.023
96.9739 105.846 117.815
97.3564 105.487 118.689
96.0842 115.273 119.063
94.7017 115.996 120.196
95.0314 114.761 120.022
96.7253 114.189 118.664
97.5394 115.069 118.002
98.5723 113.921 118.25
99.4614 114.84 118.052
100.012 114.488 119.26
95.9293 116.406 119.048
94.8668 117.471 119.805
100.564 115.795 118.644
100.786 117.451 119.454
94.6927 119.116 119.632
100.83 118.962 120.003
94.3539 120.407 119.728
93.5957 121.228 120.466
93.834 119.727 120.446
101.48 120.204 118.911
101.37 121.701 119.732
94.2474 121.717 119.633
93.3955 123.012 120.287
101.504 123.257 120.147
93.0561 124.51 120.442
101.442 124.654 120.795
92.729 125.723 120.776
101.113 125.581 121.429
92.5026 126.852 121.366
101.91 127.512 120.372
101.213 126.828 121.205
92.5758 128.024 122.128
101.631 128.563 120.834
100.943 128.282 121.627
92.8079 129.236 122.643
101.375 129.921 120.965
100.779 130.215 121.586
92.9612 130.721 122.826
101.261 131.757 120.836
100.553 131.408 121.541
93.3298 132.175 122.755
100.607 132.842 121.202
100 131.727 122.087
99.7077 132.643 122.098
93.9247 133.5 122.849
98.7684 134.089 122.303
98.0593 133.369 123.107
97.7645 134.242 122.758
99.7174 133.711 121.807
98.845 132.836 122.753
100.238 134.355 121.055
94.742 134.528 122.767
95.3177 135.598 122.477
96.5535 135.557 122.549
95.7795 134.718 122.933
97.6657 135.129 122.369
96.8403 134.582 122.942
98.3479 135.376 121.814
99.2761 134.982 121.502
95.2898 136.682 121.965
96.1825 136.573 122.137
97.3303 136.269 122.075
94.0942 101.509 117.344
93.7175 102.544 117.978
93.2891 101.29 118.562
94.1474 100.377 118.028
95.1729 101.045 117.034
95.2385 100.707 118.492
94.6659 102.946 117.241
94.1751 103.869 118.213
96.1446 101.467 117.968
96.2264 102.467 119.178
95.1073 104.954 117.822
94.2403 105.194 118.73
96.5201 103.758 119.778
95.144 106.641 118.412
94.2237 106.748 119.357
96.2124 106.691 117.955
97.4546 106.869 118.5
97.2226 105.689 119.691
95.1452 108.145 118.913
94.0965 107.957 119.905
96.2657 108.253 118.36
97.4081 108.23 118.331
97.8247 107.029 119.589
98.1542 108.229 119.17
97.9765 108.068 120.209
94.9867 109.311 119.438
93.8382 109.031 120.489
96.1721 109.752 118.618
97.5008 109.768 118.325
98.4183 109.562 119.009
98.2939 109.285 120.246
94.7686 110.319 119.844
95.8302 111.011 119.023
94.6372 111.462 120.105
97.3827 111.19 118.471
98.6887 110.983 119.083
98.5561 110.604 120.294
95.3658 112.375 119.535
94.1784 112.566 120.817
96.7417 112.286 118.68
98.7612 112.128 118.807
98.9091 111.936 120.625
94.3751 113.468 120.678
95.538 113.61 119.517
93.9205 114.604 121.363
97.5445 113.087 118.519
99.2141 112.857 120.541
99.4329 113.25 119.068
99.4163 113.866 120.72
93.7374 115.71 121.641
99.7433 115.053 120.78
93.986 117.055 121.09
93.5015 118.022 121.523
93.3847 116.655 122.559
100.439 116.03 119.99
100.307 117.366 120.734
94.0562 118.348 120.577
93.2629 119.705 121.365
100.134 118.421 121.406
93.0545 121.559 121.308
100.972 120.333 120.228
100.299 119.778 121.502
92.7487 123.071 121.373
100.905 121.354 120.897
100.987 122.798 121.105
92.563 124.438 121.751
100.778 123.974 121.781
92.5282 125.632 122.314
100.508 125.025 122.213
100.075 123.883 122.583
99.7124 124.953 123.005
92.7129 126.883 122.928
100.326 126.201 122.356
99.4533 126.48 123.237
93.1046 128.171 123.624
100.302 127.452 122.331
99.3629 127.811 123.178
93.411 129.576 123.745
99.681 128.867 122.836
98.7411 128.505 123.642
98.654 129.526 123.639
100.38 129.097 122.151
93.701 131.093 123.658
99.204 130.235 123.004
98.5185 130.663 123.492
99.9771 130.33 122.38
94.1335 132.289 123.403
99.3141 131.581 122.724
98.4952 131.781 123.306
94.695 133.068 123.431
95.1196 133.84 123.208
96.252 133.814 123.385
95.8215 133.034 123.769
97.2192 133.749 123.305
96.9551 132.827 123.732
97.7934 132.305 123.576
93.3736 102.879 119.023
93.1897 101.498 119.687
93.9764 100.423 119.358
94.8279 100.882 120.036
93.4558 104.186 119.634
95.6151 101.568 119.5
95.7226 102.731 120.385
93.5986 105.465 119.846
96.4704 104.503 120.502
93.5022 106.522 120.624
96.7247 105.861 120.949
93.4056 107.665 121.212
97.3639 107.063 120.581
97.6484 108.577 121.158
93.3544 108.598 121.788
97.9369 109.954 121.551
93.9469 110.215 120.675
93.4655 109.719 121.743
98.1257 111.267 121.781
93.768 111.117 121.174
93.6061 112.179 121.822
98.081 112.355 122.475
93.6191 113.457 122.331
93.6642 114.261 123.452
98.2921 113.397 122.526
98.7534 114.522 122.347
93.5536 115.402 123.604
98.8871 115.43 122.44
93.2316 118.206 122.507
93.4932 116.811 123.943
99.6317 116.281 121.446
99.3787 117.178 122.257
92.9468 119.985 122.36
99.4382 118.602 122.558
92.826 121.607 122.433
99.4497 119.913 122.813
92.7335 123.005 122.664
100.404 121.444 121.847
99.7566 121.154 122.712
92.7609 124.29 123.103
100.134 122.606 122.316
99.391 123.142 123.21
92.9185 125.503 123.77
98.9621 124.711 123.682
93.2384 126.681 124.103
98.6341 126.18 123.934
98.1533 125.063 124.388
97.7766 126.249 124.661
93.7445 127.696 124.538
94.2018 128.873 124.575
95.5602 128.644 125.084
94.6878 127.649 125.088
96.8229 128.164 125.1
95.8661 127.314 125.38
97.8059 127.441 124.599
96.9482 126.773 125.245
98.651 127.549 123.905
94.4395 130.246 124.249
95.464 129.807 124.661
96.66 129.394 124.787
97.7763 128.775 124.41
94.72 131.516 124.058
95.5911 131.008 124.415
96.6336 130.55 124.493
97.6631 130.011 124.197
95.0399 132.411 123.771
95.8592 132.118 124.079
96.7893 131.714 124.16
97.6675 131.167 123.931
93.2621 102.707 120.307
93.6979 101.35 120.748
93.3416 103.824 120.982
93.7709 102.687 121.474
94.8355 102.003 121.042
93.3615 105.123 121.201
93.6922 104.232 122.194
94.5336 103.313 122.255
95.4163 103.295 121.477
96.0641 104.491 121.429
93.347 106.434 122.023
96.3563 106.063 121.99
93.4965 107.692 122.62
96.9964 107.436 121.681
97.2193 108.979 122.273
93.5577 108.894 123.059
97.3784 110.551 122.762
93.4779 109.985 123.11
97.2765 111.816 123.393
93.3911 110.89 122.316
93.4187 111.604 123.23
97.0707 113.111 124.04
93.5151 112.582 123.245
94.5944 114.309 125.174
93.9292 113.096 124.43
96.5278 114.146 124.866
95.53 113.161 125.287
97.7707 114.258 123.567
94.2216 115.579 124.943
95.8715 115.416 125.392
97.4444 115.147 124.192
93.2582 118.539 123.484
93.7646 117.719 124.663
94.5757 116.622 125.409
96.1566 116.64 125.518
96.7715 117.674 125.146
97.2951 116.331 124.589
98.3648 116.226 123.301
93.0434 120.162 123.522
97.7016 117.938 124.301
97.1229 119.018 125.146
98.4673 117.527 123.441
93.0611 121.532 123.634
97.9138 119.716 124.393
97.1234 120.442 125.251
98.6071 118.958 123.626
93.0724 122.759 123.886
97.9475 121.321 124.496
97.0394 121.888 125.313
98.7916 120.645 123.645
93.2017 123.979 124.176
97.8321 122.743 124.576
96.7716 123.134 125.368
98.8571 122.096 123.671
93.6162 124.606 124.71
93.9325 125.645 124.967
95.3176 125.081 125.44
94.5101 124.316 125.295
96.6683 124.347 125.516
95.6596 123.761 125.582
97.5634 124.029 124.911
98.4127 123.755 124.178
94.017 126.805 124.945
94.9965 126.396 125.271
96.1982 125.887 125.454
97.2418 125.263 125.124
93.7047 105.525 122.795
94.6001 104.859 123.126
95.3888 104.465 122.389
93.9624 106.931 123.436
94.92 106.351 123.59
95.7653 105.902 122.882
94.0836 108.329 123.945
95.0483 107.937 124.19
95.9317 107.664 123.604
96.4107 107.507 122.667
94.0267 109.623 124.321
95.0868 109.438 124.689
95.9756 109.314 124.173
96.6626 109.204 123.238
93.6416 110.689 124.105
94.6904 110.727 124.983
95.8543 110.813 124.855
96.7122 110.7 123.903
94.0057 111.83 124.503
95.0623 112.109 125.128
96.3751 112.131 124.606
93.5827 119.15 124.537
94.4519 118.307 125.425
95.4677 117.612 125.627
93.6367 120.374 124.712
94.5403 119.574 125.636
95.8136 118.743 125.704
93.7329 121.537 124.867
94.7376 120.708 125.757
96.0723 119.974 125.888
93.8219 122.708 124.91
94.8356 121.868 125.597
96.079 121.253 125.796
93.9272 123.687 125.018
94.8155 123.049 125.435
95.9212 122.449 125.676
POLYGONS 2132  8528
3 0 1 2
3 0 3 4
3 2 3 0
3 4 5 6
3 3 5 4
3 6 7 8
3 5 7 6
3 7 9 8
3 10 1 0
3 11 1 10
3 4 12 0
3 12 10 0
3 6 13 4
3 13 12 4
3 8 14 6
3 14 13 6
3 15 8 9
3 14 8 15
3 16 11 10
3 17 11 16
3 12 18 10
3 18 16 10
3 13 19 12
3 19 18 12
3 14 20 13
3 20 19 13
3 21 14 15
3 20 14 21
3 16 22 17
3 18 22 16
3 23 22 18
3 19 23 18
3 24 23 19
3 20 24 19
3 25 24 20
3 21 25 20
3 26 27 28
3 26 29 30
3 28 29 26
3 29 31 30
3 32 33 34
3 27 32 34
3 27 26 32
3 26 35 32
3 30 36 26
3 36 35 26
3 37 30 31
3 36 30 37
3 38 33 32
3 39 33 38
3 35 40 32
3 40 38 32
3 36 41 35
3 41 40 35
3 42 36 37
3 41 36 42
3 43 44 45
3 43 46 47
3 45 46 43
3 39 47 46
3 39 38 47
3 38 48 47
3 40 49 38
3 49 48 38
3 50 41 51
3 50 49 41
3 49 40 41
3 42 51 41
3 2 44 43
3 2 1 44
3 1 52 44
3 3 2 43
3 47 3 43
3 5 3 47
3 48 5 47
3 7 5 48
3 49 7 48
3 49 9 7
3 49 50 9
3 50 53 9
3 1 11 52
3 52 11 54
3 9 53 15
3 53 55 15
3 11 17 54
3 54 17 56
3 15 55 21
3 55 57 21
3 58 17 22
3 58 59 17
3 59 56 17
3 22 23 60
3 58 22 60
3 23 24 61
3 60 23 61
3 62 61 24
3 62 24 63
3 63 24 25
3 57 25 21
3 63 25 57
3 58 64 59
3 60 64 58
3 65 64 60
3 61 65 60
3 66 65 61
3 62 66 61
3 67 68 69
3 67 70 71
3 69 70 67
3 71 72 73
3 70 72 71
3 72 74 73
3 75 76 77
3 68 75 77
3 68 67 75
3 67 78 75
3 71 79 67
3 79 78 67
3 73 80 71
3 80 79 71
3 81 73 74
3 80 73 81
3 82 76 75
3 83 76 82
3 78 84 75
3 84 82 75
3 79 85 78
3 85 84 78
3 80 86 79
3 86 85 79
3 87 80 81
3 86 80 87
3 28 83 82
3 28 27 83
3 27 88 83
3 29 28 82
3 84 29 82
3 31 29 84
3 31 84 89
3 89 84 85
3 86 90 85
3 90 89 85
3 91 86 87
3 90 86 91
3 34 92 93
3 33 92 34
3 88 27 34
3 93 88 34
3 89 94 37
3 31 89 37
3 90 95 89
3 95 94 89
3 96 90 91
3 95 90 96
3 97 98 99
3 97 99 92
3 97 92 39
3 39 92 33
3 94 100 42
3 37 94 42
3 101 95 102
3 101 100 95
3 100 94 95
3 96 102 95
3 45 103 104
3 44 103 45
3 98 97 46
3 98 46 104
3 104 46 45
3 39 46 97
3 51 105 50
3 51 42 100
3 51 100 105
3 105 100 106
3 107 100 101
3 106 100 107
3 44 52 103
3 103 52 108
3 105 109 53
3 50 105 53
3 110 106 111
3 110 109 106
3 109 105 106
3 107 111 106
3 52 54 108
3 108 54 112
3 109 113 55
3 53 109 55
3 114 109 110
3 113 109 114
3 54 56 112
3 112 56 115
3 113 116 57
3 55 113 57
3 117 113 114
3 116 113 117
3 56 59 115
3 115 59 118
3 63 119 120
3 62 63 120
3 116 63 57
3 116 121 63
3 121 119 63
3 117 121 116
3 59 122 118
3 64 122 59
3 65 123 64
3 64 123 122
3 66 124 65
3 65 124 123
3 120 66 62
3 124 66 120
3 69 125 126
3 68 125 69
3 70 69 127
3 69 126 127
3 72 70 128
3 70 127 128
3 128 74 72
3 129 74 128
3 77 130 131
3 76 130 77
3 125 68 77
3 131 125 77
3 74 129 81
3 129 132 81
3 76 83 130
3 130 83 133
3 134 135 87
3 134 87 132
3 132 87 81
3 134 136 135
3 83 88 133
3 133 88 137
3 135 138 91
3 87 135 91
3 139 135 136
3 138 135 139
3 93 140 141
3 92 140 93
3 137 88 93
3 141 137 93
3 138 142 96
3 91 138 96
3 143 138 139
3 142 138 143
3 99 144 145
3 98 144 99
3 140 92 99
3 145 140 99
3 102 146 101
3 102 147 146
3 96 147 102
3 96 148 147
3 96 142 148
3 143 148 142
3 104 149 150
3 103 149 104
3 144 98 104
3 150 144 104
3 146 151 107
3 101 146 107
3 152 146 147
3 151 146 152
3 103 108 149
3 149 108 153
3 111 154 110
3 111 155 154
3 107 155 111
3 107 156 155
3 107 151 156
3 152 156 151
3 108 112 153
3 153 112 157
3 154 158 114
3 110 154 114
3 159 154 155
3 158 154 159
3 112 115 157
3 157 115 160
3 158 161 162
3 158 162 114
3 114 162 117
3 159 161 158
3 115 118 160
3 160 118 163
3 119 164 120
3 165 164 119
3 165 119 166
3 166 119 121
3 162 121 117
3 166 121 162
3 118 167 163
3 122 167 118
3 123 168 122
3 122 168 167
3 124 169 123
3 123 169 168
3 164 124 120
3 164 170 124
3 170 169 124
3 165 170 164
3 126 125 171
3 172 126 171
3 172 173 126
3 173 127 126
3 128 127 174
3 127 173 174
3 174 129 128
3 175 129 174
3 131 130 176
3 131 176 177
3 125 131 177
3 125 177 178
3 125 178 171
3 172 171 178
3 179 180 132
3 179 132 175
3 175 132 129
3 179 181 180
3 176 182 183
3 176 130 182
3 130 133 182
3 177 176 183
3 132 180 134
3 180 136 134
3 180 181 136
3 181 184 136
3 133 137 182
3 182 137 185
3 136 184 139
3 184 186 139
3 141 187 188
3 140 187 141
3 185 137 141
3 188 185 141
3 139 186 143
3 186 189 143
3 145 190 191
3 144 190 145
3 187 140 145
3 191 187 145
3 148 192 147
3 148 193 192
3 148 143 193
3 143 189 193
3 150 194 195
3 149 194 150
3 190 144 150
3 195 190 150
3 192 196 152
3 147 192 152
3 197 192 193
3 196 192 197
3 198 199 200
3 198 200 194
3 198 194 153
3 153 194 149
3 156 201 155
3 156 202 201
3 152 202 156
3 152 203 202
3 152 196 203
3 197 203 196
3 204 199 198
3 205 199 204
3 153 157 204
3 198 153 204
3 201 206 159
3 155 201 159
3 207 201 202
3 206 201 207
3 208 205 204
3 209 205 208
3 157 160 208
3 204 157 208
3 161 210 162
3 161 211 210
3 159 211 161
3 159 212 211
3 159 206 212
3 207 212 206
3 213 209 208
3 214 209 213
3 160 163 213
3 208 160 213
3 166 215 216
3 165 166 216
3 210 166 162
3 210 217 166
3 217 215 166
3 211 217 210
3 213 218 214
3 163 218 213
3 163 167 218
3 167 219 218
3 168 220 167
3 167 220 219
3 169 221 168
3 168 221 220
3 170 222 169
3 169 222 221
3 216 170 165
3 222 170 216
3 223 224 225
3 223 226 227
3 225 226 223
3 226 228 227
3 173 224 223
3 173 172 224
3 172 229 224
3 174 173 223
3 227 174 223
3 227 175 174
3 227 228 175
3 228 230 175
3 178 231 232
3 177 231 178
3 229 172 178
3 232 229 178
3 175 230 233
3 179 175 233
3 233 181 179
3 234 181 233
3 183 235 236
3 182 235 183
3 231 177 183
3 236 231 183
3 181 234 184
3 234 237 184
3 238 239 240
3 238 240 235
3 238 235 185
3 185 235 182
3 184 237 186
3 237 241 186
3 242 243 244
3 239 242 244
3 238 242 239
3 238 187 242
3 238 188 187
3 185 188 238
3 186 241 189
3 241 245 189
3 246 247 248
3 243 246 248
3 242 246 243
3 242 190 246
3 242 191 190
3 187 191 242
3 189 245 193
3 245 249 193
3 250 251 252
3 247 250 252
3 246 250 247
3 246 194 250
3 246 195 194
3 190 195 246
3 193 249 197
3 249 253 197
3 200 251 250
3 200 199 251
3 199 254 251
3 194 200 250
3 203 255 256
3 202 203 256
3 253 203 197
3 255 203 253
3 199 205 254
3 254 205 257
3 202 256 207
3 256 258 207
3 205 209 257
3 257 209 259
3 212 260 261
3 211 212 261
3 258 212 207
3 260 212 258
3 209 214 259
3 259 214 262
3 215 263 264
3 216 215 264
3 217 265 215
3 215 265 263
3 261 217 211
3 265 217 261
3 214 266 262
3 218 266 214
3 219 267 218
3 218 267 266
3 220 268 219
3 219 268 267
3 221 269 220
3 220 269 268
3 222 270 221
3 221 270 269
3 264 222 216
3 270 222 264
3 271 272 273
3 271 225 224
3 271 273 225
3 273 274 225
3 226 225 275
3 225 274 275
3 275 228 226
3 276 228 275
3 277 272 271
3 278 272 277
3 224 229 277
3 271 224 277
3 228 276 230
3 276 279 230
3 232 278 277
3 232 231 278
3 231 280 278
3 229 232 277
3 230 279 281
3 233 230 281
3 281 234 233
3 282 234 281
3 283 284 285
3 283 236 235
3 283 285 236
3 285 286 236
3 280 231 236
3 286 280 236
3 234 282 237
3 282 287 237
3 288 289 290
3 284 288 290
3 283 288 284
3 283 239 288
3 283 240 239
3 235 240 283
3 237 287 241
3 287 291 241
3 244 289 288
3 244 243 289
3 243 292 289
3 239 244 288
3 241 291 245
3 291 293 245
3 248 294 295
3 247 294 248
3 292 243 248
3 295 292 248
3 245 293 249
3 293 296 249
3 252 297 298
3 251 297 252
3 294 247 252
3 298 294 252
3 249 296 253
3 296 299 253
3 251 254 297
3 297 254 300
3 255 301 302
3 256 255 302
3 299 255 253
3 301 255 299
3 254 257 300
3 300 257 303
3 256 302 258
3 302 304 258
3 257 259 303
3 303 259 305
3 260 306 307
3 261 260 307
3 304 260 258
3 306 260 304
3 259 262 305
3 305 262 308
3 263 309 264
3 310 309 263
3 310 263 311
3 311 263 265
3 307 265 261
3 311 265 307
3 262 312 308
3 266 312 262
3 267 313 266
3 266 313 312
3 268 314 267
3 267 314 313
3 269 315 268
3 268 315 314
3 270 316 269
3 269 316 315
3 309 270 264
3 309 317 270
3 317 316 270
3 310 317 309
3 318 319 320
3 318 321 322
3 320 321 318
3 322 323 324
3 321 323 322
3 323 325 324
3 273 319 318
3 273 272 319
3 272 326 319
3 274 273 318
3 322 274 318
3 275 274 322
3 324 275 322
3 324 276 275
3 324 325 276
3 325 327 276
3 272 278 326
3 326 278 328
3 276 327 279
3 327 329 279
3 330 331 332
3 330 332 328
3 330 328 280
3 280 328 278
3 279 329 333
3 281 279 333
3 333 282 281
3 334 282 333
3 285 335 336
3 284 335 285
3 331 330 286
3 331 286 336
3 336 286 285
3 280 286 330
3 282 334 287
3 334 337 287
3 290 338 339
3 289 338 290
3 335 284 290
3 339 335 290
3 287 337 291
3 337 340 291
3 289 292 338
3 338 292 341
3 291 340 293
3 340 342 293
3 295 343 344
3 294 343 295
3 341 292 295
3 344 341 295
3 293 342 296
3 342 345 296
3 298 346 347
3 297 346 298
3 343 294 298
3 347 343 298
3 296 345 299
3 345 348 299
3 297 300 346
3 346 300 349
3 301 350 351
3 302 301 351
3 348 301 299
3 350 301 348
3 300 303 349
3 349 303 352
3 302 351 304
3 351 353 304
3 303 305 352
3 352 305 354
3 306 355 356
3 307 306 356
3 353 306 304
3 355 306 353
3 305 308 354
3 354 308 357
3 311 358 359
3 310 311 359
3 356 311 307
3 358 311 356
3 308 360 357
3 312 360 308
3 313 361 312
3 312 361 360
3 314 362 313
3 313 362 361
3 315 363 314
3 314 363 362
3 316 364 315
3 315 364 363
3 317 365 316
3 316 365 364
3 359 317 310
3 365 317 359
3 366 367 368
3 366 369 370
3 368 369 366
3 369 371 370
3 320 367 366
3 320 319 367
3 319 372 367
3 321 320 366
3 370 321 366
3 370 371 373
3 370 373 321
3 321 373 323
3 373 325 323
3 374 325 373
3 375 376 377
3 375 377 372
3 375 372 326
3 326 372 319
3 325 374 327
3 374 378 327
3 379 376 375
3 380 376 379
3 326 328 379
3 375 326 379
3 327 378 329
3 378 381 329
3 382 383 384
3 380 382 384
3 379 382 380
3 379 331 382
3 379 332 331
3 328 332 379
3 329 381 385
3 333 329 385
3 385 334 333
3 386 334 385
3 387 388 389
3 383 387 389
3 382 387 383
3 382 335 387
3 382 336 335
3 331 336 382
3 334 386 337
3 386 390 337
3 339 388 387
3 339 338 388
3 338 391 388
3 335 339 387
3 337 390 340
3 390 392 340
3 393 394 395
3 393 395 391
3 393 391 341
3 341 391 338
3 340 392 342
3 392 396 342
3 397 398 399
3 394 397 399
3 393 397 394
3 393 343 397
3 393 344 343
3 341 344 393
3 400 401 402
3 400 396 401
3 400 345 396
3 345 342 396
3 347 398 397
3 347 346 398
3 346 403 398
3 343 347 397
3 404 400 402
3 405 404 402
3 345 404 348
3 400 404 345
3 346 349 403
3 403 349 406
3 350 404 405
3 350 405 351
3 351 405 407
3 348 404 350
3 349 352 406
3 406 352 408
3 351 407 353
3 407 409 353
3 352 354 408
3 408 354 410
3 355 411 412
3 356 355 412
3 409 355 353
3 411 355 409
3 413 357 414
3 413 410 357
3 410 354 357
3 413 414 415
3 358 416 417
3 359 358 417
3 412 358 356
3 416 358 412
3 357 360 414
3 414 418 415
3 414 360 418
3 360 361 418
3 362 419 361
3 361 419 418
3 363 420 362
3 362 420 419
3 364 421 363
3 363 421 420
3 365 422 364
3 364 422 421
3 417 365 359
3 422 365 417
3 423 424 425
3 423 368 367
3 423 425 368
3 425 426 368
3 369 368 427
3 368 426 427
3 427 371 369
3 428 371 427
3 429 424 423
3 430 424 429
3 367 372 429
3 423 367 429
3 371 428 431
3 373 371 431
3 431 374 373
3 432 374 431
3 433 434 435
3 430 433 435
3 429 433 430
3 429 376 433
3 429 377 376
3 372 377 429
3 374 432 378
3 432 436 378
3 437 434 433
3 438 434 437
3 376 380 437
3 433 376 437
3 439 440 381
3 439 381 436
3 436 381 378
3 439 441 440
3 442 443 444
3 438 442 444
3 437 442 438
3 437 383 442
3 437 384 383
3 380 384 437
3 381 440 385
3 440 386 385
3 440 441 386
3 441 445 386
3 389 443 442
3 389 388 443
3 388 446 443
3 383 389 442
3 386 445 390
3 445 447 390
3 388 391 446
3 446 391 448
3 390 447 392
3 447 449 392
3 395 450 451
3 394 450 395
3 448 391 395
3 451 448 395
3 392 449 396
3 449 452 396
3 399 453 454
3 398 453 399
3 450 394 399
3 454 450 399
3 401 455 456
3 402 401 456
3 452 401 396
3 455 401 452
3 398 403 453
3 453 403 457
3 402 456 405
3 456 458 405
3 403 406 457
3 457 406 459
3 405 458 407
3 458 460 407
3 406 408 459
3 459 408 461
3 462 463 464
3 462 460 463
3 462 409 460
3 409 407 460
3 465 410 466
3 465 461 410
3 461 408 410
3 465 466 467
3 468 469 470
3 464 469 468
3 462 464 468
3 462 468 412
3 462 412 411
3 409 462 411
3 410 413 466
3 466 413 415
3 466 415 467
3 467 415 471
3 472 473 474
3 472 475 476
3 473 472 476
3 470 476 475
3 468 470 475
3 468 475 417
3 468 417 416
3 412 468 416
3 415 477 471
3 418 477 415
3 419 478 418
3 418 478 477
3 420 479 419
3 419 479 478
3 474 421 472
3 474 479 421
3 479 420 421
3 422 472 421
3 475 472 422
3 417 475 422
3 480 481 482
3 480 483 484
3 482 483 480
3 483 485 484
3 425 486 487
3 424 486 425
3 481 480 426
3 481 426 487
3 487 426 425
3 427 426 480
3 484 427 480
3 484 428 427
3 484 485 428
3 485 488 428
3 489 490 491
3 489 491 486
3 489 486 430
3 430 486 424
3 428 488 492
3 431 428 492
3 492 432 431
3 493 432 492
3 494 495 496
3 490 494 496
3 489 494 490
3 489 434 494
3 489 435 434
3 430 435 489
3 432 493 436
3 493 497 436
3 498 495 494
3 499 495 498
3 434 438 498
3 494 434 498
3 436 497 500
3 439 436 500
3 500 441 439
3 501 441 500
3 444 499 498
3 444 443 499
3 443 502 499
3 438 444 498
3 441 501 445
3 501 503 445
3 504 505 506
3 504 506 502
3 504 502 446
3 446 502 443
3 445 503 447
3 503 507 447
3 508 505 504
3 509 505 508
3 446 448 508
3 504 446 508
3 447 507 449
3 507 510 449
3 511 512 513
3 509 511 513
3 508 511 509
3 508 450 511
3 508 451 450
3 448 451 508
3 449 510 452
3 510 514 452
3 454 512 511
3 454 453 512
3 453 515 512
3 450 454 511
3 455 516 517
3 456 455 517
3 514 455 452
3 516 455 514
3 453 457 515
3 515 457 518
3 456 517 458
3 517 519 458
3 457 459 518
3 518 459 520
3 521 522 523
3 521 519 522
3 521 460 519
3 460 458 519
3 459 461 520
3 520 461 524
3 525 526 527
3 525 528 529
3 526 525 529
3 528 530 531
3 529 528 531
3 523 531 530
3 521 523 530
3 521 530 464
3 521 464 463
3 460 521 463
3 461 532 524
3 465 532 461
3 532 465 467
3 533 532 467
3 534 525 527
3 535 534 527
3 528 525 536
3 536 525 534
3 469 536 470
3 469 530 536
3 530 528 536
3 464 530 469
3 537 471 538
3 537 533 471
3 533 467 471
3 538 539 540
3 537 538 540
3 539 541 542
3 540 539 542
3 535 542 541
3 534 535 541
3 534 541 474
3 534 474 473
3 476 534 473
3 536 534 476
3 470 536 476
3 471 477 538
3 478 538 477
3 539 538 478
3 479 539 478
3 541 539 479
3 474 541 479
3 543 544 545
3 543 546 547
3 545 546 543
3 547 548 549
3 546 548 547
3 548 550 549
3 551 544 543
3 552 544 551
3 482 481 551
3 482 551 547
3 547 551 543
3 483 482 547
3 549 483 547
3 549 485 483
3 549 550 485
3 550 553 485
3 554 555 556
3 552 554 556
3 551 554 552
3 551 486 554
3 551 487 486
3 481 487 551
3 485 553 488
3 553 557 488
3 558 559 560
3 555 558 560
3 554 558 555
3 554 490 558
3 554 491 490
3 486 491 554
3 488 557 561
3 492 488 561
3 561 493 492
3 562 493 561
3 496 559 558
3 496 495 559
3 495 563 559
3 490 496 558
3 493 562 497
3 562 564 497
3 565 566 567
3 565 567 563
3 565 563 499
3 499 563 495
3 568 500 497
3 568 497 569
3 569 497 564
3 500 568 501
3 570 566 565
3 571 566 570
3 499 502 570
3 565 499 570
3 568 569 572
3 572 501 568
3 572 573 501
3 573 503 501
3 506 571 570
3 506 505 571
3 505 574 571
3 502 506 570
3 503 573 507
3 573 575 507
3 576 577 578
3 576 578 574
3 576 574 509
3 509 574 505
3 507 575 510
3 575 579 510
3 513 577 576
3 513 512 577
3 512 580 577
3 509 513 576
3 581 582 583
3 581 579 582
3 581 514 579
3 514 510 579
3 512 515 580
3 580 515 584
3 516 581 583
3 516 583 517
3 517 583 585
3 514 581 516
3 515 518 584
3 584 518 586
3 517 585 519
3 585 587 519
3 588 520 589
3 588 586 520
3 586 518 520
3 588 589 590
3 591 592 593
3 591 523 522
3 591 522 592
3 592 522 594
3 587 522 519
3 594 522 587
3 589 524 595
3 520 524 589
3 596 590 589
3 595 596 589
3 526 597 598
3 527 526 598
3 529 599 526
3 526 599 597
3 593 531 591
3 593 599 531
3 599 529 531
3 523 591 531
3 524 532 595
3 533 600 601
3 532 533 601
3 532 601 596
3 532 596 595
3 600 602 603
3 601 600 603
3 602 604 605
3 603 602 605
3 604 598 605
3 604 535 598
3 535 527 598
3 533 537 600
3 540 600 537
3 602 600 540
3 542 602 540
3 604 602 542
3 535 604 542
3 606 607 608
3 606 609 610
3 608 609 606
3 610 545 544
3 610 609 545
3 609 611 545
3 546 545 612
3 545 611 612
3 548 546 613
3 546 612 613
3 613 550 548
3 614 550 613
3 615 607 606
3 616 607 615
3 610 617 606
3 617 615 606
3 544 552 617
3 610 544 617
3 550 614 553
3 614 618 553
3 619 616 615
3 620 616 619
3 556 555 619
3 556 619 617
3 617 619 615
3 552 556 617
3 553 618 557
3 618 621 557
3 622 623 624
3 620 622 624
3 619 622 620
3 619 559 622
3 619 560 559
3 555 560 619
3 625 561 557
3 625 557 626
3 626 557 621
3 561 625 562
3 627 623 622
3 628 623 627
3 559 563 627
3 622 559 627
3 625 626 629
3 629 562 625
3 629 630 562
3 630 564 562
3 567 628 627
3 567 566 628
3 566 631 628
3 563 567 627
3 564 630 569
3 630 632 569
3 566 571 631
3 631 571 633
3 634 572 569
3 634 569 635
3 635 569 632
3 572 634 573
3 571 574 633
3 633 574 636
3 637 634 635
3 638 637 635
3 573 637 575
3 634 637 573
3 578 639 640
3 577 639 578
3 636 574 578
3 640 636 578
3 641 642 643
3 638 642 641
3 638 641 637
3 637 641 644
3 575 644 579
3 637 644 575
3 577 580 639
3 639 580 645
3 646 641 643
3 647 646 643
3 582 646 583
3 582 644 646
3 644 641 646
3 579 644 582
3 580 584 645
3 645 584 648
3 649 646 647
3 650 649 647
3 583 649 585
3 646 649 583
3 584 586 648
3 648 586 651
3 652 653 654
3 650 653 652
3 650 652 649
3 649 652 655
3 585 655 587
3 649 655 585
3 586 656 651
3 588 656 586
3 590 657 658
3 590 658 588
3 588 658 656
3 658 657 659
3 660 661 662
3 654 661 660
3 652 654 660
3 652 660 593
3 652 593 592
3 594 652 592
3 655 652 594
3 587 655 594
3 657 596 663
3 590 596 657
3 664 659 657
3 664 657 665
3 665 657 663
3 665 666 667
3 664 665 667
3 666 598 597
3 666 597 667
3 667 597 668
3 662 599 660
3 662 668 599
3 668 597 599
3 593 660 599
3 596 601 663
3 603 663 601
3 665 663 603
3 605 665 603
3 666 665 605
3 598 666 605
3 669 670 671
3 669 672 673
3 671 672 669
3 673 674 675
3 672 674 673
3 674 676 675
3 677 678 679
3 670 677 679
3 670 669 677
3 669 680 677
3 673 681 669
3 681 680 669
3 675 682 673
3 682 681 673
3 683 675 676
3 682 675 683
3 608 678 677
3 608 607 678
3 607 684 678
3 609 608 677
3 680 609 677
3 611 609 680
3 681 611 680
3 612 611 681
3 682 612 681
3 682 683 685
3 682 685 612
3 612 685 613
3 685 614 613
3 686 614 685
3 607 616 684
3 684 616 687
3 614 686 618
3 686 688 618
3 689 690 691
3 689 691 687
3 689 687 620
3 620 687 616
3 618 688 621
3 688 692 621
3 624 690 689
3 624 623 690
3 623 693 690
3 620 624 689
3 621 692 626
3 692 694 626
3 623 628 693
3 693 628 695
3 626 694 696
3 629 626 696
3 696 630 629
3 697 630 696
3 628 631 695
3 695 631 698
3 630 697 632
3 697 699 632
3 631 633 698
3 698 633 700
3 632 699 635
3 699 701 635
3 633 636 700
3 700 636 702
3 635 701 638
3 701 703 638
3 640 639 704
3 640 704 705
3 640 705 636
3 636 705 702
3 642 706 707
3 643 642 707
3 703 642 638
3 706 642 703
3 704 645 708
3 639 645 704
3 709 705 704
3 708 709 704
3 643 707 647
3 707 710 647
3 708 648 711
3 645 648 708
3 712 709 708
3 711 712 708
3 713 714 715
3 713 710 714
3 713 650 710
3 650 647 710
3 711 651 716
3 648 651 711
3 717 712 711
3 716 717 711
3 718 719 720
3 718 721 722
3 719 718 722
3 715 722 721
3 713 715 721
3 713 721 654
3 713 654 653
3 650 713 653
3 651 656 716
3 716 723 717
3 716 656 723
3 656 658 723
3 659 724 725
3 659 725 658
3 658 725 723
3 724 726 727
3 725 724 727
3 720 727 726
3 720 726 718
3 718 726 728
3 661 728 662
3 661 721 728
3 721 718 728
3 654 721 661
3 659 664 724
3 667 724 664
3 726 724 667
3 668 726 667
3 728 726 668
3 662 728 668
3 729 730 731
3 729 732 733
3 731 732 729
3 732 734 733
3 735 730 729
3 736 730 735
3 733 737 729
3 737 735 729
3 738 733 734
3 737 733 738
3 735 739 736
3 737 739 735
3 740 739 737
3 738 740 737
3 741 742 743
3 741 744 745
3 743 744 741
3 745 746 747
3 744 746 745
3 746 748 747
3 749 742 741
3 750 742 749
3 671 670 749
3 671 749 745
3 745 749 741
3 672 671 745
3 747 672 745
3 747 748 751
3 747 751 672
3 672 751 674
3 751 676 674
3 752 676 751
3 679 750 749
3 679 678 750
3 678 753 750
3 670 679 749
3 676 752 683
3 752 754 683
3 755 756 757
3 755 757 753
3 755 753 684
3 684 753 678
3 683 754 758
3 685 683 758
3 758 686 685
3 759 686 758
3 760 756 755
3 761 756 760
3 684 687 760
3 755 684 760
3 686 759 688
3 759 762 688
3 691 761 760
3 691 690 761
3 690 763 761
3 687 691 760
3 688 762 692
3 762 764 692
3 690 693 763
3 763 693 765
3 692 764 694
3 764 766 694
3 693 695 765
3 765 695 767
3 768 696 694
3 768 694 769
3 769 694 766
3 696 768 697
3 695 698 767
3 767 698 770
3 771 768 769
3 772 771 769
3 697 771 699
3 768 771 697
3 698 700 770
3 770 700 773
3 774 771 772
3 775 774 772
3 699 774 701
3 771 774 699
3 700 702 773
3 773 702 776
3 777 774 775
3 778 777 775
3 701 777 703
3 774 777 701
3 702 705 776
3 776 705 779
3 780 781 782
3 778 781 780
3 777 778 780
3 777 780 707
3 777 707 706
3 703 777 706
3 705 709 779
3 779 709 783
3 784 785 786
3 784 787 788
3 785 784 788
3 782 788 787
3 782 787 780
3 780 787 789
3 707 789 710
3 780 789 707
3 790 712 791
3 790 783 712
3 783 709 712
3 791 792 793
3 790 791 793
3 792 794 795
3 793 792 795
3 786 795 794
3 786 794 784
3 784 794 796
3 787 784 797
3 797 784 796
3 714 797 715
3 714 789 797
3 789 787 797
3 710 789 714
3 791 717 798
3 712 717 791
3 792 791 799
3 799 791 798
3 794 792 800
3 800 792 799
3 719 800 720
3 719 796 800
3 796 794 800
3 722 796 719
3 797 796 722
3 715 797 722
3 717 723 798
3 725 798 723
3 799 798 725
3 727 799 725
3 800 799 727
3 720 800 727
3 801 802 803
3 801 804 805
3 803 804 801
3 804 806 805
3 807 802 801
3 808 802 807
3 731 730 807
3 731 807 805
3 805 807 801
3 805 806 809
3 805 809 731
3 731 809 732
3 809 734 732
3 810 734 809
3 811 808 807
3 812 808 811
3 730 736 811
3 807 730 811
3 734 810 738
3 810 813 738
3 814 812 811
3 815 812 814
3 736 739 816
3 736 816 811
3 811 816 814
3 739 740 817
3 816 739 817
3 740 818 817
3 740 738 818
3 738 813 818
3 819 815 814
3 820 815 819
3 816 821 814
3 821 819 814
3 817 822 816
3 822 821 816
3 823 817 818
3 823 824 817
3 824 822 817
3 823 825 824
3 826 820 819
3 827 820 826
3 821 828 819
3 828 826 819
3 822 829 821
3 829 828 821
3 824 830 822
3 830 829 822
3 831 824 825
3 830 824 831
3 826 832 827
3 832 833 834
3 832 826 833
3 826 828 833
3 829 835 828
3 835 833 828
3 830 836 829
3 836 835 829
3 837 830 831
3 836 830 837
3 838 834 833
3 839 834 838
3 835 840 833
3 840 838 833
3 836 841 835
3 841 840 835
3 842 836 837
3 841 836 842
3 838 843 839
3 843 844 845
3 843 838 844
3 838 840 844
3 841 846 840
3 846 844 840
3 847 841 842
3 847 848 841
3 848 846 841
3 847 849 848
3 743 845 844
3 743 742 845
3 742 850 845
3 744 743 844
3 846 744 844
3 746 744 846
3 848 746 846
3 848 748 746
3 848 849 748
3 849 851 748
3 852 853 854
3 852 854 850
3 852 850 750
3 750 850 742
3 748 851 855
3 751 748 855
3 855 752 751
3 856 752 855
3 857 853 852
3 858 853 857
3 750 753 857
3 852 750 857
3 752 856 754
3 856 859 754
3 757 858 857
3 757 756 858
3 756 860 858
3 753 757 857
3 861 758 754
3 861 754 862
3 862 754 859
3 758 861 759
3 756 761 860
3 860 761 863
3 861 862 864
3 864 759 861
3 864 865 759
3 865 762 759
3 761 763 863
3 863 763 866
3 762 865 764
3 865 867 764
3 763 765 866
3 866 765 868
3 869 870 871
3 869 867 870
3 869 766 867
3 766 764 867
3 765 767 868
3 868 767 872
3 873 869 871
3 874 873 871
3 766 873 769
3 869 873 766
3 767 770 872
3 872 770 875
3 876 873 874
3 877 876 874
3 769 876 772
3 873 876 769
3 770 773 875
3 875 773 878
3 879 880 881
3 877 880 879
3 877 879 876
3 876 879 882
3 772 882 775
3 876 882 772
3 773 776 878
3 878 776 883
3 884 879 881
3 885 884 881
3 882 879 886
3 886 879 884
3 775 886 778
3 882 886 775
3 776 779 883
3 883 779 887
3 888 884 885
3 889 888 885
3 781 888 782
3 781 886 888
3 886 884 888
3 778 886 781
3 890 783 891
3 890 887 783
3 887 779 783
3 891 892 893
3 890 891 893
3 892 894 895
3 893 892 895
3 894 786 785
3 894 785 895
3 895 785 896
3 889 788 888
3 889 896 788
3 896 785 788
3 782 888 788
3 783 790 891
3 793 891 790
3 892 891 793
3 795 892 793
3 894 892 795
3 786 894 795
3 803 897 898
3 802 897 803
3 804 803 899
3 803 898 899
3 899 806 804
3 900 806 899
3 802 808 897
3 897 808 901
3 806 900 902
3 809 806 902
3 902 810 809
3 903 810 902
3 808 812 901
3 901 812 904
3 810 903 813
3 903 905 813
3 812 815 904
3 904 815 906
3 813 905 818
3 905 907 818
3 815 820 906
3 906 820 908
3 818 907 909
3 823 818 909
3 909 825 823
3 910 825 909
3 820 827 908
3 908 827 911
3 825 910 831
3 910 912 831
3 913 827 832
3 913 914 827
3 914 911 827
3 832 834 913
3 831 912 837
3 912 915 837
3 913 916 914
3 916 913 834
3 916 834 917
3 917 834 839
3 837 915 842
3 915 918 842
3 839 919 917
3 843 919 839
3 919 843 845
3 920 919 845
3 842 918 921
3 847 842 921
3 921 849 847
3 922 849 921
3 845 850 920
3 920 850 923
3 849 922 851
3 922 924 851
3 854 925 926
3 853 925 854
3 923 850 854
3 926 923 854
3 851 924 927
3 855 851 927
3 927 856 855
3 928 856 927
3 853 858 925
3 925 858 929
3 856 928 859
3 928 930 859
3 858 860 929
3 929 860 931
3 859 930 862
3 930 932 862
3 860 863 931
3 931 863 933
3 934 864 862
3 934 862 935
3 935 862 932
3 864 934 865
3 863 866 933
3 933 866 936
3 937 934 935
3 938 937 935
3 865 937 867
3 934 937 865
3 866 868 936
3 936 868 939
3 870 937 938
3 870 938 871
3 871 938 940
3 867 937 870
3 868 872 939
3 939 872 941
3 942 943 944
3 942 940 943
3 942 874 940
3 874 871 940
3 945 875 946
3 945 941 875
3 941 872 875
3 946 947 948
3 945 946 948
3 947 949 950
3 948 947 950
3 949 951 952
3 950 949 952
3 944 952 951
3 944 951 942
3 942 951 953
3 874 953 877
3 942 953 874
3 946 878 954
3 875 878 946
3 947 946 955
3 955 946 954
3 949 947 956
3 956 947 955
3 951 949 957
3 957 949 956
3 880 957 881
3 880 953 957
3 953 951 957
3 877 953 880
3 954 883 958
3 878 883 954
3 955 954 959
3 959 954 958
3 956 955 960
3 960 955 959
3 957 956 961
3 961 956 960
3 881 961 885
3 957 961 881
3 958 887 962
3 883 887 958
3 959 958 963
3 963 958 962
3 960 959 964
3 964 959 963
3 961 960 965
3 965 960 964
3 885 965 889
3 961 965 885
3 887 890 962
3 893 962 890
3 963 962 893
3 895 963 893
3 964 963 895
3 896 964 895
3 965 964 896
3 889 965 896
3 898 897 966
3 898 967 899
3 966 967 898
3 899 967 900
3 966 901 968
3 897 901 966
3 967 966 969
3 969 966 968
3 900 970 902
3 900 967 970
3 967 969 970
3 902 970 903
3 968 971 972
3 968 901 971
3 901 904 971
3 969 968 972
3 973 969 972
3 970 969 973
3 974 970 973
3 974 903 970
3 974 975 903
3 975 905 903
3 904 906 971
3 971 906 976
3 905 975 907
3 975 977 907
3 906 908 976
3 976 908 978
3 907 977 979
3 909 907 979
3 979 910 909
3 980 910 979
3 908 911 978
3 978 911 981
3 910 980 912
3 980 982 912
3 911 914 981
3 981 914 983
3 912 982 915
3 982 984 915
3 914 985 983
3 916 985 914
3 985 916 917
3 986 985 917
3 915 984 918
3 984 987 918
3 917 988 986
3 919 988 917
3 920 989 990
3 920 990 919
3 919 990 988
3 989 991 992
3 990 989 992
3 921 991 993
3 921 987 991
3 921 918 987
3 992 991 987
3 921 993 922
3 989 923 994
3 920 923 989
3 991 989 995
3 995 989 994
3 993 991 996
3 996 991 995
3 922 996 924
3 993 996 922
3 926 997 998
3 925 997 926
3 994 923 926
3 994 926 999
3 999 926 998
3 995 994 999
3 1000 995 999
3 1000 1001 1002
3 1000 1002 995
3 995 1002 996
3 924 1003 927
3 924 996 1003
3 996 1002 1003
3 927 1003 928
3 925 929 997
3 997 929 1004
3 1005 1002 1001
3 1006 1005 1001
3 1003 1002 1007
3 1007 1002 1005
3 928 1007 930
3 1003 1007 928
3 929 931 1004
3 1004 931 1008
3 1009 1005 1006
3 1010 1009 1006
3 1007 1005 1011
3 1011 1005 1009
3 930 1011 932
3 1007 1011 930
3 931 933 1008
3 1008 933 1012
3 1013 1009 1010
3 1014 1013 1010
3 1011 1009 1015
3 1015 1009 1013
3 932 1015 935
3 1011 1015 932
3 933 936 1012
3 1012 936 1016
3 1017 1013 1014
3 1018 1017 1014
3 1015 1013 1019
3 1019 1013 1017
3 935 1019 938
3 1015 1019 935
3 1020 939 1021
3 1020 1016 939
3 1016 936 939
3 1021 1022 1023
3 1020 1021 1023
3 1022 1024 1025
3 1023 1022 1025
3 1018 1025 1024
3 1018 1024 1017
3 1017 1024 1026
3 1019 1017 1027
3 1027 1017 1026
3 938 1027 940
3 1019 1027 938
3 1021 941 1028
3 939 941 1021
3 1022 1021 1029
3 1029 1021 1028
3 1024 1022 1030
3 1030 1022 1029
3 1026 1024 1031
3 1031 1024 1030
3 943 1031 944
3 943 1027 1031
3 1027 1026 1031
3 940 1027 943
3 941 945 1028
3 948 1028 945
3 1029 1028 948
3 950 1029 948
3 1030 1029 950
3 952 1030 950
3 1031 1030 952
3 944 1031 952
3 972 971 1032
3 972 1033 973
3 1032 1033 972
3 973 1034 974
3 1033 1034 973
3 974 1034 975
3 1032 976 1035
3 971 976 1032
3 1033 1032 1036
3 1036 1032 1035
3 1034 1033 1037
3 1037 1033 1036
3 975 1037 977
3 1034 1037 975
3 1035 978 1038
3 976 978 1035
3 1036 1035 1039
3 1039 1035 1038
3 1037 1036 1040
3 1040 1036 1039
3 977 1041 979
3 977 1037 1041
3 1037 1040 1041
3 979 1041 980
3 1038 981 1042
3 978 981 1038
3 1039 1038 1043
3 1043 1038 1042
3 1040 1039 1044
3 1044 1039 1043
3 1041 1040 1045
3 1045 1040 1044
3 980 1045 982
3 1041 1045 980
3 1042 983 1046
3 981 983 1042
3 1043 1042 1047
3 1047 1042 1046
3 1044 1043 1048
3 1048 1043 1047
3 1045 1044 1049
3 1049 1044 1048
3 982 1049 984
3 1045 1049 982
3 983 985 1046
3 986 1046 985
3 986 1050 1046
3 1050 1047 1046
3 1048 1047 1051
3 1051 1047 1050
3 1049 1048 1052
3 1052 1048 1051
3 984 1052 987
3 1049 1052 984
3 986 988 1050
3 990 1050 988
3 1051 1050 990
3 992 1051 990
3 1052 1051 992
3 987 1052 992
3 998 997 1053
3 998 1054 999
3 1053 1054 998
3 999 1055 1000
3 1054 1055 999
3 1000 1055 1001
3 1053 1004 1056
3 997 1004 1053
3 1054 1053 1057
3 1057 1053 1056
3 1055 1054 1058
3 1058 1054 1057
3 1001 1058 1006
3 1055 1058 1001
3 1056 1008 1059
3 1004 1008 1056
3 1057 1056 1060
3 1060 1056 1059
3 1058 1057 1061
3 1061 1057 1060
3 1006 1061 1010
3 1058 1061 1006
3 1059 1012 1062
3 1008 1012 1059
3 1060 1059 1063
3 1063 1059 1062
3 1061 1060 1064
3 1064 1060 1063
3 1010 1064 1014
3 1061 1064 1010
3 1062 1016 1065
3 1012 1016 1062
3 1063 1062 1066
3 1066 1062 1065
3 1064 1063 1067
3 1067 1063 1066
3 1014 1067 1018
3 1064 1067 1014
3 1016 1020 1065
3 1023 1065 1020
3 1066 1065 1023
3 1025 1066 1023
3 1067 1066 1025
3 1018 1067 1025
