# vtk DataFile Version 3.0
this file was written using fslvtkio
ASCII
DATASET POLYDATA
POINTS 664 float
89.118 120.195 76.2506
87.2386 119.653 76.3966
88.2225 118.182 76.7593
90.3468 118.501 77.1954
91.1559 120.237 76.9384
91.7023 118.923 77.5973
86.976 121.337 76.1867
84.5853 120.741 76.685
85.5249 119.638 76.4373
89.1106 122.209 76.1431
90.8487 121.927 76.2729
92.5302 120.112 77.5858
92.5667 121.732 76.9093
93.4572 120.768 77.7766
93.886 121.763 77.6428
94.5008 120.809 78.3544
86.1901 122.882 76.9418
84.3689 122.285 77.975
88.2868 123.641 76.3801
90.5005 124.087 76.5229
92.3296 123.709 76.6103
93.8607 123.046 77.455
95.0759 121.959 78.4202
86.2738 123.761 78.3373
85.7384 123.018 79.4642
88.0346 124.664 77.9112
90.0795 125.616 77.4192
92.2101 125.742 77.1667
94.0124 124.904 77.4984
95.3567 123.673 78.4093
87.8099 124.459 79.5266
89.8472 125.501 79.2551
91.9127 126.262 78.9863
94.0418 126.251 78.8897
95.3359 125.278 78.9246
86.1261 118.507 76.4952
83.9331 118.287 76.9498
85.7411 117.29 76.6947
87.3591 116.601 77.1259
89.7226 116.686 77.6083
91.9557 117.535 78.3764
92.7698 118.926 78.2549
93.5715 118.064 78.9709
82.9072 120.368 77.7848
93.9925 119.675 78.7481
95.6034 120.298 79.3506
83.558 121.821 79.6061
96.4491 122.312 79.4687
85.5215 122.519 80.68
96.5355 124.405 79.7173
87.5273 123.386 80.7295
89.6969 124.395 80.7422
91.6919 125.413 80.7384
93.8234 126.04 80.7592
95.9446 125.879 80.7604
86.1416 113.882 78.15
84.4083 113.404 78.8525
85.8627 112.725 79.1705
87.213 112.41 79.2273
88.2231 113.752 78.5266
88.7937 112.83 79.6858
84.7299 115.882 77.5067
82.8753 114.766 78.1559
87.4575 115.22 77.7264
89.5754 113.871 79.2673
89.6761 115.04 78.3807
90.9126 114.455 79.3178
82.4425 116.68 77.76
80.3534 117.039 79.2994
81.2789 115.282 78.9128
91.7119 116.011 78.9613
94.5425 116.649 79.8203
94.9032 118.562 79.3345
96.1291 118.554 80.4111
81.5812 118.68 78.0667
80.2659 118.949 79.8734
96.9929 120.56 80.5262
81.6602 120.358 79.4801
81.3098 119.744 81.5885
97.4604 121.949 80.7449
97.4251 123.539 80.5921
98.5809 122.711 81.5703
83.0273 121.007 81.0581
84.8541 121.605 81.7741
97.3132 124.914 81.1314
98.5608 124.164 81.9854
87.2057 122.232 81.5804
89.451 122.741 81.5639
91.4542 123.76 81.7792
93.344 124.97 82.0881
95.5375 125.601 82.4986
97.683 125.352 82.7189
85.8733 111.26 80.0399
84.1774 110.447 80.578
85.0946 109.653 81.2529
87.0365 109.745 81.2251
88.5285 111.483 80.5667
89.2798 110.024 81.8374
90.8596 111.421 81.4335
91.5324 109.932 82.8623
83.61 111.786 79.9476
81.9763 110.72 80.8098
83.1262 110.412 80.7212
90.4986 113.068 80.3403
93.0229 111.385 81.9521
92.7154 113.251 81.0627
94.1069 112.608 81.8265
94.4793 113.876 81.3389
95.4799 113.539 82.1069
80.9909 112.378 80.3999
79.0999 112.655 81.6035
80.0058 111.038 81.4372
82.0767 113.509 79.2214
92.5166 114.848 79.8603
94.2891 114.774 80.4926
96.081 115.195 81.4323
79.8217 114.5 80.2418
78.6358 114.593 82.3977
97.1048 117.183 81.3046
98.0561 119.51 81.3883
98.664 118.323 82.1227
99.4415 119.638 82.5533
100.058 118.647 83.136
79.4798 116.252 81.2318
79.9636 118.105 81.8993
98.543 121.316 81.7588
99.7661 120.975 82.7925
100.824 120.035 83.8052
81.944 118.952 83.3893
100.015 122.823 82.7241
101.254 121.876 84.2009
83.465 120.256 82.5633
85.4802 120.391 82.9917
99.3872 124.311 83.2517
100.933 123.717 84.4985
86.9062 121.261 82.5837
88.7609 121.703 82.3173
90.9007 122.107 82.7543
92.8261 123.247 83.0328
94.76 124.285 83.8031
96.9558 124.944 84.3032
99.0088 124.632 84.5309
83.494 107.365 82.1478
81.54 106.963 82.4835
82.6523 105.871 82.7261
84.6586 106.298 82.8215
85.5528 108.025 81.9007
86.6467 106.741 83.1685
87.8055 108.41 82.3881
88.7858 107.244 83.6495
89.8914 108.707 82.8797
91.0977 108.046 84.2173
82.9924 109.014 81.5577
80.8978 108.307 82.2982
92.82 108.994 84.408
80.7935 109.613 81.7188
78.7226 110.614 83.0985
79.4234 108.678 82.6912
93.7917 110.346 83.4091
95.2453 111.737 82.8811
96.8668 113.422 82.7632
78.1148 112.622 83.7475
98.0064 114.57 82.831
78.9574 114.647 84.5263
98.3678 115.99 82.5839
99.4669 117.3 83.0952
101.07 118.33 84.4691
79.5538 116.575 83.4245
80.9675 117.772 84.4769
102.181 120.385 85.4663
83.4409 118.231 85.0573
102.199 122.509 86.1237
84.3616 119.432 83.9684
86.0395 119.496 83.9247
91.3502 121.186 83.8486
90.9519 120.101 84.5666
90.1825 120.742 83.6508
92.0466 120.68 84.8203
100.361 123.625 86.2809
87.0866 120.159 83.3114
88.7761 120.501 83.1625
92.4116 122.014 84.0185
94.0861 122.805 84.6903
96.0859 123.498 85.227
98.0893 124.003 85.9203
84.3444 103.294 84.1274
83.0877 101.935 84.5567
84.3462 101.82 84.6688
85.6112 101.965 84.7744
86.4541 103.761 84.4163
87.3998 102.36 85.1959
88.3167 104.402 84.8099
88.8796 102.933 85.7919
89.8158 104.666 85.3782
90.4658 103.771 86.205
82.0151 103.413 83.9946
80.1547 103.402 84.7131
81.3195 102.091 84.9957
83.2317 104.604 83.2201
85.432 104.917 83.5772
87.5464 105.504 83.9207
89.6439 106.237 84.7745
91.3176 105.984 85.492
80.8802 105.121 83.4866
79.0351 105.564 84.5254
92.7459 107.662 85.358
79.8055 107.172 83.3353
78.5367 108.705 84.3685
93.7477 108.556 85.6327
78.3451 111.1 85.5312
94.7333 109.533 85.1202
95.8977 110.565 84.5776
97.2865 112.033 83.9354
98.6095 113.755 84.1396
98.6361 112.874 85.3158
78.9028 112.92 85.6957
99.3315 115.124 84.1134
99.7264 114.816 86.1749
80.1333 114.256 86.263
100.582 116.549 85.0252
102.222 118.466 86.3038
80.514 116.163 85.3424
82.7847 116.81 86.0588
102.709 120.843 87.4711
85.0797 117.354 86.2539
85.907 118.36 84.9855
88.1239 118.384 85.3884
87.0926 117.256 86.1512
90.1162 118.471 85.6808
89.0561 117.495 86.4465
91.8637 119.169 85.7204
91.0556 117.418 86.7506
94.1265 119.96 86.4371
93.1776 118.333 86.9257
96.0233 120.727 87.0902
95.3654 118.91 87.5232
97.0128 119.627 88.1074
101.129 122.269 87.8808
87.6618 119.295 84.2093
89.6461 119.39 84.443
93.2692 121.023 85.381
95.1836 121.962 85.9829
97.6128 121.074 87.9401
97.2079 122.461 86.8454
99.2021 122.893 87.2157
99.2876 121.725 88.2868
84.4376 100.388 85.198
82.8585 99.3883 85.5387
84.0054 98.6262 85.8576
85.7184 98.8818 85.8586
86.5449 100.622 85.5263
87.6456 99.3659 86.3713
88.4033 101.056 86.1384
89.8817 100.283 87.3489
89.7551 101.972 86.4126
90.915 102.129 87.1747
82.2013 100.694 85.2162
80.223 100.946 86.0347
81.2285 99.3324 85.8561
91.7008 104.03 86.6551
79.2178 102.812 86.1428
92.5612 105.039 86.4241
93.0699 106.457 86.3163
93.7088 105.213 87.252
78.9838 104.853 86.115
79.0289 105.363 87.298
79.1853 103.835 87.1858
93.7423 107.904 86.7138
93.7789 106.943 87.6104
78.576 106.862 85.7682
78.8439 107.078 87.4669
94.8202 109.047 86.5847
94.8119 109.176 88.1999
78.4962 109.001 86.4109
79.4185 108.643 88.0402
96.108 110.047 86.9704
97.465 111.251 85.8727
98.5588 112.888 86.7445
79.5834 110.482 87.4115
80.4492 112.21 87.3117
98.9234 114.216 87.7581
81.8388 113.573 87.2025
101.152 116.824 87.3001
99.5705 115.806 88.3678
81.8212 115.346 86.6545
83.4419 115.615 87.3545
92.8783 116.527 87.4224
92.5167 115.195 87.7441
91.2626 115.414 87.2825
94.9078 117.168 87.81
93.7472 115.519 88.1295
97.1974 117.987 88.6597
95.6884 116.072 88.6146
99.8021 118.177 88.8594
97.7751 116.3 89.1309
101.755 119.082 88.1175
84.6315 116.316 87.132
86.5673 115.975 87.0298
89.0351 116.033 87.1094
98.7543 119.861 88.7887
100.875 120.492 88.8187
85.5357 95.6084 87.5392
83.8491 95.0837 87.64
84.7128 93.7308 88.3153
87.1231 94.662 88.2591
87.5274 96.437 87.4452
88.566 95.8151 88.4377
89.2327 97.3963 87.9892
90.2431 96.5756 88.8818
83.4975 96.3216 86.9823
81.6412 96.8195 87.4968
82.645 95.4835 87.6637
84.7424 97.4335 86.6368
86.5461 97.5716 86.7702
88.5191 98.3487 87.1523
90.763 98.1407 88.7311
90.1649 98.937 88.0872
92.0791 99.6534 88.8923
82.407 97.8766 86.4357
80.4724 98.7522 87.3034
91.8121 101.139 88.0796
92.3344 102.815 87.5787
93.363 102.039 88.2726
79.5381 100.607 88.0529
93.0728 103.966 87.1954
93.8983 103.56 88.1959
79.1366 102.359 87.8113
79.2592 103.687 88.5553
79.6251 101.892 89.3943
93.886 105.258 88.5639
79.5218 105.351 88.747
93.3187 107.53 88.5329
79.945 106.877 88.924
93.3183 109.147 89.0615
80.547 108.073 89.1392
96.1865 111.068 89.1908
94.2796 110.563 89.6149
97.4362 111.377 87.5904
80.5905 109.574 88.7139
82.9116 112.331 88.1291
81.6152 110.8 88.7298
83.2007 111.178 89.1726
94.5439 112.586 89.4465
93.3645 111.362 89.6585
92.4984 112.199 89.3084
96.5582 113.1 89.502
97.8097 112.765 88.5455
83.4855 113.986 87.6427
84.5348 111.648 88.6744
85.2075 113.284 88.1429
85.9545 111.833 88.1915
92.407 113.719 88.2952
91.3745 112.492 88.7024
90.4164 112.754 88.2117
94.4108 114.513 88.7295
96.0997 114.579 89.4208
97.8997 114.56 89.0567
85.2998 114.804 87.6752
86.897 112.93 87.8604
87.603 114.395 87.5236
89.9713 114.18 87.5113
88.5441 112.72 87.8067
83.0724 94.3042 88.2054
81.798 95.177 88.6137
82.5776 93.2546 89.132
84.318 91.9489 89.4093
86.6725 93.109 89.0226
89.2898 94.5697 89.2542
91.243 96.3609 89.7007
80.7938 96.8158 88.8668
92.2104 98.0864 89.416
94.4494 99.1404 89.9586
80.3253 98.638 89.4727
93.8143 100.828 88.9194
94.7181 102.443 89.3308
80.487 100.336 90.6583
94.1646 103.851 89.7129
80.2707 103.635 89.8953
80.7328 102.212 90.8943
93.1695 105.498 89.3189
80.881 105.198 90.0676
92.31 106.77 89.1248
92.1298 105.478 89.8155
91.1507 106.592 89.6279
81.1806 106.761 90.0431
92.0083 108.195 89.097
90.8085 108.147 89.4329
81.4391 107.692 89.7666
81.3426 108.628 89.2057
82.1567 108.175 89.7632
92.0683 110.253 89.2468
90.5513 109.416 89.1966
82.0655 109.352 89.4361
84.1812 110.685 89.2505
83.5264 109.737 89.4386
84.8795 109.857 89.1758
90.6017 111.117 89.0057
89.2555 109.329 89.4156
88.8284 110.17 88.8935
87.4216 111.483 88.1894
85.953 110.6 88.7054
88.9795 111.447 88.4325
87.478 110.076 88.7758
86.3808 91.6077 90.0754
84.1799 90.9174 91.0552
86.5574 90.4714 91.1883
88.7013 91.5284 90.8575
88.5074 92.7735 89.743
90.4879 92.9654 90.9669
89.8852 93.6477 90.1316
91.312 94.4161 90.6838
81.5629 94.6529 90.3409
82.505 92.2311 90.8077
91.9941 95.7875 90.418
93.1412 97.315 90.1083
94.9435 96.9807 90.742
81.074 96.6096 90.6425
96.5366 98.9101 91.0787
81.331 98.0948 91.4322
95.366 101.098 90.1398
95.2046 100.708 91.8703
82.2588 99.4938 92.1939
94.1402 102.633 91.0892
93.0673 101.82 92.023
81.9732 103.606 91.0451
82.0026 101.442 91.9991
92.063 103.503 91.3624
91.3945 102.26 91.7438
90.4124 103.174 91.3582
92.8808 104.239 90.3221
82.4375 105.48 90.6408
83.3734 103.178 91.8804
84.0848 104.791 91.1394
86.0687 104.892 91.2472
85.0905 103.364 91.793
88.0413 104.848 91.3214
86.8606 103.199 91.6512
90.0926 104.683 91.0232
88.8539 103.23 91.528
91.3429 105.023 90.2301
82.3952 107.197 90.4312
83.8239 106.681 90.5684
85.5023 106.433 90.8288
87.1244 106.317 91.076
88.8913 106.433 90.9416
90.3241 106.517 90.4416
83.2141 108.198 90.0311
84.8288 108.217 89.9635
86.4418 107.739 90.3861
87.9292 107.646 90.6943
89.3999 108.081 90.188
86.2263 109.013 89.3251
87.7816 108.819 89.7459
84.7308 90.0117 92.4089
86.8147 89.5049 92.0479
88.8541 90.2355 91.6119
90.9371 91.6341 91.7111
92.8668 93.5404 91.8169
93.3919 95.2149 91.0227
95.2887 95.3248 91.7316
82.3461 93.6819 92.0466
83.298 91.9102 92.9875
97.2353 97.3101 91.6802
82.2483 95.9112 92.3265
83.5522 94.2641 93.2487
95.3135 98.8842 93.262
82.9676 97.5764 92.9177
93.1884 100.249 92.6823
83.5889 98.9486 93.1618
83.7231 100.566 92.966
84.9156 99.2595 93.3236
89.7418 100.68 92.117
89.6581 99.3104 92.2509
88.3917 100.115 92.3262
91.4801 101.003 92.0839
91.2778 99.6003 92.4636
83.9873 102.138 92.4241
85.4449 100.208 92.8985
85.8567 101.637 92.3264
87.8527 101.593 91.9334
87.0584 100.082 92.5336
89.7863 101.942 91.6168
88.1626 88.6668 92.3363
85.9403 88.7811 93.167
87.3717 87.7896 93.9708
89.6306 88.2817 93.1661
90.7225 89.6635 92.167
91.7466 89.1765 93.2861
92.8021 91.4838 92.5944
93.866 90.7723 93.6366
95.0006 93.3432 92.6219
95.528 92.1126 93.7196
96.8262 93.6606 92.9766
97.1698 92.6686 93.6476
84.7081 90.2899 94.0557
97.453 95.3335 92.2571
98.1501 94.68 93.6303
84.6671 91.9929 94.7689
96.8094 97.4776 93.5706
97.6968 96.3635 93.8353
84.4587 96.0775 93.8718
85.1634 93.8064 94.2804
91.967 97.0401 93.6905
91.7474 95.2648 94.2608
90.2296 96.1774 93.8267
93.668 97.9206 93.6861
94.3226 96.6715 94.0374
96.1334 96.3573 94.5505
85.0107 97.7484 93.4557
86.4044 95.4619 94.1986
86.9399 97.1326 93.564
89.246 97.1724 93.323
88.2774 95.9245 94.026
90.6004 98.4849 92.9736
92.8043 98.8278 93.1918
86.4306 98.67 93.0092
88.3145 98.4488 92.575
92.7138 89.0039 94.269
91.25 87.8588 94.3225
92.1784 87.2699 95.0572
93.5107 88.2026 94.8584
93.9687 89.6041 94.3856
94.5484 89.0809 94.852
85.7759 88.9166 95.0375
87.1585 87.7287 95.8255
89.3825 87.6462 94.6699
95.2697 90.4949 94.2419
96.8895 91.0341 94.6028
98.3717 92.9062 94.2076
98.2288 91.6217 94.8909
85.8333 90.9359 95.7922
98.3351 94.4404 95.1469
98.6327 92.9648 95.5041
86.2924 92.5587 95.7478
96.9408 93.0387 96.0977
96.9259 95.1341 95.0486
87.0967 93.6077 95.1813
87.559 94.5139 94.427
89.586 94.992 94.2622
89.3762 94.2548 95.3723
91.2201 94.1526 95.5629
92.9927 94.4445 94.9859
94.8112 95.0808 94.9093
90.6178 87.3279 95.837
91.9792 86.8622 96.4118
93.3357 87.0283 95.6684
94.6223 87.8887 95.3571
95.6939 89.655 94.8683
95.838 88.7569 95.323
96.4403 89.7266 95.041
97.0381 89.2705 95.394
86.766 89.7336 96.6952
87.4693 88.4133 97.3497
88.8455 87.4508 96.6203
98.4162 90.2186 95.3361
99.0843 91.5811 95.6659
99.5479 90.5019 95.7635
99.9301 91.2488 96.1498
100.433 90.3512 96.3856
87.7006 91.6709 96.7888
88.2933 90.1966 97.6702
98.3912 92.3311 96.3708
99.0947 91.66 96.7111
100.292 91.028 96.9288
88.0566 93.1184 96.1359
89.658 91.4843 97.3352
89.7994 93.1061 96.6897
92.0136 93.3106 96.2151
91.2172 92.3146 97.0403
93.8645 93.4739 95.8963
93.0024 91.9554 96.6299
95.5244 93.8302 95.6476
94.9918 92.2502 96.3872
96.3701 91.8522 96.9625
97.8433 91.7268 97.1347
99.2993 91.2509 97.4873
90.8032 87.1896 97.481
92.0732 86.8377 97.4003
93.0941 86.867 96.913
94.516 87.0187 96.3353
95.8218 87.9131 95.9026
96.8164 88.1676 96.3891
88.249 88.3493 98.364
89.3108 87.387 98.3035
98.3203 88.594 96.2432
99.7024 89.57 96.3655
100.801 90.0635 97.042
88.9567 89.5008 98.7652
100.364 90.772 97.7695
89.8366 90.4205 98.3239
91.3529 91.2152 97.9339
92.8568 91.0565 97.6789
92.3631 90.4818 98.6833
94.2129 91.0935 97.3288
95.4615 91.1598 97.3267
96.7665 91.2538 97.7384
97.7256 90.9457 98.0126
98.8678 90.6696 98.1496
93.7228 90.6171 98.3702
95.0277 90.6031 98.1602
96.1408 90.7215 98.1978
97.0518 90.8122 98.4825
91.8123 86.9883 97.9984
92.8027 86.8819 98.0047
94.2172 86.9449 97.7524
95.6553 87.1526 96.9841
89.266 88.3909 99.3748
90.4668 87.5631 98.9962
91.9097 87.1858 98.8002
93.6295 87.1927 98.9804
95.3978 87.0565 98.3263
97.0321 87.5862 97.4802
98.4927 87.7713 97.4625
99.5916 88.4779 97.1881
100.513 89.1183 97.3659
101.15 90.0998 97.9974
100.841 89.1449 98.3424
89.8151 89.6274 99.4005
90.2998 88.7744 100.173
100.167 90.5054 98.6128
100.823 89.9991 99.1129
90.9857 90.2017 99.1814
92.0538 90.0996 99.6641
98.3747 90.1692 99.3314
97.7332 90.5379 98.9392
99.4318 90.1228 99.2075
93.1492 90.1987 99.2858
94.3946 90.2509 99.1445
95.5414 90.2914 99.0575
96.6508 90.4819 99.1406
91.2131 87.8158 100.315
92.6013 87.5079 100.25
93.8777 87.488 100.096
94.8808 87.3104 99.5538
96.2836 87.3373 99.0227
97.6754 87.514 98.4702
99.0477 87.8712 98.2082
100.183 88.3167 98.103
100.737 88.9113 99.3349
91.2921 89.3505 100.377
92.1158 88.6012 100.906
93.4458 88.269 100.778
100.084 89.6713 99.797
92.4614 89.7341 100.579
93.3595 89.3342 101.016
97.8239 89.8948 100.22
97.223 90.2622 99.8213
98.9097 89.7471 100.124
93.6996 90.018 100.172
94.9394 90.1158 99.9547
96.0827 90.2369 100.089
94.7553 87.9206 100.589
95.9459 87.6481 100.285
97.2125 87.6963 99.7601
98.5629 88.0477 99.394
99.8212 88.2553 99.0098
94.5175 88.9883 100.919
95.6812 88.6833 100.76
96.7707 88.438 100.454
97.9521 88.83 100.27
99.47 88.7428 99.987
94.3661 89.7896 100.745
95.4399 89.741 100.722
96.6684 89.5482 100.59
POLYGONS 1324  5296
3 0 1 2
3 0 3 4
3 2 3 0
3 3 5 4
3 6 7 8
3 1 6 8
3 1 0 6
3 0 9 6
3 4 10 0
3 10 9 0
3 11 4 5
3 11 12 4
3 12 10 4
3 12 13 14
3 11 13 12
3 13 15 14
3 16 7 6
3 17 7 16
3 9 18 6
3 18 16 6
3 10 19 9
3 19 18 9
3 12 20 10
3 20 19 10
3 14 21 12
3 21 20 12
3 22 14 15
3 21 14 22
3 23 17 16
3 24 17 23
3 18 25 16
3 25 23 16
3 19 26 18
3 26 25 18
3 20 27 19
3 27 26 19
3 21 28 20
3 28 27 20
3 29 21 22
3 28 21 29
3 23 30 24
3 25 30 23
3 31 30 25
3 26 31 25
3 32 31 26
3 27 32 26
3 33 32 27
3 28 33 27
3 34 33 28
3 29 34 28
3 35 36 37
3 35 2 1
3 35 37 2
3 37 38 2
3 3 2 39
3 2 38 39
3 5 40 41
3 5 3 40
3 3 39 40
3 40 42 41
3 8 36 35
3 8 7 36
3 7 43 36
3 1 8 35
3 5 41 11
3 41 42 44
3 41 44 11
3 11 44 13
3 44 15 13
3 45 15 44
3 7 17 43
3 43 17 46
3 15 45 22
3 45 47 22
3 17 24 46
3 46 24 48
3 22 47 29
3 47 49 29
3 24 50 48
3 30 50 24
3 31 51 30
3 30 51 50
3 32 52 31
3 31 52 51
3 33 53 32
3 32 53 52
3 34 54 33
3 33 54 53
3 49 34 29
3 54 34 49
3 55 56 57
3 55 58 59
3 57 58 55
3 58 60 59
3 61 56 55
3 62 56 61
3 59 63 55
3 63 61 55
3 64 59 60
3 64 65 59
3 65 63 59
3 64 66 65
3 67 68 69
3 62 67 69
3 61 67 62
3 61 36 67
3 61 37 36
3 38 37 61
3 63 38 61
3 39 38 63
3 65 39 63
3 65 66 70
3 65 70 39
3 39 70 40
3 42 71 72
3 42 40 71
3 40 70 71
3 71 73 72
3 74 68 67
3 75 68 74
3 36 43 74
3 67 36 74
3 42 72 44
3 72 45 44
3 72 73 45
3 73 76 45
3 77 75 74
3 78 75 77
3 43 46 77
3 74 43 77
3 79 80 47
3 79 47 76
3 76 47 45
3 79 81 80
3 77 82 78
3 82 77 46
3 82 46 83
3 83 46 48
3 80 84 49
3 47 80 49
3 85 80 81
3 84 80 85
3 48 86 83
3 50 86 48
3 51 87 50
3 50 87 86
3 52 88 51
3 51 88 87
3 53 89 52
3 52 89 88
3 54 90 53
3 53 90 89
3 84 54 49
3 84 91 54
3 91 90 54
3 85 91 84
3 92 93 94
3 92 95 96
3 94 95 92
3 96 97 98
3 95 97 96
3 97 99 98
3 100 101 102
3 93 100 102
3 92 100 93
3 92 56 100
3 92 57 56
3 58 57 92
3 96 58 92
3 60 58 96
3 60 96 103
3 103 96 98
3 104 98 99
3 104 105 98
3 105 103 98
3 105 106 107
3 104 106 105
3 106 108 107
3 109 110 111
3 101 109 111
3 101 100 109
3 100 112 109
3 56 62 112
3 100 56 112
3 60 103 64
3 66 64 103
3 66 103 113
3 113 103 105
3 107 114 105
3 114 113 105
3 115 107 108
3 114 107 115
3 116 110 109
3 117 110 116
3 69 68 116
3 69 116 112
3 112 116 109
3 62 69 112
3 66 113 70
3 71 70 113
3 114 71 113
3 73 118 119
3 71 118 73
3 71 115 118
3 71 114 115
3 119 120 121
3 118 120 119
3 120 122 121
3 116 123 117
3 123 116 68
3 123 68 124
3 124 68 75
3 119 125 76
3 73 119 76
3 121 126 119
3 126 125 119
3 127 121 122
3 126 121 127
3 75 78 124
3 124 78 128
3 76 125 79
3 81 79 125
3 81 125 129
3 129 125 126
3 130 126 127
3 129 126 130
3 78 131 128
3 82 131 78
3 131 82 83
3 132 131 83
3 129 133 85
3 81 129 85
3 134 129 130
3 133 129 134
3 83 135 132
3 86 135 83
3 87 136 86
3 86 136 135
3 88 137 87
3 87 137 136
3 89 138 88
3 88 138 137
3 90 139 89
3 89 139 138
3 91 140 90
3 90 140 139
3 133 91 85
3 133 141 91
3 141 140 91
3 134 141 133
3 142 143 144
3 142 145 146
3 144 145 142
3 146 147 148
3 145 147 146
3 148 149 150
3 147 149 148
3 149 151 150
3 152 143 142
3 153 143 152
3 94 93 152
3 94 152 146
3 146 152 142
3 95 94 146
3 148 95 146
3 97 95 148
3 150 97 148
3 150 99 97
3 150 151 99
3 151 154 99
3 155 156 157
3 153 155 157
3 152 155 153
3 152 101 155
3 152 102 101
3 93 102 152
3 99 154 158
3 104 99 158
3 106 104 159
3 104 158 159
3 159 108 106
3 160 108 159
3 111 156 155
3 111 110 156
3 110 161 156
3 101 111 155
3 108 160 115
3 160 162 115
3 110 117 161
3 161 117 163
3 115 162 164
3 118 115 164
3 120 118 165
3 118 164 165
3 165 122 120
3 166 122 165
3 117 167 163
3 123 167 117
3 167 123 124
3 168 167 124
3 122 166 127
3 166 169 127
3 124 128 168
3 168 128 170
3 127 169 130
3 169 171 130
3 128 172 170
3 131 172 128
3 172 131 132
3 173 172 132
3 174 175 176
3 175 174 177
3 130 171 134
3 171 178 134
3 132 179 173
3 135 179 132
3 136 180 135
3 135 180 179
3 176 137 174
3 176 180 137
3 180 136 137
3 174 181 177
3 174 137 181
3 137 138 181
3 139 182 138
3 138 182 181
3 140 183 139
3 139 183 182
3 141 184 140
3 140 184 183
3 178 141 134
3 184 141 178
3 185 186 187
3 185 188 189
3 187 188 185
3 189 190 191
3 188 190 189
3 191 192 193
3 190 192 191
3 192 194 193
3 195 196 197
3 186 195 197
3 186 185 195
3 185 198 195
3 189 199 185
3 199 198 185
3 191 200 189
3 200 199 189
3 193 201 191
3 201 200 191
3 202 193 194
3 201 193 202
3 203 196 195
3 204 196 203
3 144 143 203
3 144 203 198
3 198 203 195
3 145 144 198
3 199 145 198
3 147 145 199
3 200 147 199
3 149 147 200
3 201 149 200
3 201 151 149
3 201 202 151
3 202 205 151
3 206 204 203
3 207 204 206
3 143 153 206
3 203 143 206
3 151 205 154
3 205 208 154
3 157 207 206
3 157 156 207
3 156 209 207
3 153 157 206
3 154 208 210
3 158 154 210
3 159 158 211
3 158 210 211
3 160 212 213
3 160 159 212
3 159 211 212
3 212 214 213
3 156 161 209
3 209 161 215
3 213 216 162
3 160 213 162
3 217 213 214
3 216 213 217
3 161 163 215
3 215 163 218
3 162 216 164
3 216 217 219
3 216 219 164
3 164 219 165
3 219 166 165
3 220 166 219
3 163 221 218
3 167 221 163
3 221 167 168
3 222 221 168
3 166 220 169
3 220 223 169
3 224 170 225
3 224 222 170
3 222 168 170
3 225 226 227
3 224 225 227
3 226 228 229
3 227 226 229
3 228 230 231
3 229 228 231
3 230 232 233
3 231 230 233
3 232 234 235
3 233 232 235
3 235 234 236
3 169 223 171
3 223 237 171
3 170 172 225
3 173 225 172
3 173 238 225
3 238 226 225
3 228 226 239
3 239 226 238
3 175 239 176
3 175 230 239
3 230 228 239
3 177 230 175
3 177 240 230
3 240 232 230
3 234 232 241
3 241 232 240
3 242 236 234
3 242 234 243
3 243 234 241
3 243 244 245
3 242 243 245
3 244 237 245
3 244 178 237
3 178 171 237
3 173 179 238
3 180 238 179
3 239 238 180
3 176 239 180
3 177 181 240
3 182 240 181
3 241 240 182
3 183 241 182
3 243 241 183
3 184 243 183
3 244 243 184
3 178 244 184
3 246 247 248
3 246 249 250
3 248 249 246
3 250 251 252
3 249 251 250
3 252 253 254
3 251 253 252
3 253 255 254
3 256 257 258
3 247 256 258
3 246 256 247
3 246 186 256
3 246 187 186
3 188 187 246
3 250 188 246
3 190 188 250
3 252 190 250
3 192 190 252
3 254 192 252
3 254 194 192
3 254 255 194
3 255 259 194
3 197 257 256
3 197 196 257
3 196 260 257
3 186 197 256
3 261 262 202
3 261 202 259
3 259 202 194
3 261 263 262
3 264 265 266
3 264 266 260
3 264 260 204
3 204 260 196
3 262 267 205
3 202 262 205
3 268 262 263
3 267 262 268
3 269 265 264
3 270 265 269
3 204 207 269
3 264 204 269
3 267 271 208
3 205 267 208
3 272 267 268
3 271 267 272
3 273 270 269
3 274 270 273
3 207 209 273
3 269 207 273
3 208 271 210
3 271 272 275
3 271 275 210
3 210 275 211
3 212 211 276
3 211 275 276
3 276 214 212
3 277 214 276
3 273 278 274
3 278 273 209
3 278 209 279
3 279 209 215
3 214 277 217
3 277 280 217
3 215 218 279
3 279 218 281
3 282 219 217
3 282 217 283
3 283 217 280
3 219 282 220
3 218 284 281
3 221 284 218
3 284 221 222
3 285 284 222
3 286 287 288
3 286 289 290
3 287 286 290
3 289 291 292
3 290 289 292
3 291 293 294
3 292 291 294
3 283 294 293
3 283 293 282
3 282 293 295
3 220 295 223
3 282 295 220
3 222 296 285
3 224 296 222
3 227 297 224
3 224 297 296
3 229 298 227
3 227 298 297
3 288 231 286
3 288 298 231
3 298 229 231
3 233 286 231
3 289 286 233
3 235 289 233
3 291 289 235
3 236 291 235
3 236 299 291
3 299 293 291
3 295 293 300
3 300 293 299
3 223 300 237
3 295 300 223
3 236 242 299
3 245 299 242
3 300 299 245
3 237 300 245
3 301 302 303
3 301 304 305
3 303 304 301
3 305 306 307
3 304 306 305
3 306 308 307
3 309 310 311
3 302 309 311
3 302 301 309
3 301 312 309
3 305 313 301
3 313 312 301
3 307 314 305
3 314 313 305
3 315 307 308
3 315 316 307
3 316 314 307
3 315 317 316
3 318 310 309
3 319 310 318
3 248 247 318
3 248 318 312
3 312 318 309
3 249 248 312
3 313 249 312
3 251 249 313
3 314 251 313
3 253 251 314
3 316 253 314
3 255 320 321
3 253 320 255
3 253 317 320
3 253 316 317
3 320 322 321
3 258 319 318
3 258 257 319
3 257 323 319
3 247 258 318
3 321 324 259
3 255 321 259
3 325 321 322
3 324 321 325
3 326 327 328
3 326 328 323
3 326 323 260
3 260 323 257
3 259 324 261
3 324 263 261
3 324 325 263
3 325 329 263
3 266 327 326
3 266 265 327
3 265 330 327
3 260 266 326
3 263 329 268
3 329 331 268
3 265 270 330
3 330 270 332
3 268 331 272
3 331 333 272
3 270 274 332
3 332 274 334
3 335 275 272
3 335 272 336
3 336 272 333
3 275 337 276
3 335 337 275
3 276 337 277
3 274 338 334
3 278 338 274
3 279 339 340
3 279 340 278
3 278 340 338
3 340 339 341
3 342 343 344
3 336 343 342
3 336 342 335
3 335 342 345
3 337 335 346
3 346 335 345
3 277 346 280
3 337 346 277
3 339 281 347
3 279 281 339
3 348 341 339
3 348 339 349
3 349 339 347
3 348 349 350
3 351 352 353
3 344 352 351
3 344 351 342
3 342 351 354
3 345 342 355
3 355 342 354
3 346 345 356
3 356 345 355
3 280 356 283
3 346 356 280
3 281 284 347
3 285 347 284
3 285 357 347
3 357 349 347
3 358 350 349
3 358 349 359
3 359 349 357
3 359 360 361
3 358 359 361
3 353 361 360
3 351 353 360
3 351 360 288
3 351 288 287
3 290 351 287
3 354 351 290
3 292 354 290
3 355 354 292
3 294 355 292
3 356 355 294
3 283 356 294
3 285 296 357
3 297 357 296
3 359 357 297
3 298 359 297
3 360 359 298
3 288 360 298
3 362 363 364
3 362 303 302
3 362 364 303
3 364 365 303
3 304 303 366
3 303 365 366
3 306 304 367
3 304 366 367
3 367 308 306
3 368 308 367
3 311 363 362
3 311 310 363
3 310 369 363
3 302 311 362
3 308 368 370
3 315 308 370
3 370 317 315
3 371 317 370
3 310 319 369
3 369 319 372
3 317 371 373
3 320 317 373
3 373 322 320
3 374 322 373
3 319 323 372
3 372 323 375
3 322 374 325
3 374 376 325
3 328 377 378
3 327 377 328
3 375 323 328
3 378 375 328
3 325 376 329
3 376 379 329
3 327 330 377
3 377 330 380
3 381 382 383
3 381 379 382
3 381 331 379
3 331 329 379
3 330 332 380
3 380 332 384
3 385 381 383
3 386 385 383
3 331 385 333
3 381 385 331
3 387 334 388
3 387 384 334
3 384 332 334
3 387 388 389
3 390 385 386
3 391 390 386
3 333 390 336
3 385 390 333
3 334 338 388
3 388 392 389
3 388 338 392
3 338 340 392
3 341 393 394
3 341 394 340
3 340 394 392
3 394 393 395
3 396 397 398
3 391 397 396
3 390 391 396
3 390 396 344
3 390 344 343
3 336 390 343
3 341 348 393
3 350 399 400
3 348 350 400
3 348 400 395
3 348 395 393
3 399 401 402
3 400 399 402
3 398 402 401
3 396 398 401
3 396 401 353
3 396 353 352
3 344 396 352
3 350 358 399
3 361 399 358
3 401 399 361
3 353 401 361
3 403 404 405
3 403 406 407
3 405 406 403
3 407 408 409
3 406 408 407
3 408 410 409
3 364 411 412
3 363 411 364
3 404 403 365
3 404 365 412
3 412 365 364
3 366 365 403
3 407 366 403
3 367 366 407
3 409 367 407
3 368 413 414
3 367 413 368
3 367 410 413
3 367 409 410
3 413 415 414
3 363 369 411
3 411 369 416
3 368 414 370
3 414 371 370
3 414 415 371
3 415 417 371
3 369 372 416
3 416 372 418
3 419 373 371
3 419 371 420
3 420 371 417
3 373 419 374
3 372 375 418
3 418 375 421
3 422 419 420
3 423 422 420
3 374 422 376
3 419 422 374
3 378 377 424
3 378 424 425
3 378 425 375
3 375 425 421
3 426 427 428
3 423 427 426
3 423 426 422
3 422 426 429
3 376 429 379
3 422 429 376
3 424 380 430
3 377 380 424
3 431 425 424
3 431 424 432
3 432 424 430
3 432 433 434
3 431 432 434
3 433 435 436
3 434 433 436
3 435 437 438
3 436 435 438
3 428 438 437
3 428 437 426
3 426 437 439
3 382 439 383
3 382 429 439
3 429 426 439
3 379 429 382
3 430 384 440
3 380 384 430
3 432 430 441
3 441 430 440
3 433 432 442
3 442 432 441
3 435 433 443
3 443 433 442
3 437 435 444
3 444 435 443
3 439 437 445
3 445 437 444
3 383 445 386
3 439 445 383
3 384 387 440
3 389 440 387
3 389 446 440
3 446 441 440
3 442 441 447
3 447 441 446
3 443 442 448
3 448 442 447
3 444 443 449
3 449 443 448
3 445 444 450
3 450 444 449
3 386 450 391
3 445 450 386
3 389 392 446
3 394 446 392
3 447 446 394
3 395 447 394
3 395 451 447
3 451 448 447
3 449 448 452
3 452 448 451
3 397 452 398
3 397 450 452
3 450 449 452
3 391 450 397
3 395 400 451
3 402 451 400
3 452 451 402
3 398 452 402
3 405 453 454
3 404 453 405
3 406 405 455
3 405 454 455
3 408 406 456
3 406 455 456
3 410 457 458
3 410 408 457
3 408 456 457
3 457 459 458
3 412 411 460
3 412 460 461
3 412 461 404
3 404 461 453
3 410 458 413
3 458 415 413
3 458 459 415
3 459 462 415
3 460 463 464
3 460 411 463
3 411 416 463
3 461 460 464
3 415 462 417
3 462 465 417
3 416 418 463
3 463 418 466
3 417 465 420
3 465 467 420
3 468 421 469
3 468 466 421
3 466 418 421
3 468 469 470
3 471 472 473
3 471 474 475
3 472 471 475
3 474 467 475
3 474 423 467
3 423 420 467
3 469 425 476
3 421 425 469
3 477 470 469
3 477 469 478
3 478 469 476
3 478 479 480
3 477 478 480
3 473 480 479
3 473 479 471
3 471 479 481
3 427 481 428
3 427 474 481
3 474 471 481
3 423 474 427
3 425 431 476
3 434 476 431
3 478 476 434
3 436 478 434
3 479 478 436
3 438 479 436
3 481 479 438
3 428 481 438
3 482 483 484
3 482 485 486
3 484 485 482
3 486 487 488
3 485 487 486
3 488 489 490
3 487 489 488
3 490 491 492
3 489 491 490
3 491 493 492
3 454 483 482
3 454 453 483
3 453 494 483
3 455 454 482
3 486 455 482
3 456 455 486
3 488 456 486
3 457 456 488
3 490 457 488
3 459 457 490
3 459 490 495
3 495 490 492
3 496 492 493
3 495 492 496
3 453 461 494
3 494 461 497
3 495 498 462
3 459 495 462
3 499 495 496
3 498 495 499
3 464 463 500
3 464 500 501
3 464 501 461
3 461 501 497
3 502 503 504
3 502 505 506
3 503 502 506
3 498 507 506
3 498 506 465
3 498 465 462
3 465 506 505
3 499 507 498
3 500 466 508
3 463 466 500
3 509 501 500
3 509 500 510
3 510 500 508
3 510 511 512
3 509 510 512
3 504 512 511
3 504 511 502
3 502 511 513
3 505 502 514
3 514 502 513
3 465 514 467
3 505 514 465
3 466 468 508
3 470 508 468
3 470 515 508
3 515 510 508
3 511 510 516
3 516 510 515
3 472 516 473
3 472 513 516
3 513 511 516
3 475 513 472
3 514 513 475
3 467 514 475
3 470 477 515
3 480 515 477
3 516 515 480
3 473 516 480
3 517 518 519
3 517 520 521
3 519 520 517
3 520 522 521
3 484 523 524
3 483 523 484
3 485 484 525
3 484 524 525
3 518 517 487
3 518 487 525
3 525 487 485
3 489 487 517
3 521 489 517
3 521 522 526
3 521 526 489
3 489 526 491
3 493 527 528
3 493 491 527
3 491 526 527
3 527 529 528
3 483 494 523
3 523 494 530
3 528 531 496
3 493 528 496
3 532 528 529
3 531 528 532
3 494 497 530
3 530 497 533
3 531 534 535
3 531 535 496
3 496 535 499
3 532 534 531
3 536 501 537
3 536 533 501
3 533 497 501
3 537 538 539
3 536 537 539
3 538 504 503
3 538 503 539
3 539 503 540
3 506 541 503
3 503 541 540
3 507 542 506
3 506 542 541
3 535 507 499
3 542 507 535
3 501 509 537
3 512 537 509
3 538 537 512
3 504 538 512
3 519 543 544
3 518 543 519
3 520 519 545
3 519 544 545
3 522 546 547
3 522 520 546
3 520 545 546
3 547 548 549
3 546 548 547
3 548 550 549
3 524 523 551
3 552 524 551
3 552 553 524
3 553 525 524
3 543 518 525
3 553 543 525
3 522 547 526
3 527 526 547
3 549 527 547
3 529 554 555
3 527 554 529
3 527 550 554
3 527 549 550
3 555 556 557
3 554 556 555
3 556 558 557
3 551 530 559
3 523 530 551
3 560 552 551
3 559 560 551
3 555 561 532
3 529 555 532
3 557 562 555
3 562 561 555
3 563 557 558
3 562 557 563
3 559 533 564
3 530 533 559
3 565 560 559
3 565 559 566
3 566 559 564
3 566 567 568
3 565 566 568
3 567 569 570
3 568 567 570
3 569 571 572
3 570 569 572
3 571 535 534
3 571 534 572
3 572 534 573
3 561 534 532
3 561 574 534
3 574 573 534
3 562 574 561
3 575 574 562
3 563 575 562
3 533 536 564
3 539 564 536
3 566 564 539
3 540 566 539
3 567 566 540
3 541 567 540
3 569 567 541
3 542 569 541
3 571 569 542
3 535 571 542
3 544 576 577
3 543 576 544
3 545 544 578
3 544 577 578
3 546 545 579
3 545 578 579
3 548 546 580
3 546 579 580
3 580 550 548
3 581 550 580
3 553 582 583
3 552 582 553
3 576 543 553
3 583 576 553
3 550 581 584
3 554 550 584
3 556 554 585
3 554 584 585
3 585 558 556
3 586 558 585
3 552 560 582
3 582 560 587
3 558 586 563
3 586 588 563
3 560 589 587
3 565 589 560
3 568 590 565
3 565 590 589
3 591 592 590
3 591 590 570
3 570 590 568
3 570 572 593
3 591 570 593
3 572 573 594
3 593 572 594
3 573 574 595
3 594 573 595
3 596 595 574
3 596 574 597
3 597 574 575
3 588 575 563
3 597 575 588
3 591 598 592
3 593 598 591
3 599 598 593
3 594 599 593
3 600 599 594
3 595 600 594
3 601 600 595
3 596 601 595
3 577 576 602
3 577 603 578
3 602 603 577
3 578 604 579
3 603 604 578
3 579 605 580
3 604 605 579
3 580 605 581
3 583 582 606
3 583 606 607
3 576 583 607
3 576 607 608
3 576 608 602
3 603 602 608
3 609 603 608
3 604 603 609
3 610 604 609
3 605 604 610
3 611 605 610
3 581 605 611
3 581 611 584
3 584 611 612
3 585 584 613
3 584 612 613
3 586 614 615
3 586 585 614
3 585 613 614
3 614 616 615
3 606 587 617
3 582 587 606
3 618 607 606
3 617 618 606
3 615 619 588
3 586 615 588
3 620 615 616
3 619 615 620
3 587 589 617
3 617 621 618
3 617 589 621
3 589 590 621
3 621 590 592
3 622 621 592
3 597 623 624
3 596 597 624
3 619 597 588
3 619 625 597
3 625 623 597
3 620 625 619
3 592 626 622
3 598 626 592
3 599 627 598
3 598 627 626
3 600 628 599
3 599 628 627
3 601 629 600
3 600 629 628
3 624 601 596
3 629 601 624
3 608 607 630
3 608 631 609
3 630 631 608
3 632 609 631
3 632 633 609
3 633 610 609
3 611 610 634
3 610 633 634
3 612 611 635
3 611 634 635
3 613 612 636
3 612 635 636
3 614 613 637
3 613 636 637
3 637 616 614
3 638 616 637
3 630 618 639
3 607 618 630
3 631 630 640
3 640 630 639
3 641 632 631
3 640 641 631
3 616 638 620
3 638 642 620
3 618 621 639
3 622 639 621
3 622 643 639
3 643 640 639
3 644 641 640
3 643 644 640
3 623 645 646
3 624 623 646
3 625 647 623
3 623 647 645
3 642 625 620
3 647 625 642
3 622 626 643
3 643 648 644
3 643 626 648
3 626 627 648
3 628 649 627
3 627 649 648
3 629 650 628
3 628 650 649
3 646 629 624
3 650 629 646
3 633 632 651
3 633 652 634
3 651 652 633
3 634 653 635
3 652 653 634
3 635 654 636
3 653 654 635
3 636 655 637
3 654 655 636
3 637 655 638
3 651 641 656
3 632 641 651
3 652 651 657
3 657 651 656
3 653 652 658
3 658 652 657
3 654 653 659
3 659 653 658
3 655 654 660
3 660 654 659
3 638 660 642
3 655 660 638
3 656 644 661
3 641 644 656
3 657 656 662
3 662 656 661
3 658 657 663
3 663 657 662
3 645 663 646
3 645 659 663
3 659 658 663
3 647 659 645
3 660 659 647
3 642 660 647
3 644 648 661
3 649 661 648
3 662 661 649
3 650 662 649
3 663 662 650
3 646 663 650
