# vtk DataFile Version 3.0
this file was written using fslvtkio
ASCII
DATASET POLYDATA
POINTS 664 float
88.9188 120.24 76.2691
87.0603 119.635 76.4407
88.1183 118.193 76.8136
90.1509 118.517 77.2095
90.9535 120.289 76.9097
91.5226 118.936 77.6096
86.7433 121.306 76.2554
84.4067 120.624 76.7736
85.3256 119.57 76.4976
88.8381 122.237 76.1613
90.6165 122.012 76.2377
92.3674 120.208 77.5528
92.3537 121.898 76.8683
93.3621 120.851 77.7946
93.7954 121.936 77.6473
94.5202 120.899 78.4355
86.0113 122.764 77.0812
84.3035 122.084 78.1129
88.0068 123.606 76.4832
90.204 124.152 76.5819
92.0807 123.837 76.5964
93.749 123.23 77.4185
95.114 122.125 78.4666
86.2716 123.535 78.5015
85.7669 122.767 79.5405
87.925 124.503 78.0824
89.8852 125.487 77.6066
91.9952 125.756 77.2855
93.8689 125.039 77.4871
95.3566 123.842 78.4359
87.8791 124.242 79.6404
89.8616 125.267 79.3844
91.8008 126.055 79.1219
93.8899 126.186 79.0024
95.2829 125.397 78.9821
85.9751 118.45 76.5845
83.7452 118.229 77.0137
85.5113 117.237 76.8342
87.2033 116.602 77.1919
89.5589 116.725 77.6183
91.7292 117.509 78.4017
92.6769 118.975 78.2843
93.4368 117.978 79.0155
82.8194 120.237 77.8549
93.9893 119.705 78.8304
95.689 120.354 79.4093
83.5789 121.584 79.6743
96.53 122.461 79.4676
85.6036 122.296 80.7239
96.5898 124.591 79.7294
87.6806 123.236 80.7846
89.8427 124.245 80.8281
91.7789 125.264 80.8347
93.8141 125.898 80.8577
95.8879 125.887 80.8951
85.958 113.901 78.1686
84.3486 113.358 78.9065
85.795 112.689 79.2054
87.1325 112.381 79.2525
88.081 113.767 78.5295
88.7073 112.77 79.7057
84.4956 115.823 77.5822
82.7705 114.738 78.1619
87.2167 115.234 77.7635
89.4659 113.89 79.2686
89.5079 115.152 78.3642
90.7997 114.494 79.3452
82.3497 116.685 77.7683
80.3555 117.022 79.2946
81.1921 115.272 78.891
91.6135 116.052 78.9968
94.3367 116.607 79.7979
94.8871 118.545 79.3752
96.0581 118.471 80.4137
81.5209 118.619 78.1021
80.3375 118.815 79.9451
97.0471 120.541 80.5336
81.7435 120.198 79.5789
81.4401 119.565 81.6751
97.5534 122.011 80.7447
97.565 123.705 80.5818
98.7907 122.855 81.6298
83.1567 120.799 81.1157
84.9722 121.402 81.7851
97.3623 125.08 81.221
98.7176 124.366 82.0661
87.4022 122.114 81.5983
89.6902 122.673 81.6251
91.6583 123.711 81.8686
93.4956 124.892 82.1791
95.5922 125.52 82.5875
97.6778 125.398 82.851
85.9271 111.228 80.0926
84.2102 110.468 80.5393
85.0692 109.58 81.2153
87.001 109.708 81.2144
88.4564 111.439 80.5926
89.1653 110.046 81.8277
90.6985 111.384 81.492
91.3873 109.94 82.8935
83.6459 111.847 79.9257
81.9777 110.811 80.7241
83.1158 110.431 80.6422
90.3844 112.969 80.399
92.7938 111.387 81.8911
92.5117 113.247 81.016
93.93 112.591 81.7839
94.3239 113.921 81.2727
95.3577 113.598 82.0499
80.9914 112.484 80.3603
79.114 112.759 81.5465
79.9625 111.145 81.3815
82.0356 113.539 79.2243
92.3664 114.856 79.8654
94.1308 114.834 80.4198
95.9138 115.328 81.3191
79.7746 114.541 80.2054
78.7046 114.621 82.3405
96.8284 117.122 81.1961
98.0068 119.505 81.3726
98.4394 118.301 82.0736
99.4295 119.732 82.5619
99.9894 118.738 83.1554
79.569 116.255 81.1993
80.0916 117.988 81.9388
98.6781 121.38 81.8037
99.8732 121.119 82.8571
100.848 120.206 83.8973
82.0673 118.799 83.4213
100.208 122.974 82.842
101.333 122.004 84.3026
83.5837 120.059 82.6012
85.5856 120.261 82.9835
99.4871 124.452 83.3965
101.009 123.804 84.6076
87.0699 121.152 82.5394
89.033 121.607 82.3491
91.1872 122.13 82.7905
93.0517 123.239 83.1183
94.9249 124.218 83.8619
97.0113 124.875 84.3294
99.0233 124.63 84.6165
83.4022 107.385 82.0048
81.3677 107.035 82.3818
82.4902 105.864 82.6032
84.5593 106.187 82.654
85.5187 107.958 81.8447
86.5551 106.635 83.0224
87.7321 108.376 82.3261
88.6518 107.216 83.561
89.7744 108.731 82.8643
90.9588 108.102 84.1833
82.9423 109.042 81.4698
80.7982 108.41 82.1819
92.661 109.09 84.3508
80.746 109.712 81.5828
78.7055 110.816 83.0747
79.3361 108.847 82.589
93.5784 110.426 83.3294
95.075 111.75 82.8551
96.7247 113.608 82.7042
78.1729 112.717 83.6673
97.8451 114.778 82.7752
79.0593 114.668 84.4043
98.1776 116.127 82.499
99.2862 117.38 83.0866
100.953 118.453 84.4708
79.6691 116.542 83.34
81.0927 117.685 84.4476
102.106 120.534 85.4952
83.5948 118.16 85.0675
102.2 122.58 86.127
84.4676 119.272 83.988
86.1785 119.4 83.9847
91.6203 121.207 83.8966
91.1712 120.045 84.7023
90.3903 120.741 83.6712
92.3374 120.64 84.9572
100.387 123.612 86.243
87.2934 120.091 83.3297
89.0294 120.457 83.2117
92.6928 122.02 84.0889
94.3061 122.779 84.7636
96.2373 123.472 85.2638
98.1646 123.989 85.9227
84.1841 103.263 84.044
82.8868 101.956 84.4221
84.1808 101.752 84.5424
85.473 101.865 84.656
86.3345 103.69 84.3487
87.2818 102.217 85.0976
88.1876 104.384 84.7453
88.731 102.814 85.7222
89.6806 104.716 85.3521
90.3294 103.794 86.2057
81.7918 103.53 83.8793
79.9661 103.649 84.5999
81.0413 102.234 84.8993
83.0394 104.583 83.1001
85.2674 104.817 83.4516
87.4015 105.419 83.8047
89.4967 106.278 84.6691
91.1491 106.161 85.4164
80.6524 105.268 83.3618
78.9652 105.816 84.4101
92.5848 107.808 85.3163
79.6378 107.338 83.2867
78.5295 109.024 84.2691
93.5921 108.739 85.5765
78.4093 111.297 85.4191
94.5435 109.732 85.0328
95.7171 110.704 84.5321
97.0615 112.19 83.8209
98.4612 114.001 84.0614
98.4704 113.114 85.1765
78.9583 112.986 85.6232
99.1975 115.375 84.0475
99.683 115.12 86.0358
80.1761 114.295 86.1393
100.466 116.768 84.9496
102.039 118.636 86.1904
80.6073 116.135 85.1921
82.9146 116.779 85.9425
102.608 120.957 87.3298
85.2333 117.328 86.2233
86.0868 118.299 85.029
88.3263 118.333 85.3973
87.2711 117.221 86.132
90.3693 118.458 85.7101
89.2512 117.439 86.4309
92.1467 119.1 85.8376
91.2782 117.395 86.7538
94.3502 119.94 86.5209
93.3658 118.385 87.0124
96.2002 120.763 87.123
95.5329 118.957 87.6181
97.2198 119.642 88.1253
101.193 122.319 87.7496
87.8944 119.233 84.268
89.8391 119.375 84.5148
93.5293 120.99 85.5147
95.3906 121.983 86.0287
97.8068 121.12 87.9131
97.3653 122.488 86.823
99.2987 122.912 87.1473
99.4485 121.737 88.1877
84.2834 100.279 85.0532
82.5895 99.3856 85.3697
83.7483 98.5299 85.7537
85.5111 98.7319 85.7519
86.4046 100.463 85.4259
87.4461 99.1786 86.2917
88.2462 100.842 86.1073
89.7188 100.09 87.3121
89.574 101.871 86.4489
90.7359 101.94 87.2171
81.9693 100.752 85.0531
79.9799 101.157 85.9772
80.9113 99.4448 85.7379
91.5082 104.066 86.6291
79.1943 103.04 86.0073
92.3584 105.154 86.4103
92.888 106.659 86.2901
93.5015 105.408 87.252
79.008 105.15 85.9639
79.0996 105.623 87.179
79.1828 104.064 87.0613
93.5788 108.181 86.7109
93.5505 107.246 87.58
78.6294 107.2 85.5563
78.8996 107.323 87.2441
94.7011 109.32 86.5432
94.7739 109.542 88.1257
78.559 109.289 86.2169
79.4353 108.833 87.7888
95.9912 110.282 86.9018
97.2791 111.43 85.7378
98.4679 113.158 86.5435
79.6636 110.721 87.201
80.5856 112.308 87.2472
98.9082 114.455 87.5491
81.8991 113.669 87.1184
101.06 117.021 87.0664
99.5676 116.047 88.0969
81.8914 115.397 86.5004
83.6223 115.613 87.2532
93.0993 116.663 87.4399
92.6796 115.327 87.7022
91.4103 115.522 87.2403
95.1596 117.285 87.8314
93.915 115.679 88.0732
97.4554 118.012 88.518
95.8627 116.165 88.4131
99.879 118.26 88.5286
97.8664 116.424 88.8074
101.648 119.204 87.8529
84.8372 116.317 87.0484
86.8217 115.974 86.9623
89.2374 116.036 87.0402
98.9754 119.847 88.6651
100.944 120.558 88.633
85.3056 95.4788 87.4569
83.549 95.0351 87.4976
84.4487 93.6677 88.2335
86.8361 94.5414 88.1914
87.2986 96.3304 87.3839
88.3741 95.6834 88.3902
89.1301 97.2943 87.9215
90.1803 96.4649 88.8697
83.1903 96.3248 86.8527
81.3029 97.0418 87.443
82.2667 95.5279 87.5553
84.4675 97.3428 86.5697
86.2637 97.4247 86.7161
88.2954 98.214 87.0974
90.8061 98.0676 88.7546
90.1176 98.8912 88.0957
92.1714 99.5978 89.0163
82.0257 97.9151 86.3134
80.232 99.0086 87.2593
91.6094 100.909 88.1174
92.0985 102.735 87.6025
93.1044 101.897 88.3387
79.5062 100.809 87.9188
92.8822 104.022 87.2319
93.6533 103.542 88.2342
79.1341 102.511 87.6774
79.2962 103.827 88.4856
79.6339 101.922 89.2531
93.6372 105.35 88.5142
79.5956 105.495 88.6676
93.1859 107.887 88.3784
79.9871 106.997 88.7805
93.2829 109.475 88.9634
80.593 108.197 88.8984
96.1246 111.329 89.0398
94.3208 110.869 89.484
97.3204 111.606 87.4221
80.631 109.785 88.4448
82.9611 112.477 88.0577
81.7001 110.943 88.5624
83.2688 111.288 89.0339
94.6142 112.813 89.2
93.4464 111.634 89.5005
92.6473 112.474 89.1367
96.5344 113.334 89.2322
97.7452 113.006 88.317
83.5759 114.055 87.5842
84.5907 111.881 88.5696
85.2815 113.435 88.062
86.0858 112.005 88.1313
92.6096 113.903 88.1679
91.5423 112.736 88.5918
90.6219 112.998 88.0664
94.5452 114.654 88.5267
96.1721 114.752 89.1058
97.9233 114.782 88.7858
85.554 114.839 87.5956
87.0632 113.113 87.7489
87.8703 114.507 87.4347
90.1891 114.329 87.4124
88.7429 112.87 87.6753
82.7555 94.2885 88.1237
81.5098 95.3429 88.61
82.3324 93.326 89.087
84.0877 91.9639 89.2643
86.4388 93.0529 88.8695
89.0868 94.4511 89.1528
91.2292 96.2894 89.7006
80.6036 97.0928 88.8157
92.3952 98.0843 89.4587
94.576 99.1151 90.0803
80.2096 98.9109 89.3391
93.7369 100.726 89.0298
94.3644 102.329 89.3918
80.4265 100.408 90.4886
93.8756 103.775 89.6808
80.2806 103.698 89.8088
80.708 102.252 90.767
92.9978 105.622 89.1952
80.9647 105.211 90.0396
92.2068 106.99 88.9583
91.988 105.557 89.671
91.0433 106.745 89.4938
81.2538 106.799 89.973
91.9417 108.525 88.9728
90.7705 108.346 89.2569
81.5054 107.768 89.6365
81.3995 108.821 89.009
82.304 108.296 89.6443
92.1272 110.568 89.1092
90.6099 109.638 88.98
82.1784 109.534 89.2831
84.2976 110.841 89.1454
83.6733 109.839 89.3482
85.0073 109.96 89.0715
90.7745 111.379 88.8248
89.2833 109.447 89.2173
88.916 110.315 88.7072
87.6274 111.626 88.0769
86.0258 110.721 88.6111
89.2095 111.671 88.3002
87.5541 110.179 88.6199
86.1781 91.63 89.897
83.933 91.0192 90.8044
86.335 90.5093 90.9189
88.5218 91.5449 90.6958
88.3335 92.7479 89.5998
90.3824 92.9672 90.8593
89.7907 93.6195 90.011
91.2926 94.4177 90.5881
81.4012 94.8759 90.2501
82.3149 92.3798 90.6493
91.9637 95.7464 90.413
93.2872 97.297 90.1714
95.1006 97.0601 90.8221
80.9318 96.8141 90.5345
96.4407 98.9867 91.2566
81.2117 98.2098 91.3134
95.1117 101.042 90.2652
95.0369 100.592 91.8862
82.0921 99.5497 92.0555
93.8714 102.46 91.0615
92.9676 101.718 91.9766
82.0117 103.582 90.9837
81.8754 101.411 91.8438
91.9412 103.509 91.2356
91.3127 102.237 91.6207
90.3339 103.27 91.2493
92.7077 104.233 90.2464
82.5654 105.443 90.644
83.3598 103.216 91.7637
84.2049 104.868 91.0864
86.1335 104.981 91.1829
85.095 103.433 91.7011
88.087 104.971 91.272
86.8337 103.29 91.5478
90.075 104.791 90.9433
88.7784 103.327 91.4303
91.2064 105.081 90.1081
82.5075 107.251 90.371
83.9383 106.756 90.5172
85.5647 106.512 90.731
87.1576 106.405 90.9844
88.8855 106.522 90.8181
90.2597 106.629 90.334
83.3841 108.296 89.9422
84.9296 108.289 89.8534
86.4684 107.817 90.2596
87.9526 107.727 90.5371
89.4169 108.175 90.0108
86.3235 109.102 89.1926
87.8318 108.924 89.5836
84.4443 90.1762 92.051
86.5715 89.5956 91.7312
88.7245 90.3073 91.4027
90.8415 91.7187 91.5692
92.7886 93.6081 91.7198
93.4335 95.2772 90.9884
95.3037 95.4495 91.7041
82.1475 93.8581 91.8493
83.067 92.0739 92.6387
97.1338 97.4633 91.84
82.0629 96.0429 92.1547
83.2951 94.4323 93.02
95.1323 98.8694 93.2169
82.7839 97.619 92.7853
93.103 100.205 92.6624
83.4241 98.9793 93.0116
83.5517 100.653 92.8282
84.805 99.2901 93.1832
89.643 100.736 91.9854
89.5835 99.3203 92.1338
88.2795 100.17 92.1352
91.3839 100.985 92.0127
91.2305 99.593 92.4099
83.9215 102.182 92.3033
85.3253 100.316 92.7436
85.8294 101.728 92.2124
87.7468 101.684 91.7811
86.956 100.131 92.3787
89.6453 101.991 91.4789
87.9174 88.7661 92.0462
85.6232 88.9238 92.7706
86.9846 87.9219 93.5859
89.291 88.3857 92.8864
90.5758 89.7987 91.9724
91.3973 89.2972 93.0434
92.6545 91.6467 92.4323
93.5061 90.8845 93.3728
94.7778 93.5487 92.4734
95.0954 92.2853 93.453
96.4588 93.9008 92.8413
96.747 92.8497 93.4819
84.3848 90.4712 93.6365
97.2169 95.5661 92.2695
97.6892 94.882 93.5855
84.2952 92.1782 94.3782
96.3965 97.5106 93.6083
97.1343 96.4061 93.8544
84.1991 96.1602 93.7127
84.7123 93.9663 94.0286
91.7782 97.0544 93.5925
91.6067 95.3867 94.1837
90.031 96.2802 93.7493
93.4802 97.912 93.6101
94.0165 96.7035 93.9745
95.6738 96.3508 94.4861
84.8454 97.7602 93.3553
86.0583 95.6145 94.1009
86.762 97.2139 93.4746
89.0604 97.253 93.2078
88.0081 96.0191 93.9197
90.5012 98.461 92.878
92.6942 98.7943 93.1038
86.355 98.6945 92.8799
88.198 98.4627 92.4154
92.274 89.0762 93.9766
90.714 87.9247 93.9819
91.6171 87.2949 94.7867
92.9979 88.1947 94.6214
93.562 89.7326 94.1293
94.1125 89.152 94.6431
85.3739 89.0911 94.578
86.628 87.8628 95.3746
88.8507 87.714 94.2649
94.9234 90.7225 93.9486
96.5088 91.2763 94.3256
97.9626 93.1772 94.0642
97.8894 91.8459 94.6926
85.4539 91.1074 95.3435
97.8061 94.6372 95.1096
98.232 93.2811 95.433
85.8549 92.7346 95.4186
96.5018 93.2786 96.1015
96.4182 95.2224 94.9837
86.6859 93.799 95.0077
87.1548 94.6865 94.3707
89.3426 95.1379 94.2264
89.1418 94.4524 95.265
90.9372 94.2969 95.4636
92.684 94.5405 94.9093
94.3844 95.1477 94.8152
89.9585 87.3995 95.4773
91.3887 86.9161 96.1584
92.8212 87.0804 95.5164
94.1598 87.9269 95.1941
95.3062 89.8593 94.6072
95.4305 88.9136 95.1168
96.0882 89.9784 94.8145
96.7347 89.558 95.169
86.2936 89.9318 96.2293
86.9055 88.5985 96.9021
88.2001 87.5494 96.1467
98.0533 90.4475 95.1092
98.7737 91.9198 95.5107
99.2223 90.711 95.5592
99.7075 91.5391 96.0296
100.239 90.5101 96.2366
87.2274 91.8844 96.4291
87.783 90.4013 97.2027
98.0154 92.641 96.3563
98.854 91.9815 96.6771
100.174 91.2494 96.8941
87.6806 93.3383 95.9196
89.1641 91.6843 96.9662
89.4133 93.2934 96.472
91.666 93.4746 96.0911
90.818 92.465 96.8365
93.4882 93.584 95.7899
92.6455 92.0921 96.4899
95.1059 93.9759 95.5859
94.5946 92.4185 96.312
96.0263 92.0593 96.9303
97.5567 91.9676 97.1285
99.119 91.4725 97.5404
90.0975 87.2247 97.0797
91.5502 86.9005 97.184
92.6844 86.9565 96.778
94.1471 87.1369 96.2164
95.4998 88.0812 95.7156
96.5762 88.3455 96.1636
87.6538 88.4774 97.9484
88.6506 87.3972 97.9362
98.0795 88.7864 96.0105
99.4283 89.682 96.1766
100.685 90.1234 96.9391
88.385 89.6215 98.3672
100.323 90.8997 97.7755
89.3141 90.5719 97.915
90.8614 91.3171 97.6221
92.3851 91.1436 97.4346
91.8178 90.5053 98.3877
93.7998 91.1866 97.2069
95.0662 91.2884 97.243
96.4645 91.3635 97.7019
97.5531 91.0574 97.9879
98.7414 90.8091 98.1851
93.2443 90.6646 98.2028
94.6187 90.6749 98.0635
95.7766 90.7858 98.1302
96.7612 90.8325 98.4504
91.2289 86.9982 97.8242
92.3765 86.9424 97.9062
93.8748 87.0432 97.6802
95.3611 87.2935 96.8374
88.6651 88.3838 99.0509
89.8922 87.4602 98.6991
91.3307 87.1338 98.693
93.0871 87.2315 98.8941
95.1149 87.1443 98.1786
96.8324 87.6771 97.2594
98.3026 87.7915 97.2305
99.4137 88.5002 96.9699
100.383 89.1357 97.1999
101.085 90.1157 97.9727
100.756 89.1532 98.3317
89.2368 89.6921 99.0941
89.6867 88.716 99.9229
100.073 90.5984 98.6398
100.762 90.0261 99.0998
90.4043 90.2536 98.8134
91.4488 90.0612 99.409
98.2421 90.2333 99.3718
97.5134 90.5528 98.9335
99.3298 90.2104 99.2355
92.6106 90.2016 99.0953
93.938 90.2641 99.035
95.1646 90.3002 99.0143
96.3273 90.4684 99.1296
90.5699 87.7355 100.148
92.0077 87.4506 100.191
93.3962 87.4499 100.04
94.5 87.2966 99.4144
96.0362 87.3745 98.8759
97.448 87.5028 98.3094
98.877 87.8322 98.0739
100.053 88.2779 98.0107
100.655 88.9208 99.3105
90.6148 89.2994 100.135
91.449 88.5261 100.819
92.8845 88.2239 100.803
100.027 89.6937 99.8081
91.8491 89.6818 100.429
92.8072 89.3226 100.957
97.6605 89.89 100.29
96.9861 90.274 99.8453
98.8308 89.7717 100.207
93.1807 90.0033 100.046
94.5425 90.1167 99.9192
95.7876 90.228 100.124
94.3446 87.9087 100.544
95.649 87.6339 100.204
97.0007 87.671 99.6833
98.3859 87.9699 99.3841
99.7203 88.1936 98.9794
94.0742 88.9659 100.969
95.358 88.6755 100.767
96.5752 88.4216 100.463
97.8261 88.7753 100.323
99.3798 88.7129 100.042
93.9222 89.7811 100.727
95.1283 89.7334 100.744
96.4528 89.53 100.633
POLYGONS 1324  5296
3 0 1 2
3 0 3 4
3 2 3 0
3 3 5 4
3 6 7 8
3 1 6 8
3 1 0 6
3 0 9 6
3 4 10 0
3 10 9 0
3 11 4 5
3 11 12 4
3 12 10 4
3 12 13 14
3 11 13 12
3 13 15 14
3 16 7 6
3 17 7 16
3 9 18 6
3 18 16 6
3 10 19 9
3 19 18 9
3 12 20 10
3 20 19 10
3 14 21 12
3 21 20 12
3 22 14 15
3 21 14 22
3 23 17 16
3 24 17 23
3 18 25 16
3 25 23 16
3 19 26 18
3 26 25 18
3 20 27 19
3 27 26 19
3 21 28 20
3 28 27 20
3 29 21 22
3 28 21 29
3 23 30 24
3 25 30 23
3 31 30 25
3 26 31 25
3 32 31 26
3 27 32 26
3 33 32 27
3 28 33 27
3 34 33 28
3 29 34 28
3 35 36 37
3 35 2 1
3 35 37 2
3 37 38 2
3 3 2 39
3 2 38 39
3 5 40 41
3 5 3 40
3 3 39 40
3 40 42 41
3 8 36 35
3 8 7 36
3 7 43 36
3 1 8 35
3 5 41 11
3 41 42 44
3 41 44 11
3 11 44 13
3 44 15 13
3 45 15 44
3 7 17 43
3 43 17 46
3 15 45 22
3 45 47 22
3 17 24 46
3 46 24 48
3 22 47 29
3 47 49 29
3 24 50 48
3 30 50 24
3 31 51 30
3 30 51 50
3 32 52 31
3 31 52 51
3 33 53 32
3 32 53 52
3 34 54 33
3 33 54 53
3 49 34 29
3 54 34 49
3 55 56 57
3 55 58 59
3 57 58 55
3 58 60 59
3 61 56 55
3 62 56 61
3 59 63 55
3 63 61 55
3 64 59 60
3 64 65 59
3 65 63 59
3 64 66 65
3 67 68 69
3 62 67 69
3 61 67 62
3 61 36 67
3 61 37 36
3 38 37 61
3 63 38 61
3 39 38 63
3 65 39 63
3 65 66 70
3 65 70 39
3 39 70 40
3 42 71 72
3 42 40 71
3 40 70 71
3 71 73 72
3 74 68 67
3 75 68 74
3 36 43 74
3 67 36 74
3 42 72 44
3 72 45 44
3 72 73 45
3 73 76 45
3 77 75 74
3 78 75 77
3 43 46 77
3 74 43 77
3 79 80 47
3 79 47 76
3 76 47 45
3 79 81 80
3 77 82 78
3 82 77 46
3 82 46 83
3 83 46 48
3 80 84 49
3 47 80 49
3 85 80 81
3 84 80 85
3 48 86 83
3 50 86 48
3 51 87 50
3 50 87 86
3 52 88 51
3 51 88 87
3 53 89 52
3 52 89 88
3 54 90 53
3 53 90 89
3 84 54 49
3 84 91 54
3 91 90 54
3 85 91 84
3 92 93 94
3 92 95 96
3 94 95 92
3 96 97 98
3 95 97 96
3 97 99 98
3 100 101 102
3 93 100 102
3 92 100 93
3 92 56 100
3 92 57 56
3 58 57 92
3 96 58 92
3 60 58 96
3 60 96 103
3 103 96 98
3 104 98 99
3 104 105 98
3 105 103 98
3 105 106 107
3 104 106 105
3 106 108 107
3 109 110 111
3 101 109 111
3 101 100 109
3 100 112 109
3 56 62 112
3 100 56 112
3 60 103 64
3 66 64 103
3 66 103 113
3 113 103 105
3 107 114 105
3 114 113 105
3 115 107 108
3 114 107 115
3 116 110 109
3 117 110 116
3 69 68 116
3 69 116 112
3 112 116 109
3 62 69 112
3 66 113 70
3 71 70 113
3 114 71 113
3 73 118 119
3 71 118 73
3 71 115 118
3 71 114 115
3 119 120 121
3 118 120 119
3 120 122 121
3 116 123 117
3 123 116 68
3 123 68 124
3 124 68 75
3 119 125 76
3 73 119 76
3 121 126 119
3 126 125 119
3 127 121 122
3 126 121 127
3 75 78 124
3 124 78 128
3 76 125 79
3 81 79 125
3 81 125 129
3 129 125 126
3 130 126 127
3 129 126 130
3 78 131 128
3 82 131 78
3 131 82 83
3 132 131 83
3 129 133 85
3 81 129 85
3 134 129 130
3 133 129 134
3 83 135 132
3 86 135 83
3 87 136 86
3 86 136 135
3 88 137 87
3 87 137 136
3 89 138 88
3 88 138 137
3 90 139 89
3 89 139 138
3 91 140 90
3 90 140 139
3 133 91 85
3 133 141 91
3 141 140 91
3 134 141 133
3 142 143 144
3 142 145 146
3 144 145 142
3 146 147 148
3 145 147 146
3 148 149 150
3 147 149 148
3 149 151 150
3 152 143 142
3 153 143 152
3 94 93 152
3 94 152 146
3 146 152 142
3 95 94 146
3 148 95 146
3 97 95 148
3 150 97 148
3 150 99 97
3 150 151 99
3 151 154 99
3 155 156 157
3 153 155 157
3 152 155 153
3 152 101 155
3 152 102 101
3 93 102 152
3 99 154 158
3 104 99 158
3 106 104 159
3 104 158 159
3 159 108 106
3 160 108 159
3 111 156 155
3 111 110 156
3 110 161 156
3 101 111 155
3 108 160 115
3 160 162 115
3 110 117 161
3 161 117 163
3 115 162 164
3 118 115 164
3 120 118 165
3 118 164 165
3 165 122 120
3 166 122 165
3 117 167 163
3 123 167 117
3 167 123 124
3 168 167 124
3 122 166 127
3 166 169 127
3 124 128 168
3 168 128 170
3 127 169 130
3 169 171 130
3 128 172 170
3 131 172 128
3 172 131 132
3 173 172 132
3 174 175 176
3 175 174 177
3 130 171 134
3 171 178 134
3 132 179 173
3 135 179 132
3 136 180 135
3 135 180 179
3 176 137 174
3 176 180 137
3 180 136 137
3 174 181 177
3 174 137 181
3 137 138 181
3 139 182 138
3 138 182 181
3 140 183 139
3 139 183 182
3 141 184 140
3 140 184 183
3 178 141 134
3 184 141 178
3 185 186 187
3 185 188 189
3 187 188 185
3 189 190 191
3 188 190 189
3 191 192 193
3 190 192 191
3 192 194 193
3 195 196 197
3 186 195 197
3 186 185 195
3 185 198 195
3 189 199 185
3 199 198 185
3 191 200 189
3 200 199 189
3 193 201 191
3 201 200 191
3 202 193 194
3 201 193 202
3 203 196 195
3 204 196 203
3 144 143 203
3 144 203 198
3 198 203 195
3 145 144 198
3 199 145 198
3 147 145 199
3 200 147 199
3 149 147 200
3 201 149 200
3 201 151 149
3 201 202 151
3 202 205 151
3 206 204 203
3 207 204 206
3 143 153 206
3 203 143 206
3 151 205 154
3 205 208 154
3 157 207 206
3 157 156 207
3 156 209 207
3 153 157 206
3 154 208 210
3 158 154 210
3 159 158 211
3 158 210 211
3 160 212 213
3 160 159 212
3 159 211 212
3 212 214 213
3 156 161 209
3 209 161 215
3 213 216 162
3 160 213 162
3 217 213 214
3 216 213 217
3 161 163 215
3 215 163 218
3 162 216 164
3 216 217 219
3 216 219 164
3 164 219 165
3 219 166 165
3 220 166 219
3 163 221 218
3 167 221 163
3 221 167 168
3 222 221 168
3 166 220 169
3 220 223 169
3 224 170 225
3 224 222 170
3 222 168 170
3 225 226 227
3 224 225 227
3 226 228 229
3 227 226 229
3 228 230 231
3 229 228 231
3 230 232 233
3 231 230 233
3 232 234 235
3 233 232 235
3 235 234 236
3 169 223 171
3 223 237 171
3 170 172 225
3 173 225 172
3 173 238 225
3 238 226 225
3 228 226 239
3 239 226 238
3 175 239 176
3 175 230 239
3 230 228 239
3 177 230 175
3 177 240 230
3 240 232 230
3 234 232 241
3 241 232 240
3 242 236 234
3 242 234 243
3 243 234 241
3 243 244 245
3 242 243 245
3 244 237 245
3 244 178 237
3 178 171 237
3 173 179 238
3 180 238 179
3 239 238 180
3 176 239 180
3 177 181 240
3 182 240 181
3 241 240 182
3 183 241 182
3 243 241 183
3 184 243 183
3 244 243 184
3 178 244 184
3 246 247 248
3 246 249 250
3 248 249 246
3 250 251 252
3 249 251 250
3 252 253 254
3 251 253 252
3 253 255 254
3 256 257 258
3 247 256 258
3 246 256 247
3 246 186 256
3 246 187 186
3 188 187 246
3 250 188 246
3 190 188 250
3 252 190 250
3 192 190 252
3 254 192 252
3 254 194 192
3 254 255 194
3 255 259 194
3 197 257 256
3 197 196 257
3 196 260 257
3 186 197 256
3 261 262 202
3 261 202 259
3 259 202 194
3 261 263 262
3 264 265 266
3 264 266 260
3 264 260 204
3 204 260 196
3 262 267 205
3 202 262 205
3 268 262 263
3 267 262 268
3 269 265 264
3 270 265 269
3 204 207 269
3 264 204 269
3 267 271 208
3 205 267 208
3 272 267 268
3 271 267 272
3 273 270 269
3 274 270 273
3 207 209 273
3 269 207 273
3 208 271 210
3 271 272 275
3 271 275 210
3 210 275 211
3 212 211 276
3 211 275 276
3 276 214 212
3 277 214 276
3 273 278 274
3 278 273 209
3 278 209 279
3 279 209 215
3 214 277 217
3 277 280 217
3 215 218 279
3 279 218 281
3 282 219 217
3 282 217 283
3 283 217 280
3 219 282 220
3 218 284 281
3 221 284 218
3 284 221 222
3 285 284 222
3 286 287 288
3 286 289 290
3 287 286 290
3 289 291 292
3 290 289 292
3 291 293 294
3 292 291 294
3 283 294 293
3 283 293 282
3 282 293 295
3 220 295 223
3 282 295 220
3 222 296 285
3 224 296 222
3 227 297 224
3 224 297 296
3 229 298 227
3 227 298 297
3 288 231 286
3 288 298 231
3 298 229 231
3 233 286 231
3 289 286 233
3 235 289 233
3 291 289 235
3 236 291 235
3 236 299 291
3 299 293 291
3 295 293 300
3 300 293 299
3 223 300 237
3 295 300 223
3 236 242 299
3 245 299 242
3 300 299 245
3 237 300 245
3 301 302 303
3 301 304 305
3 303 304 301
3 305 306 307
3 304 306 305
3 306 308 307
3 309 310 311
3 302 309 311
3 302 301 309
3 301 312 309
3 305 313 301
3 313 312 301
3 307 314 305
3 314 313 305
3 315 307 308
3 315 316 307
3 316 314 307
3 315 317 316
3 318 310 309
3 319 310 318
3 248 247 318
3 248 318 312
3 312 318 309
3 249 248 312
3 313 249 312
3 251 249 313
3 314 251 313
3 253 251 314
3 316 253 314
3 255 320 321
3 253 320 255
3 253 317 320
3 253 316 317
3 320 322 321
3 258 319 318
3 258 257 319
3 257 323 319
3 247 258 318
3 321 324 259
3 255 321 259
3 325 321 322
3 324 321 325
3 326 327 328
3 326 328 323
3 326 323 260
3 260 323 257
3 259 324 261
3 324 263 261
3 324 325 263
3 325 329 263
3 266 327 326
3 266 265 327
3 265 330 327
3 260 266 326
3 263 329 268
3 329 331 268
3 265 270 330
3 330 270 332
3 268 331 272
3 331 333 272
3 270 274 332
3 332 274 334
3 335 275 272
3 335 272 336
3 336 272 333
3 275 337 276
3 335 337 275
3 276 337 277
3 274 338 334
3 278 338 274
3 279 339 340
3 279 340 278
3 278 340 338
3 340 339 341
3 342 343 344
3 336 343 342
3 336 342 335
3 335 342 345
3 337 335 346
3 346 335 345
3 277 346 280
3 337 346 277
3 339 281 347
3 279 281 339
3 348 341 339
3 348 339 349
3 349 339 347
3 348 349 350
3 351 352 353
3 344 352 351
3 344 351 342
3 342 351 354
3 345 342 355
3 355 342 354
3 346 345 356
3 356 345 355
3 280 356 283
3 346 356 280
3 281 284 347
3 285 347 284
3 285 357 347
3 357 349 347
3 358 350 349
3 358 349 359
3 359 349 357
3 359 360 361
3 358 359 361
3 353 361 360
3 351 353 360
3 351 360 288
3 351 288 287
3 290 351 287
3 354 351 290
3 292 354 290
3 355 354 292
3 294 355 292
3 356 355 294
3 283 356 294
3 285 296 357
3 297 357 296
3 359 357 297
3 298 359 297
3 360 359 298
3 288 360 298
3 362 363 364
3 362 303 302
3 362 364 303
3 364 365 303
3 304 303 366
3 303 365 366
3 306 304 367
3 304 366 367
3 367 308 306
3 368 308 367
3 311 363 362
3 311 310 363
3 310 369 363
3 302 311 362
3 308 368 370
3 315 308 370
3 370 317 315
3 371 317 370
3 310 319 369
3 369 319 372
3 317 371 373
3 320 317 373
3 373 322 320
3 374 322 373
3 319 323 372
3 372 323 375
3 322 374 325
3 374 376 325
3 328 377 378
3 327 377 328
3 375 323 328
3 378 375 328
3 325 376 329
3 376 379 329
3 327 330 377
3 377 330 380
3 381 382 383
3 381 379 382
3 381 331 379
3 331 329 379
3 330 332 380
3 380 332 384
3 385 381 383
3 386 385 383
3 331 385 333
3 381 385 331
3 387 334 388
3 387 384 334
3 384 332 334
3 387 388 389
3 390 385 386
3 391 390 386
3 333 390 336
3 385 390 333
3 334 338 388
3 388 392 389
3 388 338 392
3 338 340 392
3 341 393 394
3 341 394 340
3 340 394 392
3 394 393 395
3 396 397 398
3 391 397 396
3 390 391 396
3 390 396 344
3 390 344 343
3 336 390 343
3 341 348 393
3 350 399 400
3 348 350 400
3 348 400 395
3 348 395 393
3 399 401 402
3 400 399 402
3 398 402 401
3 396 398 401
3 396 401 353
3 396 353 352
3 344 396 352
3 350 358 399
3 361 399 358
3 401 399 361
3 353 401 361
3 403 404 405
3 403 406 407
3 405 406 403
3 407 408 409
3 406 408 407
3 408 410 409
3 364 411 412
3 363 411 364
3 404 403 365
3 404 365 412
3 412 365 364
3 366 365 403
3 407 366 403
3 367 366 407
3 409 367 407
3 368 413 414
3 367 413 368
3 367 410 413
3 367 409 410
3 413 415 414
3 363 369 411
3 411 369 416
3 368 414 370
3 414 371 370
3 414 415 371
3 415 417 371
3 369 372 416
3 416 372 418
3 419 373 371
3 419 371 420
3 420 371 417
3 373 419 374
3 372 375 418
3 418 375 421
3 422 419 420
3 423 422 420
3 374 422 376
3 419 422 374
3 378 377 424
3 378 424 425
3 378 425 375
3 375 425 421
3 426 427 428
3 423 427 426
3 423 426 422
3 422 426 429
3 376 429 379
3 422 429 376
3 424 380 430
3 377 380 424
3 431 425 424
3 431 424 432
3 432 424 430
3 432 433 434
3 431 432 434
3 433 435 436
3 434 433 436
3 435 437 438
3 436 435 438
3 428 438 437
3 428 437 426
3 426 437 439
3 382 439 383
3 382 429 439
3 429 426 439
3 379 429 382
3 430 384 440
3 380 384 430
3 432 430 441
3 441 430 440
3 433 432 442
3 442 432 441
3 435 433 443
3 443 433 442
3 437 435 444
3 444 435 443
3 439 437 445
3 445 437 444
3 383 445 386
3 439 445 383
3 384 387 440
3 389 440 387
3 389 446 440
3 446 441 440
3 442 441 447
3 447 441 446
3 443 442 448
3 448 442 447
3 444 443 449
3 449 443 448
3 445 444 450
3 450 444 449
3 386 450 391
3 445 450 386
3 389 392 446
3 394 446 392
3 447 446 394
3 395 447 394
3 395 451 447
3 451 448 447
3 449 448 452
3 452 448 451
3 397 452 398
3 397 450 452
3 450 449 452
3 391 450 397
3 395 400 451
3 402 451 400
3 452 451 402
3 398 452 402
3 405 453 454
3 404 453 405
3 406 405 455
3 405 454 455
3 408 406 456
3 406 455 456
3 410 457 458
3 410 408 457
3 408 456 457
3 457 459 458
3 412 411 460
3 412 460 461
3 412 461 404
3 404 461 453
3 410 458 413
3 458 415 413
3 458 459 415
3 459 462 415
3 460 463 464
3 460 411 463
3 411 416 463
3 461 460 464
3 415 462 417
3 462 465 417
3 416 418 463
3 463 418 466
3 417 465 420
3 465 467 420
3 468 421 469
3 468 466 421
3 466 418 421
3 468 469 470
3 471 472 473
3 471 474 475
3 472 471 475
3 474 467 475
3 474 423 467
3 423 420 467
3 469 425 476
3 421 425 469
3 477 470 469
3 477 469 478
3 478 469 476
3 478 479 480
3 477 478 480
3 473 480 479
3 473 479 471
3 471 479 481
3 427 481 428
3 427 474 481
3 474 471 481
3 423 474 427
3 425 431 476
3 434 476 431
3 478 476 434
3 436 478 434
3 479 478 436
3 438 479 436
3 481 479 438
3 428 481 438
3 482 483 484
3 482 485 486
3 484 485 482
3 486 487 488
3 485 487 486
3 488 489 490
3 487 489 488
3 490 491 492
3 489 491 490
3 491 493 492
3 454 483 482
3 454 453 483
3 453 494 483
3 455 454 482
3 486 455 482
3 456 455 486
3 488 456 486
3 457 456 488
3 490 457 488
3 459 457 490
3 459 490 495
3 495 490 492
3 496 492 493
3 495 492 496
3 453 461 494
3 494 461 497
3 495 498 462
3 459 495 462
3 499 495 496
3 498 495 499
3 464 463 500
3 464 500 501
3 464 501 461
3 461 501 497
3 502 503 504
3 502 505 506
3 503 502 506
3 498 507 506
3 498 506 465
3 498 465 462
3 465 506 505
3 499 507 498
3 500 466 508
3 463 466 500
3 509 501 500
3 509 500 510
3 510 500 508
3 510 511 512
3 509 510 512
3 504 512 511
3 504 511 502
3 502 511 513
3 505 502 514
3 514 502 513
3 465 514 467
3 505 514 465
3 466 468 508
3 470 508 468
3 470 515 508
3 515 510 508
3 511 510 516
3 516 510 515
3 472 516 473
3 472 513 516
3 513 511 516
3 475 513 472
3 514 513 475
3 467 514 475
3 470 477 515
3 480 515 477
3 516 515 480
3 473 516 480
3 517 518 519
3 517 520 521
3 519 520 517
3 520 522 521
3 484 523 524
3 483 523 484
3 485 484 525
3 484 524 525
3 518 517 487
3 518 487 525
3 525 487 485
3 489 487 517
3 521 489 517
3 521 522 526
3 521 526 489
3 489 526 491
3 493 527 528
3 493 491 527
3 491 526 527
3 527 529 528
3 483 494 523
3 523 494 530
3 528 531 496
3 493 528 496
3 532 528 529
3 531 528 532
3 494 497 530
3 530 497 533
3 531 534 535
3 531 535 496
3 496 535 499
3 532 534 531
3 536 501 537
3 536 533 501
3 533 497 501
3 537 538 539
3 536 537 539
3 538 504 503
3 538 503 539
3 539 503 540
3 506 541 503
3 503 541 540
3 507 542 506
3 506 542 541
3 535 507 499
3 542 507 535
3 501 509 537
3 512 537 509
3 538 537 512
3 504 538 512
3 519 543 544
3 518 543 519
3 520 519 545
3 519 544 545
3 522 546 547
3 522 520 546
3 520 545 546
3 547 548 549
3 546 548 547
3 548 550 549
3 524 523 551
3 552 524 551
3 552 553 524
3 553 525 524
3 543 518 525
3 553 543 525
3 522 547 526
3 527 526 547
3 549 527 547
3 529 554 555
3 527 554 529
3 527 550 554
3 527 549 550
3 555 556 557
3 554 556 555
3 556 558 557
3 551 530 559
3 523 530 551
3 560 552 551
3 559 560 551
3 555 561 532
3 529 555 532
3 557 562 555
3 562 561 555
3 563 557 558
3 562 557 563
3 559 533 564
3 530 533 559
3 565 560 559
3 565 559 566
3 566 559 564
3 566 567 568
3 565 566 568
3 567 569 570
3 568 567 570
3 569 571 572
3 570 569 572
3 571 535 534
3 571 534 572
3 572 534 573
3 561 534 532
3 561 574 534
3 574 573 534
3 562 574 561
3 575 574 562
3 563 575 562
3 533 536 564
3 539 564 536
3 566 564 539
3 540 566 539
3 567 566 540
3 541 567 540
3 569 567 541
3 542 569 541
3 571 569 542
3 535 571 542
3 544 576 577
3 543 576 544
3 545 544 578
3 544 577 578
3 546 545 579
3 545 578 579
3 548 546 580
3 546 579 580
3 580 550 548
3 581 550 580
3 553 582 583
3 552 582 553
3 576 543 553
3 583 576 553
3 550 581 584
3 554 550 584
3 556 554 585
3 554 584 585
3 585 558 556
3 586 558 585
3 552 560 582
3 582 560 587
3 558 586 563
3 586 588 563
3 560 589 587
3 565 589 560
3 568 590 565
3 565 590 589
3 591 592 590
3 591 590 570
3 570 590 568
3 570 572 593
3 591 570 593
3 572 573 594
3 593 572 594
3 573 574 595
3 594 573 595
3 596 595 574
3 596 574 597
3 597 574 575
3 588 575 563
3 597 575 588
3 591 598 592
3 593 598 591
3 599 598 593
3 594 599 593
3 600 599 594
3 595 600 594
3 601 600 595
3 596 601 595
3 577 576 602
3 577 603 578
3 602 603 577
3 578 604 579
3 603 604 578
3 579 605 580
3 604 605 579
3 580 605 581
3 583 582 606
3 583 606 607
3 576 583 607
3 576 607 608
3 576 608 602
3 603 602 608
3 609 603 608
3 604 603 609
3 610 604 609
3 605 604 610
3 611 605 610
3 581 605 611
3 581 611 584
3 584 611 612
3 585 584 613
3 584 612 613
3 586 614 615
3 586 585 614
3 585 613 614
3 614 616 615
3 606 587 617
3 582 587 606
3 618 607 606
3 617 618 606
3 615 619 588
3 586 615 588
3 620 615 616
3 619 615 620
3 587 589 617
3 617 621 618
3 617 589 621
3 589 590 621
3 621 590 592
3 622 621 592
3 597 623 624
3 596 597 624
3 619 597 588
3 619 625 597
3 625 623 597
3 620 625 619
3 592 626 622
3 598 626 592
3 599 627 598
3 598 627 626
3 600 628 599
3 599 628 627
3 601 629 600
3 600 629 628
3 624 601 596
3 629 601 624
3 608 607 630
3 608 631 609
3 630 631 608
3 632 609 631
3 632 633 609
3 633 610 609
3 611 610 634
3 610 633 634
3 612 611 635
3 611 634 635
3 613 612 636
3 612 635 636
3 614 613 637
3 613 636 637
3 637 616 614
3 638 616 637
3 630 618 639
3 607 618 630
3 631 630 640
3 640 630 639
3 641 632 631
3 640 641 631
3 616 638 620
3 638 642 620
3 618 621 639
3 622 639 621
3 622 643 639
3 643 640 639
3 644 641 640
3 643 644 640
3 623 645 646
3 624 623 646
3 625 647 623
3 623 647 645
3 642 625 620
3 647 625 642
3 622 626 643
3 643 648 644
3 643 626 648
3 626 627 648
3 628 649 627
3 627 649 648
3 629 650 628
3 628 650 649
3 646 629 624
3 650 629 646
3 633 632 651
3 633 652 634
3 651 652 633
3 634 653 635
3 652 653 634
3 635 654 636
3 653 654 635
3 636 655 637
3 654 655 636
3 637 655 638
3 651 641 656
3 632 641 651
3 652 651 657
3 657 651 656
3 653 652 658
3 658 652 657
3 654 653 659
3 659 653 658
3 655 654 660
3 660 654 659
3 638 660 642
3 655 660 638
3 656 644 661
3 641 644 656
3 657 656 662
3 662 656 661
3 658 657 663
3 663 657 662
3 645 663 646
3 645 659 663
3 659 658 663
3 647 659 645
3 660 659 647
3 642 660 647
3 644 648 661
3 649 661 648
3 662 661 649
3 650 662 649
3 663 662 650
3 646 663 650
