# vtk DataFile Version 3.0
this file was written using fslvtkio
ASCII
DATASET POLYDATA
POINTS 970 float
124.925 147.183 103.499
123.575 146.712 104.024
124.417 146.217 104.023
125.283 146.06 103.937
126.205 147.12 103.547
126.455 145.806 104.205
127.274 146.678 104.28
127.487 145.655 105.012
124.337 148.118 103.943
123.49 148.181 104.554
125.567 148.403 104.069
126.886 148.052 104.282
127.83 146.982 105.223
124.697 149.236 104.997
126.21 149.332 104.915
127.329 148.263 105.39
121.071 137.052 102.929
119.52 136.751 103.263
120.315 135.395 102.623
121.838 135.678 102.766
122.227 137.606 103.269
122.696 136.406 103.683
122.934 137.888 104.102
122.68 136.683 104.856
120.653 138.118 103.984
119.337 137.869 104.371
121.84 138.822 103.817
122.85 139.216 103.967
123.434 137.904 105.066
123.637 139.393 104.812
123.778 138.76 105.92
120.545 139.172 104.683
119.361 138.665 105.001
121.806 139.887 104.491
122.897 140.553 104.404
123.764 140.751 104.891
124.321 140.197 105.828
119.677 139.57 105.309
121.419 140.611 104.961
120.651 140.693 105.416
122.784 141.815 104.706
123.989 142.262 104.652
124.674 141.546 105.384
121.509 141.894 105.39
122.823 143.02 104.987
123.937 143.741 104.433
123.353 144.357 105.171
125.085 142.692 105.261
125.042 143.782 104.663
125.91 143.38 105.711
126.405 144.122 105.216
126.627 143.932 106.304
124.072 145.356 104.751
122.995 145.093 105.583
124.975 144.938 104.645
126.348 144.815 104.758
127.5 144.771 105.89
122.967 145.987 104.888
121.848 146.292 105.516
122.03 145.228 106.156
128.361 146.004 106.107
122.453 147.384 104.811
121.806 147.532 105.888
128.32 147.686 106.292
123.152 148.652 105.7
124.04 149.558 106.297
125.583 149.951 105.988
127.06 149.369 106.07
118.619 133.822 103.351
117.487 134.311 104.026
117.853 132.825 104.41
119.373 132.892 103.947
119.885 134.164 102.859
120.72 133.519 103.859
118.585 135.516 103.25
117.337 135.752 104.374
121.382 134.545 103.294
122.256 135.408 104.276
122.399 136.096 105.807
118.193 137.019 104.061
116.951 136.95 105.01
123.142 137.425 106.086
123.752 138.543 107.193
118.134 138.309 105.072
116.842 138.243 105.958
124.281 139.791 107.073
124.974 141.163 106.61
125.084 140.742 107.738
118.319 139.532 105.85
119.906 140.746 105.77
118.702 140.618 106.432
125.36 142.203 106.476
125.634 141.96 107.876
120.078 141.891 106.253
121.084 142.94 106.253
120.034 142.76 106.759
122.131 143.288 105.646
126.209 142.96 106.943
127.164 143.971 107.376
121.298 144.264 106.888
120.138 143.402 107.306
122.16 144.152 106.179
128.013 144.942 107.299
120.275 144.119 107.442
121.174 145.721 106.68
128.505 146.183 107.336
121.389 147.473 106.97
128.497 147.71 107.433
122.676 148.497 106.951
123.914 149.316 107.448
123.569 148.742 108.354
125.114 150.001 107.365
126.648 149.992 107.159
127.755 148.973 107.036
124.761 149.649 108.668
126.005 150.063 108.576
127.18 149.933 108.289
116.917 134.174 105.367
117.657 132.772 105.747
118.915 132.432 105.372
120.282 133.026 105.237
121.224 133.924 105.01
121.102 134.036 106.746
116.758 135.608 105.849
121.668 134.869 105.246
122.155 135.918 106.984
116.429 136.876 106.386
122.931 137.389 107.223
123.669 138.313 108.568
116.049 137.772 107.029
124.481 139.513 108.233
125.248 140.745 108.832
117.09 139.658 106.541
116.146 139.063 107.409
125.951 141.84 109.1
117.053 140.637 107.415
116.277 140.494 108.431
118.413 141.394 106.922
126.544 143.036 108.27
127.274 143.795 108.892
117.441 141.622 107.967
118.713 142.481 107.462
118.226 142.554 108.312
127.801 144.756 108.762
119.152 143.565 108.199
120.249 145.096 107.596
119.814 145.25 108.415
128.261 145.92 108.717
128.692 147.058 108.481
128.656 146.562 109.735
120.634 146.549 107.54
120.471 146.634 108.595
128.42 148.355 108.385
128.708 147.803 109.677
121.777 147.653 108.122
122.761 148.023 108.702
123.63 148.401 109.536
127.829 149.222 108.565
128.401 148.831 109.905
124.524 149.006 109.753
125.527 149.684 110.046
126.805 150.022 109.931
127.694 149.663 109.87
118.366 132.141 106.744
117.524 133.143 106.975
117.928 131.763 107.81
119.172 131.466 107.712
119.527 132.435 106.577
119.915 132.297 107.848
120.432 133.17 106.792
120.628 133.022 108.341
117.127 134.389 107.073
121.172 133.922 108.512
116.768 135.601 107.363
121.599 134.986 107.143
122.316 135.945 108.381
116.318 136.643 107.925
122.883 137.194 108.402
123.664 138.146 109.757
115.905 137.814 108.402
124.697 139.368 109.391
125.469 140.54 110.07
115.932 139.115 108.865
126.15 141.576 110.483
116.143 140.151 109.63
126.683 142.752 109.669
127.307 143.643 110.523
117.248 142.003 108.813
116.832 141.507 109.787
127.736 144.677 110.166
128.094 145.62 109.667
128.453 145.516 110.913
118.023 143.055 109.16
119.027 144.383 109.079
118.615 144.232 110.048
128.935 146.794 110.928
119.71 145.616 109.581
119.436 145.317 110.555
128.751 147.934 111.063
120.833 146.759 109.539
121.828 147.392 109.757
122.784 147.881 110.07
122.304 147.532 110.934
128.501 149.022 111.263
123.77 148.241 110.825
124.643 148.687 111.358
125.443 149.215 111.338
126.543 149.718 111.323
127.675 149.719 111.239
117.498 132.937 108.499
117.957 131.271 109.019
118.958 130.696 108.654
120.083 131.741 108.92
120.793 132.495 109.875
117.288 134.338 108.712
121.485 133.622 110.062
116.609 135.31 108.964
121.687 134.93 108.871
122.452 135.764 109.791
116.22 136.489 109.415
123.087 136.962 109.745
124.004 137.809 111.078
115.975 137.754 109.894
124.593 139.15 110.622
125.366 140.065 111.333
116.076 138.908 110.498
126.218 141.017 111.768
116.495 140.145 110.919
127.005 142.43 111.055
127.77 143.019 112.122
117.174 141.434 111.049
127.947 144.334 111.376
128.772 145.384 112.149
117.728 142.848 110.228
118.41 143.989 111.202
128.936 146.674 112.141
119.315 144.766 111.878
128.773 147.789 112.506
120.252 145.964 110.947
121.222 146.587 110.948
122.161 146.764 111.981
128.405 148.904 112.538
123.251 147.724 111.845
124.285 148.119 112.453
125.308 148.707 112.826
126.284 149.291 112.73
127.479 149.484 112.573
118.408 130.095 109.759
117.706 131.369 109.843
117.809 129.654 110.681
119.053 129.043 110.466
119.567 130.261 109.542
120.151 129.686 110.506
120.314 131.125 109.958
120.757 130.703 110.941
117.504 132.761 109.929
121.224 132.104 111.289
117.139 134.078 110.164
121.612 133.285 111.307
116.536 135.044 110.526
121.913 134.677 110.618
122.717 135.575 111.15
116.208 136.308 110.954
123.323 136.701 111.039
124.318 137.148 112.324
116.098 137.508 111.449
124.802 138.567 111.929
125.669 139.467 112.501
116.22 138.798 111.892
126.475 140.601 112.854
116.707 140.05 112.228
127.077 141.931 112.318
127.657 142.169 113.532
117.281 141.24 112.389
128.187 144.061 112.544
128.105 143.333 113.719
117.807 142.659 111.519
118.517 143.555 112.434
128.675 144.799 113.24
128.823 146.157 113.427
119.388 144.264 113.13
128.765 147.622 113.686
120.293 145.399 112.399
121.129 146.06 112.407
122.113 146.473 113.29
128.255 148.797 113.748
123.14 147.241 113.057
124.147 147.755 113.613
125.16 148.261 114.126
126.095 148.834 114.273
127.174 149.236 113.891
117.797 131.037 111.086
117.985 129.242 111.775
118.722 128.296 111.288
120.154 128.867 111.53
121.153 130.308 112.107
117.498 132.662 111.14
121.504 131.366 112.485
121.867 132.547 112.499
122.205 132.118 113.55
117.235 133.763 111.724
121.994 133.669 111.855
122.56 133.627 112.727
116.547 134.849 111.998
122.676 134.681 112.197
123.495 135.984 112.128
123.873 135.588 113.157
116.17 136.046 112.452
124.737 136.645 113.526
116.268 137.361 112.877
125.291 138.033 113.057
126.298 139.225 113.556
116.485 138.584 113.327
126.85 140.242 113.847
127.007 141.326 113.406
127.525 140.869 114.647
116.883 139.77 113.612
128.17 142.183 114.77
117.377 140.828 113.913
128.426 143.638 115.054
117.942 142.187 112.889
118.673 143.024 113.782
128.722 144.782 114.269
128.74 146.26 114.659
119.706 143.838 114.347
128.513 147.425 114.848
120.435 145.021 113.599
121.445 145.796 113.959
122.509 146.32 114.834
127.935 148.603 114.69
123.107 146.75 114.251
124.049 147.225 114.845
125.017 147.744 115.306
126.133 148.189 115.615
127.152 148.67 115.324
119.026 127.576 112.157
118.246 127.665 113.263
119.195 126.94 113.358
120.395 127.15 113.565
120.302 127.638 112.241
121.148 128.066 113.129
117.901 130.394 112.327
117.972 128.782 112.795
121.23 129.185 112.786
121.718 130.665 113.208
122.055 130.441 114.24
117.601 131.988 112.272
117.857 130.56 113.552
122.821 132.165 114.445
117.142 133.438 113.001
123.176 133.264 114.096
116.643 134.633 113.462
123.661 134.38 113.56
124.426 135.197 114.333
116.421 135.943 113.92
125.146 136.151 114.828
125.298 137.144 114.001
125.741 137.485 114.608
116.558 137.203 114.368
126.243 138.433 114.348
127.012 139.512 114.637
127.221 139.19 115.698
116.839 138.337 114.789
127.958 140.57 115.703
117.135 139.387 115.094
128.514 141.967 115.96
117.503 140.451 115.292
128.588 143.308 116.333
118.036 141.745 114.375
118.934 142.724 114.987
128.69 145.28 115.481
128.492 144.765 116.458
119.946 143.377 115.623
120.46 144.55 114.813
120.813 144.189 115.829
128.377 146.488 116.08
127.85 146.583 117.013
121.492 145.312 115.04
123.682 146.545 115.819
122.713 145.785 115.936
124.819 147.221 116.397
124.064 146.279 117.057
126.038 147.686 116.704
125.28 146.926 117.606
127.405 147.778 116.565
126.831 147.286 117.663
127.983 147.878 115.607
119.533 126.356 114.168
118.538 126.89 114.571
119.405 125.931 115.229
120.441 125.811 115.118
120.459 126.449 114.254
121.144 126.674 114.63
118.239 128.27 114.38
121.628 127.636 114.722
121.606 129.017 114.043
122.189 128.911 115.22
118.155 129.51 114.234
122.569 130.65 115.249
117.575 132.024 113.657
117.853 130.708 114.945
123.279 131.146 116.003
123.471 132.511 115.333
124.008 131.935 116.323
117.122 133.294 114.4
123.746 133.362 114.67
124.171 133.514 115.182
116.727 134.528 114.94
124.817 134.325 115.381
125.08 135.203 115.305
125.607 135.222 116.022
116.612 135.713 115.449
125.978 136.662 115.845
126.544 137.981 115.597
127.08 137.588 116.636
116.815 136.963 115.872
127.748 138.975 116.705
117.257 138.007 116.387
128.227 140.272 116.739
117.524 139.276 116.426
128.447 141.139 117.234
128.743 142.3 117.251
128.692 140.992 118.39
117.771 140.206 116.408
117.956 140.988 115.688
118.315 140.653 117.025
128.677 143.653 117.464
128.734 142.27 118.505
119.257 142.575 115.862
118.537 141.657 115.745
119.566 142.461 116.659
128.284 144.969 117.613
128.47 143.628 118.568
121.512 144.634 116.352
120.634 143.511 116.759
121.69 144.068 117.389
127.818 144.93 118.475
127.639 146.073 117.756
122.512 145.171 116.601
123.806 145.582 117.57
125.032 146.093 118.361
126.313 146.611 118.518
120.178 125.303 116.196
119.061 126.041 116.032
119.839 124.988 117.17
121.016 124.594 117.274
121.241 125.547 115.97
121.782 124.919 117.12
122.005 125.791 116.557
122.418 125.338 117.308
118.696 127.243 115.876
121.899 126.489 115.61
122.443 126.73 116.576
118.274 128.535 115.781
122.471 127.875 116.279
122.857 129.246 116.19
123.505 128.736 117.357
118.018 129.689 115.987
123.206 130.134 116.255
124.021 129.947 117.071
117.508 132.035 115.189
117.764 130.771 116.386
124.56 130.842 117.472
124.609 132.513 116.71
125.229 131.945 117.709
117.172 133.156 115.78
124.714 133.407 116.24
125.324 133.465 116.885
116.938 134.203 116.489
125.908 134.352 117.028
126.36 136.07 116.738
126.753 135.823 117.517
117.015 135.326 116.878
127.537 137.24 117.609
117.164 136.397 117.402
127.92 137.998 117.901
128.121 139.138 117.934
128.13 138.033 119.092
117.448 137.315 117.759
117.776 138.41 117.736
118.246 137.485 119.015
128.483 140.09 118.026
128.432 139.389 119.269
118.011 139.568 117.496
118.516 138.956 118.618
128.537 140.69 119.5
118.883 140.327 118.128
128.352 142.142 119.565
119.005 141.476 117.159
120.04 142.062 117.697
127.894 143.696 119.324
120.62 142.994 117.712
122.573 144.404 117.823
121.805 143.476 118.386
122.951 144.133 118.919
127.509 144.628 119.259
126.913 145.658 118.802
123.444 144.878 118.111
124.563 145.219 118.849
125.695 145.613 119.196
118.958 125.876 117.351
119.842 124.291 117.851
121.008 123.544 117.812
122.325 123.902 117.824
123.06 125.207 117.858
118.734 127.291 117.298
123.473 125.853 118.435
122.946 126.902 117.453
123.616 127.013 118.245
118.454 128.396 117.396
123.771 127.9 118.021
124.61 128.856 118.225
125.065 128.157 119.438
118.21 129.408 117.707
124.863 129.811 118.155
125.58 129.393 119.287
117.561 131.682 116.914
117.897 130.446 117.972
125.512 130.652 118.562
125.833 132.193 118.426
126.414 131.457 119.363
117.342 132.771 117.189
117.619 131.636 118.403
125.927 133.262 118.029
126.42 133.258 118.848
117.288 133.725 118.101
126.54 134.504 118.137
127.238 135.889 118.505
127.34 135.098 119.464
117.295 134.835 118.42
127.793 136.964 118.78
127.911 136.344 119.873
117.593 135.565 118.818
117.812 136.586 118.761
118.233 135.982 120.084
128.326 137.774 120.183
118.863 137.328 120.114
128.333 139.223 120.479
119.18 138.493 119.657
119.242 139.661 119.184
119.984 139.474 120.087
128.082 140.603 120.577
119.386 140.589 118.469
119.92 140.596 119.317
127.891 142.531 120.267
120.933 142.4 118.576
119.995 141.39 118.561
121.642 142.732 119.088
121.311 141.816 119.449
122.269 142.703 119.708
127.186 144.172 119.842
127.058 142.757 120.616
126.376 143.568 120.58
123.989 144.512 119.543
122.966 143.455 119.77
125.155 144.8 119.941
124.183 143.752 120.44
126.358 144.873 119.851
125.407 143.888 120.651
120.448 122.931 118.631
119.462 124.483 118.609
119.968 123.058 119.496
120.962 122.054 119.496
121.814 122.64 118.544
122.569 122.005 119.182
123.156 123.369 118.573
123.786 122.361 119.304
124.057 123.695 119.335
124.566 123.273 120.182
119.147 125.904 118.604
123.737 124.628 118.848
124.658 124.725 119.974
118.873 127.095 118.818
124.624 125.932 119.541
124.595 127.186 119.249
125.598 126.649 120.372
118.541 128.187 119
125.953 127.956 120.385
118.321 129.336 119.247
126.516 128.722 120.688
126.238 130.1 119.737
126.854 130.27 120.7
118.111 130.349 119.709
126.976 131.947 120.06
117.608 132.624 119.095
117.929 131.391 119.799
127.183 133.127 120.122
117.807 133.745 119.736
118.015 132.763 120.547
127.076 134.104 119.472
127.818 134.872 120.636
117.743 134.866 119.904
118.43 134.288 121.068
128.206 136.228 120.988
118.71 135.809 121.178
128.216 137.719 121.349
119.294 136.829 121.447
119.736 138.193 120.647
120.536 138.666 121.067
120.096 137.396 121.805
120.833 137.989 122.211
127.995 139.144 121.643
120.829 140.066 120.541
121.167 139.333 121.655
127.651 140.339 121.51
127.28 139.665 122.43
126.997 140.887 122.045
120.875 141.027 119.819
121.795 140.482 121.24
121.862 141.404 120.356
122.607 141.343 121.128
127.55 141.614 121.036
126.621 142.038 121.568
123.069 142.035 121.051
125.862 142.948 121.371
123.202 142.671 120.606
124.025 142.867 120.924
125.004 142.978 121.271
122.626 120.043 120.489
121.323 120.332 120.606
121.893 119.255 121.301
122.761 118.449 121.066
123.718 120.025 120.541
123.985 118.5 120.91
124.759 120.409 120.732
125.005 118.92 121.29
121.902 121.137 119.83
120.594 121.481 120.675
123.386 121.065 119.799
124.575 121.866 120.285
125.439 120.386 121.326
125.474 122.212 121.059
126.042 120.679 121.961
119.645 124.473 119.771
120.258 122.866 120.594
125.52 123.814 120.928
126.3 121.88 122.067
126.341 123.279 121.939
126.955 122.212 122.884
119.497 125.705 120.02
125.69 125.359 120.732
126.412 124.82 121.764
127.03 124.011 122.735
119.068 126.86 120.328
126.583 126.394 121.438
126.974 125.728 122.598
118.584 128.193 120.281
126.622 127.57 121.367
127.042 127.403 122.433
118.538 129.338 120.815
127.211 128.9 121.644
127.258 130.905 121.358
127.596 129.997 122.305
118.582 130.447 121.406
127.526 132.3 121.129
127.703 131.697 122.153
118.338 131.648 121.309
127.692 133.728 120.628
127.909 133.614 121.725
118.602 132.999 121.571
128.233 134.913 121.871
119.132 133.497 122.522
119.082 134.852 122.136
119.699 134.199 123.095
128.186 136.214 122.174
119.522 136.06 122.129
119.906 135.448 122.851
127.706 137.444 122.401
120.598 136.592 122.879
121.44 137.677 122.901
127.291 138.414 122.8
121.786 138.654 122.592
121.829 139.554 121.958
122.343 139.487 122.647
126.455 139.156 123.193
126.231 140.292 122.867
123.619 141.288 122.002
122.768 140.419 122.117
124.692 141.268 122.625
123.727 140.314 122.918
125.775 141.169 122.394
124.948 140.245 123.293
123.746 142.2 121.467
124.509 142.222 121.761
125.531 142.117 121.91
123.483 116.963 121.596
122.315 117.476 122.026
122.716 116.443 122.727
123.553 115.557 122.267
124.721 117.234 121.488
124.885 116.021 121.723
125.79 117.601 121.978
126.099 116.404 122.113
121.152 120.05 121.746
121.777 118.61 122.437
125.895 119.034 121.951
126.623 117.672 122.653
126.677 119.003 122.92
127.274 118.2 123.535
120.947 121.269 122.03
126.655 120.484 122.787
127.295 120.293 123.637
119.988 124.048 121.083
120.482 122.544 121.951
127.355 122.323 123.721
119.829 125.257 121.435
120.172 123.829 122.377
127.462 124.193 123.625
119.428 126.409 121.591
120.028 125.199 122.82
127.315 125.968 123.612
118.896 127.794 121.456
119.556 126.524 122.69
127.216 127.289 123.903
118.912 128.915 122.143
127.399 128.613 122.969
127.693 130.05 123.181
119.36 129.156 123.044
118.97 130.618 122.603
119.647 130.081 123.703
127.712 132.07 122.934
118.906 131.792 122.489
119.678 131.234 123.623
127.837 133.565 122.904
119.278 132.613 122.58
119.869 132.33 123.479
127.884 134.846 123.13
120.45 134.697 123.721
120.221 133.209 123.895
121.102 134.298 124.355
127.642 136.084 123.228
120.595 135.708 123.401
121.346 135.726 123.969
127.118 137.14 123.472
122.468 138.072 123.536
121.7 136.8 123.698
123.599 138.035 124.027
122.823 136.975 124.295
124.689 137.963 124.157
124.016 136.832 124.675
125.647 137.837 124.031
125.173 136.769 124.618
126.439 138.046 123.624
126.201 136.9 124.301
123.095 139.386 123.453
124.255 139.297 123.749
125.489 139.207 123.742
126.998 108.133 120.959
125.946 109.257 122.198
126.715 107.174 122.523
128.021 106.084 121.734
128.385 108.464 121.213
129.583 106.825 121.696
129.307 108.997 122.16
129.726 107.995 123.055
126.054 110.655 121.513
125.001 110.738 122.562
127.335 110.463 121.445
128.364 110.469 122.236
129.148 109.956 123.351
125.493 112.283 121.913
124.547 112.032 123.229
126.916 112.17 121.874
128.041 112.273 122.576
128.748 111.866 123.614
124.637 113.316 122.078
123.955 113.972 123.262
124.262 113.089 123.745
126.186 113.966 122.147
127.293 113.701 122.477
128.07 113.877 123.694
128.588 113.302 124.549
124.403 114.686 122.323
123.648 114.96 123.747
125.807 115.099 122.054
127.341 115.457 122.966
128.03 115.194 123.907
122.487 117.532 123.486
123.199 115.985 123.956
126.97 116.518 122.917
127.763 116.97 124.026
121.396 119.893 122.98
122.02 118.742 123.805
127.684 118.681 124.379
121.066 121.148 123.324
127.581 120.563 124.553
120.733 122.458 123.366
127.611 122.454 124.654
120.481 123.694 123.68
127.595 124.353 124.64
120.395 124.986 124.078
127.416 125.87 124.891
119.338 127.62 122.917
120.097 126.412 123.861
127.258 127.319 125.24
119.408 128.328 123.206
119.976 127.817 124.116
127.445 128.595 124.143
127.651 130.424 124.015
120.428 130.437 124.576
120.078 129 124.207
120.956 129.539 125.153
127.464 131.599 124.047
120.764 131.542 124.637
121.391 130.699 125.639
127.521 133.033 124.031
120.607 132.398 124.374
121.444 132.214 125.327
127.393 134.019 124.214
127.132 132.812 124.733
126.747 133.363 125.124
122.071 134.769 124.845
121.388 133.254 124.888
122.373 133.687 125.457
127.122 134.965 124.186
126.21 134.453 125.07
122.381 135.967 124.644
123.001 134.749 125.552
123.545 135.752 125.068
124.893 135.716 125.099
124.152 134.846 125.742
126.146 135.695 124.813
125.327 134.677 125.546
126.954 136.12 124.04
125.74 109.461 123.466
126.6 108.157 124.217
127.764 106.796 123.944
129.244 106.685 123.664
129.467 108.773 124.349
125.161 111.088 124.098
129.281 110.784 124.597
125.038 112.452 125.058
129.033 112.203 125.106
124.192 114.302 124.965
124.675 113.44 125.124
128.498 113.254 126.076
128.332 114.743 125.389
123.874 115.41 125.359
128.174 116.169 124.951
122.977 117.246 124.711
123.53 116.432 125.448
128.018 117.626 125.249
121.761 119.854 124.392
122.657 118.526 125.045
127.867 119.151 125.426
121.513 121.186 124.609
122.281 119.781 125.563
127.629 120.85 125.602
121.163 122.368 124.732
122.021 121.308 125.782
127.687 122.633 125.654
120.871 123.749 124.949
121.784 122.677 125.873
127.502 124.088 125.861
120.812 125.547 125.06
121.455 124.114 125.832
127.225 125.538 126.075
120.759 126.963 125.02
121.665 125.31 126.051
121.588 126.502 126.043
122.405 125.796 126.843
126.973 126.826 126.338
120.886 128.351 125.123
121.703 127.771 125.988
122.58 127.212 126.98
127.261 128.882 125.073
126.883 128.452 126.139
121.762 129.239 126.021
122.65 128.595 126.777
127.331 130.003 125.35
126.717 130.172 126.266
122.195 131.207 126.194
122.651 130.107 126.622
127.079 131.466 125.208
126.373 131.251 126.241
122.47 132.582 125.937
123.178 131.329 126.575
123.679 132.493 126.231
124.991 132.571 126.129
124.323 131.535 126.598
126.292 132.353 125.742
125.478 131.533 126.6
123.357 133.611 126.048
124.493 133.712 126.059
125.674 133.523 125.713
125.931 109.823 124.649
126.696 108.956 125.391
127.472 107.965 125.494
128.845 108.135 125.245
129.035 109.818 125.486
125.707 111.207 125.379
128.963 111.112 125.859
125.642 112.113 126.261
128.791 112.127 126.304
125.051 113.906 126.487
125.596 113.119 126.666
126.382 113.945 127.685
128.134 114.198 126.923
127.323 113.272 127.581
128.231 112.522 127.2
124.595 114.973 126.494
125.504 114.821 127.653
126.992 114.87 127.881
128.033 115.285 126.702
128.118 116.428 126.167
123.485 117.485 126.042
124.212 116.303 126.734
127.968 117.966 126.498
123.248 118.84 126.339
124.09 117.763 127.189
127.674 119.537 126.582
122.901 120.277 126.675
123.959 119.35 127.333
127.546 121.152 126.653
122.775 121.824 126.753
123.645 120.936 127.603
127.378 122.622 126.867
122.474 123.336 126.801
123.465 122.556 127.497
127.006 123.989 127.009
122.286 124.565 126.722
123.241 124.207 127.46
126.796 125.318 127.145
123.249 125.692 127.506
126.64 126.974 127.147
123.468 126.836 127.602
123.736 128.138 127.474
125.188 128.228 127.551
124.529 127.018 127.661
126.321 128.12 127.226
125.729 126.947 127.7
123.629 129.447 127.058
124.863 129.382 127.219
126.195 129.312 126.96
123.657 130.574 126.985
124.689 130.542 127.114
125.863 130.5 127.001
126.308 110.136 126.039
127.163 109.228 126.542
128.244 109.042 125.961
126.298 111.358 126.797
127.2 110.603 127.183
128.355 110.17 126.688
126.161 112.446 127.429
127.122 111.89 127.765
128.259 111.381 127.2
125.294 116.169 127.583
126.426 116.114 128.124
127.574 116.039 127.52
125.07 117.412 127.89
126.423 117.46 128.227
127.539 117.191 127.48
124.921 118.844 128.162
126.29 118.852 128.391
127.361 118.672 127.634
124.782 120.296 128.132
126.095 120.238 128.391
127.176 120.077 127.69
124.432 121.882 128.172
125.709 121.611 128.353
126.898 121.467 127.781
124.219 123.439 128.106
125.423 123.114 128.235
126.484 122.833 127.813
124.122 124.875 127.926
125.197 124.527 128.083
126.23 124.238 127.806
124.111 125.942 127.706
124.976 125.788 127.92
126.078 125.697 127.796
POLYGONS 1936  7744
3 0 1 2
3 0 3 4
3 2 3 0
3 4 5 6
3 3 5 4
3 5 7 6
3 8 1 0
3 9 1 8
3 4 10 0
3 10 8 0
3 6 11 4
3 11 10 4
3 12 6 7
3 11 6 12
3 8 13 9
3 10 13 8
3 14 13 10
3 11 14 10
3 15 14 11
3 12 15 11
3 16 17 18
3 16 19 20
3 18 19 16
3 20 21 22
3 19 21 20
3 21 23 22
3 24 17 16
3 25 17 24
3 20 26 16
3 26 24 16
3 22 27 20
3 27 26 20
3 28 22 23
3 28 29 22
3 29 27 22
3 28 30 29
3 31 25 24
3 32 25 31
3 26 33 24
3 33 31 24
3 27 34 26
3 34 33 26
3 29 35 27
3 35 34 27
3 36 29 30
3 35 29 36
3 31 37 32
3 37 38 39
3 37 31 38
3 31 33 38
3 34 40 33
3 40 38 33
3 35 41 34
3 41 40 34
3 42 35 36
3 41 35 42
3 38 43 39
3 40 43 38
3 44 43 40
3 44 45 46
3 44 40 45
3 40 41 45
3 47 41 42
3 47 48 41
3 48 45 41
3 48 49 50
3 47 49 48
3 49 51 50
3 52 46 45
3 53 46 52
3 48 54 45
3 54 52 45
3 50 55 48
3 55 54 48
3 56 50 51
3 55 50 56
3 57 58 59
3 53 57 59
3 52 57 53
3 52 1 57
3 52 2 1
3 3 2 52
3 54 3 52
3 5 3 54
3 55 5 54
3 55 7 5
3 55 56 7
3 56 60 7
3 61 58 57
3 62 58 61
3 1 9 61
3 57 1 61
3 7 60 12
3 60 63 12
3 61 64 62
3 9 64 61
3 9 13 64
3 13 65 64
3 14 66 13
3 13 66 65
3 15 67 14
3 14 67 66
3 63 15 12
3 67 15 63
3 68 69 70
3 68 71 72
3 70 71 68
3 71 73 72
3 74 69 68
3 75 69 74
3 18 17 74
3 18 74 72
3 72 74 68
3 72 73 76
3 72 76 18
3 18 76 19
3 21 19 77
3 19 76 77
3 77 23 21
3 78 23 77
3 79 75 74
3 80 75 79
3 17 25 79
3 74 17 79
3 23 78 81
3 28 23 81
3 81 30 28
3 82 30 81
3 83 80 79
3 84 80 83
3 25 32 83
3 79 25 83
3 85 86 36
3 85 36 82
3 82 36 30
3 85 87 86
3 83 88 84
3 89 90 88
3 37 89 88
3 37 88 83
3 37 83 32
3 37 39 89
3 86 91 42
3 36 86 42
3 92 86 87
3 91 86 92
3 89 93 90
3 94 95 93
3 43 94 93
3 43 93 89
3 43 89 39
3 43 44 96
3 94 43 96
3 44 46 96
3 42 91 47
3 91 92 97
3 91 97 47
3 47 97 49
3 97 51 49
3 98 51 97
3 99 95 94
3 100 95 99
3 96 101 94
3 101 99 94
3 46 53 101
3 96 46 101
3 51 98 56
3 98 102 56
3 99 103 100
3 59 58 104
3 59 104 99
3 59 99 101
3 99 104 103
3 53 59 101
3 56 102 60
3 102 105 60
3 58 62 104
3 104 62 106
3 60 105 63
3 105 107 63
3 62 108 106
3 64 108 62
3 109 110 108
3 109 108 65
3 65 108 64
3 65 66 111
3 109 65 111
3 66 67 112
3 111 66 112
3 67 113 112
3 67 63 113
3 63 107 113
3 109 114 110
3 111 114 109
3 115 114 111
3 112 115 111
3 116 115 112
3 113 116 112
3 70 117 118
3 69 117 70
3 71 70 119
3 70 118 119
3 73 120 121
3 73 71 120
3 71 119 120
3 120 122 121
3 69 75 117
3 117 75 123
3 73 121 76
3 121 122 124
3 121 124 76
3 76 124 77
3 124 78 77
3 125 78 124
3 75 80 123
3 123 80 126
3 78 125 127
3 81 78 127
3 127 82 81
3 128 82 127
3 80 84 126
3 126 84 129
3 82 128 130
3 85 82 130
3 130 87 85
3 131 87 130
3 132 84 88
3 132 133 84
3 133 129 84
3 88 90 132
3 87 131 92
3 131 134 92
3 135 133 132
3 136 133 135
3 90 93 137
3 90 137 132
3 132 137 135
3 93 95 137
3 92 134 138
3 97 92 138
3 138 98 97
3 139 98 138
3 135 140 136
3 140 141 142
3 140 135 141
3 135 137 141
3 95 100 141
3 137 95 141
3 98 139 102
3 139 143 102
3 141 144 142
3 145 146 144
3 103 145 144
3 103 144 141
3 103 141 100
3 103 104 145
3 147 148 105
3 147 105 143
3 143 105 102
3 147 149 148
3 150 146 145
3 151 146 150
3 104 106 150
3 145 104 150
3 148 152 107
3 105 148 107
3 153 148 149
3 152 148 153
3 150 154 151
3 106 154 150
3 106 108 154
3 108 155 154
3 155 108 110
3 156 155 110
3 152 157 113
3 107 152 113
3 158 152 153
3 157 152 158
3 110 159 156
3 114 159 110
3 115 160 114
3 114 160 159
3 116 161 115
3 115 161 160
3 157 116 113
3 157 162 116
3 162 161 116
3 158 162 157
3 163 164 165
3 163 166 167
3 165 166 163
3 167 168 169
3 166 168 167
3 168 170 169
3 118 164 163
3 118 117 164
3 117 171 164
3 119 118 163
3 167 119 163
3 120 119 167
3 169 120 167
3 169 122 120
3 169 170 122
3 170 172 122
3 117 123 171
3 171 123 173
3 122 172 174
3 124 122 174
3 174 125 124
3 175 125 174
3 123 126 173
3 173 126 176
3 125 175 177
3 127 125 177
3 177 128 127
3 178 128 177
3 126 129 176
3 176 129 179
3 128 178 180
3 130 128 180
3 180 131 130
3 181 131 180
3 129 133 179
3 179 133 182
3 131 181 134
3 181 183 134
3 133 136 182
3 182 136 184
3 134 183 185
3 138 134 185
3 185 139 138
3 186 139 185
3 187 136 140
3 187 188 136
3 188 184 136
3 140 142 187
3 189 190 143
3 189 143 186
3 186 143 139
3 189 191 190
3 187 192 188
3 193 194 192
3 144 193 192
3 144 192 187
3 144 187 142
3 144 146 193
3 143 190 147
3 190 149 147
3 190 191 149
3 191 195 149
3 196 194 193
3 197 194 196
3 146 151 196
3 193 146 196
3 149 195 153
3 195 198 153
3 196 199 197
3 151 199 196
3 151 154 199
3 154 200 199
3 201 202 200
3 201 200 155
3 155 200 154
3 155 156 201
3 153 198 158
3 198 203 158
3 201 204 202
3 156 204 201
3 156 159 204
3 159 205 204
3 160 206 159
3 159 206 205
3 161 207 160
3 160 207 206
3 162 208 161
3 161 208 207
3 203 162 158
3 208 162 203
3 165 209 210
3 164 209 165
3 166 165 211
3 165 210 211
3 168 166 212
3 166 211 212
3 212 170 168
3 213 170 212
3 164 171 209
3 209 171 214
3 170 213 172
3 213 215 172
3 171 173 214
3 214 173 216
3 172 215 217
3 174 172 217
3 217 175 174
3 218 175 217
3 173 176 216
3 216 176 219
3 175 218 220
3 177 175 220
3 220 178 177
3 221 178 220
3 176 179 219
3 219 179 222
3 178 221 223
3 180 178 223
3 223 181 180
3 224 181 223
3 179 182 222
3 222 182 225
3 181 224 183
3 224 226 183
3 182 184 225
3 225 184 227
3 183 226 228
3 185 183 228
3 228 186 185
3 229 186 228
3 184 188 227
3 227 188 230
3 186 229 231
3 189 186 231
3 231 191 189
3 232 191 231
3 188 233 230
3 192 233 188
3 233 192 194
3 234 233 194
3 191 232 195
3 232 235 195
3 194 197 234
3 234 197 236
3 195 235 198
3 235 237 198
3 197 238 236
3 199 238 197
3 200 239 199
3 199 239 238
3 239 200 202
3 240 239 202
3 198 237 203
3 237 241 203
3 202 242 240
3 204 242 202
3 205 243 204
3 204 243 242
3 206 244 205
3 205 244 243
3 207 245 206
3 206 245 244
3 208 246 207
3 207 246 245
3 241 208 203
3 246 208 241
3 247 248 249
3 247 250 251
3 249 250 247
3 251 252 253
3 250 252 251
3 252 254 253
3 210 248 247
3 210 209 248
3 209 255 248
3 211 210 247
3 251 211 247
3 212 211 251
3 253 212 251
3 253 213 212
3 253 254 213
3 254 256 213
3 209 214 255
3 255 214 257
3 213 256 215
3 256 258 215
3 214 216 257
3 257 216 259
3 215 258 260
3 217 215 260
3 260 218 217
3 261 218 260
3 216 219 259
3 259 219 262
3 218 261 263
3 220 218 263
3 263 221 220
3 264 221 263
3 219 222 262
3 262 222 265
3 221 264 266
3 223 221 266
3 266 224 223
3 267 224 266
3 222 225 265
3 265 225 268
3 224 267 226
3 267 269 226
3 225 227 268
3 268 227 270
3 226 269 271
3 228 226 271
3 271 229 228
3 272 229 271
3 227 230 270
3 270 230 273
3 274 231 229
3 274 229 275
3 275 229 272
3 231 274 232
3 230 276 273
3 233 276 230
3 276 233 234
3 277 276 234
3 274 275 278
3 278 232 274
3 278 279 232
3 279 235 232
3 234 236 277
3 277 236 280
3 235 279 237
3 279 281 237
3 236 282 280
3 238 282 236
3 239 283 238
3 238 283 282
3 283 239 240
3 284 283 240
3 237 281 241
3 281 285 241
3 240 286 284
3 242 286 240
3 243 287 242
3 242 287 286
3 244 288 243
3 243 288 287
3 245 289 244
3 244 289 288
3 246 290 245
3 245 290 289
3 285 246 241
3 290 246 285
3 249 291 292
3 248 291 249
3 250 249 293
3 249 292 293
3 252 250 294
3 250 293 294
3 294 254 252
3 295 254 294
3 248 255 291
3 291 255 296
3 297 298 256
3 297 256 295
3 295 256 254
3 297 299 298
3 255 257 296
3 296 257 300
3 298 301 258
3 256 298 258
3 302 298 299
3 301 298 302
3 257 259 300
3 300 259 303
3 258 301 260
3 261 304 305
3 260 304 261
3 260 302 304
3 260 301 302
3 304 306 305
3 259 262 303
3 303 262 307
3 261 305 263
3 305 264 263
3 305 306 264
3 306 308 264
3 262 265 307
3 307 265 309
3 264 308 310
3 266 264 310
3 310 267 266
3 311 267 310
3 265 268 309
3 309 268 312
3 313 314 269
3 313 269 311
3 311 269 267
3 313 315 314
3 268 270 312
3 312 270 316
3 269 314 271
3 314 272 271
3 314 315 272
3 315 317 272
3 270 273 316
3 316 273 318
3 272 317 275
3 317 319 275
3 273 320 318
3 276 320 273
3 320 276 277
3 321 320 277
3 275 319 322
3 278 275 322
3 322 279 278
3 323 279 322
3 277 280 321
3 321 280 324
3 279 323 281
3 323 325 281
3 280 326 324
3 282 326 280
3 283 327 282
3 282 327 326
3 327 283 284
3 328 327 284
3 281 325 285
3 325 329 285
3 284 330 328
3 286 330 284
3 287 331 286
3 286 331 330
3 288 332 287
3 287 332 331
3 289 333 288
3 288 333 332
3 290 334 289
3 289 334 333
3 329 290 285
3 334 290 329
3 335 336 337
3 335 338 339
3 337 338 335
3 338 340 339
3 292 291 341
3 335 342 336
3 335 292 342
3 335 293 292
3 341 342 292
3 294 293 335
3 339 294 335
3 295 343 344
3 294 343 295
3 294 340 343
3 294 339 340
3 343 345 344
3 341 346 347
3 341 291 346
3 291 296 346
3 342 341 347
3 295 344 297
3 344 299 297
3 344 345 299
3 345 348 299
3 296 300 346
3 346 300 349
3 299 348 302
3 348 350 302
3 300 303 349
3 349 303 351
3 302 350 352
3 304 302 352
3 352 306 304
3 353 306 352
3 303 307 351
3 351 307 354
3 355 356 308
3 355 308 353
3 353 308 306
3 355 357 356
3 307 309 354
3 354 309 358
3 308 356 310
3 311 359 360
3 310 359 311
3 310 357 359
3 310 356 357
3 359 361 360
3 309 312 358
3 358 312 362
3 311 360 313
3 360 315 313
3 360 361 315
3 361 363 315
3 312 316 362
3 362 316 364
3 315 363 317
3 363 365 317
3 316 318 364
3 364 318 366
3 317 365 319
3 365 367 319
3 318 368 366
3 320 368 318
3 368 320 321
3 369 368 321
3 370 322 319
3 370 319 371
3 371 319 367
3 322 370 323
3 372 324 373
3 372 369 324
3 369 321 324
3 372 373 374
3 375 370 371
3 376 375 371
3 323 375 325
3 370 375 323
3 324 326 373
3 373 377 374
3 373 326 377
3 326 327 377
3 328 378 379
3 328 379 327
3 327 379 377
3 378 380 381
3 379 378 381
3 380 382 383
3 381 380 383
3 382 384 385
3 383 382 385
3 376 385 384
3 376 384 375
3 375 384 386
3 325 386 329
3 375 386 325
3 328 330 378
3 331 378 330
3 380 378 331
3 332 380 331
3 382 380 332
3 333 382 332
3 384 382 333
3 334 384 333
3 386 384 334
3 329 386 334
3 387 388 389
3 387 390 391
3 389 390 387
3 390 392 391
3 337 388 387
3 337 336 388
3 336 393 388
3 338 337 387
3 391 338 387
3 340 394 395
3 338 394 340
3 338 392 394
3 338 391 392
3 394 396 395
3 336 342 393
3 393 342 397
3 340 395 343
3 395 345 343
3 395 396 345
3 396 398 345
3 347 399 400
3 346 399 347
3 397 342 347
3 400 397 347
3 401 402 348
3 401 348 398
3 398 348 345
3 401 403 402
3 346 349 399
3 399 349 404
3 402 405 350
3 348 402 350
3 406 402 403
3 405 402 406
3 349 351 404
3 404 351 407
3 350 405 352
3 353 408 409
3 352 408 353
3 352 406 408
3 352 405 406
3 408 410 409
3 351 354 407
3 407 354 411
3 353 409 355
3 357 412 413
3 355 412 357
3 355 410 412
3 355 409 410
3 412 414 413
3 354 358 411
3 411 358 415
3 357 413 359
3 413 361 359
3 413 414 361
3 414 416 361
3 358 362 415
3 415 362 417
3 361 416 363
3 416 418 363
3 362 364 417
3 417 364 419
3 420 421 365
3 420 365 418
3 418 365 363
3 420 422 421
3 423 366 424
3 423 419 366
3 419 364 366
3 423 424 425
3 421 426 367
3 365 421 367
3 427 421 422
3 426 421 427
3 366 368 424
3 369 428 429
3 368 369 429
3 368 429 425
3 368 425 424
3 429 428 430
3 426 431 371
3 367 426 371
3 432 426 427
3 431 426 432
3 369 372 428
3 374 433 434
3 372 374 434
3 372 434 430
3 372 430 428
3 434 433 435
3 431 436 437
3 431 437 371
3 371 437 376
3 432 436 431
3 374 377 433
3 433 438 435
3 433 377 438
3 377 379 438
3 381 439 379
3 379 439 438
3 383 440 381
3 381 440 439
3 385 441 383
3 383 441 440
3 437 385 376
3 441 385 437
3 442 443 444
3 442 445 446
3 444 445 442
3 446 447 448
3 445 447 446
3 447 449 448
3 389 443 442
3 389 388 443
3 388 450 443
3 390 389 442
3 446 390 442
3 392 390 446
3 392 446 451
3 451 446 448
3 452 448 449
3 451 448 452
3 388 393 450
3 450 393 453
3 392 451 394
3 396 454 455
3 394 454 396
3 394 452 454
3 394 451 452
3 454 456 455
3 393 397 453
3 453 397 457
3 455 458 398
3 396 455 398
3 459 455 456
3 458 455 459
3 400 460 461
3 399 460 400
3 457 397 400
3 461 457 400
3 398 458 401
3 403 462 463
3 401 462 403
3 401 459 462
3 401 458 459
3 462 464 463
3 399 404 460
3 460 404 465
3 463 466 406
3 403 463 406
3 467 463 464
3 466 463 467
3 404 407 465
3 465 407 468
3 406 466 408
3 410 469 470
3 408 469 410
3 408 467 469
3 408 466 467
3 469 471 470
3 407 411 468
3 468 411 472
3 410 470 412
3 470 414 412
3 470 471 414
3 471 473 414
3 411 415 472
3 472 415 474
3 475 476 416
3 475 416 473
3 473 416 414
3 475 477 476
3 478 417 479
3 478 474 417
3 474 415 417
3 478 479 480
3 476 481 418
3 416 476 418
3 482 476 477
3 481 476 482
3 479 419 483
3 417 419 479
3 484 480 479
3 483 484 479
3 418 481 420
3 481 422 420
3 481 482 422
3 482 485 422
3 419 423 483
3 483 423 425
3 483 425 484
3 484 425 486
3 422 485 427
3 485 487 427
3 425 488 486
3 429 488 425
3 488 429 430
3 489 488 430
3 427 487 432
3 487 490 432
3 430 491 489
3 434 491 430
3 435 492 493
3 435 493 434
3 434 493 491
3 493 492 494
3 436 495 496
3 437 436 496
3 490 436 432
3 495 436 490
3 435 438 492
3 492 497 494
3 492 438 497
3 438 439 497
3 440 498 439
3 439 498 497
3 441 499 440
3 440 499 498
3 496 441 437
3 499 441 496
3 444 500 501
3 443 500 444
3 445 444 502
3 444 501 502
3 447 445 503
3 445 502 503
3 503 449 447
3 504 449 503
3 443 450 500
3 500 450 505
3 506 507 452
3 506 452 504
3 504 452 449
3 506 508 507
3 450 453 505
3 505 453 509
3 452 507 454
3 456 510 511
3 454 510 456
3 454 508 510
3 454 507 508
3 510 512 511
3 453 457 509
3 509 457 513
3 511 514 459
3 456 511 459
3 515 511 512
3 514 511 515
3 461 460 516
3 461 516 517
3 461 517 457
3 457 517 513
3 459 514 462
3 464 518 519
3 462 518 464
3 462 515 518
3 462 514 515
3 518 520 519
3 516 521 522
3 516 460 521
3 460 465 521
3 517 516 522
3 519 523 467
3 464 519 467
3 524 519 520
3 523 519 524
3 465 468 521
3 521 468 525
3 467 523 469
3 471 526 527
3 469 526 471
3 469 524 526
3 469 523 524
3 526 528 527
3 468 472 525
3 525 472 529
3 527 530 473
3 471 527 473
3 531 527 528
3 530 527 531
3 532 474 533
3 532 529 474
3 529 472 474
3 532 533 534
3 473 530 475
3 530 477 475
3 530 531 477
3 531 535 477
3 474 478 533
3 533 478 480
3 533 480 534
3 534 480 536
3 477 535 482
3 535 537 482
3 538 484 539
3 538 536 484
3 536 480 484
3 538 539 540
3 482 537 485
3 537 541 485
3 539 486 542
3 484 486 539
3 543 540 539
3 542 543 539
3 485 541 487
3 541 544 487
3 486 488 542
3 489 545 546
3 488 489 546
3 488 546 543
3 488 543 542
3 545 547 548
3 546 545 548
3 548 547 549
3 550 551 552
3 550 544 551
3 550 490 544
3 490 487 544
3 489 491 545
3 493 545 491
3 547 545 493
3 494 553 554
3 493 494 554
3 493 554 549
3 493 549 547
3 553 555 556
3 554 553 556
3 555 557 558
3 556 555 558
3 552 558 557
3 550 552 557
3 550 557 496
3 550 496 495
3 490 550 495
3 494 497 553
3 498 553 497
3 555 553 498
3 499 555 498
3 557 555 499
3 496 557 499
3 559 560 561
3 559 562 563
3 561 562 559
3 563 564 565
3 562 564 563
3 565 566 567
3 564 566 565
3 566 568 567
3 501 560 559
3 501 500 560
3 500 569 560
3 502 501 559
3 563 502 559
3 503 502 563
3 565 503 563
3 504 503 565
3 504 565 570
3 570 565 567
3 571 567 568
3 570 567 571
3 500 505 569
3 569 505 572
3 504 570 506
3 508 573 574
3 506 573 508
3 506 571 573
3 506 570 571
3 573 575 574
3 505 509 572
3 572 509 576
3 508 574 510
3 574 512 510
3 574 575 512
3 575 577 512
3 509 513 576
3 576 513 578
3 579 580 515
3 579 515 577
3 577 515 512
3 579 581 580
3 513 517 578
3 578 517 582
3 515 580 518
3 580 520 518
3 580 581 520
3 581 583 520
3 522 521 584
3 522 584 585
3 522 585 517
3 517 585 582
3 520 583 524
3 583 586 524
3 584 525 587
3 521 525 584
3 588 585 584
3 587 588 584
3 524 586 589
3 526 524 589
3 589 528 526
3 590 528 589
3 587 529 591
3 525 529 587
3 592 588 587
3 591 592 587
3 528 590 531
3 590 593 531
3 529 532 591
3 591 532 534
3 591 534 592
3 592 534 594
3 531 593 535
3 593 595 535
3 596 536 597
3 596 594 536
3 594 534 536
3 597 598 599
3 596 597 599
3 599 598 600
3 535 595 537
3 595 601 537
3 536 538 597
3 540 597 538
3 540 602 597
3 602 598 597
3 603 600 598
3 602 603 598
3 604 605 606
3 604 601 605
3 604 541 601
3 541 537 601
3 602 543 607
3 540 543 602
3 608 603 602
3 608 602 609
3 609 602 607
3 608 609 610
3 611 604 606
3 612 611 606
3 541 611 544
3 604 611 541
3 543 546 607
3 548 607 546
3 609 607 548
3 609 548 549
3 609 549 610
3 610 549 613
3 551 611 612
3 551 612 552
3 552 612 614
3 544 611 551
3 549 615 613
3 554 615 549
3 556 616 554
3 554 616 615
3 558 617 556
3 556 617 616
3 614 558 552
3 617 558 614
3 618 619 620
3 618 621 622
3 620 621 618
3 622 623 624
3 621 623 622
3 623 625 624
3 626 619 618
3 627 619 626
3 622 628 618
3 628 626 618
3 624 629 622
3 629 628 622
3 630 624 625
3 630 631 624
3 631 629 624
3 630 632 631
3 561 633 634
3 560 633 561
3 627 626 562
3 627 562 634
3 634 562 561
3 564 562 626
3 628 564 626
3 566 564 628
3 629 566 628
3 568 566 629
3 568 629 635
3 635 629 631
3 636 631 632
3 636 637 631
3 637 635 631
3 636 638 637
3 560 569 633
3 633 569 639
3 635 640 571
3 568 635 571
3 637 641 635
3 641 640 635
3 642 637 638
3 641 637 642
3 569 572 639
3 639 572 643
3 571 640 573
3 575 573 640
3 575 640 644
3 644 640 641
3 645 641 642
3 644 641 645
3 572 576 643
3 643 576 646
3 644 647 577
3 575 644 577
3 648 644 645
3 647 644 648
3 576 578 646
3 646 578 649
3 577 647 579
3 581 650 651
3 579 650 581
3 579 648 650
3 579 647 648
3 650 652 651
3 578 582 649
3 649 582 653
3 651 654 583
3 581 651 583
3 655 651 652
3 654 651 655
3 582 585 653
3 653 585 656
3 654 657 586
3 583 654 586
3 658 654 655
3 657 654 658
3 585 588 656
3 656 588 659
3 586 657 589
3 657 590 589
3 657 658 590
3 658 660 590
3 661 592 662
3 661 659 592
3 659 588 592
3 661 662 663
3 590 660 593
3 660 664 593
3 662 594 665
3 592 594 662
3 666 663 662
3 665 666 662
3 593 664 595
3 664 667 595
3 594 596 665
3 665 668 666
3 665 596 668
3 596 599 668
3 668 599 600
3 669 668 600
3 595 667 601
3 667 670 601
3 671 603 672
3 671 669 603
3 669 600 603
3 671 672 673
3 605 674 675
3 606 605 675
3 670 605 601
3 674 605 670
3 603 608 672
3 610 676 677
3 608 610 677
3 608 677 673
3 608 673 672
3 676 678 679
3 677 676 679
3 678 680 681
3 679 678 681
3 680 675 681
3 680 612 675
3 612 606 675
3 676 613 682
3 610 613 676
3 678 676 683
3 683 676 682
3 680 678 684
3 684 678 683
3 612 684 614
3 680 684 612
3 613 615 682
3 616 682 615
3 683 682 616
3 617 683 616
3 684 683 617
3 614 684 617
3 685 686 687
3 685 688 689
3 687 688 685
3 689 690 691
3 688 690 689
3 690 692 691
3 620 693 694
3 619 693 620
3 686 685 621
3 686 621 694
3 694 621 620
3 623 621 685
3 689 623 685
3 625 623 689
3 625 689 695
3 695 689 691
3 696 691 692
3 696 697 691
3 697 695 691
3 696 698 697
3 619 627 693
3 693 627 699
3 625 695 630
3 632 630 695
3 632 695 700
3 700 695 697
3 701 697 698
3 700 697 701
3 634 633 702
3 634 702 703
3 634 703 627
3 627 703 699
3 632 700 636
3 700 638 636
3 700 701 638
3 701 704 638
3 702 639 705
3 633 639 702
3 706 703 702
3 705 706 702
3 638 704 642
3 704 707 642
3 705 643 708
3 639 643 705
3 709 706 705
3 708 709 705
3 642 707 645
3 707 710 645
3 708 711 712
3 708 643 711
3 643 646 711
3 709 708 712
3 645 710 648
3 710 713 648
3 646 649 711
3 711 649 714
3 648 713 715
3 650 648 715
3 715 652 650
3 716 652 715
3 717 653 718
3 717 714 653
3 714 649 653
3 717 718 719
3 652 716 655
3 716 720 655
3 718 656 721
3 653 656 718
3 722 719 718
3 721 722 718
3 655 720 658
3 720 723 658
3 721 659 724
3 656 659 721
3 725 722 721
3 724 725 721
3 658 723 660
3 723 726 660
3 659 661 724
3 663 727 728
3 661 663 728
3 661 728 725
3 661 725 724
3 728 727 729
3 660 726 664
3 726 730 664
3 727 666 731
3 663 666 727
3 732 729 727
3 731 732 727
3 664 730 667
3 730 733 667
3 666 668 731
3 669 734 735
3 668 669 735
3 668 735 732
3 668 732 731
3 734 736 737
3 735 734 737
3 736 738 739
3 737 736 739
3 738 740 741
3 739 738 741
3 740 742 743
3 741 740 743
3 742 733 743
3 742 670 733
3 670 667 733
3 669 671 734
3 673 734 671
3 673 744 734
3 744 736 734
3 738 736 745
3 745 736 744
3 740 738 746
3 746 738 745
3 674 746 675
3 674 742 746
3 742 740 746
3 670 742 674
3 673 677 744
3 679 744 677
3 745 744 679
3 681 745 679
3 746 745 681
3 675 746 681
3 747 748 749
3 747 750 751
3 749 750 747
3 751 752 753
3 750 752 751
3 752 754 753
3 755 748 747
3 756 748 755
3 751 757 747
3 757 755 747
3 753 758 751
3 758 757 751
3 759 753 754
3 758 753 759
3 760 756 755
3 761 756 760
3 757 762 755
3 762 760 755
3 758 763 757
3 763 762 757
3 764 758 759
3 763 758 764
3 765 766 767
3 761 765 767
3 761 760 765
3 760 768 765
3 762 769 760
3 769 768 760
3 770 763 771
3 770 769 763
3 769 762 763
3 764 771 763
3 772 766 765
3 773 766 772
3 768 774 765
3 774 772 765
3 769 775 768
3 775 774 768
3 776 769 770
3 775 769 776
3 687 777 778
3 686 777 687
3 773 772 688
3 773 688 778
3 778 688 687
3 690 688 772
3 774 690 772
3 692 690 774
3 692 774 779
3 779 774 775
3 780 775 776
3 779 775 780
3 694 781 782
3 693 781 694
3 777 686 694
3 782 777 694
3 692 779 696
3 779 698 696
3 779 780 698
3 780 783 698
3 693 699 781
3 781 699 784
3 698 783 701
3 783 785 701
3 699 703 784
3 784 703 786
3 701 785 704
3 785 787 704
3 703 706 786
3 786 706 788
3 704 787 707
3 787 789 707
3 706 709 788
3 788 709 790
3 707 789 710
3 789 791 710
3 712 711 792
3 712 792 793
3 712 793 709
3 709 793 790
3 710 791 713
3 791 794 713
3 792 714 795
3 711 714 792
3 796 793 792
3 795 796 792
3 713 794 797
3 715 713 797
3 797 716 715
3 798 716 797
3 714 717 795
3 719 799 800
3 717 719 800
3 717 800 796
3 717 796 795
3 800 799 801
3 716 798 720
3 798 802 720
3 799 722 803
3 719 722 799
3 804 801 799
3 803 804 799
3 720 802 723
3 802 805 723
3 803 725 806
3 722 725 803
3 807 804 803
3 806 807 803
3 808 809 810
3 808 805 809
3 808 726 805
3 726 723 805
3 725 728 806
3 729 811 812
3 728 729 812
3 728 812 807
3 728 807 806
3 812 811 813
3 814 808 810
3 815 814 810
3 726 814 730
3 808 814 726
3 811 732 816
3 729 732 811
3 817 813 811
3 817 811 818
3 818 811 816
3 818 819 820
3 817 818 820
3 819 821 822
3 820 819 822
3 815 822 821
3 815 821 814
3 814 821 823
3 730 823 733
3 814 823 730
3 732 735 816
3 737 816 735
3 818 816 737
3 739 818 737
3 819 818 739
3 741 819 739
3 821 819 741
3 743 821 741
3 823 821 743
3 733 823 743
3 749 824 825
3 748 824 749
3 750 749 826
3 749 825 826
3 752 750 827
3 750 826 827
3 827 754 752
3 828 754 827
3 748 756 824
3 824 756 829
3 754 828 759
3 828 830 759
3 756 761 829
3 829 761 831
3 759 830 764
3 830 832 764
3 767 833 834
3 766 833 767
3 831 761 767
3 834 831 767
3 771 835 836
3 770 771 836
3 832 771 764
3 835 771 832
3 766 773 833
3 833 773 837
3 770 836 776
3 836 838 776
3 778 839 840
3 777 839 778
3 837 773 778
3 840 837 778
3 776 838 780
3 838 841 780
3 782 781 842
3 782 842 843
3 782 843 777
3 777 843 839
3 780 841 783
3 841 844 783
3 842 784 845
3 781 784 842
3 846 843 842
3 845 846 842
3 783 844 785
3 844 847 785
3 845 786 848
3 784 786 845
3 849 846 845
3 848 849 845
3 785 847 787
3 847 850 787
3 848 788 851
3 786 788 848
3 852 849 848
3 851 852 848
3 787 850 789
3 850 853 789
3 851 790 854
3 788 790 851
3 855 852 851
3 854 855 851
3 789 853 791
3 853 856 791
3 854 793 857
3 790 793 854
3 858 855 854
3 858 854 859
3 859 854 857
3 858 859 860
3 791 856 794
3 856 861 794
3 857 796 862
3 793 796 857
3 859 857 863
3 863 857 862
3 864 860 859
3 863 864 859
3 865 797 794
3 865 794 866
3 866 794 861
3 797 865 798
3 796 800 862
3 801 862 800
3 801 867 862
3 867 863 862
3 868 864 863
3 867 868 863
3 869 865 866
3 870 869 866
3 798 869 802
3 865 869 798
3 867 804 871
3 801 804 867
3 872 868 867
3 871 872 867
3 873 869 870
3 874 873 870
3 802 873 805
3 869 873 802
3 871 807 875
3 804 807 871
3 876 872 871
3 876 871 877
3 877 871 875
3 877 878 879
3 876 877 879
3 878 880 881
3 879 878 881
3 874 881 880
3 873 874 880
3 873 880 810
3 873 810 809
3 805 873 809
3 807 812 875
3 813 875 812
3 813 882 875
3 882 877 875
3 878 877 883
3 883 877 882
3 880 878 884
3 884 878 883
3 810 884 815
3 880 884 810
3 813 817 882
3 820 882 817
3 883 882 820
3 822 883 820
3 884 883 822
3 815 884 822
3 825 885 886
3 824 885 825
3 826 825 887
3 825 886 887
3 827 826 888
3 826 887 888
3 888 828 827
3 889 828 888
3 824 829 885
3 885 829 890
3 828 889 830
3 889 891 830
3 829 831 890
3 890 831 892
3 830 891 832
3 891 893 832
3 834 833 894
3 895 892 831
3 895 831 894
3 895 894 896
3 894 831 834
3 896 897 898
3 895 896 898
3 897 836 835
3 897 835 898
3 898 835 899
3 893 835 832
3 899 835 893
3 894 900 901
3 894 833 900
3 833 837 900
3 896 894 901
3 902 896 901
3 897 896 902
3 903 897 902
3 903 836 897
3 903 904 836
3 904 838 836
3 840 839 905
3 840 905 906
3 840 906 837
3 837 906 900
3 838 904 841
3 904 907 841
3 905 843 908
3 839 843 905
3 909 906 905
3 908 909 905
3 841 907 844
3 907 910 844
3 908 846 911
3 843 846 908
3 912 909 908
3 911 912 908
3 844 910 847
3 910 913 847
3 911 849 914
3 846 849 911
3 915 912 911
3 914 915 911
3 847 913 850
3 913 916 850
3 914 852 917
3 849 852 914
3 918 915 914
3 917 918 914
3 850 916 853
3 916 919 853
3 917 855 920
3 852 855 917
3 921 918 917
3 920 921 917
3 853 919 856
3 919 922 856
3 855 858 920
3 920 858 860
3 920 860 921
3 921 860 923
3 856 922 861
3 922 924 861
3 925 864 926
3 925 923 864
3 923 860 864
3 926 927 928
3 925 926 928
3 927 929 930
3 928 927 930
3 929 924 930
3 929 866 924
3 866 861 924
3 926 868 931
3 864 868 926
3 927 926 932
3 932 926 931
3 929 927 933
3 933 927 932
3 866 933 870
3 929 933 866
3 931 872 934
3 868 872 931
3 932 931 935
3 935 931 934
3 933 932 936
3 936 932 935
3 870 936 874
3 933 936 870
3 872 876 934
3 879 934 876
3 935 934 879
3 881 935 879
3 936 935 881
3 874 936 881
3 886 885 937
3 886 938 887
3 937 938 886
3 887 939 888
3 938 939 887
3 888 939 889
3 937 890 940
3 885 890 937
3 938 937 941
3 941 937 940
3 939 938 942
3 942 938 941
3 889 942 891
3 939 942 889
3 940 892 943
3 890 892 940
3 941 940 944
3 944 940 943
3 942 941 945
3 945 941 944
3 891 945 893
3 942 945 891
3 892 895 943
3 898 943 895
3 944 943 898
3 899 944 898
3 945 944 899
3 893 945 899
3 901 900 946
3 901 947 902
3 946 947 901
3 902 948 903
3 947 948 902
3 903 948 904
3 946 906 949
3 900 906 946
3 947 946 950
3 950 946 949
3 948 947 951
3 951 947 950
3 904 951 907
3 948 951 904
3 949 909 952
3 906 909 949
3 950 949 953
3 953 949 952
3 951 950 954
3 954 950 953
3 907 954 910
3 951 954 907
3 952 912 955
3 909 912 952
3 953 952 956
3 956 952 955
3 954 953 957
3 957 953 956
3 910 957 913
3 954 957 910
3 955 915 958
3 912 915 955
3 956 955 959
3 959 955 958
3 957 956 960
3 960 956 959
3 913 960 916
3 957 960 913
3 958 918 961
3 915 918 958
3 959 958 962
3 962 958 961
3 960 959 963
3 963 959 962
3 916 963 919
3 960 963 916
3 961 921 964
3 918 921 961
3 962 961 965
3 965 961 964
3 963 962 966
3 966 962 965
3 919 966 922
3 963 966 919
3 964 923 967
3 921 923 964
3 965 964 968
3 968 964 967
3 966 965 969
3 969 965 968
3 922 969 924
3 966 969 922
3 923 925 967
3 928 967 925
3 968 967 928
3 930 968 928
3 969 968 930
3 924 969 930
