# vtk DataFile Version 3.0
this file was written using fslvtkio
ASCII
DATASET POLYDATA
POINTS 642 float
111.187 117.451 110.064
96.2382 111.784 107.836
92.6664 97.8685 102.231
108.789 102.96 106.229
106.333 107.043 116.125
109.319 110.535 100.155
98.992 107.167 99.1678
95.6994 104.057 114.938
101.381 119.031 115.934
100.722 95.638 107.881
101.553 96.0687 96.7908
104.435 122.237 104.056
97.97 112.083 117.24
104.125 113.447 117.559
100.524 105.019 117.205
97.354 98.4069 112.809
103.788 100.348 113.036
102.584 114.919 102.373
104.275 108.977 99.4581
108.616 118.974 101.204
99.1574 100.689 96.8597
105.216 102.571 99.5012
108.574 104.6 111.555
109.111 113.211 114.423
111.531 110.418 108.139
110.304 106.223 102.599
111.531 116.729 104.246
95.2086 108.557 112.101
93.2458 99.6846 109.356
93.879 104.275 105.084
97.565 110.183 103.239
95.2583 101.456 99.4685
109.42 123.456 106.587
107.268 120.157 113.704
102.898 122.726 110.492
99.9452 117.959 106.902
97.3582 116.645 112.738
106.327 97.4681 101.3
99.4796 93.3854 101.234
105.908 96.8633 107.21
94.5315 95.5696 95.8831
95.2908 94.9787 104.64
100.972 113.039 118.148
102.36 109.192 117.924
99.1306 108.427 118.021
103.519 105.917 116.887
105.443 110.419 117.372
102.994 116.549 117.095
99.4244 115.689 116.964
96.8072 108.104 116.503
97.7789 103.996 116.73
98.9801 101.301 115.623
102.391 102.648 115.631
100.632 99.1417 113.356
105.293 103.527 114.649
95.9481 100.569 114.23
99.153 97.1436 110.411
102.514 97.875 110.632
103.644 112.26 100.726
106.683 114.33 100.472
105.373 117.247 101.26
109.131 114.884 100.388
106.815 109.91 99.901
101.672 108.144 99.1407
100.927 110.83 101.314
103.541 118.725 103.051
106.498 121.182 101.965
102.292 101.456 97.6606
104.883 105.943 99.0119
101.807 104.791 97.8484
107.52 106.3 99.8943
103.896 99.1488 97.7314
100.268 98.2848 95.7632
99.1756 104.08 97.7713
109.342 108.886 113.244
110.924 111.619 111.523
110.586 107.397 110.257
111.501 113.928 109.064
110.445 115.259 112.475
107.964 110.161 115.662
107.735 105.549 113.971
108.888 103.633 108.884
111.003 106.63 107.346
111.225 108.572 105.282
111.592 113.497 106.12
111.209 111.528 103.434
111.558 117.389 107.026
109.885 104.372 104.464
110.277 108.312 101.043
110.911 113.757 101.86
94.1575 104.048 110.869
93.2832 102.182 107.459
94.7308 106.183 108.769
93.2057 101.027 103.858
92.8321 98.6866 105.956
94.1425 101.82 112.353
95.2495 106.656 113.855
95.5564 110.122 109.893
95.4274 107.705 106.522
95.6252 106.905 103.971
94.0477 102.793 102.027
95.685 105.772 101.015
93.3975 99.3581 100.082
96.7308 111.003 105.316
98.4038 108.603 101.478
96.6958 104.503 98.7439
108.794 122.092 110.438
105.214 122.373 112.398
106.444 123.842 107.955
101.695 121.46 113.717
104.456 119.702 115.243
109.869 118.995 112.294
110.9 120.661 108.684
107.426 123.962 103.91
103.648 122.92 106.926
101.179 121.098 108.603
99.6888 120.366 112.056
98.5062 117.646 109.797
98.6245 118.18 114.923
102.137 119.946 105.409
97.7897 114.905 107.28
96.7553 114.205 110.333
103.666 94.209 100.956
103.135 94.4391 104.061
106.6 96.3705 103.955
103.446 95.9751 107.704
100.268 94.2595 104.591
100.855 94.0292 98.6359
104.361 96.6063 98.8014
107.591 100.308 104.014
107.501 99.4314 106.721
94.1572 94.2476 99.8104
97.2338 93.7684 102.995
96.9195 93.7195 98.3483
97.901 95.1951 106.707
93.4511 95.9611 103.422
92.8545 96.4773 98.5511
98.0274 95.3405 95.9878
107.017 113.535 116.634
105.973 117.109 116.168
108.679 117.052 114.559
110.974 120.483 105.538
109.444 122.357 103.152
110.678 117.635 102
105.118 98.542 110.103
106.379 101.991 112.297
107.303 100.688 109.312
108.048 102.079 102.452
108.359 104.383 100.746
106.004 99.9673 100.138
97.0909 114.717 115.307
95.9686 110.497 114.998
95.9533 112.742 112.447
98.5256 114.269 105.038
99.7482 112.681 102.65
101.089 116.635 104.307
94.2157 97.0556 107.14
94.7597 98.7199 111.629
96.5576 96.6195 109.028
96.9892 97.8852 95.1723
96.8323 100.787 97.755
93.7003 98.5607 96.7479
101.576 111.075 118.209
100.741 109.009 118.183
100.052 110.72 118.35
99.9197 106.901 117.862
101.29 107.257 117.741
103.017 111.324 117.922
102.485 112.937 117.958
99.4445 112.305 117.985
98.6933 110.388 117.906
102.819 107.486 117.557
103.848 109.856 117.726
104.362 108.13 117.379
104.591 111.825 117.598
101.942 105.621 117.18
104.928 106.6 116.683
105.731 108.572 116.96
102.054 114.67 117.818
100.056 114.288 117.905
101.172 116.013 117.416
98.669 113.883 117.324
103.555 114.945 117.384
102.077 117.754 116.781
100.412 117.322 116.715
97.894 108.423 117.468
98.4896 106.294 117.672
97.2619 106.099 116.908
99.1418 104.792 117.23
97.3806 110.162 117.133
96.2765 106.033 115.956
96.6912 104.172 116.034
100.702 101.928 115.728
101.472 100.774 114.669
99.8633 100.181 114.579
102.185 99.9013 113.483
102.914 101.31 114.46
101.424 103.718 116.527
99.8145 103.114 116.467
98.2232 99.7048 114.468
98.9829 98.8352 113.395
103.856 102.902 115.152
102.952 104.303 116.432
104.645 104.776 115.96
104.388 101.797 113.958
105.862 105.313 115.562
98.4935 102.689 116.397
97.426 100.789 115.176
96.8348 102.335 115.72
96.7021 99.3808 113.79
95.8142 102.303 114.741
99.7846 98.1441 112.065
101.67 98.6207 112.162
100.838 97.6067 110.685
103.059 99.0848 112.04
98.2756 97.7862 111.73
100.111 96.4004 109.338
101.618 96.6714 109.5
105.117 113.321 100.61
106.075 115.78 100.82
104.591 114.816 101.091
106.944 117.891 100.992
107.581 116.669 100.67
105.517 111.933 100.134
104.243 110.992 100.081
103.3 113.841 101.402
103.98 115.918 101.708
107.886 114.822 100.441
106.694 112.095 100.18
107.99 112.465 100.08
105.592 110.006 99.8045
108.927 117.088 100.769
109.131 112.575 100.143
108.036 110.332 99.9551
102.889 110.193 100.097
102.355 111.737 101.109
101.393 109.575 100.203
101.852 113.017 101.821
103.087 108.676 99.3116
100.352 107.733 99.1052
100.097 108.929 100.335
104.332 117.932 101.988
105.98 119.155 101.412
104.839 119.993 102.085
107.454 119.861 101.384
103.167 116.836 102.629
103.992 120.516 103.306
105.183 121.744 102.682
103.616 103.717 98.3194
103.376 105.336 98.3855
102.105 103.215 97.7631
103.047 106.813 98.5225
104.553 107.481 99.0924
104.855 104.051 99.0029
103.791 102.27 98.5435
100.858 101.302 97.1512
100.624 102.731 97.4616
105.79 108.15 99.573
106.06 106.004 99.4775
107.248 108.143 99.8169
106.288 104.43 99.6241
108.515 108.459 100.026
103.034 100.413 97.7221
101.361 100.009 96.5607
102.304 98.9005 96.4187
99.7609 99.6759 96.1121
104.306 100.891 98.7053
102.915 97.6916 96.9947
101.185 97.2797 96.1743
100.613 104.554 97.7509
101.937 106.811 98.4057
100.383 106.406 98.1667
99.3224 102.439 97.5035
98.9859 105.671 98.197
110.224 110.232 112.45
110.884 109.53 110.969
110.075 108.135 111.808
111.24 108.973 109.515
111.333 110.637 109.97
110.066 112.087 112.983
109.427 111.014 113.684
109.23 106.847 112.41
109.648 106.236 111.142
111.386 112.534 110.352
110.698 113.371 112.183
111.225 114.318 110.898
109.802 114.087 113.511
111.533 112.042 108.801
111.363 115.577 109.633
111.03 116.071 111.221
108.715 109.695 114.416
108.635 107.241 113.669
107.991 107.902 114.977
108.274 105.182 112.772
108.608 111.757 114.975
107.116 108.582 116.051
107.136 106.265 115.132
109.85 105.521 109.734
111.007 107.061 108.884
110.012 105.12 108.202
111.371 108.58 107.937
108.888 104.261 110.317
108.938 103.422 107.499
110.156 104.839 106.797
111.524 111.031 105.811
111.495 112.426 104.788
111.206 110.007 104.409
111.514 113.942 103.948
111.585 114.761 105.018
111.571 111.797 107.031
111.464 109.743 106.659
110.812 107.724 103.864
110.887 109.082 103.184
111.493 115.355 106.419
111.62 113.457 107.623
111.493 115.533 108.013
111.627 116.927 105.55
111.402 117.21 108.591
111.249 107.79 106.469
110.803 106.576 104.791
110.688 105.645 105.816
110.235 105.386 103.561
109.495 103.843 105.468
110.77 109.908 102.234
111.138 112.8 102.755
110.624 111.173 101.449
111.352 115.289 103.147
110.407 107.542 101.982
109.955 109.542 100.524
110.225 112.143 100.781
93.6994 103.092 109.177
93.9117 104.179 108.079
94.3589 105.102 109.774
94.1558 105.028 107.059
93.5351 103.457 106.5
93.1295 101.213 108.611
93.5681 101.986 110.05
94.6963 106.133 111.28
94.8457 107.058 110.415
93.0274 101.77 105.789
92.8808 100.483 106.887
92.8767 100.024 105.066
92.9939 99.3928 107.767
93.3486 102.71 104.682
92.8633 99.4909 103.198
92.7116 98.4301 104.149
94.0468 102.769 111.524
94.6245 105.309 112.277
94.7055 104.256 113.14
95.0579 107.432 112.838
93.5486 100.703 110.798
94.9058 103.093 113.723
95.4951 105.453 114.522
95.2095 108.079 109.497
94.9541 106.757 107.585
95.4051 108.803 108.217
94.5931 105.882 105.998
95.3488 109.202 111.01
95.7877 110.657 108.659
95.7461 109.602 107.145
94.4428 104.923 102.987
94.6222 104.385 101.502
95.549 106.264 102.551
95.1885 103.905 100.188
94.6713 102.406 100.727
93.7824 103.629 103.472
94.6165 105.513 104.412
96.5116 108.268 103.346
96.5217 107.518 102.206
94.1093 101.051 101.213
93.5637 101.952 103.03
93.4342 100.114 102.032
94.2977 100.447 99.7259
92.9174 98.6712 101.258
95.379 107.029 105.275
96.4403 108.655 104.589
96.0689 109.315 105.864
97.1027 110.435 104.19
96.3977 111.226 106.578
97.0569 107.156 101.233
96.1022 105.295 99.8034
97.3715 106.754 99.8288
95.8612 103.175 99.2565
97.7212 109.138 102.282
98.8005 107.901 100.367
97.6957 105.93 98.6875
107.058 122.581 111.091
106.075 123.247 110.276
107.595 123.25 109.374
104.868 123.375 109.415
104.313 122.879 111.295
106.402 121.564 112.865
107.899 121.38 112.036
109.072 122.938 108.639
108.053 123.944 107.355
103.531 122.163 113.119
104.852 121.239 113.971
103.097 120.995 114.77
105.95 120.124 114.442
102.393 122.317 112.159
101.39 120.338 114.987
102.976 119.387 115.802
109.276 120.63 111.569
110.112 121.639 109.791
110.648 119.715 110.636
110.195 122.222 107.98
108.53 119.942 112.909
110.735 118.016 111.376
111.161 119.018 109.4
106.899 124.21 105.979
105.058 123.521 107.429
105.432 123.708 105.341
103.503 123.027 108.766
108.446 124.152 105.301
105.661 123.402 103.795
103.786 122.536 105.545
100.399 120.878 110.335
99.1385 119.298 110.804
99.7903 119.581 109.401
97.9668 117.503 111.2
98.4676 118.607 112.227
101.125 121.787 111.383
101.865 122.15 109.573
100.369 119.462 107.983
99.2666 118.083 108.465
99.0452 119.369 113.386
100.721 121.179 112.877
100.121 119.933 114.45
97.9123 117.729 113.692
99.8972 118.656 115.638
102.351 122.239 107.929
101.52 120.451 107.151
102.674 121.571 106.215
100.964 119.091 106.33
103.323 121 104.664
98.2493 116.308 108.521
97.5521 116.021 110.079
97.1803 114.52 108.719
97.0365 115.679 111.511
98.9062 116.634 107.284
96.8922 113.325 107.518
96.4301 112.981 109.08
103.587 94.1122 102.573
105.052 95.1146 103.936
105.425 94.9744 102.381
106.006 96.1943 105.449
104.628 95.3424 105.408
101.625 93.726 102.654
101.763 93.6953 101.271
105.274 95.3495 100.954
106.457 96.5803 102.42
103.366 95.0303 105.989
101.732 94.334 104.28
101.865 94.8898 106.37
99.9766 93.6431 102.869
104.702 96.1361 107.21
102.095 95.8387 107.98
100.336 94.7212 106.344
102.411 94.0062 99.8105
104.229 95.1121 99.5761
102.746 94.8988 98.2391
105.395 96.7132 100.096
100.32 93.6335 99.9695
101.206 94.8203 97.3137
103.202 96.5344 97.6701
107.281 98.1543 103.866
107.279 97.6272 105.356
107.64 99.8659 105.391
106.961 97.714 106.777
107.069 98.6283 102.689
108.12 101.704 105.18
107.989 101.374 106.654
95.7164 93.6421 101.232
96.9405 93.3366 100.571
95.3965 93.746 98.9714
98.1892 93.4324 99.7913
98.2677 93.4454 102.085
95.9345 94.2394 103.33
94.721 94.305 101.922
94.0539 94.4772 97.6993
95.5384 94.2854 97.0152
98.9947 93.9385 103.749
97.3311 94.3464 104.594
98.9293 94.5151 105.782
96.5455 94.961 105.66
99.3359 95.4212 107.481
93.7017 94.9759 101.54
93.2463 95.0824 99.0212
92.8817 95.9367 100.92
93.3427 95.8451 96.9927
94.3145 95.197 103.647
92.9693 96.8903 102.973
92.6149 97.1018 100.45
97.4165 94.2139 97.2254
99.1904 93.7704 98.8047
99.5218 94.4626 97.2302
96.2949 95.273 95.9212
99.7732 95.6473 96.3101
106.558 115.407 116.577
107.418 117.195 115.503
107.868 115.416 115.771
108.04 118.743 114.287
106.759 118.766 115.147
105.14 115.255 116.939
105.649 113.611 117.234
108.158 113.626 115.64
108.844 115.115 114.745
105.417 118.572 115.615
104.543 116.651 116.667
103.706 118.17 116.298
106.219 112.085 117.135
107.686 111.919 116.126
106.786 110.111 116.657
109.581 116.001 113.707
109.221 118.228 113.482
110.251 117.072 112.454
110.256 121.521 104.428
110.233 120.243 102.752
110.843 119.409 103.724
109.909 118.42 101.447
109.201 120.692 101.922
109.705 123.281 104.879
110.328 122.068 106.346
111.384 118.647 104.797
111.216 117.233 103.065
108.026 121.426 102.095
108.75 123.515 103.604
106.434 122.739 102.744
110.961 120.653 107.149
111.457 118.824 106.188
111.308 118.892 107.975
110.895 115.467 101.89
110.044 116.142 100.875
110.148 113.7 100.585
105.765 100.249 111.229
107.007 101.41 110.851
106.41 99.3717 109.699
107.901 102.642 110.539
107.571 103.076 111.847
105.118 101.016 112.606
104.49 99.5115 111.548
105.75 97.6537 108.759
106.836 98.5668 108.319
107.183 103.78 112.996
105.744 102.569 113.424
106.581 104.459 114.38
103.877 98.2266 110.494
104.603 97.0167 108.802
103.09 96.8024 109.229
107.394 99.8523 107.99
108.04 102.316 109.278
108.018 101.816 107.826
108.353 103.338 101.621
107.015 102.289 100.745
107.127 101.035 101.304
105.687 101.425 99.9195
106.806 103.479 100.198
109.697 105.195 101.53
109.381 104.079 102.575
107.073 99.7597 101.972
106.291 98.7711 100.674
107.966 105.224 100.175
109.642 106.215 100.858
109.031 107.424 100.394
109.054 103.423 103.5
107.66 101.126 103.179
108.418 102.589 104.467
105.508 98.1724 99.4865
105.008 99.8366 99.0622
104.42 97.993 98.1068
96.3642 112.66 115.268
95.8416 111.694 113.774
96.3177 113.785 113.952
95.5481 110.695 112.391
95.4915 109.772 113.545
96.8088 111.398 116.267
97.4183 113.403 116.346
97.0122 115.654 113.993
96.5938 114.673 112.683
95.6116 108.618 114.255
96.3945 109.459 115.931
95.8736 107.311 115.268
98.0312 115.159 116.356
97.6884 116.532 114.961
99.0037 117.07 116.066
96.2837 113.575 111.402
95.7184 111.26 111.191
96.0041 112.097 109.898
99.1725 113.615 103.809
100.46 114.704 103.544
99.7531 115.53 104.671
101.766 115.694 103.221
101.126 113.813 102.594
98.5203 111.727 102.96
98.0023 112.422 104.043
99.2011 116.13 105.932
100.386 117.283 105.552
100.385 111.891 101.942
98.8139 110.644 102.155
99.5775 109.681 101.312
97.4257 112.491 104.987
98.2097 114.687 106.164
97.0415 112.918 106.297
101.469 118.265 104.995
102.349 117.29 103.676
102.837 119.27 104.186
94.5037 97.7986 109.431
95.6372 97.574 110.277
95.3 96.7291 108.109
96.9166 97.5348 110.96
95.9685 98.3782 112.176
93.837 99.0051 110.489
93.6571 98.2071 108.45
94.7498 95.8687 105.945
95.9212 95.6698 106.984
95.3158 99.5485 113.034
94.0871 100.163 112.003
94.9667 101.509 113.479
93.4731 97.8941 106.751
93.8915 96.3203 105.288
93.1444 97.3623 104.747
97.2054 95.766 107.799
97.8185 96.8844 109.873
98.7629 96.0423 108.651
96.6726 99.4409 96.2106
95.3318 99.6056 97.1303
95.0255 98.3564 95.3564
94.6863 99.8147 98.3158
96.1103 101.263 98.7108
98.0817 100.879 97.4792
97.9721 99.5438 95.899
95.6978 96.6668 95.2118
93.7607 97.0938 95.8969
96.82 102.66 98.3772
98.025 102.565 97.8414
97.8314 104.322 98.0737
98.6798 98.5807 95.3987
97.5088 96.5129 95.4029
99.5568 96.9074 95.7451
93.1146 97.4057 97.5877
93.5865 99.1273 98.5275
92.8715 98.0031 99.6213
POLYGONS 1280  5120
3 164 162 163
3 163 44 164
3 162 43 163
3 164 42 162
3 166 165 163
3 163 43 166
3 165 44 163
3 166 14 165
3 168 167 162
3 162 42 168
3 167 43 162
3 168 13 167
3 170 169 164
3 164 44 170
3 169 42 164
3 170 12 169
3 173 171 172
3 172 46 173
3 171 43 172
3 173 45 171
3 167 174 172
3 172 43 167
3 174 46 172
3 167 13 174
3 175 166 171
3 171 45 175
3 166 43 171
3 175 14 166
3 177 176 173
3 173 46 177
3 176 45 173
3 177 4 176
3 180 178 179
3 179 48 180
3 178 42 179
3 180 47 178
3 169 181 179
3 179 42 169
3 181 48 179
3 169 12 181
3 182 168 178
3 178 47 182
3 168 42 178
3 182 13 168
3 184 183 180
3 180 48 184
3 183 47 180
3 184 8 183
3 187 185 186
3 186 50 187
3 185 44 186
3 187 49 185
3 165 188 186
3 186 44 165
3 188 50 186
3 165 14 188
3 189 170 185
3 185 49 189
3 170 44 185
3 189 12 170
3 191 190 187
3 187 50 191
3 190 49 187
3 191 7 190
3 194 192 193
3 193 53 194
3 192 52 193
3 194 51 192
3 196 195 193
3 193 52 196
3 195 53 193
3 196 16 195
3 198 197 192
3 192 51 198
3 197 52 192
3 198 14 197
3 200 199 194
3 194 53 200
3 199 51 194
3 200 15 199
3 203 201 202
3 202 45 203
3 201 52 202
3 203 54 201
3 197 175 202
3 202 52 197
3 175 45 202
3 197 14 175
3 204 196 201
3 201 54 204
3 196 52 201
3 204 16 196
3 176 205 203
3 203 45 176
3 205 54 203
3 176 4 205
3 208 206 207
3 207 55 208
3 206 51 207
3 208 50 206
3 199 209 207
3 207 51 199
3 209 55 207
3 199 15 209
3 188 198 206
3 206 50 188
3 198 51 206
3 188 14 198
3 210 191 208
3 208 55 210
3 191 50 208
3 210 7 191
3 213 211 212
3 212 57 213
3 211 53 212
3 213 56 211
3 195 214 212
3 212 53 195
3 214 57 212
3 195 16 214
3 215 200 211
3 211 56 215
3 200 53 211
3 215 15 200
3 217 216 213
3 213 57 217
3 216 56 213
3 217 9 216
3 220 218 219
3 219 60 220
3 218 59 219
3 220 58 218
3 222 221 219
3 219 59 222
3 221 60 219
3 222 19 221
3 224 223 218
3 218 58 224
3 223 59 218
3 224 18 223
3 226 225 220
3 220 60 226
3 225 58 220
3 226 17 225
3 229 227 228
3 228 62 229
3 227 59 228
3 229 61 227
3 223 230 228
3 228 59 223
3 230 62 228
3 223 18 230
3 231 222 227
3 227 61 231
3 222 59 227
3 231 19 222
3 233 232 229
3 229 62 233
3 232 61 229
3 233 5 232
3 236 234 235
3 235 64 236
3 234 58 235
3 236 63 234
3 225 237 235
3 235 58 225
3 237 64 235
3 225 17 237
3 238 224 234
3 234 63 238
3 224 58 234
3 238 18 224
3 240 239 236
3 236 64 240
3 239 63 236
3 240 6 239
3 243 241 242
3 242 66 243
3 241 60 242
3 243 65 241
3 221 244 242
3 242 60 221
3 244 66 242
3 221 19 244
3 245 226 241
3 241 65 245
3 226 60 241
3 245 17 226
3 247 246 243
3 243 66 247
3 246 65 243
3 247 11 246
3 250 248 249
3 249 69 250
3 248 68 249
3 250 67 248
3 252 251 249
3 249 68 252
3 251 69 249
3 252 18 251
3 254 253 248
3 248 67 254
3 253 68 248
3 254 21 253
3 256 255 250
3 250 69 256
3 255 67 250
3 256 20 255
3 259 257 258
3 258 70 259
3 257 68 258
3 259 62 257
3 253 260 258
3 258 68 253
3 260 70 258
3 253 21 260
3 230 252 257
3 257 62 230
3 252 68 257
3 230 18 252
3 261 233 259
3 259 70 261
3 233 62 259
3 261 5 233
3 264 262 263
3 263 72 264
3 262 67 263
3 264 71 262
3 255 265 263
3 263 67 255
3 265 72 263
3 255 20 265
3 266 254 262
3 262 71 266
3 254 67 262
3 266 21 254
3 268 267 264
3 264 72 268
3 267 71 264
3 268 10 267
3 271 269 270
3 270 63 271
3 269 69 270
3 271 73 269
3 251 238 270
3 270 69 251
3 238 63 270
3 251 18 238
3 272 256 269
3 269 73 272
3 256 69 269
3 272 20 256
3 239 273 271
3 271 63 239
3 273 73 271
3 239 6 273
3 276 274 275
3 275 76 276
3 274 75 275
3 276 74 274
3 278 277 275
3 275 75 278
3 277 76 275
3 278 24 277
3 280 279 274
3 274 74 280
3 279 75 274
3 280 23 279
3 282 281 276
3 276 76 282
3 281 74 276
3 282 22 281
3 285 283 284
3 284 78 285
3 283 75 284
3 285 77 283
3 279 286 284
3 284 75 279
3 286 78 284
3 279 23 286
3 287 278 283
3 283 77 287
3 278 75 283
3 287 24 278
3 289 288 285
3 285 78 289
3 288 77 285
3 289 0 288
3 292 290 291
3 291 80 292
3 290 74 291
3 292 79 290
3 281 293 291
3 291 74 281
3 293 80 291
3 281 22 293
3 294 280 290
3 290 79 294
3 280 74 290
3 294 23 280
3 296 295 292
3 292 80 296
3 295 79 292
3 296 4 295
3 299 297 298
3 298 82 299
3 297 76 298
3 299 81 297
3 277 300 298
3 298 76 277
3 300 82 298
3 277 24 300
3 301 282 297
3 297 81 301
3 282 76 297
3 301 22 282
3 303 302 299
3 299 82 303
3 302 81 299
3 303 3 302
3 306 304 305
3 305 85 306
3 304 84 305
3 306 83 304
3 308 307 305
3 305 84 308
3 307 85 305
3 308 26 307
3 310 309 304
3 304 83 310
3 309 84 304
3 310 24 309
3 312 311 306
3 306 85 312
3 311 83 306
3 312 25 311
3 315 313 314
3 314 77 315
3 313 84 314
3 315 86 313
3 309 287 314
3 314 84 309
3 287 77 314
3 309 24 287
3 316 308 313
3 313 86 316
3 308 84 313
3 316 26 308
3 288 317 315
3 315 77 288
3 317 86 315
3 288 0 317
3 320 318 319
3 319 87 320
3 318 83 319
3 320 82 318
3 311 321 319
3 319 83 311
3 321 87 319
3 311 25 321
3 300 310 318
3 318 82 300
3 310 83 318
3 300 24 310
3 322 303 320
3 320 87 322
3 303 82 320
3 322 3 303
3 325 323 324
3 324 89 325
3 323 85 324
3 325 88 323
3 307 326 324
3 324 85 307
3 326 89 324
3 307 26 326
3 327 312 323
3 323 88 327
3 312 85 323
3 327 25 312
3 329 328 325
3 325 89 329
3 328 88 325
3 329 5 328
3 332 330 331
3 331 92 332
3 330 91 331
3 332 90 330
3 334 333 331
3 331 91 334
3 333 92 331
3 334 29 333
3 336 335 330
3 330 90 336
3 335 91 330
3 336 28 335
3 338 337 332
3 332 92 338
3 337 90 332
3 338 27 337
3 341 339 340
3 340 94 341
3 339 91 340
3 341 93 339
3 335 342 340
3 340 91 335
3 342 94 340
3 335 28 342
3 343 334 339
3 339 93 343
3 334 91 339
3 343 29 334
3 345 344 341
3 341 94 345
3 344 93 341
3 345 2 344
3 348 346 347
3 347 96 348
3 346 90 347
3 348 95 346
3 337 349 347
3 347 90 337
3 349 96 347
3 337 27 349
3 350 336 346
3 346 95 350
3 336 90 346
3 350 28 336
3 352 351 348
3 348 96 352
3 351 95 348
3 352 7 351
3 355 353 354
3 354 98 355
3 353 92 354
3 355 97 353
3 333 356 354
3 354 92 333
3 356 98 354
3 333 29 356
3 357 338 353
3 353 97 357
3 338 92 353
3 357 27 338
3 359 358 355
3 355 98 359
3 358 97 355
3 359 1 358
3 362 360 361
3 361 101 362
3 360 100 361
3 362 99 360
3 364 363 361
3 361 100 364
3 363 101 361
3 364 31 363
3 366 365 360
3 360 99 366
3 365 100 360
3 366 29 365
3 368 367 362
3 362 101 368
3 367 99 362
3 368 30 367
3 371 369 370
3 370 93 371
3 369 100 370
3 371 102 369
3 365 343 370
3 370 100 365
3 343 93 370
3 365 29 343
3 372 364 369
3 369 102 372
3 364 100 369
3 372 31 364
3 344 373 371
3 371 93 344
3 373 102 371
3 344 2 373
3 376 374 375
3 375 103 376
3 374 99 375
3 376 98 374
3 367 377 375
3 375 99 367
3 377 103 375
3 367 30 377
3 356 366 374
3 374 98 356
3 366 99 374
3 356 29 366
3 378 359 376
3 376 103 378
3 359 98 376
3 378 1 359
3 381 379 380
3 380 105 381
3 379 101 380
3 381 104 379
3 363 382 380
3 380 101 363
3 382 105 380
3 363 31 382
3 383 368 379
3 379 104 383
3 368 101 379
3 383 30 368
3 385 384 381
3 381 105 385
3 384 104 381
3 385 6 384
3 388 386 387
3 387 108 388
3 386 107 387
3 388 106 386
3 390 389 387
3 387 107 390
3 389 108 387
3 390 34 389
3 392 391 386
3 386 106 392
3 391 107 386
3 392 33 391
3 394 393 388
3 388 108 394
3 393 106 388
3 394 32 393
3 397 395 396
3 396 110 397
3 395 107 396
3 397 109 395
3 391 398 396
3 396 107 391
3 398 110 396
3 391 33 398
3 399 390 395
3 395 109 399
3 390 107 395
3 399 34 390
3 401 400 397
3 397 110 401
3 400 109 397
3 401 8 400
3 404 402 403
3 403 112 404
3 402 106 403
3 404 111 402
3 393 405 403
3 403 106 393
3 405 112 403
3 393 32 405
3 406 392 402
3 402 111 406
3 392 106 402
3 406 33 392
3 408 407 404
3 404 112 408
3 407 111 404
3 408 0 407
3 411 409 410
3 410 114 411
3 409 108 410
3 411 113 409
3 389 412 410
3 410 108 389
3 412 114 410
3 389 34 412
3 413 394 409
3 409 113 413
3 394 108 409
3 413 32 394
3 415 414 411
3 411 114 415
3 414 113 411
3 415 11 414
3 418 416 417
3 417 117 418
3 416 116 417
3 418 115 416
3 420 419 417
3 417 116 420
3 419 117 417
3 420 36 419
3 422 421 416
3 416 115 422
3 421 116 416
3 422 34 421
3 424 423 418
3 418 117 424
3 423 115 418
3 424 35 423
3 427 425 426
3 426 109 427
3 425 116 426
3 427 118 425
3 421 399 426
3 426 116 421
3 399 109 426
3 421 34 399
3 428 420 425
3 425 118 428
3 420 116 425
3 428 36 420
3 400 429 427
3 427 109 400
3 429 118 427
3 400 8 429
3 432 430 431
3 431 119 432
3 430 115 431
3 432 114 430
3 423 433 431
3 431 115 423
3 433 119 431
3 423 35 433
3 412 422 430
3 430 114 412
3 422 115 430
3 412 34 422
3 434 415 432
3 432 119 434
3 415 114 432
3 434 11 415
3 437 435 436
3 436 121 437
3 435 117 436
3 437 120 435
3 419 438 436
3 436 117 419
3 438 121 436
3 419 36 438
3 439 424 435
3 435 120 439
3 424 117 435
3 439 35 424
3 441 440 437
3 437 121 441
3 440 120 437
3 441 1 440
3 444 442 443
3 443 124 444
3 442 123 443
3 444 122 442
3 446 445 443
3 443 123 446
3 445 124 443
3 446 39 445
3 448 447 442
3 442 122 448
3 447 123 442
3 448 38 447
3 450 449 444
3 444 124 450
3 449 122 444
3 450 37 449
3 453 451 452
3 452 126 453
3 451 123 452
3 453 125 451
3 447 454 452
3 452 123 447
3 454 126 452
3 447 38 454
3 455 446 451
3 451 125 455
3 446 123 451
3 455 39 446
3 457 456 453
3 453 126 457
3 456 125 453
3 457 9 456
3 460 458 459
3 459 128 460
3 458 122 459
3 460 127 458
3 449 461 459
3 459 122 449
3 461 128 459
3 449 37 461
3 462 448 458
3 458 127 462
3 448 122 458
3 462 38 448
3 464 463 460
3 460 128 464
3 463 127 460
3 464 10 463
3 467 465 466
3 466 130 467
3 465 124 466
3 467 129 465
3 445 468 466
3 466 124 445
3 468 130 466
3 445 39 468
3 469 450 465
3 465 129 469
3 450 124 465
3 469 37 450
3 471 470 467
3 467 130 471
3 470 129 467
3 471 3 470
3 474 472 473
3 473 133 474
3 472 132 473
3 474 131 472
3 476 475 473
3 473 132 476
3 475 133 473
3 476 38 475
3 478 477 472
3 472 131 478
3 477 132 472
3 478 41 477
3 480 479 474
3 474 133 480
3 479 131 474
3 480 40 479
3 483 481 482
3 482 134 483
3 481 132 482
3 483 126 481
3 477 484 482
3 482 132 477
3 484 134 482
3 477 41 484
3 454 476 481
3 481 126 454
3 476 132 481
3 454 38 476
3 485 457 483
3 483 134 485
3 457 126 483
3 485 9 457
3 488 486 487
3 487 136 488
3 486 131 487
3 488 135 486
3 479 489 487
3 487 131 479
3 489 136 487
3 479 40 489
3 490 478 486
3 486 135 490
3 478 131 486
3 490 41 478
3 492 491 488
3 488 136 492
3 491 135 488
3 492 2 491
3 495 493 494
3 494 127 495
3 493 133 494
3 495 137 493
3 475 462 494
3 494 133 475
3 462 127 494
3 475 38 462
3 496 480 493
3 493 137 496
3 480 133 493
3 496 40 480
3 463 497 495
3 495 127 463
3 497 137 495
3 463 10 497
3 500 498 499
3 499 140 500
3 498 139 499
3 500 138 498
3 502 501 499
3 499 139 502
3 501 140 499
3 502 33 501
3 504 503 498
3 498 138 504
3 503 139 498
3 504 13 503
3 506 505 500
3 500 140 506
3 505 138 500
3 506 23 505
3 509 507 508
3 508 47 509
3 507 139 508
3 509 110 507
3 503 182 508
3 508 139 503
3 182 47 508
3 503 13 182
3 398 502 507
3 507 110 398
3 502 139 507
3 398 33 502
3 183 401 509
3 509 47 183
3 401 110 509
3 183 8 401
3 512 510 511
3 511 79 512
3 510 138 511
3 512 46 510
3 505 294 511
3 511 138 505
3 294 79 511
3 505 23 294
3 174 504 510
3 510 46 174
3 504 138 510
3 174 13 504
3 295 177 512
3 512 79 295
3 177 46 512
3 295 4 177
3 515 513 514
3 514 111 515
3 513 140 514
3 515 78 513
3 501 406 514
3 514 140 501
3 406 111 514
3 501 33 406
3 286 506 513
3 513 78 286
3 506 140 513
3 286 23 506
3 407 289 515
3 515 111 407
3 289 78 515
3 407 0 289
3 518 516 517
3 517 143 518
3 516 142 517
3 518 141 516
3 520 519 517
3 517 142 520
3 519 143 517
3 520 19 519
3 522 521 516
3 516 141 522
3 521 142 516
3 522 32 521
3 524 523 518
3 518 143 524
3 523 141 518
3 524 26 523
3 527 525 526
3 526 113 527
3 525 142 526
3 527 66 525
3 521 413 526
3 526 142 521
3 413 113 526
3 521 32 413
3 244 520 525
3 525 66 244
3 520 142 525
3 244 19 520
3 414 247 527
3 527 113 414
3 247 66 527
3 414 11 247
3 530 528 529
3 529 86 530
3 528 141 529
3 530 112 528
3 523 316 529
3 529 141 523
3 316 86 529
3 523 26 316
3 405 522 528
3 528 112 405
3 522 141 528
3 405 32 522
3 317 408 530
3 530 86 317
3 408 112 530
3 317 0 408
3 533 531 532
3 532 61 533
3 531 143 532
3 533 89 531
3 519 231 532
3 532 143 519
3 231 61 532
3 519 19 231
3 326 524 531
3 531 89 326
3 524 143 531
3 326 26 524
3 232 329 533
3 533 61 232
3 329 89 533
3 232 5 329
3 536 534 535
3 535 146 536
3 534 145 535
3 536 144 534
3 538 537 535
3 535 145 538
3 537 146 535
3 538 22 537
3 540 539 534
3 534 144 540
3 539 145 534
3 540 16 539
3 542 541 536
3 536 146 542
3 541 144 536
3 542 39 541
3 545 543 544
3 544 54 545
3 543 145 544
3 545 80 543
3 539 204 544
3 544 145 539
3 204 54 544
3 539 16 204
3 293 538 543
3 543 80 293
3 538 145 543
3 293 22 538
3 205 296 545
3 545 54 205
3 296 80 545
3 205 4 296
3 548 546 547
3 547 125 548
3 546 144 547
3 548 57 546
3 541 455 547
3 547 144 541
3 455 125 547
3 541 39 455
3 214 540 546
3 546 57 214
3 540 144 546
3 214 16 540
3 456 217 548
3 548 125 456
3 217 57 548
3 456 9 217
3 551 549 550
3 550 81 551
3 549 146 550
3 551 130 549
3 537 301 550
3 550 146 537
3 301 81 550
3 537 22 301
3 468 542 549
3 549 130 468
3 542 146 549
3 468 39 542
3 302 471 551
3 551 81 302
3 471 130 551
3 302 3 471
3 554 552 553
3 553 149 554
3 552 148 553
3 554 147 552
3 556 555 553
3 553 148 556
3 555 149 553
3 556 21 555
3 558 557 552
3 552 147 558
3 557 148 552
3 558 25 557
3 560 559 554
3 554 149 560
3 559 147 554
3 560 37 559
3 563 561 562
3 562 88 563
3 561 148 562
3 563 70 561
3 557 327 562
3 562 148 557
3 327 88 562
3 557 25 327
3 260 556 561
3 561 70 260
3 556 148 561
3 260 21 556
3 328 261 563
3 563 88 328
3 261 70 563
3 328 5 261
3 566 564 565
3 565 129 566
3 564 147 565
3 566 87 564
3 559 469 565
3 565 147 559
3 469 129 565
3 559 37 469
3 321 558 564
3 564 87 321
3 558 147 564
3 321 25 558
3 470 322 566
3 566 129 470
3 322 87 566
3 470 3 322
3 569 567 568
3 568 71 569
3 567 149 568
3 569 128 567
3 555 266 568
3 568 149 555
3 266 71 568
3 555 21 266
3 461 560 567
3 567 128 461
3 560 149 567
3 461 37 560
3 267 464 569
3 569 71 267
3 464 128 569
3 267 10 464
3 572 570 571
3 571 152 572
3 570 151 571
3 572 150 570
3 574 573 571
3 571 151 574
3 573 152 571
3 574 27 573
3 576 575 570
3 570 150 576
3 575 151 570
3 576 12 575
3 578 577 572
3 572 152 578
3 577 150 572
3 578 36 577
3 581 579 580
3 580 49 581
3 579 151 580
3 581 96 579
3 575 189 580
3 580 151 575
3 189 49 580
3 575 12 189
3 349 574 579
3 579 96 349
3 574 151 579
3 349 27 574
3 190 352 581
3 581 49 190
3 352 96 581
3 190 7 352
3 584 582 583
3 583 118 584
3 582 150 583
3 584 48 582
3 577 428 583
3 583 150 577
3 428 118 583
3 577 36 428
3 181 576 582
3 582 48 181
3 576 150 582
3 181 12 576
3 429 184 584
3 584 118 429
3 184 48 584
3 429 8 184
3 587 585 586
3 586 97 587
3 585 152 586
3 587 121 585
3 573 357 586
3 586 152 573
3 357 97 586
3 573 27 357
3 438 578 585
3 585 121 438
3 578 152 585
3 438 36 578
3 358 441 587
3 587 97 358
3 441 121 587
3 358 1 441
3 590 588 589
3 589 155 590
3 588 154 589
3 590 153 588
3 592 591 589
3 589 154 592
3 591 155 589
3 592 17 591
3 594 593 588
3 588 153 594
3 593 154 588
3 594 30 593
3 596 595 590
3 590 155 596
3 595 153 590
3 596 35 595
3 599 597 598
3 598 104 599
3 597 154 598
3 599 64 597
3 593 383 598
3 598 154 593
3 383 104 598
3 593 30 383
3 237 592 597
3 597 64 237
3 592 154 597
3 237 17 592
3 384 240 599
3 599 104 384
3 240 64 599
3 384 6 240
3 602 600 601
3 601 120 602
3 600 153 601
3 602 103 600
3 595 439 601
3 601 153 595
3 439 120 601
3 595 35 439
3 377 594 600
3 600 103 377
3 594 153 600
3 377 30 594
3 440 378 602
3 602 120 440
3 378 103 602
3 440 1 378
3 605 603 604
3 604 65 605
3 603 155 604
3 605 119 603
3 591 245 604
3 604 155 591
3 245 65 604
3 591 17 245
3 433 596 603
3 603 119 433
3 596 155 603
3 433 35 596
3 246 434 605
3 605 65 246
3 434 119 605
3 246 11 434
3 608 606 607
3 607 158 608
3 606 157 607
3 608 156 606
3 610 609 607
3 607 157 610
3 609 158 607
3 610 15 609
3 612 611 606
3 606 156 612
3 611 157 606
3 612 28 611
3 614 613 608
3 608 158 614
3 613 156 608
3 614 41 613
3 617 615 616
3 616 95 617
3 615 157 616
3 617 55 615
3 611 350 616
3 616 157 611
3 350 95 616
3 611 28 350
3 209 610 615
3 615 55 209
3 610 157 615
3 209 15 610
3 351 210 617
3 617 95 351
3 210 55 617
3 351 7 210
3 620 618 619
3 619 135 620
3 618 156 619
3 620 94 618
3 613 490 619
3 619 156 613
3 490 135 619
3 613 41 490
3 342 612 618
3 618 94 342
3 612 156 618
3 342 28 612
3 491 345 620
3 620 135 491
3 345 94 620
3 491 2 345
3 623 621 622
3 622 56 623
3 621 158 622
3 623 134 621
3 609 215 622
3 622 158 609
3 215 56 622
3 609 15 215
3 484 614 621
3 621 134 484
3 614 158 621
3 484 41 614
3 216 485 623
3 623 56 216
3 485 134 623
3 216 9 485
3 626 624 625
3 625 161 626
3 624 160 625
3 626 159 624
3 628 627 625
3 625 160 628
3 627 161 625
3 628 31 627
3 630 629 624
3 624 159 630
3 629 160 624
3 630 20 629
3 632 631 626
3 626 161 632
3 631 159 626
3 632 40 631
3 635 633 634
3 634 73 635
3 633 160 634
3 635 105 633
3 629 272 634
3 634 160 629
3 272 73 634
3 629 20 272
3 382 628 633
3 633 105 382
3 628 160 633
3 382 31 628
3 273 385 635
3 635 73 273
3 385 105 635
3 273 6 385
3 638 636 637
3 637 137 638
3 636 159 637
3 638 72 636
3 631 496 637
3 637 159 631
3 496 137 637
3 631 40 496
3 265 630 636
3 636 72 265
3 630 159 636
3 265 20 630
3 497 268 638
3 638 137 497
3 268 72 638
3 497 10 268
3 641 639 640
3 640 102 641
3 639 161 640
3 641 136 639
3 627 372 640
3 640 161 627
3 372 102 640
3 627 31 372
3 489 632 639
3 639 136 489
3 632 161 639
3 489 40 632
3 373 492 641
3 641 102 373
3 492 136 641
3 373 2 492
