# vtk DataFile Version 3.0
this file was written using fslvtkio
ASCII
DATASET POLYDATA
POINTS 642 float
138.019 137.632 107.707
126.427 135.983 108.563
134.079 124.561 108.659
141.653 120.29 105.611
139.148 126.463 115.093
136.237 131.864 101.533
128.521 132.452 101.35
132.253 126.163 117.178
132.312 141.746 115.141
137.759 111.365 111.97
138.136 116.673 100.427
128.087 144.63 101.187
132.192 134.092 117.809
136.418 135.039 116.254
136.439 125.635 119.428
134.885 118.423 116.557
139.25 117.616 114.592
125.095 137.923 98.0905
131.953 132.743 100.363
131.962 139.532 99.6337
136.077 124.792 102.537
139.302 121.541 99.5747
140.905 122.151 110.692
138.866 132.739 111.864
140.219 129.006 106.805
140.753 124.542 102.275
137.048 136.471 103.479
128.988 132.094 113.954
132.023 123.287 112.944
130.061 130.992 108.696
124.797 135.203 102.946
132.178 128.637 104.971
133.478 143.649 104.881
135.352 141.702 111.209
129.332 145.908 108.226
125.183 141.107 104.396
128.729 139.537 111.894
142.303 115.129 100.431
138.833 112.093 105.204
141.286 113.189 108.266
136.92 120.074 105.418
135.438 117.011 110.14
134.558 135.106 118.14
136.658 130.503 118.059
134.391 130.054 118.896
137.999 126.06 117.296
137.951 130.895 115.9
134.576 138.797 116.144
132.082 138.272 116.842
131.963 130.037 117.898
133.959 125.377 119.242
135.395 121.63 119.021
137.791 121.737 117.438
137.518 117.324 116.668
139.098 121.956 114.968
133.146 122.206 117.323
136.616 114.948 114.103
139.143 113.405 113.852
127.988 135.546 97.9359
131.245 136.013 99.0546
128.654 139.049 98.1163
133.864 135.963 100.497
134.431 132.111 100.547
129.988 132.857 100.635
125.4 134.526 98.707
126.491 141.282 99.467
130.172 142.385 99.9622
137.682 122.7 100.746
135.989 127.533 101.029
133.937 128.672 101.374
137.737 126.925 101.196
138.659 118.609 98.2919
137.013 120.025 100.872
132.132 129.432 102.175
140.206 127.298 111.481
139.715 130.433 109.457
140.92 125.689 108.936
139.117 133.49 107.42
138.622 135.34 109.954
139.053 129.85 113.56
140.065 124.174 113.043
141.572 121.244 108.262
141.226 124.815 106.212
140.525 127.392 104.465
138.891 132.55 105.279
138.776 130.803 103.496
137.618 137.391 105.436
141.407 122.241 103.661
138.816 128.396 102.022
136.689 134.389 102.235
130.102 127.622 113.662
130.926 126.938 111.087
129.243 130.728 111.39
132.025 127.971 108.737
132.935 123.879 110.638
131.77 124.587 115.283
130.488 129.443 115.812
127.962 134.243 111.363
128.012 133.493 108.594
127.914 133.568 105.823
130.745 130.49 106.427
128.255 132.739 103.943
133.482 126.803 106.78
125.372 135.72 105.695
125.89 133.668 101.627
130.427 130.75 103.31
134.461 143.447 108.111
132.505 144.958 110.176
131.369 146.193 106.269
130.803 143.935 112.048
134.02 142.163 113.392
137.006 139.878 109.443
136.168 140.971 106.352
131.059 144.944 102.659
128.213 146.117 104.518
126.995 144.087 106.184
128.781 143.076 109.955
126.68 141.15 108.041
130.33 140.726 113.698
125.949 143.13 102.475
125.201 138.68 106.714
127.18 137.974 110.159
140.982 111.872 101.649
140.738 109.639 106.639
142.035 113.938 104.543
139.883 111.14 110.701
137.938 111.093 108.657
138.951 114.671 102.388
140.573 115.912 98.3664
141.812 117.671 103.377
141.81 117.053 106.956
136.3 118.186 107.503
137.094 114.04 107.715
137.974 115.794 105.128
136.636 114.312 111.132
134.619 120.586 109.352
135.348 122.495 107.02
137.472 118.436 102.968
137.785 134.286 114.142
136.105 138.84 113.893
137.345 137.532 111.79
135.55 140.497 103.816
132.971 142 101.915
134.619 138.226 101.595
140.462 115.02 111.526
140.317 119.579 112.636
141.2 117.652 109.67
141.419 119.154 101.1
140.033 122.801 100.74
141.728 118.104 97.8935
130.147 137.219 115.389
130.16 133.227 116.176
128.483 136.06 113.193
124.308 137.97 103.759
123.416 135.542 99.9727
124.516 139.542 100.821
133.5 120.243 111.616
133.107 120.55 114.817
134.955 117.529 113.311
136.613 122.295 103.54
133.766 127.162 103.702
135.174 124.66 105.344
135.668 132.82 118.236
135.591 130.452 118.836
134.523 132.697 118.792
135.448 128.022 119.466
136.49 128.234 118.851
136.502 132.809 117.29
135.658 134.868 117.396
133.432 134.429 118.235
133.364 132.181 118.59
137.358 128.253 117.824
137.368 130.764 117.098
137.946 128.533 116.681
137.106 132.936 116.199
137.242 125.97 118.426
138.639 126.432 116.237
138.536 128.664 115.595
134.742 136.944 117.292
133.282 136.703 117.821
133.407 138.683 117.016
132.128 136.258 117.345
135.544 136.884 116.229
133.613 140.537 115.994
132.143 140.191 116.204
133.132 129.968 118.665
134.26 127.713 119.185
133.118 127.844 118.573
135.153 125.578 119.729
132.181 131.975 118
132.181 128.001 117.627
133.031 125.768 118.286
136.818 121.5 118.532
137.615 119.533 117.331
136.401 119.387 118.094
138.464 117.62 115.88
138.427 119.718 116.171
137.157 123.679 118.563
135.945 123.529 119.441
134.991 119.807 118.016
136.095 117.786 116.936
138.61 121.813 116.271
137.952 123.946 117.486
138.663 124.202 116.26
139.169 119.742 114.937
139.162 124.203 115.029
134.558 123.499 119.315
134.195 121.742 118.264
133.267 123.714 118.524
134.076 120.35 117.093
132.566 124.16 117.423
136.985 115.888 115.655
138.313 115.525 115.279
137.727 113.721 114.592
139.171 115.677 114.283
135.87 116.802 115.318
137.314 113.034 113.117
138.517 111.816 113.389
129.741 135.616 98.4178
129.99 137.426 98.3524
128.259 137.137 97.7355
130.313 139.178 98.7193
131.463 137.78 99.0552
131.272 134.334 99.432
129.842 134.224 99.0493
126.438 136.702 97.6461
126.954 138.384 97.8167
132.564 136.118 99.665
132.644 134.252 99.8018
133.938 134.182 100.282
133.153 132.432 100.344
132.846 137.87 99.9623
135.035 133.932 100.994
135.437 131.913 101.034
128.517 134.166 99.0441
126.494 135.174 98.0633
127.44 134.103 99.3684
124.758 136.174 98.0817
130.764 133.001 100.446
129.188 132.739 100.901
127.119 133.734 100.176
127.612 140.182 98.4822
129.493 140.725 98.7735
128.304 141.893 99.3378
131.001 140.916 99.6278
126.036 139.599 98.54
127.308 143 100.149
129.107 143.531 100.332
137.02 125.187 101.26
134.864 128.321 101.166
136.097 125.901 101.696
132.74 130.877 100.654
133.908 130.42 100.702
137.744 124.515 100.813
138.394 122.037 99.8436
136.869 123.707 101.637
135.272 126.416 102.105
134.811 130.18 100.8
136.825 127.27 101.163
136.004 129.727 101.133
138.432 124.251 100.77
136.849 129.64 101.298
138.204 120.495 99.3058
137.611 121.23 100.638
137.579 119.079 99.4633
136.889 122.294 101.729
139.272 120.058 98.3369
138.271 117.347 99.1428
137.298 118.136 100.559
133.202 128.846 101.764
131.857 130.894 100.821
131.072 130.962 101.233
134.02 127.261 102.467
130.305 131.181 101.822
139.99 128.935 110.476
140.47 128.135 109.213
140.589 126.482 110.205
140.675 127.483 107.952
140.09 129.549 108.224
139.359 131.244 110.758
139.605 129.857 111.622
140.64 124.856 111.11
141.023 124.104 109.94
139.489 131.918 108.443
139.161 132.713 109.809
139.107 134.162 108.81
138.857 133.978 110.916
139.545 131.114 107.229
138.622 135.515 107.627
138.415 136.42 108.833
139.716 128.597 112.55
140.189 125.7 112.248
139.829 127.118 113.468
140.544 123.151 111.835
138.966 131.223 112.641
139.156 128.247 114.41
139.509 125.381 114.035
141.448 123.504 108.738
140.995 125.29 107.621
141.667 123.221 107.361
140.676 126.904 106.651
141.29 121.661 109.525
141.61 121.09 106.892
141.614 122.727 105.941
139.817 129.958 104.977
138.71 131.791 104.394
139.907 129.095 103.849
137.857 133.58 103.626
138.208 134.537 104.354
139.543 130.643 105.995
140.376 128.347 105.659
140.55 126.5 103.355
139.816 127.841 102.995
138.347 135.126 105.304
138.959 132.871 106.282
138.55 135.347 106.431
137.349 136.898 104.443
137.88 137.443 106.571
140.887 126.206 105.309
141.087 125.006 103.925
141.544 123.861 104.828
141.179 123.555 102.966
141.421 121.342 104.698
138.873 129.644 102.693
137.728 132.63 102.943
137.691 131.335 102.414
136.994 135.426 102.794
139.877 126.425 102.149
137.51 130.147 101.851
136.416 132.943 101.941
130.286 127.171 112.242
130.134 128.961 111.263
129.584 129.123 112.52
129.762 130.575 110.089
130.504 128.961 110.054
131.325 125.279 112.158
131.013 125.756 113.243
129.46 129.762 113.758
128.969 131.006 112.72
131.445 127.407 109.847
131.892 125.362 110.958
132.493 125.942 109.798
132.306 123.512 111.825
130.957 129.334 108.811
133.057 126.469 108.688
133.507 124.467 109.573
131.042 126.119 114.474
130.108 128.444 114.795
131.022 127.062 115.652
129.644 130.716 114.898
131.902 124.041 114.016
131.888 125.294 116.317
131.317 127.824 116.634
128.548 132.413 111.515
128.88 132.195 110.067
127.979 133.598 110.118
129.141 132.386 108.674
128.488 133.05 112.714
127.311 135.172 109.884
127.086 134.675 108.562
129.663 132.357 106.283
129.991 131.807 105.173
128.169 133.308 104.783
130.218 131.117 104.487
131.129 129.956 105.445
130.39 130.87 107.527
129.167 132.471 107.276
126.479 134.429 104.427
126.386 133.958 103.406
132.018 128.779 106.451
131.48 129.407 107.62
132.667 127.695 107.596
132.759 127.785 105.808
134.031 125.805 107.827
128.028 133.492 107.211
126.705 134.713 105.618
126.915 134.703 107.099
125.038 135.478 104.278
125.959 135.835 107.128
127.074 133.269 102.863
129.293 131.874 103.549
128.115 132.532 102.447
131.121 129.603 104.145
124.964 134.436 102.014
127.182 133.159 101.316
129.585 131.732 102.385
133.365 144.362 108.966
132.003 145.733 108.229
132.911 144.926 107.348
130.469 146.69 107.382
130.994 145.897 109.253
134.067 143.651 110.662
134.829 142.883 109.708
133.848 143.868 106.501
132.377 144.996 105.664
131.576 144.788 111.187
133.425 143.802 111.884
132.59 143.662 113.093
134.608 142.255 112.112
130.115 145.111 110.084
131.498 142.895 113.599
133.267 142.157 114.475
135.635 141.782 108.805
135.284 142.401 107.186
136.627 140.683 107.936
134.882 142.607 105.78
136.165 141.02 110.218
137.571 138.757 108.584
137.227 139.437 107.029
131.214 145.772 104.412
129.935 146.718 105.334
129.608 146.101 103.337
128.797 146.414 106.454
132.215 144.407 103.889
129.578 145.015 101.65
127.892 145.555 102.643
127.83 143.775 108.144
127.873 142.076 108.884
126.651 142.731 107.296
127.795 140.691 109.876
128.629 141.347 110.686
129.041 144.54 109.043
128.059 145.123 107.17
126.002 142.706 105.448
125.833 141.438 106.34
129.523 141.955 111.625
129.853 143.654 110.844
130.538 142.384 112.709
129.463 140.313 112.584
131.197 141.248 114.657
127.456 145.334 105.38
126.328 143.808 104.374
126.813 144.887 103.371
125.489 142.196 103.512
126.75 144.02 101.613
125.972 140.007 107.217
127.062 139.632 109.086
126.279 138.439 108.379
127.941 139.055 110.812
125.184 140.032 105.548
125.796 137.333 107.698
126.727 136.922 109.371
141.379 110.555 103.982
141.696 111.866 105.255
142.104 112.62 103.023
141.658 113.333 106.471
141.201 111.238 107.33
139.62 110.22 105.384
139.845 111.56 103.481
142.29 113.176 100.669
142.193 114.515 102.351
140.435 110.065 108.713
138.838 109.378 107.395
138.603 109.608 109.759
138.504 111.041 106.804
140.688 112.072 109.452
138.902 110.329 111.64
137.687 111.182 110.487
139.757 113.099 101.882
140.773 113.477 100.019
139.831 114.769 100.329
141.79 114.734 98.9525
139.097 113.204 103.718
138.59 115.842 101.431
139.2 116.079 99.2008
141.725 115.676 104.017
141.942 115.281 105.955
141.977 117.458 105.262
141.626 114.986 107.566
141.955 116.246 102.158
141.761 119.046 104.472
142.031 118.794 106.408
136.848 116.062 107.536
137.556 114.653 106.35
137.188 116.827 106.295
138.455 113.838 105.157
137.925 112.639 106.534
136.428 115.693 108.807
135.905 117.359 108.64
136.778 118.919 106.447
137.411 117.908 105.302
137.637 112.532 108.109
136.65 114.278 109.359
137.16 112.683 109.87
136.082 115.696 110.529
137.188 112.94 111.602
135.401 119.252 108.468
135.933 120.238 107.314
135.084 121.404 108.195
136.238 121.162 106.359
134.81 118.599 109.674
134.478 122.63 109.067
134.842 123.621 107.957
137.828 117.127 104.067
138.497 114.991 103.871
138.153 116.408 102.736
137.327 119.046 104.274
137.571 117.589 101.732
136.902 136.51 114.07
136.794 138.167 112.903
137.556 135.82 112.942
136.487 139.727 111.591
135.789 140.362 112.608
136.256 136.875 115.061
137.128 134.804 115.203
138.289 133.753 112.871
138.154 135.239 111.938
135.134 140.632 113.645
135.502 138.722 115.116
134.407 140.554 114.907
137.904 132.726 115.113
138.441 132.211 113.775
138.455 130.422 114.664
137.999 136.36 110.9
137.216 138.838 110.684
137.768 137.604 109.714
134.248 141.296 102.938
134.035 140.223 101.501
135.311 139.366 102.613
133.441 139.102 100.533
132.608 140.794 100.7
133.274 142.949 103.39
134.469 142.045 104.415
136.365 138.567 103.458
135.814 137.413 102.581
131.697 142.222 100.756
132.049 143.49 102.354
130.663 143.727 101.183
135.831 141.049 105.075
136.699 139.066 104.501
136.966 139.324 105.756
135.711 136.135 101.91
134.26 137.027 100.968
135.518 135.022 101.209
140.432 117.292 112.164
140.749 118.623 111.148
140.81 116.247 110.518
141.213 119.822 110.301
140.674 120.777 111.593
139.783 118.487 113.547
139.929 116.284 113.086
140.973 113.981 109.94
141.348 115.402 108.99
140.224 121.767 112.757
139.688 120.624 113.834
139.683 122.975 113.958
139.664 114.365 112.84
140.393 113.083 111.219
139.656 112.17 112.479
141.553 117.212 108.312
141.593 119.501 109.057
141.829 119.216 107.636
140.694 120.948 100.829
140.771 119.936 99.4064
141.656 118.275 99.6117
140.473 119.931 98.5281
139.453 122.057 100.437
140.267 124.247 101.456
140.985 122.132 101.816
141.866 116.837 100.677
142.174 116.453 98.8236
139.017 124.697 101.028
139.446 125.834 101.53
138.214 127.69 101.407
141.167 121.173 102.484
141.675 118.474 102.159
141.416 120.067 103.548
141.425 116.884 97.1346
140.105 119.077 97.6794
139.159 117.21 98.1532
130.16 135.235 115.874
129.372 134.716 114.747
129.226 136.692 114.373
128.76 134.149 113.672
129.432 132.846 115.016
131.118 133.625 117.113
131.116 135.758 116.758
129.481 138.47 113.762
128.56 137.906 112.683
130.102 131.316 116.019
131.039 131.736 117.134
131.093 129.63 116.942
131.074 137.734 116.11
130.201 139.131 114.481
131.052 139.621 115.58
127.932 137.262 111.659
128.142 135.132 112.312
127.668 136.113 110.765
123.856 137.108 101.639
123.882 137.711 100.399
124.262 138.721 102.204
124.523 138.781 99.2522
123.91 136.79 98.909
123.766 135.403 101.335
124.286 136.453 103.032
124.622 139.53 104.037
124.806 140.426 102.646
123.974 134.672 98.9244
124.403 134.27 100.637
125.782 133.784 100.245
124.268 136.559 104.777
124.631 138.352 105.28
125.056 136.951 106.421
125.326 141.323 101.78
125.21 140.37 99.8714
126.003 142.416 100.802
133.251 120.203 113.207
134.01 119.023 114.14
134.129 118.79 112.489
134.898 117.882 114.99
133.96 119.539 115.758
132.519 121.755 113.79
132.733 121.627 112.355
134.429 118.683 111.011
135.019 117.336 111.636
133.041 121.235 116.073
132.455 122.627 114.933
132.396 123.26 116.254
133.064 122.043 111.128
133.994 120.346 110.364
133.855 122.468 110.061
135.852 116.151 112.061
135.741 116.393 113.794
136.633 114.698 112.623
135.343 124.707 103.736
134.484 125.838 104.486
135.824 123.4 104.584
133.758 126.856 105.147
132.782 127.984 104.231
134.825 126.122 103.151
136.197 123.531 102.891
136.844 121.046 104.377
136.196 122.259 105.429
131.811 128.789 103.374
132.866 128.033 102.813
131.128 130.006 102.658
136.777 121.593 102.35
137.121 120.331 103.232
137.139 119.482 101.927
135.553 123.557 106.223
134.275 125.883 105.98
134.859 124.878 107.043
POLYGONS 1280  5120
3 164 162 163
3 163 44 164
3 162 43 163
3 164 42 162
3 166 165 163
3 163 43 166
3 165 44 163
3 166 14 165
3 168 167 162
3 162 42 168
3 167 43 162
3 168 13 167
3 170 169 164
3 164 44 170
3 169 42 164
3 170 12 169
3 173 171 172
3 172 46 173
3 171 43 172
3 173 45 171
3 167 174 172
3 172 43 167
3 174 46 172
3 167 13 174
3 175 166 171
3 171 45 175
3 166 43 171
3 175 14 166
3 177 176 173
3 173 46 177
3 176 45 173
3 177 4 176
3 180 178 179
3 179 48 180
3 178 42 179
3 180 47 178
3 169 181 179
3 179 42 169
3 181 48 179
3 169 12 181
3 182 168 178
3 178 47 182
3 168 42 178
3 182 13 168
3 184 183 180
3 180 48 184
3 183 47 180
3 184 8 183
3 187 185 186
3 186 50 187
3 185 44 186
3 187 49 185
3 165 188 186
3 186 44 165
3 188 50 186
3 165 14 188
3 189 170 185
3 185 49 189
3 170 44 185
3 189 12 170
3 191 190 187
3 187 50 191
3 190 49 187
3 191 7 190
3 194 192 193
3 193 53 194
3 192 52 193
3 194 51 192
3 196 195 193
3 193 52 196
3 195 53 193
3 196 16 195
3 198 197 192
3 192 51 198
3 197 52 192
3 198 14 197
3 200 199 194
3 194 53 200
3 199 51 194
3 200 15 199
3 203 201 202
3 202 45 203
3 201 52 202
3 203 54 201
3 197 175 202
3 202 52 197
3 175 45 202
3 197 14 175
3 204 196 201
3 201 54 204
3 196 52 201
3 204 16 196
3 176 205 203
3 203 45 176
3 205 54 203
3 176 4 205
3 208 206 207
3 207 55 208
3 206 51 207
3 208 50 206
3 199 209 207
3 207 51 199
3 209 55 207
3 199 15 209
3 188 198 206
3 206 50 188
3 198 51 206
3 188 14 198
3 210 191 208
3 208 55 210
3 191 50 208
3 210 7 191
3 213 211 212
3 212 57 213
3 211 53 212
3 213 56 211
3 195 214 212
3 212 53 195
3 214 57 212
3 195 16 214
3 215 200 211
3 211 56 215
3 200 53 211
3 215 15 200
3 217 216 213
3 213 57 217
3 216 56 213
3 217 9 216
3 220 218 219
3 219 60 220
3 218 59 219
3 220 58 218
3 222 221 219
3 219 59 222
3 221 60 219
3 222 19 221
3 224 223 218
3 218 58 224
3 223 59 218
3 224 18 223
3 226 225 220
3 220 60 226
3 225 58 220
3 226 17 225
3 229 227 228
3 228 62 229
3 227 59 228
3 229 61 227
3 223 230 228
3 228 59 223
3 230 62 228
3 223 18 230
3 231 222 227
3 227 61 231
3 222 59 227
3 231 19 222
3 233 232 229
3 229 62 233
3 232 61 229
3 233 5 232
3 236 234 235
3 235 64 236
3 234 58 235
3 236 63 234
3 225 237 235
3 235 58 225
3 237 64 235
3 225 17 237
3 238 224 234
3 234 63 238
3 224 58 234
3 238 18 224
3 240 239 236
3 236 64 240
3 239 63 236
3 240 6 239
3 243 241 242
3 242 66 243
3 241 60 242
3 243 65 241
3 221 244 242
3 242 60 221
3 244 66 242
3 221 19 244
3 245 226 241
3 241 65 245
3 226 60 241
3 245 17 226
3 247 246 243
3 243 66 247
3 246 65 243
3 247 11 246
3 250 248 249
3 249 69 250
3 248 68 249
3 250 67 248
3 252 251 249
3 249 68 252
3 251 69 249
3 252 18 251
3 254 253 248
3 248 67 254
3 253 68 248
3 254 21 253
3 256 255 250
3 250 69 256
3 255 67 250
3 256 20 255
3 259 257 258
3 258 70 259
3 257 68 258
3 259 62 257
3 253 260 258
3 258 68 253
3 260 70 258
3 253 21 260
3 230 252 257
3 257 62 230
3 252 68 257
3 230 18 252
3 261 233 259
3 259 70 261
3 233 62 259
3 261 5 233
3 264 262 263
3 263 72 264
3 262 67 263
3 264 71 262
3 255 265 263
3 263 67 255
3 265 72 263
3 255 20 265
3 266 254 262
3 262 71 266
3 254 67 262
3 266 21 254
3 268 267 264
3 264 72 268
3 267 71 264
3 268 10 267
3 271 269 270
3 270 63 271
3 269 69 270
3 271 73 269
3 251 238 270
3 270 69 251
3 238 63 270
3 251 18 238
3 272 256 269
3 269 73 272
3 256 69 269
3 272 20 256
3 239 273 271
3 271 63 239
3 273 73 271
3 239 6 273
3 276 274 275
3 275 76 276
3 274 75 275
3 276 74 274
3 278 277 275
3 275 75 278
3 277 76 275
3 278 24 277
3 280 279 274
3 274 74 280
3 279 75 274
3 280 23 279
3 282 281 276
3 276 76 282
3 281 74 276
3 282 22 281
3 285 283 284
3 284 78 285
3 283 75 284
3 285 77 283
3 279 286 284
3 284 75 279
3 286 78 284
3 279 23 286
3 287 278 283
3 283 77 287
3 278 75 283
3 287 24 278
3 289 288 285
3 285 78 289
3 288 77 285
3 289 0 288
3 292 290 291
3 291 80 292
3 290 74 291
3 292 79 290
3 281 293 291
3 291 74 281
3 293 80 291
3 281 22 293
3 294 280 290
3 290 79 294
3 280 74 290
3 294 23 280
3 296 295 292
3 292 80 296
3 295 79 292
3 296 4 295
3 299 297 298
3 298 82 299
3 297 76 298
3 299 81 297
3 277 300 298
3 298 76 277
3 300 82 298
3 277 24 300
3 301 282 297
3 297 81 301
3 282 76 297
3 301 22 282
3 303 302 299
3 299 82 303
3 302 81 299
3 303 3 302
3 306 304 305
3 305 85 306
3 304 84 305
3 306 83 304
3 308 307 305
3 305 84 308
3 307 85 305
3 308 26 307
3 310 309 304
3 304 83 310
3 309 84 304
3 310 24 309
3 312 311 306
3 306 85 312
3 311 83 306
3 312 25 311
3 315 313 314
3 314 77 315
3 313 84 314
3 315 86 313
3 309 287 314
3 314 84 309
3 287 77 314
3 309 24 287
3 316 308 313
3 313 86 316
3 308 84 313
3 316 26 308
3 288 317 315
3 315 77 288
3 317 86 315
3 288 0 317
3 320 318 319
3 319 87 320
3 318 83 319
3 320 82 318
3 311 321 319
3 319 83 311
3 321 87 319
3 311 25 321
3 300 310 318
3 318 82 300
3 310 83 318
3 300 24 310
3 322 303 320
3 320 87 322
3 303 82 320
3 322 3 303
3 325 323 324
3 324 89 325
3 323 85 324
3 325 88 323
3 307 326 324
3 324 85 307
3 326 89 324
3 307 26 326
3 327 312 323
3 323 88 327
3 312 85 323
3 327 25 312
3 329 328 325
3 325 89 329
3 328 88 325
3 329 5 328
3 332 330 331
3 331 92 332
3 330 91 331
3 332 90 330
3 334 333 331
3 331 91 334
3 333 92 331
3 334 29 333
3 336 335 330
3 330 90 336
3 335 91 330
3 336 28 335
3 338 337 332
3 332 92 338
3 337 90 332
3 338 27 337
3 341 339 340
3 340 94 341
3 339 91 340
3 341 93 339
3 335 342 340
3 340 91 335
3 342 94 340
3 335 28 342
3 343 334 339
3 339 93 343
3 334 91 339
3 343 29 334
3 345 344 341
3 341 94 345
3 344 93 341
3 345 2 344
3 348 346 347
3 347 96 348
3 346 90 347
3 348 95 346
3 337 349 347
3 347 90 337
3 349 96 347
3 337 27 349
3 350 336 346
3 346 95 350
3 336 90 346
3 350 28 336
3 352 351 348
3 348 96 352
3 351 95 348
3 352 7 351
3 355 353 354
3 354 98 355
3 353 92 354
3 355 97 353
3 333 356 354
3 354 92 333
3 356 98 354
3 333 29 356
3 357 338 353
3 353 97 357
3 338 92 353
3 357 27 338
3 359 358 355
3 355 98 359
3 358 97 355
3 359 1 358
3 362 360 361
3 361 101 362
3 360 100 361
3 362 99 360
3 364 363 361
3 361 100 364
3 363 101 361
3 364 31 363
3 366 365 360
3 360 99 366
3 365 100 360
3 366 29 365
3 368 367 362
3 362 101 368
3 367 99 362
3 368 30 367
3 371 369 370
3 370 93 371
3 369 100 370
3 371 102 369
3 365 343 370
3 370 100 365
3 343 93 370
3 365 29 343
3 372 364 369
3 369 102 372
3 364 100 369
3 372 31 364
3 344 373 371
3 371 93 344
3 373 102 371
3 344 2 373
3 376 374 375
3 375 103 376
3 374 99 375
3 376 98 374
3 367 377 375
3 375 99 367
3 377 103 375
3 367 30 377
3 356 366 374
3 374 98 356
3 366 99 374
3 356 29 366
3 378 359 376
3 376 103 378
3 359 98 376
3 378 1 359
3 381 379 380
3 380 105 381
3 379 101 380
3 381 104 379
3 363 382 380
3 380 101 363
3 382 105 380
3 363 31 382
3 383 368 379
3 379 104 383
3 368 101 379
3 383 30 368
3 385 384 381
3 381 105 385
3 384 104 381
3 385 6 384
3 388 386 387
3 387 108 388
3 386 107 387
3 388 106 386
3 390 389 387
3 387 107 390
3 389 108 387
3 390 34 389
3 392 391 386
3 386 106 392
3 391 107 386
3 392 33 391
3 394 393 388
3 388 108 394
3 393 106 388
3 394 32 393
3 397 395 396
3 396 110 397
3 395 107 396
3 397 109 395
3 391 398 396
3 396 107 391
3 398 110 396
3 391 33 398
3 399 390 395
3 395 109 399
3 390 107 395
3 399 34 390
3 401 400 397
3 397 110 401
3 400 109 397
3 401 8 400
3 404 402 403
3 403 112 404
3 402 106 403
3 404 111 402
3 393 405 403
3 403 106 393
3 405 112 403
3 393 32 405
3 406 392 402
3 402 111 406
3 392 106 402
3 406 33 392
3 408 407 404
3 404 112 408
3 407 111 404
3 408 0 407
3 411 409 410
3 410 114 411
3 409 108 410
3 411 113 409
3 389 412 410
3 410 108 389
3 412 114 410
3 389 34 412
3 413 394 409
3 409 113 413
3 394 108 409
3 413 32 394
3 415 414 411
3 411 114 415
3 414 113 411
3 415 11 414
3 418 416 417
3 417 117 418
3 416 116 417
3 418 115 416
3 420 419 417
3 417 116 420
3 419 117 417
3 420 36 419
3 422 421 416
3 416 115 422
3 421 116 416
3 422 34 421
3 424 423 418
3 418 117 424
3 423 115 418
3 424 35 423
3 427 425 426
3 426 109 427
3 425 116 426
3 427 118 425
3 421 399 426
3 426 116 421
3 399 109 426
3 421 34 399
3 428 420 425
3 425 118 428
3 420 116 425
3 428 36 420
3 400 429 427
3 427 109 400
3 429 118 427
3 400 8 429
3 432 430 431
3 431 119 432
3 430 115 431
3 432 114 430
3 423 433 431
3 431 115 423
3 433 119 431
3 423 35 433
3 412 422 430
3 430 114 412
3 422 115 430
3 412 34 422
3 434 415 432
3 432 119 434
3 415 114 432
3 434 11 415
3 437 435 436
3 436 121 437
3 435 117 436
3 437 120 435
3 419 438 436
3 436 117 419
3 438 121 436
3 419 36 438
3 439 424 435
3 435 120 439
3 424 117 435
3 439 35 424
3 441 440 437
3 437 121 441
3 440 120 437
3 441 1 440
3 444 442 443
3 443 124 444
3 442 123 443
3 444 122 442
3 446 445 443
3 443 123 446
3 445 124 443
3 446 39 445
3 448 447 442
3 442 122 448
3 447 123 442
3 448 38 447
3 450 449 444
3 444 124 450
3 449 122 444
3 450 37 449
3 453 451 452
3 452 126 453
3 451 123 452
3 453 125 451
3 447 454 452
3 452 123 447
3 454 126 452
3 447 38 454
3 455 446 451
3 451 125 455
3 446 123 451
3 455 39 446
3 457 456 453
3 453 126 457
3 456 125 453
3 457 9 456
3 460 458 459
3 459 128 460
3 458 122 459
3 460 127 458
3 449 461 459
3 459 122 449
3 461 128 459
3 449 37 461
3 462 448 458
3 458 127 462
3 448 122 458
3 462 38 448
3 464 463 460
3 460 128 464
3 463 127 460
3 464 10 463
3 467 465 466
3 466 130 467
3 465 124 466
3 467 129 465
3 445 468 466
3 466 124 445
3 468 130 466
3 445 39 468
3 469 450 465
3 465 129 469
3 450 124 465
3 469 37 450
3 471 470 467
3 467 130 471
3 470 129 467
3 471 3 470
3 474 472 473
3 473 133 474
3 472 132 473
3 474 131 472
3 476 475 473
3 473 132 476
3 475 133 473
3 476 38 475
3 478 477 472
3 472 131 478
3 477 132 472
3 478 41 477
3 480 479 474
3 474 133 480
3 479 131 474
3 480 40 479
3 483 481 482
3 482 134 483
3 481 132 482
3 483 126 481
3 477 484 482
3 482 132 477
3 484 134 482
3 477 41 484
3 454 476 481
3 481 126 454
3 476 132 481
3 454 38 476
3 485 457 483
3 483 134 485
3 457 126 483
3 485 9 457
3 488 486 487
3 487 136 488
3 486 131 487
3 488 135 486
3 479 489 487
3 487 131 479
3 489 136 487
3 479 40 489
3 490 478 486
3 486 135 490
3 478 131 486
3 490 41 478
3 492 491 488
3 488 136 492
3 491 135 488
3 492 2 491
3 495 493 494
3 494 127 495
3 493 133 494
3 495 137 493
3 475 462 494
3 494 133 475
3 462 127 494
3 475 38 462
3 496 480 493
3 493 137 496
3 480 133 493
3 496 40 480
3 463 497 495
3 495 127 463
3 497 137 495
3 463 10 497
3 500 498 499
3 499 140 500
3 498 139 499
3 500 138 498
3 502 501 499
3 499 139 502
3 501 140 499
3 502 33 501
3 504 503 498
3 498 138 504
3 503 139 498
3 504 13 503
3 506 505 500
3 500 140 506
3 505 138 500
3 506 23 505
3 509 507 508
3 508 47 509
3 507 139 508
3 509 110 507
3 503 182 508
3 508 139 503
3 182 47 508
3 503 13 182
3 398 502 507
3 507 110 398
3 502 139 507
3 398 33 502
3 183 401 509
3 509 47 183
3 401 110 509
3 183 8 401
3 512 510 511
3 511 79 512
3 510 138 511
3 512 46 510
3 505 294 511
3 511 138 505
3 294 79 511
3 505 23 294
3 174 504 510
3 510 46 174
3 504 138 510
3 174 13 504
3 295 177 512
3 512 79 295
3 177 46 512
3 295 4 177
3 515 513 514
3 514 111 515
3 513 140 514
3 515 78 513
3 501 406 514
3 514 140 501
3 406 111 514
3 501 33 406
3 286 506 513
3 513 78 286
3 506 140 513
3 286 23 506
3 407 289 515
3 515 111 407
3 289 78 515
3 407 0 289
3 518 516 517
3 517 143 518
3 516 142 517
3 518 141 516
3 520 519 517
3 517 142 520
3 519 143 517
3 520 19 519
3 522 521 516
3 516 141 522
3 521 142 516
3 522 32 521
3 524 523 518
3 518 143 524
3 523 141 518
3 524 26 523
3 527 525 526
3 526 113 527
3 525 142 526
3 527 66 525
3 521 413 526
3 526 142 521
3 413 113 526
3 521 32 413
3 244 520 525
3 525 66 244
3 520 142 525
3 244 19 520
3 414 247 527
3 527 113 414
3 247 66 527
3 414 11 247
3 530 528 529
3 529 86 530
3 528 141 529
3 530 112 528
3 523 316 529
3 529 141 523
3 316 86 529
3 523 26 316
3 405 522 528
3 528 112 405
3 522 141 528
3 405 32 522
3 317 408 530
3 530 86 317
3 408 112 530
3 317 0 408
3 533 531 532
3 532 61 533
3 531 143 532
3 533 89 531
3 519 231 532
3 532 143 519
3 231 61 532
3 519 19 231
3 326 524 531
3 531 89 326
3 524 143 531
3 326 26 524
3 232 329 533
3 533 61 232
3 329 89 533
3 232 5 329
3 536 534 535
3 535 146 536
3 534 145 535
3 536 144 534
3 538 537 535
3 535 145 538
3 537 146 535
3 538 22 537
3 540 539 534
3 534 144 540
3 539 145 534
3 540 16 539
3 542 541 536
3 536 146 542
3 541 144 536
3 542 39 541
3 545 543 544
3 544 54 545
3 543 145 544
3 545 80 543
3 539 204 544
3 544 145 539
3 204 54 544
3 539 16 204
3 293 538 543
3 543 80 293
3 538 145 543
3 293 22 538
3 205 296 545
3 545 54 205
3 296 80 545
3 205 4 296
3 548 546 547
3 547 125 548
3 546 144 547
3 548 57 546
3 541 455 547
3 547 144 541
3 455 125 547
3 541 39 455
3 214 540 546
3 546 57 214
3 540 144 546
3 214 16 540
3 456 217 548
3 548 125 456
3 217 57 548
3 456 9 217
3 551 549 550
3 550 81 551
3 549 146 550
3 551 130 549
3 537 301 550
3 550 146 537
3 301 81 550
3 537 22 301
3 468 542 549
3 549 130 468
3 542 146 549
3 468 39 542
3 302 471 551
3 551 81 302
3 471 130 551
3 302 3 471
3 554 552 553
3 553 149 554
3 552 148 553
3 554 147 552
3 556 555 553
3 553 148 556
3 555 149 553
3 556 21 555
3 558 557 552
3 552 147 558
3 557 148 552
3 558 25 557
3 560 559 554
3 554 149 560
3 559 147 554
3 560 37 559
3 563 561 562
3 562 88 563
3 561 148 562
3 563 70 561
3 557 327 562
3 562 148 557
3 327 88 562
3 557 25 327
3 260 556 561
3 561 70 260
3 556 148 561
3 260 21 556
3 328 261 563
3 563 88 328
3 261 70 563
3 328 5 261
3 566 564 565
3 565 129 566
3 564 147 565
3 566 87 564
3 559 469 565
3 565 147 559
3 469 129 565
3 559 37 469
3 321 558 564
3 564 87 321
3 558 147 564
3 321 25 558
3 470 322 566
3 566 129 470
3 322 87 566
3 470 3 322
3 569 567 568
3 568 71 569
3 567 149 568
3 569 128 567
3 555 266 568
3 568 149 555
3 266 71 568
3 555 21 266
3 461 560 567
3 567 128 461
3 560 149 567
3 461 37 560
3 267 464 569
3 569 71 267
3 464 128 569
3 267 10 464
3 572 570 571
3 571 152 572
3 570 151 571
3 572 150 570
3 574 573 571
3 571 151 574
3 573 152 571
3 574 27 573
3 576 575 570
3 570 150 576
3 575 151 570
3 576 12 575
3 578 577 572
3 572 152 578
3 577 150 572
3 578 36 577
3 581 579 580
3 580 49 581
3 579 151 580
3 581 96 579
3 575 189 580
3 580 151 575
3 189 49 580
3 575 12 189
3 349 574 579
3 579 96 349
3 574 151 579
3 349 27 574
3 190 352 581
3 581 49 190
3 352 96 581
3 190 7 352
3 584 582 583
3 583 118 584
3 582 150 583
3 584 48 582
3 577 428 583
3 583 150 577
3 428 118 583
3 577 36 428
3 181 576 582
3 582 48 181
3 576 150 582
3 181 12 576
3 429 184 584
3 584 118 429
3 184 48 584
3 429 8 184
3 587 585 586
3 586 97 587
3 585 152 586
3 587 121 585
3 573 357 586
3 586 152 573
3 357 97 586
3 573 27 357
3 438 578 585
3 585 121 438
3 578 152 585
3 438 36 578
3 358 441 587
3 587 97 358
3 441 121 587
3 358 1 441
3 590 588 589
3 589 155 590
3 588 154 589
3 590 153 588
3 592 591 589
3 589 154 592
3 591 155 589
3 592 17 591
3 594 593 588
3 588 153 594
3 593 154 588
3 594 30 593
3 596 595 590
3 590 155 596
3 595 153 590
3 596 35 595
3 599 597 598
3 598 104 599
3 597 154 598
3 599 64 597
3 593 383 598
3 598 154 593
3 383 104 598
3 593 30 383
3 237 592 597
3 597 64 237
3 592 154 597
3 237 17 592
3 384 240 599
3 599 104 384
3 240 64 599
3 384 6 240
3 602 600 601
3 601 120 602
3 600 153 601
3 602 103 600
3 595 439 601
3 601 153 595
3 439 120 601
3 595 35 439
3 377 594 600
3 600 103 377
3 594 153 600
3 377 30 594
3 440 378 602
3 602 120 440
3 378 103 602
3 440 1 378
3 605 603 604
3 604 65 605
3 603 155 604
3 605 119 603
3 591 245 604
3 604 155 591
3 245 65 604
3 591 17 245
3 433 596 603
3 603 119 433
3 596 155 603
3 433 35 596
3 246 434 605
3 605 65 246
3 434 119 605
3 246 11 434
3 608 606 607
3 607 158 608
3 606 157 607
3 608 156 606
3 610 609 607
3 607 157 610
3 609 158 607
3 610 15 609
3 612 611 606
3 606 156 612
3 611 157 606
3 612 28 611
3 614 613 608
3 608 158 614
3 613 156 608
3 614 41 613
3 617 615 616
3 616 95 617
3 615 157 616
3 617 55 615
3 611 350 616
3 616 157 611
3 350 95 616
3 611 28 350
3 209 610 615
3 615 55 209
3 610 157 615
3 209 15 610
3 351 210 617
3 617 95 351
3 210 55 617
3 351 7 210
3 620 618 619
3 619 135 620
3 618 156 619
3 620 94 618
3 613 490 619
3 619 156 613
3 490 135 619
3 613 41 490
3 342 612 618
3 618 94 342
3 612 156 618
3 342 28 612
3 491 345 620
3 620 135 491
3 345 94 620
3 491 2 345
3 623 621 622
3 622 56 623
3 621 158 622
3 623 134 621
3 609 215 622
3 622 158 609
3 215 56 622
3 609 15 215
3 484 614 621
3 621 134 484
3 614 158 621
3 484 41 614
3 216 485 623
3 623 56 216
3 485 134 623
3 216 9 485
3 626 624 625
3 625 161 626
3 624 160 625
3 626 159 624
3 628 627 625
3 625 160 628
3 627 161 625
3 628 31 627
3 630 629 624
3 624 159 630
3 629 160 624
3 630 20 629
3 632 631 626
3 626 161 632
3 631 159 626
3 632 40 631
3 635 633 634
3 634 73 635
3 633 160 634
3 635 105 633
3 629 272 634
3 634 160 629
3 272 73 634
3 629 20 272
3 382 628 633
3 633 105 382
3 628 160 633
3 382 31 628
3 273 385 635
3 635 73 273
3 385 105 635
3 273 6 385
3 638 636 637
3 637 137 638
3 636 159 637
3 638 72 636
3 631 496 637
3 637 159 631
3 496 137 637
3 631 40 496
3 265 630 636
3 636 72 265
3 630 159 636
3 265 20 630
3 497 268 638
3 638 137 497
3 268 72 638
3 497 10 268
3 641 639 640
3 640 102 641
3 639 161 640
3 641 136 639
3 627 372 640
3 640 161 627
3 372 102 640
3 627 31 372
3 489 632 639
3 639 136 489
3 632 161 639
3 489 40 632
3 373 492 641
3 641 102 373
3 492 136 641
3 373 2 492
