# vtk DataFile Version 3.0
this file was written using fslvtkio
ASCII
DATASET POLYDATA
POINTS 642 float
100.736 136.099 156.567
93.5946 137.038 160.052
92.4923 131.032 156.343
98.4811 130.616 153.952
97.6443 133.415 158.326
97.9858 133.906 151.667
94.2525 133.978 154.124
93.9092 133.628 160.567
98.0654 137.844 161.791
94.4362 128.675 156.421
94.3431 128.787 151.608
97.4379 139.141 157.119
95.4652 136.119 162.322
98.1814 135.796 160.222
95.8135 133.859 159.624
93.932 130.979 158.514
96.0773 131.127 157.253
95.3026 137.162 155.475
95.8374 133.985 152.126
97.7949 136.676 154.412
93.7793 131.287 151.791
96.6721 131.048 149.9
98.4078 131.795 156.417
99.8291 134.924 158.054
99.5021 133.426 155.018
98.9413 131.726 151.85
99.6998 135.358 154.091
93.194 135.733 161.165
92.2954 131.994 159.028
92.2316 134.491 158.184
93.5865 136.221 157.035
92.9528 132.36 154.823
100.405 138.605 156.849
100.641 137.691 159.472
98.7259 139.677 160.051
95.2058 138.965 159.005
95.0095 138.796 162.822
96.8064 129.333 152.33
94.005 127.024 154.54
96.7315 128.756 155.064
92.324 128.994 153.787
92.3598 128.812 156.731
96.9082 136.015 161.212
96.6511 135.198 159.904
95.4315 135.386 160.647
96.6948 133.658 158.861
97.6764 134.858 159.092
98.2375 136.967 161.152
96.6388 137.075 162.457
94.3673 135.164 161.222
94.7514 133.725 160.162
95.0406 132.263 159.32
95.9456 132.28 158.601
95.1052 131.064 158.031
96.8799 132.222 157.854
93.8781 132.125 159.735
93.939 129.791 157.288
95.2578 129.899 156.758
95.7944 135.167 154.072
96.7362 135.276 153.263
96.5057 136.914 154.786
97.9137 135.26 152.916
96.9241 133.927 151.493
94.8613 134.106 153.009
94.8277 135.261 154.853
96.2724 138.366 156.288
97.7163 138.208 155.677
94.9311 131.134 150.438
95.8831 132.703 150.373
94.7585 132.627 151.653
97.637 132.596 150.228
95.4851 129.624 150.517
93.9046 129.731 151.424
94.1066 132.535 152.933
99.2465 133.365 157.279
100.069 134.124 156.633
99.0956 132.684 155.846
100.402 134.715 155.795
100.634 135.595 157.473
98.6405 134.23 158.171
98.1811 132.574 157.694
98.4631 131.195 155.095
98.9993 131.984 154.418
99.1806 132.677 153.495
99.9434 134.167 154.302
99.2825 133.701 152.818
100.397 135.87 155.35
98.8399 131.085 152.979
98.6601 132.962 151.356
98.8174 134.676 152.739
92.2378 133.636 160.318
92.1523 133.29 158.864
92.2288 135.104 159.953
92.4003 132.684 157.242
92.11 131.524 157.633
92.901 132.737 160.258
93.3343 134.598 160.977
93.3561 136.638 161.012
92.4892 136.026 159.207
92.6344 135.279 157.493
92.4663 133.438 156.426
93.3909 134.179 155.985
92.5599 131.61 155.531
93.5121 136.759 158.545
94.0604 134.913 155.601
93.3523 133.327 154.276
101.325 138.46 158.294
100.543 139.16 160.053
100.231 140.074 158.389
98.5933 139.002 161.424
99.5049 137.861 160.661
101.196 136.785 157.983
100.902 137.321 156.554
98.8899 139.094 157.021
98.1372 140.004 158.46
96.7603 139.728 159.718
96.7711 139.27 161.431
95.1385 139.182 160.939
96.8046 138.395 162.661
96.382 139.317 158.005
94.351 137.944 159.719
94.0479 138.04 161.51
95.6859 127.838 153.059
95.9048 127.265 154.577
97.0537 128.552 153.651
95.6737 128.418 155.911
94.3521 127.156 155.903
94.0973 127.95 152.802
95.7227 128.846 151.698
97.8657 129.717 153.154
97.6633 129.773 154.431
92.1312 128.462 155.432
92.5061 126.917 155.904
92.5697 127.535 153.991
93.3198 128.241 156.691
92.0996 129.971 156.548
92.3069 129.961 155.157
92.8411 128.463 152.431
98.9824 135.471 159.096
99.5843 136.587 160.061
100.523 136.076 158.895
100.2 137.133 155.308
99.0886 137.933 155.543
99.0061 136.297 154.215
96.2893 129.999 156.069
97.3137 131.131 156.812
97.3868 130.379 155.533
97.8773 130.28 151.917
98.2869 131.067 150.387
96.925 129.97 150.94
95.1631 137.366 163.785
94.0659 135.898 162.314
93.6143 137.431 162.916
94.2952 137.713 158.032
94.3145 136.894 156.236
95.2105 138.281 157.227
92.3015 130.228 157.813
92.8744 131.047 159.016
92.9862 129.636 157.798
92.8268 130.079 152.58
93.376 131.504 153.342
92.585 130.682 154.033
96.7304 135.682 160.482
95.9592 135.326 160.202
96.1567 135.67 161.015
95.5294 134.724 160.051
96.143 134.665 159.777
97.3639 135.562 160.072
97.5399 135.943 160.727
96.245 136.058 161.825
95.5852 135.686 161.494
96.6288 134.527 159.414
97.1668 135.053 159.529
97.145 134.337 159.06
97.9086 135.337 159.614
96.2288 133.885 159.254
97.1899 133.501 158.604
97.6311 134.154 158.638
97.5182 136.521 161.334
96.816 136.602 161.901
97.4046 136.98 161.82
96.0551 136.607 162.562
98.2575 136.369 160.784
98.1594 137.374 161.508
97.3957 137.499 162.198
94.9574 135.272 160.995
95.0377 134.654 160.37
94.5095 134.575 160.685
95.2792 133.82 159.919
94.9512 135.615 161.831
94.0154 134.478 160.778
94.3302 133.691 160.415
95.4876 132.291 158.943
95.511 131.691 158.278
95.0869 131.585 158.69
95.5526 131.106 157.602
96.043 131.665 158.001
95.9504 133.045 159.188
95.4117 133.016 159.498
94.525 131.533 158.952
94.5438 131.007 158.341
96.3758 132.246 158.196
96.3549 132.95 158.754
96.8141 132.845 158.433
96.4734 131.623 157.534
97.3287 132.779 158.161
94.9102 132.904 159.745
94.4549 132.097 159.527
94.3916 132.826 159.991
93.927 131.435 159.176
93.8669 132.848 160.127
94.559 130.437 157.673
95.1793 130.516 157.408
94.6569 129.887 157.084
95.6947 130.546 157.014
93.9626 130.35 157.937
94.1201 129.273 156.754
94.8736 129.236 156.572
96.2211 135.205 153.624
96.6243 136.006 154.07
96.0462 136.034 154.4
97.1406 136.782 154.562
97.1816 136.016 153.801
96.2901 134.692 152.675
95.8362 134.556 153.151
95.4947 136.148 154.787
95.8832 137.066 155.126
97.2985 135.252 153.035
96.7939 134.694 152.28
97.4015 134.651 152.17
96.3254 133.962 151.733
97.8587 135.97 153.675
97.9559 134.569 152.232
97.5049 133.92 151.491
95.3816 134.564 153.506
95.3113 135.14 154.45
94.9904 134.45 154.006
94.9773 136.237 155.124
95.309 134.037 152.566
94.5053 133.984 153.589
94.652 134.408 154.493
96.3611 137.714 155.43
97.0484 137.626 155.153
96.965 138.281 155.898
97.753 137.532 155.006
95.7444 137.773 155.848
96.826 138.85 156.685
97.5387 138.749 156.373
95.4424 131.923 150.34
95.3064 132.677 151.096
94.815 131.976 150.912
95.3249 133.217 151.851
95.7694 133.291 151.269
96.2932 131.859 149.943
95.7524 131.09 150.069
94.323 131.231 151.048
94.347 131.951 151.646
96.3881 133.309 150.854
96.7318 132.632 150.103
97.1228 133.345 150.718
97.2461 131.794 149.849
97.8704 133.288 150.874
95.1474 130.35 150.287
94.4299 130.425 150.844
94.5943 129.673 150.772
93.7922 130.512 151.528
96.0718 130.294 150.107
94.8455 129.141 150.952
94.0919 129.099 151.411
94.442 132.548 152.321
94.8674 133.301 152.315
94.3792 133.358 152.888
93.9822 131.926 152.305
94.0935 133.382 153.516
99.6924 133.732 156.973
99.5838 133.427 156.204
99.189 133.1 156.531
99.3511 133.123 155.478
99.8159 133.707 155.792
100.031 134.455 157.413
99.615 134.109 157.648
98.7191 132.697 156.808
98.7242 132.311 156.11
100.275 134.37 156.2
100.465 134.811 157.087
100.623 135.112 156.643
100.352 135.225 157.844
100.017 134.048 155.39
100.591 135.5 156.212
100.673 135.929 157.052
99.0514 133.738 157.814
98.738 132.943 157.505
98.5124 133.304 157.974
98.3478 132.12 157.129
99.2479 134.589 158.124
98.0483 133.855 158.261
97.8952 132.952 158.028
98.7974 131.912 155.459
99.0602 132.342 155.111
98.8103 131.614 154.793
99.1962 132.747 154.706
98.4471 131.478 155.744
98.3967 130.864 154.457
98.8964 131.209 154.132
99.6051 133.491 153.879
99.6622 133.934 153.538
99.2773 133.141 153.088
99.5276 134.497 153.342
99.8369 134.752 154.093
99.778 133.77 154.67
99.3825 133.067 154.267
99.1104 132.159 152.652
99.065 132.691 152.269
100.24 134.988 154.81
100.179 134.474 155.117
100.415 135.274 155.566
100.067 135.673 154.703
100.595 136.047 155.998
99.0834 132.32 153.969
99.0753 131.883 153.172
99.0336 131.5 153.705
98.8898 131.336 152.391
98.7701 130.784 153.52
98.9447 133.307 152.092
99.1593 134.223 152.692
98.6681 133.871 152.075
99.308 135.009 153.369
98.9219 132.253 151.432
98.3099 133.515 151.516
98.317 134.322 152.228
92.1533 133.426 159.628
92.1253 134.138 159.426
92.0645 134.426 160.105
92.0772 134.807 159.11
92.1949 133.928 158.603
92.1083 132.6 158.934
92.2765 132.696 159.665
92.7025 134.796 160.627
92.6665 135.485 160.581
92.2848 133.051 158.039
92.1843 132.401 158.182
92.2825 132.161 157.473
92.1964 131.779 158.299
92.3055 133.648 157.756
92.3682 131.832 156.76
92.281 131.262 156.966
92.566 133.059 160.472
92.907 134.141 160.867
93.1437 133.625 160.754
93.1201 135.155 161.029
92.5572 132.326 159.705
93.5015 133.124 160.566
93.6171 134.142 160.821
92.7315 135.943 160.489
92.291 135.61 159.685
92.8438 136.312 160.129
92.1814 135.306 158.755
93.2473 136.304 161.29
93.4778 136.875 160.505
93.0599 136.606 159.637
92.6972 134.341 156.978
92.8463 133.796 156.131
93.1007 134.66 156.691
93.0017 133.327 155.364
92.7119 132.873 155.621
92.4534 133.985 157.312
92.3743 134.901 157.822
93.066 135.751 157.237
93.4835 135.189 156.527
92.4978 132.538 155.97
92.3155 133.09 156.828
92.4018 132.173 156.388
92.7049 131.936 155.129
92.5334 131.288 155.965
92.3991 135.825 158.343
92.8547 136.162 157.971
92.9638 136.412 158.838
93.5151 136.496 157.757
93.5367 136.901 159.303
93.8428 134.498 155.829
93.3404 133.663 155.118
93.8169 134.007 154.969
93.1225 132.846 154.555
93.8335 135.603 156.3
94.2614 134.266 154.833
93.8205 133.674 154.171
101.2 138.962 159.196
100.69 139.787 159.286
100.959 139.317 158.325
99.6845 139.997 159.24
99.7282 139.589 160.018
100.72 138.376 159.699
101.238 138.135 159.039
101.003 138.663 157.47
100.422 139.382 157.573
99.5961 139.229 160.77
100.092 138.445 160.459
99.1962 138.507 161.168
100.141 137.763 160.084
98.7219 139.451 160.814
98.3681 138.332 161.656
98.7464 137.874 161.292
101.351 137.733 158.234
101.311 138.003 157.469
101.215 137.221 157.286
100.765 138.004 156.755
100.987 137.36 158.82
100.98 136.444 157.228
100.895 136.613 156.561
99.5802 139.699 157.733
99.1718 140.141 158.519
98.6042 139.69 157.692
98.5986 139.981 159.289
99.6675 138.907 157.021
98.1334 139.12 157.058
97.7714 139.526 157.76
96.7771 139.581 160.578
95.8791 139.369 161.256
95.9115 139.457 160.318
95.0324 139.123 161.921
95.9326 139.097 162.227
97.7351 139.5 160.712
97.7201 139.72 159.915
95.9551 139.41 159.46
95.1872 139.152 159.948
96.8625 139.008 162.165
97.7583 139.239 161.447
97.7514 138.774 162.027
96.0322 138.593 162.93
97.519 138.141 162.332
97.5658 139.926 159.129
96.6152 139.624 158.887
97.2197 139.748 158.312
95.8493 139.253 158.569
96.9179 139.282 157.483
94.5838 138.677 160.301
94.4086 138.798 161.284
94.195 138.078 160.606
94.3105 138.631 162.255
94.7086 138.529 159.399
93.9009 137.515 159.971
93.7694 137.587 160.809
95.7913 127.58 153.819
96.5198 127.836 153.965
96.4254 128.168 153.321
96.9545 128.468 154.391
96.5259 127.818 154.847
95.0103 127.137 154.525
94.8291 127.442 153.787
96.346 128.483 152.619
96.9015 128.838 152.956
95.9862 127.517 155.394
95.1321 127.062 155.231
95.1958 127.603 155.804
94.2061 126.783 155.262
96.3608 128.446 155.509
94.9718 128.408 156.208
94.4362 127.932 156.202
94.8827 127.83 152.89
95.655 128.382 152.307
94.9297 128.385 152.228
96.3692 129.062 151.968
94.0315 127.529 153.675
94.1729 128.384 152.129
95.005 128.777 151.593
97.4374 129.132 153.395
97.4173 129.057 154.127
97.8185 129.649 153.801
97.2243 129.182 154.675
97.3376 129.507 152.742
98.3022 130.171 153.671
97.9969 130.243 154.171
92.1877 127.621 155.575
92.5051 127.032 154.878
92.1886 127.814 154.726
93.1989 127.132 154.223
93.243 126.68 155.129
92.2929 127.781 156.336
92.1321 128.446 156.115
92.2 128.692 154.638
92.2077 128.231 153.921
93.4738 126.781 156.11
93.0041 127.433 156.639
93.7881 127.73 156.427
92.7391 128.375 156.777
93.8751 128.492 156.516
92.1097 129.161 155.96
92.2343 129.215 155.264
92.3414 129.866 155.897
92.2257 129.443 154.475
92.0923 129.322 156.591
92.3364 130.535 156.436
92.4741 130.499 155.749
92.6506 127.978 153.24
93.3127 127.654 153.437
93.4194 128.132 152.709
92.4909 128.7 153.13
93.5281 128.521 151.926
99.4332 135.905 159.604
100.16 136.328 159.504
99.8714 135.725 159.086
100.629 136.883 159.235
100.163 137.084 159.855
98.9543 136.145 160.24
98.6687 135.611 159.678
99.4177 135.277 158.6
100.173 135.588 158.507
99.589 137.3 160.397
98.9901 136.795 160.661
98.879 137.334 160.927
98.2791 135.252 159.086
98.7681 134.941 158.548
98.1661 134.622 158.584
100.701 135.863 158.238
100.944 136.522 158.517
100.916 136.191 157.783
99.7715 137.702 155.431
99.0403 137.169 154.919
99.5075 136.827 154.934
98.4483 136.51 154.303
98.3973 137.368 154.973
99.7506 138.403 156.238
100.29 137.914 156.081
99.7856 136.309 154.767
99.4055 135.926 154.11
98.3905 138.036 155.598
99.063 138.592 156.333
98.3102 138.685 156.332
100.557 137.3 155.921
100.298 136.553 155.285
100.636 136.657 155.933
98.933 135.455 153.492
98.4473 135.822 153.561
98.4387 135.059 152.886
96.7296 130.674 156.353
97.3285 130.871 156.167
96.7745 130.169 155.722
97.9218 131.124 155.981
97.8851 131.386 156.637
96.6735 131.123 156.958
96.1368 130.588 156.588
96.45 129.363 155.529
96.9394 129.633 155.14
97.7428 131.794 157.285
97.0987 131.653 157.386
97.49 132.368 157.754
95.7316 129.932 156.381
95.9845 129.147 155.956
95.3327 129.15 156.221
97.498 130.025 154.959
98.094 130.771 155.385
97.9706 130.433 154.708
98.2424 130.616 151.037
97.5681 130.46 150.556
97.3612 130.072 151.415
96.8549 130.296 150.171
97.4912 130.975 150.048
98.784 131.319 151.072
98.6016 130.931 151.809
97.2072 129.812 152.084
96.8106 129.66 151.67
98.0772 131.862 150.089
98.7281 131.988 150.694
98.3316 132.804 150.694
98.5275 130.592 152.421
97.7065 129.961 152.512
98.4373 130.243 153.024
96.3784 129.317 151.249
96.2655 129.609 150.545
95.6625 129.086 150.934
94.4449 136.593 163.197
93.8029 136.611 162.677
94.1569 137.582 163.582
93.4229 136.449 162.177
93.6141 135.729 161.77
94.7441 136.063 162.431
95.3424 136.53 163.121
94.9692 138.266 163.616
94.122 138.345 163.132
93.6844 135.392 161.417
94.1566 135.532 161.832
93.7458 135.035 161.195
95.9422 137.093 163.147
95.9362 137.962 163.349
96.6999 137.724 162.724
93.8094 137.881 162.35
93.4687 136.989 161.953
93.5812 137.347 161.476
94.3724 137.366 157.154
94.8314 137.612 156.773
94.7584 138.083 157.736
95.2772 137.706 156.314
94.7874 137.06 155.862
93.937 136.585 156.618
93.992 136.942 157.516
94.7435 138.312 158.598
95.1867 138.765 158.138
94.5682 136.066 155.553
94.1516 135.864 155.94
94.4158 135.097 155.185
93.9607 137.17 158.304
94.3833 137.757 158.892
94.0925 137.24 159.137
95.7742 138.818 157.676
95.6588 138.418 156.699
96.2421 138.89 157.118
92.5095 130.585 158.455
92.8702 130.236 158.289
92.5659 129.738 157.843
93.4286 130.299 158.13
93.3293 130.865 158.763
92.492 131.509 159.097
92.2717 131.179 158.424
92.1256 129.501 157.302
92.6067 129.157 157.33
93.3138 131.506 159.494
92.8666 131.883 159.658
93.2966 132.386 160.049
92.2193 130.881 157.795
92.1446 129.983 157.218
92.2587 130.587 157.117
93.1278 128.949 157.162
93.4331 129.591 157.576
93.5677 129.041 156.937
93.023 130.87 152.91
93.0307 131.125 153.691
92.5971 130.368 153.317
92.9418 131.498 154.412
93.1819 131.837 154.079
93.4641 131.413 152.52
93.2287 130.687 152.127
92.5494 129.54 153.121
92.3059 129.881 153.818
93.3499 132.327 153.774
93.783 131.984 153.107
93.6765 132.847 153.58
93.314 129.852 151.97
92.755 129.267 152.466
93.3872 129.112 151.933
92.344 130.277 154.544
92.6142 131.077 154.761
92.5701 130.747 155.253
POLYGONS 1280  5120
3 164 162 163
3 163 44 164
3 162 43 163
3 164 42 162
3 166 165 163
3 163 43 166
3 165 44 163
3 166 14 165
3 168 167 162
3 162 42 168
3 167 43 162
3 168 13 167
3 170 169 164
3 164 44 170
3 169 42 164
3 170 12 169
3 173 171 172
3 172 46 173
3 171 43 172
3 173 45 171
3 167 174 172
3 172 43 167
3 174 46 172
3 167 13 174
3 175 166 171
3 171 45 175
3 166 43 171
3 175 14 166
3 177 176 173
3 173 46 177
3 176 45 173
3 177 4 176
3 180 178 179
3 179 48 180
3 178 42 179
3 180 47 178
3 169 181 179
3 179 42 169
3 181 48 179
3 169 12 181
3 182 168 178
3 178 47 182
3 168 42 178
3 182 13 168
3 184 183 180
3 180 48 184
3 183 47 180
3 184 8 183
3 187 185 186
3 186 50 187
3 185 44 186
3 187 49 185
3 165 188 186
3 186 44 165
3 188 50 186
3 165 14 188
3 189 170 185
3 185 49 189
3 170 44 185
3 189 12 170
3 191 190 187
3 187 50 191
3 190 49 187
3 191 7 190
3 194 192 193
3 193 53 194
3 192 52 193
3 194 51 192
3 196 195 193
3 193 52 196
3 195 53 193
3 196 16 195
3 198 197 192
3 192 51 198
3 197 52 192
3 198 14 197
3 200 199 194
3 194 53 200
3 199 51 194
3 200 15 199
3 203 201 202
3 202 45 203
3 201 52 202
3 203 54 201
3 197 175 202
3 202 52 197
3 175 45 202
3 197 14 175
3 204 196 201
3 201 54 204
3 196 52 201
3 204 16 196
3 176 205 203
3 203 45 176
3 205 54 203
3 176 4 205
3 208 206 207
3 207 55 208
3 206 51 207
3 208 50 206
3 199 209 207
3 207 51 199
3 209 55 207
3 199 15 209
3 188 198 206
3 206 50 188
3 198 51 206
3 188 14 198
3 210 191 208
3 208 55 210
3 191 50 208
3 210 7 191
3 213 211 212
3 212 57 213
3 211 53 212
3 213 56 211
3 195 214 212
3 212 53 195
3 214 57 212
3 195 16 214
3 215 200 211
3 211 56 215
3 200 53 211
3 215 15 200
3 217 216 213
3 213 57 217
3 216 56 213
3 217 9 216
3 220 218 219
3 219 60 220
3 218 59 219
3 220 58 218
3 222 221 219
3 219 59 222
3 221 60 219
3 222 19 221
3 224 223 218
3 218 58 224
3 223 59 218
3 224 18 223
3 226 225 220
3 220 60 226
3 225 58 220
3 226 17 225
3 229 227 228
3 228 62 229
3 227 59 228
3 229 61 227
3 223 230 228
3 228 59 223
3 230 62 228
3 223 18 230
3 231 222 227
3 227 61 231
3 222 59 227
3 231 19 222
3 233 232 229
3 229 62 233
3 232 61 229
3 233 5 232
3 236 234 235
3 235 64 236
3 234 58 235
3 236 63 234
3 225 237 235
3 235 58 225
3 237 64 235
3 225 17 237
3 238 224 234
3 234 63 238
3 224 58 234
3 238 18 224
3 240 239 236
3 236 64 240
3 239 63 236
3 240 6 239
3 243 241 242
3 242 66 243
3 241 60 242
3 243 65 241
3 221 244 242
3 242 60 221
3 244 66 242
3 221 19 244
3 245 226 241
3 241 65 245
3 226 60 241
3 245 17 226
3 247 246 243
3 243 66 247
3 246 65 243
3 247 11 246
3 250 248 249
3 249 69 250
3 248 68 249
3 250 67 248
3 252 251 249
3 249 68 252
3 251 69 249
3 252 18 251
3 254 253 248
3 248 67 254
3 253 68 248
3 254 21 253
3 256 255 250
3 250 69 256
3 255 67 250
3 256 20 255
3 259 257 258
3 258 70 259
3 257 68 258
3 259 62 257
3 253 260 258
3 258 68 253
3 260 70 258
3 253 21 260
3 230 252 257
3 257 62 230
3 252 68 257
3 230 18 252
3 261 233 259
3 259 70 261
3 233 62 259
3 261 5 233
3 264 262 263
3 263 72 264
3 262 67 263
3 264 71 262
3 255 265 263
3 263 67 255
3 265 72 263
3 255 20 265
3 266 254 262
3 262 71 266
3 254 67 262
3 266 21 254
3 268 267 264
3 264 72 268
3 267 71 264
3 268 10 267
3 271 269 270
3 270 63 271
3 269 69 270
3 271 73 269
3 251 238 270
3 270 69 251
3 238 63 270
3 251 18 238
3 272 256 269
3 269 73 272
3 256 69 269
3 272 20 256
3 239 273 271
3 271 63 239
3 273 73 271
3 239 6 273
3 276 274 275
3 275 76 276
3 274 75 275
3 276 74 274
3 278 277 275
3 275 75 278
3 277 76 275
3 278 24 277
3 280 279 274
3 274 74 280
3 279 75 274
3 280 23 279
3 282 281 276
3 276 76 282
3 281 74 276
3 282 22 281
3 285 283 284
3 284 78 285
3 283 75 284
3 285 77 283
3 279 286 284
3 284 75 279
3 286 78 284
3 279 23 286
3 287 278 283
3 283 77 287
3 278 75 283
3 287 24 278
3 289 288 285
3 285 78 289
3 288 77 285
3 289 0 288
3 292 290 291
3 291 80 292
3 290 74 291
3 292 79 290
3 281 293 291
3 291 74 281
3 293 80 291
3 281 22 293
3 294 280 290
3 290 79 294
3 280 74 290
3 294 23 280
3 296 295 292
3 292 80 296
3 295 79 292
3 296 4 295
3 299 297 298
3 298 82 299
3 297 76 298
3 299 81 297
3 277 300 298
3 298 76 277
3 300 82 298
3 277 24 300
3 301 282 297
3 297 81 301
3 282 76 297
3 301 22 282
3 303 302 299
3 299 82 303
3 302 81 299
3 303 3 302
3 306 304 305
3 305 85 306
3 304 84 305
3 306 83 304
3 308 307 305
3 305 84 308
3 307 85 305
3 308 26 307
3 310 309 304
3 304 83 310
3 309 84 304
3 310 24 309
3 312 311 306
3 306 85 312
3 311 83 306
3 312 25 311
3 315 313 314
3 314 77 315
3 313 84 314
3 315 86 313
3 309 287 314
3 314 84 309
3 287 77 314
3 309 24 287
3 316 308 313
3 313 86 316
3 308 84 313
3 316 26 308
3 288 317 315
3 315 77 288
3 317 86 315
3 288 0 317
3 320 318 319
3 319 87 320
3 318 83 319
3 320 82 318
3 311 321 319
3 319 83 311
3 321 87 319
3 311 25 321
3 300 310 318
3 318 82 300
3 310 83 318
3 300 24 310
3 322 303 320
3 320 87 322
3 303 82 320
3 322 3 303
3 325 323 324
3 324 89 325
3 323 85 324
3 325 88 323
3 307 326 324
3 324 85 307
3 326 89 324
3 307 26 326
3 327 312 323
3 323 88 327
3 312 85 323
3 327 25 312
3 329 328 325
3 325 89 329
3 328 88 325
3 329 5 328
3 332 330 331
3 331 92 332
3 330 91 331
3 332 90 330
3 334 333 331
3 331 91 334
3 333 92 331
3 334 29 333
3 336 335 330
3 330 90 336
3 335 91 330
3 336 28 335
3 338 337 332
3 332 92 338
3 337 90 332
3 338 27 337
3 341 339 340
3 340 94 341
3 339 91 340
3 341 93 339
3 335 342 340
3 340 91 335
3 342 94 340
3 335 28 342
3 343 334 339
3 339 93 343
3 334 91 339
3 343 29 334
3 345 344 341
3 341 94 345
3 344 93 341
3 345 2 344
3 348 346 347
3 347 96 348
3 346 90 347
3 348 95 346
3 337 349 347
3 347 90 337
3 349 96 347
3 337 27 349
3 350 336 346
3 346 95 350
3 336 90 346
3 350 28 336
3 352 351 348
3 348 96 352
3 351 95 348
3 352 7 351
3 355 353 354
3 354 98 355
3 353 92 354
3 355 97 353
3 333 356 354
3 354 92 333
3 356 98 354
3 333 29 356
3 357 338 353
3 353 97 357
3 338 92 353
3 357 27 338
3 359 358 355
3 355 98 359
3 358 97 355
3 359 1 358
3 362 360 361
3 361 101 362
3 360 100 361
3 362 99 360
3 364 363 361
3 361 100 364
3 363 101 361
3 364 31 363
3 366 365 360
3 360 99 366
3 365 100 360
3 366 29 365
3 368 367 362
3 362 101 368
3 367 99 362
3 368 30 367
3 371 369 370
3 370 93 371
3 369 100 370
3 371 102 369
3 365 343 370
3 370 100 365
3 343 93 370
3 365 29 343
3 372 364 369
3 369 102 372
3 364 100 369
3 372 31 364
3 344 373 371
3 371 93 344
3 373 102 371
3 344 2 373
3 376 374 375
3 375 103 376
3 374 99 375
3 376 98 374
3 367 377 375
3 375 99 367
3 377 103 375
3 367 30 377
3 356 366 374
3 374 98 356
3 366 99 374
3 356 29 366
3 378 359 376
3 376 103 378
3 359 98 376
3 378 1 359
3 381 379 380
3 380 105 381
3 379 101 380
3 381 104 379
3 363 382 380
3 380 101 363
3 382 105 380
3 363 31 382
3 383 368 379
3 379 104 383
3 368 101 379
3 383 30 368
3 385 384 381
3 381 105 385
3 384 104 381
3 385 6 384
3 388 386 387
3 387 108 388
3 386 107 387
3 388 106 386
3 390 389 387
3 387 107 390
3 389 108 387
3 390 34 389
3 392 391 386
3 386 106 392
3 391 107 386
3 392 33 391
3 394 393 388
3 388 108 394
3 393 106 388
3 394 32 393
3 397 395 396
3 396 110 397
3 395 107 396
3 397 109 395
3 391 398 396
3 396 107 391
3 398 110 396
3 391 33 398
3 399 390 395
3 395 109 399
3 390 107 395
3 399 34 390
3 401 400 397
3 397 110 401
3 400 109 397
3 401 8 400
3 404 402 403
3 403 112 404
3 402 106 403
3 404 111 402
3 393 405 403
3 403 106 393
3 405 112 403
3 393 32 405
3 406 392 402
3 402 111 406
3 392 106 402
3 406 33 392
3 408 407 404
3 404 112 408
3 407 111 404
3 408 0 407
3 411 409 410
3 410 114 411
3 409 108 410
3 411 113 409
3 389 412 410
3 410 108 389
3 412 114 410
3 389 34 412
3 413 394 409
3 409 113 413
3 394 108 409
3 413 32 394
3 415 414 411
3 411 114 415
3 414 113 411
3 415 11 414
3 418 416 417
3 417 117 418
3 416 116 417
3 418 115 416
3 420 419 417
3 417 116 420
3 419 117 417
3 420 36 419
3 422 421 416
3 416 115 422
3 421 116 416
3 422 34 421
3 424 423 418
3 418 117 424
3 423 115 418
3 424 35 423
3 427 425 426
3 426 109 427
3 425 116 426
3 427 118 425
3 421 399 426
3 426 116 421
3 399 109 426
3 421 34 399
3 428 420 425
3 425 118 428
3 420 116 425
3 428 36 420
3 400 429 427
3 427 109 400
3 429 118 427
3 400 8 429
3 432 430 431
3 431 119 432
3 430 115 431
3 432 114 430
3 423 433 431
3 431 115 423
3 433 119 431
3 423 35 433
3 412 422 430
3 430 114 412
3 422 115 430
3 412 34 422
3 434 415 432
3 432 119 434
3 415 114 432
3 434 11 415
3 437 435 436
3 436 121 437
3 435 117 436
3 437 120 435
3 419 438 436
3 436 117 419
3 438 121 436
3 419 36 438
3 439 424 435
3 435 120 439
3 424 117 435
3 439 35 424
3 441 440 437
3 437 121 441
3 440 120 437
3 441 1 440
3 444 442 443
3 443 124 444
3 442 123 443
3 444 122 442
3 446 445 443
3 443 123 446
3 445 124 443
3 446 39 445
3 448 447 442
3 442 122 448
3 447 123 442
3 448 38 447
3 450 449 444
3 444 124 450
3 449 122 444
3 450 37 449
3 453 451 452
3 452 126 453
3 451 123 452
3 453 125 451
3 447 454 452
3 452 123 447
3 454 126 452
3 447 38 454
3 455 446 451
3 451 125 455
3 446 123 451
3 455 39 446
3 457 456 453
3 453 126 457
3 456 125 453
3 457 9 456
3 460 458 459
3 459 128 460
3 458 122 459
3 460 127 458
3 449 461 459
3 459 122 449
3 461 128 459
3 449 37 461
3 462 448 458
3 458 127 462
3 448 122 458
3 462 38 448
3 464 463 460
3 460 128 464
3 463 127 460
3 464 10 463
3 467 465 466
3 466 130 467
3 465 124 466
3 467 129 465
3 445 468 466
3 466 124 445
3 468 130 466
3 445 39 468
3 469 450 465
3 465 129 469
3 450 124 465
3 469 37 450
3 471 470 467
3 467 130 471
3 470 129 467
3 471 3 470
3 474 472 473
3 473 133 474
3 472 132 473
3 474 131 472
3 476 475 473
3 473 132 476
3 475 133 473
3 476 38 475
3 478 477 472
3 472 131 478
3 477 132 472
3 478 41 477
3 480 479 474
3 474 133 480
3 479 131 474
3 480 40 479
3 483 481 482
3 482 134 483
3 481 132 482
3 483 126 481
3 477 484 482
3 482 132 477
3 484 134 482
3 477 41 484
3 454 476 481
3 481 126 454
3 476 132 481
3 454 38 476
3 485 457 483
3 483 134 485
3 457 126 483
3 485 9 457
3 488 486 487
3 487 136 488
3 486 131 487
3 488 135 486
3 479 489 487
3 487 131 479
3 489 136 487
3 479 40 489
3 490 478 486
3 486 135 490
3 478 131 486
3 490 41 478
3 492 491 488
3 488 136 492
3 491 135 488
3 492 2 491
3 495 493 494
3 494 127 495
3 493 133 494
3 495 137 493
3 475 462 494
3 494 133 475
3 462 127 494
3 475 38 462
3 496 480 493
3 493 137 496
3 480 133 493
3 496 40 480
3 463 497 495
3 495 127 463
3 497 137 495
3 463 10 497
3 500 498 499
3 499 140 500
3 498 139 499
3 500 138 498
3 502 501 499
3 499 139 502
3 501 140 499
3 502 33 501
3 504 503 498
3 498 138 504
3 503 139 498
3 504 13 503
3 506 505 500
3 500 140 506
3 505 138 500
3 506 23 505
3 509 507 508
3 508 47 509
3 507 139 508
3 509 110 507
3 503 182 508
3 508 139 503
3 182 47 508
3 503 13 182
3 398 502 507
3 507 110 398
3 502 139 507
3 398 33 502
3 183 401 509
3 509 47 183
3 401 110 509
3 183 8 401
3 512 510 511
3 511 79 512
3 510 138 511
3 512 46 510
3 505 294 511
3 511 138 505
3 294 79 511
3 505 23 294
3 174 504 510
3 510 46 174
3 504 138 510
3 174 13 504
3 295 177 512
3 512 79 295
3 177 46 512
3 295 4 177
3 515 513 514
3 514 111 515
3 513 140 514
3 515 78 513
3 501 406 514
3 514 140 501
3 406 111 514
3 501 33 406
3 286 506 513
3 513 78 286
3 506 140 513
3 286 23 506
3 407 289 515
3 515 111 407
3 289 78 515
3 407 0 289
3 518 516 517
3 517 143 518
3 516 142 517
3 518 141 516
3 520 519 517
3 517 142 520
3 519 143 517
3 520 19 519
3 522 521 516
3 516 141 522
3 521 142 516
3 522 32 521
3 524 523 518
3 518 143 524
3 523 141 518
3 524 26 523
3 527 525 526
3 526 113 527
3 525 142 526
3 527 66 525
3 521 413 526
3 526 142 521
3 413 113 526
3 521 32 413
3 244 520 525
3 525 66 244
3 520 142 525
3 244 19 520
3 414 247 527
3 527 113 414
3 247 66 527
3 414 11 247
3 530 528 529
3 529 86 530
3 528 141 529
3 530 112 528
3 523 316 529
3 529 141 523
3 316 86 529
3 523 26 316
3 405 522 528
3 528 112 405
3 522 141 528
3 405 32 522
3 317 408 530
3 530 86 317
3 408 112 530
3 317 0 408
3 533 531 532
3 532 61 533
3 531 143 532
3 533 89 531
3 519 231 532
3 532 143 519
3 231 61 532
3 519 19 231
3 326 524 531
3 531 89 326
3 524 143 531
3 326 26 524
3 232 329 533
3 533 61 232
3 329 89 533
3 232 5 329
3 536 534 535
3 535 146 536
3 534 145 535
3 536 144 534
3 538 537 535
3 535 145 538
3 537 146 535
3 538 22 537
3 540 539 534
3 534 144 540
3 539 145 534
3 540 16 539
3 542 541 536
3 536 146 542
3 541 144 536
3 542 39 541
3 545 543 544
3 544 54 545
3 543 145 544
3 545 80 543
3 539 204 544
3 544 145 539
3 204 54 544
3 539 16 204
3 293 538 543
3 543 80 293
3 538 145 543
3 293 22 538
3 205 296 545
3 545 54 205
3 296 80 545
3 205 4 296
3 548 546 547
3 547 125 548
3 546 144 547
3 548 57 546
3 541 455 547
3 547 144 541
3 455 125 547
3 541 39 455
3 214 540 546
3 546 57 214
3 540 144 546
3 214 16 540
3 456 217 548
3 548 125 456
3 217 57 548
3 456 9 217
3 551 549 550
3 550 81 551
3 549 146 550
3 551 130 549
3 537 301 550
3 550 146 537
3 301 81 550
3 537 22 301
3 468 542 549
3 549 130 468
3 542 146 549
3 468 39 542
3 302 471 551
3 551 81 302
3 471 130 551
3 302 3 471
3 554 552 553
3 553 149 554
3 552 148 553
3 554 147 552
3 556 555 553
3 553 148 556
3 555 149 553
3 556 21 555
3 558 557 552
3 552 147 558
3 557 148 552
3 558 25 557
3 560 559 554
3 554 149 560
3 559 147 554
3 560 37 559
3 563 561 562
3 562 88 563
3 561 148 562
3 563 70 561
3 557 327 562
3 562 148 557
3 327 88 562
3 557 25 327
3 260 556 561
3 561 70 260
3 556 148 561
3 260 21 556
3 328 261 563
3 563 88 328
3 261 70 563
3 328 5 261
3 566 564 565
3 565 129 566
3 564 147 565
3 566 87 564
3 559 469 565
3 565 147 559
3 469 129 565
3 559 37 469
3 321 558 564
3 564 87 321
3 558 147 564
3 321 25 558
3 470 322 566
3 566 129 470
3 322 87 566
3 470 3 322
3 569 567 568
3 568 71 569
3 567 149 568
3 569 128 567
3 555 266 568
3 568 149 555
3 266 71 568
3 555 21 266
3 461 560 567
3 567 128 461
3 560 149 567
3 461 37 560
3 267 464 569
3 569 71 267
3 464 128 569
3 267 10 464
3 572 570 571
3 571 152 572
3 570 151 571
3 572 150 570
3 574 573 571
3 571 151 574
3 573 152 571
3 574 27 573
3 576 575 570
3 570 150 576
3 575 151 570
3 576 12 575
3 578 577 572
3 572 152 578
3 577 150 572
3 578 36 577
3 581 579 580
3 580 49 581
3 579 151 580
3 581 96 579
3 575 189 580
3 580 151 575
3 189 49 580
3 575 12 189
3 349 574 579
3 579 96 349
3 574 151 579
3 349 27 574
3 190 352 581
3 581 49 190
3 352 96 581
3 190 7 352
3 584 582 583
3 583 118 584
3 582 150 583
3 584 48 582
3 577 428 583
3 583 150 577
3 428 118 583
3 577 36 428
3 181 576 582
3 582 48 181
3 576 150 582
3 181 12 576
3 429 184 584
3 584 118 429
3 184 48 584
3 429 8 184
3 587 585 586
3 586 97 587
3 585 152 586
3 587 121 585
3 573 357 586
3 586 152 573
3 357 97 586
3 573 27 357
3 438 578 585
3 585 121 438
3 578 152 585
3 438 36 578
3 358 441 587
3 587 97 358
3 441 121 587
3 358 1 441
3 590 588 589
3 589 155 590
3 588 154 589
3 590 153 588
3 592 591 589
3 589 154 592
3 591 155 589
3 592 17 591
3 594 593 588
3 588 153 594
3 593 154 588
3 594 30 593
3 596 595 590
3 590 155 596
3 595 153 590
3 596 35 595
3 599 597 598
3 598 104 599
3 597 154 598
3 599 64 597
3 593 383 598
3 598 154 593
3 383 104 598
3 593 30 383
3 237 592 597
3 597 64 237
3 592 154 597
3 237 17 592
3 384 240 599
3 599 104 384
3 240 64 599
3 384 6 240
3 602 600 601
3 601 120 602
3 600 153 601
3 602 103 600
3 595 439 601
3 601 153 595
3 439 120 601
3 595 35 439
3 377 594 600
3 600 103 377
3 594 153 600
3 377 30 594
3 440 378 602
3 602 120 440
3 378 103 602
3 440 1 378
3 605 603 604
3 604 65 605
3 603 155 604
3 605 119 603
3 591 245 604
3 604 155 591
3 245 65 604
3 591 17 245
3 433 596 603
3 603 119 433
3 596 155 603
3 433 35 596
3 246 434 605
3 605 65 246
3 434 119 605
3 246 11 434
3 608 606 607
3 607 158 608
3 606 157 607
3 608 156 606
3 610 609 607
3 607 157 610
3 609 158 607
3 610 15 609
3 612 611 606
3 606 156 612
3 611 157 606
3 612 28 611
3 614 613 608
3 608 158 614
3 613 156 608
3 614 41 613
3 617 615 616
3 616 95 617
3 615 157 616
3 617 55 615
3 611 350 616
3 616 157 611
3 350 95 616
3 611 28 350
3 209 610 615
3 615 55 209
3 610 157 615
3 209 15 610
3 351 210 617
3 617 95 351
3 210 55 617
3 351 7 210
3 620 618 619
3 619 135 620
3 618 156 619
3 620 94 618
3 613 490 619
3 619 156 613
3 490 135 619
3 613 41 490
3 342 612 618
3 618 94 342
3 612 156 618
3 342 28 612
3 491 345 620
3 620 135 491
3 345 94 620
3 491 2 345
3 623 621 622
3 622 56 623
3 621 158 622
3 623 134 621
3 609 215 622
3 622 158 609
3 215 56 622
3 609 15 215
3 484 614 621
3 621 134 484
3 614 158 621
3 484 41 614
3 216 485 623
3 623 56 216
3 485 134 623
3 216 9 485
3 626 624 625
3 625 161 626
3 624 160 625
3 626 159 624
3 628 627 625
3 625 160 628
3 627 161 625
3 628 31 627
3 630 629 624
3 624 159 630
3 629 160 624
3 630 20 629
3 632 631 626
3 626 161 632
3 631 159 626
3 632 40 631
3 635 633 634
3 634 73 635
3 633 160 634
3 635 105 633
3 629 272 634
3 634 160 629
3 272 73 634
3 629 20 272
3 382 628 633
3 633 105 382
3 628 160 633
3 382 31 628
3 273 385 635
3 635 73 273
3 385 105 635
3 273 6 385
3 638 636 637
3 637 137 638
3 636 159 637
3 638 72 636
3 631 496 637
3 637 159 631
3 496 137 637
3 631 40 496
3 265 630 636
3 636 72 265
3 630 159 636
3 265 20 630
3 497 268 638
3 638 137 497
3 268 72 638
3 497 10 268
3 641 639 640
3 640 102 641
3 639 161 640
3 641 136 639
3 627 372 640
3 640 161 627
3 372 102 640
3 627 31 372
3 489 632 639
3 639 136 489
3 632 161 639
3 489 40 632
3 373 492 641
3 641 102 373
3 492 136 641
3 373 2 492
