# vtk DataFile Version 3.0
this file was written using fslvtkio
ASCII
DATASET POLYDATA
POINTS 664 float
64.5429 118.8 134.652
62.9015 118.579 134.755
63.7541 116.928 134.722
65.6739 116.795 134.888
66.445 118.275 134.82
67.0244 116.863 135.094
62.6444 120.378 135.158
60.8107 119.945 135.792
61.5625 118.742 135.139
64.4908 120.829 135.152
66.0662 120.124 135.126
67.8534 117.746 135.196
67.61 119.412 135.396
68.6883 118.195 135.521
68.9299 119.021 135.872
69.7759 117.931 135.823
61.9564 121.988 136.136
60.555 121.432 137.166
63.7695 122.399 135.659
65.824 122.199 135.737
67.4069 121.281 135.902
68.8406 120.159 136.1
70.2787 118.827 136.227
61.7458 123.268 137.325
61.5494 122.468 138.492
63.4145 123.837 136.863
65.6275 123.88 136.574
67.6296 123.258 136.429
68.9657 121.757 136.579
70.3918 120.281 136.672
63.4144 123.629 138.368
65.5036 124.033 138.169
67.6363 123.969 137.876
69.5596 123.136 137.597
70.4196 121.581 137.346
62.0135 117.528 134.797
60.1264 117.463 135.203
61.6159 116.301 134.776
62.9019 115.394 134.663
65.0557 115.091 134.874
67.293 115.396 135.328
68.1376 116.565 135.452
68.8399 115.638 135.676
59.5909 119.502 136.732
69.4253 116.9 135.721
71.1316 117.191 136.074
60.3093 120.753 138.568
71.8651 118.775 136.653
61.9038 121.491 139.388
71.6113 120.606 137.33
63.4214 122.483 139.303
65.3965 123.139 139.385
67.3912 123.507 139.338
69.5599 123.449 138.994
71.4871 122.405 138.506
61.5266 112.511 134.673
59.94 111.873 134.77
61.2454 111.198 134.848
62.4702 110.916 135.074
63.4124 112.253 134.864
64.0105 111.015 135.33
60.5117 114.618 134.623
58.6847 113.784 134.807
62.7834 113.869 134.773
64.783 112.016 135.196
64.8875 113.504 135.185
66.0558 112.449 135.279
58.7109 115.876 135.304
57.32 116.085 136.997
57.3738 114.404 135.722
66.9956 113.923 135.426
69.7806 114.085 135.639
70.293 115.759 135.883
71.8027 115.699 136.202
58.6537 117.786 136.568
58.2412 117.45 138.102
72.9383 117.283 136.445
59.2862 119.022 138.112
59.1812 117.979 139.411
73.3059 118.605 136.839
72.9239 119.856 137.295
74.5219 119.543 137.266
60.2018 119.458 139.297
61.4147 120.397 140.14
72.7208 121.148 138.068
74.3931 120.64 138.036
63.4227 121.335 140.101
65.2608 122.024 140.274
67.2167 122.415 140.277
69.3361 122.865 140.229
71.5402 122.784 139.979
73.5559 121.872 139.358
61.2033 109.702 135.1
59.4697 108.827 135.043
60.2855 107.731 135.068
62.2029 107.743 135.213
63.6527 109.546 135.423
64.2938 107.716 135.929
65.905 108.983 135.911
66.4978 107.267 136.679
58.7867 110.321 135.065
57.381 109.333 135.739
58.3343 108.841 135.226
65.6184 110.734 135.482
68.0338 108.779 135.895
67.7701 110.577 135.653
69.2938 109.85 135.685
69.8006 111.187 135.554
70.736 110.61 135.851
56.8906 111.318 136.284
56.0287 111.625 138.059
56.2083 109.961 137.119
57.7593 112.478 135.339
67.6245 112.376 135.399
69.4273 112.233 135.485
71.4092 112.593 135.939
56.4867 113.569 137.103
56.1606 113.338 139.089
72.6677 114.379 136.262
74.2845 116.673 136.642
74.709 115.522 136.627
75.9536 116.855 136.893
76.2456 115.983 137.1
56.7539 115.081 138.452
57.9279 116.36 139.284
74.7754 118.324 136.953
76.5206 118.198 137.12
77.5253 117.281 137.571
59.5496 116.991 140.553
76.3012 119.833 137.753
77.9968 119.033 138.217
60.577 118.677 140.407
61.9444 119.315 141.069
75.5649 121.138 138.89
77.3341 120.605 139.274
63.1966 120.306 140.79
64.8569 120.763 140.705
66.8554 121.033 141.026
68.9413 121.584 140.894
71.077 121.882 141.005
73.3241 121.855 140.79
75.5449 121.548 140.306
58.7795 105.645 135.818
57.0534 105.573 136.561
57.9907 104.422 136.419
59.8268 104.445 135.978
60.6829 106.127 135.443
61.7724 104.634 136.052
62.9327 106.215 135.826
63.7936 104.859 136.658
64.8086 106.332 136.536
66.0048 105.19 137.247
58.2871 107.272 135.501
56.6116 106.937 136.784
67.8091 106.332 137.507
56.4804 108.329 136.563
55.5605 109.406 138.762
55.7111 107.556 137.871
68.6546 107.669 136.928
70.1986 108.955 136.31
71.9336 110.727 136.43
55.8146 111.43 139.959
72.9432 112.098 136.714
56.6422 113.068 140.838
73.6932 113.422 136.821
75.2047 114.68 137.028
76.8577 115.743 137.974
57.3298 114.699 140.04
58.8664 115.563 140.953
78.3541 117.575 138.914
60.7087 116.266 141.597
78.5586 119.435 139.993
61.2981 117.641 141.166
62.6461 118.268 141.617
67.636 120.103 141.746
67.3854 118.88 141.826
66.5009 119.832 141.698
68.5052 119.255 141.855
77.126 120.755 141.041
63.4369 119.335 141.481
65.097 119.789 141.511
68.6642 120.527 141.66
70.4762 120.832 141.803
72.6683 120.988 141.82
74.8475 121.042 141.695
59.5258 101.648 137.046
58.3546 100.449 137.524
59.5458 100.211 137.288
60.7716 100.185 137.223
61.5867 101.805 136.977
62.5659 100.273 137.381
63.3713 102.149 137.416
64.0468 100.621 137.874
64.8267 102.262 137.869
65.5673 101.267 138.45
57.4216 102.079 137.46
55.9428 102.2 138.625
56.7581 100.739 138.293
58.4907 103.184 136.714
60.5585 103.126 136.509
62.563 103.384 136.712
64.583 103.625 137.371
66.3181 103.268 138.044
56.4874 103.882 137.501
55.1568 104.342 139.096
67.6385 104.898 138.05
55.8512 105.883 138.062
55.2612 107.369 139.498
68.7208 105.905 138.287
55.9395 109.626 140.953
69.4733 106.945 138.024
70.798 107.843 137.471
71.9681 109.327 137.084
73.2153 111.25 137.324
72.8574 110.388 138.115
56.4836 111.389 141.531
74.1111 112.694 137.554
74.058 112.378 138.694
57.7254 112.528 142.025
75.5064 114.108 138.128
77.0973 115.783 139.24
58.2668 114.08 141.395
60.0855 114.834 142.258
78.1215 117.472 140.503
62.1043 115.366 142.297
62.893 116.835 141.775
64.8537 116.991 141.98
64.0428 115.461 142.186
66.6034 116.878 142.034
65.6595 115.643 142.195
68.3194 117.514 141.83
67.3331 115.474 142.333
70.5352 117.903 141.945
69.3401 116.223 142.127
72.5218 118.326 142.218
71.3887 116.557 141.903
73.0586 116.807 141.85
77.459 119.107 141.562
64.2639 118.349 141.877
66.0603 118.337 141.894
69.7541 119.275 141.992
71.7535 119.786 142.262
74.1242 118.213 142.325
73.9796 119.853 142.437
76.0049 120.113 142.068
75.6885 118.556 142.311
59.6088 98.8204 137.561
57.9039 97.9942 137.898
58.9914 97.2438 138.005
60.7976 97.2755 137.881
61.7357 98.8454 137.767
62.8507 97.4994 138.128
63.6311 98.9334 138.168
65.3354 97.9226 138.736
64.9678 99.6782 138.435
66.3371 99.5614 138.888
57.456 99.3146 137.993
55.6454 99.7118 139.343
56.4762 98.186 138.715
66.8197 101.414 138.694
55.1646 101.624 140.198
67.4897 102.444 138.758
67.9798 103.671 138.675
68.5514 102.5 139.309
54.9018 103.582 140.413
55.3782 104.121 141.634
55.159 102.644 141.251
68.9233 105.189 139.06
68.8257 104.211 139.704
55.1284 105.586 140.504
55.764 105.798 142.03
69.7416 106.35 139.04
69.7496 106.289 140.203
55.6997 107.576 141.317
56.2818 107.189 142.675
70.8607 107.338 139.233
72.064 108.583 138.381
73.0577 110.3 139.07
56.8797 108.928 142.343
57.6603 110.637 142.61
73.3535 111.547 139.757
58.8282 111.893 142.91
75.4677 114.341 139.476
73.9205 113.163 139.957
59.1985 113.452 142.517
60.7272 113.524 142.844
68.7539 114.58 142.199
68.4422 113.129 142.14
67.323 113.516 142.397
70.6862 114.886 141.778
69.5852 113.188 141.87
72.8258 115.155 141.258
71.2927 113.394 141.298
74.6897 115.036 140.657
72.8134 113.42 140.669
76.4279 115.76 140.381
61.7473 114.259 142.723
63.3897 114.15 142.847
65.5281 114.158 142.624
74.6214 116.535 141.602
76.4705 116.907 141.484
60.2244 94.0662 138.526
58.4762 93.5629 138.682
59.3776 92.3649 139.252
61.7143 93.0441 139.055
62.4622 94.6185 138.408
63.4058 93.8601 139.245
64.2545 95.3056 139.07
65.1261 94.3681 139.675
58.177 94.9448 138.536
56.3938 95.5087 139.537
57.1507 94.0678 139.08
59.5392 95.9738 138.391
61.4371 95.917 138.385
63.5759 96.404 138.65
66.0082 95.7153 139.582
65.5031 96.5928 139.162
67.6016 96.8965 139.681
57.2364 96.6608 138.692
55.6404 97.5458 140.144
67.4605 98.3871 139.244
67.7382 100.143 139.15
68.8466 99.156 139.53
55.4404 99.4591 141.499
68.1005 101.379 139.068
69.155 100.746 139.682
55.2014 101.223 141.612
55.6054 102.488 142.451
55.7112 100.649 142.847
68.9826 102.357 140.232
55.9998 104.02 142.95
68.5797 104.58 140.54
56.6165 105.459 143.279
68.6429 106.248 141.088
57.352 106.474 143.344
70.9376 108.488 140.73
69.6629 107.787 141.599
72.0468 108.772 139.59
57.5007 107.984 143.291
59.717 110.713 143.407
58.6023 109.101 143.305
60.0567 109.263 143.541
70.1161 110.1 141.938
69.1467 108.756 142.22
68.4842 109.61 142.269
71.6328 110.511 141.128
72.4724 110.056 140.301
60.4082 112.259 143.139
61.2248 109.899 143.65
61.8358 111.46 143.35
62.5877 110.238 143.335
68.3722 111.576 142.259
67.6231 110.154 142.403
66.66 110.716 142.539
70.1953 111.954 141.674
71.5089 111.821 141.233
72.7124 111.817 140.593
62.1792 112.861 142.96
63.4225 111.17 143.087
64.1352 112.538 142.905
66.2119 112.356 142.734
64.9606 111.055 143.077
57.6683 92.8507 139.407
56.3943 93.7327 140.254
57.327 91.9981 140.246
59.0521 90.7345 139.906
61.3347 91.6008 139.443
64.0374 92.6027 139.746
66.1781 93.9524 140.226
55.9058 95.5456 141.133
67.4154 95.4318 140.037
69.8996 96.0808 140.48
55.7935 97.3763 142.205
69.3783 97.8453 139.868
69.7441 99.2833 140.48
56.3368 98.9405 143.567
69.436 100.878 141.039
56.4748 102.291 143.605
56.8776 100.685 144.042
68.5321 102.646 141.068
57.294 103.704 143.965
67.8892 103.909 141.27
67.8707 102.71 141.818
67.1537 103.879 141.922
57.8445 105.08 143.995
67.7065 105.375 141.29
66.8413 105.416 141.977
58.1764 106.001 143.758
58.0947 107.01 143.582
58.8587 106.532 143.803
67.9653 107.523 141.829
66.5773 106.864 141.902
58.8128 107.677 143.671
60.8512 108.782 143.705
60.1775 107.918 143.658
61.5439 108.054 143.609
66.9387 108.752 142.37
65.552 106.969 142.452
65.181 108.05 142.716
63.939 109.818 143.155
62.6094 108.853 143.396
65.4755 109.546 142.935
63.9221 108.202 143.031
61.0371 90.047 140.136
59.0362 89.5569 141.145
60.9509 88.5935 140.72
63.1116 89.4779 140.502
63.1404 90.9565 139.835
65.0347 90.4985 140.563
64.6346 91.4885 140.038
66.0069 91.8905 140.547
56.5082 93.2951 141.889
57.5902 90.9681 141.536
66.8835 93.2272 140.651
68.2332 94.5568 140.541
69.7476 93.8969 140.996
56.3505 95.2385 142.663
71.4276 95.3916 141.487
56.8548 96.6508 143.769
70.6555 97.9903 141.053
70.6997 97.3438 142.481
57.945 97.9062 144.619
69.4772 99.3017 141.88
68.5241 98.538 142.785
58.2379 101.98 144.402
58.0941 99.7532 144.635
67.8475 100.501 142.737
67.1263 99.3497 142.95
66.3543 100.569 143.282
68.4889 101.362 141.926
58.9424 103.759 144.263
59.6287 101.251 144.599
60.4942 102.952 144.221
62.4567 102.678 144.091
61.2873 101.283 144.448
64.3278 102.429 143.882
63.1246 100.961 144.142
66.2162 102.07 143.373
64.8359 100.79 143.61
67.3397 102.362 142.59
58.9851 105.451 144.163
60.2511 104.876 144.166
61.7862 104.382 143.881
63.4371 104.014 143.932
64.9507 103.819 143.408
66.3559 103.763 142.783
59.8523 106.429 143.846
61.3441 106.32 143.702
62.8757 105.662 143.603
64.1805 105.217 143.453
65.5407 105.413 142.751
62.7574 107.116 143.34
64.2055 106.623 142.982
59.4736 88.3998 142.057
61.2798 87.6918 141.563
63.2632 88.2829 141.125
65.3759 89.1893 141.071
67.3689 90.5741 141.191
68.0258 92.4259 141.056
69.7723 92.0109 141.503
57.5889 92.2764 142.986
58.6305 90.3865 143.162
71.4681 93.731 141.832
57.5143 94.2997 143.785
58.7605 92.5336 144.079
70.4659 95.3268 143.088
58.4465 95.9123 144.798
68.7691 97.0853 143.348
59.3088 97.1454 145.188
59.7056 98.6252 144.84
60.6442 97.2559 145.073
65.4134 97.9969 143.393
65.2426 96.8334 143.645
64.1161 97.6586 143.662
67.0897 98.0288 143.098
66.8792 96.7856 143.457
60.1625 100.139 144.844
61.333 98.169 144.7
61.8857 99.4717 144.418
63.8326 99.2298 143.73
62.8143 97.9204 144.231
65.6155 99.3148 143.242
62.7727 87.1452 141.937
60.6366 87.1218 142.728
62.1979 86.2426 143.174
64.0355 86.4945 142.414
65.0953 87.6192 141.492
66.114 86.6235 142.15
67.2805 88.5882 141.576
68.3166 87.5353 142.305
69.3293 90.0346 141.914
70.0678 88.4849 142.434
70.8189 90.0989 142.498
71.4077 88.8142 142.774
59.7227 88.6933 143.733
71.4713 91.7765 142.046
72.1995 90.4957 142.96
59.9217 90.2362 144.695
71.5985 93.7428 143.229
72.3717 92.2383 143.218
59.8144 94.2279 144.825
60.3571 91.9171 144.822
67.1665 94.2481 144.078
66.8892 92.6497 144.703
65.381 93.7114 144.482
68.9231 94.6064 143.525
69.2912 93.2737 143.912
71.0032 92.4397 143.848
60.4977 95.8137 144.876
61.6725 93.5726 144.963
62.3218 94.9959 144.56
64.6101 94.8902 144.27
63.5304 93.7723 144.624
66.0989 95.7681 143.9
68.1561 95.6789 143.431
62.0703 96.5845 144.541
63.8253 96.1874 143.859
67.2821 85.822 142.49
65.6169 85.2275 142.893
66.7225 84.4061 143.263
68.1846 84.8562 142.906
68.6771 86.2139 142.641
69.3885 85.4968 142.903
60.8641 87.2427 144.362
62.212 85.7604 144.702
63.8263 85.2897 143.367
69.9852 86.955 142.806
71.8436 87.029 143.136
72.5956 88.8111 143.321
73.4286 87.5245 143.491
61.087 89.0532 145.301
72.7747 90.0766 143.999
73.6289 88.9698 144.103
61.6749 90.5345 145.51
72.6235 89.6766 145.113
71.8863 91.1361 144.172
62.4967 91.5578 145.4
62.7868 92.5563 145.102
64.7849 92.7971 144.867
64.7269 91.7955 145.462
66.5151 91.4964 145.507
68.196 91.5938 144.738
69.9533 91.5786 144.38
65.1435 84.3688 144.136
66.7939 83.7748 144.488
68.2376 83.957 143.747
69.7693 84.5052 143.283
70.6625 85.8854 143.125
71.1593 85.0818 143.467
71.6446 85.8868 143.417
72.5812 85.4807 143.791
61.9798 87.7148 145.781
62.75 86.3239 146.061
63.7997 84.9184 145.202
74.1178 86.1528 143.771
74.67 87.6548 143.986
75.4378 86.4841 143.969
75.7928 87.272 144.348
76.568 86.3502 144.231
63.0858 89.541 146.195
63.646 87.9169 146.663
74.3304 88.9572 144.918
75.5204 88.2543 144.951
76.8521 87.2058 144.76
63.5829 90.7731 145.721
65.0244 89.2113 146.669
65.3155 90.4205 145.855
67.4577 90.5164 145.55
66.722 89.5694 146.227
69.311 90.4354 145.256
68.5982 89.2572 145.957
70.9213 90.4811 144.965
70.635 89.3429 145.63
72.534 88.9389 145.886
74.4782 88.5614 145.798
76.1448 87.7936 145.639
65.7713 84.0091 145.632
67.3005 83.4514 145.415
68.5102 83.4974 144.825
70.0481 83.6065 144.169
71.4454 84.2304 143.814
72.9373 84.1557 144.2
63.6575 85.9024 146.867
64.6342 84.6427 146.443
74.6817 84.6126 144.292
76.2446 85.3487 144.314
77.5647 85.9462 144.691
64.396 86.9403 147.541
77.5104 86.9303 145.472
65.3592 87.956 147.288
67.0056 88.5475 146.885
68.5507 88.4531 146.751
68.0065 87.7054 147.477
70.0042 88.5279 146.462
71.5807 88.4216 146.319
73.2723 88.2903 146.368
74.6878 87.8649 146.435
76.1818 87.3664 146.38
69.4866 87.7765 147.229
70.9989 87.8063 146.922
72.4219 87.8008 146.823
73.7116 87.6784 146.834
67.1967 83.5227 146.082
68.4817 83.3556 145.973
70.0864 83.2946 145.435
71.7077 83.382 144.653
64.9483 85.5262 147.56
66.0801 84.2886 147.034
67.5561 83.6077 146.859
69.5664 83.5459 146.698
71.683 83.2028 145.787
73.545 83.2588 144.94
75.2755 83.4322 144.929
76.7643 83.8922 144.599
78.0651 84.6773 144.714
78.7151 85.8876 145.448
79.013 84.5897 145.9
65.5015 86.8153 147.979
66.1918 85.6728 148.189
77.5845 86.4385 146.233
78.4434 85.6124 146.689
66.666 87.3452 147.918
67.8658 87.0199 148.325
75.5791 86.4378 147.256
74.7323 87.1122 147.028
76.8685 86.1231 146.955
69.048 87.1887 147.962
70.4521 87.2448 147.722
71.9021 87.3081 147.577
73.2339 87.1275 147.338
67.2498 84.6258 147.993
68.7138 83.9886 147.752
70.1076 83.8556 147.49
71.2872 83.5323 146.881
73.0191 83.2182 146.338
74.562 83.033 145.932
76.3883 83.1166 145.649
78.0403 83.4596 145.593
78.4365 84.0785 146.846
67.2709 86.0629 148.576
68.4031 85.1524 148.644
69.7816 84.5957 148.462
77.4549 85.1012 147.257
68.5977 86.3585 148.826
69.7052 85.7237 149.063
74.8584 85.7217 147.777
74.1686 86.5924 147.694
76.0412 85.3529 147.477
69.9546 86.7394 148.654
71.3419 86.7942 148.288
72.7769 86.692 148.074
71.2233 84.2012 147.908
72.6587 83.8035 147.311
74.1867 83.4308 147.038
75.6577 83.1881 146.856
77.2895 83.2951 146.569
71.0488 85.2546 148.61
72.3962 84.9709 148.036
73.6532 84.4544 147.624
75.0256 84.4687 147.539
76.6848 84.1315 147.304
70.8264 86.1612 148.879
72.0892 86.0067 148.364
73.5851 85.613 147.938
POLYGONS 1324  5296
3 0 1 2
3 0 3 4
3 2 3 0
3 3 5 4
3 6 7 8
3 1 6 8
3 1 0 6
3 0 9 6
3 4 10 0
3 10 9 0
3 11 4 5
3 11 12 4
3 12 10 4
3 12 13 14
3 11 13 12
3 13 15 14
3 16 7 6
3 17 7 16
3 9 18 6
3 18 16 6
3 10 19 9
3 19 18 9
3 12 20 10
3 20 19 10
3 14 21 12
3 21 20 12
3 22 14 15
3 21 14 22
3 23 17 16
3 24 17 23
3 18 25 16
3 25 23 16
3 19 26 18
3 26 25 18
3 20 27 19
3 27 26 19
3 21 28 20
3 28 27 20
3 29 21 22
3 28 21 29
3 23 30 24
3 25 30 23
3 31 30 25
3 26 31 25
3 32 31 26
3 27 32 26
3 33 32 27
3 28 33 27
3 34 33 28
3 29 34 28
3 35 36 37
3 35 2 1
3 35 37 2
3 37 38 2
3 3 2 39
3 2 38 39
3 5 40 41
3 5 3 40
3 3 39 40
3 40 42 41
3 8 36 35
3 8 7 36
3 7 43 36
3 1 8 35
3 5 41 11
3 41 42 44
3 41 44 11
3 11 44 13
3 44 15 13
3 45 15 44
3 7 17 43
3 43 17 46
3 15 45 22
3 45 47 22
3 17 24 46
3 46 24 48
3 22 47 29
3 47 49 29
3 24 50 48
3 30 50 24
3 31 51 30
3 30 51 50
3 32 52 31
3 31 52 51
3 33 53 32
3 32 53 52
3 34 54 33
3 33 54 53
3 49 34 29
3 54 34 49
3 55 56 57
3 55 58 59
3 57 58 55
3 58 60 59
3 61 56 55
3 62 56 61
3 59 63 55
3 63 61 55
3 64 59 60
3 64 65 59
3 65 63 59
3 64 66 65
3 67 68 69
3 62 67 69
3 61 67 62
3 61 36 67
3 61 37 36
3 38 37 61
3 63 38 61
3 39 38 63
3 65 39 63
3 65 66 70
3 65 70 39
3 39 70 40
3 42 71 72
3 42 40 71
3 40 70 71
3 71 73 72
3 74 68 67
3 75 68 74
3 36 43 74
3 67 36 74
3 42 72 44
3 72 45 44
3 72 73 45
3 73 76 45
3 77 75 74
3 78 75 77
3 43 46 77
3 74 43 77
3 79 80 47
3 79 47 76
3 76 47 45
3 79 81 80
3 77 82 78
3 82 77 46
3 82 46 83
3 83 46 48
3 80 84 49
3 47 80 49
3 85 80 81
3 84 80 85
3 48 86 83
3 50 86 48
3 51 87 50
3 50 87 86
3 52 88 51
3 51 88 87
3 53 89 52
3 52 89 88
3 54 90 53
3 53 90 89
3 84 54 49
3 84 91 54
3 91 90 54
3 85 91 84
3 92 93 94
3 92 95 96
3 94 95 92
3 96 97 98
3 95 97 96
3 97 99 98
3 100 101 102
3 93 100 102
3 92 100 93
3 92 56 100
3 92 57 56
3 58 57 92
3 96 58 92
3 60 58 96
3 60 96 103
3 103 96 98
3 104 98 99
3 104 105 98
3 105 103 98
3 105 106 107
3 104 106 105
3 106 108 107
3 109 110 111
3 101 109 111
3 101 100 109
3 100 112 109
3 56 62 112
3 100 56 112
3 60 103 64
3 66 64 103
3 66 103 113
3 113 103 105
3 107 114 105
3 114 113 105
3 115 107 108
3 114 107 115
3 116 110 109
3 117 110 116
3 69 68 116
3 69 116 112
3 112 116 109
3 62 69 112
3 66 113 70
3 71 70 113
3 114 71 113
3 73 118 119
3 71 118 73
3 71 115 118
3 71 114 115
3 119 120 121
3 118 120 119
3 120 122 121
3 116 123 117
3 123 116 68
3 123 68 124
3 124 68 75
3 119 125 76
3 73 119 76
3 121 126 119
3 126 125 119
3 127 121 122
3 126 121 127
3 75 78 124
3 124 78 128
3 76 125 79
3 81 79 125
3 81 125 129
3 129 125 126
3 130 126 127
3 129 126 130
3 78 131 128
3 82 131 78
3 131 82 83
3 132 131 83
3 129 133 85
3 81 129 85
3 134 129 130
3 133 129 134
3 83 135 132
3 86 135 83
3 87 136 86
3 86 136 135
3 88 137 87
3 87 137 136
3 89 138 88
3 88 138 137
3 90 139 89
3 89 139 138
3 91 140 90
3 90 140 139
3 133 91 85
3 133 141 91
3 141 140 91
3 134 141 133
3 142 143 144
3 142 145 146
3 144 145 142
3 146 147 148
3 145 147 146
3 148 149 150
3 147 149 148
3 149 151 150
3 152 143 142
3 153 143 152
3 94 93 152
3 94 152 146
3 146 152 142
3 95 94 146
3 148 95 146
3 97 95 148
3 150 97 148
3 150 99 97
3 150 151 99
3 151 154 99
3 155 156 157
3 153 155 157
3 152 155 153
3 152 101 155
3 152 102 101
3 93 102 152
3 99 154 158
3 104 99 158
3 106 104 159
3 104 158 159
3 159 108 106
3 160 108 159
3 111 156 155
3 111 110 156
3 110 161 156
3 101 111 155
3 108 160 115
3 160 162 115
3 110 117 161
3 161 117 163
3 115 162 164
3 118 115 164
3 120 118 165
3 118 164 165
3 165 122 120
3 166 122 165
3 117 167 163
3 123 167 117
3 167 123 124
3 168 167 124
3 122 166 127
3 166 169 127
3 124 128 168
3 168 128 170
3 127 169 130
3 169 171 130
3 128 172 170
3 131 172 128
3 172 131 132
3 173 172 132
3 174 175 176
3 175 174 177
3 130 171 134
3 171 178 134
3 132 179 173
3 135 179 132
3 136 180 135
3 135 180 179
3 176 137 174
3 176 180 137
3 180 136 137
3 174 181 177
3 174 137 181
3 137 138 181
3 139 182 138
3 138 182 181
3 140 183 139
3 139 183 182
3 141 184 140
3 140 184 183
3 178 141 134
3 184 141 178
3 185 186 187
3 185 188 189
3 187 188 185
3 189 190 191
3 188 190 189
3 191 192 193
3 190 192 191
3 192 194 193
3 195 196 197
3 186 195 197
3 186 185 195
3 185 198 195
3 189 199 185
3 199 198 185
3 191 200 189
3 200 199 189
3 193 201 191
3 201 200 191
3 202 193 194
3 201 193 202
3 203 196 195
3 204 196 203
3 144 143 203
3 144 203 198
3 198 203 195
3 145 144 198
3 199 145 198
3 147 145 199
3 200 147 199
3 149 147 200
3 201 149 200
3 201 151 149
3 201 202 151
3 202 205 151
3 206 204 203
3 207 204 206
3 143 153 206
3 203 143 206
3 151 205 154
3 205 208 154
3 157 207 206
3 157 156 207
3 156 209 207
3 153 157 206
3 154 208 210
3 158 154 210
3 159 158 211
3 158 210 211
3 160 212 213
3 160 159 212
3 159 211 212
3 212 214 213
3 156 161 209
3 209 161 215
3 213 216 162
3 160 213 162
3 217 213 214
3 216 213 217
3 161 163 215
3 215 163 218
3 162 216 164
3 216 217 219
3 216 219 164
3 164 219 165
3 219 166 165
3 220 166 219
3 163 221 218
3 167 221 163
3 221 167 168
3 222 221 168
3 166 220 169
3 220 223 169
3 224 170 225
3 224 222 170
3 222 168 170
3 225 226 227
3 224 225 227
3 226 228 229
3 227 226 229
3 228 230 231
3 229 228 231
3 230 232 233
3 231 230 233
3 232 234 235
3 233 232 235
3 235 234 236
3 169 223 171
3 223 237 171
3 170 172 225
3 173 225 172
3 173 238 225
3 238 226 225
3 228 226 239
3 239 226 238
3 175 239 176
3 175 230 239
3 230 228 239
3 177 230 175
3 177 240 230
3 240 232 230
3 234 232 241
3 241 232 240
3 242 236 234
3 242 234 243
3 243 234 241
3 243 244 245
3 242 243 245
3 244 237 245
3 244 178 237
3 178 171 237
3 173 179 238
3 180 238 179
3 239 238 180
3 176 239 180
3 177 181 240
3 182 240 181
3 241 240 182
3 183 241 182
3 243 241 183
3 184 243 183
3 244 243 184
3 178 244 184
3 246 247 248
3 246 249 250
3 248 249 246
3 250 251 252
3 249 251 250
3 252 253 254
3 251 253 252
3 253 255 254
3 256 257 258
3 247 256 258
3 246 256 247
3 246 186 256
3 246 187 186
3 188 187 246
3 250 188 246
3 190 188 250
3 252 190 250
3 192 190 252
3 254 192 252
3 254 194 192
3 254 255 194
3 255 259 194
3 197 257 256
3 197 196 257
3 196 260 257
3 186 197 256
3 261 262 202
3 261 202 259
3 259 202 194
3 261 263 262
3 264 265 266
3 264 266 260
3 264 260 204
3 204 260 196
3 262 267 205
3 202 262 205
3 268 262 263
3 267 262 268
3 269 265 264
3 270 265 269
3 204 207 269
3 264 204 269
3 267 271 208
3 205 267 208
3 272 267 268
3 271 267 272
3 273 270 269
3 274 270 273
3 207 209 273
3 269 207 273
3 208 271 210
3 271 272 275
3 271 275 210
3 210 275 211
3 212 211 276
3 211 275 276
3 276 214 212
3 277 214 276
3 273 278 274
3 278 273 209
3 278 209 279
3 279 209 215
3 214 277 217
3 277 280 217
3 215 218 279
3 279 218 281
3 282 219 217
3 282 217 283
3 283 217 280
3 219 282 220
3 218 284 281
3 221 284 218
3 284 221 222
3 285 284 222
3 286 287 288
3 286 289 290
3 287 286 290
3 289 291 292
3 290 289 292
3 291 293 294
3 292 291 294
3 283 294 293
3 283 293 282
3 282 293 295
3 220 295 223
3 282 295 220
3 222 296 285
3 224 296 222
3 227 297 224
3 224 297 296
3 229 298 227
3 227 298 297
3 288 231 286
3 288 298 231
3 298 229 231
3 233 286 231
3 289 286 233
3 235 289 233
3 291 289 235
3 236 291 235
3 236 299 291
3 299 293 291
3 295 293 300
3 300 293 299
3 223 300 237
3 295 300 223
3 236 242 299
3 245 299 242
3 300 299 245
3 237 300 245
3 301 302 303
3 301 304 305
3 303 304 301
3 305 306 307
3 304 306 305
3 306 308 307
3 309 310 311
3 302 309 311
3 302 301 309
3 301 312 309
3 305 313 301
3 313 312 301
3 307 314 305
3 314 313 305
3 315 307 308
3 315 316 307
3 316 314 307
3 315 317 316
3 318 310 309
3 319 310 318
3 248 247 318
3 248 318 312
3 312 318 309
3 249 248 312
3 313 249 312
3 251 249 313
3 314 251 313
3 253 251 314
3 316 253 314
3 255 320 321
3 253 320 255
3 253 317 320
3 253 316 317
3 320 322 321
3 258 319 318
3 258 257 319
3 257 323 319
3 247 258 318
3 321 324 259
3 255 321 259
3 325 321 322
3 324 321 325
3 326 327 328
3 326 328 323
3 326 323 260
3 260 323 257
3 259 324 261
3 324 263 261
3 324 325 263
3 325 329 263
3 266 327 326
3 266 265 327
3 265 330 327
3 260 266 326
3 263 329 268
3 329 331 268
3 265 270 330
3 330 270 332
3 268 331 272
3 331 333 272
3 270 274 332
3 332 274 334
3 335 275 272
3 335 272 336
3 336 272 333
3 275 337 276
3 335 337 275
3 276 337 277
3 274 338 334
3 278 338 274
3 279 339 340
3 279 340 278
3 278 340 338
3 340 339 341
3 342 343 344
3 336 343 342
3 336 342 335
3 335 342 345
3 337 335 346
3 346 335 345
3 277 346 280
3 337 346 277
3 339 281 347
3 279 281 339
3 348 341 339
3 348 339 349
3 349 339 347
3 348 349 350
3 351 352 353
3 344 352 351
3 344 351 342
3 342 351 354
3 345 342 355
3 355 342 354
3 346 345 356
3 356 345 355
3 280 356 283
3 346 356 280
3 281 284 347
3 285 347 284
3 285 357 347
3 357 349 347
3 358 350 349
3 358 349 359
3 359 349 357
3 359 360 361
3 358 359 361
3 353 361 360
3 351 353 360
3 351 360 288
3 351 288 287
3 290 351 287
3 354 351 290
3 292 354 290
3 355 354 292
3 294 355 292
3 356 355 294
3 283 356 294
3 285 296 357
3 297 357 296
3 359 357 297
3 298 359 297
3 360 359 298
3 288 360 298
3 362 363 364
3 362 303 302
3 362 364 303
3 364 365 303
3 304 303 366
3 303 365 366
3 306 304 367
3 304 366 367
3 367 308 306
3 368 308 367
3 311 363 362
3 311 310 363
3 310 369 363
3 302 311 362
3 308 368 370
3 315 308 370
3 370 317 315
3 371 317 370
3 310 319 369
3 369 319 372
3 317 371 373
3 320 317 373
3 373 322 320
3 374 322 373
3 319 323 372
3 372 323 375
3 322 374 325
3 374 376 325
3 328 377 378
3 327 377 328
3 375 323 328
3 378 375 328
3 325 376 329
3 376 379 329
3 327 330 377
3 377 330 380
3 381 382 383
3 381 379 382
3 381 331 379
3 331 329 379
3 330 332 380
3 380 332 384
3 385 381 383
3 386 385 383
3 331 385 333
3 381 385 331
3 387 334 388
3 387 384 334
3 384 332 334
3 387 388 389
3 390 385 386
3 391 390 386
3 333 390 336
3 385 390 333
3 334 338 388
3 388 392 389
3 388 338 392
3 338 340 392
3 341 393 394
3 341 394 340
3 340 394 392
3 394 393 395
3 396 397 398
3 391 397 396
3 390 391 396
3 390 396 344
3 390 344 343
3 336 390 343
3 341 348 393
3 350 399 400
3 348 350 400
3 348 400 395
3 348 395 393
3 399 401 402
3 400 399 402
3 398 402 401
3 396 398 401
3 396 401 353
3 396 353 352
3 344 396 352
3 350 358 399
3 361 399 358
3 401 399 361
3 353 401 361
3 403 404 405
3 403 406 407
3 405 406 403
3 407 408 409
3 406 408 407
3 408 410 409
3 364 411 412
3 363 411 364
3 404 403 365
3 404 365 412
3 412 365 364
3 366 365 403
3 407 366 403
3 367 366 407
3 409 367 407
3 368 413 414
3 367 413 368
3 367 410 413
3 367 409 410
3 413 415 414
3 363 369 411
3 411 369 416
3 368 414 370
3 414 371 370
3 414 415 371
3 415 417 371
3 369 372 416
3 416 372 418
3 419 373 371
3 419 371 420
3 420 371 417
3 373 419 374
3 372 375 418
3 418 375 421
3 422 419 420
3 423 422 420
3 374 422 376
3 419 422 374
3 378 377 424
3 378 424 425
3 378 425 375
3 375 425 421
3 426 427 428
3 423 427 426
3 423 426 422
3 422 426 429
3 376 429 379
3 422 429 376
3 424 380 430
3 377 380 424
3 431 425 424
3 431 424 432
3 432 424 430
3 432 433 434
3 431 432 434
3 433 435 436
3 434 433 436
3 435 437 438
3 436 435 438
3 428 438 437
3 428 437 426
3 426 437 439
3 382 439 383
3 382 429 439
3 429 426 439
3 379 429 382
3 430 384 440
3 380 384 430
3 432 430 441
3 441 430 440
3 433 432 442
3 442 432 441
3 435 433 443
3 443 433 442
3 437 435 444
3 444 435 443
3 439 437 445
3 445 437 444
3 383 445 386
3 439 445 383
3 384 387 440
3 389 440 387
3 389 446 440
3 446 441 440
3 442 441 447
3 447 441 446
3 443 442 448
3 448 442 447
3 444 443 449
3 449 443 448
3 445 444 450
3 450 444 449
3 386 450 391
3 445 450 386
3 389 392 446
3 394 446 392
3 447 446 394
3 395 447 394
3 395 451 447
3 451 448 447
3 449 448 452
3 452 448 451
3 397 452 398
3 397 450 452
3 450 449 452
3 391 450 397
3 395 400 451
3 402 451 400
3 452 451 402
3 398 452 402
3 405 453 454
3 404 453 405
3 406 405 455
3 405 454 455
3 408 406 456
3 406 455 456
3 410 457 458
3 410 408 457
3 408 456 457
3 457 459 458
3 412 411 460
3 412 460 461
3 412 461 404
3 404 461 453
3 410 458 413
3 458 415 413
3 458 459 415
3 459 462 415
3 460 463 464
3 460 411 463
3 411 416 463
3 461 460 464
3 415 462 417
3 462 465 417
3 416 418 463
3 463 418 466
3 417 465 420
3 465 467 420
3 468 421 469
3 468 466 421
3 466 418 421
3 468 469 470
3 471 472 473
3 471 474 475
3 472 471 475
3 474 467 475
3 474 423 467
3 423 420 467
3 469 425 476
3 421 425 469
3 477 470 469
3 477 469 478
3 478 469 476
3 478 479 480
3 477 478 480
3 473 480 479
3 473 479 471
3 471 479 481
3 427 481 428
3 427 474 481
3 474 471 481
3 423 474 427
3 425 431 476
3 434 476 431
3 478 476 434
3 436 478 434
3 479 478 436
3 438 479 436
3 481 479 438
3 428 481 438
3 482 483 484
3 482 485 486
3 484 485 482
3 486 487 488
3 485 487 486
3 488 489 490
3 487 489 488
3 490 491 492
3 489 491 490
3 491 493 492
3 454 483 482
3 454 453 483
3 453 494 483
3 455 454 482
3 486 455 482
3 456 455 486
3 488 456 486
3 457 456 488
3 490 457 488
3 459 457 490
3 459 490 495
3 495 490 492
3 496 492 493
3 495 492 496
3 453 461 494
3 494 461 497
3 495 498 462
3 459 495 462
3 499 495 496
3 498 495 499
3 464 463 500
3 464 500 501
3 464 501 461
3 461 501 497
3 502 503 504
3 502 505 506
3 503 502 506
3 498 507 506
3 498 506 465
3 498 465 462
3 465 506 505
3 499 507 498
3 500 466 508
3 463 466 500
3 509 501 500
3 509 500 510
3 510 500 508
3 510 511 512
3 509 510 512
3 504 512 511
3 504 511 502
3 502 511 513
3 505 502 514
3 514 502 513
3 465 514 467
3 505 514 465
3 466 468 508
3 470 508 468
3 470 515 508
3 515 510 508
3 511 510 516
3 516 510 515
3 472 516 473
3 472 513 516
3 513 511 516
3 475 513 472
3 514 513 475
3 467 514 475
3 470 477 515
3 480 515 477
3 516 515 480
3 473 516 480
3 517 518 519
3 517 520 521
3 519 520 517
3 520 522 521
3 484 523 524
3 483 523 484
3 485 484 525
3 484 524 525
3 518 517 487
3 518 487 525
3 525 487 485
3 489 487 517
3 521 489 517
3 521 522 526
3 521 526 489
3 489 526 491
3 493 527 528
3 493 491 527
3 491 526 527
3 527 529 528
3 483 494 523
3 523 494 530
3 528 531 496
3 493 528 496
3 532 528 529
3 531 528 532
3 494 497 530
3 530 497 533
3 531 534 535
3 531 535 496
3 496 535 499
3 532 534 531
3 536 501 537
3 536 533 501
3 533 497 501
3 537 538 539
3 536 537 539
3 538 504 503
3 538 503 539
3 539 503 540
3 506 541 503
3 503 541 540
3 507 542 506
3 506 542 541
3 535 507 499
3 542 507 535
3 501 509 537
3 512 537 509
3 538 537 512
3 504 538 512
3 519 543 544
3 518 543 519
3 520 519 545
3 519 544 545
3 522 546 547
3 522 520 546
3 520 545 546
3 547 548 549
3 546 548 547
3 548 550 549
3 524 523 551
3 552 524 551
3 552 553 524
3 553 525 524
3 543 518 525
3 553 543 525
3 522 547 526
3 527 526 547
3 549 527 547
3 529 554 555
3 527 554 529
3 527 550 554
3 527 549 550
3 555 556 557
3 554 556 555
3 556 558 557
3 551 530 559
3 523 530 551
3 560 552 551
3 559 560 551
3 555 561 532
3 529 555 532
3 557 562 555
3 562 561 555
3 563 557 558
3 562 557 563
3 559 533 564
3 530 533 559
3 565 560 559
3 565 559 566
3 566 559 564
3 566 567 568
3 565 566 568
3 567 569 570
3 568 567 570
3 569 571 572
3 570 569 572
3 571 535 534
3 571 534 572
3 572 534 573
3 561 534 532
3 561 574 534
3 574 573 534
3 562 574 561
3 575 574 562
3 563 575 562
3 533 536 564
3 539 564 536
3 566 564 539
3 540 566 539
3 567 566 540
3 541 567 540
3 569 567 541
3 542 569 541
3 571 569 542
3 535 571 542
3 544 576 577
3 543 576 544
3 545 544 578
3 544 577 578
3 546 545 579
3 545 578 579
3 548 546 580
3 546 579 580
3 580 550 548
3 581 550 580
3 553 582 583
3 552 582 553
3 576 543 553
3 583 576 553
3 550 581 584
3 554 550 584
3 556 554 585
3 554 584 585
3 585 558 556
3 586 558 585
3 552 560 582
3 582 560 587
3 558 586 563
3 586 588 563
3 560 589 587
3 565 589 560
3 568 590 565
3 565 590 589
3 591 592 590
3 591 590 570
3 570 590 568
3 570 572 593
3 591 570 593
3 572 573 594
3 593 572 594
3 573 574 595
3 594 573 595
3 596 595 574
3 596 574 597
3 597 574 575
3 588 575 563
3 597 575 588
3 591 598 592
3 593 598 591
3 599 598 593
3 594 599 593
3 600 599 594
3 595 600 594
3 601 600 595
3 596 601 595
3 577 576 602
3 577 603 578
3 602 603 577
3 578 604 579
3 603 604 578
3 579 605 580
3 604 605 579
3 580 605 581
3 583 582 606
3 583 606 607
3 576 583 607
3 576 607 608
3 576 608 602
3 603 602 608
3 609 603 608
3 604 603 609
3 610 604 609
3 605 604 610
3 611 605 610
3 581 605 611
3 581 611 584
3 584 611 612
3 585 584 613
3 584 612 613
3 586 614 615
3 586 585 614
3 585 613 614
3 614 616 615
3 606 587 617
3 582 587 606
3 618 607 606
3 617 618 606
3 615 619 588
3 586 615 588
3 620 615 616
3 619 615 620
3 587 589 617
3 617 621 618
3 617 589 621
3 589 590 621
3 621 590 592
3 622 621 592
3 597 623 624
3 596 597 624
3 619 597 588
3 619 625 597
3 625 623 597
3 620 625 619
3 592 626 622
3 598 626 592
3 599 627 598
3 598 627 626
3 600 628 599
3 599 628 627
3 601 629 600
3 600 629 628
3 624 601 596
3 629 601 624
3 608 607 630
3 608 631 609
3 630 631 608
3 632 609 631
3 632 633 609
3 633 610 609
3 611 610 634
3 610 633 634
3 612 611 635
3 611 634 635
3 613 612 636
3 612 635 636
3 614 613 637
3 613 636 637
3 637 616 614
3 638 616 637
3 630 618 639
3 607 618 630
3 631 630 640
3 640 630 639
3 641 632 631
3 640 641 631
3 616 638 620
3 638 642 620
3 618 621 639
3 622 639 621
3 622 643 639
3 643 640 639
3 644 641 640
3 643 644 640
3 623 645 646
3 624 623 646
3 625 647 623
3 623 647 645
3 642 625 620
3 647 625 642
3 622 626 643
3 643 648 644
3 643 626 648
3 626 627 648
3 628 649 627
3 627 649 648
3 629 650 628
3 628 650 649
3 646 629 624
3 650 629 646
3 633 632 651
3 633 652 634
3 651 652 633
3 634 653 635
3 652 653 634
3 635 654 636
3 653 654 635
3 636 655 637
3 654 655 636
3 637 655 638
3 651 641 656
3 632 641 651
3 652 651 657
3 657 651 656
3 653 652 658
3 658 652 657
3 654 653 659
3 659 653 658
3 655 654 660
3 660 654 659
3 638 660 642
3 655 660 638
3 656 644 661
3 641 644 656
3 657 656 662
3 662 656 661
3 658 657 663
3 663 657 662
3 645 663 646
3 645 659 663
3 659 658 663
3 647 659 645
3 660 659 647
3 642 660 647
3 644 648 661
3 649 661 648
3 662 661 649
3 650 662 649
3 663 662 650
3 646 663 650
