# vtk DataFile Version 3.0
this file was written using fslvtkio
ASCII
DATASET POLYDATA
POINTS 642 float
101.587 112.335 128.653
72.083 110.875 127.86
77.2111 97.412 118.092
96.3753 97.7719 119.144
97.7176 96.4928 142.255
93.9306 106.375 106.465
79.7844 106.175 103.343
78.9407 96.5451 140.918
87.2095 110.206 136.726
87.3524 90.7948 125.233
87.3402 92.4767 105.437
86.5726 117.144 122.462
82.0674 102.316 143.597
93.2553 102.492 143.848
87.2626 94.1816 146.605
83.5639 92.7411 134.806
92.3031 91.8112 135.645
83.2004 111.443 112.582
87.3196 106.465 97.4423
90.6683 112.619 113.937
81.8227 98.8378 97.0812
92.5755 98.5384 99.3342
96.9945 98.3404 131.284
101.957 105.364 138.812
96.3257 106.862 125.983
95.8935 101.272 111.151
97.171 111.497 118.656
74.1055 104.655 137.582
78.3226 97.9463 130.075
77.6031 105.918 124.807
77.7193 109.682 117.468
78.2505 100.916 108.915
95.468 118.992 126.264
96.5273 113.835 136.448
86.3289 118.2 133.063
77.9942 117.466 125.597
77.6451 113.211 136.551
92.9297 94.0538 112.04
86.3667 91.1034 118.392
93.0416 91.6229 121.426
80.9635 94.1332 109.729
81.5073 91.9509 121.317
87.5228 102.772 143.518
91.037 99.9159 149.473
83.7304 99.3314 149.897
94.2991 93.7379 146.356
98.2297 100.654 146.69
90.133 105.68 138.406
84.8703 105.517 138.219
77.2257 100.01 145.797
81.4752 93.6648 145.386
84.8089 90.5682 140.873
90.6654 90.928 141.426
87.7823 91.8879 135.781
95.5991 92.5786 139.16
80.6975 92.962 138.216
85.5924 91.4937 129.934
89.6951 92.071 130.375
85.2907 108.661 104.907
88.8112 108.844 106.215
86.9962 111.219 112.901
91.698 108.654 109.135
90.6843 106.507 101.59
83.0788 106.358 98.6537
82.0015 108.737 106.665
84.498 115.415 117.711
88.9304 115.996 118.166
87.4745 99.2625 96.7655
91.4851 103.4 95.9425
83.9215 103.861 92.8954
93.3719 102.979 102.24
89.9489 94.9525 101.615
84.8554 94.7874 99.9467
79.8815 102.8 98.2591
99.5572 102.045 135.579
99.1264 105.761 132.089
96.4322 102.293 128.628
100.871 109.155 126.556
101.308 108.705 132.397
100.582 101.045 141.508
97.5108 97.4981 137.01
96.297 98.4855 124.93
95.772 102.152 122.008
95.2801 104.3 118.703
96.9137 109.37 122.553
94.6182 106.394 115.971
101.034 112.636 123.23
96.0364 99.6732 115.24
95.0957 103.811 108.79
93.7843 108.078 113.127
76.3392 101.407 134.607
78.0134 101.842 127.756
75.2443 104.888 131.07
78.4793 101.789 121.063
78.0176 97.9556 123.937
78.9817 97.5318 135.791
76.23 100.593 140.165
73.1345 107.65 131.814
73.2962 107.882 125.832
77.5307 107.793 121.199
78.9508 103.43 116.782
79.6413 105.319 113.201
77.2441 99.1993 113.736
73.3077 110.899 122.136
79.4339 107.451 109.928
78.3817 103.44 105.371
97.1001 118.811 132.77
92.1422 117.72 135.867
91.5108 119.731 130.283
86.6415 115.533 136.666
91.7246 112.071 137.618
100.546 114.276 133.223
99.4395 116.295 127.585
90.7329 119.047 124.17
86.3437 118.777 127.727
81.3373 119.333 130.05
81.1729 117.584 135.902
76.7279 117.273 132.09
82.5959 112.045 137.77
82.406 118.277 123.786
74.5846 114.68 126.827
73.6176 112.982 132.787
91.1651 90.7603 115.383
91.8129 86.5158 117.918
95.7035 89.1527 116.072
90.6921 90.3642 123.652
86.8261 87.5665 120.392
87.1293 93.4294 113.072
90.2838 93.4486 108.021
95.6509 94.9774 114.609
95.4312 94.0884 120.49
80.962 91.8406 116.404
82.261 85.8187 117.572
83.6698 91.7912 114.972
83.8765 90.3129 123.387
78.1898 93.9978 120.029
77.8993 94.5718 113.671
84.1063 93.9433 106.955
97.7943 104.168 141.668
94.1418 106.631 136.843
98.5916 108.658 135.944
97.4098 115.598 121.87
93.2627 116.823 120.041
94.3494 112.791 115.937
92.9884 92.5537 128.385
95.3095 94.7627 133.552
95.4113 94.9417 126.668
95.9402 96.7896 110.181
94.5604 99.6579 104.991
93.8724 95.2492 105.023
80.8297 106.4 136.514
77.9435 103.551 141.173
76.3363 108.182 135.863
76.5723 114.078 120.9
80.0776 111.119 114.53
80.331 115.821 119.054
79.2663 94.5127 125.95
80.3412 94.7855 132.484
81.9806 92.1737 127.793
80.5918 94.7958 101.942
78.8579 99.3304 102.126
78.6796 97.1085 108.411
89.0221 101.399 146.426
87.2715 100.008 148.68
85.7322 101.124 146.581
85.4857 96.7578 148.691
88.946 97.1328 147.942
92.3616 101.38 146.788
90.3951 102.801 143.569
84.683 102.645 143.516
82.7593 100.95 147.152
92.7034 96.8176 148.523
94.676 99.9124 148.709
95.5149 97.452 147.639
95.6828 101.738 146.149
90.8924 94.596 146.852
96.2421 95.1673 144.929
97.6628 97.7823 145.395
88.9148 104.049 140.865
86.1639 103.942 140.739
87.4299 105.693 138.222
83.5461 103.845 140.764
91.6361 104.03 141.08
88.7063 107.738 136.536
85.8814 107.851 136.842
80.5748 98.809 148.154
82.3153 95.9283 148.472
79.7283 96.6241 146.78
84.2791 93.5183 146.896
79.8072 101.254 146.122
78.3379 97.7016 144.267
79.6563 95.5413 143.868
87.728 91.1718 141.521
89.2683 89.9061 138.132
86.2712 89.7062 137.858
90.2338 91.6867 135.674
91.9244 89.8381 138.427
89.3914 92.6061 144.614
86.0152 91.3794 144.541
83.4796 89.8029 137.447
85.3156 91.9744 135.312
93.42 91.2128 140.472
92.4219 91.9554 144.173
95.0617 92.8276 142.773
94.3515 91.1684 137.112
96.7853 94.4528 140.944
83.2217 91.655 143.734
82.2204 91.1974 139.988
80.9714 93.3511 141.995
81.9653 92.1109 136.433
79.7557 94.763 139.827
86.5737 92.3822 133.07
88.9297 92.8437 133.385
87.5702 92.1376 130.441
90.9743 92.7546 133.12
84.478 92.3485 132.253
86.544 91.5051 127.537
88.4668 91.6174 127.786
87.0864 108.652 105.755
88.1128 109.777 109.988
85.9031 109.571 109.605
88.7008 111.88 113.284
89.5403 110.353 110.865
87.9004 107.665 102.282
86.3127 107.306 101.261
84.44 109.949 109.219
85.1296 111.328 112.423
90.2901 109 107.523
89.709 107.629 103.28
91.4103 107.824 105.32
88.7492 106.437 99.3946
91.0058 110.077 111.744
92.8131 107.557 107.491
92.3373 106.502 104.089
84.4652 107.347 100.92
83.6873 108.795 105.199
82.6972 107.543 102.565
82.767 109.859 109.583
85.3541 106.499 97.3064
81.5414 106.208 101.246
80.895 107.708 104.712
85.7446 113.428 115.071
87.7878 113.913 115.414
86.6779 115.203 117.67
89.9741 114.695 116.053
83.6497 113.564 115.272
85.5354 116.628 120.235
87.7961 116.832 120.375
89.6077 101.516 95.2214
88.2913 103.954 93.3694
86.6753 102.01 94.4655
85.8477 105.865 94.3294
89.366 105.564 96.3285
92.0215 100.855 97.1367
90.1441 99.0579 97.5985
84.8047 99.793 96.3783
83.4071 101.683 95.0816
90.8937 105.135 98.8089
92.3122 102.989 99.0165
92.2845 104.966 101.735
93.2535 101.053 99.9486
93.7615 104.806 104.3
88.8781 96.689 98.8596
86.242 97.048 98.1497
87.4146 94.5687 100.142
83.4634 97.0275 97.9852
91.2117 96.5389 99.6957
88.4921 93.0595 102.661
86.2075 93.2061 102.266
80.9704 103.358 94.7093
82.8109 105.749 95.4427
81.0914 105.038 98.5033
80.1965 100.634 96.5897
79.8093 104.469 100.889
99.331 103.713 133.785
97.6488 104.122 130.559
97.7895 102.055 131.9
96.7206 104.526 127.677
97.3976 106.48 129.347
100.604 105.236 135.503
101.378 103.341 137.627
97.9266 100.549 133.684
97.0504 100.214 130.449
99.3721 107.722 128.612
100.284 107.107 131.602
101.707 108.74 129.131
100.805 106.981 135.341
97.7395 108.244 127.017
102.332 110.638 127.428
102.069 110.487 130.675
99.9612 101.414 138.133
98.1095 99.7268 136.141
98.7524 99.3992 139.442
97.1287 98.1103 134.079
102.369 102.786 140.307
98.8176 98.7674 142.425
98.0506 96.9303 139.709
96.7753 100.413 126.757
96.1679 102.815 125.261
96.2987 100.385 123.661
95.8653 104.493 124.427
96.6714 98.3329 127.934
96.2374 98.2764 122.009
95.7462 99.9519 120.516
95.1597 107.347 121.322
94.9036 108.391 120.012
94.8744 105.1 117.132
95.1124 109.133 118.082
97.5066 110.486 120.451
96.7272 108.334 124.332
95.5662 105.671 122.635
95.3834 102.717 114.924
94.7907 103.638 113.607
100.417 110.669 122.202
99.1205 109.144 124.349
102.196 110.693 124.564
99.6991 112.409 120.754
101.603 112.652 125.841
95.3009 103.358 120.54
95.7409 101.762 116.587
95.8037 100.771 118.44
95.9811 100.405 113.165
96.3028 98.6883 117.284
94.5081 104.793 112.322
94.2588 107.34 114.678
94.7236 106.124 111.068
95.2127 109.819 116.17
95.078 102.478 110.232
94.7768 105.256 107.611
93.9088 107.182 109.78
77.3239 101.569 130.894
76.9784 103.623 129.338
75.8545 102.981 132.588
76.4959 105.5 128.023
77.8922 103.984 126.441
78.4134 99.9775 129.419
77.7865 100.031 132.934
74.8712 102.784 136.217
74.6348 104.435 134.283
78.1355 102.325 124.205
78.1286 100.244 125.733
77.9798 99.8063 122.538
78.2966 98.0598 126.807
78.2221 104.051 122.97
77.8645 99.4085 119.488
77.4877 97.7377 120.968
77.9371 99.4808 135.63
76.154 100.877 137.217
77.9013 99.2529 138.703
74.3145 102.18 139.148
78.4219 97.8924 132.915
78.7686 97.1599 138.552
77.8442 98.457 141.596
73.6405 106.033 130.845
74.4819 106.532 127.759
72.0029 107.511 128.703
76.0764 107.081 125.62
74.3543 106.101 134.135
71.9024 109.07 129.91
71.5653 109.162 126.629
79.3017 105.915 119.174
79.7421 104.301 114.97
79.3699 106.781 117.49
78.7929 103.223 110.686
78.7692 102.049 112.725
78.6236 105.058 120.987
77.6377 106.909 122.618
77.3203 108.642 119.457
79.3286 107.78 116.092
78.0304 101.166 114.989
78.7338 102.691 119.078
77.9163 100.162 117.125
77.5512 100.074 111.288
77.0863 98.1716 116.06
75.5316 108.075 123.681
74.833 109.03 121.472
72.475 109.134 123.654
75.5725 110.577 119.907
72.2124 111.025 124.907
79.2087 106.477 111.729
78.1128 104.493 109.138
78.0299 105.815 107.573
78.4312 102.212 107.129
79.947 108.309 113.944
79.0294 107.253 106.489
78.6434 104.961 104.201
94.6427 118.58 134.523
91.8621 118.969 133.223
94.276 119.598 131.653
89.1463 118.745 131.865
89.4249 118.04 134.346
94.7809 116.38 136.487
97.1286 117.14 135.319
96.2957 118.963 129.766
93.9073 119.748 128.656
89.5733 116.466 136.348
92.3087 115.314 137.399
89.6321 114.029 137.38
94.2133 113.114 137.246
86.5542 117.433 135.36
86.8851 113.038 137.181
89.2552 111.052 137.299
99.1281 116.826 133.214
98.5972 117.588 130.331
100.253 115.562 130.618
97.569 117.896 127.27
98.7132 114.569 135.23
101.654 113.389 130.736
100.901 114.421 127.837
91.2984 119.805 127.329
88.8994 119.257 129.108
88.7079 118.94 126.078
86.3951 118.953 130.51
93.1002 119.341 125.362
88.5569 117.998 123.182
86.3997 118.254 124.901
81.2007 118.682 133.168
78.6817 118.062 134.363
78.8075 118.923 131.398
76.7648 116.028 134.808
78.9658 115.877 136.34
83.6884 118.225 134.425
83.6337 118.855 131.749
79.1435 118.798 128.172
77.0034 117.831 129.131
81.5503 115.201 137.391
83.8886 116.804 136.621
84.3818 114.254 137.735
80.0186 112.8 137.353
85.1203 111.062 137.701
83.9619 119.305 129.074
81.7133 118.813 127.062
84.0946 118.658 126.054
80.0665 118.254 124.785
84.532 117.685 123.049
75.3468 115.964 129.531
75.0182 115.259 132.474
73.6757 114.058 129.928
75.3848 113.677 134.995
76.1905 116.322 126.321
73.1962 112.846 127.156
72.55 111.907 130.171
91.7294 88.4659 116.849
94.8182 85.9545 116.175
93.4043 88.8261 115.305
94.9265 88.9367 118.236
93.7151 87.7175 118.985
89.8074 89.6742 118.8
89.7194 91.7943 117.766
91.9468 91.7553 113.419
93.7832 91.6398 114.888
91.7628 88.1564 120.83
89.6248 87.7586 119.78
89.3579 88.4018 122.213
86.632 89.181 119.078
92.1917 90.5219 122.253
88.87 90.5114 124.554
86.9893 88.3726 123.005
89.222 92.8614 114.669
90.341 92.1407 112.037
88.7849 93.0678 110.783
91.5989 93.5311 110.119
86.8875 92.7173 116.507
87.2377 93.2962 108.964
89.1949 92.8255 106.353
94.7439 92.6203 116.271
94.73 91.7778 118.151
95.2332 94.0646 117.785
93.9659 92.6336 120.714
94.2212 94.1108 113.58
96.1227 96.2143 116.787
96.1909 95.9657 119.721
80.705 88.3945 116.801
83.0193 88.5165 116.015
82.6891 91.7912 115.598
84.5039 90.8868 116.763
84.2841 88.0009 117.252
81.1078 88.4121 118.93
80.7483 90.802 118.753
81.0459 93.6903 113.743
82.5778 93.8378 112.211
84.4141 87.141 119.102
82.7059 88.1175 120.229
84.7865 88.202 121.836
82.4948 90.8316 121.952
85.7424 90.4292 124.465
80.0992 93.1623 118.253
79.6391 93.637 115.406
78.1244 94.2596 117.199
79.315 94.3533 111.939
80.1443 93.1125 120.814
77.1533 95.6749 119.165
76.8591 95.7039 115.894
84.0678 93.881 111.274
85.2554 92.8829 114.388
85.644 93.7 110.054
82.4513 94.1027 108.309
85.6763 92.9899 105.88
95.7494 105.449 139.691
96.2557 107.689 136.247
97.8002 106.111 138.427
97.8937 111.406 136.031
95.2706 110.344 136.424
93.6623 104.506 140.471
95.4762 103.256 142.793
99.9915 105.04 140.371
99.9751 106.759 137.254
93.082 109.725 136.716
92.0964 106.144 137.322
90.785 108.804 136.988
97.6704 103.022 144.019
101.325 103.733 142.525
100.11 100.762 144.047
100.543 109.141 134.686
100.098 112.007 134.998
101.441 111.577 132.782
95.4286 116.553 120.911
94.1039 115.101 117.711
96.2219 114.561 118.704
92.4911 112.866 114.702
92.1201 115.249 116.756
94.4207 118.165 123.21
96.5386 117.371 124.13
97.9187 113.622 119.819
95.9275 112.293 117.201
91.1673 116.599 118.952
92.1418 118.166 122.196
89.9027 117.578 121.138
98.4593 116.315 124.763
99.3308 114.358 122.547
100.377 114.664 125.15
94.1302 110.393 114.603
92.6006 110.453 113.013
92.7025 108.377 111.263
93.9907 93.867 131.181
95.1667 95.0662 130.039
94.4406 93.5448 127.619
96.1725 96.6055 129.172
96.3387 96.3452 132.308
93.917 93.2841 134.423
92.5606 93.0331 132.367
93.0304 92.4202 124.779
94.6572 93.1063 124.054
96.581 95.7203 135.223
95.4838 93.445 136.504
96.8199 95.0896 138.219
91.4575 92.0379 129.63
91.619 91.8228 125.825
90.1334 91.7842 127.044
95.7753 94.2808 123.364
96.1044 96.5237 125.801
96.3535 96.2204 122.617
95.3165 98.0885 107.559
94.4681 97.4613 104.419
95.3094 96.033 107.432
93.2359 96.6615 101.74
93.8155 99.1732 101.72
95.3209 100.212 108.115
96.0763 99.0204 110.288
94.9022 95.0335 110.74
93.6639 94.7087 108.477
94.0403 101.28 103.377
94.9535 101.671 106.794
94.4146 103.32 105.514
96.8493 98.3591 112.661
96.2725 95.599 112.371
96.6018 97.1592 114.833
92.3111 94.3083 106.556
92.0062 95.0162 102.852
90.5643 93.681 104.711
79.5431 104.914 139.092
77.4895 105.714 138.024
78.8132 107.26 136.182
75.171 106.249 136.503
75.7529 104.411 139.872
79.9654 102.247 142.249
81.5188 104.363 140.159
79.3753 109.942 136.361
76.8066 110.758 135.906
74.784 102.804 141.688
77.8154 102.209 143.717
76.0337 99.8062 142.925
82.8371 105.858 137.166
81.5016 109.59 136.879
83.8121 108.85 137.171
74.6028 111.006 134.555
74.4764 108.204 134.13
72.7565 110.267 132.273
78.064 112.877 117.681
79.9188 113.54 116.646
78.417 115.089 119.906
81.8549 113.855 116.056
81.6226 111.457 113.481
78.7889 110.374 115.745
76.4977 111.797 118.691
77.2178 115.875 123.221
79.2643 116.802 122.4
81.5661 109.55 110.795
80.5705 108.972 112.337
80.6268 108.201 108.295
74.7966 112.564 121.43
75.4379 114.609 123.855
73.6521 113.004 124.346
81.3871 116.99 121.554
82.4788 115.686 118.266
83.484 117.057 120.648
79.9571 94.773 129.25
81.2251 93.4186 130.323
80.2973 93.0719 126.987
82.8049 92.6998 131.334
81.9187 93.6201 133.54
78.7989 96.0415 131.335
78.8624 96.2561 128.242
79.8988 92.8272 123.764
81.4239 92.0853 124.479
80.7708 93.9612 135.593
79.5472 95.846 134.218
79.7084 95.3037 137.212
78.3033 96.0713 125.038
78.4282 93.9077 122.855
77.6353 95.7227 121.991
83.0188 91.6405 125.52
83.7247 91.6176 129.056
84.7183 91.253 126.614
79.4709 97.0013 101.394
78.8717 98.033 104.97
79.2464 95.9516 104.804
78.0306 98.9652 108.152
78.4627 100.07 105.44
79.7175 98.5882 98.7775
81.1126 96.2147 98.9684
80.5102 94.5073 105.708
79.4183 95.1119 108.391
78.5118 101.421 103.53
78.9946 100.827 99.7079
78.9635 102.947 101.794
82.5711 94.6174 100.73
81.9772 93.7104 104.48
84.2279 93.7559 103.537
78.297 95.9825 111.043
77.2007 98.1075 110.992
76.5607 96.903 113.493
POLYGONS 1280  5120
3 164 162 163
3 163 44 164
3 162 43 163
3 164 42 162
3 166 165 163
3 163 43 166
3 165 44 163
3 166 14 165
3 168 167 162
3 162 42 168
3 167 43 162
3 168 13 167
3 170 169 164
3 164 44 170
3 169 42 164
3 170 12 169
3 173 171 172
3 172 46 173
3 171 43 172
3 173 45 171
3 167 174 172
3 172 43 167
3 174 46 172
3 167 13 174
3 175 166 171
3 171 45 175
3 166 43 171
3 175 14 166
3 177 176 173
3 173 46 177
3 176 45 173
3 177 4 176
3 180 178 179
3 179 48 180
3 178 42 179
3 180 47 178
3 169 181 179
3 179 42 169
3 181 48 179
3 169 12 181
3 182 168 178
3 178 47 182
3 168 42 178
3 182 13 168
3 184 183 180
3 180 48 184
3 183 47 180
3 184 8 183
3 187 185 186
3 186 50 187
3 185 44 186
3 187 49 185
3 165 188 186
3 186 44 165
3 188 50 186
3 165 14 188
3 189 170 185
3 185 49 189
3 170 44 185
3 189 12 170
3 191 190 187
3 187 50 191
3 190 49 187
3 191 7 190
3 194 192 193
3 193 53 194
3 192 52 193
3 194 51 192
3 196 195 193
3 193 52 196
3 195 53 193
3 196 16 195
3 198 197 192
3 192 51 198
3 197 52 192
3 198 14 197
3 200 199 194
3 194 53 200
3 199 51 194
3 200 15 199
3 203 201 202
3 202 45 203
3 201 52 202
3 203 54 201
3 197 175 202
3 202 52 197
3 175 45 202
3 197 14 175
3 204 196 201
3 201 54 204
3 196 52 201
3 204 16 196
3 176 205 203
3 203 45 176
3 205 54 203
3 176 4 205
3 208 206 207
3 207 55 208
3 206 51 207
3 208 50 206
3 199 209 207
3 207 51 199
3 209 55 207
3 199 15 209
3 188 198 206
3 206 50 188
3 198 51 206
3 188 14 198
3 210 191 208
3 208 55 210
3 191 50 208
3 210 7 191
3 213 211 212
3 212 57 213
3 211 53 212
3 213 56 211
3 195 214 212
3 212 53 195
3 214 57 212
3 195 16 214
3 215 200 211
3 211 56 215
3 200 53 211
3 215 15 200
3 217 216 213
3 213 57 217
3 216 56 213
3 217 9 216
3 220 218 219
3 219 60 220
3 218 59 219
3 220 58 218
3 222 221 219
3 219 59 222
3 221 60 219
3 222 19 221
3 224 223 218
3 218 58 224
3 223 59 218
3 224 18 223
3 226 225 220
3 220 60 226
3 225 58 220
3 226 17 225
3 229 227 228
3 228 62 229
3 227 59 228
3 229 61 227
3 223 230 228
3 228 59 223
3 230 62 228
3 223 18 230
3 231 222 227
3 227 61 231
3 222 59 227
3 231 19 222
3 233 232 229
3 229 62 233
3 232 61 229
3 233 5 232
3 236 234 235
3 235 64 236
3 234 58 235
3 236 63 234
3 225 237 235
3 235 58 225
3 237 64 235
3 225 17 237
3 238 224 234
3 234 63 238
3 224 58 234
3 238 18 224
3 240 239 236
3 236 64 240
3 239 63 236
3 240 6 239
3 243 241 242
3 242 66 243
3 241 60 242
3 243 65 241
3 221 244 242
3 242 60 221
3 244 66 242
3 221 19 244
3 245 226 241
3 241 65 245
3 226 60 241
3 245 17 226
3 247 246 243
3 243 66 247
3 246 65 243
3 247 11 246
3 250 248 249
3 249 69 250
3 248 68 249
3 250 67 248
3 252 251 249
3 249 68 252
3 251 69 249
3 252 18 251
3 254 253 248
3 248 67 254
3 253 68 248
3 254 21 253
3 256 255 250
3 250 69 256
3 255 67 250
3 256 20 255
3 259 257 258
3 258 70 259
3 257 68 258
3 259 62 257
3 253 260 258
3 258 68 253
3 260 70 258
3 253 21 260
3 230 252 257
3 257 62 230
3 252 68 257
3 230 18 252
3 261 233 259
3 259 70 261
3 233 62 259
3 261 5 233
3 264 262 263
3 263 72 264
3 262 67 263
3 264 71 262
3 255 265 263
3 263 67 255
3 265 72 263
3 255 20 265
3 266 254 262
3 262 71 266
3 254 67 262
3 266 21 254
3 268 267 264
3 264 72 268
3 267 71 264
3 268 10 267
3 271 269 270
3 270 63 271
3 269 69 270
3 271 73 269
3 251 238 270
3 270 69 251
3 238 63 270
3 251 18 238
3 272 256 269
3 269 73 272
3 256 69 269
3 272 20 256
3 239 273 271
3 271 63 239
3 273 73 271
3 239 6 273
3 276 274 275
3 275 76 276
3 274 75 275
3 276 74 274
3 278 277 275
3 275 75 278
3 277 76 275
3 278 24 277
3 280 279 274
3 274 74 280
3 279 75 274
3 280 23 279
3 282 281 276
3 276 76 282
3 281 74 276
3 282 22 281
3 285 283 284
3 284 78 285
3 283 75 284
3 285 77 283
3 279 286 284
3 284 75 279
3 286 78 284
3 279 23 286
3 287 278 283
3 283 77 287
3 278 75 283
3 287 24 278
3 289 288 285
3 285 78 289
3 288 77 285
3 289 0 288
3 292 290 291
3 291 80 292
3 290 74 291
3 292 79 290
3 281 293 291
3 291 74 281
3 293 80 291
3 281 22 293
3 294 280 290
3 290 79 294
3 280 74 290
3 294 23 280
3 296 295 292
3 292 80 296
3 295 79 292
3 296 4 295
3 299 297 298
3 298 82 299
3 297 76 298
3 299 81 297
3 277 300 298
3 298 76 277
3 300 82 298
3 277 24 300
3 301 282 297
3 297 81 301
3 282 76 297
3 301 22 282
3 303 302 299
3 299 82 303
3 302 81 299
3 303 3 302
3 306 304 305
3 305 85 306
3 304 84 305
3 306 83 304
3 308 307 305
3 305 84 308
3 307 85 305
3 308 26 307
3 310 309 304
3 304 83 310
3 309 84 304
3 310 24 309
3 312 311 306
3 306 85 312
3 311 83 306
3 312 25 311
3 315 313 314
3 314 77 315
3 313 84 314
3 315 86 313
3 309 287 314
3 314 84 309
3 287 77 314
3 309 24 287
3 316 308 313
3 313 86 316
3 308 84 313
3 316 26 308
3 288 317 315
3 315 77 288
3 317 86 315
3 288 0 317
3 320 318 319
3 319 87 320
3 318 83 319
3 320 82 318
3 311 321 319
3 319 83 311
3 321 87 319
3 311 25 321
3 300 310 318
3 318 82 300
3 310 83 318
3 300 24 310
3 322 303 320
3 320 87 322
3 303 82 320
3 322 3 303
3 325 323 324
3 324 89 325
3 323 85 324
3 325 88 323
3 307 326 324
3 324 85 307
3 326 89 324
3 307 26 326
3 327 312 323
3 323 88 327
3 312 85 323
3 327 25 312
3 329 328 325
3 325 89 329
3 328 88 325
3 329 5 328
3 332 330 331
3 331 92 332
3 330 91 331
3 332 90 330
3 334 333 331
3 331 91 334
3 333 92 331
3 334 29 333
3 336 335 330
3 330 90 336
3 335 91 330
3 336 28 335
3 338 337 332
3 332 92 338
3 337 90 332
3 338 27 337
3 341 339 340
3 340 94 341
3 339 91 340
3 341 93 339
3 335 342 340
3 340 91 335
3 342 94 340
3 335 28 342
3 343 334 339
3 339 93 343
3 334 91 339
3 343 29 334
3 345 344 341
3 341 94 345
3 344 93 341
3 345 2 344
3 348 346 347
3 347 96 348
3 346 90 347
3 348 95 346
3 337 349 347
3 347 90 337
3 349 96 347
3 337 27 349
3 350 336 346
3 346 95 350
3 336 90 346
3 350 28 336
3 352 351 348
3 348 96 352
3 351 95 348
3 352 7 351
3 355 353 354
3 354 98 355
3 353 92 354
3 355 97 353
3 333 356 354
3 354 92 333
3 356 98 354
3 333 29 356
3 357 338 353
3 353 97 357
3 338 92 353
3 357 27 338
3 359 358 355
3 355 98 359
3 358 97 355
3 359 1 358
3 362 360 361
3 361 101 362
3 360 100 361
3 362 99 360
3 364 363 361
3 361 100 364
3 363 101 361
3 364 31 363
3 366 365 360
3 360 99 366
3 365 100 360
3 366 29 365
3 368 367 362
3 362 101 368
3 367 99 362
3 368 30 367
3 371 369 370
3 370 93 371
3 369 100 370
3 371 102 369
3 365 343 370
3 370 100 365
3 343 93 370
3 365 29 343
3 372 364 369
3 369 102 372
3 364 100 369
3 372 31 364
3 344 373 371
3 371 93 344
3 373 102 371
3 344 2 373
3 376 374 375
3 375 103 376
3 374 99 375
3 376 98 374
3 367 377 375
3 375 99 367
3 377 103 375
3 367 30 377
3 356 366 374
3 374 98 356
3 366 99 374
3 356 29 366
3 378 359 376
3 376 103 378
3 359 98 376
3 378 1 359
3 381 379 380
3 380 105 381
3 379 101 380
3 381 104 379
3 363 382 380
3 380 101 363
3 382 105 380
3 363 31 382
3 383 368 379
3 379 104 383
3 368 101 379
3 383 30 368
3 385 384 381
3 381 105 385
3 384 104 381
3 385 6 384
3 388 386 387
3 387 108 388
3 386 107 387
3 388 106 386
3 390 389 387
3 387 107 390
3 389 108 387
3 390 34 389
3 392 391 386
3 386 106 392
3 391 107 386
3 392 33 391
3 394 393 388
3 388 108 394
3 393 106 388
3 394 32 393
3 397 395 396
3 396 110 397
3 395 107 396
3 397 109 395
3 391 398 396
3 396 107 391
3 398 110 396
3 391 33 398
3 399 390 395
3 395 109 399
3 390 107 395
3 399 34 390
3 401 400 397
3 397 110 401
3 400 109 397
3 401 8 400
3 404 402 403
3 403 112 404
3 402 106 403
3 404 111 402
3 393 405 403
3 403 106 393
3 405 112 403
3 393 32 405
3 406 392 402
3 402 111 406
3 392 106 402
3 406 33 392
3 408 407 404
3 404 112 408
3 407 111 404
3 408 0 407
3 411 409 410
3 410 114 411
3 409 108 410
3 411 113 409
3 389 412 410
3 410 108 389
3 412 114 410
3 389 34 412
3 413 394 409
3 409 113 413
3 394 108 409
3 413 32 394
3 415 414 411
3 411 114 415
3 414 113 411
3 415 11 414
3 418 416 417
3 417 117 418
3 416 116 417
3 418 115 416
3 420 419 417
3 417 116 420
3 419 117 417
3 420 36 419
3 422 421 416
3 416 115 422
3 421 116 416
3 422 34 421
3 424 423 418
3 418 117 424
3 423 115 418
3 424 35 423
3 427 425 426
3 426 109 427
3 425 116 426
3 427 118 425
3 421 399 426
3 426 116 421
3 399 109 426
3 421 34 399
3 428 420 425
3 425 118 428
3 420 116 425
3 428 36 420
3 400 429 427
3 427 109 400
3 429 118 427
3 400 8 429
3 432 430 431
3 431 119 432
3 430 115 431
3 432 114 430
3 423 433 431
3 431 115 423
3 433 119 431
3 423 35 433
3 412 422 430
3 430 114 412
3 422 115 430
3 412 34 422
3 434 415 432
3 432 119 434
3 415 114 432
3 434 11 415
3 437 435 436
3 436 121 437
3 435 117 436
3 437 120 435
3 419 438 436
3 436 117 419
3 438 121 436
3 419 36 438
3 439 424 435
3 435 120 439
3 424 117 435
3 439 35 424
3 441 440 437
3 437 121 441
3 440 120 437
3 441 1 440
3 444 442 443
3 443 124 444
3 442 123 443
3 444 122 442
3 446 445 443
3 443 123 446
3 445 124 443
3 446 39 445
3 448 447 442
3 442 122 448
3 447 123 442
3 448 38 447
3 450 449 444
3 444 124 450
3 449 122 444
3 450 37 449
3 453 451 452
3 452 126 453
3 451 123 452
3 453 125 451
3 447 454 452
3 452 123 447
3 454 126 452
3 447 38 454
3 455 446 451
3 451 125 455
3 446 123 451
3 455 39 446
3 457 456 453
3 453 126 457
3 456 125 453
3 457 9 456
3 460 458 459
3 459 128 460
3 458 122 459
3 460 127 458
3 449 461 459
3 459 122 449
3 461 128 459
3 449 37 461
3 462 448 458
3 458 127 462
3 448 122 458
3 462 38 448
3 464 463 460
3 460 128 464
3 463 127 460
3 464 10 463
3 467 465 466
3 466 130 467
3 465 124 466
3 467 129 465
3 445 468 466
3 466 124 445
3 468 130 466
3 445 39 468
3 469 450 465
3 465 129 469
3 450 124 465
3 469 37 450
3 471 470 467
3 467 130 471
3 470 129 467
3 471 3 470
3 474 472 473
3 473 133 474
3 472 132 473
3 474 131 472
3 476 475 473
3 473 132 476
3 475 133 473
3 476 38 475
3 478 477 472
3 472 131 478
3 477 132 472
3 478 41 477
3 480 479 474
3 474 133 480
3 479 131 474
3 480 40 479
3 483 481 482
3 482 134 483
3 481 132 482
3 483 126 481
3 477 484 482
3 482 132 477
3 484 134 482
3 477 41 484
3 454 476 481
3 481 126 454
3 476 132 481
3 454 38 476
3 485 457 483
3 483 134 485
3 457 126 483
3 485 9 457
3 488 486 487
3 487 136 488
3 486 131 487
3 488 135 486
3 479 489 487
3 487 131 479
3 489 136 487
3 479 40 489
3 490 478 486
3 486 135 490
3 478 131 486
3 490 41 478
3 492 491 488
3 488 136 492
3 491 135 488
3 492 2 491
3 495 493 494
3 494 127 495
3 493 133 494
3 495 137 493
3 475 462 494
3 494 133 475
3 462 127 494
3 475 38 462
3 496 480 493
3 493 137 496
3 480 133 493
3 496 40 480
3 463 497 495
3 495 127 463
3 497 137 495
3 463 10 497
3 500 498 499
3 499 140 500
3 498 139 499
3 500 138 498
3 502 501 499
3 499 139 502
3 501 140 499
3 502 33 501
3 504 503 498
3 498 138 504
3 503 139 498
3 504 13 503
3 506 505 500
3 500 140 506
3 505 138 500
3 506 23 505
3 509 507 508
3 508 47 509
3 507 139 508
3 509 110 507
3 503 182 508
3 508 139 503
3 182 47 508
3 503 13 182
3 398 502 507
3 507 110 398
3 502 139 507
3 398 33 502
3 183 401 509
3 509 47 183
3 401 110 509
3 183 8 401
3 512 510 511
3 511 79 512
3 510 138 511
3 512 46 510
3 505 294 511
3 511 138 505
3 294 79 511
3 505 23 294
3 174 504 510
3 510 46 174
3 504 138 510
3 174 13 504
3 295 177 512
3 512 79 295
3 177 46 512
3 295 4 177
3 515 513 514
3 514 111 515
3 513 140 514
3 515 78 513
3 501 406 514
3 514 140 501
3 406 111 514
3 501 33 406
3 286 506 513
3 513 78 286
3 506 140 513
3 286 23 506
3 407 289 515
3 515 111 407
3 289 78 515
3 407 0 289
3 518 516 517
3 517 143 518
3 516 142 517
3 518 141 516
3 520 519 517
3 517 142 520
3 519 143 517
3 520 19 519
3 522 521 516
3 516 141 522
3 521 142 516
3 522 32 521
3 524 523 518
3 518 143 524
3 523 141 518
3 524 26 523
3 527 525 526
3 526 113 527
3 525 142 526
3 527 66 525
3 521 413 526
3 526 142 521
3 413 113 526
3 521 32 413
3 244 520 525
3 525 66 244
3 520 142 525
3 244 19 520
3 414 247 527
3 527 113 414
3 247 66 527
3 414 11 247
3 530 528 529
3 529 86 530
3 528 141 529
3 530 112 528
3 523 316 529
3 529 141 523
3 316 86 529
3 523 26 316
3 405 522 528
3 528 112 405
3 522 141 528
3 405 32 522
3 317 408 530
3 530 86 317
3 408 112 530
3 317 0 408
3 533 531 532
3 532 61 533
3 531 143 532
3 533 89 531
3 519 231 532
3 532 143 519
3 231 61 532
3 519 19 231
3 326 524 531
3 531 89 326
3 524 143 531
3 326 26 524
3 232 329 533
3 533 61 232
3 329 89 533
3 232 5 329
3 536 534 535
3 535 146 536
3 534 145 535
3 536 144 534
3 538 537 535
3 535 145 538
3 537 146 535
3 538 22 537
3 540 539 534
3 534 144 540
3 539 145 534
3 540 16 539
3 542 541 536
3 536 146 542
3 541 144 536
3 542 39 541
3 545 543 544
3 544 54 545
3 543 145 544
3 545 80 543
3 539 204 544
3 544 145 539
3 204 54 544
3 539 16 204
3 293 538 543
3 543 80 293
3 538 145 543
3 293 22 538
3 205 296 545
3 545 54 205
3 296 80 545
3 205 4 296
3 548 546 547
3 547 125 548
3 546 144 547
3 548 57 546
3 541 455 547
3 547 144 541
3 455 125 547
3 541 39 455
3 214 540 546
3 546 57 214
3 540 144 546
3 214 16 540
3 456 217 548
3 548 125 456
3 217 57 548
3 456 9 217
3 551 549 550
3 550 81 551
3 549 146 550
3 551 130 549
3 537 301 550
3 550 146 537
3 301 81 550
3 537 22 301
3 468 542 549
3 549 130 468
3 542 146 549
3 468 39 542
3 302 471 551
3 551 81 302
3 471 130 551
3 302 3 471
3 554 552 553
3 553 149 554
3 552 148 553
3 554 147 552
3 556 555 553
3 553 148 556
3 555 149 553
3 556 21 555
3 558 557 552
3 552 147 558
3 557 148 552
3 558 25 557
3 560 559 554
3 554 149 560
3 559 147 554
3 560 37 559
3 563 561 562
3 562 88 563
3 561 148 562
3 563 70 561
3 557 327 562
3 562 148 557
3 327 88 562
3 557 25 327
3 260 556 561
3 561 70 260
3 556 148 561
3 260 21 556
3 328 261 563
3 563 88 328
3 261 70 563
3 328 5 261
3 566 564 565
3 565 129 566
3 564 147 565
3 566 87 564
3 559 469 565
3 565 147 559
3 469 129 565
3 559 37 469
3 321 558 564
3 564 87 321
3 558 147 564
3 321 25 558
3 470 322 566
3 566 129 470
3 322 87 566
3 470 3 322
3 569 567 568
3 568 71 569
3 567 149 568
3 569 128 567
3 555 266 568
3 568 149 555
3 266 71 568
3 555 21 266
3 461 560 567
3 567 128 461
3 560 149 567
3 461 37 560
3 267 464 569
3 569 71 267
3 464 128 569
3 267 10 464
3 572 570 571
3 571 152 572
3 570 151 571
3 572 150 570
3 574 573 571
3 571 151 574
3 573 152 571
3 574 27 573
3 576 575 570
3 570 150 576
3 575 151 570
3 576 12 575
3 578 577 572
3 572 152 578
3 577 150 572
3 578 36 577
3 581 579 580
3 580 49 581
3 579 151 580
3 581 96 579
3 575 189 580
3 580 151 575
3 189 49 580
3 575 12 189
3 349 574 579
3 579 96 349
3 574 151 579
3 349 27 574
3 190 352 581
3 581 49 190
3 352 96 581
3 190 7 352
3 584 582 583
3 583 118 584
3 582 150 583
3 584 48 582
3 577 428 583
3 583 150 577
3 428 118 583
3 577 36 428
3 181 576 582
3 582 48 181
3 576 150 582
3 181 12 576
3 429 184 584
3 584 118 429
3 184 48 584
3 429 8 184
3 587 585 586
3 586 97 587
3 585 152 586
3 587 121 585
3 573 357 586
3 586 152 573
3 357 97 586
3 573 27 357
3 438 578 585
3 585 121 438
3 578 152 585
3 438 36 578
3 358 441 587
3 587 97 358
3 441 121 587
3 358 1 441
3 590 588 589
3 589 155 590
3 588 154 589
3 590 153 588
3 592 591 589
3 589 154 592
3 591 155 589
3 592 17 591
3 594 593 588
3 588 153 594
3 593 154 588
3 594 30 593
3 596 595 590
3 590 155 596
3 595 153 590
3 596 35 595
3 599 597 598
3 598 104 599
3 597 154 598
3 599 64 597
3 593 383 598
3 598 154 593
3 383 104 598
3 593 30 383
3 237 592 597
3 597 64 237
3 592 154 597
3 237 17 592
3 384 240 599
3 599 104 384
3 240 64 599
3 384 6 240
3 602 600 601
3 601 120 602
3 600 153 601
3 602 103 600
3 595 439 601
3 601 153 595
3 439 120 601
3 595 35 439
3 377 594 600
3 600 103 377
3 594 153 600
3 377 30 594
3 440 378 602
3 602 120 440
3 378 103 602
3 440 1 378
3 605 603 604
3 604 65 605
3 603 155 604
3 605 119 603
3 591 245 604
3 604 155 591
3 245 65 604
3 591 17 245
3 433 596 603
3 603 119 433
3 596 155 603
3 433 35 596
3 246 434 605
3 605 65 246
3 434 119 605
3 246 11 434
3 608 606 607
3 607 158 608
3 606 157 607
3 608 156 606
3 610 609 607
3 607 157 610
3 609 158 607
3 610 15 609
3 612 611 606
3 606 156 612
3 611 157 606
3 612 28 611
3 614 613 608
3 608 158 614
3 613 156 608
3 614 41 613
3 617 615 616
3 616 95 617
3 615 157 616
3 617 55 615
3 611 350 616
3 616 157 611
3 350 95 616
3 611 28 350
3 209 610 615
3 615 55 209
3 610 157 615
3 209 15 610
3 351 210 617
3 617 95 351
3 210 55 617
3 351 7 210
3 620 618 619
3 619 135 620
3 618 156 619
3 620 94 618
3 613 490 619
3 619 156 613
3 490 135 619
3 613 41 490
3 342 612 618
3 618 94 342
3 612 156 618
3 342 28 612
3 491 345 620
3 620 135 491
3 345 94 620
3 491 2 345
3 623 621 622
3 622 56 623
3 621 158 622
3 623 134 621
3 609 215 622
3 622 158 609
3 215 56 622
3 609 15 215
3 484 614 621
3 621 134 484
3 614 158 621
3 484 41 614
3 216 485 623
3 623 56 216
3 485 134 623
3 216 9 485
3 626 624 625
3 625 161 626
3 624 160 625
3 626 159 624
3 628 627 625
3 625 160 628
3 627 161 625
3 628 31 627
3 630 629 624
3 624 159 630
3 629 160 624
3 630 20 629
3 632 631 626
3 626 161 632
3 631 159 626
3 632 40 631
3 635 633 634
3 634 73 635
3 633 160 634
3 635 105 633
3 629 272 634
3 634 160 629
3 272 73 634
3 629 20 272
3 382 628 633
3 633 105 382
3 628 160 633
3 382 31 628
3 273 385 635
3 635 73 273
3 385 105 635
3 273 6 385
3 638 636 637
3 637 137 638
3 636 159 637
3 638 72 636
3 631 496 637
3 637 159 631
3 496 137 637
3 631 40 496
3 265 630 636
3 636 72 265
3 630 159 636
3 265 20 630
3 497 268 638
3 638 137 497
3 268 72 638
3 497 10 268
3 641 639 640
3 640 102 641
3 639 161 640
3 641 136 639
3 627 372 640
3 640 161 627
3 372 102 640
3 627 31 372
3 489 632 639
3 639 136 489
3 632 161 639
3 489 40 632
3 373 492 641
3 641 102 373
3 492 136 641
3 373 2 492
