# vtk DataFile Version 3.0
this file was written using fslvtkio
ASCII
DATASET POLYDATA
POINTS 642 float
105.249 139.452 102.013
98.5752 139.275 100.889
100.988 135.081 100.258
106.532 134.713 100.395
104.618 137.445 103.578
104.527 136.785 98.6758
101.259 136.845 98.354
101.278 137.447 102.924
102.621 141.89 104.73
103.641 133.873 101.438
103.133 131.932 97.0797
102.374 141.234 100.159
101.552 139.424 103.701
104.01 139.502 104.939
102.806 137.64 103.595
102.446 136.064 102.108
104.11 135.535 102.538
101.419 139.064 99.0056
102.89 136.709 98.1217
103.252 138.68 99.7308
101.642 134.25 96.0575
104.409 134.608 97.0594
106.009 135.93 102.242
105.88 138.809 103.476
105.777 137.146 101.196
105.817 135.626 99.0832
104.72 137.994 100.425
99.7547 138.36 102.357
100.724 136.486 101.798
99.5916 137.091 100.724
99.653 138.378 99.2291
100.99 135.585 98.9495
104.078 140.801 101.364
104.905 141.424 103.776
102.612 143.518 102.262
100.072 141.346 100.04
99.9465 141.574 102.682
105.791 132.491 98.6306
103.417 131.687 99.9439
105.492 133.066 101.608
101.1 132.553 98.5968
102.088 133.957 100.767
102.719 139.574 104.406
103.231 138.579 104.159
102.291 138.569 103.716
103.676 137.555 103.816
104.377 138.453 104.148
103.353 140.765 105.061
102.001 140.698 104.194
101.364 138.388 103.22
102.011 137.633 103.201
102.645 136.911 102.813
103.45 136.725 103.093
103.298 135.847 102.291
104.468 136.696 102.926
101.791 136.931 102.586
102.896 134.813 101.889
103.843 134.632 101.957
102.152 137.741 98.9017
102.9 137.583 99.2102
102.405 138.933 99.303
103.791 137.505 99.3765
103.865 136.827 98.3398
101.942 136.73 98.1219
101.253 137.776 98.7754
101.862 140.201 99.6352
102.822 139.987 100.049
103.197 134.381 95.9118
103.703 135.829 97.1826
102.525 135.672 96.9481
104.492 135.921 98.0218
103.978 132.867 96.3703
102.184 132.346 95.6743
101.574 135.68 97.5467
105.526 137.374 102.623
105.57 137.881 102.242
105.914 136.555 101.737
105.545 138.449 101.659
105.733 139.317 102.702
105.361 138.077 103.669
105.223 136.904 102.659
106.421 135.263 101.311
106.238 135.897 100.721
105.905 136.439 100.145
105.494 137.67 100.669
105.479 136.981 99.6902
105.194 138.959 101.195
106.281 135.075 99.7372
105.238 136.323 98.7595
104.716 137.386 99.4319
100.099 137.346 102.122
99.906 136.688 101.431
99.4356 137.747 101.581
100.406 136.292 100.585
100.729 135.791 101.143
100.873 136.983 102.518
100.567 137.864 102.762
98.9859 138.85 101.702
98.9689 138.199 100.764
99.4355 137.673 99.9483
100.251 136.626 99.9057
100.221 137.096 99.3141
100.973 135.152 99.6277
98.9677 138.951 100.018
100.588 137.527 98.9854
101.053 136.231 98.4286
104.541 141.556 102.515
104.061 142.832 103.373
103.723 142.442 101.748
102.517 143.13 104.069
103.972 142.029 104.706
105.318 140.569 102.768
104.883 140.241 101.79
103.287 141.315 100.697
102.454 142.341 100.866
101.031 142.953 100.915
100.757 143.143 102.762
99.2487 142.368 101.26
101.25 142.053 103.852
101.416 141.639 99.9894
98.7711 140.565 100.312
99.0832 140.606 101.552
104.827 131.353 99.2675
104.683 131.887 100.846
106.078 132.163 100.235
104.422 133.296 101.438
103.704 132.748 100.849
103.171 131.444 98.4207
104.55 131.983 97.7256
106.297 133.628 99.691
106.374 133.811 100.934
101.77 133.14 99.8645
102.855 132.74 100.213
102.189 132.078 99.2929
102.844 133.738 101.144
101.329 134.4 100.51
100.994 133.852 99.5586
101.843 131.941 97.5893
105.182 139.247 104.416
104.95 140.817 105.143
105.57 140.171 103.827
104.298 139.246 100.922
103.631 139.756 100.48
104.015 138.423 100.112
104.903 134.433 101.857
105.173 135.639 102.375
105.909 134.555 101.832
106.005 134.114 98.5704
105.465 135.054 97.9857
105.349 133.344 97.3688
100.8 140.46 103.356
100.455 138.991 103.151
99.6881 139.82 102.542
99.4772 139.839 99.3818
100.411 138.951 99.0443
100.719 140.279 99.4178
101.388 135.29 101.421
101.622 136.275 101.916
102.147 134.938 101.552
100.96 132.822 96.8637
101.334 134.521 97.6499
100.938 133.783 98.4444
103 139.079 104.35
102.792 138.597 103.922
102.41 139.017 104.116
102.594 138.138 103.614
103.055 138.108 103.774
103.57 139.051 104.579
103.312 139.632 104.771
102.068 139.461 104.097
101.877 138.969 103.81
103.506 138.04 103.919
103.819 138.553 104.239
103.934 137.949 104.05
104.195 138.996 104.531
103.262 137.581 103.704
104.147 137.48 103.788
104.463 137.96 103.967
103.017 140.117 104.773
102.291 139.996 104.452
102.666 140.716 104.651
101.699 139.948 103.978
103.725 140.063 105.187
102.967 141.377 104.822
102.368 141.41 104.396
101.802 138.505 103.473
102.177 138.095 103.404
101.69 138.016 103.251
102.407 137.692 103.4
101.411 138.873 103.505
101.28 137.859 103.083
101.617 137.534 103.047
103.062 136.854 102.958
103.418 136.276 102.612
103.106 136.499 102.424
103.643 135.649 102.5
103.748 136.125 102.796
103.013 137.108 103.505
102.644 137.206 103.295
102.627 136.593 102.339
102.892 135.977 102.203
103.977 136.688 102.986
103.472 137.02 103.565
104.031 137.003 103.447
104.309 136.134 102.716
104.595 137.06 103.178
102.235 137.201 103.111
102.182 136.912 102.715
101.784 137.171 103.02
102.168 136.629 102.273
101.513 137.13 102.812
103.108 135.313 102.073
103.564 135.175 102.148
103.292 134.724 101.989
103.956 135.043 102.264
102.662 135.42 102.023
103.247 134.271 101.701
103.678 134.191 101.697
102.503 137.621 99.0635
102.661 138.167 99.2382
102.25 138.313 99.0591
102.847 138.816 99.4862
103.05 138.069 99.4815
102.869 137.105 98.7036
102.461 137.12 98.6738
101.808 138.423 98.9316
101.948 139.031 99.1238
103.351 137.541 99.2939
103.339 137.15 98.721
103.832 137.226 98.7994
103.359 136.762 98.2356
103.396 137.964 99.7253
104.214 137.195 98.9274
104.224 136.767 98.5166
102.023 137.133 98.6536
101.726 137.766 98.8361
101.667 137.183 98.5956
101.31 138.432 98.8374
102.392 136.714 98.1422
101.536 136.779 98.2321
101.24 137.261 98.5717
102.156 139.559 99.4566
102.597 139.439 99.6401
102.338 140.071 99.8307
103.048 139.327 99.8641
101.675 139.66 99.2767
102.09 140.74 99.9263
102.55 140.594 100.16
103.532 135.198 96.4218
103.144 135.753 96.8828
102.839 135.109 96.1718
102.744 136.227 97.5654
103.279 136.252 97.6502
104.057 135.276 96.9685
103.772 134.468 96.539
102.334 134.239 95.7743
102.097 135.01 96.3058
103.743 136.332 97.8716
104.144 135.872 97.5743
104.15 136.334 98.1253
104.494 135.367 97.4776
104.53 136.376 98.3905
103.597 133.516 95.9239
102.746 133.307 95.49
103.155 132.508 95.8491
101.753 133.182 95.6209
104.267 133.681 96.5854
103.539 132.244 96.5923
102.684 132.065 96.4009
101.974 135.624 97.0422
102.224 136.274 97.5728
101.727 136.332 97.674
101.64 134.974 96.7584
101.418 136.368 97.9626
105.493 137.656 102.471
105.734 137.223 101.949
105.771 136.987 102.235
105.864 136.837 101.453
105.655 137.482 101.674
105.838 138.45 102.821
105.675 138.14 103.062
105.743 136.698 102.398
106.044 136.292 101.991
105.506 138.126 101.973
105.813 138.725 102.477
105.612 138.91 102.159
105.914 139.129 103.069
105.55 137.742 101.458
105.484 139.077 101.834
105.486 139.43 102.317
105.414 137.754 103.133
105.354 137.109 102.642
105.167 137.456 103.064
105.555 136.453 102.5
105.685 138.431 103.728
104.973 137.756 103.633
104.958 137.17 103.022
106.229 135.885 101.502
106.136 136.194 101.228
106.356 135.624 101.021
105.926 136.454 100.929
106.223 135.545 101.772
106.481 134.909 100.807
106.435 135.251 100.516
105.777 137.049 100.395
105.529 137.323 100.182
105.772 136.757 99.8985
105.19 137.567 100.015
105.17 137.845 100.53
105.657 137.348 100.926
105.852 136.783 100.643
105.881 136.03 99.6317
105.738 136.381 99.3607
105.289 138.292 100.942
105.466 138.048 101.17
105.453 138.729 101.374
104.979 138.491 100.811
105.243 139.264 101.595
106.101 136.153 100.394
106.082 135.781 99.8993
106.267 135.498 100.227
106.021 135.343 99.3837
106.516 134.861 100.047
105.422 136.632 99.1956
105.15 137.201 99.5481
105.046 136.861 99.0764
104.655 137.644 99.9742
105.548 135.99 98.8648
104.801 136.525 98.7031
104.609 137.057 99.0295
99.9343 136.995 101.806
99.7386 137.185 101.549
99.7921 137.568 101.9
99.4566 137.362 101.186
99.6995 136.862 101.12
100.309 136.56 101.643
100.275 136.841 102.059
99.9498 137.873 102.224
99.5289 138.095 101.965
100.169 136.544 100.965
100.372 136.291 101.257
100.502 136.043 100.836
100.732 136.144 101.476
99.9981 136.728 100.658
100.744 135.684 100.413
100.823 135.435 100.668
100.451 137.114 102.332
100.276 137.54 102.45
100.661 137.34 102.631
100.237 138.144 102.535
100.799 136.8 102.155
101.084 137.195 102.75
100.91 137.588 102.927
99.2383 138.321 101.61
99.144 137.939 101.213
98.9041 138.479 101.277
99.2101 137.601 100.765
99.3239 138.592 102.083
98.7001 139.041 101.295
98.687 138.668 100.86
99.8488 137.15 99.9376
100.253 136.882 99.6241
99.7856 137.413 99.617
100.634 136.402 99.1619
100.616 136.165 99.4612
99.9551 136.916 100.281
99.493 137.359 100.322
99.5815 138.046 99.5929
99.8823 137.75 99.3245
100.664 135.996 99.7816
100.364 136.445 100.21
100.734 135.845 100.108
100.947 135.29 99.266
100.982 135.104 99.9747
99.1255 137.906 100.335
99.148 138.307 99.9277
98.9036 138.545 100.403
99.2248 138.703 99.5244
98.6842 139.156 100.459
100.377 137.394 99.095
100.639 136.666 98.9054
100.796 136.96 98.7152
101.01 135.89 98.6809
100.069 138.064 99.0679
100.941 137.157 98.62
101.15 136.571 98.3306
104.367 142.084 102.921
103.9 142.781 102.513
104.18 142.008 102.186
103.328 143.208 101.957
103.356 143.328 102.829
104.481 142.01 103.677
104.691 141.584 103.17
104.416 141.253 101.896
103.95 141.619 101.579
103.448 143.25 103.809
104.092 142.571 104.258
103.4 142.832 104.609
104.475 141.705 104.297
102.528 143.374 103.186
102.546 142.651 104.634
103.248 142.073 104.861
104.956 141.099 102.678
104.676 140.852 102.169
104.985 140.408 102.323
104.498 140.527 101.616
105.293 141.157 103.241
105.235 139.9 102.359
105.107 139.839 101.895
103.455 141.815 101.22
103.188 142.595 101.242
102.971 141.879 100.772
102.581 143.15 101.405
103.667 141.028 101.06
102.842 141.34 100.403
102.415 141.779 100.399
100.774 143.378 101.742
99.797 143.012 102.027
100.097 142.849 100.984
99.5345 142.043 102.043
100.033 142.498 102.859
101.682 143.404 102.495
101.75 143.401 101.593
100.503 142.22 100.388
99.6679 142.048 100.423
100.929 142.68 103.431
101.671 143.117 103.415
101.705 142.775 104.1
100.504 141.882 103.343
101.925 142.062 104.395
101.782 142.729 100.918
101.214 142.213 100.381
101.889 142.073 100.374
100.762 141.627 99.9506
101.944 141.452 100.073
99.0624 141.445 100.758
99.2225 141.452 101.459
98.8902 140.785 100.968
99.5543 141.165 102.018
99.3203 141.092 100.062
98.604 139.855 100.636
98.7106 139.868 101.208
104.77 131.455 100.128
105.377 131.757 100.666
105.51 131.698 99.7839
105.849 132.438 101.058
105.091 132.359 101.253
104.043 131.66 100.368
104.031 131.284 99.627
105.43 131.778 98.8947
105.973 132.236 99.3623
104.56 132.58 101.278
104.079 132.246 100.867
104.083 132.929 101.182
103.626 132.229 100.434
104.865 133.047 101.528
103.971 133.601 101.416
103.683 133.384 101.183
103.992 131.329 98.8243
104.728 131.592 98.4253
103.866 131.58 98.0409
105.263 132.164 98.1447
103.247 131.386 99.2164
103.118 131.607 97.6467
103.755 131.943 97.3542
106.277 132.94 99.8928
106.336 133.057 100.639
106.301 133.614 100.297
106.109 133.342 101.345
106.142 132.996 99.1697
106.569 134.192 100.07
106.564 134.24 100.588
102.356 132.925 100.039
102.565 132.283 99.8036
101.962 132.51 99.5731
102.732 131.786 99.6003
103.1 132.195 100.055
102.455 133.33 100.449
102.045 133.613 100.31
101.392 132.748 99.3273
101.672 132.245 98.9062
103.326 132.727 100.462
102.93 133.189 100.69
103.32 133.209 100.937
102.414 133.807 100.968
103.267 133.787 101.341
101.64 133.854 100.146
101.219 133.423 99.7259
101.203 134.102 100.056
100.983 133.191 99.1255
101.675 134.168 100.667
101.099 134.739 100.37
100.981 134.493 99.9646
101.874 131.919 98.5218
102.439 131.56 98.8682
102.347 131.571 98.0189
101.406 132.186 98.041
102.402 131.734 97.1905
105.24 140.03 104.913
105.536 140.673 104.536
105.493 139.691 104.243
105.515 141 103.863
105.036 141.209 104.454
104.505 140.1 105.197
104.661 139.428 104.744
105.67 138.984 104.036
105.868 139.443 103.668
104.456 141.404 104.915
104.119 140.793 105.445
103.636 141.486 105.056
104.834 138.907 104.192
105.292 138.628 104.151
104.883 138.307 104.018
105.69 139.706 103.258
105.496 140.476 103.31
105.439 139.861 102.81
103.923 139.499 100.746
103.739 139.023 100.409
104.114 138.849 100.572
103.678 138.603 99.9526
103.408 139.182 100.15
103.83 140.338 100.908
104.187 140.046 101.137
104.499 138.657 100.719
104.291 138.19 100.305
103.262 139.928 100.275
103.489 140.602 100.627
103.043 140.649 100.384
104.65 139.784 101.292
104.79 139.117 101.05
104.979 139.555 101.461
104.163 137.75 99.9261
103.729 137.867 99.8661
104.219 137.434 99.4264
105.046 135.055 102.251
105.552 135.134 102.233
105.407 134.425 101.926
106.006 135.304 102.077
105.626 135.733 102.351
104.608 135.533 102.441
104.44 135 102.353
105.258 133.776 101.678
105.746 133.923 101.638
105.218 136.231 102.582
104.848 136.107 102.608
104.95 136.745 102.817
104.395 134.475 101.896
104.699 133.804 101.65
104.176 134.021 101.677
106.17 134.187 101.446
106.248 134.901 101.575
106.454 134.555 101.142
105.774 134.576 98.1936
105.447 134.215 97.6012
105.694 133.713 97.9863
104.856 133.93 97.1386
104.872 134.776 97.5692
105.636 135.372 98.5625
105.93 134.925 98.8042
106.003 133.272 98.5163
105.626 132.863 97.9169
104.97 135.553 97.9307
105.363 135.781 98.3885
104.921 136.072 98.3796
106.268 134.576 99.1304
106.157 133.776 99.0978
106.412 134.328 99.6289
105.071 132.56 97.4276
104.686 133.071 96.9243
104.295 132.44 97.0488
100.623 139.714 103.236
100.041 139.378 102.893
100.135 140.107 103.021
99.6141 138.988 102.528
100.105 138.707 102.736
100.986 139.283 103.439
101.177 139.961 103.535
100.388 140.972 103.111
99.8449 140.668 102.605
100.526 138.403 102.894
100.952 138.719 103.183
100.939 138.16 102.982
101.308 140.591 103.812
100.96 141.303 103.571
101.599 141.386 104.036
99.3308 140.247 102.14
99.2336 139.322 102.16
98.906 139.624 101.717
99.8722 139.507 99.0361
100.531 139.67 99.1155
100.112 140.116 99.3541
101.113 139.692 99.1948
100.884 139.032 98.9975
99.9323 138.739 99.051
99.372 139.101 99.1517
99.7854 140.531 99.7447
100.413 140.752 99.7264
100.814 138.392 98.8377
100.372 138.27 98.8986
100.858 137.668 98.7855
99.0767 139.427 99.6655
99.1208 140.189 99.7892
98.7409 139.718 100.052
101.057 140.89 99.7154
101.313 140.258 99.5084
101.63 140.869 99.7591
101.502 135.819 101.666
101.896 135.691 101.723
101.704 135.029 101.508
102.27 135.513 101.889
102.088 136.225 101.979
101.174 136.364 101.884
101.199 136.043 101.548
101.611 134.499 101.204
101.987 134.349 101.268
101.748 136.682 102.193
101.256 136.711 102.207
101.348 136.891 102.521
101.034 135.532 101.331
101.273 134.804 101.035
101.033 135.128 100.889
102.358 134.278 101.418
102.49 134.886 101.725
102.812 134.271 101.611
101.125 133.694 97.1228
101.061 134.097 98.02
100.877 133.297 97.699
101.094 134.684 98.6831
101.274 135.005 98.3814
101.358 134.289 96.8361
101.214 133.321 96.2321
100.927 132.56 97.7316
100.898 133.122 98.4268
101.388 135.429 98.1386
101.495 135.124 97.5223
101.365 135.899 97.9447
101.33 132.513 96.1026
101.295 132.244 97.1065
101.94 132.043 96.6287
100.971 133.774 98.9948
101.016 134.483 99.0749
100.96 134.431 99.5039
POLYGONS 1280  5120
3 164 162 163
3 163 44 164
3 162 43 163
3 164 42 162
3 166 165 163
3 163 43 166
3 165 44 163
3 166 14 165
3 168 167 162
3 162 42 168
3 167 43 162
3 168 13 167
3 170 169 164
3 164 44 170
3 169 42 164
3 170 12 169
3 173 171 172
3 172 46 173
3 171 43 172
3 173 45 171
3 167 174 172
3 172 43 167
3 174 46 172
3 167 13 174
3 175 166 171
3 171 45 175
3 166 43 171
3 175 14 166
3 177 176 173
3 173 46 177
3 176 45 173
3 177 4 176
3 180 178 179
3 179 48 180
3 178 42 179
3 180 47 178
3 169 181 179
3 179 42 169
3 181 48 179
3 169 12 181
3 182 168 178
3 178 47 182
3 168 42 178
3 182 13 168
3 184 183 180
3 180 48 184
3 183 47 180
3 184 8 183
3 187 185 186
3 186 50 187
3 185 44 186
3 187 49 185
3 165 188 186
3 186 44 165
3 188 50 186
3 165 14 188
3 189 170 185
3 185 49 189
3 170 44 185
3 189 12 170
3 191 190 187
3 187 50 191
3 190 49 187
3 191 7 190
3 194 192 193
3 193 53 194
3 192 52 193
3 194 51 192
3 196 195 193
3 193 52 196
3 195 53 193
3 196 16 195
3 198 197 192
3 192 51 198
3 197 52 192
3 198 14 197
3 200 199 194
3 194 53 200
3 199 51 194
3 200 15 199
3 203 201 202
3 202 45 203
3 201 52 202
3 203 54 201
3 197 175 202
3 202 52 197
3 175 45 202
3 197 14 175
3 204 196 201
3 201 54 204
3 196 52 201
3 204 16 196
3 176 205 203
3 203 45 176
3 205 54 203
3 176 4 205
3 208 206 207
3 207 55 208
3 206 51 207
3 208 50 206
3 199 209 207
3 207 51 199
3 209 55 207
3 199 15 209
3 188 198 206
3 206 50 188
3 198 51 206
3 188 14 198
3 210 191 208
3 208 55 210
3 191 50 208
3 210 7 191
3 213 211 212
3 212 57 213
3 211 53 212
3 213 56 211
3 195 214 212
3 212 53 195
3 214 57 212
3 195 16 214
3 215 200 211
3 211 56 215
3 200 53 211
3 215 15 200
3 217 216 213
3 213 57 217
3 216 56 213
3 217 9 216
3 220 218 219
3 219 60 220
3 218 59 219
3 220 58 218
3 222 221 219
3 219 59 222
3 221 60 219
3 222 19 221
3 224 223 218
3 218 58 224
3 223 59 218
3 224 18 223
3 226 225 220
3 220 60 226
3 225 58 220
3 226 17 225
3 229 227 228
3 228 62 229
3 227 59 228
3 229 61 227
3 223 230 228
3 228 59 223
3 230 62 228
3 223 18 230
3 231 222 227
3 227 61 231
3 222 59 227
3 231 19 222
3 233 232 229
3 229 62 233
3 232 61 229
3 233 5 232
3 236 234 235
3 235 64 236
3 234 58 235
3 236 63 234
3 225 237 235
3 235 58 225
3 237 64 235
3 225 17 237
3 238 224 234
3 234 63 238
3 224 58 234
3 238 18 224
3 240 239 236
3 236 64 240
3 239 63 236
3 240 6 239
3 243 241 242
3 242 66 243
3 241 60 242
3 243 65 241
3 221 244 242
3 242 60 221
3 244 66 242
3 221 19 244
3 245 226 241
3 241 65 245
3 226 60 241
3 245 17 226
3 247 246 243
3 243 66 247
3 246 65 243
3 247 11 246
3 250 248 249
3 249 69 250
3 248 68 249
3 250 67 248
3 252 251 249
3 249 68 252
3 251 69 249
3 252 18 251
3 254 253 248
3 248 67 254
3 253 68 248
3 254 21 253
3 256 255 250
3 250 69 256
3 255 67 250
3 256 20 255
3 259 257 258
3 258 70 259
3 257 68 258
3 259 62 257
3 253 260 258
3 258 68 253
3 260 70 258
3 253 21 260
3 230 252 257
3 257 62 230
3 252 68 257
3 230 18 252
3 261 233 259
3 259 70 261
3 233 62 259
3 261 5 233
3 264 262 263
3 263 72 264
3 262 67 263
3 264 71 262
3 255 265 263
3 263 67 255
3 265 72 263
3 255 20 265
3 266 254 262
3 262 71 266
3 254 67 262
3 266 21 254
3 268 267 264
3 264 72 268
3 267 71 264
3 268 10 267
3 271 269 270
3 270 63 271
3 269 69 270
3 271 73 269
3 251 238 270
3 270 69 251
3 238 63 270
3 251 18 238
3 272 256 269
3 269 73 272
3 256 69 269
3 272 20 256
3 239 273 271
3 271 63 239
3 273 73 271
3 239 6 273
3 276 274 275
3 275 76 276
3 274 75 275
3 276 74 274
3 278 277 275
3 275 75 278
3 277 76 275
3 278 24 277
3 280 279 274
3 274 74 280
3 279 75 274
3 280 23 279
3 282 281 276
3 276 76 282
3 281 74 276
3 282 22 281
3 285 283 284
3 284 78 285
3 283 75 284
3 285 77 283
3 279 286 284
3 284 75 279
3 286 78 284
3 279 23 286
3 287 278 283
3 283 77 287
3 278 75 283
3 287 24 278
3 289 288 285
3 285 78 289
3 288 77 285
3 289 0 288
3 292 290 291
3 291 80 292
3 290 74 291
3 292 79 290
3 281 293 291
3 291 74 281
3 293 80 291
3 281 22 293
3 294 280 290
3 290 79 294
3 280 74 290
3 294 23 280
3 296 295 292
3 292 80 296
3 295 79 292
3 296 4 295
3 299 297 298
3 298 82 299
3 297 76 298
3 299 81 297
3 277 300 298
3 298 76 277
3 300 82 298
3 277 24 300
3 301 282 297
3 297 81 301
3 282 76 297
3 301 22 282
3 303 302 299
3 299 82 303
3 302 81 299
3 303 3 302
3 306 304 305
3 305 85 306
3 304 84 305
3 306 83 304
3 308 307 305
3 305 84 308
3 307 85 305
3 308 26 307
3 310 309 304
3 304 83 310
3 309 84 304
3 310 24 309
3 312 311 306
3 306 85 312
3 311 83 306
3 312 25 311
3 315 313 314
3 314 77 315
3 313 84 314
3 315 86 313
3 309 287 314
3 314 84 309
3 287 77 314
3 309 24 287
3 316 308 313
3 313 86 316
3 308 84 313
3 316 26 308
3 288 317 315
3 315 77 288
3 317 86 315
3 288 0 317
3 320 318 319
3 319 87 320
3 318 83 319
3 320 82 318
3 311 321 319
3 319 83 311
3 321 87 319
3 311 25 321
3 300 310 318
3 318 82 300
3 310 83 318
3 300 24 310
3 322 303 320
3 320 87 322
3 303 82 320
3 322 3 303
3 325 323 324
3 324 89 325
3 323 85 324
3 325 88 323
3 307 326 324
3 324 85 307
3 326 89 324
3 307 26 326
3 327 312 323
3 323 88 327
3 312 85 323
3 327 25 312
3 329 328 325
3 325 89 329
3 328 88 325
3 329 5 328
3 332 330 331
3 331 92 332
3 330 91 331
3 332 90 330
3 334 333 331
3 331 91 334
3 333 92 331
3 334 29 333
3 336 335 330
3 330 90 336
3 335 91 330
3 336 28 335
3 338 337 332
3 332 92 338
3 337 90 332
3 338 27 337
3 341 339 340
3 340 94 341
3 339 91 340
3 341 93 339
3 335 342 340
3 340 91 335
3 342 94 340
3 335 28 342
3 343 334 339
3 339 93 343
3 334 91 339
3 343 29 334
3 345 344 341
3 341 94 345
3 344 93 341
3 345 2 344
3 348 346 347
3 347 96 348
3 346 90 347
3 348 95 346
3 337 349 347
3 347 90 337
3 349 96 347
3 337 27 349
3 350 336 346
3 346 95 350
3 336 90 346
3 350 28 336
3 352 351 348
3 348 96 352
3 351 95 348
3 352 7 351
3 355 353 354
3 354 98 355
3 353 92 354
3 355 97 353
3 333 356 354
3 354 92 333
3 356 98 354
3 333 29 356
3 357 338 353
3 353 97 357
3 338 92 353
3 357 27 338
3 359 358 355
3 355 98 359
3 358 97 355
3 359 1 358
3 362 360 361
3 361 101 362
3 360 100 361
3 362 99 360
3 364 363 361
3 361 100 364
3 363 101 361
3 364 31 363
3 366 365 360
3 360 99 366
3 365 100 360
3 366 29 365
3 368 367 362
3 362 101 368
3 367 99 362
3 368 30 367
3 371 369 370
3 370 93 371
3 369 100 370
3 371 102 369
3 365 343 370
3 370 100 365
3 343 93 370
3 365 29 343
3 372 364 369
3 369 102 372
3 364 100 369
3 372 31 364
3 344 373 371
3 371 93 344
3 373 102 371
3 344 2 373
3 376 374 375
3 375 103 376
3 374 99 375
3 376 98 374
3 367 377 375
3 375 99 367
3 377 103 375
3 367 30 377
3 356 366 374
3 374 98 356
3 366 99 374
3 356 29 366
3 378 359 376
3 376 103 378
3 359 98 376
3 378 1 359
3 381 379 380
3 380 105 381
3 379 101 380
3 381 104 379
3 363 382 380
3 380 101 363
3 382 105 380
3 363 31 382
3 383 368 379
3 379 104 383
3 368 101 379
3 383 30 368
3 385 384 381
3 381 105 385
3 384 104 381
3 385 6 384
3 388 386 387
3 387 108 388
3 386 107 387
3 388 106 386
3 390 389 387
3 387 107 390
3 389 108 387
3 390 34 389
3 392 391 386
3 386 106 392
3 391 107 386
3 392 33 391
3 394 393 388
3 388 108 394
3 393 106 388
3 394 32 393
3 397 395 396
3 396 110 397
3 395 107 396
3 397 109 395
3 391 398 396
3 396 107 391
3 398 110 396
3 391 33 398
3 399 390 395
3 395 109 399
3 390 107 395
3 399 34 390
3 401 400 397
3 397 110 401
3 400 109 397
3 401 8 400
3 404 402 403
3 403 112 404
3 402 106 403
3 404 111 402
3 393 405 403
3 403 106 393
3 405 112 403
3 393 32 405
3 406 392 402
3 402 111 406
3 392 106 402
3 406 33 392
3 408 407 404
3 404 112 408
3 407 111 404
3 408 0 407
3 411 409 410
3 410 114 411
3 409 108 410
3 411 113 409
3 389 412 410
3 410 108 389
3 412 114 410
3 389 34 412
3 413 394 409
3 409 113 413
3 394 108 409
3 413 32 394
3 415 414 411
3 411 114 415
3 414 113 411
3 415 11 414
3 418 416 417
3 417 117 418
3 416 116 417
3 418 115 416
3 420 419 417
3 417 116 420
3 419 117 417
3 420 36 419
3 422 421 416
3 416 115 422
3 421 116 416
3 422 34 421
3 424 423 418
3 418 117 424
3 423 115 418
3 424 35 423
3 427 425 426
3 426 109 427
3 425 116 426
3 427 118 425
3 421 399 426
3 426 116 421
3 399 109 426
3 421 34 399
3 428 420 425
3 425 118 428
3 420 116 425
3 428 36 420
3 400 429 427
3 427 109 400
3 429 118 427
3 400 8 429
3 432 430 431
3 431 119 432
3 430 115 431
3 432 114 430
3 423 433 431
3 431 115 423
3 433 119 431
3 423 35 433
3 412 422 430
3 430 114 412
3 422 115 430
3 412 34 422
3 434 415 432
3 432 119 434
3 415 114 432
3 434 11 415
3 437 435 436
3 436 121 437
3 435 117 436
3 437 120 435
3 419 438 436
3 436 117 419
3 438 121 436
3 419 36 438
3 439 424 435
3 435 120 439
3 424 117 435
3 439 35 424
3 441 440 437
3 437 121 441
3 440 120 437
3 441 1 440
3 444 442 443
3 443 124 444
3 442 123 443
3 444 122 442
3 446 445 443
3 443 123 446
3 445 124 443
3 446 39 445
3 448 447 442
3 442 122 448
3 447 123 442
3 448 38 447
3 450 449 444
3 444 124 450
3 449 122 444
3 450 37 449
3 453 451 452
3 452 126 453
3 451 123 452
3 453 125 451
3 447 454 452
3 452 123 447
3 454 126 452
3 447 38 454
3 455 446 451
3 451 125 455
3 446 123 451
3 455 39 446
3 457 456 453
3 453 126 457
3 456 125 453
3 457 9 456
3 460 458 459
3 459 128 460
3 458 122 459
3 460 127 458
3 449 461 459
3 459 122 449
3 461 128 459
3 449 37 461
3 462 448 458
3 458 127 462
3 448 122 458
3 462 38 448
3 464 463 460
3 460 128 464
3 463 127 460
3 464 10 463
3 467 465 466
3 466 130 467
3 465 124 466
3 467 129 465
3 445 468 466
3 466 124 445
3 468 130 466
3 445 39 468
3 469 450 465
3 465 129 469
3 450 124 465
3 469 37 450
3 471 470 467
3 467 130 471
3 470 129 467
3 471 3 470
3 474 472 473
3 473 133 474
3 472 132 473
3 474 131 472
3 476 475 473
3 473 132 476
3 475 133 473
3 476 38 475
3 478 477 472
3 472 131 478
3 477 132 472
3 478 41 477
3 480 479 474
3 474 133 480
3 479 131 474
3 480 40 479
3 483 481 482
3 482 134 483
3 481 132 482
3 483 126 481
3 477 484 482
3 482 132 477
3 484 134 482
3 477 41 484
3 454 476 481
3 481 126 454
3 476 132 481
3 454 38 476
3 485 457 483
3 483 134 485
3 457 126 483
3 485 9 457
3 488 486 487
3 487 136 488
3 486 131 487
3 488 135 486
3 479 489 487
3 487 131 479
3 489 136 487
3 479 40 489
3 490 478 486
3 486 135 490
3 478 131 486
3 490 41 478
3 492 491 488
3 488 136 492
3 491 135 488
3 492 2 491
3 495 493 494
3 494 127 495
3 493 133 494
3 495 137 493
3 475 462 494
3 494 133 475
3 462 127 494
3 475 38 462
3 496 480 493
3 493 137 496
3 480 133 493
3 496 40 480
3 463 497 495
3 495 127 463
3 497 137 495
3 463 10 497
3 500 498 499
3 499 140 500
3 498 139 499
3 500 138 498
3 502 501 499
3 499 139 502
3 501 140 499
3 502 33 501
3 504 503 498
3 498 138 504
3 503 139 498
3 504 13 503
3 506 505 500
3 500 140 506
3 505 138 500
3 506 23 505
3 509 507 508
3 508 47 509
3 507 139 508
3 509 110 507
3 503 182 508
3 508 139 503
3 182 47 508
3 503 13 182
3 398 502 507
3 507 110 398
3 502 139 507
3 398 33 502
3 183 401 509
3 509 47 183
3 401 110 509
3 183 8 401
3 512 510 511
3 511 79 512
3 510 138 511
3 512 46 510
3 505 294 511
3 511 138 505
3 294 79 511
3 505 23 294
3 174 504 510
3 510 46 174
3 504 138 510
3 174 13 504
3 295 177 512
3 512 79 295
3 177 46 512
3 295 4 177
3 515 513 514
3 514 111 515
3 513 140 514
3 515 78 513
3 501 406 514
3 514 140 501
3 406 111 514
3 501 33 406
3 286 506 513
3 513 78 286
3 506 140 513
3 286 23 506
3 407 289 515
3 515 111 407
3 289 78 515
3 407 0 289
3 518 516 517
3 517 143 518
3 516 142 517
3 518 141 516
3 520 519 517
3 517 142 520
3 519 143 517
3 520 19 519
3 522 521 516
3 516 141 522
3 521 142 516
3 522 32 521
3 524 523 518
3 518 143 524
3 523 141 518
3 524 26 523
3 527 525 526
3 526 113 527
3 525 142 526
3 527 66 525
3 521 413 526
3 526 142 521
3 413 113 526
3 521 32 413
3 244 520 525
3 525 66 244
3 520 142 525
3 244 19 520
3 414 247 527
3 527 113 414
3 247 66 527
3 414 11 247
3 530 528 529
3 529 86 530
3 528 141 529
3 530 112 528
3 523 316 529
3 529 141 523
3 316 86 529
3 523 26 316
3 405 522 528
3 528 112 405
3 522 141 528
3 405 32 522
3 317 408 530
3 530 86 317
3 408 112 530
3 317 0 408
3 533 531 532
3 532 61 533
3 531 143 532
3 533 89 531
3 519 231 532
3 532 143 519
3 231 61 532
3 519 19 231
3 326 524 531
3 531 89 326
3 524 143 531
3 326 26 524
3 232 329 533
3 533 61 232
3 329 89 533
3 232 5 329
3 536 534 535
3 535 146 536
3 534 145 535
3 536 144 534
3 538 537 535
3 535 145 538
3 537 146 535
3 538 22 537
3 540 539 534
3 534 144 540
3 539 145 534
3 540 16 539
3 542 541 536
3 536 146 542
3 541 144 536
3 542 39 541
3 545 543 544
3 544 54 545
3 543 145 544
3 545 80 543
3 539 204 544
3 544 145 539
3 204 54 544
3 539 16 204
3 293 538 543
3 543 80 293
3 538 145 543
3 293 22 538
3 205 296 545
3 545 54 205
3 296 80 545
3 205 4 296
3 548 546 547
3 547 125 548
3 546 144 547
3 548 57 546
3 541 455 547
3 547 144 541
3 455 125 547
3 541 39 455
3 214 540 546
3 546 57 214
3 540 144 546
3 214 16 540
3 456 217 548
3 548 125 456
3 217 57 548
3 456 9 217
3 551 549 550
3 550 81 551
3 549 146 550
3 551 130 549
3 537 301 550
3 550 146 537
3 301 81 550
3 537 22 301
3 468 542 549
3 549 130 468
3 542 146 549
3 468 39 542
3 302 471 551
3 551 81 302
3 471 130 551
3 302 3 471
3 554 552 553
3 553 149 554
3 552 148 553
3 554 147 552
3 556 555 553
3 553 148 556
3 555 149 553
3 556 21 555
3 558 557 552
3 552 147 558
3 557 148 552
3 558 25 557
3 560 559 554
3 554 149 560
3 559 147 554
3 560 37 559
3 563 561 562
3 562 88 563
3 561 148 562
3 563 70 561
3 557 327 562
3 562 148 557
3 327 88 562
3 557 25 327
3 260 556 561
3 561 70 260
3 556 148 561
3 260 21 556
3 328 261 563
3 563 88 328
3 261 70 563
3 328 5 261
3 566 564 565
3 565 129 566
3 564 147 565
3 566 87 564
3 559 469 565
3 565 147 559
3 469 129 565
3 559 37 469
3 321 558 564
3 564 87 321
3 558 147 564
3 321 25 558
3 470 322 566
3 566 129 470
3 322 87 566
3 470 3 322
3 569 567 568
3 568 71 569
3 567 149 568
3 569 128 567
3 555 266 568
3 568 149 555
3 266 71 568
3 555 21 266
3 461 560 567
3 567 128 461
3 560 149 567
3 461 37 560
3 267 464 569
3 569 71 267
3 464 128 569
3 267 10 464
3 572 570 571
3 571 152 572
3 570 151 571
3 572 150 570
3 574 573 571
3 571 151 574
3 573 152 571
3 574 27 573
3 576 575 570
3 570 150 576
3 575 151 570
3 576 12 575
3 578 577 572
3 572 152 578
3 577 150 572
3 578 36 577
3 581 579 580
3 580 49 581
3 579 151 580
3 581 96 579
3 575 189 580
3 580 151 575
3 189 49 580
3 575 12 189
3 349 574 579
3 579 96 349
3 574 151 579
3 349 27 574
3 190 352 581
3 581 49 190
3 352 96 581
3 190 7 352
3 584 582 583
3 583 118 584
3 582 150 583
3 584 48 582
3 577 428 583
3 583 150 577
3 428 118 583
3 577 36 428
3 181 576 582
3 582 48 181
3 576 150 582
3 181 12 576
3 429 184 584
3 584 118 429
3 184 48 584
3 429 8 184
3 587 585 586
3 586 97 587
3 585 152 586
3 587 121 585
3 573 357 586
3 586 152 573
3 357 97 586
3 573 27 357
3 438 578 585
3 585 121 438
3 578 152 585
3 438 36 578
3 358 441 587
3 587 97 358
3 441 121 587
3 358 1 441
3 590 588 589
3 589 155 590
3 588 154 589
3 590 153 588
3 592 591 589
3 589 154 592
3 591 155 589
3 592 17 591
3 594 593 588
3 588 153 594
3 593 154 588
3 594 30 593
3 596 595 590
3 590 155 596
3 595 153 590
3 596 35 595
3 599 597 598
3 598 104 599
3 597 154 598
3 599 64 597
3 593 383 598
3 598 154 593
3 383 104 598
3 593 30 383
3 237 592 597
3 597 64 237
3 592 154 597
3 237 17 592
3 384 240 599
3 599 104 384
3 240 64 599
3 384 6 240
3 602 600 601
3 601 120 602
3 600 153 601
3 602 103 600
3 595 439 601
3 601 153 595
3 439 120 601
3 595 35 439
3 377 594 600
3 600 103 377
3 594 153 600
3 377 30 594
3 440 378 602
3 602 120 440
3 378 103 602
3 440 1 378
3 605 603 604
3 604 65 605
3 603 155 604
3 605 119 603
3 591 245 604
3 604 155 591
3 245 65 604
3 591 17 245
3 433 596 603
3 603 119 433
3 596 155 603
3 433 35 596
3 246 434 605
3 605 65 246
3 434 119 605
3 246 11 434
3 608 606 607
3 607 158 608
3 606 157 607
3 608 156 606
3 610 609 607
3 607 157 610
3 609 158 607
3 610 15 609
3 612 611 606
3 606 156 612
3 611 157 606
3 612 28 611
3 614 613 608
3 608 158 614
3 613 156 608
3 614 41 613
3 617 615 616
3 616 95 617
3 615 157 616
3 617 55 615
3 611 350 616
3 616 157 611
3 350 95 616
3 611 28 350
3 209 610 615
3 615 55 209
3 610 157 615
3 209 15 610
3 351 210 617
3 617 95 351
3 210 55 617
3 351 7 210
3 620 618 619
3 619 135 620
3 618 156 619
3 620 94 618
3 613 490 619
3 619 156 613
3 490 135 619
3 613 41 490
3 342 612 618
3 618 94 342
3 612 156 618
3 342 28 612
3 491 345 620
3 620 135 491
3 345 94 620
3 491 2 345
3 623 621 622
3 622 56 623
3 621 158 622
3 623 134 621
3 609 215 622
3 622 158 609
3 215 56 622
3 609 15 215
3 484 614 621
3 621 134 484
3 614 158 621
3 484 41 614
3 216 485 623
3 623 56 216
3 485 134 623
3 216 9 485
3 626 624 625
3 625 161 626
3 624 160 625
3 626 159 624
3 628 627 625
3 625 160 628
3 627 161 625
3 628 31 627
3 630 629 624
3 624 159 630
3 629 160 624
3 630 20 629
3 632 631 626
3 626 161 632
3 631 159 626
3 632 40 631
3 635 633 634
3 634 73 635
3 633 160 634
3 635 105 633
3 629 272 634
3 634 160 629
3 272 73 634
3 629 20 272
3 382 628 633
3 633 105 382
3 628 160 633
3 382 31 628
3 273 385 635
3 635 73 273
3 385 105 635
3 273 6 385
3 638 636 637
3 637 137 638
3 636 159 637
3 638 72 636
3 631 496 637
3 637 159 631
3 496 137 637
3 631 40 496
3 265 630 636
3 636 72 265
3 630 159 636
3 265 20 630
3 497 268 638
3 638 137 497
3 268 72 638
3 497 10 268
3 641 639 640
3 640 102 641
3 639 161 640
3 641 136 639
3 627 372 640
3 640 161 627
3 372 102 640
3 627 31 372
3 489 632 639
3 639 136 489
3 632 161 639
3 489 40 632
3 373 492 641
3 641 102 373
3 492 136 641
3 373 2 492
