# vtk DataFile Version 3.0
this file was written using fslvtkio
ASCII
DATASET POLYDATA
POINTS 642 float
111.269 117.285 110.029
96.2663 111.69 107.798
92.7584 97.8086 102.153
108.931 102.838 106.19
106.422 106.975 116.118
109.4 110.404 100.116
98.972 107.076 99.0388
95.6702 104.007 114.996
101.472 118.952 115.919
100.766 95.6035 107.861
101.634 95.9185 96.6587
104.542 122.014 104.038
97.9812 111.984 117.298
104.239 113.401 117.528
100.562 104.96 117.191
97.4368 98.4638 112.809
103.917 100.278 113.047
102.577 114.772 102.164
104.346 108.933 99.3837
108.718 118.785 101.133
99.2414 100.5 96.9718
105.278 102.432 99.4992
108.72 104.465 111.565
109.23 113.106 114.436
111.642 110.25 108.116
110.371 106.093 102.591
111.611 116.553 104.197
95.1626 108.499 112.124
93.3218 99.7464 109.343
93.933 104.259 105.049
97.5564 110.164 103.132
95.383 101.339 99.4771
109.57 123.26 106.583
107.404 120.13 113.723
103.067 122.506 110.469
100.04 117.717 106.819
97.4634 116.484 112.735
106.409 97.32 101.224
99.4271 93.3752 101.119
105.975 96.8242 107.17
94.5566 95.5093 95.7719
95.3173 94.8953 104.514
101.031 112.98 118.124
102.42 109.151 117.895
99.1652 108.381 118.043
103.582 105.873 116.888
105.51 110.352 117.351
103.072 116.461 117.085
99.4581 115.603 117.014
96.7737 108.036 116.567
97.7831 103.928 116.765
99.0389 101.28 115.624
102.474 102.586 115.616
100.727 99.1097 113.34
105.402 103.438 114.681
95.9808 100.574 114.24
99.218 97.0977 110.405
102.603 97.8028 110.664
103.641 112.112 100.556
106.765 114.2 100.369
105.405 117.072 101.119
109.229 114.737 100.34
106.878 109.76 99.8373
101.695 108.019 99.0272
100.925 110.705 101.125
103.574 118.528 102.954
106.587 120.958 101.927
102.325 101.271 97.8031
104.93 105.841 99.0155
101.906 104.739 97.9124
107.557 106.167 99.8863
103.97 98.989 97.6336
100.347 98.1357 95.6729
99.242 104.005 97.8577
109.463 108.764 113.236
111.028 111.49 111.516
110.728 107.264 110.257
111.584 113.765 109.036
110.558 115.124 112.459
108.08 110.086 115.681
107.879 105.443 113.998
109.053 103.52 108.872
111.157 106.466 107.319
111.33 108.423 105.264
111.684 113.324 106.094
111.33 111.384 103.406
111.642 117.212 106.985
110.02 104.224 104.416
110.318 108.21 101.053
111 113.61 101.829
94.1498 104.086 110.911
93.3598 102.222 107.436
94.6856 106.182 108.754
93.2798 101.009 103.813
92.957 98.7228 105.909
94.1407 101.832 112.403
95.1885 106.622 113.936
95.5727 110.047 109.883
95.3706 107.701 106.482
95.6042 106.913 103.904
94.1431 102.736 102.005
95.7018 105.775 100.953
93.4988 99.2739 100.024
96.7406 110.911 105.253
98.338 108.568 101.304
96.7767 104.43 98.7555
108.949 121.969 110.438
105.332 122.235 112.44
106.594 123.617 107.931
101.769 121.358 113.759
104.569 119.609 115.299
110.023 118.875 112.313
110.995 120.468 108.666
107.543 123.741 103.901
103.778 122.711 106.907
101.342 120.848 108.6
99.8405 120.175 112.043
98.6466 117.462 109.774
98.7422 118.03 114.905
102.241 119.757 105.411
97.8333 114.767 107.232
96.8276 114.094 110.326
103.656 94.1758 100.909
103.094 94.5209 103.936
106.655 96.322 103.907
103.507 95.9292 107.712
100.293 94.3438 104.497
100.916 93.9464 98.5431
104.482 96.4691 98.6604
107.695 100.22 103.954
107.611 99.3641 106.679
94.1443 94.1726 99.6799
97.2483 93.7913 102.878
96.9063 93.6619 98.2021
97.9301 95.1555 106.684
93.487 95.9323 103.351
92.884 96.4058 98.4386
98.0717 95.2115 95.8456
107.131 113.459 116.621
106.117 117.079 116.184
108.812 116.979 114.552
111.086 120.296 105.501
109.547 122.149 103.1
110.787 117.45 101.927
105.221 98.4535 110.1
106.527 101.906 112.321
107.436 100.573 109.299
108.147 101.916 102.367
108.415 104.255 100.739
106.086 99.7891 100.057
97.1532 114.606 115.324
95.9663 110.444 115.04
95.9913 112.605 112.447
98.5344 114.145 104.956
99.7452 112.615 102.491
101.133 116.504 104.163
94.3597 97.077 107.07
94.8389 98.746 111.578
96.636 96.6341 108.983
97.0199 97.7366 95.0673
96.8769 100.577 97.7627
93.7212 98.4621 96.6612
101.642 111.033 118.189
100.797 108.955 118.184
100.102 110.676 118.357
99.9584 106.853 117.861
101.342 107.2 117.718
103.093 111.287 117.894
102.574 112.883 117.938
99.477 112.232 118.006
98.7028 110.305 117.955
102.866 107.425 117.546
103.908 109.815 117.712
104.438 108.075 117.348
104.681 111.776 117.581
101.983 105.54 117.156
105.007 106.537 116.673
105.819 108.506 116.935
102.136 114.604 117.827
100.093 114.217 117.942
101.233 115.949 117.406
98.6954 113.79 117.367
103.651 114.87 117.366
102.141 117.684 116.789
100.471 117.245 116.74
97.9002 108.345 117.507
98.5128 106.233 117.661
97.2382 106.029 116.987
99.1757 104.737 117.22
97.3654 110.076 117.196
96.2222 105.975 116.031
96.6643 104.107 116.103
100.767 101.856 115.713
101.553 100.716 114.658
99.9397 100.142 114.575
102.298 99.8432 113.502
103.016 101.25 114.458
101.481 103.642 116.507
99.873 103.061 116.453
98.3 99.6977 114.476
99.0718 98.829 113.398
103.942 102.848 115.161
103.033 104.259 116.437
104.729 104.726 115.971
104.498 101.719 113.976
105.964 105.234 115.578
98.5324 102.643 116.436
97.4738 100.778 115.174
96.8281 102.288 115.817
96.7674 99.4146 113.788
95.8051 102.258 114.805
99.8551 98.1348 112.039
101.758 98.6026 112.135
100.914 97.5441 110.685
103.178 99.026 112.063
98.3523 97.8009 111.73
100.173 96.3554 109.325
101.69 96.6184 109.51
105.155 113.198 100.472
106.136 115.631 100.701
104.605 114.675 100.885
107.014 117.7 100.902
107.661 116.523 100.577
105.574 111.837 100.028
104.268 110.872 99.9649
103.29 113.686 101.196
103.984 115.765 101.517
107.981 114.681 100.383
106.769 111.964 100.088
108.073 112.328 100.039
105.664 109.925 99.7312
109.037 116.938 100.683
109.208 112.427 100.109
108.102 110.193 99.9091
102.893 110.063 99.9653
102.343 111.621 100.919
101.376 109.464 100.02
101.82 112.901 101.612
103.117 108.571 99.2053
100.351 107.6 98.9759
100.062 108.856 100.131
104.363 117.758 101.856
106.043 118.955 101.33
104.912 119.795 102.023
107.529 119.641 101.319
103.172 116.671 102.45
104.079 120.301 103.26
105.279 121.507 102.658
103.66 103.612 98.3679
103.455 105.277 98.4236
102.151 103.111 97.8644
103.147 106.753 98.4773
104.639 107.42 99.0567
104.913 103.942 99.0149
103.839 102.138 98.6117
100.911 101.119 97.2897
100.687 102.621 97.5809
105.856 108.012 99.5223
106.098 105.874 99.4766
107.32 108.006 99.7937
106.345 104.3 99.6019
108.583 108.337 100.002
103.055 100.219 97.7649
101.414 99.822 96.6366
102.38 98.7381 96.334
99.8417 99.5123 96.1567
104.345 100.73 98.6902
103.005 97.5314 96.872
101.25 97.1111 96.0598
100.675 104.447 97.8492
102.006 106.675 98.3655
100.436 106.283 98.0888
99.3702 102.354 97.5701
99.0136 105.554 98.1398
110.329 110.114 112.429
111.001 109.4 110.957
110.198 108.015 111.794
111.364 108.841 109.508
111.437 110.502 109.963
110.172 111.981 112.976
109.545 110.898 113.676
109.365 106.723 112.408
109.781 106.108 111.138
111.48 112.397 110.331
110.812 113.242 112.174
111.311 114.191 110.861
109.922 113.974 113.518
111.631 111.879 108.781
111.435 115.421 109.591
111.125 115.939 111.196
108.828 109.598 114.421
108.774 107.149 113.686
108.122 107.815 114.994
108.424 105.074 112.799
108.738 111.647 114.982
107.227 108.504 116.046
107.258 106.181 115.153
109.994 105.413 109.714
111.157 106.924 108.872
110.166 104.992 108.179
111.5 108.413 107.928
109.047 104.136 110.325
109.099 103.295 107.474
110.294 104.707 106.759
111.624 110.85 105.789
111.613 112.269 104.767
111.339 109.853 104.376
111.615 113.774 103.913
111.682 114.594 104.985
111.671 111.625 107.001
111.579 109.562 106.648
110.924 107.581 103.844
111.002 108.937 103.166
111.563 115.173 106.385
111.702 113.274 107.596
111.546 115.353 107.979
111.704 116.746 105.516
111.478 117.039 108.539
111.374 107.629 106.446
110.938 106.431 104.761
110.844 105.492 105.778
110.361 105.231 103.516
109.641 103.697 105.423
110.874 109.787 102.219
111.24 112.649 102.722
110.719 111.039 101.427
111.444 115.122 103.101
110.465 107.428 101.976
110.034 109.421 100.497
110.314 111.988 100.758
93.7233 103.127 109.186
93.9323 104.188 108.082
94.3166 105.112 109.79
94.1688 105.041 107.033
93.5879 103.454 106.454
93.1891 101.267 108.593
93.5976 102.042 110.043
94.6471 106.146 111.315
94.787 107.036 110.415
93.1169 101.769 105.764
92.9356 100.517 106.864
92.952 100.029 105.019
93.0849 99.4383 107.74
93.4031 102.691 104.647
92.961 99.4752 103.141
92.8217 98.4309 104.076
94.0425 102.777 111.547
94.5618 105.295 112.327
94.6674 104.234 113.2
95.0127 107.379 112.885
93.5987 100.762 110.798
94.8677 103.072 113.791
95.456 105.424 114.603
95.1605 108.037 109.487
94.914 106.76 107.562
95.3676 108.776 108.197
94.5958 105.891 105.96
95.311 109.126 111.004
95.8031 110.603 108.647
95.7151 109.567 107.109
94.5153 104.881 102.962
94.7216 104.334 101.511
95.5294 106.261 102.48
95.2677 103.847 100.2
94.7661 102.346 100.702
93.8613 103.588 103.435
94.6298 105.507 104.358
96.482 108.258 103.256
96.4926 107.544 102.111
94.2038 101.009 101.165
93.6316 101.916 102.989
93.4995 100.079 101.978
94.4319 100.329 99.7107
92.9995 98.6203 101.203
95.3074 107.027 105.213
96.3862 108.62 104.517
96.0146 109.277 105.8
97.0747 110.37 104.097
96.4063 111.151 106.523
96.9951 107.14 101.101
96.1544 105.225 99.7867
97.3586 106.705 99.7118
95.9601 103.091 99.2784
97.6787 109.11 102.141
98.7547 107.886 100.183
97.7147 105.833 98.6072
107.204 122.473 111.108
106.227 123.071 110.276
107.741 123.091 109.38
105.033 123.161 109.39
104.45 122.681 111.296
106.526 121.47 112.885
108.057 121.294 112.039
109.226 122.801 108.642
108.197 123.74 107.331
103.629 122.014 113.152
104.959 121.128 114.02
103.191 120.884 114.802
106.076 120.068 114.501
102.513 122.122 112.154
101.476 120.247 115.009
103.082 119.307 115.838
109.432 120.51 111.584
110.241 121.476 109.781
110.77 119.554 110.623
110.31 122.034 107.974
108.681 119.869 112.93
110.849 117.878 111.361
111.258 118.841 109.37
107.034 123.96 105.964
105.198 123.281 107.411
105.551 123.489 105.328
103.664 122.792 108.756
108.582 123.911 105.279
105.771 123.189 103.784
103.904 122.323 105.525
100.57 120.634 110.325
99.2972 119.09 110.795
99.9582 119.349 109.368
98.1037 117.339 111.194
98.623 118.423 112.209
101.281 121.584 111.344
102.04 121.903 109.566
100.491 119.2 107.956
99.3875 117.857 108.415
99.1824 119.202 113.37
100.821 121.049 112.884
100.221 119.83 114.46
98.0428 117.565 113.672
99.9936 118.54 115.629
102.493 122.019 107.917
101.636 120.235 107.15
102.812 121.351 106.215
101.063 118.883 106.305
103.437 120.794 104.644
98.3353 116.131 108.507
97.65 115.88 110.08
97.2669 114.389 108.706
97.1351 115.54 111.512
98.9851 116.437 107.229
96.9499 113.206 107.488
96.4937 112.865 109.057
103.543 94.1458 102.491
105.013 95.1712 103.841
105.397 94.9591 102.342
106.015 96.1945 105.384
104.613 95.3935 105.315
101.564 93.7512 102.55
101.711 93.6919 101.18
105.333 95.2436 100.886
106.524 96.4826 102.354
103.374 95.076 105.923
101.727 94.4321 104.181
101.895 94.9376 106.328
99.9529 93.6741 102.767
104.753 96.1006 107.164
102.144 95.8036 107.964
100.365 94.7582 106.285
102.45 93.9566 99.7448
104.315 94.9986 99.4843
102.827 94.7838 98.1238
105.485 96.5652 99.9978
100.31 93.5993 99.865
101.283 94.7064 97.1964
103.307 96.3975 97.54
107.365 98.0723 103.801
107.345 97.5804 105.315
107.751 99.7913 105.335
107.039 97.6645 106.738
107.15 98.5227 102.62
108.241 101.6 105.134
108.144 101.273 106.618
95.7315 93.6303 101.091
96.9171 93.3086 100.437
95.3796 93.7154 98.8317
98.166 93.3898 99.6488
98.2478 93.4515 101.983
95.9476 94.2212 103.208
94.7069 94.2537 101.77
94.0508 94.4313 97.5654
95.5477 94.2156 96.8543
99.0137 93.9882 103.66
97.3487 94.3695 104.517
98.9521 94.5449 105.72
96.5677 94.9161 105.604
99.3732 95.3973 107.451
93.6736 94.8855 101.411
93.2271 94.9916 98.8981
92.9269 95.8912 100.82
93.3437 95.8017 96.8775
94.313 95.1103 103.528
93.0209 96.8448 102.909
92.6566 97.0395 100.353
97.456 94.1095 97.1013
99.2427 93.6911 98.7042
99.5828 94.3527 97.1136
96.332 95.1694 95.7719
99.8232 95.5105 96.1746
106.695 115.376 116.569
107.562 117.147 115.486
107.988 115.331 115.76
108.185 118.704 114.296
106.896 118.737 115.159
105.28 115.216 116.926
105.773 113.562 117.198
108.286 113.526 115.641
108.977 115.029 114.744
105.532 118.507 115.698
104.641 116.555 116.682
103.798 118.076 116.33
106.296 112.007 117.106
107.802 111.838 116.147
106.877 110.033 116.659
109.728 115.874 113.703
109.363 118.118 113.498
110.37 116.938 112.447
110.377 121.328 104.384
110.346 120.046 102.694
110.945 119.204 103.68
110.046 118.221 101.358
109.3 120.466 101.873
109.838 123.089 104.838
110.442 121.867 106.317
111.474 118.45 104.757
111.324 117.06 103.002
108.118 121.201 102.072
108.855 123.311 103.568
106.524 122.531 102.718
111.065 120.487 107.123
111.541 118.656 106.159
111.4 118.726 107.94
110.986 115.297 101.832
110.152 115.958 100.795
110.237 113.528 100.529
105.9 100.164 111.251
107.144 101.316 110.862
106.517 99.2967 109.698
108.047 102.517 110.534
107.722 102.976 111.859
105.262 100.927 112.622
104.628 99.4272 111.567
105.827 97.5874 108.737
106.928 98.4952 108.29
107.335 103.671 113.028
105.868 102.489 113.451
106.702 104.369 114.413
103.974 98.1479 110.528
104.684 96.9612 108.798
103.168 96.7521 109.234
107.518 99.7767 107.967
108.194 102.214 109.266
108.178 101.712 107.805
108.42 103.197 101.58
107.066 102.149 100.722
107.188 100.852 101.231
105.759 101.277 99.8943
106.876 103.354 100.178
109.758 105.078 101.514
109.467 103.928 102.527
107.149 99.6092 101.897
106.369 98.5885 100.584
108.012 105.106 100.165
109.677 106.092 100.852
109.066 107.302 100.419
109.155 103.305 103.432
107.772 101.018 103.111
108.537 102.473 104.407
105.587 98.0187 99.387
105.049 99.6987 99.0126
104.513 97.8654 97.9941
96.4162 112.567 115.29
95.8699 111.6 113.786
96.368 113.662 113.956
95.566 110.582 112.381
95.4817 109.71 113.577
96.8194 111.326 116.327
97.4525 113.316 116.386
97.0901 115.511 114.005
96.679 114.518 112.688
95.5694 108.587 114.312
96.3803 109.409 115.987
95.8271 107.281 115.338
98.0714 115.093 116.379
97.7648 116.416 114.955
99.0614 116.98 116.093
96.3562 113.472 111.405
95.7589 111.18 111.195
96.0541 112.009 109.895
99.1706 113.544 103.685
100.462 114.611 103.385
99.7764 115.41 104.54
101.765 115.584 103.029
101.119 113.725 102.402
98.5218 111.682 102.848
97.9838 112.358 103.943
99.245 115.939 105.841
100.451 117.094 105.448
100.379 111.802 101.779
98.7959 110.576 102.008
99.5413 109.611 101.118
97.4245 112.383 104.916
98.2381 114.563 106.102
97.0523 112.81 106.245
101.541 118.091 104.955
102.378 117.155 103.556
102.912 119.094 104.153
94.6261 97.8621 109.353
95.7416 97.6216 110.206
95.4079 96.7333 107.989
96.996 97.5746 110.952
96.0607 98.4297 112.12
93.9275 99.054 110.443
93.8036 98.2709 108.385
94.8204 95.8249 105.805
95.9759 95.6379 106.889
95.3538 99.558 113.033
94.1233 100.169 111.99
94.9736 101.493 113.499
93.6502 97.952 106.688
93.9389 96.3038 105.226
93.2449 97.3635 104.679
97.2537 95.7346 107.781
97.8824 96.8806 109.86
98.817 96.013 108.631
96.7263 99.2284 96.1989
95.3953 99.4037 97.114
95.0501 98.2772 95.2365
94.7826 99.616 98.2949
96.1756 101.101 98.7074
98.1253 100.692 97.5122
98.0526 99.3377 95.9572
95.7004 96.5848 95.0802
93.7438 97.0392 95.7762
96.8946 102.501 98.4097
98.0563 102.419 97.8741
97.8982 104.204 98.1182
98.7368 98.4747 95.3118
97.5398 96.4087 95.2635
99.5996 96.8079 95.633
93.1215 97.3319 97.5108
93.649 99.0054 98.4669
92.902 97.9321 99.5494
POLYGONS 1280  5120
3 164 162 163
3 163 44 164
3 162 43 163
3 164 42 162
3 166 165 163
3 163 43 166
3 165 44 163
3 166 14 165
3 168 167 162
3 162 42 168
3 167 43 162
3 168 13 167
3 170 169 164
3 164 44 170
3 169 42 164
3 170 12 169
3 173 171 172
3 172 46 173
3 171 43 172
3 173 45 171
3 167 174 172
3 172 43 167
3 174 46 172
3 167 13 174
3 175 166 171
3 171 45 175
3 166 43 171
3 175 14 166
3 177 176 173
3 173 46 177
3 176 45 173
3 177 4 176
3 180 178 179
3 179 48 180
3 178 42 179
3 180 47 178
3 169 181 179
3 179 42 169
3 181 48 179
3 169 12 181
3 182 168 178
3 178 47 182
3 168 42 178
3 182 13 168
3 184 183 180
3 180 48 184
3 183 47 180
3 184 8 183
3 187 185 186
3 186 50 187
3 185 44 186
3 187 49 185
3 165 188 186
3 186 44 165
3 188 50 186
3 165 14 188
3 189 170 185
3 185 49 189
3 170 44 185
3 189 12 170
3 191 190 187
3 187 50 191
3 190 49 187
3 191 7 190
3 194 192 193
3 193 53 194
3 192 52 193
3 194 51 192
3 196 195 193
3 193 52 196
3 195 53 193
3 196 16 195
3 198 197 192
3 192 51 198
3 197 52 192
3 198 14 197
3 200 199 194
3 194 53 200
3 199 51 194
3 200 15 199
3 203 201 202
3 202 45 203
3 201 52 202
3 203 54 201
3 197 175 202
3 202 52 197
3 175 45 202
3 197 14 175
3 204 196 201
3 201 54 204
3 196 52 201
3 204 16 196
3 176 205 203
3 203 45 176
3 205 54 203
3 176 4 205
3 208 206 207
3 207 55 208
3 206 51 207
3 208 50 206
3 199 209 207
3 207 51 199
3 209 55 207
3 199 15 209
3 188 198 206
3 206 50 188
3 198 51 206
3 188 14 198
3 210 191 208
3 208 55 210
3 191 50 208
3 210 7 191
3 213 211 212
3 212 57 213
3 211 53 212
3 213 56 211
3 195 214 212
3 212 53 195
3 214 57 212
3 195 16 214
3 215 200 211
3 211 56 215
3 200 53 211
3 215 15 200
3 217 216 213
3 213 57 217
3 216 56 213
3 217 9 216
3 220 218 219
3 219 60 220
3 218 59 219
3 220 58 218
3 222 221 219
3 219 59 222
3 221 60 219
3 222 19 221
3 224 223 218
3 218 58 224
3 223 59 218
3 224 18 223
3 226 225 220
3 220 60 226
3 225 58 220
3 226 17 225
3 229 227 228
3 228 62 229
3 227 59 228
3 229 61 227
3 223 230 228
3 228 59 223
3 230 62 228
3 223 18 230
3 231 222 227
3 227 61 231
3 222 59 227
3 231 19 222
3 233 232 229
3 229 62 233
3 232 61 229
3 233 5 232
3 236 234 235
3 235 64 236
3 234 58 235
3 236 63 234
3 225 237 235
3 235 58 225
3 237 64 235
3 225 17 237
3 238 224 234
3 234 63 238
3 224 58 234
3 238 18 224
3 240 239 236
3 236 64 240
3 239 63 236
3 240 6 239
3 243 241 242
3 242 66 243
3 241 60 242
3 243 65 241
3 221 244 242
3 242 60 221
3 244 66 242
3 221 19 244
3 245 226 241
3 241 65 245
3 226 60 241
3 245 17 226
3 247 246 243
3 243 66 247
3 246 65 243
3 247 11 246
3 250 248 249
3 249 69 250
3 248 68 249
3 250 67 248
3 252 251 249
3 249 68 252
3 251 69 249
3 252 18 251
3 254 253 248
3 248 67 254
3 253 68 248
3 254 21 253
3 256 255 250
3 250 69 256
3 255 67 250
3 256 20 255
3 259 257 258
3 258 70 259
3 257 68 258
3 259 62 257
3 253 260 258
3 258 68 253
3 260 70 258
3 253 21 260
3 230 252 257
3 257 62 230
3 252 68 257
3 230 18 252
3 261 233 259
3 259 70 261
3 233 62 259
3 261 5 233
3 264 262 263
3 263 72 264
3 262 67 263
3 264 71 262
3 255 265 263
3 263 67 255
3 265 72 263
3 255 20 265
3 266 254 262
3 262 71 266
3 254 67 262
3 266 21 254
3 268 267 264
3 264 72 268
3 267 71 264
3 268 10 267
3 271 269 270
3 270 63 271
3 269 69 270
3 271 73 269
3 251 238 270
3 270 69 251
3 238 63 270
3 251 18 238
3 272 256 269
3 269 73 272
3 256 69 269
3 272 20 256
3 239 273 271
3 271 63 239
3 273 73 271
3 239 6 273
3 276 274 275
3 275 76 276
3 274 75 275
3 276 74 274
3 278 277 275
3 275 75 278
3 277 76 275
3 278 24 277
3 280 279 274
3 274 74 280
3 279 75 274
3 280 23 279
3 282 281 276
3 276 76 282
3 281 74 276
3 282 22 281
3 285 283 284
3 284 78 285
3 283 75 284
3 285 77 283
3 279 286 284
3 284 75 279
3 286 78 284
3 279 23 286
3 287 278 283
3 283 77 287
3 278 75 283
3 287 24 278
3 289 288 285
3 285 78 289
3 288 77 285
3 289 0 288
3 292 290 291
3 291 80 292
3 290 74 291
3 292 79 290
3 281 293 291
3 291 74 281
3 293 80 291
3 281 22 293
3 294 280 290
3 290 79 294
3 280 74 290
3 294 23 280
3 296 295 292
3 292 80 296
3 295 79 292
3 296 4 295
3 299 297 298
3 298 82 299
3 297 76 298
3 299 81 297
3 277 300 298
3 298 76 277
3 300 82 298
3 277 24 300
3 301 282 297
3 297 81 301
3 282 76 297
3 301 22 282
3 303 302 299
3 299 82 303
3 302 81 299
3 303 3 302
3 306 304 305
3 305 85 306
3 304 84 305
3 306 83 304
3 308 307 305
3 305 84 308
3 307 85 305
3 308 26 307
3 310 309 304
3 304 83 310
3 309 84 304
3 310 24 309
3 312 311 306
3 306 85 312
3 311 83 306
3 312 25 311
3 315 313 314
3 314 77 315
3 313 84 314
3 315 86 313
3 309 287 314
3 314 84 309
3 287 77 314
3 309 24 287
3 316 308 313
3 313 86 316
3 308 84 313
3 316 26 308
3 288 317 315
3 315 77 288
3 317 86 315
3 288 0 317
3 320 318 319
3 319 87 320
3 318 83 319
3 320 82 318
3 311 321 319
3 319 83 311
3 321 87 319
3 311 25 321
3 300 310 318
3 318 82 300
3 310 83 318
3 300 24 310
3 322 303 320
3 320 87 322
3 303 82 320
3 322 3 303
3 325 323 324
3 324 89 325
3 323 85 324
3 325 88 323
3 307 326 324
3 324 85 307
3 326 89 324
3 307 26 326
3 327 312 323
3 323 88 327
3 312 85 323
3 327 25 312
3 329 328 325
3 325 89 329
3 328 88 325
3 329 5 328
3 332 330 331
3 331 92 332
3 330 91 331
3 332 90 330
3 334 333 331
3 331 91 334
3 333 92 331
3 334 29 333
3 336 335 330
3 330 90 336
3 335 91 330
3 336 28 335
3 338 337 332
3 332 92 338
3 337 90 332
3 338 27 337
3 341 339 340
3 340 94 341
3 339 91 340
3 341 93 339
3 335 342 340
3 340 91 335
3 342 94 340
3 335 28 342
3 343 334 339
3 339 93 343
3 334 91 339
3 343 29 334
3 345 344 341
3 341 94 345
3 344 93 341
3 345 2 344
3 348 346 347
3 347 96 348
3 346 90 347
3 348 95 346
3 337 349 347
3 347 90 337
3 349 96 347
3 337 27 349
3 350 336 346
3 346 95 350
3 336 90 346
3 350 28 336
3 352 351 348
3 348 96 352
3 351 95 348
3 352 7 351
3 355 353 354
3 354 98 355
3 353 92 354
3 355 97 353
3 333 356 354
3 354 92 333
3 356 98 354
3 333 29 356
3 357 338 353
3 353 97 357
3 338 92 353
3 357 27 338
3 359 358 355
3 355 98 359
3 358 97 355
3 359 1 358
3 362 360 361
3 361 101 362
3 360 100 361
3 362 99 360
3 364 363 361
3 361 100 364
3 363 101 361
3 364 31 363
3 366 365 360
3 360 99 366
3 365 100 360
3 366 29 365
3 368 367 362
3 362 101 368
3 367 99 362
3 368 30 367
3 371 369 370
3 370 93 371
3 369 100 370
3 371 102 369
3 365 343 370
3 370 100 365
3 343 93 370
3 365 29 343
3 372 364 369
3 369 102 372
3 364 100 369
3 372 31 364
3 344 373 371
3 371 93 344
3 373 102 371
3 344 2 373
3 376 374 375
3 375 103 376
3 374 99 375
3 376 98 374
3 367 377 375
3 375 99 367
3 377 103 375
3 367 30 377
3 356 366 374
3 374 98 356
3 366 99 374
3 356 29 366
3 378 359 376
3 376 103 378
3 359 98 376
3 378 1 359
3 381 379 380
3 380 105 381
3 379 101 380
3 381 104 379
3 363 382 380
3 380 101 363
3 382 105 380
3 363 31 382
3 383 368 379
3 379 104 383
3 368 101 379
3 383 30 368
3 385 384 381
3 381 105 385
3 384 104 381
3 385 6 384
3 388 386 387
3 387 108 388
3 386 107 387
3 388 106 386
3 390 389 387
3 387 107 390
3 389 108 387
3 390 34 389
3 392 391 386
3 386 106 392
3 391 107 386
3 392 33 391
3 394 393 388
3 388 108 394
3 393 106 388
3 394 32 393
3 397 395 396
3 396 110 397
3 395 107 396
3 397 109 395
3 391 398 396
3 396 107 391
3 398 110 396
3 391 33 398
3 399 390 395
3 395 109 399
3 390 107 395
3 399 34 390
3 401 400 397
3 397 110 401
3 400 109 397
3 401 8 400
3 404 402 403
3 403 112 404
3 402 106 403
3 404 111 402
3 393 405 403
3 403 106 393
3 405 112 403
3 393 32 405
3 406 392 402
3 402 111 406
3 392 106 402
3 406 33 392
3 408 407 404
3 404 112 408
3 407 111 404
3 408 0 407
3 411 409 410
3 410 114 411
3 409 108 410
3 411 113 409
3 389 412 410
3 410 108 389
3 412 114 410
3 389 34 412
3 413 394 409
3 409 113 413
3 394 108 409
3 413 32 394
3 415 414 411
3 411 114 415
3 414 113 411
3 415 11 414
3 418 416 417
3 417 117 418
3 416 116 417
3 418 115 416
3 420 419 417
3 417 116 420
3 419 117 417
3 420 36 419
3 422 421 416
3 416 115 422
3 421 116 416
3 422 34 421
3 424 423 418
3 418 117 424
3 423 115 418
3 424 35 423
3 427 425 426
3 426 109 427
3 425 116 426
3 427 118 425
3 421 399 426
3 426 116 421
3 399 109 426
3 421 34 399
3 428 420 425
3 425 118 428
3 420 116 425
3 428 36 420
3 400 429 427
3 427 109 400
3 429 118 427
3 400 8 429
3 432 430 431
3 431 119 432
3 430 115 431
3 432 114 430
3 423 433 431
3 431 115 423
3 433 119 431
3 423 35 433
3 412 422 430
3 430 114 412
3 422 115 430
3 412 34 422
3 434 415 432
3 432 119 434
3 415 114 432
3 434 11 415
3 437 435 436
3 436 121 437
3 435 117 436
3 437 120 435
3 419 438 436
3 436 117 419
3 438 121 436
3 419 36 438
3 439 424 435
3 435 120 439
3 424 117 435
3 439 35 424
3 441 440 437
3 437 121 441
3 440 120 437
3 441 1 440
3 444 442 443
3 443 124 444
3 442 123 443
3 444 122 442
3 446 445 443
3 443 123 446
3 445 124 443
3 446 39 445
3 448 447 442
3 442 122 448
3 447 123 442
3 448 38 447
3 450 449 444
3 444 124 450
3 449 122 444
3 450 37 449
3 453 451 452
3 452 126 453
3 451 123 452
3 453 125 451
3 447 454 452
3 452 123 447
3 454 126 452
3 447 38 454
3 455 446 451
3 451 125 455
3 446 123 451
3 455 39 446
3 457 456 453
3 453 126 457
3 456 125 453
3 457 9 456
3 460 458 459
3 459 128 460
3 458 122 459
3 460 127 458
3 449 461 459
3 459 122 449
3 461 128 459
3 449 37 461
3 462 448 458
3 458 127 462
3 448 122 458
3 462 38 448
3 464 463 460
3 460 128 464
3 463 127 460
3 464 10 463
3 467 465 466
3 466 130 467
3 465 124 466
3 467 129 465
3 445 468 466
3 466 124 445
3 468 130 466
3 445 39 468
3 469 450 465
3 465 129 469
3 450 124 465
3 469 37 450
3 471 470 467
3 467 130 471
3 470 129 467
3 471 3 470
3 474 472 473
3 473 133 474
3 472 132 473
3 474 131 472
3 476 475 473
3 473 132 476
3 475 133 473
3 476 38 475
3 478 477 472
3 472 131 478
3 477 132 472
3 478 41 477
3 480 479 474
3 474 133 480
3 479 131 474
3 480 40 479
3 483 481 482
3 482 134 483
3 481 132 482
3 483 126 481
3 477 484 482
3 482 132 477
3 484 134 482
3 477 41 484
3 454 476 481
3 481 126 454
3 476 132 481
3 454 38 476
3 485 457 483
3 483 134 485
3 457 126 483
3 485 9 457
3 488 486 487
3 487 136 488
3 486 131 487
3 488 135 486
3 479 489 487
3 487 131 479
3 489 136 487
3 479 40 489
3 490 478 486
3 486 135 490
3 478 131 486
3 490 41 478
3 492 491 488
3 488 136 492
3 491 135 488
3 492 2 491
3 495 493 494
3 494 127 495
3 493 133 494
3 495 137 493
3 475 462 494
3 494 133 475
3 462 127 494
3 475 38 462
3 496 480 493
3 493 137 496
3 480 133 493
3 496 40 480
3 463 497 495
3 495 127 463
3 497 137 495
3 463 10 497
3 500 498 499
3 499 140 500
3 498 139 499
3 500 138 498
3 502 501 499
3 499 139 502
3 501 140 499
3 502 33 501
3 504 503 498
3 498 138 504
3 503 139 498
3 504 13 503
3 506 505 500
3 500 140 506
3 505 138 500
3 506 23 505
3 509 507 508
3 508 47 509
3 507 139 508
3 509 110 507
3 503 182 508
3 508 139 503
3 182 47 508
3 503 13 182
3 398 502 507
3 507 110 398
3 502 139 507
3 398 33 502
3 183 401 509
3 509 47 183
3 401 110 509
3 183 8 401
3 512 510 511
3 511 79 512
3 510 138 511
3 512 46 510
3 505 294 511
3 511 138 505
3 294 79 511
3 505 23 294
3 174 504 510
3 510 46 174
3 504 138 510
3 174 13 504
3 295 177 512
3 512 79 295
3 177 46 512
3 295 4 177
3 515 513 514
3 514 111 515
3 513 140 514
3 515 78 513
3 501 406 514
3 514 140 501
3 406 111 514
3 501 33 406
3 286 506 513
3 513 78 286
3 506 140 513
3 286 23 506
3 407 289 515
3 515 111 407
3 289 78 515
3 407 0 289
3 518 516 517
3 517 143 518
3 516 142 517
3 518 141 516
3 520 519 517
3 517 142 520
3 519 143 517
3 520 19 519
3 522 521 516
3 516 141 522
3 521 142 516
3 522 32 521
3 524 523 518
3 518 143 524
3 523 141 518
3 524 26 523
3 527 525 526
3 526 113 527
3 525 142 526
3 527 66 525
3 521 413 526
3 526 142 521
3 413 113 526
3 521 32 413
3 244 520 525
3 525 66 244
3 520 142 525
3 244 19 520
3 414 247 527
3 527 113 414
3 247 66 527
3 414 11 247
3 530 528 529
3 529 86 530
3 528 141 529
3 530 112 528
3 523 316 529
3 529 141 523
3 316 86 529
3 523 26 316
3 405 522 528
3 528 112 405
3 522 141 528
3 405 32 522
3 317 408 530
3 530 86 317
3 408 112 530
3 317 0 408
3 533 531 532
3 532 61 533
3 531 143 532
3 533 89 531
3 519 231 532
3 532 143 519
3 231 61 532
3 519 19 231
3 326 524 531
3 531 89 326
3 524 143 531
3 326 26 524
3 232 329 533
3 533 61 232
3 329 89 533
3 232 5 329
3 536 534 535
3 535 146 536
3 534 145 535
3 536 144 534
3 538 537 535
3 535 145 538
3 537 146 535
3 538 22 537
3 540 539 534
3 534 144 540
3 539 145 534
3 540 16 539
3 542 541 536
3 536 146 542
3 541 144 536
3 542 39 541
3 545 543 544
3 544 54 545
3 543 145 544
3 545 80 543
3 539 204 544
3 544 145 539
3 204 54 544
3 539 16 204
3 293 538 543
3 543 80 293
3 538 145 543
3 293 22 538
3 205 296 545
3 545 54 205
3 296 80 545
3 205 4 296
3 548 546 547
3 547 125 548
3 546 144 547
3 548 57 546
3 541 455 547
3 547 144 541
3 455 125 547
3 541 39 455
3 214 540 546
3 546 57 214
3 540 144 546
3 214 16 540
3 456 217 548
3 548 125 456
3 217 57 548
3 456 9 217
3 551 549 550
3 550 81 551
3 549 146 550
3 551 130 549
3 537 301 550
3 550 146 537
3 301 81 550
3 537 22 301
3 468 542 549
3 549 130 468
3 542 146 549
3 468 39 542
3 302 471 551
3 551 81 302
3 471 130 551
3 302 3 471
3 554 552 553
3 553 149 554
3 552 148 553
3 554 147 552
3 556 555 553
3 553 148 556
3 555 149 553
3 556 21 555
3 558 557 552
3 552 147 558
3 557 148 552
3 558 25 557
3 560 559 554
3 554 149 560
3 559 147 554
3 560 37 559
3 563 561 562
3 562 88 563
3 561 148 562
3 563 70 561
3 557 327 562
3 562 148 557
3 327 88 562
3 557 25 327
3 260 556 561
3 561 70 260
3 556 148 561
3 260 21 556
3 328 261 563
3 563 88 328
3 261 70 563
3 328 5 261
3 566 564 565
3 565 129 566
3 564 147 565
3 566 87 564
3 559 469 565
3 565 147 559
3 469 129 565
3 559 37 469
3 321 558 564
3 564 87 321
3 558 147 564
3 321 25 558
3 470 322 566
3 566 129 470
3 322 87 566
3 470 3 322
3 569 567 568
3 568 71 569
3 567 149 568
3 569 128 567
3 555 266 568
3 568 149 555
3 266 71 568
3 555 21 266
3 461 560 567
3 567 128 461
3 560 149 567
3 461 37 560
3 267 464 569
3 569 71 267
3 464 128 569
3 267 10 464
3 572 570 571
3 571 152 572
3 570 151 571
3 572 150 570
3 574 573 571
3 571 151 574
3 573 152 571
3 574 27 573
3 576 575 570
3 570 150 576
3 575 151 570
3 576 12 575
3 578 577 572
3 572 152 578
3 577 150 572
3 578 36 577
3 581 579 580
3 580 49 581
3 579 151 580
3 581 96 579
3 575 189 580
3 580 151 575
3 189 49 580
3 575 12 189
3 349 574 579
3 579 96 349
3 574 151 579
3 349 27 574
3 190 352 581
3 581 49 190
3 352 96 581
3 190 7 352
3 584 582 583
3 583 118 584
3 582 150 583
3 584 48 582
3 577 428 583
3 583 150 577
3 428 118 583
3 577 36 428
3 181 576 582
3 582 48 181
3 576 150 582
3 181 12 576
3 429 184 584
3 584 118 429
3 184 48 584
3 429 8 184
3 587 585 586
3 586 97 587
3 585 152 586
3 587 121 585
3 573 357 586
3 586 152 573
3 357 97 586
3 573 27 357
3 438 578 585
3 585 121 438
3 578 152 585
3 438 36 578
3 358 441 587
3 587 97 358
3 441 121 587
3 358 1 441
3 590 588 589
3 589 155 590
3 588 154 589
3 590 153 588
3 592 591 589
3 589 154 592
3 591 155 589
3 592 17 591
3 594 593 588
3 588 153 594
3 593 154 588
3 594 30 593
3 596 595 590
3 590 155 596
3 595 153 590
3 596 35 595
3 599 597 598
3 598 104 599
3 597 154 598
3 599 64 597
3 593 383 598
3 598 154 593
3 383 104 598
3 593 30 383
3 237 592 597
3 597 64 237
3 592 154 597
3 237 17 592
3 384 240 599
3 599 104 384
3 240 64 599
3 384 6 240
3 602 600 601
3 601 120 602
3 600 153 601
3 602 103 600
3 595 439 601
3 601 153 595
3 439 120 601
3 595 35 439
3 377 594 600
3 600 103 377
3 594 153 600
3 377 30 594
3 440 378 602
3 602 120 440
3 378 103 602
3 440 1 378
3 605 603 604
3 604 65 605
3 603 155 604
3 605 119 603
3 591 245 604
3 604 155 591
3 245 65 604
3 591 17 245
3 433 596 603
3 603 119 433
3 596 155 603
3 433 35 596
3 246 434 605
3 605 65 246
3 434 119 605
3 246 11 434
3 608 606 607
3 607 158 608
3 606 157 607
3 608 156 606
3 610 609 607
3 607 157 610
3 609 158 607
3 610 15 609
3 612 611 606
3 606 156 612
3 611 157 606
3 612 28 611
3 614 613 608
3 608 158 614
3 613 156 608
3 614 41 613
3 617 615 616
3 616 95 617
3 615 157 616
3 617 55 615
3 611 350 616
3 616 157 611
3 350 95 616
3 611 28 350
3 209 610 615
3 615 55 209
3 610 157 615
3 209 15 610
3 351 210 617
3 617 95 351
3 210 55 617
3 351 7 210
3 620 618 619
3 619 135 620
3 618 156 619
3 620 94 618
3 613 490 619
3 619 156 613
3 490 135 619
3 613 41 490
3 342 612 618
3 618 94 342
3 612 156 618
3 342 28 612
3 491 345 620
3 620 135 491
3 345 94 620
3 491 2 345
3 623 621 622
3 622 56 623
3 621 158 622
3 623 134 621
3 609 215 622
3 622 158 609
3 215 56 622
3 609 15 215
3 484 614 621
3 621 134 484
3 614 158 621
3 484 41 614
3 216 485 623
3 623 56 216
3 485 134 623
3 216 9 485
3 626 624 625
3 625 161 626
3 624 160 625
3 626 159 624
3 628 627 625
3 625 160 628
3 627 161 625
3 628 31 627
3 630 629 624
3 624 159 630
3 629 160 624
3 630 20 629
3 632 631 626
3 626 161 632
3 631 159 626
3 632 40 631
3 635 633 634
3 634 73 635
3 633 160 634
3 635 105 633
3 629 272 634
3 634 160 629
3 272 73 634
3 629 20 272
3 382 628 633
3 633 105 382
3 628 160 633
3 382 31 628
3 273 385 635
3 635 73 273
3 385 105 635
3 273 6 385
3 638 636 637
3 637 137 638
3 636 159 637
3 638 72 636
3 631 496 637
3 637 159 631
3 496 137 637
3 631 40 496
3 265 630 636
3 636 72 265
3 630 159 636
3 265 20 630
3 497 268 638
3 638 137 497
3 268 72 638
3 497 10 268
3 641 639 640
3 640 102 641
3 639 161 640
3 641 136 639
3 627 372 640
3 640 161 627
3 372 102 640
3 627 31 372
3 489 632 639
3 639 136 489
3 632 161 639
3 489 40 632
3 373 492 641
3 641 102 373
3 492 136 641
3 373 2 492
