# vtk DataFile Version 3.0
this file was written using fslvtkio
ASCII
DATASET POLYDATA
POINTS 642 float
104.95 139.3 101.893
98.4595 139.247 100.863
100.864 134.957 100.142
106.47 134.691 100.468
104.658 137.433 104.139
104.721 136.85 98.5049
101.416 136.624 98.1731
101.22 137.498 103.108
102.457 141.942 104.989
103.757 133.834 101.343
103.128 131.962 97.1485
102.175 141.458 100.09
101.521 139.645 103.948
103.929 139.831 105.065
102.677 137.738 103.998
102.536 136.052 102.076
104.204 135.549 102.528
101.394 139.255 98.9077
103.103 136.695 97.9125
103.171 138.761 99.6776
101.838 134.164 96.0762
104.593 134.465 96.9596
106.092 135.998 102.261
105.946 138.96 103.472
106.005 137.205 101.119
105.9 135.532 99.0396
104.693 137.95 100.289
99.7524 138.42 102.371
100.649 136.476 101.879
99.6429 137.012 100.674
99.6729 138.413 99.1027
101.02 135.426 98.6958
103.857 140.948 101.243
104.443 141.218 103.511
102.274 143.425 102.232
99.8499 141.476 100.076
99.9547 141.51 102.692
105.916 132.428 98.8192
103.493 131.737 99.9495
105.713 132.979 101.857
101.128 132.519 98.4773
101.981 133.873 100.777
102.648 139.874 104.753
103.215 138.903 104.39
102.268 138.87 103.958
103.52 137.555 104.326
104.322 138.704 104.404
103.295 140.945 105.495
101.875 140.767 104.541
101.394 138.558 103.384
101.953 137.721 103.477
102.642 136.94 103.016
103.396 136.783 103.348
103.424 135.885 102.259
104.463 136.71 103.192
101.756 136.947 102.748
102.94 134.796 101.852
104.029 134.617 101.8
102.259 137.679 98.7286
103 137.58 99.0147
102.376 139.092 99.2193
103.895 137.57 99.2077
104.034 136.85 98.1506
102.103 136.6 97.9479
101.326 137.736 98.6681
101.747 140.494 99.4796
102.7 140.187 99.9674
103.375 134.223 95.8537
103.836 135.705 97.1771
102.696 135.579 96.9302
104.567 135.834 97.9621
104.117 132.717 96.3201
102.213 132.228 95.6425
101.747 135.572 97.4055
105.735 137.58 102.787
105.68 137.96 102.206
106.058 136.611 101.747
105.522 138.357 101.532
105.544 139.251 102.568
105.597 138.239 104.034
105.38 136.999 102.96
106.364 135.308 101.324
106.319 135.953 100.723
106.01 136.408 100.09
105.582 137.651 100.553
105.771 137.057 99.5198
105.036 138.832 101.076
106.257 134.964 99.7602
105.369 136.281 98.6769
104.82 137.46 99.2986
100.034 137.347 102.246
99.8563 136.65 101.507
99.3118 137.628 101.639
100.497 136.278 100.5
100.683 135.715 101.112
100.786 136.97 102.66
100.529 137.902 102.877
98.9625 138.859 101.712
98.8036 138.036 100.709
99.5117 137.639 99.8506
100.475 136.573 99.7563
100.51 137.025 99.2019
100.924 135.02 99.4416
98.81 138.907 99.8818
100.745 137.484 98.8818
101.159 136.065 98.1992
104.26 141.528 102.348
103.685 142.652 103.233
103.477 142.584 101.649
102.234 142.957 104.043
103.725 141.839 104.466
104.854 140.377 102.607
104.485 140.125 101.682
103.159 141.565 100.567
102.173 142.538 100.816
100.722 143.024 100.926
100.582 143.003 102.798
99.1549 142.313 101.364
101.055 142.003 103.996
101.193 141.884 99.875
98.6422 140.563 100.305
99.1217 140.599 101.59
104.91 131.389 99.3912
104.854 131.886 100.927
106.273 132.04 100.475
104.627 133.278 101.419
103.839 132.771 100.772
103.152 131.507 98.4775
104.59 132.022 97.8708
106.331 133.572 99.8486
106.372 133.802 101.068
101.718 133.117 99.7825
102.883 132.705 100.136
102.142 132.095 99.2165
102.834 133.68 101.096
101.122 134.26 100.49
100.84 133.761 99.4373
101.761 131.941 97.5197
104.954 139.432 104.207
104.693 140.881 104.817
105.084 140.048 103.548
103.969 139.134 100.877
103.435 139.824 100.441
103.962 138.452 99.9897
105.025 134.408 101.851
105.247 135.682 102.363
105.942 134.596 101.785
106.124 133.984 98.6105
105.572 134.957 97.956
105.494 133.242 97.4081
100.749 140.48 103.514
100.511 139.128 103.243
99.7289 139.865 102.552
99.3025 139.982 99.2749
100.397 139.06 98.9386
100.564 140.57 99.2381
101.328 135.191 101.382
101.622 136.294 101.949
102.143 134.929 101.515
101.021 132.813 96.7818
101.391 134.51 97.4654
100.87 133.79 98.2914
102.965 139.384 104.608
102.806 138.918 104.108
102.381 139.313 104.387
102.555 138.383 103.874
102.991 138.33 104.073
103.508 139.353 104.78
103.216 139.912 105.082
102.02 139.706 104.438
101.865 139.271 104.057
103.412 138.209 104.263
103.788 138.866 104.438
103.83 138.047 104.449
104.132 139.321 104.597
103.104 137.654 104.163
104.07 137.46 104.322
104.458 138.072 104.468
102.869 140.277 105.238
102.196 140.156 104.831
102.587 140.851 105.065
101.611 140.073 104.301
103.647 140.295 105.506
102.897 141.52 105.149
102.214 141.479 104.727
101.8 138.776 103.688
102.165 138.282 103.642
101.677 138.146 103.444
102.34 137.805 103.723
101.447 139.153 103.669
101.254 137.924 103.27
101.597 137.597 103.245
103.011 136.898 103.214
103.454 136.338 102.702
103.157 136.525 102.486
103.728 135.65 102.49
103.78 136.178 102.872
102.914 137.138 103.887
102.572 137.245 103.619
102.664 136.575 102.424
103.005 135.972 102.191
103.948 136.734 103.227
103.353 137.048 103.966
103.937 137.006 103.886
104.352 136.208 102.76
104.572 137.03 103.629
102.196 137.228 103.387
102.169 136.921 102.91
101.744 137.175 103.259
102.203 136.649 102.325
101.465 137.134 103.002
103.21 135.327 102.032
103.704 135.181 102.047
103.402 134.705 101.892
104.102 135.002 102.169
102.77 135.44 101.954
103.324 134.236 101.609
103.839 134.181 101.582
102.605 137.571 98.8633
102.653 138.184 99.132
102.298 138.354 98.943
102.797 138.953 99.4093
103.03 138.088 99.3601
103.016 137.048 98.507
102.592 136.992 98.4988
101.848 138.463 98.8505
101.928 139.222 99.0211
103.44 137.586 99.1264
103.512 137.182 98.5153
104.001 137.307 98.6194
103.55 136.756 98.0544
103.383 137.995 99.5939
104.375 137.301 98.7608
104.367 136.803 98.3599
102.155 137.011 98.4953
101.801 137.717 98.7214
101.793 137.073 98.439
101.334 138.497 98.7624
102.583 136.648 97.9604
101.71 136.575 98.062
101.358 137.156 98.3913
102.082 139.794 99.3927
102.488 139.6 99.6093
102.201 140.324 99.723
102.909 139.419 99.8249
101.603 139.903 99.1961
101.942 141.015 99.7844
102.422 140.827 100.037
103.656 135.043 96.4272
103.295 135.614 96.9001
103.009 134.988 96.192
102.932 136.165 97.4727
103.475 136.207 97.538
104.206 135.142 96.9257
103.927 134.312 96.4679
102.511 134.129 95.8308
102.271 134.91 96.3609
103.873 136.305 97.778
104.276 135.782 97.4936
104.309 136.353 97.9638
104.625 135.232 97.4326
104.666 136.376 98.2581
103.775 133.327 95.8271
102.862 133.145 95.3979
103.242 132.337 95.7834
101.855 133.081 95.6039
104.466 133.502 96.4723
103.594 132.186 96.6005
102.681 132.01 96.3847
102.154 135.567 96.9617
102.407 136.196 97.4617
101.898 136.228 97.5439
101.811 134.906 96.7105
101.585 136.227 97.7461
105.66 137.808 102.518
105.924 137.33 101.952
105.931 137.11 102.289
106.063 136.916 101.434
105.84 137.538 101.619
105.938 138.558 102.805
105.824 138.311 103.18
105.883 136.829 102.491
106.183 136.366 102.025
105.559 138.104 101.883
105.795 138.725 102.383
105.515 138.831 102.045
105.857 139.141 102.948
105.677 137.715 101.361
105.328 138.952 101.699
105.223 139.305 102.197
105.653 137.93 103.378
105.568 137.276 102.881
105.426 137.554 103.515
105.692 136.561 102.606
105.881 138.629 103.873
105.137 137.811 104.182
105.072 137.179 103.507
106.258 135.952 101.505
106.212 136.24 101.219
106.355 135.665 101.046
106.061 136.479 100.892
106.215 135.616 101.759
106.455 134.94 100.867
106.413 135.243 100.54
105.973 137.097 100.306
105.733 137.373 100.048
105.968 136.782 99.7865
105.362 137.615 99.8431
105.164 137.796 100.404
105.884 137.411 100.824
106.036 136.821 100.567
105.95 135.977 99.5894
105.899 136.371 99.2668
105.217 138.185 100.814
105.483 137.966 101.062
105.392 138.626 101.234
104.9 138.433 100.676
104.976 139.085 101.478
106.192 136.173 100.386
106.142 135.728 99.8896
106.305 135.482 100.221
106.026 135.216 99.3887
106.435 134.779 100.096
105.66 136.669 99.057
105.407 137.313 99.3618
105.276 136.929 98.9233
104.755 137.678 99.8226
105.687 135.94 98.7954
104.967 136.554 98.5769
104.761 137.155 98.8916
99.8348 136.923 101.936
99.6384 137.099 101.624
99.715 137.502 101.983
99.3812 137.27 101.193
99.6839 136.791 101.141
100.238 136.539 101.747
100.189 136.828 102.184
99.9304 137.856 102.278
99.4416 138.029 102.013
100.203 136.525 100.952
100.363 136.253 101.272
100.504 135.994 100.784
100.697 136.09 101.502
100.119 136.716 100.605
100.708 135.604 100.299
100.736 135.34 100.604
100.337 137.111 102.514
100.236 137.555 102.551
100.573 137.353 102.799
100.224 138.192 102.602
100.696 136.811 102.297
100.994 137.186 102.93
100.852 137.61 103.076
99.1347 138.225 101.625
98.9899 137.762 101.201
98.7424 138.35 101.261
99.1442 137.494 100.717
99.3279 138.635 102.069
98.6295 139.03 101.294
98.5375 138.568 100.794
100.076 137.117 99.8069
100.535 136.827 99.4795
100.033 137.386 99.5002
100.828 136.256 98.9668
100.773 136.027 99.2562
100.15 136.885 100.178
99.5978 137.29 100.23
99.593 138.028 99.4447
100.114 137.726 99.235
100.77 135.876 99.5929
100.552 136.421 100.097
100.774 135.753 99.9645
100.957 135.151 99.043
100.902 134.978 99.8167
99.0214 137.788 100.246
98.9992 138.204 99.7911
98.707 138.413 100.301
99.1214 138.684 99.3757
98.5398 139.108 100.366
100.614 137.324 99.0173
100.831 136.523 98.7459
100.964 136.842 98.5658
101.073 135.724 98.424
100.224 138.065 99.008
101.085 137.054 98.4655
101.279 136.38 98.1252
104.07 142.004 102.754
103.615 142.755 102.414
103.951 142.086 102.039
103.005 143.209 101.908
103.012 143.191 102.763
104.079 141.805 103.471
104.283 141.426 102.981
104.215 141.367 101.736
103.719 141.798 101.47
103.104 143.006 103.731
103.699 142.281 104.079
103.124 142.614 104.499
104.061 141.46 104.002
102.216 143.235 103.14
102.313 142.586 104.702
103.143 142.065 104.902
104.599 140.973 102.491
104.391 140.838 101.995
104.568 140.247 102.179
104.161 140.529 101.521
104.875 140.995 103.023
104.838 139.734 102.233
104.717 139.669 101.788
103.269 142.039 101.091
102.921 142.762 101.179
102.797 142.133 100.657
102.249 143.177 101.399
103.527 141.269 100.92
102.686 141.586 100.298
102.202 142.043 100.302
100.513 143.308 101.808
99.6283 142.961 102.094
99.8652 142.875 101.083
99.48 141.944 102.074
99.9389 142.369 102.854
101.41 143.284 102.513
101.438 143.36 101.619
100.219 142.338 100.388
99.4651 142.105 100.522
100.751 142.574 103.46
101.425 142.968 103.411
101.459 142.685 104.163
100.414 141.808 103.407
101.68 142.046 104.62
101.48 142.851 100.891
100.918 142.396 100.322
101.615 142.263 100.323
100.534 141.829 99.8801
101.717 141.665 99.9872
99.0243 141.476 100.825
99.2061 141.439 101.528
98.822 140.75 100.999
99.5781 141.165 102.036
99.1445 141.171 100.066
98.4842 139.821 100.597
98.6668 139.87 101.238
104.887 131.457 100.236
105.546 131.678 100.836
105.635 131.636 99.9503
106.074 132.324 101.331
105.258 132.282 101.414
104.184 131.708 100.395
104.133 131.326 99.7091
105.533 131.759 99.0706
106.117 132.144 99.5771
104.727 132.571 101.303
104.248 132.307 100.831
104.233 132.934 101.154
103.744 132.252 100.388
105.059 133.005 101.615
104.145 133.575 101.38
103.789 133.364 101.075
104.043 131.387 98.9239
104.782 131.647 98.5775
103.896 131.668 98.1828
105.317 132.171 98.3243
103.27 131.419 99.2567
103.106 131.72 97.729
103.772 132.034 97.5052
106.416 132.881 100.101
106.461 133.044 100.872
106.287 133.609 100.466
106.295 133.313 101.514
106.239 132.891 99.374
106.501 134.138 100.163
106.506 134.214 100.71
102.358 132.894 99.9638
102.58 132.3 99.7194
101.958 132.484 99.4914
102.757 131.859 99.5629
103.18 132.207 99.9823
102.412 133.26 100.422
101.98 133.558 100.255
101.39 132.733 99.2367
101.689 132.211 98.8152
103.377 132.691 100.369
102.891 133.099 100.654
103.386 133.182 100.85
102.361 133.732 100.961
103.316 133.737 101.246
101.497 133.777 100.086
101.101 133.371 99.6394
100.995 133.998 99.9782
100.933 133.151 99.0088
101.518 134.052 100.654
100.913 134.622 100.323
100.837 134.378 99.8226
101.83 131.951 98.4596
102.407 131.612 98.8613
102.295 131.626 97.9992
101.372 132.131 97.9408
102.366 131.767 97.198
104.976 140.152 104.591
105.138 140.594 104.188
105.059 139.684 103.911
105.105 140.874 103.576
104.603 141.008 104.092
104.417 140.356 105.17
104.551 139.684 104.627
105.593 139.16 103.957
105.616 139.455 103.464
104.193 141.284 104.528
104.104 141.002 105.46
103.606 141.584 105.048
104.749 139.187 104.185
105.379 138.864 104.296
104.937 138.45 104.423
105.341 139.598 103.049
105.039 140.312 103.078
105.022 139.663 102.642
103.677 139.476 100.702
103.586 139.018 100.358
103.936 138.798 100.493
103.581 138.649 99.8833
103.254 139.228 100.125
103.598 140.413 100.843
103.898 140.046 101.089
104.332 138.594 100.625
104.272 138.187 100.161
103.109 140.068 100.222
103.311 140.753 100.543
102.899 140.843 100.301
104.298 139.694 101.227
104.534 139.005 100.959
104.655 139.405 101.37
104.218 137.768 99.779
103.748 137.887 99.7202
104.326 137.493 99.2774
105.11 135.039 102.202
105.638 135.156 102.226
105.482 134.387 101.927
106.027 135.324 102.004
105.701 135.811 102.308
104.679 135.568 102.424
104.566 134.974 102.275
105.4 133.701 101.801
105.932 133.883 101.75
105.306 136.326 102.688
104.905 136.195 102.693
105.014 136.785 103.109
104.553 134.475 101.821
104.88 133.759 101.67
104.374 134.008 101.594
106.208 134.195 101.499
106.198 134.98 101.537
106.406 134.607 101.183
105.909 134.467 98.18
105.621 134.091 97.5747
105.85 133.59 98.018
105.045 133.784 97.0666
105.011 134.634 97.5163
105.721 135.278 98.5189
105.994 134.789 98.7883
106.147 133.158 98.6261
105.738 132.789 98.0541
105.079 135.467 97.8817
105.463 135.715 98.3399
105.013 136.016 98.3076
106.259 134.418 99.1804
106.27 133.643 99.1888
106.391 134.22 99.7072
105.154 132.515 97.535
104.807 132.958 96.9297
104.35 132.419 97.151
100.607 139.773 103.376
100.063 139.441 102.948
100.172 140.149 103.087
99.6788 139.089 102.508
100.146 138.827 102.778
101.011 139.445 103.583
101.112 140.02 103.759
100.37 140.969 103.183
99.8961 140.683 102.622
100.554 138.473 102.969
100.984 138.856 103.323
100.941 138.204 103.129
101.217 140.612 104.075
100.861 141.277 103.737
101.429 141.394 104.32
99.3737 140.265 102.146
99.2993 139.37 102.144
98.9213 139.63 101.74
99.7706 139.675 98.9671
100.43 139.878 98.9922
99.9367 140.349 99.2065
101.017 139.907 99.0698
100.844 139.186 98.8735
99.953 138.802 98.9822
99.2913 139.182 99.0499
99.5882 140.694 99.6846
100.209 140.989 99.636
100.871 138.44 98.7477
100.481 138.283 98.827
100.983 137.631 98.6844
98.9392 139.437 99.5456
98.9335 140.273 99.7267
98.5969 139.724 99.9928
100.867 141.151 99.5728
101.175 140.519 99.3382
101.455 141.123 99.6221
101.437 135.767 101.676
101.896 135.677 101.702
101.656 134.985 101.483
102.321 135.529 101.838
102.151 136.256 101.963
101.122 136.367 101.945
101.144 135.991 101.548
101.502 134.412 101.189
101.953 134.306 101.239
101.76 136.742 102.246
101.219 136.737 102.301
101.31 136.905 102.642
100.989 135.44 101.296
101.167 134.693 100.989
100.939 135.028 100.84
102.362 134.271 101.389
102.516 134.894 101.701
102.873 134.262 101.539
101.218 133.682 97.0127
101.071 134.095 97.858
100.892 133.3 97.5795
101.052 134.6 98.4728
101.227 134.881 98.1197
101.523 134.256 96.7698
101.371 133.275 96.2093
100.97 132.549 97.6271
100.892 133.101 98.306
101.392 135.286 97.8727
101.613 135.068 97.3482
101.461 135.782 97.7012
101.397 132.488 96.0888
101.295 132.235 97.0505
101.92 131.997 96.587
100.853 133.713 98.8638
100.928 134.421 98.9016
100.829 134.359 99.3794
POLYGONS 1280  5120
3 164 162 163
3 163 44 164
3 162 43 163
3 164 42 162
3 166 165 163
3 163 43 166
3 165 44 163
3 166 14 165
3 168 167 162
3 162 42 168
3 167 43 162
3 168 13 167
3 170 169 164
3 164 44 170
3 169 42 164
3 170 12 169
3 173 171 172
3 172 46 173
3 171 43 172
3 173 45 171
3 167 174 172
3 172 43 167
3 174 46 172
3 167 13 174
3 175 166 171
3 171 45 175
3 166 43 171
3 175 14 166
3 177 176 173
3 173 46 177
3 176 45 173
3 177 4 176
3 180 178 179
3 179 48 180
3 178 42 179
3 180 47 178
3 169 181 179
3 179 42 169
3 181 48 179
3 169 12 181
3 182 168 178
3 178 47 182
3 168 42 178
3 182 13 168
3 184 183 180
3 180 48 184
3 183 47 180
3 184 8 183
3 187 185 186
3 186 50 187
3 185 44 186
3 187 49 185
3 165 188 186
3 186 44 165
3 188 50 186
3 165 14 188
3 189 170 185
3 185 49 189
3 170 44 185
3 189 12 170
3 191 190 187
3 187 50 191
3 190 49 187
3 191 7 190
3 194 192 193
3 193 53 194
3 192 52 193
3 194 51 192
3 196 195 193
3 193 52 196
3 195 53 193
3 196 16 195
3 198 197 192
3 192 51 198
3 197 52 192
3 198 14 197
3 200 199 194
3 194 53 200
3 199 51 194
3 200 15 199
3 203 201 202
3 202 45 203
3 201 52 202
3 203 54 201
3 197 175 202
3 202 52 197
3 175 45 202
3 197 14 175
3 204 196 201
3 201 54 204
3 196 52 201
3 204 16 196
3 176 205 203
3 203 45 176
3 205 54 203
3 176 4 205
3 208 206 207
3 207 55 208
3 206 51 207
3 208 50 206
3 199 209 207
3 207 51 199
3 209 55 207
3 199 15 209
3 188 198 206
3 206 50 188
3 198 51 206
3 188 14 198
3 210 191 208
3 208 55 210
3 191 50 208
3 210 7 191
3 213 211 212
3 212 57 213
3 211 53 212
3 213 56 211
3 195 214 212
3 212 53 195
3 214 57 212
3 195 16 214
3 215 200 211
3 211 56 215
3 200 53 211
3 215 15 200
3 217 216 213
3 213 57 217
3 216 56 213
3 217 9 216
3 220 218 219
3 219 60 220
3 218 59 219
3 220 58 218
3 222 221 219
3 219 59 222
3 221 60 219
3 222 19 221
3 224 223 218
3 218 58 224
3 223 59 218
3 224 18 223
3 226 225 220
3 220 60 226
3 225 58 220
3 226 17 225
3 229 227 228
3 228 62 229
3 227 59 228
3 229 61 227
3 223 230 228
3 228 59 223
3 230 62 228
3 223 18 230
3 231 222 227
3 227 61 231
3 222 59 227
3 231 19 222
3 233 232 229
3 229 62 233
3 232 61 229
3 233 5 232
3 236 234 235
3 235 64 236
3 234 58 235
3 236 63 234
3 225 237 235
3 235 58 225
3 237 64 235
3 225 17 237
3 238 224 234
3 234 63 238
3 224 58 234
3 238 18 224
3 240 239 236
3 236 64 240
3 239 63 236
3 240 6 239
3 243 241 242
3 242 66 243
3 241 60 242
3 243 65 241
3 221 244 242
3 242 60 221
3 244 66 242
3 221 19 244
3 245 226 241
3 241 65 245
3 226 60 241
3 245 17 226
3 247 246 243
3 243 66 247
3 246 65 243
3 247 11 246
3 250 248 249
3 249 69 250
3 248 68 249
3 250 67 248
3 252 251 249
3 249 68 252
3 251 69 249
3 252 18 251
3 254 253 248
3 248 67 254
3 253 68 248
3 254 21 253
3 256 255 250
3 250 69 256
3 255 67 250
3 256 20 255
3 259 257 258
3 258 70 259
3 257 68 258
3 259 62 257
3 253 260 258
3 258 68 253
3 260 70 258
3 253 21 260
3 230 252 257
3 257 62 230
3 252 68 257
3 230 18 252
3 261 233 259
3 259 70 261
3 233 62 259
3 261 5 233
3 264 262 263
3 263 72 264
3 262 67 263
3 264 71 262
3 255 265 263
3 263 67 255
3 265 72 263
3 255 20 265
3 266 254 262
3 262 71 266
3 254 67 262
3 266 21 254
3 268 267 264
3 264 72 268
3 267 71 264
3 268 10 267
3 271 269 270
3 270 63 271
3 269 69 270
3 271 73 269
3 251 238 270
3 270 69 251
3 238 63 270
3 251 18 238
3 272 256 269
3 269 73 272
3 256 69 269
3 272 20 256
3 239 273 271
3 271 63 239
3 273 73 271
3 239 6 273
3 276 274 275
3 275 76 276
3 274 75 275
3 276 74 274
3 278 277 275
3 275 75 278
3 277 76 275
3 278 24 277
3 280 279 274
3 274 74 280
3 279 75 274
3 280 23 279
3 282 281 276
3 276 76 282
3 281 74 276
3 282 22 281
3 285 283 284
3 284 78 285
3 283 75 284
3 285 77 283
3 279 286 284
3 284 75 279
3 286 78 284
3 279 23 286
3 287 278 283
3 283 77 287
3 278 75 283
3 287 24 278
3 289 288 285
3 285 78 289
3 288 77 285
3 289 0 288
3 292 290 291
3 291 80 292
3 290 74 291
3 292 79 290
3 281 293 291
3 291 74 281
3 293 80 291
3 281 22 293
3 294 280 290
3 290 79 294
3 280 74 290
3 294 23 280
3 296 295 292
3 292 80 296
3 295 79 292
3 296 4 295
3 299 297 298
3 298 82 299
3 297 76 298
3 299 81 297
3 277 300 298
3 298 76 277
3 300 82 298
3 277 24 300
3 301 282 297
3 297 81 301
3 282 76 297
3 301 22 282
3 303 302 299
3 299 82 303
3 302 81 299
3 303 3 302
3 306 304 305
3 305 85 306
3 304 84 305
3 306 83 304
3 308 307 305
3 305 84 308
3 307 85 305
3 308 26 307
3 310 309 304
3 304 83 310
3 309 84 304
3 310 24 309
3 312 311 306
3 306 85 312
3 311 83 306
3 312 25 311
3 315 313 314
3 314 77 315
3 313 84 314
3 315 86 313
3 309 287 314
3 314 84 309
3 287 77 314
3 309 24 287
3 316 308 313
3 313 86 316
3 308 84 313
3 316 26 308
3 288 317 315
3 315 77 288
3 317 86 315
3 288 0 317
3 320 318 319
3 319 87 320
3 318 83 319
3 320 82 318
3 311 321 319
3 319 83 311
3 321 87 319
3 311 25 321
3 300 310 318
3 318 82 300
3 310 83 318
3 300 24 310
3 322 303 320
3 320 87 322
3 303 82 320
3 322 3 303
3 325 323 324
3 324 89 325
3 323 85 324
3 325 88 323
3 307 326 324
3 324 85 307
3 326 89 324
3 307 26 326
3 327 312 323
3 323 88 327
3 312 85 323
3 327 25 312
3 329 328 325
3 325 89 329
3 328 88 325
3 329 5 328
3 332 330 331
3 331 92 332
3 330 91 331
3 332 90 330
3 334 333 331
3 331 91 334
3 333 92 331
3 334 29 333
3 336 335 330
3 330 90 336
3 335 91 330
3 336 28 335
3 338 337 332
3 332 92 338
3 337 90 332
3 338 27 337
3 341 339 340
3 340 94 341
3 339 91 340
3 341 93 339
3 335 342 340
3 340 91 335
3 342 94 340
3 335 28 342
3 343 334 339
3 339 93 343
3 334 91 339
3 343 29 334
3 345 344 341
3 341 94 345
3 344 93 341
3 345 2 344
3 348 346 347
3 347 96 348
3 346 90 347
3 348 95 346
3 337 349 347
3 347 90 337
3 349 96 347
3 337 27 349
3 350 336 346
3 346 95 350
3 336 90 346
3 350 28 336
3 352 351 348
3 348 96 352
3 351 95 348
3 352 7 351
3 355 353 354
3 354 98 355
3 353 92 354
3 355 97 353
3 333 356 354
3 354 92 333
3 356 98 354
3 333 29 356
3 357 338 353
3 353 97 357
3 338 92 353
3 357 27 338
3 359 358 355
3 355 98 359
3 358 97 355
3 359 1 358
3 362 360 361
3 361 101 362
3 360 100 361
3 362 99 360
3 364 363 361
3 361 100 364
3 363 101 361
3 364 31 363
3 366 365 360
3 360 99 366
3 365 100 360
3 366 29 365
3 368 367 362
3 362 101 368
3 367 99 362
3 368 30 367
3 371 369 370
3 370 93 371
3 369 100 370
3 371 102 369
3 365 343 370
3 370 100 365
3 343 93 370
3 365 29 343
3 372 364 369
3 369 102 372
3 364 100 369
3 372 31 364
3 344 373 371
3 371 93 344
3 373 102 371
3 344 2 373
3 376 374 375
3 375 103 376
3 374 99 375
3 376 98 374
3 367 377 375
3 375 99 367
3 377 103 375
3 367 30 377
3 356 366 374
3 374 98 356
3 366 99 374
3 356 29 366
3 378 359 376
3 376 103 378
3 359 98 376
3 378 1 359
3 381 379 380
3 380 105 381
3 379 101 380
3 381 104 379
3 363 382 380
3 380 101 363
3 382 105 380
3 363 31 382
3 383 368 379
3 379 104 383
3 368 101 379
3 383 30 368
3 385 384 381
3 381 105 385
3 384 104 381
3 385 6 384
3 388 386 387
3 387 108 388
3 386 107 387
3 388 106 386
3 390 389 387
3 387 107 390
3 389 108 387
3 390 34 389
3 392 391 386
3 386 106 392
3 391 107 386
3 392 33 391
3 394 393 388
3 388 108 394
3 393 106 388
3 394 32 393
3 397 395 396
3 396 110 397
3 395 107 396
3 397 109 395
3 391 398 396
3 396 107 391
3 398 110 396
3 391 33 398
3 399 390 395
3 395 109 399
3 390 107 395
3 399 34 390
3 401 400 397
3 397 110 401
3 400 109 397
3 401 8 400
3 404 402 403
3 403 112 404
3 402 106 403
3 404 111 402
3 393 405 403
3 403 106 393
3 405 112 403
3 393 32 405
3 406 392 402
3 402 111 406
3 392 106 402
3 406 33 392
3 408 407 404
3 404 112 408
3 407 111 404
3 408 0 407
3 411 409 410
3 410 114 411
3 409 108 410
3 411 113 409
3 389 412 410
3 410 108 389
3 412 114 410
3 389 34 412
3 413 394 409
3 409 113 413
3 394 108 409
3 413 32 394
3 415 414 411
3 411 114 415
3 414 113 411
3 415 11 414
3 418 416 417
3 417 117 418
3 416 116 417
3 418 115 416
3 420 419 417
3 417 116 420
3 419 117 417
3 420 36 419
3 422 421 416
3 416 115 422
3 421 116 416
3 422 34 421
3 424 423 418
3 418 117 424
3 423 115 418
3 424 35 423
3 427 425 426
3 426 109 427
3 425 116 426
3 427 118 425
3 421 399 426
3 426 116 421
3 399 109 426
3 421 34 399
3 428 420 425
3 425 118 428
3 420 116 425
3 428 36 420
3 400 429 427
3 427 109 400
3 429 118 427
3 400 8 429
3 432 430 431
3 431 119 432
3 430 115 431
3 432 114 430
3 423 433 431
3 431 115 423
3 433 119 431
3 423 35 433
3 412 422 430
3 430 114 412
3 422 115 430
3 412 34 422
3 434 415 432
3 432 119 434
3 415 114 432
3 434 11 415
3 437 435 436
3 436 121 437
3 435 117 436
3 437 120 435
3 419 438 436
3 436 117 419
3 438 121 436
3 419 36 438
3 439 424 435
3 435 120 439
3 424 117 435
3 439 35 424
3 441 440 437
3 437 121 441
3 440 120 437
3 441 1 440
3 444 442 443
3 443 124 444
3 442 123 443
3 444 122 442
3 446 445 443
3 443 123 446
3 445 124 443
3 446 39 445
3 448 447 442
3 442 122 448
3 447 123 442
3 448 38 447
3 450 449 444
3 444 124 450
3 449 122 444
3 450 37 449
3 453 451 452
3 452 126 453
3 451 123 452
3 453 125 451
3 447 454 452
3 452 123 447
3 454 126 452
3 447 38 454
3 455 446 451
3 451 125 455
3 446 123 451
3 455 39 446
3 457 456 453
3 453 126 457
3 456 125 453
3 457 9 456
3 460 458 459
3 459 128 460
3 458 122 459
3 460 127 458
3 449 461 459
3 459 122 449
3 461 128 459
3 449 37 461
3 462 448 458
3 458 127 462
3 448 122 458
3 462 38 448
3 464 463 460
3 460 128 464
3 463 127 460
3 464 10 463
3 467 465 466
3 466 130 467
3 465 124 466
3 467 129 465
3 445 468 466
3 466 124 445
3 468 130 466
3 445 39 468
3 469 450 465
3 465 129 469
3 450 124 465
3 469 37 450
3 471 470 467
3 467 130 471
3 470 129 467
3 471 3 470
3 474 472 473
3 473 133 474
3 472 132 473
3 474 131 472
3 476 475 473
3 473 132 476
3 475 133 473
3 476 38 475
3 478 477 472
3 472 131 478
3 477 132 472
3 478 41 477
3 480 479 474
3 474 133 480
3 479 131 474
3 480 40 479
3 483 481 482
3 482 134 483
3 481 132 482
3 483 126 481
3 477 484 482
3 482 132 477
3 484 134 482
3 477 41 484
3 454 476 481
3 481 126 454
3 476 132 481
3 454 38 476
3 485 457 483
3 483 134 485
3 457 126 483
3 485 9 457
3 488 486 487
3 487 136 488
3 486 131 487
3 488 135 486
3 479 489 487
3 487 131 479
3 489 136 487
3 479 40 489
3 490 478 486
3 486 135 490
3 478 131 486
3 490 41 478
3 492 491 488
3 488 136 492
3 491 135 488
3 492 2 491
3 495 493 494
3 494 127 495
3 493 133 494
3 495 137 493
3 475 462 494
3 494 133 475
3 462 127 494
3 475 38 462
3 496 480 493
3 493 137 496
3 480 133 493
3 496 40 480
3 463 497 495
3 495 127 463
3 497 137 495
3 463 10 497
3 500 498 499
3 499 140 500
3 498 139 499
3 500 138 498
3 502 501 499
3 499 139 502
3 501 140 499
3 502 33 501
3 504 503 498
3 498 138 504
3 503 139 498
3 504 13 503
3 506 505 500
3 500 140 506
3 505 138 500
3 506 23 505
3 509 507 508
3 508 47 509
3 507 139 508
3 509 110 507
3 503 182 508
3 508 139 503
3 182 47 508
3 503 13 182
3 398 502 507
3 507 110 398
3 502 139 507
3 398 33 502
3 183 401 509
3 509 47 183
3 401 110 509
3 183 8 401
3 512 510 511
3 511 79 512
3 510 138 511
3 512 46 510
3 505 294 511
3 511 138 505
3 294 79 511
3 505 23 294
3 174 504 510
3 510 46 174
3 504 138 510
3 174 13 504
3 295 177 512
3 512 79 295
3 177 46 512
3 295 4 177
3 515 513 514
3 514 111 515
3 513 140 514
3 515 78 513
3 501 406 514
3 514 140 501
3 406 111 514
3 501 33 406
3 286 506 513
3 513 78 286
3 506 140 513
3 286 23 506
3 407 289 515
3 515 111 407
3 289 78 515
3 407 0 289
3 518 516 517
3 517 143 518
3 516 142 517
3 518 141 516
3 520 519 517
3 517 142 520
3 519 143 517
3 520 19 519
3 522 521 516
3 516 141 522
3 521 142 516
3 522 32 521
3 524 523 518
3 518 143 524
3 523 141 518
3 524 26 523
3 527 525 526
3 526 113 527
3 525 142 526
3 527 66 525
3 521 413 526
3 526 142 521
3 413 113 526
3 521 32 413
3 244 520 525
3 525 66 244
3 520 142 525
3 244 19 520
3 414 247 527
3 527 113 414
3 247 66 527
3 414 11 247
3 530 528 529
3 529 86 530
3 528 141 529
3 530 112 528
3 523 316 529
3 529 141 523
3 316 86 529
3 523 26 316
3 405 522 528
3 528 112 405
3 522 141 528
3 405 32 522
3 317 408 530
3 530 86 317
3 408 112 530
3 317 0 408
3 533 531 532
3 532 61 533
3 531 143 532
3 533 89 531
3 519 231 532
3 532 143 519
3 231 61 532
3 519 19 231
3 326 524 531
3 531 89 326
3 524 143 531
3 326 26 524
3 232 329 533
3 533 61 232
3 329 89 533
3 232 5 329
3 536 534 535
3 535 146 536
3 534 145 535
3 536 144 534
3 538 537 535
3 535 145 538
3 537 146 535
3 538 22 537
3 540 539 534
3 534 144 540
3 539 145 534
3 540 16 539
3 542 541 536
3 536 146 542
3 541 144 536
3 542 39 541
3 545 543 544
3 544 54 545
3 543 145 544
3 545 80 543
3 539 204 544
3 544 145 539
3 204 54 544
3 539 16 204
3 293 538 543
3 543 80 293
3 538 145 543
3 293 22 538
3 205 296 545
3 545 54 205
3 296 80 545
3 205 4 296
3 548 546 547
3 547 125 548
3 546 144 547
3 548 57 546
3 541 455 547
3 547 144 541
3 455 125 547
3 541 39 455
3 214 540 546
3 546 57 214
3 540 144 546
3 214 16 540
3 456 217 548
3 548 125 456
3 217 57 548
3 456 9 217
3 551 549 550
3 550 81 551
3 549 146 550
3 551 130 549
3 537 301 550
3 550 146 537
3 301 81 550
3 537 22 301
3 468 542 549
3 549 130 468
3 542 146 549
3 468 39 542
3 302 471 551
3 551 81 302
3 471 130 551
3 302 3 471
3 554 552 553
3 553 149 554
3 552 148 553
3 554 147 552
3 556 555 553
3 553 148 556
3 555 149 553
3 556 21 555
3 558 557 552
3 552 147 558
3 557 148 552
3 558 25 557
3 560 559 554
3 554 149 560
3 559 147 554
3 560 37 559
3 563 561 562
3 562 88 563
3 561 148 562
3 563 70 561
3 557 327 562
3 562 148 557
3 327 88 562
3 557 25 327
3 260 556 561
3 561 70 260
3 556 148 561
3 260 21 556
3 328 261 563
3 563 88 328
3 261 70 563
3 328 5 261
3 566 564 565
3 565 129 566
3 564 147 565
3 566 87 564
3 559 469 565
3 565 147 559
3 469 129 565
3 559 37 469
3 321 558 564
3 564 87 321
3 558 147 564
3 321 25 558
3 470 322 566
3 566 129 470
3 322 87 566
3 470 3 322
3 569 567 568
3 568 71 569
3 567 149 568
3 569 128 567
3 555 266 568
3 568 149 555
3 266 71 568
3 555 21 266
3 461 560 567
3 567 128 461
3 560 149 567
3 461 37 560
3 267 464 569
3 569 71 267
3 464 128 569
3 267 10 464
3 572 570 571
3 571 152 572
3 570 151 571
3 572 150 570
3 574 573 571
3 571 151 574
3 573 152 571
3 574 27 573
3 576 575 570
3 570 150 576
3 575 151 570
3 576 12 575
3 578 577 572
3 572 152 578
3 577 150 572
3 578 36 577
3 581 579 580
3 580 49 581
3 579 151 580
3 581 96 579
3 575 189 580
3 580 151 575
3 189 49 580
3 575 12 189
3 349 574 579
3 579 96 349
3 574 151 579
3 349 27 574
3 190 352 581
3 581 49 190
3 352 96 581
3 190 7 352
3 584 582 583
3 583 118 584
3 582 150 583
3 584 48 582
3 577 428 583
3 583 150 577
3 428 118 583
3 577 36 428
3 181 576 582
3 582 48 181
3 576 150 582
3 181 12 576
3 429 184 584
3 584 118 429
3 184 48 584
3 429 8 184
3 587 585 586
3 586 97 587
3 585 152 586
3 587 121 585
3 573 357 586
3 586 152 573
3 357 97 586
3 573 27 357
3 438 578 585
3 585 121 438
3 578 152 585
3 438 36 578
3 358 441 587
3 587 97 358
3 441 121 587
3 358 1 441
3 590 588 589
3 589 155 590
3 588 154 589
3 590 153 588
3 592 591 589
3 589 154 592
3 591 155 589
3 592 17 591
3 594 593 588
3 588 153 594
3 593 154 588
3 594 30 593
3 596 595 590
3 590 155 596
3 595 153 590
3 596 35 595
3 599 597 598
3 598 104 599
3 597 154 598
3 599 64 597
3 593 383 598
3 598 154 593
3 383 104 598
3 593 30 383
3 237 592 597
3 597 64 237
3 592 154 597
3 237 17 592
3 384 240 599
3 599 104 384
3 240 64 599
3 384 6 240
3 602 600 601
3 601 120 602
3 600 153 601
3 602 103 600
3 595 439 601
3 601 153 595
3 439 120 601
3 595 35 439
3 377 594 600
3 600 103 377
3 594 153 600
3 377 30 594
3 440 378 602
3 602 120 440
3 378 103 602
3 440 1 378
3 605 603 604
3 604 65 605
3 603 155 604
3 605 119 603
3 591 245 604
3 604 155 591
3 245 65 604
3 591 17 245
3 433 596 603
3 603 119 433
3 596 155 603
3 433 35 596
3 246 434 605
3 605 65 246
3 434 119 605
3 246 11 434
3 608 606 607
3 607 158 608
3 606 157 607
3 608 156 606
3 610 609 607
3 607 157 610
3 609 158 607
3 610 15 609
3 612 611 606
3 606 156 612
3 611 157 606
3 612 28 611
3 614 613 608
3 608 158 614
3 613 156 608
3 614 41 613
3 617 615 616
3 616 95 617
3 615 157 616
3 617 55 615
3 611 350 616
3 616 157 611
3 350 95 616
3 611 28 350
3 209 610 615
3 615 55 209
3 610 157 615
3 209 15 610
3 351 210 617
3 617 95 351
3 210 55 617
3 351 7 210
3 620 618 619
3 619 135 620
3 618 156 619
3 620 94 618
3 613 490 619
3 619 156 613
3 490 135 619
3 613 41 490
3 342 612 618
3 618 94 342
3 612 156 618
3 342 28 612
3 491 345 620
3 620 135 491
3 345 94 620
3 491 2 345
3 623 621 622
3 622 56 623
3 621 158 622
3 623 134 621
3 609 215 622
3 622 158 609
3 215 56 622
3 609 15 215
3 484 614 621
3 621 134 484
3 614 158 621
3 484 41 614
3 216 485 623
3 623 56 216
3 485 134 623
3 216 9 485
3 626 624 625
3 625 161 626
3 624 160 625
3 626 159 624
3 628 627 625
3 625 160 628
3 627 161 625
3 628 31 627
3 630 629 624
3 624 159 630
3 629 160 624
3 630 20 629
3 632 631 626
3 626 161 632
3 631 159 626
3 632 40 631
3 635 633 634
3 634 73 635
3 633 160 634
3 635 105 633
3 629 272 634
3 634 160 629
3 272 73 634
3 629 20 272
3 382 628 633
3 633 105 382
3 628 160 633
3 382 31 628
3 273 385 635
3 635 73 273
3 385 105 635
3 273 6 385
3 638 636 637
3 637 137 638
3 636 159 637
3 638 72 636
3 631 496 637
3 637 159 631
3 496 137 637
3 631 40 496
3 265 630 636
3 636 72 265
3 630 159 636
3 265 20 630
3 497 268 638
3 638 137 497
3 268 72 638
3 497 10 268
3 641 639 640
3 640 102 641
3 639 161 640
3 641 136 639
3 627 372 640
3 640 161 627
3 372 102 640
3 627 31 372
3 489 632 639
3 639 136 489
3 632 161 639
3 489 40 632
3 373 492 641
3 641 102 373
3 492 136 641
3 373 2 492
