# vtk DataFile Version 3.0
this file was written using fslvtkio
ASCII
DATASET POLYDATA
POINTS 970 float
124.69 147.168 103.959
123.42 146.681 104.52
124.214 146.195 104.462
125.049 145.978 104.261
125.993 147.064 103.964
126.276 145.692 104.453
127.078 146.625 104.59
127.398 145.59 105.212
124.166 148.083 104.412
123.374 148.135 105.097
125.394 148.36 104.511
126.741 148.003 104.649
127.703 146.947 105.549
124.5 149.222 105.457
126.062 149.292 105.344
127.187 148.255 105.723
121.106 137.115 103.184
119.572 136.844 103.547
120.32 135.491 102.899
121.799 135.725 103.051
122.25 137.57 103.463
122.592 136.46 103.984
122.913 137.875 104.33
122.573 136.71 105.134
120.694 138.186 104.13
119.389 137.947 104.608
121.914 138.81 103.877
122.956 139.134 103.981
123.292 137.863 105.302
123.63 139.226 104.942
123.695 138.663 106.038
120.549 139.188 104.842
119.431 138.747 105.18
121.805 139.879 104.512
122.929 140.447 104.258
123.842 140.518 104.765
124.253 140.047 105.907
119.689 139.609 105.507
121.384 140.571 105.058
120.604 140.641 105.544
122.764 141.662 104.641
124.044 142.021 104.484
124.632 141.351 105.368
121.47 141.773 105.498
122.757 142.839 105.103
123.863 143.502 104.535
123.264 144.178 105.481
125.113 142.454 105.234
125.083 143.522 104.634
125.964 143.18 105.687
126.462 143.927 105.26
126.588 143.742 106.307
123.982 145.25 105.148
122.886 145.002 105.982
124.962 144.743 104.813
126.387 144.64 104.83
127.425 144.639 106.042
122.855 145.926 105.446
121.741 146.299 106.116
121.918 145.186 106.654
128.263 145.951 106.381
122.347 147.328 105.377
121.715 147.534 106.538
128.147 147.701 106.651
123.017 148.597 106.256
123.902 149.576 106.783
125.471 149.986 106.374
126.991 149.353 106.456
118.576 133.816 103.605
117.514 134.328 104.24
117.782 132.828 104.576
119.261 132.787 104.111
119.826 134.199 103.204
120.484 133.519 104.157
118.634 135.54 103.527
117.359 135.742 104.623
121.271 134.528 103.62
122.106 135.435 104.566
122.226 136.123 106.021
118.266 137.047 104.331
117.027 137.077 105.29
123.056 137.389 106.272
123.684 138.472 107.229
118.23 138.368 105.342
116.889 138.446 106.215
124.162 139.747 107.113
124.813 140.999 106.652
124.869 140.613 107.746
118.405 139.65 106.11
119.91 140.766 105.957
118.755 140.697 106.672
125.304 141.978 106.435
125.596 141.727 107.819
120.083 141.816 106.494
121.043 142.877 106.495
119.975 142.739 107.088
122.082 143.153 105.845
126.138 142.795 106.921
127.101 143.8 107.383
121.157 144.162 107.331
120.022 143.336 107.662
122.083 144.046 106.498
127.969 144.836 107.442
120.105 144.101 107.875
121.049 145.714 107.27
128.413 146.167 107.617
121.264 147.46 107.626
128.371 147.652 107.763
122.55 148.533 107.631
123.8 149.433 107.999
123.486 148.932 108.986
125.014 150.141 107.75
126.596 150.124 107.507
127.712 149.011 107.487
124.692 149.831 109.108
125.981 150.236 108.903
127.198 149.992 108.656
116.92 134.101 105.494
117.472 132.616 105.788
118.752 132.191 105.404
120.098 132.87 105.412
120.951 133.909 105.236
120.831 133.966 106.873
116.667 135.597 105.991
121.505 134.846 105.562
121.987 135.901 107.236
116.359 136.95 106.558
122.815 137.297 107.378
123.576 138.203 108.587
116.025 137.892 107.246
124.272 139.461 108.26
125.072 140.604 108.808
117.255 139.859 106.86
116.178 139.251 107.677
125.807 141.681 109.109
117.184 140.803 107.794
116.36 140.614 108.817
118.508 141.465 107.249
126.414 142.858 108.285
127.174 143.721 108.871
117.419 141.739 108.367
118.678 142.569 107.846
118.11 142.604 108.709
127.775 144.748 108.855
118.96 143.544 108.749
120.128 145.02 108.205
119.689 145.21 109.042
128.257 145.883 108.88
128.609 147.007 108.718
128.597 146.477 109.873
120.523 146.476 108.189
120.374 146.565 109.266
128.332 148.25 108.711
128.64 147.621 109.902
121.598 147.637 108.824
122.605 148.193 109.363
123.499 148.596 110.151
127.834 149.184 108.929
128.362 148.693 110.151
124.473 149.179 110.301
125.546 149.842 110.4
126.828 150.109 110.246
127.725 149.645 110.164
118.204 131.931 106.763
117.383 132.988 107.049
117.886 131.661 107.907
119.113 131.43 107.782
119.43 132.182 106.586
119.831 132.225 107.867
120.216 133.031 106.879
120.437 132.991 108.325
117.078 134.325 107.172
120.968 133.888 108.646
116.659 135.583 107.466
121.433 134.897 107.422
122.126 135.874 108.671
116.226 136.686 108.062
122.78 137.07 108.6
123.603 138.021 109.799
115.874 137.919 108.609
124.492 139.276 109.427
125.327 140.426 110.053
115.968 139.206 109.166
126.099 141.456 110.482
116.242 140.183 110.008
126.566 142.66 109.706
127.34 143.588 110.442
117.254 142.115 109.239
116.884 141.521 110.256
127.769 144.628 110.202
128.116 145.528 109.752
128.399 145.435 110.95
117.938 143.1 109.783
118.851 144.393 109.662
118.551 144.228 110.7
128.86 146.661 111.032
119.587 145.603 110.229
119.393 145.347 111.26
128.727 147.799 111.199
120.738 146.717 110.287
121.756 147.461 110.39
122.696 148.023 110.633
122.272 147.634 111.534
128.481 148.937 111.452
123.688 148.389 111.375
124.637 148.789 111.823
125.442 149.321 111.696
126.557 149.829 111.631
127.672 149.717 111.514
117.447 132.841 108.542
117.882 131.217 109.058
118.904 130.695 108.718
119.948 131.75 108.949
120.608 132.523 109.91
117.217 134.286 108.785
121.284 133.58 110.259
116.536 135.313 109.069
121.529 134.835 109.197
122.299 135.653 110.094
116.164 136.52 109.565
122.98 136.845 109.941
123.934 137.7 111.156
115.943 137.778 110.122
124.505 139.034 110.663
125.284 139.985 111.32
116.071 138.921 110.799
126.195 140.927 111.743
116.528 140.142 111.326
126.995 142.367 111.084
127.719 143.041 112.111
117.179 141.416 111.617
127.992 144.279 111.362
128.666 145.318 112.182
117.704 142.844 110.919
118.431 143.954 111.858
128.839 146.581 112.187
119.352 144.728 112.559
128.713 147.672 112.569
120.265 145.913 111.733
121.217 146.662 111.615
122.155 146.884 112.605
128.363 148.837 112.689
123.237 147.814 112.443
124.31 148.263 112.898
125.331 148.84 113.162
126.332 149.421 113.009
127.491 149.505 112.839
118.382 130.085 109.764
117.677 131.33 109.899
117.929 129.754 110.77
119.186 129.18 110.556
119.528 130.35 109.653
120.16 129.88 110.619
120.192 131.215 110.031
120.679 130.869 111.026
117.493 132.749 109.956
121.129 132.174 111.389
117.11 134.044 110.235
121.532 133.288 111.469
116.462 135.018 110.622
121.812 134.544 110.984
122.646 135.481 111.419
116.186 136.283 111.116
123.283 136.56 111.222
124.234 137.093 112.446
116.108 137.487 111.686
124.71 138.487 112
125.59 139.443 112.521
116.267 138.737 112.213
126.438 140.575 112.867
116.783 139.98 112.651
127.043 141.856 112.334
127.616 142.237 113.481
117.35 141.142 112.979
128.175 144.063 112.542
128.093 143.427 113.759
117.833 142.592 112.249
118.477 143.501 113.124
128.611 144.774 113.269
128.792 146.099 113.45
119.375 144.202 113.833
128.68 147.51 113.745
120.358 145.315 113.158
121.176 146.104 113.068
122.082 146.572 113.916
128.236 148.682 113.876
123.082 147.332 113.646
124.148 147.856 114.054
125.21 148.367 114.437
126.163 148.94 114.492
127.216 149.189 114.085
117.835 131.121 111.214
118.07 129.294 111.881
118.858 128.442 111.368
120.257 129.019 111.685
121.116 130.47 112.221
117.485 132.635 111.233
121.413 131.485 112.59
121.776 132.605 112.567
122.085 132.062 113.605
117.209 133.701 111.796
121.939 133.592 112.035
122.51 133.54 112.88
116.567 134.793 112.121
122.688 134.646 112.476
123.452 135.904 112.293
123.804 135.499 113.349
116.244 135.986 112.635
124.672 136.575 113.682
116.337 137.278 113.139
125.189 138.015 113.213
126.204 139.335 113.588
116.55 138.511 113.66
126.772 140.3 113.858
127.002 141.295 113.416
127.452 140.933 114.617
116.947 139.676 114.06
128.122 142.208 114.799
117.51 140.705 114.496
128.43 143.637 115.21
117.985 142.064 113.624
118.686 142.928 114.478
128.654 144.786 114.346
128.741 146.226 114.731
119.727 143.759 115.051
128.491 147.38 114.942
120.476 144.906 114.373
121.482 145.756 114.594
122.479 146.356 115.301
127.927 148.454 114.812
123.034 146.867 114.757
124.019 147.312 115.206
125.057 147.808 115.594
126.21 148.238 115.767
127.183 148.595 115.43
119.09 127.659 112.267
118.368 127.595 113.352
119.312 126.94 113.413
120.504 127.108 113.699
120.327 127.735 112.418
121.145 128.1 113.287
117.986 130.42 112.445
118.097 128.829 112.991
121.255 129.303 112.971
121.673 130.702 113.264
122.024 130.37 114.331
117.611 131.986 112.478
117.956 130.509 113.71
122.759 132.013 114.494
117.179 133.362 113.143
123.189 133.101 114.23
116.715 134.558 113.615
123.627 134.228 113.889
124.392 135.148 114.523
116.517 135.839 114.134
125.143 136.121 114.914
125.198 137.102 114.103
125.641 137.519 114.655
116.654 137.107 114.642
126.156 138.555 114.392
126.877 139.642 114.621
127.16 139.296 115.675
116.97 138.245 115.136
127.911 140.644 115.749
117.257 139.302 115.535
128.53 141.936 116.055
117.678 140.342 115.828
128.666 143.254 116.467
118.26 141.503 115.082
119.091 142.594 115.647
128.662 145.209 115.557
128.575 144.734 116.601
120.059 143.241 116.272
120.536 144.387 115.503
120.898 144.053 116.419
128.442 146.458 116.154
127.993 146.481 117.118
121.573 145.157 115.671
123.647 146.611 116.157
122.726 145.792 116.368
124.816 147.248 116.672
124.141 146.325 117.377
126.098 147.701 116.9
125.447 146.997 117.896
127.427 147.725 116.687
126.993 147.221 117.819
127.975 147.797 115.721
119.62 126.296 114.249
118.682 126.715 114.614
119.455 125.833 115.191
120.454 125.715 115.093
120.483 126.38 114.333
121.152 126.529 114.719
118.332 128.1 114.515
121.735 127.453 114.883
121.634 128.912 114.169
122.234 128.766 115.331
118.251 129.393 114.479
122.645 130.441 115.317
117.61 131.926 113.912
117.911 130.606 115.139
123.334 131.02 115.991
123.466 132.375 115.356
124.037 131.824 116.331
117.219 133.191 114.594
123.742 133.213 114.776
124.186 133.326 115.286
116.85 134.424 115.121
124.837 134.233 115.584
125.026 135.157 115.37
125.61 135.197 116.082
116.712 135.625 115.673
126.035 136.651 115.829
126.454 138.045 115.558
127.025 137.64 116.565
116.91 136.875 116.173
127.762 139 116.735
117.459 137.923 116.715
128.275 140.284 116.83
117.702 139.216 116.793
128.523 141.067 117.349
128.832 142.206 117.357
128.719 140.851 118.488
117.969 140.09 116.845
118.189 140.763 116.229
118.528 140.498 117.426
128.779 143.532 117.593
128.761 142.126 118.62
119.41 142.43 116.465
118.859 141.5 116.369
119.761 142.267 117.254
128.426 144.798 117.805
128.55 143.472 118.725
121.653 144.447 116.845
120.818 143.331 117.302
121.839 143.92 117.821
127.931 144.74 118.693
127.802 145.902 117.937
122.611 145.039 117.125
123.856 145.543 117.909
125.139 146.085 118.57
126.493 146.513 118.691
120.119 125.106 115.992
119.082 125.735 115.913
119.778 124.612 116.887
120.915 124.34 116.931
121.198 125.329 115.858
121.688 124.703 116.873
121.944 125.551 116.429
122.331 125.076 117.098
118.686 126.918 115.905
121.862 126.258 115.615
122.449 126.405 116.554
118.358 128.315 115.896
122.599 127.639 116.404
122.924 129.116 116.274
123.56 128.575 117.343
118.149 129.558 116.229
123.233 130.02 116.259
123.993 129.849 117.043
117.572 131.908 115.496
117.871 130.645 116.608
124.654 130.72 117.435
124.638 132.425 116.708
125.245 131.861 117.654
117.28 133.065 115.998
124.743 133.29 116.228
125.335 133.373 116.888
117.062 134.129 116.674
125.951 134.352 117.157
126.37 136.021 116.702
126.768 135.862 117.524
117.146 135.273 117.118
127.484 137.284 117.588
117.365 136.348 117.677
127.931 137.981 117.911
128.149 139.089 117.963
128.144 137.891 119.085
117.686 137.253 118.035
117.993 138.33 118.009
118.435 137.364 119.238
128.503 140.01 118.09
128.445 139.255 119.294
118.226 139.451 117.812
118.743 138.811 118.925
128.603 140.547 119.605
119.1 140.17 118.52
128.421 142.004 119.698
119.314 141.199 117.781
120.289 141.867 118.224
128.013 143.557 119.53
120.817 142.787 118.193
122.699 144.249 118.227
121.976 143.269 118.829
123.071 143.973 119.227
127.59 144.471 119.439
127.087 145.477 119.008
123.566 144.728 118.464
124.667 145.146 119.057
125.83 145.512 119.353
118.984 125.504 117.191
119.669 123.944 117.55
120.794 123.288 117.473
122.1 123.702 117.565
122.937 124.907 117.658
118.802 126.966 117.267
123.49 125.529 118.263
122.992 126.599 117.37
123.665 126.732 118.114
118.511 128.113 117.474
123.861 127.691 117.987
124.63 128.707 118.14
125.066 127.92 119.285
118.299 129.2 117.859
124.86 129.67 118.057
125.57 129.196 119.151
117.699 131.556 117.146
118.013 130.34 118.205
125.565 130.583 118.492
125.877 132.159 118.335
126.43 131.339 119.241
117.454 132.69 117.448
117.792 131.532 118.613
125.941 133.231 117.931
126.456 133.191 118.75
117.443 133.709 118.29
126.604 134.543 118.23
127.268 135.91 118.515
127.431 135.003 119.433
117.491 134.848 118.64
127.835 136.915 118.729
127.982 136.207 119.857
117.832 135.547 119.029
118.037 136.5 118.954
118.509 135.873 120.23
128.392 137.643 120.193
119.104 137.206 120.361
128.415 139.091 120.569
119.433 138.406 119.939
119.489 139.532 119.473
120.2 139.293 120.349
128.163 140.509 120.731
119.592 140.41 118.903
120.139 140.408 119.676
127.997 142.414 120.457
121.13 142.228 119.015
120.309 141.204 119.023
121.807 142.547 119.467
121.529 141.636 119.823
122.419 142.532 120.045
127.303 144.062 120.063
127.227 142.673 120.876
126.506 143.469 120.854
124.085 144.377 119.782
123.155 143.303 120.094
125.215 144.687 120.136
124.364 143.673 120.687
126.454 144.755 120.086
125.562 143.842 120.908
120.284 122.71 118.314
119.427 124.171 118.394
119.841 122.772 119.207
120.783 121.735 119.155
121.604 122.41 118.229
122.374 121.72 118.896
122.947 123.096 118.317
123.601 122.07 119.058
123.859 123.354 119.092
124.398 122.892 119.889
119.149 125.562 118.469
123.553 124.274 118.636
124.534 124.336 119.717
118.952 126.76 118.798
124.582 125.631 119.339
124.603 126.902 119.054
125.51 126.397 120.166
118.654 127.917 119.029
125.932 127.715 120.245
118.394 129.097 119.349
126.528 128.527 120.597
126.232 129.917 119.619
126.849 130.1 120.562
118.269 130.159 119.874
126.996 131.797 119.93
117.79 132.558 119.281
118.144 131.297 120.055
127.269 132.937 120.019
117.999 133.707 119.89
118.244 132.693 120.729
127.126 133.994 119.496
127.965 134.669 120.623
118.009 134.8 120.049
118.713 134.216 121.231
128.37 136.081 121.018
119.107 135.733 121.336
128.364 137.596 121.412
119.684 136.742 121.644
120.03 138.073 120.897
120.802 138.513 121.337
120.427 137.317 121.975
121.101 137.838 122.359
128.105 139.068 121.783
121.049 139.864 120.843
121.449 139.087 121.896
127.722 140.218 121.664
127.393 139.577 122.582
127.109 140.771 122.187
121.076 140.832 120.125
122.018 140.241 121.52
122.009 141.164 120.65
122.749 141.184 121.316
127.658 141.504 121.238
126.706 141.942 121.785
123.183 141.87 121.245
125.938 142.887 121.625
123.31 142.516 120.868
124.082 142.772 121.129
125.05 142.951 121.54
122.406 119.561 120.029
121.121 119.866 120.187
121.671 118.773 120.797
122.583 117.97 120.606
123.55 119.58 120.142
123.834 118.026 120.587
124.583 119.927 120.398
124.802 118.433 120.974
121.72 120.762 119.484
120.453 121.054 120.338
123.188 120.759 119.544
124.396 121.477 120
125.255 119.813 120.946
125.344 121.627 120.733
125.874 120.083 121.495
119.602 124.128 119.564
120.142 122.494 120.287
125.385 123.374 120.628
126.147 121.257 121.644
126.235 122.716 121.561
126.817 121.508 122.465
119.534 125.38 119.906
125.543 125.029 120.536
126.287 124.38 121.527
126.975 123.393 122.378
119.155 126.595 120.315
126.492 126.099 121.256
126.944 125.307 122.322
118.723 127.938 120.302
126.557 127.322 121.196
127.071 127.159 122.211
118.676 129.094 120.877
127.231 128.797 121.521
127.34 130.75 121.214
127.69 129.828 122.137
118.785 130.222 121.554
127.622 132.137 120.992
127.884 131.491 122.023
118.633 131.539 121.54
127.783 133.517 120.572
128.094 133.341 121.667
118.905 132.915 121.796
128.422 134.694 121.884
119.524 133.42 122.714
119.467 134.765 122.312
120.101 134.133 123.243
128.349 136.049 122.237
119.919 135.934 122.25
120.294 135.345 122.972
127.916 137.375 122.518
120.94 136.458 122.98
121.716 137.597 123.007
127.469 138.342 122.966
122.076 138.542 122.74
122.088 139.333 122.128
122.582 139.338 122.725
126.638 139.07 123.328
126.35 140.188 122.971
123.722 141.229 122.182
123.017 140.271 122.3
124.809 141.205 122.766
123.981 140.2 123.037
125.857 141.102 122.577
125.157 140.121 123.367
123.839 142.071 121.628
124.588 142.17 121.974
125.604 142.074 122.138
123.303 116.471 121.211
122.173 116.972 121.602
122.636 115.965 122.308
123.482 114.972 121.863
124.579 116.734 121.181
124.826 115.389 121.371
125.685 116.994 121.62
125.94 115.664 121.73
121.01 119.56 121.32
121.622 118.098 121.938
125.726 118.458 121.54
126.481 116.867 122.227
126.557 118.272 122.431
127.167 117.335 122.997
120.794 120.788 121.661
126.481 119.827 122.288
127.144 119.497 123.173
119.959 123.718 120.848
120.45 122.17 121.598
127.27 121.647 123.294
119.816 124.99 121.31
120.193 123.543 122.124
127.449 123.706 123.255
119.466 126.18 121.565
120.066 125.025 122.686
127.428 125.644 123.29
119.041 127.595 121.496
119.659 126.32 122.655
127.401 127.073 123.685
119.12 128.758 122.193
127.51 128.466 122.807
127.832 129.888 123.046
119.602 129.044 123.142
119.263 130.526 122.727
119.953 129.993 123.727
127.947 131.821 122.898
119.288 131.749 122.623
120.023 131.16 123.669
128.013 133.319 122.909
119.619 132.563 122.691
120.211 132.311 123.538
128.035 134.64 123.186
120.822 134.646 123.804
120.689 133.163 124.04
121.479 134.295 124.428
127.846 135.973 123.347
120.961 135.595 123.456
121.661 135.661 124
127.308 137.042 123.559
122.742 137.974 123.638
122.062 136.726 123.797
123.839 137.962 124.218
123.13 136.891 124.462
124.935 137.897 124.385
124.315 136.75 124.876
125.896 137.77 124.239
125.478 136.686 124.83
126.659 137.956 123.76
126.451 136.823 124.428
123.355 139.211 123.507
124.478 139.128 123.847
125.685 139.034 123.866
127.42 106.049 119.582
126.268 107.444 121.092
127.233 105.158 121.245
128.612 103.603 120.153
128.98 106.332 119.843
130.314 104.531 120.358
129.872 106.816 120.993
130.383 105.74 121.902
126.388 108.945 120.524
125.261 109.22 121.686
127.778 108.662 120.416
128.861 108.498 121.182
129.685 107.89 122.345
125.654 110.978 121.211
124.714 110.849 122.587
127.13 110.559 121.01
128.317 110.578 121.736
129.101 110.03 122.738
124.678 112.269 121.573
124.028 113.115 122.732
124.425 112.139 123.194
126.173 112.819 121.54
127.421 112.337 121.781
128.26 112.424 122.939
128.746 111.758 123.739
124.414 113.911 121.857
123.689 114.243 123.233
125.768 114.281 121.668
127.326 114.311 122.364
128.143 113.92 123.232
122.42 117.062 123.063
123.195 115.44 123.473
126.853 115.606 122.402
127.716 115.917 123.451
121.33 119.458 122.522
121.948 118.295 123.306
127.652 117.839 123.881
121.034 120.766 122.901
127.532 119.872 124.111
120.761 122.148 123.017
127.56 121.919 124.229
120.541 123.471 123.405
127.634 123.966 124.266
120.521 124.787 123.906
127.558 125.591 124.595
119.514 127.452 122.924
120.245 126.237 123.846
127.419 127.119 125.079
119.614 128.188 123.2
120.196 127.678 124.053
127.593 128.445 124.026
127.856 130.239 123.993
120.739 130.34 124.548
120.357 128.929 124.215
121.204 129.434 125.136
127.697 131.487 124.085
121.057 131.461 124.618
121.662 130.568 125.551
127.716 132.923 124.089
120.953 132.309 124.389
121.742 132.096 125.307
127.553 133.909 124.287
127.352 132.814 124.775
126.953 133.29 125.192
122.421 134.739 124.941
121.77 133.221 124.951
122.709 133.643 125.505
127.366 134.913 124.315
126.479 134.366 125.265
122.672 135.898 124.679
123.288 134.623 125.641
123.777 135.657 125.201
125.125 135.619 125.321
124.378 134.714 125.885
126.374 135.588 125.006
125.564 134.553 125.754
127.137 136.027 124.187
126.173 107.746 122.462
127.079 106.391 123.091
128.285 104.552 122.685
129.969 104.203 122.474
130.019 106.534 123.356
125.426 109.683 123.271
129.627 108.866 123.74
125.167 111.354 124.397
129.199 110.559 124.343
124.32 113.496 124.417
124.774 112.488 124.516
128.599 111.862 125.35
128.446 113.541 124.73
123.931 114.776 124.81
128.106 115.088 124.349
122.99 116.741 124.235
123.538 115.887 124.956
127.982 116.697 124.711
121.779 119.464 123.919
122.636 118.068 124.578
127.878 118.4 124.944
121.521 120.824 124.211
122.343 119.438 125.129
127.634 120.25 125.143
121.213 122.106 124.381
122.064 121.032 125.401
127.676 122.204 125.25
121.005 123.55 124.67
121.855 122.452 125.555
127.587 123.783 125.515
121.009 125.335 124.939
121.669 123.873 125.571
127.365 125.282 125.809
120.959 126.801 125.001
121.895 125.033 125.878
121.842 126.229 125.929
122.668 125.465 126.673
127.149 126.597 126.169
121.118 128.233 125.099
121.969 127.576 125.923
122.862 126.906 126.846
127.414 128.715 125.002
127.059 128.27 126.091
122.031 129.111 125.957
122.901 128.361 126.719
127.439 129.898 125.306
126.9 129.996 126.273
122.501 131.045 126.144
122.93 129.905 126.61
127.254 131.449 125.243
126.577 131.049 126.337
122.755 132.489 125.9
123.456 131.107 126.6
123.852 132.311 126.307
125.209 132.417 126.36
124.532 131.322 126.699
126.508 132.214 125.884
125.721 131.331 126.762
123.62 133.518 126.115
124.734 133.596 126.259
125.934 133.392 125.893
126.286 108.276 123.733
127.039 107.37 124.379
127.874 106.192 124.437
129.337 105.932 124.374
129.4 107.896 124.66
125.914 109.91 124.609
129.169 109.451 125.066
125.807 110.903 125.543
128.913 110.64 125.541
125.138 112.958 125.835
125.713 111.971 126.022
126.462 112.921 127.082
128.25 113.036 126.263
127.458 112.011 126.906
128.321 111.154 126.434
124.677 114.264 125.933
125.628 113.987 127.104
127.193 113.94 127.347
128.059 114.246 126.08
128.104 115.419 125.564
123.508 117 125.544
124.28 115.752 126.224
127.964 117.177 125.973
123.295 118.439 125.888
124.192 117.306 126.681
127.685 118.903 126.11
123.003 119.987 126.221
123.999 118.984 126.877
127.559 120.675 126.204
122.863 121.592 126.4
123.761 120.661 127.145
127.43 122.28 126.488
122.657 123.088 126.521
123.597 122.329 127.248
127.146 123.706 126.701
122.514 124.294 126.47
123.439 123.988 127.249
126.953 125.09 126.92
123.531 125.471 127.361
126.826 126.705 127.013
123.758 126.592 127.514
123.961 127.875 127.414
125.431 127.988 127.62
124.764 126.791 127.7
126.498 127.83 127.177
125.972 126.698 127.678
123.873 129.227 127.093
125.091 129.135 127.301
126.401 129.02 126.974
123.905 130.36 127.019
124.911 130.31 127.21
126.042 130.227 127.07
126.581 108.705 125.122
127.477 107.645 125.585
128.577 107.189 125.209
126.506 110.029 125.961
127.384 109.141 126.298
128.604 108.516 125.871
126.358 111.155 126.634
127.306 110.54 126.952
128.412 109.895 126.371
125.366 115.5 127.131
126.589 115.33 127.615
127.664 115.154 126.895
125.106 116.892 127.468
126.483 116.791 127.864
127.594 116.402 126.953
124.973 118.402 127.668
126.325 118.327 127.96
127.384 118 127.152
124.835 119.957 127.698
126.145 119.798 127.897
127.187 119.568 127.208
124.557 121.585 127.875
125.821 121.249 127.967
126.94 121.058 127.304
124.377 123.187 127.952
125.602 122.809 128.071
126.655 122.505 127.521
124.318 124.656 127.835
125.402 124.253 128.026
126.419 123.956 127.611
124.309 125.741 127.693
125.194 125.519 127.902
126.302 125.405 127.72
POLYGONS 1936  7744
3 0 1 2
3 0 3 4
3 2 3 0
3 4 5 6
3 3 5 4
3 5 7 6
3 8 1 0
3 9 1 8
3 4 10 0
3 10 8 0
3 6 11 4
3 11 10 4
3 12 6 7
3 11 6 12
3 8 13 9
3 10 13 8
3 14 13 10
3 11 14 10
3 15 14 11
3 12 15 11
3 16 17 18
3 16 19 20
3 18 19 16
3 20 21 22
3 19 21 20
3 21 23 22
3 24 17 16
3 25 17 24
3 20 26 16
3 26 24 16
3 22 27 20
3 27 26 20
3 28 22 23
3 28 29 22
3 29 27 22
3 28 30 29
3 31 25 24
3 32 25 31
3 26 33 24
3 33 31 24
3 27 34 26
3 34 33 26
3 29 35 27
3 35 34 27
3 36 29 30
3 35 29 36
3 31 37 32
3 37 38 39
3 37 31 38
3 31 33 38
3 34 40 33
3 40 38 33
3 35 41 34
3 41 40 34
3 42 35 36
3 41 35 42
3 38 43 39
3 40 43 38
3 44 43 40
3 44 45 46
3 44 40 45
3 40 41 45
3 47 41 42
3 47 48 41
3 48 45 41
3 48 49 50
3 47 49 48
3 49 51 50
3 52 46 45
3 53 46 52
3 48 54 45
3 54 52 45
3 50 55 48
3 55 54 48
3 56 50 51
3 55 50 56
3 57 58 59
3 53 57 59
3 52 57 53
3 52 1 57
3 52 2 1
3 3 2 52
3 54 3 52
3 5 3 54
3 55 5 54
3 55 7 5
3 55 56 7
3 56 60 7
3 61 58 57
3 62 58 61
3 1 9 61
3 57 1 61
3 7 60 12
3 60 63 12
3 61 64 62
3 9 64 61
3 9 13 64
3 13 65 64
3 14 66 13
3 13 66 65
3 15 67 14
3 14 67 66
3 63 15 12
3 67 15 63
3 68 69 70
3 68 71 72
3 70 71 68
3 71 73 72
3 74 69 68
3 75 69 74
3 18 17 74
3 18 74 72
3 72 74 68
3 72 73 76
3 72 76 18
3 18 76 19
3 21 19 77
3 19 76 77
3 77 23 21
3 78 23 77
3 79 75 74
3 80 75 79
3 17 25 79
3 74 17 79
3 23 78 81
3 28 23 81
3 81 30 28
3 82 30 81
3 83 80 79
3 84 80 83
3 25 32 83
3 79 25 83
3 85 86 36
3 85 36 82
3 82 36 30
3 85 87 86
3 83 88 84
3 89 90 88
3 37 89 88
3 37 88 83
3 37 83 32
3 37 39 89
3 86 91 42
3 36 86 42
3 92 86 87
3 91 86 92
3 89 93 90
3 94 95 93
3 43 94 93
3 43 93 89
3 43 89 39
3 43 44 96
3 94 43 96
3 44 46 96
3 42 91 47
3 91 92 97
3 91 97 47
3 47 97 49
3 97 51 49
3 98 51 97
3 99 95 94
3 100 95 99
3 96 101 94
3 101 99 94
3 46 53 101
3 96 46 101
3 51 98 56
3 98 102 56
3 99 103 100
3 59 58 104
3 59 104 99
3 59 99 101
3 99 104 103
3 53 59 101
3 56 102 60
3 102 105 60
3 58 62 104
3 104 62 106
3 60 105 63
3 105 107 63
3 62 108 106
3 64 108 62
3 109 110 108
3 109 108 65
3 65 108 64
3 65 66 111
3 109 65 111
3 66 67 112
3 111 66 112
3 67 113 112
3 67 63 113
3 63 107 113
3 109 114 110
3 111 114 109
3 115 114 111
3 112 115 111
3 116 115 112
3 113 116 112
3 70 117 118
3 69 117 70
3 71 70 119
3 70 118 119
3 73 120 121
3 73 71 120
3 71 119 120
3 120 122 121
3 69 75 117
3 117 75 123
3 73 121 76
3 121 122 124
3 121 124 76
3 76 124 77
3 124 78 77
3 125 78 124
3 75 80 123
3 123 80 126
3 78 125 127
3 81 78 127
3 127 82 81
3 128 82 127
3 80 84 126
3 126 84 129
3 82 128 130
3 85 82 130
3 130 87 85
3 131 87 130
3 132 84 88
3 132 133 84
3 133 129 84
3 88 90 132
3 87 131 92
3 131 134 92
3 135 133 132
3 136 133 135
3 90 93 137
3 90 137 132
3 132 137 135
3 93 95 137
3 92 134 138
3 97 92 138
3 138 98 97
3 139 98 138
3 135 140 136
3 140 141 142
3 140 135 141
3 135 137 141
3 95 100 141
3 137 95 141
3 98 139 102
3 139 143 102
3 141 144 142
3 145 146 144
3 103 145 144
3 103 144 141
3 103 141 100
3 103 104 145
3 147 148 105
3 147 105 143
3 143 105 102
3 147 149 148
3 150 146 145
3 151 146 150
3 104 106 150
3 145 104 150
3 148 152 107
3 105 148 107
3 153 148 149
3 152 148 153
3 150 154 151
3 106 154 150
3 106 108 154
3 108 155 154
3 155 108 110
3 156 155 110
3 152 157 113
3 107 152 113
3 158 152 153
3 157 152 158
3 110 159 156
3 114 159 110
3 115 160 114
3 114 160 159
3 116 161 115
3 115 161 160
3 157 116 113
3 157 162 116
3 162 161 116
3 158 162 157
3 163 164 165
3 163 166 167
3 165 166 163
3 167 168 169
3 166 168 167
3 168 170 169
3 118 164 163
3 118 117 164
3 117 171 164
3 119 118 163
3 167 119 163
3 120 119 167
3 169 120 167
3 169 122 120
3 169 170 122
3 170 172 122
3 117 123 171
3 171 123 173
3 122 172 174
3 124 122 174
3 174 125 124
3 175 125 174
3 123 126 173
3 173 126 176
3 125 175 177
3 127 125 177
3 177 128 127
3 178 128 177
3 126 129 176
3 176 129 179
3 128 178 180
3 130 128 180
3 180 131 130
3 181 131 180
3 129 133 179
3 179 133 182
3 131 181 134
3 181 183 134
3 133 136 182
3 182 136 184
3 134 183 185
3 138 134 185
3 185 139 138
3 186 139 185
3 187 136 140
3 187 188 136
3 188 184 136
3 140 142 187
3 189 190 143
3 189 143 186
3 186 143 139
3 189 191 190
3 187 192 188
3 193 194 192
3 144 193 192
3 144 192 187
3 144 187 142
3 144 146 193
3 143 190 147
3 190 149 147
3 190 191 149
3 191 195 149
3 196 194 193
3 197 194 196
3 146 151 196
3 193 146 196
3 149 195 153
3 195 198 153
3 196 199 197
3 151 199 196
3 151 154 199
3 154 200 199
3 201 202 200
3 201 200 155
3 155 200 154
3 155 156 201
3 153 198 158
3 198 203 158
3 201 204 202
3 156 204 201
3 156 159 204
3 159 205 204
3 160 206 159
3 159 206 205
3 161 207 160
3 160 207 206
3 162 208 161
3 161 208 207
3 203 162 158
3 208 162 203
3 165 209 210
3 164 209 165
3 166 165 211
3 165 210 211
3 168 166 212
3 166 211 212
3 212 170 168
3 213 170 212
3 164 171 209
3 209 171 214
3 170 213 172
3 213 215 172
3 171 173 214
3 214 173 216
3 172 215 217
3 174 172 217
3 217 175 174
3 218 175 217
3 173 176 216
3 216 176 219
3 175 218 220
3 177 175 220
3 220 178 177
3 221 178 220
3 176 179 219
3 219 179 222
3 178 221 223
3 180 178 223
3 223 181 180
3 224 181 223
3 179 182 222
3 222 182 225
3 181 224 183
3 224 226 183
3 182 184 225
3 225 184 227
3 183 226 228
3 185 183 228
3 228 186 185
3 229 186 228
3 184 188 227
3 227 188 230
3 186 229 231
3 189 186 231
3 231 191 189
3 232 191 231
3 188 233 230
3 192 233 188
3 233 192 194
3 234 233 194
3 191 232 195
3 232 235 195
3 194 197 234
3 234 197 236
3 195 235 198
3 235 237 198
3 197 238 236
3 199 238 197
3 200 239 199
3 199 239 238
3 239 200 202
3 240 239 202
3 198 237 203
3 237 241 203
3 202 242 240
3 204 242 202
3 205 243 204
3 204 243 242
3 206 244 205
3 205 244 243
3 207 245 206
3 206 245 244
3 208 246 207
3 207 246 245
3 241 208 203
3 246 208 241
3 247 248 249
3 247 250 251
3 249 250 247
3 251 252 253
3 250 252 251
3 252 254 253
3 210 248 247
3 210 209 248
3 209 255 248
3 211 210 247
3 251 211 247
3 212 211 251
3 253 212 251
3 253 213 212
3 253 254 213
3 254 256 213
3 209 214 255
3 255 214 257
3 213 256 215
3 256 258 215
3 214 216 257
3 257 216 259
3 215 258 260
3 217 215 260
3 260 218 217
3 261 218 260
3 216 219 259
3 259 219 262
3 218 261 263
3 220 218 263
3 263 221 220
3 264 221 263
3 219 222 262
3 262 222 265
3 221 264 266
3 223 221 266
3 266 224 223
3 267 224 266
3 222 225 265
3 265 225 268
3 224 267 226
3 267 269 226
3 225 227 268
3 268 227 270
3 226 269 271
3 228 226 271
3 271 229 228
3 272 229 271
3 227 230 270
3 270 230 273
3 274 231 229
3 274 229 275
3 275 229 272
3 231 274 232
3 230 276 273
3 233 276 230
3 276 233 234
3 277 276 234
3 274 275 278
3 278 232 274
3 278 279 232
3 279 235 232
3 234 236 277
3 277 236 280
3 235 279 237
3 279 281 237
3 236 282 280
3 238 282 236
3 239 283 238
3 238 283 282
3 283 239 240
3 284 283 240
3 237 281 241
3 281 285 241
3 240 286 284
3 242 286 240
3 243 287 242
3 242 287 286
3 244 288 243
3 243 288 287
3 245 289 244
3 244 289 288
3 246 290 245
3 245 290 289
3 285 246 241
3 290 246 285
3 249 291 292
3 248 291 249
3 250 249 293
3 249 292 293
3 252 250 294
3 250 293 294
3 294 254 252
3 295 254 294
3 248 255 291
3 291 255 296
3 297 298 256
3 297 256 295
3 295 256 254
3 297 299 298
3 255 257 296
3 296 257 300
3 298 301 258
3 256 298 258
3 302 298 299
3 301 298 302
3 257 259 300
3 300 259 303
3 258 301 260
3 261 304 305
3 260 304 261
3 260 302 304
3 260 301 302
3 304 306 305
3 259 262 303
3 303 262 307
3 261 305 263
3 305 264 263
3 305 306 264
3 306 308 264
3 262 265 307
3 307 265 309
3 264 308 310
3 266 264 310
3 310 267 266
3 311 267 310
3 265 268 309
3 309 268 312
3 313 314 269
3 313 269 311
3 311 269 267
3 313 315 314
3 268 270 312
3 312 270 316
3 269 314 271
3 314 272 271
3 314 315 272
3 315 317 272
3 270 273 316
3 316 273 318
3 272 317 275
3 317 319 275
3 273 320 318
3 276 320 273
3 320 276 277
3 321 320 277
3 275 319 322
3 278 275 322
3 322 279 278
3 323 279 322
3 277 280 321
3 321 280 324
3 279 323 281
3 323 325 281
3 280 326 324
3 282 326 280
3 283 327 282
3 282 327 326
3 327 283 284
3 328 327 284
3 281 325 285
3 325 329 285
3 284 330 328
3 286 330 284
3 287 331 286
3 286 331 330
3 288 332 287
3 287 332 331
3 289 333 288
3 288 333 332
3 290 334 289
3 289 334 333
3 329 290 285
3 334 290 329
3 335 336 337
3 335 338 339
3 337 338 335
3 338 340 339
3 292 291 341
3 335 342 336
3 335 292 342
3 335 293 292
3 341 342 292
3 294 293 335
3 339 294 335
3 295 343 344
3 294 343 295
3 294 340 343
3 294 339 340
3 343 345 344
3 341 346 347
3 341 291 346
3 291 296 346
3 342 341 347
3 295 344 297
3 344 299 297
3 344 345 299
3 345 348 299
3 296 300 346
3 346 300 349
3 299 348 302
3 348 350 302
3 300 303 349
3 349 303 351
3 302 350 352
3 304 302 352
3 352 306 304
3 353 306 352
3 303 307 351
3 351 307 354
3 355 356 308
3 355 308 353
3 353 308 306
3 355 357 356
3 307 309 354
3 354 309 358
3 308 356 310
3 311 359 360
3 310 359 311
3 310 357 359
3 310 356 357
3 359 361 360
3 309 312 358
3 358 312 362
3 311 360 313
3 360 315 313
3 360 361 315
3 361 363 315
3 312 316 362
3 362 316 364
3 315 363 317
3 363 365 317
3 316 318 364
3 364 318 366
3 317 365 319
3 365 367 319
3 318 368 366
3 320 368 318
3 368 320 321
3 369 368 321
3 370 322 319
3 370 319 371
3 371 319 367
3 322 370 323
3 372 324 373
3 372 369 324
3 369 321 324
3 372 373 374
3 375 370 371
3 376 375 371
3 323 375 325
3 370 375 323
3 324 326 373
3 373 377 374
3 373 326 377
3 326 327 377
3 328 378 379
3 328 379 327
3 327 379 377
3 378 380 381
3 379 378 381
3 380 382 383
3 381 380 383
3 382 384 385
3 383 382 385
3 376 385 384
3 376 384 375
3 375 384 386
3 325 386 329
3 375 386 325
3 328 330 378
3 331 378 330
3 380 378 331
3 332 380 331
3 382 380 332
3 333 382 332
3 384 382 333
3 334 384 333
3 386 384 334
3 329 386 334
3 387 388 389
3 387 390 391
3 389 390 387
3 390 392 391
3 337 388 387
3 337 336 388
3 336 393 388
3 338 337 387
3 391 338 387
3 340 394 395
3 338 394 340
3 338 392 394
3 338 391 392
3 394 396 395
3 336 342 393
3 393 342 397
3 340 395 343
3 395 345 343
3 395 396 345
3 396 398 345
3 347 399 400
3 346 399 347
3 397 342 347
3 400 397 347
3 401 402 348
3 401 348 398
3 398 348 345
3 401 403 402
3 346 349 399
3 399 349 404
3 402 405 350
3 348 402 350
3 406 402 403
3 405 402 406
3 349 351 404
3 404 351 407
3 350 405 352
3 353 408 409
3 352 408 353
3 352 406 408
3 352 405 406
3 408 410 409
3 351 354 407
3 407 354 411
3 353 409 355
3 357 412 413
3 355 412 357
3 355 410 412
3 355 409 410
3 412 414 413
3 354 358 411
3 411 358 415
3 357 413 359
3 413 361 359
3 413 414 361
3 414 416 361
3 358 362 415
3 415 362 417
3 361 416 363
3 416 418 363
3 362 364 417
3 417 364 419
3 420 421 365
3 420 365 418
3 418 365 363
3 420 422 421
3 423 366 424
3 423 419 366
3 419 364 366
3 423 424 425
3 421 426 367
3 365 421 367
3 427 421 422
3 426 421 427
3 366 368 424
3 369 428 429
3 368 369 429
3 368 429 425
3 368 425 424
3 429 428 430
3 426 431 371
3 367 426 371
3 432 426 427
3 431 426 432
3 369 372 428
3 374 433 434
3 372 374 434
3 372 434 430
3 372 430 428
3 434 433 435
3 431 436 437
3 431 437 371
3 371 437 376
3 432 436 431
3 374 377 433
3 433 438 435
3 433 377 438
3 377 379 438
3 381 439 379
3 379 439 438
3 383 440 381
3 381 440 439
3 385 441 383
3 383 441 440
3 437 385 376
3 441 385 437
3 442 443 444
3 442 445 446
3 444 445 442
3 446 447 448
3 445 447 446
3 447 449 448
3 389 443 442
3 389 388 443
3 388 450 443
3 390 389 442
3 446 390 442
3 392 390 446
3 392 446 451
3 451 446 448
3 452 448 449
3 451 448 452
3 388 393 450
3 450 393 453
3 392 451 394
3 396 454 455
3 394 454 396
3 394 452 454
3 394 451 452
3 454 456 455
3 393 397 453
3 453 397 457
3 455 458 398
3 396 455 398
3 459 455 456
3 458 455 459
3 400 460 461
3 399 460 400
3 457 397 400
3 461 457 400
3 398 458 401
3 403 462 463
3 401 462 403
3 401 459 462
3 401 458 459
3 462 464 463
3 399 404 460
3 460 404 465
3 463 466 406
3 403 463 406
3 467 463 464
3 466 463 467
3 404 407 465
3 465 407 468
3 406 466 408
3 410 469 470
3 408 469 410
3 408 467 469
3 408 466 467
3 469 471 470
3 407 411 468
3 468 411 472
3 410 470 412
3 470 414 412
3 470 471 414
3 471 473 414
3 411 415 472
3 472 415 474
3 475 476 416
3 475 416 473
3 473 416 414
3 475 477 476
3 478 417 479
3 478 474 417
3 474 415 417
3 478 479 480
3 476 481 418
3 416 476 418
3 482 476 477
3 481 476 482
3 479 419 483
3 417 419 479
3 484 480 479
3 483 484 479
3 418 481 420
3 481 422 420
3 481 482 422
3 482 485 422
3 419 423 483
3 483 423 425
3 483 425 484
3 484 425 486
3 422 485 427
3 485 487 427
3 425 488 486
3 429 488 425
3 488 429 430
3 489 488 430
3 427 487 432
3 487 490 432
3 430 491 489
3 434 491 430
3 435 492 493
3 435 493 434
3 434 493 491
3 493 492 494
3 436 495 496
3 437 436 496
3 490 436 432
3 495 436 490
3 435 438 492
3 492 497 494
3 492 438 497
3 438 439 497
3 440 498 439
3 439 498 497
3 441 499 440
3 440 499 498
3 496 441 437
3 499 441 496
3 444 500 501
3 443 500 444
3 445 444 502
3 444 501 502
3 447 445 503
3 445 502 503
3 503 449 447
3 504 449 503
3 443 450 500
3 500 450 505
3 506 507 452
3 506 452 504
3 504 452 449
3 506 508 507
3 450 453 505
3 505 453 509
3 452 507 454
3 456 510 511
3 454 510 456
3 454 508 510
3 454 507 508
3 510 512 511
3 453 457 509
3 509 457 513
3 511 514 459
3 456 511 459
3 515 511 512
3 514 511 515
3 461 460 516
3 461 516 517
3 461 517 457
3 457 517 513
3 459 514 462
3 464 518 519
3 462 518 464
3 462 515 518
3 462 514 515
3 518 520 519
3 516 521 522
3 516 460 521
3 460 465 521
3 517 516 522
3 519 523 467
3 464 519 467
3 524 519 520
3 523 519 524
3 465 468 521
3 521 468 525
3 467 523 469
3 471 526 527
3 469 526 471
3 469 524 526
3 469 523 524
3 526 528 527
3 468 472 525
3 525 472 529
3 527 530 473
3 471 527 473
3 531 527 528
3 530 527 531
3 532 474 533
3 532 529 474
3 529 472 474
3 532 533 534
3 473 530 475
3 530 477 475
3 530 531 477
3 531 535 477
3 474 478 533
3 533 478 480
3 533 480 534
3 534 480 536
3 477 535 482
3 535 537 482
3 538 484 539
3 538 536 484
3 536 480 484
3 538 539 540
3 482 537 485
3 537 541 485
3 539 486 542
3 484 486 539
3 543 540 539
3 542 543 539
3 485 541 487
3 541 544 487
3 486 488 542
3 489 545 546
3 488 489 546
3 488 546 543
3 488 543 542
3 545 547 548
3 546 545 548
3 548 547 549
3 550 551 552
3 550 544 551
3 550 490 544
3 490 487 544
3 489 491 545
3 493 545 491
3 547 545 493
3 494 553 554
3 493 494 554
3 493 554 549
3 493 549 547
3 553 555 556
3 554 553 556
3 555 557 558
3 556 555 558
3 552 558 557
3 550 552 557
3 550 557 496
3 550 496 495
3 490 550 495
3 494 497 553
3 498 553 497
3 555 553 498
3 499 555 498
3 557 555 499
3 496 557 499
3 559 560 561
3 559 562 563
3 561 562 559
3 563 564 565
3 562 564 563
3 565 566 567
3 564 566 565
3 566 568 567
3 501 560 559
3 501 500 560
3 500 569 560
3 502 501 559
3 563 502 559
3 503 502 563
3 565 503 563
3 504 503 565
3 504 565 570
3 570 565 567
3 571 567 568
3 570 567 571
3 500 505 569
3 569 505 572
3 504 570 506
3 508 573 574
3 506 573 508
3 506 571 573
3 506 570 571
3 573 575 574
3 505 509 572
3 572 509 576
3 508 574 510
3 574 512 510
3 574 575 512
3 575 577 512
3 509 513 576
3 576 513 578
3 579 580 515
3 579 515 577
3 577 515 512
3 579 581 580
3 513 517 578
3 578 517 582
3 515 580 518
3 580 520 518
3 580 581 520
3 581 583 520
3 522 521 584
3 522 584 585
3 522 585 517
3 517 585 582
3 520 583 524
3 583 586 524
3 584 525 587
3 521 525 584
3 588 585 584
3 587 588 584
3 524 586 589
3 526 524 589
3 589 528 526
3 590 528 589
3 587 529 591
3 525 529 587
3 592 588 587
3 591 592 587
3 528 590 531
3 590 593 531
3 529 532 591
3 591 532 534
3 591 534 592
3 592 534 594
3 531 593 535
3 593 595 535
3 596 536 597
3 596 594 536
3 594 534 536
3 597 598 599
3 596 597 599
3 599 598 600
3 535 595 537
3 595 601 537
3 536 538 597
3 540 597 538
3 540 602 597
3 602 598 597
3 603 600 598
3 602 603 598
3 604 605 606
3 604 601 605
3 604 541 601
3 541 537 601
3 602 543 607
3 540 543 602
3 608 603 602
3 608 602 609
3 609 602 607
3 608 609 610
3 611 604 606
3 612 611 606
3 541 611 544
3 604 611 541
3 543 546 607
3 548 607 546
3 609 607 548
3 609 548 549
3 609 549 610
3 610 549 613
3 551 611 612
3 551 612 552
3 552 612 614
3 544 611 551
3 549 615 613
3 554 615 549
3 556 616 554
3 554 616 615
3 558 617 556
3 556 617 616
3 614 558 552
3 617 558 614
3 618 619 620
3 618 621 622
3 620 621 618
3 622 623 624
3 621 623 622
3 623 625 624
3 626 619 618
3 627 619 626
3 622 628 618
3 628 626 618
3 624 629 622
3 629 628 622
3 630 624 625
3 630 631 624
3 631 629 624
3 630 632 631
3 561 633 634
3 560 633 561
3 627 626 562
3 627 562 634
3 634 562 561
3 564 562 626
3 628 564 626
3 566 564 628
3 629 566 628
3 568 566 629
3 568 629 635
3 635 629 631
3 636 631 632
3 636 637 631
3 637 635 631
3 636 638 637
3 560 569 633
3 633 569 639
3 635 640 571
3 568 635 571
3 637 641 635
3 641 640 635
3 642 637 638
3 641 637 642
3 569 572 639
3 639 572 643
3 571 640 573
3 575 573 640
3 575 640 644
3 644 640 641
3 645 641 642
3 644 641 645
3 572 576 643
3 643 576 646
3 644 647 577
3 575 644 577
3 648 644 645
3 647 644 648
3 576 578 646
3 646 578 649
3 577 647 579
3 581 650 651
3 579 650 581
3 579 648 650
3 579 647 648
3 650 652 651
3 578 582 649
3 649 582 653
3 651 654 583
3 581 651 583
3 655 651 652
3 654 651 655
3 582 585 653
3 653 585 656
3 654 657 586
3 583 654 586
3 658 654 655
3 657 654 658
3 585 588 656
3 656 588 659
3 586 657 589
3 657 590 589
3 657 658 590
3 658 660 590
3 661 592 662
3 661 659 592
3 659 588 592
3 661 662 663
3 590 660 593
3 660 664 593
3 662 594 665
3 592 594 662
3 666 663 662
3 665 666 662
3 593 664 595
3 664 667 595
3 594 596 665
3 665 668 666
3 665 596 668
3 596 599 668
3 668 599 600
3 669 668 600
3 595 667 601
3 667 670 601
3 671 603 672
3 671 669 603
3 669 600 603
3 671 672 673
3 605 674 675
3 606 605 675
3 670 605 601
3 674 605 670
3 603 608 672
3 610 676 677
3 608 610 677
3 608 677 673
3 608 673 672
3 676 678 679
3 677 676 679
3 678 680 681
3 679 678 681
3 680 675 681
3 680 612 675
3 612 606 675
3 676 613 682
3 610 613 676
3 678 676 683
3 683 676 682
3 680 678 684
3 684 678 683
3 612 684 614
3 680 684 612
3 613 615 682
3 616 682 615
3 683 682 616
3 617 683 616
3 684 683 617
3 614 684 617
3 685 686 687
3 685 688 689
3 687 688 685
3 689 690 691
3 688 690 689
3 690 692 691
3 620 693 694
3 619 693 620
3 686 685 621
3 686 621 694
3 694 621 620
3 623 621 685
3 689 623 685
3 625 623 689
3 625 689 695
3 695 689 691
3 696 691 692
3 696 697 691
3 697 695 691
3 696 698 697
3 619 627 693
3 693 627 699
3 625 695 630
3 632 630 695
3 632 695 700
3 700 695 697
3 701 697 698
3 700 697 701
3 634 633 702
3 634 702 703
3 634 703 627
3 627 703 699
3 632 700 636
3 700 638 636
3 700 701 638
3 701 704 638
3 702 639 705
3 633 639 702
3 706 703 702
3 705 706 702
3 638 704 642
3 704 707 642
3 705 643 708
3 639 643 705
3 709 706 705
3 708 709 705
3 642 707 645
3 707 710 645
3 708 711 712
3 708 643 711
3 643 646 711
3 709 708 712
3 645 710 648
3 710 713 648
3 646 649 711
3 711 649 714
3 648 713 715
3 650 648 715
3 715 652 650
3 716 652 715
3 717 653 718
3 717 714 653
3 714 649 653
3 717 718 719
3 652 716 655
3 716 720 655
3 718 656 721
3 653 656 718
3 722 719 718
3 721 722 718
3 655 720 658
3 720 723 658
3 721 659 724
3 656 659 721
3 725 722 721
3 724 725 721
3 658 723 660
3 723 726 660
3 659 661 724
3 663 727 728
3 661 663 728
3 661 728 725
3 661 725 724
3 728 727 729
3 660 726 664
3 726 730 664
3 727 666 731
3 663 666 727
3 732 729 727
3 731 732 727
3 664 730 667
3 730 733 667
3 666 668 731
3 669 734 735
3 668 669 735
3 668 735 732
3 668 732 731
3 734 736 737
3 735 734 737
3 736 738 739
3 737 736 739
3 738 740 741
3 739 738 741
3 740 742 743
3 741 740 743
3 742 733 743
3 742 670 733
3 670 667 733
3 669 671 734
3 673 734 671
3 673 744 734
3 744 736 734
3 738 736 745
3 745 736 744
3 740 738 746
3 746 738 745
3 674 746 675
3 674 742 746
3 742 740 746
3 670 742 674
3 673 677 744
3 679 744 677
3 745 744 679
3 681 745 679
3 746 745 681
3 675 746 681
3 747 748 749
3 747 750 751
3 749 750 747
3 751 752 753
3 750 752 751
3 752 754 753
3 755 748 747
3 756 748 755
3 751 757 747
3 757 755 747
3 753 758 751
3 758 757 751
3 759 753 754
3 758 753 759
3 760 756 755
3 761 756 760
3 757 762 755
3 762 760 755
3 758 763 757
3 763 762 757
3 764 758 759
3 763 758 764
3 765 766 767
3 761 765 767
3 761 760 765
3 760 768 765
3 762 769 760
3 769 768 760
3 770 763 771
3 770 769 763
3 769 762 763
3 764 771 763
3 772 766 765
3 773 766 772
3 768 774 765
3 774 772 765
3 769 775 768
3 775 774 768
3 776 769 770
3 775 769 776
3 687 777 778
3 686 777 687
3 773 772 688
3 773 688 778
3 778 688 687
3 690 688 772
3 774 690 772
3 692 690 774
3 692 774 779
3 779 774 775
3 780 775 776
3 779 775 780
3 694 781 782
3 693 781 694
3 777 686 694
3 782 777 694
3 692 779 696
3 779 698 696
3 779 780 698
3 780 783 698
3 693 699 781
3 781 699 784
3 698 783 701
3 783 785 701
3 699 703 784
3 784 703 786
3 701 785 704
3 785 787 704
3 703 706 786
3 786 706 788
3 704 787 707
3 787 789 707
3 706 709 788
3 788 709 790
3 707 789 710
3 789 791 710
3 712 711 792
3 712 792 793
3 712 793 709
3 709 793 790
3 710 791 713
3 791 794 713
3 792 714 795
3 711 714 792
3 796 793 792
3 795 796 792
3 713 794 797
3 715 713 797
3 797 716 715
3 798 716 797
3 714 717 795
3 719 799 800
3 717 719 800
3 717 800 796
3 717 796 795
3 800 799 801
3 716 798 720
3 798 802 720
3 799 722 803
3 719 722 799
3 804 801 799
3 803 804 799
3 720 802 723
3 802 805 723
3 803 725 806
3 722 725 803
3 807 804 803
3 806 807 803
3 808 809 810
3 808 805 809
3 808 726 805
3 726 723 805
3 725 728 806
3 729 811 812
3 728 729 812
3 728 812 807
3 728 807 806
3 812 811 813
3 814 808 810
3 815 814 810
3 726 814 730
3 808 814 726
3 811 732 816
3 729 732 811
3 817 813 811
3 817 811 818
3 818 811 816
3 818 819 820
3 817 818 820
3 819 821 822
3 820 819 822
3 815 822 821
3 815 821 814
3 814 821 823
3 730 823 733
3 814 823 730
3 732 735 816
3 737 816 735
3 818 816 737
3 739 818 737
3 819 818 739
3 741 819 739
3 821 819 741
3 743 821 741
3 823 821 743
3 733 823 743
3 749 824 825
3 748 824 749
3 750 749 826
3 749 825 826
3 752 750 827
3 750 826 827
3 827 754 752
3 828 754 827
3 748 756 824
3 824 756 829
3 754 828 759
3 828 830 759
3 756 761 829
3 829 761 831
3 759 830 764
3 830 832 764
3 767 833 834
3 766 833 767
3 831 761 767
3 834 831 767
3 771 835 836
3 770 771 836
3 832 771 764
3 835 771 832
3 766 773 833
3 833 773 837
3 770 836 776
3 836 838 776
3 778 839 840
3 777 839 778
3 837 773 778
3 840 837 778
3 776 838 780
3 838 841 780
3 782 781 842
3 782 842 843
3 782 843 777
3 777 843 839
3 780 841 783
3 841 844 783
3 842 784 845
3 781 784 842
3 846 843 842
3 845 846 842
3 783 844 785
3 844 847 785
3 845 786 848
3 784 786 845
3 849 846 845
3 848 849 845
3 785 847 787
3 847 850 787
3 848 788 851
3 786 788 848
3 852 849 848
3 851 852 848
3 787 850 789
3 850 853 789
3 851 790 854
3 788 790 851
3 855 852 851
3 854 855 851
3 789 853 791
3 853 856 791
3 854 793 857
3 790 793 854
3 858 855 854
3 858 854 859
3 859 854 857
3 858 859 860
3 791 856 794
3 856 861 794
3 857 796 862
3 793 796 857
3 859 857 863
3 863 857 862
3 864 860 859
3 863 864 859
3 865 797 794
3 865 794 866
3 866 794 861
3 797 865 798
3 796 800 862
3 801 862 800
3 801 867 862
3 867 863 862
3 868 864 863
3 867 868 863
3 869 865 866
3 870 869 866
3 798 869 802
3 865 869 798
3 867 804 871
3 801 804 867
3 872 868 867
3 871 872 867
3 873 869 870
3 874 873 870
3 802 873 805
3 869 873 802
3 871 807 875
3 804 807 871
3 876 872 871
3 876 871 877
3 877 871 875
3 877 878 879
3 876 877 879
3 878 880 881
3 879 878 881
3 874 881 880
3 873 874 880
3 873 880 810
3 873 810 809
3 805 873 809
3 807 812 875
3 813 875 812
3 813 882 875
3 882 877 875
3 878 877 883
3 883 877 882
3 880 878 884
3 884 878 883
3 810 884 815
3 880 884 810
3 813 817 882
3 820 882 817
3 883 882 820
3 822 883 820
3 884 883 822
3 815 884 822
3 825 885 886
3 824 885 825
3 826 825 887
3 825 886 887
3 827 826 888
3 826 887 888
3 888 828 827
3 889 828 888
3 824 829 885
3 885 829 890
3 828 889 830
3 889 891 830
3 829 831 890
3 890 831 892
3 830 891 832
3 891 893 832
3 834 833 894
3 895 892 831
3 895 831 894
3 895 894 896
3 894 831 834
3 896 897 898
3 895 896 898
3 897 836 835
3 897 835 898
3 898 835 899
3 893 835 832
3 899 835 893
3 894 900 901
3 894 833 900
3 833 837 900
3 896 894 901
3 902 896 901
3 897 896 902
3 903 897 902
3 903 836 897
3 903 904 836
3 904 838 836
3 840 839 905
3 840 905 906
3 840 906 837
3 837 906 900
3 838 904 841
3 904 907 841
3 905 843 908
3 839 843 905
3 909 906 905
3 908 909 905
3 841 907 844
3 907 910 844
3 908 846 911
3 843 846 908
3 912 909 908
3 911 912 908
3 844 910 847
3 910 913 847
3 911 849 914
3 846 849 911
3 915 912 911
3 914 915 911
3 847 913 850
3 913 916 850
3 914 852 917
3 849 852 914
3 918 915 914
3 917 918 914
3 850 916 853
3 916 919 853
3 917 855 920
3 852 855 917
3 921 918 917
3 920 921 917
3 853 919 856
3 919 922 856
3 855 858 920
3 920 858 860
3 920 860 921
3 921 860 923
3 856 922 861
3 922 924 861
3 925 864 926
3 925 923 864
3 923 860 864
3 926 927 928
3 925 926 928
3 927 929 930
3 928 927 930
3 929 924 930
3 929 866 924
3 866 861 924
3 926 868 931
3 864 868 926
3 927 926 932
3 932 926 931
3 929 927 933
3 933 927 932
3 866 933 870
3 929 933 866
3 931 872 934
3 868 872 931
3 932 931 935
3 935 931 934
3 933 932 936
3 936 932 935
3 870 936 874
3 933 936 870
3 872 876 934
3 879 934 876
3 935 934 879
3 881 935 879
3 936 935 881
3 874 936 881
3 886 885 937
3 886 938 887
3 937 938 886
3 887 939 888
3 938 939 887
3 888 939 889
3 937 890 940
3 885 890 937
3 938 937 941
3 941 937 940
3 939 938 942
3 942 938 941
3 889 942 891
3 939 942 889
3 940 892 943
3 890 892 940
3 941 940 944
3 944 940 943
3 942 941 945
3 945 941 944
3 891 945 893
3 942 945 891
3 892 895 943
3 898 943 895
3 944 943 898
3 899 944 898
3 945 944 899
3 893 945 899
3 901 900 946
3 901 947 902
3 946 947 901
3 902 948 903
3 947 948 902
3 903 948 904
3 946 906 949
3 900 906 946
3 947 946 950
3 950 946 949
3 948 947 951
3 951 947 950
3 904 951 907
3 948 951 904
3 949 909 952
3 906 909 949
3 950 949 953
3 953 949 952
3 951 950 954
3 954 950 953
3 907 954 910
3 951 954 907
3 952 912 955
3 909 912 952
3 953 952 956
3 956 952 955
3 954 953 957
3 957 953 956
3 910 957 913
3 954 957 910
3 955 915 958
3 912 915 955
3 956 955 959
3 959 955 958
3 957 956 960
3 960 956 959
3 913 960 916
3 957 960 913
3 958 918 961
3 915 918 958
3 959 958 962
3 962 958 961
3 960 959 963
3 963 959 962
3 916 963 919
3 960 963 916
3 961 921 964
3 918 921 961
3 962 961 965
3 965 961 964
3 963 962 966
3 966 962 965
3 919 966 922
3 963 966 919
3 964 923 967
3 921 923 964
3 965 964 968
3 968 964 967
3 966 965 969
3 969 965 968
3 922 969 924
3 966 969 922
3 923 925 967
3 928 967 925
3 968 967 928
3 930 968 928
3 969 968 930
3 924 969 930
