# vtk DataFile Version 3.0
this file was written using fslvtkio
ASCII
DATASET POLYDATA
POINTS 642 float
111.327 117.299 109.989
96.3523 111.659 107.781
92.8394 97.72 102.163
108.998 102.814 106.17
106.45 107.047 116.118
109.515 110.296 99.9761
99.1056 106.972 99.0683
95.7217 104.054 115.017
101.504 119.024 115.918
100.824 95.5643 107.897
101.718 95.8241 96.704
104.585 121.932 103.966
98.0152 112.073 117.34
104.31 113.525 117.518
100.609 105.037 117.203
97.4635 98.4132 112.832
103.964 100.302 113.066
102.645 114.713 102.074
104.453 108.864 99.2638
108.771 118.676 101.027
99.355 100.436 96.8916
105.414 102.361 99.3933
108.757 104.486 111.56
109.297 113.174 114.432
111.682 110.239 108.09
110.449 106.01 102.54
111.65 116.482 104.13
95.2512 108.508 112.123
93.3574 99.6811 109.374
94.0055 104.161 105.06
97.6608 110.103 103.134
95.4209 101.25 99.4463
109.619 123.2 106.568
107.481 120.218 113.712
103.078 122.482 110.415
100.075 117.684 106.746
97.5021 116.489 112.727
106.485 97.2973 101.222
99.5042 93.2889 101.174
106.004 96.8184 107.166
94.664 95.3763 95.8726
95.3931 94.855 104.59
101.073 113.088 118.161
102.466 109.264 117.922
99.209 108.469 118.079
103.611 105.95 116.888
105.548 110.442 117.35
103.104 116.544 117.09
99.4502 115.717 117.063
96.8296 108.112 116.59
97.8457 104.004 116.785
99.0735 101.311 115.636
102.503 102.65 115.626
100.773 99.1177 113.378
105.436 103.492 114.68
96.0305 100.594 114.276
99.2758 97.0849 110.443
102.665 97.7957 110.696
103.717 112.024 100.457
106.842 114.108 100.238
105.466 116.993 100.995
109.315 114.629 100.211
106.985 109.667 99.6802
101.801 107.932 98.9962
101.021 110.651 101.089
103.624 118.458 102.848
106.653 120.861 101.845
102.447 101.19 97.6803
105.05 105.753 98.8775
102.006 104.627 97.8647
107.695 106.071 99.7221
104.066 98.9091 97.6075
100.428 98.0336 95.7059
99.3436 103.873 97.8279
109.508 108.819 113.241
111.075 111.519 111.495
110.759 107.275 110.248
111.615 113.764 108.992
110.614 115.164 112.435
108.135 110.154 115.69
107.897 105.491 113.988
109.112 103.516 108.863
111.217 106.447 107.294
111.386 108.382 105.226
111.724 113.28 106.045
111.373 111.294 103.342
111.705 117.177 106.923
110.113 104.159 104.386
110.387 108.1 100.972
111.037 113.509 101.756
94.2047 104.054 110.916
93.3978 102.14 107.438
94.7898 106.118 108.75
93.3336 100.903 103.797
92.959 98.6183 105.945
94.196 101.839 112.425
95.2594 106.649 113.939
95.6626 110.03 109.879
95.4889 107.623 106.485
95.7225 106.796 103.929
94.2251 102.624 102.012
95.8352 105.66 101.006
93.568 99.1835 100.029
96.8379 110.858 105.24
98.4454 108.459 101.319
96.8738 104.299 98.7628
109.01 121.98 110.411
105.362 122.251 112.408
106.625 123.554 107.91
101.795 121.402 113.736
104.618 119.694 115.301
110.116 118.931 112.296
111.051 120.46 108.596
107.59 123.609 103.891
103.821 122.656 106.856
101.36 120.813 108.536
99.8703 120.173 112.006
98.6838 117.452 109.74
98.7816 118.081 114.895
102.277 119.716 105.335
97.9045 114.739 107.194
96.8896 114.09 110.305
103.74 94.1047 100.945
103.165 94.4062 103.978
106.694 96.2882 103.906
103.559 95.9058 107.742
100.358 94.2135 104.555
101.006 93.839 98.5774
104.557 96.3763 98.6735
107.767 100.159 103.936
107.673 99.3544 106.681
94.2178 94.0759 99.7723
97.3094 93.6772 102.952
96.9941 93.5549 98.2666
97.9995 95.0957 106.72
93.5695 95.8592 103.395
92.9552 96.2996 98.4741
98.1662 95.0961 95.9275
107.196 113.537 116.598
106.173 117.185 116.158
108.895 117.074 114.538
111.154 120.238 105.425
109.606 122.023 103.054
110.821 117.341 101.84
105.274 98.452 110.126
106.563 101.933 112.325
107.469 100.571 109.295
108.26 101.896 102.339
108.578 104.169 100.625
106.185 99.734 100.012
97.1795 114.667 115.355
96.0197 110.485 115.051
96.0546 112.614 112.44
98.596 114.093 104.905
99.8261 112.545 102.438
101.188 116.462 104.082
94.3879 97.007 107.127
94.876 98.7257 111.64
96.686 96.5881 109.035
97.1341 97.6326 95.1429
96.9919 100.536 97.7656
93.8519 98.351 96.7197
101.695 111.15 118.215
100.837 109.055 118.212
100.144 110.783 118.385
100.008 106.938 117.881
101.389 107.302 117.744
103.145 111.412 117.902
102.629 112.998 117.949
99.5136 112.331 118.044
98.7505 110.393 117.988
102.909 107.524 117.56
103.951 109.918 117.719
104.476 108.162 117.356
104.739 111.889 117.573
102.021 105.628 117.171
105.036 106.607 116.68
105.858 108.585 116.943
102.17 114.709 117.845
100.119 114.324 117.982
101.254 116.038 117.425
98.7122 113.89 117.419
103.703 114.968 117.362
102.175 117.767 116.792
100.488 117.336 116.767
97.948 108.436 117.539
98.5675 106.32 117.689
97.2929 106.111 117.015
99.2271 104.804 117.239
97.4126 110.16 117.225
96.2772 106.042 116.059
96.7239 104.174 116.119
100.8 101.921 115.721
101.599 100.765 114.672
99.9772 100.174 114.591
102.343 99.8614 113.526
103.059 101.299 114.471
101.52 103.721 116.521
99.9108 103.119 116.467
98.3359 99.7052 114.479
99.1119 98.8178 113.426
103.972 102.909 115.161
103.064 104.333 116.43
104.765 104.79 115.977
104.544 101.76 113.989
105.993 105.303 115.578
98.5786 102.69 116.449
97.5173 100.799 115.207
96.8904 102.335 115.814
96.8081 99.4067 113.811
95.8587 102.305 114.831
99.9212 98.1079 112.093
101.815 98.5847 112.178
100.976 97.53 110.725
103.229 99.0279 112.095
98.4053 97.7635 111.783
100.236 96.3351 109.373
101.752 96.6071 109.54
105.237 113.12 100.347
106.203 115.545 100.565
104.682 114.591 100.754
107.073 117.618 100.774
107.735 116.424 100.445
105.655 111.75 99.898
104.348 110.793 99.8519
103.369 113.622 101.099
104.05 115.688 101.408
108.068 114.584 100.245
106.854 111.88 99.9501
108.165 112.222 99.9081
105.774 109.848 99.5902
109.112 116.832 100.565
109.306 112.322 99.9817
108.213 110.093 99.7549
102.984 109.984 99.8834
102.435 111.559 100.859
101.491 109.387 100.003
101.908 112.841 101.546
103.216 108.497 99.1147
100.475 107.517 98.9954
100.187 108.777 100.147
104.418 117.679 101.742
106.098 118.873 101.209
104.969 119.708 101.921
107.593 119.557 101.218
103.222 116.606 102.341
104.123 120.232 103.154
105.336 121.415 102.58
103.764 103.51 98.2895
103.562 105.189 98.328
102.256 102.994 97.7841
103.244 106.669 98.4155
104.742 107.34 98.9297
105.031 103.851 98.895
103.964 102.055 98.4943
101.035 101.038 97.1856
100.8 102.503 97.4978
105.96 107.921 99.3626
106.223 105.78 99.3186
107.429 107.903 99.6415
106.478 104.222 99.4574
108.694 108.235 99.8657
103.183 100.151 97.6734
101.516 99.7254 96.5568
102.458 98.6357 96.34
99.9395 99.4086 96.1132
104.472 100.656 98.6088
103.085 97.4415 96.8881
101.329 97.0175 96.1028
100.768 104.312 97.7909
102.09 106.568 98.3507
100.541 106.173 98.1178
99.4823 102.215 97.5217
99.139 105.46 98.1558
110.387 110.153 112.423
111.043 109.422 110.937
110.238 108.054 111.785
111.4 108.845 109.486
111.474 110.515 109.937
110.239 112.022 112.971
109.595 110.951 113.677
109.407 106.771 112.405
109.811 106.133 111.131
111.524 112.412 110.301
110.859 113.279 112.151
111.345 114.206 110.827
109.985 114.029 113.508
111.675 111.876 108.745
111.481 115.428 109.55
111.177 115.968 111.164
108.884 109.652 114.432
108.808 107.19 113.684
108.154 107.872 114.99
108.45 105.113 112.781
108.788 111.72 114.988
107.272 108.573 116.051
107.287 106.242 115.15
110.041 105.414 109.705
111.191 106.916 108.855
110.21 104.989 108.164
111.534 108.399 107.907
109.081 104.146 110.314
109.16 103.282 107.46
110.357 104.685 106.745
111.661 110.81 105.741
111.66 112.21 104.711
111.405 109.797 104.322
111.656 113.692 103.853
111.719 114.526 104.925
111.71 111.594 106.961
111.625 109.537 106.612
110.979 107.527 103.803
111.045 108.852 103.114
111.614 115.138 106.322
111.755 113.254 107.547
111.598 115.34 107.925
111.752 116.685 105.445
111.539 117.028 108.491
111.425 107.613 106.419
110.988 106.389 104.724
110.913 105.459 105.759
110.434 105.169 103.478
109.718 103.655 105.395
110.914 109.693 102.158
111.274 112.564 102.659
110.777 110.94 101.354
111.477 115.032 103.037
110.523 107.338 101.918
110.133 109.313 100.392
110.394 111.882 100.658
93.7566 103.074 109.193
93.9975 104.125 108.085
94.3969 105.069 109.789
94.2507 104.954 107.04
93.65 103.359 106.45
93.2281 101.198 108.603
93.6348 101.99 110.05
94.7246 106.119 111.311
94.8846 107.005 110.417
93.1734 101.669 105.755
92.9759 100.422 106.869
92.9898 99.9359 105.027
93.099 99.3588 107.771
93.4669 102.581 104.64
93.0129 99.3786 103.148
92.8658 98.3403 104.103
94.0917 102.762 111.559
94.6262 105.293 112.327
94.7355 104.258 113.211
95.0927 107.388 112.883
93.6374 100.723 110.826
94.9132 103.097 113.822
95.5076 105.462 114.62
95.2751 107.998 109.492
95.0354 106.69 107.57
95.4944 108.713 108.204
94.7013 105.799 105.984
95.3929 109.121 111.004
95.8955 110.557 108.635
95.8371 109.5 107.109
94.615 104.772 102.993
94.8199 104.222 101.532
95.6817 106.145 102.526
95.3504 103.723 100.229
94.819 102.238 100.693
93.9458 103.485 103.455
94.7307 105.404 104.391
96.599 108.153 103.275
96.6313 107.439 102.152
94.2494 100.909 101.157
93.6859 101.826 102.984
93.5437 99.9982 101.981
94.4755 100.254 99.7026
93.074 98.5327 101.204
95.4396 106.939 105.233
96.4872 108.549 104.516
96.1336 109.219 105.796
97.1658 110.302 104.087
96.4965 111.104 106.512
97.1184 107.028 101.14
96.2557 105.084 99.8163
97.4822 106.579 99.7532
96.0341 102.951 99.2823
97.8027 109.027 102.162
98.8608 107.768 100.197
97.8459 105.713 98.6519
107.242 122.471 111.086
106.257 123.057 110.255
107.78 123.067 109.373
105.058 123.12 109.353
104.477 122.675 111.251
106.573 121.512 112.867
108.119 121.34 112.021
109.271 122.779 108.623
108.236 123.671 107.325
103.663 122.037 113.122
105.004 121.183 114.007
103.228 120.944 114.791
106.135 120.153 114.504
102.543 122.137 112.11
101.506 120.313 115.004
103.124 119.387 115.838
109.516 120.563 111.549
110.314 121.484 109.72
110.842 119.588 110.575
110.366 122.012 107.921
108.772 119.937 112.902
110.925 117.923 111.332
111.317 118.843 109.311
107.089 123.865 105.94
105.232 123.236 107.372
105.6 123.392 105.295
103.688 122.749 108.703
108.624 123.801 105.27
105.827 123.075 103.742
103.948 122.264 105.461
100.594 120.609 110.278
99.3153 119.075 110.754
99.9787 119.322 109.315
98.1433 117.32 111.171
98.6515 118.419 112.181
101.3 121.578 111.306
102.048 121.874 109.518
100.513 119.167 107.886
99.4211 117.824 108.366
99.224 119.231 113.345
100.849 121.081 112.848
100.242 119.903 114.452
98.0885 117.587 113.655
100.027 118.604 115.628
102.529 121.973 107.865
101.649 120.205 107.07
102.849 121.304 106.147
101.094 118.844 106.222
103.469 120.734 104.555
98.3764 116.114 108.463
97.702 115.87 110.047
97.3224 114.361 108.671
97.1919 115.525 111.5
99.0315 116.41 107.17
97.0264 113.176 107.453
96.5587 112.845 109.035
103.63 94.0623 102.527
105.083 95.0997 103.873
105.482 94.9023 102.367
106.044 96.1678 105.388
104.655 95.333 105.336
101.641 93.6524 102.609
101.791 93.6215 101.226
105.403 95.1923 100.908
106.588 96.4548 102.357
103.421 95.0212 105.951
101.8 94.3079 104.251
101.956 94.8768 106.355
100.032 93.5555 102.832
104.792 96.0773 107.168
102.202 95.7713 107.995
100.434 94.6978 106.32
102.522 93.8663 99.7859
104.385 94.9163 99.5133
102.906 94.6875 98.1572
105.564 96.494 100.006
100.38 93.5152 99.9204
101.368 94.5966 97.2308
103.381 96.2954 97.5644
107.437 98.0275 103.799
107.376 97.5514 105.316
107.812 99.7509 105.331
107.065 97.6644 106.742
107.231 98.4925 102.606
108.312 101.559 105.119
108.201 101.261 106.607
95.8008 93.5318 101.157
97.0013 93.2237 100.508
95.4669 93.6082 98.915
98.2473 93.2992 99.7053
98.3216 93.3506 102.046
96.0163 94.1273 103.283
94.7786 94.1689 101.863
94.1352 94.3126 97.6678
95.6441 94.1083 96.9447
99.0892 93.8543 103.721
97.4165 94.2633 104.568
99.0281 94.4704 105.759
96.6467 94.8677 105.651
99.435 95.3433 107.492
93.7517 94.8099 101.472
93.2951 94.8919 98.9747
93.006 95.8043 100.862
93.4326 95.6654 96.9534
94.3872 95.0568 103.593
93.1067 96.7808 102.944
92.7397 96.9495 100.364
97.5436 93.9885 97.1594
99.3327 93.5879 98.7427
99.6814 94.2339 97.1414
96.4308 95.0455 95.8609
99.9224 95.4084 96.232
106.764 115.48 116.528
107.628 117.259 115.459
108.053 115.429 115.74
108.278 118.807 114.28
106.969 118.851 115.148
105.347 115.327 116.905
105.845 113.669 117.174
108.358 113.616 115.638
109.051 115.11 114.738
105.585 118.595 115.7
104.684 116.638 116.685
103.841 118.154 116.325
106.338 112.089 117.096
107.855 111.906 116.157
106.912 110.105 116.654
109.818 115.934 113.694
109.455 118.184 113.488
110.452 116.982 112.42
110.426 121.221 104.319
110.397 119.937 102.613
111.004 119.112 103.591
110.099 118.122 101.266
109.354 120.356 101.79
109.874 122.982 104.804
110.51 121.812 106.254
111.533 118.391 104.674
111.355 116.969 102.929
108.187 121.111 102.006
108.893 123.174 103.542
106.604 122.418 102.677
111.118 120.449 107.05
111.579 118.605 106.083
111.452 118.7 107.873
111.028 115.194 101.757
110.225 115.854 100.693
110.318 113.425 100.427
105.946 100.164 111.267
107.171 101.32 110.855
106.559 99.2876 109.706
108.078 102.532 110.53
107.741 102.999 111.849
105.303 100.952 112.636
104.673 99.4293 111.589
105.87 97.5858 108.743
106.968 98.4923 108.292
107.37 103.699 113.024
105.908 102.521 113.463
106.736 104.417 114.409
104.028 98.148 110.55
104.744 96.948 108.819
103.231 96.7276 109.263
107.566 99.7729 107.966
108.239 102.214 109.266
108.237 101.703 107.798
108.573 103.126 101.498
107.212 102.087 100.635
107.3 100.817 101.19
105.89 101.211 99.8081
107.023 103.273 100.051
109.902 104.989 101.435
109.609 103.86 102.473
107.232 99.5896 101.877
106.446 98.5587 100.568
108.137 104.994 100.014
109.783 105.991 100.763
109.193 107.198 100.282
109.264 103.221 103.397
107.842 100.964 103.088
108.593 102.42 104.383
105.656 97.939 99.3853
105.151 99.6103 98.9667
104.586 97.7708 97.9941
96.4652 112.617 115.306
95.9352 111.632 113.794
96.4158 113.69 113.964
95.6445 110.596 112.384
95.5486 109.731 113.578
96.8653 111.387 116.344
97.4865 113.389 116.425
97.1251 115.544 114.011
96.7168 114.525 112.68
95.6377 108.615 114.313
96.4288 109.464 116.001
95.8815 107.327 115.353
98.0561 115.187 116.434
97.7935 116.472 114.956
99.0729 117.06 116.122
96.4188 113.474 111.39
95.8175 111.187 111.189
96.1163 111.996 109.879
99.2418 113.487 103.627
100.532 114.558 103.309
99.8263 115.363 104.462
101.826 115.526 102.949
101.194 113.658 102.339
98.6102 111.616 102.806
98.0566 112.305 103.898
99.2902 115.898 105.768
100.492 117.05 105.367
100.465 111.719 101.735
98.8986 110.49 101.989
99.6402 109.501 101.103
97.489 112.341 104.87
98.3001 114.529 106.053
97.1277 112.774 106.206
101.583 118.059 104.865
102.436 117.105 103.468
102.966 119.041 104.067
94.6428 97.7928 109.422
95.7578 97.5483 110.268
95.4414 96.6787 108.058
97.0315 97.5128 110.998
96.0786 98.3839 112.18
93.9678 99.0136 110.493
93.8143 98.1955 108.444
94.8734 95.7814 105.874
96.0289 95.5898 106.951
95.4044 99.5627 113.075
94.1658 100.173 112.036
95.0383 101.526 113.53
93.657 97.8726 106.752
94.0196 96.2552 105.274
93.3039 97.2855 104.714
97.3115 95.6837 107.825
97.9356 96.86 109.902
98.877 95.975 108.673
96.8567 99.1658 96.226
95.5078 99.334 97.14
95.2037 98.1499 95.3559
94.8601 99.5718 98.2793
96.261 101.026 98.692
98.239 100.629 97.4869
98.1703 99.2617 95.9368
95.8313 96.4612 95.1912
93.8895 96.9033 95.8689
97.0048 102.408 98.4252
98.1751 102.327 97.8639
98.0068 104.116 98.0995
98.8254 98.3357 95.3611
97.6372 96.2875 95.3335
99.6848 96.6876 95.6865
93.235 97.2026 97.5433
93.7561 98.9135 98.4789
92.9912 97.8296 99.5635
POLYGONS 1280  5120
3 164 162 163
3 163 44 164
3 162 43 163
3 164 42 162
3 166 165 163
3 163 43 166
3 165 44 163
3 166 14 165
3 168 167 162
3 162 42 168
3 167 43 162
3 168 13 167
3 170 169 164
3 164 44 170
3 169 42 164
3 170 12 169
3 173 171 172
3 172 46 173
3 171 43 172
3 173 45 171
3 167 174 172
3 172 43 167
3 174 46 172
3 167 13 174
3 175 166 171
3 171 45 175
3 166 43 171
3 175 14 166
3 177 176 173
3 173 46 177
3 176 45 173
3 177 4 176
3 180 178 179
3 179 48 180
3 178 42 179
3 180 47 178
3 169 181 179
3 179 42 169
3 181 48 179
3 169 12 181
3 182 168 178
3 178 47 182
3 168 42 178
3 182 13 168
3 184 183 180
3 180 48 184
3 183 47 180
3 184 8 183
3 187 185 186
3 186 50 187
3 185 44 186
3 187 49 185
3 165 188 186
3 186 44 165
3 188 50 186
3 165 14 188
3 189 170 185
3 185 49 189
3 170 44 185
3 189 12 170
3 191 190 187
3 187 50 191
3 190 49 187
3 191 7 190
3 194 192 193
3 193 53 194
3 192 52 193
3 194 51 192
3 196 195 193
3 193 52 196
3 195 53 193
3 196 16 195
3 198 197 192
3 192 51 198
3 197 52 192
3 198 14 197
3 200 199 194
3 194 53 200
3 199 51 194
3 200 15 199
3 203 201 202
3 202 45 203
3 201 52 202
3 203 54 201
3 197 175 202
3 202 52 197
3 175 45 202
3 197 14 175
3 204 196 201
3 201 54 204
3 196 52 201
3 204 16 196
3 176 205 203
3 203 45 176
3 205 54 203
3 176 4 205
3 208 206 207
3 207 55 208
3 206 51 207
3 208 50 206
3 199 209 207
3 207 51 199
3 209 55 207
3 199 15 209
3 188 198 206
3 206 50 188
3 198 51 206
3 188 14 198
3 210 191 208
3 208 55 210
3 191 50 208
3 210 7 191
3 213 211 212
3 212 57 213
3 211 53 212
3 213 56 211
3 195 214 212
3 212 53 195
3 214 57 212
3 195 16 214
3 215 200 211
3 211 56 215
3 200 53 211
3 215 15 200
3 217 216 213
3 213 57 217
3 216 56 213
3 217 9 216
3 220 218 219
3 219 60 220
3 218 59 219
3 220 58 218
3 222 221 219
3 219 59 222
3 221 60 219
3 222 19 221
3 224 223 218
3 218 58 224
3 223 59 218
3 224 18 223
3 226 225 220
3 220 60 226
3 225 58 220
3 226 17 225
3 229 227 228
3 228 62 229
3 227 59 228
3 229 61 227
3 223 230 228
3 228 59 223
3 230 62 228
3 223 18 230
3 231 222 227
3 227 61 231
3 222 59 227
3 231 19 222
3 233 232 229
3 229 62 233
3 232 61 229
3 233 5 232
3 236 234 235
3 235 64 236
3 234 58 235
3 236 63 234
3 225 237 235
3 235 58 225
3 237 64 235
3 225 17 237
3 238 224 234
3 234 63 238
3 224 58 234
3 238 18 224
3 240 239 236
3 236 64 240
3 239 63 236
3 240 6 239
3 243 241 242
3 242 66 243
3 241 60 242
3 243 65 241
3 221 244 242
3 242 60 221
3 244 66 242
3 221 19 244
3 245 226 241
3 241 65 245
3 226 60 241
3 245 17 226
3 247 246 243
3 243 66 247
3 246 65 243
3 247 11 246
3 250 248 249
3 249 69 250
3 248 68 249
3 250 67 248
3 252 251 249
3 249 68 252
3 251 69 249
3 252 18 251
3 254 253 248
3 248 67 254
3 253 68 248
3 254 21 253
3 256 255 250
3 250 69 256
3 255 67 250
3 256 20 255
3 259 257 258
3 258 70 259
3 257 68 258
3 259 62 257
3 253 260 258
3 258 68 253
3 260 70 258
3 253 21 260
3 230 252 257
3 257 62 230
3 252 68 257
3 230 18 252
3 261 233 259
3 259 70 261
3 233 62 259
3 261 5 233
3 264 262 263
3 263 72 264
3 262 67 263
3 264 71 262
3 255 265 263
3 263 67 255
3 265 72 263
3 255 20 265
3 266 254 262
3 262 71 266
3 254 67 262
3 266 21 254
3 268 267 264
3 264 72 268
3 267 71 264
3 268 10 267
3 271 269 270
3 270 63 271
3 269 69 270
3 271 73 269
3 251 238 270
3 270 69 251
3 238 63 270
3 251 18 238
3 272 256 269
3 269 73 272
3 256 69 269
3 272 20 256
3 239 273 271
3 271 63 239
3 273 73 271
3 239 6 273
3 276 274 275
3 275 76 276
3 274 75 275
3 276 74 274
3 278 277 275
3 275 75 278
3 277 76 275
3 278 24 277
3 280 279 274
3 274 74 280
3 279 75 274
3 280 23 279
3 282 281 276
3 276 76 282
3 281 74 276
3 282 22 281
3 285 283 284
3 284 78 285
3 283 75 284
3 285 77 283
3 279 286 284
3 284 75 279
3 286 78 284
3 279 23 286
3 287 278 283
3 283 77 287
3 278 75 283
3 287 24 278
3 289 288 285
3 285 78 289
3 288 77 285
3 289 0 288
3 292 290 291
3 291 80 292
3 290 74 291
3 292 79 290
3 281 293 291
3 291 74 281
3 293 80 291
3 281 22 293
3 294 280 290
3 290 79 294
3 280 74 290
3 294 23 280
3 296 295 292
3 292 80 296
3 295 79 292
3 296 4 295
3 299 297 298
3 298 82 299
3 297 76 298
3 299 81 297
3 277 300 298
3 298 76 277
3 300 82 298
3 277 24 300
3 301 282 297
3 297 81 301
3 282 76 297
3 301 22 282
3 303 302 299
3 299 82 303
3 302 81 299
3 303 3 302
3 306 304 305
3 305 85 306
3 304 84 305
3 306 83 304
3 308 307 305
3 305 84 308
3 307 85 305
3 308 26 307
3 310 309 304
3 304 83 310
3 309 84 304
3 310 24 309
3 312 311 306
3 306 85 312
3 311 83 306
3 312 25 311
3 315 313 314
3 314 77 315
3 313 84 314
3 315 86 313
3 309 287 314
3 314 84 309
3 287 77 314
3 309 24 287
3 316 308 313
3 313 86 316
3 308 84 313
3 316 26 308
3 288 317 315
3 315 77 288
3 317 86 315
3 288 0 317
3 320 318 319
3 319 87 320
3 318 83 319
3 320 82 318
3 311 321 319
3 319 83 311
3 321 87 319
3 311 25 321
3 300 310 318
3 318 82 300
3 310 83 318
3 300 24 310
3 322 303 320
3 320 87 322
3 303 82 320
3 322 3 303
3 325 323 324
3 324 89 325
3 323 85 324
3 325 88 323
3 307 326 324
3 324 85 307
3 326 89 324
3 307 26 326
3 327 312 323
3 323 88 327
3 312 85 323
3 327 25 312
3 329 328 325
3 325 89 329
3 328 88 325
3 329 5 328
3 332 330 331
3 331 92 332
3 330 91 331
3 332 90 330
3 334 333 331
3 331 91 334
3 333 92 331
3 334 29 333
3 336 335 330
3 330 90 336
3 335 91 330
3 336 28 335
3 338 337 332
3 332 92 338
3 337 90 332
3 338 27 337
3 341 339 340
3 340 94 341
3 339 91 340
3 341 93 339
3 335 342 340
3 340 91 335
3 342 94 340
3 335 28 342
3 343 334 339
3 339 93 343
3 334 91 339
3 343 29 334
3 345 344 341
3 341 94 345
3 344 93 341
3 345 2 344
3 348 346 347
3 347 96 348
3 346 90 347
3 348 95 346
3 337 349 347
3 347 90 337
3 349 96 347
3 337 27 349
3 350 336 346
3 346 95 350
3 336 90 346
3 350 28 336
3 352 351 348
3 348 96 352
3 351 95 348
3 352 7 351
3 355 353 354
3 354 98 355
3 353 92 354
3 355 97 353
3 333 356 354
3 354 92 333
3 356 98 354
3 333 29 356
3 357 338 353
3 353 97 357
3 338 92 353
3 357 27 338
3 359 358 355
3 355 98 359
3 358 97 355
3 359 1 358
3 362 360 361
3 361 101 362
3 360 100 361
3 362 99 360
3 364 363 361
3 361 100 364
3 363 101 361
3 364 31 363
3 366 365 360
3 360 99 366
3 365 100 360
3 366 29 365
3 368 367 362
3 362 101 368
3 367 99 362
3 368 30 367
3 371 369 370
3 370 93 371
3 369 100 370
3 371 102 369
3 365 343 370
3 370 100 365
3 343 93 370
3 365 29 343
3 372 364 369
3 369 102 372
3 364 100 369
3 372 31 364
3 344 373 371
3 371 93 344
3 373 102 371
3 344 2 373
3 376 374 375
3 375 103 376
3 374 99 375
3 376 98 374
3 367 377 375
3 375 99 367
3 377 103 375
3 367 30 377
3 356 366 374
3 374 98 356
3 366 99 374
3 356 29 366
3 378 359 376
3 376 103 378
3 359 98 376
3 378 1 359
3 381 379 380
3 380 105 381
3 379 101 380
3 381 104 379
3 363 382 380
3 380 101 363
3 382 105 380
3 363 31 382
3 383 368 379
3 379 104 383
3 368 101 379
3 383 30 368
3 385 384 381
3 381 105 385
3 384 104 381
3 385 6 384
3 388 386 387
3 387 108 388
3 386 107 387
3 388 106 386
3 390 389 387
3 387 107 390
3 389 108 387
3 390 34 389
3 392 391 386
3 386 106 392
3 391 107 386
3 392 33 391
3 394 393 388
3 388 108 394
3 393 106 388
3 394 32 393
3 397 395 396
3 396 110 397
3 395 107 396
3 397 109 395
3 391 398 396
3 396 107 391
3 398 110 396
3 391 33 398
3 399 390 395
3 395 109 399
3 390 107 395
3 399 34 390
3 401 400 397
3 397 110 401
3 400 109 397
3 401 8 400
3 404 402 403
3 403 112 404
3 402 106 403
3 404 111 402
3 393 405 403
3 403 106 393
3 405 112 403
3 393 32 405
3 406 392 402
3 402 111 406
3 392 106 402
3 406 33 392
3 408 407 404
3 404 112 408
3 407 111 404
3 408 0 407
3 411 409 410
3 410 114 411
3 409 108 410
3 411 113 409
3 389 412 410
3 410 108 389
3 412 114 410
3 389 34 412
3 413 394 409
3 409 113 413
3 394 108 409
3 413 32 394
3 415 414 411
3 411 114 415
3 414 113 411
3 415 11 414
3 418 416 417
3 417 117 418
3 416 116 417
3 418 115 416
3 420 419 417
3 417 116 420
3 419 117 417
3 420 36 419
3 422 421 416
3 416 115 422
3 421 116 416
3 422 34 421
3 424 423 418
3 418 117 424
3 423 115 418
3 424 35 423
3 427 425 426
3 426 109 427
3 425 116 426
3 427 118 425
3 421 399 426
3 426 116 421
3 399 109 426
3 421 34 399
3 428 420 425
3 425 118 428
3 420 116 425
3 428 36 420
3 400 429 427
3 427 109 400
3 429 118 427
3 400 8 429
3 432 430 431
3 431 119 432
3 430 115 431
3 432 114 430
3 423 433 431
3 431 115 423
3 433 119 431
3 423 35 433
3 412 422 430
3 430 114 412
3 422 115 430
3 412 34 422
3 434 415 432
3 432 119 434
3 415 114 432
3 434 11 415
3 437 435 436
3 436 121 437
3 435 117 436
3 437 120 435
3 419 438 436
3 436 117 419
3 438 121 436
3 419 36 438
3 439 424 435
3 435 120 439
3 424 117 435
3 439 35 424
3 441 440 437
3 437 121 441
3 440 120 437
3 441 1 440
3 444 442 443
3 443 124 444
3 442 123 443
3 444 122 442
3 446 445 443
3 443 123 446
3 445 124 443
3 446 39 445
3 448 447 442
3 442 122 448
3 447 123 442
3 448 38 447
3 450 449 444
3 444 124 450
3 449 122 444
3 450 37 449
3 453 451 452
3 452 126 453
3 451 123 452
3 453 125 451
3 447 454 452
3 452 123 447
3 454 126 452
3 447 38 454
3 455 446 451
3 451 125 455
3 446 123 451
3 455 39 446
3 457 456 453
3 453 126 457
3 456 125 453
3 457 9 456
3 460 458 459
3 459 128 460
3 458 122 459
3 460 127 458
3 449 461 459
3 459 122 449
3 461 128 459
3 449 37 461
3 462 448 458
3 458 127 462
3 448 122 458
3 462 38 448
3 464 463 460
3 460 128 464
3 463 127 460
3 464 10 463
3 467 465 466
3 466 130 467
3 465 124 466
3 467 129 465
3 445 468 466
3 466 124 445
3 468 130 466
3 445 39 468
3 469 450 465
3 465 129 469
3 450 124 465
3 469 37 450
3 471 470 467
3 467 130 471
3 470 129 467
3 471 3 470
3 474 472 473
3 473 133 474
3 472 132 473
3 474 131 472
3 476 475 473
3 473 132 476
3 475 133 473
3 476 38 475
3 478 477 472
3 472 131 478
3 477 132 472
3 478 41 477
3 480 479 474
3 474 133 480
3 479 131 474
3 480 40 479
3 483 481 482
3 482 134 483
3 481 132 482
3 483 126 481
3 477 484 482
3 482 132 477
3 484 134 482
3 477 41 484
3 454 476 481
3 481 126 454
3 476 132 481
3 454 38 476
3 485 457 483
3 483 134 485
3 457 126 483
3 485 9 457
3 488 486 487
3 487 136 488
3 486 131 487
3 488 135 486
3 479 489 487
3 487 131 479
3 489 136 487
3 479 40 489
3 490 478 486
3 486 135 490
3 478 131 486
3 490 41 478
3 492 491 488
3 488 136 492
3 491 135 488
3 492 2 491
3 495 493 494
3 494 127 495
3 493 133 494
3 495 137 493
3 475 462 494
3 494 133 475
3 462 127 494
3 475 38 462
3 496 480 493
3 493 137 496
3 480 133 493
3 496 40 480
3 463 497 495
3 495 127 463
3 497 137 495
3 463 10 497
3 500 498 499
3 499 140 500
3 498 139 499
3 500 138 498
3 502 501 499
3 499 139 502
3 501 140 499
3 502 33 501
3 504 503 498
3 498 138 504
3 503 139 498
3 504 13 503
3 506 505 500
3 500 140 506
3 505 138 500
3 506 23 505
3 509 507 508
3 508 47 509
3 507 139 508
3 509 110 507
3 503 182 508
3 508 139 503
3 182 47 508
3 503 13 182
3 398 502 507
3 507 110 398
3 502 139 507
3 398 33 502
3 183 401 509
3 509 47 183
3 401 110 509
3 183 8 401
3 512 510 511
3 511 79 512
3 510 138 511
3 512 46 510
3 505 294 511
3 511 138 505
3 294 79 511
3 505 23 294
3 174 504 510
3 510 46 174
3 504 138 510
3 174 13 504
3 295 177 512
3 512 79 295
3 177 46 512
3 295 4 177
3 515 513 514
3 514 111 515
3 513 140 514
3 515 78 513
3 501 406 514
3 514 140 501
3 406 111 514
3 501 33 406
3 286 506 513
3 513 78 286
3 506 140 513
3 286 23 506
3 407 289 515
3 515 111 407
3 289 78 515
3 407 0 289
3 518 516 517
3 517 143 518
3 516 142 517
3 518 141 516
3 520 519 517
3 517 142 520
3 519 143 517
3 520 19 519
3 522 521 516
3 516 141 522
3 521 142 516
3 522 32 521
3 524 523 518
3 518 143 524
3 523 141 518
3 524 26 523
3 527 525 526
3 526 113 527
3 525 142 526
3 527 66 525
3 521 413 526
3 526 142 521
3 413 113 526
3 521 32 413
3 244 520 525
3 525 66 244
3 520 142 525
3 244 19 520
3 414 247 527
3 527 113 414
3 247 66 527
3 414 11 247
3 530 528 529
3 529 86 530
3 528 141 529
3 530 112 528
3 523 316 529
3 529 141 523
3 316 86 529
3 523 26 316
3 405 522 528
3 528 112 405
3 522 141 528
3 405 32 522
3 317 408 530
3 530 86 317
3 408 112 530
3 317 0 408
3 533 531 532
3 532 61 533
3 531 143 532
3 533 89 531
3 519 231 532
3 532 143 519
3 231 61 532
3 519 19 231
3 326 524 531
3 531 89 326
3 524 143 531
3 326 26 524
3 232 329 533
3 533 61 232
3 329 89 533
3 232 5 329
3 536 534 535
3 535 146 536
3 534 145 535
3 536 144 534
3 538 537 535
3 535 145 538
3 537 146 535
3 538 22 537
3 540 539 534
3 534 144 540
3 539 145 534
3 540 16 539
3 542 541 536
3 536 146 542
3 541 144 536
3 542 39 541
3 545 543 544
3 544 54 545
3 543 145 544
3 545 80 543
3 539 204 544
3 544 145 539
3 204 54 544
3 539 16 204
3 293 538 543
3 543 80 293
3 538 145 543
3 293 22 538
3 205 296 545
3 545 54 205
3 296 80 545
3 205 4 296
3 548 546 547
3 547 125 548
3 546 144 547
3 548 57 546
3 541 455 547
3 547 144 541
3 455 125 547
3 541 39 455
3 214 540 546
3 546 57 214
3 540 144 546
3 214 16 540
3 456 217 548
3 548 125 456
3 217 57 548
3 456 9 217
3 551 549 550
3 550 81 551
3 549 146 550
3 551 130 549
3 537 301 550
3 550 146 537
3 301 81 550
3 537 22 301
3 468 542 549
3 549 130 468
3 542 146 549
3 468 39 542
3 302 471 551
3 551 81 302
3 471 130 551
3 302 3 471
3 554 552 553
3 553 149 554
3 552 148 553
3 554 147 552
3 556 555 553
3 553 148 556
3 555 149 553
3 556 21 555
3 558 557 552
3 552 147 558
3 557 148 552
3 558 25 557
3 560 559 554
3 554 149 560
3 559 147 554
3 560 37 559
3 563 561 562
3 562 88 563
3 561 148 562
3 563 70 561
3 557 327 562
3 562 148 557
3 327 88 562
3 557 25 327
3 260 556 561
3 561 70 260
3 556 148 561
3 260 21 556
3 328 261 563
3 563 88 328
3 261 70 563
3 328 5 261
3 566 564 565
3 565 129 566
3 564 147 565
3 566 87 564
3 559 469 565
3 565 147 559
3 469 129 565
3 559 37 469
3 321 558 564
3 564 87 321
3 558 147 564
3 321 25 558
3 470 322 566
3 566 129 470
3 322 87 566
3 470 3 322
3 569 567 568
3 568 71 569
3 567 149 568
3 569 128 567
3 555 266 568
3 568 149 555
3 266 71 568
3 555 21 266
3 461 560 567
3 567 128 461
3 560 149 567
3 461 37 560
3 267 464 569
3 569 71 267
3 464 128 569
3 267 10 464
3 572 570 571
3 571 152 572
3 570 151 571
3 572 150 570
3 574 573 571
3 571 151 574
3 573 152 571
3 574 27 573
3 576 575 570
3 570 150 576
3 575 151 570
3 576 12 575
3 578 577 572
3 572 152 578
3 577 150 572
3 578 36 577
3 581 579 580
3 580 49 581
3 579 151 580
3 581 96 579
3 575 189 580
3 580 151 575
3 189 49 580
3 575 12 189
3 349 574 579
3 579 96 349
3 574 151 579
3 349 27 574
3 190 352 581
3 581 49 190
3 352 96 581
3 190 7 352
3 584 582 583
3 583 118 584
3 582 150 583
3 584 48 582
3 577 428 583
3 583 150 577
3 428 118 583
3 577 36 428
3 181 576 582
3 582 48 181
3 576 150 582
3 181 12 576
3 429 184 584
3 584 118 429
3 184 48 584
3 429 8 184
3 587 585 586
3 586 97 587
3 585 152 586
3 587 121 585
3 573 357 586
3 586 152 573
3 357 97 586
3 573 27 357
3 438 578 585
3 585 121 438
3 578 152 585
3 438 36 578
3 358 441 587
3 587 97 358
3 441 121 587
3 358 1 441
3 590 588 589
3 589 155 590
3 588 154 589
3 590 153 588
3 592 591 589
3 589 154 592
3 591 155 589
3 592 17 591
3 594 593 588
3 588 153 594
3 593 154 588
3 594 30 593
3 596 595 590
3 590 155 596
3 595 153 590
3 596 35 595
3 599 597 598
3 598 104 599
3 597 154 598
3 599 64 597
3 593 383 598
3 598 154 593
3 383 104 598
3 593 30 383
3 237 592 597
3 597 64 237
3 592 154 597
3 237 17 592
3 384 240 599
3 599 104 384
3 240 64 599
3 384 6 240
3 602 600 601
3 601 120 602
3 600 153 601
3 602 103 600
3 595 439 601
3 601 153 595
3 439 120 601
3 595 35 439
3 377 594 600
3 600 103 377
3 594 153 600
3 377 30 594
3 440 378 602
3 602 120 440
3 378 103 602
3 440 1 378
3 605 603 604
3 604 65 605
3 603 155 604
3 605 119 603
3 591 245 604
3 604 155 591
3 245 65 604
3 591 17 245
3 433 596 603
3 603 119 433
3 596 155 603
3 433 35 596
3 246 434 605
3 605 65 246
3 434 119 605
3 246 11 434
3 608 606 607
3 607 158 608
3 606 157 607
3 608 156 606
3 610 609 607
3 607 157 610
3 609 158 607
3 610 15 609
3 612 611 606
3 606 156 612
3 611 157 606
3 612 28 611
3 614 613 608
3 608 158 614
3 613 156 608
3 614 41 613
3 617 615 616
3 616 95 617
3 615 157 616
3 617 55 615
3 611 350 616
3 616 157 611
3 350 95 616
3 611 28 350
3 209 610 615
3 615 55 209
3 610 157 615
3 209 15 610
3 351 210 617
3 617 95 351
3 210 55 617
3 351 7 210
3 620 618 619
3 619 135 620
3 618 156 619
3 620 94 618
3 613 490 619
3 619 156 613
3 490 135 619
3 613 41 490
3 342 612 618
3 618 94 342
3 612 156 618
3 342 28 612
3 491 345 620
3 620 135 491
3 345 94 620
3 491 2 345
3 623 621 622
3 622 56 623
3 621 158 622
3 623 134 621
3 609 215 622
3 622 158 609
3 215 56 622
3 609 15 215
3 484 614 621
3 621 134 484
3 614 158 621
3 484 41 614
3 216 485 623
3 623 56 216
3 485 134 623
3 216 9 485
3 626 624 625
3 625 161 626
3 624 160 625
3 626 159 624
3 628 627 625
3 625 160 628
3 627 161 625
3 628 31 627
3 630 629 624
3 624 159 630
3 629 160 624
3 630 20 629
3 632 631 626
3 626 161 632
3 631 159 626
3 632 40 631
3 635 633 634
3 634 73 635
3 633 160 634
3 635 105 633
3 629 272 634
3 634 160 629
3 272 73 634
3 629 20 272
3 382 628 633
3 633 105 382
3 628 160 633
3 382 31 628
3 273 385 635
3 635 73 273
3 385 105 635
3 273 6 385
3 638 636 637
3 637 137 638
3 636 159 637
3 638 72 636
3 631 496 637
3 637 159 631
3 496 137 637
3 631 40 496
3 265 630 636
3 636 72 265
3 630 159 636
3 265 20 630
3 497 268 638
3 638 137 497
3 268 72 638
3 497 10 268
3 641 639 640
3 640 102 641
3 639 161 640
3 641 136 639
3 627 372 640
3 640 161 627
3 372 102 640
3 627 31 372
3 489 632 639
3 639 136 489
3 632 161 639
3 489 40 632
3 373 492 641
3 641 102 373
3 492 136 641
3 373 2 492
