# vtk DataFile Version 3.0
this file was written using fslvtkio
ASCII
DATASET POLYDATA
POINTS 642 float
97.9137 125.314 88.0369
87.6318 126.399 87.3822
88.2068 120.815 86.3842
97.9834 119.854 88.1143
97.8149 120.599 92.4978
94.7405 124.821 82.0924
88.0026 125.166 80.1252
91.4657 121.444 92.1664
93.8395 126.206 90.8981
93.4961 116.14 90.8256
91.8803 120.733 84.4911
92.368 128.982 83.5645
92.546 123.95 92.1589
96.4647 123.909 92.952
94.6565 120.751 93.6127
91.7716 117.324 92.9516
96.4054 116.884 92.9606
89.5703 128.501 80.6196
91.8566 125.248 79.8717
93.9976 128.187 81.3479
89.8228 122.944 81.5993
93.1142 122.815 82.7766
100.386 118.419 89.9001
99.2661 123.142 90.9019
99.2262 122.779 87.7921
96.1477 122.995 85.6299
96.4476 125.568 84.7263
89.0939 124.114 90.3404
89.6497 120.655 89.8006
87.0165 123.739 86.7555
86.8886 126.187 83.3594
87.3458 122.953 82.9725
95.3852 127.988 85.7431
96.4468 126.048 89.9603
92.9002 127.945 87.3996
89.2122 128.087 84.7953
90.5797 126.334 89.4174
94.9253 120.353 86.6281
92.8389 118.669 88.0704
96.9828 116.898 88.831
89.3197 120.127 84.8272
89.8947 117.181 89.3591
94.5219 123.888 92.8751
95.7056 122.552 94.0907
93.6013 122.705 93.8032
96.4069 120.483 93.5448
97.2792 122.392 93.2789
95.1088 125.117 92.0716
93.1516 125.119 91.6306
91.8307 122.856 92.6155
92.9851 121.367 93.0877
93.3667 119.355 93.3468
95.4644 118.798 93.6792
93.6484 116.979 93.9964
97.4811 118.625 92.7799
91.9132 119.673 92.3164
92.0715 115.754 92.1863
94.8034 116.27 92.2164
90.8262 126.925 80.3379
92.8551 126.728 80.4684
92.0339 128.921 80.383
94.3926 126.233 81.5159
93.505 125.096 80.7807
89.7617 125.273 79.6942
88.7714 126.617 80.4865
91.1479 129.063 81.8797
93.3764 129.041 82.2357
91.4819 122.987 81.9602
92.5015 123.956 80.993
90.6143 124.021 80.6648
93.8553 124.008 82.4277
92.4017 121.847 83.6931
90.7936 121.977 83.129
88.7781 123.824 80.473
100.403 121.088 90.5463
99.7566 122.875 89.2001
100.484 120.56 88.7424
99.264 124.389 87.8308
98.8328 124.477 89.6167
98.7375 121.879 91.9121
99.2596 119.545 91.4996
99.7049 118.579 88.1028
98.6161 121.245 88.1503
97.6208 123.027 87.003
98.2705 124.21 86.2917
96.9375 124.011 84.742
97.1601 125.449 86.4111
96.9978 121.58 87.2413
95.3504 123.991 83.9185
95.6778 125.249 83.1771
89.2079 122.471 90.052
88.3579 122.464 88.325
87.9974 124.03 88.7063
87.7872 122.367 86.4957
88.8161 120.856 88.1328
90.6025 120.92 91.0989
90.2184 122.638 91.4743
88.1704 125.19 88.9052
86.977 125.153 87.1028
86.6023 124.982 85.1099
87.4125 123.602 84.8232
86.7056 124.698 83.0222
87.6775 122.016 84.8779
86.9881 126.3 85.5382
87.448 125.806 81.5925
87.032 123.961 81.1087
96.0339 127.174 87.9965
94.8129 127.42 88.7877
94.2837 128.033 86.7546
93.4036 127.216 89.366
95.202 126.208 90.5694
97.3552 125.876 89.094
96.4296 126.366 86.9357
94.0654 128.801 84.5813
92.5255 128.586 85.44
90.9337 128.095 86.1376
91.5326 127.075 88.1451
89.9045 127.238 87.1306
92.2362 126.512 90.2694
90.6333 128.687 83.9233
88.3961 127.144 86.0336
88.9925 126.474 88.5583
94.2181 119.294 87.3199
94.8355 117.855 88.7653
96.2277 118.643 87.9679
95.1906 116.832 90.3607
93.234 117.472 89.5115
92.3778 119.742 86.2533
93.419 120.587 85.6029
96.4593 120.188 87.6217
97.9503 118.063 88.0054
89.692 118.724 87.1954
91.3698 117.964 88.7114
91.0475 119.325 86.5584
91.5259 116.264 90.1584
88.5372 118.994 87.9541
87.9733 120.176 85.1537
90.6317 120.418 84.58
97.974 123.609 92.1518
96.6023 125.042 91.6514
98.1455 124.94 90.8056
95.4434 126.291 85.2424
94.7764 128.273 83.3894
95.0766 126.75 82.9056
96.878 116.483 91.1189
99.0116 117.246 91.7389
99.2122 116.915 89.097
95.4708 121.579 86.1024
94.6206 123.007 84.3836
93.8331 121.684 84.8051
91.5836 125.333 91.0536
90.779 124.065 91.5937
89.6936 125.334 90.1509
87.7892 127.445 83.9478
87.9271 127.245 81.8359
89.0389 128.634 82.4731
89.4494 118.768 89.8211
90.7222 119.06 91.3979
90.7575 116.907 91.3589
89.5772 121.952 83.3472
88.1555 122.845 81.8109
88.149 121.445 83.6705
95.0209 123.27 93.6274
94.6257 122.618 93.9541
94.0088 123.407 93.6267
94.2201 121.785 93.8609
95.056 121.706 93.776
96.0569 123.286 93.6054
95.4156 123.758 92.9709
93.5458 123.847 92.5864
93.0999 123.402 93.1066
95.9999 121.547 93.7688
96.6229 122.538 93.8463
96.8082 121.554 93.4004
96.9888 123.268 93.2665
95.5556 120.601 93.7627
97.0352 120.563 92.9075
97.5221 121.438 92.8151
94.8337 124.38 92.4505
93.8379 124.457 92.3276
94.158 124.991 91.9236
92.9103 124.564 92.049
95.7136 124.32 92.428
94.4117 125.643 91.4876
93.5565 125.641 91.279
92.7187 122.845 93.2775
93.2817 121.98 93.6292
92.3719 122.144 92.9888
93.7749 121.094 93.5239
92.2828 123.4 92.4838
91.4875 122.204 92.5236
92.1979 121.449 92.4905
94.3799 119.238 93.6831
94.7026 117.893 93.8857
93.4451 118.059 93.8328
94.995 117.026 93.5748
95.7382 117.685 93.3457
95.1089 119.715 93.8223
94.0793 120.007 93.5285
92.5555 118.465 92.9597
92.5033 117.114 93.6318
96.4435 118.525 93.2722
95.998 119.535 93.6911
96.8061 119.458 93.1018
96.9434 117.631 92.9503
97.5932 119.676 92.5679
93.2959 120.473 93.2537
92.5114 119.582 92.9775
92.5059 120.65 92.6105
91.783 118.632 92.6441
91.7932 120.661 92.0891
92.7942 116.149 93.4421
94.2558 116.367 93.1529
93.5195 115.786 92.3736
95.4894 116.524 92.6788
91.7841 116.422 92.9501
92.8608 115.61 91.3565
94.1442 116.04 91.4901
91.8271 126.837 80.4438
92.2967 127.767 80.3426
91.2596 127.973 80.1233
93.0467 128.54 80.7759
93.2894 127.453 80.7728
92.4404 126.05 80.09
91.4115 126.164 80.0745
90.1647 127.947 80.1627
90.8319 128.989 80.2798
93.7031 126.622 80.9369
93.2895 125.814 80.4409
94.0065 125.711 81.1018
92.7549 125.208 80.164
94.1296 127.159 81.3111
94.541 125.485 81.8299
94.0633 124.989 81.4286
90.3764 126.127 80.0761
89.8273 126.836 80.2318
89.3005 126.072 80.1922
89.1293 127.396 80.4786
90.8645 125.366 79.82
88.9205 125.267 79.8815
88.4011 125.89 80.345
91.5543 129.275 80.978
92.7548 129.172 81.2368
92.3345 129.135 81.9823
93.6846 128.877 81.6871
90.329 129.01 81.1172
91.8304 129.065 82.763
92.868 129.038 82.9459
92.0233 123.352 81.4072
91.6172 123.951 80.6893
91.0621 123.428 81.1774
91.2266 124.663 80.1942
92.1992 124.478 80.2334
92.7687 123.334 81.8766
92.3003 122.821 82.257
90.6549 122.97 81.624
90.1803 123.47 80.9801
92.9559 124.535 80.7446
93.1607 123.972 81.6041
93.6639 124.443 81.3978
93.5035 123.435 82.5758
94.3314 124.423 82.1649
91.9066 122.379 82.6796
91.1517 122.456 82.4157
91.6104 121.944 83.3127
90.3551 122.518 82.3453
92.6878 122.291 83.1174
92.1097 121.22 84.0496
91.3298 121.319 83.8494
89.6841 123.917 80.4405
90.1867 124.479 79.874
89.214 124.424 79.9034
89.3179 123.437 81.0033
88.2055 124.377 80.0881
100.235 121.996 89.8993
100.321 121.91 88.8984
100.984 120.751 89.6601
99.9162 121.791 88.1693
99.734 122.809 88.4335
99.5156 122.775 90.0425
99.815 122.111 90.7456
100.706 119.718 90.276
100.959 119.453 89.1582
99.6125 123.603 88.6104
99.3616 123.638 89.4862
98.9197 124.294 88.7568
98.9715 123.727 90.2368
99.3851 123.574 87.7464
98.5244 124.749 88.0368
98.4793 124.911 88.8527
99.7009 121.413 91.3618
100.116 120.162 91.1441
99.1008 120.619 91.7279
100.086 118.823 90.8772
99.1277 122.415 91.3885
98.2828 121.224 92.3288
98.4529 120.084 92.016
100.322 119.37 88.3157
99.6664 120.851 88.1787
99.408 119.965 87.9903
98.9421 121.97 88.0373
100.259 118.517 88.937
98.8843 119.225 87.9357
98.4301 120.509 88.1536
98.0176 123.62 86.6562
97.6678 124.068 85.5251
97.2554 123.618 86.0636
97.0111 124.81 84.4482
97.6485 124.945 85.2785
98.6466 123.635 87.3046
98.3785 122.851 87.5603
96.9348 123.107 86.3039
96.5179 123.671 85.4022
97.8907 125.073 86.2534
98.7231 124.239 87.1212
98.2542 124.969 87.2722
96.8769 125.487 85.5652
97.5537 125.259 87.3232
98.1711 122.108 87.6068
97.3042 122.232 87.1453
97.7468 121.429 87.8257
96.5875 122.288 86.4405
97.4884 120.88 87.9477
96.1942 123.94 84.3098
96.4011 124.654 83.8475
95.7924 124.425 83.386
96.174 125.495 83.7504
95.6699 123.669 84.9309
95.0472 124.438 82.9456
95.2195 125.042 82.5382
88.8055 122.516 89.1443
88.0967 123.132 88.4926
88.5494 123.194 89.3865
87.4397 123.794 87.7886
87.6809 123.066 87.5898
88.9326 121.526 89.0768
89.3815 121.576 89.9167
89.1609 123.259 90.1113
88.4988 124.065 89.5937
88.021 122.453 87.3903
88.5045 121.639 88.3042
88.2448 121.658 87.3316
89.1348 120.8 89.0844
87.351 123.036 86.6113
88.0428 121.637 86.4733
88.2822 120.848 87.2286
89.8339 121.695 90.5797
89.5407 122.572 90.8011
90.4523 121.88 91.193
89.6532 123.208 90.9298
90.0731 120.752 90.4413
91.1549 121.231 91.5855
90.8711 122.032 91.9208
87.968 124.689 88.9513
87.4243 124.588 87.9636
87.6917 125.14 88.0354
86.9565 124.55 86.9567
88.4709 124.812 89.7522
88.0062 125.764 88.0998
87.3728 125.716 87.22
86.7414 124.165 85.0054
87.0186 124.05 83.9422
86.5441 124.799 84.0629
87.1366 123.811 82.9512
87.5168 123.326 83.8699
87.0051 123.665 85.8333
86.6981 124.427 85.9949
86.3625 125.569 84.1666
86.7647 125.471 83.2756
87.6008 122.784 84.7291
87.4458 122.947 85.6931
87.6275 122.139 85.6025
87.5391 122.647 83.9349
87.9786 121.385 85.6271
86.5828 125.063 86.1447
86.5067 125.68 85.3157
86.7583 125.782 86.4209
86.807 126.186 84.4282
87.1442 126.408 86.5547
86.9521 125.194 82.2632
86.8178 124.321 82.0051
87.0049 124.914 81.1839
87.02 123.506 82.0301
87.1475 125.971 82.4789
87.6521 125.467 80.7397
87.3072 124.599 80.3673
95.4282 127.343 88.391
94.573 127.79 87.7695
95.126 127.659 87.3438
93.6783 128.134 87.109
93.9187 127.746 88.1049
95.6712 126.924 89.4786
96.2792 126.768 89.0623
95.622 127.521 86.929
94.9205 128.02 86.3203
94.1386 127.365 89.0663
95.0065 126.874 89.7696
94.3386 126.835 89.9706
95.8209 126.163 90.2886
93.1869 127.516 88.3421
93.6266 126.851 90.2376
94.4928 126.159 90.7735
96.6452 126.443 88.5977
96.3181 126.841 87.4626
96.9036 126.115 88.0229
95.9215 127.192 86.442
96.9182 126.001 89.5365
97.6257 125.597 88.5399
97.0945 125.728 87.4378
94.1307 128.372 85.6994
93.5318 128.364 86.0851
93.4165 128.695 85.1081
92.7217 128.3 86.446
94.8081 128.469 85.1168
93.2215 129.004 84.0062
92.3812 128.796 84.4355
91.273 127.619 87.1275
90.7586 127.23 87.6782
90.3787 127.689 86.6134
90.2402 126.848 88.3375
91.0084 126.634 88.7423
92.2131 127.561 87.7034
91.8542 128.029 86.7458
90.0424 128.137 85.5066
89.646 127.676 86.0007
91.7868 126.74 89.2175
92.4841 127.164 88.6615
92.835 126.868 89.7722
91.3263 126.33 89.8075
93.1347 126.307 90.6258
91.6937 128.375 85.7814
90.7642 128.497 85.0699
91.5477 128.666 84.7335
89.8818 128.387 84.3498
91.4689 128.875 83.6973
89.154 127.268 86.5144
89.4293 127.001 87.8852
88.6501 127.023 87.358
89.7911 126.494 88.9833
88.9095 127.457 85.3351
87.8522 126.933 86.8281
88.2739 126.481 88.0436
94.578 118.689 88.0714
95.7083 118.163 88.3391
95.2458 119.053 87.715
96.6674 117.767 88.4879
95.8966 117.458 88.8449
93.8308 118.333 88.4428
93.5864 118.959 87.6785
94.7206 119.619 86.9747
95.5971 119.443 87.3567
95.1132 117.264 89.3816
94.0592 117.843 89.2198
94.2297 117.093 89.9017
93.0042 118.045 88.6355
95.9921 116.76 89.5863
94.4636 116.467 90.6252
93.3456 116.746 90.1529
93.309 119.373 86.6939
93.8513 119.908 86.5216
93.0088 120.085 85.972
94.2214 120.447 86.2062
92.6366 119.227 87.1928
92.1241 120.289 85.4257
92.5971 120.576 84.9406
96.4422 119.311 87.6521
97.0526 118.273 88.0831
97.271 119.026 87.8841
97.5942 117.431 88.3494
95.6523 120.207 87.1031
97.196 120.069 87.942
98.1445 118.962 88.0234
90.5623 118.408 88.0122
91.2915 118.832 87.6633
90.3611 118.993 86.7274
92.0051 119.056 87.5091
92.0343 118.328 88.2516
90.6309 117.561 88.9671
89.7615 117.957 88.3405
89.5339 119.494 86.0775
90.1791 119.697 85.8121
92.2677 117.663 88.931
91.424 117.186 89.5044
92.3739 116.817 89.8239
90.786 116.777 89.7861
92.5109 116.021 90.5836
88.9437 118.701 87.417
88.8343 119.345 86.1029
88.255 119.585 86.5488
88.6367 120.015 84.9785
89.2853 118.013 88.6673
88.2567 119.886 87.1298
88.0292 120.499 85.7733
90.8124 119.868 85.5684
91.7435 119.572 86.4997
91.5154 120.142 85.5197
89.9645 120.289 84.7232
91.2495 120.612 84.5651
97.2498 124.268 91.9245
97.3543 124.955 91.2491
98.0132 124.245 91.4385
97.3118 125.489 90.4635
96.6379 125.544 90.829
96.5067 124.326 92.2807
97.3321 123.815 92.7191
98.6753 123.447 91.5525
98.7419 124.122 90.9434
95.9201 125.63 91.1167
95.8756 125.096 92.0113
95.145 125.696 91.3666
97.8154 123.077 92.9319
98.4918 122.85 92.1177
98.0005 122.137 92.5749
98.6118 124.796 90.3084
97.9 125.62 90.083
98.2595 125.354 89.4671
95.2368 127.441 84.3147
94.9236 127.544 83.0962
95.3165 126.643 84.0975
94.6416 127.464 81.9862
94.4559 128.29 82.249
95.1134 128.126 84.5861
95.5712 127.287 85.3932
95.8881 126.092 84.9741
95.7463 126.188 83.8359
94.2094 128.749 82.7426
94.5903 128.66 83.9524
93.7537 128.944 83.3937
95.9547 126.354 86.0868
96.2046 125.844 85.7959
96.7238 125.765 86.66
95.4052 126.023 83.0278
94.9294 126.558 81.9747
95.0559 125.745 82.3117
98.2286 116.466 91.5633
99.3649 116.812 90.4859
98.3891 116.347 90.17
99.9116 117.47 89.4714
99.8816 117.699 90.716
97.8086 116.943 92.4516
96.7229 116.546 92.1722
96.9822 116.555 89.9104
98.1085 116.8 88.9273
99.2266 118.26 91.6538
98.2833 117.89 92.584
98.327 119.142 92.1672
95.7736 116.342 91.74
95.8877 116.65 90.7223
95.0395 116.448 91.2054
98.474 117.444 88.4355
99.452 117.687 88.5386
98.7216 118.235 87.9819
94.9932 122.264 85.2796
94.1654 122.367 84.6153
94.6459 121.514 85.3732
93.3628 122.313 83.8315
93.8402 122.861 83.548
95.2903 123.1 85.1774
95.7771 122.279 85.869
95.1488 120.999 86.3553
94.4254 120.969 85.7109
94.1105 123.472 83.519
94.9372 123.566 84.2265
94.5346 124.012 83.2867
96.2264 121.575 86.6214
95.9162 120.916 86.8854
96.7276 120.871 87.3393
93.7326 121.027 85.1161
93.0651 121.781 84.3161
92.8573 121.121 84.5622
91.1558 124.735 91.3925
90.1331 124.819 91.0272
90.6508 125.287 90.5364
89.3658 124.851 90.3389
89.8201 124.05 91.2577
91.7572 124.053 91.8704
92.0597 124.705 91.7878
91.0006 125.803 90.3424
90.1436 125.834 89.8386
90.4075 123.321 91.6018
91.3819 123.361 91.9098
90.9894 122.75 92.0698
92.3754 125.263 91.4196
91.8828 125.983 90.6541
92.7674 125.848 90.9932
89.3022 125.846 89.3404
88.902 125.238 89.65
88.6489 125.64 88.6835
87.7991 127.312 82.8615
88.3597 127.979 82.0406
88.316 127.958 83.1824
89.1958 128.516 81.4757
88.672 127.797 81.1189
87.485 126.549 82.5843
87.3548 126.79 83.6154
88.5008 127.799 84.3001
89.1001 128.283 83.6329
88.297 127.013 81.0162
87.6404 126.525 81.685
88.0397 126.22 80.9375
87.3001 126.785 84.6406
88.1274 127.189 84.9726
87.4653 126.865 85.9287
89.8873 128.7 83.1786
89.9891 128.98 81.9732
90.8611 128.985 82.8268
89.7834 118.898 90.792
90.4284 117.848 91.6239
89.9226 117.812 90.6943
91.1515 116.971 92.2604
91.1029 118.218 92.2937
90.1275 119.787 90.6338
89.4526 119.791 89.9014
89.5347 117.888 89.5494
90.2549 116.929 90.4231
91.2749 119.302 91.8993
90.8074 119.955 91.0544
91.3616 120.261 91.6477
88.8965 119.948 89.0506
88.8887 118.928 88.8672
88.5892 120.086 88.0703
90.9348 116.459 90.6762
91.3406 116.295 91.9885
91.9501 115.986 90.9984
88.9703 122.535 82.7121
88.1817 122.232 82.7776
88.9175 121.744 83.5461
87.552 122.2 83.2174
87.4798 122.769 82.1252
89.033 122.969 81.7027
89.6548 122.646 82.5484
89.4283 120.934 84.1131
88.7098 120.74 84.1588
87.508 123.284 81.3037
88.3764 123.224 80.9041
87.7424 123.726 80.587
90.1768 122.108 83.1783
90.1628 121.087 83.8475
90.7159 121.225 83.7942
88.0842 120.837 84.4445
87.7946 121.742 84.1901
87.7942 121.107 84.9507
POLYGONS 1280  5120
3 164 162 163
3 163 44 164
3 162 43 163
3 164 42 162
3 166 165 163
3 163 43 166
3 165 44 163
3 166 14 165
3 168 167 162
3 162 42 168
3 167 43 162
3 168 13 167
3 170 169 164
3 164 44 170
3 169 42 164
3 170 12 169
3 173 171 172
3 172 46 173
3 171 43 172
3 173 45 171
3 167 174 172
3 172 43 167
3 174 46 172
3 167 13 174
3 175 166 171
3 171 45 175
3 166 43 171
3 175 14 166
3 177 176 173
3 173 46 177
3 176 45 173
3 177 4 176
3 180 178 179
3 179 48 180
3 178 42 179
3 180 47 178
3 169 181 179
3 179 42 169
3 181 48 179
3 169 12 181
3 182 168 178
3 178 47 182
3 168 42 178
3 182 13 168
3 184 183 180
3 180 48 184
3 183 47 180
3 184 8 183
3 187 185 186
3 186 50 187
3 185 44 186
3 187 49 185
3 165 188 186
3 186 44 165
3 188 50 186
3 165 14 188
3 189 170 185
3 185 49 189
3 170 44 185
3 189 12 170
3 191 190 187
3 187 50 191
3 190 49 187
3 191 7 190
3 194 192 193
3 193 53 194
3 192 52 193
3 194 51 192
3 196 195 193
3 193 52 196
3 195 53 193
3 196 16 195
3 198 197 192
3 192 51 198
3 197 52 192
3 198 14 197
3 200 199 194
3 194 53 200
3 199 51 194
3 200 15 199
3 203 201 202
3 202 45 203
3 201 52 202
3 203 54 201
3 197 175 202
3 202 52 197
3 175 45 202
3 197 14 175
3 204 196 201
3 201 54 204
3 196 52 201
3 204 16 196
3 176 205 203
3 203 45 176
3 205 54 203
3 176 4 205
3 208 206 207
3 207 55 208
3 206 51 207
3 208 50 206
3 199 209 207
3 207 51 199
3 209 55 207
3 199 15 209
3 188 198 206
3 206 50 188
3 198 51 206
3 188 14 198
3 210 191 208
3 208 55 210
3 191 50 208
3 210 7 191
3 213 211 212
3 212 57 213
3 211 53 212
3 213 56 211
3 195 214 212
3 212 53 195
3 214 57 212
3 195 16 214
3 215 200 211
3 211 56 215
3 200 53 211
3 215 15 200
3 217 216 213
3 213 57 217
3 216 56 213
3 217 9 216
3 220 218 219
3 219 60 220
3 218 59 219
3 220 58 218
3 222 221 219
3 219 59 222
3 221 60 219
3 222 19 221
3 224 223 218
3 218 58 224
3 223 59 218
3 224 18 223
3 226 225 220
3 220 60 226
3 225 58 220
3 226 17 225
3 229 227 228
3 228 62 229
3 227 59 228
3 229 61 227
3 223 230 228
3 228 59 223
3 230 62 228
3 223 18 230
3 231 222 227
3 227 61 231
3 222 59 227
3 231 19 222
3 233 232 229
3 229 62 233
3 232 61 229
3 233 5 232
3 236 234 235
3 235 64 236
3 234 58 235
3 236 63 234
3 225 237 235
3 235 58 225
3 237 64 235
3 225 17 237
3 238 224 234
3 234 63 238
3 224 58 234
3 238 18 224
3 240 239 236
3 236 64 240
3 239 63 236
3 240 6 239
3 243 241 242
3 242 66 243
3 241 60 242
3 243 65 241
3 221 244 242
3 242 60 221
3 244 66 242
3 221 19 244
3 245 226 241
3 241 65 245
3 226 60 241
3 245 17 226
3 247 246 243
3 243 66 247
3 246 65 243
3 247 11 246
3 250 248 249
3 249 69 250
3 248 68 249
3 250 67 248
3 252 251 249
3 249 68 252
3 251 69 249
3 252 18 251
3 254 253 248
3 248 67 254
3 253 68 248
3 254 21 253
3 256 255 250
3 250 69 256
3 255 67 250
3 256 20 255
3 259 257 258
3 258 70 259
3 257 68 258
3 259 62 257
3 253 260 258
3 258 68 253
3 260 70 258
3 253 21 260
3 230 252 257
3 257 62 230
3 252 68 257
3 230 18 252
3 261 233 259
3 259 70 261
3 233 62 259
3 261 5 233
3 264 262 263
3 263 72 264
3 262 67 263
3 264 71 262
3 255 265 263
3 263 67 255
3 265 72 263
3 255 20 265
3 266 254 262
3 262 71 266
3 254 67 262
3 266 21 254
3 268 267 264
3 264 72 268
3 267 71 264
3 268 10 267
3 271 269 270
3 270 63 271
3 269 69 270
3 271 73 269
3 251 238 270
3 270 69 251
3 238 63 270
3 251 18 238
3 272 256 269
3 269 73 272
3 256 69 269
3 272 20 256
3 239 273 271
3 271 63 239
3 273 73 271
3 239 6 273
3 276 274 275
3 275 76 276
3 274 75 275
3 276 74 274
3 278 277 275
3 275 75 278
3 277 76 275
3 278 24 277
3 280 279 274
3 274 74 280
3 279 75 274
3 280 23 279
3 282 281 276
3 276 76 282
3 281 74 276
3 282 22 281
3 285 283 284
3 284 78 285
3 283 75 284
3 285 77 283
3 279 286 284
3 284 75 279
3 286 78 284
3 279 23 286
3 287 278 283
3 283 77 287
3 278 75 283
3 287 24 278
3 289 288 285
3 285 78 289
3 288 77 285
3 289 0 288
3 292 290 291
3 291 80 292
3 290 74 291
3 292 79 290
3 281 293 291
3 291 74 281
3 293 80 291
3 281 22 293
3 294 280 290
3 290 79 294
3 280 74 290
3 294 23 280
3 296 295 292
3 292 80 296
3 295 79 292
3 296 4 295
3 299 297 298
3 298 82 299
3 297 76 298
3 299 81 297
3 277 300 298
3 298 76 277
3 300 82 298
3 277 24 300
3 301 282 297
3 297 81 301
3 282 76 297
3 301 22 282
3 303 302 299
3 299 82 303
3 302 81 299
3 303 3 302
3 306 304 305
3 305 85 306
3 304 84 305
3 306 83 304
3 308 307 305
3 305 84 308
3 307 85 305
3 308 26 307
3 310 309 304
3 304 83 310
3 309 84 304
3 310 24 309
3 312 311 306
3 306 85 312
3 311 83 306
3 312 25 311
3 315 313 314
3 314 77 315
3 313 84 314
3 315 86 313
3 309 287 314
3 314 84 309
3 287 77 314
3 309 24 287
3 316 308 313
3 313 86 316
3 308 84 313
3 316 26 308
3 288 317 315
3 315 77 288
3 317 86 315
3 288 0 317
3 320 318 319
3 319 87 320
3 318 83 319
3 320 82 318
3 311 321 319
3 319 83 311
3 321 87 319
3 311 25 321
3 300 310 318
3 318 82 300
3 310 83 318
3 300 24 310
3 322 303 320
3 320 87 322
3 303 82 320
3 322 3 303
3 325 323 324
3 324 89 325
3 323 85 324
3 325 88 323
3 307 326 324
3 324 85 307
3 326 89 324
3 307 26 326
3 327 312 323
3 323 88 327
3 312 85 323
3 327 25 312
3 329 328 325
3 325 89 329
3 328 88 325
3 329 5 328
3 332 330 331
3 331 92 332
3 330 91 331
3 332 90 330
3 334 333 331
3 331 91 334
3 333 92 331
3 334 29 333
3 336 335 330
3 330 90 336
3 335 91 330
3 336 28 335
3 338 337 332
3 332 92 338
3 337 90 332
3 338 27 337
3 341 339 340
3 340 94 341
3 339 91 340
3 341 93 339
3 335 342 340
3 340 91 335
3 342 94 340
3 335 28 342
3 343 334 339
3 339 93 343
3 334 91 339
3 343 29 334
3 345 344 341
3 341 94 345
3 344 93 341
3 345 2 344
3 348 346 347
3 347 96 348
3 346 90 347
3 348 95 346
3 337 349 347
3 347 90 337
3 349 96 347
3 337 27 349
3 350 336 346
3 346 95 350
3 336 90 346
3 350 28 336
3 352 351 348
3 348 96 352
3 351 95 348
3 352 7 351
3 355 353 354
3 354 98 355
3 353 92 354
3 355 97 353
3 333 356 354
3 354 92 333
3 356 98 354
3 333 29 356
3 357 338 353
3 353 97 357
3 338 92 353
3 357 27 338
3 359 358 355
3 355 98 359
3 358 97 355
3 359 1 358
3 362 360 361
3 361 101 362
3 360 100 361
3 362 99 360
3 364 363 361
3 361 100 364
3 363 101 361
3 364 31 363
3 366 365 360
3 360 99 366
3 365 100 360
3 366 29 365
3 368 367 362
3 362 101 368
3 367 99 362
3 368 30 367
3 371 369 370
3 370 93 371
3 369 100 370
3 371 102 369
3 365 343 370
3 370 100 365
3 343 93 370
3 365 29 343
3 372 364 369
3 369 102 372
3 364 100 369
3 372 31 364
3 344 373 371
3 371 93 344
3 373 102 371
3 344 2 373
3 376 374 375
3 375 103 376
3 374 99 375
3 376 98 374
3 367 377 375
3 375 99 367
3 377 103 375
3 367 30 377
3 356 366 374
3 374 98 356
3 366 99 374
3 356 29 366
3 378 359 376
3 376 103 378
3 359 98 376
3 378 1 359
3 381 379 380
3 380 105 381
3 379 101 380
3 381 104 379
3 363 382 380
3 380 101 363
3 382 105 380
3 363 31 382
3 383 368 379
3 379 104 383
3 368 101 379
3 383 30 368
3 385 384 381
3 381 105 385
3 384 104 381
3 385 6 384
3 388 386 387
3 387 108 388
3 386 107 387
3 388 106 386
3 390 389 387
3 387 107 390
3 389 108 387
3 390 34 389
3 392 391 386
3 386 106 392
3 391 107 386
3 392 33 391
3 394 393 388
3 388 108 394
3 393 106 388
3 394 32 393
3 397 395 396
3 396 110 397
3 395 107 396
3 397 109 395
3 391 398 396
3 396 107 391
3 398 110 396
3 391 33 398
3 399 390 395
3 395 109 399
3 390 107 395
3 399 34 390
3 401 400 397
3 397 110 401
3 400 109 397
3 401 8 400
3 404 402 403
3 403 112 404
3 402 106 403
3 404 111 402
3 393 405 403
3 403 106 393
3 405 112 403
3 393 32 405
3 406 392 402
3 402 111 406
3 392 106 402
3 406 33 392
3 408 407 404
3 404 112 408
3 407 111 404
3 408 0 407
3 411 409 410
3 410 114 411
3 409 108 410
3 411 113 409
3 389 412 410
3 410 108 389
3 412 114 410
3 389 34 412
3 413 394 409
3 409 113 413
3 394 108 409
3 413 32 394
3 415 414 411
3 411 114 415
3 414 113 411
3 415 11 414
3 418 416 417
3 417 117 418
3 416 116 417
3 418 115 416
3 420 419 417
3 417 116 420
3 419 117 417
3 420 36 419
3 422 421 416
3 416 115 422
3 421 116 416
3 422 34 421
3 424 423 418
3 418 117 424
3 423 115 418
3 424 35 423
3 427 425 426
3 426 109 427
3 425 116 426
3 427 118 425
3 421 399 426
3 426 116 421
3 399 109 426
3 421 34 399
3 428 420 425
3 425 118 428
3 420 116 425
3 428 36 420
3 400 429 427
3 427 109 400
3 429 118 427
3 400 8 429
3 432 430 431
3 431 119 432
3 430 115 431
3 432 114 430
3 423 433 431
3 431 115 423
3 433 119 431
3 423 35 433
3 412 422 430
3 430 114 412
3 422 115 430
3 412 34 422
3 434 415 432
3 432 119 434
3 415 114 432
3 434 11 415
3 437 435 436
3 436 121 437
3 435 117 436
3 437 120 435
3 419 438 436
3 436 117 419
3 438 121 436
3 419 36 438
3 439 424 435
3 435 120 439
3 424 117 435
3 439 35 424
3 441 440 437
3 437 121 441
3 440 120 437
3 441 1 440
3 444 442 443
3 443 124 444
3 442 123 443
3 444 122 442
3 446 445 443
3 443 123 446
3 445 124 443
3 446 39 445
3 448 447 442
3 442 122 448
3 447 123 442
3 448 38 447
3 450 449 444
3 444 124 450
3 449 122 444
3 450 37 449
3 453 451 452
3 452 126 453
3 451 123 452
3 453 125 451
3 447 454 452
3 452 123 447
3 454 126 452
3 447 38 454
3 455 446 451
3 451 125 455
3 446 123 451
3 455 39 446
3 457 456 453
3 453 126 457
3 456 125 453
3 457 9 456
3 460 458 459
3 459 128 460
3 458 122 459
3 460 127 458
3 449 461 459
3 459 122 449
3 461 128 459
3 449 37 461
3 462 448 458
3 458 127 462
3 448 122 458
3 462 38 448
3 464 463 460
3 460 128 464
3 463 127 460
3 464 10 463
3 467 465 466
3 466 130 467
3 465 124 466
3 467 129 465
3 445 468 466
3 466 124 445
3 468 130 466
3 445 39 468
3 469 450 465
3 465 129 469
3 450 124 465
3 469 37 450
3 471 470 467
3 467 130 471
3 470 129 467
3 471 3 470
3 474 472 473
3 473 133 474
3 472 132 473
3 474 131 472
3 476 475 473
3 473 132 476
3 475 133 473
3 476 38 475
3 478 477 472
3 472 131 478
3 477 132 472
3 478 41 477
3 480 479 474
3 474 133 480
3 479 131 474
3 480 40 479
3 483 481 482
3 482 134 483
3 481 132 482
3 483 126 481
3 477 484 482
3 482 132 477
3 484 134 482
3 477 41 484
3 454 476 481
3 481 126 454
3 476 132 481
3 454 38 476
3 485 457 483
3 483 134 485
3 457 126 483
3 485 9 457
3 488 486 487
3 487 136 488
3 486 131 487
3 488 135 486
3 479 489 487
3 487 131 479
3 489 136 487
3 479 40 489
3 490 478 486
3 486 135 490
3 478 131 486
3 490 41 478
3 492 491 488
3 488 136 492
3 491 135 488
3 492 2 491
3 495 493 494
3 494 127 495
3 493 133 494
3 495 137 493
3 475 462 494
3 494 133 475
3 462 127 494
3 475 38 462
3 496 480 493
3 493 137 496
3 480 133 493
3 496 40 480
3 463 497 495
3 495 127 463
3 497 137 495
3 463 10 497
3 500 498 499
3 499 140 500
3 498 139 499
3 500 138 498
3 502 501 499
3 499 139 502
3 501 140 499
3 502 33 501
3 504 503 498
3 498 138 504
3 503 139 498
3 504 13 503
3 506 505 500
3 500 140 506
3 505 138 500
3 506 23 505
3 509 507 508
3 508 47 509
3 507 139 508
3 509 110 507
3 503 182 508
3 508 139 503
3 182 47 508
3 503 13 182
3 398 502 507
3 507 110 398
3 502 139 507
3 398 33 502
3 183 401 509
3 509 47 183
3 401 110 509
3 183 8 401
3 512 510 511
3 511 79 512
3 510 138 511
3 512 46 510
3 505 294 511
3 511 138 505
3 294 79 511
3 505 23 294
3 174 504 510
3 510 46 174
3 504 138 510
3 174 13 504
3 295 177 512
3 512 79 295
3 177 46 512
3 295 4 177
3 515 513 514
3 514 111 515
3 513 140 514
3 515 78 513
3 501 406 514
3 514 140 501
3 406 111 514
3 501 33 406
3 286 506 513
3 513 78 286
3 506 140 513
3 286 23 506
3 407 289 515
3 515 111 407
3 289 78 515
3 407 0 289
3 518 516 517
3 517 143 518
3 516 142 517
3 518 141 516
3 520 519 517
3 517 142 520
3 519 143 517
3 520 19 519
3 522 521 516
3 516 141 522
3 521 142 516
3 522 32 521
3 524 523 518
3 518 143 524
3 523 141 518
3 524 26 523
3 527 525 526
3 526 113 527
3 525 142 526
3 527 66 525
3 521 413 526
3 526 142 521
3 413 113 526
3 521 32 413
3 244 520 525
3 525 66 244
3 520 142 525
3 244 19 520
3 414 247 527
3 527 113 414
3 247 66 527
3 414 11 247
3 530 528 529
3 529 86 530
3 528 141 529
3 530 112 528
3 523 316 529
3 529 141 523
3 316 86 529
3 523 26 316
3 405 522 528
3 528 112 405
3 522 141 528
3 405 32 522
3 317 408 530
3 530 86 317
3 408 112 530
3 317 0 408
3 533 531 532
3 532 61 533
3 531 143 532
3 533 89 531
3 519 231 532
3 532 143 519
3 231 61 532
3 519 19 231
3 326 524 531
3 531 89 326
3 524 143 531
3 326 26 524
3 232 329 533
3 533 61 232
3 329 89 533
3 232 5 329
3 536 534 535
3 535 146 536
3 534 145 535
3 536 144 534
3 538 537 535
3 535 145 538
3 537 146 535
3 538 22 537
3 540 539 534
3 534 144 540
3 539 145 534
3 540 16 539
3 542 541 536
3 536 146 542
3 541 144 536
3 542 39 541
3 545 543 544
3 544 54 545
3 543 145 544
3 545 80 543
3 539 204 544
3 544 145 539
3 204 54 544
3 539 16 204
3 293 538 543
3 543 80 293
3 538 145 543
3 293 22 538
3 205 296 545
3 545 54 205
3 296 80 545
3 205 4 296
3 548 546 547
3 547 125 548
3 546 144 547
3 548 57 546
3 541 455 547
3 547 144 541
3 455 125 547
3 541 39 455
3 214 540 546
3 546 57 214
3 540 144 546
3 214 16 540
3 456 217 548
3 548 125 456
3 217 57 548
3 456 9 217
3 551 549 550
3 550 81 551
3 549 146 550
3 551 130 549
3 537 301 550
3 550 146 537
3 301 81 550
3 537 22 301
3 468 542 549
3 549 130 468
3 542 146 549
3 468 39 542
3 302 471 551
3 551 81 302
3 471 130 551
3 302 3 471
3 554 552 553
3 553 149 554
3 552 148 553
3 554 147 552
3 556 555 553
3 553 148 556
3 555 149 553
3 556 21 555
3 558 557 552
3 552 147 558
3 557 148 552
3 558 25 557
3 560 559 554
3 554 149 560
3 559 147 554
3 560 37 559
3 563 561 562
3 562 88 563
3 561 148 562
3 563 70 561
3 557 327 562
3 562 148 557
3 327 88 562
3 557 25 327
3 260 556 561
3 561 70 260
3 556 148 561
3 260 21 556
3 328 261 563
3 563 88 328
3 261 70 563
3 328 5 261
3 566 564 565
3 565 129 566
3 564 147 565
3 566 87 564
3 559 469 565
3 565 147 559
3 469 129 565
3 559 37 469
3 321 558 564
3 564 87 321
3 558 147 564
3 321 25 558
3 470 322 566
3 566 129 470
3 322 87 566
3 470 3 322
3 569 567 568
3 568 71 569
3 567 149 568
3 569 128 567
3 555 266 568
3 568 149 555
3 266 71 568
3 555 21 266
3 461 560 567
3 567 128 461
3 560 149 567
3 461 37 560
3 267 464 569
3 569 71 267
3 464 128 569
3 267 10 464
3 572 570 571
3 571 152 572
3 570 151 571
3 572 150 570
3 574 573 571
3 571 151 574
3 573 152 571
3 574 27 573
3 576 575 570
3 570 150 576
3 575 151 570
3 576 12 575
3 578 577 572
3 572 152 578
3 577 150 572
3 578 36 577
3 581 579 580
3 580 49 581
3 579 151 580
3 581 96 579
3 575 189 580
3 580 151 575
3 189 49 580
3 575 12 189
3 349 574 579
3 579 96 349
3 574 151 579
3 349 27 574
3 190 352 581
3 581 49 190
3 352 96 581
3 190 7 352
3 584 582 583
3 583 118 584
3 582 150 583
3 584 48 582
3 577 428 583
3 583 150 577
3 428 118 583
3 577 36 428
3 181 576 582
3 582 48 181
3 576 150 582
3 181 12 576
3 429 184 584
3 584 118 429
3 184 48 584
3 429 8 184
3 587 585 586
3 586 97 587
3 585 152 586
3 587 121 585
3 573 357 586
3 586 152 573
3 357 97 586
3 573 27 357
3 438 578 585
3 585 121 438
3 578 152 585
3 438 36 578
3 358 441 587
3 587 97 358
3 441 121 587
3 358 1 441
3 590 588 589
3 589 155 590
3 588 154 589
3 590 153 588
3 592 591 589
3 589 154 592
3 591 155 589
3 592 17 591
3 594 593 588
3 588 153 594
3 593 154 588
3 594 30 593
3 596 595 590
3 590 155 596
3 595 153 590
3 596 35 595
3 599 597 598
3 598 104 599
3 597 154 598
3 599 64 597
3 593 383 598
3 598 154 593
3 383 104 598
3 593 30 383
3 237 592 597
3 597 64 237
3 592 154 597
3 237 17 592
3 384 240 599
3 599 104 384
3 240 64 599
3 384 6 240
3 602 600 601
3 601 120 602
3 600 153 601
3 602 103 600
3 595 439 601
3 601 153 595
3 439 120 601
3 595 35 439
3 377 594 600
3 600 103 377
3 594 153 600
3 377 30 594
3 440 378 602
3 602 120 440
3 378 103 602
3 440 1 378
3 605 603 604
3 604 65 605
3 603 155 604
3 605 119 603
3 591 245 604
3 604 155 591
3 245 65 604
3 591 17 245
3 433 596 603
3 603 119 433
3 596 155 603
3 433 35 596
3 246 434 605
3 605 65 246
3 434 119 605
3 246 11 434
3 608 606 607
3 607 158 608
3 606 157 607
3 608 156 606
3 610 609 607
3 607 157 610
3 609 158 607
3 610 15 609
3 612 611 606
3 606 156 612
3 611 157 606
3 612 28 611
3 614 613 608
3 608 158 614
3 613 156 608
3 614 41 613
3 617 615 616
3 616 95 617
3 615 157 616
3 617 55 615
3 611 350 616
3 616 157 611
3 350 95 616
3 611 28 350
3 209 610 615
3 615 55 209
3 610 157 615
3 209 15 610
3 351 210 617
3 617 95 351
3 210 55 617
3 351 7 210
3 620 618 619
3 619 135 620
3 618 156 619
3 620 94 618
3 613 490 619
3 619 156 613
3 490 135 619
3 613 41 490
3 342 612 618
3 618 94 342
3 612 156 618
3 342 28 612
3 491 345 620
3 620 135 491
3 345 94 620
3 491 2 345
3 623 621 622
3 622 56 623
3 621 158 622
3 623 134 621
3 609 215 622
3 622 158 609
3 215 56 622
3 609 15 215
3 484 614 621
3 621 134 484
3 614 158 621
3 484 41 614
3 216 485 623
3 623 56 216
3 485 134 623
3 216 9 485
3 626 624 625
3 625 161 626
3 624 160 625
3 626 159 624
3 628 627 625
3 625 160 628
3 627 161 625
3 628 31 627
3 630 629 624
3 624 159 630
3 629 160 624
3 630 20 629
3 632 631 626
3 626 161 632
3 631 159 626
3 632 40 631
3 635 633 634
3 634 73 635
3 633 160 634
3 635 105 633
3 629 272 634
3 634 160 629
3 272 73 634
3 629 20 272
3 382 628 633
3 633 105 382
3 628 160 633
3 382 31 628
3 273 385 635
3 635 73 273
3 385 105 635
3 273 6 385
3 638 636 637
3 637 137 638
3 636 159 637
3 638 72 636
3 631 496 637
3 637 159 631
3 496 137 637
3 631 40 496
3 265 630 636
3 636 72 265
3 630 159 636
3 265 20 630
3 497 268 638
3 638 137 497
3 268 72 638
3 497 10 268
3 641 639 640
3 640 102 641
3 639 161 640
3 641 136 639
3 627 372 640
3 640 161 627
3 372 102 640
3 627 31 372
3 489 632 639
3 639 136 489
3 632 161 639
3 489 40 632
3 373 492 641
3 641 102 373
3 492 136 641
3 373 2 492
