# vtk DataFile Version 3.0
this file was written using fslvtkio
ASCII
DATASET POLYDATA
POINTS 642 float
111.28 117.342 110.034
96.2899 111.699 107.787
92.7925 97.7899 102.126
108.934 102.86 106.185
106.388 107.016 116.113
109.425 110.418 100.082
99.0196 107.073 99.0526
95.6512 104.021 115.016
101.456 118.979 115.91
100.775 95.615 107.861
101.657 95.9118 96.6742
104.527 122.046 104.015
97.9615 112.021 117.326
104.232 113.458 117.514
100.543 104.99 117.191
97.4155 98.425 112.821
103.901 100.296 113.047
102.594 114.803 102.133
104.381 108.966 99.3652
108.721 118.796 101.114
99.2977 100.52 96.9466
105.333 102.439 99.4599
108.69 104.496 111.558
109.218 113.163 114.442
111.648 110.291 108.126
110.392 106.109 102.584
111.623 116.578 104.195
95.1799 108.512 112.122
93.3354 99.7156 109.336
93.9461 104.238 105.04
97.5919 110.174 103.13
95.3967 101.338 99.4478
109.54 123.296 106.603
107.387 120.184 113.709
103.028 122.558 110.446
100.041 117.745 106.795
97.4661 116.489 112.731
106.428 97.3543 101.227
99.4361 93.3813 101.129
105.962 96.8391 107.159
94.5701 95.4898 95.7508
95.3386 94.9001 104.502
101.017 113.03 118.143
102.401 109.202 117.903
99.1466 108.414 118.059
103.55 105.904 116.877
105.488 110.398 117.352
103.048 116.5 117.082
99.4168 115.654 117.031
96.7625 108.067 116.573
97.7765 103.955 116.769
99.0167 101.282 115.629
102.448 102.617 115.613
100.717 99.1082 113.359
105.376 103.476 114.663
95.9666 100.574 114.256
99.2192 97.0955 110.418
102.606 97.8059 110.676
103.664 112.133 100.532
106.79 114.219 100.33
105.417 117.098 101.087
109.251 114.752 100.304
106.907 109.773 99.8102
101.735 108.029 99.0374
100.958 110.731 101.119
103.572 118.556 102.916
106.59 120.971 101.919
102.379 101.285 97.7577
104.964 105.852 98.9948
101.943 104.74 97.898
107.594 106.177 99.8525
104.008 98.9948 97.6181
100.384 98.1313 95.6888
99.2731 103.997 97.8217
109.432 108.815 113.238
111.01 111.536 111.518
110.691 107.303 110.255
111.595 113.81 109.041
110.55 115.172 112.458
108.063 110.129 115.684
107.84 105.483 113.983
109.042 103.549 108.867
111.146 106.499 107.315
111.334 108.451 105.264
111.697 113.346 106.092
111.329 111.4 103.398
111.668 117.236 106.983
110.039 104.234 104.413
110.327 108.208 101.035
110.989 113.615 101.822
94.1512 104.081 110.906
93.3718 102.202 107.429
94.7032 106.172 108.742
93.3016 100.982 103.794
92.9547 98.6884 105.898
94.1435 101.844 112.406
95.186 106.629 113.936
95.5867 110.053 109.875
95.3935 107.692 106.474
95.6294 106.896 103.905
94.1772 102.719 102.001
95.7379 105.769 100.966
93.5511 99.2579 100.021
96.7733 110.908 105.244
98.3641 108.565 101.297
96.7988 104.416 98.7331
108.914 121.991 110.42
105.294 122.272 112.413
106.552 123.662 107.921
101.749 121.405 113.742
104.547 119.649 115.284
110.024 118.93 112.315
110.994 120.515 108.648
107.533 123.759 103.893
103.753 122.756 106.878
101.32 120.887 108.576
99.8355 120.205 112.026
98.6566 117.484 109.763
98.7344 118.057 114.896
102.231 119.795 105.381
97.8541 114.783 107.221
96.8321 114.11 110.314
103.683 94.1753 100.917
103.106 94.4735 103.95
106.649 96.3359 103.905
103.509 95.9447 107.711
100.304 94.3094 104.509
100.954 93.9286 98.5429
104.506 96.4769 98.6678
107.711 100.229 103.95
107.611 99.3885 106.683
94.1392 94.1652 99.6553
97.2616 93.792 102.874
96.9137 93.6492 98.1831
97.9485 95.1582 106.679
93.5176 95.9242 103.343
92.8865 96.3953 98.4026
98.1053 95.1924 95.8566
107.118 113.498 116.613
106.098 117.131 116.162
108.812 117.047 114.554
111.098 120.319 105.503
109.547 122.134 103.129
110.776 117.451 101.924
105.214 98.4733 110.102
106.495 101.936 112.306
107.413 100.59 109.285
108.176 101.955 102.365
108.476 104.263 100.703
106.124 99.8062 100.039
97.1334 114.636 115.344
95.9694 110.469 115.042
96.0031 112.62 112.44
98.5442 114.151 104.941
99.7731 112.626 102.474
101.134 116.527 104.134
94.3611 97.0456 107.07
94.8298 98.7221 111.6
96.637 96.6134 108.999
97.0723 97.7264 95.1015
96.9159 100.595 97.7454
93.7671 98.4518 96.6644
101.629 111.086 118.2
100.778 108.996 118.196
100.084 110.721 118.371
99.9416 106.885 117.868
101.322 107.243 117.726
103.078 111.34 117.895
102.564 112.935 117.943
99.4589 112.273 118.03
98.6875 110.336 117.971
102.844 107.467 117.546
103.887 109.857 117.708
104.406 108.114 117.345
104.667 111.827 117.57
101.959 105.576 117.156
104.974 106.57 116.672
105.788 108.545 116.934
102.115 114.653 117.837
100.067 114.263 117.961
101.204 115.982 117.415
98.6689 113.835 117.396
103.634 114.915 117.36
102.118 117.717 116.79
100.444 117.282 116.753
97.8875 108.372 117.512
98.4989 106.264 117.677
97.2236 106.059 117.007
99.1617 104.758 117.222
97.3526 110.105 117.206
96.2082 106.001 116.053
96.6504 104.129 116.115
100.745 101.882 115.713
101.538 100.739 114.662
99.921 100.155 114.578
102.284 99.8522 113.512
102.999 101.277 114.459
101.461 103.678 116.511
99.853 103.081 116.453
98.2809 99.688 114.475
99.0591 98.8134 113.41
103.916 102.884 115.144
103.01 104.291 116.426
104.71 104.756 115.968
104.479 101.747 113.968
105.933 105.275 115.571
98.517 102.654 116.439
97.4561 100.773 115.19
96.8224 102.302 115.813
96.7501 99.3976 113.799
95.7951 102.273 114.815
99.86 98.1172 112.063
101.757 98.5921 112.154
100.919 97.5452 110.703
103.169 99.031 112.075
98.3499 97.7774 111.755
100.181 96.3623 109.341
101.694 96.627 109.518
105.186 113.231 100.443
106.155 115.657 100.658
104.63 114.7 100.841
107.025 117.725 100.865
107.679 116.54 100.535
105.601 111.86 100.001
104.296 110.904 99.9479
103.313 113.718 101.164
103.999 115.793 101.483
108.006 114.697 100.34
106.794 111.984 100.05
108.097 112.342 99.9965
105.698 109.943 99.7058
109.054 116.953 100.652
109.232 112.443 100.075
108.131 110.21 99.8726
102.926 110.084 99.9522
102.37 111.653 100.902
101.415 109.479 100.026
101.849 112.927 101.593
103.152 108.594 99.1931
100.393 107.605 98.9926
100.101 108.868 100.143
104.365 117.782 101.821
106.049 118.973 101.305
104.916 119.818 101.996
107.535 119.664 101.307
103.172 116.702 102.412
104.068 120.334 103.224
105.276 121.537 102.642
103.698 103.616 98.3435
103.491 105.289 98.4044
102.193 103.112 97.832
103.181 106.77 98.478
104.665 107.439 99.0481
104.952 103.949 98.9839
103.894 102.148 98.5683
100.966 101.134 97.2557
100.732 102.625 97.5458
105.881 108.027 99.5074
106.133 105.89 99.4559
107.351 108.022 99.7737
106.383 104.311 99.5645
108.612 108.351 99.9747
103.111 100.24 97.722
101.453 99.8266 96.616
102.407 98.7361 96.3462
99.8883 99.5138 96.1475
104.397 100.738 98.6546
103.028 97.5318 96.8848
101.279 97.1089 96.0788
100.706 104.444 97.8052
102.033 106.677 98.3846
100.475 106.286 98.1108
99.4125 102.346 97.5417
99.053 105.558 98.1351
110.309 110.16 112.432
110.974 109.443 110.952
110.164 108.062 111.789
111.347 108.881 109.509
111.429 110.545 109.969
110.158 112.027 112.984
109.521 110.946 113.684
109.331 106.772 112.403
109.743 106.146 111.133
111.485 112.44 110.338
110.792 113.286 112.174
111.312 114.232 110.866
109.911 114.027 113.521
111.641 111.922 108.788
111.45 115.469 109.599
111.127 115.99 111.198
108.806 109.642 114.426
108.74 107.187 113.681
108.083 107.858 114.983
108.389 105.11 112.784
108.718 111.703 114.99
107.199 108.546 116.04
107.222 106.223 115.143
109.971 105.444 109.71
111.124 106.961 108.869
110.151 105.026 108.177
111.491 108.45 107.932
109.014 104.167 110.315
109.095 103.32 107.47
110.287 104.734 106.759
111.629 110.875 105.786
111.624 112.292 104.763
111.345 109.878 104.369
111.624 113.793 103.908
111.697 114.611 104.978
111.681 111.653 107.003
111.584 109.594 106.651
110.928 107.602 103.843
110.996 108.952 103.164
111.592 115.199 106.379
111.726 113.304 107.596
111.573 115.387 107.98
111.728 116.764 105.508
111.503 117.077 108.546
111.371 107.665 106.445
110.94 106.454 104.756
110.841 105.516 105.782
110.37 105.252 103.515
109.648 103.712 105.416
110.868 109.795 102.211
111.231 112.665 102.717
110.72 111.045 101.417
111.442 115.139 103.1
110.473 107.439 101.968
110.054 109.427 100.474
110.329 111.994 100.734
93.7294 103.114 109.181
93.9477 104.178 108.074
94.3282 105.11 109.781
94.1806 105.023 107.025
93.6042 103.43 106.443
93.2071 101.247 108.586
93.6013 102.024 110.033
94.6543 106.144 111.309
94.7993 107.036 110.412
93.1374 101.744 105.746
92.9622 100.493 106.848
92.9704 100.004 105.006
93.0924 99.4142 107.729
93.4207 102.664 104.629
92.9983 99.4464 103.126
92.8432 98.4041 104.062
94.0423 102.777 111.544
94.5619 105.297 112.324
94.6657 104.247 113.206
95.0222 107.38 112.877
93.6058 100.754 110.796
94.8539 103.082 113.808
95.4432 105.435 114.616
95.1901 108.033 109.479
94.936 106.747 107.555
95.4021 108.766 108.19
94.6152 105.872 105.96
95.3249 109.131 110.999
95.824 110.602 108.636
95.7474 109.563 107.102
94.5409 104.87 102.963
94.7486 104.325 101.508
95.5784 106.252 102.49
95.2931 103.835 100.205
94.7892 102.335 100.688
93.8856 103.57 103.428
94.654 105.49 104.364
96.5166 108.247 103.255
96.5363 107.538 102.12
94.2462 100.991 101.157
93.6478 101.9 102.975
93.5329 100.064 101.969
94.4653 100.328 99.7023
93.0434 98.5997 101.186
95.3345 107.017 105.211
96.4102 108.613 104.508
96.0463 109.275 105.79
97.0997 110.367 104.089
96.4374 111.152 106.516
97.0246 107.132 101.099
96.1781 105.21 99.7836
97.393 106.697 99.7163
95.9781 103.073 99.262
97.7139 109.11 102.138
98.7823 107.883 100.181
97.7561 105.826 98.6117
107.163 122.499 111.082
106.189 123.12 110.262
107.701 123.123 109.375
104.991 123.212 109.374
104.416 122.729 111.278
106.492 121.504 112.857
108.025 121.331 112.021
109.187 122.824 108.64
108.156 123.772 107.337
103.603 122.049 113.133
104.933 121.158 113.993
103.171 120.913 114.775
106.053 120.111 114.486
102.49 122.183 112.14
101.464 120.271 114.984
103.063 119.343 115.828
109.419 120.562 111.576
110.224 121.51 109.76
110.765 119.611 110.614
110.295 122.071 107.967
108.671 119.92 112.917
110.854 117.938 111.367
111.27 118.895 109.364
107.017 124.002 105.948
105.166 123.343 107.389
105.526 123.535 105.303
103.628 122.844 108.725
108.562 123.941 105.287
105.764 123.213 103.765
103.884 122.36 105.499
100.56 120.676 110.309
99.2902 119.114 110.778
99.9462 119.38 109.345
98.1117 117.347 111.186
98.6185 118.437 112.195
101.252 121.637 111.339
102.006 121.954 109.549
100.48 119.232 107.928
99.3862 117.879 108.397
99.184 119.219 113.353
100.805 121.09 112.87
100.208 119.864 114.447
98.0471 117.577 113.66
99.9806 118.563 115.621
102.476 122.051 107.9
101.613 120.273 107.117
102.797 121.39 106.19
101.059 118.913 106.273
103.417 120.828 104.609
98.3372 116.154 108.492
97.6582 115.898 110.067
97.2796 114.398 108.691
97.147 115.543 111.505
98.9934 116.458 107.209
96.9728 113.216 107.472
96.505 112.876 109.045
103.567 94.1311 102.498
105.035 95.1422 103.856
105.429 94.9588 102.348
106.006 96.1988 105.381
104.61 95.3723 105.317
101.577 93.7303 102.569
101.729 93.6935 101.191
105.351 95.2567 100.892
106.536 96.5096 102.355
103.378 95.0716 105.932
101.746 94.3899 104.214
101.903 94.9292 106.328
99.9698 93.6524 102.787
104.751 96.1145 107.156
102.151 95.8143 107.967
100.381 94.759 106.282
102.474 93.954 99.7529
104.336 94.9994 99.4907
102.86 94.7779 98.1271
105.507 96.5729 100.003
100.324 93.6028 99.8758
101.319 94.6859 97.1943
103.329 96.3982 97.5516
107.377 98.0843 103.802
107.332 97.5946 105.315
107.757 99.8021 105.335
107.026 97.6829 106.736
107.172 98.5556 102.619
108.246 101.618 105.132
108.135 101.3 106.614
95.7382 93.6328 101.066
96.9319 93.3234 100.425
95.383 93.7137 98.804
98.1812 93.3951 99.6426
98.2622 93.4548 101.984
95.9613 94.2136 103.198
94.7142 94.2529 101.75
94.0393 94.4172 97.5372
95.5596 94.2097 96.8264
99.0296 93.9619 103.669
97.3653 94.3608 104.506
98.9715 94.5468 105.716
96.5907 94.9241 105.597
99.3881 95.406 107.451
93.6815 94.8848 101.382
93.2154 94.9831 98.8706
92.9433 95.8835 100.794
93.337 95.7843 96.8393
94.3332 95.1115 103.51
93.0539 96.8367 102.9
92.6724 97.0314 100.316
97.484 94.075 97.0935
99.2782 93.6759 98.7045
99.6255 94.3255 97.1054
96.365 95.1471 95.7694
99.855 95.4983 96.1859
106.685 115.429 116.547
107.551 117.208 115.475
107.977 115.39 115.756
108.181 118.769 114.292
106.882 118.795 115.144
105.267 115.269 116.905
105.764 113.611 117.186
108.281 113.584 115.649
108.967 115.088 114.751
105.511 118.55 115.684
104.617 116.594 116.668
103.78 118.119 116.322
106.279 112.047 117.108
107.792 111.877 116.161
106.854 110.069 116.657
109.732 115.925 113.71
109.363 118.171 113.502
110.377 116.99 112.451
110.367 121.331 104.405
110.342 120.044 102.702
110.954 119.213 103.679
110.048 118.236 101.351
109.301 120.469 101.875
109.817 123.102 104.869
110.439 121.896 106.327
111.498 118.477 104.747
111.321 117.069 102.998
108.127 121.211 102.076
108.846 123.3 103.58
106.542 122.532 102.723
111.074 120.511 107.116
111.552 118.673 106.151
111.42 118.753 107.937
110.971 115.296 101.824
110.163 115.967 100.771
110.252 113.531 100.504
105.881 100.182 111.243
107.111 101.342 110.845
106.503 99.3127 109.69
108.017 102.546 110.524
107.682 103.008 111.844
105.237 100.953 112.616
104.614 99.4412 111.568
105.819 97.6088 108.729
106.917 98.5102 108.281
107.304 103.705 113.015
105.841 102.522 113.437
106.671 104.407 114.398
103.968 98.1656 110.53
104.684 96.9806 108.792
103.173 96.7603 109.236
107.508 99.7977 107.963
108.176 102.241 109.264
108.166 101.739 107.802
108.471 103.218 101.558
107.125 102.165 100.691
107.229 100.88 101.219
105.818 101.292 99.8602
106.932 103.365 100.134
109.813 105.095 101.493
109.51 103.953 102.515
107.169 99.6446 101.895
106.387 98.6143 100.581
108.049 105.105 100.122
109.711 106.093 100.824
109.102 107.31 100.382
109.179 103.312 103.424
107.783 101.034 103.108
108.53 102.491 104.404
105.61 98.0309 99.3891
105.092 99.7039 98.9889
104.54 97.8685 97.9947
96.4075 112.593 115.298
95.878 111.617 113.782
96.3617 113.679 113.956
95.5816 110.595 112.376
95.4933 109.722 113.572
96.8136 111.351 116.337
97.4371 113.348 116.412
97.078 115.524 114.007
96.6752 114.529 112.681
95.5814 108.599 114.3
96.3712 109.431 115.984
95.8139 107.297 115.343
98.0226 115.142 116.413
97.7554 116.441 114.949
99.0357 117.016 116.101
96.3686 113.484 111.395
95.7709 111.191 111.186
96.064 112.017 109.883
99.188 113.549 103.67
100.475 114.624 103.361
99.7796 115.421 104.517
101.772 115.605 103.004
101.144 113.742 102.384
98.5498 111.689 102.829
98.0008 112.364 103.925
99.2503 115.955 105.82
100.448 117.112 105.422
100.405 111.807 101.768
98.8277 110.579 101.998
99.5683 109.609 101.109
97.4414 112.387 104.899
98.2463 114.576 106.084
97.0715 112.818 106.228
101.536 118.121 104.924
102.379 117.181 103.526
102.909 119.123 104.124
94.6154 97.8227 109.369
95.7229 97.5725 110.224
95.4052 96.7073 107.997
96.9884 97.5385 110.968
96.0345 98.3893 112.149
93.9332 99.0329 110.451
93.7978 98.2345 108.392
94.8323 95.8226 105.797
95.9862 95.6366 106.888
95.3423 99.5465 113.046
94.1248 100.174 111.991
94.9766 101.503 113.5
93.6445 97.9275 106.701
93.9685 96.3031 105.226
93.258 97.3421 104.677
97.2637 95.727 107.788
97.8833 96.8713 109.871
98.8256 96.0077 108.639
96.7824 99.2297 96.2101
95.4338 99.3961 97.1093
95.1144 98.2512 95.2641
94.822 99.6239 98.2798
96.2026 101.109 98.6784
98.1725 100.711 97.4973
98.1137 99.3472 95.97
95.7527 96.5633 95.102
93.7758 97.0203 95.7599
96.9236 102.5 98.3877
98.0904 102.423 97.8499
97.9252 104.207 98.0755
98.7783 98.4608 95.3389
97.5864 96.3957 95.2833
99.6392 96.8018 95.6569
93.1398 97.3112 97.4905
93.7177 98.99 98.4703
92.9424 97.9204 99.5463
POLYGONS 1280  5120
3 164 162 163
3 163 44 164
3 162 43 163
3 164 42 162
3 166 165 163
3 163 43 166
3 165 44 163
3 166 14 165
3 168 167 162
3 162 42 168
3 167 43 162
3 168 13 167
3 170 169 164
3 164 44 170
3 169 42 164
3 170 12 169
3 173 171 172
3 172 46 173
3 171 43 172
3 173 45 171
3 167 174 172
3 172 43 167
3 174 46 172
3 167 13 174
3 175 166 171
3 171 45 175
3 166 43 171
3 175 14 166
3 177 176 173
3 173 46 177
3 176 45 173
3 177 4 176
3 180 178 179
3 179 48 180
3 178 42 179
3 180 47 178
3 169 181 179
3 179 42 169
3 181 48 179
3 169 12 181
3 182 168 178
3 178 47 182
3 168 42 178
3 182 13 168
3 184 183 180
3 180 48 184
3 183 47 180
3 184 8 183
3 187 185 186
3 186 50 187
3 185 44 186
3 187 49 185
3 165 188 186
3 186 44 165
3 188 50 186
3 165 14 188
3 189 170 185
3 185 49 189
3 170 44 185
3 189 12 170
3 191 190 187
3 187 50 191
3 190 49 187
3 191 7 190
3 194 192 193
3 193 53 194
3 192 52 193
3 194 51 192
3 196 195 193
3 193 52 196
3 195 53 193
3 196 16 195
3 198 197 192
3 192 51 198
3 197 52 192
3 198 14 197
3 200 199 194
3 194 53 200
3 199 51 194
3 200 15 199
3 203 201 202
3 202 45 203
3 201 52 202
3 203 54 201
3 197 175 202
3 202 52 197
3 175 45 202
3 197 14 175
3 204 196 201
3 201 54 204
3 196 52 201
3 204 16 196
3 176 205 203
3 203 45 176
3 205 54 203
3 176 4 205
3 208 206 207
3 207 55 208
3 206 51 207
3 208 50 206
3 199 209 207
3 207 51 199
3 209 55 207
3 199 15 209
3 188 198 206
3 206 50 188
3 198 51 206
3 188 14 198
3 210 191 208
3 208 55 210
3 191 50 208
3 210 7 191
3 213 211 212
3 212 57 213
3 211 53 212
3 213 56 211
3 195 214 212
3 212 53 195
3 214 57 212
3 195 16 214
3 215 200 211
3 211 56 215
3 200 53 211
3 215 15 200
3 217 216 213
3 213 57 217
3 216 56 213
3 217 9 216
3 220 218 219
3 219 60 220
3 218 59 219
3 220 58 218
3 222 221 219
3 219 59 222
3 221 60 219
3 222 19 221
3 224 223 218
3 218 58 224
3 223 59 218
3 224 18 223
3 226 225 220
3 220 60 226
3 225 58 220
3 226 17 225
3 229 227 228
3 228 62 229
3 227 59 228
3 229 61 227
3 223 230 228
3 228 59 223
3 230 62 228
3 223 18 230
3 231 222 227
3 227 61 231
3 222 59 227
3 231 19 222
3 233 232 229
3 229 62 233
3 232 61 229
3 233 5 232
3 236 234 235
3 235 64 236
3 234 58 235
3 236 63 234
3 225 237 235
3 235 58 225
3 237 64 235
3 225 17 237
3 238 224 234
3 234 63 238
3 224 58 234
3 238 18 224
3 240 239 236
3 236 64 240
3 239 63 236
3 240 6 239
3 243 241 242
3 242 66 243
3 241 60 242
3 243 65 241
3 221 244 242
3 242 60 221
3 244 66 242
3 221 19 244
3 245 226 241
3 241 65 245
3 226 60 241
3 245 17 226
3 247 246 243
3 243 66 247
3 246 65 243
3 247 11 246
3 250 248 249
3 249 69 250
3 248 68 249
3 250 67 248
3 252 251 249
3 249 68 252
3 251 69 249
3 252 18 251
3 254 253 248
3 248 67 254
3 253 68 248
3 254 21 253
3 256 255 250
3 250 69 256
3 255 67 250
3 256 20 255
3 259 257 258
3 258 70 259
3 257 68 258
3 259 62 257
3 253 260 258
3 258 68 253
3 260 70 258
3 253 21 260
3 230 252 257
3 257 62 230
3 252 68 257
3 230 18 252
3 261 233 259
3 259 70 261
3 233 62 259
3 261 5 233
3 264 262 263
3 263 72 264
3 262 67 263
3 264 71 262
3 255 265 263
3 263 67 255
3 265 72 263
3 255 20 265
3 266 254 262
3 262 71 266
3 254 67 262
3 266 21 254
3 268 267 264
3 264 72 268
3 267 71 264
3 268 10 267
3 271 269 270
3 270 63 271
3 269 69 270
3 271 73 269
3 251 238 270
3 270 69 251
3 238 63 270
3 251 18 238
3 272 256 269
3 269 73 272
3 256 69 269
3 272 20 256
3 239 273 271
3 271 63 239
3 273 73 271
3 239 6 273
3 276 274 275
3 275 76 276
3 274 75 275
3 276 74 274
3 278 277 275
3 275 75 278
3 277 76 275
3 278 24 277
3 280 279 274
3 274 74 280
3 279 75 274
3 280 23 279
3 282 281 276
3 276 76 282
3 281 74 276
3 282 22 281
3 285 283 284
3 284 78 285
3 283 75 284
3 285 77 283
3 279 286 284
3 284 75 279
3 286 78 284
3 279 23 286
3 287 278 283
3 283 77 287
3 278 75 283
3 287 24 278
3 289 288 285
3 285 78 289
3 288 77 285
3 289 0 288
3 292 290 291
3 291 80 292
3 290 74 291
3 292 79 290
3 281 293 291
3 291 74 281
3 293 80 291
3 281 22 293
3 294 280 290
3 290 79 294
3 280 74 290
3 294 23 280
3 296 295 292
3 292 80 296
3 295 79 292
3 296 4 295
3 299 297 298
3 298 82 299
3 297 76 298
3 299 81 297
3 277 300 298
3 298 76 277
3 300 82 298
3 277 24 300
3 301 282 297
3 297 81 301
3 282 76 297
3 301 22 282
3 303 302 299
3 299 82 303
3 302 81 299
3 303 3 302
3 306 304 305
3 305 85 306
3 304 84 305
3 306 83 304
3 308 307 305
3 305 84 308
3 307 85 305
3 308 26 307
3 310 309 304
3 304 83 310
3 309 84 304
3 310 24 309
3 312 311 306
3 306 85 312
3 311 83 306
3 312 25 311
3 315 313 314
3 314 77 315
3 313 84 314
3 315 86 313
3 309 287 314
3 314 84 309
3 287 77 314
3 309 24 287
3 316 308 313
3 313 86 316
3 308 84 313
3 316 26 308
3 288 317 315
3 315 77 288
3 317 86 315
3 288 0 317
3 320 318 319
3 319 87 320
3 318 83 319
3 320 82 318
3 311 321 319
3 319 83 311
3 321 87 319
3 311 25 321
3 300 310 318
3 318 82 300
3 310 83 318
3 300 24 310
3 322 303 320
3 320 87 322
3 303 82 320
3 322 3 303
3 325 323 324
3 324 89 325
3 323 85 324
3 325 88 323
3 307 326 324
3 324 85 307
3 326 89 324
3 307 26 326
3 327 312 323
3 323 88 327
3 312 85 323
3 327 25 312
3 329 328 325
3 325 89 329
3 328 88 325
3 329 5 328
3 332 330 331
3 331 92 332
3 330 91 331
3 332 90 330
3 334 333 331
3 331 91 334
3 333 92 331
3 334 29 333
3 336 335 330
3 330 90 336
3 335 91 330
3 336 28 335
3 338 337 332
3 332 92 338
3 337 90 332
3 338 27 337
3 341 339 340
3 340 94 341
3 339 91 340
3 341 93 339
3 335 342 340
3 340 91 335
3 342 94 340
3 335 28 342
3 343 334 339
3 339 93 343
3 334 91 339
3 343 29 334
3 345 344 341
3 341 94 345
3 344 93 341
3 345 2 344
3 348 346 347
3 347 96 348
3 346 90 347
3 348 95 346
3 337 349 347
3 347 90 337
3 349 96 347
3 337 27 349
3 350 336 346
3 346 95 350
3 336 90 346
3 350 28 336
3 352 351 348
3 348 96 352
3 351 95 348
3 352 7 351
3 355 353 354
3 354 98 355
3 353 92 354
3 355 97 353
3 333 356 354
3 354 92 333
3 356 98 354
3 333 29 356
3 357 338 353
3 353 97 357
3 338 92 353
3 357 27 338
3 359 358 355
3 355 98 359
3 358 97 355
3 359 1 358
3 362 360 361
3 361 101 362
3 360 100 361
3 362 99 360
3 364 363 361
3 361 100 364
3 363 101 361
3 364 31 363
3 366 365 360
3 360 99 366
3 365 100 360
3 366 29 365
3 368 367 362
3 362 101 368
3 367 99 362
3 368 30 367
3 371 369 370
3 370 93 371
3 369 100 370
3 371 102 369
3 365 343 370
3 370 100 365
3 343 93 370
3 365 29 343
3 372 364 369
3 369 102 372
3 364 100 369
3 372 31 364
3 344 373 371
3 371 93 344
3 373 102 371
3 344 2 373
3 376 374 375
3 375 103 376
3 374 99 375
3 376 98 374
3 367 377 375
3 375 99 367
3 377 103 375
3 367 30 377
3 356 366 374
3 374 98 356
3 366 99 374
3 356 29 366
3 378 359 376
3 376 103 378
3 359 98 376
3 378 1 359
3 381 379 380
3 380 105 381
3 379 101 380
3 381 104 379
3 363 382 380
3 380 101 363
3 382 105 380
3 363 31 382
3 383 368 379
3 379 104 383
3 368 101 379
3 383 30 368
3 385 384 381
3 381 105 385
3 384 104 381
3 385 6 384
3 388 386 387
3 387 108 388
3 386 107 387
3 388 106 386
3 390 389 387
3 387 107 390
3 389 108 387
3 390 34 389
3 392 391 386
3 386 106 392
3 391 107 386
3 392 33 391
3 394 393 388
3 388 108 394
3 393 106 388
3 394 32 393
3 397 395 396
3 396 110 397
3 395 107 396
3 397 109 395
3 391 398 396
3 396 107 391
3 398 110 396
3 391 33 398
3 399 390 395
3 395 109 399
3 390 107 395
3 399 34 390
3 401 400 397
3 397 110 401
3 400 109 397
3 401 8 400
3 404 402 403
3 403 112 404
3 402 106 403
3 404 111 402
3 393 405 403
3 403 106 393
3 405 112 403
3 393 32 405
3 406 392 402
3 402 111 406
3 392 106 402
3 406 33 392
3 408 407 404
3 404 112 408
3 407 111 404
3 408 0 407
3 411 409 410
3 410 114 411
3 409 108 410
3 411 113 409
3 389 412 410
3 410 108 389
3 412 114 410
3 389 34 412
3 413 394 409
3 409 113 413
3 394 108 409
3 413 32 394
3 415 414 411
3 411 114 415
3 414 113 411
3 415 11 414
3 418 416 417
3 417 117 418
3 416 116 417
3 418 115 416
3 420 419 417
3 417 116 420
3 419 117 417
3 420 36 419
3 422 421 416
3 416 115 422
3 421 116 416
3 422 34 421
3 424 423 418
3 418 117 424
3 423 115 418
3 424 35 423
3 427 425 426
3 426 109 427
3 425 116 426
3 427 118 425
3 421 399 426
3 426 116 421
3 399 109 426
3 421 34 399
3 428 420 425
3 425 118 428
3 420 116 425
3 428 36 420
3 400 429 427
3 427 109 400
3 429 118 427
3 400 8 429
3 432 430 431
3 431 119 432
3 430 115 431
3 432 114 430
3 423 433 431
3 431 115 423
3 433 119 431
3 423 35 433
3 412 422 430
3 430 114 412
3 422 115 430
3 412 34 422
3 434 415 432
3 432 119 434
3 415 114 432
3 434 11 415
3 437 435 436
3 436 121 437
3 435 117 436
3 437 120 435
3 419 438 436
3 436 117 419
3 438 121 436
3 419 36 438
3 439 424 435
3 435 120 439
3 424 117 435
3 439 35 424
3 441 440 437
3 437 121 441
3 440 120 437
3 441 1 440
3 444 442 443
3 443 124 444
3 442 123 443
3 444 122 442
3 446 445 443
3 443 123 446
3 445 124 443
3 446 39 445
3 448 447 442
3 442 122 448
3 447 123 442
3 448 38 447
3 450 449 444
3 444 124 450
3 449 122 444
3 450 37 449
3 453 451 452
3 452 126 453
3 451 123 452
3 453 125 451
3 447 454 452
3 452 123 447
3 454 126 452
3 447 38 454
3 455 446 451
3 451 125 455
3 446 123 451
3 455 39 446
3 457 456 453
3 453 126 457
3 456 125 453
3 457 9 456
3 460 458 459
3 459 128 460
3 458 122 459
3 460 127 458
3 449 461 459
3 459 122 449
3 461 128 459
3 449 37 461
3 462 448 458
3 458 127 462
3 448 122 458
3 462 38 448
3 464 463 460
3 460 128 464
3 463 127 460
3 464 10 463
3 467 465 466
3 466 130 467
3 465 124 466
3 467 129 465
3 445 468 466
3 466 124 445
3 468 130 466
3 445 39 468
3 469 450 465
3 465 129 469
3 450 124 465
3 469 37 450
3 471 470 467
3 467 130 471
3 470 129 467
3 471 3 470
3 474 472 473
3 473 133 474
3 472 132 473
3 474 131 472
3 476 475 473
3 473 132 476
3 475 133 473
3 476 38 475
3 478 477 472
3 472 131 478
3 477 132 472
3 478 41 477
3 480 479 474
3 474 133 480
3 479 131 474
3 480 40 479
3 483 481 482
3 482 134 483
3 481 132 482
3 483 126 481
3 477 484 482
3 482 132 477
3 484 134 482
3 477 41 484
3 454 476 481
3 481 126 454
3 476 132 481
3 454 38 476
3 485 457 483
3 483 134 485
3 457 126 483
3 485 9 457
3 488 486 487
3 487 136 488
3 486 131 487
3 488 135 486
3 479 489 487
3 487 131 479
3 489 136 487
3 479 40 489
3 490 478 486
3 486 135 490
3 478 131 486
3 490 41 478
3 492 491 488
3 488 136 492
3 491 135 488
3 492 2 491
3 495 493 494
3 494 127 495
3 493 133 494
3 495 137 493
3 475 462 494
3 494 133 475
3 462 127 494
3 475 38 462
3 496 480 493
3 493 137 496
3 480 133 493
3 496 40 480
3 463 497 495
3 495 127 463
3 497 137 495
3 463 10 497
3 500 498 499
3 499 140 500
3 498 139 499
3 500 138 498
3 502 501 499
3 499 139 502
3 501 140 499
3 502 33 501
3 504 503 498
3 498 138 504
3 503 139 498
3 504 13 503
3 506 505 500
3 500 140 506
3 505 138 500
3 506 23 505
3 509 507 508
3 508 47 509
3 507 139 508
3 509 110 507
3 503 182 508
3 508 139 503
3 182 47 508
3 503 13 182
3 398 502 507
3 507 110 398
3 502 139 507
3 398 33 502
3 183 401 509
3 509 47 183
3 401 110 509
3 183 8 401
3 512 510 511
3 511 79 512
3 510 138 511
3 512 46 510
3 505 294 511
3 511 138 505
3 294 79 511
3 505 23 294
3 174 504 510
3 510 46 174
3 504 138 510
3 174 13 504
3 295 177 512
3 512 79 295
3 177 46 512
3 295 4 177
3 515 513 514
3 514 111 515
3 513 140 514
3 515 78 513
3 501 406 514
3 514 140 501
3 406 111 514
3 501 33 406
3 286 506 513
3 513 78 286
3 506 140 513
3 286 23 506
3 407 289 515
3 515 111 407
3 289 78 515
3 407 0 289
3 518 516 517
3 517 143 518
3 516 142 517
3 518 141 516
3 520 519 517
3 517 142 520
3 519 143 517
3 520 19 519
3 522 521 516
3 516 141 522
3 521 142 516
3 522 32 521
3 524 523 518
3 518 143 524
3 523 141 518
3 524 26 523
3 527 525 526
3 526 113 527
3 525 142 526
3 527 66 525
3 521 413 526
3 526 142 521
3 413 113 526
3 521 32 413
3 244 520 525
3 525 66 244
3 520 142 525
3 244 19 520
3 414 247 527
3 527 113 414
3 247 66 527
3 414 11 247
3 530 528 529
3 529 86 530
3 528 141 529
3 530 112 528
3 523 316 529
3 529 141 523
3 316 86 529
3 523 26 316
3 405 522 528
3 528 112 405
3 522 141 528
3 405 32 522
3 317 408 530
3 530 86 317
3 408 112 530
3 317 0 408
3 533 531 532
3 532 61 533
3 531 143 532
3 533 89 531
3 519 231 532
3 532 143 519
3 231 61 532
3 519 19 231
3 326 524 531
3 531 89 326
3 524 143 531
3 326 26 524
3 232 329 533
3 533 61 232
3 329 89 533
3 232 5 329
3 536 534 535
3 535 146 536
3 534 145 535
3 536 144 534
3 538 537 535
3 535 145 538
3 537 146 535
3 538 22 537
3 540 539 534
3 534 144 540
3 539 145 534
3 540 16 539
3 542 541 536
3 536 146 542
3 541 144 536
3 542 39 541
3 545 543 544
3 544 54 545
3 543 145 544
3 545 80 543
3 539 204 544
3 544 145 539
3 204 54 544
3 539 16 204
3 293 538 543
3 543 80 293
3 538 145 543
3 293 22 538
3 205 296 545
3 545 54 205
3 296 80 545
3 205 4 296
3 548 546 547
3 547 125 548
3 546 144 547
3 548 57 546
3 541 455 547
3 547 144 541
3 455 125 547
3 541 39 455
3 214 540 546
3 546 57 214
3 540 144 546
3 214 16 540
3 456 217 548
3 548 125 456
3 217 57 548
3 456 9 217
3 551 549 550
3 550 81 551
3 549 146 550
3 551 130 549
3 537 301 550
3 550 146 537
3 301 81 550
3 537 22 301
3 468 542 549
3 549 130 468
3 542 146 549
3 468 39 542
3 302 471 551
3 551 81 302
3 471 130 551
3 302 3 471
3 554 552 553
3 553 149 554
3 552 148 553
3 554 147 552
3 556 555 553
3 553 148 556
3 555 149 553
3 556 21 555
3 558 557 552
3 552 147 558
3 557 148 552
3 558 25 557
3 560 559 554
3 554 149 560
3 559 147 554
3 560 37 559
3 563 561 562
3 562 88 563
3 561 148 562
3 563 70 561
3 557 327 562
3 562 148 557
3 327 88 562
3 557 25 327
3 260 556 561
3 561 70 260
3 556 148 561
3 260 21 556
3 328 261 563
3 563 88 328
3 261 70 563
3 328 5 261
3 566 564 565
3 565 129 566
3 564 147 565
3 566 87 564
3 559 469 565
3 565 147 559
3 469 129 565
3 559 37 469
3 321 558 564
3 564 87 321
3 558 147 564
3 321 25 558
3 470 322 566
3 566 129 470
3 322 87 566
3 470 3 322
3 569 567 568
3 568 71 569
3 567 149 568
3 569 128 567
3 555 266 568
3 568 149 555
3 266 71 568
3 555 21 266
3 461 560 567
3 567 128 461
3 560 149 567
3 461 37 560
3 267 464 569
3 569 71 267
3 464 128 569
3 267 10 464
3 572 570 571
3 571 152 572
3 570 151 571
3 572 150 570
3 574 573 571
3 571 151 574
3 573 152 571
3 574 27 573
3 576 575 570
3 570 150 576
3 575 151 570
3 576 12 575
3 578 577 572
3 572 152 578
3 577 150 572
3 578 36 577
3 581 579 580
3 580 49 581
3 579 151 580
3 581 96 579
3 575 189 580
3 580 151 575
3 189 49 580
3 575 12 189
3 349 574 579
3 579 96 349
3 574 151 579
3 349 27 574
3 190 352 581
3 581 49 190
3 352 96 581
3 190 7 352
3 584 582 583
3 583 118 584
3 582 150 583
3 584 48 582
3 577 428 583
3 583 150 577
3 428 118 583
3 577 36 428
3 181 576 582
3 582 48 181
3 576 150 582
3 181 12 576
3 429 184 584
3 584 118 429
3 184 48 584
3 429 8 184
3 587 585 586
3 586 97 587
3 585 152 586
3 587 121 585
3 573 357 586
3 586 152 573
3 357 97 586
3 573 27 357
3 438 578 585
3 585 121 438
3 578 152 585
3 438 36 578
3 358 441 587
3 587 97 358
3 441 121 587
3 358 1 441
3 590 588 589
3 589 155 590
3 588 154 589
3 590 153 588
3 592 591 589
3 589 154 592
3 591 155 589
3 592 17 591
3 594 593 588
3 588 153 594
3 593 154 588
3 594 30 593
3 596 595 590
3 590 155 596
3 595 153 590
3 596 35 595
3 599 597 598
3 598 104 599
3 597 154 598
3 599 64 597
3 593 383 598
3 598 154 593
3 383 104 598
3 593 30 383
3 237 592 597
3 597 64 237
3 592 154 597
3 237 17 592
3 384 240 599
3 599 104 384
3 240 64 599
3 384 6 240
3 602 600 601
3 601 120 602
3 600 153 601
3 602 103 600
3 595 439 601
3 601 153 595
3 439 120 601
3 595 35 439
3 377 594 600
3 600 103 377
3 594 153 600
3 377 30 594
3 440 378 602
3 602 120 440
3 378 103 602
3 440 1 378
3 605 603 604
3 604 65 605
3 603 155 604
3 605 119 603
3 591 245 604
3 604 155 591
3 245 65 604
3 591 17 245
3 433 596 603
3 603 119 433
3 596 155 603
3 433 35 596
3 246 434 605
3 605 65 246
3 434 119 605
3 246 11 434
3 608 606 607
3 607 158 608
3 606 157 607
3 608 156 606
3 610 609 607
3 607 157 610
3 609 158 607
3 610 15 609
3 612 611 606
3 606 156 612
3 611 157 606
3 612 28 611
3 614 613 608
3 608 158 614
3 613 156 608
3 614 41 613
3 617 615 616
3 616 95 617
3 615 157 616
3 617 55 615
3 611 350 616
3 616 157 611
3 350 95 616
3 611 28 350
3 209 610 615
3 615 55 209
3 610 157 615
3 209 15 610
3 351 210 617
3 617 95 351
3 210 55 617
3 351 7 210
3 620 618 619
3 619 135 620
3 618 156 619
3 620 94 618
3 613 490 619
3 619 156 613
3 490 135 619
3 613 41 490
3 342 612 618
3 618 94 342
3 612 156 618
3 342 28 612
3 491 345 620
3 620 135 491
3 345 94 620
3 491 2 345
3 623 621 622
3 622 56 623
3 621 158 622
3 623 134 621
3 609 215 622
3 622 158 609
3 215 56 622
3 609 15 215
3 484 614 621
3 621 134 484
3 614 158 621
3 484 41 614
3 216 485 623
3 623 56 216
3 485 134 623
3 216 9 485
3 626 624 625
3 625 161 626
3 624 160 625
3 626 159 624
3 628 627 625
3 625 160 628
3 627 161 625
3 628 31 627
3 630 629 624
3 624 159 630
3 629 160 624
3 630 20 629
3 632 631 626
3 626 161 632
3 631 159 626
3 632 40 631
3 635 633 634
3 634 73 635
3 633 160 634
3 635 105 633
3 629 272 634
3 634 160 629
3 272 73 634
3 629 20 272
3 382 628 633
3 633 105 382
3 628 160 633
3 382 31 628
3 273 385 635
3 635 73 273
3 385 105 635
3 273 6 385
3 638 636 637
3 637 137 638
3 636 159 637
3 638 72 636
3 631 496 637
3 637 159 631
3 496 137 637
3 631 40 496
3 265 630 636
3 636 72 265
3 630 159 636
3 265 20 630
3 497 268 638
3 638 137 497
3 268 72 638
3 497 10 268
3 641 639 640
3 640 102 641
3 639 161 640
3 641 136 639
3 627 372 640
3 640 161 627
3 372 102 640
3 627 31 372
3 489 632 639
3 639 136 489
3 632 161 639
3 489 40 632
3 373 492 641
3 641 102 373
3 492 136 641
3 373 2 492
