# vtk DataFile Version 3.0
this file was written using fslvtkio
ASCII
DATASET POLYDATA
POINTS 642 float
138.166 137.66 107.917
126.499 135.985 108.777
134.075 124.425 108.788
141.706 120.272 105.777
139.228 126.353 115.33
136.314 131.828 101.695
128.613 132.455 101.477
132.22 126.035 117.38
132.388 141.718 115.467
137.734 111.214 112.094
138.132 116.609 100.484
128.201 144.722 101.354
132.209 134.027 118.079
136.487 134.972 116.517
136.446 125.488 119.622
134.87 118.199 116.736
139.277 117.461 114.81
125.131 137.909 98.1744
132.009 132.71 100.444
132.051 139.564 99.7782
136.113 124.676 102.549
139.37 121.542 99.6161
140.984 122.073 110.897
138.986 132.676 112.091
140.399 129.026 107.005
140.851 124.583 102.436
137.181 136.484 103.654
128.978 132.03 114.178
131.978 123.16 113.106
130.139 130.917 108.891
124.891 135.194 103.115
132.254 128.571 105.1
133.635 143.714 105.088
135.46 141.719 111.464
129.439 145.974 108.511
125.337 141.126 104.573
128.76 139.537 112.199
142.314 115.181 100.544
138.804 111.932 105.259
141.323 113.149 108.396
136.939 119.951 105.506
135.376 116.87 110.274
134.598 135.013 118.42
136.677 130.371 118.3
134.4 129.938 119.128
138.052 125.928 117.526
138.021 130.784 116.157
134.649 138.745 116.432
132.123 138.239 117.18
131.97 129.933 118.116
133.949 125.246 119.412
135.406 121.422 119.198
137.814 121.546 117.649
137.502 117.112 116.89
139.148 121.824 115.195
133.135 122.021 117.505
136.578 114.73 114.276
139.151 113.231 114.033
128.054 135.533 98.0306
131.341 135.999 99.163
128.729 139.075 98.2191
133.952 135.962 100.645
134.512 132.076 100.671
130.072 132.841 100.752
125.449 134.467 98.816
126.569 141.329 99.6002
130.274 142.448 100.114
137.688 122.644 100.76
136.042 127.472 101.111
134.011 128.604 101.463
137.797 126.865 101.328
138.692 118.612 98.3513
136.96 119.956 100.902
132.228 129.36 102.259
140.327 127.238 111.705
139.87 130.42 109.678
141.061 125.659 109.142
139.264 133.509 107.621
138.734 135.328 110.168
139.138 129.773 113.798
140.145 124.075 113.267
141.624 121.19 108.436
141.379 124.824 106.395
140.675 127.416 104.626
139.073 132.562 105.445
138.913 130.823 103.624
137.773 137.412 105.625
141.467 122.257 103.835
138.873 128.367 102.174
136.795 134.375 102.395
130.067 127.518 113.846
130.914 126.842 111.253
129.236 130.648 111.579
132.056 127.875 108.893
132.908 123.758 110.779
131.737 124.461 115.468
130.458 129.349 116.022
127.984 134.212 111.583
128.094 133.457 108.803
128.051 133.552 106.013
130.842 130.441 106.591
128.384 132.748 104.094
133.547 126.704 106.923
125.496 135.732 105.88
125.974 133.665 101.772
130.536 130.702 103.42
134.579 143.498 108.349
132.608 145.02 110.447
131.504 146.287 106.501
130.876 143.978 112.362
134.102 142.158 113.672
137.139 139.896 109.685
136.316 141.016 106.572
131.196 145.023 102.851
128.334 146.204 104.73
127.14 144.117 106.427
128.846 143.113 110.251
126.758 141.177 108.304
130.363 140.732 114.039
126.068 143.194 102.664
125.314 138.708 106.912
127.219 137.974 110.419
141.019 111.851 101.728
140.759 109.596 106.708
142.054 113.89 104.651
139.902 111.075 110.788
137.906 110.894 108.756
138.927 114.556 102.448
140.604 115.882 98.4677
141.858 117.646 103.534
141.835 117.004 107.111
136.259 118.007 107.599
137.044 113.86 107.818
137.923 115.635 105.197
136.602 114.152 111.252
134.588 120.433 109.475
135.37 122.335 107.15
137.466 118.333 103.042
137.86 134.211 114.379
136.191 138.804 114.159
137.454 137.499 112.042
135.669 140.525 104.013
133.098 142.047 102.084
134.717 138.254 101.76
140.511 114.892 111.728
140.392 119.457 112.861
141.279 117.555 109.861
141.49 119.201 101.262
140.087 122.82 100.886
141.799 118.157 97.9889
130.162 137.186 115.683
130.151 133.157 116.439
128.497 136.017 113.461
124.403 137.987 103.924
123.478 135.528 100.106
124.607 139.574 100.962
133.46 120.098 111.762
133.091 120.38 114.981
134.924 117.328 113.473
136.649 122.226 103.61
133.844 127.082 103.788
135.252 124.574 105.46
135.697 132.713 118.485
135.606 130.315 119.074
134.544 132.589 119.06
135.454 127.87 119.681
136.517 128.081 119.079
136.534 132.716 117.54
135.7 134.783 117.658
133.455 134.348 118.513
133.373 132.086 118.845
137.398 128.13 118.057
137.396 130.659 117.335
138.018 128.42 116.93
137.157 132.85 116.449
137.273 125.826 118.634
138.707 126.307 116.468
138.616 128.554 115.838
134.797 136.869 117.581
133.33 136.628 118.123
133.474 138.609 117.333
132.145 136.215 117.654
135.621 136.828 116.511
133.681 140.475 116.29
132.207 140.15 116.541
133.139 129.863 118.873
134.246 127.589 119.394
133.105 127.714 118.774
135.15 125.437 119.899
132.195 131.898 118.237
132.155 127.88 117.837
133.013 125.626 118.458
136.823 121.307 118.715
137.624 119.322 117.539
136.392 119.158 118.289
138.468 117.438 116.093
138.453 119.545 116.389
137.159 123.505 118.762
135.951 123.355 119.618
134.986 119.602 118.192
136.056 117.532 117.145
138.648 121.648 116.489
137.983 123.774 117.703
138.733 124.053 116.509
139.223 119.591 115.16
139.232 124.083 115.274
134.565 123.324 119.482
134.189 121.544 118.448
133.281 123.547 118.695
134.054 120.147 117.265
132.543 124.004 117.601
136.958 115.651 115.852
138.303 115.337 115.447
137.718 113.526 114.752
139.18 115.513 114.47
135.833 116.562 115.5
137.283 112.846 113.26
138.504 111.648 113.527
129.822 135.62 98.5163
130.068 137.44 98.4642
128.324 137.151 97.8302
130.398 139.215 98.8388
131.546 137.79 99.1945
131.355 134.313 99.5394
129.899 134.218 99.1425
126.487 136.691 97.7129
127 138.403 97.9008
132.658 136.116 99.7932
132.724 134.236 99.9367
134.022 134.162 100.42
133.224 132.392 100.443
132.945 137.884 100.101
135.122 133.907 101.152
135.521 131.875 101.175
128.576 134.143 99.1294
126.546 135.128 98.1581
127.507 134.052 99.4626
124.8 136.129 98.1587
130.826 132.97 100.54
129.285 132.724 101.028
127.187 133.697 100.29
127.685 140.213 98.6015
129.581 140.764 98.9268
128.39 141.95 99.4745
131.11 140.971 99.7642
126.091 139.628 98.6532
127.402 143.088 100.29
129.215 143.618 100.479
137.075 125.126 101.314
134.927 128.247 101.238
136.141 125.795 101.732
132.802 130.819 100.738
133.962 130.389 100.789
137.802 124.466 100.88
138.431 122.027 99.887
136.858 123.615 101.642
135.313 126.336 102.137
134.889 130.127 100.91
136.881 127.213 101.26
136.074 129.675 101.29
138.48 124.203 100.878
136.911 129.586 101.473
138.214 120.491 99.3037
137.543 121.17 100.607
137.567 119.049 99.4923
136.87 122.182 101.728
139.329 120.071 98.3613
138.29 117.315 99.2051
137.288 118.09 100.608
133.282 128.789 101.845
131.922 130.834 100.904
131.151 130.907 101.33
134.104 127.178 102.521
130.399 131.13 101.92
140.133 128.899 110.703
140.629 128.113 109.431
140.708 126.439 110.414
140.836 127.484 108.162
140.259 129.562 108.434
139.5 131.222 110.981
139.731 129.812 111.86
140.735 124.784 111.323
141.124 124.049 110.144
139.651 131.934 108.662
139.306 132.707 110.028
139.21 134.169 109.013
138.957 133.946 111.135
139.722 131.146 107.431
138.757 135.54 107.826
138.542 136.44 109.041
139.827 128.526 112.787
140.274 125.623 112.467
139.917 127.031 113.7
140.619 123.051 112.053
139.084 131.17 112.887
139.256 128.149 114.654
139.592 125.274 114.269
141.538 123.461 108.932
141.137 125.284 107.816
141.752 123.198 107.545
140.849 126.924 106.841
141.365 121.593 109.718
141.66 121.054 107.066
141.682 122.714 106.119
139.986 129.983 105.136
138.887 131.809 104.529
140.051 129.112 103.987
138.002 133.59 103.77
138.369 134.53 104.518
139.736 130.67 106.182
140.552 128.373 105.834
140.686 126.524 103.507
139.935 127.863 103.129
138.502 135.13 105.479
139.134 132.897 106.468
138.694 135.362 106.619
137.49 136.904 104.625
138.039 137.467 106.771
141.062 126.23 105.485
141.232 125.045 104.09
141.651 123.865 105.005
141.266 123.577 103.13
141.489 121.328 104.868
138.959 129.637 102.838
137.848 132.633 103.085
137.775 131.325 102.547
137.108 135.434 102.957
139.956 126.436 102.303
137.568 130.105 102.016
136.516 132.921 102.091
130.262 127.079 112.415
130.098 128.864 111.428
129.531 129.023 112.697
129.796 130.498 110.273
130.529 128.859 110.233
131.297 125.161 112.318
130.972 125.639 113.414
129.429 129.665 113.955
128.954 130.925 112.926
131.464 127.306 110.017
131.871 125.25 111.111
132.5 125.827 109.951
132.275 123.381 111.972
131.011 129.253 108.987
133.074 126.35 108.839
133.498 124.339 109.711
131.013 126.003 114.657
130.078 128.344 114.991
130.986 126.949 115.843
129.617 130.636 115.114
131.848 123.905 114.192
131.862 125.177 116.505
131.292 127.708 116.836
128.562 132.355 111.725
128.928 132.138 110.268
128.017 133.564 110.326
129.218 132.323 108.871
128.495 132.996 112.936
127.347 135.154 110.101
127.172 134.662 108.777
129.779 132.331 106.458
130.115 131.779 105.33
128.315 133.312 104.953
130.324 131.087 104.629
131.224 129.897 105.589
130.474 130.813 107.704
129.271 132.415 107.47
126.619 134.436 104.607
126.509 133.98 103.567
132.079 128.694 106.601
131.553 129.327 107.783
132.712 127.59 107.745
132.832 127.693 105.951
134.068 125.686 107.975
128.133 133.464 107.409
126.828 134.722 105.806
127.042 134.71 107.296
125.165 135.486 104.448
126.069 135.846 107.333
127.183 133.272 103.012
129.41 131.855 103.685
128.237 132.534 102.578
131.201 129.552 104.267
125.051 134.43 102.171
127.274 133.153 101.452
129.675 131.694 102.485
133.469 144.426 109.214
132.114 145.818 108.484
133.034 145.006 107.582
130.575 146.76 107.637
131.097 145.967 109.544
134.161 143.681 110.914
134.946 142.924 109.955
133.996 143.934 106.726
132.523 145.075 105.878
131.676 144.846 111.489
133.501 143.81 112.149
132.659 143.647 113.371
134.699 142.262 112.377
130.198 145.171 110.397
131.578 142.888 113.932
133.344 142.127 114.77
135.769 141.824 109.043
135.43 142.457 107.413
136.767 140.71 108.166
135.049 142.672 105.99
136.282 141.039 110.47
137.721 138.78 108.812
137.384 139.465 107.248
131.348 145.853 104.628
130.053 146.796 105.562
129.746 146.216 103.523
128.915 146.467 106.693
132.347 144.465 104.099
129.705 145.111 101.824
128.011 145.653 102.833
127.92 143.821 108.426
127.931 142.095 109.187
126.779 142.754 107.54
127.842 140.693 110.167
128.674 141.365 110.986
129.121 144.6 109.342
128.192 145.171 107.425
126.152 142.735 105.663
125.965 141.464 106.558
129.568 141.977 111.933
129.923 143.688 111.159
130.586 142.399 113.043
129.492 140.321 112.905
131.252 141.25 115.005
127.597 145.372 105.594
126.483 143.837 104.579
126.944 144.951 103.572
125.617 142.225 103.693
126.856 144.107 101.772
126.064 140.032 107.45
127.109 139.645 109.347
126.346 138.451 108.617
127.976 139.046 111.103
125.311 140.055 105.731
125.88 137.35 107.903
126.775 136.926 109.597
141.386 110.505 104.05
141.703 111.815 105.342
142.108 112.594 103.113
141.678 113.275 106.581
141.211 111.2 107.428
139.625 110.113 105.442
139.849 111.478 103.521
142.302 113.221 100.777
142.212 114.516 102.472
140.438 110.012 108.797
138.875 109.252 107.479
138.635 109.474 109.837
138.468 110.882 106.885
140.72 112.026 109.554
138.929 110.252 111.719
137.658 110.991 110.597
139.764 113.029 101.926
140.803 113.478 100.074
139.829 114.723 100.398
141.826 114.803 99.036
139.052 113.072 103.764
138.571 115.741 101.487
139.219 116.037 99.2718
141.767 115.645 104.161
141.974 115.218 106.092
142.016 117.41 105.42
141.649 114.936 107.701
141.982 116.261 102.286
141.829 119.016 104.636
142.087 118.764 106.57
136.81 115.885 107.647
137.496 114.482 106.433
137.15 116.656 106.388
138.391 113.673 105.216
137.881 112.479 106.609
136.386 115.524 108.936
135.857 117.191 108.761
136.761 118.76 106.535
137.39 117.758 105.391
137.583 112.339 108.209
136.608 114.087 109.475
137.123 112.488 109.983
136.034 115.538 110.65
137.155 112.773 111.723
135.358 119.076 108.578
135.914 120.058 107.427
135.073 121.232 108.31
136.259 121.008 106.472
134.756 118.45 109.805
134.453 122.481 109.177
134.837 123.467 108.078
137.801 116.988 104.142
138.442 114.847 103.929
138.129 116.283 102.805
137.326 118.929 104.357
137.564 117.503 101.798
136.981 136.454 114.326
136.886 138.136 113.156
137.639 135.767 113.187
136.596 139.717 111.84
135.883 140.348 112.863
136.335 136.824 115.33
137.186 134.738 115.445
138.382 133.684 113.109
138.252 135.184 112.17
135.226 140.609 113.917
135.582 138.678 115.392
134.479 140.51 115.182
137.972 132.633 115.37
138.541 132.143 114.037
138.523 130.325 114.912
138.111 136.338 111.131
137.336 138.828 110.927
137.909 137.611 109.949
134.391 141.352 103.109
134.149 140.254 101.685
135.426 139.381 102.802
133.53 139.134 100.686
132.719 140.834 100.852
133.409 143.014 103.579
134.624 142.109 104.606
136.493 138.573 103.643
135.934 137.431 102.748
131.817 142.282 100.916
132.192 143.567 102.524
130.796 143.817 101.34
135.976 141.083 105.28
136.84 139.082 104.694
137.123 139.356 105.967
135.809 136.14 102.08
134.369 137.05 101.11
135.606 135.007 101.377
140.493 117.16 112.374
140.847 118.505 111.364
140.869 116.144 110.714
141.298 119.728 110.503
140.752 120.672 111.809
139.844 118.339 113.77
139.97 116.137 113.296
141 113.914 110.106
141.381 115.318 109.155
140.287 121.66 112.988
139.759 120.487 114.07
139.762 122.863 114.197
139.707 114.202 113.024
140.426 112.959 111.368
139.666 112.047 112.609
141.598 117.147 108.484
141.677 119.424 109.252
141.898 119.154 107.809
140.768 120.988 100.959
140.824 119.99 99.5231
141.731 118.349 99.7369
140.554 119.984 98.5894
139.522 122.061 100.519
140.325 124.238 101.626
141.068 122.159 101.963
141.906 116.899 100.806
142.247 116.53 98.938
139.046 124.672 101.184
139.501 125.82 101.685
138.268 127.652 101.576
141.23 121.177 102.655
141.744 118.478 102.318
141.495 120.056 103.717
141.478 116.891 97.242
140.178 119.095 97.7438
139.224 117.203 98.2473
130.149 135.187 116.155
129.356 134.657 115.019
129.242 136.65 114.65
128.758 134.088 113.922
129.416 132.77 115.271
131.117 133.56 117.379
131.119 135.706 117.055
129.493 138.456 114.065
128.577 137.882 112.975
130.091 131.234 116.257
131.035 131.651 117.377
131.095 129.536 117.154
131.092 137.702 116.433
130.218 139.121 114.802
131.067 139.615 115.929
127.95 137.235 111.929
128.149 135.095 112.562
127.7 136.102 110.999
123.933 137.103 101.791
123.956 137.714 100.536
124.339 138.732 102.35
124.578 138.78 99.3724
123.958 136.773 99.0272
123.841 135.4 101.501
124.382 136.459 103.211
124.744 139.544 104.188
124.923 140.441 102.792
124.022 134.64 99.0488
124.466 134.247 100.797
125.836 133.746 100.373
124.4 136.576 104.953
124.763 138.38 105.451
125.164 136.974 106.61
125.422 141.381 101.954
125.276 140.437 100.012
126.093 142.485 100.967
133.229 120.035 113.365
133.988 118.829 114.307
134.08 118.605 112.646
134.87 117.668 115.162
133.938 119.341 115.928
132.495 121.608 113.955
132.697 121.488 112.514
134.382 118.527 111.168
134.98 117.158 111.79
133.015 121.068 116.241
132.422 122.474 115.106
132.359 123.102 116.437
133.039 121.906 111.268
133.957 120.192 110.498
133.837 122.332 110.195
135.824 115.953 112.206
135.702 116.174 113.955
136.617 114.512 112.774
135.434 124.653 103.812
134.567 125.776 104.589
135.889 123.326 104.672
133.831 126.77 105.262
132.865 127.911 104.348
134.871 126.02 103.196
136.239 123.455 102.932
136.883 120.963 104.466
136.243 122.153 105.535
131.912 128.736 103.487
132.965 127.978 102.907
131.225 129.968 102.75
136.789 121.513 102.4
137.139 120.242 103.308
137.137 119.402 101.983
135.601 123.429 106.346
134.363 125.791 106.114
134.899 124.76 107.178
POLYGONS 1280  5120
3 164 162 163
3 163 44 164
3 162 43 163
3 164 42 162
3 166 165 163
3 163 43 166
3 165 44 163
3 166 14 165
3 168 167 162
3 162 42 168
3 167 43 162
3 168 13 167
3 170 169 164
3 164 44 170
3 169 42 164
3 170 12 169
3 173 171 172
3 172 46 173
3 171 43 172
3 173 45 171
3 167 174 172
3 172 43 167
3 174 46 172
3 167 13 174
3 175 166 171
3 171 45 175
3 166 43 171
3 175 14 166
3 177 176 173
3 173 46 177
3 176 45 173
3 177 4 176
3 180 178 179
3 179 48 180
3 178 42 179
3 180 47 178
3 169 181 179
3 179 42 169
3 181 48 179
3 169 12 181
3 182 168 178
3 178 47 182
3 168 42 178
3 182 13 168
3 184 183 180
3 180 48 184
3 183 47 180
3 184 8 183
3 187 185 186
3 186 50 187
3 185 44 186
3 187 49 185
3 165 188 186
3 186 44 165
3 188 50 186
3 165 14 188
3 189 170 185
3 185 49 189
3 170 44 185
3 189 12 170
3 191 190 187
3 187 50 191
3 190 49 187
3 191 7 190
3 194 192 193
3 193 53 194
3 192 52 193
3 194 51 192
3 196 195 193
3 193 52 196
3 195 53 193
3 196 16 195
3 198 197 192
3 192 51 198
3 197 52 192
3 198 14 197
3 200 199 194
3 194 53 200
3 199 51 194
3 200 15 199
3 203 201 202
3 202 45 203
3 201 52 202
3 203 54 201
3 197 175 202
3 202 52 197
3 175 45 202
3 197 14 175
3 204 196 201
3 201 54 204
3 196 52 201
3 204 16 196
3 176 205 203
3 203 45 176
3 205 54 203
3 176 4 205
3 208 206 207
3 207 55 208
3 206 51 207
3 208 50 206
3 199 209 207
3 207 51 199
3 209 55 207
3 199 15 209
3 188 198 206
3 206 50 188
3 198 51 206
3 188 14 198
3 210 191 208
3 208 55 210
3 191 50 208
3 210 7 191
3 213 211 212
3 212 57 213
3 211 53 212
3 213 56 211
3 195 214 212
3 212 53 195
3 214 57 212
3 195 16 214
3 215 200 211
3 211 56 215
3 200 53 211
3 215 15 200
3 217 216 213
3 213 57 217
3 216 56 213
3 217 9 216
3 220 218 219
3 219 60 220
3 218 59 219
3 220 58 218
3 222 221 219
3 219 59 222
3 221 60 219
3 222 19 221
3 224 223 218
3 218 58 224
3 223 59 218
3 224 18 223
3 226 225 220
3 220 60 226
3 225 58 220
3 226 17 225
3 229 227 228
3 228 62 229
3 227 59 228
3 229 61 227
3 223 230 228
3 228 59 223
3 230 62 228
3 223 18 230
3 231 222 227
3 227 61 231
3 222 59 227
3 231 19 222
3 233 232 229
3 229 62 233
3 232 61 229
3 233 5 232
3 236 234 235
3 235 64 236
3 234 58 235
3 236 63 234
3 225 237 235
3 235 58 225
3 237 64 235
3 225 17 237
3 238 224 234
3 234 63 238
3 224 58 234
3 238 18 224
3 240 239 236
3 236 64 240
3 239 63 236
3 240 6 239
3 243 241 242
3 242 66 243
3 241 60 242
3 243 65 241
3 221 244 242
3 242 60 221
3 244 66 242
3 221 19 244
3 245 226 241
3 241 65 245
3 226 60 241
3 245 17 226
3 247 246 243
3 243 66 247
3 246 65 243
3 247 11 246
3 250 248 249
3 249 69 250
3 248 68 249
3 250 67 248
3 252 251 249
3 249 68 252
3 251 69 249
3 252 18 251
3 254 253 248
3 248 67 254
3 253 68 248
3 254 21 253
3 256 255 250
3 250 69 256
3 255 67 250
3 256 20 255
3 259 257 258
3 258 70 259
3 257 68 258
3 259 62 257
3 253 260 258
3 258 68 253
3 260 70 258
3 253 21 260
3 230 252 257
3 257 62 230
3 252 68 257
3 230 18 252
3 261 233 259
3 259 70 261
3 233 62 259
3 261 5 233
3 264 262 263
3 263 72 264
3 262 67 263
3 264 71 262
3 255 265 263
3 263 67 255
3 265 72 263
3 255 20 265
3 266 254 262
3 262 71 266
3 254 67 262
3 266 21 254
3 268 267 264
3 264 72 268
3 267 71 264
3 268 10 267
3 271 269 270
3 270 63 271
3 269 69 270
3 271 73 269
3 251 238 270
3 270 69 251
3 238 63 270
3 251 18 238
3 272 256 269
3 269 73 272
3 256 69 269
3 272 20 256
3 239 273 271
3 271 63 239
3 273 73 271
3 239 6 273
3 276 274 275
3 275 76 276
3 274 75 275
3 276 74 274
3 278 277 275
3 275 75 278
3 277 76 275
3 278 24 277
3 280 279 274
3 274 74 280
3 279 75 274
3 280 23 279
3 282 281 276
3 276 76 282
3 281 74 276
3 282 22 281
3 285 283 284
3 284 78 285
3 283 75 284
3 285 77 283
3 279 286 284
3 284 75 279
3 286 78 284
3 279 23 286
3 287 278 283
3 283 77 287
3 278 75 283
3 287 24 278
3 289 288 285
3 285 78 289
3 288 77 285
3 289 0 288
3 292 290 291
3 291 80 292
3 290 74 291
3 292 79 290
3 281 293 291
3 291 74 281
3 293 80 291
3 281 22 293
3 294 280 290
3 290 79 294
3 280 74 290
3 294 23 280
3 296 295 292
3 292 80 296
3 295 79 292
3 296 4 295
3 299 297 298
3 298 82 299
3 297 76 298
3 299 81 297
3 277 300 298
3 298 76 277
3 300 82 298
3 277 24 300
3 301 282 297
3 297 81 301
3 282 76 297
3 301 22 282
3 303 302 299
3 299 82 303
3 302 81 299
3 303 3 302
3 306 304 305
3 305 85 306
3 304 84 305
3 306 83 304
3 308 307 305
3 305 84 308
3 307 85 305
3 308 26 307
3 310 309 304
3 304 83 310
3 309 84 304
3 310 24 309
3 312 311 306
3 306 85 312
3 311 83 306
3 312 25 311
3 315 313 314
3 314 77 315
3 313 84 314
3 315 86 313
3 309 287 314
3 314 84 309
3 287 77 314
3 309 24 287
3 316 308 313
3 313 86 316
3 308 84 313
3 316 26 308
3 288 317 315
3 315 77 288
3 317 86 315
3 288 0 317
3 320 318 319
3 319 87 320
3 318 83 319
3 320 82 318
3 311 321 319
3 319 83 311
3 321 87 319
3 311 25 321
3 300 310 318
3 318 82 300
3 310 83 318
3 300 24 310
3 322 303 320
3 320 87 322
3 303 82 320
3 322 3 303
3 325 323 324
3 324 89 325
3 323 85 324
3 325 88 323
3 307 326 324
3 324 85 307
3 326 89 324
3 307 26 326
3 327 312 323
3 323 88 327
3 312 85 323
3 327 25 312
3 329 328 325
3 325 89 329
3 328 88 325
3 329 5 328
3 332 330 331
3 331 92 332
3 330 91 331
3 332 90 330
3 334 333 331
3 331 91 334
3 333 92 331
3 334 29 333
3 336 335 330
3 330 90 336
3 335 91 330
3 336 28 335
3 338 337 332
3 332 92 338
3 337 90 332
3 338 27 337
3 341 339 340
3 340 94 341
3 339 91 340
3 341 93 339
3 335 342 340
3 340 91 335
3 342 94 340
3 335 28 342
3 343 334 339
3 339 93 343
3 334 91 339
3 343 29 334
3 345 344 341
3 341 94 345
3 344 93 341
3 345 2 344
3 348 346 347
3 347 96 348
3 346 90 347
3 348 95 346
3 337 349 347
3 347 90 337
3 349 96 347
3 337 27 349
3 350 336 346
3 346 95 350
3 336 90 346
3 350 28 336
3 352 351 348
3 348 96 352
3 351 95 348
3 352 7 351
3 355 353 354
3 354 98 355
3 353 92 354
3 355 97 353
3 333 356 354
3 354 92 333
3 356 98 354
3 333 29 356
3 357 338 353
3 353 97 357
3 338 92 353
3 357 27 338
3 359 358 355
3 355 98 359
3 358 97 355
3 359 1 358
3 362 360 361
3 361 101 362
3 360 100 361
3 362 99 360
3 364 363 361
3 361 100 364
3 363 101 361
3 364 31 363
3 366 365 360
3 360 99 366
3 365 100 360
3 366 29 365
3 368 367 362
3 362 101 368
3 367 99 362
3 368 30 367
3 371 369 370
3 370 93 371
3 369 100 370
3 371 102 369
3 365 343 370
3 370 100 365
3 343 93 370
3 365 29 343
3 372 364 369
3 369 102 372
3 364 100 369
3 372 31 364
3 344 373 371
3 371 93 344
3 373 102 371
3 344 2 373
3 376 374 375
3 375 103 376
3 374 99 375
3 376 98 374
3 367 377 375
3 375 99 367
3 377 103 375
3 367 30 377
3 356 366 374
3 374 98 356
3 366 99 374
3 356 29 366
3 378 359 376
3 376 103 378
3 359 98 376
3 378 1 359
3 381 379 380
3 380 105 381
3 379 101 380
3 381 104 379
3 363 382 380
3 380 101 363
3 382 105 380
3 363 31 382
3 383 368 379
3 379 104 383
3 368 101 379
3 383 30 368
3 385 384 381
3 381 105 385
3 384 104 381
3 385 6 384
3 388 386 387
3 387 108 388
3 386 107 387
3 388 106 386
3 390 389 387
3 387 107 390
3 389 108 387
3 390 34 389
3 392 391 386
3 386 106 392
3 391 107 386
3 392 33 391
3 394 393 388
3 388 108 394
3 393 106 388
3 394 32 393
3 397 395 396
3 396 110 397
3 395 107 396
3 397 109 395
3 391 398 396
3 396 107 391
3 398 110 396
3 391 33 398
3 399 390 395
3 395 109 399
3 390 107 395
3 399 34 390
3 401 400 397
3 397 110 401
3 400 109 397
3 401 8 400
3 404 402 403
3 403 112 404
3 402 106 403
3 404 111 402
3 393 405 403
3 403 106 393
3 405 112 403
3 393 32 405
3 406 392 402
3 402 111 406
3 392 106 402
3 406 33 392
3 408 407 404
3 404 112 408
3 407 111 404
3 408 0 407
3 411 409 410
3 410 114 411
3 409 108 410
3 411 113 409
3 389 412 410
3 410 108 389
3 412 114 410
3 389 34 412
3 413 394 409
3 409 113 413
3 394 108 409
3 413 32 394
3 415 414 411
3 411 114 415
3 414 113 411
3 415 11 414
3 418 416 417
3 417 117 418
3 416 116 417
3 418 115 416
3 420 419 417
3 417 116 420
3 419 117 417
3 420 36 419
3 422 421 416
3 416 115 422
3 421 116 416
3 422 34 421
3 424 423 418
3 418 117 424
3 423 115 418
3 424 35 423
3 427 425 426
3 426 109 427
3 425 116 426
3 427 118 425
3 421 399 426
3 426 116 421
3 399 109 426
3 421 34 399
3 428 420 425
3 425 118 428
3 420 116 425
3 428 36 420
3 400 429 427
3 427 109 400
3 429 118 427
3 400 8 429
3 432 430 431
3 431 119 432
3 430 115 431
3 432 114 430
3 423 433 431
3 431 115 423
3 433 119 431
3 423 35 433
3 412 422 430
3 430 114 412
3 422 115 430
3 412 34 422
3 434 415 432
3 432 119 434
3 415 114 432
3 434 11 415
3 437 435 436
3 436 121 437
3 435 117 436
3 437 120 435
3 419 438 436
3 436 117 419
3 438 121 436
3 419 36 438
3 439 424 435
3 435 120 439
3 424 117 435
3 439 35 424
3 441 440 437
3 437 121 441
3 440 120 437
3 441 1 440
3 444 442 443
3 443 124 444
3 442 123 443
3 444 122 442
3 446 445 443
3 443 123 446
3 445 124 443
3 446 39 445
3 448 447 442
3 442 122 448
3 447 123 442
3 448 38 447
3 450 449 444
3 444 124 450
3 449 122 444
3 450 37 449
3 453 451 452
3 452 126 453
3 451 123 452
3 453 125 451
3 447 454 452
3 452 123 447
3 454 126 452
3 447 38 454
3 455 446 451
3 451 125 455
3 446 123 451
3 455 39 446
3 457 456 453
3 453 126 457
3 456 125 453
3 457 9 456
3 460 458 459
3 459 128 460
3 458 122 459
3 460 127 458
3 449 461 459
3 459 122 449
3 461 128 459
3 449 37 461
3 462 448 458
3 458 127 462
3 448 122 458
3 462 38 448
3 464 463 460
3 460 128 464
3 463 127 460
3 464 10 463
3 467 465 466
3 466 130 467
3 465 124 466
3 467 129 465
3 445 468 466
3 466 124 445
3 468 130 466
3 445 39 468
3 469 450 465
3 465 129 469
3 450 124 465
3 469 37 450
3 471 470 467
3 467 130 471
3 470 129 467
3 471 3 470
3 474 472 473
3 473 133 474
3 472 132 473
3 474 131 472
3 476 475 473
3 473 132 476
3 475 133 473
3 476 38 475
3 478 477 472
3 472 131 478
3 477 132 472
3 478 41 477
3 480 479 474
3 474 133 480
3 479 131 474
3 480 40 479
3 483 481 482
3 482 134 483
3 481 132 482
3 483 126 481
3 477 484 482
3 482 132 477
3 484 134 482
3 477 41 484
3 454 476 481
3 481 126 454
3 476 132 481
3 454 38 476
3 485 457 483
3 483 134 485
3 457 126 483
3 485 9 457
3 488 486 487
3 487 136 488
3 486 131 487
3 488 135 486
3 479 489 487
3 487 131 479
3 489 136 487
3 479 40 489
3 490 478 486
3 486 135 490
3 478 131 486
3 490 41 478
3 492 491 488
3 488 136 492
3 491 135 488
3 492 2 491
3 495 493 494
3 494 127 495
3 493 133 494
3 495 137 493
3 475 462 494
3 494 133 475
3 462 127 494
3 475 38 462
3 496 480 493
3 493 137 496
3 480 133 493
3 496 40 480
3 463 497 495
3 495 127 463
3 497 137 495
3 463 10 497
3 500 498 499
3 499 140 500
3 498 139 499
3 500 138 498
3 502 501 499
3 499 139 502
3 501 140 499
3 502 33 501
3 504 503 498
3 498 138 504
3 503 139 498
3 504 13 503
3 506 505 500
3 500 140 506
3 505 138 500
3 506 23 505
3 509 507 508
3 508 47 509
3 507 139 508
3 509 110 507
3 503 182 508
3 508 139 503
3 182 47 508
3 503 13 182
3 398 502 507
3 507 110 398
3 502 139 507
3 398 33 502
3 183 401 509
3 509 47 183
3 401 110 509
3 183 8 401
3 512 510 511
3 511 79 512
3 510 138 511
3 512 46 510
3 505 294 511
3 511 138 505
3 294 79 511
3 505 23 294
3 174 504 510
3 510 46 174
3 504 138 510
3 174 13 504
3 295 177 512
3 512 79 295
3 177 46 512
3 295 4 177
3 515 513 514
3 514 111 515
3 513 140 514
3 515 78 513
3 501 406 514
3 514 140 501
3 406 111 514
3 501 33 406
3 286 506 513
3 513 78 286
3 506 140 513
3 286 23 506
3 407 289 515
3 515 111 407
3 289 78 515
3 407 0 289
3 518 516 517
3 517 143 518
3 516 142 517
3 518 141 516
3 520 519 517
3 517 142 520
3 519 143 517
3 520 19 519
3 522 521 516
3 516 141 522
3 521 142 516
3 522 32 521
3 524 523 518
3 518 143 524
3 523 141 518
3 524 26 523
3 527 525 526
3 526 113 527
3 525 142 526
3 527 66 525
3 521 413 526
3 526 142 521
3 413 113 526
3 521 32 413
3 244 520 525
3 525 66 244
3 520 142 525
3 244 19 520
3 414 247 527
3 527 113 414
3 247 66 527
3 414 11 247
3 530 528 529
3 529 86 530
3 528 141 529
3 530 112 528
3 523 316 529
3 529 141 523
3 316 86 529
3 523 26 316
3 405 522 528
3 528 112 405
3 522 141 528
3 405 32 522
3 317 408 530
3 530 86 317
3 408 112 530
3 317 0 408
3 533 531 532
3 532 61 533
3 531 143 532
3 533 89 531
3 519 231 532
3 532 143 519
3 231 61 532
3 519 19 231
3 326 524 531
3 531 89 326
3 524 143 531
3 326 26 524
3 232 329 533
3 533 61 232
3 329 89 533
3 232 5 329
3 536 534 535
3 535 146 536
3 534 145 535
3 536 144 534
3 538 537 535
3 535 145 538
3 537 146 535
3 538 22 537
3 540 539 534
3 534 144 540
3 539 145 534
3 540 16 539
3 542 541 536
3 536 146 542
3 541 144 536
3 542 39 541
3 545 543 544
3 544 54 545
3 543 145 544
3 545 80 543
3 539 204 544
3 544 145 539
3 204 54 544
3 539 16 204
3 293 538 543
3 543 80 293
3 538 145 543
3 293 22 538
3 205 296 545
3 545 54 205
3 296 80 545
3 205 4 296
3 548 546 547
3 547 125 548
3 546 144 547
3 548 57 546
3 541 455 547
3 547 144 541
3 455 125 547
3 541 39 455
3 214 540 546
3 546 57 214
3 540 144 546
3 214 16 540
3 456 217 548
3 548 125 456
3 217 57 548
3 456 9 217
3 551 549 550
3 550 81 551
3 549 146 550
3 551 130 549
3 537 301 550
3 550 146 537
3 301 81 550
3 537 22 301
3 468 542 549
3 549 130 468
3 542 146 549
3 468 39 542
3 302 471 551
3 551 81 302
3 471 130 551
3 302 3 471
3 554 552 553
3 553 149 554
3 552 148 553
3 554 147 552
3 556 555 553
3 553 148 556
3 555 149 553
3 556 21 555
3 558 557 552
3 552 147 558
3 557 148 552
3 558 25 557
3 560 559 554
3 554 149 560
3 559 147 554
3 560 37 559
3 563 561 562
3 562 88 563
3 561 148 562
3 563 70 561
3 557 327 562
3 562 148 557
3 327 88 562
3 557 25 327
3 260 556 561
3 561 70 260
3 556 148 561
3 260 21 556
3 328 261 563
3 563 88 328
3 261 70 563
3 328 5 261
3 566 564 565
3 565 129 566
3 564 147 565
3 566 87 564
3 559 469 565
3 565 147 559
3 469 129 565
3 559 37 469
3 321 558 564
3 564 87 321
3 558 147 564
3 321 25 558
3 470 322 566
3 566 129 470
3 322 87 566
3 470 3 322
3 569 567 568
3 568 71 569
3 567 149 568
3 569 128 567
3 555 266 568
3 568 149 555
3 266 71 568
3 555 21 266
3 461 560 567
3 567 128 461
3 560 149 567
3 461 37 560
3 267 464 569
3 569 71 267
3 464 128 569
3 267 10 464
3 572 570 571
3 571 152 572
3 570 151 571
3 572 150 570
3 574 573 571
3 571 151 574
3 573 152 571
3 574 27 573
3 576 575 570
3 570 150 576
3 575 151 570
3 576 12 575
3 578 577 572
3 572 152 578
3 577 150 572
3 578 36 577
3 581 579 580
3 580 49 581
3 579 151 580
3 581 96 579
3 575 189 580
3 580 151 575
3 189 49 580
3 575 12 189
3 349 574 579
3 579 96 349
3 574 151 579
3 349 27 574
3 190 352 581
3 581 49 190
3 352 96 581
3 190 7 352
3 584 582 583
3 583 118 584
3 582 150 583
3 584 48 582
3 577 428 583
3 583 150 577
3 428 118 583
3 577 36 428
3 181 576 582
3 582 48 181
3 576 150 582
3 181 12 576
3 429 184 584
3 584 118 429
3 184 48 584
3 429 8 184
3 587 585 586
3 586 97 587
3 585 152 586
3 587 121 585
3 573 357 586
3 586 152 573
3 357 97 586
3 573 27 357
3 438 578 585
3 585 121 438
3 578 152 585
3 438 36 578
3 358 441 587
3 587 97 358
3 441 121 587
3 358 1 441
3 590 588 589
3 589 155 590
3 588 154 589
3 590 153 588
3 592 591 589
3 589 154 592
3 591 155 589
3 592 17 591
3 594 593 588
3 588 153 594
3 593 154 588
3 594 30 593
3 596 595 590
3 590 155 596
3 595 153 590
3 596 35 595
3 599 597 598
3 598 104 599
3 597 154 598
3 599 64 597
3 593 383 598
3 598 154 593
3 383 104 598
3 593 30 383
3 237 592 597
3 597 64 237
3 592 154 597
3 237 17 592
3 384 240 599
3 599 104 384
3 240 64 599
3 384 6 240
3 602 600 601
3 601 120 602
3 600 153 601
3 602 103 600
3 595 439 601
3 601 153 595
3 439 120 601
3 595 35 439
3 377 594 600
3 600 103 377
3 594 153 600
3 377 30 594
3 440 378 602
3 602 120 440
3 378 103 602
3 440 1 378
3 605 603 604
3 604 65 605
3 603 155 604
3 605 119 603
3 591 245 604
3 604 155 591
3 245 65 604
3 591 17 245
3 433 596 603
3 603 119 433
3 596 155 603
3 433 35 596
3 246 434 605
3 605 65 246
3 434 119 605
3 246 11 434
3 608 606 607
3 607 158 608
3 606 157 607
3 608 156 606
3 610 609 607
3 607 157 610
3 609 158 607
3 610 15 609
3 612 611 606
3 606 156 612
3 611 157 606
3 612 28 611
3 614 613 608
3 608 158 614
3 613 156 608
3 614 41 613
3 617 615 616
3 616 95 617
3 615 157 616
3 617 55 615
3 611 350 616
3 616 157 611
3 350 95 616
3 611 28 350
3 209 610 615
3 615 55 209
3 610 157 615
3 209 15 610
3 351 210 617
3 617 95 351
3 210 55 617
3 351 7 210
3 620 618 619
3 619 135 620
3 618 156 619
3 620 94 618
3 613 490 619
3 619 156 613
3 490 135 619
3 613 41 490
3 342 612 618
3 618 94 342
3 612 156 618
3 342 28 612
3 491 345 620
3 620 135 491
3 345 94 620
3 491 2 345
3 623 621 622
3 622 56 623
3 621 158 622
3 623 134 621
3 609 215 622
3 622 158 609
3 215 56 622
3 609 15 215
3 484 614 621
3 621 134 484
3 614 158 621
3 484 41 614
3 216 485 623
3 623 56 216
3 485 134 623
3 216 9 485
3 626 624 625
3 625 161 626
3 624 160 625
3 626 159 624
3 628 627 625
3 625 160 628
3 627 161 625
3 628 31 627
3 630 629 624
3 624 159 630
3 629 160 624
3 630 20 629
3 632 631 626
3 626 161 632
3 631 159 626
3 632 40 631
3 635 633 634
3 634 73 635
3 633 160 634
3 635 105 633
3 629 272 634
3 634 160 629
3 272 73 634
3 629 20 272
3 382 628 633
3 633 105 382
3 628 160 633
3 382 31 628
3 273 385 635
3 635 73 273
3 385 105 635
3 273 6 385
3 638 636 637
3 637 137 638
3 636 159 637
3 638 72 636
3 631 496 637
3 637 159 631
3 496 137 637
3 631 40 496
3 265 630 636
3 636 72 265
3 630 159 636
3 265 20 630
3 497 268 638
3 638 137 497
3 268 72 638
3 497 10 268
3 641 639 640
3 640 102 641
3 639 161 640
3 641 136 639
3 627 372 640
3 640 161 627
3 372 102 640
3 627 31 372
3 489 632 639
3 639 136 489
3 632 161 639
3 489 40 632
3 373 492 641
3 641 102 373
3 492 136 641
3 373 2 492
